<?xml version="1.0" encoding="UTF-8"?>
<svg xmlns="http://www.w3.org/2000/svg" xmlns:xlink="http://www.w3.org/1999/xlink" width="270pt" height="65pt" viewBox="0 0 270 65" version="1.1">
<defs>
<clipPath id="clip1">
  <path d="M 78 14 L 108 14 L 108 64.800781 L 78 64.800781 Z M 78 14 "/>
</clipPath>
</defs>
<g id="surface21">
<path style="fill:none;stroke-width:1.5;stroke-linecap:butt;stroke-linejoin:miter;stroke:rgb(0%,0%,0%);stroke-opacity:0.7;stroke-miterlimit:3.25;" d="M 60.023438 22.859375 L 139.59375 22.859375 " transform="matrix(1,0,0,1,-49.5,-3.75)"/>
<path style="fill:none;stroke-width:1.5;stroke-linecap:square;stroke-linejoin:miter;stroke:rgb(0%,0%,0%);stroke-opacity:0.7;stroke-miterlimit:3.25;" d="M 139.59375 22.859375 Z M 139.59375 22.859375 " transform="matrix(1,0,0,1,-49.5,-3.75)"/>
<path style="fill:none;stroke-width:1.5;stroke-linecap:butt;stroke-linejoin:miter;stroke:rgb(0%,0%,0%);stroke-opacity:0.7;stroke-miterlimit:3.25;" d="M 144.671875 23.320312 L 153.402344 24.910156 L 161.652344 26.949219 L 167.550781 29.003906 L 171.597656 31.101562 L 174.1875 33.261719 L 175.621094 35.476562 L 176.128906 37.699219 L 175.902344 39.863281 L 175.074219 41.867188 L 173.753906 43.585938 L 171.992188 44.863281 L 169.8125 45.535156 L 167.179688 45.402344 L 164.011719 44.242188 L 160.171875 41.785156 L 155.441406 37.703125 L 149.550781 31.578125 L 143.8125 24.8125 " transform="matrix(1,0,0,1,-49.5,-3.75)"/>
<path style="fill:none;stroke-width:1.5;stroke-linecap:square;stroke-linejoin:miter;stroke:rgb(0%,0%,0%);stroke-opacity:0.7;stroke-miterlimit:3.25;" d="M 143.8125 24.8125 Z M 143.8125 24.8125 " transform="matrix(1,0,0,1,-49.5,-3.75)"/>
<g clip-path="url(#clip1)" clip-rule="nonzero">
<path style="fill:none;stroke-width:1.5;stroke-linecap:butt;stroke-linejoin:miter;stroke:rgb(0%,0%,0%);stroke-opacity:0.7;stroke-miterlimit:3.25;" d="M 143.015625 25.273438 L 146.003906 33.625 L 148.363281 41.789062 L 149.53125 47.925781 L 149.738281 52.480469 L 149.164062 55.804688 L 147.960938 58.152344 L 146.289062 59.703125 L 144.300781 60.589844 L 142.152344 60.875 L 140.003906 60.589844 L 138.015625 59.703125 L 136.34375 58.152344 L 135.144531 55.804688 L 134.566406 52.480469 L 134.773438 47.925781 L 135.945312 41.789062 L 138.304688 33.625 L 141.292969 25.273438 " transform="matrix(1,0,0,1,-49.5,-3.75)"/>
</g>
<path style="fill:none;stroke-width:1.5;stroke-linecap:square;stroke-linejoin:miter;stroke:rgb(0%,0%,0%);stroke-opacity:0.7;stroke-miterlimit:3.25;" d="M 141.292969 25.273438 Z M 141.292969 25.273438 " transform="matrix(1,0,0,1,-49.5,-3.75)"/>
<path style="fill:none;stroke-width:1.5;stroke-linecap:butt;stroke-linejoin:miter;stroke:rgb(0%,0%,0%);stroke-opacity:0.7;stroke-miterlimit:3.25;" d="M 140.496094 24.8125 L 134.757812 31.578125 L 128.867188 37.703125 L 124.136719 41.785156 L 120.292969 44.242188 L 117.128906 45.402344 L 114.496094 45.535156 L 112.316406 44.863281 L 110.554688 43.585938 L 109.230469 41.867188 L 108.40625 39.863281 L 108.179688 37.699219 L 108.6875 35.476562 L 110.117188 33.261719 L 112.707031 31.101562 L 116.757812 29.003906 L 122.65625 26.949219 L 130.90625 24.910156 L 139.632812 23.320312 " transform="matrix(1,0,0,1,-49.5,-3.75)"/>
<path style="fill:none;stroke-width:1.5;stroke-linecap:square;stroke-linejoin:miter;stroke:rgb(0%,0%,0%);stroke-opacity:0.7;stroke-miterlimit:3.25;" d="M 139.632812 23.320312 Z M 139.632812 23.320312 " transform="matrix(1,0,0,1,-49.5,-3.75)"/>
<path style="fill:none;stroke-width:1.5;stroke-linecap:butt;stroke-linejoin:miter;stroke:rgb(0%,0%,0%);stroke-opacity:0.7;stroke-dasharray:3,3;stroke-miterlimit:3.25;" d="M 144.625 22.183594 L 156.269531 18.992188 L 170.382812 16.671875 L 184.5 15.898438 L 198.617188 16.671875 L 212.730469 18.992188 L 224.375 22.183594 " transform="matrix(1,0,0,1,-49.5,-3.75)"/>
<path style="fill:none;stroke-width:1.5;stroke-linecap:butt;stroke-linejoin:miter;stroke:rgb(0%,0%,0%);stroke-opacity:0.7;stroke-dasharray:3,3;stroke-miterlimit:3.25;" d="M 224.375 22.183594 Z M 224.375 22.183594 " transform="matrix(1,0,0,1,-49.5,-3.75)"/>
<path style="fill:none;stroke-width:1.5;stroke-linecap:butt;stroke-linejoin:miter;stroke:rgb(0%,0%,0%);stroke-opacity:0.7;stroke-dasharray:3,3;stroke-miterlimit:3.25;" d="M 144.625 23.539062 L 156.269531 26.730469 L 170.382812 29.050781 L 184.5 29.824219 L 198.617188 29.050781 L 212.730469 26.730469 L 224.375 23.539062 " transform="matrix(1,0,0,1,-49.5,-3.75)"/>
<path style="fill:none;stroke-width:1.5;stroke-linecap:butt;stroke-linejoin:miter;stroke:rgb(0%,0%,0%);stroke-opacity:0.7;stroke-dasharray:3,3;stroke-miterlimit:3.25;" d="M 224.375 23.539062 Z M 224.375 23.539062 " transform="matrix(1,0,0,1,-49.5,-3.75)"/>
<path style="fill:none;stroke-width:1.5;stroke-linecap:butt;stroke-linejoin:miter;stroke:rgb(0%,0%,0%);stroke-opacity:0.7;stroke-miterlimit:3.25;" d="M 308.976562 22.859375 L 229.40625 22.859375 " transform="matrix(1,0,0,1,-49.5,-3.75)"/>
<path style="fill:none;stroke-width:1.5;stroke-linecap:square;stroke-linejoin:miter;stroke:rgb(0%,0%,0%);stroke-opacity:0.7;stroke-miterlimit:3.25;" d="M 229.40625 22.859375 Z M 229.40625 22.859375 " transform="matrix(1,0,0,1,-49.5,-3.75)"/>
<path style="fill-rule:evenodd;fill:rgb(63.998413%,70.399475%,79.998779%);fill-opacity:1;stroke-width:0.75;stroke-linecap:square;stroke-linejoin:miter;stroke:rgb(0%,0%,0%);stroke-opacity:0.7;stroke-miterlimit:3.25;" d="M 60.023438 22.859375 C 60.023438 22.183594 59.753906 21.53125 59.273438 21.050781 C 58.792969 20.570312 58.140625 20.300781 57.460938 20.300781 C 56.78125 20.300781 56.128906 20.570312 55.648438 21.050781 C 55.167969 21.53125 54.898438 22.183594 54.898438 22.859375 C 54.898438 23.539062 55.167969 24.191406 55.648438 24.671875 C 56.128906 25.152344 56.78125 25.421875 57.460938 25.421875 C 58.140625 25.421875 58.792969 25.152344 59.273438 24.671875 C 59.753906 24.191406 60.023438 23.539062 60.023438 22.859375 Z M 60.023438 22.859375 " transform="matrix(1,0,0,1,-49.5,-3.75)"/>
<path style="fill-rule:evenodd;fill:rgb(63.998413%,70.399475%,79.998779%);fill-opacity:1;stroke-width:0.75;stroke-linecap:square;stroke-linejoin:miter;stroke:rgb(0%,0%,0%);stroke-opacity:0.7;stroke-miterlimit:3.25;" d="M 144.714844 22.859375 C 144.714844 22.183594 144.445312 21.53125 143.964844 21.050781 C 143.484375 20.570312 142.832031 20.300781 142.152344 20.300781 C 141.472656 20.300781 140.824219 20.570312 140.34375 21.050781 C 139.863281 21.53125 139.59375 22.183594 139.59375 22.859375 C 139.59375 23.539062 139.863281 24.191406 140.34375 24.671875 C 140.824219 25.152344 141.472656 25.421875 142.152344 25.421875 C 142.832031 25.421875 143.484375 25.152344 143.964844 24.671875 C 144.445312 24.191406 144.714844 23.539062 144.714844 22.859375 Z M 144.714844 22.859375 " transform="matrix(1,0,0,1,-49.5,-3.75)"/>
<path style="fill-rule:evenodd;fill:rgb(63.998413%,70.399475%,79.998779%);fill-opacity:1;stroke-width:0.75;stroke-linecap:square;stroke-linejoin:miter;stroke:rgb(0%,0%,0%);stroke-opacity:0.7;stroke-miterlimit:3.25;" d="M 314.101562 22.859375 C 314.101562 22.183594 313.832031 21.53125 313.351562 21.050781 C 312.871094 20.570312 312.21875 20.300781 311.539062 20.300781 C 310.859375 20.300781 310.207031 20.570312 309.726562 21.050781 C 309.246094 21.53125 308.976562 22.183594 308.976562 22.859375 C 308.976562 23.539062 309.246094 24.191406 309.726562 24.671875 C 310.207031 25.152344 310.859375 25.421875 311.539062 25.421875 C 312.21875 25.421875 312.871094 25.152344 313.351562 24.671875 C 313.832031 24.191406 314.101562 23.539062 314.101562 22.859375 Z M 314.101562 22.859375 " transform="matrix(1,0,0,1,-49.5,-3.75)"/>
<path style="fill-rule:evenodd;fill:rgb(63.998413%,70.399475%,79.998779%);fill-opacity:1;stroke-width:0.75;stroke-linecap:square;stroke-linejoin:miter;stroke:rgb(0%,0%,0%);stroke-opacity:0.7;stroke-miterlimit:3.25;" d="M 229.40625 22.859375 C 229.40625 22.183594 229.136719 21.53125 228.65625 21.050781 C 228.175781 20.570312 227.527344 20.300781 226.847656 20.300781 C 226.167969 20.300781 225.515625 20.570312 225.035156 21.050781 C 224.554688 21.53125 224.285156 22.183594 224.285156 22.859375 C 224.285156 23.539062 224.554688 24.191406 225.035156 24.671875 C 225.515625 25.152344 226.167969 25.421875 226.847656 25.421875 C 227.527344 25.421875 228.175781 25.152344 228.65625 24.671875 C 229.136719 24.191406 229.40625 23.539062 229.40625 22.859375 Z M 229.40625 22.859375 " transform="matrix(1,0,0,1,-49.5,-3.75)"/>
</g>
</svg>
