<?xml version="1.0" encoding="UTF-8"?>
<svg xmlns="http://www.w3.org/2000/svg" xmlns:xlink="http://www.w3.org/1999/xlink" width="405pt" height="157pt" viewBox="0 0 405 157" version="1.1">
<defs>
<clipPath id="clip1">
  <path d="M 0 155 L 405 155 L 405 156.480469 L 0 156.480469 Z M 0 155 "/>
</clipPath>
<clipPath id="clip2">
  <path d="M 0 0 L 1 0 L 1 156.480469 L 0 156.480469 Z M 0 0 "/>
</clipPath>
<clipPath id="clip3">
  <path d="M 404 0 L 405 0 L 405 156.480469 L 404 156.480469 Z M 404 0 "/>
</clipPath>
</defs>
<g id="surface111">
<path style="fill:none;stroke-width:2.25;stroke-linecap:butt;stroke-linejoin:miter;stroke:rgb(0%,0%,0%);stroke-opacity:0.7;stroke-miterlimit:3.25;" d="M 65.558594 32.445312 L 181.878906 64.84375 " transform="matrix(1,0,0,1,-49.5,-3.75)"/>
<path style="fill:none;stroke-width:2.25;stroke-linecap:square;stroke-linejoin:miter;stroke:rgb(0%,0%,0%);stroke-opacity:0.7;stroke-miterlimit:3.25;" d="M 181.878906 64.84375 Z M 181.878906 64.84375 " transform="matrix(1,0,0,1,-49.5,-3.75)"/>
<path style="fill:none;stroke-width:2.25;stroke-linecap:butt;stroke-linejoin:miter;stroke:rgb(0%,0%,99.998474%);stroke-opacity:0.7;stroke-dasharray:4.5,4.5;stroke-miterlimit:3.25;" d="M 188.550781 63.601562 L 196.578125 57.636719 L 207.636719 50.914062 L 218.699219 45.679688 L 229.757812 41.941406 L 240.820312 39.695312 L 251.882812 38.945312 L 262.945312 39.683594 L 274.011719 41.917969 L 285.074219 45.648438 L 296.140625 50.867188 L 307.207031 57.582031 L 315.242188 63.535156 " transform="matrix(1,0,0,1,-49.5,-3.75)"/>
<path style="fill:none;stroke-width:2.25;stroke-linecap:butt;stroke-linejoin:miter;stroke:rgb(0%,0%,99.998474%);stroke-opacity:0.7;stroke-dasharray:4.5,4.5;stroke-miterlimit:3.25;" d="M 315.242188 63.535156 Z M 315.242188 63.535156 " transform="matrix(1,0,0,1,-49.5,-3.75)"/>
<path style="fill:none;stroke-width:2.25;stroke-linecap:butt;stroke-linejoin:miter;stroke:rgb(0%,0%,99.998474%);stroke-opacity:0.7;stroke-dasharray:4.5,4.5;stroke-miterlimit:3.25;" d="M 188.554688 68.105469 L 196.585938 74.0625 L 207.652344 80.777344 L 218.71875 85.996094 L 229.785156 89.726562 L 240.847656 91.957031 L 251.910156 92.699219 L 262.972656 91.949219 L 274.035156 89.703125 L 285.097656 85.964844 L 296.15625 80.730469 L 307.21875 74.007812 L 315.242188 68.042969 " transform="matrix(1,0,0,1,-49.5,-3.75)"/>
<path style="fill:none;stroke-width:2.25;stroke-linecap:butt;stroke-linejoin:miter;stroke:rgb(0%,0%,99.998474%);stroke-opacity:0.7;stroke-dasharray:4.5,4.5;stroke-miterlimit:3.25;" d="M 315.242188 68.042969 Z M 315.242188 68.042969 " transform="matrix(1,0,0,1,-49.5,-3.75)"/>
<path style="fill:none;stroke-width:2.25;stroke-linecap:butt;stroke-linejoin:miter;stroke:rgb(0%,0%,0%);stroke-opacity:0.7;stroke-dasharray:4.5,4.5;stroke-miterlimit:3.25;" d="M 189.171875 66.828125 L 198.152344 69.21875 L 209.453125 73.660156 L 219.425781 79.179688 L 228.070312 85.773438 L 235.382812 93.445312 L 241.367188 102.191406 L 246.023438 112.015625 L 249.347656 122.917969 L 251.34375 134.898438 L 251.816406 144.179688 " transform="matrix(1,0,0,1,-49.5,-3.75)"/>
<path style="fill:none;stroke-width:2.25;stroke-linecap:butt;stroke-linejoin:miter;stroke:rgb(0%,0%,0%);stroke-opacity:0.7;stroke-dasharray:4.5,4.5;stroke-miterlimit:3.25;" d="M 251.816406 144.179688 Z M 251.816406 144.179688 " transform="matrix(1,0,0,1,-49.5,-3.75)"/>
<path style="fill:none;stroke-width:2.25;stroke-linecap:butt;stroke-linejoin:miter;stroke:rgb(0%,0%,0%);stroke-opacity:0.7;stroke-dasharray:4.5,4.5;stroke-miterlimit:3.25;" d="M 185.710938 69.628906 L 186.183594 78.914062 L 188.179688 90.890625 L 191.503906 101.792969 L 196.15625 111.617188 L 202.140625 120.367188 L 209.457031 128.039062 L 218.097656 134.632812 L 228.074219 140.148438 L 239.375 144.589844 L 248.355469 146.980469 " transform="matrix(1,0,0,1,-49.5,-3.75)"/>
<path style="fill:none;stroke-width:2.25;stroke-linecap:butt;stroke-linejoin:miter;stroke:rgb(0%,0%,0%);stroke-opacity:0.7;stroke-dasharray:4.5,4.5;stroke-miterlimit:3.25;" d="M 248.355469 146.980469 Z M 248.355469 146.980469 " transform="matrix(1,0,0,1,-49.5,-3.75)"/>
<path style="fill:none;stroke-width:2.25;stroke-linecap:butt;stroke-linejoin:miter;stroke:rgb(0%,0%,0%);stroke-opacity:0.7;stroke-miterlimit:3.25;" d="M 438.441406 32.460938 L 321.917969 64.777344 " transform="matrix(1,0,0,1,-49.5,-3.75)"/>
<path style="fill:none;stroke-width:2.25;stroke-linecap:square;stroke-linejoin:miter;stroke:rgb(0%,0%,0%);stroke-opacity:0.7;stroke-miterlimit:3.25;" d="M 321.917969 64.777344 Z M 321.917969 64.777344 " transform="matrix(1,0,0,1,-49.5,-3.75)"/>
<path style="fill:none;stroke-width:2.25;stroke-linecap:butt;stroke-linejoin:miter;stroke:rgb(0%,0%,0%);stroke-opacity:0.7;stroke-miterlimit:3.25;" d="M 315.902344 68.730469 L 254.378906 145.011719 " transform="matrix(1,0,0,1,-49.5,-3.75)"/>
<path style="fill:none;stroke-width:2.25;stroke-linecap:square;stroke-linejoin:miter;stroke:rgb(0%,0%,0%);stroke-opacity:0.7;stroke-miterlimit:3.25;" d="M 254.378906 145.011719 Z M 254.378906 145.011719 " transform="matrix(1,0,0,1,-49.5,-3.75)"/>
<path style="fill-rule:evenodd;fill:rgb(63.998413%,70.399475%,79.998779%);fill-opacity:1;stroke-width:1.125;stroke-linecap:square;stroke-linejoin:miter;stroke:rgb(0%,0%,0%);stroke-opacity:0.7;stroke-miterlimit:3.25;" d="M 65.699219 31.433594 C 65.699219 30.429688 65.300781 29.46875 64.589844 28.761719 C 63.882812 28.050781 62.921875 27.652344 61.917969 27.652344 C 60.917969 27.652344 59.957031 28.050781 59.246094 28.761719 C 58.539062 29.46875 58.140625 30.429688 58.140625 31.433594 C 58.140625 32.433594 58.539062 33.394531 59.246094 34.105469 C 59.957031 34.8125 60.917969 35.210938 61.917969 35.210938 C 62.921875 35.210938 63.882812 34.8125 64.589844 34.105469 C 65.300781 33.394531 65.699219 32.433594 65.699219 31.433594 Z M 65.699219 31.433594 " transform="matrix(1,0,0,1,-49.5,-3.75)"/>
<path style="fill-rule:evenodd;fill:rgb(63.998413%,70.399475%,79.998779%);fill-opacity:1;stroke-width:1.125;stroke-linecap:square;stroke-linejoin:miter;stroke:rgb(0%,0%,0%);stroke-opacity:0.7;stroke-miterlimit:3.25;" d="M 189.296875 65.855469 C 189.296875 64.855469 188.898438 63.894531 188.191406 63.183594 C 187.480469 62.476562 186.519531 62.078125 185.519531 62.078125 C 184.515625 62.078125 183.554688 62.476562 182.847656 63.183594 C 182.136719 63.894531 181.742188 64.855469 181.742188 65.855469 C 181.742188 66.859375 182.136719 67.820312 182.847656 68.527344 C 183.554688 69.238281 184.515625 69.636719 185.519531 69.636719 C 186.519531 69.636719 187.480469 69.238281 188.191406 68.527344 C 188.898438 67.820312 189.296875 66.859375 189.296875 65.855469 Z M 189.296875 65.855469 " transform="matrix(1,0,0,1,-49.5,-3.75)"/>
<path style="fill-rule:evenodd;fill:rgb(63.998413%,70.399475%,79.998779%);fill-opacity:1;stroke-width:1.125;stroke-linecap:square;stroke-linejoin:miter;stroke:rgb(0%,0%,0%);stroke-opacity:0.7;stroke-miterlimit:3.25;" d="M 445.859375 31.449219 C 445.859375 30.449219 445.460938 29.488281 444.753906 28.777344 C 444.042969 28.070312 443.082031 27.671875 442.082031 27.671875 C 441.078125 27.671875 440.117188 28.070312 439.410156 28.777344 C 438.699219 29.488281 438.300781 30.449219 438.300781 31.449219 C 438.300781 32.453125 438.699219 33.414062 439.410156 34.121094 C 440.117188 34.832031 441.078125 35.230469 442.082031 35.230469 C 443.082031 35.230469 444.042969 34.832031 444.753906 34.121094 C 445.460938 33.414062 445.859375 32.453125 445.859375 31.449219 Z M 445.859375 31.449219 " transform="matrix(1,0,0,1,-49.5,-3.75)"/>
<path style="fill-rule:evenodd;fill:rgb(63.998413%,70.399475%,79.998779%);fill-opacity:1;stroke-width:1.125;stroke-linecap:square;stroke-linejoin:miter;stroke:rgb(0%,0%,0%);stroke-opacity:0.7;stroke-miterlimit:3.25;" d="M 322.054688 65.789062 C 322.054688 64.785156 321.65625 63.824219 320.949219 63.117188 C 320.238281 62.40625 319.277344 62.007812 318.277344 62.007812 C 317.273438 62.007812 316.3125 62.40625 315.605469 63.117188 C 314.894531 63.824219 314.496094 64.785156 314.496094 65.789062 C 314.496094 66.789062 314.894531 67.75 315.605469 68.460938 C 316.3125 69.167969 317.273438 69.566406 318.277344 69.566406 C 319.277344 69.566406 320.238281 69.167969 320.949219 68.460938 C 321.65625 67.75 322.054688 66.789062 322.054688 65.789062 Z M 322.054688 65.789062 " transform="matrix(1,0,0,1,-49.5,-3.75)"/>
<path style="fill-rule:evenodd;fill:rgb(63.998413%,70.399475%,79.998779%);fill-opacity:1;stroke-width:1.125;stroke-linecap:square;stroke-linejoin:miter;stroke:rgb(0%,0%,0%);stroke-opacity:0.7;stroke-miterlimit:3.25;" d="M 255.785156 147.953125 C 255.785156 146.953125 255.386719 145.992188 254.679688 145.28125 C 253.972656 144.574219 253.011719 144.175781 252.007812 144.175781 C 251.003906 144.175781 250.042969 144.574219 249.335938 145.28125 C 248.628906 145.992188 248.230469 146.953125 248.230469 147.953125 C 248.230469 148.957031 248.628906 149.917969 249.335938 150.625 C 250.042969 151.335938 251.003906 151.730469 252.007812 151.730469 C 253.011719 151.730469 253.972656 151.335938 254.679688 150.625 C 255.386719 149.917969 255.785156 148.957031 255.785156 147.953125 Z M 255.785156 147.953125 " transform="matrix(1,0,0,1,-49.5,-3.75)"/>
<g clip-path="url(#clip1)" clip-rule="nonzero">
<path style="fill:none;stroke-width:0.5625;stroke-linecap:square;stroke-linejoin:miter;stroke:rgb(39.99939%,39.99939%,39.99939%);stroke-opacity:1;stroke-miterlimit:3.25;" d="M 453.9375 159.488281 L 50.0625 159.488281 " transform="matrix(1,0,0,1,-49.5,-3.75)"/>
</g>
<g clip-path="url(#clip2)" clip-rule="nonzero">
<path style="fill:none;stroke-width:0.5625;stroke-linecap:square;stroke-linejoin:miter;stroke:rgb(39.99939%,39.99939%,39.99939%);stroke-opacity:1;stroke-miterlimit:3.25;" d="M 50.0625 159.488281 L 50.0625 4.3125 " transform="matrix(1,0,0,1,-49.5,-3.75)"/>
</g>
<path style="fill:none;stroke-width:0.5625;stroke-linecap:square;stroke-linejoin:miter;stroke:rgb(39.99939%,39.99939%,39.99939%);stroke-opacity:1;stroke-miterlimit:3.25;" d="M 50.0625 4.3125 L 453.9375 4.3125 " transform="matrix(1,0,0,1,-49.5,-3.75)"/>
<g clip-path="url(#clip3)" clip-rule="nonzero">
<path style="fill:none;stroke-width:0.5625;stroke-linecap:square;stroke-linejoin:miter;stroke:rgb(39.99939%,39.99939%,39.99939%);stroke-opacity:1;stroke-miterlimit:3.25;" d="M 453.9375 4.3125 L 453.9375 159.488281 " transform="matrix(1,0,0,1,-49.5,-3.75)"/>
</g>
</g>
</svg>
