<?xml version="1.0" encoding="UTF-8"?>
<svg xmlns="http://www.w3.org/2000/svg" xmlns:xlink="http://www.w3.org/1999/xlink" width="256pt" height="324pt" viewBox="0 0 256 324" version="1.1">
<g id="surface86">
<path style="fill:none;stroke-width:1.5;stroke-linecap:butt;stroke-linejoin:miter;stroke:rgb(0%,0%,0%);stroke-opacity:0.7;stroke-miterlimit:3.25;" d="M 179.96875 167.863281 L 186.578125 172.882812 L 193.871094 180.230469 L 199.222656 187.5625 L 202.734375 194.683594 L 204.507812 201.417969 L 204.644531 207.621094 L 203.265625 213.160156 L 200.535156 217.933594 L 196.632812 221.855469 L 191.785156 224.855469 L 186.230469 226.882812 L 180.25 227.902344 L 174.125 227.902344 L 168.144531 226.882812 L 162.59375 224.855469 L 157.742188 221.855469 L 153.839844 217.933594 L 151.109375 213.160156 L 149.734375 207.621094 L 149.867188 201.417969 L 151.640625 194.683594 L 155.152344 187.5625 L 160.503906 180.230469 L 167.796875 172.882812 L 174.40625 167.863281 " transform="matrix(1,0,0,1,-49.5,-3.75)"/>
<path style="fill:none;stroke-width:1.5;stroke-linecap:square;stroke-linejoin:miter;stroke:rgb(0%,0%,0%);stroke-opacity:0.7;stroke-miterlimit:3.25;" d="M 174.40625 167.863281 Z M 174.40625 167.863281 " transform="matrix(1,0,0,1,-49.5,-3.75)"/>
<path style="fill:none;stroke-width:1.5;stroke-linecap:butt;stroke-linejoin:miter;stroke:rgb(0%,0%,0%);stroke-opacity:0.7;stroke-dasharray:3,3;stroke-miterlimit:3.25;" d="M 174.40625 163.636719 L 167.796875 158.617188 L 160.503906 151.269531 L 155.152344 143.9375 L 151.640625 136.816406 L 149.867188 130.082031 L 149.734375 123.878906 L 151.109375 118.339844 L 153.839844 113.566406 L 157.742188 109.644531 L 162.59375 106.644531 L 168.144531 104.617188 L 174.125 103.597656 L 180.25 103.597656 L 186.230469 104.617188 L 191.785156 106.644531 L 196.632812 109.644531 L 200.535156 113.566406 L 203.265625 118.339844 L 204.644531 123.878906 L 204.507812 130.082031 L 202.734375 136.816406 L 199.222656 143.9375 L 193.871094 151.269531 L 186.578125 158.617188 L 179.96875 163.636719 " transform="matrix(1,0,0,1,-49.5,-3.75)"/>
<path style="fill:none;stroke-width:1.5;stroke-linecap:butt;stroke-linejoin:miter;stroke:rgb(0%,0%,0%);stroke-opacity:0.7;stroke-dasharray:3,3;stroke-miterlimit:3.25;" d="M 179.96875 163.636719 Z M 179.96875 163.636719 " transform="matrix(1,0,0,1,-49.5,-3.75)"/>
<path style="fill-rule:evenodd;fill:rgb(63.998413%,70.399475%,79.998779%);fill-opacity:1;stroke-width:0.75;stroke-linecap:square;stroke-linejoin:miter;stroke:rgb(0%,0%,0%);stroke-opacity:0.7;stroke-miterlimit:3.25;" d="M 180.679688 165.75 C 180.679688 164.824219 180.3125 163.933594 179.65625 163.28125 C 179.003906 162.625 178.113281 162.257812 177.1875 162.257812 C 176.261719 162.257812 175.375 162.625 174.71875 163.28125 C 174.0625 163.933594 173.695312 164.824219 173.695312 165.75 C 173.695312 166.675781 174.0625 167.566406 174.71875 168.21875 C 175.375 168.875 176.261719 169.242188 177.1875 169.242188 C 178.113281 169.242188 179.003906 168.875 179.65625 168.21875 C 180.3125 167.566406 180.679688 166.675781 180.679688 165.75 Z M 180.679688 165.75 " transform="matrix(1,0,0,1,-49.5,-3.75)"/>
</g>
</svg>
