<?xml version="1.0" encoding="UTF-8"?>
<svg xmlns="http://www.w3.org/2000/svg" xmlns:xlink="http://www.w3.org/1999/xlink" width="270pt" height="282pt" viewBox="0 0 270 282" version="1.1">
<g id="surface1">
<path style="fill:none;stroke-width:1.5;stroke-linecap:butt;stroke-linejoin:miter;stroke:rgb(0%,0%,0%);stroke-opacity:0.7;stroke-miterlimit:3.25;" d="M 219.769531 147.667969 L 216.953125 152.675781 L 211.484375 159.632812 L 205.492188 165.222656 L 199.226562 169.417969 L 192.921875 172.199219 L 186.769531 173.570312 L 180.945312 173.550781 L 175.597656 172.210938 L 170.863281 169.644531 L 166.847656 165.996094 L 163.632812 161.433594 L 161.289062 156.15625 L 159.863281 150.390625 L 159.386719 144.375 L 159.863281 138.359375 L 161.289062 132.589844 L 163.632812 127.3125 L 166.847656 122.75 L 170.863281 119.101562 L 175.597656 116.539062 L 180.945312 115.195312 L 186.769531 115.179688 L 192.921875 116.546875 L 199.226562 119.328125 L 205.492188 123.523438 L 211.484375 129.113281 L 216.953125 136.070312 L 219.769531 141.078125 " transform="matrix(1,0,0,1,-49.5,-3.75)"/>
<path style="fill:none;stroke-width:1.5;stroke-linecap:square;stroke-linejoin:miter;stroke:rgb(0%,0%,0%);stroke-opacity:0.7;stroke-miterlimit:3.25;" d="M 219.769531 141.078125 L 219.769531 141.082031 Z M 219.769531 141.078125 " transform="matrix(1,0,0,1,-49.5,-3.75)"/>
<path style="fill-rule:evenodd;fill:rgb(63.998413%,70.399475%,79.998779%);fill-opacity:1;stroke-width:0.75;stroke-linecap:square;stroke-linejoin:miter;stroke:rgb(0%,0%,0%);stroke-opacity:0.7;stroke-miterlimit:3.25;" d="M 225.398438 144.375 C 225.398438 143.371094 225 142.410156 224.289062 141.703125 C 223.582031 140.992188 222.621094 140.59375 221.621094 140.59375 C 220.617188 140.59375 219.65625 140.992188 218.949219 141.703125 C 218.238281 142.410156 217.839844 143.371094 217.839844 144.375 C 217.839844 145.375 218.238281 146.335938 218.949219 147.042969 C 219.65625 147.753906 220.617188 148.152344 221.621094 148.152344 C 222.621094 148.152344 223.582031 147.753906 224.289062 147.042969 C 225 146.335938 225.398438 145.375 225.398438 144.375 Z M 225.398438 144.375 " transform="matrix(1,0,0,1,-49.5,-3.75)"/>
</g>
</svg>
