<?xml version="1.0" encoding="UTF-8"?>
<svg xmlns="http://www.w3.org/2000/svg" xmlns:xlink="http://www.w3.org/1999/xlink" width="270pt" height="101pt" viewBox="0 0 270 101" version="1.1">
<g id="surface36">
<path style="fill:none;stroke-width:1.5;stroke-linecap:butt;stroke-linejoin:miter;stroke:rgb(0%,0%,0%);stroke-opacity:0.7;stroke-miterlimit:3.25;" d="M 59.347656 12.085938 L 114.183594 33.023438 " transform="matrix(1,0,0,1,-49.5,-3.75)"/>
<path style="fill:none;stroke-width:1.5;stroke-linecap:square;stroke-linejoin:miter;stroke:rgb(0%,0%,0%);stroke-opacity:0.7;stroke-miterlimit:3.25;" d="M 114.183594 33.023438 Z M 114.183594 33.023438 " transform="matrix(1,0,0,1,-49.5,-3.75)"/>
<path style="fill:none;stroke-width:1.5;stroke-linecap:butt;stroke-linejoin:miter;stroke:rgb(0%,0%,0%);stroke-opacity:0.7;stroke-dasharray:3,3;stroke-miterlimit:3.25;" d="M 118.628906 33.941406 L 182.308594 36.636719 " transform="matrix(1,0,0,1,-49.5,-3.75)"/>
<path style="fill:none;stroke-width:1.5;stroke-linecap:butt;stroke-linejoin:miter;stroke:rgb(0%,0%,0%);stroke-opacity:0.7;stroke-dasharray:3,3;stroke-miterlimit:3.25;" d="M 182.308594 36.636719 Z M 182.308594 36.636719 " transform="matrix(1,0,0,1,-49.5,-3.75)"/>
<path style="fill:none;stroke-width:1.5;stroke-linecap:butt;stroke-linejoin:miter;stroke:rgb(0%,0%,0%);stroke-opacity:0.7;stroke-dasharray:3,3;stroke-miterlimit:3.25;" d="M 117.722656 35.675781 L 150.125 78.3125 " transform="matrix(1,0,0,1,-49.5,-3.75)"/>
<path style="fill:none;stroke-width:1.5;stroke-linecap:butt;stroke-linejoin:miter;stroke:rgb(0%,0%,0%);stroke-opacity:0.7;stroke-dasharray:3,3;stroke-miterlimit:3.25;" d="M 150.125 78.3125 Z M 150.125 78.3125 " transform="matrix(1,0,0,1,-49.5,-3.75)"/>
<path style="fill:none;stroke-width:1.5;stroke-linecap:butt;stroke-linejoin:miter;stroke:rgb(0%,0%,0%);stroke-opacity:0.7;stroke-miterlimit:3.25;" d="M 309.652344 12.054688 L 254.929688 32.972656 " transform="matrix(1,0,0,1,-49.5,-3.75)"/>
<path style="fill:none;stroke-width:1.5;stroke-linecap:square;stroke-linejoin:miter;stroke:rgb(0%,0%,0%);stroke-opacity:0.7;stroke-miterlimit:3.25;" d="M 254.929688 32.972656 Z M 254.929688 32.972656 " transform="matrix(1,0,0,1,-49.5,-3.75)"/>
<path style="fill:none;stroke-width:1.5;stroke-linecap:butt;stroke-linejoin:miter;stroke:rgb(0%,0%,0%);stroke-opacity:0.7;stroke-dasharray:3,3;stroke-miterlimit:3.25;" d="M 250.480469 33.894531 L 186.902344 36.636719 " transform="matrix(1,0,0,1,-49.5,-3.75)"/>
<path style="fill:none;stroke-width:1.5;stroke-linecap:butt;stroke-linejoin:miter;stroke:rgb(0%,0%,0%);stroke-opacity:0.7;stroke-dasharray:3,3;stroke-miterlimit:3.25;" d="M 186.902344 36.636719 Z M 186.902344 36.636719 " transform="matrix(1,0,0,1,-49.5,-3.75)"/>
<path style="fill:none;stroke-width:1.5;stroke-linecap:butt;stroke-linejoin:miter;stroke:rgb(0%,0%,0%);stroke-opacity:0.7;stroke-dasharray:3,3;stroke-miterlimit:3.25;" d="M 251.390625 35.625 L 219.050781 78.273438 " transform="matrix(1,0,0,1,-49.5,-3.75)"/>
<path style="fill:none;stroke-width:1.5;stroke-linecap:butt;stroke-linejoin:miter;stroke:rgb(0%,0%,0%);stroke-opacity:0.7;stroke-dasharray:3,3;stroke-miterlimit:3.25;" d="M 219.050781 78.273438 Z M 219.050781 78.273438 " transform="matrix(1,0,0,1,-49.5,-3.75)"/>
<path style="fill:none;stroke-width:1.5;stroke-linecap:butt;stroke-linejoin:miter;stroke:rgb(0%,0%,0%);stroke-opacity:0.7;stroke-dasharray:3,3;stroke-miterlimit:3.25;" d="M 184.605469 39.035156 L 184.613281 94.253906 " transform="matrix(1,0,0,1,-49.5,-3.75)"/>
<path style="fill:none;stroke-width:1.5;stroke-linecap:butt;stroke-linejoin:miter;stroke:rgb(0%,0%,0%);stroke-opacity:0.7;stroke-dasharray:3,3;stroke-miterlimit:3.25;" d="M 184.613281 94.253906 Z M 184.613281 94.253906 " transform="matrix(1,0,0,1,-49.5,-3.75)"/>
<path style="fill:none;stroke-width:1.5;stroke-linecap:butt;stroke-linejoin:miter;stroke:rgb(0%,0%,0%);stroke-opacity:0.7;stroke-dasharray:3,3;stroke-miterlimit:3.25;" d="M 215.363281 80.109375 L 153.816406 80.140625 " transform="matrix(1,0,0,1,-49.5,-3.75)"/>
<path style="fill:none;stroke-width:1.5;stroke-linecap:butt;stroke-linejoin:miter;stroke:rgb(0%,0%,0%);stroke-opacity:0.7;stroke-dasharray:3,3;stroke-miterlimit:3.25;" d="M 153.816406 80.140625 Z M 153.816406 80.140625 " transform="matrix(1,0,0,1,-49.5,-3.75)"/>
<path style="fill:none;stroke-width:1.5;stroke-linecap:butt;stroke-linejoin:miter;stroke:rgb(0%,0%,0%);stroke-opacity:0.7;stroke-dasharray:3,3;stroke-miterlimit:3.25;" d="M 215.605469 81.132812 L 186.671875 95.527344 " transform="matrix(1,0,0,1,-49.5,-3.75)"/>
<path style="fill:none;stroke-width:1.5;stroke-linecap:butt;stroke-linejoin:miter;stroke:rgb(0%,0%,0%);stroke-opacity:0.7;stroke-dasharray:3,3;stroke-miterlimit:3.25;" d="M 186.671875 95.527344 Z M 186.671875 95.527344 " transform="matrix(1,0,0,1,-49.5,-3.75)"/>
<path style="fill:none;stroke-width:1.5;stroke-linecap:butt;stroke-linejoin:miter;stroke:rgb(0%,0%,0%);stroke-opacity:0.7;stroke-dasharray:3,3;stroke-miterlimit:3.25;" d="M 153.578125 81.164062 L 182.554688 95.53125 " transform="matrix(1,0,0,1,-49.5,-3.75)"/>
<path style="fill:none;stroke-width:1.5;stroke-linecap:butt;stroke-linejoin:miter;stroke:rgb(0%,0%,0%);stroke-opacity:0.7;stroke-dasharray:3,3;stroke-miterlimit:3.25;" d="M 182.554688 95.53125 Z M 182.554688 95.53125 " transform="matrix(1,0,0,1,-49.5,-3.75)"/>
<path style="fill-rule:evenodd;fill:rgb(63.998413%,70.399475%,79.998779%);fill-opacity:1;stroke-width:0.75;stroke-linecap:square;stroke-linejoin:miter;stroke:rgb(0%,0%,0%);stroke-opacity:0.7;stroke-miterlimit:3.25;" d="M 59.5 11.265625 C 59.5 10.65625 59.257812 10.070312 58.824219 9.636719 C 58.394531 9.207031 57.808594 8.964844 57.199219 8.964844 C 56.589844 8.964844 56.003906 9.207031 55.574219 9.636719 C 55.140625 10.070312 54.898438 10.65625 54.898438 11.265625 C 54.898438 11.875 55.140625 12.460938 55.574219 12.890625 C 56.003906 13.320312 56.589844 13.5625 57.199219 13.5625 C 57.808594 13.5625 58.394531 13.320312 58.824219 12.890625 C 59.257812 12.460938 59.5 11.875 59.5 11.265625 Z M 59.5 11.265625 " transform="matrix(1,0,0,1,-49.5,-3.75)"/>
<path style="fill-rule:evenodd;fill:rgb(63.998413%,70.399475%,79.998779%);fill-opacity:1;stroke-width:0.75;stroke-linecap:square;stroke-linejoin:miter;stroke:rgb(0%,0%,0%);stroke-opacity:0.7;stroke-miterlimit:3.25;" d="M 118.628906 33.84375 C 118.628906 33.234375 118.386719 32.648438 117.957031 32.21875 C 117.523438 31.785156 116.941406 31.542969 116.332031 31.542969 C 115.71875 31.542969 115.136719 31.785156 114.703125 32.21875 C 114.273438 32.648438 114.03125 33.234375 114.03125 33.84375 C 114.03125 34.453125 114.273438 35.039062 114.703125 35.46875 C 115.136719 35.902344 115.71875 36.144531 116.332031 36.144531 C 116.941406 36.144531 117.523438 35.902344 117.957031 35.46875 C 118.386719 35.039062 118.628906 34.453125 118.628906 33.84375 Z M 118.628906 33.84375 " transform="matrix(1,0,0,1,-49.5,-3.75)"/>
<path style="fill-rule:evenodd;fill:rgb(63.998413%,70.399475%,79.998779%);fill-opacity:1;stroke-width:0.75;stroke-linecap:square;stroke-linejoin:miter;stroke:rgb(0%,0%,0%);stroke-opacity:0.7;stroke-miterlimit:3.25;" d="M 314.101562 11.234375 C 314.101562 10.625 313.859375 10.039062 313.425781 9.609375 C 312.996094 9.175781 312.410156 8.933594 311.800781 8.933594 C 311.191406 8.933594 310.605469 9.175781 310.175781 9.609375 C 309.742188 10.039062 309.5 10.625 309.5 11.234375 C 309.5 11.84375 309.742188 12.429688 310.175781 12.859375 C 310.605469 13.289062 311.191406 13.53125 311.800781 13.53125 C 312.410156 13.53125 312.996094 13.289062 313.425781 12.859375 C 313.859375 12.429688 314.101562 11.84375 314.101562 11.234375 Z M 314.101562 11.234375 " transform="matrix(1,0,0,1,-49.5,-3.75)"/>
<path style="fill-rule:evenodd;fill:rgb(63.998413%,70.399475%,79.998779%);fill-opacity:1;stroke-width:0.75;stroke-linecap:square;stroke-linejoin:miter;stroke:rgb(0%,0%,0%);stroke-opacity:0.7;stroke-miterlimit:3.25;" d="M 255.078125 33.792969 C 255.078125 33.183594 254.835938 32.597656 254.40625 32.167969 C 253.972656 31.738281 253.390625 31.496094 252.78125 31.496094 C 252.171875 31.496094 251.585938 31.738281 251.152344 32.167969 C 250.722656 32.597656 250.480469 33.183594 250.480469 33.792969 C 250.480469 34.402344 250.722656 34.988281 251.152344 35.417969 C 251.585938 35.851562 252.171875 36.09375 252.78125 36.09375 C 253.390625 36.09375 253.972656 35.851562 254.40625 35.417969 C 254.835938 34.988281 255.078125 34.402344 255.078125 33.792969 Z M 255.078125 33.792969 " transform="matrix(1,0,0,1,-49.5,-3.75)"/>
<path style="fill-rule:evenodd;fill:rgb(63.998413%,70.399475%,79.998779%);fill-opacity:1;stroke-width:0.75;stroke-linecap:square;stroke-linejoin:miter;stroke:rgb(0%,0%,0%);stroke-opacity:0.7;stroke-miterlimit:3.25;" d="M 186.90625 36.734375 C 186.90625 36.125 186.664062 35.539062 186.230469 35.109375 C 185.800781 34.679688 185.214844 34.4375 184.605469 34.4375 C 183.996094 34.4375 183.410156 34.679688 182.980469 35.109375 C 182.550781 35.539062 182.308594 36.125 182.308594 36.734375 C 182.308594 37.34375 182.550781 37.929688 182.980469 38.359375 C 183.410156 38.792969 183.996094 39.035156 184.605469 39.035156 C 185.214844 39.035156 185.800781 38.792969 186.230469 38.359375 C 186.664062 37.929688 186.90625 37.34375 186.90625 36.734375 Z M 186.90625 36.734375 " transform="matrix(1,0,0,1,-49.5,-3.75)"/>
<path style="fill-rule:evenodd;fill:rgb(63.998413%,70.399475%,79.998779%);fill-opacity:1;stroke-width:0.75;stroke-linecap:square;stroke-linejoin:miter;stroke:rgb(0%,0%,0%);stroke-opacity:0.7;stroke-miterlimit:3.25;" d="M 219.960938 80.105469 C 219.960938 79.496094 219.71875 78.910156 219.289062 78.480469 C 218.859375 78.050781 218.273438 77.808594 217.664062 77.808594 C 217.054688 77.808594 216.46875 78.050781 216.035156 78.480469 C 215.605469 78.910156 215.363281 79.496094 215.363281 80.105469 C 215.363281 80.714844 215.605469 81.300781 216.035156 81.734375 C 216.46875 82.164062 217.054688 82.40625 217.664062 82.40625 C 218.273438 82.40625 218.859375 82.164062 219.289062 81.734375 C 219.71875 81.300781 219.960938 80.714844 219.960938 80.105469 Z M 219.960938 80.105469 " transform="matrix(1,0,0,1,-49.5,-3.75)"/>
<path style="fill-rule:evenodd;fill:rgb(63.998413%,70.399475%,79.998779%);fill-opacity:1;stroke-width:0.75;stroke-linecap:square;stroke-linejoin:miter;stroke:rgb(0%,0%,0%);stroke-opacity:0.7;stroke-miterlimit:3.25;" d="M 153.816406 80.144531 C 153.816406 79.535156 153.574219 78.949219 153.144531 78.515625 C 152.710938 78.085938 152.128906 77.84375 151.519531 77.84375 C 150.90625 77.84375 150.324219 78.085938 149.890625 78.515625 C 149.460938 78.949219 149.21875 79.535156 149.21875 80.144531 C 149.21875 80.753906 149.460938 81.335938 149.890625 81.769531 C 150.324219 82.199219 150.90625 82.441406 151.519531 82.441406 C 152.128906 82.441406 152.710938 82.199219 153.144531 81.769531 C 153.574219 81.335938 153.816406 80.753906 153.816406 80.144531 Z M 153.816406 80.144531 " transform="matrix(1,0,0,1,-49.5,-3.75)"/>
<path style="fill-rule:evenodd;fill:rgb(63.998413%,70.399475%,79.998779%);fill-opacity:1;stroke-width:0.75;stroke-linecap:square;stroke-linejoin:miter;stroke:rgb(0%,0%,0%);stroke-opacity:0.7;stroke-miterlimit:3.25;" d="M 186.914062 96.550781 C 186.914062 95.941406 186.671875 95.355469 186.238281 94.925781 C 185.808594 94.496094 185.222656 94.253906 184.613281 94.253906 C 184.003906 94.253906 183.417969 94.496094 182.988281 94.925781 C 182.554688 95.355469 182.3125 95.941406 182.3125 96.550781 C 182.3125 97.160156 182.554688 97.746094 182.988281 98.179688 C 183.417969 98.609375 184.003906 98.851562 184.613281 98.851562 C 185.222656 98.851562 185.808594 98.609375 186.238281 98.179688 C 186.671875 97.746094 186.914062 97.160156 186.914062 96.550781 Z M 186.914062 96.550781 " transform="matrix(1,0,0,1,-49.5,-3.75)"/>
</g>
</svg>
