<?xml version="1.0" encoding="UTF-8"?>
<svg xmlns="http://www.w3.org/2000/svg" xmlns:xlink="http://www.w3.org/1999/xlink" width="405pt" height="464pt" viewBox="0 0 405 464" version="1.1">
<defs>
<clipPath id="clip1">
  <path d="M 0 462 L 405 462 L 405 463.679688 L 0 463.679688 Z M 0 462 "/>
</clipPath>
<clipPath id="clip2">
  <path d="M 0 0 L 1 0 L 1 463.679688 L 0 463.679688 Z M 0 0 "/>
</clipPath>
<clipPath id="clip3">
  <path d="M 404 0 L 405 0 L 405 463.679688 L 404 463.679688 Z M 404 0 "/>
</clipPath>
</defs>
<g id="surface1">
<path style="fill:none;stroke-width:2.25;stroke-linecap:butt;stroke-linejoin:miter;stroke:rgb(99.998474%,0%,0%);stroke-opacity:0.7;stroke-dasharray:4.5,4.5;stroke-miterlimit:3.25;" d="M 64.296875 314.453125 L 234.457031 19.726562 " transform="matrix(1,0,0,1,-49.5,-3.75)"/>
<path style="fill:none;stroke-width:2.25;stroke-linecap:butt;stroke-linejoin:miter;stroke:rgb(99.998474%,0%,0%);stroke-opacity:0.7;stroke-dasharray:4.5,4.5;stroke-miterlimit:3.25;" d="M 234.457031 19.726562 Z M 234.457031 19.726562 " transform="matrix(1,0,0,1,-49.5,-3.75)"/>
<path style="fill:none;stroke-width:2.25;stroke-linecap:butt;stroke-linejoin:miter;stroke:rgb(0%,0%,99.998474%);stroke-opacity:0.7;stroke-dasharray:4.5,4.5;stroke-miterlimit:3.25;" d="M 65.5 315.503906 L 79.671875 304.601562 L 97.097656 292.605469 L 114.523438 282.019531 L 131.949219 272.847656 L 149.378906 265.085938 L 166.804688 258.734375 L 184.230469 253.796875 L 201.65625 250.265625 L 219.082031 248.148438 L 236.507812 247.445312 L 253.9375 248.148438 L 271.363281 250.265625 L 288.789062 253.796875 L 306.214844 258.734375 L 323.640625 265.085938 L 341.070312 272.847656 L 358.496094 282.019531 L 375.921875 292.605469 L 393.347656 304.601562 L 407.519531 315.503906 " transform="matrix(1,0,0,1,-49.5,-3.75)"/>
<path style="fill:none;stroke-width:2.25;stroke-linecap:butt;stroke-linejoin:miter;stroke:rgb(0%,0%,99.998474%);stroke-opacity:0.7;stroke-dasharray:4.5,4.5;stroke-miterlimit:3.25;" d="M 407.519531 315.503906 Z M 407.519531 315.503906 " transform="matrix(1,0,0,1,-49.5,-3.75)"/>
<path style="fill:none;stroke-width:2.25;stroke-linecap:butt;stroke-linejoin:miter;stroke:rgb(0%,0%,99.998474%);stroke-opacity:0.7;stroke-dasharray:4.5,4.5;stroke-miterlimit:3.25;" d="M 65.5 320.511719 L 79.671875 331.414062 L 97.097656 343.410156 L 114.523438 353.992188 L 131.949219 363.167969 L 149.378906 370.929688 L 166.804688 377.28125 L 184.230469 382.21875 L 201.65625 385.746094 L 219.082031 387.863281 L 236.507812 388.570312 L 253.9375 387.863281 L 271.363281 385.746094 L 288.789062 382.21875 L 306.214844 377.28125 L 323.640625 370.929688 L 341.070312 363.167969 L 358.496094 353.992188 L 375.921875 343.410156 L 393.347656 331.414062 L 407.519531 320.511719 " transform="matrix(1,0,0,1,-49.5,-3.75)"/>
<path style="fill:none;stroke-width:2.25;stroke-linecap:butt;stroke-linejoin:miter;stroke:rgb(0%,0%,99.998474%);stroke-opacity:0.7;stroke-dasharray:4.5,4.5;stroke-miterlimit:3.25;" d="M 407.519531 320.511719 Z M 407.519531 320.511719 " transform="matrix(1,0,0,1,-49.5,-3.75)"/>
<path style="fill:none;stroke-width:2.25;stroke-linecap:butt;stroke-linejoin:miter;stroke:rgb(0%,0%,0%);stroke-opacity:0.7;stroke-dasharray:4.5,4.5;stroke-miterlimit:3.25;" d="M 240.304688 17.738281 L 256.832031 24.558594 L 275.933594 33.652344 L 293.816406 43.453125 L 310.472656 53.957031 L 325.90625 65.167969 L 340.121094 77.085938 L 353.113281 89.707031 L 364.878906 103.035156 L 375.425781 117.070312 L 384.75 131.808594 L 392.851562 147.253906 L 399.734375 163.402344 L 405.390625 180.257812 L 409.828125 197.820312 L 413.039062 216.085938 L 415.03125 235.058594 L 415.800781 254.738281 L 415.347656 275.121094 L 413.671875 296.210938 L 411.316406 313.9375 " transform="matrix(1,0,0,1,-49.5,-3.75)"/>
<path style="fill:none;stroke-width:2.25;stroke-linecap:butt;stroke-linejoin:miter;stroke:rgb(0%,0%,0%);stroke-opacity:0.7;stroke-dasharray:4.5,4.5;stroke-miterlimit:3.25;" d="M 411.316406 313.9375 Z M 411.316406 313.9375 " transform="matrix(1,0,0,1,-49.5,-3.75)"/>
<path style="fill:none;stroke-width:2.25;stroke-linecap:butt;stroke-linejoin:miter;stroke:rgb(0%,0%,0%);stroke-opacity:0.7;stroke-miterlimit:3.25;" d="M 235.96875 20.242188 L 233.613281 37.96875 L 231.9375 59.054688 L 231.484375 79.441406 L 232.253906 99.117188 L 234.242188 118.089844 L 237.457031 136.359375 L 241.894531 153.921875 L 247.550781 170.777344 L 254.429688 186.925781 L 262.53125 202.371094 L 271.855469 217.109375 L 282.402344 231.144531 L 294.171875 244.472656 L 307.164062 257.09375 L 321.375 269.007812 L 336.8125 280.21875 L 353.46875 290.726562 L 371.347656 300.523438 L 390.449219 309.617188 L 406.980469 316.441406 " transform="matrix(1,0,0,1,-49.5,-3.75)"/>
<path style="fill:none;stroke-width:2.25;stroke-linecap:square;stroke-linejoin:miter;stroke:rgb(0%,0%,0%);stroke-opacity:0.7;stroke-miterlimit:3.25;" d="M 406.980469 316.441406 Z M 406.980469 316.441406 " transform="matrix(1,0,0,1,-49.5,-3.75)"/>
<path style="fill-rule:evenodd;fill:rgb(63.998413%,70.399475%,79.998779%);fill-opacity:1;stroke-width:1.125;stroke-linecap:square;stroke-linejoin:miter;stroke:rgb(0%,0%,0%);stroke-opacity:0.7;stroke-miterlimit:3.25;" d="M 66.351562 318.007812 C 66.351562 316.917969 65.917969 315.875 65.148438 315.105469 C 64.378906 314.335938 63.332031 313.902344 62.246094 313.902344 C 61.15625 313.902344 60.113281 314.335938 59.34375 315.105469 C 58.574219 315.875 58.140625 316.917969 58.140625 318.007812 C 58.140625 319.097656 58.574219 320.140625 59.34375 320.910156 C 60.113281 321.679688 61.15625 322.113281 62.246094 322.113281 C 63.332031 322.113281 64.378906 321.679688 65.148438 320.910156 C 65.917969 320.140625 66.351562 319.097656 66.351562 318.007812 Z M 66.351562 318.007812 " transform="matrix(1,0,0,1,-49.5,-3.75)"/>
<path style="fill-rule:evenodd;fill:rgb(63.998413%,70.399475%,79.998779%);fill-opacity:1;stroke-width:1.125;stroke-linecap:square;stroke-linejoin:miter;stroke:rgb(0%,0%,0%);stroke-opacity:0.7;stroke-miterlimit:3.25;" d="M 240.613281 16.171875 C 240.613281 15.082031 240.183594 14.039062 239.414062 13.269531 C 238.640625 12.5 237.597656 12.066406 236.507812 12.066406 C 235.421875 12.066406 234.375 12.5 233.605469 13.269531 C 232.835938 14.039062 232.40625 15.082031 232.40625 16.171875 C 232.40625 17.261719 232.835938 18.304688 233.605469 19.074219 C 234.375 19.84375 235.421875 20.277344 236.507812 20.277344 C 237.597656 20.277344 238.640625 19.84375 239.414062 19.074219 C 240.183594 18.304688 240.613281 17.261719 240.613281 16.171875 Z M 240.613281 16.171875 " transform="matrix(1,0,0,1,-49.5,-3.75)"/>
<path style="fill-rule:evenodd;fill:rgb(63.998413%,70.399475%,79.998779%);fill-opacity:1;stroke-width:1.125;stroke-linecap:square;stroke-linejoin:miter;stroke:rgb(0%,0%,0%);stroke-opacity:0.7;stroke-miterlimit:3.25;" d="M 414.878906 318.007812 C 414.878906 316.917969 414.445312 315.875 413.675781 315.105469 C 412.90625 314.335938 411.863281 313.902344 410.773438 313.902344 C 409.6875 313.902344 408.640625 314.335938 407.871094 315.105469 C 407.101562 315.875 406.667969 316.917969 406.667969 318.007812 C 406.667969 319.097656 407.101562 320.140625 407.871094 320.910156 C 408.640625 321.679688 409.6875 322.113281 410.773438 322.113281 C 411.863281 322.113281 412.90625 321.679688 413.675781 320.910156 C 414.445312 320.140625 414.878906 319.097656 414.878906 318.007812 Z M 414.878906 318.007812 " transform="matrix(1,0,0,1,-49.5,-3.75)"/>
<g clip-path="url(#clip1)" clip-rule="nonzero">
<path style="fill:none;stroke-width:0.5625;stroke-linecap:square;stroke-linejoin:miter;stroke:rgb(39.99939%,39.99939%,39.99939%);stroke-opacity:1;stroke-miterlimit:3.25;" d="M 453.9375 466.886719 L 50.0625 466.886719 " transform="matrix(1,0,0,1,-49.5,-3.75)"/>
</g>
<g clip-path="url(#clip2)" clip-rule="nonzero">
<path style="fill:none;stroke-width:0.5625;stroke-linecap:square;stroke-linejoin:miter;stroke:rgb(39.99939%,39.99939%,39.99939%);stroke-opacity:1;stroke-miterlimit:3.25;" d="M 50.0625 466.886719 L 50.0625 4.3125 " transform="matrix(1,0,0,1,-49.5,-3.75)"/>
</g>
<path style="fill:none;stroke-width:0.5625;stroke-linecap:square;stroke-linejoin:miter;stroke:rgb(39.99939%,39.99939%,39.99939%);stroke-opacity:1;stroke-miterlimit:3.25;" d="M 50.0625 4.3125 L 453.9375 4.3125 " transform="matrix(1,0,0,1,-49.5,-3.75)"/>
<g clip-path="url(#clip3)" clip-rule="nonzero">
<path style="fill:none;stroke-width:0.5625;stroke-linecap:square;stroke-linejoin:miter;stroke:rgb(39.99939%,39.99939%,39.99939%);stroke-opacity:1;stroke-miterlimit:3.25;" d="M 453.9375 4.3125 L 453.9375 466.886719 " transform="matrix(1,0,0,1,-49.5,-3.75)"/>
</g>
</g>
</svg>
