<?xml version="1.0" encoding="UTF-8"?>
<svg xmlns="http://www.w3.org/2000/svg" xmlns:xlink="http://www.w3.org/1999/xlink" width="270pt" height="238pt" viewBox="0 0 270 238" version="1.1">
<g id="surface66">
<path style="fill:none;stroke-width:1.5;stroke-linecap:butt;stroke-linejoin:miter;stroke:rgb(0%,0%,0%);stroke-opacity:0.7;stroke-miterlimit:3.25;" d="M 181.660156 230.378906 L 182.738281 141.277344 " transform="matrix(1,0,0,1,-49.5,-3.75)"/>
<path style="fill:none;stroke-width:1.5;stroke-linecap:square;stroke-linejoin:miter;stroke:rgb(0%,0%,0%);stroke-opacity:0.7;stroke-miterlimit:3.25;" d="M 182.738281 141.277344 Z M 182.738281 141.277344 " transform="matrix(1,0,0,1,-49.5,-3.75)"/>
<path style="fill:none;stroke-width:1.5;stroke-linecap:butt;stroke-linejoin:miter;stroke:rgb(0%,0%,0%);stroke-opacity:0.7;stroke-dasharray:3,3;stroke-miterlimit:3.25;" d="M 183.46875 136.121094 L 186.921875 123.628906 L 192.488281 109.449219 L 199.472656 96.113281 L 207.871094 83.621094 L 217.6875 71.96875 L 227.027344 62.984375 " transform="matrix(1,0,0,1,-49.5,-3.75)"/>
<path style="fill:none;stroke-width:1.5;stroke-linecap:butt;stroke-linejoin:miter;stroke:rgb(0%,0%,0%);stroke-opacity:0.7;stroke-dasharray:3,3;stroke-miterlimit:3.25;" d="M 227.027344 62.984375 Z M 227.027344 62.984375 " transform="matrix(1,0,0,1,-49.5,-3.75)"/>
<path style="fill:none;stroke-width:1.5;stroke-linecap:butt;stroke-linejoin:miter;stroke:rgb(0%,0%,0%);stroke-opacity:0.7;stroke-miterlimit:3.25;" d="M 184.660156 136.832031 L 194 127.847656 L 203.816406 116.195312 L 212.214844 103.703125 L 219.199219 90.367188 L 224.765625 76.1875 L 228.21875 63.691406 " transform="matrix(1,0,0,1,-49.5,-3.75)"/>
<path style="fill:none;stroke-width:1.5;stroke-linecap:square;stroke-linejoin:miter;stroke:rgb(0%,0%,0%);stroke-opacity:0.7;stroke-miterlimit:3.25;" d="M 228.21875 63.691406 Z M 228.21875 63.691406 " transform="matrix(1,0,0,1,-49.5,-3.75)"/>
<path style="fill:none;stroke-width:1.5;stroke-linecap:butt;stroke-linejoin:miter;stroke:rgb(0%,0%,0%);stroke-opacity:0.7;stroke-dasharray:3,3;stroke-miterlimit:3.25;" d="M 181.484375 136.363281 L 139.917969 62.222656 " transform="matrix(1,0,0,1,-49.5,-3.75)"/>
<path style="fill:none;stroke-width:1.5;stroke-linecap:butt;stroke-linejoin:miter;stroke:rgb(0%,0%,0%);stroke-opacity:0.7;stroke-dasharray:3,3;stroke-miterlimit:3.25;" d="M 139.917969 62.222656 Z M 139.917969 62.222656 " transform="matrix(1,0,0,1,-49.5,-3.75)"/>
<path style="fill:none;stroke-width:1.5;stroke-linecap:butt;stroke-linejoin:miter;stroke:rgb(0%,0%,0%);stroke-opacity:0.7;stroke-miterlimit:3.25;" d="M 309.183594 16.484375 L 231.210938 59.886719 " transform="matrix(1,0,0,1,-49.5,-3.75)"/>
<path style="fill:none;stroke-width:1.5;stroke-linecap:square;stroke-linejoin:miter;stroke:rgb(0%,0%,0%);stroke-opacity:0.7;stroke-miterlimit:3.25;" d="M 231.210938 59.886719 Z M 231.210938 59.886719 " transform="matrix(1,0,0,1,-49.5,-3.75)"/>
<path style="fill:none;stroke-width:1.5;stroke-linecap:butt;stroke-linejoin:miter;stroke:rgb(0%,0%,0%);stroke-opacity:0.7;stroke-dasharray:3,3;stroke-miterlimit:3.25;" d="M 226.292969 61.128906 L 141.261719 59.972656 " transform="matrix(1,0,0,1,-49.5,-3.75)"/>
<path style="fill:none;stroke-width:1.5;stroke-linecap:butt;stroke-linejoin:miter;stroke:rgb(0%,0%,0%);stroke-opacity:0.7;stroke-dasharray:3,3;stroke-miterlimit:3.25;" d="M 141.261719 59.972656 Z M 141.261719 59.972656 " transform="matrix(1,0,0,1,-49.5,-3.75)"/>
<path style="fill:none;stroke-width:1.5;stroke-linecap:butt;stroke-linejoin:miter;stroke:rgb(0%,0%,0%);stroke-opacity:0.7;stroke-miterlimit:3.25;" d="M 59.777344 12.902344 L 136.382812 58.589844 " transform="matrix(1,0,0,1,-49.5,-3.75)"/>
<path style="fill:none;stroke-width:1.5;stroke-linecap:square;stroke-linejoin:miter;stroke:rgb(0%,0%,0%);stroke-opacity:0.7;stroke-miterlimit:3.25;" d="M 136.382812 58.589844 Z M 136.382812 58.589844 " transform="matrix(1,0,0,1,-49.5,-3.75)"/>
<path style="fill-rule:evenodd;fill:rgb(63.998413%,70.399475%,79.998779%);fill-opacity:1;stroke-width:0.75;stroke-linecap:square;stroke-linejoin:miter;stroke:rgb(0%,0%,0%);stroke-opacity:0.7;stroke-miterlimit:3.25;" d="M 184.253906 233.003906 C 184.253906 232.304688 183.976562 231.640625 183.484375 231.148438 C 182.992188 230.65625 182.324219 230.378906 181.628906 230.378906 C 180.933594 230.378906 180.265625 230.65625 179.773438 231.148438 C 179.28125 231.640625 179.003906 232.304688 179.003906 233.003906 C 179.003906 233.699219 179.28125 234.367188 179.773438 234.859375 C 180.265625 235.351562 180.933594 235.625 181.628906 235.625 C 182.324219 235.625 182.992188 235.351562 183.484375 234.859375 C 183.976562 234.367188 184.253906 233.699219 184.253906 233.003906 Z M 184.253906 233.003906 " transform="matrix(1,0,0,1,-49.5,-3.75)"/>
<path style="fill-rule:evenodd;fill:rgb(63.998413%,70.399475%,79.998779%);fill-opacity:1;stroke-width:0.75;stroke-linecap:square;stroke-linejoin:miter;stroke:rgb(0%,0%,0%);stroke-opacity:0.7;stroke-miterlimit:3.25;" d="M 185.394531 138.652344 C 185.394531 137.957031 185.117188 137.289062 184.625 136.796875 C 184.132812 136.304688 183.464844 136.027344 182.769531 136.027344 C 182.070312 136.027344 181.40625 136.304688 180.914062 136.796875 C 180.421875 137.289062 180.144531 137.957031 180.144531 138.652344 C 180.144531 139.347656 180.421875 140.015625 180.914062 140.507812 C 181.40625 141 182.070312 141.277344 182.769531 141.277344 C 183.464844 141.277344 184.132812 141 184.625 140.507812 C 185.117188 140.015625 185.394531 139.347656 185.394531 138.652344 Z M 185.394531 138.652344 " transform="matrix(1,0,0,1,-49.5,-3.75)"/>
<path style="fill-rule:evenodd;fill:rgb(63.998413%,70.399475%,79.998779%);fill-opacity:1;stroke-width:0.75;stroke-linecap:square;stroke-linejoin:miter;stroke:rgb(0%,0%,0%);stroke-opacity:0.7;stroke-miterlimit:3.25;" d="M 314.101562 15.207031 C 314.101562 14.511719 313.824219 13.84375 313.332031 13.351562 C 312.839844 12.859375 312.171875 12.582031 311.476562 12.582031 C 310.78125 12.582031 310.113281 12.859375 309.621094 13.351562 C 309.128906 13.84375 308.851562 14.511719 308.851562 15.207031 C 308.851562 15.902344 309.128906 16.570312 309.621094 17.0625 C 310.113281 17.554688 310.78125 17.832031 311.476562 17.832031 C 312.171875 17.832031 312.839844 17.554688 313.332031 17.0625 C 313.824219 16.570312 314.101562 15.902344 314.101562 15.207031 Z M 314.101562 15.207031 " transform="matrix(1,0,0,1,-49.5,-3.75)"/>
<path style="fill-rule:evenodd;fill:rgb(63.998413%,70.399475%,79.998779%);fill-opacity:1;stroke-width:0.75;stroke-linecap:square;stroke-linejoin:miter;stroke:rgb(0%,0%,0%);stroke-opacity:0.7;stroke-miterlimit:3.25;" d="M 231.542969 61.164062 C 231.542969 60.46875 231.265625 59.800781 230.773438 59.308594 C 230.28125 58.816406 229.613281 58.539062 228.917969 58.539062 C 228.222656 58.539062 227.554688 58.816406 227.0625 59.308594 C 226.570312 59.800781 226.292969 60.46875 226.292969 61.164062 C 226.292969 61.859375 226.570312 62.527344 227.0625 63.019531 C 227.554688 63.511719 228.222656 63.789062 228.917969 63.789062 C 229.613281 63.789062 230.28125 63.511719 230.773438 63.019531 C 231.265625 62.527344 231.542969 61.859375 231.542969 61.164062 Z M 231.542969 61.164062 " transform="matrix(1,0,0,1,-49.5,-3.75)"/>
<path style="fill-rule:evenodd;fill:rgb(63.998413%,70.399475%,79.998779%);fill-opacity:1;stroke-width:0.75;stroke-linecap:square;stroke-linejoin:miter;stroke:rgb(0%,0%,0%);stroke-opacity:0.7;stroke-miterlimit:3.25;" d="M 60.148438 11.558594 C 60.148438 10.863281 59.871094 10.195312 59.378906 9.703125 C 58.886719 9.210938 58.21875 8.933594 57.523438 8.933594 C 56.828125 8.933594 56.160156 9.210938 55.667969 9.703125 C 55.175781 10.195312 54.898438 10.863281 54.898438 11.558594 C 54.898438 12.253906 55.175781 12.921875 55.667969 13.414062 C 56.160156 13.90625 56.828125 14.183594 57.523438 14.183594 C 58.21875 14.183594 58.886719 13.90625 59.378906 13.414062 C 59.871094 12.921875 60.148438 12.253906 60.148438 11.558594 Z M 60.148438 11.558594 " transform="matrix(1,0,0,1,-49.5,-3.75)"/>
<path style="fill-rule:evenodd;fill:rgb(63.998413%,70.399475%,79.998779%);fill-opacity:1;stroke-width:0.75;stroke-linecap:square;stroke-linejoin:miter;stroke:rgb(0%,0%,0%);stroke-opacity:0.7;stroke-miterlimit:3.25;" d="M 141.261719 59.933594 C 141.261719 59.238281 140.984375 58.570312 140.492188 58.078125 C 140 57.585938 139.332031 57.308594 138.636719 57.308594 C 137.941406 57.308594 137.273438 57.585938 136.78125 58.078125 C 136.289062 58.570312 136.011719 59.238281 136.011719 59.933594 C 136.011719 60.632812 136.289062 61.296875 136.78125 61.789062 C 137.273438 62.28125 137.941406 62.558594 138.636719 62.558594 C 139.332031 62.558594 140 62.28125 140.492188 61.789062 C 140.984375 61.296875 141.261719 60.632812 141.261719 59.933594 Z M 141.261719 59.933594 " transform="matrix(1,0,0,1,-49.5,-3.75)"/>
</g>
</svg>
