<?xml version="1.0" encoding="UTF-8"?>
<svg xmlns="http://www.w3.org/2000/svg" xmlns:xlink="http://www.w3.org/1999/xlink" width="270pt" height="270pt" viewBox="0 0 270 270" version="1.1">
<defs>
<clipPath id="clip1">
  <path d="M 0 268 L 270 268 L 270 269.28125 L 0 269.28125 Z M 0 268 "/>
</clipPath>
<clipPath id="clip2">
  <path d="M 0 0 L 1 0 L 1 269.28125 L 0 269.28125 Z M 0 0 "/>
</clipPath>
<clipPath id="clip3">
  <path d="M 269 0 L 270 0 L 270 269.28125 L 269 269.28125 Z M 269 0 "/>
</clipPath>
</defs>
<g id="surface131">
<path style="fill:none;stroke-width:1.5;stroke-linecap:butt;stroke-linejoin:miter;stroke:rgb(0%,0%,0%);stroke-opacity:0.7;stroke-miterlimit:3.25;" d="M 59.902344 16.828125 L 128.476562 83.855469 " transform="matrix(1,0,0,1,-49.5,-3.75)"/>
<path style="fill:none;stroke-width:1.5;stroke-linecap:square;stroke-linejoin:miter;stroke:rgb(0%,0%,0%);stroke-opacity:0.7;stroke-miterlimit:3.25;" d="M 128.476562 83.855469 Z M 128.476562 83.855469 " transform="matrix(1,0,0,1,-49.5,-3.75)"/>
<path style="fill:none;stroke-width:1.5;stroke-linecap:butt;stroke-linejoin:miter;stroke:rgb(50%,0%,50%);stroke-opacity:0.7;stroke-miterlimit:3.25;" d="M 133.121094 85.71875 L 234.414062 84.640625 " transform="matrix(1,0,0,1,-49.5,-3.75)"/>
<path style="fill:none;stroke-width:1.5;stroke-linecap:square;stroke-linejoin:miter;stroke:rgb(50%,0%,50%);stroke-opacity:0.7;stroke-miterlimit:3.25;" d="M 234.414062 84.640625 Z M 234.414062 84.640625 " transform="matrix(1,0,0,1,-49.5,-3.75)"/>
<path style="fill:none;stroke-width:1.5;stroke-linecap:butt;stroke-linejoin:miter;stroke:rgb(99.998474%,0%,0%);stroke-opacity:0.7;stroke-miterlimit:3.25;" d="M 130.449219 88.453125 L 131.804688 189.679688 " transform="matrix(1,0,0,1,-49.5,-3.75)"/>
<path style="fill:none;stroke-width:1.5;stroke-linecap:square;stroke-linejoin:miter;stroke:rgb(99.998474%,0%,0%);stroke-opacity:0.7;stroke-miterlimit:3.25;" d="M 131.804688 189.679688 Z M 131.804688 189.679688 " transform="matrix(1,0,0,1,-49.5,-3.75)"/>
<path style="fill:none;stroke-width:1.5;stroke-linecap:butt;stroke-linejoin:miter;stroke:rgb(59.999084%,39.99939%,19.999695%);stroke-opacity:0.7;stroke-dasharray:3,3;stroke-miterlimit:3.25;" d="M 305.898438 13.941406 L 239.007812 82.671875 " transform="matrix(1,0,0,1,-49.5,-3.75)"/>
<path style="fill:none;stroke-width:1.5;stroke-linecap:butt;stroke-linejoin:miter;stroke:rgb(59.999084%,39.99939%,19.999695%);stroke-opacity:0.7;stroke-dasharray:3,3;stroke-miterlimit:3.25;" d="M 239.007812 82.671875 Z M 239.007812 82.671875 " transform="matrix(1,0,0,1,-49.5,-3.75)"/>
<path style="fill:none;stroke-width:1.5;stroke-linecap:butt;stroke-linejoin:miter;stroke:rgb(0%,99.998474%,0%);stroke-opacity:0.7;stroke-miterlimit:3.25;" d="M 237.15625 87.320312 L 238.488281 188.574219 " transform="matrix(1,0,0,1,-49.5,-3.75)"/>
<path style="fill:none;stroke-width:1.5;stroke-linecap:square;stroke-linejoin:miter;stroke:rgb(0%,99.998474%,0%);stroke-opacity:0.7;stroke-miterlimit:3.25;" d="M 238.488281 188.574219 Z M 238.488281 188.574219 " transform="matrix(1,0,0,1,-49.5,-3.75)"/>
<path style="fill:none;stroke-width:1.5;stroke-linecap:butt;stroke-linejoin:miter;stroke:rgb(0%,0%,0%);stroke-opacity:0.7;stroke-miterlimit:3.25;" d="M 309.09375 260.179688 L 240.460938 193.175781 " transform="matrix(1,0,0,1,-49.5,-3.75)"/>
<path style="fill:none;stroke-width:1.5;stroke-linecap:square;stroke-linejoin:miter;stroke:rgb(0%,0%,0%);stroke-opacity:0.7;stroke-miterlimit:3.25;" d="M 240.460938 193.175781 Z M 240.460938 193.175781 " transform="matrix(1,0,0,1,-49.5,-3.75)"/>
<path style="fill:none;stroke-width:1.5;stroke-linecap:butt;stroke-linejoin:miter;stroke:rgb(0%,0%,99.998474%);stroke-opacity:0.7;stroke-miterlimit:3.25;" d="M 235.816406 191.3125 L 134.546875 192.359375 " transform="matrix(1,0,0,1,-49.5,-3.75)"/>
<path style="fill:none;stroke-width:1.5;stroke-linecap:square;stroke-linejoin:miter;stroke:rgb(0%,0%,99.998474%);stroke-opacity:0.7;stroke-miterlimit:3.25;" d="M 134.546875 192.359375 Z M 134.546875 192.359375 " transform="matrix(1,0,0,1,-49.5,-3.75)"/>
<path style="fill:none;stroke-width:1.5;stroke-linecap:butt;stroke-linejoin:miter;stroke:rgb(0%,0%,0%);stroke-opacity:0.7;stroke-miterlimit:3.25;" d="M 62.851562 262.996094 L 129.949219 194.324219 " transform="matrix(1,0,0,1,-49.5,-3.75)"/>
<path style="fill:none;stroke-width:1.5;stroke-linecap:square;stroke-linejoin:miter;stroke:rgb(0%,0%,0%);stroke-opacity:0.7;stroke-miterlimit:3.25;" d="M 129.949219 194.324219 Z M 129.949219 194.324219 " transform="matrix(1,0,0,1,-49.5,-3.75)"/>
<path style="fill-rule:evenodd;fill:rgb(63.998413%,70.399475%,79.998779%);fill-opacity:1;stroke-width:0.75;stroke-linecap:square;stroke-linejoin:miter;stroke:rgb(0%,0%,0%);stroke-opacity:0.7;stroke-miterlimit:3.25;" d="M 60.675781 14.9375 C 60.675781 14.21875 60.390625 13.53125 59.882812 13.023438 C 59.375 12.515625 58.6875 12.226562 57.96875 12.226562 C 57.25 12.226562 56.5625 12.515625 56.054688 13.023438 C 55.546875 13.53125 55.261719 14.21875 55.261719 14.9375 C 55.261719 15.65625 55.546875 16.34375 56.054688 16.851562 C 56.5625 17.359375 57.25 17.644531 57.96875 17.644531 C 58.6875 17.644531 59.375 17.359375 59.882812 16.851562 C 60.390625 16.34375 60.675781 15.65625 60.675781 14.9375 Z M 60.675781 14.9375 " transform="matrix(1,0,0,1,-49.5,-3.75)"/>
<path style="fill-rule:evenodd;fill:rgb(63.998413%,70.399475%,79.998779%);fill-opacity:1;stroke-width:0.75;stroke-linecap:square;stroke-linejoin:miter;stroke:rgb(0%,0%,0%);stroke-opacity:0.7;stroke-miterlimit:3.25;" d="M 133.121094 85.746094 C 133.121094 85.027344 132.835938 84.339844 132.328125 83.832031 C 131.820312 83.324219 131.132812 83.039062 130.414062 83.039062 C 129.695312 83.039062 129.007812 83.324219 128.5 83.832031 C 127.992188 84.339844 127.703125 85.027344 127.703125 85.746094 C 127.703125 86.464844 127.992188 87.152344 128.5 87.660156 C 129.007812 88.167969 129.695312 88.453125 130.414062 88.453125 C 131.132812 88.453125 131.820312 88.167969 132.328125 87.660156 C 132.835938 87.152344 133.121094 86.464844 133.121094 85.746094 Z M 133.121094 85.746094 " transform="matrix(1,0,0,1,-49.5,-3.75)"/>
<path style="fill-rule:evenodd;fill:rgb(63.998413%,70.399475%,79.998779%);fill-opacity:1;stroke-width:0.75;stroke-linecap:square;stroke-linejoin:miter;stroke:rgb(0%,0%,0%);stroke-opacity:0.7;stroke-miterlimit:3.25;" d="M 310.492188 12.003906 C 310.492188 11.285156 310.207031 10.59375 309.699219 10.085938 C 309.191406 9.578125 308.503906 9.292969 307.785156 9.292969 C 307.066406 9.292969 306.378906 9.578125 305.871094 10.085938 C 305.363281 10.59375 305.078125 11.285156 305.078125 12.003906 C 305.078125 12.71875 305.363281 13.410156 305.871094 13.917969 C 306.378906 14.425781 307.066406 14.710938 307.785156 14.710938 C 308.503906 14.710938 309.191406 14.425781 309.699219 13.917969 C 310.207031 13.410156 310.492188 12.71875 310.492188 12.003906 Z M 310.492188 12.003906 " transform="matrix(1,0,0,1,-49.5,-3.75)"/>
<path style="fill-rule:evenodd;fill:rgb(63.998413%,70.399475%,79.998779%);fill-opacity:1;stroke-width:0.75;stroke-linecap:square;stroke-linejoin:miter;stroke:rgb(0%,0%,0%);stroke-opacity:0.7;stroke-miterlimit:3.25;" d="M 239.828125 84.609375 C 239.828125 83.894531 239.542969 83.203125 239.035156 82.695312 C 238.527344 82.1875 237.839844 81.902344 237.121094 81.902344 C 236.402344 81.902344 235.714844 82.1875 235.207031 82.695312 C 234.699219 83.203125 234.414062 83.894531 234.414062 84.609375 C 234.414062 85.328125 234.699219 86.019531 235.207031 86.527344 C 235.714844 87.035156 236.402344 87.320312 237.121094 87.320312 C 237.839844 87.320312 238.527344 87.035156 239.035156 86.527344 C 239.542969 86.019531 239.828125 85.328125 239.828125 84.609375 Z M 239.828125 84.609375 " transform="matrix(1,0,0,1,-49.5,-3.75)"/>
<path style="fill-rule:evenodd;fill:rgb(63.998413%,70.399475%,79.998779%);fill-opacity:1;stroke-width:0.75;stroke-linecap:square;stroke-linejoin:miter;stroke:rgb(0%,0%,0%);stroke-opacity:0.7;stroke-miterlimit:3.25;" d="M 313.738281 262.074219 C 313.738281 261.355469 313.453125 260.667969 312.945312 260.160156 C 312.4375 259.652344 311.75 259.367188 311.03125 259.367188 C 310.3125 259.367188 309.625 259.652344 309.117188 260.160156 C 308.609375 260.667969 308.324219 261.355469 308.324219 262.074219 C 308.324219 262.792969 308.609375 263.480469 309.117188 263.988281 C 309.625 264.496094 310.3125 264.78125 311.03125 264.78125 C 311.75 264.78125 312.4375 264.496094 312.945312 263.988281 C 313.453125 263.480469 313.738281 262.792969 313.738281 262.074219 Z M 313.738281 262.074219 " transform="matrix(1,0,0,1,-49.5,-3.75)"/>
<path style="fill-rule:evenodd;fill:rgb(63.998413%,70.399475%,79.998779%);fill-opacity:1;stroke-width:0.75;stroke-linecap:square;stroke-linejoin:miter;stroke:rgb(0%,0%,0%);stroke-opacity:0.7;stroke-miterlimit:3.25;" d="M 241.230469 191.28125 C 241.230469 190.566406 240.945312 189.875 240.4375 189.367188 C 239.929688 188.859375 239.242188 188.574219 238.523438 188.574219 C 237.804688 188.574219 237.117188 188.859375 236.609375 189.367188 C 236.101562 189.875 235.816406 190.566406 235.816406 191.28125 C 235.816406 192 236.101562 192.691406 236.609375 193.199219 C 237.117188 193.707031 237.804688 193.992188 238.523438 193.992188 C 239.242188 193.992188 239.929688 193.707031 240.4375 193.199219 C 240.945312 192.691406 241.230469 192 241.230469 191.28125 Z M 241.230469 191.28125 " transform="matrix(1,0,0,1,-49.5,-3.75)"/>
<path style="fill-rule:evenodd;fill:rgb(63.998413%,70.399475%,79.998779%);fill-opacity:1;stroke-width:0.75;stroke-linecap:square;stroke-linejoin:miter;stroke:rgb(0%,0%,0%);stroke-opacity:0.7;stroke-miterlimit:3.25;" d="M 63.664062 264.933594 C 63.664062 264.214844 63.378906 263.527344 62.871094 263.019531 C 62.363281 262.511719 61.675781 262.226562 60.957031 262.226562 C 60.238281 262.226562 59.550781 262.511719 59.042969 263.019531 C 58.535156 263.527344 58.25 264.214844 58.25 264.933594 C 58.25 265.652344 58.535156 266.339844 59.042969 266.847656 C 59.550781 267.355469 60.238281 267.640625 60.957031 267.640625 C 61.675781 267.640625 62.363281 267.355469 62.871094 266.847656 C 63.378906 266.339844 63.664062 265.652344 63.664062 264.933594 Z M 63.664062 264.933594 " transform="matrix(1,0,0,1,-49.5,-3.75)"/>
<path style="fill-rule:evenodd;fill:rgb(63.998413%,70.399475%,79.998779%);fill-opacity:1;stroke-width:0.75;stroke-linecap:square;stroke-linejoin:miter;stroke:rgb(0%,0%,0%);stroke-opacity:0.7;stroke-miterlimit:3.25;" d="M 134.546875 192.386719 C 134.546875 191.667969 134.261719 190.980469 133.753906 190.472656 C 133.246094 189.964844 132.558594 189.679688 131.839844 189.679688 C 131.121094 189.679688 130.433594 189.964844 129.925781 190.472656 C 129.417969 190.980469 129.132812 191.667969 129.132812 192.386719 C 129.132812 193.105469 129.417969 193.792969 129.925781 194.300781 C 130.433594 194.808594 131.121094 195.09375 131.839844 195.09375 C 132.558594 195.09375 133.246094 194.808594 133.753906 194.300781 C 134.261719 193.792969 134.546875 193.105469 134.546875 192.386719 Z M 134.546875 192.386719 " transform="matrix(1,0,0,1,-49.5,-3.75)"/>
<g clip-path="url(#clip1)" clip-rule="nonzero">
<path style="fill:none;stroke-width:0.375;stroke-linecap:square;stroke-linejoin:miter;stroke:rgb(39.99939%,39.99939%,39.99939%);stroke-opacity:1;stroke-miterlimit:3.25;" d="M 319.125 272.8125 L 49.875 272.8125 " transform="matrix(1,0,0,1,-49.5,-3.75)"/>
</g>
<g clip-path="url(#clip2)" clip-rule="nonzero">
<path style="fill:none;stroke-width:0.375;stroke-linecap:square;stroke-linejoin:miter;stroke:rgb(39.99939%,39.99939%,39.99939%);stroke-opacity:1;stroke-miterlimit:3.25;" d="M 49.875 272.8125 L 49.875 4.125 " transform="matrix(1,0,0,1,-49.5,-3.75)"/>
</g>
<path style="fill:none;stroke-width:0.375;stroke-linecap:square;stroke-linejoin:miter;stroke:rgb(39.99939%,39.99939%,39.99939%);stroke-opacity:1;stroke-miterlimit:3.25;" d="M 49.875 4.125 L 319.125 4.125 " transform="matrix(1,0,0,1,-49.5,-3.75)"/>
<g clip-path="url(#clip3)" clip-rule="nonzero">
<path style="fill:none;stroke-width:0.375;stroke-linecap:square;stroke-linejoin:miter;stroke:rgb(39.99939%,39.99939%,39.99939%);stroke-opacity:1;stroke-miterlimit:3.25;" d="M 319.125 4.125 L 319.125 272.8125 " transform="matrix(1,0,0,1,-49.5,-3.75)"/>
</g>
</g>
</svg>
