<?xml version="1.0" encoding="UTF-8" standalone="no"?>
<!-- Created with Inkscape (http://www.inkscape.org/) -->

<svg
   version="1.1"
   id="svg2"
   xml:space="preserve"
   width="616"
   height="61.333332"
   viewBox="0 0 616 61.333332"
   sodipodi:docname="02zq1seb6t6v9.pdf"
   xmlns:inkscape="http://www.inkscape.org/namespaces/inkscape"
   xmlns:sodipodi="http://sodipodi.sourceforge.net/DTD/sodipodi-0.dtd"
   xmlns="http://www.w3.org/2000/svg"
   xmlns:svg="http://www.w3.org/2000/svg"><defs
     id="defs6" /><sodipodi:namedview
     id="namedview4"
     pagecolor="#505050"
     bordercolor="#eeeeee"
     borderopacity="1"
     inkscape:pageshadow="0"
     inkscape:pageopacity="0"
     inkscape:pagecheckerboard="0" /><g
     id="g8"
     inkscape:groupmode="layer"
     inkscape:label="02zq1seb6t6v9"
     transform="matrix(1.3333333,0,0,1.3333333,0,1.2e-6)"><g
       id="g10"><text
         transform="translate(1.509982,7.44)"
         style="font-variant:normal;font-size:7.92px;font-family:CairoFont-0;-inkscape-font-specification:CairoFont-0-0;writing-mode:lr-tb;fill:#dd1100;fill-opacity:1;fill-rule:nonzero;stroke:none"
         id="text14"><tspan
           x="0 6.0984001 10.93752 15.71328 20.552401 22.746241 27.593281 30.8484 33.04224 37.192322 42.03936 45.144001 47.337841 52.17696 57.166561 62.18784 67.201202 74.915283"
           y="0"
           sodipodi:role="line"
           id="tspan12">DoPolarizationSums</tspan></text><text
         transform="translate(81.347482,7.44)"
         style="font-variant:normal;font-size:7.92px;font-family:CairoFont-0;-inkscape-font-specification:CairoFont-0-0;writing-mode:lr-tb;fill:#000000;fill-opacity:1;fill-rule:nonzero;stroke:none"
         id="text18"><tspan
           x="0"
           y="0"
           id="tspan16">:</tspan></text><text
         transform="translate(87.523715,7.44)"
         style="font-variant:normal;font-size:7.92px;font-family:CairoFont-0;-inkscape-font-specification:CairoFont-0-0;writing-mode:lr-tb;fill:#898989;fill-opacity:1;fill-rule:nonzero;stroke:none"
         id="text26"><tspan
           x="0 4.8312001 9.8445597 17.226 22.065121 27.086399 30.19104 32.38488 37.223999 44.748001 50.672161 55.68552 63.399601 68.420883 73.291679 76.546799 82.779839 85.56768 90.343437 95.182564 97.352638 102.19968 105.4548 107.64864 111.79872 116.64576 119.7504 121.94424 126.78336 131.79672 138.41785 140.61168 147.24072 151.35912 156.22992 161.8452 164.94984 172.30753 177.72479 182.73816 185.8428 190.68192 198.396 203.24304 206.34769 208.54152 215.39232 220.4136 225.42696 231.04224 235.16064 237.35448 242.36784 246.71593 254.09737 257.202 262.21536 269.5968 271.79065 276.80399 281.82529 286.83865 292.45392 297.32471 302.00543 307.02673 310.28183 315.15265 319.27103 323.38943 325.58328 330.42239 337.93057 342.27863 347.11777 352.13113 355.23575 360.08279 362.27664 367.29001"
           y="0"
           sodipodi:role="line"
           id="tspan20">TheoptionNumberOfPolarizationsissettoAutomaticbutsincetheinputexpressioncontains</tspan><tspan
           x="-62.882465 -57.869102 -50.519344 -45.498062 -40.658943 -38.465103 -33.618065 -30.362944 -28.169104 -24.019024 -19.171984 -16.067343 -13.873504 -9.0343838 -1.5183036 3.1624165 8.0332165 12.381296 15.485936 20.325056 23.580177 27.698576 32.711937 35.816578 40.829937 48.211376 50.999218 56.012577 61.025936 65.374016 68.478653 70.672493 75.51162 83.027695 87.375778 92.222816 97.236176 102.24953 107.08865 112.70393 117.72522 122.59602 125.70065 130.57146 133.82658 141.54065 143.7345 148.74786 156.12138 159.22601 164.23938 171.62082 176.63417 181.64754 189.36162 194.38289 199.25369 205.01945 209.85858 215.30754 220.32881 225.16794 227.36177 232.20882 235.46394 237.65778 241.80786 246.65489 249.75954 251.95337 256.79251 261.80585 268.42697 271.53162 278.88138 282.99979 288.01312 298.23785 303.07697 307.75769 312.62851 318.39426 320.5881 328.11209 331.21674 336.2301"
           y="11.8"
           sodipodi:role="line"
           id="tspan22">nopolarizationvectors,thefunctioncannotdeterminethenumberofpolarizationstosumoverinthe</tspan><tspan
           x="-62.882465 -58.011665 -53.330944 -48.309662 -45.054543 -40.183743 -36.065342 -31.946943 -29.753103 -24.913984 -17.405823 -12.558784 -7.5454235 -4.4407835 0.39833641 8.1124163 12.959456 16.064096 18.257936 22.606016 27.453056 29.646896 31.840736 36.521458 41.526897 46.302658 48.496498 53.367298 58.214336 62.332737 69.71418 73.832573 78.703377 84.318657 90.242813 95.25618 102.97025 107.99154 112.86234 116.11745 122.35049 125.13834 129.91409 134.75322 136.94705 141.7941 145.02545 147.2193 151.36937 156.21642 159.32106 161.51489 166.35402 171.36737 177.98849 181.09314 188.45082 191.55545 196.56882 203.95026 208.7973 213.81857 218.83986 222.09497 226.9341 231.95538 235.21049 237.40434 242.25137 245.35602 252.72954 257.41025 262.25729 264.45114 269.46451 276.83801 281.7088 284.21945 289.24072 294.26202 301.81769 306.65683 312.42258"
           y="23.6"
           sodipodi:role="line"
           id="tspan24">expressionautomatically.PleasesetNumberOfPolarizationstotheappropriatevaluee.g.2orD</tspan></text><text
         transform="translate(406.04469,31.04)"
         style="font-variant:normal;font-size:7.92px;font-family:CairoFont-1;-inkscape-font-specification:CairoFont-1-0;writing-mode:lr-tb;fill:#898989;fill-opacity:1;fill-rule:nonzero;stroke:none"
         id="text30"><tspan
           x="0"
           y="0"
           id="tspan28">-</tspan></text><text
         transform="translate(410.66205,31.04)"
         style="font-variant:normal;font-size:7.92px;font-family:CairoFont-0;-inkscape-font-specification:CairoFont-0-0;writing-mode:lr-tb;fill:#898989;fill-opacity:1;fill-rule:nonzero;stroke:none"
         id="text36"><tspan
           x="0 7.54776 12.41856 15.5232 19.871281 24.892559 29.913839"
           y="0"
           sodipodi:role="line"
           id="tspan32">2etc.by</tspan><tspan
           x="-386.02081 -381.00745 -376.1604 -371.14703 -366.12576"
           y="11.789997"
           sodipodi:role="line"
           id="tspan34">hand.</tspan></text></g></g></svg>
