<?xml version="1.0" encoding="UTF-8" standalone="no"?>
<!-- Created with Inkscape (http://www.inkscape.org/) -->

<svg
   version="1.1"
   id="svg2"
   width="328"
   height="416"
   viewBox="0 0 328 416"
   sodipodi:docname="03f4j2xk2i2if.pdf"
   xmlns:inkscape="http://www.inkscape.org/namespaces/inkscape"
   xmlns:sodipodi="http://sodipodi.sourceforge.net/DTD/sodipodi-0.dtd"
   xmlns="http://www.w3.org/2000/svg"
   xmlns:svg="http://www.w3.org/2000/svg">
  <defs
     id="defs6" />
  <sodipodi:namedview
     id="namedview4"
     pagecolor="#ffffff"
     bordercolor="#999999"
     borderopacity="1"
     inkscape:showpageshadow="0"
     inkscape:pageopacity="0"
     inkscape:pagecheckerboard="0"
     inkscape:deskcolor="#d1d1d1" />
  <g
     id="g8"
     inkscape:groupmode="layer"
     inkscape:label="03f4j2xk2i2if"
     transform="matrix(1.3333333,0,0,1.3333333,0,1.04e-5)">
    <g
       id="g10">
      <path
         d="m 125.25,157.547 6.344,4.82 7.004,7.051 5.136,7.043 3.371,6.836 1.7,6.465 0.133,5.953 -1.321,5.32 -2.625,4.582 -3.742,3.766 -4.656,2.879 -5.332,1.945 -5.742,0.981 h -5.879 l -5.743,-0.981 -5.328,-1.945 -4.66,-2.879 -3.742,-3.766 -2.625,-4.582 -1.32,-5.32 0.132,-5.953 1.7,-6.465 3.375,-6.836 5.132,-7.043 7.004,-7.051 6.344,-4.82"
         style="fill:none;stroke:#000000;stroke-width:1.44;stroke-linecap:butt;stroke-linejoin:miter;stroke-miterlimit:3.25;stroke-dasharray:none;stroke-opacity:0.7"
         id="path12" />
      <path
         d="m 119.91,153.492 -6.344,-4.82 -7.004,-7.051 -5.132,-7.039 -3.375,-6.836 -1.7,-6.469 -0.132,-5.953 1.32,-5.32 2.625,-4.582 3.742,-3.762 4.66,-2.879 5.328,-1.945 5.743,-0.984 h 5.879 l 5.742,0.984 5.332,1.945 4.656,2.879 3.742,3.762 2.625,4.582 1.321,5.32 -0.133,5.953 -1.7,6.469 -3.371,6.836 -5.136,7.039 -7.004,7.051 -6.344,4.82"
         style="fill:none;stroke:#000000;stroke-width:1.44;stroke-linecap:butt;stroke-linejoin:miter;stroke-miterlimit:3.25;stroke-dasharray:none;stroke-opacity:0.7"
         id="path14" />
      <path
         d="m 125.934,155.52 c 0,-0.891 -0.356,-1.743 -0.981,-2.372 -0.629,-0.628 -1.484,-0.98 -2.371,-0.98 -0.891,0 -1.742,0.352 -2.371,0.98 -0.629,0.629 -0.984,1.481 -0.984,2.372 0,0.89 0.355,1.742 0.984,2.371 0.629,0.629 1.48,0.98 2.371,0.98 0.887,0 1.742,-0.351 2.371,-0.98 0.625,-0.629 0.981,-1.481 0.981,-2.371 z"
         style="fill:#a3b4cc;fill-opacity:1;fill-rule:evenodd;stroke:none"
         id="path16" />
      <path
         d="m 125.934,155.52 c 0,-0.891 -0.356,-1.743 -0.981,-2.372 -0.629,-0.628 -1.484,-0.98 -2.371,-0.98 -0.891,0 -1.742,0.352 -2.371,0.98 -0.629,0.629 -0.984,1.481 -0.984,2.372 0,0.89 0.355,1.742 0.984,2.371 0.629,0.629 1.48,0.98 2.371,0.98 0.887,0 1.742,-0.351 2.371,-0.98 0.625,-0.629 0.981,-1.481 0.981,-2.371 z"
         style="fill:none;stroke:#000000;stroke-width:0.36;stroke-linecap:square;stroke-linejoin:miter;stroke-miterlimit:3.25;stroke-dasharray:none;stroke-opacity:0.7"
         id="path18" />
    </g>
  </g>
</svg>
