<?xml version="1.0" encoding="UTF-8" standalone="no"?>
<!-- Created with Inkscape (http://www.inkscape.org/) -->

<svg
   version="1.1"
   id="svg2"
   xml:space="preserve"
   width="569.33331"
   height="33.333332"
   viewBox="0 0 569.33331 33.333332"
   sodipodi:docname="047duy8jklfe9.pdf"
   xmlns:inkscape="http://www.inkscape.org/namespaces/inkscape"
   xmlns:sodipodi="http://sodipodi.sourceforge.net/DTD/sodipodi-0.dtd"
   xmlns="http://www.w3.org/2000/svg"
   xmlns:svg="http://www.w3.org/2000/svg"><defs
     id="defs6" /><sodipodi:namedview
     id="namedview4"
     pagecolor="#ffffff"
     bordercolor="#999999"
     borderopacity="1"
     inkscape:pageshadow="0"
     inkscape:pageopacity="0"
     inkscape:pagecheckerboard="0" /><g
     id="g8"
     inkscape:groupmode="layer"
     inkscape:label="047duy8jklfe9"
     transform="scale(1.3333333)"><g
       id="g10"><text
         transform="translate(1.509982,9)"
         style="font-variant:normal;font-size:7.92px;font-family:CairoFont-0;-inkscape-font-specification:CairoFont-0-0;writing-mode:lr-tb;fill:#dd1100;fill-opacity:1;fill-rule:nonzero;stroke:none"
         id="text14"><tspan
           x="0 4.5539999 10.08216 14.4936 19.33272 24.171841 29.193119 34.214401 39.085201 41.279041 46.149841 50.474159 53.5788 58.41 63.249119 68.270401 73.10952 75.30336 80.142479 85.163757"
           y="0"
           sodipodi:role="line"
           id="tspan12">FCLoopSelectTopology</tspan></text><text
         transform="translate(92.162482,9)"
         style="font-variant:normal;font-size:7.92px;font-family:CairoFont-0;-inkscape-font-specification:CairoFont-0-0;writing-mode:lr-tb;fill:#000000;fill-opacity:1;fill-rule:nonzero;stroke:none"
         id="text18"><tspan
           x="0"
           y="0"
           id="tspan16">:</tspan></text><text
         transform="translate(98.338715,9)"
         style="font-variant:normal;font-size:7.92px;font-family:CairoFont-0;-inkscape-font-specification:CairoFont-0-0;writing-mode:lr-tb;fill:#898989;fill-opacity:1;fill-rule:nonzero;stroke:none"
         id="text22"><tspan
           x="0 4.99752 8.2526398 11.50776 16.34688"
           y="0"
           sodipodi:role="line"
           id="tspan20">Error</tspan></text><text
         transform="translate(117.94071,9)"
         style="font-variant:normal;font-size:7.92px;font-family:CairoFont-1;-inkscape-font-specification:CairoFont-1-0;writing-mode:lr-tb;fill:#898989;fill-opacity:1;fill-rule:nonzero;stroke:none"
         id="text26"><tspan
           x="0"
           y="0"
           id="tspan24">!</tspan></text><text
         transform="translate(122.64519,9)"
         style="font-variant:normal;font-size:7.92px;font-family:CairoFont-0;-inkscape-font-specification:CairoFont-0-0;writing-mode:lr-tb;fill:#898989;fill-opacity:1;fill-rule:nonzero;stroke:none"
         id="text32"><tspan
           x="0 4.5539999 10.08216 14.4936 19.33272 24.171841 29.193119 34.214401 39.085201 41.25528 46.12608 50.474159 53.5788 58.41 63.249119 68.270401 73.10952 75.30336 80.142479 85.163757 92.347198 97.360558 102.2076 108.83664 113.70744 118.7208 123.06888 127.908 132.92136 137.93472 141.03935 145.91016 149.16528 154.03609 161.56007 168.92567 171.71352 176.56056 179.66521 184.51224 189.2088 194.23009 197.4852 202.32433 207.3456 209.53944 214.41023 224.63496 229.48199 234.49536 242.02728 249.74136 254.75471 258.87311 264.4884 269.33545 274.35672 279.19583 282.45096 288.06625 291.17087 296.18423"
           y="0"
           sodipodi:role="line"
           id="tspan28">FCLoopSelectTopologyhasencounteredafatalproblemandmustabortthe</tspan><tspan
           x="-98.003944 -93.655861 -88.816742 -81.102661 -76.081383 -71.068024 -67.963379 -63.116341 -60.0117 -57.81786 -52.978741 -47.965382 -42.952023 -38.120823 -33.10746 -25.726021 -20.704741 -17.449621 -12.610501 -7.589221 -5.395381 -0.52458119 9.6922188 12.947339 17.818138 22.665178 27.686459 31.804859 36.97662 41.807819 46.821178 51.691978 54.947098 62.328537 67.175575 70.430702 77.812141 82.8255 90.175262 93.2799 98.119019 103.1403 107.97942 110.17326 115.01238 120.03366 122.2275 127.0983 133.71942 140.19006 142.3839 145.48854 153.01254 156.11717 161.13054 168.51198 170.70583 178.23773 181.34238 186.1815 191.20277 196.0419 201.4671 206.29829"
           y="12.500001"
           sodipodi:role="line"
           id="tspan30">computation.Theproblemreads:TherearenotopologieswiththeidtopoXYZ</tspan></text></g></g></svg>
