<?xml version="1.0" encoding="UTF-8" standalone="no"?>
<!-- Created with Inkscape (http://www.inkscape.org/) -->

<svg
   version="1.1"
   id="svg2"
   width="346.66666"
   height="64"
   viewBox="0 0 346.66666 64"
   sodipodi:docname="07ug1r8wo00tz.pdf"
   xmlns:inkscape="http://www.inkscape.org/namespaces/inkscape"
   xmlns:sodipodi="http://sodipodi.sourceforge.net/DTD/sodipodi-0.dtd"
   xmlns="http://www.w3.org/2000/svg"
   xmlns:svg="http://www.w3.org/2000/svg">
  <defs
     id="defs6" />
  <sodipodi:namedview
     id="namedview4"
     pagecolor="#ffffff"
     bordercolor="#999999"
     borderopacity="1"
     inkscape:showpageshadow="0"
     inkscape:pageopacity="0"
     inkscape:pagecheckerboard="0"
     inkscape:deskcolor="#d1d1d1" />
  <g
     id="g8"
     inkscape:groupmode="layer"
     inkscape:label="07ug1r8wo00tz"
     transform="matrix(1.3333333,0,0,1.3333333,0,1.6e-6)">
    <g
       id="g10">
      <path
         d="m 9.352,23.785 45.41,0.02"
         style="fill:none;stroke:#000000;stroke-width:1.44;stroke-linecap:butt;stroke-linejoin:miter;stroke-miterlimit:3.25;stroke-dasharray:none;stroke-opacity:0.7"
         id="path12" />
      <path
         d="M 58.801,23.086 100.395,7.781"
         style="fill:none;stroke:#000000;stroke-width:1.44;stroke-linecap:butt;stroke-linejoin:miter;stroke-miterlimit:3.25;stroke-dasharray:none;stroke-opacity:0.7"
         id="path14" />
      <path
         d="m 58.801,24.523 41.617,15.282"
         style="fill:none;stroke:#000000;stroke-width:1.44;stroke-linecap:butt;stroke-linejoin:miter;stroke-miterlimit:3.25;stroke-dasharray:none;stroke-opacity:0.7"
         id="path16" />
      <path
         d="m 249.848,23.781 -45.563,0.004"
         style="fill:none;stroke:#000000;stroke-width:1.44;stroke-linecap:butt;stroke-linejoin:miter;stroke-miterlimit:3.25;stroke-dasharray:none;stroke-opacity:0.7"
         id="path18" />
      <path
         d="M 200.242,23.07 158.547,7.785"
         style="fill:none;stroke:#000000;stroke-width:1.44;stroke-linecap:butt;stroke-linejoin:miter;stroke-miterlimit:3.25;stroke-dasharray:2.88, 2.88;stroke-dashoffset:0;stroke-opacity:0.7"
         id="path20" />
      <path
         d="M 200.242,24.504 158.594,39.809"
         style="fill:none;stroke:#000000;stroke-width:1.44;stroke-linecap:butt;stroke-linejoin:miter;stroke-miterlimit:3.25;stroke-dasharray:2.88, 2.88;stroke-dashoffset:0;stroke-opacity:0.7"
         id="path22" />
      <path
         d="m 156.594,9.152 0.039,29.293"
         style="fill:none;stroke:#000000;stroke-width:1.44;stroke-linecap:butt;stroke-linejoin:miter;stroke-miterlimit:3.25;stroke-dasharray:2.88, 2.88;stroke-dashoffset:0;stroke-opacity:0.7"
         id="path24" />
      <path
         d="M 154.504,7.066 104.434,7.062"
         style="fill:none;stroke:#000000;stroke-width:1.44;stroke-linecap:butt;stroke-linejoin:miter;stroke-miterlimit:3.25;stroke-dasharray:2.88, 2.88;stroke-dashoffset:0;stroke-opacity:0.7"
         id="path26" />
      <path
         d="M 154.551,40.527 104.457,40.523"
         style="fill:none;stroke:#000000;stroke-width:1.44;stroke-linecap:butt;stroke-linejoin:miter;stroke-miterlimit:3.25;stroke-dasharray:2.88, 2.88;stroke-dashoffset:0;stroke-opacity:0.7"
         id="path28" />
      <path
         d="m 102.352,9.145 0.019,29.293"
         style="fill:none;stroke:#000000;stroke-width:1.44;stroke-linecap:butt;stroke-linejoin:miter;stroke-miterlimit:3.25;stroke-dasharray:2.88, 2.88;stroke-dashoffset:0;stroke-opacity:0.7"
         id="path30" />
      <path
         d="m 9.352,23.785 c 0,-0.555 -0.219,-1.082 -0.61,-1.473 -0.39,-0.39 -0.922,-0.613 -1.472,-0.613 -0.555,0 -1.086,0.223 -1.477,0.613 -0.391,0.391 -0.609,0.918 -0.609,1.473 0,0.551 0.218,1.082 0.609,1.473 0.391,0.39 0.922,0.609 1.477,0.609 0.55,0 1.082,-0.219 1.472,-0.609 0.391,-0.391 0.61,-0.922 0.61,-1.473 z"
         style="fill:#a3b4cc;fill-opacity:1;fill-rule:evenodd;stroke:none"
         id="path32" />
      <path
         d="m 9.352,23.785 c 0,-0.555 -0.219,-1.082 -0.61,-1.473 -0.39,-0.39 -0.922,-0.613 -1.472,-0.613 -0.555,0 -1.086,0.223 -1.477,0.613 -0.391,0.391 -0.609,0.918 -0.609,1.473 0,0.551 0.218,1.082 0.609,1.473 0.391,0.39 0.922,0.609 1.477,0.609 0.55,0 1.082,-0.219 1.472,-0.609 0.391,-0.391 0.61,-0.922 0.61,-1.473 z"
         style="fill:none;stroke:#000000;stroke-width:0.36;stroke-linecap:square;stroke-linejoin:miter;stroke-miterlimit:3.25;stroke-dasharray:none;stroke-opacity:0.7"
         id="path34" />
      <path
         d="m 58.93,23.805 c 0,-0.555 -0.219,-1.082 -0.61,-1.473 -0.39,-0.391 -0.922,-0.613 -1.472,-0.613 -0.555,0 -1.086,0.222 -1.477,0.613 -0.391,0.391 -0.609,0.918 -0.609,1.473 0,0.55 0.218,1.082 0.609,1.472 0.391,0.391 0.922,0.61 1.477,0.61 0.55,0 1.082,-0.219 1.472,-0.61 0.391,-0.39 0.61,-0.922 0.61,-1.472 z"
         style="fill:#a3b4cc;fill-opacity:1;fill-rule:evenodd;stroke:none"
         id="path36" />
      <path
         d="m 58.93,23.805 c 0,-0.555 -0.219,-1.082 -0.61,-1.473 -0.39,-0.391 -0.922,-0.613 -1.472,-0.613 -0.555,0 -1.086,0.222 -1.477,0.613 -0.391,0.391 -0.609,0.918 -0.609,1.473 0,0.55 0.218,1.082 0.609,1.472 0.391,0.391 0.922,0.61 1.477,0.61 0.55,0 1.082,-0.219 1.472,-0.61 0.391,-0.39 0.61,-0.922 0.61,-1.472 z"
         style="fill:none;stroke:#000000;stroke-width:0.36;stroke-linecap:square;stroke-linejoin:miter;stroke-miterlimit:3.25;stroke-dasharray:none;stroke-opacity:0.7"
         id="path38" />
      <path
         d="m 254.016,23.781 c 0,-0.551 -0.219,-1.082 -0.61,-1.472 -0.39,-0.391 -0.922,-0.61 -1.472,-0.61 -0.555,0 -1.086,0.219 -1.477,0.61 -0.391,0.39 -0.609,0.921 -0.609,1.472 0,0.555 0.218,1.086 0.609,1.477 0.391,0.39 0.922,0.609 1.477,0.609 0.55,0 1.082,-0.219 1.472,-0.609 0.391,-0.391 0.61,-0.922 0.61,-1.477 z"
         style="fill:#a3b4cc;fill-opacity:1;fill-rule:evenodd;stroke:none"
         id="path40" />
      <path
         d="m 254.016,23.781 c 0,-0.551 -0.219,-1.082 -0.61,-1.472 -0.39,-0.391 -0.922,-0.61 -1.472,-0.61 -0.555,0 -1.086,0.219 -1.477,0.61 -0.391,0.39 -0.609,0.921 -0.609,1.472 0,0.555 0.218,1.086 0.609,1.477 0.391,0.39 0.922,0.609 1.477,0.609 0.55,0 1.082,-0.219 1.472,-0.609 0.391,-0.391 0.61,-0.922 0.61,-1.477 z"
         style="fill:none;stroke:#000000;stroke-width:0.36;stroke-linecap:square;stroke-linejoin:miter;stroke-miterlimit:3.25;stroke-dasharray:none;stroke-opacity:0.7"
         id="path42" />
      <path
         d="m 204.285,23.785 c 0,-0.551 -0.223,-1.082 -0.613,-1.473 -0.391,-0.39 -0.918,-0.609 -1.473,-0.609 -0.551,0 -1.082,0.219 -1.472,0.609 -0.391,0.391 -0.61,0.922 -0.61,1.473 0,0.555 0.219,1.082 0.61,1.473 0.39,0.394 0.921,0.613 1.472,0.613 0.555,0 1.082,-0.219 1.473,-0.613 0.39,-0.391 0.613,-0.918 0.613,-1.473 z"
         style="fill:#a3b4cc;fill-opacity:1;fill-rule:evenodd;stroke:none"
         id="path44" />
      <path
         d="m 204.285,23.785 c 0,-0.551 -0.223,-1.082 -0.613,-1.473 -0.391,-0.39 -0.918,-0.609 -1.473,-0.609 -0.551,0 -1.082,0.219 -1.472,0.609 -0.391,0.391 -0.61,0.922 -0.61,1.473 0,0.555 0.219,1.082 0.61,1.473 0.39,0.394 0.921,0.613 1.472,0.613 0.555,0 1.082,-0.219 1.473,-0.613 0.39,-0.391 0.613,-0.918 0.613,-1.473 z"
         style="fill:none;stroke:#000000;stroke-width:0.36;stroke-linecap:square;stroke-linejoin:miter;stroke-miterlimit:3.25;stroke-dasharray:none;stroke-opacity:0.7"
         id="path46" />
      <path
         d="m 158.676,7.066 c 0,-0.55 -0.223,-1.082 -0.614,-1.472 -0.39,-0.391 -0.917,-0.61 -1.472,-0.61 -0.551,0 -1.082,0.219 -1.473,0.61 -0.39,0.39 -0.613,0.922 -0.613,1.472 0,0.555 0.223,1.086 0.613,1.477 0.391,0.391 0.922,0.609 1.473,0.609 0.555,0 1.082,-0.218 1.472,-0.609 0.391,-0.391 0.614,-0.922 0.614,-1.477 z"
         style="fill:#a3b4cc;fill-opacity:1;fill-rule:evenodd;stroke:none"
         id="path48" />
      <path
         d="m 158.676,7.066 c 0,-0.55 -0.223,-1.082 -0.614,-1.472 -0.39,-0.391 -0.917,-0.61 -1.472,-0.61 -0.551,0 -1.082,0.219 -1.473,0.61 -0.39,0.39 -0.613,0.922 -0.613,1.472 0,0.555 0.223,1.086 0.613,1.477 0.391,0.391 0.922,0.609 1.473,0.609 0.555,0 1.082,-0.218 1.472,-0.609 0.391,-0.391 0.614,-0.922 0.614,-1.477 z"
         style="fill:none;stroke:#000000;stroke-width:0.36;stroke-linecap:square;stroke-linejoin:miter;stroke-miterlimit:3.25;stroke-dasharray:none;stroke-opacity:0.7"
         id="path50" />
      <path
         d="m 158.719,40.527 c 0,-0.55 -0.219,-1.082 -0.61,-1.472 -0.39,-0.391 -0.921,-0.61 -1.472,-0.61 -0.555,0 -1.082,0.219 -1.473,0.61 -0.394,0.39 -0.613,0.922 -0.613,1.472 0,0.555 0.219,1.086 0.613,1.477 0.391,0.391 0.918,0.609 1.473,0.609 0.551,0 1.082,-0.218 1.472,-0.609 0.391,-0.391 0.61,-0.922 0.61,-1.477 z"
         style="fill:#a3b4cc;fill-opacity:1;fill-rule:evenodd;stroke:none"
         id="path52" />
      <path
         d="m 158.719,40.527 c 0,-0.55 -0.219,-1.082 -0.61,-1.472 -0.39,-0.391 -0.921,-0.61 -1.472,-0.61 -0.555,0 -1.082,0.219 -1.473,0.61 -0.394,0.39 -0.613,0.922 -0.613,1.472 0,0.555 0.219,1.086 0.613,1.477 0.391,0.391 0.918,0.609 1.473,0.609 0.551,0 1.082,-0.218 1.472,-0.609 0.391,-0.391 0.61,-0.922 0.61,-1.477 z"
         style="fill:none;stroke:#000000;stroke-width:0.36;stroke-linecap:square;stroke-linejoin:miter;stroke-miterlimit:3.25;stroke-dasharray:none;stroke-opacity:0.7"
         id="path54" />
      <path
         d="m 104.434,7.062 c 0,-0.554 -0.219,-1.085 -0.61,-1.476 -0.394,-0.391 -0.922,-0.609 -1.476,-0.609 -0.551,0 -1.082,0.218 -1.473,0.609 -0.391,0.391 -0.609,0.922 -0.609,1.476 0,0.551 0.218,1.083 0.609,1.473 0.391,0.391 0.922,0.61 1.473,0.61 0.554,0 1.082,-0.219 1.476,-0.61 0.391,-0.39 0.61,-0.922 0.61,-1.473 z"
         style="fill:#a3b4cc;fill-opacity:1;fill-rule:evenodd;stroke:none"
         id="path56" />
      <path
         d="m 104.434,7.062 c 0,-0.554 -0.219,-1.085 -0.61,-1.476 -0.394,-0.391 -0.922,-0.609 -1.476,-0.609 -0.551,0 -1.082,0.218 -1.473,0.609 -0.391,0.391 -0.609,0.922 -0.609,1.476 0,0.551 0.218,1.083 0.609,1.473 0.391,0.391 0.922,0.61 1.473,0.61 0.554,0 1.082,-0.219 1.476,-0.61 0.391,-0.39 0.61,-0.922 0.61,-1.473 z"
         style="fill:none;stroke:#000000;stroke-width:0.36;stroke-linecap:square;stroke-linejoin:miter;stroke-miterlimit:3.25;stroke-dasharray:none;stroke-opacity:0.7"
         id="path58" />
      <path
         d="m 104.457,40.523 c 0,-0.554 -0.219,-1.082 -0.609,-1.472 -0.391,-0.391 -0.922,-0.613 -1.477,-0.613 -0.551,0 -1.082,0.222 -1.473,0.613 -0.39,0.39 -0.609,0.918 -0.609,1.472 0,0.551 0.219,1.082 0.609,1.473 0.391,0.391 0.922,0.609 1.473,0.609 0.555,0 1.086,-0.218 1.477,-0.609 0.39,-0.391 0.609,-0.922 0.609,-1.473 z"
         style="fill:#a3b4cc;fill-opacity:1;fill-rule:evenodd;stroke:none"
         id="path60" />
      <path
         d="m 104.457,40.523 c 0,-0.554 -0.219,-1.082 -0.609,-1.472 -0.391,-0.391 -0.922,-0.613 -1.477,-0.613 -0.551,0 -1.082,0.222 -1.473,0.613 -0.39,0.39 -0.609,0.918 -0.609,1.472 0,0.551 0.219,1.082 0.609,1.473 0.391,0.391 0.922,0.609 1.473,0.609 0.555,0 1.086,-0.218 1.477,-0.609 0.39,-0.391 0.609,-0.922 0.609,-1.473 z"
         style="fill:none;stroke:#000000;stroke-width:0.36;stroke-linecap:square;stroke-linejoin:miter;stroke-miterlimit:3.25;stroke-dasharray:none;stroke-opacity:0.7"
         id="path62" />
    </g>
  </g>
</svg>
