<?xml version="1.0" encoding="UTF-8" standalone="no"?>
<!-- Created with Inkscape (http://www.inkscape.org/) -->

<svg
   version="1.1"
   id="svg2"
   xml:space="preserve"
   width="346.66666"
   height="216"
   viewBox="0 0 346.66666 216"
   sodipodi:docname="0833y1scsk90z.pdf"
   xmlns:inkscape="http://www.inkscape.org/namespaces/inkscape"
   xmlns:sodipodi="http://sodipodi.sourceforge.net/DTD/sodipodi-0.dtd"
   xmlns="http://www.w3.org/2000/svg"
   xmlns:svg="http://www.w3.org/2000/svg"><defs
     id="defs6" /><sodipodi:namedview
     id="namedview4"
     pagecolor="#505050"
     bordercolor="#eeeeee"
     borderopacity="1"
     inkscape:pageshadow="0"
     inkscape:pageopacity="0"
     inkscape:pagecheckerboard="0" /><g
     id="g8"
     inkscape:groupmode="layer"
     inkscape:label="0833y1scsk90z"
     transform="matrix(1.3333333,0,0,1.3333333,0,5.4e-6)"><g
       id="g10"><path
         d="M 9.297,152.562 49.383,119.418"
         style="fill:none;stroke:#264a80;stroke-width:0.36;stroke-linecap:butt;stroke-linejoin:miter;stroke-miterlimit:3.25;stroke-dasharray:none;stroke-opacity:0.7"
         id="path12" /><path
         d="m 47.32,118.172 0.262,0.117 0.609,0.305 0.352,0.191 0.336,0.211 0.293,0.211 0.211,0.211 0.148,0.223 0.149,0.324 0.152,0.379 0.137,0.402 0.219,0.699 0.085,0.301 5.153,-7.328 z"
         style="fill:#264a80;fill-opacity:0.7;fill-rule:nonzero;stroke:none"
         id="path14" /><path
         d="m 47.32,118.172 0.262,0.117 0.609,0.305 0.352,0.191 0.336,0.211 0.293,0.211 0.211,0.211 0.148,0.223 0.149,0.324 0.152,0.379 0.137,0.402 0.219,0.699 0.085,0.301 5.153,-7.328 z"
         style="fill:none;stroke:#264a80;stroke-width:0.36;stroke-linecap:square;stroke-linejoin:miter;stroke-miterlimit:3.25;stroke-dasharray:none;stroke-opacity:0.7"
         id="path16" /><path
         d="m 59.535,112.793 59.949,-3.738"
         style="fill:none;stroke:#264a80;stroke-width:0.36;stroke-linecap:butt;stroke-linejoin:miter;stroke-miterlimit:3.25;stroke-dasharray:none;stroke-opacity:0.7"
         id="path18" /><path
         d="m 118.547,106.832 0.144,0.25 0.313,0.606 0.172,0.363 0.148,0.367 0.114,0.344 0.046,0.293 -0.011,0.265 -0.067,0.352 -0.105,0.394 -0.121,0.407 -0.235,0.695 -0.109,0.293 8.476,-2.895 z"
         style="fill:#264a80;fill-opacity:0.7;fill-rule:nonzero;stroke:none"
         id="path20" /><path
         d="m 118.547,106.832 0.144,0.25 0.313,0.606 0.172,0.363 0.148,0.367 0.114,0.344 0.046,0.293 -0.011,0.265 -0.067,0.352 -0.105,0.394 -0.121,0.407 -0.235,0.695 -0.109,0.293 8.476,-2.895 z"
         style="fill:none;stroke:#264a80;stroke-width:0.36;stroke-linecap:square;stroke-linejoin:miter;stroke-miterlimit:3.25;stroke-dasharray:none;stroke-opacity:0.7"
         id="path22" /><path
         d="m 9.422,8.785 39.957,33.27"
         style="fill:none;stroke:#264a80;stroke-width:0.36;stroke-linecap:butt;stroke-linejoin:miter;stroke-miterlimit:3.25;stroke-dasharray:none;stroke-opacity:0.7"
         id="path24" /><path
         d="m 50.223,39.797 -0.071,0.281 -0.183,0.656 -0.125,0.379 -0.141,0.371 -0.156,0.325 -0.168,0.246 -0.191,0.187 -0.293,0.207 -0.344,0.219 -0.367,0.211 -0.649,0.344 -0.281,0.14 8.152,3.711 z"
         style="fill:#264a80;fill-opacity:0.7;fill-rule:nonzero;stroke:none"
         id="path26" /><path
         d="m 50.223,39.797 -0.071,0.281 -0.183,0.656 -0.125,0.379 -0.141,0.371 -0.156,0.325 -0.168,0.246 -0.191,0.187 -0.293,0.207 -0.344,0.219 -0.367,0.211 -0.649,0.344 -0.281,0.14 8.152,3.711 z"
         style="fill:none;stroke:#264a80;stroke-width:0.36;stroke-linecap:square;stroke-linejoin:miter;stroke-miterlimit:3.25;stroke-dasharray:none;stroke-opacity:0.7"
         id="path28" /><path
         d="m 57.191,50.883 0.02,51.89"
         style="fill:none;stroke:#264a80;stroke-width:0.36;stroke-linecap:butt;stroke-linejoin:miter;stroke-miterlimit:3.25;stroke-dasharray:none;stroke-opacity:0.7"
         id="path30" /><path
         d="m 59.484,101.977 -0.257,0.125 -0.622,0.277 -0.371,0.148 -0.375,0.129 -0.351,0.09 -0.297,0.027 -0.266,-0.027 -0.347,-0.09 -0.387,-0.129 -0.399,-0.144 -0.675,-0.278 -0.289,-0.128 2.367,8.64 z"
         style="fill:#264a80;fill-opacity:0.7;fill-rule:nonzero;stroke:none"
         id="path32" /><path
         d="m 59.484,101.977 -0.257,0.125 -0.622,0.277 -0.371,0.148 -0.375,0.129 -0.351,0.09 -0.297,0.027 -0.266,-0.027 -0.347,-0.09 -0.387,-0.129 -0.399,-0.144 -0.675,-0.278 -0.289,-0.128 2.367,8.64 z"
         style="fill:none;stroke:#264a80;stroke-width:0.36;stroke-linecap:square;stroke-linejoin:miter;stroke-miterlimit:3.25;stroke-dasharray:none;stroke-opacity:0.7"
         id="path34" /><path
         d="M 59.508,48.707 119.43,52.48"
         style="fill:none;stroke:#264a80;stroke-width:0.36;stroke-linecap:butt;stroke-linejoin:miter;stroke-miterlimit:3.25;stroke-dasharray:none;stroke-opacity:0.7"
         id="path36" /><path
         d="m 118.777,50.16 0.11,0.266 0.238,0.636 0.121,0.383 0.106,0.383 0.066,0.356 0.012,0.296 -0.047,0.266 -0.113,0.34 -0.149,0.379 -0.172,0.387 -0.32,0.66 -0.145,0.277 8.77,-1.816 z"
         style="fill:#264a80;fill-opacity:0.7;fill-rule:nonzero;stroke:none"
         id="path38" /><path
         d="m 118.777,50.16 0.11,0.266 0.238,0.636 0.121,0.383 0.106,0.383 0.066,0.356 0.012,0.296 -0.047,0.266 -0.113,0.34 -0.149,0.379 -0.172,0.387 -0.32,0.66 -0.145,0.277 8.77,-1.816 z"
         style="fill:none;stroke:#264a80;stroke-width:0.36;stroke-linecap:square;stroke-linejoin:miter;stroke-miterlimit:3.25;stroke-dasharray:none;stroke-opacity:0.7"
         id="path40" /><path
         d="M 249.906,8.805 209.82,42.074"
         style="fill:none;stroke:#cc0000;stroke-width:0.36;stroke-linecap:butt;stroke-linejoin:miter;stroke-miterlimit:3.25;stroke-dasharray:none;stroke-opacity:1"
         id="path42" /><path
         d="m 211.887,43.312 -0.262,-0.117 -0.609,-0.3 -0.352,-0.192 -0.34,-0.211 -0.293,-0.211 -0.211,-0.207 -0.148,-0.226 -0.152,-0.321 -0.149,-0.382 -0.141,-0.399 -0.218,-0.699 -0.086,-0.301 -5.141,7.336 z"
         style="fill:#cc0000;fill-opacity:1;fill-rule:nonzero;stroke:#cc0000;stroke-width:0.36;stroke-linecap:square;stroke-linejoin:miter;stroke-miterlimit:3.25;stroke-dasharray:none;stroke-opacity:1"
         id="path44" /><path
         d="m 202,50.887 0.055,51.871"
         style="fill:none;stroke:#e6c100;stroke-width:0.36;stroke-linecap:butt;stroke-linejoin:miter;stroke-miterlimit:3.25;stroke-dasharray:none;stroke-opacity:1"
         id="path46" /><path
         d="m 204.328,101.961 -0.258,0.125 -0.621,0.277 -0.371,0.149 -0.375,0.129 -0.351,0.089 -0.297,0.028 -0.266,-0.028 -0.344,-0.089 -0.39,-0.125 -0.399,-0.149 -0.676,-0.277 -0.289,-0.125 2.375,8.637 z"
         style="fill:#e6c100;fill-opacity:1;fill-rule:nonzero;stroke:#e6c100;stroke-width:0.36;stroke-linecap:square;stroke-linejoin:miter;stroke-miterlimit:3.25;stroke-dasharray:none;stroke-opacity:1"
         id="path48" /><path
         d="M 199.684,48.711 139.719,52.48"
         style="fill:none;stroke:#264a80;stroke-width:0.36;stroke-linecap:butt;stroke-linejoin:miter;stroke-miterlimit:3.25;stroke-dasharray:none;stroke-opacity:0.7"
         id="path50" /><path
         d="m 140.656,54.699 -0.144,-0.25 -0.313,-0.601 -0.172,-0.364 -0.152,-0.367 -0.109,-0.344 -0.047,-0.293 0.011,-0.269 0.067,-0.348 0.101,-0.398 0.125,-0.406 0.235,-0.692 0.105,-0.297 -8.472,2.903 z"
         style="fill:#264a80;fill-opacity:0.7;fill-rule:nonzero;stroke:none"
         id="path52" /><path
         d="m 140.656,54.699 -0.144,-0.25 -0.313,-0.601 -0.172,-0.364 -0.152,-0.367 -0.109,-0.344 -0.047,-0.293 0.011,-0.269 0.067,-0.348 0.101,-0.398 0.125,-0.406 0.235,-0.692 0.105,-0.297 -8.472,2.903 z"
         style="fill:none;stroke:#264a80;stroke-width:0.36;stroke-linecap:square;stroke-linejoin:miter;stroke-miterlimit:3.25;stroke-dasharray:none;stroke-opacity:0.7"
         id="path54" /><path
         d="m 249.898,152.594 -40.007,-33.18"
         style="fill:none;stroke:#b452cc;stroke-width:0.36;stroke-linecap:butt;stroke-linejoin:miter;stroke-miterlimit:3.25;stroke-dasharray:none;stroke-opacity:1"
         id="path56" /><path
         d="m 209.055,121.672 0.066,-0.281 0.184,-0.653 0.125,-0.383 0.14,-0.371 0.157,-0.324 0.164,-0.246 0.195,-0.187 0.289,-0.211 0.344,-0.215 0.367,-0.215 0.648,-0.344 0.282,-0.14 -8.161,-3.696 z"
         style="fill:#b452cc;fill-opacity:1;fill-rule:nonzero;stroke:#b452cc;stroke-width:0.36;stroke-linecap:square;stroke-linejoin:miter;stroke-miterlimit:3.25;stroke-dasharray:none;stroke-opacity:1"
         id="path58" /><path
         d="m 199.75,112.781 -59.977,-3.73"
         style="fill:none;stroke:#264a80;stroke-width:0.36;stroke-linecap:butt;stroke-linejoin:miter;stroke-miterlimit:3.25;stroke-dasharray:none;stroke-opacity:0.7"
         id="path60" /><path
         d="m 140.43,111.371 -0.11,-0.266 -0.238,-0.636 -0.125,-0.383 -0.105,-0.383 -0.067,-0.355 -0.012,-0.297 0.047,-0.266 0.11,-0.34 0.152,-0.379 0.172,-0.386 0.32,-0.66 0.145,-0.278 -8.774,1.82 z"
         style="fill:#264a80;fill-opacity:0.7;fill-rule:nonzero;stroke:none"
         id="path62" /><path
         d="m 140.43,111.371 -0.11,-0.266 -0.238,-0.636 -0.125,-0.383 -0.105,-0.383 -0.067,-0.355 -0.012,-0.297 0.047,-0.266 0.11,-0.34 0.152,-0.379 0.172,-0.386 0.32,-0.66 0.145,-0.278 -8.774,1.82 z"
         style="fill:none;stroke:#264a80;stroke-width:0.36;stroke-linecap:square;stroke-linejoin:miter;stroke-miterlimit:3.25;stroke-dasharray:none;stroke-opacity:0.7"
         id="path64" /><path
         d="M 129.629,106.098 129.582,63.285"
         style="fill:none;stroke:#264a80;stroke-width:0.36;stroke-linecap:butt;stroke-linejoin:miter;stroke-miterlimit:3.25;stroke-dasharray:none;stroke-opacity:0.7"
         id="path66" /><path
         d="m 127.309,64.082 0.261,-0.125 0.618,-0.277 0.374,-0.149 0.376,-0.129 0.351,-0.09 0.293,-0.027 0.27,0.027 0.343,0.09 0.391,0.125 0.394,0.149 0.68,0.277 0.289,0.125 -2.375,-8.637 z"
         style="fill:#264a80;fill-opacity:0.7;fill-rule:nonzero;stroke:none"
         id="path68" /><path
         d="m 127.309,64.082 0.261,-0.125 0.618,-0.277 0.374,-0.149 0.376,-0.129 0.351,-0.09 0.293,-0.027 0.27,0.027 0.343,0.09 0.391,0.125 0.394,0.149 0.68,0.277 0.289,0.125 -2.375,-8.637 z"
         style="fill:none;stroke:#264a80;stroke-width:0.36;stroke-linecap:square;stroke-linejoin:miter;stroke-miterlimit:3.25;stroke-dasharray:none;stroke-opacity:0.7"
         id="path70" /><path
         d="m 9.828,154.043 c 0,-0.617 -0.246,-1.207 -0.68,-1.641 -0.437,-0.437 -1.027,-0.679 -1.64,-0.679 -0.617,0 -1.207,0.242 -1.645,0.679 -0.433,0.434 -0.679,1.024 -0.679,1.641 0,0.617 0.246,1.207 0.679,1.641 0.438,0.437 1.028,0.679 1.645,0.679 0.613,0 1.203,-0.242 1.64,-0.679 0.434,-0.434 0.68,-1.024 0.68,-1.641 z"
         style="fill:#a3b4cc;fill-opacity:1;fill-rule:evenodd;stroke:none"
         id="path72" /><path
         d="m 9.828,154.043 c 0,-0.617 -0.246,-1.207 -0.68,-1.641 -0.437,-0.437 -1.027,-0.679 -1.64,-0.679 -0.617,0 -1.207,0.242 -1.645,0.679 -0.433,0.434 -0.679,1.024 -0.679,1.641 0,0.617 0.246,1.207 0.679,1.641 0.438,0.437 1.028,0.679 1.645,0.679 0.613,0 1.203,-0.242 1.64,-0.679 0.434,-0.434 0.68,-1.024 0.68,-1.641 z"
         style="fill:none;stroke:#000000;stroke-width:0.36;stroke-linecap:square;stroke-linejoin:miter;stroke-miterlimit:3.25;stroke-dasharray:none;stroke-opacity:0.7"
         id="path74" /><path
         d="m 59.539,112.938 c 0,-0.614 -0.246,-1.204 -0.68,-1.641 -0.437,-0.434 -1.027,-0.68 -1.644,-0.68 -0.613,0 -1.203,0.246 -1.641,0.68 -0.433,0.437 -0.679,1.027 -0.679,1.641 0,0.617 0.246,1.207 0.679,1.644 0.438,0.434 1.028,0.68 1.641,0.68 0.617,0 1.207,-0.246 1.644,-0.68 0.434,-0.437 0.68,-1.027 0.68,-1.644 z"
         style="fill:#b452cc;fill-opacity:1;fill-rule:evenodd;stroke:#b452cc;stroke-width:0.36;stroke-linecap:square;stroke-linejoin:miter;stroke-miterlimit:3.25;stroke-dasharray:none;stroke-opacity:1"
         id="path76" /><path
         d="M 9.961,7.297 C 9.961,6.684 9.719,6.094 9.281,5.656 8.848,5.223 8.254,4.977 7.641,4.977 c -0.618,0 -1.207,0.246 -1.645,0.679 -0.434,0.438 -0.68,1.028 -0.68,1.641 0,0.617 0.246,1.207 0.68,1.644 0.438,0.434 1.027,0.68 1.645,0.68 0.613,0 1.207,-0.246 1.64,-0.68 0.438,-0.437 0.68,-1.027 0.68,-1.644 z"
         style="fill:#a3b4cc;fill-opacity:1;fill-rule:evenodd;stroke:none"
         id="path78" /><path
         d="M 9.961,7.297 C 9.961,6.684 9.719,6.094 9.281,5.656 8.848,5.223 8.254,4.977 7.641,4.977 c -0.618,0 -1.207,0.246 -1.645,0.679 -0.434,0.438 -0.68,1.028 -0.68,1.641 0,0.617 0.246,1.207 0.68,1.644 0.438,0.434 1.027,0.68 1.645,0.68 0.613,0 1.207,-0.246 1.64,-0.68 0.438,-0.437 0.68,-1.027 0.68,-1.644 z"
         style="fill:none;stroke:#000000;stroke-width:0.36;stroke-linecap:square;stroke-linejoin:miter;stroke-miterlimit:3.25;stroke-dasharray:none;stroke-opacity:0.7"
         id="path80" /><path
         d="m 59.512,48.562 c 0,-0.617 -0.242,-1.207 -0.68,-1.644 -0.434,-0.434 -1.027,-0.68 -1.641,-0.68 -0.617,0 -1.207,0.246 -1.64,0.68 -0.438,0.437 -0.684,1.027 -0.684,1.644 0,0.614 0.246,1.204 0.684,1.641 0.433,0.434 1.023,0.68 1.64,0.68 0.614,0 1.207,-0.246 1.641,-0.68 0.438,-0.437 0.68,-1.027 0.68,-1.641 z"
         style="fill:#a3b4cc;fill-opacity:1;fill-rule:evenodd;stroke:none"
         id="path82" /><path
         d="m 59.512,48.562 c 0,-0.617 -0.242,-1.207 -0.68,-1.644 -0.434,-0.434 -1.027,-0.68 -1.641,-0.68 -0.617,0 -1.207,0.246 -1.64,0.68 -0.438,0.437 -0.684,1.027 -0.684,1.644 0,0.614 0.246,1.204 0.684,1.641 0.433,0.434 1.023,0.68 1.64,0.68 0.614,0 1.207,-0.246 1.641,-0.68 0.438,-0.437 0.68,-1.027 0.68,-1.641 z"
         style="fill:none;stroke:#000000;stroke-width:0.36;stroke-linecap:square;stroke-linejoin:miter;stroke-miterlimit:3.25;stroke-dasharray:none;stroke-opacity:0.7"
         id="path84" /><path
         d="m 254.016,7.32 c 0,-0.617 -0.246,-1.207 -0.68,-1.64 C 252.902,5.242 252.309,5 251.695,5 c -0.617,0 -1.207,0.242 -1.644,0.68 -0.434,0.433 -0.68,1.023 -0.68,1.64 0,0.618 0.246,1.207 0.68,1.641 0.437,0.437 1.027,0.68 1.644,0.68 0.614,0 1.207,-0.243 1.641,-0.68 0.434,-0.434 0.68,-1.023 0.68,-1.641 z"
         style="fill:#a3b4cc;fill-opacity:1;fill-rule:evenodd;stroke:none"
         id="path86" /><path
         d="m 254.016,7.32 c 0,-0.617 -0.246,-1.207 -0.68,-1.64 C 252.902,5.242 252.309,5 251.695,5 c -0.617,0 -1.207,0.242 -1.644,0.68 -0.434,0.433 -0.68,1.023 -0.68,1.64 0,0.618 0.246,1.207 0.68,1.641 0.437,0.437 1.027,0.68 1.644,0.68 0.614,0 1.207,-0.243 1.641,-0.68 0.434,-0.434 0.68,-1.023 0.68,-1.641 z"
         style="fill:none;stroke:#000000;stroke-width:0.36;stroke-linecap:square;stroke-linejoin:miter;stroke-miterlimit:3.25;stroke-dasharray:none;stroke-opacity:0.7"
         id="path88" /><path
         d="m 204.32,48.566 c 0,-0.617 -0.242,-1.207 -0.679,-1.644 -0.434,-0.434 -1.028,-0.68 -1.641,-0.68 -0.617,0 -1.207,0.246 -1.645,0.68 -0.433,0.437 -0.679,1.027 -0.679,1.644 0,0.614 0.246,1.204 0.679,1.641 0.438,0.434 1.028,0.68 1.645,0.68 0.613,0 1.207,-0.246 1.641,-0.68 0.437,-0.437 0.679,-1.027 0.679,-1.641 z"
         style="fill:#a3b4cc;fill-opacity:1;fill-rule:evenodd;stroke:none"
         id="path90" /><path
         d="m 204.32,48.566 c 0,-0.617 -0.242,-1.207 -0.679,-1.644 -0.434,-0.434 -1.028,-0.68 -1.641,-0.68 -0.617,0 -1.207,0.246 -1.645,0.68 -0.433,0.437 -0.679,1.027 -0.679,1.644 0,0.614 0.246,1.204 0.679,1.641 0.438,0.434 1.028,0.68 1.645,0.68 0.613,0 1.207,-0.246 1.641,-0.68 0.437,-0.437 0.679,-1.027 0.679,-1.641 z"
         style="fill:none;stroke:#000000;stroke-width:0.36;stroke-linecap:square;stroke-linejoin:miter;stroke-miterlimit:3.25;stroke-dasharray:none;stroke-opacity:0.7"
         id="path92" /><path
         d="m 254.008,154.078 c 0,-0.617 -0.246,-1.207 -0.68,-1.644 -0.437,-0.434 -1.027,-0.68 -1.644,-0.68 -0.614,0 -1.204,0.246 -1.641,0.68 -0.434,0.437 -0.68,1.027 -0.68,1.644 0,0.613 0.246,1.203 0.68,1.641 0.437,0.433 1.027,0.679 1.641,0.679 0.617,0 1.207,-0.246 1.644,-0.679 0.434,-0.438 0.68,-1.028 0.68,-1.641 z"
         style="fill:#a3b4cc;fill-opacity:1;fill-rule:evenodd;stroke:none"
         id="path94" /><path
         d="m 254.008,154.078 c 0,-0.617 -0.246,-1.207 -0.68,-1.644 -0.437,-0.434 -1.027,-0.68 -1.644,-0.68 -0.614,0 -1.204,0.246 -1.641,0.68 -0.434,0.437 -0.68,1.027 -0.68,1.644 0,0.613 0.246,1.203 0.68,1.641 0.437,0.433 1.027,0.679 1.641,0.679 0.617,0 1.207,-0.246 1.644,-0.679 0.434,-0.438 0.68,-1.028 0.68,-1.641 z"
         style="fill:none;stroke:#000000;stroke-width:0.36;stroke-linecap:square;stroke-linejoin:miter;stroke-miterlimit:3.25;stroke-dasharray:none;stroke-opacity:0.7"
         id="path96" /><path
         d="m 204.391,112.926 c 0,-0.617 -0.246,-1.207 -0.684,-1.645 -0.434,-0.433 -1.023,-0.679 -1.641,-0.679 -0.613,0 -1.207,0.246 -1.64,0.679 -0.438,0.438 -0.68,1.028 -0.68,1.645 0,0.613 0.242,1.203 0.68,1.64 0.433,0.434 1.027,0.68 1.64,0.68 0.618,0 1.207,-0.246 1.641,-0.68 0.438,-0.437 0.684,-1.027 0.684,-1.64 z"
         style="fill:#cc0000;fill-opacity:1;fill-rule:evenodd;stroke:#cc0000;stroke-width:0.36;stroke-linecap:square;stroke-linejoin:miter;stroke-miterlimit:3.25;stroke-dasharray:none;stroke-opacity:1"
         id="path98" /><path
         d="m 131.895,53.117 c 0,-0.613 -0.247,-1.203 -0.68,-1.64 -0.438,-0.434 -1.027,-0.68 -1.641,-0.68 -0.617,0 -1.207,0.246 -1.644,0.68 -0.434,0.437 -0.68,1.027 -0.68,1.64 0,0.617 0.246,1.207 0.68,1.645 0.437,0.433 1.027,0.679 1.644,0.679 0.614,0 1.203,-0.246 1.641,-0.679 0.433,-0.438 0.68,-1.028 0.68,-1.645 z"
         style="fill:#a3b4cc;fill-opacity:1;fill-rule:evenodd;stroke:none"
         id="path100" /><path
         d="m 131.895,53.117 c 0,-0.613 -0.247,-1.203 -0.68,-1.64 -0.438,-0.434 -1.027,-0.68 -1.641,-0.68 -0.617,0 -1.207,0.246 -1.644,0.68 -0.434,0.437 -0.68,1.027 -0.68,1.64 0,0.617 0.246,1.207 0.68,1.645 0.437,0.433 1.027,0.679 1.644,0.679 0.614,0 1.203,-0.246 1.641,-0.679 0.433,-0.438 0.68,-1.028 0.68,-1.645 z"
         style="fill:none;stroke:#000000;stroke-width:0.36;stroke-linecap:square;stroke-linejoin:miter;stroke-miterlimit:3.25;stroke-dasharray:none;stroke-opacity:0.7"
         id="path102" /><path
         d="m 131.953,108.422 c 0,-0.617 -0.246,-1.207 -0.68,-1.645 -0.437,-0.433 -1.027,-0.679 -1.644,-0.679 -0.613,0 -1.207,0.246 -1.641,0.679 -0.437,0.438 -0.679,1.028 -0.679,1.645 0,0.613 0.242,1.203 0.679,1.64 0.434,0.434 1.028,0.68 1.641,0.68 0.617,0 1.207,-0.246 1.644,-0.68 0.434,-0.437 0.68,-1.027 0.68,-1.64 z"
         style="fill:#a3b4cc;fill-opacity:1;fill-rule:evenodd;stroke:none"
         id="path104" /><path
         d="m 131.953,108.422 c 0,-0.617 -0.246,-1.207 -0.68,-1.645 -0.437,-0.433 -1.027,-0.679 -1.644,-0.679 -0.613,0 -1.207,0.246 -1.641,0.679 -0.437,0.438 -0.679,1.028 -0.679,1.645 0,0.613 0.242,1.203 0.679,1.64 0.434,0.434 1.028,0.68 1.641,0.68 0.617,0 1.207,-0.246 1.644,-0.68 0.434,-0.437 0.68,-1.027 0.68,-1.64 z"
         style="fill:none;stroke:#000000;stroke-width:0.36;stroke-linecap:square;stroke-linejoin:miter;stroke-miterlimit:3.25;stroke-dasharray:none;stroke-opacity:0.7"
         id="path106" /></g></g></svg>
