<?xml version="1.0" encoding="UTF-8" standalone="no"?>
<!-- Created with Inkscape (http://www.inkscape.org/) -->

<svg
   version="1.1"
   id="svg2"
   xml:space="preserve"
   width="346.66666"
   height="216"
   viewBox="0 0 346.66666 216"
   sodipodi:docname="08mmgiizwltpy.pdf"
   xmlns:inkscape="http://www.inkscape.org/namespaces/inkscape"
   xmlns:sodipodi="http://sodipodi.sourceforge.net/DTD/sodipodi-0.dtd"
   xmlns="http://www.w3.org/2000/svg"
   xmlns:svg="http://www.w3.org/2000/svg"><defs
     id="defs6"><clipPath
       clipPathUnits="userSpaceOnUse"
       id="clipPath80"><path
         d="m 0,161 h 258.961 v 0.281 H 0 Z"
         id="path78" /></clipPath><clipPath
       clipPathUnits="userSpaceOnUse"
       id="clipPath90"><path
         d="M 0,0 H 1 V 161.281 H 0 Z"
         id="path88" /></clipPath><clipPath
       clipPathUnits="userSpaceOnUse"
       id="clipPath100"><path
         d="M 0,0 H 258.961 V 1 H 0 Z"
         id="path98" /></clipPath><clipPath
       clipPathUnits="userSpaceOnUse"
       id="clipPath110"><path
         d="m 258,0 h 0.961 V 161.281 H 258 Z"
         id="path108" /></clipPath></defs><sodipodi:namedview
     id="namedview4"
     pagecolor="#505050"
     bordercolor="#eeeeee"
     borderopacity="1"
     inkscape:pageshadow="0"
     inkscape:pageopacity="0"
     inkscape:pagecheckerboard="0" /><g
     id="g8"
     inkscape:groupmode="layer"
     inkscape:label="08mmgiizwltpy"
     transform="matrix(1.3333333,0,0,1.3333333,0,5.4e-6)"><g
       id="g10"><path
         d="m 9.461,152.531 46.07,-38.09"
         style="fill:none;stroke:#000000;stroke-width:1.44;stroke-linecap:butt;stroke-linejoin:miter;stroke-miterlimit:3.25;stroke-dasharray:none;stroke-opacity:0.7"
         id="path12" /><path
         d="M 57.316,110.645 57.293,50.992"
         style="fill:none;stroke:#000000;stroke-width:1.44;stroke-linecap:butt;stroke-linejoin:miter;stroke-miterlimit:3.25;stroke-dasharray:2.88, 2.88;stroke-dashoffset:0;stroke-opacity:0.7"
         id="path14" /><path
         d="m 59.633,112.816 67.683,-4.222"
         style="fill:none;stroke:#000000;stroke-width:1.44;stroke-linecap:butt;stroke-linejoin:miter;stroke-miterlimit:3.25;stroke-dasharray:2.88, 2.88;stroke-dashoffset:0;stroke-opacity:0.7"
         id="path16" /><path
         d="M 9.59,8.953 55.508,47.188"
         style="fill:none;stroke:#000000;stroke-width:1.44;stroke-linecap:butt;stroke-linejoin:miter;stroke-miterlimit:3.25;stroke-dasharray:none;stroke-opacity:0.7"
         id="path18" /><path
         d="m 59.605,48.82 67.653,4.258"
         style="fill:none;stroke:#000000;stroke-width:1.44;stroke-linecap:butt;stroke-linejoin:miter;stroke-miterlimit:3.25;stroke-dasharray:2.88, 2.88;stroke-dashoffset:0;stroke-opacity:0.7"
         id="path20" /><path
         d="M 249.742,8.973 203.684,47.195"
         style="fill:none;stroke:#000000;stroke-width:1.44;stroke-linecap:butt;stroke-linejoin:miter;stroke-miterlimit:3.25;stroke-dasharray:none;stroke-opacity:0.7"
         id="path22" /><path
         d="m 201.902,50.996 0.063,59.633"
         style="fill:none;stroke:#ff0000;stroke-width:1.44;stroke-linecap:butt;stroke-linejoin:miter;stroke-miterlimit:3.25;stroke-dasharray:none;stroke-opacity:0.7"
         id="path24" /><path
         d="m 199.586,48.824 -67.699,4.254"
         style="fill:none;stroke:#000000;stroke-width:1.44;stroke-linecap:butt;stroke-linejoin:miter;stroke-miterlimit:3.25;stroke-dasharray:2.88, 2.88;stroke-dashoffset:0;stroke-opacity:0.7"
         id="path26" /><path
         d="M 249.73,152.562 203.75,114.426"
         style="fill:none;stroke:#000000;stroke-width:1.44;stroke-linecap:butt;stroke-linejoin:miter;stroke-miterlimit:3.25;stroke-dasharray:none;stroke-opacity:0.7"
         id="path28" /><path
         d="m 199.652,112.805 -67.707,-4.211"
         style="fill:none;stroke:#00ff00;stroke-width:1.44;stroke-linecap:butt;stroke-linejoin:miter;stroke-miterlimit:3.25;stroke-dasharray:none;stroke-opacity:0.7"
         id="path30" /><path
         d="m 129.574,55.543 0.055,50.586"
         style="fill:none;stroke:#0000ff;stroke-width:1.44;stroke-linecap:butt;stroke-linejoin:miter;stroke-miterlimit:3.25;stroke-dasharray:none;stroke-opacity:0.7"
         id="path32" /><path
         d="m 9.992,154.008 c 0,-0.613 -0.242,-1.203 -0.676,-1.637 -0.437,-0.437 -1.027,-0.68 -1.64,-0.68 -0.617,0 -1.203,0.243 -1.641,0.68 -0.433,0.434 -0.68,1.024 -0.68,1.637 0,0.617 0.247,1.207 0.68,1.64 0.438,0.434 1.024,0.68 1.641,0.68 0.613,0 1.203,-0.246 1.64,-0.68 0.434,-0.433 0.676,-1.023 0.676,-1.64 z"
         style="fill:#a3b4cc;fill-opacity:1;fill-rule:evenodd;stroke:none"
         id="path34" /><path
         d="m 9.992,154.008 c 0,-0.613 -0.242,-1.203 -0.676,-1.637 -0.437,-0.437 -1.027,-0.68 -1.64,-0.68 -0.617,0 -1.203,0.243 -1.641,0.68 -0.433,0.434 -0.68,1.024 -0.68,1.637 0,0.617 0.247,1.207 0.68,1.64 0.438,0.434 1.024,0.68 1.641,0.68 0.613,0 1.203,-0.246 1.64,-0.68 0.434,-0.433 0.676,-1.023 0.676,-1.64 z"
         style="fill:none;stroke:#000000;stroke-width:0.36;stroke-linecap:square;stroke-linejoin:miter;stroke-miterlimit:3.25;stroke-dasharray:none;stroke-opacity:0.7"
         id="path36" /><path
         d="m 59.637,112.961 c 0,-0.613 -0.246,-1.203 -0.68,-1.637 -0.437,-0.437 -1.023,-0.679 -1.641,-0.679 -0.613,0 -1.203,0.242 -1.64,0.679 -0.434,0.434 -0.68,1.024 -0.68,1.637 0,0.617 0.246,1.207 0.68,1.641 0.437,0.433 1.027,0.679 1.64,0.679 0.618,0 1.204,-0.246 1.641,-0.679 0.434,-0.434 0.68,-1.024 0.68,-1.641 z"
         style="fill:#a3b4cc;fill-opacity:1;fill-rule:evenodd;stroke:none"
         id="path38" /><path
         d="m 59.637,112.961 c 0,-0.613 -0.246,-1.203 -0.68,-1.637 -0.437,-0.437 -1.023,-0.679 -1.641,-0.679 -0.613,0 -1.203,0.242 -1.64,0.679 -0.434,0.434 -0.68,1.024 -0.68,1.637 0,0.617 0.246,1.207 0.68,1.641 0.437,0.433 1.027,0.679 1.64,0.679 0.618,0 1.204,-0.246 1.641,-0.679 0.434,-0.434 0.68,-1.024 0.68,-1.641 z"
         style="fill:none;stroke:#000000;stroke-width:0.36;stroke-linecap:square;stroke-linejoin:miter;stroke-miterlimit:3.25;stroke-dasharray:none;stroke-opacity:0.7"
         id="path40" /><path
         d="M 10.129,7.469 C 10.129,6.852 9.883,6.266 9.449,5.828 9.012,5.395 8.426,5.148 7.809,5.148 7.195,5.148 6.605,5.395 6.168,5.828 5.734,6.266 5.492,6.852 5.492,7.469 c 0,0.613 0.242,1.203 0.676,1.64 0.437,0.434 1.027,0.676 1.641,0.676 0.617,0 1.203,-0.242 1.64,-0.676 0.434,-0.437 0.68,-1.027 0.68,-1.64 z"
         style="fill:#a3b4cc;fill-opacity:1;fill-rule:evenodd;stroke:none"
         id="path42" /><path
         d="M 10.129,7.469 C 10.129,6.852 9.883,6.266 9.449,5.828 9.012,5.395 8.426,5.148 7.809,5.148 7.195,5.148 6.605,5.395 6.168,5.828 5.734,6.266 5.492,6.852 5.492,7.469 c 0,0.613 0.242,1.203 0.676,1.64 0.437,0.434 1.027,0.676 1.641,0.676 0.617,0 1.203,-0.242 1.64,-0.676 0.434,-0.437 0.68,-1.027 0.68,-1.64 z"
         style="fill:none;stroke:#000000;stroke-width:0.36;stroke-linecap:square;stroke-linejoin:miter;stroke-miterlimit:3.25;stroke-dasharray:none;stroke-opacity:0.7"
         id="path44" /><path
         d="m 59.609,48.672 c 0,-0.613 -0.242,-1.203 -0.679,-1.637 -0.434,-0.437 -1.024,-0.68 -1.637,-0.68 -0.617,0 -1.207,0.243 -1.641,0.68 -0.433,0.434 -0.679,1.024 -0.679,1.637 0,0.617 0.246,1.207 0.679,1.64 0.434,0.434 1.024,0.68 1.641,0.68 0.613,0 1.203,-0.246 1.637,-0.68 0.437,-0.433 0.679,-1.023 0.679,-1.64 z"
         style="fill:#a3b4cc;fill-opacity:1;fill-rule:evenodd;stroke:none"
         id="path46" /><path
         d="m 59.609,48.672 c 0,-0.613 -0.242,-1.203 -0.679,-1.637 -0.434,-0.437 -1.024,-0.68 -1.637,-0.68 -0.617,0 -1.207,0.243 -1.641,0.68 -0.433,0.434 -0.679,1.024 -0.679,1.637 0,0.617 0.246,1.207 0.679,1.64 0.434,0.434 1.024,0.68 1.641,0.68 0.613,0 1.203,-0.246 1.637,-0.68 0.437,-0.433 0.679,-1.023 0.679,-1.64 z"
         style="fill:none;stroke:#000000;stroke-width:0.36;stroke-linecap:square;stroke-linejoin:miter;stroke-miterlimit:3.25;stroke-dasharray:none;stroke-opacity:0.7"
         id="path48" /><path
         d="m 253.844,7.488 c 0,-0.613 -0.246,-1.203 -0.68,-1.636 -0.434,-0.438 -1.023,-0.68 -1.641,-0.68 -0.613,0 -1.203,0.242 -1.636,0.68 -0.438,0.433 -0.68,1.023 -0.68,1.636 0,0.617 0.242,1.207 0.68,1.641 0.433,0.433 1.023,0.68 1.636,0.68 0.618,0 1.207,-0.247 1.641,-0.68 0.434,-0.434 0.68,-1.024 0.68,-1.641 z"
         style="fill:#a3b4cc;fill-opacity:1;fill-rule:evenodd;stroke:none"
         id="path50" /><path
         d="m 253.844,7.488 c 0,-0.613 -0.246,-1.203 -0.68,-1.636 -0.434,-0.438 -1.023,-0.68 -1.641,-0.68 -0.613,0 -1.203,0.242 -1.636,0.68 -0.438,0.433 -0.68,1.023 -0.68,1.636 0,0.617 0.242,1.207 0.68,1.641 0.433,0.433 1.023,0.68 1.636,0.68 0.618,0 1.207,-0.247 1.641,-0.68 0.434,-0.434 0.68,-1.024 0.68,-1.641 z"
         style="fill:none;stroke:#000000;stroke-width:0.36;stroke-linecap:square;stroke-linejoin:miter;stroke-miterlimit:3.25;stroke-dasharray:none;stroke-opacity:0.7"
         id="path52" /><path
         d="m 204.219,48.676 c 0,-0.614 -0.246,-1.203 -0.68,-1.637 -0.437,-0.437 -1.027,-0.68 -1.641,-0.68 -0.613,0 -1.203,0.243 -1.64,0.68 -0.434,0.434 -0.68,1.023 -0.68,1.637 0,0.617 0.246,1.207 0.68,1.64 0.437,0.434 1.027,0.68 1.64,0.68 0.614,0 1.204,-0.246 1.641,-0.68 0.434,-0.433 0.68,-1.023 0.68,-1.64 z"
         style="fill:#a3b4cc;fill-opacity:1;fill-rule:evenodd;stroke:none"
         id="path54" /><path
         d="m 204.219,48.676 c 0,-0.614 -0.246,-1.203 -0.68,-1.637 -0.437,-0.437 -1.027,-0.68 -1.641,-0.68 -0.613,0 -1.203,0.243 -1.64,0.68 -0.434,0.434 -0.68,1.023 -0.68,1.637 0,0.617 0.246,1.207 0.68,1.64 0.437,0.434 1.027,0.68 1.64,0.68 0.614,0 1.204,-0.246 1.641,-0.68 0.434,-0.433 0.68,-1.023 0.68,-1.64 z"
         style="fill:none;stroke:#000000;stroke-width:0.36;stroke-linecap:square;stroke-linejoin:miter;stroke-miterlimit:3.25;stroke-dasharray:none;stroke-opacity:0.7"
         id="path56" /><path
         d="m 253.836,154.043 c 0,-0.617 -0.246,-1.203 -0.68,-1.641 -0.437,-0.433 -1.027,-0.679 -1.64,-0.679 -0.614,0 -1.204,0.246 -1.641,0.679 -0.434,0.438 -0.68,1.024 -0.68,1.641 0,0.613 0.246,1.203 0.68,1.641 0.437,0.433 1.027,0.675 1.641,0.675 0.613,0 1.203,-0.242 1.64,-0.675 0.434,-0.438 0.68,-1.028 0.68,-1.641 z"
         style="fill:#a3b4cc;fill-opacity:1;fill-rule:evenodd;stroke:none"
         id="path58" /><path
         d="m 253.836,154.043 c 0,-0.617 -0.246,-1.203 -0.68,-1.641 -0.437,-0.433 -1.027,-0.679 -1.64,-0.679 -0.614,0 -1.204,0.246 -1.641,0.679 -0.434,0.438 -0.68,1.024 -0.68,1.641 0,0.613 0.246,1.203 0.68,1.641 0.437,0.433 1.027,0.675 1.641,0.675 0.613,0 1.203,-0.242 1.64,-0.675 0.434,-0.438 0.68,-1.028 0.68,-1.641 z"
         style="fill:none;stroke:#000000;stroke-width:0.36;stroke-linecap:square;stroke-linejoin:miter;stroke-miterlimit:3.25;stroke-dasharray:none;stroke-opacity:0.7"
         id="path60" /><path
         d="m 204.285,112.945 c 0,-0.613 -0.246,-1.203 -0.68,-1.636 -0.433,-0.438 -1.023,-0.68 -1.64,-0.68 -0.613,0 -1.203,0.242 -1.637,0.68 -0.437,0.433 -0.68,1.023 -0.68,1.636 0,0.617 0.243,1.207 0.68,1.641 0.434,0.434 1.024,0.68 1.637,0.68 0.617,0 1.207,-0.246 1.64,-0.68 0.434,-0.434 0.68,-1.024 0.68,-1.641 z"
         style="fill:#a3b4cc;fill-opacity:1;fill-rule:evenodd;stroke:none"
         id="path62" /><path
         d="m 204.285,112.945 c 0,-0.613 -0.246,-1.203 -0.68,-1.636 -0.433,-0.438 -1.023,-0.68 -1.64,-0.68 -0.613,0 -1.203,0.242 -1.637,0.68 -0.437,0.433 -0.68,1.023 -0.68,1.636 0,0.617 0.243,1.207 0.68,1.641 0.434,0.434 1.024,0.68 1.637,0.68 0.617,0 1.207,-0.246 1.64,-0.68 0.434,-0.434 0.68,-1.024 0.68,-1.641 z"
         style="fill:none;stroke:#000000;stroke-width:0.36;stroke-linecap:square;stroke-linejoin:miter;stroke-miterlimit:3.25;stroke-dasharray:none;stroke-opacity:0.7"
         id="path64" /><path
         d="m 131.891,53.227 c 0,-0.618 -0.243,-1.207 -0.68,-1.641 -0.434,-0.434 -1.023,-0.68 -1.637,-0.68 -0.617,0 -1.207,0.246 -1.64,0.68 -0.434,0.434 -0.68,1.023 -0.68,1.641 0,0.613 0.246,1.203 0.68,1.636 0.433,0.438 1.023,0.68 1.64,0.68 0.614,0 1.203,-0.242 1.637,-0.68 0.437,-0.433 0.68,-1.023 0.68,-1.636 z"
         style="fill:#a3b4cc;fill-opacity:1;fill-rule:evenodd;stroke:none"
         id="path66" /><path
         d="m 131.891,53.227 c 0,-0.618 -0.243,-1.207 -0.68,-1.641 -0.434,-0.434 -1.023,-0.68 -1.637,-0.68 -0.617,0 -1.207,0.246 -1.64,0.68 -0.434,0.434 -0.68,1.023 -0.68,1.641 0,0.613 0.246,1.203 0.68,1.636 0.433,0.438 1.023,0.68 1.64,0.68 0.614,0 1.203,-0.242 1.637,-0.68 0.437,-0.433 0.68,-1.023 0.68,-1.636 z"
         style="fill:none;stroke:#000000;stroke-width:0.36;stroke-linecap:square;stroke-linejoin:miter;stroke-miterlimit:3.25;stroke-dasharray:none;stroke-opacity:0.7"
         id="path68" /><path
         d="m 131.949,108.449 c 0,-0.613 -0.246,-1.203 -0.679,-1.64 -0.434,-0.434 -1.024,-0.68 -1.641,-0.68 -0.613,0 -1.203,0.246 -1.641,0.68 -0.433,0.437 -0.676,1.027 -0.676,1.64 0,0.613 0.243,1.203 0.676,1.641 0.438,0.433 1.028,0.68 1.641,0.68 0.617,0 1.207,-0.247 1.641,-0.68 0.433,-0.438 0.679,-1.028 0.679,-1.641 z"
         style="fill:#a3b4cc;fill-opacity:1;fill-rule:evenodd;stroke:none"
         id="path70" /><path
         d="m 131.949,108.449 c 0,-0.613 -0.246,-1.203 -0.679,-1.64 -0.434,-0.434 -1.024,-0.68 -1.641,-0.68 -0.613,0 -1.203,0.246 -1.641,0.68 -0.433,0.437 -0.676,1.027 -0.676,1.64 0,0.613 0.243,1.203 0.676,1.641 0.438,0.433 1.028,0.68 1.641,0.68 0.617,0 1.207,-0.247 1.641,-0.68 0.433,-0.438 0.679,-1.028 0.679,-1.641 z"
         style="fill:none;stroke:#000000;stroke-width:0.36;stroke-linecap:square;stroke-linejoin:miter;stroke-miterlimit:3.25;stroke-dasharray:none;stroke-opacity:0.7"
         id="path72" /></g><g
       id="g74"><g
         id="g76"
         clip-path="url(#clipPath80)"><path
           d="M 259.02,161.332 H 0.18"
           style="fill:none;stroke:#000000;stroke-width:0.144;stroke-linecap:square;stroke-linejoin:miter;stroke-miterlimit:3.25;stroke-dasharray:none;stroke-opacity:1"
           id="path82" /></g></g><g
       id="g84"><g
         id="g86"
         clip-path="url(#clipPath90)"><path
           d="M 0.18,161.332 V 0.18"
           style="fill:none;stroke:#000000;stroke-width:0.144;stroke-linecap:square;stroke-linejoin:miter;stroke-miterlimit:3.25;stroke-dasharray:none;stroke-opacity:1"
           id="path92" /></g></g><g
       id="g94"><g
         id="g96"
         clip-path="url(#clipPath100)"><path
           d="M 0.18,0.18 H 259.02"
           style="fill:none;stroke:#000000;stroke-width:0.144;stroke-linecap:square;stroke-linejoin:miter;stroke-miterlimit:3.25;stroke-dasharray:none;stroke-opacity:1"
           id="path102" /></g></g><g
       id="g104"><g
         id="g106"
         clip-path="url(#clipPath110)"><path
           d="M 259.02,0.18 V 161.332"
           style="fill:none;stroke:#000000;stroke-width:0.144;stroke-linecap:square;stroke-linejoin:miter;stroke-miterlimit:3.25;stroke-dasharray:none;stroke-opacity:1"
           id="path112" /></g></g></g></svg>
