<?xml version="1.0" encoding="UTF-8" standalone="no"?>
<!-- Created with Inkscape (http://www.inkscape.org/) -->

<svg
   version="1.1"
   id="svg1"
   width="484"
   height="20"
   viewBox="0 0 484 20"
   sodipodi:docname="0aknzgv9vc0z9.pdf"
   xmlns:inkscape="http://www.inkscape.org/namespaces/inkscape"
   xmlns:sodipodi="http://sodipodi.sourceforge.net/DTD/sodipodi-0.dtd"
   xmlns="http://www.w3.org/2000/svg"
   xmlns:svg="http://www.w3.org/2000/svg">
  <defs
     id="defs1">
    <clipPath
       clipPathUnits="userSpaceOnUse"
       id="clipPath2">
      <path
         d="m 0,3 h 12.961 v 9 H 0 Z"
         id="path2" />
    </clipPath>
    <clipPath
       clipPathUnits="userSpaceOnUse"
       id="clipPath4">
      <path
         d="m 0,3 h 12.961 v 9 H 0 Z"
         id="path4" />
    </clipPath>
    <clipPath
       clipPathUnits="userSpaceOnUse"
       id="clipPath6">
      <path
         d="m 0,3 h 12.961 v 9 H 0 Z"
         id="path6" />
    </clipPath>
    <clipPath
       clipPathUnits="userSpaceOnUse"
       id="clipPath8">
      <path
         d="m 0,3 h 12.961 v 9 H 0 Z"
         id="path8" />
    </clipPath>
  </defs>
  <sodipodi:namedview
     id="namedview1"
     pagecolor="#ffffff"
     bordercolor="#999999"
     borderopacity="1"
     inkscape:showpageshadow="0"
     inkscape:pageopacity="0"
     inkscape:pagecheckerboard="0"
     inkscape:deskcolor="#d1d1d1">
    <inkscape:page
       x="0"
       y="0"
       id="page1"
       width="484"
       height="20"
       margin="0"
       bleed="0" />
  </sodipodi:namedview>
  <g
     id="g1"
     inkscape:groupmode="layer"
     inkscape:label="">
    <path
       id="path1"
       d="m 12.113,6.73 c 0,-1.554 -1.261,-2.816 -2.816,-2.816 H 3.664 c -1.559,0 -2.82,1.262 -2.82,2.816 v 1.551 c 0,1.555 1.261,2.817 2.82,2.817 h 5.633 c 1.555,0 2.816,-1.262 2.816,-2.817 V 6.73"
       style="fill:none;stroke:#e5e5e5;stroke-width:0.7128;stroke-linecap:square;stroke-linejoin:miter;stroke-miterlimit:3.25;stroke-dasharray:none;stroke-opacity:1"
       transform="scale(1.3333333)"
       clip-path="url(#clipPath2)" />
    <path
       id="path3"
       d="M 7.258,7.508 C 7.258,7.711 7.176,7.91 7.031,8.055 6.883,8.203 6.688,8.285 6.48,8.285 6.273,8.285 6.074,8.203 5.93,8.055 5.785,7.91 5.703,7.711 5.703,7.508 5.703,7.301 5.785,7.102 5.93,6.957 6.074,6.809 6.273,6.727 6.48,6.727 c 0.208,0 0.403,0.082 0.551,0.23 0.145,0.145 0.227,0.344 0.227,0.551 z"
       style="fill:#ff5454;fill-opacity:1;fill-rule:evenodd;stroke:none"
       transform="scale(1.3333333)"
       clip-path="url(#clipPath4)" />
    <path
       id="path5"
       d="M 10.074,7.508 C 10.074,7.711 9.992,7.91 9.848,8.055 9.703,8.203 9.504,8.285 9.297,8.285 9.09,8.285 8.895,8.203 8.746,8.055 8.602,7.91 8.52,7.711 8.52,7.508 8.52,7.301 8.602,7.102 8.746,6.957 8.895,6.809 9.09,6.727 9.297,6.727 c 0.207,0 0.406,0.082 0.551,0.23 0.144,0.145 0.226,0.344 0.226,0.551 z"
       style="fill:#ff5454;fill-opacity:1;fill-rule:evenodd;stroke:none"
       transform="scale(1.3333333)"
       clip-path="url(#clipPath6)" />
    <path
       id="path7"
       d="M 4.441,7.508 C 4.441,7.711 4.359,7.91 4.211,8.055 4.066,8.203 3.867,8.285 3.664,8.285 3.457,8.285 3.258,8.203 3.113,8.055 2.969,7.91 2.887,7.711 2.887,7.508 c 0,-0.207 0.082,-0.406 0.226,-0.551 0.145,-0.148 0.344,-0.23 0.551,-0.23 0.203,0 0.402,0.082 0.547,0.23 0.148,0.145 0.23,0.344 0.23,0.551 z"
       style="fill:#ff5454;fill-opacity:1;fill-rule:evenodd;stroke:none"
       transform="scale(1.3333333)"
       clip-path="url(#clipPath8)" />
    <path
       id="path9"
       d="m 3.257125,-3.0126953 h 1.9804688 v 2.80078124 c -0.3164063,0.09375 -0.6328125,0.17578125 -0.9375,0.22265625 -0.328125,0.046875 -0.6796875,0.0703125 -1.078125,0.0703125 -0.5859375,0 -1.0898438,-0.1171875 -1.4882813,-0.3515625 C 1.3235313,-0.51660156 1.007125,-0.84472656 0.7961875,-1.2900391 0.59696875,-1.7353516 0.4915,-2.2509766 0.4915,-2.8603516 c 0,-0.5859375 0.10546875,-1.1132812 0.3515625,-1.546875 0.234375,-0.4335937 0.5625,-0.7851562 1.0078125,-1.0195312 0.4335938,-0.2460938 0.9726563,-0.3632813 1.59375,-0.3632813 0.328125,0 0.6210938,0.023437 0.9140625,0.082031 0.28125,0.058594 0.5507813,0.140625 0.796875,0.2460937 L 4.8860313,-4.8408203 C 4.6750938,-4.9228516 4.4524375,-5.0048828 4.194625,-5.0634766 3.9368125,-5.1337891 3.679,-5.1689453 3.4094688,-5.1689453 c -0.4570313,0 -0.84375,0.1054687 -1.171875,0.28125 -0.328125,0.1992187 -0.5742188,0.4570312 -0.7382813,0.8085937 -0.1757812,0.3398438 -0.2578125,0.75 -0.2578125,1.21875 0,0.4570313 0.070312,0.8554688 0.2109375,1.2070313 0.1523438,0.3515625 0.375,0.6328125 0.703125,0.82031249 0.3046875,0.1875 0.7265625,0.29296875 1.2421875,0.29296875 0.2460938,0 0.4570313,-0.0117188 0.6328125,-0.046875 0.1757813,-0.0234375 0.3398438,-0.0585938 0.4804688,-0.09375 V -2.3798828 H 3.257125 Z m 4.8984375,-1.359375 c 0.375,0 0.6796875,0.082031 0.9492188,0.2460937 0.2695312,0.1523438 0.46875,0.3867188 0.609375,0.6796875 0.140625,0.28125 0.2109375,0.6328125 0.2109375,1.0078125 v 0.4335938 H 6.9954063 c 0,0.4804687 0.1289062,0.8554687 0.3632812,1.11328124 0.2460938,0.24609375 0.5742188,0.375 1.0078125,0.375 0.2695313,0 0.5039063,-0.0234375 0.7148438,-0.0820313 0.2109375,-0.046875 0.4335937,-0.1171875 0.65625,-0.22265625 v 0.62109375 c -0.2226563,0.09375 -0.4453125,0.1640625 -0.6445313,0.2109375 -0.2226562,0.046875 -0.4804687,0.0703125 -0.7617187,0.0703125 -0.4101563,0 -0.7734375,-0.0820312525 -1.078125,-0.24609375 -0.3164063,-0.1640625 -0.5625,-0.41015625 -0.7382813,-0.73828125 C 6.3391563,-1.2314453 6.2688438,-1.6298828 6.2688438,-2.1103516 c 0,-0.46875 0.070312,-0.8789062 0.2226562,-1.2070312 0.1640625,-0.3398438 0.375,-0.5976563 0.6679688,-0.7851563 0.2929687,-0.1757812 0.6210937,-0.2695312 0.9960937,-0.2695312 z m 0,0.5742187 c -0.3398437,0 -0.609375,0.1171875 -0.8085937,0.328125 -0.1875,0.2226563 -0.3046875,0.515625 -0.3398438,0.9023438 h 2.1914063 c 0,-0.2460938 -0.046875,-0.4570313 -0.1171875,-0.6445313 C 8.9993125,-3.3876953 8.8938438,-3.5283203 8.7415,-3.6337891 8.5891563,-3.7392578 8.3899375,-3.7978516 8.1555625,-3.7978516 Z M 13.054,-4.3720703 c 0.515625,0 0.902344,0.1289062 1.160156,0.375 0.257813,0.2460937 0.398438,0.65625 0.398438,1.2070312 V -9.765625e-4 H 13.909469 V -2.7431641 c 0,-0.3515625 -0.07031,-0.5976562 -0.222656,-0.7851562 -0.164063,-0.1640625 -0.410157,-0.2460938 -0.738282,-0.2460938 -0.480468,0 -0.808593,0.1289063 -0.984375,0.3984375 -0.175781,0.2695313 -0.269531,0.65625 -0.269531,1.1484375 V -9.765625e-4 H 10.9915 V -4.2900391 h 0.574219 l 0.09375,0.5859375 h 0.04687 c 0.09375,-0.1523437 0.210937,-0.2695312 0.351562,-0.375 0.140625,-0.09375 0.292969,-0.1757812 0.46875,-0.2226562 0.175782,-0.046875 0.351563,-0.070312 0.527344,-0.070312 z m 4.535156,0 c 0.375,0 0.679688,0.082031 0.949219,0.2460937 0.269531,0.1523438 0.46875,0.3867188 0.609375,0.6796875 0.140625,0.28125 0.210938,0.6328125 0.210938,1.0078125 v 0.4335938 H 16.429 c 0,0.4804687 0.128906,0.8554687 0.363281,1.11328124 0.246094,0.24609375 0.574219,0.375 1.007813,0.375 0.269531,0 0.503906,-0.0234375 0.714844,-0.0820313 0.210937,-0.046875 0.433593,-0.1171875 0.65625,-0.22265625 v 0.62109375 c -0.222657,0.09375 -0.445313,0.1640625 -0.644532,0.2109375 -0.222656,0.046875 -0.480468,0.0703125 -0.761718,0.0703125 -0.410157,0 -0.773438,-0.0820312525 -1.078125,-0.24609375 -0.316407,-0.1640625 -0.5625,-0.41015625 -0.738282,-0.73828125 -0.175781,-0.32812494 -0.246093,-0.72656244 -0.246093,-1.20703124 0,-0.46875 0.07031,-0.8789062 0.222656,-1.2070312 0.164062,-0.3398438 0.375,-0.5976563 0.667969,-0.7851563 0.292968,-0.1757812 0.621093,-0.2695312 0.996093,-0.2695312 z m 0,0.5742187 c -0.339843,0 -0.609375,0.1171875 -0.808593,0.328125 -0.1875,0.2226563 -0.304688,0.515625 -0.339844,0.9023438 h 2.191406 c 0,-0.2460938 -0.04687,-0.4570313 -0.117187,-0.6445313 -0.08203,-0.1757812 -0.1875,-0.3164062 -0.339844,-0.421875 -0.152344,-0.1054687 -0.351563,-0.1640625 -0.585938,-0.1640625 z m 4.863282,-0.5742187 c 0.08203,0 0.152343,0.011719 0.257812,0.011719 0.09375,0.011719 0.175781,0.023437 0.246094,0.035156 l -0.09375,0.65625 c -0.07031,-0.023437 -0.152344,-0.035156 -0.222656,-0.046875 -0.08203,-0.011719 -0.164063,-0.011719 -0.234375,-0.011719 -0.175782,0 -0.328125,0.035156 -0.480469,0.1054688 -0.152344,0.070312 -0.28125,0.1640625 -0.398438,0.2929687 -0.117187,0.1289063 -0.210937,0.2695313 -0.28125,0.4453125 -0.05859,0.1757813 -0.09375,0.375 -0.09375,0.5976563 V -9.765625e-4 H 20.448531 V -4.2900391 h 0.574219 l 0.08203,0.7851563 h 0.03516 c 0.08203,-0.1640625 0.199218,-0.3046875 0.328125,-0.4335938 0.128906,-0.1289062 0.269531,-0.234375 0.433593,-0.3164062 0.164063,-0.082031 0.351563,-0.1171875 0.550782,-0.1171875 z m 2.90332,0.011719 c 0.515625,0 0.902344,0.1171875 1.160156,0.3398438 0.246094,0.234375 0.375,0.5976562 0.375,1.1015625 V -9.765625e-4 H 26.375289 L 26.246383,-0.61035156 h -0.03516 c -0.128907,0.1640625 -0.257813,0.29296875 -0.386719,0.3984375 -0.128906,0.09375 -0.28125,0.17578125 -0.445313,0.22265625 -0.175781,0.046875 -0.375,0.0703125 -0.609375,0.0703125 -0.257812,0 -0.492187,-0.046875 -0.703125,-0.140625 -0.199218,-0.08203125 -0.363281,-0.22265625 -0.480468,-0.41015625 -0.117188,-0.19921875 -0.175782,-0.43359375 -0.175782,-0.72656254 0,-0.421875 0.175782,-0.75 0.503907,-0.984375 0.339843,-0.234375 0.855468,-0.3632812 1.558593,-0.3867187 l 0.726563,-0.023437 v -0.2460938 c 0,-0.3632812 -0.08203,-0.609375 -0.234375,-0.75 -0.152344,-0.140625 -0.375,-0.2109375 -0.65625,-0.2109375 -0.222656,0 -0.433594,0.046875 -0.632813,0.1054688 -0.210937,0.070312 -0.398437,0.140625 -0.574218,0.2226562 L 23.89091,-3.9970698 c 0.175781,-0.09375 0.410156,-0.1875 0.65625,-0.2578125 0.257813,-0.070312 0.527344,-0.1054688 0.808594,-0.1054688 z m 0.199219,2.2851563 c -0.527344,0.023437 -0.902344,0.1171875 -1.101563,0.2578125 -0.210937,0.1523437 -0.304687,0.3632812 -0.304687,0.6328125 0,0.23437499 0.07031,0.41015624 0.210937,0.52734374 0.140625,0.1171875 0.339844,0.1640625 0.574219,0.1640625 0.351562,0 0.65625,-0.09375 0.902344,-0.29296875 0.234375,-0.19921875 0.351562,-0.51562499 0.351562,-0.92578129 v -0.3867187 z m 3.363281,2.0742187375 H 28.215133 V -6.0830078 h 0.703125 z m 0,0"
       style="fill:#dd1100;fill-opacity:1;fill-rule:nonzero;stroke:none"
       aria-label="General"
       transform="matrix(1.3333333,0,0,1.3333333,19.469667,13.333333)" />
    <path
       id="path10"
       d="m 0.57325781,-0.43457031 c 0,-0.1875 0.046875,-0.33984375 0.140625,-0.41015625 0.10546875,-0.0820313 0.2109375,-0.12890625 0.35156249,-0.12890625 0.1289063,0 0.2578125,0.046875 0.3515625,0.12890625 0.09375,0.0703125 0.1523438,0.22265625 0.1523438,0.41015625 0,0.19921875 -0.058594,0.33984375 -0.1523438,0.421875 -0.09375,0.08203125 -0.2226562,0.12890625 -0.3515625,0.12890625 -0.14062499,0 -0.24609374,-0.046875 -0.35156249,-0.12890625 -0.09375,-0.08203125 -0.140625,-0.22265625 -0.140625,-0.421875 z m 0,-3.42187499 c 0,-0.1992188 0.046875,-0.3515625 0.140625,-0.421875 0.10546875,-0.082031 0.2109375,-0.1289063 0.35156249,-0.1289063 0.1289063,0 0.2578125,0.046875 0.3515625,0.1289063 0.09375,0.070312 0.1523438,0.2226562 0.1523438,0.421875 0,0.1875 -0.058594,0.328125 -0.1523438,0.4101562 -0.09375,0.09375 -0.2226562,0.1289063 -0.3515625,0.1289063 -0.14062499,0 -0.24609374,-0.035156 -0.35156249,-0.1289063 -0.09375,-0.082031 -0.140625,-0.2226562 -0.140625,-0.4101562 z m 0,0"
       style="fill:#000000;fill-opacity:1;fill-rule:nonzero;stroke:none"
       aria-label=":"
       transform="matrix(1.3333333,0,0,1.3333333,59.888,13.333333)" />
    <path
       id="path11"
       d="M 1.5012813,-9.765625e-4 H 0.77471875 V -5.7197266 H 3.9739375 v 0.6328125 H 1.5012813 v 2.0273438 h 2.3203125 v 0.6328125 H 1.5012813 Z M 8.4182734,-4.2900391 V -9.765625e-4 H 7.8440547 L 7.7385859,-0.56347656 h -0.035156 c -0.09375,0.140625 -0.2109375,0.26953125 -0.3515625,0.36328125 -0.140625,0.09375 -0.3046875,0.1640625 -0.46875,0.2109375 -0.1757813,0.046875 -0.3515625,0.0703125 -0.5390625,0.0703125 -0.3398438,0 -0.6328125,-0.046875 -0.8671875,-0.1640625 -0.2226563,-0.10546875 -0.3984375,-0.28125 -0.515625,-0.515625 C 4.8440547,-0.82128906 4.7854609,-1.1142578 4.7854609,-1.4775391 v -2.8125 h 0.7148438 v 2.765625 c 0,0.3398438 0.070312,0.59765629 0.234375,0.76171879 0.1523437,0.17578125 0.3867187,0.2578125 0.7148437,0.2578125 0.3164063,0 0.5742188,-0.0585938 0.75,-0.17578125 0.1875,-0.1171875 0.3164063,-0.29296875 0.3984375,-0.52734374 0.082031,-0.234375 0.1171875,-0.515625 0.1171875,-0.8554688 v -2.2265625 z m 3.3603516,-0.082031 c 0.08203,0 0.152344,0.011719 0.257813,0.011719 0.09375,0.011719 0.175781,0.023437 0.246093,0.035156 l -0.09375,0.65625 c -0.07031,-0.023437 -0.152343,-0.035156 -0.222656,-0.046875 -0.08203,-0.011719 -0.164062,-0.011719 -0.234375,-0.011719 -0.175781,0 -0.328125,0.035156 -0.480469,0.1054688 -0.152343,0.070312 -0.28125,0.1640625 -0.398437,0.2929687 -0.117188,0.1289063 -0.210938,0.2695313 -0.28125,0.4453125 -0.05859,0.1757813 -0.09375,0.375 -0.09375,0.5976563 V -9.765625e-4 H 9.7747188 V -4.2900391 h 0.5742192 l 0.08203,0.7851563 h 0.03516 c 0.08203,-0.1640625 0.199219,-0.3046875 0.328125,-0.4335938 0.128906,-0.1289062 0.269531,-0.234375 0.433594,-0.3164062 0.164062,-0.082031 0.351562,-0.1171875 0.550781,-0.1171875 z m 2.707031,3.87890624 c 0.105469,0 0.222657,-0.0117188 0.328125,-0.0234375 0.117188,-0.0234375 0.199219,-0.046875 0.28125,-0.0703125 v 0.5390625 c -0.08203,0.03515625 -0.1875,0.0703125 -0.328125,0.09375 -0.140625,0.0234375 -0.269531,0.03515625 -0.398437,0.03515625 -0.222656,0 -0.433594,-0.03515625 -0.621094,-0.1171875 -0.199219,-0.08203125 -0.351562,-0.2109375 -0.457031,-0.41015625 -0.117188,-0.1875 -0.175781,-0.4453125 -0.175781,-0.80859374 v -2.4960938 h -0.609375 v -0.328125 l 0.621093,-0.28125 0.269532,-0.9140625 h 0.421875 v 0.984375 h 1.242187 v 0.5390625 h -1.242187 v 2.484375 c 0,0.26953129 0.05859,0.45703129 0.1875,0.58593754 0.128906,0.12890625 0.28125,0.1875 0.480468,0.1875 z m 2.16211,-3.80859374 c 0,0.1054687 -0.01172,0.2109375 -0.01172,0.3164062 -0.01172,0.1054688 -0.02344,0.2109375 -0.02344,0.28125 h 0.04687 c 0.08203,-0.140625 0.199219,-0.2695312 0.339844,-0.3632812 0.140625,-0.09375 0.292969,-0.1640625 0.46875,-0.2109375 0.164063,-0.058594 0.339844,-0.082031 0.527344,-0.082031 0.339844,0 0.632812,0.058594 0.867187,0.1640625 0.222657,0.1171875 0.398438,0.28125 0.527344,0.5039063 0.105469,0.234375 0.175781,0.5273437 0.175781,0.9023437 V -9.765625e-4 H 18.862609 V -2.7431641 c 0,-0.3515625 -0.07031,-0.5976562 -0.222656,-0.7851562 -0.164062,-0.1640625 -0.410156,-0.2460938 -0.738281,-0.2460938 -0.316406,0 -0.574219,0.058594 -0.75,0.1757813 -0.1875,0.1289062 -0.304688,0.3046875 -0.386719,0.5273437 -0.08203,0.234375 -0.117187,0.515625 -0.117187,0.8554688 V -9.765625e-4 H 15.944641 V -6.0830078 h 0.703125 z m 5.868164,-0.070312 c 0.375,0 0.679687,0.082031 0.949218,0.2460937 0.269532,0.1523438 0.46875,0.3867188 0.609375,0.6796875 0.140625,0.28125 0.210938,0.6328125 0.210938,1.0078125 v 0.4335938 h -2.929688 c 0,0.4804687 0.128907,0.8554687 0.363282,1.11328124 0.246093,0.24609375 0.574218,0.375 1.007812,0.375 0.269531,0 0.503906,-0.0234375 0.714844,-0.0820313 0.210937,-0.046875 0.433594,-0.1171875 0.65625,-0.22265625 v 0.62109375 c -0.222656,0.09375 -0.445313,0.1640625 -0.644531,0.2109375 -0.222657,0.046875 -0.480469,0.0703125 -0.761719,0.0703125 -0.410156,0 -0.773438,-0.0820312525 -1.078125,-0.24609375 -0.316406,-0.1640625 -0.5625,-0.41015625 -0.738281,-0.73828125 -0.175782,-0.32812494 -0.246094,-0.72656244 -0.246094,-1.20703134 0,-0.46875 0.07031,-0.8789061 0.222656,-1.2070312 0.164063,-0.3398438 0.375,-0.5976563 0.667969,-0.7851562 0.292969,-0.1757812 0.621094,-0.2695312 0.996094,-0.2695312 z m 0,0.5742187 c -0.339844,0 -0.609375,0.1171875 -0.808594,0.328125 -0.1875,0.2226563 -0.304688,0.515625 -0.339844,0.9023438 h 2.191406 c 0,-0.2460938 -0.04687,-0.4570313 -0.117187,-0.6445313 -0.08203,-0.1757812 -0.1875,-0.3164062 -0.339844,-0.421875 -0.152344,-0.1054687 -0.351562,-0.1640625 -0.585937,-0.1640625 z m 4.863281,-0.5742187 c 0.08203,0 0.152344,0.011719 0.257812,0.011719 0.09375,0.011719 0.175782,0.023437 0.246094,0.035156 l -0.09375,0.65625 c -0.07031,-0.023437 -0.152344,-0.035156 -0.222656,-0.046875 -0.08203,-0.011719 -0.164063,-0.011719 -0.234375,-0.011719 -0.175781,0 -0.328125,0.035156 -0.480469,0.1054688 -0.152344,0.070312 -0.28125,0.1640625 -0.398437,0.2929687 -0.117188,0.1289063 -0.210938,0.2695313 -0.28125,0.4453125 -0.05859,0.1757813 -0.09375,0.375 -0.09375,0.5976563 V -9.765625e-4 H 25.375305 V -4.2900391 h 0.574218 l 0.08203,0.7851563 h 0.03516 c 0.08203,-0.1640625 0.199219,-0.3046875 0.328125,-0.4335938 0.128906,-0.1289062 0.269531,-0.234375 0.433594,-0.3164062 0.164062,-0.082031 0.351562,-0.1171875 0.550781,-0.1171875 z m 7.089844,2.2148437 c 0,0.3632813 -0.04687,0.6796875 -0.140625,0.9609375 -0.09375,0.26953129 -0.222657,0.50390629 -0.398438,0.69140629 -0.175781,0.1875 -0.386719,0.33984375 -0.632812,0.4453125 -0.246094,0.09375 -0.515625,0.140625 -0.820313,0.140625 -0.292969,0 -0.550781,-0.046875 -0.785156,-0.140625 -0.246094,-0.10546875 -0.457031,-0.2578125 -0.632813,-0.4453125 -0.175781,-0.1875 -0.316406,-0.421875 -0.410156,-0.69140629 -0.09375,-0.28125 -0.140625,-0.5976562 -0.140625,-0.9609375 0,-0.46875 0.07031,-0.8671875 0.234375,-1.1953125 0.164063,-0.328125 0.386719,-0.5742187 0.691406,-0.75 0.292969,-0.1757812 0.644532,-0.2695312 1.066407,-0.2695312 0.375,0 0.726562,0.09375 1.019531,0.2695312 0.292969,0.1757813 0.527344,0.421875 0.691406,0.75 0.175781,0.328125 0.257813,0.7265625 0.257813,1.1953125 z m -3.234375,0 c 0,0.3398438 0.03516,0.6328125 0.128906,0.8789063 0.08203,0.2578125 0.222656,0.44531249 0.410156,0.57421874 0.1875,0.140625 0.421875,0.19921875 0.714844,0.19921875 0.292969,0 0.515625,-0.0585938 0.714844,-0.19921875 0.175781,-0.12890625 0.316406,-0.31640624 0.410156,-0.57421874 0.08203,-0.2460938 0.128906,-0.5390625 0.128906,-0.8789063 0,-0.328125 -0.04687,-0.6328125 -0.128906,-0.8671875 -0.105469,-0.2460937 -0.234375,-0.421875 -0.421875,-0.5507812 -0.1875,-0.1289063 -0.421875,-0.1992188 -0.714844,-0.1992188 -0.433594,0 -0.761719,0.140625 -0.949219,0.4335938 -0.199218,0.28125 -0.292968,0.6796875 -0.292968,1.1835937 z m 7.933593,-2.1328125 V -9.765625e-4 H 38.594055 L 38.488586,-0.56347656 h -0.03516 c -0.09375,0.140625 -0.210938,0.26953125 -0.351563,0.36328125 -0.140625,0.09375 -0.304687,0.1640625 -0.46875,0.2109375 -0.175781,0.046875 -0.351562,0.0703125 -0.539062,0.0703125 -0.339844,0 -0.632813,-0.046875 -0.867188,-0.1640625 -0.222656,-0.10546875 -0.398437,-0.28125 -0.515625,-0.515625 -0.117187,-0.22265625 -0.175781,-0.51562499 -0.175781,-0.87890629 v -2.8125 h 0.714844 v 2.765625 c 0,0.3398438 0.07031,0.59765629 0.234375,0.76171879 0.152343,0.17578125 0.386718,0.2578125 0.714843,0.2578125 0.316407,0 0.574219,-0.0585938 0.75,-0.17578125 0.1875,-0.1171875 0.316407,-0.29296875 0.398438,-0.52734374 0.08203,-0.234375 0.117187,-0.515625 0.117187,-0.8554688 v -2.2265625 z m 2.789063,3.79687504 c 0.105469,0 0.222656,-0.0117188 0.328125,-0.0234375 0.117187,-0.0234375 0.199219,-0.046875 0.28125,-0.0703125 v 0.5390625 c -0.08203,0.03515625 -0.1875,0.0703125 -0.328125,0.09375 -0.140625,0.0234375 -0.269531,0.03515625 -0.398438,0.03515625 -0.222656,0 -0.433593,-0.03515625 -0.621093,-0.1171875 -0.199219,-0.08203125 -0.351563,-0.2109375 -0.457032,-0.41015625 -0.117187,-0.1875 -0.175781,-0.4453125 -0.175781,-0.80859374 v -2.4960938 h -0.609375 v -0.328125 l 0.621094,-0.28125 0.269531,-0.9140625 h 0.421875 v 0.984375 h 1.242188 v 0.5390625 h -1.242188 v 2.484375 c 0,0.26953129 0.05859,0.45703129 0.1875,0.58593754 0.128906,0.12890625 0.28125,0.1875 0.480469,0.1875 z m 3.46582,-3.87890624 c 0.527344,0 0.949219,0.1875 1.277344,0.5507812 0.316406,0.375 0.480469,0.9257813 0.480469,1.6640625 0,0.4921875 -0.07031,0.9023438 -0.222656,1.23046879 -0.140625,0.33984375 -0.351563,0.5859375 -0.609375,0.76171875 -0.269532,0.1640624975 -0.574219,0.24609375 -0.925782,0.24609375 -0.234375,0 -0.421875,-0.0234375 -0.585937,-0.09375 -0.175781,-0.046875 -0.328125,-0.12890625 -0.445313,-0.22265625 -0.117187,-0.09375 -0.222656,-0.19921875 -0.304687,-0.3046875 h -0.04687 c 0.01172,0.09375 0.01172,0.19921875 0.03516,0.33984375 0,0.140625 0.01172,0.2578125 0.01172,0.36328125 V 1.9208984 h -0.703125 v -6.2109375 h 0.574219 l 0.09375,0.5859375 h 0.03516 c 0.08203,-0.1171875 0.1875,-0.234375 0.304687,-0.3398437 0.117188,-0.09375 0.269532,-0.1757813 0.433594,-0.234375 0.164063,-0.058594 0.363281,-0.09375 0.597656,-0.09375 z m -0.128906,0.5976562 c -0.28125,0 -0.515625,0.046875 -0.691406,0.1640625 -0.175781,0.1171875 -0.304688,0.2695313 -0.386719,0.4921875 -0.08203,0.2226563 -0.128906,0.4921875 -0.128906,0.8320313 v 0.1289062 c 0,0.3515625 0.03516,0.65625 0.117187,0.9023438 0.07031,0.2460937 0.199219,0.43359374 0.375,0.56249999 0.175782,0.12890625 0.421875,0.1875 0.738282,0.1875 0.257812,0 0.46875,-0.0703125 0.632812,-0.2109375 0.175781,-0.15234375 0.304688,-0.33984379 0.375,-0.58593749 0.08203,-0.2578125 0.128906,-0.5390625 0.128906,-0.8554688 0,-0.4921875 -0.09375,-0.890625 -0.28125,-1.1835937 -0.199218,-0.28125 -0.480468,-0.4335938 -0.878906,-0.4335938 z m 6.594727,-0.515625 V -9.765625e-4 H 51.314758 L 51.209289,-0.56347656 h -0.03516 c -0.09375,0.140625 -0.210938,0.26953125 -0.351563,0.36328125 -0.140625,0.09375 -0.304687,0.1640625 -0.46875,0.2109375 -0.175781,0.046875 -0.351562,0.0703125 -0.539062,0.0703125 -0.339844,0 -0.632813,-0.046875 -0.867188,-0.1640625 -0.222656,-0.10546875 -0.398437,-0.28125 -0.515625,-0.515625 C 48.314754,-0.82128906 48.25616,-1.1142578 48.25616,-1.4775391 v -2.8125 h 0.714844 v 2.765625 c 0,0.3398438 0.07031,0.59765629 0.234375,0.76171879 0.152344,0.17578125 0.386719,0.2578125 0.714844,0.2578125 0.316406,0 0.574218,-0.0585938 0.75,-0.17578125 0.1875,-0.1171875 0.316406,-0.29296875 0.398437,-0.52734374 0.08203,-0.234375 0.117188,-0.515625 0.117188,-0.8554688 v -2.2265625 z m 2.765625,3.79687504 c 0.105468,0 0.222656,-0.0117188 0.328125,-0.0234375 0.117187,-0.0234375 0.199218,-0.046875 0.28125,-0.0703125 v 0.5390625 c -0.08203,0.03515625 -0.1875,0.0703125 -0.328125,0.09375 -0.140625,0.0234375 -0.269532,0.03515625 -0.398438,0.03515625 -0.222656,0 -0.433594,-0.03515625 -0.621094,-0.1171875 -0.199218,-0.08203125 -0.351562,-0.2109375 -0.457031,-0.41015625 -0.117187,-0.1875 -0.175781,-0.4453125 -0.175781,-0.80859374 v -2.4960938 h -0.609375 v -0.328125 l 0.621094,-0.28125 0.269531,-0.9140625 h 0.421875 v 0.984375 h 1.242187 v 0.5390625 h -1.242187 v 2.484375 c 0,0.26953129 0.05859,0.45703129 0.1875,0.58593754 0.128906,0.12890625 0.28125,0.1875 0.480469,0.1875 z m 7.248046,-1.66406254 c 0,0.3632813 -0.04687,0.6796875 -0.140625,0.9609375 -0.09375,0.26953129 -0.222656,0.50390629 -0.398437,0.69140629 -0.175781,0.1875 -0.386719,0.33984375 -0.632813,0.4453125 -0.246093,0.09375 -0.515625,0.140625 -0.820312,0.140625 -0.292969,0 -0.550781,-0.046875 -0.785156,-0.140625 -0.246094,-0.10546875 -0.457032,-0.2578125 -0.632813,-0.4453125 -0.175781,-0.1875 -0.316406,-0.421875 -0.410156,-0.69140629 -0.09375,-0.28125 -0.140625,-0.5976562 -0.140625,-0.9609375 0,-0.46875 0.07031,-0.8671875 0.234375,-1.1953125 0.164062,-0.328125 0.386719,-0.5742187 0.691406,-0.75 0.292969,-0.1757812 0.644531,-0.2695312 1.066406,-0.2695312 0.375,0 0.726563,0.09375 1.019532,0.2695312 0.292968,0.1757813 0.527343,0.421875 0.691406,0.75 0.175781,0.328125 0.257812,0.7265625 0.257812,1.1953125 z m -3.234375,0 c 0,0.3398438 0.03516,0.6328125 0.128907,0.8789063 0.08203,0.2578125 0.222656,0.44531249 0.410156,0.57421874 0.1875,0.140625 0.421875,0.19921875 0.714844,0.19921875 0.292968,0 0.515625,-0.0585938 0.714843,-0.19921875 0.175782,-0.12890625 0.316407,-0.31640624 0.410157,-0.57421874 0.08203,-0.2460938 0.128906,-0.5390625 0.128906,-0.8789063 0,-0.328125 -0.04687,-0.6328125 -0.128906,-0.8671875 -0.105469,-0.2460937 -0.234375,-0.421875 -0.421875,-0.5507812 -0.1875,-0.1289063 -0.421875,-0.1992188 -0.714844,-0.1992188 -0.433594,0 -0.761719,0.140625 -0.949219,0.4335938 -0.199219,0.28125 -0.292969,0.6796875 -0.292969,1.1835937 z m 6.328125,-1.59375 H 63.918273 V -9.765625e-4 H 63.20343 V -3.7509766 h -0.75 v -0.328125 l 0.75,-0.234375 v -0.2460937 c 0,-0.375 0.05859,-0.6679688 0.164062,-0.9023438 0.117188,-0.2226562 0.269531,-0.3867187 0.480469,-0.5039062 0.210937,-0.1054688 0.457031,-0.1523438 0.75,-0.1523438 0.175781,0 0.328125,0.011719 0.46875,0.046875 0.140625,0.023437 0.257812,0.058594 0.363281,0.09375 l -0.175781,0.5507813 c -0.09375,-0.023437 -0.1875,-0.046875 -0.304688,-0.082031 -0.105468,-0.023437 -0.222656,-0.035156 -0.339843,-0.035156 -0.246094,0 -0.421875,0.082031 -0.527344,0.234375 -0.117188,0.1640625 -0.164063,0.3984375 -0.164063,0.7382812 v 0.28125 h 1.078125 z m 0,0"
       style="fill:#898989;fill-opacity:1;fill-rule:nonzero;stroke:none"
       aria-label="Furtheroutputof"
       transform="matrix(1.3333333,0,0,1.3333333,67.545167,13.333333)" />
    <path
       id="path12"
       d="m 5.7669063,-2.8720703 c 0,0.4570312 -0.058594,0.8554687 -0.1757813,1.21875 -0.1054687,0.3515625 -0.2695312,0.66796874 -0.5039062,0.92578124 -0.2226563,0.2578125 -0.4921875,0.45703125 -0.8203125,0.59765625 -0.328125,0.140625 -0.703125,0.2109375 -1.1367188,0.2109375 -0.4453125,0 -0.84375,-0.0703125 -1.171875,-0.2109375 C 1.6301875,-0.27050781 1.3489375,-0.46972656 1.138,-0.72753906 0.91534375,-0.98535156 0.75128125,-1.3017578 0.6458125,-1.6650391 0.54034375,-2.0283203 0.49346875,-2.4267578 0.49346875,-2.8720703 c 0,-0.5859375 0.09375,-1.1015625 0.28125,-1.5351563 0.19921875,-0.4335937 0.48046875,-0.7851562 0.87890625,-1.03125 0.3867188,-0.234375 0.890625,-0.3632812 1.4882813,-0.3632812 0.5625,0 1.0429687,0.1289062 1.4414062,0.3632812 0.375,0.2460938 0.6796875,0.5859375 0.8789063,1.03125 0.1992187,0.4335938 0.3046875,0.9492188 0.3046875,1.5351563 z m -4.5117188,0 c 0,0.4804687 0.058594,0.9023437 0.1992188,1.2421875 0.1289062,0.3515625 0.328125,0.6210937 0.609375,0.80859374 0.28125,0.1875 0.6328125,0.28125 1.0664062,0.28125 0.4335938,0 0.7851563,-0.09375 1.0546875,-0.28125 0.2695313,-0.18750004 0.4804688,-0.45703124 0.6210938,-0.80859374 0.1289062,-0.3398438 0.1992187,-0.7617188 0.1992187,-1.2421875 0,-0.7148438 -0.1523437,-1.2773438 -0.4453125,-1.6875 -0.3046875,-0.3984375 -0.7851562,-0.609375 -1.4179687,-0.609375 -0.4335938,0 -0.796875,0.09375 -1.078125,0.28125 -0.28125,0.1757812 -0.4804688,0.4453125 -0.609375,0.7851562 -0.140625,0.3515625 -0.1992188,0.7617188 -0.1992188,1.2304688 z m 7.7109375,-1.5 c 0.5273438,0 0.9492188,0.1875 1.277344,0.5507812 0.316406,0.375 0.480469,0.9257813 0.480469,1.6640625 0,0.4921875 -0.07031,0.9023438 -0.222657,1.23046879 -0.140625,0.33984375 -0.351562,0.5859375 -0.6093747,0.76171875 C 9.622375,-9.765625e-4 9.3176875,0.08105469 8.966125,0.08105469 c -0.234375,0 -0.421875,-0.0234375 -0.5859375,-0.09375 -0.1757812,-0.046875 -0.328125,-0.12890625 -0.4453125,-0.22265625 -0.1171875,-0.09375 -0.2226562,-0.19921875 -0.3046875,-0.3046875 h -0.046875 c 0.011719,0.09375 0.011719,0.19921875 0.035156,0.33984375 0,0.140625 0.011719,0.2578125 0.011719,0.36328125 V 1.9208984 h -0.703125 v -6.2109375 h 0.5742188 l 0.09375,0.5859375 h 0.035156 c 0.082031,-0.1171875 0.1875,-0.234375 0.3046875,-0.3398437 0.1171875,-0.09375 0.2695313,-0.1757813 0.4335938,-0.234375 0.1640625,-0.058594 0.3632812,-0.09375 0.5976564,-0.09375 z m -0.1289062,0.5976562 c -0.28125,0 -0.515625,0.046875 -0.6914063,0.1640625 -0.1757812,0.1171875 -0.3046875,0.2695313 -0.3867187,0.4921875 -0.082031,0.2226563 -0.1289063,0.4921875 -0.1289063,0.8320313 v 0.1289062 c 0,0.3515625 0.035156,0.65625 0.1171875,0.9023438 0.070312,0.2460937 0.1992188,0.43359374 0.375,0.56249999 0.1757813,0.12890625 0.421875,0.1875 0.7382813,0.1875 0.2578125,0 0.46875,-0.0703125 0.6328125,-0.2109375 0.1757812,-0.15234375 0.3046875,-0.33984379 0.375,-0.58593749 0.082031,-0.2578125 0.1289062,-0.5390625 0.1289062,-0.8554688 0,-0.4921875 -0.09375,-0.890625 -0.28125,-1.1835937 -0.1992187,-0.28125 -0.4804687,-0.4335938 -0.8789062,-0.4335938 z m 4.4150392,3.28125004 c 0.105469,0 0.222656,-0.0117188 0.328125,-0.0234375 0.117187,-0.0234375 0.199219,-0.046875 0.28125,-0.0703125 v 0.5390625 c -0.08203,0.03515625 -0.1875,0.0703125 -0.328125,0.09375 -0.140625,0.0234375 -0.269531,0.03515625 -0.398438,0.03515625 -0.222656,0 -0.433593,-0.03515625 -0.621093,-0.1171875 -0.199219,-0.08203125 -0.351563,-0.2109375 -0.457032,-0.41015625 -0.117187,-0.1875 -0.175781,-0.4453125 -0.175781,-0.80859374 v -2.4960938 h -0.609375 v -0.328125 l 0.621094,-0.28125 0.269531,-0.9140625 h 0.421875 v 0.984375 h 1.242188 v 0.5390625 h -1.242188 v 2.484375 c 0,0.26953129 0.05859,0.45703129 0.1875,0.58593754 0.128906,0.12890625 0.28125,0.1875 0.480469,0.1875 z M 15.414367,-4.2900391 V -9.765625e-4 H 14.711242 V -4.2900391 Z m -0.339844,-1.6054687 c 0.105469,0 0.199219,0.035156 0.28125,0.1054687 0.08203,0.070312 0.128907,0.1875 0.128907,0.3398438 0,0.1523437 -0.04687,0.2578125 -0.128907,0.3398437 -0.08203,0.070312 -0.175781,0.1054688 -0.28125,0.1054688 -0.117187,0 -0.222656,-0.035156 -0.292968,-0.1054688 -0.08203,-0.082031 -0.128907,-0.1875 -0.128907,-0.3398437 0,-0.1523438 0.04687,-0.2695313 0.128907,-0.3398438 0.07031,-0.070312 0.175781,-0.1054687 0.292968,-0.1054687 z m 5.428711,3.7382812 c 0,0.3632813 -0.04687,0.6796875 -0.140625,0.9609375 -0.09375,0.26953129 -0.222656,0.50390629 -0.398437,0.69140629 -0.175781,0.1875 -0.386719,0.33984375 -0.632813,0.4453125 -0.246093,0.09375 -0.515625,0.140625 -0.820312,0.140625 -0.292969,0 -0.550781,-0.046875 -0.785156,-0.140625 -0.246094,-0.10546875 -0.457032,-0.2578125 -0.632813,-0.4453125 -0.175781,-0.1875 -0.316406,-0.421875 -0.410156,-0.69140629 -0.09375,-0.28125 -0.140625,-0.5976562 -0.140625,-0.9609375 0,-0.46875 0.07031,-0.8671875 0.234375,-1.1953125 0.164062,-0.328125 0.386719,-0.5742187 0.691406,-0.75 0.292969,-0.1757812 0.644531,-0.2695312 1.066406,-0.2695312 0.375,0 0.726563,0.09375 1.019532,0.2695312 0.292968,0.1757813 0.527343,0.421875 0.691406,0.75 0.175781,0.328125 0.257812,0.7265625 0.257812,1.1953125 z m -3.234375,0 c 0,0.3398438 0.03516,0.6328125 0.128907,0.8789063 0.08203,0.2578125 0.222656,0.44531249 0.410156,0.57421874 0.1875,0.140625 0.421875,0.19921875 0.714844,0.19921875 0.292968,0 0.515625,-0.0585938 0.714843,-0.19921875 0.175782,-0.12890625 0.316407,-0.31640624 0.410157,-0.57421874 0.08203,-0.2460938 0.128906,-0.5390625 0.128906,-0.8789063 0,-0.328125 -0.04687,-0.6328125 -0.128906,-0.8671875 -0.105469,-0.2460937 -0.234375,-0.421875 -0.421875,-0.5507812 -0.1875,-0.1289063 -0.421875,-0.1992188 -0.714844,-0.1992188 -0.433594,0 -0.761719,0.140625 -0.949219,0.4335938 -0.199219,0.28125 -0.292969,0.6796875 -0.292969,1.1835937 z m 6.37793,-2.2148437 c 0.515625,0 0.902344,0.1289062 1.160156,0.375 0.257813,0.2460937 0.398438,0.65625 0.398438,1.2070312 V -9.765625e-4 H 24.502258 V -2.7431641 c 0,-0.3515625 -0.07031,-0.5976562 -0.222656,-0.7851562 -0.164063,-0.1640625 -0.410157,-0.2460938 -0.738282,-0.2460938 -0.480468,0 -0.808593,0.1289063 -0.984375,0.3984375 -0.175781,0.2695313 -0.269531,0.65625 -0.269531,1.1484375 V -9.765625e-4 H 21.584289 V -4.2900391 h 0.574219 l 0.09375,0.5859375 h 0.04687 c 0.09375,-0.1523437 0.210937,-0.2695312 0.351562,-0.375 0.140625,-0.09375 0.292969,-0.1757812 0.46875,-0.2226562 0.175782,-0.046875 0.351563,-0.070312 0.527344,-0.070312 z m 7.004883,-1.3476563 -2.039063,5.7187500375 H 27.886047 L 25.846984,-5.7197266 h 0.75 l 1.289063,3.6679688 c 0.05859,0.1640625 0.105469,0.3046875 0.152344,0.4453125 0.04687,0.1523437 0.08203,0.2929687 0.117187,0.421875 0.02344,0.1289062 0.05859,0.25781249 0.09375,0.38671874 0.02344,-0.12890625 0.05859,-0.25781254 0.08203,-0.39843754 0.03516,-0.1289062 0.08203,-0.2695312 0.128907,-0.4101562 0.04687,-0.1523438 0.09375,-0.3046875 0.152343,-0.4570313 l 1.277344,-3.65625 z m 2.305664,1.359375 c 0.515625,0 0.902344,0.1171875 1.160156,0.3398438 0.246094,0.234375 0.375,0.5976562 0.375,1.1015625 V -9.765625e-4 H 33.976867 L 33.847961,-0.61035156 h -0.03516 c -0.128907,0.1640625 -0.257813,0.29296875 -0.386719,0.3984375 -0.128906,0.09375 -0.28125,0.17578125 -0.445313,0.22265625 -0.175781,0.046875 -0.375,0.0703125 -0.609375,0.0703125 -0.257812,0 -0.492187,-0.046875 -0.703125,-0.140625 -0.199218,-0.08203125 -0.363281,-0.22265625 -0.480468,-0.41015625 -0.117188,-0.19921875 -0.175782,-0.43359375 -0.175782,-0.72656254 0,-0.421875 0.175782,-0.75 0.503907,-0.984375 0.339843,-0.234375 0.855468,-0.3632812 1.558593,-0.3867187 l 0.726563,-0.023437 v -0.2460938 c 0,-0.3632812 -0.08203,-0.609375 -0.234375,-0.75 -0.152344,-0.140625 -0.375,-0.2109375 -0.65625,-0.2109375 -0.222656,0 -0.433594,0.046875 -0.632813,0.1054688 -0.210937,0.070312 -0.398437,0.140625 -0.574218,0.2226562 l -0.210938,-0.5273437 c 0.175781,-0.09375 0.410156,-0.1875 0.65625,-0.2578125 0.257813,-0.070312 0.527344,-0.1054688 0.808594,-0.1054688 z m 0.199219,2.2851563 c -0.527344,0.023437 -0.902344,0.1171875 -1.101563,0.2578125 -0.210937,0.1523437 -0.304687,0.3632812 -0.304687,0.6328125 0,0.23437499 0.07031,0.41015624 0.210937,0.52734374 0.140625,0.1171875 0.339844,0.1640625 0.574219,0.1640625 0.351562,0 0.65625,-0.09375 0.902344,-0.29296875 0.234375,-0.19921875 0.351562,-0.51562499 0.351562,-0.92578129 v -0.3867187 z m 3.363281,2.0742187375 H 35.816711 V -6.0830078 h 0.703125 z M 41.465148,-4.2900391 V -9.765625e-4 H 40.89093 L 40.785461,-0.56347656 h -0.03516 c -0.09375,0.140625 -0.210938,0.26953125 -0.351563,0.36328125 -0.140625,0.09375 -0.304687,0.1640625 -0.46875,0.2109375 -0.175781,0.046875 -0.351562,0.0703125 -0.539062,0.0703125 -0.339844,0 -0.632813,-0.046875 -0.867188,-0.1640625 -0.222656,-0.10546875 -0.398437,-0.28125 -0.515625,-0.515625 C 37.89093,-0.82128906 37.832336,-1.1142578 37.832336,-1.4775391 v -2.8125 h 0.714844 v 2.765625 c 0,0.3398438 0.07031,0.59765629 0.234375,0.76171879 0.152343,0.17578125 0.386718,0.2578125 0.714843,0.2578125 0.316407,0 0.574219,-0.0585938 0.75,-0.17578125 0.1875,-0.1171875 0.316407,-0.29296875 0.398438,-0.52734374 0.08203,-0.234375 0.117187,-0.515625 0.117187,-0.8554688 v -2.2265625 z m 3.011719,-0.082031 c 0.375,0 0.679688,0.082031 0.949219,0.2460937 0.269531,0.1523438 0.46875,0.3867188 0.609375,0.6796875 0.140625,0.28125 0.210937,0.6328125 0.210937,1.0078125 v 0.4335938 h -2.929687 c 0,0.4804687 0.128906,0.8554687 0.363281,1.11328124 0.246094,0.24609375 0.574219,0.375 1.007813,0.375 0.269531,0 0.503906,-0.0234375 0.714843,-0.0820313 0.210938,-0.046875 0.433594,-0.1171875 0.65625,-0.22265625 v 0.62109375 c -0.222656,0.09375 -0.445312,0.1640625 -0.644531,0.2109375 -0.222656,0.046875 -0.480469,0.0703125 -0.761719,0.0703125 -0.410156,0 -0.773437,-0.0820312525 -1.078125,-0.24609375 -0.316406,-0.1640625 -0.5625,-0.41015625 -0.738281,-0.73828125 -0.175781,-0.32812494 -0.246094,-0.72656244 -0.246094,-1.20703124 0,-0.46875 0.07031,-0.8789062 0.222657,-1.2070313 0.164062,-0.3398438 0.375,-0.5976563 0.667968,-0.7851562 0.292969,-0.1757812 0.621094,-0.2695312 0.996094,-0.2695312 z m 0,0.5742187 c -0.339844,0 -0.609375,0.1171875 -0.808594,0.328125 -0.1875,0.2226563 -0.304687,0.515625 -0.339843,0.9023438 h 2.191406 c 0,-0.2460938 -0.04687,-0.4570313 -0.117188,-0.6445313 -0.08203,-0.1757812 -0.1875,-0.3164062 -0.339843,-0.421875 -0.152344,-0.1054687 -0.351563,-0.1640625 -0.585938,-0.1640625 z m 2.72168,3.36328129 c 0,-0.1875 0.04687,-0.33984375 0.140625,-0.41015625 0.105469,-0.0820313 0.210937,-0.12890625 0.351562,-0.12890625 0.128907,0 0.257813,0.046875 0.351563,0.12890625 0.09375,0.0703125 0.152344,0.22265625 0.152344,0.41015625 0,0.19921875 -0.05859,0.33984375 -0.152344,0.421875 -0.09375,0.08203125 -0.222656,0.12890625 -0.351563,0.12890625 -0.140625,0 -0.246093,-0.046875 -0.351562,-0.12890625 -0.09375,-0.08203125 -0.140625,-0.22265625 -0.140625,-0.421875 z m 0,-3.42187499 c 0,-0.1992188 0.04687,-0.3515625 0.140625,-0.421875 0.105469,-0.082031 0.210937,-0.1289063 0.351562,-0.1289063 0.128907,0 0.257813,0.046875 0.351563,0.1289063 0.09375,0.070312 0.152344,0.2226562 0.152344,0.421875 0,0.1875 -0.05859,0.328125 -0.152344,0.4101562 -0.09375,0.09375 -0.222656,0.1289063 -0.351563,0.1289063 -0.140625,0 -0.246093,-0.035156 -0.351562,-0.1289063 -0.09375,-0.082031 -0.140625,-0.2226562 -0.140625,-0.4101562 z m 2.144531,3.42187499 c 0,-0.1875 0.04687,-0.33984375 0.140625,-0.41015625 0.105469,-0.0820313 0.210938,-0.12890625 0.351563,-0.12890625 0.128906,0 0.257812,0.046875 0.351562,0.12890625 0.09375,0.0703125 0.152344,0.22265625 0.152344,0.41015625 0,0.19921875 -0.05859,0.33984375 -0.152344,0.421875 -0.09375,0.08203125 -0.222656,0.12890625 -0.351562,0.12890625 -0.140625,0 -0.246094,-0.046875 -0.351563,-0.12890625 -0.09375,-0.08203125 -0.140625,-0.22265625 -0.140625,-0.421875 z m 0,-3.42187499 c 0,-0.1992188 0.04687,-0.3515625 0.140625,-0.421875 0.105469,-0.082031 0.210938,-0.1289063 0.351563,-0.1289063 0.128906,0 0.257812,0.046875 0.351562,0.1289063 0.09375,0.070312 0.152344,0.2226562 0.152344,0.421875 0,0.1875 -0.05859,0.328125 -0.152344,0.4101562 -0.09375,0.09375 -0.222656,0.1289063 -0.351562,0.1289063 -0.140625,0 -0.246094,-0.035156 -0.351563,-0.1289063 -0.09375,-0.082031 -0.140625,-0.2226562 -0.140625,-0.4101562 z m 4.3125,-0.515625 c 0.515625,0 0.902344,0.1289062 1.160156,0.375 0.257813,0.2460937 0.398438,0.65625 0.398438,1.2070312 V -9.765625e-4 H 54.511047 V -2.7431641 c 0,-0.3515625 -0.07031,-0.5976562 -0.222656,-0.7851562 -0.164063,-0.1640625 -0.410157,-0.2460938 -0.738282,-0.2460938 -0.480468,0 -0.808593,0.1289063 -0.984375,0.3984375 -0.175781,0.2695313 -0.269531,0.65625 -0.269531,1.1484375 V -9.765625e-4 H 51.593078 V -4.2900391 h 0.574219 l 0.09375,0.5859375 h 0.04687 c 0.09375,-0.1523437 0.210937,-0.2695312 0.351562,-0.375 0.140625,-0.09375 0.292969,-0.1757812 0.46875,-0.2226562 0.175782,-0.046875 0.351563,-0.070312 0.527344,-0.070312 z m 6.606445,2.2148437 c 0,0.3632813 -0.04687,0.6796875 -0.140625,0.9609375 -0.09375,0.26953129 -0.222656,0.50390629 -0.398437,0.69140629 -0.175781,0.1875 -0.386719,0.33984375 -0.632813,0.4453125 -0.246093,0.09375 -0.515625,0.140625 -0.820312,0.140625 -0.292969,0 -0.550781,-0.046875 -0.785156,-0.140625 -0.246094,-0.10546875 -0.457032,-0.2578125 -0.632813,-0.4453125 -0.175781,-0.1875 -0.316406,-0.421875 -0.410156,-0.69140629 -0.09375,-0.28125 -0.140625,-0.5976562 -0.140625,-0.9609375 0,-0.46875 0.07031,-0.8671875 0.234375,-1.1953125 0.164062,-0.328125 0.386719,-0.5742187 0.691406,-0.75 0.292969,-0.1757812 0.644531,-0.2695312 1.066406,-0.2695312 0.375,0 0.726563,0.09375 1.019532,0.2695312 0.292968,0.1757813 0.527343,0.421875 0.691406,0.75 0.175781,0.328125 0.257812,0.7265625 0.257812,1.1953125 z m -3.234375,0 c 0,0.3398438 0.03516,0.6328125 0.128907,0.8789063 0.08203,0.2578125 0.222656,0.44531249 0.410156,0.57421874 0.1875,0.140625 0.421875,0.19921875 0.714844,0.19921875 0.292968,0 0.515625,-0.0585938 0.714843,-0.19921875 0.175782,-0.12890625 0.316407,-0.31640624 0.410157,-0.57421874 0.08203,-0.2460938 0.128906,-0.5390625 0.128906,-0.8789063 0,-0.328125 -0.04687,-0.6328125 -0.128906,-0.8671875 -0.105469,-0.2460937 -0.234375,-0.421875 -0.421875,-0.5507812 -0.1875,-0.1289063 -0.421875,-0.1992188 -0.714844,-0.1992188 -0.433594,0 -0.761719,0.140625 -0.949219,0.4335938 -0.199219,0.28125 -0.292969,0.6796875 -0.292969,1.1835937 z m 5.847657,2.23828129 c -0.539063,0 -0.960938,-0.1875 -1.277344,-0.55078125 -0.328125,-0.375 -0.480469,-0.93750004 -0.480469,-1.66406254 0,-0.7382812 0.152344,-1.2890625 0.480469,-1.6640625 0.316406,-0.3867187 0.75,-0.5742187 1.289062,-0.5742187 0.222657,0 0.410157,0.035156 0.574219,0.09375 0.164063,0.046875 0.304688,0.1289062 0.433594,0.2226562 0.117187,0.09375 0.222656,0.1992188 0.316406,0.3164063 h 0.04687 c -0.01172,-0.058594 -0.01172,-0.1640625 -0.03516,-0.3046875 -0.01172,-0.140625 -0.01172,-0.2460938 -0.01172,-0.328125 v -1.7109375 h 0.703125 V -9.765625e-4 H 64.340148 L 64.246398,-0.57519531 h -0.03516 c -0.09375,0.12890625 -0.199219,0.234375 -0.316406,0.33984375 -0.128906,0.09375 -0.269531,0.17578125 -0.433594,0.22265625 -0.175781,0.0703125 -0.363281,0.09375 -0.585937,0.09375 z m 0.105468,-0.5859375 c 0.457032,0 0.773438,-0.1171875 0.960938,-0.36328125 0.175781,-0.25781254 0.28125,-0.63281254 0.28125,-1.13671874 v -0.1289063 c 0,-0.5273437 -0.09375,-0.9375 -0.269531,-1.21875 -0.175782,-0.2929687 -0.503907,-0.4335937 -0.972657,-0.4335937 -0.386718,0 -0.667968,0.1523437 -0.855468,0.4570312 -0.199219,0.3046875 -0.28125,0.703125 -0.28125,1.2070313 0,0.515625 0.08203,0.9140625 0.28125,1.19531249 0.1875,0.28125 0.480468,0.421875 0.855468,0.421875 z m 4.942383,-3.86718749 c 0.375,0 0.679688,0.082031 0.949219,0.2460937 0.269531,0.1523438 0.46875,0.3867188 0.609375,0.6796875 0.140625,0.28125 0.210938,0.6328125 0.210938,1.0078125 v 0.4335938 H 66.763 c 0,0.4804687 0.128906,0.8554687 0.363281,1.11328124 0.246094,0.24609375 0.574219,0.375 1.007813,0.375 0.269531,0 0.503906,-0.0234375 0.714844,-0.0820313 0.210937,-0.046875 0.433593,-0.1171875 0.65625,-0.22265625 v 0.62109375 c -0.222657,0.09375 -0.445313,0.1640625 -0.644532,0.2109375 -0.222656,0.046875 -0.480468,0.0703125 -0.761718,0.0703125 -0.410157,0 -0.773438,-0.0820312525 -1.078125,-0.24609375 -0.316407,-0.1640625 -0.5625,-0.41015625 -0.738282,-0.73828125 -0.175781,-0.32812494 -0.246093,-0.72656244 -0.246093,-1.20703124 0,-0.46875 0.07031,-0.8789062 0.222656,-1.2070313 0.164062,-0.3398438 0.375,-0.5976563 0.667969,-0.7851562 0.292968,-0.1757812 0.621093,-0.2695312 0.996093,-0.2695312 z m 0,0.5742187 c -0.339843,0 -0.609375,0.1171875 -0.808593,0.328125 -0.1875,0.2226563 -0.304688,0.515625 -0.339844,0.9023438 h 2.191406 c 0,-0.2460938 -0.04687,-0.4570313 -0.117187,-0.6445313 -0.08203,-0.1757812 -0.1875,-0.3164062 -0.339844,-0.421875 -0.152344,-0.1054687 -0.351563,-0.1640625 -0.585938,-0.1640625 z m 4.816407,0.046875 H 71.661438 V -9.765625e-4 H 70.946594 V -3.7509766 h -0.75 v -0.328125 l 0.75,-0.234375 v -0.2460937 c 0,-0.375 0.05859,-0.6679688 0.164062,-0.9023438 0.117188,-0.2226562 0.269532,-0.3867187 0.480469,-0.5039062 0.210938,-0.1054688 0.457031,-0.1523438 0.75,-0.1523438 0.175781,0 0.328125,0.011719 0.46875,0.046875 0.140625,0.023437 0.257813,0.058594 0.363281,0.09375 l -0.175781,0.5507813 c -0.09375,-0.023437 -0.1875,-0.046875 -0.304687,-0.082031 -0.105469,-0.023437 -0.222657,-0.035156 -0.339844,-0.035156 -0.246094,0 -0.421875,0.082031 -0.527344,0.234375 -0.117187,0.1640625 -0.164062,0.3984375 -0.164062,0.7382812 v 0.28125 h 1.078125 z m 0,0"
       style="fill:#9b9b9b;fill-opacity:1;fill-rule:nonzero;stroke:none"
       aria-label="OptionValue::nodef"
       transform="matrix(1.3333333,0,0,1.3333333,157.67017,13.333333)" />
    <path
       id="path13"
       d="m 3.4456172,-2.4267578 c -0.023437,-0.1171875 -0.058594,-0.2109375 -0.09375,-0.328125 -0.035156,-0.1171875 -0.058594,-0.2109375 -0.082031,-0.3164063 -0.023437,-0.09375 -0.046875,-0.1875 -0.070312,-0.2695312 -0.023437,-0.082031 -0.035156,-0.1523438 -0.046875,-0.2226563 h -0.035156 c -0.011719,0.070312 -0.023437,0.140625 -0.046875,0.2226563 -0.011719,0.082031 -0.035156,0.1757812 -0.058594,0.2695312 -0.023437,0.1054688 -0.046875,0.2109375 -0.082031,0.328125 -0.035156,0.1054688 -0.058594,0.2109375 -0.09375,0.328125 L 2.0628047,-0.01269531 H 1.2659297 L 0.09405469,-4.3017578 h 0.7265625 l 0.58593751,2.296875 c 0.046875,0.1523437 0.082031,0.3046875 0.1171875,0.46875 0.035156,0.1640625 0.070312,0.3046875 0.1054687,0.4453125 0.023437,0.14062499 0.046875,0.26953124 0.058594,0.36328124 h 0.035156 c 0.011719,-0.0703125 0.035156,-0.140625 0.058594,-0.24609375 0.011719,-0.09375 0.035156,-0.18749999 0.058594,-0.30468749 0.023437,-0.09375 0.046875,-0.1992188 0.082031,-0.3164063 0.035156,-0.1054687 0.058594,-0.1992187 0.082031,-0.2929687 l 0.7617188,-2.4140625 h 0.7734375 l 0.7382812,2.4140625 c 0.023437,0.1289062 0.070312,0.2578125 0.1054688,0.3984375 0.046875,0.140625 0.082031,0.28125 0.1171875,0.4101562 0.035156,0.12890629 0.046875,0.24609379 0.058594,0.33984379 h 0.035156 c 0.011719,-0.0820313 0.023437,-0.19921875 0.058594,-0.33984379 0.035156,-0.1289062 0.058594,-0.28125 0.1054688,-0.4453125 0.035156,-0.1523437 0.082031,-0.328125 0.1289062,-0.4804687 L 5.48468,-4.3017578 H 6.1995234 L 5.0159297,-0.01269531 H 4.1838984 Z M 7.6702266,-4.2900391 V -9.765625e-4 H 6.9671016 V -4.2900391 Z M 7.3303828,-5.8955078 c 0.1054688,0 0.1992188,0.035156 0.28125,0.1054687 0.082031,0.070312 0.1289063,0.1875 0.1289063,0.3398438 0,0.1523437 -0.046875,0.2578125 -0.1289063,0.3398437 -0.082031,0.070312 -0.1757812,0.1054688 -0.28125,0.1054688 -0.1171875,0 -0.2226562,-0.035156 -0.2929687,-0.1054688 -0.082031,-0.082031 -0.1289063,-0.1875 -0.1289063,-0.3398437 0,-0.1523438 0.046875,-0.2695313 0.1289063,-0.3398438 0.070312,-0.070312 0.1757812,-0.1054687 0.2929687,-0.1054687 z M 9.7356563,-9.765625e-4 H 9.0325313 V -6.0830078 h 0.703125 z m 2.0624997,0 H 11.095031 V -6.0830078 h 0.703125 z M 15.926086,-4.6064453 c 0,0.1875 -0.01172,0.3515625 -0.01172,0.515625 -0.01172,0.1640625 -0.02344,0.28125 -0.02344,0.3632812 h 0.03516 c 0.117187,-0.1757812 0.292969,-0.328125 0.503906,-0.4570312 0.210938,-0.1171875 0.492188,-0.1757813 0.832031,-0.1757813 0.527344,0 0.949219,0.1875 1.277344,0.5625 0.316406,0.3632813 0.480469,0.9140625 0.480469,1.6523438 0,0.4921875 -0.07031,0.9023437 -0.222656,1.23046874 -0.140625,0.33984375 -0.351563,0.5859375 -0.609375,0.75 -0.269532,0.1640624975 -0.574219,0.24609375 -0.925782,0.24609375 -0.339843,0 -0.621093,-0.05859375 -0.832031,-0.1875 -0.210937,-0.1171875 -0.386719,-0.2578125 -0.503906,-0.43359375 h -0.05859 L 15.726867,-9.765625e-4 H 15.222961 V -6.0830078 h 0.703125 z m 1.207031,0.8320312 c -0.304687,0 -0.539062,0.058594 -0.714844,0.1757813 -0.175781,0.1054687 -0.304687,0.28125 -0.375,0.5273437 -0.08203,0.234375 -0.117187,0.5273438 -0.117187,0.9023438 v 0.035156 c 0,0.5273438 0.08203,0.9375 0.257812,1.20703129 0.175782,0.28125 0.492188,0.421875 0.972657,0.421875 0.375,0 0.65625,-0.140625 0.855468,-0.421875 0.1875,-0.28124999 0.28125,-0.69140629 0.28125,-1.23046879 0,-0.5273437 -0.09375,-0.9375 -0.28125,-1.21875 -0.199218,-0.2695312 -0.480468,-0.3984375 -0.878906,-0.3984373 z m 4.664063,-0.5976562 c 0.375,0 0.679687,0.082031 0.949218,0.2460937 0.269532,0.1523438 0.46875,0.3867188 0.609375,0.6796875 0.140625,0.28125 0.210938,0.6328125 0.210938,1.0078125 v 0.4335938 h -2.929688 c 0,0.4804687 0.128907,0.8554687 0.363282,1.11328124 0.246093,0.24609375 0.574218,0.375 1.007812,0.375 0.269531,0 0.503906,-0.0234375 0.714844,-0.0820313 0.210937,-0.046875 0.433594,-0.1171875 0.65625,-0.22265625 v 0.62109375 c -0.222656,0.09375 -0.445313,0.1640625 -0.644531,0.2109375 -0.222657,0.046875 -0.480469,0.0703125 -0.761719,0.0703125 -0.410156,0 -0.773438,-0.0820312525 -1.078125,-0.24609375 -0.316406,-0.1640625 -0.5625,-0.41015625 -0.738281,-0.73828125 -0.175782,-0.32812494 -0.246094,-0.72656244 -0.246094,-1.20703124 0,-0.46875 0.07031,-0.8789062 0.222656,-1.2070312 0.164063,-0.3398438 0.375,-0.5976563 0.667969,-0.7851563 0.292969,-0.1757812 0.621094,-0.2695312 0.996094,-0.2695312 z m 0,0.5742187 c -0.339844,0 -0.609375,0.1171875 -0.808594,0.328125 -0.1875,0.2226563 -0.304688,0.515625 -0.339844,0.9023438 h 2.191406 c 0,-0.2460938 -0.04687,-0.4570313 -0.117187,-0.6445313 -0.08203,-0.1757812 -0.1875,-0.3164062 -0.339844,-0.421875 -0.152344,-0.1054687 -0.351562,-0.1640625 -0.585937,-0.1640625 z m 7.702148,2.6132813 c 0,0.28124999 -0.07031,0.51562499 -0.199219,0.69140624 -0.152343,0.19921875 -0.339843,0.328125 -0.597656,0.43359375 -0.257812,0.09375 -0.5625,0.140625 -0.914062,0.140625 -0.304688,0 -0.5625,-0.0234375 -0.773438,-0.0703125 -0.210937,-0.046875 -0.410156,-0.1171875 -0.5625,-0.19921875 v -0.64453125 c 0.164063,0.0820313 0.375,0.1640625 0.609375,0.234375 0.246094,0.0820313 0.492188,0.10546875 0.75,0.10546875 0.351563,0 0.609375,-0.046875 0.773438,-0.1640625 0.164062,-0.1171875 0.234375,-0.26953125 0.234375,-0.46875004 0,-0.09375 -0.02344,-0.1992187 -0.08203,-0.28125 -0.07031,-0.082031 -0.164062,-0.1757812 -0.316406,-0.2578125 -0.152344,-0.082031 -0.375,-0.1757812 -0.65625,-0.2929687 -0.28125,-0.1054688 -0.515625,-0.1992188 -0.714844,-0.3164063 -0.199218,-0.1054687 -0.351562,-0.234375 -0.457031,-0.3867187 -0.105469,-0.140625 -0.152344,-0.328125 -0.152344,-0.5742188 0,-0.3632812 0.140625,-0.6445312 0.433594,-0.84375 0.304688,-0.1875 0.691406,-0.2929687 1.171875,-0.2929687 0.257813,0 0.503906,0.035156 0.726563,0.082031 0.222656,0.046875 0.445312,0.1171875 0.644531,0.2109375 l -0.246094,0.5507813 c -0.175781,-0.070312 -0.375,-0.1289063 -0.5625,-0.1875 -0.199219,-0.046875 -0.398437,-0.082031 -0.609375,-0.082031 -0.292969,0 -0.515625,0.046875 -0.667969,0.1523438 -0.152343,0.09375 -0.222656,0.2109375 -0.222656,0.375 0,0.1171875 0.03516,0.2226562 0.105469,0.3046875 0.07031,0.070312 0.1875,0.1523437 0.339844,0.234375 0.164062,0.082031 0.386718,0.1640625 0.65625,0.2695312 0.28125,0.1054688 0.503906,0.2109375 0.703125,0.3164063 0.1875,0.1171875 0.339843,0.234375 0.433593,0.3867187 0.105469,0.1523438 0.152344,0.3515625 0.152344,0.5742188 z m 4.628906,-3.1054688 V -9.765625e-4 H 33.554016 L 33.448547,-0.56347656 h -0.03516 c -0.09375,0.140625 -0.210938,0.26953125 -0.351563,0.36328125 -0.140625,0.09375 -0.304687,0.1640625 -0.46875,0.2109375 -0.175781,0.046875 -0.351562,0.0703125 -0.539062,0.0703125 -0.339844,0 -0.632813,-0.046875 -0.867188,-0.1640625 -0.222656,-0.10546875 -0.398437,-0.28125 -0.515625,-0.515625 -0.117187,-0.22265625 -0.175781,-0.51562499 -0.175781,-0.87890629 v -2.8125 h 0.714844 v 2.765625 c 0,0.3398438 0.07031,0.59765629 0.234375,0.76171879 0.152343,0.17578125 0.386718,0.2578125 0.714843,0.2578125 0.316407,0 0.574219,-0.0585938 0.75,-0.17578125 0.1875,-0.1171875 0.316407,-0.29296875 0.398438,-0.52734374 0.08203,-0.234375 0.117187,-0.515625 0.117187,-0.8554688 v -2.2265625 z m 3.398438,-0.082031 c 0.527344,0 0.949219,0.1875 1.277344,0.5507812 0.316406,0.375 0.480468,0.9257813 0.480468,1.6640625 0,0.4921875 -0.07031,0.9023438 -0.222656,1.23046879 -0.140625,0.33984375 -0.351562,0.5859375 -0.609375,0.76171875 -0.269531,0.1640624975 -0.574219,0.24609375 -0.925781,0.24609375 -0.234375,0 -0.421875,-0.0234375 -0.585938,-0.09375 -0.175781,-0.046875 -0.328125,-0.12890625 -0.445312,-0.22265625 -0.117188,-0.09375 -0.222656,-0.19921875 -0.304688,-0.3046875 h -0.04687 c 0.01172,0.09375 0.01172,0.19921875 0.03516,0.33984375 0,0.140625 0.01172,0.2578125 0.01172,0.36328125 V 1.9208984 h -0.703125 v -6.2109375 h 0.574219 l 0.09375,0.5859375 h 0.03516 c 0.08203,-0.1171875 0.1875,-0.234375 0.304688,-0.3398437 0.117187,-0.09375 0.269531,-0.1757813 0.433594,-0.234375 0.164062,-0.058594 0.363281,-0.09375 0.597656,-0.09375 z m -0.128906,0.5976562 c -0.28125,0 -0.515625,0.046875 -0.691407,0.1640625 -0.175781,0.1171875 -0.304687,0.2695313 -0.386718,0.4921875 -0.08203,0.2226563 -0.128907,0.4921875 -0.128907,0.8320313 v 0.1289062 c 0,0.3515625 0.03516,0.65625 0.117188,0.9023438 0.07031,0.2460937 0.199219,0.43359374 0.375,0.56249999 0.175781,0.12890625 0.421875,0.1875 0.738281,0.1875 0.257813,0 0.46875,-0.0703125 0.632813,-0.2109375 0.175781,-0.15234375 0.304687,-0.33984379 0.375,-0.58593749 0.08203,-0.2578125 0.128906,-0.5390625 0.128906,-0.8554688 0,-0.4921875 -0.09375,-0.890625 -0.28125,-1.1835937 -0.199219,-0.28125 -0.480469,-0.4335938 -0.878906,-0.4335938 z m 5.024414,-0.5976562 c 0.527343,0 0.949218,0.1875 1.277343,0.5507812 0.316407,0.375 0.480469,0.9257813 0.480469,1.6640625 0,0.4921875 -0.07031,0.9023438 -0.222656,1.23046879 -0.140625,0.33984375 -0.351563,0.5859375 -0.609375,0.76171875 -0.269531,0.1640624975 -0.574219,0.24609375 -0.925781,0.24609375 -0.234375,0 -0.421875,-0.0234375 -0.585938,-0.09375 -0.175781,-0.046875 -0.328125,-0.12890625 -0.445312,-0.22265625 -0.117188,-0.09375 -0.222657,-0.19921875 -0.304688,-0.3046875 h -0.04687 c 0.01172,0.09375 0.01172,0.19921875 0.03516,0.33984375 0,0.140625 0.01172,0.2578125 0.01172,0.36328125 V 1.9208984 h -0.703125 v -6.2109375 h 0.574219 l 0.09375,0.5859375 h 0.03516 c 0.08203,-0.1171875 0.1875,-0.234375 0.304688,-0.3398437 0.117187,-0.09375 0.269531,-0.1757813 0.433593,-0.234375 0.164063,-0.058594 0.363282,-0.09375 0.597657,-0.09375 z m -0.128907,0.5976562 c -0.28125,0 -0.515625,0.046875 -0.691406,0.1640625 -0.175781,0.1171875 -0.304687,0.2695313 -0.386719,0.4921875 -0.08203,0.2226563 -0.128906,0.4921875 -0.128906,0.8320313 v 0.1289062 c 0,0.3515625 0.03516,0.65625 0.117188,0.9023438 0.07031,0.2460937 0.199218,0.43359374 0.375,0.56249999 0.175781,0.12890625 0.421875,0.1875 0.738281,0.1875 0.257812,0 0.46875,-0.0703125 0.632812,-0.2109375 0.175782,-0.15234375 0.304688,-0.33984379 0.375,-0.58593749 0.08203,-0.2578125 0.128907,-0.5390625 0.128907,-0.8554688 0,-0.4921875 -0.09375,-0.890625 -0.28125,-1.1835937 -0.199219,-0.28125 -0.480469,-0.4335938 -0.878907,-0.4335938 z m 5.015625,-0.5976562 c 0.08203,0 0.152344,0.011719 0.257813,0.011719 0.09375,0.011719 0.175781,0.023437 0.246094,0.035156 l -0.09375,0.65625 c -0.07031,-0.023437 -0.152344,-0.035156 -0.222657,-0.046875 -0.08203,-0.011719 -0.164062,-0.011719 -0.234375,-0.011719 -0.175781,0 -0.328125,0.035156 -0.480468,0.1054688 -0.152344,0.070312 -0.28125,0.1640625 -0.398438,0.2929687 -0.117187,0.1289063 -0.210937,0.2695313 -0.28125,0.4453125 -0.05859,0.1757813 -0.09375,0.375 -0.09375,0.5976563 V -9.765625e-4 H 45.304992 V -4.2900391 h 0.574219 l 0.08203,0.7851563 h 0.03516 c 0.08203,-0.1640625 0.199219,-0.3046875 0.328125,-0.4335938 0.128907,-0.1289062 0.269532,-0.234375 0.433594,-0.3164062 0.164063,-0.082031 0.351563,-0.1171875 0.550781,-0.1171875 z m 2.926758,0 c 0.375,0 0.679688,0.082031 0.949219,0.2460937 0.269531,0.1523438 0.46875,0.3867188 0.609375,0.6796875 0.140625,0.28125 0.210938,0.6328125 0.210938,1.0078125 v 0.4335938 H 49.0755 c 0,0.4804687 0.128906,0.8554687 0.363281,1.11328124 0.246094,0.24609375 0.574219,0.375 1.007813,0.375 0.269531,0 0.503906,-0.0234375 0.714844,-0.0820313 0.210937,-0.046875 0.433593,-0.1171875 0.65625,-0.22265625 v 0.62109375 c -0.222657,0.09375 -0.445313,0.1640625 -0.644532,0.2109375 -0.222656,0.046875 -0.480468,0.0703125 -0.761718,0.0703125 -0.410157,0 -0.773438,-0.0820312525 -1.078125,-0.24609375 -0.316407,-0.1640625 -0.5625,-0.41015625 -0.738282,-0.73828125 -0.175781,-0.32812494 -0.246093,-0.72656244 -0.246093,-1.20703124 0,-0.46875 0.07031,-0.8789062 0.222656,-1.2070312 0.164062,-0.3398438 0.375,-0.5976563 0.667969,-0.7851563 0.292968,-0.1757812 0.621093,-0.2695312 0.996093,-0.2695312 z m 0,0.5742187 c -0.339843,0 -0.609375,0.1171875 -0.808593,0.328125 -0.1875,0.2226563 -0.304688,0.515625 -0.339844,0.9023438 h 2.191406 c 0,-0.2460938 -0.04687,-0.4570313 -0.117187,-0.6445313 -0.08203,-0.1757812 -0.1875,-0.3164062 -0.339844,-0.421875 -0.152344,-0.1054687 -0.351563,-0.1640625 -0.585938,-0.1640625 z m 5.648438,2.6132813 c 0,0.28124999 -0.07031,0.51562499 -0.199219,0.69140624 -0.152344,0.19921875 -0.339844,0.328125 -0.597656,0.43359375 -0.257813,0.09375 -0.5625,0.140625 -0.914063,0.140625 -0.304687,0 -0.5625,-0.0234375 -0.773437,-0.0703125 -0.210938,-0.046875 -0.410156,-0.1171875 -0.5625,-0.19921875 v -0.64453125 c 0.164062,0.0820313 0.375,0.1640625 0.609375,0.234375 0.246094,0.0820313 0.492187,0.10546875 0.75,0.10546875 0.351562,0 0.609375,-0.046875 0.773437,-0.1640625 0.164063,-0.1171875 0.234375,-0.26953125 0.234375,-0.46875004 0,-0.09375 -0.02344,-0.1992187 -0.08203,-0.28125 -0.07031,-0.082031 -0.164062,-0.1757812 -0.316406,-0.2578125 -0.152344,-0.082031 -0.375,-0.1757812 -0.65625,-0.2929687 -0.28125,-0.1054688 -0.515625,-0.1992188 -0.714844,-0.3164063 -0.199219,-0.1054687 -0.351562,-0.234375 -0.457031,-0.3867187 -0.105469,-0.140625 -0.152344,-0.328125 -0.152344,-0.5742188 0,-0.3632812 0.140625,-0.6445312 0.433594,-0.84375 0.304687,-0.1875 0.691406,-0.2929687 1.171875,-0.2929687 0.257812,0 0.503906,0.035156 0.726562,0.082031 0.222657,0.046875 0.445313,0.1171875 0.644532,0.2109375 l -0.246094,0.5507813 c -0.175781,-0.070312 -0.375,-0.1289063 -0.5625,-0.1875 -0.199219,-0.046875 -0.398438,-0.082031 -0.609375,-0.082031 -0.292969,0 -0.515625,0.046875 -0.667969,0.1523438 -0.152344,0.09375 -0.222656,0.2109375 -0.222656,0.375 0,0.1171875 0.03516,0.2226562 0.105469,0.3046875 0.07031,0.070312 0.1875,0.1523437 0.339843,0.234375 0.164063,0.082031 0.386719,0.1640625 0.65625,0.2695312 0.28125,0.1054688 0.503907,0.2109375 0.703125,0.3164063 0.1875,0.1171875 0.339844,0.234375 0.433594,0.3867187 0.105469,0.1523438 0.152344,0.3515625 0.152344,0.5742188 z m 3.832031,0 c 0,0.28124999 -0.07031,0.51562499 -0.199219,0.69140624 -0.152343,0.19921875 -0.339843,0.328125 -0.597656,0.43359375 -0.257812,0.09375 -0.5625,0.140625 -0.914062,0.140625 -0.304688,0 -0.5625,-0.0234375 -0.773438,-0.0703125 -0.210937,-0.046875 -0.410156,-0.1171875 -0.5625,-0.19921875 v -0.64453125 c 0.164063,0.0820313 0.375,0.1640625 0.609375,0.234375 0.246094,0.0820313 0.492188,0.10546875 0.75,0.10546875 0.351563,0 0.609375,-0.046875 0.773438,-0.1640625 0.164062,-0.1171875 0.234375,-0.26953125 0.234375,-0.46875004 0,-0.09375 -0.02344,-0.1992187 -0.08203,-0.28125 -0.07031,-0.082031 -0.164062,-0.1757812 -0.316406,-0.2578125 -0.152344,-0.082031 -0.375,-0.1757812 -0.65625,-0.2929687 -0.28125,-0.1054688 -0.515625,-0.1992188 -0.714844,-0.3164063 -0.199218,-0.1054687 -0.351562,-0.234375 -0.457031,-0.3867187 -0.105469,-0.140625 -0.152344,-0.328125 -0.152344,-0.5742188 0,-0.3632812 0.140625,-0.6445312 0.433594,-0.84375 0.304688,-0.1875 0.691406,-0.2929687 1.171875,-0.2929687 0.257813,0 0.503906,0.035156 0.726563,0.082031 0.222656,0.046875 0.445312,0.1171875 0.644531,0.2109375 L 59.388,-3.5283203 c -0.175781,-0.070312 -0.375,-0.1289063 -0.5625,-0.1875 -0.199219,-0.046875 -0.398437,-0.082031 -0.609375,-0.082031 -0.292969,0 -0.515625,0.046875 -0.667969,0.1523438 -0.152343,0.09375 -0.222656,0.2109375 -0.222656,0.375 0,0.1171875 0.03516,0.2226562 0.105469,0.3046875 0.07031,0.070312 0.1875,0.1523437 0.339844,0.234375 0.164062,0.082031 0.386718,0.1640625 0.65625,0.2695312 0.28125,0.1054688 0.503906,0.2109375 0.703125,0.3164063 0.1875,0.1171875 0.339843,0.234375 0.433593,0.3867187 0.105469,0.1523438 0.152344,0.3515625 0.152344,0.5742187 z m 2.695313,-3.1875 c 0.375,0 0.679687,0.082031 0.949218,0.2460937 0.269532,0.1523438 0.46875,0.3867188 0.609375,0.6796875 0.140625,0.28125 0.210938,0.6328125 0.210938,1.0078125 v 0.4335938 h -2.929688 c 0,0.4804687 0.128907,0.8554687 0.363282,1.11328124 0.246093,0.24609375 0.574218,0.375 1.007812,0.375 0.269531,0 0.503906,-0.0234375 0.714844,-0.0820313 0.210937,-0.046875 0.433594,-0.1171875 0.65625,-0.22265625 v 0.62109375 c -0.222656,0.09375 -0.445313,0.1640625 -0.644531,0.2109375 -0.222657,0.046875 -0.480469,0.0703125 -0.761719,0.0703125 -0.410156,0 -0.773438,-0.0820312525 -1.078125,-0.24609375 -0.316406,-0.1640625 -0.5625,-0.41015625 -0.738281,-0.73828125 -0.175782,-0.32812494 -0.246094,-0.72656244 -0.246094,-1.20703124 0,-0.46875 0.07031,-0.8789062 0.222656,-1.2070312 0.164063,-0.3398438 0.375,-0.5976563 0.667969,-0.7851563 0.292969,-0.1757812 0.621094,-0.2695312 0.996094,-0.2695312 z m 0,0.5742187 c -0.339844,0 -0.609375,0.1171875 -0.808594,0.328125 -0.1875,0.2226563 -0.304688,0.515625 -0.339844,0.9023438 h 2.191406 c 0,-0.2460938 -0.04687,-0.4570313 -0.117187,-0.6445313 -0.08203,-0.1757812 -0.1875,-0.3164062 -0.339844,-0.421875 -0.152344,-0.1054687 -0.351562,-0.1640625 -0.585937,-0.1640625 z m 4.350585,3.87890629 c -0.539062,0 -0.960937,-0.1875 -1.277343,-0.55078125 -0.328125,-0.375 -0.480469,-0.93750004 -0.480469,-1.66406254 0,-0.7382812 0.152344,-1.2890625 0.480469,-1.6640625 0.316406,-0.3867187 0.75,-0.5742187 1.289062,-0.5742187 0.222656,0 0.410156,0.035156 0.574219,0.09375 0.164062,0.046875 0.304687,0.1289062 0.433594,0.2226562 0.117187,0.09375 0.222656,0.1992188 0.316406,0.3164063 h 0.04687 c -0.01172,-0.058594 -0.01172,-0.1640625 -0.03516,-0.3046875 -0.01172,-0.140625 -0.01172,-0.2460938 -0.01172,-0.328125 v -1.7109375 h 0.703125 V -9.765625e-4 H 68.226867 L 68.133117,-0.57519531 h -0.03516 c -0.09375,0.12890625 -0.199219,0.234375 -0.316406,0.33984375 -0.128907,0.09375 -0.269532,0.17578125 -0.433594,0.22265625 -0.175781,0.0703125 -0.363281,0.09375 -0.585938,0.09375 z m 0.105469,-0.5859375 c 0.457031,0 0.773438,-0.1171875 0.960938,-0.36328125 0.175781,-0.25781254 0.28125,-0.63281254 0.28125,-1.13671874 v -0.1289063 c 0,-0.5273437 -0.09375,-0.9375 -0.269532,-1.21875 -0.175781,-0.2929687 -0.503906,-0.4335937 -0.972656,-0.4335937 -0.386719,0 -0.667969,0.1523437 -0.855469,0.4570312 -0.199218,0.3046875 -0.28125,0.703125 -0.28125,1.2070313 0,0.515625 0.08203,0.9140625 0.28125,1.19531249 0.1875,0.28125 0.480469,0.421875 0.855469,0.421875 z m 6.878906,0.5859375 c -0.539062,0 -0.960937,-0.1875 -1.277343,-0.55078125 -0.328125,-0.375 -0.480469,-0.93750004 -0.480469,-1.66406254 0,-0.7382812 0.152344,-1.2890625 0.480469,-1.6640625 0.316406,-0.3867187 0.75,-0.5742187 1.289062,-0.5742187 0.222656,0 0.410156,0.035156 0.574219,0.09375 0.164062,0.046875 0.304687,0.1289062 0.433594,0.2226562 0.117187,0.09375 0.222656,0.1992188 0.316406,0.3164063 h 0.04687 c -0.01172,-0.058594 -0.01172,-0.1640625 -0.03516,-0.3046875 -0.01172,-0.140625 -0.01172,-0.2460938 -0.01172,-0.328125 v -1.7109375 h 0.703125 V -9.765625e-4 H 75.211242 L 75.117492,-0.57519531 h -0.03516 c -0.09375,0.12890625 -0.199219,0.234375 -0.316406,0.33984375 -0.128907,0.09375 -0.269532,0.17578125 -0.433594,0.22265625 -0.175781,0.0703125 -0.363281,0.09375 -0.585938,0.09375 z m 0.105469,-0.5859375 c 0.457031,0 0.773438,-0.1171875 0.960938,-0.36328125 0.175781,-0.25781254 0.28125,-0.63281254 0.28125,-1.13671874 v -0.1289063 c 0,-0.5273437 -0.09375,-0.9375 -0.269532,-1.21875 -0.175781,-0.2929687 -0.503906,-0.4335937 -0.972656,-0.4335937 -0.386719,0 -0.667969,0.1523437 -0.855469,0.4570312 -0.199218,0.3046875 -0.28125,0.703125 -0.28125,1.2070313 0,0.515625 0.08203,0.9140625 0.28125,1.19531249 0.1875,0.28125 0.480469,0.421875 0.855469,0.421875 z M 80.730773,-4.2900391 V -9.765625e-4 H 80.156555 L 80.051086,-0.56347656 h -0.03516 c -0.09375,0.140625 -0.210938,0.26953125 -0.351563,0.36328125 -0.140625,0.09375 -0.304687,0.1640625 -0.46875,0.2109375 -0.175781,0.046875 -0.351562,0.0703125 -0.539062,0.0703125 -0.339844,0 -0.632813,-0.046875 -0.867188,-0.1640625 -0.222656,-0.10546875 -0.398437,-0.28125 -0.515625,-0.515625 -0.117187,-0.22265625 -0.175781,-0.51562499 -0.175781,-0.87890629 v -2.8125 h 0.714844 v 2.765625 c 0,0.3398438 0.07031,0.59765629 0.234375,0.76171879 0.152343,0.17578125 0.386718,0.2578125 0.714843,0.2578125 0.316407,0 0.574219,-0.0585938 0.75,-0.17578125 0.1875,-0.1171875 0.316407,-0.29296875 0.398438,-0.52734374 0.08203,-0.234375 0.117187,-0.515625 0.117187,-0.8554688 v -2.2265625 z m 3.360352,-0.082031 c 0.08203,0 0.152344,0.011719 0.257813,0.011719 0.09375,0.011719 0.175781,0.023437 0.246093,0.035156 l -0.09375,0.65625 c -0.07031,-0.023437 -0.152343,-0.035156 -0.222656,-0.046875 -0.08203,-0.011719 -0.164062,-0.011719 -0.234375,-0.011719 -0.175781,0 -0.328125,0.035156 -0.480469,0.1054688 -0.152343,0.070312 -0.28125,0.1640625 -0.398437,0.2929687 -0.117188,0.1289063 -0.210938,0.2695313 -0.28125,0.4453125 -0.05859,0.1757813 -0.09375,0.375 -0.09375,0.5976563 V -9.765625e-4 H 82.087219 V -4.2900391 h 0.574219 l 0.08203,0.7851563 h 0.03516 c 0.08203,-0.1640625 0.199219,-0.3046875 0.328125,-0.4335938 0.128906,-0.1289062 0.269531,-0.234375 0.433594,-0.3164062 0.164062,-0.082031 0.351562,-0.1171875 0.550781,-0.1171875 z m 1.980469,0.082031 V -9.765625e-4 H 85.368469 V -4.2900391 Z M 85.73175,-5.8955078 c 0.105469,0 0.199219,0.035156 0.28125,0.1054687 0.08203,0.070312 0.128906,0.1875 0.128906,0.3398438 0,0.1523437 -0.04687,0.2578125 -0.128906,0.3398437 -0.08203,0.070312 -0.175781,0.1054688 -0.28125,0.1054688 -0.117187,0 -0.222656,-0.035156 -0.292969,-0.1054688 -0.08203,-0.082031 -0.128906,-0.1875 -0.128906,-0.3398437 0,-0.1523438 0.04687,-0.2695313 0.128906,-0.3398438 0.07031,-0.070312 0.175782,-0.1054687 0.292969,-0.1054687 z m 3.761719,1.5234375 c 0.515625,0 0.902344,0.1289062 1.160156,0.375 0.257813,0.2460937 0.398438,0.65625 0.398438,1.2070312 V -9.765625e-4 H 90.348938 V -2.7431641 c 0,-0.3515625 -0.07031,-0.5976562 -0.222657,-0.7851562 -0.164062,-0.1640625 -0.410156,-0.2460938 -0.738281,-0.2460938 -0.480469,0 -0.808594,0.1289063 -0.984375,0.3984375 -0.175781,0.2695313 -0.269531,0.65625 -0.269531,1.1484375 V -9.765625e-4 H 87.430969 V -4.2900391 h 0.574219 l 0.09375,0.5859375 h 0.04687 c 0.09375,-0.1523437 0.210937,-0.2695312 0.351562,-0.375 0.140625,-0.09375 0.292969,-0.1757812 0.46875,-0.2226562 0.175781,-0.046875 0.351563,-0.070312 0.527344,-0.070312 z m 4.40625,0 c 0.28125,0 0.539062,0.058594 0.761719,0.1640625 0.222656,0.1054687 0.421875,0.2695312 0.585937,0.4804687 h 0.03516 l 0.09375,-0.5625 h 0.5625 v 4.35937504 c 0,0.41015625 -0.07031,0.75 -0.210937,1.03124996 -0.140625,0.2695313 -0.351563,0.4804688 -0.632813,0.609375 -0.28125,0.140625 -0.644531,0.2109375 -1.078125,0.2109375 -0.316406,0 -0.597656,-0.011719 -0.855468,-0.070312 C 92.903625,1.8037109 92.66925,1.7451172 92.470031,1.6513672 V 0.99511719 c 0.199219,0.11718751 0.445313,0.19921871 0.714844,0.25781251 0.269531,0.058594 0.5625,0.082031 0.867188,0.082031 0.375,0 0.65625,-0.1054687 0.867187,-0.3164062 0.210938,-0.22265626 0.328125,-0.51562501 0.328125,-0.89062501 v -0.1640625 c 0,-0.0703125 0,-0.15234375 0,-0.28125 0,-0.1171875 0.01172,-0.19921875 0.02344,-0.24609375 h -0.03516 c -0.152343,0.22265625 -0.339843,0.375 -0.5625,0.48046875 -0.222656,0.1171875 -0.480468,0.1640625 -0.761718,0.1640625 -0.5625,0 -0.996094,-0.19921875 -1.3125,-0.5859375 -0.304688,-0.38671875 -0.457032,-0.92578129 -0.457032,-1.62890629 0,-0.6796875 0.152344,-1.2304687 0.457032,-1.6289062 0.316406,-0.3984375 0.75,-0.609375 1.300781,-0.609375 z m 0.09375,0.5976562 c -0.234375,0 -0.445313,0.058594 -0.621094,0.1875 -0.164062,0.1289063 -0.292969,0.3164063 -0.375,0.5625 -0.09375,0.2460938 -0.128906,0.5390625 -0.128906,0.890625 0,0.5273438 0.09375,0.9375 0.28125,1.21875004 0.199219,0.28125 0.480469,0.421875 0.855469,0.421875 0.222656,0 0.410156,-0.0234375 0.5625,-0.0820313 0.152343,-0.0585938 0.28125,-0.140625 0.386718,-0.26953125 0.09375,-0.1171875 0.175782,-0.26953119 0.222657,-0.45703119 0.04687,-0.1875 0.07031,-0.4101563 0.07031,-0.6679689 v -0.1640625 c 0,-0.3867187 -0.04687,-0.703125 -0.128906,-0.9492187 -0.09375,-0.234375 -0.222656,-0.4101563 -0.410156,-0.5273438 -0.199219,-0.1171875 -0.421875,-0.1640625 -0.714844,-0.1640625 z m 6.788081,3.28125004 c 0.10547,0 0.22266,-0.0117188 0.32813,-0.0234375 0.11719,-0.0234375 0.19922,-0.046875 0.28125,-0.0703125 v 0.5390625 c -0.082,0.03515625 -0.1875,0.0703125 -0.32813,0.09375 -0.14062,0.0234375 -0.26953,0.03515625 -0.39843,0.03515625 -0.22266,0 -0.4336,-0.03515625 -0.6211,-0.1171875 -0.199215,-0.08203125 -0.351559,-0.2109375 -0.457028,-0.41015625 -0.117187,-0.1875 -0.175781,-0.4453125 -0.175781,-0.80859374 v -2.4960938 h -0.609375 v -0.328125 l 0.621094,-0.28125 0.269531,-0.9140625 h 0.421879 v 0.984375 h 1.24218 v 0.5390625 h -1.24218 v 2.484375 c 0,0.26953129 0.0586,0.45703129 0.1875,0.58593754 0.1289,0.12890625 0.28125,0.1875 0.48046,0.1875 z m 2.16211,-3.80859374 c 0,0.1054687 -0.0117,0.2109375 -0.0117,0.3164062 -0.0117,0.1054688 -0.0234,0.2109375 -0.0234,0.28125 h 0.0469 c 0.082,-0.140625 0.19922,-0.2695312 0.33985,-0.3632812 0.14062,-0.09375 0.29297,-0.1640625 0.46875,-0.2109375 0.16406,-0.058594 0.33984,-0.082031 0.52734,-0.082031 0.33984,0 0.63281,0.058594 0.86719,0.1640625 0.22265,0.1171875 0.39844,0.28125 0.52734,0.5039063 0.10547,0.234375 0.17578,0.5273437 0.17578,0.9023437 v 2.7890625375 h -0.70312 V -2.7431641 c 0,-0.3515625 -0.0703,-0.5976562 -0.22266,-0.7851562 -0.16406,-0.1640625 -0.41015,-0.2460938 -0.73828,-0.2460938 -0.31641,0 -0.57422,0.058594 -0.75,0.1757813 -0.1875,0.1289062 -0.30469,0.3046875 -0.38672,0.5273437 -0.082,0.234375 -0.11719,0.515625 -0.11719,0.8554688 v 2.2148437375 h -0.70312 V -6.0830078 h 0.70312 z m 4.94239,0.011719 v 4.2890625375 h -0.70313 V -4.2900391 Z m -0.33985,-1.6054687 c 0.10547,0 0.19922,0.035156 0.28125,0.1054687 0.082,0.070312 0.12891,0.1875 0.12891,0.3398438 0,0.1523437 -0.0469,0.2578125 -0.12891,0.3398437 -0.082,0.070312 -0.17578,0.1054688 -0.28125,0.1054688 -0.11718,0 -0.22265,-0.035156 -0.29297,-0.1054688 -0.082,-0.082031 -0.1289,-0.1875 -0.1289,-0.3398437 0,-0.1523438 0.0469,-0.2695313 0.1289,-0.3398438 0.0703,-0.070312 0.17579,-0.1054687 0.29297,-0.1054687 z m 4.46778,4.7109375 c 0,0.28124999 -0.0703,0.51562499 -0.19922,0.69140624 -0.15235,0.19921875 -0.33985,0.328125 -0.59766,0.43359375 -0.25781,0.09375 -0.5625,0.140625 -0.91406,0.140625 -0.30469,0 -0.5625,-0.0234375 -0.77344,-0.0703125 -0.21094,-0.046875 -0.41015,-0.1171875 -0.5625,-0.19921875 v -0.64453125 c 0.16406,0.0820313 0.375,0.1640625 0.60938,0.234375 0.24609,0.0820313 0.49218,0.10546875 0.75,0.10546875 0.35156,0 0.60937,-0.046875 0.77343,-0.1640625 0.16407,-0.1171875 0.23438,-0.26953125 0.23438,-0.46875004 0,-0.09375 -0.0234,-0.1992187 -0.082,-0.28125 -0.0703,-0.082031 -0.16406,-0.1757812 -0.31641,-0.2578125 -0.15234,-0.082031 -0.375,-0.1757812 -0.65625,-0.2929687 -0.28125,-0.1054688 -0.51562,-0.1992188 -0.71484,-0.3164063 -0.19922,-0.1054687 -0.35156,-0.234375 -0.45703,-0.3867187 -0.10547,-0.140625 -0.15235,-0.328125 -0.15235,-0.5742188 0,-0.3632812 0.14063,-0.6445312 0.4336,-0.84375 0.30468,-0.1875 0.6914,-0.2929687 1.17187,-0.2929687 0.25781,0 0.50391,0.035156 0.72656,0.082031 0.22266,0.046875 0.44532,0.1171875 0.64454,0.2109375 l -0.2461,0.5507813 c -0.17578,-0.070312 -0.375,-0.1289063 -0.5625,-0.1875 -0.19922,-0.046875 -0.39844,-0.082031 -0.60937,-0.082031 -0.29297,0 -0.51563,0.046875 -0.66797,0.1523438 -0.15235,0.09375 -0.22266,0.2109375 -0.22266,0.375 0,0.1171875 0.0352,0.2226562 0.10547,0.3046875 0.0703,0.070312 0.1875,0.1523437 0.33984,0.234375 0.16407,0.082031 0.38672,0.1640625 0.65625,0.2695312 0.28125,0.1054688 0.50391,0.2109375 0.70313,0.3164063 0.1875,0.1171875 0.33984,0.234375 0.43359,0.3867187 0.10547,0.1523438 0.15235,0.3515625 0.15235,0.5742188 z m 4.8457,1.26562499 c -0.38672,0 -0.72656,-0.0703125 -1.01953,-0.234375 -0.29297,-0.15234375 -0.52735,-0.38671875 -0.69141,-0.71484375 -0.17578,-0.32812504 -0.24609,-0.73828124 -0.24609,-1.25390624 0,-0.5273438 0.082,-0.9492188 0.25781,-1.2890625 0.17578,-0.328125 0.41016,-0.5625 0.71484,-0.7265625 0.30469,-0.1523438 0.64454,-0.234375 1.03125,-0.234375 0.21094,0 0.42188,0.023437 0.63282,0.070312 0.19922,0.046875 0.36328,0.09375 0.49218,0.1640625 l -0.21093,0.5859375 c -0.12891,-0.046875 -0.28125,-0.09375 -0.44532,-0.140625 -0.17578,-0.035156 -0.33984,-0.058594 -0.48046,-0.058594 -0.29297,0 -0.52735,0.058594 -0.71485,0.1757813 -0.19922,0.1289062 -0.32812,0.3046875 -0.42187,0.5507812 -0.0937,0.234375 -0.12891,0.5390625 -0.12891,0.890625 0,0.3515625 0.0352,0.6328125 0.12891,0.8789063 0.0937,0.234375 0.22265,0.42187499 0.41015,0.53906249 0.17578,0.12890625 0.41016,0.1875 0.67969,0.1875 0.23438,0 0.44531,-0.0234375 0.62109,-0.0703125 0.17579,-0.046875 0.33985,-0.10546875 0.49219,-0.17578125 v 0.62109375 c -0.14062,0.08203125 -0.30469,0.140625 -0.48047,0.17578125 -0.17578,0.03515625 -0.38672,0.05859375 -0.62109,0.05859445 z m 3.74414,-4.44140629 c 0.51563,0 0.90234,0.1171875 1.16016,0.3398438 0.24609,0.234375 0.375,0.5976562 0.375,1.1015625 v 2.9179687375 h -0.51563 l -0.1289,-0.6093749975 h -0.0352 c -0.12891,0.1640625 -0.25781,0.29296875 -0.38672,0.3984375 -0.12891,0.09375 -0.28125,0.17578125 -0.44531,0.22265625 -0.17578,0.046875 -0.375,0.0703125 -0.60938,0.0703125 -0.25781,0 -0.49218,-0.046875 -0.70312,-0.140625 -0.19922,-0.08203125 -0.36328,-0.22265625 -0.48047,-0.41015625 -0.11719,-0.19921875 -0.17578,-0.43359375 -0.17578,-0.72656254 0,-0.421875 0.17578,-0.75 0.5039,-0.984375 0.33985,-0.234375 0.85547,-0.3632812 1.5586,-0.3867187 l 0.72656,-0.023437 v -0.2460938 c 0,-0.3632812 -0.082,-0.609375 -0.23437,-0.75 -0.15235,-0.140625 -0.375,-0.2109375 -0.65625,-0.2109375 -0.22266,0 -0.4336,0.046875 -0.63282,0.1054688 -0.21093,0.070312 -0.39843,0.140625 -0.57422,0.2226562 l -0.21093,-0.5273437 c 0.17578,-0.09375 0.41015,-0.1875 0.65625,-0.2578125 0.25781,-0.070312 0.52734,-0.1054688 0.80859,-0.1054688 z m 0.19922,2.2851563 c -0.52734,0.023437 -0.90234,0.1171875 -1.10156,0.2578125 -0.21094,0.1523437 -0.30469,0.3632812 -0.30469,0.6328125 0,0.23437499 0.0703,0.41015624 0.21094,0.52734374 0.14062,0.1171875 0.33984,0.1640625 0.57422,0.1640625 0.35156,0 0.65625,-0.09375 0.90234,-0.29296875 0.23437,-0.19921875 0.35156,-0.51562499 0.35156,-0.92578129 v -0.3867187 z m 3.36328,2.0742187375 H 123.4632 V -6.0830078 h 0.70312 z m 3.08496,0.0820312525 c -0.38672,0 -0.72656,-0.0703125 -1.01953,-0.234375 -0.29297,-0.15234375 -0.52734,-0.38671875 -0.69141,-0.71484375 -0.17578,-0.32812504 -0.24609,-0.73828124 -0.24609,-1.25390624 0,-0.5273438 0.082,-0.9492188 0.25781,-1.2890625 0.17578,-0.328125 0.41016,-0.5625 0.71485,-0.7265625 0.30468,-0.1523438 0.64453,-0.234375 1.03125,-0.234375 0.21093,0 0.42187,0.023437 0.63281,0.070312 0.19922,0.046875 0.36328,0.09375 0.49219,0.1640625 l -0.21094,0.5859375 c -0.12891,-0.046875 -0.28125,-0.09375 -0.44531,-0.140625 -0.17578,-0.035156 -0.33985,-0.058594 -0.48047,-0.058594 -0.29297,0 -0.52735,0.058594 -0.71485,0.1757813 -0.19921,0.1289062 -0.32812,0.3046875 -0.42187,0.5507812 -0.0937,0.234375 -0.12891,0.5390625 -0.12891,0.890625 0,0.3515625 0.0352,0.6328125 0.12891,0.8789063 0.0937,0.234375 0.22266,0.42187499 0.41016,0.53906249 0.17578,0.12890625 0.41015,0.1875 0.67968,0.1875 0.23438,0 0.44532,-0.0234375 0.6211,-0.0703125 0.17578,-0.046875 0.33984,-0.10546875 0.49218,-0.17578125 v 0.62109375 c -0.14062,0.08203125 -0.30468,0.140625 -0.48046,0.17578125 -0.17579,0.03515625 -0.38672,0.05859375 -0.6211,0.05859445 z m 5.66895,-4.37109379 v 4.2890625375 h -0.57422 L 132.24054,-0.56347656 h -0.0352 c -0.0937,0.140625 -0.21093,0.26953125 -0.35156,0.36328125 -0.14062,0.09375 -0.30469,0.1640625 -0.46875,0.2109375 -0.17578,0.046875 -0.35156,0.0703125 -0.53906,0.0703125 -0.33985,0 -0.63281,-0.046875 -0.86719,-0.1640625 -0.22266,-0.10546875 -0.39844,-0.28125 -0.51562,-0.515625 -0.11719,-0.22265625 -0.17579,-0.51562499 -0.17579,-0.87890629 v -2.8125 h 0.71485 v 2.765625 c 0,0.3398438 0.0703,0.59765629 0.23437,0.76171879 0.15235,0.17578125 0.38672,0.2578125 0.71485,0.2578125 0.3164,0 0.57422,-0.0585938 0.75,-0.17578125 0.1875,-0.1171875 0.3164,-0.29296875 0.39843,-0.52734374 0.082,-0.234375 0.11719,-0.515625 0.11719,-0.8554688 v -2.2265625 z m 2.0625,4.2890625375 H 134.2796 V -6.0830078 h 0.70313 z M 137.97394,-4.3603516 c 0.51562,0 0.90234,0.1171875 1.16015,0.3398438 0.2461,0.234375 0.375,0.5976562 0.375,1.1015625 v 2.9179687375 h -0.51562 L 138.86456,-0.61035156 h -0.0352 c -0.12891,0.1640625 -0.25782,0.29296875 -0.38672,0.3984375 -0.12891,0.09375 -0.28125,0.17578125 -0.44531,0.22265625 -0.17579,0.046875 -0.375,0.0703125 -0.60938,0.0703125 -0.25781,0 -0.49219,-0.046875 -0.70312,-0.140625 -0.19922,-0.08203125 -0.36329,-0.22265625 -0.48047,-0.41015625 -0.11719,-0.19921875 -0.17578,-0.43359375 -0.17578,-0.72656254 0,-0.421875 0.17578,-0.75 0.5039,-0.984375 0.33985,-0.234375 0.85547,-0.3632812 1.5586,-0.3867187 l 0.72656,-0.023437 v -0.2460938 c 0,-0.3632812 -0.082,-0.609375 -0.23438,-0.75 -0.15234,-0.140625 -0.375,-0.2109375 -0.65625,-0.2109375 -0.22265,0 -0.43359,0.046875 -0.63281,0.1054688 -0.21094,0.070312 -0.39844,0.140625 -0.57422,0.2226562 l -0.21094,-0.5273437 c 0.17579,-0.09375 0.41016,-0.1875 0.65625,-0.2578125 0.25782,-0.070312 0.52735,-0.1054688 0.8086,-0.1054688 z m 0.19922,2.2851563 c -0.52735,0.023437 -0.90235,0.1171875 -1.10157,0.2578125 -0.21093,0.1523437 -0.30468,0.3632812 -0.30468,0.6328125 0,0.23437499 0.0703,0.41015624 0.21093,0.52734374 0.14063,0.1171875 0.33985,0.1640625 0.57422,0.1640625 0.35157,0 0.65625,-0.09375 0.90235,-0.29296875 0.23437,-0.19921875 0.35156,-0.51562499 0.35156,-0.92578129 v -0.3867187 z m 4.08691,1.58203124 c 0.10547,0 0.22266,-0.0117188 0.32813,-0.0234375 0.11718,-0.0234375 0.19921,-0.046875 0.28125,-0.0703125 v 0.5390625 c -0.082,0.03515625 -0.1875,0.0703125 -0.32813,0.09375 -0.14062,0.0234375 -0.26953,0.03515625 -0.39844,0.03515625 -0.22265,0 -0.43359,-0.03515625 -0.62109,-0.1171875 -0.19922,-0.08203125 -0.35156,-0.2109375 -0.45703,-0.41015625 -0.11719,-0.1875 -0.17578,-0.4453125 -0.17578,-0.80859374 v -2.4960938 h -0.60938 v -0.328125 l 0.6211,-0.28125 0.26953,-0.9140625 h 0.42187 v 0.984375 h 1.24219 v 0.5390625 h -1.24219 v 2.484375 c 0,0.26953129 0.0586,0.45703129 0.1875,0.58593754 0.12891,0.12890625 0.28125,0.1875 0.48047,0.1875 z m 2.13867,-3.79687504 v 4.2890625375 h -0.70312 V -4.2900391 Z m -0.33984,-1.6054687 c 0.10547,0 0.19922,0.035156 0.28125,0.1054687 0.082,0.070312 0.1289,0.1875 0.1289,0.3398438 0,0.1523437 -0.0469,0.2578125 -0.1289,0.3398437 -0.082,0.070312 -0.17578,0.1054688 -0.28125,0.1054688 -0.11719,0 -0.22266,-0.035156 -0.29297,-0.1054688 -0.082,-0.082031 -0.12891,-0.1875 -0.12891,-0.3398437 0,-0.1523438 0.0469,-0.2695313 0.12891,-0.3398438 0.0703,-0.070312 0.17578,-0.1054687 0.29297,-0.1054687 z m 5.42871,3.7382812 c 0,0.3632813 -0.0469,0.6796875 -0.14063,0.9609375 -0.0937,0.26953129 -0.22265,0.50390629 -0.39843,0.69140629 -0.17578,0.1875 -0.38672,0.33984375 -0.63282,0.4453125 -0.24609,0.09375 -0.51562,0.140625 -0.82031,0.140625 -0.29297,0 -0.55078,-0.046875 -0.78515,-0.140625 -0.2461,-0.10546875 -0.45704,-0.2578125 -0.63282,-0.4453125 -0.17578,-0.1875 -0.3164,-0.421875 -0.41015,-0.69140629 -0.0937,-0.28125 -0.14063,-0.5976562 -0.14063,-0.9609375 0,-0.46875 0.0703,-0.8671875 0.23438,-1.1953125 0.16406,-0.328125 0.38672,-0.5742187 0.6914,-0.75 0.29297,-0.1757812 0.64453,-0.2695312 1.06641,-0.2695312 0.375,0 0.72656,0.09375 1.01953,0.2695312 0.29297,0.1757813 0.52734,0.421875 0.69141,0.75 0.17578,0.328125 0.25781,0.7265625 0.25781,1.1953125 z m -3.23438,0 c 0,0.3398438 0.0352,0.6328125 0.12891,0.8789063 0.082,0.2578125 0.22266,0.44531249 0.41016,0.57421874 0.1875,0.140625 0.42187,0.19921875 0.71484,0.19921875 0.29297,0 0.51563,-0.0585938 0.71484,-0.19921875 0.17579,-0.12890625 0.31641,-0.31640624 0.41016,-0.57421874 0.082,-0.2460938 0.12891,-0.5390625 0.12891,-0.8789063 0,-0.328125 -0.0469,-0.6328125 -0.12891,-0.8671875 -0.10547,-0.2460937 -0.23437,-0.421875 -0.42187,-0.5507812 -0.1875,-0.1289063 -0.42188,-0.1992188 -0.71485,-0.1992188 -0.43359,0 -0.76172,0.140625 -0.94922,0.4335938 -0.19922,0.28125 -0.29297,0.6796875 -0.29297,1.1835937 z m 6.41016,-2.2148437 c 0.51563,0 0.90234,0.1289062 1.16016,0.375 0.25781,0.2460937 0.39843,0.65625 0.39843,1.2070312 v 2.7890625375 h -0.70312 V -2.7431641 c 0,-0.3515625 -0.0703,-0.5976562 -0.22266,-0.7851562 -0.16406,-0.1640625 -0.41015,-0.2460938 -0.73828,-0.2460938 -0.48047,0 -0.80859,0.1289063 -0.98437,0.3984375 -0.17578,0.2695313 -0.26953,0.65625 -0.26953,1.1484375 v 2.2265625375 h -0.70313 V -4.2900391 h 0.57422 l 0.0937,0.5859375 h 0.0469 c 0.0937,-0.1523437 0.21094,-0.2695312 0.35157,-0.375 0.14062,-0.09375 0.29297,-0.1757812 0.46875,-0.2226562 0.17578,-0.046875 0.35156,-0.070312 0.52734,-0.070312 z m 2.75098,3.93749999 c 0,-0.1875 0.0469,-0.33984375 0.14062,-0.41015625 0.10547,-0.0820313 0.21094,-0.12890625 0.35156,-0.12890625 0.12891,0 0.25782,0.046875 0.35157,0.12890625 0.0937,0.0703125 0.15234,0.22265625 0.15234,0.41015625 0,0.19921875 -0.0586,0.33984375 -0.15234,0.421875 -0.0937,0.08203125 -0.22266,0.12890625 -0.35157,0.12890625 -0.14062,0 -0.24609,-0.046875 -0.35156,-0.12890625 -0.0937,-0.08203125 -0.14062,-0.22265625 -0.14062,-0.421875 z m 0,0"
       style="fill:#898989;fill-opacity:1;fill-rule:nonzero;stroke:none"
       aria-label="willbesuppressedduringthiscalculation."
       transform="matrix(1.3333333,0,0,1.3333333,258.1285,13.333333)" />
    <path
       id="path14"
       d="m 357.422,2.266 c -2.238,0 -4.059,1.816 -4.059,4.054 0,2.235 1.821,4.055 4.059,4.055 2.234,0 4.055,-1.82 4.055,-4.055 0,-2.238 -1.821,-4.054 -4.055,-4.054 z"
       style="fill:#8eccf9;fill-opacity:1;fill-rule:evenodd;stroke:none"
       transform="scale(1.3333333)" />
    <path
       id="path15"
       d="m 358.301,4.648 c -0.094,0.094 -0.207,0.141 -0.34,0.141 -0.133,0 -0.25,-0.047 -0.344,-0.141 -0.094,-0.097 -0.14,-0.21 -0.14,-0.343 0,-0.133 0.046,-0.246 0.14,-0.34 0.094,-0.094 0.211,-0.141 0.344,-0.141 0.133,0 0.246,0.047 0.34,0.141 0.094,0.094 0.14,0.207 0.14,0.34 0,0.133 -0.046,0.246 -0.14,0.343 z M 357.73,8.52 c -0.203,0.199 -0.421,0.296 -0.652,0.296 -0.133,0 -0.25,-0.039 -0.355,-0.121 -0.102,-0.082 -0.157,-0.203 -0.157,-0.371 0,-0.058 0.016,-0.152 0.043,-0.277 0.016,-0.074 0.039,-0.168 0.075,-0.289 l 0.441,-1.613 c 0.004,-0.02 0.008,-0.04 0.012,-0.055 0.004,-0.02 0.008,-0.039 0.008,-0.055 0,-0.094 -0.032,-0.156 -0.094,-0.18 -0.059,-0.023 -0.172,-0.039 -0.332,-0.043 V 5.621 c 0.133,-0.008 0.332,-0.027 0.586,-0.059 0.257,-0.027 0.441,-0.054 0.547,-0.074 l 0.308,-0.058 -0.558,2.047 c -0.047,0.175 -0.079,0.296 -0.098,0.363 -0.039,0.172 -0.063,0.285 -0.063,0.336 0,0.054 0.012,0.086 0.036,0.101 0.023,0.016 0.05,0.024 0.078,0.024 0.074,0 0.16,-0.063 0.269,-0.188 0.11,-0.121 0.203,-0.254 0.285,-0.39 l 0.161,0.101 c -0.235,0.348 -0.415,0.578 -0.54,0.696 z"
       style="fill:#ffffff;fill-opacity:1;fill-rule:evenodd;stroke:none"
       transform="scale(1.3333333)" />
  </g>
</svg>
