<?xml version="1.0" encoding="UTF-8" standalone="no"?>
<!-- Created with Inkscape (http://www.inkscape.org/) -->

<svg
   version="1.1"
   id="svg2"
   width="346.66666"
   height="72"
   viewBox="0 0 346.66666 72"
   sodipodi:docname="0blv15cgm9d0u.pdf"
   xmlns:inkscape="http://www.inkscape.org/namespaces/inkscape"
   xmlns:sodipodi="http://sodipodi.sourceforge.net/DTD/sodipodi-0.dtd"
   xmlns="http://www.w3.org/2000/svg"
   xmlns:svg="http://www.w3.org/2000/svg">
  <defs
     id="defs6" />
  <sodipodi:namedview
     id="namedview4"
     pagecolor="#ffffff"
     bordercolor="#999999"
     borderopacity="1"
     inkscape:showpageshadow="0"
     inkscape:pageopacity="0"
     inkscape:pagecheckerboard="0"
     inkscape:deskcolor="#d1d1d1" />
  <g
     id="g8"
     inkscape:groupmode="layer"
     inkscape:label="0blv15cgm9d0u"
     transform="matrix(1.3333333,0,0,1.3333333,0,1.8e-6)">
    <g
       id="g10">
      <path
         d="M 9.664,26.656 69.5,26.641"
         style="fill:none;stroke:#264a80;stroke-width:0.36;stroke-linecap:butt;stroke-linejoin:miter;stroke-miterlimit:3.25;stroke-dasharray:none;stroke-opacity:0.7"
         id="path12" />
      <text
         xml:space="preserve"
         transform="translate(35.890148,28.14911)"
         style="font-variant:normal;font-size:6.48px;font-family:CairoFont-0;-inkscape-font-specification:CairoFont-0-0;writing-mode:lr-tb;fill:#000000;fill-opacity:1;fill-rule:nonzero;stroke:none"
         id="text16"><tspan
           x="0"
           y="0"
           id="tspan14">-</tspan></text>
      <text
         xml:space="preserve"
         transform="translate(39.667988,28.14911)"
         style="font-variant:normal;font-size:6.48px;font-family:CairoFont-1;-inkscape-font-specification:CairoFont-1-0;writing-mode:lr-tb;fill:#000000;fill-opacity:1;fill-rule:nonzero;stroke:none"
         id="text20"><tspan
           x="0"
           y="0"
           id="tspan18">q</tspan></text>
      <path
         d="m 73.867,27.352 53.778,17.953"
         style="fill:none;stroke:#264a80;stroke-width:0.36;stroke-linecap:butt;stroke-linejoin:miter;stroke-miterlimit:3.25;stroke-dasharray:none;stroke-opacity:0.7"
         id="path22" />
      <text
         xml:space="preserve"
         transform="translate(87.767628,38.608678)"
         style="font-variant:normal;font-size:6.48px;font-family:CairoFont-0;-inkscape-font-specification:CairoFont-0-0;writing-mode:lr-tb;fill:#000000;fill-opacity:1;fill-rule:nonzero;stroke:none"
         id="text26"><tspan
           x="0"
           y="0"
           id="tspan24">{</tspan></text>
      <text
         xml:space="preserve"
         transform="translate(89.925468,38.608678)"
         style="font-variant:normal;font-size:6.48px;font-family:CairoFont-2;-inkscape-font-specification:CairoFont-2-0;writing-mode:lr-tb;fill:#000000;fill-opacity:1;fill-rule:nonzero;stroke:none"
         id="text30"><tspan
           x="0 3.24 6.8428798 10.64016 14.24952 18.046801"
           y="0"
           sodipodi:role="line"
           id="tspan28">k1,1,0</tspan></text>
      <text
         xml:space="preserve"
         transform="translate(111.57515,38.608678)"
         style="font-variant:normal;font-size:6.48px;font-family:CairoFont-0;-inkscape-font-specification:CairoFont-0-0;writing-mode:lr-tb;fill:#000000;fill-opacity:1;fill-rule:nonzero;stroke:none"
         id="text34"><tspan
           x="0"
           y="0"
           id="tspan32">}</tspan></text>
      <path
         d="m 73.867,25.93 53.774,-18"
         style="fill:none;stroke:#264a80;stroke-width:0.36;stroke-linecap:butt;stroke-linejoin:miter;stroke-miterlimit:3.25;stroke-dasharray:none;stroke-opacity:0.7"
         id="path36" />
      <text
         xml:space="preserve"
         transform="translate(83.070229,18.429434)"
         style="font-variant:normal;font-size:6.48px;font-family:CairoFont-0;-inkscape-font-specification:CairoFont-0-0;writing-mode:lr-tb;fill:#000000;fill-opacity:1;fill-rule:nonzero;stroke:none"
         id="text40"><tspan
           x="0"
           y="0"
           id="tspan38">{</tspan></text>
      <text
         xml:space="preserve"
         transform="translate(85.228069,18.429434)"
         style="font-variant:normal;font-size:6.48px;font-family:CairoFont-1;-inkscape-font-specification:CairoFont-1-0;writing-mode:lr-tb;fill:#000000;fill-opacity:1;fill-rule:nonzero;stroke:none"
         id="text44"><tspan
           x="0"
           y="0"
           id="tspan42">q</tspan></text>
      <text
         xml:space="preserve"
         transform="translate(89.828869,18.429434)"
         style="font-variant:normal;font-size:6.48px;font-family:CairoFont-0;-inkscape-font-specification:CairoFont-0-0;writing-mode:lr-tb;fill:#000000;fill-opacity:1;fill-rule:nonzero;stroke:none"
         id="text48"><tspan
           x="0"
           y="0"
           id="tspan46">-</tspan></text>
      <text
         xml:space="preserve"
         transform="translate(94.611109,18.429434)"
         style="font-variant:normal;font-size:6.48px;font-family:CairoFont-2;-inkscape-font-specification:CairoFont-2-0;writing-mode:lr-tb;fill:#000000;fill-opacity:1;fill-rule:nonzero;stroke:none"
         id="text52"><tspan
           x="0 3.24 6.8428798 10.64016 14.24304 18.046801"
           y="0"
           sodipodi:role="line"
           id="tspan50">k1,1,0</tspan></text>
      <text
         xml:space="preserve"
         transform="translate(116.26079,18.429434)"
         style="font-variant:normal;font-size:6.48px;font-family:CairoFont-0;-inkscape-font-specification:CairoFont-0-0;writing-mode:lr-tb;fill:#000000;fill-opacity:1;fill-rule:nonzero;stroke:none"
         id="text56"><tspan
           x="0"
           y="0"
           id="tspan54">}</tspan></text>
      <path
         d="m 249.535,26.66 -59.59,-0.031"
         style="fill:none;stroke:#264a80;stroke-width:0.36;stroke-linecap:butt;stroke-linejoin:miter;stroke-miterlimit:3.25;stroke-dasharray:none;stroke-opacity:0.7"
         id="path58" />
      <text
         xml:space="preserve"
         transform="translate(217.93717,28.145385)"
         style="font-variant:normal;font-size:6.48px;font-family:CairoFont-1;-inkscape-font-specification:CairoFont-1-0;writing-mode:lr-tb;fill:#000000;fill-opacity:1;fill-rule:nonzero;stroke:none"
         id="text62"><tspan
           x="0"
           y="0"
           id="tspan60">q</tspan></text>
      <path
         d="M 185.578,27.34 131.895,45.305"
         style="fill:none;stroke:#264a80;stroke-width:0.36;stroke-linecap:butt;stroke-linejoin:miter;stroke-miterlimit:3.25;stroke-dasharray:none;stroke-opacity:0.7"
         id="path64" />
      <text
         xml:space="preserve"
         transform="translate(145.74774,38.602634)"
         style="font-variant:normal;font-size:6.48px;font-family:CairoFont-0;-inkscape-font-specification:CairoFont-0-0;writing-mode:lr-tb;fill:#000000;fill-opacity:1;fill-rule:nonzero;stroke:none"
         id="text68"><tspan
           x="0"
           y="0"
           id="tspan66">{</tspan></text>
      <text
         xml:space="preserve"
         transform="translate(147.90558,38.602634)"
         style="font-variant:normal;font-size:6.48px;font-family:CairoFont-2;-inkscape-font-specification:CairoFont-2-0;writing-mode:lr-tb;fill:#000000;fill-opacity:1;fill-rule:nonzero;stroke:none"
         id="text72"><tspan
           x="0 3.24 6.8428798 10.64016 14.24952 18.046801"
           y="0"
           sodipodi:role="line"
           id="tspan70">k2,1,0</tspan></text>
      <text
         xml:space="preserve"
         transform="translate(169.55526,38.602634)"
         style="font-variant:normal;font-size:6.48px;font-family:CairoFont-0;-inkscape-font-specification:CairoFont-0-0;writing-mode:lr-tb;fill:#000000;fill-opacity:1;fill-rule:nonzero;stroke:none"
         id="text76"><tspan
           x="0"
           y="0"
           id="tspan74">}</tspan></text>
      <path
         d="M 185.578,25.918 131.891,7.93"
         style="fill:none;stroke:#264a80;stroke-width:0.36;stroke-linecap:butt;stroke-linejoin:miter;stroke-miterlimit:3.25;stroke-dasharray:none;stroke-opacity:0.7"
         id="path78" />
      <text
         xml:space="preserve"
         transform="translate(141.05034,18.42339)"
         style="font-variant:normal;font-size:6.48px;font-family:CairoFont-0;-inkscape-font-specification:CairoFont-0-0;writing-mode:lr-tb;fill:#000000;fill-opacity:1;fill-rule:nonzero;stroke:none"
         id="text82"><tspan
           x="0"
           y="0"
           id="tspan80">{</tspan></text>
      <text
         xml:space="preserve"
         transform="translate(143.20818,18.42339)"
         style="font-variant:normal;font-size:6.48px;font-family:CairoFont-1;-inkscape-font-specification:CairoFont-1-0;writing-mode:lr-tb;fill:#000000;fill-opacity:1;fill-rule:nonzero;stroke:none"
         id="text86"><tspan
           x="0"
           y="0"
           id="tspan84">q</tspan></text>
      <text
         xml:space="preserve"
         transform="translate(147.80898,18.42339)"
         style="font-variant:normal;font-size:6.48px;font-family:CairoFont-0;-inkscape-font-specification:CairoFont-0-0;writing-mode:lr-tb;fill:#000000;fill-opacity:1;fill-rule:nonzero;stroke:none"
         id="text90"><tspan
           x="0"
           y="0"
           id="tspan88">-</tspan></text>
      <text
         xml:space="preserve"
         transform="translate(152.59122,18.42339)"
         style="font-variant:normal;font-size:6.48px;font-family:CairoFont-2;-inkscape-font-specification:CairoFont-2-0;writing-mode:lr-tb;fill:#000000;fill-opacity:1;fill-rule:nonzero;stroke:none"
         id="text94"><tspan
           x="0 3.24 6.8428798 10.64016 14.24304 18.046801"
           y="0"
           sodipodi:role="line"
           id="tspan92">k2,1,0</tspan></text>
      <text
         xml:space="preserve"
         transform="translate(174.2409,18.42339)"
         style="font-variant:normal;font-size:6.48px;font-family:CairoFont-0;-inkscape-font-specification:CairoFont-0-0;writing-mode:lr-tb;fill:#000000;fill-opacity:1;fill-rule:nonzero;stroke:none"
         id="text98"><tspan
           x="0"
           y="0"
           id="tspan96">}</tspan></text>
      <path
         d="m 129.234,43.84 -1.859,-7.524 -0.797,-9.699 0.797,-9.699 1.852,-7.523"
         style="fill:none;stroke:#264a80;stroke-width:0.36;stroke-linecap:butt;stroke-linejoin:miter;stroke-miterlimit:3.25;stroke-dasharray:none;stroke-opacity:0.7"
         id="path100" />
      <text
         xml:space="preserve"
         transform="translate(100.49601,28.27611)"
         style="font-variant:normal;font-size:6.48px;font-family:CairoFont-0;-inkscape-font-specification:CairoFont-0-1;writing-mode:lr-tb;fill:#000000;fill-opacity:1;fill-rule:nonzero;stroke:none"
         id="text104"><tspan
           x="0"
           y="0"
           id="tspan102"></tspan></text>
      <text
         xml:space="preserve"
         transform="translate(103.87209,28.27611)"
         style="font-variant:normal;font-size:6.48px;font-family:CairoFont-2;-inkscape-font-specification:CairoFont-2-0;writing-mode:lr-tb;fill:#000000;fill-opacity:1;fill-rule:nonzero;stroke:none"
         id="text108"><tspan
           x="0 3.24"
           y="0"
           sodipodi:role="line"
           id="tspan106">k2</tspan></text>
      <text
         xml:space="preserve"
         transform="translate(111.71289,28.27611)"
         style="font-variant:normal;font-size:6.48px;font-family:CairoFont-0;-inkscape-font-specification:CairoFont-0-0;writing-mode:lr-tb;fill:#000000;fill-opacity:1;fill-rule:nonzero;stroke:none"
         id="text112"><tspan
           x="0"
           y="0"
           id="tspan110">-</tspan></text>
      <text
         xml:space="preserve"
         transform="translate(116.49513,28.27611)"
         style="font-variant:normal;font-size:6.48px;font-family:CairoFont-2;-inkscape-font-specification:CairoFont-2-0;writing-mode:lr-tb;fill:#000000;fill-opacity:1;fill-rule:nonzero;stroke:none"
         id="text116"><tspan
           x="0 3.24 6.8428798 10.64016 14.24304"
           y="0"
           sodipodi:role="line"
           id="tspan114">k3,1,</tspan></text>
      <text
         xml:space="preserve"
         transform="translate(134.54193,28.27611)"
         style="font-variant:normal;font-size:6.48px;font-family:CairoFont-0;-inkscape-font-specification:CairoFont-0-0;writing-mode:lr-tb;fill:#000000;fill-opacity:1;fill-rule:nonzero;stroke:none"
         id="text120"><tspan
           x="0"
           y="0"
           id="tspan118">-</tspan></text>
      <text
         xml:space="preserve"
         transform="translate(138.31977,28.27611)"
         style="font-variant:normal;font-size:6.48px;font-family:CairoFont-2;-inkscape-font-specification:CairoFont-2-0;writing-mode:lr-tb;fill:#000000;fill-opacity:1;fill-rule:nonzero;stroke:none"
         id="text124"><tspan
           x="0 5.3913598"
           y="0"
           sodipodi:role="line"
           id="tspan122">mb</tspan></text>
      <text
         xml:space="preserve"
         transform="translate(147.33351,25.25211)"
         style="font-variant:normal;font-size:4.56px;font-family:CairoFont-2;-inkscape-font-specification:CairoFont-2-0;writing-mode:lr-tb;fill:#000000;fill-opacity:1;fill-rule:nonzero;stroke:none"
         id="text128"><tspan
           x="0"
           y="0"
           id="tspan126">2</tspan></text>
      <text
         xml:space="preserve"
         transform="translate(150.22851,28.27611)"
         style="font-variant:normal;font-size:6.48px;font-family:CairoFont-0;-inkscape-font-specification:CairoFont-0-1;writing-mode:lr-tb;fill:#000000;fill-opacity:1;fill-rule:nonzero;stroke:none"
         id="text132"><tspan
           x="0"
           y="0"
           id="tspan130"></tspan></text>
      <path
         d="m 130.309,43.84 1.851,-7.524 0.797,-9.699 -0.797,-9.699 -1.859,-7.523"
         style="fill:none;stroke:#264a80;stroke-width:0.36;stroke-linecap:butt;stroke-linejoin:miter;stroke-miterlimit:3.25;stroke-dasharray:none;stroke-opacity:0.7"
         id="path134" />
      <text
         xml:space="preserve"
         transform="translate(105.9278,28.275089)"
         style="font-variant:normal;font-size:6.48px;font-family:CairoFont-0;-inkscape-font-specification:CairoFont-0-1;writing-mode:lr-tb;fill:#000000;fill-opacity:1;fill-rule:nonzero;stroke:none"
         id="text138"><tspan
           x="0"
           y="0"
           id="tspan136"></tspan></text>
      <text
         xml:space="preserve"
         transform="translate(109.30388,28.275089)"
         style="font-variant:normal;font-size:6.48px;font-family:CairoFont-2;-inkscape-font-specification:CairoFont-2-0;writing-mode:lr-tb;fill:#000000;fill-opacity:1;fill-rule:nonzero;stroke:none"
         id="text142"><tspan
           x="0 3.24"
           y="0"
           sodipodi:role="line"
           id="tspan140">k1</tspan></text>
      <text
         xml:space="preserve"
         transform="translate(117.14467,28.275089)"
         style="font-variant:normal;font-size:6.48px;font-family:CairoFont-0;-inkscape-font-specification:CairoFont-0-0;writing-mode:lr-tb;fill:#000000;fill-opacity:1;fill-rule:nonzero;stroke:none"
         id="text146"><tspan
           x="0"
           y="0"
           id="tspan144">-</tspan></text>
      <text
         xml:space="preserve"
         transform="translate(121.92691,28.275089)"
         style="font-variant:normal;font-size:6.48px;font-family:CairoFont-2;-inkscape-font-specification:CairoFont-2-0;writing-mode:lr-tb;fill:#000000;fill-opacity:1;fill-rule:nonzero;stroke:none"
         id="text150"><tspan
           x="0 3.24 6.8428798 10.64016 14.24304"
           y="0"
           sodipodi:role="line"
           id="tspan148">k3,1,</tspan></text>
      <text
         xml:space="preserve"
         transform="translate(139.97371,28.275089)"
         style="font-variant:normal;font-size:6.48px;font-family:CairoFont-0;-inkscape-font-specification:CairoFont-0-0;writing-mode:lr-tb;fill:#000000;fill-opacity:1;fill-rule:nonzero;stroke:none"
         id="text154"><tspan
           x="0"
           y="0"
           id="tspan152">-</tspan></text>
      <text
         xml:space="preserve"
         transform="translate(143.75155,28.275089)"
         style="font-variant:normal;font-size:6.48px;font-family:CairoFont-2;-inkscape-font-specification:CairoFont-2-0;writing-mode:lr-tb;fill:#000000;fill-opacity:1;fill-rule:nonzero;stroke:none"
         id="text158"><tspan
           x="0 5.3913598"
           y="0"
           sodipodi:role="line"
           id="tspan156">mb</tspan></text>
      <text
         xml:space="preserve"
         transform="translate(152.76529,25.251089)"
         style="font-variant:normal;font-size:4.56px;font-family:CairoFont-2;-inkscape-font-specification:CairoFont-2-0;writing-mode:lr-tb;fill:#000000;fill-opacity:1;fill-rule:nonzero;stroke:none"
         id="text162"><tspan
           x="0"
           y="0"
           id="tspan160">2</tspan></text>
      <text
         xml:space="preserve"
         transform="translate(155.66029,28.275089)"
         style="font-variant:normal;font-size:6.48px;font-family:CairoFont-0;-inkscape-font-specification:CairoFont-0-1;writing-mode:lr-tb;fill:#000000;fill-opacity:1;fill-rule:nonzero;stroke:none"
         id="text166"><tspan
           x="0"
           y="0"
           id="tspan164"></tspan></text>
      <path
         d="m 9.664,26.656 c 0,-0.594 -0.234,-1.164 -0.656,-1.582 -0.418,-0.422 -0.988,-0.66 -1.582,-0.66 -0.594,0 -1.164,0.238 -1.586,0.66 -0.418,0.418 -0.656,0.988 -0.656,1.582 0,0.594 0.238,1.164 0.656,1.586 0.422,0.418 0.992,0.656 1.586,0.656 0.594,0 1.164,-0.238 1.582,-0.656 C 9.43,27.82 9.664,27.25 9.664,26.656 Z"
         style="fill:#a3b4cc;fill-opacity:1;fill-rule:evenodd;stroke:none"
         id="path168" />
      <path
         d="m 9.664,26.656 c 0,-0.594 -0.234,-1.164 -0.656,-1.582 -0.418,-0.422 -0.988,-0.66 -1.582,-0.66 -0.594,0 -1.164,0.238 -1.586,0.66 -0.418,0.418 -0.656,0.988 -0.656,1.582 0,0.594 0.238,1.164 0.656,1.586 0.422,0.418 0.992,0.656 1.586,0.656 0.594,0 1.164,-0.238 1.582,-0.656 C 9.43,27.82 9.664,27.25 9.664,26.656 Z"
         style="fill:none;stroke:#000000;stroke-width:0.36;stroke-linecap:square;stroke-linejoin:miter;stroke-miterlimit:3.25;stroke-dasharray:none;stroke-opacity:0.7"
         id="path170" />
      <path
         d="m 73.984,26.641 c 0,-0.594 -0.238,-1.164 -0.656,-1.582 -0.422,-0.422 -0.992,-0.661 -1.586,-0.661 -0.594,0 -1.164,0.239 -1.582,0.661 -0.422,0.418 -0.66,0.988 -0.66,1.582 0,0.593 0.238,1.164 0.66,1.586 0.418,0.418 0.988,0.656 1.582,0.656 0.594,0 1.164,-0.238 1.586,-0.656 0.418,-0.422 0.656,-0.993 0.656,-1.586 z"
         style="fill:#a3b4cc;fill-opacity:1;fill-rule:evenodd;stroke:none"
         id="path172" />
      <path
         d="m 73.984,26.641 c 0,-0.594 -0.238,-1.164 -0.656,-1.582 -0.422,-0.422 -0.992,-0.661 -1.586,-0.661 -0.594,0 -1.164,0.239 -1.582,0.661 -0.422,0.418 -0.66,0.988 -0.66,1.582 0,0.593 0.238,1.164 0.66,1.586 0.418,0.418 0.988,0.656 1.582,0.656 0.594,0 1.164,-0.238 1.586,-0.656 0.418,-0.422 0.656,-0.993 0.656,-1.586 z"
         style="fill:none;stroke:#000000;stroke-width:0.36;stroke-linecap:square;stroke-linejoin:miter;stroke-miterlimit:3.25;stroke-dasharray:none;stroke-opacity:0.7"
         id="path174" />
      <path
         d="m 254.016,26.66 c 0,-0.594 -0.235,-1.164 -0.657,-1.582 -0.421,-0.422 -0.988,-0.656 -1.586,-0.656 -0.593,0 -1.164,0.234 -1.582,0.656 -0.421,0.418 -0.656,0.988 -0.656,1.582 0,0.598 0.235,1.164 0.656,1.586 0.418,0.422 0.989,0.656 1.582,0.656 0.598,0 1.165,-0.234 1.586,-0.656 0.422,-0.422 0.657,-0.988 0.657,-1.586 z"
         style="fill:#a3b4cc;fill-opacity:1;fill-rule:evenodd;stroke:none"
         id="path176" />
      <path
         d="m 254.016,26.66 c 0,-0.594 -0.235,-1.164 -0.657,-1.582 -0.421,-0.422 -0.988,-0.656 -1.586,-0.656 -0.593,0 -1.164,0.234 -1.582,0.656 -0.421,0.418 -0.656,0.988 -0.656,1.582 0,0.598 0.235,1.164 0.656,1.586 0.418,0.422 0.989,0.656 1.582,0.656 0.598,0 1.165,-0.234 1.586,-0.656 0.422,-0.422 0.657,-0.988 0.657,-1.586 z"
         style="fill:none;stroke:#000000;stroke-width:0.36;stroke-linecap:square;stroke-linejoin:miter;stroke-miterlimit:3.25;stroke-dasharray:none;stroke-opacity:0.7"
         id="path178" />
      <path
         d="m 189.945,26.629 c 0,-0.594 -0.238,-1.164 -0.656,-1.586 -0.422,-0.418 -0.992,-0.656 -1.586,-0.656 -0.594,0 -1.164,0.238 -1.586,0.656 -0.418,0.422 -0.656,0.992 -0.656,1.586 0,0.594 0.238,1.164 0.656,1.586 0.422,0.418 0.992,0.656 1.586,0.656 0.594,0 1.164,-0.238 1.586,-0.656 0.418,-0.422 0.656,-0.992 0.656,-1.586 z"
         style="fill:#a3b4cc;fill-opacity:1;fill-rule:evenodd;stroke:none"
         id="path180" />
      <path
         d="m 189.945,26.629 c 0,-0.594 -0.238,-1.164 -0.656,-1.586 -0.422,-0.418 -0.992,-0.656 -1.586,-0.656 -0.594,0 -1.164,0.238 -1.586,0.656 -0.418,0.422 -0.656,0.992 -0.656,1.586 0,0.594 0.238,1.164 0.656,1.586 0.422,0.418 0.992,0.656 1.586,0.656 0.594,0 1.164,-0.238 1.586,-0.656 0.418,-0.422 0.656,-0.992 0.656,-1.586 z"
         style="fill:none;stroke:#000000;stroke-width:0.36;stroke-linecap:square;stroke-linejoin:miter;stroke-miterlimit:3.25;stroke-dasharray:none;stroke-opacity:0.7"
         id="path182" />
      <path
         d="m 132.012,46.016 c 0,-0.594 -0.235,-1.164 -0.657,-1.586 -0.421,-0.418 -0.988,-0.657 -1.585,-0.657 -0.594,0 -1.165,0.239 -1.582,0.657 -0.422,0.422 -0.657,0.992 -0.657,1.586 0,0.593 0.235,1.164 0.657,1.586 0.417,0.418 0.988,0.656 1.582,0.656 0.597,0 1.164,-0.238 1.585,-0.656 0.422,-0.422 0.657,-0.993 0.657,-1.586 z"
         style="fill:#a3b4cc;fill-opacity:1;fill-rule:evenodd;stroke:none"
         id="path184" />
      <path
         d="m 132.012,46.016 c 0,-0.594 -0.235,-1.164 -0.657,-1.586 -0.421,-0.418 -0.988,-0.657 -1.585,-0.657 -0.594,0 -1.165,0.239 -1.582,0.657 -0.422,0.422 -0.657,0.992 -0.657,1.586 0,0.593 0.235,1.164 0.657,1.586 0.417,0.418 0.988,0.656 1.582,0.656 0.597,0 1.164,-0.238 1.585,-0.656 0.422,-0.422 0.657,-0.993 0.657,-1.586 z"
         style="fill:none;stroke:#000000;stroke-width:0.36;stroke-linecap:square;stroke-linejoin:miter;stroke-miterlimit:3.25;stroke-dasharray:none;stroke-opacity:0.7"
         id="path186" />
      <path
         d="m 132.004,7.219 c 0,-0.594 -0.234,-1.164 -0.656,-1.586 -0.418,-0.422 -0.989,-0.656 -1.582,-0.656 -0.598,0 -1.168,0.234 -1.586,0.656 -0.422,0.422 -0.657,0.992 -0.657,1.586 0,0.593 0.235,1.164 0.657,1.582 0.418,0.422 0.988,0.656 1.586,0.656 0.593,0 1.164,-0.234 1.582,-0.656 0.422,-0.418 0.656,-0.989 0.656,-1.582 z"
         style="fill:#a3b4cc;fill-opacity:1;fill-rule:evenodd;stroke:none"
         id="path188" />
      <path
         d="m 132.004,7.219 c 0,-0.594 -0.234,-1.164 -0.656,-1.586 -0.418,-0.422 -0.989,-0.656 -1.582,-0.656 -0.598,0 -1.168,0.234 -1.586,0.656 -0.422,0.422 -0.657,0.992 -0.657,1.586 0,0.593 0.235,1.164 0.657,1.582 0.418,0.422 0.988,0.656 1.586,0.656 0.593,0 1.164,-0.234 1.582,-0.656 0.422,-0.418 0.656,-0.989 0.656,-1.582 z"
         style="fill:none;stroke:#000000;stroke-width:0.36;stroke-linecap:square;stroke-linejoin:miter;stroke-miterlimit:3.25;stroke-dasharray:none;stroke-opacity:0.7"
         id="path190" />
    </g>
  </g>
</svg>
