<?xml version="1.0" encoding="UTF-8" standalone="no"?>
<!-- Created with Inkscape (http://www.inkscape.org/) -->

<svg
   version="1.1"
   id="svg1"
   width="346.66666"
   height="129.33333"
   viewBox="0 0 346.66666 129.33333"
   sodipodi:docname="0ep0x3inp5ays.pdf"
   xmlns:inkscape="http://www.inkscape.org/namespaces/inkscape"
   xmlns:sodipodi="http://sodipodi.sourceforge.net/DTD/sodipodi-0.dtd"
   xmlns="http://www.w3.org/2000/svg"
   xmlns:svg="http://www.w3.org/2000/svg">
  <defs
     id="defs1" />
  <sodipodi:namedview
     id="namedview1"
     pagecolor="#ffffff"
     bordercolor="#999999"
     borderopacity="1"
     inkscape:showpageshadow="0"
     inkscape:pageopacity="0"
     inkscape:pagecheckerboard="0"
     inkscape:deskcolor="#d1d1d1">
    <inkscape:page
       x="0"
       y="0"
       id="page1"
       width="346.66666"
       height="129.33333"
       margin="0"
       bleed="0" />
  </sodipodi:namedview>
  <g
     id="g1"
     inkscape:groupmode="layer"
     inkscape:label="">
    <path
       id="path1"
       d="M 9.453,8 62.094,28.102"
       style="fill:none;stroke:#000000;stroke-width:1.44;stroke-linecap:butt;stroke-linejoin:miter;stroke-miterlimit:3.25;stroke-dasharray:none;stroke-opacity:0.7"
       transform="scale(1.3333333)" />
    <path
       id="path2"
       d="m 66.363,28.984 61.133,2.59"
       style="fill:none;stroke:#000000;stroke-width:1.44;stroke-linecap:butt;stroke-linejoin:miter;stroke-miterlimit:3.25;stroke-dasharray:2.88, 2.88;stroke-dashoffset:0;stroke-opacity:0.7"
       transform="scale(1.3333333)" />
    <path
       id="path3"
       d="m 65.492,30.648 31.11,40.93"
       style="fill:none;stroke:#000000;stroke-width:1.44;stroke-linecap:butt;stroke-linejoin:miter;stroke-miterlimit:3.25;stroke-dasharray:2.88, 2.88;stroke-dashoffset:0;stroke-opacity:0.7"
       transform="scale(1.3333333)" />
    <path
       id="path4"
       d="M 249.746,7.973 197.211,28.055"
       style="fill:none;stroke:#000000;stroke-width:1.44;stroke-linecap:butt;stroke-linejoin:miter;stroke-miterlimit:3.25;stroke-dasharray:none;stroke-opacity:0.7"
       transform="scale(1.3333333)" />
    <path
       id="path5"
       d="M 192.941,28.938 131.906,31.57"
       style="fill:none;stroke:#000000;stroke-width:1.44;stroke-linecap:butt;stroke-linejoin:miter;stroke-miterlimit:3.25;stroke-dasharray:2.88, 2.88;stroke-dashoffset:0;stroke-opacity:0.7"
       transform="scale(1.3333333)" />
    <path
       id="path6"
       d="M 193.816,30.602 162.77,71.543"
       style="fill:none;stroke:#000000;stroke-width:1.44;stroke-linecap:butt;stroke-linejoin:miter;stroke-miterlimit:3.25;stroke-dasharray:2.88, 2.88;stroke-dashoffset:0;stroke-opacity:0.7"
       transform="scale(1.3333333)" />
    <path
       id="path7"
       d="m 129.703,33.875 0.004,53.008"
       style="fill:none;stroke:#000000;stroke-width:1.44;stroke-linecap:butt;stroke-linejoin:miter;stroke-miterlimit:3.25;stroke-dasharray:2.88, 2.88;stroke-dashoffset:0;stroke-opacity:0.7"
       transform="scale(1.3333333)" />
    <path
       id="path8"
       d="m 159.23,73.305 -59.085,0.031"
       style="fill:none;stroke:#000000;stroke-width:1.44;stroke-linecap:butt;stroke-linejoin:miter;stroke-miterlimit:3.25;stroke-dasharray:2.88, 2.88;stroke-dashoffset:0;stroke-opacity:0.7"
       transform="scale(1.3333333)" />
    <path
       id="path9"
       d="m 159.461,74.285 -27.777,13.82"
       style="fill:none;stroke:#000000;stroke-width:1.44;stroke-linecap:butt;stroke-linejoin:miter;stroke-miterlimit:3.25;stroke-dasharray:2.88, 2.88;stroke-dashoffset:0;stroke-opacity:0.7"
       transform="scale(1.3333333)" />
    <path
       id="path10"
       d="M 99.914,74.316 127.73,88.109"
       style="fill:none;stroke:#000000;stroke-width:1.44;stroke-linecap:butt;stroke-linejoin:miter;stroke-miterlimit:3.25;stroke-dasharray:2.88, 2.88;stroke-dashoffset:0;stroke-opacity:0.7"
       transform="scale(1.3333333)" />
    <path
       id="path11"
       d="M 9.598,7.215 C 9.598,7.801 9.367,8.359 8.953,8.773 8.539,9.188 7.977,9.422 7.391,9.422 6.805,9.422 6.246,9.188 5.832,8.773 5.418,8.359 5.184,7.801 5.184,7.215 5.184,6.629 5.418,6.066 5.832,5.652 6.246,5.238 6.805,5.008 7.391,5.008 c 0.586,0 1.148,0.23 1.562,0.644 0.414,0.414 0.645,0.977 0.645,1.563 z"
       style="fill:#a3b4cc;fill-opacity:1;fill-rule:evenodd;stroke:#000000;stroke-width:0.36;stroke-linecap:square;stroke-linejoin:miter;stroke-miterlimit:3.25;stroke-dasharray:none;stroke-opacity:0.7"
       transform="scale(1.3333333)" />
    <path
       id="path12"
       d="m 66.363,28.891 c 0,0.586 -0.23,1.144 -0.644,1.558 -0.414,0.414 -0.977,0.649 -1.563,0.649 -0.586,0 -1.144,-0.235 -1.558,-0.649 -0.414,-0.414 -0.649,-0.972 -0.649,-1.558 0,-0.586 0.235,-1.149 0.649,-1.563 0.414,-0.414 0.972,-0.644 1.558,-0.644 0.586,0 1.149,0.23 1.563,0.644 0.414,0.414 0.644,0.977 0.644,1.563 z"
       style="fill:#a3b4cc;fill-opacity:1;fill-rule:evenodd;stroke:#000000;stroke-width:0.36;stroke-linecap:square;stroke-linejoin:miter;stroke-miterlimit:3.25;stroke-dasharray:none;stroke-opacity:0.7"
       transform="scale(1.3333333)" />
    <path
       id="path13"
       d="m 254.016,7.184 c 0,0.586 -0.231,1.148 -0.645,1.562 -0.414,0.414 -0.976,0.645 -1.562,0.645 -0.586,0 -1.149,-0.231 -1.563,-0.645 -0.414,-0.414 -0.644,-0.976 -0.644,-1.562 0,-0.586 0.23,-1.145 0.644,-1.559 0.414,-0.414 0.977,-0.648 1.563,-0.648 0.586,0 1.148,0.234 1.562,0.648 0.414,0.414 0.645,0.973 0.645,1.559 z"
       style="fill:#a3b4cc;fill-opacity:1;fill-rule:evenodd;stroke:#000000;stroke-width:0.36;stroke-linecap:square;stroke-linejoin:miter;stroke-miterlimit:3.25;stroke-dasharray:none;stroke-opacity:0.7"
       transform="scale(1.3333333)" />
    <path
       id="path14"
       d="m 197.355,28.844 c 0,0.582 -0.23,1.144 -0.644,1.558 -0.414,0.414 -0.977,0.649 -1.563,0.649 -0.586,0 -1.148,-0.235 -1.562,-0.649 -0.414,-0.414 -0.645,-0.976 -0.645,-1.558 0,-0.586 0.231,-1.149 0.645,-1.563 0.414,-0.414 0.976,-0.648 1.562,-0.648 0.586,0 1.149,0.234 1.563,0.648 0.414,0.414 0.644,0.977 0.644,1.563 z"
       style="fill:#a3b4cc;fill-opacity:1;fill-rule:evenodd;stroke:#000000;stroke-width:0.36;stroke-linecap:square;stroke-linejoin:miter;stroke-miterlimit:3.25;stroke-dasharray:none;stroke-opacity:0.7"
       transform="scale(1.3333333)" />
    <path
       id="path15"
       d="m 131.91,31.664 c 0,0.586 -0.234,1.148 -0.648,1.563 -0.414,0.414 -0.973,0.648 -1.559,0.648 -0.586,0 -1.148,-0.234 -1.562,-0.648 -0.414,-0.415 -0.645,-0.977 -0.645,-1.563 0,-0.582 0.231,-1.144 0.645,-1.559 0.414,-0.414 0.976,-0.648 1.562,-0.648 0.586,0 1.145,0.234 1.559,0.648 0.414,0.415 0.648,0.977 0.648,1.559 z"
       style="fill:#a3b4cc;fill-opacity:1;fill-rule:evenodd;stroke:#000000;stroke-width:0.36;stroke-linecap:square;stroke-linejoin:miter;stroke-miterlimit:3.25;stroke-dasharray:none;stroke-opacity:0.7"
       transform="scale(1.3333333)" />
    <path
       id="path16"
       d="m 163.645,73.301 c 0,0.586 -0.235,1.148 -0.649,1.562 -0.414,0.414 -0.973,0.649 -1.558,0.649 -0.586,0 -1.149,-0.235 -1.563,-0.649 -0.414,-0.414 -0.645,-0.976 -0.645,-1.562 0,-0.586 0.231,-1.145 0.645,-1.559 0.414,-0.414 0.977,-0.648 1.563,-0.648 0.585,0 1.144,0.234 1.558,0.648 0.414,0.414 0.649,0.973 0.649,1.559 z"
       style="fill:#a3b4cc;fill-opacity:1;fill-rule:evenodd;stroke:#000000;stroke-width:0.36;stroke-linecap:square;stroke-linejoin:miter;stroke-miterlimit:3.25;stroke-dasharray:none;stroke-opacity:0.7"
       transform="scale(1.3333333)" />
    <path
       id="path17"
       d="m 100.145,73.336 c 0,0.586 -0.235,1.148 -0.649,1.562 -0.41,0.414 -0.973,0.649 -1.558,0.649 -0.586,0 -1.149,-0.235 -1.563,-0.649 -0.414,-0.414 -0.645,-0.976 -0.645,-1.562 0,-0.586 0.231,-1.145 0.645,-1.559 0.414,-0.414 0.977,-0.648 1.563,-0.648 0.585,0 1.148,0.234 1.558,0.648 0.414,0.414 0.649,0.973 0.649,1.559 z"
       style="fill:#a3b4cc;fill-opacity:1;fill-rule:evenodd;stroke:#000000;stroke-width:0.36;stroke-linecap:square;stroke-linejoin:miter;stroke-miterlimit:3.25;stroke-dasharray:none;stroke-opacity:0.7"
       transform="scale(1.3333333)" />
    <path
       id="path18"
       d="m 131.918,89.09 c 0,0.586 -0.234,1.148 -0.648,1.562 -0.415,0.414 -0.977,0.645 -1.563,0.645 -0.582,0 -1.145,-0.231 -1.559,-0.645 -0.414,-0.414 -0.648,-0.976 -0.648,-1.562 0,-0.586 0.234,-1.149 0.648,-1.563 0.414,-0.414 0.977,-0.644 1.559,-0.644 0.586,0 1.148,0.23 1.563,0.644 0.414,0.414 0.648,0.977 0.648,1.563 z"
       style="fill:#a3b4cc;fill-opacity:1;fill-rule:evenodd;stroke:#000000;stroke-width:0.36;stroke-linecap:square;stroke-linejoin:miter;stroke-miterlimit:3.25;stroke-dasharray:none;stroke-opacity:0.7"
       transform="scale(1.3333333)" />
  </g>
</svg>
