<?xml version="1.0" encoding="UTF-8"?>
<svg xmlns="http://www.w3.org/2000/svg" xmlns:xlink="http://www.w3.org/1999/xlink" width="270pt" height="50pt" viewBox="0 0 270 50" version="1.1">
<defs>
<clipPath id="clip1">
  <path d="M 101 35 L 168 35 L 168 49.679688 L 101 49.679688 Z M 101 35 "/>
</clipPath>
</defs>
<g id="surface41">
<path style="fill:none;stroke-width:1.5;stroke-linecap:butt;stroke-linejoin:miter;stroke:rgb(0%,0%,0%);stroke-opacity:0.7;stroke-miterlimit:3.25;" d="M 59.242188 28.527344 L 106.542969 28.546875 " transform="matrix(1,0,0,1,-49.5,-3.75)"/>
<path style="fill:none;stroke-width:1.5;stroke-linecap:square;stroke-linejoin:miter;stroke:rgb(0%,0%,0%);stroke-opacity:0.7;stroke-miterlimit:3.25;" d="M 106.542969 28.546875 Z M 106.542969 28.546875 " transform="matrix(1,0,0,1,-49.5,-3.75)"/>
<path style="fill:none;stroke-width:1.5;stroke-linecap:butt;stroke-linejoin:miter;stroke:rgb(0%,0%,0%);stroke-opacity:0.7;stroke-miterlimit:3.25;" d="M 110.75 27.796875 L 154.074219 11.855469 " transform="matrix(1,0,0,1,-49.5,-3.75)"/>
<path style="fill:none;stroke-width:1.5;stroke-linecap:square;stroke-linejoin:miter;stroke:rgb(0%,0%,0%);stroke-opacity:0.7;stroke-miterlimit:3.25;" d="M 154.074219 11.855469 Z M 154.074219 11.855469 " transform="matrix(1,0,0,1,-49.5,-3.75)"/>
<path style="fill:none;stroke-width:1.5;stroke-linecap:butt;stroke-linejoin:miter;stroke:rgb(0%,0%,0%);stroke-opacity:0.7;stroke-miterlimit:3.25;" d="M 110.753906 29.292969 L 154.101562 45.210938 " transform="matrix(1,0,0,1,-49.5,-3.75)"/>
<path style="fill:none;stroke-width:1.5;stroke-linecap:square;stroke-linejoin:miter;stroke:rgb(0%,0%,0%);stroke-opacity:0.7;stroke-miterlimit:3.25;" d="M 154.101562 45.210938 Z M 154.101562 45.210938 " transform="matrix(1,0,0,1,-49.5,-3.75)"/>
<path style="fill:none;stroke-width:1.5;stroke-linecap:butt;stroke-linejoin:miter;stroke:rgb(0%,0%,0%);stroke-opacity:0.7;stroke-miterlimit:3.25;" d="M 309.757812 28.523438 L 262.296875 28.527344 " transform="matrix(1,0,0,1,-49.5,-3.75)"/>
<path style="fill:none;stroke-width:1.5;stroke-linecap:square;stroke-linejoin:miter;stroke:rgb(0%,0%,0%);stroke-opacity:0.7;stroke-miterlimit:3.25;" d="M 262.296875 28.527344 Z M 262.296875 28.527344 " transform="matrix(1,0,0,1,-49.5,-3.75)"/>
<path style="fill:none;stroke-width:1.5;stroke-linecap:butt;stroke-linejoin:miter;stroke:rgb(0%,0%,0%);stroke-opacity:0.7;stroke-dasharray:3,3;stroke-miterlimit:3.25;" d="M 258.085938 27.78125 L 214.652344 11.859375 " transform="matrix(1,0,0,1,-49.5,-3.75)"/>
<path style="fill:none;stroke-width:1.5;stroke-linecap:butt;stroke-linejoin:miter;stroke:rgb(0%,0%,0%);stroke-opacity:0.7;stroke-dasharray:3,3;stroke-miterlimit:3.25;" d="M 214.652344 11.859375 Z M 214.652344 11.859375 " transform="matrix(1,0,0,1,-49.5,-3.75)"/>
<path style="fill:none;stroke-width:1.5;stroke-linecap:butt;stroke-linejoin:miter;stroke:rgb(0%,0%,0%);stroke-opacity:0.7;stroke-dasharray:3,3;stroke-miterlimit:3.25;" d="M 258.085938 29.277344 L 214.699219 45.21875 " transform="matrix(1,0,0,1,-49.5,-3.75)"/>
<path style="fill:none;stroke-width:1.5;stroke-linecap:butt;stroke-linejoin:miter;stroke:rgb(0%,0%,0%);stroke-opacity:0.7;stroke-dasharray:3,3;stroke-miterlimit:3.25;" d="M 214.699219 45.21875 Z M 214.699219 45.21875 " transform="matrix(1,0,0,1,-49.5,-3.75)"/>
<path style="fill:none;stroke-width:1.5;stroke-linecap:butt;stroke-linejoin:miter;stroke:rgb(0%,0%,0%);stroke-opacity:0.7;stroke-dasharray:3,3;stroke-miterlimit:3.25;" d="M 212.617188 13.285156 L 212.660156 43.796875 " transform="matrix(1,0,0,1,-49.5,-3.75)"/>
<path style="fill:none;stroke-width:1.5;stroke-linecap:butt;stroke-linejoin:miter;stroke:rgb(0%,0%,0%);stroke-opacity:0.7;stroke-dasharray:3,3;stroke-miterlimit:3.25;" d="M 212.660156 43.796875 Z M 212.660156 43.796875 " transform="matrix(1,0,0,1,-49.5,-3.75)"/>
<path style="fill:none;stroke-width:1.5;stroke-linecap:butt;stroke-linejoin:miter;stroke:rgb(0%,0%,0%);stroke-opacity:0.7;stroke-dasharray:3,3;stroke-miterlimit:3.25;" d="M 210.445312 11.113281 L 158.285156 11.105469 " transform="matrix(1,0,0,1,-49.5,-3.75)"/>
<path style="fill:none;stroke-width:1.5;stroke-linecap:butt;stroke-linejoin:miter;stroke:rgb(0%,0%,0%);stroke-opacity:0.7;stroke-dasharray:3,3;stroke-miterlimit:3.25;" d="M 158.285156 11.105469 Z M 158.285156 11.105469 " transform="matrix(1,0,0,1,-49.5,-3.75)"/>
<g clip-path="url(#clip1)" clip-rule="nonzero">
<path style="fill:none;stroke-width:1.5;stroke-linecap:butt;stroke-linejoin:miter;stroke:rgb(0%,0%,0%);stroke-opacity:0.7;stroke-dasharray:3,3;stroke-miterlimit:3.25;" d="M 210.492188 45.96875 L 158.308594 45.960938 " transform="matrix(1,0,0,1,-49.5,-3.75)"/>
</g>
<path style="fill:none;stroke-width:1.5;stroke-linecap:butt;stroke-linejoin:miter;stroke:rgb(0%,0%,0%);stroke-opacity:0.7;stroke-dasharray:3,3;stroke-miterlimit:3.25;" d="M 158.308594 45.960938 Z M 158.308594 45.960938 " transform="matrix(1,0,0,1,-49.5,-3.75)"/>
<path style="fill:none;stroke-width:1.5;stroke-linecap:butt;stroke-linejoin:miter;stroke:rgb(0%,0%,0%);stroke-opacity:0.7;stroke-dasharray:3,3;stroke-miterlimit:3.25;" d="M 156.113281 13.277344 L 156.136719 43.789062 " transform="matrix(1,0,0,1,-49.5,-3.75)"/>
<path style="fill:none;stroke-width:1.5;stroke-linecap:butt;stroke-linejoin:miter;stroke:rgb(0%,0%,0%);stroke-opacity:0.7;stroke-dasharray:3,3;stroke-miterlimit:3.25;" d="M 156.136719 43.789062 Z M 156.136719 43.789062 " transform="matrix(1,0,0,1,-49.5,-3.75)"/>
<path style="fill-rule:evenodd;fill:rgb(63.998413%,70.399475%,79.998779%);fill-opacity:1;stroke-width:0.75;stroke-linecap:square;stroke-linejoin:miter;stroke:rgb(0%,0%,0%);stroke-opacity:0.7;stroke-miterlimit:3.25;" d="M 59.242188 28.527344 C 59.242188 27.949219 59.011719 27.398438 58.605469 26.992188 C 58.199219 26.582031 57.648438 26.355469 57.070312 26.355469 C 56.496094 26.355469 55.941406 26.582031 55.535156 26.992188 C 55.128906 27.398438 54.898438 27.949219 54.898438 28.527344 C 54.898438 29.101562 55.128906 29.652344 55.535156 30.0625 C 55.941406 30.46875 56.496094 30.695312 57.070312 30.695312 C 57.648438 30.695312 58.199219 30.46875 58.605469 30.0625 C 59.011719 29.652344 59.242188 29.101562 59.242188 28.527344 Z M 59.242188 28.527344 " transform="matrix(1,0,0,1,-49.5,-3.75)"/>
<path style="fill-rule:evenodd;fill:rgb(63.998413%,70.399475%,79.998779%);fill-opacity:1;stroke-width:0.75;stroke-linecap:square;stroke-linejoin:miter;stroke:rgb(0%,0%,0%);stroke-opacity:0.7;stroke-miterlimit:3.25;" d="M 110.886719 28.546875 C 110.886719 27.96875 110.65625 27.417969 110.25 27.011719 C 109.84375 26.605469 109.289062 26.375 108.714844 26.375 C 108.136719 26.375 107.585938 26.605469 107.179688 27.011719 C 106.773438 27.417969 106.542969 27.96875 106.542969 28.546875 C 106.542969 29.121094 106.773438 29.675781 107.179688 30.082031 C 107.585938 30.488281 108.136719 30.71875 108.714844 30.71875 C 109.289062 30.71875 109.84375 30.488281 110.25 30.082031 C 110.65625 29.675781 110.886719 29.121094 110.886719 28.546875 Z M 110.886719 28.546875 " transform="matrix(1,0,0,1,-49.5,-3.75)"/>
<path style="fill-rule:evenodd;fill:rgb(63.998413%,70.399475%,79.998779%);fill-opacity:1;stroke-width:0.75;stroke-linecap:square;stroke-linejoin:miter;stroke:rgb(0%,0%,0%);stroke-opacity:0.7;stroke-miterlimit:3.25;" d="M 314.101562 28.523438 C 314.101562 27.949219 313.871094 27.394531 313.464844 26.988281 C 313.058594 26.582031 312.503906 26.351562 311.929688 26.351562 C 311.351562 26.351562 310.800781 26.582031 310.394531 26.988281 C 309.988281 27.394531 309.757812 27.949219 309.757812 28.523438 C 309.757812 29.101562 309.988281 29.652344 310.394531 30.058594 C 310.800781 30.464844 311.351562 30.695312 311.929688 30.695312 C 312.503906 30.695312 313.058594 30.464844 313.464844 30.058594 C 313.871094 29.652344 314.101562 29.101562 314.101562 28.523438 Z M 314.101562 28.523438 " transform="matrix(1,0,0,1,-49.5,-3.75)"/>
<path style="fill-rule:evenodd;fill:rgb(63.998413%,70.399475%,79.998779%);fill-opacity:1;stroke-width:0.75;stroke-linecap:square;stroke-linejoin:miter;stroke:rgb(0%,0%,0%);stroke-opacity:0.7;stroke-miterlimit:3.25;" d="M 262.296875 28.527344 C 262.296875 27.953125 262.066406 27.398438 261.660156 26.992188 C 261.253906 26.585938 260.699219 26.355469 260.125 26.355469 C 259.550781 26.355469 258.996094 26.585938 258.589844 26.992188 C 258.183594 27.398438 257.953125 27.953125 257.953125 28.527344 C 257.953125 29.101562 258.183594 29.65625 258.589844 30.0625 C 258.996094 30.46875 259.550781 30.699219 260.125 30.699219 C 260.699219 30.699219 261.253906 30.46875 261.660156 30.0625 C 262.066406 29.65625 262.296875 29.101562 262.296875 28.527344 Z M 262.296875 28.527344 " transform="matrix(1,0,0,1,-49.5,-3.75)"/>
<path style="fill-rule:evenodd;fill:rgb(63.998413%,70.399475%,79.998779%);fill-opacity:1;stroke-width:0.75;stroke-linecap:square;stroke-linejoin:miter;stroke:rgb(0%,0%,0%);stroke-opacity:0.7;stroke-miterlimit:3.25;" d="M 214.785156 11.113281 C 214.785156 10.535156 214.554688 9.984375 214.148438 9.578125 C 213.742188 9.171875 213.191406 8.941406 212.613281 8.941406 C 212.039062 8.941406 211.488281 9.171875 211.078125 9.578125 C 210.671875 9.984375 210.445312 10.535156 210.445312 11.113281 C 210.445312 11.6875 210.671875 12.242188 211.078125 12.648438 C 211.488281 13.054688 212.039062 13.285156 212.613281 13.285156 C 213.191406 13.285156 213.742188 13.054688 214.148438 12.648438 C 214.554688 12.242188 214.785156 11.6875 214.785156 11.113281 Z M 214.785156 11.113281 " transform="matrix(1,0,0,1,-49.5,-3.75)"/>
<path style="fill-rule:evenodd;fill:rgb(63.998413%,70.399475%,79.998779%);fill-opacity:1;stroke-width:0.75;stroke-linecap:square;stroke-linejoin:miter;stroke:rgb(0%,0%,0%);stroke-opacity:0.7;stroke-miterlimit:3.25;" d="M 214.832031 45.96875 C 214.832031 45.390625 214.605469 44.839844 214.199219 44.433594 C 213.789062 44.027344 213.238281 43.796875 212.664062 43.796875 C 212.085938 43.796875 211.535156 44.027344 211.128906 44.433594 C 210.71875 44.839844 210.492188 45.390625 210.492188 45.96875 C 210.492188 46.542969 210.71875 47.09375 211.128906 47.503906 C 211.535156 47.910156 212.085938 48.136719 212.664062 48.136719 C 213.238281 48.136719 213.789062 47.910156 214.199219 47.503906 C 214.605469 47.09375 214.832031 46.542969 214.832031 45.96875 Z M 214.832031 45.96875 " transform="matrix(1,0,0,1,-49.5,-3.75)"/>
<path style="fill-rule:evenodd;fill:rgb(63.998413%,70.399475%,79.998779%);fill-opacity:1;stroke-width:0.75;stroke-linecap:square;stroke-linejoin:miter;stroke:rgb(0%,0%,0%);stroke-opacity:0.7;stroke-miterlimit:3.25;" d="M 158.285156 11.105469 C 158.285156 10.527344 158.054688 9.976562 157.648438 9.570312 C 157.242188 9.164062 156.6875 8.933594 156.113281 8.933594 C 155.539062 8.933594 154.984375 9.164062 154.578125 9.570312 C 154.171875 9.976562 153.941406 10.527344 153.941406 11.105469 C 153.941406 11.679688 154.171875 12.234375 154.578125 12.640625 C 154.984375 13.046875 155.539062 13.277344 156.113281 13.277344 C 156.6875 13.277344 157.242188 13.046875 157.648438 12.640625 C 158.054688 12.234375 158.285156 11.679688 158.285156 11.105469 Z M 158.285156 11.105469 " transform="matrix(1,0,0,1,-49.5,-3.75)"/>
<path style="fill-rule:evenodd;fill:rgb(63.998413%,70.399475%,79.998779%);fill-opacity:1;stroke-width:0.75;stroke-linecap:square;stroke-linejoin:miter;stroke:rgb(0%,0%,0%);stroke-opacity:0.7;stroke-miterlimit:3.25;" d="M 158.308594 45.960938 C 158.308594 45.386719 158.082031 44.832031 157.671875 44.425781 C 157.265625 44.019531 156.714844 43.789062 156.136719 43.789062 C 155.5625 43.789062 155.011719 44.019531 154.601562 44.425781 C 154.195312 44.832031 153.96875 45.386719 153.96875 45.960938 C 153.96875 46.535156 154.195312 47.089844 154.601562 47.496094 C 155.011719 47.902344 155.5625 48.132812 156.136719 48.132812 C 156.714844 48.132812 157.265625 47.902344 157.671875 47.496094 C 158.082031 47.089844 158.308594 46.535156 158.308594 45.960938 Z M 158.308594 45.960938 " transform="matrix(1,0,0,1,-49.5,-3.75)"/>
</g>
</svg>
