<?xml version="1.0" encoding="UTF-8" standalone="no"?>
<!-- Created with Inkscape (http://www.inkscape.org/) -->

<svg
   version="1.1"
   id="svg2"
   width="541.33331"
   height="232"
   viewBox="0 0 541.33331 232"
   sodipodi:docname="0fojluz3gvvqo.pdf"
   xmlns:inkscape="http://www.inkscape.org/namespaces/inkscape"
   xmlns:sodipodi="http://sodipodi.sourceforge.net/DTD/sodipodi-0.dtd"
   xmlns="http://www.w3.org/2000/svg"
   xmlns:svg="http://www.w3.org/2000/svg">
  <defs
     id="defs6">
    <clipPath
       clipPathUnits="userSpaceOnUse"
       id="clipPath166">
      <path
         d="m 8,164 h 6.641 v 5 H 8 Z"
         id="path164" />
    </clipPath>
  </defs>
  <sodipodi:namedview
     id="namedview4"
     pagecolor="#ffffff"
     bordercolor="#999999"
     borderopacity="1"
     inkscape:showpageshadow="0"
     inkscape:pageopacity="0"
     inkscape:pagecheckerboard="0"
     inkscape:deskcolor="#d1d1d1" />
  <g
     id="g8"
     inkscape:groupmode="layer"
     inkscape:label="0fojluz3gvvqo"
     transform="matrix(1.3333333,0,0,1.3333333,0,5.8e-6)">
    <g
       id="g10">
      <path
         d="M 4.602,1 C 3.379,1 2.211,1.484 1.348,2.348 0.484,3.211 0,4.379 0,5.602 v 162.796 c 0,1.223 0.484,2.391 1.348,3.254 0.863,0.864 2.031,1.348 3.254,1.348 h 396.796 c 1.223,0 2.391,-0.484 3.254,-1.348 0.864,-0.863 1.348,-2.031 1.348,-3.254 V 5.602 C 406,4.379 405.516,3.211 404.652,2.348 403.789,1.484 402.621,1 401.398,1 Z"
         style="fill:#ffffff;fill-opacity:1;fill-rule:evenodd;stroke:none"
         id="path12" />
      <path
         d="M 1,2.199 H 402.273 V 13.07 H 1 Z"
         style="fill:#f8f8f8;fill-opacity:1;fill-rule:evenodd;stroke:none"
         id="path14" />
      <path
         d="m 402.273,2.199 h 1.871 V 13.07 h -1.871 z"
         style="fill:#f8f8f8;fill-opacity:1;fill-rule:evenodd;stroke:none"
         id="path16" />
      <path
         d="M 1,13.215 H 402.273 V 159.918 H 1 Z"
         style="fill:#f3fbff;fill-opacity:1;fill-rule:evenodd;stroke:none"
         id="path18" />
      <path
         d="m 402.273,13.215 h 1.871 v 146.703 h -1.871 z"
         style="fill:#f3fbff;fill-opacity:1;fill-rule:evenodd;stroke:none"
         id="path20" />
      <path
         d="m 1,160.062 h 403.145 v 11.871 H 1 Z"
         style="fill:#f8f8f8;fill-opacity:1;fill-rule:evenodd;stroke:none"
         id="path22" />
      <text
         xml:space="preserve"
         transform="translate(5.426875,9.918406)"
         style="font-variant:normal;font-size:6.48px;font-family:CairoFont-0;-inkscape-font-specification:CairoFont-0-0;writing-mode:lr-tb;fill:#777777;fill-opacity:1;fill-rule:nonzero;stroke:none"
         id="text26"><tspan
           x="0 3.5575199 6.8623199 12.92112 16.906321 20.826719"
           y="0"
           sodipodi:role="line"
           id="tspan24">Symbol</tspan></text>
      <text
         xml:space="preserve"
         transform="translate(8.2,32.286406)"
         style="font-variant:normal;font-size:8.64px;font-family:CairoFont-0;-inkscape-font-specification:CairoFont-0-0;writing-mode:lr-tb;fill:#000000;fill-opacity:1;fill-rule:nonzero;stroke:none"
         id="text30"><tspan
           x="0 4.52736 6.7564802 12.07008 17.409599 20.528641 25.98912 31.21632 36.55584 41.428799 46.630081 51.50304 55.071362 60.38496 65.257919 70.597443 75.911041 78.14016 82.287361 87.60096 89.830078 94.677116 98.245438 103.70592 108.93312 117.01152 122.32512 127.55232 132.89185 137.7648 143.0784"
           y="0"
           sodipodi:role="line"
           id="tspan28">LightConePerpendicularComponent</tspan></text>
      <text
         xml:space="preserve"
         transform="translate(160.264,32.286406)"
         style="font-variant:normal;font-size:8.64px;font-family:CairoFont-1;-inkscape-font-specification:CairoFont-1-0;writing-mode:lr-tb;fill:#000000;fill-opacity:1;fill-rule:nonzero;stroke:none"
         id="text34"><tspan
           x="0"
           y="0"
           id="tspan32">[</tspan></text>
      <text
         xml:space="preserve"
         transform="translate(162.75232,32.286406)"
         style="font-variant:normal;font-size:8.64px;font-family:CairoFont-0;-inkscape-font-specification:CairoFont-0-0;writing-mode:lr-tb;fill:#000000;fill-opacity:1;fill-rule:nonzero;stroke:none"
         id="text38"><tspan
           x="0 4.52736 9.7545605 13.32288 18.195841 23.53536 26.6544 30.7152 33.644161 38.983681 44.271358 49.144321"
           y="0"
           sodipodi:role="line"
           id="tspan36">LorentzIndex</tspan></text>
      <text
         xml:space="preserve"
         transform="translate(218.60128,32.286406)"
         style="font-variant:normal;font-size:8.64px;font-family:CairoFont-1;-inkscape-font-specification:CairoFont-1-0;writing-mode:lr-tb;fill:#000000;fill-opacity:1;fill-rule:nonzero;stroke:none"
         id="text42"><tspan
           x="0"
           y="0"
           id="tspan40">[</tspan></text>
      <text
         xml:space="preserve"
         transform="translate(221.0896,32.286406)"
         style="font-variant:normal;font-size:8.64px;font-family:CairoFont-0;-inkscape-font-specification:CairoFont-0-0;writing-mode:lr-tb;fill:#000000;fill-opacity:1;fill-rule:nonzero;stroke:none"
         id="text46"><tspan
           x="0 8.0783997"
           y="0"
           sodipodi:role="line"
           id="tspan44">mu</tspan></text>
      <text
         xml:space="preserve"
         transform="translate(235.0432,32.286406)"
         style="font-variant:normal;font-size:8.64px;font-family:CairoFont-1;-inkscape-font-specification:CairoFont-1-0;writing-mode:lr-tb;fill:#000000;fill-opacity:1;fill-rule:nonzero;stroke:none"
         id="text50"><tspan
           x="0"
           y="0"
           id="tspan48">]</tspan></text>
      <text
         xml:space="preserve"
         transform="translate(237.54016,32.286406)"
         style="font-variant:normal;font-size:8.64px;font-family:CairoFont-0;-inkscape-font-specification:CairoFont-0-0;writing-mode:lr-tb;fill:#000000;fill-opacity:1;fill-rule:nonzero;stroke:none"
         id="text54"><tspan
           x="0 2.4019201 10.2384 15.4656 23.544001 28.41696 33.756481 36.875519 42.215038"
           y="0"
           sodipodi:role="line"
           id="tspan52">,Momentum</tspan></text>
      <text
         xml:space="preserve"
         transform="translate(289.74304,32.286406)"
         style="font-variant:normal;font-size:8.64px;font-family:CairoFont-1;-inkscape-font-specification:CairoFont-1-0;writing-mode:lr-tb;fill:#000000;fill-opacity:1;fill-rule:nonzero;stroke:none"
         id="text58"><tspan
           x="0"
           y="0"
           id="tspan56">[</tspan></text>
      <text
         xml:space="preserve"
         transform="translate(292.23136,32.286406)"
         style="font-variant:normal;font-size:8.64px;font-family:CairoFont-0;-inkscape-font-specification:CairoFont-0-0;writing-mode:lr-tb;fill:#000000;fill-opacity:1;fill-rule:nonzero;stroke:none"
         id="text62"><tspan
           x="0"
           y="0"
           id="tspan60">n</tspan></text>
      <text
         xml:space="preserve"
         transform="translate(297.77824,32.286406)"
         style="font-variant:normal;font-size:8.64px;font-family:CairoFont-1;-inkscape-font-specification:CairoFont-1-0;writing-mode:lr-tb;fill:#000000;fill-opacity:1;fill-rule:nonzero;stroke:none"
         id="text66"><tspan
           x="0"
           y="0"
           id="tspan64">]</tspan></text>
      <text
         xml:space="preserve"
         transform="translate(300.2752,32.286406)"
         style="font-variant:normal;font-size:8.64px;font-family:CairoFont-0;-inkscape-font-specification:CairoFont-0-0;writing-mode:lr-tb;fill:#000000;fill-opacity:1;fill-rule:nonzero;stroke:none"
         id="text70"><tspan
           x="0 2.4019201 10.2384 15.4656 23.544001 28.41696 33.756481 36.875519 42.215038"
           y="0"
           sodipodi:role="line"
           id="tspan68">,Momentum</tspan></text>
      <text
         xml:space="preserve"
         transform="translate(352.47808,32.286406)"
         style="font-variant:normal;font-size:8.64px;font-family:CairoFont-1;-inkscape-font-specification:CairoFont-1-0;writing-mode:lr-tb;fill:#000000;fill-opacity:1;fill-rule:nonzero;stroke:none"
         id="text74"><tspan
           x="0"
           y="0"
           id="tspan72">[</tspan></text>
      <text
         xml:space="preserve"
         transform="translate(354.9664,32.286406)"
         style="font-variant:normal;font-size:8.64px;font-family:CairoFont-0;-inkscape-font-specification:CairoFont-0-0;writing-mode:lr-tb;fill:#000000;fill-opacity:1;fill-rule:nonzero;stroke:none"
         id="text78"><tspan
           x="0 5.33952"
           y="0"
           sodipodi:role="line"
           id="tspan76">nb</tspan></text>
      <text
         xml:space="preserve"
         transform="translate(366.05152,32.286406)"
         style="font-variant:normal;font-size:8.64px;font-family:CairoFont-1;-inkscape-font-specification:CairoFont-1-0;writing-mode:lr-tb;fill:#000000;fill-opacity:1;fill-rule:nonzero;stroke:none"
         id="text82"><tspan
           x="0 2.4883201"
           y="0"
           sodipodi:role="line"
           id="tspan80">]]</tspan></text>
      <text
         xml:space="preserve"
         transform="translate(8.2,51.764845)"
         style="font-variant:normal;font-size:8.64px;font-family:CairoFont-0;-inkscape-font-specification:CairoFont-0-0;writing-mode:lr-tb;fill:#000000;fill-opacity:1;fill-rule:nonzero;stroke:none"
         id="text90"><tspan
           x="0 5.3136001 10.18656 15.52608 20.753281 23.87232 28.745279 36.504002 39.623039 44.962559 52.669441 57.98304 62.855999 66.424316 71.737923 76.610878 81.950401 87.264 89.493118 93.614403 98.953918 101.18304 106.03008 114.20352 118.35072 123.57792 131.65633 136.96992 142.19711 147.53664 152.40961 157.72321 165.04993 170.27711 176.29056 179.40961 184.74911 192.46465 196.992 202.21919 205.78752 210.66048 216 219.11903 226.69632 228.92545 234.26495 239.57857 244.45152 252.22752 260.30591 268.51392 275.30496 277.53409 280.65311 288.99936 292.56769 297.44064 301.57919 306.89279 311.76575 315.91296 322.53119 325.65024"
           y="0"
           sodipodi:role="line"
           id="tspan84">denotestheperpendicularcomponentoftheLorentzindexmuwithrespectto</tspan><tspan
           x="0 3.11904 8.45856 16.17408 18.4032 20.63232 25.945921 31.28544 34.40448 38.551682 43.75296 49.09248 57.792961 65.871361 71.098557 79.176964 84.049919 89.389442 92.508476 101.26944 109.14048 113.98752 119.32704 127.59552 132.93504 138.672"
           y="19.478439"
           sodipodi:role="line"
           id="tspan86">thelightconemomentanandnb.</tspan><tspan
           x="0 4.52736 6.7564802 12.07008 17.409599 20.528641 25.98912 31.21632 36.55584 41.428799 46.630081 51.50304 55.071362 60.38496 65.257919 70.597443 75.911041 78.14016 82.287361 87.60096 89.830078 94.677116 98.245438 103.70592 108.93312 117.01152 122.32512 127.55232 132.89185 137.7648 143.0784"
           y="58.435318"
           sodipodi:role="line"
           id="tspan88">LightConePerpendicularComponent</tspan></text>
      <text
         xml:space="preserve"
         transform="translate(160.264,110.20016)"
         style="font-variant:normal;font-size:8.64px;font-family:CairoFont-1;-inkscape-font-specification:CairoFont-1-0;writing-mode:lr-tb;fill:#000000;fill-opacity:1;fill-rule:nonzero;stroke:none"
         id="text94"><tspan
           x="0"
           y="0"
           id="tspan92">[</tspan></text>
      <text
         xml:space="preserve"
         transform="translate(162.75232,110.20016)"
         style="font-variant:normal;font-size:8.64px;font-family:CairoFont-0;-inkscape-font-specification:CairoFont-0-0;writing-mode:lr-tb;fill:#000000;fill-opacity:1;fill-rule:nonzero;stroke:none"
         id="text98"><tspan
           x="0 7.8364801 13.06368 21.14208 26.015039 31.354561 34.473598 39.813122"
           y="0"
           sodipodi:role="line"
           id="tspan96">Momentum</tspan></text>
      <text
         xml:space="preserve"
         transform="translate(212.55328,110.20016)"
         style="font-variant:normal;font-size:8.64px;font-family:CairoFont-1;-inkscape-font-specification:CairoFont-1-0;writing-mode:lr-tb;fill:#000000;fill-opacity:1;fill-rule:nonzero;stroke:none"
         id="text102"><tspan
           x="0"
           y="0"
           id="tspan100">[</tspan></text>
      <text
         xml:space="preserve"
         transform="translate(215.0416,110.20016)"
         style="font-variant:normal;font-size:8.64px;font-family:CairoFont-0;-inkscape-font-specification:CairoFont-0-0;writing-mode:lr-tb;fill:#000000;fill-opacity:1;fill-rule:nonzero;stroke:none"
         id="text106"><tspan
           x="0"
           y="0"
           id="tspan104">p</tspan></text>
      <text
         xml:space="preserve"
         transform="translate(220.57984,110.20016)"
         style="font-variant:normal;font-size:8.64px;font-family:CairoFont-1;-inkscape-font-specification:CairoFont-1-0;writing-mode:lr-tb;fill:#000000;fill-opacity:1;fill-rule:nonzero;stroke:none"
         id="text110"><tspan
           x="0"
           y="0"
           id="tspan108">]</tspan></text>
      <text
         xml:space="preserve"
         transform="translate(223.06816,110.20016)"
         style="font-variant:normal;font-size:8.64px;font-family:CairoFont-0;-inkscape-font-specification:CairoFont-0-0;writing-mode:lr-tb;fill:#000000;fill-opacity:1;fill-rule:nonzero;stroke:none"
         id="text114"><tspan
           x="0 2.4105599 10.24704 15.47424 23.552641 28.4256 33.765121 36.884159 42.223679"
           y="0"
           sodipodi:role="line"
           id="tspan112">,Momentum</tspan></text>
      <text
         xml:space="preserve"
         transform="translate(275.27104,110.20016)"
         style="font-variant:normal;font-size:8.64px;font-family:CairoFont-1;-inkscape-font-specification:CairoFont-1-0;writing-mode:lr-tb;fill:#000000;fill-opacity:1;fill-rule:nonzero;stroke:none"
         id="text118"><tspan
           x="0"
           y="0"
           id="tspan116">[</tspan></text>
      <text
         xml:space="preserve"
         transform="translate(277.768,110.20016)"
         style="font-variant:normal;font-size:8.64px;font-family:CairoFont-0;-inkscape-font-specification:CairoFont-0-0;writing-mode:lr-tb;fill:#000000;fill-opacity:1;fill-rule:nonzero;stroke:none"
         id="text122"><tspan
           x="0"
           y="0"
           id="tspan120">n</tspan></text>
      <text
         xml:space="preserve"
         transform="translate(283.31488,110.20016)"
         style="font-variant:normal;font-size:8.64px;font-family:CairoFont-1;-inkscape-font-specification:CairoFont-1-0;writing-mode:lr-tb;fill:#000000;fill-opacity:1;fill-rule:nonzero;stroke:none"
         id="text126"><tspan
           x="0"
           y="0"
           id="tspan124">]</tspan></text>
      <text
         xml:space="preserve"
         transform="translate(285.8032,110.20016)"
         style="font-variant:normal;font-size:8.64px;font-family:CairoFont-0;-inkscape-font-specification:CairoFont-0-0;writing-mode:lr-tb;fill:#000000;fill-opacity:1;fill-rule:nonzero;stroke:none"
         id="text130"><tspan
           x="0 2.4105599 10.24704 15.47424 23.552641 28.4256 33.765121 36.884159 42.223679"
           y="0"
           sodipodi:role="line"
           id="tspan128">,Momentum</tspan></text>
      <text
         xml:space="preserve"
         transform="translate(338.00608,110.20016)"
         style="font-variant:normal;font-size:8.64px;font-family:CairoFont-1;-inkscape-font-specification:CairoFont-1-0;writing-mode:lr-tb;fill:#000000;fill-opacity:1;fill-rule:nonzero;stroke:none"
         id="text134"><tspan
           x="0"
           y="0"
           id="tspan132">[</tspan></text>
      <text
         xml:space="preserve"
         transform="translate(340.50304,110.20016)"
         style="font-variant:normal;font-size:8.64px;font-family:CairoFont-0;-inkscape-font-specification:CairoFont-0-0;writing-mode:lr-tb;fill:#000000;fill-opacity:1;fill-rule:nonzero;stroke:none"
         id="text138"><tspan
           x="0 5.33952"
           y="0"
           sodipodi:role="line"
           id="tspan136">nb</tspan></text>
      <text
         xml:space="preserve"
         transform="translate(351.57952,110.20016)"
         style="font-variant:normal;font-size:8.64px;font-family:CairoFont-1;-inkscape-font-specification:CairoFont-1-0;writing-mode:lr-tb;fill:#000000;fill-opacity:1;fill-rule:nonzero;stroke:none"
         id="text142"><tspan
           x="0 2.4883201"
           y="0"
           sodipodi:role="line"
           id="tspan140">]]</tspan></text>
      <text
         xml:space="preserve"
         transform="translate(358.88896,110.20016)"
         style="font-variant:normal;font-size:8.64px;font-family:CairoFont-0;-inkscape-font-specification:CairoFont-0-0;writing-mode:lr-tb;fill:#000000;fill-opacity:1;fill-rule:nonzero;stroke:none"
         id="text148"><tspan
           x="0 5.3136001 10.18656 15.52608 20.753281 23.87232 28.745279"
           y="0"
           sodipodi:role="line"
           id="tspan144">denotes</tspan><tspan
           x="-350.68896 -347.56992 -342.23041 -334.51489 -329.20129 -324.32831 -320.76001 -315.44641 -310.57343 -305.23392 -299.94623 -297.71713 -293.56992 -288.23041 -286.00128 -281.15424 -272.98944 -268.84225 -263.61505 -255.53664 -250.22304 -244.99583 -239.65633 -234.78336 -229.44383 -222.14304 -216.91583 -210.89375 -207.77472 -202.4352 -194.72832"
           y="19.478439"
           sodipodi:role="line"
           id="tspan146">theperpendicularcomponentofthe4</tspan></text>
      <text
         xml:space="preserve"
         transform="translate(169.30144,129.6786)"
         style="font-variant:normal;font-size:8.64px;font-family:CairoFont-1;-inkscape-font-specification:CairoFont-1-0;writing-mode:lr-tb;fill:#000000;fill-opacity:1;fill-rule:nonzero;stroke:none"
         id="text152"><tspan
           x="0"
           y="0"
           id="tspan150">-</tspan></text>
      <text
         xml:space="preserve"
         transform="translate(174.54592,129.6786)"
         style="font-variant:normal;font-size:8.64px;font-family:CairoFont-0;-inkscape-font-specification:CairoFont-0-0;writing-mode:lr-tb;fill:#000000;fill-opacity:1;fill-rule:nonzero;stroke:none"
         id="text158"><tspan
           x="0 8.0783997 13.3056 21.384001 26.25696 31.596479 34.715519 40.055038 52.375679 60.238079 67.029121 69.25824 72.377281 80.723518 84.29184 89.164803 93.30336 98.616959 103.48992 107.63712 114.25536 117.3744 125.25408 128.37312 133.71265 141.41953 143.64864 145.87776 151.19136 156.53088 159.64992 163.79712 169.02432 174.36385"
           y="0"
           sodipodi:role="line"
           id="tspan154">momentumpwithrespecttothelightcone</tspan><tspan
           x="-166.34592 -158.26752 -153.04031 -144.96191 -140.08896 -134.74944 -131.6304 -122.87808 -114.9984 -110.15136 -104.81184 -96.552002 -91.212479 -85.466881"
           y="19.478439"
           sodipodi:role="line"
           id="tspan156">momentanandnb.</tspan></text>
    </g>
    <g
       id="g160">
      <g
         id="g162"
         clip-path="url(#clipPath166)">
        <path
           d="m 8.922,165.414 2.156,1.922 2.16,-1.922"
           style="fill:none;stroke:#636363;stroke-width:1.26;stroke-linecap:square;stroke-linejoin:miter;stroke-miterlimit:3.25;stroke-dasharray:none;stroke-opacity:1"
           id="path168" />
      </g>
    </g>
    <g
       id="g170">
      <path
         d="m 1,13.07 h 403.145 v 0.145 H 1 Z"
         style="fill:#cccccc;fill-opacity:1;fill-rule:evenodd;stroke:none"
         id="path172" />
      <path
         d="m 1,159.918 h 403.145 v 0.145 H 1 Z"
         style="fill:#cccccc;fill-opacity:1;fill-rule:evenodd;stroke:none"
         id="path174" />
      <path
         d="M 4.102,1.5 C 3.145,1.5 2.23,1.879 1.555,2.555 0.879,3.23 0.5,4.145 0.5,5.102 v 163.796 c 0,0.957 0.379,1.872 1.055,2.547 0.675,0.676 1.59,1.055 2.547,1.055 h 397.796 c 0.957,0 1.872,-0.379 2.547,-1.055 0.676,-0.675 1.055,-1.59 1.055,-2.547 V 5.102 C 405.5,4.145 405.121,3.23 404.445,2.555 403.77,1.879 402.855,1.5 401.898,1.5 Z"
         style="fill:none;stroke:#d9d9d9;stroke-width:1;stroke-linecap:square;stroke-linejoin:miter;stroke-miterlimit:10;stroke-dasharray:none;stroke-opacity:1"
         id="path176" />
    </g>
  </g>
</svg>
