<?xml version="1.0" encoding="UTF-8" standalone="no"?>
<!-- Created with Inkscape (http://www.inkscape.org/) -->

<svg
   version="1.1"
   id="svg1"
   width="289.33334"
   height="20"
   viewBox="0 0 289.33334 20"
   sodipodi:docname="0gap32avu3bc5.pdf"
   xmlns:inkscape="http://www.inkscape.org/namespaces/inkscape"
   xmlns:sodipodi="http://sodipodi.sourceforge.net/DTD/sodipodi-0.dtd"
   xmlns="http://www.w3.org/2000/svg"
   xmlns:svg="http://www.w3.org/2000/svg">
  <defs
     id="defs1">
    <clipPath
       clipPathUnits="userSpaceOnUse"
       id="clipPath2">
      <path
         d="m 0,3 h 12.961 v 9 H 0 Z"
         id="path2" />
    </clipPath>
    <clipPath
       clipPathUnits="userSpaceOnUse"
       id="clipPath4">
      <path
         d="m 0,3 h 12.961 v 9 H 0 Z"
         id="path4" />
    </clipPath>
    <clipPath
       clipPathUnits="userSpaceOnUse"
       id="clipPath6">
      <path
         d="m 0,3 h 12.961 v 9 H 0 Z"
         id="path6" />
    </clipPath>
    <clipPath
       clipPathUnits="userSpaceOnUse"
       id="clipPath8">
      <path
         d="m 0,3 h 12.961 v 9 H 0 Z"
         id="path8" />
    </clipPath>
  </defs>
  <sodipodi:namedview
     id="namedview1"
     pagecolor="#ffffff"
     bordercolor="#999999"
     borderopacity="1"
     inkscape:showpageshadow="0"
     inkscape:pageopacity="0"
     inkscape:pagecheckerboard="0"
     inkscape:deskcolor="#d1d1d1">
    <inkscape:page
       x="0"
       y="0"
       id="page1"
       width="289.33334"
       height="20"
       margin="0"
       bleed="0" />
  </sodipodi:namedview>
  <g
     id="g1"
     inkscape:groupmode="layer"
     inkscape:label="">
    <path
       id="path1"
       d="m 12.113,6.73 c 0,-1.554 -1.261,-2.816 -2.816,-2.816 H 3.664 c -1.559,0 -2.82,1.262 -2.82,2.816 v 1.551 c 0,1.555 1.261,2.817 2.82,2.817 h 5.633 c 1.555,0 2.816,-1.262 2.816,-2.817 V 6.73"
       style="fill:none;stroke:#e5e5e5;stroke-width:0.7128;stroke-linecap:square;stroke-linejoin:miter;stroke-miterlimit:3.25;stroke-dasharray:none;stroke-opacity:1"
       transform="scale(1.3333333)"
       clip-path="url(#clipPath2)" />
    <path
       id="path3"
       d="M 7.258,7.508 C 7.258,7.711 7.176,7.91 7.031,8.055 6.883,8.203 6.688,8.285 6.48,8.285 6.273,8.285 6.074,8.203 5.93,8.055 5.785,7.91 5.703,7.711 5.703,7.508 5.703,7.301 5.785,7.102 5.93,6.957 6.074,6.809 6.273,6.727 6.48,6.727 c 0.208,0 0.403,0.082 0.551,0.23 0.145,0.145 0.227,0.344 0.227,0.551 z"
       style="fill:#ff5454;fill-opacity:1;fill-rule:evenodd;stroke:none"
       transform="scale(1.3333333)"
       clip-path="url(#clipPath4)" />
    <path
       id="path5"
       d="M 10.074,7.508 C 10.074,7.711 9.992,7.91 9.848,8.055 9.703,8.203 9.504,8.285 9.297,8.285 9.09,8.285 8.895,8.203 8.746,8.055 8.602,7.91 8.52,7.711 8.52,7.508 8.52,7.301 8.602,7.102 8.746,6.957 8.895,6.809 9.09,6.727 9.297,6.727 c 0.207,0 0.406,0.082 0.551,0.23 0.144,0.145 0.226,0.344 0.226,0.551 z"
       style="fill:#ff5454;fill-opacity:1;fill-rule:evenodd;stroke:none"
       transform="scale(1.3333333)"
       clip-path="url(#clipPath6)" />
    <path
       id="path7"
       d="M 4.441,7.508 C 4.441,7.711 4.359,7.91 4.211,8.055 4.066,8.203 3.867,8.285 3.664,8.285 3.457,8.285 3.258,8.203 3.113,8.055 2.969,7.91 2.887,7.711 2.887,7.508 c 0,-0.207 0.082,-0.406 0.226,-0.551 0.145,-0.148 0.344,-0.23 0.551,-0.23 0.203,0 0.402,0.082 0.547,0.23 0.148,0.145 0.23,0.344 0.23,0.551 z"
       style="fill:#ff5454;fill-opacity:1;fill-rule:evenodd;stroke:none"
       transform="scale(1.3333333)"
       clip-path="url(#clipPath8)" />
    <path
       id="path9"
       d="m 5.7649375,-2.8720703 c 0,0.4570312 -0.058594,0.8554687 -0.1757812,1.21875 -0.1054688,0.3515625 -0.2695313,0.66796874 -0.5039063,0.92578124 -0.2226562,0.2578125 -0.4921875,0.45703125 -0.8203125,0.59765625 -0.328125,0.140625 -0.703125,0.2109375 -1.1367187,0.2109375 -0.4453125,0 -0.84375,-0.0703125 -1.171875,-0.2109375 -0.328125,-0.140625 -0.609375,-0.33984375 -0.8203125,-0.59765625 C 0.913375,-0.98535156 0.7493125,-1.3017578 0.64384375,-1.6650391 0.538375,-2.0283203 0.4915,-2.4267578 0.4915,-2.8720703 c 0,-0.5859375 0.09375,-1.1015625 0.28125,-1.5351563 0.19921875,-0.4335937 0.4804688,-0.7851562 0.8789063,-1.03125 0.3867187,-0.234375 0.890625,-0.3632812 1.4882812,-0.3632812 0.5625,0 1.0429688,0.1289062 1.4414063,0.3632812 0.375,0.2460938 0.6796875,0.5859375 0.8789062,1.03125 0.1992188,0.4335938 0.3046875,0.9492188 0.3046875,1.5351563 z m -4.5117187,0 c 0,0.4804687 0.058594,0.9023437 0.1992187,1.2421875 0.1289063,0.3515625 0.328125,0.6210937 0.609375,0.80859374 0.28125,0.1875 0.6328125,0.28125 1.0664063,0.28125 0.4335937,0 0.7851562,-0.09375 1.0546875,-0.28125 C 4.4524375,-1.0087891 4.663375,-1.2783203 4.804,-1.6298828 c 0.1289063,-0.3398438 0.1992188,-0.7617188 0.1992188,-1.2421875 0,-0.7148438 -0.1523438,-1.2773438 -0.4453125,-1.6875 -0.3046875,-0.3984375 -0.7851563,-0.609375 -1.4179688,-0.609375 -0.4335937,0 -0.796875,0.09375 -1.078125,0.28125 -0.28125,0.1757812 -0.4804687,0.4453125 -0.609375,0.7851562 -0.140625,0.3515625 -0.1992187,0.7617188 -0.1992187,1.2304688 z m 7.7138671,-1.5 c 0.5273438,0 0.9492188,0.1875 1.2773441,0.5507812 0.316406,0.375 0.480468,0.9257813 0.480468,1.6640625 0,0.4921875 -0.07031,0.9023438 -0.222656,1.23046879 -0.140625,0.33984375 -0.351562,0.5859375 -0.6093748,0.76171875 -0.2695313,0.1640624975 -0.5742188,0.24609375 -0.9257813,0.24609375 -0.234375,0 -0.421875,-0.0234375 -0.5859375,-0.09375 -0.1757812,-0.046875 -0.328125,-0.12890625 -0.4453125,-0.22265625 -0.1171875,-0.09375 -0.2226562,-0.19921875 -0.3046875,-0.3046875 h -0.046875 c 0.011719,0.09375 0.011719,0.19921875 0.035156,0.33984375 0,0.140625 0.011719,0.2578125 0.011719,0.36328125 V 1.9208984 h -0.703125 v -6.2109375 h 0.5742188 l 0.09375,0.5859375 h 0.035156 c 0.082031,-0.1171875 0.1875,-0.234375 0.3046875,-0.3398437 0.1171875,-0.09375 0.2695313,-0.1757813 0.4335938,-0.234375 0.1640625,-0.058594 0.3632812,-0.09375 0.5976564,-0.09375 z m -0.1289062,0.5976562 c -0.28125,0 -0.515625,0.046875 -0.6914063,0.1640625 -0.1757812,0.1171875 -0.3046875,0.2695313 -0.3867187,0.4921875 -0.082031,0.2226563 -0.1289063,0.4921875 -0.1289063,0.8320313 v 0.1289062 c 0,0.3515625 0.035156,0.65625 0.1171875,0.9023438 0.070312,0.2460937 0.1992188,0.43359374 0.375,0.56249999 0.1757813,0.12890625 0.421875,0.1875 0.7382813,0.1875 0.2578125,0 0.46875,-0.0703125 0.6328125,-0.2109375 0.1757812,-0.15234375 0.3046875,-0.33984379 0.375,-0.58593749 0.082031,-0.2578125 0.1289062,-0.5390625 0.1289062,-0.8554688 0,-0.4921875 -0.09375,-0.890625 -0.28125,-1.1835937 -0.1992187,-0.28125 -0.4804687,-0.4335938 -0.8789062,-0.4335938 z m 4.4150393,3.28125004 c 0.105469,0 0.222656,-0.0117188 0.328125,-0.0234375 0.117187,-0.0234375 0.199219,-0.046875 0.28125,-0.0703125 v 0.5390625 c -0.08203,0.03515625 -0.1875,0.0703125 -0.328125,0.09375 -0.140625,0.0234375 -0.269531,0.03515625 -0.398438,0.03515625 -0.222656,0 -0.433593,-0.03515625 -0.621093,-0.1171875 -0.199219,-0.08203125 -0.351563,-0.2109375 -0.457032,-0.41015625 -0.117187,-0.1875 -0.175781,-0.4453125 -0.175781,-0.80859374 V -3.7509766 H 11.27275 v -0.328125 l 0.621094,-0.28125 0.269531,-0.9140625 h 0.421875 v 0.984375 h 1.242188 v 0.5390625 H 12.58525 v 2.484375 c 0,0.26953129 0.05859,0.45703129 0.1875,0.58593754 0.128906,0.12890625 0.28125,0.1875 0.480469,0.1875 z M 15.415328,-4.2900391 V -9.765625e-4 H 14.712203 V -4.2900391 Z m -0.339844,-1.6054687 c 0.105469,0 0.199219,0.035156 0.28125,0.1054687 0.08203,0.070312 0.128907,0.1875 0.128907,0.3398438 0,0.1523437 -0.04687,0.2578125 -0.128907,0.3398437 -0.08203,0.070312 -0.175781,0.1054688 -0.28125,0.1054688 -0.117187,0 -0.222656,-0.035156 -0.292968,-0.1054688 -0.08203,-0.082031 -0.128907,-0.1875 -0.128907,-0.3398437 0,-0.1523438 0.04687,-0.2695313 0.128907,-0.3398438 0.07031,-0.070312 0.175781,-0.1054687 0.292968,-0.1054687 z m 5.425782,3.7382812 c 0,0.3632813 -0.04687,0.6796875 -0.140625,0.9609375 -0.09375,0.26953129 -0.222657,0.50390629 -0.398438,0.69140629 -0.175781,0.1875 -0.386719,0.33984375 -0.632812,0.4453125 -0.246094,0.09375 -0.515625,0.140625 -0.820313,0.140625 -0.292969,0 -0.550781,-0.046875 -0.785156,-0.140625 -0.246094,-0.10546875 -0.457031,-0.2578125 -0.632813,-0.4453125 -0.175781,-0.1875 -0.316406,-0.421875 -0.410156,-0.69140629 -0.09375,-0.28125 -0.140625,-0.5976562 -0.140625,-0.9609375 0,-0.46875 0.07031,-0.8671875 0.234375,-1.1953125 0.164063,-0.328125 0.386719,-0.5742187 0.691406,-0.75 0.292969,-0.1757812 0.644532,-0.2695312 1.066407,-0.2695312 0.375,0 0.726562,0.09375 1.019531,0.2695312 0.292969,0.1757813 0.527344,0.421875 0.691406,0.75 0.175781,0.328125 0.257813,0.7265625 0.257813,1.1953125 z m -3.234375,0 c 0,0.3398438 0.03516,0.6328125 0.128906,0.8789063 0.08203,0.2578125 0.222656,0.44531249 0.410156,0.57421874 0.1875,0.140625 0.421875,0.19921875 0.714844,0.19921875 0.292969,0 0.515625,-0.0585938 0.714844,-0.19921875 0.175781,-0.12890625 0.316406,-0.31640624 0.410156,-0.57421874 0.08203,-0.2460938 0.128906,-0.5390625 0.128906,-0.8789063 0,-0.328125 -0.04687,-0.6328125 -0.128906,-0.8671875 -0.105469,-0.2460937 -0.234375,-0.421875 -0.421875,-0.5507812 -0.1875,-0.1289063 -0.421875,-0.1992188 -0.714844,-0.1992188 -0.433594,0 -0.761719,0.140625 -0.949219,0.4335938 -0.199218,0.28125 -0.292968,0.6796875 -0.292968,1.1835937 z m 6.377929,-2.2148437 c 0.515625,0 0.902344,0.1289062 1.160157,0.375 0.257812,0.2460937 0.398437,0.65625 0.398437,1.2070312 V -9.765625e-4 H 24.500289 V -2.7431641 c 0,-0.3515625 -0.07031,-0.5976562 -0.222656,-0.7851562 -0.164063,-0.1640625 -0.410156,-0.2460938 -0.738281,-0.2460938 -0.480469,0 -0.808594,0.1289063 -0.984375,0.3984375 -0.175782,0.2695313 -0.269532,0.65625 -0.269532,1.1484375 V -9.765625e-4 H 21.58232 V -4.2900391 h 0.574219 l 0.09375,0.5859375 h 0.04687 c 0.09375,-0.1523437 0.210938,-0.2695312 0.351563,-0.375 0.140625,-0.09375 0.292968,-0.1757812 0.46875,-0.2226562 0.175781,-0.046875 0.351562,-0.070312 0.527343,-0.070312 z M 30.652633,-5.7197266 28.61357,-9.765625e-4 H 27.887008 L 25.847945,-5.7197266 h 0.75 l 1.289063,3.6679688 c 0.05859,0.1640625 0.105469,0.3046875 0.152344,0.4453125 0.04687,0.1523437 0.08203,0.2929687 0.117187,0.421875 0.02344,0.1289062 0.05859,0.25781249 0.09375,0.38671874 0.02344,-0.12890625 0.05859,-0.25781254 0.08203,-0.39843754 0.03516,-0.1289062 0.08203,-0.2695312 0.128907,-0.4101562 0.04687,-0.1523438 0.09375,-0.3046875 0.152343,-0.4570313 l 1.277344,-3.65625 z m 2.302734,1.359375 c 0.515625,0 0.902344,0.1171875 1.160156,0.3398438 0.246094,0.234375 0.375,0.5976562 0.375,1.1015625 V -9.765625e-4 H 33.974898 L 33.845992,-0.61035156 h -0.03516 c -0.128906,0.1640625 -0.257813,0.29296875 -0.386719,0.3984375 -0.128906,0.09375 -0.28125,0.17578125 -0.445312,0.22265625 -0.175782,0.046875 -0.375,0.0703125 -0.609375,0.0703125 -0.257813,0 -0.492188,-0.046875 -0.703125,-0.140625 -0.199219,-0.08203125 -0.363282,-0.22265625 -0.480469,-0.41015625 -0.117188,-0.19921875 -0.175781,-0.43359375 -0.175781,-0.72656254 0,-0.421875 0.175781,-0.75 0.503906,-0.984375 0.339844,-0.234375 0.855469,-0.3632812 1.558594,-0.3867187 l 0.726562,-0.023437 v -0.2460938 c 0,-0.3632812 -0.08203,-0.609375 -0.234375,-0.75 -0.152344,-0.140625 -0.375,-0.2109375 -0.65625,-0.2109375 -0.222656,0 -0.433594,0.046875 -0.632812,0.1054688 -0.210938,0.070312 -0.398438,0.140625 -0.574219,0.2226562 l -0.210938,-0.5273437 c 0.175782,-0.09375 0.410157,-0.1875 0.65625,-0.2578125 0.257813,-0.070312 0.527344,-0.1054688 0.808594,-0.1054688 z m 0.199219,2.2851563 c -0.527344,0.023437 -0.902344,0.1171875 -1.101563,0.2578125 -0.210937,0.1523437 -0.304687,0.3632812 -0.304687,0.6328125 0,0.23437499 0.07031,0.41015624 0.210937,0.52734374 0.140625,0.1171875 0.339844,0.1640625 0.574219,0.1640625 0.351563,0 0.65625,-0.09375 0.902344,-0.29296875 0.234375,-0.19921875 0.351562,-0.51562499 0.351562,-0.92578129 v -0.3867187 z m 3.363281,2.0742187375 H 35.814742 V -6.0830078 h 0.703125 z M 41.466109,-4.2900391 V -9.765625e-4 H 40.891891 L 40.786422,-0.56347656 h -0.03516 c -0.09375,0.140625 -0.210938,0.26953125 -0.351563,0.36328125 -0.140625,0.09375 -0.304687,0.1640625 -0.46875,0.2109375 -0.175781,0.046875 -0.351562,0.0703125 -0.539062,0.0703125 -0.339844,0 -0.632813,-0.046875 -0.867188,-0.1640625 -0.222656,-0.10546875 -0.398437,-0.28125 -0.515625,-0.515625 -0.117187,-0.22265625 -0.175781,-0.51562499 -0.175781,-0.87890629 v -2.8125 h 0.714844 v 2.765625 c 0,0.3398438 0.07031,0.59765629 0.234375,0.76171879 0.152343,0.17578125 0.386718,0.2578125 0.714843,0.2578125 0.316407,0 0.574219,-0.0585938 0.75,-0.17578125 0.1875,-0.1171875 0.316407,-0.29296875 0.398438,-0.52734374 0.08203,-0.234375 0.117187,-0.515625 0.117187,-0.8554688 v -2.2265625 z m 3.008789,-0.082031 c 0.375,0 0.679688,0.082031 0.949219,0.2460937 0.269531,0.1523438 0.46875,0.3867188 0.609375,0.6796875 0.140625,0.28125 0.210938,0.6328125 0.210938,1.0078125 v 0.4335938 h -2.929688 c 0,0.4804687 0.128906,0.8554687 0.363281,1.11328124 0.246094,0.24609375 0.574219,0.375 1.007813,0.375 0.269531,0 0.503906,-0.0234375 0.714844,-0.0820313 0.210937,-0.046875 0.433593,-0.1171875 0.65625,-0.22265625 v 0.62109375 c -0.222657,0.09375 -0.445313,0.1640625 -0.644532,0.2109375 -0.222656,0.046875 -0.480468,0.0703125 -0.761718,0.0703125 -0.410157,0 -0.773438,-0.0820312525 -1.078125,-0.24609375 -0.316407,-0.1640625 -0.5625,-0.41015625 -0.738282,-0.73828125 C 42.658492,-1.2314453 42.58818,-1.6298828 42.58818,-2.1103516 c 0,-0.46875 0.07031,-0.8789062 0.222656,-1.2070312 0.164062,-0.3398438 0.375,-0.5976563 0.667969,-0.7851563 0.292968,-0.1757812 0.621093,-0.2695312 0.996093,-0.269531 z m 0,0.5742187 c -0.339843,0 -0.609375,0.1171875 -0.808593,0.328125 -0.1875,0.2226563 -0.304688,0.515625 -0.339844,0.9023438 h 2.191406 c 0,-0.2460938 -0.04687,-0.4570313 -0.117187,-0.6445313 -0.08203,-0.1757812 -0.1875,-0.3164062 -0.339844,-0.421875 -0.152344,-0.1054687 -0.351563,-0.1640625 -0.585938,-0.1640625 z m 0,0"
       style="fill:#dd1100;fill-opacity:1;fill-rule:nonzero;stroke:none"
       aria-label="OptionValue"
       transform="matrix(1.3333333,0,0,1.3333333,19.469667,13.333333)" />
    <path
       id="path10"
       d="m 0.57521094,-0.43457031 c 0,-0.1875 0.046875,-0.33984375 0.140625,-0.41015625 0.10546875,-0.0820313 0.2109375,-0.12890625 0.35156246,-0.12890625 0.1289063,0 0.2578125,0.046875 0.3515625,0.12890625 0.09375,0.0703125 0.1523438,0.22265625 0.1523438,0.41015625 0,0.19921875 -0.058594,0.33984375 -0.1523438,0.421875 -0.09375,0.08203125 -0.2226562,0.12890625 -0.3515625,0.12890625 -0.14062496,0 -0.24609371,-0.046875 -0.35156246,-0.12890625 -0.09375,-0.08203125 -0.140625,-0.22265625 -0.140625,-0.421875 z m 0,-3.42187499 c 0,-0.1992188 0.046875,-0.3515625 0.140625,-0.421875 0.10546875,-0.082031 0.2109375,-0.1289063 0.35156246,-0.1289063 0.1289063,0 0.2578125,0.046875 0.3515625,0.1289063 0.09375,0.070312 0.1523438,0.2226562 0.1523438,0.421875 0,0.1875 -0.058594,0.328125 -0.1523438,0.4101562 -0.09375,0.09375 -0.2226562,0.1289063 -0.3515625,0.1289063 -0.14062496,0 -0.24609371,-0.035156 -0.35156246,-0.1289063 -0.09375,-0.082031 -0.140625,-0.2226562 -0.140625,-0.4101562 z m 0,0"
       style="fill:#000000;fill-opacity:1;fill-rule:nonzero;stroke:none"
       aria-label=":"
       transform="matrix(1.3333333,0,0,1.3333333,82.596333,13.333333)" />
    <path
       id="path11"
       d="m 5.1213984,-2.0166016 c 0,0.3984375 -0.082031,0.75 -0.234375,1.06640629 -0.1640625,0.328125 -0.4101562,0.57421875 -0.7382812,0.76171875 -0.328125,0.17578125 -0.75,0.26953125 -1.2539063,0.26953125 -0.7148437,0 -1.2539062,-0.19921875 -1.6171875,-0.57421875 C 0.90264844,-0.87988281 0.71514844,-1.3955078 0.71514844,-2.0283203 V -5.7197266 H 1.4417109 v 3.7148438 c 0,0.4570312 0.1171875,0.8203125 0.3632813,1.07812499 0.2578125,0.2578125 0.6328125,0.38671875 1.1367187,0.38671875 0.3398438,0 0.6210938,-0.0585938 0.8320313,-0.1875 0.2226562,-0.12890625 0.375,-0.29296874 0.4804687,-0.52734374 0.1054688,-0.2226563 0.1523438,-0.4804688 0.1523438,-0.7617188 v -3.703125 h 0.7148437 z m 3.46875,-2.3554687 c 0.515625,0 0.9023438,0.1289062 1.1601563,0.375 0.2578123,0.2460937 0.3984373,0.65625 0.3984373,1.2070312 V -9.765625e-4 H 9.4456172 V -2.7431641 c 0,-0.3515625 -0.070312,-0.5976562 -0.2226563,-0.7851562 -0.1640625,-0.1640625 -0.4101562,-0.2460938 -0.7382812,-0.2460938 -0.4804688,0 -0.8085938,0.1289063 -0.984375,0.3984375 -0.1757813,0.2695313 -0.2695313,0.65625 -0.2695313,1.1484375 V -9.765625e-4 H 6.5276484 V -4.2900391 h 0.5742188 l 0.09375,0.5859375 h 0.046875 c 0.09375,-0.1523437 0.2109375,-0.2695312 0.3515625,-0.375 0.140625,-0.09375 0.2929687,-0.1757812 0.46875,-0.2226562 0.1757812,-0.046875 0.3515625,-0.070312 0.5273437,-0.070312 z m 3.5742186,1.4648437 c 0,0.09375 0,0.1992188 -0.01172,0.3398438 -0.01172,0.140625 -0.01172,0.2578125 -0.01172,0.3515625 h 0.02344 c 0.03516,-0.035156 0.08203,-0.09375 0.152344,-0.1757813 0.05859,-0.082031 0.128906,-0.1640625 0.1875,-0.2460937 0.07031,-0.082031 0.128906,-0.1523438 0.175781,-0.1992188 l 1.371094,-1.453125 h 0.820312 l -1.734375,1.828125 1.863282,2.4609375375 H 14.144836 L 12.656555,-2.0048828 12.164367,-1.5830078 V -9.765625e-4 H 11.472961 V -6.0830078 h 0.691406 z m 5.642578,-1.4648437 c 0.515625,0 0.902344,0.1289062 1.160157,0.375 0.257812,0.2460937 0.398437,0.65625 0.398437,1.2070312 V -9.765625e-4 H 18.662414 V -2.7431641 c 0,-0.3515625 -0.07031,-0.5976562 -0.222656,-0.7851562 -0.164063,-0.1640625 -0.410156,-0.2460938 -0.738281,-0.2460938 -0.480469,0 -0.808594,0.1289063 -0.984375,0.3984375 -0.175782,0.2695313 -0.269532,0.65625 -0.269532,1.1484375 V -9.765625e-4 H 15.744445 V -4.2900391 h 0.574219 l 0.09375,0.5859375 h 0.04687 c 0.09375,-0.1523437 0.210938,-0.2695312 0.351563,-0.375 0.140625,-0.09375 0.292968,-0.1757812 0.46875,-0.2226562 0.175781,-0.046875 0.351562,-0.070312 0.527343,-0.070312 z m 6.583008,2.2148437 c 0,0.3632813 -0.04687,0.6796875 -0.140625,0.9609375 -0.09375,0.26953129 -0.222656,0.50390629 -0.398437,0.69140629 -0.175782,0.1875 -0.386719,0.33984375 -0.632813,0.4453125 -0.246094,0.09375 -0.515625,0.140625 -0.820312,0.140625 -0.292969,0 -0.550782,-0.046875 -0.785157,-0.140625 -0.246093,-0.10546875 -0.457031,-0.2578125 -0.632812,-0.4453125 -0.175781,-0.1875 -0.316406,-0.421875 -0.410156,-0.69140629 -0.09375,-0.28125 -0.140625,-0.5976562 -0.140625,-0.9609375 0,-0.46875 0.07031,-0.8671875 0.234375,-1.1953125 0.164062,-0.328125 0.386718,-0.5742187 0.691406,-0.75 0.292969,-0.1757812 0.644531,-0.2695312 1.066406,-0.2695312 0.375,0 0.726563,0.09375 1.019531,0.2695312 0.292969,0.1757813 0.527344,0.421875 0.691407,0.75 0.175781,0.328125 0.257812,0.7265625 0.257812,1.1953125 z m -3.234375,0 c 0,0.3398438 0.03516,0.6328125 0.128906,0.8789063 0.08203,0.2578125 0.222657,0.44531249 0.410157,0.57421874 0.1875,0.140625 0.421875,0.19921875 0.714843,0.19921875 0.292969,0 0.515625,-0.0585938 0.714844,-0.19921875 0.175781,-0.12890625 0.316406,-0.31640624 0.410156,-0.57421874 0.08203,-0.2460938 0.128907,-0.5390625 0.128907,-0.8789063 0,-0.328125 -0.04687,-0.6328125 -0.128907,-0.8671875 -0.105468,-0.2460937 -0.234375,-0.421875 -0.421875,-0.5507812 -0.1875,-0.1289063 -0.421875,-0.1992188 -0.714843,-0.1992188 -0.433594,0 -0.761719,0.140625 -0.949219,0.4335938 -0.199219,0.28125 -0.292969,0.6796875 -0.292969,1.1835937 z m 7.113281,-0.2695312 c -0.02344,-0.1171875 -0.05859,-0.2109375 -0.09375,-0.328125 -0.03516,-0.1171875 -0.05859,-0.2109375 -0.08203,-0.3164063 -0.02344,-0.09375 -0.04687,-0.1875 -0.07031,-0.2695312 -0.02344,-0.082031 -0.03516,-0.1523438 -0.04687,-0.2226563 h -0.03516 c -0.01172,0.070312 -0.02344,0.140625 -0.04687,0.2226563 -0.01172,0.082031 -0.03516,0.1757812 -0.05859,0.2695312 -0.02344,0.1054688 -0.04687,0.2109375 -0.08203,0.328125 -0.03516,0.1054688 -0.05859,0.2109375 -0.09375,0.328125 l -0.773437,2.40234379 h -0.79689 L 24.917297,-4.3017578 h 0.726562 l 0.585938,2.296875 c 0.04687,0.1523437 0.08203,0.3046875 0.117187,0.46875 0.03516,0.1640625 0.07031,0.3046875 0.105469,0.4453125 0.02344,0.14062499 0.04687,0.26953124 0.05859,0.36328124 h 0.03516 c 0.01172,-0.0703125 0.03516,-0.140625 0.05859,-0.24609375 0.01172,-0.09375 0.03516,-0.18749999 0.05859,-0.30468749 0.02344,-0.09375 0.04687,-0.1992188 0.08203,-0.3164063 0.03516,-0.1054687 0.05859,-0.1992187 0.08203,-0.2929687 l 0.761719,-2.4140625 h 0.773437 l 0.738282,2.4140625 c 0.02344,0.1289062 0.07031,0.2578125 0.105468,0.3984375 0.04687,0.140625 0.08203,0.28125 0.117188,0.4101562 0.03516,0.12890629 0.04687,0.24609379 0.05859,0.33984379 h 0.03516 c 0.01172,-0.0820313 0.02344,-0.19921875 0.05859,-0.33984379 0.03516,-0.1289062 0.05859,-0.28125 0.105468,-0.4453125 0.03516,-0.1523437 0.08203,-0.328125 0.128907,-0.4804687 l 0.597656,-2.296875 h 0.714844 l -1.183594,4.28906249 h -0.832031 z m 5.583985,-1.9453125 c 0.515625,0 0.902344,0.1289062 1.160156,0.375 0.257813,0.2460937 0.398438,0.65625 0.398438,1.2070312 V -9.765625e-4 H 34.708313 V -2.7431641 c 0,-0.3515625 -0.07031,-0.5976562 -0.222657,-0.7851562 -0.164062,-0.1640625 -0.410156,-0.2460938 -0.738281,-0.2460938 -0.480469,0 -0.808594,0.1289063 -0.984375,0.3984375 -0.175781,0.2695313 -0.269531,0.65625 -0.269531,1.1484375 V -9.765625e-4 H 31.790344 V -4.2900391 h 0.574219 l 0.09375,0.5859375 h 0.04687 c 0.09375,-0.1523437 0.210937,-0.2695312 0.351562,-0.375 0.140625,-0.09375 0.292969,-0.1757812 0.46875,-0.2226562 0.175781,-0.046875 0.351563,-0.070312 0.527344,-0.070312 z m 8.666015,2.2148437 c 0,0.3632813 -0.04687,0.6796875 -0.140625,0.9609375 -0.09375,0.26953129 -0.222656,0.50390629 -0.398437,0.69140629 -0.175781,0.1875 -0.386719,0.33984375 -0.632813,0.4453125 -0.246093,0.09375 -0.515625,0.140625 -0.820312,0.140625 -0.292969,0 -0.550781,-0.046875 -0.785156,-0.140625 -0.246094,-0.10546875 -0.457032,-0.2578125 -0.632813,-0.4453125 -0.175781,-0.1875 -0.316406,-0.421875 -0.410156,-0.69140629 -0.09375,-0.28125 -0.140625,-0.5976562 -0.140625,-0.9609375 0,-0.46875 0.07031,-0.8671875 0.234375,-1.1953125 0.164062,-0.328125 0.386719,-0.5742187 0.691406,-0.75 0.292969,-0.1757812 0.644531,-0.2695312 1.066406,-0.2695312 0.375,0 0.726563,0.09375 1.019532,0.2695312 0.292968,0.1757813 0.527343,0.421875 0.691406,0.75 0.175781,0.328125 0.257812,0.7265625 0.257812,1.1953125 z m -3.234375,0 c 0,0.3398438 0.03516,0.6328125 0.128907,0.8789063 0.08203,0.2578125 0.222656,0.44531249 0.410156,0.57421874 0.1875,0.140625 0.421875,0.19921875 0.714844,0.19921875 0.292968,0 0.515625,-0.0585938 0.714843,-0.19921875 0.175782,-0.12890625 0.316407,-0.31640624 0.410157,-0.57421874 0.08203,-0.2460938 0.128906,-0.5390625 0.128906,-0.8789063 0,-0.328125 -0.04687,-0.6328125 -0.128906,-0.8671875 -0.105469,-0.2460937 -0.234375,-0.421875 -0.421875,-0.5507812 -0.1875,-0.1289063 -0.421875,-0.1992188 -0.714844,-0.1992188 -0.433594,0 -0.761719,0.140625 -0.949219,0.4335938 -0.199219,0.28125 -0.292969,0.6796875 -0.292969,1.1835937 z m 6.386719,-2.2148437 c 0.527344,0 0.949219,0.1875 1.277344,0.5507812 0.316406,0.375 0.480469,0.9257813 0.480469,1.6640625 0,0.4921875 -0.07031,0.9023438 -0.222657,1.23046879 -0.140625,0.33984375 -0.351562,0.5859375 -0.609375,0.76171875 -0.269531,0.1640624975 -0.574218,0.24609375 -0.925781,0.24609375 -0.234375,0 -0.421875,-0.0234375 -0.585937,-0.09375 -0.175782,-0.046875 -0.328125,-0.12890625 -0.445313,-0.22265625 -0.117187,-0.09375 -0.222656,-0.19921875 -0.304687,-0.3046875 h -0.04687 c 0.01172,0.09375 0.01172,0.19921875 0.03516,0.33984375 0,0.140625 0.01172,0.2578125 0.01172,0.36328125 V 1.9208984 h -0.703125 v -6.2109375 h 0.574218 l 0.09375,0.5859375 h 0.03516 c 0.08203,-0.1171875 0.1875,-0.234375 0.304687,-0.3398437 0.117188,-0.09375 0.269531,-0.1757813 0.433594,-0.234375 0.164062,-0.058594 0.363281,-0.09375 0.597656,-0.09375 z m -0.128906,0.5976562 c -0.28125,0 -0.515625,0.046875 -0.691406,0.1640625 -0.175782,0.1171875 -0.304688,0.2695313 -0.386719,0.4921875 -0.08203,0.2226563 -0.128906,0.4921875 -0.128906,0.8320313 v 0.1289062 c 0,0.3515625 0.03516,0.65625 0.117187,0.9023438 0.07031,0.2460937 0.199219,0.43359374 0.375,0.56249999 0.175781,0.12890625 0.421875,0.1875 0.738281,0.1875 0.257813,0 0.46875,-0.0703125 0.632813,-0.2109375 0.175781,-0.15234375 0.304687,-0.33984379 0.375,-0.58593749 0.08203,-0.2578125 0.128906,-0.5390625 0.128906,-0.8554688 0,-0.4921875 -0.09375,-0.890625 -0.28125,-1.1835937 -0.199219,-0.28125 -0.480469,-0.4335938 -0.878906,-0.4335938 z m 4.40625,3.28125004 c 0.105469,0 0.222656,-0.0117188 0.328125,-0.0234375 0.117187,-0.0234375 0.199219,-0.046875 0.28125,-0.0703125 v 0.5390625 c -0.08203,0.03515625 -0.1875,0.0703125 -0.328125,0.09375 -0.140625,0.0234375 -0.269531,0.03515625 -0.398438,0.03515625 -0.222656,0 -0.433593,-0.03515625 -0.621093,-0.1171875 -0.199219,-0.08203125 -0.351563,-0.2109375 -0.457032,-0.41015625 -0.117187,-0.1875 -0.175781,-0.4453125 -0.175781,-0.80859374 v -2.4960938 h -0.609375 v -0.328125 l 0.621094,-0.28125 0.269531,-0.9140625 h 0.421875 v 0.984375 h 1.242188 v 0.5390625 h -1.242188 v 2.484375 c 0,0.26953129 0.05859,0.45703129 0.1875,0.58593754 0.128906,0.12890625 0.28125,0.1875 0.480469,0.1875 z M 52.110656,-4.2900391 V -9.765625e-4 H 51.407531 V -4.2900391 Z m -0.339843,-1.6054687 c 0.105468,0 0.199218,0.035156 0.28125,0.1054687 0.08203,0.070312 0.128906,0.1875 0.128906,0.3398438 0,0.1523437 -0.04687,0.2578125 -0.128906,0.3398437 -0.08203,0.070312 -0.175782,0.1054688 -0.28125,0.1054688 -0.117188,0 -0.222657,-0.035156 -0.292969,-0.1054688 -0.08203,-0.082031 -0.128906,-0.1875 -0.128906,-0.3398437 0,-0.1523438 0.04687,-0.2695313 0.128906,-0.3398438 0.07031,-0.070312 0.175781,-0.1054687 0.292969,-0.1054687 z m 5.42871,3.7382812 c 0,0.3632813 -0.04687,0.6796875 -0.140625,0.9609375 -0.09375,0.26953129 -0.222656,0.50390629 -0.398437,0.69140629 -0.175781,0.1875 -0.386719,0.33984375 -0.632813,0.4453125 -0.246093,0.09375 -0.515625,0.140625 -0.820312,0.140625 -0.292969,0 -0.550781,-0.046875 -0.785156,-0.140625 -0.246094,-0.10546875 -0.457032,-0.2578125 -0.632813,-0.4453125 -0.175781,-0.1875 -0.316406,-0.421875 -0.410156,-0.69140629 -0.09375,-0.28125 -0.140625,-0.5976562 -0.140625,-0.9609375 0,-0.46875 0.07031,-0.8671875 0.234375,-1.1953125 0.164062,-0.328125 0.386719,-0.5742187 0.691406,-0.75 0.292969,-0.1757812 0.644531,-0.2695312 1.066406,-0.2695312 0.375,0 0.726563,0.09375 1.019532,0.2695312 0.292968,0.1757813 0.527343,0.421875 0.691406,0.75 0.175781,0.328125 0.257812,0.7265625 0.257812,1.1953125 z m -3.234375,0 c 0,0.3398438 0.03516,0.6328125 0.128907,0.8789063 0.08203,0.2578125 0.222656,0.44531249 0.410156,0.57421874 0.1875,0.140625 0.421875,0.19921875 0.714844,0.19921875 0.292968,0 0.515625,-0.0585938 0.714843,-0.19921875 0.175782,-0.12890625 0.316407,-0.31640624 0.410157,-0.57421874 0.08203,-0.2460938 0.128906,-0.5390625 0.128906,-0.8789063 0,-0.328125 -0.04687,-0.6328125 -0.128906,-0.8671875 -0.105469,-0.2460937 -0.234375,-0.421875 -0.421875,-0.5507812 -0.1875,-0.1289063 -0.421875,-0.1992188 -0.714844,-0.1992188 -0.433594,0 -0.761719,0.140625 -0.949219,0.4335938 -0.199219,0.28125 -0.292969,0.6796875 -0.292969,1.1835937 z m 6.38379,-2.2148437 c 0.515625,0 0.902343,0.1289062 1.160156,0.375 0.257812,0.2460937 0.398437,0.65625 0.398437,1.2070312 V -9.765625e-4 H 61.204406 V -2.7431641 c 0,-0.3515625 -0.07031,-0.5976562 -0.222656,-0.7851562 -0.164062,-0.1640625 -0.410156,-0.2460938 -0.738281,-0.2460938 -0.480469,0 -0.808594,0.1289063 -0.984375,0.3984375 -0.175781,0.2695313 -0.269531,0.65625 -0.269531,1.1484375 V -9.765625e-4 H 58.286438 V -4.2900391 h 0.574218 l 0.09375,0.5859375 h 0.04687 c 0.09375,-0.1523437 0.210938,-0.2695312 0.351563,-0.375 0.140625,-0.09375 0.292969,-0.1757812 0.46875,-0.2226562 0.175781,-0.046875 0.351562,-0.070312 0.527344,-0.070312 z m 6.629882,-1.3476563 c 0.46875,0 0.867188,0.070312 1.171875,0.1875 0.292969,0.1171875 0.527344,0.2929688 0.679688,0.5390625 0.152344,0.234375 0.222656,0.5390625 0.222656,0.9023438 0,0.3046875 -0.04687,0.5625 -0.164062,0.7617187 -0.117188,0.2109375 -0.257813,0.3632813 -0.433594,0.4921875 -0.175781,0.1171875 -0.351563,0.2109375 -0.539063,0.2695313 l 1.570313,2.5664062375 h -0.84375 L 67.26007,-2.3564453 H 66.123352 V -9.765625e-4 H 65.396789 V -5.7197266 Z m -0.04687,0.6328125 h -0.808593 v 2.1210938 h 0.855468 c 0.457032,0 0.796875,-0.09375 1.019532,-0.28125 0.199218,-0.1757813 0.316406,-0.4570313 0.316406,-0.8085938 0,-0.2460937 -0.05859,-0.4570312 -0.152344,-0.609375 -0.09375,-0.140625 -0.246094,-0.2460937 -0.445312,-0.328125 -0.210938,-0.058594 -0.46875,-0.09375 -0.785157,-0.09375 z m 5.000977,0.7148438 c 0.375,0 0.679687,0.082031 0.949219,0.2460937 0.269531,0.1523438 0.46875,0.3867188 0.609375,0.6796875 0.140625,0.28125 0.210937,0.6328125 0.210937,1.0078125 v 0.4335938 h -2.929687 c 0,0.4804687 0.128906,0.8554687 0.363281,1.11328124 0.246094,0.24609375 0.574219,0.375 1.007812,0.375 0.269532,0 0.503907,-0.0234375 0.714844,-0.0820313 0.210938,-0.046875 0.433594,-0.1171875 0.65625,-0.22265625 v 0.62109375 c -0.222656,0.09375 -0.445312,0.1640625 -0.644531,0.2109375 -0.222656,0.046875 -0.480469,0.0703125 -0.761719,0.0703125 -0.410156,0 -0.773437,-0.0820312525 -1.078125,-0.24609375 -0.316406,-0.1640625 -0.5625,-0.41015625 -0.738281,-0.73828125 -0.175781,-0.32812504 -0.246094,-0.72656254 -0.246094,-1.20703134 0,-0.46875 0.07031,-0.8789062 0.222656,-1.2070312 0.164063,-0.3398438 0.375,-0.5976563 0.667969,-0.7851562 0.292969,-0.1757813 0.621094,-0.2695313 0.996094,-0.2695312 z m 0,0.5742187 c -0.339844,0 -0.609375,0.1171875 -0.808594,0.328125 -0.1875,0.2226563 -0.304687,0.515625 -0.339844,0.9023438 h 2.191407 c 0,-0.2460938 -0.04687,-0.4570313 -0.117188,-0.6445313 -0.08203,-0.1757812 -0.1875,-0.3164062 -0.339844,-0.421875 -0.152343,-0.1054687 -0.351562,-0.1640625 -0.585937,-0.1640625 z m 4.921875,-0.5742187 c 0.515625,0 0.902344,0.1289062 1.160156,0.375 0.257813,0.2460937 0.398438,0.65625 0.398438,1.2070312 v 2.7890625375 h -0.70313 V -2.7431641 c 0,-0.3515625 -0.07031,-0.5976562 -0.222657,-0.7851562 -0.164062,-0.1640625 -0.410156,-0.2460938 -0.738281,-0.2460938 -0.480469,0 -0.808594,0.1289063 -0.984375,0.3984375 -0.175781,0.2695313 -0.269531,0.65625 -0.269531,1.1484375 V -9.765625e-4 H 74.792297 V -4.2900391 h 0.574219 l 0.09375,0.5859375 h 0.04687 c 0.09375,-0.1523437 0.210937,-0.2695312 0.351562,-0.375 0.140625,-0.09375 0.292969,-0.1757812 0.46875,-0.2226562 0.175781,-0.046875 0.351563,-0.070312 0.527344,-0.070312 z m 4.485351,0.011719 c 0.515625,0 0.902344,0.1171875 1.160157,0.3398438 0.246093,0.234375 0.375,0.5976562 0.375,1.1015625 V -9.765625e-4 H 82.35968 L 82.230773,-0.61035156 h -0.03516 c -0.128906,0.1640625 -0.257812,0.29296875 -0.386719,0.3984375 -0.128906,0.09375 -0.28125,0.17578125 -0.445312,0.22265625 -0.175781,0.046875 -0.375,0.0703125 -0.609375,0.0703125 -0.257813,0 -0.492188,-0.046875 -0.703125,-0.140625 -0.199219,-0.08203125 -0.363281,-0.22265625 -0.480469,-0.41015625 -0.117187,-0.19921875 -0.175781,-0.43359375 -0.175781,-0.72656254 0,-0.421875 0.175781,-0.75 0.503906,-0.984375 0.339844,-0.234375 0.855469,-0.3632812 1.558594,-0.3867187 l 0.726562,-0.023437 v -0.2460938 c 0,-0.3632812 -0.08203,-0.609375 -0.234375,-0.75 -0.152343,-0.140625 -0.375,-0.2109375 -0.65625,-0.2109375 -0.222656,0 -0.433593,0.046875 -0.632812,0.1054688 -0.210938,0.070312 -0.398438,0.140625 -0.574219,0.2226562 l -0.210937,-0.5273437 c 0.175781,-0.09375 0.410156,-0.1875 0.65625,-0.2578125 0.257812,-0.070312 0.527343,-0.1054688 0.808593,-0.1054688 z m 0.199219,2.2851563 c -0.527344,0.023437 -0.902344,0.1171875 -1.101562,0.2578125 -0.210938,0.1523437 -0.304688,0.3632812 -0.304688,0.6328125 0,0.23437499 0.07031,0.41015624 0.210938,0.52734374 0.140625,0.1171875 0.339843,0.1640625 0.574218,0.1640625 0.351563,0 0.65625,-0.09375 0.902344,-0.29296875 0.234375,-0.19921875 0.351563,-0.51562499 0.351563,-0.92578129 v -0.3867187 z m 7.371094,-2.296875 c 0.480469,0 0.84375,0.1289062 1.089844,0.375 0.234375,0.2460937 0.351562,0.65625 0.351562,1.2070312 V -9.765625e-4 H 89.660461 V -2.7666016 c 0,-0.328125 -0.07031,-0.5742187 -0.222656,-0.7617187 -0.140625,-0.1640625 -0.351563,-0.2460938 -0.65625,-0.2460938 -0.410157,0 -0.714844,0.1171875 -0.890625,0.3515625 -0.175782,0.2460938 -0.269532,0.5976563 -0.269532,1.0546875 V -9.765625e-4 H 86.929992 V -2.7666016 c 0,-0.2226562 -0.03516,-0.3984375 -0.09375,-0.5507812 -0.07031,-0.1523438 -0.164062,-0.2695313 -0.292969,-0.3515625 -0.128906,-0.070312 -0.292968,-0.1054688 -0.492187,-0.1054688 -0.292969,0 -0.527344,0.058594 -0.679688,0.1757813 -0.175781,0.1289062 -0.292968,0.3046875 -0.363281,0.5273437 -0.07031,0.234375 -0.105469,0.5039063 -0.105469,0.84375 V -9.765625e-4 H 84.199523 V -4.2900391 h 0.574219 l 0.09375,0.5859375 h 0.04687 c 0.08203,-0.1523437 0.199219,-0.2695312 0.328125,-0.375 0.128906,-0.09375 0.28125,-0.1757812 0.433594,-0.2226562 0.164062,-0.046875 0.328125,-0.070312 0.503906,-0.070312 0.328125,0 0.597656,0.070312 0.820313,0.1757812 0.222656,0.1171875 0.386718,0.3046875 0.492187,0.5507813 h 0.03516 c 0.140625,-0.2460938 0.339844,-0.4335938 0.585938,-0.5507813 0.246094,-0.1054687 0.515625,-0.1757812 0.796875,-0.1757812 z m 4.420898,0 c 0.375,0 0.679688,0.082031 0.949219,0.2460937 0.269531,0.1523438 0.46875,0.3867188 0.609375,0.6796875 0.140625,0.28125 0.210938,0.6328125 0.210938,1.0078125 v 0.4335938 h -2.929688 c 0,0.4804687 0.128906,0.8554687 0.363281,1.11328124 0.246094,0.24609375 0.574219,0.375 1.007813,0.375 0.269531,0 0.503906,-0.0234375 0.714844,-0.0820313 0.210937,-0.046875 0.433593,-0.1171875 0.65625,-0.22265625 v 0.62109375 c -0.222657,0.09375 -0.445313,0.1640625 -0.644532,0.2109375 -0.222656,0.046875 -0.480468,0.0703125 -0.761718,0.0703125 -0.410157,0 -0.773438,-0.0820312525 -1.078125,-0.24609375 -0.316407,-0.1640625 -0.5625,-0.41015625 -0.738282,-0.73828125 -0.175781,-0.32812504 -0.246093,-0.72656254 -0.246093,-1.20703134 0,-0.46875 0.07031,-0.8789062 0.222656,-1.2070312 0.164062,-0.3398438 0.375,-0.5976563 0.667969,-0.7851562 0.292968,-0.1757813 0.621093,-0.2695313 0.996093,-0.2695312 z m 0,0.5742187 c -0.339843,0 -0.609375,0.1171875 -0.808593,0.328125 -0.1875,0.2226563 -0.304688,0.515625 -0.339844,0.9023438 h 2.191406 c 0,-0.2460938 -0.04687,-0.4570313 -0.117187,-0.6445313 -0.08203,-0.1757812 -0.1875,-0.3164062 -0.339844,-0.421875 -0.152344,-0.1054687 -0.351563,-0.1640625 -0.585938,-0.1640625 z m 6.887686,0.046875 H 99.14093 V -9.765625e-4 H 98.426086 V -3.7509766 h -0.75 v -0.328125 l 0.75,-0.234375 v -0.2460937 c 0,-0.375 0.05859,-0.6679688 0.164062,-0.9023438 0.117188,-0.2226562 0.269532,-0.3867187 0.480469,-0.5039062 0.210938,-0.1054688 0.457031,-0.1523438 0.75,-0.1523438 0.175781,0 0.328123,0.011719 0.468753,0.046875 0.14062,0.023437 0.25781,0.058594 0.36328,0.09375 l -0.17578,0.5507813 c -0.0937,-0.023437 -0.1875,-0.046875 -0.30469,-0.082031 -0.10547,-0.023437 -0.222657,-0.035156 -0.339844,-0.035156 -0.246094,0 -0.421875,0.082031 -0.527344,0.234375 -0.117187,0.1640625 -0.164062,0.3984375 -0.164062,0.7382812 v 0.28125 h 1.07812 z m 4.5,1.59375 c 0,0.3632813 -0.0469,0.6796875 -0.14061,0.9609375 -0.0937,0.26953129 -0.22267,0.50390629 -0.39844,0.69140629 -0.17578,0.1875 -0.38672,0.33984375 -0.63281,0.4453125 -0.24609,0.09375 -0.51564,0.140625 -0.82032,0.140625 -0.29297,0 -0.55078,-0.046875 -0.78516,-0.140625 -0.24609,-0.10546875 -0.45703,-0.2578125 -0.63281,-0.4453125 -0.17578,-0.1875 -0.31641,-0.421875 -0.41016,-0.69140629 -0.0937,-0.28125 -0.14062,-0.5976562 -0.14062,-0.9609375 0,-0.46875 0.0703,-0.8671875 0.23437,-1.1953125 0.16406,-0.328125 0.38672,-0.5742187 0.69141,-0.75 0.29297,-0.1757812 0.64453,-0.2695312 1.0664,-0.2695312 0.375,0 0.72657,0.09375 1.01954,0.2695312 0.29296,0.1757813 0.52734,0.421875 0.6914,0.75 0.17578,0.328125 0.25781,0.7265625 0.25781,1.1953125 z m -3.23436,0 c 0,0.3398438 0.0352,0.6328125 0.12891,0.8789063 0.082,0.2578125 0.22265,0.44531249 0.41015,0.57421874 0.1875,0.140625 0.42188,0.19921875 0.71485,0.19921875 0.29295,0 0.51562,-0.0585938 0.71484,-0.19921875 0.17578,-0.12890625 0.31641,-0.31640624 0.41016,-0.57421874 0.082,-0.2460938 0.1289,-0.5390625 0.1289,-0.8789063 0,-0.328125 -0.0469,-0.6328125 -0.1289,-0.8671875 -0.10547,-0.2460937 -0.23438,-0.421875 -0.42188,-0.5507812 -0.1875,-0.1289063 -0.42187,-0.1992188 -0.71484,-0.1992188 -0.4336,0 -0.76172,0.140625 -0.94922,0.4335938 -0.19922,0.28125 -0.29297,0.6796875 -0.29297,1.1835937 z m 6.35156,-2.2148437 c 0.082,0 0.15235,0.011719 0.25781,0.011719 0.0937,0.011719 0.17579,0.023437 0.2461,0.035156 l -0.0937,0.65625 c -0.0703,-0.023437 -0.15235,-0.035156 -0.22266,-0.046875 -0.082,-0.011719 -0.16406,-0.011719 -0.23437,-0.011719 -0.17578,0 -0.32813,0.035156 -0.48047,0.1054688 -0.15235,0.070312 -0.28125,0.1640625 -0.39844,0.2929687 -0.11719,0.1289063 -0.21094,0.2695313 -0.28125,0.4453125 -0.0586,0.1757813 -0.0937,0.375 -0.0937,0.5976563 v 2.2851562375 h -0.70312 V -4.2900391 h 0.57421 l 0.082,0.7851563 h 0.0352 c 0.082,-0.1640625 0.19922,-0.3046875 0.32813,-0.4335938 0.1289,-0.1289062 0.26953,-0.234375 0.43359,-0.3164062 0.16406,-0.082031 0.35156,-0.1171875 0.55078,-0.1171875 z m 5.89746,-0.796875 c -0.30469,0 -0.58594,0.058594 -0.82032,0.1640625 -0.24608,0.1054687 -0.45703,0.2578125 -0.62108,0.4570312 -0.17579,0.1992188 -0.30469,0.4453125 -0.39844,0.7265625 -0.0937,0.2929688 -0.12891,0.609375 -0.12891,0.9609375 0,0.46875 0.0703,0.8789063 0.21093,1.2304688 0.14063,0.3515625 0.36328,0.609375 0.65625,0.79687499 0.29297,0.1875 0.65625,0.28125 1.10157,0.28125 0.2461,0 0.48046,-0.0117188 0.70313,-0.0703125 0.22265,-0.0351563 0.44531,-0.09375 0.65625,-0.15234375 v 0.62109375 c -0.21094,0.08203125 -0.4336,0.140625 -0.65625,0.17578125 -0.22267,0.03515625 -0.50392,0.05859375 -0.8086,0.05859375 -0.58593,0 -1.07812,-0.1171875 -1.46484,-0.36328125 -0.38672,-0.234375 -0.67969,-0.57421875 -0.87891,-1.01953124 -0.1875,-0.4453125 -0.28125,-0.9609375 -0.28125,-1.5703125 0,-0.421875 0.0469,-0.8203125 0.17579,-1.1835938 0.11718,-0.3515625 0.29296,-0.65625 0.52734,-0.9257812 0.23437,-0.2578125 0.51562,-0.4570313 0.86719,-0.5976563 0.32811,-0.140625 0.72656,-0.2109375 1.17186,-0.2109375 0.29297,0 0.57422,0.023437 0.84375,0.082031 0.28125,0.058594 0.51564,0.140625 0.72657,0.2460937 l -0.28125,0.609375 c -0.17578,-0.082031 -0.375,-0.1523437 -0.59765,-0.2109375 -0.21094,-0.070312 -0.44532,-0.1054687 -0.70313,-0.1054684 z m 6.24024,3.0117187 c 0,0.3632813 -0.0469,0.6796875 -0.14063,0.9609375 -0.0937,0.26953129 -0.22266,0.50390629 -0.39844,0.69140629 -0.17579,0.1875 -0.38672,0.33984375 -0.63281,0.4453125 -0.24609,0.09375 -0.51562,0.140625 -0.82032,0.140625 -0.29297,0 -0.55078,-0.046875 -0.78516,-0.140625 -0.24609,-0.10546875 -0.45703,-0.2578125 -0.63281,-0.4453125 -0.17578,-0.1875 -0.3164,-0.421875 -0.41015,-0.69140629 -0.0937,-0.28125 -0.14063,-0.5976562 -0.14063,-0.9609375 0,-0.46875 0.0703,-0.8671875 0.23438,-1.1953125 0.16406,-0.328125 0.38671,-0.5742187 0.6914,-0.75 0.29297,-0.1757812 0.64453,-0.2695312 1.06641,-0.2695312 0.375,0 0.72656,0.09375 1.01953,0.2695312 0.29297,0.1757813 0.52734,0.421875 0.69141,0.75 0.17578,0.328125 0.25782,0.7265625 0.25782,1.1953125 z m -3.23438,0 c 0,0.3398438 0.0352,0.6328125 0.12891,0.8789063 0.082,0.2578125 0.22266,0.44531249 0.41016,0.57421874 0.1875,0.140625 0.42187,0.19921875 0.71484,0.19921875 0.29297,0 0.51562,-0.0585938 0.71484,-0.19921875 0.17578,-0.12890625 0.31641,-0.31640624 0.41016,-0.57421874 0.082,-0.2460938 0.12891,-0.5390625 0.12891,-0.8789063 0,-0.328125 -0.0469,-0.6328125 -0.12891,-0.8671875 -0.10547,-0.2460937 -0.23438,-0.421875 -0.42188,-0.5507812 -0.1875,-0.1289063 -0.42187,-0.1992188 -0.71484,-0.1992188 -0.43359,0 -0.76172,0.140625 -0.94922,0.4335938 -0.19922,0.28125 -0.29297,0.6796875 -0.29297,1.1835937 z m 6.41016,-2.2148437 c 0.51562,0 0.90234,0.1289062 1.16016,0.375 0.25781,0.2460937 0.39843,0.65625 0.39843,1.2070312 V -9.762625e-4 H 124.0052 V -2.7431641 c 0,-0.3515625 -0.0703,-0.5976562 -0.22266,-0.7851562 -0.16406,-0.1640625 -0.41015,-0.2460938 -0.73828,-0.2460938 -0.48047,0 -0.80859,0.1289063 -0.98437,0.3984375 -0.17579,0.2695313 -0.26954,0.65625 -0.26954,1.1484375 v 2.2265625375 h -0.70312 V -4.2900391 h 0.57422 l 0.0937,0.5859375 h 0.0469 c 0.0937,-0.1523437 0.21094,-0.2695312 0.35157,-0.375 0.14062,-0.09375 0.29296,-0.1757812 0.46875,-0.2226562 0.17578,-0.046875 0.35156,-0.070312 0.52734,-0.070312 z m 4.28906,3.87890624 c 0.10547,0 0.22266,-0.0117188 0.32813,-0.0234375 0.11718,-0.0234375 0.19922,-0.046875 0.28124,-0.0703125 v 0.5390625 c -0.082,0.03515625 -0.18749,0.0703125 -0.32812,0.09375 -0.14062,0.0234375 -0.26953,0.03515625 -0.39844,0.03515625 -0.22265,0 -0.43359,-0.03515625 -0.62109,-0.1171875 -0.19922,-0.08203125 -0.35156,-0.2109375 -0.45703,-0.41015625 -0.11719,-0.1875 -0.17578,-0.4453125 -0.17578,-0.80859374 v -2.4960938 h -0.60938 v -0.328125 l 0.6211,-0.28125 0.26953,-0.9140625 h 0.42187 v 0.984375 h 1.24219 v 0.5390625 h -1.24219 v 2.484375 c 0,0.26953129 0.0586,0.45703129 0.1875,0.58593754 0.12891,0.12890625 0.28125,0.1875 0.48047,0.1875 z M 130.89875,-4.37207 c 0.082,0 0.15235,0.011719 0.25781,0.011719 0.0937,0.011719 0.17579,0.023437 0.2461,0.035156 l -0.0937,0.65625 c -0.0703,-0.023437 -0.15235,-0.035156 -0.22266,-0.046875 -0.082,-0.011719 -0.16406,-0.011719 -0.23437,-0.011719 -0.17578,0 -0.32813,0.035156 -0.48047,0.1054688 -0.15235,0.070312 -0.28125,0.1640625 -0.39844,0.2929687 -0.11719,0.1289063 -0.21094,0.2695313 -0.28125,0.4453125 -0.0586,0.1757813 -0.0937,0.375 -0.0937,0.5976563 v 2.2851562375 h -0.70313 V -4.2900391 h 0.57421 l 0.082,0.7851563 h 0.0352 c 0.082,-0.1640625 0.19922,-0.3046875 0.32813,-0.4335938 0.1289,-0.1289062 0.26953,-0.234375 0.43359,-0.3164062 0.16406,-0.082031 0.35156,-0.1171875 0.55078,-0.1171875 z m 2.90625,0.011719 c 0.51562,0 0.90235,0.1171875 1.16015,0.3398438 0.2461,0.234375 0.375,0.5976562 0.375,1.1015625 v 2.9179687375 h -0.51562 l -0.1289,-0.6093749975 h -0.0352 c -0.12891,0.1640625 -0.25781,0.29296875 -0.38672,0.3984375 -0.1289,0.09375 -0.28125,0.17578125 -0.44531,0.22265625 -0.17578,0.046875 -0.375,0.0703125 -0.60938,0.0703125 -0.25781,0 -0.49218,-0.046875 -0.70312,-0.140625 -0.19922,-0.08203125 -0.36328,-0.22265625 -0.48047,-0.41015625 -0.11719,-0.19921875 -0.17578,-0.43359375 -0.17578,-0.72656254 0,-0.421875 0.17578,-0.75 0.50391,-0.984375 0.33984,-0.234375 0.85546,-0.3632812 1.55859,-0.3867187 l 0.72656,-0.023437 V -2.836913 c 0,-0.3632812 -0.082,-0.609375 -0.23437,-0.75 -0.15236,-0.140625 -0.375,-0.2109375 -0.65625,-0.2109375 -0.22266,0 -0.43361,0.046875 -0.63282,0.1054688 -0.21093,0.070312 -0.39843,0.140625 -0.57421,0.2226562 l -0.21094,-0.5273437 c 0.17578,-0.09375 0.41015,-0.1875 0.65625,-0.2578125 0.25781,-0.070312 0.52734,-0.1054688 0.80859,-0.1054688 z m 0.19922,2.2851563 c -0.52735,0.023437 -0.90235,0.1171875 -1.10157,0.2578125 -0.21093,0.1523437 -0.30468,0.3632812 -0.30468,0.6328125 0,0.23437499 0.0703,0.41015624 0.21093,0.52734374 0.14063,0.1171875 0.33985,0.1640625 0.57422,0.1640625 0.35157,0 0.65625,-0.09375 0.90235,-0.29296875 0.23437,-0.19921875 0.35156,-0.51562499 0.35156,-0.92578129 v -0.3867187 z m 4.38281,2.15624999 c -0.38672,0 -0.72656,-0.0703125 -1.01953,-0.234375 -0.29297,-0.15234375 -0.52735,-0.38671875 -0.6914,-0.71484375 -0.17579,-0.32812504 -0.2461,-0.73828124 -0.2461,-1.25390624 0,-0.5273438 0.082,-0.9492188 0.25781,-1.2890625 0.17579,-0.328125 0.41016,-0.5625 0.71485,-0.7265625 0.30469,-0.1523438 0.64453,-0.234375 1.03125,-0.234375 0.21094,0 0.42187,0.023437 0.63281,0.070312 0.19922,0.046875 0.36328,0.09375 0.49219,0.1640625 l -0.21094,0.5859375 c -0.12891,-0.046875 -0.28125,-0.09375 -0.44531,-0.140625 -0.17578,-0.035156 -0.33985,-0.058594 -0.48047,-0.058594 -0.29297,0 -0.52734,0.058594 -0.71484,0.1757813 -0.19922,0.1289062 -0.32813,0.3046875 -0.42188,0.5507812 -0.0937,0.234375 -0.12891,0.5390625 -0.12891,0.890625 0,0.3515625 0.0352,0.6328125 0.12891,0.8789063 0.0937,0.234375 0.22266,0.42187499 0.41016,0.53906249 0.17578,0.12890625 0.41015,0.1875 0.67968,0.1875 0.23438,0 0.44532,-0.0234375 0.6211,-0.0703125 0.17578,-0.046875 0.33984,-0.10546875 0.49219,-0.17578125 v 0.62109375 c -0.14063,0.08203125 -0.30469,0.140625 -0.48047,0.17578125 -0.17578,0.03515625 -0.38672,0.05859375 -0.6211,0.05859445 z m 3.54493,-0.57421875 c 0.10545,0 0.22264,-0.0117188 0.32812,-0.0234375 0.11719,-0.0234375 0.19922,-0.046875 0.28125,-0.0703125 v 0.5390625 c -0.082,0.03515625 -0.1875,0.0703125 -0.32812,0.09375 -0.14063,0.0234375 -0.26955,0.03515625 -0.39844,0.03515625 -0.22266,0 -0.43361,-0.03515625 -0.62111,-0.1171875 -0.1992,-0.08203125 -0.35156,-0.2109375 -0.45703,-0.41015625 -0.11717,-0.1875 -0.17578,-0.4453125 -0.17578,-0.80859374 V -3.750976 h -0.60937 v -0.328125 l 0.62109,-0.28125 0.26953,-0.9140625 h 0.42188 v 0.984375 h 1.24218 v 0.5390625 h -1.24218 v 2.484375 c 0,0.26953129 0.0586,0.45703129 0.1875,0.58593754 0.1289,0.12890625 0.28125,0.1875 0.48048,0.1875 z m 1.33007,0.0585938 c 0,-0.1875 0.0469,-0.33984375 0.14062,-0.41015625 0.10547,-0.0820313 0.21094,-0.12890625 0.35157,-0.12890625 0.1289,0 0.25781,0.046875 0.35156,0.12890625 0.0937,0.0703125 0.15235,0.22265625 0.15235,0.41015625 0,0.19921875 -0.0586,0.33984375 -0.15235,0.421875 -0.0937,0.08203125 -0.22265,0.12890625 -0.35156,0.12890625 -0.14063,0 -0.2461,-0.046875 -0.35157,-0.12890625 -0.0937,-0.08203125 -0.14062,-0.22265625 -0.14062,-0.421875 z m 0,0"
       style="fill:#898989;fill-opacity:1;fill-rule:nonzero;stroke:none"
       aria-label="UnknownoptionRenameforContract."
       transform="matrix(1.3333333,0,0,1.3333333,90.2535,13.333333)" />
  </g>
</svg>
