<?xml version="1.0" encoding="UTF-8"?>
<svg xmlns="http://www.w3.org/2000/svg" xmlns:xlink="http://www.w3.org/1999/xlink" width="270pt" height="270pt" viewBox="0 0 270 270" version="1.1">
<g id="surface16">
<path style="fill:none;stroke-width:1.5;stroke-linecap:butt;stroke-linejoin:miter;stroke:rgb(0%,0%,0%);stroke-opacity:0.7;stroke-miterlimit:3.25;" d="M 59.558594 16.488281 L 128.320312 83.699219 " transform="matrix(1,0,0,1,-49.5,-3.75)"/>
<path style="fill:none;stroke-width:1.5;stroke-linecap:square;stroke-linejoin:miter;stroke:rgb(0%,0%,0%);stroke-opacity:0.7;stroke-miterlimit:3.25;" d="M 128.320312 83.699219 Z M 128.320312 83.699219 " transform="matrix(1,0,0,1,-49.5,-3.75)"/>
<path style="fill:none;stroke-width:1.5;stroke-linecap:butt;stroke-linejoin:miter;stroke:rgb(0%,0%,0%);stroke-opacity:0.7;stroke-dasharray:3,3;stroke-miterlimit:3.25;" d="M 132.976562 85.570312 L 234.550781 84.488281 " transform="matrix(1,0,0,1,-49.5,-3.75)"/>
<path style="fill:none;stroke-width:1.5;stroke-linecap:butt;stroke-linejoin:miter;stroke:rgb(0%,0%,0%);stroke-opacity:0.7;stroke-dasharray:3,3;stroke-miterlimit:3.25;" d="M 234.550781 84.488281 Z M 234.550781 84.488281 " transform="matrix(1,0,0,1,-49.5,-3.75)"/>
<path style="fill:none;stroke-width:1.5;stroke-linecap:butt;stroke-linejoin:miter;stroke:rgb(0%,0%,0%);stroke-opacity:0.7;stroke-dasharray:3,3;stroke-miterlimit:3.25;" d="M 130.296875 88.3125 L 131.65625 189.820312 " transform="matrix(1,0,0,1,-49.5,-3.75)"/>
<path style="fill:none;stroke-width:1.5;stroke-linecap:butt;stroke-linejoin:miter;stroke:rgb(0%,0%,0%);stroke-opacity:0.7;stroke-dasharray:3,3;stroke-miterlimit:3.25;" d="M 131.65625 189.820312 Z M 131.65625 189.820312 " transform="matrix(1,0,0,1,-49.5,-3.75)"/>
<path style="fill:none;stroke-width:1.5;stroke-linecap:butt;stroke-linejoin:miter;stroke:rgb(0%,0%,0%);stroke-opacity:0.7;stroke-miterlimit:3.25;" d="M 306.234375 13.59375 L 239.160156 82.515625 " transform="matrix(1,0,0,1,-49.5,-3.75)"/>
<path style="fill:none;stroke-width:1.5;stroke-linecap:square;stroke-linejoin:miter;stroke:rgb(0%,0%,0%);stroke-opacity:0.7;stroke-miterlimit:3.25;" d="M 239.160156 82.515625 Z M 239.160156 82.515625 " transform="matrix(1,0,0,1,-49.5,-3.75)"/>
<path style="fill:none;stroke-width:1.5;stroke-linecap:butt;stroke-linejoin:miter;stroke:rgb(0%,0%,0%);stroke-opacity:0.7;stroke-dasharray:3,3;stroke-miterlimit:3.25;" d="M 237.300781 87.175781 L 238.636719 188.714844 " transform="matrix(1,0,0,1,-49.5,-3.75)"/>
<path style="fill:none;stroke-width:1.5;stroke-linecap:butt;stroke-linejoin:miter;stroke:rgb(0%,0%,0%);stroke-opacity:0.7;stroke-dasharray:3,3;stroke-miterlimit:3.25;" d="M 238.636719 188.714844 Z M 238.636719 188.714844 " transform="matrix(1,0,0,1,-49.5,-3.75)"/>
<path style="fill:none;stroke-width:1.5;stroke-linecap:butt;stroke-linejoin:miter;stroke:rgb(0%,0%,0%);stroke-opacity:0.7;stroke-miterlimit:3.25;" d="M 309.441406 260.519531 L 240.617188 193.328125 " transform="matrix(1,0,0,1,-49.5,-3.75)"/>
<path style="fill:none;stroke-width:1.5;stroke-linecap:square;stroke-linejoin:miter;stroke:rgb(0%,0%,0%);stroke-opacity:0.7;stroke-miterlimit:3.25;" d="M 240.617188 193.328125 Z M 240.617188 193.328125 " transform="matrix(1,0,0,1,-49.5,-3.75)"/>
<path style="fill:none;stroke-width:1.5;stroke-linecap:butt;stroke-linejoin:miter;stroke:rgb(0%,0%,0%);stroke-opacity:0.7;stroke-dasharray:3,3;stroke-miterlimit:3.25;" d="M 235.957031 191.457031 L 134.410156 192.507812 " transform="matrix(1,0,0,1,-49.5,-3.75)"/>
<path style="fill:none;stroke-width:1.5;stroke-linecap:butt;stroke-linejoin:miter;stroke:rgb(0%,0%,0%);stroke-opacity:0.7;stroke-dasharray:3,3;stroke-miterlimit:3.25;" d="M 134.410156 192.507812 Z M 134.410156 192.507812 " transform="matrix(1,0,0,1,-49.5,-3.75)"/>
<path style="fill:none;stroke-width:1.5;stroke-linecap:butt;stroke-linejoin:miter;stroke:rgb(0%,0%,0%);stroke-opacity:0.7;stroke-miterlimit:3.25;" d="M 62.511719 263.34375 L 129.796875 194.476562 " transform="matrix(1,0,0,1,-49.5,-3.75)"/>
<path style="fill:none;stroke-width:1.5;stroke-linecap:square;stroke-linejoin:miter;stroke:rgb(0%,0%,0%);stroke-opacity:0.7;stroke-miterlimit:3.25;" d="M 129.796875 194.476562 Z M 129.796875 194.476562 " transform="matrix(1,0,0,1,-49.5,-3.75)"/>
<path style="fill-rule:evenodd;fill:rgb(63.998413%,70.399475%,79.998779%);fill-opacity:1;stroke-width:0.75;stroke-linecap:square;stroke-linejoin:miter;stroke:rgb(0%,0%,0%);stroke-opacity:0.7;stroke-miterlimit:3.25;" d="M 60.332031 14.589844 C 60.332031 13.871094 60.042969 13.179688 59.535156 12.671875 C 59.027344 12.164062 58.335938 11.875 57.617188 11.875 C 56.894531 11.875 56.203125 12.164062 55.695312 12.671875 C 55.1875 13.179688 54.898438 13.871094 54.898438 14.589844 C 54.898438 15.3125 55.1875 16.003906 55.695312 16.511719 C 56.203125 17.019531 56.894531 17.308594 57.617188 17.308594 C 58.335938 17.308594 59.027344 17.019531 59.535156 16.511719 C 60.042969 16.003906 60.332031 15.3125 60.332031 14.589844 Z M 60.332031 14.589844 " transform="matrix(1,0,0,1,-49.5,-3.75)"/>
<path style="fill-rule:evenodd;fill:rgb(63.998413%,70.399475%,79.998779%);fill-opacity:1;stroke-width:0.75;stroke-linecap:square;stroke-linejoin:miter;stroke:rgb(0%,0%,0%);stroke-opacity:0.7;stroke-miterlimit:3.25;" d="M 132.976562 85.597656 C 132.976562 84.878906 132.691406 84.1875 132.183594 83.679688 C 131.671875 83.167969 130.980469 82.882812 130.261719 82.882812 C 129.542969 82.882812 128.851562 83.167969 128.34375 83.679688 C 127.832031 84.1875 127.546875 84.878906 127.546875 85.597656 C 127.546875 86.320312 127.832031 87.011719 128.34375 87.519531 C 128.851562 88.027344 129.542969 88.3125 130.261719 88.3125 C 130.980469 88.3125 131.671875 88.027344 132.183594 87.519531 C 132.691406 87.011719 132.976562 86.320312 132.976562 85.597656 Z M 132.976562 85.597656 " transform="matrix(1,0,0,1,-49.5,-3.75)"/>
<path style="fill-rule:evenodd;fill:rgb(63.998413%,70.399475%,79.998779%);fill-opacity:1;stroke-width:0.75;stroke-linecap:square;stroke-linejoin:miter;stroke:rgb(0%,0%,0%);stroke-opacity:0.7;stroke-miterlimit:3.25;" d="M 310.84375 11.648438 C 310.84375 10.929688 310.558594 10.238281 310.050781 9.730469 C 309.539062 9.21875 308.847656 8.933594 308.128906 8.933594 C 307.410156 8.933594 306.71875 9.21875 306.210938 9.730469 C 305.699219 10.238281 305.414062 10.929688 305.414062 11.648438 C 305.414062 12.371094 305.699219 13.058594 306.210938 13.570312 C 306.71875 14.078125 307.410156 14.363281 308.128906 14.363281 C 308.847656 14.363281 309.539062 14.078125 310.050781 13.570312 C 310.558594 13.058594 310.84375 12.371094 310.84375 11.648438 Z M 310.84375 11.648438 " transform="matrix(1,0,0,1,-49.5,-3.75)"/>
<path style="fill-rule:evenodd;fill:rgb(63.998413%,70.399475%,79.998779%);fill-opacity:1;stroke-width:0.75;stroke-linecap:square;stroke-linejoin:miter;stroke:rgb(0%,0%,0%);stroke-opacity:0.7;stroke-miterlimit:3.25;" d="M 239.980469 84.460938 C 239.980469 83.738281 239.695312 83.050781 239.1875 82.539062 C 238.675781 82.03125 237.988281 81.746094 237.265625 81.746094 C 236.546875 81.746094 235.855469 82.03125 235.347656 82.539062 C 234.835938 83.050781 234.550781 83.738281 234.550781 84.460938 C 234.550781 85.179688 234.835938 85.871094 235.347656 86.378906 C 235.855469 86.890625 236.546875 87.175781 237.265625 87.175781 C 237.988281 87.175781 238.675781 86.890625 239.1875 86.378906 C 239.695312 85.871094 239.980469 85.179688 239.980469 84.460938 Z M 239.980469 84.460938 " transform="matrix(1,0,0,1,-49.5,-3.75)"/>
<path style="fill-rule:evenodd;fill:rgb(63.998413%,70.399475%,79.998779%);fill-opacity:1;stroke-width:0.75;stroke-linecap:square;stroke-linejoin:miter;stroke:rgb(0%,0%,0%);stroke-opacity:0.7;stroke-miterlimit:3.25;" d="M 314.101562 262.417969 C 314.101562 261.695312 313.8125 261.003906 313.304688 260.496094 C 312.796875 259.988281 312.105469 259.703125 311.382812 259.703125 C 310.664062 259.703125 309.972656 259.988281 309.464844 260.496094 C 308.957031 261.003906 308.667969 261.695312 308.667969 262.417969 C 308.667969 263.136719 308.957031 263.828125 309.464844 264.335938 C 309.972656 264.847656 310.664062 265.132812 311.382812 265.132812 C 312.105469 265.132812 312.796875 264.847656 313.304688 264.335938 C 313.8125 263.828125 314.101562 263.136719 314.101562 262.417969 Z M 314.101562 262.417969 " transform="matrix(1,0,0,1,-49.5,-3.75)"/>
<path style="fill-rule:evenodd;fill:rgb(63.998413%,70.399475%,79.998779%);fill-opacity:1;stroke-width:0.75;stroke-linecap:square;stroke-linejoin:miter;stroke:rgb(0%,0%,0%);stroke-opacity:0.7;stroke-miterlimit:3.25;" d="M 241.390625 191.429688 C 241.390625 190.710938 241.101562 190.019531 240.59375 189.507812 C 240.085938 189 239.394531 188.714844 238.675781 188.714844 C 237.953125 188.714844 237.261719 189 236.753906 189.507812 C 236.246094 190.019531 235.957031 190.710938 235.957031 191.429688 C 235.957031 192.148438 236.246094 192.839844 236.753906 193.347656 C 237.261719 193.859375 237.953125 194.144531 238.675781 194.144531 C 239.394531 194.144531 240.085938 193.859375 240.59375 193.347656 C 241.101562 192.839844 241.390625 192.148438 241.390625 191.429688 Z M 241.390625 191.429688 " transform="matrix(1,0,0,1,-49.5,-3.75)"/>
<path style="fill-rule:evenodd;fill:rgb(63.998413%,70.399475%,79.998779%);fill-opacity:1;stroke-width:0.75;stroke-linecap:square;stroke-linejoin:miter;stroke:rgb(0%,0%,0%);stroke-opacity:0.7;stroke-miterlimit:3.25;" d="M 63.328125 265.285156 C 63.328125 264.566406 63.042969 263.875 62.535156 263.363281 C 62.023438 262.855469 61.332031 262.570312 60.613281 262.570312 C 59.894531 262.570312 59.203125 262.855469 58.695312 263.363281 C 58.183594 263.875 57.898438 264.566406 57.898438 265.285156 C 57.898438 266.003906 58.183594 266.695312 58.695312 267.203125 C 59.203125 267.714844 59.894531 268 60.613281 268 C 61.332031 268 62.023438 267.714844 62.535156 267.203125 C 63.042969 266.695312 63.328125 266.003906 63.328125 265.285156 Z M 63.328125 265.285156 " transform="matrix(1,0,0,1,-49.5,-3.75)"/>
<path style="fill-rule:evenodd;fill:rgb(63.998413%,70.399475%,79.998779%);fill-opacity:1;stroke-width:0.75;stroke-linecap:square;stroke-linejoin:miter;stroke:rgb(0%,0%,0%);stroke-opacity:0.7;stroke-miterlimit:3.25;" d="M 134.410156 192.535156 C 134.410156 191.816406 134.121094 191.125 133.613281 190.613281 C 133.105469 190.105469 132.414062 189.820312 131.695312 189.820312 C 130.972656 189.820312 130.28125 190.105469 129.773438 190.613281 C 129.265625 191.125 128.976562 191.816406 128.976562 192.535156 C 128.976562 193.253906 129.265625 193.945312 129.773438 194.457031 C 130.28125 194.964844 130.972656 195.25 131.695312 195.25 C 132.414062 195.25 133.105469 194.964844 133.613281 194.457031 C 134.121094 193.945312 134.410156 193.253906 134.410156 192.535156 Z M 134.410156 192.535156 " transform="matrix(1,0,0,1,-49.5,-3.75)"/>
</g>
</svg>
