<?xml version="1.0" encoding="UTF-8" standalone="no"?>
<!-- Created with Inkscape (http://www.inkscape.org/) -->

<svg
   version="1.1"
   id="svg2"
   width="346.66666"
   height="129.33333"
   viewBox="0 0 346.66666 129.33333"
   sodipodi:docname="0h5tic9nxwh1v.pdf"
   xmlns:inkscape="http://www.inkscape.org/namespaces/inkscape"
   xmlns:sodipodi="http://sodipodi.sourceforge.net/DTD/sodipodi-0.dtd"
   xmlns="http://www.w3.org/2000/svg"
   xmlns:svg="http://www.w3.org/2000/svg">
  <defs
     id="defs6" />
  <sodipodi:namedview
     id="namedview4"
     pagecolor="#ffffff"
     bordercolor="#999999"
     borderopacity="1"
     inkscape:showpageshadow="0"
     inkscape:pageopacity="0"
     inkscape:pagecheckerboard="0"
     inkscape:deskcolor="#d1d1d1" />
  <g
     id="g8"
     inkscape:groupmode="layer"
     inkscape:label="0h5tic9nxwh1v"
     transform="scale(1.3333333)">
    <g
       id="g10">
      <path
         d="M 9.453,8 62.094,28.102"
         style="fill:none;stroke:#000000;stroke-width:1.44;stroke-linecap:butt;stroke-linejoin:miter;stroke-miterlimit:3.25;stroke-dasharray:none;stroke-opacity:0.7"
         id="path12" />
      <path
         d="m 66.363,28.984 61.133,2.59"
         style="fill:none;stroke:#000000;stroke-width:1.44;stroke-linecap:butt;stroke-linejoin:miter;stroke-miterlimit:3.25;stroke-dasharray:2.88, 2.88;stroke-dashoffset:0;stroke-opacity:0.7"
         id="path14" />
      <path
         d="m 65.492,30.648 31.11,40.93"
         style="fill:none;stroke:#000000;stroke-width:1.44;stroke-linecap:butt;stroke-linejoin:miter;stroke-miterlimit:3.25;stroke-dasharray:2.88, 2.88;stroke-dashoffset:0;stroke-opacity:0.7"
         id="path16" />
      <path
         d="M 249.746,7.973 197.211,28.055"
         style="fill:none;stroke:#000000;stroke-width:1.44;stroke-linecap:butt;stroke-linejoin:miter;stroke-miterlimit:3.25;stroke-dasharray:none;stroke-opacity:0.7"
         id="path18" />
      <path
         d="M 192.941,28.938 131.906,31.57"
         style="fill:none;stroke:#000000;stroke-width:1.44;stroke-linecap:butt;stroke-linejoin:miter;stroke-miterlimit:3.25;stroke-dasharray:2.88, 2.88;stroke-dashoffset:0;stroke-opacity:0.7"
         id="path20" />
      <path
         d="M 193.816,30.602 162.77,71.543"
         style="fill:none;stroke:#000000;stroke-width:1.44;stroke-linecap:butt;stroke-linejoin:miter;stroke-miterlimit:3.25;stroke-dasharray:2.88, 2.88;stroke-dashoffset:0;stroke-opacity:0.7"
         id="path22" />
      <path
         d="m 129.703,33.875 0.004,53.008"
         style="fill:none;stroke:#000000;stroke-width:1.44;stroke-linecap:butt;stroke-linejoin:miter;stroke-miterlimit:3.25;stroke-dasharray:2.88, 2.88;stroke-dashoffset:0;stroke-opacity:0.7"
         id="path24" />
      <path
         d="m 159.23,73.305 -59.085,0.031"
         style="fill:none;stroke:#000000;stroke-width:1.44;stroke-linecap:butt;stroke-linejoin:miter;stroke-miterlimit:3.25;stroke-dasharray:2.88, 2.88;stroke-dashoffset:0;stroke-opacity:0.7"
         id="path26" />
      <path
         d="m 159.461,74.285 -27.777,13.82"
         style="fill:none;stroke:#000000;stroke-width:1.44;stroke-linecap:butt;stroke-linejoin:miter;stroke-miterlimit:3.25;stroke-dasharray:2.88, 2.88;stroke-dashoffset:0;stroke-opacity:0.7"
         id="path28" />
      <path
         d="M 99.914,74.316 127.73,88.109"
         style="fill:none;stroke:#000000;stroke-width:1.44;stroke-linecap:butt;stroke-linejoin:miter;stroke-miterlimit:3.25;stroke-dasharray:2.88, 2.88;stroke-dashoffset:0;stroke-opacity:0.7"
         id="path30" />
      <path
         d="M 9.598,7.215 C 9.598,6.629 9.367,6.066 8.953,5.652 8.539,5.238 7.977,5.008 7.391,5.008 6.805,5.008 6.246,5.238 5.832,5.652 5.418,6.066 5.184,6.629 5.184,7.215 c 0,0.586 0.234,1.144 0.648,1.558 0.414,0.415 0.973,0.649 1.559,0.649 0.586,0 1.148,-0.234 1.562,-0.649 C 9.367,8.359 9.598,7.801 9.598,7.215 Z"
         style="fill:#a3b4cc;fill-opacity:1;fill-rule:evenodd;stroke:none"
         id="path32" />
      <path
         d="M 9.598,7.215 C 9.598,6.629 9.367,6.066 8.953,5.652 8.539,5.238 7.977,5.008 7.391,5.008 6.805,5.008 6.246,5.238 5.832,5.652 5.418,6.066 5.184,6.629 5.184,7.215 c 0,0.586 0.234,1.144 0.648,1.558 0.414,0.415 0.973,0.649 1.559,0.649 0.586,0 1.148,-0.234 1.562,-0.649 C 9.367,8.359 9.598,7.801 9.598,7.215 Z"
         style="fill:none;stroke:#000000;stroke-width:0.36;stroke-linecap:square;stroke-linejoin:miter;stroke-miterlimit:3.25;stroke-dasharray:none;stroke-opacity:0.7"
         id="path34" />
      <path
         d="m 66.363,28.891 c 0,-0.586 -0.23,-1.149 -0.644,-1.563 -0.414,-0.414 -0.977,-0.644 -1.563,-0.644 -0.586,0 -1.144,0.23 -1.558,0.644 -0.414,0.414 -0.649,0.977 -0.649,1.563 0,0.586 0.235,1.144 0.649,1.558 0.414,0.414 0.972,0.649 1.558,0.649 0.586,0 1.149,-0.235 1.563,-0.649 0.414,-0.414 0.644,-0.972 0.644,-1.558 z"
         style="fill:#a3b4cc;fill-opacity:1;fill-rule:evenodd;stroke:none"
         id="path36" />
      <path
         d="m 66.363,28.891 c 0,-0.586 -0.23,-1.149 -0.644,-1.563 -0.414,-0.414 -0.977,-0.644 -1.563,-0.644 -0.586,0 -1.144,0.23 -1.558,0.644 -0.414,0.414 -0.649,0.977 -0.649,1.563 0,0.586 0.235,1.144 0.649,1.558 0.414,0.414 0.972,0.649 1.558,0.649 0.586,0 1.149,-0.235 1.563,-0.649 0.414,-0.414 0.644,-0.972 0.644,-1.558 z"
         style="fill:none;stroke:#000000;stroke-width:0.36;stroke-linecap:square;stroke-linejoin:miter;stroke-miterlimit:3.25;stroke-dasharray:none;stroke-opacity:0.7"
         id="path38" />
      <path
         d="m 254.016,7.184 c 0,-0.586 -0.231,-1.145 -0.645,-1.559 -0.414,-0.414 -0.976,-0.648 -1.562,-0.648 -0.586,0 -1.149,0.234 -1.563,0.648 -0.414,0.414 -0.644,0.973 -0.644,1.559 0,0.586 0.23,1.148 0.644,1.562 0.414,0.414 0.977,0.645 1.563,0.645 0.586,0 1.148,-0.231 1.562,-0.645 0.414,-0.414 0.645,-0.976 0.645,-1.562 z"
         style="fill:#a3b4cc;fill-opacity:1;fill-rule:evenodd;stroke:none"
         id="path40" />
      <path
         d="m 254.016,7.184 c 0,-0.586 -0.231,-1.145 -0.645,-1.559 -0.414,-0.414 -0.976,-0.648 -1.562,-0.648 -0.586,0 -1.149,0.234 -1.563,0.648 -0.414,0.414 -0.644,0.973 -0.644,1.559 0,0.586 0.23,1.148 0.644,1.562 0.414,0.414 0.977,0.645 1.563,0.645 0.586,0 1.148,-0.231 1.562,-0.645 0.414,-0.414 0.645,-0.976 0.645,-1.562 z"
         style="fill:none;stroke:#000000;stroke-width:0.36;stroke-linecap:square;stroke-linejoin:miter;stroke-miterlimit:3.25;stroke-dasharray:none;stroke-opacity:0.7"
         id="path42" />
      <path
         d="m 197.355,28.844 c 0,-0.586 -0.23,-1.149 -0.644,-1.563 -0.414,-0.414 -0.977,-0.648 -1.563,-0.648 -0.586,0 -1.148,0.234 -1.562,0.648 -0.414,0.414 -0.645,0.977 -0.645,1.563 0,0.582 0.231,1.144 0.645,1.558 0.414,0.414 0.976,0.649 1.562,0.649 0.586,0 1.149,-0.235 1.563,-0.649 0.414,-0.414 0.644,-0.976 0.644,-1.558 z"
         style="fill:#a3b4cc;fill-opacity:1;fill-rule:evenodd;stroke:none"
         id="path44" />
      <path
         d="m 197.355,28.844 c 0,-0.586 -0.23,-1.149 -0.644,-1.563 -0.414,-0.414 -0.977,-0.648 -1.563,-0.648 -0.586,0 -1.148,0.234 -1.562,0.648 -0.414,0.414 -0.645,0.977 -0.645,1.563 0,0.582 0.231,1.144 0.645,1.558 0.414,0.414 0.976,0.649 1.562,0.649 0.586,0 1.149,-0.235 1.563,-0.649 0.414,-0.414 0.644,-0.976 0.644,-1.558 z"
         style="fill:none;stroke:#000000;stroke-width:0.36;stroke-linecap:square;stroke-linejoin:miter;stroke-miterlimit:3.25;stroke-dasharray:none;stroke-opacity:0.7"
         id="path46" />
      <path
         d="m 131.91,31.664 c 0,-0.582 -0.234,-1.144 -0.648,-1.559 -0.414,-0.414 -0.973,-0.648 -1.559,-0.648 -0.586,0 -1.148,0.234 -1.562,0.648 -0.414,0.415 -0.645,0.977 -0.645,1.559 0,0.586 0.231,1.148 0.645,1.563 0.414,0.414 0.976,0.648 1.562,0.648 0.586,0 1.145,-0.234 1.559,-0.648 0.414,-0.415 0.648,-0.977 0.648,-1.563 z"
         style="fill:#a3b4cc;fill-opacity:1;fill-rule:evenodd;stroke:none"
         id="path48" />
      <path
         d="m 131.91,31.664 c 0,-0.582 -0.234,-1.144 -0.648,-1.559 -0.414,-0.414 -0.973,-0.648 -1.559,-0.648 -0.586,0 -1.148,0.234 -1.562,0.648 -0.414,0.415 -0.645,0.977 -0.645,1.559 0,0.586 0.231,1.148 0.645,1.563 0.414,0.414 0.976,0.648 1.562,0.648 0.586,0 1.145,-0.234 1.559,-0.648 0.414,-0.415 0.648,-0.977 0.648,-1.563 z"
         style="fill:none;stroke:#000000;stroke-width:0.36;stroke-linecap:square;stroke-linejoin:miter;stroke-miterlimit:3.25;stroke-dasharray:none;stroke-opacity:0.7"
         id="path50" />
      <path
         d="m 163.645,73.301 c 0,-0.586 -0.235,-1.145 -0.649,-1.559 -0.414,-0.414 -0.973,-0.648 -1.558,-0.648 -0.586,0 -1.149,0.234 -1.563,0.648 -0.414,0.414 -0.645,0.973 -0.645,1.559 0,0.586 0.231,1.148 0.645,1.562 0.414,0.414 0.977,0.649 1.563,0.649 0.585,0 1.144,-0.235 1.558,-0.649 0.414,-0.414 0.649,-0.976 0.649,-1.562 z"
         style="fill:#a3b4cc;fill-opacity:1;fill-rule:evenodd;stroke:none"
         id="path52" />
      <path
         d="m 163.645,73.301 c 0,-0.586 -0.235,-1.145 -0.649,-1.559 -0.414,-0.414 -0.973,-0.648 -1.558,-0.648 -0.586,0 -1.149,0.234 -1.563,0.648 -0.414,0.414 -0.645,0.973 -0.645,1.559 0,0.586 0.231,1.148 0.645,1.562 0.414,0.414 0.977,0.649 1.563,0.649 0.585,0 1.144,-0.235 1.558,-0.649 0.414,-0.414 0.649,-0.976 0.649,-1.562 z"
         style="fill:none;stroke:#000000;stroke-width:0.36;stroke-linecap:square;stroke-linejoin:miter;stroke-miterlimit:3.25;stroke-dasharray:none;stroke-opacity:0.7"
         id="path54" />
      <path
         d="m 100.145,73.336 c 0,-0.586 -0.235,-1.145 -0.649,-1.559 -0.41,-0.414 -0.973,-0.648 -1.558,-0.648 -0.586,0 -1.149,0.234 -1.563,0.648 -0.414,0.414 -0.645,0.973 -0.645,1.559 0,0.586 0.231,1.148 0.645,1.562 0.414,0.414 0.977,0.649 1.563,0.649 0.585,0 1.148,-0.235 1.558,-0.649 0.414,-0.414 0.649,-0.976 0.649,-1.562 z"
         style="fill:#a3b4cc;fill-opacity:1;fill-rule:evenodd;stroke:none"
         id="path56" />
      <path
         d="m 100.145,73.336 c 0,-0.586 -0.235,-1.145 -0.649,-1.559 -0.41,-0.414 -0.973,-0.648 -1.558,-0.648 -0.586,0 -1.149,0.234 -1.563,0.648 -0.414,0.414 -0.645,0.973 -0.645,1.559 0,0.586 0.231,1.148 0.645,1.562 0.414,0.414 0.977,0.649 1.563,0.649 0.585,0 1.148,-0.235 1.558,-0.649 0.414,-0.414 0.649,-0.976 0.649,-1.562 z"
         style="fill:none;stroke:#000000;stroke-width:0.36;stroke-linecap:square;stroke-linejoin:miter;stroke-miterlimit:3.25;stroke-dasharray:none;stroke-opacity:0.7"
         id="path58" />
      <path
         d="m 131.918,89.09 c 0,-0.586 -0.234,-1.149 -0.648,-1.563 -0.415,-0.414 -0.977,-0.644 -1.563,-0.644 -0.582,0 -1.145,0.23 -1.559,0.644 -0.414,0.414 -0.648,0.977 -0.648,1.563 0,0.586 0.234,1.148 0.648,1.562 0.414,0.414 0.977,0.645 1.559,0.645 0.586,0 1.148,-0.231 1.563,-0.645 0.414,-0.414 0.648,-0.976 0.648,-1.562 z"
         style="fill:#a3b4cc;fill-opacity:1;fill-rule:evenodd;stroke:none"
         id="path60" />
      <path
         d="m 131.918,89.09 c 0,-0.586 -0.234,-1.149 -0.648,-1.563 -0.415,-0.414 -0.977,-0.644 -1.563,-0.644 -0.582,0 -1.145,0.23 -1.559,0.644 -0.414,0.414 -0.648,0.977 -0.648,1.563 0,0.586 0.234,1.148 0.648,1.562 0.414,0.414 0.977,0.645 1.559,0.645 0.586,0 1.148,-0.231 1.563,-0.645 0.414,-0.414 0.648,-0.976 0.648,-1.562 z"
         style="fill:none;stroke:#000000;stroke-width:0.36;stroke-linecap:square;stroke-linejoin:miter;stroke-miterlimit:3.25;stroke-dasharray:none;stroke-opacity:0.7"
         id="path62" />
    </g>
  </g>
</svg>
