<?xml version="1.0" encoding="UTF-8" standalone="no"?>
<!-- Created with Inkscape (http://www.inkscape.org/) -->

<svg
   version="1.1"
   id="svg2"
   xml:space="preserve"
   width="346.66666"
   height="218.66667"
   viewBox="0 0 346.66666 218.66667"
   sodipodi:docname="0i0qkwnvhlnmi.pdf"
   xmlns:inkscape="http://www.inkscape.org/namespaces/inkscape"
   xmlns:sodipodi="http://sodipodi.sourceforge.net/DTD/sodipodi-0.dtd"
   xmlns="http://www.w3.org/2000/svg"
   xmlns:svg="http://www.w3.org/2000/svg"><defs
     id="defs6" /><sodipodi:namedview
     id="namedview4"
     pagecolor="#505050"
     bordercolor="#eeeeee"
     borderopacity="1"
     inkscape:pageshadow="0"
     inkscape:pageopacity="0"
     inkscape:pagecheckerboard="0" /><g
     id="g8"
     inkscape:groupmode="layer"
     inkscape:label="0i0qkwnvhlnmi"
     transform="matrix(1.3333333,0,0,1.3333333,0,8.8e-6)"><g
       id="g10"><path
         d="M 9.16,154.352 54.633,116.754"
         style="fill:none;stroke:#264a80;stroke-width:0.36;stroke-linecap:butt;stroke-linejoin:miter;stroke-miterlimit:3.25;stroke-dasharray:none;stroke-opacity:0.7"
         id="path12" /><path
         d="M 56.395,113.004 56.371,54.129"
         style="fill:none;stroke:#264a80;stroke-width:0.36;stroke-linecap:butt;stroke-linejoin:miter;stroke-miterlimit:3.25;stroke-dasharray:none;stroke-opacity:0.7"
         id="path14" /><path
         d="m 58.68,115.152 66.804,-4.172"
         style="fill:none;stroke:#264a80;stroke-width:0.36;stroke-linecap:butt;stroke-linejoin:miter;stroke-miterlimit:3.25;stroke-dasharray:none;stroke-opacity:0.7"
         id="path16" /><path
         d="M 9.289,12.633 54.613,50.375"
         style="fill:none;stroke:#264a80;stroke-width:0.36;stroke-linecap:butt;stroke-linejoin:miter;stroke-miterlimit:3.25;stroke-dasharray:none;stroke-opacity:0.7"
         id="path18" /><path
         d="m 58.656,51.984 66.774,4.204"
         style="fill:none;stroke:#264a80;stroke-width:0.36;stroke-linecap:butt;stroke-linejoin:miter;stroke-miterlimit:3.25;stroke-dasharray:none;stroke-opacity:0.7"
         id="path20" /><path
         d="M 246.324,12.652 200.863,50.383"
         style="fill:none;stroke:#264a80;stroke-width:0.36;stroke-linecap:butt;stroke-linejoin:miter;stroke-miterlimit:3.25;stroke-dasharray:none;stroke-opacity:0.7"
         id="path22" /><path
         d="m 199.105,54.133 0.063,58.859"
         style="fill:none;stroke:#264a80;stroke-width:0.36;stroke-linecap:butt;stroke-linejoin:miter;stroke-miterlimit:3.25;stroke-dasharray:none;stroke-opacity:0.7"
         id="path24" /><path
         d="M 196.816,51.984 130,56.188"
         style="fill:none;stroke:#264a80;stroke-width:0.36;stroke-linecap:butt;stroke-linejoin:miter;stroke-miterlimit:3.25;stroke-dasharray:none;stroke-opacity:0.7"
         id="path26" /><path
         d="M 246.312,154.379 200.93,116.738"
         style="fill:none;stroke:#264a80;stroke-width:0.36;stroke-linecap:butt;stroke-linejoin:miter;stroke-miterlimit:3.25;stroke-dasharray:none;stroke-opacity:0.7"
         id="path28" /><path
         d="M 196.883,115.137 130.055,110.98"
         style="fill:none;stroke:#264a80;stroke-width:0.36;stroke-linecap:butt;stroke-linejoin:miter;stroke-miterlimit:3.25;stroke-dasharray:none;stroke-opacity:0.7"
         id="path30" /><path
         d="m 127.715,58.621 0.055,49.93"
         style="fill:none;stroke:#264a80;stroke-width:0.36;stroke-linecap:butt;stroke-linejoin:miter;stroke-miterlimit:3.25;stroke-dasharray:none;stroke-opacity:0.7"
         id="path32" /><path
         d="m 9.688,155.809 c 0,-0.606 -0.243,-1.188 -0.672,-1.618 -0.43,-0.429 -1.012,-0.671 -1.618,-0.671 -0.605,0 -1.187,0.242 -1.617,0.671 -0.429,0.43 -0.672,1.012 -0.672,1.618 0,0.605 0.243,1.187 0.672,1.617 0.43,0.429 1.012,0.672 1.617,0.672 0.606,0 1.188,-0.243 1.618,-0.672 0.429,-0.43 0.672,-1.012 0.672,-1.617 z"
         style="fill:#a3b4cc;fill-opacity:1;fill-rule:evenodd;stroke:none"
         id="path34" /><path
         d="m 9.688,155.809 c 0,-0.606 -0.243,-1.188 -0.672,-1.618 -0.43,-0.429 -1.012,-0.671 -1.618,-0.671 -0.605,0 -1.187,0.242 -1.617,0.671 -0.429,0.43 -0.672,1.012 -0.672,1.618 0,0.605 0.243,1.187 0.672,1.617 0.43,0.429 1.012,0.672 1.617,0.672 0.606,0 1.188,-0.243 1.618,-0.672 0.429,-0.43 0.672,-1.012 0.672,-1.617 z"
         style="fill:none;stroke:#000000;stroke-width:0.36;stroke-linecap:square;stroke-linejoin:miter;stroke-miterlimit:3.25;stroke-dasharray:none;stroke-opacity:0.7"
         id="path36" /><text
         transform="translate(11.126819,150.63992)"
         style="font-variant:normal;font-size:6.48px;font-family:CairoFont-0;-inkscape-font-specification:CairoFont-0-0;writing-mode:lr-tb;fill:#000000;fill-opacity:1;fill-rule:nonzero;stroke:none"
         id="text40"><tspan
           x="0"
           y="0"
           id="tspan38">-</tspan></text><text
         transform="translate(14.904659,150.63992)"
         style="font-variant:normal;font-size:6.48px;font-family:CairoFont-1;-inkscape-font-specification:CairoFont-1-0;writing-mode:lr-tb;fill:#000000;fill-opacity:1;fill-rule:nonzero;stroke:none"
         id="text44"><tspan
           x="0"
           y="0"
           id="tspan42">4</tspan></text><path
         d="m 58.684,115.293 c 0,-0.605 -0.243,-1.188 -0.668,-1.617 -0.43,-0.43 -1.012,-0.672 -1.621,-0.672 -0.606,0 -1.188,0.242 -1.618,0.672 -0.429,0.429 -0.672,1.012 -0.672,1.617 0,0.609 0.243,1.191 0.672,1.621 0.43,0.426 1.012,0.668 1.618,0.668 0.609,0 1.191,-0.242 1.621,-0.668 0.425,-0.43 0.668,-1.012 0.668,-1.621 z"
         style="fill:#a3b4cc;fill-opacity:1;fill-rule:evenodd;stroke:none"
         id="path46" /><path
         d="m 58.684,115.293 c 0,-0.605 -0.243,-1.188 -0.668,-1.617 -0.43,-0.43 -1.012,-0.672 -1.621,-0.672 -0.606,0 -1.188,0.242 -1.618,0.672 -0.429,0.429 -0.672,1.012 -0.672,1.617 0,0.609 0.243,1.191 0.672,1.621 0.43,0.426 1.012,0.668 1.618,0.668 0.609,0 1.191,-0.242 1.621,-0.668 0.425,-0.43 0.668,-1.012 0.668,-1.621 z"
         style="fill:none;stroke:#000000;stroke-width:0.36;stroke-linecap:square;stroke-linejoin:miter;stroke-miterlimit:3.25;stroke-dasharray:none;stroke-opacity:0.7"
         id="path48" /><text
         transform="translate(60.124073,110.12531)"
         style="font-variant:normal;font-size:6.48px;font-family:CairoFont-1;-inkscape-font-specification:CairoFont-1-0;writing-mode:lr-tb;fill:#000000;fill-opacity:1;fill-rule:nonzero;stroke:none"
         id="text52"><tspan
           x="0"
           y="0"
           id="tspan50">4</tspan></text><path
         d="M 9.82,11.168 C 9.82,10.562 9.578,9.98 9.148,9.551 8.719,9.121 8.137,8.879 7.531,8.879 6.922,8.879 6.34,9.121 5.91,9.551 5.484,9.98 5.242,10.562 5.242,11.168 c 0,0.609 0.242,1.191 0.668,1.617 0.43,0.43 1.012,0.672 1.621,0.672 0.606,0 1.188,-0.242 1.617,-0.672 0.43,-0.426 0.672,-1.008 0.672,-1.617 z"
         style="fill:#a3b4cc;fill-opacity:1;fill-rule:evenodd;stroke:none"
         id="path54" /><path
         d="M 9.82,11.168 C 9.82,10.562 9.578,9.98 9.148,9.551 8.719,9.121 8.137,8.879 7.531,8.879 6.922,8.879 6.34,9.121 5.91,9.551 5.484,9.98 5.242,10.562 5.242,11.168 c 0,0.609 0.242,1.191 0.668,1.617 0.43,0.43 1.012,0.672 1.621,0.672 0.606,0 1.188,-0.242 1.617,-0.672 0.43,-0.426 0.672,-1.008 0.672,-1.617 z"
         style="fill:none;stroke:#000000;stroke-width:0.36;stroke-linecap:square;stroke-linejoin:miter;stroke-miterlimit:3.25;stroke-dasharray:none;stroke-opacity:0.7"
         id="path56" /><text
         transform="translate(11.258549,6)"
         style="font-variant:normal;font-size:6.48px;font-family:CairoFont-0;-inkscape-font-specification:CairoFont-0-0;writing-mode:lr-tb;fill:#000000;fill-opacity:1;fill-rule:nonzero;stroke:none"
         id="text60"><tspan
           x="0"
           y="0"
           id="tspan58">-</tspan></text><text
         transform="translate(15.036389,6)"
         style="font-variant:normal;font-size:6.48px;font-family:CairoFont-1;-inkscape-font-specification:CairoFont-1-0;writing-mode:lr-tb;fill:#000000;fill-opacity:1;fill-rule:nonzero;stroke:none"
         id="text64"><tspan
           x="0"
           y="0"
           id="tspan62">3</tspan></text><path
         d="m 58.66,51.84 c 0,-0.61 -0.242,-1.192 -0.672,-1.621 -0.429,-0.426 -1.011,-0.668 -1.617,-0.668 -0.609,0 -1.191,0.242 -1.617,0.668 -0.43,0.429 -0.672,1.011 -0.672,1.621 0,0.605 0.242,1.187 0.672,1.617 0.426,0.43 1.008,0.672 1.617,0.672 0.606,0 1.188,-0.242 1.617,-0.672 0.43,-0.43 0.672,-1.012 0.672,-1.617 z"
         style="fill:#a3b4cc;fill-opacity:1;fill-rule:evenodd;stroke:none"
         id="path66" /><path
         d="m 58.66,51.84 c 0,-0.61 -0.242,-1.192 -0.672,-1.621 -0.429,-0.426 -1.011,-0.668 -1.617,-0.668 -0.609,0 -1.191,0.242 -1.617,0.668 -0.43,0.429 -0.672,1.011 -0.672,1.621 0,0.605 0.242,1.187 0.672,1.617 0.426,0.43 1.008,0.672 1.617,0.672 0.606,0 1.188,-0.242 1.617,-0.672 0.43,-0.43 0.672,-1.012 0.672,-1.617 z"
         style="fill:none;stroke:#000000;stroke-width:0.36;stroke-linecap:square;stroke-linejoin:miter;stroke-miterlimit:3.25;stroke-dasharray:none;stroke-opacity:0.7"
         id="path68" /><text
         transform="translate(60.099033,46.670232)"
         style="font-variant:normal;font-size:6.48px;font-family:CairoFont-1;-inkscape-font-specification:CairoFont-1-0;writing-mode:lr-tb;fill:#000000;fill-opacity:1;fill-rule:nonzero;stroke:none"
         id="text72"><tspan
           x="0"
           y="0"
           id="tspan70">1</tspan></text><path
         d="m 250.371,11.191 c 0,-0.609 -0.238,-1.191 -0.668,-1.621 -0.43,-0.429 -1.012,-0.668 -1.621,-0.668 -0.605,0 -1.187,0.239 -1.617,0.668 -0.43,0.43 -0.668,1.012 -0.668,1.621 0,0.606 0.238,1.188 0.668,1.618 0.43,0.429 1.012,0.671 1.617,0.671 0.609,0 1.191,-0.242 1.621,-0.671 0.43,-0.43 0.668,-1.012 0.668,-1.618 z"
         style="fill:#a3b4cc;fill-opacity:1;fill-rule:evenodd;stroke:none"
         id="path74" /><path
         d="m 250.371,11.191 c 0,-0.609 -0.238,-1.191 -0.668,-1.621 -0.43,-0.429 -1.012,-0.668 -1.621,-0.668 -0.605,0 -1.187,0.239 -1.617,0.668 -0.43,0.43 -0.668,1.012 -0.668,1.621 0,0.606 0.238,1.188 0.668,1.618 0.43,0.429 1.012,0.671 1.617,0.671 0.609,0 1.191,-0.242 1.621,-0.671 0.43,-0.43 0.668,-1.012 0.668,-1.618 z"
         style="fill:none;stroke:#000000;stroke-width:0.36;stroke-linecap:square;stroke-linejoin:miter;stroke-miterlimit:3.25;stroke-dasharray:none;stroke-opacity:0.7"
         id="path76" /><text
         transform="translate(251.8125,6.021349)"
         style="font-variant:normal;font-size:6.48px;font-family:CairoFont-0;-inkscape-font-specification:CairoFont-0-0;writing-mode:lr-tb;fill:#000000;fill-opacity:1;fill-rule:nonzero;stroke:none"
         id="text80"><tspan
           x="0"
           y="0"
           id="tspan78">-</tspan></text><text
         transform="translate(255.59034,6.021349)"
         style="font-variant:normal;font-size:6.48px;font-family:CairoFont-1;-inkscape-font-specification:CairoFont-1-0;writing-mode:lr-tb;fill:#000000;fill-opacity:1;fill-rule:nonzero;stroke:none"
         id="text84"><tspan
           x="0"
           y="0"
           id="tspan82">2</tspan></text><path
         d="m 201.391,51.844 c 0,-0.61 -0.243,-1.192 -0.672,-1.621 -0.43,-0.426 -1.012,-0.668 -1.617,-0.668 -0.606,0 -1.188,0.242 -1.618,0.668 -0.429,0.429 -0.672,1.011 -0.672,1.621 0,0.605 0.243,1.187 0.672,1.617 0.43,0.43 1.012,0.672 1.618,0.672 0.605,0 1.187,-0.242 1.617,-0.672 0.429,-0.43 0.672,-1.012 0.672,-1.617 z"
         style="fill:#a3b4cc;fill-opacity:1;fill-rule:evenodd;stroke:none"
         id="path86" /><path
         d="m 201.391,51.844 c 0,-0.61 -0.243,-1.192 -0.672,-1.621 -0.43,-0.426 -1.012,-0.668 -1.617,-0.668 -0.606,0 -1.188,0.242 -1.618,0.668 -0.429,0.429 -0.672,1.011 -0.672,1.621 0,0.605 0.243,1.187 0.672,1.617 0.43,0.43 1.012,0.672 1.618,0.672 0.605,0 1.187,-0.242 1.617,-0.672 0.429,-0.43 0.672,-1.012 0.672,-1.617 z"
         style="fill:none;stroke:#000000;stroke-width:0.36;stroke-linecap:square;stroke-linejoin:miter;stroke-miterlimit:3.25;stroke-dasharray:none;stroke-opacity:0.7"
         id="path88" /><text
         transform="translate(202.83017,46.674072)"
         style="font-variant:normal;font-size:6.48px;font-family:CairoFont-1;-inkscape-font-specification:CairoFont-1-0;writing-mode:lr-tb;fill:#000000;fill-opacity:1;fill-rule:nonzero;stroke:none"
         id="text92"><tspan
           x="0"
           y="0"
           id="tspan90">2</tspan></text><path
         d="m 250.363,155.84 c 0,-0.606 -0.242,-1.188 -0.672,-1.617 -0.425,-0.43 -1.007,-0.668 -1.617,-0.668 -0.605,0 -1.187,0.238 -1.617,0.668 -0.43,0.429 -0.672,1.011 -0.672,1.617 0,0.609 0.242,1.191 0.672,1.621 0.43,0.43 1.012,0.668 1.617,0.668 0.61,0 1.192,-0.238 1.617,-0.668 0.43,-0.43 0.672,-1.012 0.672,-1.621 z"
         style="fill:#a3b4cc;fill-opacity:1;fill-rule:evenodd;stroke:none"
         id="path94" /><path
         d="m 250.363,155.84 c 0,-0.606 -0.242,-1.188 -0.672,-1.617 -0.425,-0.43 -1.007,-0.668 -1.617,-0.668 -0.605,0 -1.187,0.238 -1.617,0.668 -0.43,0.429 -0.672,1.011 -0.672,1.617 0,0.609 0.242,1.191 0.672,1.621 0.43,0.43 1.012,0.668 1.617,0.668 0.61,0 1.192,-0.238 1.617,-0.668 0.43,-0.43 0.672,-1.012 0.672,-1.621 z"
         style="fill:none;stroke:#000000;stroke-width:0.36;stroke-linecap:square;stroke-linejoin:miter;stroke-miterlimit:3.25;stroke-dasharray:none;stroke-opacity:0.7"
         id="path96" /><text
         transform="translate(251.80351,150.67278)"
         style="font-variant:normal;font-size:6.48px;font-family:CairoFont-0;-inkscape-font-specification:CairoFont-0-0;writing-mode:lr-tb;fill:#000000;fill-opacity:1;fill-rule:nonzero;stroke:none"
         id="text100"><tspan
           x="0"
           y="0"
           id="tspan98">-</tspan></text><text
         transform="translate(255.58135,150.67278)"
         style="font-variant:normal;font-size:6.48px;font-family:CairoFont-1;-inkscape-font-specification:CairoFont-1-0;writing-mode:lr-tb;fill:#000000;fill-opacity:1;fill-rule:nonzero;stroke:none"
         id="text104"><tspan
           x="0"
           y="0"
           id="tspan102">1</tspan></text><path
         d="m 201.457,115.277 c 0,-0.605 -0.242,-1.187 -0.672,-1.617 -0.426,-0.43 -1.008,-0.668 -1.617,-0.668 -0.606,0 -1.188,0.238 -1.617,0.668 -0.43,0.43 -0.672,1.012 -0.672,1.617 0,0.61 0.242,1.192 0.672,1.621 0.429,0.43 1.011,0.668 1.617,0.668 0.609,0 1.191,-0.238 1.617,-0.668 0.43,-0.429 0.672,-1.011 0.672,-1.621 z"
         style="fill:#a3b4cc;fill-opacity:1;fill-rule:evenodd;stroke:none"
         id="path106" /><path
         d="m 201.457,115.277 c 0,-0.605 -0.242,-1.187 -0.672,-1.617 -0.426,-0.43 -1.008,-0.668 -1.617,-0.668 -0.606,0 -1.188,0.238 -1.617,0.668 -0.43,0.43 -0.672,1.012 -0.672,1.617 0,0.61 0.242,1.192 0.672,1.621 0.429,0.43 1.011,0.668 1.617,0.668 0.609,0 1.191,-0.238 1.617,-0.668 0.43,-0.429 0.672,-1.011 0.672,-1.621 z"
         style="fill:none;stroke:#000000;stroke-width:0.36;stroke-linecap:square;stroke-linejoin:miter;stroke-miterlimit:3.25;stroke-dasharray:none;stroke-opacity:0.7"
         id="path108" /><text
         transform="translate(202.89731,110.1103)"
         style="font-variant:normal;font-size:6.48px;font-family:CairoFont-1;-inkscape-font-specification:CairoFont-1-0;writing-mode:lr-tb;fill:#000000;fill-opacity:1;fill-rule:nonzero;stroke:none"
         id="text112"><tspan
           x="0"
           y="0"
           id="tspan110">3</tspan></text><path
         d="m 130.004,56.332 c 0,-0.605 -0.242,-1.187 -0.672,-1.617 -0.43,-0.43 -1.012,-0.672 -1.617,-0.672 -0.61,0 -1.192,0.242 -1.617,0.672 -0.43,0.43 -0.672,1.012 -0.672,1.617 0,0.606 0.242,1.188 0.672,1.617 0.425,0.43 1.007,0.672 1.617,0.672 0.605,0 1.187,-0.242 1.617,-0.672 0.43,-0.429 0.672,-1.011 0.672,-1.617 z"
         style="fill:#a3b4cc;fill-opacity:1;fill-rule:evenodd;stroke:none"
         id="path114" /><path
         d="m 130.004,56.332 c 0,-0.605 -0.242,-1.187 -0.672,-1.617 -0.43,-0.43 -1.012,-0.672 -1.617,-0.672 -0.61,0 -1.192,0.242 -1.617,0.672 -0.43,0.43 -0.672,1.012 -0.672,1.617 0,0.606 0.242,1.188 0.672,1.617 0.425,0.43 1.007,0.672 1.617,0.672 0.605,0 1.187,-0.242 1.617,-0.672 0.43,-0.429 0.672,-1.011 0.672,-1.617 z"
         style="fill:none;stroke:#000000;stroke-width:0.36;stroke-linecap:square;stroke-linejoin:miter;stroke-miterlimit:3.25;stroke-dasharray:none;stroke-opacity:0.7"
         id="path116" /><text
         transform="translate(131.44282,51.163079)"
         style="font-variant:normal;font-size:6.48px;font-family:CairoFont-1;-inkscape-font-specification:CairoFont-1-0;writing-mode:lr-tb;fill:#000000;fill-opacity:1;fill-rule:nonzero;stroke:none"
         id="text120"><tspan
           x="0"
           y="0"
           id="tspan118">6</tspan></text><path
         d="m 130.059,110.84 c 0,-0.606 -0.243,-1.188 -0.668,-1.617 -0.43,-0.43 -1.012,-0.672 -1.621,-0.672 -0.606,0 -1.188,0.242 -1.618,0.672 -0.429,0.429 -0.672,1.011 -0.672,1.617 0,0.605 0.243,1.187 0.672,1.617 0.43,0.43 1.012,0.672 1.618,0.672 0.609,0 1.191,-0.242 1.621,-0.672 0.425,-0.43 0.668,-1.012 0.668,-1.617 z"
         style="fill:#a3b4cc;fill-opacity:1;fill-rule:evenodd;stroke:none"
         id="path122" /><path
         d="m 130.059,110.84 c 0,-0.606 -0.243,-1.188 -0.668,-1.617 -0.43,-0.43 -1.012,-0.672 -1.621,-0.672 -0.606,0 -1.188,0.242 -1.618,0.672 -0.429,0.429 -0.672,1.011 -0.672,1.617 0,0.605 0.243,1.187 0.672,1.617 0.43,0.43 1.012,0.672 1.618,0.672 0.609,0 1.191,-0.242 1.621,-0.672 0.425,-0.43 0.668,-1.012 0.668,-1.617 z"
         style="fill:none;stroke:#000000;stroke-width:0.36;stroke-linecap:square;stroke-linejoin:miter;stroke-miterlimit:3.25;stroke-dasharray:none;stroke-opacity:0.7"
         id="path124" /><text
         transform="translate(131.49901,105.67108)"
         style="font-variant:normal;font-size:6.48px;font-family:CairoFont-1;-inkscape-font-specification:CairoFont-1-0;writing-mode:lr-tb;fill:#000000;fill-opacity:1;fill-rule:nonzero;stroke:none"
         id="text128"><tspan
           x="0"
           y="0"
           id="tspan126">5</tspan></text></g></g></svg>
