<?xml version="1.0" encoding="UTF-8" standalone="no"?>
<!-- Created with Inkscape (http://www.inkscape.org/) -->

<svg
   version="1.1"
   id="svg2"
   width="518.66669"
   height="153.33333"
   viewBox="0 0 518.66669 153.33333"
   sodipodi:docname="0ick2585357k9.pdf"
   xmlns:inkscape="http://www.inkscape.org/namespaces/inkscape"
   xmlns:sodipodi="http://sodipodi.sourceforge.net/DTD/sodipodi-0.dtd"
   xmlns="http://www.w3.org/2000/svg"
   xmlns:svg="http://www.w3.org/2000/svg">
  <defs
     id="defs6">
    <clipPath
       clipPathUnits="userSpaceOnUse"
       id="clipPath50">
      <path
         d="m 0,113 h 388.801 v 1 H 0 Z"
         id="path48" />
    </clipPath>
    <clipPath
       clipPathUnits="userSpaceOnUse"
       id="clipPath64">
      <path
         d="M 0,0 H 388.801 V 1 H 0 Z"
         id="path62" />
    </clipPath>
    <clipPath
       clipPathUnits="userSpaceOnUse"
       id="clipPath74">
      <path
         d="m 388,0 h 0.801 V 114 H 388 Z"
         id="path72" />
    </clipPath>
  </defs>
  <sodipodi:namedview
     id="namedview4"
     pagecolor="#ffffff"
     bordercolor="#999999"
     borderopacity="1"
     inkscape:showpageshadow="0"
     inkscape:pageopacity="0"
     inkscape:pagecheckerboard="0"
     inkscape:deskcolor="#d1d1d1" />
  <g
     id="g8"
     inkscape:groupmode="layer"
     inkscape:label="0ick2585357k9"
     transform="scale(1.3333333)">
    <g
       id="g10">
      <path
         d="M 15.402,57.039 H 129.824"
         style="fill:none;stroke:#000000;stroke-width:2.16;stroke-linecap:butt;stroke-linejoin:miter;stroke-miterlimit:3.25;stroke-dasharray:none;stroke-opacity:0.7"
         id="path12" />
      <path
         d="m 136.465,54.844 7.191,-5.34 10.149,-6.164 10.148,-4.793 10.149,-3.426 10.148,-2.055 10.148,-0.683 10.153,0.683 10.148,2.055 10.149,3.426 10.148,4.793 10.149,6.164 7.191,5.34"
         style="fill:none;stroke:#000000;stroke-width:2.16;stroke-linecap:butt;stroke-linejoin:miter;stroke-miterlimit:3.25;stroke-dasharray:4.32, 4.32;stroke-dashoffset:0;stroke-opacity:0.7"
         id="path14" />
      <text
         xml:space="preserve"
         transform="translate(191.19937,39.085588)"
         style="font-variant:normal;font-size:9.84px;font-family:CairoFont-0;-inkscape-font-specification:CairoFont-0-0;writing-mode:lr-tb;fill:#000000;fill-opacity:1;fill-rule:nonzero;stroke:none"
         id="text18"><tspan
           x="0"
           y="0"
           id="tspan16">X</tspan></text>
      <path
         d="m 137.098,56.219 16.707,-3.821 20.297,-2.785 20.296,-0.929 20.301,0.929 20.297,2.785 16.707,3.821"
         style="fill:none;stroke:#000000;stroke-width:2.16;stroke-linecap:butt;stroke-linejoin:miter;stroke-miterlimit:3.25;stroke-dasharray:4.32, 4.32;stroke-dashoffset:0;stroke-opacity:0.7"
         id="path20" />
      <path
         d="m 137.098,57.859 16.707,3.821 20.297,2.785 20.296,0.926 20.301,-0.926 20.297,-2.785 16.707,-3.821"
         style="fill:none;stroke:#0000ff;stroke-width:2.16;stroke-linecap:butt;stroke-linejoin:miter;stroke-miterlimit:3.25;stroke-dasharray:4.32, 4.32;stroke-dashoffset:0;stroke-opacity:0.7"
         id="path22" />
      <path
         d="m 136.465,59.234 7.191,5.34 10.149,6.164 10.148,4.793 10.149,3.426 10.148,2.055 10.148,0.683 10.153,-0.683 10.148,-2.055 10.149,-3.426 10.148,-4.793 10.149,-6.164 7.191,-5.34"
         style="fill:none;stroke:#0000ff;stroke-width:2.16;stroke-linecap:butt;stroke-linejoin:miter;stroke-miterlimit:3.25;stroke-dasharray:4.32, 4.32;stroke-dashoffset:0;stroke-opacity:0.7"
         id="path24" />
      <path
         d="M 373.398,57.039 H 258.977"
         style="fill:none;stroke:#000000;stroke-width:2.16;stroke-linecap:butt;stroke-linejoin:miter;stroke-miterlimit:3.25;stroke-dasharray:none;stroke-opacity:0.7"
         id="path26" />
      <path
         d="m 15.402,57.039 c 0,-0.977 -0.39,-1.914 -1.082,-2.605 -0.687,-0.692 -1.625,-1.079 -2.601,-1.079 -0.977,0 -1.914,0.387 -2.606,1.079 -0.691,0.691 -1.078,1.628 -1.078,2.605 0,0.977 0.387,1.914 1.078,2.606 0.692,0.687 1.629,1.078 2.606,1.078 0.976,0 1.914,-0.391 2.601,-1.078 0.692,-0.692 1.082,-1.629 1.082,-2.606 z"
         style="fill:#a3b4cc;fill-opacity:1;fill-rule:evenodd;stroke:none"
         id="path28" />
      <path
         d="m 15.402,57.039 c 0,-0.977 -0.39,-1.914 -1.082,-2.605 -0.687,-0.692 -1.625,-1.079 -2.601,-1.079 -0.977,0 -1.914,0.387 -2.606,1.079 -0.691,0.691 -1.078,1.628 -1.078,2.605 0,0.977 0.387,1.914 1.078,2.606 0.692,0.687 1.629,1.078 2.606,1.078 0.976,0 1.914,-0.391 2.601,-1.078 0.692,-0.692 1.082,-1.629 1.082,-2.606 z"
         style="fill:none;stroke:#000000;stroke-width:0.54;stroke-linecap:square;stroke-linejoin:miter;stroke-miterlimit:3.25;stroke-dasharray:none;stroke-opacity:0.7"
         id="path30" />
      <path
         d="m 137.188,57.039 c 0,-0.977 -0.387,-1.914 -1.079,-2.605 -0.691,-0.692 -1.625,-1.079 -2.601,-1.079 -0.981,0 -1.914,0.387 -2.606,1.079 -0.691,0.691 -1.078,1.628 -1.078,2.605 0,0.977 0.387,1.914 1.078,2.606 0.692,0.687 1.625,1.078 2.606,1.078 0.976,0 1.91,-0.391 2.601,-1.078 0.692,-0.692 1.079,-1.629 1.079,-2.606 z"
         style="fill:#a3b4cc;fill-opacity:1;fill-rule:evenodd;stroke:none"
         id="path32" />
      <path
         d="m 137.188,57.039 c 0,-0.977 -0.387,-1.914 -1.079,-2.605 -0.691,-0.692 -1.625,-1.079 -2.601,-1.079 -0.981,0 -1.914,0.387 -2.606,1.079 -0.691,0.691 -1.078,1.628 -1.078,2.605 0,0.977 0.387,1.914 1.078,2.606 0.692,0.687 1.625,1.078 2.606,1.078 0.976,0 1.91,-0.391 2.601,-1.078 0.692,-0.692 1.079,-1.629 1.079,-2.606 z"
         style="fill:none;stroke:#000000;stroke-width:0.54;stroke-linecap:square;stroke-linejoin:miter;stroke-miterlimit:3.25;stroke-dasharray:none;stroke-opacity:0.7"
         id="path34" />
      <path
         d="m 380.766,57.039 c 0,-0.977 -0.391,-1.914 -1.078,-2.605 -0.692,-0.692 -1.629,-1.079 -2.606,-1.079 -0.977,0 -1.914,0.387 -2.605,1.079 -0.688,0.691 -1.079,1.628 -1.079,2.605 0,0.977 0.391,1.914 1.079,2.606 0.691,0.687 1.628,1.078 2.605,1.078 0.977,0 1.914,-0.391 2.606,-1.078 0.687,-0.692 1.078,-1.629 1.078,-2.606 z"
         style="fill:#a3b4cc;fill-opacity:1;fill-rule:evenodd;stroke:none"
         id="path36" />
      <path
         d="m 380.766,57.039 c 0,-0.977 -0.391,-1.914 -1.078,-2.605 -0.692,-0.692 -1.629,-1.079 -2.606,-1.079 -0.977,0 -1.914,0.387 -2.605,1.079 -0.688,0.691 -1.079,1.628 -1.079,2.605 0,0.977 0.391,1.914 1.079,2.606 0.691,0.687 1.628,1.078 2.605,1.078 0.977,0 1.914,-0.391 2.606,-1.078 0.687,-0.692 1.078,-1.629 1.078,-2.606 z"
         style="fill:none;stroke:#000000;stroke-width:0.54;stroke-linecap:square;stroke-linejoin:miter;stroke-miterlimit:3.25;stroke-dasharray:none;stroke-opacity:0.7"
         id="path38" />
      <path
         d="m 258.977,57.039 c 0,-0.977 -0.387,-1.914 -1.079,-2.605 -0.691,-0.692 -1.628,-1.079 -2.605,-1.079 -0.977,0 -1.914,0.387 -2.602,1.079 -0.691,0.691 -1.082,1.628 -1.082,2.605 0,0.977 0.391,1.914 1.082,2.606 0.688,0.687 1.625,1.078 2.602,1.078 0.977,0 1.914,-0.391 2.605,-1.078 0.692,-0.692 1.079,-1.629 1.079,-2.606 z"
         style="fill:#a3b4cc;fill-opacity:1;fill-rule:evenodd;stroke:none"
         id="path40" />
      <path
         d="m 258.977,57.039 c 0,-0.977 -0.387,-1.914 -1.079,-2.605 -0.691,-0.692 -1.628,-1.079 -2.605,-1.079 -0.977,0 -1.914,0.387 -2.602,1.079 -0.691,0.691 -1.082,1.628 -1.082,2.605 0,0.977 0.391,1.914 1.082,2.606 0.688,0.687 1.625,1.078 2.602,1.078 0.977,0 1.914,-0.391 2.605,-1.078 0.692,-0.692 1.079,-1.629 1.079,-2.606 z"
         style="fill:none;stroke:#000000;stroke-width:0.54;stroke-linecap:square;stroke-linejoin:miter;stroke-miterlimit:3.25;stroke-dasharray:none;stroke-opacity:0.7"
         id="path42" />
    </g>
    <g
       id="g44">
      <g
         id="g46"
         clip-path="url(#clipPath50)">
        <path
           d="M 388.531,113.809 H 0.27"
           style="fill:none;stroke:#000000;stroke-width:0.216;stroke-linecap:square;stroke-linejoin:miter;stroke-miterlimit:3.25;stroke-dasharray:none;stroke-opacity:1"
           id="path52" />
      </g>
    </g>
    <g
       id="g54">
      <path
         d="M 0.27,113.809 V 0.27"
         style="fill:none;stroke:#000000;stroke-width:0.216;stroke-linecap:square;stroke-linejoin:miter;stroke-miterlimit:3.25;stroke-dasharray:none;stroke-opacity:1"
         id="path56" />
    </g>
    <g
       id="g58">
      <g
         id="g60"
         clip-path="url(#clipPath64)">
        <path
           d="M 0.27,0.27 H 388.531"
           style="fill:none;stroke:#000000;stroke-width:0.216;stroke-linecap:square;stroke-linejoin:miter;stroke-miterlimit:3.25;stroke-dasharray:none;stroke-opacity:1"
           id="path66" />
      </g>
    </g>
    <g
       id="g68">
      <g
         id="g70"
         clip-path="url(#clipPath74)">
        <path
           d="M 388.531,0.27 V 113.809"
           style="fill:none;stroke:#000000;stroke-width:0.216;stroke-linecap:square;stroke-linejoin:miter;stroke-miterlimit:3.25;stroke-dasharray:none;stroke-opacity:1"
           id="path76" />
      </g>
    </g>
  </g>
</svg>
