<?xml version="1.0" encoding="UTF-8" standalone="no"?>
<!-- Created with Inkscape (http://www.inkscape.org/) -->

<svg
   version="1.1"
   id="svg2"
   xml:space="preserve"
   width="518.66669"
   height="172"
   viewBox="0 0 518.66669 172"
   sodipodi:docname="0isqi3dlxey8z.pdf"
   xmlns:inkscape="http://www.inkscape.org/namespaces/inkscape"
   xmlns:sodipodi="http://sodipodi.sourceforge.net/DTD/sodipodi-0.dtd"
   xmlns="http://www.w3.org/2000/svg"
   xmlns:svg="http://www.w3.org/2000/svg"><defs
     id="defs6"><clipPath
       clipPathUnits="userSpaceOnUse"
       id="clipPath58"><path
         d="m 0,127 h 388.801 v 0.922 H 0 Z"
         id="path56" /></clipPath><clipPath
       clipPathUnits="userSpaceOnUse"
       id="clipPath68"><path
         d="M 0,0 H 1 V 127.922 H 0 Z"
         id="path66" /></clipPath><clipPath
       clipPathUnits="userSpaceOnUse"
       id="clipPath78"><path
         d="M 0,0 H 388.801 V 1 H 0 Z"
         id="path76" /></clipPath><clipPath
       clipPathUnits="userSpaceOnUse"
       id="clipPath88"><path
         d="m 388,0 h 0.801 V 127.922 H 388 Z"
         id="path86" /></clipPath></defs><sodipodi:namedview
     id="namedview4"
     pagecolor="#505050"
     bordercolor="#eeeeee"
     borderopacity="1"
     inkscape:pageshadow="0"
     inkscape:pageopacity="0"
     inkscape:pagecheckerboard="0" /><g
     id="g8"
     inkscape:groupmode="layer"
     inkscape:label="0isqi3dlxey8z"
     transform="matrix(1.3333333,0,0,1.3333333,0,4.3e-6)"><g
       id="g10"><path
         d="m 14.914,64.043 91.383,0.004"
         style="fill:none;stroke:#000000;stroke-width:2.16;stroke-linecap:butt;stroke-linejoin:miter;stroke-miterlimit:3.25;stroke-dasharray:none;stroke-opacity:0.7"
         id="path12" /><path
         d="m 113.141,63.539 8.273,-1.238 10.961,-0.379 10.246,0.992 9.527,2.359 8.817,3.731 8.101,5.101 7.383,6.473 6.672,7.84 5.953,9.211 3.711,7.496"
         style="fill:none;stroke:#000000;stroke-width:2.16;stroke-linecap:butt;stroke-linejoin:miter;stroke-miterlimit:3.25;stroke-dasharray:4.32, 4.32;stroke-dashoffset:0;stroke-opacity:0.7"
         id="path14" /><path
         d="m 111.266,67.133 3.711,7.496 5.953,9.211 6.672,7.84 7.382,6.468 8.102,5.102 8.812,3.73 9.532,2.364 10.246,0.992 10.961,-0.379 8.273,-1.238"
         style="fill:none;stroke:#000000;stroke-width:2.16;stroke-linecap:butt;stroke-linejoin:miter;stroke-miterlimit:3.25;stroke-dasharray:4.32, 4.32;stroke-dashoffset:0;stroke-opacity:0.7"
         id="path16" /><path
         d="m 111.266,60.965 3.711,-7.496 5.953,-9.211 6.668,-7.84 7.386,-6.469 8.098,-5.101 8.816,-3.731 9.528,-2.363 10.246,-0.992 10.961,0.379 8.273,1.238"
         style="fill:none;stroke:#0000ff;stroke-width:2.16;stroke-linecap:butt;stroke-linejoin:miter;stroke-miterlimit:3.25;stroke-dasharray:4.32, 4.32;stroke-dashoffset:0;stroke-opacity:0.7"
         id="path18" /><path
         d="m 113.141,64.559 8.273,1.238 10.961,0.379 10.246,-0.992 9.527,-2.364 8.817,-3.73 8.097,-5.102 7.387,-6.468 6.668,-7.84 5.953,-9.211 3.711,-7.496"
         style="fill:none;stroke:#0000ff;stroke-width:2.16;stroke-linecap:butt;stroke-linejoin:miter;stroke-miterlimit:3.25;stroke-dasharray:4.32, 4.32;stroke-dashoffset:0;stroke-opacity:0.7"
         id="path20" /><path
         d="m 373.887,64.043 -91.508,0.004"
         style="fill:none;stroke:#000000;stroke-width:2.16;stroke-linecap:butt;stroke-linejoin:miter;stroke-miterlimit:3.25;stroke-dasharray:none;stroke-opacity:0.7"
         id="path22" /><path
         d="m 275.891,65.637 -78.528,40.98"
         style="fill:none;stroke:#000000;stroke-width:2.16;stroke-linecap:butt;stroke-linejoin:miter;stroke-miterlimit:3.25;stroke-dasharray:none;stroke-opacity:0.7"
         id="path24" /><path
         d="M 275.887,62.457 197.359,21.48"
         style="fill:none;stroke:#ff0000;stroke-width:2.16;stroke-linecap:butt;stroke-linejoin:miter;stroke-miterlimit:3.25;stroke-dasharray:4.32, 4.32;stroke-dashoffset:0;stroke-opacity:0.7"
         id="path26" /><path
         d="m 14.914,64.043 c 0,-0.91 -0.363,-1.785 -1.008,-2.43 -0.644,-0.648 -1.519,-1.008 -2.429,-1.008 -0.915,0 -1.789,0.36 -2.434,1.008 -0.645,0.645 -1.008,1.52 -1.008,2.43 0,0.914 0.363,1.789 1.008,2.434 0.645,0.644 1.519,1.007 2.434,1.007 0.91,0 1.785,-0.363 2.429,-1.007 0.645,-0.645 1.008,-1.52 1.008,-2.434 z"
         style="fill:#a3b4cc;fill-opacity:1;fill-rule:evenodd;stroke:none"
         id="path28" /><path
         d="m 14.914,64.043 c 0,-0.91 -0.363,-1.785 -1.008,-2.43 -0.644,-0.648 -1.519,-1.008 -2.429,-1.008 -0.915,0 -1.789,0.36 -2.434,1.008 -0.645,0.645 -1.008,1.52 -1.008,2.43 0,0.914 0.363,1.789 1.008,2.434 0.645,0.644 1.519,1.007 2.434,1.007 0.91,0 1.785,-0.363 2.429,-1.007 0.645,-0.645 1.008,-1.52 1.008,-2.434 z"
         style="fill:none;stroke:#000000;stroke-width:0.54;stroke-linecap:square;stroke-linejoin:miter;stroke-miterlimit:3.25;stroke-dasharray:none;stroke-opacity:0.7"
         id="path30" /><path
         d="m 113.176,64.047 c 0,-0.91 -0.36,-1.785 -1.004,-2.43 -0.649,-0.644 -1.524,-1.008 -2.434,-1.008 -0.914,0 -1.789,0.364 -2.433,1.008 -0.645,0.645 -1.008,1.52 -1.008,2.43 0,0.914 0.363,1.789 1.008,2.433 0.644,0.645 1.519,1.008 2.433,1.008 0.91,0 1.785,-0.363 2.434,-1.008 0.644,-0.644 1.004,-1.519 1.004,-2.433 z"
         style="fill:#a3b4cc;fill-opacity:1;fill-rule:evenodd;stroke:none"
         id="path32" /><path
         d="m 113.176,64.047 c 0,-0.91 -0.36,-1.785 -1.004,-2.43 -0.649,-0.644 -1.524,-1.008 -2.434,-1.008 -0.914,0 -1.789,0.364 -2.433,1.008 -0.645,0.645 -1.008,1.52 -1.008,2.43 0,0.914 0.363,1.789 1.008,2.433 0.644,0.645 1.519,1.008 2.433,1.008 0.91,0 1.785,-0.363 2.434,-1.008 0.644,-0.644 1.004,-1.519 1.004,-2.433 z"
         style="fill:none;stroke:#000000;stroke-width:0.54;stroke-linecap:square;stroke-linejoin:miter;stroke-miterlimit:3.25;stroke-dasharray:none;stroke-opacity:0.7"
         id="path34" /><path
         d="m 380.766,64.043 c 0,-0.91 -0.364,-1.785 -1.008,-2.43 -0.645,-0.644 -1.52,-1.008 -2.434,-1.008 -0.91,0 -1.785,0.364 -2.429,1.008 -0.649,0.645 -1.008,1.52 -1.008,2.43 0,0.914 0.359,1.789 1.008,2.434 0.644,0.644 1.519,1.007 2.429,1.007 0.914,0 1.789,-0.363 2.434,-1.007 0.644,-0.645 1.008,-1.52 1.008,-2.434 z"
         style="fill:#a3b4cc;fill-opacity:1;fill-rule:evenodd;stroke:none"
         id="path36" /><path
         d="m 380.766,64.043 c 0,-0.91 -0.364,-1.785 -1.008,-2.43 -0.645,-0.644 -1.52,-1.008 -2.434,-1.008 -0.91,0 -1.785,0.364 -2.429,1.008 -0.649,0.645 -1.008,1.52 -1.008,2.43 0,0.914 0.359,1.789 1.008,2.434 0.644,0.644 1.519,1.007 2.429,1.007 0.914,0 1.789,-0.363 2.434,-1.007 0.644,-0.645 1.008,-1.52 1.008,-2.434 z"
         style="fill:none;stroke:#000000;stroke-width:0.54;stroke-linecap:square;stroke-linejoin:miter;stroke-miterlimit:3.25;stroke-dasharray:none;stroke-opacity:0.7"
         id="path38" /><path
         d="m 282.379,64.047 c 0,-0.914 -0.363,-1.789 -1.008,-2.434 -0.644,-0.644 -1.519,-1.008 -2.433,-1.008 -0.911,0 -1.786,0.364 -2.43,1.008 -0.649,0.645 -1.008,1.52 -1.008,2.434 0,0.91 0.359,1.785 1.008,2.433 0.644,0.645 1.519,1.004 2.43,1.004 0.914,0 1.789,-0.359 2.433,-1.004 0.645,-0.648 1.008,-1.523 1.008,-2.433 z"
         style="fill:#a3b4cc;fill-opacity:1;fill-rule:evenodd;stroke:none"
         id="path40" /><path
         d="m 282.379,64.047 c 0,-0.914 -0.363,-1.789 -1.008,-2.434 -0.644,-0.644 -1.519,-1.008 -2.433,-1.008 -0.911,0 -1.786,0.364 -2.43,1.008 -0.649,0.645 -1.008,1.52 -1.008,2.434 0,0.91 0.359,1.785 1.008,2.433 0.644,0.645 1.519,1.004 2.43,1.004 0.914,0 1.789,-0.359 2.433,-1.004 0.645,-0.648 1.008,-1.523 1.008,-2.433 z"
         style="fill:none;stroke:#000000;stroke-width:0.54;stroke-linecap:square;stroke-linejoin:miter;stroke-miterlimit:3.25;stroke-dasharray:none;stroke-opacity:0.7"
         id="path42" /><path
         d="m 197.754,108.207 c 0,-0.91 -0.363,-1.785 -1.008,-2.434 -0.648,-0.644 -1.519,-1.003 -2.434,-1.003 -0.914,0 -1.789,0.359 -2.433,1.003 -0.645,0.649 -1.008,1.524 -1.008,2.434 0,0.914 0.363,1.789 1.008,2.434 0.644,0.644 1.519,1.007 2.433,1.007 0.915,0 1.786,-0.363 2.434,-1.007 0.645,-0.645 1.008,-1.52 1.008,-2.434 z"
         style="fill:#a3b4cc;fill-opacity:1;fill-rule:evenodd;stroke:none"
         id="path44" /><path
         d="m 197.754,108.207 c 0,-0.91 -0.363,-1.785 -1.008,-2.434 -0.648,-0.644 -1.519,-1.003 -2.434,-1.003 -0.914,0 -1.789,0.359 -2.433,1.003 -0.645,0.649 -1.008,1.524 -1.008,2.434 0,0.914 0.363,1.789 1.008,2.434 0.644,0.644 1.519,1.007 2.433,1.007 0.915,0 1.786,-0.363 2.434,-1.007 0.645,-0.645 1.008,-1.52 1.008,-2.434 z"
         style="fill:none;stroke:#000000;stroke-width:0.54;stroke-linecap:square;stroke-linejoin:miter;stroke-miterlimit:3.25;stroke-dasharray:none;stroke-opacity:0.7"
         id="path46" /><path
         d="m 197.75,19.887 c 0,-0.91 -0.363,-1.785 -1.008,-2.43 -0.644,-0.645 -1.519,-1.008 -2.433,-1.008 -0.914,0 -1.786,0.363 -2.434,1.008 -0.645,0.645 -1.008,1.52 -1.008,2.43 0,0.914 0.363,1.789 1.008,2.433 0.648,0.645 1.52,1.008 2.434,1.008 0.914,0 1.789,-0.363 2.433,-1.008 0.645,-0.644 1.008,-1.519 1.008,-2.433 z"
         style="fill:#a3b4cc;fill-opacity:1;fill-rule:evenodd;stroke:none"
         id="path48" /><path
         d="m 197.75,19.887 c 0,-0.91 -0.363,-1.785 -1.008,-2.43 -0.644,-0.645 -1.519,-1.008 -2.433,-1.008 -0.914,0 -1.786,0.363 -2.434,1.008 -0.645,0.645 -1.008,1.52 -1.008,2.43 0,0.914 0.363,1.789 1.008,2.433 0.648,0.645 1.52,1.008 2.434,1.008 0.914,0 1.789,-0.363 2.433,-1.008 0.645,-0.644 1.008,-1.519 1.008,-2.433 z"
         style="fill:none;stroke:#000000;stroke-width:0.54;stroke-linecap:square;stroke-linejoin:miter;stroke-miterlimit:3.25;stroke-dasharray:none;stroke-opacity:0.7"
         id="path50" /></g><g
       id="g52"><g
         id="g54"
         clip-path="url(#clipPath58)"><path
           d="M 388.531,127.828 H 0.27"
           style="fill:none;stroke:#000000;stroke-width:0.216;stroke-linecap:square;stroke-linejoin:miter;stroke-miterlimit:3.25;stroke-dasharray:none;stroke-opacity:1"
           id="path60" /></g></g><g
       id="g62"><g
         id="g64"
         clip-path="url(#clipPath68)"><path
           d="M 0.27,127.828 V 0.27"
           style="fill:none;stroke:#000000;stroke-width:0.216;stroke-linecap:square;stroke-linejoin:miter;stroke-miterlimit:3.25;stroke-dasharray:none;stroke-opacity:1"
           id="path70" /></g></g><g
       id="g72"><g
         id="g74"
         clip-path="url(#clipPath78)"><path
           d="M 0.27,0.27 H 388.531"
           style="fill:none;stroke:#000000;stroke-width:0.216;stroke-linecap:square;stroke-linejoin:miter;stroke-miterlimit:3.25;stroke-dasharray:none;stroke-opacity:1"
           id="path80" /></g></g><g
       id="g82"><g
         id="g84"
         clip-path="url(#clipPath88)"><path
           d="M 388.531,0.27 V 127.828"
           style="fill:none;stroke:#000000;stroke-width:0.216;stroke-linecap:square;stroke-linejoin:miter;stroke-miterlimit:3.25;stroke-dasharray:none;stroke-opacity:1"
           id="path90" /></g></g></g></svg>
