<?xml version="1.0" encoding="UTF-8"?>
<svg xmlns="http://www.w3.org/2000/svg" xmlns:xlink="http://www.w3.org/1999/xlink" width="405pt" height="134pt" viewBox="0 0 405 134" version="1.1">
<defs>
<clipPath id="clip1">
  <path d="M 0 132 L 405 132 L 405 133.921875 L 0 133.921875 Z M 0 132 "/>
</clipPath>
<clipPath id="clip2">
  <path d="M 0 0 L 1 0 L 1 133.921875 L 0 133.921875 Z M 0 0 "/>
</clipPath>
<clipPath id="clip3">
  <path d="M 404 0 L 405 0 L 405 133.921875 L 404 133.921875 Z M 404 0 "/>
</clipPath>
</defs>
<g id="surface6">
<path style="fill:none;stroke-width:2.25;stroke-linecap:butt;stroke-linejoin:miter;stroke:rgb(0%,0%,0%);stroke-opacity:0.7;stroke-miterlimit:3.25;" d="M 65.296875 70.652344 L 160.355469 70.65625 " transform="matrix(1,0,0,1,-49.5,-3.75)"/>
<path style="fill:none;stroke-width:2.25;stroke-linecap:square;stroke-linejoin:miter;stroke:rgb(0%,0%,0%);stroke-opacity:0.7;stroke-miterlimit:3.25;" d="M 160.355469 70.65625 Z M 160.355469 70.65625 " transform="matrix(1,0,0,1,-49.5,-3.75)"/>
<path style="fill:none;stroke-width:2.25;stroke-linecap:butt;stroke-linejoin:miter;stroke:rgb(0%,0%,0%);stroke-opacity:0.7;stroke-dasharray:4.5,4.5;stroke-miterlimit:3.25;" d="M 167.472656 70.125 L 176.078125 68.835938 L 187.480469 68.445312 L 198.136719 69.476562 L 208.050781 71.929688 L 217.222656 75.8125 L 225.644531 81.117188 L 233.328125 87.847656 L 240.265625 96.003906 L 246.460938 105.585938 L 250.320312 113.382812 " transform="matrix(1,0,0,1,-49.5,-3.75)"/>
<path style="fill:none;stroke-width:2.25;stroke-linecap:butt;stroke-linejoin:miter;stroke:rgb(0%,0%,0%);stroke-opacity:0.7;stroke-dasharray:4.5,4.5;stroke-miterlimit:3.25;" d="M 250.320312 113.382812 Z M 250.320312 113.382812 " transform="matrix(1,0,0,1,-49.5,-3.75)"/>
<path style="fill:none;stroke-width:2.25;stroke-linecap:butt;stroke-linejoin:miter;stroke:rgb(0%,0%,0%);stroke-opacity:0.7;stroke-dasharray:4.5,4.5;stroke-miterlimit:3.25;" d="M 165.519531 73.863281 L 169.382812 81.660156 L 175.574219 91.242188 L 182.515625 99.398438 L 190.195312 106.128906 L 198.621094 111.433594 L 207.789062 115.316406 L 217.703125 117.773438 L 228.363281 118.804688 L 239.761719 118.410156 L 248.371094 117.121094 " transform="matrix(1,0,0,1,-49.5,-3.75)"/>
<path style="fill:none;stroke-width:2.25;stroke-linecap:butt;stroke-linejoin:miter;stroke:rgb(0%,0%,0%);stroke-opacity:0.7;stroke-dasharray:4.5,4.5;stroke-miterlimit:3.25;" d="M 248.371094 117.121094 Z M 248.371094 117.121094 " transform="matrix(1,0,0,1,-49.5,-3.75)"/>
<path style="fill:none;stroke-width:2.25;stroke-linecap:butt;stroke-linejoin:miter;stroke:rgb(0%,0%,99.998474%);stroke-opacity:0.7;stroke-dasharray:4.5,4.5;stroke-miterlimit:3.25;" d="M 165.519531 67.449219 L 169.382812 59.652344 L 175.574219 50.070312 L 182.511719 41.914062 L 190.195312 35.183594 L 198.617188 29.878906 L 207.789062 25.996094 L 217.703125 23.539062 L 228.359375 22.507812 L 239.761719 22.902344 L 248.367188 24.191406 " transform="matrix(1,0,0,1,-49.5,-3.75)"/>
<path style="fill:none;stroke-width:2.25;stroke-linecap:butt;stroke-linejoin:miter;stroke:rgb(0%,0%,99.998474%);stroke-opacity:0.7;stroke-dasharray:4.5,4.5;stroke-miterlimit:3.25;" d="M 248.367188 24.191406 Z M 248.367188 24.191406 " transform="matrix(1,0,0,1,-49.5,-3.75)"/>
<path style="fill:none;stroke-width:2.25;stroke-linecap:butt;stroke-linejoin:miter;stroke:rgb(0%,0%,99.998474%);stroke-opacity:0.7;stroke-dasharray:4.5,4.5;stroke-miterlimit:3.25;" d="M 167.472656 71.1875 L 176.078125 72.472656 L 187.480469 72.867188 L 198.136719 71.835938 L 208.050781 69.378906 L 217.21875 65.5 L 225.644531 60.191406 L 233.324219 53.460938 L 240.261719 45.304688 L 246.457031 35.726562 L 250.316406 27.925781 " transform="matrix(1,0,0,1,-49.5,-3.75)"/>
<path style="fill:none;stroke-width:2.25;stroke-linecap:butt;stroke-linejoin:miter;stroke:rgb(0%,0%,99.998474%);stroke-opacity:0.7;stroke-dasharray:4.5,4.5;stroke-miterlimit:3.25;" d="M 250.316406 27.925781 Z M 250.316406 27.925781 " transform="matrix(1,0,0,1,-49.5,-3.75)"/>
<path style="fill:none;stroke-width:2.25;stroke-linecap:butt;stroke-linejoin:miter;stroke:rgb(0%,0%,0%);stroke-opacity:0.7;stroke-miterlimit:3.25;" d="M 438.703125 70.652344 L 343.515625 70.652344 " transform="matrix(1,0,0,1,-49.5,-3.75)"/>
<path style="fill:none;stroke-width:2.25;stroke-linecap:square;stroke-linejoin:miter;stroke:rgb(0%,0%,0%);stroke-opacity:0.7;stroke-miterlimit:3.25;" d="M 343.515625 70.652344 Z M 343.515625 70.652344 " transform="matrix(1,0,0,1,-49.5,-3.75)"/>
<path style="fill:none;stroke-width:2.25;stroke-linecap:butt;stroke-linejoin:miter;stroke:rgb(0%,0%,0%);stroke-opacity:0.7;stroke-miterlimit:3.25;" d="M 336.765625 72.308594 L 255.082031 114.9375 " transform="matrix(1,0,0,1,-49.5,-3.75)"/>
<path style="fill:none;stroke-width:2.25;stroke-linecap:square;stroke-linejoin:miter;stroke:rgb(0%,0%,0%);stroke-opacity:0.7;stroke-miterlimit:3.25;" d="M 255.082031 114.9375 Z M 255.082031 114.9375 " transform="matrix(1,0,0,1,-49.5,-3.75)"/>
<path style="fill:none;stroke-width:2.25;stroke-linecap:butt;stroke-linejoin:miter;stroke:rgb(99.998474%,0%,0%);stroke-opacity:0.7;stroke-dasharray:4.5,4.5;stroke-miterlimit:3.25;" d="M 336.765625 69 L 255.078125 26.375 " transform="matrix(1,0,0,1,-49.5,-3.75)"/>
<path style="fill:none;stroke-width:2.25;stroke-linecap:butt;stroke-linejoin:miter;stroke:rgb(99.998474%,0%,0%);stroke-opacity:0.7;stroke-dasharray:4.5,4.5;stroke-miterlimit:3.25;" d="M 255.078125 26.375 Z M 255.078125 26.375 " transform="matrix(1,0,0,1,-49.5,-3.75)"/>
<path style="fill-rule:evenodd;fill:rgb(63.998413%,70.399475%,79.998779%);fill-opacity:1;stroke-width:1.125;stroke-linecap:square;stroke-linejoin:miter;stroke:rgb(0%,0%,0%);stroke-opacity:0.7;stroke-miterlimit:3.25;" d="M 65.296875 70.652344 C 65.296875 69.703125 64.917969 68.792969 64.25 68.121094 C 63.578125 67.449219 62.667969 67.074219 61.71875 67.074219 C 60.769531 67.074219 59.859375 67.449219 59.1875 68.121094 C 58.515625 68.792969 58.140625 69.703125 58.140625 70.652344 C 58.140625 71.601562 58.515625 72.511719 59.1875 73.183594 C 59.859375 73.851562 60.769531 74.230469 61.71875 74.230469 C 62.667969 74.230469 63.578125 73.851562 64.25 73.183594 C 64.917969 72.511719 65.296875 71.601562 65.296875 70.652344 Z M 65.296875 70.652344 " transform="matrix(1,0,0,1,-49.5,-3.75)"/>
<path style="fill-rule:evenodd;fill:rgb(63.998413%,70.399475%,79.998779%);fill-opacity:1;stroke-width:1.125;stroke-linecap:square;stroke-linejoin:miter;stroke:rgb(0%,0%,0%);stroke-opacity:0.7;stroke-miterlimit:3.25;" d="M 167.511719 70.65625 C 167.511719 69.707031 167.132812 68.796875 166.464844 68.125 C 165.792969 67.457031 164.882812 67.078125 163.933594 67.078125 C 162.984375 67.078125 162.074219 67.457031 161.402344 68.125 C 160.730469 68.796875 160.355469 69.707031 160.355469 70.65625 C 160.355469 71.605469 160.730469 72.515625 161.402344 73.1875 C 162.074219 73.859375 162.984375 74.234375 163.933594 74.234375 C 164.882812 74.234375 165.792969 73.859375 166.464844 73.1875 C 167.132812 72.515625 167.511719 71.605469 167.511719 70.65625 Z M 167.511719 70.65625 " transform="matrix(1,0,0,1,-49.5,-3.75)"/>
<path style="fill-rule:evenodd;fill:rgb(63.998413%,70.399475%,79.998779%);fill-opacity:1;stroke-width:1.125;stroke-linecap:square;stroke-linejoin:miter;stroke:rgb(0%,0%,0%);stroke-opacity:0.7;stroke-miterlimit:3.25;" d="M 445.859375 70.652344 C 445.859375 69.703125 445.484375 68.792969 444.8125 68.121094 C 444.140625 67.449219 443.230469 67.074219 442.28125 67.074219 C 441.332031 67.074219 440.421875 67.449219 439.75 68.121094 C 439.082031 68.792969 438.703125 69.703125 438.703125 70.652344 C 438.703125 71.601562 439.082031 72.511719 439.75 73.183594 C 440.421875 73.851562 441.332031 74.230469 442.28125 74.230469 C 443.230469 74.230469 444.140625 73.851562 444.8125 73.183594 C 445.484375 72.511719 445.859375 71.601562 445.859375 70.652344 Z M 445.859375 70.652344 " transform="matrix(1,0,0,1,-49.5,-3.75)"/>
<path style="fill-rule:evenodd;fill:rgb(63.998413%,70.399475%,79.998779%);fill-opacity:1;stroke-width:1.125;stroke-linecap:square;stroke-linejoin:miter;stroke:rgb(0%,0%,0%);stroke-opacity:0.7;stroke-miterlimit:3.25;" d="M 343.515625 70.652344 C 343.515625 69.703125 343.140625 68.792969 342.46875 68.125 C 341.796875 67.453125 340.886719 67.074219 339.9375 67.074219 C 338.988281 67.074219 338.078125 67.453125 337.40625 68.125 C 336.738281 68.792969 336.359375 69.703125 336.359375 70.652344 C 336.359375 71.601562 336.738281 72.511719 337.40625 73.183594 C 338.078125 73.855469 338.988281 74.230469 339.9375 74.230469 C 340.886719 74.230469 341.796875 73.855469 342.46875 73.183594 C 343.140625 72.511719 343.515625 71.601562 343.515625 70.652344 Z M 343.515625 70.652344 " transform="matrix(1,0,0,1,-49.5,-3.75)"/>
<path style="fill-rule:evenodd;fill:rgb(63.998413%,70.399475%,79.998779%);fill-opacity:1;stroke-width:1.125;stroke-linecap:square;stroke-linejoin:miter;stroke:rgb(0%,0%,0%);stroke-opacity:0.7;stroke-miterlimit:3.25;" d="M 255.488281 116.589844 C 255.488281 115.640625 255.109375 114.730469 254.4375 114.0625 C 253.769531 113.390625 252.859375 113.011719 251.910156 113.011719 C 250.960938 113.011719 250.050781 113.390625 249.378906 114.0625 C 248.707031 114.730469 248.332031 115.640625 248.332031 116.589844 C 248.332031 117.539062 248.707031 118.449219 249.378906 119.121094 C 250.050781 119.792969 250.960938 120.167969 251.910156 120.167969 C 252.859375 120.167969 253.769531 119.792969 254.4375 119.121094 C 255.109375 118.449219 255.488281 117.539062 255.488281 116.589844 Z M 255.488281 116.589844 " transform="matrix(1,0,0,1,-49.5,-3.75)"/>
<path style="fill-rule:evenodd;fill:rgb(63.998413%,70.399475%,79.998779%);fill-opacity:1;stroke-width:1.125;stroke-linecap:square;stroke-linejoin:miter;stroke:rgb(0%,0%,0%);stroke-opacity:0.7;stroke-miterlimit:3.25;" d="M 255.484375 24.71875 C 255.484375 23.769531 255.105469 22.859375 254.433594 22.191406 C 253.765625 21.519531 252.855469 21.140625 251.90625 21.140625 C 250.957031 21.140625 250.046875 21.519531 249.375 22.191406 C 248.703125 22.859375 248.328125 23.769531 248.328125 24.71875 C 248.328125 25.667969 248.703125 26.578125 249.375 27.25 C 250.046875 27.921875 250.957031 28.296875 251.90625 28.296875 C 252.855469 28.296875 253.765625 27.921875 254.433594 27.25 C 255.105469 26.578125 255.484375 25.667969 255.484375 24.71875 Z M 255.484375 24.71875 " transform="matrix(1,0,0,1,-49.5,-3.75)"/>
<g clip-path="url(#clip1)" clip-rule="nonzero">
<path style="fill:none;stroke-width:0.5625;stroke-linecap:square;stroke-linejoin:miter;stroke:rgb(39.99939%,39.99939%,39.99939%);stroke-opacity:1;stroke-miterlimit:3.25;" d="M 453.9375 137 L 50.0625 137 " transform="matrix(1,0,0,1,-49.5,-3.75)"/>
</g>
<g clip-path="url(#clip2)" clip-rule="nonzero">
<path style="fill:none;stroke-width:0.5625;stroke-linecap:square;stroke-linejoin:miter;stroke:rgb(39.99939%,39.99939%,39.99939%);stroke-opacity:1;stroke-miterlimit:3.25;" d="M 50.0625 137 L 50.0625 4.3125 " transform="matrix(1,0,0,1,-49.5,-3.75)"/>
</g>
<path style="fill:none;stroke-width:0.5625;stroke-linecap:square;stroke-linejoin:miter;stroke:rgb(39.99939%,39.99939%,39.99939%);stroke-opacity:1;stroke-miterlimit:3.25;" d="M 50.0625 4.3125 L 453.9375 4.3125 " transform="matrix(1,0,0,1,-49.5,-3.75)"/>
<g clip-path="url(#clip3)" clip-rule="nonzero">
<path style="fill:none;stroke-width:0.5625;stroke-linecap:square;stroke-linejoin:miter;stroke:rgb(39.99939%,39.99939%,39.99939%);stroke-opacity:1;stroke-miterlimit:3.25;" d="M 453.9375 4.3125 L 453.9375 137 " transform="matrix(1,0,0,1,-49.5,-3.75)"/>
</g>
</g>
</svg>
