<?xml version="1.0" encoding="UTF-8" standalone="no"?>
<!-- Created with Inkscape (http://www.inkscape.org/) -->

<svg
   version="1.1"
   id="svg1"
   width="346.66666"
   height="72"
   viewBox="0 0 346.66666 72"
   sodipodi:docname="0lytjtm9mn5ji.pdf"
   xmlns:inkscape="http://www.inkscape.org/namespaces/inkscape"
   xmlns:sodipodi="http://sodipodi.sourceforge.net/DTD/sodipodi-0.dtd"
   xmlns="http://www.w3.org/2000/svg"
   xmlns:svg="http://www.w3.org/2000/svg">
  <defs
     id="defs1" />
  <sodipodi:namedview
     id="namedview1"
     pagecolor="#ffffff"
     bordercolor="#999999"
     borderopacity="1"
     inkscape:showpageshadow="0"
     inkscape:pageopacity="0"
     inkscape:pagecheckerboard="0"
     inkscape:deskcolor="#d1d1d1">
    <inkscape:page
       x="0"
       y="0"
       id="page1"
       width="346.66666"
       height="72"
       margin="0"
       bleed="0" />
  </sodipodi:namedview>
  <g
     id="g1"
     inkscape:groupmode="layer"
     inkscape:label="">
    <path
       id="path1"
       d="M 9.664,26.656 69.5,26.641"
       style="fill:none;stroke:#000000;stroke-width:1.44;stroke-linecap:butt;stroke-linejoin:miter;stroke-miterlimit:3.25;stroke-dasharray:none;stroke-opacity:0.7"
       transform="scale(1.3333333)" />
    <path
       id="path2"
       d="m 73.867,27.352 53.778,17.953"
       style="fill:none;stroke:#000000;stroke-width:1.44;stroke-linecap:butt;stroke-linejoin:miter;stroke-miterlimit:3.25;stroke-dasharray:none;stroke-opacity:0.7"
       transform="scale(1.3333333)" />
    <path
       id="path3"
       d="M 0.02424713,-5.535e-4 1.8172159,-2.414616 0.23518463,-4.6294597 h 0.7265625 L 1.8054971,-3.445866 c 0.1757813,0.2460938 0.3046875,0.4335938 0.375,0.5625 0.1054688,-0.1640625 0.234375,-0.3398437 0.375,-0.515625 l 0.9375,-1.2304687 h 0.65625 L 2.5203409,-2.4497722 4.2781534,-5.535e-4 H 3.5164346 L 2.3562784,-1.6528972 c -0.070312,-0.09375 -0.140625,-0.1992188 -0.1992188,-0.3164063 -0.1054687,0.1757813 -0.1875,0.2929688 -0.234375,0.3515625 L 0.76252838,-5.535e-4 Z m 0,0"
       style="fill:#000000;fill-opacity:1;fill-rule:nonzero;stroke:none"
       aria-label="X"
       transform="matrix(1.3333333,0,0,1.3333333,131.36611,51.219488)" />
    <path
       id="path4"
       d="m 73.867,25.93 53.774,-18"
       style="fill:none;stroke:#000000;stroke-width:1.44;stroke-linecap:butt;stroke-linejoin:miter;stroke-miterlimit:3.25;stroke-dasharray:none;stroke-opacity:0.7"
       transform="scale(1.3333333)" />
    <path
       id="path5"
       d="m 249.535,26.66 -59.59,-0.031"
       style="fill:none;stroke:#000000;stroke-width:1.44;stroke-linecap:butt;stroke-linejoin:miter;stroke-miterlimit:3.25;stroke-dasharray:none;stroke-opacity:0.7"
       transform="scale(1.3333333)" />
    <path
       id="path6"
       d="M 185.578,27.34 131.895,45.305"
       style="fill:none;stroke:#000000;stroke-width:1.44;stroke-linecap:butt;stroke-linejoin:miter;stroke-miterlimit:3.25;stroke-dasharray:none;stroke-opacity:0.7"
       transform="scale(1.3333333)" />
    <path
       id="path7"
       d="M 185.578,25.918 131.891,7.93"
       style="fill:none;stroke:#000000;stroke-width:1.44;stroke-linecap:butt;stroke-linejoin:miter;stroke-miterlimit:3.25;stroke-dasharray:none;stroke-opacity:0.7"
       transform="scale(1.3333333)" />
    <path
       id="path8"
       d="M 0.02337206,0.00141519 1.8163408,-2.4126473 0.23430956,-4.6274911 h 0.7265625 l 0.84375004,1.1835938 c 0.1757812,0.2460937 0.3046875,0.4335937 0.375,0.5625 0.1054687,-0.1640625 0.234375,-0.3398438 0.375,-0.515625 l 0.9375,-1.2304688 h 0.65625 L 2.5194658,-2.4478036 4.2772783,0.00141519 H 3.5155596 L 2.3554033,-1.6509286 c -0.070312,-0.09375 -0.140625,-0.1992187 -0.1992187,-0.3164062 -0.1054688,0.1757812 -0.1875,0.2929687 -0.234375,0.3515625 L 0.76165331,0.00141519 Z m 0,0"
       style="fill:#000000;fill-opacity:1;fill-rule:nonzero;stroke:none"
       aria-label="X"
       transform="matrix(1.3333333,0,0,1.3333333,208.66806,25.345769)" />
    <path
       id="path9"
       d="M 129.77,43.773 129.766,9.457"
       style="fill:none;stroke:#000000;stroke-width:1.44;stroke-linecap:butt;stroke-linejoin:miter;stroke-miterlimit:3.25;stroke-dasharray:none;stroke-opacity:0.7"
       transform="scale(1.3333333)" />
    <path
       id="path10"
       d="M 9.664,26.656 C 9.664,27.25 9.43,27.82 9.008,28.242 8.59,28.66 8.02,28.898 7.426,28.898 6.832,28.898 6.262,28.66 5.84,28.242 5.422,27.82 5.184,27.25 5.184,26.656 c 0,-0.594 0.238,-1.164 0.656,-1.582 0.422,-0.422 0.992,-0.66 1.586,-0.66 0.594,0 1.164,0.238 1.582,0.66 0.422,0.418 0.656,0.988 0.656,1.582 z"
       style="fill:#a3b4cc;fill-opacity:1;fill-rule:evenodd;stroke:#000000;stroke-width:0.36;stroke-linecap:square;stroke-linejoin:miter;stroke-miterlimit:3.25;stroke-dasharray:none;stroke-opacity:0.7"
       transform="scale(1.3333333)" />
    <path
       id="path11"
       d="m 73.984,26.641 c 0,0.593 -0.238,1.164 -0.656,1.586 -0.422,0.418 -0.992,0.656 -1.586,0.656 -0.594,0 -1.164,-0.238 -1.582,-0.656 -0.422,-0.422 -0.66,-0.993 -0.66,-1.586 0,-0.594 0.238,-1.164 0.66,-1.582 0.418,-0.422 0.988,-0.661 1.582,-0.661 0.594,0 1.164,0.239 1.586,0.661 0.418,0.418 0.656,0.988 0.656,1.582 z"
       style="fill:#a3b4cc;fill-opacity:1;fill-rule:evenodd;stroke:#000000;stroke-width:0.36;stroke-linecap:square;stroke-linejoin:miter;stroke-miterlimit:3.25;stroke-dasharray:none;stroke-opacity:0.7"
       transform="scale(1.3333333)" />
    <path
       id="path12"
       d="m 254.016,26.66 c 0,0.598 -0.235,1.164 -0.657,1.586 -0.421,0.422 -0.988,0.656 -1.586,0.656 -0.593,0 -1.164,-0.234 -1.582,-0.656 -0.421,-0.422 -0.656,-0.988 -0.656,-1.586 0,-0.594 0.235,-1.164 0.656,-1.582 0.418,-0.422 0.989,-0.656 1.582,-0.656 0.598,0 1.165,0.234 1.586,0.656 0.422,0.418 0.657,0.988 0.657,1.582 z"
       style="fill:#a3b4cc;fill-opacity:1;fill-rule:evenodd;stroke:#000000;stroke-width:0.36;stroke-linecap:square;stroke-linejoin:miter;stroke-miterlimit:3.25;stroke-dasharray:none;stroke-opacity:0.7"
       transform="scale(1.3333333)" />
    <path
       id="path13"
       d="m 189.945,26.629 c 0,0.594 -0.238,1.164 -0.656,1.586 -0.422,0.418 -0.992,0.656 -1.586,0.656 -0.594,0 -1.164,-0.238 -1.586,-0.656 -0.418,-0.422 -0.656,-0.992 -0.656,-1.586 0,-0.594 0.238,-1.164 0.656,-1.586 0.422,-0.418 0.992,-0.656 1.586,-0.656 0.594,0 1.164,0.238 1.586,0.656 0.418,0.422 0.656,0.992 0.656,1.586 z"
       style="fill:#a3b4cc;fill-opacity:1;fill-rule:evenodd;stroke:#000000;stroke-width:0.36;stroke-linecap:square;stroke-linejoin:miter;stroke-miterlimit:3.25;stroke-dasharray:none;stroke-opacity:0.7"
       transform="scale(1.3333333)" />
    <path
       id="path14"
       d="m 132.012,46.016 c 0,0.593 -0.235,1.164 -0.657,1.586 -0.421,0.418 -0.988,0.656 -1.585,0.656 -0.594,0 -1.165,-0.238 -1.582,-0.656 -0.422,-0.422 -0.657,-0.993 -0.657,-1.586 0,-0.594 0.235,-1.164 0.657,-1.586 0.417,-0.418 0.988,-0.657 1.582,-0.657 0.597,0 1.164,0.239 1.585,0.657 0.422,0.422 0.657,0.992 0.657,1.586 z"
       style="fill:#a3b4cc;fill-opacity:1;fill-rule:evenodd;stroke:#000000;stroke-width:0.36;stroke-linecap:square;stroke-linejoin:miter;stroke-miterlimit:3.25;stroke-dasharray:none;stroke-opacity:0.7"
       transform="scale(1.3333333)" />
    <path
       id="path15"
       d="m 132.004,7.219 c 0,0.593 -0.234,1.164 -0.656,1.582 -0.418,0.422 -0.989,0.656 -1.582,0.656 -0.598,0 -1.168,-0.234 -1.586,-0.656 -0.422,-0.418 -0.657,-0.989 -0.657,-1.582 0,-0.594 0.235,-1.164 0.657,-1.586 0.418,-0.422 0.988,-0.656 1.586,-0.656 0.593,0 1.164,0.234 1.582,0.656 0.422,0.422 0.656,0.992 0.656,1.586 z"
       style="fill:#a3b4cc;fill-opacity:1;fill-rule:evenodd;stroke:#000000;stroke-width:0.36;stroke-linecap:square;stroke-linejoin:miter;stroke-miterlimit:3.25;stroke-dasharray:none;stroke-opacity:0.7"
       transform="scale(1.3333333)" />
  </g>
</svg>
