<?xml version="1.0" encoding="UTF-8" standalone="no"?>
<!-- Created with Inkscape (http://www.inkscape.org/) -->

<svg
   version="1.1"
   id="svg2"
   xml:space="preserve"
   width="612"
   height="93.333336"
   viewBox="0 0 612 93.333336"
   sodipodi:docname="0n13hj2mmcy3r.pdf"
   xmlns:inkscape="http://www.inkscape.org/namespaces/inkscape"
   xmlns:sodipodi="http://sodipodi.sourceforge.net/DTD/sodipodi-0.dtd"
   xmlns="http://www.w3.org/2000/svg"
   xmlns:svg="http://www.w3.org/2000/svg"><defs
     id="defs6" /><sodipodi:namedview
     id="namedview4"
     pagecolor="#505050"
     bordercolor="#eeeeee"
     borderopacity="1"
     inkscape:pageshadow="0"
     inkscape:pageopacity="0"
     inkscape:pagecheckerboard="0" /><g
     id="g8"
     inkscape:groupmode="layer"
     inkscape:label="0n13hj2mmcy3r"
     transform="matrix(1.3333333,0,0,1.3333333,0,2e-6)"><g
       id="g10"><text
         transform="translate(1.509982,7.44)"
         style="font-variant:normal;font-size:7.92px;font-family:CairoFont-0;-inkscape-font-specification:CairoFont-0-0;writing-mode:lr-tb;fill:#dd1100;fill-opacity:1;fill-rule:nonzero;stroke:none"
         id="text14"><tspan
           x="0 4.5539999 9.3931198 14.40648 17.6616 23.76 25.95384 30.63456 35.50536 38.760479 43.781761 48.628799 53.642159 57.990238"
           y="0"
           sodipodi:role="line"
           id="tspan12">FourDivergence</tspan></text><text
         transform="translate(65.143732,7.44)"
         style="font-variant:normal;font-size:7.92px;font-family:CairoFont-0;-inkscape-font-specification:CairoFont-0-0;writing-mode:lr-tb;fill:#000000;fill-opacity:1;fill-rule:nonzero;stroke:none"
         id="text18"><tspan
           x="0"
           y="0"
           id="tspan16">:</tspan></text><text
         transform="translate(71.319965,7.44)"
         style="font-variant:normal;font-size:7.92px;font-family:CairoFont-0;-inkscape-font-specification:CairoFont-0-0;writing-mode:lr-tb;fill:#898989;fill-opacity:1;fill-rule:nonzero;stroke:none"
         id="text22"><tspan
           x="0 7.8249602 12.672 15.92712 20.940479 23.134319 28.14768"
           y="0"
           sodipodi:role="line"
           id="tspan20">Warning</tspan></text><text
         transform="translate(104.48893,7.44)"
         style="font-variant:normal;font-size:7.92px;font-family:CairoFont-1;-inkscape-font-specification:CairoFont-1-0;writing-mode:lr-tb;fill:#898989;fill-opacity:1;fill-rule:nonzero;stroke:none"
         id="text26"><tspan
           x="0"
           y="0"
           id="tspan24">!</tspan></text><text
         transform="translate(109.18549,7.44)"
         style="font-variant:normal;font-size:7.92px;font-family:CairoFont-0;-inkscape-font-specification:CairoFont-0-0;writing-mode:lr-tb;fill:#898989;fill-opacity:1;fill-rule:nonzero;stroke:none"
         id="text32"><tspan
           x="0 4.8312001 9.8445597 17.226 19.41984 24.433201 29.454479 34.467838 40.075199 44.945999 49.62672 54.647999 57.903118 62.773918 66.892319 71.010719 73.204559 78.043678 85.559761 90.406799 92.600639 96.71904 104.0688 109.09008 113.96088 118.98216 123.85296 128.86632 133.8876 140.50871 145.34784 152.87184 160.41168 162.60551 170.12952 175.1508 177.34464 185.05872 189.92952 194.94289 199.06128 201.25513 206.09424 211.1076 217.72079 222.55992 225.66457 230.67792 235.54872 241.31448 244.41911 249.43248 254.27953 261.80353 266.84064 271.86191 276.69312 281.70648 289.09583 294.11713 298.98792 302.24304 304.43689 309.11761 313.96463 317.06927 319.26312 323.92007 331.30945 336.14856 341.60544"
           y="0"
           sodipodi:role="line"
           id="tspan28">Theinputexpressionalsodependsonpindimensionsotherthan4.Thederivativeofa</tspan><tspan
           x="-84.544235 -79.86351 -74.992714 -70.64463 -67.539993 -62.700874 -56.935112 -54.741272 -47.217274 -42.378155 -37.364796 -29.983355 -24.962074 -22.768234 -15.054153 -10.183353 -5.1699939 -1.0515938 1.1422461 5.9813662"
           y="11.789997"
           sodipodi:role="line"
           id="tspan30">vectorinonedimension</tspan></text><text
         transform="translate(122.68293,19.229997)"
         style="font-variant:normal;font-size:7.92px;font-family:CairoFont-1;-inkscape-font-specification:CairoFont-1-0;writing-mode:lr-tb;fill:#898989;fill-opacity:1;fill-rule:nonzero;stroke:none"
         id="text36"><tspan
           x="0"
           y="0"
           id="tspan34">(</tspan></text><text
         transform="translate(125.32029,19.229997)"
         style="font-variant:normal;font-size:7.92px;font-family:CairoFont-0;-inkscape-font-specification:CairoFont-0-0;writing-mode:lr-tb;fill:#898989;fill-opacity:1;fill-rule:nonzero;stroke:none"
         id="text40"><tspan
           x="0 6.0984001 11.11968 18.66744 23.506559 29.280239"
           y="0"
           sodipodi:role="line"
           id="tspan38">D,4orD</tspan></text><text
         transform="translate(160.69893,19.229997)"
         style="font-variant:normal;font-size:7.92px;font-family:CairoFont-1;-inkscape-font-specification:CairoFont-1-0;writing-mode:lr-tb;fill:#898989;fill-opacity:1;fill-rule:nonzero;stroke:none"
         id="text44"><tspan
           x="0"
           y="0"
           id="tspan42">-</tspan></text><text
         transform="translate(165.31629,19.229997)"
         style="font-variant:normal;font-size:7.92px;font-family:CairoFont-0;-inkscape-font-specification:CairoFont-0-0;writing-mode:lr-tb;fill:#898989;fill-opacity:1;fill-rule:nonzero;stroke:none"
         id="text48"><tspan
           x="0"
           y="0"
           id="tspan46">4</tspan></text><text
         transform="translate(170.35341,19.229997)"
         style="font-variant:normal;font-size:7.92px;font-family:CairoFont-1;-inkscape-font-specification:CairoFont-1-0;writing-mode:lr-tb;fill:#898989;fill-opacity:1;fill-rule:nonzero;stroke:none"
         id="text52"><tspan
           x="0"
           y="0"
           id="tspan50">)</tspan></text><text
         transform="translate(175.50141,19.229997)"
         style="font-variant:normal;font-size:7.92px;font-family:CairoFont-0;-inkscape-font-specification:CairoFont-0-0;writing-mode:lr-tb;fill:#898989;fill-opacity:1;fill-rule:nonzero;stroke:none"
         id="text56"><tspan
           x="0 6.4706402 8.9812803 12.2364 14.74704 17.851681 22.86504 25.969681 30.98304 38.372398 42.490799 47.337841 55.051922 62.433361 67.114082 71.984879 76.332962 79.437599 84.276718 90.04248 92.23632 99.760323 107.118 112.13928 114.33312 117.12096 119.9088 124.7796 128.03471 132.90552 137.91888 143.52625 148.54752 150.74136 158.45544 163.32623 168.3396 172.45799 174.65184 179.49097"
           y="0"
           sodipodi:role="line"
           id="tspan54">w.r.t.thesamevectorinadifferentdimension</tspan></text><text
         transform="translate(362.50845,19.229997)"
         style="font-variant:normal;font-size:7.92px;font-family:CairoFont-1;-inkscape-font-specification:CairoFont-1-0;writing-mode:lr-tb;fill:#898989;fill-opacity:1;fill-rule:nonzero;stroke:none"
         id="text60"><tspan
           x="0"
           y="0"
           id="tspan58">(</tspan></text><text
         transform="translate(365.14581,19.229997)"
         style="font-variant:normal;font-size:7.92px;font-family:CairoFont-0;-inkscape-font-specification:CairoFont-0-0;writing-mode:lr-tb;fill:#898989;fill-opacity:1;fill-rule:nonzero;stroke:none"
         id="text64"><tspan
           x="0 6.0984001 11.11968 18.66744 23.506559 29.280239"
           y="0"
           sodipodi:role="line"
           id="tspan62">D,4orD</tspan></text><text
         transform="translate(400.52445,19.229997)"
         style="font-variant:normal;font-size:7.92px;font-family:CairoFont-1;-inkscape-font-specification:CairoFont-1-0;writing-mode:lr-tb;fill:#898989;fill-opacity:1;fill-rule:nonzero;stroke:none"
         id="text68"><tspan
           x="0"
           y="0"
           id="tspan66">-</tspan></text><text
         transform="translate(405.14181,19.229997)"
         style="font-variant:normal;font-size:7.92px;font-family:CairoFont-0;-inkscape-font-specification:CairoFont-0-0;writing-mode:lr-tb;fill:#898989;fill-opacity:1;fill-rule:nonzero;stroke:none"
         id="text72"><tspan
           x="0"
           y="0"
           id="tspan70">4</tspan></text><text
         transform="translate(410.17893,19.229997)"
         style="font-variant:normal;font-size:7.92px;font-family:CairoFont-1;-inkscape-font-specification:CairoFont-1-0;writing-mode:lr-tb;fill:#898989;fill-opacity:1;fill-rule:nonzero;stroke:none"
         id="text76"><tspan
           x="0"
           y="0"
           id="tspan74">)</tspan></text><text
         transform="translate(415.32693,19.229997)"
         style="font-variant:normal;font-size:7.92px;font-family:CairoFont-0;-inkscape-font-specification:CairoFont-0-0;writing-mode:lr-tb;fill:#898989;fill-opacity:1;fill-rule:nonzero;stroke:none"
         id="text82"><tspan
           x="0 2.19384"
           y="0"
           sodipodi:role="line"
           id="tspan78">is</tspan><tspan
           x="-390.68567 -382.97159 -378.1008 -373.25375 -368.24039 -366.04657 -361.0332 -356.01193 -350.99857 -348.21072 -343.19736 -338.50873 -333.66959 -328.65625 -326.4624 -319.27896 -312.80832 -307.79495 -302.92416 -295.40015 -290.38681 -286.2684 -284.07455 -279.06119 -271.52927 -268.42465 -263.41129 -256.02985 -252.9252 -250.75513 -244.80721 -239.96808 -235.12897 -232.34113"
           y="11.709997"
           sodipodi:role="line"
           id="tspan80">meaningnfulonlywhenusingthet'Hooft</tspan></text><text
         transform="translate(186.09045,30.939994)"
         style="font-variant:normal;font-size:7.92px;font-family:CairoFont-1;-inkscape-font-specification:CairoFont-1-0;writing-mode:lr-tb;fill:#898989;fill-opacity:1;fill-rule:nonzero;stroke:none"
         id="text86"><tspan
           x="0"
           y="0"
           id="tspan84">-</tspan></text><text
         transform="translate(190.70781,30.939994)"
         style="font-variant:normal;font-size:7.92px;font-family:CairoFont-0;-inkscape-font-specification:CairoFont-0-0;writing-mode:lr-tb;fill:#898989;fill-opacity:1;fill-rule:nonzero;stroke:none"
         id="text92"><tspan
           x="0 5.4172802 10.28808 12.48192 15.58656 23.30064 28.14768 35.655842 39.774239 44.122318 49.135681 54.006481 61.720558 66.591362 71.61264 76.166641 81.00576 86.771523 91.642319 96.323036 101.19384 104.44896 111.6324 116.47152 119.57616 124.58952 129.46033 135.22607 139.34448 143.69257 148.70592 153.57672 161.2908 168.67224 173.69353 175.88736 180.75816 185.60519 189.7236 197.09712 200.35223 205.22304 209.57112 214.58447 219.45528 223.80336 230.89967 235.5804 240.41953 245.43288"
           y="0"
           sodipodi:role="line"
           id="tspan88">Veltmanscheme.Foreveryotherschemepleaserecheckyour</tspan><tspan
           x="-166.06656 -163.87273 -158.85936 -153.83807 -148.82472 -143.21736 -138.34656 -133.66583 -128.64456 -125.38944 -120.51864 -116.40024 -112.28184 -110.088 -105.24888 -100.23552 -93.614403 -88.767357 -83.753998 -76.222076 -71.35128 -66.337921 -62.219521 -57.206161 -53.951038 -46.577518 -43.472881 -38.459518 -33.61248 -27.989281 -23.142241 -20.9484 -16.251841 -8.5377598 -3.6907201 -0.58608001 2.66904 4.8628802 9.2109604 14.08176 18.200159 23.221439 27.33984 32.361118 34.554958 39.568321 44.40744 47.66256 54.28368 59.130718 64.144081 71.676003 74.78064 79.651443 84.664803 88.783203 93.622322 96.877441 103.50648 108.35352 111.60864 118.99008 124.01136 129.02472 132.27985 137.15063 139.34448 146.52792"
           y="11.8"
           sodipodi:role="line"
           id="tspan90">inputexpressionsandensurethatallmatrices,spinorsandtensorsarepurelyD</tspan></text><text
         transform="translate(343.33413,42.739994)"
         style="font-variant:normal;font-size:7.92px;font-family:CairoFont-1;-inkscape-font-specification:CairoFont-1-0;writing-mode:lr-tb;fill:#898989;fill-opacity:1;fill-rule:nonzero;stroke:none"
         id="text96"><tspan
           x="0"
           y="0"
           id="tspan94">-</tspan></text><text
         transform="translate(347.95149,42.739994)"
         style="font-variant:normal;font-size:7.92px;font-family:CairoFont-0;-inkscape-font-specification:CairoFont-0-0;writing-mode:lr-tb;fill:#898989;fill-opacity:1;fill-rule:nonzero;stroke:none"
         id="text102"><tspan
           x="0 5.0212798 7.2151198 14.9292 19.799999 24.81336 28.931761 31.125601 35.964722 40.978081 45.801361 50.51376 55.352879"
           y="0"
           sodipodi:role="line"
           id="tspan98">dimensionalor</tspan><tspan
           x="-323.31024"
           y="11.8"
           id="tspan100">4</tspan></text><text
         transform="translate(29.678371,54.539994)"
         style="font-variant:normal;font-size:7.92px;font-family:CairoFont-1;-inkscape-font-specification:CairoFont-1-0;writing-mode:lr-tb;fill:#898989;fill-opacity:1;fill-rule:nonzero;stroke:none"
         id="text106"><tspan
           x="0"
           y="0"
           id="tspan104">-</tspan></text><text
         transform="translate(34.295731,54.539994)"
         style="font-variant:normal;font-size:7.92px;font-family:CairoFont-0;-inkscape-font-specification:CairoFont-0-0;writing-mode:lr-tb;fill:#898989;fill-opacity:1;fill-rule:nonzero;stroke:none"
         id="text110"><tspan
           x="0 5.0212798 7.2151198 14.9292 19.799999 24.81336 28.931761 31.125601 35.964722 40.954319 45.801361 47.995201 53.016479 57.847679 62.686798 70.218719 77.9328 80.12664 85.147919 90.161278 95.768639 102.23928 107.08632 112.09968 117.71496 120.8196 128.17728 133.19064 137.30904 144.69048 149.24448 154.77264 160.90273 165.77351 168.87816 174.97656 177.17039 184.88448 189.75528 194.76865 198.88704 201.05711 205.89624 210.90961"
           y="0"
           sodipodi:role="line"
           id="tspan108">dimensional.YoumightwanttouseFCGetDimensions</tspan></text><text
         transform="translate(249.32373,54.539994)"
         style="font-variant:normal;font-size:7.92px;font-family:CairoFont-1;-inkscape-font-specification:CairoFont-1-0;writing-mode:lr-tb;fill:#898989;fill-opacity:1;fill-rule:nonzero;stroke:none"
         id="text114"><tspan
           x="0"
           y="0"
           id="tspan112">[</tspan></text><text
         transform="translate(251.51757,54.539994)"
         style="font-variant:normal;font-size:7.92px;font-family:CairoFont-0;-inkscape-font-specification:CairoFont-0-0;writing-mode:lr-tb;fill:#898989;fill-opacity:1;fill-rule:nonzero;stroke:none"
         id="text118"><tspan
           x="0 4.8708 9.5515203"
           y="0"
           sodipodi:role="line"
           id="tspan116">exp</tspan></text><text
         transform="translate(266.09037,54.539994)"
         style="font-variant:normal;font-size:7.92px;font-family:CairoFont-1;-inkscape-font-specification:CairoFont-1-0;writing-mode:lr-tb;fill:#898989;fill-opacity:1;fill-rule:nonzero;stroke:none"
         id="text122"><tspan
           x="0"
           y="0"
           id="tspan120">]</tspan></text><text
         transform="translate(270.78693,54.539994)"
         style="font-variant:normal;font-size:7.92px;font-family:CairoFont-0;-inkscape-font-specification:CairoFont-0-0;writing-mode:lr-tb;fill:#898989;fill-opacity:1;fill-rule:nonzero;stroke:none"
         id="text128"><tspan
           x="0 3.10464 10.4544 13.24224 15.43608 20.44944 27.981359 31.086 36.099361 43.480801 48.31992 51.107761 53.895599 58.766399 63.779758 68.801041 70.994881 76.00824 83.532242 86.636879 91.507683 94.762802 102.47688 106.59528 111.60864 113.93712 119.394 124.07472 128.91383 136.43784 141.30864 145.98936 151.01064 153.20448 155.39832 159.7464 161.94025 165.04488 167.21497"
           y="0"
           sodipodi:role="line"
           id="tspan124">tofindtheoffendingterms.Ifyouexplicitly</tspan><tspan
           x="-246.14568 -243.95184 -238.93848 -235.83385 -230.96304 -225.94968 -218.42567 -215.32104 -207.96336 -202.95 -198.8316 -191.45016 -188.34552 -183.33215 -175.95071 -172.84608 -170.67599 -164.72807 -159.88896 -155.04984 -152.26199"
           y="11.8"
           sodipodi:role="line"
           id="tspan126">intendtousethet'Hooft</tspan></text><text
         transform="translate(121.62957,66.339995)"
         style="font-variant:normal;font-size:7.92px;font-family:CairoFont-1;-inkscape-font-specification:CairoFont-1-0;writing-mode:lr-tb;fill:#898989;fill-opacity:1;fill-rule:nonzero;stroke:none"
         id="text132"><tspan
           x="0"
           y="0"
           id="tspan130">-</tspan></text><text
         transform="translate(126.24693,66.339995)"
         style="font-variant:normal;font-size:7.92px;font-family:CairoFont-0;-inkscape-font-specification:CairoFont-0-0;writing-mode:lr-tb;fill:#898989;fill-opacity:1;fill-rule:nonzero;stroke:none"
         id="text136"><tspan
           x="0 5.4172802 10.28808 12.48192 15.58656 23.30064 28.14768 35.655842 39.774239 44.122318 49.135681 54.006481 61.720558 66.591362 71.61264 76.633919 78.827759 83.698563 88.545601 92.664001 100.03752 104.88456 109.23264 112.33728 114.53112 119.21184 124.05888 127.16352 134.54495 136.7388 142.35408 147.03481 149.22864 156.58632 161.14032 166.66849 171.68976 176.56056 179.66521 185.7636 187.95744 191.21255 196.0596 200.40768 206.51401 211.36104 219.07512 226.7892 231.63625 236.65752 241.0056 246.01897 250.88976 258.60385"
           y="0"
           sodipodi:role="line"
           id="tspan134">Veltmanscheme,pleaseactivateitviaFCSetDiracGammaScheme</tspan></text><text
         transform="translate(389.72157,66.339995)"
         style="font-variant:normal;font-size:7.92px;font-family:CairoFont-1;-inkscape-font-specification:CairoFont-1-0;writing-mode:lr-tb;fill:#898989;fill-opacity:1;fill-rule:nonzero;stroke:none"
         id="text140"><tspan
           x="0"
           y="0"
           id="tspan138">[</tspan></text><text
         transform="translate(391.91541,66.339995)"
         style="font-variant:normal;font-size:7.92px;font-family:CairoFont-0;-inkscape-font-specification:CairoFont-0-0;writing-mode:lr-tb;fill:#898989;fill-opacity:1;fill-rule:nonzero;stroke:none"
         id="text144"><tspan
           x="0 3.6352799 9.0684004 15.89544 21.843361 27.236879"
           y="0"
           sodipodi:role="line"
           id="tspan142">&quot;BMHV&quot;</tspan></text><text
         transform="translate(422.78757,66.339995)"
         style="font-variant:normal;font-size:7.92px;font-family:CairoFont-1;-inkscape-font-specification:CairoFont-1-0;writing-mode:lr-tb;fill:#898989;fill-opacity:1;fill-rule:nonzero;stroke:none"
         id="text148"><tspan
           x="0"
           y="0"
           id="tspan146">]</tspan></text><text
         transform="translate(424.98141,66.339995)"
         style="font-variant:normal;font-size:7.92px;font-family:CairoFont-0;-inkscape-font-specification:CairoFont-0-0;writing-mode:lr-tb;fill:#898989;fill-opacity:1;fill-rule:nonzero;stroke:none"
         id="text152"><tspan
           x="0"
           y="0"
           id="tspan150">.</tspan></text></g></g></svg>
