<?xml version="1.0" encoding="UTF-8" standalone="no"?>
<!-- Created with Inkscape (http://www.inkscape.org/) -->

<svg
   version="1.1"
   id="svg1"
   width="346.66666"
   height="396"
   viewBox="0 0 346.66666 396"
   sodipodi:docname="0n2ykfq1517k7.pdf"
   xmlns:inkscape="http://www.inkscape.org/namespaces/inkscape"
   xmlns:sodipodi="http://sodipodi.sourceforge.net/DTD/sodipodi-0.dtd"
   xmlns="http://www.w3.org/2000/svg"
   xmlns:svg="http://www.w3.org/2000/svg">
  <defs
     id="defs1" />
  <sodipodi:namedview
     id="namedview1"
     pagecolor="#ffffff"
     bordercolor="#999999"
     borderopacity="1"
     inkscape:showpageshadow="0"
     inkscape:pageopacity="0"
     inkscape:pagecheckerboard="0"
     inkscape:deskcolor="#d1d1d1">
    <inkscape:page
       x="0"
       y="0"
       id="page1"
       width="346.66666"
       height="396"
       margin="0"
       bleed="0" />
  </sodipodi:namedview>
  <g
     id="g1"
     inkscape:groupmode="layer"
     inkscape:label="">
    <path
       id="path1"
       d="M 9.305,198.945 118.355,10.059"
       style="fill:none;stroke:#000000;stroke-width:1.44;stroke-linecap:butt;stroke-linejoin:miter;stroke-miterlimit:3.25;stroke-dasharray:2.88, 2.88;stroke-dashoffset:0;stroke-opacity:0.7"
       transform="scale(1.3333333)" />
    <path
       id="path2"
       d="m 0.42197713,1.2876663 v -4.640625 h 0.52734375 v 0.4335938 C 1.0665084,-3.0951462 1.2071334,-3.2240524 1.3594771,-3.3060837 c 0.1523438,-0.082031 0.3398438,-0.1289062 0.5625,-0.1289062 0.28125,0 0.5390625,0.082031 0.75,0.2226562 0.2226563,0.140625 0.3867188,0.3515625 0.5039063,0.6210938 0.1054687,0.2695312 0.1640625,0.5625 0.1640625,0.890625 0,0.3398437 -0.058594,0.6445312 -0.1875,0.92578121 -0.1171875,0.26953125 -0.3046875,0.4921875 -0.5390625,0.6328125 -0.2226563,0.15234375 -0.4804688,0.22265625 -0.7382813,0.22265625 -0.1875,0 -0.3632812,-0.046875 -0.5039062,-0.1171875 -0.1640625,-0.09375 -0.28125,-0.1875 -0.37500002,-0.3046875 V 1.2876663 Z m 0.515625,-2.953125 c 0,0.4335938 0.09375,0.76171876 0.26953127,0.96093751 0.1757812,0.2109375 0.375,0.31640625 0.6328125,0.31640625 0.2578125,0 0.46875,-0.1171875 0.6445312,-0.328125 0.1875,-0.2109375 0.28125,-0.53906246 0.28125,-0.98437496 0,-0.4335938 -0.09375,-0.7617188 -0.2695312,-0.9726563 -0.1757813,-0.2109375 -0.3867188,-0.3164062 -0.6328125,-0.3164062 -0.2460938,0 -0.4570313,0.1171875 -0.6445313,0.3398437 -0.1875,0.234375 -0.28124997,0.5507813 -0.28124997,0.984375 z M 6.0176803,-0.00139619 H 5.4434615 V -3.6342087 c -0.140625,0.140625 -0.3164062,0.2695313 -0.5390625,0.3984375 -0.2226562,0.1289063 -0.421875,0.2226563 -0.5976562,0.2929688 V -3.4935837 C 4.623149,-3.6459274 4.904399,-3.8217087 5.138774,-4.0443649 5.3848678,-4.2435837 5.5489303,-4.4545212 5.6426803,-4.6537399 h 0.375 z m 0,0"
       style="fill:#000000;fill-opacity:1;fill-rule:nonzero;stroke:none"
       aria-label="p1"
       transform="matrix(1.3333333,0,0,1.3333333,64.335801,141.40421)" />
    <path
       id="path3"
       d="m 3.0460006,-1.2553024 h -1.125 v 1.12499996 H 1.4405318 V -1.2553024 H 0.31553181 V -1.7357712 H 1.4405318 v -1.125 h 0.4804688 v 1.125 h 1.125 z m 0,0"
       style="fill:#000000;fill-opacity:1;fill-rule:nonzero;stroke:none"
       aria-label="+"
       transform="matrix(1.3333333,0,0,1.3333333,74.544135,141.40421)" />
    <path
       id="path4"
       d="m 0.42100056,1.2876663 v -4.640625 h 0.52734375 v 0.4335938 C 1.0655318,-3.0951462 1.2061568,-3.2240524 1.3585006,-3.3060837 c 0.1523437,-0.082031 0.3398437,-0.1289062 0.5625,-0.1289062 0.28125,0 0.5390625,0.082031 0.75,0.2226562 0.2226562,0.140625 0.3867187,0.3515625 0.5039062,0.6210938 0.1054688,0.2695312 0.1640625,0.5625 0.1640625,0.890625 0,0.3398437 -0.058594,0.6445312 -0.1875,0.92578121 -0.1171875,0.26953125 -0.3046875,0.4921875 -0.5390625,0.6328125 -0.2226562,0.15234375 -0.4804687,0.22265625 -0.7382812,0.22265625 -0.1875,0 -0.3632813,-0.046875 -0.5039063,-0.1171875 -0.1640625,-0.09375 -0.28125,-0.1875 -0.37499999,-0.3046875 V 1.2876663 Z m 0.515625,-2.953125 c 0,0.4335938 0.09375,0.76171876 0.26953124,0.96093751 0.1757813,0.2109375 0.375,0.31640625 0.6328125,0.31640625 0.2578125,0 0.46875,-0.1171875 0.6445313,-0.328125 0.1875,-0.2109375 0.28125,-0.53906246 0.28125,-0.98437496 0,-0.4335938 -0.09375,-0.7617188 -0.2695313,-0.9726563 -0.1757812,-0.2109375 -0.3867187,-0.3164062 -0.6328125,-0.3164062 -0.2460937,0 -0.4570312,0.1171875 -0.6445312,0.3398437 -0.1875,0.234375 -0.28125004,0.5507813 -0.28125004,0.984375 z m 5.92382814,1.12500001 v 0.5390625 H 3.8018599 c -0.011719,-0.140625 0.011719,-0.26953125 0.058594,-0.3984375 0.082031,-0.19921875 0.1992187,-0.41015625 0.375,-0.60937501 0.1757812,-0.1992187 0.421875,-0.4335937 0.75,-0.703125 0.5039062,-0.4101562 0.84375,-0.7382812 1.0195312,-0.984375 0.1757813,-0.2460937 0.2695313,-0.46875 0.2695313,-0.6796875 0,-0.2226562 -0.082031,-0.421875 -0.2460938,-0.5742187 -0.1640625,-0.1640625 -0.375,-0.234375 -0.6328125,-0.234375 -0.2695312,0 -0.4921875,0.082031 -0.65625,0.2460937 -0.1640625,0.1640625 -0.2460937,0.3984375 -0.2460937,0.6796875 l -0.5976563,-0.058594 c 0.046875,-0.4335938 0.1992188,-0.7617188 0.4570313,-0.9960938 0.2695312,-0.234375 0.6210937,-0.3398437 1.0546875,-0.3398437 0.4453125,0 0.796875,0.1171875 1.0546875,0.3632812 0.2695312,0.2460938 0.3984375,0.5507813 0.3984375,0.9140625 0,0.1875 -0.046875,0.375 -0.1171875,0.5507813 -0.070312,0.1875 -0.1992188,0.375 -0.375,0.5742187 -0.1757813,0.1992188 -0.46875,0.46875 -0.8789063,0.8085938 -0.3398437,0.2929687 -0.5625,0.49218746 -0.65625,0.58593746 -0.1054687,0.10546875 -0.1757812,0.2109375 -0.2460937,0.31640625 z m 0,0"
       style="fill:#000000;fill-opacity:1;fill-rule:nonzero;stroke:none"
       aria-label="p2"
       transform="matrix(1.3333333,0,0,1.3333333,80.544135,141.40421)" />
    <path
       id="path5"
       d="m 3.0479542,-1.2553024 h -1.125 v 1.12499996 H 1.4424854 V -1.2553024 H 0.31748544 V -1.7357712 H 1.4424854 v -1.125 h 0.4804688 v 1.125 h 1.125 z m 0,0"
       style="fill:#000000;fill-opacity:1;fill-rule:nonzero;stroke:none"
       aria-label="+"
       transform="matrix(1.3333333,0,0,1.3333333,90.846217,141.40421)" />
    <path
       id="path6"
       d="m 0.42295419,1.2876663 v -4.640625 h 0.52734375 v 0.4335938 C 1.0674854,-3.0951462 1.2081104,-3.2240524 1.3604542,-3.3060837 c 0.1523437,-0.082031 0.3398437,-0.1289062 0.5625,-0.1289062 0.28125,0 0.5390625,0.082031 0.75,0.2226562 0.2226562,0.140625 0.3867187,0.3515625 0.5039062,0.6210938 0.1054688,0.2695312 0.1640625,0.5625 0.1640625,0.890625 0,0.3398437 -0.058594,0.6445312 -0.1875,0.92578121 -0.1171875,0.26953125 -0.3046875,0.4921875 -0.5390625,0.6328125 -0.2226562,0.15234375 -0.4804687,0.22265625 -0.7382812,0.22265625 -0.1875,0 -0.3632813,-0.046875 -0.5039063,-0.1171875 -0.1640625,-0.09375 -0.28125,-0.1875 -0.37499996,-0.3046875 V 1.2876663 Z m 0.515625,-2.953125 c 0,0.4335938 0.09375,0.76171876 0.26953121,0.96093751 0.1757813,0.2109375 0.375,0.31640625 0.6328125,0.31640625 0.2578125,0 0.46875,-0.1171875 0.6445313,-0.328125 0.1875,-0.2109375 0.28125,-0.53906246 0.28125,-0.98437496 0,-0.4335938 -0.09375,-0.7617188 -0.2695313,-0.9726563 -0.1757812,-0.2109375 -0.3867187,-0.3164062 -0.6328125,-0.3164062 -0.2460937,0 -0.4570312,0.1171875 -0.6445312,0.3398437 -0.1875,0.234375 -0.28125001,0.5507813 -0.28125001,0.984375 z m 2.93261721,0.4453125 0.5625,-0.082031 c 0.070312,0.32812496 0.1875,0.56249996 0.3398437,0.70312496 0.1523438,0.140625 0.3515625,0.2109375 0.5742188,0.2109375 0.2695312,0 0.4921875,-0.09375 0.6796875,-0.28125 0.1875,-0.17578125 0.28125,-0.41015626 0.28125,-0.69140626 0,-0.2578125 -0.09375,-0.46875 -0.2695313,-0.6445312 -0.1640625,-0.1640625 -0.375,-0.2460938 -0.6445312,-0.2460938 -0.1054688,0 -0.234375,0.011719 -0.3984375,0.058594 l 0.058594,-0.5039063 c 0.035156,0.011719 0.070312,0.011719 0.09375,0.011719 0.2460938,0 0.4570313,-0.058594 0.65625,-0.1992188 0.1992188,-0.1171875 0.2929688,-0.3164062 0.2929688,-0.5742187 0,-0.2109375 -0.070312,-0.3867188 -0.2109375,-0.5273438 -0.1523438,-0.1289062 -0.328125,-0.1992187 -0.5507813,-0.1992187 -0.2226562,0 -0.4101562,0.070312 -0.5507812,0.1992187 -0.1523438,0.1523438 -0.2460938,0.3515625 -0.2929688,0.6328125 l -0.5625,-0.1054687 c 0.070312,-0.375 0.2226563,-0.6679688 0.4804688,-0.890625 0.2460937,-0.1992188 0.5507812,-0.3046875 0.9140625,-0.3046875 0.2578125,0 0.4921875,0.046875 0.703125,0.1640625 0.2109375,0.1054687 0.375,0.2578125 0.4804687,0.4335937 0.1171875,0.1875 0.1757813,0.3984375 0.1757813,0.609375 0,0.1992188 -0.058594,0.375 -0.1640625,0.5390625 -0.1054688,0.1757813 -0.2695313,0.3046875 -0.4804688,0.3984375 0.28125,0.070312 0.4921875,0.1992188 0.6445313,0.3984375 0.1523437,0.1875 0.2226562,0.4453125 0.2226562,0.7382813 0,0.41015621 -0.1523437,0.74999996 -0.4453125,1.03124996 -0.2929687,0.28125 -0.6679687,0.421875 -1.1132812,0.421875 -0.4101563,0 -0.75,-0.1171875 -1.0195313,-0.36328125 -0.2695312,-0.234375 -0.421875,-0.55078125 -0.4570315,-0.93750061 z m 0,0"
       style="fill:#000000;fill-opacity:1;fill-rule:nonzero;stroke:none"
       aria-label="p3"
       transform="matrix(1.3333333,0,0,1.3333333,96.846217,141.40421)" />
    <path
       id="path7"
       d="m 10.082,199.633 11.867,-9.008 13.961,-9.187 13.961,-7.77 13.957,-6.359 13.961,-4.95 13.961,-3.531 13.961,-2.121 13.961,-0.707 13.961,0.707 13.961,2.121 13.961,3.531 13.961,4.95 13.961,6.359 13.961,7.77 13.96,9.187 11.864,9.008"
       style="fill:none;stroke:#000000;stroke-width:1.44;stroke-linecap:butt;stroke-linejoin:miter;stroke-miterlimit:3.25;stroke-dasharray:none;stroke-opacity:0.7"
       transform="scale(1.3333333)" />
    <path
       id="path8"
       d="m 0.42267056,1.2886838 v -4.640625 h 0.52734375 v 0.4335937 C 1.0672018,-3.0941287 1.2078268,-3.223035 1.3601706,-3.3050662 c 0.1523437,-0.082031 0.3398437,-0.1289063 0.5625,-0.1289063 0.28125,0 0.5390625,0.082031 0.75,0.2226563 0.2226562,0.140625 0.3867187,0.3515625 0.5039062,0.6210937 0.1054688,0.2695313 0.1640625,0.5625 0.1640625,0.890625 0,0.3398438 -0.058594,0.6445313 -0.1875,0.92578125 C 3.0359518,-0.504285 2.8484518,-0.28162875 2.6140768,-0.14100375 2.3914206,0.01134 2.1336081,0.0816525 1.8757956,0.0816525 c -0.1875,0 -0.3632813,-0.046875 -0.5039063,-0.1171875 -0.1640625,-0.09375 -0.28125,-0.1875 -0.37499999,-0.3046875 v 1.6289063 z m 0.515625,-2.953125 c 0,0.4335937 0.09375,0.7617187 0.26953124,0.96093745 0.1757813,0.2109375 0.375,0.31640625 0.6328125,0.31640625 0.2578125,0 0.46875,-0.1171875 0.6445313,-0.328125 0.1875,-0.2109375 0.28125,-0.5390625 0.28125,-0.984375 0,-0.4335937 -0.09375,-0.7617187 -0.2695313,-0.9726562 C 2.3211081,-2.8831912 2.1101706,-2.98866 1.8640768,-2.98866 c -0.2460937,0 -0.4570312,0.1171875 -0.6445312,0.3398438 -0.1875,0.234375 -0.28125004,0.5507812 -0.28125004,0.984375 z m 5.92382814,1.12499995 v 0.5390625 H 3.8035299 c -0.011719,-0.140625 0.011719,-0.26953125 0.058594,-0.3984375 0.082031,-0.19921875 0.1992187,-0.41015625 0.375,-0.60937495 0.1757812,-0.1992188 0.421875,-0.4335938 0.75,-0.703125 0.5039062,-0.4101563 0.84375,-0.7382813 1.0195312,-0.984375 0.1757813,-0.2460938 0.2695313,-0.46875 0.2695313,-0.6796875 0,-0.2226563 -0.082031,-0.421875 -0.2460938,-0.5742188 -0.1640625,-0.1640625 -0.375,-0.234375 -0.6328125,-0.234375 -0.2695312,0 -0.4921875,0.082031 -0.65625,0.2460938 -0.1640625,0.1640625 -0.2460937,0.3984375 -0.2460937,0.6796875 L 3.8972799,-3.316785 c 0.046875,-0.4335937 0.1992188,-0.7617187 0.4570313,-0.9960937 0.2695312,-0.234375 0.6210937,-0.3398438 1.0546875,-0.3398438 0.4453125,0 0.796875,0.1171875 1.0546875,0.3632813 0.2695312,0.2460937 0.3984375,0.5507812 0.3984375,0.9140625 0,0.1875 -0.046875,0.375 -0.1171875,0.5507812 -0.070312,0.1875 -0.1992188,0.375 -0.375,0.5742188 -0.1757813,0.1992187 -0.46875,0.46875 -0.8789063,0.8085937 -0.3398437,0.2929688 -0.5625,0.4921875 -0.65625,0.5859375 -0.1054687,0.10546875 -0.1757812,0.2109375 -0.2460937,0.31640625 z m 0,0"
       style="fill:#000000;fill-opacity:1;fill-rule:nonzero;stroke:none"
       aria-label="p2"
       transform="matrix(1.3333333,0,0,1.3333333,153.04191,219.54738)" />
    <path
       id="path9"
       d="M 2.2976706,-0.38592625 V 7.925e-4 H 0.14142056 c -0.0117188,-0.09375 0.0117188,-0.1875 0.046875,-0.28125 0.046875,-0.140625 0.140625,-0.29296875 0.2578125,-0.43359375 0.1171875,-0.140625 0.29296875,-0.30468755 0.52734375,-0.49218755 0.35156249,-0.2929687 0.58593749,-0.515625 0.71484379,-0.6914062 0.1289062,-0.1640625 0.1875,-0.328125 0.1875,-0.4804688 0,-0.1523437 -0.058594,-0.2929687 -0.1757813,-0.3984375 -0.1054687,-0.1171875 -0.2578125,-0.1640625 -0.4335937,-0.1640625 -0.1992188,0 -0.35156254,0.058594 -0.46875004,0.1757813 -0.1171875,0.1171875 -0.17578125,0.2695312 -0.17578125,0.4804687 l -0.41015625,-0.046875 c 0.0351563,-0.3046875 0.140625,-0.5390625 0.31640625,-0.703125 0.1875,-0.1640625 0.43359375,-0.234375 0.74999999,-0.234375 0.3046875,0 0.5507813,0.082031 0.7382813,0.2578125 0.1875,0.1757813 0.2695312,0.3867188 0.2695312,0.6445313 0,0.1289062 -0.023437,0.2578125 -0.082031,0.3867187 -0.046875,0.1289063 -0.140625,0.2578125 -0.2578125,0.3984375 -0.1289063,0.140625 -0.328125,0.328125 -0.6210938,0.5742188 -0.234375,0.19921875 -0.39843749,0.33984375 -0.45703124,0.41015625 -0.0703125,0.0703125 -0.12890625,0.140625 -0.17578125,0.2109375 z m 0,0"
       style="fill:#000000;fill-opacity:1;fill-rule:nonzero;stroke:none"
       aria-label="2"
       transform="matrix(1.3333333,0,0,1.3333333,161.91691,215.34269)" />
    <path
       id="path10"
       d="m 10.082,202.816 11.867,9.008 13.961,9.184 13.961,7.773 13.957,6.36 13.961,4.945 13.961,3.535 13.961,2.121 13.961,0.703 13.961,-0.703 13.961,-2.121 13.961,-3.535 13.961,-4.945 13.961,-6.36 13.961,-7.773 13.96,-9.184 11.864,-9.008"
       style="fill:none;stroke:#000000;stroke-width:1.44;stroke-linecap:butt;stroke-linejoin:miter;stroke-miterlimit:3.25;stroke-dasharray:2.88, 2.88;stroke-dashoffset:0;stroke-opacity:0.7"
       transform="scale(1.3333333)" />
    <path
       id="path11"
       d="m 0.42333437,1.2876538 v -4.640625 h 0.52734375 v 0.4335937 C 1.0678656,-3.0951587 1.2084906,-3.224065 1.3608344,-3.3060962 c 0.1523437,-0.082031 0.3398437,-0.1289063 0.5625,-0.1289063 0.28125,0 0.5390625,0.082031 0.75,0.2226563 0.2226562,0.140625 0.3867187,0.3515625 0.5039062,0.6210937 0.1054688,0.2695313 0.1640625,0.5625 0.1640625,0.890625 0,0.3398438 -0.058594,0.6445313 -0.1875,0.92578125 C 3.0366156,-0.505315 2.8491156,-0.28265875 2.6147406,-0.14203375 2.3920844,0.01031 2.1342719,0.0806225 1.8764594,0.0806225 c -0.1875,0 -0.3632813,-0.046875 -0.5039063,-0.1171875 -0.1640625,-0.09375 -0.28125,-0.1875 -0.37499998,-0.3046875 v 1.6289063 z m 0.515625,-2.953125 c 0,0.4335937 0.09375,0.7617187 0.26953123,0.96093745 0.1757813,0.2109375 0.375,0.31640625 0.6328125,0.31640625 0.2578125,0 0.46875,-0.1171875 0.6445313,-0.328125 0.1875,-0.2109375 0.28125,-0.5390625 0.28125,-0.984375 0,-0.4335937 -0.09375,-0.7617187 -0.2695313,-0.9726562 C 2.3217719,-2.8842212 2.1108344,-2.98969 1.8647406,-2.98969 c -0.2460937,0 -0.4570312,0.1171875 -0.6445312,0.3398438 -0.1875,0.234375 -0.28125003,0.5507812 -0.28125003,0.984375 z M 6.0161078,-0.00140875 H 5.4418891 V -3.6342212 c -0.140625,0.140625 -0.3164063,0.2695312 -0.5390625,0.3984375 -0.2226563,0.1289062 -0.421875,0.2226562 -0.5976563,0.2929687 v -0.5507812 c 0.3164063,-0.1523438 0.5976563,-0.328125 0.8320313,-0.5507813 0.2460937,-0.1992187 0.4101562,-0.4101562 0.5039062,-0.609375 h 0.375 z m 0,0"
       style="fill:#000000;fill-opacity:1;fill-rule:nonzero;stroke:none"
       aria-label="p1"
       transform="matrix(1.3333333,0,0,1.3333333,146.94337,322.48625)" />
    <path
       id="path12"
       d="m 3.0473578,-1.255315 h -1.125 v 1.125 H 1.4418891 v -1.125 H 0.31688906 V -1.7357837 H 1.4418891 v -1.125 h 0.4804687 v 1.125 h 1.125 z m 0,0"
       style="fill:#000000;fill-opacity:1;fill-rule:nonzero;stroke:none"
       aria-label="+"
       transform="matrix(1.3333333,0,0,1.3333333,157.1517,322.48625)" />
    <path
       id="path13"
       d="m 0.42235781,1.2876538 v -4.640625 h 0.52734375 v 0.4335937 C 1.0668891,-3.0951587 1.2075141,-3.224065 1.3598578,-3.3060962 c 0.1523438,-0.082031 0.3398438,-0.1289063 0.5625,-0.1289063 0.28125,0 0.5390625,0.082031 0.75,0.2226563 0.2226563,0.140625 0.3867188,0.3515625 0.5039063,0.6210937 0.1054687,0.2695313 0.1640625,0.5625 0.1640625,0.890625 0,0.3398438 -0.058594,0.6445313 -0.1875,0.92578125 C 3.0356391,-0.505315 2.8481391,-0.28265875 2.6137641,-0.14203375 2.3911078,0.01031 2.1332953,0.0806225 1.8754828,0.0806225 c -0.1875,0 -0.3632812,-0.046875 -0.5039062,-0.1171875 -0.1640625,-0.09375 -0.28125,-0.1875 -0.37500004,-0.3046875 v 1.6289063 z m 0.515625,-2.953125 c 0,0.4335937 0.09375,0.7617187 0.26953129,0.96093745 0.1757812,0.2109375 0.375,0.31640625 0.6328125,0.31640625 0.2578125,0 0.46875,-0.1171875 0.6445312,-0.328125 0.1875,-0.2109375 0.28125,-0.5390625 0.28125,-0.984375 0,-0.4335937 -0.09375,-0.7617187 -0.2695312,-0.9726562 C 2.3207953,-2.8842212 2.1098578,-2.98969 1.8637641,-2.98969 c -0.2460938,0 -0.4570313,0.1171875 -0.6445313,0.3398438 -0.1875,0.234375 -0.28124999,0.5507812 -0.28124999,0.984375 z m 2.93554689,0.4453125 0.5625,-0.082031 c 0.070312,0.328125 0.1875,0.5625 0.3398437,0.703125 0.1523438,0.140625 0.3515625,0.2109375 0.5742188,0.2109375 0.2695312,0 0.4921875,-0.09375 0.6796875,-0.28125 0.1875,-0.17578125 0.28125,-0.4101562 0.28125,-0.6914062 0,-0.2578125 -0.09375,-0.46875 -0.2695313,-0.6445313 -0.1640625,-0.1640625 -0.375,-0.2460937 -0.6445312,-0.2460937 -0.1054688,0 -0.234375,0.011719 -0.3984375,0.058594 l 0.058594,-0.5039062 c 0.035156,0.011719 0.070312,0.011719 0.09375,0.011719 0.2460938,0 0.4570313,-0.058594 0.65625,-0.1992187 0.1992188,-0.1171875 0.2929688,-0.3164063 0.2929688,-0.5742188 0,-0.2109375 -0.070312,-0.3867187 -0.2109375,-0.5273437 -0.1523438,-0.1289063 -0.328125,-0.1992188 -0.5507813,-0.1992188 -0.2226562,0 -0.4101562,0.070312 -0.5507812,0.1992188 -0.1523438,0.1523437 -0.2460938,0.3515625 -0.2929688,0.6328125 l -0.5625,-0.1054688 c 0.070312,-0.375 0.2226563,-0.6679687 0.4804688,-0.890625 0.2460937,-0.1992187 0.5507812,-0.3046875 0.9140625,-0.3046875 0.2578125,0 0.4921875,0.046875 0.703125,0.1640625 0.2109375,0.1054688 0.375,0.2578125 0.4804687,0.4335938 0.1171875,0.1875 0.1757813,0.3984375 0.1757813,0.609375 0,0.1992187 -0.058594,0.375 -0.1640625,0.5390625 -0.1054688,0.1757812 -0.2695313,0.3046875 -0.4804688,0.3984375 0.28125,0.070312 0.4921875,0.1992187 0.6445313,0.3984375 0.1523437,0.1875 0.2226562,0.4453125 0.2226562,0.7382812 0,0.41015625 -0.1523437,0.75 -0.4453125,1.03125 -0.2929687,0.28125 -0.6679687,0.421875 -1.1132812,0.421875 -0.4101563,0 -0.75,-0.1171875 -1.0195313,-0.36328125 C 4.0610297,-0.51703375 3.9086859,-0.83344 3.8735297,-1.2201587 Z m 0,0"
       style="fill:#000000;fill-opacity:1;fill-rule:nonzero;stroke:none"
       aria-label="p3"
       transform="matrix(1.3333333,0,0,1.3333333,163.1517,322.48625)" />
    <path
       id="path14"
       d="m 122.098,8.801 13.734,5.769 14.934,7.5 13.714,8.203 12.485,8.911 11.265,9.617 10.04,10.324 8.816,11.027 7.594,11.739 6.367,12.445 5.144,13.148 3.922,13.856 2.696,14.566 1.472,15.27 0.25,15.976 -0.976,16.684 -1.867,14.777"
       style="fill:none;stroke:#000000;stroke-width:1.44;stroke-linecap:butt;stroke-linejoin:miter;stroke-miterlimit:3.25;stroke-dasharray:none;stroke-opacity:0.7"
       transform="scale(1.3333333)" />
    <path
       id="path15"
       d="m 0.42293906,1.2889499 v -4.640625 h 0.52734375 v 0.4335938 C 1.0674703,-3.0938626 1.2080953,-3.2227688 1.3604391,-3.3048001 c 0.1523437,-0.082031 0.3398437,-0.1289062 0.5625,-0.1289062 0.28125,0 0.5390625,0.082031 0.75,0.2226562 0.2226562,0.140625 0.3867187,0.3515625 0.5039062,0.6210938 0.1054688,0.2695312 0.1640625,0.5625 0.1640625,0.890625 0,0.3398437 -0.058594,0.6445312 -0.1875,0.92578124 -0.1171875,0.26953125 -0.3046875,0.4921875 -0.5390625,0.6328125 -0.2226562,0.15234375 -0.4804687,0.22265625 -0.7382812,0.22265625 -0.1875,0 -0.3632813,-0.046875 -0.5039063,-0.1171875 -0.1640625,-0.09375 -0.28125,-0.1875 -0.37499999,-0.3046875 V 1.2889499 Z m 0.515625,-2.953125 c 0,0.4335938 0.09375,0.76171879 0.26953124,0.96093754 0.1757813,0.2109375 0.375,0.31640625 0.6328125,0.31640625 0.2578125,0 0.46875,-0.1171875 0.6445313,-0.328125 0.1875,-0.2109375 0.28125,-0.53906249 0.28125,-0.98437499 0,-0.4335938 -0.09375,-0.7617188 -0.2695313,-0.9726563 -0.1757812,-0.2109375 -0.3867187,-0.3164062 -0.6328125,-0.3164062 -0.2460937,0 -0.4570312,0.1171875 -0.6445312,0.3398437 -0.1875,0.234375 -0.28125004,0.5507813 -0.28125004,0.984375 z M 6.0157125,-1.125625e-4 H 5.4414938 V -3.6329251 c -0.140625,0.140625 -0.3164063,0.2695313 -0.5390625,0.3984375 -0.2226563,0.1289063 -0.421875,0.2226563 -0.5976563,0.2929688 V -3.4923001 C 4.6211813,-3.6446438 4.9024313,-3.8204251 5.1368063,-4.0430813 5.3829,-4.2423001 5.5469625,-4.4532376 5.6407125,-4.6524563 h 0.375 z m 0,0"
       style="fill:#000000;fill-opacity:1;fill-rule:nonzero;stroke:none"
       aria-label="p1"
       transform="matrix(1.3333333,0,0,1.3333333,272.6353,116.64468)" />
    <path
       id="path16"
       d="M 2.2979391,-0.38566006 V 0.00105869 H 0.14168906 c -0.0117188,-0.09375 0.0117188,-0.1875 0.046875,-0.28125 0.046875,-0.140625 0.140625,-0.29296875 0.2578125,-0.43359375 0.1171875,-0.140625 0.29296875,-0.30468754 0.52734375,-0.49218754 0.35156249,-0.2929687 0.58593749,-0.515625 0.71484379,-0.6914062 0.1289062,-0.1640625 0.1875,-0.328125 0.1875,-0.4804688 0,-0.1523437 -0.058594,-0.2929687 -0.1757813,-0.3984375 -0.1054687,-0.1171875 -0.2578125,-0.1640625 -0.4335937,-0.1640625 -0.1992188,0 -0.35156254,0.058594 -0.46875004,0.1757813 -0.1171875,0.1171875 -0.17578125,0.2695312 -0.17578125,0.4804687 l -0.41015625,-0.046875 c 0.0351563,-0.3046875 0.140625,-0.5390625 0.31640625,-0.703125 0.1875,-0.1640625 0.43359375,-0.234375 0.74999999,-0.234375 0.3046875,0 0.5507813,0.082031 0.7382813,0.2578125 0.1875,0.1757813 0.2695312,0.3867188 0.2695312,0.6445313 0,0.1289062 -0.023437,0.2578125 -0.082031,0.3867187 -0.046875,0.1289063 -0.140625,0.2578125 -0.2578125,0.3984375 -0.1289063,0.140625 -0.328125,0.328125 -0.6210938,0.5742188 -0.234375,0.19921874 -0.39843749,0.33984374 -0.45703124,0.41015624 -0.0703125,0.0703125 -0.12890625,0.140625 -0.17578125,0.2109375 z m 0,0"
       style="fill:#000000;fill-opacity:1;fill-rule:nonzero;stroke:none"
       aria-label="2"
       transform="matrix(1.3333333,0,0,1.3333333,281.5103,112.43999)" />
    <path
       id="path17"
       d="m 119.344,10.391 -1.871,14.781 -0.973,16.68 0.246,15.976 1.473,15.274 2.699,14.562 3.918,13.856 5.144,13.152 6.372,12.441 7.589,11.739 8.817,11.031 10.043,10.32 11.261,9.617 12.489,8.91 13.711,8.208 14.937,7.496 13.735,5.769"
       style="fill:none;stroke:#000000;stroke-width:1.44;stroke-linecap:butt;stroke-linejoin:miter;stroke-miterlimit:3.25;stroke-dasharray:2.88, 2.88;stroke-dashoffset:0;stroke-opacity:0.7"
       transform="scale(1.3333333)" />
    <path
       id="path18"
       d="M 1.7122264,1.208064 H 1.3489452 C 1.1966014,1.020564 1.0676952,0.82134525 0.93878894,0.61040775 0.80988269,0.3877515 0.71613269,0.176814 0.62238269,-0.057561 c -0.09375,-0.22265625 -0.1640625,-0.45703125 -0.2109375,-0.703125 -0.046875,-0.234375 -0.0585938,-0.4804687 -0.0585938,-0.7265625 0,-0.2578125 0.0117188,-0.4921875 0.0585938,-0.7265625 0.0585938,-0.2460937 0.12890625,-0.4804687 0.2109375,-0.703125 0.09375,-0.234375 0.19921875,-0.4453125 0.31640625,-0.6679687 C 1.0676952,-3.7958422 1.1966014,-3.995061 1.3489452,-4.1942797 h 0.3632812 c -0.140625,0.2226562 -0.2578125,0.4335937 -0.3632812,0.6445312 -0.1054688,0.2109375 -0.1875,0.421875 -0.2695313,0.6445313 -0.058594,0.2226562 -0.11718746,0.4453125 -0.15234371,0.6796875 -0.0351563,0.2226562 -0.0585938,0.46875 -0.0585938,0.7382812 0,0.234375 0.0234375,0.46875 0.0585938,0.71484375 0.046875,0.234375 0.10546871,0.45703125 0.16406251,0.69140625 0.082031,0.22265625 0.1640625,0.4453125 0.2695312,0.66796875 0.1054688,0.2109375 0.2226563,0.42187505 0.3515625,0.62109375 z m 0,0"
       style="fill:#000000;fill-opacity:1;fill-rule:nonzero;stroke:none"
       aria-label="("
       transform="matrix(1.3333333,0,0,1.3333333,171.48656,168.76425)" />
    <path
       id="path19"
       d="m 0.42218737,1.2900953 v -4.640625 H 0.94953112 V -2.916936 C 1.0667186,-3.0927172 1.2073436,-3.2216235 1.3596874,-3.3036547 c 0.1523437,-0.082031 0.3398437,-0.1289063 0.5625,-0.1289063 0.28125,0 0.5390625,0.082031 0.75,0.2226563 0.2226562,0.140625 0.3867187,0.3515625 0.5039062,0.6210937 0.1054688,0.2695313 0.1640625,0.5625 0.1640625,0.890625 0,0.3398438 -0.058594,0.6445313 -0.1875,0.92578125 -0.1171875,0.26953125 -0.3046875,0.4921875 -0.5390625,0.6328125 C 2.3909374,0.0127515 2.1331249,0.083064 1.8753124,0.083064 c -0.1875,0 -0.3632813,-0.046875 -0.5039063,-0.1171875 -0.1640625,-0.09375 -0.28125,-0.1875 -0.37499998,-0.3046875 v 1.6289063 z m 0.515625,-2.953125 c 0,0.4335937 0.09375,0.7617187 0.26953123,0.96093745 0.1757813,0.2109375 0.375,0.31640625 0.6328125,0.31640625 0.2578125,0 0.46875,-0.1171875 0.6445313,-0.328125 0.1875,-0.2109375 0.28125,-0.5390625 0.28125,-0.984375 0,-0.4335937 -0.09375,-0.7617187 -0.2695313,-0.9726562 -0.1757812,-0.2109375 -0.3867187,-0.3164063 -0.6328125,-0.3164063 -0.2460937,0 -0.4570312,0.1171875 -0.6445312,0.3398438 -0.1875,0.234375 -0.28125003,0.5507812 -0.28125003,0.984375 z m 5.92382813,1.12499995 v 0.5390625 H 3.8030467 c -0.011719,-0.140625 0.011719,-0.26953125 0.058594,-0.3984375 0.082031,-0.19921875 0.1992187,-0.41015625 0.375,-0.60937495 0.1757812,-0.1992188 0.421875,-0.4335938 0.75,-0.703125 0.5039062,-0.4101563 0.84375,-0.7382813 1.0195312,-0.984375 0.1757813,-0.2460938 0.2695313,-0.46875 0.2695313,-0.6796875 0,-0.2226563 -0.082031,-0.421875 -0.2460938,-0.5742188 -0.1640625,-0.1640625 -0.375,-0.234375 -0.6328125,-0.234375 -0.2695312,0 -0.4921875,0.082031 -0.65625,0.2460938 -0.1640625,0.1640625 -0.2460937,0.3984375 -0.2460937,0.6796875 l -0.5976563,-0.058594 c 0.046875,-0.4335937 0.1992188,-0.7617187 0.4570313,-0.9960937 0.2695312,-0.234375 0.6210937,-0.3398438 1.0546875,-0.3398438 0.4453125,0 0.796875,0.1171875 1.0546875,0.3632813 0.2695312,0.2460937 0.3984375,0.5507812 0.3984375,0.9140625 0,0.1875 -0.046875,0.375 -0.1171875,0.5507812 -0.070312,0.1875 -0.1992188,0.375 -0.375,0.5742188 -0.1757813,0.1992187 -0.46875,0.46875 -0.8789063,0.8085937 -0.3398437,0.2929688 -0.5625,0.4921875 -0.65625,0.5859375 -0.1054687,0.10546875 -0.1757812,0.2109375 -0.2460937,0.31640625 z m 0,0"
       style="fill:#000000;fill-opacity:1;fill-rule:nonzero;stroke:none"
       aria-label="p2"
       transform="matrix(1.3333333,0,0,1.3333333,174.1324,168.76425)" />
    <path
       id="path20"
       d="m 3.0462103,-1.2528735 h -1.125 v 1.125 H 1.4407416 v -1.125 H 0.31574156 V -1.7333422 H 1.4407416 v -1.125 h 0.4804687 v 1.125 h 1.125 z m 0,0"
       style="fill:#000000;fill-opacity:1;fill-rule:nonzero;stroke:none"
       aria-label="+"
       transform="matrix(1.3333333,0,0,1.3333333,184.43448,168.76425)" />
    <path
       id="path21"
       d="m 0.42121031,1.2900953 v -4.640625 H 0.94855406 V -2.916936 C 1.0657416,-3.0927172 1.2063666,-3.2216235 1.3587103,-3.3036547 c 0.1523438,-0.082031 0.3398438,-0.1289063 0.5625,-0.1289063 0.28125,0 0.5390625,0.082031 0.75,0.2226563 0.2226563,0.140625 0.3867188,0.3515625 0.5039063,0.6210937 0.1054687,0.2695313 0.1640625,0.5625 0.1640625,0.890625 0,0.3398438 -0.058594,0.6445313 -0.1875,0.92578125 -0.1171875,0.26953125 -0.3046875,0.4921875 -0.5390625,0.6328125 C 2.3899603,0.0127515 2.1321478,0.083064 1.8743353,0.083064 c -0.1875,0 -0.3632812,-0.046875 -0.5039062,-0.1171875 -0.1640625,-0.09375 -0.28125,-0.1875 -0.37500004,-0.3046875 v 1.6289063 z m 0.515625,-2.953125 c 0,0.4335937 0.09375,0.7617187 0.26953129,0.96093745 0.1757812,0.2109375 0.375,0.31640625 0.6328125,0.31640625 0.2578125,0 0.46875,-0.1171875 0.6445312,-0.328125 0.1875,-0.2109375 0.28125,-0.5390625 0.28125,-0.984375 0,-0.4335937 -0.09375,-0.7617187 -0.2695312,-0.9726562 -0.1757813,-0.2109375 -0.3867188,-0.3164063 -0.6328125,-0.3164063 -0.2460938,0 -0.4570313,0.1171875 -0.6445313,0.3398438 -0.1875,0.234375 -0.28124999,0.5507812 -0.28124999,0.984375 z m 2.93554689,0.4453125 0.5625,-0.082031 c 0.070312,0.328125 0.1875,0.5625 0.3398437,0.703125 0.1523438,0.140625 0.3515625,0.2109375 0.5742188,0.2109375 0.2695312,0 0.4921875,-0.09375 0.6796875,-0.28125 0.1875,-0.17578125 0.28125,-0.4101562 0.28125,-0.6914062 0,-0.2578125 -0.09375,-0.46875 -0.2695313,-0.6445313 -0.1640625,-0.1640625 -0.375,-0.2460937 -0.6445312,-0.2460937 -0.1054688,0 -0.234375,0.011719 -0.3984375,0.058594 l 0.058594,-0.5039062 c 0.035156,0.011719 0.070312,0.011719 0.09375,0.011719 0.2460938,0 0.4570313,-0.058594 0.65625,-0.1992187 0.1992188,-0.1171875 0.2929688,-0.3164063 0.2929688,-0.5742188 0,-0.2109375 -0.070312,-0.3867187 -0.2109375,-0.5273437 -0.1523438,-0.1289063 -0.328125,-0.1992188 -0.5507813,-0.1992188 -0.2226562,0 -0.4101562,0.070312 -0.5507812,0.1992188 -0.1523438,0.1523437 -0.2460938,0.3515625 -0.2929688,0.6328125 l -0.5625,-0.1054688 c 0.070312,-0.375 0.2226563,-0.6679687 0.4804688,-0.890625 0.2460937,-0.1992187 0.5507812,-0.3046875 0.9140625,-0.3046875 0.2578125,0 0.4921875,0.046875 0.703125,0.1640625 0.2109375,0.1054688 0.375,0.2578125 0.4804687,0.4335938 0.1171875,0.1875 0.1757813,0.3984375 0.1757813,0.609375 0,0.1992187 -0.058594,0.375 -0.1640625,0.5390625 -0.1054688,0.1757812 -0.2695313,0.3046875 -0.4804688,0.3984375 0.28125,0.070312 0.4921875,0.1992187 0.6445313,0.3984375 0.1523437,0.1875 0.2226562,0.4453125 0.2226562,0.7382812 0,0.41015625 -0.1523437,0.75 -0.4453125,1.03125 -0.2929687,0.28125 -0.6679687,0.421875 -1.1132812,0.421875 -0.4101563,0 -0.75,-0.1171875 -1.0195313,-0.36328125 -0.2695312,-0.234375 -0.421875,-0.55078125 -0.4570315,-0.93750085 z m 0,0"
       style="fill:#000000;fill-opacity:1;fill-rule:nonzero;stroke:none"
       aria-label="p3"
       transform="matrix(1.3333333,0,0,1.3333333,190.43448,168.76425)" />
    <path
       id="path22"
       d="m 1.5696483,-1.4872485 c 0,0.2460938 -0.023437,0.4921875 -0.070312,0.7265625 -0.058594,0.24609375 -0.1171875,0.46875 -0.2109375,0.703125 -0.082031,0.22265625 -0.1992187,0.4453125 -0.31640624,0.65625 -0.1171875,0.2109375 -0.2578125,0.421875 -0.3984375,0.609375 H 0.21027331 c 0.12890625,-0.2109375 0.24609375,-0.421875 0.3515625,-0.6328125 0.10546875,-0.2109375 0.1875,-0.43359375 0.2578125,-0.64453125 0.0703125,-0.22265625 0.12890625,-0.4453125 0.17578125,-0.6796875 0.0351562,-0.234375 0.0585937,-0.48046875 0.0585937,-0.72656245 0,-0.2460938 -0.023437,-0.4804688 -0.0703125,-0.7148438 -0.0351563,-0.2460937 -0.09375,-0.4804687 -0.1640625,-0.703125 C 0.73761706,-3.1278735 0.65558581,-3.338811 0.55011706,-3.5614672 0.44464831,-3.7841235 0.32746081,-3.9833422 0.21027331,-4.1942797 h 0.36328125 c 0.15234375,0.1992187 0.28125,0.3984375 0.41015625,0.609375 0.11718749,0.2109375 0.22265629,0.4335937 0.31640629,0.6679687 0.082031,0.2226563 0.1523437,0.4570313 0.1992187,0.703125 0.046875,0.234375 0.070312,0.4804688 0.070312,0.7265625 z m 0,0"
       style="fill:#000000;fill-opacity:1;fill-rule:nonzero;stroke:none"
       aria-label=")"
       transform="matrix(1.3333333,0,0,1.3333333,199.46573,168.76425)" />
    <path
       id="path23"
       d="M 2.2981639,-0.38744444 V -7.256875e-4 H 0.14191394 C 0.13019519,-0.09447569 0.15363269,-0.18822569 0.18878894,-0.28197569 c 0.046875,-0.140625 0.140625,-0.29296875 0.2578125,-0.43359375 0.1171875,-0.140625 0.29296875,-0.30468746 0.52734375,-0.49218746 0.35156251,-0.2929688 0.58593751,-0.515625 0.71484371,-0.6914063 0.1289063,-0.1640625 0.1875,-0.328125 0.1875,-0.4804687 0,-0.1523438 -0.058594,-0.2929688 -0.1757812,-0.3984375 -0.1054688,-0.1171875 -0.2578125,-0.1640625 -0.4335938,-0.1640625 -0.1992187,0 -0.35156246,0.058594 -0.46874996,0.1757812 -0.1171875,0.1171875 -0.17578125,0.2695313 -0.17578125,0.4804688 l -0.41015625,-0.046875 c 0.0351563,-0.3046875 0.140625,-0.5390625 0.31640625,-0.703125 0.1875,-0.1640625 0.43359375,-0.234375 0.75000001,-0.234375 0.3046875,0 0.5507812,0.082031 0.7382812,0.2578125 0.1875,0.1757812 0.2695313,0.3867187 0.2695313,0.6445312 0,0.1289063 -0.023437,0.2578125 -0.082031,0.3867188 -0.046875,0.1289062 -0.140625,0.2578125 -0.2578125,0.3984375 -0.1289062,0.140625 -0.328125,0.328125 -0.6210937,0.5742187 -0.234375,0.19921876 -0.39843751,0.33984376 -0.45703126,0.41015626 -0.0703125,0.0703125 -0.12890625,0.140625 -0.17578125,0.2109375 z m 0,0"
       style="fill:#000000;fill-opacity:1;fill-rule:nonzero;stroke:none"
       aria-label="2"
       transform="matrix(1.3333333,0,0,1.3333333,202.11156,164.55956)" />
    <path
       id="path24"
       d="m 10.617,201.223 c 0,0.699 -0.277,1.367 -0.769,1.863 -0.493,0.492 -1.164,0.769 -1.86,0.769 -0.699,0 -1.367,-0.277 -1.859,-0.769 -0.496,-0.496 -0.774,-1.164 -0.774,-1.863 0,-0.696 0.278,-1.368 0.774,-1.86 0.492,-0.492 1.16,-0.769 1.859,-0.769 0.696,0 1.367,0.277 1.86,0.769 0.492,0.492 0.769,1.164 0.769,1.86 z"
       style="fill:#a3b4cc;fill-opacity:1;fill-rule:evenodd;stroke:#000000;stroke-width:0.36;stroke-linecap:square;stroke-linejoin:miter;stroke-miterlimit:3.25;stroke-dasharray:none;stroke-opacity:0.7"
       transform="scale(1.3333333)" />
    <path
       id="path25"
       d="m 122.305,7.781 c 0,0.696 -0.278,1.367 -0.774,1.86 -0.492,0.492 -1.16,0.769 -1.859,0.769 -0.695,0 -1.367,-0.277 -1.86,-0.769 -0.492,-0.493 -0.769,-1.164 -0.769,-1.86 0,-0.699 0.277,-1.367 0.769,-1.859 0.493,-0.496 1.165,-0.774 1.86,-0.774 0.699,0 1.367,0.278 1.859,0.774 0.496,0.492 0.774,1.16 0.774,1.859 z"
       style="fill:#a3b4cc;fill-opacity:1;fill-rule:evenodd;stroke:#000000;stroke-width:0.36;stroke-linecap:square;stroke-linejoin:miter;stroke-miterlimit:3.25;stroke-dasharray:none;stroke-opacity:0.7"
       transform="scale(1.3333333)" />
    <path
       id="path26"
       d="m 233.988,201.223 c 0,0.699 -0.277,1.367 -0.769,1.863 -0.496,0.492 -1.164,0.769 -1.864,0.769 -0.695,0 -1.363,-0.277 -1.859,-0.769 -0.492,-0.496 -0.769,-1.164 -0.769,-1.863 0,-0.696 0.277,-1.368 0.769,-1.86 0.496,-0.492 1.164,-0.769 1.859,-0.769 0.7,0 1.368,0.277 1.864,0.769 0.492,0.492 0.769,1.164 0.769,1.86 z"
       style="fill:#a3b4cc;fill-opacity:1;fill-rule:evenodd;stroke:#000000;stroke-width:0.36;stroke-linecap:square;stroke-linejoin:miter;stroke-miterlimit:3.25;stroke-dasharray:none;stroke-opacity:0.7"
       transform="scale(1.3333333)" />
    <path
       id="path27"
       d="M 259.02,296.641 H 0.18"
       style="fill:none;stroke:#000000;stroke-width:0.144;stroke-linecap:square;stroke-linejoin:miter;stroke-miterlimit:3.25;stroke-dasharray:none;stroke-opacity:1"
       transform="scale(1.3333333)" />
    <path
       id="path28"
       d="M 0.18,296.641 V 0.18"
       style="fill:none;stroke:#000000;stroke-width:0.144;stroke-linecap:square;stroke-linejoin:miter;stroke-miterlimit:3.25;stroke-dasharray:none;stroke-opacity:1"
       transform="scale(1.3333333)" />
    <path
       id="path29"
       d="M 0.18,0.18 H 259.02"
       style="fill:none;stroke:#000000;stroke-width:0.144;stroke-linecap:square;stroke-linejoin:miter;stroke-miterlimit:3.25;stroke-dasharray:none;stroke-opacity:1"
       transform="scale(1.3333333)" />
    <path
       id="path30"
       d="M 259.02,0.18 V 296.641"
       style="fill:none;stroke:#000000;stroke-width:0.144;stroke-linecap:square;stroke-linejoin:miter;stroke-miterlimit:3.25;stroke-dasharray:none;stroke-opacity:1"
       transform="scale(1.3333333)" />
  </g>
</svg>
