<?xml version="1.0" encoding="UTF-8" standalone="no"?>
<!-- Created with Inkscape (http://www.inkscape.org/) -->

<svg
   version="1.1"
   id="svg2"
   xml:space="preserve"
   width="346.66666"
   height="72"
   viewBox="0 0 346.66666 72"
   sodipodi:docname="0n46uoe6w24dg.pdf"
   xmlns:inkscape="http://www.inkscape.org/namespaces/inkscape"
   xmlns:sodipodi="http://sodipodi.sourceforge.net/DTD/sodipodi-0.dtd"
   xmlns="http://www.w3.org/2000/svg"
   xmlns:svg="http://www.w3.org/2000/svg"><defs
     id="defs6" /><sodipodi:namedview
     id="namedview4"
     pagecolor="#505050"
     bordercolor="#eeeeee"
     borderopacity="1"
     inkscape:pageshadow="0"
     inkscape:pageopacity="0"
     inkscape:pagecheckerboard="0" /><g
     id="g8"
     inkscape:groupmode="layer"
     inkscape:label="0n46uoe6w24dg"
     transform="matrix(1.3333333,0,0,1.3333333,0,1.8e-6)"><g
       id="g10"><path
         d="M 9.664,26.656 61.66,26.645"
         style="fill:none;stroke:#cc0000;stroke-width:0.36;stroke-linecap:butt;stroke-linejoin:miter;stroke-miterlimit:3.25;stroke-dasharray:none;stroke-opacity:1"
         id="path12" /><path
         d="m 60.859,24.371 0.129,0.258 0.278,0.621 0.148,0.371 0.125,0.379 0.09,0.348 0.031,0.297 -0.031,0.265 -0.09,0.348 -0.125,0.387 -0.148,0.398 -0.278,0.676 -0.125,0.289 8.637,-2.367 z"
         style="fill:#cc0000;fill-opacity:1;fill-rule:nonzero;stroke:#cc0000;stroke-width:0.36;stroke-linecap:square;stroke-linejoin:miter;stroke-miterlimit:3.25;stroke-dasharray:none;stroke-opacity:1"
         id="path14" /><path
         d="m 73.867,27.352 46.34,15.472"
         style="fill:none;stroke:#264a80;stroke-width:0.36;stroke-linecap:butt;stroke-linejoin:miter;stroke-miterlimit:3.25;stroke-dasharray:none;stroke-opacity:0.7"
         id="path16" /><path
         d="m 120.172,40.414 0.035,0.285 0.066,0.676 0.024,0.402 v 0.395 l -0.027,0.359 -0.063,0.293 -0.113,0.242 -0.196,0.301 -0.242,0.328 -0.265,0.328 -0.477,0.555 -0.211,0.234 8.942,0.493 z"
         style="fill:#264a80;fill-opacity:0.7;fill-rule:nonzero;stroke:none"
         id="path18" /><path
         d="m 120.172,40.414 0.035,0.285 0.066,0.676 0.024,0.402 v 0.395 l -0.027,0.359 -0.063,0.293 -0.113,0.242 -0.196,0.301 -0.242,0.328 -0.265,0.328 -0.477,0.555 -0.211,0.234 8.942,0.493 z"
         style="fill:none;stroke:#264a80;stroke-width:0.36;stroke-linecap:square;stroke-linejoin:miter;stroke-miterlimit:3.25;stroke-dasharray:none;stroke-opacity:0.7"
         id="path20" /><path
         d="m 73.617,25.414 8.707,-5.711 11.094,-5.41 11.605,-3.887 12.114,-2.355 2.566,-0.172"
         style="fill:none;stroke:#e6c100;stroke-width:0.36;stroke-linecap:butt;stroke-linejoin:miter;stroke-miterlimit:3.25;stroke-dasharray:none;stroke-opacity:1"
         id="path22" /><path
         d="m 118.758,5.664 0.144,0.25 0.317,0.602 0.172,0.363 0.152,0.367 0.109,0.34 0.051,0.293 -0.015,0.269 -0.063,0.352 -0.102,0.395 -0.121,0.406 -0.234,0.695 -0.106,0.297 8.465,-2.93 z"
         style="fill:#e6c100;fill-opacity:1;fill-rule:nonzero;stroke:#e6c100;stroke-width:0.36;stroke-linecap:square;stroke-linejoin:miter;stroke-miterlimit:3.25;stroke-dasharray:none;stroke-opacity:1"
         id="path24" /><path
         d="m 73.98,26.492 10.387,-0.683 12.117,-2.356 11.606,-3.887 11.094,-5.41 2.148,-1.41"
         style="fill:none;stroke:#e6c100;stroke-width:0.36;stroke-linecap:butt;stroke-linejoin:miter;stroke-miterlimit:3.25;stroke-dasharray:none;stroke-opacity:1"
         id="path26" /><path
         d="m 119.418,11.281 0.246,0.149 0.574,0.367 0.328,0.23 0.313,0.246 0.266,0.243 0.187,0.23 0.121,0.242 0.113,0.336 0.11,0.395 0.094,0.414 0.14,0.719 0.051,0.308 5.93,-6.715 z"
         style="fill:#e6c100;fill-opacity:1;fill-rule:nonzero;stroke:#e6c100;stroke-width:0.36;stroke-linecap:square;stroke-linejoin:miter;stroke-miterlimit:3.25;stroke-dasharray:none;stroke-opacity:1"
         id="path28" /><path
         d="m 249.535,26.66 -51.75,-0.027"
         style="fill:none;stroke:#ff6b00;stroke-width:0.36;stroke-linecap:butt;stroke-linejoin:miter;stroke-miterlimit:3.25;stroke-dasharray:none;stroke-opacity:1"
         id="path30" /><path
         d="m 198.582,28.91 -0.125,-0.262 -0.277,-0.621 -0.149,-0.371 -0.125,-0.375 -0.09,-0.351 -0.031,-0.297 0.031,-0.266 0.09,-0.344 0.129,-0.39 0.145,-0.399 0.277,-0.675 0.129,-0.289 -8.641,2.359 z"
         style="fill:#ff6b00;fill-opacity:1;fill-rule:nonzero;stroke:#ff6b00;stroke-width:0.36;stroke-linecap:square;stroke-linejoin:miter;stroke-miterlimit:3.25;stroke-dasharray:none;stroke-opacity:1"
         id="path32" /><path
         d="M 185.578,27.34 139.332,42.816"
         style="fill:none;stroke:#264a80;stroke-width:0.36;stroke-linecap:butt;stroke-linejoin:miter;stroke-miterlimit:3.25;stroke-dasharray:none;stroke-opacity:0.7"
         id="path34" /><path
         d="m 140.812,44.719 -0.203,-0.203 -0.461,-0.5 -0.257,-0.309 -0.239,-0.316 -0.195,-0.305 -0.125,-0.27 -0.055,-0.261 -0.027,-0.356 v -0.41 l 0.012,-0.426 0.05,-0.73 0.028,-0.313 -7.445,4.985 z"
         style="fill:#264a80;fill-opacity:0.7;fill-rule:nonzero;stroke:none"
         id="path36" /><path
         d="m 140.812,44.719 -0.203,-0.203 -0.461,-0.5 -0.257,-0.309 -0.239,-0.316 -0.195,-0.305 -0.125,-0.27 -0.055,-0.261 -0.027,-0.356 v -0.41 l 0.012,-0.426 0.05,-0.73 0.028,-0.313 -7.445,4.985 z"
         style="fill:none;stroke:#264a80;stroke-width:0.36;stroke-linecap:square;stroke-linejoin:miter;stroke-miterlimit:3.25;stroke-dasharray:none;stroke-opacity:0.7"
         id="path38" /><path
         d="M 185.578,25.918 139.324,10.422"
         style="fill:none;stroke:#b452cc;stroke-width:0.36;stroke-linecap:butt;stroke-linejoin:miter;stroke-miterlimit:3.25;stroke-dasharray:none;stroke-opacity:1"
         id="path40" /><path
         d="m 139.359,12.832 -0.039,-0.289 -0.066,-0.676 -0.02,-0.398 V 11.07 l 0.028,-0.359 0.062,-0.289 0.114,-0.246 0.195,-0.297 0.242,-0.328 0.266,-0.332 0.48,-0.555 0.211,-0.23 -8.941,-0.504 z"
         style="fill:#b452cc;fill-opacity:1;fill-rule:nonzero;stroke:#b452cc;stroke-width:0.36;stroke-linecap:square;stroke-linejoin:miter;stroke-miterlimit:3.25;stroke-dasharray:none;stroke-opacity:1"
         id="path42" /><path
         d="M 129.77,43.773 129.766,17.301"
         style="fill:none;stroke:#264a80;stroke-width:0.36;stroke-linecap:butt;stroke-linejoin:miter;stroke-miterlimit:3.25;stroke-dasharray:none;stroke-opacity:0.7"
         id="path44" /><path
         d="m 127.492,18.098 0.258,-0.125 0.621,-0.278 0.375,-0.148 0.375,-0.125 0.348,-0.09 0.297,-0.031 0.265,0.031 0.348,0.09 0.387,0.125 0.398,0.148 0.68,0.278 0.285,0.125 -2.363,-8.641 z"
         style="fill:#264a80;fill-opacity:0.7;fill-rule:nonzero;stroke:none"
         id="path46" /><path
         d="m 127.492,18.098 0.258,-0.125 0.621,-0.278 0.375,-0.148 0.375,-0.125 0.348,-0.09 0.297,-0.031 0.265,0.031 0.348,0.09 0.387,0.125 0.398,0.148 0.68,0.278 0.285,0.125 -2.363,-8.641 z"
         style="fill:none;stroke:#264a80;stroke-width:0.36;stroke-linecap:square;stroke-linejoin:miter;stroke-miterlimit:3.25;stroke-dasharray:none;stroke-opacity:0.7"
         id="path48" /><path
         d="m 9.664,26.656 c 0,-0.594 -0.234,-1.164 -0.656,-1.582 -0.418,-0.422 -0.988,-0.66 -1.582,-0.66 -0.594,0 -1.164,0.238 -1.586,0.66 -0.418,0.418 -0.656,0.988 -0.656,1.582 0,0.594 0.238,1.164 0.656,1.586 0.422,0.418 0.992,0.656 1.586,0.656 0.594,0 1.164,-0.238 1.582,-0.656 C 9.43,27.82 9.664,27.25 9.664,26.656 Z"
         style="fill:#a3b4cc;fill-opacity:1;fill-rule:evenodd;stroke:none"
         id="path50" /><path
         d="m 9.664,26.656 c 0,-0.594 -0.234,-1.164 -0.656,-1.582 -0.418,-0.422 -0.988,-0.66 -1.582,-0.66 -0.594,0 -1.164,0.238 -1.586,0.66 -0.418,0.418 -0.656,0.988 -0.656,1.582 0,0.594 0.238,1.164 0.656,1.586 0.422,0.418 0.992,0.656 1.586,0.656 0.594,0 1.164,-0.238 1.582,-0.656 C 9.43,27.82 9.664,27.25 9.664,26.656 Z"
         style="fill:none;stroke:#000000;stroke-width:0.36;stroke-linecap:square;stroke-linejoin:miter;stroke-miterlimit:3.25;stroke-dasharray:none;stroke-opacity:0.7"
         id="path52" /><path
         d="m 73.984,26.641 c 0,-0.594 -0.238,-1.164 -0.656,-1.582 -0.422,-0.422 -0.992,-0.661 -1.586,-0.661 -0.594,0 -1.164,0.239 -1.582,0.661 -0.422,0.418 -0.66,0.988 -0.66,1.582 0,0.593 0.238,1.164 0.66,1.586 0.418,0.418 0.988,0.656 1.582,0.656 0.594,0 1.164,-0.238 1.586,-0.656 0.418,-0.422 0.656,-0.993 0.656,-1.586 z"
         style="fill:#ff6b00;fill-opacity:1;fill-rule:evenodd;stroke:#ff6b00;stroke-width:0.36;stroke-linecap:square;stroke-linejoin:miter;stroke-miterlimit:3.25;stroke-dasharray:none;stroke-opacity:1"
         id="path54" /><path
         d="m 254.016,26.66 c 0,-0.594 -0.235,-1.164 -0.657,-1.582 -0.421,-0.422 -0.988,-0.656 -1.586,-0.656 -0.593,0 -1.164,0.234 -1.582,0.656 -0.421,0.418 -0.656,0.988 -0.656,1.582 0,0.598 0.235,1.164 0.656,1.586 0.418,0.422 0.989,0.656 1.582,0.656 0.598,0 1.165,-0.234 1.586,-0.656 0.422,-0.422 0.657,-0.988 0.657,-1.586 z"
         style="fill:#a3b4cc;fill-opacity:1;fill-rule:evenodd;stroke:none"
         id="path56" /><path
         d="m 254.016,26.66 c 0,-0.594 -0.235,-1.164 -0.657,-1.582 -0.421,-0.422 -0.988,-0.656 -1.586,-0.656 -0.593,0 -1.164,0.234 -1.582,0.656 -0.421,0.418 -0.656,0.988 -0.656,1.582 0,0.598 0.235,1.164 0.656,1.586 0.418,0.422 0.989,0.656 1.582,0.656 0.598,0 1.165,-0.234 1.586,-0.656 0.422,-0.422 0.657,-0.988 0.657,-1.586 z"
         style="fill:none;stroke:#000000;stroke-width:0.36;stroke-linecap:square;stroke-linejoin:miter;stroke-miterlimit:3.25;stroke-dasharray:none;stroke-opacity:0.7"
         id="path58" /><path
         d="m 189.945,26.629 c 0,-0.594 -0.238,-1.164 -0.656,-1.586 -0.422,-0.418 -0.992,-0.656 -1.586,-0.656 -0.594,0 -1.164,0.238 -1.586,0.656 -0.418,0.422 -0.656,0.992 -0.656,1.586 0,0.594 0.238,1.164 0.656,1.586 0.422,0.418 0.992,0.656 1.586,0.656 0.594,0 1.164,-0.238 1.586,-0.656 0.418,-0.422 0.656,-0.992 0.656,-1.586 z"
         style="fill:#cc0000;fill-opacity:1;fill-rule:evenodd;stroke:#cc0000;stroke-width:0.36;stroke-linecap:square;stroke-linejoin:miter;stroke-miterlimit:3.25;stroke-dasharray:none;stroke-opacity:1"
         id="path60" /><path
         d="m 132.012,46.016 c 0,-0.594 -0.235,-1.164 -0.657,-1.586 -0.421,-0.418 -0.988,-0.657 -1.585,-0.657 -0.594,0 -1.165,0.239 -1.582,0.657 -0.422,0.422 -0.657,0.992 -0.657,1.586 0,0.593 0.235,1.164 0.657,1.586 0.417,0.418 0.988,0.656 1.582,0.656 0.597,0 1.164,-0.238 1.585,-0.656 0.422,-0.422 0.657,-0.993 0.657,-1.586 z"
         style="fill:#a3b4cc;fill-opacity:1;fill-rule:evenodd;stroke:none"
         id="path62" /><path
         d="m 132.012,46.016 c 0,-0.594 -0.235,-1.164 -0.657,-1.586 -0.421,-0.418 -0.988,-0.657 -1.585,-0.657 -0.594,0 -1.165,0.239 -1.582,0.657 -0.422,0.422 -0.657,0.992 -0.657,1.586 0,0.593 0.235,1.164 0.657,1.586 0.417,0.418 0.988,0.656 1.582,0.656 0.597,0 1.164,-0.238 1.585,-0.656 0.422,-0.422 0.657,-0.993 0.657,-1.586 z"
         style="fill:none;stroke:#000000;stroke-width:0.36;stroke-linecap:square;stroke-linejoin:miter;stroke-miterlimit:3.25;stroke-dasharray:none;stroke-opacity:0.7"
         id="path64" /><path
         d="m 132.004,7.219 c 0,-0.594 -0.234,-1.164 -0.656,-1.586 -0.418,-0.422 -0.989,-0.656 -1.582,-0.656 -0.598,0 -1.168,0.234 -1.586,0.656 -0.422,0.422 -0.657,0.992 -0.657,1.586 0,0.593 0.235,1.164 0.657,1.582 0.418,0.422 0.988,0.656 1.586,0.656 0.593,0 1.164,-0.234 1.582,-0.656 0.422,-0.418 0.656,-0.989 0.656,-1.582 z"
         style="fill:#b452cc;fill-opacity:1;fill-rule:evenodd;stroke:#b452cc;stroke-width:0.36;stroke-linecap:square;stroke-linejoin:miter;stroke-miterlimit:3.25;stroke-dasharray:none;stroke-opacity:1"
         id="path66" /></g></g></svg>
