<?xml version="1.0" encoding="UTF-8" standalone="no"?>
<!-- Created with Inkscape (http://www.inkscape.org/) -->

<svg
   version="1.1"
   id="svg1"
   width="518.66669"
   height="153.33333"
   viewBox="0 0 518.66669 153.33333"
   sodipodi:docname="0osaxjdx4tyjh.pdf"
   xmlns:inkscape="http://www.inkscape.org/namespaces/inkscape"
   xmlns:sodipodi="http://sodipodi.sourceforge.net/DTD/sodipodi-0.dtd"
   xmlns="http://www.w3.org/2000/svg"
   xmlns:svg="http://www.w3.org/2000/svg">
  <defs
     id="defs1" />
  <sodipodi:namedview
     id="namedview1"
     pagecolor="#ffffff"
     bordercolor="#999999"
     borderopacity="1"
     inkscape:showpageshadow="0"
     inkscape:pageopacity="0"
     inkscape:pagecheckerboard="0"
     inkscape:deskcolor="#d1d1d1">
    <inkscape:page
       x="0"
       y="0"
       id="page1"
       width="518.66669"
       height="153.33333"
       margin="0"
       bleed="0" />
  </sodipodi:namedview>
  <g
     id="g1"
     inkscape:groupmode="layer"
     inkscape:label="">
    <path
       id="path1"
       d="M 15.402,57.039 H 129.824"
       style="fill:none;stroke:#000000;stroke-width:2.16;stroke-linecap:butt;stroke-linejoin:miter;stroke-miterlimit:3.25;stroke-dasharray:none;stroke-opacity:0.7"
       transform="scale(1.3333333)" />
    <path
       id="path2"
       d="m 136.465,54.844 7.191,-5.34 10.149,-6.164 10.148,-4.793 10.149,-3.426 10.148,-2.055 10.148,-0.683 10.153,0.683 10.148,2.055 10.149,3.426 10.148,4.793 10.149,6.164 7.191,5.34"
       style="fill:none;stroke:#000000;stroke-width:2.16;stroke-linecap:butt;stroke-linejoin:miter;stroke-miterlimit:3.25;stroke-dasharray:4.32, 4.32;stroke-dashoffset:0;stroke-opacity:0.7"
       transform="scale(1.3333333)" />
    <path
       id="path3"
       d="m 0.03457031,9.75e-4 2.73046879,-3.6679688 -2.40234379,-3.375 H 1.4642578 l 1.2773438,1.8046875 c 0.2695312,0.375 0.46875,0.6679688 0.5742187,0.8671875 0.1640625,-0.2578125 0.3398438,-0.515625 0.5625,-0.796875 l 1.4179688,-1.875 H 6.3041016 L 3.8314453,-3.7255875 6.4916016,9.75e-4 H 5.3431641 L 3.5736328,-2.5068375 c -0.09375,-0.1523438 -0.2109375,-0.2929688 -0.3046875,-0.4804688 -0.1640625,0.2578125 -0.28125,0.4335938 -0.3515625,0.5390625 L 1.1595703,9.75e-4 Z m 0,0"
       style="fill:#000000;fill-opacity:1;fill-rule:nonzero;stroke:none"
       aria-label="X"
       transform="matrix(1.3333333,0,0,1.3333333,254.7625,52.2487)" />
    <path
       id="path4"
       d="m 137.098,56.219 16.707,-3.821 20.297,-2.785 20.296,-0.929 20.301,0.929 20.297,2.785 16.707,3.821"
       style="fill:none;stroke:#000000;stroke-width:2.16;stroke-linecap:butt;stroke-linejoin:miter;stroke-miterlimit:3.25;stroke-dasharray:4.32, 4.32;stroke-dashoffset:0;stroke-opacity:0.7"
       transform="scale(1.3333333)" />
    <path
       id="path5"
       d="m 137.098,57.859 16.707,3.821 20.297,2.785 20.296,0.926 20.301,-0.926 20.297,-2.785 16.707,-3.821"
       style="fill:none;stroke:#0000ff;stroke-width:2.16;stroke-linecap:butt;stroke-linejoin:miter;stroke-miterlimit:3.25;stroke-dasharray:4.32, 4.32;stroke-dashoffset:0;stroke-opacity:0.7"
       transform="scale(1.3333333)" />
    <path
       id="path6"
       d="m 136.465,59.234 7.191,5.34 10.149,6.164 10.148,4.793 10.149,3.426 10.148,2.055 10.148,0.683 10.153,-0.683 10.148,-2.055 10.149,-3.426 10.148,-4.793 10.149,-6.164 7.191,-5.34"
       style="fill:none;stroke:#0000ff;stroke-width:2.16;stroke-linecap:butt;stroke-linejoin:miter;stroke-miterlimit:3.25;stroke-dasharray:4.32, 4.32;stroke-dashoffset:0;stroke-opacity:0.7"
       transform="scale(1.3333333)" />
    <path
       id="path7"
       d="M 373.398,57.039 H 258.977"
       style="fill:none;stroke:#000000;stroke-width:2.16;stroke-linecap:butt;stroke-linejoin:miter;stroke-miterlimit:3.25;stroke-dasharray:none;stroke-opacity:0.7"
       transform="scale(1.3333333)" />
    <path
       id="path8"
       d="m 15.402,57.039 c 0,0.977 -0.39,1.914 -1.082,2.606 -0.687,0.687 -1.625,1.078 -2.601,1.078 -0.977,0 -1.914,-0.391 -2.606,-1.078 -0.691,-0.692 -1.078,-1.629 -1.078,-2.606 0,-0.977 0.387,-1.914 1.078,-2.605 0.692,-0.692 1.629,-1.079 2.606,-1.079 0.976,0 1.914,0.387 2.601,1.079 0.692,0.691 1.082,1.628 1.082,2.605 z"
       style="fill:#a3b4cc;fill-opacity:1;fill-rule:evenodd;stroke:#000000;stroke-width:0.54;stroke-linecap:square;stroke-linejoin:miter;stroke-miterlimit:3.25;stroke-dasharray:none;stroke-opacity:0.7"
       transform="scale(1.3333333)" />
    <path
       id="path9"
       d="m 137.188,57.039 c 0,0.977 -0.387,1.914 -1.079,2.606 -0.691,0.687 -1.625,1.078 -2.601,1.078 -0.981,0 -1.914,-0.391 -2.606,-1.078 -0.691,-0.692 -1.078,-1.629 -1.078,-2.606 0,-0.977 0.387,-1.914 1.078,-2.605 0.692,-0.692 1.625,-1.079 2.606,-1.079 0.976,0 1.91,0.387 2.601,1.079 0.692,0.691 1.079,1.628 1.079,2.605 z"
       style="fill:#a3b4cc;fill-opacity:1;fill-rule:evenodd;stroke:#000000;stroke-width:0.54;stroke-linecap:square;stroke-linejoin:miter;stroke-miterlimit:3.25;stroke-dasharray:none;stroke-opacity:0.7"
       transform="scale(1.3333333)" />
    <path
       id="path10"
       d="m 380.766,57.039 c 0,0.977 -0.391,1.914 -1.078,2.606 -0.692,0.687 -1.629,1.078 -2.606,1.078 -0.977,0 -1.914,-0.391 -2.605,-1.078 -0.688,-0.692 -1.079,-1.629 -1.079,-2.606 0,-0.977 0.391,-1.914 1.079,-2.605 0.691,-0.692 1.628,-1.079 2.605,-1.079 0.977,0 1.914,0.387 2.606,1.079 0.687,0.691 1.078,1.628 1.078,2.605 z"
       style="fill:#a3b4cc;fill-opacity:1;fill-rule:evenodd;stroke:#000000;stroke-width:0.54;stroke-linecap:square;stroke-linejoin:miter;stroke-miterlimit:3.25;stroke-dasharray:none;stroke-opacity:0.7"
       transform="scale(1.3333333)" />
    <path
       id="path11"
       d="m 258.977,57.039 c 0,0.977 -0.387,1.914 -1.079,2.606 -0.691,0.687 -1.628,1.078 -2.605,1.078 -0.977,0 -1.914,-0.391 -2.602,-1.078 -0.691,-0.692 -1.082,-1.629 -1.082,-2.606 0,-0.977 0.391,-1.914 1.082,-2.605 0.688,-0.692 1.625,-1.079 2.602,-1.079 0.977,0 1.914,0.387 2.605,1.079 0.692,0.691 1.079,1.628 1.079,2.605 z"
       style="fill:#a3b4cc;fill-opacity:1;fill-rule:evenodd;stroke:#000000;stroke-width:0.54;stroke-linecap:square;stroke-linejoin:miter;stroke-miterlimit:3.25;stroke-dasharray:none;stroke-opacity:0.7"
       transform="scale(1.3333333)" />
    <path
       id="path12"
       d="M 388.531,113.809 H 0.27"
       style="fill:none;stroke:#000000;stroke-width:0.216;stroke-linecap:square;stroke-linejoin:miter;stroke-miterlimit:3.25;stroke-dasharray:none;stroke-opacity:1"
       transform="scale(1.3333333)" />
    <path
       id="path13"
       d="M 0.27,113.809 V 0.27"
       style="fill:none;stroke:#000000;stroke-width:0.216;stroke-linecap:square;stroke-linejoin:miter;stroke-miterlimit:3.25;stroke-dasharray:none;stroke-opacity:1"
       transform="scale(1.3333333)" />
    <path
       id="path14"
       d="M 0.27,0.27 H 388.531"
       style="fill:none;stroke:#000000;stroke-width:0.216;stroke-linecap:square;stroke-linejoin:miter;stroke-miterlimit:3.25;stroke-dasharray:none;stroke-opacity:1"
       transform="scale(1.3333333)" />
    <path
       id="path15"
       d="M 388.531,0.27 V 113.809"
       style="fill:none;stroke:#000000;stroke-width:0.216;stroke-linecap:square;stroke-linejoin:miter;stroke-miterlimit:3.25;stroke-dasharray:none;stroke-opacity:1"
       transform="scale(1.3333333)" />
  </g>
</svg>
