<?xml version="1.0" encoding="UTF-8" standalone="no"?>
<!-- Created with Inkscape (http://www.inkscape.org/) -->

<svg
   version="1.1"
   id="svg2"
   width="480"
   height="20"
   viewBox="0 0 480 20"
   sodipodi:docname="0r8qqzg2cmsx4.pdf"
   xmlns:inkscape="http://www.inkscape.org/namespaces/inkscape"
   xmlns:sodipodi="http://sodipodi.sourceforge.net/DTD/sodipodi-0.dtd"
   xmlns="http://www.w3.org/2000/svg"
   xmlns:svg="http://www.w3.org/2000/svg">
  <defs
     id="defs6">
    <clipPath
       clipPathUnits="userSpaceOnUse"
       id="clipPath18">
      <path
         d="m 0,3 h 12.961 v 8.762 H 0 Z"
         id="path16" />
    </clipPath>
    <clipPath
       clipPathUnits="userSpaceOnUse"
       id="clipPath56">
      <path
         d="m 350,2 h 9 v 8.801 h -9 z"
         id="path54" />
    </clipPath>
  </defs>
  <sodipodi:namedview
     id="namedview4"
     pagecolor="#ffffff"
     bordercolor="#999999"
     borderopacity="1"
     inkscape:showpageshadow="0"
     inkscape:pageopacity="0"
     inkscape:pagecheckerboard="0"
     inkscape:deskcolor="#d1d1d1" />
  <g
     id="g8"
     inkscape:groupmode="layer"
     inkscape:label="0r8qqzg2cmsx4"
     transform="scale(1.3333333)">
    <g
       id="g10" />
    <g
       id="g12">
      <g
         id="g14"
         clip-path="url(#clipPath18)">
        <path
           d="m 12.113,6.73 c 0,-1.554 -1.261,-2.816 -2.816,-2.816 H 3.664 c -1.559,0 -2.82,1.262 -2.82,2.816 v 1.551 c 0,1.555 1.261,2.817 2.82,2.817 h 5.633 c 1.555,0 2.816,-1.262 2.816,-2.817 V 6.73"
           style="fill:none;stroke:#e5e5e5;stroke-width:0.7128;stroke-linecap:square;stroke-linejoin:miter;stroke-miterlimit:3.25;stroke-dasharray:none;stroke-opacity:1"
           id="path20" />
        <path
           d="M 7.258,7.508 C 7.258,7.301 7.176,7.102 7.031,6.957 6.883,6.809 6.688,6.727 6.48,6.727 6.273,6.727 6.074,6.809 5.93,6.957 5.785,7.102 5.703,7.301 5.703,7.508 c 0,0.203 0.082,0.402 0.227,0.547 0.144,0.148 0.343,0.23 0.55,0.23 0.208,0 0.403,-0.082 0.551,-0.23 C 7.176,7.91 7.258,7.711 7.258,7.508 Z"
           style="fill:#ff5454;fill-opacity:1;fill-rule:evenodd;stroke:none"
           id="path22" />
        <path
           d="M 10.074,7.508 C 10.074,7.301 9.992,7.102 9.848,6.957 9.703,6.809 9.504,6.727 9.297,6.727 9.09,6.727 8.895,6.809 8.746,6.957 8.602,7.102 8.52,7.301 8.52,7.508 c 0,0.203 0.082,0.402 0.226,0.547 0.149,0.148 0.344,0.23 0.551,0.23 0.207,0 0.406,-0.082 0.551,-0.23 0.144,-0.145 0.226,-0.344 0.226,-0.547 z"
           style="fill:#ff5454;fill-opacity:1;fill-rule:evenodd;stroke:none"
           id="path24" />
        <path
           d="M 4.441,7.508 C 4.441,7.301 4.359,7.102 4.211,6.957 4.066,6.809 3.867,6.727 3.664,6.727 3.457,6.727 3.258,6.809 3.113,6.957 2.969,7.102 2.887,7.301 2.887,7.508 c 0,0.203 0.082,0.402 0.226,0.547 0.145,0.148 0.344,0.23 0.551,0.23 0.203,0 0.402,-0.082 0.547,-0.23 0.148,-0.145 0.23,-0.344 0.23,-0.547 z"
           style="fill:#ff5454;fill-opacity:1;fill-rule:evenodd;stroke:none"
           id="path26" />
      </g>
    </g>
    <g
       id="g28">
      <text
         xml:space="preserve"
         transform="translate(14.587056,10)"
         style="font-variant:normal;font-size:7.92px;font-family:CairoFont-0;-inkscape-font-specification:CairoFont-0-0;writing-mode:lr-tb;fill:#dd1100;fill-opacity:1;fill-rule:nonzero;stroke:none"
         id="text32"><tspan
           x="0 5.7657599 10.23264 15.1272 19.59408 22.86504 27.308161"
           y="0"
           sodipodi:role="line"
           id="tspan30">General</tspan></text>
      <text
         xml:space="preserve"
         transform="translate(44.647056,10)"
         style="font-variant:normal;font-size:7.92px;font-family:CairoFont-0;-inkscape-font-specification:CairoFont-0-0;writing-mode:lr-tb;fill:#000000;fill-opacity:1;fill-rule:nonzero;stroke:none"
         id="text36"><tspan
           x="0"
           y="0"
           id="tspan34">:</tspan></text>
      <text
         xml:space="preserve"
         transform="translate(50.356612,10)"
         style="font-variant:normal;font-size:7.92px;font-family:CairoFont-0;-inkscape-font-specification:CairoFont-0-0;writing-mode:lr-tb;fill:#898989;fill-opacity:1;fill-rule:nonzero;stroke:none"
         id="text40"><tspan
           x="0 4.1104798 9.0050402 12.276 15.13512 20.02968 24.496559 29.8188 34.610401 39.504959 42.364079 47.234879 52.12944 57.039841 61.83144"
           y="0"
           sodipodi:role="line"
           id="tspan38">Furtheroutputof</tspan></text>
      <text
         xml:space="preserve"
         transform="translate(117.30536,10)"
         style="font-variant:normal;font-size:7.92px;font-family:CairoFont-0;-inkscape-font-specification:CairoFont-0-0;writing-mode:lr-tb;fill:#9b9b9b;fill-opacity:1;fill-rule:nonzero;stroke:none"
         id="text44"><tspan
           x="0 6.1855202 11.05632 13.91544 15.9588 20.750401 25.64496 30.396959 34.84008 36.85968 41.754238 46.221119 48.343681 50.46624 55.360802 60.152401 65.023201 69.490082"
           y="0"
           sodipodi:role="line"
           id="tspan42">OptionValue::nodef</tspan></text>
      <text
         xml:space="preserve"
         transform="translate(191.91161,10)"
         style="font-variant:normal;font-size:7.92px;font-family:CairoFont-0;-inkscape-font-specification:CairoFont-0-0;writing-mode:lr-tb;fill:#898989;fill-opacity:1;fill-rule:nonzero;stroke:none"
         id="text48"><tspan
           x="0 6.2251201 8.2684803 10.31184 14.40648 19.277281 25.795441 29.589121 34.483681 39.354481 44.225281 47.496239 51.96312 55.756802 59.55048 64.017357 70.923599 75.794403 80.688957 83.959923 86.003281 90.897842 97.819923 100.67904 105.5736 107.61696 113.46192 117.26352 121.70664 123.75 127.5516 132.44617 134.48952 138.90887 141.76801 143.81136 148.60297 153.49751"
           y="0"
           sodipodi:role="line"
           id="tspan46">willbesuppressedduringthiscalculation.</tspan></text>
    </g>
    <g
       id="g50">
      <g
         id="g52"
         clip-path="url(#clipPath56)">
        <path
           d="m 354.367,2.266 c -2.238,0 -4.058,1.816 -4.058,4.054 0,2.235 1.82,4.055 4.058,4.055 2.235,0 4.055,-1.82 4.055,-4.055 0,-2.238 -1.82,-4.054 -4.055,-4.054 z"
           style="fill:#8eccf9;fill-opacity:1;fill-rule:evenodd;stroke:none"
           id="path58" />
        <path
           d="m 355.246,4.648 c -0.094,0.094 -0.207,0.141 -0.34,0.141 -0.136,0 -0.25,-0.047 -0.344,-0.141 -0.097,-0.097 -0.144,-0.21 -0.144,-0.343 0,-0.133 0.047,-0.246 0.144,-0.34 0.094,-0.094 0.208,-0.141 0.344,-0.141 0.133,0 0.246,0.047 0.34,0.141 0.094,0.094 0.137,0.207 0.137,0.34 0,0.133 -0.043,0.246 -0.137,0.343 z m -0.57,3.872 c -0.203,0.199 -0.422,0.296 -0.653,0.296 -0.132,0 -0.25,-0.039 -0.355,-0.121 -0.106,-0.082 -0.156,-0.203 -0.156,-0.371 0,-0.058 0.015,-0.152 0.043,-0.277 0.015,-0.074 0.039,-0.168 0.074,-0.289 l 0.441,-1.613 c 0.004,-0.02 0.008,-0.04 0.012,-0.055 0.004,-0.02 0.008,-0.039 0.008,-0.055 0,-0.094 -0.031,-0.156 -0.094,-0.18 -0.058,-0.023 -0.172,-0.039 -0.332,-0.043 V 5.621 c 0.133,-0.008 0.328,-0.027 0.586,-0.059 0.258,-0.027 0.438,-0.054 0.547,-0.074 l 0.305,-0.058 -0.555,2.047 c -0.051,0.175 -0.082,0.296 -0.098,0.363 -0.043,0.172 -0.062,0.285 -0.062,0.336 0,0.054 0.011,0.086 0.035,0.101 0.023,0.016 0.051,0.024 0.078,0.024 0.07,0 0.16,-0.063 0.27,-0.188 0.109,-0.121 0.203,-0.254 0.285,-0.39 l 0.16,0.101 c -0.235,0.348 -0.414,0.578 -0.539,0.696 z"
           style="fill:#ffffff;fill-opacity:1;fill-rule:evenodd;stroke:none"
           id="path60" />
      </g>
    </g>
  </g>
</svg>
