<?xml version="1.0" encoding="UTF-8"?>
<svg xmlns="http://www.w3.org/2000/svg" xmlns:xlink="http://www.w3.org/1999/xlink" width="270pt" height="191pt" viewBox="0 0 270 191" version="1.1">
<g id="surface46">
<path style="fill:none;stroke-width:1.5;stroke-linecap:butt;stroke-linejoin:miter;stroke:rgb(0%,0%,0%);stroke-opacity:0.7;stroke-miterlimit:3.25;" d="M 309.273438 98.847656 L 244.582031 98.847656 " transform="matrix(1,0,0,1,-49.5,-3.75)"/>
<path style="fill:none;stroke-width:1.5;stroke-linecap:square;stroke-linejoin:miter;stroke:rgb(0%,0%,0%);stroke-opacity:0.7;stroke-miterlimit:3.25;" d="M 244.582031 98.847656 Z M 244.582031 98.847656 " transform="matrix(1,0,0,1,-49.5,-3.75)"/>
<path style="fill:none;stroke-width:1.5;stroke-linecap:butt;stroke-linejoin:miter;stroke:rgb(0%,0%,0%);stroke-opacity:0.7;stroke-dasharray:3,3;stroke-miterlimit:3.25;" d="M 239.929688 97.960938 L 181.113281 74.628906 " transform="matrix(1,0,0,1,-49.5,-3.75)"/>
<path style="fill:none;stroke-width:1.5;stroke-linecap:butt;stroke-linejoin:miter;stroke:rgb(0%,0%,0%);stroke-opacity:0.7;stroke-dasharray:3,3;stroke-miterlimit:3.25;" d="M 181.113281 74.628906 Z M 181.113281 74.628906 " transform="matrix(1,0,0,1,-49.5,-3.75)"/>
<path style="fill:none;stroke-width:1.5;stroke-linecap:butt;stroke-linejoin:miter;stroke:rgb(0%,0%,0%);stroke-opacity:0.7;stroke-dasharray:3,3;stroke-miterlimit:3.25;" d="M 239.929688 99.738281 L 181.15625 123.089844 " transform="matrix(1,0,0,1,-49.5,-3.75)"/>
<path style="fill:none;stroke-width:1.5;stroke-linecap:butt;stroke-linejoin:miter;stroke:rgb(0%,0%,0%);stroke-opacity:0.7;stroke-dasharray:3,3;stroke-miterlimit:3.25;" d="M 181.15625 123.089844 Z M 181.15625 123.089844 " transform="matrix(1,0,0,1,-49.5,-3.75)"/>
<path style="fill:none;stroke-width:1.5;stroke-linecap:butt;stroke-linejoin:miter;stroke:rgb(0%,0%,0%);stroke-opacity:0.7;stroke-miterlimit:3.25;" d="M 58.945312 13.121094 L 103.246094 61.257812 " transform="matrix(1,0,0,1,-49.5,-3.75)"/>
<path style="fill:none;stroke-width:1.5;stroke-linecap:square;stroke-linejoin:miter;stroke:rgb(0%,0%,0%);stroke-opacity:0.7;stroke-miterlimit:3.25;" d="M 103.246094 61.257812 Z M 103.246094 61.257812 " transform="matrix(1,0,0,1,-49.5,-3.75)"/>
<path style="fill:none;stroke-width:1.5;stroke-linecap:butt;stroke-linejoin:miter;stroke:rgb(0%,0%,0%);stroke-opacity:0.7;stroke-dasharray:3,3;stroke-miterlimit:3.25;" d="M 104.878906 65.445312 L 104.949219 132.324219 " transform="matrix(1,0,0,1,-49.5,-3.75)"/>
<path style="fill:none;stroke-width:1.5;stroke-linecap:butt;stroke-linejoin:miter;stroke:rgb(0%,0%,0%);stroke-opacity:0.7;stroke-dasharray:3,3;stroke-miterlimit:3.25;" d="M 104.949219 132.324219 Z M 104.949219 132.324219 " transform="matrix(1,0,0,1,-49.5,-3.75)"/>
<path style="fill:none;stroke-width:1.5;stroke-linecap:butt;stroke-linejoin:miter;stroke:rgb(0%,0%,0%);stroke-opacity:0.7;stroke-dasharray:3,3;stroke-miterlimit:3.25;" d="M 107.265625 63.375 L 176.484375 73.390625 " transform="matrix(1,0,0,1,-49.5,-3.75)"/>
<path style="fill:none;stroke-width:1.5;stroke-linecap:butt;stroke-linejoin:miter;stroke:rgb(0%,0%,0%);stroke-opacity:0.7;stroke-dasharray:3,3;stroke-miterlimit:3.25;" d="M 176.484375 73.390625 Z M 176.484375 73.390625 " transform="matrix(1,0,0,1,-49.5,-3.75)"/>
<path style="fill:none;stroke-width:1.5;stroke-linecap:butt;stroke-linejoin:miter;stroke:rgb(0%,0%,0%);stroke-opacity:0.7;stroke-miterlimit:3.25;" d="M 59.027344 184.652344 L 103.316406 136.511719 " transform="matrix(1,0,0,1,-49.5,-3.75)"/>
<path style="fill:none;stroke-width:1.5;stroke-linecap:square;stroke-linejoin:miter;stroke:rgb(0%,0%,0%);stroke-opacity:0.7;stroke-miterlimit:3.25;" d="M 103.316406 136.511719 Z M 103.316406 136.511719 " transform="matrix(1,0,0,1,-49.5,-3.75)"/>
<path style="fill:none;stroke-width:1.5;stroke-linecap:butt;stroke-linejoin:miter;stroke:rgb(0%,0%,0%);stroke-opacity:0.7;stroke-dasharray:3,3;stroke-miterlimit:3.25;" d="M 107.335938 134.390625 L 176.523438 124.328125 " transform="matrix(1,0,0,1,-49.5,-3.75)"/>
<path style="fill:none;stroke-width:1.5;stroke-linecap:butt;stroke-linejoin:miter;stroke:rgb(0%,0%,0%);stroke-opacity:0.7;stroke-dasharray:3,3;stroke-miterlimit:3.25;" d="M 176.523438 124.328125 Z M 176.523438 124.328125 " transform="matrix(1,0,0,1,-49.5,-3.75)"/>
<path style="fill:none;stroke-width:1.5;stroke-linecap:butt;stroke-linejoin:miter;stroke:rgb(0%,0%,0%);stroke-opacity:0.7;stroke-dasharray:3,3;stroke-miterlimit:3.25;" d="M 178.871094 76.148438 L 178.910156 121.570312 " transform="matrix(1,0,0,1,-49.5,-3.75)"/>
<path style="fill:none;stroke-width:1.5;stroke-linecap:butt;stroke-linejoin:miter;stroke:rgb(0%,0%,0%);stroke-opacity:0.7;stroke-dasharray:3,3;stroke-miterlimit:3.25;" d="M 178.910156 121.570312 Z M 178.910156 121.570312 " transform="matrix(1,0,0,1,-49.5,-3.75)"/>
<path style="fill-rule:evenodd;fill:rgb(63.998413%,70.399475%,79.998779%);fill-opacity:1;stroke-width:0.75;stroke-linecap:square;stroke-linejoin:miter;stroke:rgb(0%,0%,0%);stroke-opacity:0.7;stroke-miterlimit:3.25;" d="M 314.101562 98.847656 C 314.101562 98.207031 313.847656 97.59375 313.394531 97.140625 C 312.941406 96.6875 312.328125 96.433594 311.6875 96.433594 C 311.046875 96.433594 310.433594 96.6875 309.980469 97.140625 C 309.527344 97.59375 309.273438 98.207031 309.273438 98.847656 C 309.273438 99.488281 309.527344 100.101562 309.980469 100.554688 C 310.433594 101.003906 311.046875 101.257812 311.6875 101.257812 C 312.328125 101.257812 312.941406 101.003906 313.394531 100.554688 C 313.847656 100.101562 314.101562 99.488281 314.101562 98.847656 Z M 314.101562 98.847656 " transform="matrix(1,0,0,1,-49.5,-3.75)"/>
<path style="fill-rule:evenodd;fill:rgb(63.998413%,70.399475%,79.998779%);fill-opacity:1;stroke-width:0.75;stroke-linecap:square;stroke-linejoin:miter;stroke:rgb(0%,0%,0%);stroke-opacity:0.7;stroke-miterlimit:3.25;" d="M 244.582031 98.847656 C 244.582031 98.210938 244.328125 97.59375 243.875 97.144531 C 243.421875 96.691406 242.808594 96.4375 242.171875 96.4375 C 241.53125 96.4375 240.917969 96.691406 240.464844 97.144531 C 240.011719 97.59375 239.757812 98.210938 239.757812 98.847656 C 239.757812 99.488281 240.011719 100.101562 240.464844 100.554688 C 240.917969 101.007812 241.53125 101.261719 242.171875 101.261719 C 242.808594 101.261719 243.421875 101.007812 243.875 100.554688 C 244.328125 100.101562 244.582031 99.488281 244.582031 98.847656 Z M 244.582031 98.847656 " transform="matrix(1,0,0,1,-49.5,-3.75)"/>
<path style="fill-rule:evenodd;fill:rgb(63.998413%,70.399475%,79.998779%);fill-opacity:1;stroke-width:0.75;stroke-linecap:square;stroke-linejoin:miter;stroke:rgb(0%,0%,0%);stroke-opacity:0.7;stroke-miterlimit:3.25;" d="M 59.726562 11.347656 C 59.726562 10.707031 59.472656 10.09375 59.019531 9.640625 C 58.566406 9.1875 57.953125 8.933594 57.3125 8.933594 C 56.671875 8.933594 56.058594 9.1875 55.605469 9.640625 C 55.152344 10.09375 54.898438 10.707031 54.898438 11.347656 C 54.898438 11.988281 55.152344 12.601562 55.605469 13.050781 C 56.058594 13.503906 56.671875 13.757812 57.3125 13.757812 C 57.953125 13.757812 58.566406 13.503906 59.019531 13.050781 C 59.472656 12.601562 59.726562 11.988281 59.726562 11.347656 Z M 59.726562 11.347656 " transform="matrix(1,0,0,1,-49.5,-3.75)"/>
<path style="fill-rule:evenodd;fill:rgb(63.998413%,70.399475%,79.998779%);fill-opacity:1;stroke-width:0.75;stroke-linecap:square;stroke-linejoin:miter;stroke:rgb(0%,0%,0%);stroke-opacity:0.7;stroke-miterlimit:3.25;" d="M 107.289062 63.03125 C 107.289062 62.390625 107.035156 61.777344 106.582031 61.324219 C 106.132812 60.871094 105.519531 60.617188 104.878906 60.617188 C 104.238281 60.617188 103.625 60.871094 103.171875 61.324219 C 102.71875 61.777344 102.464844 62.390625 102.464844 63.03125 C 102.464844 63.671875 102.71875 64.285156 103.171875 64.738281 C 103.625 65.191406 104.238281 65.445312 104.878906 65.445312 C 105.519531 65.445312 106.132812 65.191406 106.582031 64.738281 C 107.035156 64.285156 107.289062 63.671875 107.289062 63.03125 Z M 107.289062 63.03125 " transform="matrix(1,0,0,1,-49.5,-3.75)"/>
<path style="fill-rule:evenodd;fill:rgb(63.998413%,70.399475%,79.998779%);fill-opacity:1;stroke-width:0.75;stroke-linecap:square;stroke-linejoin:miter;stroke:rgb(0%,0%,0%);stroke-opacity:0.7;stroke-miterlimit:3.25;" d="M 59.804688 186.425781 C 59.804688 185.789062 59.550781 185.171875 59.097656 184.722656 C 58.648438 184.269531 58.03125 184.015625 57.394531 184.015625 C 56.753906 184.015625 56.140625 184.269531 55.6875 184.722656 C 55.234375 185.171875 54.980469 185.789062 54.980469 186.425781 C 54.980469 187.066406 55.234375 187.679688 55.6875 188.132812 C 56.140625 188.585938 56.753906 188.839844 57.394531 188.839844 C 58.03125 188.839844 58.648438 188.585938 59.097656 188.132812 C 59.550781 187.679688 59.804688 187.066406 59.804688 186.425781 Z M 59.804688 186.425781 " transform="matrix(1,0,0,1,-49.5,-3.75)"/>
<path style="fill-rule:evenodd;fill:rgb(63.998413%,70.399475%,79.998779%);fill-opacity:1;stroke-width:0.75;stroke-linecap:square;stroke-linejoin:miter;stroke:rgb(0%,0%,0%);stroke-opacity:0.7;stroke-miterlimit:3.25;" d="M 107.363281 134.738281 C 107.363281 134.097656 107.109375 133.484375 106.65625 133.03125 C 106.203125 132.578125 105.589844 132.324219 104.949219 132.324219 C 104.308594 132.324219 103.695312 132.578125 103.246094 133.03125 C 102.792969 133.484375 102.539062 134.097656 102.539062 134.738281 C 102.539062 135.378906 102.792969 135.992188 103.246094 136.445312 C 103.695312 136.894531 104.308594 137.152344 104.949219 137.152344 C 105.589844 137.152344 106.203125 136.894531 106.65625 136.445312 C 107.109375 135.992188 107.363281 135.378906 107.363281 134.738281 Z M 107.363281 134.738281 " transform="matrix(1,0,0,1,-49.5,-3.75)"/>
<path style="fill-rule:evenodd;fill:rgb(63.998413%,70.399475%,79.998779%);fill-opacity:1;stroke-width:0.75;stroke-linecap:square;stroke-linejoin:miter;stroke:rgb(0%,0%,0%);stroke-opacity:0.7;stroke-miterlimit:3.25;" d="M 181.285156 73.738281 C 181.285156 73.097656 181.027344 72.484375 180.578125 72.03125 C 180.125 71.578125 179.511719 71.324219 178.871094 71.324219 C 178.230469 71.324219 177.617188 71.578125 177.164062 72.03125 C 176.710938 72.484375 176.457031 73.097656 176.457031 73.738281 C 176.457031 74.378906 176.710938 74.992188 177.164062 75.445312 C 177.617188 75.894531 178.230469 76.148438 178.871094 76.148438 C 179.511719 76.148438 180.125 75.894531 180.578125 75.445312 C 181.027344 74.992188 181.285156 74.378906 181.285156 73.738281 Z M 181.285156 73.738281 " transform="matrix(1,0,0,1,-49.5,-3.75)"/>
<path style="fill-rule:evenodd;fill:rgb(63.998413%,70.399475%,79.998779%);fill-opacity:1;stroke-width:0.75;stroke-linecap:square;stroke-linejoin:miter;stroke:rgb(0%,0%,0%);stroke-opacity:0.7;stroke-miterlimit:3.25;" d="M 181.324219 123.980469 C 181.324219 123.339844 181.070312 122.726562 180.617188 122.277344 C 180.164062 121.824219 179.550781 121.570312 178.914062 121.570312 C 178.273438 121.570312 177.660156 121.824219 177.207031 122.277344 C 176.753906 122.726562 176.5 123.339844 176.5 123.980469 C 176.5 124.621094 176.753906 125.234375 177.207031 125.6875 C 177.660156 126.140625 178.273438 126.394531 178.914062 126.394531 C 179.550781 126.394531 180.164062 126.140625 180.617188 125.6875 C 181.070312 125.234375 181.324219 124.621094 181.324219 123.980469 Z M 181.324219 123.980469 " transform="matrix(1,0,0,1,-49.5,-3.75)"/>
</g>
</svg>
