<?xml version="1.0" encoding="UTF-8" standalone="no"?>
<!-- Created with Inkscape (http://www.inkscape.org/) -->

<svg
   version="1.1"
   id="svg2"
   width="346.66666"
   height="345.33334"
   viewBox="0 0 346.66666 345.33334"
   sodipodi:docname="0uj086yxpjbhz.pdf"
   xmlns:inkscape="http://www.inkscape.org/namespaces/inkscape"
   xmlns:sodipodi="http://sodipodi.sourceforge.net/DTD/sodipodi-0.dtd"
   xmlns="http://www.w3.org/2000/svg"
   xmlns:svg="http://www.w3.org/2000/svg">
  <defs
     id="defs6">
    <clipPath
       clipPathUnits="userSpaceOnUse"
       id="clipPath66">
      <path
         d="m 0,258 h 259.199 v 0.719 H 0 Z"
         id="path64" />
    </clipPath>
    <clipPath
       clipPathUnits="userSpaceOnUse"
       id="clipPath76">
      <path
         d="M 0,0 H 1 V 258.719 H 0 Z"
         id="path74" />
    </clipPath>
    <clipPath
       clipPathUnits="userSpaceOnUse"
       id="clipPath86">
      <path
         d="M 0,0 H 259.199 V 1 H 0 Z"
         id="path84" />
    </clipPath>
    <clipPath
       clipPathUnits="userSpaceOnUse"
       id="clipPath96">
      <path
         d="m 258,0 h 1.199 V 258.719 H 258 Z"
         id="path94" />
    </clipPath>
  </defs>
  <sodipodi:namedview
     id="namedview4"
     pagecolor="#ffffff"
     bordercolor="#999999"
     borderopacity="1"
     inkscape:showpageshadow="0"
     inkscape:pageopacity="0"
     inkscape:pagecheckerboard="0"
     inkscape:deskcolor="#d1d1d1" />
  <g
     id="g8"
     inkscape:groupmode="layer"
     inkscape:label="0uj086yxpjbhz"
     transform="matrix(1.3333333,0,0,1.3333333,0,5.3e-6)">
    <g
       id="g10">
      <path
         d="M 9.82,12.395 75.742,76.828"
         style="fill:none;stroke:#000000;stroke-width:1.44;stroke-linecap:butt;stroke-linejoin:miter;stroke-miterlimit:3.25;stroke-dasharray:none;stroke-opacity:0.7"
         id="path12" />
      <path
         d="m 80.207,78.617 97.375,-1.035"
         style="fill:none;stroke:#800080;stroke-width:1.44;stroke-linecap:butt;stroke-linejoin:miter;stroke-miterlimit:3.25;stroke-dasharray:none;stroke-opacity:0.7"
         id="path14" />
      <path
         d="m 77.641,81.25 1.3,97.309"
         style="fill:none;stroke:#ff0000;stroke-width:1.44;stroke-linecap:butt;stroke-linejoin:miter;stroke-miterlimit:3.25;stroke-dasharray:none;stroke-opacity:0.7"
         id="path16" />
      <path
         d="M 246.305,9.617 182,75.688"
         style="fill:none;stroke:#000000;stroke-width:1.44;stroke-linecap:butt;stroke-linejoin:miter;stroke-miterlimit:3.25;stroke-dasharray:none;stroke-opacity:0.7"
         id="path18" />
      <path
         d="M 180.219,80.156 181.5,177.5"
         style="fill:none;stroke:#00ff00;stroke-width:1.44;stroke-linecap:butt;stroke-linejoin:miter;stroke-miterlimit:3.25;stroke-dasharray:none;stroke-opacity:0.7"
         id="path20" />
      <path
         d="M 249.379,246.336 183.398,181.922"
         style="fill:none;stroke:#000000;stroke-width:1.44;stroke-linecap:butt;stroke-linejoin:miter;stroke-miterlimit:3.25;stroke-dasharray:none;stroke-opacity:0.7"
         id="path22" />
      <path
         d="m 178.934,180.129 -97.356,1.008"
         style="fill:none;stroke:#0000ff;stroke-width:1.44;stroke-linecap:butt;stroke-linejoin:miter;stroke-miterlimit:3.25;stroke-dasharray:none;stroke-opacity:0.7"
         id="path24" />
      <path
         d="m 12.652,249.043 64.504,-66.02"
         style="fill:none;stroke:#996633;stroke-width:1.44;stroke-linecap:butt;stroke-linejoin:miter;stroke-miterlimit:3.25;stroke-dasharray:2.88, 2.88;stroke-dashoffset:0;stroke-opacity:0.7"
         id="path26" />
      <path
         d="M 10.562,10.574 C 10.562,9.883 10.289,9.223 9.801,8.734 9.312,8.246 8.648,7.969 7.961,7.969 c -0.691,0 -1.356,0.277 -1.84,0.765 -0.488,0.489 -0.766,1.149 -0.766,1.84 0,0.688 0.278,1.352 0.766,1.84 0.484,0.488 1.149,0.762 1.84,0.762 0.687,0 1.351,-0.274 1.84,-0.762 0.488,-0.488 0.761,-1.152 0.761,-1.84 z"
         style="fill:#a3b4cc;fill-opacity:1;fill-rule:evenodd;stroke:none"
         id="path28" />
      <path
         d="M 10.562,10.574 C 10.562,9.883 10.289,9.223 9.801,8.734 9.312,8.246 8.648,7.969 7.961,7.969 c -0.691,0 -1.356,0.277 -1.84,0.765 -0.488,0.489 -0.766,1.149 -0.766,1.84 0,0.688 0.278,1.352 0.766,1.84 0.484,0.488 1.149,0.762 1.84,0.762 0.687,0 1.351,-0.274 1.84,-0.762 0.488,-0.488 0.761,-1.152 0.761,-1.84 z"
         style="fill:none;stroke:#000000;stroke-width:0.36;stroke-linecap:square;stroke-linejoin:miter;stroke-miterlimit:3.25;stroke-dasharray:none;stroke-opacity:0.7"
         id="path30" />
      <path
         d="m 80.207,78.645 c 0,-0.688 -0.273,-1.352 -0.762,-1.84 -0.488,-0.489 -1.152,-0.762 -1.84,-0.762 -0.691,0 -1.355,0.273 -1.843,0.762 -0.489,0.488 -0.762,1.152 -0.762,1.84 0,0.691 0.273,1.355 0.762,1.843 0.488,0.489 1.152,0.762 1.843,0.762 0.688,0 1.352,-0.273 1.84,-0.762 0.489,-0.488 0.762,-1.152 0.762,-1.843 z"
         style="fill:#a3b4cc;fill-opacity:1;fill-rule:evenodd;stroke:none"
         id="path32" />
      <path
         d="m 80.207,78.645 c 0,-0.688 -0.273,-1.352 -0.762,-1.84 -0.488,-0.489 -1.152,-0.762 -1.84,-0.762 -0.691,0 -1.355,0.273 -1.843,0.762 -0.489,0.488 -0.762,1.152 -0.762,1.84 0,0.691 0.273,1.355 0.762,1.843 0.488,0.489 1.152,0.762 1.843,0.762 0.688,0 1.352,-0.273 1.84,-0.762 0.489,-0.488 0.762,-1.152 0.762,-1.843 z"
         style="fill:none;stroke:#000000;stroke-width:0.36;stroke-linecap:square;stroke-linejoin:miter;stroke-miterlimit:3.25;stroke-dasharray:none;stroke-opacity:0.7"
         id="path34" />
      <path
         d="m 250.723,7.754 c 0,-0.692 -0.274,-1.356 -0.762,-1.84 -0.488,-0.488 -1.152,-0.766 -1.84,-0.766 -0.691,0 -1.355,0.278 -1.844,0.766 -0.488,0.484 -0.761,1.148 -0.761,1.84 0,0.687 0.273,1.351 0.761,1.84 0.489,0.488 1.153,0.761 1.844,0.761 0.688,0 1.352,-0.273 1.84,-0.761 0.488,-0.489 0.762,-1.153 0.762,-1.84 z"
         style="fill:#a3b4cc;fill-opacity:1;fill-rule:evenodd;stroke:none"
         id="path36" />
      <path
         d="m 250.723,7.754 c 0,-0.692 -0.274,-1.356 -0.762,-1.84 -0.488,-0.488 -1.152,-0.766 -1.84,-0.766 -0.691,0 -1.355,0.278 -1.844,0.766 -0.488,0.484 -0.761,1.148 -0.761,1.84 0,0.687 0.273,1.351 0.761,1.84 0.489,0.488 1.153,0.761 1.844,0.761 0.688,0 1.352,-0.273 1.84,-0.761 0.488,-0.489 0.762,-1.153 0.762,-1.84 z"
         style="fill:none;stroke:#000000;stroke-width:0.36;stroke-linecap:square;stroke-linejoin:miter;stroke-miterlimit:3.25;stroke-dasharray:none;stroke-opacity:0.7"
         id="path38" />
      <path
         d="m 182.789,77.555 c 0,-0.692 -0.273,-1.352 -0.762,-1.84 -0.488,-0.488 -1.152,-0.766 -1.839,-0.766 -0.692,0 -1.356,0.278 -1.844,0.766 -0.489,0.488 -0.762,1.148 -0.762,1.84 0,0.691 0.273,1.351 0.762,1.84 0.488,0.488 1.152,0.761 1.844,0.761 0.687,0 1.351,-0.273 1.839,-0.761 0.489,-0.489 0.762,-1.149 0.762,-1.84 z"
         style="fill:#a3b4cc;fill-opacity:1;fill-rule:evenodd;stroke:none"
         id="path40" />
      <path
         d="m 182.789,77.555 c 0,-0.692 -0.273,-1.352 -0.762,-1.84 -0.488,-0.488 -1.152,-0.766 -1.839,-0.766 -0.692,0 -1.356,0.278 -1.844,0.766 -0.489,0.488 -0.762,1.148 -0.762,1.84 0,0.691 0.273,1.351 0.762,1.84 0.488,0.488 1.152,0.761 1.844,0.761 0.687,0 1.351,-0.273 1.839,-0.761 0.489,-0.489 0.762,-1.149 0.762,-1.84 z"
         style="fill:none;stroke:#000000;stroke-width:0.36;stroke-linecap:square;stroke-linejoin:miter;stroke-miterlimit:3.25;stroke-dasharray:none;stroke-opacity:0.7"
         id="path42" />
      <path
         d="m 253.844,248.156 c 0,-0.691 -0.274,-1.355 -0.762,-1.844 -0.488,-0.484 -1.152,-0.761 -1.844,-0.761 -0.687,0 -1.351,0.277 -1.84,0.761 -0.488,0.489 -0.761,1.153 -0.761,1.844 0,0.688 0.273,1.352 0.761,1.84 0.489,0.488 1.153,0.762 1.84,0.762 0.692,0 1.356,-0.274 1.844,-0.762 0.488,-0.488 0.762,-1.152 0.762,-1.84 z"
         style="fill:#a3b4cc;fill-opacity:1;fill-rule:evenodd;stroke:none"
         id="path44" />
      <path
         d="m 253.844,248.156 c 0,-0.691 -0.274,-1.355 -0.762,-1.844 -0.488,-0.484 -1.152,-0.761 -1.844,-0.761 -0.687,0 -1.351,0.277 -1.84,0.761 -0.488,0.489 -0.761,1.153 -0.761,1.844 0,0.688 0.273,1.352 0.761,1.84 0.489,0.488 1.153,0.762 1.84,0.762 0.692,0 1.356,-0.274 1.844,-0.762 0.488,-0.488 0.762,-1.152 0.762,-1.84 z"
         style="fill:none;stroke:#000000;stroke-width:0.36;stroke-linecap:square;stroke-linejoin:miter;stroke-miterlimit:3.25;stroke-dasharray:none;stroke-opacity:0.7"
         id="path46" />
      <path
         d="m 184.137,180.102 c 0,-0.692 -0.274,-1.352 -0.762,-1.84 -0.488,-0.489 -1.148,-0.762 -1.84,-0.762 -0.691,0 -1.351,0.273 -1.84,0.762 -0.488,0.488 -0.761,1.148 -0.761,1.84 0,0.691 0.273,1.351 0.761,1.839 0.489,0.489 1.149,0.762 1.84,0.762 0.692,0 1.352,-0.273 1.84,-0.762 0.488,-0.488 0.762,-1.148 0.762,-1.839 z"
         style="fill:#a3b4cc;fill-opacity:1;fill-rule:evenodd;stroke:none"
         id="path48" />
      <path
         d="m 184.137,180.102 c 0,-0.692 -0.274,-1.352 -0.762,-1.84 -0.488,-0.489 -1.148,-0.762 -1.84,-0.762 -0.691,0 -1.351,0.273 -1.84,0.762 -0.488,0.488 -0.761,1.148 -0.761,1.84 0,0.691 0.273,1.351 0.761,1.839 0.489,0.489 1.149,0.762 1.84,0.762 0.692,0 1.352,-0.273 1.84,-0.762 0.488,-0.488 0.762,-1.148 0.762,-1.839 z"
         style="fill:none;stroke:#000000;stroke-width:0.36;stroke-linecap:square;stroke-linejoin:miter;stroke-miterlimit:3.25;stroke-dasharray:none;stroke-opacity:0.7"
         id="path50" />
      <path
         d="m 13.438,250.906 c 0,-0.691 -0.274,-1.355 -0.762,-1.844 -0.488,-0.488 -1.153,-0.761 -1.84,-0.761 -0.691,0 -1.356,0.273 -1.844,0.761 -0.488,0.489 -0.762,1.153 -0.762,1.844 0,0.688 0.274,1.352 0.762,1.84 0.488,0.488 1.153,0.762 1.844,0.762 0.687,0 1.352,-0.274 1.84,-0.762 0.488,-0.488 0.762,-1.152 0.762,-1.84 z"
         style="fill:#a3b4cc;fill-opacity:1;fill-rule:evenodd;stroke:none"
         id="path52" />
      <path
         d="m 13.438,250.906 c 0,-0.691 -0.274,-1.355 -0.762,-1.844 -0.488,-0.488 -1.153,-0.761 -1.84,-0.761 -0.691,0 -1.356,0.273 -1.844,0.761 -0.488,0.489 -0.762,1.153 -0.762,1.844 0,0.688 0.274,1.352 0.762,1.84 0.488,0.488 1.153,0.762 1.844,0.762 0.687,0 1.352,-0.274 1.84,-0.762 0.488,-0.488 0.762,-1.152 0.762,-1.84 z"
         style="fill:none;stroke:#000000;stroke-width:0.36;stroke-linecap:square;stroke-linejoin:miter;stroke-miterlimit:3.25;stroke-dasharray:none;stroke-opacity:0.7"
         id="path54" />
      <path
         d="m 81.578,181.16 c 0,-0.687 -0.273,-1.351 -0.762,-1.84 -0.488,-0.488 -1.148,-0.761 -1.839,-0.761 -0.692,0 -1.352,0.273 -1.84,0.761 -0.489,0.489 -0.762,1.153 -0.762,1.84 0,0.692 0.273,1.356 0.762,1.844 0.488,0.488 1.148,0.762 1.84,0.762 0.691,0 1.351,-0.274 1.839,-0.762 0.489,-0.488 0.762,-1.152 0.762,-1.844 z"
         style="fill:#a3b4cc;fill-opacity:1;fill-rule:evenodd;stroke:none"
         id="path56" />
      <path
         d="m 81.578,181.16 c 0,-0.687 -0.273,-1.351 -0.762,-1.84 -0.488,-0.488 -1.148,-0.761 -1.839,-0.761 -0.692,0 -1.352,0.273 -1.84,0.761 -0.489,0.489 -0.762,1.153 -0.762,1.84 0,0.692 0.273,1.356 0.762,1.844 0.488,0.488 1.148,0.762 1.84,0.762 0.691,0 1.351,-0.274 1.839,-0.762 0.489,-0.488 0.762,-1.152 0.762,-1.844 z"
         style="fill:none;stroke:#000000;stroke-width:0.36;stroke-linecap:square;stroke-linejoin:miter;stroke-miterlimit:3.25;stroke-dasharray:none;stroke-opacity:0.7"
         id="path58" />
    </g>
    <g
       id="g60">
      <g
         id="g62"
         clip-path="url(#clipPath66)">
        <path
           d="M 259.02,258.477 H 0.18"
           style="fill:none;stroke:#000000;stroke-width:0.144;stroke-linecap:square;stroke-linejoin:miter;stroke-miterlimit:3.25;stroke-dasharray:none;stroke-opacity:1"
           id="path68" />
      </g>
    </g>
    <g
       id="g70">
      <g
         id="g72"
         clip-path="url(#clipPath76)">
        <path
           d="M 0.18,258.477 V 0.18"
           style="fill:none;stroke:#000000;stroke-width:0.144;stroke-linecap:square;stroke-linejoin:miter;stroke-miterlimit:3.25;stroke-dasharray:none;stroke-opacity:1"
           id="path78" />
      </g>
    </g>
    <g
       id="g80">
      <g
         id="g82"
         clip-path="url(#clipPath86)">
        <path
           d="M 0.18,0.18 H 259.02"
           style="fill:none;stroke:#000000;stroke-width:0.144;stroke-linecap:square;stroke-linejoin:miter;stroke-miterlimit:3.25;stroke-dasharray:none;stroke-opacity:1"
           id="path88" />
      </g>
    </g>
    <g
       id="g90">
      <g
         id="g92"
         clip-path="url(#clipPath96)">
        <path
           d="M 259.02,0.18 V 258.477"
           style="fill:none;stroke:#000000;stroke-width:0.144;stroke-linecap:square;stroke-linejoin:miter;stroke-miterlimit:3.25;stroke-dasharray:none;stroke-opacity:1"
           id="path98" />
      </g>
    </g>
  </g>
</svg>
