<?xml version="1.0" encoding="UTF-8" standalone="no"?>
<!-- Created with Inkscape (http://www.inkscape.org/) -->

<svg
   version="1.1"
   id="svg2"
   xml:space="preserve"
   width="612"
   height="30.666668"
   viewBox="0 0 612 30.666668"
   sodipodi:docname="0vfxwqdmhs15m.pdf"
   xmlns:inkscape="http://www.inkscape.org/namespaces/inkscape"
   xmlns:sodipodi="http://sodipodi.sourceforge.net/DTD/sodipodi-0.dtd"
   xmlns="http://www.w3.org/2000/svg"
   xmlns:svg="http://www.w3.org/2000/svg"><defs
     id="defs6" /><sodipodi:namedview
     id="namedview4"
     pagecolor="#505050"
     bordercolor="#eeeeee"
     borderopacity="1"
     inkscape:pageshadow="0"
     inkscape:pageopacity="0"
     inkscape:pagecheckerboard="0" /><g
     id="g8"
     inkscape:groupmode="layer"
     inkscape:label="0vfxwqdmhs15m"
     transform="matrix(1.3333333,0,0,1.3333333,0,1.1e-6)"><g
       id="g10"><text
         transform="translate(1.509982,7.44)"
         style="font-variant:normal;font-size:7.92px;font-family:CairoFont-0;-inkscape-font-specification:CairoFont-0-0;writing-mode:lr-tb;fill:#dd1100;fill-opacity:1;fill-rule:nonzero;stroke:none"
         id="text14"><tspan
           x="0 4.7757602 9.6148796 11.80872 16.65576 19.910879 22.104719 26.254801 31.101839 34.206478 36.400318 41.239441 46.2528 51.25032 56.26368"
           y="0"
           sodipodi:role="line"
           id="tspan12">PolarizationSum</tspan></text><text
         transform="translate(66.279982,7.44)"
         style="font-variant:normal;font-size:7.92px;font-family:CairoFont-0;-inkscape-font-specification:CairoFont-0-0;writing-mode:lr-tb;fill:#000000;fill-opacity:1;fill-rule:nonzero;stroke:none"
         id="text18"><tspan
           x="0"
           y="0"
           id="tspan16">:</tspan></text><text
         transform="translate(72.456215,7.44)"
         style="font-variant:normal;font-size:7.92px;font-family:CairoFont-0;-inkscape-font-specification:CairoFont-0-0;writing-mode:lr-tb;fill:#898989;fill-opacity:1;fill-rule:nonzero;stroke:none"
         id="text22"><tspan
           x="0 7.8249602 12.672 15.92712 20.940479 23.134319 28.14768"
           y="0"
           sodipodi:role="line"
           id="tspan20">Warning</tspan></text><text
         transform="translate(105.62518,7.44)"
         style="font-variant:normal;font-size:7.92px;font-family:CairoFont-1;-inkscape-font-specification:CairoFont-1-0;writing-mode:lr-tb;fill:#898989;fill-opacity:1;fill-rule:nonzero;stroke:none"
         id="text26"><tspan
           x="0"
           y="0"
           id="tspan24">!</tspan></text><text
         transform="translate(110.32174,7.44)"
         style="font-variant:normal;font-size:7.92px;font-family:CairoFont-0;-inkscape-font-specification:CairoFont-0-0;writing-mode:lr-tb;fill:#898989;fill-opacity:1;fill-rule:nonzero;stroke:none"
         id="text32"><tspan
           x="0 4.8312001 9.6703196 17.194321 22.041361 25.29648 32.677921 34.871761 39.88512 44.003521 48.874321 52.12944 55.234081 57.427921 62.44128 69.965279 77.330879 82.352158 87.191277 89.385117 94.232162 97.487282 99.681122 103.8312 108.67824 111.78288 113.95296 118.79208 126.324 130.4424 135.45576 145.68048 148.46832 153.30743 159.0732 166.78728 171.63432 175.75272 179.87112 182.06496 186.93576 191.05415 197.67528 202.356 207.22681 211.57487 214.67952 219.51865 225.28439 230.30568 235.14481 239.2632 244.10233 249.11568 253.23409 258.25537 263.27664 268.29001 273.90527 277.00992 282.02328 289.40472 297.1188 301.95792 309.672 314.54279 319.55615 322.6608 327.67416 337.89096 342.73007"
           y="0"
           sodipodi:role="line"
           id="tspan28">Youareinsertingapolarizationsumformasslessvectorbosons,butthemomentumof</tspan><tspan
           x="-85.680481 -82.575844 -77.562485 -70.181046 -65.310242 -60.629524 -57.524883 -52.654083 -49.398964 -44.385605 -39.538563 -34.842003 -29.820724 -24.981604 -20.863205 -16.024084"
           y="11.8"
           sodipodi:role="line"
           id="tspan30">theexternalboson</tspan></text><text
         transform="translate(101.82165,19.24)"
         style="font-variant:normal;font-size:7.92px;font-family:CairoFont-2;-inkscape-font-specification:CairoFont-2-0;writing-mode:lr-tb;fill:#898989;fill-opacity:1;fill-rule:nonzero;stroke:none"
         id="text36"><tspan
           x="0"
           y="0"
           id="tspan34">p</tspan></text><text
         transform="translate(109.35357,19.24)"
         style="font-variant:normal;font-size:7.92px;font-family:CairoFont-0;-inkscape-font-specification:CairoFont-0-0;writing-mode:lr-tb;fill:#898989;fill-opacity:1;fill-rule:nonzero;stroke:none"
         id="text40"><tspan
           x="0 2.19384 8.8308001 13.84416 18.683281 24.298559 29.13768"
           y="0"
           sodipodi:role="line"
           id="tspan38">isnoton</tspan></text><text
         transform="translate(143.50461,19.24)"
         style="font-variant:normal;font-size:7.92px;font-family:CairoFont-1;-inkscape-font-specification:CairoFont-1-0;writing-mode:lr-tb;fill:#898989;fill-opacity:1;fill-rule:nonzero;stroke:none"
         id="text44"><tspan
           x="0"
           y="0"
           id="tspan42">-</tspan></text><text
         transform="translate(148.12197,19.24)"
         style="font-variant:normal;font-size:7.92px;font-family:CairoFont-0;-inkscape-font-specification:CairoFont-0-0;writing-mode:lr-tb;fill:#898989;fill-opacity:1;fill-rule:nonzero;stroke:none"
         id="text48"><tspan
           x="0 4.1184001 9.1317596 14.00256 16.1964 18.39024 23.403601 28.179359 30.373199 35.243999 40.091042 44.209438 51.582958 56.60424 61.617599 67.23288 69.42672 75.042 79.881119"
           y="0"
           sodipodi:role="line"
           id="tspan46">shell.Pleaseputiton</tspan></text><text
         transform="translate(233.01645,19.24)"
         style="font-variant:normal;font-size:7.92px;font-family:CairoFont-1;-inkscape-font-specification:CairoFont-1-0;writing-mode:lr-tb;fill:#898989;fill-opacity:1;fill-rule:nonzero;stroke:none"
         id="text52"><tspan
           x="0"
           y="0"
           id="tspan50">-</tspan></text><text
         transform="translate(237.63381,19.24)"
         style="font-variant:normal;font-size:7.92px;font-family:CairoFont-0;-inkscape-font-specification:CairoFont-0-0;writing-mode:lr-tb;fill:#898989;fill-opacity:1;fill-rule:nonzero;stroke:none"
         id="text56"><tspan
           x="0 4.1184001 9.1317596 14.00256 16.1964 20.89296 25.573681 27.767521 35.125198 40.146481 44.49456 49.341599 51.535439 56.382481 59.6376 64.413361 67.66848 72.507599 77.528877 82.542236 86.89032"
           y="0"
           sodipodi:role="line"
           id="tspan54">shellviaScalarProduct</tspan></text><text
         transform="translate(327.62877,19.24)"
         style="font-variant:normal;font-size:7.92px;font-family:CairoFont-1;-inkscape-font-specification:CairoFont-1-0;writing-mode:lr-tb;fill:#898989;fill-opacity:1;fill-rule:nonzero;stroke:none"
         id="text60"><tspan
           x="0"
           y="0"
           id="tspan58">[</tspan></text><text
         transform="translate(329.79885,19.24)"
         style="font-variant:normal;font-size:7.92px;font-family:CairoFont-2;-inkscape-font-specification:CairoFont-2-0;writing-mode:lr-tb;fill:#898989;fill-opacity:1;fill-rule:nonzero;stroke:none"
         id="text64"><tspan
           x="0"
           y="0"
           id="tspan62">p</tspan></text><text
         transform="translate(334.82013,19.24)"
         style="font-variant:normal;font-size:7.92px;font-family:CairoFont-0;-inkscape-font-specification:CairoFont-0-0;writing-mode:lr-tb;fill:#898989;fill-opacity:1;fill-rule:nonzero;stroke:none"
         id="text68"><tspan
           x="0"
           y="0"
           id="tspan66">,</tspan></text><text
         transform="translate(337.33077,19.24)"
         style="font-variant:normal;font-size:7.92px;font-family:CairoFont-2;-inkscape-font-specification:CairoFont-2-0;writing-mode:lr-tb;fill:#898989;fill-opacity:1;fill-rule:nonzero;stroke:none"
         id="text72"><tspan
           x="0"
           y="0"
           id="tspan70">p</tspan></text><text
         transform="translate(342.35205,19.24)"
         style="font-variant:normal;font-size:7.92px;font-family:CairoFont-1;-inkscape-font-specification:CairoFont-1-0;writing-mode:lr-tb;fill:#898989;fill-opacity:1;fill-rule:nonzero;stroke:none"
         id="text76"><tspan
           x="0 2.19384"
           y="0"
           sodipodi:role="line"
           id="tspan74">]=</tspan></text><text
         transform="translate(349.16325,19.24)"
         style="font-variant:normal;font-size:7.92px;font-family:CairoFont-0;-inkscape-font-specification:CairoFont-0-0;writing-mode:lr-tb;fill:#898989;fill-opacity:1;fill-rule:nonzero;stroke:none"
         id="text80"><tspan
           x="0"
           y="0"
           id="tspan78">0</tspan></text></g></g></svg>
