<?xml version="1.0" encoding="UTF-8" standalone="no"?>
<!-- Created with Inkscape (http://www.inkscape.org/) -->

<svg
   version="1.1"
   id="svg1"
   width="346.66666"
   height="64"
   viewBox="0 0 346.66666 64"
   sodipodi:docname="0vlqr9vscwz64.pdf"
   xmlns:inkscape="http://www.inkscape.org/namespaces/inkscape"
   xmlns:sodipodi="http://sodipodi.sourceforge.net/DTD/sodipodi-0.dtd"
   xmlns="http://www.w3.org/2000/svg"
   xmlns:svg="http://www.w3.org/2000/svg">
  <defs
     id="defs1" />
  <sodipodi:namedview
     id="namedview1"
     pagecolor="#ffffff"
     bordercolor="#999999"
     borderopacity="1"
     inkscape:showpageshadow="0"
     inkscape:pageopacity="0"
     inkscape:pagecheckerboard="0"
     inkscape:deskcolor="#d1d1d1">
    <inkscape:page
       x="0"
       y="0"
       id="page1"
       width="346.66666"
       height="64"
       margin="0"
       bleed="0" />
  </sodipodi:namedview>
  <g
     id="g1"
     inkscape:groupmode="layer"
     inkscape:label="">
    <path
       id="path1"
       d="m 9.352,23.785 45.41,0.02"
       style="fill:none;stroke:#000000;stroke-width:1.44;stroke-linecap:butt;stroke-linejoin:miter;stroke-miterlimit:3.25;stroke-dasharray:none;stroke-opacity:0.7"
       transform="scale(1.3333333)" />
    <path
       id="path2"
       d="M 58.801,23.086 100.395,7.781"
       style="fill:none;stroke:#000000;stroke-width:1.44;stroke-linecap:butt;stroke-linejoin:miter;stroke-miterlimit:3.25;stroke-dasharray:none;stroke-opacity:0.7"
       transform="scale(1.3333333)" />
    <path
       id="path3"
       d="m 58.801,24.523 41.617,15.282"
       style="fill:none;stroke:#000000;stroke-width:1.44;stroke-linecap:butt;stroke-linejoin:miter;stroke-miterlimit:3.25;stroke-dasharray:none;stroke-opacity:0.7"
       transform="scale(1.3333333)" />
    <path
       id="path4"
       d="m 249.848,23.781 -45.563,0.004"
       style="fill:none;stroke:#000000;stroke-width:1.44;stroke-linecap:butt;stroke-linejoin:miter;stroke-miterlimit:3.25;stroke-dasharray:none;stroke-opacity:0.7"
       transform="scale(1.3333333)" />
    <path
       id="path5"
       d="M 200.242,23.07 158.547,7.785"
       style="fill:none;stroke:#000000;stroke-width:1.44;stroke-linecap:butt;stroke-linejoin:miter;stroke-miterlimit:3.25;stroke-dasharray:2.88, 2.88;stroke-dashoffset:0;stroke-opacity:0.7"
       transform="scale(1.3333333)" />
    <path
       id="path6"
       d="M 200.242,24.504 158.594,39.809"
       style="fill:none;stroke:#000000;stroke-width:1.44;stroke-linecap:butt;stroke-linejoin:miter;stroke-miterlimit:3.25;stroke-dasharray:2.88, 2.88;stroke-dashoffset:0;stroke-opacity:0.7"
       transform="scale(1.3333333)" />
    <path
       id="path7"
       d="m 156.594,9.152 0.039,29.293"
       style="fill:none;stroke:#000000;stroke-width:1.44;stroke-linecap:butt;stroke-linejoin:miter;stroke-miterlimit:3.25;stroke-dasharray:2.88, 2.88;stroke-dashoffset:0;stroke-opacity:0.7"
       transform="scale(1.3333333)" />
    <path
       id="path8"
       d="M 154.504,7.066 104.434,7.062"
       style="fill:none;stroke:#000000;stroke-width:1.44;stroke-linecap:butt;stroke-linejoin:miter;stroke-miterlimit:3.25;stroke-dasharray:2.88, 2.88;stroke-dashoffset:0;stroke-opacity:0.7"
       transform="scale(1.3333333)" />
    <path
       id="path9"
       d="M 154.551,40.527 104.457,40.523"
       style="fill:none;stroke:#000000;stroke-width:1.44;stroke-linecap:butt;stroke-linejoin:miter;stroke-miterlimit:3.25;stroke-dasharray:2.88, 2.88;stroke-dashoffset:0;stroke-opacity:0.7"
       transform="scale(1.3333333)" />
    <path
       id="path10"
       d="m 102.352,9.145 0.019,29.293"
       style="fill:none;stroke:#000000;stroke-width:1.44;stroke-linecap:butt;stroke-linejoin:miter;stroke-miterlimit:3.25;stroke-dasharray:2.88, 2.88;stroke-dashoffset:0;stroke-opacity:0.7"
       transform="scale(1.3333333)" />
    <path
       id="path11"
       d="m 9.352,23.785 c 0,0.551 -0.219,1.082 -0.61,1.473 -0.39,0.39 -0.922,0.609 -1.472,0.609 -0.555,0 -1.086,-0.219 -1.477,-0.609 -0.391,-0.391 -0.609,-0.922 -0.609,-1.473 0,-0.555 0.218,-1.082 0.609,-1.473 0.391,-0.39 0.922,-0.613 1.477,-0.613 0.55,0 1.082,0.223 1.472,0.613 0.391,0.391 0.61,0.918 0.61,1.473 z"
       style="fill:#a3b4cc;fill-opacity:1;fill-rule:evenodd;stroke:#000000;stroke-width:0.36;stroke-linecap:square;stroke-linejoin:miter;stroke-miterlimit:3.25;stroke-dasharray:none;stroke-opacity:0.7"
       transform="scale(1.3333333)" />
    <path
       id="path12"
       d="m 58.93,23.805 c 0,0.55 -0.219,1.082 -0.61,1.472 -0.39,0.391 -0.922,0.61 -1.472,0.61 -0.555,0 -1.086,-0.219 -1.477,-0.61 -0.391,-0.39 -0.609,-0.922 -0.609,-1.472 0,-0.555 0.218,-1.082 0.609,-1.473 0.391,-0.391 0.922,-0.613 1.477,-0.613 0.55,0 1.082,0.222 1.472,0.613 0.391,0.391 0.61,0.918 0.61,1.473 z"
       style="fill:#a3b4cc;fill-opacity:1;fill-rule:evenodd;stroke:#000000;stroke-width:0.36;stroke-linecap:square;stroke-linejoin:miter;stroke-miterlimit:3.25;stroke-dasharray:none;stroke-opacity:0.7"
       transform="scale(1.3333333)" />
    <path
       id="path13"
       d="m 254.016,23.781 c 0,0.555 -0.219,1.086 -0.61,1.477 -0.39,0.39 -0.922,0.609 -1.472,0.609 -0.555,0 -1.086,-0.219 -1.477,-0.609 -0.391,-0.391 -0.609,-0.922 -0.609,-1.477 0,-0.551 0.218,-1.082 0.609,-1.472 0.391,-0.391 0.922,-0.61 1.477,-0.61 0.55,0 1.082,0.219 1.472,0.61 0.391,0.39 0.61,0.921 0.61,1.472 z"
       style="fill:#a3b4cc;fill-opacity:1;fill-rule:evenodd;stroke:#000000;stroke-width:0.36;stroke-linecap:square;stroke-linejoin:miter;stroke-miterlimit:3.25;stroke-dasharray:none;stroke-opacity:0.7"
       transform="scale(1.3333333)" />
    <path
       id="path14"
       d="m 204.285,23.785 c 0,0.555 -0.223,1.082 -0.613,1.473 -0.391,0.394 -0.918,0.613 -1.473,0.613 -0.551,0 -1.082,-0.219 -1.472,-0.613 -0.391,-0.391 -0.61,-0.918 -0.61,-1.473 0,-0.551 0.219,-1.082 0.61,-1.473 0.39,-0.39 0.921,-0.609 1.472,-0.609 0.555,0 1.082,0.219 1.473,0.609 0.39,0.391 0.613,0.922 0.613,1.473 z"
       style="fill:#a3b4cc;fill-opacity:1;fill-rule:evenodd;stroke:#000000;stroke-width:0.36;stroke-linecap:square;stroke-linejoin:miter;stroke-miterlimit:3.25;stroke-dasharray:none;stroke-opacity:0.7"
       transform="scale(1.3333333)" />
    <path
       id="path15"
       d="m 158.676,7.066 c 0,0.555 -0.223,1.086 -0.614,1.477 -0.39,0.391 -0.917,0.609 -1.472,0.609 -0.551,0 -1.082,-0.218 -1.473,-0.609 -0.39,-0.391 -0.613,-0.922 -0.613,-1.477 0,-0.55 0.223,-1.082 0.613,-1.472 0.391,-0.391 0.922,-0.61 1.473,-0.61 0.555,0 1.082,0.219 1.472,0.61 0.391,0.39 0.614,0.922 0.614,1.472 z"
       style="fill:#a3b4cc;fill-opacity:1;fill-rule:evenodd;stroke:#000000;stroke-width:0.36;stroke-linecap:square;stroke-linejoin:miter;stroke-miterlimit:3.25;stroke-dasharray:none;stroke-opacity:0.7"
       transform="scale(1.3333333)" />
    <path
       id="path16"
       d="m 158.719,40.527 c 0,0.555 -0.219,1.086 -0.61,1.477 -0.39,0.391 -0.921,0.609 -1.472,0.609 -0.555,0 -1.082,-0.218 -1.473,-0.609 -0.394,-0.391 -0.613,-0.922 -0.613,-1.477 0,-0.55 0.219,-1.082 0.613,-1.472 0.391,-0.391 0.918,-0.61 1.473,-0.61 0.551,0 1.082,0.219 1.472,0.61 0.391,0.39 0.61,0.922 0.61,1.472 z"
       style="fill:#a3b4cc;fill-opacity:1;fill-rule:evenodd;stroke:#000000;stroke-width:0.36;stroke-linecap:square;stroke-linejoin:miter;stroke-miterlimit:3.25;stroke-dasharray:none;stroke-opacity:0.7"
       transform="scale(1.3333333)" />
    <path
       id="path17"
       d="m 104.434,7.062 c 0,0.551 -0.219,1.083 -0.61,1.473 -0.394,0.391 -0.922,0.61 -1.476,0.61 -0.551,0 -1.082,-0.219 -1.473,-0.61 -0.391,-0.39 -0.609,-0.922 -0.609,-1.473 0,-0.554 0.218,-1.085 0.609,-1.476 0.391,-0.391 0.922,-0.609 1.473,-0.609 0.554,0 1.082,0.218 1.476,0.609 0.391,0.391 0.61,0.922 0.61,1.476 z"
       style="fill:#a3b4cc;fill-opacity:1;fill-rule:evenodd;stroke:#000000;stroke-width:0.36;stroke-linecap:square;stroke-linejoin:miter;stroke-miterlimit:3.25;stroke-dasharray:none;stroke-opacity:0.7"
       transform="scale(1.3333333)" />
    <path
       id="path18"
       d="m 104.457,40.523 c 0,0.551 -0.219,1.082 -0.609,1.473 -0.391,0.391 -0.922,0.609 -1.477,0.609 -0.551,0 -1.082,-0.218 -1.473,-0.609 -0.39,-0.391 -0.609,-0.922 -0.609,-1.473 0,-0.554 0.219,-1.082 0.609,-1.472 0.391,-0.391 0.922,-0.613 1.473,-0.613 0.555,0 1.086,0.222 1.477,0.613 0.39,0.39 0.609,0.918 0.609,1.472 z"
       style="fill:#a3b4cc;fill-opacity:1;fill-rule:evenodd;stroke:#000000;stroke-width:0.36;stroke-linecap:square;stroke-linejoin:miter;stroke-miterlimit:3.25;stroke-dasharray:none;stroke-opacity:0.7"
       transform="scale(1.3333333)" />
  </g>
</svg>
