<?xml version="1.0" encoding="UTF-8" standalone="no"?>
<!-- Created with Inkscape (http://www.inkscape.org/) -->

<svg
   version="1.1"
   id="svg2"
   xml:space="preserve"
   width="346.66666"
   height="218.66667"
   viewBox="0 0 346.66666 218.66667"
   sodipodi:docname="0vqfnrsj37rjh.pdf"
   xmlns:inkscape="http://www.inkscape.org/namespaces/inkscape"
   xmlns:sodipodi="http://sodipodi.sourceforge.net/DTD/sodipodi-0.dtd"
   xmlns="http://www.w3.org/2000/svg"
   xmlns:svg="http://www.w3.org/2000/svg"><defs
     id="defs6" /><sodipodi:namedview
     id="namedview4"
     pagecolor="#505050"
     bordercolor="#eeeeee"
     borderopacity="1"
     inkscape:pageshadow="0"
     inkscape:pageopacity="0"
     inkscape:pagecheckerboard="0" /><g
     id="g8"
     inkscape:groupmode="layer"
     inkscape:label="0vqfnrsj37rjh"
     transform="matrix(1.3333333,0,0,1.3333333,0,8.8e-6)"><g
       id="g10"><path
         d="m 9.336,154.246 45.437,-37.57"
         style="fill:none;stroke:#000000;stroke-width:1.44;stroke-linecap:butt;stroke-linejoin:miter;stroke-miterlimit:3.25;stroke-dasharray:none;stroke-opacity:0.7"
         id="path12" /><path
         d="M 56.535,112.93 56.512,54.094"
         style="fill:none;stroke:#000000;stroke-width:1.44;stroke-linecap:butt;stroke-linejoin:miter;stroke-miterlimit:3.25;stroke-dasharray:2.88, 2.88;stroke-dashoffset:0;stroke-opacity:0.7"
         id="path14" /><path
         d="m 58.816,115.074 66.758,-4.164"
         style="fill:none;stroke:#000000;stroke-width:1.44;stroke-linecap:butt;stroke-linejoin:miter;stroke-miterlimit:3.25;stroke-dasharray:2.88, 2.88;stroke-dashoffset:0;stroke-opacity:0.7"
         id="path16" /><path
         d="M 9.461,12.629 54.754,50.344"
         style="fill:none;stroke:#000000;stroke-width:1.44;stroke-linecap:butt;stroke-linejoin:miter;stroke-miterlimit:3.25;stroke-dasharray:none;stroke-opacity:0.7"
         id="path18" /><path
         d="m 58.793,51.953 66.727,4.199"
         style="fill:none;stroke:#000000;stroke-width:1.44;stroke-linecap:butt;stroke-linejoin:miter;stroke-miterlimit:3.25;stroke-dasharray:2.88, 2.88;stroke-dashoffset:0;stroke-opacity:0.7"
         id="path20" /><path
         d="M 246.324,12.648 200.898,50.352"
         style="fill:none;stroke:#000000;stroke-width:1.44;stroke-linecap:butt;stroke-linejoin:miter;stroke-miterlimit:3.25;stroke-dasharray:none;stroke-opacity:0.7"
         id="path22" /><path
         d="m 199.141,54.098 0.062,58.816"
         style="fill:none;stroke:#ff0000;stroke-width:1.44;stroke-linecap:butt;stroke-linejoin:miter;stroke-miterlimit:3.25;stroke-dasharray:none;stroke-opacity:0.7"
         id="path24" /><path
         d="m 196.855,51.957 -66.769,4.195"
         style="fill:none;stroke:#000000;stroke-width:1.44;stroke-linecap:butt;stroke-linejoin:miter;stroke-miterlimit:3.25;stroke-dasharray:2.88, 2.88;stroke-dashoffset:0;stroke-opacity:0.7"
         id="path26" /><path
         d="M 246.316,154.277 200.965,116.664"
         style="fill:none;stroke:#000000;stroke-width:1.44;stroke-linecap:butt;stroke-linejoin:miter;stroke-miterlimit:3.25;stroke-dasharray:none;stroke-opacity:0.7"
         id="path28" /><path
         d="M 196.922,115.059 130.141,110.91"
         style="fill:none;stroke:#00ff00;stroke-width:1.44;stroke-linecap:butt;stroke-linejoin:miter;stroke-miterlimit:3.25;stroke-dasharray:none;stroke-opacity:0.7"
         id="path30" /><path
         d="m 127.805,58.586 0.05,49.894"
         style="fill:none;stroke:#0000ff;stroke-width:1.44;stroke-linecap:butt;stroke-linejoin:miter;stroke-miterlimit:3.25;stroke-dasharray:none;stroke-opacity:0.7"
         id="path32" /><path
         d="m 9.859,155.703 c 0,-0.605 -0.242,-1.187 -0.668,-1.617 -0.429,-0.43 -1.011,-0.672 -1.617,-0.672 -0.609,0 -1.191,0.242 -1.617,0.672 -0.43,0.43 -0.672,1.012 -0.672,1.617 0,0.606 0.242,1.188 0.672,1.617 0.426,0.43 1.008,0.668 1.617,0.668 0.606,0 1.188,-0.238 1.617,-0.668 0.426,-0.429 0.668,-1.011 0.668,-1.617 z"
         style="fill:#a3b4cc;fill-opacity:1;fill-rule:evenodd;stroke:none"
         id="path34" /><path
         d="m 9.859,155.703 c 0,-0.605 -0.242,-1.187 -0.668,-1.617 -0.429,-0.43 -1.011,-0.672 -1.617,-0.672 -0.609,0 -1.191,0.242 -1.617,0.672 -0.43,0.43 -0.672,1.012 -0.672,1.617 0,0.606 0.242,1.188 0.672,1.617 0.426,0.43 1.008,0.668 1.617,0.668 0.606,0 1.188,-0.238 1.617,-0.668 0.426,-0.429 0.668,-1.011 0.668,-1.617 z"
         style="fill:none;stroke:#000000;stroke-width:0.36;stroke-linecap:square;stroke-linejoin:miter;stroke-miterlimit:3.25;stroke-dasharray:none;stroke-opacity:0.7"
         id="path36" /><text
         transform="translate(11.299855,150.53593)"
         style="font-variant:normal;font-size:6.48px;font-family:CairoFont-0;-inkscape-font-specification:CairoFont-0-0;writing-mode:lr-tb;fill:#000000;fill-opacity:1;fill-rule:nonzero;stroke:none"
         id="text40"><tspan
           x="0"
           y="0"
           id="tspan38">-</tspan></text><text
         transform="translate(15.077695,150.53593)"
         style="font-variant:normal;font-size:6.48px;font-family:CairoFont-1;-inkscape-font-specification:CairoFont-1-0;writing-mode:lr-tb;fill:#000000;fill-opacity:1;fill-rule:nonzero;stroke:none"
         id="text44"><tspan
           x="0"
           y="0"
           id="tspan42">4</tspan></text><path
         d="m 58.82,115.219 c 0,-0.61 -0.238,-1.192 -0.668,-1.617 -0.429,-0.43 -1.011,-0.672 -1.617,-0.672 -0.605,0 -1.187,0.242 -1.617,0.672 -0.43,0.425 -0.672,1.007 -0.672,1.617 0,0.605 0.242,1.187 0.672,1.617 0.43,0.426 1.012,0.668 1.617,0.668 0.606,0 1.188,-0.242 1.617,-0.668 0.43,-0.43 0.668,-1.012 0.668,-1.617 z"
         style="fill:#a3b4cc;fill-opacity:1;fill-rule:evenodd;stroke:none"
         id="path46" /><path
         d="m 58.82,115.219 c 0,-0.61 -0.238,-1.192 -0.668,-1.617 -0.429,-0.43 -1.011,-0.672 -1.617,-0.672 -0.605,0 -1.187,0.242 -1.617,0.672 -0.43,0.425 -0.672,1.007 -0.672,1.617 0,0.605 0.242,1.187 0.672,1.617 0.43,0.426 1.012,0.668 1.617,0.668 0.606,0 1.188,-0.242 1.617,-0.668 0.43,-0.43 0.668,-1.012 0.668,-1.617 z"
         style="fill:none;stroke:#000000;stroke-width:0.36;stroke-linecap:square;stroke-linejoin:miter;stroke-miterlimit:3.25;stroke-dasharray:none;stroke-opacity:0.7"
         id="path48" /><text
         transform="translate(60.261883,110.05046)"
         style="font-variant:normal;font-size:6.48px;font-family:CairoFont-1;-inkscape-font-specification:CairoFont-1-0;writing-mode:lr-tb;fill:#000000;fill-opacity:1;fill-rule:nonzero;stroke:none"
         id="text52"><tspan
           x="0"
           y="0"
           id="tspan50">4</tspan></text><path
         d="M 9.992,11.168 C 9.992,10.559 9.75,9.98 9.32,9.551 8.895,9.121 8.312,8.879 7.703,8.879 7.098,8.879 6.516,9.121 6.086,9.551 5.66,9.98 5.418,10.559 5.418,11.168 c 0,0.605 0.242,1.187 0.668,1.617 0.43,0.43 1.012,0.668 1.617,0.668 0.609,0 1.192,-0.238 1.617,-0.668 0.43,-0.43 0.672,-1.012 0.672,-1.617 z"
         style="fill:#a3b4cc;fill-opacity:1;fill-rule:evenodd;stroke:none"
         id="path54" /><path
         d="M 9.992,11.168 C 9.992,10.559 9.75,9.98 9.32,9.551 8.895,9.121 8.312,8.879 7.703,8.879 7.098,8.879 6.516,9.121 6.086,9.551 5.66,9.98 5.418,10.559 5.418,11.168 c 0,0.605 0.242,1.187 0.668,1.617 0.43,0.43 1.012,0.668 1.617,0.668 0.609,0 1.192,-0.238 1.617,-0.668 0.43,-0.43 0.672,-1.012 0.672,-1.617 z"
         style="fill:none;stroke:#000000;stroke-width:0.36;stroke-linecap:square;stroke-linejoin:miter;stroke-miterlimit:3.25;stroke-dasharray:none;stroke-opacity:0.7"
         id="path56" /><text
         transform="translate(11.431491,6)"
         style="font-variant:normal;font-size:6.48px;font-family:CairoFont-0;-inkscape-font-specification:CairoFont-0-0;writing-mode:lr-tb;fill:#000000;fill-opacity:1;fill-rule:nonzero;stroke:none"
         id="text60"><tspan
           x="0"
           y="0"
           id="tspan58">-</tspan></text><text
         transform="translate(15.209331,6)"
         style="font-variant:normal;font-size:6.48px;font-family:CairoFont-1;-inkscape-font-specification:CairoFont-1-0;writing-mode:lr-tb;fill:#000000;fill-opacity:1;fill-rule:nonzero;stroke:none"
         id="text64"><tspan
           x="0"
           y="0"
           id="tspan62">3</tspan></text><path
         d="m 58.797,51.809 c 0,-0.606 -0.242,-1.188 -0.668,-1.618 -0.43,-0.429 -1.012,-0.671 -1.617,-0.671 -0.61,0 -1.192,0.242 -1.617,0.671 -0.43,0.43 -0.672,1.012 -0.672,1.618 0,0.605 0.242,1.187 0.672,1.617 0.425,0.429 1.007,0.668 1.617,0.668 0.605,0 1.187,-0.239 1.617,-0.668 0.426,-0.43 0.668,-1.012 0.668,-1.617 z"
         style="fill:#a3b4cc;fill-opacity:1;fill-rule:evenodd;stroke:none"
         id="path66" /><path
         d="m 58.797,51.809 c 0,-0.606 -0.242,-1.188 -0.668,-1.618 -0.43,-0.429 -1.012,-0.671 -1.617,-0.671 -0.61,0 -1.192,0.242 -1.617,0.671 -0.43,0.43 -0.672,1.012 -0.672,1.618 0,0.605 0.242,1.187 0.672,1.617 0.425,0.429 1.007,0.668 1.617,0.668 0.605,0 1.187,-0.239 1.617,-0.668 0.426,-0.43 0.668,-1.012 0.668,-1.617 z"
         style="fill:none;stroke:#000000;stroke-width:0.36;stroke-linecap:square;stroke-linejoin:miter;stroke-miterlimit:3.25;stroke-dasharray:none;stroke-opacity:0.7"
         id="path68" /><text
         transform="translate(60.236861,46.640993)"
         style="font-variant:normal;font-size:6.48px;font-family:CairoFont-1;-inkscape-font-specification:CairoFont-1-0;writing-mode:lr-tb;fill:#000000;fill-opacity:1;fill-rule:nonzero;stroke:none"
         id="text72"><tspan
           x="0"
           y="0"
           id="tspan70">1</tspan></text><path
         d="m 250.371,11.188 c 0,-0.606 -0.238,-1.188 -0.668,-1.618 -0.43,-0.429 -1.012,-0.668 -1.617,-0.668 -0.606,0 -1.188,0.239 -1.617,0.668 -0.43,0.43 -0.672,1.012 -0.672,1.618 0,0.605 0.242,1.187 0.672,1.617 0.429,0.429 1.011,0.672 1.617,0.672 0.605,0 1.187,-0.243 1.617,-0.672 0.43,-0.43 0.668,-1.012 0.668,-1.617 z"
         style="fill:#a3b4cc;fill-opacity:1;fill-rule:evenodd;stroke:none"
         id="path74" /><path
         d="m 250.371,11.188 c 0,-0.606 -0.238,-1.188 -0.668,-1.618 -0.43,-0.429 -1.012,-0.668 -1.617,-0.668 -0.606,0 -1.188,0.239 -1.617,0.668 -0.43,0.43 -0.672,1.012 -0.672,1.618 0,0.605 0.242,1.187 0.672,1.617 0.429,0.429 1.011,0.672 1.617,0.672 0.605,0 1.187,-0.243 1.617,-0.672 0.43,-0.43 0.668,-1.012 0.668,-1.617 z"
         style="fill:none;stroke:#000000;stroke-width:0.36;stroke-linecap:square;stroke-linejoin:miter;stroke-miterlimit:3.25;stroke-dasharray:none;stroke-opacity:0.7"
         id="path76" /><text
         transform="translate(251.8125,6.021334)"
         style="font-variant:normal;font-size:6.48px;font-family:CairoFont-0;-inkscape-font-specification:CairoFont-0-0;writing-mode:lr-tb;fill:#000000;fill-opacity:1;fill-rule:nonzero;stroke:none"
         id="text80"><tspan
           x="0"
           y="0"
           id="tspan78">-</tspan></text><text
         transform="translate(255.59034,6.021334)"
         style="font-variant:normal;font-size:6.48px;font-family:CairoFont-1;-inkscape-font-specification:CairoFont-1-0;writing-mode:lr-tb;fill:#000000;fill-opacity:1;fill-rule:nonzero;stroke:none"
         id="text84"><tspan
           x="0"
           y="0"
           id="tspan82">2</tspan></text><path
         d="m 201.426,51.812 c 0,-0.605 -0.242,-1.187 -0.672,-1.617 -0.426,-0.429 -1.008,-0.672 -1.617,-0.672 -0.606,0 -1.188,0.243 -1.617,0.672 -0.426,0.43 -0.668,1.012 -0.668,1.617 0,0.606 0.242,1.188 0.668,1.618 0.429,0.429 1.011,0.668 1.617,0.668 0.609,0 1.191,-0.239 1.617,-0.668 0.43,-0.43 0.672,-1.012 0.672,-1.618 z"
         style="fill:#a3b4cc;fill-opacity:1;fill-rule:evenodd;stroke:none"
         id="path86" /><path
         d="m 201.426,51.812 c 0,-0.605 -0.242,-1.187 -0.672,-1.617 -0.426,-0.429 -1.008,-0.672 -1.617,-0.672 -0.606,0 -1.188,0.243 -1.617,0.672 -0.426,0.43 -0.668,1.012 -0.668,1.617 0,0.606 0.242,1.188 0.668,1.618 0.429,0.429 1.011,0.668 1.617,0.668 0.609,0 1.191,-0.239 1.617,-0.668 0.43,-0.43 0.672,-1.012 0.672,-1.618 z"
         style="fill:none;stroke:#000000;stroke-width:0.36;stroke-linecap:square;stroke-linejoin:miter;stroke-miterlimit:3.25;stroke-dasharray:none;stroke-opacity:0.7"
         id="path88" /><text
         transform="translate(202.86538,46.64483)"
         style="font-variant:normal;font-size:6.48px;font-family:CairoFont-1;-inkscape-font-specification:CairoFont-1-0;writing-mode:lr-tb;fill:#000000;fill-opacity:1;fill-rule:nonzero;stroke:none"
         id="text92"><tspan
           x="0"
           y="0"
           id="tspan90">2</tspan></text><path
         d="m 250.363,155.734 c 0,-0.605 -0.242,-1.187 -0.668,-1.617 -0.429,-0.426 -1.011,-0.668 -1.617,-0.668 -0.609,0 -1.191,0.242 -1.617,0.668 -0.43,0.43 -0.672,1.012 -0.672,1.617 0,0.61 0.242,1.192 0.672,1.618 0.426,0.429 1.008,0.671 1.617,0.671 0.606,0 1.188,-0.242 1.617,-0.671 0.426,-0.426 0.668,-1.008 0.668,-1.618 z"
         style="fill:#a3b4cc;fill-opacity:1;fill-rule:evenodd;stroke:none"
         id="path94" /><path
         d="m 250.363,155.734 c 0,-0.605 -0.242,-1.187 -0.668,-1.617 -0.429,-0.426 -1.011,-0.668 -1.617,-0.668 -0.609,0 -1.191,0.242 -1.617,0.668 -0.43,0.43 -0.672,1.012 -0.672,1.617 0,0.61 0.242,1.192 0.672,1.618 0.426,0.429 1.008,0.671 1.617,0.671 0.606,0 1.188,-0.242 1.617,-0.671 0.426,-0.426 0.668,-1.008 0.668,-1.618 z"
         style="fill:none;stroke:#000000;stroke-width:0.36;stroke-linecap:square;stroke-linejoin:miter;stroke-miterlimit:3.25;stroke-dasharray:none;stroke-opacity:0.7"
         id="path96" /><text
         transform="translate(251.80352,150.56877)"
         style="font-variant:normal;font-size:6.48px;font-family:CairoFont-0;-inkscape-font-specification:CairoFont-0-0;writing-mode:lr-tb;fill:#000000;fill-opacity:1;fill-rule:nonzero;stroke:none"
         id="text100"><tspan
           x="0"
           y="0"
           id="tspan98">-</tspan></text><text
         transform="translate(255.58136,150.56877)"
         style="font-variant:normal;font-size:6.48px;font-family:CairoFont-1;-inkscape-font-specification:CairoFont-1-0;writing-mode:lr-tb;fill:#000000;fill-opacity:1;fill-rule:nonzero;stroke:none"
         id="text104"><tspan
           x="0"
           y="0"
           id="tspan102">1</tspan></text><path
         d="m 201.492,115.203 c 0,-0.605 -0.242,-1.187 -0.668,-1.617 -0.429,-0.43 -1.012,-0.672 -1.617,-0.672 -0.609,0 -1.191,0.242 -1.617,0.672 -0.43,0.43 -0.672,1.012 -0.672,1.617 0,0.606 0.242,1.188 0.672,1.617 0.426,0.43 1.008,0.668 1.617,0.668 0.605,0 1.188,-0.238 1.617,-0.668 0.426,-0.429 0.668,-1.011 0.668,-1.617 z"
         style="fill:#a3b4cc;fill-opacity:1;fill-rule:evenodd;stroke:none"
         id="path106" /><path
         d="m 201.492,115.203 c 0,-0.605 -0.242,-1.187 -0.668,-1.617 -0.429,-0.43 -1.012,-0.672 -1.617,-0.672 -0.609,0 -1.191,0.242 -1.617,0.672 -0.43,0.43 -0.672,1.012 -0.672,1.617 0,0.606 0.242,1.188 0.672,1.617 0.426,0.43 1.008,0.668 1.617,0.668 0.605,0 1.188,-0.238 1.617,-0.668 0.426,-0.429 0.668,-1.011 0.668,-1.617 z"
         style="fill:none;stroke:#000000;stroke-width:0.36;stroke-linecap:square;stroke-linejoin:miter;stroke-miterlimit:3.25;stroke-dasharray:none;stroke-opacity:0.7"
         id="path108" /><text
         transform="translate(202.93248,110.03545)"
         style="font-variant:normal;font-size:6.48px;font-family:CairoFont-1;-inkscape-font-specification:CairoFont-1-0;writing-mode:lr-tb;fill:#000000;fill-opacity:1;fill-rule:nonzero;stroke:none"
         id="text112"><tspan
           x="0"
           y="0"
           id="tspan110">3</tspan></text><path
         d="m 130.09,56.297 c 0,-0.606 -0.242,-1.188 -0.672,-1.617 -0.426,-0.43 -1.008,-0.668 -1.617,-0.668 -0.606,0 -1.188,0.238 -1.617,0.668 -0.426,0.429 -0.668,1.011 -0.668,1.617 0,0.605 0.242,1.187 0.668,1.617 0.429,0.43 1.011,0.672 1.617,0.672 0.609,0 1.191,-0.242 1.617,-0.672 0.43,-0.43 0.672,-1.012 0.672,-1.617 z"
         style="fill:#a3b4cc;fill-opacity:1;fill-rule:evenodd;stroke:none"
         id="path114" /><path
         d="m 130.09,56.297 c 0,-0.606 -0.242,-1.188 -0.672,-1.617 -0.426,-0.43 -1.008,-0.668 -1.617,-0.668 -0.606,0 -1.188,0.238 -1.617,0.668 -0.426,0.429 -0.668,1.011 -0.668,1.617 0,0.605 0.242,1.187 0.668,1.617 0.429,0.43 1.011,0.672 1.617,0.672 0.609,0 1.191,-0.242 1.617,-0.672 0.43,-0.43 0.672,-1.012 0.672,-1.617 z"
         style="fill:none;stroke:#000000;stroke-width:0.36;stroke-linecap:square;stroke-linejoin:miter;stroke-miterlimit:3.25;stroke-dasharray:none;stroke-opacity:0.7"
         id="path116" /><text
         transform="translate(131.52936,51.13061)"
         style="font-variant:normal;font-size:6.48px;font-family:CairoFont-1;-inkscape-font-specification:CairoFont-1-0;writing-mode:lr-tb;fill:#000000;fill-opacity:1;fill-rule:nonzero;stroke:none"
         id="text120"><tspan
           x="0"
           y="0"
           id="tspan118">6</tspan></text><path
         d="m 130.145,110.766 c 0,-0.606 -0.239,-1.188 -0.668,-1.618 -0.43,-0.429 -1.012,-0.668 -1.618,-0.668 -0.605,0 -1.187,0.239 -1.617,0.668 -0.43,0.43 -0.672,1.012 -0.672,1.618 0,0.605 0.242,1.187 0.672,1.617 0.43,0.429 1.012,0.672 1.617,0.672 0.606,0 1.188,-0.243 1.618,-0.672 0.429,-0.43 0.668,-1.012 0.668,-1.617 z"
         style="fill:#a3b4cc;fill-opacity:1;fill-rule:evenodd;stroke:none"
         id="path122" /><path
         d="m 130.145,110.766 c 0,-0.606 -0.239,-1.188 -0.668,-1.618 -0.43,-0.429 -1.012,-0.668 -1.618,-0.668 -0.605,0 -1.187,0.239 -1.617,0.668 -0.43,0.43 -0.672,1.012 -0.672,1.618 0,0.605 0.242,1.187 0.672,1.617 0.43,0.429 1.012,0.672 1.617,0.672 0.606,0 1.188,-0.243 1.618,-0.672 0.429,-0.43 0.668,-1.012 0.668,-1.617 z"
         style="fill:none;stroke:#000000;stroke-width:0.36;stroke-linecap:square;stroke-linejoin:miter;stroke-miterlimit:3.25;stroke-dasharray:none;stroke-opacity:0.7"
         id="path124" /><text
         transform="translate(131.58551,105.59942)"
         style="font-variant:normal;font-size:6.48px;font-family:CairoFont-1;-inkscape-font-specification:CairoFont-1-0;writing-mode:lr-tb;fill:#000000;fill-opacity:1;fill-rule:nonzero;stroke:none"
         id="text128"><tspan
           x="0"
           y="0"
           id="tspan126">5</tspan></text><path
         d="M 255.477,162.926 H 0.18"
         style="fill:none;stroke:#000000;stroke-width:0.144;stroke-linecap:square;stroke-linejoin:miter;stroke-miterlimit:3.25;stroke-dasharray:none;stroke-opacity:1"
         id="path130" /><path
         d="M 0.18,162.926 V 3.977"
         style="fill:none;stroke:#000000;stroke-width:0.144;stroke-linecap:square;stroke-linejoin:miter;stroke-miterlimit:3.25;stroke-dasharray:none;stroke-opacity:1"
         id="path132" /><path
         d="M 0.18,3.977 H 255.477"
         style="fill:none;stroke:#000000;stroke-width:0.144;stroke-linecap:square;stroke-linejoin:miter;stroke-miterlimit:3.25;stroke-dasharray:none;stroke-opacity:1"
         id="path134" /><path
         d="M 255.477,3.977 V 162.926"
         style="fill:none;stroke:#000000;stroke-width:0.144;stroke-linecap:square;stroke-linejoin:miter;stroke-miterlimit:3.25;stroke-dasharray:none;stroke-opacity:1"
         id="path136" /></g></g></svg>
