<?xml version="1.0" encoding="UTF-8" standalone="no"?>
<!-- Created with Inkscape (http://www.inkscape.org/) -->

<svg
   version="1.1"
   id="svg1"
   width="518.66669"
   height="172"
   viewBox="0 0 518.66669 172"
   sodipodi:docname="0w0hcbs2y00wu.pdf"
   xmlns:inkscape="http://www.inkscape.org/namespaces/inkscape"
   xmlns:sodipodi="http://sodipodi.sourceforge.net/DTD/sodipodi-0.dtd"
   xmlns="http://www.w3.org/2000/svg"
   xmlns:svg="http://www.w3.org/2000/svg">
  <defs
     id="defs1" />
  <sodipodi:namedview
     id="namedview1"
     pagecolor="#ffffff"
     bordercolor="#999999"
     borderopacity="1"
     inkscape:showpageshadow="0"
     inkscape:pageopacity="0"
     inkscape:pagecheckerboard="0"
     inkscape:deskcolor="#d1d1d1">
    <inkscape:page
       x="0"
       y="0"
       id="page1"
       width="518.66669"
       height="172"
       margin="0"
       bleed="0" />
  </sodipodi:namedview>
  <g
     id="g1"
     inkscape:groupmode="layer"
     inkscape:label="">
    <path
       id="path1"
       d="m 14.914,64.043 91.383,0.004"
       style="fill:none;stroke:#000000;stroke-width:2.16;stroke-linecap:butt;stroke-linejoin:miter;stroke-miterlimit:3.25;stroke-dasharray:none;stroke-opacity:0.7"
       transform="scale(1.3333333)" />
    <path
       id="path2"
       d="m 113.141,63.539 8.273,-1.238 10.961,-0.379 10.246,0.992 9.527,2.359 8.817,3.731 8.101,5.101 7.383,6.473 6.672,7.84 5.953,9.211 3.711,7.496"
       style="fill:none;stroke:#000000;stroke-width:2.16;stroke-linecap:butt;stroke-linejoin:miter;stroke-miterlimit:3.25;stroke-dasharray:4.32, 4.32;stroke-dashoffset:0;stroke-opacity:0.7"
       transform="scale(1.3333333)" />
    <path
       id="path3"
       d="m 111.266,67.133 3.711,7.496 5.953,9.211 6.672,7.84 7.382,6.468 8.102,5.102 8.812,3.73 9.532,2.364 10.246,0.992 10.961,-0.379 8.273,-1.238"
       style="fill:none;stroke:#000000;stroke-width:2.16;stroke-linecap:butt;stroke-linejoin:miter;stroke-miterlimit:3.25;stroke-dasharray:4.32, 4.32;stroke-dashoffset:0;stroke-opacity:0.7"
       transform="scale(1.3333333)" />
    <path
       id="path4"
       d="m 111.266,60.965 3.711,-7.496 5.953,-9.211 6.668,-7.84 7.386,-6.469 8.098,-5.101 8.816,-3.731 9.528,-2.363 10.246,-0.992 10.961,0.379 8.273,1.238"
       style="fill:none;stroke:#0000ff;stroke-width:2.16;stroke-linecap:butt;stroke-linejoin:miter;stroke-miterlimit:3.25;stroke-dasharray:4.32, 4.32;stroke-dashoffset:0;stroke-opacity:0.7"
       transform="scale(1.3333333)" />
    <path
       id="path5"
       d="m 113.141,64.559 8.273,1.238 10.961,0.379 10.246,-0.992 9.527,-2.364 8.817,-3.73 8.097,-5.102 7.387,-6.468 6.668,-7.84 5.953,-9.211 3.711,-7.496"
       style="fill:none;stroke:#0000ff;stroke-width:2.16;stroke-linecap:butt;stroke-linejoin:miter;stroke-miterlimit:3.25;stroke-dasharray:4.32, 4.32;stroke-dashoffset:0;stroke-opacity:0.7"
       transform="scale(1.3333333)" />
    <path
       id="path6"
       d="m 373.887,64.043 -91.508,0.004"
       style="fill:none;stroke:#000000;stroke-width:2.16;stroke-linecap:butt;stroke-linejoin:miter;stroke-miterlimit:3.25;stroke-dasharray:none;stroke-opacity:0.7"
       transform="scale(1.3333333)" />
    <path
       id="path7"
       d="m 275.891,65.637 -78.528,40.98"
       style="fill:none;stroke:#000000;stroke-width:2.16;stroke-linecap:butt;stroke-linejoin:miter;stroke-miterlimit:3.25;stroke-dasharray:none;stroke-opacity:0.7"
       transform="scale(1.3333333)" />
    <path
       id="path8"
       d="M 275.887,62.457 197.359,21.48"
       style="fill:none;stroke:#ff0000;stroke-width:2.16;stroke-linecap:butt;stroke-linejoin:miter;stroke-miterlimit:3.25;stroke-dasharray:4.32, 4.32;stroke-dashoffset:0;stroke-opacity:0.7"
       transform="scale(1.3333333)" />
    <path
       id="path9"
       d="m 14.914,64.043 c 0,0.914 -0.363,1.789 -1.008,2.434 -0.644,0.644 -1.519,1.007 -2.429,1.007 -0.915,0 -1.789,-0.363 -2.434,-1.007 -0.645,-0.645 -1.008,-1.52 -1.008,-2.434 0,-0.91 0.363,-1.785 1.008,-2.43 0.645,-0.648 1.519,-1.008 2.434,-1.008 0.91,0 1.785,0.36 2.429,1.008 0.645,0.645 1.008,1.52 1.008,2.43 z"
       style="fill:#a3b4cc;fill-opacity:1;fill-rule:evenodd;stroke:#000000;stroke-width:0.54;stroke-linecap:square;stroke-linejoin:miter;stroke-miterlimit:3.25;stroke-dasharray:none;stroke-opacity:0.7"
       transform="scale(1.3333333)" />
    <path
       id="path10"
       d="m 113.176,64.047 c 0,0.914 -0.36,1.789 -1.004,2.433 -0.649,0.645 -1.524,1.008 -2.434,1.008 -0.914,0 -1.789,-0.363 -2.433,-1.008 -0.645,-0.644 -1.008,-1.519 -1.008,-2.433 0,-0.91 0.363,-1.785 1.008,-2.43 0.644,-0.644 1.519,-1.008 2.433,-1.008 0.91,0 1.785,0.364 2.434,1.008 0.644,0.645 1.004,1.52 1.004,2.43 z"
       style="fill:#a3b4cc;fill-opacity:1;fill-rule:evenodd;stroke:#000000;stroke-width:0.54;stroke-linecap:square;stroke-linejoin:miter;stroke-miterlimit:3.25;stroke-dasharray:none;stroke-opacity:0.7"
       transform="scale(1.3333333)" />
    <path
       id="path11"
       d="m 380.766,64.043 c 0,0.914 -0.364,1.789 -1.008,2.434 -0.645,0.644 -1.52,1.007 -2.434,1.007 -0.91,0 -1.785,-0.363 -2.429,-1.007 -0.649,-0.645 -1.008,-1.52 -1.008,-2.434 0,-0.91 0.359,-1.785 1.008,-2.43 0.644,-0.644 1.519,-1.008 2.429,-1.008 0.914,0 1.789,0.364 2.434,1.008 0.644,0.645 1.008,1.52 1.008,2.43 z"
       style="fill:#a3b4cc;fill-opacity:1;fill-rule:evenodd;stroke:#000000;stroke-width:0.54;stroke-linecap:square;stroke-linejoin:miter;stroke-miterlimit:3.25;stroke-dasharray:none;stroke-opacity:0.7"
       transform="scale(1.3333333)" />
    <path
       id="path12"
       d="m 282.379,64.047 c 0,0.91 -0.363,1.785 -1.008,2.433 -0.644,0.645 -1.519,1.004 -2.433,1.004 -0.911,0 -1.786,-0.359 -2.43,-1.004 -0.649,-0.648 -1.008,-1.523 -1.008,-2.433 0,-0.914 0.359,-1.789 1.008,-2.434 0.644,-0.644 1.519,-1.008 2.43,-1.008 0.914,0 1.789,0.364 2.433,1.008 0.645,0.645 1.008,1.52 1.008,2.434 z"
       style="fill:#a3b4cc;fill-opacity:1;fill-rule:evenodd;stroke:#000000;stroke-width:0.54;stroke-linecap:square;stroke-linejoin:miter;stroke-miterlimit:3.25;stroke-dasharray:none;stroke-opacity:0.7"
       transform="scale(1.3333333)" />
    <path
       id="path13"
       d="m 197.754,108.207 c 0,0.914 -0.363,1.789 -1.008,2.434 -0.648,0.644 -1.519,1.007 -2.434,1.007 -0.914,0 -1.789,-0.363 -2.433,-1.007 -0.645,-0.645 -1.008,-1.52 -1.008,-2.434 0,-0.91 0.363,-1.785 1.008,-2.434 0.644,-0.644 1.519,-1.003 2.433,-1.003 0.915,0 1.786,0.359 2.434,1.003 0.645,0.649 1.008,1.524 1.008,2.434 z"
       style="fill:#a3b4cc;fill-opacity:1;fill-rule:evenodd;stroke:#000000;stroke-width:0.54;stroke-linecap:square;stroke-linejoin:miter;stroke-miterlimit:3.25;stroke-dasharray:none;stroke-opacity:0.7"
       transform="scale(1.3333333)" />
    <path
       id="path14"
       d="m 197.75,19.887 c 0,0.914 -0.363,1.789 -1.008,2.433 -0.644,0.645 -1.519,1.008 -2.433,1.008 -0.914,0 -1.786,-0.363 -2.434,-1.008 -0.645,-0.644 -1.008,-1.519 -1.008,-2.433 0,-0.91 0.363,-1.785 1.008,-2.43 0.648,-0.645 1.52,-1.008 2.434,-1.008 0.914,0 1.789,0.363 2.433,1.008 0.645,0.645 1.008,1.52 1.008,2.43 z"
       style="fill:#a3b4cc;fill-opacity:1;fill-rule:evenodd;stroke:#000000;stroke-width:0.54;stroke-linecap:square;stroke-linejoin:miter;stroke-miterlimit:3.25;stroke-dasharray:none;stroke-opacity:0.7"
       transform="scale(1.3333333)" />
    <path
       id="path15"
       d="M 388.531,127.828 H 0.27"
       style="fill:none;stroke:#000000;stroke-width:0.216;stroke-linecap:square;stroke-linejoin:miter;stroke-miterlimit:3.25;stroke-dasharray:none;stroke-opacity:1"
       transform="scale(1.3333333)" />
    <path
       id="path16"
       d="M 0.27,127.828 V 0.27"
       style="fill:none;stroke:#000000;stroke-width:0.216;stroke-linecap:square;stroke-linejoin:miter;stroke-miterlimit:3.25;stroke-dasharray:none;stroke-opacity:1"
       transform="scale(1.3333333)" />
    <path
       id="path17"
       d="M 0.27,0.27 H 388.531"
       style="fill:none;stroke:#000000;stroke-width:0.216;stroke-linecap:square;stroke-linejoin:miter;stroke-miterlimit:3.25;stroke-dasharray:none;stroke-opacity:1"
       transform="scale(1.3333333)" />
    <path
       id="path18"
       d="M 388.531,0.27 V 127.828"
       style="fill:none;stroke:#000000;stroke-width:0.216;stroke-linecap:square;stroke-linejoin:miter;stroke-miterlimit:3.25;stroke-dasharray:none;stroke-opacity:1"
       transform="scale(1.3333333)" />
  </g>
</svg>
