<?xml version="1.0" encoding="UTF-8"?>
<svg xmlns="http://www.w3.org/2000/svg" xmlns:xlink="http://www.w3.org/1999/xlink" width="270pt" height="262pt" viewBox="0 0 270 262" version="1.1">
<g id="surface21">
<path style="fill:none;stroke-width:1.5;stroke-linecap:butt;stroke-linejoin:miter;stroke:rgb(0%,0%,0%);stroke-opacity:0.7;stroke-miterlimit:3.25;" d="M 59.632812 172.605469 L 118.386719 149.453125 " transform="matrix(1,0,0,1,-49.5,-3.75)"/>
<path style="fill:none;stroke-width:1.5;stroke-linecap:square;stroke-linejoin:miter;stroke:rgb(0%,0%,0%);stroke-opacity:0.7;stroke-miterlimit:3.25;" d="M 118.386719 149.453125 Z M 118.386719 149.453125 " transform="matrix(1,0,0,1,-49.5,-3.75)"/>
<path style="fill:none;stroke-width:1.5;stroke-linecap:butt;stroke-linejoin:miter;stroke:rgb(0%,0%,0%);stroke-opacity:0.7;stroke-dasharray:3,3;stroke-miterlimit:3.25;" d="M 122.738281 149.867188 L 184.054688 188.6875 " transform="matrix(1,0,0,1,-49.5,-3.75)"/>
<path style="fill:none;stroke-width:1.5;stroke-linecap:butt;stroke-linejoin:miter;stroke:rgb(0%,0%,0%);stroke-opacity:0.7;stroke-dasharray:3,3;stroke-miterlimit:3.25;" d="M 184.054688 188.6875 Z M 184.054688 188.6875 " transform="matrix(1,0,0,1,-49.5,-3.75)"/>
<path style="fill:none;stroke-width:1.5;stroke-linecap:butt;stroke-linejoin:miter;stroke:rgb(0%,0%,0%);stroke-opacity:0.7;stroke-dasharray:3,3;stroke-miterlimit:3.25;" d="M 121.277344 146.179688 L 139.382812 75.925781 " transform="matrix(1,0,0,1,-49.5,-3.75)"/>
<path style="fill:none;stroke-width:1.5;stroke-linecap:butt;stroke-linejoin:miter;stroke:rgb(0%,0%,0%);stroke-opacity:0.7;stroke-dasharray:3,3;stroke-miterlimit:3.25;" d="M 139.382812 75.925781 Z M 139.382812 75.925781 " transform="matrix(1,0,0,1,-49.5,-3.75)"/>
<path style="fill:none;stroke-width:1.5;stroke-linecap:butt;stroke-linejoin:miter;stroke:rgb(0%,0%,0%);stroke-opacity:0.7;stroke-miterlimit:3.25;" d="M 190.152344 255.351562 L 186.277344 192.445312 " transform="matrix(1,0,0,1,-49.5,-3.75)"/>
<path style="fill:none;stroke-width:1.5;stroke-linecap:square;stroke-linejoin:miter;stroke:rgb(0%,0%,0%);stroke-opacity:0.7;stroke-miterlimit:3.25;" d="M 186.277344 192.445312 Z M 186.277344 192.445312 " transform="matrix(1,0,0,1,-49.5,-3.75)"/>
<path style="fill:none;stroke-width:1.5;stroke-linecap:butt;stroke-linejoin:miter;stroke:rgb(0%,0%,0%);stroke-opacity:0.7;stroke-dasharray:3,3;stroke-miterlimit:3.25;" d="M 188.019531 188.4375 L 243.9375 142.292969 " transform="matrix(1,0,0,1,-49.5,-3.75)"/>
<path style="fill:none;stroke-width:1.5;stroke-linecap:butt;stroke-linejoin:miter;stroke:rgb(0%,0%,0%);stroke-opacity:0.7;stroke-dasharray:3,3;stroke-miterlimit:3.25;" d="M 243.9375 142.292969 Z M 243.9375 142.292969 " transform="matrix(1,0,0,1,-49.5,-3.75)"/>
<path style="fill:none;stroke-width:1.5;stroke-linecap:butt;stroke-linejoin:miter;stroke:rgb(0%,0%,0%);stroke-opacity:0.7;stroke-miterlimit:3.25;" d="M 309.273438 157.058594 L 248.203125 141.34375 " transform="matrix(1,0,0,1,-49.5,-3.75)"/>
<path style="fill:none;stroke-width:1.5;stroke-linecap:square;stroke-linejoin:miter;stroke:rgb(0%,0%,0%);stroke-opacity:0.7;stroke-miterlimit:3.25;" d="M 248.203125 141.34375 Z M 248.203125 141.34375 " transform="matrix(1,0,0,1,-49.5,-3.75)"/>
<path style="fill:none;stroke-width:1.5;stroke-linecap:butt;stroke-linejoin:miter;stroke:rgb(0%,0%,0%);stroke-opacity:0.7;stroke-dasharray:3,3;stroke-miterlimit:3.25;" d="M 244.925781 138.453125 L 218.183594 71.039062 " transform="matrix(1,0,0,1,-49.5,-3.75)"/>
<path style="fill:none;stroke-width:1.5;stroke-linecap:butt;stroke-linejoin:miter;stroke:rgb(0%,0%,0%);stroke-opacity:0.7;stroke-dasharray:3,3;stroke-miterlimit:3.25;" d="M 218.183594 71.039062 Z M 218.183594 71.039062 " transform="matrix(1,0,0,1,-49.5,-3.75)"/>
<path style="fill:none;stroke-width:1.5;stroke-linecap:butt;stroke-linejoin:miter;stroke:rgb(0%,0%,0%);stroke-opacity:0.7;stroke-miterlimit:3.25;" d="M 252.488281 13.453125 L 218.59375 66.691406 " transform="matrix(1,0,0,1,-49.5,-3.75)"/>
<path style="fill:none;stroke-width:1.5;stroke-linecap:square;stroke-linejoin:miter;stroke:rgb(0%,0%,0%);stroke-opacity:0.7;stroke-miterlimit:3.25;" d="M 218.59375 66.691406 Z M 218.59375 66.691406 " transform="matrix(1,0,0,1,-49.5,-3.75)"/>
<path style="fill:none;stroke-width:1.5;stroke-linecap:butt;stroke-linejoin:miter;stroke:rgb(0%,0%,0%);stroke-opacity:0.7;stroke-dasharray:3,3;stroke-miterlimit:3.25;" d="M 214.828125 68.914062 L 142.445312 73.402344 " transform="matrix(1,0,0,1,-49.5,-3.75)"/>
<path style="fill:none;stroke-width:1.5;stroke-linecap:butt;stroke-linejoin:miter;stroke:rgb(0%,0%,0%);stroke-opacity:0.7;stroke-dasharray:3,3;stroke-miterlimit:3.25;" d="M 142.445312 73.402344 Z M 142.445312 73.402344 " transform="matrix(1,0,0,1,-49.5,-3.75)"/>
<path style="fill:none;stroke-width:1.5;stroke-linecap:butt;stroke-linejoin:miter;stroke:rgb(0%,0%,0%);stroke-opacity:0.7;stroke-miterlimit:3.25;" d="M 98.269531 22.992188 L 138.433594 71.660156 " transform="matrix(1,0,0,1,-49.5,-3.75)"/>
<path style="fill:none;stroke-width:1.5;stroke-linecap:square;stroke-linejoin:miter;stroke:rgb(0%,0%,0%);stroke-opacity:0.7;stroke-miterlimit:3.25;" d="M 138.433594 71.660156 Z M 138.433594 71.660156 " transform="matrix(1,0,0,1,-49.5,-3.75)"/>
<path style="fill-rule:evenodd;fill:rgb(63.998413%,70.399475%,79.998779%);fill-opacity:1;stroke-width:0.75;stroke-linecap:square;stroke-linejoin:miter;stroke:rgb(0%,0%,0%);stroke-opacity:0.7;stroke-miterlimit:3.25;" d="M 59.804688 173.507812 C 59.804688 172.855469 59.546875 172.230469 59.085938 171.773438 C 58.625 171.3125 58.003906 171.054688 57.351562 171.054688 C 56.703125 171.054688 56.078125 171.3125 55.617188 171.773438 C 55.160156 172.230469 54.898438 172.855469 54.898438 173.507812 C 54.898438 174.15625 55.160156 174.78125 55.617188 175.242188 C 56.078125 175.699219 56.703125 175.957031 57.351562 175.957031 C 58.003906 175.957031 58.625 175.699219 59.085938 175.242188 C 59.546875 174.78125 59.804688 174.15625 59.804688 173.507812 Z M 59.804688 173.507812 " transform="matrix(1,0,0,1,-49.5,-3.75)"/>
<path style="fill-rule:evenodd;fill:rgb(63.998413%,70.399475%,79.998779%);fill-opacity:1;stroke-width:0.75;stroke-linecap:square;stroke-linejoin:miter;stroke:rgb(0%,0%,0%);stroke-opacity:0.7;stroke-miterlimit:3.25;" d="M 123.117188 148.554688 C 123.117188 147.90625 122.859375 147.28125 122.402344 146.820312 C 121.941406 146.359375 121.316406 146.101562 120.667969 146.101562 C 120.015625 146.101562 119.390625 146.359375 118.933594 146.820312 C 118.472656 147.28125 118.214844 147.90625 118.214844 148.554688 C 118.214844 149.207031 118.472656 149.828125 118.933594 150.289062 C 119.390625 150.75 120.015625 151.007812 120.667969 151.007812 C 121.316406 151.007812 121.941406 150.75 122.402344 150.289062 C 122.859375 149.828125 123.117188 149.207031 123.117188 148.554688 Z M 123.117188 148.554688 " transform="matrix(1,0,0,1,-49.5,-3.75)"/>
<path style="fill-rule:evenodd;fill:rgb(63.998413%,70.399475%,79.998779%);fill-opacity:1;stroke-width:0.75;stroke-linecap:square;stroke-linejoin:miter;stroke:rgb(0%,0%,0%);stroke-opacity:0.7;stroke-miterlimit:3.25;" d="M 192.753906 257.796875 C 192.753906 257.148438 192.496094 256.523438 192.035156 256.0625 C 191.574219 255.605469 190.953125 255.347656 190.300781 255.347656 C 189.652344 255.347656 189.027344 255.605469 188.566406 256.0625 C 188.105469 256.523438 187.847656 257.148438 187.847656 257.796875 C 187.847656 258.449219 188.105469 259.070312 188.566406 259.53125 C 189.027344 259.992188 189.652344 260.25 190.300781 260.25 C 190.953125 260.25 191.574219 259.992188 192.035156 259.53125 C 192.496094 259.070312 192.753906 258.449219 192.753906 257.796875 Z M 192.753906 257.796875 " transform="matrix(1,0,0,1,-49.5,-3.75)"/>
<path style="fill-rule:evenodd;fill:rgb(63.998413%,70.399475%,79.998779%);fill-opacity:1;stroke-width:0.75;stroke-linecap:square;stroke-linejoin:miter;stroke:rgb(0%,0%,0%);stroke-opacity:0.7;stroke-miterlimit:3.25;" d="M 188.578125 189.996094 C 188.578125 189.347656 188.320312 188.722656 187.859375 188.265625 C 187.402344 187.804688 186.777344 187.546875 186.125 187.546875 C 185.476562 187.546875 184.851562 187.804688 184.390625 188.265625 C 183.933594 188.722656 183.675781 189.347656 183.675781 189.996094 C 183.675781 190.648438 183.933594 191.273438 184.390625 191.730469 C 184.851562 192.191406 185.476562 192.449219 186.125 192.449219 C 186.777344 192.449219 187.402344 192.191406 187.859375 191.730469 C 188.320312 191.273438 188.578125 190.648438 188.578125 189.996094 Z M 188.578125 189.996094 " transform="matrix(1,0,0,1,-49.5,-3.75)"/>
<path style="fill-rule:evenodd;fill:rgb(63.998413%,70.399475%,79.998779%);fill-opacity:1;stroke-width:0.75;stroke-linecap:square;stroke-linejoin:miter;stroke:rgb(0%,0%,0%);stroke-opacity:0.7;stroke-miterlimit:3.25;" d="M 314.101562 157.671875 C 314.101562 157.019531 313.839844 156.394531 313.382812 155.9375 C 312.921875 155.476562 312.296875 155.21875 311.648438 155.21875 C 310.996094 155.21875 310.375 155.476562 309.914062 155.9375 C 309.453125 156.394531 309.195312 157.019531 309.195312 157.671875 C 309.195312 158.320312 309.453125 158.945312 309.914062 159.402344 C 310.375 159.863281 310.996094 160.121094 311.648438 160.121094 C 312.296875 160.121094 312.921875 159.863281 313.382812 159.402344 C 313.839844 158.945312 314.101562 158.320312 314.101562 157.671875 Z M 314.101562 157.671875 " transform="matrix(1,0,0,1,-49.5,-3.75)"/>
<path style="fill-rule:evenodd;fill:rgb(63.998413%,70.399475%,79.998779%);fill-opacity:1;stroke-width:0.75;stroke-linecap:square;stroke-linejoin:miter;stroke:rgb(0%,0%,0%);stroke-opacity:0.7;stroke-miterlimit:3.25;" d="M 248.28125 140.734375 C 248.28125 140.082031 248.023438 139.457031 247.5625 139 C 247.101562 138.539062 246.480469 138.28125 245.828125 138.28125 C 245.179688 138.28125 244.554688 138.539062 244.09375 139 C 243.636719 139.457031 243.378906 140.082031 243.378906 140.734375 C 243.378906 141.382812 243.636719 142.007812 244.09375 142.464844 C 244.554688 142.925781 245.179688 143.183594 245.828125 143.183594 C 246.480469 143.183594 247.101562 142.925781 247.5625 142.464844 C 248.023438 142.007812 248.28125 141.382812 248.28125 140.734375 Z M 248.28125 140.734375 " transform="matrix(1,0,0,1,-49.5,-3.75)"/>
<path style="fill-rule:evenodd;fill:rgb(63.998413%,70.399475%,79.998779%);fill-opacity:1;stroke-width:0.75;stroke-linecap:square;stroke-linejoin:miter;stroke:rgb(0%,0%,0%);stroke-opacity:0.7;stroke-miterlimit:3.25;" d="M 256.257812 11.386719 C 256.257812 10.734375 256 10.113281 255.539062 9.652344 C 255.078125 9.191406 254.457031 8.933594 253.804688 8.933594 C 253.15625 8.933594 252.53125 9.191406 252.070312 9.652344 C 251.613281 10.113281 251.351562 10.734375 251.351562 11.386719 C 251.351562 12.035156 251.613281 12.660156 252.070312 13.121094 C 252.53125 13.578125 253.15625 13.839844 253.804688 13.839844 C 254.457031 13.839844 255.078125 13.578125 255.539062 13.121094 C 256 12.660156 256.257812 12.035156 256.257812 11.386719 Z M 256.257812 11.386719 " transform="matrix(1,0,0,1,-49.5,-3.75)"/>
<path style="fill-rule:evenodd;fill:rgb(63.998413%,70.399475%,79.998779%);fill-opacity:1;stroke-width:0.75;stroke-linecap:square;stroke-linejoin:miter;stroke:rgb(0%,0%,0%);stroke-opacity:0.7;stroke-miterlimit:3.25;" d="M 219.730469 68.761719 C 219.730469 68.109375 219.472656 67.488281 219.011719 67.027344 C 218.550781 66.566406 217.929688 66.308594 217.277344 66.308594 C 216.628906 66.308594 216.003906 66.566406 215.542969 67.027344 C 215.082031 67.488281 214.824219 68.109375 214.824219 68.761719 C 214.824219 69.410156 215.082031 70.035156 215.542969 70.496094 C 216.003906 70.953125 216.628906 71.214844 217.277344 71.214844 C 217.929688 71.214844 218.550781 70.953125 219.011719 70.496094 C 219.472656 70.035156 219.730469 69.410156 219.730469 68.761719 Z M 219.730469 68.761719 " transform="matrix(1,0,0,1,-49.5,-3.75)"/>
<path style="fill-rule:evenodd;fill:rgb(63.998413%,70.399475%,79.998779%);fill-opacity:1;stroke-width:0.75;stroke-linecap:square;stroke-linejoin:miter;stroke:rgb(0%,0%,0%);stroke-opacity:0.7;stroke-miterlimit:3.25;" d="M 99.160156 21.101562 C 99.160156 20.449219 98.902344 19.824219 98.441406 19.367188 C 97.980469 18.90625 97.359375 18.648438 96.707031 18.648438 C 96.058594 18.648438 95.433594 18.90625 94.972656 19.367188 C 94.515625 19.824219 94.257812 20.449219 94.257812 21.101562 C 94.257812 21.75 94.515625 22.375 94.972656 22.835938 C 95.433594 23.292969 96.058594 23.550781 96.707031 23.550781 C 97.359375 23.550781 97.980469 23.292969 98.441406 22.835938 C 98.902344 22.375 99.160156 21.75 99.160156 21.101562 Z M 99.160156 21.101562 " transform="matrix(1,0,0,1,-49.5,-3.75)"/>
<path style="fill-rule:evenodd;fill:rgb(63.998413%,70.399475%,79.998779%);fill-opacity:1;stroke-width:0.75;stroke-linecap:square;stroke-linejoin:miter;stroke:rgb(0%,0%,0%);stroke-opacity:0.7;stroke-miterlimit:3.25;" d="M 142.449219 73.550781 C 142.449219 72.902344 142.191406 72.277344 141.730469 71.816406 C 141.269531 71.359375 140.644531 71.101562 139.996094 71.101562 C 139.34375 71.101562 138.722656 71.359375 138.261719 71.816406 C 137.800781 72.277344 137.542969 72.902344 137.542969 73.550781 C 137.542969 74.203125 137.800781 74.828125 138.261719 75.285156 C 138.722656 75.746094 139.34375 76.003906 139.996094 76.003906 C 140.644531 76.003906 141.269531 75.746094 141.730469 75.285156 C 142.191406 74.828125 142.449219 74.203125 142.449219 73.550781 Z M 142.449219 73.550781 " transform="matrix(1,0,0,1,-49.5,-3.75)"/>
</g>
</svg>
