<?xml version="1.0" encoding="UTF-8" standalone="no"?>
<!-- Created with Inkscape (http://www.inkscape.org/) -->

<svg
   version="1.1"
   id="svg2"
   xml:space="preserve"
   width="346.66666"
   height="336"
   viewBox="0 0 346.66666 336"
   sodipodi:docname="0w423j5lcoh4g.pdf"
   xmlns:inkscape="http://www.inkscape.org/namespaces/inkscape"
   xmlns:sodipodi="http://sodipodi.sourceforge.net/DTD/sodipodi-0.dtd"
   xmlns="http://www.w3.org/2000/svg"
   xmlns:svg="http://www.w3.org/2000/svg"><defs
     id="defs6" /><sodipodi:namedview
     id="namedview4"
     pagecolor="#505050"
     bordercolor="#eeeeee"
     borderopacity="1"
     inkscape:pageshadow="0"
     inkscape:pageopacity="0"
     inkscape:pagecheckerboard="0" /><g
     id="g8"
     inkscape:groupmode="layer"
     inkscape:label="0w423j5lcoh4g"
     transform="matrix(1.3333333,0,0,1.3333333,0,8.4e-6)"><g
       id="g10"><path
         d="M 9.727,162.102 66.129,139.875"
         style="fill:none;stroke:#000000;stroke-width:1.44;stroke-linecap:butt;stroke-linejoin:miter;stroke-miterlimit:3.25;stroke-dasharray:none;stroke-opacity:0.7"
         id="path12" /><path
         d="m 70.309,140.273 58.863,37.266"
         style="fill:none;stroke:#000000;stroke-width:1.44;stroke-linecap:butt;stroke-linejoin:miter;stroke-miterlimit:3.25;stroke-dasharray:2.88, 2.88;stroke-dashoffset:0;stroke-opacity:0.7"
         id="path14" /><path
         d="M 68.906,136.734 86.289,69.289"
         style="fill:none;stroke:#000000;stroke-width:1.44;stroke-linecap:butt;stroke-linejoin:miter;stroke-miterlimit:3.25;stroke-dasharray:2.88, 2.88;stroke-dashoffset:0;stroke-opacity:0.7"
         id="path16" /><path
         d="m 135.023,241.535 -3.718,-60.387"
         style="fill:none;stroke:#000000;stroke-width:1.44;stroke-linecap:butt;stroke-linejoin:miter;stroke-miterlimit:3.25;stroke-dasharray:none;stroke-opacity:0.7"
         id="path18" /><path
         d="M 132.977,177.301 186.66,133"
         style="fill:none;stroke:#000000;stroke-width:1.44;stroke-linecap:butt;stroke-linejoin:miter;stroke-miterlimit:3.25;stroke-dasharray:2.88, 2.88;stroke-dashoffset:0;stroke-opacity:0.7"
         id="path20" /><path
         d="M 249.383,147.176 190.758,132.09"
         style="fill:none;stroke:#000000;stroke-width:1.44;stroke-linecap:butt;stroke-linejoin:miter;stroke-miterlimit:3.25;stroke-dasharray:none;stroke-opacity:0.7"
         id="path22" /><path
         d="M 187.609,129.316 161.934,64.598"
         style="fill:none;stroke:#000000;stroke-width:1.44;stroke-linecap:butt;stroke-linejoin:miter;stroke-miterlimit:3.25;stroke-dasharray:2.88, 2.88;stroke-dashoffset:0;stroke-opacity:0.7"
         id="path24" /><path
         d="m 194.871,9.316 -32.539,51.11"
         style="fill:none;stroke:#000000;stroke-width:1.44;stroke-linecap:butt;stroke-linejoin:miter;stroke-miterlimit:3.25;stroke-dasharray:none;stroke-opacity:0.7"
         id="path26" /><path
         d="M 158.719,62.555 89.227,66.863"
         style="fill:none;stroke:#000000;stroke-width:1.44;stroke-linecap:butt;stroke-linejoin:miter;stroke-miterlimit:3.25;stroke-dasharray:2.88, 2.88;stroke-dashoffset:0;stroke-opacity:0.7"
         id="path28" /><path
         d="M 46.816,18.473 85.379,65.195"
         style="fill:none;stroke:#000000;stroke-width:1.44;stroke-linecap:butt;stroke-linejoin:miter;stroke-miterlimit:3.25;stroke-dasharray:none;stroke-opacity:0.7"
         id="path30" /><path
         d="m 9.891,162.965 c 0,-0.625 -0.246,-1.223 -0.688,-1.664 -0.441,-0.442 -1.039,-0.688 -1.664,-0.688 -0.625,0 -1.223,0.246 -1.664,0.688 -0.441,0.441 -0.691,1.039 -0.691,1.664 0,0.625 0.25,1.223 0.691,1.664 0.441,0.441 1.039,0.691 1.664,0.691 0.625,0 1.223,-0.25 1.664,-0.691 0.442,-0.441 0.688,-1.039 0.688,-1.664 z"
         style="fill:#a3b4cc;fill-opacity:1;fill-rule:evenodd;stroke:none"
         id="path32" /><path
         d="m 9.891,162.965 c 0,-0.625 -0.246,-1.223 -0.688,-1.664 -0.441,-0.442 -1.039,-0.688 -1.664,-0.688 -0.625,0 -1.223,0.246 -1.664,0.688 -0.441,0.441 -0.691,1.039 -0.691,1.664 0,0.625 0.25,1.223 0.691,1.664 0.441,0.441 1.039,0.691 1.664,0.691 0.625,0 1.223,-0.25 1.664,-0.691 0.442,-0.441 0.688,-1.039 0.688,-1.664 z"
         style="fill:none;stroke:#000000;stroke-width:0.36;stroke-linecap:square;stroke-linejoin:miter;stroke-miterlimit:3.25;stroke-dasharray:none;stroke-opacity:0.7"
         id="path34" /><path
         d="m 70.676,139.012 c 0,-0.625 -0.25,-1.223 -0.692,-1.664 -0.441,-0.442 -1.039,-0.688 -1.664,-0.688 -0.625,0 -1.222,0.246 -1.664,0.688 -0.441,0.441 -0.691,1.039 -0.691,1.664 0,0.625 0.25,1.222 0.691,1.664 0.442,0.441 1.039,0.691 1.664,0.691 0.625,0 1.223,-0.25 1.664,-0.691 0.442,-0.442 0.692,-1.039 0.692,-1.664 z"
         style="fill:#a3b4cc;fill-opacity:1;fill-rule:evenodd;stroke:none"
         id="path36" /><path
         d="m 70.676,139.012 c 0,-0.625 -0.25,-1.223 -0.692,-1.664 -0.441,-0.442 -1.039,-0.688 -1.664,-0.688 -0.625,0 -1.222,0.246 -1.664,0.688 -0.441,0.441 -0.691,1.039 -0.691,1.664 0,0.625 0.25,1.222 0.691,1.664 0.442,0.441 1.039,0.691 1.664,0.691 0.625,0 1.223,-0.25 1.664,-0.691 0.442,-0.442 0.692,-1.039 0.692,-1.664 z"
         style="fill:none;stroke:#000000;stroke-width:0.36;stroke-linecap:square;stroke-linejoin:miter;stroke-miterlimit:3.25;stroke-dasharray:none;stroke-opacity:0.7"
         id="path38" /><path
         d="m 137.523,243.887 c 0,-0.625 -0.25,-1.223 -0.691,-1.664 -0.441,-0.442 -1.039,-0.692 -1.664,-0.692 -0.625,0 -1.223,0.25 -1.664,0.692 -0.442,0.441 -0.688,1.039 -0.688,1.664 0,0.625 0.246,1.222 0.688,1.664 0.441,0.441 1.039,0.691 1.664,0.691 0.625,0 1.223,-0.25 1.664,-0.691 0.441,-0.442 0.691,-1.039 0.691,-1.664 z"
         style="fill:#a3b4cc;fill-opacity:1;fill-rule:evenodd;stroke:none"
         id="path40" /><path
         d="m 137.523,243.887 c 0,-0.625 -0.25,-1.223 -0.691,-1.664 -0.441,-0.442 -1.039,-0.692 -1.664,-0.692 -0.625,0 -1.223,0.25 -1.664,0.692 -0.442,0.441 -0.688,1.039 -0.688,1.664 0,0.625 0.246,1.222 0.688,1.664 0.441,0.441 1.039,0.691 1.664,0.691 0.625,0 1.223,-0.25 1.664,-0.691 0.441,-0.442 0.691,-1.039 0.691,-1.664 z"
         style="fill:none;stroke:#000000;stroke-width:0.36;stroke-linecap:square;stroke-linejoin:miter;stroke-miterlimit:3.25;stroke-dasharray:none;stroke-opacity:0.7"
         id="path42" /><path
         d="m 133.516,178.797 c 0,-0.625 -0.25,-1.223 -0.692,-1.664 -0.441,-0.442 -1.039,-0.688 -1.664,-0.688 -0.625,0 -1.222,0.246 -1.664,0.688 -0.441,0.441 -0.687,1.039 -0.687,1.664 0,0.625 0.246,1.223 0.687,1.664 0.442,0.441 1.039,0.691 1.664,0.691 0.625,0 1.223,-0.25 1.664,-0.691 0.442,-0.441 0.692,-1.039 0.692,-1.664 z"
         style="fill:#a3b4cc;fill-opacity:1;fill-rule:evenodd;stroke:none"
         id="path44" /><path
         d="m 133.516,178.797 c 0,-0.625 -0.25,-1.223 -0.692,-1.664 -0.441,-0.442 -1.039,-0.688 -1.664,-0.688 -0.625,0 -1.222,0.246 -1.664,0.688 -0.441,0.441 -0.687,1.039 -0.687,1.664 0,0.625 0.246,1.223 0.687,1.664 0.442,0.441 1.039,0.691 1.664,0.691 0.625,0 1.223,-0.25 1.664,-0.691 0.442,-0.441 0.692,-1.039 0.692,-1.664 z"
         style="fill:none;stroke:#000000;stroke-width:0.36;stroke-linecap:square;stroke-linejoin:miter;stroke-miterlimit:3.25;stroke-dasharray:none;stroke-opacity:0.7"
         id="path46" /><path
         d="m 254.016,147.762 c 0,-0.621 -0.246,-1.223 -0.688,-1.664 -0.441,-0.442 -1.043,-0.688 -1.668,-0.688 -0.621,0 -1.222,0.246 -1.664,0.688 -0.441,0.441 -0.687,1.043 -0.687,1.664 0,0.625 0.246,1.226 0.687,1.668 0.442,0.441 1.043,0.687 1.664,0.687 0.625,0 1.227,-0.246 1.668,-0.687 0.442,-0.442 0.688,-1.043 0.688,-1.668 z"
         style="fill:#a3b4cc;fill-opacity:1;fill-rule:evenodd;stroke:none"
         id="path48" /><path
         d="m 254.016,147.762 c 0,-0.621 -0.246,-1.223 -0.688,-1.664 -0.441,-0.442 -1.043,-0.688 -1.668,-0.688 -0.621,0 -1.222,0.246 -1.664,0.688 -0.441,0.441 -0.687,1.043 -0.687,1.664 0,0.625 0.246,1.226 0.687,1.668 0.442,0.441 1.043,0.687 1.664,0.687 0.625,0 1.227,-0.246 1.668,-0.687 0.442,-0.442 0.688,-1.043 0.688,-1.668 z"
         style="fill:none;stroke:#000000;stroke-width:0.36;stroke-linecap:square;stroke-linejoin:miter;stroke-miterlimit:3.25;stroke-dasharray:none;stroke-opacity:0.7"
         id="path50" /><path
         d="m 190.832,131.504 c 0,-0.625 -0.25,-1.223 -0.691,-1.664 -0.442,-0.442 -1.039,-0.692 -1.664,-0.692 -0.625,0 -1.223,0.25 -1.665,0.692 -0.441,0.441 -0.691,1.039 -0.691,1.664 0,0.625 0.25,1.223 0.691,1.664 0.442,0.441 1.04,0.687 1.665,0.687 0.625,0 1.222,-0.246 1.664,-0.687 0.441,-0.441 0.691,-1.039 0.691,-1.664 z"
         style="fill:#a3b4cc;fill-opacity:1;fill-rule:evenodd;stroke:none"
         id="path52" /><path
         d="m 190.832,131.504 c 0,-0.625 -0.25,-1.223 -0.691,-1.664 -0.442,-0.442 -1.039,-0.692 -1.664,-0.692 -0.625,0 -1.223,0.25 -1.665,0.692 -0.441,0.441 -0.691,1.039 -0.691,1.664 0,0.625 0.25,1.223 0.691,1.664 0.442,0.441 1.04,0.687 1.665,0.687 0.625,0 1.222,-0.246 1.664,-0.687 0.441,-0.441 0.691,-1.039 0.691,-1.664 z"
         style="fill:none;stroke:#000000;stroke-width:0.36;stroke-linecap:square;stroke-linejoin:miter;stroke-miterlimit:3.25;stroke-dasharray:none;stroke-opacity:0.7"
         id="path54" /><path
         d="m 198.488,7.332 c 0,-0.625 -0.25,-1.223 -0.691,-1.664 -0.442,-0.441 -1.039,-0.691 -1.664,-0.691 -0.625,0 -1.223,0.25 -1.664,0.691 -0.442,0.441 -0.688,1.039 -0.688,1.664 0,0.621 0.246,1.223 0.688,1.664 0.441,0.442 1.039,0.688 1.664,0.688 0.625,0 1.222,-0.246 1.664,-0.688 0.441,-0.441 0.691,-1.043 0.691,-1.664 z"
         style="fill:#a3b4cc;fill-opacity:1;fill-rule:evenodd;stroke:none"
         id="path56" /><path
         d="m 198.488,7.332 c 0,-0.625 -0.25,-1.223 -0.691,-1.664 -0.442,-0.441 -1.039,-0.691 -1.664,-0.691 -0.625,0 -1.223,0.25 -1.664,0.691 -0.442,0.441 -0.688,1.039 -0.688,1.664 0,0.621 0.246,1.223 0.688,1.664 0.441,0.442 1.039,0.688 1.664,0.688 0.625,0 1.222,-0.246 1.664,-0.688 0.441,-0.441 0.691,-1.043 0.691,-1.664 z"
         style="fill:none;stroke:#000000;stroke-width:0.36;stroke-linecap:square;stroke-linejoin:miter;stroke-miterlimit:3.25;stroke-dasharray:none;stroke-opacity:0.7"
         id="path58" /><path
         d="m 163.422,62.41 c 0,-0.625 -0.25,-1.222 -0.692,-1.664 -0.441,-0.441 -1.039,-0.691 -1.664,-0.691 -0.625,0 -1.222,0.25 -1.664,0.691 -0.441,0.442 -0.691,1.039 -0.691,1.664 0,0.625 0.25,1.223 0.691,1.664 0.442,0.442 1.039,0.692 1.664,0.692 0.625,0 1.223,-0.25 1.664,-0.692 0.442,-0.441 0.692,-1.039 0.692,-1.664 z"
         style="fill:#a3b4cc;fill-opacity:1;fill-rule:evenodd;stroke:none"
         id="path60" /><path
         d="m 163.422,62.41 c 0,-0.625 -0.25,-1.222 -0.692,-1.664 -0.441,-0.441 -1.039,-0.691 -1.664,-0.691 -0.625,0 -1.222,0.25 -1.664,0.691 -0.441,0.442 -0.691,1.039 -0.691,1.664 0,0.625 0.25,1.223 0.691,1.664 0.442,0.442 1.039,0.692 1.664,0.692 0.625,0 1.223,-0.25 1.664,-0.692 0.442,-0.441 0.692,-1.039 0.692,-1.664 z"
         style="fill:none;stroke:#000000;stroke-width:0.36;stroke-linecap:square;stroke-linejoin:miter;stroke-miterlimit:3.25;stroke-dasharray:none;stroke-opacity:0.7"
         id="path62" /><path
         d="m 47.676,16.656 c 0,-0.625 -0.25,-1.222 -0.692,-1.664 -0.441,-0.441 -1.039,-0.691 -1.664,-0.691 -0.625,0 -1.222,0.25 -1.664,0.691 -0.441,0.442 -0.691,1.039 -0.691,1.664 0,0.625 0.25,1.223 0.691,1.664 0.442,0.442 1.039,0.692 1.664,0.692 0.625,0 1.223,-0.25 1.664,-0.692 0.442,-0.441 0.692,-1.039 0.692,-1.664 z"
         style="fill:#a3b4cc;fill-opacity:1;fill-rule:evenodd;stroke:none"
         id="path64" /><path
         d="m 47.676,16.656 c 0,-0.625 -0.25,-1.222 -0.692,-1.664 -0.441,-0.441 -1.039,-0.691 -1.664,-0.691 -0.625,0 -1.222,0.25 -1.664,0.691 -0.441,0.442 -0.691,1.039 -0.691,1.664 0,0.625 0.25,1.223 0.691,1.664 0.442,0.442 1.039,0.692 1.664,0.692 0.625,0 1.223,-0.25 1.664,-0.692 0.442,-0.441 0.692,-1.039 0.692,-1.664 z"
         style="fill:none;stroke:#000000;stroke-width:0.36;stroke-linecap:square;stroke-linejoin:miter;stroke-miterlimit:3.25;stroke-dasharray:none;stroke-opacity:0.7"
         id="path66" /><path
         d="m 89.23,67.012 c 0,-0.625 -0.25,-1.227 -0.691,-1.668 -0.441,-0.442 -1.039,-0.688 -1.664,-0.688 -0.625,0 -1.223,0.246 -1.664,0.688 -0.441,0.441 -0.688,1.043 -0.688,1.668 0,0.621 0.247,1.222 0.688,1.664 0.441,0.441 1.039,0.687 1.664,0.687 0.625,0 1.223,-0.246 1.664,-0.687 0.441,-0.442 0.691,-1.043 0.691,-1.664 z"
         style="fill:#a3b4cc;fill-opacity:1;fill-rule:evenodd;stroke:none"
         id="path68" /><path
         d="m 89.23,67.012 c 0,-0.625 -0.25,-1.227 -0.691,-1.668 -0.441,-0.442 -1.039,-0.688 -1.664,-0.688 -0.625,0 -1.223,0.246 -1.664,0.688 -0.441,0.441 -0.688,1.043 -0.688,1.668 0,0.621 0.247,1.222 0.688,1.664 0.441,0.441 1.039,0.687 1.664,0.687 0.625,0 1.223,-0.246 1.664,-0.687 0.441,-0.442 0.691,-1.043 0.691,-1.664 z"
         style="fill:none;stroke:#000000;stroke-width:0.36;stroke-linecap:square;stroke-linejoin:miter;stroke-miterlimit:3.25;stroke-dasharray:none;stroke-opacity:0.7"
         id="path70" /></g></g></svg>
