<?xml version="1.0" encoding="UTF-8" standalone="no"?>
<!-- Created with Inkscape (http://www.inkscape.org/) -->

<svg
   version="1.1"
   id="svg2"
   xml:space="preserve"
   width="346.66666"
   height="109.33333"
   viewBox="0 0 346.66666 109.33333"
   sodipodi:docname="0wyc1k9e4tb0q.pdf"
   xmlns:inkscape="http://www.inkscape.org/namespaces/inkscape"
   xmlns:sodipodi="http://sodipodi.sourceforge.net/DTD/sodipodi-0.dtd"
   xmlns="http://www.w3.org/2000/svg"
   xmlns:svg="http://www.w3.org/2000/svg"><defs
     id="defs6"><clipPath
       clipPathUnits="userSpaceOnUse"
       id="clipPath70"><path
         d="m 0,81 h 259.199 v 0.359 H 0 Z"
         id="path68" /></clipPath><clipPath
       clipPathUnits="userSpaceOnUse"
       id="clipPath80"><path
         d="M 0,0 H 1 V 81.359 H 0 Z"
         id="path78" /></clipPath><clipPath
       clipPathUnits="userSpaceOnUse"
       id="clipPath90"><path
         d="M 0,0 H 259.199 V 1 H 0 Z"
         id="path88" /></clipPath><clipPath
       clipPathUnits="userSpaceOnUse"
       id="clipPath100"><path
         d="m 258,0 h 1.199 V 81.359 H 258 Z"
         id="path98" /></clipPath></defs><sodipodi:namedview
     id="namedview4"
     pagecolor="#505050"
     bordercolor="#eeeeee"
     borderopacity="1"
     inkscape:pageshadow="0"
     inkscape:pageopacity="0"
     inkscape:pagecheckerboard="0" /><g
     id="g8"
     inkscape:groupmode="layer"
     inkscape:label="0wyc1k9e4tb0q"
     transform="scale(1.3333333)"><g
       id="g10"><path
         d="M 9.645,8.012 62.801,24.965"
         style="fill:none;stroke:#000000;stroke-width:1.44;stroke-linecap:butt;stroke-linejoin:miter;stroke-miterlimit:3.25;stroke-dasharray:none;stroke-opacity:0.7"
         id="path12" /><path
         d="m 67.066,25.312 60.438,-8.898"
         style="fill:none;stroke:#000000;stroke-width:1.44;stroke-linecap:butt;stroke-linejoin:miter;stroke-miterlimit:3.25;stroke-dasharray:2.88, 2.88;stroke-dashoffset:0;stroke-opacity:0.7"
         id="path14" /><path
         d="M 66.133,27.441 96.766,72.168"
         style="fill:none;stroke:#000000;stroke-width:1.44;stroke-linecap:butt;stroke-linejoin:miter;stroke-miterlimit:3.25;stroke-dasharray:none;stroke-opacity:0.7"
         id="path16" /><path
         d="M 249.559,8.02 196.488,24.961"
         style="fill:none;stroke:#000000;stroke-width:1.44;stroke-linecap:butt;stroke-linejoin:miter;stroke-miterlimit:3.25;stroke-dasharray:none;stroke-opacity:0.7"
         id="path18" /><path
         d="M 193.156,27.438 162.469,72.152"
         style="fill:none;stroke:#000000;stroke-width:1.44;stroke-linecap:butt;stroke-linejoin:miter;stroke-miterlimit:3.25;stroke-dasharray:2.88, 2.88;stroke-dashoffset:0;stroke-opacity:0.7"
         id="path20" /><path
         d="M 192.227,25.309 131.848,16.414"
         style="fill:none;stroke:#000000;stroke-width:1.44;stroke-linecap:butt;stroke-linejoin:miter;stroke-miterlimit:3.25;stroke-dasharray:none;stroke-opacity:0.7"
         id="path22" /><path
         d="m 159.035,73.961 -58.832,0.016"
         style="fill:none;stroke:#000000;stroke-width:1.44;stroke-linecap:butt;stroke-linejoin:miter;stroke-miterlimit:3.25;stroke-dasharray:none;stroke-opacity:0.7"
         id="path24" /><path
         d="M 159.172,73.195 131.688,62.93"
         style="fill:none;stroke:#000000;stroke-width:1.44;stroke-linecap:butt;stroke-linejoin:miter;stroke-miterlimit:3.25;stroke-dasharray:none;stroke-opacity:0.7"
         id="path26" /><path
         d="m 129.676,18.289 -0.043,41.676"
         style="fill:none;stroke:#0000ff;stroke-width:1.44;stroke-linecap:butt;stroke-linejoin:miter;stroke-miterlimit:3.25;stroke-dasharray:2.88, 2.88;stroke-dashoffset:0;stroke-opacity:0.7"
         id="path28" /><path
         d="M 100.062,73.211 127.574,62.93"
         style="fill:none;stroke:#000000;stroke-width:1.44;stroke-linecap:butt;stroke-linejoin:miter;stroke-miterlimit:3.25;stroke-dasharray:none;stroke-opacity:0.7"
         id="path30" /><path
         d="M 9.746,7.344 C 9.746,6.762 9.516,6.203 9.105,5.793 8.691,5.383 8.133,5.148 7.551,5.148 6.969,5.148 6.41,5.383 6,5.793 5.59,6.203 5.355,6.762 5.355,7.344 5.355,7.926 5.59,8.484 6,8.895 6.41,9.309 6.969,9.539 7.551,9.539 8.133,9.539 8.691,9.309 9.105,8.895 9.516,8.484 9.746,7.926 9.746,7.344 Z"
         style="fill:#a3b4cc;fill-opacity:1;fill-rule:evenodd;stroke:none"
         id="path32" /><path
         d="M 9.746,7.344 C 9.746,6.762 9.516,6.203 9.105,5.793 8.691,5.383 8.133,5.148 7.551,5.148 6.969,5.148 6.41,5.383 6,5.793 5.59,6.203 5.355,6.762 5.355,7.344 5.355,7.926 5.59,8.484 6,8.895 6.41,9.309 6.969,9.539 7.551,9.539 8.133,9.539 8.691,9.309 9.105,8.895 9.516,8.484 9.746,7.926 9.746,7.344 Z"
         style="fill:none;stroke:#000000;stroke-width:0.36;stroke-linecap:square;stroke-linejoin:miter;stroke-miterlimit:3.25;stroke-dasharray:none;stroke-opacity:0.7"
         id="path34" /><path
         d="m 67.09,25.629 c 0,-0.582 -0.235,-1.137 -0.645,-1.551 -0.41,-0.41 -0.968,-0.64 -1.55,-0.64 -0.583,0 -1.141,0.23 -1.555,0.64 -0.41,0.414 -0.641,0.969 -0.641,1.551 0,0.582 0.231,1.141 0.641,1.555 0.414,0.41 0.972,0.64 1.555,0.64 0.582,0 1.14,-0.23 1.55,-0.64 0.41,-0.414 0.645,-0.973 0.645,-1.555 z"
         style="fill:#a3b4cc;fill-opacity:1;fill-rule:evenodd;stroke:none"
         id="path36" /><path
         d="m 67.09,25.629 c 0,-0.582 -0.235,-1.137 -0.645,-1.551 -0.41,-0.41 -0.968,-0.64 -1.55,-0.64 -0.583,0 -1.141,0.23 -1.555,0.64 -0.41,0.414 -0.641,0.969 -0.641,1.551 0,0.582 0.231,1.141 0.641,1.555 0.414,0.41 0.972,0.64 1.555,0.64 0.582,0 1.14,-0.23 1.55,-0.64 0.41,-0.414 0.645,-0.973 0.645,-1.555 z"
         style="fill:none;stroke:#000000;stroke-width:0.36;stroke-linecap:square;stroke-linejoin:miter;stroke-miterlimit:3.25;stroke-dasharray:none;stroke-opacity:0.7"
         id="path38" /><path
         d="m 253.844,7.352 c 0,-0.582 -0.231,-1.141 -0.645,-1.551 -0.41,-0.41 -0.969,-0.641 -1.551,-0.641 -0.582,0 -1.14,0.231 -1.55,0.641 -0.414,0.41 -0.645,0.969 -0.645,1.551 0,0.582 0.231,1.14 0.645,1.554 0.41,0.41 0.968,0.641 1.55,0.641 0.582,0 1.141,-0.231 1.551,-0.641 0.414,-0.414 0.645,-0.972 0.645,-1.554 z"
         style="fill:#a3b4cc;fill-opacity:1;fill-rule:evenodd;stroke:none"
         id="path40" /><path
         d="m 253.844,7.352 c 0,-0.582 -0.231,-1.141 -0.645,-1.551 -0.41,-0.41 -0.969,-0.641 -1.551,-0.641 -0.582,0 -1.14,0.231 -1.55,0.641 -0.414,0.41 -0.645,0.969 -0.645,1.551 0,0.582 0.231,1.14 0.645,1.554 0.41,0.41 0.968,0.641 1.55,0.641 0.582,0 1.141,-0.231 1.551,-0.641 0.414,-0.414 0.645,-0.972 0.645,-1.554 z"
         style="fill:none;stroke:#000000;stroke-width:0.36;stroke-linecap:square;stroke-linejoin:miter;stroke-miterlimit:3.25;stroke-dasharray:none;stroke-opacity:0.7"
         id="path42" /><path
         d="m 196.594,25.629 c 0,-0.582 -0.231,-1.141 -0.645,-1.551 -0.41,-0.414 -0.969,-0.644 -1.551,-0.644 -0.582,0 -1.14,0.23 -1.55,0.644 -0.414,0.41 -0.645,0.969 -0.645,1.551 0,0.582 0.231,1.141 0.645,1.551 0.41,0.414 0.968,0.644 1.55,0.644 0.582,0 1.141,-0.23 1.551,-0.644 0.414,-0.41 0.645,-0.969 0.645,-1.551 z"
         style="fill:#a3b4cc;fill-opacity:1;fill-rule:evenodd;stroke:none"
         id="path44" /><path
         d="m 196.594,25.629 c 0,-0.582 -0.231,-1.141 -0.645,-1.551 -0.41,-0.414 -0.969,-0.644 -1.551,-0.644 -0.582,0 -1.14,0.23 -1.55,0.644 -0.414,0.41 -0.645,0.969 -0.645,1.551 0,0.582 0.231,1.141 0.645,1.551 0.41,0.414 0.968,0.644 1.55,0.644 0.582,0 1.141,-0.23 1.551,-0.644 0.414,-0.41 0.645,-0.969 0.645,-1.551 z"
         style="fill:none;stroke:#000000;stroke-width:0.36;stroke-linecap:square;stroke-linejoin:miter;stroke-miterlimit:3.25;stroke-dasharray:none;stroke-opacity:0.7"
         id="path46" /><path
         d="m 163.422,73.961 c 0,-0.582 -0.231,-1.141 -0.641,-1.551 -0.414,-0.41 -0.969,-0.644 -1.551,-0.644 -0.582,0 -1.14,0.234 -1.554,0.644 -0.41,0.41 -0.641,0.969 -0.641,1.551 0,0.582 0.231,1.141 0.641,1.555 0.414,0.41 0.972,0.64 1.554,0.64 0.582,0 1.137,-0.23 1.551,-0.64 0.41,-0.414 0.641,-0.973 0.641,-1.555 z"
         style="fill:#a3b4cc;fill-opacity:1;fill-rule:evenodd;stroke:none"
         id="path48" /><path
         d="m 163.422,73.961 c 0,-0.582 -0.231,-1.141 -0.641,-1.551 -0.414,-0.41 -0.969,-0.644 -1.551,-0.644 -0.582,0 -1.14,0.234 -1.554,0.644 -0.41,0.41 -0.641,0.969 -0.641,1.551 0,0.582 0.231,1.141 0.641,1.555 0.414,0.41 0.972,0.64 1.554,0.64 0.582,0 1.137,-0.23 1.551,-0.64 0.41,-0.414 0.641,-0.973 0.641,-1.555 z"
         style="fill:none;stroke:#000000;stroke-width:0.36;stroke-linecap:square;stroke-linejoin:miter;stroke-miterlimit:3.25;stroke-dasharray:none;stroke-opacity:0.7"
         id="path50" /><path
         d="m 131.871,16.094 c 0,-0.582 -0.23,-1.137 -0.644,-1.551 -0.411,-0.41 -0.969,-0.641 -1.551,-0.641 -0.582,0 -1.141,0.231 -1.551,0.641 -0.41,0.414 -0.645,0.969 -0.645,1.551 0,0.586 0.235,1.14 0.645,1.554 0.41,0.411 0.969,0.641 1.551,0.641 0.582,0 1.14,-0.23 1.551,-0.641 0.414,-0.414 0.644,-0.968 0.644,-1.554 z"
         style="fill:#a3b4cc;fill-opacity:1;fill-rule:evenodd;stroke:none"
         id="path52" /><path
         d="m 131.871,16.094 c 0,-0.582 -0.23,-1.137 -0.644,-1.551 -0.411,-0.41 -0.969,-0.641 -1.551,-0.641 -0.582,0 -1.141,0.231 -1.551,0.641 -0.41,0.414 -0.645,0.969 -0.645,1.551 0,0.586 0.235,1.14 0.645,1.554 0.41,0.411 0.969,0.641 1.551,0.641 0.582,0 1.14,-0.23 1.551,-0.641 0.414,-0.414 0.644,-0.968 0.644,-1.554 z"
         style="fill:none;stroke:#000000;stroke-width:0.36;stroke-linecap:square;stroke-linejoin:miter;stroke-miterlimit:3.25;stroke-dasharray:none;stroke-opacity:0.7"
         id="path54" /><path
         d="m 100.203,73.977 c 0,-0.582 -0.234,-1.141 -0.644,-1.551 -0.411,-0.41 -0.969,-0.645 -1.551,-0.645 -0.582,0 -1.141,0.235 -1.555,0.645 -0.41,0.41 -0.641,0.969 -0.641,1.551 0,0.582 0.231,1.14 0.641,1.554 0.414,0.41 0.973,0.641 1.555,0.641 0.582,0 1.14,-0.231 1.551,-0.641 0.41,-0.414 0.644,-0.972 0.644,-1.554 z"
         style="fill:#a3b4cc;fill-opacity:1;fill-rule:evenodd;stroke:none"
         id="path56" /><path
         d="m 100.203,73.977 c 0,-0.582 -0.234,-1.141 -0.644,-1.551 -0.411,-0.41 -0.969,-0.645 -1.551,-0.645 -0.582,0 -1.141,0.235 -1.555,0.645 -0.41,0.41 -0.641,0.969 -0.641,1.551 0,0.582 0.231,1.14 0.641,1.554 0.414,0.41 0.973,0.641 1.555,0.641 0.582,0 1.14,-0.231 1.551,-0.641 0.41,-0.414 0.644,-0.972 0.644,-1.554 z"
         style="fill:none;stroke:#000000;stroke-width:0.36;stroke-linecap:square;stroke-linejoin:miter;stroke-miterlimit:3.25;stroke-dasharray:none;stroke-opacity:0.7"
         id="path58" /><path
         d="m 131.824,62.16 c 0,-0.582 -0.23,-1.14 -0.64,-1.551 -0.414,-0.414 -0.973,-0.644 -1.555,-0.644 -0.582,0 -1.141,0.23 -1.551,0.644 -0.41,0.411 -0.644,0.969 -0.644,1.551 0,0.582 0.234,1.141 0.644,1.551 0.41,0.414 0.969,0.644 1.551,0.644 0.582,0 1.141,-0.23 1.555,-0.644 0.41,-0.41 0.64,-0.969 0.64,-1.551 z"
         style="fill:#a3b4cc;fill-opacity:1;fill-rule:evenodd;stroke:none"
         id="path60" /><path
         d="m 131.824,62.16 c 0,-0.582 -0.23,-1.14 -0.64,-1.551 -0.414,-0.414 -0.973,-0.644 -1.555,-0.644 -0.582,0 -1.141,0.23 -1.551,0.644 -0.41,0.411 -0.644,0.969 -0.644,1.551 0,0.582 0.234,1.141 0.644,1.551 0.41,0.414 0.969,0.644 1.551,0.644 0.582,0 1.141,-0.23 1.555,-0.644 0.41,-0.41 0.64,-0.969 0.64,-1.551 z"
         style="fill:none;stroke:#000000;stroke-width:0.36;stroke-linecap:square;stroke-linejoin:miter;stroke-miterlimit:3.25;stroke-dasharray:none;stroke-opacity:0.7"
         id="path62" /></g><g
       id="g64"><g
         id="g66"
         clip-path="url(#clipPath70)"><path
           d="M 259.02,81.141 H 0.18"
           style="fill:none;stroke:#000000;stroke-width:0.144;stroke-linecap:square;stroke-linejoin:miter;stroke-miterlimit:3.25;stroke-dasharray:none;stroke-opacity:1"
           id="path72" /></g></g><g
       id="g74"><g
         id="g76"
         clip-path="url(#clipPath80)"><path
           d="M 0.18,81.141 V 0.18"
           style="fill:none;stroke:#000000;stroke-width:0.144;stroke-linecap:square;stroke-linejoin:miter;stroke-miterlimit:3.25;stroke-dasharray:none;stroke-opacity:1"
           id="path82" /></g></g><g
       id="g84"><g
         id="g86"
         clip-path="url(#clipPath90)"><path
           d="M 0.18,0.18 H 259.02"
           style="fill:none;stroke:#000000;stroke-width:0.144;stroke-linecap:square;stroke-linejoin:miter;stroke-miterlimit:3.25;stroke-dasharray:none;stroke-opacity:1"
           id="path92" /></g></g><g
       id="g94"><g
         id="g96"
         clip-path="url(#clipPath100)"><path
           d="M 259.02,0.18 V 81.141"
           style="fill:none;stroke:#000000;stroke-width:0.144;stroke-linecap:square;stroke-linejoin:miter;stroke-miterlimit:3.25;stroke-dasharray:none;stroke-opacity:1"
           id="path102" /></g></g></g></svg>
