<?xml version="1.0" encoding="UTF-8" standalone="no"?>
<!-- Created with Inkscape (http://www.inkscape.org/) -->

<svg
   version="1.1"
   id="svg1"
   width="346.66666"
   height="345.33334"
   viewBox="0 0 346.66666 345.33334"
   sodipodi:docname="0xn073imfahml.pdf"
   xmlns:inkscape="http://www.inkscape.org/namespaces/inkscape"
   xmlns:sodipodi="http://sodipodi.sourceforge.net/DTD/sodipodi-0.dtd"
   xmlns="http://www.w3.org/2000/svg"
   xmlns:svg="http://www.w3.org/2000/svg">
  <defs
     id="defs1" />
  <sodipodi:namedview
     id="namedview1"
     pagecolor="#ffffff"
     bordercolor="#999999"
     borderopacity="1"
     inkscape:showpageshadow="0"
     inkscape:pageopacity="0"
     inkscape:pagecheckerboard="0"
     inkscape:deskcolor="#d1d1d1">
    <inkscape:page
       x="0"
       y="0"
       id="page1"
       width="346.66666"
       height="345.33334"
       margin="0"
       bleed="0" />
  </sodipodi:namedview>
  <g
     id="g1"
     inkscape:groupmode="layer"
     inkscape:label="">
    <path
       id="path1"
       d="M 9.82,12.395 75.742,76.828"
       style="fill:none;stroke:#000000;stroke-width:1.44;stroke-linecap:butt;stroke-linejoin:miter;stroke-miterlimit:3.25;stroke-dasharray:none;stroke-opacity:0.7"
       transform="scale(1.3333333)" />
    <path
       id="path2"
       d="m 80.207,78.617 97.375,-1.035"
       style="fill:none;stroke:#800080;stroke-width:1.44;stroke-linecap:butt;stroke-linejoin:miter;stroke-miterlimit:3.25;stroke-dasharray:none;stroke-opacity:0.7"
       transform="scale(1.3333333)" />
    <path
       id="path3"
       d="m 77.641,81.25 1.3,97.309"
       style="fill:none;stroke:#ff0000;stroke-width:1.44;stroke-linecap:butt;stroke-linejoin:miter;stroke-miterlimit:3.25;stroke-dasharray:none;stroke-opacity:0.7"
       transform="scale(1.3333333)" />
    <path
       id="path4"
       d="M 246.305,9.617 182,75.688"
       style="fill:none;stroke:#000000;stroke-width:1.44;stroke-linecap:butt;stroke-linejoin:miter;stroke-miterlimit:3.25;stroke-dasharray:none;stroke-opacity:0.7"
       transform="scale(1.3333333)" />
    <path
       id="path5"
       d="M 180.219,80.156 181.5,177.5"
       style="fill:none;stroke:#00ff00;stroke-width:1.44;stroke-linecap:butt;stroke-linejoin:miter;stroke-miterlimit:3.25;stroke-dasharray:none;stroke-opacity:0.7"
       transform="scale(1.3333333)" />
    <path
       id="path6"
       d="M 249.379,246.336 183.398,181.922"
       style="fill:none;stroke:#000000;stroke-width:1.44;stroke-linecap:butt;stroke-linejoin:miter;stroke-miterlimit:3.25;stroke-dasharray:none;stroke-opacity:0.7"
       transform="scale(1.3333333)" />
    <path
       id="path7"
       d="m 178.934,180.129 -97.356,1.008"
       style="fill:none;stroke:#0000ff;stroke-width:1.44;stroke-linecap:butt;stroke-linejoin:miter;stroke-miterlimit:3.25;stroke-dasharray:none;stroke-opacity:0.7"
       transform="scale(1.3333333)" />
    <path
       id="path8"
       d="m 12.652,249.043 64.504,-66.02"
       style="fill:none;stroke:#996633;stroke-width:1.44;stroke-linecap:butt;stroke-linejoin:miter;stroke-miterlimit:3.25;stroke-dasharray:2.88, 2.88;stroke-dashoffset:0;stroke-opacity:0.7"
       transform="scale(1.3333333)" />
    <path
       id="path9"
       d="m 10.562,10.574 c 0,0.688 -0.273,1.352 -0.761,1.84 -0.489,0.488 -1.153,0.762 -1.84,0.762 -0.691,0 -1.356,-0.274 -1.84,-0.762 -0.488,-0.488 -0.766,-1.152 -0.766,-1.84 0,-0.691 0.278,-1.351 0.766,-1.84 0.484,-0.488 1.149,-0.765 1.84,-0.765 0.687,0 1.351,0.277 1.84,0.765 0.488,0.489 0.761,1.149 0.761,1.84 z"
       style="fill:#a3b4cc;fill-opacity:1;fill-rule:evenodd;stroke:#000000;stroke-width:0.36;stroke-linecap:square;stroke-linejoin:miter;stroke-miterlimit:3.25;stroke-dasharray:none;stroke-opacity:0.7"
       transform="scale(1.3333333)" />
    <path
       id="path10"
       d="m 80.207,78.645 c 0,0.691 -0.273,1.355 -0.762,1.843 -0.488,0.489 -1.152,0.762 -1.84,0.762 -0.691,0 -1.355,-0.273 -1.843,-0.762 C 75.273,80 75,79.336 75,78.645 c 0,-0.688 0.273,-1.352 0.762,-1.84 0.488,-0.489 1.152,-0.762 1.843,-0.762 0.688,0 1.352,0.273 1.84,0.762 0.489,0.488 0.762,1.152 0.762,1.84 z"
       style="fill:#a3b4cc;fill-opacity:1;fill-rule:evenodd;stroke:#000000;stroke-width:0.36;stroke-linecap:square;stroke-linejoin:miter;stroke-miterlimit:3.25;stroke-dasharray:none;stroke-opacity:0.7"
       transform="scale(1.3333333)" />
    <path
       id="path11"
       d="m 250.723,7.754 c 0,0.687 -0.274,1.351 -0.762,1.84 -0.488,0.488 -1.152,0.761 -1.84,0.761 -0.691,0 -1.355,-0.273 -1.844,-0.761 -0.488,-0.489 -0.761,-1.153 -0.761,-1.84 0,-0.692 0.273,-1.356 0.761,-1.84 0.489,-0.488 1.153,-0.766 1.844,-0.766 0.688,0 1.352,0.278 1.84,0.766 0.488,0.484 0.762,1.148 0.762,1.84 z"
       style="fill:#a3b4cc;fill-opacity:1;fill-rule:evenodd;stroke:#000000;stroke-width:0.36;stroke-linecap:square;stroke-linejoin:miter;stroke-miterlimit:3.25;stroke-dasharray:none;stroke-opacity:0.7"
       transform="scale(1.3333333)" />
    <path
       id="path12"
       d="m 182.789,77.555 c 0,0.691 -0.273,1.351 -0.762,1.84 -0.488,0.488 -1.152,0.761 -1.839,0.761 -0.692,0 -1.356,-0.273 -1.844,-0.761 -0.489,-0.489 -0.762,-1.149 -0.762,-1.84 0,-0.692 0.273,-1.352 0.762,-1.84 0.488,-0.488 1.152,-0.766 1.844,-0.766 0.687,0 1.351,0.278 1.839,0.766 0.489,0.488 0.762,1.148 0.762,1.84 z"
       style="fill:#a3b4cc;fill-opacity:1;fill-rule:evenodd;stroke:#000000;stroke-width:0.36;stroke-linecap:square;stroke-linejoin:miter;stroke-miterlimit:3.25;stroke-dasharray:none;stroke-opacity:0.7"
       transform="scale(1.3333333)" />
    <path
       id="path13"
       d="m 253.844,248.156 c 0,0.688 -0.274,1.352 -0.762,1.84 -0.488,0.488 -1.152,0.762 -1.844,0.762 -0.687,0 -1.351,-0.274 -1.84,-0.762 -0.488,-0.488 -0.761,-1.152 -0.761,-1.84 0,-0.691 0.273,-1.355 0.761,-1.844 0.489,-0.484 1.153,-0.761 1.84,-0.761 0.692,0 1.356,0.277 1.844,0.761 0.488,0.489 0.762,1.153 0.762,1.844 z"
       style="fill:#a3b4cc;fill-opacity:1;fill-rule:evenodd;stroke:#000000;stroke-width:0.36;stroke-linecap:square;stroke-linejoin:miter;stroke-miterlimit:3.25;stroke-dasharray:none;stroke-opacity:0.7"
       transform="scale(1.3333333)" />
    <path
       id="path14"
       d="m 184.137,180.102 c 0,0.691 -0.274,1.351 -0.762,1.839 -0.488,0.489 -1.148,0.762 -1.84,0.762 -0.691,0 -1.351,-0.273 -1.84,-0.762 -0.488,-0.488 -0.761,-1.148 -0.761,-1.839 0,-0.692 0.273,-1.352 0.761,-1.84 0.489,-0.489 1.149,-0.762 1.84,-0.762 0.692,0 1.352,0.273 1.84,0.762 0.488,0.488 0.762,1.148 0.762,1.84 z"
       style="fill:#a3b4cc;fill-opacity:1;fill-rule:evenodd;stroke:#000000;stroke-width:0.36;stroke-linecap:square;stroke-linejoin:miter;stroke-miterlimit:3.25;stroke-dasharray:none;stroke-opacity:0.7"
       transform="scale(1.3333333)" />
    <path
       id="path15"
       d="m 13.438,250.906 c 0,0.688 -0.274,1.352 -0.762,1.84 -0.488,0.488 -1.153,0.762 -1.84,0.762 -0.691,0 -1.356,-0.274 -1.844,-0.762 -0.488,-0.488 -0.762,-1.152 -0.762,-1.84 0,-0.691 0.274,-1.355 0.762,-1.844 0.488,-0.488 1.153,-0.761 1.844,-0.761 0.687,0 1.352,0.273 1.84,0.761 0.488,0.489 0.762,1.153 0.762,1.844 z"
       style="fill:#a3b4cc;fill-opacity:1;fill-rule:evenodd;stroke:#000000;stroke-width:0.36;stroke-linecap:square;stroke-linejoin:miter;stroke-miterlimit:3.25;stroke-dasharray:none;stroke-opacity:0.7"
       transform="scale(1.3333333)" />
    <path
       id="path16"
       d="m 81.578,181.16 c 0,0.692 -0.273,1.356 -0.762,1.844 -0.488,0.488 -1.148,0.762 -1.839,0.762 -0.692,0 -1.352,-0.274 -1.84,-0.762 -0.489,-0.488 -0.762,-1.152 -0.762,-1.844 0,-0.687 0.273,-1.351 0.762,-1.84 0.488,-0.488 1.148,-0.761 1.84,-0.761 0.691,0 1.351,0.273 1.839,0.761 0.489,0.489 0.762,1.153 0.762,1.84 z"
       style="fill:#a3b4cc;fill-opacity:1;fill-rule:evenodd;stroke:#000000;stroke-width:0.36;stroke-linecap:square;stroke-linejoin:miter;stroke-miterlimit:3.25;stroke-dasharray:none;stroke-opacity:0.7"
       transform="scale(1.3333333)" />
    <path
       id="path17"
       d="M 259.02,258.477 H 0.18"
       style="fill:none;stroke:#000000;stroke-width:0.144;stroke-linecap:square;stroke-linejoin:miter;stroke-miterlimit:3.25;stroke-dasharray:none;stroke-opacity:1"
       transform="scale(1.3333333)" />
    <path
       id="path18"
       d="M 0.18,258.477 V 0.18"
       style="fill:none;stroke:#000000;stroke-width:0.144;stroke-linecap:square;stroke-linejoin:miter;stroke-miterlimit:3.25;stroke-dasharray:none;stroke-opacity:1"
       transform="scale(1.3333333)" />
    <path
       id="path19"
       d="M 0.18,0.18 H 259.02"
       style="fill:none;stroke:#000000;stroke-width:0.144;stroke-linecap:square;stroke-linejoin:miter;stroke-miterlimit:3.25;stroke-dasharray:none;stroke-opacity:1"
       transform="scale(1.3333333)" />
    <path
       id="path20"
       d="M 259.02,0.18 V 258.477"
       style="fill:none;stroke:#000000;stroke-width:0.144;stroke-linecap:square;stroke-linejoin:miter;stroke-miterlimit:3.25;stroke-dasharray:none;stroke-opacity:1"
       transform="scale(1.3333333)" />
  </g>
</svg>
