<?xml version="1.0" encoding="UTF-8" standalone="no"?>
<!-- Created with Inkscape (http://www.inkscape.org/) -->

<svg
   version="1.1"
   id="svg2"
   xml:space="preserve"
   width="596"
   height="30.666668"
   viewBox="0 0 596 30.666668"
   sodipodi:docname="10x7yb8v4z8tt.pdf"
   xmlns:inkscape="http://www.inkscape.org/namespaces/inkscape"
   xmlns:sodipodi="http://sodipodi.sourceforge.net/DTD/sodipodi-0.dtd"
   xmlns="http://www.w3.org/2000/svg"
   xmlns:svg="http://www.w3.org/2000/svg"><defs
     id="defs6" /><sodipodi:namedview
     id="namedview4"
     pagecolor="#505050"
     bordercolor="#eeeeee"
     borderopacity="1"
     inkscape:pageshadow="0"
     inkscape:pageopacity="0"
     inkscape:pagecheckerboard="0" /><g
     id="g8"
     inkscape:groupmode="layer"
     inkscape:label="10x7yb8v4z8tt"
     transform="matrix(1.3333333,0,0,1.3333333,0,1.1e-6)"><g
       id="g10"><text
         transform="translate(1.509982,7.44)"
         style="font-variant:normal;font-size:7.92px;font-family:CairoFont-0;-inkscape-font-specification:CairoFont-0-0;writing-mode:lr-tb;fill:#dd1100;fill-opacity:1;fill-rule:nonzero;stroke:none"
         id="text14"><tspan
           x="0 4.5539999 10.08216 15.61032 20.62368 25.49448 29.84256 34.428242 39.44952 44.130241 49.119839 52.22448 57.071522"
           y="0"
           sodipodi:role="line"
           id="tspan12">FCCheckSyntax</tspan></text><text
         transform="translate(64.033732,7.44)"
         style="font-variant:normal;font-size:7.92px;font-family:CairoFont-0;-inkscape-font-specification:CairoFont-0-0;writing-mode:lr-tb;fill:#000000;fill-opacity:1;fill-rule:nonzero;stroke:none"
         id="text18"><tspan
           x="0"
           y="0"
           id="tspan16">:</tspan></text><text
         transform="translate(70.209965,7.44)"
         style="font-variant:normal;font-size:7.92px;font-family:CairoFont-0;-inkscape-font-specification:CairoFont-0-0;writing-mode:lr-tb;fill:#898989;fill-opacity:1;fill-rule:nonzero;stroke:none"
         id="text22"><tspan
           x="0 4.99752 8.2526398 11.50776 16.34688"
           y="0"
           sodipodi:role="line"
           id="tspan20">Error</tspan></text><text
         transform="translate(89.811965,7.44)"
         style="font-variant:normal;font-size:7.92px;font-family:CairoFont-1;-inkscape-font-specification:CairoFont-1-0;writing-mode:lr-tb;fill:#898989;fill-opacity:1;fill-rule:nonzero;stroke:none"
         id="text26"><tspan
           x="0"
           y="0"
           id="tspan24">!</tspan></text><text
         transform="translate(94.516445,7.44)"
         style="font-variant:normal;font-size:7.92px;font-family:CairoFont-0;-inkscape-font-specification:CairoFont-0-0;writing-mode:lr-tb;fill:#898989;fill-opacity:1;fill-rule:nonzero;stroke:none"
         id="text32"><tspan
           x="0 4.5539999 10.08216 15.61032 20.62368 25.49448 29.84256 34.428242 39.44952 44.10648 49.119839 52.22448 57.071522 64.262878 69.276237 74.123283 80.752319 83.540161 88.37928 93.392639 98.405998 105.93792 110.78496 118.30896 120.5028 125.51616 129.86424 134.70335 139.71672 143.83511 146.02896 150.14735 153.252 158.1228 163.13615 167.48424 174.65976 176.85361 184.37759 189.05832 193.89745 198.9108 204.67656 206.87041 211.88376 216.90504 221.9184 227.53368 232.40448 237.08521 242.10648 245.3616 250.23241 254.3508 258.46921 260.66302 265.50217 273.01031 277.85736 282.87073 290.40265 298.11673 303.13007 307.24847 312.86377 317.71078 322.73209 327.5712 330.82632 336.44159 339.54623 344.5596"
           y="0"
           sodipodi:role="line"
           id="tspan28">FCCheckSyntaxhasfoundaninconsistencyinyourinputexpressionandmustabortthe</tspan><tspan
           x="-69.875198 -65.004395 -60.323677 -55.476639 -53.282799 -48.26944 -43.422398 -40.317757 -38.123917 -33.284798 -28.271439 -23.265999 -18.434797 -13.421438 -6.0320778 -1.010798 2.2443221 7.0834422 12.104722 14.298562 19.169363 29.386162 32.641281 37.512081 42.359123 47.380402 51.498802 56.662643 62.190804 67.029922 74.744003 82.458084 87.471443 90.57608 95.423119 98.527763 100.7216 105.40232 112.77584 117.79712 121.05224 125.89137 130.91264 135.92599 140.27408 143.37872 149.99985 154.83896 160.29584 166.39424 168.58809 171.8432 176.69025 181.03831 187.1684 192.01544 199.72952 207.4436 214.79337 216.9872"
           y="11.8"
           sodipodi:role="line"
           id="tspan30">evaluation.Theproblemreads:CommutativeproductsofDiracGammain</tspan></text><text
         transform="translate(321.54621,19.24)"
         style="font-variant:normal;font-size:7.92px;font-family:CairoFont-1;-inkscape-font-specification:CairoFont-1-1;writing-mode:lr-tb;fill:#898989;fill-opacity:1;fill-rule:nonzero;stroke:none"
         id="text36"><tspan
           x="0"
           y="0"
           id="tspan34">γ</tspan></text><path
         d="m 324.453,13.566 h -2.473 v 0.672 h 5.239 v -0.672 z"
         style="fill:#898989;fill-opacity:1;fill-rule:evenodd;stroke:none"
         id="path38" /><text
         transform="translate(326.71687,15.341875)"
         style="font-variant:normal;font-size:5.52px;font-family:CairoFont-0;-inkscape-font-specification:CairoFont-0-0;writing-mode:lr-tb;fill:#898989;fill-opacity:1;fill-rule:nonzero;stroke:none"
         id="text42"><tspan
           x="0 5.3764801"
           y="0"
           sodipodi:role="line"
           id="tspan40">mu</tspan></text><text
         transform="translate(337.45561,19.24)"
         style="font-variant:normal;font-size:7.92px;font-family:CairoFont-1;-inkscape-font-specification:CairoFont-1-1;writing-mode:lr-tb;fill:#898989;fill-opacity:1;fill-rule:nonzero;stroke:none"
         id="text46"><tspan
           x="0"
           y="0"
           id="tspan44">γ</tspan></text><path
         d="m 340.086,13.566 h -2.473 v 0.672 h 5.239 v -0.672 z"
         style="fill:#898989;fill-opacity:1;fill-rule:evenodd;stroke:none"
         id="path48" /><text
         transform="translate(342.35123,15.341875)"
         style="font-variant:normal;font-size:5.52px;font-family:CairoFont-0;-inkscape-font-specification:CairoFont-0-0;writing-mode:lr-tb;fill:#898989;fill-opacity:1;fill-rule:nonzero;stroke:none"
         id="text52"><tspan
           x="0 3.4941599"
           y="0"
           sodipodi:role="line"
           id="tspan50">nu</tspan></text></g></g></svg>
