<?xml version="1.0" encoding="UTF-8" standalone="no"?>
<!-- Created with Inkscape (http://www.inkscape.org/) -->

<svg
   version="1.1"
   id="svg1"
   width="518.66669"
   height="594.66669"
   viewBox="0 0 518.66669 594.66669"
   sodipodi:docname="115u41lfd051a.pdf"
   xmlns:inkscape="http://www.inkscape.org/namespaces/inkscape"
   xmlns:sodipodi="http://sodipodi.sourceforge.net/DTD/sodipodi-0.dtd"
   xmlns="http://www.w3.org/2000/svg"
   xmlns:svg="http://www.w3.org/2000/svg">
  <defs
     id="defs1" />
  <sodipodi:namedview
     id="namedview1"
     pagecolor="#ffffff"
     bordercolor="#999999"
     borderopacity="1"
     inkscape:showpageshadow="0"
     inkscape:pageopacity="0"
     inkscape:pagecheckerboard="0"
     inkscape:deskcolor="#d1d1d1">
    <inkscape:page
       x="0"
       y="0"
       id="page1"
       width="518.66669"
       height="594.66669"
       margin="0"
       bleed="0" />
  </sodipodi:namedview>
  <g
     id="g1"
     inkscape:groupmode="layer"
     inkscape:label="">
    <path
       id="path1"
       d="M 13.953,298.418 177.535,15.09"
       style="fill:none;stroke:#ff0000;stroke-width:2.16;stroke-linecap:butt;stroke-linejoin:miter;stroke-miterlimit:3.25;stroke-dasharray:4.32, 4.32;stroke-dashoffset:0;stroke-opacity:0.7"
       transform="scale(1.3333333)" />
    <path
       id="path2"
       d="m 15.117,299.438 15.477,-11.84 18.617,-12.559 18.613,-10.887 18.614,-9.214 18.613,-7.536 18.617,-5.863 18.613,-4.187 18.614,-2.512 18.613,-0.84 18.613,0.84 18.617,2.512 18.614,4.187 18.613,5.863 18.613,7.536 18.613,9.214 18.618,10.887 18.613,12.559 15.48,11.84"
       style="fill:none;stroke:#0000ff;stroke-width:2.16;stroke-linecap:butt;stroke-linejoin:miter;stroke-miterlimit:3.25;stroke-dasharray:4.32, 4.32;stroke-dashoffset:0;stroke-opacity:0.7"
       transform="scale(1.3333333)" />
    <path
       id="path3"
       d="m 15.117,304.234 15.477,11.84 18.617,12.563 18.613,10.886 18.614,9.211 18.613,7.536 18.617,5.863 18.613,4.187 18.614,2.512 18.613,0.84 18.613,-0.84 18.617,-2.512 18.614,-4.187 18.613,-5.863 18.613,-7.536 18.613,-9.211 18.618,-10.886 18.613,-12.563 15.48,-11.84"
       style="fill:none;stroke:#0000ff;stroke-width:2.16;stroke-linecap:butt;stroke-linejoin:miter;stroke-miterlimit:3.25;stroke-dasharray:4.32, 4.32;stroke-dashoffset:0;stroke-opacity:0.7"
       transform="scale(1.3333333)" />
    <path
       id="path4"
       d="m 183.152,13.188 17.993,7.484 20.187,9.84 18.734,10.676 17.286,11.515 15.836,12.352 14.382,13.187 12.934,14.028 11.48,14.867 10.036,15.699 8.582,16.539 7.128,17.375 5.684,18.215 4.227,19.051 2.781,19.89 1.328,20.727 -0.121,21.562 -1.57,22.403 -2.516,19.324"
       style="fill:none;stroke:#000000;stroke-width:2.16;stroke-linecap:butt;stroke-linejoin:miter;stroke-miterlimit:3.25;stroke-dasharray:4.32, 4.32;stroke-dashoffset:0;stroke-opacity:0.7"
       transform="scale(1.3333333)" />
    <path
       id="path5"
       d="m 179,15.582 -2.516,19.328 -1.57,22.402 -0.121,21.563 1.328,20.727 2.781,19.886 4.231,19.055 5.679,18.211 7.133,17.379 8.582,16.539 10.032,15.699 11.48,14.867 12.934,14.024 14.386,13.191 15.832,12.352 17.286,11.511 18.738,10.68 20.183,9.84 17.993,7.484"
       style="fill:none;stroke:#000000;stroke-width:2.16;stroke-linecap:butt;stroke-linejoin:miter;stroke-miterlimit:3.25;stroke-dasharray:none;stroke-opacity:0.7"
       transform="scale(1.3333333)" />
    <path
       id="path6"
       d="m 15.926,301.836 c 0,1.047 -0.414,2.051 -1.153,2.789 -0.742,0.742 -1.746,1.156 -2.793,1.156 -1.046,0 -2.05,-0.414 -2.789,-1.156 -0.742,-0.738 -1.156,-1.742 -1.156,-2.789 0,-1.047 0.414,-2.051 1.156,-2.789 0.739,-0.742 1.743,-1.156 2.789,-1.156 1.047,0 2.051,0.414 2.793,1.156 0.739,0.738 1.153,1.742 1.153,2.789 z"
       style="fill:#a3b4cc;fill-opacity:1;fill-rule:evenodd;stroke:#000000;stroke-width:0.54;stroke-linecap:square;stroke-linejoin:miter;stroke-miterlimit:3.25;stroke-dasharray:none;stroke-opacity:0.7"
       transform="scale(1.3333333)" />
    <path
       id="path7"
       d="m 183.453,11.672 c 0,1.047 -0.414,2.051 -1.152,2.789 -0.742,0.742 -1.746,1.156 -2.793,1.156 -1.047,0 -2.051,-0.414 -2.789,-1.156 -0.742,-0.738 -1.157,-1.742 -1.157,-2.789 0,-1.047 0.415,-2.051 1.157,-2.793 0.738,-0.738 1.742,-1.156 2.789,-1.156 1.047,0 2.051,0.418 2.793,1.156 0.738,0.742 1.152,1.746 1.152,2.793 z"
       style="fill:#a3b4cc;fill-opacity:1;fill-rule:evenodd;stroke:#000000;stroke-width:0.54;stroke-linecap:square;stroke-linejoin:miter;stroke-miterlimit:3.25;stroke-dasharray:none;stroke-opacity:0.7"
       transform="scale(1.3333333)" />
    <path
       id="path8"
       d="m 350.98,301.836 c 0,1.047 -0.414,2.051 -1.156,2.789 -0.738,0.742 -1.742,1.156 -2.789,1.156 -1.047,0 -2.051,-0.414 -2.789,-1.156 -0.742,-0.738 -1.156,-1.742 -1.156,-2.789 0,-1.047 0.414,-2.051 1.156,-2.789 0.738,-0.742 1.742,-1.156 2.789,-1.156 1.047,0 2.051,0.414 2.789,1.156 0.742,0.738 1.156,1.742 1.156,2.789 z"
       style="fill:#a3b4cc;fill-opacity:1;fill-rule:evenodd;stroke:#000000;stroke-width:0.54;stroke-linecap:square;stroke-linejoin:miter;stroke-miterlimit:3.25;stroke-dasharray:none;stroke-opacity:0.7"
       transform="scale(1.3333333)" />
    <path
       id="path9"
       d="M 388.531,444.961 H 0.27"
       style="fill:none;stroke:#000000;stroke-width:0.216;stroke-linecap:square;stroke-linejoin:miter;stroke-miterlimit:3.25;stroke-dasharray:none;stroke-opacity:1"
       transform="scale(1.3333333)" />
    <path
       id="path10"
       d="M 0.27,444.961 V 0.27"
       style="fill:none;stroke:#000000;stroke-width:0.216;stroke-linecap:square;stroke-linejoin:miter;stroke-miterlimit:3.25;stroke-dasharray:none;stroke-opacity:1"
       transform="scale(1.3333333)" />
    <path
       id="path11"
       d="M 0.27,0.27 H 388.531"
       style="fill:none;stroke:#000000;stroke-width:0.216;stroke-linecap:square;stroke-linejoin:miter;stroke-miterlimit:3.25;stroke-dasharray:none;stroke-opacity:1"
       transform="scale(1.3333333)" />
    <path
       id="path12"
       d="M 388.531,0.27 V 444.961"
       style="fill:none;stroke:#000000;stroke-width:0.216;stroke-linecap:square;stroke-linejoin:miter;stroke-miterlimit:3.25;stroke-dasharray:none;stroke-opacity:1"
       transform="scale(1.3333333)" />
  </g>
</svg>
