<?xml version="1.0" encoding="UTF-8" standalone="no"?>
<!-- Created with Inkscape (http://www.inkscape.org/) -->

<svg
   version="1.1"
   id="svg1"
   width="346.66666"
   height="244"
   viewBox="0 0 346.66666 244"
   sodipodi:docname="117g9omfk0twb.pdf"
   xmlns:inkscape="http://www.inkscape.org/namespaces/inkscape"
   xmlns:sodipodi="http://sodipodi.sourceforge.net/DTD/sodipodi-0.dtd"
   xmlns="http://www.w3.org/2000/svg"
   xmlns:svg="http://www.w3.org/2000/svg">
  <defs
     id="defs1" />
  <sodipodi:namedview
     id="namedview1"
     pagecolor="#ffffff"
     bordercolor="#999999"
     borderopacity="1"
     inkscape:showpageshadow="0"
     inkscape:pageopacity="0"
     inkscape:pagecheckerboard="0"
     inkscape:deskcolor="#d1d1d1">
    <inkscape:page
       x="0"
       y="0"
       id="page1"
       width="346.66666"
       height="244"
       margin="0"
       bleed="0" />
  </sodipodi:namedview>
  <g
     id="g1"
     inkscape:groupmode="layer"
     inkscape:label="">
    <path
       id="path1"
       d="M 249.383,91.293 H 187.281"
       style="fill:none;stroke:#000000;stroke-width:1.44;stroke-linecap:butt;stroke-linejoin:miter;stroke-miterlimit:3.25;stroke-dasharray:none;stroke-opacity:0.7"
       transform="scale(1.3333333)" />
    <path
       id="path2"
       d="M 182.812,90.441 126.348,68.043"
       style="fill:none;stroke:#000000;stroke-width:1.44;stroke-linecap:butt;stroke-linejoin:miter;stroke-miterlimit:3.25;stroke-dasharray:2.88, 2.88;stroke-dashoffset:0;stroke-opacity:0.7"
       transform="scale(1.3333333)" />
    <path
       id="path3"
       d="m 182.812,92.148 -56.425,22.418"
       style="fill:none;stroke:#000000;stroke-width:1.44;stroke-linecap:butt;stroke-linejoin:miter;stroke-miterlimit:3.25;stroke-dasharray:2.88, 2.88;stroke-dashoffset:0;stroke-opacity:0.7"
       transform="scale(1.3333333)" />
    <path
       id="path4"
       d="M 9.07,8.996 51.594,55.207"
       style="fill:none;stroke:#000000;stroke-width:1.44;stroke-linecap:butt;stroke-linejoin:miter;stroke-miterlimit:3.25;stroke-dasharray:none;stroke-opacity:0.7"
       transform="scale(1.3333333)" />
    <path
       id="path5"
       d="m 53.164,59.227 0.066,64.207"
       style="fill:none;stroke:#000000;stroke-width:1.44;stroke-linecap:butt;stroke-linejoin:miter;stroke-miterlimit:3.25;stroke-dasharray:2.88, 2.88;stroke-dashoffset:0;stroke-opacity:0.7"
       transform="scale(1.3333333)" />
    <path
       id="path6"
       d="m 55.453,57.242 66.449,9.613"
       style="fill:none;stroke:#000000;stroke-width:1.44;stroke-linecap:butt;stroke-linejoin:miter;stroke-miterlimit:3.25;stroke-dasharray:2.88, 2.88;stroke-dashoffset:0;stroke-opacity:0.7"
       transform="scale(1.3333333)" />
    <path
       id="path7"
       d="M 9.145,173.664 51.664,127.453"
       style="fill:none;stroke:#000000;stroke-width:1.44;stroke-linecap:butt;stroke-linejoin:miter;stroke-miterlimit:3.25;stroke-dasharray:none;stroke-opacity:0.7"
       transform="scale(1.3333333)" />
    <path
       id="path8"
       d="m 55.523,125.414 66.422,-9.66"
       style="fill:none;stroke:#000000;stroke-width:1.44;stroke-linecap:butt;stroke-linejoin:miter;stroke-miterlimit:3.25;stroke-dasharray:2.88, 2.88;stroke-dashoffset:0;stroke-opacity:0.7"
       transform="scale(1.3333333)" />
    <path
       id="path9"
       d="m 124.199,69.504 0.035,43.601"
       style="fill:none;stroke:#000000;stroke-width:1.44;stroke-linecap:butt;stroke-linejoin:miter;stroke-miterlimit:3.25;stroke-dasharray:2.88, 2.88;stroke-dashoffset:0;stroke-opacity:0.7"
       transform="scale(1.3333333)" />
    <path
       id="path10"
       d="m 254.016,91.293 c 0,0.613 -0.243,1.203 -0.68,1.637 -0.434,0.433 -1.024,0.679 -1.637,0.679 -0.613,0 -1.203,-0.246 -1.637,-0.679 -0.433,-0.434 -0.679,-1.024 -0.679,-1.637 0,-0.613 0.246,-1.203 0.679,-1.637 0.434,-0.433 1.024,-0.679 1.637,-0.679 0.613,0 1.203,0.246 1.637,0.679 0.437,0.434 0.68,1.024 0.68,1.637 z"
       style="fill:#a3b4cc;fill-opacity:1;fill-rule:evenodd;stroke:#000000;stroke-width:0.36;stroke-linecap:square;stroke-linejoin:miter;stroke-miterlimit:3.25;stroke-dasharray:none;stroke-opacity:0.7"
       transform="scale(1.3333333)" />
    <path
       id="path11"
       d="m 187.281,91.293 c 0,0.617 -0.246,1.207 -0.679,1.641 -0.434,0.433 -1.024,0.675 -1.637,0.675 -0.617,0 -1.203,-0.242 -1.641,-0.675 -0.433,-0.434 -0.676,-1.024 -0.676,-1.641 0,-0.613 0.243,-1.203 0.676,-1.637 0.438,-0.433 1.024,-0.676 1.641,-0.676 0.613,0 1.203,0.243 1.637,0.676 0.433,0.434 0.679,1.024 0.679,1.637 z"
       style="fill:#a3b4cc;fill-opacity:1;fill-rule:evenodd;stroke:#000000;stroke-width:0.36;stroke-linecap:square;stroke-linejoin:miter;stroke-miterlimit:3.25;stroke-dasharray:none;stroke-opacity:0.7"
       transform="scale(1.3333333)" />
    <path
       id="path12"
       d="M 9.816,7.293 C 9.816,7.906 9.57,8.496 9.137,8.93 8.703,9.363 8.113,9.609 7.5,9.609 6.887,9.609 6.297,9.363 5.863,8.93 5.43,8.496 5.184,7.906 5.184,7.293 5.184,6.68 5.43,6.09 5.863,5.656 6.297,5.219 6.887,4.977 7.5,4.977 8.113,4.977 8.703,5.219 9.137,5.656 9.57,6.09 9.816,6.68 9.816,7.293 Z"
       style="fill:#a3b4cc;fill-opacity:1;fill-rule:evenodd;stroke:#000000;stroke-width:0.36;stroke-linecap:square;stroke-linejoin:miter;stroke-miterlimit:3.25;stroke-dasharray:none;stroke-opacity:0.7"
       transform="scale(1.3333333)" />
    <path
       id="path13"
       d="m 55.48,56.91 c 0,0.613 -0.246,1.203 -0.679,1.637 -0.434,0.433 -1.024,0.68 -1.637,0.68 -0.617,0 -1.203,-0.247 -1.641,-0.68 -0.433,-0.434 -0.675,-1.024 -0.675,-1.637 0,-0.613 0.242,-1.203 0.675,-1.637 0.438,-0.433 1.024,-0.679 1.641,-0.679 0.613,0 1.203,0.246 1.637,0.679 0.433,0.434 0.679,1.024 0.679,1.637 z"
       style="fill:#a3b4cc;fill-opacity:1;fill-rule:evenodd;stroke:#000000;stroke-width:0.36;stroke-linecap:square;stroke-linejoin:miter;stroke-miterlimit:3.25;stroke-dasharray:none;stroke-opacity:0.7"
       transform="scale(1.3333333)" />
    <path
       id="path14"
       d="m 9.895,175.371 c 0,0.613 -0.247,1.203 -0.68,1.637 -0.434,0.433 -1.024,0.68 -1.637,0.68 -0.613,0 -1.203,-0.247 -1.637,-0.68 -0.437,-0.434 -0.679,-1.024 -0.679,-1.637 0,-0.613 0.242,-1.203 0.679,-1.637 0.434,-0.437 1.024,-0.679 1.637,-0.679 0.613,0 1.203,0.242 1.637,0.679 0.433,0.434 0.68,1.024 0.68,1.637 z"
       style="fill:#a3b4cc;fill-opacity:1;fill-rule:evenodd;stroke:#000000;stroke-width:0.36;stroke-linecap:square;stroke-linejoin:miter;stroke-miterlimit:3.25;stroke-dasharray:none;stroke-opacity:0.7"
       transform="scale(1.3333333)" />
    <path
       id="path15"
       d="m 55.547,125.75 c 0,0.613 -0.242,1.203 -0.676,1.637 -0.433,0.433 -1.023,0.679 -1.641,0.679 -0.613,0 -1.203,-0.246 -1.636,-0.679 -0.434,-0.434 -0.676,-1.024 -0.676,-1.637 0,-0.617 0.242,-1.203 0.676,-1.641 0.433,-0.433 1.023,-0.675 1.636,-0.675 0.618,0 1.208,0.242 1.641,0.675 0.434,0.438 0.676,1.024 0.676,1.641 z"
       style="fill:#a3b4cc;fill-opacity:1;fill-rule:evenodd;stroke:#000000;stroke-width:0.36;stroke-linecap:square;stroke-linejoin:miter;stroke-miterlimit:3.25;stroke-dasharray:none;stroke-opacity:0.7"
       transform="scale(1.3333333)" />
    <path
       id="path16"
       d="m 126.512,67.188 c 0,0.613 -0.242,1.203 -0.68,1.636 -0.434,0.438 -1.023,0.68 -1.637,0.68 -0.613,0 -1.203,-0.242 -1.636,-0.68 -0.434,-0.433 -0.68,-1.023 -0.68,-1.636 0,-0.614 0.246,-1.204 0.68,-1.637 0.433,-0.434 1.023,-0.68 1.636,-0.68 0.614,0 1.203,0.246 1.637,0.68 0.438,0.433 0.68,1.023 0.68,1.637 z"
       style="fill:#a3b4cc;fill-opacity:1;fill-rule:evenodd;stroke:#000000;stroke-width:0.36;stroke-linecap:square;stroke-linejoin:miter;stroke-miterlimit:3.25;stroke-dasharray:none;stroke-opacity:0.7"
       transform="scale(1.3333333)" />
    <path
       id="path17"
       d="m 126.551,115.422 c 0,0.613 -0.242,1.203 -0.676,1.637 -0.437,0.437 -1.023,0.679 -1.641,0.679 -0.613,0 -1.203,-0.242 -1.636,-0.679 -0.434,-0.434 -0.676,-1.024 -0.676,-1.637 0,-0.613 0.242,-1.203 0.676,-1.637 0.433,-0.433 1.023,-0.68 1.636,-0.68 0.618,0 1.204,0.247 1.641,0.68 0.434,0.434 0.676,1.024 0.676,1.637 z"
       style="fill:#a3b4cc;fill-opacity:1;fill-rule:evenodd;stroke:#000000;stroke-width:0.36;stroke-linecap:square;stroke-linejoin:miter;stroke-miterlimit:3.25;stroke-dasharray:none;stroke-opacity:0.7"
       transform="scale(1.3333333)" />
  </g>
</svg>
