<?xml version="1.0" encoding="UTF-8" standalone="no"?>
<!-- Created with Inkscape (http://www.inkscape.org/) -->

<svg
   version="1.1"
   id="svg2"
   xml:space="preserve"
   width="346.66666"
   height="88"
   viewBox="0 0 346.66666 88"
   sodipodi:docname="11ouyv2qtno96.pdf"
   xmlns:inkscape="http://www.inkscape.org/namespaces/inkscape"
   xmlns:sodipodi="http://sodipodi.sourceforge.net/DTD/sodipodi-0.dtd"
   xmlns="http://www.w3.org/2000/svg"
   xmlns:svg="http://www.w3.org/2000/svg"><defs
     id="defs6"><clipPath
       clipPathUnits="userSpaceOnUse"
       id="clipPath58"><path
         d="m 0,64 h 259.199 v 1 H 0 Z"
         id="path56" /></clipPath><clipPath
       clipPathUnits="userSpaceOnUse"
       id="clipPath72"><path
         d="M 0,0 H 259.199 V 1 H 0 Z"
         id="path70" /></clipPath><clipPath
       clipPathUnits="userSpaceOnUse"
       id="clipPath82"><path
         d="m 258,0 h 1.199 V 65 H 258 Z"
         id="path80" /></clipPath></defs><sodipodi:namedview
     id="namedview4"
     pagecolor="#505050"
     bordercolor="#eeeeee"
     borderopacity="1"
     inkscape:pageshadow="0"
     inkscape:pageopacity="0"
     inkscape:pagecheckerboard="0" /><g
     id="g8"
     inkscape:groupmode="layer"
     inkscape:label="11ouyv2qtno96"
     transform="matrix(1.3333333,0,0,1.3333333,0,2.2e-6)"><g
       id="g10"><path
         d="M 9.832,38.324 69.586,38.309"
         style="fill:none;stroke:#000000;stroke-width:1.44;stroke-linecap:butt;stroke-linejoin:miter;stroke-miterlimit:3.25;stroke-dasharray:none;stroke-opacity:0.7"
         id="path12" /><path
         d="m 73.945,39.02 53.703,17.929"
         style="fill:none;stroke:#000000;stroke-width:1.44;stroke-linecap:butt;stroke-linejoin:miter;stroke-miterlimit:3.25;stroke-dasharray:none;stroke-opacity:0.7"
         id="path14" /><path
         d="m 73.145,36.504 4.203,-5.75 6.015,-6.094 6.508,-4.621 6.996,-3.16 7.488,-1.691 7.977,-0.223 8.473,1.238 6.816,2.063"
         style="fill:none;stroke:#0000ff;stroke-width:1.44;stroke-linecap:butt;stroke-linejoin:miter;stroke-miterlimit:3.25;stroke-dasharray:2.88, 2.88;stroke-dashoffset:0;stroke-opacity:0.7"
         id="path16" /><path
         d="m 73.965,38.957 6.82,2.059 8.469,1.242 7.98,-0.227 7.485,-1.691 7,-3.156 6.504,-4.625 6.015,-6.09 4.203,-5.75"
         style="fill:none;stroke:#000000;stroke-width:1.44;stroke-linecap:butt;stroke-linejoin:miter;stroke-miterlimit:3.25;stroke-dasharray:none;stroke-opacity:0.7"
         id="path18" /><path
         d="M 249.367,38.328 189.859,38.297"
         style="fill:none;stroke:#000000;stroke-width:1.44;stroke-linecap:butt;stroke-linejoin:miter;stroke-miterlimit:3.25;stroke-dasharray:none;stroke-opacity:0.7"
         id="path20" /><path
         d="M 185.5,39.008 131.895,56.945"
         style="fill:none;stroke:#000000;stroke-width:1.44;stroke-linecap:butt;stroke-linejoin:miter;stroke-miterlimit:3.25;stroke-dasharray:none;stroke-opacity:0.7"
         id="path22" /><path
         d="M 185.5,37.586 131.887,19.625"
         style="fill:none;stroke:#000000;stroke-width:1.44;stroke-linecap:butt;stroke-linejoin:miter;stroke-miterlimit:3.25;stroke-dasharray:none;stroke-opacity:0.7"
         id="path24" /><path
         d="m 129.77,55.418 -0.004,-34.27"
         style="fill:none;stroke:#000000;stroke-width:1.44;stroke-linecap:butt;stroke-linejoin:miter;stroke-miterlimit:3.25;stroke-dasharray:2.88, 2.88;stroke-dashoffset:0;stroke-opacity:0.7"
         id="path26" /><path
         d="M 9.832,38.324 C 9.832,37.73 9.598,37.16 9.176,36.742 8.758,36.324 8.188,36.086 7.594,36.086 7,36.086 6.434,36.324 6.012,36.742 5.594,37.16 5.355,37.73 5.355,38.324 c 0,0.594 0.239,1.164 0.657,1.582 0.422,0.422 0.988,0.656 1.582,0.656 0.594,0 1.164,-0.234 1.582,-0.656 0.422,-0.418 0.656,-0.988 0.656,-1.582 z"
         style="fill:#a3b4cc;fill-opacity:1;fill-rule:evenodd;stroke:none"
         id="path28" /><path
         d="M 9.832,38.324 C 9.832,37.73 9.598,37.16 9.176,36.742 8.758,36.324 8.188,36.086 7.594,36.086 7,36.086 6.434,36.324 6.012,36.742 5.594,37.16 5.355,37.73 5.355,38.324 c 0,0.594 0.239,1.164 0.657,1.582 0.422,0.422 0.988,0.656 1.582,0.656 0.594,0 1.164,-0.234 1.582,-0.656 0.422,-0.418 0.656,-0.988 0.656,-1.582 z"
         style="fill:none;stroke:#000000;stroke-width:0.36;stroke-linecap:square;stroke-linejoin:miter;stroke-miterlimit:3.25;stroke-dasharray:none;stroke-opacity:0.7"
         id="path30" /><path
         d="m 74.062,38.309 c 0,-0.594 -0.238,-1.164 -0.656,-1.582 -0.422,-0.418 -0.988,-0.657 -1.582,-0.657 -0.594,0 -1.164,0.239 -1.582,0.657 -0.422,0.418 -0.656,0.988 -0.656,1.582 0,0.593 0.234,1.164 0.656,1.582 0.418,0.421 0.988,0.656 1.582,0.656 0.594,0 1.16,-0.235 1.582,-0.656 0.418,-0.418 0.656,-0.989 0.656,-1.582 z"
         style="fill:#a3b4cc;fill-opacity:1;fill-rule:evenodd;stroke:none"
         id="path32" /><path
         d="m 74.062,38.309 c 0,-0.594 -0.238,-1.164 -0.656,-1.582 -0.422,-0.418 -0.988,-0.657 -1.582,-0.657 -0.594,0 -1.164,0.239 -1.582,0.657 -0.422,0.418 -0.656,0.988 -0.656,1.582 0,0.593 0.234,1.164 0.656,1.582 0.418,0.421 0.988,0.656 1.582,0.656 0.594,0 1.16,-0.235 1.582,-0.656 0.418,-0.418 0.656,-0.989 0.656,-1.582 z"
         style="fill:none;stroke:#000000;stroke-width:0.36;stroke-linecap:square;stroke-linejoin:miter;stroke-miterlimit:3.25;stroke-dasharray:none;stroke-opacity:0.7"
         id="path34" /><path
         d="m 253.844,38.328 c 0,-0.594 -0.235,-1.16 -0.656,-1.582 -0.418,-0.418 -0.989,-0.656 -1.583,-0.656 -0.593,0 -1.164,0.238 -1.582,0.656 -0.421,0.422 -0.656,0.988 -0.656,1.582 0,0.594 0.235,1.164 0.656,1.582 0.418,0.422 0.989,0.656 1.582,0.656 0.594,0 1.165,-0.234 1.583,-0.656 0.421,-0.418 0.656,-0.988 0.656,-1.582 z"
         style="fill:#a3b4cc;fill-opacity:1;fill-rule:evenodd;stroke:none"
         id="path36" /><path
         d="m 253.844,38.328 c 0,-0.594 -0.235,-1.16 -0.656,-1.582 -0.418,-0.418 -0.989,-0.656 -1.583,-0.656 -0.593,0 -1.164,0.238 -1.582,0.656 -0.421,0.422 -0.656,0.988 -0.656,1.582 0,0.594 0.235,1.164 0.656,1.582 0.418,0.422 0.989,0.656 1.582,0.656 0.594,0 1.165,-0.234 1.583,-0.656 0.421,-0.418 0.656,-0.988 0.656,-1.582 z"
         style="fill:none;stroke:#000000;stroke-width:0.36;stroke-linecap:square;stroke-linejoin:miter;stroke-miterlimit:3.25;stroke-dasharray:none;stroke-opacity:0.7"
         id="path38" /><path
         d="m 189.859,38.297 c 0,-0.594 -0.234,-1.164 -0.656,-1.582 -0.418,-0.418 -0.988,-0.656 -1.582,-0.656 -0.594,0 -1.16,0.238 -1.582,0.656 -0.418,0.418 -0.656,0.988 -0.656,1.582 0,0.594 0.238,1.164 0.656,1.582 0.422,0.422 0.988,0.656 1.582,0.656 0.594,0 1.164,-0.234 1.582,-0.656 0.422,-0.418 0.656,-0.988 0.656,-1.582 z"
         style="fill:#a3b4cc;fill-opacity:1;fill-rule:evenodd;stroke:none"
         id="path40" /><path
         d="m 189.859,38.297 c 0,-0.594 -0.234,-1.164 -0.656,-1.582 -0.418,-0.418 -0.988,-0.656 -1.582,-0.656 -0.594,0 -1.16,0.238 -1.582,0.656 -0.418,0.418 -0.656,0.988 -0.656,1.582 0,0.594 0.238,1.164 0.656,1.582 0.422,0.422 0.988,0.656 1.582,0.656 0.594,0 1.164,-0.234 1.582,-0.656 0.422,-0.418 0.656,-0.988 0.656,-1.582 z"
         style="fill:none;stroke:#000000;stroke-width:0.36;stroke-linecap:square;stroke-linejoin:miter;stroke-miterlimit:3.25;stroke-dasharray:none;stroke-opacity:0.7"
         id="path42" /><path
         d="m 132.008,57.656 c 0,-0.594 -0.235,-1.16 -0.656,-1.582 -0.418,-0.418 -0.989,-0.656 -1.582,-0.656 -0.594,0 -1.161,0.238 -1.582,0.656 -0.418,0.422 -0.657,0.988 -0.657,1.582 0,0.594 0.239,1.164 0.657,1.582 0.421,0.422 0.988,0.657 1.582,0.657 0.593,0 1.164,-0.235 1.582,-0.657 0.421,-0.418 0.656,-0.988 0.656,-1.582 z"
         style="fill:#a3b4cc;fill-opacity:1;fill-rule:evenodd;stroke:none"
         id="path44" /><path
         d="m 132.008,57.656 c 0,-0.594 -0.235,-1.16 -0.656,-1.582 -0.418,-0.418 -0.989,-0.656 -1.582,-0.656 -0.594,0 -1.161,0.238 -1.582,0.656 -0.418,0.422 -0.657,0.988 -0.657,1.582 0,0.594 0.239,1.164 0.657,1.582 0.421,0.422 0.988,0.657 1.582,0.657 0.593,0 1.164,-0.235 1.582,-0.657 0.421,-0.418 0.656,-0.988 0.656,-1.582 z"
         style="fill:none;stroke:#000000;stroke-width:0.36;stroke-linecap:square;stroke-linejoin:miter;stroke-miterlimit:3.25;stroke-dasharray:none;stroke-opacity:0.7"
         id="path46" /><path
         d="m 132,18.914 c 0,-0.594 -0.234,-1.164 -0.652,-1.586 -0.422,-0.418 -0.993,-0.652 -1.586,-0.652 -0.59,0 -1.16,0.234 -1.582,0.652 -0.418,0.422 -0.653,0.992 -0.653,1.586 0,0.594 0.235,1.16 0.653,1.582 0.422,0.418 0.992,0.652 1.582,0.652 0.593,0 1.164,-0.234 1.586,-0.652 0.418,-0.422 0.652,-0.988 0.652,-1.582 z"
         style="fill:#a3b4cc;fill-opacity:1;fill-rule:evenodd;stroke:none"
         id="path48" /><path
         d="m 132,18.914 c 0,-0.594 -0.234,-1.164 -0.652,-1.586 -0.422,-0.418 -0.993,-0.652 -1.586,-0.652 -0.59,0 -1.16,0.234 -1.582,0.652 -0.418,0.422 -0.653,0.992 -0.653,1.586 0,0.594 0.235,1.16 0.653,1.582 0.422,0.418 0.992,0.652 1.582,0.652 0.593,0 1.164,-0.234 1.586,-0.652 0.418,-0.422 0.652,-0.988 0.652,-1.582 z"
         style="fill:none;stroke:#000000;stroke-width:0.36;stroke-linecap:square;stroke-linejoin:miter;stroke-miterlimit:3.25;stroke-dasharray:none;stroke-opacity:0.7"
         id="path50" /></g><g
       id="g52"><g
         id="g54"
         clip-path="url(#clipPath58)"><path
           d="M 259.02,64.863 H 0.18"
           style="fill:none;stroke:#000000;stroke-width:0.144;stroke-linecap:square;stroke-linejoin:miter;stroke-miterlimit:3.25;stroke-dasharray:none;stroke-opacity:1"
           id="path60" /></g></g><g
       id="g62"><path
         d="M 0.18,64.863 V 0.18"
         style="fill:none;stroke:#000000;stroke-width:0.144;stroke-linecap:square;stroke-linejoin:miter;stroke-miterlimit:3.25;stroke-dasharray:none;stroke-opacity:1"
         id="path64" /></g><g
       id="g66"><g
         id="g68"
         clip-path="url(#clipPath72)"><path
           d="M 0.18,0.18 H 259.02"
           style="fill:none;stroke:#000000;stroke-width:0.144;stroke-linecap:square;stroke-linejoin:miter;stroke-miterlimit:3.25;stroke-dasharray:none;stroke-opacity:1"
           id="path74" /></g></g><g
       id="g76"><g
         id="g78"
         clip-path="url(#clipPath82)"><path
           d="M 259.02,0.18 V 64.863"
           style="fill:none;stroke:#000000;stroke-width:0.144;stroke-linecap:square;stroke-linejoin:miter;stroke-miterlimit:3.25;stroke-dasharray:none;stroke-opacity:1"
           id="path84" /></g></g></g></svg>
