<?xml version="1.0" encoding="UTF-8" standalone="no"?>
<!-- Created with Inkscape (http://www.inkscape.org/) -->

<svg
   version="1.1"
   id="svg2"
   width="617.33331"
   height="57.333332"
   viewBox="0 0 617.33331 57.333332"
   sodipodi:docname="11zrqyeu1me9r.pdf"
   xmlns:inkscape="http://www.inkscape.org/namespaces/inkscape"
   xmlns:sodipodi="http://sodipodi.sourceforge.net/DTD/sodipodi-0.dtd"
   xmlns="http://www.w3.org/2000/svg"
   xmlns:svg="http://www.w3.org/2000/svg">
  <defs
     id="defs6" />
  <sodipodi:namedview
     id="namedview4"
     pagecolor="#ffffff"
     bordercolor="#999999"
     borderopacity="1"
     inkscape:showpageshadow="0"
     inkscape:pageopacity="0"
     inkscape:pagecheckerboard="0"
     inkscape:deskcolor="#d1d1d1" />
  <g
     id="g8"
     inkscape:groupmode="layer"
     inkscape:label="11zrqyeu1me9r"
     transform="matrix(1.3333333,0,0,1.3333333,0,1.1e-6)">
    <g
       id="g10">
      <text
         xml:space="preserve"
         transform="translate(1.587056,10)"
         style="font-variant:normal;font-size:7.92px;font-family:CairoFont-0;-inkscape-font-specification:CairoFont-0-0;writing-mode:lr-tb;fill:#dd1100;fill-opacity:1;fill-rule:nonzero;stroke:none"
         id="text14"><tspan
           x="0 4.1104798 9.1159201 13.266 18.0576 22.849199 27.719999 30.404881 35.299438 38.1348 42.601681 47.472481 50.743439 55.186562 57.229919 61.633438 66.425041 72.190804 75.461761 79.904877 84.751923"
           y="0"
           sodipodi:role="line"
           id="tspan12">FCLoopIntegralToGraph</tspan></text>
      <text
         xml:space="preserve"
         transform="translate(91.954556,10)"
         style="font-variant:normal;font-size:7.92px;font-family:CairoFont-0;-inkscape-font-specification:CairoFont-0-0;writing-mode:lr-tb;fill:#000000;fill-opacity:1;fill-rule:nonzero;stroke:none"
         id="text18"><tspan
           x="0"
           y="0"
           id="tspan16">:</tspan></text>
      <text
         xml:space="preserve"
         transform="translate(97.664112,10)"
         style="font-variant:normal;font-size:7.92px;font-family:CairoFont-0;-inkscape-font-specification:CairoFont-0-0;writing-mode:lr-tb;fill:#898989;fill-opacity:1;fill-rule:nonzero;stroke:none"
         id="text22"><tspan
           x="0 4.4035201 7.67448 10.94544 15.73704"
           y="0"
           sodipodi:role="line"
           id="tspan20">Error</tspan></text>
      <text
         xml:space="preserve"
         transform="translate(116.67211,10)"
         style="font-variant:normal;font-size:7.92px;font-family:CairoFont-1;-inkscape-font-specification:CairoFont-1-0;writing-mode:lr-tb;fill:#898989;fill-opacity:1;fill-rule:nonzero;stroke:none"
         id="text26"><tspan
           x="0"
           y="0"
           id="tspan24">!</tspan></text>
      <text
         xml:space="preserve"
         transform="translate(120.91723,10)"
         style="font-variant:normal;font-size:7.92px;font-family:CairoFont-0;-inkscape-font-specification:CairoFont-0-0;writing-mode:lr-tb;fill:#898989;fill-opacity:1;fill-rule:nonzero;stroke:none"
         id="text34"><tspan
           x="0 4.1104798 9.1159201 13.266 18.0576 22.849199 27.719999 30.381121 35.275681 38.1348 42.601681 47.472481 50.743439 55.186562 57.229919 61.633438 66.425041 72.190804 75.461761 79.881119 84.751923 91.705681 96.172562 101.06712 104.86872 109.66032 114.55488 119.44944 122.30856 126.77544 130.0464 134.51328 141.42744 147.92184 150.64632 155.08945 157.94856 162.39168 166.48631 171.35712 174.62808 179.41968 184.29048 186.33385 190.80072 200.24136 204.68448 209.57904 216.50111 223.90633 228.80087 232.59456 237.50496 241.94807 246.81888 251.61047 254.88144 259.79184 262.65097 267.54553 274.06369 277.86526 282.65689 290.06207 294.93289 299.82745 302.68655 307.12967 309.9888 312.03217 316.79999 321.69455 325.87631 330.27985 335.17441"
           y="0"
           sodipodi:role="line"
           id="tspan28">FCLoopIntegralToGraphencounteredafatalproblemandmustabortthecomputation.The</tspan><tspan
           x="-97.209732 -92.338928 -89.06797 -84.276375 -79.405571 -77.362213 -72.895332 -63.44677 -60.175812 -55.708931 -51.265812 -46.395012 -42.60133 -38.435413 -34.324932 -29.881811 -27.838451 -25.795092 -21.328211 -14.406132 -11.547011 -4.7041316 -1.4331715 3.0337086 6.8353086 11.626908 16.521469 20.315149 23.174269 26.445229 31.339788 35.141388 40.043869 42.902988 47.79755 54.315708 59.186508 62.45747 66.900589 71.771385 78.717232 83.508827 88.625145 91.484268 96.37883 102.90491 107.77571 109.81907 113.84243 118.30931 125.24723 127.29059 132.08218 136.87379 143.78795 145.83131 150.72588 153.58499 158.05186 162.92267 166.19363 170.63675 172.68011 176.84602 179.53091 184.65515 187.51427 192.40883 198.92699 200.97035 205.86491 208.72403 213.1909 218.06171 221.33267 225.77579 229.8625 232.58699 237.03011 240.83171 243.69083 248.48242 251.75339 253.79675 257.49539 261.96228 265.75595 269.93771 272.79681 276.06778 282.1662 284.20953 289.1041 292.9057 296.17667 300.64355 305.08667 308.88034 310.89996 315.79449"
           y="14.999997"
           sodipodi:role="line"
           id="tspan30">problemreads:Failedtoreconstructthegraphofthegivenloopintegral.Iftheintegralfactorizes,tryincreasing</tspan><tspan
           x="-81.404732 -76.652733 -72.185852 -68.914886 -66.055771 -61.58889 -57.399212 -51.617611 -47.15073 -42.27993 -39.008968 -34.542091"
           y="29.519995"
           sodipodi:role="line"
           id="tspan32">VertexDegree</tspan></text>
    </g>
  </g>
</svg>
