<?xml version="1.0" encoding="UTF-8" standalone="no"?>
<!-- Created with Inkscape (http://www.inkscape.org/) -->

<svg
   version="1.1"
   id="svg2"
   width="346.66666"
   height="244"
   viewBox="0 0 346.66666 244"
   sodipodi:docname="128eenfkkx168.pdf"
   xmlns:inkscape="http://www.inkscape.org/namespaces/inkscape"
   xmlns:sodipodi="http://sodipodi.sourceforge.net/DTD/sodipodi-0.dtd"
   xmlns="http://www.w3.org/2000/svg"
   xmlns:svg="http://www.w3.org/2000/svg">
  <defs
     id="defs6" />
  <sodipodi:namedview
     id="namedview4"
     pagecolor="#ffffff"
     bordercolor="#999999"
     borderopacity="1"
     inkscape:showpageshadow="0"
     inkscape:pageopacity="0"
     inkscape:pagecheckerboard="0"
     inkscape:deskcolor="#d1d1d1" />
  <g
     id="g8"
     inkscape:groupmode="layer"
     inkscape:label="128eenfkkx168"
     transform="matrix(1.3333333,0,0,1.3333333,0,6.1e-6)">
    <g
       id="g10">
      <path
         d="M 249.383,91.293 H 187.281"
         style="fill:none;stroke:#000000;stroke-width:1.44;stroke-linecap:butt;stroke-linejoin:miter;stroke-miterlimit:3.25;stroke-dasharray:none;stroke-opacity:0.7"
         id="path12" />
      <path
         d="M 182.812,90.441 126.348,68.043"
         style="fill:none;stroke:#000000;stroke-width:1.44;stroke-linecap:butt;stroke-linejoin:miter;stroke-miterlimit:3.25;stroke-dasharray:2.88, 2.88;stroke-dashoffset:0;stroke-opacity:0.7"
         id="path14" />
      <path
         d="m 182.812,92.148 -56.425,22.418"
         style="fill:none;stroke:#000000;stroke-width:1.44;stroke-linecap:butt;stroke-linejoin:miter;stroke-miterlimit:3.25;stroke-dasharray:2.88, 2.88;stroke-dashoffset:0;stroke-opacity:0.7"
         id="path16" />
      <path
         d="M 9.07,8.996 51.594,55.207"
         style="fill:none;stroke:#000000;stroke-width:1.44;stroke-linecap:butt;stroke-linejoin:miter;stroke-miterlimit:3.25;stroke-dasharray:none;stroke-opacity:0.7"
         id="path18" />
      <path
         d="m 53.164,59.227 0.066,64.207"
         style="fill:none;stroke:#000000;stroke-width:1.44;stroke-linecap:butt;stroke-linejoin:miter;stroke-miterlimit:3.25;stroke-dasharray:2.88, 2.88;stroke-dashoffset:0;stroke-opacity:0.7"
         id="path20" />
      <path
         d="m 55.453,57.242 66.449,9.613"
         style="fill:none;stroke:#000000;stroke-width:1.44;stroke-linecap:butt;stroke-linejoin:miter;stroke-miterlimit:3.25;stroke-dasharray:2.88, 2.88;stroke-dashoffset:0;stroke-opacity:0.7"
         id="path22" />
      <path
         d="M 9.145,173.664 51.664,127.453"
         style="fill:none;stroke:#000000;stroke-width:1.44;stroke-linecap:butt;stroke-linejoin:miter;stroke-miterlimit:3.25;stroke-dasharray:none;stroke-opacity:0.7"
         id="path24" />
      <path
         d="m 55.523,125.414 66.422,-9.66"
         style="fill:none;stroke:#000000;stroke-width:1.44;stroke-linecap:butt;stroke-linejoin:miter;stroke-miterlimit:3.25;stroke-dasharray:2.88, 2.88;stroke-dashoffset:0;stroke-opacity:0.7"
         id="path26" />
      <path
         d="m 124.199,69.504 0.035,43.601"
         style="fill:none;stroke:#000000;stroke-width:1.44;stroke-linecap:butt;stroke-linejoin:miter;stroke-miterlimit:3.25;stroke-dasharray:2.88, 2.88;stroke-dashoffset:0;stroke-opacity:0.7"
         id="path28" />
      <path
         d="m 254.016,91.293 c 0,-0.613 -0.243,-1.203 -0.68,-1.637 -0.434,-0.433 -1.024,-0.679 -1.637,-0.679 -0.613,0 -1.203,0.246 -1.637,0.679 -0.433,0.434 -0.679,1.024 -0.679,1.637 0,0.613 0.246,1.203 0.679,1.637 0.434,0.433 1.024,0.679 1.637,0.679 0.613,0 1.203,-0.246 1.637,-0.679 0.437,-0.434 0.68,-1.024 0.68,-1.637 z"
         style="fill:#a3b4cc;fill-opacity:1;fill-rule:evenodd;stroke:none"
         id="path30" />
      <path
         d="m 254.016,91.293 c 0,-0.613 -0.243,-1.203 -0.68,-1.637 -0.434,-0.433 -1.024,-0.679 -1.637,-0.679 -0.613,0 -1.203,0.246 -1.637,0.679 -0.433,0.434 -0.679,1.024 -0.679,1.637 0,0.613 0.246,1.203 0.679,1.637 0.434,0.433 1.024,0.679 1.637,0.679 0.613,0 1.203,-0.246 1.637,-0.679 0.437,-0.434 0.68,-1.024 0.68,-1.637 z"
         style="fill:none;stroke:#000000;stroke-width:0.36;stroke-linecap:square;stroke-linejoin:miter;stroke-miterlimit:3.25;stroke-dasharray:none;stroke-opacity:0.7"
         id="path32" />
      <path
         d="m 187.281,91.293 c 0,-0.613 -0.246,-1.203 -0.679,-1.637 -0.434,-0.433 -1.024,-0.676 -1.637,-0.676 -0.617,0 -1.203,0.243 -1.641,0.676 -0.433,0.434 -0.676,1.024 -0.676,1.637 0,0.617 0.243,1.207 0.676,1.641 0.438,0.433 1.024,0.675 1.641,0.675 0.613,0 1.203,-0.242 1.637,-0.675 0.433,-0.434 0.679,-1.024 0.679,-1.641 z"
         style="fill:#a3b4cc;fill-opacity:1;fill-rule:evenodd;stroke:none"
         id="path34" />
      <path
         d="m 187.281,91.293 c 0,-0.613 -0.246,-1.203 -0.679,-1.637 -0.434,-0.433 -1.024,-0.676 -1.637,-0.676 -0.617,0 -1.203,0.243 -1.641,0.676 -0.433,0.434 -0.676,1.024 -0.676,1.637 0,0.617 0.243,1.207 0.676,1.641 0.438,0.433 1.024,0.675 1.641,0.675 0.613,0 1.203,-0.242 1.637,-0.675 0.433,-0.434 0.679,-1.024 0.679,-1.641 z"
         style="fill:none;stroke:#000000;stroke-width:0.36;stroke-linecap:square;stroke-linejoin:miter;stroke-miterlimit:3.25;stroke-dasharray:none;stroke-opacity:0.7"
         id="path36" />
      <path
         d="M 9.816,7.293 C 9.816,6.68 9.57,6.09 9.137,5.656 8.703,5.219 8.113,4.977 7.5,4.977 6.887,4.977 6.297,5.219 5.863,5.656 5.43,6.09 5.184,6.68 5.184,7.293 5.184,7.906 5.43,8.496 5.863,8.93 6.297,9.363 6.887,9.609 7.5,9.609 8.113,9.609 8.703,9.363 9.137,8.93 9.57,8.496 9.816,7.906 9.816,7.293 Z"
         style="fill:#a3b4cc;fill-opacity:1;fill-rule:evenodd;stroke:none"
         id="path38" />
      <path
         d="M 9.816,7.293 C 9.816,6.68 9.57,6.09 9.137,5.656 8.703,5.219 8.113,4.977 7.5,4.977 6.887,4.977 6.297,5.219 5.863,5.656 5.43,6.09 5.184,6.68 5.184,7.293 5.184,7.906 5.43,8.496 5.863,8.93 6.297,9.363 6.887,9.609 7.5,9.609 8.113,9.609 8.703,9.363 9.137,8.93 9.57,8.496 9.816,7.906 9.816,7.293 Z"
         style="fill:none;stroke:#000000;stroke-width:0.36;stroke-linecap:square;stroke-linejoin:miter;stroke-miterlimit:3.25;stroke-dasharray:none;stroke-opacity:0.7"
         id="path40" />
      <path
         d="m 55.48,56.91 c 0,-0.613 -0.246,-1.203 -0.679,-1.637 -0.434,-0.433 -1.024,-0.679 -1.637,-0.679 -0.617,0 -1.203,0.246 -1.641,0.679 -0.433,0.434 -0.675,1.024 -0.675,1.637 0,0.613 0.242,1.203 0.675,1.637 0.438,0.433 1.024,0.68 1.641,0.68 0.613,0 1.203,-0.247 1.637,-0.68 0.433,-0.434 0.679,-1.024 0.679,-1.637 z"
         style="fill:#a3b4cc;fill-opacity:1;fill-rule:evenodd;stroke:none"
         id="path42" />
      <path
         d="m 55.48,56.91 c 0,-0.613 -0.246,-1.203 -0.679,-1.637 -0.434,-0.433 -1.024,-0.679 -1.637,-0.679 -0.617,0 -1.203,0.246 -1.641,0.679 -0.433,0.434 -0.675,1.024 -0.675,1.637 0,0.613 0.242,1.203 0.675,1.637 0.438,0.433 1.024,0.68 1.641,0.68 0.613,0 1.203,-0.247 1.637,-0.68 0.433,-0.434 0.679,-1.024 0.679,-1.637 z"
         style="fill:none;stroke:#000000;stroke-width:0.36;stroke-linecap:square;stroke-linejoin:miter;stroke-miterlimit:3.25;stroke-dasharray:none;stroke-opacity:0.7"
         id="path44" />
      <path
         d="m 9.895,175.371 c 0,-0.613 -0.247,-1.203 -0.68,-1.637 -0.434,-0.437 -1.024,-0.679 -1.637,-0.679 -0.613,0 -1.203,0.242 -1.637,0.679 -0.437,0.434 -0.679,1.024 -0.679,1.637 0,0.613 0.242,1.203 0.679,1.637 0.434,0.433 1.024,0.68 1.637,0.68 0.613,0 1.203,-0.247 1.637,-0.68 0.433,-0.434 0.68,-1.024 0.68,-1.637 z"
         style="fill:#a3b4cc;fill-opacity:1;fill-rule:evenodd;stroke:none"
         id="path46" />
      <path
         d="m 9.895,175.371 c 0,-0.613 -0.247,-1.203 -0.68,-1.637 -0.434,-0.437 -1.024,-0.679 -1.637,-0.679 -0.613,0 -1.203,0.242 -1.637,0.679 -0.437,0.434 -0.679,1.024 -0.679,1.637 0,0.613 0.242,1.203 0.679,1.637 0.434,0.433 1.024,0.68 1.637,0.68 0.613,0 1.203,-0.247 1.637,-0.68 0.433,-0.434 0.68,-1.024 0.68,-1.637 z"
         style="fill:none;stroke:#000000;stroke-width:0.36;stroke-linecap:square;stroke-linejoin:miter;stroke-miterlimit:3.25;stroke-dasharray:none;stroke-opacity:0.7"
         id="path48" />
      <path
         d="m 55.547,125.75 c 0,-0.617 -0.242,-1.203 -0.676,-1.641 -0.433,-0.433 -1.023,-0.675 -1.641,-0.675 -0.613,0 -1.203,0.242 -1.636,0.675 -0.434,0.438 -0.676,1.024 -0.676,1.641 0,0.613 0.242,1.203 0.676,1.637 0.433,0.433 1.023,0.679 1.636,0.679 0.618,0 1.208,-0.246 1.641,-0.679 0.434,-0.434 0.676,-1.024 0.676,-1.637 z"
         style="fill:#a3b4cc;fill-opacity:1;fill-rule:evenodd;stroke:none"
         id="path50" />
      <path
         d="m 55.547,125.75 c 0,-0.617 -0.242,-1.203 -0.676,-1.641 -0.433,-0.433 -1.023,-0.675 -1.641,-0.675 -0.613,0 -1.203,0.242 -1.636,0.675 -0.434,0.438 -0.676,1.024 -0.676,1.641 0,0.613 0.242,1.203 0.676,1.637 0.433,0.433 1.023,0.679 1.636,0.679 0.618,0 1.208,-0.246 1.641,-0.679 0.434,-0.434 0.676,-1.024 0.676,-1.637 z"
         style="fill:none;stroke:#000000;stroke-width:0.36;stroke-linecap:square;stroke-linejoin:miter;stroke-miterlimit:3.25;stroke-dasharray:none;stroke-opacity:0.7"
         id="path52" />
      <path
         d="m 126.512,67.188 c 0,-0.614 -0.242,-1.204 -0.68,-1.637 -0.434,-0.434 -1.023,-0.68 -1.637,-0.68 -0.613,0 -1.203,0.246 -1.636,0.68 -0.434,0.433 -0.68,1.023 -0.68,1.637 0,0.613 0.246,1.203 0.68,1.636 0.433,0.438 1.023,0.68 1.636,0.68 0.614,0 1.203,-0.242 1.637,-0.68 0.438,-0.433 0.68,-1.023 0.68,-1.636 z"
         style="fill:#a3b4cc;fill-opacity:1;fill-rule:evenodd;stroke:none"
         id="path54" />
      <path
         d="m 126.512,67.188 c 0,-0.614 -0.242,-1.204 -0.68,-1.637 -0.434,-0.434 -1.023,-0.68 -1.637,-0.68 -0.613,0 -1.203,0.246 -1.636,0.68 -0.434,0.433 -0.68,1.023 -0.68,1.637 0,0.613 0.246,1.203 0.68,1.636 0.433,0.438 1.023,0.68 1.636,0.68 0.614,0 1.203,-0.242 1.637,-0.68 0.438,-0.433 0.68,-1.023 0.68,-1.636 z"
         style="fill:none;stroke:#000000;stroke-width:0.36;stroke-linecap:square;stroke-linejoin:miter;stroke-miterlimit:3.25;stroke-dasharray:none;stroke-opacity:0.7"
         id="path56" />
      <path
         d="m 126.551,115.422 c 0,-0.613 -0.242,-1.203 -0.676,-1.637 -0.437,-0.433 -1.023,-0.68 -1.641,-0.68 -0.613,0 -1.203,0.247 -1.636,0.68 -0.434,0.434 -0.676,1.024 -0.676,1.637 0,0.613 0.242,1.203 0.676,1.637 0.433,0.437 1.023,0.679 1.636,0.679 0.618,0 1.204,-0.242 1.641,-0.679 0.434,-0.434 0.676,-1.024 0.676,-1.637 z"
         style="fill:#a3b4cc;fill-opacity:1;fill-rule:evenodd;stroke:none"
         id="path58" />
      <path
         d="m 126.551,115.422 c 0,-0.613 -0.242,-1.203 -0.676,-1.637 -0.437,-0.433 -1.023,-0.68 -1.641,-0.68 -0.613,0 -1.203,0.247 -1.636,0.68 -0.434,0.434 -0.676,1.024 -0.676,1.637 0,0.613 0.242,1.203 0.676,1.637 0.433,0.437 1.023,0.679 1.636,0.679 0.618,0 1.204,-0.242 1.641,-0.679 0.434,-0.434 0.676,-1.024 0.676,-1.637 z"
         style="fill:none;stroke:#000000;stroke-width:0.36;stroke-linecap:square;stroke-linejoin:miter;stroke-miterlimit:3.25;stroke-dasharray:none;stroke-opacity:0.7"
         id="path60" />
    </g>
  </g>
</svg>
