<?xml version="1.0" encoding="UTF-8" standalone="no"?>
<!-- Created with Inkscape (http://www.inkscape.org/) -->

<svg
   version="1.1"
   id="svg1"
   width="518.66669"
   height="200"
   viewBox="0 0 518.66669 200"
   sodipodi:docname="12n7wdpb4tcfk.pdf"
   xmlns:inkscape="http://www.inkscape.org/namespaces/inkscape"
   xmlns:sodipodi="http://sodipodi.sourceforge.net/DTD/sodipodi-0.dtd"
   xmlns="http://www.w3.org/2000/svg"
   xmlns:svg="http://www.w3.org/2000/svg">
  <defs
     id="defs1" />
  <sodipodi:namedview
     id="namedview1"
     pagecolor="#ffffff"
     bordercolor="#999999"
     borderopacity="1"
     inkscape:showpageshadow="0"
     inkscape:pageopacity="0"
     inkscape:pagecheckerboard="0"
     inkscape:deskcolor="#d1d1d1">
    <inkscape:page
       x="0"
       y="0"
       id="page1"
       width="518.66669"
       height="200"
       margin="0"
       bleed="0" />
  </sodipodi:namedview>
  <g
     id="g1"
     inkscape:groupmode="layer"
     inkscape:label="">
    <path
       id="path1"
       d="m 15.168,27.316 111.82,31.145"
       style="fill:none;stroke:#000000;stroke-width:2.16;stroke-linecap:butt;stroke-linejoin:miter;stroke-miterlimit:3.25;stroke-dasharray:none;stroke-opacity:0.7"
       transform="scale(1.3333333)" />
    <path
       id="path2"
       d="m 133.406,57.27 7.715,-5.735 10.633,-6.465 10.633,-5.031 10.633,-3.594 10.632,-2.16 10.637,-0.723 10.633,0.711 10.637,2.149 10.636,3.586 10.641,5.015 10.637,6.457 7.722,5.723"
       style="fill:none;stroke:#0000ff;stroke-width:2.16;stroke-linecap:butt;stroke-linejoin:miter;stroke-miterlimit:3.25;stroke-dasharray:4.32, 4.32;stroke-dashoffset:0;stroke-opacity:0.7"
       transform="scale(1.3333333)" />
    <path
       id="path3"
       d="m 133.406,61.598 7.723,5.726 10.637,6.453 10.64,5.02 10.637,3.582 10.637,2.148 10.636,0.711 10.633,-0.722 10.633,-2.157 10.637,-3.593 10.633,-5.032 10.628,-6.464 7.719,-5.735"
       style="fill:none;stroke:#0000ff;stroke-width:2.16;stroke-linecap:butt;stroke-linejoin:miter;stroke-miterlimit:3.25;stroke-dasharray:4.32, 4.32;stroke-dashoffset:0;stroke-opacity:0.7"
       transform="scale(1.3333333)" />
    <path
       id="path4"
       d="m 134,60.371 8.633,2.297 10.867,4.27 9.586,5.304 8.309,6.34 7.031,7.375 5.754,8.41 4.472,9.442 3.2,10.48 1.918,11.52 0.453,8.921"
       style="fill:none;stroke:#000000;stroke-width:2.16;stroke-linecap:butt;stroke-linejoin:miter;stroke-miterlimit:3.25;stroke-dasharray:4.32, 4.32;stroke-dashoffset:0;stroke-opacity:0.7"
       transform="scale(1.3333333)" />
    <path
       id="path5"
       d="m 130.676,63.062 0.453,8.922 1.918,11.516 3.195,10.48 4.477,9.446 5.75,8.41 7.031,7.375 8.309,6.34 9.589,5.304 10.864,4.27 8.636,2.297"
       style="fill:none;stroke:#000000;stroke-width:2.16;stroke-linecap:butt;stroke-linejoin:miter;stroke-miterlimit:3.25;stroke-dasharray:4.32, 4.32;stroke-dashoffset:0;stroke-opacity:0.7"
       transform="scale(1.3333333)" />
    <path
       id="path6"
       d="m 373.633,27.328 -112.02,31.07"
       style="fill:none;stroke:#000000;stroke-width:2.16;stroke-linecap:butt;stroke-linejoin:miter;stroke-miterlimit:3.25;stroke-dasharray:none;stroke-opacity:0.7"
       transform="scale(1.3333333)" />
    <path
       id="path7"
       d="m 255.832,62.195 -59.144,73.336"
       style="fill:none;stroke:#000000;stroke-width:2.16;stroke-linecap:butt;stroke-linejoin:miter;stroke-miterlimit:3.25;stroke-dasharray:none;stroke-opacity:0.7"
       transform="scale(1.3333333)" />
    <path
       id="path8"
       d="m 15.301,26.34 c 0,0.965 -0.383,1.887 -1.063,2.57 -0.683,0.68 -1.605,1.063 -2.57,1.063 -0.965,0 -1.887,-0.383 -2.57,-1.063 -0.68,-0.683 -1.063,-1.605 -1.063,-2.57 0,-0.961 0.383,-1.887 1.063,-2.567 0.683,-0.683 1.605,-1.066 2.57,-1.066 0.965,0 1.887,0.383 2.57,1.066 0.68,0.68 1.063,1.606 1.063,2.567 z"
       style="fill:#a3b4cc;fill-opacity:1;fill-rule:evenodd;stroke:#000000;stroke-width:0.54;stroke-linecap:square;stroke-linejoin:miter;stroke-miterlimit:3.25;stroke-dasharray:none;stroke-opacity:0.7"
       transform="scale(1.3333333)" />
    <path
       id="path9"
       d="m 134.121,59.434 c 0,0.964 -0.383,1.886 -1.062,2.57 -0.684,0.68 -1.606,1.062 -2.571,1.062 -0.961,0 -1.886,-0.382 -2.566,-1.062 -0.684,-0.684 -1.067,-1.606 -1.067,-2.57 0,-0.961 0.383,-1.887 1.067,-2.567 0.68,-0.683 1.605,-1.066 2.566,-1.066 0.965,0 1.887,0.383 2.571,1.066 0.679,0.68 1.062,1.606 1.062,2.567 z"
       style="fill:#a3b4cc;fill-opacity:1;fill-rule:evenodd;stroke:#000000;stroke-width:0.54;stroke-linecap:square;stroke-linejoin:miter;stroke-miterlimit:3.25;stroke-dasharray:none;stroke-opacity:0.7"
       transform="scale(1.3333333)" />
    <path
       id="path10"
       d="m 380.766,26.359 c 0,0.961 -0.383,1.887 -1.067,2.567 -0.679,0.683 -1.605,1.066 -2.566,1.066 -0.965,0 -1.887,-0.383 -2.571,-1.066 -0.679,-0.68 -1.062,-1.606 -1.062,-2.567 0,-0.964 0.383,-1.886 1.062,-2.57 0.684,-0.68 1.606,-1.062 2.571,-1.062 0.961,0 1.887,0.382 2.566,1.062 0.684,0.684 1.067,1.606 1.067,2.57 z"
       style="fill:#a3b4cc;fill-opacity:1;fill-rule:evenodd;stroke:#000000;stroke-width:0.54;stroke-linecap:square;stroke-linejoin:miter;stroke-miterlimit:3.25;stroke-dasharray:none;stroke-opacity:0.7"
       transform="scale(1.3333333)" />
    <path
       id="path11"
       d="m 261.746,59.367 c 0,0.965 -0.383,1.887 -1.062,2.571 C 260,62.617 259.078,63 258.113,63 c -0.965,0 -1.886,-0.383 -2.57,-1.062 -0.68,-0.684 -1.063,-1.606 -1.063,-2.571 0,-0.961 0.383,-1.887 1.063,-2.566 0.684,-0.684 1.605,-1.067 2.57,-1.067 0.965,0 1.887,0.383 2.571,1.067 0.679,0.679 1.062,1.605 1.062,2.566 z"
       style="fill:#a3b4cc;fill-opacity:1;fill-rule:evenodd;stroke:#000000;stroke-width:0.54;stroke-linecap:square;stroke-linejoin:miter;stroke-miterlimit:3.25;stroke-dasharray:none;stroke-opacity:0.7"
       transform="scale(1.3333333)" />
    <path
       id="path12"
       d="m 198.039,138.359 c 0,0.961 -0.383,1.887 -1.062,2.567 -0.684,0.683 -1.606,1.062 -2.571,1.062 -0.961,0 -1.886,-0.379 -2.566,-1.062 -0.684,-0.68 -1.067,-1.606 -1.067,-2.567 0,-0.964 0.383,-1.89 1.067,-2.57 0.68,-0.68 1.605,-1.062 2.566,-1.062 0.965,0 1.887,0.382 2.571,1.062 0.679,0.68 1.062,1.606 1.062,2.57 z"
       style="fill:#a3b4cc;fill-opacity:1;fill-rule:evenodd;stroke:#000000;stroke-width:0.54;stroke-linecap:square;stroke-linejoin:miter;stroke-miterlimit:3.25;stroke-dasharray:none;stroke-opacity:0.7"
       transform="scale(1.3333333)" />
    <path
       id="path13"
       d="M 388.531,149.445 H 0.27"
       style="fill:none;stroke:#000000;stroke-width:0.216;stroke-linecap:square;stroke-linejoin:miter;stroke-miterlimit:3.25;stroke-dasharray:none;stroke-opacity:1"
       transform="scale(1.3333333)" />
    <path
       id="path14"
       d="M 0.27,149.445 V 0.27"
       style="fill:none;stroke:#000000;stroke-width:0.216;stroke-linecap:square;stroke-linejoin:miter;stroke-miterlimit:3.25;stroke-dasharray:none;stroke-opacity:1"
       transform="scale(1.3333333)" />
    <path
       id="path15"
       d="M 0.27,0.27 H 388.531"
       style="fill:none;stroke:#000000;stroke-width:0.216;stroke-linecap:square;stroke-linejoin:miter;stroke-miterlimit:3.25;stroke-dasharray:none;stroke-opacity:1"
       transform="scale(1.3333333)" />
    <path
       id="path16"
       d="M 388.531,0.27 V 149.445"
       style="fill:none;stroke:#000000;stroke-width:0.216;stroke-linecap:square;stroke-linejoin:miter;stroke-miterlimit:3.25;stroke-dasharray:none;stroke-opacity:1"
       transform="scale(1.3333333)" />
  </g>
</svg>
