<?xml version="1.0" encoding="UTF-8" standalone="no"?>
<!-- Created with Inkscape (http://www.inkscape.org/) -->

<svg
   version="1.1"
   id="svg2"
   xml:space="preserve"
   width="346.66666"
   height="396"
   viewBox="0 0 346.66666 396"
   sodipodi:docname="12ux83if2wffb.pdf"
   xmlns:inkscape="http://www.inkscape.org/namespaces/inkscape"
   xmlns:sodipodi="http://sodipodi.sourceforge.net/DTD/sodipodi-0.dtd"
   xmlns="http://www.w3.org/2000/svg"
   xmlns:svg="http://www.w3.org/2000/svg"><defs
     id="defs6"><clipPath
       clipPathUnits="userSpaceOnUse"
       id="clipPath112"><path
         d="m 0,296 h 259.199 v 0.879 H 0 Z"
         id="path110" /></clipPath><clipPath
       clipPathUnits="userSpaceOnUse"
       id="clipPath122"><path
         d="M 0,0 H 1 V 296.879 H 0 Z"
         id="path120" /></clipPath><clipPath
       clipPathUnits="userSpaceOnUse"
       id="clipPath132"><path
         d="M 0,0 H 259.199 V 1 H 0 Z"
         id="path130" /></clipPath><clipPath
       clipPathUnits="userSpaceOnUse"
       id="clipPath142"><path
         d="m 258,0 h 1.199 V 296.879 H 258 Z"
         id="path140" /></clipPath></defs><sodipodi:namedview
     id="namedview4"
     pagecolor="#505050"
     bordercolor="#eeeeee"
     borderopacity="1"
     inkscape:pageshadow="0"
     inkscape:pageopacity="0"
     inkscape:pagecheckerboard="0" /><g
     id="g8"
     inkscape:groupmode="layer"
     inkscape:label="12ux83if2wffb"
     transform="matrix(1.3333333,0,0,1.3333333,0,9.9e-6)"><g
       id="g10"><path
         d="M 9.305,198.945 118.355,10.059"
         style="fill:none;stroke:#000000;stroke-width:1.44;stroke-linecap:butt;stroke-linejoin:miter;stroke-miterlimit:3.25;stroke-dasharray:2.88, 2.88;stroke-dashoffset:0;stroke-opacity:0.7"
         id="path12" /><text
         transform="translate(47.234976,106.00237)"
         style="font-variant:normal;font-size:6.48px;font-family:CairoFont-0;-inkscape-font-specification:CairoFont-0-0;writing-mode:lr-tb;fill:#000000;fill-opacity:1;fill-rule:nonzero;stroke:none"
         id="text16"><tspan
           x="0 3.60288"
           y="0"
           sodipodi:role="line"
           id="tspan14">p1</tspan></text><text
         transform="translate(55.438656,106.00237)"
         style="font-variant:normal;font-size:6.48px;font-family:CairoFont-1;-inkscape-font-specification:CairoFont-1-0;writing-mode:lr-tb;fill:#000000;fill-opacity:1;fill-rule:nonzero;stroke:none"
         id="text20"><tspan
           x="0"
           y="0"
           id="tspan18">+</tspan></text><text
         transform="translate(60.220896,106.00237)"
         style="font-variant:normal;font-size:6.48px;font-family:CairoFont-0;-inkscape-font-specification:CairoFont-0-0;writing-mode:lr-tb;fill:#000000;fill-opacity:1;fill-rule:nonzero;stroke:none"
         id="text24"><tspan
           x="0 3.60288"
           y="0"
           sodipodi:role="line"
           id="tspan22">p2</tspan></text><text
         transform="translate(68.424576,106.00237)"
         style="font-variant:normal;font-size:6.48px;font-family:CairoFont-1;-inkscape-font-specification:CairoFont-1-0;writing-mode:lr-tb;fill:#000000;fill-opacity:1;fill-rule:nonzero;stroke:none"
         id="text28"><tspan
           x="0"
           y="0"
           id="tspan26">+</tspan></text><text
         transform="translate(73.200336,106.00237)"
         style="font-variant:normal;font-size:6.48px;font-family:CairoFont-0;-inkscape-font-specification:CairoFont-0-0;writing-mode:lr-tb;fill:#000000;fill-opacity:1;fill-rule:nonzero;stroke:none"
         id="text32"><tspan
           x="0 3.60288"
           y="0"
           sodipodi:role="line"
           id="tspan30">p3</tspan></text><path
         d="m 10.082,199.633 11.867,-9.008 13.961,-9.187 13.961,-7.77 13.957,-6.359 13.961,-4.95 13.961,-3.531 13.961,-2.121 13.961,-0.707 13.961,0.707 13.961,2.121 13.961,3.531 13.961,4.95 13.961,6.359 13.961,7.77 13.96,9.187 11.864,9.008"
         style="fill:none;stroke:#000000;stroke-width:1.44;stroke-linecap:butt;stroke-linejoin:miter;stroke-miterlimit:3.25;stroke-dasharray:2.88, 2.88;stroke-dashoffset:0;stroke-opacity:0.7"
         id="path34" /><text
         transform="translate(109.57299,163.63456)"
         style="font-variant:normal;font-size:6.48px;font-family:CairoFont-0;-inkscape-font-specification:CairoFont-0-0;writing-mode:lr-tb;fill:#000000;fill-opacity:1;fill-rule:nonzero;stroke:none"
         id="text38"><tspan
           x="0 3.60288"
           y="0"
           sodipodi:role="line"
           id="tspan36">p1</tspan></text><text
         transform="translate(117.77667,163.63456)"
         style="font-variant:normal;font-size:6.48px;font-family:CairoFont-1;-inkscape-font-specification:CairoFont-1-0;writing-mode:lr-tb;fill:#000000;fill-opacity:1;fill-rule:nonzero;stroke:none"
         id="text42"><tspan
           x="0"
           y="0"
           id="tspan40">+</tspan></text><text
         transform="translate(122.55891,163.63456)"
         style="font-variant:normal;font-size:6.48px;font-family:CairoFont-0;-inkscape-font-specification:CairoFont-0-0;writing-mode:lr-tb;fill:#000000;fill-opacity:1;fill-rule:nonzero;stroke:none"
         id="text46"><tspan
           x="0 3.60288"
           y="0"
           sodipodi:role="line"
           id="tspan44">p3</tspan></text><path
         d="m 10.082,202.816 11.867,9.008 13.961,9.184 13.961,7.773 13.957,6.36 13.961,4.945 13.961,3.535 13.961,2.121 13.961,0.703 13.961,-0.703 13.961,-2.121 13.961,-3.535 13.961,-4.945 13.961,-6.36 13.961,-7.773 13.96,-9.184 11.864,-9.008"
         style="fill:none;stroke:#000000;stroke-width:1.44;stroke-linecap:butt;stroke-linejoin:miter;stroke-miterlimit:3.25;stroke-dasharray:none;stroke-opacity:0.7"
         id="path48" /><text
         transform="translate(114.62112,242.82591)"
         style="font-variant:normal;font-size:6.48px;font-family:CairoFont-0;-inkscape-font-specification:CairoFont-0-0;writing-mode:lr-tb;fill:#000000;fill-opacity:1;fill-rule:nonzero;stroke:none"
         id="text52"><tspan
           x="0 3.60288"
           y="0"
           sodipodi:role="line"
           id="tspan50">p2</tspan></text><text
         transform="translate(121.82862,239.80191)"
         style="font-variant:normal;font-size:4.56px;font-family:CairoFont-0;-inkscape-font-specification:CairoFont-0-0;writing-mode:lr-tb;fill:#000000;fill-opacity:1;fill-rule:nonzero;stroke:none"
         id="text56"><tspan
           x="0"
           y="0"
           id="tspan54">2</tspan></text><path
         d="m 122.098,8.801 13.734,5.769 14.934,7.5 13.714,8.203 12.485,8.911 11.265,9.617 10.04,10.324 8.816,11.027 7.594,11.739 6.367,12.445 5.144,13.148 3.922,13.856 2.696,14.566 1.472,15.27 0.25,15.976 -0.976,16.684 -1.867,14.777"
         style="fill:none;stroke:#000000;stroke-width:1.44;stroke-linecap:butt;stroke-linejoin:miter;stroke-miterlimit:3.25;stroke-dasharray:2.88, 2.88;stroke-dashoffset:0;stroke-opacity:0.7"
         id="path58" /><text
         transform="translate(195.66429,87.469535)"
         style="font-variant:normal;font-size:6.48px;font-family:CairoFont-1;-inkscape-font-specification:CairoFont-1-0;writing-mode:lr-tb;fill:#000000;fill-opacity:1;fill-rule:nonzero;stroke:none"
         id="text62"><tspan
           x="0"
           y="0"
           id="tspan60">(</tspan></text><text
         transform="translate(197.82213,87.469535)"
         style="font-variant:normal;font-size:6.48px;font-family:CairoFont-0;-inkscape-font-specification:CairoFont-0-0;writing-mode:lr-tb;fill:#000000;fill-opacity:1;fill-rule:nonzero;stroke:none"
         id="text66"><tspan
           x="0 3.60288"
           y="0"
           sodipodi:role="line"
           id="tspan64">p2</tspan></text><text
         transform="translate(206.02581,87.469535)"
         style="font-variant:normal;font-size:6.48px;font-family:CairoFont-1;-inkscape-font-specification:CairoFont-1-0;writing-mode:lr-tb;fill:#000000;fill-opacity:1;fill-rule:nonzero;stroke:none"
         id="text70"><tspan
           x="0"
           y="0"
           id="tspan68">+</tspan></text><text
         transform="translate(210.80157,87.469535)"
         style="font-variant:normal;font-size:6.48px;font-family:CairoFont-0;-inkscape-font-specification:CairoFont-0-0;writing-mode:lr-tb;fill:#000000;fill-opacity:1;fill-rule:nonzero;stroke:none"
         id="text74"><tspan
           x="0 3.60288"
           y="0"
           sodipodi:role="line"
           id="tspan72">p3</tspan></text><text
         transform="translate(218.00733,87.469535)"
         style="font-variant:normal;font-size:6.48px;font-family:CairoFont-1;-inkscape-font-specification:CairoFont-1-0;writing-mode:lr-tb;fill:#000000;fill-opacity:1;fill-rule:nonzero;stroke:none"
         id="text78"><tspan
           x="0"
           y="0"
           id="tspan76">)</tspan></text><text
         transform="translate(220.17554,84.445535)"
         style="font-variant:normal;font-size:4.56px;font-family:CairoFont-0;-inkscape-font-specification:CairoFont-0-0;writing-mode:lr-tb;fill:#000000;fill-opacity:1;fill-rule:nonzero;stroke:none"
         id="text82"><tspan
           x="0"
           y="0"
           id="tspan80">2</tspan></text><path
         d="m 119.344,10.391 -1.871,14.781 -0.973,16.68 0.246,15.976 1.473,15.274 2.699,14.562 3.918,13.856 5.144,13.152 6.372,12.441 7.589,11.739 8.817,11.031 10.043,10.32 11.261,9.617 12.489,8.91 13.711,8.208 14.937,7.496 13.735,5.769"
         style="fill:none;stroke:#000000;stroke-width:1.44;stroke-linecap:butt;stroke-linejoin:miter;stroke-miterlimit:3.25;stroke-dasharray:none;stroke-opacity:0.7"
         id="path84" /><text
         transform="translate(136.61086,126.55921)"
         style="font-variant:normal;font-size:6.48px;font-family:CairoFont-0;-inkscape-font-specification:CairoFont-0-0;writing-mode:lr-tb;fill:#000000;fill-opacity:1;fill-rule:nonzero;stroke:none"
         id="text88"><tspan
           x="0 3.60288"
           y="0"
           sodipodi:role="line"
           id="tspan86">p1</tspan></text><text
         transform="translate(143.81836,123.53521)"
         style="font-variant:normal;font-size:4.56px;font-family:CairoFont-0;-inkscape-font-specification:CairoFont-0-0;writing-mode:lr-tb;fill:#000000;fill-opacity:1;fill-rule:nonzero;stroke:none"
         id="text92"><tspan
           x="0"
           y="0"
           id="tspan90">2</tspan></text><path
         d="m 10.617,201.223 c 0,-0.696 -0.277,-1.368 -0.769,-1.86 -0.493,-0.492 -1.164,-0.769 -1.86,-0.769 -0.699,0 -1.367,0.277 -1.859,0.769 -0.496,0.492 -0.774,1.164 -0.774,1.86 0,0.699 0.278,1.367 0.774,1.863 0.492,0.492 1.16,0.769 1.859,0.769 0.696,0 1.367,-0.277 1.86,-0.769 0.492,-0.496 0.769,-1.164 0.769,-1.863 z"
         style="fill:#a3b4cc;fill-opacity:1;fill-rule:evenodd;stroke:none"
         id="path94" /><path
         d="m 10.617,201.223 c 0,-0.696 -0.277,-1.368 -0.769,-1.86 -0.493,-0.492 -1.164,-0.769 -1.86,-0.769 -0.699,0 -1.367,0.277 -1.859,0.769 -0.496,0.492 -0.774,1.164 -0.774,1.86 0,0.699 0.278,1.367 0.774,1.863 0.492,0.492 1.16,0.769 1.859,0.769 0.696,0 1.367,-0.277 1.86,-0.769 0.492,-0.496 0.769,-1.164 0.769,-1.863 z"
         style="fill:none;stroke:#000000;stroke-width:0.36;stroke-linecap:square;stroke-linejoin:miter;stroke-miterlimit:3.25;stroke-dasharray:none;stroke-opacity:0.7"
         id="path96" /><path
         d="m 122.305,7.781 c 0,-0.699 -0.278,-1.367 -0.774,-1.859 -0.492,-0.496 -1.16,-0.774 -1.859,-0.774 -0.695,0 -1.367,0.278 -1.86,0.774 -0.492,0.492 -0.769,1.16 -0.769,1.859 0,0.696 0.277,1.367 0.769,1.86 0.493,0.492 1.165,0.769 1.86,0.769 0.699,0 1.367,-0.277 1.859,-0.769 0.496,-0.493 0.774,-1.164 0.774,-1.86 z"
         style="fill:#a3b4cc;fill-opacity:1;fill-rule:evenodd;stroke:none"
         id="path98" /><path
         d="m 122.305,7.781 c 0,-0.699 -0.278,-1.367 -0.774,-1.859 -0.492,-0.496 -1.16,-0.774 -1.859,-0.774 -0.695,0 -1.367,0.278 -1.86,0.774 -0.492,0.492 -0.769,1.16 -0.769,1.859 0,0.696 0.277,1.367 0.769,1.86 0.493,0.492 1.165,0.769 1.86,0.769 0.699,0 1.367,-0.277 1.859,-0.769 0.496,-0.493 0.774,-1.164 0.774,-1.86 z"
         style="fill:none;stroke:#000000;stroke-width:0.36;stroke-linecap:square;stroke-linejoin:miter;stroke-miterlimit:3.25;stroke-dasharray:none;stroke-opacity:0.7"
         id="path100" /><path
         d="m 233.988,201.223 c 0,-0.696 -0.277,-1.368 -0.769,-1.86 -0.496,-0.492 -1.164,-0.769 -1.864,-0.769 -0.695,0 -1.363,0.277 -1.859,0.769 -0.492,0.492 -0.769,1.164 -0.769,1.86 0,0.699 0.277,1.367 0.769,1.863 0.496,0.492 1.164,0.769 1.859,0.769 0.7,0 1.368,-0.277 1.864,-0.769 0.492,-0.496 0.769,-1.164 0.769,-1.863 z"
         style="fill:#a3b4cc;fill-opacity:1;fill-rule:evenodd;stroke:none"
         id="path102" /><path
         d="m 233.988,201.223 c 0,-0.696 -0.277,-1.368 -0.769,-1.86 -0.496,-0.492 -1.164,-0.769 -1.864,-0.769 -0.695,0 -1.363,0.277 -1.859,0.769 -0.492,0.492 -0.769,1.164 -0.769,1.86 0,0.699 0.277,1.367 0.769,1.863 0.496,0.492 1.164,0.769 1.859,0.769 0.7,0 1.368,-0.277 1.864,-0.769 0.492,-0.496 0.769,-1.164 0.769,-1.863 z"
         style="fill:none;stroke:#000000;stroke-width:0.36;stroke-linecap:square;stroke-linejoin:miter;stroke-miterlimit:3.25;stroke-dasharray:none;stroke-opacity:0.7"
         id="path104" /></g><g
       id="g106"><g
         id="g108"
         clip-path="url(#clipPath112)"><path
           d="M 259.02,296.641 H 0.18"
           style="fill:none;stroke:#000000;stroke-width:0.144;stroke-linecap:square;stroke-linejoin:miter;stroke-miterlimit:3.25;stroke-dasharray:none;stroke-opacity:1"
           id="path114" /></g></g><g
       id="g116"><g
         id="g118"
         clip-path="url(#clipPath122)"><path
           d="M 0.18,296.641 V 0.18"
           style="fill:none;stroke:#000000;stroke-width:0.144;stroke-linecap:square;stroke-linejoin:miter;stroke-miterlimit:3.25;stroke-dasharray:none;stroke-opacity:1"
           id="path124" /></g></g><g
       id="g126"><g
         id="g128"
         clip-path="url(#clipPath132)"><path
           d="M 0.18,0.18 H 259.02"
           style="fill:none;stroke:#000000;stroke-width:0.144;stroke-linecap:square;stroke-linejoin:miter;stroke-miterlimit:3.25;stroke-dasharray:none;stroke-opacity:1"
           id="path134" /></g></g><g
       id="g136"><g
         id="g138"
         clip-path="url(#clipPath142)"><path
           d="M 259.02,0.18 V 296.641"
           style="fill:none;stroke:#000000;stroke-width:0.144;stroke-linecap:square;stroke-linejoin:miter;stroke-miterlimit:3.25;stroke-dasharray:none;stroke-opacity:1"
           id="path144" /></g></g></g></svg>
