<?xml version="1.0" encoding="UTF-8" standalone="no"?>
<!-- Created with Inkscape (http://www.inkscape.org/) -->

<svg
   version="1.1"
   id="svg1"
   width="426.66666"
   height="16"
   viewBox="0 0 426.66666 16"
   sodipodi:docname="155fets01ut53.pdf"
   xmlns:inkscape="http://www.inkscape.org/namespaces/inkscape"
   xmlns:sodipodi="http://sodipodi.sourceforge.net/DTD/sodipodi-0.dtd"
   xmlns="http://www.w3.org/2000/svg"
   xmlns:svg="http://www.w3.org/2000/svg">
  <defs
     id="defs1" />
  <sodipodi:namedview
     id="namedview1"
     pagecolor="#ffffff"
     bordercolor="#999999"
     borderopacity="1"
     inkscape:showpageshadow="0"
     inkscape:pageopacity="0"
     inkscape:pagecheckerboard="0"
     inkscape:deskcolor="#d1d1d1">
    <inkscape:page
       x="0"
       y="0"
       id="page1"
       width="426.66666"
       height="16"
       margin="0"
       bleed="0" />
  </sodipodi:namedview>
  <g
     id="g1"
     inkscape:groupmode="layer"
     inkscape:label="">
    <path
       id="path1"
       d="M 1.4768516,-9.765625e-4 H 0.77372656 V -5.6611328 H 3.9260703 v 0.6328125 H 1.4768516 v 2.0039062 h 2.296875 v 0.6210938 H 1.4768516 Z M 6.4192344,-4.3251953 c 0.3632812,0 0.6796875,0.082031 0.9375,0.234375 0.2578125,0.1640625 0.4570312,0.3867187 0.609375,0.6796875 0.140625,0.28125 0.2109375,0.6210937 0.2109375,0.9960937 v 0.421875 h -2.90625 c 0,0.4921875 0.1289062,0.8554688 0.3632812,1.10156254 0.234375,0.2578125 0.5625,0.375 0.984375,0.375 0.2695313,0 0.515625,-0.0234375 0.7148438,-0.0703125 0.2109375,-0.046875 0.4335937,-0.12890625 0.65625,-0.22265625 v 0.609375 c -0.2226563,0.09375 -0.4453125,0.1640625 -0.6445313,0.2109375 -0.2109375,0.046875 -0.46875,0.0703125 -0.75,0.0703125 -0.4101562,0 -0.7617187,-0.0820312525 -1.078125,-0.24609375 C 5.2122031,-0.32910156 4.9778281,-0.57519531 4.8020469,-0.89160156 4.6262656,-1.2197266 4.5442344,-1.6181641 4.5442344,-2.0869141 c 0,-0.46875 0.070312,-0.8671875 0.234375,-1.2070312 0.1523437,-0.328125 0.375,-0.5859375 0.65625,-0.7617188 0.28125,-0.1757812 0.609375,-0.2695312 0.984375,-0.2695312 z m 0,0.5742187 c -0.3398438,0 -0.609375,0.1054688 -0.796875,0.3164063 -0.1875,0.2226562 -0.3046875,0.515625 -0.3398438,0.890625 h 2.1679688 c 0,-0.234375 -0.046875,-0.4570313 -0.1171875,-0.6328125 -0.082031,-0.1757813 -0.1875,-0.3164063 -0.3398438,-0.421875 C 6.8411094,-3.7041016 6.6536094,-3.7509766 6.4192344,-3.7509766 Z m 2.1708984,-0.4921875 h 0.7382813 l 0.9257809,2.4140625 c 0.04687,0.140625 0.09375,0.28125 0.140625,0.4101563 0.04687,0.1289062 0.08203,0.2578125 0.128907,0.3867187 0.02344,0.12890629 0.05859,0.24609379 0.08203,0.36328129 h 0.03516 c 0.02344,-0.12890625 0.08203,-0.3046875 0.152344,-0.51562499 0.05859,-0.2226563 0.128906,-0.4335938 0.210937,-0.65625 l 0.867188,-2.4023438 h 0.75 L 10.793261,0.58496094 C 10.687792,0.85449219 10.570605,1.0888672 10.42998,1.2880859 c -0.128907,0.1875 -0.304688,0.3398438 -0.4921879,0.4570313 -0.1875,0.1054687 -0.421875,0.1523437 -0.6914063,0.1523437 -0.1289062,0 -0.234375,0 -0.3398437,-0.011719 -0.09375,-0.011719 -0.1757813,-0.035156 -0.2460938,-0.046875 v -0.550781 c 0.058594,0.011719 0.1289063,0.023437 0.2109375,0.023437 0.082031,0.023437 0.1640625,0.023437 0.2578125,0.023437 0.1640625,0 0.3046875,-0.023437 0.421875,-0.09375 C 9.6682578,1.1826172 9.7737266,1.0888672 9.8674766,0.98339844 9.9377891,0.86621094 10.008102,0.73730469 10.078414,0.57324219 l 0.222656,-0.5625 z m 6.7441402,-0.082031 c 0.503907,0 0.890625,0.1289062 1.148438,0.375 0.257812,0.2460937 0.386719,0.6328125 0.386719,1.1835937 V -9.765625e-4 H 16.178023 V -2.7197266 c 0,-0.3398437 -0.08203,-0.5976562 -0.222656,-0.7617187 -0.164062,-0.1757813 -0.398437,-0.2578125 -0.726562,-0.2578125 -0.46875,0 -0.796875,0.1289062 -0.972657,0.3984375 -0.1875,0.2695312 -0.269531,0.6445312 -0.269531,1.1367187 V -9.765625e-4 H 13.283492 V -4.2431641 h 0.5625 l 0.105469,0.5742188 h 0.04687 c 0.09375,-0.140625 0.199219,-0.2695313 0.339844,-0.3632813 0.152343,-0.09375 0.292968,-0.1757812 0.46875,-0.2226562 0.164062,-0.046875 0.339843,-0.070312 0.527343,-0.070312 z m 5.364258,-0.7851563 c -0.292969,0 -0.574219,0.058594 -0.808594,0.1640625 -0.246093,0.09375 -0.457031,0.2460938 -0.621093,0.4453125 -0.175782,0.1992188 -0.304688,0.4335938 -0.386719,0.7265625 -0.09375,0.28125 -0.140625,0.5976563 -0.140625,0.9492188 0,0.46875 0.08203,0.8671875 0.222656,1.2070312 0.140625,0.3515625 0.363281,0.609375 0.644531,0.79687504 0.28125,0.1875 0.65625,0.26953125 1.089844,0.26953125 0.246094,0 0.480469,-0.0117188 0.703125,-0.0585938 0.222656,-0.0351563 0.433594,-0.09375 0.644531,-0.1640625 v 0.62109375 c -0.210937,0.08203125 -0.433593,0.140625 -0.65625,0.17578125 -0.222656,0.03515625 -0.492187,0.05859375 -0.796875,0.05859375 -0.574218,0 -1.066406,-0.1171875 -1.441406,-0.36328125 -0.386719,-0.234375 -0.679687,-0.5625 -0.867187,-1.00781249 -0.199219,-0.4335937 -0.292969,-0.9492187 -0.292969,-1.546875 0,-0.4335937 0.05859,-0.8203125 0.175781,-1.171875 0.117188,-0.3515625 0.292969,-0.65625 0.527344,-0.9140625 0.222656,-0.2578125 0.515625,-0.4570312 0.855469,-0.5976562 0.328125,-0.140625 0.714843,-0.2109375 1.160156,-0.2109375 0.28125,0 0.574219,0.023437 0.84375,0.082031 0.269531,0.058594 0.503906,0.140625 0.714844,0.2460938 l -0.28125,0.5976562 c -0.175782,-0.070312 -0.375,-0.140625 -0.585938,-0.2109375 -0.210937,-0.058594 -0.445312,-0.09375 -0.703125,-0.09375 z m 4.104492,0.796875 c 0.515625,0 0.890625,0.1171875 1.148438,0.3398438 0.246094,0.2226562 0.363281,0.5859375 0.363281,1.078125 V -9.765625e-4 H 25.810836 L 25.68193,-0.59863281 h -0.03516 c -0.128906,0.15234375 -0.257812,0.28125 -0.375,0.38671875 -0.128906,0.10546875 -0.28125,0.17578125 -0.445312,0.22265625 -0.164063,0.046875 -0.363281,0.0703125 -0.609375,0.0703125 -0.246094,0 -0.480469,-0.046875 -0.679688,-0.140625 -0.210937,-0.08203125 -0.375,-0.22265625 -0.480468,-0.41015625 -0.117188,-0.1875 -0.175782,-0.421875 -0.175782,-0.71484374 0,-0.421875 0.164063,-0.7382813 0.503907,-0.9726563 0.328125,-0.2226562 0.832031,-0.3515625 1.535156,-0.375 l 0.714844,-0.023437 v -0.2578125 c 0,-0.3515625 -0.07031,-0.5976562 -0.222657,-0.7382812 -0.164062,-0.1289063 -0.375,-0.1992188 -0.65625,-0.1992188 -0.222656,0 -0.433593,0.035156 -0.632812,0.09375 -0.199219,0.070312 -0.386719,0.1523438 -0.5625,0.2226563 l -0.210938,-0.515625 c 0.1875,-0.09375 0.398438,-0.1875 0.65625,-0.2578125 0.257813,-0.070312 0.515625,-0.1054688 0.796875,-0.1054688 z m 0.199219,2.2617188 c -0.527344,0.023437 -0.890625,0.1054687 -1.101562,0.2578125 -0.199219,0.140625 -0.292969,0.3515625 -0.292969,0.6210937 0,0.23437504 0.07031,0.41015629 0.210937,0.52734379 0.140625,0.10546875 0.328125,0.1640625 0.5625,0.1640625 0.351563,0 0.65625,-0.09375 0.890625,-0.29296875 0.246094,-0.19921875 0.363282,-0.51562504 0.363282,-0.92578124 v -0.375 z m 3.328125,2.0507812375 H 27.627242 V -6.0244141 h 0.703125 z M 31.383102,0.08105469 c -0.386719,0 -0.714844,-0.0703125 -1.007813,-0.234375 C 30.08232,-0.30566406 29.847945,-0.54003906 29.683883,-0.86816406 29.51982,-1.1845703 29.437789,-1.5947266 29.437789,-2.0986328 c 0,-0.5273438 0.09375,-0.9492188 0.257813,-1.2773438 0.175781,-0.328125 0.410156,-0.5625 0.714843,-0.7148437 0.292969,-0.1523438 0.632813,-0.234375 1.019532,-0.234375 0.210937,0 0.421875,0.023437 0.621093,0.070312 0.199219,0.046875 0.363282,0.09375 0.492188,0.1640625 l -0.210938,0.5742187 c -0.128906,-0.046875 -0.28125,-0.09375 -0.445312,-0.140625 -0.175781,-0.035156 -0.328125,-0.058594 -0.46875,-0.058594 -0.292969,0 -0.527344,0.058594 -0.714844,0.1875 -0.1875,0.1171875 -0.316406,0.2929687 -0.410156,0.5273437 -0.09375,0.2460938 -0.128906,0.5390625 -0.128906,0.890625 0,0.3398438 0.03516,0.6328125 0.128906,0.8671875 0.09375,0.234375 0.222656,0.42187504 0.410156,0.53906254 0.175781,0.12890625 0.398438,0.17578125 0.667969,0.17578125 0.234375,0 0.433594,-0.0234375 0.609375,-0.0703125 0.175781,-0.046875 0.339844,-0.09375 0.492187,-0.17578125 v 0.62109375 c -0.140625,0.08203125 -0.304687,0.140625 -0.46875,0.17578125 -0.175781,0.03515625 -0.386718,0.05859375 -0.621093,0.05859455 z m 0,0"
       style="fill:#dd1100;fill-opacity:1;fill-rule:nonzero;stroke:none"
       aria-label="FeynCalc"
       transform="matrix(1.3333333,0,0,1.3333333,2.1363333,11.395833)" />
    <path
       id="path2"
       d="m 0.57325781,-0.43457031 c 0,-0.1875 0.046875,-0.328125 0.140625,-0.41015625 0.09375,-0.0703125 0.19921875,-0.1171875 0.33984379,-0.1171875 0.1289062,0 0.2578125,0.046875 0.3515625,0.1171875 0.09375,0.0820313 0.140625,0.22265625 0.140625,0.41015625 0,0.19921875 -0.046875,0.33984375 -0.140625,0.421875 -0.09375,0.08203125 -0.2226563,0.1171875 -0.3515625,0.1171875 -0.14062504,0 -0.24609379,-0.03515625 -0.33984379,-0.1171875 -0.09375,-0.08203125 -0.140625,-0.22265625 -0.140625,-0.421875 z m 0,-3.38671879 c 0,-0.1992187 0.046875,-0.3398437 0.140625,-0.421875 0.09375,-0.070312 0.19921875,-0.1171875 0.33984379,-0.1171875 0.1289062,0 0.2578125,0.046875 0.3515625,0.1171875 0.09375,0.082031 0.140625,0.2226563 0.140625,0.421875 0,0.1875 -0.046875,0.3398438 -0.140625,0.4101563 -0.09375,0.09375 -0.2226563,0.1289062 -0.3515625,0.1289062 -0.14062504,0 -0.24609379,-0.035156 -0.33984379,-0.1289062 -0.09375,-0.070312 -0.140625,-0.2226563 -0.140625,-0.4101563 z m 0,0"
       style="fill:#000000;fill-opacity:1;fill-rule:nonzero;stroke:none"
       aria-label=":"
       transform="matrix(1.3333333,0,0,1.3333333,47.2005,11.395833)" />
    <path
       id="path3"
       d="M 1.4778437,-9.765625e-4 H 0.77471875 V -5.6611328 H 3.9270625 v 0.6328125 H 1.4778437 v 2.0039062 h 2.296875 v 0.6210938 H 1.4778437 Z M 6.4202266,-4.3251953 c 0.3632812,0 0.6796875,0.082031 0.9375,0.234375 0.2578125,0.1640625 0.4570312,0.3867187 0.609375,0.6796875 0.140625,0.28125 0.2109375,0.6210937 0.2109375,0.9960937 v 0.421875 h -2.90625 c 0,0.4921875 0.1289062,0.8554688 0.3632812,1.10156254 0.234375,0.2578125 0.5625,0.375 0.984375,0.375 0.2695313,0 0.515625,-0.0234375 0.7148438,-0.0703125 0.2109375,-0.046875 0.4335937,-0.12890625 0.65625,-0.22265625 v 0.609375 c -0.2226563,0.09375 -0.4453125,0.1640625 -0.6445313,0.2109375 -0.2109375,0.046875 -0.46875,0.0703125 -0.75,0.0703125 -0.4101562,0 -0.7617187,-0.0820312525 -1.078125,-0.24609375 C 5.2131953,-0.32910156 4.9788203,-0.57519531 4.8030391,-0.89160156 4.6272578,-1.2197266 4.5452266,-1.6181641 4.5452266,-2.0869141 c 0,-0.46875 0.070312,-0.8671875 0.234375,-1.2070312 0.1523437,-0.328125 0.375,-0.5859375 0.65625,-0.7617188 0.28125,-0.1757812 0.609375,-0.2695312 0.984375,-0.2695312 z m 0,0.5742187 c -0.3398438,0 -0.609375,0.1054688 -0.796875,0.3164063 -0.1875,0.2226562 -0.3046875,0.515625 -0.3398438,0.890625 h 2.1679688 c 0,-0.234375 -0.046875,-0.4570313 -0.1171875,-0.6328125 -0.082031,-0.1757813 -0.1875,-0.3164063 -0.3398438,-0.421875 C 6.8421016,-3.7041016 6.6546016,-3.7509766 6.4202266,-3.7509766 Z m 2.1679687,-0.4921875 h 0.7382813 l 0.9257814,2.4140625 c 0.04687,0.140625 0.09375,0.28125 0.140625,0.4101563 0.04687,0.1289062 0.08203,0.2578125 0.128906,0.3867187 0.02344,0.12890629 0.05859,0.24609379 0.08203,0.36328129 h 0.03516 c 0.02344,-0.12890625 0.08203,-0.3046875 0.152343,-0.51562499 0.05859,-0.2226563 0.128907,-0.4335938 0.210938,-0.65625 l 0.867187,-2.4023438 h 0.75 L 10.79132,0.58496094 c -0.105468,0.26953125 -0.222656,0.50390626 -0.363281,0.70312496 -0.128906,0.1875 -0.304687,0.3398438 -0.4921874,0.4570313 -0.1875,0.1054687 -0.421875,0.1523437 -0.6914063,0.1523437 -0.1289062,0 -0.234375,0 -0.3398437,-0.011719 -0.09375,-0.011719 -0.1757813,-0.035156 -0.2460938,-0.046875 v -0.550781 c 0.058594,0.011719 0.1289063,0.023437 0.2109375,0.023437 0.082031,0.023437 0.1640625,0.023437 0.2578125,0.023437 0.1640625,0 0.3046875,-0.023437 0.421875,-0.09375 C 9.6663203,1.1826172 9.7717891,1.0888672 9.8655391,0.98339844 9.9358516,0.86621094 10.006164,0.73730469 10.076477,0.57324219 l 0.222656,-0.5625 z m 6.7470707,-0.082031 c 0.503906,0 0.890625,0.1289062 1.148437,0.375 0.257813,0.2460937 0.386719,0.6328125 0.386719,1.1835937 V -9.765625e-4 H 16.179016 V -2.7197266 c 0,-0.3398437 -0.08203,-0.5976562 -0.222657,-0.7617187 -0.164062,-0.1757813 -0.398437,-0.2578125 -0.726562,-0.2578125 -0.46875,0 -0.796875,0.1289062 -0.972656,0.3984375 -0.1875,0.2695312 -0.269532,0.6445312 -0.269532,1.1367187 V -9.765625e-4 H 13.284484 V -4.2431641 h 0.5625 l 0.105469,0.5742188 h 0.04687 c 0.09375,-0.140625 0.199219,-0.2695313 0.339844,-0.3632813 0.152344,-0.09375 0.292969,-0.1757812 0.46875,-0.2226562 0.164062,-0.046875 0.339844,-0.070312 0.527344,-0.070312 z m 5.364257,-0.7851563 c -0.292968,0 -0.574218,0.058594 -0.808593,0.1640625 -0.246094,0.09375 -0.457032,0.2460938 -0.621094,0.4453125 -0.175781,0.1992188 -0.304688,0.4335938 -0.386719,0.7265625 -0.09375,0.28125 -0.140625,0.5976563 -0.140625,0.9492188 0,0.46875 0.08203,0.8671875 0.222656,1.2070312 0.140625,0.3515625 0.363282,0.609375 0.644532,0.79687504 0.28125,0.1875 0.65625,0.26953125 1.089843,0.26953125 0.246094,0 0.480469,-0.0117188 0.703125,-0.0585938 0.222657,-0.0351563 0.433594,-0.09375 0.644532,-0.1640625 v 0.62109375 c -0.210938,0.08203125 -0.433594,0.140625 -0.65625,0.17578125 -0.222657,0.03515625 -0.492188,0.05859375 -0.796875,0.05859375 -0.574219,0 -1.066407,-0.1171875 -1.441407,-0.36328125 -0.386718,-0.234375 -0.679687,-0.5625 -0.867187,-1.00781249 -0.199219,-0.4335937 -0.292969,-0.9492187 -0.292969,-1.546875 0,-0.4335937 0.05859,-0.8203125 0.175781,-1.171875 0.117188,-0.3515625 0.292969,-0.65625 0.527344,-0.9140625 0.222656,-0.2578125 0.515625,-0.4570312 0.855469,-0.5976562 0.328125,-0.140625 0.714844,-0.2109375 1.160156,-0.2109375 0.28125,0 0.574219,0.023437 0.84375,0.082031 0.269531,0.058594 0.503906,0.140625 0.714844,0.2460938 l -0.28125,0.5976562 c -0.175781,-0.070312 -0.375,-0.140625 -0.585938,-0.2109375 -0.210937,-0.058594 -0.445312,-0.09375 -0.703125,-0.09375 z m 4.101563,0.796875 c 0.515625,0 0.890625,0.1171875 1.148437,0.3398438 0.246094,0.2226562 0.363282,0.5859375 0.363282,1.078125 V -9.765625e-4 H 25.808898 L 25.679992,-0.59863281 h -0.03516 c -0.128906,0.15234375 -0.257813,0.28125 -0.375,0.38671875 -0.128906,0.10546875 -0.28125,0.17578125 -0.445313,0.22265625 -0.164062,0.046875 -0.363281,0.0703125 -0.609375,0.0703125 -0.246093,0 -0.480468,-0.046875 -0.679687,-0.140625 -0.210938,-0.08203125 -0.375,-0.22265625 -0.480469,-0.41015625 -0.117187,-0.1875 -0.175781,-0.421875 -0.175781,-0.71484374 0,-0.421875 0.164062,-0.7382813 0.503906,-0.9726563 0.328125,-0.2226562 0.832031,-0.3515625 1.535156,-0.375 l 0.714844,-0.023437 v -0.2578125 c 0,-0.3515625 -0.07031,-0.5976562 -0.222656,-0.7382812 -0.164063,-0.1289063 -0.375,-0.1992188 -0.65625,-0.1992188 -0.222656,0 -0.433594,0.035156 -0.632813,0.09375 -0.199218,0.070312 -0.386718,0.1523438 -0.5625,0.2226563 l -0.210937,-0.515625 c 0.1875,-0.09375 0.398437,-0.1875 0.65625,-0.2578125 0.257812,-0.070312 0.515625,-0.1054688 0.796875,-0.1054688 z m 0.199219,2.2617188 c -0.527344,0.023437 -0.890625,0.1054687 -1.101563,0.2578125 -0.199219,0.140625 -0.292969,0.3515625 -0.292969,0.6210937 0,0.23437504 0.07031,0.41015629 0.210938,0.52734379 0.140625,0.10546875 0.328125,0.1640625 0.5625,0.1640625 0.351562,0 0.65625,-0.09375 0.890625,-0.29296875 0.246094,-0.19921875 0.363281,-0.51562504 0.363281,-0.92578124 v -0.375 z m 3.331054,2.0507812375 H 27.628234 V -6.0244141 h 0.703125 z M 31.381164,0.08105469 c -0.386719,0 -0.714844,-0.0703125 -1.007812,-0.234375 -0.292969,-0.15234375 -0.527344,-0.38671875 -0.691407,-0.71484375 -0.164062,-0.31640624 -0.246093,-0.72656254 -0.246093,-1.23046874 0,-0.5273438 0.09375,-0.9492188 0.257812,-1.2773438 0.175781,-0.328125 0.410156,-0.5625 0.714844,-0.7148437 0.292969,-0.1523438 0.632812,-0.234375 1.019531,-0.234375 0.210938,0 0.421875,0.023437 0.621094,0.070312 0.199219,0.046875 0.363281,0.09375 0.492187,0.1640625 l -0.210937,0.5742187 c -0.128906,-0.046875 -0.28125,-0.09375 -0.445313,-0.140625 -0.175781,-0.035156 -0.328125,-0.058594 -0.46875,-0.058594 -0.292968,0 -0.527343,0.058594 -0.714843,0.1875 -0.1875,0.1171875 -0.316407,0.2929687 -0.410157,0.5273437 -0.09375,0.2460938 -0.128906,0.5390625 -0.128906,0.890625 0,0.3398438 0.03516,0.6328125 0.128906,0.8671875 0.09375,0.234375 0.222657,0.42187504 0.410157,0.53906254 0.175781,0.12890625 0.398437,0.17578125 0.667968,0.17578125 0.234375,0 0.433594,-0.0234375 0.609375,-0.0703125 0.175782,-0.046875 0.339844,-0.09375 0.492188,-0.17578125 v 0.62109375 c -0.140625,0.08203125 -0.304688,0.140625 -0.46875,0.17578125 -0.175781,0.03515625 -0.386719,0.05859375 -0.621094,0.05859455 z m 5.147461,-4.33593749 c 0,0.1054687 -0.01172,0.2109375 -0.01172,0.3046875 -0.01172,0.1171875 -0.02344,0.2109375 -0.02344,0.2929687 h 0.04687 c 0.08203,-0.140625 0.199218,-0.2695312 0.339843,-0.3632812 0.128907,-0.1054688 0.28125,-0.1757813 0.457032,-0.2226563 0.164062,-0.046875 0.339843,-0.070312 0.527343,-0.070312 0.339844,0 0.621094,0.046875 0.855469,0.1640625 0.222656,0.1054688 0.398438,0.2695313 0.515625,0.4921875 0.117188,0.234375 0.175781,0.5273438 0.175781,0.890625 V -9.765625e-4 H 38.720031 V -2.7197266 c 0,-0.3398437 -0.08203,-0.5976562 -0.222656,-0.7617187 -0.164063,-0.1757813 -0.398438,-0.2578125 -0.726563,-0.2578125 -0.316406,0 -0.574218,0.058594 -0.738281,0.1757812 -0.1875,0.1289063 -0.316406,0.2929688 -0.398437,0.5273438 -0.07031,0.234375 -0.105469,0.5039062 -0.105469,0.84375 V -9.765625e-4 H 35.8255 V -6.0244141 h 0.703125 z m 5.806641,-0.058594 c 0.515625,0 0.890625,0.1171875 1.148437,0.3398438 0.246094,0.2226562 0.363281,0.5859375 0.363281,1.078125 V -9.765625e-4 H 43.343078 L 43.214172,-0.59863281 h -0.03516 c -0.128907,0.15234375 -0.257813,0.28125 -0.375,0.38671875 -0.128907,0.10546875 -0.28125,0.17578125 -0.445313,0.22265625 -0.164062,0.046875 -0.363281,0.0703125 -0.609375,0.0703125 -0.246094,0 -0.480469,-0.046875 -0.679687,-0.140625 -0.210938,-0.08203125 -0.375,-0.22265625 -0.480469,-0.41015625 -0.117188,-0.1875 -0.175781,-0.421875 -0.175781,-0.71484374 0,-0.421875 0.164062,-0.7382813 0.503906,-0.9726563 0.328125,-0.2226562 0.832031,-0.3515625 1.535156,-0.375 l 0.714844,-0.023437 v -0.2578125 c 0,-0.3515625 -0.07031,-0.5976562 -0.222656,-0.7382812 -0.164063,-0.1289063 -0.375,-0.1992188 -0.65625,-0.1992188 -0.222657,0 -0.433594,0.035156 -0.632813,0.09375 -0.199219,0.070312 -0.386719,0.1523438 -0.5625,0.2226563 l -0.210937,-0.515625 c 0.1875,-0.09375 0.398437,-0.1875 0.65625,-0.2578125 0.257812,-0.070312 0.515625,-0.1054688 0.796875,-0.1054688 z m 0.199218,2.2617188 c -0.527343,0.023437 -0.890625,0.1054687 -1.101562,0.2578125 -0.199219,0.140625 -0.292969,0.3515625 -0.292969,0.6210937 0,0.23437504 0.07031,0.41015629 0.210938,0.52734379 0.140625,0.10546875 0.328125,0.1640625 0.5625,0.1640625 0.351562,0 0.65625,-0.09375 0.890625,-0.29296875 0.246093,-0.19921875 0.363281,-0.51562504 0.363281,-0.92578124 v -0.375 z m 5.393555,0.8789062 c 0,0.28125004 -0.07031,0.50390629 -0.199219,0.69140629 -0.140625,0.1875 -0.339843,0.31640625 -0.585937,0.421875 -0.257813,0.09375 -0.5625,0.140625 -0.902344,0.140625 -0.304687,0 -0.5625,-0.0234375 -0.773437,-0.0703125 -0.210938,-0.046875 -0.398438,-0.1171875 -0.5625,-0.19921875 v -0.6328125 c 0.164062,0.0820313 0.375,0.1640625 0.609375,0.234375 0.234375,0.0703125 0.480468,0.10546875 0.738281,0.10546875 0.351562,0 0.609375,-0.0585938 0.773437,-0.1640625 0.152344,-0.1171875 0.234375,-0.26953125 0.234375,-0.46874999 0,-0.09375 -0.03516,-0.1992188 -0.09375,-0.28125 -0.05859,-0.082031 -0.164062,-0.1640625 -0.316406,-0.2578125 -0.140625,-0.070312 -0.363281,-0.1640625 -0.632812,-0.28125 -0.28125,-0.1054688 -0.515625,-0.2109375 -0.703125,-0.3164063 -0.199219,-0.1054687 -0.351563,-0.234375 -0.457032,-0.375 -0.105468,-0.1523437 -0.164062,-0.3398437 -0.164062,-0.5742187 0,-0.3632813 0.152344,-0.6328125 0.445312,-0.8320313 0.292969,-0.1875 0.679688,-0.2929687 1.148438,-0.2929687 0.257812,0 0.503906,0.035156 0.726562,0.082031 0.222657,0.046875 0.433594,0.1171875 0.632813,0.1992188 l -0.234375,0.5625 c -0.1875,-0.082031 -0.375,-0.140625 -0.5625,-0.1992188 -0.199219,-0.046875 -0.398438,-0.070312 -0.609375,-0.070312 -0.28125,0 -0.503906,0.046875 -0.65625,0.140625 -0.152344,0.09375 -0.222656,0.2109375 -0.222656,0.375 0,0.1171875 0.03516,0.2109375 0.105468,0.2929688 0.05859,0.082031 0.1875,0.1640625 0.339844,0.234375 0.164063,0.082031 0.386719,0.1757812 0.65625,0.2695312 0.269531,0.1054688 0.492188,0.2109375 0.679688,0.3164063 0.199218,0.1054687 0.339843,0.234375 0.445312,0.3867187 0.09375,0.1523438 0.140625,0.3398438 0.140625,0.5624997 z m 4.734375,1.25390629 c -0.527344,0 -0.949219,-0.1875 -1.265625,-0.55078125 -0.316406,-0.36328125 -0.480469,-0.91406254 -0.480469,-1.64062504 0,-0.7382812 0.164063,-1.2773437 0.480469,-1.6523437 0.316406,-0.375 0.738281,-0.5625 1.277344,-0.5625 0.222656,0 0.410156,0.035156 0.574219,0.082031 0.152343,0.058594 0.304687,0.1289063 0.421875,0.2226563 0.128906,0.09375 0.222656,0.2109375 0.316406,0.3164062 h 0.04687 c -0.01172,-0.058594 -0.02344,-0.1640625 -0.03516,-0.2929687 -0.01172,-0.140625 -0.01172,-0.2460938 -0.01172,-0.328125 v -1.6992188 h 0.691406 v 6.0234375375 h -0.5625 L 54.01007,-0.57519531 h -0.02344 c -0.09375,0.12890625 -0.1875,0.24609375 -0.316406,0.33984375 -0.117188,0.09375 -0.269532,0.17578125 -0.433594,0.22265625 -0.164063,0.0703125 -0.351563,0.09375 -0.574219,0.09375 z m 0.105469,-0.5859375 c 0.445312,0 0.761719,-0.1171875 0.949219,-0.36328125 0.175781,-0.24609374 0.269531,-0.60937504 0.269531,-1.11328124 v -0.1289063 c 0,-0.515625 -0.08203,-0.9257812 -0.257813,-1.2070312 -0.175781,-0.2929688 -0.492187,-0.4335938 -0.960937,-0.4335938 -0.386719,0 -0.65625,0.1523438 -0.855469,0.4570313 -0.1875,0.2929687 -0.269531,0.6914062 -0.269531,1.1953125 0,0.5039062 0.08203,0.9023437 0.269531,1.18359374 0.199219,0.28125 0.480469,0.41015625 0.855469,0.41015625 z m 4.892578,-3.82031249 c 0.363281,0 0.679687,0.082031 0.9375,0.234375 0.257812,0.1640625 0.457031,0.3867187 0.609375,0.6796875 0.140625,0.28125 0.210937,0.6210937 0.210937,0.9960937 v 0.421875 h -2.90625 c 0,0.4921875 0.128907,0.8554688 0.363282,1.10156254 0.234375,0.2578125 0.5625,0.375 0.984375,0.375 0.269531,0 0.515625,-0.0234375 0.714843,-0.0703125 0.210938,-0.046875 0.433594,-0.12890625 0.65625,-0.22265625 v 0.609375 c -0.222656,0.09375 -0.445312,0.1640625 -0.644531,0.2109375 -0.210937,0.046875 -0.46875,0.0703125 -0.75,0.0703125 -0.410156,0 -0.761719,-0.0820312525 -1.078125,-0.24609375 -0.304687,-0.1640625 -0.539062,-0.41015625 -0.714844,-0.7265625 -0.175781,-0.32812504 -0.257812,-0.72656254 -0.257812,-1.19531254 0,-0.46875 0.07031,-0.8671875 0.234375,-1.2070312 0.152344,-0.328125 0.375,-0.5859375 0.65625,-0.7617188 0.28125,-0.1757812 0.609375,-0.2695312 0.984375,-0.2695312 z m 0,0.5742187 c -0.339844,0 -0.609375,0.1054688 -0.796875,0.3164063 -0.1875,0.2226562 -0.304688,0.515625 -0.339844,0.890625 h 2.167969 c 0,-0.234375 -0.04687,-0.4570313 -0.117188,-0.6328125 -0.08203,-0.1757813 -0.1875,-0.3164063 -0.339843,-0.421875 -0.152344,-0.1054688 -0.339844,-0.1523438 -0.574219,-0.1523438 z m 4.245117,3.25781254 c 0.105469,0 0.222656,-0.0117188 0.328125,-0.0234375 0.117188,-0.0117188 0.199219,-0.0351563 0.269531,-0.0585938 v 0.52734375 c -0.08203,0.03515625 -0.175781,0.0703125 -0.316406,0.09375 -0.140625,0.0234375 -0.269531,0.03515625 -0.398437,0.03515625 -0.222657,0 -0.421875,-0.03515625 -0.609375,-0.1171875 -0.199219,-0.0703125 -0.339844,-0.2109375 -0.457032,-0.3984375 -0.117187,-0.1875 -0.175781,-0.45703125 -0.175781,-0.79687504 v -2.4726563 h -0.597656 v -0.3398437 l 0.609375,-0.2695313 0.28125,-0.9023437 h 0.410156 v 0.9726562 h 1.21875 v 0.5390625 h -1.21875 v 2.4492188 c 0,0.26953129 0.04687,0.45703129 0.175781,0.58593754 0.128907,0.1171875 0.292969,0.17578125 0.480469,0.1757813 z m 3.082031,-3.83203124 c 0.363282,0 0.679688,0.082031 0.9375,0.234375 0.257813,0.1640625 0.457032,0.3867187 0.609375,0.6796875 0.140625,0.28125 0.210938,0.6210937 0.210938,0.9960937 v 0.421875 h -2.90625 c 0,0.4921875 0.128906,0.8554688 0.363281,1.10156254 0.234375,0.2578125 0.5625,0.375 0.984375,0.375 0.269531,0 0.515625,-0.0234375 0.714844,-0.0703125 0.210937,-0.046875 0.433594,-0.12890625 0.65625,-0.22265625 v 0.609375 c -0.222656,0.09375 -0.445313,0.1640625 -0.644531,0.2109375 -0.210938,0.046875 -0.46875,0.0703125 -0.75,0.0703125 -0.410157,0 -0.761719,-0.0820312525 -1.078125,-0.24609375 -0.304688,-0.1640625 -0.539063,-0.41015625 -0.714844,-0.7265625 -0.175781,-0.32812504 -0.257813,-0.72656254 -0.257813,-1.19531254 0,-0.46875 0.07031,-0.8671875 0.234375,-1.2070312 0.152344,-0.328125 0.375,-0.5859375 0.65625,-0.7617188 0.28125,-0.1757812 0.609375,-0.2695312 0.984375,-0.2695312 z m 0,0.5742187 c -0.339843,0 -0.609375,0.1054688 -0.796875,0.3164063 -0.1875,0.2226562 -0.304687,0.515625 -0.339843,0.890625 h 2.167968 c 0,-0.234375 -0.04687,-0.4570313 -0.117187,-0.6328125 -0.08203,-0.1757813 -0.1875,-0.3164063 -0.339844,-0.421875 -0.152344,-0.1054688 -0.339844,-0.1523438 -0.574219,-0.1523438 z m 4.538086,3.83203129 c -0.386718,0 -0.714843,-0.0703125 -1.007812,-0.234375 -0.292969,-0.15234375 -0.527344,-0.38671875 -0.691406,-0.71484375 -0.164063,-0.31640624 -0.246094,-0.72656254 -0.246094,-1.23046874 0,-0.5273438 0.09375,-0.9492188 0.257812,-1.2773438 0.175782,-0.328125 0.410157,-0.5625 0.714844,-0.7148437 0.292969,-0.1523438 0.632813,-0.234375 1.019531,-0.234375 0.210938,0 0.421875,0.023437 0.621094,0.070312 0.199219,0.046875 0.363281,0.09375 0.492188,0.1640625 l -0.210938,0.5742187 c -0.128906,-0.046875 -0.28125,-0.09375 -0.445312,-0.140625 -0.175782,-0.035156 -0.328125,-0.058594 -0.46875,-0.058594 -0.292969,0 -0.527344,0.058594 -0.714844,0.1875 -0.1875,0.1171875 -0.316406,0.2929687 -0.410156,0.5273437 -0.09375,0.2460938 -0.128907,0.5390625 -0.128907,0.890625 0,0.3398438 0.03516,0.6328125 0.128907,0.8671875 0.09375,0.234375 0.222656,0.42187504 0.410156,0.53906254 0.175781,0.12890625 0.398437,0.17578125 0.667969,0.17578125 0.234375,0 0.433593,-0.0234375 0.609375,-0.0703125 0.175781,-0.046875 0.339843,-0.09375 0.492187,-0.17578125 v 0.62109375 c -0.140625,0.08203125 -0.304687,0.140625 -0.46875,0.17578125 -0.175781,0.03515625 -0.386719,0.05859375 -0.621094,0.05859455 z m 3.506836,-0.57421875 c 0.105469,0 0.222657,-0.0117188 0.328125,-0.0234375 0.117188,-0.0117188 0.199219,-0.0351563 0.269532,-0.0585938 v 0.52734375 c -0.08203,0.03515625 -0.175782,0.0703125 -0.316407,0.09375 -0.140625,0.0234375 -0.269531,0.03515625 -0.398437,0.03515625 -0.222656,0 -0.421875,-0.03515625 -0.609375,-0.1171875 -0.199219,-0.0703125 -0.339844,-0.2109375 -0.457031,-0.3984375 -0.117188,-0.1875 -0.175782,-0.45703125 -0.175782,-0.79687504 v -2.472656 H 71.0755 v -0.3398437 l 0.609375,-0.2695313 0.28125,-0.9023437 h 0.410156 v 0.9726562 h 1.21875 v 0.5390625 h -1.21875 v 2.4492188 c 0,0.26953124 0.04687,0.45703124 0.175782,0.58593749 0.128906,0.1171875 0.292968,0.17578125 0.480468,0.17578105 z m 3.082032,-3.83203124 c 0.363281,0 0.679687,0.082031 0.9375,0.234375 0.257812,0.1640625 0.457031,0.3867187 0.609375,0.6796875 0.140625,0.28125 0.210937,0.6210937 0.210937,0.9960937 v 0.421875 h -2.90625 c 0,0.4921875 0.128906,0.8554688 0.363281,1.10156254 0.234375,0.2578125 0.5625,0.375 0.984375,0.375 0.269532,0 0.515625,-0.0234375 0.714844,-0.0703125 0.210938,-0.046875 0.433594,-0.12890625 0.65625,-0.22265625 v 0.609375 c -0.222656,0.09375 -0.445312,0.1640625 -0.644531,0.2109375 -0.210938,0.046875 -0.46875,0.0703125 -0.75,0.0703125 -0.410156,0 -0.761719,-0.0820312525 -1.078125,-0.24609375 -0.304688,-0.1640625 -0.539063,-0.41015625 -0.714844,-0.7265625 -0.175781,-0.32812504 -0.257812,-0.72656254 -0.257812,-1.19531254 0,-0.46875 0.07031,-0.8671875 0.234375,-1.2070312 0.152343,-0.328125 0.375,-0.5859375 0.65625,-0.7617188 0.28125,-0.1757812 0.609375,-0.2695312 0.984375,-0.2695312 z m 0,0.5742187 c -0.339844,0 -0.609375,0.1054688 -0.796875,0.3164063 -0.1875,0.2226562 -0.304688,0.515625 -0.339844,0.890625 h 2.167969 c 0,-0.234375 -0.04687,-0.4570313 -0.117188,-0.6328125 -0.08203,-0.1757813 -0.1875,-0.3164063 -0.339844,-0.421875 -0.152343,-0.1054688 -0.339843,-0.1523438 -0.574218,-0.1523438 z m 4.338867,3.83203129 c -0.527344,0 -0.949219,-0.1875 -1.265625,-0.55078125 -0.316407,-0.36328125 -0.480469,-0.91406254 -0.480469,-1.64062504 0,-0.7382812 0.164062,-1.2773437 0.480469,-1.6523437 0.316406,-0.375 0.738281,-0.5625 1.277343,-0.5625 0.222657,0 0.410157,0.035156 0.574219,0.082031 0.152344,0.058594 0.304688,0.1289063 0.421875,0.2226563 0.128906,0.09375 0.222656,0.2109375 0.316406,0.3164062 h 0.04687 c -0.01172,-0.058594 -0.02344,-0.1640625 -0.03516,-0.2929687 -0.01172,-0.140625 -0.01172,-0.2460938 -0.01172,-0.328125 v -1.6992188 h 0.691407 v 6.0234375375 h -0.5625 L 81.801086,-0.57519531 h -0.02344 c -0.09375,0.12890625 -0.1875,0.24609375 -0.316406,0.33984375 -0.117187,0.09375 -0.269531,0.17578125 -0.433594,0.22265625 -0.164062,0.0703125 -0.351562,0.09375 -0.574218,0.09375 z m 0.105468,-0.5859375 c 0.445313,0 0.761719,-0.1171875 0.949219,-0.36328125 0.175781,-0.24609374 0.269531,-0.60937504 0.269531,-1.11328124 v -0.1289063 c 0,-0.515625 -0.08203,-0.9257812 -0.257812,-1.2070312 -0.175781,-0.2929688 -0.492188,-0.4335938 -0.960938,-0.4335938 -0.386718,0 -0.65625,0.1523438 -0.855468,0.4570313 -0.1875,0.2929687 -0.269532,0.6914062 -0.269532,1.1953125 0,0.5039062 0.08203,0.9023437 0.269532,1.18359374 0.199218,0.28125 0.480468,0.41015625 0.855468,0.41015625 z M 88.89093,-1.1728516 c 0,0.28125004 -0.07031,0.50390629 -0.199219,0.69140629 -0.140625,0.1875 -0.339844,0.31640625 -0.585938,0.421875 -0.257812,0.09375 -0.5625,0.140625 -0.902343,0.140625 -0.304688,0 -0.5625,-0.0234375 -0.773438,-0.0703125 -0.210937,-0.046875 -0.398437,-0.1171875 -0.5625,-0.19921875 v -0.6328125 c 0.164063,0.0820313 0.375,0.1640625 0.609375,0.234375 0.234375,0.0703125 0.480469,0.10546875 0.738281,0.10546875 0.351563,0 0.609375,-0.0585938 0.773438,-0.1640625 0.152344,-0.1171875 0.234375,-0.26953125 0.234375,-0.46874999 0,-0.09375 -0.03516,-0.1992188 -0.09375,-0.28125 -0.05859,-0.082031 -0.164063,-0.1640625 -0.316406,-0.2578125 -0.140625,-0.070312 -0.363282,-0.1640625 -0.632813,-0.28125 -0.28125,-0.1054688 -0.515625,-0.2109375 -0.703125,-0.3164063 -0.199219,-0.1054687 -0.351562,-0.234375 -0.457031,-0.375 -0.105469,-0.1523437 -0.164063,-0.3398437 -0.164063,-0.5742187 0,-0.3632813 0.152344,-0.6328125 0.445313,-0.8320313 0.292969,-0.1875 0.679687,-0.2929687 1.148437,-0.2929687 0.257813,0 0.503907,0.035156 0.726563,0.082031 0.222656,0.046875 0.433594,0.1171875 0.632812,0.1992188 l -0.234375,0.5625 c -0.1875,-0.082031 -0.375,-0.140625 -0.5625,-0.1992188 -0.199218,-0.046875 -0.398437,-0.070312 -0.609375,-0.070312 -0.28125,0 -0.503906,0.046875 -0.65625,0.140625 -0.152343,0.09375 -0.222656,0.2109375 -0.222656,0.375 0,0.1171875 0.03516,0.2109375 0.105469,0.2929688 0.05859,0.082031 0.1875,0.1640625 0.339844,0.234375 0.164062,0.082031 0.386718,0.1757812 0.65625,0.2695312 0.269531,0.1054688 0.492187,0.2109375 0.679687,0.3164063 0.199219,0.1054687 0.339844,0.234375 0.445313,0.3867187 0.09375,0.1523438 0.140625,0.3398438 0.140625,0.5624997 z m 2.446289,0.67968754 c 0.105469,0 0.222656,-0.0117188 0.328125,-0.0234375 0.117187,-0.0117188 0.199219,-0.0351563 0.269531,-0.0585938 v 0.52734375 c -0.08203,0.03515625 -0.175781,0.0703125 -0.316406,0.09375 -0.140625,0.0234375 -0.269531,0.03515625 -0.398438,0.03515625 -0.222656,0 -0.421875,-0.03515625 -0.609375,-0.1171875 -0.199218,-0.0703125 -0.339843,-0.2109375 -0.457031,-0.3984375 -0.117187,-0.1875 -0.175781,-0.45703125 -0.175781,-0.79687494 v -2.4726564 h -0.597656 v -0.3398437 l 0.609375,-0.2695312 0.28125,-0.9023438 h 0.410156 v 0.9726563 h 1.21875 v 0.5390624 h -1.21875 v 2.4492189 c 0,0.26953119 0.04687,0.45703119 0.175781,0.58593744 0.128906,0.1171875 0.292969,0.17578125 0.480469,0.1757813 z m 3.421875,-3.83203124 c 0.08203,0 0.164062,0.011719 0.257812,0.011719 0.09375,0.011719 0.175782,0.023437 0.246094,0.035156 l -0.08203,0.6445312 c -0.07031,-0.023437 -0.152344,-0.023437 -0.234375,-0.046875 -0.08203,0 -0.164063,-0.011719 -0.234375,-0.011719 -0.164063,0 -0.316406,0.035156 -0.457031,0.1054687 -0.152344,0.070312 -0.292969,0.1640625 -0.398438,0.2929688 -0.117187,0.1289062 -0.222656,0.2695312 -0.28125,0.4453125 -0.05859,0.1757812 -0.09375,0.3632812 -0.09375,0.5859375 V -9.765625e-4 H 92.778625 V -4.2431641 h 0.574219 l 0.08203,0.7734375 h 0.03516 c 0.08203,-0.1640625 0.1875,-0.3046875 0.316407,-0.4335937 0.128906,-0.1171875 0.269531,-0.2226563 0.433593,-0.3046875 0.164063,-0.082031 0.351563,-0.1171875 0.539063,-0.1171875 z m 2.90625,0.011719 c 0.515625,0 0.890625,0.1171875 1.148437,0.3398438 0.246094,0.2226562 0.363282,0.5859375 0.363282,1.078125 V -9.765625e-4 H 98.673156 L 98.54425,-0.59863281 h -0.03516 c -0.128906,0.15234375 -0.257813,0.28125 -0.375,0.38671875 -0.128906,0.10546875 -0.28125,0.17578125 -0.445313,0.22265625 -0.164062,0.046875 -0.363281,0.0703125 -0.609375,0.0703125 -0.246093,0 -0.480468,-0.046875 -0.679687,-0.140625 -0.210938,-0.08203125 -0.375,-0.22265625 -0.480469,-0.41015625 -0.117187,-0.1875 -0.175781,-0.421875 -0.175781,-0.71484374 0,-0.421875 0.164062,-0.7382813 0.503906,-0.9726563 0.328125,-0.2226562 0.832031,-0.3515625 1.535156,-0.375 l 0.714844,-0.023437 v -0.2578125 c 0,-0.3515625 -0.07031,-0.5976562 -0.222656,-0.7382812 -0.164063,-0.1289063 -0.375,-0.1992188 -0.65625,-0.1992188 -0.222656,0 -0.433594,0.035156 -0.632813,0.09375 -0.199218,0.070312 -0.386718,0.1523438 -0.5625,0.2226563 l -0.210937,-0.515625 c 0.1875,-0.09375 0.398437,-0.1875 0.65625,-0.2578125 0.257812,-0.070312 0.515625,-0.1054688 0.796875,-0.1054688 z m 0.199219,2.2617188 c -0.527344,0.023437 -0.890625,0.1054687 -1.101563,0.2578125 -0.199219,0.140625 -0.292969,0.3515625 -0.292969,0.6210937 0,0.23437504 0.07031,0.41015629 0.210938,0.52734379 0.140625,0.10546875 0.328125,0.1640625 0.5625,0.1640625 0.351562,0 0.65625,-0.09375 0.890625,-0.29296875 0.246094,-0.19921875 0.363281,-0.51562504 0.363281,-0.92578124 v -0.375 z m 4.678707,-2.2734375 c 0.50391,0 0.89063,0.1289062 1.14844,0.375 0.25781,0.2460937 0.38672,0.6328125 0.38672,1.1835937 v 2.7656250375 h -0.69141 V -2.7197266 c 0,-0.3398437 -0.082,-0.5976562 -0.22265,-0.7617187 -0.16407,-0.1757813 -0.39844,-0.2578125 -0.72657,-0.2578125 -0.46875,0 -0.79687,0.1289062 -0.97265,0.3984375 -0.1875,0.2695312 -0.26953,0.6445312 -0.26953,1.1367187 v 2.2031250375 h -0.70313 V -4.2431641 h 0.5625 l 0.10547,0.5742188 h 0.0469 c 0.0937,-0.140625 0.19921,-0.2695313 0.33984,-0.3632813 0.15234,-0.09375 0.29297,-0.1757812 0.46875,-0.2226562 0.16406,-0.046875 0.33984,-0.070312 0.52734,-0.070312 z m 4.35352,0 c 0.28125,0 0.52734,0.058594 0.75,0.1523437 0.22266,0.1171875 0.42187,0.2695313 0.57422,0.4921875 h 0.0469 l 0.0937,-0.5625 h 0.55078 v 4.31250004 c 0,0.41015625 -0.0703,0.75 -0.19921,1.01953126 -0.14063,0.2695312 -0.35157,0.46875 -0.63282,0.609375 -0.28125,0.140625 -0.63281,0.1992187 -1.0664,0.1992187 -0.30469,0 -0.59766,-0.011719 -0.84375,-0.058594 -0.25782,-0.046875 -0.49219,-0.1171875 -0.67969,-0.2109375 V 0.98339844 c 0.1875,0.11718746 0.43359,0.19921876 0.70312,0.24609376 0.26954,0.070312 0.55079,0.09375 0.85547,0.09375 0.375,0 0.65625,-0.1054688 0.85547,-0.3164063 0.21094,-0.21093746 0.31641,-0.50390621 0.31641,-0.87890621 v -0.1640625 c 0,-0.0703125 0,-0.15234375 0.0117,-0.26953125 0,-0.12890625 0.0117,-0.2109375 0.0117,-0.2578125 h -0.0234 c -0.15235,0.22265625 -0.33985,0.375 -0.5625,0.48046875 -0.21094,0.1171875 -0.46875,0.1640625 -0.75,0.1640625 -0.5625,0 -0.98438,-0.1875 -1.30078,-0.5859375 -0.30469,-0.375 -0.45703,-0.91406249 -0.45703,-1.60546879 0,-0.6796875 0.15234,-1.21875 0.45703,-1.6171875 0.3164,-0.3984375 0.73828,-0.5976562 1.28906,-0.5976562 z m 0.0937,0.5859375 c -0.23438,0 -0.44531,0.058594 -0.60938,0.1875 -0.16406,0.1289062 -0.29296,0.3164062 -0.375,0.5507812 -0.0937,0.2460938 -0.1289,0.5390625 -0.1289,0.890625 0,0.5273438 0.0937,0.9257813 0.28125,1.20703129 0.1875,0.28125 0.48047,0.41015625 0.84375,0.41015625 0.22265,0 0.39844,-0.0234375 0.5625,-0.0820313 0.15234,-0.046875 0.26953,-0.140625 0.375,-0.2578125 0.0937,-0.1171875 0.17578,-0.26953124 0.22265,-0.45703124 0.0469,-0.1875 0.0703,-0.4101562 0.0703,-0.65625 v -0.1640625 c 0,-0.3867187 -0.0469,-0.703125 -0.12891,-0.9375 -0.0937,-0.2460937 -0.22266,-0.4101562 -0.41016,-0.5273437 -0.1875,-0.1054688 -0.42187,-0.1640625 -0.70312,-0.1640625 z m 4.90723,-0.5859375 c 0.36328,0 0.67968,0.082031 0.9375,0.234375 0.25781,0.1640625 0.45703,0.3867187 0.60937,0.6796875 0.14063,0.28125 0.21094,0.6210937 0.21094,0.9960937 v 0.421875 h -2.90625 c 0,0.4921875 0.1289,0.8554688 0.36328,1.10156254 0.23437,0.2578125 0.5625,0.375 0.98437,0.375 0.26954,0 0.51563,-0.0234375 0.71485,-0.0703125 0.21094,-0.046875 0.43359,-0.12890625 0.65625,-0.22265625 v 0.609375 c -0.22266,0.09375 -0.44531,0.1640625 -0.64453,0.2109375 -0.21094,0.046875 -0.46875,0.0703125 -0.75,0.0703125 -0.41016,0 -0.76172,-0.0820312525 -1.07813,-0.24609375 -0.30469,-0.1640625 -0.53906,-0.41015625 -0.71484,-0.7265625 -0.17578,-0.32812504 -0.25781,-0.72656254 -0.25781,-1.19531254 0,-0.46875 0.0703,-0.8671875 0.23437,-1.2070312 0.15234,-0.328125 0.375,-0.5859375 0.65625,-0.7617188 0.28125,-0.1757812 0.60938,-0.2695312 0.98438,-0.2695312 z m 0,0.5742187 c -0.33985,0 -0.60938,0.1054688 -0.79688,0.3164063 -0.1875,0.2226562 -0.30469,0.515625 -0.33984,0.890625 h 2.16797 c 0,-0.234375 -0.0469,-0.4570313 -0.11719,-0.6328125 -0.082,-0.1757813 -0.1875,-0.3164063 -0.33985,-0.421875 -0.15234,-0.1054688 -0.33984,-0.1523438 -0.57421,-0.1523438 z m 8.82128,1.6171875 c 0,0.3632813 -0.0469,0.6796875 -0.14062,0.9492188 -0.0937,0.26953124 -0.22266,0.49218749 -0.38672,0.67968749 -0.17578,0.19921875 -0.38672,0.33984375 -0.63281,0.4453125 -0.2461,0.09375 -0.51563,0.140625 -0.82031,0.140625 -0.28125,0 -0.52735,-0.046875 -0.77344,-0.140625 -0.23438,-0.10546875 -0.44531,-0.24609375 -0.6211,-0.4453125 -0.16406,-0.1875 -0.3164,-0.41015625 -0.41015,-0.67968749 -0.0937,-0.2695313 -0.14063,-0.5859375 -0.14063,-0.9492188 0,-0.46875 0.082,-0.8671875 0.23438,-1.1835937 0.16406,-0.328125 0.38672,-0.5742188 0.6914,-0.75 0.29297,-0.1757813 0.63282,-0.2578125 1.05469,-0.2578125 0.375,0 0.71485,0.082031 1.00781,0.2578125 0.29297,0.1757812 0.52735,0.421875 0.69141,0.75 0.16406,0.3164062 0.24609,0.7148437 0.24609,1.1835937 z m -3.19921,0 c 0,0.3398438 0.0352,0.6328125 0.1289,0.8789063 0.082,0.234375 0.21094,0.43359374 0.41016,0.56249999 0.17578,0.12890625 0.41015,0.1875 0.70312,0.1875 0.28125,0 0.51563,-0.0585938 0.70313,-0.1875 0.1875,-0.12890625 0.3164,-0.32812499 0.39844,-0.56249999 0.0937,-0.2460938 0.14062,-0.5390625 0.14062,-0.8789063 0,-0.328125 -0.0469,-0.6210937 -0.14062,-0.8671875 -0.0937,-0.234375 -0.22266,-0.4101562 -0.41016,-0.5390625 -0.17578,-0.1289062 -0.42188,-0.1992187 -0.70313,-0.1992187 -0.43359,0 -0.75,0.140625 -0.9375,0.421875 -0.19921,0.2929687 -0.29296,0.6914062 -0.29296,1.1835937 z m 5.0039,-2.4257812 c 0,0.1875 -0.0117,0.3515625 -0.0117,0.515625 -0.0117,0.1523437 -0.0234,0.2695312 -0.0234,0.3632812 h 0.0352 c 0.11719,-0.1757812 0.28125,-0.328125 0.50391,-0.4570312 0.19922,-0.1171875 0.48047,-0.1757813 0.80859,-0.1757813 0.52735,0 0.94922,0.1875 1.26563,0.5507813 0.3164,0.3632812 0.49218,0.9140625 0.49218,1.640625 0,0.4921875 -0.082,0.890625 -0.22265,1.21874999 -0.15235,0.328125 -0.35156,0.57421875 -0.60938,0.73828125 -0.26953,0.1640624975 -0.57422,0.24609375 -0.92578,0.24609375 -0.32812,0 -0.60937,-0.05859375 -0.80859,-0.1875 -0.22266,-0.1171875 -0.38672,-0.2578125 -0.50391,-0.43359375 h -0.0586 l -0.14063,0.5390624975 h -0.5039 V -6.0244141 h 0.70312 z m 1.19531,0.8203125 c -0.30468,0 -0.53906,0.058594 -0.71484,0.1757812 -0.17578,0.1054688 -0.30469,0.28125 -0.375,0.515625 -0.0703,0.2460938 -0.10547,0.5390625 -0.10547,0.9023438 v 0.035156 c 0,0.515625 0.082,0.9257813 0.25781,1.19531254 0.16407,0.28125 0.48047,0.41015625 0.94922,0.41015625 0.38672,0 0.65625,-0.12890625 0.85547,-0.41015625 0.1875,-0.28125004 0.28125,-0.69140624 0.28125,-1.21875004 0,-0.5273437 -0.0937,-0.9375 -0.28125,-1.2070312 -0.19922,-0.2695313 -0.48047,-0.3984375 -0.86719,-0.3984373 z m 2.47852,5.6367187 c -0.14062,0 -0.25781,0 -0.35156,-0.023437 -0.10547,-0.011719 -0.1875,-0.035156 -0.25781,-0.070312 v -0.5625 c 0.082,0.023437 0.15234,0.046875 0.24609,0.058594 0.082,0.011719 0.17578,0.023437 0.26953,0.023437 0.17578,0 0.31641,-0.035156 0.42188,-0.140625 0.11718,-0.09375 0.16406,-0.26953126 0.16406,-0.52734376 V -4.2431641 h 0.70312 v 4.87500004 c 0,0.26953125 -0.0469,0.49218746 -0.1289,0.67968746 -0.082,0.1875 -0.21094,0.3398438 -0.38672,0.4335938 -0.17578,0.1054687 -0.39844,0.1523437 -0.67969,0.152344 z m 0.44531,-7.2890625 c 0,-0.1523437 0.0352,-0.2695312 0.11719,-0.3398437 0.082,-0.070312 0.17578,-0.1054688 0.29297,-0.1054688 0.10547,0 0.19922,0.035156 0.28125,0.1054688 0.0703,0.070312 0.11719,0.1875 0.11719,0.3398437 0,0.140625 -0.0469,0.2578125 -0.11719,0.328125 -0.082,0.082031 -0.17578,0.1171875 -0.28125,0.1171875 -0.11719,0 -0.21094,-0.035156 -0.29297,-0.1171875 -0.082,-0.070312 -0.11719,-0.1875 -0.11719,-0.328125 z m 3.73242,1.0664063 c 0.36329,0 0.67969,0.082031 0.9375,0.234375 0.25782,0.1640625 0.45704,0.3867187 0.60938,0.6796875 0.14062,0.28125 0.21094,0.6210937 0.21094,0.9960937 v 0.421875 h -2.90625 c 0,0.4921875 0.1289,0.8554688 0.36328,1.10156254 0.23437,0.2578125 0.5625,0.375 0.98437,0.375 0.26953,0 0.51563,-0.0234375 0.71485,-0.0703125 0.21093,-0.046875 0.43359,-0.12890625 0.65625,-0.22265625 v 0.609375 c -0.22266,0.09375 -0.44532,0.1640625 -0.64453,0.2109375 -0.21094,0.046875 -0.46875,0.0703125 -0.75,0.0703125 -0.41016,0 -0.76172,-0.0820312525 -1.07813,-0.24609375 -0.30469,-0.1640625 -0.53906,-0.41015625 -0.71484,-0.7265625 -0.17578,-0.32812504 -0.25782,-0.72656254 -0.25782,-1.19531254 0,-0.46875 0.0703,-0.8671875 0.23438,-1.2070312 0.15234,-0.328125 0.375,-0.5859375 0.65625,-0.7617188 0.28125,-0.1757812 0.60937,-0.2695312 0.98437,-0.2695312 z m 0,0.5742187 c -0.33984,0 -0.60937,0.1054688 -0.79687,0.3164063 -0.1875,0.2226562 -0.30469,0.515625 -0.33984,0.890625 h 2.16796 c 0,-0.234375 -0.0469,-0.4570313 -0.11718,-0.6328125 -0.082,-0.1757813 -0.1875,-0.3164063 -0.33985,-0.421875 -0.15234,-0.1054688 -0.33984,-0.1523438 -0.57422,-0.1523438 z m 4.53809,3.83203129 c -0.38672,0 -0.71484,-0.0703125 -1.00781,-0.234375 -0.29297,-0.15234375 -0.52735,-0.38671875 -0.69141,-0.71484375 -0.16406,-0.31640624 -0.24609,-0.72656254 -0.24609,-1.23046874 0,-0.5273438 0.0937,-0.9492188 0.25781,-1.2773438 0.17578,-0.328125 0.41016,-0.5625 0.71484,-0.7148437 0.29297,-0.1523438 0.63282,-0.234375 1.01954,-0.234375 0.21093,0 0.42187,0.023437 0.62109,0.070312 0.19922,0.046875 0.36328,0.09375 0.49219,0.1640625 l -0.21094,0.5742187 c -0.12891,-0.046875 -0.28125,-0.09375 -0.44531,-0.140625 -0.17578,-0.035156 -0.32813,-0.058594 -0.46875,-0.058594 -0.29297,0 -0.52735,0.058594 -0.71485,0.1875 -0.1875,0.1171875 -0.3164,0.2929687 -0.41015,0.5273437 -0.0937,0.2460938 -0.12891,0.5390625 -0.12891,0.890625 0,0.3398438 0.0352,0.6328125 0.12891,0.8671875 0.0937,0.234375 0.22265,0.42187504 0.41015,0.53906254 0.17578,0.12890625 0.39844,0.17578125 0.66797,0.17578125 0.23438,0 0.4336,-0.0234375 0.60938,-0.0703125 0.17578,-0.046875 0.33984,-0.09375 0.49218,-0.17578125 v 0.62109375 c -0.14062,0.08203125 -0.30468,0.140625 -0.46875,0.17578125 -0.17578,0.03515625 -0.38671,0.05859375 -0.62109,0.05859455 z m 3.50684,-0.57421875 c 0.10547,0 0.22265,-0.0117188 0.32812,-0.0234375 0.11719,-0.0117188 0.19922,-0.0351563 0.26953,-0.0585938 v 0.52734375 c -0.082,0.03515625 -0.17578,0.0703125 -0.3164,0.09375 -0.14063,0.0234375 -0.26953,0.03515625 -0.39844,0.03515625 -0.22266,0 -0.42188,-0.03515625 -0.60938,-0.1171875 -0.19921,-0.0703125 -0.33984,-0.2109375 -0.45703,-0.3984375 -0.11718,-0.1875 -0.17578,-0.45703125 -0.17578,-0.79687494 v -2.4726563 h -0.59765 V -4.043945 l 0.60937,-0.2695313 0.28125,-0.9023437 h 0.41016 v 0.9726562 h 1.21875 v 0.5390625 h -1.21875 v 2.4492188 c 0,0.26953119 0.0469,0.45703119 0.17578,0.58593744 0.1289,0.1171875 0.29297,0.17578125 0.48047,0.1757813 z m 4.20703,-0.67968754 c 0,0.28125004 -0.0703,0.50390629 -0.19922,0.69140629 -0.14063,0.1875 -0.33984,0.31640625 -0.58594,0.421875 -0.25781,0.09375 -0.5625,0.140625 -0.90234,0.140625 -0.30469,0 -0.5625,-0.0234375 -0.77344,-0.0703125 -0.21094,-0.046875 -0.39844,-0.1171875 -0.5625,-0.19921875 v -0.6328125 c 0.16406,0.0820313 0.375,0.1640625 0.60938,0.234375 0.23437,0.0703125 0.48046,0.10546875 0.73828,0.10546875 0.35156,0 0.60937,-0.0585938 0.77343,-0.1640625 0.15235,-0.1171875 0.23438,-0.26953125 0.23438,-0.46874999 0,-0.09375 -0.0352,-0.1992188 -0.0937,-0.28125 -0.0586,-0.082031 -0.16406,-0.1640625 -0.31641,-0.2578125 -0.14062,-0.070312 -0.36328,-0.1640625 -0.63281,-0.28125 -0.28125,-0.1054688 -0.51562,-0.2109375 -0.70312,-0.3164063 -0.19922,-0.1054687 -0.35157,-0.234375 -0.45704,-0.375 C 139.6507,-2.77832 139.5921,-2.96582 139.5921,-3.200195 c 0,-0.3632813 0.15235,-0.6328125 0.44531,-0.8320313 0.29297,-0.1875 0.67969,-0.2929687 1.14844,-0.2929687 0.25781,0 0.50391,0.035156 0.72656,0.082031 0.22266,0.046875 0.4336,0.1171875 0.63282,0.1992188 l -0.23438,0.5625 c -0.1875,-0.082031 -0.375,-0.140625 -0.5625,-0.1992188 -0.19922,-0.046875 -0.39844,-0.070312 -0.60937,-0.070312 -0.28125,0 -0.50391,0.046875 -0.65625,0.140625 -0.15235,0.09375 -0.22266,0.2109375 -0.22266,0.375 0,0.1171875 0.0352,0.2109375 0.10547,0.2929688 0.0586,0.082031 0.1875,0.1640625 0.33984,0.234375 0.16407,0.082031 0.38672,0.1757812 0.65625,0.2695312 0.26953,0.1054688 0.49219,0.2109375 0.67969,0.3164063 0.19922,0.1054687 0.33984,0.234375 0.44531,0.3867187 0.0937,0.1523438 0.14063,0.3398438 0.14063,0.5625 z m 4.01367,-3.0703125 V -9.765625e-4 H 145.9378 V -4.2431641 Z m -0.33984,-1.59375 c 0.10546,0 0.19921,0.035156 0.28125,0.1054688 0.0703,0.070312 0.11718,0.1875 0.11718,0.3398437 0,0.140625 -0.0469,0.2578125 -0.11718,0.328125 -0.082,0.082031 -0.17579,0.1171875 -0.28125,0.1171875 -0.11719,0 -0.21094,-0.035156 -0.29297,-0.1171875 -0.082,-0.070312 -0.11719,-0.1875 -0.11719,-0.328125 0,-0.1523437 0.0352,-0.2695312 0.11719,-0.3398437 0.082,-0.070312 0.17578,-0.1054688 0.29297,-0.1054688 z m 3.72949,1.5117188 c 0.5039,0 0.89062,0.1289062 1.14844,0.375 0.25781,0.2460937 0.38671,0.6328125 0.38671,1.1835937 v 2.7656250375 h -0.6914 V -2.7197266 c 0,-0.3398437 -0.082,-0.5976562 -0.22266,-0.7617187 -0.16406,-0.1757813 -0.39844,-0.2578125 -0.72656,-0.2578125 -0.46875,0 -0.79688,0.1289062 -0.97266,0.3984375 -0.1875,0.2695312 -0.26953,0.6445312 -0.26953,1.1367187 V -9.765625e-4 H 147.9798 V -4.2431641 h 0.5625 l 0.10547,0.5742188 h 0.0469 c 0.0937,-0.140625 0.19922,-0.2695313 0.33984,-0.3632813 0.15235,-0.09375 0.29297,-0.1757812 0.46875,-0.2226562 0.16407,-0.046875 0.33985,-0.070312 0.52735,-0.070312 z m 6.40137,3.83203124 c 0.10546,0 0.22265,-0.0117188 0.32812,-0.0234375 0.11719,-0.0117188 0.19922,-0.0351563 0.26953,-0.0585938 v 0.52734375 c -0.082,0.03515625 -0.17578,0.0703125 -0.3164,0.09375 -0.14063,0.0234375 -0.26954,0.03515625 -0.39844,0.03515625 -0.22266,0 -0.42188,-0.03515625 -0.60938,-0.1171875 -0.19922,-0.0703125 -0.33984,-0.2109375 -0.45703,-0.3984375 -0.11719,-0.1875 -0.17578,-0.45703125 -0.17578,-0.79687494 v -2.4726563 h -0.59766 V -4.043945 l 0.60938,-0.2695313 0.28125,-0.9023437 h 0.41016 v 0.9726562 h 1.21875 v 0.5390625 h -1.21875 v 2.4492188 c 0,0.26953119 0.0469,0.45703119 0.17578,0.58593744 0.1289,0.1171875 0.29297,0.17578125 0.48047,0.1757813 z m 2.14453,-3.76171874 c 0,0.1054687 -0.0117,0.2109375 -0.0117,0.3046875 -0.0117,0.1171875 -0.0234,0.2109375 -0.0234,0.2929687 h 0.0469 c 0.082,-0.140625 0.19921,-0.2695312 0.33984,-0.3632812 0.12891,-0.1054688 0.28125,-0.1757813 0.45703,-0.2226563 0.16406,-0.046875 0.33984,-0.070312 0.52734,-0.070312 0.33985,0 0.6211,0.046875 0.85547,0.1640625 0.22266,0.1054688 0.39844,0.2695313 0.51563,0.4921875 0.11719,0.234375 0.17578,0.5273438 0.17578,0.890625 v 2.7656250375 h -0.69141 V -2.7197266 c 0,-0.3398437 -0.082,-0.5976562 -0.22265,-0.7617187 -0.16407,-0.1757813 -0.39844,-0.2578125 -0.72657,-0.2578125 -0.3164,0 -0.57421,0.058594 -0.73828,0.1757812 -0.1875,0.1289063 -0.3164,0.2929688 -0.39843,0.5273438 -0.0703,0.234375 -0.10547,0.5039062 -0.10547,0.84375 v 2.1914062375 h -0.70313 V -6.0244141 h 0.70313 z m 5.83007,-0.070312 c 0.36329,0 0.67969,0.082031 0.9375,0.234375 0.25782,0.1640625 0.45704,0.3867187 0.60938,0.6796875 0.14062,0.28125 0.21094,0.6210937 0.21094,0.9960937 v 0.421875 h -2.90625 c 0,0.4921875 0.1289,0.8554688 0.36328,1.10156254 0.23437,0.2578125 0.5625,0.375 0.98437,0.375 0.26953,0 0.51563,-0.0234375 0.71485,-0.0703125 0.21093,-0.046875 0.43359,-0.12890625 0.65625,-0.22265625 v 0.609375 c -0.22266,0.09375 -0.44532,0.1640625 -0.64453,0.2109375 -0.21094,0.046875 -0.46875,0.0703125 -0.75,0.0703125 -0.41016,0 -0.76172,-0.0820312525 -1.07813,-0.24609375 -0.30469,-0.1640625 -0.53906,-0.41015625 -0.71484,-0.7265625 -0.17578,-0.32812504 -0.25782,-0.72656254 -0.25782,-1.19531254 0,-0.46875 0.0703,-0.8671875 0.23438,-1.2070312 0.15234,-0.328125 0.375,-0.5859375 0.65625,-0.7617188 0.28125,-0.1757812 0.60937,-0.2695312 0.98437,-0.2695312 z m 0,0.5742187 c -0.33984,0 -0.60937,0.1054688 -0.79687,0.3164063 -0.1875,0.2226562 -0.30469,0.515625 -0.33984,0.890625 h 2.16796 c 0,-0.234375 -0.0469,-0.4570313 -0.11718,-0.6328125 -0.082,-0.1757813 -0.1875,-0.3164063 -0.33985,-0.421875 -0.15234,-0.1054688 -0.33984,-0.1523438 -0.57422,-0.1523438 z m 7.55274,0.7617188 h 1.95703 v 2.77734374 c -0.30469,0.10546875 -0.62109,0.17578125 -0.92578,0.22265625 -0.31641,0.046875 -0.66797,0.0703125 -1.06641,0.0703125 -0.58593,0 -1.07812,-0.1171875 -1.47656,-0.3515625 -0.39844,-0.234375 -0.71484,-0.57421875 -0.91406,-1.00781249 -0.21094,-0.4335938 -0.31641,-0.9492188 -0.31641,-1.546875 0,-0.5859375 0.11719,-1.1015625 0.35156,-1.5351563 0.23438,-0.4335937 0.5625,-0.7734375 0.9961,-1.0078125 0.43359,-0.2460937 0.97265,-0.3632812 1.58203,-0.3632812 0.31641,0 0.60937,0.023437 0.90234,0.082031 0.28125,0.058594 0.53907,0.140625 0.78516,0.2460938 l -0.26953,0.6210937 c -0.19922,-0.09375 -0.42188,-0.1640625 -0.67969,-0.234375 -0.24609,-0.058594 -0.50391,-0.09375 -0.77344,-0.09375 -0.45703,0 -0.84375,0.09375 -1.16015,0.28125 -0.31641,0.1875 -0.5625,0.4453125 -0.73828,0.7851563 -0.16407,0.3398437 -0.2461,0.75 -0.2461,1.21875 0,0.4453125 0.0703,0.84375 0.21094,1.1953125 0.14062,0.3398437 0.375,0.609375 0.69141,0.80859374 0.30468,0.1875 0.71484,0.28125 1.23046,0.28125 0.2461,0 0.45704,-0.0117188 0.63282,-0.0351563 0.17578,-0.0234375 0.32812,-0.0585938 0.46875,-0.09375 V -2.3564453 h -1.24219 z m 3.91406,2.9882812375 h -0.70312 V -6.0244141 h 0.70312 z M 180.90362,-2.1337891 c 0,0.3632813 -0.0469,0.6796875 -0.14062,0.9492188 -0.0937,0.26953124 -0.22266,0.49218749 -0.38672,0.67968749 -0.17578,0.19921875 -0.38672,0.33984375 -0.63281,0.4453125 -0.2461,0.09375 -0.51563,0.140625 -0.82031,0.140625 -0.28125,0 -0.52735,-0.046875 -0.77344,-0.140625 -0.23438,-0.10546875 -0.44531,-0.24609375 -0.6211,-0.4453125 -0.16406,-0.1875 -0.3164,-0.41015625 -0.41015,-0.67968749 -0.0937,-0.2695313 -0.14063,-0.5859375 -0.14063,-0.9492188 0,-0.46875 0.082,-0.8671875 0.23438,-1.1835937 0.16406,-0.328125 0.38672,-0.5742188 0.6914,-0.75 0.29297,-0.1757813 0.63282,-0.2578125 1.05469,-0.2578125 0.375,0 0.71485,0.082031 1.00781,0.2578125 0.29297,0.1757812 0.52735,0.421875 0.69141,0.75 0.16406,0.3164062 0.24609,0.7148437 0.24609,1.1835937 z m -3.19921,0 c 0,0.3398438 0.0352,0.6328125 0.1289,0.8789063 0.082,0.234375 0.21094,0.43359374 0.41016,0.56249999 0.17578,0.12890625 0.41015,0.1875 0.70312,0.1875 0.28125,0 0.51563,-0.0585938 0.70313,-0.1875 0.1875,-0.12890625 0.3164,-0.32812499 0.39844,-0.56249999 0.0937,-0.2460938 0.14062,-0.5390625 0.14062,-0.8789063 0,-0.328125 -0.0469,-0.6210937 -0.14062,-0.8671875 -0.0937,-0.234375 -0.22266,-0.4101562 -0.41016,-0.5390625 -0.17578,-0.1289062 -0.42188,-0.1992187 -0.70313,-0.1992187 -0.43359,0 -0.75,0.140625 -0.9375,0.421875 -0.19921,0.2929687 -0.29296,0.6914062 -0.29296,1.1835937 z m 5.0039,-2.4257812 c 0,0.1875 -0.0117,0.3515625 -0.0117,0.515625 -0.0117,0.1523437 -0.0234,0.2695312 -0.0234,0.3632812 h 0.0352 c 0.11719,-0.1757812 0.28125,-0.328125 0.50391,-0.4570312 0.19922,-0.1171875 0.48047,-0.1757813 0.80859,-0.1757813 0.52735,0 0.94922,0.1875 1.26563,0.5507813 0.3164,0.3632812 0.49218,0.9140625 0.49218,1.640625 0,0.4921875 -0.082,0.890625 -0.22265,1.21874999 -0.15235,0.328125 -0.35156,0.57421875 -0.60938,0.73828125 -0.26953,0.1640624975 -0.57422,0.24609375 -0.92578,0.24609375 -0.32812,0 -0.60937,-0.05859375 -0.80859,-0.1875 -0.22266,-0.1171875 -0.38672,-0.2578125 -0.50391,-0.43359375 h -0.0586 l -0.14063,0.5390624975 h -0.5039 V -6.0244141 h 0.70312 z m 1.19531,0.8203125 c -0.30468,0 -0.53906,0.058594 -0.71484,0.1757812 -0.17578,0.1054688 -0.30469,0.28125 -0.375,0.515625 -0.0703,0.2460938 -0.10547,0.5390625 -0.10547,0.9023438 v 0.035156 c 0,0.515625 0.082,0.9257813 0.25781,1.19531254 0.16407,0.28125 0.48047,0.41015625 0.94922,0.41015625 0.38672,0 0.65625,-0.12890625 0.85547,-0.41015625 0.1875,-0.28125004 0.28125,-0.69140624 0.28125,-1.21875004 0,-0.5273437 -0.0937,-0.9375 -0.28125,-1.2070312 -0.19922,-0.2695313 -0.48047,-0.3984375 -0.86719,-0.3984373 z m 4.5879,-0.5742188 c 0.51562,0 0.89062,0.1171875 1.14843,0.3398438 0.2461,0.2226562 0.36328,0.5859375 0.36328,1.078125 v 2.8945312375 h -0.5039 L 189.37042,-0.59863281 h -0.0351 c -0.12891,0.15234375 -0.25782,0.28125 -0.375,0.38671875 -0.12891,0.10546875 -0.28125,0.17578125 -0.44532,0.22265625 -0.16406,0.046875 -0.36328,0.0703125 -0.60937,0.0703125 -0.2461,0 -0.48047,-0.046875 -0.67969,-0.140625 -0.21094,-0.08203125 -0.375,-0.22265625 -0.48047,-0.41015625 -0.11719,-0.1875 -0.17578,-0.421875 -0.17578,-0.71484374 0,-0.421875 0.16406,-0.7382813 0.50391,-0.9726563 0.32812,-0.2226562 0.83203,-0.3515625 1.53515,-0.375 l 0.71485,-0.023437 v -0.2578125 c 0,-0.3515625 -0.0703,-0.5976562 -0.22266,-0.7382812 -0.16406,-0.1289063 -0.375,-0.1992188 -0.65625,-0.1992188 -0.22266,0 -0.43359,0.035156 -0.63281,0.09375 -0.19922,0.070312 -0.38672,0.1523438 -0.5625,0.2226563 l -0.21094,-0.515625 c 0.1875,-0.09375 0.39844,-0.1875 0.65625,-0.2578125 0.25781,-0.070312 0.51563,-0.1054688 0.79688,-0.1054688 z m 0.19921,2.2617188 c -0.52734,0.023437 -0.89062,0.1054687 -1.10156,0.2578125 -0.19922,0.140625 -0.29297,0.3515625 -0.29297,0.6210937 0,0.23437504 0.0703,0.41015629 0.21094,0.52734379 0.14063,0.10546875 0.32813,0.1640625 0.5625,0.1640625 0.35156,0 0.65625,-0.09375 0.89063,-0.29296875 0.24609,-0.19921875 0.36328,-0.51562504 0.36328,-0.92578124 v -0.375 z m 3.33106,2.0507812375 h -0.70313 V -6.0244141 h 0.70313 z M 199.3255,-2.1337891 c 0,0.3632813 -0.0469,0.6796875 -0.14063,0.9492188 -0.0937,0.26953124 -0.22265,0.49218749 -0.38671,0.67968749 -0.17579,0.19921875 -0.38672,0.33984375 -0.63282,0.4453125 -0.24609,0.09375 -0.51562,0.140625 -0.82031,0.140625 -0.28125,0 -0.52734,-0.046875 -0.77344,-0.140625 -0.23437,-0.10546875 -0.44531,-0.24609375 -0.62109,-0.4453125 -0.16406,-0.1875 -0.31641,-0.41015625 -0.41016,-0.67968749 -0.0937,-0.2695313 -0.14062,-0.5859375 -0.14062,-0.9492188 0,-0.46875 0.082,-0.8671875 0.23437,-1.1835937 0.16407,-0.328125 0.38672,-0.5742188 0.69141,-0.75 0.29297,-0.1757813 0.63281,-0.2578125 1.05469,-0.2578125 0.375,0 0.71484,0.082031 1.00781,0.2578125 0.29297,0.1757812 0.52734,0.421875 0.69141,0.75 0.16406,0.3164062 0.24609,0.7148437 0.24609,1.1835937 z m -3.19922,0 c 0,0.3398438 0.0352,0.6328125 0.12891,0.8789063 0.082,0.234375 0.21093,0.43359374 0.41015,0.56249999 0.17578,0.12890625 0.41016,0.1875 0.70313,0.1875 0.28125,0 0.51562,-0.0585938 0.70312,-0.1875 0.1875,-0.12890625 0.31641,-0.32812499 0.39844,-0.56249999 0.0937,-0.2460938 0.14063,-0.5390625 0.14063,-0.8789063 0,-0.328125 -0.0469,-0.6210937 -0.14063,-0.8671875 -0.0937,-0.234375 -0.22266,-0.4101562 -0.41016,-0.5390625 -0.17578,-0.1289062 -0.42187,-0.1992187 -0.70312,-0.1992187 -0.43359,0 -0.75,0.140625 -0.9375,0.421875 -0.19922,0.2929687 -0.29297,0.6914062 -0.29297,1.1835937 z m 6.28125,-2.1914062 c 0.082,0 0.16406,0.011719 0.25781,0.011719 0.0937,0.011719 0.17578,0.023437 0.2461,0.035156 l -0.082,0.6445312 c -0.0703,-0.023437 -0.15235,-0.023437 -0.23438,-0.046875 -0.082,0 -0.16406,-0.011719 -0.23437,-0.011719 -0.16407,0 -0.31641,0.035156 -0.45704,0.1054687 -0.15234,0.070312 -0.29296,0.1640625 -0.39843,0.2929688 -0.11719,0.1289062 -0.22266,0.2695312 -0.28125,0.4453125 -0.0586,0.1757812 -0.0937,0.3632812 -0.0937,0.5859375 v 2.2617187375 h -0.70313 V -4.2431641 h 0.57422 l 0.082,0.7734375 h 0.0352 c 0.082,-0.1640625 0.1875,-0.3046875 0.3164,-0.4335937 0.12891,-0.1171875 0.26954,-0.2226563 0.4336,-0.3046875 0.16406,-0.082031 0.35156,-0.1171875 0.53906,-0.1171875 z m 4.24512,4.3242187375 h -0.70313 V -5.6611328 h 3.15235 v 0.6328125 h -2.44922 v 2.0039062 h 2.29687 v 0.6210938 h -2.29687 z M 211.59503,-4.3251953 c 0.36328,0 0.67969,0.082031 0.9375,0.234375 0.25781,0.1640625 0.45703,0.3867187 0.60938,0.6796875 0.14062,0.28125 0.21093,0.6210937 0.21093,0.9960937 v 0.421875 h -2.90625 c 0,0.4921875 0.12891,0.8554688 0.36328,1.10156254 0.23438,0.2578125 0.5625,0.375 0.98438,0.375 0.26953,0 0.51562,-0.0234375 0.71484,-0.0703125 0.21094,-0.046875 0.4336,-0.12890625 0.65625,-0.22265625 v 0.609375 c -0.22265,0.09375 -0.44531,0.1640625 -0.64453,0.2109375 -0.21094,0.046875 -0.46875,0.0703125 -0.75,0.0703125 -0.41015,0 -0.76172,-0.0820312525 -1.07812,-0.24609375 -0.30469,-0.1640625 -0.53907,-0.41015625 -0.71485,-0.7265625 -0.17578,-0.32812504 -0.25781,-0.72656254 -0.25781,-1.19531254 0,-0.46875 0.0703,-0.8671875 0.23438,-1.2070312 0.15234,-0.328125 0.375,-0.5859375 0.65625,-0.7617188 0.28125,-0.1757812 0.60937,-0.2695312 0.98437,-0.2695312 z m 0,0.5742187 c -0.33984,0 -0.60937,0.1054688 -0.79687,0.3164063 -0.1875,0.2226562 -0.30469,0.515625 -0.33985,0.890625 h 2.16797 c 0,-0.234375 -0.0469,-0.4570313 -0.11719,-0.6328125 -0.082,-0.1757813 -0.1875,-0.3164063 -0.33984,-0.421875 -0.15234,-0.1054688 -0.33984,-0.1523438 -0.57422,-0.1523438 z m 2.1709,-0.4921875 h 0.73828 l 0.92578,2.4140625 c 0.0469,0.140625 0.0937,0.28125 0.14063,0.4101563 0.0469,0.1289062 0.082,0.2578125 0.1289,0.3867187 0.0234,0.12890629 0.0586,0.24609379 0.082,0.36328129 h 0.0352 c 0.0234,-0.12890625 0.082,-0.3046875 0.15234,-0.51562499 0.0586,-0.2226563 0.12891,-0.4335938 0.21094,-0.65625 l 0.86719,-2.4023438 h 0.75 l -1.82813,4.82812504 c -0.10546,0.26953125 -0.22265,0.50390626 -0.36328,0.70312496 -0.1289,0.1875 -0.30468,0.3398438 -0.49218,0.4570313 -0.1875,0.1054687 -0.42188,0.1523437 -0.69141,0.1523437 -0.12891,0 -0.23438,0 -0.33984,-0.011719 -0.0937,-0.011719 -0.17579,-0.035156 -0.2461,-0.046875 v -0.550781 c 0.0586,0.011719 0.12891,0.023437 0.21094,0.023437 0.082,0.023437 0.16406,0.023437 0.25781,0.023437 0.16406,0 0.30469,-0.023437 0.42188,-0.09375 0.11718,-0.058594 0.22265,-0.1523437 0.3164,-0.25781246 0.0703,-0.1171875 0.14063,-0.24609375 0.21094,-0.41015625 l 0.22266,-0.5625 z m 6.74414,-0.082031 c 0.50391,0 0.89063,0.1289062 1.14844,0.375 0.25781,0.2460937 0.38672,0.6328125 0.38672,1.1835937 v 2.7656250375 h -0.69141 V -2.7197266 c 0,-0.3398437 -0.082,-0.5976562 -0.22266,-0.7617187 -0.16406,-0.1757813 -0.39843,-0.2578125 -0.72656,-0.2578125 -0.46875,0 -0.79687,0.1289062 -0.97265,0.3984375 -0.1875,0.2695312 -0.26954,0.6445312 -0.26954,1.1367187 v 2.2031250375 h -0.70312 V -4.2431641 h 0.5625 l 0.10547,0.5742188 h 0.0469 c 0.0937,-0.140625 0.19922,-0.2695313 0.33985,-0.3632813 0.15234,-0.09375 0.29297,-0.1757812 0.46875,-0.2226562 0.16406,-0.046875 0.33984,-0.070312 0.52734,-0.070312 z m 5.36426,-0.7851563 c -0.29297,0 -0.57422,0.058594 -0.8086,0.1640625 -0.24609,0.09375 -0.45703,0.2460938 -0.62109,0.4453125 -0.17578,0.1992188 -0.30469,0.4335938 -0.38672,0.7265625 -0.0937,0.28125 -0.14062,0.5976563 -0.14062,0.9492188 0,0.46875 0.082,0.8671875 0.22265,1.2070312 0.14063,0.3515625 0.36328,0.609375 0.64453,0.79687504 0.28125,0.1875 0.65625,0.26953125 1.08985,0.26953125 0.24609,0 0.48047,-0.0117188 0.70312,-0.0585938 0.22266,-0.0351563 0.4336,-0.09375 0.64453,-0.1640625 v 0.62109375 c -0.21093,0.08203125 -0.43359,0.140625 -0.65625,0.17578125 -0.22265,0.03515625 -0.49218,0.05859375 -0.79687,0.05859375 -0.57422,0 -1.06641,-0.1171875 -1.44141,-0.36328125 -0.38672,-0.234375 -0.67968,-0.5625 -0.86718,-1.00781249 -0.19922,-0.4335937 -0.29297,-0.9492187 -0.29297,-1.546875 0,-0.4335937 0.0586,-0.8203125 0.17578,-1.171875 0.11719,-0.3515625 0.29297,-0.65625 0.52734,-0.9140625 0.22266,-0.2578125 0.51563,-0.4570312 0.85547,-0.5976562 0.32813,-0.140625 0.71484,-0.2109375 1.16016,-0.2109375 0.28125,0 0.57422,0.023437 0.84375,0.082031 0.26953,0.058594 0.5039,0.140625 0.71484,0.2460938 l -0.28125,0.5976562 c -0.17578,-0.070312 -0.375,-0.140625 -0.58594,-0.2109375 -0.21093,-0.058594 -0.44531,-0.09375 -0.70312,-0.09375 z m 4.10156,0.796875 c 0.51563,0 0.89063,0.1171875 1.14844,0.3398438 0.24609,0.2226562 0.36328,0.5859375 0.36328,1.078125 V -9.765625e-4 H 230.9837 L 230.8548,-0.59863281 h -0.0352 c -0.12891,0.15234375 -0.25781,0.28125 -0.375,0.38671875 -0.12891,0.10546875 -0.28125,0.17578125 -0.44531,0.22265625 -0.16406,0.046875 -0.36328,0.0703125 -0.60938,0.0703125 -0.24609,0 -0.48047,-0.046875 -0.67968,-0.140625 -0.21094,-0.08203125 -0.375,-0.22265625 -0.48047,-0.41015625 -0.11719,-0.1875 -0.17578,-0.421875 -0.17578,-0.71484374 0,-0.421875 0.16406,-0.7382813 0.5039,-0.9726563 0.32813,-0.2226562 0.83203,-0.3515625 1.53516,-0.375 l 0.71484,-0.023437 v -0.2578125 c 0,-0.3515625 -0.0703,-0.5976562 -0.22265,-0.7382812 -0.16407,-0.1289063 -0.375,-0.1992188 -0.65625,-0.1992188 -0.22266,0 -0.4336,0.035156 -0.63282,0.09375 -0.19922,0.070312 -0.38672,0.1523438 -0.5625,0.2226563 l -0.21093,-0.515625 c 0.1875,-0.09375 0.39843,-0.1875 0.65625,-0.2578125 0.25781,-0.070312 0.51562,-0.1054688 0.79687,-0.1054688 z m 0.19922,2.2617188 c -0.52734,0.023437 -0.89063,0.1054687 -1.10156,0.2578125 -0.19922,0.140625 -0.29297,0.3515625 -0.29297,0.6210937 0,0.23437504 0.0703,0.41015629 0.21094,0.52734379 0.14062,0.10546875 0.32812,0.1640625 0.5625,0.1640625 0.35156,0 0.65625,-0.09375 0.89062,-0.29296875 0.24609,-0.19921875 0.36328,-0.51562504 0.36328,-0.92578124 v -0.375 z m 3.33105,2.0507812375 h -0.70312 V -6.0244141 h 0.70312 z M 236.5589,0.08105469 c -0.38672,0 -0.71485,-0.0703125 -1.00781,-0.234375 -0.29297,-0.15234375 -0.52735,-0.38671875 -0.69141,-0.71484375 -0.16406,-0.31640624 -0.24609,-0.72656254 -0.24609,-1.23046874 0,-0.5273438 0.0937,-0.9492188 0.25781,-1.2773438 0.17578,-0.328125 0.41015,-0.5625 0.71484,-0.7148437 0.29297,-0.1523438 0.63281,-0.234375 1.01953,-0.234375 0.21094,0 0.42188,0.023437 0.6211,0.070312 0.19922,0.046875 0.36328,0.09375 0.49218,0.1640625 l -0.21093,0.5742187 c -0.12891,-0.046875 -0.28125,-0.09375 -0.44532,-0.140625 -0.17578,-0.035156 -0.32812,-0.058594 -0.46875,-0.058594 -0.29296,0 -0.52734,0.058594 -0.71484,0.1875 -0.1875,0.1171875 -0.31641,0.2929687 -0.41016,0.5273437 -0.0937,0.2460938 -0.1289,0.5390625 -0.1289,0.890625 0,0.3398438 0.0352,0.6328125 0.1289,0.8671875 0.0937,0.234375 0.22266,0.42187504 0.41016,0.53906254 0.17578,0.12890625 0.39844,0.17578125 0.66797,0.17578125 0.23437,0 0.43359,-0.0234375 0.60937,-0.0703125 0.17579,-0.046875 0.33985,-0.09375 0.49219,-0.17578125 v 0.62109375 c -0.14062,0.08203125 -0.30469,0.140625 -0.46875,0.17578125 -0.17578,0.03515625 -0.38672,0.05859375 -0.62109,0.05859455 z m 6.14355,0 c -0.38672,0 -0.71484,-0.0703125 -1.00781,-0.234375 -0.29297,-0.15234375 -0.52734,-0.38671875 -0.69141,-0.71484375 -0.16406,-0.31640624 -0.24609,-0.72656254 -0.24609,-1.23046874 0,-0.5273438 0.0937,-0.9492188 0.25781,-1.2773438 0.17578,-0.328125 0.41016,-0.5625 0.71485,-0.7148437 0.29297,-0.1523438 0.63281,-0.234375 1.01953,-0.234375 0.21094,0 0.42187,0.023437 0.62109,0.070312 0.19922,0.046875 0.36328,0.09375 0.49219,0.1640625 l -0.21094,0.5742187 c -0.1289,-0.046875 -0.28125,-0.09375 -0.44531,-0.140625 -0.17578,-0.035156 -0.32813,-0.058594 -0.46875,-0.058594 -0.29297,0 -0.52734,0.058594 -0.71484,0.1875 -0.1875,0.1171875 -0.31641,0.2929687 -0.41016,0.5273437 -0.0937,0.2460938 -0.12891,0.5390625 -0.12891,0.890625 0,0.3398438 0.0352,0.6328125 0.12891,0.8671875 0.0937,0.234375 0.22266,0.42187504 0.41016,0.53906254 0.17578,0.12890625 0.39843,0.17578125 0.66796,0.17578125 0.23438,0 0.4336,-0.0234375 0.60938,-0.0703125 0.17578,-0.046875 0.33984,-0.09375 0.49219,-0.17578125 v 0.62109375 c -0.14063,0.08203125 -0.30469,0.140625 -0.46875,0.17578125 -0.17578,0.03515625 -0.38672,0.05859375 -0.6211,0.05859455 z m 5.78321,-2.21484379 c 0,0.3632813 -0.0469,0.6796875 -0.14063,0.9492188 -0.0937,0.26953124 -0.22266,0.49218749 -0.38672,0.67968749 -0.17578,0.19921875 -0.38672,0.33984375 -0.63281,0.4453125 -0.24609,0.09375 -0.51563,0.140625 -0.82031,0.140625 -0.28125,0 -0.52735,-0.046875 -0.77344,-0.140625 -0.23438,-0.10546875 -0.44531,-0.24609375 -0.62109,-0.4453125 -0.16407,-0.1875 -0.31641,-0.41015625 -0.41016,-0.67968749 -0.0937,-0.2695313 -0.14063,-0.5859375 -0.14063,-0.9492188 0,-0.46875 0.082,-0.8671875 0.23438,-1.1835937 0.16406,-0.328125 0.38672,-0.5742188 0.69141,-0.75 0.29296,-0.1757813 0.63281,-0.2578125 1.05468,-0.2578125 0.375,0 0.71485,0.082031 1.00782,0.2578125 0.29296,0.1757812 0.52734,0.421875 0.6914,0.75 0.16406,0.3164062 0.2461,0.7148437 0.2461,1.1835937 z m -3.19922,0 c 0,0.3398438 0.0351,0.6328125 0.1289,0.8789063 0.082,0.234375 0.21094,0.43359374 0.41016,0.56249999 0.17578,0.12890625 0.41016,0.1875 0.70312,0.1875 0.28125,0 0.51563,-0.0585938 0.70313,-0.1875 0.1875,-0.12890625 0.31641,-0.32812499 0.39844,-0.56249999 0.0937,-0.2460938 0.14062,-0.5390625 0.14062,-0.8789063 0,-0.328125 -0.0469,-0.6210937 -0.14062,-0.8671875 -0.0937,-0.234375 -0.22266,-0.4101562 -0.41016,-0.5390625 -0.17578,-0.1289062 -0.42187,-0.1992187 -0.70312,-0.1992187 -0.4336,0 -0.75,0.140625 -0.9375,0.421875 -0.19922,0.2929687 -0.29297,0.6914062 -0.29297,1.1835937 z m 6.34863,-2.1914062 c 0.50391,0 0.89063,0.1289062 1.14844,0.375 0.25781,0.2460937 0.38672,0.6328125 0.38672,1.1835937 v 2.7656250375 h -0.69141 V -2.7197266 c 0,-0.3398437 -0.082,-0.5976562 -0.22266,-0.7617187 -0.16406,-0.1757813 -0.39843,-0.2578125 -0.72656,-0.2578125 -0.46875,0 -0.79687,0.1289062 -0.97265,0.3984375 -0.1875,0.2695312 -0.26954,0.6445312 -0.26954,1.1367187 v 2.2031250375 h -0.70312 V -4.2431641 h 0.5625 l 0.10547,0.5742188 h 0.0469 c 0.0937,-0.140625 0.19922,-0.2695313 0.33985,-0.3632813 0.15234,-0.09375 0.29297,-0.1757812 0.46875,-0.2226562 0.16406,-0.046875 0.33984,-0.070312 0.52734,-0.070312 z m 4.2627,3.83203124 c 0.10546,0 0.22265,-0.0117188 0.32812,-0.0234375 0.11719,-0.0117188 0.19922,-0.0351563 0.26953,-0.0585938 v 0.52734375 c -0.082,0.03515625 -0.17578,0.0703125 -0.3164,0.09375 -0.14063,0.0234375 -0.26954,0.03515625 -0.39844,0.03515625 -0.22266,0 -0.42188,-0.03515625 -0.60938,-0.1171875 -0.19922,-0.0703125 -0.33984,-0.2109375 -0.45703,-0.3984375 -0.11719,-0.1875 -0.17578,-0.45703125 -0.17578,-0.79687494 v -2.4726564 h -0.59766 v -0.3398437 l 0.60938,-0.2695312 0.28125,-0.9023438 h 0.41016 v 0.9726563 h 1.21875 v 0.5390624 h -1.21875 v 2.4492189 c 0,0.26953119 0.0469,0.45703119 0.17578,0.58593744 0.1289,0.1171875 0.29297,0.17578125 0.48047,0.1757813 z m 3.08203,-3.83203124 c 0.36328,0 0.67968,0.082031 0.9375,0.234375 0.25781,0.1640625 0.45703,0.3867187 0.60937,0.6796875 0.14063,0.28125 0.21094,0.6210937 0.21094,0.9960937 v 0.421875 h -2.90625 c 0,0.4921875 0.12891,0.8554688 0.36328,1.10156254 0.23438,0.2578125 0.5625,0.375 0.98438,0.375 0.26953,0 0.51562,-0.0234375 0.71484,-0.0703125 0.21094,-0.046875 0.43359,-0.12890625 0.65625,-0.22265625 v 0.609375 c -0.22266,0.09375 -0.44531,0.1640625 -0.64453,0.2109375 -0.21094,0.046875 -0.46875,0.0703125 -0.75,0.0703125 -0.41016,0 -0.76172,-0.0820312525 -1.07813,-0.24609375 -0.30468,-0.1640625 -0.53906,-0.41015625 -0.71484,-0.7265625 -0.17578,-0.32812504 -0.25781,-0.72656254 -0.25781,-1.19531254 0,-0.46875 0.0703,-0.8671875 0.23437,-1.2070312 0.15235,-0.328125 0.375,-0.5859375 0.65625,-0.7617188 0.28125,-0.1757812 0.60938,-0.2695312 0.98438,-0.2695312 z m 0,0.5742187 c -0.33985,0 -0.60938,0.1054688 -0.79688,0.3164063 -0.1875,0.2226562 -0.30469,0.515625 -0.33984,0.890625 h 2.16797 c 0,-0.234375 -0.0469,-0.4570313 -0.11719,-0.6328125 -0.082,-0.1757813 -0.1875,-0.3164063 -0.33984,-0.421875 -0.15235,-0.1054688 -0.33985,-0.1523438 -0.57422,-0.1523438 z m 3.83496,1.5820313 -1.46485,-2.0742188 h 0.79688 l 1.08984,1.59375 1.08985,-1.59375 h 0.78515 l -1.46484,2.0742188 1.53516,2.1679687375 h -0.78516 L 263.23663,-1.7001953 262.06476,-9.765625e-4 h -0.78516 z m 4.59961,1.67578124 c 0.10547,0 0.22265,-0.0117188 0.32812,-0.0234375 0.11719,-0.0117188 0.19922,-0.0351563 0.26953,-0.0585938 v 0.52734375 c -0.082,0.03515625 -0.17578,0.0703125 -0.3164,0.09375 -0.14063,0.0234375 -0.26953,0.03515625 -0.39844,0.03515625 -0.22266,0 -0.42188,-0.03515625 -0.60938,-0.1171875 -0.19921,-0.0703125 -0.33984,-0.2109375 -0.45703,-0.3984375 -0.11718,-0.1875 -0.17578,-0.45703125 -0.17578,-0.79687494 v -2.4726564 h -0.59765 v -0.3398437 l 0.60937,-0.2695312 0.28125,-0.9023438 h 0.41016 v 0.9726563 h 1.21875 v 0.5390624 h -1.21875 v 2.4492189 c 0,0.26953119 0.0469,0.45703119 0.17578,0.58593744 0.1289,0.1171875 0.29297,0.17578125 0.48047,0.1757813 z m 4.20703,-0.67968754 c 0,0.28125004 -0.0703,0.50390629 -0.19922,0.69140629 -0.14063,0.1875 -0.33984,0.31640625 -0.58594,0.421875 -0.25781,0.09375 -0.5625,0.140625 -0.90234,0.140625 -0.30469,0 -0.5625,-0.0234375 -0.77344,-0.0703125 -0.21094,-0.046875 -0.39844,-0.1171875 -0.5625,-0.19921875 v -0.6328125 c 0.16406,0.0820313 0.375,0.1640625 0.60938,0.234375 0.23437,0.0703125 0.48046,0.10546875 0.73828,0.10546875 0.35156,0 0.60937,-0.0585938 0.77343,-0.1640625 0.15235,-0.1171875 0.23438,-0.26953125 0.23438,-0.46874999 0,-0.09375 -0.0352,-0.1992188 -0.0937,-0.28125 -0.0586,-0.082031 -0.16406,-0.1640625 -0.31641,-0.2578125 -0.14062,-0.070312 -0.36328,-0.1640625 -0.63281,-0.28125 -0.28125,-0.1054688 -0.51562,-0.2109375 -0.70312,-0.3164063 -0.19922,-0.1054687 -0.35157,-0.234375 -0.45704,-0.375 -0.10546,-0.1523437 -0.16406,-0.3398437 -0.16406,-0.5742187 0,-0.3632813 0.15235,-0.6328125 0.44531,-0.8320313 0.29297,-0.1875 0.67969,-0.2929687 1.14844,-0.2929687 0.25781,0 0.50391,0.035156 0.72656,0.082031 0.22266,0.046875 0.4336,0.1171875 0.63282,0.1992188 l -0.23438,0.5625 c -0.1875,-0.082031 -0.375,-0.140625 -0.5625,-0.1992188 -0.19922,-0.046875 -0.39844,-0.070312 -0.60937,-0.070312 -0.28125,0 -0.50391,0.046875 -0.65625,0.140625 -0.15235,0.09375 -0.22266,0.2109375 -0.22266,0.375 0,0.1171875 0.0352,0.2109375 0.10547,0.2929688 0.0586,0.082031 0.1875,0.1640625 0.33984,0.234375 0.16407,0.082031 0.38672,0.1757812 0.65625,0.2695312 0.26953,0.1054688 0.49219,0.2109375 0.67969,0.3164063 0.19922,0.1054687 0.33984,0.234375 0.44531,0.3867187 0.0937,0.1523438 0.14063,0.3398438 0.14063,0.5625 z m 1.17187,0.73828129 c 0,-0.1875 0.0469,-0.328125 0.14063,-0.41015625 0.0937,-0.0703125 0.19922,-0.1171875 0.33984,-0.1171875 0.12891,0 0.25781,0.046875 0.35156,0.1171875 0.0937,0.0820313 0.14063,0.22265625 0.14063,0.41015625 0,0.19921875 -0.0469,0.33984375 -0.14063,0.421875 -0.0937,0.08203125 -0.22265,0.1171875 -0.35156,0.1171875 -0.14062,0 -0.24609,-0.03515625 -0.33984,-0.1171875 -0.0937,-0.08203125 -0.14063,-0.22265625 -0.14063,-0.421875 z m 0,0"
       style="fill:#898989;fill-opacity:1;fill-rule:nonzero;stroke:none"
       aria-label="FeynCalchasdetectedstrangeobjectsintheGlobalorFeynCalccontexts."
       transform="matrix(1.3333333,0,0,1.3333333,54.857667,11.395833)" />
  </g>
</svg>
