<?xml version="1.0" encoding="UTF-8" standalone="no"?>
<!-- Created with Inkscape (http://www.inkscape.org/) -->

<svg
   version="1.1"
   id="svg2"
   width="346.66666"
   height="84"
   viewBox="0 0 346.66666 84"
   sodipodi:docname="197y9zyue9u14.pdf"
   xmlns:inkscape="http://www.inkscape.org/namespaces/inkscape"
   xmlns:sodipodi="http://sodipodi.sourceforge.net/DTD/sodipodi-0.dtd"
   xmlns="http://www.w3.org/2000/svg"
   xmlns:svg="http://www.w3.org/2000/svg">
  <defs
     id="defs6" />
  <sodipodi:namedview
     id="namedview4"
     pagecolor="#ffffff"
     bordercolor="#999999"
     borderopacity="1"
     inkscape:showpageshadow="0"
     inkscape:pageopacity="0"
     inkscape:pagecheckerboard="0"
     inkscape:deskcolor="#d1d1d1" />
  <g
     id="g8"
     inkscape:groupmode="layer"
     inkscape:label="197y9zyue9u14"
     transform="matrix(1.3333333,0,0,1.3333333,0,2.1e-6)">
    <g
       id="g10">
      <path
         d="M 10.102,18.348 H 86.488"
         style="fill:none;stroke:#000000;stroke-width:1.44;stroke-linecap:butt;stroke-linejoin:miter;stroke-miterlimit:3.25;stroke-dasharray:none;stroke-opacity:0.7"
         id="path12" />
      <path
         d="m 91.367,18.785 8.379,1.527 7.918,1.958 5.664,1.972 3.887,2.016 2.484,2.074 1.375,2.125 0.488,2.133 -0.218,2.078 -0.793,1.926 -1.27,1.648 -1.687,1.227 -2.094,0.644 -2.527,-0.125 -3.039,-1.117 -3.692,-2.359 -4.539,-3.918 -5.652,-5.879 -5.512,-6.492"
         style="fill:none;stroke:#000000;stroke-width:1.44;stroke-linecap:butt;stroke-linejoin:miter;stroke-miterlimit:3.25;stroke-dasharray:none;stroke-opacity:0.7"
         id="path14" />
      <path
         d="m 89.777,20.66 2.868,8.02 2.265,7.836 1.121,5.89 0.199,4.375 -0.554,3.192 -1.153,2.25 -1.605,1.492 -1.906,0.851 -2.063,0.274 -2.062,-0.274 -1.91,-0.851 -1.606,-1.492 -1.152,-2.25 -0.555,-3.192 0.199,-4.375 1.125,-5.89 2.262,-7.836 2.871,-8.02"
         style="fill:none;stroke:#000000;stroke-width:1.44;stroke-linecap:butt;stroke-linejoin:miter;stroke-miterlimit:3.25;stroke-dasharray:none;stroke-opacity:0.7"
         id="path16" />
      <path
         d="m 87.355,20.223 -5.511,6.492 -5.653,5.879 -4.539,3.918 -3.691,2.359 -3.039,1.117 -2.527,0.125 -2.094,-0.644 -1.688,-1.227 -1.269,-1.648 -0.793,-1.926 -0.219,-2.078 0.488,-2.133 1.375,-2.125 2.485,-2.074 3.886,-2.016 5.664,-1.972 7.918,-1.958 8.379,-1.527"
         style="fill:none;stroke:#000000;stroke-width:1.44;stroke-linecap:butt;stroke-linejoin:miter;stroke-miterlimit:3.25;stroke-dasharray:none;stroke-opacity:0.7"
         id="path18" />
      <path
         d="m 91.324,17.723 13.883,-3.657 16.262,-2.136 h 16.261 l 16.262,2.136 13.883,3.657"
         style="fill:none;stroke:#000000;stroke-width:1.44;stroke-linecap:butt;stroke-linejoin:miter;stroke-miterlimit:3.25;stroke-dasharray:2.88, 2.88;stroke-dashoffset:0;stroke-opacity:0.7"
         id="path20" />
      <path
         d="m 91.324,18.973 13.883,3.652 16.262,2.141 h 16.261 l 16.262,-2.141 13.883,-3.652"
         style="fill:none;stroke:#000000;stroke-width:1.44;stroke-linecap:butt;stroke-linejoin:miter;stroke-miterlimit:3.25;stroke-dasharray:2.88, 2.88;stroke-dashoffset:0;stroke-opacity:0.7"
         id="path22" />
      <path
         d="M 249.098,18.348 H 172.711"
         style="fill:none;stroke:#000000;stroke-width:1.44;stroke-linecap:butt;stroke-linejoin:miter;stroke-miterlimit:3.25;stroke-dasharray:none;stroke-opacity:0.7"
         id="path24" />
      <path
         d="m 10.102,18.348 c 0,-0.653 -0.258,-1.278 -0.719,-1.739 -0.461,-0.461 -1.09,-0.722 -1.738,-0.722 -0.653,0 -1.282,0.261 -1.743,0.722 -0.461,0.461 -0.718,1.086 -0.718,1.739 0,0.652 0.257,1.277 0.718,1.738 0.461,0.461 1.09,0.719 1.743,0.719 0.648,0 1.277,-0.258 1.738,-0.719 0.461,-0.461 0.719,-1.086 0.719,-1.738 z"
         style="fill:#a3b4cc;fill-opacity:1;fill-rule:evenodd;stroke:none"
         id="path26" />
      <path
         d="m 10.102,18.348 c 0,-0.653 -0.258,-1.278 -0.719,-1.739 -0.461,-0.461 -1.09,-0.722 -1.738,-0.722 -0.653,0 -1.282,0.261 -1.743,0.722 -0.461,0.461 -0.718,1.086 -0.718,1.739 0,0.652 0.257,1.277 0.718,1.738 0.461,0.461 1.09,0.719 1.743,0.719 0.648,0 1.277,-0.258 1.738,-0.719 0.461,-0.461 0.719,-1.086 0.719,-1.738 z"
         style="fill:none;stroke:#000000;stroke-width:0.36;stroke-linecap:square;stroke-linejoin:miter;stroke-miterlimit:3.25;stroke-dasharray:none;stroke-opacity:0.7"
         id="path28" />
      <path
         d="m 91.406,18.348 c 0,-0.653 -0.258,-1.278 -0.718,-1.739 -0.461,-0.461 -1.09,-0.722 -1.739,-0.722 -0.652,0 -1.277,0.261 -1.738,0.722 -0.465,0.461 -0.723,1.086 -0.723,1.739 0,0.652 0.258,1.277 0.723,1.738 0.461,0.461 1.086,0.719 1.738,0.719 0.649,0 1.278,-0.258 1.739,-0.719 0.46,-0.461 0.718,-1.086 0.718,-1.738 z"
         style="fill:#a3b4cc;fill-opacity:1;fill-rule:evenodd;stroke:none"
         id="path30" />
      <path
         d="m 91.406,18.348 c 0,-0.653 -0.258,-1.278 -0.718,-1.739 -0.461,-0.461 -1.09,-0.722 -1.739,-0.722 -0.652,0 -1.277,0.261 -1.738,0.722 -0.465,0.461 -0.723,1.086 -0.723,1.739 0,0.652 0.258,1.277 0.723,1.738 0.461,0.461 1.086,0.719 1.738,0.719 0.649,0 1.278,-0.258 1.739,-0.719 0.46,-0.461 0.718,-1.086 0.718,-1.738 z"
         style="fill:none;stroke:#000000;stroke-width:0.36;stroke-linecap:square;stroke-linejoin:miter;stroke-miterlimit:3.25;stroke-dasharray:none;stroke-opacity:0.7"
         id="path32" />
      <path
         d="m 254.016,18.348 c 0,-0.653 -0.258,-1.278 -0.719,-1.739 -0.461,-0.461 -1.086,-0.722 -1.738,-0.722 -0.653,0 -1.278,0.261 -1.739,0.722 -0.461,0.461 -0.722,1.086 -0.722,1.739 0,0.652 0.261,1.277 0.722,1.738 0.461,0.461 1.086,0.719 1.739,0.719 0.652,0 1.277,-0.258 1.738,-0.719 0.461,-0.461 0.719,-1.086 0.719,-1.738 z"
         style="fill:#a3b4cc;fill-opacity:1;fill-rule:evenodd;stroke:none"
         id="path34" />
      <path
         d="m 254.016,18.348 c 0,-0.653 -0.258,-1.278 -0.719,-1.739 -0.461,-0.461 -1.086,-0.722 -1.738,-0.722 -0.653,0 -1.278,0.261 -1.739,0.722 -0.461,0.461 -0.722,1.086 -0.722,1.739 0,0.652 0.261,1.277 0.722,1.738 0.461,0.461 1.086,0.719 1.739,0.719 0.652,0 1.277,-0.258 1.738,-0.719 0.461,-0.461 0.719,-1.086 0.719,-1.738 z"
         style="fill:none;stroke:#000000;stroke-width:0.36;stroke-linecap:square;stroke-linejoin:miter;stroke-miterlimit:3.25;stroke-dasharray:none;stroke-opacity:0.7"
         id="path36" />
      <path
         d="m 172.711,18.348 c 0,-0.653 -0.258,-1.278 -0.719,-1.739 -0.461,-0.461 -1.086,-0.722 -1.738,-0.722 -0.652,0 -1.277,0.261 -1.738,0.722 -0.461,0.461 -0.723,1.086 -0.723,1.739 0,0.652 0.262,1.277 0.723,1.738 0.461,0.461 1.086,0.719 1.738,0.719 0.652,0 1.277,-0.258 1.738,-0.719 0.461,-0.461 0.719,-1.086 0.719,-1.738 z"
         style="fill:#a3b4cc;fill-opacity:1;fill-rule:evenodd;stroke:none"
         id="path38" />
      <path
         d="m 172.711,18.348 c 0,-0.653 -0.258,-1.278 -0.719,-1.739 -0.461,-0.461 -1.086,-0.722 -1.738,-0.722 -0.652,0 -1.277,0.261 -1.738,0.722 -0.461,0.461 -0.723,1.086 -0.723,1.739 0,0.652 0.262,1.277 0.723,1.738 0.461,0.461 1.086,0.719 1.738,0.719 0.652,0 1.277,-0.258 1.738,-0.719 0.461,-0.461 0.719,-1.086 0.719,-1.738 z"
         style="fill:none;stroke:#000000;stroke-width:0.36;stroke-linecap:square;stroke-linejoin:miter;stroke-miterlimit:3.25;stroke-dasharray:none;stroke-opacity:0.7"
         id="path40" />
    </g>
  </g>
</svg>
