<?xml version="1.0" encoding="UTF-8" standalone="no"?>
<!-- Created with Inkscape (http://www.inkscape.org/) -->

<svg
   version="1.1"
   id="svg1"
   width="470.66666"
   height="97.333336"
   viewBox="0 0 470.66666 97.333336"
   sodipodi:docname="1cklte43ogg8m.pdf"
   xmlns:inkscape="http://www.inkscape.org/namespaces/inkscape"
   xmlns:sodipodi="http://sodipodi.sourceforge.net/DTD/sodipodi-0.dtd"
   xmlns="http://www.w3.org/2000/svg"
   xmlns:svg="http://www.w3.org/2000/svg">
  <defs
     id="defs1" />
  <sodipodi:namedview
     id="namedview1"
     pagecolor="#ffffff"
     bordercolor="#999999"
     borderopacity="1"
     inkscape:showpageshadow="0"
     inkscape:pageopacity="0"
     inkscape:pagecheckerboard="0"
     inkscape:deskcolor="#d1d1d1">
    <inkscape:page
       x="0"
       y="0"
       id="page1"
       width="470.66666"
       height="97.333336"
       margin="0"
       bleed="0" />
  </sodipodi:namedview>
  <g
     id="g1"
     inkscape:groupmode="layer"
     inkscape:label="">
    <path
       id="path1"
       d="M 4.32,0.84 C 3.102,0.84 1.93,1.324 1.066,2.188 0.203,3.051 -0.281,4.219 -0.281,5.441 v 61.797 c 0,1.223 0.484,2.391 1.347,3.254 0.864,0.863 2.036,1.348 3.254,1.348 h 343.801 c 1.219,0 2.391,-0.485 3.25,-1.348 0.863,-0.863 1.348,-2.031 1.348,-3.254 V 5.441 c 0,-1.222 -0.485,-2.39 -1.348,-3.253 -0.859,-0.864 -2.031,-1.348 -3.25,-1.348 z"
       style="fill:#ffffff;fill-opacity:1;fill-rule:evenodd;stroke:none"
       transform="scale(1.3333333)" />
    <path
       id="path2"
       d="M 1,2.02 H 349.273 V 13.891 H 1 Z"
       style="fill:#f8f8f8;fill-opacity:1;fill-rule:nonzero;stroke:none"
       transform="scale(1.3333333)" />
    <path
       id="path3"
       d="m 349.273,2.02 h 1.871 v 11.871 h -1.871 z"
       style="fill:#f8f8f8;fill-opacity:1;fill-rule:nonzero;stroke:none"
       transform="scale(1.3333333)" />
    <path
       id="path4"
       d="M 1,14.035 H 349.273 V 58.777 H 1 Z"
       style="fill:#f3fbff;fill-opacity:1;fill-rule:nonzero;stroke:none"
       transform="scale(1.3333333)" />
    <path
       id="path5"
       d="m 349.273,14.035 h 1.871 v 44.742 h -1.871 z"
       style="fill:#f3fbff;fill-opacity:1;fill-rule:nonzero;stroke:none"
       transform="scale(1.3333333)" />
    <path
       id="path6"
       d="M 1,58.922 H 351.145 V 70.793 L 1,70.793 Z"
       style="fill:#f8f8f8;fill-opacity:1;fill-rule:nonzero;stroke:none"
       transform="scale(1.3333333)" />
    <path
       id="path7"
       d="M 3.4684766,-4.5704375 V -3.937625 C 3.2223828,-4.0548125 2.9880078,-4.1485625 2.7770703,-4.1954375 c -0.2226562,-0.058594 -0.421875,-0.09375 -0.6210937,-0.09375 -0.3515625,0 -0.6210938,0.070312 -0.8085938,0.2109375 -0.1875,0.1289063 -0.28125,0.3164063 -0.28125,0.5625 0,0.2226563 0.058594,0.375 0.1875,0.4804688 0.1289063,0.1054687 0.3632813,0.1875 0.7148438,0.2578125 l 0.3867187,0.070312 c 0.4804688,0.09375 0.8320313,0.2578125 1.0546875,0.4804687 0.2226563,0.234375 0.3398438,0.5390625 0.3398438,0.9257813 0,0.4570312 -0.1523438,0.8085937 -0.4570313,1.0429687 -0.3164062,0.234375 -0.7617187,0.3515625 -1.359375,0.3515625 -0.2109375,0 -0.4570312,-0.0234375 -0.703125,-0.0703125 C 0.97238281,-0.03528175 0.71457031,-0.10559425 0.44503906,-0.211063 v -0.65625 c 0.2578125,0.15234375 0.515625,0.2578125 0.76171874,0.328125 0.2460938,0.0820313 0.4921875,0.1171875 0.7265625,0.1171875 0.375,0 0.65625,-0.0703125 0.8554688,-0.22265625 0.1875,-0.140625 0.2929687,-0.33984375 0.2929687,-0.60937495 0,-0.234375 -0.070312,-0.4101563 -0.2109375,-0.5390625 -0.140625,-0.140625 -0.375,-0.234375 -0.703125,-0.3046875 l -0.3867187,-0.070312 c -0.4804688,-0.09375 -0.82031254,-0.2460938 -1.03125004,-0.4453125 -0.22265625,-0.2109375 -0.328125,-0.4804688 -0.328125,-0.84375 0,-0.421875 0.15234375,-0.75 0.4453125,-0.984375 0.29296874,-0.2460938 0.70312504,-0.3632813 1.21875004,-0.3632813 0.2109375,0 0.4453125,0.011719 0.6796875,0.058594 0.2226562,0.046875 0.4570312,0.1054687 0.703125,0.175781 z M 6.1930859,0.328 C 6.0290234,0.749875 5.8649609,1.031125 5.7126172,1.1600313 5.5485547,1.2889375 5.3493359,1.35925 5.0798047,1.35925 H 4.6227734 V 0.8670625 h 0.328125 c 0.1640625,0 0.2929688,-0.046875 0.3867188,-0.1171875 0.082031,-0.0703125 0.1875,-0.2578125 0.28125,-0.5390625 L 5.7243359,-0.047 4.2946484,-3.5391875 h 0.6210938 l 1.1015625,2.765625 1.1132812,-2.765625 H 7.7516797 Z M 11.31418,-2.8595 c 0.140625,-0.2695312 0.316406,-0.4570312 0.515625,-0.5859375 0.199218,-0.1171875 0.433593,-0.1875 0.714843,-0.1875 0.363282,0 0.644532,0.1289063 0.855469,0.3984375 0.199219,0.2578125 0.304688,0.6210938 0.304688,1.1015625 V -1.25e-4 h -0.597657 v -2.1210937 c 0,-0.3398438 -0.05859,-0.5859375 -0.175781,-0.75 -0.117187,-0.1640625 -0.304687,-0.2460938 -0.550781,-0.2460938 -0.304688,0 -0.539063,0.09375 -0.714844,0.2929688 -0.175781,0.2109375 -0.257812,0.4804687 -0.257812,0.8203125 V -1.25e-4 h -0.585938 v -2.1210937 c 0,-0.3398438 -0.05859,-0.5859375 -0.1875,-0.7617188 -0.117187,-0.1523437 -0.304687,-0.234375 -0.550781,-0.234375 -0.2929688,0 -0.5390626,0.09375 -0.7148438,0.2929688 -0.1757813,0.2109375 -0.2578125,0.4804687 -0.2578125,0.8203125 V -1.25e-4 H 8.5251172 v -3.5390625 h 0.5859375 v 0.5507813 c 0.1289062,-0.2226563 0.2929687,-0.3867188 0.46875,-0.4804688 0.1875,-0.1054687 0.4101562,-0.1640625 0.6679683,-0.1640625 0.257813,0 0.480469,0.070312 0.65625,0.1992188 0.1875,0.140625 0.316407,0.328125 0.410157,0.5742187 z m 6.08789,1.1015625 c 0,-0.4335937 -0.08203,-0.7734375 -0.257812,-1.0195312 -0.1875,-0.2460938 -0.421875,-0.3632813 -0.738281,-0.3632813 -0.304688,0 -0.539063,0.1171875 -0.726563,0.3632813 -0.175781,0.2460937 -0.257812,0.5859375 -0.257812,1.0195312 0,0.421875 0.08203,0.75 0.257812,0.99609375 0.1875,0.24609375 0.421875,0.36328125 0.726563,0.36328125 0.316406,0 0.550781,-0.1171875 0.738281,-0.36328125 C 17.320039,-1.0079375 17.40207,-1.3360625 17.40207,-1.7579375 Z M 15.421602,-3.000125 c 0.128906,-0.2109375 0.269531,-0.375 0.457031,-0.46875 0.1875,-0.1054687 0.410156,-0.1640625 0.667969,-0.1640625 0.433593,0 0.785156,0.1757813 1.054687,0.5273438 0.269531,0.328125 0.410156,0.7851562 0.410156,1.3476562 0,0.5507813 -0.140625,0.99609375 -0.410156,1.34765625 -0.269531,0.328125 -0.621094,0.50390625 -1.054687,0.50390625 -0.257813,0 -0.480469,-0.046875 -0.667969,-0.15234375 -0.1875,-0.10546875 -0.328125,-0.2578125 -0.457031,-0.46875 V -1.25e-4 H 14.835664 V -4.922 h 0.585938 z m 4.916015,-0.1289062 c -0.316406,0 -0.5625,0.1171875 -0.738281,0.3632812 -0.1875,0.2460938 -0.28125,0.5742188 -0.28125,1.0078125 0,0.421875 0.09375,0.75 0.28125,0.99609375 0.175781,0.24609375 0.421875,0.36328125 0.738281,0.36328125 0.316406,0 0.550781,-0.1171875 0.738281,-0.36328125 0.175782,-0.24609375 0.269532,-0.57421875 0.269532,-0.99609375 0,-0.421875 -0.09375,-0.7617187 -0.269532,-1.0078125 -0.1875,-0.2460937 -0.421875,-0.3632812 -0.738281,-0.3632812 z m 0,-0.5039063 c 0.503906,0 0.902344,0.1757813 1.195313,0.5039063 0.28125,0.328125 0.433593,0.7851562 0.433593,1.3710937 0,0.5742188 -0.152343,1.03125 -0.433593,1.359375 -0.292969,0.328125 -0.691407,0.4921875 -1.195313,0.4921875 -0.503906,0 -0.902344,-0.1640625 -1.195312,-0.4921875 -0.28125,-0.328125 -0.433594,-0.7851562 -0.433594,-1.359375 0,-0.5859375 0.152344,-1.0429687 0.433594,-1.3710937 0.292968,-0.328125 0.691406,-0.5039063 1.195312,-0.5039063 z M 22.927461,-4.922 h 0.585937 v 4.921875 h -0.585937 z m 0,0"
       style="fill:#777777;fill-opacity:1;fill-rule:nonzero;stroke:none"
       aria-label="Symbol"
       transform="matrix(1.3333333,0,0,1.3333333,7.9183333,13.125167)" />
    <path
       id="path8"
       d="M 0.48066406,-6.2933984 H 5.4259766 v 0.65625 l -3.984375,4.92187496 H 5.5314453 V -4.296875e-4 H 0.37519531 V -0.64496094 L 4.3595703,-5.5785547 H 0.48066406 Z m 10.28906294,3.75 v 0.375 H 7.1955078 c 0.035156,0.5273437 0.1992188,0.9375 0.4804688,1.21874996 0.2929687,0.28125 0.6914062,0.41015625 1.21875,0.41015625 0.2929687,0 0.5859375,-0.0351563 0.8554687,-0.10546875 0.2812497,-0.0703125 0.5624997,-0.17578125 0.8437497,-0.328125 v 0.73828125 c -0.292968,0.1171875 -0.574218,0.2109375 -0.8671872,0.26953125 -0.28125,0.05859375 -0.5859375,0.09375 -0.890625,0.09375 -0.75,0 -1.3476562,-0.22265625 -1.78125,-0.66796875 -0.4453125,-0.43359375 -0.65625,-1.01953121 -0.65625,-1.78125001 0,-0.7617187 0.1992188,-1.3710937 0.6210938,-1.828125 0.421875,-0.4570312 0.984375,-0.6914062 1.6875,-0.6914062 0.6328125,0 1.1367187,0.2109375 1.5000004,0.6210937 0.375,0.4101563 0.5625,0.9609375 0.5625,1.6757813 z m -0.7734379,-0.234375 c -0.011719,-0.421875 -0.1289063,-0.7617188 -0.3632813,-1.0195313 -0.2226562,-0.2578125 -0.5390625,-0.375 -0.9140625,-0.375 -0.4335937,0 -0.7851562,0.1171875 -1.0429687,0.3632813 -0.2578125,0.2460937 -0.4101563,0.5859375 -0.4570313,1.03125 z m 4.7871089,-1.2070313 c -0.08203,-0.058594 -0.1875,-0.1054687 -0.28125,-0.1171875 -0.105468,-0.023437 -0.222656,-0.035156 -0.351562,-0.035156 -0.433594,0 -0.761719,0.140625 -1.007813,0.421875 -0.234375,0.28125 -0.351562,0.703125 -0.351562,1.2304687 V -4.296875e-4 H 12.006055 V -4.7113672 h 0.785156 v 0.7265625 c 0.164062,-0.2929687 0.375,-0.5039062 0.632812,-0.6328125 0.269532,-0.1523437 0.585938,-0.2226562 0.960938,-0.2226562 0.04687,0 0.117187,0.011719 0.175781,0.023437 0.07031,0 0.140625,0.011719 0.210938,0.023437 z m 2.648438,-0.1875 c -0.433594,0 -0.761719,0.1523438 -0.996094,0.4804688 -0.246094,0.328125 -0.363281,0.7734375 -0.363281,1.3476562 0,0.5507813 0.117187,0.9960938 0.363281,1.3242188 0.234375,0.32812496 0.5625,0.48046871 0.996094,0.48046871 0.410156,0 0.726562,-0.15234375 0.972656,-0.48046871 0.234375,-0.328125 0.363281,-0.7734375 0.363281,-1.3242188 0,-0.5625 -0.128906,-1.0195312 -0.363281,-1.3476562 -0.246094,-0.3164063 -0.5625,-0.4804688 -0.972656,-0.4804688 z m 0,-0.6679687 c 0.667969,0 1.195312,0.2226562 1.582031,0.6679687 0.386719,0.4335938 0.585938,1.0429688 0.585938,1.828125 0,0.7617188 -0.199219,1.37109376 -0.585938,1.80468751 -0.386719,0.4453125 -0.914062,0.66796875 -1.582031,0.66796875 -0.691406,0 -1.21875,-0.22265625 -1.605469,-0.66796875 -0.375,-0.43359375 -0.5625,-1.04296871 -0.5625,-1.80468751 0,-0.7851562 0.1875,-1.3945312 0.5625,-1.828125 0.386719,-0.4453125 0.914063,-0.6679687 1.605469,-0.6679687 z m 3.474609,-1.453125 h 1.277344 l 1.605469,4.2890625 1.605469,-4.2890625 H 26.67207 V -4.296875e-4 H 25.82832 V -5.5316797 l -1.617187,4.3242188 h -0.855469 l -1.628906,-4.3242188 v 5.5312500125 h -0.820313 z m 9.251953,2.1210937 c -0.433593,0 -0.761718,0.1523438 -0.996093,0.4804688 -0.246094,0.328125 -0.363282,0.7734375 -0.363282,1.3476562 0,0.5507813 0.117188,0.9960938 0.363282,1.3242188 0.234375,0.32812496 0.5625,0.48046871 0.996093,0.48046871 0.410157,0 0.726563,-0.15234375 0.972657,-0.48046871 0.234375,-0.328125 0.363281,-0.7734375 0.363281,-1.3242188 0,-0.5625 -0.128906,-1.0195312 -0.363281,-1.3476562 -0.246094,-0.3164063 -0.5625,-0.4804688 -0.972657,-0.4804688 z m 0,-0.6679687 c 0.667969,0 1.195313,0.2226562 1.582032,0.6679687 0.386718,0.4335938 0.585937,1.0429688 0.585937,1.828125 0,0.7617188 -0.199219,1.37109376 -0.585937,1.80468751 -0.386719,0.4453125 -0.914063,0.66796875 -1.582032,0.66796875 -0.691406,0 -1.21875,-0.22265625 -1.605468,-0.66796875 -0.375,-0.43359375 -0.5625,-1.04296871 -0.5625,-1.80468751 0,-0.7851562 0.1875,-1.3945312 0.5625,-1.828125 0.386718,-0.4453125 0.914062,-0.6679687 1.605468,-0.6679687 z m 7.119141,1.03125 c 0.1875,-0.3515625 0.421875,-0.609375 0.691406,-0.7734375 0.269532,-0.1640625 0.585938,-0.2578125 0.949219,-0.2578125 0.492188,0 0.878906,0.1757812 1.148438,0.5273437 0.257812,0.3398438 0.398437,0.8320313 0.398437,1.4648438 V -4.296875e-4 H 39.679883 V -2.8246484 c 0,-0.4453125 -0.08203,-0.7851563 -0.234375,-0.9960938 -0.164063,-0.234375 -0.398438,-0.328125 -0.726563,-0.328125 -0.410156,0 -0.726562,0.1289063 -0.960937,0.3867188 -0.234375,0.2695312 -0.351563,0.6328125 -0.351563,1.0898437 V -4.296875e-4 H 36.621289 V -2.8246484 c 0,-0.4453125 -0.07031,-0.7851563 -0.234375,-1.0078125 -0.164062,-0.2226563 -0.410156,-0.3164063 -0.738281,-0.3164063 -0.398438,0 -0.714844,0.1289063 -0.949219,0.3867188 -0.234375,0.2695312 -0.351562,0.6328125 -0.351562,1.0898437 V -4.296875e-4 H 33.562695 V -4.7113672 h 0.785157 v 0.7265625 c 0.175781,-0.2929687 0.398437,-0.5039062 0.632812,-0.6445312 0.257813,-0.140625 0.550781,-0.2109375 0.878906,-0.2109375 0.351563,0 0.644532,0.09375 0.890625,0.2695312 0.234375,0.1757813 0.410157,0.421875 0.527344,0.7617188 z m 8.777344,1.265625 v 0.375 h -3.574219 c 0.03516,0.5273437 0.199219,0.9375 0.480469,1.21874996 0.292969,0.28125 0.691406,0.41015625 1.21875,0.41015625 0.292969,0 0.585937,-0.0351563 0.855469,-0.10546875 0.28125,-0.0703125 0.5625,-0.17578125 0.84375,-0.328125 v 0.73828125 c -0.292969,0.1171875 -0.574219,0.2109375 -0.867188,0.26953125 -0.28125,0.05859375 -0.585937,0.09375 -0.890625,0.09375 -0.75,0 -1.347656,-0.22265625 -1.78125,-0.66796875 -0.445312,-0.43359375 -0.65625,-1.01953121 -0.65625,-1.78125001 0,-0.7617187 0.199219,-1.3710937 0.621094,-1.828125 0.421875,-0.4570312 0.984375,-0.6914062 1.6875,-0.6914062 0.632812,0 1.136719,0.2109375 1.5,0.6210937 0.375,0.4101563 0.5625,0.9609375 0.5625,1.6757813 z m -0.773438,-0.234375 c -0.01172,-0.421875 -0.128906,-0.7617188 -0.363281,-1.0195313 -0.222656,-0.2578125 -0.539062,-0.375 -0.914062,-0.375 -0.433594,0 -0.785157,0.1171875 -1.042969,0.3632813 -0.257813,0.2460937 -0.410156,0.5859375 -0.457031,1.03125 z m 5.970703,-0.070312 V -4.296875e-4 H 50.478711 V -2.8246484 c 0,-0.4453125 -0.09375,-0.7734375 -0.269531,-0.9960938 -0.164063,-0.234375 -0.421875,-0.328125 -0.785157,-0.328125 -0.410156,0 -0.738281,0.1289063 -0.984375,0.3867188 -0.234375,0.2695312 -0.363281,0.6328125 -0.363281,1.0898437 V -4.296875e-4 H 47.291211 V -4.7113672 h 0.785156 v 0.7265625 c 0.1875,-0.28125 0.398438,-0.5039062 0.65625,-0.6328125 0.257813,-0.140625 0.539063,-0.2226562 0.867188,-0.2226562 0.550781,0 0.960937,0.1757812 1.230468,0.515625 0.28125,0.3398437 0.421875,0.8320312 0.421875,1.476563 z m 2.317383,-3.2109375 v 1.3476562 h 1.59375 v 0.5859375 h -1.59375 v 2.5664063 c 0,0.3984375 0.04687,0.64453121 0.152344,0.74999996 0.105469,0.10546875 0.316406,0.1640625 0.644531,0.1640625 h 0.796875 v 0.6445312525 h -0.796875 c -0.597656,0 -1.019531,-0.1054687525 -1.242187,-0.3281250025 -0.234375,-0.22265625 -0.339844,-0.6328125 -0.339844,-1.23046871 v -2.5664063 h -0.574219 v -0.5859375 h 0.574219 v -1.3476562 z m 2.53125,4.2070312 v -2.859375 h 0.773438 v 2.8242188 c 0,0.4453125 0.09375,0.7851562 0.269531,1.00781246 0.175781,0.22265625 0.433594,0.33984375 0.773437,0.33984375 0.433594,0 0.761719,-0.140625 0.996094,-0.41015625 0.257813,-0.26953126 0.375,-0.63281246 0.375,-1.08984376 v -2.671875 H 60.05 V -4.296875e-4 H 59.288281 V -0.71527344 c -0.1875,0.28125 -0.410156,0.4921875 -0.65625,0.6328125 -0.257812,0.140625 -0.550781,0.2109375 -0.878906,0.2109375 -0.527344,0 -0.949219,-0.17578125 -1.230469,-0.50390625 -0.28125,-0.33984375 -0.421875,-0.83203121 -0.421875,-1.47656201 z m 9.231446,-1.9570312 c 0.1875,-0.3515625 0.421875,-0.609375 0.691406,-0.7734375 0.269531,-0.1640625 0.585937,-0.2578125 0.949219,-0.2578125 0.492187,0 0.878906,0.1757812 1.148437,0.5273437 0.257813,0.3398438 0.398438,0.8320313 0.398438,1.4648438 V -4.296875e-4 H 67.73457 V -2.8246484 c 0,-0.4453125 -0.08203,-0.7851563 -0.234375,-0.9960938 -0.164062,-0.234375 -0.398437,-0.328125 -0.726562,-0.328125 -0.410156,0 -0.726563,0.1289063 -0.960938,0.3867188 -0.234375,0.2695312 -0.351562,0.6328125 -0.351562,1.0898437 V -4.296875e-4 H 64.675977 V -2.8246484 c 0,-0.4453125 -0.07031,-0.7851563 -0.234375,-1.0078125 -0.164063,-0.2226563 -0.410157,-0.3164063 -0.738282,-0.3164063 -0.398437,0 -0.714843,0.1289063 -0.949218,0.3867188 -0.234375,0.2695312 -0.351563,0.6328125 -0.351563,1.0898437 V -4.296875e-4 H 61.617383 V -4.7113672 h 0.785156 v 0.7265625 c 0.175781,-0.2929687 0.398438,-0.5039062 0.632813,-0.6445312 0.257812,-0.140625 0.550781,-0.2109375 0.878906,-0.2109375 0.351562,0 0.644531,0.09375 0.890625,0.2695312 0.234375,0.1757813 0.410156,0.421875 0.527344,0.7617193 z m 4.769531,-2.484375 h 0.84375 v 6.2929687125 h -0.84375 z m 6.404297,3.4453125 V -4.296875e-4 H 75.732617 V -2.8246484 c 0,-0.4453125 -0.09375,-0.7734375 -0.269531,-0.9960938 -0.164063,-0.234375 -0.421875,-0.328125 -0.785156,-0.328125 -0.410157,0 -0.738282,0.1289063 -0.984375,0.3867188 -0.234375,0.2695312 -0.363282,0.6328125 -0.363282,1.0898437 V -4.296875e-4 H 72.545117 V -4.7113672 h 0.785156 v 0.7265625 c 0.1875,-0.28125 0.398438,-0.5039062 0.65625,-0.6328125 0.257813,-0.140625 0.539063,-0.2226562 0.867188,-0.2226562 0.550781,0 0.960937,0.1757812 1.230469,0.515625 0.28125,0.3398437 0.421875,0.8320312 0.421875,1.476563 z m 4.555664,-1.734375 v 0.7382812 c -0.222657,-0.1171875 -0.445313,-0.1992187 -0.679688,-0.2578125 -0.234375,-0.046875 -0.480469,-0.082031 -0.738281,-0.082031 -0.386719,0 -0.679688,0.058594 -0.867188,0.1757812 -0.1875,0.1171875 -0.28125,0.2929688 -0.28125,0.5390625 0,0.1757813 0.05859,0.3164063 0.199219,0.421875 0.140625,0.1054688 0.410156,0.1992188 0.832031,0.2929688 l 0.257813,0.058594 c 0.5625,0.1171875 0.949219,0.28125 1.183594,0.4921875 0.234375,0.2109375 0.351562,0.515625 0.351562,0.9023438 0,0.43359371 -0.175781,0.79687496 -0.527344,1.04296871 -0.351562,0.2578125025 -0.820312,0.38671875 -1.429687,0.38671875 -0.257813,0 -0.515625,-0.0234375 -0.796875,-0.08203125 -0.269531,-0.0468749975 -0.550781,-0.1171875 -0.855469,-0.22265625 v -0.796875 c 0.28125,0.15234375 0.5625,0.26953125 0.84375,0.33984375 0.28125,0.0703125 0.550781,0.10546875 0.832031,0.10546875 0.363282,0 0.632813,-0.0585938 0.832032,-0.17578125 0.199218,-0.12890625 0.292968,-0.30468751 0.292968,-0.53906251 0,-0.2109375 -0.07031,-0.375 -0.199218,-0.4804687 -0.152344,-0.1171875 -0.457032,-0.2226563 -0.9375,-0.328125 l -0.28125,-0.070312 c -0.46875,-0.09375 -0.820313,-0.2460938 -1.03125,-0.4570313 -0.210938,-0.2109375 -0.316407,-0.4921875 -0.316407,-0.8554687 0,-0.4570313 0.152344,-0.796875 0.46875,-1.0429688 0.316407,-0.234375 0.761719,-0.3632812 1.347657,-0.3632812 0.28125,0 0.550781,0.023437 0.796875,0.070312 0.257812,0.046875 0.492187,0.1054687 0.703125,0.1874995 z m 5.52539,2.0390625 v 0.375 h -3.574218 c 0.03516,0.5273437 0.199218,0.9375 0.480468,1.21874996 0.292969,0.28125 0.691407,0.41015625 1.21875,0.41015625 0.292969,0 0.585938,-0.0351563 0.855469,-0.10546875 0.28125,-0.0703125 0.5625,-0.17578125 0.84375,-0.328125 v 0.73828125 c -0.292969,0.1171875 -0.574219,0.2109375 -0.867187,0.26953125 -0.28125,0.05859375 -0.585938,0.09375 -0.890625,0.09375 -0.75,0 -1.347657,-0.22265625 -1.78125,-0.66796875 -0.445313,-0.43359375 -0.65625,-1.01953121 -0.65625,-1.78125001 0,-0.7617187 0.199218,-1.3710937 0.621093,-1.828125 0.421875,-0.4570312 0.984375,-0.6914062 1.6875,-0.6914062 0.632813,0 1.136719,0.2109375 1.5,0.6210937 0.375,0.4101563 0.5625,0.9609375 0.5625,1.6757813 z m -0.773437,-0.234375 c -0.01172,-0.421875 -0.128906,-0.7617188 -0.363281,-1.0195313 -0.222657,-0.2578125 -0.539063,-0.375 -0.914063,-0.375 -0.433594,0 -0.785156,0.1171875 -1.042969,0.3632813 -0.257812,0.2460937 -0.410156,0.5859375 -0.457031,1.03125 z m 4.78418,-1.2070313 c -0.08203,-0.058594 -0.1875,-0.1054687 -0.28125,-0.1171875 -0.105469,-0.023437 -0.222657,-0.035156 -0.351563,-0.035156 -0.433594,0 -0.761719,0.140625 -1.007812,0.421875 -0.234375,0.28125 -0.351563,0.703125 -0.351563,1.2304687 V -4.296875e-4 H 87.820508 V -4.7113672 h 0.785156 v 0.7265625 c 0.164063,-0.2929687 0.375,-0.5039062 0.632813,-0.6328125 0.269531,-0.1523437 0.585937,-0.2226562 0.960937,-0.2226562 0.04687,0 0.117188,0.011719 0.175781,0.023437 0.07031,0 0.140625,0.011719 0.210938,0.023437 z m 1.582031,-2.0742187 v 1.3476562 h 1.59375 v 0.5859375 h -1.59375 v 2.5664063 c 0,0.3984375 0.04687,0.64453121 0.152344,0.74999996 0.105468,0.10546875 0.316406,0.1640625 0.644531,0.1640625 h 0.796875 v 0.6445312525 h -0.796875 c -0.597656,0 -1.019531,-0.1054687525 -1.242188,-0.3281250025 -0.234375,-0.22265625 -0.339843,-0.6328125 -0.339843,-1.23046871 v -2.5664063 h -0.574219 v -0.5859375 h 0.574219 v -1.3476562 z m 2.613281,1.3476562 h 0.785156 v 4.7109375125 h -0.785156 z m 0,-1.8398437 h 0.785156 v 0.9726562 h -0.785156 z m 4.233398,2.3789062 c -0.433593,0 -0.761718,0.1523438 -0.996093,0.4804688 -0.246094,0.328125 -0.363282,0.7734375 -0.363282,1.3476562 0,0.5507813 0.117188,0.9960938 0.363282,1.3242188 0.234375,0.32812496 0.5625,0.48046871 0.996093,0.48046871 0.410157,0 0.726563,-0.15234375 0.972657,-0.48046871 0.234371,-0.328125 0.363281,-0.7734375 0.363281,-1.3242188 0,-0.5625 -0.12891,-1.0195312 -0.363281,-1.3476562 -0.246094,-0.3164063 -0.5625,-0.4804688 -0.972657,-0.4804688 z m 0,-0.6679687 c 0.667969,0 1.195308,0.2226562 1.582028,0.6679687 0.38672,0.4335938 0.58594,1.0429688 0.58594,1.828125 0,0.7617188 -0.19922,1.37109376 -0.58594,1.80468751 -0.38672,0.4453125 -0.914059,0.66796875 -1.582028,0.66796875 -0.691406,0 -1.21875,-0.22265625 -1.605468,-0.66796875 -0.375,-0.43359375 -0.5625,-1.04296871 -0.5625,-1.80468751 0,-0.7851562 0.1875,-1.3945312 0.5625,-1.828125 0.386718,-0.4453125 0.914062,-0.6679687 1.605468,-0.6679687 z m 7.365238,1.9921875 v 2.8476562125 h -0.77344 V -2.8246484 c 0,-0.4453125 -0.0937,-0.7734375 -0.26953,-0.9960938 -0.16406,-0.234375 -0.42188,-0.328125 -0.78516,-0.328125 -0.41015,0 -0.73828,0.1289063 -0.98437,0.3867188 -0.23438,0.2695312 -0.36328,0.6328125 -0.36328,1.0898437 v 2.6718750125 h -0.78516 V -4.7113672 h 0.78516 v 0.7265625 c 0.1875,-0.28125 0.39843,-0.5039062 0.65625,-0.6328125 0.25781,-0.140625 0.53906,-0.2226562 0.86718,-0.2226562 0.55078,0 0.96094,0.1757812 1.23047,0.515625 0.28125,0.3398437 0.42188,0.8320312 0.42188,1.476563 z m 4.2832,-1.8632813 h 0.78516 V -4.296875e-4 H 110.675 Z m 0,-1.8398437 h 0.78516 v 0.9726562 H 110.675 Z m 5.40527,1.96875 v 0.7382812 c -0.22265,-0.1171875 -0.44531,-0.1992187 -0.67968,-0.2578125 -0.23438,-0.046875 -0.48047,-0.082031 -0.73829,-0.082031 -0.38671,0 -0.67968,0.058594 -0.86718,0.1757812 -0.1875,0.1171875 -0.28125,0.2929688 -0.28125,0.5390625 0,0.1757813 0.0586,0.3164063 0.19922,0.421875 0.14062,0.1054688 0.41015,0.1992188 0.83203,0.2929688 l 0.25781,0.058594 c 0.5625,0.1171875 0.94922,0.28125 1.18359,0.4921875 0.23438,0.2109375 0.35157,0.515625 0.35157,0.9023438 0,0.43359371 -0.17579,0.79687496 -0.52735,1.04296871 -0.35156,0.2578125025 -0.82031,0.38671875 -1.42969,0.38671875 -0.25781,0 -0.51562,-0.0234375 -0.79687,-0.08203125 -0.26953,-0.0468749975 -0.55078,-0.1171875 -0.85547,-0.22265625 v -0.796875 c 0.28125,0.15234375 0.5625,0.26953125 0.84375,0.33984375 0.28125,0.0703125 0.55078,0.10546875 0.83203,0.10546875 0.36328,0 0.63281,-0.0585938 0.83203,-0.17578125 0.19922,-0.12890625 0.29297,-0.30468751 0.29297,-0.53906251 0,-0.2109375 -0.0703,-0.375 -0.19922,-0.4804687 -0.15234,-0.1171875 -0.45703,-0.2226563 -0.9375,-0.328125 l -0.28125,-0.070312 c -0.46875,-0.09375 -0.82031,-0.2460938 -1.03125,-0.4570313 -0.21093,-0.2109375 -0.3164,-0.4921875 -0.3164,-0.8554687 0,-0.4570313 0.15234,-0.796875 0.46875,-1.0429688 0.3164,-0.234375 0.76172,-0.3632812 1.34765,-0.3632812 0.28125,0 0.55078,0.023437 0.79688,0.070312 0.25781,0.046875 0.49219,0.1054687 0.70312,0.1874995 z m 6.36328,2.2148437 c -0.62109,0 -1.0664,0.070312 -1.30078,0.2109375 -0.24609,0.140625 -0.36328,0.3867188 -0.36328,0.7265625 0,0.28125 0.0937,0.50390626 0.26953,0.65625001 0.1875,0.1640625 0.4336,0.24609375 0.75,0.24609375 0.42188,0 0.76172,-0.140625 1.01953,-0.45703125 0.26954,-0.30468751 0.39844,-0.70312501 0.39844,-1.20703121 v -0.1757813 z m 1.54688,-0.328125 v 2.6953125125 h -0.77344 V -0.71527344 c -0.17578,0.29296875 -0.39844,0.50390625 -0.65625,0.6328125 -0.26953,0.140625 -0.58594,0.2109375 -0.97265,0.2109375 -0.48047,0 -0.86719,-0.140625 -1.16016,-0.41015625 -0.28125,-0.26953125 -0.42188,-0.6328125 -0.42188,-1.08984371 0,-0.5273438 0.17579,-0.9375 0.52735,-1.2070313 0.36328,-0.2578125 0.89062,-0.3984375 1.60547,-0.3984375 h 1.07812 v -0.082031 c 0,-0.3515625 -0.11719,-0.6328125 -0.35156,-0.8203125 -0.23438,-0.1992188 -0.5625,-0.2929688 -0.99609,-0.2929688 -0.25782,0 -0.52735,0.023437 -0.78516,0.09375 -0.25781,0.058594 -0.49219,0.1640625 -0.72656,0.2929688 v -0.7148438 c 0.26953,-0.1171875 0.55078,-0.1992187 0.82031,-0.2460937 0.26953,-0.058594 0.52734,-0.09375 0.78516,-0.09375 0.67968,0 1.18359,0.1875 1.52343,0.5390625 0.33985,0.3515625 0.50391,0.890625 0.50391,1.605469 z m 5.52246,-0.1523437 v 2.8476562125 h -0.77344 V -2.8246484 c 0,-0.4453125 -0.0937,-0.7734375 -0.26953,-0.9960938 -0.16406,-0.234375 -0.42187,-0.328125 -0.78515,-0.328125 -0.41016,0 -0.73829,0.1289063 -0.98438,0.3867188 -0.23437,0.2695312 -0.36328,0.6328125 -0.36328,1.0898437 v 2.6718750125 h -0.78516 V -4.7113672 h 0.78516 v 0.7265625 c 0.1875,-0.28125 0.39844,-0.5039062 0.65625,-0.6328125 0.25781,-0.140625 0.53906,-0.2226562 0.86719,-0.2226562 0.55078,0 0.96093,0.1757812 1.23047,0.515625 0.28125,0.3398437 0.42187,0.8320312 0.42187,1.476563 z m 6.13184,-1.3242188 c -0.4336,0 -0.76172,0.1523438 -0.9961,0.4804688 -0.24609,0.328125 -0.36328,0.7734375 -0.36328,1.3476562 0,0.5507813 0.11719,0.9960938 0.36328,1.3242188 0.23438,0.32812496 0.5625,0.48046871 0.9961,0.48046871 0.41015,0 0.72656,-0.15234375 0.97265,-0.48046871 0.23438,-0.328125 0.36328,-0.7734375 0.36328,-1.3242188 0,-0.5625 -0.1289,-1.0195312 -0.36328,-1.3476562 -0.24609,-0.3164063 -0.5625,-0.4804688 -0.97265,-0.4804688 z m 0,-0.6679687 c 0.66797,0 1.19531,0.2226562 1.58203,0.6679687 0.38672,0.4335938 0.58594,1.0429688 0.58594,1.828125 0,0.7617188 -0.19922,1.37109376 -0.58594,1.80468751 -0.38672,0.4453125 -0.91406,0.66796875 -1.58203,0.66796875 -0.69141,0 -1.21875,-0.22265625 -1.60547,-0.66796875 -0.375,-0.43359375 -0.5625,-1.04296871 -0.5625,-1.80468751 0,-0.7851562 0.1875,-1.3945312 0.5625,-1.828125 0.38672,-0.4453125 0.91406,-0.6679687 1.60547,-0.6679687 z m 4.18945,4.13671871 V 1.8042578 h -0.78516 v -6.515625 h 0.78516 v 0.7148438 c 0.16406,-0.2929688 0.36328,-0.4921875 0.62109,-0.6328125 0.2461,-0.140625 0.53907,-0.2109375 0.89063,-0.2109375 0.57422,0 1.04297,0.234375 1.39453,0.6914062 0.36328,0.4570313 0.53906,1.0546875 0.53906,1.8046875 0,0.7265625 -0.17578,1.3359375 -0.53906,1.79296876 -0.35156,0.4453125 -0.82031,0.6796875 -1.39453,0.6796875 -0.35156,0 -0.64453,-0.0703125 -0.89063,-0.2109375 -0.25781,-0.12890625 -0.45703,-0.33984375 -0.62109,-0.62109325 z m 2.63672,-1.64062501 c 0,-0.5859375 -0.10547,-1.0195312 -0.33985,-1.3476562 -0.24609,-0.328125 -0.5625,-0.4921875 -0.98437,-0.4921875 -0.39844,0 -0.71484,0.1640625 -0.96094,0.4921875 -0.23437,0.328125 -0.35156,0.7617187 -0.35156,1.3476562 0,0.5625 0.11719,1.0078125 0.35156,1.3359375 0.2461,0.32812501 0.5625,0.48046876 0.96094,0.48046876 0.42187,0 0.73828,-0.15234375 0.98437,-0.48046876 0.23438,-0.328125 0.33985,-0.7734375 0.33985,-1.3359375 z m 2.8623,-3.7148437 v 1.3476562 h 1.59375 v 0.5859375 h -1.59375 v 2.5664063 c 0,0.3984375 0.0469,0.64453121 0.15235,0.74999996 0.10547,0.10546875 0.3164,0.1640625 0.64453,0.1640625 h 0.79687 v 0.6445312525 h -0.79687 c -0.59766,0 -1.01953,-0.1054687525 -1.24219,-0.3281250025 -0.23437,-0.22265625 -0.33984,-0.6328125 -0.33984,-1.23046871 v -2.5664063 h -0.57422 v -0.5859375 h 0.57422 v -1.3476562 z m 2.61328,1.3476562 h 0.78516 v 4.7109375125 h -0.78516 z m 0,-1.8398437 h 0.78516 v 0.9726562 h -0.78516 z m 4.2334,2.3789062 c -0.43359,0 -0.76172,0.1523438 -0.99609,0.4804688 -0.24609,0.328125 -0.36328,0.7734375 -0.36328,1.3476562 0,0.5507813 0.11719,0.9960938 0.36328,1.3242188 0.23437,0.32812496 0.5625,0.48046871 0.99609,0.48046871 0.41016,0 0.72657,-0.15234375 0.97266,-0.48046871 0.23437,-0.328125 0.36328,-0.7734375 0.36328,-1.3242188 0,-0.5625 -0.12891,-1.0195312 -0.36328,-1.3476562 -0.24609,-0.3164063 -0.5625,-0.4804688 -0.97266,-0.4804688 z m 0,-0.6679687 c 0.66797,0 1.19532,0.2226562 1.58203,0.6679687 0.38672,0.4335938 0.58594,1.0429688 0.58594,1.828125 0,0.7617188 -0.19922,1.37109376 -0.58594,1.80468751 -0.38671,0.4453125 -0.91406,0.66796875 -1.58203,0.66796875 -0.6914,0 -1.21875,-0.22265625 -1.60547,-0.66796875 -0.375,-0.43359375 -0.5625,-1.04296871 -0.5625,-1.80468751 0,-0.7851562 0.1875,-1.3945312 0.5625,-1.828125 0.38672,-0.4453125 0.91407,-0.6679687 1.60547,-0.6679687 z m 7.36524,1.9921875 v 2.8476562125 h -0.77344 V -2.8246484 c 0,-0.4453125 -0.0937,-0.7734375 -0.26953,-0.9960938 -0.16406,-0.234375 -0.42188,-0.328125 -0.78516,-0.328125 -0.41015,0 -0.73828,0.1289063 -0.98437,0.3867188 -0.23438,0.2695312 -0.36328,0.6328125 -0.36328,1.0898437 v 2.6718750125 h -0.78516 V -4.7113672 h 0.78516 v 0.7265625 c 0.1875,-0.28125 0.39843,-0.5039062 0.65625,-0.6328125 0.25781,-0.140625 0.53906,-0.2226562 0.86718,-0.2226562 0.55078,0 0.96094,0.1757812 1.23047,0.515625 0.28125,0.3398437 0.42188,0.8320312 0.42188,1.476563 z m 6.11425,-1.3242188 c -0.43359,0 -0.76171,0.1523438 -0.99609,0.4804688 -0.24609,0.328125 -0.36328,0.7734375 -0.36328,1.3476562 0,0.5507813 0.11719,0.9960938 0.36328,1.3242188 0.23438,0.32812496 0.5625,0.48046871 0.99609,0.48046871 0.41016,0 0.72657,-0.15234375 0.97266,-0.48046871 0.23438,-0.328125 0.36328,-0.7734375 0.36328,-1.3242188 0,-0.5625 -0.1289,-1.0195312 -0.36328,-1.3476562 -0.24609,-0.3164063 -0.5625,-0.4804688 -0.97266,-0.4804688 z m 0,-0.6679687 c 0.66797,0 1.19532,0.2226562 1.58204,0.6679687 0.38671,0.4335938 0.58593,1.0429688 0.58593,1.828125 0,0.7617188 -0.19922,1.37109376 -0.58593,1.80468751 -0.38672,0.4453125 -0.91407,0.66796875 -1.58204,0.66796875 -0.6914,0 -1.21875,-0.22265625 -1.60546,-0.66796875 -0.375,-0.43359375 -0.5625,-1.04296871 -0.5625,-1.80468751 0,-0.7851562 0.1875,-1.3945312 0.5625,-1.828125 0.38671,-0.4453125 0.91406,-0.6679687 1.60546,-0.6679687 z m 5.83008,-1.7109375 v 0.6328125 h -0.73828 c -0.28125,0 -0.46875,0.058594 -0.57422,0.1757812 -0.11718,0.1054688 -0.16406,0.3046875 -0.16406,0.5976563 v 0.4335937 h 1.27734 v 0.5859375 h -1.27734 v 4.1250000125 h -0.78516 V -4.1254297 h -0.75 v -0.5859375 h 0.75 v -0.328125 c 0,-0.5273437 0.12891,-0.9257812 0.36329,-1.1601562 0.24609,-0.234375 0.63281,-0.3515625 1.17187,-0.3515625 z m 3.59766,0.2578125 h 3.62109 v 0.7148437 h -2.77734 v 1.8515625 h 2.49609 v 0.7265625 h -2.49609 v 3.0000000125 h -0.84375 z m 8.97656,3.75 v 0.375 h -3.57422 c 0.0352,0.5273437 0.19922,0.9375 0.48047,1.21874996 0.29297,0.28125 0.69141,0.41015625 1.21875,0.41015625 0.29297,0 0.58594,-0.0351563 0.85547,-0.10546875 0.28125,-0.0703125 0.5625,-0.17578125 0.84375,-0.328125 v 0.73828125 c -0.29297,0.1171875 -0.57422,0.2109375 -0.86719,0.26953125 -0.28125,0.05859375 -0.58593,0.09375 -0.89062,0.09375 -0.75,0 -1.34766,-0.22265625 -1.78125,-0.66796875 -0.44531,-0.43359375 -0.65625,-1.01953121 -0.65625,-1.78125001 0,-0.7617187 0.19922,-1.3710937 0.62109,-1.828125 0.42188,-0.4570312 0.98438,-0.6914062 1.6875,-0.6914062 0.63281,0 1.13672,0.2109375 1.5,0.6210937 0.375,0.4101563 0.5625,0.9609375 0.5625,1.6757813 z m -0.77344,-0.234375 c -0.0117,-0.421875 -0.1289,-0.7617188 -0.36328,-1.0195313 -0.22265,-0.2578125 -0.53906,-0.375 -0.91406,-0.375 -0.43359,0 -0.78516,0.1171875 -1.04297,0.3632813 -0.25781,0.2460937 -0.41015,0.5859375 -0.45703,1.03125 z m 4.01075,3.22265621 c -0.22266,0.55078125 -0.4336,0.92578129 -0.64453,1.10156249 -0.21094,0.1757813 -0.48047,0.2578125 -0.83204,0.2578125 h -0.62109 v -0.65625 h 0.45703 c 0.21094,0 0.375,-0.046875 0.49219,-0.15234374 0.12891,-0.09375 0.25781,-0.33984375 0.38672,-0.71484375 l 0.14062,-0.3515625 -1.91015,-4.64062501 h 0.83203 l 1.46484,3.6796875 1.47656,-3.6796875 h 0.83204 z m 7.06347,-3.29296871 v 2.8476562125 h -0.77343 V -2.8246484 c 0,-0.4453125 -0.0937,-0.7734375 -0.26954,-0.9960938 -0.16406,-0.234375 -0.42187,-0.328125 -0.78515,-0.328125 -0.41016,0 -0.73828,0.1289063 -0.98438,0.3867188 -0.23437,0.2695312 -0.36328,0.6328125 -0.36328,1.0898437 v 2.6718750125 h -0.78515 V -4.7113672 h 0.78515 v 0.7265625 c 0.1875,-0.28125 0.39844,-0.5039062 0.65625,-0.6328125 0.25781,-0.140625 0.53906,-0.2226562 0.86719,-0.2226562 0.55078,0 0.96094,0.1757812 1.23047,0.515625 0.28125,0.3398437 0.42187,0.8320312 0.42187,1.476563 z m 4.55567,-0.09375 c 0.19922,0.058594 0.36328,0.1875 0.53906,0.3984375 0.17578,0.1992187 0.35156,0.46875 0.51562,0.8203125 l 0.87891,1.7226562125 h -0.91406 L 199.11934,-1.6176172 c -0.19922,-0.4101562 -0.39844,-0.703125 -0.59766,-0.8320312 -0.1875,-0.140625 -0.45703,-0.2109375 -0.79688,-0.2109375 h -0.9375 v 2.6601562125 h -0.84375 V -6.2933984 h 1.92188 c 0.72656,0 1.25391,0.1523437 1.61719,0.4570312 0.35156,0.3046875 0.52734,0.75 0.52734,1.3476563 0,0.3984375 -0.0937,0.7265625 -0.28125,0.9960937 -0.17578,0.2578125 -0.44531,0.4453125 -0.80859,0.5507818 z m -2.13282,-2.6484375 v 2.2265625 h 1.07813 c 0.41016,0 0.72656,-0.09375 0.92578,-0.28125 0.21094,-0.1875 0.31641,-0.46875 0.31641,-0.84375 0,-0.3515625 -0.10547,-0.6328125 -0.31641,-0.8203125 -0.19922,-0.1875 -0.51562,-0.28125 -0.92578,-0.28125 z m 5.03614,3.7382812 v -2.859375 h 0.77343 v 2.8242188 c 0,0.4453125 0.0937,0.7851562 0.26954,1.00781246 0.17578,0.22265625 0.43359,0.33984375 0.77343,0.33984375 0.4336,0 0.76172,-0.140625 0.9961,-0.41015625 0.25781,-0.26953126 0.375,-0.63281246 0.375,-1.08984376 v -2.671875 h 0.76172 v 4.7109375125 h -0.76172 V -0.71527344 c -0.1875,0.28125 -0.41016,0.4921875 -0.65625,0.6328125 -0.25782,0.140625 -0.55078,0.2109375 -0.87891,0.2109375 -0.52734,0 -0.94922,-0.17578125 -1.23047,-0.50390625 -0.28125,-0.33984375 -0.42187,-0.83203121 -0.42187,-1.47656201 z m 5.54883,-4.6992187 h 0.78515 v 6.5507812125 h -0.78515 z m 6.43652,4.0078125 v 0.375 h -3.57422 c 0.0352,0.5273437 0.19922,0.9375 0.48047,1.21874996 0.29297,0.28125 0.69141,0.41015625 1.21875,0.41015625 0.29297,0 0.58594,-0.0351563 0.85547,-0.10546875 0.28125,-0.0703125 0.5625,-0.17578125 0.84375,-0.328125 v 0.73828125 c -0.29297,0.1171875 -0.57422,0.2109375 -0.86719,0.26953125 -0.28125,0.05859375 -0.58594,0.09375 -0.89062,0.09375 -0.75,0 -1.34766,-0.22265625 -1.78125,-0.66796875 -0.44532,-0.43359375 -0.65625,-1.01953121 -0.65625,-1.78125001 0,-0.7617187 0.19921,-1.3710937 0.62109,-1.828125 0.42187,-0.4570312 0.98437,-0.6914062 1.6875,-0.6914062 0.63281,0 1.13672,0.2109375 1.5,0.6210937 0.375,0.4101563 0.5625,0.9609375 0.5625,1.6757813 z m -0.77344,-0.234375 c -0.0117,-0.421875 -0.1289,-0.7617188 -0.36328,-1.0195313 -0.22266,-0.2578125 -0.53906,-0.375 -0.91406,-0.375 -0.4336,0 -0.78516,0.1171875 -1.04297,0.3632813 -0.25781,0.2460937 -0.41016,0.5859375 -0.45703,1.03125 z m 2.24414,1.7109375 h 0.89063 v 0.72656246 l -0.69141,1.34765624 h -0.53906 l 0.33984,-1.34765624 z m 4.43848,-5.2265625 h 5.32031 v 0.7148437 H 222.8 v 5.5781250125 h -0.85547 V -5.5785547 h -2.22656 z m 5.65723,1.5820312 h 0.77343 l 0.97266,3.6796875 0.96094,-3.6796875 h 0.91406 l 0.97266,3.6796875 0.97265,-3.6796875 h 0.76172 l -1.23047,4.7109375125 h -0.91406 L 228.53926,-3.8676172 227.51973,-4.296875e-4 h -0.91407 z m 7.50292,0 h 0.78516 v 4.7109375125 h -0.78516 z m 0,-1.8398437 h 0.78516 v 0.9726562 h -0.78516 z m 5.40528,1.96875 v 0.7382812 c -0.22266,-0.1171875 -0.44531,-0.1992187 -0.67969,-0.2578125 -0.23437,-0.046875 -0.48047,-0.082031 -0.73828,-0.082031 -0.38672,0 -0.67969,0.058594 -0.86719,0.1757812 -0.1875,0.1171875 -0.28125,0.2929688 -0.28125,0.5390625 0,0.1757813 0.0586,0.3164063 0.19922,0.421875 0.14063,0.1054688 0.41016,0.1992188 0.83203,0.2929688 l 0.25781,0.058594 c 0.5625,0.1171875 0.94922,0.28125 1.1836,0.4921875 0.23437,0.2109375 0.35156,0.515625 0.35156,0.9023438 0,0.43359371 -0.17578,0.79687496 -0.52734,1.04296871 -0.35157,0.2578125025 -0.82032,0.38671875 -1.42969,0.38671875 -0.25781,0 -0.51563,-0.0234375 -0.79688,-0.08203125 -0.26953,-0.0468749975 -0.55078,-0.1171875 -0.85546,-0.22265625 v -0.796875 c 0.28125,0.15234375 0.5625,0.26953125 0.84375,0.33984375 0.28125,0.0703125 0.55078,0.10546875 0.83203,0.10546875 0.36328,0 0.63281,-0.0585938 0.83203,-0.17578125 0.19922,-0.12890625 0.29297,-0.30468751 0.29297,-0.53906251 0,-0.2109375 -0.0703,-0.375 -0.19922,-0.4804687 -0.15235,-0.1171875 -0.45703,-0.2226563 -0.9375,-0.328125 l -0.28125,-0.070312 c -0.46875,-0.09375 -0.82031,-0.2460938 -1.03125,-0.4570313 -0.21094,-0.2109375 -0.31641,-0.4921875 -0.31641,-0.8554687 0,-0.4570313 0.15235,-0.796875 0.46875,-1.0429688 0.31641,-0.234375 0.76172,-0.3632812 1.34766,-0.3632812 0.28125,0 0.55078,0.023437 0.79687,0.070312 0.25782,0.046875 0.49219,0.1054687 0.70313,0.1874995 z m 2.25586,-1.4765625 v 1.3476562 h 1.59375 v 0.5859375 h -1.59375 v 2.5664063 c 0,0.3984375 0.0469,0.64453121 0.15234,0.74999996 0.10547,0.10546875 0.31641,0.1640625 0.64453,0.1640625 h 0.79688 v 0.6445312525 h -0.79688 c -0.59765,0 -1.01953,-0.1054687525 -1.24218,-0.3281250025 -0.23438,-0.22265625 -0.33985,-0.6328125 -0.33985,-1.23046871 v -2.5664063 h -0.57422 v -0.5859375 h 0.57422 v -1.3476562 z m 3.45703,5.34374996 h 2.97656 v 0.7148437525 h -3.99609 V -0.71527344 c 0.3164,-0.32812496 0.76172,-0.78515626 1.32422,-1.34765626 0.55078,-0.5625 0.90234,-0.9257812 1.04297,-1.0898437 0.26953,-0.3046875 0.46875,-0.5625 0.57421,-0.7734375 0.10547,-0.2109375 0.16407,-0.421875 0.16407,-0.6210938 0,-0.3398437 -0.11719,-0.6210937 -0.35157,-0.8203125 -0.23437,-0.2109375 -0.55078,-0.328125 -0.91406,-0.328125 -0.26953,0 -0.55078,0.058594 -0.84375,0.140625 -0.30469,0.09375 -0.62109,0.234375 -0.96094,0.421875 v -0.8554687 c 0.33985,-0.140625 0.65625,-0.234375 0.96094,-0.3046875 0.29297,-0.082031 0.57422,-0.1171875 0.82031,-0.1171875 0.65625,0 1.17188,0.1640625 1.5586,0.4921875 0.38672,0.328125 0.58594,0.7617187 0.58594,1.3007812 0,0.2695313 -0.0469,0.515625 -0.14063,0.75 -0.10547,0.2226563 -0.28125,0.5039063 -0.52734,0.8085938 -0.082,0.082031 -0.29297,0.3164062 -0.67969,0.7148437 -0.375,0.3867188 -0.90234,0.9257813 -1.59375,1.62890676 z m 8.98535,-0.1875 V -2.5785547 h -1.39453 v -0.703125 h 2.22656 v 2.70703126 c -0.32812,0.234375 -0.6914,0.3984375 -1.08984,0.52734375 -0.39844,0.1171875 -0.8086,0.17578125 -1.26563,0.17578125 -0.98437,0 -1.75781,-0.29296875 -2.30859,-0.8671875 -0.55078,-0.57421876 -0.83203,-1.37109376 -0.83203,-2.40234376 0,-1.0195312 0.28125,-1.828125 0.83203,-2.4023437 0.55078,-0.5742188 1.32422,-0.8671875 2.30859,-0.8671875 0.41016,0 0.79688,0.058594 1.17188,0.1523437 0.375,0.1054688 0.70312,0.2578125 1.01953,0.4570313 v 0.9023437 c -0.31641,-0.2695312 -0.64453,-0.46875 -0.99609,-0.5976562 -0.36329,-0.140625 -0.72657,-0.2109375 -1.125,-0.2109375 -0.76172,0 -1.34766,0.2109375 -1.73438,0.6445312 -0.38672,0.4335938 -0.57422,1.078125 -0.57422,1.921875 0,0.8554688 0.1875,1.4882813 0.57422,1.921875 0.38672,0.43359376 0.97266,0.64453126 1.73438,0.64453126 0.30468,0 0.57421,-0.0234375 0.80859,-0.0703125 0.23437,-0.0585938 0.44531,-0.140625 0.64453,-0.257812 z m 2.35254,-5.64843746 h 0.78516 v 6.5507812125 h -0.78516 z m 2.31152,4.6992187 v -2.859375 h 0.77344 v 2.8242188 c 0,0.4453125 0.0937,0.7851562 0.26953,1.00781246 0.17578,0.22265625 0.4336,0.33984375 0.77344,0.33984375 0.43359,0 0.76172,-0.140625 0.99609,-0.41015625 0.25782,-0.26953126 0.375,-0.63281246 0.375,-1.08984376 v -2.671875 h 0.76172 V -4.296875e-4 H 260.8332 V -0.71527344 c -0.1875,0.28125 -0.41015,0.4921875 -0.65625,0.6328125 -0.25781,0.140625 -0.55078,0.2109375 -0.8789,0.2109375 -0.52735,0 -0.94922,-0.17578125 -1.23047,-0.50390625 -0.28125,-0.33984375 -0.42188,-0.83203121 -0.42188,-1.47656201 z m 7.3916,-2.3203125 c -0.43359,0 -0.76171,0.1523438 -0.99609,0.4804688 -0.24609,0.328125 -0.36328,0.7734375 -0.36328,1.3476562 0,0.5507813 0.11719,0.9960938 0.36328,1.3242188 0.23438,0.32812496 0.5625,0.48046871 0.99609,0.48046871 0.41016,0 0.72657,-0.15234375 0.97266,-0.48046871 0.23438,-0.328125 0.36328,-0.7734375 0.36328,-1.3242188 0,-0.5625 -0.1289,-1.0195312 -0.36328,-1.3476562 -0.24609,-0.3164063 -0.5625,-0.4804688 -0.97266,-0.4804688 z m 0,-0.6679687 c 0.66797,0 1.19532,0.2226562 1.58204,0.6679687 0.38671,0.4335938 0.58593,1.0429688 0.58593,1.828125 0,0.7617188 -0.19922,1.37109376 -0.58593,1.80468751 -0.38672,0.4453125 -0.91407,0.66796875 -1.58204,0.66796875 -0.6914,0 -1.21875,-0.22265625 -1.60546,-0.66796875 -0.375,-0.43359375 -0.5625,-1.04296871 -0.5625,-1.80468751 0,-0.7851562 0.1875,-1.3945312 0.5625,-1.828125 0.38671,-0.4453125 0.91406,-0.6679687 1.60546,-0.6679687 z m 7.36524,1.9921875 V -4.296875e-4 H 271.6291 V -2.8246484 c 0,-0.4453125 -0.0937,-0.7734375 -0.26953,-0.9960938 -0.16406,-0.234375 -0.42187,-0.328125 -0.78516,-0.328125 -0.41015,0 -0.73828,0.1289063 -0.98437,0.3867188 -0.23438,0.2695312 -0.36328,0.6328125 -0.36328,1.0898437 V -4.296875e-4 H 268.4416 V -4.7113672 h 0.78516 v 0.7265625 c 0.1875,-0.28125 0.39844,-0.5039062 0.65625,-0.6328125 0.25781,-0.140625 0.53906,-0.2226562 0.86719,-0.2226562 0.55078,0 0.96093,0.1757812 1.23046,0.515625 0.28125,0.3398437 0.42188,0.8320312 0.42188,1.476563 z m 4.13086,-2.8710938 c -0.6211,0 -1.11328,0.234375 -1.47656,0.6914063 -0.36329,0.46875 -0.53907,1.1015625 -0.53907,1.8867187 0,0.796875 0.17578,1.4179688 0.53907,1.875 0.36328,0.46875001 0.85546,0.70312501 1.47656,0.70312501 0.62109,0 1.11328,-0.234375 1.47656,-0.70312501 0.36328,-0.4570312 0.52734,-1.078125 0.52734,-1.875 0,-0.7851562 -0.16406,-1.4179687 -0.52734,-1.8867187 -0.36328,-0.4570313 -0.85547,-0.6914063 -1.47656,-0.6914063 z m 0,-0.6914062 c 0.89062,0 1.58203,0.3046875 2.12109,0.890625 0.52735,0.5976562 0.78516,1.3828125 0.78516,2.3789062 0,0.9960938 -0.25781,1.78125 -0.78516,2.37890626 -0.53906,0.5859375 -1.23047,0.890625 -2.12109,0.890625 -0.89063,0 -1.59375,-0.3046875 -2.1211,-0.890625 -0.53906,-0.58593746 -0.79687,-1.38281246 -0.79687,-2.37890626 0,-0.9960937 0.25781,-1.78125 0.79687,-2.3789062 0.52735,-0.5859375 1.23047,-0.890625 2.1211,-0.890625 z m 4.95996,5.70703121 V 1.8042578 h -0.78516 v -6.515625 h 0.78516 v 0.7148438 c 0.16406,-0.2929688 0.36328,-0.4921875 0.62109,-0.6328125 0.2461,-0.140625 0.53907,-0.2109375 0.89063,-0.2109375 0.57422,0 1.04297,0.234375 1.39453,0.6914062 0.36328,0.4570313 0.53906,1.0546875 0.53906,1.8046875 0,0.7265625 -0.17578,1.3359375 -0.53906,1.79296876 -0.35156,0.4453125 -0.82031,0.6796875 -1.39453,0.6796875 -0.35156,0 -0.64453,-0.0703125 -0.89063,-0.2109375 -0.25781,-0.12890625 -0.45703,-0.33984375 -0.62109,-0.62109325 z m 2.63672,-1.64062501 c 0,-0.5859375 -0.10547,-1.0195312 -0.33985,-1.3476562 -0.24609,-0.328125 -0.5625,-0.4921875 -0.98437,-0.4921875 -0.39844,0 -0.71484,0.1640625 -0.96094,0.4921875 -0.23437,0.328125 -0.35156,0.7617187 -0.35156,1.3476562 0,0.5625 0.11719,1.0078125 0.35156,1.3359375 0.2461,0.32812501 0.5625,0.48046876 0.96094,0.48046876 0.42187,0 0.73828,-0.15234375 0.98437,-0.48046876 0.23438,-0.328125 0.33985,-0.7734375 0.33985,-1.3359375 z m 6.13476,-0.1992187 v 0.375 h -3.57422 c 0.0352,0.5273437 0.19922,0.9375 0.48047,1.21874996 0.29297,0.28125 0.69141,0.41015625 1.21875,0.41015625 0.29297,0 0.58594,-0.0351563 0.85547,-0.10546875 0.28125,-0.0703125 0.5625,-0.17578125 0.84375,-0.328125 v 0.73828125 c -0.29297,0.1171875 -0.57422,0.2109375 -0.86719,0.26953125 -0.28125,0.05859375 -0.58593,0.09375 -0.89062,0.09375 -0.75,0 -1.34766,-0.22265625 -1.78125,-0.66796875 -0.44531,-0.43359375 -0.65625,-1.01953121 -0.65625,-1.78125001 0,-0.7617187 0.19922,-1.3710937 0.62109,-1.828125 0.42188,-0.4570312 0.98438,-0.6914062 1.6875,-0.6914062 0.63282,0 1.13672,0.2109375 1.5,0.6210937 0.375,0.4101563 0.5625,0.9609375 0.5625,1.6757813 z m -0.77343,-0.234375 c -0.0117,-0.421875 -0.12891,-0.7617188 -0.36329,-1.0195313 -0.22265,-0.2578125 -0.53906,-0.375 -0.91406,-0.375 -0.43359,0 -0.78515,0.1171875 -1.04297,0.3632813 -0.25781,0.2460937 -0.41015,0.5859375 -0.45703,1.03125 z m 4.76074,-1.2070313 c -0.082,-0.058594 -0.1875,-0.1054687 -0.28125,-0.1171875 -0.10547,-0.023437 -0.22266,-0.035156 -0.35156,-0.035156 -0.4336,0 -0.76172,0.140625 -1.00782,0.421875 -0.23437,0.28125 -0.35156,0.703125 -0.35156,1.2304687 V -4.296875e-4 H 291.4748 V -4.7113672 h 0.78516 v 0.7265625 c 0.16406,-0.2929687 0.375,-0.5039062 0.63281,-0.6328125 0.26953,-0.1523437 0.58594,-0.2226562 0.96094,-0.2226562 0.0469,0 0.11719,0.011719 0.17578,0.023437 0.0703,0 0.14063,0.011719 0.21094,0.023437 z m 2.95312,1.6171875 c -0.62109,0 -1.0664,0.070312 -1.30078,0.2109375 -0.24609,0.140625 -0.36328,0.3867188 -0.36328,0.7265625 0,0.28125 0.0937,0.50390626 0.26953,0.65625001 0.1875,0.1640625 0.4336,0.24609375 0.75,0.24609375 0.42188,0 0.76172,-0.140625 1.01953,-0.45703125 0.26953,-0.30468751 0.39844,-0.70312501 0.39844,-1.20703121 v -0.1757813 z m 1.54688,-0.328125 v 2.6953125125 h -0.77344 V -0.71527344 c -0.17578,0.29296875 -0.39844,0.50390625 -0.65625,0.6328125 -0.26953,0.140625 -0.58594,0.2109375 -0.97266,0.2109375 -0.48046,0 -0.86718,-0.140625 -1.16015,-0.41015625 -0.28125,-0.26953125 -0.42188,-0.6328125 -0.42188,-1.08984371 0,-0.5273438 0.17578,-0.9375 0.52735,-1.2070313 0.36328,-0.2578125 0.89062,-0.3984375 1.60547,-0.3984375 h 1.07812 v -0.082031 c 0,-0.3515625 -0.11719,-0.6328125 -0.35156,-0.8203125 -0.23438,-0.1992188 -0.5625,-0.2929688 -0.9961,-0.2929688 -0.25781,0 -0.52734,0.023437 -0.78515,0.09375 -0.25781,0.058594 -0.49219,0.1640625 -0.72656,0.2929688 v -0.7148438 c 0.26953,-0.1171875 0.55078,-0.1992187 0.82031,-0.2460937 0.26953,-0.058594 0.52734,-0.09375 0.78515,-0.09375 0.67969,0 1.1836,0.1875 1.52344,0.5390625 0.33985,0.3515625 0.50391,0.890625 0.50391,1.605469 z m 2.37012,-3.3632812 v 1.3476562 h 1.59375 v 0.5859375 h -1.59375 v 2.5664063 c 0,0.3984375 0.0469,0.64453121 0.15234,0.74999996 0.10547,0.10546875 0.31641,0.1640625 0.64453,0.1640625 h 0.79688 v 0.6445312525 h -0.79688 c -0.59766,0 -1.01953,-0.1054687525 -1.24219,-0.3281250025 -0.23437,-0.22265625 -0.33984,-0.6328125 -0.33984,-1.23046871 v -2.5664063 h -0.57422 v -0.5859375 h 0.57422 v -1.3476562 z m 4.45312,1.8867187 c -0.43359,0 -0.76172,0.1523438 -0.99609,0.4804688 -0.2461,0.328125 -0.36328,0.7734375 -0.36328,1.3476562 0,0.5507813 0.11718,0.9960938 0.36328,1.3242188 0.23437,0.32812496 0.5625,0.48046871 0.99609,0.48046871 0.41016,0 0.72656,-0.15234375 0.97266,-0.48046871 0.23437,-0.328125 0.36328,-0.7734375 0.36328,-1.3242188 0,-0.5625 -0.12891,-1.0195312 -0.36328,-1.3476562 -0.2461,-0.3164063 -0.5625,-0.4804688 -0.97266,-0.4804688 z m 0,-0.6679687 c 0.66797,0 1.19531,0.2226562 1.58203,0.6679687 0.38672,0.4335938 0.58594,1.0429688 0.58594,1.828125 0,0.7617188 -0.19922,1.37109376 -0.58594,1.80468751 -0.38672,0.4453125 -0.91406,0.66796875 -1.58203,0.66796875 -0.69141,0 -1.21875,-0.22265625 -1.60547,-0.66796875 -0.375,-0.43359375 -0.5625,-1.04296871 -0.5625,-1.80468751 0,-0.7851562 0.1875,-1.3945312 0.5625,-1.828125 0.38672,-0.4453125 0.91406,-0.6679687 1.60547,-0.6679687 z m 6.18164,0.8554687 c -0.082,-0.058594 -0.1875,-0.1054687 -0.28125,-0.1171875 -0.10547,-0.023437 -0.22266,-0.035156 -0.35156,-0.035156 -0.4336,0 -0.76172,0.140625 -1.00781,0.421875 -0.23438,0.28125 -0.35157,0.703125 -0.35157,1.2304687 v 2.4843750125 h -0.78515 V -4.7113672 h 0.78515 v 0.7265625 c 0.16407,-0.2929687 0.375,-0.5039062 0.63282,-0.6328125 0.26953,-0.1523437 0.58593,-0.2226562 0.96093,-0.2226562 0.0469,0 0.11719,0.011719 0.17578,0.023437 0.0703,0 0.14063,0.011719 0.21094,0.023437 z m 5.69238,1.6171875 c -0.62109,0 -1.0664,0.070312 -1.30078,0.2109375 -0.24609,0.140625 -0.36328,0.3867188 -0.36328,0.7265625 0,0.28125 0.0937,0.50390626 0.26953,0.65625001 0.1875,0.1640625 0.4336,0.24609375 0.75,0.24609375 0.42188,0 0.76172,-0.140625 1.01953,-0.45703125 0.26954,-0.30468751 0.39844,-0.70312501 0.39844,-1.20703121 v -0.1757813 z m 1.54688,-0.328125 v 2.6953125125 h -0.77344 V -0.71527344 c -0.17578,0.29296875 -0.39844,0.50390625 -0.65625,0.6328125 -0.26953,0.140625 -0.58594,0.2109375 -0.97265,0.2109375 -0.48047,0 -0.86719,-0.140625 -1.16016,-0.41015625 -0.28125,-0.26953125 -0.42188,-0.6328125 -0.42188,-1.08984371 0,-0.5273438 0.17579,-0.9375 0.52735,-1.2070313 0.36328,-0.2578125 0.89062,-0.3984375 1.60547,-0.3984375 h 1.07812 v -0.082031 c 0,-0.3515625 -0.11719,-0.6328125 -0.35156,-0.8203125 -0.23438,-0.1992188 -0.5625,-0.2929688 -0.99609,-0.2929688 -0.25782,0 -0.52735,0.023437 -0.78516,0.09375 -0.25781,0.058594 -0.49219,0.1640625 -0.72656,0.2929688 v -0.7148438 c 0.26953,-0.1171875 0.55078,-0.1992187 0.82031,-0.2460937 0.26953,-0.058594 0.52734,-0.09375 0.78516,-0.09375 0.67968,0 1.18359,0.1875 1.52343,0.5390625 0.33985,0.3515625 0.50391,0.890625 0.50391,1.605469 z m 5.52246,-0.1523437 v 2.8476562125 h -0.77344 V -2.8246484 c 0,-0.4453125 -0.0937,-0.7734375 -0.26953,-0.9960938 -0.16406,-0.234375 -0.42187,-0.328125 -0.78516,-0.328125 -0.41015,0 -0.73828,0.1289063 -0.98437,0.3867188 -0.23438,0.2695312 -0.36328,0.6328125 -0.36328,1.0898437 v 2.6718750125 h -0.78516 V -4.7113672 h 0.78516 v 0.7265625 c 0.1875,-0.28125 0.39844,-0.5039062 0.65625,-0.6328125 0.25781,-0.140625 0.53906,-0.2226562 0.86719,-0.2226562 0.55078,0 0.96093,0.1757812 1.23046,0.515625 0.28125,0.3398437 0.42188,0.8320312 0.42188,1.476563 z m 4.66113,-1.1484375 v -2.5546875 h 0.76172 v 6.5507812125 h -0.76172 V -0.70355469 c -0.16406,0.28125 -0.375,0.4921875 -0.62109,0.62109375 -0.25781,0.140625 -0.55078,0.2109375 -0.90234,0.2109375 -0.57422,0 -1.04297,-0.234375 -1.39454,-0.6796875 -0.36328,-0.45703126 -0.52734,-1.06640626 -0.52734,-1.79296876 0,-0.75 0.16406,-1.3476562 0.52734,-1.8046875 0.35157,-0.4570312 0.82032,-0.6914062 1.39454,-0.6914062 0.35156,0 0.64453,0.070312 0.90234,0.2109375 0.24609,0.140625 0.45703,0.3398437 0.62109,0.632813 z m -2.66015,1.6523437 c 0,0.5625 0.1289,1.0078125 0.36328,1.3359375 0.22265,0.32812501 0.55078,0.48046876 0.96094,0.48046876 0.41015,0 0.73828,-0.15234375 0.97265,-0.48046876 0.23438,-0.328125 0.36328,-0.7734375 0.36328,-1.3359375 0,-0.5859375 -0.1289,-1.0195312 -0.36328,-1.3476562 -0.23437,-0.328125 -0.5625,-0.4921875 -0.97265,-0.4921875 -0.41016,0 -0.73829,0.1640625 -0.96094,0.4921875 -0.23438,0.328125 -0.36328,0.7617187 -0.36328,1.3476562 z M -0.02324219,10.268125 H 5.2970703 v 0.714844 H 3.0587891 v 5.578125 H 2.2033203 v -5.578125 h -2.22656249 z m 5.65722659,1.582031 h 0.7734375 l 0.9726562,3.679688 0.9609375,-3.679688 h 0.9140625 l 0.9726559,3.679688 0.972657,-3.679688 h 0.761718 l -1.230468,4.710938 H 9.8175781 L 8.7980469,12.693906 7.7785156,16.561094 H 6.8644531 Z m 7.5029296,0 h 0.785156 v 4.710938 h -0.785156 z m 0,-1.839844 h 0.785156 v 0.972657 h -0.785156 z m 5.405273,1.96875 v 0.738282 C 18.319531,12.600156 18.096875,12.518125 17.8625,12.459531 17.628125,12.412656 17.382031,12.3775 17.124219,12.3775 c -0.386719,0 -0.679688,0.05859 -0.867188,0.175781 -0.1875,0.117188 -0.28125,0.292969 -0.28125,0.539063 0,0.175781 0.05859,0.316406 0.199219,0.421875 0.140625,0.105468 0.410156,0.199218 0.832031,0.292968 l 0.257813,0.05859 c 0.5625,0.117188 0.949218,0.28125 1.183593,0.492188 C 18.682812,14.568902 18.8,14.87359 18.8,15.260308 c 0,0.433594 -0.175781,0.796875 -0.527344,1.042969 C 17.921094,16.561094 17.452344,16.69 16.842969,16.69 c -0.257813,0 -0.515625,-0.02344 -0.796875,-0.08203 -0.269531,-0.04687 -0.550781,-0.117188 -0.855469,-0.222657 v -0.796875 c 0.28125,0.152344 0.5625,0.269532 0.84375,0.339844 0.28125,0.07031 0.550781,0.105469 0.832031,0.105469 0.363281,0 0.632813,-0.05859 0.832031,-0.175781 0.199219,-0.128907 0.292969,-0.304688 0.292969,-0.539063 0,-0.210937 -0.07031,-0.375 -0.199219,-0.480469 -0.152343,-0.117187 -0.457031,-0.222656 -0.9375,-0.328125 L 16.573437,14.44 c -0.46875,-0.09375 -0.820312,-0.246094 -1.031249,-0.457031 -0.210938,-0.210938 -0.316407,-0.492188 -0.316407,-0.855469 0,-0.457031 0.152344,-0.796875 0.46875,-1.042969 0.316406,-0.234375 0.761719,-0.363281 1.347656,-0.363281 0.28125,0 0.550782,0.02344 0.796875,0.07031 0.257813,0.04687 0.492188,0.105469 0.703125,0.1875 z m 2.25586,-1.476562 v 1.347656 h 1.59375 v 0.585938 h -1.59375 V 15.0025 c 0,0.398437 0.04687,0.644531 0.152344,0.75 0.105468,0.105469 0.316406,0.164062 0.644531,0.164062 h 0.796875 v 0.644532 h -0.796875 c -0.597656,0 -1.019531,-0.105469 -1.242188,-0.328125 -0.234375,-0.222657 -0.339843,-0.632813 -0.339843,-1.230469 v -2.566406 h -0.574219 v -0.585938 h 0.574219 V 10.5025 Z m 3.457031,5.34375 h 2.976563 v 0.714844 H 23.235547 V 15.84625 c 0.316406,-0.328125 0.761719,-0.785156 1.324219,-1.347656 0.550781,-0.5625 0.902343,-0.925782 1.042968,-1.089844 0.269532,-0.304688 0.46875,-0.5625 0.574219,-0.773438 0.105469,-0.210937 0.164063,-0.421875 0.164063,-0.621093 0,-0.339844 -0.117188,-0.621094 -0.351563,-0.820313 -0.234375,-0.210937 -0.550781,-0.328125 -0.914062,-0.328125 -0.269532,0 -0.550782,0.05859 -0.84375,0.140625 -0.304688,0.09375 -0.621094,0.234375 -0.960938,0.421875 v -0.855469 c 0.339844,-0.140625 0.65625,-0.234375 0.960938,-0.304687 0.292968,-0.08203 0.574218,-0.117188 0.820312,-0.117188 0.65625,0 1.171875,0.164063 1.558594,0.492188 0.386719,0.328125 0.585937,0.761719 0.585937,1.300781 0,0.269531 -0.04687,0.515625 -0.140625,0.75 -0.105468,0.222656 -0.28125,0.503906 -0.527343,0.808594 -0.08203,0.08203 -0.292969,0.316406 -0.679688,0.714844 -0.375,0.386718 -0.902344,0.925781 -1.59375,1.628906 z m 7.239258,-5.003906 c -0.621094,0 -1.113281,0.234375 -1.476563,0.691406 -0.363281,0.46875 -0.539062,1.101562 -0.539062,1.886719 0,0.796875 0.175781,1.417968 0.539062,1.875 0.363282,0.46875 0.855469,0.703125 1.476563,0.703125 0.621094,0 1.113281,-0.234375 1.476562,-0.703125 0.363282,-0.457032 0.527344,-1.078125 0.527344,-1.875 0,-0.785157 -0.164062,-1.417969 -0.527344,-1.886719 -0.363281,-0.457031 -0.855468,-0.691406 -1.476562,-0.691406 z m 1.195312,5.601562 1.125,1.230469 H 32.77168 l -0.914063,-0.996094 c -0.105469,0 -0.164062,0 -0.222656,0 -0.04687,0 -0.09375,0.01172 -0.140625,0.01172 -0.890625,0 -1.59375,-0.304688 -2.121094,-0.890625 -0.539062,-0.597656 -0.796875,-1.382813 -0.796875,-2.378906 0,-0.996094 0.257813,-1.78125 0.796875,-2.378907 0.527344,-0.585937 1.230469,-0.890625 2.121094,-0.890625 0.890625,0 1.582031,0.304688 2.121094,0.890625 0.527343,0.597657 0.785156,1.382813 0.785156,2.378907 0,0.726562 -0.152344,1.359375 -0.445313,1.875 -0.292968,0.527343 -0.714843,0.914062 -1.265625,1.148437 z m 2.932618,-1.734375 v -2.859375 h 0.773437 v 2.824219 c 0,0.445312 0.09375,0.785156 0.269531,1.007812 0.175782,0.222657 0.433594,0.339844 0.773438,0.339844 0.433594,0 0.761719,-0.140625 0.996094,-0.410156 0.257812,-0.269531 0.375,-0.632813 0.375,-1.089844 v -2.671875 h 0.761718 v 4.710938 H 38.809766 V 15.84625 c -0.1875,0.28125 -0.410157,0.492187 -0.65625,0.632812 C 37.895703,16.619687 37.602734,16.69 37.274609,16.69 c -0.527343,0 -0.949218,-0.175781 -1.230468,-0.503906 -0.28125,-0.339844 -0.421875,-0.832032 -0.421875,-1.476563 z m 7.696289,-0.515625 c -0.621094,0 -1.066407,0.07031 -1.300782,0.210938 -0.246093,0.140625 -0.363281,0.386718 -0.363281,0.726562 0,0.28125 0.09375,0.503906 0.269531,0.65625 0.1875,0.164063 0.433594,0.246094 0.75,0.246094 0.421875,0 0.761719,-0.140625 1.019532,-0.457031 0.269531,-0.304688 0.398437,-0.703125 0.398437,-1.207032 v -0.175781 z m 1.546875,-0.328125 v 2.695313 H 44.091992 V 15.84625 c -0.175781,0.292969 -0.398437,0.503906 -0.65625,0.632812 C 43.166211,16.619687 42.849805,16.69 42.463086,16.69 41.982617,16.69 41.595898,16.549375 41.30293,16.279844 41.02168,16.010312 40.881055,15.647031 40.881055,15.19 c 0,-0.527344 0.175781,-0.9375 0.527343,-1.207031 0.363282,-0.257813 0.890625,-0.398438 1.605469,-0.398438 h 1.078125 V 13.5025 c 0,-0.351563 -0.117187,-0.632813 -0.351562,-0.820313 -0.234375,-0.199218 -0.5625,-0.292968 -0.996094,-0.292968 -0.257813,0 -0.527344,0.02344 -0.785156,0.09375 -0.257813,0.05859 -0.492188,0.164062 -0.726563,0.292968 v -0.714843 c 0.269531,-0.117188 0.550781,-0.199219 0.820313,-0.246094 0.269531,-0.05859 0.527343,-0.09375 0.785156,-0.09375 0.679687,0 1.183594,0.1875 1.523437,0.539062 0.339844,0.351563 0.503907,0.890625 0.503907,1.605469 z m 4.338867,-1.289062 c -0.08203,-0.05859 -0.1875,-0.105469 -0.28125,-0.117188 -0.105469,-0.02344 -0.222656,-0.03516 -0.351563,-0.03516 -0.433593,0 -0.761718,0.140625 -1.007812,0.421875 -0.234375,0.28125 -0.351563,0.703125 -0.351563,1.230469 v 2.484375 h -0.785156 v -4.710938 h 0.785156 v 0.726563 c 0.164063,-0.292969 0.375,-0.503907 0.632813,-0.632813 0.269531,-0.152344 0.585937,-0.222656 0.960937,-0.222656 0.04687,0 0.117188,0.01172 0.175782,0.02344 0.07031,0 0.140625,0.01172 0.210937,0.02344 z m 0.773437,-2.566407 h 0.785157 V 13.8775 l 2.320312,-2.027344 h 0.984375 l -2.507812,2.203125 2.625,2.507813 H 53.165234 L 50.762891,14.2525 v 2.308594 h -0.785157 z m 7.628907,0.832032 c -0.621094,0 -1.113282,0.234375 -1.476563,0.691406 -0.363281,0.46875 -0.539062,1.101562 -0.539062,1.886719 0,0.796875 0.175781,1.417968 0.539062,1.875 0.363281,0.46875 0.855469,0.703125 1.476563,0.703125 0.621093,0 1.113281,-0.234375 1.476562,-0.703125 0.363281,-0.457032 0.527344,-1.078125 0.527344,-1.875 0,-0.785157 -0.164063,-1.417969 -0.527344,-1.886719 -0.363281,-0.457031 -0.855469,-0.691406 -1.476562,-0.691406 z m 0,-0.691407 c 0.890625,0 1.582031,0.304688 2.121093,0.890625 0.527344,0.597657 0.785157,1.382813 0.785157,2.378907 0,0.996093 -0.257813,1.78125 -0.785157,2.378906 C 59.188672,16.385312 58.497266,16.69 57.606641,16.69 c -0.890625,0 -1.59375,-0.304688 -2.121094,-0.890625 -0.539063,-0.585938 -0.796875,-1.382813 -0.796875,-2.378906 0,-0.996094 0.257812,-1.78125 0.796875,-2.378907 0.527344,-0.585937 1.230469,-0.890625 2.121094,-0.890625 z m 4.959961,5.707032 v 2.507812 h -0.785157 v -6.515625 h 0.785157 V 12.565 c 0.164062,-0.292969 0.363281,-0.492188 0.621093,-0.632813 0.246094,-0.140625 0.539063,-0.210937 0.890625,-0.210937 0.574219,0 1.042969,0.234375 1.394532,0.691406 0.363281,0.457031 0.539062,1.054688 0.539062,1.804688 0,0.726562 -0.175781,1.335937 -0.539062,1.792968 C 65.121289,16.455625 64.652539,16.69 64.07832,16.69 c -0.351562,0 -0.644531,-0.07031 -0.890625,-0.210938 -0.257812,-0.128906 -0.457031,-0.339843 -0.621093,-0.621093 z m 2.636718,-1.640625 c 0,-0.585938 -0.105468,-1.019532 -0.339843,-1.347657 -0.246094,-0.328125 -0.5625,-0.492187 -0.984375,-0.492187 -0.398438,0 -0.714844,0.164062 -0.960938,0.492187 -0.234375,0.328125 -0.351562,0.761719 -0.351562,1.347657 0,0.5625 0.117187,1.007812 0.351562,1.335937 0.246094,0.328125 0.5625,0.480469 0.960938,0.480469 0.421875,0 0.738281,-0.152344 0.984375,-0.480469 0.234375,-0.328125 0.339843,-0.773437 0.339843,-1.335937 z m 6.131836,-0.199219 v 0.375 h -3.574219 c 0.03516,0.527344 0.199219,0.9375 0.480469,1.21875 0.292969,0.28125 0.691406,0.410156 1.21875,0.410156 0.292969,0 0.585938,-0.03516 0.855469,-0.105469 0.28125,-0.07031 0.5625,-0.175781 0.84375,-0.328125 v 0.738282 c -0.292969,0.117187 -0.574219,0.210937 -0.867188,0.269531 -0.28125,0.05859 -0.585937,0.09375 -0.890625,0.09375 -0.75,0 -1.347656,-0.222656 -1.78125,-0.667969 -0.445312,-0.433594 -0.65625,-1.019531 -0.65625,-1.78125 0,-0.761719 0.199219,-1.371094 0.621094,-1.828125 0.421875,-0.457031 0.984375,-0.691406 1.6875,-0.691406 0.632813,0 1.136719,0.210937 1.5,0.621094 0.375,0.410156 0.5625,0.960937 0.5625,1.675781 z M 70.561719,13.78375 C 70.55,13.361875 70.432812,13.022031 70.198437,12.764219 c -0.222656,-0.257813 -0.539062,-0.375 -0.914062,-0.375 -0.433594,0 -0.785156,0.117187 -1.042969,0.363281 -0.257812,0.246094 -0.410156,0.585937 -0.457031,1.03125 z m 4.760742,-1.207031 c -0.08203,-0.05859 -0.1875,-0.105469 -0.28125,-0.117188 -0.105469,-0.02344 -0.222656,-0.03516 -0.351563,-0.03516 -0.433593,0 -0.761718,0.140625 -1.007812,0.421875 -0.234375,0.28125 -0.351563,0.703125 -0.351563,1.230469 v 2.484375 h -0.785156 v -4.710938 h 0.785156 v 0.726563 c 0.164063,-0.292969 0.375,-0.503907 0.632813,-0.632813 0.269531,-0.152344 0.585937,-0.222656 0.960937,-0.222656 0.04687,0 0.117188,0.01172 0.175782,0.02344 0.07031,0 0.140625,0.01172 0.210937,0.02344 z m 2.953125,1.617187 c -0.621094,0 -1.066406,0.07031 -1.300781,0.210938 -0.246094,0.140625 -0.363282,0.386718 -0.363282,0.726562 0,0.28125 0.09375,0.503906 0.269532,0.65625 0.1875,0.164063 0.433593,0.246094 0.75,0.246094 0.421875,0 0.761718,-0.140625 1.019531,-0.457031 0.269531,-0.304688 0.398437,-0.703125 0.398437,-1.207032 v -0.175781 z m 1.546875,-0.328125 v 2.695313 H 79.049023 V 15.84625 c -0.175781,0.292969 -0.398437,0.503906 -0.65625,0.632812 C 78.123242,16.619687 77.806836,16.69 77.420117,16.69 c -0.480469,0 -0.867187,-0.140625 -1.160156,-0.410156 -0.28125,-0.269532 -0.421875,-0.632813 -0.421875,-1.089844 0,-0.527344 0.175781,-0.9375 0.527344,-1.207031 0.363281,-0.257813 0.890625,-0.398438 1.605468,-0.398438 h 1.078125 V 13.5025 c 0,-0.351563 -0.117187,-0.632813 -0.351562,-0.820313 -0.234375,-0.199218 -0.5625,-0.292968 -0.996094,-0.292968 -0.257812,0 -0.527344,0.02344 -0.785156,0.09375 -0.257813,0.05859 -0.492188,0.164062 -0.726563,0.292968 v -0.714843 c 0.269532,-0.117188 0.550782,-0.199219 0.820313,-0.246094 0.269531,-0.05859 0.527344,-0.09375 0.785156,-0.09375 0.679688,0 1.183594,0.1875 1.523438,0.539062 0.339843,0.351563 0.503906,0.890625 0.503906,1.605469 z M 82.192578,10.5025 v 1.347656 h 1.59375 v 0.585938 h -1.59375 V 15.0025 c 0,0.398437 0.04687,0.644531 0.152344,0.75 0.105469,0.105469 0.316406,0.164062 0.644531,0.164062 h 0.796875 v 0.644532 h -0.796875 c -0.597656,0 -1.019531,-0.105469 -1.242187,-0.328125 -0.234375,-0.222657 -0.339844,-0.632813 -0.339844,-1.230469 v -2.566406 h -0.574219 v -0.585938 h 0.574219 V 10.5025 Z m 4.453125,1.886719 c -0.433594,0 -0.761719,0.152343 -0.996094,0.480468 -0.246093,0.328125 -0.363281,0.773438 -0.363281,1.347657 0,0.550781 0.117188,0.996093 0.363281,1.324218 0.234375,0.328125 0.5625,0.480469 0.996094,0.480469 0.410156,0 0.726563,-0.152344 0.972656,-0.480469 0.234375,-0.328125 0.363282,-0.773437 0.363282,-1.324218 0,-0.5625 -0.128907,-1.019532 -0.363282,-1.347657 -0.246093,-0.316406 -0.5625,-0.480468 -0.972656,-0.480468 z m 0,-0.667969 c 0.667969,0 1.195313,0.222656 1.582031,0.667969 0.386719,0.433593 0.585938,1.042968 0.585938,1.828125 0,0.761718 -0.199219,1.371093 -0.585938,1.804687 C 87.841016,16.467344 87.313672,16.69 86.645703,16.69 c -0.691406,0 -1.21875,-0.222656 -1.605469,-0.667969 -0.375,-0.433594 -0.5625,-1.042969 -0.5625,-1.804687 0,-0.785157 0.1875,-1.394532 0.5625,-1.828125 0.386719,-0.445313 0.914063,-0.667969 1.605469,-0.667969 z m 6.181641,0.855469 c -0.08203,-0.05859 -0.1875,-0.105469 -0.28125,-0.117188 -0.105469,-0.02344 -0.222657,-0.03516 -0.351563,-0.03516 -0.433594,0 -0.761719,0.140625 -1.007812,0.421875 -0.234375,0.28125 -0.351563,0.703125 -0.351563,1.230469 V 16.56109 H 90.05 v -4.710938 h 0.785156 v 0.726563 c 0.164063,-0.292969 0.375,-0.503907 0.632813,-0.632813 0.269531,-0.152344 0.585937,-0.222656 0.960937,-0.222656 0.04687,0 0.117188,0.01172 0.175781,0.02344 0.07031,0 0.140625,0.01172 0.210938,0.02344 z m 0.914062,2.917968 h 0.890625 v 1.066407 h -0.890625 z m 0,0"
       style="fill:#000000;fill-opacity:1;fill-rule:nonzero;stroke:none"
       aria-label="ZeroMomentumInsertionisanoptionofFeynRule,Twist2GluonOperatorand&#10;Twist2QuarkOperator."
       transform="matrix(1.3333333,0,0,1.3333333,10.933333,42.809167)" />
    <path
       id="path9"
       d="m 8.922,63.879 2.156,1.922 2.16,-1.922"
       style="fill:none;stroke:#636363;stroke-width:1.26;stroke-linecap:square;stroke-linejoin:miter;stroke-miterlimit:3.25;stroke-dasharray:none;stroke-opacity:1"
       transform="scale(1.3333333)" />
    <path
       id="path10"
       d="m 1,13.891 h 350.145 v 0.145 H 1 Z"
       style="fill:#cccccc;fill-opacity:1;fill-rule:nonzero;stroke:none"
       transform="scale(1.3333333)" />
    <path
       id="path11"
       d="m 1,58.777 h 350.145 v 0.145 H 1 Z"
       style="fill:#cccccc;fill-opacity:1;fill-rule:nonzero;stroke:none"
       transform="scale(1.3333333)" />
    <path
       id="path12"
       d="M 4.102,1.5 C 3.145,1.5 2.23,1.879 1.555,2.555 0.879,3.23 0.5,4.145 0.5,5.102 v 62.796 c 0,0.957 0.379,1.872 1.055,2.547 0.675,0.676 1.59,1.055 2.547,1.055 h 344.796 c 0.957,0 1.872,-0.379 2.547,-1.055 0.676,-0.675 1.055,-1.59 1.055,-2.547 V 5.102 C 352.5,4.145 352.121,3.23 351.445,2.555 350.77,1.879 349.855,1.5 348.898,1.5 Z"
       style="fill:none;stroke:#d9d9d9;stroke-width:1;stroke-linecap:square;stroke-linejoin:miter;stroke-miterlimit:10;stroke-dasharray:none;stroke-opacity:1"
       transform="scale(1.3333333)" />
  </g>
</svg>
