<?xml version="1.0" encoding="UTF-8" standalone="no"?>
<!-- Created with Inkscape (http://www.inkscape.org/) -->

<svg
   version="1.1"
   id="svg2"
   xml:space="preserve"
   width="470.66666"
   height="97.333336"
   viewBox="0 0 470.66666 97.333336"
   sodipodi:docname="1cklte43ogg8m.pdf"
   xmlns:inkscape="http://www.inkscape.org/namespaces/inkscape"
   xmlns:sodipodi="http://sodipodi.sourceforge.net/DTD/sodipodi-0.dtd"
   xmlns="http://www.w3.org/2000/svg"
   xmlns:svg="http://www.w3.org/2000/svg"><defs
     id="defs6"><clipPath
       clipPathUnits="userSpaceOnUse"
       id="clipPath40"><path
         d="m 8,62.16 h 6.641 V 67 H 8 Z"
         id="path38" /></clipPath></defs><sodipodi:namedview
     id="namedview4"
     pagecolor="#505050"
     bordercolor="#eeeeee"
     borderopacity="1"
     inkscape:pageshadow="0"
     inkscape:pageopacity="0"
     inkscape:pagecheckerboard="0" /><g
     id="g8"
     inkscape:groupmode="layer"
     inkscape:label="1cklte43ogg8m"
     transform="matrix(1.3333333,0,0,1.3333333,0,2.1e-6)"><g
       id="g10"><path
         d="M 4.32,0.84 C 3.102,0.84 1.93,1.324 1.066,2.188 0.203,3.051 -0.281,4.219 -0.281,5.441 v 61.797 c 0,1.223 0.484,2.391 1.347,3.254 0.864,0.863 2.036,1.348 3.254,1.348 h 343.801 c 1.219,0 2.391,-0.485 3.25,-1.348 0.863,-0.863 1.348,-2.031 1.348,-3.254 V 5.441 c 0,-1.222 -0.485,-2.39 -1.348,-3.253 -0.859,-0.864 -2.031,-1.348 -3.25,-1.348 z"
         style="fill:#ffffff;fill-opacity:1;fill-rule:evenodd;stroke:none"
         id="path12" /><path
         d="M 1,2.02 H 349.273 V 13.891 H 1 Z"
         style="fill:#f8f8f8;fill-opacity:1;fill-rule:nonzero;stroke:none"
         id="path14" /><path
         d="m 349.273,2.02 h 1.871 v 11.871 h -1.871 z"
         style="fill:#f8f8f8;fill-opacity:1;fill-rule:nonzero;stroke:none"
         id="path16" /><path
         d="M 1,14.035 H 349.273 V 58.777 H 1 Z"
         style="fill:#f3fbff;fill-opacity:1;fill-rule:nonzero;stroke:none"
         id="path18" /><path
         d="m 349.273,14.035 h 1.871 v 44.742 h -1.871 z"
         style="fill:#f3fbff;fill-opacity:1;fill-rule:nonzero;stroke:none"
         id="path20" /><path
         d="M 1,58.922 H 351.145 V 70.793 L 1,70.793 Z"
         style="fill:#f8f8f8;fill-opacity:1;fill-rule:nonzero;stroke:none"
         id="path22" /><text
         transform="translate(5.93875,9.843875)"
         style="font-variant:normal;font-size:6.48px;font-family:CairoFont-0;-inkscape-font-specification:CairoFont-0-0;writing-mode:lr-tb;fill:#777777;fill-opacity:1;fill-rule:nonzero;stroke:none"
         id="text26"><tspan
           x="0 4.1083202 7.9380002 14.24952 18.35784 22.31712"
           y="0"
           sodipodi:role="line"
           id="tspan24">Symbol</tspan></text><text
         transform="translate(8.2,32.106875)"
         style="font-variant:normal;font-size:8.64px;font-family:CairoFont-0;-inkscape-font-specification:CairoFont-0-0;writing-mode:lr-tb;fill:#000000;fill-opacity:1;fill-rule:nonzero;stroke:none"
         id="text32"><tspan
           x="0 5.9183998 11.232 14.78304 20.06208 27.50976 32.788799 41.204159 46.517761 51.986881 55.37376 60.84288 69.25824 71.772476 77.2416 81.734398 87.047997 90.599037 93.985924 96.379204 101.65824 109.86624 112.25952 119.4912 124.77888 132.99551 138.27457 143.75232 147.13921 149.53249 154.81152 163.01088 168.28992 174.24287 179.21088 184.52448 189.63072 195.09984 201.09599 206.56512 208.9584 214.272 219.74112 225.01152 232.0704 234.46368 238.95648 242.34335 247.83839 254.52576 256.91904 262.38815 267.66721 273.13632 279.936 285.41376 290.70145 294.25247 299.54016 302.92703 308.20609 314.496 319.78369 325.25281"
           y="0"
           sodipodi:role="line"
           id="tspan28">ZeroMomentumInsertionisanoptionofFeynRule,Twist2GluonOperatorand</tspan><tspan
           x="0 5.2704 12.32928 14.72256 19.215361 22.60224 28.097281 34.896961 40.366081 45.653759 49.2048 54.207359 61.007038 66.484802 71.772476 75.323517 80.611198 83.998077 89.277122 92.828163"
           y="16.560003"
           sodipodi:role="line"
           id="tspan30">Twist2QuarkOperator.</tspan></text></g><g
       id="g34"><g
         id="g36"
         clip-path="url(#clipPath40)"><path
           d="m 8.922,63.879 2.156,1.922 2.16,-1.922"
           style="fill:none;stroke:#636363;stroke-width:1.26;stroke-linecap:square;stroke-linejoin:miter;stroke-miterlimit:3.25;stroke-dasharray:none;stroke-opacity:1"
           id="path42" /></g></g><g
       id="g44"><path
         d="m 1,13.891 h 350.145 v 0.145 H 1 Z"
         style="fill:#cccccc;fill-opacity:1;fill-rule:nonzero;stroke:none"
         id="path46" /><path
         d="m 1,58.777 h 350.145 v 0.145 H 1 Z"
         style="fill:#cccccc;fill-opacity:1;fill-rule:nonzero;stroke:none"
         id="path48" /><path
         d="M 4.102,1.5 C 3.145,1.5 2.23,1.879 1.555,2.555 0.879,3.23 0.5,4.145 0.5,5.102 v 62.796 c 0,0.957 0.379,1.872 1.055,2.547 0.675,0.676 1.59,1.055 2.547,1.055 h 344.796 c 0.957,0 1.872,-0.379 2.547,-1.055 0.676,-0.675 1.055,-1.59 1.055,-2.547 V 5.102 C 352.5,4.145 352.121,3.23 351.445,2.555 350.77,1.879 349.855,1.5 348.898,1.5 Z"
         style="fill:none;stroke:#d9d9d9;stroke-width:1;stroke-linecap:square;stroke-linejoin:miter;stroke-miterlimit:10;stroke-dasharray:none;stroke-opacity:1"
         id="path50" /></g></g></svg>
