<?xml version="1.0" encoding="UTF-8" standalone="no"?>
<!-- Created with Inkscape (http://www.inkscape.org/) -->

<svg
   version="1.1"
   id="svg2"
   xml:space="preserve"
   width="596"
   height="46.666668"
   viewBox="0 0 596 46.666668"
   sodipodi:docname="1f51tljs4rv5c.pdf"
   xmlns:inkscape="http://www.inkscape.org/namespaces/inkscape"
   xmlns:sodipodi="http://sodipodi.sourceforge.net/DTD/sodipodi-0.dtd"
   xmlns="http://www.w3.org/2000/svg"
   xmlns:svg="http://www.w3.org/2000/svg"><defs
     id="defs6" /><sodipodi:namedview
     id="namedview4"
     pagecolor="#505050"
     bordercolor="#eeeeee"
     borderopacity="1"
     inkscape:pageshadow="0"
     inkscape:pageopacity="0"
     inkscape:pagecheckerboard="0" /><g
     id="g8"
     inkscape:groupmode="layer"
     inkscape:label="1f51tljs4rv5c"
     transform="matrix(1.3333333,0,0,1.3333333,0,1.5e-6)"><g
       id="g10"><text
         transform="translate(1.509982,7.44)"
         style="font-variant:normal;font-size:7.92px;font-family:CairoFont-0;-inkscape-font-specification:CairoFont-0-0;writing-mode:lr-tb;fill:#dd1100;fill-opacity:1;fill-rule:nonzero;stroke:none"
         id="text14"><tspan
           x="0 4.5539999 10.08216 14.4936 19.33272 24.171841 29.193119 31.521601 36.534962 39.639599 44.510399 49.507919 52.763039 57.610081 59.803921 64.635117 69.474243 75.604317 78.859444 83.706482 88.72776"
           y="0"
           sodipodi:role="line"
           id="tspan12">FCLoopIntegralToGraph</tspan></text><text
         transform="translate(96.058733,7.44)"
         style="font-variant:normal;font-size:7.92px;font-family:CairoFont-0;-inkscape-font-specification:CairoFont-0-0;writing-mode:lr-tb;fill:#000000;fill-opacity:1;fill-rule:nonzero;stroke:none"
         id="text18"><tspan
           x="0"
           y="0"
           id="tspan16">:</tspan></text><text
         transform="translate(102.23497,7.44)"
         style="font-variant:normal;font-size:7.92px;font-family:CairoFont-0;-inkscape-font-specification:CairoFont-0-0;writing-mode:lr-tb;fill:#898989;fill-opacity:1;fill-rule:nonzero;stroke:none"
         id="text22"><tspan
           x="0 4.99752 8.2526398 11.50776 16.34688"
           y="0"
           sodipodi:role="line"
           id="tspan20">Error</tspan></text><text
         transform="translate(121.83697,7.44)"
         style="font-variant:normal;font-size:7.92px;font-family:CairoFont-1;-inkscape-font-specification:CairoFont-1-0;writing-mode:lr-tb;fill:#898989;fill-opacity:1;fill-rule:nonzero;stroke:none"
         id="text26"><tspan
           x="0"
           y="0"
           id="tspan24">!</tspan></text><text
         transform="translate(126.54145,7.44)"
         style="font-variant:normal;font-size:7.92px;font-family:CairoFont-0;-inkscape-font-specification:CairoFont-0-0;writing-mode:lr-tb;fill:#898989;fill-opacity:1;fill-rule:nonzero;stroke:none"
         id="text34"><tspan
           x="0 4.5539999 10.08216 14.4936 19.33272 24.171841 29.193119 31.521601 36.5112 39.615841 44.486641 49.507919 52.763039 57.610081 59.803921 64.635117 69.474243 75.604317 78.859444 83.706482 88.72776 96.243843 101.11464 106.128 110.47608 115.3152 120.32856 125.34192 128.44656 133.31737 136.57248 141.44328 148.96729 156.32497 159.11279 163.95984 167.06448 171.91151 176.616 181.63728 184.8924 189.73152 194.75281 196.94664 201.81744 212.03424 216.88129 221.89464 229.42656 237.14064 242.15401 246.2724 251.88768 256.73471 261.75601 266.59512 269.85025 275.46552 278.57016 283.58353"
           y="0"
           sodipodi:role="line"
           id="tspan28">FCLoopIntegralToGraphencounteredafatalproblemandmustabortthe</tspan><tspan
           x="-101.90019 -97.552116 -92.71299 -84.998917 -79.977631 -74.964272 -71.859634 -67.012596 -63.907951 -61.714111 -56.874992 -51.861633 -46.848274 -42.017075 -37.003712 -29.622272 -24.600992 -21.345873 -16.506754 -11.485473 -9.2916327 -4.4208331 5.7959671 9.0510864 13.921886 18.768927 23.790207 27.908607 33.080368 37.634365 42.481407 44.675247 46.869087 51.739887 59.263885 62.368526 69.718285 72.973404 77.844208 82.192284 87.03141 92.044769 96.16317 99.267807 102.52293 107.53629 111.88437 117.49965 120.60429 125.61765 132.99908 138.02037 141.27548 146.12253 151.14381 158.65988 163.49901 168.95589 172.06053 177.07388 184.45532 189.47661 191.67044 196.35117 201.22197 208.74597 210.9398 215.77893 220.61804 228.14204 230.33589 235.34924 238.45389 243.32469 248.34596 251.60109 256.44812 258.64197 263.65533 265.9838 271.44067 274.54532 279.55869 286.94012 289.13397 294.14734 297.25195 302.12277 307.14404 310.39917 315.24622"
           y="11.8"
           sodipodi:role="line"
           id="tspan30">computation.Theproblemreads:Failedtoreconstructthegraphofthegivenloopintegral.Iftheintegral</tspan><tspan
           x="-85.472694 -82.684853 -77.837814 -73.489738 -70.385094 -65.545975 -62.290855 -60.097015 -55.946934 -51.076134 -46.957737 -41.944374 -38.839737 -35.584614 -28.393255 -26.199415 -21.186056 -16.837975 -13.582855 -8.7120552 -3.8650155 0.25338456 2.4472246 7.4605846 14.976665 20.393944 25.264744 28.519865 31.624504 36.495304 41.176025 47.274426 52.145226 57.166504 60.421623 65.292427"
           y="23.6"
           sodipodi:role="line"
           id="tspan32">factorizes,tryincreasingVertexDegree</tspan></text></g></g></svg>
