<?xml version="1.0" encoding="UTF-8" standalone="no"?>
<!-- Created with Inkscape (http://www.inkscape.org/) -->

<svg
   version="1.1"
   id="svg2"
   xml:space="preserve"
   width="605.33331"
   height="93.333336"
   viewBox="0 0 605.33331 93.333336"
   sodipodi:docname="1h0chl63b60ya.pdf"
   xmlns:inkscape="http://www.inkscape.org/namespaces/inkscape"
   xmlns:sodipodi="http://sodipodi.sourceforge.net/DTD/sodipodi-0.dtd"
   xmlns="http://www.w3.org/2000/svg"
   xmlns:svg="http://www.w3.org/2000/svg"><defs
     id="defs6" /><sodipodi:namedview
     id="namedview4"
     pagecolor="#505050"
     bordercolor="#eeeeee"
     borderopacity="1"
     inkscape:pageshadow="0"
     inkscape:pageopacity="0"
     inkscape:pagecheckerboard="0" /><g
     id="g8"
     inkscape:groupmode="layer"
     inkscape:label="1h0chl63b60ya"
     transform="matrix(1.3333333,0,0,1.3333333,0,2e-6)"><g
       id="g10"><text
         transform="translate(1.509982,7.44)"
         style="font-variant:normal;font-size:7.92px;font-family:CairoFont-0;-inkscape-font-specification:CairoFont-0-0;writing-mode:lr-tb;fill:#dd1100;fill-opacity:1;fill-rule:nonzero;stroke:none"
         id="text14"><tspan
           x="0 6.0984001 8.2922401 11.54736 16.3944 20.742479 25.573681 28.8288 33.675838 38.023918"
           y="0"
           sodipodi:role="line"
           id="tspan12">DiracTrace</tspan></text><text
         transform="translate(45.156232,7.44)"
         style="font-variant:normal;font-size:7.92px;font-family:CairoFont-0;-inkscape-font-specification:CairoFont-0-0;writing-mode:lr-tb;fill:#000000;fill-opacity:1;fill-rule:nonzero;stroke:none"
         id="text18"><tspan
           x="0"
           y="0"
           id="tspan16">:</tspan></text><text
         transform="translate(51.332465,7.44)"
         style="font-variant:normal;font-size:7.92px;font-family:CairoFont-0;-inkscape-font-specification:CairoFont-0-0;writing-mode:lr-tb;fill:#898989;fill-opacity:1;fill-rule:nonzero;stroke:none"
         id="text22"><tspan
           x="0 4.99752 9.6782398 14.69952 17.954639 22.825439 26.94384 31.062241 33.256081 38.0952 43.108559 49.72176 52.826401 57.83976 62.686798 68.309998 76.024078 78.217918 85.40136"
           y="0"
           sodipodi:role="line"
           id="tspan20">ExpressionsthatmixD</tspan></text><text
         transform="translate(142.83222,7.44)"
         style="font-variant:normal;font-size:7.92px;font-family:CairoFont-1;-inkscape-font-specification:CairoFont-1-0;writing-mode:lr-tb;fill:#898989;fill-opacity:1;fill-rule:nonzero;stroke:none"
         id="text26"><tspan
           x="0"
           y="0"
           id="tspan24">-</tspan></text><text
         transform="translate(147.44958,7.44)"
         style="font-variant:normal;font-size:7.92px;font-family:CairoFont-0;-inkscape-font-specification:CairoFont-0-0;writing-mode:lr-tb;fill:#898989;fill-opacity:1;fill-rule:nonzero;stroke:none"
         id="text30"><tspan
           x="0 5.0292001"
           y="0"
           sodipodi:role="line"
           id="tspan28">,4</tspan></text><text
         transform="translate(157.5159,7.44)"
         style="font-variant:normal;font-size:7.92px;font-family:CairoFont-1;-inkscape-font-specification:CairoFont-1-0;writing-mode:lr-tb;fill:#898989;fill-opacity:1;fill-rule:nonzero;stroke:none"
         id="text34"><tspan
           x="0"
           y="0"
           id="tspan32">-</tspan></text><text
         transform="translate(164.6439,7.44)"
         style="font-variant:normal;font-size:7.92px;font-family:CairoFont-0;-inkscape-font-specification:CairoFont-0-0;writing-mode:lr-tb;fill:#898989;fill-opacity:1;fill-rule:nonzero;stroke:none"
         id="text38"><tspan
           x="0 4.8470402 9.8604002 17.392321"
           y="0"
           sodipodi:role="line"
           id="tspan36">andD</tspan></text><text
         transform="translate(188.13462,7.44)"
         style="font-variant:normal;font-size:7.92px;font-family:CairoFont-1;-inkscape-font-specification:CairoFont-1-0;writing-mode:lr-tb;fill:#898989;fill-opacity:1;fill-rule:nonzero;stroke:none"
         id="text42"><tspan
           x="0"
           y="0"
           id="tspan40">-</tspan></text><text
         transform="translate(192.75198,7.44)"
         style="font-variant:normal;font-size:7.92px;font-family:CairoFont-0;-inkscape-font-specification:CairoFont-0-0;writing-mode:lr-tb;fill:#898989;fill-opacity:1;fill-rule:nonzero;stroke:none"
         id="text46"><tspan
           x="0"
           y="0"
           id="tspan44">4</tspan></text><text
         transform="translate(197.7891,7.44)"
         style="font-variant:normal;font-size:7.92px;font-family:CairoFont-1;-inkscape-font-specification:CairoFont-1-0;writing-mode:lr-tb;fill:#898989;fill-opacity:1;fill-rule:nonzero;stroke:none"
         id="text50"><tspan
           x="0"
           y="0"
           id="tspan48">-</tspan></text><text
         transform="translate(202.40646,7.44)"
         style="font-variant:normal;font-size:7.92px;font-family:CairoFont-0;-inkscape-font-specification:CairoFont-0-0;writing-mode:lr-tb;fill:#898989;fill-opacity:1;fill-rule:nonzero;stroke:none"
         id="text56"><tspan
           x="0 5.0212798 7.2151198 14.9292 19.799999 24.81336 28.908001 31.101839 35.94096 40.954319 45.801361 50.50584 55.527119 60.540482 65.38752 70.400879 73.505524 75.699364 78.804001 80.997841 85.868637 92.489761 97.3368 100.59192 107.97336 110.7612 115.60032 118.85544 123.87672 126.07056 131.09184 136.11311 140.98392 148.49208 150.68591 158.20992 164.30832 166.50217 169.75728 174.60432 181.46304 189.17712 194.02415 197.1288 200.38393 202.57776 209.76912 214.1172 219.13055 223.9776 226.17143 231.1848"
           y="0"
           sodipodi:role="line"
           id="tspan52">dimensionalquantitiesareforbiddeninDiracmatrixchains</tspan><tspan
           x="-177.76521 -172.75186 -167.73849 -165.54466 -160.67386 -156.55545 -149.93434 -145.25362 -140.41449 -132.8905 -128.04346 -124.78834 -117.39898 -112.38561 -108.26722 -106.07338 -101.06001 -93.536018 -90.431374 -85.418015 -78.036575 -74.931938 -72.761856 -66.813934 -61.974815 -57.135696 -54.347855"
           y="11.8"
           sodipodi:role="line"
           id="tspan54">unlessyouareusingthet'Hooft</tspan></text><text
         transform="translate(151.16325,19.24)"
         style="font-variant:normal;font-size:7.92px;font-family:CairoFont-1;-inkscape-font-specification:CairoFont-1-0;writing-mode:lr-tb;fill:#898989;fill-opacity:1;fill-rule:nonzero;stroke:none"
         id="text60"><tspan
           x="0"
           y="0"
           id="tspan58">-</tspan></text><text
         transform="translate(155.78061,19.24)"
         style="font-variant:normal;font-size:7.92px;font-family:CairoFont-0;-inkscape-font-specification:CairoFont-0-0;writing-mode:lr-tb;fill:#898989;fill-opacity:1;fill-rule:nonzero;stroke:none"
         id="text66"><tspan
           x="0 5.4172802 10.28808 12.48192 15.58656 23.30064 28.14768 35.655842 39.774239 44.122318 49.135681 54.006481 61.720558 66.591362 71.61264 76.166641 81.00576 86.771523 91.642319 96.323036 101.19384 104.44896 111.6324 116.47152 119.57616 124.58952 129.46033 135.22607 139.34448 143.69257 148.70592 153.57672 161.2908 166.16161 171.18288 176.20416 178.39799 183.2688 188.11584 192.23424 199.60776 202.86288 207.73367 212.08176 217.09512 221.96593 226.314 233.41032 238.09103 242.93016 247.94353 253.70927 255.90312 260.91647 265.93777 270.95111"
           y="0"
           sodipodi:role="line"
           id="tspan62">Veltmanscheme.Foreveryotherscheme,pleaserecheckyourinput</tspan><tspan
           x="-131.13936 -126.26856 -121.58784 -116.56656 -113.31144 -108.44064 -104.32224 -100.20384 -98.010002 -93.170883 -88.157516 -81.544319 -76.697281 -71.683922 -64.152 -59.2812 -54.267841 -50.149441 -45.136082 -41.880959 -34.499519 -31.39488 -26.381519 -21.534479 -15.9192 -11.07216 -8.8783197 -4.17384 3.54024 8.3872805 11.49192 14.74704 16.94088 21.28896 26.15976 30.27816 35.291519 39.40992 44.431198 46.625038 51.638401 56.47752 59.732639 66.35376 71.200798 76.214157 83.753998 86.858643 91.729439 96.742798 100.8612 105.70032 108.95544 115.57656 120.4236 123.67872 131.06017 136.08144 141.0948 144.34991 149.22072 151.41457 158.60593"
           y="11.8"
           sodipodi:role="line"
           id="tspan64">expressionsandensurethatallmatrices,spinorsandtensorsarepurelyD</tspan></text><text
         transform="translate(320.48493,31.04)"
         style="font-variant:normal;font-size:7.92px;font-family:CairoFont-1;-inkscape-font-specification:CairoFont-1-0;writing-mode:lr-tb;fill:#898989;fill-opacity:1;fill-rule:nonzero;stroke:none"
         id="text70"><tspan
           x="0"
           y="0"
           id="tspan68">-</tspan></text><text
         transform="translate(325.10229,31.04)"
         style="font-variant:normal;font-size:7.92px;font-family:CairoFont-0;-inkscape-font-specification:CairoFont-0-0;writing-mode:lr-tb;fill:#898989;fill-opacity:1;fill-rule:nonzero;stroke:none"
         id="text76"><tspan
           x="0 5.0212798 7.2151198 14.9292 19.799999 24.81336 28.931761 31.101839 35.94096 40.954319 45.801361 47.995201 53.016479 57.847679 62.686798 70.2108 77.924881 80.118721 85.139999 90.153358 95.768639 102.23928 107.08632 112.09968 117.71496 120.8196"
           y="0"
           sodipodi:role="line"
           id="tspan72">dimensional.Youmightwantto</tspan><tspan
           x="-300.46103 -295.44769 -291.32928 -283.94785 -279.39383 -273.86569 -267.7356 -262.86481 -259.76016 -253.66176 -251.46793 -243.75385 -238.88304 -233.86967 -229.75128 -227.58121 -222.74208 -217.72871"
           y="11.8"
           sodipodi:role="line"
           id="tspan74">useFCGetDimensions</tspan></text><text
         transform="translate(111.49197,42.84)"
         style="font-variant:normal;font-size:7.92px;font-family:CairoFont-1;-inkscape-font-specification:CairoFont-1-0;writing-mode:lr-tb;fill:#898989;fill-opacity:1;fill-rule:nonzero;stroke:none"
         id="text80"><tspan
           x="0"
           y="0"
           id="tspan78">[</tspan></text><text
         transform="translate(113.68581,42.84)"
         style="font-variant:normal;font-size:7.92px;font-family:CairoFont-0;-inkscape-font-specification:CairoFont-0-0;writing-mode:lr-tb;fill:#898989;fill-opacity:1;fill-rule:nonzero;stroke:none"
         id="text84"><tspan
           x="0 4.8708 9.5515203"
           y="0"
           sodipodi:role="line"
           id="tspan82">exp</tspan></text><text
         transform="translate(128.25861,42.84)"
         style="font-variant:normal;font-size:7.92px;font-family:CairoFont-1;-inkscape-font-specification:CairoFont-1-0;writing-mode:lr-tb;fill:#898989;fill-opacity:1;fill-rule:nonzero;stroke:none"
         id="text88"><tspan
           x="0"
           y="0"
           id="tspan86">]</tspan></text><text
         transform="translate(132.95517,42.84)"
         style="font-variant:normal;font-size:7.92px;font-family:CairoFont-0;-inkscape-font-specification:CairoFont-0-0;writing-mode:lr-tb;fill:#898989;fill-opacity:1;fill-rule:nonzero;stroke:none"
         id="text94"><tspan
           x="0 3.10464 10.4544 13.24224 15.43608 20.44944 27.981359 31.086 36.099361 43.480801 48.31992 51.107761 53.895599 58.766399 63.779758 68.801041 70.994881 76.00824 83.532242 86.636879 91.507683 94.762802 102.47688 109.10592 113.95296 118.96632 126.49824 129.28609 131.47992 138.66336 141.76801 146.78136 151.65216 161.87688 166.89816 174.08952 179.10287 183.94992 188.96329 196.49519 201.33432 207.108 211.97881 219.69289 224.71416 226.908 231.74712"
           y="0"
           sodipodi:role="line"
           id="tspan90">tofindtheoffendingtermsandfixthembyhandoremploy</tspan><tspan
           x="-108.31392 -102.78576 -97.7724 -92.925362 -87.912003 -82.890717 -78.01992 -71.921516 -69.727676 -62.013599 -57.142799 -52.153198 -48.034801 -45.840961 -41.001839"
           y="11.8"
           sodipodi:role="line"
           id="tspan92">ChangeDimension</tspan></text><text
         transform="translate(96.966689,54.64)"
         style="font-variant:normal;font-size:7.92px;font-family:CairoFont-1;-inkscape-font-specification:CairoFont-1-0;writing-mode:lr-tb;fill:#898989;fill-opacity:1;fill-rule:nonzero;stroke:none"
         id="text98"><tspan
           x="0"
           y="0"
           id="tspan96">[</tspan></text><text
         transform="translate(99.160529,54.64)"
         style="font-variant:normal;font-size:7.92px;font-family:CairoFont-0;-inkscape-font-specification:CairoFont-0-0;writing-mode:lr-tb;fill:#898989;fill-opacity:1;fill-rule:nonzero;stroke:none"
         id="text102"><tspan
           x="0 4.8708 9.5515203 14.5728 17.083441"
           y="0"
           sodipodi:role="line"
           id="tspan100">exp,D</tspan></text><text
         transform="translate(122.34237,54.64)"
         style="font-variant:normal;font-size:7.92px;font-family:CairoFont-1;-inkscape-font-specification:CairoFont-1-0;writing-mode:lr-tb;fill:#898989;fill-opacity:1;fill-rule:nonzero;stroke:none"
         id="text106"><tspan
           x="0"
           y="0"
           id="tspan104">]</tspan></text><text
         transform="translate(127.03101,54.64)"
         style="font-variant:normal;font-size:7.92px;font-family:CairoFont-0;-inkscape-font-specification:CairoFont-0-0;writing-mode:lr-tb;fill:#898989;fill-opacity:1;fill-rule:nonzero;stroke:none"
         id="text110"><tspan
           x="0 3.10464 10.46232 14.8104 19.649521 24.66288 29.343599 34.214401 37.469521 43.076881 46.181519 51.194881 58.58424 65.054878 70.068237 74.907356 77.101196 84.474716 89.34552 94.026237 99.047523 102.30264 107.17344 111.29184 115.41024 117.60408 122.4432 129.95927 133.06392 140.41368"
           y="0"
           sodipodi:role="line"
           id="tspan108">toconvertthewholeexpressiontoD</tspan></text><text
         transform="translate(273.54309,54.64)"
         style="font-variant:normal;font-size:7.92px;font-family:CairoFont-1;-inkscape-font-specification:CairoFont-1-0;writing-mode:lr-tb;fill:#898989;fill-opacity:1;fill-rule:nonzero;stroke:none"
         id="text114"><tspan
           x="0"
           y="0"
           id="tspan112">-</tspan></text><text
         transform="translate(278.16045,54.64)"
         style="font-variant:normal;font-size:7.92px;font-family:CairoFont-0;-inkscape-font-specification:CairoFont-0-0;writing-mode:lr-tb;fill:#898989;fill-opacity:1;fill-rule:nonzero;stroke:none"
         id="text120"><tspan
           x="0 5.0212798 7.2151198 14.9292 19.799999 24.81336 28.931761 31.125601 35.964722 40.978081 45.096481 50.101921 52.430401 57.88728 62.568001 67.40712 74.931122 79.801918 84.482643 89.503922 91.697762 93.891602 98.239677 100.43352 103.53816 105.70824 112.90752 115.10136 120.11472 123.21936 128.09016 133.10352 140.62752 143.73216 151.08192 156.09528 160.21368"
           y="0"
           sodipodi:role="line"
           id="tspan116">dimensions.Ifyouexplicitlyintendtouse</tspan><tspan
           x="-253.5192 -250.41457 -245.4012 -238.01976 -234.91512 -232.74504 -226.79712 -221.95799 -217.11888 -214.33104"
           y="11.8"
           sodipodi:role="line"
           id="tspan118">thet'Hooft</tspan></text><text
         transform="translate(66.934049,66.44)"
         style="font-variant:normal;font-size:7.92px;font-family:CairoFont-1;-inkscape-font-specification:CairoFont-1-0;writing-mode:lr-tb;fill:#898989;fill-opacity:1;fill-rule:nonzero;stroke:none"
         id="text124"><tspan
           x="0"
           y="0"
           id="tspan122">-</tspan></text><text
         transform="translate(71.551409,66.44)"
         style="font-variant:normal;font-size:7.92px;font-family:CairoFont-0;-inkscape-font-specification:CairoFont-0-0;writing-mode:lr-tb;fill:#898989;fill-opacity:1;fill-rule:nonzero;stroke:none"
         id="text128"><tspan
           x="0 5.4172802 10.28808 12.48192 15.58656 23.30064 28.14768 35.655842 39.774239 44.122318 49.135681 54.006481 61.720558 66.591362 71.61264 76.633919 78.827759 83.698563 88.545601 92.664001 100.03752 104.88456 109.23264 112.33728 114.53112 119.21184 124.05888 127.16352 134.54495 136.7388 142.35408 147.03481 149.22864 156.58632 161.14032 166.66849 171.68976 176.56056 179.66521 185.7636 187.95744 191.21255 196.0596 200.40768 206.51401 211.36104 219.07512 226.7892 231.63625 236.65752 241.0056 246.01897 250.88976 258.60385"
           y="0"
           sodipodi:role="line"
           id="tspan126">Veltmanscheme,pleaseactivateitviaFCSetDiracGammaScheme</tspan></text><text
         transform="translate(335.02605,66.44)"
         style="font-variant:normal;font-size:7.92px;font-family:CairoFont-1;-inkscape-font-specification:CairoFont-1-0;writing-mode:lr-tb;fill:#898989;fill-opacity:1;fill-rule:nonzero;stroke:none"
         id="text132"><tspan
           x="0"
           y="0"
           id="tspan130">[</tspan></text><text
         transform="translate(337.21989,66.44)"
         style="font-variant:normal;font-size:7.92px;font-family:CairoFont-0;-inkscape-font-specification:CairoFont-0-0;writing-mode:lr-tb;fill:#898989;fill-opacity:1;fill-rule:nonzero;stroke:none"
         id="text136"><tspan
           x="0 3.6352799 9.0684004 15.89544 21.843361 27.236879"
           y="0"
           sodipodi:role="line"
           id="tspan134">&quot;BMHV&quot;</tspan></text><text
         transform="translate(368.09205,66.44)"
         style="font-variant:normal;font-size:7.92px;font-family:CairoFont-1;-inkscape-font-specification:CairoFont-1-0;writing-mode:lr-tb;fill:#898989;fill-opacity:1;fill-rule:nonzero;stroke:none"
         id="text140"><tspan
           x="0"
           y="0"
           id="tspan138">]</tspan></text><text
         transform="translate(370.28589,66.44)"
         style="font-variant:normal;font-size:7.92px;font-family:CairoFont-0;-inkscape-font-specification:CairoFont-0-0;writing-mode:lr-tb;fill:#898989;fill-opacity:1;fill-rule:nonzero;stroke:none"
         id="text144"><tspan
           x="0"
           y="0"
           id="tspan142">.</tspan></text></g></g></svg>
