<?xml version="1.0" encoding="UTF-8" standalone="no"?>
<!-- Created with Inkscape (http://www.inkscape.org/) -->

<svg
   version="1.1"
   id="svg1"
   width="346.66666"
   height="216"
   viewBox="0 0 346.66666 216"
   sodipodi:docname="1i51tc6582d2g.pdf"
   xmlns:inkscape="http://www.inkscape.org/namespaces/inkscape"
   xmlns:sodipodi="http://sodipodi.sourceforge.net/DTD/sodipodi-0.dtd"
   xmlns="http://www.w3.org/2000/svg"
   xmlns:svg="http://www.w3.org/2000/svg">
  <defs
     id="defs1" />
  <sodipodi:namedview
     id="namedview1"
     pagecolor="#ffffff"
     bordercolor="#999999"
     borderopacity="1"
     inkscape:showpageshadow="0"
     inkscape:pageopacity="0"
     inkscape:pagecheckerboard="0"
     inkscape:deskcolor="#d1d1d1">
    <inkscape:page
       x="0"
       y="0"
       id="page1"
       width="346.66666"
       height="216"
       margin="0"
       bleed="0" />
  </sodipodi:namedview>
  <g
     id="g1"
     inkscape:groupmode="layer"
     inkscape:label="">
    <path
       id="path1"
       d="m 9.461,152.531 46.07,-38.09"
       style="fill:none;stroke:#000000;stroke-width:1.44;stroke-linecap:butt;stroke-linejoin:miter;stroke-miterlimit:3.25;stroke-dasharray:none;stroke-opacity:0.7"
       transform="scale(1.3333333)" />
    <path
       id="path2"
       d="M 57.316,110.645 57.293,50.992"
       style="fill:none;stroke:#000000;stroke-width:1.44;stroke-linecap:butt;stroke-linejoin:miter;stroke-miterlimit:3.25;stroke-dasharray:2.88, 2.88;stroke-dashoffset:0;stroke-opacity:0.7"
       transform="scale(1.3333333)" />
    <path
       id="path3"
       d="m 59.633,112.816 67.683,-4.222"
       style="fill:none;stroke:#000000;stroke-width:1.44;stroke-linecap:butt;stroke-linejoin:miter;stroke-miterlimit:3.25;stroke-dasharray:2.88, 2.88;stroke-dashoffset:0;stroke-opacity:0.7"
       transform="scale(1.3333333)" />
    <path
       id="path4"
       d="M 9.59,8.953 55.508,47.188"
       style="fill:none;stroke:#000000;stroke-width:1.44;stroke-linecap:butt;stroke-linejoin:miter;stroke-miterlimit:3.25;stroke-dasharray:none;stroke-opacity:0.7"
       transform="scale(1.3333333)" />
    <path
       id="path5"
       d="m 59.605,48.82 67.653,4.258"
       style="fill:none;stroke:#000000;stroke-width:1.44;stroke-linecap:butt;stroke-linejoin:miter;stroke-miterlimit:3.25;stroke-dasharray:2.88, 2.88;stroke-dashoffset:0;stroke-opacity:0.7"
       transform="scale(1.3333333)" />
    <path
       id="path6"
       d="M 249.742,8.973 203.684,47.195"
       style="fill:none;stroke:#000000;stroke-width:1.44;stroke-linecap:butt;stroke-linejoin:miter;stroke-miterlimit:3.25;stroke-dasharray:none;stroke-opacity:0.7"
       transform="scale(1.3333333)" />
    <path
       id="path7"
       d="m 201.902,50.996 0.063,59.633"
       style="fill:none;stroke:#ff0000;stroke-width:1.44;stroke-linecap:butt;stroke-linejoin:miter;stroke-miterlimit:3.25;stroke-dasharray:none;stroke-opacity:0.7"
       transform="scale(1.3333333)" />
    <path
       id="path8"
       d="m 199.586,48.824 -67.699,4.254"
       style="fill:none;stroke:#000000;stroke-width:1.44;stroke-linecap:butt;stroke-linejoin:miter;stroke-miterlimit:3.25;stroke-dasharray:2.88, 2.88;stroke-dashoffset:0;stroke-opacity:0.7"
       transform="scale(1.3333333)" />
    <path
       id="path9"
       d="M 249.73,152.562 203.75,114.426"
       style="fill:none;stroke:#000000;stroke-width:1.44;stroke-linecap:butt;stroke-linejoin:miter;stroke-miterlimit:3.25;stroke-dasharray:none;stroke-opacity:0.7"
       transform="scale(1.3333333)" />
    <path
       id="path10"
       d="m 199.652,112.805 -67.707,-4.211"
       style="fill:none;stroke:#00ff00;stroke-width:1.44;stroke-linecap:butt;stroke-linejoin:miter;stroke-miterlimit:3.25;stroke-dasharray:none;stroke-opacity:0.7"
       transform="scale(1.3333333)" />
    <path
       id="path11"
       d="m 129.574,55.543 0.055,50.586"
       style="fill:none;stroke:#0000ff;stroke-width:1.44;stroke-linecap:butt;stroke-linejoin:miter;stroke-miterlimit:3.25;stroke-dasharray:none;stroke-opacity:0.7"
       transform="scale(1.3333333)" />
    <path
       id="path12"
       d="m 9.992,154.008 c 0,0.617 -0.242,1.207 -0.676,1.64 -0.437,0.434 -1.027,0.68 -1.64,0.68 -0.617,0 -1.203,-0.246 -1.641,-0.68 -0.433,-0.433 -0.68,-1.023 -0.68,-1.64 0,-0.613 0.247,-1.203 0.68,-1.637 0.438,-0.437 1.024,-0.68 1.641,-0.68 0.613,0 1.203,0.243 1.64,0.68 0.434,0.434 0.676,1.024 0.676,1.637 z"
       style="fill:#a3b4cc;fill-opacity:1;fill-rule:evenodd;stroke:#000000;stroke-width:0.36;stroke-linecap:square;stroke-linejoin:miter;stroke-miterlimit:3.25;stroke-dasharray:none;stroke-opacity:0.7"
       transform="scale(1.3333333)" />
    <path
       id="path13"
       d="m 59.637,112.961 c 0,0.617 -0.246,1.207 -0.68,1.641 -0.437,0.433 -1.023,0.679 -1.641,0.679 -0.613,0 -1.203,-0.246 -1.64,-0.679 -0.434,-0.434 -0.68,-1.024 -0.68,-1.641 0,-0.613 0.246,-1.203 0.68,-1.637 0.437,-0.437 1.027,-0.679 1.64,-0.679 0.618,0 1.204,0.242 1.641,0.679 0.434,0.434 0.68,1.024 0.68,1.637 z"
       style="fill:#a3b4cc;fill-opacity:1;fill-rule:evenodd;stroke:#000000;stroke-width:0.36;stroke-linecap:square;stroke-linejoin:miter;stroke-miterlimit:3.25;stroke-dasharray:none;stroke-opacity:0.7"
       transform="scale(1.3333333)" />
    <path
       id="path14"
       d="m 10.129,7.469 c 0,0.613 -0.246,1.203 -0.68,1.64 C 9.012,9.543 8.426,9.785 7.809,9.785 7.195,9.785 6.605,9.543 6.168,9.109 5.734,8.672 5.492,8.082 5.492,7.469 c 0,-0.617 0.242,-1.203 0.676,-1.641 0.437,-0.433 1.027,-0.68 1.641,-0.68 0.617,0 1.203,0.247 1.64,0.68 0.434,0.438 0.68,1.024 0.68,1.641 z"
       style="fill:#a3b4cc;fill-opacity:1;fill-rule:evenodd;stroke:#000000;stroke-width:0.36;stroke-linecap:square;stroke-linejoin:miter;stroke-miterlimit:3.25;stroke-dasharray:none;stroke-opacity:0.7"
       transform="scale(1.3333333)" />
    <path
       id="path15"
       d="m 59.609,48.672 c 0,0.617 -0.242,1.207 -0.679,1.64 -0.434,0.434 -1.024,0.68 -1.637,0.68 -0.617,0 -1.207,-0.246 -1.641,-0.68 -0.433,-0.433 -0.679,-1.023 -0.679,-1.64 0,-0.613 0.246,-1.203 0.679,-1.637 0.434,-0.437 1.024,-0.68 1.641,-0.68 0.613,0 1.203,0.243 1.637,0.68 0.437,0.434 0.679,1.024 0.679,1.637 z"
       style="fill:#a3b4cc;fill-opacity:1;fill-rule:evenodd;stroke:#000000;stroke-width:0.36;stroke-linecap:square;stroke-linejoin:miter;stroke-miterlimit:3.25;stroke-dasharray:none;stroke-opacity:0.7"
       transform="scale(1.3333333)" />
    <path
       id="path16"
       d="m 253.844,7.488 c 0,0.617 -0.246,1.207 -0.68,1.641 -0.434,0.433 -1.023,0.68 -1.641,0.68 -0.613,0 -1.203,-0.247 -1.636,-0.68 -0.438,-0.434 -0.68,-1.024 -0.68,-1.641 0,-0.613 0.242,-1.203 0.68,-1.636 0.433,-0.438 1.023,-0.68 1.636,-0.68 0.618,0 1.207,0.242 1.641,0.68 0.434,0.433 0.68,1.023 0.68,1.636 z"
       style="fill:#a3b4cc;fill-opacity:1;fill-rule:evenodd;stroke:#000000;stroke-width:0.36;stroke-linecap:square;stroke-linejoin:miter;stroke-miterlimit:3.25;stroke-dasharray:none;stroke-opacity:0.7"
       transform="scale(1.3333333)" />
    <path
       id="path17"
       d="m 204.219,48.676 c 0,0.617 -0.246,1.207 -0.68,1.64 -0.437,0.434 -1.027,0.68 -1.641,0.68 -0.613,0 -1.203,-0.246 -1.64,-0.68 -0.434,-0.433 -0.68,-1.023 -0.68,-1.64 0,-0.614 0.246,-1.203 0.68,-1.637 0.437,-0.437 1.027,-0.68 1.64,-0.68 0.614,0 1.204,0.243 1.641,0.68 0.434,0.434 0.68,1.023 0.68,1.637 z"
       style="fill:#a3b4cc;fill-opacity:1;fill-rule:evenodd;stroke:#000000;stroke-width:0.36;stroke-linecap:square;stroke-linejoin:miter;stroke-miterlimit:3.25;stroke-dasharray:none;stroke-opacity:0.7"
       transform="scale(1.3333333)" />
    <path
       id="path18"
       d="m 253.836,154.043 c 0,0.613 -0.246,1.203 -0.68,1.641 -0.437,0.433 -1.027,0.675 -1.64,0.675 -0.614,0 -1.204,-0.242 -1.641,-0.675 -0.434,-0.438 -0.68,-1.028 -0.68,-1.641 0,-0.617 0.246,-1.203 0.68,-1.641 0.437,-0.433 1.027,-0.679 1.641,-0.679 0.613,0 1.203,0.246 1.64,0.679 0.434,0.438 0.68,1.024 0.68,1.641 z"
       style="fill:#a3b4cc;fill-opacity:1;fill-rule:evenodd;stroke:#000000;stroke-width:0.36;stroke-linecap:square;stroke-linejoin:miter;stroke-miterlimit:3.25;stroke-dasharray:none;stroke-opacity:0.7"
       transform="scale(1.3333333)" />
    <path
       id="path19"
       d="m 204.285,112.945 c 0,0.617 -0.246,1.207 -0.68,1.641 -0.433,0.434 -1.023,0.68 -1.64,0.68 -0.613,0 -1.203,-0.246 -1.637,-0.68 -0.437,-0.434 -0.68,-1.024 -0.68,-1.641 0,-0.613 0.243,-1.203 0.68,-1.636 0.434,-0.438 1.024,-0.68 1.637,-0.68 0.617,0 1.207,0.242 1.64,0.68 0.434,0.433 0.68,1.023 0.68,1.636 z"
       style="fill:#a3b4cc;fill-opacity:1;fill-rule:evenodd;stroke:#000000;stroke-width:0.36;stroke-linecap:square;stroke-linejoin:miter;stroke-miterlimit:3.25;stroke-dasharray:none;stroke-opacity:0.7"
       transform="scale(1.3333333)" />
    <path
       id="path20"
       d="m 131.891,53.227 c 0,0.613 -0.243,1.203 -0.68,1.636 -0.434,0.438 -1.023,0.68 -1.637,0.68 -0.617,0 -1.207,-0.242 -1.64,-0.68 -0.434,-0.433 -0.68,-1.023 -0.68,-1.636 0,-0.618 0.246,-1.207 0.68,-1.641 0.433,-0.434 1.023,-0.68 1.64,-0.68 0.614,0 1.203,0.246 1.637,0.68 0.437,0.434 0.68,1.023 0.68,1.641 z"
       style="fill:#a3b4cc;fill-opacity:1;fill-rule:evenodd;stroke:#000000;stroke-width:0.36;stroke-linecap:square;stroke-linejoin:miter;stroke-miterlimit:3.25;stroke-dasharray:none;stroke-opacity:0.7"
       transform="scale(1.3333333)" />
    <path
       id="path21"
       d="m 131.949,108.449 c 0,0.613 -0.246,1.203 -0.679,1.641 -0.434,0.433 -1.024,0.68 -1.641,0.68 -0.613,0 -1.203,-0.247 -1.641,-0.68 -0.433,-0.438 -0.676,-1.028 -0.676,-1.641 0,-0.613 0.243,-1.203 0.676,-1.64 0.438,-0.434 1.028,-0.68 1.641,-0.68 0.617,0 1.207,0.246 1.641,0.68 0.433,0.437 0.679,1.027 0.679,1.64 z"
       style="fill:#a3b4cc;fill-opacity:1;fill-rule:evenodd;stroke:#000000;stroke-width:0.36;stroke-linecap:square;stroke-linejoin:miter;stroke-miterlimit:3.25;stroke-dasharray:none;stroke-opacity:0.7"
       transform="scale(1.3333333)" />
    <path
       id="path22"
       d="M 259.02,161.332 H 0.18"
       style="fill:none;stroke:#000000;stroke-width:0.144;stroke-linecap:square;stroke-linejoin:miter;stroke-miterlimit:3.25;stroke-dasharray:none;stroke-opacity:1"
       transform="scale(1.3333333)" />
    <path
       id="path23"
       d="M 0.18,161.332 V 0.18"
       style="fill:none;stroke:#000000;stroke-width:0.144;stroke-linecap:square;stroke-linejoin:miter;stroke-miterlimit:3.25;stroke-dasharray:none;stroke-opacity:1"
       transform="scale(1.3333333)" />
    <path
       id="path24"
       d="M 0.18,0.18 H 259.02"
       style="fill:none;stroke:#000000;stroke-width:0.144;stroke-linecap:square;stroke-linejoin:miter;stroke-miterlimit:3.25;stroke-dasharray:none;stroke-opacity:1"
       transform="scale(1.3333333)" />
    <path
       id="path25"
       d="M 259.02,0.18 V 161.332"
       style="fill:none;stroke:#000000;stroke-width:0.144;stroke-linecap:square;stroke-linejoin:miter;stroke-miterlimit:3.25;stroke-dasharray:none;stroke-opacity:1"
       transform="scale(1.3333333)" />
  </g>
</svg>
