<?xml version="1.0" encoding="UTF-8" standalone="no"?>
<!-- Created with Inkscape (http://www.inkscape.org/) -->

<svg
   version="1.1"
   id="svg2"
   width="608"
   height="117.33333"
   viewBox="0 0 608 117.33333"
   sodipodi:docname="1nywe2zsmni95.pdf"
   xmlns:inkscape="http://www.inkscape.org/namespaces/inkscape"
   xmlns:sodipodi="http://sodipodi.sourceforge.net/DTD/sodipodi-0.dtd"
   xmlns="http://www.w3.org/2000/svg"
   xmlns:svg="http://www.w3.org/2000/svg">
  <defs
     id="defs6" />
  <sodipodi:namedview
     id="namedview4"
     pagecolor="#ffffff"
     bordercolor="#999999"
     borderopacity="1"
     inkscape:showpageshadow="0"
     inkscape:pageopacity="0"
     inkscape:pagecheckerboard="0"
     inkscape:deskcolor="#d1d1d1" />
  <g
     id="g8"
     inkscape:groupmode="layer"
     inkscape:label="1nywe2zsmni95"
     transform="scale(1.3333333)">
    <g
       id="g10">
      <text
         xml:space="preserve"
         transform="translate(1.587056,10)"
         style="font-variant:normal;font-size:7.92px;font-family:CairoFont-0;-inkscape-font-specification:CairoFont-0-0;writing-mode:lr-tb;fill:#dd1100;fill-opacity:1;fill-rule:nonzero;stroke:none"
         id="text14"><tspan
           x="0 5.7816 7.8249602 11.09592 15.53904 19.340639 23.74416 27.01512 31.458241 35.23608"
           y="0"
           sodipodi:role="line"
           id="tspan12">DiracTrace</tspan></text>
      <text
         xml:space="preserve"
         transform="translate(42.012056,10)"
         style="font-variant:normal;font-size:7.92px;font-family:CairoFont-0;-inkscape-font-specification:CairoFont-0-0;writing-mode:lr-tb;fill:#000000;fill-opacity:1;fill-rule:nonzero;stroke:none"
         id="text18"><tspan
           x="0"
           y="0"
           id="tspan16">:</tspan></text>
      <text
         xml:space="preserve"
         transform="translate(47.721613,10)"
         style="font-variant:normal;font-size:7.92px;font-family:CairoFont-0;-inkscape-font-specification:CairoFont-0-0;writing-mode:lr-tb;fill:#898989;fill-opacity:1;fill-rule:nonzero;stroke:none"
         id="text22"><tspan
           x="0 4.4035201 8.5931997 13.464 16.734961 21.201839 24.99552 28.7892 30.83256 35.624161 40.518719 46.347839 49.206959 54.101521 58.54464 63.45504 70.860237 72.903603 79.144562"
           y="0"
           sodipodi:role="line"
           id="tspan20">ExpressionsthatmixD</tspan></text>
      <text
         xml:space="preserve"
         transform="translate(132.64777,10)"
         style="font-variant:normal;font-size:7.92px;font-family:CairoFont-1;-inkscape-font-specification:CairoFont-1-0;writing-mode:lr-tb;fill:#898989;fill-opacity:1;fill-rule:nonzero;stroke:none"
         id="text26"><tspan
           x="0"
           y="0"
           id="tspan24">-</tspan></text>
      <text
         xml:space="preserve"
         transform="translate(137.26513,10)"
         style="font-variant:normal;font-size:7.92px;font-family:CairoFont-0;-inkscape-font-specification:CairoFont-0-0;writing-mode:lr-tb;fill:#898989;fill-opacity:1;fill-rule:nonzero;stroke:none"
         id="text30"><tspan
           x="0 4.1817598"
           y="0"
           sodipodi:role="line"
           id="tspan28">,4</tspan></text>
      <text
         xml:space="preserve"
         transform="translate(145.97713,10)"
         style="font-variant:normal;font-size:7.92px;font-family:CairoFont-1;-inkscape-font-specification:CairoFont-1-0;writing-mode:lr-tb;fill:#898989;fill-opacity:1;fill-rule:nonzero;stroke:none"
         id="text34"><tspan
           x="0"
           y="0"
           id="tspan32">-</tspan></text>
      <text
         xml:space="preserve"
         transform="translate(152.65369,10)"
         style="font-variant:normal;font-size:7.92px;font-family:CairoFont-0;-inkscape-font-specification:CairoFont-0-0;writing-mode:lr-tb;fill:#898989;fill-opacity:1;fill-rule:nonzero;stroke:none"
         id="text38"><tspan
           x="0 4.44312 9.3376799 16.25976"
           y="0"
           sodipodi:role="line"
           id="tspan36">andD</tspan></text>
      <text
         xml:space="preserve"
         transform="translate(174.69505,10)"
         style="font-variant:normal;font-size:7.92px;font-family:CairoFont-1;-inkscape-font-specification:CairoFont-1-0;writing-mode:lr-tb;fill:#898989;fill-opacity:1;fill-rule:nonzero;stroke:none"
         id="text42"><tspan
           x="0"
           y="0"
           id="tspan40">-</tspan></text>
      <text
         xml:space="preserve"
         transform="translate(179.31241,10)"
         style="font-variant:normal;font-size:7.92px;font-family:CairoFont-0;-inkscape-font-specification:CairoFont-0-0;writing-mode:lr-tb;fill:#898989;fill-opacity:1;fill-rule:nonzero;stroke:none"
         id="text46"><tspan
           x="0"
           y="0"
           id="tspan44">4</tspan></text>
      <text
         xml:space="preserve"
         transform="translate(183.84265,10)"
         style="font-variant:normal;font-size:7.92px;font-family:CairoFont-1;-inkscape-font-specification:CairoFont-1-0;writing-mode:lr-tb;fill:#898989;fill-opacity:1;fill-rule:nonzero;stroke:none"
         id="text50"><tspan
           x="0"
           y="0"
           id="tspan48">-</tspan></text>
      <text
         xml:space="preserve"
         transform="translate(188.46001,10)"
         style="font-variant:normal;font-size:7.92px;font-family:CairoFont-0;-inkscape-font-specification:CairoFont-0-0;writing-mode:lr-tb;fill:#898989;fill-opacity:1;fill-rule:nonzero;stroke:none"
         id="text56"><tspan
           x="0 4.8708 6.9141598 14.31936 18.78624 23.65704 27.45072 29.49408 34.285679 39.180241 43.62336 47.710079 52.580879 57.475441 61.91856 66.813118 69.672241 71.715599 74.574722 76.61808 81.084961 86.921997 91.36512 94.636078 101.15424 103.87872 108.67032 111.94128 116.81208 118.85544 123.72624 128.59705 133.06392 139.99393 142.03728 148.99104 154.77264 156.81599 160.08696 164.53008 170.37505 177.78024 182.22336 185.08247 188.35344 190.3968 196.62984 200.43144 205.326 209.76912 211.81248 216.70705 222.552 227.44656 232.34113 234.38448 238.85136 242.64503 248.48209 252.52129 257.31287"
           y="0"
           sodipodi:role="line"
           id="tspan52">dimensionalquantitiesareforbiddeninDiracmatrixchainsunlessyou</tspan><tspan
           x="-164.75252 -160.30939 -157.03844 -150.52028 -145.62572 -141.83203 -139.78867 -134.89412 -127.97203 -125.11292 -120.21835 -113.7002 -110.84107 -109.05907 -103.19035 -98.39875 -93.607155 -90.882675"
           y="14.999997"
           sodipodi:role="line"
           id="tspan54">areusingthet'Hooft</tspan></text>
      <text
         xml:space="preserve"
         transform="translate(100.43646,24.999997)"
         style="font-variant:normal;font-size:7.92px;font-family:CairoFont-1;-inkscape-font-specification:CairoFont-1-0;writing-mode:lr-tb;fill:#898989;fill-opacity:1;fill-rule:nonzero;stroke:none"
         id="text60"><tspan
           x="0"
           y="0"
           id="tspan58">-</tspan></text>
      <text
         xml:space="preserve"
         transform="translate(105.05382,24.999997)"
         style="font-variant:normal;font-size:7.92px;font-family:CairoFont-0;-inkscape-font-specification:CairoFont-0-0;writing-mode:lr-tb;fill:#898989;fill-opacity:1;fill-rule:nonzero;stroke:none"
         id="text66"><tspan
           x="0 4.7519999 9.2188797 11.26224 14.12136 21.5028 25.945921 32.899681 36.693359 40.494961 45.389519 49.8564 57.2616 61.728481 65.894402 70.004883 74.796478 80.12664 84.593521 88.616882 93.083763 96.354721 102.4452 107.2368 110.09592 114.99048 119.45736 124.7796 128.57327 132.37488 137.26944 141.73631 149.14153 153.6084 157.78224 162.65305 164.6964 169.16328 173.6064 177.40009 183.91032 187.18127 191.64816 195.44975 200.34431 204.8112 208.61279 214.88544 218.92464 223.71625 228.61079 233.94096 235.98431 240.87888 245.74968 250.64424 255.54672 260.01361 264.20328 269.07407 272.34503 276.81192 280.60559 284.39929 286.44263 291.23425 296.12881 301.96585 306.40897 311.30353 318.22559 322.69247 327.58704 331.38071 336.27527 339.54623"
           y="0"
           sodipodi:role="line"
           id="tspan62">Veltmanscheme.Foreveryotherscheme,pleaserecheckyourinputexpressionsandensure</tspan><tspan
           x="-81.346321 -78.487198 -73.592644 -69.149521 -64.23912 -59.796001 -57.75264 -53.658001 -46.2528 -41.809681 -38.950562 -35.6796 -33.636238 -29.834641 -25.36776 -21.57408 -17.41608 -13.6224 -8.7516003 -6.70824 -1.8136801 2.9779201 6.2488799 12.08592 16.529039 21.423599 28.34568 31.2048 35.67168 40.566238 44.359921 49.15152 52.422482 58.267441 62.71056 65.981522 72.49968 77.370483 82.265038 85.536003 90.002876 92.046242 98.136719"
           y="14.999997"
           sodipodi:role="line"
           id="tspan64">thatallmatrices,spinorsandtensorsarepurelyD</tspan></text>
      <text
         xml:space="preserve"
         transform="translate(208.97214,39.999994)"
         style="font-variant:normal;font-size:7.92px;font-family:CairoFont-1;-inkscape-font-specification:CairoFont-1-0;writing-mode:lr-tb;fill:#898989;fill-opacity:1;fill-rule:nonzero;stroke:none"
         id="text70"><tspan
           x="0"
           y="0"
           id="tspan68">-</tspan></text>
      <text
         xml:space="preserve"
         transform="translate(213.5895,39.999994)"
         style="font-variant:normal;font-size:7.92px;font-family:CairoFont-0;-inkscape-font-specification:CairoFont-0-0;writing-mode:lr-tb;fill:#898989;fill-opacity:1;fill-rule:nonzero;stroke:none"
         id="text74"><tspan
           x="0 4.8708 6.9141598 14.31936 18.78624 23.680799 27.47448 29.49408 34.285679 39.180241 43.62336 45.666721 49.840561 54.32328 59.11488 66.060722 73.465919 75.509277 80.380081 85.274643 90.185043 96.410156 100.85328 105.74784 110.65824 113.51736 120.36024 125.2548 129.04848 135.57455 139.68504 144.69048 150.45624 154.92313 157.78224 163.56384 165.60719 173.01241 177.47928 182.35008 186.14375 188.18712 192.97871 197.87328"
           y="0"
           sodipodi:role="line"
           id="tspan72">dimensional.YoumightwanttouseFCGetDimensions</tspan></text>
      <text
         xml:space="preserve"
         transform="translate(415.25646,39.999994)"
         style="font-variant:normal;font-size:7.92px;font-family:CairoFont-1;-inkscape-font-specification:CairoFont-1-0;writing-mode:lr-tb;fill:#898989;fill-opacity:1;fill-rule:nonzero;stroke:none"
         id="text78"><tspan
           x="0"
           y="0"
           id="tspan76">[</tspan></text>
      <text
         xml:space="preserve"
         transform="translate(417.4503,39.999994)"
         style="font-variant:normal;font-size:7.92px;font-family:CairoFont-0;-inkscape-font-specification:CairoFont-0-0;writing-mode:lr-tb;fill:#898989;fill-opacity:1;fill-rule:nonzero;stroke:none"
         id="text82"><tspan
           x="0 4.4668798 8.6565599"
           y="0"
           sodipodi:role="line"
           id="tspan80">exp</tspan></text>
      <text
         xml:space="preserve"
         transform="translate(430.97766,39.999994)"
         style="font-variant:normal;font-size:7.92px;font-family:CairoFont-1;-inkscape-font-specification:CairoFont-1-0;writing-mode:lr-tb;fill:#898989;fill-opacity:1;fill-rule:nonzero;stroke:none"
         id="text86"><tspan
           x="0"
           y="0"
           id="tspan84">]</tspan></text>
      <text
         xml:space="preserve"
         transform="translate(435.21486,39.999994)"
         style="font-variant:normal;font-size:7.92px;font-family:CairoFont-0;-inkscape-font-specification:CairoFont-0-0;writing-mode:lr-tb;fill:#898989;fill-opacity:1;fill-rule:nonzero;stroke:none"
         id="text90"><tspan
           x="0 2.8591199"
           y="0"
           sodipodi:role="line"
           id="tspan88">to</tspan></text>
      <text
         xml:space="preserve"
         transform="translate(23.7075,54.999991)"
         style="font-variant:normal;font-size:7.92px;font-family:CairoFont-0;-inkscape-font-specification:CairoFont-0-1;writing-mode:lr-tb;fill:#898989;fill-opacity:1;fill-rule:nonzero;stroke:none"
         id="text94"><tspan
           x="0"
           y="0"
           id="tspan92">ﬁ</tspan></text>
      <text
         xml:space="preserve"
         transform="translate(28.47534,54.999991)"
         style="font-variant:normal;font-size:7.92px;font-family:CairoFont-0;-inkscape-font-specification:CairoFont-0-0;writing-mode:lr-tb;fill:#898989;fill-opacity:1;fill-rule:nonzero;stroke:none"
         id="text98"><tspan
           x="0 4.8945599 11.81664 14.67576 19.57032 26.08848"
           y="0"
           sodipodi:role="line"
           id="tspan96">ndtheo</tspan></text>
      <text
         xml:space="preserve"
         transform="translate(59.35542,54.999991)"
         style="font-variant:normal;font-size:7.92px;font-family:CairoFont-0;-inkscape-font-specification:CairoFont-0-1;writing-mode:lr-tb;fill:#898989;fill-opacity:1;fill-rule:nonzero;stroke:none"
         id="text102"><tspan
           x="0"
           y="0"
           id="tspan100">ﬀ</tspan></text>
      <text
         xml:space="preserve"
         transform="translate(64.80438,54.999991)"
         style="font-variant:normal;font-size:7.92px;font-family:CairoFont-0;-inkscape-font-specification:CairoFont-0-0;writing-mode:lr-tb;fill:#898989;fill-opacity:1;fill-rule:nonzero;stroke:none"
         id="text106"><tspan
           x="0 4.4668798 9.3614397 14.23224 16.2756 21.17016 28.08432 30.943439 35.41032 38.681278 46.086479 51.931438 56.374561 61.269119"
           y="0"
           sodipodi:role="line"
           id="tspan104">endingtermsand</tspan></text>
      <text
         xml:space="preserve"
         transform="translate(132.99558,54.999991)"
         style="font-variant:normal;font-size:7.92px;font-family:CairoFont-0;-inkscape-font-specification:CairoFont-0-1;writing-mode:lr-tb;fill:#898989;fill-opacity:1;fill-rule:nonzero;stroke:none"
         id="text110"><tspan
           x="0"
           y="0"
           id="tspan108">ﬁ</tspan></text>
      <text
         xml:space="preserve"
         transform="translate(137.76342,54.999991)"
         style="font-variant:normal;font-size:7.92px;font-family:CairoFont-0;-inkscape-font-specification:CairoFont-0-0;writing-mode:lr-tb;fill:#898989;fill-opacity:1;fill-rule:nonzero;stroke:none"
         id="text114"><tspan
           x="0 6.2409601 9.1000795 13.99464 18.461519 27.917999 32.788799 38.887199 43.781761 48.22488 53.119438 60.041519 64.833122 70.155357 74.622238 82.027443 86.898239 88.941597 93.7332 99.815758 104.8212 109.71576 114.15888 119.05344 123.92424 128.39111 134.17271 136.21608 143.62128 148.08817 152.95895 156.75264 158.79601 163.5876"
           y="0"
           sodipodi:role="line"
           id="tspan112">xthembyhandoremployChangeDimension</tspan></text>
      <text
         xml:space="preserve"
         transform="translate(306.24558,54.999991)"
         style="font-variant:normal;font-size:7.92px;font-family:CairoFont-1;-inkscape-font-specification:CairoFont-1-0;writing-mode:lr-tb;fill:#898989;fill-opacity:1;fill-rule:nonzero;stroke:none"
         id="text118"><tspan
           x="0"
           y="0"
           id="tspan116">[</tspan></text>
      <text
         xml:space="preserve"
         transform="translate(308.43942,54.999991)"
         style="font-variant:normal;font-size:7.92px;font-family:CairoFont-0;-inkscape-font-specification:CairoFont-0-0;writing-mode:lr-tb;fill:#898989;fill-opacity:1;fill-rule:nonzero;stroke:none"
         id="text122"><tspan
           x="0 4.4668798 8.6565599 13.52736 15.64992"
           y="0"
           sodipodi:role="line"
           id="tspan120">exp,D</tspan></text>
      <text
         xml:space="preserve"
         transform="translate(329.87094,54.999991)"
         style="font-variant:normal;font-size:7.92px;font-family:CairoFont-1;-inkscape-font-specification:CairoFont-1-0;writing-mode:lr-tb;fill:#898989;fill-opacity:1;fill-rule:nonzero;stroke:none"
         id="text126"><tspan
           x="0"
           y="0"
           id="tspan124">]</tspan></text>
      <text
         xml:space="preserve"
         transform="translate(334.10814,54.999991)"
         style="font-variant:normal;font-size:7.92px;font-family:CairoFont-0;-inkscape-font-specification:CairoFont-0-0;writing-mode:lr-tb;fill:#898989;fill-opacity:1;fill-rule:nonzero;stroke:none"
         id="text132"><tspan
           x="0 2.8591199 9.7019997 13.5036 18.2952 23.18976 27.21312 31.68 34.950958 39.853439 42.712559 47.607121 54.133202 60.358318 65.252876 70.044479 72.087837 78.606003 83.072884 87.262558 92.133362 95.40432 99.871201 103.66488 107.45856 109.50192 114.26976"
           y="0"
           sodipodi:role="line"
           id="tspan128">toconvertthewholeexpression</tspan><tspan
           x="-310.40063 -307.54153 -300.69864"
           y="14.999997"
           sodipodi:role="line"
           id="tspan130">toD</tspan></text>
      <text
         xml:space="preserve"
         transform="translate(39.1911,69.999988)"
         style="font-variant:normal;font-size:7.92px;font-family:CairoFont-1;-inkscape-font-specification:CairoFont-1-0;writing-mode:lr-tb;fill:#898989;fill-opacity:1;fill-rule:nonzero;stroke:none"
         id="text136"><tspan
           x="0"
           y="0"
           id="tspan134">-</tspan></text>
      <text
         xml:space="preserve"
         transform="translate(43.80846,69.999988)"
         style="font-variant:normal;font-size:7.92px;font-family:CairoFont-0;-inkscape-font-specification:CairoFont-0-0;writing-mode:lr-tb;fill:#898989;fill-opacity:1;fill-rule:nonzero;stroke:none"
         id="text140"><tspan
           x="0 4.8708 6.9141598 14.31936 18.78624 23.680799 27.47448 29.517839 34.285679 39.180241 42.973919 47.155682 49.840561 54.956879 58.996078 63.787682 70.74144 75.208321 79.398003 84.268799 86.312157 88.355522 92.15712 94.17672 97.035843 99.079201 105.1776 107.22096 112.11552 114.97464 119.44152 124.33608 131.25024 134.10936 140.96016 145.85472 149.64841 156.16656 159.02568 163.92024 170.44632 173.30544 175.08743 180.95616 185.74776 190.53935 193.26384"
           y="0"
           sodipodi:role="line"
           id="tspan138">dimensions.Ifyouexplicitlyintendtousethet'Hooft</tspan></text>
      <text
         xml:space="preserve"
         transform="translate(239.93142,69.999988)"
         style="font-variant:normal;font-size:7.92px;font-family:CairoFont-1;-inkscape-font-specification:CairoFont-1-0;writing-mode:lr-tb;fill:#898989;fill-opacity:1;fill-rule:nonzero;stroke:none"
         id="text144"><tspan
           x="0"
           y="0"
           id="tspan142">-</tspan></text>
      <text
         xml:space="preserve"
         transform="translate(244.54878,69.999988)"
         style="font-variant:normal;font-size:7.92px;font-family:CairoFont-0;-inkscape-font-specification:CairoFont-0-0;writing-mode:lr-tb;fill:#898989;fill-opacity:1;fill-rule:nonzero;stroke:none"
         id="text150"><tspan
           x="0 4.72824 9.1951199 11.23848 14.0976 21.5028 25.945921 32.891762 36.68544 40.487041 45.381599 49.84848 57.253681 61.720558 65.894402 70.765198 72.808563 77.275436 81.718559 85.512238 92.022476 96.465599 100.2672 103.12632 105.16968 109.19304 113.63616 116.47152 122.9976 125.04096 129.95927 133.98264 136.026"
           y="0"
           sodipodi:role="line"
           id="tspan146">Veltmanscheme,pleaseactivateitvia</tspan><tspan
           x="-220.84128 -216.7308 -211.72536 -207.37727 -202.9104 -200.05128 -194.26968 -192.22632 -188.95535 -184.51224 -180.73441 -174.96864 -170.52551 -163.12032 -155.71512 -151.272 -146.92392 -143.12231 -138.22775 -133.76088 -126.35568"
           y="14.519997"
           sodipodi:role="line"
           id="tspan148">FCSetDiracGammaScheme</tspan></text>
      <text
         xml:space="preserve"
         transform="translate(122.63622,84.519985)"
         style="font-variant:normal;font-size:7.92px;font-family:CairoFont-1;-inkscape-font-specification:CairoFont-1-0;writing-mode:lr-tb;fill:#898989;fill-opacity:1;fill-rule:nonzero;stroke:none"
         id="text154"><tspan
           x="0"
           y="0"
           id="tspan152">[</tspan></text>
      <text
         xml:space="preserve"
         transform="translate(124.83006,84.519985)"
         style="font-variant:normal;font-size:7.92px;font-family:CairoFont-0;-inkscape-font-specification:CairoFont-0-0;writing-mode:lr-tb;fill:#898989;fill-opacity:1;fill-rule:nonzero;stroke:none"
         id="text158"><tspan
           x="0 3.23136 8.3793602 15.5628 21.43152 26.183519"
           y="0"
           sodipodi:role="line"
           id="tspan156">&quot;BMHV&quot;</tspan></text>
      <text
         xml:space="preserve"
         transform="translate(154.24494,84.519985)"
         style="font-variant:normal;font-size:7.92px;font-family:CairoFont-1;-inkscape-font-specification:CairoFont-1-0;writing-mode:lr-tb;fill:#898989;fill-opacity:1;fill-rule:nonzero;stroke:none"
         id="text162"><tspan
           x="0"
           y="0"
           id="tspan160">]</tspan></text>
      <text
         xml:space="preserve"
         transform="translate(156.43878,84.519985)"
         style="font-variant:normal;font-size:7.92px;font-family:CairoFont-0;-inkscape-font-specification:CairoFont-0-0;writing-mode:lr-tb;fill:#898989;fill-opacity:1;fill-rule:nonzero;stroke:none"
         id="text166"><tspan
           x="0"
           y="0"
           id="tspan164">.</tspan></text>
    </g>
  </g>
</svg>
