<?xml version="1.0" encoding="UTF-8" standalone="no"?>
<!-- Created with Inkscape (http://www.inkscape.org/) -->

<svg
   version="1.1"
   id="svg2"
   xml:space="preserve"
   width="432"
   height="318.66666"
   viewBox="0 0 432 318.66666"
   sodipodi:docname="1q4w0yoqha2oe.pdf"
   xmlns:inkscape="http://www.inkscape.org/namespaces/inkscape"
   xmlns:sodipodi="http://sodipodi.sourceforge.net/DTD/sodipodi-0.dtd"
   xmlns="http://www.w3.org/2000/svg"
   xmlns:svg="http://www.w3.org/2000/svg"><defs
     id="defs6"><clipPath
       clipPathUnits="userSpaceOnUse"
       id="clipPath154"><path
         d="m 8,228 h 6.641 v 5 H 8 Z"
         id="path152" /></clipPath></defs><sodipodi:namedview
     id="namedview4"
     pagecolor="#505050"
     bordercolor="#eeeeee"
     borderopacity="1"
     inkscape:pageshadow="0"
     inkscape:pageopacity="0"
     inkscape:pagecheckerboard="0" /><g
     id="g8"
     inkscape:groupmode="layer"
     inkscape:label="1q4w0yoqha2oe"
     transform="matrix(1.3333333,0,0,1.3333333,0,1.13e-5)"><g
       id="g10"><path
         d="M 4.32,0.84 C 3.102,0.84 1.93,1.324 1.066,2.188 0.203,3.051 -0.281,4.219 -0.281,5.441 v 227.797 c 0,1.223 0.484,2.391 1.347,3.254 0.864,0.863 2.036,1.348 3.254,1.348 h 314.801 c 1.219,0 2.391,-0.485 3.25,-1.348 0.863,-0.863 1.348,-2.031 1.348,-3.254 V 5.441 c 0,-1.222 -0.485,-2.39 -1.348,-3.253 -0.859,-0.864 -2.031,-1.348 -3.25,-1.348 z"
         style="fill:#ffffff;fill-opacity:1;fill-rule:evenodd;stroke:none"
         id="path12" /><path
         d="M 1,2.02 H 320.273 V 13.891 H 1 Z"
         style="fill:#f8f8f8;fill-opacity:1;fill-rule:nonzero;stroke:none"
         id="path14" /><path
         d="m 320.273,2.02 h 1.871 v 11.871 h -1.871 z"
         style="fill:#f8f8f8;fill-opacity:1;fill-rule:nonzero;stroke:none"
         id="path16" /><path
         d="M 1,14.035 H 320.273 V 224.777 H 1 Z"
         style="fill:#f3fbff;fill-opacity:1;fill-rule:nonzero;stroke:none"
         id="path18" /><path
         d="m 320.273,14.035 h 1.871 v 210.742 h -1.871 z"
         style="fill:#f3fbff;fill-opacity:1;fill-rule:nonzero;stroke:none"
         id="path20" /><path
         d="m 1,224.922 h 321.145 v 11.871 H 1 Z"
         style="fill:#f8f8f8;fill-opacity:1;fill-rule:nonzero;stroke:none"
         id="path22" /><text
         transform="translate(5.93875,9.843875)"
         style="font-variant:normal;font-size:6.48px;font-family:CairoFont-0;-inkscape-font-specification:CairoFont-0-0;writing-mode:lr-tb;fill:#777777;fill-opacity:1;fill-rule:nonzero;stroke:none"
         id="text26"><tspan
           x="0 4.1083202 7.9380002 14.24952 18.35784 22.31712"
           y="0"
           sodipodi:role="line"
           id="tspan24">Symbol</tspan></text><text
         transform="translate(8.2,32.106875)"
         style="font-variant:normal;font-size:8.64px;font-family:CairoFont-0;-inkscape-font-specification:CairoFont-0-0;writing-mode:lr-tb;fill:#000000;fill-opacity:1;fill-rule:nonzero;stroke:none"
         id="text30"><tspan
           x="0 4.81248 10.10016 15.57792 19.12896 24.416639 29.885759 35.363522 37.756802 43.044479"
           y="0"
           sodipodi:role="line"
           id="tspan28">Lagrangian</tspan></text><text
         transform="translate(56.7136,32.106875)"
         style="font-variant:normal;font-size:8.64px;font-family:CairoFont-1;-inkscape-font-specification:CairoFont-1-0;writing-mode:lr-tb;fill:#000000;fill-opacity:1;fill-rule:nonzero;stroke:none"
         id="text34"><tspan
           x="0"
           y="0"
           id="tspan32">[</tspan></text><text
         transform="translate(59.10688,32.106875)"
         style="font-variant:normal;font-size:8.64px;font-family:CairoFont-0;-inkscape-font-specification:CairoFont-0-0;writing-mode:lr-tb;fill:#000000;fill-opacity:1;fill-rule:nonzero;stroke:none"
         id="text38"><tspan
           x="0 3.9398401 9.2188797 14.69664 20.16576"
           y="0"
           sodipodi:role="line"
           id="tspan36">&quot;oqu&quot;</tspan></text><text
         transform="translate(83.2384,32.106875)"
         style="font-variant:normal;font-size:8.64px;font-family:CairoFont-1;-inkscape-font-specification:CairoFont-1-0;writing-mode:lr-tb;fill:#000000;fill-opacity:1;fill-rule:nonzero;stroke:none"
         id="text42"><tspan
           x="0"
           y="0"
           id="tspan40">]</tspan></text><text
         transform="translate(88.37056,32.106875)"
         style="font-variant:normal;font-size:8.64px;font-family:CairoFont-0;-inkscape-font-specification:CairoFont-0-0;writing-mode:lr-tb;fill:#000000;fill-opacity:1;fill-rule:nonzero;stroke:none"
         id="text48"><tspan
           x="0 5.4777598 7.8710399 12.97728 18.29088 25.52256 28.909439 34.378559 42.431042 47.900162 53.369282 58.847038 64.126083 66.519363 71.807037 75.358078 77.751358 82.278717 87.592323 95.800323 102.6 107.80992 116.00064 121.4784 126.94752 132.2352 135.78624 143.52768 148.80672 154.28448 159.59808 163.14912 168.4368 171.82368 177.10272 180.65376"
           y="0"
           sodipodi:role="line"
           id="tspan44">givestheunpolarizedOPEquarkoperator.</tspan><tspan
           x="-80.170563 -75.358078 -70.070396 -64.592644 -61.041599 -55.753922 -50.284801 -44.807041 -42.413761 -37.12608"
           y="33.119995"
           sodipodi:role="line"
           id="tspan46">Lagrangian</tspan></text><text
         transform="translate(56.7136,65.226872)"
         style="font-variant:normal;font-size:8.64px;font-family:CairoFont-1;-inkscape-font-specification:CairoFont-1-0;writing-mode:lr-tb;fill:#000000;fill-opacity:1;fill-rule:nonzero;stroke:none"
         id="text52"><tspan
           x="0"
           y="0"
           id="tspan50">[</tspan></text><text
         transform="translate(59.10688,65.226872)"
         style="font-variant:normal;font-size:8.64px;font-family:CairoFont-0;-inkscape-font-specification:CairoFont-0-0;writing-mode:lr-tb;fill:#000000;fill-opacity:1;fill-rule:nonzero;stroke:none"
         id="text56"><tspan
           x="0 3.9398401 9.2188797 14.69664 20.1744"
           y="0"
           sodipodi:role="line"
           id="tspan54">&quot;oqp&quot;</tspan></text><text
         transform="translate(83.24704,65.226872)"
         style="font-variant:normal;font-size:8.64px;font-family:CairoFont-1;-inkscape-font-specification:CairoFont-1-0;writing-mode:lr-tb;fill:#000000;fill-opacity:1;fill-rule:nonzero;stroke:none"
         id="text60"><tspan
           x="0"
           y="0"
           id="tspan58">]</tspan></text><text
         transform="translate(88.3792,65.226872)"
         style="font-variant:normal;font-size:8.64px;font-family:CairoFont-0;-inkscape-font-specification:CairoFont-0-0;writing-mode:lr-tb;fill:#000000;fill-opacity:1;fill-rule:nonzero;stroke:none"
         id="text66"><tspan
           x="0 5.4777598 7.8710399 12.97728 18.29088 25.52256 28.909439 34.378559 42.431042 47.908798 53.18784 55.58112 60.868801 64.419838 66.813118 71.340477 76.654083 84.862083 90.339844 95.80896 101.09664 104.64768 112.38912 119.1888 124.39872 132.58945 137.86848 143.34624 148.65984 152.21088 157.49857 160.88544 166.16447 169.71552"
           y="0"
           sodipodi:role="line"
           id="tspan62">givesthepolarizedquarkOPEoperator.</tspan><tspan
           x="-80.179199 -75.366722 -70.079041 -64.60128 -61.05024 -55.762562 -50.293442 -44.815681 -42.422401 -37.13472"
           y="33.119995"
           sodipodi:role="line"
           id="tspan64">Lagrangian</tspan></text><text
         transform="translate(56.7136,98.346869)"
         style="font-variant:normal;font-size:8.64px;font-family:CairoFont-1;-inkscape-font-specification:CairoFont-1-0;writing-mode:lr-tb;fill:#000000;fill-opacity:1;fill-rule:nonzero;stroke:none"
         id="text70"><tspan
           x="0"
           y="0"
           id="tspan68">[</tspan></text><text
         transform="translate(59.10688,98.346869)"
         style="font-variant:normal;font-size:8.64px;font-family:CairoFont-0;-inkscape-font-specification:CairoFont-0-0;writing-mode:lr-tb;fill:#000000;fill-opacity:1;fill-rule:nonzero;stroke:none"
         id="text74"><tspan
           x="0 3.9398401 9.2188797 14.69664 20.16576"
           y="0"
           sodipodi:role="line"
           id="tspan72">&quot;ogu&quot;</tspan></text><text
         transform="translate(83.2384,98.346869)"
         style="font-variant:normal;font-size:8.64px;font-family:CairoFont-1;-inkscape-font-specification:CairoFont-1-0;writing-mode:lr-tb;fill:#000000;fill-opacity:1;fill-rule:nonzero;stroke:none"
         id="text78"><tspan
           x="0"
           y="0"
           id="tspan76">]</tspan></text><text
         transform="translate(88.37056,98.346869)"
         style="font-variant:normal;font-size:8.64px;font-family:CairoFont-0;-inkscape-font-specification:CairoFont-0-0;writing-mode:lr-tb;fill:#000000;fill-opacity:1;fill-rule:nonzero;stroke:none"
         id="text84"><tspan
           x="0 5.4777598 7.8710399 12.97728 18.29088 25.52256 28.909439 34.378559 42.431042 47.900162 53.369282 58.847038 64.126083 66.519363 71.807037 75.358078 77.751358 82.278717 87.592323 95.800323 101.27808 103.67136 109.14048 114.41952 122.62752 129.4272 134.63712 142.82784 148.10687 153.58464 158.89824 162.44928 167.73695 171.12384 176.40288 179.95392"
           y="0"
           sodipodi:role="line"
           id="tspan80">givestheunpolarizedgluonOPEoperator.</tspan><tspan
           x="-80.170563 -75.358078 -70.070396 -64.592644 -61.041599 -55.753922 -50.284801 -44.807041 -42.413761 -37.12608"
           y="33.119995"
           sodipodi:role="line"
           id="tspan82">Lagrangian</tspan></text><text
         transform="translate(56.7136,131.46687)"
         style="font-variant:normal;font-size:8.64px;font-family:CairoFont-1;-inkscape-font-specification:CairoFont-1-0;writing-mode:lr-tb;fill:#000000;fill-opacity:1;fill-rule:nonzero;stroke:none"
         id="text88"><tspan
           x="0"
           y="0"
           id="tspan86">[</tspan></text><text
         transform="translate(59.10688,131.46687)"
         style="font-variant:normal;font-size:8.64px;font-family:CairoFont-0;-inkscape-font-specification:CairoFont-0-0;writing-mode:lr-tb;fill:#000000;fill-opacity:1;fill-rule:nonzero;stroke:none"
         id="text92"><tspan
           x="0 3.9398401 9.2188797 14.69664 20.1744"
           y="0"
           sodipodi:role="line"
           id="tspan90">&quot;ogp&quot;</tspan></text><text
         transform="translate(83.24704,131.46687)"
         style="font-variant:normal;font-size:8.64px;font-family:CairoFont-1;-inkscape-font-specification:CairoFont-1-0;writing-mode:lr-tb;fill:#000000;fill-opacity:1;fill-rule:nonzero;stroke:none"
         id="text96"><tspan
           x="0"
           y="0"
           id="tspan94">]</tspan></text><text
         transform="translate(88.3792,131.46687)"
         style="font-variant:normal;font-size:8.64px;font-family:CairoFont-0;-inkscape-font-specification:CairoFont-0-0;writing-mode:lr-tb;fill:#000000;fill-opacity:1;fill-rule:nonzero;stroke:none"
         id="text102"><tspan
           x="0 5.4777598 7.8710399 12.97728 18.29088 25.52256 28.909439 34.378559 42.431042 47.908798 53.18784 55.58112 60.868801 64.419838 66.813118 71.340477 76.654083 84.862083 90.339844 92.733124 98.20224 103.48128 111.68928 118.48896 123.69888 131.8896 137.16864 142.64639 147.96001 151.51105 156.79872 160.18559 165.46465 169.01569"
           y="0"
           sodipodi:role="line"
           id="tspan98">givesthepolarizedgluonOPEoperator.</tspan><tspan
           x="-77.434204 -72.621719 -67.334045 -61.856281 -58.305244 -53.017563 -47.548443 -42.070683 -39.677402 -34.389725"
           y="33.119995"
           sodipodi:role="line"
           id="tspan100">Lagrangian</tspan></text><text
         transform="translate(59.458597,164.58686)"
         style="font-variant:normal;font-size:8.64px;font-family:CairoFont-1;-inkscape-font-specification:CairoFont-1-0;writing-mode:lr-tb;fill:#000000;fill-opacity:1;fill-rule:nonzero;stroke:none"
         id="text106"><tspan
           x="0"
           y="0"
           id="tspan104">[</tspan></text><text
         transform="translate(61.851877,164.58686)"
         style="font-variant:normal;font-size:8.64px;font-family:CairoFont-0;-inkscape-font-specification:CairoFont-0-0;writing-mode:lr-tb;fill:#000000;fill-opacity:1;fill-rule:nonzero;stroke:none"
         id="text110"><tspan
           x="0 3.9398401 9.2188797 14.69664 20.1744"
           y="0"
           sodipodi:role="line"
           id="tspan108">&quot;ogd&quot;</tspan></text><text
         transform="translate(85.992037,164.58686)"
         style="font-variant:normal;font-size:8.64px;font-family:CairoFont-1;-inkscape-font-specification:CairoFont-1-0;writing-mode:lr-tb;fill:#000000;fill-opacity:1;fill-rule:nonzero;stroke:none"
         id="text114"><tspan
           x="0"
           y="0"
           id="tspan112">]</tspan></text><text
         transform="translate(91.124197,164.58686)"
         style="font-variant:normal;font-size:8.64px;font-family:CairoFont-0;-inkscape-font-specification:CairoFont-0-0;writing-mode:lr-tb;fill:#000000;fill-opacity:1;fill-rule:nonzero;stroke:none"
         id="text118"><tspan
           x="0 5.4777598 7.8710399 12.97728 18.29088 25.52256 28.909439 34.378559 42.431042 46.92384 49.31712 54.79488 63.210239"
           y="0"
           sodipodi:role="line"
           id="tspan116">givesthesigma</tspan></text><text
         transform="translate(159.62212,164.58686)"
         style="font-variant:normal;font-size:8.64px;font-family:CairoFont-1;-inkscape-font-specification:CairoFont-1-0;writing-mode:lr-tb;fill:#000000;fill-opacity:1;fill-rule:nonzero;stroke:none"
         id="text122"><tspan
           x="0"
           y="0"
           id="tspan120">-</tspan></text><text
         transform="translate(164.65924,164.58686)"
         style="font-variant:normal;font-size:8.64px;font-family:CairoFont-0;-inkscape-font-specification:CairoFont-0-0;writing-mode:lr-tb;fill:#000000;fill-opacity:1;fill-rule:nonzero;stroke:none"
         id="text128"><tspan
           x="0 3.3868799 8.7004805 12.25152 23.39712 28.87488 34.16256 37.7136 43.839359 49.118401 55.062721 58.4496 63.91872 71.971199 78.770882 84.801598 94.20192 99.014397 104.30208 109.77984 113.33088 118.61856 124.08768 129.56544 131.95872 137.22047 142.68961"
           y="0"
           sodipodi:role="line"
           id="tspan124">termpartoftheQCDLagrangian.</tspan><tspan
           x="-153.71423 -148.90176 -143.61407 -138.13632 -134.58528 -129.29761 -123.82848 -118.35072 -115.95744 -110.66976"
           y="33.119995"
           sodipodi:role="line"
           id="tspan126">Lagrangian</tspan></text><text
         transform="translate(59.458597,197.70686)"
         style="font-variant:normal;font-size:8.64px;font-family:CairoFont-1;-inkscape-font-specification:CairoFont-1-0;writing-mode:lr-tb;fill:#000000;fill-opacity:1;fill-rule:nonzero;stroke:none"
         id="text132"><tspan
           x="0"
           y="0"
           id="tspan130">[</tspan></text><text
         transform="translate(61.851877,197.70686)"
         style="font-variant:normal;font-size:8.64px;font-family:CairoFont-0;-inkscape-font-specification:CairoFont-0-0;writing-mode:lr-tb;fill:#000000;fill-opacity:1;fill-rule:nonzero;stroke:none"
         id="text136"><tspan
           x="0 3.9398401 10.73952 16.770241 23.42304"
           y="0"
           sodipodi:role="line"
           id="tspan134">&quot;QCD&quot;</tspan></text><text
         transform="translate(89.240677,197.70686)"
         style="font-variant:normal;font-size:8.64px;font-family:CairoFont-1;-inkscape-font-specification:CairoFont-1-0;writing-mode:lr-tb;fill:#000000;fill-opacity:1;fill-rule:nonzero;stroke:none"
         id="text140"><tspan
           x="0"
           y="0"
           id="tspan138">]</tspan></text><text
         transform="translate(94.372837,197.70686)"
         style="font-variant:normal;font-size:8.64px;font-family:CairoFont-0;-inkscape-font-specification:CairoFont-0-0;writing-mode:lr-tb;fill:#000000;fill-opacity:1;fill-rule:nonzero;stroke:none"
         id="text146"><tspan
           x="0 5.4777598 7.8710399 12.97728 18.29088 25.52256 28.909439 34.378559 42.431042 47.908798 50.302078 55.771198 61.05024 69.25824 73.751038 79.064636 81.457916 87.402237 89.795517 95.264641 98.65152 103.96512 107.51616 112.80384 117.5472 120.93408 123.32736 128.6064 136.80576 142.28352 147.5712 151.12224 157.248 162.52704 168.48 171.86688 177.336 185.38847 192.18816 198.21889"
           y="0"
           sodipodi:role="line"
           id="tspan142">givesthegluonselfinteractionpartoftheQCD</tspan><tspan
           x="-86.172836 -81.360359 -76.072678 -70.594917 -67.043877 -61.756199 -56.287079 -50.809319 -48.416039 -43.128357 -37.659237"
           y="16.560003"
           sodipodi:role="line"
           id="tspan144">Lagrangian.</tspan></text></g><g
       id="g148"><g
         id="g150"
         clip-path="url(#clipPath154)"><path
           d="m 8.922,229.879 2.156,1.922 2.16,-1.922"
           style="fill:none;stroke:#636363;stroke-width:1.26;stroke-linecap:square;stroke-linejoin:miter;stroke-miterlimit:3.25;stroke-dasharray:none;stroke-opacity:1"
           id="path156" /></g></g><g
       id="g158"><path
         d="m 1,13.891 h 321.145 v 0.145 H 1 Z"
         style="fill:#cccccc;fill-opacity:1;fill-rule:nonzero;stroke:none"
         id="path160" /><path
         d="m 1,224.777 h 321.145 v 0.145 H 1 Z"
         style="fill:#cccccc;fill-opacity:1;fill-rule:nonzero;stroke:none"
         id="path162" /><path
         d="M 4.102,1.5 C 3.145,1.5 2.23,1.879 1.555,2.555 0.879,3.23 0.5,4.145 0.5,5.102 v 228.796 c 0,0.957 0.379,1.872 1.055,2.547 0.675,0.676 1.59,1.055 2.547,1.055 h 315.796 c 0.957,0 1.872,-0.379 2.547,-1.055 0.676,-0.675 1.055,-1.59 1.055,-2.547 V 5.102 C 323.5,4.145 323.121,3.23 322.445,2.555 321.77,1.879 320.855,1.5 319.898,1.5 Z"
         style="fill:none;stroke:#d9d9d9;stroke-width:1;stroke-linecap:square;stroke-linejoin:miter;stroke-miterlimit:10;stroke-dasharray:none;stroke-opacity:1"
         id="path164" /></g></g></svg>
