<?xml version="1.0" encoding="UTF-8" standalone="no"?>
<!-- Created with Inkscape (http://www.inkscape.org/) -->

<svg
   version="1.1"
   id="svg1"
   width="346.66666"
   height="72"
   viewBox="0 0 346.66666 72"
   sodipodi:docname="1r730ukytygg4.pdf"
   xmlns:inkscape="http://www.inkscape.org/namespaces/inkscape"
   xmlns:sodipodi="http://sodipodi.sourceforge.net/DTD/sodipodi-0.dtd"
   xmlns="http://www.w3.org/2000/svg"
   xmlns:svg="http://www.w3.org/2000/svg">
  <defs
     id="defs1" />
  <sodipodi:namedview
     id="namedview1"
     pagecolor="#ffffff"
     bordercolor="#999999"
     borderopacity="1"
     inkscape:showpageshadow="0"
     inkscape:pageopacity="0"
     inkscape:pagecheckerboard="0"
     inkscape:deskcolor="#d1d1d1">
    <inkscape:page
       x="0"
       y="0"
       id="page1"
       width="346.66666"
       height="72"
       margin="0"
       bleed="0" />
  </sodipodi:namedview>
  <g
     id="g1"
     inkscape:groupmode="layer"
     inkscape:label="">
    <path
       id="path1"
       d="M 9.664,26.656 69.5,26.641"
       style="fill:none;stroke:#000000;stroke-width:1.44;stroke-linecap:butt;stroke-linejoin:miter;stroke-miterlimit:3.25;stroke-dasharray:none;stroke-opacity:0.7"
       transform="scale(1.3333333)" />
    <path
       id="path2"
       d="m 73.867,27.352 53.778,17.953"
       style="fill:none;stroke:#000000;stroke-width:1.44;stroke-linecap:butt;stroke-linejoin:miter;stroke-miterlimit:3.25;stroke-dasharray:2.88, 2.88;stroke-dashoffset:0;stroke-opacity:0.7"
       transform="scale(1.3333333)" />
    <path
       id="path3"
       d="m 73.867,25.93 53.774,-18"
       style="fill:none;stroke:#000000;stroke-width:1.44;stroke-linecap:butt;stroke-linejoin:miter;stroke-miterlimit:3.25;stroke-dasharray:2.88, 2.88;stroke-dashoffset:0;stroke-opacity:0.7"
       transform="scale(1.3333333)" />
    <path
       id="path4"
       d="m 249.535,26.66 -59.59,-0.031"
       style="fill:none;stroke:#000000;stroke-width:1.44;stroke-linecap:butt;stroke-linejoin:miter;stroke-miterlimit:3.25;stroke-dasharray:none;stroke-opacity:0.7"
       transform="scale(1.3333333)" />
    <path
       id="path5"
       d="M 185.578,27.34 131.895,45.305"
       style="fill:none;stroke:#000000;stroke-width:1.44;stroke-linecap:butt;stroke-linejoin:miter;stroke-miterlimit:3.25;stroke-dasharray:2.88, 2.88;stroke-dashoffset:0;stroke-opacity:0.7"
       transform="scale(1.3333333)" />
    <path
       id="path6"
       d="M 185.578,25.918 131.891,7.93"
       style="fill:none;stroke:#000000;stroke-width:1.44;stroke-linecap:butt;stroke-linejoin:miter;stroke-miterlimit:3.25;stroke-dasharray:2.88, 2.88;stroke-dashoffset:0;stroke-opacity:0.7"
       transform="scale(1.3333333)" />
    <path
       id="path7"
       d="M 129.77,43.773 129.766,9.457"
       style="fill:none;stroke:#000000;stroke-width:1.44;stroke-linecap:butt;stroke-linejoin:miter;stroke-miterlimit:3.25;stroke-dasharray:2.88, 2.88;stroke-dashoffset:0;stroke-opacity:0.7"
       transform="scale(1.3333333)" />
    <path
       id="path8"
       d="M 9.664,26.656 C 9.664,27.25 9.43,27.82 9.008,28.242 8.59,28.66 8.02,28.898 7.426,28.898 6.832,28.898 6.262,28.66 5.84,28.242 5.422,27.82 5.184,27.25 5.184,26.656 c 0,-0.594 0.238,-1.164 0.656,-1.582 0.422,-0.422 0.992,-0.66 1.586,-0.66 0.594,0 1.164,0.238 1.582,0.66 0.422,0.418 0.656,0.988 0.656,1.582 z"
       style="fill:#a3b4cc;fill-opacity:1;fill-rule:evenodd;stroke:#000000;stroke-width:0.36;stroke-linecap:square;stroke-linejoin:miter;stroke-miterlimit:3.25;stroke-dasharray:none;stroke-opacity:0.7"
       transform="scale(1.3333333)" />
    <path
       id="path9"
       d="m 73.984,26.641 c 0,0.593 -0.238,1.164 -0.656,1.586 -0.422,0.418 -0.992,0.656 -1.586,0.656 -0.594,0 -1.164,-0.238 -1.582,-0.656 -0.422,-0.422 -0.66,-0.993 -0.66,-1.586 0,-0.594 0.238,-1.164 0.66,-1.582 0.418,-0.422 0.988,-0.661 1.582,-0.661 0.594,0 1.164,0.239 1.586,0.661 0.418,0.418 0.656,0.988 0.656,1.582 z"
       style="fill:#a3b4cc;fill-opacity:1;fill-rule:evenodd;stroke:#000000;stroke-width:0.36;stroke-linecap:square;stroke-linejoin:miter;stroke-miterlimit:3.25;stroke-dasharray:none;stroke-opacity:0.7"
       transform="scale(1.3333333)" />
    <path
       id="path10"
       d="m 254.016,26.66 c 0,0.598 -0.235,1.164 -0.657,1.586 -0.421,0.422 -0.988,0.656 -1.586,0.656 -0.593,0 -1.164,-0.234 -1.582,-0.656 -0.421,-0.422 -0.656,-0.988 -0.656,-1.586 0,-0.594 0.235,-1.164 0.656,-1.582 0.418,-0.422 0.989,-0.656 1.582,-0.656 0.598,0 1.165,0.234 1.586,0.656 0.422,0.418 0.657,0.988 0.657,1.582 z"
       style="fill:#a3b4cc;fill-opacity:1;fill-rule:evenodd;stroke:#000000;stroke-width:0.36;stroke-linecap:square;stroke-linejoin:miter;stroke-miterlimit:3.25;stroke-dasharray:none;stroke-opacity:0.7"
       transform="scale(1.3333333)" />
    <path
       id="path11"
       d="m 189.945,26.629 c 0,0.594 -0.238,1.164 -0.656,1.586 -0.422,0.418 -0.992,0.656 -1.586,0.656 -0.594,0 -1.164,-0.238 -1.586,-0.656 -0.418,-0.422 -0.656,-0.992 -0.656,-1.586 0,-0.594 0.238,-1.164 0.656,-1.586 0.422,-0.418 0.992,-0.656 1.586,-0.656 0.594,0 1.164,0.238 1.586,0.656 0.418,0.422 0.656,0.992 0.656,1.586 z"
       style="fill:#a3b4cc;fill-opacity:1;fill-rule:evenodd;stroke:#000000;stroke-width:0.36;stroke-linecap:square;stroke-linejoin:miter;stroke-miterlimit:3.25;stroke-dasharray:none;stroke-opacity:0.7"
       transform="scale(1.3333333)" />
    <path
       id="path12"
       d="m 132.012,46.016 c 0,0.593 -0.235,1.164 -0.657,1.586 -0.421,0.418 -0.988,0.656 -1.585,0.656 -0.594,0 -1.165,-0.238 -1.582,-0.656 -0.422,-0.422 -0.657,-0.993 -0.657,-1.586 0,-0.594 0.235,-1.164 0.657,-1.586 0.417,-0.418 0.988,-0.657 1.582,-0.657 0.597,0 1.164,0.239 1.585,0.657 0.422,0.422 0.657,0.992 0.657,1.586 z"
       style="fill:#a3b4cc;fill-opacity:1;fill-rule:evenodd;stroke:#000000;stroke-width:0.36;stroke-linecap:square;stroke-linejoin:miter;stroke-miterlimit:3.25;stroke-dasharray:none;stroke-opacity:0.7"
       transform="scale(1.3333333)" />
    <path
       id="path13"
       d="m 132.004,7.219 c 0,0.593 -0.234,1.164 -0.656,1.582 -0.418,0.422 -0.989,0.656 -1.582,0.656 -0.598,0 -1.168,-0.234 -1.586,-0.656 -0.422,-0.418 -0.657,-0.989 -0.657,-1.582 0,-0.594 0.235,-1.164 0.657,-1.586 0.418,-0.422 0.988,-0.656 1.586,-0.656 0.593,0 1.164,0.234 1.582,0.656 0.422,0.422 0.656,0.992 0.656,1.586 z"
       style="fill:#a3b4cc;fill-opacity:1;fill-rule:evenodd;stroke:#000000;stroke-width:0.36;stroke-linecap:square;stroke-linejoin:miter;stroke-miterlimit:3.25;stroke-dasharray:none;stroke-opacity:0.7"
       transform="scale(1.3333333)" />
  </g>
</svg>
