<?xml version="1.0" encoding="UTF-8" standalone="no"?>
<!-- Created with Inkscape (http://www.inkscape.org/) -->

<svg
   version="1.1"
   id="svg1"
   width="540"
   height="44"
   viewBox="0 0 540 44"
   sodipodi:docname="1sdh86qtjcuid.pdf"
   xmlns:inkscape="http://www.inkscape.org/namespaces/inkscape"
   xmlns:sodipodi="http://sodipodi.sourceforge.net/DTD/sodipodi-0.dtd"
   xmlns="http://www.w3.org/2000/svg"
   xmlns:svg="http://www.w3.org/2000/svg">
  <defs
     id="defs1" />
  <sodipodi:namedview
     id="namedview1"
     pagecolor="#ffffff"
     bordercolor="#999999"
     borderopacity="1"
     inkscape:showpageshadow="0"
     inkscape:pageopacity="0"
     inkscape:pagecheckerboard="0"
     inkscape:deskcolor="#d1d1d1">
    <inkscape:page
       x="0"
       y="0"
       id="page1"
       width="540"
       height="44"
       margin="0"
       bleed="0" />
  </sodipodi:namedview>
  <g
     id="g1"
     inkscape:groupmode="layer"
     inkscape:label="">
    <g
       id="g2"
       aria-label="-"
       transform="matrix(1.3333333,0,0,1.3333333,0,17.333333)">
      <path
         id="path2"
         d="m 2.859375,4.2060547 c 0,0.011719 -0.011719,0.023437 -0.035156,0.023437 -0.011719,0 -0.046875,-0.011719 -0.09375,-0.023437 -0.339844,-0.09375 -0.6328127,-0.3164063 -0.8789065,-0.6328125 -0.375,-0.515625 -0.5625,-1.2304688 -0.5625,-2.1445313 V 0.23339844 c 0,-1.03125 -0.31640625,-1.71093754 -0.94921875,-2.07421874 v -0.011719 c 0.6328125,-0.363281 0.94921875,-1.066406 0.94921875,-2.0859373 v -1.1953125 c 0,-0.9140625 0.1875,-1.640625 0.5625,-2.1445312 0.2460938,-0.3164063 0.5390625,-0.5390625 0.8789063,-0.6445313 0.046875,-0.011719 0.082031,-0.023437 0.09375,-0.023437 0.023437,0 0.035156,0.011719 0.035156,0.035156 0,0.035156 -0.035156,0.070312 -0.1171875,0.1171875 -0.328125,0.1640625 -0.5507812,0.46875 -0.703125,0.9023437 -0.1289063,0.4101563 -0.1992188,0.9960938 -0.1992188,1.7460938 v 1.21875 c 0,0.3515625 -0.070312,0.7265625 -0.2109375,1.078125 -0.1757812,0.4921875 -0.4453125,0.8203125 -0.79687495,0.9960937 0.35156245,0.1757813 0.62109375,0.5039063 0.79687495,0.98437504 0.140625,0.375 0.2109375,0.7265625 0.2109375,1.08984375 V 1.4404297 c 0,0.75 0.070312,1.3242187 0.1992188,1.734375 0.1523438,0.4453125 0.375,0.75 0.703125,0.9140625 0.082031,0.035156 0.1171875,0.082031 0.1171877,0.1171875 z m 0,0"
         style="fill:#000000;fill-opacity:1;fill-rule:nonzero;stroke:none" />
      <path
         id="path3"
         d="M 9.2636719,-1.6533203 H 5.5722656 v -0.3984375 h 3.6914063 z m 0,0"
         style="fill:#000000;fill-opacity:1;fill-rule:nonzero;stroke:none" />
    </g>
    <path
       id="path4"
       d="m 1.4296875,-3.0947266 -0.011719,-0.1171875 c 0.4921875,-0.1523437 0.8554687,-0.3398437 1.1015625,-0.5625 0.2929687,-0.2695312 0.4570312,-0.609375 0.4570312,-1.0195312 0,-0.2578125 -0.082031,-0.4804688 -0.2460937,-0.6679688 -0.1875,-0.1992187 -0.4570313,-0.3046875 -0.7851563,-0.3046875 -0.2929687,0 -0.5390625,0.082031 -0.7617187,0.2460938 C 0.94921875,-5.3681641 0.75,-5.1103516 0.5625,-4.7705078 l -0.140625,-0.046875 c 0.1640625,-0.5507813 0.4453125,-0.9492188 0.8203125,-1.21875 0.2929688,-0.1875 0.6328125,-0.2929688 1.0195313,-0.2929688 0.515625,0 0.9140625,0.1640625 1.171875,0.4804688 0.1875,0.2460937 0.28125,0.5039062 0.28125,0.7851562 0,0.2578125 -0.070312,0.4921875 -0.1992188,0.703125 -0.140625,0.1992188 -0.3632812,0.3984375 -0.6679687,0.609375 0.4335937,0.1875 0.7265625,0.4101563 0.9140625,0.6914063 0.1757812,0.28125 0.2695312,0.6210937 0.2695312,1.03125 0,0.65625 -0.234375,1.18359374 -0.7265625,1.58203124 C 2.8125,-0.05957031 2.1914063,0.12792969 1.4414063,0.12792969 c -0.328125,0 -0.5742188,-0.046875 -0.7617188,-0.140625 -0.1875,-0.09375 -0.28125,-0.22265625 -0.28125,-0.38671875 0,-0.1171875 0.0351563,-0.19921875 0.10546875,-0.2578125 0.0820313,-0.046875 0.1640625,-0.0703125 0.26953125,-0.0703125 0.12890625,0 0.328125,0.09375 0.609375,0.2578125 0.28125,0.17578125 0.515625,0.2578125 0.7265625,0.2578125 0.3984375,0 0.7148438,-0.140625 0.9492188,-0.45703125 0.1992187,-0.2578125 0.3046875,-0.58593749 0.3046875,-0.98437499 0,-0.1875 -0.046875,-0.375 -0.1289063,-0.5859375 C 3.09375,-2.5439453 2.90625,-2.7548828 2.6484375,-2.8837891 2.484375,-2.9658203 2.3203125,-3.0244141 2.1679688,-3.0478516 2.015625,-3.0712891 1.7695313,-3.0947266 1.4296875,-3.0947266 Z m 0,0"
       style="fill:#000000;fill-opacity:1;fill-rule:nonzero;stroke:none"
       aria-label="3"
       transform="matrix(1.3333333,0,0,1.3333333,12.8125,17.333333)" />
    <path
       id="path5"
       d="M 0.44628906,-2.0400391 H 4.7001953 l -0.8671875,-1.0429687 0.2226563,-0.2226563 1.40625,1.4648438 -1.40625,1.47656249 -0.2226563,-0.234375 0.8671875,-1.05468749 H 0.44628906 Z m 0,0"
       style="fill:#000000;fill-opacity:1;fill-rule:nonzero;stroke:none"
       aria-label="→"
       transform="matrix(1.3333333,0,0,1.3333333,21.479167,17.333333)" />
    <path
       id="path6"
       d="M 4.453125,-1.2783203 3.9375,-9.765625e-4 H 0.28125 V -0.11816406 L 1.9453125,-1.8876953 c 0.8085937,-0.8554688 1.21875,-1.6640625 1.21875,-2.4140625 0,-0.3164063 -0.082031,-0.5976563 -0.2578125,-0.84375 -0.234375,-0.328125 -0.5976563,-0.4921875 -1.078125,-0.4921875 -0.375,0 -0.6914063,0.140625 -0.9140625,0.4101562 -0.12890625,0.1640625 -0.28125,0.4335938 -0.421875,0.8085938 L 0.29296875,-4.4658203 C 0.421875,-5.1220703 0.6796875,-5.6142578 1.078125,-5.9306641 1.40625,-6.1884766 1.8046875,-6.3291016 2.2734375,-6.3291016 c 0.4570312,0 0.84375,0.1523438 1.1835937,0.46875 0.3398438,0.3046875 0.515625,0.7148438 0.515625,1.21875 0,0.4335938 -0.1523437,0.890625 -0.4453125,1.3476563 -0.1640625,0.2578125 -0.421875,0.5625 -0.75,0.9375 l -1.5820312,1.64062499 h 2.2382812 c 0.1992188,0 0.3515625,-0.0234375 0.4453125,-0.0820313 0.1171875,-0.0703125 0.2695313,-0.24609379 0.4453125,-0.52734379 z m 0,0"
       style="fill:#000000;fill-opacity:1;fill-rule:nonzero;stroke:none"
       aria-label="2"
       transform="matrix(1.3333333,0,0,1.3333333,31.8125,17.333333)" />
    <path
       id="path7"
       d="M 4.1601563,-1.6512266 H 0.46875 v -0.3984375 h 3.6914063 z m 0,0"
       style="fill:#000000;fill-opacity:1;fill-rule:nonzero;stroke:none"
       aria-label="-"
       transform="matrix(1.3333333,0,0,1.3333333,16.8125,34.471167)" />
    <g
       id="g7"
       aria-label="q&#10;,"
       transform="matrix(1.3333333,0,0,1.3333333,22.8125,34.471167)">
      <path
         id="path8"
         d="m 2.9414063,-4.1356016 c 0.234375,0 0.4101562,0.058594 0.5273437,0.1640625 0.070312,0.070312 0.140625,0.1992188 0.2226563,0.3867188 l 0.140625,-0.421875 H 4.5117187 L 2.9882813,1.4190859 c 0,0.011719 -0.011719,0.035156 -0.011719,0.046875 0,0.011719 -0.011719,0.035156 -0.011719,0.046875 0,0.1289063 0.070312,0.1992188 0.1757812,0.234375 0.09375,0.023437 0.2578125,0.035156 0.515625,0.035156 v 0.1757812 h -2.25 V 1.8058047 c 0.3046875,-0.035156 0.515625,-0.070312 0.6210938,-0.1289063 0.1171875,-0.046875 0.1875,-0.1757812 0.2578125,-0.3632812 l 0.796875,-2.6953125 c -0.3164063,0.45703124 -0.5859375,0.78515624 -0.7851563,0.98437499 -0.3632813,0.328125 -0.7382813,0.515625 -1.125,0.515625 -0.22265625,0 -0.43359375,-0.09375 -0.64453125,-0.28125 -0.22265625,-0.17578125 -0.328125,-0.46875 -0.328125,-0.89062499 0,-0.65625 0.3046875,-1.3476563 0.92578125,-2.0390625 0.6210937,-0.703125 1.2304688,-1.0429688 1.8164068,-1.0429688 z m 0.609375,0.8554688 c 0,-0.234375 -0.058594,-0.3984375 -0.1757813,-0.5039063 -0.1171875,-0.09375 -0.2460937,-0.140625 -0.375,-0.140625 -0.4453125,0 -0.8789062,0.3515625 -1.3359375,1.03125 -0.421875,0.65625 -0.6210938,1.2421875 -0.6210938,1.7578125 0,0.26953129 0.046875,0.46875004 0.1640625,0.57421879 0.1171875,0.10546875 0.234375,0.1640625 0.3632813,0.1640625 0.4335938,0 0.8789063,-0.36328125 1.3242188,-1.06640629 0.4335937,-0.6796875 0.65625,-1.2773437 0.65625,-1.8164062 z m 0,0"
         style="fill:#000000;fill-opacity:1;fill-rule:nonzero;stroke:none" />
      <path
         id="path9"
         d="m 14.774414,-11.530133 -0.08203,-0.1875 c 0.269531,-0.164062 0.480469,-0.363281 0.621094,-0.574219 0.09375,-0.152343 0.152343,-0.292968 0.152343,-0.410156 0,-0.08203 -0.04687,-0.128906 -0.140625,-0.128906 l -0.08203,0.01172 -0.140625,0.02344 c -0.152344,0 -0.28125,-0.03516 -0.375,-0.09375 -0.140625,-0.08203 -0.199219,-0.210937 -0.199219,-0.375 0,-0.1875 0.04687,-0.316406 0.152344,-0.410156 0.117188,-0.09375 0.234375,-0.128906 0.386719,-0.128906 0.164062,0 0.328125,0.04687 0.457031,0.140625 0.199219,0.164062 0.304688,0.410156 0.304688,0.75 0,0.304687 -0.140625,0.597656 -0.410157,0.902343 -0.234375,0.257813 -0.457031,0.421875 -0.644531,0.480469 z m 0,0"
         style="fill:#000000;fill-opacity:1;fill-rule:nonzero;stroke:none" />
    </g>
    <path
       id="path10"
       d="M 4.1601562,-1.6533203 H 0.46875 v -0.3984375 h 3.6914062 z m 0,0"
       style="fill:#000000;fill-opacity:1;fill-rule:nonzero;stroke:none"
       aria-label="-"
       transform="matrix(1.3333333,0,0,1.3333333,49.8125,17.333333)" />
    <path
       id="path11"
       d="M 1.1015625,-9.765625e-4 V -0.14160156 c 0.3164062,0 0.5390625,-0.0234375 0.6445312,-0.10546875 0.1640625,-0.09375 0.2460938,-0.3046875 0.2460938,-0.62109375 V -5.1103516 c 0,-0.1289062 -0.011719,-0.234375 -0.035156,-0.2929687 -0.046875,-0.09375 -0.140625,-0.1523438 -0.28125,-0.1523438 -0.070312,0 -0.1171875,0.011719 -0.1640625,0.023437 -0.140625,0.058594 -0.3046875,0.1171875 -0.46875,0.1875 v -0.1289062 l 1.6875001,-0.8554688 0.070312,0.011719 v 5.62499999 c 0,0.22265625 0.058594,0.36328125 0.1757812,0.43359375 0.1171875,0.0820313 0.3515625,0.1171875 0.7148438,0.1171875 v 0.1406249975 z m 0,0"
       style="fill:#000000;fill-opacity:1;fill-rule:nonzero;stroke:none"
       aria-label="1"
       transform="matrix(1.3333333,0,0,1.3333333,55.8125,17.333333)" />
    <path
       id="path12"
       d="M 0.44628906,-2.0400391 H 4.7001953 l -0.8671875,-1.0429687 0.2226563,-0.2226563 1.40625,1.4648438 -1.40625,1.47656249 -0.2226563,-0.234375 0.8671875,-1.05468749 H 0.44628906 Z m 0,0"
       style="fill:#000000;fill-opacity:1;fill-rule:nonzero;stroke:none"
       aria-label="→"
       transform="matrix(1.3333333,0,0,1.3333333,64.479167,17.333333)" />
    <g
       id="g12"
       aria-label="1&#10;q&#10;,1"
       transform="matrix(1.3333333,0,0,1.3333333,74.8125,17.333333)">
      <path
         id="path13"
         d="M 1.1015625,-9.765625e-4 V -0.14160156 c 0.3164062,0 0.5390625,-0.0234375 0.6445312,-0.10546875 0.1640625,-0.09375 0.2460938,-0.3046875 0.2460938,-0.62109375 V -5.1103516 c 0,-0.1289062 -0.011719,-0.234375 -0.035156,-0.2929687 -0.046875,-0.09375 -0.140625,-0.1523438 -0.28125,-0.1523438 -0.070312,0 -0.1171875,0.011719 -0.1640625,0.023437 -0.140625,0.058594 -0.3046875,0.1171875 -0.46875,0.1875 v -0.1289062 l 1.6875001,-0.8554688 0.070312,0.011719 v 5.62499999 c 0,0.22265625 0.058594,0.36328125 0.1757812,0.43359375 0.1171875,0.0820313 0.3515625,0.1171875 0.7148438,0.1171875 v 0.1406249975 z m 0,0"
         style="fill:#000000;fill-opacity:1;fill-rule:nonzero;stroke:none" />
      <path
         id="path14"
         d="m -6.0585937,8.7177734 c 0.234375,0 0.4101562,0.058594 0.5273437,0.1640625 0.070312,0.070312 0.140625,0.1992188 0.2226563,0.3867188 l 0.140625,-0.421875 h 0.6796875 l -1.5234375,5.4257813 c 0,0.01172 -0.011719,0.03516 -0.011719,0.04687 0,0.01172 -0.011719,0.03516 -0.011719,0.04687 0,0.128906 0.070312,0.199219 0.1757812,0.234375 0.09375,0.02344 0.2578125,0.03516 0.515625,0.03516 v 0.175781 h -2.25 V 14.65918 c 0.3046875,-0.03516 0.515625,-0.07031 0.6210938,-0.128907 0.1171875,-0.04687 0.1875,-0.175781 0.2578125,-0.363281 l 0.796875,-2.695312 c -0.3164063,0.457031 -0.5859375,0.785156 -0.7851563,0.984375 -0.3632812,0.328125 -0.7382812,0.515625 -1.125,0.515625 -0.2226563,0 -0.4335938,-0.09375 -0.6445313,-0.28125 -0.2226562,-0.175782 -0.328125,-0.46875 -0.328125,-0.890625 0,-0.65625 0.3046875,-1.347657 0.9257813,-2.0390628 0.6210938,-0.703125 1.2304688,-1.0429688 1.8164068,-1.0429688 z m 0.609375,0.8554688 c 0,-0.234375 -0.058594,-0.3984375 -0.1757813,-0.5039063 -0.1171875,-0.09375 -0.2460937,-0.140625 -0.375,-0.140625 -0.4453125,0 -0.8789062,0.3515625 -1.3359375,1.03125 -0.421875,0.6562501 -0.6210937,1.2421871 -0.6210937,1.7578121 0,0.269532 0.046875,0.46875 0.1640625,0.574219 0.1171875,0.105469 0.234375,0.164063 0.3632812,0.164063 0.4335938,0 0.8789063,-0.363282 1.3242188,-1.066407 0.4335937,-0.679687 0.65625,-1.277343 0.65625,-1.8164058 z m 0,0"
         style="fill:#000000;fill-opacity:1;fill-rule:nonzero;stroke:none" />
      <path
         id="path15"
         d="m 8.0244141,1.3232422 -0.082031,-0.1875 C 8.2119141,0.97167969 8.4228516,0.77246094 8.5634766,0.56152344 8.6572266,0.40917969 8.7158203,0.26855469 8.7158203,0.15136719 c 0,-0.08203125 -0.046875,-0.12890625 -0.140625,-0.12890625 l -0.082031,0.01171875 -0.140625,0.0234375 c -0.1523438,0 -0.28125,-0.03515625 -0.375,-0.09375 -0.140625,-0.08203125 -0.1992188,-0.2109375 -0.1992188,-0.375 0,-0.1875 0.046875,-0.31640625 0.1523438,-0.41015625 0.1171875,-0.09375 0.234375,-0.12890625 0.3867187,-0.12890625 0.1640625,0 0.328125,0.046875 0.4570313,0.140625 0.1992187,0.1640625 0.3046875,0.41015625 0.3046875,0.75 0,0.3046875 -0.140625,0.59765625 -0.4101563,0.90234375 C 8.4345703,1.1005859 8.2119141,1.2646484 8.0244141,1.3232422 Z M 21.65332,-9.765625e-4 V -0.14160156 c 0.316407,0 0.539063,-0.0234375 0.644532,-0.10546875 0.164062,-0.09375 0.246093,-0.3046875 0.246093,-0.62109375 V -5.1103516 c 0,-0.1289062 -0.01172,-0.234375 -0.03516,-0.2929687 -0.04687,-0.09375 -0.140625,-0.1523438 -0.28125,-0.1523438 -0.07031,0 -0.117187,0.011719 -0.164062,0.023437 -0.140625,0.058594 -0.304688,0.1171875 -0.46875,0.1875 v -0.1289062 l 1.6875,-0.8554688 0.07031,0.011719 v 5.62499999 c 0,0.22265625 0.05859,0.36328125 0.175781,0.43359375 0.117188,0.0820313 0.351563,0.1171875 0.714844,0.1171875 v 0.1406249975 z m 0,0"
         style="fill:#000000;fill-opacity:1;fill-rule:nonzero;stroke:none" />
    </g>
    <path
       id="path16"
       d="m 0.4453125,-2.0400391 h 4.2539062 l -0.8671874,-1.0429687 0.2226562,-0.2226563 1.40625,1.4648438 -1.40625,1.47656249 -0.2226562,-0.234375 0.8671874,-1.05468749 H 0.4453125 Z m 0,0"
       style="fill:#000000;fill-opacity:1;fill-rule:nonzero;stroke:none"
       aria-label="→"
       transform="matrix(1.3333333,0,0,1.3333333,110.875,17.333333)" />
    <path
       id="path17"
       d="m 1.4287109,-3.0947266 -0.011719,-0.1171875 c 0.4921875,-0.1523437 0.8554687,-0.3398437 1.1015625,-0.5625 0.2929687,-0.2695312 0.4570312,-0.609375 0.4570312,-1.0195312 0,-0.2578125 -0.082031,-0.4804688 -0.2460937,-0.6679688 -0.1875,-0.1992187 -0.4570313,-0.3046875 -0.7851563,-0.3046875 -0.2929687,0 -0.5390625,0.082031 -0.7617187,0.2460938 -0.23437501,0.1523437 -0.43359376,0.4101562 -0.62109376,0.75 l -0.140625,-0.046875 c 0.1640625,-0.5507813 0.4453125,-0.9492188 0.82031246,-1.21875 0.2929688,-0.1875 0.6328125,-0.2929688 1.0195313,-0.2929688 0.515625,0 0.9140625,0.1640625 1.171875,0.4804688 0.1875,0.2460937 0.28125,0.5039062 0.28125,0.7851562 0,0.2578125 -0.070312,0.4921875 -0.1992188,0.703125 -0.140625,0.1992188 -0.3632812,0.3984375 -0.6679687,0.609375 0.4335937,0.1875 0.7265625,0.4101563 0.9140625,0.6914063 0.1757812,0.28125 0.2695312,0.6210937 0.2695312,1.03125 0,0.65625 -0.234375,1.18359374 -0.7265625,1.58203124 -0.4921875,0.38671875 -1.1132812,0.57421875 -1.8632812,0.57421875 -0.328125,0 -0.57421876,-0.046875 -0.76171876,-0.140625 -0.1875,-0.09375 -0.28125,-0.22265625 -0.28125,-0.38671875 0,-0.1171875 0.0351563,-0.19921875 0.10546875,-0.2578125 0.0820313,-0.046875 0.1640625,-0.0703125 0.26953125,-0.0703125 0.12890625,0 0.32812496,0.09375 0.60937496,0.2578125 0.28125,0.17578125 0.515625,0.2578125 0.7265625,0.2578125 0.3984375,0 0.7148438,-0.140625 0.9492188,-0.45703125 0.1992187,-0.2578125 0.3046875,-0.58593749 0.3046875,-0.98437499 0,-0.1875 -0.046875,-0.375 -0.1289063,-0.5859375 -0.140625,-0.3046875 -0.328125,-0.515625 -0.5859375,-0.6445313 -0.1640625,-0.082031 -0.328125,-0.140625 -0.4804687,-0.1640625 -0.1523438,-0.023437 -0.3984375,-0.046875 -0.738281,-0.046875 z m 0,0"
       style="fill:#000000;fill-opacity:1;fill-rule:nonzero;stroke:none"
       aria-label="3"
       transform="matrix(1.3333333,0,0,1.3333333,121.20833,17.333333)" />
    <path
       id="path18"
       d="M 2.0039063,1.1964297 C 1.546875,1.1964297 1.21875,1.0558047 1.0195313,0.78627344 0.90234375,0.64564844 0.85546875,0.48158594 0.85546875,0.30580469 V -1.1824766 c 0,-0.2929687 -0.17578125,-0.515625 -0.52734375,-0.65625 0.1875,-0.09375 0.31640625,-0.1875 0.3984375,-0.2695312 0.0820313,-0.09375 0.12890625,-0.2460938 0.12890625,-0.421875 v -1.4882813 c 0,-0.1523437 0.046875,-0.3164062 0.16406255,-0.4804687 0.1640625,-0.2578125 0.5039062,-0.3984375 0.984375,-0.3984375 v 0.058594 c -0.1992188,0 -0.3632813,0.082031 -0.4804688,0.2460938 -0.1054687,0.1289062 -0.1523437,0.2929687 -0.1523437,0.46875 v 1.4296875 c 0,0.46875 -0.1875,0.75 -0.56250005,0.84375 0.21093755,0.070312 0.35156255,0.1640625 0.44531255,0.2929687 0.082031,0.1171875 0.1171875,0.3046875 0.1171875,0.5273438 v 1.44140624 c 0,0.17578125 0.058594,0.33984375 0.1640625,0.4921875 0.1289062,0.15234376 0.28125,0.24609376 0.46875,0.24609376 z m 0,0"
       style="fill:#000000;fill-opacity:1;fill-rule:nonzero;stroke:none"
       aria-label="{"
       transform="matrix(1.3333333,0,0,1.3333333,92.8125,36.283667)" />
    <path
       id="path19"
       d="m 0.0703125,0.00111719 v -0.140625 c 0.31640625,-0.046875 0.515625,-0.10546875 0.5859375,-0.1640625 0.0703125,-0.0585938 0.1171875,-0.22265625 0.1171875,-0.46875 V -5.2840391 c 0,-0.2226562 -0.0351563,-0.375 -0.0820313,-0.4453125 -0.0585938,-0.070312 -0.1640625,-0.1171875 -0.33984375,-0.1171875 l -0.28125,0.011719 v -0.1523438 c 0.234375,-0.046875 0.45703125,-0.1171875 0.66796875,-0.1757812 0.2109375,-0.058594 0.4687499,-0.1289063 0.7734374,-0.234375 l 0.046875,0.023437 v 3.890625 l 0.011719,0.023437 1.2656251,-1.125 c 0.140625,-0.1289063 0.2109375,-0.234375 0.2109375,-0.3164063 0,-0.058594 -0.035156,-0.1054687 -0.09375,-0.1289062 -0.046875,-0.035156 -0.1757812,-0.046875 -0.3632812,-0.046875 v -0.140625 H 4.5 v 0.140625 c -0.3046875,0 -0.5507812,0.046875 -0.7265625,0.140625 -0.28125,0.1523437 -0.7265625,0.5039062 -1.3007812,1.0429687 l -0.2695313,0.2578125 1.4296875,1.81640629 c 0.2109375,0.2578125 0.421875,0.4453125 0.6328125,0.5625 0.140625,0.0820313 0.3046875,0.1171875 0.4570312,0.1171875 v 0.140625 H 2.6835938 v -0.140625 H 2.859375 c 0.140625,0 0.1992188,-0.046875 0.1992188,-0.15234375 0,-0.0117188 -0.023437,-0.0585938 -0.082031,-0.140625 -0.058594,-0.0703125 -0.09375,-0.12890625 -0.1171875,-0.1640625 L 1.5703125,-2.3191953 1.5585937,-0.63169531 c 0,0.1875 0.035156,0.31640625 0.1289063,0.375 0.082031,0.0820313 0.2109375,0.10546875 0.3867188,0.10546875 l 0.1875,0.0117188 v 0.140625 z M 9.1318359,-1.2762266 8.6162109,0.00111719 h -3.65625 v -0.1171875 L 6.6240234,-1.8856016 c 0.8085938,-0.8554687 1.21875,-1.6640625 1.21875,-2.4140625 0,-0.3164062 -0.082031,-0.5976562 -0.2578125,-0.84375 -0.234375,-0.328125 -0.5976562,-0.4921875 -1.078125,-0.4921875 -0.375,0 -0.6914062,0.140625 -0.9140625,0.4101563 -0.1289062,0.1640625 -0.28125,0.4335937 -0.421875,0.8085937 l -0.1992187,-0.046875 c 0.1289062,-0.65625 0.3867187,-1.1484375 0.7851562,-1.4648437 0.328125,-0.2578125 0.7265625,-0.3984375 1.1953125,-0.3984375 0.4570313,0 0.84375,0.1523437 1.1835938,0.46875 0.3398437,0.3046875 0.515625,0.7148437 0.515625,1.21875 0,0.4335937 -0.1523438,0.890625 -0.4453125,1.3476562 -0.1640625,0.2578125 -0.421875,0.5625 -0.75,0.9375 l -1.5820313,1.64062504 h 2.2382813 c 0.1992187,0 0.3515625,-0.0234375 0.4453125,-0.0820313 0.1171875,-0.0703125 0.2695312,-0.24609384 0.4453125,-0.52734384 z m 0.6445313,2.6015625 -0.082031,-0.1875 C 9.9638672,0.97377344 10.174805,0.77455469 10.31543,0.56361719 c 0.09375,-0.15234375 0.152343,-0.29296875 0.152343,-0.41015625 0,-0.08203125 -0.04687,-0.12890625 -0.140625,-0.12890625 l -0.08203,0.01171875 -0.140625,0.0234375 c -0.1523436,0 -0.2812498,-0.03515625 -0.3749998,-0.09375 -0.140625,-0.08203125 -0.1992188,-0.2109375 -0.1992188,-0.375 0,-0.1875 0.046875,-0.31640625 0.1523438,-0.41015625 0.1171875,-0.09375 0.234375,-0.12890625 0.3867188,-0.12890625 0.164062,0 0.328125,0.046875 0.457031,0.140625 0.199219,0.1640625 0.304688,0.41015625 0.304688,0.75 0,0.3046875 -0.140625,0.59765625 -0.410157,0.90234375 C 10.186523,1.1026797 9.9638672,1.2667422 9.7763672,1.3253359 Z M 15.348633,0.00111719 v -0.140625 c 0.316406,0 0.539062,-0.0234375 0.644531,-0.10546875 0.164063,-0.09375 0.246094,-0.3046875 0.246094,-0.62109375 V -5.1082578 c 0,-0.1289063 -0.01172,-0.234375 -0.03516,-0.2929688 -0.04687,-0.09375 -0.140625,-0.1523437 -0.28125,-0.1523437 -0.07031,0 -0.117188,0.011719 -0.164063,0.023437 -0.140625,0.058594 -0.304687,0.1171875 -0.46875,0.1875 v -0.1289063 l 1.6875,-0.8554687 0.07031,0.011719 v 5.62500004 c 0,0.22265625 0.05859,0.36328125 0.175781,0.43359375 0.117187,0.0820313 0.351562,0.1171875 0.714844,0.1171875 v 0.140625 z m 4.171875,1.32421871 -0.08203,-0.1875 c 0.269531,-0.16406246 0.480468,-0.36328121 0.621093,-0.57421871 0.09375,-0.15234375 0.152344,-0.29296875 0.152344,-0.41015625 0,-0.08203125 -0.04687,-0.12890625 -0.140625,-0.12890625 l -0.08203,0.01171875 -0.140625,0.0234375 c -0.152344,0 -0.28125,-0.03515625 -0.375,-0.09375 -0.140625,-0.08203125 -0.199219,-0.2109375 -0.199219,-0.375 0,-0.1875 0.04687,-0.31640625 0.152344,-0.41015625 0.117187,-0.09375 0.234375,-0.12890625 0.386719,-0.12890625 0.164062,0 0.328125,0.046875 0.457031,0.140625 0.199219,0.1640625 0.304687,0.41015625 0.304687,0.75 0,0.3046875 -0.140625,0.59765625 -0.410156,0.90234375 C 19.930664,1.1026797 19.708008,1.2667422 19.520508,1.3253359 Z m 6.823242,-7.40625 c -0.410156,0 -0.703125,0.2578125 -0.914063,0.7617188 -0.199218,0.515625 -0.304687,1.2539062 -0.304687,2.2265625 0,0.7382812 0.04687,1.3242187 0.152344,1.7695312 0.1875,0.80859379 0.550781,1.20703129 1.066406,1.20703129 0.386719,0 0.703125,-0.234375 0.902344,-0.73828125 0.210937,-0.49218754 0.316406,-1.24218754 0.316406,-2.23828124 0,-0.703125 -0.05859,-1.2773438 -0.164063,-1.734375 -0.199218,-0.8320313 -0.550781,-1.2539063 -1.054687,-1.2539063 z m 0,-0.2460937 c 0.75,0 1.324219,0.3984375 1.699219,1.1953125 0.269531,0.5859375 0.410156,1.265625 0.410156,2.0390625 0,0.7851562 -0.140625,1.453125 -0.410156,2.0390625 -0.375,0.79687499 -0.949219,1.18359374 -1.699219,1.18359374 -0.773438,0 -1.335938,-0.38671875 -1.710938,-1.18359374 -0.28125,-0.5859375 -0.410156,-1.2539063 -0.410156,-2.0390625 0,-0.7617188 0.128906,-1.4414063 0.410156,-2.0273438 0.375,-0.8085937 0.9375,-1.2070312 1.710938,-1.2070312 z m 0,0"
       style="fill:#000000;fill-opacity:1;fill-rule:nonzero;stroke:none"
       aria-label="k2,1,0"
       transform="matrix(1.3333333,0,0,1.3333333,95.875,36.283667)" />
    <path
       id="path20"
       d="M 2.0273438,-1.8387266 C 1.6757812,-1.6981016 1.5,-1.4754453 1.5,-1.1824766 V 0.30580469 C 1.5,0.48158594 1.4414062,0.64564844 1.3476562,0.78627344 1.1484375,1.0558047 0.80859375,1.1964297 0.33984375,1.1964297 v -0.046875 c 0.19921875,0 0.36328125,-0.09375 0.48046875,-0.24609376 C 0.92578125,0.75111719 0.984375,0.58705469 0.984375,0.41127344 V -1.0301328 c 0,-0.2226563 0.0351562,-0.4101563 0.1289062,-0.5273438 0.070312,-0.1289062 0.2226563,-0.2226562 0.4335938,-0.2929687 -0.375,-0.09375 -0.5625,-0.375 -0.5625,-0.84375 v -1.4296875 c 0,-0.1757813 -0.046875,-0.3398438 -0.15234375,-0.46875 -0.1171875,-0.1640625 -0.28125,-0.2460938 -0.4921875,-0.2460938 v -0.058594 c 0.4921875,0 0.82031245,0.140625 1.00781245,0.3984375 C 1.4414062,-4.3348203 1.5,-4.1707578 1.5,-4.0184141 v 1.4882813 c 0,0.1757812 0.046875,0.328125 0.1289062,0.421875 0.082031,0.082031 0.2109375,0.1757812 0.3984376,0.2695312 z m 0,0"
       style="fill:#000000;fill-opacity:1;fill-rule:nonzero;stroke:none"
       aria-label="}"
       transform="matrix(1.3333333,0,0,1.3333333,133.875,36.283667)" />
    <path
       id="path21"
       d="m 0.77441406,1.3232422 -0.0820313,-0.1875 C 0.96191406,0.97167969 1.1728516,0.77246094 1.3134766,0.56152344 1.4072266,0.40917969 1.4658203,0.26855469 1.4658203,0.15136719 c 0,-0.08203125 -0.046875,-0.12890625 -0.140625,-0.12890625 l -0.082031,0.01171875 -0.140625,0.0234375 c -0.15234379,0 -0.28125004,-0.03515625 -0.37500004,-0.09375 -0.140625,-0.08203125 -0.19921875,-0.2109375 -0.19921875,-0.375 0,-0.1875 0.046875,-0.31640625 0.15234375,-0.41015625 0.1171875,-0.09375 0.234375,-0.12890625 0.38671874,-0.12890625 0.1640625,0 0.328125,0.046875 0.4570313,0.140625 0.1992187,0.1640625 0.3046875,0.41015625 0.3046875,0.75 0,0.3046875 -0.140625,0.59765625 -0.4101563,0.90234375 C 1.1845703,1.1005859 0.96191406,1.2646484 0.77441406,1.3232422 Z M 20.898437,-9.765625e-4 V -0.14160156 c 0.316407,0 0.539063,-0.0234375 0.644532,-0.10546875 0.164062,-0.09375 0.246093,-0.3046875 0.246093,-0.62109375 V -5.1103516 c 0,-0.1289062 -0.01172,-0.234375 -0.03516,-0.2929687 -0.04687,-0.09375 -0.140625,-0.1523438 -0.28125,-0.1523438 -0.07031,0 -0.117187,0.011719 -0.164062,0.023437 -0.140625,0.058594 -0.304688,0.1171875 -0.46875,0.1875 v -0.1289062 l 1.6875,-0.8554688 0.07031,0.011719 v 5.62499999 c 0,0.22265625 0.05859,0.36328125 0.175781,0.43359375 0.117188,0.0820313 0.351563,0.1171875 0.714844,0.1171875 v 0.1406249975 z m 0,0"
       style="fill:#000000;fill-opacity:1;fill-rule:nonzero;stroke:none"
       aria-label=",1"
       transform="matrix(1.3333333,0,0,1.3333333,139.60417,17.333333)" />
    <path
       id="path22"
       d="M 0.44628906,-2.0400391 H 4.7001953 l -0.8671875,-1.0429687 0.2226563,-0.2226563 1.40625,1.4648438 -1.40625,1.47656249 -0.2226563,-0.234375 0.8671875,-1.05468749 H 0.44628906 Z m 0,0"
       style="fill:#000000;fill-opacity:1;fill-rule:nonzero;stroke:none"
       aria-label="→"
       transform="matrix(1.3333333,0,0,1.3333333,174.66667,17.333333)" />
    <path
       id="path23"
       d="m 4.4179687,-2.1689453 v 0.609375 H 3.46875 V -9.765625e-4 H 2.7421875 V -1.5595703 h -2.625 v -0.609375 L 3.046875,-6.3291016 H 3.46875 v 4.1601563 z m -1.6874999,0 v -3.1757813 l -2.2382813,3.1757813 z m 0,0"
       style="fill:#000000;fill-opacity:1;fill-rule:nonzero;stroke:none"
       aria-label="4"
       transform="matrix(1.3333333,0,0,1.3333333,185,17.333333)" />
    <path
       id="path24"
       d="M 2.0039063,1.1964299 C 1.546875,1.1964299 1.21875,1.0558049 1.0195312,0.78627369 0.90234375,0.64564869 0.85546875,0.48158619 0.85546875,0.30580494 V -1.1824763 c 0,-0.2929688 -0.17578125,-0.515625 -0.52734375,-0.65625 0.1875,-0.09375 0.31640625,-0.1875 0.3984375,-0.2695313 0.0820313,-0.09375 0.12890625,-0.2460937 0.12890625,-0.421875 v -1.4882812 c 0,-0.1523438 0.046875,-0.3164063 0.16406245,-0.4804688 0.1640625,-0.2578125 0.5039063,-0.3984375 0.9843751,-0.3984375 v 0.058594 c -0.1992188,0 -0.3632813,0.082031 -0.4804688,0.2460937 -0.1054688,0.1289063 -0.1523438,0.2929688 -0.1523438,0.46875 v 1.4296875 c 0,0.46875 -0.1875,0.75 -0.56249995,0.84375 0.21093745,0.070312 0.35156245,0.1640625 0.44531245,0.2929688 0.082031,0.1171875 0.1171875,0.3046875 0.1171875,0.5273437 v 1.44140629 c 0,0.17578125 0.058594,0.33984375 0.1640625,0.4921875 0.1289063,0.15234371 0.28125,0.24609371 0.4687501,0.24609371 z m 0,0"
       style="fill:#000000;fill-opacity:1;fill-rule:nonzero;stroke:none"
       aria-label="{"
       transform="matrix(1.3333333,0,0,1.3333333,147.9375,35.893041)" />
    <path
       id="path25"
       d="m 2.9414063,-4.1356013 c 0.234375,0 0.4101562,0.058594 0.5273437,0.1640625 0.070312,0.070312 0.140625,0.1992187 0.2226563,0.3867187 l 0.140625,-0.421875 H 4.5117187 L 2.9882813,1.4190862 c 0,0.011719 -0.011719,0.035156 -0.011719,0.046875 0,0.011719 -0.011719,0.035156 -0.011719,0.046875 0,0.1289062 0.070312,0.1992187 0.1757812,0.234375 0.09375,0.023437 0.2578125,0.035156 0.515625,0.035156 v 0.1757813 h -2.25 V 1.8058049 c 0.3046875,-0.035156 0.515625,-0.070312 0.6210938,-0.1289062 0.1171875,-0.046875 0.1875,-0.1757813 0.2578125,-0.3632813 l 0.796875,-2.6953125 c -0.3164063,0.45703129 -0.5859375,0.78515629 -0.7851563,0.98437504 -0.3632813,0.328125 -0.7382813,0.515625 -1.125,0.515625 -0.22265625,0 -0.43359375,-0.09375 -0.64453125,-0.28125 -0.22265625,-0.17578125 -0.328125,-0.46875 -0.328125,-0.89062504 0,-0.65625 0.3046875,-1.3476562 0.92578125,-2.0390625 0.6210937,-0.703125 1.2304688,-1.0429687 1.8164068,-1.0429687 z m 0.609375,0.8554687 c 0,-0.234375 -0.058594,-0.3984375 -0.1757813,-0.5039062 -0.1171875,-0.09375 -0.2460937,-0.140625 -0.375,-0.140625 -0.4453125,0 -0.8789062,0.3515625 -1.3359375,1.03125 -0.421875,0.65625 -0.6210938,1.2421875 -0.6210938,1.7578125 0,0.26953124 0.046875,0.46874999 0.1640625,0.57421874 0.1171875,0.10546875 0.234375,0.1640625 0.3632813,0.1640625 0.4335938,0 0.8789063,-0.36328125 1.3242188,-1.06640624 0.4335937,-0.6796875 0.65625,-1.2773438 0.65625,-1.8164063 z m 0,0"
       style="fill:#000000;fill-opacity:1;fill-rule:nonzero;stroke:none"
       aria-label="q"
       transform="matrix(1.3333333,0,0,1.3333333,151,35.893041)" />
    <path
       id="path26"
       d="M 4.1611328,-1.6512263 H 0.46972656 V -2.0496638 H 4.1611328 Z m 0,0"
       style="fill:#000000;fill-opacity:1;fill-rule:nonzero;stroke:none"
       aria-label="-"
       transform="matrix(1.3333333,0,0,1.3333333,159.66667,35.893041)" />
    <path
       id="path27"
       d="m 0.06933594,0.00111744 v -0.140625 c 0.31640625,-0.046875 0.515625,-0.10546875 0.5859375,-0.1640625 0.0703125,-0.0585938 0.1171875,-0.22265625 0.1171875,-0.46875 V -5.2840388 c 0,-0.2226563 -0.0351563,-0.375 -0.0820313,-0.4453125 -0.0585938,-0.070312 -0.1640625,-0.1171875 -0.33984375,-0.1171875 l -0.28125,0.011719 v -0.1523437 c 0.234375,-0.046875 0.45703125,-0.1171875 0.66796875,-0.1757813 0.2109375,-0.058594 0.46874996,-0.1289062 0.77343746,-0.234375 l 0.046875,0.023437 v 3.890625 l 0.011719,0.023437 1.2656251,-1.125 c 0.140625,-0.1289062 0.2109374,-0.234375 0.2109374,-0.3164062 0,-0.058594 -0.035156,-0.1054688 -0.09375,-0.1289063 -0.046875,-0.035156 -0.1757812,-0.046875 -0.3632812,-0.046875 v -0.140625 h 1.9101561 v 0.140625 c -0.3046875,0 -0.5507811,0.046875 -0.7265625,0.140625 -0.28125,0.1523438 -0.7265625,0.5039063 -1.3007812,1.0429688 l -0.2695313,0.2578125 1.4296875,1.81640624 c 0.2109375,0.2578125 0.421875,0.4453125 0.6328125,0.5625 0.140625,0.0820312 0.3046875,0.1171875 0.4570313,0.1171875 v 0.140625 H 2.6826172 v -0.140625 h 0.1757812 c 0.140625,0 0.1992188,-0.046875 0.1992188,-0.15234375 0,-0.0117188 -0.023437,-0.0585938 -0.082031,-0.140625 -0.058594,-0.0703125 -0.09375,-0.12890625 -0.1171875,-0.1640625 L 1.5693359,-2.3191951 1.5576172,-0.63169506 c 0,0.1875 0.035156,0.31640625 0.1289062,0.375 0.082031,0.0820312 0.2109375,0.10546875 0.3867188,0.10546875 l 0.1875,0.0117188 v 0.140625 z M 9.1337891,-1.2762263 8.6181641,0.00111744 h -3.65625 v -0.1171875 L 6.6259766,-1.8856013 c 0.8085937,-0.8554688 1.21875,-1.6640625 1.21875,-2.4140625 0,-0.3164063 -0.082031,-0.5976563 -0.2578125,-0.84375 -0.234375,-0.328125 -0.5976563,-0.4921875 -1.078125,-0.4921875 -0.375,0 -0.6914063,0.140625 -0.9140625,0.4101562 -0.1289063,0.1640625 -0.28125,0.4335938 -0.421875,0.8085938 l -0.1992188,-0.046875 c 0.1289063,-0.65625 0.3867188,-1.1484375 0.7851563,-1.4648438 0.328125,-0.2578125 0.7265625,-0.3984375 1.1953125,-0.3984375 0.4570312,0 0.84375,0.1523438 1.1835937,0.46875 0.3398438,0.3046875 0.515625,0.7148438 0.515625,1.21875 0,0.4335938 -0.1523437,0.890625 -0.4453125,1.3476563 -0.1640625,0.2578125 -0.421875,0.5625 -0.75,0.9375 l -1.5820312,1.64062499 h 2.2382812 c 0.1992188,0 0.3515625,-0.0234375 0.4453125,-0.0820313 0.1171875,-0.0703125 0.2695313,-0.24609379 0.4453125,-0.52734379 z m 0.6445312,2.6015625 -0.082031,-0.1875 c 0.269531,-0.16406251 0.4804687,-0.36328126 0.6210937,-0.57421876 0.09375,-0.15234375 0.152344,-0.29296875 0.152344,-0.41015625 0,-0.08203125 -0.04687,-0.12890625 -0.140625,-0.12890625 l -0.08203,0.01171875 -0.140625,0.0234375 c -0.1523434,0 -0.2812497,-0.03515625 -0.3749997,-0.09375 -0.140625,-0.08203125 -0.1992187,-0.2109375 -0.1992187,-0.375 0,-0.1875 0.046875,-0.31640625 0.1523437,-0.41015625 0.1171875,-0.09375 0.234375,-0.12890625 0.3867187,-0.12890625 0.164063,0 0.328125,0.046875 0.457031,0.140625 0.199219,0.1640625 0.304688,0.41015625 0.304688,0.75 0,0.3046875 -0.140625,0.59765625 -0.410156,0.90234375 C 10.188477,1.1026799 9.9658203,1.2667424 9.7783203,1.3253362 Z M 15.347656,0.00111744 v -0.140625 c 0.316407,0 0.539063,-0.0234375 0.644532,-0.10546875 0.164062,-0.09375 0.246093,-0.3046875 0.246093,-0.62109375 V -5.1082576 c 0,-0.1289062 -0.01172,-0.234375 -0.03516,-0.2929687 -0.04687,-0.09375 -0.140625,-0.1523438 -0.28125,-0.1523438 -0.07031,0 -0.117187,0.011719 -0.164062,0.023437 -0.140625,0.058594 -0.304688,0.1171875 -0.46875,0.1875 v -0.1289062 l 1.687499,-0.8554688 0.07031,0.011719 v 5.62499999 c 0,0.22265625 0.05859,0.36328125 0.175781,0.43359375 0.117188,0.0820312 0.351563,0.1171875 0.714844,0.1171875 v 0.140625 z m 4.174805,1.32421876 -0.08203,-0.1875 c 0.269531,-0.16406251 0.480468,-0.36328126 0.621093,-0.57421876 0.09375,-0.15234375 0.152344,-0.29296875 0.152344,-0.41015625 0,-0.08203125 -0.04687,-0.12890625 -0.140625,-0.12890625 l -0.08203,0.01171875 -0.140625,0.0234375 c -0.152344,0 -0.28125,-0.03515625 -0.375,-0.09375 -0.140625,-0.08203125 -0.199219,-0.2109375 -0.199219,-0.375 0,-0.1875 0.04687,-0.31640625 0.152344,-0.41015625 0.117187,-0.09375 0.234375,-0.12890625 0.386719,-0.12890625 0.164062,0 0.328125,0.046875 0.457031,0.140625 0.199219,0.1640625 0.304687,0.41015625 0.304687,0.75 0,0.3046875 -0.140625,0.59765625 -0.410156,0.90234375 C 19.932617,1.1026799 19.709961,1.2667424 19.522461,1.3253362 Z m 6.820312,-7.40625 c -0.410156,0 -0.703125,0.2578125 -0.914062,0.7617187 -0.199219,0.515625 -0.304688,1.2539063 -0.304688,2.2265625 0,0.7382813 0.04687,1.3242188 0.152344,1.7695313 0.1875,0.80859374 0.550781,1.20703124 1.066406,1.20703124 0.386719,0 0.703125,-0.234375 0.902344,-0.73828125 0.210938,-0.49218749 0.316406,-1.24218749 0.316406,-2.23828129 0,-0.703125 -0.05859,-1.2773437 -0.164062,-1.734375 -0.199219,-0.8320312 -0.550781,-1.2539062 -1.054688,-1.2539062 z m 0,-0.2460938 c 0.75,0 1.324219,0.3984375 1.699219,1.1953125 0.269531,0.5859375 0.410156,1.265625 0.410156,2.0390625 0,0.7851563 -0.140625,1.453125 -0.410156,2.0390625 -0.375,0.79687504 -0.949219,1.18359379 -1.699219,1.18359379 -0.773437,0 -1.335937,-0.38671875 -1.710937,-1.18359379 -0.28125,-0.5859375 -0.410156,-1.2539062 -0.410156,-2.0390625 0,-0.7617187 0.128906,-1.4414062 0.410156,-2.0273437 0.375,-0.8085938 0.9375,-1.2070313 1.710937,-1.2070313 z m 0,0"
       style="fill:#000000;fill-opacity:1;fill-rule:nonzero;stroke:none"
       aria-label="k2,1,0"
       transform="matrix(1.3333333,0,0,1.3333333,168.33333,35.893041)" />
    <path
       id="path28"
       d="m 2.0263672,-1.8387263 c -0.3515625,0.140625 -0.5273438,0.3632812 -0.5273438,0.65625 v 1.48828124 c 0,0.17578125 -0.058594,0.33984375 -0.1523437,0.48046875 C 1.1474609,1.0558049 0.80761719,1.1964299 0.33886719,1.1964299 v -0.046875 c 0.19921875,0 0.36328125,-0.09375 0.48046875,-0.24609371 0.10546875,-0.15234375 0.1640625,-0.31640625 0.1640625,-0.4921875 V -1.0301326 c 0,-0.2226562 0.0351563,-0.4101562 0.12890626,-0.5273437 0.070312,-0.1289063 0.2226562,-0.2226563 0.4335937,-0.2929688 -0.375,-0.09375 -0.56249996,-0.375 -0.56249996,-0.84375 v -1.4296875 c 0,-0.1757812 -0.046875,-0.3398437 -0.15234375,-0.46875 -0.1171875,-0.1640625 -0.28125,-0.2460937 -0.4921875,-0.2460937 v -0.058594 c 0.4921875,0 0.82031251,0.140625 1.00781251,0.3984375 0.09375,0.1640625 0.1523437,0.328125 0.1523437,0.4804688 v 1.4882812 c 0,0.1757813 0.046875,0.328125 0.1289063,0.421875 0.082031,0.082031 0.2109375,0.1757813 0.3984375,0.2695315 z m 0,0"
       style="fill:#000000;fill-opacity:1;fill-rule:nonzero;stroke:none"
       aria-label="}"
       transform="matrix(1.3333333,0,0,1.3333333,206.33333,35.893041)" />
    <path
       id="path29"
       d="m 0.7734375,1.3232422 -0.0820313,-0.1875 C 0.9609375,0.97167969 1.171875,0.77246094 1.3125,0.56152344 1.40625,0.40917969 1.4648438,0.26855469 1.4648438,0.15136719 c 0,-0.08203125 -0.046875,-0.12890625 -0.140625,-0.12890625 l -0.082031,0.01171875 -0.140625,0.0234375 c -0.15234375,0 -0.28125,-0.03515625 -0.375,-0.09375 -0.140625,-0.08203125 -0.19921875,-0.2109375 -0.19921875,-0.375 0,-0.1875 0.046875,-0.31640625 0.15234375,-0.41015625 0.1171875,-0.09375 0.234375,-0.12890625 0.3867188,-0.12890625 0.1640625,0 0.328125,0.046875 0.4570312,0.140625 0.1992188,0.1640625 0.3046875,0.41015625 0.3046875,0.75 0,0.3046875 -0.140625,0.59765625 -0.4101562,0.90234375 C 1.1835938,1.1005859 0.9609375,1.2646484 0.7734375,1.3232422 Z M 17.753906,-1.2783203 17.238281,-9.765625e-4 h -3.65625 V -0.11816406 l 1.664063,-1.76953124 c 0.808594,-0.8554688 1.21875,-1.6640625 1.21875,-2.4140625 0,-0.3164063 -0.08203,-0.5976563 -0.257813,-0.84375 -0.234375,-0.328125 -0.597656,-0.4921875 -1.078125,-0.4921875 -0.375,0 -0.691406,0.140625 -0.914062,0.4101562 -0.128906,0.1640625 -0.28125,0.4335938 -0.421875,0.8085938 l -0.199219,-0.046875 c 0.128906,-0.65625 0.386719,-1.1484375 0.785156,-1.4648438 0.328125,-0.2578125 0.726563,-0.3984375 1.195313,-0.3984375 0.457031,0 0.84375,0.1523438 1.183594,0.46875 0.339843,0.3046875 0.515625,0.7148438 0.515625,1.21875 0,0.4335938 -0.152344,0.890625 -0.445313,1.3476563 -0.164062,0.2578125 -0.421875,0.5625 -0.75,0.9375 l -1.582031,1.64062499 h 2.238281 c 0.199219,0 0.351563,-0.0234375 0.445313,-0.0820313 0.117187,-0.0703125 0.269531,-0.24609369 0.445312,-0.52734369 z m 0,0"
       style="fill:#000000;fill-opacity:1;fill-rule:nonzero;stroke:none"
       aria-label=",2"
       transform="matrix(1.3333333,0,0,1.3333333,212.0625,17.333333)" />
    <path
       id="path30"
       d="M 0.44433594,-2.0400391 H 4.6982422 l -0.8671875,-1.0429687 0.2226562,-0.2226563 1.40625,1.4648438 -1.40625,1.47656249 -0.2226562,-0.234375 0.8671875,-1.05468749 H 0.44433594 Z m 0,0"
       style="fill:#000000;fill-opacity:1;fill-rule:nonzero;stroke:none"
       aria-label="→"
       transform="matrix(1.3333333,0,0,1.3333333,238.45833,17.333333)" />
    <path
       id="path31"
       d="m 1.4306641,-3.0947266 -0.011719,-0.1171875 c 0.4921875,-0.1523437 0.8554688,-0.3398437 1.1015625,-0.5625 0.2929688,-0.2695312 0.4570313,-0.609375 0.4570313,-1.0195312 0,-0.2578125 -0.082031,-0.4804688 -0.2460938,-0.6679688 -0.1875,-0.1992187 -0.4570312,-0.3046875 -0.7851562,-0.3046875 -0.2929688,0 -0.5390625,0.082031 -0.7617188,0.2460938 -0.23437499,0.1523437 -0.43359374,0.4101562 -0.62109374,0.75 l -0.140625,-0.046875 c 0.1640625,-0.5507813 0.4453125,-0.9492188 0.82031254,-1.21875 0.2929687,-0.1875 0.6328125,-0.2929688 1.0195312,-0.2929688 0.515625,0 0.9140625,0.1640625 1.171875,0.4804688 0.1875,0.2460937 0.28125,0.5039062 0.28125,0.7851562 0,0.2578125 -0.070312,0.4921875 -0.1992187,0.703125 -0.140625,0.1992188 -0.3632813,0.3984375 -0.6679688,0.609375 0.4335938,0.1875 0.7265625,0.4101563 0.9140625,0.6914063 0.1757813,0.28125 0.2695313,0.6210937 0.2695313,1.03125 0,0.65625 -0.234375,1.18359374 -0.7265625,1.58203124 -0.4921875,0.38671875 -1.1132813,0.57421875 -1.8632813,0.57421875 -0.328125,0 -0.57421874,-0.046875 -0.76171874,-0.140625 -0.1875,-0.09375 -0.28125,-0.22265625 -0.28125,-0.38671875 0,-0.1171875 0.0351563,-0.19921875 0.10546875,-0.2578125 0.0820313,-0.046875 0.1640625,-0.0703125 0.26953125,-0.0703125 0.12890625,0 0.32812504,0.09375 0.60937504,0.2578125 0.28125,0.17578125 0.515625,0.2578125 0.7265625,0.2578125 0.3984375,0 0.7148437,-0.140625 0.9492187,-0.45703125 0.1992188,-0.2578125 0.3046875,-0.58593749 0.3046875,-0.98437499 0,-0.1875 -0.046875,-0.375 -0.1289062,-0.5859375 -0.140625,-0.3046875 -0.328125,-0.515625 -0.5859375,-0.6445313 -0.1640625,-0.082031 -0.328125,-0.140625 -0.4804688,-0.1640625 -0.1523437,-0.023437 -0.3984375,-0.046875 -0.738281,-0.046875 z m 0,0"
       style="fill:#000000;fill-opacity:1;fill-rule:nonzero;stroke:none"
       aria-label="3"
       transform="matrix(1.3333333,0,0,1.3333333,248.79167,17.333333)" />
    <path
       id="path32"
       d="m 2.0029297,1.1964297 c -0.4570313,0 -0.7851563,-0.140625 -0.984375,-0.41015626 C 0.90136719,0.64564844 0.85449219,0.48158594 0.85449219,0.30580469 V -1.1824766 c 0,-0.2929687 -0.17578125,-0.515625 -0.52734375,-0.65625 0.1875,-0.09375 0.31640625,-0.1875 0.3984375,-0.2695312 0.0820313,-0.09375 0.12890625,-0.2460938 0.12890625,-0.421875 v -1.4882813 c 0,-0.1523437 0.046875,-0.3164062 0.16406251,-0.4804687 0.1640625,-0.2578125 0.5039062,-0.3984375 0.984375,-0.3984375 v 0.058594 c -0.1992188,0 -0.3632813,0.082031 -0.4804688,0.2460938 -0.1054687,0.1289062 -0.1523437,0.2929687 -0.1523437,0.46875 v 1.4296875 c 0,0.46875 -0.1875,0.75 -0.56250001,0.84375 0.21093751,0.070312 0.35156251,0.1640625 0.44531251,0.2929687 0.082031,0.1171875 0.1171875,0.3046875 0.1171875,0.5273438 v 1.44140624 c 0,0.17578125 0.058594,0.33984375 0.1640625,0.4921875 0.1289062,0.15234376 0.28125,0.24609376 0.46875,0.24609376 z m 0,0"
       style="fill:#000000;fill-opacity:1;fill-rule:nonzero;stroke:none"
       aria-label="{"
       transform="matrix(1.3333333,0,0,1.3333333,220.39583,36.283667)" />
    <path
       id="path33"
       d="m 0.06933594,0.00111719 v -0.140625 c 0.31640625,-0.046875 0.515625,-0.10546875 0.5859375,-0.1640625 0.0703125,-0.0585938 0.1171875,-0.22265625 0.1171875,-0.46875 V -5.2840391 c 0,-0.2226562 -0.0351563,-0.375 -0.0820313,-0.4453125 -0.0585938,-0.070312 -0.1640625,-0.1171875 -0.33984375,-0.1171875 l -0.28125,0.011719 v -0.1523438 c 0.234375,-0.046875 0.45703125,-0.1171875 0.66796875,-0.1757812 0.2109375,-0.058594 0.46874996,-0.1289063 0.77343746,-0.234375 l 0.046875,0.023437 v 3.890625 l 0.011719,0.023437 1.2656251,-1.125 c 0.140625,-0.1289063 0.2109374,-0.234375 0.2109374,-0.3164063 0,-0.058594 -0.035156,-0.1054687 -0.09375,-0.1289062 -0.046875,-0.035156 -0.1757812,-0.046875 -0.3632812,-0.046875 v -0.140625 h 1.9101561 v 0.140625 c -0.3046875,0 -0.5507811,0.046875 -0.7265625,0.140625 -0.28125,0.1523437 -0.7265625,0.5039062 -1.3007812,1.0429687 l -0.2695313,0.2578125 1.4296875,1.81640629 c 0.2109375,0.2578125 0.421875,0.4453125 0.6328125,0.5625 0.140625,0.0820313 0.3046875,0.1171875 0.4570313,0.1171875 v 0.140625 H 2.6826172 v -0.140625 h 0.1757812 c 0.140625,0 0.1992188,-0.046875 0.1992188,-0.15234375 0,-0.0117188 -0.023437,-0.0585938 -0.082031,-0.140625 -0.058594,-0.0703125 -0.09375,-0.12890625 -0.1171875,-0.1640625 L 1.5693359,-2.3191953 1.5576172,-0.63169531 c 0,0.1875 0.035156,0.31640625 0.1289062,0.375 0.082031,0.0820313 0.2109375,0.10546875 0.3867188,0.10546875 l 0.1875,0.0117188 v 0.140625 z m 5.71289066,0 v -0.140625 c 0.3164062,0 0.5390625,-0.0234375 0.6445312,-0.10546875 0.1640625,-0.09375 0.2460938,-0.3046875 0.2460938,-0.62109375 V -5.1082578 c 0,-0.1289063 -0.011719,-0.234375 -0.035156,-0.2929688 -0.046875,-0.09375 -0.140625,-0.1523437 -0.28125,-0.1523437 -0.070312,0 -0.1171875,0.011719 -0.1640625,0.023437 -0.140625,0.058594 -0.3046875,0.1171875 -0.46875,0.1875 v -0.1289063 l 1.6875,-0.8554687 0.070312,0.011719 v 5.62500004 c 0,0.22265625 0.058594,0.36328125 0.1757813,0.43359375 0.1171875,0.0820313 0.3515625,0.1171875 0.7148437,0.1171875 v 0.140625 z m 3.9960937,1.32421871 -0.082031,-0.1875 c 0.269531,-0.16406246 0.4804687,-0.36328121 0.6210937,-0.57421871 0.09375,-0.15234375 0.152344,-0.29296875 0.152344,-0.41015625 0,-0.08203125 -0.04687,-0.12890625 -0.140625,-0.12890625 l -0.08203,0.01171875 -0.140625,0.0234375 c -0.1523434,0 -0.2812497,-0.03515625 -0.3749997,-0.09375 -0.140625,-0.08203125 -0.1992187,-0.2109375 -0.1992187,-0.375 0,-0.1875 0.046875,-0.31640625 0.1523437,-0.41015625 0.1171875,-0.09375 0.234375,-0.12890625 0.3867187,-0.12890625 0.164063,0 0.328125,0.046875 0.457031,0.140625 0.199219,0.1640625 0.304688,0.41015625 0.304688,0.75 0,0.3046875 -0.140625,0.59765625 -0.410156,0.90234375 C 10.188477,1.1026797 9.9658203,1.2667422 9.7783203,1.3253359 Z M 15.347656,0.00111719 v -0.140625 c 0.316407,0 0.539063,-0.0234375 0.644532,-0.10546875 0.164062,-0.09375 0.246093,-0.3046875 0.246093,-0.62109375 V -5.1082578 c 0,-0.1289063 -0.01172,-0.234375 -0.03516,-0.2929688 -0.04687,-0.09375 -0.140625,-0.1523437 -0.28125,-0.1523437 -0.07031,0 -0.117187,0.011719 -0.164062,0.023437 -0.140625,0.058594 -0.304688,0.1171875 -0.46875,0.1875 v -0.1289063 l 1.6875,-0.8554687 0.07031,0.011719 v 5.62500004 c 0,0.22265625 0.05859,0.36328125 0.175781,0.43359375 0.117188,0.0820313 0.351563,0.1171875 0.714844,0.1171875 v 0.140625 z m 4.174805,1.32421871 -0.08203,-0.1875 c 0.269531,-0.16406246 0.480468,-0.36328121 0.621093,-0.57421871 0.09375,-0.15234375 0.152344,-0.29296875 0.152344,-0.41015625 0,-0.08203125 -0.04687,-0.12890625 -0.140625,-0.12890625 l -0.08203,0.01171875 -0.140625,0.0234375 c -0.152344,0 -0.28125,-0.03515625 -0.375,-0.09375 -0.140625,-0.08203125 -0.199219,-0.2109375 -0.199219,-0.375 0,-0.1875 0.04687,-0.31640625 0.152344,-0.41015625 0.117187,-0.09375 0.234375,-0.12890625 0.386719,-0.12890625 0.164062,0 0.328125,0.046875 0.457031,0.140625 0.199219,0.1640625 0.304687,0.41015625 0.304687,0.75 0,0.3046875 -0.140625,0.59765625 -0.410156,0.90234375 C 19.932617,1.1026797 19.709961,1.2667422 19.522461,1.3253359 Z m 6.820312,-7.40625 c -0.410156,0 -0.703125,0.2578125 -0.914062,0.7617188 -0.199219,0.515625 -0.304688,1.2539062 -0.304688,2.2265625 0,0.7382812 0.04687,1.3242187 0.152344,1.7695312 0.1875,0.80859379 0.550781,1.20703129 1.066406,1.20703129 0.386719,0 0.703125,-0.234375 0.902344,-0.73828125 0.210938,-0.49218754 0.316406,-1.24218754 0.316406,-2.23828124 0,-0.703125 -0.05859,-1.2773438 -0.164062,-1.734375 -0.199219,-0.8320313 -0.550781,-1.2539063 -1.054688,-1.2539063 z m 0,-0.2460937 c 0.75,0 1.324219,0.3984375 1.699219,1.1953125 0.269531,0.5859375 0.410156,1.265625 0.410156,2.0390625 0,0.7851562 -0.140625,1.453125 -0.410156,2.0390625 -0.375,0.79687499 -0.949219,1.18359374 -1.699219,1.18359374 -0.773437,0 -1.335937,-0.38671875 -1.710937,-1.18359374 -0.28125,-0.5859375 -0.410156,-1.2539063 -0.410156,-2.0390625 0,-0.7617188 0.128906,-1.4414063 0.410156,-2.0273438 0.375,-0.8085937 0.9375,-1.2070312 1.710937,-1.2070312 z m 0,0"
       style="fill:#000000;fill-opacity:1;fill-rule:nonzero;stroke:none"
       aria-label="k1,1,0"
       transform="matrix(1.3333333,0,0,1.3333333,223.45833,36.283667)" />
    <path
       id="path34"
       d="m 2.0263672,-1.8387266 c -0.3515625,0.140625 -0.5273438,0.3632813 -0.5273438,0.65625 v 1.48828129 c 0,0.17578125 -0.058594,0.33984375 -0.1523437,0.48046875 C 1.1474609,1.0558047 0.80761719,1.1964297 0.33886719,1.1964297 v -0.046875 c 0.19921875,0 0.36328125,-0.09375 0.48046875,-0.24609376 0.10546875,-0.15234375 0.1640625,-0.31640625 0.1640625,-0.4921875 V -1.0301328 c 0,-0.2226563 0.0351563,-0.4101563 0.12890626,-0.5273438 0.070312,-0.1289062 0.2226562,-0.2226562 0.4335937,-0.2929687 -0.375,-0.09375 -0.56249996,-0.375 -0.56249996,-0.84375 v -1.4296875 c 0,-0.1757813 -0.046875,-0.3398438 -0.15234375,-0.46875 -0.1171875,-0.1640625 -0.28125,-0.2460938 -0.4921875,-0.2460938 v -0.058594 c 0.4921875,0 0.82031251,0.140625 1.00781251,0.3984375 0.09375,0.1640625 0.1523437,0.328125 0.1523437,0.4804687 v 1.4882813 c 0,0.1757812 0.046875,0.328125 0.1289063,0.421875 0.082031,0.082031 0.2109375,0.1757812 0.3984375,0.2695315 z m 0,0"
       style="fill:#000000;fill-opacity:1;fill-rule:nonzero;stroke:none"
       aria-label="}"
       transform="matrix(1.3333333,0,0,1.3333333,261.45833,36.283667)" />
    <path
       id="path35"
       d="m 0.7734375,1.3232422 -0.0820313,-0.1875 C 0.9609375,0.97167969 1.171875,0.77246094 1.3125,0.56152344 1.40625,0.40917969 1.4648437,0.26855469 1.4648437,0.15136719 c 0,-0.08203125 -0.046875,-0.12890625 -0.140625,-0.12890625 l -0.082031,0.01171875 -0.140625,0.0234375 c -0.15234375,0 -0.28125,-0.03515625 -0.375,-0.09375 -0.140625,-0.08203125 -0.19921875,-0.2109375 -0.19921875,-0.375 0,-0.1875 0.046875,-0.31640625 0.15234375,-0.41015625 0.1171875,-0.09375 0.234375,-0.12890625 0.3867187,-0.12890625 0.1640625,0 0.328125,0.046875 0.4570313,0.140625 0.1992187,0.1640625 0.3046875,0.41015625 0.3046875,0.75 0,0.3046875 -0.140625,0.59765625 -0.4101563,0.90234375 C 1.1835937,1.1005859 0.9609375,1.2646484 0.7734375,1.3232422 Z M 24.249023,-1.2783203 23.733398,-9.765625e-4 h -3.65625 V -0.11816406 l 1.664063,-1.76953124 c 0.808594,-0.8554688 1.21875,-1.6640625 1.21875,-2.4140625 0,-0.3164063 -0.08203,-0.5976563 -0.257813,-0.84375 -0.234375,-0.328125 -0.597656,-0.4921875 -1.078125,-0.4921875 -0.375,0 -0.691406,0.140625 -0.914062,0.4101562 -0.128906,0.1640625 -0.28125,0.4335938 -0.421875,0.8085938 l -0.199219,-0.046875 c 0.128906,-0.65625 0.386719,-1.1484375 0.785156,-1.4648438 0.328125,-0.2578125 0.726563,-0.3984375 1.195313,-0.3984375 0.457031,0 0.84375,0.1523438 1.183594,0.46875 0.339843,0.3046875 0.515625,0.7148438 0.515625,1.21875 0,0.4335938 -0.152344,0.890625 -0.445313,1.3476563 -0.164062,0.2578125 -0.421875,0.5625 -0.75,0.9375 l -1.582031,1.64062499 h 2.238281 c 0.199219,0 0.351563,-0.0234375 0.445313,-0.0820313 0.117187,-0.0703125 0.269531,-0.24609369 0.445312,-0.52734369 z m 0,0"
       style="fill:#000000;fill-opacity:1;fill-rule:nonzero;stroke:none"
       aria-label=",2"
       transform="matrix(1.3333333,0,0,1.3333333,267.1875,17.333333)" />
    <path
       id="path36"
       d="m 0.4453125,-2.0400391 h 4.2539062 l -0.8671874,-1.0429687 0.2226562,-0.2226563 1.40625,1.4648438 -1.40625,1.47656249 -0.2226562,-0.234375 0.8671874,-1.05468749 H 0.4453125 Z m 0,0"
       style="fill:#000000;fill-opacity:1;fill-rule:nonzero;stroke:none"
       aria-label="→"
       transform="matrix(1.3333333,0,0,1.3333333,302.25,17.333333)" />
    <path
       id="path37"
       d="m 4.4169922,-2.1689453 v 0.609375 H 3.4677734 V -9.765625e-4 H 2.7412109 V -1.5595703 H 0.11621094 v -0.609375 L 3.0458984,-6.3291016 h 0.421875 v 4.1601563 z m -1.6875,0 v -3.1757813 l -2.23828126,3.1757813 z m 0,0"
       style="fill:#000000;fill-opacity:1;fill-rule:nonzero;stroke:none"
       aria-label="4"
       transform="matrix(1.3333333,0,0,1.3333333,312.58333,17.333333)" />
    <path
       id="path38"
       d="m 2.0029297,1.1964299 c -0.4570313,0 -0.7851563,-0.140625 -0.984375,-0.41015621 C 0.90136719,0.64564869 0.85449219,0.48158619 0.85449219,0.30580494 V -1.1824763 c 0,-0.2929688 -0.17578125,-0.515625 -0.52734375,-0.65625 0.1875,-0.09375 0.31640625,-0.1875 0.3984375,-0.2695313 0.0820313,-0.09375 0.12890625,-0.2460937 0.12890625,-0.421875 v -1.4882812 c 0,-0.1523438 0.046875,-0.3164063 0.16406251,-0.4804688 0.1640625,-0.2578125 0.5039062,-0.3984375 0.984375,-0.3984375 v 0.058594 c -0.1992188,0 -0.3632813,0.082031 -0.4804688,0.2460937 -0.1054687,0.1289063 -0.1523437,0.2929688 -0.1523437,0.46875 v 1.4296875 c 0,0.46875 -0.1875,0.75 -0.56250001,0.84375 0.21093751,0.070312 0.35156251,0.1640625 0.44531251,0.2929688 0.082031,0.1171875 0.1171875,0.3046875 0.1171875,0.5273437 v 1.44140629 c 0,0.17578125 0.058594,0.33984375 0.1640625,0.4921875 0.1289062,0.15234371 0.28125,0.24609371 0.46875,0.24609371 z m 0,0"
       style="fill:#000000;fill-opacity:1;fill-rule:nonzero;stroke:none"
       aria-label="{"
       transform="matrix(1.3333333,0,0,1.3333333,275.52083,35.893041)" />
    <path
       id="path39"
       d="m 2.9404297,-4.1356013 c 0.234375,0 0.4101562,0.058594 0.5273437,0.1640625 0.070312,0.070312 0.140625,0.1992187 0.2226563,0.3867187 l 0.140625,-0.421875 H 4.5107422 L 2.9873047,1.4190862 c 0,0.011719 -0.011719,0.035156 -0.011719,0.046875 0,0.011719 -0.011719,0.035156 -0.011719,0.046875 0,0.1289062 0.070312,0.1992187 0.1757812,0.234375 0.09375,0.023437 0.2578125,0.035156 0.515625,0.035156 v 0.1757813 h -2.25 V 1.8058049 c 0.3046875,-0.035156 0.515625,-0.070312 0.6210938,-0.1289062 0.1171875,-0.046875 0.1875,-0.1757813 0.2578125,-0.3632813 l 0.796875,-2.6953125 c -0.3164063,0.45703129 -0.5859375,0.78515629 -0.7851563,0.98437504 -0.3632812,0.328125 -0.7382812,0.515625 -1.125,0.515625 -0.22265621,0 -0.43359371,-0.09375 -0.64453121,-0.28125 -0.22265625,-0.17578125 -0.328125,-0.46875 -0.328125,-0.89062504 0,-0.65625 0.3046875,-1.3476562 0.92578121,-2.0390625 0.6210938,-0.703125 1.2304688,-1.0429687 1.8164068,-1.0429687 z m 0.609375,0.8554687 c 0,-0.234375 -0.058594,-0.3984375 -0.1757813,-0.5039062 -0.1171875,-0.09375 -0.2460937,-0.140625 -0.375,-0.140625 -0.4453125,0 -0.8789062,0.3515625 -1.3359375,1.03125 -0.421875,0.65625 -0.6210937,1.2421875 -0.6210937,1.7578125 0,0.26953124 0.046875,0.46874999 0.1640625,0.57421874 0.1171875,0.10546875 0.234375,0.1640625 0.3632812,0.1640625 0.4335938,0 0.8789063,-0.36328125 1.3242188,-1.06640624 0.4335937,-0.6796875 0.65625,-1.2773438 0.65625,-1.8164063 z m 0,0"
       style="fill:#000000;fill-opacity:1;fill-rule:nonzero;stroke:none"
       aria-label="q"
       transform="matrix(1.3333333,0,0,1.3333333,278.58333,35.893041)" />
    <path
       id="path40"
       d="M 4.1601562,-1.6512263 H 0.46875 v -0.3984375 h 3.6914062 z m 0,0"
       style="fill:#000000;fill-opacity:1;fill-rule:nonzero;stroke:none"
       aria-label="-"
       transform="matrix(1.3333333,0,0,1.3333333,287.25,35.893041)" />
    <path
       id="path41"
       d="m 0.07128906,0.00111744 v -0.140625 c 0.31640625,-0.046875 0.515625,-0.10546875 0.5859375,-0.1640625 0.0703125,-0.0585938 0.1171875,-0.22265625 0.1171875,-0.46875 V -5.2840388 c 0,-0.2226563 -0.0351563,-0.375 -0.0820313,-0.4453125 -0.0585938,-0.070312 -0.1640625,-0.1171875 -0.33984375,-0.1171875 l -0.28125,0.011719 v -0.1523437 c 0.234375,-0.046875 0.45703125,-0.1171875 0.66796875,-0.1757813 0.2109375,-0.058594 0.46874994,-0.1289062 0.77343744,-0.234375 l 0.046875,0.023437 v 3.890625 l 0.011719,0.023437 1.2656251,-1.125 c 0.140625,-0.1289062 0.2109375,-0.234375 0.2109375,-0.3164062 0,-0.058594 -0.035156,-0.1054688 -0.09375,-0.1289063 -0.046875,-0.035156 -0.1757814,-0.046875 -0.3632814,-0.046875 v -0.140625 h 1.9101563 v 0.140625 c -0.3046875,0 -0.5507813,0.046875 -0.7265625,0.140625 -0.28125,0.1523438 -0.7265625,0.5039063 -1.3007813,1.0429688 l -0.2695311,0.2578125 1.4296875,1.81640624 c 0.2109375,0.2578125 0.4218749,0.4453125 0.6328124,0.5625 0.140625,0.0820312 0.3046875,0.1171875 0.4570312,0.1171875 v 0.140625 H 2.6845703 v -0.140625 h 0.1757813 c 0.140625,0 0.1992187,-0.046875 0.1992187,-0.15234375 0,-0.0117188 -0.023437,-0.0585938 -0.082031,-0.140625 -0.058594,-0.0703125 -0.09375,-0.12890625 -0.1171875,-0.1640625 L 1.5712891,-2.3191951 1.5595703,-0.63169506 c 0,0.1875 0.035156,0.31640625 0.1289063,0.375 0.082031,0.0820312 0.2109375,0.10546875 0.3867187,0.10546875 l 0.1875,0.0117188 v 0.140625 z m 5.70996094,0 v -0.140625 c 0.3164063,0 0.5390625,-0.0234375 0.6445313,-0.10546875 0.1640625,-0.09375 0.2460937,-0.3046875 0.2460937,-0.62109375 V -5.1082576 c 0,-0.1289062 -0.011719,-0.234375 -0.035156,-0.2929687 -0.046875,-0.09375 -0.140625,-0.1523438 -0.28125,-0.1523438 -0.070312,0 -0.1171875,0.011719 -0.1640625,0.023437 -0.140625,0.058594 -0.3046875,0.1171875 -0.46875,0.1875 v -0.1289062 l 1.6875,-0.8554688 0.070312,0.011719 v 5.62499999 c 0,0.22265625 0.058594,0.36328125 0.1757812,0.43359375 0.1171875,0.0820312 0.3515625,0.1171875 0.7148438,0.1171875 v 0.140625 z m 3.9960938,1.32421876 -0.082031,-0.1875 C 9.9648438,0.97377369 10.175781,0.77455494 10.316406,0.56361744 10.410156,0.41127369 10.46875,0.27064869 10.46875,0.15346119 c 0,-0.08203125 -0.04687,-0.12890625 -0.140625,-0.12890625 l -0.08203,0.01171875 -0.140625,0.0234375 c -0.152344,0 -0.2812502,-0.03515625 -0.3750002,-0.09375 -0.140625,-0.08203125 -0.1992188,-0.2109375 -0.1992188,-0.375 0,-0.1875 0.046875,-0.31640625 0.1523438,-0.41015625 0.1171875,-0.09375 0.234375,-0.12890625 0.3867192,-0.12890625 0.164062,0 0.328125,0.046875 0.457031,0.140625 0.199219,0.1640625 0.304687,0.41015625 0.304687,0.75 0,0.3046875 -0.140625,0.59765625 -0.410156,0.90234375 C 10.1875,1.1026799 9.9648438,1.2667424 9.7773438,1.3253362 Z M 15.34668,0.00111744 v -0.140625 c 0.316406,0 0.539062,-0.0234375 0.644531,-0.10546875 0.164062,-0.09375 0.246094,-0.3046875 0.246094,-0.62109375 V -5.1082576 c 0,-0.1289062 -0.01172,-0.234375 -0.03516,-0.2929687 -0.04687,-0.09375 -0.140625,-0.1523438 -0.28125,-0.1523438 -0.07031,0 -0.117187,0.011719 -0.164062,0.023437 -0.140625,0.058594 -0.304688,0.1171875 -0.46875,0.1875 v -0.1289062 l 1.6875,-0.8554688 0.07031,0.011719 v 5.62499999 c 0,0.22265625 0.05859,0.36328125 0.175782,0.43359375 0.117187,0.0820312 0.351562,0.1171875 0.714843,0.1171875 v 0.140625 z m 4.174804,1.32421876 -0.08203,-0.1875 c 0.269531,-0.16406251 0.480469,-0.36328126 0.621094,-0.57421876 0.09375,-0.15234375 0.152344,-0.29296875 0.152344,-0.41015625 0,-0.08203125 -0.04687,-0.12890625 -0.140625,-0.12890625 l -0.08203,0.01171875 -0.140625,0.0234375 c -0.152343,0 -0.28125,-0.03515625 -0.375,-0.09375 -0.140625,-0.08203125 -0.199218,-0.2109375 -0.199218,-0.375 0,-0.1875 0.04687,-0.31640625 0.152343,-0.41015625 0.117188,-0.09375 0.234375,-0.12890625 0.386719,-0.12890625 0.164063,0 0.328125,0.046875 0.457031,0.140625 0.199219,0.1640625 0.304688,0.41015625 0.304688,0.75 0,0.3046875 -0.140625,0.59765625 -0.410156,0.90234375 C 19.931641,1.1026799 19.708984,1.2667424 19.521484,1.3253362 Z m 6.820313,-7.40625 c -0.410156,0 -0.703125,0.2578125 -0.914063,0.7617187 -0.199218,0.515625 -0.304687,1.2539063 -0.304687,2.2265625 0,0.7382813 0.04687,1.3242188 0.152344,1.7695313 0.1875,0.80859374 0.550781,1.20703124 1.066406,1.20703124 0.386719,0 0.703125,-0.234375 0.902344,-0.73828125 0.210937,-0.49218749 0.316406,-1.24218749 0.316406,-2.23828129 0,-0.703125 -0.05859,-1.2773437 -0.164063,-1.734375 -0.199218,-0.8320312 -0.550781,-1.2539062 -1.054687,-1.2539062 z m 0,-0.2460938 c 0.75,0 1.324219,0.3984375 1.699219,1.1953125 0.269531,0.5859375 0.410156,1.265625 0.410156,2.0390625 0,0.7851563 -0.140625,1.453125 -0.410156,2.0390625 -0.375,0.79687504 -0.949219,1.18359379 -1.699219,1.18359379 -0.773438,0 -1.335938,-0.38671875 -1.710938,-1.18359379 -0.28125,-0.5859375 -0.410156,-1.2539062 -0.410156,-2.0390625 0,-0.7617187 0.128906,-1.4414062 0.410156,-2.0273437 0.375,-0.8085938 0.9375,-1.2070313 1.710938,-1.2070313 z m 0,0"
       style="fill:#000000;fill-opacity:1;fill-rule:nonzero;stroke:none"
       aria-label="k1,1,0"
       transform="matrix(1.3333333,0,0,1.3333333,295.91667,35.893041)" />
    <path
       id="path42"
       d="m 2.0283203,-1.8387263 c -0.3515625,0.140625 -0.5273437,0.3632812 -0.5273437,0.65625 v 1.48828124 c 0,0.17578125 -0.058594,0.33984375 -0.1523438,0.48046875 C 1.1494141,1.0558049 0.80957031,1.1964299 0.34082031,1.1964299 v -0.046875 c 0.19921875,0 0.36328125,-0.09375 0.48046875,-0.24609371 0.10546875,-0.15234375 0.1640625,-0.31640625 0.1640625,-0.4921875 V -1.0301326 c 0,-0.2226562 0.0351562,-0.4101562 0.12890624,-0.5273437 0.070312,-0.1289063 0.2226563,-0.2226563 0.4335938,-0.2929688 -0.375,-0.09375 -0.56250004,-0.375 -0.56250004,-0.84375 v -1.4296875 c 0,-0.1757812 -0.046875,-0.3398437 -0.15234375,-0.46875 -0.1171875,-0.1640625 -0.28125,-0.2460937 -0.4921875,-0.2460937 v -0.058594 c 0.4921875,0 0.82031249,0.140625 1.00781249,0.3984375 0.09375,0.1640625 0.1523438,0.328125 0.1523438,0.4804688 v 1.4882812 c 0,0.1757813 0.046875,0.328125 0.1289062,0.421875 0.082031,0.082031 0.2109375,0.1757813 0.3984375,0.2695315 z m 0,0"
       style="fill:#000000;fill-opacity:1;fill-rule:nonzero;stroke:none"
       aria-label="}"
       transform="matrix(1.3333333,0,0,1.3333333,333.91667,35.893041)" />
    <path
       id="path43"
       d="m 0.77246094,1.3232422 -0.0820313,-0.1875 C 0.95996094,0.97167969 1.1708984,0.77246094 1.3115234,0.56152344 1.4052734,0.40917969 1.4638672,0.26855469 1.4638672,0.15136719 c 0,-0.08203125 -0.046875,-0.12890625 -0.140625,-0.12890625 l -0.082031,0.01171875 -0.140625,0.0234375 c -0.15234371,0 -0.28124996,-0.03515625 -0.37499996,-0.09375 -0.140625,-0.08203125 -0.19921875,-0.2109375 -0.19921875,-0.375 0,-0.1875 0.046875,-0.31640625 0.15234375,-0.41015625 0.1171875,-0.09375 0.234375,-0.12890625 0.38671876,-0.12890625 0.1640625,0 0.328125,0.046875 0.4570312,0.140625 0.1992188,0.1640625 0.3046875,0.41015625 0.3046875,0.75 0,0.3046875 -0.140625,0.59765625 -0.4101562,0.90234375 C 1.1826172,1.1005859 0.95996094,1.2646484 0.77246094,1.3232422 Z M 31.270508,-3.0947266 31.258789,-3.2119141 c 0.492188,-0.1523437 0.855469,-0.3398437 1.101563,-0.5625 0.292968,-0.2695312 0.457031,-0.609375 0.457031,-1.0195312 0,-0.2578125 -0.08203,-0.4804688 -0.246094,-0.6679688 -0.1875,-0.1992187 -0.457031,-0.3046875 -0.785156,-0.3046875 -0.292969,0 -0.539063,0.082031 -0.761719,0.2460938 -0.234375,0.1523437 -0.433594,0.4101562 -0.621094,0.75 l -0.140625,-0.046875 c 0.164063,-0.5507813 0.445313,-0.9492188 0.820313,-1.21875 0.292969,-0.1875 0.632812,-0.2929688 1.019531,-0.2929688 0.515625,0 0.914063,0.1640625 1.171875,0.4804688 0.1875,0.2460937 0.28125,0.5039062 0.28125,0.7851562 0,0.2578125 -0.07031,0.4921875 -0.199219,0.703125 -0.140625,0.1992188 -0.363281,0.3984375 -0.667968,0.609375 0.433593,0.1875 0.726562,0.4101563 0.914062,0.6914063 0.175781,0.28125 0.269531,0.6210937 0.269531,1.03125 0,0.65625 -0.234375,1.18359374 -0.726562,1.58203124 -0.492188,0.38671875 -1.113281,0.57421875 -1.863281,0.57421875 -0.328125,0 -0.574219,-0.046875 -0.761719,-0.140625 -0.1875,-0.09375 -0.28125,-0.22265625 -0.28125,-0.38671875 0,-0.1171875 0.03516,-0.19921875 0.105469,-0.2578125 0.08203,-0.046875 0.164062,-0.0703125 0.269531,-0.0703125 0.128906,0 0.328125,0.09375 0.609375,0.2578125 0.28125,0.17578125 0.515625,0.2578125 0.726562,0.2578125 0.398438,0 0.714844,-0.140625 0.949219,-0.45703125 0.199219,-0.2578125 0.304688,-0.58593749 0.304688,-0.98437499 0,-0.1875 -0.04687,-0.375 -0.128907,-0.5859375 -0.140625,-0.3046875 -0.328125,-0.515625 -0.585937,-0.6445313 -0.164063,-0.082031 -0.328125,-0.140625 -0.480469,-0.1640625 -0.152344,-0.023437 -0.398437,-0.046875 -0.738281,-0.046875 z m 0,0"
       style="fill:#000000;fill-opacity:1;fill-rule:nonzero;stroke:none"
       aria-label=",3"
       transform="matrix(1.3333333,0,0,1.3333333,339.64583,17.333333)" />
    <path
       id="path44"
       d="m 0.445,-2.0400391 h 4.2539063 l -0.8671875,-1.0429687 0.2226562,-0.2226563 1.40625,1.4648438 -1.40625,1.47656249 -0.2226562,-0.234375 0.8671875,-1.05468749 H 0.445 Z m 0,0"
       style="fill:#000000;fill-opacity:1;fill-rule:nonzero;stroke:none"
       aria-label="→"
       transform="matrix(1.3333333,0,0,1.3333333,388.09417,17.333333)" />
    <path
       id="path45"
       d="m 4.4166797,-2.1689453 v 0.609375 H 3.4674609 V -9.765625e-4 H 2.7408984 V -1.5595703 H 0.11589844 v -0.609375 L 3.0455859,-6.3291016 h 0.421875 v 4.1601563 z m -1.6875,0 v -3.1757813 l -2.23828126,3.1757813 z m 0,0"
       style="fill:#000000;fill-opacity:1;fill-rule:nonzero;stroke:none"
       aria-label="4"
       transform="matrix(1.3333333,0,0,1.3333333,398.4275,17.333333)" />
    <path
       id="path46"
       d="m 2.1220703,2.6964297 c 0,0.011719 0,0.011719 -0.023437,0.011719 -0.023437,0 -0.035156,0 -0.046875,0 C 1.7587891,2.6495547 1.5361328,2.5440859 1.3955078,2.4034609 1.0908203,2.0987734 0.93847656,1.5831484 0.93847656,0.85658594 v -1.30078125 c 0,-0.73828129 -0.19921875,-1.20703129 -0.59765625,-1.39453129 v -0.011719 c 0.3984375,-0.1992188 0.59765625,-0.6796875 0.59765625,-1.4179688 v -1.2890625 c 0,-0.7265625 0.15234374,-1.2421875 0.45703124,-1.546875 0.140625,-0.140625 0.3632813,-0.2460937 0.65625,-0.3164062 0.011719,0 0.023437,0 0.046875,0 0.023437,0 0.023437,0 0.023437,0.011719 0,0.023437 -0.023437,0.058594 -0.070312,0.082031 -0.2109375,0.1171875 -0.3632812,0.2929687 -0.4570312,0.5390625 -0.09375,0.2578125 -0.140625,0.6679687 -0.140625,1.2070312 v 1.3242188 c 0,0.3515625 -0.046875,0.6210937 -0.1289063,0.8203125 -0.1054687,0.2460937 -0.2929687,0.4335937 -0.56249999,0.5859375 0.26953129,0.140625 0.45703129,0.3398437 0.56249999,0.5742187 0.082031,0.2109375 0.1289063,0.48046879 0.1289063,0.82031254 v 1.32421875 c 0,0.53906251 0.046875,0.93750001 0.140625,1.20703121 0.09375,0.2460938 0.2460937,0.421875 0.4570312,0.5390625 0.046875,0.046875 0.070312,0.070312 0.070312,0.082032 z m 0,0"
       style="fill:#000000;fill-opacity:1;fill-rule:nonzero;stroke:none"
       aria-label=""
       transform="matrix(1.3333333,0,0,1.3333333,347.97917,38.033667)" />
    <path
       id="path47"
       d="m 0.0703125,0.00111719 v -0.140625 c 0.31640625,-0.046875 0.515625,-0.10546875 0.5859375,-0.1640625 0.0703125,-0.0585938 0.1171875,-0.22265625 0.1171875,-0.46875 V -5.2840391 c 0,-0.2226562 -0.0351563,-0.375 -0.0820313,-0.4453125 -0.0585938,-0.070312 -0.1640625,-0.1171875 -0.33984375,-0.1171875 l -0.28125,0.011719 v -0.1523438 c 0.234375,-0.046875 0.45703125,-0.1171875 0.66796875,-0.1757812 0.2109375,-0.058594 0.4687499,-0.1289063 0.7734374,-0.234375 l 0.046875,0.023437 v 3.890625 l 0.011719,0.023437 1.2656251,-1.125 c 0.140625,-0.1289063 0.2109375,-0.234375 0.2109375,-0.3164063 0,-0.058594 -0.035156,-0.1054687 -0.09375,-0.1289062 -0.046875,-0.035156 -0.1757812,-0.046875 -0.3632812,-0.046875 v -0.140625 H 4.5 v 0.140625 c -0.3046875,0 -0.5507812,0.046875 -0.7265625,0.140625 -0.28125,0.1523437 -0.7265625,0.5039062 -1.3007812,1.0429687 l -0.2695313,0.2578125 1.4296875,1.81640629 c 0.2109375,0.2578125 0.421875,0.4453125 0.6328125,0.5625 0.140625,0.0820313 0.3046875,0.1171875 0.4570312,0.1171875 v 0.140625 H 2.6835938 v -0.140625 H 2.859375 c 0.140625,0 0.1992188,-0.046875 0.1992188,-0.15234375 0,-0.0117188 -0.023437,-0.0585938 -0.082031,-0.140625 -0.058594,-0.0703125 -0.09375,-0.12890625 -0.1171875,-0.1640625 L 1.5703125,-2.3191953 1.5585937,-0.63169531 c 0,0.1875 0.035156,0.31640625 0.1289063,0.375 0.082031,0.0820313 0.2109375,0.10546875 0.3867188,0.10546875 l 0.1875,0.0117188 v 0.140625 z M 9.1318359,-1.2762266 8.6162109,0.00111719 h -3.65625 v -0.1171875 L 6.6240234,-1.8856016 c 0.8085938,-0.8554687 1.21875,-1.6640625 1.21875,-2.4140625 0,-0.3164062 -0.082031,-0.5976562 -0.2578125,-0.84375 -0.234375,-0.328125 -0.5976562,-0.4921875 -1.078125,-0.4921875 -0.375,0 -0.6914062,0.140625 -0.9140625,0.4101563 -0.1289062,0.1640625 -0.28125,0.4335937 -0.421875,0.8085937 l -0.1992187,-0.046875 c 0.1289062,-0.65625 0.3867187,-1.1484375 0.7851562,-1.4648437 0.328125,-0.2578125 0.7265625,-0.3984375 1.1953125,-0.3984375 0.4570313,0 0.84375,0.1523437 1.1835938,0.46875 0.3398437,0.3046875 0.515625,0.7148437 0.515625,1.21875 0,0.4335937 -0.1523438,0.890625 -0.4453125,1.3476562 -0.1640625,0.2578125 -0.421875,0.5625 -0.75,0.9375 l -1.5820313,1.64062504 h 2.2382813 c 0.1992187,0 0.3515625,-0.0234375 0.4453125,-0.0820313 0.1171875,-0.0703125 0.2695312,-0.24609384 0.4453125,-0.52734384 z m 0,0"
       style="fill:#000000;fill-opacity:1;fill-rule:nonzero;stroke:none"
       aria-label="k2"
       transform="matrix(1.3333333,0,0,1.3333333,351.1875,38.033667)" />
    <path
       id="path48"
       d="M 4.1611328,-1.6512266 H 0.46972656 V -2.0496641 H 4.1611328 Z m 0,0"
       style="fill:#000000;fill-opacity:1;fill-rule:nonzero;stroke:none"
       aria-label="-"
       transform="matrix(1.3333333,0,0,1.3333333,365.85417,38.033667)" />
    <path
       id="path49"
       d="m 0.06933594,0.00111719 v -0.140625 c 0.31640625,-0.046875 0.515625,-0.10546875 0.5859375,-0.1640625 0.0703125,-0.0585938 0.1171875,-0.22265625 0.1171875,-0.46875 V -5.2840391 c 0,-0.2226562 -0.0351563,-0.375 -0.0820313,-0.4453125 -0.0585938,-0.070312 -0.1640625,-0.1171875 -0.33984375,-0.1171875 l -0.28125,0.011719 v -0.1523438 c 0.234375,-0.046875 0.45703125,-0.1171875 0.66796875,-0.1757812 0.2109375,-0.058594 0.46874996,-0.1289063 0.77343746,-0.234375 l 0.046875,0.023437 v 3.890625 l 0.011719,0.023437 1.2656251,-1.125 c 0.140625,-0.1289063 0.2109374,-0.234375 0.2109374,-0.3164063 0,-0.058594 -0.035156,-0.1054687 -0.09375,-0.1289062 -0.046875,-0.035156 -0.1757812,-0.046875 -0.3632812,-0.046875 v -0.140625 h 1.9101561 v 0.140625 c -0.3046875,0 -0.5507811,0.046875 -0.7265625,0.140625 -0.28125,0.1523437 -0.7265625,0.5039062 -1.3007812,1.0429687 l -0.2695313,0.2578125 1.4296875,1.81640629 c 0.2109375,0.2578125 0.421875,0.4453125 0.6328125,0.5625 0.140625,0.0820313 0.3046875,0.1171875 0.4570313,0.1171875 v 0.140625 H 2.6826172 v -0.140625 h 0.1757812 c 0.140625,0 0.1992188,-0.046875 0.1992188,-0.15234375 0,-0.0117188 -0.023437,-0.0585938 -0.082031,-0.140625 -0.058594,-0.0703125 -0.09375,-0.12890625 -0.1171875,-0.1640625 L 1.5693359,-2.3191953 1.5576172,-0.63169531 c 0,0.1875 0.035156,0.31640625 0.1289062,0.375 0.082031,0.0820313 0.2109375,0.10546875 0.3867188,0.10546875 l 0.1875,0.0117188 v 0.140625 z M 6.1103516,-3.0926328 6.0986328,-3.2098203 c 0.4921875,-0.1523438 0.8554688,-0.3398438 1.1015625,-0.5625 0.2929688,-0.2695313 0.4570313,-0.609375 0.4570313,-1.0195313 0,-0.2578125 -0.082031,-0.4804687 -0.2460938,-0.6679687 -0.1875,-0.1992188 -0.4570312,-0.3046875 -0.7851562,-0.3046875 -0.2929688,0 -0.5390625,0.082031 -0.7617188,0.2460937 -0.234375,0.1523438 -0.4335937,0.4101563 -0.6210937,0.75 l -0.140625,-0.046875 c 0.1640625,-0.5507812 0.4453125,-0.9492187 0.8203125,-1.21875 0.2929687,-0.1875 0.6328125,-0.2929687 1.0195312,-0.2929687 0.515625,0 0.9140625,0.1640625 1.171875,0.4804687 0.1875,0.2460938 0.28125,0.5039063 0.28125,0.7851563 0,0.2578125 -0.070312,0.4921875 -0.1992187,0.703125 -0.140625,0.1992187 -0.3632813,0.3984375 -0.6679688,0.609375 0.4335938,0.1875 0.7265625,0.4101562 0.9140625,0.6914062 0.1757813,0.28125 0.2695313,0.6210938 0.2695313,1.03125 0,0.65625 -0.234375,1.18359379 -0.7265625,1.58203129 -0.4921875,0.38671875 -1.1132813,0.57421875 -1.8632813,0.57421875 -0.328125,0 -0.5742187,-0.046875 -0.7617187,-0.140625 -0.1875,-0.09375 -0.28125,-0.22265625 -0.28125,-0.38671875 0,-0.1171875 0.035156,-0.19921875 0.1054687,-0.2578125 0.082031,-0.046875 0.1640625,-0.0703125 0.2695313,-0.0703125 0.1289062,0 0.328125,0.09375 0.609375,0.2578125 0.28125,0.17578125 0.515625,0.2578125 0.7265625,0.2578125 0.3984375,0 0.7148437,-0.140625 0.9492187,-0.45703125 0.1992188,-0.2578125 0.3046875,-0.58593754 0.3046875,-0.98437504 0,-0.1875 -0.046875,-0.375 -0.1289062,-0.5859375 -0.140625,-0.3046875 -0.328125,-0.515625 -0.5859375,-0.6445312 -0.1640625,-0.082031 -0.328125,-0.140625 -0.4804688,-0.1640625 -0.1523437,-0.023437 -0.3984375,-0.046875 -0.7382812,-0.046875 z m 3.6679687,4.4179687 -0.082031,-0.1875 c 0.269531,-0.16406246 0.4804687,-0.36328121 0.6210937,-0.57421871 0.09375,-0.15234375 0.152344,-0.29296875 0.152344,-0.41015625 0,-0.08203125 -0.04687,-0.12890625 -0.140625,-0.12890625 l -0.08203,0.01171875 -0.140625,0.0234375 c -0.1523434,0 -0.2812497,-0.03515625 -0.3749997,-0.09375 -0.140625,-0.08203125 -0.1992187,-0.2109375 -0.1992187,-0.375 0,-0.1875 0.046875,-0.31640625 0.1523437,-0.41015625 0.1171875,-0.09375 0.234375,-0.12890625 0.3867187,-0.12890625 0.164063,0 0.328125,0.046875 0.457031,0.140625 0.199219,0.1640625 0.304688,0.41015625 0.304688,0.75 0,0.3046875 -0.140625,0.59765625 -0.410156,0.90234375 C 10.188477,1.1026797 9.9658203,1.2667422 9.7783203,1.3253359 Z M 15.347656,0.00111719 v -0.140625 c 0.316407,0 0.539063,-0.0234375 0.644532,-0.10546875 0.164062,-0.09375 0.246093,-0.3046875 0.246093,-0.62109375 V -5.1082578 c 0,-0.1289063 -0.01172,-0.234375 -0.03516,-0.2929688 -0.04687,-0.09375 -0.140625,-0.1523437 -0.28125,-0.1523437 -0.07031,0 -0.117187,0.011719 -0.164062,0.023437 -0.140625,0.058594 -0.304688,0.1171875 -0.46875,0.1875 v -0.1289063 l 1.6875,-0.8554687 0.07031,0.011719 v 5.62500004 c 0,0.22265625 0.05859,0.36328125 0.175781,0.43359375 0.117188,0.0820313 0.351563,0.1171875 0.714844,0.1171875 v 0.140625 z m 4.174805,1.32421871 -0.08203,-0.1875 c 0.269531,-0.16406246 0.480468,-0.36328121 0.621093,-0.57421871 0.09375,-0.15234375 0.152344,-0.29296875 0.152344,-0.41015625 0,-0.08203125 -0.04687,-0.12890625 -0.140625,-0.12890625 l -0.08203,0.01171875 -0.140625,0.0234375 c -0.152344,0 -0.28125,-0.03515625 -0.375,-0.09375 -0.140625,-0.08203125 -0.199219,-0.2109375 -0.199219,-0.375 0,-0.1875 0.04687,-0.31640625 0.152344,-0.41015625 0.117187,-0.09375 0.234375,-0.12890625 0.386719,-0.12890625 0.164062,0 0.328125,0.046875 0.457031,0.140625 0.199219,0.1640625 0.304687,0.41015625 0.304687,0.75 0,0.3046875 -0.140625,0.59765625 -0.410156,0.90234375 C 19.932617,1.1026797 19.709961,1.2667422 19.522461,1.3253359 Z m 0,0"
       style="fill:#000000;fill-opacity:1;fill-rule:nonzero;stroke:none"
       aria-label="k3,1,"
       transform="matrix(1.3333333,0,0,1.3333333,374.52083,38.033667)" />
    <path
       id="path50"
       d="M 4.1591797,-1.6512266 H 0.46777344 V -2.0496641 H 4.1591797 Z m 0,0"
       style="fill:#000000;fill-opacity:1;fill-rule:nonzero;stroke:none"
       aria-label="-"
       transform="matrix(1.3333333,0,0,1.3333333,406.52083,38.033667)" />
    <path
       id="path51"
       d="M 0.80761719,-0.79575781 V -3.1629453 c 0,-0.2578125 -0.0351563,-0.4335938 -0.10546875,-0.515625 -0.046875,-0.058594 -0.1171875,-0.082031 -0.22265625,-0.082031 -0.10546875,0 -0.2109375,0.011719 -0.3046875,0.035156 V -3.8895078 C 0.63183594,-4.0066953 1.0537109,-4.1473203 1.4873047,-4.3113828 l 0.070312,0.023437 v 0.703125 c 0.328125,-0.2460938 0.5625,-0.421875 0.7382812,-0.515625 0.2460938,-0.1289063 0.4804688,-0.2109375 0.703125,-0.2109375 0.28125,0 0.5039063,0.09375 0.6914063,0.2460937 0.140625,0.1289063 0.2460937,0.3164063 0.3046875,0.5507813 0.1757812,-0.1875 0.3515625,-0.3515625 0.5507812,-0.4804688 0.3164063,-0.2109375 0.6328125,-0.3164062 0.9609375,-0.3164062 0.4335938,0 0.7265625,0.1992187 0.9140625,0.5742187 0.1171875,0.2695313 0.1875,0.6445313 0.1875,1.1015625 v 1.92187504 c 0,0.15234375 0.011719,0.26953125 0.046875,0.328125 0.058594,0.12890625 0.1640625,0.19921875 0.3515625,0.22265625 l 0.2460938,0.0234375 v 0.140625 H 5.2021484 v -0.140625 c 0.2695313,-0.0234375 0.421875,-0.0703125 0.4921875,-0.12890625 0.082031,-0.0820313 0.1289063,-0.2578125 0.1289063,-0.55078125 V -2.7879453 c 0,-0.328125 -0.023437,-0.5625 -0.082031,-0.6914063 -0.1054687,-0.2226562 -0.3046875,-0.3398437 -0.5976562,-0.3398437 -0.2578125,0 -0.46875,0.058594 -0.6445313,0.1640625 -0.140625,0.09375 -0.28125,0.2226562 -0.3984375,0.4101562 v 2.35546879 c 0,0.328125 0.058594,0.5390625 0.1875,0.6328125 0.09375,0.0820313 0.2578125,0.1171875 0.4804688,0.1171875 v 0.140625 H 2.6826172 v -0.140625 c 0.2226562,0 0.3867187,-0.0234375 0.46875,-0.10546875 0.1054687,-0.0820313 0.1640625,-0.26953125 0.1640625,-0.5625 V -2.8348203 c 0,-0.3164063 -0.058594,-0.5625 -0.1523438,-0.7265625 -0.1054687,-0.1757813 -0.2695312,-0.2578125 -0.4921875,-0.2578125 -0.28125,0 -0.5507812,0.082031 -0.7851562,0.2578125 -0.1992188,0.140625 -0.2929688,0.234375 -0.2929688,0.2929687 v 2.63671879 c 0,0.2109375 0.058594,0.3515625 0.1992188,0.421875 0.09375,0.046875 0.234375,0.0703125 0.4335937,0.0703125 v 0.140625 H 0.15136719 v -0.140625 c 0.22265625,0 0.38671875,-0.0234375 0.46875,-0.0820313 0.1171875,-0.0820313 0.1875,-0.26953125 0.1875,-0.5742187 z M 8.7119141,-3.0106016 v 2.35546879 c 0,0.15234375 0.1171875,0.2578125 0.3632812,0.3515625 0.1875,0.0703125 0.3632813,0.09375 0.5390625,0.09375 0.4687502,0 0.8085942,-0.1875 1.0078122,-0.59765625 0.140625,-0.28125004 0.222657,-0.64453124 0.222657,-1.07812504 0,-0.4921875 -0.09375,-0.9023437 -0.28125,-1.2421875 -0.210938,-0.3867187 -0.515625,-0.5859375 -0.9140629,-0.5859375 -0.1992188,0 -0.3984375,0.058594 -0.5742188,0.1523438 -0.2460937,0.1289062 -0.3632812,0.3164062 -0.3632812,0.5507812 z M 7.9267578,-0.50278906 V -5.3660703 c 0,-0.1757813 -0.011719,-0.2929688 -0.046875,-0.3398438 -0.058594,-0.09375 -0.1757812,-0.140625 -0.3632812,-0.140625 l -0.2109375,0.011719 v -0.1523438 c 0.4453125,-0.1054687 0.703125,-0.1875 0.796875,-0.2109375 0.09375,-0.023437 0.2695312,-0.09375 0.5625,-0.1992187 l 0.046875,0.023437 v 2.8242187 c 0.046875,-0.140625 0.1757812,-0.2929687 0.4101562,-0.4570312 0.2695313,-0.1992188 0.5625,-0.3046875 0.8789067,-0.3046875 0.515625,0 0.9375,0.234375 1.253906,0.6679687 0.269531,0.3984375 0.410156,0.8671875 0.410156,1.4179688 0,0.5390625 -0.164062,1.0429687 -0.492187,1.46484374 -0.421875,0.57421875 -1.03125,0.85546875 -1.7929692,0.85546875 -0.28125,0 -0.5859375,-0.05859375 -0.9023437,-0.1640625 -0.375,-0.140625 -0.5507813,-0.28125 -0.5507813,-0.43359345 z m 0,0"
       style="fill:#000000;fill-opacity:1;fill-rule:nonzero;stroke:none"
       aria-label="mb"
       transform="matrix(1.3333333,0,0,1.3333333,412.52083,38.033667)" />
    <path
       id="path52"
       d="M 3.1884766,-0.92466406 2.8251953,0.00111719 H 0.20019531 V -0.08091406 L 1.3955078,-1.3465391 c 0.5742188,-0.6210937 0.8789063,-1.1953125 0.8789063,-1.734375 0,-0.2226562 -0.058594,-0.4335937 -0.1875,-0.609375 -0.1757813,-0.234375 -0.421875,-0.3515625 -0.7734375,-0.3515625 -0.2695313,0 -0.49218754,0.1054688 -0.65625004,0.2929688 -0.09375,0.1171875 -0.19921875,0.3164062 -0.3046875,0.5859375 l -0.140625,-0.035156 c 0.09375,-0.46875 0.28125,-0.8203125 0.5625,-1.0546875 0.23437504,-0.1875 0.52734374,-0.28125 0.85546874,-0.28125 0.328125,0 0.609375,0.1054688 0.84375,0.328125 0.2460938,0.2226563 0.375,0.515625 0.375,0.8789063 0,0.3164062 -0.1054687,0.6328125 -0.3164062,0.9609375 -0.1171875,0.1875 -0.3046875,0.4101562 -0.5390625,0.6796875 L 0.85644531,-0.51450781 H 2.4619141 c 0.140625,0 0.2460937,-0.0117188 0.3164062,-0.0585938 0.09375,-0.046875 0.1992188,-0.17578125 0.328125,-0.375 z m 0,0"
       style="fill:#000000;fill-opacity:1;fill-rule:nonzero;stroke:none"
       aria-label="2"
       transform="matrix(1.3333333,0,0,1.3333333,427.85417,33.721167)" />
    <path
       id="path53"
       d="m 2.1204687,-1.8387266 c -0.3984375,0.1875 -0.5976562,0.65625 -0.5976562,1.39453129 v 1.30078125 c 0,0.72656246 -0.1523438,1.24218746 -0.4570313,1.54687496 C 0.936875,2.5440859 0.71421875,2.6495547 0.42125,2.7081484 c -0.0234375,0 -0.0351563,0 -0.0585938,0 -0.0117188,0 -0.0234375,0 -0.0234375,-0.011719 0,-0.011719 0.0234375,-0.035156 0.0820313,-0.082031 C 0.6321875,2.4972109 0.78453125,2.3214297 0.8665625,2.0753359 0.97203125,1.8058047 1.0189062,1.4073672 1.0189062,0.86830469 v -1.32421875 c 0,-0.33984375 0.035156,-0.60937504 0.1289063,-0.82031254 0.09375,-0.234375 0.28125,-0.4335937 0.5507812,-0.5742187 -0.2578125,-0.1523438 -0.4453125,-0.3398438 -0.5507812,-0.5859375 -0.09375,-0.1992188 -0.1289063,-0.46875 -0.1289063,-0.8203125 v -1.3242188 c 0,-0.5390625 -0.0468749,-0.9492187 -0.1523437,-1.2070312 -0.0820313,-0.2460938 -0.234375,-0.421875 -0.4453125,-0.5390625 -0.0585938,-0.023437 -0.0820313,-0.058594 -0.0820313,-0.082031 0,-0.011719 0.0117188,-0.011719 0.0234375,-0.011719 0.0234375,0 0.0351563,0 0.0585938,0 0.29296875,0.070312 0.515625,0.1757812 0.6445312,0.3164062 0.3046875,0.3046875 0.4570313,0.8203125 0.4570313,1.546875 v 1.2890625 c 0,0.7382813 0.1992187,1.21875 0.5976562,1.4179688 z m 0,0"
       style="fill:#000000;fill-opacity:1;fill-rule:nonzero;stroke:none"
       aria-label=""
       transform="matrix(1.3333333,0,0,1.3333333,433.00083,38.033667)" />
    <path
       id="path54"
       d="m 0.7728125,1.3232422 -0.0820313,-0.1875 C 0.9603125,0.97167969 1.17125,0.77246094 1.311875,0.56152344 1.405625,0.40917969 1.4642188,0.26855469 1.4642188,0.15136719 c 0,-0.08203125 -0.046875,-0.12890625 -0.140625,-0.12890625 l -0.082031,0.01171875 -0.140625,0.0234375 c -0.15234375,0 -0.28125,-0.03515625 -0.375,-0.09375 -0.140625,-0.08203125 -0.19921875,-0.2109375 -0.19921875,-0.375 0,-0.1875 0.046875,-0.31640625 0.15234375,-0.41015625 0.1171875,-0.09375 0.234375,-0.12890625 0.3867188,-0.12890625 0.1640625,0 0.328125,0.046875 0.4570312,0.140625 0.1992188,0.1640625 0.3046875,0.41015625 0.3046875,0.75 0,0.3046875 -0.140625,0.59765625 -0.4101562,0.90234375 C 1.1829688,1.1005859 0.9603125,1.2646484 0.7728125,1.3232422 Z M 31.26793,-3.0947266 31.256211,-3.2119141 c 0.492187,-0.1523437 0.855469,-0.3398437 1.101562,-0.5625 0.292969,-0.2695312 0.457032,-0.609375 0.457032,-1.0195312 0,-0.2578125 -0.08203,-0.4804688 -0.246094,-0.6679688 -0.1875,-0.1992187 -0.457031,-0.3046875 -0.785156,-0.3046875 -0.292969,0 -0.539063,0.082031 -0.761719,0.2460938 -0.234375,0.1523437 -0.433594,0.4101562 -0.621094,0.75 l -0.140625,-0.046875 c 0.164063,-0.5507813 0.445313,-0.9492188 0.820313,-1.21875 0.292968,-0.1875 0.632812,-0.2929688 1.019531,-0.2929688 0.515625,0 0.914062,0.1640625 1.171875,0.4804688 0.1875,0.2460937 0.28125,0.5039062 0.28125,0.7851562 0,0.2578125 -0.07031,0.4921875 -0.199219,0.703125 -0.140625,0.1992188 -0.363281,0.3984375 -0.667969,0.609375 0.433594,0.1875 0.726563,0.4101563 0.914063,0.6914063 0.175781,0.28125 0.269531,0.6210937 0.269531,1.03125 0,0.65625 -0.234375,1.18359374 -0.726562,1.58203124 -0.492188,0.38671875 -1.113282,0.57421875 -1.863282,0.57421875 -0.328125,0 -0.574218,-0.046875 -0.761718,-0.140625 -0.1875,-0.09375 -0.28125,-0.22265625 -0.28125,-0.38671875 0,-0.1171875 0.03516,-0.19921875 0.105468,-0.2578125 0.08203,-0.046875 0.164063,-0.0703125 0.269532,-0.0703125 0.128906,0 0.328125,0.09375 0.609375,0.2578125 0.28125,0.17578125 0.515625,0.2578125 0.726562,0.2578125 0.398438,0 0.714844,-0.140625 0.949219,-0.45703125 0.199219,-0.2578125 0.304687,-0.58593749 0.304687,-0.98437499 0,-0.1875 -0.04687,-0.375 -0.128906,-0.5859375 -0.140625,-0.3046875 -0.328125,-0.515625 -0.585937,-0.6445313 -0.164063,-0.082031 -0.328125,-0.140625 -0.480469,-0.1640625 -0.152344,-0.023437 -0.398438,-0.046875 -0.738281,-0.046875 z m 0,0"
       style="fill:#000000;fill-opacity:1;fill-rule:nonzero;stroke:none"
       aria-label=",3"
       transform="matrix(1.3333333,0,0,1.3333333,438.87583,17.333333)" />
    <path
       id="path55"
       d="M 0.44535156,-2.0400391 H 4.6992578 l -0.8671875,-1.0429687 0.2226563,-0.2226563 1.40625,1.4648438 -1.40625,1.47656249 -0.2226563,-0.234375 0.8671875,-1.05468749 H 0.44535156 Z m 0,0"
       style="fill:#000000;fill-opacity:1;fill-rule:nonzero;stroke:none"
       aria-label="→"
       transform="matrix(1.3333333,0,0,1.3333333,487.32417,17.333333)" />
    <path
       id="path56"
       d="m 4.4170313,-2.1689453 v 0.609375 H 3.4678125 V -9.765625e-4 H 2.74125 V -1.5595703 h -2.625 v -0.609375 l 2.9296875,-4.1601563 h 0.421875 v 4.1601563 z m -1.6875,0 V -5.3447266 L 0.49125,-2.1689453 Z m 0,0"
       style="fill:#000000;fill-opacity:1;fill-rule:nonzero;stroke:none"
       aria-label="4"
       transform="matrix(1.3333333,0,0,1.3333333,497.6575,17.333333)" />
    <path
       id="path57"
       d="m 2.1224219,2.6964297 c 0,0.011719 0,0.011719 -0.023437,0.011719 -0.023437,0 -0.035156,0 -0.046875,0 C 1.7591406,2.6495547 1.5364844,2.5440859 1.3958594,2.4034609 1.0911719,2.0987734 0.93882813,1.5831484 0.93882813,0.85658594 v -1.30078125 c 0,-0.73828129 -0.19921875,-1.20703129 -0.59765625,-1.39453129 v -0.011719 c 0.3984375,-0.1992188 0.59765625,-0.6796875 0.59765625,-1.4179688 v -1.2890625 c 0,-0.7265625 0.15234377,-1.2421875 0.45703127,-1.546875 0.140625,-0.140625 0.3632812,-0.2460937 0.65625,-0.3164062 0.011719,0 0.023437,0 0.046875,0 0.023437,0 0.023437,0 0.023437,0.011719 0,0.023437 -0.023437,0.058594 -0.070312,0.082031 -0.2109375,0.1171875 -0.3632813,0.2929687 -0.4570313,0.5390625 -0.09375,0.2578125 -0.140625,0.6679687 -0.140625,1.2070312 v 1.3242188 c 0,0.3515625 -0.046875,0.6210937 -0.1289062,0.8203125 -0.1054688,0.2460937 -0.2929688,0.4335937 -0.56250002,0.5859375 0.26953122,0.140625 0.45703122,0.3398437 0.56250002,0.5742187 0.082031,0.2109375 0.1289062,0.48046879 0.1289062,0.82031254 v 1.32421875 c 0,0.53906251 0.046875,0.93750001 0.140625,1.20703121 0.09375,0.2460938 0.2460938,0.421875 0.4570313,0.5390625 0.046875,0.046875 0.070312,0.070312 0.070312,0.082032 z m 0,0"
       style="fill:#000000;fill-opacity:1;fill-rule:nonzero;stroke:none"
       aria-label=""
       transform="matrix(1.3333333,0,0,1.3333333,447.20917,38.033667)" />
    <path
       id="path58"
       d="m 0.07066406,0.00111719 v -0.140625 c 0.31640625,-0.046875 0.515625,-0.10546875 0.5859375,-0.1640625 0.0703125,-0.0585938 0.1171875,-0.22265625 0.1171875,-0.46875 V -5.2840391 c 0,-0.2226562 -0.0351563,-0.375 -0.0820313,-0.4453125 -0.0585938,-0.070312 -0.1640625,-0.1171875 -0.33984375,-0.1171875 l -0.28125,0.011719 v -0.1523438 c 0.234375,-0.046875 0.45703125,-0.1171875 0.66796875,-0.1757812 0.2109375,-0.058594 0.46874994,-0.1289063 0.77343744,-0.234375 l 0.046875,0.023437 v 3.890625 l 0.011719,0.023437 1.2656251,-1.125 c 0.140625,-0.1289063 0.2109375,-0.234375 0.2109375,-0.3164063 0,-0.058594 -0.035156,-0.1054687 -0.09375,-0.1289062 -0.046875,-0.035156 -0.1757813,-0.046875 -0.3632813,-0.046875 v -0.140625 h 1.9101562 v 0.140625 c -0.3046875,0 -0.5507812,0.046875 -0.7265624,0.140625 -0.28125,0.1523437 -0.7265625,0.5039062 -1.3007813,1.0429687 l -0.2695312,0.2578125 1.4296875,1.81640629 c 0.2109375,0.2578125 0.4218749,0.4453125 0.6328124,0.5625 0.140625,0.0820313 0.3046875,0.1171875 0.4570313,0.1171875 v 0.140625 H 2.6839453 v -0.140625 h 0.1757813 c 0.140625,0 0.1992187,-0.046875 0.1992187,-0.15234375 0,-0.0117188 -0.023437,-0.0585938 -0.082031,-0.140625 -0.058594,-0.0703125 -0.09375,-0.12890625 -0.1171875,-0.1640625 L 1.5706641,-2.3191953 1.5589453,-0.63169531 c 0,0.1875 0.035156,0.31640625 0.1289063,0.375 0.082031,0.0820313 0.2109375,0.10546875 0.3867187,0.10546875 l 0.1875,0.0117188 v 0.140625 z m 5.70996094,0 v -0.140625 c 0.3164063,0 0.5390625,-0.0234375 0.6445313,-0.10546875 0.1640625,-0.09375 0.2460937,-0.3046875 0.2460937,-0.62109375 V -5.1082578 c 0,-0.1289063 -0.011719,-0.234375 -0.035156,-0.2929688 -0.046875,-0.09375 -0.140625,-0.1523437 -0.28125,-0.1523437 -0.070312,0 -0.1171875,0.011719 -0.1640625,0.023437 -0.140625,0.058594 -0.3046875,0.1171875 -0.46875,0.1875 v -0.1289063 l 1.6875,-0.8554687 0.070312,0.011719 v 5.62500004 c 0,0.22265625 0.058594,0.36328125 0.1757812,0.43359375 0.1171875,0.0820313 0.3515625,0.1171875 0.7148438,0.1171875 v 0.140625 z m 0,0"
       style="fill:#000000;fill-opacity:1;fill-rule:nonzero;stroke:none"
       aria-label="k1"
       transform="matrix(1.3333333,0,0,1.3333333,450.4175,38.033667)" />
    <path
       id="path59"
       d="M 4.1614844,-1.6512266 H 0.47007813 V -2.0496641 H 4.1614844 Z m 0,0"
       style="fill:#000000;fill-opacity:1;fill-rule:nonzero;stroke:none"
       aria-label="-"
       transform="matrix(1.3333333,0,0,1.3333333,465.08417,38.033667)" />
    <path
       id="path60"
       d="m 0.0696875,0.00111719 v -0.140625 c 0.31640625,-0.046875 0.515625,-0.10546875 0.5859375,-0.1640625 0.0703125,-0.0585938 0.1171875,-0.22265625 0.1171875,-0.46875 V -5.2840391 c 0,-0.2226562 -0.0351563,-0.375 -0.0820313,-0.4453125 -0.0585938,-0.070312 -0.1640625,-0.1171875 -0.33984375,-0.1171875 l -0.28125,0.011719 v -0.1523438 c 0.234375,-0.046875 0.45703125,-0.1171875 0.66796875,-0.1757812 0.2109375,-0.058594 0.46875,-0.1289063 0.7734376,-0.234375 l 0.046875,0.023437 v 3.890625 l 0.011719,0.023437 1.265625,-1.125 c 0.140625,-0.1289063 0.2109375,-0.234375 0.2109375,-0.3164063 0,-0.058594 -0.035156,-0.1054687 -0.09375,-0.1289062 -0.046875,-0.035156 -0.1757812,-0.046875 -0.3632812,-0.046875 v -0.140625 H 4.499375 v 0.140625 c -0.3046875,0 -0.5507812,0.046875 -0.7265625,0.140625 -0.28125,0.1523437 -0.7265625,0.5039062 -1.3007812,1.0429687 L 2.2025,-2.6356016 3.6321875,-0.81919531 c 0.2109375,0.2578125 0.421875,0.4453125 0.6328125,0.5625 0.140625,0.0820313 0.3046875,0.1171875 0.4570313,0.1171875 v 0.140625 H 2.6829688 v -0.140625 H 2.85875 c 0.140625,0 0.1992188,-0.046875 0.1992188,-0.15234375 0,-0.0117188 -0.023437,-0.0585938 -0.082031,-0.140625 -0.058594,-0.0703125 -0.09375,-0.12890625 -0.1171875,-0.1640625 L 1.5696875,-2.3191953 1.5579688,-0.63169531 c 0,0.1875 0.035156,0.31640625 0.1289062,0.375 0.082031,0.0820313 0.2109375,0.10546875 0.3867188,0.10546875 l 0.1875,0.0117188 v 0.140625 z M 6.1107031,-3.0926328 6.0989844,-3.2098203 c 0.4921875,-0.1523438 0.8554687,-0.3398438 1.1015625,-0.5625 0.2929687,-0.2695313 0.4570312,-0.609375 0.4570312,-1.0195313 0,-0.2578125 -0.082031,-0.4804687 -0.2460937,-0.6679687 -0.1875,-0.1992188 -0.4570313,-0.3046875 -0.7851563,-0.3046875 -0.2929687,0 -0.5390625,0.082031 -0.7617187,0.2460937 -0.234375,0.1523438 -0.4335938,0.4101563 -0.6210938,0.75 l -0.140625,-0.046875 c 0.1640625,-0.5507812 0.4453125,-0.9492187 0.8203125,-1.21875 0.2929688,-0.1875 0.6328125,-0.2929687 1.0195313,-0.2929687 0.515625,0 0.9140625,0.1640625 1.171875,0.4804687 0.1875,0.2460938 0.28125,0.5039063 0.28125,0.7851563 0,0.2578125 -0.070312,0.4921875 -0.1992188,0.703125 -0.140625,0.1992187 -0.3632812,0.3984375 -0.6679687,0.609375 0.4335937,0.1875 0.7265625,0.4101562 0.9140625,0.6914062 0.1757812,0.28125 0.2695312,0.6210938 0.2695312,1.03125 0,0.65625 -0.234375,1.18359379 -0.7265625,1.58203129 -0.4921875,0.38671875 -1.1132812,0.57421875 -1.8632812,0.57421875 -0.328125,0 -0.5742188,-0.046875 -0.7617188,-0.140625 -0.1875,-0.09375 -0.28125,-0.22265625 -0.28125,-0.38671875 0,-0.1171875 0.035156,-0.19921875 0.1054688,-0.2578125 0.082031,-0.046875 0.1640625,-0.0703125 0.2695312,-0.0703125 0.1289063,0 0.328125,0.09375 0.609375,0.2578125 0.28125,0.17578125 0.515625,0.2578125 0.7265625,0.2578125 0.3984375,0 0.7148438,-0.140625 0.9492188,-0.45703125 0.1992187,-0.2578125 0.3046875,-0.58593754 0.3046875,-0.98437504 0,-0.1875 -0.046875,-0.375 -0.1289063,-0.5859375 -0.140625,-0.3046875 -0.328125,-0.515625 -0.5859375,-0.6445312 -0.1640625,-0.082031 -0.328125,-0.140625 -0.4804687,-0.1640625 -0.1523438,-0.023437 -0.3984375,-0.046875 -0.7382813,-0.046875 z m 3.6679688,4.4179687 -0.082031,-0.1875 c 0.269531,-0.16406246 0.4804681,-0.36328121 0.6210931,-0.57421871 0.09375,-0.15234375 0.152344,-0.29296875 0.152344,-0.41015625 0,-0.08203125 -0.04687,-0.12890625 -0.140625,-0.12890625 l -0.08203,0.01171875 -0.140625,0.0234375 c -0.1523439,0 -0.2812501,-0.03515625 -0.3750001,-0.09375 -0.140625,-0.08203125 -0.1992188,-0.2109375 -0.1992188,-0.375 0,-0.1875 0.046875,-0.31640625 0.1523438,-0.41015625 0.1171875,-0.09375 0.234375,-0.12890625 0.3867191,-0.12890625 0.164062,0 0.328125,0.046875 0.457031,0.140625 0.199219,0.1640625 0.304687,0.41015625 0.304687,0.75 0,0.3046875 -0.140625,0.59765625 -0.410156,0.90234375 C 10.188828,1.1026797 9.9661719,1.2667422 9.7786719,1.3253359 Z M 15.348008,0.00111719 v -0.140625 c 0.316406,0 0.539062,-0.0234375 0.644531,-0.10546875 0.164063,-0.09375 0.246094,-0.3046875 0.246094,-0.62109375 V -5.1082578 c 0,-0.1289063 -0.01172,-0.234375 -0.03516,-0.2929688 -0.04687,-0.09375 -0.140625,-0.1523437 -0.28125,-0.1523437 -0.07031,0 -0.117188,0.011719 -0.164063,0.023437 -0.140625,0.058594 -0.304687,0.1171875 -0.46875,0.1875 v -0.1289063 l 1.6875,-0.8554687 0.07031,0.011719 v 5.62500004 c 0,0.22265625 0.05859,0.36328125 0.175781,0.43359375 0.117187,0.0820313 0.351562,0.1171875 0.714844,0.1171875 v 0.140625 z m 4.174805,1.32421871 -0.08203,-0.1875 c 0.269532,-0.16406246 0.480469,-0.36328121 0.621094,-0.57421871 0.09375,-0.15234375 0.152344,-0.29296875 0.152344,-0.41015625 0,-0.08203125 -0.04687,-0.12890625 -0.140625,-0.12890625 l -0.08203,0.01171875 -0.140625,0.0234375 c -0.152344,0 -0.28125,-0.03515625 -0.375,-0.09375 -0.140625,-0.08203125 -0.199219,-0.2109375 -0.199219,-0.375 0,-0.1875 0.04687,-0.31640625 0.152344,-0.41015625 0.117187,-0.09375 0.234375,-0.12890625 0.386718,-0.12890625 0.164063,0 0.328125,0.046875 0.457032,0.140625 0.199218,0.1640625 0.304687,0.41015625 0.304687,0.75 0,0.3046875 -0.140625,0.59765625 -0.410156,0.90234375 C 19.932969,1.1026797 19.710313,1.2667422 19.522813,1.3253359 Z m 0,0"
       style="fill:#000000;fill-opacity:1;fill-rule:nonzero;stroke:none"
       aria-label="k3,1,"
       transform="matrix(1.3333333,0,0,1.3333333,473.75083,38.033667)" />
    <path
       id="path61"
       d="M 4.1595313,-1.6512266 H 0.468125 v -0.3984375 h 3.6914063 z m 0,0"
       style="fill:#000000;fill-opacity:1;fill-rule:nonzero;stroke:none"
       aria-label="-"
       transform="matrix(1.3333333,0,0,1.3333333,505.75083,38.033667)" />
    <path
       id="path62"
       d="M 0.80796875,-0.79575781 V -3.1629453 c 0,-0.2578125 -0.0351563,-0.4335938 -0.10546875,-0.515625 -0.046875,-0.058594 -0.1171875,-0.082031 -0.22265625,-0.082031 -0.10546875,0 -0.2109375,0.011719 -0.3046875,0.035156 V -3.8895078 C 0.6321875,-4.0066953 1.0540625,-4.1473203 1.4876563,-4.3113828 l 0.070312,0.023437 v 0.703125 c 0.328125,-0.2460938 0.5625,-0.421875 0.7382812,-0.515625 0.2460938,-0.1289063 0.4804688,-0.2109375 0.703125,-0.2109375 0.28125,0 0.5039063,0.09375 0.6914063,0.2460937 0.140625,0.1289063 0.2460937,0.3164063 0.3046875,0.5507813 0.1757812,-0.1875 0.3515625,-0.3515625 0.5507812,-0.4804688 0.3164063,-0.2109375 0.6328125,-0.3164062 0.9609375,-0.3164062 0.4335938,0 0.7265625,0.1992187 0.9140625,0.5742187 0.1171875,0.2695313 0.1875,0.6445313 0.1875,1.1015625 v 1.92187504 c 0,0.15234375 0.011719,0.26953125 0.046875,0.328125 0.058594,0.12890625 0.1640625,0.19921875 0.3515625,0.22265625 l 0.2460938,0.0234375 v 0.140625 H 5.2025 v -0.140625 c 0.2695313,-0.0234375 0.421875,-0.0703125 0.4921875,-0.12890625 0.082031,-0.0820313 0.1289063,-0.2578125 0.1289063,-0.55078125 V -2.7879453 c 0,-0.328125 -0.023437,-0.5625 -0.082031,-0.6914063 -0.1054687,-0.2226562 -0.3046875,-0.3398437 -0.5976562,-0.3398437 -0.2578125,0 -0.46875,0.058594 -0.6445313,0.1640625 -0.140625,0.09375 -0.28125,0.2226562 -0.3984375,0.4101562 v 2.35546879 c 0,0.328125 0.058594,0.5390625 0.1875,0.6328125 0.09375,0.0820313 0.2578125,0.1171875 0.4804688,0.1171875 v 0.140625 H 2.6829688 v -0.140625 c 0.2226562,0 0.3867187,-0.0234375 0.46875,-0.10546875 0.1054687,-0.0820313 0.1640625,-0.26953125 0.1640625,-0.5625 V -2.8348203 c 0,-0.3164063 -0.058594,-0.5625 -0.1523438,-0.7265625 C 3.0579688,-3.7371641 2.8939063,-3.8191953 2.67125,-3.8191953 c -0.28125,0 -0.5507812,0.082031 -0.7851562,0.2578125 -0.1992188,0.140625 -0.2929688,0.234375 -0.2929688,0.2929687 v 2.63671879 c 0,0.2109375 0.058594,0.3515625 0.1992188,0.421875 0.09375,0.046875 0.234375,0.0703125 0.4335937,0.0703125 v 0.140625 H 0.15171875 v -0.140625 c 0.22265625,0 0.38671875,-0.0234375 0.46875,-0.0820313 0.1171875,-0.0820313 0.1875,-0.26953125 0.1875,-0.5742187 z M 8.7122656,-3.0106016 v 2.35546879 c 0,0.15234375 0.1171875,0.2578125 0.3632813,0.3515625 0.1875,0.0703125 0.3632812,0.09375 0.5390625,0.09375 0.4687496,0 0.8085936,-0.1875 1.0078126,-0.59765625 0.140625,-0.28125004 0.222656,-0.64453124 0.222656,-1.07812504 0,-0.4921875 -0.09375,-0.9023437 -0.28125,-1.2421875 -0.210937,-0.3867187 -0.515625,-0.5859375 -0.9140624,-0.5859375 -0.1992187,0 -0.3984375,0.058594 -0.5742187,0.1523438 -0.2460938,0.1289062 -0.3632813,0.3164062 -0.3632813,0.5507812 z M 7.9271094,-0.50278906 V -5.3660703 c 0,-0.1757813 -0.011719,-0.2929688 -0.046875,-0.3398438 -0.058594,-0.09375 -0.1757813,-0.140625 -0.3632813,-0.140625 l -0.2109375,0.011719 v -0.1523438 c 0.4453125,-0.1054687 0.703125,-0.1875 0.796875,-0.2109375 0.09375,-0.023437 0.2695313,-0.09375 0.5625,-0.1992187 l 0.046875,0.023437 v 2.8242187 c 0.046875,-0.140625 0.1757813,-0.2929687 0.4101563,-0.4570312 0.2695312,-0.1992188 0.5625,-0.3046875 0.8789061,-0.3046875 0.515625,0 0.9375,0.234375 1.253906,0.6679687 0.269532,0.3984375 0.410157,0.8671875 0.410157,1.4179688 0,0.5390625 -0.164063,1.0429687 -0.492188,1.46484374 -0.421875,0.57421875 -1.03125,0.85546875 -1.7929686,0.85546875 -0.28125,0 -0.5859375,-0.05859375 -0.9023438,-0.1640625 -0.375,-0.140625 -0.5507812,-0.28125 -0.5507812,-0.43359345 z m 0,0"
       style="fill:#000000;fill-opacity:1;fill-rule:nonzero;stroke:none"
       aria-label="mb"
       transform="matrix(1.3333333,0,0,1.3333333,511.75083,38.033667)" />
    <path
       id="path63"
       d="M 3.1888281,-0.92466406 2.8255469,0.00111719 H 0.20054688 V -0.08091406 L 1.3958594,-1.3465391 c 0.5742187,-0.6210937 0.8789062,-1.1953125 0.8789062,-1.734375 0,-0.2226562 -0.058594,-0.4335937 -0.1875,-0.609375 -0.1757812,-0.234375 -0.421875,-0.3515625 -0.7734375,-0.3515625 -0.2695312,0 -0.49218747,0.1054688 -0.65624997,0.2929688 -0.09375,0.1171875 -0.19921875,0.3164062 -0.3046875,0.5859375 l -0.140625,-0.035156 c 0.09375,-0.46875 0.28125,-0.8203125 0.5625,-1.0546875 0.23437497,-0.1875 0.52734377,-0.28125 0.85546877,-0.28125 0.328125,0 0.609375,0.1054688 0.84375,0.328125 0.2460937,0.2226563 0.375,0.515625 0.375,0.8789063 0,0.3164062 -0.1054688,0.6328125 -0.3164063,0.9609375 -0.1171875,0.1875 -0.3046875,0.4101562 -0.5390625,0.6796875 L 0.85679688,-0.51450781 H 2.4622656 c 0.140625,0 0.2460938,-0.0117188 0.3164063,-0.0585938 0.09375,-0.046875 0.1992187,-0.17578125 0.328125,-0.375 z m 0,0"
       style="fill:#000000;fill-opacity:1;fill-rule:nonzero;stroke:none"
       aria-label="2"
       transform="matrix(1.3333333,0,0,1.3333333,527.08417,33.721167)" />
    <path
       id="path64"
       d="m 2.1208203,-1.8387266 c -0.3984375,0.1875 -0.5976562,0.65625 -0.5976562,1.39453129 v 1.30078125 c 0,0.72656246 -0.1523438,1.24218746 -0.4570313,1.54687496 -0.12890624,0.140625 -0.35156249,0.2460938 -0.64453124,0.3046875 -0.0234375,0 -0.0351563,0 -0.0585938,0 -0.0117188,0 -0.0234375,0 -0.0234375,-0.011719 0,-0.011719 0.0234375,-0.035156 0.0820313,-0.082031 C 0.63253906,2.4972109 0.78488281,2.3214297 0.86691406,2.0753359 0.97238281,1.8058047 1.0192578,1.4073672 1.0192578,0.86830469 v -1.32421875 c 0,-0.33984375 0.035156,-0.60937504 0.1289063,-0.82031254 0.09375,-0.234375 0.28125,-0.4335937 0.5507812,-0.5742187 -0.2578125,-0.1523438 -0.4453125,-0.3398438 -0.5507812,-0.5859375 -0.09375,-0.1992188 -0.1289063,-0.46875 -0.1289063,-0.8203125 v -1.3242188 c 0,-0.5390625 -0.046875,-0.9492187 -0.15234374,-1.2070312 -0.0820313,-0.2460938 -0.234375,-0.421875 -0.4453125,-0.5390625 -0.0585938,-0.023437 -0.0820313,-0.058594 -0.0820313,-0.082031 0,-0.011719 0.0117188,-0.011719 0.0234375,-0.011719 0.0234375,0 0.0351563,0 0.0585938,0 0.29296875,0.070312 0.515625,0.1757812 0.64453124,0.3164062 0.3046875,0.3046875 0.4570313,0.8203125 0.4570313,1.546875 v 1.2890625 c 0,0.7382813 0.1992187,1.21875 0.5976562,1.4179688 z M 5.264375,-17.36607 c -0.6328125,0.363281 -0.9375,1.042968 -0.9375,2.074218 v 1.195313 c 0,0.914062 -0.1992187,1.628906 -0.5742187,2.144531 -0.234375,0.316406 -0.5390625,0.539063 -0.8789063,0.632813 -0.046875,0.01172 -0.070312,0.02344 -0.082031,0.02344 -0.035156,0 -0.046875,-0.01172 -0.046875,-0.02344 0,-0.03516 0.046875,-0.08203 0.1171875,-0.117188 0.328125,-0.164062 0.5625,-0.46875 0.703125,-0.914062 0.140625,-0.410157 0.1992187,-0.984375 0.1992187,-1.734375 v -1.21875 c 0,-0.363282 0.070312,-0.714844 0.2109375,-1.089844 0.1757813,-0.480469 0.4453125,-0.808594 0.8085938,-0.984375 -0.3632815,-0.175781 -0.6328127,-0.503906 -0.808594,-0.996094 -0.140625,-0.351562 -0.2109375,-0.726562 -0.2109375,-1.078125 v -1.21875 c 0,-0.75 -0.058594,-1.335937 -0.1992187,-1.746094 -0.140625,-0.433593 -0.375,-0.738281 -0.703125,-0.902343 -0.070312,-0.04687 -0.1171875,-0.08203 -0.1171875,-0.117188 0,-0.02344 0.011719,-0.03516 0.046875,-0.03516 0.011719,0 0.035156,0.01172 0.082031,0.02344 0.3398438,0.105469 0.6445313,0.328125 0.8789063,0.644532 0.375,0.503906 0.5742187,1.230468 0.5742187,2.144531 v 1.195312 c 0,1.019532 0.3046875,1.722657 0.9375,2.085938 z m 0,0"
       style="fill:#000000;fill-opacity:1;fill-rule:nonzero;stroke:none"
       aria-label="&#10;"
       transform="matrix(1.3333333,0,0,1.3333333,532.23083,38.033667)" />
  </g>
</svg>
