<?xml version="1.0" encoding="UTF-8" standalone="no"?>
<!-- Created with Inkscape (http://www.inkscape.org/) -->

<svg
   version="1.1"
   id="svg2"
   width="518.66669"
   height="594.66669"
   viewBox="0 0 518.66669 594.66669"
   sodipodi:docname="1smoj49tufwtt.pdf"
   xmlns:inkscape="http://www.inkscape.org/namespaces/inkscape"
   xmlns:sodipodi="http://sodipodi.sourceforge.net/DTD/sodipodi-0.dtd"
   xmlns="http://www.w3.org/2000/svg"
   xmlns:svg="http://www.w3.org/2000/svg">
  <defs
     id="defs6">
    <clipPath
       clipPathUnits="userSpaceOnUse"
       id="clipPath40">
      <path
         d="m 0,444 h 388.801 v 1.441 H 0 Z"
         id="path38" />
    </clipPath>
    <clipPath
       clipPathUnits="userSpaceOnUse"
       id="clipPath50">
      <path
         d="M 0,0 H 1 V 445.441 H 0 Z"
         id="path48" />
    </clipPath>
    <clipPath
       clipPathUnits="userSpaceOnUse"
       id="clipPath60">
      <path
         d="M 0,0 H 388.801 V 1 H 0 Z"
         id="path58" />
    </clipPath>
    <clipPath
       clipPathUnits="userSpaceOnUse"
       id="clipPath70">
      <path
         d="m 388,0 h 0.801 V 445.441 H 388 Z"
         id="path68" />
    </clipPath>
  </defs>
  <sodipodi:namedview
     id="namedview4"
     pagecolor="#ffffff"
     bordercolor="#999999"
     borderopacity="1"
     inkscape:showpageshadow="0"
     inkscape:pageopacity="0"
     inkscape:pagecheckerboard="0"
     inkscape:deskcolor="#d1d1d1" />
  <g
     id="g8"
     inkscape:groupmode="layer"
     inkscape:label="1smoj49tufwtt"
     transform="matrix(1.3333333,0,0,1.3333333,0,1.82e-5)">
    <g
       id="g10">
      <path
         d="M 13.953,298.418 177.535,15.09"
         style="fill:none;stroke:#ff0000;stroke-width:2.16;stroke-linecap:butt;stroke-linejoin:miter;stroke-miterlimit:3.25;stroke-dasharray:4.32, 4.32;stroke-dashoffset:0;stroke-opacity:0.7"
         id="path12" />
      <path
         d="m 15.117,299.438 15.477,-11.84 18.617,-12.559 18.613,-10.887 18.614,-9.214 18.613,-7.536 18.617,-5.863 18.613,-4.187 18.614,-2.512 18.613,-0.84 18.613,0.84 18.617,2.512 18.614,4.187 18.613,5.863 18.613,7.536 18.613,9.214 18.618,10.887 18.613,12.559 15.48,11.84"
         style="fill:none;stroke:#0000ff;stroke-width:2.16;stroke-linecap:butt;stroke-linejoin:miter;stroke-miterlimit:3.25;stroke-dasharray:4.32, 4.32;stroke-dashoffset:0;stroke-opacity:0.7"
         id="path14" />
      <path
         d="m 15.117,304.234 15.477,11.84 18.617,12.563 18.613,10.886 18.614,9.211 18.613,7.536 18.617,5.863 18.613,4.187 18.614,2.512 18.613,0.84 18.613,-0.84 18.617,-2.512 18.614,-4.187 18.613,-5.863 18.613,-7.536 18.613,-9.211 18.618,-10.886 18.613,-12.563 15.48,-11.84"
         style="fill:none;stroke:#0000ff;stroke-width:2.16;stroke-linecap:butt;stroke-linejoin:miter;stroke-miterlimit:3.25;stroke-dasharray:4.32, 4.32;stroke-dashoffset:0;stroke-opacity:0.7"
         id="path16" />
      <path
         d="m 183.152,13.188 17.993,7.484 20.187,9.84 18.734,10.676 17.286,11.515 15.836,12.352 14.382,13.187 12.934,14.028 11.48,14.867 10.036,15.699 8.582,16.539 7.128,17.375 5.684,18.215 4.227,19.051 2.781,19.89 1.328,20.727 -0.121,21.562 -1.57,22.403 -2.516,19.324"
         style="fill:none;stroke:#000000;stroke-width:2.16;stroke-linecap:butt;stroke-linejoin:miter;stroke-miterlimit:3.25;stroke-dasharray:4.32, 4.32;stroke-dashoffset:0;stroke-opacity:0.7"
         id="path18" />
      <path
         d="m 179,15.582 -2.516,19.328 -1.57,22.402 -0.121,21.563 1.328,20.727 2.781,19.886 4.231,19.055 5.679,18.211 7.133,17.379 8.582,16.539 10.032,15.699 11.48,14.867 12.934,14.024 14.386,13.191 15.832,12.352 17.286,11.511 18.738,10.68 20.183,9.84 17.993,7.484"
         style="fill:none;stroke:#000000;stroke-width:2.16;stroke-linecap:butt;stroke-linejoin:miter;stroke-miterlimit:3.25;stroke-dasharray:none;stroke-opacity:0.7"
         id="path20" />
      <path
         d="m 15.926,301.836 c 0,-1.047 -0.414,-2.051 -1.153,-2.789 -0.742,-0.742 -1.746,-1.156 -2.793,-1.156 -1.046,0 -2.05,0.414 -2.789,1.156 -0.742,0.738 -1.156,1.742 -1.156,2.789 0,1.047 0.414,2.051 1.156,2.789 0.739,0.742 1.743,1.156 2.789,1.156 1.047,0 2.051,-0.414 2.793,-1.156 0.739,-0.738 1.153,-1.742 1.153,-2.789 z"
         style="fill:#a3b4cc;fill-opacity:1;fill-rule:evenodd;stroke:none"
         id="path22" />
      <path
         d="m 15.926,301.836 c 0,-1.047 -0.414,-2.051 -1.153,-2.789 -0.742,-0.742 -1.746,-1.156 -2.793,-1.156 -1.046,0 -2.05,0.414 -2.789,1.156 -0.742,0.738 -1.156,1.742 -1.156,2.789 0,1.047 0.414,2.051 1.156,2.789 0.739,0.742 1.743,1.156 2.789,1.156 1.047,0 2.051,-0.414 2.793,-1.156 0.739,-0.738 1.153,-1.742 1.153,-2.789 z"
         style="fill:none;stroke:#000000;stroke-width:0.54;stroke-linecap:square;stroke-linejoin:miter;stroke-miterlimit:3.25;stroke-dasharray:none;stroke-opacity:0.7"
         id="path24" />
      <path
         d="m 183.453,11.672 c 0,-1.047 -0.414,-2.051 -1.152,-2.793 -0.742,-0.738 -1.746,-1.156 -2.793,-1.156 -1.047,0 -2.051,0.418 -2.789,1.156 -0.742,0.742 -1.157,1.746 -1.157,2.793 0,1.047 0.415,2.051 1.157,2.789 0.738,0.742 1.742,1.156 2.789,1.156 1.047,0 2.051,-0.414 2.793,-1.156 0.738,-0.738 1.152,-1.742 1.152,-2.789 z"
         style="fill:#a3b4cc;fill-opacity:1;fill-rule:evenodd;stroke:none"
         id="path26" />
      <path
         d="m 183.453,11.672 c 0,-1.047 -0.414,-2.051 -1.152,-2.793 -0.742,-0.738 -1.746,-1.156 -2.793,-1.156 -1.047,0 -2.051,0.418 -2.789,1.156 -0.742,0.742 -1.157,1.746 -1.157,2.793 0,1.047 0.415,2.051 1.157,2.789 0.738,0.742 1.742,1.156 2.789,1.156 1.047,0 2.051,-0.414 2.793,-1.156 0.738,-0.738 1.152,-1.742 1.152,-2.789 z"
         style="fill:none;stroke:#000000;stroke-width:0.54;stroke-linecap:square;stroke-linejoin:miter;stroke-miterlimit:3.25;stroke-dasharray:none;stroke-opacity:0.7"
         id="path28" />
      <path
         d="m 350.98,301.836 c 0,-1.047 -0.414,-2.051 -1.156,-2.789 -0.738,-0.742 -1.742,-1.156 -2.789,-1.156 -1.047,0 -2.051,0.414 -2.789,1.156 -0.742,0.738 -1.156,1.742 -1.156,2.789 0,1.047 0.414,2.051 1.156,2.789 0.738,0.742 1.742,1.156 2.789,1.156 1.047,0 2.051,-0.414 2.789,-1.156 0.742,-0.738 1.156,-1.742 1.156,-2.789 z"
         style="fill:#a3b4cc;fill-opacity:1;fill-rule:evenodd;stroke:none"
         id="path30" />
      <path
         d="m 350.98,301.836 c 0,-1.047 -0.414,-2.051 -1.156,-2.789 -0.738,-0.742 -1.742,-1.156 -2.789,-1.156 -1.047,0 -2.051,0.414 -2.789,1.156 -0.742,0.738 -1.156,1.742 -1.156,2.789 0,1.047 0.414,2.051 1.156,2.789 0.738,0.742 1.742,1.156 2.789,1.156 1.047,0 2.051,-0.414 2.789,-1.156 0.742,-0.738 1.156,-1.742 1.156,-2.789 z"
         style="fill:none;stroke:#000000;stroke-width:0.54;stroke-linecap:square;stroke-linejoin:miter;stroke-miterlimit:3.25;stroke-dasharray:none;stroke-opacity:0.7"
         id="path32" />
    </g>
    <g
       id="g34">
      <g
         id="g36"
         clip-path="url(#clipPath40)">
        <path
           d="M 388.531,444.961 H 0.27"
           style="fill:none;stroke:#000000;stroke-width:0.216;stroke-linecap:square;stroke-linejoin:miter;stroke-miterlimit:3.25;stroke-dasharray:none;stroke-opacity:1"
           id="path42" />
      </g>
    </g>
    <g
       id="g44">
      <g
         id="g46"
         clip-path="url(#clipPath50)">
        <path
           d="M 0.27,444.961 V 0.27"
           style="fill:none;stroke:#000000;stroke-width:0.216;stroke-linecap:square;stroke-linejoin:miter;stroke-miterlimit:3.25;stroke-dasharray:none;stroke-opacity:1"
           id="path52" />
      </g>
    </g>
    <g
       id="g54">
      <g
         id="g56"
         clip-path="url(#clipPath60)">
        <path
           d="M 0.27,0.27 H 388.531"
           style="fill:none;stroke:#000000;stroke-width:0.216;stroke-linecap:square;stroke-linejoin:miter;stroke-miterlimit:3.25;stroke-dasharray:none;stroke-opacity:1"
           id="path62" />
      </g>
    </g>
    <g
       id="g64">
      <g
         id="g66"
         clip-path="url(#clipPath70)">
        <path
           d="M 388.531,0.27 V 444.961"
           style="fill:none;stroke:#000000;stroke-width:0.216;stroke-linecap:square;stroke-linejoin:miter;stroke-miterlimit:3.25;stroke-dasharray:none;stroke-opacity:1"
           id="path72" />
      </g>
    </g>
  </g>
</svg>
