<?xml version="1.0" encoding="UTF-8" standalone="no"?>
<!-- Created with Inkscape (http://www.inkscape.org/) -->

<svg
   version="1.1"
   id="svg2"
   width="265.33334"
   height="20"
   viewBox="0 0 265.33334 20"
   sodipodi:docname="1va2upktn7wft.pdf"
   xmlns:inkscape="http://www.inkscape.org/namespaces/inkscape"
   xmlns:sodipodi="http://sodipodi.sourceforge.net/DTD/sodipodi-0.dtd"
   xmlns="http://www.w3.org/2000/svg"
   xmlns:svg="http://www.w3.org/2000/svg">
  <defs
     id="defs6">
    <clipPath
       clipPathUnits="userSpaceOnUse"
       id="clipPath18">
      <path
         d="m 0,3 h 12.961 v 8.762 H 0 Z"
         id="path16" />
    </clipPath>
  </defs>
  <sodipodi:namedview
     id="namedview4"
     pagecolor="#ffffff"
     bordercolor="#999999"
     borderopacity="1"
     inkscape:showpageshadow="0"
     inkscape:pageopacity="0"
     inkscape:pagecheckerboard="0"
     inkscape:deskcolor="#d1d1d1" />
  <g
     id="g8"
     inkscape:groupmode="layer"
     inkscape:label="1va2upktn7wft"
     transform="scale(1.3333333)">
    <g
       id="g10" />
    <g
       id="g12">
      <g
         id="g14"
         clip-path="url(#clipPath18)">
        <path
           d="m 12.113,6.73 c 0,-1.554 -1.261,-2.816 -2.816,-2.816 H 3.664 c -1.559,0 -2.82,1.262 -2.82,2.816 v 1.551 c 0,1.555 1.261,2.817 2.82,2.817 h 5.633 c 1.555,0 2.816,-1.262 2.816,-2.817 V 6.73"
           style="fill:none;stroke:#e5e5e5;stroke-width:0.7128;stroke-linecap:square;stroke-linejoin:miter;stroke-miterlimit:3.25;stroke-dasharray:none;stroke-opacity:1"
           id="path20" />
        <path
           d="M 7.258,7.508 C 7.258,7.301 7.176,7.102 7.031,6.957 6.883,6.809 6.688,6.727 6.48,6.727 6.273,6.727 6.074,6.809 5.93,6.957 5.785,7.102 5.703,7.301 5.703,7.508 c 0,0.203 0.082,0.402 0.227,0.547 0.144,0.148 0.343,0.23 0.55,0.23 0.208,0 0.403,-0.082 0.551,-0.23 C 7.176,7.91 7.258,7.711 7.258,7.508 Z"
           style="fill:#ff5454;fill-opacity:1;fill-rule:evenodd;stroke:none"
           id="path22" />
        <path
           d="M 10.074,7.508 C 10.074,7.301 9.992,7.102 9.848,6.957 9.703,6.809 9.504,6.727 9.297,6.727 9.09,6.727 8.895,6.809 8.746,6.957 8.602,7.102 8.52,7.301 8.52,7.508 c 0,0.203 0.082,0.402 0.226,0.547 0.149,0.148 0.344,0.23 0.551,0.23 0.207,0 0.406,-0.082 0.551,-0.23 0.144,-0.145 0.226,-0.344 0.226,-0.547 z"
           style="fill:#ff5454;fill-opacity:1;fill-rule:evenodd;stroke:none"
           id="path24" />
        <path
           d="M 4.441,7.508 C 4.441,7.301 4.359,7.102 4.211,6.957 4.066,6.809 3.867,6.727 3.664,6.727 3.457,6.727 3.258,6.809 3.113,6.957 2.969,7.102 2.887,7.301 2.887,7.508 c 0,0.203 0.082,0.402 0.226,0.547 0.145,0.148 0.344,0.23 0.551,0.23 0.203,0 0.402,-0.082 0.547,-0.23 0.148,-0.145 0.23,-0.344 0.23,-0.547 z"
           style="fill:#ff5454;fill-opacity:1;fill-rule:evenodd;stroke:none"
           id="path26" />
      </g>
    </g>
    <g
       id="g28">
      <text
         xml:space="preserve"
         transform="translate(14.587056,10)"
         style="font-variant:normal;font-size:7.92px;font-family:CairoFont-0;-inkscape-font-specification:CairoFont-0-0;writing-mode:lr-tb;fill:#dd1100;fill-opacity:1;fill-rule:nonzero;stroke:none"
         id="text32"><tspan
           x="0 6.1855202 11.05632 13.91544 15.9588 20.750401 25.64496 30.396959 34.84008 36.85968 41.754238"
           y="0"
           sodipodi:role="line"
           id="tspan30">OptionValue</tspan></text>
      <text
         xml:space="preserve"
         transform="translate(61.529556,10)"
         style="font-variant:normal;font-size:7.92px;font-family:CairoFont-0;-inkscape-font-specification:CairoFont-0-0;writing-mode:lr-tb;fill:#000000;fill-opacity:1;fill-rule:nonzero;stroke:none"
         id="text36"><tspan
           x="0"
           y="0"
           id="tspan34">:</tspan></text>
      <text
         xml:space="preserve"
         transform="translate(67.239113,10)"
         style="font-variant:normal;font-size:7.92px;font-family:CairoFont-0;-inkscape-font-specification:CairoFont-0-0;writing-mode:lr-tb;fill:#898989;fill-opacity:1;fill-rule:nonzero;stroke:none"
         id="text40"><tspan
           x="0 5.7895198 10.68408 14.91336 19.80792 24.59952 30.82464 37.762562 42.554161 47.424961 50.284081 52.327438 57.119041 64.06488 68.412956 74.202477 80.22168 84.625198 87.896156 92.339279 96.140877 102.65112 105.3756 110.1672 115.48944 119.89296 124.8192"
           y="0"
           sodipodi:role="line"
           id="tspan38">UnknownoptionSUNTraceforTR.</tspan></text>
    </g>
  </g>
</svg>
