<?xml version="1.0" encoding="UTF-8" standalone="no"?>
<!-- Created with Inkscape (http://www.inkscape.org/) -->

<svg
   version="1.1"
   id="svg2"
   xml:space="preserve"
   width="346.66666"
   height="304"
   viewBox="0 0 346.66666 304"
   sodipodi:docname="1veisicnoyp27.pdf"
   xmlns:inkscape="http://www.inkscape.org/namespaces/inkscape"
   xmlns:sodipodi="http://sodipodi.sourceforge.net/DTD/sodipodi-0.dtd"
   xmlns="http://www.w3.org/2000/svg"
   xmlns:svg="http://www.w3.org/2000/svg"><defs
     id="defs6" /><sodipodi:namedview
     id="namedview4"
     pagecolor="#505050"
     bordercolor="#eeeeee"
     borderopacity="1"
     inkscape:pageshadow="0"
     inkscape:pageopacity="0"
     inkscape:pagecheckerboard="0" /><g
     id="g8"
     inkscape:groupmode="layer"
     inkscape:label="1veisicnoyp27"
     transform="matrix(1.3333333,0,0,1.3333333,0,7.6e-6)"><g
       id="g10"><path
         d="m 126.875,217.562 1.031,-85.535"
         style="fill:none;stroke:#000000;stroke-width:1.44;stroke-linecap:butt;stroke-linejoin:miter;stroke-miterlimit:3.25;stroke-dasharray:none;stroke-opacity:0.7"
         id="path12" /><path
         d="M 129.227,127.344 170.953,57.281"
         style="fill:none;stroke:#000000;stroke-width:1.44;stroke-linecap:butt;stroke-linejoin:miter;stroke-miterlimit:3.25;stroke-dasharray:2.88, 2.88;stroke-dashoffset:0;stroke-opacity:0.7"
         id="path14" /><path
         d="M 126.707,127.309 86.801,56.137"
         style="fill:none;stroke:#000000;stroke-width:1.44;stroke-linecap:butt;stroke-linejoin:miter;stroke-miterlimit:3.25;stroke-dasharray:2.88, 2.88;stroke-dashoffset:0;stroke-opacity:0.7"
         id="path16" /><path
         d="M 249.297,12.223 174.441,53.891"
         style="fill:none;stroke:#000000;stroke-width:1.44;stroke-linecap:butt;stroke-linejoin:miter;stroke-miterlimit:3.25;stroke-dasharray:none;stroke-opacity:0.7"
         id="path18" /><path
         d="M 169.723,55.082 88.09,53.973"
         style="fill:none;stroke:#000000;stroke-width:1.44;stroke-linecap:butt;stroke-linejoin:miter;stroke-miterlimit:3.25;stroke-dasharray:2.88, 2.88;stroke-dashoffset:0;stroke-opacity:0.7"
         id="path20" /><path
         d="M 9.867,8.785 83.406,52.648"
         style="fill:none;stroke:#000000;stroke-width:1.44;stroke-linecap:butt;stroke-linejoin:miter;stroke-miterlimit:3.25;stroke-dasharray:none;stroke-opacity:0.7"
         id="path22" /><path
         d="m 129.363,220.082 c 0,-0.668 -0.265,-1.309 -0.738,-1.781 -0.473,-0.473 -1.113,-0.739 -1.781,-0.739 -0.668,0 -1.309,0.266 -1.782,0.739 -0.472,0.472 -0.738,1.113 -0.738,1.781 0,0.668 0.266,1.309 0.738,1.781 0.473,0.473 1.114,0.739 1.782,0.739 0.668,0 1.308,-0.266 1.781,-0.739 0.473,-0.472 0.738,-1.113 0.738,-1.781 z"
         style="fill:#a3b4cc;fill-opacity:1;fill-rule:evenodd;stroke:none"
         id="path24" /><path
         d="m 129.363,220.082 c 0,-0.668 -0.265,-1.309 -0.738,-1.781 -0.473,-0.473 -1.113,-0.739 -1.781,-0.739 -0.668,0 -1.309,0.266 -1.782,0.739 -0.472,0.472 -0.738,1.113 -0.738,1.781 0,0.668 0.266,1.309 0.738,1.781 0.473,0.473 1.114,0.739 1.782,0.739 0.668,0 1.308,-0.266 1.781,-0.739 0.473,-0.472 0.738,-1.113 0.738,-1.781 z"
         style="fill:none;stroke:#000000;stroke-width:0.36;stroke-linecap:square;stroke-linejoin:miter;stroke-miterlimit:3.25;stroke-dasharray:none;stroke-opacity:0.7"
         id="path26" /><path
         d="m 130.457,129.508 c 0,-0.668 -0.266,-1.309 -0.738,-1.781 -0.473,-0.473 -1.114,-0.739 -1.781,-0.739 -0.668,0 -1.309,0.266 -1.782,0.739 -0.472,0.472 -0.738,1.113 -0.738,1.781 0,0.668 0.266,1.308 0.738,1.781 0.473,0.473 1.114,0.738 1.782,0.738 0.667,0 1.308,-0.265 1.781,-0.738 0.472,-0.473 0.738,-1.113 0.738,-1.781 z"
         style="fill:#a3b4cc;fill-opacity:1;fill-rule:evenodd;stroke:none"
         id="path28" /><path
         d="m 130.457,129.508 c 0,-0.668 -0.266,-1.309 -0.738,-1.781 -0.473,-0.473 -1.114,-0.739 -1.781,-0.739 -0.668,0 -1.309,0.266 -1.782,0.739 -0.472,0.472 -0.738,1.113 -0.738,1.781 0,0.668 0.266,1.308 0.738,1.781 0.473,0.473 1.114,0.738 1.782,0.738 0.667,0 1.308,-0.265 1.781,-0.738 0.472,-0.473 0.738,-1.113 0.738,-1.781 z"
         style="fill:none;stroke:#000000;stroke-width:0.36;stroke-linecap:square;stroke-linejoin:miter;stroke-miterlimit:3.25;stroke-dasharray:none;stroke-opacity:0.7"
         id="path30" /><path
         d="m 254.016,11 c 0,-0.672 -0.266,-1.312 -0.739,-1.785 -0.472,-0.469 -1.113,-0.735 -1.781,-0.735 -0.668,0 -1.308,0.266 -1.781,0.735 -0.473,0.473 -0.738,1.113 -0.738,1.785 0,0.668 0.265,1.309 0.738,1.781 0.473,0.473 1.113,0.739 1.781,0.739 0.668,0 1.309,-0.266 1.781,-0.739 0.473,-0.472 0.739,-1.113 0.739,-1.781 z"
         style="fill:#a3b4cc;fill-opacity:1;fill-rule:evenodd;stroke:none"
         id="path32" /><path
         d="m 254.016,11 c 0,-0.672 -0.266,-1.312 -0.739,-1.785 -0.472,-0.469 -1.113,-0.735 -1.781,-0.735 -0.668,0 -1.308,0.266 -1.781,0.735 -0.473,0.473 -0.738,1.113 -0.738,1.785 0,0.668 0.265,1.309 0.738,1.781 0.473,0.473 1.113,0.739 1.781,0.739 0.668,0 1.309,-0.266 1.781,-0.739 0.473,-0.472 0.739,-1.113 0.739,-1.781 z"
         style="fill:none;stroke:#000000;stroke-width:0.36;stroke-linecap:square;stroke-linejoin:miter;stroke-miterlimit:3.25;stroke-dasharray:none;stroke-opacity:0.7"
         id="path34" /><path
         d="m 174.762,55.117 c 0,-0.668 -0.266,-1.308 -0.739,-1.781 -0.472,-0.473 -1.113,-0.738 -1.781,-0.738 -0.668,0 -1.308,0.265 -1.781,0.738 -0.473,0.473 -0.738,1.113 -0.738,1.781 0,0.668 0.265,1.309 0.738,1.781 0.473,0.473 1.113,0.739 1.781,0.739 0.668,0 1.309,-0.266 1.781,-0.739 0.473,-0.472 0.739,-1.113 0.739,-1.781 z"
         style="fill:#a3b4cc;fill-opacity:1;fill-rule:evenodd;stroke:none"
         id="path36" /><path
         d="m 174.762,55.117 c 0,-0.668 -0.266,-1.308 -0.739,-1.781 -0.472,-0.473 -1.113,-0.738 -1.781,-0.738 -0.668,0 -1.308,0.265 -1.781,0.738 -0.473,0.473 -0.738,1.113 -0.738,1.781 0,0.668 0.265,1.309 0.738,1.781 0.473,0.473 1.113,0.739 1.781,0.739 0.668,0 1.309,-0.266 1.781,-0.739 0.473,-0.472 0.739,-1.113 0.739,-1.781 z"
         style="fill:none;stroke:#000000;stroke-width:0.36;stroke-linecap:square;stroke-linejoin:miter;stroke-miterlimit:3.25;stroke-dasharray:none;stroke-opacity:0.7"
         id="path38" /><path
         d="M 10.223,7.496 C 10.223,6.828 9.957,6.188 9.484,5.715 9.012,5.242 8.371,4.977 7.703,4.977 7.035,4.977 6.395,5.242 5.922,5.715 5.449,6.188 5.184,6.828 5.184,7.496 c 0,0.668 0.265,1.309 0.738,1.781 0.473,0.473 1.113,0.739 1.781,0.739 0.668,0 1.309,-0.266 1.781,-0.739 0.473,-0.472 0.739,-1.113 0.739,-1.781 z"
         style="fill:#a3b4cc;fill-opacity:1;fill-rule:evenodd;stroke:none"
         id="path40" /><path
         d="M 10.223,7.496 C 10.223,6.828 9.957,6.188 9.484,5.715 9.012,5.242 8.371,4.977 7.703,4.977 7.035,4.977 6.395,5.242 5.922,5.715 5.449,6.188 5.184,6.828 5.184,7.496 c 0,0.668 0.265,1.309 0.738,1.781 0.473,0.473 1.113,0.739 1.781,0.739 0.668,0 1.309,-0.266 1.781,-0.739 0.473,-0.472 0.739,-1.113 0.739,-1.781 z"
         style="fill:none;stroke:#000000;stroke-width:0.36;stroke-linecap:square;stroke-linejoin:miter;stroke-miterlimit:3.25;stroke-dasharray:none;stroke-opacity:0.7"
         id="path42" /><path
         d="m 88.09,53.938 c 0,-0.668 -0.266,-1.309 -0.738,-1.782 -0.473,-0.472 -1.114,-0.738 -1.782,-0.738 -0.668,0 -1.308,0.266 -1.781,0.738 -0.473,0.473 -0.738,1.114 -0.738,1.782 0,0.667 0.265,1.308 0.738,1.781 0.473,0.472 1.113,0.738 1.781,0.738 0.668,0 1.309,-0.266 1.782,-0.738 0.472,-0.473 0.738,-1.114 0.738,-1.781 z"
         style="fill:#a3b4cc;fill-opacity:1;fill-rule:evenodd;stroke:none"
         id="path44" /><path
         d="m 88.09,53.938 c 0,-0.668 -0.266,-1.309 -0.738,-1.782 -0.473,-0.472 -1.114,-0.738 -1.782,-0.738 -0.668,0 -1.308,0.266 -1.781,0.738 -0.473,0.473 -0.738,1.114 -0.738,1.782 0,0.667 0.265,1.308 0.738,1.781 0.473,0.472 1.113,0.738 1.781,0.738 0.668,0 1.309,-0.266 1.782,-0.738 0.472,-0.473 0.738,-1.114 0.738,-1.781 z"
         style="fill:none;stroke:#000000;stroke-width:0.36;stroke-linecap:square;stroke-linejoin:miter;stroke-miterlimit:3.25;stroke-dasharray:none;stroke-opacity:0.7"
         id="path46" /></g></g></svg>
