<?xml version="1.0" encoding="UTF-8" standalone="no"?>
<!-- Created with Inkscape (http://www.inkscape.org/) -->

<svg
   version="1.1"
   id="svg2"
   width="346.66666"
   height="345.33334"
   viewBox="0 0 346.66666 345.33334"
   sodipodi:docname="1x2rfo5q5c9ih.pdf"
   xmlns:inkscape="http://www.inkscape.org/namespaces/inkscape"
   xmlns:sodipodi="http://sodipodi.sourceforge.net/DTD/sodipodi-0.dtd"
   xmlns="http://www.w3.org/2000/svg"
   xmlns:svg="http://www.w3.org/2000/svg">
  <defs
     id="defs6" />
  <sodipodi:namedview
     id="namedview4"
     pagecolor="#ffffff"
     bordercolor="#999999"
     borderopacity="1"
     inkscape:showpageshadow="0"
     inkscape:pageopacity="0"
     inkscape:pagecheckerboard="0"
     inkscape:deskcolor="#d1d1d1" />
  <g
     id="g8"
     inkscape:groupmode="layer"
     inkscape:label="1x2rfo5q5c9ih"
     transform="matrix(1.3333333,0,0,1.3333333,0,5.3e-6)">
    <g
       id="g10">
      <path
         d="M 9.656,12.23 75.668,76.754"
         style="fill:none;stroke:#000000;stroke-width:1.44;stroke-linecap:butt;stroke-linejoin:miter;stroke-miterlimit:3.25;stroke-dasharray:none;stroke-opacity:0.7"
         id="path12" />
      <path
         d="m 80.137,78.547 97.511,-1.039"
         style="fill:none;stroke:#000000;stroke-width:1.44;stroke-linecap:butt;stroke-linejoin:miter;stroke-miterlimit:3.25;stroke-dasharray:2.88, 2.88;stroke-dashoffset:0;stroke-opacity:0.7"
         id="path14" />
      <path
         d="m 77.566,81.18 1.305,97.449"
         style="fill:none;stroke:#000000;stroke-width:1.44;stroke-linecap:butt;stroke-linejoin:miter;stroke-miterlimit:3.25;stroke-dasharray:2.88, 2.88;stroke-dashoffset:0;stroke-opacity:0.7"
         id="path16" />
      <path
         d="m 246.465,9.453 -64.391,66.16"
         style="fill:none;stroke:#000000;stroke-width:1.44;stroke-linecap:butt;stroke-linejoin:miter;stroke-miterlimit:3.25;stroke-dasharray:none;stroke-opacity:0.7"
         id="path18" />
      <path
         d="m 180.289,80.09 1.285,97.476"
         style="fill:none;stroke:#000000;stroke-width:1.44;stroke-linecap:butt;stroke-linejoin:miter;stroke-miterlimit:3.25;stroke-dasharray:2.88, 2.88;stroke-dashoffset:0;stroke-opacity:0.7"
         id="path20" />
      <path
         d="m 249.543,246.5 -66.07,-64.508"
         style="fill:none;stroke:#000000;stroke-width:1.44;stroke-linecap:butt;stroke-linejoin:miter;stroke-miterlimit:3.25;stroke-dasharray:none;stroke-opacity:0.7"
         id="path22" />
      <path
         d="m 179,180.199 -97.488,1.008"
         style="fill:none;stroke:#000000;stroke-width:1.44;stroke-linecap:butt;stroke-linejoin:miter;stroke-miterlimit:3.25;stroke-dasharray:2.88, 2.88;stroke-dashoffset:0;stroke-opacity:0.7"
         id="path24" />
      <path
         d="M 12.492,249.211 77.086,183.098"
         style="fill:none;stroke:#000000;stroke-width:1.44;stroke-linecap:butt;stroke-linejoin:miter;stroke-miterlimit:3.25;stroke-dasharray:none;stroke-opacity:0.7"
         id="path26" />
      <path
         d="M 10.398,10.406 C 10.398,9.715 10.121,9.055 9.633,8.566 9.145,8.074 8.48,7.801 7.789,7.801 c -0.691,0 -1.351,0.273 -1.84,0.765 -0.492,0.489 -0.765,1.149 -0.765,1.84 0,0.692 0.273,1.356 0.765,1.844 0.489,0.488 1.149,0.766 1.84,0.766 0.691,0 1.356,-0.278 1.844,-0.766 0.488,-0.488 0.765,-1.152 0.765,-1.844 z"
         style="fill:#a3b4cc;fill-opacity:1;fill-rule:evenodd;stroke:none"
         id="path28" />
      <path
         d="M 10.398,10.406 C 10.398,9.715 10.121,9.055 9.633,8.566 9.145,8.074 8.48,7.801 7.789,7.801 c -0.691,0 -1.351,0.273 -1.84,0.765 -0.492,0.489 -0.765,1.149 -0.765,1.84 0,0.692 0.273,1.356 0.765,1.844 0.489,0.488 1.149,0.766 1.84,0.766 0.691,0 1.356,-0.278 1.844,-0.766 0.488,-0.488 0.765,-1.152 0.765,-1.844 z"
         style="fill:none;stroke:#000000;stroke-width:0.36;stroke-linecap:square;stroke-linejoin:miter;stroke-miterlimit:3.25;stroke-dasharray:none;stroke-opacity:0.7"
         id="path30" />
      <path
         d="m 80.137,78.574 c 0,-0.691 -0.274,-1.355 -0.762,-1.844 -0.488,-0.488 -1.152,-0.761 -1.844,-0.761 -0.691,0 -1.355,0.273 -1.843,0.761 -0.489,0.489 -0.762,1.153 -0.762,1.844 0,0.692 0.273,1.356 0.762,1.844 0.488,0.488 1.152,0.766 1.843,0.766 0.692,0 1.356,-0.278 1.844,-0.766 0.488,-0.488 0.762,-1.152 0.762,-1.844 z"
         style="fill:#a3b4cc;fill-opacity:1;fill-rule:evenodd;stroke:none"
         id="path32" />
      <path
         d="m 80.137,78.574 c 0,-0.691 -0.274,-1.355 -0.762,-1.844 -0.488,-0.488 -1.152,-0.761 -1.844,-0.761 -0.691,0 -1.355,0.273 -1.843,0.761 -0.489,0.489 -0.762,1.153 -0.762,1.844 0,0.692 0.273,1.356 0.762,1.844 0.488,0.488 1.152,0.766 1.843,0.766 0.692,0 1.356,-0.278 1.844,-0.766 0.488,-0.488 0.762,-1.152 0.762,-1.844 z"
         style="fill:none;stroke:#000000;stroke-width:0.36;stroke-linecap:square;stroke-linejoin:miter;stroke-miterlimit:3.25;stroke-dasharray:none;stroke-opacity:0.7"
         id="path34" />
      <path
         d="m 250.891,7.582 c 0,-0.691 -0.274,-1.352 -0.762,-1.844 -0.492,-0.488 -1.152,-0.761 -1.844,-0.761 -0.691,0 -1.355,0.273 -1.844,0.761 -0.488,0.492 -0.765,1.153 -0.765,1.844 0,0.691 0.277,1.356 0.765,1.844 0.489,0.488 1.153,0.765 1.844,0.765 0.692,0 1.352,-0.277 1.844,-0.765 0.488,-0.488 0.762,-1.153 0.762,-1.844 z"
         style="fill:#a3b4cc;fill-opacity:1;fill-rule:evenodd;stroke:none"
         id="path36" />
      <path
         d="m 250.891,7.582 c 0,-0.691 -0.274,-1.352 -0.762,-1.844 -0.492,-0.488 -1.152,-0.761 -1.844,-0.761 -0.691,0 -1.355,0.273 -1.844,0.761 -0.488,0.492 -0.765,1.153 -0.765,1.844 0,0.691 0.277,1.356 0.765,1.844 0.489,0.488 1.153,0.765 1.844,0.765 0.692,0 1.352,-0.277 1.844,-0.765 0.488,-0.488 0.762,-1.153 0.762,-1.844 z"
         style="fill:none;stroke:#000000;stroke-width:0.36;stroke-linecap:square;stroke-linejoin:miter;stroke-miterlimit:3.25;stroke-dasharray:none;stroke-opacity:0.7"
         id="path38" />
      <path
         d="m 182.863,77.48 c 0,-0.691 -0.273,-1.351 -0.765,-1.843 -0.489,-0.489 -1.149,-0.762 -1.84,-0.762 -0.692,0 -1.356,0.273 -1.844,0.762 -0.488,0.492 -0.766,1.152 -0.766,1.843 0,0.692 0.278,1.356 0.766,1.844 0.488,0.488 1.152,0.766 1.844,0.766 0.691,0 1.351,-0.278 1.84,-0.766 0.492,-0.488 0.765,-1.152 0.765,-1.844 z"
         style="fill:#a3b4cc;fill-opacity:1;fill-rule:evenodd;stroke:none"
         id="path40" />
      <path
         d="m 182.863,77.48 c 0,-0.691 -0.273,-1.351 -0.765,-1.843 -0.489,-0.489 -1.149,-0.762 -1.84,-0.762 -0.692,0 -1.356,0.273 -1.844,0.762 -0.488,0.492 -0.766,1.152 -0.766,1.843 0,0.692 0.278,1.356 0.766,1.844 0.488,0.488 1.152,0.766 1.844,0.766 0.691,0 1.351,-0.278 1.84,-0.766 0.492,-0.488 0.765,-1.152 0.765,-1.844 z"
         style="fill:none;stroke:#000000;stroke-width:0.36;stroke-linecap:square;stroke-linejoin:miter;stroke-miterlimit:3.25;stroke-dasharray:none;stroke-opacity:0.7"
         id="path42" />
      <path
         d="m 254.016,248.32 c 0,-0.691 -0.274,-1.355 -0.762,-1.843 -0.492,-0.489 -1.152,-0.762 -1.844,-0.762 -0.691,0 -1.355,0.273 -1.844,0.762 -0.488,0.488 -0.765,1.152 -0.765,1.843 0,0.692 0.277,1.356 0.765,1.844 0.489,0.488 1.153,0.762 1.844,0.762 0.692,0 1.352,-0.274 1.844,-0.762 0.488,-0.488 0.762,-1.152 0.762,-1.844 z"
         style="fill:#a3b4cc;fill-opacity:1;fill-rule:evenodd;stroke:none"
         id="path44" />
      <path
         d="m 254.016,248.32 c 0,-0.691 -0.274,-1.355 -0.762,-1.843 -0.492,-0.489 -1.152,-0.762 -1.844,-0.762 -0.691,0 -1.355,0.273 -1.844,0.762 -0.488,0.488 -0.765,1.152 -0.765,1.843 0,0.692 0.277,1.356 0.765,1.844 0.489,0.488 1.153,0.762 1.844,0.762 0.692,0 1.352,-0.274 1.844,-0.762 0.488,-0.488 0.762,-1.152 0.762,-1.844 z"
         style="fill:none;stroke:#000000;stroke-width:0.36;stroke-linecap:square;stroke-linejoin:miter;stroke-miterlimit:3.25;stroke-dasharray:none;stroke-opacity:0.7"
         id="path46" />
      <path
         d="m 184.215,180.172 c 0,-0.692 -0.277,-1.356 -0.766,-1.844 -0.488,-0.488 -1.152,-0.762 -1.844,-0.762 -0.691,0 -1.351,0.274 -1.839,0.762 -0.493,0.488 -0.766,1.152 -0.766,1.844 0,0.691 0.273,1.355 0.766,1.844 0.488,0.488 1.148,0.761 1.839,0.761 0.692,0 1.356,-0.273 1.844,-0.761 0.489,-0.489 0.766,-1.153 0.766,-1.844 z"
         style="fill:#a3b4cc;fill-opacity:1;fill-rule:evenodd;stroke:none"
         id="path48" />
      <path
         d="m 184.215,180.172 c 0,-0.692 -0.277,-1.356 -0.766,-1.844 -0.488,-0.488 -1.152,-0.762 -1.844,-0.762 -0.691,0 -1.351,0.274 -1.839,0.762 -0.493,0.488 -0.766,1.152 -0.766,1.844 0,0.691 0.273,1.355 0.766,1.844 0.488,0.488 1.148,0.761 1.839,0.761 0.692,0 1.356,-0.273 1.844,-0.761 0.489,-0.489 0.766,-1.153 0.766,-1.844 z"
         style="fill:none;stroke:#000000;stroke-width:0.36;stroke-linecap:square;stroke-linejoin:miter;stroke-miterlimit:3.25;stroke-dasharray:none;stroke-opacity:0.7"
         id="path50" />
      <path
         d="m 13.277,251.074 c 0,-0.691 -0.277,-1.355 -0.765,-1.844 -0.489,-0.488 -1.153,-0.761 -1.844,-0.761 -0.691,0 -1.352,0.273 -1.844,0.761 -0.488,0.489 -0.762,1.153 -0.762,1.844 0,0.692 0.274,1.356 0.762,1.844 0.492,0.488 1.153,0.762 1.844,0.762 0.691,0 1.355,-0.274 1.844,-0.762 0.488,-0.488 0.765,-1.152 0.765,-1.844 z"
         style="fill:#a3b4cc;fill-opacity:1;fill-rule:evenodd;stroke:none"
         id="path52" />
      <path
         d="m 13.277,251.074 c 0,-0.691 -0.277,-1.355 -0.765,-1.844 -0.489,-0.488 -1.153,-0.761 -1.844,-0.761 -0.691,0 -1.352,0.273 -1.844,0.761 -0.488,0.489 -0.762,1.153 -0.762,1.844 0,0.692 0.274,1.356 0.762,1.844 0.492,0.488 1.153,0.762 1.844,0.762 0.691,0 1.355,-0.274 1.844,-0.762 0.488,-0.488 0.765,-1.152 0.765,-1.844 z"
         style="fill:none;stroke:#000000;stroke-width:0.36;stroke-linecap:square;stroke-linejoin:miter;stroke-miterlimit:3.25;stroke-dasharray:none;stroke-opacity:0.7"
         id="path54" />
      <path
         d="m 81.512,181.234 c 0,-0.691 -0.274,-1.355 -0.762,-1.843 -0.488,-0.489 -1.152,-0.762 -1.844,-0.762 -0.691,0 -1.355,0.273 -1.844,0.762 -0.488,0.488 -0.761,1.152 -0.761,1.843 0,0.692 0.273,1.356 0.761,1.844 0.489,0.488 1.153,0.762 1.844,0.762 0.692,0 1.356,-0.274 1.844,-0.762 0.488,-0.488 0.762,-1.152 0.762,-1.844 z"
         style="fill:#a3b4cc;fill-opacity:1;fill-rule:evenodd;stroke:none"
         id="path56" />
      <path
         d="m 81.512,181.234 c 0,-0.691 -0.274,-1.355 -0.762,-1.843 -0.488,-0.489 -1.152,-0.762 -1.844,-0.762 -0.691,0 -1.355,0.273 -1.844,0.762 -0.488,0.488 -0.761,1.152 -0.761,1.843 0,0.692 0.273,1.356 0.761,1.844 0.489,0.488 1.153,0.762 1.844,0.762 0.692,0 1.356,-0.274 1.844,-0.762 0.488,-0.488 0.762,-1.152 0.762,-1.844 z"
         style="fill:none;stroke:#000000;stroke-width:0.36;stroke-linecap:square;stroke-linejoin:miter;stroke-miterlimit:3.25;stroke-dasharray:none;stroke-opacity:0.7"
         id="path58" />
    </g>
  </g>
</svg>
