<?xml version="1.0" encoding="UTF-8" standalone="no"?>
<!-- Created with Inkscape (http://www.inkscape.org/) -->

<svg
   version="1.1"
   id="svg1"
   width="361.33334"
   height="182.66667"
   viewBox="0 0 361.33334 182.66667"
   sodipodi:docname="1x49jchiki0fy.pdf"
   xmlns:inkscape="http://www.inkscape.org/namespaces/inkscape"
   xmlns:sodipodi="http://sodipodi.sourceforge.net/DTD/sodipodi-0.dtd"
   xmlns="http://www.w3.org/2000/svg"
   xmlns:svg="http://www.w3.org/2000/svg">
  <defs
     id="defs1" />
  <sodipodi:namedview
     id="namedview1"
     pagecolor="#ffffff"
     bordercolor="#999999"
     borderopacity="1"
     inkscape:showpageshadow="0"
     inkscape:pageopacity="0"
     inkscape:pagecheckerboard="0"
     inkscape:deskcolor="#d1d1d1">
    <inkscape:page
       x="0"
       y="0"
       id="page1"
       width="361.33334"
       height="182.66667"
       margin="0"
       bleed="0" />
  </sodipodi:namedview>
  <g
     id="g1"
     inkscape:groupmode="layer"
     inkscape:label="">
    <path
       id="path1"
       d="m 2.859375,4.2075777 c 0,0.011719 -0.011719,0.023437 -0.035156,0.023437 -0.011719,0 -0.046875,-0.011719 -0.09375,-0.023437 -0.339844,-0.09375 -0.6328127,-0.3164063 -0.8789065,-0.6328125 -0.375,-0.515625 -0.5625,-1.2304688 -0.5625,-2.1445313 V 0.23492144 c 0,-1.03125 -0.31640625,-1.71093754 -0.94921875,-2.07421874 v -0.011719 c 0.6328125,-0.363281 0.94921875,-1.066406 0.94921875,-2.0859373 v -1.1953125 c 0,-0.9140625 0.1875,-1.640625 0.5625,-2.1445312 0.2460938,-0.3164063 0.5390625,-0.5390625 0.8789063,-0.6445313 0.046875,-0.011719 0.082031,-0.023437 0.09375,-0.023437 0.023437,0 0.035156,0.011719 0.035156,0.035156 0,0.035156 -0.035156,0.070312 -0.1171875,0.1171875 -0.328125,0.1640625 -0.5507812,0.46875 -0.703125,0.9023437 -0.1289063,0.4101563 -0.1992188,0.9960938 -0.1992188,1.7460938 v 1.21875 c 0,0.3515625 -0.070312,0.7265625 -0.2109375,1.078125 -0.1757812,0.4921875 -0.4453125,0.8203125 -0.79687495,0.9960937 0.35156245,0.1757813 0.62109375,0.5039063 0.79687495,0.98437504 0.140625,0.375 0.2109375,0.7265625 0.2109375,1.08984375 V 1.4419527 c 0,0.75 0.070312,1.3242187 0.1992188,1.734375 0.1523438,0.4453125 0.375,0.75 0.703125,0.9140625 0.082031,0.035156 0.1171875,0.082031 0.1171877,0.1171875 z m 0,0"
       style="fill:#000000;fill-opacity:1;fill-rule:nonzero;stroke:none"
       aria-label=""
       transform="matrix(1.3333333,0,0,1.3333333,0,93.331303)" />
    <path
       id="path2"
       d="m 84.793,70.051 -2.316,3.847 -3.903,4.125 -4.203,2.821 -4.207,1.488 -3.961,0.172 -3.512,-1.07 -2.898,-2.168 -2.16,-3.059 -1.328,-3.691 -0.45,-4.016 0.45,-4.016 1.328,-3.691 2.16,-3.063 2.898,-2.168 3.512,-1.066 3.961,0.172 4.207,1.488 4.203,2.821 3.903,4.125 2.316,3.843"
       style="fill:none;stroke:#000000;stroke-width:1.44;stroke-linecap:butt;stroke-linejoin:miter;stroke-miterlimit:3.25;stroke-dasharray:none;stroke-opacity:0.7"
       transform="scale(1.3333333)" />
    <path
       id="path3"
       d="m 87.539,68.5 c 0,0.48 -0.191,0.941 -0.531,1.281 -0.34,0.34 -0.801,0.531 -1.281,0.531 -0.481,0 -0.942,-0.191 -1.282,-0.531 -0.34,-0.34 -0.531,-0.801 -0.531,-1.281 0,-0.48 0.191,-0.941 0.531,-1.281 0.34,-0.344 0.801,-0.531 1.282,-0.531 0.48,0 0.941,0.187 1.281,0.531 0.34,0.34 0.531,0.801 0.531,1.281 z"
       style="fill:#a3b4cc;fill-opacity:1;fill-rule:evenodd;stroke:#000000;stroke-width:0.36;stroke-linecap:square;stroke-linejoin:miter;stroke-miterlimit:3.25;stroke-dasharray:none;stroke-opacity:0.7"
       transform="scale(1.3333333)" />
    <path
       id="path4"
       d="m 0.77304688,1.3247652 -0.0820313,-0.1875 C 0.96054688,0.97320269 1.1714844,0.77398394 1.3121094,0.56304644 1.4058594,0.41070269 1.4644531,0.27007769 1.4644531,0.15289019 c 0,-0.08203125 -0.046875,-0.12890625 -0.140625,-0.12890625 l -0.082031,0.01171875 -0.140625,0.0234375 c -0.15234377,0 -0.28125002,-0.03515625 -0.37500002,-0.09375 -0.140625,-0.08203125 -0.19921875,-0.2109375 -0.19921875,-0.375 0,-0.1875 0.046875,-0.31640625 0.15234375,-0.41015625 0.1171875,-0.09375 0.234375,-0.12890625 0.38671872,-0.12890625 0.1640625,0 0.328125,0.046875 0.4570313,0.140625 0.1992187,0.1640625 0.3046875,0.41015625 0.3046875,0.75 0,0.3046875 -0.140625,0.59765625 -0.4101563,0.90234375 C 1.1832031,1.1021089 0.96054688,1.2661714 0.77304688,1.3247652 Z m 0,0"
       style="fill:#000000;fill-opacity:1;fill-rule:nonzero;stroke:none"
       aria-label=","
       transform="matrix(1.3333333,0,0,1.3333333,176.94583,93.331303)" />
    <path
       id="path5"
       d="m 219.641,70.051 -2.317,3.847 -3.898,4.125 -4.203,2.821 -4.207,1.488 -3.965,0.172 -3.512,-1.07 -2.898,-2.168 -2.157,-3.059 -1.332,-3.691 -0.445,-4.016 0.445,-4.016 1.332,-3.691 2.157,-3.063 2.898,-2.168 3.512,-1.066 3.965,0.172 4.207,1.488 4.203,2.821 3.898,4.125 2.317,3.843"
       style="fill:none;stroke:#000000;stroke-width:1.44;stroke-linecap:butt;stroke-linejoin:miter;stroke-miterlimit:3.25;stroke-dasharray:2.88, 2.88;stroke-dashoffset:0;stroke-opacity:0.7"
       transform="scale(1.3333333)" />
    <path
       id="path6"
       d="m 222.391,68.5 c 0,0.48 -0.192,0.941 -0.532,1.281 -0.339,0.34 -0.8,0.531 -1.281,0.531 -0.48,0 -0.945,-0.191 -1.285,-0.531 -0.34,-0.34 -0.531,-0.801 -0.531,-1.281 0,-0.48 0.191,-0.941 0.531,-1.281 0.34,-0.344 0.805,-0.531 1.285,-0.531 0.481,0 0.942,0.187 1.281,0.531 0.34,0.34 0.532,0.801 0.532,1.281 z"
       style="fill:#a3b4cc;fill-opacity:1;fill-rule:evenodd;stroke:#000000;stroke-width:0.36;stroke-linecap:square;stroke-linejoin:miter;stroke-miterlimit:3.25;stroke-dasharray:none;stroke-opacity:0.7"
       transform="scale(1.3333333)" />
    <path
       id="path7"
       d="m 2.8595703,-1.8392973 c -0.6328125,0.3632812 -0.9375,1.04296874 -0.9375,2.07421874 V 1.4302339 c 0,0.9140625 -0.1992187,1.6289063 -0.5742187,2.1445313 -0.234375,0.3164062 -0.53906254,0.5390625 -0.87890629,0.6328125 -0.046875,0.011719 -0.0703125,0.023437 -0.0820313,0.023437 -0.0351563,0 -0.046875,-0.011719 -0.046875,-0.023437 0,-0.035156 0.046875,-0.082031 0.1171875,-0.1171875 0.328125,-0.1640625 0.56250009,-0.46875 0.70312509,-0.9140625 0.140625,-0.4101563 0.1992187,-0.984375 0.1992187,-1.734375 V 0.22320269 c 0,-0.36328125 0.070312,-0.71484375 0.2109375,-1.08984375 C 1.7462891,-1.3471098 2.0158203,-1.6752348 2.3791016,-1.8510161 2.0158203,-2.0267973 1.7462891,-2.3549223 1.5705078,-2.8471098 1.4298828,-3.1986723 1.3595703,-3.5736723 1.3595703,-3.9252348 v -1.21875 c 0,-0.75 -0.058594,-1.3359375 -0.1992187,-1.7460938 -0.140625,-0.4335937 -0.37500004,-0.7382812 -0.70312504,-0.9023437 -0.0703125,-0.046875 -0.1171875,-0.082031 -0.1171875,-0.1171875 0,-0.023437 0.0117188,-0.035156 0.046875,-0.035156 0.0117188,0 0.0351563,0.011719 0.0820313,0.023437 0.33984375,0.1054688 0.64453124,0.328125 0.87890624,0.6445313 0.375,0.5039062 0.5742187,1.2304687 0.5742187,2.1445312 v 1.1953125 c 0,1.0195313 0.3046875,1.7226563 0.9375,2.0859375 z m 0,0"
       style="fill:#000000;fill-opacity:1;fill-rule:nonzero;stroke:none"
       aria-label=""
       transform="matrix(1.3333333,0,0,1.3333333,356.74583,93.331303)" />
  </g>
</svg>
