<?xml version="1.0" encoding="UTF-8" standalone="no"?>
<!-- Created with Inkscape (http://www.inkscape.org/) -->

<svg
   version="1.1"
   id="svg2"
   width="984"
   height="246.66667"
   viewBox="0 0 984 246.66667"
   sodipodi:docname="04pp8487m5zpn.pdf"
   xmlns:inkscape="http://www.inkscape.org/namespaces/inkscape"
   xmlns:sodipodi="http://sodipodi.sourceforge.net/DTD/sodipodi-0.dtd"
   xmlns="http://www.w3.org/2000/svg"
   xmlns:svg="http://www.w3.org/2000/svg">
  <defs
     id="defs6">
    <clipPath
       clipPathUnits="userSpaceOnUse"
       id="clipPath68">
      <path
         d="m 77,101 h 13.961 v 17 H 77 Z"
         id="path66" />
    </clipPath>
    <clipPath
       clipPathUnits="userSpaceOnUse"
       id="clipPath232">
      <path
         d="m 630,150 h 13.922 v 17 H 630 Z"
         id="path230" />
    </clipPath>
    <clipPath
       clipPathUnits="userSpaceOnUse"
       id="clipPath254">
      <path
         d="m 630,33 h 13.922 V 50 H 630 Z"
         id="path252" />
    </clipPath>
    <clipPath
       clipPathUnits="userSpaceOnUse"
       id="clipPath270">
      <path
         d="m 630,101 h 13.922 v 17 H 630 Z"
         id="path268" />
    </clipPath>
  </defs>
  <sodipodi:namedview
     id="namedview4"
     pagecolor="#ffffff"
     bordercolor="#999999"
     borderopacity="1"
     inkscape:showpageshadow="0"
     inkscape:pageopacity="0"
     inkscape:pagecheckerboard="0"
     inkscape:deskcolor="#d1d1d1" />
  <g
     id="g8"
     inkscape:groupmode="layer"
     inkscape:label="04pp8487m5zpn"
     transform="matrix(1.3333333,0,0,1.3333333,0,9.5e-6)">
    <g
       id="g10">
      <path
         d="m 50.27,100.539 -0.997,0.836 -1.14,0.648 -1.238,0.426 -1.297,0.18 -1.305,-0.074 -1.27,-0.325 -1.183,-0.558 -1.063,-0.762 -0.898,-0.93 -0.711,-1.05 -0.508,-1.118 -0.293,-1.124 -0.086,-1.083 0.11,-0.976 0.281,-0.832 0.418,-0.637 0.519,-0.41 0.575,-0.168 0.582,0.09 0.543,0.336 0.457,0.57 0.328,0.77 0.168,0.937 -0.024,1.055 -0.226,1.121 -0.442,1.125 -0.648,1.074 -0.844,0.973 -1.016,0.82 -1.148,0.625 -1.246,0.402 -1.301,0.153 -1.305,-0.102 -1.261,-0.347 -1.176,-0.582 -1.043,-0.782 -0.883,-0.945 -0.691,-1.059 -0.485,-1.121 -0.273,-1.125 -0.062,-1.07 0.128,-0.969 0.297,-0.808 0.434,-0.614 0.527,-0.386 0.578,-0.141 0.578,0.113 0.536,0.364 0.445,0.589 0.312,0.793 0.149,0.95 -0.043,1.066 -0.25,1.121 -0.461,1.125 -0.672,1.067 -0.863,0.96 -1.028,0.801 -1.164,0.602 -1.253,0.375 -1.305,0.125 -1.301,-0.125 -1.254,-0.375 -1.164,-0.602 -1.027,-0.801 -0.864,-0.96 -0.671,-1.067 -0.461,-1.125 -0.25,-1.121 -0.043,-1.066 0.148,-0.95 0.313,-0.793 0.445,-0.589 0.535,-0.364 0.578,-0.113 0.578,0.141 0.528,0.386 0.433,0.614 0.297,0.808 0.129,0.969 -0.066,1.07 -0.27,1.125 -0.484,1.121 -0.692,1.059 -0.882,0.945 -1.043,0.782 -1.176,0.582 -1.262,0.347 -1.305,0.102 -1.3,-0.153 -1.247,-0.402 -1.152,-0.625 -1.012,-0.82 L 9.348,99.66 8.699,98.586 8.258,97.461 8.031,96.34 8.008,95.285 l 0.168,-0.937 0.328,-0.77 0.457,-0.57 0.543,-0.336 0.578,-0.09 0.578,0.168 0.516,0.41 0.422,0.637 0.281,0.832 0.109,0.976 -0.086,1.083 -0.293,1.124 -0.507,1.118 -0.711,1.05 -0.899,0.93 -1.062,0.762 -1.184,0.558 -1.269,0.325 -1.305,0.074 -1.297,-0.18 L 2.133,102.023 0.996,101.375 0,100.539"
         style="fill:none;stroke:#000000;stroke-width:0.9216;stroke-linecap:square;stroke-linejoin:miter;stroke-miterlimit:3.25;stroke-dasharray:none;stroke-opacity:1"
         id="path12" />
      <text
         xml:space="preserve"
         transform="translate(18.853295,128.41036)"
         style="font-variant:normal;font-size:21.12px;font-family:CairoFont-0;-inkscape-font-specification:CairoFont-0-0;writing-mode:lr-tb;fill:#000000;fill-opacity:1;fill-rule:nonzero;stroke:none"
         id="text16"><tspan
           x="0"
           y="0"
           id="tspan14">g</tspan></text>
      <path
         d="m 117.293,100.539 1,-0.84 1.137,-0.648 1.238,-0.422 1.297,-0.18 1.305,0.074 1.269,0.325 1.188,0.554 1.058,0.766 0.899,0.93 0.714,1.047 0.504,1.117 0.297,1.129 0.086,1.078 -0.113,0.98 -0.281,0.828 -0.418,0.637 -0.52,0.414 -0.574,0.164 -0.582,-0.086 -0.543,-0.336 -0.453,-0.57 -0.332,-0.773 -0.164,-0.938 0.019,-1.055 0.231,-1.117 0.437,-1.125 0.653,-1.078 0.843,-0.973 1.012,-0.82 1.148,-0.625 1.25,-0.398 1.297,-0.153 1.305,0.098 1.262,0.352 1.176,0.578 1.046,0.785 0.879,0.941 0.692,1.063 0.484,1.117 0.273,1.125 0.063,1.074 -0.129,0.965 -0.297,0.812 -0.433,0.614 -0.528,0.386 -0.574,0.141 -0.582,-0.113 -0.535,-0.363 -0.445,-0.59 -0.313,-0.793 -0.148,-0.953 0.043,-1.063 0.25,-1.121 0.464,-1.125 0.668,-1.066 0.864,-0.961 1.031,-0.801 1.16,-0.606 1.254,-0.371 1.305,-0.129 1.3,0.129 1.258,0.371 1.16,0.606 1.032,0.801 0.859,0.961 0.672,1.066 0.461,1.125 0.25,1.121 0.043,1.063 -0.149,0.953 -0.312,0.793 -0.445,0.59 -0.532,0.363 -0.582,0.113 -0.578,-0.141 -0.527,-0.386 -0.43,-0.614 -0.301,-0.812 -0.129,-0.965 0.067,-1.074 0.269,-1.125 0.489,-1.117 0.691,-1.063 0.879,-0.941 1.047,-0.785 1.172,-0.578 1.261,-0.352 1.305,-0.098 1.301,0.153 1.246,0.398 1.152,0.625 1.012,0.82 0.844,0.973 0.648,1.078 0.442,1.125 0.226,1.117 0.024,1.055 -0.168,0.938 -0.328,0.773 -0.457,0.57 -0.54,0.336 -0.582,0.086 -0.574,-0.164 -0.519,-0.414 -0.422,-0.637 -0.281,-0.828 -0.11,-0.98 0.086,-1.078 0.293,-1.129 0.508,-1.117 0.711,-1.047 0.902,-0.93 1.059,-0.766 1.187,-0.554 1.266,-0.325 1.309,-0.074 1.296,0.18 1.239,0.422 1.136,0.648 0.996,0.84"
         style="fill:none;stroke:#000000;stroke-width:0.9216;stroke-linecap:square;stroke-linejoin:miter;stroke-miterlimit:3.25;stroke-dasharray:none;stroke-opacity:1"
         id="path18" />
      <text
         xml:space="preserve"
         transform="translate(136.14784,134.27509)"
         style="font-variant:normal;font-size:21.12px;font-family:CairoFont-0;-inkscape-font-specification:CairoFont-0-0;writing-mode:lr-tb;fill:#000000;fill-opacity:1;fill-rule:nonzero;stroke:none"
         id="text22"><tspan
           x="0"
           y="0"
           id="tspan20">g</tspan></text>
      <path
         d="m 50.27,100.539 c 0,8.887 3.531,17.41 9.816,23.695 6.285,6.286 14.809,9.817 23.695,9.817 8.891,0 17.414,-3.531 23.699,-9.817 6.286,-6.285 9.813,-14.808 9.813,-23.695"
         style="fill:none;stroke:#000000;stroke-width:0.9216;stroke-linecap:butt;stroke-linejoin:miter;stroke-miterlimit:3.25;stroke-dasharray:0.9216, 5.5296;stroke-dashoffset:0;stroke-opacity:1"
         id="path24" />
      <path
         d="m 78.754,134.051 10.055,3.351 v -6.703 z"
         style="fill:#000000;fill-opacity:1;fill-rule:evenodd;stroke:none"
         id="path26" />
      <text
         xml:space="preserve"
         transform="translate(73.277599,153.95044)"
         style="font-variant:normal;font-size:21.12px;font-family:CairoFont-0;-inkscape-font-specification:CairoFont-0-0;writing-mode:lr-tb;fill:#000000;fill-opacity:1;fill-rule:nonzero;stroke:none"
         id="text30"><tspan
           x="0"
           y="0"
           id="tspan28">u</tspan></text>
      <text
         xml:space="preserve"
         transform="translate(84.949474,157.87036)"
         style="font-variant:normal;font-size:14.88px;font-family:CairoFont-0;-inkscape-font-specification:CairoFont-0-0;writing-mode:lr-tb;fill:#000000;fill-opacity:1;fill-rule:nonzero;stroke:none"
         id="text34"><tspan
           x="0"
           y="0"
           id="tspan32">g</tspan></text>
      <path
         d="M 67.027,71.215 C 55.82,76.484 49.121,88.211 50.27,100.539"
         style="fill:none;stroke:#000000;stroke-width:0.9216;stroke-linecap:butt;stroke-linejoin:miter;stroke-miterlimit:3.25;stroke-dasharray:0.9216, 5.5296;stroke-dashoffset:0;stroke-opacity:1"
         id="path36" />
      <path
         d="m 56.508,78.863 -7.899,7.067 5.821,3.328 z"
         style="fill:#000000;fill-opacity:1;fill-rule:evenodd;stroke:none"
         id="path38" />
      <text
         xml:space="preserve"
         transform="translate(26.797662,73.616704)"
         style="font-variant:normal;font-size:21.12px;font-family:CairoFont-0;-inkscape-font-specification:CairoFont-0-0;writing-mode:lr-tb;fill:#000000;fill-opacity:1;fill-rule:nonzero;stroke:none"
         id="text42"><tspan
           x="0"
           y="0"
           id="tspan40">u</tspan></text>
      <text
         xml:space="preserve"
         transform="translate(38.469537,77.536626)"
         style="font-variant:normal;font-size:14.88px;font-family:CairoFont-0;-inkscape-font-specification:CairoFont-0-0;writing-mode:lr-tb;fill:#000000;fill-opacity:1;fill-rule:nonzero;stroke:none"
         id="text46"><tspan
           x="0"
           y="0"
           id="tspan44">g</tspan></text>
      <path
         d="m 100.539,71.215 c -1.152,-5.113 -4.57,-9.418 -9.289,-11.695 -4.719,-2.282 -10.219,-2.282 -14.938,0 -4.714,2.277 -8.136,6.582 -9.285,11.695"
         style="fill:none;stroke:#000000;stroke-width:0.9216;stroke-linecap:butt;stroke-linejoin:miter;stroke-miterlimit:3.25;stroke-dasharray:0.9216, 5.5296;stroke-dashoffset:0;stroke-opacity:1"
         id="path48" />
      <path
         d="M 88.809,57.809 78.754,54.457 v 6.703 z"
         style="fill:#000000;fill-opacity:1;fill-rule:evenodd;stroke:none"
         id="path50" />
      <text
         xml:space="preserve"
         transform="translate(73.277599,41.654069)"
         style="font-variant:normal;font-size:21.12px;font-family:CairoFont-0;-inkscape-font-specification:CairoFont-0-0;writing-mode:lr-tb;fill:#000000;fill-opacity:1;fill-rule:nonzero;stroke:none"
         id="text54"><tspan
           x="0"
           y="0"
           id="tspan52">u</tspan></text>
      <text
         xml:space="preserve"
         transform="translate(84.949474,45.573991)"
         style="font-variant:normal;font-size:14.88px;font-family:CairoFont-0;-inkscape-font-specification:CairoFont-0-0;writing-mode:lr-tb;fill:#000000;fill-opacity:1;fill-rule:nonzero;stroke:none"
         id="text58"><tspan
           x="0"
           y="0"
           id="tspan56">g</tspan></text>
      <path
         d="m 67.027,71.215 -0.605,1.277 -0.231,1.457 0.192,1.516 0.609,1.43 0.973,1.207 1.234,0.875 1.379,0.472 1.399,0.067 1.312,-0.309 1.156,-0.598 0.969,-0.8 0.762,-0.891 0.566,-0.895 0.371,-0.808 0.18,-0.668 -0.016,-0.488 -0.222,-0.289 -0.43,-0.09 -0.625,0.105 -0.781,0.289 -0.895,0.481 -0.926,0.672 -0.863,0.882 -0.707,1.082 -0.441,1.258 -0.094,1.379 0.309,1.41 0.718,1.313 1.086,1.097 1.356,0.766 1.492,0.367 1.488,-0.062 1.36,-0.457 1.125,-0.789 0.855,-1.02 0.57,-1.148 0.325,-1.18 0.121,-1.125 -0.028,-0.988 -0.136,-0.797 -0.219,-0.563 -0.297,-0.293 -0.371,-0.015 -0.445,0.258 -0.504,0.511 -0.536,0.746 -0.5,0.953 -0.398,1.122 -0.203,1.242 0.074,1.308 0.414,1.293 0.781,1.168 1.122,0.942 1.39,0.613 1.539,0.215 1.539,-0.215 1.391,-0.613 1.125,-0.942 0.777,-1.168 0.414,-1.293 0.075,-1.308 -0.204,-1.242 -0.394,-1.122 -0.504,-0.953 -0.531,-0.746 -0.508,-0.511 -0.445,-0.258 -0.371,0.015 -0.297,0.293 -0.219,0.563 -0.137,0.797 -0.027,0.988 0.121,1.125 0.324,1.18 0.574,1.148 0.852,1.02 1.129,0.789 1.355,0.457 1.489,0.062 1.496,-0.367 1.355,-0.766 1.082,-1.097 0.719,-1.313 0.309,-1.41 -0.094,-1.379 -0.442,-1.258 -0.703,-1.082 -0.867,-0.882 -0.926,-0.672 -0.89,-0.481 -0.786,-0.289 -0.624,-0.105 -0.426,0.09 -0.223,0.289 -0.019,0.488 0.179,0.668 0.371,0.808 0.567,0.895 0.765,0.891 0.965,0.8 1.156,0.598 1.313,0.309 1.398,-0.067 1.379,-0.472 1.235,-0.875 0.972,-1.207 0.61,-1.43 0.191,-1.516 -0.226,-1.457 -0.606,-1.277"
         style="fill:none;stroke:#000000;stroke-width:0.9216;stroke-linecap:square;stroke-linejoin:miter;stroke-miterlimit:3.25;stroke-dasharray:none;stroke-opacity:1"
         id="path60" />
    </g>
    <g
       id="g62">
      <g
         id="g64"
         clip-path="url(#clipPath68)">
        <text
           xml:space="preserve"
           transform="translate(77.500568,112.49182)"
           style="font-variant:normal;font-size:21.12px;font-family:CairoFont-0;-inkscape-font-specification:CairoFont-0-0;writing-mode:lr-tb;fill:#000000;fill-opacity:1;fill-rule:nonzero;stroke:none"
           id="text72"><tspan
             x="0"
             y="0"
             id="tspan70">g</tspan></text>
      </g>
    </g>
    <g
       id="g74">
      <path
         d="M 117.293,100.539 C 118.305,88.238 111.648,76.586 100.539,71.215"
         style="fill:none;stroke:#000000;stroke-width:0.9216;stroke-linecap:butt;stroke-linejoin:miter;stroke-miterlimit:3.25;stroke-dasharray:0.9216, 5.5296;stroke-dashoffset:0;stroke-opacity:1"
         id="path76" />
      <path
         d="m 115.957,87.645 -2.078,-10.395 -5.82,3.328 z"
         style="fill:#000000;fill-opacity:1;fill-rule:evenodd;stroke:none"
         id="path78" />
      <text
         xml:space="preserve"
         transform="translate(119.66957,73.666973)"
         style="font-variant:normal;font-size:21.12px;font-family:CairoFont-0;-inkscape-font-specification:CairoFont-0-0;writing-mode:lr-tb;fill:#000000;fill-opacity:1;fill-rule:nonzero;stroke:none"
         id="text82"><tspan
           x="0"
           y="0"
           id="tspan80">u</tspan></text>
      <text
         xml:space="preserve"
         transform="translate(131.34144,77.586895)"
         style="font-variant:normal;font-size:14.88px;font-family:CairoFont-0;-inkscape-font-specification:CairoFont-0-0;writing-mode:lr-tb;fill:#000000;fill-opacity:1;fill-rule:nonzero;stroke:none"
         id="text86"><tspan
           x="0"
           y="0"
           id="tspan84">g</tspan></text>
      <path
         d="m 104.223,71.215 c 0,0.976 -0.387,1.914 -1.078,2.605 -0.692,0.692 -1.629,1.082 -2.606,1.082 -0.98,0 -1.918,-0.39 -2.609,-1.082 -0.692,-0.691 -1.078,-1.629 -1.078,-2.605 0,-0.977 0.386,-1.914 1.078,-2.606 0.691,-0.691 1.629,-1.082 2.609,-1.082 0.977,0 1.914,0.391 2.606,1.082 0.691,0.692 1.078,1.629 1.078,2.606 z"
         style="fill:#000000;fill-opacity:1;fill-rule:evenodd;stroke:none"
         id="path88" />
      <path
         d="m 70.711,71.215 c 0,0.976 -0.387,1.914 -1.078,2.605 -0.692,0.692 -1.629,1.082 -2.606,1.082 -0.98,0 -1.918,-0.39 -2.609,-1.082 -0.691,-0.691 -1.078,-1.629 -1.078,-2.605 0,-0.977 0.387,-1.914 1.078,-2.606 0.691,-0.691 1.629,-1.082 2.609,-1.082 0.977,0 1.914,0.391 2.606,1.082 0.691,0.692 1.078,1.629 1.078,2.606 z"
         style="fill:#000000;fill-opacity:1;fill-rule:evenodd;stroke:none"
         id="path90" />
      <path
         d="m 53.957,100.539 c 0,0.977 -0.391,1.914 -1.082,2.606 -0.691,0.691 -1.629,1.078 -2.605,1.078 -0.977,0 -1.915,-0.387 -2.606,-1.078 -0.691,-0.692 -1.082,-1.629 -1.082,-2.606 0,-0.98 0.391,-1.918 1.082,-2.609 0.691,-0.692 1.629,-1.078 2.606,-1.078 0.976,0 1.914,0.386 2.605,1.078 0.691,0.691 1.082,1.629 1.082,2.609 z"
         style="fill:#000000;fill-opacity:1;fill-rule:evenodd;stroke:none"
         id="path92" />
      <path
         d="m 120.98,100.539 c 0,0.977 -0.386,1.914 -1.078,2.606 -0.691,0.691 -1.629,1.078 -2.609,1.078 -0.977,0 -1.914,-0.387 -2.605,-1.078 -0.692,-0.692 -1.079,-1.629 -1.079,-2.606 0,-0.98 0.387,-1.918 1.079,-2.609 0.691,-0.692 1.628,-1.078 2.605,-1.078 0.98,0 1.918,0.386 2.609,1.078 0.692,0.691 1.078,1.629 1.078,2.609 z"
         style="fill:#000000;fill-opacity:1;fill-rule:evenodd;stroke:none"
         id="path94" />
      <path
         d="m 234.59,100.539 -0.996,0.836 -1.141,0.648 -1.238,0.426 -1.297,0.18 -1.305,-0.074 -1.269,-0.325 -1.184,-0.558 -1.062,-0.762 -0.899,-0.93 -0.711,-1.05 -0.508,-1.118 -0.296,-1.124 -0.082,-1.083 0.109,-0.976 0.281,-0.832 0.418,-0.637 0.52,-0.41 0.574,-0.168 0.582,0.09 0.543,0.336 0.457,0.57 0.328,0.77 0.164,0.937 -0.019,1.055 -0.227,1.121 -0.441,1.125 -0.649,1.074 -0.844,0.973 -1.015,0.82 -1.149,0.625 -1.246,0.402 -1.3,0.153 -1.305,-0.102 -1.262,-0.347 -1.176,-0.582 -1.043,-0.782 -0.882,-0.945 -0.692,-1.059 -0.484,-1.121 -0.274,-1.125 -0.062,-1.07 0.129,-0.969 0.297,-0.808 0.433,-0.614 0.528,-0.386 0.578,-0.141 0.578,0.113 0.535,0.364 0.445,0.589 0.313,0.793 0.148,0.95 -0.043,1.066 -0.25,1.121 -0.465,1.125 -0.668,1.067 -0.863,0.96 -1.027,0.801 -1.164,0.602 -1.254,0.375 -1.305,0.125 -1.301,-0.125 -1.254,-0.375 -1.164,-0.602 -1.027,-0.801 -0.863,-0.96 -0.672,-1.067 -0.461,-1.125 -0.25,-1.121 -0.043,-1.066 0.148,-0.95 0.313,-0.793 0.445,-0.589 0.535,-0.364 0.579,-0.113 0.578,0.141 0.527,0.386 0.434,0.614 0.296,0.808 0.129,0.969 -0.066,1.07 -0.27,1.125 -0.484,1.121 -0.691,1.059 -0.883,0.945 -1.043,0.782 -1.176,0.582 -1.262,0.347 -1.304,0.102 -1.301,-0.153 -1.246,-0.402 -1.153,-0.625 -1.011,-0.82 -0.844,-0.973 -0.648,-1.074 -0.442,-1.125 -0.226,-1.121 -0.024,-1.055 0.168,-0.937 0.328,-0.77 0.457,-0.57 0.539,-0.336 0.582,-0.09 0.575,0.168 0.519,0.41 0.422,0.637 0.281,0.832 0.11,0.976 -0.086,1.083 -0.293,1.124 -0.508,1.118 -0.711,1.05 -0.899,0.93 -1.062,0.762 -1.184,0.558 -1.269,0.325 -1.309,0.074 -1.293,-0.18 -1.242,-0.426 -1.137,-0.648 -0.996,-0.836"
         style="fill:none;stroke:#000000;stroke-width:0.9216;stroke-linecap:square;stroke-linejoin:miter;stroke-miterlimit:3.25;stroke-dasharray:none;stroke-opacity:1"
         id="path96" />
      <text
         xml:space="preserve"
         transform="translate(203.17329,128.41036)"
         style="font-variant:normal;font-size:21.12px;font-family:CairoFont-0;-inkscape-font-specification:CairoFont-0-0;writing-mode:lr-tb;fill:#000000;fill-opacity:1;fill-rule:nonzero;stroke:none"
         id="text100"><tspan
           x="0"
           y="0"
           id="tspan98">g</tspan></text>
      <path
         d="m 301.613,100.539 1,-0.84 1.137,-0.648 1.238,-0.422 1.297,-0.18 1.305,0.074 1.269,0.325 1.188,0.554 1.058,0.766 0.899,0.93 0.715,1.047 0.504,1.117 0.297,1.129 0.085,1.078 -0.113,0.98 -0.281,0.828 -0.418,0.637 -0.52,0.414 -0.574,0.164 -0.582,-0.086 -0.543,-0.336 -0.453,-0.57 -0.332,-0.773 -0.164,-0.938 0.02,-1.055 0.23,-1.117 0.437,-1.125 0.653,-1.078 0.84,-0.973 1.015,-0.82 1.149,-0.625 1.25,-0.398 1.297,-0.153 1.304,0.098 1.262,0.352 1.176,0.578 1.043,0.785 0.883,0.941 0.691,1.063 0.484,1.117 0.274,1.125 0.062,1.074 -0.129,0.965 -0.296,0.812 -0.434,0.614 -0.527,0.386 -0.579,0.141 -0.578,-0.113 -0.535,-0.363 -0.445,-0.59 -0.313,-0.793 -0.148,-0.953 0.043,-1.063 0.25,-1.121 0.465,-1.125 0.668,-1.066 0.863,-0.961 1.031,-0.801 1.16,-0.606 1.254,-0.371 1.305,-0.129 1.301,0.129 1.254,0.371 1.164,0.606 1.027,0.801 0.863,0.961 0.672,1.066 0.461,1.125 0.25,1.121 0.043,1.063 -0.148,0.953 -0.313,0.793 -0.445,0.59 -0.531,0.363 -0.582,0.113 -0.578,-0.141 -0.528,-0.386 -0.43,-0.614 -0.3,-0.812 -0.129,-0.965 0.066,-1.074 0.27,-1.125 0.488,-1.117 0.691,-1.063 0.879,-0.941 1.047,-0.785 1.172,-0.578 1.262,-0.352 1.304,-0.098 1.301,0.153 1.246,0.398 1.153,0.625 1.011,0.82 0.844,0.973 0.649,1.078 0.441,1.125 0.227,1.117 0.023,1.055 -0.168,0.938 -0.328,0.773 -0.457,0.57 -0.539,0.336 -0.582,0.086 -0.574,-0.164 -0.52,-0.414 -0.422,-0.637 -0.281,-0.828 -0.109,-0.98 0.085,-1.078 0.293,-1.129 0.508,-1.117 0.711,-1.047 0.903,-0.93 1.058,-0.766 1.184,-0.554 1.269,-0.325 1.309,-0.074 1.297,0.18 1.238,0.422 1.137,0.648 0.996,0.84"
         style="fill:none;stroke:#000000;stroke-width:0.9216;stroke-linecap:square;stroke-linejoin:miter;stroke-miterlimit:3.25;stroke-dasharray:none;stroke-opacity:1"
         id="path102" />
      <text
         xml:space="preserve"
         transform="translate(320.46784,134.27509)"
         style="font-variant:normal;font-size:21.12px;font-family:CairoFont-0;-inkscape-font-specification:CairoFont-0-0;writing-mode:lr-tb;fill:#000000;fill-opacity:1;fill-rule:nonzero;stroke:none"
         id="text106"><tspan
           x="0"
           y="0"
           id="tspan104">g</tspan></text>
      <path
         d="m 301.613,100.539 0.766,0.996 0.566,1.156 0.336,1.274 0.074,1.336 -0.191,1.328 -0.449,1.262 -0.684,1.129 -0.871,0.953 -1.019,0.742 -1.11,0.512 -1.148,0.285 -1.133,0.078 -1.074,-0.11 -0.977,-0.253 -0.844,-0.36 -0.687,-0.426 -0.512,-0.453 -0.316,-0.445 -0.117,-0.414 0.082,-0.359 0.281,-0.286 0.465,-0.195 0.629,-0.082 0.765,0.039 0.86,0.184 0.918,0.34 0.922,0.515 0.875,0.695 0.777,0.872 0.621,1.035 0.426,1.172 0.191,1.265 -0.066,1.313 -0.332,1.289 -0.586,1.211 -0.809,1.066 -0.996,0.875 -1.125,0.649 -1.203,0.402 -1.223,0.152 -1.191,-0.078 -1.109,-0.281 -1.004,-0.442 -0.86,-0.558 -0.707,-0.621 -0.539,-0.637 -0.363,-0.613 -0.188,-0.551 -0.007,-0.457 0.164,-0.34 0.328,-0.203 0.472,-0.055 0.594,0.102 0.688,0.265 0.738,0.43 0.746,0.598 0.703,0.765 0.613,0.918 0.465,1.059 0.278,1.168 0.046,1.234 -0.199,1.258 -0.457,1.223 -0.703,1.129 -0.922,0.972 -1.097,0.778 -1.219,0.535 -1.274,0.277 -1.277,0.02 -1.219,-0.227 -1.117,-0.441 -0.984,-0.613 -0.824,-0.743 -0.657,-0.808 -0.484,-0.832 -0.324,-0.801 -0.16,-0.723 -0.02,-0.613 0.121,-0.469 0.246,-0.301 0.352,-0.121 0.445,0.067 0.512,0.258 0.547,0.441 0.55,0.621 0.508,0.785 0.422,0.93 0.293,1.051 0.117,1.136 -0.093,1.188 -0.325,1.184 -0.566,1.132 -0.801,1.02 -1.008,0.859 -1.175,0.653 -1.278,0.406 -1.328,0.14 -1.309,-0.117 -1.226,-0.371 -1.102,-0.59 -0.937,-0.765 -0.754,-0.895 -0.563,-0.969 -0.375,-0.992 -0.203,-0.961 -0.058,-0.886 0.07,-0.77 0.176,-0.617 0.258,-0.442 0.324,-0.246 0.363,-0.043 0.391,0.168 0.394,0.375 0.371,0.563 0.317,0.734 0.23,0.883 0.11,0.996 -0.047,1.074 -0.239,1.11 -0.445,1.09 -0.668,1.023 -0.875,0.902 -1.066,0.727 -1.215,0.512 -1.313,0.265 h -1.343 l -1.313,-0.265 -1.215,-0.512 -1.066,-0.727 -0.875,-0.902 -0.664,-1.023 -0.449,-1.09 -0.235,-1.11 -0.051,-1.074 0.11,-0.996 0.23,-0.883 0.317,-0.734 0.371,-0.563 0.394,-0.375 0.391,-0.168 0.367,0.043 0.32,0.246 0.258,0.442 0.176,0.617 0.07,0.77 -0.054,0.886 -0.207,0.961 -0.375,0.992 -0.563,0.969 -0.754,0.895 -0.937,0.765 -1.102,0.59 -1.226,0.371 -1.309,0.117 -1.328,-0.14 -1.277,-0.406 -1.172,-0.653 -1.008,-0.859 -0.801,-1.02 -0.57,-1.132 -0.324,-1.184 -0.094,-1.188 0.117,-1.136 0.293,-1.051 0.422,-0.93 0.508,-0.785 0.55,-0.621 0.547,-0.441 0.512,-0.258 0.445,-0.067 0.356,0.121 0.242,0.301 0.121,0.469 -0.016,0.613 -0.164,0.723 -0.324,0.801 -0.484,0.832 -0.656,0.808 -0.825,0.743 -0.984,0.613 -1.117,0.441 -1.219,0.227 -1.273,-0.02 -1.278,-0.277 -1.218,-0.535 -1.098,-0.778 -0.922,-0.972 -0.703,-1.129 -0.457,-1.223 -0.199,-1.258 0.05,-1.234 0.274,-1.168 0.465,-1.059 0.613,-0.918 0.703,-0.765 0.746,-0.598 0.738,-0.43 0.688,-0.265 0.594,-0.102 0.472,0.055 0.328,0.203 0.165,0.34 -0.008,0.457 -0.188,0.551 -0.363,0.613 -0.539,0.637 -0.703,0.621 -0.864,0.558 -1,0.442 -1.113,0.281 -1.191,0.078 -1.223,-0.152 -1.199,-0.402 -1.129,-0.649 -0.996,-0.875 -0.809,-1.066 -0.586,-1.211 -0.332,-1.289 -0.066,-1.313 0.191,-1.265 0.426,-1.172 0.621,-1.035 0.778,-0.872 0.875,-0.695 0.921,-0.515 0.918,-0.34 0.86,-0.184 0.765,-0.039 0.629,0.082 0.465,0.195 0.281,0.286 0.082,0.359 -0.117,0.414 -0.316,0.445 -0.512,0.453 -0.687,0.426 -0.844,0.36 -0.977,0.253 -1.074,0.11 -1.133,-0.078 -1.148,-0.285 -1.11,-0.512 -1.019,-0.742 -0.871,-0.953 -0.684,-1.129 -0.449,-1.262 -0.191,-1.328 0.074,-1.336 0.336,-1.274 0.566,-1.156 0.766,-0.996"
         style="fill:none;stroke:#000000;stroke-width:0.9216;stroke-linecap:square;stroke-linejoin:miter;stroke-miterlimit:3.25;stroke-dasharray:none;stroke-opacity:1"
         id="path108" />
      <text
         xml:space="preserve"
         transform="translate(261.82057,161.92309)"
         style="font-variant:normal;font-size:21.12px;font-family:CairoFont-0;-inkscape-font-specification:CairoFont-0-0;writing-mode:lr-tb;fill:#000000;fill-opacity:1;fill-rule:nonzero;stroke:none"
         id="text112"><tspan
           x="0"
           y="0"
           id="tspan110">g</tspan></text>
      <path
         d="m 234.59,100.539 -0.977,-0.984 -0.718,-1.223 -0.399,-1.391 -0.039,-1.464 0.32,-1.422 0.661,-1.282 0.937,-1.054 1.141,-0.774 1.261,-0.465 1.293,-0.164 1.246,0.09 1.137,0.297 0.969,0.445 0.758,0.524 0.511,0.555 0.243,0.546 -0.036,0.5 -0.316,0.434 -0.574,0.344 -0.809,0.226 -0.992,0.078 -1.117,-0.105 -1.172,-0.32 -1.145,-0.571 -1.035,-0.824 -0.84,-1.07 -0.562,-1.274 -0.238,-1.41 0.125,-1.445 0.484,-1.383 0.809,-1.211 1.066,-0.957 1.246,-0.648 1.332,-0.313 1.332,0.008 1.258,0.289 1.129,0.508 0.945,0.648 0.738,0.719 0.508,0.723 0.262,0.66 0.004,0.566 -0.246,0.43 -0.488,0.281 -0.704,0.114 -0.878,-0.071 -0.993,-0.273 -1.043,-0.485 -1.007,-0.714 -0.887,-0.938 -0.684,-1.144 -0.41,-1.305 -0.074,-1.402 0.285,-1.407 0.633,-1.312 0.945,-1.117 1.184,-0.844 1.332,-0.508 1.387,-0.16 1.347,0.176 1.235,0.472 1.07,0.7 0.875,0.847 0.656,0.91 0.438,0.895 0.214,0.808 -0.003,0.672 -0.215,0.492 -0.414,0.286 -0.594,0.066 -0.738,-0.16 -0.836,-0.383 -0.871,-0.613 -0.836,-0.828 -0.711,-1.028 -0.512,-1.199 -0.242,-1.32 0.086,-1.375 0.433,-1.344 0.77,-1.219 1.062,-1 1.282,-0.707 1.398,-0.363 1.422,-0.004 1.34,0.344"
         style="fill:none;stroke:#000000;stroke-width:0.9216;stroke-linecap:square;stroke-linejoin:miter;stroke-miterlimit:3.25;stroke-dasharray:none;stroke-opacity:1"
         id="path114" />
      <text
         xml:space="preserve"
         transform="translate(219.5636,77.118657)"
         style="font-variant:normal;font-size:21.12px;font-family:CairoFont-0;-inkscape-font-specification:CairoFont-0-0;writing-mode:lr-tb;fill:#000000;fill-opacity:1;fill-rule:nonzero;stroke:none"
         id="text118"><tspan
           x="0"
           y="0"
           id="tspan116">g</tspan></text>
      <path
         d="m 284.859,71.215 c -1.152,-5.113 -4.57,-9.418 -9.289,-11.695 -4.718,-2.282 -10.218,-2.282 -14.937,0 -4.719,2.277 -8.137,6.582 -9.289,11.695"
         style="fill:none;stroke:#000000;stroke-width:0.9216;stroke-linecap:square;stroke-linejoin:miter;stroke-miterlimit:3.25;stroke-dasharray:none;stroke-opacity:1"
         id="path120" />
      <path
         d="M 273.129,57.809 263.074,54.457 V 61.16 Z"
         style="fill:#000000;fill-opacity:1;fill-rule:evenodd;stroke:none"
         id="path122" />
      <text
         xml:space="preserve"
         transform="translate(261.86158,45.156022)"
         style="font-variant:normal;font-size:21.12px;font-family:CairoFont-0;-inkscape-font-specification:CairoFont-0-0;writing-mode:lr-tb;fill:#000000;fill-opacity:1;fill-rule:nonzero;stroke:none"
         id="text126"><tspan
           x="0"
           y="0"
           id="tspan124">u</tspan></text>
      <path
         d="m 251.344,71.215 c 1.152,5.109 4.57,9.418 9.289,11.695 4.719,2.278 10.219,2.278 14.937,0 4.719,-2.277 8.137,-6.586 9.289,-11.695"
         style="fill:none;stroke:#000000;stroke-width:0.9216;stroke-linecap:square;stroke-linejoin:miter;stroke-miterlimit:3.25;stroke-dasharray:none;stroke-opacity:1"
         id="path128" />
      <path
         d="m 263.074,84.621 10.055,3.352 V 81.27 Z"
         style="fill:#000000;fill-opacity:1;fill-rule:evenodd;stroke:none"
         id="path130" />
      <text
         xml:space="preserve"
         transform="translate(261.86158,112.49182)"
         style="font-variant:normal;font-size:21.12px;font-family:CairoFont-0;-inkscape-font-specification:CairoFont-0-0;writing-mode:lr-tb;fill:#000000;fill-opacity:1;fill-rule:nonzero;stroke:none"
         id="text134"><tspan
           x="0"
           y="0"
           id="tspan132">u</tspan></text>
      <path
         d="m 301.613,100.539 0.969,-0.992 0.703,-1.231 0.387,-1.39 0.027,-1.461 -0.332,-1.418 -0.668,-1.277 -0.945,-1.047 -1.145,-0.762 -1.261,-0.457 -1.297,-0.16 -1.246,0.097 -1.133,0.305 -0.969,0.445 -0.754,0.532 -0.508,0.558 -0.238,0.551 0.039,0.504 0.317,0.437 0.582,0.34 0.808,0.227 0.992,0.07 1.118,-0.109 1.168,-0.328 1.144,-0.575 1.027,-0.832 0.832,-1.074 0.563,-1.277 0.23,-1.406 -0.128,-1.446 -0.489,-1.375 -0.808,-1.211 -1.071,-0.953 -1.242,-0.644 -1.332,-0.313 -1.336,0.008 -1.258,0.289 -1.125,0.504 -0.949,0.652 -0.738,0.719 -0.504,0.723 -0.262,0.664 -0.004,0.566 0.25,0.438 0.489,0.281 0.707,0.117 0.879,-0.07 0.992,-0.274 1.043,-0.484 1.008,-0.715 0.886,-0.937 0.684,-1.145 0.406,-1.305 0.078,-1.402 -0.281,-1.402 -0.629,-1.313 -0.941,-1.117 -1.18,-0.848 -1.328,-0.515 -1.383,-0.164 -1.348,0.172 -1.238,0.464 -1.074,0.692 -0.879,0.844 -0.664,0.906 -0.438,0.89 -0.218,0.813 v 0.672 l 0.214,0.492 0.415,0.293 0.593,0.07 0.742,-0.152 0.84,-0.379 0.875,-0.605 0.84,-0.825 0.719,-1.023 0.516,-1.195 0.246,-1.321 -0.075,-1.375 -0.421,-1.343 -0.762,-1.223 -1.051,-1.008 -1.273,-0.719 -1.395,-0.375 -1.418,-0.015 -1.344,0.328"
         style="fill:none;stroke:#000000;stroke-width:0.9216;stroke-linecap:square;stroke-linejoin:miter;stroke-miterlimit:3.25;stroke-dasharray:none;stroke-opacity:1"
         id="path136" />
      <text
         xml:space="preserve"
         transform="translate(303.98957,77.168926)"
         style="font-variant:normal;font-size:21.12px;font-family:CairoFont-0;-inkscape-font-specification:CairoFont-0-0;writing-mode:lr-tb;fill:#000000;fill-opacity:1;fill-rule:nonzero;stroke:none"
         id="text140"><tspan
           x="0"
           y="0"
           id="tspan138">g</tspan></text>
      <path
         d="m 288.543,71.215 c 0,0.976 -0.387,1.914 -1.078,2.605 -0.692,0.692 -1.629,1.082 -2.606,1.082 -0.98,0 -1.918,-0.39 -2.609,-1.082 -0.691,-0.691 -1.078,-1.629 -1.078,-2.605 0,-0.977 0.387,-1.914 1.078,-2.606 0.691,-0.691 1.629,-1.082 2.609,-1.082 0.977,0 1.914,0.391 2.606,1.082 0.691,0.692 1.078,1.629 1.078,2.606 z"
         style="fill:#000000;fill-opacity:1;fill-rule:evenodd;stroke:none"
         id="path142" />
      <path
         d="m 255.031,71.215 c 0,0.976 -0.386,1.914 -1.078,2.605 -0.691,0.692 -1.629,1.082 -2.609,1.082 -0.977,0 -1.914,-0.39 -2.606,-1.082 -0.691,-0.691 -1.078,-1.629 -1.078,-2.605 0,-0.977 0.387,-1.914 1.078,-2.606 0.692,-0.691 1.629,-1.082 2.606,-1.082 0.98,0 1.918,0.391 2.609,1.082 0.692,0.692 1.078,1.629 1.078,2.606 z"
         style="fill:#000000;fill-opacity:1;fill-rule:evenodd;stroke:none"
         id="path144" />
      <path
         d="m 238.277,100.539 c 0,0.977 -0.39,1.914 -1.082,2.606 -0.691,0.691 -1.629,1.078 -2.605,1.078 -0.977,0 -1.918,-0.387 -2.61,-1.078 -0.687,-0.692 -1.078,-1.629 -1.078,-2.606 0,-0.98 0.391,-1.918 1.078,-2.609 0.692,-0.692 1.633,-1.078 2.61,-1.078 0.976,0 1.914,0.386 2.605,1.078 0.692,0.691 1.082,1.629 1.082,2.609 z"
         style="fill:#000000;fill-opacity:1;fill-rule:evenodd;stroke:none"
         id="path146" />
      <path
         d="m 305.301,100.539 c 0,0.977 -0.387,1.914 -1.078,2.606 -0.692,0.691 -1.629,1.078 -2.61,1.078 -0.976,0 -1.914,-0.387 -2.605,-1.078 -0.692,-0.692 -1.078,-1.629 -1.078,-2.606 0,-0.98 0.386,-1.918 1.078,-2.609 0.691,-0.692 1.629,-1.078 2.605,-1.078 0.981,0 1.918,0.386 2.61,1.078 0.691,0.691 1.078,1.629 1.078,2.609 z"
         style="fill:#000000;fill-opacity:1;fill-rule:evenodd;stroke:none"
         id="path148" />
      <path
         d="m 418.91,100.539 -0.996,0.836 -1.141,0.648 -1.238,0.426 -1.297,0.18 -1.304,-0.074 -1.27,-0.325 -1.184,-0.558 -1.062,-0.762 -0.898,-0.93 -0.715,-1.05 -0.504,-1.118 -0.297,-1.124 -0.082,-1.083 0.109,-0.976 0.281,-0.832 0.418,-0.637 0.52,-0.41 0.574,-0.168 0.582,0.09 0.543,0.336 0.457,0.57 0.328,0.77 0.164,0.937 -0.019,1.055 -0.231,1.121 -0.437,1.125 -0.649,1.074 -0.843,0.973 -1.016,0.82 -1.148,0.625 -1.25,0.402 -1.297,0.153 -1.305,-0.102 -1.262,-0.347 -1.175,-0.582 -1.043,-0.782 -0.883,-0.945 -0.692,-1.059 -0.484,-1.121 -0.273,-1.125 -0.063,-1.07 0.129,-0.969 0.297,-0.808 0.434,-0.614 0.527,-0.386 0.578,-0.141 0.578,0.113 0.535,0.364 0.446,0.589 0.312,0.793 0.148,0.95 -0.042,1.066 -0.25,1.121 -0.465,1.125 -0.668,1.067 -0.864,0.96 -1.027,0.801 -1.164,0.602 -1.254,0.375 -1.305,0.125 -1.3,-0.125 -1.254,-0.375 -1.164,-0.602 -1.028,-0.801 -0.863,-0.96 -0.672,-1.067 -0.461,-1.125 -0.25,-1.121 -0.043,-1.066 0.149,-0.95 0.312,-0.793 0.446,-0.589 0.535,-0.364 0.578,-0.113 0.578,0.141 0.527,0.386 0.43,0.614 0.301,0.808 0.129,0.969 -0.067,1.07 -0.269,1.125 -0.485,1.121 -0.691,1.059 -0.883,0.945 -1.047,0.782 -1.172,0.582 -1.261,0.347 -1.305,0.102 -1.301,-0.153 -1.246,-0.402 -1.152,-0.625 -1.012,-0.82 -0.844,-0.973 -0.648,-1.074 -0.442,-1.125 -0.226,-1.121 -0.024,-1.055 0.168,-0.937 0.329,-0.77 0.457,-0.57 0.539,-0.336 0.582,-0.09 0.574,0.168 0.519,0.41 0.422,0.637 0.282,0.832 0.109,0.976 -0.086,1.083 -0.293,1.124 -0.508,1.118 -0.711,1.05 -0.902,0.93 -1.059,0.762 -1.183,0.558 -1.27,0.325 -1.308,0.074 -1.297,-0.18 -1.239,-0.426 -1.136,-0.648 -0.996,-0.836"
         style="fill:none;stroke:#000000;stroke-width:0.9216;stroke-linecap:square;stroke-linejoin:miter;stroke-miterlimit:3.25;stroke-dasharray:none;stroke-opacity:1"
         id="path150" />
      <text
         xml:space="preserve"
         transform="translate(387.49329,128.41036)"
         style="font-variant:normal;font-size:21.12px;font-family:CairoFont-0;-inkscape-font-specification:CairoFont-0-0;writing-mode:lr-tb;fill:#000000;fill-opacity:1;fill-rule:nonzero;stroke:none"
         id="text154"><tspan
           x="0"
           y="0"
           id="tspan152">g</tspan></text>
      <path
         d="m 485.934,100.539 0.996,-0.84 1.14,-0.648 1.239,-0.422 1.296,-0.18 1.305,0.074 1.27,0.325 1.183,0.554 1.063,0.766 0.898,0.93 0.711,1.047 0.508,1.117 0.297,1.129 0.082,1.078 -0.11,0.98 -0.281,0.828 -0.418,0.637 -0.519,0.414 -0.574,0.164 -0.582,-0.086 -0.543,-0.336 -0.457,-0.57 -0.329,-0.773 -0.164,-0.938 0.02,-1.055 0.23,-1.117 0.438,-1.125 0.648,-1.078 0.844,-0.973 1.016,-0.82 1.148,-0.625 1.246,-0.398 1.301,-0.153 1.305,0.098 1.261,0.352 1.176,0.578 1.043,0.785 0.883,0.941 0.691,1.063 0.485,1.117 0.273,1.125 0.063,1.074 -0.129,0.965 -0.297,0.812 -0.434,0.614 -0.527,0.386 -0.578,0.141 -0.578,-0.113 -0.535,-0.363 -0.446,-0.59 -0.312,-0.793 -0.149,-0.953 0.043,-1.063 0.25,-1.121 0.465,-1.125 0.668,-1.066 0.863,-0.961 1.028,-0.801 1.164,-0.606 1.254,-0.371 1.304,-0.129 1.301,0.129 1.254,0.371 1.164,0.606 1.027,0.801 0.864,0.961 0.672,1.066 0.46,1.125 0.25,1.121 0.043,1.063 -0.148,0.953 -0.312,0.793 -0.446,0.59 -0.535,0.363 -0.578,0.113 -0.578,-0.141 -0.528,-0.386 -0.433,-0.614 -0.297,-0.812 -0.129,-0.965 0.067,-1.074 0.269,-1.125 0.484,-1.117 0.692,-1.063 0.883,-0.941 1.046,-0.785 1.172,-0.578 1.262,-0.352 1.305,-0.098 1.301,0.153 1.246,0.398 1.152,0.625 1.012,0.82 0.843,0.973 0.649,1.078 0.441,1.125 0.227,1.117 0.023,1.055 -0.168,0.938 -0.328,0.773 -0.457,0.57 -0.539,0.336 -0.582,0.086 -0.574,-0.164 -0.52,-0.414 -0.422,-0.637 -0.281,-0.828 -0.109,-0.98 0.086,-1.078 0.293,-1.129 0.508,-1.117 0.71,-1.047 0.903,-0.93 1.058,-0.766 1.184,-0.554 1.27,-0.325 1.308,-0.074 1.293,0.18 1.242,0.422 1.137,0.648 0.996,0.84"
         style="fill:none;stroke:#000000;stroke-width:0.9216;stroke-linecap:square;stroke-linejoin:miter;stroke-miterlimit:3.25;stroke-dasharray:none;stroke-opacity:1"
         id="path156" />
      <text
         xml:space="preserve"
         transform="translate(504.78784,134.27509)"
         style="font-variant:normal;font-size:21.12px;font-family:CairoFont-0;-inkscape-font-specification:CairoFont-0-0;writing-mode:lr-tb;fill:#000000;fill-opacity:1;fill-rule:nonzero;stroke:none"
         id="text160"><tspan
           x="0"
           y="0"
           id="tspan158">g</tspan></text>
      <path
         d="m 485.934,100.539 0.765,0.996 0.567,1.156 0.336,1.274 0.074,1.336 -0.192,1.328 -0.449,1.262 -0.683,1.129 -0.872,0.953 -1.019,0.742 -1.109,0.512 -1.149,0.285 -1.133,0.078 -1.074,-0.11 -0.976,-0.253 -0.844,-0.36 -0.688,-0.426 -0.511,-0.453 -0.317,-0.445 -0.117,-0.414 0.082,-0.359 0.281,-0.286 0.465,-0.195 0.629,-0.082 0.766,0.039 0.859,0.184 0.918,0.34 0.922,0.515 0.875,0.695 0.777,0.872 0.621,1.035 0.426,1.172 0.191,1.265 -0.066,1.313 -0.332,1.289 -0.586,1.211 -0.809,1.066 -0.996,0.875 -1.128,0.649 -1.2,0.402 -1.222,0.152 -1.192,-0.078 -1.113,-0.281 -1,-0.442 -0.863,-0.558 -0.703,-0.621 -0.54,-0.637 -0.363,-0.613 -0.187,-0.551 -0.008,-0.457 0.164,-0.34 0.328,-0.203 0.473,-0.055 0.593,0.102 0.688,0.265 0.738,0.43 0.746,0.598 0.703,0.765 0.614,0.918 0.465,1.059 0.277,1.168 0.047,1.234 -0.199,1.258 -0.457,1.223 -0.704,1.129 -0.921,0.972 -1.098,0.778 -1.219,0.535 -1.273,0.277 -1.278,0.02 -1.218,-0.227 -1.118,-0.441 -0.984,-0.613 -0.824,-0.743 -0.656,-0.808 -0.485,-0.832 -0.324,-0.801 -0.164,-0.723 -0.016,-0.613 0.121,-0.469 0.246,-0.301 0.352,-0.121 0.445,0.067 0.512,0.258 0.547,0.441 0.551,0.621 0.508,0.785 0.421,0.93 0.293,1.051 0.118,1.136 -0.094,1.188 -0.324,1.184 -0.571,1.132 -0.8,1.02 -1.008,0.859 -1.172,0.653 -1.278,0.406 -1.328,0.14 -1.308,-0.117 -1.227,-0.371 -1.101,-0.59 -0.938,-0.765 -0.754,-0.895 -0.562,-0.969 -0.375,-0.992 -0.207,-0.961 -0.055,-0.886 0.07,-0.77 0.176,-0.617 0.258,-0.442 0.324,-0.246 0.363,-0.043 0.391,0.168 0.395,0.375 0.371,0.563 0.316,0.734 0.231,0.883 0.109,0.996 -0.051,1.074 -0.234,1.11 -0.449,1.09 -0.665,1.023 -0.874,0.902 -1.067,0.727 -1.215,0.512 -1.312,0.265 h -1.344 l -1.312,-0.265 -1.215,-0.512 -1.067,-0.727 -0.875,-0.902 -0.664,-1.023 -0.449,-1.09 -0.238,-1.11 -0.047,-1.074 0.109,-0.996 0.231,-0.883 0.316,-0.734 0.371,-0.563 0.395,-0.375 0.39,-0.168 0.364,0.043 0.324,0.246 0.258,0.442 0.175,0.617 0.071,0.77 -0.055,0.886 -0.207,0.961 -0.375,0.992 -0.562,0.969 -0.754,0.895 -0.938,0.765 -1.101,0.59 -1.227,0.371 -1.309,0.117 -1.328,-0.14 -1.277,-0.406 -1.172,-0.653 -1.008,-0.859 -0.801,-1.02 -0.57,-1.132 -0.324,-1.184 -0.094,-1.188 0.117,-1.136 0.293,-1.051 0.422,-0.93 0.508,-0.785 0.551,-0.621 0.547,-0.441 0.511,-0.258 0.446,-0.067 0.351,0.121 0.246,0.301 0.121,0.469 -0.019,0.613 -0.16,0.723 -0.324,0.801 -0.485,0.832 -0.656,0.808 -0.824,0.743 -0.985,0.613 -1.117,0.441 -1.219,0.227 -1.277,-0.02 -1.273,-0.277 -1.219,-0.535 -1.098,-0.778 -0.922,-0.972 -0.703,-1.129 -0.457,-1.223 -0.199,-1.258 0.047,-1.234 0.277,-1.168 0.465,-1.059 0.613,-0.918 0.703,-0.765 0.746,-0.598 0.739,-0.43 0.687,-0.265 0.594,-0.102 0.473,0.055 0.328,0.203 0.164,0.34 -0.008,0.457 -0.187,0.551 -0.364,0.613 -0.539,0.637 -0.703,0.621 -0.863,0.558 -1.004,0.442 -1.109,0.281 -1.192,0.078 -1.223,-0.152 -1.203,-0.402 -1.125,-0.649 -0.996,-0.875 -0.808,-1.066 -0.586,-1.211 -0.332,-1.289 -0.067,-1.313 0.192,-1.265 0.425,-1.172 0.622,-1.035 0.777,-0.872 0.875,-0.695 0.922,-0.515 0.918,-0.34 0.859,-0.184 0.766,-0.039 0.629,0.082 0.465,0.195 0.281,0.286 0.082,0.359 -0.117,0.414 -0.317,0.445 -0.512,0.453 -0.687,0.426 -0.844,0.36 -0.976,0.253 -1.075,0.11 -1.132,-0.078 -1.149,-0.285 -1.109,-0.512 -1.02,-0.742 -0.871,-0.953 -0.683,-1.129 -0.45,-1.262 -0.191,-1.328 0.074,-1.336 0.336,-1.274 0.567,-1.156 0.765,-0.996"
         style="fill:none;stroke:#000000;stroke-width:0.9216;stroke-linecap:square;stroke-linejoin:miter;stroke-miterlimit:3.25;stroke-dasharray:none;stroke-opacity:1"
         id="path162" />
      <text
         xml:space="preserve"
         transform="translate(446.14057,161.92309)"
         style="font-variant:normal;font-size:21.12px;font-family:CairoFont-0;-inkscape-font-specification:CairoFont-0-0;writing-mode:lr-tb;fill:#000000;fill-opacity:1;fill-rule:nonzero;stroke:none"
         id="text166"><tspan
           x="0"
           y="0"
           id="tspan164">g</tspan></text>
      <path
         d="m 418.91,100.539 -0.976,-0.984 -0.719,-1.223 -0.399,-1.391 -0.039,-1.464 0.321,-1.422 0.66,-1.282 0.937,-1.054 1.141,-0.774 1.262,-0.465 1.293,-0.164 1.246,0.09 1.136,0.297 0.969,0.445 0.758,0.524 0.512,0.555 0.242,0.546 -0.035,0.5 -0.317,0.434 -0.574,0.344 -0.808,0.226 -0.993,0.078 -1.117,-0.105 -1.172,-0.32 -1.144,-0.571 -1.035,-0.824 -0.84,-1.07 -0.567,-1.274 -0.234,-1.41 0.125,-1.445 0.484,-1.383 0.809,-1.211 1.066,-0.957 1.246,-0.648 1.332,-0.313 1.332,0.008 1.258,0.289 1.129,0.508 0.946,0.648 0.738,0.719 0.508,0.723 0.261,0.66 0.004,0.566 -0.246,0.43 -0.488,0.281 -0.703,0.114 -0.879,-0.071 -0.992,-0.273 -1.043,-0.485 -1.008,-0.714 -0.887,-0.938 -0.687,-1.144 -0.407,-1.305 -0.074,-1.402 0.285,-1.407 0.633,-1.312 0.945,-1.117 1.184,-0.844 1.332,-0.508 1.387,-0.16 1.347,0.176 1.235,0.472 1.07,0.7 0.875,0.847 0.656,0.91 0.438,0.895 0.215,0.808 -0.004,0.672 -0.215,0.492 -0.414,0.286 -0.594,0.066 -0.738,-0.16 -0.836,-0.383 -0.871,-0.613 -0.836,-0.828 -0.711,-1.028 -0.512,-1.199 -0.242,-1.32 0.086,-1.375 0.434,-1.344 0.769,-1.219 1.063,-1 1.281,-0.707 1.398,-0.363 1.422,-0.004 1.34,0.344"
         style="fill:none;stroke:#000000;stroke-width:0.9216;stroke-linecap:square;stroke-linejoin:miter;stroke-miterlimit:3.25;stroke-dasharray:none;stroke-opacity:1"
         id="path168" />
      <text
         xml:space="preserve"
         transform="translate(403.8836,77.118657)"
         style="font-variant:normal;font-size:21.12px;font-family:CairoFont-0;-inkscape-font-specification:CairoFont-0-0;writing-mode:lr-tb;fill:#000000;fill-opacity:1;fill-rule:nonzero;stroke:none"
         id="text172"><tspan
           x="0"
           y="0"
           id="tspan170">g</tspan></text>
      <path
         d="m 469.18,71.215 c -1.153,-5.113 -4.571,-9.418 -9.289,-11.695 -4.719,-2.282 -10.219,-2.282 -14.938,0 -4.719,2.277 -8.137,6.582 -9.289,11.695"
         style="fill:none;stroke:#000000;stroke-width:0.9216;stroke-linecap:butt;stroke-linejoin:miter;stroke-miterlimit:3.25;stroke-dasharray:0.9216, 5.5296;stroke-dashoffset:0;stroke-opacity:1"
         id="path174" />
      <path
         d="M 457.449,57.809 447.395,54.457 V 61.16 Z"
         style="fill:#000000;fill-opacity:1;fill-rule:evenodd;stroke:none"
         id="path176" />
      <text
         xml:space="preserve"
         transform="translate(441.9176,41.654069)"
         style="font-variant:normal;font-size:21.12px;font-family:CairoFont-0;-inkscape-font-specification:CairoFont-0-0;writing-mode:lr-tb;fill:#000000;fill-opacity:1;fill-rule:nonzero;stroke:none"
         id="text180"><tspan
           x="0"
           y="0"
           id="tspan178">u</tspan></text>
      <text
         xml:space="preserve"
         transform="translate(453.58947,45.573991)"
         style="font-variant:normal;font-size:14.88px;font-family:CairoFont-0;-inkscape-font-specification:CairoFont-0-0;writing-mode:lr-tb;fill:#000000;fill-opacity:1;fill-rule:nonzero;stroke:none"
         id="text184"><tspan
           x="0"
           y="0"
           id="tspan182">g</tspan></text>
      <path
         d="m 435.664,71.215 c 1.152,5.109 4.57,9.418 9.289,11.695 4.719,2.278 10.219,2.278 14.938,0 4.718,-2.277 8.136,-6.586 9.289,-11.695"
         style="fill:none;stroke:#000000;stroke-width:0.9216;stroke-linecap:butt;stroke-linejoin:miter;stroke-miterlimit:3.25;stroke-dasharray:0.9216, 5.5296;stroke-dashoffset:0;stroke-opacity:1"
         id="path186" />
      <path
         d="m 447.395,84.621 10.054,3.352 V 81.27 Z"
         style="fill:#000000;fill-opacity:1;fill-rule:evenodd;stroke:none"
         id="path188" />
      <text
         xml:space="preserve"
         transform="translate(441.9176,104.51916)"
         style="font-variant:normal;font-size:21.12px;font-family:CairoFont-0;-inkscape-font-specification:CairoFont-0-0;writing-mode:lr-tb;fill:#000000;fill-opacity:1;fill-rule:nonzero;stroke:none"
         id="text192"><tspan
           x="0"
           y="0"
           id="tspan190">u</tspan></text>
      <text
         xml:space="preserve"
         transform="translate(453.58947,108.43908)"
         style="font-variant:normal;font-size:14.88px;font-family:CairoFont-0;-inkscape-font-specification:CairoFont-0-0;writing-mode:lr-tb;fill:#000000;fill-opacity:1;fill-rule:nonzero;stroke:none"
         id="text196"><tspan
           x="0"
           y="0"
           id="tspan194">g</tspan></text>
      <path
         d="m 485.934,100.539 0.964,-0.992 0.707,-1.231 0.387,-1.39 0.028,-1.461 -0.332,-1.418 -0.668,-1.277 -0.946,-1.047 -1.144,-0.762 -1.262,-0.457 -1.297,-0.16 -1.246,0.097 -1.133,0.305 -0.969,0.445 -0.753,0.532 -0.508,0.558 -0.239,0.551 0.039,0.504 0.317,0.437 0.578,0.34 0.813,0.227 0.992,0.07 1.117,-0.109 1.168,-0.328 1.144,-0.575 1.028,-0.832 0.832,-1.074 0.562,-1.277 0.231,-1.406 -0.133,-1.446 -0.484,-1.375 -0.809,-1.211 -1.07,-0.953 -1.243,-0.644 -1.332,-0.313 -1.335,0.008 -1.258,0.289 -1.125,0.504 -0.95,0.652 -0.738,0.719 -0.508,0.723 -0.257,0.664 -0.004,0.566 0.25,0.438 0.488,0.281 0.707,0.117 0.879,-0.07 0.992,-0.274 1.043,-0.484 1.008,-0.715 0.887,-0.937 0.683,-1.145 0.406,-1.305 0.079,-1.402 -0.282,-1.402 -0.629,-1.313 -0.941,-1.117 -1.18,-0.848 -1.328,-0.515 -1.383,-0.164 -1.347,0.172 -1.239,0.464 -1.074,0.692 -0.879,0.844 -0.664,0.906 -0.437,0.89 -0.219,0.813 v 0.672 l 0.215,0.492 0.414,0.293 0.594,0.07 0.742,-0.152 0.84,-0.379 0.875,-0.605 0.84,-0.825 0.714,-1.023 0.52,-1.195 0.246,-1.321 -0.074,-1.375 -0.422,-1.343 -0.762,-1.223 -1.051,-1.008 -1.273,-0.719 -1.395,-0.375 -1.418,-0.015 -1.343,0.328"
         style="fill:none;stroke:#000000;stroke-width:0.9216;stroke-linecap:square;stroke-linejoin:miter;stroke-miterlimit:3.25;stroke-dasharray:none;stroke-opacity:1"
         id="path198" />
      <text
         xml:space="preserve"
         transform="translate(488.30957,77.168926)"
         style="font-variant:normal;font-size:21.12px;font-family:CairoFont-0;-inkscape-font-specification:CairoFont-0-0;writing-mode:lr-tb;fill:#000000;fill-opacity:1;fill-rule:nonzero;stroke:none"
         id="text202"><tspan
           x="0"
           y="0"
           id="tspan200">g</tspan></text>
      <path
         d="m 472.863,71.215 c 0,0.976 -0.386,1.914 -1.078,2.605 -0.691,0.692 -1.629,1.082 -2.605,1.082 -0.981,0 -1.918,-0.39 -2.61,-1.082 -0.691,-0.691 -1.078,-1.629 -1.078,-2.605 0,-0.977 0.387,-1.914 1.078,-2.606 0.692,-0.691 1.629,-1.082 2.61,-1.082 0.976,0 1.914,0.391 2.605,1.082 0.692,0.692 1.078,1.629 1.078,2.606 z"
         style="fill:#000000;fill-opacity:1;fill-rule:evenodd;stroke:none"
         id="path204" />
      <path
         d="m 439.352,71.215 c 0,0.976 -0.387,1.914 -1.079,2.605 -0.691,0.692 -1.628,1.082 -2.609,1.082 -0.976,0 -1.914,-0.39 -2.605,-1.082 -0.692,-0.691 -1.079,-1.629 -1.079,-2.605 0,-0.977 0.387,-1.914 1.079,-2.606 0.691,-0.691 1.629,-1.082 2.605,-1.082 0.981,0 1.918,0.391 2.609,1.082 0.692,0.692 1.079,1.629 1.079,2.606 z"
         style="fill:#000000;fill-opacity:1;fill-rule:evenodd;stroke:none"
         id="path206" />
      <path
         d="m 422.594,100.539 c 0,0.977 -0.387,1.914 -1.078,2.606 -0.692,0.691 -1.629,1.078 -2.606,1.078 -0.98,0 -1.918,-0.387 -2.609,-1.078 -0.692,-0.692 -1.078,-1.629 -1.078,-2.606 0,-0.98 0.386,-1.918 1.078,-2.609 0.691,-0.692 1.629,-1.078 2.609,-1.078 0.977,0 1.914,0.386 2.606,1.078 0.691,0.691 1.078,1.629 1.078,2.609 z"
         style="fill:#000000;fill-opacity:1;fill-rule:evenodd;stroke:none"
         id="path208" />
      <path
         d="m 489.621,100.539 c 0,0.977 -0.387,1.914 -1.078,2.606 -0.691,0.691 -1.629,1.078 -2.609,1.078 -0.977,0 -1.914,-0.387 -2.606,-1.078 -0.691,-0.692 -1.078,-1.629 -1.078,-2.606 0,-0.98 0.387,-1.918 1.078,-2.609 0.692,-0.692 1.629,-1.078 2.606,-1.078 0.98,0 1.918,0.386 2.609,1.078 0.691,0.691 1.078,1.629 1.078,2.609 z"
         style="fill:#000000;fill-opacity:1;fill-rule:evenodd;stroke:none"
         id="path210" />
      <path
         d="m 603.23,100.539 -1,0.836 -1.136,0.648 -1.239,0.426 -1.296,0.18 -1.305,-0.074 -1.27,-0.325 -1.187,-0.558 -1.059,-0.762 -0.898,-0.93 -0.715,-1.05 -0.504,-1.118 -0.297,-1.124 -0.086,-1.083 0.114,-0.976 0.281,-0.832 0.418,-0.637 0.519,-0.41 0.575,-0.168 0.582,0.09 0.543,0.336 0.453,0.57 0.332,0.77 0.164,0.937 -0.02,1.055 -0.23,1.121 -0.438,1.125 -0.652,1.074 -0.84,0.973 -1.016,0.82 -1.148,0.625 -1.25,0.402 -1.297,0.153 -1.305,-0.102 -1.261,-0.347 -1.176,-0.582 -1.043,-0.782 -0.883,-0.945 -0.691,-1.059 -0.485,-1.121 -0.273,-1.125 -0.063,-1.07 0.129,-0.969 0.297,-0.808 0.434,-0.614 0.527,-0.386 0.578,-0.141 0.578,0.113 0.536,0.364 0.445,0.589 0.312,0.793 0.149,0.95 -0.043,1.066 -0.25,1.121 -0.465,1.125 -0.668,1.067 -0.863,0.96 -1.032,0.801 -1.16,0.602 -1.254,0.375 -1.304,0.125 -1.301,-0.125 -1.254,-0.375 -1.164,-0.602 -1.031,-0.801 -0.86,-0.96 -0.672,-1.067 -0.46,-1.125 -0.25,-1.121 -0.043,-1.066 0.148,-0.95 0.313,-0.793 0.445,-0.589 0.531,-0.364 0.582,-0.113 0.578,0.141 0.528,0.386 0.429,0.614 0.301,0.808 0.129,0.969 -0.066,1.07 -0.27,1.125 -0.488,1.121 -0.692,1.059 -0.879,0.945 -1.046,0.782 -1.172,0.582 -1.262,0.347 -1.305,0.102 -1.301,-0.153 -1.246,-0.402 -1.152,-0.625 -1.012,-0.82 -0.843,-0.973 -0.649,-1.074 -0.441,-1.125 -0.227,-1.121 -0.023,-1.055 0.168,-0.937 0.328,-0.77 0.457,-0.57 0.539,-0.336 0.582,-0.09 0.574,0.168 0.52,0.41 0.422,0.637 0.281,0.832 0.109,0.976 -0.086,1.083 -0.293,1.124 -0.508,1.118 -0.71,1.05 -0.903,0.93 -1.058,0.762 -1.184,0.558 -1.269,0.325 -1.309,0.074 -1.297,-0.18 -1.238,-0.426 -1.137,-0.648 -0.996,-0.836"
         style="fill:none;stroke:#000000;stroke-width:0.9216;stroke-linecap:square;stroke-linejoin:miter;stroke-miterlimit:3.25;stroke-dasharray:none;stroke-opacity:1"
         id="path212" />
      <text
         xml:space="preserve"
         transform="translate(571.81329,128.41036)"
         style="font-variant:normal;font-size:21.12px;font-family:CairoFont-0;-inkscape-font-specification:CairoFont-0-0;writing-mode:lr-tb;fill:#000000;fill-opacity:1;fill-rule:nonzero;stroke:none"
         id="text216"><tspan
           x="0"
           y="0"
           id="tspan214">g</tspan></text>
      <path
         d="m 670.254,100.539 0.996,-0.84 1.141,-0.648 1.238,-0.422 1.297,-0.18 1.304,0.074 1.27,0.325 1.184,0.554 1.062,0.766 0.899,0.93 0.71,1.047 0.508,1.117 0.297,1.129 0.082,1.078 -0.109,0.98 -0.281,0.828 -0.418,0.637 -0.52,0.414 -0.574,0.164 -0.582,-0.086 -0.543,-0.336 -0.457,-0.57 -0.328,-0.773 -0.168,-0.938 0.023,-1.055 0.227,-1.117 0.441,-1.125 0.649,-1.078 0.843,-0.973 1.016,-0.82 1.148,-0.625 1.246,-0.398 1.301,-0.153 1.305,0.098 1.262,0.352 1.175,0.578 1.043,0.785 0.883,0.941 0.692,1.063 0.484,1.117 0.273,1.125 0.063,1.074 -0.129,0.965 -0.297,0.812 -0.433,0.614 -0.528,0.386 -0.578,0.141 -0.578,-0.113 -0.535,-0.363 -0.446,-0.59 -0.312,-0.793 -0.148,-0.953 0.043,-1.063 0.25,-1.121 0.46,-1.125 0.672,-1.066 0.864,-0.961 1.027,-0.801 1.164,-0.606 1.254,-0.371 1.305,-0.129 1.3,0.129 1.254,0.371 1.164,0.606 1.028,0.801 0.863,0.961 0.672,1.066 0.461,1.125 0.25,1.121 0.043,1.063 -0.149,0.953 -0.312,0.793 -0.445,0.59 -0.536,0.363 -0.578,0.113 -0.578,-0.141 -0.527,-0.386 -0.434,-0.614 -0.297,-0.812 -0.129,-0.965 0.067,-1.074 0.269,-1.125 0.485,-1.117 0.691,-1.063 0.883,-0.941 1.043,-0.785 1.176,-0.578 1.261,-0.352 1.305,-0.098 1.301,0.153 1.246,0.398 1.152,0.625 1.012,0.82 0.844,0.973 0.648,1.078 0.442,1.125 0.226,1.117 0.024,1.055 -0.168,0.938 -0.328,0.773 -0.458,0.57 -0.539,0.336 -0.582,0.086 -0.574,-0.164 -0.519,-0.414 -0.422,-0.637 -0.281,-0.828 -0.11,-0.98 0.086,-1.078 0.293,-1.129 0.508,-1.117 0.711,-1.047 0.898,-0.93 1.063,-0.766 1.183,-0.554 1.27,-0.325 1.308,-0.074 1.293,0.18 1.243,0.422 1.136,0.648 0.996,0.84"
         style="fill:none;stroke:#000000;stroke-width:0.9216;stroke-linecap:square;stroke-linejoin:miter;stroke-miterlimit:3.25;stroke-dasharray:none;stroke-opacity:1"
         id="path218" />
      <text
         xml:space="preserve"
         transform="translate(689.10784,134.27509)"
         style="font-variant:normal;font-size:21.12px;font-family:CairoFont-0;-inkscape-font-specification:CairoFont-0-0;writing-mode:lr-tb;fill:#000000;fill-opacity:1;fill-rule:nonzero;stroke:none"
         id="text222"><tspan
           x="0"
           y="0"
           id="tspan220">g</tspan></text>
      <path
         d="m 670.254,100.539 0.766,0.996 0.566,1.156 0.336,1.274 0.074,1.336 -0.191,1.328 -0.45,1.262 -0.683,1.129 -0.871,0.953 -1.02,0.742 -1.109,0.512 -1.149,0.285 -1.132,0.078 -1.075,-0.11 -0.976,-0.253 -0.844,-0.36 -0.687,-0.426 -0.512,-0.453 -0.317,-0.445 -0.117,-0.414 0.082,-0.359 0.282,-0.286 0.464,-0.195 0.629,-0.082 0.766,0.039 0.859,0.184 0.918,0.34 0.922,0.515 0.875,0.695 0.778,0.872 0.621,1.035 0.425,1.172 0.192,1.265 -0.067,1.313 -0.332,1.289 -0.586,1.211 -0.808,1.066 -0.996,0.875 -1.129,0.649 -1.199,0.402 -1.223,0.152 -1.191,-0.078 -1.114,-0.281 -1,-0.442 -0.863,-0.558 -0.703,-0.621 -0.539,-0.637 -0.364,-0.613 -0.187,-0.551 -0.008,-0.457 0.164,-0.34 0.328,-0.203 0.473,-0.055 0.594,0.102 0.687,0.265 0.739,0.43 0.746,0.598 0.703,0.765 0.613,0.918 0.465,1.059 0.273,1.168 0.051,1.234 -0.199,1.258 -0.457,1.223 -0.703,1.129 -0.922,0.972 -1.098,0.778 -1.219,0.535 -1.277,0.277 -1.273,0.02 -1.219,-0.227 -1.117,-0.441 -0.985,-0.613 -0.824,-0.743 -0.656,-0.808 -0.484,-0.832 -0.325,-0.801 -0.164,-0.723 -0.015,-0.613 0.121,-0.469 0.242,-0.301 0.355,-0.121 0.446,0.067 0.511,0.258 0.547,0.441 0.551,0.621 0.508,0.785 0.422,0.93 0.293,1.051 0.117,1.136 -0.094,1.188 -0.324,1.184 -0.57,1.132 -0.801,1.02 -1.008,0.859 -1.172,0.653 -1.277,0.406 -1.328,0.14 -1.309,-0.117 -1.226,-0.371 -1.102,-0.59 -0.938,-0.765 -0.753,-0.895 -0.563,-0.969 -0.375,-0.992 -0.207,-0.961 -0.055,-0.886 0.071,-0.77 0.175,-0.617 0.258,-0.442 0.321,-0.246 0.367,-0.043 0.39,0.168 0.395,0.375 0.371,0.563 0.316,0.734 0.231,0.883 0.109,0.996 -0.051,1.074 -0.234,1.11 -0.449,1.09 -0.664,1.023 -0.875,0.902 -1.067,0.727 -1.218,0.512 -1.309,0.265 h -1.344 l -1.312,-0.265 -1.215,-0.512 -1.066,-0.727 -0.875,-0.902 -0.668,-1.023 -0.446,-1.09 -0.238,-1.11 -0.047,-1.074 0.109,-0.996 0.231,-0.883 0.316,-0.734 0.371,-0.563 0.395,-0.375 0.391,-0.168 0.363,0.043 0.324,0.246 0.258,0.442 0.176,0.617 0.07,0.77 -0.059,0.886 -0.203,0.961 -0.379,0.992 -0.558,0.969 -0.754,0.895 -0.938,0.765 -1.101,0.59 -1.231,0.371 -1.304,0.117 -1.328,-0.14 -1.282,-0.406 -1.172,-0.653 -1.007,-0.859 -0.801,-1.02 -0.567,-1.132 -0.324,-1.184 -0.094,-1.188 0.118,-1.136 0.293,-1.051 0.422,-0.93 0.507,-0.785 0.551,-0.621 0.547,-0.441 0.512,-0.258 0.445,-0.067 0.352,0.121 0.246,0.301 0.121,0.469 -0.02,0.613 -0.164,0.723 -0.32,0.801 -0.485,0.832 -0.656,0.808 -0.824,0.743 -0.984,0.613 -1.118,0.441 -1.218,0.227 -1.278,-0.02 -1.273,-0.277 -1.219,-0.535 -1.098,-0.778 -0.921,-0.972 -0.703,-1.129 -0.458,-1.223 -0.199,-1.258 0.047,-1.234 0.277,-1.168 0.465,-1.059 0.614,-0.918 0.703,-0.765 0.746,-0.598 0.738,-0.43 0.688,-0.265 0.593,-0.102 0.473,0.055 0.328,0.203 0.164,0.34 -0.008,0.457 -0.187,0.551 -0.363,0.613 -0.539,0.637 -0.708,0.621 -0.859,0.558 -1.004,0.442 -1.109,0.281 -1.192,0.078 -1.222,-0.152 -1.203,-0.402 -1.125,-0.649 -0.996,-0.875 -0.809,-1.066 -0.586,-1.211 -0.332,-1.289 -0.066,-1.313 0.191,-1.265 0.426,-1.172 0.621,-1.035 0.777,-0.872 0.875,-0.695 0.922,-0.515 0.914,-0.34 0.863,-0.184 0.766,-0.039 0.629,0.082 0.465,0.195 0.281,0.286 0.082,0.359 -0.117,0.414 -0.32,0.445 -0.508,0.453 -0.688,0.426 -0.843,0.36 -0.977,0.253 -1.074,0.11 -1.133,-0.078 -1.149,-0.285 -1.109,-0.512 -1.019,-0.742 -0.875,-0.953 -0.68,-1.129 -0.449,-1.262 -0.192,-1.328 0.074,-1.336 0.336,-1.274 0.567,-1.156 0.765,-0.996"
         style="fill:none;stroke:#000000;stroke-width:0.9216;stroke-linecap:square;stroke-linejoin:miter;stroke-miterlimit:3.25;stroke-dasharray:none;stroke-opacity:1"
         id="path224" />
    </g>
    <g
       id="g226">
      <g
         id="g228"
         clip-path="url(#clipPath232)">
        <text
           xml:space="preserve"
           transform="translate(630.46057,161.92309)"
           style="font-variant:normal;font-size:21.12px;font-family:CairoFont-0;-inkscape-font-specification:CairoFont-0-0;writing-mode:lr-tb;fill:#000000;fill-opacity:1;fill-rule:nonzero;stroke:none"
           id="text236"><tspan
             x="0"
             y="0"
             id="tspan234">g</tspan></text>
      </g>
    </g>
    <g
       id="g238">
      <path
         d="m 603.23,100.539 -0.976,-0.984 -0.719,-1.223 -0.398,-1.391 -0.039,-1.464 0.32,-1.422 0.66,-1.282 0.938,-1.054 1.14,-0.774 1.262,-0.465 1.293,-0.164 1.246,0.09 1.137,0.297 0.968,0.445 0.758,0.524 0.512,0.555 0.242,0.546 -0.035,0.5 -0.316,0.434 -0.575,0.344 -0.808,0.226 -0.992,0.078 -1.118,-0.105 -1.171,-0.32 -1.145,-0.571 -1.035,-0.824 -0.84,-1.07 -0.566,-1.274 -0.235,-1.41 0.125,-1.445 0.485,-1.383 0.808,-1.211 1.067,-0.957 1.246,-0.648 1.332,-0.313 1.332,0.008 1.258,0.289 1.125,0.508 0.949,0.648 0.738,0.719 0.508,0.723 0.262,0.66 0.004,0.566 -0.247,0.43 -0.488,0.281 -0.703,0.114 -0.879,-0.071 -0.996,-0.273 -1.039,-0.485 -1.008,-0.714 -0.887,-0.938 -0.687,-1.144 -0.406,-1.305 -0.075,-1.402 0.286,-1.407 0.632,-1.312 0.946,-1.117 1.183,-0.844 1.332,-0.508 1.387,-0.16 1.348,0.176 1.234,0.472 1.07,0.7 0.875,0.847 0.657,0.91 0.437,0.895 0.215,0.808 -0.004,0.672 -0.215,0.492 -0.414,0.286 -0.593,0.066 -0.739,-0.16 -0.836,-0.383 -0.871,-0.613 -0.836,-0.828 -0.711,-1.028 -0.511,-1.199 -0.243,-1.32 0.086,-1.375 0.434,-1.344 0.769,-1.219 1.063,-1 1.281,-0.707 1.399,-0.363 1.422,-0.004 1.339,0.344"
         style="fill:none;stroke:#000000;stroke-width:0.9216;stroke-linecap:square;stroke-linejoin:miter;stroke-miterlimit:3.25;stroke-dasharray:none;stroke-opacity:1"
         id="path240" />
      <text
         xml:space="preserve"
         transform="translate(588.2036,77.118657)"
         style="font-variant:normal;font-size:21.12px;font-family:CairoFont-0;-inkscape-font-specification:CairoFont-0-0;writing-mode:lr-tb;fill:#000000;fill-opacity:1;fill-rule:nonzero;stroke:none"
         id="text244"><tspan
           x="0"
           y="0"
           id="tspan242">g</tspan></text>
      <path
         d="m 619.984,71.215 -0.605,-1.277 -0.227,-1.458 0.192,-1.515 0.609,-1.43 0.973,-1.207 1.234,-0.875 1.379,-0.473 1.399,-0.066 1.312,0.309 1.156,0.597 0.965,0.797 0.766,0.895 0.566,0.89 0.371,0.813 0.18,0.668 -0.02,0.488 -0.222,0.289 -0.426,0.09 -0.625,-0.105 -0.785,-0.29 -0.891,-0.48 -0.926,-0.676 -0.867,-0.879 -0.703,-1.082 -0.441,-1.258 -0.094,-1.382 0.308,-1.407 0.719,-1.312 1.082,-1.098 1.356,-0.769 1.496,-0.364 1.488,0.063 1.356,0.457 1.129,0.789 0.851,1.02 0.574,1.148 0.325,1.18 0.121,1.121 -0.028,0.992 -0.136,0.797 -0.219,0.562 -0.297,0.293 -0.371,0.016 -0.446,-0.258 -0.507,-0.512 -0.532,-0.75 -0.503,-0.949 -0.395,-1.121 -0.203,-1.246 0.074,-1.309 0.414,-1.289 0.778,-1.168 1.124,-0.941 1.391,-0.613 1.539,-0.215 1.539,0.215 1.391,0.613 1.121,0.941 0.781,1.168 0.414,1.289 0.074,1.309 -0.203,1.246 -0.394,1.121 -0.504,0.949 -0.535,0.75 -0.504,0.512 -0.445,0.258 -0.372,-0.016 -0.296,-0.293 -0.219,-0.562 -0.137,-0.797 -0.027,-0.992 0.121,-1.121 0.324,-1.18 0.574,-1.148 0.852,-1.02 1.125,-0.789 1.359,-0.457 1.489,-0.063 1.492,0.364 1.355,0.769 1.086,1.098 0.719,1.312 0.308,1.407 -0.093,1.382 -0.442,1.258 -0.707,1.082 -0.863,0.879 -0.926,0.676 -0.89,0.48 -0.786,0.29 -0.625,0.105 -0.429,-0.09 -0.223,-0.289 -0.016,-0.488 0.18,-0.668 0.371,-0.813 0.567,-0.89 0.761,-0.895 0.969,-0.797 1.156,-0.597 1.313,-0.309 1.398,0.066 1.379,0.473 1.235,0.875 0.972,1.207 0.61,1.43 0.191,1.515 -0.23,1.458 -0.602,1.277"
         style="fill:none;stroke:#000000;stroke-width:0.9216;stroke-linecap:square;stroke-linejoin:miter;stroke-miterlimit:3.25;stroke-dasharray:none;stroke-opacity:1"
         id="path246" />
    </g>
    <g
       id="g248">
      <g
         id="g250"
         clip-path="url(#clipPath254)">
        <text
           xml:space="preserve"
           transform="translate(630.46057,45.156022)"
           style="font-variant:normal;font-size:21.12px;font-family:CairoFont-0;-inkscape-font-specification:CairoFont-0-0;writing-mode:lr-tb;fill:#000000;fill-opacity:1;fill-rule:nonzero;stroke:none"
           id="text258"><tspan
             x="0"
             y="0"
             id="tspan256">g</tspan></text>
      </g>
    </g>
    <g
       id="g260">
      <path
         d="m 619.984,71.215 -0.605,1.277 -0.227,1.457 0.192,1.516 0.609,1.43 0.973,1.207 1.234,0.875 1.379,0.472 1.399,0.067 1.312,-0.309 1.156,-0.598 0.965,-0.8 0.766,-0.891 0.566,-0.895 0.371,-0.808 0.18,-0.668 -0.02,-0.488 -0.222,-0.289 -0.426,-0.09 -0.625,0.105 -0.785,0.289 -0.891,0.481 -0.926,0.672 -0.867,0.882 -0.703,1.082 -0.441,1.258 -0.094,1.379 0.308,1.41 0.719,1.313 1.082,1.097 1.356,0.766 1.496,0.367 1.488,-0.062 1.356,-0.457 1.129,-0.789 0.851,-1.02 0.574,-1.148 0.325,-1.18 0.121,-1.125 -0.028,-0.988 -0.136,-0.797 -0.219,-0.563 -0.297,-0.293 -0.371,-0.015 -0.446,0.258 -0.507,0.511 -0.532,0.746 -0.503,0.953 -0.395,1.122 -0.203,1.242 0.074,1.308 0.414,1.293 0.778,1.168 1.124,0.942 1.391,0.613 1.539,0.215 1.539,-0.215 1.391,-0.613 1.121,-0.942 0.781,-1.168 0.414,-1.293 0.074,-1.308 -0.203,-1.242 -0.394,-1.122 -0.504,-0.953 -0.535,-0.746 -0.504,-0.511 -0.445,-0.258 -0.372,0.015 -0.296,0.293 -0.219,0.563 -0.137,0.797 -0.027,0.988 0.121,1.125 0.324,1.18 0.574,1.148 0.852,1.02 1.125,0.789 1.359,0.457 1.489,0.062 1.492,-0.367 1.355,-0.766 1.086,-1.097 0.719,-1.313 0.308,-1.41 -0.093,-1.379 -0.442,-1.258 -0.707,-1.082 -0.863,-0.882 -0.926,-0.672 -0.89,-0.481 -0.786,-0.289 -0.625,-0.105 -0.429,0.09 -0.223,0.289 -0.016,0.488 0.18,0.668 0.371,0.808 0.567,0.895 0.761,0.891 0.969,0.8 1.156,0.598 1.313,0.309 1.398,-0.067 1.379,-0.472 1.235,-0.875 0.972,-1.207 0.61,-1.43 0.191,-1.516 -0.23,-1.457 -0.602,-1.277"
         style="fill:none;stroke:#000000;stroke-width:0.9216;stroke-linecap:square;stroke-linejoin:miter;stroke-miterlimit:3.25;stroke-dasharray:none;stroke-opacity:1"
         id="path262" />
    </g>
    <g
       id="g264">
      <g
         id="g266"
         clip-path="url(#clipPath270)">
        <text
           xml:space="preserve"
           transform="translate(630.46057,112.49182)"
           style="font-variant:normal;font-size:21.12px;font-family:CairoFont-0;-inkscape-font-specification:CairoFont-0-0;writing-mode:lr-tb;fill:#000000;fill-opacity:1;fill-rule:nonzero;stroke:none"
           id="text274"><tspan
             x="0"
             y="0"
             id="tspan272">g</tspan></text>
      </g>
    </g>
    <g
       id="g276">
      <path
         d="m 670.254,100.539 0.965,-0.992 0.707,-1.231 0.386,-1.39 0.028,-1.461 -0.336,-1.418 -0.664,-1.277 -0.945,-1.047 -1.145,-0.762 -1.266,-0.457 -1.293,-0.16 -1.246,0.097 -1.133,0.305 -0.968,0.445 -0.754,0.532 -0.508,0.558 -0.238,0.551 0.039,0.504 0.316,0.437 0.578,0.34 0.809,0.227 0.996,0.07 1.117,-0.109 1.168,-0.328 1.145,-0.575 1.027,-0.832 0.832,-1.074 0.563,-1.277 0.23,-1.406 -0.133,-1.446 -0.484,-1.375 -0.809,-1.211 -1.07,-0.953 -1.246,-0.644 -1.328,-0.313 -1.336,0.008 -1.258,0.289 -1.125,0.504 -0.949,0.652 -0.738,0.719 -0.508,0.723 -0.258,0.664 -0.004,0.566 0.25,0.438 0.488,0.281 0.707,0.117 0.875,-0.07 0.996,-0.274 1.043,-0.484 1.008,-0.715 0.887,-0.937 0.683,-1.145 0.407,-1.305 0.078,-1.402 -0.281,-1.402 -0.629,-1.313 -0.942,-1.117 -1.179,-0.848 -1.329,-0.515 -1.382,-0.164 -1.348,0.172 -1.238,0.464 -1.078,0.692 -0.875,0.844 -0.664,0.906 -0.442,0.89 -0.215,0.813 v 0.672 l 0.215,0.492 0.414,0.293 0.594,0.07 0.742,-0.152 0.84,-0.379 0.875,-0.605 0.84,-0.825 0.715,-1.023 0.519,-1.195 0.246,-1.321 -0.074,-1.375 -0.422,-1.343 -0.762,-1.223 -1.054,-1.008 -1.27,-0.719 -1.394,-0.375 -1.418,-0.015 -1.344,0.328"
         style="fill:none;stroke:#000000;stroke-width:0.9216;stroke-linecap:square;stroke-linejoin:miter;stroke-miterlimit:3.25;stroke-dasharray:none;stroke-opacity:1"
         id="path278" />
      <text
         xml:space="preserve"
         transform="translate(672.62957,77.168926)"
         style="font-variant:normal;font-size:21.12px;font-family:CairoFont-0;-inkscape-font-specification:CairoFont-0-0;writing-mode:lr-tb;fill:#000000;fill-opacity:1;fill-rule:nonzero;stroke:none"
         id="text282"><tspan
           x="0"
           y="0"
           id="tspan280">g</tspan></text>
      <path
         d="m 657.184,71.215 c 0,0.976 -0.387,1.914 -1.079,2.605 -0.691,0.692 -1.628,1.082 -2.605,1.082 -0.98,0 -1.918,-0.39 -2.609,-1.082 -0.692,-0.691 -1.079,-1.629 -1.079,-2.605 0,-0.977 0.387,-1.914 1.079,-2.606 0.691,-0.691 1.629,-1.082 2.609,-1.082 0.977,0 1.914,0.391 2.605,1.082 0.692,0.692 1.079,1.629 1.079,2.606 z"
         style="fill:#000000;fill-opacity:1;fill-rule:evenodd;stroke:none"
         id="path284" />
      <path
         d="m 623.672,71.215 c 0,0.976 -0.387,1.914 -1.078,2.605 -0.692,0.692 -1.629,1.082 -2.61,1.082 -0.976,0 -1.914,-0.39 -2.605,-1.082 -0.691,-0.691 -1.078,-1.629 -1.078,-2.605 0,-0.977 0.387,-1.914 1.078,-2.606 0.691,-0.691 1.629,-1.082 2.605,-1.082 0.981,0 1.918,0.391 2.61,1.082 0.691,0.692 1.078,1.629 1.078,2.606 z"
         style="fill:#000000;fill-opacity:1;fill-rule:evenodd;stroke:none"
         id="path286" />
      <path
         d="m 606.914,100.539 c 0,0.977 -0.387,1.914 -1.078,2.606 -0.691,0.691 -1.629,1.078 -2.606,1.078 -0.98,0 -1.918,-0.387 -2.609,-1.078 -0.691,-0.692 -1.078,-1.629 -1.078,-2.606 0,-0.98 0.387,-1.918 1.078,-2.609 0.691,-0.692 1.629,-1.078 2.609,-1.078 0.977,0 1.915,0.386 2.606,1.078 0.691,0.691 1.078,1.629 1.078,2.609 z"
         style="fill:#000000;fill-opacity:1;fill-rule:evenodd;stroke:none"
         id="path288" />
      <path
         d="m 673.941,100.539 c 0,0.977 -0.39,1.914 -1.082,2.606 -0.691,0.691 -1.629,1.078 -2.605,1.078 -0.977,0 -1.914,-0.387 -2.606,-1.078 -0.691,-0.692 -1.082,-1.629 -1.082,-2.606 0,-0.98 0.391,-1.918 1.082,-2.609 0.692,-0.692 1.629,-1.078 2.606,-1.078 0.976,0 1.914,0.386 2.605,1.078 0.692,0.691 1.082,1.629 1.082,2.609 z"
         style="fill:#000000;fill-opacity:1;fill-rule:evenodd;stroke:none"
         id="path290" />
    </g>
  </g>
</svg>
