<?xml version="1.0" encoding="UTF-8" standalone="no"?>
<!-- Created with Inkscape (http://www.inkscape.org/) -->

<svg
   version="1.1"
   id="svg1"
   width="984"
   height="246.66667"
   viewBox="0 0 984 246.66667"
   sodipodi:docname="05az40ah4s8zn.pdf"
   xmlns:inkscape="http://www.inkscape.org/namespaces/inkscape"
   xmlns:sodipodi="http://sodipodi.sourceforge.net/DTD/sodipodi-0.dtd"
   xmlns="http://www.w3.org/2000/svg"
   xmlns:svg="http://www.w3.org/2000/svg">
  <defs
     id="defs1">
    <clipPath
       clipPathUnits="userSpaceOnUse"
       id="clipPath13">
      <path
         d="m 77,154 h 13.961 v 17 H 77 Z"
         transform="translate(-77.500569,-166.11219)"
         id="path13" />
    </clipPath>
  </defs>
  <sodipodi:namedview
     id="namedview1"
     pagecolor="#ffffff"
     bordercolor="#999999"
     borderopacity="1"
     inkscape:showpageshadow="0"
     inkscape:pageopacity="0"
     inkscape:pagecheckerboard="0"
     inkscape:deskcolor="#d1d1d1">
    <inkscape:page
       x="0"
       y="0"
       id="page1"
       width="984"
       height="246.66667"
       margin="0"
       bleed="0" />
  </sodipodi:namedview>
  <g
     id="g1"
     inkscape:groupmode="layer"
     inkscape:label="">
    <path
       id="path1"
       d="m 46.078,100.539 -1.055,0.906 -1.222,0.672 -1.328,0.406 -1.387,0.106 -1.375,-0.191 -1.309,-0.485 -1.175,-0.746 -1.004,-0.961 -0.789,-1.117 -0.543,-1.211 -0.297,-1.23 -0.043,-1.176 0.183,-1.047 0.383,-0.86 0.535,-0.621 0.637,-0.339 0.676,-0.047 0.652,0.257 0.571,0.543 0.429,0.797 0.246,1 0.024,1.145 -0.223,1.222 -0.473,1.223 -0.718,1.153 -0.946,1.015 -1.132,0.813 -1.274,0.562 -1.363,0.277 -1.391,-0.019 -1.351,-0.32 -1.258,-0.602 -1.11,-0.844 -0.914,-1.039 -0.687,-1.164 -0.438,-1.23 -0.183,-1.215 0.054,-1.129 0.278,-0.973 0.453,-0.765 0.586,-0.504 0.66,-0.215 0.672,0.086 0.625,0.383 0.516,0.656 0.355,0.891 0.156,1.07 -0.078,1.187 -0.332,1.231 -0.582,1.203 -0.816,1.102 -1.032,0.933 -1.199,0.711 -1.32,0.445 -1.383,0.149 -1.379,-0.149 -1.32,-0.445 -1.199,-0.711 -1.032,-0.933 -0.82,-1.102 -0.582,-1.203 -0.328,-1.231 -0.078,-1.187 0.152,-1.07 0.356,-0.891 0.519,-0.656 0.625,-0.383 0.672,-0.086 0.66,0.215 0.586,0.504 0.453,0.765 0.274,0.973 0.058,1.129 -0.187,1.215 -0.438,1.23 -0.687,1.164 -0.914,1.039 -1.106,0.844 -1.262,0.602 -1.351,0.32 -1.391,0.019 -1.359,-0.277 -1.277,-0.562 L 9.551,100.953 8.609,99.938 7.887,98.785 7.414,97.562 7.191,96.34 l 0.028,-1.145 0.242,-1 0.434,-0.797 0.57,-0.543 0.652,-0.257 0.676,0.047 0.633,0.339 0.535,0.621 0.383,0.86 0.187,1.047 -0.047,1.176 -0.293,1.23 -0.546,1.211 -0.786,1.117 -1.004,0.961 -1.179,0.746 -1.305,0.485 -1.379,0.191 L 3.609,102.523 2.277,102.117 1.059,101.445 0,100.539"
       style="fill:none;stroke:#000000;stroke-width:0.9216;stroke-linecap:square;stroke-linejoin:miter;stroke-miterlimit:3.25;stroke-dasharray:none;stroke-opacity:1"
       transform="scale(1.3333333)" />
    <path
       id="path2"
       d="m 9.7607813,-10.581262 c 0.3164067,0.234375 0.5859377,0.5976558 0.8437497,1.0312496 l 0.316407,-1.3828126 h 1.710937 L 10.499063,-0.88985619 C 10.194375,0.50467506 9.7607813,1.6296751 9.163125,2.4265501 c -1.1015625,1.5 -2.7070312,2.2617187 -4.8398437,2.2617187 -1.1953125,0 -2.1328125,-0.2695312 -2.8242188,-0.796875 C 0.7959375,3.3640501 0.50296875,2.5085813 0.6553125,1.3718626 H 2.55375 c -0.023437,0.5039062 0.082031,0.890625 0.2929688,1.1601562 0.3164062,0.3984375 0.9492187,0.609375 1.8398437,0.609375 1.4414063,0 2.4726563,-0.5039062 3.1289063,-1.4882812 0.375,-0.5976563 0.7148437,-1.6523437875 1.0078125,-3.1757813 -0.4804688,0.55078126 -1.0078125,0.97265626 -1.5820313,1.25390626 -0.5859375,0.2695312525 -1.3125,0.421875 -2.1796875,0.421875 -1.171875,0 -2.1445312,-0.421875 -2.8710937,-1.27734376 -0.7148438,-0.8554687 -0.8554688,-2.25 -0.4335938,-4.21875 0.3984375,-1.8398437 1.1367188,-3.2929687 2.2734375,-4.3242187 1.125,-1.0429691 2.3203125,-1.5703121 3.5976563,-1.5703121 0.8554687,0 1.5820312,0.210937 2.1328125,0.65625 z m -2.1328125,0.9960933 c -1.3125,0 -2.3320313,0.609375 -3.0703125,1.8398438 -0.3984375,0.65625 -0.7148438,1.5 -0.9257813,2.5546875 -0.2695312,1.2421875 -0.2109375,2.1914062 0.1523438,2.8476562 0.3515625,0.65625 0.9609375,0.9726563 1.828125,0.9726563 1.3359375,0 2.390625,-0.5976563 3.1875,-1.7929688 0.4453125,-0.703125 0.7617187,-1.4765625 0.9609375,-2.390625 0.2929687,-1.3710937 0.2226562,-2.390625 -0.1992188,-3.0351562 -0.421875,-0.65625 -1.078125,-0.9960938 -1.9335937,-0.9960938 z m 0,0"
       style="fill:#000000;fill-opacity:1;fill-rule:nonzero;stroke:none"
       aria-label="g"
       transform="matrix(1.3333333,0,0,1.3333333,22.345,171.21382)" />
    <path
       id="path3"
       d="m 121.484,100.539 1.055,-0.906 1.223,-0.676 1.332,-0.402 1.383,-0.11 1.378,0.196 1.305,0.484 1.18,0.742 1,0.961 0.789,1.121 0.547,1.211 0.293,1.231 0.043,1.171 -0.184,1.051 -0.383,0.86 -0.535,0.621 -0.633,0.34 -0.675,0.043 -0.653,-0.258 -0.57,-0.543 -0.434,-0.793 -0.246,-1 -0.023,-1.149 0.222,-1.218 0.473,-1.227 0.719,-1.152 0.945,-1.012 1.133,-0.813 1.277,-0.562 1.36,-0.281 1.39,0.023 1.352,0.32 1.258,0.602 1.109,0.844 0.914,1.035 0.688,1.168 0.437,1.227 0.188,1.214 -0.059,1.129 -0.273,0.977 -0.457,0.762 -0.582,0.503 -0.661,0.215 -0.675,-0.086 -0.622,-0.382 -0.519,-0.657 -0.355,-0.89 -0.157,-1.071 0.082,-1.187 0.328,-1.231 0.582,-1.203 0.821,-1.101 1.027,-0.934 1.203,-0.711 1.317,-0.441 1.382,-0.153 1.383,0.153 1.317,0.441 1.203,0.711 1.027,0.934 0.82,1.101 0.582,1.203 0.329,1.231 0.082,1.187 -0.157,1.071 -0.355,0.89 -0.52,0.657 -0.621,0.382 -0.675,0.086 -0.657,-0.215 -0.586,-0.503 -0.457,-0.762 -0.273,-0.977 -0.055,-1.129 0.184,-1.214 0.437,-1.227 0.688,-1.168 0.914,-1.035 1.109,-0.844 1.258,-0.602 1.352,-0.32 1.39,-0.023 1.363,0.281 1.274,0.562 1.133,0.813 0.945,1.012 0.719,1.152 0.472,1.227 0.223,1.218 -0.023,1.149 -0.246,1 -0.434,0.793 -0.57,0.543 -0.653,0.258 -0.672,-0.043 -0.636,-0.34 -0.535,-0.621 -0.383,-0.86 -0.184,-1.051 0.043,-1.171 0.293,-1.231 0.547,-1.211 0.789,-1.121 1,-0.961 1.18,-0.742 1.308,-0.484 1.375,-0.196 1.383,0.11 1.332,0.402 1.223,0.676 1.054,0.906"
       style="fill:none;stroke:#000000;stroke-width:0.9216;stroke-linecap:square;stroke-linejoin:miter;stroke-miterlimit:3.25;stroke-dasharray:none;stroke-opacity:1"
       transform="scale(1.3333333)" />
    <path
       id="path4"
       d="m 9.7624968,-10.580756 c 0.3164062,0.234375 0.5859372,0.5976562 0.8437502,1.0312499 l 0.316406,-1.3828129 h 1.710938 L 10.500778,-0.88934981 C 10.196091,0.50518144 9.7624968,1.6301814 9.1648406,2.4270564 c -1.1015625,1.5 -2.7070313,2.2617188 -4.8398438,2.2617188 -1.1953125,0 -2.1328125,-0.2695313 -2.8242187,-0.796875 C 0.79765306,3.3645564 0.50468431,2.5090877 0.65702806,1.3723689 H 2.5554656 c -0.023437,0.5039063 0.082031,0.890625 0.2929687,1.1601563 0.3164063,0.3984375 0.9492188,0.609375 1.8398438,0.609375 1.4414062,0 2.4726562,-0.5039063 3.1289062,-1.4882813 0.375,-0.5976562 0.7148438,-1.65234371 1.0078125,-3.1757812 -0.4804687,0.55078124 -1.0078125,0.97265624 -1.5820312,1.25390624 -0.5859375,0.26953125 -1.3125,0.421875 -2.1796875,0.421875 -1.171875,0 -2.1445313,-0.421875 -2.8710938,-1.27734374 -0.7148437,-0.8554688 -0.8554687,-2.25 -0.4335937,-4.21875 0.3984375,-1.8398438 1.1367187,-3.2929688 2.2734375,-4.3242188 1.125,-1.0429684 2.3203125,-1.5703124 3.5976562,-1.5703124 0.8554688,0 1.5820313,0.210937 2.1328125,0.65625 z m -2.1328125,0.9960937 c -1.3125,0 -2.3320312,0.609375 -3.0703125,1.8398437 -0.3984375,0.65625 -0.7148437,1.5 -0.9257812,2.5546875 -0.2695313,1.2421875 -0.2109375,2.1914063 0.1523437,2.8476563 0.3515625,0.65625 0.9609375,0.9726562 1.828125,0.9726562 1.3359375,0 2.390625,-0.5976562 3.1875,-1.7929687 0.4453125,-0.703125 0.7617188,-1.4765625 0.9609375,-2.390625 0.2929692,-1.3710938 0.2226563,-2.390625 -0.1992187,-3.0351563 -0.421875,-0.65625 -1.078125,-0.9960937 -1.9335938,-0.9960937 z m 0,0"
       style="fill:#000000;fill-opacity:1;fill-rule:nonzero;stroke:none"
       aria-label="g"
       transform="matrix(1.3333333,0,0,1.3333333,184.32318,179.03346)" />
    <path
       id="path5"
       d="m 46.078,100.539 -0.859,-0.949 -0.657,-1.133 -0.414,-1.269 -0.136,-1.344 0.148,-1.348 0.422,-1.277 0.676,-1.145 0.879,-0.957 1.039,-0.738 1.129,-0.496 1.168,-0.262 1.148,-0.051 1.074,0.137 0.953,0.281 0.805,0.383 0.617,0.445 0.414,0.469 0.192,0.465 -0.039,0.434 -0.258,0.375 -0.473,0.296 -0.66,0.196 -0.824,0.074 -0.938,-0.074 -1.011,-0.242 -1.028,-0.434 -0.988,-0.637 -0.883,-0.836 -0.722,-1.023 -0.512,-1.18 -0.258,-1.289 0.02,-1.34 0.304,-1.316 0.574,-1.227 0.813,-1.07 1.004,-0.863 1.141,-0.617 1.214,-0.364 1.223,-0.109 1.184,0.125 1.093,0.312 0.961,0.461 0.809,0.559 0.625,0.601 0.43,0.602 0.222,0.559 0.012,0.484 -0.195,0.387 -0.387,0.261 -0.567,0.122 -0.714,-0.032 -0.825,-0.195 -0.886,-0.371 -0.895,-0.559 -0.847,-0.742 -0.739,-0.922 -0.574,-1.082 -0.355,-1.207 -0.102,-1.285 0.172,-1.309 0.453,-1.265 0.711,-1.149 0.941,-0.976 1.114,-0.746 1.222,-0.492 1.274,-0.215 1.258,0.047 1.191,0.289 1.074,0.488 0.93,0.637 0.758,0.73 0.582,0.77 0.39,0.75 0.207,0.683 0.02,0.578 -0.16,0.446 -0.324,0.281 -0.473,0.105 -0.598,-0.078 -0.687,-0.265 -0.739,-0.457 -0.738,-0.645 -0.683,-0.82 -0.575,-0.985 -0.406,-1.113 -0.199,-1.215 0.051,-1.265 0.32,-1.258 0.59,-1.184 0.836,-1.051 1.047,-0.859 1.203,-0.617 1.293,-0.352 1.312,-0.066 1.27,0.203 1.172,0.449 1.027,0.649 0.859,0.8 0.672,0.891 0.485,0.918 0.304,0.895 0.129,0.816 -0.027,0.687 -0.172,0.532 -0.297,0.344 -0.41,0.14 -0.5,-0.07 -0.555,-0.285 -0.586,-0.489 -0.566,-0.683 -0.508,-0.86 -0.398,-1.003 -0.235,-1.126 -0.031,-1.195 0.203,-1.219 0.457,-1.187 0.711,-1.09 0.945,-0.933 1.133,-0.727 1.27,-0.473 1.336,-0.199 1.332,0.09 1.261,0.355 1.129,0.602"
       style="fill:none;stroke:#000000;stroke-width:0.9216;stroke-linecap:square;stroke-linejoin:miter;stroke-miterlimit:3.25;stroke-dasharray:none;stroke-opacity:1"
       transform="scale(1.3333333)" />
    <path
       id="path6"
       d="m 9.7626855,-10.582258 c 0.3164065,0.234375 0.5859375,0.5976558 0.8437505,1.0312496 l 0.316406,-1.3828126 h 1.710937 L 10.500967,-0.89085219 C 10.196279,0.50367906 9.7626855,1.6286791 9.1650293,2.4255541 8.0634668,3.9255541 6.457998,4.6872728 4.3251855,4.6872728 3.129873,4.6872728 2.192373,4.4177416 1.5009668,3.8903978 0.79784175,3.3630541 0.504873,2.5075853 0.65721675,1.3708666 H 2.5556543 c -0.023437,0.5039062 0.082031,0.890625 0.2929687,1.1601562 0.3164063,0.3984375 0.9492188,0.609375 1.8398438,0.609375 1.4414062,0 2.4726562,-0.5039062 3.1289062,-1.4882812 0.375,-0.5976563 0.7148438,-1.6523437875 1.0078125,-3.1757813 -0.4804687,0.55078126 -1.0078125,0.97265626 -1.5820312,1.25390626 -0.5859375,0.2695312525 -1.3125,0.421875 -2.1796875,0.421875 -1.171875,0 -2.1445313,-0.421875 -2.8710938,-1.27734376 -0.7148437,-0.8554687 -0.8554687,-2.25 -0.4335937,-4.21875 0.3984375,-1.8398437 1.1367187,-3.2929687 2.2734375,-4.3242187 1.125,-1.0429691 2.3203125,-1.5703121 3.5976562,-1.5703121 0.8554688,0 1.5820313,0.210937 2.1328125,0.65625 z M 7.629873,-9.5861647 c -1.3125,0 -2.3320312,0.609375 -3.0703125,1.8398438 -0.3984375,0.65625 -0.7148437,1.5 -0.9257812,2.5546875 -0.2695313,1.2421875 -0.2109375,2.1914062 0.1523437,2.8476562 0.3515625,0.65625 0.9609375,0.9726563 1.828125,0.9726563 1.3359375,0 2.390625,-0.5976563 3.1875,-1.7929688 0.4453125,-0.703125 0.7617188,-1.4765625 0.9609375,-2.390625 0.2929685,-1.3710937 0.2226563,-2.390625 -0.1992187,-3.0351562 -0.421875,-0.65625 -1.078125,-0.9960938 -1.9335938,-0.9960938 z m 0,0"
       style="fill:#000000;fill-opacity:1;fill-rule:nonzero;stroke:none"
       aria-label="g"
       transform="matrix(1.3333333,0,0,1.3333333,47.826836,91.340147)" />
    <path
       id="path7"
       d="m 121.484,100.539 -0.82,0.93 -1.004,0.773 -1.156,0.574 -1.266,0.34 -1.308,0.09 -1.301,-0.168 -1.231,-0.41 -1.101,-0.629 -0.942,-0.816 -0.75,-0.95 -0.546,-1.043 -0.34,-1.078 -0.157,-1.062 0.012,-1.008 0.149,-0.91 0.257,-0.774 0.329,-0.613 0.375,-0.426 0.398,-0.226 0.395,-0.016 0.367,0.188 0.324,0.39 0.254,0.575 0.164,0.734 0.043,0.867 -0.094,0.957 -0.258,1.012 -0.441,1.012 -0.629,0.964 -0.82,0.864 -0.996,0.718 -1.145,0.528 -1.246,0.301 -1.305,0.05 -1.297,-0.203 -1.23,-0.449 -1.113,-0.676 -0.946,-0.867 -0.742,-1.012 -0.523,-1.105 -0.297,-1.153 -0.086,-1.144 0.098,-1.094 0.257,-1 0.375,-0.879 0.45,-0.726 0.488,-0.559 0.492,-0.367 0.465,-0.176 0.406,0.024 0.332,0.222 0.235,0.403 0.121,0.566 -0.008,0.711 -0.152,0.812 -0.309,0.875 -0.477,0.899 -0.652,0.863 -0.82,0.781 -0.985,0.653 -1.121,0.469 -1.218,0.257 -1.274,0.02 -1.277,-0.238 -1.219,-0.485 -1.102,-0.711 -0.941,-0.91 -0.734,-1.062 -0.504,-1.161 -0.262,-1.207 -0.035,-1.203 0.18,-1.148 0.359,-1.059 0.5,-0.933 0.59,-0.789 0.636,-0.629 0.641,-0.457 0.602,-0.274 0.527,-0.097 0.426,0.078 0.301,0.25 0.164,0.402 0.007,0.535 -0.152,0.645 -0.316,0.715 -0.493,0.75 -0.656,0.734 -0.816,0.672 -0.969,0.562 -1.09,0.407 -1.183,0.203 -1.235,-0.02 -1.238,-0.262 -1.187,-0.511 -1.075,-0.739 -0.918,-0.941 -0.718,-1.098 -0.485,-1.203 -0.234,-1.254 0.012,-1.246 0.238,-1.191 0.445,-1.094 0.602,-0.961 0.718,-0.808 0.786,-0.649 0.796,-0.476 0.766,-0.309 0.695,-0.148 0.579,0.007 0.445,0.153 0.281,0.281 0.102,0.395 -0.078,0.488 -0.266,0.554 -0.445,0.59 -0.625,0.586 -0.789,0.539 -0.93,0.45 -1.051,0.316 -1.141,0.141 -1.187,-0.063 -1.188,-0.293 -1.136,-0.527 -1.039,-0.758 -0.883,-0.953 -0.684,-1.121 -0.457,-1.231 -0.207,-1.289 0.047,-1.281 0.293,-1.227 0.504,-1.117 0.687,-0.972 0.821,-0.813 0.906,-0.629 0.937,-0.453 0.922,-0.285 0.856,-0.125 0.754,0.012 0.613,0.136 0.445,0.239 0.258,0.324 0.063,0.39 -0.145,0.434 -0.344,0.453 -0.535,0.445 -0.707,0.403 -0.863,0.324 -0.984,0.211 -1.075,0.062 -1.125,-0.125 -1.125,-0.328 -1.082,-0.543 -0.984,-0.761 -0.836,-0.957 -0.648,-1.125 -0.418,-1.243 -0.172,-1.3 0.082,-1.305 0.332,-1.25 0.558,-1.137 0.75,-0.988"
       style="fill:none;stroke:#000000;stroke-width:0.9216;stroke-linecap:square;stroke-linejoin:miter;stroke-miterlimit:3.25;stroke-dasharray:none;stroke-opacity:1"
       transform="scale(1.3333333)" />
    <path
       id="path8"
       d="m 9.7624327,-10.582741 c 0.3164063,0.234375 0.5859373,0.5976561 0.8437503,1.0312498 l 0.316406,-1.3828128 h 1.710937 L 10.500714,-0.89133494 C 10.196026,0.50319631 9.7624327,1.6281963 9.1647764,2.4250713 c -1.1015625,1.5 -2.7070312,2.2617188 -4.8398437,2.2617188 -1.1953125,0 -2.1328125,-0.2695313 -2.8242188,-0.796875 C 0.79758894,3.3625713 0.50462019,2.5071026 0.65696394,1.3703838 H 2.5554014 c -0.023437,0.5039063 0.082031,0.890625 0.2929688,1.1601563 0.3164062,0.3984375 0.9492187,0.609375 1.8398437,0.609375 1.4414063,0 2.4726563,-0.5039063 3.1289063,-1.4882813 0.375,-0.5976562 0.7148437,-1.6523437375 1.0078125,-3.1757812 -0.4804688,0.55078121 -1.0078125,0.97265621 -1.5820313,1.25390621 -0.5859375,0.2695312525 -1.3125,0.421875 -2.1796875,0.421875 -1.171875,0 -2.1445312,-0.421875 -2.8710937,-1.27734371 -0.7148438,-0.8554688 -0.8554688,-2.25 -0.4335938,-4.21875 0.3984375,-1.8398438 1.1367188,-3.2929688 2.2734375,-4.3242188 1.125,-1.0429683 2.3203125,-1.5703123 3.5976563,-1.5703123 0.8554687,0 1.5820312,0.210937 2.1328125,0.65625 z m -2.1328125,0.9960936 c -1.3125,0 -2.3320313,0.609375 -3.0703125,1.8398437 -0.3984375,0.65625 -0.7148438,1.5 -0.9257813,2.5546875 -0.2695312,1.2421875 -0.2109375,2.1914063 0.1523438,2.8476563 0.3515625,0.65625 0.9609375,0.9726562 1.828125,0.9726562 1.3359375,0 2.390625,-0.5976562 3.1875,-1.7929687 0.4453125,-0.703125 0.7617187,-1.4765625 0.9609375,-2.390625 0.2929683,-1.3710938 0.2226562,-2.390625 -0.1992188,-3.0351563 -0.421875,-0.65625 -1.078125,-0.9960937 -1.9335937,-0.9960937 z m 0,0"
       style="fill:#000000;fill-opacity:1;fill-rule:nonzero;stroke:none"
       aria-label="g"
       transform="matrix(1.3333333,0,0,1.3333333,98.612329,156.45017)" />
    <path
       id="path9"
       d="m 121.484,100.539 0.825,-0.883 0.66,-1.043 0.461,-1.175 0.23,-1.258 -0.004,-1.289 -0.25,-1.262 -0.472,-1.18 -0.68,-1.051 -0.844,-0.882 -0.969,-0.692 -1.043,-0.492 -1.074,-0.293 -1.062,-0.109 -1.008,0.054 -0.914,0.18 -0.797,0.281 -0.648,0.348 -0.485,0.387 -0.301,0.394 -0.113,0.383 0.078,0.348 0.262,0.3 0.441,0.227 0.602,0.145 0.734,0.043 0.84,-0.086 0.906,-0.223 0.934,-0.379 0.914,-0.551 0.852,-0.719 0.738,-0.886 0.582,-1.039 0.387,-1.157 0.172,-1.238 -0.071,-1.269 -0.308,-1.25 -0.543,-1.168 -0.743,-1.039 -0.918,-0.871 -1.039,-0.665 -1.121,-0.449 -1.148,-0.23 -1.137,-0.02 -1.078,0.164 -0.988,0.313 -0.875,0.43 -0.735,0.503 -0.582,0.539 -0.414,0.536 -0.246,0.5 -0.07,0.437 0.105,0.356 0.27,0.25 0.422,0.136 0.554,0.008 0.668,-0.129 0.743,-0.277 0.777,-0.43 0.777,-0.586 0.727,-0.742 0.633,-0.891 0.492,-1.023 0.312,-1.129 0.106,-1.203 -0.129,-1.227 -0.363,-1.211 -0.594,-1.132 -0.801,-1.008 -0.973,-0.84 -1.105,-0.633 -1.18,-0.406 -1.211,-0.172 -1.187,0.051 -1.125,0.262 -1.028,0.433 -0.902,0.57 -0.758,0.661 -0.609,0.711 -0.449,0.71 -0.297,0.676 -0.141,0.602 0.008,0.496 0.145,0.371 0.277,0.227 0.394,0.07 0.489,-0.09 0.558,-0.258 0.606,-0.426 0.609,-0.582 0.574,-0.738 0.496,-0.875 0.383,-0.996 0.223,-1.09 0.031,-1.156 -0.183,-1.176 -0.411,-1.148 -0.632,-1.078 -0.84,-0.957 -1.012,-0.789 -1.148,-0.586 -1.231,-0.356 -1.254,-0.117 -1.23,0.117 -1.16,0.34 -1.043,0.531 -0.907,0.684 -0.746,0.797 -0.582,0.859 -0.422,0.875 -0.265,0.852 -0.125,0.781 0.004,0.68 0.117,0.543 0.215,0.386 0.301,0.215 0.367,0.031 0.414,-0.156 0.445,-0.336 0.441,-0.515 0.415,-0.676 0.347,-0.821 0.246,-0.941 0.114,-1.031 -0.051,-1.09 -0.246,-1.109 -0.453,-1.082 -0.661,-1.008 -0.859,-0.887 -1.035,-0.727 -1.168,-0.523 -1.25,-0.297 -1.285,-0.058 -1.258,0.183 -1.184,0.41 -1.054,0.614 -0.903,0.773 -0.722,0.898 -0.539,0.977 -0.356,1.004 -0.187,0.992 -0.043,0.934 0.086,0.836 0.187,0.714 0.258,0.559 0.312,0.387 0.344,0.203 0.36,0.004 0.351,-0.188 0.328,-0.375 0.282,-0.547 0.21,-0.707 0.122,-0.836 -0.004,-0.933 -0.149,-0.996 -0.316,-1.02 -0.5,-0.996 -0.688,-0.926 -0.871,-0.812 -1.035,-0.652 -1.164,-0.454 -1.25,-0.234 -1.285,0.008 -1.262,0.25 -1.187,0.476 -1.063,0.684 -0.891,0.855 -0.703,0.981"
       style="fill:none;stroke:#000000;stroke-width:0.9216;stroke-linecap:square;stroke-linejoin:miter;stroke-miterlimit:3.25;stroke-dasharray:none;stroke-opacity:1"
       transform="scale(1.3333333)" />
    <path
       id="path10"
       d="m 9.7630646,-10.581133 c 0.3164064,0.234375 0.5859374,0.5976566 0.8437504,1.0312504 l 0.316406,-1.3828124 h 1.710937 L 10.501346,-0.88972637 C 10.196658,0.50480488 9.7630646,1.6298049 9.1654083,2.4266799 c -1.1015625,1.5 -2.7070312,2.2617187 -4.8398437,2.2617187 -1.1953125,0 -2.1328125,-0.2695312 -2.8242188,-0.796875 C 0.79822081,3.3641799 0.50525206,2.5087111 0.65759581,1.3719924 H 2.5560333 c -0.023437,0.5039062 0.082031,0.890625 0.2929688,1.1601562 0.3164062,0.3984375 0.9492187,0.609375 1.8398437,0.609375 1.4414063,0 2.4726563,-0.5039062 3.1289063,-1.4882812 0.375,-0.5976563 0.7148437,-1.652343775 1.0078125,-3.1757813 -0.4804688,0.55078128 -1.0078125,0.97265628 -1.5820313,1.25390628 -0.5859375,0.269531245 -1.3125,0.421875 -2.1796875,0.421875 -1.171875,0 -2.1445312,-0.421875 -2.8710937,-1.27734378 -0.7148438,-0.8554687 -0.8554688,-2.25 -0.4335938,-4.21875 0.3984375,-1.8398437 1.1367188,-3.2929687 2.2734375,-4.3242187 1.125,-1.0429689 2.3203125,-1.5703129 3.5976563,-1.5703129 0.8554687,0 1.5820312,0.210938 2.1328125,0.65625 z m -2.1328125,0.9960941 c -1.3125,0 -2.3320313,0.609375 -3.0703125,1.8398438 -0.3984375,0.65625 -0.7148438,1.5 -0.9257813,2.5546875 -0.2695312,1.2421875 -0.2109375,2.1914062 0.1523438,2.8476562 0.3515625,0.65625 0.9609375,0.9726563 1.828125,0.9726563 1.3359375,0 2.390625,-0.5976563 3.1875,-1.7929688 0.4453125,-0.703125 0.7617187,-1.4765625 0.9609375,-2.390625 0.2929684,-1.3710937 0.2226562,-2.390625 -0.1992188,-3.0351562 -0.421875,-0.65625 -1.078125,-0.9960938 -1.9335937,-0.9960938 z m 0,0"
       style="fill:#000000;fill-opacity:1;fill-rule:nonzero;stroke:none"
       aria-label="g"
       transform="matrix(1.3333333,0,0,1.3333333,148.83805,79.615989)" />
    <path
       id="path11"
       d="m 121.484,100.539 0.766,0.992 0.57,1.153 0.344,1.265 0.094,1.328 -0.164,1.325 -0.418,1.265 -0.649,1.145 -0.839,0.98 -0.989,0.778 -1.09,0.558 -1.132,0.34 -1.133,0.133 -1.078,-0.051 -0.989,-0.203 -0.863,-0.317 -0.711,-0.394 -0.531,-0.43 -0.344,-0.441 -0.14,-0.418 0.062,-0.375 0.266,-0.305 0.449,-0.219 0.613,-0.113 0.758,0.008 0.855,0.152 0.922,0.309 0.934,0.476 0.894,0.661 0.809,0.839 0.664,1.004 0.484,1.149 0.258,1.25 0.016,1.305 -0.246,1.3 -0.496,1.239 -0.727,1.121 -0.922,0.949 -1.066,0.738 -1.168,0.504 -1.203,0.266 -1.199,0.039 -1.141,-0.172 -1.047,-0.34 -0.918,-0.469 -0.773,-0.554 -0.606,-0.594 -0.43,-0.586 -0.246,-0.547 -0.058,-0.473 0.121,-0.367 0.293,-0.25 0.449,-0.113 0.582,0.035 0.691,0.191 0.754,0.36 0.782,0.527 0.754,0.696 0.679,0.855 0.551,1.008 0.383,1.129 0.172,1.222 -0.063,1.266 -0.316,1.254 -0.567,1.195 -0.793,1.071 -0.988,0.898 -1.137,0.687 -1.226,0.446 -1.266,0.195 -1.246,-0.051 -1.176,-0.273 -1.074,-0.469 -0.933,-0.613 -0.778,-0.715 -0.613,-0.762 -0.445,-0.761 -0.278,-0.715 -0.109,-0.629 0.039,-0.512 0.187,-0.363 0.321,-0.199 0.433,-0.028 0.52,0.16 0.582,0.34 0.605,0.524 0.59,0.691 0.528,0.852 0.421,0.988 0.266,1.101 0.078,1.176 -0.144,1.211 -0.383,1.199 -0.617,1.125 -0.848,1.008 -1.035,0.832 -1.184,0.621 -1.277,0.375 -1.309,0.121 -1.281,-0.132 -1.203,-0.368 -1.078,-0.574 -0.926,-0.738 -0.754,-0.848 -0.57,-0.914 -0.399,-0.922 -0.23,-0.886 -0.082,-0.801 0.051,-0.68 0.164,-0.523 0.265,-0.348 0.344,-0.152 0.406,0.047 0.438,0.25 0.449,0.445 0.426,0.629 0.371,0.797 0.273,0.933 0.141,1.043 -0.031,1.117 -0.227,1.145 -0.445,1.121 -0.668,1.051 -0.879,0.926 -1.066,0.757 -1.211,0.539 -1.301,0.301 -1.336,0.039 -1.301,-0.214 -1.215,-0.458 -1.078,-0.668 -0.906,-0.839 -0.711,-0.957 -0.512,-1.036 -0.316,-1.046 -0.141,-1.024 0.012,-0.945 0.141,-0.828 0.238,-0.684 0.305,-0.504 0.351,-0.312 0.371,-0.106 0.375,0.106 0.348,0.312 0.308,0.504 0.235,0.684 0.141,0.828 0.011,0.945 -0.14,1.024 -0.317,1.046 -0.512,1.036 -0.71,0.957 -0.907,0.839 -1.078,0.668 -1.215,0.458 -1.3,0.214 -1.332,-0.039 -1.305,-0.301 -1.207,-0.539 -1.067,-0.757 -0.882,-0.926 -0.668,-1.051 -0.446,-1.121 -0.226,-1.145 -0.032,-1.117 0.141,-1.043 0.274,-0.933 0.371,-0.797 0.425,-0.629 0.45,-0.445 0.441,-0.25 0.402,-0.047 0.344,0.152 0.266,0.348 0.168,0.523 0.051,0.68 -0.083,0.801 -0.234,0.886 -0.394,0.922 -0.575,0.914 -0.754,0.848 -0.921,0.738 -1.082,0.574 -1.204,0.368 -1.281,0.132 -1.308,-0.121 -1.278,-0.375 -1.183,-0.621 -1.036,-0.832 -0.843,-1.008 -0.621,-1.125 -0.383,-1.199 -0.145,-1.211 0.078,-1.176 0.266,-1.101 0.422,-0.988 0.527,-0.852 0.59,-0.691 0.606,-0.524 0.582,-0.34 0.523,-0.16 0.43,0.028 0.32,0.199 0.188,0.363 0.043,0.512 -0.114,0.629 -0.277,0.715 -0.442,0.761 -0.613,0.762 -0.781,0.715 -0.934,0.613 -1.07,0.469 -1.18,0.273 -1.246,0.051 -1.265,-0.195 -1.227,-0.446 -1.137,-0.687 -0.988,-0.898 -0.793,-1.071 -0.562,-1.195 -0.317,-1.254 -0.066,-1.266 0.172,-1.222 0.382,-1.129 0.555,-1.008 0.68,-0.855 0.754,-0.696 0.777,-0.527 0.758,-0.36 0.687,-0.191 0.582,-0.035 0.454,0.113 0.293,0.25 0.121,0.367 -0.063,0.473 -0.246,0.547 -0.43,0.586 -0.605,0.594 -0.77,0.554 -0.922,0.469 -1.046,0.34 -1.141,0.172 -1.195,-0.039 -1.207,-0.266 -1.164,-0.504 -1.071,-0.738 -0.922,-0.949 -0.726,-1.121 -0.496,-1.239 -0.242,-1.3 0.011,-1.305 0.258,-1.25 0.484,-1.149 0.668,-1.004 0.805,-0.839 0.899,-0.661 0.933,-0.476 0.918,-0.309 0.859,-0.152 0.754,-0.008 0.618,0.113 0.449,0.219 0.261,0.305 0.063,0.375 -0.141,0.418 -0.339,0.441 -0.536,0.43 -0.711,0.394 -0.863,0.317 -0.988,0.203 -1.078,0.051 -1.129,-0.133 -1.137,-0.34 -1.086,-0.558 -0.992,-0.778 -0.84,-0.98 -0.648,-1.145 -0.418,-1.265 -0.164,-1.325 0.093,-1.328 0.344,-1.265 0.574,-1.153 0.762,-0.992"
       style="fill:none;stroke:#000000;stroke-width:0.9216;stroke-linecap:square;stroke-linejoin:miter;stroke-miterlimit:3.25;stroke-dasharray:none;stroke-opacity:1"
       transform="scale(1.3333333)" />
    <path
       id="path12"
       d="m 9.7631039,-10.580932 c 0.3164061,0.234375 0.5859371,0.5976563 0.8437501,1.03125 l 0.316406,-1.382812 h 1.710938 L 10.501385,-0.88952575 C 10.196698,0.5050055 9.7631039,1.6300055 9.1654476,2.4268805 c -1.1015625,1.5 -2.7070312,2.2617188 -4.8398437,2.2617188 -1.1953125,0 -2.1328125,-0.2695313 -2.8242188,-0.796875 C 0.79826012,3.3643805 0.50529137,2.5089118 0.65763512,1.372193 H 2.5560726 c -0.023437,0.5039063 0.082031,0.890625 0.2929688,1.1601563 0.3164062,0.3984375 0.9492187,0.609375 1.8398437,0.609375 1.4414063,0 2.4726563,-0.5039063 3.1289063,-1.4882813 0.375,-0.5976562 0.7148437,-1.65234375 1.0078125,-3.1757812 -0.4804688,0.5507812 -1.0078125,0.9726562 -1.5820313,1.2539062 -0.5859375,0.26953125 -1.3125,0.421875 -2.1796875,0.421875 -1.171875,0 -2.1445312,-0.421875 -2.8710937,-1.2773437 -0.7148438,-0.8554688 -0.8554688,-2.25 -0.4335938,-4.21875 0.3984375,-1.8398438 1.1367188,-3.2929688 2.2734375,-4.3242188 1.125,-1.0429685 2.3203125,-1.5703125 3.5976563,-1.5703125 0.8554687,0 1.5820312,0.210938 2.1328125,0.65625 z m -2.1328125,0.9960938 c -1.3125,0 -2.3320313,0.609375 -3.0703125,1.8398437 -0.3984375,0.65625 -0.7148438,1.5 -0.9257813,2.5546875 -0.2695312,1.2421875 -0.2109375,2.1914063 0.1523438,2.8476563 0.3515625,0.65625 0.9609375,0.9726562 1.828125,0.9726562 1.3359375,0 2.390625,-0.5976562 3.1875,-1.7929687 0.4453125,-0.703125 0.7617187,-1.4765625 0.9609375,-2.390625 0.2929691,-1.3710938 0.2226562,-2.390625 -0.1992188,-3.0351563 -0.421875,-0.65625 -1.078125,-0.9960937 -1.9335937,-0.9960937 z m 0,0"
       style="fill:#000000;fill-opacity:1;fill-rule:nonzero;stroke:none"
       aria-label="g"
       transform="matrix(1.3333333,0,0,1.3333333,103.33409,221.48291)"
       clip-path="url(#clipPath13)" />
    <path
       id="path14"
       d="m 79.09,62.836 c 0,0.976 -0.387,1.914 -1.078,2.605 -0.692,0.692 -1.629,1.082 -2.61,1.082 -0.976,0 -1.914,-0.39 -2.605,-1.082 -0.692,-0.691 -1.078,-1.629 -1.078,-2.605 0,-0.977 0.386,-1.914 1.078,-2.606 0.691,-0.691 1.629,-1.082 2.605,-1.082 0.981,0 1.918,0.391 2.61,1.082 0.691,0.692 1.078,1.629 1.078,2.606 z"
       style="fill:#000000;fill-opacity:1;fill-rule:evenodd;stroke:none"
       transform="scale(1.3333333)" />
    <path
       id="path15"
       d="m 49.766,100.539 c 0,0.977 -0.387,1.914 -1.078,2.606 -0.692,0.691 -1.629,1.078 -2.61,1.078 -0.976,0 -1.914,-0.387 -2.605,-1.078 -0.692,-0.692 -1.078,-1.629 -1.078,-2.606 0,-0.98 0.386,-1.918 1.078,-2.609 0.691,-0.692 1.629,-1.078 2.605,-1.078 0.981,0 1.918,0.386 2.61,1.078 0.691,0.691 1.078,1.629 1.078,2.609 z"
       style="fill:#000000;fill-opacity:1;fill-rule:evenodd;stroke:none"
       transform="scale(1.3333333)" />
    <path
       id="path16"
       d="m 125.172,100.539 c 0,0.977 -0.391,1.914 -1.082,2.606 -0.692,0.691 -1.629,1.078 -2.606,1.078 -0.976,0 -1.918,-0.387 -2.605,-1.078 -0.691,-0.692 -1.082,-1.629 -1.082,-2.606 0,-0.98 0.391,-1.918 1.082,-2.609 0.687,-0.692 1.629,-1.078 2.605,-1.078 0.977,0 1.914,0.386 2.606,1.078 0.691,0.691 1.082,1.629 1.082,2.609 z"
       style="fill:#000000;fill-opacity:1;fill-rule:evenodd;stroke:none"
       transform="scale(1.3333333)" />
    <path
       id="path17"
       d="m 230.398,100.539 -1.054,0.906 -1.223,0.672 -1.332,0.406 -1.383,0.106 -1.375,-0.191 -1.308,-0.485 -1.18,-0.746 -1,-0.961 -0.789,-1.117 -0.547,-1.211 -0.293,-1.23 -0.043,-1.176 0.184,-1.047 0.383,-0.86 0.535,-0.621 0.636,-0.339 0.672,-0.047 0.657,0.257 0.566,0.543 0.434,0.797 0.246,1 0.023,1.145 -0.223,1.222 -0.472,1.223 -0.719,1.153 -0.945,1.015 -1.133,0.813 -1.274,0.562 -1.363,0.277 -1.39,-0.019 -1.352,-0.32 -1.258,-0.602 -1.109,-0.844 -0.914,-1.039 -0.688,-1.164 -0.437,-1.23 -0.184,-1.215 0.055,-1.129 0.277,-0.973 0.453,-0.765 0.586,-0.504 0.656,-0.215 0.676,0.086 0.625,0.383 0.516,0.656 0.355,0.891 0.157,1.07 -0.082,1.187 -0.329,1.231 -0.582,1.203 -0.816,1.102 -1.031,0.933 -1.2,0.711 -1.32,0.445 -1.383,0.149 -1.379,-0.149 -1.32,-0.445 -1.199,-0.711 -1.031,-0.933 -0.821,-1.102 -0.582,-1.203 -0.328,-1.231 -0.078,-1.187 0.152,-1.07 0.356,-0.891 0.519,-0.656 0.625,-0.383 0.672,-0.086 0.66,0.215 0.586,0.504 0.454,0.765 0.273,0.973 0.059,1.129 -0.188,1.215 -0.437,1.23 -0.688,1.164 -0.914,1.039 -1.109,0.844 -1.258,0.602 -1.352,0.32 -1.39,0.019 -1.36,-0.277 -1.277,-0.562 -1.133,-0.813 -0.941,-1.015 -0.723,-1.153 -0.473,-1.223 -0.222,-1.222 0.023,-1.145 0.246,-1 0.434,-0.797 0.57,-0.543 0.653,-0.257 0.675,0.047 0.633,0.339 0.535,0.621 0.383,0.86 0.188,1.047 -0.047,1.176 -0.293,1.23 -0.547,1.211 -0.785,1.117 -1.004,0.961 -1.18,0.746 -1.305,0.485 -1.379,0.191 -1.382,-0.106 -1.332,-0.406 -1.223,-0.672 -1.055,-0.906"
       style="fill:none;stroke:#000000;stroke-width:0.9216;stroke-linecap:square;stroke-linejoin:miter;stroke-miterlimit:3.25;stroke-dasharray:none;stroke-opacity:1"
       transform="scale(1.3333333)" />
    <path
       id="path18"
       d="m 9.7620703,-10.581262 c 0.3164067,0.234375 0.5859377,0.5976558 0.8437497,1.0312496 l 0.316407,-1.3828126 h 1.710937 L 10.500352,-0.88985619 C 10.195664,0.50467506 9.7620703,1.6296751 9.1644141,2.4265501 c -1.1015625,1.5 -2.7070313,2.2617187 -4.8398438,2.2617187 -1.1953125,0 -2.1328125,-0.2695312 -2.8242187,-0.796875 C 0.79722656,3.3640501 0.50425781,2.5085813 0.65660156,1.3718626 H 2.5550391 c -0.023437,0.5039062 0.082031,0.890625 0.2929687,1.1601562 0.3164063,0.3984375 0.9492188,0.609375 1.8398438,0.609375 1.4414062,0 2.4726562,-0.5039062 3.1289062,-1.4882812 0.375,-0.5976563 0.7148438,-1.6523437875 1.0078125,-3.1757813 -0.4804687,0.55078126 -1.0078125,0.97265626 -1.5820312,1.25390626 -0.5859375,0.2695312525 -1.3125,0.421875 -2.1796875,0.421875 -1.171875,0 -2.1445313,-0.421875 -2.8710938,-1.27734376 -0.7148437,-0.8554687 -0.8554687,-2.25 -0.4335937,-4.21875 0.3984375,-1.8398437 1.1367187,-3.2929687 2.2734375,-4.3242187 1.125,-1.0429691 2.3203125,-1.5703121 3.5976562,-1.5703121 0.8554688,0 1.5820313,0.210937 2.1328125,0.65625 z m -2.1328125,0.9960933 c -1.3125,0 -2.3320312,0.609375 -3.0703125,1.8398438 -0.3984375,0.65625 -0.7148437,1.5 -0.9257812,2.5546875 -0.2695313,1.2421875 -0.2109375,2.1914062 0.1523437,2.8476562 0.3515625,0.65625 0.9609375,0.9726563 1.828125,0.9726563 1.3359375,0 2.390625,-0.5976563 3.1875,-1.7929688 0.4453125,-0.703125 0.7617188,-1.4765625 0.9609375,-2.390625 0.2929687,-1.3710937 0.2226563,-2.390625 -0.1992187,-3.0351562 -0.421875,-0.65625 -1.078125,-0.9960938 -1.9335938,-0.9960938 z m 0,0"
       style="fill:#000000;fill-opacity:1;fill-rule:nonzero;stroke:none"
       aria-label="g"
       transform="matrix(1.3333333,0,0,1.3333333,268.105,171.21382)" />
    <path
       id="path19"
       d="m 305.805,100.539 1.054,-0.906 1.223,-0.676 1.332,-0.402 1.383,-0.11 1.379,0.196 1.304,0.484 1.18,0.742 1,0.961 0.789,1.121 0.547,1.211 0.293,1.231 0.043,1.171 -0.184,1.051 -0.382,0.86 -0.536,0.621 -0.636,0.34 -0.672,0.043 -0.652,-0.258 -0.571,-0.543 -0.433,-0.793 -0.246,-1 -0.024,-1.149 0.223,-1.218 0.472,-1.227 0.719,-1.152 0.945,-1.012 1.133,-0.813 1.274,-0.562 1.363,-0.281 1.391,0.023 1.351,0.32 1.258,0.602 1.109,0.844 0.914,1.035 0.688,1.168 0.437,1.227 0.184,1.214 -0.055,1.129 -0.273,0.977 -0.457,0.762 -0.582,0.503 -0.66,0.215 -0.676,-0.086 -0.621,-0.382 -0.52,-0.657 -0.355,-0.89 -0.156,-1.071 0.082,-1.187 0.328,-1.231 0.582,-1.203 0.82,-1.101 1.027,-0.934 1.204,-0.711 1.316,-0.441 1.383,-0.153 1.383,0.153 1.316,0.441 1.203,0.711 1.027,0.934 0.821,1.101 0.582,1.203 0.328,1.231 0.082,1.187 -0.156,1.071 -0.356,0.89 -0.519,0.657 -0.621,0.382 -0.676,0.086 -0.66,-0.215 -0.582,-0.503 -0.457,-0.762 -0.274,-0.977 -0.058,-1.129 0.187,-1.214 0.438,-1.227 0.687,-1.168 0.914,-1.035 1.109,-0.844 1.258,-0.602 1.352,-0.32 1.39,-0.023 1.36,0.281 1.277,0.562 1.133,0.813 0.945,1.012 0.719,1.152 0.473,1.227 0.222,1.218 -0.023,1.149 -0.246,1 -0.434,0.793 -0.57,0.543 -0.652,0.258 -0.672,-0.043 -0.637,-0.34 -0.535,-0.621 -0.383,-0.86 -0.184,-1.051 0.043,-1.171 0.293,-1.231 0.547,-1.211 0.789,-1.121 1,-0.961 1.18,-0.742 1.305,-0.484 1.379,-0.196 1.382,0.11 1.332,0.402 1.223,0.676 1.055,0.906"
       style="fill:none;stroke:#000000;stroke-width:0.9216;stroke-linecap:square;stroke-linejoin:miter;stroke-miterlimit:3.25;stroke-dasharray:none;stroke-opacity:1"
       transform="scale(1.3333333)" />
    <path
       id="path20"
       d="m 9.7608562,-10.580756 c 0.3164058,0.234375 0.5859378,0.5976562 0.8437498,1.0312499 l 0.316406,-1.3828129 H 12.63195 L 10.499137,-0.88934981 C 10.19445,0.50518144 9.7608562,1.6301814 9.1631999,2.4270564 c -1.1015625,1.5 -2.7070312,2.2617188 -4.8398437,2.2617188 -1.1953125,0 -2.1328125,-0.2695313 -2.8242188,-0.796875 C 0.79601244,3.3645564 0.50304369,2.5090877 0.65538744,1.3723689 H 2.5538249 c -0.023437,0.5039063 0.082031,0.890625 0.2929688,1.1601563 0.3164062,0.3984375 0.9492187,0.609375 1.8398437,0.609375 1.4414063,0 2.4726563,-0.5039063 3.1289063,-1.4882813 0.375,-0.5976562 0.7148437,-1.65234371 1.0078125,-3.1757812 -0.4804688,0.55078124 -1.0078125,0.97265624 -1.5820313,1.25390624 -0.5859375,0.26953125 -1.3125,0.421875 -2.1796875,0.421875 -1.171875,0 -2.1445312,-0.421875 -2.8710937,-1.27734374 -0.7148438,-0.8554688 -0.8554688,-2.25 -0.4335938,-4.21875 0.3984375,-1.8398438 1.1367188,-3.2929688 2.2734375,-4.3242188 1.125,-1.0429684 2.3203125,-1.5703124 3.5976563,-1.5703124 0.8554687,0 1.5820312,0.210937 2.1328125,0.65625 z m -2.1328125,0.9960937 c -1.3125,0 -2.3320313,0.609375 -3.0703125,1.8398437 -0.3984375,0.65625 -0.7148438,1.5 -0.9257813,2.5546875 -0.2695312,1.2421875 -0.2109375,2.1914063 0.1523438,2.8476563 0.3515625,0.65625 0.9609375,0.9726562 1.828125,0.9726562 1.3359375,0 2.390625,-0.5976562 3.1875,-1.7929687 0.4453125,-0.703125 0.7617187,-1.4765625 0.9609375,-2.390625 0.2929688,-1.3710938 0.2226562,-2.390625 -0.1992188,-3.0351563 -0.421875,-0.65625 -1.078125,-0.9960937 -1.9335937,-0.9960937 z m 0,0"
       style="fill:#000000;fill-opacity:1;fill-rule:nonzero;stroke:none"
       aria-label="g"
       transform="matrix(1.3333333,0,0,1.3333333,430.08318,179.03346)" />
    <path
       id="path21"
       d="m 305.805,100.539 0.859,-0.949 0.656,-1.133 0.414,-1.269 0.137,-1.344 -0.144,-1.348 -0.426,-1.277 -0.672,-1.145 -0.883,-0.957 -1.035,-0.738 -1.133,-0.496 -1.168,-0.262 -1.144,-0.051 -1.075,0.137 -0.957,0.281 -0.804,0.383 -0.618,0.445 -0.41,0.469 -0.191,0.465 0.035,0.434 0.258,0.375 0.473,0.296 0.664,0.196 0.82,0.074 0.941,-0.074 1.012,-0.242 1.027,-0.434 0.985,-0.637 0.883,-0.836 0.722,-1.023 0.512,-1.18 0.258,-1.289 -0.02,-1.34 -0.304,-1.316 -0.575,-1.227 -0.812,-1.07 -1.004,-0.863 -1.141,-0.617 -1.211,-0.364 -1.226,-0.109 -1.184,0.125 -1.09,0.312 -0.964,0.461 -0.809,0.559 -0.625,0.601 -0.426,0.602 -0.222,0.559 -0.016,0.484 0.195,0.387 0.391,0.261 0.566,0.122 0.711,-0.032 0.824,-0.195 0.887,-0.371 0.899,-0.559 0.843,-0.742 0.739,-0.922 0.574,-1.082 0.355,-1.207 0.106,-1.285 -0.176,-1.309 -0.453,-1.265 -0.711,-1.149 -0.942,-0.976 -1.113,-0.746 -1.222,-0.492 -1.274,-0.215 -1.258,0.047 -1.191,0.289 -1.074,0.488 -0.926,0.637 -0.762,0.73 -0.578,0.77 -0.394,0.75 -0.204,0.683 -0.023,0.578 0.16,0.446 0.324,0.281 0.473,0.105 0.598,-0.078 0.687,-0.265 0.738,-0.457 0.739,-0.645 0.683,-0.82 0.575,-0.985 0.41,-1.113 0.195,-1.215 -0.051,-1.265 -0.32,-1.258 -0.59,-1.184 -0.836,-1.051 -1.047,-0.859 -1.203,-0.617 -1.293,-0.352 -1.312,-0.066 -1.27,0.203 -1.172,0.449 -1.027,0.649 -0.856,0.8 -0.675,0.891 -0.485,0.918 -0.301,0.895 -0.132,0.816 0.027,0.687 0.172,0.532 0.301,0.344 0.406,0.14 0.5,-0.07 0.559,-0.285 0.582,-0.489 0.57,-0.683 0.504,-0.86 0.398,-1.003 0.235,-1.126 0.031,-1.195 -0.203,-1.219 -0.457,-1.187 -0.711,-1.09 -0.942,-0.933 -1.136,-0.727 -1.27,-0.473 -1.336,-0.199 -1.332,0.09 -1.262,0.355 -1.129,0.602"
       style="fill:none;stroke:#000000;stroke-width:0.9216;stroke-linecap:square;stroke-linejoin:miter;stroke-miterlimit:3.25;stroke-dasharray:none;stroke-opacity:1"
       transform="scale(1.3333333)" />
    <path
       id="path22"
       d="m 9.7618816,-10.582258 c 0.3164064,0.234375 0.5859374,0.5976558 0.8437504,1.0312496 l 0.316406,-1.3828126 h 1.710937 L 10.500163,-0.89085219 C 10.195475,0.50367906 9.7618816,1.6286791 9.1642254,2.4255541 c -1.1015625,1.5 -2.7070313,2.2617187 -4.8398438,2.2617187 -1.1953125,0 -2.1328125,-0.2695312 -2.8242187,-0.796875 C 0.79703788,3.3630541 0.50406913,2.5075853 0.65641288,1.3708666 H 2.5548504 c -0.023437,0.5039062 0.082031,0.890625 0.2929687,1.1601562 0.3164063,0.3984375 0.9492188,0.609375 1.8398438,0.609375 1.4414062,0 2.4726562,-0.5039062 3.1289062,-1.4882812 0.375,-0.5976563 0.7148438,-1.6523437875 1.0078125,-3.1757813 -0.4804687,0.55078126 -1.0078125,0.97265626 -1.5820312,1.25390626 -0.5859375,0.2695312525 -1.3125,0.421875 -2.1796875,0.421875 -1.171875,0 -2.1445313,-0.421875 -2.8710938,-1.27734376 -0.7148437,-0.8554687 -0.8554687,-2.25 -0.4335937,-4.21875 0.3984375,-1.8398437 1.1367187,-3.2929687 2.2734375,-4.3242187 1.125,-1.0429691 2.3203125,-1.5703121 3.5976562,-1.5703121 0.8554688,0 1.5820313,0.210937 2.1328125,0.65625 z m -2.1328125,0.9960933 c -1.3125,0 -2.3320312,0.609375 -3.0703125,1.8398438 -0.3984375,0.65625 -0.7148437,1.5 -0.9257812,2.5546875 -0.2695313,1.2421875 -0.2109375,2.1914062 0.1523437,2.8476562 0.3515625,0.65625 0.9609375,0.9726563 1.828125,0.9726563 1.3359375,0 2.390625,-0.5976563 3.1875,-1.7929688 0.4453125,-0.703125 0.7617188,-1.4765625 0.9609375,-2.390625 0.2929684,-1.3710937 0.2226563,-2.390625 -0.1992187,-3.0351562 -0.421875,-0.65625 -1.078125,-0.9960938 -1.9335938,-0.9960938 z m 0,0"
       style="fill:#000000;fill-opacity:1;fill-rule:nonzero;stroke:none"
       aria-label="g"
       transform="matrix(1.3333333,0,0,1.3333333,404.60135,91.340147)" />
    <path
       id="path23"
       d="m 230.398,100.539 -0.789,-0.934 -0.613,-1.089 -0.402,-1.211 -0.164,-1.285 0.086,-1.297 0.328,-1.258 0.558,-1.156 0.758,-1.008 0.91,-0.828 1.028,-0.625 1.086,-0.414 1.105,-0.211 1.07,-0.028 1,0.129 0.895,0.254 0.754,0.34 0.597,0.398 0.418,0.422 0.227,0.418 0.031,0.391 -0.164,0.34 -0.355,0.273 -0.528,0.192 -0.679,0.086 -0.801,-0.036 -0.887,-0.175 -0.929,-0.332 -0.93,-0.5 -0.883,-0.676 -0.781,-0.848 -0.637,-1.004 -0.449,-1.14 -0.231,-1.231 0.012,-1.281 0.258,-1.266 0.496,-1.203 0.719,-1.082 0.898,-0.914 1.039,-0.711 1.129,-0.488 1.172,-0.262 1.16,-0.043 1.11,0.156 1.019,0.313 0.902,0.441 0.762,0.52 0.602,0.562 0.433,0.563 0.254,0.527 0.074,0.461 -0.101,0.375 -0.277,0.266 -0.43,0.14 -0.57,0.008 -0.676,-0.137 -0.754,-0.293 -0.793,-0.453 -0.781,-0.613 -0.723,-0.773 -0.621,-0.926 -0.469,-1.059 -0.277,-1.16 -0.063,-1.223 0.18,-1.242 0.422,-1.211 0.656,-1.117 0.859,-0.976 1.024,-0.793 1.148,-0.575 1.211,-0.339 1.223,-0.098 1.187,0.129 1.114,0.332 0.996,0.5 0.863,0.621 0.711,0.703 0.551,0.73 0.39,0.719 0.227,0.664 0.066,0.571 -0.082,0.457 -0.222,0.312 -0.352,0.156 -0.461,-0.007 -0.547,-0.184 -0.605,-0.352 -0.629,-0.523 -0.606,-0.684 -0.546,-0.836 -0.442,-0.968 -0.289,-1.078 -0.105,-1.157 0.105,-1.187 0.34,-1.184 0.57,-1.121 0.793,-1.008 0.977,-0.847 1.129,-0.649 1.226,-0.422 1.27,-0.172 1.254,0.071 1.187,0.301 1.082,0.503 0.942,0.668 0.785,0.79 0.617,0.863 0.445,0.89 0.285,0.864 0.137,0.797 0.004,0.691 -0.121,0.555 -0.227,0.394 -0.312,0.219 -0.387,0.027 -0.437,-0.164 -0.469,-0.355 -0.465,-0.535 -0.43,-0.704 -0.359,-0.847 -0.254,-0.973 -0.105,-1.062 0.07,-1.118 0.27,-1.128 0.488,-1.094 0.703,-1.012 0.902,-0.879 1.074,-0.699 1.2,-0.488 1.277,-0.25 1.297,-0.004 1.254,0.242 1.164,0.473 1.027,0.664 0.86,0.824 0.675,0.933 0.489,1 0.304,1.008 0.141,0.981 -0.004,0.902 -0.125,0.793 -0.219,0.649 -0.289,0.48 -0.34,0.293 -0.367,0.094 -0.375,-0.11 -0.363,-0.304 -0.332,-0.493 -0.27,-0.664 -0.187,-0.808 -0.07,-0.926 0.07,-1.004 0.242,-1.047 0.422,-1.039 0.625,-0.984 0.812,-0.883 0.993,-0.73 1.14,-0.54 1.242,-0.32 1.297,-0.074 1.289,0.172 1.227,0.418 1.105,0.633 0.95,0.816 0.757,0.961"
       style="fill:none;stroke:#000000;stroke-width:0.9216;stroke-linecap:square;stroke-linejoin:miter;stroke-miterlimit:3.25;stroke-dasharray:none;stroke-opacity:1"
       transform="scale(1.3333333)" />
    <path
       id="path24"
       d="m 9.7617882,-10.583061 c 0.3164058,0.234375 0.5859378,0.5976562 0.8437498,1.0312499 l 0.316406,-1.3828129 h 1.710938 L 10.500069,-0.89165481 C 10.195382,0.50287644 9.7617882,1.6278764 9.1641319,2.4247514 c -1.1015625,1.5 -2.7070312,2.2617188 -4.8398437,2.2617188 -1.1953125,0 -2.1328125,-0.2695313 -2.8242188,-0.796875 C 0.79694444,3.3622514 0.50397569,2.5067827 0.65631944,1.3700639 H 2.5547569 c -0.023437,0.5039063 0.082031,0.890625 0.2929688,1.1601563 0.3164062,0.3984375 0.9492187,0.609375 1.8398437,0.609375 1.4414063,0 2.4726563,-0.5039063 3.1289063,-1.4882813 0.375,-0.5976562 0.7148437,-1.65234371 1.0078125,-3.1757812 -0.4804688,0.55078124 -1.0078125,0.97265624 -1.5820313,1.25390624 -0.5859375,0.26953125 -1.3125,0.421875 -2.1796875,0.421875 -1.171875,0 -2.1445312,-0.421875 -2.8710937,-1.27734374 -0.7148438,-0.8554688 -0.8554688,-2.25 -0.4335938,-4.21875 0.3984375,-1.8398438 1.1367188,-3.2929688 2.2734375,-4.3242188 1.125,-1.0429684 2.3203125,-1.5703124 3.5976563,-1.5703124 0.8554687,0 1.5820312,0.210937 2.1328125,0.65625 z m -2.1328125,0.9960937 c -1.3125,0 -2.3320313,0.609375 -3.0703125,1.8398437 -0.3984375,0.65625 -0.7148438,1.5 -0.9257813,2.5546875 -0.2695312,1.2421875 -0.2109375,2.1914063 0.1523438,2.8476563 0.3515625,0.65625 0.9609375,0.9726562 1.828125,0.9726562 1.3359375,0 2.390625,-0.5976562 3.1875,-1.7929687 0.4453125,-0.703125 0.7617187,-1.4765625 0.9609375,-2.390625 0.2929688,-1.3710938 0.2226562,-2.390625 -0.1992188,-3.0351563 -0.421875,-0.65625 -1.078125,-0.9960937 -1.9335937,-0.9960937 z m 0,0"
       style="fill:#000000;fill-opacity:1;fill-rule:nonzero;stroke:none"
       aria-label="g"
       transform="matrix(1.3333333,0,0,1.3333333,304.39444,80.599029)" />
    <path
       id="path25"
       d="m 230.398,100.539 0.891,0.887 1.066,0.711 1.211,0.496 1.297,0.25 1.325,-0.008 1.292,-0.273 1.204,-0.516 1.054,-0.727 0.875,-0.902 0.668,-1.023 0.453,-1.094 0.246,-1.113 0.059,-1.079 -0.101,-1 -0.235,-0.878 -0.328,-0.727 -0.391,-0.551 -0.422,-0.344 -0.425,-0.136 -0.407,0.082 -0.355,0.293 -0.293,0.488 -0.199,0.672 -0.086,0.816 0.058,0.93 0.215,1 0.399,1.019 0.59,0.985 0.785,0.898 0.965,0.762 1.121,0.578 1.242,0.352 1.305,0.105 1.312,-0.16 1.262,-0.414 1.144,-0.652 0.985,-0.856 0.777,-1.015 0.555,-1.118 0.324,-1.172 0.102,-1.171 -0.098,-1.125 -0.262,-1.036 -0.39,-0.906 -0.473,-0.754 -0.52,-0.574 -0.519,-0.383 -0.492,-0.183 -0.43,0.027 -0.352,0.223 -0.246,0.418 -0.121,0.582 0.016,0.722 0.168,0.828 0.34,0.891 0.511,0.902 0.692,0.864 0.867,0.765 1.027,0.625 1.156,0.434 1.25,0.207 1.293,-0.043 1.278,-0.301 1.203,-0.555 1.074,-0.781 0.887,-0.969 0.672,-1.109 0.433,-1.199 0.184,-1.227 -0.047,-1.211 -0.254,-1.136 -0.426,-1.035 -0.55,-0.895 -0.633,-0.738 -0.66,-0.563 -0.645,-0.379 -0.59,-0.191 -0.504,-0.008 -0.382,0.176 -0.25,0.344 -0.094,0.492 0.074,0.617 0.242,0.707 0.422,0.758 0.598,0.765 0.769,0.719 0.926,0.621 1.066,0.477 1.176,0.285 1.242,0.059 1.258,-0.184 1.223,-0.437 1.125,-0.68 0.98,-0.899 0.778,-1.07 0.55,-1.191 0.297,-1.258 0.047,-1.266 -0.195,-1.222 -0.41,-1.129 -0.582,-1 -0.707,-0.852 -0.785,-0.68 -0.805,-0.507 -0.778,-0.328 -0.707,-0.161 -0.593,0.004 -0.457,0.16 -0.289,0.297 -0.11,0.418 0.078,0.52 0.274,0.586 0.461,0.621 0.644,0.613 0.813,0.563 0.961,0.461 1.086,0.316 1.168,0.133 1.211,-0.082 1.207,-0.325 1.148,-0.562 1.031,-0.793 0.867,-0.996 0.657,-1.152 0.418,-1.254 0.156,-1.301 -0.102,-1.285 -0.339,-1.215 -0.559,-1.098 -0.727,-0.945 -0.847,-0.773 -0.918,-0.594 -0.938,-0.41 -0.902,-0.239 -0.816,-0.078 -0.696,0.063 -0.539,0.187 -0.359,0.293 -0.16,0.379 0.05,0.445 0.254,0.485 0.461,0.488 0.649,0.469 0.816,0.402 0.957,0.297 1.07,0.156 1.137,-0.019 1.164,-0.231 1.137,-0.449 1.055,-0.68 0.925,-0.89 0.743,-1.074 0.519,-1.215 0.274,-1.297 0.011,-1.321 -0.246,-1.285 -0.488,-1.187 -0.692,-1.047"
       style="fill:none;stroke:#000000;stroke-width:0.9216;stroke-linecap:square;stroke-linejoin:miter;stroke-miterlimit:3.25;stroke-dasharray:none;stroke-opacity:1"
       transform="scale(1.3333333)" />
    <path
       id="path26"
       d="m 9.7615839,-10.581461 c 0.3164061,0.234375 0.5859371,0.5976567 0.8437501,1.0312504 l 0.316406,-1.3828124 h 1.710938 L 10.499865,-0.89005431 C 10.195178,0.50447694 9.7615839,1.6294769 9.1639277,2.4263519 c -1.1015625,1.5 -2.7070313,2.2617188 -4.8398438,2.2617188 -1.1953125,0 -2.1328125,-0.2695313 -2.8242187,-0.796875 C 0.79674019,3.3638519 0.50377144,2.5083832 0.65611519,1.3716644 H 2.5545527 c -0.023437,0.5039063 0.082031,0.890625 0.2929687,1.1601563 0.3164063,0.3984375 0.9492188,0.609375 1.8398438,0.609375 1.4414062,0 2.4726562,-0.5039063 3.1289062,-1.4882813 0.375,-0.5976562 0.7148438,-1.6523437125 1.0078125,-3.1757812 -0.4804687,0.55078124 -1.0078125,0.97265624 -1.5820312,1.25390624 -0.5859375,0.2695312475 -1.3125,0.421875 -2.1796875,0.421875 -1.171875,0 -2.1445313,-0.421875 -2.8710938,-1.27734374 -0.7148437,-0.8554688 -0.8554687,-2.25 -0.4335937,-4.21875 0.3984375,-1.8398438 1.1367187,-3.2929688 2.2734375,-4.3242188 1.125,-1.0429689 2.3203125,-1.5703129 3.5976562,-1.5703129 0.8554688,0 1.5820313,0.210938 2.1328125,0.65625 z m -2.1328125,0.9960942 c -1.3125,0 -2.3320312,0.609375 -3.0703125,1.8398437 -0.3984375,0.65625 -0.7148437,1.5 -0.9257812,2.5546875 -0.2695313,1.2421875 -0.2109375,2.1914063 0.1523437,2.8476563 0.3515625,0.65625 0.9609375,0.9726562 1.828125,0.9726562 1.3359375,0 2.390625,-0.5976562 3.1875,-1.7929687 0.4453125,-0.703125 0.7617188,-1.4765625 0.9609375,-2.390625 0.2929691,-1.3710938 0.2226563,-2.390625 -0.1992187,-3.0351563 -0.421875,-0.65625 -1.078125,-0.9960937 -1.9335938,-0.9960937 z m 0,0"
       style="fill:#000000;fill-opacity:1;fill-rule:nonzero;stroke:none"
       aria-label="g"
       transform="matrix(1.3333333,0,0,1.3333333,352.78534,155.19065)" />
    <path
       id="path27"
       d="m 230.398,100.539 -0.761,0.992 -0.575,1.153 -0.343,1.265 -0.094,1.328 0.164,1.325 0.418,1.265 0.648,1.145 0.84,0.98 0.993,0.778 1.085,0.558 1.137,0.34 1.129,0.133 1.078,-0.051 0.988,-0.203 0.864,-0.317 0.711,-0.394 0.531,-0.43 0.344,-0.441 0.14,-0.418 -0.062,-0.375 -0.262,-0.305 -0.449,-0.219 -0.617,-0.113 -0.754,0.008 -0.86,0.152 -0.918,0.309 -0.933,0.476 -0.899,0.661 -0.804,0.839 -0.668,1.004 -0.485,1.149 -0.257,1.25 -0.012,1.305 0.242,1.3 0.496,1.239 0.727,1.121 0.922,0.949 1.07,0.738 1.164,0.504 1.207,0.266 1.195,0.039 1.141,-0.172 1.047,-0.34 0.922,-0.469 0.769,-0.554 0.606,-0.594 0.429,-0.586 0.246,-0.547 0.059,-0.473 -0.117,-0.367 -0.293,-0.25 -0.453,-0.113 -0.582,0.035 -0.692,0.191 -0.754,0.36 -0.777,0.527 -0.758,0.696 -0.676,0.855 -0.554,1.008 -0.383,1.129 -0.172,1.222 0.066,1.266 0.317,1.254 0.562,1.195 0.793,1.071 0.989,0.898 1.136,0.687 1.227,0.446 1.266,0.195 1.246,-0.051 1.179,-0.273 1.071,-0.469 0.933,-0.613 0.781,-0.715 0.614,-0.762 0.441,-0.761 0.278,-0.715 0.113,-0.629 -0.043,-0.512 -0.188,-0.363 -0.32,-0.199 -0.43,-0.028 -0.523,0.16 -0.582,0.34 -0.606,0.524 -0.589,0.691 -0.528,0.852 -0.422,0.988 -0.265,1.101 -0.078,1.176 0.144,1.211 0.383,1.199 0.621,1.125 0.844,1.008 1.035,0.832 1.184,0.621 1.277,0.375 1.308,0.121 1.282,-0.132 1.203,-0.368 1.078,-0.574 0.926,-0.738 0.754,-0.848 0.574,-0.914 0.394,-0.922 0.235,-0.886 0.082,-0.801 -0.051,-0.68 -0.168,-0.523 -0.266,-0.348 -0.343,-0.152 -0.403,0.047 -0.441,0.25 -0.449,0.445 -0.426,0.629 -0.371,0.797 -0.274,0.933 -0.14,1.043 0.031,1.117 0.227,1.145 0.445,1.121 0.668,1.051 0.883,0.926 1.062,0.757 1.211,0.539 1.305,0.301 1.332,0.039 1.301,-0.214 1.214,-0.458 1.079,-0.668 0.906,-0.839 0.711,-0.957 0.511,-1.036 0.317,-1.046 0.141,-1.024 -0.012,-0.945 -0.141,-0.828 -0.234,-0.684 -0.309,-0.504 -0.351,-0.312 -0.371,-0.106 -0.372,0.106 -0.351,0.312 -0.309,0.504 -0.234,0.684 -0.141,0.828 -0.011,0.945 0.14,1.024 0.317,1.046 0.511,1.036 0.711,0.957 0.907,0.839 1.078,0.668 1.214,0.458 1.301,0.214 1.336,-0.039 1.301,-0.301 1.211,-0.539 1.066,-0.757 0.879,-0.926 0.668,-1.051 0.446,-1.121 0.226,-1.145 0.031,-1.117 -0.14,-1.043 -0.274,-0.933 -0.371,-0.797 -0.426,-0.629 -0.449,-0.445 -0.437,-0.25 -0.407,-0.047 -0.343,0.152 -0.266,0.348 -0.164,0.523 -0.055,0.68 0.082,0.801 0.235,0.886 0.398,0.922 0.57,0.914 0.754,0.848 0.926,0.738 1.078,0.574 1.203,0.368 1.282,0.132 1.308,-0.121 1.278,-0.375 1.183,-0.621 1.035,-0.832 0.844,-1.008 0.621,-1.125 0.383,-1.199 0.145,-1.211 -0.079,-1.176 -0.265,-1.101 -0.422,-0.988 -0.527,-0.852 -0.59,-0.691 -0.606,-0.524 -0.582,-0.34 -0.523,-0.16 -0.43,0.028 -0.32,0.199 -0.188,0.363 -0.039,0.512 0.11,0.629 0.277,0.715 0.445,0.761 0.61,0.762 0.781,0.715 0.933,0.613 1.071,0.469 1.179,0.273 1.247,0.051 1.265,-0.195 1.227,-0.446 1.136,-0.687 0.989,-0.898 0.793,-1.071 0.562,-1.195 0.321,-1.254 0.062,-1.266 -0.172,-1.222 -0.383,-1.129 -0.55,-1.008 -0.68,-0.855 -0.754,-0.696 -0.781,-0.527 -0.754,-0.36 -0.692,-0.191 -0.582,-0.035 -0.449,0.113 -0.293,0.25 -0.121,0.367 0.059,0.473 0.246,0.547 0.429,0.586 0.606,0.594 0.769,0.554 0.922,0.469 1.047,0.34 1.141,0.172 1.195,-0.039 1.207,-0.266 1.164,-0.504 1.071,-0.738 0.921,-0.949 0.727,-1.121 0.496,-1.239 0.242,-1.3 -0.011,-1.305 -0.258,-1.25 -0.485,-1.149 -0.664,-1.004 -0.808,-0.839 -0.895,-0.661 -0.933,-0.476 -0.922,-0.309 -0.856,-0.152 -0.758,-0.008 -0.613,0.113 -0.453,0.219 -0.262,0.305 -0.062,0.375 0.14,0.418 0.344,0.441 0.531,0.43 0.711,0.394 0.864,0.317 0.988,0.203 1.078,0.051 1.133,-0.133 1.133,-0.34 1.09,-0.558 0.988,-0.778 0.84,-0.98 0.648,-1.145 0.418,-1.265 0.164,-1.325 -0.094,-1.328 -0.343,-1.265 -0.575,-1.153 -0.761,-0.992"
       style="fill:none;stroke:#000000;stroke-width:0.9216;stroke-linecap:square;stroke-linejoin:miter;stroke-miterlimit:3.25;stroke-dasharray:none;stroke-opacity:1"
       transform="scale(1.3333333)" />
    <path
       id="path28"
       d="m 9.7614633,-10.580932 c 0.3164067,0.234375 0.5859377,0.5976563 0.8437497,1.03125 l 0.316407,-1.382812 h 1.710937 L 10.499745,-0.88952575 C 10.195057,0.5050055 9.7614633,1.6300055 9.163807,2.4268805 c -1.1015625,1.5 -2.7070312,2.2617188 -4.8398437,2.2617188 -1.1953125,0 -2.1328125,-0.2695313 -2.8242188,-0.796875 C 0.7966195,3.3643805 0.50365075,2.5089118 0.6559945,1.372193 H 2.554432 c -0.023437,0.5039063 0.082031,0.890625 0.2929688,1.1601563 0.3164062,0.3984375 0.9492187,0.609375 1.8398437,0.609375 1.4414063,0 2.4726563,-0.5039063 3.1289063,-1.4882813 0.375,-0.5976562 0.7148437,-1.65234375 1.0078125,-3.1757812 C 8.3434945,-0.971557 7.8161508,-0.549682 7.241932,-0.268432 6.6559945,0.00109925 5.929432,0.153443 5.0622445,0.153443 c -1.171875,0 -2.1445312,-0.421875 -2.8710937,-1.2773437 -0.7148438,-0.8554688 -0.8554688,-2.25 -0.4335938,-4.21875 0.3984375,-1.8398438 1.1367188,-3.2929688 2.2734375,-4.3242188 1.125,-1.0429685 2.3203125,-1.5703125 3.5976563,-1.5703125 0.8554687,0 1.5820312,0.210938 2.1328125,0.65625 z m -2.1328125,0.9960938 c -1.3125,0 -2.3320313,0.609375 -3.0703125,1.8398437 -0.3984375,0.65625 -0.7148438,1.5 -0.9257813,2.5546875 -0.2695312,1.2421875 -0.2109375,2.1914063 0.1523438,2.8476563 0.3515625,0.65625 0.9609375,0.9726562 1.828125,0.9726562 1.3359375,0 2.390625,-0.5976562 3.1875,-1.7929687 0.4453125,-0.703125 0.7617187,-1.4765625 0.9609375,-2.390625 0.2929687,-1.3710938 0.2226562,-2.390625 -0.1992188,-3.0351563 -0.421875,-0.65625 -1.078125,-0.9960937 -1.9335937,-0.9960937 z m 0,0"
       style="fill:#000000;fill-opacity:1;fill-rule:nonzero;stroke:none"
       aria-label="g"
       transform="matrix(1.3333333,0,0,1.3333333,349.09409,221.48291)" />
    <path
       id="path29"
       d="m 280.168,62.836 c 0,0.976 -0.391,1.914 -1.082,2.605 -0.691,0.692 -1.629,1.082 -2.606,1.082 -0.976,0 -1.914,-0.39 -2.605,-1.082 -0.691,-0.691 -1.082,-1.629 -1.082,-2.605 0,-0.977 0.391,-1.914 1.082,-2.606 0.691,-0.691 1.629,-1.082 2.605,-1.082 0.977,0 1.915,0.391 2.606,1.082 0.691,0.692 1.082,1.629 1.082,2.606 z"
       style="fill:#000000;fill-opacity:1;fill-rule:evenodd;stroke:none"
       transform="scale(1.3333333)" />
    <path
       id="path30"
       d="m 309.488,100.539 c 0,0.977 -0.386,1.914 -1.078,2.606 -0.691,0.691 -1.629,1.078 -2.605,1.078 -0.981,0 -1.918,-0.387 -2.61,-1.078 -0.691,-0.692 -1.078,-1.629 -1.078,-2.606 0,-0.98 0.387,-1.918 1.078,-2.609 0.692,-0.692 1.629,-1.078 2.61,-1.078 0.976,0 1.914,0.386 2.605,1.078 0.692,0.691 1.078,1.629 1.078,2.609 z"
       style="fill:#000000;fill-opacity:1;fill-rule:evenodd;stroke:none"
       transform="scale(1.3333333)" />
    <path
       id="path31"
       d="m 234.086,100.539 c 0,0.977 -0.387,1.914 -1.078,2.606 -0.692,0.691 -1.629,1.078 -2.61,1.078 -0.976,0 -1.914,-0.387 -2.605,-1.078 -0.691,-0.692 -1.078,-1.629 -1.078,-2.606 0,-0.98 0.387,-1.918 1.078,-2.609 0.691,-0.692 1.629,-1.078 2.605,-1.078 0.981,0 1.918,0.386 2.61,1.078 0.691,0.691 1.078,1.629 1.078,2.609 z"
       style="fill:#000000;fill-opacity:1;fill-rule:evenodd;stroke:none"
       transform="scale(1.3333333)" />
    <path
       id="path32"
       d="m 418.91,100.539 -0.996,0.836 -1.141,0.648 -1.238,0.426 -1.297,0.18 -1.304,-0.074 -1.27,-0.325 -1.184,-0.558 -1.062,-0.762 -0.898,-0.93 -0.715,-1.05 -0.504,-1.118 -0.297,-1.124 -0.082,-1.083 0.109,-0.976 0.281,-0.832 0.418,-0.637 0.52,-0.41 0.574,-0.168 0.582,0.09 0.543,0.336 0.457,0.57 0.328,0.77 0.164,0.937 -0.019,1.055 -0.231,1.121 -0.437,1.125 -0.649,1.074 -0.843,0.973 -1.016,0.82 -1.148,0.625 -1.25,0.402 -1.297,0.153 -1.305,-0.102 -1.262,-0.347 -1.175,-0.582 -1.043,-0.782 -0.883,-0.945 -0.692,-1.059 -0.484,-1.121 -0.273,-1.125 -0.063,-1.07 0.129,-0.969 0.297,-0.808 0.434,-0.614 0.527,-0.386 0.578,-0.141 0.578,0.113 0.535,0.364 0.446,0.589 0.312,0.793 0.148,0.95 -0.042,1.066 -0.25,1.121 -0.465,1.125 -0.668,1.067 -0.864,0.96 -1.027,0.801 -1.164,0.602 -1.254,0.375 -1.305,0.125 -1.3,-0.125 -1.254,-0.375 -1.164,-0.602 -1.028,-0.801 -0.863,-0.96 -0.672,-1.067 -0.461,-1.125 -0.25,-1.121 -0.043,-1.066 0.149,-0.95 0.312,-0.793 0.446,-0.589 0.535,-0.364 0.578,-0.113 0.578,0.141 0.527,0.386 0.43,0.614 0.301,0.808 0.129,0.969 -0.067,1.07 -0.269,1.125 -0.485,1.121 -0.691,1.059 -0.883,0.945 -1.047,0.782 -1.172,0.582 -1.261,0.347 -1.305,0.102 -1.301,-0.153 -1.246,-0.402 -1.152,-0.625 -1.012,-0.82 -0.844,-0.973 -0.648,-1.074 -0.442,-1.125 -0.226,-1.121 -0.024,-1.055 0.168,-0.937 0.329,-0.77 0.457,-0.57 0.539,-0.336 0.582,-0.09 0.574,0.168 0.519,0.41 0.422,0.637 0.282,0.832 0.109,0.976 -0.086,1.083 -0.293,1.124 -0.508,1.118 -0.711,1.05 -0.902,0.93 -1.059,0.762 -1.183,0.558 -1.27,0.325 -1.308,0.074 -1.297,-0.18 -1.239,-0.426 -1.136,-0.648 -0.996,-0.836"
       style="fill:none;stroke:#000000;stroke-width:0.9216;stroke-linecap:square;stroke-linejoin:miter;stroke-miterlimit:3.25;stroke-dasharray:none;stroke-opacity:1"
       transform="scale(1.3333333)" />
    <path
       id="path33"
       d="m 9.7606113,-10.581262 c 0.3164067,0.234375 0.5859377,0.5976558 0.8437497,1.0312496 l 0.316407,-1.3828126 h 1.710937 L 10.498893,-0.88985619 C 10.194205,0.50467506 9.7606113,1.6296751 9.162955,2.4265501 c -1.1015625,1.5 -2.7070312,2.2617187 -4.8398437,2.2617187 -1.1953125,0 -2.1328125,-0.2695312 -2.8242188,-0.796875 C 0.7957675,3.3640501 0.50279875,2.5085813 0.6551425,1.3718626 H 2.55358 c -0.023437,0.5039062 0.082031,0.890625 0.2929688,1.1601562 0.3164062,0.3984375 0.9492187,0.609375 1.8398437,0.609375 1.4414063,0 2.4726563,-0.5039062 3.1289063,-1.4882812 0.375,-0.5976563 0.7148437,-1.6523437875 1.0078125,-3.1757813 -0.4804688,0.55078126 -1.0078125,0.97265626 -1.5820313,1.25390626 -0.5859375,0.2695312525 -1.3125,0.421875 -2.1796875,0.421875 -1.171875,0 -2.1445312,-0.421875 -2.8710937,-1.27734376 -0.7148438,-0.8554687 -0.8554688,-2.25 -0.4335938,-4.21875 0.3984375,-1.8398437 1.1367188,-3.2929687 2.2734375,-4.3242187 1.125,-1.0429691 2.3203125,-1.5703121 3.5976563,-1.5703121 0.8554687,0 1.5820312,0.210937 2.1328125,0.65625 z m -2.1328125,0.9960933 c -1.3125,0 -2.3320313,0.609375 -3.0703125,1.8398438 -0.3984375,0.65625 -0.7148438,1.5 -0.9257813,2.5546875 -0.2695312,1.2421875 -0.2109375,2.1914062 0.1523438,2.8476562 0.3515625,0.65625 0.9609375,0.9726563 1.828125,0.9726563 1.3359375,0 2.390625,-0.5976563 3.1875,-1.7929688 0.4453125,-0.703125 0.7617187,-1.4765625 0.9609375,-2.390625 0.2929687,-1.3710937 0.2226562,-2.390625 -0.1992188,-3.0351562 -0.421875,-0.65625 -1.078125,-0.9960938 -1.9335937,-0.9960938 z m 0,0"
       style="fill:#000000;fill-opacity:1;fill-rule:nonzero;stroke:none"
       aria-label="g"
       transform="matrix(1.3333333,0,0,1.3333333,516.65773,171.21382)" />
    <path
       id="path34"
       d="m 485.934,100.539 0.996,-0.84 1.14,-0.648 1.239,-0.422 1.296,-0.18 1.305,0.074 1.27,0.325 1.183,0.554 1.063,0.766 0.898,0.93 0.711,1.047 0.508,1.117 0.297,1.129 0.082,1.078 -0.11,0.98 -0.281,0.828 -0.418,0.637 -0.519,0.414 -0.574,0.164 -0.582,-0.086 -0.543,-0.336 -0.457,-0.57 -0.329,-0.773 -0.164,-0.938 0.02,-1.055 0.23,-1.117 0.438,-1.125 0.648,-1.078 0.844,-0.973 1.016,-0.82 1.148,-0.625 1.246,-0.398 1.301,-0.153 1.305,0.098 1.261,0.352 1.176,0.578 1.043,0.785 0.883,0.941 0.691,1.063 0.485,1.117 0.273,1.125 0.063,1.074 -0.129,0.965 -0.297,0.812 -0.434,0.614 -0.527,0.386 -0.578,0.141 -0.578,-0.113 -0.535,-0.363 -0.446,-0.59 -0.312,-0.793 -0.149,-0.953 0.043,-1.063 0.25,-1.121 0.465,-1.125 0.668,-1.066 0.863,-0.961 1.028,-0.801 1.164,-0.606 1.254,-0.371 1.304,-0.129 1.301,0.129 1.254,0.371 1.164,0.606 1.027,0.801 0.864,0.961 0.672,1.066 0.46,1.125 0.25,1.121 0.043,1.063 -0.148,0.953 -0.312,0.793 -0.446,0.59 -0.535,0.363 -0.578,0.113 -0.578,-0.141 -0.528,-0.386 -0.433,-0.614 -0.297,-0.812 -0.129,-0.965 0.067,-1.074 0.269,-1.125 0.484,-1.117 0.692,-1.063 0.883,-0.941 1.046,-0.785 1.172,-0.578 1.262,-0.352 1.305,-0.098 1.301,0.153 1.246,0.398 1.152,0.625 1.012,0.82 0.843,0.973 0.649,1.078 0.441,1.125 0.227,1.117 0.023,1.055 -0.168,0.938 -0.328,0.773 -0.457,0.57 -0.539,0.336 -0.582,0.086 -0.574,-0.164 -0.52,-0.414 -0.422,-0.637 -0.281,-0.828 -0.109,-0.98 0.086,-1.078 0.293,-1.129 0.508,-1.117 0.71,-1.047 0.903,-0.93 1.058,-0.766 1.184,-0.554 1.27,-0.325 1.308,-0.074 1.293,0.18 1.242,0.422 1.137,0.648 0.996,0.84"
       style="fill:none;stroke:#000000;stroke-width:0.9216;stroke-linecap:square;stroke-linejoin:miter;stroke-miterlimit:3.25;stroke-dasharray:none;stroke-opacity:1"
       transform="scale(1.3333333)" />
    <path
       id="path35"
       d="m 9.7619637,-10.582015 c 0.3164063,0.234375 0.5859373,0.5976566 0.8437503,1.0312504 l 0.316406,-1.3828124 h 1.710937 L 10.500245,-0.89060837 C 10.195557,0.50392288 9.7619637,1.6289229 9.1643074,2.4257979 c -1.1015625,1.5 -2.7070312,2.2617187 -4.8398437,2.2617187 -1.1953125,0 -2.1328125,-0.2695312 -2.8242188,-0.796875 C 0.79711994,3.3632979 0.50415119,2.5078291 0.65649494,1.3711104 H 2.5549324 c -0.023437,0.5039062 0.082031,0.890625 0.2929688,1.1601562 0.3164062,0.3984375 0.9492187,0.609375 1.8398437,0.609375 1.4414063,0 2.4726563,-0.5039062 3.1289063,-1.4882812 0.375,-0.5976563 0.7148437,-1.652343775 1.0078125,-3.1757813 -0.4804688,0.55078128 -1.0078125,0.97265628 -1.5820313,1.25390628 -0.5859375,0.269531245 -1.3125,0.421875 -2.1796875,0.421875 -1.171875,0 -2.1445312,-0.421875 -2.8710937,-1.27734378 -0.7148438,-0.8554687 -0.8554688,-2.25 -0.4335938,-4.21875 0.3984375,-1.8398437 1.1367188,-3.2929687 2.2734375,-4.3242187 1.125,-1.0429689 2.3203125,-1.5703129 3.5976563,-1.5703129 0.8554687,0 1.5820312,0.210938 2.1328125,0.65625 z m -2.1328125,0.9960941 c -1.3125,0 -2.3320313,0.609375 -3.0703125,1.8398438 -0.3984375,0.65625 -0.7148438,1.5 -0.9257813,2.5546875 -0.2695312,1.2421875 -0.2109375,2.1914062 0.1523438,2.8476562 0.3515625,0.65625 0.9609375,0.9726563 1.828125,0.9726563 1.3359375,0 2.390625,-0.5976563 3.1875,-1.7929688 0.4453125,-0.703125 0.7617187,-1.4765625 0.9609375,-2.390625 0.2929683,-1.3710937 0.2226562,-2.390625 -0.1992188,-3.0351562 -0.421875,-0.65625 -1.078125,-0.9960938 -1.9335937,-0.9960938 z m 0,0"
       style="fill:#000000;fill-opacity:1;fill-rule:nonzero;stroke:none"
       aria-label="g"
       transform="matrix(1.3333333,0,0,1.3333333,673.05045,117.17967)" />
    <path
       id="path36"
       d="m 418.91,100.539 c -0.316,8.981 3.113,17.691 9.465,24.043 6.355,6.356 15.066,9.785 24.047,9.469"
       style="fill:none;stroke:#000000;stroke-width:0.9216;stroke-linecap:square;stroke-linejoin:miter;stroke-miterlimit:3.25;stroke-dasharray:none;stroke-opacity:1"
       transform="scale(1.3333333)" />
    <path
       id="path37"
       d="m 431.93,128.137 -9.477,-4.739 4.738,-4.738 z"
       style="fill:#000000;fill-opacity:1;fill-rule:evenodd;stroke:none"
       transform="scale(1.3333333)" />
    <path
       id="path38"
       d="m 5.5535094,-11.027181 -1.5585938,7.3359375 c -0.1289062,0.5507812 -0.1289062,1.0078125 -0.023437,1.3710937 0.1875,0.65625 0.7148438,0.984375 1.6289063,0.984375 1.2773437,0 2.296875,-0.5625 3.0117187,-1.7226562 0.3867188,-0.6210938 0.6796875,-1.4765625 0.9140625,-2.5546875 l 1.1601569,-5.4140625 h 1.851562 L 10.194134,1.6275e-4 H 8.4480406 L 8.7996031,-1.6287435 c -0.328125,0.421875 -0.6914062,0.78515625 -1.1132812,1.078125 -0.84375,0.57421875 -1.7578125,0.8671875 -2.765625,0.8671875 -1.5820313,0 -2.53125,-0.52734375 -2.8710938,-1.5820313 -0.1875,-0.5742187 -0.1875,-1.3125 0,-2.2617187 l 1.6054688,-7.5 z m 0,0"
       style="fill:#000000;fill-opacity:1;fill-rule:nonzero;stroke:none"
       aria-label="u"
       transform="matrix(1.3333333,0,0,1.3333333,549.04063,198.20291)" />
    <path
       id="path39"
       d="m 452.422,134.051 c 18.492,-0.039 33.473,-15.02 33.512,-33.512"
       style="fill:none;stroke:#000000;stroke-width:0.9216;stroke-linecap:square;stroke-linejoin:miter;stroke-miterlimit:3.25;stroke-dasharray:none;stroke-opacity:1"
       transform="scale(1.3333333)" />
    <path
       id="path40"
       d="m 479.652,120.66 -4.738,9.481 -4.738,-4.743 z"
       style="fill:#000000;fill-opacity:1;fill-rule:evenodd;stroke:none"
       transform="scale(1.3333333)" />
    <path
       id="path41"
       d="m 5.5545017,-11.027682 -1.5585938,7.3359379 c -0.1289062,0.5507812 -0.1289062,1.0078125 -0.023437,1.3710937 0.1875,0.65625 0.7148438,0.984375 1.6289063,0.984375 1.2773437,0 2.296875,-0.5625 3.0117187,-1.7226562 0.3867188,-0.6210938 0.6796875,-1.4765625 0.9140625,-2.5546875 l 1.1601566,-5.4140629 h 1.851563 L 10.195127,-3.37875e-4 H 8.4490329 L 8.8005954,-1.6292441 c -0.328125,0.421875 -0.6914062,0.78515623 -1.1132812,1.07812498 -0.84375,0.57421875 -1.7578125,0.8671875 -2.765625,0.8671875 -1.5820313,0 -2.53125,-0.52734375 -2.8710938,-1.58203128 -0.1875,-0.5742187 -0.1875,-1.3125 0,-2.2617187 l 1.6054688,-7.5000004 z m 0,0"
       style="fill:#000000;fill-opacity:1;fill-rule:nonzero;stroke:none"
       aria-label="u"
       transform="matrix(1.3333333,0,0,1.3333333,640.2854,197.71139)" />
    <path
       id="path42"
       d="m 452.422,134.051 -0.781,-0.957 -0.621,-1.082 -0.434,-1.172 -0.227,-1.231 -0.011,-1.25 0.203,-1.234 0.414,-1.18 0.601,-1.093 0.766,-0.973 0.895,-0.828 0.988,-0.66 1.035,-0.485 1.039,-0.304 1.004,-0.125 0.914,0.046 0.793,0.192 0.637,0.316 0.453,0.414 0.246,0.477 0.031,0.496 -0.187,0.488 -0.395,0.434 -0.586,0.348 -0.75,0.23 -0.887,0.09 -0.98,-0.074 -1.035,-0.25 -1.039,-0.434 -1.008,-0.613 -0.926,-0.782 -0.804,-0.933 -0.653,-1.059 -0.469,-1.16 -0.265,-1.223 -0.051,-1.25 0.168,-1.242 0.375,-1.191 0.57,-1.109 0.739,-0.997 0.875,-0.855 0.972,-0.691 1.031,-0.516 1.043,-0.336 1.012,-0.156 0.934,0.015 0.82,0.168 0.664,0.297 0.485,0.399 0.285,0.464 0.07,0.5 -0.148,0.489 -0.356,0.445 -0.555,0.367 -0.722,0.254 -0.864,0.117 -0.968,-0.043 -1.028,-0.222 -1.043,-0.399 -1.015,-0.582 -0.946,-0.75 -0.832,-0.91 -0.679,-1.039 -0.504,-1.145 -0.301,-1.21 -0.09,-1.25 0.129,-1.247 0.34,-1.203 0.535,-1.125 0.711,-1.019 0.852,-0.883 0.961,-0.723 1.023,-0.547 1.043,-0.367 1.023,-0.187 0.95,-0.016 0.843,0.141 0.696,0.277 0.519,0.383 0.321,0.457 0.109,0.496 -0.109,0.492 -0.321,0.457 -0.519,0.383 -0.696,0.277 -0.843,0.145 -0.95,-0.016 -1.023,-0.187 -1.043,-0.367 -1.023,-0.551 -0.961,-0.723 -0.852,-0.883 -0.711,-1.015 -0.535,-1.129 -0.34,-1.203 -0.129,-1.246 0.09,-1.246 0.301,-1.215 0.504,-1.145 0.679,-1.039 0.832,-0.906 0.946,-0.754 1.015,-0.578 1.043,-0.402 1.028,-0.219 0.968,-0.043 0.864,0.113 0.722,0.254 0.555,0.367 0.356,0.445 0.148,0.493 -0.07,0.496 -0.285,0.468 -0.485,0.399 -0.664,0.297 -0.82,0.168 -0.934,0.015 -1.012,-0.156 -1.043,-0.336 -1.031,-0.515 -0.972,-0.696 -0.875,-0.851 -0.739,-0.996 -0.57,-1.114 -0.375,-1.191 -0.168,-1.238 0.051,-1.25 0.265,-1.227 0.469,-1.156 0.653,-1.063 0.804,-0.929 0.926,-0.782 1.008,-0.613 1.039,-0.433 1.035,-0.25 0.98,-0.075 0.887,0.086 0.75,0.231 0.586,0.351 0.395,0.434 0.187,0.484 -0.031,0.5 -0.246,0.473 -0.453,0.414 -0.637,0.32 -0.793,0.192 -0.914,0.043 -1.004,-0.125 -1.039,-0.301 -1.035,-0.484 -0.988,-0.665 -0.895,-0.828 -0.766,-0.972 -0.601,-1.09 -0.414,-1.18 -0.203,-1.234 0.011,-1.254 0.227,-1.231 0.434,-1.172 0.621,-1.078 0.781,-0.957"
       style="fill:none;stroke:#000000;stroke-width:0.9216;stroke-linecap:square;stroke-linejoin:miter;stroke-miterlimit:3.25;stroke-dasharray:none;stroke-opacity:1"
       transform="scale(1.3333333)" />
    <path
       id="path43"
       d="m 9.763147,-10.583104 c 0.316406,0.234375 0.585938,0.5976564 0.84375,1.0312501 l 0.316406,-1.3828121 h 1.710938 L 10.501428,-0.89169763 C 10.196741,0.50283362 9.763147,1.6278336 9.1654908,2.4247086 c -1.1015625,1.5 -2.7070313,2.2617188 -4.8398438,2.2617188 -1.1953125,0 -2.1328125,-0.2695313 -2.8242187,-0.796875 C 0.79830325,3.3622086 0.5053345,2.5067399 0.65767825,1.3700211 H 2.5561158 c -0.023437,0.5039063 0.082031,0.890625 0.2929687,1.1601563 0.3164063,0.3984375 0.9492188,0.609375 1.8398438,0.609375 1.4414062,0 2.4726562,-0.5039063 3.1289062,-1.4882813 0.375,-0.5976562 0.7148438,-1.65234373 1.0078125,-3.1757812 -0.4804687,0.55078122 -1.0078125,0.97265622 -1.5820312,1.25390622 -0.5859375,0.26953125 -1.3125,0.421875 -2.1796875,0.421875 -1.171875,0 -2.1445313,-0.421875 -2.8710938,-1.27734372 -0.7148437,-0.8554688 -0.8554687,-2.25 -0.4335937,-4.21875 0.3984375,-1.8398438 1.1367187,-3.2929688 2.2734375,-4.3242188 1.125,-1.0429686 2.3203125,-1.5703126 3.5976562,-1.5703126 0.8554688,0 1.5820313,0.210938 2.1328125,0.65625 z m -2.1328125,0.9960939 c -1.3125,0 -2.3320312,0.609375 -3.0703125,1.8398437 -0.3984375,0.65625 -0.7148437,1.5 -0.9257812,2.5546875 -0.2695313,1.2421875 -0.2109375,2.1914063 0.1523437,2.8476563 0.3515625,0.65625 0.9609375,0.9726562 1.828125,0.9726562 1.3359375,0 2.390625,-0.5976562 3.1875,-1.7929687 0.4453125,-0.703125 0.7617188,-1.4765625 0.9609375,-2.390625 0.292969,-1.3710938 0.2226563,-2.390625 -0.1992187,-3.0351563 -0.421875,-0.65625 -1.078125,-0.9960937 -1.9335938,-0.9960937 z m 0,0"
       style="fill:#000000;fill-opacity:1;fill-rule:nonzero;stroke:none"
       aria-label="g"
       transform="matrix(1.3333333,0,0,1.3333333,621.60747,144.19674)" />
    <path
       id="path44"
       d="m 452.422,67.027 c -8.942,-0.179 -17.57,3.293 -23.895,9.618 -6.324,6.324 -9.797,14.953 -9.617,23.894"
       style="fill:none;stroke:#000000;stroke-width:0.9216;stroke-linecap:square;stroke-linejoin:miter;stroke-miterlimit:3.25;stroke-dasharray:none;stroke-opacity:1"
       transform="scale(1.3333333)" />
    <path
       id="path45"
       d="m 424.973,80.199 4.738,-9.48 4.742,4.738 z"
       style="fill:#000000;fill-opacity:1;fill-rule:evenodd;stroke:none"
       transform="scale(1.3333333)" />
    <path
       id="path46"
       d="m 5.5550461,-11.028114 -1.5585937,7.3359375 c -0.1289063,0.5507813 -0.1289063,1.0078125 -0.023437,1.3710938 0.1875,0.65625 0.7148437,0.984375 1.6289062,0.984375 1.2773438,0 2.296875,-0.5625 3.0117188,-1.7226563 0.3867187,-0.6210937 0.6796875,-1.4765625 0.9140625,-2.5546875 L 10.68786,-11.028114 h 1.851562 L 10.195671,-7.7025e-4 H 8.4495774 L 8.8011399,-1.6296765 c -0.328125,0.421875 -0.6914063,0.78515625 -1.1132813,1.078125 -0.84375,0.57421875 -1.7578125,0.8671875 -2.765625,0.8671875 -1.5820312,0 -2.53125,-0.52734375 -2.8710937,-1.5820312 -0.1875,-0.5742188 -0.1875,-1.3125 0,-2.2617188 l 1.6054687,-7.5 z m 0,0"
       style="fill:#000000;fill-opacity:1;fill-rule:nonzero;stroke:none"
       aria-label="u"
       transform="matrix(1.3333333,0,0,1.3333333,549.24171,90.391652)" />
    <path
       id="path47"
       d="M 485.934,100.539 C 485.895,82.047 470.914,67.062 452.422,67.027"
       style="fill:none;stroke:#000000;stroke-width:0.9216;stroke-linecap:square;stroke-linejoin:miter;stroke-miterlimit:3.25;stroke-dasharray:none;stroke-opacity:1"
       transform="scale(1.3333333)" />
    <path
       id="path48"
       d="m 472.543,73.309 9.48,4.738 -4.738,4.738 z"
       style="fill:#000000;fill-opacity:1;fill-rule:evenodd;stroke:none"
       transform="scale(1.3333333)" />
    <path
       id="path49"
       d="m 5.5545017,-11.02622 -1.5585938,7.3359371 c -0.1289062,0.5507812 -0.1289062,1.0078125 -0.023437,1.3710937 0.1875,0.65625 0.7148438,0.984375 1.6289063,0.984375 1.2773437,0 2.296875,-0.5625 3.0117187,-1.7226562 0.3867188,-0.6210938 0.6796875,-1.4765625 0.9140625,-2.5546875 L 10.687314,-11.02622 h 1.851563 L 10.195127,0.00112331 H 8.4490329 L 8.8005954,-1.6277829 c -0.328125,0.421875 -0.6914062,0.78515621 -1.1132812,1.07812496 -0.84375,0.57421875 -1.7578125,0.8671875 -2.765625,0.8671875 -1.5820313,0 -2.53125,-0.52734375 -2.8710938,-1.58203126 -0.1875,-0.5742187 -0.1875,-1.3125 0,-2.2617187 L 3.6560642,-11.02622 Z m 0,0"
       style="fill:#000000;fill-opacity:1;fill-rule:nonzero;stroke:none"
       aria-label="u"
       transform="matrix(1.3333333,0,0,1.3333333,640.2854,90.682096)" />
    <path
       id="path50"
       d="m 456.109,67.027 c 0,0.977 -0.39,1.914 -1.082,2.606 -0.691,0.691 -1.629,1.078 -2.605,1.078 -0.977,0 -1.914,-0.387 -2.606,-1.078 -0.691,-0.692 -1.082,-1.629 -1.082,-2.606 0,-0.98 0.391,-1.918 1.082,-2.609 0.692,-0.691 1.629,-1.078 2.606,-1.078 0.976,0 1.914,0.387 2.605,1.078 0.692,0.691 1.082,1.629 1.082,2.609 z"
       style="fill:#000000;fill-opacity:1;fill-rule:evenodd;stroke:none"
       transform="scale(1.3333333)" />
    <path
       id="path51"
       d="m 456.109,134.051 c 0,0.976 -0.39,1.914 -1.082,2.605 -0.691,0.692 -1.629,1.082 -2.605,1.082 -0.977,0 -1.914,-0.39 -2.606,-1.082 -0.691,-0.691 -1.082,-1.629 -1.082,-2.605 0,-0.977 0.391,-1.914 1.082,-2.606 0.692,-0.691 1.629,-1.082 2.606,-1.082 0.976,0 1.914,0.391 2.605,1.082 0.692,0.692 1.082,1.629 1.082,2.606 z"
       style="fill:#000000;fill-opacity:1;fill-rule:evenodd;stroke:none"
       transform="scale(1.3333333)" />
    <path
       id="path52"
       d="m 422.594,100.539 c 0,0.977 -0.387,1.914 -1.078,2.606 -0.692,0.691 -1.629,1.078 -2.606,1.078 -0.98,0 -1.918,-0.387 -2.609,-1.078 -0.692,-0.692 -1.078,-1.629 -1.078,-2.606 0,-0.98 0.386,-1.918 1.078,-2.609 0.691,-0.692 1.629,-1.078 2.609,-1.078 0.977,0 1.914,0.386 2.606,1.078 0.691,0.691 1.078,1.629 1.078,2.609 z"
       style="fill:#000000;fill-opacity:1;fill-rule:evenodd;stroke:none"
       transform="scale(1.3333333)" />
    <path
       id="path53"
       d="m 489.621,100.539 c 0,0.977 -0.387,1.914 -1.078,2.606 -0.691,0.691 -1.629,1.078 -2.609,1.078 -0.977,0 -1.914,-0.387 -2.606,-1.078 -0.691,-0.692 -1.078,-1.629 -1.078,-2.606 0,-0.98 0.387,-1.918 1.078,-2.609 0.692,-0.692 1.629,-1.078 2.606,-1.078 0.98,0 1.918,0.386 2.609,1.078 0.691,0.691 1.078,1.629 1.078,2.609 z"
       style="fill:#000000;fill-opacity:1;fill-rule:evenodd;stroke:none"
       transform="scale(1.3333333)" />
    <path
       id="path54"
       d="m 603.23,100.539 -1,0.836 -1.136,0.648 -1.239,0.426 -1.296,0.18 -1.305,-0.074 -1.27,-0.325 -1.187,-0.558 -1.059,-0.762 -0.898,-0.93 -0.715,-1.05 -0.504,-1.118 -0.297,-1.124 -0.086,-1.083 0.114,-0.976 0.281,-0.832 0.418,-0.637 0.519,-0.41 0.575,-0.168 0.582,0.09 0.543,0.336 0.453,0.57 0.332,0.77 0.164,0.937 -0.02,1.055 -0.23,1.121 -0.438,1.125 -0.652,1.074 -0.84,0.973 -1.016,0.82 -1.148,0.625 -1.25,0.402 -1.297,0.153 -1.305,-0.102 -1.261,-0.347 -1.176,-0.582 -1.043,-0.782 -0.883,-0.945 -0.691,-1.059 -0.485,-1.121 -0.273,-1.125 -0.063,-1.07 0.129,-0.969 0.297,-0.808 0.434,-0.614 0.527,-0.386 0.578,-0.141 0.578,0.113 0.536,0.364 0.445,0.589 0.312,0.793 0.149,0.95 -0.043,1.066 -0.25,1.121 -0.465,1.125 -0.668,1.067 -0.863,0.96 -1.032,0.801 -1.16,0.602 -1.254,0.375 -1.304,0.125 -1.301,-0.125 -1.254,-0.375 -1.164,-0.602 -1.031,-0.801 -0.86,-0.96 -0.672,-1.067 -0.46,-1.125 -0.25,-1.121 -0.043,-1.066 0.148,-0.95 0.313,-0.793 0.445,-0.589 0.531,-0.364 0.582,-0.113 0.578,0.141 0.528,0.386 0.429,0.614 0.301,0.808 0.129,0.969 -0.066,1.07 -0.27,1.125 -0.488,1.121 -0.692,1.059 -0.879,0.945 -1.046,0.782 -1.172,0.582 -1.262,0.347 -1.305,0.102 -1.301,-0.153 -1.246,-0.402 -1.152,-0.625 -1.012,-0.82 -0.843,-0.973 -0.649,-1.074 -0.441,-1.125 -0.227,-1.121 -0.023,-1.055 0.168,-0.937 0.328,-0.77 0.457,-0.57 0.539,-0.336 0.582,-0.09 0.574,0.168 0.52,0.41 0.422,0.637 0.281,0.832 0.109,0.976 -0.086,1.083 -0.293,1.124 -0.508,1.118 -0.71,1.05 -0.903,0.93 -1.058,0.762 -1.184,0.558 -1.269,0.325 -1.309,0.074 -1.297,-0.18 -1.238,-0.426 -1.137,-0.648 -0.996,-0.836"
       style="fill:none;stroke:#000000;stroke-width:0.9216;stroke-linecap:square;stroke-linejoin:miter;stroke-miterlimit:3.25;stroke-dasharray:none;stroke-opacity:1"
       transform="scale(1.3333333)" />
    <path
       id="path55"
       d="m 9.7619003,-10.581262 c 0.3164067,0.234375 0.5859377,0.5976558 0.8437497,1.0312496 l 0.316407,-1.3828126 h 1.710937 L 10.500182,-0.88985619 C 10.195494,0.50467506 9.7619003,1.6296751 9.1642441,2.4265501 c -1.1015625,1.5 -2.7070313,2.2617187 -4.8398438,2.2617187 -1.1953125,0 -2.1328125,-0.2695312 -2.8242187,-0.796875 C 0.79705656,3.3640501 0.50408781,2.5085813 0.65643156,1.3718626 H 2.5548691 c -0.023437,0.5039062 0.082031,0.890625 0.2929687,1.1601562 0.3164063,0.3984375 0.9492188,0.609375 1.8398438,0.609375 1.4414062,0 2.4726562,-0.5039062 3.1289062,-1.4882812 0.375,-0.5976563 0.7148438,-1.6523437875 1.0078125,-3.1757813 -0.4804687,0.55078126 -1.0078125,0.97265626 -1.5820312,1.25390626 -0.5859375,0.2695312525 -1.3125,0.421875 -2.1796875,0.421875 -1.171875,0 -2.1445313,-0.421875 -2.8710938,-1.27734376 -0.7148437,-0.8554687 -0.8554687,-2.25 -0.4335937,-4.21875 0.3984375,-1.8398437 1.1367187,-3.2929687 2.2734375,-4.3242187 1.125,-1.0429691 2.3203125,-1.5703121 3.5976562,-1.5703121 0.8554688,0 1.5820313,0.210937 2.1328125,0.65625 z m -2.1328125,0.9960933 c -1.3125,0 -2.3320312,0.609375 -3.0703125,1.8398438 -0.3984375,0.65625 -0.7148437,1.5 -0.9257812,2.5546875 -0.2695313,1.2421875 -0.2109375,2.1914062 0.1523437,2.8476562 0.3515625,0.65625 0.9609375,0.9726563 1.828125,0.9726563 1.3359375,0 2.390625,-0.5976563 3.1875,-1.7929688 0.4453125,-0.703125 0.7617188,-1.4765625 0.9609375,-2.390625 0.2929687,-1.3710937 0.2226563,-2.390625 -0.1992187,-3.0351562 -0.421875,-0.65625 -1.078125,-0.9960938 -1.9335938,-0.9960938 z m 0,0"
       style="fill:#000000;fill-opacity:1;fill-rule:nonzero;stroke:none"
       aria-label="g"
       transform="matrix(1.3333333,0,0,1.3333333,762.41773,171.21382)" />
    <path
       id="path56"
       d="m 670.254,100.539 0.996,-0.84 1.141,-0.648 1.238,-0.422 1.297,-0.18 1.304,0.074 1.27,0.325 1.184,0.554 1.062,0.766 0.899,0.93 0.71,1.047 0.508,1.117 0.297,1.129 0.082,1.078 -0.109,0.98 -0.281,0.828 -0.418,0.637 -0.52,0.414 -0.574,0.164 -0.582,-0.086 -0.543,-0.336 -0.457,-0.57 -0.328,-0.773 -0.168,-0.938 0.023,-1.055 0.227,-1.117 0.441,-1.125 0.649,-1.078 0.843,-0.973 1.016,-0.82 1.148,-0.625 1.246,-0.398 1.301,-0.153 1.305,0.098 1.262,0.352 1.175,0.578 1.043,0.785 0.883,0.941 0.692,1.063 0.484,1.117 0.273,1.125 0.063,1.074 -0.129,0.965 -0.297,0.812 -0.433,0.614 -0.528,0.386 -0.578,0.141 -0.578,-0.113 -0.535,-0.363 -0.446,-0.59 -0.312,-0.793 -0.148,-0.953 0.043,-1.063 0.25,-1.121 0.46,-1.125 0.672,-1.066 0.864,-0.961 1.027,-0.801 1.164,-0.606 1.254,-0.371 1.305,-0.129 1.3,0.129 1.254,0.371 1.164,0.606 1.028,0.801 0.863,0.961 0.672,1.066 0.461,1.125 0.25,1.121 0.043,1.063 -0.149,0.953 -0.312,0.793 -0.445,0.59 -0.536,0.363 -0.578,0.113 -0.578,-0.141 -0.527,-0.386 -0.434,-0.614 -0.297,-0.812 -0.129,-0.965 0.067,-1.074 0.269,-1.125 0.485,-1.117 0.691,-1.063 0.883,-0.941 1.043,-0.785 1.176,-0.578 1.261,-0.352 1.305,-0.098 1.301,0.153 1.246,0.398 1.152,0.625 1.012,0.82 0.844,0.973 0.648,1.078 0.442,1.125 0.226,1.117 0.024,1.055 -0.168,0.938 -0.328,0.773 -0.458,0.57 -0.539,0.336 -0.582,0.086 -0.574,-0.164 -0.519,-0.414 -0.422,-0.637 -0.281,-0.828 -0.11,-0.98 0.086,-1.078 0.293,-1.129 0.508,-1.117 0.711,-1.047 0.898,-0.93 1.063,-0.766 1.183,-0.554 1.27,-0.325 1.308,-0.074 1.293,0.18 1.243,0.422 1.136,0.648 0.996,0.84"
       style="fill:none;stroke:#000000;stroke-width:0.9216;stroke-linecap:square;stroke-linejoin:miter;stroke-miterlimit:3.25;stroke-dasharray:none;stroke-opacity:1"
       transform="scale(1.3333333)" />
    <path
       id="path57"
       d="m 9.7603231,-10.582015 c 0.3164059,0.234375 0.5859379,0.5976566 0.8437499,1.0312504 l 0.316406,-1.3828124 h 1.710938 L 10.498604,-0.89060837 C 10.193917,0.50392288 9.7603231,1.6289229 9.1626668,2.4257979 c -1.1015625,1.5 -2.7070312,2.2617187 -4.8398437,2.2617187 -1.1953125,0 -2.1328125,-0.2695312 -2.8242188,-0.796875 C 0.79547931,3.3632979 0.50251056,2.5078291 0.65485431,1.3711104 H 2.5532918 c -0.023437,0.5039062 0.082031,0.890625 0.2929688,1.1601562 0.3164062,0.3984375 0.9492187,0.609375 1.8398437,0.609375 1.4414063,0 2.4726563,-0.5039062 3.1289063,-1.4882812 0.375,-0.5976563 0.7148437,-1.652343775 1.0078125,-3.1757813 -0.4804688,0.55078128 -1.0078125,0.97265628 -1.5820313,1.25390628 -0.5859375,0.269531245 -1.3125,0.421875 -2.1796875,0.421875 -1.171875,0 -2.1445312,-0.421875 -2.8710937,-1.27734378 -0.7148438,-0.8554687 -0.8554688,-2.25 -0.4335938,-4.21875 0.3984375,-1.8398437 1.1367188,-3.2929687 2.2734375,-4.3242187 1.125,-1.0429689 2.3203125,-1.5703129 3.5976563,-1.5703129 0.8554687,0 1.5820312,0.210938 2.1328125,0.65625 z m -2.1328125,0.9960941 c -1.3125,0 -2.3320313,0.609375 -3.0703125,1.8398438 -0.3984375,0.65625 -0.7148438,1.5 -0.9257813,2.5546875 -0.2695312,1.2421875 -0.2109375,2.1914062 0.1523438,2.8476562 0.3515625,0.65625 0.9609375,0.9726563 1.828125,0.9726563 1.3359375,0 2.390625,-0.5976563 3.1875,-1.7929688 0.4453125,-0.703125 0.7617187,-1.4765625 0.9609375,-2.390625 0.2929689,-1.3710937 0.2226562,-2.390625 -0.1992188,-3.0351562 -0.421875,-0.65625 -1.078125,-0.9960938 -1.9335937,-0.9960938 z m 0,0"
       style="fill:#000000;fill-opacity:1;fill-rule:nonzero;stroke:none"
       aria-label="g"
       transform="matrix(1.3333333,0,0,1.3333333,918.81045,117.17967)" />
    <path
       id="path58"
       d="m 603.23,100.539 c -0.316,8.981 3.11,17.691 9.465,24.043 6.356,6.356 15.067,9.785 24.047,9.469"
       style="fill:none;stroke:#000000;stroke-width:0.9216;stroke-linecap:butt;stroke-linejoin:miter;stroke-miterlimit:3.25;stroke-dasharray:0.9216, 5.5296;stroke-dashoffset:0;stroke-opacity:1"
       transform="scale(1.3333333)" />
    <path
       id="path59"
       d="m 616.25,128.137 -9.477,-4.739 4.739,-4.738 z"
       style="fill:#000000;fill-opacity:1;fill-rule:evenodd;stroke:none"
       transform="scale(1.3333333)" />
    <path
       id="path60"
       d="m 5.5544471,-11.026205 -1.5585937,7.3359378 c -0.1289063,0.5507813 -0.1289063,1.0078125 -0.023437,1.3710938 0.1875,0.65625 0.7148437,0.984375 1.6289062,0.984375 1.2773438,0 2.296875,-0.5625 3.0117188,-1.7226563 0.3867187,-0.6210937 0.6796875,-1.4765625 0.9140625,-2.5546875 L 10.68726,-11.026205 h 1.851562 L 10.195072,0.00113906 H 8.4489784 L 8.8005409,-1.6277672 c -0.328125,0.421875 -0.6914063,0.78515626 -1.1132813,1.07812501 -0.84375,0.57421875 -1.7578125,0.8671875 -2.765625,0.8671875 -1.5820312,0 -2.53125,-0.52734375 -2.8710937,-1.58203121 -0.1875,-0.5742188 -0.1875,-1.3125 0,-2.2617188 l 1.6054687,-7.5000003 z m 0,0"
       style="fill:#000000;fill-opacity:1;fill-rule:nonzero;stroke:none"
       aria-label="u"
       transform="matrix(1.3333333,0,0,1.3333333,783.43001,187.5727)" />
    <path
       id="path61"
       d="m 6.8786659,-7.4519861 c 0.2226562,0.1640625 0.4101562,0.4101563 0.5976562,0.7265625 l 0.2226563,-0.984375 h 1.1953125 l -1.5,7.08984379 c -0.2109375,0.97265625 -0.515625,1.76953121 -0.9375,2.33203121 -0.7734375,1.0546875 -1.8984375,1.59375 -3.4101563,1.59375 -0.84375,0 -1.5,-0.1992187 -1.9921875,-0.5625 C 0.56225963,2.3683264 0.35132213,1.7706702 0.45679088,0.97379519 H 1.8044471 c -0.023437,0.35156251 0.058594,0.62109371 0.1992188,0.80859371 0.234375,0.2929688 0.6796875,0.4335938 1.3007812,0.4335938 1.0078125,0 1.7460938,-0.3515625 2.203125,-1.0546875 0.2695313,-0.41015626 0.5039063,-1.16015626 0.7148438,-2.2265625 -0.3398438,0.38671874 -0.7148438,0.67968749 -1.1132813,0.86718749 -0.421875,0.19921875 -0.9257812,0.3046875 -1.5351562,0.3046875 -0.8320313,0 -1.5234375,-0.3046875 -2.0273438,-0.890625 C 1.0427284,-1.3933923 0.93725963,-2.3777673 1.2302284,-3.7605798 c 0.2929687,-1.3007813 0.8085937,-2.3203125 1.6171875,-3.0585938 0.7851562,-0.7265625 1.6289062,-1.1015625 2.5195312,-1.1015625 0.6210938,0 1.125,0.1523438 1.5117188,0.46875 z m -1.5117188,0.6914063 c -0.9140625,0 -1.6289062,0.4335937 -2.15625,1.3007812 -0.28125,0.4570313 -0.5039062,1.0546875 -0.65625,1.8046875 -0.1875,0.8789063 -0.140625,1.546875 0.1054688,2.0039063 0.2578125,0.4570312 0.6914062,0.67968749 1.3007812,0.67968749 0.9375,0 1.6757813,-0.41015629 2.25,-1.26562499 0.3046875,-0.4804688 0.5273438,-1.03125 0.6679688,-1.6757813 0.2109375,-0.9726562 0.1640625,-1.6875 -0.140625,-2.1445312 -0.2929688,-0.4570313 -0.75,-0.703125 -1.3710938,-0.703125 z m 0,0"
       style="fill:#000000;fill-opacity:1;fill-rule:nonzero;stroke:none"
       aria-label="g"
       transform="matrix(1.3333333,0,0,1.3333333,798.99251,192.79926)" />
    <path
       id="path62"
       d="m 636.742,134.051 c 18.492,-0.039 33.473,-15.02 33.512,-33.512"
       style="fill:none;stroke:#000000;stroke-width:0.9216;stroke-linecap:butt;stroke-linejoin:miter;stroke-miterlimit:3.25;stroke-dasharray:0.9216, 5.5296;stroke-dashoffset:0;stroke-opacity:1"
       transform="scale(1.3333333)" />
    <path
       id="path63"
       d="m 663.973,120.66 -4.739,9.481 -4.738,-4.743 z"
       style="fill:#000000;fill-opacity:1;fill-rule:evenodd;stroke:none"
       transform="scale(1.3333333)" />
    <path
       id="path64"
       d="M 5.5557908,-11.026705 3.997197,-3.6907678 c -0.1289062,0.5507812 -0.1289062,1.0078125 -0.023437,1.3710937 0.1875,0.65625 0.7148438,0.984375 1.6289063,0.984375 1.2773437,0 2.296875,-0.5625 3.0117187,-1.7226562 0.3867188,-0.6210938 0.6796875,-1.4765625 0.9140625,-2.5546875 l 1.1601565,-5.4140622 h 1.851563 L 10.196416,6.384375e-4 H 8.450322 L 8.8018845,-1.6282678 c -0.328125,0.421875 -0.6914062,0.78515624 -1.1132812,1.07812499 -0.84375,0.57421875 -1.7578125,0.8671875 -2.765625,0.8671875 -1.5820313,0 -2.53125,-0.52734375 -2.8710938,-1.58203129 -0.1875,-0.5742187 -0.1875,-1.3125 0,-2.2617187 l 1.6054688,-7.4999997 z m 0,0"
       style="fill:#000000;fill-opacity:1;fill-rule:nonzero;stroke:none"
       aria-label="u"
       transform="matrix(1.3333333,0,0,1.3333333,886.0454,187.08118)" />
    <path
       id="path65"
       d="m 6.8800095,-7.4524867 c 0.2226563,0.1640625 0.4101563,0.4101563 0.5976563,0.7265625 l 0.2226562,-0.984375 h 1.1953125 l -1.5,7.08984376 C 7.184697,0.35220081 6.8800095,1.1490758 6.4581345,1.7115758 5.684697,2.7662633 4.559697,3.3053258 3.0479783,3.3053258 c -0.84375,0 -1.5,-0.1992187 -1.9921875,-0.5625 -0.49218755,-0.375 -0.70312505,-0.9726562 -0.5976563,-1.76953124 h 1.3476563 c -0.023437,0.35156254 0.058594,0.62109374 0.1992187,0.80859374 0.234375,0.2929688 0.6796875,0.4335938 1.3007813,0.4335938 1.0078125,0 1.7460937,-0.3515625 2.203125,-1.0546875 C 5.778447,0.75063831 6.012822,6.383125e-4 6.2237595,-1.0657679 5.8839158,-0.67904919 5.5089158,-0.38608044 5.1104783,-0.19858044 4.6886033,6.383125e-4 4.184697,0.10610706 3.575322,0.10610706 c -0.8320312,0 -1.5234375,-0.3046875 -2.0273437,-0.890625 C 1.044072,-1.3938929 0.93860325,-2.3782679 1.231572,-3.7610804 c 0.2929688,-1.3007813 0.8085938,-2.3203125 1.6171875,-3.0585938 0.7851563,-0.7265625 1.6289063,-1.1015625 2.5195313,-1.1015625 0.6210937,0 1.125,0.1523438 1.5117187,0.46875 z m -1.5117187,0.6914063 c -0.9140625,0 -1.6289063,0.4335937 -2.15625,1.3007812 -0.28125,0.4570313 -0.5039063,1.0546875 -0.65625,1.8046875 -0.1875,0.8789063 -0.140625,1.546875 0.1054687,2.0039063 0.2578125,0.4570312 0.6914063,0.67968746 1.3007813,0.67968746 0.9375,0 1.6757812,-0.41015626 2.25,-1.26562496 0.3046875,-0.4804688 0.5273437,-1.03125 0.6679687,-1.6757813 0.2109375,-0.9726562 0.1640625,-1.6875 -0.140625,-2.1445312 -0.2929687,-0.4570313 -0.75,-0.703125 -1.3710937,-0.703125 z m 0,0"
       style="fill:#000000;fill-opacity:1;fill-rule:nonzero;stroke:none"
       aria-label="g"
       transform="matrix(1.3333333,0,0,1.3333333,901.6079,192.30774)" />
    <path
       id="path66"
       d="m 636.742,134.051 -0.781,-0.957 -0.621,-1.082 -0.434,-1.172 -0.226,-1.231 -0.012,-1.25 0.203,-1.234 0.414,-1.18 0.602,-1.093 0.765,-0.973 0.895,-0.828 0.988,-0.66 1.035,-0.485 1.039,-0.304 1,-0.125 0.918,0.046 0.793,0.192 0.637,0.316 0.449,0.414 0.25,0.477 0.028,0.496 -0.184,0.488 -0.395,0.434 -0.585,0.348 -0.75,0.23 -0.887,0.09 -0.981,-0.074 -1.035,-0.25 -1.043,-0.434 -1.004,-0.613 -0.925,-0.782 -0.809,-0.933 -0.648,-1.059 -0.469,-1.16 -0.266,-1.223 -0.051,-1.25 0.168,-1.242 0.375,-1.191 0.571,-1.109 0.734,-0.997 0.875,-0.855 0.977,-0.691 1.031,-0.516 1.043,-0.336 1.012,-0.156 0.933,0.015 0.817,0.168 0.667,0.297 0.485,0.399 0.285,0.464 0.07,0.5 -0.148,0.489 -0.356,0.445 -0.554,0.367 -0.723,0.254 -0.867,0.117 -0.965,-0.043 -1.027,-0.222 -1.047,-0.399 -1.016,-0.582 -0.941,-0.75 -0.832,-0.91 -0.68,-1.039 -0.504,-1.145 -0.301,-1.21 -0.089,-1.25 0.128,-1.247 0.34,-1.203 0.535,-1.125 0.711,-1.019 0.852,-0.883 0.961,-0.723 1.023,-0.547 1.043,-0.367 1.024,-0.187 0.949,-0.016 0.844,0.141 0.695,0.277 0.52,0.383 0.32,0.457 0.109,0.496 -0.109,0.492 -0.32,0.457 -0.52,0.383 -0.695,0.277 -0.844,0.145 -0.949,-0.016 -1.024,-0.187 -1.043,-0.367 -1.023,-0.551 -0.961,-0.723 -0.852,-0.883 -0.711,-1.015 -0.535,-1.129 -0.34,-1.203 -0.128,-1.246 0.089,-1.246 0.301,-1.215 0.504,-1.145 0.68,-1.039 0.832,-0.906 0.941,-0.754 1.016,-0.578 1.047,-0.402 1.027,-0.219 0.965,-0.043 0.867,0.113 0.723,0.254 0.554,0.367 0.356,0.445 0.148,0.493 -0.07,0.496 -0.285,0.468 -0.485,0.399 -0.667,0.297 -0.817,0.168 -0.933,0.015 -1.012,-0.156 -1.043,-0.336 -1.031,-0.515 -0.977,-0.696 -0.875,-0.851 -0.734,-0.996 -0.571,-1.114 -0.375,-1.191 -0.168,-1.238 0.051,-1.25 0.266,-1.227 0.469,-1.156 0.648,-1.063 0.809,-0.929 0.925,-0.782 1.004,-0.613 1.043,-0.433 1.035,-0.25 0.981,-0.075 0.887,0.086 0.75,0.231 0.585,0.351 0.395,0.434 0.184,0.484 -0.028,0.5 -0.25,0.473 -0.449,0.414 -0.637,0.32 -0.793,0.192 -0.918,0.043 -1,-0.125 -1.039,-0.301 -1.035,-0.484 -0.988,-0.665 -0.895,-0.828 -0.765,-0.972 -0.602,-1.09 -0.414,-1.18 -0.203,-1.234 0.012,-1.254 0.226,-1.231 0.434,-1.172 0.621,-1.078 0.781,-0.957"
       style="fill:none;stroke:#000000;stroke-width:0.9216;stroke-linecap:square;stroke-linejoin:miter;stroke-miterlimit:3.25;stroke-dasharray:none;stroke-opacity:1"
       transform="scale(1.3333333)" />
    <path
       id="path67"
       d="m 9.7615064,-10.583104 c 0.3164066,0.234375 0.5859376,0.5976564 0.8437496,1.0312501 l 0.316407,-1.3828121 H 12.6326 L 10.499788,-0.89169763 C 10.1951,0.50283362 9.7615064,1.6278336 9.1638501,2.4247086 c -1.1015625,1.5 -2.7070312,2.2617188 -4.8398437,2.2617188 -1.1953125,0 -2.1328125,-0.2695313 -2.8242188,-0.796875 C 0.79666263,3.3622086 0.50369388,2.5067399 0.65603763,1.3700211 H 2.5544751 c -0.023437,0.5039063 0.082031,0.890625 0.2929688,1.1601563 0.3164062,0.3984375 0.9492187,0.609375 1.8398437,0.609375 1.4414063,0 2.4726563,-0.5039063 3.1289063,-1.4882813 0.375,-0.5976562 0.7148437,-1.65234373 1.0078125,-3.1757812 -0.4804688,0.55078122 -1.0078125,0.97265622 -1.5820313,1.25390622 -0.5859375,0.26953125 -1.3125,0.421875 -2.1796875,0.421875 -1.171875,0 -2.1445312,-0.421875 -2.8710937,-1.27734372 -0.7148438,-0.8554688 -0.8554688,-2.25 -0.4335938,-4.21875 0.3984375,-1.8398438 1.1367188,-3.2929688 2.2734375,-4.3242188 1.125,-1.0429686 2.3203125,-1.5703126 3.5976563,-1.5703126 0.8554687,0 1.5820312,0.210938 2.1328125,0.65625 z m -2.1328125,0.9960939 c -1.3125,0 -2.3320313,0.609375 -3.0703125,1.8398437 -0.3984375,0.65625 -0.7148438,1.5 -0.9257813,2.5546875 -0.2695312,1.2421875 -0.2109375,2.1914063 0.1523438,2.8476563 0.3515625,0.65625 0.9609375,0.9726562 1.828125,0.9726562 1.3359375,0 2.390625,-0.5976562 3.1875,-1.7929687 0.4453125,-0.703125 0.7617187,-1.4765625 0.9609375,-2.390625 0.2929686,-1.3710938 0.2226562,-2.390625 -0.1992188,-3.0351563 -0.421875,-0.65625 -1.078125,-0.9960937 -1.9335937,-0.9960937 z m 0,0"
       style="fill:#000000;fill-opacity:1;fill-rule:nonzero;stroke:none"
       aria-label="g"
       transform="matrix(1.3333333,0,0,1.3333333,867.36747,144.19674)" />
    <path
       id="path68"
       d="m 636.742,67.027 c -8.941,-0.179 -17.57,3.293 -23.894,9.618 -6.325,6.324 -9.797,14.953 -9.618,23.894"
       style="fill:none;stroke:#000000;stroke-width:0.9216;stroke-linecap:butt;stroke-linejoin:miter;stroke-miterlimit:3.25;stroke-dasharray:0.9216, 5.5296;stroke-dashoffset:0;stroke-opacity:1"
       transform="scale(1.3333333)" />
    <path
       id="path69"
       d="m 609.293,80.199 4.738,-9.48 4.742,4.738 z"
       style="fill:#000000;fill-opacity:1;fill-rule:evenodd;stroke:none"
       transform="scale(1.3333333)" />
    <path
       id="path70"
       d="m 5.5559839,-11.027138 -1.5585938,7.3359379 c -0.1289062,0.5507813 -0.1289062,1.0078125 -0.023437,1.3710938 0.1875,0.65625 0.7148438,0.984375 1.6289063,0.984375 1.2773437,0 2.296875,-0.5625 3.0117187,-1.7226563 0.3867188,-0.6210937 0.6796875,-1.4765625 0.9140625,-2.5546875 L 10.688797,-11.027138 H 12.54036 L 10.196609,2.061875e-4 H 8.4505151 L 8.8020776,-1.6287001 c -0.328125,0.421875 -0.6914062,0.78515629 -1.1132812,1.07812504 -0.84375,0.57421875 -1.7578125,0.8671875 -2.765625,0.8671875 -1.5820313,0 -2.53125,-0.52734375 -2.8710938,-1.58203124 -0.1875,-0.5742188 -0.1875,-1.3125 0,-2.2617188 l 1.6054688,-7.5000004 z m 0,0"
       style="fill:#000000;fill-opacity:1;fill-rule:nonzero;stroke:none"
       aria-label="u"
       transform="matrix(1.3333333,0,0,1.3333333,783.63108,85.722381)" />
    <path
       id="path71"
       d="m 6.8802026,-7.4529189 c 0.2226563,0.1640625 0.4101563,0.4101562 0.5976563,0.7265625 l 0.2226562,-0.984375 h 1.1953125 l -1.5,7.08984371 c -0.2109375,0.97265625 -0.515625,1.76953129 -0.9375,2.33203129 -0.7734375,1.0546875 -1.8984375,1.59375 -3.4101562,1.59375 -0.84375,0 -1.5,-0.1992188 -1.9921875,-0.5625 C 0.56379638,2.3673936 0.35285888,1.7697373 0.45832763,0.97286231 H 1.8059839 c -0.023437,0.35156249 0.058594,0.62109379 0.1992187,0.80859379 0.234375,0.2929687 0.6796875,0.4335937 1.3007813,0.4335937 1.0078125,0 1.7460937,-0.3515625 2.203125,-1.0546875 0.2695312,-0.41015624 0.5039062,-1.1601562375 0.7148437,-2.2265625 -0.3398437,0.38671876 -0.7148437,0.67968751 -1.1132812,0.86718751 -0.421875,0.1992187525 -0.9257813,0.3046875 -1.5351563,0.3046875 -0.8320312,0 -1.5234375,-0.3046875 -2.0273437,-0.890625 C 1.0442651,-1.3943252 0.93879638,-2.3787002 1.2317651,-3.7615127 c 0.2929688,-1.3007812 0.8085938,-2.3203125 1.6171875,-3.0585937 0.7851563,-0.7265625 1.6289063,-1.1015625 2.5195313,-1.1015625 0.6210937,0 1.125,0.1523437 1.5117187,0.46875 z m -1.5117187,0.6914062 c -0.9140625,0 -1.6289063,0.4335938 -2.15625,1.3007813 -0.28125,0.4570312 -0.5039063,1.0546875 -0.65625,1.8046875 -0.1875,0.8789062 -0.140625,1.546875 0.1054687,2.0039062 0.2578125,0.4570313 0.6914063,0.67968751 1.3007813,0.67968751 0.9375,0 1.6757812,-0.41015621 2.25,-1.26562501 0.3046875,-0.4804687 0.5273437,-1.03125 0.6679687,-1.6757812 0.2109375,-0.9726563 0.1640625,-1.6875 -0.140625,-2.1445313 -0.2929687,-0.4570312 -0.75,-0.703125 -1.3710937,-0.703125 z m 0,0"
       style="fill:#000000;fill-opacity:1;fill-rule:nonzero;stroke:none"
       aria-label="g"
       transform="matrix(1.3333333,0,0,1.3333333,799.19358,90.948944)" />
    <path
       id="path72"
       d="M 670.254,100.539 C 670.215,82.047 655.234,67.062 636.742,67.027"
       style="fill:none;stroke:#000000;stroke-width:0.9216;stroke-linecap:butt;stroke-linejoin:miter;stroke-miterlimit:3.25;stroke-dasharray:0.9216, 5.5296;stroke-dashoffset:0;stroke-opacity:1"
       transform="scale(1.3333333)" />
    <path
       id="path73"
       d="m 656.863,73.309 9.481,4.738 -4.742,4.738 z"
       style="fill:#000000;fill-opacity:1;fill-rule:evenodd;stroke:none"
       transform="scale(1.3333333)" />
    <path
       id="path74"
       d="M 5.5557908,-11.028174 3.997197,-3.6922362 c -0.1289062,0.5507813 -0.1289062,1.0078125 -0.023437,1.3710938 0.1875,0.65625 0.7148438,0.984375 1.6289063,0.984375 1.2773437,0 2.296875,-0.5625 3.0117187,-1.7226563 0.3867188,-0.6210937 0.6796875,-1.4765625 0.9140625,-2.5546875 l 1.1601565,-5.4140628 h 1.851563 L 10.196416,-8.299375e-4 H 8.450322 L 8.8018845,-1.6297362 c -0.328125,0.421875 -0.6914062,0.78515626 -1.1132812,1.07812501 -0.84375,0.57421875 -1.7578125,0.8671875 -2.765625,0.8671875 -1.5820313,0 -2.53125,-0.52734375 -2.8710938,-1.58203121 -0.1875,-0.5742188 -0.1875,-1.3125 0,-2.2617188 l 1.6054688,-7.5000003 z m 0,0"
       style="fill:#000000;fill-opacity:1;fill-rule:nonzero;stroke:none"
       aria-label="u"
       transform="matrix(1.3333333,0,0,1.3333333,886.0454,86.012825)" />
    <path
       id="path75"
       d="m 6.8800095,-7.4539551 c 0.2226563,0.1640625 0.4101563,0.4101563 0.5976563,0.7265625 l 0.2226562,-0.984375 h 1.1953125 l -1.5,7.08984379 C 7.184697,0.35073244 6.8800095,1.1476074 6.4581345,1.7101074 5.684697,2.7647949 4.559697,3.3038574 3.0479783,3.3038574 c -0.84375,0 -1.5,-0.1992187 -1.9921875,-0.5625 -0.49218755,-0.375 -0.70312505,-0.9726562 -0.5976563,-1.76953121 h 1.3476563 c -0.023437,0.35156251 0.058594,0.62109371 0.1992187,0.80859371 0.234375,0.2929688 0.6796875,0.4335938 1.3007813,0.4335938 1.0078125,0 1.7460937,-0.3515625 2.203125,-1.0546875 C 5.778447,0.74916994 6.012822,-8.300625e-4 6.2237595,-1.0672363 5.8839158,-0.68051756 5.5089158,-0.38754881 5.1104783,-0.20004881 4.6886033,-8.300625e-4 4.184697,0.10463869 3.575322,0.10463869 c -0.8320312,0 -1.5234375,-0.3046875 -2.0273437,-0.890625 C 1.044072,-1.3953613 0.93860325,-2.3797363 1.231572,-3.7625488 c 0.2929688,-1.3007813 0.8085938,-2.3203125 1.6171875,-3.0585938 0.7851563,-0.7265625 1.6289063,-1.1015625 2.5195313,-1.1015625 0.6210937,0 1.125,0.1523438 1.5117187,0.46875 z m -1.5117187,0.6914063 c -0.9140625,0 -1.6289063,0.4335937 -2.15625,1.3007812 -0.28125,0.4570313 -0.5039063,1.0546875 -0.65625,1.8046875 -0.1875,0.8789063 -0.140625,1.546875 0.1054687,2.0039063 0.2578125,0.4570312 0.6914063,0.67968749 1.3007813,0.67968749 0.9375,0 1.6757812,-0.41015629 2.25,-1.26562499 0.3046875,-0.4804688 0.5273437,-1.03125 0.6679687,-1.6757813 0.2109375,-0.9726562 0.1640625,-1.6875 -0.140625,-2.1445312 -0.2929687,-0.4570313 -0.75,-0.703125 -1.3710937,-0.703125 z m 0,0"
       style="fill:#000000;fill-opacity:1;fill-rule:nonzero;stroke:none"
       aria-label="g"
       transform="matrix(1.3333333,0,0,1.3333333,901.6079,91.239388)" />
    <path
       id="path76"
       d="m 640.43,67.027 c 0,0.977 -0.391,1.914 -1.082,2.606 -0.692,0.691 -1.629,1.078 -2.606,1.078 -0.976,0 -1.914,-0.387 -2.605,-1.078 -0.692,-0.692 -1.082,-1.629 -1.082,-2.606 0,-0.98 0.39,-1.918 1.082,-2.609 0.691,-0.691 1.629,-1.078 2.605,-1.078 0.977,0 1.914,0.387 2.606,1.078 0.691,0.691 1.082,1.629 1.082,2.609 z"
       style="fill:#000000;fill-opacity:1;fill-rule:evenodd;stroke:none"
       transform="scale(1.3333333)" />
    <path
       id="path77"
       d="m 640.43,134.051 c 0,0.976 -0.391,1.914 -1.082,2.605 -0.692,0.692 -1.629,1.082 -2.606,1.082 -0.976,0 -1.914,-0.39 -2.605,-1.082 -0.692,-0.691 -1.082,-1.629 -1.082,-2.605 0,-0.977 0.39,-1.914 1.082,-2.606 0.691,-0.691 1.629,-1.082 2.605,-1.082 0.977,0 1.914,0.391 2.606,1.082 0.691,0.692 1.082,1.629 1.082,2.606 z"
       style="fill:#000000;fill-opacity:1;fill-rule:evenodd;stroke:none"
       transform="scale(1.3333333)" />
    <path
       id="path78"
       d="m 606.914,100.539 c 0,0.977 -0.387,1.914 -1.078,2.606 -0.691,0.691 -1.629,1.078 -2.606,1.078 -0.98,0 -1.918,-0.387 -2.609,-1.078 -0.691,-0.692 -1.078,-1.629 -1.078,-2.606 0,-0.98 0.387,-1.918 1.078,-2.609 0.691,-0.692 1.629,-1.078 2.609,-1.078 0.977,0 1.915,0.386 2.606,1.078 0.691,0.691 1.078,1.629 1.078,2.609 z"
       style="fill:#000000;fill-opacity:1;fill-rule:evenodd;stroke:none"
       transform="scale(1.3333333)" />
    <path
       id="path79"
       d="m 673.941,100.539 c 0,0.977 -0.39,1.914 -1.082,2.606 -0.691,0.691 -1.629,1.078 -2.605,1.078 -0.977,0 -1.914,-0.387 -2.606,-1.078 -0.691,-0.692 -1.082,-1.629 -1.082,-2.606 0,-0.98 0.391,-1.918 1.082,-2.609 0.692,-0.692 1.629,-1.078 2.606,-1.078 0.976,0 1.914,0.386 2.605,1.078 0.692,0.691 1.082,1.629 1.082,2.609 z"
       style="fill:#000000;fill-opacity:1;fill-rule:evenodd;stroke:none"
       transform="scale(1.3333333)" />
  </g>
</svg>
