<?xml version="1.0" encoding="UTF-8" standalone="no"?>
<!-- Created with Inkscape (http://www.inkscape.org/) -->

<svg
   version="1.1"
   id="svg2"
   width="737.33331"
   height="246.66667"
   viewBox="0 0 737.33331 246.66667"
   sodipodi:docname="05ip7j9hvkehi.pdf"
   xmlns:inkscape="http://www.inkscape.org/namespaces/inkscape"
   xmlns:sodipodi="http://sodipodi.sourceforge.net/DTD/sodipodi-0.dtd"
   xmlns="http://www.w3.org/2000/svg"
   xmlns:svg="http://www.w3.org/2000/svg">
  <defs
     id="defs6">
    <clipPath
       clipPathUnits="userSpaceOnUse"
       id="clipPath98">
      <path
         d="m 59,152 h 7 v 9.281 h -7 z"
         id="path96" />
    </clipPath>
  </defs>
  <sodipodi:namedview
     id="namedview4"
     pagecolor="#ffffff"
     bordercolor="#999999"
     borderopacity="1"
     inkscape:showpageshadow="0"
     inkscape:pageopacity="0"
     inkscape:pagecheckerboard="0"
     inkscape:deskcolor="#d1d1d1" />
  <g
     id="g8"
     inkscape:groupmode="layer"
     inkscape:label="05ip7j9hvkehi"
     transform="matrix(1.3333333,0,0,1.3333333,0,9.5e-6)">
    <g
       id="g10">
      <path
         d="M 0,98.445 H 18.852"
         style="fill:none;stroke:#000000;stroke-width:0.6912;stroke-linecap:butt;stroke-linejoin:miter;stroke-miterlimit:3.25;stroke-dasharray:0.6912, 4.1472;stroke-dashoffset:0;stroke-opacity:1"
         id="path12" />
      <path
         d="m 13.195,98.445 -7.539,2.512 V 95.93 Z"
         style="fill:#000000;fill-opacity:1;fill-rule:evenodd;stroke:none"
         id="path14" />
      <text
         xml:space="preserve"
         transform="translate(1.436861,86.078562)"
         style="font-variant:normal;font-size:15.84px;font-family:CairoFont-0;-inkscape-font-specification:CairoFont-0-0;writing-mode:lr-tb;fill:#000000;fill-opacity:1;fill-rule:nonzero;stroke:none"
         id="text18"><tspan
           x="0"
           y="0"
           id="tspan16">u</tspan></text>
      <text
         xml:space="preserve"
         transform="translate(10.327486,89.019968)"
         style="font-variant:normal;font-size:11.28px;font-family:CairoFont-0;-inkscape-font-specification:CairoFont-0-0;writing-mode:lr-tb;fill:#000000;fill-opacity:1;fill-rule:nonzero;stroke:none"
         id="text22"><tspan
           x="0"
           y="0"
           id="tspan20">g</tspan></text>
      <path
         d="M 125.672,98.445 H 106.82"
         style="fill:none;stroke:#000000;stroke-width:0.6912;stroke-linecap:butt;stroke-linejoin:miter;stroke-miterlimit:3.25;stroke-dasharray:0.6912, 4.1472;stroke-dashoffset:0;stroke-opacity:1"
         id="path24" />
      <path
         d="m 120.016,98.445 -7.539,-2.515 v 5.027 z"
         style="fill:#000000;fill-opacity:1;fill-rule:evenodd;stroke:none"
         id="path26" />
      <text
         xml:space="preserve"
         transform="translate(108.25868,113.62121)"
         style="font-variant:normal;font-size:15.84px;font-family:CairoFont-0;-inkscape-font-specification:CairoFont-0-0;writing-mode:lr-tb;fill:#000000;fill-opacity:1;fill-rule:nonzero;stroke:none"
         id="text30"><tspan
           x="0"
           y="0"
           id="tspan28">u</tspan></text>
      <text
         xml:space="preserve"
         transform="translate(117.1493,116.56262)"
         style="font-variant:normal;font-size:11.28px;font-family:CairoFont-0;-inkscape-font-specification:CairoFont-0-0;writing-mode:lr-tb;fill:#000000;fill-opacity:1;fill-rule:nonzero;stroke:none"
         id="text34"><tspan
           x="0"
           y="0"
           id="tspan32">g</tspan></text>
      <path
         d="M 75.402,98.445 H 50.27"
         style="fill:none;stroke:#000000;stroke-width:0.6912;stroke-linecap:butt;stroke-linejoin:miter;stroke-miterlimit:3.25;stroke-dasharray:0.6912, 4.1472;stroke-dashoffset:0;stroke-opacity:1"
         id="path36" />
      <path
         d="M 66.605,98.445 59.066,95.93 v 5.027 z"
         style="fill:#000000;fill-opacity:1;fill-rule:evenodd;stroke:none"
         id="path38" />
      <text
         xml:space="preserve"
         transform="translate(54.84777,113.62121)"
         style="font-variant:normal;font-size:15.84px;font-family:CairoFont-0;-inkscape-font-specification:CairoFont-0-0;writing-mode:lr-tb;fill:#000000;fill-opacity:1;fill-rule:nonzero;stroke:none"
         id="text42"><tspan
           x="0"
           y="0"
           id="tspan40">u</tspan></text>
      <text
         xml:space="preserve"
         transform="translate(63.738395,116.56262)"
         style="font-variant:normal;font-size:11.28px;font-family:CairoFont-0;-inkscape-font-specification:CairoFont-0-0;writing-mode:lr-tb;fill:#000000;fill-opacity:1;fill-rule:nonzero;stroke:none"
         id="text46"><tspan
           x="0"
           y="0"
           id="tspan44">g</tspan></text>
      <path
         d="m 106.82,98.445 c 0,-4.168 -1.652,-8.164 -4.597,-11.109 -2.95,-2.945 -6.946,-4.602 -11.11,-4.602 -4.168,0 -8.164,1.657 -11.109,4.602 -2.945,2.945 -4.602,6.941 -4.602,11.109"
         style="fill:none;stroke:#000000;stroke-width:0.6912;stroke-linecap:butt;stroke-linejoin:miter;stroke-miterlimit:3.25;stroke-dasharray:0.6912, 4.1472;stroke-dashoffset:0;stroke-opacity:1"
         id="path48" />
      <path
         d="m 94.883,82.734 -7.539,-2.511 v 5.023 z"
         style="fill:#000000;fill-opacity:1;fill-rule:evenodd;stroke:none"
         id="path50" />
      <text
         xml:space="preserve"
         transform="translate(83.124134,70.369471)"
         style="font-variant:normal;font-size:15.84px;font-family:CairoFont-0;-inkscape-font-specification:CairoFont-0-0;writing-mode:lr-tb;fill:#000000;fill-opacity:1;fill-rule:nonzero;stroke:none"
         id="text54"><tspan
           x="0"
           y="0"
           id="tspan52">u</tspan></text>
      <text
         xml:space="preserve"
         transform="translate(92.014759,73.310877)"
         style="font-variant:normal;font-size:11.28px;font-family:CairoFont-0;-inkscape-font-specification:CairoFont-0-0;writing-mode:lr-tb;fill:#000000;fill-opacity:1;fill-rule:nonzero;stroke:none"
         id="text58"><tspan
           x="0"
           y="0"
           id="tspan56">g</tspan></text>
      <path
         d="m 106.82,98.445 0.578,0.754 0.407,0.895 0.199,0.996 -0.027,1.039 -0.258,1.012 -0.473,0.921 -0.652,0.778 -0.785,0.59 -0.871,0.382 -0.895,0.172 -0.883,-0.019 -0.828,-0.18 -0.75,-0.305 -0.644,-0.382 -0.532,-0.426 -0.41,-0.422 -0.273,-0.391 -0.137,-0.339 0.004,-0.27 0.152,-0.191 0.285,-0.11 0.418,-0.023 0.524,0.07 0.609,0.172 0.656,0.281 0.664,0.406 0.629,0.54 0.547,0.667 0.414,0.797 0.242,0.895 0.032,0.965 -0.192,0.98 -0.422,0.934 -0.625,0.832 -0.793,0.676 -0.914,0.472 -0.972,0.254 -0.969,0.024 -0.914,-0.188 -0.824,-0.371 -0.703,-0.516 -0.571,-0.605 -0.441,-0.652 -0.313,-0.657 -0.203,-0.613 -0.097,-0.535 -0.004,-0.438 0.09,-0.312 0.175,-0.176 0.254,-0.035 0.332,0.109 0.391,0.243 0.43,0.378 0.433,0.504 0.41,0.618 0.336,0.726 0.219,0.813 0.07,0.875 -0.125,0.902 -0.328,0.883 -0.539,0.812 -0.734,0.696 -0.891,0.523 -0.992,0.316 -1.035,0.09 -1.012,-0.14 -0.926,-0.356 -0.793,-0.535 -0.625,-0.676 -0.453,-0.765 -0.281,-0.809 -0.133,-0.805 v -0.769 l 0.09,-0.692 0.16,-0.586 0.203,-0.464 0.223,-0.317 0.238,-0.164 h 0.242 l 0.235,0.164 0.226,0.317 0.203,0.464 0.161,0.586 0.089,0.692 -0.003,0.769 -0.129,0.805 -0.282,0.809 -0.453,0.765 -0.629,0.676 -0.789,0.535 -0.925,0.356 -1.012,0.14 -1.035,-0.09 -0.993,-0.316 -0.89,-0.523 -0.735,-0.696 -0.539,-0.812 -0.332,-0.883 -0.121,-0.902 0.067,-0.875 0.222,-0.813 0.336,-0.726 0.406,-0.618 0.438,-0.504 0.43,-0.378 0.39,-0.243 0.328,-0.109 0.258,0.035 0.176,0.176 0.09,0.312 -0.004,0.438 -0.098,0.535 -0.203,0.613 -0.316,0.657 -0.438,0.652 -0.574,0.605 -0.703,0.516 -0.82,0.371 -0.914,0.188 -0.973,-0.024 -0.969,-0.254 -0.914,-0.472 -0.793,-0.676 -0.629,-0.832 -0.418,-0.934 -0.191,-0.98 0.031,-0.965 0.242,-0.895 0.414,-0.797 0.543,-0.667 0.633,-0.54 0.664,-0.406 0.656,-0.281 0.61,-0.172 0.523,-0.07 0.414,0.023 0.289,0.11 0.149,0.191 0.008,0.27 -0.137,0.339 -0.274,0.391 -0.41,0.422 -0.531,0.426 -0.648,0.382 -0.746,0.305 -0.829,0.18 -0.882,0.019 -0.899,-0.172 -0.867,-0.382 -0.785,-0.59 -0.653,-0.778 -0.472,-0.921 -0.258,-1.012 -0.031,-1.039 0.199,-0.996 0.406,-0.895 0.578,-0.754"
         style="fill:none;stroke:#000000;stroke-width:0.6912;stroke-linecap:square;stroke-linejoin:miter;stroke-miterlimit:3.25;stroke-dasharray:none;stroke-opacity:1"
         id="path60" />
      <text
         xml:space="preserve"
         transform="translate(86.40179,135.29514)"
         style="font-variant:normal;font-size:15.84px;font-family:CairoFont-0;-inkscape-font-specification:CairoFont-0-0;writing-mode:lr-tb;fill:#000000;fill-opacity:1;fill-rule:nonzero;stroke:none"
         id="text64"><tspan
           x="0"
           y="0"
           id="tspan62">g</tspan></text>
      <path
         d="m 18.852,98.445 c 0,4.164 1.656,8.16 4.601,11.106 2.945,2.945 6.942,4.601 11.106,4.601 4.168,0 8.164,-1.656 11.109,-4.601 2.945,-2.946 4.602,-6.942 4.602,-11.106"
         style="fill:none;stroke:#000000;stroke-width:0.6912;stroke-linecap:butt;stroke-linejoin:miter;stroke-miterlimit:3.25;stroke-dasharray:0.6912, 4.1472;stroke-dashoffset:0;stroke-opacity:1"
         id="path66" />
      <path
         d="m 38.332,114.152 -7.543,2.516 v -5.027 z"
         style="fill:#000000;fill-opacity:1;fill-rule:evenodd;stroke:none"
         id="path68" />
      <text
         xml:space="preserve"
         transform="translate(26.571406,129.3303)"
         style="font-variant:normal;font-size:15.84px;font-family:CairoFont-0;-inkscape-font-specification:CairoFont-0-0;writing-mode:lr-tb;fill:#000000;fill-opacity:1;fill-rule:nonzero;stroke:none"
         id="text72"><tspan
           x="0"
           y="0"
           id="tspan70">u</tspan></text>
      <text
         xml:space="preserve"
         transform="translate(35.462031,132.27171)"
         style="font-variant:normal;font-size:11.28px;font-family:CairoFont-0;-inkscape-font-specification:CairoFont-0-0;writing-mode:lr-tb;fill:#000000;fill-opacity:1;fill-rule:nonzero;stroke:none"
         id="text76"><tspan
           x="0"
           y="0"
           id="tspan74">g</tspan></text>
      <path
         d="m 18.852,98.445 -0.579,-0.757 -0.406,-0.895 -0.199,-0.996 0.027,-1.039 0.262,-1.012 0.469,-0.922 0.652,-0.773 0.789,-0.59 0.867,-0.383 0.899,-0.176 0.879,0.02 0.832,0.18 0.746,0.304 0.644,0.387 0.536,0.422 0.406,0.422 0.273,0.39 0.137,0.34 -0.004,0.27 -0.148,0.191 -0.289,0.11 -0.418,0.023 -0.524,-0.07 -0.605,-0.172 -0.66,-0.281 -0.665,-0.407 -0.628,-0.535 -0.547,-0.672 -0.414,-0.793 -0.239,-0.898 -0.035,-0.965 0.192,-0.98 0.421,-0.934 0.625,-0.832 0.797,-0.676 0.91,-0.473 0.973,-0.253 0.969,-0.024 0.914,0.192 0.824,0.371 0.703,0.511 0.571,0.606 0.441,0.652 0.316,0.656 0.2,0.614 0.101,0.539 v 0.433 l -0.086,0.313 -0.176,0.176 -0.257,0.035 -0.332,-0.106 -0.391,-0.246 -0.426,-0.379 -0.437,-0.5 -0.407,-0.621 -0.335,-0.726 -0.223,-0.813 -0.067,-0.875 0.122,-0.898 0.328,-0.887 0.539,-0.813 0.734,-0.695 0.891,-0.523 0.996,-0.317 1.035,-0.09 1.008,0.141 0.926,0.356 0.793,0.535 0.628,0.675 0.45,0.766 0.285,0.809 0.129,0.808 0.004,0.766 -0.094,0.691 -0.16,0.586 -0.199,0.465 -0.227,0.317 -0.238,0.164 h -0.239 l -0.238,-0.164 -0.226,-0.317 -0.204,-0.465 -0.156,-0.586 -0.094,-0.691 0.004,-0.766 0.129,-0.808 0.282,-0.809 0.453,-0.766 0.629,-0.675 0.792,-0.535 0.922,-0.356 1.012,-0.141 1.035,0.09 0.996,0.317 0.891,0.523 0.73,0.695 0.543,0.813 0.329,0.887 0.121,0.898 -0.067,0.875 -0.222,0.813 -0.336,0.726 -0.407,0.621 -0.437,0.5 -0.43,0.379 -0.387,0.246 -0.332,0.106 -0.257,-0.035 -0.176,-0.176 -0.086,-0.313 v -0.433 l 0.098,-0.539 0.203,-0.614 0.316,-0.656 0.441,-0.652 0.571,-0.606 0.703,-0.511 0.82,-0.371 0.918,-0.192 0.969,0.024 0.969,0.253 0.914,0.473 0.797,0.676 0.625,0.832 0.418,0.934 0.195,0.98 -0.035,0.965 -0.238,0.898 -0.415,0.793 -0.546,0.672 -0.629,0.535 -0.668,0.407 -0.657,0.281 -0.605,0.172 -0.527,0.07 -0.414,-0.023 -0.289,-0.11 -0.149,-0.191 -0.008,-0.27 0.137,-0.34 0.277,-0.39 0.407,-0.422 0.531,-0.422 0.648,-0.387 0.746,-0.304 0.828,-0.18 0.883,-0.02 0.899,0.176 0.867,0.383 0.785,0.59 0.652,0.773 0.473,0.922 0.258,1.012 0.031,1.039 -0.199,0.996 -0.406,0.895 -0.578,0.757"
         style="fill:none;stroke:#000000;stroke-width:0.6912;stroke-linecap:square;stroke-linejoin:miter;stroke-miterlimit:3.25;stroke-dasharray:none;stroke-opacity:1"
         id="path78" />
      <text
         xml:space="preserve"
         transform="translate(29.849063,73.185877)"
         style="font-variant:normal;font-size:15.84px;font-family:CairoFont-0;-inkscape-font-specification:CairoFont-0-0;writing-mode:lr-tb;fill:#000000;fill-opacity:1;fill-rule:nonzero;stroke:none"
         id="text82"><tspan
           x="0"
           y="0"
           id="tspan80">g</tspan></text>
      <path
         d="m 78.168,98.445 c 0,0.731 -0.289,1.434 -0.809,1.953 -0.519,0.52 -1.222,0.809 -1.957,0.809 -0.73,0 -1.433,-0.289 -1.953,-0.809 -0.519,-0.519 -0.808,-1.222 -0.808,-1.953 0,-0.734 0.289,-1.437 0.808,-1.957 0.52,-0.519 1.223,-0.808 1.953,-0.808 0.735,0 1.438,0.289 1.957,0.808 0.52,0.52 0.809,1.223 0.809,1.957 z"
         style="fill:#000000;fill-opacity:1;fill-rule:evenodd;stroke:none"
         id="path84" />
      <path
         d="m 53.035,98.445 c 0,0.731 -0.293,1.434 -0.812,1.953 -0.516,0.52 -1.219,0.809 -1.953,0.809 -0.735,0 -1.438,-0.289 -1.958,-0.809 -0.515,-0.519 -0.808,-1.222 -0.808,-1.953 0,-0.734 0.293,-1.437 0.808,-1.957 0.52,-0.519 1.223,-0.808 1.958,-0.808 0.734,0 1.437,0.289 1.953,0.808 0.519,0.52 0.812,1.223 0.812,1.957 z"
         style="fill:#000000;fill-opacity:1;fill-rule:evenodd;stroke:none"
         id="path86" />
      <path
         d="m 21.617,98.445 c 0,0.731 -0.293,1.434 -0.812,1.953 -0.516,0.52 -1.219,0.809 -1.953,0.809 -0.735,0 -1.438,-0.289 -1.957,-0.809 -0.516,-0.519 -0.809,-1.222 -0.809,-1.953 0,-0.734 0.293,-1.437 0.809,-1.957 0.519,-0.519 1.222,-0.808 1.957,-0.808 0.734,0 1.437,0.289 1.953,0.808 0.519,0.52 0.812,1.223 0.812,1.957 z"
         style="fill:#000000;fill-opacity:1;fill-rule:evenodd;stroke:none"
         id="path88" />
      <path
         d="m 109.586,98.445 c 0,0.731 -0.289,1.434 -0.809,1.953 -0.519,0.52 -1.222,0.809 -1.957,0.809 -0.73,0 -1.433,-0.289 -1.953,-0.809 -0.519,-0.519 -0.808,-1.222 -0.808,-1.953 0,-0.734 0.289,-1.437 0.808,-1.957 0.52,-0.519 1.223,-0.808 1.953,-0.808 0.735,0 1.438,0.289 1.957,0.808 0.52,0.52 0.809,1.223 0.809,1.957 z"
         style="fill:#000000;fill-opacity:1;fill-rule:evenodd;stroke:none"
         id="path90" />
    </g>
    <g
       id="g92">
      <g
         id="g94"
         clip-path="url(#clipPath98)">
        <text
           xml:space="preserve"
           transform="translate(59.226989,161.49994)"
           style="font-variant:normal;font-size:12.72px;font-family:CairoFont-1;-inkscape-font-specification:CairoFont-1-0;writing-mode:lr-tb;fill:#000000;fill-opacity:1;fill-rule:nonzero;stroke:none"
           id="text102"><tspan
             x="0"
             y="0"
             id="tspan100">9</tspan></text>
      </g>
    </g>
  </g>
</svg>
