<?xml version="1.0" encoding="UTF-8" standalone="no"?>
<!-- Created with Inkscape (http://www.inkscape.org/) -->

<svg
   version="1.1"
   id="svg1"
   width="984"
   height="246.66667"
   viewBox="0 0 984 246.66667"
   sodipodi:docname="05sh7fbq1em3j.pdf"
   xmlns:inkscape="http://www.inkscape.org/namespaces/inkscape"
   xmlns:sodipodi="http://sodipodi.sourceforge.net/DTD/sodipodi-0.dtd"
   xmlns="http://www.w3.org/2000/svg"
   xmlns:svg="http://www.w3.org/2000/svg">
  <defs
     id="defs1" />
  <sodipodi:namedview
     id="namedview1"
     pagecolor="#ffffff"
     bordercolor="#999999"
     borderopacity="1"
     inkscape:showpageshadow="0"
     inkscape:pageopacity="0"
     inkscape:pagecheckerboard="0"
     inkscape:deskcolor="#d1d1d1">
    <inkscape:page
       x="0"
       y="0"
       id="page1"
       width="984"
       height="246.66667"
       margin="0"
       bleed="0" />
  </sodipodi:namedview>
  <g
     id="g1"
     inkscape:groupmode="layer"
     inkscape:label="">
    <path
       id="path1"
       d="M 0,108.918 H 50.27"
       style="fill:none;stroke:#000000;stroke-width:0.9216;stroke-linecap:butt;stroke-linejoin:miter;stroke-miterlimit:3.25;stroke-dasharray:0.9216, 5.5296;stroke-dashoffset:0;stroke-opacity:1"
       transform="scale(1.3333333)" />
    <path
       id="path2"
       d="m 30.16,108.918 -10.051,3.352 v -6.704 z"
       style="fill:#000000;fill-opacity:1;fill-rule:evenodd;stroke:none"
       transform="scale(1.3333333)" />
    <path
       id="path3"
       d="m 5.5200636,-10.957492 -1.546875,7.2773442 c -0.1289062,0.5507812 -0.1289062,1.0078125 -0.023437,1.3710937 0.1875,0.6445313 0.7148438,0.984375 1.6171875,0.984375 1.2773438,0 2.2851563,-0.5625 3,-1.7226562 0.375,-0.609375 0.6679688,-1.4648438 0.9023438,-2.5429688 L 10.62944,-10.957492 h 1.839843 L 10.14897,-4.603125e-4 H 8.4028761 L 8.7544386,-1.6176478 c -0.328125,0.421875 -0.6914062,0.77343749 -1.1132812,1.06640624 -0.8320313,0.57421875 -1.734375,0.8671875 -2.7421875,0.8671875 -1.5820313,0 -2.53125,-0.52734375 -2.859375,-1.58203124 -0.1875,-0.5625 -0.1875,-1.3007813 0,-2.2382813 l 1.59375,-7.4531254 z m 0,0"
       style="fill:#000000;fill-opacity:1;fill-rule:nonzero;stroke:none"
       aria-label="u"
       transform="matrix(1.3333333,0,0,1.3333333,19.507103,171.75452)" />
    <path
       id="path4"
       d="m 6.9263136,-7.5121792 c 0.234375,0.1640625 0.421875,0.421875 0.609375,0.7265625 l 0.2226563,-0.984375 H 8.9653761 L 7.4536574,-0.63327294 C 7.2427199,0.36282081 6.9263136,1.1596958 6.5161574,1.7221958 5.7310011,2.7886021 4.5942824,3.3276646 3.0708449,3.3276646 c -0.8554688,0 -1.5117188,-0.1875 -2.0039063,-0.5625 -0.49218747,-0.375 -0.70312497,-0.984375 -0.59765622,-1.79296879 H 1.8169386 c -0.011719,0.36328129 0.058594,0.63281249 0.2109375,0.83203129 0.2226563,0.28125 0.6679688,0.4335937 1.3007813,0.4335937 1.0195312,0 1.7578125,-0.3632812 2.2265625,-1.0664062 0.2695312,-0.42187504 0.5039062,-1.1718750375 0.7148437,-2.25 -0.3398437,0.38671871 -0.7148437,0.69140621 -1.125,0.87890621 -0.421875,0.1992187525 -0.9257812,0.3046875 -1.546875,0.3046875 -0.8320312,0 -1.5234375,-0.3046875 -2.0390625,-0.90234375 C 1.0552199,-1.4067104 0.94975113,-2.4028042 1.2427199,-3.7973354 c 0.2929687,-1.3007813 0.8085937,-2.34375 1.6171875,-3.0703125 0.796875,-0.7382813 1.6523437,-1.1132813 2.5546875,-1.1132813 0.6210937,0 1.125,0.1523438 1.5117187,0.46875 z m -1.5117187,0.703125 c -0.9257813,0 -1.6523438,0.4335938 -2.1796875,1.3007813 -0.28125,0.46875 -0.5039063,1.0664062 -0.65625,1.8164062 -0.1875,0.890625 -0.1523438,1.5585938 0.1054687,2.0273438 0.2578125,0.46875 0.6914063,0.69140621 1.3007813,0.69140621 0.9492187,0 1.6992187,-0.42187501 2.2734375,-1.27734371 0.3164062,-0.4921875 0.5390625,-1.0546875 0.6679687,-1.6992188 0.2109375,-0.9726562 0.1640625,-1.6875 -0.1289062,-2.15625 -0.3046875,-0.46875 -0.7617188,-0.703125 -1.3828125,-0.703125 z m 0,0"
       style="fill:#000000;fill-opacity:1;fill-rule:nonzero;stroke:none"
       aria-label="g"
       transform="matrix(1.3333333,0,0,1.3333333,35.069603,176.98108)" />
    <path
       id="path5"
       d="M 167.562,108.918 H 117.293"
       style="fill:none;stroke:#000000;stroke-width:0.9216;stroke-linecap:butt;stroke-linejoin:miter;stroke-miterlimit:3.25;stroke-dasharray:0.9216, 5.5296;stroke-dashoffset:0;stroke-opacity:1"
       transform="scale(1.3333333)" />
    <path
       id="path6"
       d="m 147.457,108.918 -10.055,-3.352 v 6.704 z"
       style="fill:#000000;fill-opacity:1;fill-rule:evenodd;stroke:none"
       transform="scale(1.3333333)" />
    <path
       id="path7"
       d="m 5.5184874,-10.957492 -1.546875,7.2773442 c -0.1289063,0.5507812 -0.1289063,1.0078125 -0.023437,1.3710937 0.1875,0.6445313 0.7148437,0.984375 1.6171875,0.984375 1.2773437,0 2.2851562,-0.5625 3,-1.7226562 0.375,-0.609375 0.6679687,-1.4648438 0.9023437,-2.5429688 l 1.1601554,-5.3671879 h 1.839844 L 10.147394,-4.603125e-4 H 8.4012999 L 8.7528624,-1.6176478 c -0.328125,0.421875 -0.6914063,0.77343749 -1.1132813,1.06640624 -0.8320312,0.57421875 -1.734375,0.8671875 -2.7421875,0.8671875 -1.5820312,0 -2.53125,-0.52734375 -2.859375,-1.58203124 -0.1875,-0.5625 -0.1875,-1.3007813 0,-2.2382813 l 1.59375,-7.4531254 z m 0,0"
       style="fill:#000000;fill-opacity:1;fill-rule:nonzero;stroke:none"
       aria-label="u"
       transform="matrix(1.3333333,0,0,1.3333333,175.89983,171.75452)" />
    <path
       id="path8"
       d="m 6.9247374,-7.5121792 c 0.234375,0.1640625 0.421875,0.421875 0.609375,0.7265625 l 0.2226562,-0.984375 H 8.9637999 L 7.4520811,-0.63327294 C 7.2411436,0.36282081 6.9247374,1.1596958 6.5145811,1.7221958 5.7294249,2.7886021 4.5927061,3.3276646 3.0692686,3.3276646 c -0.8554687,0 -1.5117187,-0.1875 -2.0039062,-0.5625 -0.49218752,-0.375 -0.70312502,-0.984375 -0.59765627,-1.79296879 H 1.8153624 c -0.011719,0.36328129 0.058594,0.63281249 0.2109375,0.83203129 0.2226562,0.28125 0.6679687,0.4335937 1.3007812,0.4335937 1.0195313,0 1.7578125,-0.3632812 2.2265625,-1.0664062 0.2695313,-0.42187504 0.5039063,-1.1718750375 0.7148438,-2.25 -0.3398438,0.38671871 -0.7148438,0.69140621 -1.125,0.87890621 -0.421875,0.1992187525 -0.9257813,0.3046875 -1.546875,0.3046875 -0.8320313,0 -1.5234375,-0.3046875 -2.0390625,-0.90234375 C 1.0536436,-1.4067104 0.94817488,-2.4028042 1.2411436,-3.7973354 c 0.2929688,-1.3007813 0.8085938,-2.34375 1.6171875,-3.0703125 0.796875,-0.7382813 1.6523438,-1.1132813 2.5546875,-1.1132813 0.6210938,0 1.125,0.1523438 1.5117188,0.46875 z m -1.5117188,0.703125 c -0.9257812,0 -1.6523437,0.4335938 -2.1796875,1.3007813 -0.28125,0.46875 -0.5039062,1.0664062 -0.65625,1.8164062 -0.1875,0.890625 -0.1523437,1.5585938 0.1054688,2.0273438 0.2578125,0.46875 0.6914062,0.69140621 1.3007812,0.69140621 0.9492188,0 1.6992188,-0.42187501 2.2734375,-1.27734371 0.3164063,-0.4921875 0.5390625,-1.0546875 0.6679688,-1.6992188 0.2109375,-0.9726562 0.1640625,-1.6875 -0.1289063,-2.15625 -0.3046875,-0.46875 -0.7617187,-0.703125 -1.3828125,-0.703125 z m 0,0"
       style="fill:#000000;fill-opacity:1;fill-rule:nonzero;stroke:none"
       aria-label="g"
       transform="matrix(1.3333333,0,0,1.3333333,191.46233,176.98108)" />
    <path
       id="path9"
       d="m 50.27,108.918 c 0,8.887 3.531,17.41 9.816,23.695 6.285,6.285 14.809,9.817 23.695,9.817 8.891,0 17.414,-3.532 23.699,-9.817 6.286,-6.285 9.813,-14.808 9.813,-23.695"
       style="fill:none;stroke:#000000;stroke-width:0.9216;stroke-linecap:butt;stroke-linejoin:miter;stroke-miterlimit:3.25;stroke-dasharray:0.9216, 5.5296;stroke-dashoffset:0;stroke-opacity:1"
       transform="scale(1.3333333)" />
    <path
       id="path10"
       d="m 88.809,142.43 -10.055,3.351 v -6.703 z"
       style="fill:#000000;fill-opacity:1;fill-rule:evenodd;stroke:none"
       transform="scale(1.3333333)" />
    <path
       id="path11"
       d="m 5.519276,-10.957523 -1.546875,7.2773435 c -0.1289063,0.5507812 -0.1289063,1.0078125 -0.023437,1.3710937 0.1875,0.6445313 0.7148437,0.984375 1.6171875,0.984375 1.2773437,0 2.2851562,-0.5625 3,-1.7226562 0.375,-0.609375 0.6679687,-1.4648438 0.9023437,-2.5429688 l 1.1601568,-5.3671872 h 1.839844 L 10.148182,-4.92e-4 H 8.4020885 L 8.753651,-1.6176795 c -0.328125,0.421875 -0.6914063,0.7734375 -1.1132813,1.06640625 -0.8320312,0.57421875 -1.734375,0.8671875 -2.7421875,0.8671875 -1.5820312,0 -2.53125,-0.52734375 -2.859375,-1.58203125 -0.1875,-0.5625 -0.1875,-1.3007813 0,-2.2382813 l 1.59375,-7.4531247 z m 0,0"
       style="fill:#000000;fill-opacity:1;fill-rule:nonzero;stroke:none"
       aria-label="u"
       transform="matrix(1.3333333,0,0,1.3333333,97.703465,216.43816)" />
    <path
       id="path12"
       d="m 6.925526,-7.5122109 c 0.234375,0.1640625 0.421875,0.421875 0.609375,0.7265625 l 0.2226562,-0.984375 H 8.9645885 L 7.4528697,-0.63330462 C 7.2419322,0.36278913 6.925526,1.1596641 6.5153697,1.7221641 5.7302135,2.7885704 4.5934947,3.3276329 3.0700572,3.3276329 c -0.8554687,0 -1.5117187,-0.1875 -2.0039062,-0.5625 -0.4921875,-0.375 -0.703125,-0.984375 -0.59765625,-1.79296877 H 1.816151 C 1.804432,1.3354454 1.874745,1.6049766 2.0270885,1.8041954 c 0.2226562,0.28125 0.6679687,0.4335937 1.3007812,0.4335937 1.0195313,0 1.7578125,-0.3632812 2.2265625,-1.0664062 0.2695313,-0.42187502 0.5039063,-1.171875025 0.7148438,-2.25 -0.3398438,0.38671873 -0.7148438,0.69140623 -1.125,0.87890623 -0.421875,0.199218745 -0.9257813,0.3046875 -1.546875,0.3046875 -0.8320313,0 -1.5234375,-0.3046875 -2.0390625,-0.90234375 C 1.0544322,-1.4067421 0.9489635,-2.4028359 1.2419322,-3.7973671 c 0.2929688,-1.3007813 0.8085938,-2.34375 1.6171875,-3.0703125 0.796875,-0.7382813 1.6523438,-1.1132813 2.5546875,-1.1132813 0.6210938,0 1.125,0.1523438 1.5117188,0.46875 z m -1.5117188,0.703125 c -0.9257812,0 -1.6523437,0.4335938 -2.1796875,1.3007813 -0.28125,0.46875 -0.5039062,1.0664062 -0.65625,1.8164062 -0.1875,0.890625 -0.1523437,1.5585938 0.1054688,2.0273438 0.2578125,0.46875 0.6914062,0.69140623 1.3007812,0.69140623 0.9492188,0 1.6992188,-0.42187503 2.2734375,-1.27734373 0.3164063,-0.4921875 0.5390625,-1.0546875 0.6679688,-1.6992188 0.2109375,-0.9726562 0.1640625,-1.6875 -0.1289063,-2.15625 -0.3046875,-0.46875 -0.7617187,-0.703125 -1.3828125,-0.703125 z m 0,0"
       style="fill:#000000;fill-opacity:1;fill-rule:nonzero;stroke:none"
       aria-label="g"
       transform="matrix(1.3333333,0,0,1.3333333,113.26597,221.66472)" />
    <path
       id="path13"
       d="m 83.781,75.402 -0.949,-0.824 -1.129,-0.625 -1.258,-0.387 -1.332,-0.113 -1.332,0.16 -1.261,0.434 -1.129,0.676 -0.942,0.879 -0.719,1.027 -0.484,1.117 -0.254,1.156 -0.035,1.133 0.145,1.07 0.285,0.961 0.386,0.821 0.446,0.648 0.469,0.457 0.457,0.258 0.421,0.043 0.364,-0.172 0.289,-0.375 0.195,-0.562 0.086,-0.727 -0.043,-0.855 -0.199,-0.946 -0.367,-0.98 -0.551,-0.965 -0.746,-0.895 -0.93,-0.765 -1.098,-0.578 -1.222,-0.352 -1.301,-0.09 -1.313,0.184 -1.261,0.461 -1.137,0.707 -0.953,0.922 -0.731,1.078 -0.476,1.179 -0.219,1.219 0.027,1.203 0.243,1.133 0.418,1.031 0.543,0.891 0.617,0.734 0.64,0.563 0.621,0.379 0.559,0.187 h 0.469 l 0.355,-0.187 0.223,-0.363 0.078,-0.524 L 68.672,86.172 68.434,85.414 68.027,84.598 67.445,83.777 66.695,83 65.777,82.328 64.711,81.812 63.527,81.504 62.273,81.438 61,81.641 l -1.227,0.472 -1.121,0.727 -0.945,0.949 -0.73,1.117 -0.473,1.231 -0.199,1.273 0.062,1.254 0.309,1.18 0.515,1.066 0.676,0.918 0.774,0.754 0.824,0.578 0.812,0.406 0.758,0.239 0.656,0.078 0.524,-0.082 0.363,-0.223 0.188,-0.351 v -0.473 l -0.188,-0.559 -0.379,-0.617 -0.558,-0.644 -0.735,-0.614 -0.894,-0.543 -1.028,-0.418 -1.136,-0.246 -1.2,-0.023 -1.218,0.215 -1.18,0.476 -1.082,0.731 -0.918,0.957 -0.711,1.136 -0.457,1.258 -0.187,1.313 0.093,1.304 0.352,1.223 0.578,1.098 0.762,0.929 0.894,0.743 0.965,0.554 0.984,0.368 0.942,0.195 0.855,0.047 0.727,-0.086 0.566,-0.196 0.375,-0.289 0.168,-0.367 -0.043,-0.422 -0.254,-0.457 -0.461,-0.465 -0.648,-0.445 -0.82,-0.387 -0.957,-0.289 -1.071,-0.144 -1.136,0.039 -1.153,0.25 -1.121,0.484 -1.027,0.723 -0.875,0.941 -0.676,1.129 -0.434,1.262 -0.164,1.332 0.118,1.328 0.382,1.262 0.629,1.129 0.825,0.949"
       style="fill:none;stroke:#000000;stroke-width:0.9216;stroke-linecap:square;stroke-linejoin:miter;stroke-miterlimit:3.25;stroke-dasharray:none;stroke-opacity:1"
       transform="scale(1.3333333)" />
    <path
       id="path14"
       d="m 9.7032278,-10.524092 c 0.3164062,0.234375 0.5859372,0.5859379 0.8437502,1.0312504 l 0.304687,-1.3828124 h 1.710938 l -2.121094,9.99609363 C 10.14854,0.50325213 9.7032278,1.6165334 9.1172903,2.4134084 c -1.0898437,1.4882812 -2.6953125,2.25 -4.8164062,2.25 -1.1953125,0 -2.1210938,-0.2695313 -2.8125,-0.796875 C 0.79697781,3.3391896 0.50400906,2.4954396 0.65635281,1.3587209 H 2.5430716 c -0.023437,0.5039062 0.082031,0.890625 0.2929687,1.1601562 0.3164063,0.3984375 0.9492188,0.609375 1.828125,0.609375 1.4296875,0 2.4492188,-0.5039062 3.1054688,-1.4882812 0.375,-0.5859375 0.7148437,-1.640625025 1.0078125,-3.1523438 -0.4804688,0.55078128 -1.0078125,0.96093753 -1.5703125,1.24218753 -0.5976563,0.269531245 -1.3007813,0.421875 -2.1679688,0.421875 -1.171875,0 -2.1445312,-0.421875 -2.859375,-1.26562503 -0.7148437,-0.8554687 -0.8554687,-2.25 -0.4335937,-4.1953125 0.3984375,-1.828125 1.1367187,-3.28125 2.2617187,-4.3125 1.1132813,-1.0312501 2.3085938,-1.5468751 3.5742188,-1.5468751 0.8554687,0 1.5703125,0.210938 2.1210937,0.644531 z m -2.1210937,0.9843754 c -1.3007813,0 -2.3085938,0.609375 -3.046875,1.828125 -0.3984375,0.65625 -0.7148438,1.5 -0.9257813,2.5429687 -0.2695312,1.2421875 -0.2109375,2.1914063 0.1523438,2.8359375 0.3515625,0.65625 0.9609375,0.9726563 1.828125,0.9726563 1.3242187,0 2.3671875,-0.5976563 3.1640625,-1.7929688 0.4453125,-0.6914062 0.7617187,-1.4648437 0.9492187,-2.3671875 0.2929688,-1.3710937 0.234375,-2.3789062 -0.1875,-3.0234375 -0.421875,-0.65625 -1.078125,-0.9960937 -1.9335937,-0.9960937 z m 0,0"
       style="fill:#000000;fill-opacity:1;fill-rule:nonzero;stroke:none"
       aria-label="g"
       transform="matrix(1.3333333,0,0,1.3333333,57.277207,101.22743)" />
    <path
       id="path15"
       d="m 83.781,75.402 0.977,-0.804 1.148,-0.602 1.278,-0.355 1.336,-0.079 1.332,0.2 1.253,0.472 1.114,0.715 0.914,0.91 0.691,1.055 0.449,1.141 0.211,1.168 v 1.136 l -0.179,1.067 -0.321,0.949 -0.41,0.801 -0.469,0.621 -0.48,0.43 -0.465,0.218 -0.426,0.004 -0.355,-0.211 -0.277,-0.418 -0.176,-0.601 -0.055,-0.762 0.086,-0.879 0.242,-0.961 0.422,-0.984 0.609,-0.953 0.805,-0.864 0.988,-0.718 1.145,-0.52 1.258,-0.277 1.316,-0.008 1.309,0.273 1.234,0.543 1.086,0.786 0.891,0.984 0.652,1.129 0.391,1.207 0.133,1.226 -0.11,1.196 -0.312,1.109 -0.477,0.992 -0.582,0.844 -0.641,0.676 -0.648,0.496 -0.613,0.308 -0.535,0.114 -0.438,-0.078 -0.312,-0.262 -0.168,-0.438 -0.02,-0.586 0.141,-0.71 0.312,-0.793 0.488,-0.829 0.665,-0.812 0.835,-0.742 0.997,-0.61 1.132,-0.425 1.227,-0.196 1.277,0.059 1.266,0.336 1.191,0.605 1.043,0.844 0.848,1.047 0.605,1.187 0.332,1.266 0.063,1.277 -0.195,1.231 -0.43,1.133 -0.609,0.996 -0.739,0.836 -0.812,0.664 -0.828,0.484 -0.793,0.313 -0.711,0.144 -0.586,-0.019 -0.438,-0.172 -0.261,-0.309 -0.079,-0.437 0.114,-0.539 0.308,-0.61 0.496,-0.648 0.676,-0.641 0.844,-0.586 0.992,-0.472 1.109,-0.313 1.192,-0.109 1.23,0.133 1.207,0.39 1.125,0.653 0.985,0.886 0.789,1.09 0.543,1.234 0.269,1.309 -0.004,1.316 -0.277,1.258 -0.519,1.145 -0.719,0.984 -0.863,0.805 -0.954,0.613 -0.984,0.422 -0.961,0.242 -0.883,0.086 -0.758,-0.058 -0.601,-0.172 -0.418,-0.278 -0.211,-0.359 0.004,-0.422 0.219,-0.465 0.425,-0.48 0.625,-0.469 0.801,-0.414 0.949,-0.316 1.063,-0.18 h 1.141 l 1.168,0.211 1.14,0.449 1.055,0.691 0.91,0.914 0.711,1.114 0.473,1.25 0.203,1.332 -0.082,1.34 -0.352,1.277 -0.601,1.148 -0.809,0.977"
       style="fill:none;stroke:#000000;stroke-width:0.9216;stroke-linecap:square;stroke-linejoin:miter;stroke-miterlimit:3.25;stroke-dasharray:none;stroke-opacity:1"
       transform="scale(1.3333333)" />
    <path
       id="path16"
       d="m 9.7022546,-10.523483 c 0.3164064,0.234375 0.5859374,0.585937 0.8437504,1.0312495 l 0.304687,-1.3828125 h 1.710938 l -2.121094,9.99609375 C 10.147567,0.50386025 9.7022546,1.6171415 9.1163171,2.4140165 c -1.0898437,1.4882813 -2.6953125,2.25 -4.8164062,2.25 -1.1953125,0 -2.1210938,-0.2695312 -2.8125,-0.796875 C 0.79600462,3.3397978 0.50303587,2.4960478 0.65537962,1.359329 H 2.5420984 c -0.023437,0.5039063 0.082031,0.890625 0.2929687,1.1601563 0.3164063,0.3984375 0.9492188,0.609375 1.828125,0.609375 1.4296875,0 2.4492188,-0.5039063 3.1054688,-1.4882813 0.375,-0.5859375 0.7148437,-1.640625 1.0078125,-3.1523437 -0.4804688,0.5507812 -1.0078125,0.96093745 -1.5703125,1.24218745 -0.5976563,0.26953125 -1.3007813,0.421875 -2.1679688,0.421875 -1.171875,0 -2.1445312,-0.421875 -2.859375,-1.26562495 -0.7148437,-0.8554688 -0.8554687,-2.25 -0.4335937,-4.1953125 0.3984375,-1.828125 1.1367187,-3.28125 2.2617187,-4.3125 1.1132813,-1.0312503 2.3085938,-1.5468753 3.5742188,-1.5468753 0.8554687,0 1.5703125,0.210938 2.1210937,0.644532 z m -2.1210937,0.9843745 c -1.3007813,0 -2.3085938,0.609375 -3.046875,1.828125 -0.3984375,0.65625 -0.7148438,1.5 -0.9257813,2.5429688 -0.2695312,1.2421875 -0.2109375,2.1914062 0.1523438,2.8359375 0.3515625,0.65625 0.9609375,0.9726562 1.828125,0.9726562 1.3242187,0 2.3671875,-0.5976562 3.1640625,-1.7929687 0.4453125,-0.6914063 0.7617187,-1.4648438 0.9492187,-2.3671875 0.2929688,-1.3710938 0.234375,-2.3789063 -0.1875,-3.0234375 -0.421875,-0.65625 -1.078125,-0.9960938 -1.9335937,-0.9960938 z m 0,0"
       style="fill:#000000;fill-opacity:1;fill-rule:nonzero;stroke:none"
       aria-label="g"
       transform="matrix(1.3333333,0,0,1.3333333,149.05585,101.56256)" />
    <path
       id="path17"
       d="m 83.781,75.402 -1.015,0.75 -1.219,0.512 -1.352,0.223 -1.406,-0.098 -1.359,-0.414 -1.219,-0.707 -1.004,-0.945 -0.727,-1.11 -0.425,-1.195 -0.133,-1.211 0.137,-1.16 0.355,-1.063 0.516,-0.941 0.609,-0.797 0.649,-0.652 0.624,-0.504 0.563,-0.352 0.465,-0.199 0.351,-0.035 0.223,0.125 0.094,0.293 -0.035,0.445 -0.164,0.586 -0.289,0.699 -0.43,0.77 -0.574,0.789 -0.731,0.754 -0.894,0.652 -1.043,0.485 -1.172,0.257 -1.25,-0.023 -1.266,-0.328 -1.199,-0.641 -1.051,-0.926 -0.824,-1.156 -0.539,-1.308 -0.227,-1.368 0.098,-1.336 0.391,-1.222 0.636,-1.051 0.825,-0.844 0.941,-0.629 1,-0.422 0.992,-0.246 0.938,-0.105 0.832,0.004 0.691,0.082 0.527,0.144 0.336,0.188 0.133,0.23 -0.07,0.274 -0.27,0.308 -0.461,0.336 -0.636,0.344 -0.793,0.32 -0.926,0.25 -1.024,0.133 -1.093,-0.039 -1.114,-0.254 -1.074,-0.504 -0.969,-0.769 -0.8,-1.02 -0.559,-1.226 -0.269,-1.367 0.05,-1.415 0.368,-1.371 0.66,-1.23 0.894,-1.012 1.063,-0.742 1.156,-0.453 1.176,-0.168 1.14,0.082 1.059,0.289 0.945,0.434 0.813,0.515 0.664,0.547 0.512,0.524 0.347,0.464 0.172,0.387 -0.004,0.285 -0.187,0.184 -0.368,0.086 -0.535,-0.02 -0.675,-0.129 -0.79,-0.242 -0.855,-0.375 -0.871,-0.531 -0.824,-0.695 -0.715,-0.875 -0.539,-1.047 -0.305,-1.188 -0.015,-1.281 0.296,-1.301 0.614,-1.242 0.898,-1.09 1.129,-0.867 1.277,-0.578 1.336,-0.262 1.313,0.055 1.203,0.344 1.047,0.589 0.859,0.774 0.66,0.887 0.477,0.941 0.316,0.93 0.18,0.871 0.07,0.761 -0.019,0.618 -0.102,0.445 -0.172,0.262 -0.246,0.062 -0.316,-0.129 -0.383,-0.32 -0.426,-0.496 -0.441,-0.66 -0.418,-0.809 -0.344,-0.941 -0.215,-1.047 -0.023,-1.117 0.207,-1.149 0.476,-1.113 0.758,-1.02 1.016,-0.843 1.234,-0.61 1.371,-0.32 h 1.422 l 1.371,0.32 1.235,0.61 1.015,0.843 0.758,1.02 0.477,1.113 0.211,1.149 -0.028,1.117 -0.215,1.047 -0.343,0.941 -0.418,0.809 -0.442,0.66 -0.425,0.496 -0.379,0.32 -0.317,0.129 -0.246,-0.062 -0.176,-0.262 -0.097,-0.445 -0.02,-0.618 0.067,-0.761 0.179,-0.871 0.317,-0.93 0.476,-0.941 0.66,-0.887 0.86,-0.774 1.047,-0.589 1.207,-0.344 1.308,-0.055 1.336,0.262 1.278,0.578 1.128,0.867 0.899,1.09 0.613,1.242 0.297,1.301 -0.016,1.281 -0.3,1.188 -0.539,1.047 -0.715,0.875 -0.828,0.695 -0.872,0.531 -0.855,0.375 -0.789,0.242 -0.676,0.129 -0.535,0.02 -0.367,-0.086 -0.188,-0.184 -0.004,-0.285 0.176,-0.387 0.344,-0.464 0.512,-0.524 0.668,-0.547 0.808,-0.515 0.946,-0.434 1.058,-0.289 1.141,-0.082 1.176,0.168 1.156,0.453 1.066,0.742 0.895,1.012 0.656,1.23 0.367,1.371 0.051,1.415 -0.27,1.367 -0.558,1.226 -0.797,1.02 -0.973,0.769 -1.074,0.504 -1.113,0.254 -1.09,0.039 -1.027,-0.133 -0.926,-0.25 -0.789,-0.32 -0.637,-0.344 -0.461,-0.336 -0.273,-0.308 -0.071,-0.274 0.137,-0.23 0.336,-0.188 0.523,-0.144 0.696,-0.082 0.832,-0.004 0.933,0.105 0.993,0.246 1,0.422 0.941,0.629 0.824,0.844 0.637,1.051 0.391,1.222 0.097,1.336 -0.222,1.368 -0.543,1.308 -0.825,1.156 -1.05,0.926 -1.2,0.641 -1.265,0.328 -1.25,0.023 -1.172,-0.257 -1.043,-0.485 -0.891,-0.652 -0.734,-0.754 -0.574,-0.789 -0.426,-0.77 -0.293,-0.699 -0.16,-0.586 -0.035,-0.445 0.093,-0.293 0.223,-0.125 0.348,0.035 0.465,0.199 0.562,0.352 0.629,0.504 0.644,0.652 0.61,0.797 0.515,0.941 0.356,1.063 0.137,1.16 -0.129,1.211 -0.43,1.195 -0.727,1.11 -1.003,0.945 -1.219,0.707 -1.36,0.414 -1.402,0.098 -1.355,-0.223 -1.215,-0.512 -1.02,-0.75"
       style="fill:none;stroke:#000000;stroke-width:0.9216;stroke-linecap:square;stroke-linejoin:miter;stroke-miterlimit:3.25;stroke-dasharray:none;stroke-opacity:1"
       transform="scale(1.3333333)" />
    <path
       id="path18"
       d="m 9.7045101,-10.522633 c 0.3164059,0.234375 0.5859379,0.5859373 0.8437499,1.0312498 l 0.304688,-1.3828128 h 1.710937 l -2.121094,9.996094 c -0.292968,1.3828125 -0.7382809,2.4960938 -1.3242184,3.2929688 -1.0898437,1.4882812 -2.6953125,2.25 -4.8164062,2.25 -1.1953125,0 -2.1210938,-0.2695313 -2.8125,-0.796875 C 0.79826012,3.340648 0.50529137,2.496898 0.65763512,1.3601793 H 2.5443539 c -0.023437,0.5039062 0.082031,0.890625 0.2929687,1.1601562 0.3164063,0.3984375 0.9492188,0.609375 1.828125,0.609375 1.4296875,0 2.4492188,-0.5039062 3.1054688,-1.4882812 0.375,-0.5859375 0.7148437,-1.64062505 1.0078125,-3.1523438 C 8.2982601,-0.96013325 7.7709164,-0.549977 7.2084164,-0.268727 6.6107601,8.0425e-4 5.9076351,0.153148 5.0404476,0.153148 c -1.171875,0 -2.1445312,-0.421875 -2.859375,-1.265625 -0.7148437,-0.8554687 -0.8554687,-2.25 -0.4335937,-4.1953125 0.3984375,-1.828125 1.1367187,-3.28125 2.2617187,-4.3125 1.1132813,-1.0312495 2.3085938,-1.5468745 3.5742188,-1.5468745 0.8554687,0 1.5703125,0.210937 2.1210937,0.644531 z m -2.1210937,0.9843748 c -1.3007813,0 -2.3085938,0.609375 -3.046875,1.828125 -0.3984375,0.65625 -0.7148438,1.5 -0.9257813,2.5429687 -0.2695312,1.2421875 -0.2109375,2.1914063 0.1523438,2.8359375 0.3515625,0.65625 0.9609375,0.9726563 1.828125,0.9726563 1.3242187,0 2.3671875,-0.5976563 3.1640625,-1.7929688 0.4453125,-0.6914062 0.7617187,-1.4648437 0.9492187,-2.3671875 0.2929688,-1.3710937 0.234375,-2.3789062 -0.1875,-3.0234375 -0.421875,-0.65625 -1.078125,-0.9960937 -1.9335937,-0.9960937 z m 0,0"
       style="fill:#000000;fill-opacity:1;fill-rule:nonzero;stroke:none"
       aria-label="g"
       transform="matrix(1.3333333,0,0,1.3333333,103.33409,38.983303)" />
    <path
       id="path19"
       d="m 53.957,108.918 c 0,0.977 -0.391,1.914 -1.082,2.605 -0.691,0.692 -1.629,1.079 -2.605,1.079 -0.977,0 -1.915,-0.387 -2.606,-1.079 -0.691,-0.691 -1.082,-1.628 -1.082,-2.605 0,-0.98 0.391,-1.918 1.082,-2.609 0.691,-0.692 1.629,-1.079 2.606,-1.079 0.976,0 1.914,0.387 2.605,1.079 0.691,0.691 1.082,1.629 1.082,2.609 z"
       style="fill:#000000;fill-opacity:1;fill-rule:evenodd;stroke:none"
       transform="scale(1.3333333)" />
    <path
       id="path20"
       d="m 120.98,108.918 c 0,0.977 -0.386,1.914 -1.078,2.605 -0.691,0.692 -1.629,1.079 -2.609,1.079 -0.977,0 -1.914,-0.387 -2.605,-1.079 -0.692,-0.691 -1.079,-1.628 -1.079,-2.605 0,-0.98 0.387,-1.918 1.079,-2.609 0.691,-0.692 1.628,-1.079 2.605,-1.079 0.98,0 1.918,0.387 2.609,1.079 0.692,0.691 1.078,1.629 1.078,2.609 z"
       style="fill:#000000;fill-opacity:1;fill-rule:evenodd;stroke:none"
       transform="scale(1.3333333)" />
    <path
       id="path21"
       d="m 87.469,75.402 c 0,0.981 -0.391,1.918 -1.082,2.61 -0.692,0.691 -1.629,1.078 -2.606,1.078 -0.976,0 -1.914,-0.387 -2.605,-1.078 -0.692,-0.692 -1.082,-1.629 -1.082,-2.61 0,-0.976 0.39,-1.914 1.082,-2.605 0.691,-0.692 1.629,-1.078 2.605,-1.078 0.977,0 1.914,0.386 2.606,1.078 0.691,0.691 1.082,1.629 1.082,2.605 z"
       style="fill:#000000;fill-opacity:1;fill-rule:evenodd;stroke:none"
       transform="scale(1.3333333)" />
    <path
       id="path22"
       d="m 184.32,100.539 h 50.27"
       style="fill:none;stroke:#000000;stroke-width:0.9216;stroke-linecap:butt;stroke-linejoin:miter;stroke-miterlimit:3.25;stroke-dasharray:0.9216, 5.5296;stroke-dashoffset:0;stroke-opacity:1"
       transform="scale(1.3333333)" />
    <path
       id="path23"
       d="m 214.48,100.539 -10.054,3.352 v -6.703 z"
       style="fill:#000000;fill-opacity:1;fill-rule:evenodd;stroke:none"
       transform="scale(1.3333333)" />
    <path
       id="path24"
       d="m 5.518423,-10.958216 -1.546875,7.2773439 c -0.1289063,0.5507813 -0.1289063,1.0078125 -0.023437,1.3710938 0.1875,0.6445312 0.7148437,0.984375 1.6171875,0.984375 1.2773437,0 2.2851562,-0.5625 3,-1.7226563 0.375,-0.609375 0.6679687,-1.4648437 0.9023437,-2.5429687 l 1.1601568,-5.3671877 h 1.839844 L 10.147329,-0.00118456 H 8.4012355 L 8.752798,-1.6183721 c -0.328125,0.421875 -0.6914063,0.77343754 -1.1132813,1.06640629 -0.8320312,0.57421875 -1.734375,0.8671875 -2.7421875,0.8671875 -1.5820312,0 -2.53125,-0.52734375 -2.859375,-1.58203129 -0.1875,-0.5625 -0.1875,-1.3007812 0,-2.2382812 l 1.59375,-7.4531252 z m 0,0"
       style="fill:#000000;fill-opacity:1;fill-rule:nonzero;stroke:none"
       aria-label="u"
       transform="matrix(1.3333333,0,0,1.3333333,265.2671,160.58361)" />
    <path
       id="path25"
       d="m 6.924673,-7.5129034 c 0.234375,0.1640625 0.421875,0.421875 0.609375,0.7265625 l 0.2226562,-0.984375 H 8.9637355 L 7.4520167,-0.63399719 C 7.2410792,0.36209656 6.924673,1.1589716 6.5145167,1.7214716 5.7293605,2.7878778 4.5926417,3.3269403 3.0692042,3.3269403 c -0.8554687,0 -1.5117187,-0.1875 -2.0039062,-0.5625 -0.4921875,-0.375 -0.703125,-0.984375 -0.59765625,-1.79296874 H 1.815298 C 1.803579,1.3347528 1.873892,1.6042841 2.0262355,1.8035028 c 0.2226562,0.28125 0.6679687,0.4335938 1.3007812,0.4335938 1.0195313,0 1.7578125,-0.3632813 2.2265625,-1.0664063 0.2695313,-0.42187499 0.5039063,-1.17187499 0.7148438,-2.25 -0.3398438,0.38671876 -0.7148438,0.69140626 -1.125,0.87890626 -0.421875,0.19921875 -0.9257813,0.3046875 -1.546875,0.3046875 -0.8320313,0 -1.5234375,-0.3046875 -2.0390625,-0.90234375 C 1.0535792,-1.4074347 0.9481105,-2.4035284 1.2410792,-3.7980597 c 0.2929688,-1.3007812 0.8085938,-2.34375 1.6171875,-3.0703125 0.796875,-0.7382812 1.6523438,-1.1132812 2.5546875,-1.1132812 0.6210938,0 1.125,0.1523437 1.5117188,0.46875 z m -1.5117188,0.703125 c -0.9257812,0 -1.6523437,0.4335937 -2.1796875,1.3007812 -0.28125,0.46875 -0.5039062,1.0664063 -0.65625,1.8164063 -0.1875,0.890625 -0.1523437,1.5585937 0.1054688,2.0273437 0.2578125,0.46875 0.6914062,0.69140626 1.3007812,0.69140626 0.9492188,0 1.6992188,-0.42187496 2.2734375,-1.27734376 0.3164063,-0.4921875 0.5390625,-1.0546875 0.6679688,-1.6992187 0.2109375,-0.9726563 0.1640625,-1.6875 -0.1289063,-2.15625 -0.3046875,-0.46875 -0.7617187,-0.703125 -1.3828125,-0.703125 z m 0,0"
       style="fill:#000000;fill-opacity:1;fill-rule:nonzero;stroke:none"
       aria-label="g"
       transform="matrix(1.3333333,0,0,1.3333333,280.8296,165.81017)" />
    <path
       id="path26"
       d="m 351.883,100.539 h -50.27"
       style="fill:none;stroke:#000000;stroke-width:0.9216;stroke-linecap:butt;stroke-linejoin:miter;stroke-miterlimit:3.25;stroke-dasharray:0.9216, 5.5296;stroke-dashoffset:0;stroke-opacity:1"
       transform="scale(1.3333333)" />
    <path
       id="path27"
       d="m 331.777,100.539 -10.054,-3.351 v 6.703 z"
       style="fill:#000000;fill-opacity:1;fill-rule:evenodd;stroke:none"
       transform="scale(1.3333333)" />
    <path
       id="path28"
       d="m 5.5197764,-10.956038 -1.546875,7.2773436 c -0.1289062,0.5507812 -0.1289062,1.0078125 -0.023437,1.3710937 0.1875,0.6445313 0.7148438,0.984375 1.6171875,0.984375 1.2773438,0 2.2851563,-0.5625 3,-1.7226562 0.375,-0.609375 0.6679688,-1.4648438 0.9023438,-2.5429688 l 1.1601563,-5.3671873 h 1.839844 L 10.148683,9.930625e-4 H 8.4025889 L 8.7541514,-1.6161944 c -0.328125,0.421875 -0.6914062,0.77343746 -1.1132812,1.06640621 -0.8320313,0.57421875 -1.734375,0.8671875 -2.7421875,0.8671875 -1.5820313,0 -2.53125,-0.52734375 -2.859375,-1.58203121 -0.1875,-0.5625 -0.1875,-1.3007813 0,-2.2382813 l 1.59375,-7.4531248 z m 0,0"
       style="fill:#000000;fill-opacity:1;fill-rule:nonzero;stroke:none"
       aria-label="u"
       transform="matrix(1.3333333,0,0,1.3333333,421.65983,112.51039)" />
    <path
       id="path29"
       d="m 6.9260264,-7.5107258 c 0.234375,0.1640625 0.421875,0.421875 0.609375,0.7265625 l 0.2226563,-0.984375 H 8.9650889 L 7.4533702,-0.63181956 C 7.2424327,0.36427419 6.9260264,1.1611492 6.5158702,1.7236492 5.7307139,2.7900554 4.5939952,3.3291179 3.0705577,3.3291179 c -0.8554688,0 -1.5117188,-0.1875 -2.0039063,-0.5625 -0.49218746,-0.375 -0.70312496,-0.984375 -0.59765621,-1.79296871 H 1.8166514 c -0.011719,0.36328121 0.058594,0.63281251 0.2109375,0.83203121 0.2226563,0.28125 0.6679688,0.4335938 1.3007813,0.4335938 1.0195312,0 1.7578125,-0.3632813 2.2265625,-1.0664063 0.2695312,-0.42187496 0.5039062,-1.1718749625 0.7148437,-2.25 -0.3398437,0.38671879 -0.7148437,0.69140629 -1.125,0.87890629 -0.421875,0.1992187475 -0.9257812,0.3046875 -1.546875,0.3046875 -0.8320312,0 -1.5234375,-0.3046875 -2.0390625,-0.90234375 C 1.0549327,-1.4052571 0.94946394,-2.4013508 1.2424327,-3.7958821 c 0.2929687,-1.3007812 0.8085937,-2.34375 1.6171875,-3.0703125 0.796875,-0.7382812 1.6523437,-1.1132812 2.5546875,-1.1132812 0.6210937,0 1.125,0.1523437 1.5117187,0.46875 z m -1.5117187,0.703125 c -0.9257813,0 -1.6523438,0.4335937 -2.1796875,1.3007812 -0.28125,0.46875 -0.5039063,1.0664063 -0.65625,1.8164063 -0.1875,0.890625 -0.1523438,1.5585937 0.1054687,2.0273437 0.2578125,0.46875 0.6914063,0.69140629 1.3007813,0.69140629 0.9492187,0 1.6992187,-0.42187499 2.2734375,-1.27734379 0.3164062,-0.4921875 0.5390625,-1.0546875 0.6679687,-1.6992187 0.2109375,-0.9726563 0.1640625,-1.6875 -0.1289062,-2.15625 -0.3046875,-0.46875 -0.7617188,-0.703125 -1.3828125,-0.703125 z m 0,0"
       style="fill:#000000;fill-opacity:1;fill-rule:nonzero;stroke:none"
       aria-label="g"
       transform="matrix(1.3333333,0,0,1.3333333,437.22233,117.73696)" />
    <path
       id="path30"
       d="m 234.59,100.539 c -0.317,8.981 3.113,17.691 9.465,24.043 6.355,6.356 15.066,9.785 24.047,9.469"
       style="fill:none;stroke:#000000;stroke-width:0.9216;stroke-linecap:butt;stroke-linejoin:miter;stroke-miterlimit:3.25;stroke-dasharray:0.9216, 5.5296;stroke-dashoffset:0;stroke-opacity:1"
       transform="scale(1.3333333)" />
    <path
       id="path31"
       d="m 247.609,128.137 -9.476,-4.739 4.738,-4.738 z"
       style="fill:#000000;fill-opacity:1;fill-rule:evenodd;stroke:none"
       transform="scale(1.3333333)" />
    <path
       id="path32"
       d="m 5.5196424,-10.955892 -1.546875,7.2773436 c -0.1289062,0.5507812 -0.1289062,1.0078125 -0.023437,1.3710937 0.1875,0.6445313 0.7148438,0.984375 1.6171875,0.984375 1.2773438,0 2.2851563,-0.5625 3,-1.7226562 0.375,-0.609375 0.6679688,-1.4648438 0.9023438,-2.5429688 l 1.1601563,-5.3671873 h 1.839844 L 10.148549,0.00113906 H 8.4024549 L 8.7540174,-1.6160484 c -0.328125,0.421875 -0.6914062,0.77343746 -1.1132812,1.06640621 -0.8320313,0.57421875 -1.734375,0.8671875 -2.7421875,0.8671875 -1.5820313,0 -2.53125,-0.52734375 -2.859375,-1.58203121 -0.1875,-0.5625 -0.1875,-1.3007813 0,-2.2382813 l 1.59375,-7.4531248 z m 0,0"
       style="fill:#000000;fill-opacity:1;fill-rule:nonzero;stroke:none"
       aria-label="u"
       transform="matrix(1.3333333,0,0,1.3333333,291.91001,187.5727)" />
    <path
       id="path33"
       d="m 6.9258924,-7.5105798 c 0.234375,0.1640625 0.421875,0.421875 0.609375,0.7265625 l 0.2226563,-0.984375 H 8.9649549 L 7.4532362,-0.63167356 C 7.2422987,0.36442019 6.9258924,1.1612952 6.5157362,1.7237952 5.7305799,2.7902014 4.5938612,3.3292639 3.0704237,3.3292639 c -0.8554688,0 -1.5117188,-0.1875 -2.0039063,-0.5625 -0.49218746,-0.375 -0.70312496,-0.984375 -0.59765621,-1.79296871 H 1.8165174 c -0.011719,0.36328121 0.058594,0.63281251 0.2109375,0.83203121 0.2226563,0.28125 0.6679688,0.4335938 1.3007813,0.4335938 1.0195312,0 1.7578125,-0.3632813 2.2265625,-1.0664063 0.2695312,-0.42187496 0.5039062,-1.17187496 0.7148437,-2.25 -0.3398437,0.38671879 -0.7148437,0.69140629 -1.125,0.87890629 -0.421875,0.19921875 -0.9257812,0.3046875 -1.546875,0.3046875 -0.8320312,0 -1.5234375,-0.3046875 -2.0390625,-0.90234375 C 1.0547987,-1.4051111 0.94932994,-2.4012048 1.2422987,-3.7957361 c 0.2929687,-1.3007812 0.8085937,-2.34375 1.6171875,-3.0703125 0.796875,-0.7382812 1.6523437,-1.1132812 2.5546875,-1.1132812 0.6210937,0 1.125,0.1523437 1.5117187,0.46875 z m -1.5117187,0.703125 c -0.9257813,0 -1.6523438,0.4335937 -2.1796875,1.3007812 -0.28125,0.46875 -0.5039063,1.0664063 -0.65625,1.8164063 -0.1875,0.890625 -0.1523438,1.5585937 0.1054687,2.0273437 0.2578125,0.46875 0.6914063,0.69140629 1.3007813,0.69140629 0.9492187,0 1.6992187,-0.42187499 2.2734375,-1.27734379 0.3164062,-0.4921875 0.5390625,-1.0546875 0.6679687,-1.6992187 0.2109375,-0.9726563 0.1640625,-1.6875 -0.1289062,-2.15625 -0.3046875,-0.46875 -0.7617188,-0.703125 -1.3828125,-0.703125 z m 0,0"
       style="fill:#000000;fill-opacity:1;fill-rule:nonzero;stroke:none"
       aria-label="g"
       transform="matrix(1.3333333,0,0,1.3333333,307.47251,192.79926)" />
    <path
       id="path34"
       d="m 301.613,100.539 0.793,0.996 0.578,1.172 0.325,1.289 0.046,1.348 -0.234,1.332 -0.508,1.246 -0.75,1.094 -0.941,0.894 -1.082,0.66 -1.156,0.414 -1.18,0.176 -1.141,-0.035 -1.062,-0.211 -0.934,-0.348 -0.781,-0.437 -0.598,-0.488 -0.398,-0.493 -0.18,-0.472 0.035,-0.422 0.25,-0.352 0.457,-0.257 0.641,-0.153 0.793,-0.023 0.906,0.125 0.973,0.293 0.984,0.472 0.938,0.672 0.832,0.86 0.672,1.043 0.453,1.187 0.199,1.285 -0.074,1.328 -0.36,1.301 -0.625,1.199 -0.859,1.036 -1.043,0.82 -1.168,0.57 -1.23,0.305 -1.231,0.051 -1.18,-0.188 -1.082,-0.379 -0.949,-0.527 -0.793,-0.617 -0.613,-0.66 -0.43,-0.649 -0.234,-0.598 -0.039,-0.507 0.156,-0.399 0.34,-0.262 0.504,-0.113 0.648,0.043 0.758,0.215 0.82,0.391 0.832,0.57 0.793,0.75 0.688,0.918 0.535,1.07 0.324,1.192 0.078,1.265 -0.195,1.289 -0.469,1.242 -0.734,1.129 -0.957,0.957 -1.129,0.731 -1.242,0.473 -1.285,0.195 -1.27,-0.078 -1.191,-0.324 -1.071,-0.536 -0.918,-0.691 -0.75,-0.789 -0.57,-0.836 -0.387,-0.82 -0.214,-0.754 -0.047,-0.649 0.113,-0.508 0.262,-0.335 0.398,-0.157 0.512,0.039 0.594,0.235 0.652,0.426 0.656,0.617 0.621,0.793 0.524,0.949 0.383,1.078 0.183,1.18 -0.047,1.234 -0.308,1.231 -0.571,1.168 -0.82,1.042 -1.035,0.856 -1.199,0.629 -1.301,0.359 -1.324,0.074 -1.289,-0.199 -1.188,-0.457 -1.039,-0.668 -0.863,-0.832 -0.668,-0.937 -0.477,-0.985 -0.293,-0.972 -0.125,-0.907 0.024,-0.793 0.152,-0.64 0.262,-0.457 0.347,-0.25 0.422,-0.039 0.473,0.183 0.496,0.399 0.484,0.597 0.438,0.778 0.348,0.937 0.214,1.059 0.036,1.144 -0.18,1.18 -0.414,1.156 -0.66,1.082 -0.895,0.942 -1.094,0.746 -1.246,0.508 -1.332,0.238 -1.347,-0.047 -1.289,-0.324 -1.172,-0.578 -0.996,-0.793"
       style="fill:none;stroke:#000000;stroke-width:0.9216;stroke-linecap:square;stroke-linejoin:miter;stroke-miterlimit:3.25;stroke-dasharray:none;stroke-opacity:1"
       transform="scale(1.3333333)" />
    <path
       id="path35"
       d="m 9.7045798,-10.523775 c 0.3164062,0.234375 0.5859372,0.5859371 0.8437502,1.0312496 l 0.304687,-1.3828126 h 1.710938 l -2.121094,9.99609388 C 10.149892,0.50356838 9.7045798,1.6168496 9.1186423,2.4137246 c -1.0898437,1.4882813 -2.6953125,2.25 -4.8164062,2.25 -1.1953125,0 -2.1210938,-0.2695312 -2.8125,-0.796875 C 0.79832981,3.3395059 0.50536106,2.4957559 0.65770481,1.3590371 H 2.5444236 c -0.023437,0.5039063 0.082031,0.890625 0.2929687,1.1601563 0.3164063,0.3984375 0.9492188,0.609375 1.828125,0.609375 1.4296875,0 2.4492188,-0.5039063 3.1054688,-1.4882813 0.375,-0.5859375 0.7148437,-1.640624975 1.0078125,-3.1523437 -0.4804688,0.55078123 -1.0078125,0.96093748 -1.5703125,1.24218748 -0.5976563,0.269531245 -1.3007813,0.421875 -2.1679688,0.421875 -1.171875,0 -2.1445312,-0.421875 -2.859375,-1.26562498 -0.7148437,-0.8554688 -0.8554687,-2.25 -0.4335937,-4.1953125 0.3984375,-1.828125 1.1367187,-3.28125 2.2617187,-4.3125 1.1132813,-1.0312504 2.3085938,-1.5468754 3.5742188,-1.5468754 0.8554687,0 1.5703125,0.210938 2.1210937,0.644532 z m -2.1210937,0.9843746 c -1.3007813,0 -2.3085938,0.609375 -3.046875,1.828125 -0.3984375,0.65625 -0.7148438,1.5 -0.9257813,2.5429688 -0.2695312,1.2421875 -0.2109375,2.1914062 0.1523438,2.8359375 0.3515625,0.65625 0.9609375,0.9726562 1.828125,0.9726562 1.3242187,0 2.3671875,-0.5976562 3.1640625,-1.7929687 0.4453125,-0.6914063 0.7617187,-1.4648438 0.9492187,-2.3671875 0.2929688,-1.3710938 0.234375,-2.3789063 -0.1875,-3.0234375 -0.421875,-0.65625 -1.078125,-0.9960938 -1.9335937,-0.9960938 z m 0,0"
       style="fill:#000000;fill-opacity:1;fill-rule:nonzero;stroke:none"
       aria-label="g"
       transform="matrix(1.3333333,0,0,1.3333333,394.5254,197.71139)" />
    <path
       id="path36"
       d="m 268.102,67.027 v 67.024"
       style="fill:none;stroke:#000000;stroke-width:0.9216;stroke-linecap:butt;stroke-linejoin:miter;stroke-miterlimit:3.25;stroke-dasharray:0.9216, 5.5296;stroke-dashoffset:0;stroke-opacity:1"
       transform="scale(1.3333333)" />
    <path
       id="path37"
       d="m 268.102,95.512 -3.352,10.054 h 6.703 z"
       style="fill:#000000;fill-opacity:1;fill-rule:evenodd;stroke:none"
       transform="scale(1.3333333)" />
    <path
       id="path38"
       d="m 5.5191631,-10.957127 -1.546875,7.2773437 c -0.1289063,0.5507813 -0.1289063,1.0078125 -0.023437,1.3710938 0.1875,0.6445312 0.7148437,0.984375 1.6171875,0.984375 1.2773437,0 2.2851562,-0.5625 3,-1.7226563 0.375,-0.609375 0.6679687,-1.4648437 0.9023437,-2.5429687 l 1.1601557,-5.3671875 h 1.839844 L 10.148069,-9.575e-5 H 8.4019756 L 8.7535381,-1.6172833 c -0.328125,0.421875 -0.6914063,0.77343755 -1.1132813,1.0664063 -0.8320312,0.57421875 -1.734375,0.8671875 -2.7421875,0.8671875 -1.5820312,0 -2.53125,-0.52734375 -2.859375,-1.5820313 -0.1875,-0.5625 -0.1875,-1.3007812 0,-2.2382812 l 1.59375,-7.453125 z m 0,0"
       style="fill:#000000;fill-opacity:1;fill-rule:nonzero;stroke:none"
       aria-label="u"
       transform="matrix(1.3333333,0,0,1.3333333,368.02783,136.547)" />
    <path
       id="path39"
       d="m 6.9254131,-7.5118146 c 0.234375,0.1640625 0.421875,0.421875 0.609375,0.7265625 l 0.2226562,-0.984375 H 8.9644756 L 7.4527568,-0.63290837 C 7.2418193,0.36318538 6.9254131,1.1600604 6.5152568,1.7225604 5.7301006,2.7889666 4.5933818,3.3280291 3.0699443,3.3280291 c -0.8554687,0 -1.5117187,-0.1875 -2.0039062,-0.5625 -0.49218754,-0.375 -0.70312504,-0.984375 -0.59765629,-1.79296872 H 1.8160381 c -0.011719,0.36328122 0.058594,0.63281252 0.2109375,0.83203122 0.2226562,0.28125 0.6679687,0.4335938 1.3007812,0.4335938 1.0195313,0 1.7578125,-0.3632813 2.2265625,-1.0664063 0.2695313,-0.42187497 0.5039063,-1.171874975 0.7148438,-2.25 -0.3398438,0.38671878 -0.7148438,0.69140628 -1.125,0.87890628 -0.421875,0.199218745 -0.9257813,0.3046875 -1.546875,0.3046875 -0.8320313,0 -1.5234375,-0.3046875 -2.0390625,-0.90234375 C 1.0543193,-1.4063459 0.94885056,-2.4024396 1.2418193,-3.7969709 c 0.2929688,-1.3007812 0.8085938,-2.34375 1.6171875,-3.0703125 0.796875,-0.7382812 1.6523438,-1.1132812 2.5546875,-1.1132812 0.6210938,0 1.125,0.1523437 1.5117188,0.46875 z m -1.5117188,0.703125 c -0.9257812,0 -1.6523437,0.4335937 -2.1796875,1.3007812 -0.28125,0.46875 -0.5039062,1.0664063 -0.65625,1.8164063 -0.1875,0.890625 -0.1523437,1.5585937 0.1054688,2.0273437 0.2578125,0.46875 0.6914062,0.69140628 1.3007812,0.69140628 0.9492188,0 1.6992188,-0.42187498 2.2734375,-1.27734378 0.3164063,-0.4921875 0.5390625,-1.0546875 0.6679688,-1.6992187 0.2109375,-0.9726563 0.1640625,-1.6875 -0.1289063,-2.15625 -0.3046875,-0.46875 -0.7617187,-0.703125 -1.3828125,-0.703125 z m 0,0"
       style="fill:#000000;fill-opacity:1;fill-rule:nonzero;stroke:none"
       aria-label="g"
       transform="matrix(1.3333333,0,0,1.3333333,383.59033,141.77357)" />
    <path
       id="path40"
       d="m 234.59,100.539 -0.809,-0.977 -0.601,-1.148 -0.352,-1.277 -0.082,-1.336 0.203,-1.332 0.473,-1.254 0.711,-1.113 0.914,-0.914 1.055,-0.692 1.136,-0.449 1.168,-0.211 h 1.141 l 1.062,0.18 0.95,0.32 0.8,0.41 0.625,0.469 0.426,0.48 0.223,0.465 v 0.426 l -0.211,0.355 -0.414,0.278 -0.606,0.176 -0.757,0.054 -0.883,-0.086 -0.957,-0.242 -0.985,-0.422 -0.957,-0.613 -0.863,-0.801 -0.719,-0.988 -0.515,-1.145 -0.278,-1.257 -0.008,-1.317 0.274,-1.308 0.543,-1.235 0.785,-1.086 0.984,-0.89 1.125,-0.653 1.207,-0.39 1.231,-0.133 1.191,0.109 1.114,0.313 0.988,0.476 0.844,0.582 0.679,0.641 0.496,0.648 0.305,0.614 0.113,0.535 -0.074,0.437 -0.265,0.309 -0.434,0.172 -0.59,0.019 -0.711,-0.14 -0.789,-0.313 -0.832,-0.488 -0.812,-0.664 -0.739,-0.836 -0.609,-0.996 -0.426,-1.133 -0.199,-1.227 0.062,-1.281 0.336,-1.265 0.602,-1.188 0.848,-1.043 1.046,-0.848 1.188,-0.605 1.266,-0.332 1.277,-0.063 1.23,0.196 1.129,0.426 0.996,0.609 0.84,0.742 0.66,0.813 0.489,0.828 0.312,0.793 0.141,0.711 -0.016,0.586 -0.172,0.437 -0.312,0.262 -0.434,0.078 -0.539,-0.113 -0.613,-0.309 -0.649,-0.496 -0.64,-0.676 -0.582,-0.844 -0.477,-0.992 -0.312,-1.109 -0.11,-1.192 0.133,-1.23 0.395,-1.207 0.648,-1.125 0.891,-0.984 1.09,-0.79 1.23,-0.542 1.309,-0.274 1.316,0.008 1.262,0.277 1.14,0.52 0.989,0.719 0.804,0.863 0.61,0.953 0.422,0.984 0.246,0.961 0.082,0.883 -0.055,0.758 -0.176,0.601 -0.273,0.418 -0.36,0.211 -0.421,-0.004 -0.465,-0.218 -0.485,-0.426 -0.465,-0.625 -0.414,-0.801 -0.32,-0.949 -0.18,-1.063 v -1.14 l 0.215,-1.168 0.446,-1.141 0.691,-1.055 0.918,-0.91 1.109,-0.711 1.254,-0.472 1.332,-0.203 1.34,0.082 1.274,0.351 1.152,0.602 0.973,0.808"
       style="fill:none;stroke:#000000;stroke-width:0.9216;stroke-linecap:square;stroke-linejoin:miter;stroke-miterlimit:3.25;stroke-dasharray:none;stroke-opacity:1"
       transform="scale(1.3333333)" />
    <path
       id="path41"
       d="m 9.7021943,-10.524208 c 0.3164067,0.234375 0.5859377,0.5859378 0.8437497,1.0312503 l 0.304688,-1.3828123 h 1.710937 l -2.121093,9.9960935 C 10.147507,0.503136 9.7021943,1.6164173 9.1162568,2.4132923 c -1.0898437,1.4882812 -2.6953125,2.25 -4.8164062,2.25 -1.1953125,0 -2.1210938,-0.2695313 -2.8125,-0.796875 C 0.79594431,3.3390735 0.50297556,2.4953235 0.65531931,1.3586048 H 2.5420381 c -0.023437,0.5039062 0.082031,0.890625 0.2929687,1.1601562 0.3164063,0.3984375 0.9492188,0.609375 1.828125,0.609375 1.4296875,0 2.4492188,-0.5039062 3.1054688,-1.4882812 0.375,-0.5859375 0.7148437,-1.64062505 1.0078125,-3.1523438 -0.4804688,0.55078125 -1.0078125,0.9609375 -1.5703125,1.2421875 -0.5976563,0.26953125 -1.3007813,0.421875 -2.1679688,0.421875 -1.171875,0 -2.1445312,-0.421875 -2.859375,-1.265625 -0.7148437,-0.8554687 -0.8554687,-2.25 -0.4335937,-4.1953125 0.3984375,-1.828125 1.1367187,-3.28125 2.2617187,-4.3125 1.1132813,-1.03125 2.3085938,-1.546875 3.5742188,-1.546875 0.8554687,0 1.5703125,0.210938 2.1210937,0.644531 z m -2.1210937,0.9843753 c -1.3007813,0 -2.3085938,0.609375 -3.046875,1.828125 -0.3984375,0.65625 -0.7148438,1.5 -0.9257813,2.5429687 -0.2695312,1.2421875 -0.2109375,2.1914063 0.1523438,2.8359375 0.3515625,0.65625 0.9609375,0.9726563 1.828125,0.9726563 1.3242187,0 2.3671875,-0.5976563 3.1640625,-1.7929688 0.4453125,-0.6914062 0.7617187,-1.4648437 0.9492187,-2.3671875 0.2929688,-1.3710937 0.234375,-2.3789062 -0.1875,-3.0234375 -0.421875,-0.65625 -1.078125,-0.9960937 -1.9335937,-0.9960937 z m 0,0"
       style="fill:#000000;fill-opacity:1;fill-rule:nonzero;stroke:none"
       aria-label="g"
       transform="matrix(1.3333333,0,0,1.3333333,303.37233,90.391652)" />
    <path
       id="path42"
       d="M 301.613,100.539 C 301.578,82.047 286.594,67.062 268.102,67.027"
       style="fill:none;stroke:#000000;stroke-width:0.9216;stroke-linecap:butt;stroke-linejoin:miter;stroke-miterlimit:3.25;stroke-dasharray:0.9216, 5.5296;stroke-dashoffset:0;stroke-opacity:1"
       transform="scale(1.3333333)" />
    <path
       id="path43"
       d="m 295.332,80.414 -4.738,-9.476 -4.739,4.738 z"
       style="fill:#000000;fill-opacity:1;fill-rule:evenodd;stroke:none"
       transform="scale(1.3333333)" />
    <path
       id="path44"
       d="m 5.5209861,-10.957861 -1.546875,7.2773436 c -0.1289063,0.5507812 -0.1289063,1.0078125 -0.023437,1.3710937 0.1875,0.6445313 0.7148437,0.984375 1.6171875,0.984375 1.2773437,0 2.2851562,-0.5625 3,-1.7226562 0.375,-0.609375 0.6679687,-1.4648438 0.9023437,-2.5429688 l 1.1601557,-5.3671873 h 1.839844 L 10.149892,-8.299375e-4 H 8.4037986 L 8.7553611,-1.6180174 c -0.328125,0.421875 -0.6914063,0.77343746 -1.1132813,1.06640621 -0.8320312,0.57421875 -1.734375,0.8671875 -2.7421875,0.8671875 -1.5820312,0 -2.53125,-0.52734375 -2.859375,-1.58203121 -0.1875,-0.5625 -0.1875,-1.3007813 0,-2.2382813 l 1.59375,-7.4531248 z m 0,0"
       style="fill:#000000;fill-opacity:1;fill-rule:nonzero;stroke:none"
       aria-label="u"
       transform="matrix(1.3333333,0,0,1.3333333,394.5254,86.012825)" />
    <path
       id="path45"
       d="m 6.9272361,-7.5125488 c 0.234375,0.1640625 0.421875,0.421875 0.609375,0.7265625 l 0.2226562,-0.984375 H 8.9662986 L 7.4545798,-0.63364256 C 7.2436423,0.36245119 6.9272361,1.1593262 6.5170798,1.7218262 5.7319236,2.7882324 4.5952048,3.3272949 3.0717673,3.3272949 c -0.8554687,0 -1.5117187,-0.1875 -2.0039062,-0.5625 -0.49218754,-0.375 -0.70312504,-0.984375 -0.59765629,-1.79296871 H 1.8178611 c -0.011719,0.36328121 0.058594,0.63281251 0.2109375,0.83203121 0.2226562,0.28125 0.6679687,0.4335938 1.3007812,0.4335938 1.0195313,0 1.7578125,-0.3632813 2.2265625,-1.0664063 0.2695313,-0.42187496 0.5039063,-1.1718749625 0.7148438,-2.25 -0.3398438,0.38671879 -0.7148438,0.69140629 -1.125,0.87890629 -0.421875,0.1992187475 -0.9257813,0.3046875 -1.546875,0.3046875 -0.8320313,0 -1.5234375,-0.3046875 -2.0390625,-0.90234375 C 1.0561423,-1.4070801 0.95067356,-2.4031738 1.2436423,-3.7977051 c 0.2929688,-1.3007812 0.8085938,-2.34375 1.6171875,-3.0703125 0.796875,-0.7382812 1.6523438,-1.1132812 2.5546875,-1.1132812 0.6210938,0 1.125,0.1523437 1.5117188,0.46875 z m -1.5117188,0.703125 c -0.9257812,0 -1.6523437,0.4335937 -2.1796875,1.3007812 -0.28125,0.46875 -0.5039062,1.0664063 -0.65625,1.8164063 -0.1875,0.890625 -0.1523437,1.5585937 0.1054688,2.0273437 0.2578125,0.46875 0.6914062,0.69140629 1.3007812,0.69140629 0.9492188,0 1.6992188,-0.42187499 2.2734375,-1.27734379 0.3164063,-0.4921875 0.5390625,-1.0546875 0.6679688,-1.6992187 0.2109375,-0.9726563 0.1640625,-1.6875 -0.1289063,-2.15625 -0.3046875,-0.46875 -0.7617187,-0.703125 -1.3828125,-0.703125 z m 0,0"
       style="fill:#000000;fill-opacity:1;fill-rule:nonzero;stroke:none"
       aria-label="g"
       transform="matrix(1.3333333,0,0,1.3333333,410.0879,91.239388)" />
    <path
       id="path46"
       d="m 271.789,67.027 c 0,0.977 -0.391,1.914 -1.082,2.606 -0.691,0.691 -1.629,1.078 -2.605,1.078 -0.977,0 -1.914,-0.387 -2.606,-1.078 -0.691,-0.692 -1.082,-1.629 -1.082,-2.606 0,-0.98 0.391,-1.918 1.082,-2.609 0.692,-0.691 1.629,-1.078 2.606,-1.078 0.976,0 1.914,0.387 2.605,1.078 0.691,0.691 1.082,1.629 1.082,2.609 z"
       style="fill:#000000;fill-opacity:1;fill-rule:evenodd;stroke:none"
       transform="scale(1.3333333)" />
    <path
       id="path47"
       d="m 271.789,134.051 c 0,0.976 -0.391,1.914 -1.082,2.605 -0.691,0.692 -1.629,1.082 -2.605,1.082 -0.977,0 -1.914,-0.39 -2.606,-1.082 -0.691,-0.691 -1.082,-1.629 -1.082,-2.605 0,-0.977 0.391,-1.914 1.082,-2.606 0.692,-0.691 1.629,-1.082 2.606,-1.082 0.976,0 1.914,0.391 2.605,1.082 0.691,0.692 1.082,1.629 1.082,2.606 z"
       style="fill:#000000;fill-opacity:1;fill-rule:evenodd;stroke:none"
       transform="scale(1.3333333)" />
    <path
       id="path48"
       d="m 238.277,100.539 c 0,0.977 -0.39,1.914 -1.082,2.606 -0.691,0.691 -1.629,1.078 -2.605,1.078 -0.977,0 -1.918,-0.387 -2.61,-1.078 -0.687,-0.692 -1.078,-1.629 -1.078,-2.606 0,-0.98 0.391,-1.918 1.078,-2.609 0.692,-0.692 1.633,-1.078 2.61,-1.078 0.976,0 1.914,0.386 2.605,1.078 0.692,0.691 1.082,1.629 1.082,2.609 z"
       style="fill:#000000;fill-opacity:1;fill-rule:evenodd;stroke:none"
       transform="scale(1.3333333)" />
    <path
       id="path49"
       d="m 305.301,100.539 c 0,0.977 -0.387,1.914 -1.078,2.606 -0.692,0.691 -1.629,1.078 -2.61,1.078 -0.976,0 -1.914,-0.387 -2.605,-1.078 -0.692,-0.692 -1.078,-1.629 -1.078,-2.606 0,-0.98 0.386,-1.918 1.078,-2.609 0.691,-0.692 1.629,-1.078 2.605,-1.078 0.981,0 1.918,0.386 2.61,1.078 0.691,0.691 1.078,1.629 1.078,2.609 z"
       style="fill:#000000;fill-opacity:1;fill-rule:evenodd;stroke:none"
       transform="scale(1.3333333)" />
    <path
       id="path50"
       d="M 368.641,100.539 H 418.91"
       style="fill:none;stroke:#000000;stroke-width:0.9216;stroke-linecap:butt;stroke-linejoin:miter;stroke-miterlimit:3.25;stroke-dasharray:0.9216, 5.5296;stroke-dashoffset:0;stroke-opacity:1"
       transform="scale(1.3333333)" />
    <path
       id="path51"
       d="m 398.801,100.539 -10.055,3.352 v -6.703 z"
       style="fill:#000000;fill-opacity:1;fill-rule:evenodd;stroke:none"
       transform="scale(1.3333333)" />
    <path
       id="path52"
       d="m 5.5197121,-10.958216 -1.546875,7.2773439 c -0.1289063,0.5507813 -0.1289063,1.0078125 -0.023437,1.3710938 0.1875,0.6445312 0.7148437,0.984375 1.6171875,0.984375 1.2773437,0 2.2851562,-0.5625 3,-1.7226563 0.375,-0.609375 0.6679687,-1.4648437 0.9023437,-2.5429687 l 1.1601557,-5.3671877 h 1.839844 L 10.148618,-0.00118456 H 8.4025246 L 8.7540871,-1.6183721 c -0.328125,0.421875 -0.6914063,0.77343754 -1.1132813,1.06640629 -0.8320312,0.57421875 -1.734375,0.8671875 -2.7421875,0.8671875 -1.5820312,0 -2.53125,-0.52734375 -2.859375,-1.58203129 -0.1875,-0.5625 -0.1875,-1.3007812 0,-2.2382812 l 1.59375,-7.4531252 z m 0,0"
       style="fill:#000000;fill-opacity:1;fill-rule:nonzero;stroke:none"
       aria-label="u"
       transform="matrix(1.3333333,0,0,1.3333333,511.0271,160.58361)" />
    <path
       id="path53"
       d="m 6.9259621,-7.5129034 c 0.234375,0.1640625 0.421875,0.421875 0.609375,0.7265625 l 0.2226562,-0.984375 H 8.9650246 L 7.4533058,-0.63399719 C 7.2423683,0.36209656 6.9259621,1.1589716 6.5158058,1.7214716 5.7306496,2.7878778 4.5939308,3.3269403 3.0704933,3.3269403 c -0.8554687,0 -1.5117187,-0.1875 -2.0039062,-0.5625 -0.49218754,-0.375 -0.70312504,-0.984375 -0.59765629,-1.79296874 H 1.8165871 c -0.011719,0.36328124 0.058594,0.63281254 0.2109375,0.83203124 0.2226562,0.28125 0.6679687,0.4335938 1.3007812,0.4335938 1.0195313,0 1.7578125,-0.3632813 2.2265625,-1.0664063 0.2695313,-0.42187499 0.5039063,-1.17187499 0.7148438,-2.25 -0.3398438,0.38671876 -0.7148438,0.69140626 -1.125,0.87890626 -0.421875,0.19921875 -0.9257813,0.3046875 -1.546875,0.3046875 -0.8320313,0 -1.5234375,-0.3046875 -2.0390625,-0.90234375 C 1.0548683,-1.4074347 0.94939956,-2.4035284 1.2423683,-3.7980597 c 0.2929688,-1.3007812 0.8085938,-2.34375 1.6171875,-3.0703125 0.796875,-0.7382812 1.6523438,-1.1132812 2.5546875,-1.1132812 0.6210938,0 1.125,0.1523437 1.5117188,0.46875 z m -1.5117188,0.703125 c -0.9257812,0 -1.6523437,0.4335937 -2.1796875,1.3007812 -0.28125,0.46875 -0.5039062,1.0664063 -0.65625,1.8164063 -0.1875,0.890625 -0.1523437,1.5585937 0.1054688,2.0273437 0.2578125,0.46875 0.6914062,0.69140626 1.3007812,0.69140626 0.9492188,0 1.6992188,-0.42187496 2.2734375,-1.27734376 0.3164063,-0.4921875 0.5390625,-1.0546875 0.6679688,-1.6992187 0.2109375,-0.9726563 0.1640625,-1.6875 -0.1289063,-2.15625 -0.3046875,-0.46875 -0.7617187,-0.703125 -1.3828125,-0.703125 z m 0,0"
       style="fill:#000000;fill-opacity:1;fill-rule:nonzero;stroke:none"
       aria-label="g"
       transform="matrix(1.3333333,0,0,1.3333333,526.5896,165.81017)" />
    <path
       id="path54"
       d="M 536.203,100.539 H 485.934"
       style="fill:none;stroke:#000000;stroke-width:0.9216;stroke-linecap:butt;stroke-linejoin:miter;stroke-miterlimit:3.25;stroke-dasharray:0.9216, 5.5296;stroke-dashoffset:0;stroke-opacity:1"
       transform="scale(1.3333333)" />
    <path
       id="path55"
       d="m 516.098,100.539 -10.055,-3.351 v 6.703 z"
       style="fill:#000000;fill-opacity:1;fill-rule:evenodd;stroke:none"
       transform="scale(1.3333333)" />
    <path
       id="path56"
       d="m 5.5181358,-10.956038 -1.546875,7.2773436 c -0.1289062,0.5507812 -0.1289062,1.0078125 -0.023437,1.3710937 0.1875,0.6445313 0.7148438,0.984375 1.6171875,0.984375 1.2773438,0 2.2851563,-0.5625 3,-1.7226562 0.375,-0.609375 0.6679688,-1.4648438 0.9023438,-2.5429688 l 1.1601569,-5.3671873 h 1.839844 L 10.147042,9.930625e-4 H 8.4009483 L 8.7525108,-1.6161944 c -0.328125,0.421875 -0.6914062,0.77343746 -1.1132812,1.06640621 -0.8320313,0.57421875 -1.734375,0.8671875 -2.7421875,0.8671875 -1.5820313,0 -2.53125,-0.52734375 -2.859375,-1.58203121 -0.1875,-0.5625 -0.1875,-1.3007813 0,-2.2382813 l 1.59375,-7.4531248 z m 0,0"
       style="fill:#000000;fill-opacity:1;fill-rule:nonzero;stroke:none"
       aria-label="u"
       transform="matrix(1.3333333,0,0,1.3333333,667.41983,112.51039)" />
    <path
       id="path57"
       d="m 6.9243858,-7.5107258 c 0.234375,0.1640625 0.421875,0.421875 0.609375,0.7265625 l 0.2226563,-0.984375 H 8.9634483 L 7.4517296,-0.63181956 C 7.2407921,0.36427419 6.9243858,1.1611492 6.5142296,1.7236492 5.7290733,2.7900554 4.5923546,3.3291179 3.0689171,3.3291179 c -0.8554688,0 -1.5117188,-0.1875 -2.0039063,-0.5625 -0.49218749,-0.375 -0.70312499,-0.984375 -0.59765624,-1.79296871 H 1.8150108 c -0.011719,0.36328121 0.058594,0.63281251 0.2109375,0.83203121 0.2226563,0.28125 0.6679688,0.4335938 1.3007813,0.4335938 1.0195312,0 1.7578125,-0.3632813 2.2265625,-1.0664063 0.2695312,-0.42187496 0.5039062,-1.1718749625 0.7148437,-2.25 -0.3398437,0.38671879 -0.7148437,0.69140629 -1.125,0.87890629 -0.421875,0.1992187475 -0.9257812,0.3046875 -1.546875,0.3046875 -0.8320312,0 -1.5234375,-0.3046875 -2.0390625,-0.90234375 C 1.0532921,-1.4052571 0.94782331,-2.4013508 1.2407921,-3.7958821 c 0.2929687,-1.3007812 0.8085937,-2.34375 1.6171875,-3.0703125 0.796875,-0.7382812 1.6523437,-1.1132812 2.5546875,-1.1132812 0.6210937,0 1.125,0.1523437 1.5117187,0.46875 z m -1.5117187,0.703125 c -0.9257813,0 -1.6523438,0.4335937 -2.1796875,1.3007812 -0.28125,0.46875 -0.5039063,1.0664063 -0.65625,1.8164063 -0.1875,0.890625 -0.1523438,1.5585937 0.1054687,2.0273437 0.2578125,0.46875 0.6914063,0.69140629 1.3007813,0.69140629 0.9492187,0 1.6992187,-0.42187499 2.2734375,-1.27734379 0.3164062,-0.4921875 0.5390625,-1.0546875 0.6679687,-1.6992187 0.2109375,-0.9726563 0.1640625,-1.6875 -0.1289062,-2.15625 -0.3046875,-0.46875 -0.7617188,-0.703125 -1.3828125,-0.703125 z m 0,0"
       style="fill:#000000;fill-opacity:1;fill-rule:nonzero;stroke:none"
       aria-label="g"
       transform="matrix(1.3333333,0,0,1.3333333,682.98233,117.73696)" />
    <path
       id="path58"
       d="m 418.91,100.539 c -0.316,8.981 3.113,17.691 9.465,24.043 6.355,6.356 15.066,9.785 24.047,9.469"
       style="fill:none;stroke:#000000;stroke-width:0.9216;stroke-linecap:butt;stroke-linejoin:miter;stroke-miterlimit:3.25;stroke-dasharray:0.9216, 5.5296;stroke-dashoffset:0;stroke-opacity:1"
       transform="scale(1.3333333)" />
    <path
       id="path59"
       d="m 431.93,128.137 -9.477,-4.739 4.738,-4.738 z"
       style="fill:#000000;fill-opacity:1;fill-rule:evenodd;stroke:none"
       transform="scale(1.3333333)" />
    <path
       id="path60"
       d="m 5.5209315,-10.955892 -1.546875,7.2773436 c -0.1289062,0.5507812 -0.1289062,1.0078125 -0.023437,1.3710937 0.1875,0.6445313 0.7148438,0.984375 1.6171875,0.984375 1.2773438,0 2.2851563,-0.5625 3,-1.7226562 0.375,-0.609375 0.6679688,-1.4648438 0.9023438,-2.5429688 L 10.630307,-10.955892 H 12.47015 L 10.149838,0.00113906 H 8.403744 L 8.7553065,-1.6160484 c -0.328125,0.421875 -0.6914062,0.77343746 -1.1132812,1.06640621 -0.8320313,0.57421875 -1.734375,0.8671875 -2.7421875,0.8671875 -1.5820313,0 -2.53125,-0.52734375 -2.859375,-1.58203121 -0.1875,-0.5625 -0.1875,-1.3007813 0,-2.2382813 l 1.59375,-7.4531248 z m 0,0"
       style="fill:#000000;fill-opacity:1;fill-rule:nonzero;stroke:none"
       aria-label="u"
       transform="matrix(1.3333333,0,0,1.3333333,537.67001,187.5727)" />
    <path
       id="path61"
       d="m 6.9271815,-7.5105798 c 0.234375,0.1640625 0.421875,0.421875 0.609375,0.7265625 l 0.2226563,-0.984375 H 8.966244 L 7.4545253,-0.63167356 C 7.2435878,0.36442019 6.9271815,1.1612952 6.5170253,1.7237952 5.731869,2.7902014 4.5951503,3.3292639 3.0717128,3.3292639 c -0.8554688,0 -1.5117188,-0.1875 -2.0039063,-0.5625 -0.4921875,-0.375 -0.703125,-0.984375 -0.59765625,-1.79296871 H 1.8178065 C 1.8060878,1.3370764 1.8764003,1.6066077 2.028744,1.8058264 c 0.2226563,0.28125 0.6679688,0.4335938 1.3007813,0.4335938 1.0195312,0 1.7578125,-0.3632813 2.2265625,-1.0664063 0.2695312,-0.42187496 0.5039062,-1.17187496 0.7148437,-2.25 -0.3398437,0.38671879 -0.7148437,0.69140629 -1.125,0.87890629 -0.421875,0.19921875 -0.9257812,0.3046875 -1.546875,0.3046875 -0.8320312,0 -1.5234375,-0.3046875 -2.0390625,-0.90234375 C 1.0560878,-1.4051111 0.950619,-2.4012048 1.2435878,-3.7957361 c 0.2929687,-1.3007812 0.8085937,-2.34375 1.6171875,-3.0703125 0.796875,-0.7382812 1.6523437,-1.1132812 2.5546875,-1.1132812 0.6210937,0 1.125,0.1523437 1.5117187,0.46875 z m -1.5117187,0.703125 c -0.9257813,0 -1.6523438,0.4335937 -2.1796875,1.3007812 -0.28125,0.46875 -0.5039063,1.0664063 -0.65625,1.8164063 -0.1875,0.890625 -0.1523438,1.5585937 0.1054687,2.0273437 0.2578125,0.46875 0.6914063,0.69140629 1.3007813,0.69140629 0.9492187,0 1.6992187,-0.42187499 2.2734375,-1.27734379 0.3164062,-0.4921875 0.5390625,-1.0546875 0.6679687,-1.6992187 0.2109375,-0.9726563 0.1640625,-1.6875 -0.1289062,-2.15625 -0.3046875,-0.46875 -0.7617188,-0.703125 -1.3828125,-0.703125 z m 0,0"
       style="fill:#000000;fill-opacity:1;fill-rule:nonzero;stroke:none"
       aria-label="g"
       transform="matrix(1.3333333,0,0,1.3333333,553.23251,192.79926)" />
    <path
       id="path62"
       d="m 452.422,134.051 c 18.492,-0.039 33.473,-15.02 33.512,-33.512"
       style="fill:none;stroke:#000000;stroke-width:0.9216;stroke-linecap:butt;stroke-linejoin:miter;stroke-miterlimit:3.25;stroke-dasharray:0.9216, 5.5296;stroke-dashoffset:0;stroke-opacity:1"
       transform="scale(1.3333333)" />
    <path
       id="path63"
       d="m 479.652,120.66 -4.738,9.481 -4.738,-4.743 z"
       style="fill:#000000;fill-opacity:1;fill-rule:evenodd;stroke:none"
       transform="scale(1.3333333)" />
    <path
       id="path64"
       d="m 5.5193454,-10.956393 -1.546875,7.2773439 c -0.1289062,0.5507813 -0.1289062,1.0078125 -0.023437,1.3710938 0.1875,0.6445312 0.7148438,0.984375 1.6171875,0.984375 1.2773438,0 2.2851563,-0.5625 3,-1.7226563 0.375,-0.609375 0.6679688,-1.4648437 0.9023438,-2.5429687 L 10.62872,-10.956393 h 1.839844 L 10.148252,6.384375e-4 H 8.4021579 L 8.7537204,-1.6165491 c -0.328125,0.421875 -0.6914062,0.77343754 -1.1132812,1.06640629 -0.8320313,0.57421875 -1.734375,0.8671875 -2.7421875,0.8671875 -1.5820313,0 -2.53125,-0.52734375 -2.859375,-1.58203129 -0.1875,-0.5625 -0.1875,-1.3007812 0,-2.2382812 l 1.59375,-7.4531252 z m 0,0"
       style="fill:#000000;fill-opacity:1;fill-rule:nonzero;stroke:none"
       aria-label="u"
       transform="matrix(1.3333333,0,0,1.3333333,640.2854,187.08118)" />
    <path
       id="path65"
       d="m 6.9255954,-7.5110804 c 0.234375,0.1640625 0.421875,0.421875 0.609375,0.7265625 l 0.2226563,-0.984375 H 8.9646579 L 7.4529392,-0.63217419 C 7.2420017,0.36391956 6.9255954,1.1607946 6.5154392,1.7232946 5.7302829,2.7897008 4.5935642,3.3287633 3.0701267,3.3287633 c -0.8554688,0 -1.5117188,-0.1875 -2.0039063,-0.5625 -0.49218746,-0.375 -0.70312496,-0.984375 -0.59765621,-1.79296874 H 1.8162204 c -0.011719,0.36328124 0.058594,0.63281254 0.2109375,0.83203124 0.2226563,0.28125 0.6679688,0.4335938 1.3007813,0.4335938 1.0195312,0 1.7578125,-0.3632813 2.2265625,-1.0664063 0.2695312,-0.42187499 0.5039062,-1.1718749875 0.7148437,-2.25 -0.3398437,0.38671876 -0.7148437,0.69140626 -1.125,0.87890626 -0.421875,0.1992187525 -0.9257812,0.3046875 -1.546875,0.3046875 -0.8320312,0 -1.5234375,-0.3046875 -2.0390625,-0.90234375 C 1.0545017,-1.4056117 0.94903294,-2.4017054 1.2420017,-3.7962367 c 0.2929687,-1.3007812 0.8085937,-2.34375 1.6171875,-3.0703125 0.796875,-0.7382812 1.6523437,-1.1132812 2.5546875,-1.1132812 0.6210937,0 1.125,0.1523437 1.5117187,0.46875 z m -1.5117187,0.703125 c -0.9257813,0 -1.6523438,0.4335937 -2.1796875,1.3007812 -0.28125,0.46875 -0.5039063,1.0664063 -0.65625,1.8164063 -0.1875,0.890625 -0.1523438,1.5585937 0.1054687,2.0273437 0.2578125,0.46875 0.6914063,0.69140626 1.3007813,0.69140626 0.9492187,0 1.6992187,-0.42187496 2.2734375,-1.27734376 0.3164062,-0.4921875 0.5390625,-1.0546875 0.6679687,-1.6992187 0.2109375,-0.9726563 0.1640625,-1.6875 -0.1289062,-2.15625 -0.3046875,-0.46875 -0.7617188,-0.703125 -1.3828125,-0.703125 z m 0,0"
       style="fill:#000000;fill-opacity:1;fill-rule:nonzero;stroke:none"
       aria-label="g"
       transform="matrix(1.3333333,0,0,1.3333333,655.8479,192.30774)" />
    <path
       id="path66"
       d="m 452.422,134.051 -0.781,-0.957 -0.621,-1.082 -0.434,-1.172 -0.227,-1.231 -0.011,-1.25 0.203,-1.234 0.414,-1.18 0.601,-1.093 0.766,-0.973 0.895,-0.828 0.988,-0.66 1.035,-0.485 1.039,-0.304 1.004,-0.125 0.914,0.046 0.793,0.192 0.637,0.316 0.453,0.414 0.246,0.477 0.031,0.496 -0.187,0.488 -0.395,0.434 -0.586,0.348 -0.75,0.23 -0.887,0.09 -0.98,-0.074 -1.035,-0.25 -1.039,-0.434 -1.008,-0.613 -0.926,-0.782 -0.804,-0.933 -0.653,-1.059 -0.469,-1.16 -0.265,-1.223 -0.051,-1.25 0.168,-1.242 0.375,-1.191 0.57,-1.109 0.739,-0.997 0.875,-0.855 0.972,-0.691 1.031,-0.516 1.043,-0.336 1.012,-0.156 0.934,0.015 0.82,0.168 0.664,0.297 0.485,0.399 0.285,0.464 0.07,0.5 -0.148,0.489 -0.356,0.445 -0.555,0.367 -0.722,0.254 -0.864,0.117 -0.968,-0.043 -1.028,-0.222 -1.043,-0.399 -1.015,-0.582 -0.946,-0.75 -0.832,-0.91 -0.679,-1.039 -0.504,-1.145 -0.301,-1.21 -0.09,-1.25 0.129,-1.247 0.34,-1.203 0.535,-1.125 0.711,-1.019 0.852,-0.883 0.961,-0.723 1.023,-0.547 1.043,-0.367 1.023,-0.187 0.95,-0.016 0.843,0.141 0.696,0.277 0.519,0.383 0.321,0.457 0.109,0.496 -0.109,0.492 -0.321,0.457 -0.519,0.383 -0.696,0.277 -0.843,0.145 -0.95,-0.016 -1.023,-0.187 -1.043,-0.367 -1.023,-0.551 -0.961,-0.723 -0.852,-0.883 -0.711,-1.015 -0.535,-1.129 -0.34,-1.203 -0.129,-1.246 0.09,-1.246 0.301,-1.215 0.504,-1.145 0.679,-1.039 0.832,-0.906 0.946,-0.754 1.015,-0.578 1.043,-0.402 1.028,-0.219 0.968,-0.043 0.864,0.113 0.722,0.254 0.555,0.367 0.356,0.445 0.148,0.493 -0.07,0.496 -0.285,0.468 -0.485,0.399 -0.664,0.297 -0.82,0.168 -0.934,0.015 -1.012,-0.156 -1.043,-0.336 -1.031,-0.515 -0.972,-0.696 -0.875,-0.851 -0.739,-0.996 -0.57,-1.114 -0.375,-1.191 -0.168,-1.238 0.051,-1.25 0.265,-1.227 0.469,-1.156 0.653,-1.063 0.804,-0.929 0.926,-0.782 1.008,-0.613 1.039,-0.433 1.035,-0.25 0.98,-0.075 0.887,0.086 0.75,0.231 0.586,0.351 0.395,0.434 0.187,0.484 -0.031,0.5 -0.246,0.473 -0.453,0.414 -0.637,0.32 -0.793,0.192 -0.914,0.043 -1.004,-0.125 -1.039,-0.301 -1.035,-0.484 -0.988,-0.665 -0.895,-0.828 -0.766,-0.972 -0.601,-1.09 -0.414,-1.18 -0.203,-1.234 0.011,-1.254 0.227,-1.231 0.434,-1.172 0.621,-1.078 0.781,-0.957"
       style="fill:none;stroke:#000000;stroke-width:0.9216;stroke-linecap:square;stroke-linejoin:miter;stroke-miterlimit:3.25;stroke-dasharray:none;stroke-opacity:1"
       transform="scale(1.3333333)" />
    <path
       id="path67"
       d="m 9.7045533,-10.52451 c 0.3164067,0.234375 0.5859377,0.5859374 0.8437497,1.0312499 l 0.304688,-1.3828129 h 1.710937 l -2.121093,9.99609412 C 10.149866,0.50283362 9.7045533,1.6161149 9.1186158,2.4129899 c -1.0898438,1.4882812 -2.6953125,2.25 -4.8164063,2.25 -1.1953125,0 -2.1210937,-0.2695313 -2.8125,-0.796875 C 0.79830325,3.3387711 0.5053345,2.4950211 0.65767825,1.3583024 H 2.544397 c -0.023437,0.5039062 0.082031,0.890625 0.2929688,1.1601562 0.3164062,0.3984375 0.9492187,0.609375 1.828125,0.609375 1.4296875,0 2.4492187,-0.5039062 3.1054687,-1.4882812 0.375,-0.5859375 0.7148438,-1.64062503 1.0078125,-3.1523438 -0.4804687,0.55078127 -1.0078125,0.96093752 -1.5703125,1.24218752 -0.5976562,0.26953125 -1.3007812,0.421875 -2.1679687,0.421875 -1.171875,0 -2.1445313,-0.421875 -2.859375,-1.26562502 -0.7148438,-0.8554687 -0.8554688,-2.25 -0.4335938,-4.1953125 0.3984375,-1.828125 1.1367188,-3.28125 2.2617188,-4.3125 1.1132812,-1.0312496 2.3085937,-1.5468746 3.5742187,-1.5468746 0.8554688,0 1.5703125,0.210937 2.1210938,0.644531 z m -2.1210938,0.9843749 c -1.3007812,0 -2.3085937,0.609375 -3.046875,1.828125 -0.3984375,0.65625 -0.7148437,1.5 -0.9257812,2.5429687 -0.2695313,1.2421875 -0.2109375,2.1914063 0.1523437,2.8359375 0.3515625,0.65625 0.9609375,0.9726563 1.828125,0.9726563 1.3242188,0 2.3671875,-0.5976563 3.1640625,-1.7929688 0.4453125,-0.6914062 0.7617188,-1.4648437 0.9492188,-2.3671875 0.2929687,-1.3710937 0.234375,-2.3789062 -0.1875,-3.0234375 -0.421875,-0.65625 -1.078125,-0.9960937 -1.9335938,-0.9960937 z m 0,0"
       style="fill:#000000;fill-opacity:1;fill-rule:nonzero;stroke:none"
       aria-label="g"
       transform="matrix(1.3333333,0,0,1.3333333,621.60747,144.19674)" />
    <path
       id="path68"
       d="m 418.91,100.539 -0.808,-0.977 -0.602,-1.148 -0.352,-1.277 -0.082,-1.336 0.204,-1.332 0.472,-1.254 0.711,-1.113 0.914,-0.914 1.055,-0.692 1.137,-0.449 1.168,-0.211 h 1.14 l 1.063,0.18 0.949,0.32 0.801,0.41 0.625,0.469 0.425,0.48 0.219,0.465 0.004,0.426 -0.211,0.355 -0.414,0.278 -0.605,0.176 -0.758,0.054 -0.883,-0.086 -0.961,-0.242 -0.984,-0.422 -0.953,-0.613 -0.864,-0.801 -0.718,-0.988 -0.52,-1.145 -0.273,-1.257 -0.008,-1.317 0.269,-1.308 0.547,-1.235 0.785,-1.086 0.985,-0.89 1.125,-0.653 1.207,-0.39 1.23,-0.133 1.192,0.109 1.113,0.313 0.988,0.476 0.844,0.582 0.68,0.641 0.492,0.648 0.308,0.614 0.114,0.535 -0.078,0.437 -0.262,0.309 -0.438,0.172 -0.586,0.019 -0.711,-0.14 -0.793,-0.313 -0.828,-0.488 -0.812,-0.664 -0.738,-0.836 -0.61,-0.996 -0.426,-1.133 -0.199,-1.227 0.063,-1.281 0.336,-1.265 0.601,-1.188 0.848,-1.043 1.047,-0.848 1.187,-0.605 1.266,-0.332 1.277,-0.063 1.231,0.196 1.129,0.426 0.996,0.609 0.836,0.742 0.664,0.813 0.488,0.828 0.312,0.793 0.141,0.711 -0.019,0.586 -0.168,0.437 -0.313,0.262 -0.433,0.078 -0.54,-0.113 -0.613,-0.309 -0.648,-0.496 -0.641,-0.676 -0.582,-0.844 -0.476,-0.992 -0.313,-1.109 -0.109,-1.192 0.132,-1.23 0.391,-1.207 0.652,-1.125 0.891,-0.984 1.09,-0.79 1.23,-0.542 1.309,-0.274 1.316,0.008 1.258,0.277 1.145,0.52 0.988,0.719 0.805,0.863 0.609,0.953 0.422,0.984 0.242,0.961 0.086,0.883 -0.055,0.758 -0.175,0.601 -0.278,0.418 -0.355,0.211 -0.422,-0.004 -0.469,-0.218 -0.48,-0.426 -0.465,-0.625 -0.414,-0.801 -0.321,-0.949 -0.179,-1.063 v -1.14 l 0.215,-1.168 0.445,-1.141 0.691,-1.055 0.918,-0.91 1.11,-0.711 1.254,-0.472 1.332,-0.203 1.339,0.082 1.274,0.351 1.148,0.602 0.977,0.808"
       style="fill:none;stroke:#000000;stroke-width:0.9216;stroke-linecap:square;stroke-linejoin:miter;stroke-miterlimit:3.25;stroke-dasharray:none;stroke-opacity:1"
       transform="scale(1.3333333)" />
    <path
       id="path69"
       d="m 9.7034834,-10.524208 c 0.3164066,0.234375 0.5859376,0.5859378 0.8437496,1.0312503 l 0.304688,-1.3828123 h 1.710937 l -2.121093,9.9960935 C 10.148796,0.503136 9.7034834,1.6164173 9.1175459,2.4132923 c -1.0898438,1.4882812 -2.6953125,2.25 -4.8164063,2.25 -1.1953125,0 -2.1210937,-0.2695313 -2.8125,-0.796875 C 0.79723338,3.3390735 0.50426463,2.4953235 0.65660838,1.3586048 H 2.5433271 c -0.023437,0.5039062 0.082031,0.890625 0.2929688,1.1601562 0.3164062,0.3984375 0.9492187,0.609375 1.828125,0.609375 1.4296875,0 2.4492187,-0.5039062 3.1054687,-1.4882812 0.375,-0.5859375 0.7148438,-1.64062505 1.0078125,-3.1523438 -0.4804687,0.55078125 -1.0078125,0.9609375 -1.5703125,1.2421875 -0.5976562,0.26953125 -1.3007812,0.421875 -2.1679687,0.421875 -1.171875,0 -2.1445313,-0.421875 -2.859375,-1.265625 -0.7148438,-0.8554687 -0.8554688,-2.25 -0.4335938,-4.1953125 0.3984375,-1.828125 1.1367188,-3.28125 2.2617188,-4.3125 1.1132812,-1.03125 2.3085937,-1.546875 3.5742187,-1.546875 0.8554688,0 1.5703125,0.210938 2.1210938,0.644531 z m -2.1210938,0.9843753 c -1.3007812,0 -2.3085937,0.609375 -3.046875,1.828125 -0.3984375,0.65625 -0.7148437,1.5 -0.9257812,2.5429687 -0.2695313,1.2421875 -0.2109375,2.1914063 0.1523437,2.8359375 0.3515625,0.65625 0.9609375,0.9726563 1.828125,0.9726563 1.3242188,0 2.3671875,-0.5976563 3.1640625,-1.7929688 0.4453125,-0.6914062 0.7617188,-1.4648437 0.9492188,-2.3671875 0.2929687,-1.3710937 0.234375,-2.3789062 -0.1875,-3.0234375 -0.421875,-0.65625 -1.078125,-0.9960937 -1.9335938,-0.9960937 z m 0,0"
       style="fill:#000000;fill-opacity:1;fill-rule:nonzero;stroke:none"
       aria-label="g"
       transform="matrix(1.3333333,0,0,1.3333333,549.13233,90.391652)" />
    <path
       id="path70"
       d="m 485.934,100.539 0.793,-1 0.578,-1.168 0.324,-1.289 0.047,-1.348 -0.235,-1.332 -0.511,-1.246 -0.746,-1.094 -0.942,-0.894 -1.082,-0.66 -1.156,-0.414 -1.18,-0.18 -1.14,0.035 -1.063,0.215 -0.933,0.348 -0.782,0.437 -0.597,0.485 -0.399,0.496 -0.183,0.468 0.039,0.422 0.25,0.352 0.457,0.262 0.64,0.148 0.793,0.023 0.906,-0.121 0.973,-0.293 0.985,-0.476 0.937,-0.668 0.832,-0.863 0.668,-1.039 0.457,-1.188 0.199,-1.289 -0.074,-1.328 -0.359,-1.297 -0.625,-1.199 -0.86,-1.039 -1.043,-0.821 -1.168,-0.57 -1.23,-0.305 -1.231,-0.047 -1.179,0.184 -1.082,0.383 -0.95,0.523 -0.792,0.621 -0.614,0.657 -0.429,0.648 -0.235,0.598 -0.039,0.512 0.156,0.398 0.34,0.262 0.504,0.113 0.649,-0.047 0.757,-0.215 0.817,-0.39 0.836,-0.567 0.789,-0.75 0.691,-0.918 0.535,-1.07 0.325,-1.192 0.078,-1.269 -0.196,-1.285 -0.468,-1.242 -0.735,-1.133 -0.957,-0.957 -1.129,-0.731 -1.242,-0.468 -1.289,-0.196 -1.266,0.078 -1.191,0.325 -1.07,0.531 -0.918,0.691 -0.75,0.793 -0.571,0.832 -0.39,0.821 -0.211,0.757 -0.047,0.649 0.113,0.504 0.262,0.34 0.398,0.156 0.508,-0.039 0.598,-0.235 0.652,-0.429 0.657,-0.614 0.621,-0.793 0.523,-0.949 0.379,-1.082 0.187,-1.179 -0.046,-1.231 -0.309,-1.23 -0.57,-1.168 -0.821,-1.043 -1.035,-0.86 -1.199,-0.625 -1.301,-0.359 -1.324,-0.078 -1.289,0.203 -1.188,0.453 -1.039,0.672 -0.863,0.832 -0.668,0.937 -0.476,0.985 -0.293,0.972 -0.125,0.907 0.023,0.793 0.152,0.636 0.262,0.457 0.348,0.254 0.422,0.035 0.472,-0.179 0.496,-0.399 0.485,-0.597 0.437,-0.782 0.348,-0.937 0.211,-1.059 0.039,-1.14 -0.18,-1.18 -0.414,-1.16 -0.66,-1.078 -0.895,-0.942 -1.093,-0.75 -1.246,-0.507 -1.332,-0.239 -1.348,0.051 -1.289,0.324 -1.172,0.578 -0.996,0.793"
       style="fill:none;stroke:#000000;stroke-width:0.9216;stroke-linecap:square;stroke-linejoin:miter;stroke-miterlimit:3.25;stroke-dasharray:none;stroke-opacity:1"
       transform="scale(1.3333333)" />
    <path
       id="path71"
       d="m 9.7029392,-10.522314 c 0.3164058,0.234375 0.5859378,0.5859373 0.8437498,1.0312498 l 0.304688,-1.3828128 h 1.710937 L 10.44122,-0.87778294 C 10.148252,0.50502956 9.7029392,1.6183108 9.1170017,2.4151858 c -1.0898438,1.4882813 -2.6953125,2.25 -4.8164063,2.25 -1.1953125,0 -2.1210937,-0.2695312 -2.8125,-0.796875 C 0.79668919,3.3409671 0.50372044,2.4972171 0.65606419,1.3604983 H 2.5427829 c -0.023437,0.5039063 0.082031,0.890625 0.2929688,1.1601563 0.3164062,0.3984375 0.9492187,0.609375 1.828125,0.609375 1.4296875,0 2.4492187,-0.5039063 3.1054687,-1.4882813 0.375,-0.5859375 0.7148438,-1.64062499 1.0078125,-3.1523437 -0.4804687,0.55078121 -1.0078125,0.96093746 -1.5703125,1.24218746 -0.5976562,0.26953125 -1.3007812,0.421875 -2.1679687,0.421875 -1.171875,0 -2.1445313,-0.421875 -2.859375,-1.26562496 -0.7148438,-0.8554688 -0.8554688,-2.25 -0.4335938,-4.1953125 0.3984375,-1.828125 1.1367188,-3.28125 2.2617188,-4.3125 1.1132812,-1.0312496 2.3085937,-1.5468746 3.5742187,-1.5468746 0.8554688,0 1.5703125,0.210937 2.1210938,0.644531 z m -2.1210938,0.9843748 c -1.3007812,0 -2.3085937,0.609375 -3.046875,1.828125 -0.3984375,0.65625 -0.7148437,1.5 -0.9257812,2.5429688 -0.2695313,1.2421875 -0.2109375,2.1914062 0.1523437,2.8359375 0.3515625,0.65625 0.9609375,0.9726562 1.828125,0.9726562 1.3242188,0 2.3671875,-0.5976562 3.1640625,-1.7929687 0.4453125,-0.6914063 0.7617188,-1.4648438 0.9492188,-2.3671875 0.2929687,-1.3710938 0.234375,-2.3789063 -0.1875,-3.0234375 -0.421875,-0.65625 -1.078125,-0.9960938 -1.9335938,-0.9960938 z m 0,0"
       style="fill:#000000;fill-opacity:1;fill-rule:nonzero;stroke:none"
       aria-label="g"
       transform="matrix(1.3333333,0,0,1.3333333,640.2854,90.682096)" />
    <path
       id="path72"
       d="m 456.109,67.027 c 0,0.977 -0.39,1.914 -1.082,2.606 -0.691,0.691 -1.629,1.078 -2.605,1.078 -0.977,0 -1.914,-0.387 -2.606,-1.078 -0.691,-0.692 -1.082,-1.629 -1.082,-2.606 0,-0.98 0.391,-1.918 1.082,-2.609 0.692,-0.691 1.629,-1.078 2.606,-1.078 0.976,0 1.914,0.387 2.605,1.078 0.692,0.691 1.082,1.629 1.082,2.609 z"
       style="fill:#000000;fill-opacity:1;fill-rule:evenodd;stroke:none"
       transform="scale(1.3333333)" />
    <path
       id="path73"
       d="m 456.109,134.051 c 0,0.976 -0.39,1.914 -1.082,2.605 -0.691,0.692 -1.629,1.082 -2.605,1.082 -0.977,0 -1.914,-0.39 -2.606,-1.082 -0.691,-0.691 -1.082,-1.629 -1.082,-2.605 0,-0.977 0.391,-1.914 1.082,-2.606 0.692,-0.691 1.629,-1.082 2.606,-1.082 0.976,0 1.914,0.391 2.605,1.082 0.692,0.692 1.082,1.629 1.082,2.606 z"
       style="fill:#000000;fill-opacity:1;fill-rule:evenodd;stroke:none"
       transform="scale(1.3333333)" />
    <path
       id="path74"
       d="m 422.594,100.539 c 0,0.977 -0.387,1.914 -1.078,2.606 -0.692,0.691 -1.629,1.078 -2.606,1.078 -0.98,0 -1.918,-0.387 -2.609,-1.078 -0.692,-0.692 -1.078,-1.629 -1.078,-2.606 0,-0.98 0.386,-1.918 1.078,-2.609 0.691,-0.692 1.629,-1.078 2.609,-1.078 0.977,0 1.914,0.386 2.606,1.078 0.691,0.691 1.078,1.629 1.078,2.609 z"
       style="fill:#000000;fill-opacity:1;fill-rule:evenodd;stroke:none"
       transform="scale(1.3333333)" />
    <path
       id="path75"
       d="m 489.621,100.539 c 0,0.977 -0.387,1.914 -1.078,2.606 -0.691,0.691 -1.629,1.078 -2.609,1.078 -0.977,0 -1.914,-0.387 -2.606,-1.078 -0.691,-0.692 -1.078,-1.629 -1.078,-2.606 0,-0.98 0.387,-1.918 1.078,-2.609 0.692,-0.692 1.629,-1.078 2.606,-1.078 0.98,0 1.918,0.386 2.609,1.078 0.691,0.691 1.078,1.629 1.078,2.609 z"
       style="fill:#000000;fill-opacity:1;fill-rule:evenodd;stroke:none"
       transform="scale(1.3333333)" />
    <path
       id="path76"
       d="M 552.961,100.539 H 603.23"
       style="fill:none;stroke:#000000;stroke-width:0.9216;stroke-linecap:butt;stroke-linejoin:miter;stroke-miterlimit:3.25;stroke-dasharray:0.9216, 5.5296;stroke-dashoffset:0;stroke-opacity:1"
       transform="scale(1.3333333)" />
    <path
       id="path77"
       d="m 583.121,100.539 -10.055,3.352 v -6.703 z"
       style="fill:#000000;fill-opacity:1;fill-rule:evenodd;stroke:none"
       transform="scale(1.3333333)" />
    <path
       id="path78"
       d="m 5.5180714,-10.958216 -1.546875,7.2773439 c -0.1289062,0.5507813 -0.1289062,1.0078125 -0.023437,1.3710938 0.1875,0.6445312 0.7148438,0.984375 1.6171875,0.984375 1.2773438,0 2.2851563,-0.5625 3,-1.7226563 0.375,-0.609375 0.6679688,-1.4648437 0.9023438,-2.5429687 L 10.627446,-10.958216 H 12.46729 L 10.146978,-0.00118456 H 8.4008839 L 8.7524464,-1.6183721 c -0.328125,0.421875 -0.6914062,0.77343754 -1.1132812,1.06640629 -0.8320313,0.57421875 -1.734375,0.8671875 -2.7421875,0.8671875 -1.5820313,0 -2.53125,-0.52734375 -2.859375,-1.58203129 -0.1875,-0.5625 -0.1875,-1.3007812 0,-2.2382812 l 1.59375,-7.4531252 z m 0,0"
       style="fill:#000000;fill-opacity:1;fill-rule:nonzero;stroke:none"
       aria-label="u"
       transform="matrix(1.3333333,0,0,1.3333333,756.7871,160.58361)" />
    <path
       id="path79"
       d="m 6.9243214,-7.5129034 c 0.234375,0.1640625 0.421875,0.421875 0.609375,0.7265625 l 0.2226563,-0.984375 H 8.9633839 L 7.4516652,-0.63399719 C 7.2407277,0.36209656 6.9243214,1.1589716 6.5141652,1.7214716 5.7290089,2.7878778 4.5922902,3.3269403 3.0688527,3.3269403 c -0.8554688,0 -1.5117188,-0.1875 -2.0039063,-0.5625 -0.49218746,-0.375 -0.70312496,-0.984375 -0.59765621,-1.79296874 H 1.8149464 c -0.011719,0.36328124 0.058594,0.63281254 0.2109375,0.83203124 0.2226563,0.28125 0.6679688,0.4335938 1.3007813,0.4335938 1.0195312,0 1.7578125,-0.3632813 2.2265625,-1.0664063 0.2695312,-0.42187499 0.5039062,-1.17187499 0.7148437,-2.25 -0.3398437,0.38671876 -0.7148437,0.69140626 -1.125,0.87890626 -0.421875,0.19921875 -0.9257812,0.3046875 -1.546875,0.3046875 -0.8320312,0 -1.5234375,-0.3046875 -2.0390625,-0.90234375 C 1.0532277,-1.4074347 0.94775894,-2.4035284 1.2407277,-3.7980597 c 0.2929687,-1.3007812 0.8085937,-2.34375 1.6171875,-3.0703125 0.796875,-0.7382812 1.6523437,-1.1132812 2.5546875,-1.1132812 0.6210937,0 1.125,0.1523437 1.5117187,0.46875 z m -1.5117187,0.703125 c -0.9257813,0 -1.6523438,0.4335937 -2.1796875,1.3007812 -0.28125,0.46875 -0.5039063,1.0664063 -0.65625,1.8164063 -0.1875,0.890625 -0.1523438,1.5585937 0.1054687,2.0273437 0.2578125,0.46875 0.6914063,0.69140626 1.3007813,0.69140626 0.9492187,0 1.6992187,-0.42187496 2.2734375,-1.27734376 0.3164062,-0.4921875 0.5390625,-1.0546875 0.6679687,-1.6992187 0.2109375,-0.9726563 0.1640625,-1.6875 -0.1289062,-2.15625 -0.3046875,-0.46875 -0.7617188,-0.703125 -1.3828125,-0.703125 z m 0,0"
       style="fill:#000000;fill-opacity:1;fill-rule:nonzero;stroke:none"
       aria-label="g"
       transform="matrix(1.3333333,0,0,1.3333333,772.3496,165.81017)" />
    <path
       id="path80"
       d="M 720.523,100.539 H 670.254"
       style="fill:none;stroke:#000000;stroke-width:0.9216;stroke-linecap:butt;stroke-linejoin:miter;stroke-miterlimit:3.25;stroke-dasharray:0.9216, 5.5296;stroke-dashoffset:0;stroke-opacity:1"
       transform="scale(1.3333333)" />
    <path
       id="path81"
       d="m 700.414,100.539 -10.051,-3.351 v 6.703 z"
       style="fill:#000000;fill-opacity:1;fill-rule:evenodd;stroke:none"
       transform="scale(1.3333333)" />
    <path
       id="path82"
       d="m 5.5194249,-10.958216 -1.546875,7.2773439 c -0.1289063,0.5507813 -0.1289063,1.0078125 -0.023437,1.3710938 0.1875,0.6445312 0.7148437,0.984375 1.6171875,0.984375 1.2773437,0 2.2851562,-0.5625 3,-1.7226563 0.375,-0.609375 0.6679687,-1.4648437 0.9023437,-2.5429687 L 10.6288,-10.958216 h 1.839844 L 10.148331,-0.00118456 H 8.4022374 L 8.7537999,-1.6183721 c -0.328125,0.421875 -0.6914063,0.77343754 -1.1132813,1.06640629 -0.8320312,0.57421875 -1.734375,0.8671875 -2.7421875,0.8671875 -1.5820312,0 -2.53125,-0.52734375 -2.859375,-1.58203129 -0.1875,-0.5625 -0.1875,-1.3007812 0,-2.2382812 l 1.59375,-7.4531252 z m 0,0"
       style="fill:#000000;fill-opacity:1;fill-rule:nonzero;stroke:none"
       aria-label="u"
       transform="matrix(1.3333333,0,0,1.3333333,913.17983,160.58361)" />
    <path
       id="path83"
       d="m 6.9256749,-7.5129034 c 0.234375,0.1640625 0.421875,0.421875 0.609375,0.7265625 l 0.2226562,-0.984375 H 8.9647374 L 7.4530186,-0.63399719 C 7.2420811,0.36209656 6.9256749,1.1589716 6.5155186,1.7214716 5.7303624,2.7878778 4.5936436,3.3269403 3.0702061,3.3269403 c -0.8554687,0 -1.5117187,-0.1875 -2.0039062,-0.5625 -0.49218752,-0.375 -0.70312502,-0.984375 -0.59765627,-1.79296874 H 1.8162999 c -0.011719,0.36328124 0.058594,0.63281254 0.2109375,0.83203124 0.2226562,0.28125 0.6679687,0.4335938 1.3007812,0.4335938 1.0195313,0 1.7578125,-0.3632813 2.2265625,-1.0664063 0.2695313,-0.42187499 0.5039063,-1.17187499 0.7148438,-2.25 -0.3398438,0.38671876 -0.7148438,0.69140626 -1.125,0.87890626 -0.421875,0.19921875 -0.9257813,0.3046875 -1.546875,0.3046875 -0.8320313,0 -1.5234375,-0.3046875 -2.0390625,-0.90234375 C 1.0545811,-1.4074347 0.94911238,-2.4035284 1.2420811,-3.7980597 c 0.2929688,-1.3007812 0.8085938,-2.34375 1.6171875,-3.0703125 0.796875,-0.7382812 1.6523438,-1.1132812 2.5546875,-1.1132812 0.6210938,0 1.125,0.1523437 1.5117188,0.46875 z m -1.5117188,0.703125 c -0.9257812,0 -1.6523437,0.4335937 -2.1796875,1.3007812 -0.28125,0.46875 -0.5039062,1.0664063 -0.65625,1.8164063 -0.1875,0.890625 -0.1523437,1.5585937 0.1054688,2.0273437 0.2578125,0.46875 0.6914062,0.69140626 1.3007812,0.69140626 0.9492188,0 1.6992188,-0.42187496 2.2734375,-1.27734376 0.3164063,-0.4921875 0.5390625,-1.0546875 0.6679688,-1.6992187 0.2109375,-0.9726563 0.1640625,-1.6875 -0.1289063,-2.15625 -0.3046875,-0.46875 -0.7617187,-0.703125 -1.3828125,-0.703125 z m 0,0"
       style="fill:#000000;fill-opacity:1;fill-rule:nonzero;stroke:none"
       aria-label="g"
       transform="matrix(1.3333333,0,0,1.3333333,928.74233,165.81017)" />
    <path
       id="path84"
       d="m 603.23,100.539 c 0,8.887 3.532,17.41 9.813,23.695 6.285,6.286 14.812,9.817 23.699,9.817 8.887,0 17.41,-3.531 23.696,-9.817 6.285,-6.285 9.816,-14.808 9.816,-23.695"
       style="fill:none;stroke:#000000;stroke-width:0.9216;stroke-linecap:butt;stroke-linejoin:miter;stroke-miterlimit:3.25;stroke-dasharray:0.9216, 5.5296;stroke-dashoffset:0;stroke-opacity:1"
       transform="scale(1.3333333)" />
    <path
       id="path85"
       d="m 641.77,134.051 -10.055,3.351 v -6.703 z"
       style="fill:#000000;fill-opacity:1;fill-rule:evenodd;stroke:none"
       transform="scale(1.3333333)" />
    <path
       id="path86"
       d="m 5.5202135,-10.958248 -1.546875,7.2773442 c -0.1289062,0.5507813 -0.1289062,1.0078125 -0.023437,1.3710938 0.1875,0.6445312 0.7148438,0.984375 1.6171875,0.984375 1.2773438,0 2.2851563,-0.5625 3,-1.7226563 0.375,-0.609375 0.6679688,-1.4648437 0.9023438,-2.5429687 l 1.1601572,-5.367188 h 1.839843 L 10.14912,-0.00121625 H 8.403026 L 8.7545885,-1.6184038 C 8.4264635,-1.1965288 8.0631823,-0.84496625 7.6413073,-0.5519975 6.809276,0.02222125 5.9069323,0.31519 4.8991198,0.31519 c -1.5820313,0 -2.53125,-0.52734375 -2.859375,-1.5820313 -0.1875,-0.5625 -0.1875,-1.3007812 0,-2.2382812 l 1.59375,-7.4531255 z m 0,0"
       style="fill:#000000;fill-opacity:1;fill-rule:nonzero;stroke:none"
       aria-label="u"
       transform="matrix(1.3333333,0,0,1.3333333,834.98347,205.26725)" />
    <path
       id="path87"
       d="m 6.9264635,-7.5129351 c 0.234375,0.1640625 0.421875,0.421875 0.609375,0.7265625 l 0.2226562,-0.984375 H 8.965526 L 7.4538072,-0.63402888 C 7.2428697,0.36206487 6.9264635,1.1589399 6.5163072,1.7214399 5.731151,2.7878461 4.5944322,3.3269086 3.0709947,3.3269086 c -0.8554687,0 -1.5117187,-0.1875 -2.0039062,-0.5625 -0.4921875,-0.375 -0.703125,-0.984375 -0.59765625,-1.79296873 H 1.8170885 C 1.8053697,1.3347211 1.8756822,1.6042524 2.028026,1.8034711 c 0.2226562,0.28125 0.6679687,0.4335938 1.3007812,0.4335938 1.0195313,0 1.7578125,-0.3632813 2.2265625,-1.0664063 0.2695313,-0.42187498 0.5039063,-1.17187498 0.7148438,-2.25 -0.3398438,0.38671877 -0.7148438,0.69140627 -1.125,0.87890627 -0.421875,0.19921875 -0.9257813,0.3046875 -1.546875,0.3046875 -0.8320313,0 -1.5234375,-0.3046875 -2.0390625,-0.90234375 C 1.0553697,-1.4074664 0.949901,-2.4035601 1.2428697,-3.7980914 c 0.2929688,-1.3007812 0.8085938,-2.34375 1.6171875,-3.0703125 0.796875,-0.7382812 1.6523438,-1.1132812 2.5546875,-1.1132812 0.6210938,0 1.125,0.1523437 1.5117188,0.46875 z m -1.5117188,0.703125 c -0.9257812,0 -1.6523437,0.4335937 -2.1796875,1.3007812 -0.28125,0.46875 -0.5039062,1.0664063 -0.65625,1.8164063 -0.1875,0.890625 -0.1523437,1.5585937 0.1054688,2.0273437 0.2578125,0.46875 0.6914062,0.69140627 1.3007812,0.69140627 0.9492188,0 1.6992188,-0.42187497 2.2734375,-1.27734377 0.3164063,-0.4921875 0.5390625,-1.0546875 0.6679688,-1.6992187 0.2109375,-0.9726563 0.1640625,-1.6875 -0.1289063,-2.15625 -0.3046875,-0.46875 -0.7617187,-0.703125 -1.3828125,-0.703125 z m 0,0"
       style="fill:#000000;fill-opacity:1;fill-rule:nonzero;stroke:none"
       aria-label="g"
       transform="matrix(1.3333333,0,0,1.3333333,850.54597,210.49381)" />
    <path
       id="path88"
       d="m 603.23,100.539 -0.976,-0.984 -0.719,-1.223 -0.398,-1.391 -0.039,-1.464 0.32,-1.422 0.66,-1.282 0.938,-1.054 1.14,-0.774 1.262,-0.465 1.293,-0.164 1.246,0.09 1.137,0.297 0.968,0.445 0.758,0.524 0.512,0.555 0.242,0.546 -0.035,0.5 -0.316,0.434 -0.575,0.344 -0.808,0.226 -0.992,0.078 -1.118,-0.105 -1.171,-0.32 -1.145,-0.571 -1.035,-0.824 -0.84,-1.07 -0.566,-1.274 -0.235,-1.41 0.125,-1.445 0.485,-1.383 0.808,-1.211 1.067,-0.957 1.246,-0.648 1.332,-0.313 1.332,0.008 1.258,0.289 1.125,0.508 0.949,0.648 0.738,0.719 0.508,0.723 0.262,0.66 0.004,0.566 -0.247,0.43 -0.488,0.281 -0.703,0.114 -0.879,-0.071 -0.996,-0.273 -1.039,-0.485 -1.008,-0.714 -0.887,-0.938 -0.687,-1.144 -0.406,-1.305 -0.075,-1.402 0.286,-1.407 0.632,-1.312 0.946,-1.117 1.183,-0.844 1.332,-0.508 1.387,-0.16 1.348,0.176 1.234,0.472 1.07,0.7 0.875,0.847 0.657,0.91 0.437,0.895 0.215,0.808 -0.004,0.672 -0.215,0.492 -0.414,0.286 -0.593,0.066 -0.739,-0.16 -0.836,-0.383 -0.871,-0.613 -0.836,-0.828 -0.711,-1.028 -0.511,-1.199 -0.243,-1.32 0.086,-1.375 0.434,-1.344 0.769,-1.219 1.063,-1 1.281,-0.707 1.399,-0.363 1.422,-0.004 1.339,0.344"
       style="fill:none;stroke:#000000;stroke-width:0.9216;stroke-linecap:square;stroke-linejoin:miter;stroke-miterlimit:3.25;stroke-dasharray:none;stroke-opacity:1"
       transform="scale(1.3333333)" />
    <path
       id="path89"
       d="m 9.7016744,-10.52393 c 0.3164066,0.234375 0.5859376,0.5859371 0.8437496,1.0312496 l 0.304688,-1.3828126 h 1.710937 l -2.121093,9.99609381 C 10.146987,0.50341331 9.7016744,1.6166946 9.1157369,2.4135696 c -1.0898437,1.4882812 -2.6953125,2.25 -4.8164062,2.25 -1.1953125,0 -2.1210938,-0.2695313 -2.8125,-0.796875 C 0.79542444,3.3393508 0.50245569,2.4956008 0.65479944,1.3588821 H 2.5415182 c -0.023437,0.5039062 0.082031,0.890625 0.2929687,1.1601562 0.3164063,0.3984375 0.9492188,0.609375 1.828125,0.609375 1.4296875,0 2.4492188,-0.5039062 3.1054688,-1.4882812 0.375,-0.5859375 0.7148437,-1.6406250375 1.0078125,-3.1523438 -0.4804688,0.55078126 -1.0078125,0.96093751 -1.5703125,1.24218751 -0.5976563,0.2695312525 -1.3007813,0.421875 -2.1679688,0.421875 -1.171875,0 -2.1445312,-0.421875 -2.859375,-1.26562501 -0.7148437,-0.8554687 -0.8554687,-2.25 -0.4335937,-4.1953125 0.3984375,-1.828125 1.1367187,-3.28125 2.2617187,-4.3125 1.1132813,-1.0312503 2.3085938,-1.5468753 3.5742188,-1.5468753 0.8554687,0 1.5703125,0.210938 2.1210937,0.644532 z m -2.1210937,0.9843746 c -1.3007813,0 -2.3085938,0.609375 -3.046875,1.828125 -0.3984375,0.65625 -0.7148438,1.5 -0.9257813,2.5429687 -0.2695312,1.2421875 -0.2109375,2.1914063 0.1523438,2.8359375 0.3515625,0.65625 0.9609375,0.9726563 1.828125,0.9726563 1.3242187,0 2.3671875,-0.5976563 3.1640625,-1.7929688 0.4453125,-0.6914062 0.7617187,-1.4648437 0.9492187,-2.3671875 0.2929688,-1.3710937 0.234375,-2.3789062 -0.1875,-3.0234375 -0.421875,-0.65625 -1.078125,-0.9960937 -1.9335937,-0.9960937 z m 0,0"
       style="fill:#000000;fill-opacity:1;fill-rule:nonzero;stroke:none"
       aria-label="g"
       transform="matrix(1.3333333,0,0,1.3333333,784.27147,102.82488)" />
    <path
       id="path90"
       d="m 653.5,71.215 c -1.152,-5.113 -4.57,-9.418 -9.289,-11.695 -4.719,-2.282 -10.219,-2.282 -14.938,0 -4.718,2.277 -8.136,6.582 -9.289,11.695"
       style="fill:none;stroke:#000000;stroke-width:0.9216;stroke-linecap:square;stroke-linejoin:miter;stroke-miterlimit:3.25;stroke-dasharray:none;stroke-opacity:1"
       transform="scale(1.3333333)" />
    <path
       id="path91"
       d="M 641.77,57.809 631.715,54.457 V 61.16 Z"
       style="fill:#000000;fill-opacity:1;fill-rule:evenodd;stroke:none"
       transform="scale(1.3333333)" />
    <path
       id="path92"
       d="m 5.5202126,-10.956803 -1.546875,7.2773436 c -0.1289062,0.5507813 -0.1289062,1.0078125 -0.023437,1.3710938 0.1875,0.6445312 0.7148438,0.984375 1.6171875,0.984375 1.2773438,0 2.2851563,-0.5625 3,-1.7226563 0.375,-0.609375 0.6679688,-1.4648437 0.9023438,-2.5429687 l 1.1601571,-5.3671874 h 1.839843 L 10.149119,2.28125e-4 H 8.4030251 L 8.7545876,-1.6169594 c -0.328125,0.421875 -0.6914062,0.77343752 -1.1132812,1.06640627 -0.8320313,0.57421875 -1.734375,0.8671875 -2.7421875,0.8671875 -1.5820313,0 -2.53125,-0.52734375 -2.859375,-1.58203127 -0.1875,-0.5625 -0.1875,-1.3007812 0,-2.2382812 l 1.59375,-7.4531249 z m 0,0"
       style="fill:#000000;fill-opacity:1;fill-rule:nonzero;stroke:none"
       aria-label="u"
       transform="matrix(1.3333333,0,0,1.3333333,835.0069,59.960633)" />
    <path
       id="path93"
       d="m 3.2116189,-10.757585 h 1.2773437 l -1.3359375,6.257813 4.0898438,-3.328125 h 1.6875 L 5.3092751,-4.9099282 7.4420876,2.28e-4 H 5.7428689 L 4.1374001,-3.9489908 2.8249001,-2.9411783 2.1920876,2.28e-4 H 0.92646263 Z m 0,0"
       style="fill:#000000;fill-opacity:1;fill-rule:nonzero;stroke:none"
       aria-label="k"
       transform="matrix(1.3333333,0,0,1.3333333,850.5694,65.187196)" />
    <path
       id="path94"
       d="m 619.984,71.215 c 1.153,5.109 4.571,9.418 9.289,11.695 4.719,2.278 10.219,2.278 14.938,0 4.719,-2.277 8.137,-6.586 9.289,-11.695"
       style="fill:none;stroke:#000000;stroke-width:0.9216;stroke-linecap:square;stroke-linejoin:miter;stroke-miterlimit:3.25;stroke-dasharray:none;stroke-opacity:1"
       transform="scale(1.3333333)" />
    <path
       id="path95"
       d="m 631.715,84.621 10.055,3.352 V 81.27 Z"
       style="fill:#000000;fill-opacity:1;fill-rule:evenodd;stroke:none"
       transform="scale(1.3333333)" />
    <path
       id="path96"
       d="m 5.5202126,-10.956663 -1.546875,7.2773437 c -0.1289062,0.5507813 -0.1289062,1.0078125 -0.023437,1.3710938 0.1875,0.6445312 0.7148438,0.984375 1.6171875,0.984375 1.2773438,0 2.2851563,-0.5625 3,-1.7226563 0.375,-0.609375 0.6679688,-1.4648437 0.9023438,-2.5429687 l 1.1601571,-5.3671875 h 1.839843 L 10.149119,3.6825e-4 H 8.4030251 L 8.7545876,-1.6168193 c -0.328125,0.421875 -0.6914062,0.77343755 -1.1132812,1.0664063 -0.8320313,0.57421875 -1.734375,0.8671875 -2.7421875,0.8671875 -1.5820313,0 -2.53125,-0.52734375 -2.859375,-1.5820313 -0.1875,-0.5625 -0.1875,-1.3007812 0,-2.2382812 l 1.59375,-7.453125 z m 0,0"
       style="fill:#000000;fill-opacity:1;fill-rule:nonzero;stroke:none"
       aria-label="u"
       transform="matrix(1.3333333,0,0,1.3333333,835.0069,139.35888)" />
    <path
       id="path97"
       d="m 3.2116189,-10.757443 h 1.2773437 l -1.3359375,6.2578121 4.0898438,-3.328125 h 1.6875 L 5.3092751,-4.9097871 7.4420876,3.69125e-4 H 5.7428689 L 4.1374001,-3.9488496 2.8249001,-2.9410371 2.1920876,3.69125e-4 H 0.92646263 Z m 0,0"
       style="fill:#000000;fill-opacity:1;fill-rule:nonzero;stroke:none"
       aria-label="k"
       transform="matrix(1.3333333,0,0,1.3333333,850.5694,144.58545)" />
    <path
       id="path98"
       d="m 670.254,100.539 0.965,-0.992 0.707,-1.231 0.386,-1.39 0.028,-1.461 -0.336,-1.418 -0.664,-1.277 -0.945,-1.047 -1.145,-0.762 -1.266,-0.457 -1.293,-0.16 -1.246,0.097 -1.133,0.305 -0.968,0.445 -0.754,0.532 -0.508,0.558 -0.238,0.551 0.039,0.504 0.316,0.437 0.578,0.34 0.809,0.227 0.996,0.07 1.117,-0.109 1.168,-0.328 1.145,-0.575 1.027,-0.832 0.832,-1.074 0.563,-1.277 0.23,-1.406 -0.133,-1.446 -0.484,-1.375 -0.809,-1.211 -1.07,-0.953 -1.246,-0.644 -1.328,-0.313 -1.336,0.008 -1.258,0.289 -1.125,0.504 -0.949,0.652 -0.738,0.719 -0.508,0.723 -0.258,0.664 -0.004,0.566 0.25,0.438 0.488,0.281 0.707,0.117 0.875,-0.07 0.996,-0.274 1.043,-0.484 1.008,-0.715 0.887,-0.937 0.683,-1.145 0.407,-1.305 0.078,-1.402 -0.281,-1.402 -0.629,-1.313 -0.942,-1.117 -1.179,-0.848 -1.329,-0.515 -1.382,-0.164 -1.348,0.172 -1.238,0.464 -1.078,0.692 -0.875,0.844 -0.664,0.906 -0.442,0.89 -0.215,0.813 v 0.672 l 0.215,0.492 0.414,0.293 0.594,0.07 0.742,-0.152 0.84,-0.379 0.875,-0.605 0.84,-0.825 0.715,-1.023 0.519,-1.195 0.246,-1.321 -0.074,-1.375 -0.422,-1.343 -0.762,-1.223 -1.054,-1.008 -1.27,-0.719 -1.394,-0.375 -1.418,-0.015 -1.344,0.328"
       style="fill:none;stroke:#000000;stroke-width:0.9216;stroke-linecap:square;stroke-linejoin:miter;stroke-miterlimit:3.25;stroke-dasharray:none;stroke-opacity:1"
       transform="scale(1.3333333)" />
    <path
       id="path99"
       d="m 9.7034418,-10.524395 c 0.3164062,0.234375 0.5859372,0.5859378 0.8437502,1.0312503 l 0.304687,-1.3828123 h 1.710938 l -2.121094,9.9960935 C 10.148754,0.502949 9.7034418,1.6162303 9.1175043,2.4131053 c -1.0898437,1.4882812 -2.6953125,2.25 -4.8164062,2.25 -1.1953125,0 -2.1210938,-0.2695313 -2.8125,-0.796875 C 0.79719181,3.3388865 0.50422306,2.4951365 0.65656681,1.3584178 H 2.5432856 c -0.023437,0.5039062 0.082031,0.890625 0.2929687,1.1601562 0.3164063,0.3984375 0.9492188,0.609375 1.828125,0.609375 1.4296875,0 2.4492188,-0.5039062 3.1054688,-1.4882812 0.375,-0.5859375 0.7148437,-1.64062505 1.0078125,-3.1523438 -0.4804688,0.55078125 -1.0078125,0.9609375 -1.5703125,1.2421875 -0.5976563,0.26953125 -1.3007813,0.421875 -2.1679688,0.421875 -1.171875,0 -2.1445312,-0.421875 -2.859375,-1.265625 -0.7148437,-0.8554687 -0.8554687,-2.25 -0.4335937,-4.1953125 0.3984375,-1.828125 1.1367187,-3.28125 2.2617187,-4.3125 1.1132813,-1.03125 2.3085938,-1.546875 3.5742188,-1.546875 0.8554687,0 1.5703125,0.210938 2.1210937,0.644531 z m -2.1210937,0.9843753 c -1.3007813,0 -2.3085938,0.609375 -3.046875,1.828125 -0.3984375,0.65625 -0.7148438,1.5 -0.9257813,2.5429687 -0.2695312,1.2421875 -0.2109375,2.1914063 0.1523438,2.8359375 0.3515625,0.65625 0.9609375,0.9726563 1.828125,0.9726563 1.3242187,0 2.3671875,-0.5976563 3.1640625,-1.7929688 0.4453125,-0.6914062 0.7617187,-1.4648437 0.9492187,-2.3671875 0.2929688,-1.3710937 0.234375,-2.3789062 -0.1875,-3.0234375 -0.421875,-0.65625 -1.078125,-0.9960937 -1.9335937,-0.9960937 z m 0,0"
       style="fill:#000000;fill-opacity:1;fill-rule:nonzero;stroke:none"
       aria-label="g"
       transform="matrix(1.3333333,0,0,1.3333333,896.83942,102.8919)" />
    <path
       id="path100"
       d="m 657.184,71.215 c 0,0.976 -0.387,1.914 -1.079,2.605 -0.691,0.692 -1.628,1.082 -2.605,1.082 -0.98,0 -1.918,-0.39 -2.609,-1.082 -0.692,-0.691 -1.079,-1.629 -1.079,-2.605 0,-0.977 0.387,-1.914 1.079,-2.606 0.691,-0.691 1.629,-1.082 2.609,-1.082 0.977,0 1.914,0.391 2.605,1.082 0.692,0.692 1.079,1.629 1.079,2.606 z"
       style="fill:#000000;fill-opacity:1;fill-rule:evenodd;stroke:none"
       transform="scale(1.3333333)" />
    <path
       id="path101"
       d="m 623.672,71.215 c 0,0.976 -0.387,1.914 -1.078,2.605 -0.692,0.692 -1.629,1.082 -2.61,1.082 -0.976,0 -1.914,-0.39 -2.605,-1.082 -0.691,-0.691 -1.078,-1.629 -1.078,-2.605 0,-0.977 0.387,-1.914 1.078,-2.606 0.691,-0.691 1.629,-1.082 2.605,-1.082 0.981,0 1.918,0.391 2.61,1.082 0.691,0.692 1.078,1.629 1.078,2.606 z"
       style="fill:#000000;fill-opacity:1;fill-rule:evenodd;stroke:none"
       transform="scale(1.3333333)" />
    <path
       id="path102"
       d="m 606.914,100.539 c 0,0.977 -0.387,1.914 -1.078,2.606 -0.691,0.691 -1.629,1.078 -2.606,1.078 -0.98,0 -1.918,-0.387 -2.609,-1.078 -0.691,-0.692 -1.078,-1.629 -1.078,-2.606 0,-0.98 0.387,-1.918 1.078,-2.609 0.691,-0.692 1.629,-1.078 2.609,-1.078 0.977,0 1.915,0.386 2.606,1.078 0.691,0.691 1.078,1.629 1.078,2.609 z"
       style="fill:#000000;fill-opacity:1;fill-rule:evenodd;stroke:none"
       transform="scale(1.3333333)" />
    <path
       id="path103"
       d="m 673.941,100.539 c 0,0.977 -0.39,1.914 -1.082,2.606 -0.691,0.691 -1.629,1.078 -2.605,1.078 -0.977,0 -1.914,-0.387 -2.606,-1.078 -0.691,-0.692 -1.082,-1.629 -1.082,-2.606 0,-0.98 0.391,-1.918 1.082,-2.609 0.692,-0.692 1.629,-1.078 2.606,-1.078 0.976,0 1.914,0.386 2.605,1.078 0.692,0.691 1.082,1.629 1.082,2.609 z"
       style="fill:#000000;fill-opacity:1;fill-rule:evenodd;stroke:none"
       transform="scale(1.3333333)" />
  </g>
</svg>
