<?xml version="1.0" encoding="UTF-8" standalone="no"?>
<!-- Created with Inkscape (http://www.inkscape.org/) -->

<svg
   version="1.1"
   id="svg1"
   width="984"
   height="246.66667"
   viewBox="0 0 984 246.66667"
   sodipodi:docname="07bb7u7mnbgfv.pdf"
   xmlns:inkscape="http://www.inkscape.org/namespaces/inkscape"
   xmlns:sodipodi="http://sodipodi.sourceforge.net/DTD/sodipodi-0.dtd"
   xmlns="http://www.w3.org/2000/svg"
   xmlns:svg="http://www.w3.org/2000/svg">
  <defs
     id="defs1" />
  <sodipodi:namedview
     id="namedview1"
     pagecolor="#ffffff"
     bordercolor="#999999"
     borderopacity="1"
     inkscape:showpageshadow="0"
     inkscape:pageopacity="0"
     inkscape:pagecheckerboard="0"
     inkscape:deskcolor="#d1d1d1">
    <inkscape:page
       x="0"
       y="0"
       id="page1"
       width="984"
       height="246.66667"
       margin="0"
       bleed="0" />
  </sodipodi:namedview>
  <g
     id="g1"
     inkscape:groupmode="layer"
     inkscape:label="">
    <path
       id="path1"
       d="M 0,100.539 H 25.133"
       style="fill:none;stroke:#000000;stroke-width:0.9216;stroke-linecap:butt;stroke-linejoin:miter;stroke-miterlimit:3.25;stroke-dasharray:0.9216, 5.5296;stroke-dashoffset:0;stroke-opacity:1"
       transform="scale(1.3333333)" />
    <path
       id="path2"
       d="M 17.594,100.539 7.539,103.891 V 97.188 Z"
       style="fill:#000000;fill-opacity:1;fill-rule:evenodd;stroke:none"
       transform="scale(1.3333333)" />
    <path
       id="path3"
       d="m 5.5189772,-10.956038 -1.546875,7.2773436 c -0.1289062,0.5507812 -0.1289062,1.0078125 -0.023437,1.3710937 0.1875,0.6445313 0.7148438,0.984375 1.6171875,0.984375 1.2773438,0 2.2851563,-0.5625 3,-1.7226562 0.375,-0.609375 0.6679688,-1.4648438 0.9023438,-2.5429688 l 1.1601565,-5.3671873 h 1.839844 L 10.147883,9.930625e-4 H 8.4017897 L 8.7533522,-1.6161944 c -0.328125,0.421875 -0.6914062,0.77343746 -1.1132812,1.06640621 -0.8320313,0.57421875 -1.734375,0.8671875 -2.7421875,0.8671875 -1.5820313,0 -2.53125,-0.52734375 -2.859375,-1.58203121 -0.1875,-0.5625 -0.1875,-1.3007813 0,-2.2382813 l 1.59375,-7.4531248 z m 0,0"
       style="fill:#000000;fill-opacity:1;fill-rule:nonzero;stroke:none"
       aria-label="u"
       transform="matrix(1.3333333,0,0,1.3333333,2.7507387,112.51039)" />
    <path
       id="path4"
       d="m 6.9252273,-7.5107258 c 0.234375,0.1640625 0.421875,0.421875 0.609375,0.7265625 l 0.2226562,-0.984375 H 8.9642898 L 7.452571,-0.63181956 C 7.2416335,0.36427419 6.9252273,1.1611492 6.515071,1.7236492 5.7299148,2.7900554 4.593196,3.3291179 3.0697585,3.3291179 c -0.8554687,0 -1.5117187,-0.1875 -2.0039062,-0.5625 C 0.57366475,2.3916179 0.36272725,1.7822429 0.468196,0.97364919 H 1.8158523 C 1.8041335,1.3369304 1.874446,1.6064617 2.0267898,1.8056804 c 0.2226562,0.28125 0.6679687,0.4335938 1.3007812,0.4335938 1.0195313,0 1.7578125,-0.3632813 2.2265625,-1.0664063 0.2695313,-0.42187496 0.5039063,-1.1718749625 0.7148438,-2.25 -0.3398438,0.38671879 -0.7148438,0.69140629 -1.125,0.87890629 -0.421875,0.1992187475 -0.9257813,0.3046875 -1.546875,0.3046875 -0.8320313,0 -1.5234375,-0.3046875 -2.0390625,-0.90234375 C 1.0541335,-1.4052571 0.94866475,-2.4013508 1.2416335,-3.7958821 c 0.2929688,-1.3007812 0.8085938,-2.34375 1.6171875,-3.0703125 0.796875,-0.7382812 1.6523438,-1.1132812 2.5546875,-1.1132812 0.6210938,0 1.125,0.1523437 1.5117188,0.46875 z m -1.5117188,0.703125 c -0.9257812,0 -1.6523437,0.4335937 -2.1796875,1.3007812 -0.28125,0.46875 -0.5039062,1.0664063 -0.65625,1.8164063 -0.1875,0.890625 -0.1523437,1.5585937 0.1054688,2.0273437 0.2578125,0.46875 0.6914062,0.69140629 1.3007812,0.69140629 0.9492188,0 1.6992188,-0.42187499 2.2734375,-1.27734379 0.3164063,-0.4921875 0.5390625,-1.0546875 0.6679688,-1.6992187 0.2109375,-0.9726563 0.1640625,-1.6875 -0.1289063,-2.15625 -0.3046875,-0.46875 -0.7617187,-0.703125 -1.3828125,-0.703125 z m 0,0"
       style="fill:#000000;fill-opacity:1;fill-rule:nonzero;stroke:none"
       aria-label="g"
       transform="matrix(1.3333333,0,0,1.3333333,18.313239,117.73696)" />
    <path
       id="path5"
       d="M 167.562,100.539 H 142.43"
       style="fill:none;stroke:#000000;stroke-width:0.9216;stroke-linecap:butt;stroke-linejoin:miter;stroke-miterlimit:3.25;stroke-dasharray:0.9216, 5.5296;stroke-dashoffset:0;stroke-opacity:1"
       transform="scale(1.3333333)" />
    <path
       id="path6"
       d="m 160.023,100.539 -10.054,-3.351 v 6.703 z"
       style="fill:#000000;fill-opacity:1;fill-rule:evenodd;stroke:none"
       transform="scale(1.3333333)" />
    <path
       id="path7"
       d="m 5.5195737,-10.958216 -1.546875,7.2773439 c -0.1289062,0.5507813 -0.1289062,1.0078125 -0.023437,1.3710938 0.1875,0.6445312 0.7148438,0.984375 1.6171875,0.984375 1.2773438,0 2.2851563,-0.5625 3,-1.7226563 0.375,-0.609375 0.6679688,-1.4648437 0.9023438,-2.5429687 l 1.160156,-5.3671877 h 1.839843 L 10.14848,-0.00118456 H 8.4023862 L 8.7539487,-1.6183721 c -0.328125,0.421875 -0.6914062,0.77343754 -1.1132812,1.06640629 -0.8320313,0.57421875 -1.734375,0.8671875 -2.7421875,0.8671875 -1.5820313,0 -2.53125,-0.52734375 -2.859375,-1.58203129 -0.1875,-0.5625 -0.1875,-1.3007812 0,-2.2382812 l 1.59375,-7.4531252 z m 0,0"
       style="fill:#000000;fill-opacity:1;fill-rule:nonzero;stroke:none"
       aria-label="u"
       transform="matrix(1.3333333,0,0,1.3333333,192.65619,160.58361)" />
    <path
       id="path8"
       d="m 6.9258238,-7.5129034 c 0.234375,0.1640625 0.421875,0.421875 0.609375,0.7265625 L 7.757855,-7.7707159 H 8.9648863 L 7.4531675,-0.63399719 C 7.24223,0.36209656 6.9258238,1.1589716 6.5156675,1.7214716 5.7305113,2.7878778 4.5937925,3.3269403 3.070355,3.3269403 c -0.8554687,0 -1.5117187,-0.1875 -2.0039062,-0.5625 -0.49218755,-0.375 -0.70312505,-0.984375 -0.5976563,-1.79296874 H 1.8164488 C 1.80473,1.3347528 1.8750425,1.6042841 2.0273863,1.8035028 c 0.2226562,0.28125 0.6679687,0.4335938 1.3007812,0.4335938 1.0195313,0 1.7578125,-0.3632813 2.2265625,-1.0664063 0.2695313,-0.42187499 0.5039063,-1.17187499 0.7148438,-2.25 -0.3398438,0.38671876 -0.7148438,0.69140626 -1.125,0.87890626 -0.421875,0.19921875 -0.9257813,0.3046875 -1.546875,0.3046875 -0.8320313,0 -1.5234375,-0.3046875 -2.0390625,-0.90234375 C 1.05473,-1.4074347 0.94926125,-2.4035284 1.24223,-3.7980597 c 0.2929688,-1.3007812 0.8085938,-2.34375 1.6171875,-3.0703125 0.796875,-0.7382812 1.6523438,-1.1132812 2.5546875,-1.1132812 0.6210938,0 1.125,0.1523437 1.5117188,0.46875 z m -1.5117188,0.703125 c -0.9257812,0 -1.6523437,0.4335937 -2.1796875,1.3007812 -0.28125,0.46875 -0.5039062,1.0664063 -0.65625,1.8164063 -0.1875,0.890625 -0.1523437,1.5585937 0.1054688,2.0273437 0.2578125,0.46875 0.6914062,0.69140626 1.3007812,0.69140626 0.9492188,0 1.6992188,-0.42187496 2.2734375,-1.27734376 0.3164063,-0.4921875 0.5390625,-1.0546875 0.6679688,-1.6992187 0.2109375,-0.9726563 0.1640625,-1.6875 -0.1289063,-2.15625 -0.3046875,-0.46875 -0.7617187,-0.703125 -1.3828125,-0.703125 z m 0,0"
       style="fill:#000000;fill-opacity:1;fill-rule:nonzero;stroke:none"
       aria-label="g"
       transform="matrix(1.3333333,0,0,1.3333333,208.21869,165.81017)" />
    <path
       id="path9"
       d="M 100.539,100.539 H 67.027"
       style="fill:none;stroke:#000000;stroke-width:0.9216;stroke-linecap:butt;stroke-linejoin:miter;stroke-miterlimit:3.25;stroke-dasharray:0.9216, 5.5296;stroke-dashoffset:0;stroke-opacity:1"
       transform="scale(1.3333333)" />
    <path
       id="path10"
       d="M 88.809,100.539 78.754,97.188 v 6.703 z"
       style="fill:#000000;fill-opacity:1;fill-rule:evenodd;stroke:none"
       transform="scale(1.3333333)" />
    <path
       id="path11"
       d="m 5.519276,-10.958216 -1.546875,7.2773439 c -0.1289063,0.5507813 -0.1289063,1.0078125 -0.023437,1.3710938 0.1875,0.6445312 0.7148437,0.984375 1.6171875,0.984375 1.2773437,0 2.2851562,-0.5625 3,-1.7226563 0.375,-0.609375 0.6679687,-1.4648437 0.9023437,-2.5429687 l 1.1601568,-5.3671877 h 1.839844 L 10.148182,-0.00118456 H 8.4020885 L 8.753651,-1.6183721 c -0.328125,0.421875 -0.6914063,0.77343754 -1.1132813,1.06640629 -0.8320312,0.57421875 -1.734375,0.8671875 -2.7421875,0.8671875 -1.5820312,0 -2.53125,-0.52734375 -2.859375,-1.58203129 -0.1875,-0.5625 -0.1875,-1.3007812 0,-2.2382812 l 1.59375,-7.4531252 z m 0,0"
       style="fill:#000000;fill-opacity:1;fill-rule:nonzero;stroke:none"
       aria-label="u"
       transform="matrix(1.3333333,0,0,1.3333333,97.703465,160.58361)" />
    <path
       id="path12"
       d="m 6.925526,-7.5129034 c 0.234375,0.1640625 0.421875,0.421875 0.609375,0.7265625 l 0.2226562,-0.984375 H 8.9645885 L 7.4528697,-0.63399719 C 7.2419322,0.36209656 6.925526,1.1589716 6.5153697,1.7214716 5.7302135,2.7878778 4.5934947,3.3269403 3.0700572,3.3269403 c -0.8554687,0 -1.5117187,-0.1875 -2.0039062,-0.5625 -0.4921875,-0.375 -0.703125,-0.984375 -0.59765625,-1.79296874 H 1.816151 C 1.804432,1.3347528 1.874745,1.6042841 2.0270885,1.8035028 c 0.2226562,0.28125 0.6679687,0.4335938 1.3007812,0.4335938 1.0195313,0 1.7578125,-0.3632813 2.2265625,-1.0664063 0.2695313,-0.42187499 0.5039063,-1.17187499 0.7148438,-2.25 -0.3398438,0.38671876 -0.7148438,0.69140626 -1.125,0.87890626 -0.421875,0.19921875 -0.9257813,0.3046875 -1.546875,0.3046875 -0.8320313,0 -1.5234375,-0.3046875 -2.0390625,-0.90234375 C 1.0544322,-1.4074347 0.9489635,-2.4035284 1.2419322,-3.7980597 c 0.2929688,-1.3007812 0.8085938,-2.34375 1.6171875,-3.0703125 0.796875,-0.7382812 1.6523438,-1.1132812 2.5546875,-1.1132812 0.6210938,0 1.125,0.1523437 1.5117188,0.46875 z m -1.5117188,0.703125 c -0.9257812,0 -1.6523437,0.4335937 -2.1796875,1.3007812 -0.28125,0.46875 -0.5039062,1.0664063 -0.65625,1.8164063 -0.1875,0.890625 -0.1523437,1.5585937 0.1054688,2.0273437 0.2578125,0.46875 0.6914062,0.69140626 1.3007812,0.69140626 0.9492188,0 1.6992188,-0.42187496 2.2734375,-1.27734376 0.3164063,-0.4921875 0.5390625,-1.0546875 0.6679688,-1.6992187 0.2109375,-0.9726563 0.1640625,-1.6875 -0.1289063,-2.15625 -0.3046875,-0.46875 -0.7617187,-0.703125 -1.3828125,-0.703125 z m 0,0"
       style="fill:#000000;fill-opacity:1;fill-rule:nonzero;stroke:none"
       aria-label="g"
       transform="matrix(1.3333333,0,0,1.3333333,113.26597,165.81017)" />
    <path
       id="path13"
       d="m 142.43,100.539 c 0,-5.555 -2.207,-10.883 -6.137,-14.812 -3.926,-3.926 -9.254,-6.133 -14.809,-6.133 -5.554,0 -10.882,2.207 -14.812,6.133 -3.926,3.929 -6.133,9.257 -6.133,14.812"
       style="fill:none;stroke:#000000;stroke-width:0.9216;stroke-linecap:butt;stroke-linejoin:miter;stroke-miterlimit:3.25;stroke-dasharray:0.9216, 5.5296;stroke-dashoffset:0;stroke-opacity:1"
       transform="scale(1.3333333)" />
    <path
       id="path14"
       d="m 126.512,79.594 -10.055,-3.352 v 6.703 z"
       style="fill:#000000;fill-opacity:1;fill-rule:evenodd;stroke:none"
       transform="scale(1.3333333)" />
    <path
       id="path15"
       d="m 5.5196054,-10.95785 -1.546875,7.2773439 c -0.1289062,0.5507813 -0.1289062,1.0078125 -0.023437,1.3710938 0.1875,0.6445312 0.7148438,0.984375 1.6171875,0.984375 1.2773438,0 2.2851563,-0.5625 3,-1.7226563 0.375,-0.609375 0.6679688,-1.4648437 0.9023438,-2.5429687 L 10.62898,-10.95785 h 1.839844 L 10.148512,-8.185625e-4 H 8.4024179 L 8.7539804,-1.6180061 c -0.328125,0.421875 -0.6914062,0.77343754 -1.1132812,1.06640629 -0.8320313,0.57421875 -1.734375,0.8671875 -2.7421875,0.8671875 -1.5820313,0 -2.53125,-0.52734375 -2.859375,-1.58203129 -0.1875,-0.5625 -0.1875,-1.3007812 0,-2.2382812 l 1.59375,-7.4531252 z m 0,0"
       style="fill:#000000;fill-opacity:1;fill-rule:nonzero;stroke:none"
       aria-label="u"
       transform="matrix(1.3333333,0,0,1.3333333,147.97256,84.583123)" />
    <path
       id="path16"
       d="m 6.9258554,-7.5125374 c 0.234375,0.1640625 0.421875,0.421875 0.609375,0.7265625 l 0.2226563,-0.984375 H 8.9649179 L 7.4531992,-0.63363119 C 7.2422617,0.36246256 6.9258554,1.1593376 6.5156992,1.7218376 5.7305429,2.7882438 4.5938242,3.3273063 3.0703867,3.3273063 c -0.8554688,0 -1.5117188,-0.1875 -2.0039063,-0.5625 -0.49218746,-0.375 -0.70312496,-0.984375 -0.59765621,-1.79296874 H 1.8164804 c -0.011719,0.36328124 0.058594,0.63281254 0.2109375,0.83203124 0.2226563,0.28125 0.6679688,0.4335938 1.3007813,0.4335938 1.0195312,0 1.7578125,-0.3632813 2.2265625,-1.0664063 0.2695312,-0.42187499 0.5039062,-1.1718749875 0.7148437,-2.25 -0.3398437,0.38671876 -0.7148437,0.69140626 -1.125,0.87890626 -0.421875,0.1992187525 -0.9257812,0.3046875 -1.546875,0.3046875 -0.8320312,0 -1.5234375,-0.3046875 -2.0390625,-0.90234375 C 1.0547617,-1.4070687 0.94929294,-2.4031624 1.2422617,-3.7976937 c 0.2929687,-1.3007812 0.8085937,-2.34375 1.6171875,-3.0703125 0.796875,-0.7382812 1.6523437,-1.1132812 2.5546875,-1.1132812 0.6210937,0 1.125,0.1523437 1.5117187,0.46875 z m -1.5117187,0.703125 c -0.9257813,0 -1.6523438,0.4335937 -2.1796875,1.3007812 -0.28125,0.46875 -0.5039063,1.0664063 -0.65625,1.8164063 -0.1875,0.890625 -0.1523438,1.5585937 0.1054687,2.0273437 0.2578125,0.46875 0.6914063,0.69140626 1.3007813,0.69140626 0.9492187,0 1.6992187,-0.42187496 2.2734375,-1.27734376 0.3164062,-0.4921875 0.5390625,-1.0546875 0.6679687,-1.6992187 0.2109375,-0.9726563 0.1640625,-1.6875 -0.1289062,-2.15625 -0.3046875,-0.46875 -0.7617188,-0.703125 -1.3828125,-0.703125 z m 0,0"
       style="fill:#000000;fill-opacity:1;fill-rule:nonzero;stroke:none"
       aria-label="g"
       transform="matrix(1.3333333,0,0,1.3333333,163.53506,89.809685)" />
    <path
       id="path17"
       d="m 142.43,100.539 0.769,1.004 0.543,1.199 0.266,1.328 -0.039,1.379 -0.344,1.352 -0.633,1.226 -0.867,1.035 -1.051,0.79 -1.156,0.511 -1.195,0.231 -1.176,-0.028 -1.106,-0.238 -0.996,-0.406 -0.863,-0.516 -0.711,-0.562 -0.543,-0.563 -0.367,-0.523 -0.18,-0.453 0.008,-0.36 0.199,-0.254 0.383,-0.148 0.555,-0.027 0.699,0.093 0.813,0.231 0.874,0.375 0.887,0.539 0.84,0.715 0.727,0.894 0.55,1.063 0.325,1.195 0.043,1.285 -0.258,1.305 -0.559,1.246 -0.836,1.109 -1.058,0.903 -1.219,0.633 -1.293,0.332 -1.293,0.031 -1.223,-0.25 -1.093,-0.496 -0.938,-0.68 -0.762,-0.812 -0.586,-0.872 -0.421,-0.871 -0.27,-0.816 -0.133,-0.719 -0.004,-0.578 0.121,-0.418 0.231,-0.234 0.344,-0.047 0.441,0.144 0.52,0.325 0.57,0.504 0.582,0.667 0.543,0.829 0.449,0.968 0.297,1.082 0.09,1.168 -0.164,1.2 -0.438,1.179 -0.719,1.086 -0.98,0.922 -1.187,0.699 -1.325,0.422 -1.383,0.121 -1.343,-0.187 -1.235,-0.473 -1.054,-0.715 -0.84,-0.898 -0.602,-1.024 -0.379,-1.078 -0.172,-1.074 -0.003,-1.023 0.125,-0.922 0.211,-0.785 0.269,-0.618 0.301,-0.421 0.316,-0.219 h 0.321 l 0.316,0.219 0.301,0.421 0.269,0.618 0.211,0.785 0.125,0.922 -0.008,1.023 -0.171,1.074 -0.376,1.078 -0.605,1.024 -0.836,0.898 -1.055,0.715 -1.234,0.473 -1.348,0.187 -1.379,-0.121 -1.328,-0.422 -1.187,-0.699 -0.977,-0.922 -0.718,-1.086 -0.442,-1.179 -0.16,-1.2 0.09,-1.168 0.293,-1.082 0.449,-0.968 0.543,-0.829 0.582,-0.667 0.57,-0.504 0.524,-0.325 0.441,-0.144 0.34,0.047 0.234,0.234 0.118,0.418 -0.004,0.578 -0.129,0.719 -0.27,0.816 -0.422,0.871 -0.586,0.872 -0.761,0.812 -0.938,0.68 -1.097,0.496 -1.219,0.25 -1.293,-0.031 -1.293,-0.332 -1.219,-0.633 -1.062,-0.903 -0.832,-1.109 -0.559,-1.246 -0.258,-1.305 0.043,-1.285 0.32,-1.195 0.555,-1.063 0.727,-0.894 0.84,-0.715 0.886,-0.539 0.875,-0.375 0.809,-0.231 0.703,-0.093 0.551,0.027 0.386,0.148 0.2,0.254 0.008,0.36 -0.184,0.453 -0.367,0.523 -0.543,0.563 -0.707,0.562 -0.864,0.516 -0.996,0.406 -1.105,0.238 -1.176,0.028 -1.199,-0.231 -1.156,-0.511 -1.047,-0.79 -0.871,-1.035 -0.629,-1.226 -0.344,-1.352 -0.039,-1.379 0.266,-1.328 0.539,-1.199 0.773,-1.004"
       style="fill:none;stroke:#000000;stroke-width:0.9216;stroke-linecap:square;stroke-linejoin:miter;stroke-miterlimit:3.25;stroke-dasharray:none;stroke-opacity:1"
       transform="scale(1.3333333)" />
    <path
       id="path18"
       d="m 9.7019109,-10.523788 c 0.3164061,0.234375 0.5859371,0.5859378 0.8437501,1.0312503 l 0.304687,-1.3828123 h 1.710938 l -2.121094,9.9960935 C 10.147223,0.503556 9.7019109,1.6168373 9.1159734,2.4137123 c -1.0898438,1.4882812 -2.6953125,2.25 -4.8164063,2.25 -1.1953125,0 -2.1210937,-0.2695313 -2.8125,-0.796875 C 0.79566088,3.3394935 0.50269213,2.4957435 0.65503588,1.3590248 H 2.5417546 c -0.023437,0.5039062 0.082031,0.890625 0.2929688,1.1601562 0.3164062,0.3984375 0.9492187,0.609375 1.828125,0.609375 1.4296875,0 2.4492187,-0.5039062 3.1054687,-1.4882812 0.375,-0.5859375 0.7148438,-1.64062505 1.0078125,-3.1523438 -0.4804687,0.55078125 -1.0078125,0.9609375 -1.5703125,1.2421875 -0.5976562,0.26953125 -1.3007812,0.421875 -2.1679687,0.421875 -1.171875,0 -2.1445313,-0.421875 -2.859375,-1.265625 -0.7148438,-0.8554687 -0.8554688,-2.25 -0.4335938,-4.1953125 0.3984375,-1.828125 1.1367188,-3.28125 2.2617188,-4.3125 1.1132812,-1.03125 2.3085937,-1.546875 3.5742187,-1.546875 0.8554688,0 1.5703125,0.210938 2.1210938,0.644531 z m -2.1210938,0.9843753 c -1.3007812,0 -2.3085937,0.609375 -3.046875,1.828125 -0.3984375,0.65625 -0.7148437,1.5 -0.9257812,2.5429687 -0.2695313,1.2421875 -0.2109375,2.1914063 0.1523437,2.8359375 0.3515625,0.65625 0.9609375,0.9726563 1.828125,0.9726563 1.3242188,0 2.3671875,-0.5976563 3.1640625,-1.7929688 0.4453125,-0.6914062 0.7617188,-1.4648437 0.9492188,-2.3671875 0.2929687,-1.3710937 0.234375,-2.3789062 -0.1875,-3.0234375 -0.421875,-0.65625 -1.078125,-0.9960937 -1.9335938,-0.9960937 z m 0,0"
       style="fill:#000000;fill-opacity:1;fill-rule:nonzero;stroke:none"
       aria-label="g"
       transform="matrix(1.3333333,0,0,1.3333333,153.60318,199.14109)" />
    <path
       id="path19"
       d="m 25.133,100.539 c 0,5.555 2.207,10.883 6.137,14.809 3.929,3.929 9.253,6.136 14.808,6.136 5.559,0 10.883,-2.207 14.813,-6.136 3.929,-3.926 6.136,-9.254 6.136,-14.809"
       style="fill:none;stroke:#000000;stroke-width:0.9216;stroke-linecap:butt;stroke-linejoin:miter;stroke-miterlimit:3.25;stroke-dasharray:0.9216, 5.5296;stroke-dashoffset:0;stroke-opacity:1"
       transform="scale(1.3333333)" />
    <path
       id="path20"
       d="m 51.105,121.484 -10.05,3.352 v -6.703 z"
       style="fill:#000000;fill-opacity:1;fill-rule:evenodd;stroke:none"
       transform="scale(1.3333333)" />
    <path
       id="path21"
       d="m 5.5189456,-10.956405 -1.546875,7.2773436 c -0.1289063,0.5507812 -0.1289063,1.0078125 -0.023437,1.3710937 0.1875,0.6445313 0.7148437,0.984375 1.6171875,0.984375 1.2773437,0 2.2851562,-0.5625 3,-1.7226562 0.375,-0.609375 0.6679687,-1.4648438 0.9023437,-2.5429688 l 1.1601572,-5.3671873 h 1.839843 L 10.147852,6.260625e-4 H 8.4017581 L 8.7533206,-1.6165614 c -0.328125,0.421875 -0.6914063,0.77343746 -1.1132813,1.06640621 -0.8320312,0.57421875 -1.734375,0.8671875 -2.7421875,0.8671875 -1.5820312,0 -2.53125,-0.52734375 -2.859375,-1.58203121 -0.1875,-0.5625 -0.1875,-1.3007813 0,-2.2382813 l 1.59375,-7.4531248 z m 0,0"
       style="fill:#000000;fill-opacity:1;fill-rule:nonzero;stroke:none"
       aria-label="u"
       transform="matrix(1.3333333,0,0,1.3333333,47.434375,188.51088)" />
    <path
       id="path22"
       d="m 6.9251956,-7.5110918 c 0.234375,0.1640625 0.421875,0.421875 0.609375,0.7265625 l 0.2226562,-0.984375 H 8.9642581 L 7.4525393,-0.63218556 C 7.2416018,0.36390819 6.9251956,1.1607832 6.5150393,1.7232832 5.7298831,2.7896894 4.5931643,3.3287519 3.0697268,3.3287519 c -0.8554687,0 -1.5117187,-0.1875 -2.0039062,-0.5625 -0.49218754,-0.375 -0.70312504,-0.984375 -0.59765629,-1.79296871 H 1.8158206 c -0.011719,0.36328121 0.058594,0.63281251 0.2109375,0.83203121 0.2226562,0.28125 0.6679687,0.4335938 1.3007812,0.4335938 1.0195313,0 1.7578125,-0.3632813 2.2265625,-1.0664063 0.2695313,-0.42187496 0.5039063,-1.1718749625 0.7148438,-2.25 -0.3398438,0.38671879 -0.7148438,0.69140629 -1.125,0.87890629 -0.421875,0.1992187475 -0.9257813,0.3046875 -1.546875,0.3046875 -0.8320313,0 -1.5234375,-0.3046875 -2.0390625,-0.90234375 C 1.0541018,-1.4056231 0.94863306,-2.4017168 1.2416018,-3.7962481 c 0.2929688,-1.3007812 0.8085938,-2.34375 1.6171875,-3.0703125 0.796875,-0.7382812 1.6523438,-1.1132812 2.5546875,-1.1132812 0.6210938,0 1.125,0.1523437 1.5117188,0.46875 z m -1.5117188,0.703125 c -0.9257812,0 -1.6523437,0.4335937 -2.1796875,1.3007812 -0.28125,0.46875 -0.5039062,1.0664063 -0.65625,1.8164063 -0.1875,0.890625 -0.1523437,1.5585937 0.1054688,2.0273437 0.2578125,0.46875 0.6914062,0.69140629 1.3007812,0.69140629 0.9492188,0 1.6992188,-0.42187499 2.2734375,-1.27734379 0.3164063,-0.4921875 0.5390625,-1.0546875 0.6679688,-1.6992187 0.2109375,-0.9726563 0.1640625,-1.6875 -0.1289063,-2.15625 -0.3046875,-0.46875 -0.7617187,-0.703125 -1.3828125,-0.703125 z m 0,0"
       style="fill:#000000;fill-opacity:1;fill-rule:nonzero;stroke:none"
       aria-label="g"
       transform="matrix(1.3333333,0,0,1.3333333,62.996875,193.73745)" />
    <path
       id="path23"
       d="m 25.133,100.539 -0.77,-1.008 -0.543,-1.195 -0.261,-1.328 0.035,-1.383 0.347,-1.348 0.629,-1.23 0.871,-1.035 1.047,-0.785 1.157,-0.512 1.195,-0.231 1.176,0.024 1.105,0.242 1,0.406 0.859,0.512 0.711,0.562 0.543,0.567 0.368,0.523 0.183,0.45 -0.012,0.359 -0.199,0.258 -0.383,0.144 -0.554,0.031 -0.699,-0.097 -0.809,-0.227 -0.875,-0.375 -0.891,-0.543 -0.84,-0.715 -0.726,-0.894 -0.551,-1.059 -0.32,-1.195 -0.047,-1.285 0.258,-1.305 0.558,-1.25 0.836,-1.109 1.063,-0.899 1.215,-0.632 1.296,-0.336 1.29,-0.032 1.222,0.25 1.094,0.496 0.937,0.684 0.762,0.809 0.59,0.871 0.422,0.871 0.269,0.82 0.129,0.719 0.004,0.578 -0.117,0.414 -0.234,0.234 -0.344,0.047 -0.441,-0.14 -0.52,-0.324 -0.57,-0.504 -0.582,-0.672 -0.543,-0.828 -0.45,-0.965 -0.296,-1.086 -0.086,-1.164 0.16,-1.203 0.437,-1.176 0.723,-1.086 0.977,-0.926 1.187,-0.699 1.328,-0.422 1.379,-0.117 1.348,0.187 1.23,0.473 1.059,0.715 0.836,0.898 0.605,1.02 0.375,1.078 0.172,1.078 0.004,1.02 -0.121,0.921 -0.215,0.786 -0.266,0.617 -0.3,0.426 -0.317,0.214 h -0.324 l -0.316,-0.214 -0.301,-0.426 -0.266,-0.617 -0.215,-0.786 -0.121,-0.921 0.004,-1.02 0.172,-1.078 0.375,-1.078 0.605,-1.02 0.836,-0.898 1.059,-0.715 1.23,-0.473 1.348,-0.187 1.379,0.117 1.328,0.422 1.188,0.699 0.976,0.926 0.723,1.086 0.437,1.176 0.161,1.203 -0.086,1.164 -0.297,1.086 -0.449,0.965 -0.543,0.828 -0.583,0.672 -0.57,0.504 -0.519,0.324 -0.442,0.14 -0.343,-0.047 -0.235,-0.234 -0.117,-0.414 0.004,-0.578 0.129,-0.719 0.269,-0.82 0.422,-0.871 0.586,-0.871 0.766,-0.809 0.933,-0.684 1.098,-0.496 1.223,-0.25 1.289,0.032 1.297,0.336 1.214,0.632 1.063,0.899 0.836,1.109 0.558,1.25 0.258,1.305 -0.047,1.285 -0.32,1.195 -0.551,1.059 -0.73,0.894 -0.836,0.715 -0.891,0.543 -0.875,0.375 -0.808,0.227 -0.7,0.097 -0.554,-0.031 -0.383,-0.144 -0.199,-0.258 -0.012,-0.359 0.184,-0.45 0.367,-0.523 0.543,-0.567 0.711,-0.562 0.859,-0.512 1,-0.406 1.106,-0.242 1.175,-0.024 1.196,0.231 1.156,0.512 1.047,0.785 0.871,1.035 0.629,1.23 0.347,1.348 0.036,1.383 -0.266,1.328 -0.539,1.195 -0.77,1.008"
       style="fill:none;stroke:#000000;stroke-width:0.9216;stroke-linecap:square;stroke-linejoin:miter;stroke-miterlimit:3.25;stroke-dasharray:none;stroke-opacity:1"
       transform="scale(1.3333333)" />
    <path
       id="path24"
       d="m 9.7041797,-10.522303 c 0.3164063,0.234375 0.5859373,0.5859377 0.8437503,1.0312502 l 0.304687,-1.3828122 h 1.710938 l -2.121094,9.99609344 C 10.149492,0.50504094 9.7041797,1.6183222 9.1182422,2.4151972 c -1.0898438,1.4882812 -2.6953125,2.25 -4.8164063,2.25 -1.1953125,0 -2.1210937,-0.2695313 -2.8125,-0.796875 C 0.79792969,3.3409784 0.50496094,2.4972284 0.65730469,1.3605097 H 2.5440234 c -0.023437,0.5039062 0.082031,0.890625 0.2929688,1.1601562 0.3164062,0.3984375 0.9492187,0.609375 1.828125,0.609375 1.4296875,0 2.4492187,-0.5039062 3.1054687,-1.4882812 0.375,-0.5859375 0.7148438,-1.64062501 1.0078125,-3.1523438 -0.4804687,0.55078129 -1.0078125,0.96093754 -1.5703125,1.24218754 -0.5976562,0.26953125 -1.3007812,0.421875 -2.1679687,0.421875 -1.171875,0 -2.1445313,-0.421875 -2.859375,-1.26562504 -0.7148438,-0.8554687 -0.8554688,-2.25 -0.4335938,-4.1953125 0.3984375,-1.828125 1.1367188,-3.28125 2.2617188,-4.3125 1.1132812,-1.0312499 2.3085937,-1.5468749 3.5742187,-1.5468749 0.8554688,0 1.5703125,0.210937 2.1210938,0.644531 z m -2.1210938,0.9843752 c -1.3007812,0 -2.3085937,0.609375 -3.046875,1.828125 -0.3984375,0.65625 -0.7148437,1.5 -0.9257812,2.5429687 -0.2695313,1.2421875 -0.2109375,2.1914063 0.1523437,2.8359375 0.3515625,0.65625 0.9609375,0.9726563 1.828125,0.9726563 1.3242188,0 2.3671875,-0.5976563 3.1640625,-1.7929688 0.4453125,-0.6914062 0.7617188,-1.4648437 0.9492188,-2.3671875 0.2929687,-1.3710937 0.234375,-2.3789062 -0.1875,-3.0234375 -0.421875,-0.65625 -1.078125,-0.9960937 -1.9335938,-0.9960937 z m 0,0"
       style="fill:#000000;fill-opacity:1;fill-rule:nonzero;stroke:none"
       aria-label="g"
       transform="matrix(1.3333333,0,0,1.3333333,53.065,89.252393)" />
    <path
       id="path25"
       d="m 104.223,100.539 c 0,0.977 -0.387,1.914 -1.078,2.606 -0.692,0.691 -1.629,1.078 -2.606,1.078 -0.98,0 -1.918,-0.387 -2.609,-1.078 -0.692,-0.692 -1.078,-1.629 -1.078,-2.606 0,-0.98 0.386,-1.918 1.078,-2.609 0.691,-0.692 1.629,-1.078 2.609,-1.078 0.977,0 1.914,0.386 2.606,1.078 0.691,0.691 1.078,1.629 1.078,2.609 z"
       style="fill:#000000;fill-opacity:1;fill-rule:evenodd;stroke:none"
       transform="scale(1.3333333)" />
    <path
       id="path26"
       d="m 70.711,100.539 c 0,0.977 -0.387,1.914 -1.078,2.606 -0.692,0.691 -1.629,1.078 -2.606,1.078 -0.98,0 -1.918,-0.387 -2.609,-1.078 -0.691,-0.692 -1.078,-1.629 -1.078,-2.606 0,-0.98 0.387,-1.918 1.078,-2.609 0.691,-0.692 1.629,-1.078 2.609,-1.078 0.977,0 1.914,0.386 2.606,1.078 0.691,0.691 1.078,1.629 1.078,2.609 z"
       style="fill:#000000;fill-opacity:1;fill-rule:evenodd;stroke:none"
       transform="scale(1.3333333)" />
    <path
       id="path27"
       d="m 28.82,100.539 c 0,0.977 -0.386,1.914 -1.078,2.606 -0.691,0.691 -1.629,1.078 -2.609,1.078 -0.977,0 -1.914,-0.387 -2.606,-1.078 -0.691,-0.692 -1.078,-1.629 -1.078,-2.606 0,-0.98 0.387,-1.918 1.078,-2.609 0.692,-0.692 1.629,-1.078 2.606,-1.078 0.98,0 1.918,0.386 2.609,1.078 0.692,0.691 1.078,1.629 1.078,2.609 z"
       style="fill:#000000;fill-opacity:1;fill-rule:evenodd;stroke:none"
       transform="scale(1.3333333)" />
    <path
       id="path28"
       d="m 146.117,100.539 c 0,0.977 -0.39,1.914 -1.082,2.606 -0.691,0.691 -1.629,1.078 -2.605,1.078 -0.977,0 -1.914,-0.387 -2.606,-1.078 -0.691,-0.692 -1.082,-1.629 -1.082,-2.606 0,-0.98 0.391,-1.918 1.082,-2.609 0.692,-0.692 1.629,-1.078 2.606,-1.078 0.976,0 1.914,0.386 2.605,1.078 0.692,0.691 1.082,1.629 1.082,2.609 z"
       style="fill:#000000;fill-opacity:1;fill-rule:evenodd;stroke:none"
       transform="scale(1.3333333)" />
  </g>
</svg>
