<?xml version="1.0" encoding="UTF-8" standalone="no"?>
<!-- Created with Inkscape (http://www.inkscape.org/) -->

<svg
   version="1.1"
   id="svg1"
   width="984"
   height="246.66667"
   viewBox="0 0 984 246.66667"
   sodipodi:docname="08o391s12dph8.pdf"
   xmlns:inkscape="http://www.inkscape.org/namespaces/inkscape"
   xmlns:sodipodi="http://sodipodi.sourceforge.net/DTD/sodipodi-0.dtd"
   xmlns="http://www.w3.org/2000/svg"
   xmlns:svg="http://www.w3.org/2000/svg">
  <defs
     id="defs1" />
  <sodipodi:namedview
     id="namedview1"
     pagecolor="#ffffff"
     bordercolor="#999999"
     borderopacity="1"
     inkscape:showpageshadow="0"
     inkscape:pageopacity="0"
     inkscape:pagecheckerboard="0"
     inkscape:deskcolor="#d1d1d1">
    <inkscape:page
       x="0"
       y="0"
       id="page1"
       width="984"
       height="246.66667"
       margin="0"
       bleed="0" />
  </sodipodi:namedview>
  <g
     id="g1"
     inkscape:groupmode="layer"
     inkscape:label="">
    <path
       id="path1"
       d="M 0,100.539 H 50.27"
       style="fill:none;stroke:#000000;stroke-width:0.9216;stroke-linecap:butt;stroke-linejoin:miter;stroke-miterlimit:3.25;stroke-dasharray:0.9216, 5.5296;stroke-dashoffset:0;stroke-opacity:1"
       transform="scale(1.3333333)" />
    <path
       id="path2"
       d="m 30.16,100.539 -10.051,3.352 v -6.703 z"
       style="fill:#000000;fill-opacity:1;fill-rule:evenodd;stroke:none"
       transform="scale(1.3333333)" />
    <path
       id="path3"
       d="m 5.5200636,-10.958216 -1.546875,7.2773439 c -0.1289062,0.5507813 -0.1289062,1.0078125 -0.023437,1.3710938 0.1875,0.6445312 0.7148438,0.984375 1.6171875,0.984375 1.2773438,0 2.2851563,-0.5625 3,-1.7226563 0.375,-0.609375 0.6679688,-1.4648437 0.9023438,-2.5429687 L 10.62944,-10.958216 h 1.839843 L 10.14897,-0.00118456 H 8.4028761 L 8.7544386,-1.6183721 c -0.328125,0.421875 -0.6914062,0.77343754 -1.1132812,1.06640629 -0.8320313,0.57421875 -1.734375,0.8671875 -2.7421875,0.8671875 -1.5820313,0 -2.53125,-0.52734375 -2.859375,-1.58203129 -0.1875,-0.5625 -0.1875,-1.3007812 0,-2.2382812 l 1.59375,-7.4531252 z m 0,0"
       style="fill:#000000;fill-opacity:1;fill-rule:nonzero;stroke:none"
       aria-label="u"
       transform="matrix(1.3333333,0,0,1.3333333,19.507103,160.58361)" />
    <path
       id="path4"
       d="m 6.9263136,-7.5129034 c 0.234375,0.1640625 0.421875,0.421875 0.609375,0.7265625 l 0.2226563,-0.984375 H 8.9653761 L 7.4536574,-0.63399719 C 7.2427199,0.36209656 6.9263136,1.1589716 6.5161574,1.7214716 5.7310011,2.7878778 4.5942824,3.3269403 3.0708449,3.3269403 c -0.8554688,0 -1.5117188,-0.1875 -2.0039063,-0.5625 -0.49218747,-0.375 -0.70312497,-0.984375 -0.59765622,-1.79296874 H 1.8169386 c -0.011719,0.36328124 0.058594,0.63281254 0.2109375,0.83203124 0.2226563,0.28125 0.6679688,0.4335938 1.3007813,0.4335938 1.0195312,0 1.7578125,-0.3632813 2.2265625,-1.0664063 0.2695312,-0.42187499 0.5039062,-1.17187499 0.7148437,-2.25 -0.3398437,0.38671876 -0.7148437,0.69140626 -1.125,0.87890626 -0.421875,0.19921875 -0.9257812,0.3046875 -1.546875,0.3046875 -0.8320312,0 -1.5234375,-0.3046875 -2.0390625,-0.90234375 C 1.0552199,-1.4074347 0.94975113,-2.4035284 1.2427199,-3.7980597 c 0.2929687,-1.3007812 0.8085937,-2.34375 1.6171875,-3.0703125 0.796875,-0.7382812 1.6523437,-1.1132812 2.5546875,-1.1132812 0.6210937,0 1.125,0.1523437 1.5117187,0.46875 z m -1.5117187,0.703125 c -0.9257813,0 -1.6523438,0.4335937 -2.1796875,1.3007812 -0.28125,0.46875 -0.5039063,1.0664063 -0.65625,1.8164063 -0.1875,0.890625 -0.1523438,1.5585937 0.1054687,2.0273437 0.2578125,0.46875 0.6914063,0.69140626 1.3007813,0.69140626 0.9492187,0 1.6992187,-0.42187496 2.2734375,-1.27734376 0.3164062,-0.4921875 0.5390625,-1.0546875 0.6679687,-1.6992187 0.2109375,-0.9726563 0.1640625,-1.6875 -0.1289062,-2.15625 -0.3046875,-0.46875 -0.7617188,-0.703125 -1.3828125,-0.703125 z m 0,0"
       style="fill:#000000;fill-opacity:1;fill-rule:nonzero;stroke:none"
       aria-label="g"
       transform="matrix(1.3333333,0,0,1.3333333,35.069603,165.81017)" />
    <path
       id="path5"
       d="M 167.562,100.539 H 117.293"
       style="fill:none;stroke:#000000;stroke-width:0.9216;stroke-linecap:butt;stroke-linejoin:miter;stroke-miterlimit:3.25;stroke-dasharray:0.9216, 5.5296;stroke-dashoffset:0;stroke-opacity:1"
       transform="scale(1.3333333)" />
    <path
       id="path6"
       d="m 147.457,100.539 -10.055,-3.351 v 6.703 z"
       style="fill:#000000;fill-opacity:1;fill-rule:evenodd;stroke:none"
       transform="scale(1.3333333)" />
    <path
       id="path7"
       d="m 5.5184874,-10.958216 -1.546875,7.2773439 c -0.1289063,0.5507813 -0.1289063,1.0078125 -0.023437,1.3710938 0.1875,0.6445312 0.7148437,0.984375 1.6171875,0.984375 1.2773437,0 2.2851562,-0.5625 3,-1.7226563 0.375,-0.609375 0.6679687,-1.4648437 0.9023437,-2.5429687 l 1.1601554,-5.3671877 h 1.839844 L 10.147394,-0.00118456 H 8.4012999 L 8.7528624,-1.6183721 c -0.328125,0.421875 -0.6914063,0.77343754 -1.1132813,1.06640629 -0.8320312,0.57421875 -1.734375,0.8671875 -2.7421875,0.8671875 -1.5820312,0 -2.53125,-0.52734375 -2.859375,-1.58203129 -0.1875,-0.5625 -0.1875,-1.3007812 0,-2.2382812 l 1.59375,-7.4531252 z m 0,0"
       style="fill:#000000;fill-opacity:1;fill-rule:nonzero;stroke:none"
       aria-label="u"
       transform="matrix(1.3333333,0,0,1.3333333,175.89983,160.58361)" />
    <path
       id="path8"
       d="m 6.9247374,-7.5129034 c 0.234375,0.1640625 0.421875,0.421875 0.609375,0.7265625 l 0.2226562,-0.984375 H 8.9637999 L 7.4520811,-0.63399719 C 7.2411436,0.36209656 6.9247374,1.1589716 6.5145811,1.7214716 5.7294249,2.7878778 4.5927061,3.3269403 3.0692686,3.3269403 c -0.8554687,0 -1.5117187,-0.1875 -2.0039062,-0.5625 -0.49218752,-0.375 -0.70312502,-0.984375 -0.59765627,-1.79296874 H 1.8153624 c -0.011719,0.36328124 0.058594,0.63281254 0.2109375,0.83203124 0.2226562,0.28125 0.6679687,0.4335938 1.3007812,0.4335938 1.0195313,0 1.7578125,-0.3632813 2.2265625,-1.0664063 0.2695313,-0.42187499 0.5039063,-1.17187499 0.7148438,-2.25 -0.3398438,0.38671876 -0.7148438,0.69140626 -1.125,0.87890626 -0.421875,0.19921875 -0.9257813,0.3046875 -1.546875,0.3046875 -0.8320313,0 -1.5234375,-0.3046875 -2.0390625,-0.90234375 C 1.0536436,-1.4074347 0.94817488,-2.4035284 1.2411436,-3.7980597 c 0.2929688,-1.3007812 0.8085938,-2.34375 1.6171875,-3.0703125 0.796875,-0.7382812 1.6523438,-1.1132812 2.5546875,-1.1132812 0.6210938,0 1.125,0.1523437 1.5117188,0.46875 z m -1.5117188,0.703125 c -0.9257812,0 -1.6523437,0.4335937 -2.1796875,1.3007812 -0.28125,0.46875 -0.5039062,1.0664063 -0.65625,1.8164063 -0.1875,0.890625 -0.1523437,1.5585937 0.1054688,2.0273437 0.2578125,0.46875 0.6914062,0.69140626 1.3007812,0.69140626 0.9492188,0 1.6992188,-0.42187496 2.2734375,-1.27734376 0.3164063,-0.4921875 0.5390625,-1.0546875 0.6679688,-1.6992187 0.2109375,-0.9726563 0.1640625,-1.6875 -0.1289063,-2.15625 -0.3046875,-0.46875 -0.7617187,-0.703125 -1.3828125,-0.703125 z m 0,0"
       style="fill:#000000;fill-opacity:1;fill-rule:nonzero;stroke:none"
       aria-label="g"
       transform="matrix(1.3333333,0,0,1.3333333,191.46233,165.81017)" />
    <path
       id="path9"
       d="m 50.27,100.539 c 0,8.887 3.531,17.41 9.816,23.695 6.285,6.286 14.809,9.817 23.695,9.817 8.891,0 17.414,-3.531 23.699,-9.817 6.286,-6.285 9.813,-14.808 9.813,-23.695"
       style="fill:none;stroke:#000000;stroke-width:0.9216;stroke-linecap:butt;stroke-linejoin:miter;stroke-miterlimit:3.25;stroke-dasharray:0.9216, 5.5296;stroke-dashoffset:0;stroke-opacity:1"
       transform="scale(1.3333333)" />
    <path
       id="path10"
       d="m 88.809,134.051 -10.055,3.351 v -6.703 z"
       style="fill:#000000;fill-opacity:1;fill-rule:evenodd;stroke:none"
       transform="scale(1.3333333)" />
    <path
       id="path11"
       d="m 5.519276,-10.958248 -1.546875,7.2773442 c -0.1289063,0.5507813 -0.1289063,1.0078125 -0.023437,1.3710938 0.1875,0.6445312 0.7148437,0.984375 1.6171875,0.984375 1.2773437,0 2.2851562,-0.5625 3,-1.7226563 0.375,-0.609375 0.6679687,-1.4648437 0.9023437,-2.5429687 l 1.1601568,-5.367188 h 1.839844 L 10.148182,-0.00121625 H 8.4020885 L 8.753651,-1.6184038 C 8.425526,-1.1965288 8.0622447,-0.84496625 7.6403697,-0.5519975 6.8083385,0.02222125 5.9059947,0.31519 4.8981822,0.31519 c -1.5820312,0 -2.53125,-0.52734375 -2.859375,-1.5820313 -0.1875,-0.5625 -0.1875,-1.3007812 0,-2.2382812 l 1.59375,-7.4531255 z m 0,0"
       style="fill:#000000;fill-opacity:1;fill-rule:nonzero;stroke:none"
       aria-label="u"
       transform="matrix(1.3333333,0,0,1.3333333,97.703465,205.26725)" />
    <path
       id="path12"
       d="m 6.925526,-7.5129351 c 0.234375,0.1640625 0.421875,0.421875 0.609375,0.7265625 l 0.2226562,-0.984375 H 8.9645885 L 7.4528697,-0.63402888 C 7.2419322,0.36206487 6.925526,1.1589399 6.5153697,1.7214399 5.7302135,2.7878461 4.5934947,3.3269086 3.0700572,3.3269086 c -0.8554687,0 -1.5117187,-0.1875 -2.0039062,-0.5625 -0.4921875,-0.375 -0.703125,-0.984375 -0.59765625,-1.79296873 H 1.816151 C 1.804432,1.3347211 1.874745,1.6042524 2.0270885,1.8034711 c 0.2226562,0.28125 0.6679687,0.4335938 1.3007812,0.4335938 1.0195313,0 1.7578125,-0.3632813 2.2265625,-1.0664063 0.2695313,-0.42187498 0.5039063,-1.17187498 0.7148438,-2.25 -0.3398438,0.38671877 -0.7148438,0.69140627 -1.125,0.87890627 -0.421875,0.19921875 -0.9257813,0.3046875 -1.546875,0.3046875 -0.8320313,0 -1.5234375,-0.3046875 -2.0390625,-0.90234375 C 1.0544322,-1.4074664 0.9489635,-2.4035601 1.2419322,-3.7980914 c 0.2929688,-1.3007812 0.8085938,-2.34375 1.6171875,-3.0703125 0.796875,-0.7382812 1.6523438,-1.1132812 2.5546875,-1.1132812 0.6210938,0 1.125,0.1523437 1.5117188,0.46875 z m -1.5117188,0.703125 c -0.9257812,0 -1.6523437,0.4335937 -2.1796875,1.3007812 -0.28125,0.46875 -0.5039062,1.0664063 -0.65625,1.8164063 -0.1875,0.890625 -0.1523437,1.5585937 0.1054688,2.0273437 0.2578125,0.46875 0.6914062,0.69140627 1.3007812,0.69140627 0.9492188,0 1.6992188,-0.42187497 2.2734375,-1.27734377 0.3164063,-0.4921875 0.5390625,-1.0546875 0.6679688,-1.6992187 0.2109375,-0.9726563 0.1640625,-1.6875 -0.1289063,-2.15625 -0.3046875,-0.46875 -0.7617187,-0.703125 -1.3828125,-0.703125 z m 0,0"
       style="fill:#000000;fill-opacity:1;fill-rule:nonzero;stroke:none"
       aria-label="g"
       transform="matrix(1.3333333,0,0,1.3333333,113.26597,210.49381)" />
    <path
       id="path13"
       d="m 50.27,100.539 -0.977,-0.984 -0.719,-1.223 -0.398,-1.391 -0.039,-1.464 0.32,-1.422 0.66,-1.282 0.938,-1.054 1.14,-0.774 1.262,-0.465 1.293,-0.164 1.246,0.09 1.137,0.297 0.969,0.445 0.757,0.524 0.512,0.555 0.242,0.546 -0.035,0.5 -0.316,0.434 -0.574,0.344 -0.809,0.226 -0.992,0.078 -1.117,-0.105 -1.172,-0.32 -1.145,-0.571 -1.035,-0.824 -0.84,-1.07 -0.562,-1.274 -0.239,-1.41 0.125,-1.445 0.485,-1.383 0.808,-1.211 1.067,-0.957 1.246,-0.648 1.332,-0.313 1.332,0.008 1.262,0.289 1.125,0.508 0.945,0.648 0.738,0.719 0.508,0.723 0.262,0.66 0.004,0.566 -0.246,0.43 -0.489,0.281 -0.703,0.114 -0.879,-0.071 -0.992,-0.273 -1.043,-0.485 -1.008,-0.714 -0.886,-0.938 -0.684,-1.144 -0.41,-1.305 -0.074,-1.402 0.285,-1.407 0.633,-1.312 0.945,-1.117 1.183,-0.844 1.332,-0.508 1.387,-0.16 1.348,0.176 1.234,0.472 1.074,0.7 0.872,0.847 0.656,0.91 0.437,0.895 0.215,0.808 -0.004,0.672 -0.215,0.492 -0.414,0.286 -0.593,0.066 -0.739,-0.16 -0.836,-0.383 -0.871,-0.613 -0.832,-0.828 -0.715,-1.028 -0.511,-1.199 -0.239,-1.32 0.082,-1.375 0.434,-1.344 0.77,-1.219 1.062,-1 1.281,-0.707 1.403,-0.363 1.418,-0.004 1.343,0.344"
       style="fill:none;stroke:#000000;stroke-width:0.9216;stroke-linecap:square;stroke-linejoin:miter;stroke-miterlimit:3.25;stroke-dasharray:none;stroke-opacity:1"
       transform="scale(1.3333333)" />
    <path
       id="path14"
       d="m 9.7036666,-10.52393 c 0.3164064,0.234375 0.5859374,0.5859371 0.8437504,1.0312496 l 0.304687,-1.3828126 h 1.710938 l -2.121094,9.99609381 C 10.148979,0.50341331 9.7036666,1.6166946 9.1177291,2.4135696 c -1.0898437,1.4882812 -2.6953125,2.25 -4.8164062,2.25 -1.1953125,0 -2.1210938,-0.2695313 -2.8125,-0.796875 C 0.79741662,3.3393508 0.50444787,2.4956008 0.65679162,1.3588821 H 2.5435104 c -0.023437,0.5039062 0.082031,0.890625 0.2929687,1.1601562 0.3164063,0.3984375 0.9492188,0.609375 1.828125,0.609375 1.4296875,0 2.4492188,-0.5039062 3.1054688,-1.4882812 0.375,-0.5859375 0.7148437,-1.6406250375 1.0078125,-3.1523438 -0.4804688,0.55078126 -1.0078125,0.96093751 -1.5703125,1.24218751 -0.5976563,0.2695312525 -1.3007813,0.421875 -2.1679688,0.421875 -1.171875,0 -2.1445312,-0.421875 -2.859375,-1.26562501 -0.7148437,-0.8554687 -0.8554687,-2.25 -0.4335937,-4.1953125 0.3984375,-1.828125 1.1367187,-3.28125 2.2617187,-4.3125 1.1132813,-1.0312503 2.3085938,-1.5468753 3.5742188,-1.5468753 0.8554687,0 1.5703125,0.210938 2.1210937,0.644532 z m -2.1210937,0.9843746 c -1.3007813,0 -2.3085938,0.609375 -3.046875,1.828125 -0.3984375,0.65625 -0.7148438,1.5 -0.9257813,2.5429687 -0.2695312,1.2421875 -0.2109375,2.1914063 0.1523438,2.8359375 0.3515625,0.65625 0.9609375,0.9726563 1.828125,0.9726563 1.3242187,0 2.3671875,-0.5976563 3.1640625,-1.7929688 0.4453125,-0.6914062 0.7617187,-1.4648437 0.9492187,-2.3671875 0.2929688,-1.3710937 0.234375,-2.3789062 -0.1875,-3.0234375 -0.421875,-0.65625 -1.078125,-0.9960937 -1.9335937,-0.9960937 z m 0,0"
       style="fill:#000000;fill-opacity:1;fill-rule:nonzero;stroke:none"
       aria-label="g"
       transform="matrix(1.3333333,0,0,1.3333333,46.991465,102.82488)" />
    <path
       id="path15"
       d="m 100.539,71.215 c -1.152,-5.113 -4.57,-9.418 -9.289,-11.695 -4.719,-2.282 -10.219,-2.282 -14.938,0 -4.714,2.277 -8.136,6.582 -9.285,11.695"
       style="fill:none;stroke:#000000;stroke-width:0.9216;stroke-linecap:square;stroke-linejoin:miter;stroke-miterlimit:3.25;stroke-dasharray:none;stroke-opacity:1"
       transform="scale(1.3333333)" />
    <path
       id="path16"
       d="M 88.809,57.809 78.754,54.457 v 6.703 z"
       style="fill:#000000;fill-opacity:1;fill-rule:evenodd;stroke:none"
       transform="scale(1.3333333)" />
    <path
       id="path17"
       d="m 5.9177126,-1.2185219 c 0.84375,0 1.640625,-0.3515625 2.3320313,-1.0898437 0.7148437,-0.7382813 1.1953125,-1.78125 1.4882812,-3.1757813 0.3046879,-1.3828125 0.234375,-2.4140625 -0.1875,-3.0585937 -0.4101562,-0.6796875 -1.0429687,-1.0078125 -1.8867187,-1.0078125 -0.9257813,0 -1.7578125,0.3515625 -2.4726563,1.0664062 -0.7382812,0.7148438 -1.2421875,1.7460938 -1.5351562,3.1289063 -0.2578125,1.171875 -0.2109375,2.1679687 0.1054687,2.9648437 0.328125,0.796875 1.0429688,1.171875 2.15625,1.171875 z m 3.7382813,-9.4101561 c 0.2929687,0.1875 0.5859371,0.574219 0.8906251,1.0781249 l 1.195312,-5.5429689 h 1.757813 L 10.288806,2.28125e-4 H 8.6364626 L 8.9411501,-1.5114906 c -0.5625,0.66796872 -1.171875,1.16015622 -1.828125,1.46484372 -0.6445312,0.3046875 -1.359375,0.4453125 -2.1210937,0.4453125 -1.2070313,0 -2.1796875,-0.50390625 -2.8476563,-1.53515622 -0.6796875,-1.03125 -0.84375,-2.4140625 -0.46875,-4.1132813 0.3398438,-1.59375 1.03125,-2.9765625 2.109375,-4.1601562 1.0664063,-1.1718749 2.34375,-1.7578129 3.8789063,-1.7578129 0.84375,0 1.5117187,0.1875 1.9921875,0.539063 z m 0,0"
       style="fill:#000000;fill-opacity:1;fill-rule:nonzero;stroke:none"
       aria-label="d"
       transform="matrix(1.3333333,0,0,1.3333333,97.726904,59.960633)" />
    <path
       id="path18"
       d="m 3.2106814,-10.757585 h 1.2773437 l -1.3359375,6.257813 4.0898438,-3.328125 h 1.6875 L 5.3083376,-4.9099282 7.4411501,2.28e-4 H 5.7419314 L 4.1364626,-3.9489908 2.8239626,-2.9411783 2.1911501,2.28e-4 H 0.92552512 Z m 0,0"
       style="fill:#000000;fill-opacity:1;fill-rule:nonzero;stroke:none"
       aria-label="k"
       transform="matrix(1.3333333,0,0,1.3333333,113.2894,65.187196)" />
    <path
       id="path19"
       d="m 67.027,71.215 c 1.149,5.109 4.571,9.418 9.285,11.695 4.719,2.278 10.219,2.278 14.938,0 4.719,-2.277 8.137,-6.586 9.289,-11.695"
       style="fill:none;stroke:#000000;stroke-width:0.9216;stroke-linecap:square;stroke-linejoin:miter;stroke-miterlimit:3.25;stroke-dasharray:none;stroke-opacity:1"
       transform="scale(1.3333333)" />
    <path
       id="path20"
       d="m 78.754,84.621 10.055,3.352 V 81.27 Z"
       style="fill:#000000;fill-opacity:1;fill-rule:evenodd;stroke:none"
       transform="scale(1.3333333)" />
    <path
       id="path21"
       d="m 5.9177126,-1.218381 c 0.84375,0 1.640625,-0.3515625 2.3320313,-1.0898437 0.7148437,-0.7382813 1.1953125,-1.78125 1.4882812,-3.1757813 0.3046879,-1.3828125 0.234375,-2.4140625 -0.1875,-3.0585937 -0.4101562,-0.6796875 -1.0429687,-1.0078125 -1.8867187,-1.0078125 -0.9257813,0 -1.7578125,0.3515625 -2.4726563,1.0664062 -0.7382812,0.7148438 -1.2421875,1.7460938 -1.5351562,3.1289063 -0.2578125,1.171875 -0.2109375,2.1679687 0.1054687,2.9648437 0.328125,0.796875 1.0429688,1.171875 2.15625,1.171875 z m 3.7382813,-9.410156 c 0.2929687,0.1875 0.5859371,0.574219 0.8906251,1.0781248 l 1.195312,-5.5429688 h 1.757813 L 10.288806,3.69e-4 H 8.6364626 l 0.3046875,-1.5117187 c -0.5625,0.6679687 -1.171875,1.1601562 -1.828125,1.4648437 -0.6445312,0.3046875 -1.359375,0.4453125 -2.1210937,0.4453125 -1.2070313,0 -2.1796875,-0.50390625 -2.8476563,-1.5351562 -0.6796875,-1.03125 -0.84375,-2.4140625 -0.46875,-4.1132813 0.3398438,-1.59375 1.03125,-2.9765625 2.109375,-4.1601562 1.0664063,-1.1718748 2.34375,-1.7578128 3.8789063,-1.7578128 0.84375,0 1.5117187,0.1875 1.9921875,0.539063 z m 0,0"
       style="fill:#000000;fill-opacity:1;fill-rule:nonzero;stroke:none"
       aria-label="d"
       transform="matrix(1.3333333,0,0,1.3333333,97.726904,144.87451)" />
    <path
       id="path22"
       d="m 3.2106814,-10.757444 h 1.2773437 l -1.3359375,6.2578129 4.0898438,-3.328125 h 1.6875 L 5.3083376,-4.9097874 7.4411501,3.68875e-4 H 5.7419314 L 4.1364626,-3.9488499 2.8239626,-2.9410374 2.1911501,3.68875e-4 H 0.92552512 Z m 0,0"
       style="fill:#000000;fill-opacity:1;fill-rule:nonzero;stroke:none"
       aria-label="k"
       transform="matrix(1.3333333,0,0,1.3333333,113.2894,150.10107)" />
    <path
       id="path23"
       d="m 117.293,100.539 0.969,-0.992 0.703,-1.231 0.387,-1.39 0.027,-1.461 -0.332,-1.418 -0.668,-1.277 -0.945,-1.047 -1.145,-0.762 -1.262,-0.457 -1.293,-0.16 -1.25,0.097 -1.132,0.305 -0.965,0.445 -0.754,0.532 -0.512,0.558 -0.238,0.551 0.039,0.504 0.316,0.437 0.582,0.34 0.809,0.227 0.992,0.07 1.117,-0.109 1.168,-0.328 1.145,-0.575 1.027,-0.832 0.836,-1.074 0.559,-1.277 0.23,-1.406 -0.129,-1.446 -0.488,-1.375 -0.809,-1.211 -1.07,-0.953 -1.242,-0.644 -1.332,-0.313 -1.332,0.008 -1.262,0.289 -1.125,0.504 -0.949,0.652 -0.738,0.719 -0.504,0.723 -0.262,0.664 -0.004,0.566 0.25,0.438 0.488,0.281 0.707,0.117 0.879,-0.07 0.992,-0.274 1.043,-0.484 1.008,-0.715 0.887,-0.937 0.684,-1.145 0.406,-1.305 0.078,-1.402 -0.281,-1.402 -0.629,-1.313 -0.942,-1.117 -1.175,-0.848 -1.332,-0.515 -1.383,-0.164 -1.348,0.172 -1.238,0.464 -1.074,0.692 -0.879,0.844 -0.664,0.906 -0.438,0.89 -0.219,0.813 v 0.672 l 0.215,0.492 0.414,0.293 0.594,0.07 0.742,-0.152 0.84,-0.379 0.875,-0.605 0.84,-0.825 0.719,-1.023 0.515,-1.195 0.25,-1.321 -0.078,-1.375 -0.422,-1.343 -0.761,-1.223 -1.051,-1.008 -1.274,-0.719 -1.394,-0.375 -1.418,-0.015 -1.344,0.328"
       style="fill:none;stroke:#000000;stroke-width:0.9216;stroke-linecap:square;stroke-linejoin:miter;stroke-miterlimit:3.25;stroke-dasharray:none;stroke-opacity:1"
       transform="scale(1.3333333)" />
    <path
       id="path24"
       d="m 9.7025043,-10.524395 c 0.3164067,0.234375 0.5859377,0.5859378 0.8437497,1.0312503 l 0.304688,-1.3828123 h 1.710937 l -2.121093,9.9960935 C 10.147817,0.502949 9.7025043,1.6162303 9.1165668,2.4131053 c -1.0898437,1.4882812 -2.6953125,2.25 -4.8164062,2.25 -1.1953125,0 -2.1210938,-0.2695313 -2.8125,-0.796875 C 0.79625431,3.3388865 0.50328556,2.4951365 0.65562931,1.3584178 H 2.5423481 c -0.023437,0.5039062 0.082031,0.890625 0.2929687,1.1601562 0.3164063,0.3984375 0.9492188,0.609375 1.828125,0.609375 1.4296875,0 2.4492188,-0.5039062 3.1054688,-1.4882812 0.375,-0.5859375 0.7148437,-1.64062505 1.0078125,-3.1523438 -0.4804688,0.55078125 -1.0078125,0.9609375 -1.5703125,1.2421875 -0.5976563,0.26953125 -1.3007813,0.421875 -2.1679688,0.421875 -1.171875,0 -2.1445312,-0.421875 -2.859375,-1.265625 -0.7148437,-0.8554687 -0.8554687,-2.25 -0.4335937,-4.1953125 0.3984375,-1.828125 1.1367187,-3.28125 2.2617187,-4.3125 1.1132813,-1.03125 2.3085938,-1.546875 3.5742188,-1.546875 0.8554687,0 1.5703125,0.210938 2.1210937,0.644531 z m -2.1210937,0.9843753 c -1.3007813,0 -2.3085938,0.609375 -3.046875,1.828125 -0.3984375,0.65625 -0.7148438,1.5 -0.9257813,2.5429687 -0.2695312,1.2421875 -0.2109375,2.1914063 0.1523438,2.8359375 0.3515625,0.65625 0.9609375,0.9726563 1.828125,0.9726563 1.3242187,0 2.3671875,-0.5976563 3.1640625,-1.7929688 0.4453125,-0.6914062 0.7617187,-1.4648437 0.9492187,-2.3671875 0.2929688,-1.3710937 0.234375,-2.3789062 -0.1875,-3.0234375 -0.421875,-0.65625 -1.078125,-0.9960937 -1.9335937,-0.9960937 z m 0,0"
       style="fill:#000000;fill-opacity:1;fill-rule:nonzero;stroke:none"
       aria-label="g"
       transform="matrix(1.3333333,0,0,1.3333333,159.55942,102.8919)" />
    <path
       id="path25"
       d="m 104.223,71.215 c 0,0.976 -0.387,1.914 -1.078,2.605 -0.692,0.692 -1.629,1.082 -2.606,1.082 -0.98,0 -1.918,-0.39 -2.609,-1.082 -0.692,-0.691 -1.078,-1.629 -1.078,-2.605 0,-0.977 0.386,-1.914 1.078,-2.606 0.691,-0.691 1.629,-1.082 2.609,-1.082 0.977,0 1.914,0.391 2.606,1.082 0.691,0.692 1.078,1.629 1.078,2.606 z"
       style="fill:#000000;fill-opacity:1;fill-rule:evenodd;stroke:none"
       transform="scale(1.3333333)" />
    <path
       id="path26"
       d="m 70.711,71.215 c 0,0.976 -0.387,1.914 -1.078,2.605 -0.692,0.692 -1.629,1.082 -2.606,1.082 -0.98,0 -1.918,-0.39 -2.609,-1.082 -0.691,-0.691 -1.078,-1.629 -1.078,-2.605 0,-0.977 0.387,-1.914 1.078,-2.606 0.691,-0.691 1.629,-1.082 2.609,-1.082 0.977,0 1.914,0.391 2.606,1.082 0.691,0.692 1.078,1.629 1.078,2.606 z"
       style="fill:#000000;fill-opacity:1;fill-rule:evenodd;stroke:none"
       transform="scale(1.3333333)" />
    <path
       id="path27"
       d="m 53.957,100.539 c 0,0.977 -0.391,1.914 -1.082,2.606 -0.691,0.691 -1.629,1.078 -2.605,1.078 -0.977,0 -1.915,-0.387 -2.606,-1.078 -0.691,-0.692 -1.082,-1.629 -1.082,-2.606 0,-0.98 0.391,-1.918 1.082,-2.609 0.691,-0.692 1.629,-1.078 2.606,-1.078 0.976,0 1.914,0.386 2.605,1.078 0.691,0.691 1.082,1.629 1.082,2.609 z"
       style="fill:#000000;fill-opacity:1;fill-rule:evenodd;stroke:none"
       transform="scale(1.3333333)" />
    <path
       id="path28"
       d="m 120.98,100.539 c 0,0.977 -0.386,1.914 -1.078,2.606 -0.691,0.691 -1.629,1.078 -2.609,1.078 -0.977,0 -1.914,-0.387 -2.605,-1.078 -0.692,-0.692 -1.079,-1.629 -1.079,-2.606 0,-0.98 0.387,-1.918 1.079,-2.609 0.691,-0.692 1.628,-1.078 2.605,-1.078 0.98,0 1.918,0.386 2.609,1.078 0.692,0.691 1.078,1.629 1.078,2.609 z"
       style="fill:#000000;fill-opacity:1;fill-rule:evenodd;stroke:none"
       transform="scale(1.3333333)" />
    <path
       id="path29"
       d="m 184.32,100.539 h 50.27"
       style="fill:none;stroke:#000000;stroke-width:0.9216;stroke-linecap:butt;stroke-linejoin:miter;stroke-miterlimit:3.25;stroke-dasharray:0.9216, 5.5296;stroke-dashoffset:0;stroke-opacity:1"
       transform="scale(1.3333333)" />
    <path
       id="path30"
       d="m 214.48,100.539 -10.054,3.352 v -6.703 z"
       style="fill:#000000;fill-opacity:1;fill-rule:evenodd;stroke:none"
       transform="scale(1.3333333)" />
    <path
       id="path31"
       d="m 5.518423,-10.958216 -1.546875,7.2773439 c -0.1289063,0.5507813 -0.1289063,1.0078125 -0.023437,1.3710938 0.1875,0.6445312 0.7148437,0.984375 1.6171875,0.984375 1.2773437,0 2.2851562,-0.5625 3,-1.7226563 0.375,-0.609375 0.6679687,-1.4648437 0.9023437,-2.5429687 l 1.1601568,-5.3671877 h 1.839844 L 10.147329,-0.00118456 H 8.4012355 L 8.752798,-1.6183721 c -0.328125,0.421875 -0.6914063,0.77343754 -1.1132813,1.06640629 -0.8320312,0.57421875 -1.734375,0.8671875 -2.7421875,0.8671875 -1.5820312,0 -2.53125,-0.52734375 -2.859375,-1.58203129 -0.1875,-0.5625 -0.1875,-1.3007812 0,-2.2382812 l 1.59375,-7.4531252 z m 0,0"
       style="fill:#000000;fill-opacity:1;fill-rule:nonzero;stroke:none"
       aria-label="u"
       transform="matrix(1.3333333,0,0,1.3333333,265.2671,160.58361)" />
    <path
       id="path32"
       d="m 6.924673,-7.5129034 c 0.234375,0.1640625 0.421875,0.421875 0.609375,0.7265625 l 0.2226562,-0.984375 H 8.9637355 L 7.4520167,-0.63399719 C 7.2410792,0.36209656 6.924673,1.1589716 6.5145167,1.7214716 5.7293605,2.7878778 4.5926417,3.3269403 3.0692042,3.3269403 c -0.8554687,0 -1.5117187,-0.1875 -2.0039062,-0.5625 -0.4921875,-0.375 -0.703125,-0.984375 -0.59765625,-1.79296874 H 1.815298 C 1.803579,1.3347528 1.873892,1.6042841 2.0262355,1.8035028 c 0.2226562,0.28125 0.6679687,0.4335938 1.3007812,0.4335938 1.0195313,0 1.7578125,-0.3632813 2.2265625,-1.0664063 0.2695313,-0.42187499 0.5039063,-1.17187499 0.7148438,-2.25 -0.3398438,0.38671876 -0.7148438,0.69140626 -1.125,0.87890626 -0.421875,0.19921875 -0.9257813,0.3046875 -1.546875,0.3046875 -0.8320313,0 -1.5234375,-0.3046875 -2.0390625,-0.90234375 C 1.0535792,-1.4074347 0.9481105,-2.4035284 1.2410792,-3.7980597 c 0.2929688,-1.3007812 0.8085938,-2.34375 1.6171875,-3.0703125 0.796875,-0.7382812 1.6523438,-1.1132812 2.5546875,-1.1132812 0.6210938,0 1.125,0.1523437 1.5117188,0.46875 z m -1.5117188,0.703125 c -0.9257812,0 -1.6523437,0.4335937 -2.1796875,1.3007812 -0.28125,0.46875 -0.5039062,1.0664063 -0.65625,1.8164063 -0.1875,0.890625 -0.1523437,1.5585937 0.1054688,2.0273437 0.2578125,0.46875 0.6914062,0.69140626 1.3007812,0.69140626 0.9492188,0 1.6992188,-0.42187496 2.2734375,-1.27734376 0.3164063,-0.4921875 0.5390625,-1.0546875 0.6679688,-1.6992187 0.2109375,-0.9726563 0.1640625,-1.6875 -0.1289063,-2.15625 -0.3046875,-0.46875 -0.7617187,-0.703125 -1.3828125,-0.703125 z m 0,0"
       style="fill:#000000;fill-opacity:1;fill-rule:nonzero;stroke:none"
       aria-label="g"
       transform="matrix(1.3333333,0,0,1.3333333,280.8296,165.81017)" />
    <path
       id="path33"
       d="m 351.883,100.539 h -50.27"
       style="fill:none;stroke:#000000;stroke-width:0.9216;stroke-linecap:butt;stroke-linejoin:miter;stroke-miterlimit:3.25;stroke-dasharray:0.9216, 5.5296;stroke-dashoffset:0;stroke-opacity:1"
       transform="scale(1.3333333)" />
    <path
       id="path34"
       d="m 331.777,100.539 -10.054,-3.351 v 6.703 z"
       style="fill:#000000;fill-opacity:1;fill-rule:evenodd;stroke:none"
       transform="scale(1.3333333)" />
    <path
       id="path35"
       d="m 5.5197764,-10.958216 -1.546875,7.2773439 c -0.1289062,0.5507813 -0.1289062,1.0078125 -0.023437,1.3710938 0.1875,0.6445312 0.7148438,0.984375 1.6171875,0.984375 1.2773438,0 2.2851563,-0.5625 3,-1.7226563 0.375,-0.609375 0.6679688,-1.4648437 0.9023438,-2.5429687 l 1.1601563,-5.3671877 h 1.839844 L 10.148683,-0.00118456 H 8.4025889 L 8.7541514,-1.6183721 c -0.328125,0.421875 -0.6914062,0.77343754 -1.1132812,1.06640629 -0.8320313,0.57421875 -1.734375,0.8671875 -2.7421875,0.8671875 -1.5820313,0 -2.53125,-0.52734375 -2.859375,-1.58203129 -0.1875,-0.5625 -0.1875,-1.3007812 0,-2.2382812 l 1.59375,-7.4531252 z m 0,0"
       style="fill:#000000;fill-opacity:1;fill-rule:nonzero;stroke:none"
       aria-label="u"
       transform="matrix(1.3333333,0,0,1.3333333,421.65983,160.58361)" />
    <path
       id="path36"
       d="m 6.9260264,-7.5129034 c 0.234375,0.1640625 0.421875,0.421875 0.609375,0.7265625 l 0.2226563,-0.984375 H 8.9650889 L 7.4533702,-0.63399719 C 7.2424327,0.36209656 6.9260264,1.1589716 6.5158702,1.7214716 5.7307139,2.7878778 4.5939952,3.3269403 3.0705577,3.3269403 c -0.8554688,0 -1.5117188,-0.1875 -2.0039063,-0.5625 -0.49218746,-0.375 -0.70312496,-0.984375 -0.59765621,-1.79296874 H 1.8166514 c -0.011719,0.36328124 0.058594,0.63281254 0.2109375,0.83203124 0.2226563,0.28125 0.6679688,0.4335938 1.3007813,0.4335938 1.0195312,0 1.7578125,-0.3632813 2.2265625,-1.0664063 0.2695312,-0.42187499 0.5039062,-1.17187499 0.7148437,-2.25 -0.3398437,0.38671876 -0.7148437,0.69140626 -1.125,0.87890626 -0.421875,0.19921875 -0.9257812,0.3046875 -1.546875,0.3046875 -0.8320312,0 -1.5234375,-0.3046875 -2.0390625,-0.90234375 C 1.0549327,-1.4074347 0.94946394,-2.4035284 1.2424327,-3.7980597 c 0.2929687,-1.3007812 0.8085937,-2.34375 1.6171875,-3.0703125 0.796875,-0.7382812 1.6523437,-1.1132812 2.5546875,-1.1132812 0.6210937,0 1.125,0.1523437 1.5117187,0.46875 z m -1.5117187,0.703125 c -0.9257813,0 -1.6523438,0.4335937 -2.1796875,1.3007812 -0.28125,0.46875 -0.5039063,1.0664063 -0.65625,1.8164063 -0.1875,0.890625 -0.1523438,1.5585937 0.1054687,2.0273437 0.2578125,0.46875 0.6914063,0.69140626 1.3007813,0.69140626 0.9492187,0 1.6992187,-0.42187496 2.2734375,-1.27734376 0.3164062,-0.4921875 0.5390625,-1.0546875 0.6679687,-1.6992187 0.2109375,-0.9726563 0.1640625,-1.6875 -0.1289062,-2.15625 -0.3046875,-0.46875 -0.7617188,-0.703125 -1.3828125,-0.703125 z m 0,0"
       style="fill:#000000;fill-opacity:1;fill-rule:nonzero;stroke:none"
       aria-label="g"
       transform="matrix(1.3333333,0,0,1.3333333,437.22233,165.81017)" />
    <path
       id="path37"
       d="m 234.59,100.539 c 0,8.887 3.531,17.41 9.816,23.695 6.285,6.286 14.809,9.817 23.696,9.817 8.886,0 17.414,-3.531 23.699,-9.817 6.281,-6.285 9.812,-14.808 9.812,-23.695"
       style="fill:none;stroke:#000000;stroke-width:0.9216;stroke-linecap:butt;stroke-linejoin:miter;stroke-miterlimit:3.25;stroke-dasharray:0.9216, 5.5296;stroke-dashoffset:0;stroke-opacity:1"
       transform="scale(1.3333333)" />
    <path
       id="path38"
       d="m 273.129,134.051 -10.055,3.351 v -6.703 z"
       style="fill:#000000;fill-opacity:1;fill-rule:evenodd;stroke:none"
       transform="scale(1.3333333)" />
    <path
       id="path39"
       d="m 5.5205651,-10.958248 -1.546875,7.2773442 c -0.1289063,0.5507813 -0.1289063,1.0078125 -0.023437,1.3710938 0.1875,0.6445312 0.7148437,0.984375 1.6171875,0.984375 1.2773437,0 2.2851562,-0.5625 3,-1.7226563 0.375,-0.609375 0.6679687,-1.4648437 0.9023437,-2.5429687 l 1.1601557,-5.367188 h 1.839844 L 10.149471,-0.00121625 H 8.4033776 L 8.7549401,-1.6184038 C 8.4268151,-1.1965288 8.0635338,-0.84496625 7.6416588,-0.5519975 6.8096276,0.02222125 5.9072838,0.31519 4.8994713,0.31519 c -1.5820312,0 -2.53125,-0.52734375 -2.859375,-1.5820313 -0.1875,-0.5625 -0.1875,-1.3007812 0,-2.2382812 l 1.59375,-7.4531255 z m 0,0"
       style="fill:#000000;fill-opacity:1;fill-rule:nonzero;stroke:none"
       aria-label="u"
       transform="matrix(1.3333333,0,0,1.3333333,343.46347,205.26725)" />
    <path
       id="path40"
       d="m 6.9268151,-7.5129351 c 0.234375,0.1640625 0.421875,0.421875 0.609375,0.7265625 l 0.2226562,-0.984375 H 8.9658776 L 7.4541588,-0.63402888 C 7.2432213,0.36206487 6.9268151,1.1589399 6.5166588,1.7214399 5.7315026,2.7878461 4.5947838,3.3269086 3.0713463,3.3269086 c -0.8554687,0 -1.5117187,-0.1875 -2.0039062,-0.5625 -0.49218754,-0.375 -0.70312504,-0.984375 -0.59765629,-1.79296873 H 1.8174401 c -0.011719,0.36328123 0.058594,0.63281253 0.2109375,0.83203123 0.2226562,0.28125 0.6679687,0.4335938 1.3007812,0.4335938 1.0195313,0 1.7578125,-0.3632813 2.2265625,-1.0664063 0.2695313,-0.42187498 0.5039063,-1.17187498 0.7148438,-2.25 -0.3398438,0.38671877 -0.7148438,0.69140627 -1.125,0.87890627 -0.421875,0.19921875 -0.9257813,0.3046875 -1.546875,0.3046875 -0.8320313,0 -1.5234375,-0.3046875 -2.0390625,-0.90234375 C 1.0557213,-1.4074664 0.95025256,-2.4035601 1.2432213,-3.7980914 c 0.2929688,-1.3007812 0.8085938,-2.34375 1.6171875,-3.0703125 0.796875,-0.7382812 1.6523438,-1.1132812 2.5546875,-1.1132812 0.6210938,0 1.125,0.1523437 1.5117188,0.46875 z m -1.5117188,0.703125 c -0.9257812,0 -1.6523437,0.4335937 -2.1796875,1.3007812 -0.28125,0.46875 -0.5039062,1.0664063 -0.65625,1.8164063 -0.1875,0.890625 -0.1523437,1.5585937 0.1054688,2.0273437 0.2578125,0.46875 0.6914062,0.69140627 1.3007812,0.69140627 0.9492188,0 1.6992188,-0.42187497 2.2734375,-1.27734377 0.3164063,-0.4921875 0.5390625,-1.0546875 0.6679688,-1.6992187 0.2109375,-0.9726563 0.1640625,-1.6875 -0.1289063,-2.15625 -0.3046875,-0.46875 -0.7617187,-0.703125 -1.3828125,-0.703125 z m 0,0"
       style="fill:#000000;fill-opacity:1;fill-rule:nonzero;stroke:none"
       aria-label="g"
       transform="matrix(1.3333333,0,0,1.3333333,359.02597,210.49381)" />
    <path
       id="path41"
       d="m 234.59,100.539 -0.977,-0.984 -0.718,-1.223 -0.399,-1.391 -0.039,-1.464 0.32,-1.422 0.661,-1.282 0.937,-1.054 1.141,-0.774 1.261,-0.465 1.293,-0.164 1.246,0.09 1.137,0.297 0.969,0.445 0.758,0.524 0.511,0.555 0.243,0.546 -0.036,0.5 -0.316,0.434 -0.574,0.344 -0.809,0.226 -0.992,0.078 -1.117,-0.105 -1.172,-0.32 -1.145,-0.571 -1.035,-0.824 -0.84,-1.07 -0.562,-1.274 -0.238,-1.41 0.125,-1.445 0.484,-1.383 0.809,-1.211 1.066,-0.957 1.246,-0.648 1.332,-0.313 1.332,0.008 1.258,0.289 1.129,0.508 0.945,0.648 0.738,0.719 0.508,0.723 0.262,0.66 0.004,0.566 -0.246,0.43 -0.488,0.281 -0.704,0.114 -0.878,-0.071 -0.993,-0.273 -1.043,-0.485 -1.007,-0.714 -0.887,-0.938 -0.684,-1.144 -0.41,-1.305 -0.074,-1.402 0.285,-1.407 0.633,-1.312 0.945,-1.117 1.184,-0.844 1.332,-0.508 1.387,-0.16 1.347,0.176 1.235,0.472 1.07,0.7 0.875,0.847 0.656,0.91 0.438,0.895 0.214,0.808 -0.003,0.672 -0.215,0.492 -0.414,0.286 -0.594,0.066 -0.738,-0.16 -0.836,-0.383 -0.871,-0.613 -0.836,-0.828 -0.711,-1.028 -0.512,-1.199 -0.242,-1.32 0.086,-1.375 0.433,-1.344 0.77,-1.219 1.062,-1 1.282,-0.707 1.398,-0.363 1.422,-0.004 1.34,0.344"
       style="fill:none;stroke:#000000;stroke-width:0.9216;stroke-linecap:square;stroke-linejoin:miter;stroke-miterlimit:3.25;stroke-dasharray:none;stroke-opacity:1"
       transform="scale(1.3333333)" />
    <path
       id="path42"
       d="m 9.702026,-10.52393 c 0.316406,0.234375 0.585938,0.5859371 0.84375,1.0312496 l 0.304688,-1.3828126 h 1.710937 l -2.121094,9.99609381 C 10.147339,0.50341331 9.702026,1.6166946 9.1160885,2.4135696 c -1.0898437,1.4882812 -2.6953125,2.25 -4.8164062,2.25 -1.1953125,0 -2.1210938,-0.2695313 -2.8125,-0.796875 C 0.795776,3.3393508 0.50280725,2.4956008 0.655151,1.3588821 h 1.8867188 c -0.023437,0.5039062 0.082031,0.890625 0.2929687,1.1601562 0.3164063,0.3984375 0.9492188,0.609375 1.828125,0.609375 1.4296875,0 2.4492188,-0.5039062 3.1054688,-1.4882812 0.375,-0.5859375 0.7148437,-1.6406250375 1.0078125,-3.1523438 -0.4804688,0.55078126 -1.0078125,0.96093751 -1.5703125,1.24218751 -0.5976563,0.2695312525 -1.3007813,0.421875 -2.1679688,0.421875 -1.171875,0 -2.1445312,-0.421875 -2.859375,-1.26562501 -0.7148437,-0.8554687 -0.8554687,-2.25 -0.4335937,-4.1953125 0.3984375,-1.828125 1.1367187,-3.28125 2.2617187,-4.3125 1.1132813,-1.0312503 2.3085938,-1.5468753 3.5742188,-1.5468753 0.8554687,0 1.5703125,0.210938 2.1210937,0.644532 z m -2.1210937,0.9843746 c -1.3007813,0 -2.3085938,0.609375 -3.046875,1.828125 -0.3984375,0.65625 -0.7148438,1.5 -0.9257813,2.5429687 -0.2695312,1.2421875 -0.2109375,2.1914063 0.1523438,2.8359375 0.3515625,0.65625 0.9609375,0.9726563 1.828125,0.9726563 1.3242187,0 2.3671875,-0.5976563 3.1640625,-1.7929688 0.4453125,-0.6914062 0.7617187,-1.4648437 0.9492187,-2.3671875 0.2929688,-1.3710937 0.234375,-2.3789062 -0.1875,-3.0234375 -0.421875,-0.65625 -1.078125,-0.9960937 -1.9335937,-0.9960937 z m 0,0"
       style="fill:#000000;fill-opacity:1;fill-rule:nonzero;stroke:none"
       aria-label="g"
       transform="matrix(1.3333333,0,0,1.3333333,292.75147,102.82488)" />
    <path
       id="path43"
       d="m 284.859,71.215 c -1.152,-5.113 -4.57,-9.418 -9.289,-11.695 -4.718,-2.282 -10.218,-2.282 -14.937,0 -4.719,2.277 -8.137,6.582 -9.289,11.695"
       style="fill:none;stroke:#000000;stroke-width:0.9216;stroke-linecap:butt;stroke-linejoin:miter;stroke-miterlimit:3.25;stroke-dasharray:0.9216, 5.5296;stroke-dashoffset:0;stroke-opacity:1"
       transform="scale(1.3333333)" />
    <path
       id="path44"
       d="M 273.129,57.809 263.074,54.457 V 61.16 Z"
       style="fill:#000000;fill-opacity:1;fill-rule:evenodd;stroke:none"
       transform="scale(1.3333333)" />
    <path
       id="path45"
       d="m 5.5205651,-10.956803 -1.546875,7.2773434 c -0.1289063,0.5507812 -0.1289063,1.0078125 -0.023437,1.3710937 0.1875,0.6445313 0.7148437,0.984375 1.6171875,0.984375 1.2773437,0 2.2851562,-0.5625 3,-1.7226562 0.375,-0.609375 0.6679687,-1.4648438 0.9023437,-2.5429688 L 10.62994,-10.956803 h 1.839844 L 10.149471,2.27875e-4 H 8.4033776 L 8.7549401,-1.6169596 c -0.328125,0.421875 -0.6914063,0.77343748 -1.1132813,1.06640623 -0.8320312,0.57421875 -1.734375,0.8671875 -2.7421875,0.8671875 -1.5820312,0 -2.53125,-0.52734375 -2.859375,-1.58203123 -0.1875,-0.5625 -0.1875,-1.3007813 0,-2.2382813 l 1.59375,-7.4531246 z m 0,0"
       style="fill:#000000;fill-opacity:1;fill-rule:nonzero;stroke:none"
       aria-label="u"
       transform="matrix(1.3333333,0,0,1.3333333,343.46347,55.538759)" />
    <path
       id="path46"
       d="m 6.9268151,-7.511491 c 0.234375,0.1640625 0.421875,0.421875 0.609375,0.7265625 l 0.2226562,-0.984375 H 8.9658776 L 7.4541588,-0.63258475 C 7.2432213,0.363509 6.9268151,1.160384 6.5166588,1.722884 5.7315026,2.7892903 4.5947838,3.3283528 3.0713463,3.3283528 c -0.8554687,0 -1.5117187,-0.1875 -2.0039062,-0.5625 C 0.57525256,2.3908528 0.36431506,1.7814778 0.46978381,0.972884 H 1.8174401 c -0.011719,0.3632813 0.058594,0.6328125 0.2109375,0.8320313 0.2226562,0.28125 0.6679687,0.4335937 1.3007812,0.4335937 1.0195313,0 1.7578125,-0.3632812 2.2265625,-1.0664062 0.2695313,-0.42187505 0.5039063,-1.17187505 0.7148438,-2.25 -0.3398438,0.3867187 -0.7148438,0.6914062 -1.125,0.8789062 -0.421875,0.19921875 -0.9257813,0.3046875 -1.546875,0.3046875 -0.8320313,0 -1.5234375,-0.3046875 -2.0390625,-0.90234375 C 1.0557213,-1.4060222 0.95025256,-2.402116 1.2432213,-3.7966472 c 0.2929688,-1.3007813 0.8085938,-2.34375 1.6171875,-3.0703125 0.796875,-0.7382813 1.6523438,-1.1132813 2.5546875,-1.1132813 0.6210938,0 1.125,0.1523438 1.5117188,0.46875 z m -1.5117188,0.703125 c -0.9257812,0 -1.6523437,0.4335938 -2.1796875,1.3007813 -0.28125,0.46875 -0.5039062,1.0664062 -0.65625,1.8164062 -0.1875,0.890625 -0.1523437,1.5585938 0.1054688,2.0273438 0.2578125,0.46875 0.6914062,0.6914062 1.3007812,0.6914062 0.9492188,0 1.6992188,-0.421875 2.2734375,-1.2773437 0.3164063,-0.4921875 0.5390625,-1.0546875 0.6679688,-1.6992188 0.2109375,-0.9726562 0.1640625,-1.6875 -0.1289063,-2.15625 -0.3046875,-0.46875 -0.7617187,-0.703125 -1.3828125,-0.703125 z m 0,0"
       style="fill:#000000;fill-opacity:1;fill-rule:nonzero;stroke:none"
       aria-label="g"
       transform="matrix(1.3333333,0,0,1.3333333,359.02597,60.765321)" />
    <path
       id="path47"
       d="m 251.344,71.215 c 1.152,5.109 4.57,9.418 9.289,11.695 4.719,2.278 10.219,2.278 14.937,0 4.719,-2.277 8.137,-6.586 9.289,-11.695"
       style="fill:none;stroke:#000000;stroke-width:0.9216;stroke-linecap:butt;stroke-linejoin:miter;stroke-miterlimit:3.25;stroke-dasharray:0.9216, 5.5296;stroke-dashoffset:0;stroke-opacity:1"
       transform="scale(1.3333333)" />
    <path
       id="path48"
       d="m 263.074,84.621 10.055,3.352 V 81.27 Z"
       style="fill:#000000;fill-opacity:1;fill-rule:evenodd;stroke:none"
       transform="scale(1.3333333)" />
    <path
       id="path49"
       d="m 5.5205651,-10.956663 -1.546875,7.2773437 c -0.1289063,0.5507813 -0.1289063,1.0078125 -0.023437,1.3710938 0.1875,0.6445312 0.7148437,0.984375 1.6171875,0.984375 1.2773437,0 2.2851562,-0.5625 3,-1.7226563 0.375,-0.609375 0.6679687,-1.4648437 0.9023437,-2.5429687 L 10.62994,-10.956663 h 1.839844 L 10.149471,3.6825e-4 H 8.4033776 L 8.7549401,-1.6168193 c -0.328125,0.421875 -0.6914063,0.77343755 -1.1132813,1.0664063 -0.8320312,0.57421875 -1.734375,0.8671875 -2.7421875,0.8671875 -1.5820312,0 -2.53125,-0.52734375 -2.859375,-1.5820313 -0.1875,-0.5625 -0.1875,-1.3007812 0,-2.2382812 l 1.59375,-7.453125 z m 0,0"
       style="fill:#000000;fill-opacity:1;fill-rule:nonzero;stroke:none"
       aria-label="u"
       transform="matrix(1.3333333,0,0,1.3333333,343.46347,139.35888)" />
    <path
       id="path50"
       d="m 6.9268151,-7.5113496 c 0.234375,0.1640625 0.421875,0.421875 0.609375,0.7265625 l 0.2226562,-0.984375 H 8.9658776 L 7.4541588,-0.63244337 C 7.2432213,0.36365038 6.9268151,1.1605254 6.5166588,1.7230254 5.7315026,2.7894316 4.5947838,3.3284941 3.0713463,3.3284941 c -0.8554687,0 -1.5117187,-0.1875 -2.0039062,-0.5625 -0.49218754,-0.375 -0.70312504,-0.984375 -0.59765629,-1.79296872 H 1.8174401 c -0.011719,0.36328122 0.058594,0.63281252 0.2109375,0.83203122 0.2226562,0.28125 0.6679687,0.4335938 1.3007812,0.4335938 1.0195313,0 1.7578125,-0.3632813 2.2265625,-1.0664063 0.2695313,-0.42187497 0.5039063,-1.171874975 0.7148438,-2.25 -0.3398438,0.38671878 -0.7148438,0.69140628 -1.125,0.87890628 -0.421875,0.199218745 -0.9257813,0.3046875 -1.546875,0.3046875 -0.8320313,0 -1.5234375,-0.3046875 -2.0390625,-0.90234375 C 1.0557213,-1.4058809 0.95025256,-2.4019746 1.2432213,-3.7965059 c 0.2929688,-1.3007812 0.8085938,-2.34375 1.6171875,-3.0703125 0.796875,-0.7382812 1.6523438,-1.1132812 2.5546875,-1.1132812 0.6210938,0 1.125,0.1523437 1.5117188,0.46875 z m -1.5117188,0.703125 c -0.9257812,0 -1.6523437,0.4335937 -2.1796875,1.3007812 -0.28125,0.46875 -0.5039062,1.0664063 -0.65625,1.8164063 -0.1875,0.890625 -0.1523437,1.5585937 0.1054688,2.0273437 0.2578125,0.46875 0.6914062,0.69140628 1.3007812,0.69140628 0.9492188,0 1.6992188,-0.42187498 2.2734375,-1.27734378 0.3164063,-0.4921875 0.5390625,-1.0546875 0.6679688,-1.6992187 0.2109375,-0.9726563 0.1640625,-1.6875 -0.1289063,-2.15625 -0.3046875,-0.46875 -0.7617187,-0.703125 -1.3828125,-0.703125 z m 0,0"
       style="fill:#000000;fill-opacity:1;fill-rule:nonzero;stroke:none"
       aria-label="g"
       transform="matrix(1.3333333,0,0,1.3333333,359.02597,144.58545)" />
    <path
       id="path51"
       d="m 301.613,100.539 0.969,-0.992 0.703,-1.231 0.387,-1.39 0.027,-1.461 -0.332,-1.418 -0.668,-1.277 -0.945,-1.047 -1.145,-0.762 -1.261,-0.457 -1.297,-0.16 -1.246,0.097 -1.133,0.305 -0.969,0.445 -0.754,0.532 -0.508,0.558 -0.238,0.551 0.039,0.504 0.317,0.437 0.582,0.34 0.808,0.227 0.992,0.07 1.118,-0.109 1.168,-0.328 1.144,-0.575 1.027,-0.832 0.832,-1.074 0.563,-1.277 0.23,-1.406 -0.128,-1.446 -0.489,-1.375 -0.808,-1.211 -1.071,-0.953 -1.242,-0.644 -1.332,-0.313 -1.336,0.008 -1.258,0.289 -1.125,0.504 -0.949,0.652 -0.738,0.719 -0.504,0.723 -0.262,0.664 -0.004,0.566 0.25,0.438 0.489,0.281 0.707,0.117 0.879,-0.07 0.992,-0.274 1.043,-0.484 1.008,-0.715 0.886,-0.937 0.684,-1.145 0.406,-1.305 0.078,-1.402 -0.281,-1.402 -0.629,-1.313 -0.941,-1.117 -1.18,-0.848 -1.328,-0.515 -1.383,-0.164 -1.348,0.172 -1.238,0.464 -1.074,0.692 -0.879,0.844 -0.664,0.906 -0.438,0.89 -0.218,0.813 v 0.672 l 0.214,0.492 0.415,0.293 0.593,0.07 0.742,-0.152 0.84,-0.379 0.875,-0.605 0.84,-0.825 0.719,-1.023 0.516,-1.195 0.246,-1.321 -0.075,-1.375 -0.421,-1.343 -0.762,-1.223 -1.051,-1.008 -1.273,-0.719 -1.395,-0.375 -1.418,-0.015 -1.344,0.328"
       style="fill:none;stroke:#000000;stroke-width:0.9216;stroke-linecap:square;stroke-linejoin:miter;stroke-miterlimit:3.25;stroke-dasharray:none;stroke-opacity:1"
       transform="scale(1.3333333)" />
    <path
       id="path52"
       d="m 9.7037934,-10.524395 c 0.3164066,0.234375 0.5859376,0.5859378 0.8437496,1.0312503 l 0.304688,-1.3828123 h 1.710937 l -2.121093,9.9960935 C 10.149106,0.502949 9.7037934,1.6162303 9.1178559,2.4131053 c -1.0898438,1.4882812 -2.6953125,2.25 -4.8164063,2.25 -1.1953125,0 -2.1210937,-0.2695313 -2.8125,-0.796875 C 0.79754338,3.3388865 0.50457463,2.4951365 0.65691838,1.3584178 H 2.5436371 c -0.023437,0.5039062 0.082031,0.890625 0.2929688,1.1601562 0.3164062,0.3984375 0.9492187,0.609375 1.828125,0.609375 1.4296875,0 2.4492187,-0.5039062 3.1054687,-1.4882812 0.375,-0.5859375 0.7148438,-1.64062505 1.0078125,-3.1523438 -0.4804687,0.55078125 -1.0078125,0.9609375 -1.5703125,1.2421875 -0.5976562,0.26953125 -1.3007812,0.421875 -2.1679687,0.421875 -1.171875,0 -2.1445313,-0.421875 -2.859375,-1.265625 -0.7148438,-0.8554687 -0.8554688,-2.25 -0.4335938,-4.1953125 0.3984375,-1.828125 1.1367188,-3.28125 2.2617188,-4.3125 1.1132812,-1.03125 2.3085937,-1.546875 3.5742187,-1.546875 0.8554688,0 1.5703125,0.210938 2.1210938,0.644531 z m -2.1210938,0.9843753 c -1.3007812,0 -2.3085937,0.609375 -3.046875,1.828125 -0.3984375,0.65625 -0.7148437,1.5 -0.9257812,2.5429687 -0.2695313,1.2421875 -0.2109375,2.1914063 0.1523437,2.8359375 0.3515625,0.65625 0.9609375,0.9726563 1.828125,0.9726563 1.3242188,0 2.3671875,-0.5976563 3.1640625,-1.7929688 0.4453125,-0.6914062 0.7617188,-1.4648437 0.9492188,-2.3671875 0.2929687,-1.3710937 0.234375,-2.3789062 -0.1875,-3.0234375 -0.421875,-0.65625 -1.078125,-0.9960937 -1.9335938,-0.9960937 z m 0,0"
       style="fill:#000000;fill-opacity:1;fill-rule:nonzero;stroke:none"
       aria-label="g"
       transform="matrix(1.3333333,0,0,1.3333333,405.31942,102.8919)" />
    <path
       id="path53"
       d="m 288.543,71.215 c 0,0.976 -0.387,1.914 -1.078,2.605 -0.692,0.692 -1.629,1.082 -2.606,1.082 -0.98,0 -1.918,-0.39 -2.609,-1.082 -0.691,-0.691 -1.078,-1.629 -1.078,-2.605 0,-0.977 0.387,-1.914 1.078,-2.606 0.691,-0.691 1.629,-1.082 2.609,-1.082 0.977,0 1.914,0.391 2.606,1.082 0.691,0.692 1.078,1.629 1.078,2.606 z"
       style="fill:#000000;fill-opacity:1;fill-rule:evenodd;stroke:none"
       transform="scale(1.3333333)" />
    <path
       id="path54"
       d="m 255.031,71.215 c 0,0.976 -0.386,1.914 -1.078,2.605 -0.691,0.692 -1.629,1.082 -2.609,1.082 -0.977,0 -1.914,-0.39 -2.606,-1.082 -0.691,-0.691 -1.078,-1.629 -1.078,-2.605 0,-0.977 0.387,-1.914 1.078,-2.606 0.692,-0.691 1.629,-1.082 2.606,-1.082 0.98,0 1.918,0.391 2.609,1.082 0.692,0.692 1.078,1.629 1.078,2.606 z"
       style="fill:#000000;fill-opacity:1;fill-rule:evenodd;stroke:none"
       transform="scale(1.3333333)" />
    <path
       id="path55"
       d="m 238.277,100.539 c 0,0.977 -0.39,1.914 -1.082,2.606 -0.691,0.691 -1.629,1.078 -2.605,1.078 -0.977,0 -1.918,-0.387 -2.61,-1.078 -0.687,-0.692 -1.078,-1.629 -1.078,-2.606 0,-0.98 0.391,-1.918 1.078,-2.609 0.692,-0.692 1.633,-1.078 2.61,-1.078 0.976,0 1.914,0.386 2.605,1.078 0.692,0.691 1.082,1.629 1.082,2.609 z"
       style="fill:#000000;fill-opacity:1;fill-rule:evenodd;stroke:none"
       transform="scale(1.3333333)" />
    <path
       id="path56"
       d="m 305.301,100.539 c 0,0.977 -0.387,1.914 -1.078,2.606 -0.692,0.691 -1.629,1.078 -2.61,1.078 -0.976,0 -1.914,-0.387 -2.605,-1.078 -0.692,-0.692 -1.078,-1.629 -1.078,-2.606 0,-0.98 0.386,-1.918 1.078,-2.609 0.691,-0.692 1.629,-1.078 2.605,-1.078 0.981,0 1.918,0.386 2.61,1.078 0.691,0.691 1.078,1.629 1.078,2.609 z"
       style="fill:#000000;fill-opacity:1;fill-rule:evenodd;stroke:none"
       transform="scale(1.3333333)" />
    <path
       id="path57"
       d="M 368.641,100.539 H 418.91"
       style="fill:none;stroke:#000000;stroke-width:0.9216;stroke-linecap:butt;stroke-linejoin:miter;stroke-miterlimit:3.25;stroke-dasharray:0.9216, 5.5296;stroke-dashoffset:0;stroke-opacity:1"
       transform="scale(1.3333333)" />
    <path
       id="path58"
       d="m 398.801,100.539 -10.055,3.352 v -6.703 z"
       style="fill:#000000;fill-opacity:1;fill-rule:evenodd;stroke:none"
       transform="scale(1.3333333)" />
    <path
       id="path59"
       d="m 5.5197121,-10.958216 -1.546875,7.2773439 c -0.1289063,0.5507813 -0.1289063,1.0078125 -0.023437,1.3710938 0.1875,0.6445312 0.7148437,0.984375 1.6171875,0.984375 1.2773437,0 2.2851562,-0.5625 3,-1.7226563 0.375,-0.609375 0.6679687,-1.4648437 0.9023437,-2.5429687 l 1.1601557,-5.3671877 h 1.839844 L 10.148618,-0.00118456 H 8.4025246 L 8.7540871,-1.6183721 c -0.328125,0.421875 -0.6914063,0.77343754 -1.1132813,1.06640629 -0.8320312,0.57421875 -1.734375,0.8671875 -2.7421875,0.8671875 -1.5820312,0 -2.53125,-0.52734375 -2.859375,-1.58203129 -0.1875,-0.5625 -0.1875,-1.3007812 0,-2.2382812 l 1.59375,-7.4531252 z m 0,0"
       style="fill:#000000;fill-opacity:1;fill-rule:nonzero;stroke:none"
       aria-label="u"
       transform="matrix(1.3333333,0,0,1.3333333,511.0271,160.58361)" />
    <path
       id="path60"
       d="m 6.9259621,-7.5129034 c 0.234375,0.1640625 0.421875,0.421875 0.609375,0.7265625 l 0.2226562,-0.984375 H 8.9650246 L 7.4533058,-0.63399719 C 7.2423683,0.36209656 6.9259621,1.1589716 6.5158058,1.7214716 5.7306496,2.7878778 4.5939308,3.3269403 3.0704933,3.3269403 c -0.8554687,0 -1.5117187,-0.1875 -2.0039062,-0.5625 -0.49218754,-0.375 -0.70312504,-0.984375 -0.59765629,-1.79296874 H 1.8165871 c -0.011719,0.36328124 0.058594,0.63281254 0.2109375,0.83203124 0.2226562,0.28125 0.6679687,0.4335938 1.3007812,0.4335938 1.0195313,0 1.7578125,-0.3632813 2.2265625,-1.0664063 0.2695313,-0.42187499 0.5039063,-1.17187499 0.7148438,-2.25 -0.3398438,0.38671876 -0.7148438,0.69140626 -1.125,0.87890626 -0.421875,0.19921875 -0.9257813,0.3046875 -1.546875,0.3046875 -0.8320313,0 -1.5234375,-0.3046875 -2.0390625,-0.90234375 C 1.0548683,-1.4074347 0.94939956,-2.4035284 1.2423683,-3.7980597 c 0.2929688,-1.3007812 0.8085938,-2.34375 1.6171875,-3.0703125 0.796875,-0.7382812 1.6523438,-1.1132812 2.5546875,-1.1132812 0.6210938,0 1.125,0.1523437 1.5117188,0.46875 z m -1.5117188,0.703125 c -0.9257812,0 -1.6523437,0.4335937 -2.1796875,1.3007812 -0.28125,0.46875 -0.5039062,1.0664063 -0.65625,1.8164063 -0.1875,0.890625 -0.1523437,1.5585937 0.1054688,2.0273437 0.2578125,0.46875 0.6914062,0.69140626 1.3007812,0.69140626 0.9492188,0 1.6992188,-0.42187496 2.2734375,-1.27734376 0.3164063,-0.4921875 0.5390625,-1.0546875 0.6679688,-1.6992187 0.2109375,-0.9726563 0.1640625,-1.6875 -0.1289063,-2.15625 -0.3046875,-0.46875 -0.7617187,-0.703125 -1.3828125,-0.703125 z m 0,0"
       style="fill:#000000;fill-opacity:1;fill-rule:nonzero;stroke:none"
       aria-label="g"
       transform="matrix(1.3333333,0,0,1.3333333,526.5896,165.81017)" />
    <path
       id="path61"
       d="M 536.203,100.539 H 485.934"
       style="fill:none;stroke:#000000;stroke-width:0.9216;stroke-linecap:butt;stroke-linejoin:miter;stroke-miterlimit:3.25;stroke-dasharray:0.9216, 5.5296;stroke-dashoffset:0;stroke-opacity:1"
       transform="scale(1.3333333)" />
    <path
       id="path62"
       d="m 516.098,100.539 -10.055,-3.351 v 6.703 z"
       style="fill:#000000;fill-opacity:1;fill-rule:evenodd;stroke:none"
       transform="scale(1.3333333)" />
    <path
       id="path63"
       d="m 5.5181358,-10.958216 -1.546875,7.2773439 c -0.1289062,0.5507813 -0.1289062,1.0078125 -0.023437,1.3710938 0.1875,0.6445312 0.7148438,0.984375 1.6171875,0.984375 1.2773438,0 2.2851563,-0.5625 3,-1.7226563 0.375,-0.609375 0.6679688,-1.4648437 0.9023438,-2.5429687 l 1.1601569,-5.3671877 h 1.839844 L 10.147042,-0.00118456 H 8.4009483 L 8.7525108,-1.6183721 c -0.328125,0.421875 -0.6914062,0.77343754 -1.1132812,1.06640629 -0.8320313,0.57421875 -1.734375,0.8671875 -2.7421875,0.8671875 -1.5820313,0 -2.53125,-0.52734375 -2.859375,-1.58203129 -0.1875,-0.5625 -0.1875,-1.3007812 0,-2.2382812 l 1.59375,-7.4531252 z m 0,0"
       style="fill:#000000;fill-opacity:1;fill-rule:nonzero;stroke:none"
       aria-label="u"
       transform="matrix(1.3333333,0,0,1.3333333,667.41983,160.58361)" />
    <path
       id="path64"
       d="m 6.9243858,-7.5129034 c 0.234375,0.1640625 0.421875,0.421875 0.609375,0.7265625 l 0.2226563,-0.984375 H 8.9634483 L 7.4517296,-0.63399719 C 7.2407921,0.36209656 6.9243858,1.1589716 6.5142296,1.7214716 5.7290733,2.7878778 4.5923546,3.3269403 3.0689171,3.3269403 c -0.8554688,0 -1.5117188,-0.1875 -2.0039063,-0.5625 -0.49218749,-0.375 -0.70312499,-0.984375 -0.59765624,-1.79296874 H 1.8150108 c -0.011719,0.36328124 0.058594,0.63281254 0.2109375,0.83203124 0.2226563,0.28125 0.6679688,0.4335938 1.3007813,0.4335938 1.0195312,0 1.7578125,-0.3632813 2.2265625,-1.0664063 0.2695312,-0.42187499 0.5039062,-1.17187499 0.7148437,-2.25 -0.3398437,0.38671876 -0.7148437,0.69140626 -1.125,0.87890626 -0.421875,0.19921875 -0.9257812,0.3046875 -1.546875,0.3046875 -0.8320312,0 -1.5234375,-0.3046875 -2.0390625,-0.90234375 C 1.0532921,-1.4074347 0.94782331,-2.4035284 1.2407921,-3.7980597 c 0.2929687,-1.3007812 0.8085937,-2.34375 1.6171875,-3.0703125 0.796875,-0.7382812 1.6523437,-1.1132812 2.5546875,-1.1132812 0.6210937,0 1.125,0.1523437 1.5117187,0.46875 z m -1.5117187,0.703125 c -0.9257813,0 -1.6523438,0.4335937 -2.1796875,1.3007812 -0.28125,0.46875 -0.5039063,1.0664063 -0.65625,1.8164063 -0.1875,0.890625 -0.1523438,1.5585937 0.1054687,2.0273437 0.2578125,0.46875 0.6914063,0.69140626 1.3007813,0.69140626 0.9492187,0 1.6992187,-0.42187496 2.2734375,-1.27734376 0.3164062,-0.4921875 0.5390625,-1.0546875 0.6679687,-1.6992187 0.2109375,-0.9726563 0.1640625,-1.6875 -0.1289062,-2.15625 -0.3046875,-0.46875 -0.7617188,-0.703125 -1.3828125,-0.703125 z m 0,0"
       style="fill:#000000;fill-opacity:1;fill-rule:nonzero;stroke:none"
       aria-label="g"
       transform="matrix(1.3333333,0,0,1.3333333,682.98233,165.81017)" />
    <path
       id="path65"
       d="m 485.934,100.539 0.765,0.996 0.567,1.156 0.336,1.274 0.074,1.336 -0.192,1.328 -0.449,1.262 -0.683,1.129 -0.872,0.953 -1.019,0.742 -1.109,0.512 -1.149,0.285 -1.133,0.078 -1.074,-0.11 -0.976,-0.253 -0.844,-0.36 -0.688,-0.426 -0.511,-0.453 -0.317,-0.445 -0.117,-0.414 0.082,-0.359 0.281,-0.286 0.465,-0.195 0.629,-0.082 0.766,0.039 0.859,0.184 0.918,0.34 0.922,0.515 0.875,0.695 0.777,0.872 0.621,1.035 0.426,1.172 0.191,1.265 -0.066,1.313 -0.332,1.289 -0.586,1.211 -0.809,1.066 -0.996,0.875 -1.128,0.649 -1.2,0.402 -1.222,0.152 -1.192,-0.078 -1.113,-0.281 -1,-0.442 -0.863,-0.558 -0.703,-0.621 -0.54,-0.637 -0.363,-0.613 -0.187,-0.551 -0.008,-0.457 0.164,-0.34 0.328,-0.203 0.473,-0.055 0.593,0.102 0.688,0.265 0.738,0.43 0.746,0.598 0.703,0.765 0.614,0.918 0.465,1.059 0.277,1.168 0.047,1.234 -0.199,1.258 -0.457,1.223 -0.704,1.129 -0.921,0.972 -1.098,0.778 -1.219,0.535 -1.273,0.277 -1.278,0.02 -1.218,-0.227 -1.118,-0.441 -0.984,-0.613 -0.824,-0.743 -0.656,-0.808 -0.485,-0.832 -0.324,-0.801 -0.164,-0.723 -0.016,-0.613 0.121,-0.469 0.246,-0.301 0.352,-0.121 0.445,0.067 0.512,0.258 0.547,0.441 0.551,0.621 0.508,0.785 0.421,0.93 0.293,1.051 0.118,1.136 -0.094,1.188 -0.324,1.184 -0.571,1.132 -0.8,1.02 -1.008,0.859 -1.172,0.653 -1.278,0.406 -1.328,0.14 -1.308,-0.117 -1.227,-0.371 -1.101,-0.59 -0.938,-0.765 -0.754,-0.895 -0.562,-0.969 -0.375,-0.992 -0.207,-0.961 -0.055,-0.886 0.07,-0.77 0.176,-0.617 0.258,-0.442 0.324,-0.246 0.363,-0.043 0.391,0.168 0.395,0.375 0.371,0.563 0.316,0.734 0.231,0.883 0.109,0.996 -0.051,1.074 -0.234,1.11 -0.449,1.09 -0.665,1.023 -0.874,0.902 -1.067,0.727 -1.215,0.512 -1.312,0.265 h -1.344 l -1.312,-0.265 -1.215,-0.512 -1.067,-0.727 -0.875,-0.902 -0.664,-1.023 -0.449,-1.09 -0.238,-1.11 -0.047,-1.074 0.109,-0.996 0.231,-0.883 0.316,-0.734 0.371,-0.563 0.395,-0.375 0.39,-0.168 0.364,0.043 0.324,0.246 0.258,0.442 0.175,0.617 0.071,0.77 -0.055,0.886 -0.207,0.961 -0.375,0.992 -0.562,0.969 -0.754,0.895 -0.938,0.765 -1.101,0.59 -1.227,0.371 -1.309,0.117 -1.328,-0.14 -1.277,-0.406 -1.172,-0.653 -1.008,-0.859 -0.801,-1.02 -0.57,-1.132 -0.324,-1.184 -0.094,-1.188 0.117,-1.136 0.293,-1.051 0.422,-0.93 0.508,-0.785 0.551,-0.621 0.547,-0.441 0.511,-0.258 0.446,-0.067 0.351,0.121 0.246,0.301 0.121,0.469 -0.019,0.613 -0.16,0.723 -0.324,0.801 -0.485,0.832 -0.656,0.808 -0.824,0.743 -0.985,0.613 -1.117,0.441 -1.219,0.227 -1.277,-0.02 -1.273,-0.277 -1.219,-0.535 -1.098,-0.778 -0.922,-0.972 -0.703,-1.129 -0.457,-1.223 -0.199,-1.258 0.047,-1.234 0.277,-1.168 0.465,-1.059 0.613,-0.918 0.703,-0.765 0.746,-0.598 0.739,-0.43 0.687,-0.265 0.594,-0.102 0.473,0.055 0.328,0.203 0.164,0.34 -0.008,0.457 -0.187,0.551 -0.364,0.613 -0.539,0.637 -0.703,0.621 -0.863,0.558 -1.004,0.442 -1.109,0.281 -1.192,0.078 -1.223,-0.152 -1.203,-0.402 -1.125,-0.649 -0.996,-0.875 -0.808,-1.066 -0.586,-1.211 -0.332,-1.289 -0.067,-1.313 0.192,-1.265 0.425,-1.172 0.622,-1.035 0.777,-0.872 0.875,-0.695 0.922,-0.515 0.918,-0.34 0.859,-0.184 0.766,-0.039 0.629,0.082 0.465,0.195 0.281,0.286 0.082,0.359 -0.117,0.414 -0.317,0.445 -0.512,0.453 -0.687,0.426 -0.844,0.36 -0.976,0.253 -1.075,0.11 -1.132,-0.078 -1.149,-0.285 -1.109,-0.512 -1.02,-0.742 -0.871,-0.953 -0.683,-1.129 -0.45,-1.262 -0.191,-1.328 0.074,-1.336 0.336,-1.274 0.567,-1.156 0.765,-0.996"
       style="fill:none;stroke:#000000;stroke-width:0.9216;stroke-linecap:square;stroke-linejoin:miter;stroke-miterlimit:3.25;stroke-dasharray:none;stroke-opacity:1"
       transform="scale(1.3333333)" />
    <path
       id="path66"
       d="m 9.7041586,-10.522701 c 0.3164064,0.234375 0.5859374,0.5859371 0.8437504,1.0312496 l 0.304687,-1.3828126 h 1.710938 L 10.44244,-0.87817012 C 10.149471,0.50464238 9.7041586,1.6179236 9.1182211,2.4147986 c -1.0898438,1.4882813 -2.6953125,2.25 -4.8164063,2.25 -1.1953125,0 -2.1210937,-0.2695312 -2.8125,-0.796875 C 0.79790856,3.3405799 0.50493981,2.4968299 0.65728356,1.3601111 H 2.5440023 c -0.023437,0.5039063 0.082031,0.890625 0.2929688,1.1601563 0.3164062,0.3984375 0.9492187,0.609375 1.828125,0.609375 1.4296875,0 2.4492187,-0.5039063 3.1054687,-1.4882813 0.375,-0.5859375 0.7148438,-1.640624975 1.0078125,-3.1523437 -0.4804687,0.55078123 -1.0078125,0.96093748 -1.5703125,1.24218748 -0.5976562,0.269531245 -1.3007812,0.421875 -2.1679687,0.421875 -1.171875,0 -2.1445313,-0.421875 -2.859375,-1.26562498 -0.7148438,-0.8554688 -0.8554688,-2.25 -0.4335938,-4.1953125 0.3984375,-1.828125 1.1367188,-3.28125 2.2617188,-4.3125 1.1132812,-1.0312504 2.3085937,-1.5468754 3.5742187,-1.5468754 0.8554688,0 1.5703125,0.210938 2.1210938,0.644532 z m -2.1210938,0.9843746 c -1.3007812,0 -2.3085937,0.609375 -3.046875,1.828125 -0.3984375,0.65625 -0.7148437,1.5 -0.9257812,2.5429688 -0.2695313,1.2421875 -0.2109375,2.1914062 0.1523437,2.8359375 0.3515625,0.65625 0.9609375,0.9726562 1.828125,0.9726562 1.3242188,0 2.3671875,-0.5976562 3.1640625,-1.7929687 0.4453125,-0.6914063 0.7617188,-1.4648438 0.9492188,-2.3671875 0.2929687,-1.3710938 0.234375,-2.3789063 -0.1875,-3.0234375 -0.421875,-0.65625 -1.078125,-0.9960938 -1.9335938,-0.9960938 z m 0,0"
       style="fill:#000000;fill-opacity:1;fill-rule:nonzero;stroke:none"
       aria-label="g"
       transform="matrix(1.3333333,0,0,1.3333333,594.85409,215.89746)" />
    <path
       id="path67"
       d="m 435.664,71.215 c -11.203,5.269 -17.906,16.996 -16.754,29.324"
       style="fill:none;stroke:#000000;stroke-width:0.9216;stroke-linecap:butt;stroke-linejoin:miter;stroke-miterlimit:3.25;stroke-dasharray:0.9216, 5.5296;stroke-dashoffset:0;stroke-opacity:1"
       transform="scale(1.3333333)" />
    <path
       id="path68"
       d="m 425.148,78.863 -7.898,7.067 5.82,3.328 z"
       style="fill:#000000;fill-opacity:1;fill-rule:evenodd;stroke:none"
       transform="scale(1.3333333)" />
    <path
       id="path69"
       d="m 5.5193693,-10.956548 -1.546875,7.277344 c -0.1289063,0.5507813 -0.1289063,1.0078125 -0.023437,1.3710938 0.1875,0.6445312 0.7148437,0.984375 1.6171875,0.984375 1.2773437,0 2.2851562,-0.5625 3,-1.7226563 0.375,-0.609375 0.6679687,-1.4648437 0.9023437,-2.5429687 l 1.1601565,-5.3671878 h 1.839843 L 10.148276,4.835e-4 H 8.4021818 L 8.7537443,-1.616704 C 8.4256193,-1.194829 8.062338,-0.8432665 7.640463,-0.55029775 6.8084318,0.023921 5.906088,0.31688975 4.8982755,0.31688975 c -1.5820312,0 -2.53125,-0.52734375 -2.859375,-1.58203125 -0.1875,-0.5625 -0.1875,-1.3007812 0,-2.2382812 l 1.59375,-7.4531253 z m 0,0"
       style="fill:#000000;fill-opacity:1;fill-rule:nonzero;stroke:none"
       aria-label="u"
       transform="matrix(1.3333333,0,0,1.3333333,527.25022,98.155605)" />
    <path
       id="path70"
       d="m 6.9256193,-7.5112354 c 0.234375,0.1640625 0.421875,0.421875 0.609375,0.7265625 l 0.2226562,-0.984375 H 8.9646818 L 7.452963,-0.63232913 C 7.2420255,0.36376462 6.9256193,1.1606396 6.515463,1.7231396 5.7303068,2.7895459 4.593588,3.3286084 3.0701505,3.3286084 c -0.8554687,0 -1.5117187,-0.1875 -2.0039062,-0.5625 C 0.57405675,2.3911084 0.36311925,1.7817334 0.468588,0.97313962 H 1.8162443 C 1.8045255,1.3364209 1.874838,1.6059521 2.0271818,1.8051709 c 0.2226562,0.28125 0.6679687,0.4335937 1.3007812,0.4335937 1.0195313,0 1.7578125,-0.3632812 2.2265625,-1.0664062 0.2695313,-0.42187503 0.5039063,-1.171875025 0.7148438,-2.25 -0.3398438,0.38671872 -0.7148438,0.69140622 -1.125,0.87890622 -0.421875,0.199218755 -0.9257813,0.3046875 -1.546875,0.3046875 -0.8320313,0 -1.5234375,-0.3046875 -2.0390625,-0.90234375 C 1.0545255,-1.4057666 0.94905675,-2.4018604 1.2420255,-3.7963916 c 0.2929688,-1.3007813 0.8085938,-2.34375 1.6171875,-3.0703125 0.796875,-0.7382813 1.6523438,-1.1132813 2.5546875,-1.1132813 0.6210938,0 1.125,0.1523438 1.5117188,0.46875 z m -1.5117188,0.703125 c -0.9257812,0 -1.6523437,0.4335938 -2.1796875,1.3007813 -0.28125,0.46875 -0.5039062,1.0664062 -0.65625,1.8164062 -0.1875,0.890625 -0.1523437,1.5585938 0.1054688,2.0273438 0.2578125,0.46875 0.6914062,0.69140622 1.3007812,0.69140622 0.9492188,0 1.6992188,-0.42187502 2.2734375,-1.27734372 0.3164063,-0.4921875 0.5390625,-1.0546875 0.6679688,-1.6992188 0.2109375,-0.9726562 0.1640625,-1.6875 -0.1289063,-2.15625 -0.3046875,-0.46875 -0.7617187,-0.703125 -1.3828125,-0.703125 z m 0,0"
       style="fill:#000000;fill-opacity:1;fill-rule:nonzero;stroke:none"
       aria-label="g"
       transform="matrix(1.3333333,0,0,1.3333333,542.81272,103.38217)" />
    <path
       id="path71"
       d="m 469.18,71.215 c -1.153,-5.113 -4.571,-9.418 -9.289,-11.695 -4.719,-2.282 -10.219,-2.282 -14.938,0 -4.719,2.277 -8.137,6.582 -9.289,11.695"
       style="fill:none;stroke:#000000;stroke-width:0.9216;stroke-linecap:butt;stroke-linejoin:miter;stroke-miterlimit:3.25;stroke-dasharray:0.9216, 5.5296;stroke-dashoffset:0;stroke-opacity:1"
       transform="scale(1.3333333)" />
    <path
       id="path72"
       d="M 457.449,57.809 447.395,54.457 V 61.16 Z"
       style="fill:#000000;fill-opacity:1;fill-rule:evenodd;stroke:none"
       transform="scale(1.3333333)" />
    <path
       id="path73"
       d="m 5.5189244,-10.956803 -1.546875,7.2773434 c -0.1289062,0.5507812 -0.1289062,1.0078125 -0.023437,1.3710937 0.1875,0.6445313 0.7148438,0.984375 1.6171875,0.984375 1.2773438,0 2.2851563,-0.5625 3,-1.7226562 0.375,-0.609375 0.6679688,-1.4648438 0.9023438,-2.5429688 L 10.6283,-10.956803 h 1.839844 L 10.147831,2.27875e-4 H 8.4017369 L 8.7532994,-1.6169596 c -0.328125,0.421875 -0.6914062,0.77343748 -1.1132812,1.06640623 -0.8320313,0.57421875 -1.734375,0.8671875 -2.7421875,0.8671875 -1.5820313,0 -2.53125,-0.52734375 -2.859375,-1.58203123 -0.1875,-0.5625 -0.1875,-1.3007813 0,-2.2382813 l 1.59375,-7.4531246 z m 0,0"
       style="fill:#000000;fill-opacity:1;fill-rule:nonzero;stroke:none"
       aria-label="u"
       transform="matrix(1.3333333,0,0,1.3333333,589.22347,55.538759)" />
    <path
       id="path74"
       d="m 6.9251744,-7.511491 c 0.234375,0.1640625 0.421875,0.421875 0.609375,0.7265625 l 0.2226563,-0.984375 H 8.9642369 L 7.4525182,-0.63258475 C 7.2415807,0.363509 6.9251744,1.160384 6.5150182,1.722884 5.7298619,2.7892903 4.5931432,3.3283528 3.0697057,3.3283528 c -0.8554688,0 -1.5117188,-0.1875 -2.0039063,-0.5625 C 0.57361194,2.3908528 0.36267444,1.7814778 0.46814319,0.972884 H 1.8157994 c -0.011719,0.3632813 0.058594,0.6328125 0.2109375,0.8320313 0.2226563,0.28125 0.6679688,0.4335937 1.3007813,0.4335937 1.0195312,0 1.7578125,-0.3632812 2.2265625,-1.0664062 0.2695312,-0.42187505 0.5039062,-1.17187505 0.7148437,-2.25 -0.3398437,0.3867187 -0.7148437,0.6914062 -1.125,0.8789062 -0.421875,0.19921875 -0.9257812,0.3046875 -1.546875,0.3046875 -0.8320312,0 -1.5234375,-0.3046875 -2.0390625,-0.90234375 C 1.0540807,-1.4060222 0.94861194,-2.402116 1.2415807,-3.7966472 c 0.2929687,-1.3007813 0.8085937,-2.34375 1.6171875,-3.0703125 0.796875,-0.7382813 1.6523437,-1.1132813 2.5546875,-1.1132813 0.6210937,0 1.125,0.1523438 1.5117187,0.46875 z m -1.5117187,0.703125 c -0.9257813,0 -1.6523438,0.4335938 -2.1796875,1.3007813 -0.28125,0.46875 -0.5039063,1.0664062 -0.65625,1.8164062 -0.1875,0.890625 -0.1523438,1.5585938 0.1054687,2.0273438 0.2578125,0.46875 0.6914063,0.6914062 1.3007813,0.6914062 0.9492187,0 1.6992187,-0.421875 2.2734375,-1.2773437 0.3164062,-0.4921875 0.5390625,-1.0546875 0.6679687,-1.6992188 0.2109375,-0.9726562 0.1640625,-1.6875 -0.1289062,-2.15625 -0.3046875,-0.46875 -0.7617188,-0.703125 -1.3828125,-0.703125 z m 0,0"
       style="fill:#000000;fill-opacity:1;fill-rule:nonzero;stroke:none"
       aria-label="g"
       transform="matrix(1.3333333,0,0,1.3333333,604.78597,60.765321)" />
    <path
       id="path75"
       d="m 435.664,71.215 -0.602,1.277 -0.23,1.457 0.191,1.516 0.61,1.43 0.972,1.207 1.235,0.875 1.379,0.472 1.398,0.067 1.313,-0.309 1.156,-0.598 0.969,-0.8 0.761,-0.891 0.567,-0.895 0.371,-0.808 0.18,-0.668 -0.02,-0.488 -0.223,-0.289 -0.425,-0.09 -0.625,0.105 -0.786,0.289 -0.89,0.481 -0.926,0.672 -0.867,0.882 -0.703,1.082 -0.442,1.258 -0.093,1.379 0.308,1.41 0.719,1.313 1.086,1.097 1.351,0.766 1.497,0.367 1.488,-0.062 1.355,-0.457 1.129,-0.789 0.852,-1.02 0.574,-1.148 0.324,-1.18 0.121,-1.125 -0.027,-0.988 -0.137,-0.797 -0.219,-0.563 -0.296,-0.293 -0.371,-0.015 -0.446,0.258 -0.508,0.511 -0.531,0.746 -0.504,0.953 -0.394,1.122 -0.203,1.242 0.074,1.308 0.414,1.293 0.777,1.168 1.125,0.942 1.391,0.613 1.539,0.215 1.539,-0.215 1.391,-0.613 1.125,-0.942 0.777,-1.168 0.414,-1.293 0.074,-1.308 -0.203,-1.242 -0.394,-1.122 -0.504,-0.953 -0.532,-0.746 -0.507,-0.511 -0.446,-0.258 -0.371,0.015 -0.297,0.293 -0.218,0.563 -0.137,0.797 -0.028,0.988 0.122,1.125 0.324,1.18 0.574,1.148 0.852,1.02 1.128,0.789 1.356,0.457 1.488,0.062 1.496,-0.367 1.352,-0.766 1.086,-1.097 0.719,-1.313 0.308,-1.41 -0.094,-1.379 -0.441,-1.258 -0.703,-1.082 -0.867,-0.882 -0.926,-0.672 -0.891,-0.481 -0.785,-0.289 -0.625,-0.105 -0.43,0.09 -0.218,0.289 -0.02,0.488 0.18,0.668 0.371,0.808 0.566,0.895 0.762,0.891 0.969,0.8 1.156,0.598 1.313,0.309 1.398,-0.067 1.379,-0.472 1.234,-0.875 0.973,-1.207 0.609,-1.43 0.192,-1.516 -0.231,-1.457 -0.601,-1.277"
       style="fill:none;stroke:#000000;stroke-width:0.9216;stroke-linecap:square;stroke-linejoin:miter;stroke-miterlimit:3.25;stroke-dasharray:none;stroke-opacity:1"
       transform="scale(1.3333333)" />
    <path
       id="path76"
       d="m 9.7041586,-10.524046 c 0.3164064,0.234375 0.5859374,0.5859379 0.8437504,1.0312504 l 0.304687,-1.3828124 h 1.710938 L 10.44244,-0.87951431 C 10.149471,0.50329819 9.7041586,1.6165794 9.1182211,2.4134544 c -1.0898438,1.4882813 -2.6953125,2.25 -4.8164063,2.25 -1.1953125,0 -2.1210937,-0.2695312 -2.8125,-0.796875 C 0.79790856,3.3392357 0.50493981,2.4954857 0.65728356,1.3587669 H 2.5440023 c -0.023437,0.5039063 0.082031,0.890625 0.2929688,1.1601563 0.3164062,0.3984375 0.9492187,0.609375 1.828125,0.609375 1.4296875,0 2.4492187,-0.5039063 3.1054687,-1.4882813 0.375,-0.5859375 0.7148438,-1.6406249625 1.0078125,-3.1523437 -0.4804687,0.55078124 -1.0078125,0.96093749 -1.5703125,1.24218749 -0.5976562,0.2695312475 -1.3007812,0.421875 -2.1679687,0.421875 -1.171875,0 -2.1445313,-0.421875 -2.859375,-1.26562499 -0.7148438,-0.8554688 -0.8554688,-2.25 -0.4335938,-4.1953125 0.3984375,-1.828125 1.1367188,-3.28125 2.2617188,-4.3125 1.1132812,-1.0312502 2.3085937,-1.5468752 3.5742187,-1.5468752 0.8554688,0 1.5703125,0.210938 2.1210938,0.644531 z m -2.1210938,0.9843754 c -1.3007812,0 -2.3085937,0.609375 -3.046875,1.828125 -0.3984375,0.65625 -0.7148437,1.5 -0.9257812,2.5429688 -0.2695313,1.2421875 -0.2109375,2.1914062 0.1523437,2.8359375 0.3515625,0.65625 0.9609375,0.9726562 1.828125,0.9726562 1.3242188,0 2.3671875,-0.5976562 3.1640625,-1.7929687 0.4453125,-0.6914063 0.7617188,-1.4648438 0.9492188,-2.3671875 0.2929687,-1.3710938 0.234375,-2.3789063 -0.1875,-3.0234375 -0.421875,-0.65625 -1.078125,-0.9960938 -1.9335938,-0.9960938 z m 0,0"
       style="fill:#000000;fill-opacity:1;fill-rule:nonzero;stroke:none"
       aria-label="g"
       transform="matrix(1.3333333,0,0,1.3333333,594.85409,149.98909)" />
    <path
       id="path77"
       d="M 485.934,100.539 C 486.945,88.238 480.285,76.586 469.18,71.215"
       style="fill:none;stroke:#000000;stroke-width:0.9216;stroke-linecap:butt;stroke-linejoin:miter;stroke-miterlimit:3.25;stroke-dasharray:0.9216, 5.5296;stroke-dashoffset:0;stroke-opacity:1"
       transform="scale(1.3333333)" />
    <path
       id="path78"
       d="m 484.594,87.645 -2.078,-10.395 -5.817,3.328 z"
       style="fill:#000000;fill-opacity:1;fill-rule:evenodd;stroke:none"
       transform="scale(1.3333333)" />
    <path
       id="path79"
       d="m 5.518559,-10.957012 -1.546875,7.2773437 c -0.1289063,0.5507812 -0.1289063,1.0078125 -0.023437,1.3710937 0.1875,0.6445313 0.7148437,0.984375 1.6171875,0.984375 1.2773437,0 2.2851562,-0.5625 3,-1.7226562 0.375,-0.609375 0.6679687,-1.4648438 0.9023437,-2.5429688 l 1.1601568,-5.3671874 h 1.839844 L 10.147465,1.91875e-5 H 8.4013715 L 8.752934,-1.6171683 c -0.328125,0.421875 -0.6914063,0.77343749 -1.1132813,1.06640624 -0.8320312,0.57421875 -1.734375,0.8671875 -2.7421875,0.8671875 -1.5820312,0 -2.53125,-0.52734375 -2.859375,-1.58203124 -0.1875,-0.5625 -0.1875,-1.3007813 0,-2.2382813 l 1.59375,-7.4531249 z m 0,0"
       style="fill:#000000;fill-opacity:1;fill-rule:nonzero;stroke:none"
       aria-label="u"
       transform="matrix(1.3333333,0,0,1.3333333,651.07942,98.222631)" />
    <path
       id="path80"
       d="m 6.924809,-7.5116997 c 0.234375,0.1640625 0.421875,0.421875 0.609375,0.7265625 l 0.2226563,-0.984375 H 8.9638715 L 7.4521528,-0.63279344 C 7.2412153,0.36330031 6.924809,1.1601753 6.5146528,1.7226753 5.7294965,2.7890816 4.5927778,3.3281441 3.0693403,3.3281441 c -0.8554688,0 -1.5117188,-0.1875 -2.0039063,-0.5625 -0.4921875,-0.375 -0.703125,-0.984375 -0.59765625,-1.79296879 H 1.815434 C 1.803715,1.3359566 1.874028,1.6054878 2.0263715,1.8047066 c 0.2226563,0.28125 0.6679688,0.4335937 1.3007813,0.4335937 1.0195312,0 1.7578125,-0.3632812 2.2265625,-1.0664062 0.2695312,-0.42187504 0.5039062,-1.1718750375 0.7148437,-2.25 -0.3398437,0.38671871 -0.7148437,0.69140621 -1.125,0.87890621 -0.421875,0.1992187525 -0.9257812,0.3046875 -1.546875,0.3046875 -0.8320312,0 -1.5234375,-0.3046875 -2.0390625,-0.90234375 C 1.0537153,-1.4062309 0.9482465,-2.4023247 1.2412153,-3.7968559 c 0.2929687,-1.3007813 0.8085937,-2.34375 1.6171875,-3.0703125 0.796875,-0.7382813 1.6523437,-1.1132813 2.5546875,-1.1132813 0.6210937,0 1.125,0.1523438 1.5117187,0.46875 z m -1.5117187,0.703125 c -0.9257813,0 -1.6523438,0.4335938 -2.1796875,1.3007813 -0.28125,0.46875 -0.5039063,1.0664062 -0.65625,1.8164062 -0.1875,0.890625 -0.1523438,1.5585938 0.1054687,2.0273438 0.2578125,0.46875 0.6914063,0.69140621 1.3007813,0.69140621 0.9492187,0 1.6992187,-0.42187501 2.2734375,-1.27734371 0.3164062,-0.4921875 0.5390625,-1.0546875 0.6679687,-1.6992188 0.2109375,-0.9726562 0.1640625,-1.6875 -0.1289062,-2.15625 -0.3046875,-0.46875 -0.7617188,-0.703125 -1.3828125,-0.703125 z m 0,0"
       style="fill:#000000;fill-opacity:1;fill-rule:nonzero;stroke:none"
       aria-label="g"
       transform="matrix(1.3333333,0,0,1.3333333,666.64192,103.44919)" />
    <path
       id="path81"
       d="m 472.863,71.215 c 0,0.976 -0.386,1.914 -1.078,2.605 -0.691,0.692 -1.629,1.082 -2.605,1.082 -0.981,0 -1.918,-0.39 -2.61,-1.082 -0.691,-0.691 -1.078,-1.629 -1.078,-2.605 0,-0.977 0.387,-1.914 1.078,-2.606 0.692,-0.691 1.629,-1.082 2.61,-1.082 0.976,0 1.914,0.391 2.605,1.082 0.692,0.692 1.078,1.629 1.078,2.606 z"
       style="fill:#000000;fill-opacity:1;fill-rule:evenodd;stroke:none"
       transform="scale(1.3333333)" />
    <path
       id="path82"
       d="m 439.352,71.215 c 0,0.976 -0.387,1.914 -1.079,2.605 -0.691,0.692 -1.628,1.082 -2.609,1.082 -0.976,0 -1.914,-0.39 -2.605,-1.082 -0.692,-0.691 -1.079,-1.629 -1.079,-2.605 0,-0.977 0.387,-1.914 1.079,-2.606 0.691,-0.691 1.629,-1.082 2.605,-1.082 0.981,0 1.918,0.391 2.609,1.082 0.692,0.692 1.079,1.629 1.079,2.606 z"
       style="fill:#000000;fill-opacity:1;fill-rule:evenodd;stroke:none"
       transform="scale(1.3333333)" />
    <path
       id="path83"
       d="m 422.594,100.539 c 0,0.977 -0.387,1.914 -1.078,2.606 -0.692,0.691 -1.629,1.078 -2.606,1.078 -0.98,0 -1.918,-0.387 -2.609,-1.078 -0.692,-0.692 -1.078,-1.629 -1.078,-2.606 0,-0.98 0.386,-1.918 1.078,-2.609 0.691,-0.692 1.629,-1.078 2.609,-1.078 0.977,0 1.914,0.386 2.606,1.078 0.691,0.691 1.078,1.629 1.078,2.609 z"
       style="fill:#000000;fill-opacity:1;fill-rule:evenodd;stroke:none"
       transform="scale(1.3333333)" />
    <path
       id="path84"
       d="m 489.621,100.539 c 0,0.977 -0.387,1.914 -1.078,2.606 -0.691,0.691 -1.629,1.078 -2.609,1.078 -0.977,0 -1.914,-0.387 -2.606,-1.078 -0.691,-0.692 -1.078,-1.629 -1.078,-2.606 0,-0.98 0.387,-1.918 1.078,-2.609 0.692,-0.692 1.629,-1.078 2.606,-1.078 0.98,0 1.918,0.386 2.609,1.078 0.691,0.691 1.078,1.629 1.078,2.609 z"
       style="fill:#000000;fill-opacity:1;fill-rule:evenodd;stroke:none"
       transform="scale(1.3333333)" />
    <path
       id="path85"
       d="M 552.961,100.539 H 603.23"
       style="fill:none;stroke:#000000;stroke-width:0.9216;stroke-linecap:butt;stroke-linejoin:miter;stroke-miterlimit:3.25;stroke-dasharray:0.9216, 5.5296;stroke-dashoffset:0;stroke-opacity:1"
       transform="scale(1.3333333)" />
    <path
       id="path86"
       d="m 583.121,100.539 -10.055,3.352 v -6.703 z"
       style="fill:#000000;fill-opacity:1;fill-rule:evenodd;stroke:none"
       transform="scale(1.3333333)" />
    <path
       id="path87"
       d="m 5.5180714,-10.958216 -1.546875,7.2773439 c -0.1289062,0.5507813 -0.1289062,1.0078125 -0.023437,1.3710938 0.1875,0.6445312 0.7148438,0.984375 1.6171875,0.984375 1.2773438,0 2.2851563,-0.5625 3,-1.7226563 0.375,-0.609375 0.6679688,-1.4648437 0.9023438,-2.5429687 L 10.627446,-10.958216 H 12.46729 L 10.146978,-0.00118456 H 8.4008839 L 8.7524464,-1.6183721 c -0.328125,0.421875 -0.6914062,0.77343754 -1.1132812,1.06640629 -0.8320313,0.57421875 -1.734375,0.8671875 -2.7421875,0.8671875 -1.5820313,0 -2.53125,-0.52734375 -2.859375,-1.58203129 -0.1875,-0.5625 -0.1875,-1.3007812 0,-2.2382812 l 1.59375,-7.4531252 z m 0,0"
       style="fill:#000000;fill-opacity:1;fill-rule:nonzero;stroke:none"
       aria-label="u"
       transform="matrix(1.3333333,0,0,1.3333333,756.7871,160.58361)" />
    <path
       id="path88"
       d="m 6.9243214,-7.5129034 c 0.234375,0.1640625 0.421875,0.421875 0.609375,0.7265625 l 0.2226563,-0.984375 H 8.9633839 L 7.4516652,-0.63399719 C 7.2407277,0.36209656 6.9243214,1.1589716 6.5141652,1.7214716 5.7290089,2.7878778 4.5922902,3.3269403 3.0688527,3.3269403 c -0.8554688,0 -1.5117188,-0.1875 -2.0039063,-0.5625 -0.49218746,-0.375 -0.70312496,-0.984375 -0.59765621,-1.79296874 H 1.8149464 c -0.011719,0.36328124 0.058594,0.63281254 0.2109375,0.83203124 0.2226563,0.28125 0.6679688,0.4335938 1.3007813,0.4335938 1.0195312,0 1.7578125,-0.3632813 2.2265625,-1.0664063 0.2695312,-0.42187499 0.5039062,-1.17187499 0.7148437,-2.25 -0.3398437,0.38671876 -0.7148437,0.69140626 -1.125,0.87890626 -0.421875,0.19921875 -0.9257812,0.3046875 -1.546875,0.3046875 -0.8320312,0 -1.5234375,-0.3046875 -2.0390625,-0.90234375 C 1.0532277,-1.4074347 0.94775894,-2.4035284 1.2407277,-3.7980597 c 0.2929687,-1.3007812 0.8085937,-2.34375 1.6171875,-3.0703125 0.796875,-0.7382812 1.6523437,-1.1132812 2.5546875,-1.1132812 0.6210937,0 1.125,0.1523437 1.5117187,0.46875 z m -1.5117187,0.703125 c -0.9257813,0 -1.6523438,0.4335937 -2.1796875,1.3007812 -0.28125,0.46875 -0.5039063,1.0664063 -0.65625,1.8164063 -0.1875,0.890625 -0.1523438,1.5585937 0.1054687,2.0273437 0.2578125,0.46875 0.6914063,0.69140626 1.3007813,0.69140626 0.9492187,0 1.6992187,-0.42187496 2.2734375,-1.27734376 0.3164062,-0.4921875 0.5390625,-1.0546875 0.6679687,-1.6992187 0.2109375,-0.9726563 0.1640625,-1.6875 -0.1289062,-2.15625 -0.3046875,-0.46875 -0.7617188,-0.703125 -1.3828125,-0.703125 z m 0,0"
       style="fill:#000000;fill-opacity:1;fill-rule:nonzero;stroke:none"
       aria-label="g"
       transform="matrix(1.3333333,0,0,1.3333333,772.3496,165.81017)" />
    <path
       id="path89"
       d="M 720.523,100.539 H 670.254"
       style="fill:none;stroke:#000000;stroke-width:0.9216;stroke-linecap:butt;stroke-linejoin:miter;stroke-miterlimit:3.25;stroke-dasharray:0.9216, 5.5296;stroke-dashoffset:0;stroke-opacity:1"
       transform="scale(1.3333333)" />
    <path
       id="path90"
       d="m 700.414,100.539 -10.051,-3.351 v 6.703 z"
       style="fill:#000000;fill-opacity:1;fill-rule:evenodd;stroke:none"
       transform="scale(1.3333333)" />
    <path
       id="path91"
       d="m 5.5194249,-10.958216 -1.546875,7.2773439 c -0.1289063,0.5507813 -0.1289063,1.0078125 -0.023437,1.3710938 0.1875,0.6445312 0.7148437,0.984375 1.6171875,0.984375 1.2773437,0 2.2851562,-0.5625 3,-1.7226563 0.375,-0.609375 0.6679687,-1.4648437 0.9023437,-2.5429687 L 10.6288,-10.958216 h 1.839844 L 10.148331,-0.00118456 H 8.4022374 L 8.7537999,-1.6183721 c -0.328125,0.421875 -0.6914063,0.77343754 -1.1132813,1.06640629 -0.8320312,0.57421875 -1.734375,0.8671875 -2.7421875,0.8671875 -1.5820312,0 -2.53125,-0.52734375 -2.859375,-1.58203129 -0.1875,-0.5625 -0.1875,-1.3007812 0,-2.2382812 l 1.59375,-7.4531252 z m 0,0"
       style="fill:#000000;fill-opacity:1;fill-rule:nonzero;stroke:none"
       aria-label="u"
       transform="matrix(1.3333333,0,0,1.3333333,913.17983,160.58361)" />
    <path
       id="path92"
       d="m 6.9256749,-7.5129034 c 0.234375,0.1640625 0.421875,0.421875 0.609375,0.7265625 l 0.2226562,-0.984375 H 8.9647374 L 7.4530186,-0.63399719 C 7.2420811,0.36209656 6.9256749,1.1589716 6.5155186,1.7214716 5.7303624,2.7878778 4.5936436,3.3269403 3.0702061,3.3269403 c -0.8554687,0 -1.5117187,-0.1875 -2.0039062,-0.5625 -0.49218752,-0.375 -0.70312502,-0.984375 -0.59765627,-1.79296874 H 1.8162999 c -0.011719,0.36328124 0.058594,0.63281254 0.2109375,0.83203124 0.2226562,0.28125 0.6679687,0.4335938 1.3007812,0.4335938 1.0195313,0 1.7578125,-0.3632813 2.2265625,-1.0664063 0.2695313,-0.42187499 0.5039063,-1.17187499 0.7148438,-2.25 -0.3398438,0.38671876 -0.7148438,0.69140626 -1.125,0.87890626 -0.421875,0.19921875 -0.9257813,0.3046875 -1.546875,0.3046875 -0.8320313,0 -1.5234375,-0.3046875 -2.0390625,-0.90234375 C 1.0545811,-1.4074347 0.94911238,-2.4035284 1.2420811,-3.7980597 c 0.2929688,-1.3007812 0.8085938,-2.34375 1.6171875,-3.0703125 0.796875,-0.7382812 1.6523438,-1.1132812 2.5546875,-1.1132812 0.6210938,0 1.125,0.1523437 1.5117188,0.46875 z m -1.5117188,0.703125 c -0.9257812,0 -1.6523437,0.4335937 -2.1796875,1.3007812 -0.28125,0.46875 -0.5039062,1.0664063 -0.65625,1.8164063 -0.1875,0.890625 -0.1523437,1.5585937 0.1054688,2.0273437 0.2578125,0.46875 0.6914062,0.69140626 1.3007812,0.69140626 0.9492188,0 1.6992188,-0.42187496 2.2734375,-1.27734376 0.3164063,-0.4921875 0.5390625,-1.0546875 0.6679688,-1.6992187 0.2109375,-0.9726563 0.1640625,-1.6875 -0.1289063,-2.15625 -0.3046875,-0.46875 -0.7617187,-0.703125 -1.3828125,-0.703125 z m 0,0"
       style="fill:#000000;fill-opacity:1;fill-rule:nonzero;stroke:none"
       aria-label="g"
       transform="matrix(1.3333333,0,0,1.3333333,928.74233,165.81017)" />
    <path
       id="path93"
       d="m 603.23,100.539 c 0,8.887 3.532,17.41 9.813,23.695 6.285,6.286 14.812,9.817 23.699,9.817 8.887,0 17.41,-3.531 23.696,-9.817 6.285,-6.285 9.816,-14.808 9.816,-23.695"
       style="fill:none;stroke:#000000;stroke-width:0.9216;stroke-linecap:butt;stroke-linejoin:miter;stroke-miterlimit:3.25;stroke-dasharray:0.9216, 5.5296;stroke-dashoffset:0;stroke-opacity:1"
       transform="scale(1.3333333)" />
    <path
       id="path94"
       d="m 641.77,134.051 -10.055,3.351 v -6.703 z"
       style="fill:#000000;fill-opacity:1;fill-rule:evenodd;stroke:none"
       transform="scale(1.3333333)" />
    <path
       id="path95"
       d="m 5.5202135,-10.958248 -1.546875,7.2773442 c -0.1289062,0.5507813 -0.1289062,1.0078125 -0.023437,1.3710938 0.1875,0.6445312 0.7148438,0.984375 1.6171875,0.984375 1.2773438,0 2.2851563,-0.5625 3,-1.7226563 0.375,-0.609375 0.6679688,-1.4648437 0.9023438,-2.5429687 l 1.1601572,-5.367188 h 1.839843 L 10.14912,-0.00121625 H 8.403026 L 8.7545885,-1.6184038 C 8.4264635,-1.1965288 8.0631823,-0.84496625 7.6413073,-0.5519975 6.809276,0.02222125 5.9069323,0.31519 4.8991198,0.31519 c -1.5820313,0 -2.53125,-0.52734375 -2.859375,-1.5820313 -0.1875,-0.5625 -0.1875,-1.3007812 0,-2.2382812 l 1.59375,-7.4531255 z m 0,0"
       style="fill:#000000;fill-opacity:1;fill-rule:nonzero;stroke:none"
       aria-label="u"
       transform="matrix(1.3333333,0,0,1.3333333,834.98347,205.26725)" />
    <path
       id="path96"
       d="m 6.9264635,-7.5129351 c 0.234375,0.1640625 0.421875,0.421875 0.609375,0.7265625 l 0.2226562,-0.984375 H 8.965526 L 7.4538072,-0.63402888 C 7.2428697,0.36206487 6.9264635,1.1589399 6.5163072,1.7214399 5.731151,2.7878461 4.5944322,3.3269086 3.0709947,3.3269086 c -0.8554687,0 -1.5117187,-0.1875 -2.0039062,-0.5625 -0.4921875,-0.375 -0.703125,-0.984375 -0.59765625,-1.79296873 H 1.8170885 C 1.8053697,1.3347211 1.8756822,1.6042524 2.028026,1.8034711 c 0.2226562,0.28125 0.6679687,0.4335938 1.3007812,0.4335938 1.0195313,0 1.7578125,-0.3632813 2.2265625,-1.0664063 0.2695313,-0.42187498 0.5039063,-1.17187498 0.7148438,-2.25 -0.3398438,0.38671877 -0.7148438,0.69140627 -1.125,0.87890627 -0.421875,0.19921875 -0.9257813,0.3046875 -1.546875,0.3046875 -0.8320313,0 -1.5234375,-0.3046875 -2.0390625,-0.90234375 C 1.0553697,-1.4074664 0.949901,-2.4035601 1.2428697,-3.7980914 c 0.2929688,-1.3007812 0.8085938,-2.34375 1.6171875,-3.0703125 0.796875,-0.7382812 1.6523438,-1.1132812 2.5546875,-1.1132812 0.6210938,0 1.125,0.1523437 1.5117188,0.46875 z m -1.5117188,0.703125 c -0.9257812,0 -1.6523437,0.4335937 -2.1796875,1.3007812 -0.28125,0.46875 -0.5039062,1.0664063 -0.65625,1.8164063 -0.1875,0.890625 -0.1523437,1.5585937 0.1054688,2.0273437 0.2578125,0.46875 0.6914062,0.69140627 1.3007812,0.69140627 0.9492188,0 1.6992188,-0.42187497 2.2734375,-1.27734377 0.3164063,-0.4921875 0.5390625,-1.0546875 0.6679688,-1.6992187 0.2109375,-0.9726563 0.1640625,-1.6875 -0.1289063,-2.15625 -0.3046875,-0.46875 -0.7617187,-0.703125 -1.3828125,-0.703125 z m 0,0"
       style="fill:#000000;fill-opacity:1;fill-rule:nonzero;stroke:none"
       aria-label="g"
       transform="matrix(1.3333333,0,0,1.3333333,850.54597,210.49381)" />
    <path
       id="path97"
       d="m 603.23,100.539 -0.976,-0.984 -0.719,-1.223 -0.398,-1.391 -0.039,-1.464 0.32,-1.422 0.66,-1.282 0.938,-1.054 1.14,-0.774 1.262,-0.465 1.293,-0.164 1.246,0.09 1.137,0.297 0.968,0.445 0.758,0.524 0.512,0.555 0.242,0.546 -0.035,0.5 -0.316,0.434 -0.575,0.344 -0.808,0.226 -0.992,0.078 -1.118,-0.105 -1.171,-0.32 -1.145,-0.571 -1.035,-0.824 -0.84,-1.07 -0.566,-1.274 -0.235,-1.41 0.125,-1.445 0.485,-1.383 0.808,-1.211 1.067,-0.957 1.246,-0.648 1.332,-0.313 1.332,0.008 1.258,0.289 1.125,0.508 0.949,0.648 0.738,0.719 0.508,0.723 0.262,0.66 0.004,0.566 -0.247,0.43 -0.488,0.281 -0.703,0.114 -0.879,-0.071 -0.996,-0.273 -1.039,-0.485 -1.008,-0.714 -0.887,-0.938 -0.687,-1.144 -0.406,-1.305 -0.075,-1.402 0.286,-1.407 0.632,-1.312 0.946,-1.117 1.183,-0.844 1.332,-0.508 1.387,-0.16 1.348,0.176 1.234,0.472 1.07,0.7 0.875,0.847 0.657,0.91 0.437,0.895 0.215,0.808 -0.004,0.672 -0.215,0.492 -0.414,0.286 -0.593,0.066 -0.739,-0.16 -0.836,-0.383 -0.871,-0.613 -0.836,-0.828 -0.711,-1.028 -0.511,-1.199 -0.243,-1.32 0.086,-1.375 0.434,-1.344 0.769,-1.219 1.063,-1 1.281,-0.707 1.399,-0.363 1.422,-0.004 1.339,0.344"
       style="fill:none;stroke:#000000;stroke-width:0.9216;stroke-linecap:square;stroke-linejoin:miter;stroke-miterlimit:3.25;stroke-dasharray:none;stroke-opacity:1"
       transform="scale(1.3333333)" />
    <path
       id="path98"
       d="m 9.7016744,-10.52393 c 0.3164066,0.234375 0.5859376,0.5859371 0.8437496,1.0312496 l 0.304688,-1.3828126 h 1.710937 l -2.121093,9.99609381 C 10.146987,0.50341331 9.7016744,1.6166946 9.1157369,2.4135696 c -1.0898437,1.4882812 -2.6953125,2.25 -4.8164062,2.25 -1.1953125,0 -2.1210938,-0.2695313 -2.8125,-0.796875 C 0.79542444,3.3393508 0.50245569,2.4956008 0.65479944,1.3588821 H 2.5415182 c -0.023437,0.5039062 0.082031,0.890625 0.2929687,1.1601562 0.3164063,0.3984375 0.9492188,0.609375 1.828125,0.609375 1.4296875,0 2.4492188,-0.5039062 3.1054688,-1.4882812 0.375,-0.5859375 0.7148437,-1.6406250375 1.0078125,-3.1523438 -0.4804688,0.55078126 -1.0078125,0.96093751 -1.5703125,1.24218751 -0.5976563,0.2695312525 -1.3007813,0.421875 -2.1679688,0.421875 -1.171875,0 -2.1445312,-0.421875 -2.859375,-1.26562501 -0.7148437,-0.8554687 -0.8554687,-2.25 -0.4335937,-4.1953125 0.3984375,-1.828125 1.1367187,-3.28125 2.2617187,-4.3125 1.1132813,-1.0312503 2.3085938,-1.5468753 3.5742188,-1.5468753 0.8554687,0 1.5703125,0.210938 2.1210937,0.644532 z m -2.1210937,0.9843746 c -1.3007813,0 -2.3085938,0.609375 -3.046875,1.828125 -0.3984375,0.65625 -0.7148438,1.5 -0.9257813,2.5429687 -0.2695312,1.2421875 -0.2109375,2.1914063 0.1523438,2.8359375 0.3515625,0.65625 0.9609375,0.9726563 1.828125,0.9726563 1.3242187,0 2.3671875,-0.5976563 3.1640625,-1.7929688 0.4453125,-0.6914062 0.7617187,-1.4648437 0.9492187,-2.3671875 0.2929688,-1.3710937 0.234375,-2.3789062 -0.1875,-3.0234375 -0.421875,-0.65625 -1.078125,-0.9960937 -1.9335937,-0.9960937 z m 0,0"
       style="fill:#000000;fill-opacity:1;fill-rule:nonzero;stroke:none"
       aria-label="g"
       transform="matrix(1.3333333,0,0,1.3333333,784.27147,102.82488)" />
    <path
       id="path99"
       d="m 619.984,71.215 -0.605,-1.277 -0.227,-1.458 0.192,-1.515 0.609,-1.43 0.973,-1.207 1.234,-0.875 1.379,-0.473 1.399,-0.066 1.312,0.309 1.156,0.597 0.965,0.797 0.766,0.895 0.566,0.89 0.371,0.813 0.18,0.668 -0.02,0.488 -0.222,0.289 -0.426,0.09 -0.625,-0.105 -0.785,-0.29 -0.891,-0.48 -0.926,-0.676 -0.867,-0.879 -0.703,-1.082 -0.441,-1.258 -0.094,-1.382 0.308,-1.407 0.719,-1.312 1.082,-1.098 1.356,-0.769 1.496,-0.364 1.488,0.063 1.356,0.457 1.129,0.789 0.851,1.02 0.574,1.148 0.325,1.18 0.121,1.121 -0.028,0.992 -0.136,0.797 -0.219,0.562 -0.297,0.293 -0.371,0.016 -0.446,-0.258 -0.507,-0.512 -0.532,-0.75 -0.503,-0.949 -0.395,-1.121 -0.203,-1.246 0.074,-1.309 0.414,-1.289 0.778,-1.168 1.124,-0.941 1.391,-0.613 1.539,-0.215 1.539,0.215 1.391,0.613 1.121,0.941 0.781,1.168 0.414,1.289 0.074,1.309 -0.203,1.246 -0.394,1.121 -0.504,0.949 -0.535,0.75 -0.504,0.512 -0.445,0.258 -0.372,-0.016 -0.296,-0.293 -0.219,-0.562 -0.137,-0.797 -0.027,-0.992 0.121,-1.121 0.324,-1.18 0.574,-1.148 0.852,-1.02 1.125,-0.789 1.359,-0.457 1.489,-0.063 1.492,0.364 1.355,0.769 1.086,1.098 0.719,1.312 0.308,1.407 -0.093,1.382 -0.442,1.258 -0.707,1.082 -0.863,0.879 -0.926,0.676 -0.89,0.48 -0.786,0.29 -0.625,0.105 -0.429,-0.09 -0.223,-0.289 -0.016,-0.488 0.18,-0.668 0.371,-0.813 0.567,-0.89 0.761,-0.895 0.969,-0.797 1.156,-0.597 1.313,-0.309 1.398,0.066 1.379,0.473 1.235,0.875 0.972,1.207 0.61,1.43 0.191,1.515 -0.23,1.458 -0.602,1.277"
       style="fill:none;stroke:#000000;stroke-width:0.9216;stroke-linecap:square;stroke-linejoin:miter;stroke-miterlimit:3.25;stroke-dasharray:none;stroke-opacity:1"
       transform="scale(1.3333333)" />
    <path
       id="path100"
       d="m 9.7025179,-10.524186 c 0.3164061,0.234375 0.5859371,0.5859374 0.8437501,1.0312499 l 0.304687,-1.3828129 h 1.710938 l -2.121094,9.99609419 C 10.14783,0.50315769 9.7025179,1.6164389 9.1165804,2.4133139 c -1.0898437,1.4882813 -2.6953125,2.25 -4.8164062,2.25 -1.1953125,0 -2.1210938,-0.2695312 -2.8125,-0.796875 C 0.79626794,3.3390952 0.50329919,2.4953452 0.65564294,1.3586264 H 2.5423617 c -0.023437,0.5039063 0.082031,0.890625 0.2929687,1.1601563 0.3164063,0.3984375 0.9492188,0.609375 1.828125,0.609375 1.4296875,0 2.4492188,-0.5039063 3.1054688,-1.4882813 0.375,-0.5859375 0.7148437,-1.6406249625 1.0078125,-3.1523437 -0.4804688,0.55078124 -1.0078125,0.96093749 -1.5703125,1.24218749 -0.5976563,0.2695312475 -1.3007813,0.421875 -2.1679688,0.421875 -1.171875,0 -2.1445312,-0.421875 -2.859375,-1.26562499 -0.7148437,-0.8554688 -0.8554687,-2.25 -0.4335937,-4.1953125 0.3984375,-1.828125 1.1367187,-3.28125 2.2617187,-4.3125 1.1132813,-1.0312497 2.3085938,-1.5468747 3.5742188,-1.5468747 0.8554687,0 1.5703125,0.210937 2.1210937,0.644531 z m -2.1210937,0.9843749 c -1.3007813,0 -2.3085938,0.609375 -3.046875,1.828125 -0.3984375,0.65625 -0.7148438,1.5 -0.9257813,2.5429688 -0.2695312,1.2421875 -0.2109375,2.1914062 0.1523438,2.8359375 0.3515625,0.65625 0.9609375,0.9726562 1.828125,0.9726562 1.3242187,0 2.3671875,-0.5976562 3.1640625,-1.7929687 0.4453125,-0.6914063 0.7617187,-1.4648438 0.9492187,-2.3671875 0.2929688,-1.3710938 0.234375,-2.3789063 -0.1875,-3.0234375 -0.421875,-0.65625 -1.078125,-0.9960938 -1.9335937,-0.9960938 z m 0,0"
       style="fill:#000000;fill-opacity:1;fill-rule:nonzero;stroke:none"
       aria-label="g"
       transform="matrix(1.3333333,0,0,1.3333333,840.61409,60.208029)" />
    <path
       id="path101"
       d="m 619.984,71.215 -0.605,1.277 -0.227,1.457 0.192,1.516 0.609,1.43 0.973,1.207 1.234,0.875 1.379,0.472 1.399,0.067 1.312,-0.309 1.156,-0.598 0.965,-0.8 0.766,-0.891 0.566,-0.895 0.371,-0.808 0.18,-0.668 -0.02,-0.488 -0.222,-0.289 -0.426,-0.09 -0.625,0.105 -0.785,0.289 -0.891,0.481 -0.926,0.672 -0.867,0.882 -0.703,1.082 -0.441,1.258 -0.094,1.379 0.308,1.41 0.719,1.313 1.082,1.097 1.356,0.766 1.496,0.367 1.488,-0.062 1.356,-0.457 1.129,-0.789 0.851,-1.02 0.574,-1.148 0.325,-1.18 0.121,-1.125 -0.028,-0.988 -0.136,-0.797 -0.219,-0.563 -0.297,-0.293 -0.371,-0.015 -0.446,0.258 -0.507,0.511 -0.532,0.746 -0.503,0.953 -0.395,1.122 -0.203,1.242 0.074,1.308 0.414,1.293 0.778,1.168 1.124,0.942 1.391,0.613 1.539,0.215 1.539,-0.215 1.391,-0.613 1.121,-0.942 0.781,-1.168 0.414,-1.293 0.074,-1.308 -0.203,-1.242 -0.394,-1.122 -0.504,-0.953 -0.535,-0.746 -0.504,-0.511 -0.445,-0.258 -0.372,0.015 -0.296,0.293 -0.219,0.563 -0.137,0.797 -0.027,0.988 0.121,1.125 0.324,1.18 0.574,1.148 0.852,1.02 1.125,0.789 1.359,0.457 1.489,0.062 1.492,-0.367 1.355,-0.766 1.086,-1.097 0.719,-1.313 0.308,-1.41 -0.093,-1.379 -0.442,-1.258 -0.707,-1.082 -0.863,-0.882 -0.926,-0.672 -0.89,-0.481 -0.786,-0.289 -0.625,-0.105 -0.429,0.09 -0.223,0.289 -0.016,0.488 0.18,0.668 0.371,0.808 0.567,0.895 0.761,0.891 0.969,0.8 1.156,0.598 1.313,0.309 1.398,-0.067 1.379,-0.472 1.235,-0.875 0.972,-1.207 0.61,-1.43 0.191,-1.516 -0.23,-1.457 -0.602,-1.277"
       style="fill:none;stroke:#000000;stroke-width:0.9216;stroke-linecap:square;stroke-linejoin:miter;stroke-miterlimit:3.25;stroke-dasharray:none;stroke-opacity:1"
       transform="scale(1.3333333)" />
    <path
       id="path102"
       d="m 9.7025179,-10.524046 c 0.3164061,0.234375 0.5859371,0.5859379 0.8437501,1.0312504 l 0.304687,-1.3828124 h 1.710938 l -2.121094,9.99609369 C 10.14783,0.50329819 9.7025179,1.6165794 9.1165804,2.4134544 c -1.0898437,1.4882813 -2.6953125,2.25 -4.8164062,2.25 -1.1953125,0 -2.1210938,-0.2695312 -2.8125,-0.796875 C 0.79626794,3.3392357 0.50329919,2.4954857 0.65564294,1.3587669 H 2.5423617 c -0.023437,0.5039063 0.082031,0.890625 0.2929687,1.1601563 0.3164063,0.3984375 0.9492188,0.609375 1.828125,0.609375 1.4296875,0 2.4492188,-0.5039063 3.1054688,-1.4882813 0.375,-0.5859375 0.7148437,-1.6406249625 1.0078125,-3.1523437 -0.4804688,0.55078124 -1.0078125,0.96093749 -1.5703125,1.24218749 -0.5976563,0.2695312475 -1.3007813,0.421875 -2.1679688,0.421875 -1.171875,0 -2.1445312,-0.421875 -2.859375,-1.26562499 -0.7148437,-0.8554688 -0.8554687,-2.25 -0.4335937,-4.1953125 0.3984375,-1.828125 1.1367187,-3.28125 2.2617187,-4.3125 1.1132813,-1.0312502 2.3085938,-1.5468752 3.5742188,-1.5468752 0.8554687,0 1.5703125,0.210938 2.1210937,0.644531 z m -2.1210937,0.9843754 c -1.3007813,0 -2.3085938,0.609375 -3.046875,1.828125 -0.3984375,0.65625 -0.7148438,1.5 -0.9257813,2.5429688 -0.2695312,1.2421875 -0.2109375,2.1914062 0.1523438,2.8359375 0.3515625,0.65625 0.9609375,0.9726562 1.828125,0.9726562 1.3242187,0 2.3671875,-0.5976562 3.1640625,-1.7929687 0.4453125,-0.6914063 0.7617187,-1.4648438 0.9492187,-2.3671875 0.2929688,-1.3710938 0.234375,-2.3789063 -0.1875,-3.0234375 -0.421875,-0.65625 -1.078125,-0.9960938 -1.9335937,-0.9960938 z m 0,0"
       style="fill:#000000;fill-opacity:1;fill-rule:nonzero;stroke:none"
       aria-label="g"
       transform="matrix(1.3333333,0,0,1.3333333,840.61409,149.98909)" />
    <path
       id="path103"
       d="m 670.254,100.539 0.965,-0.992 0.707,-1.231 0.386,-1.39 0.028,-1.461 -0.336,-1.418 -0.664,-1.277 -0.945,-1.047 -1.145,-0.762 -1.266,-0.457 -1.293,-0.16 -1.246,0.097 -1.133,0.305 -0.968,0.445 -0.754,0.532 -0.508,0.558 -0.238,0.551 0.039,0.504 0.316,0.437 0.578,0.34 0.809,0.227 0.996,0.07 1.117,-0.109 1.168,-0.328 1.145,-0.575 1.027,-0.832 0.832,-1.074 0.563,-1.277 0.23,-1.406 -0.133,-1.446 -0.484,-1.375 -0.809,-1.211 -1.07,-0.953 -1.246,-0.644 -1.328,-0.313 -1.336,0.008 -1.258,0.289 -1.125,0.504 -0.949,0.652 -0.738,0.719 -0.508,0.723 -0.258,0.664 -0.004,0.566 0.25,0.438 0.488,0.281 0.707,0.117 0.875,-0.07 0.996,-0.274 1.043,-0.484 1.008,-0.715 0.887,-0.937 0.683,-1.145 0.407,-1.305 0.078,-1.402 -0.281,-1.402 -0.629,-1.313 -0.942,-1.117 -1.179,-0.848 -1.329,-0.515 -1.382,-0.164 -1.348,0.172 -1.238,0.464 -1.078,0.692 -0.875,0.844 -0.664,0.906 -0.442,0.89 -0.215,0.813 v 0.672 l 0.215,0.492 0.414,0.293 0.594,0.07 0.742,-0.152 0.84,-0.379 0.875,-0.605 0.84,-0.825 0.715,-1.023 0.519,-1.195 0.246,-1.321 -0.074,-1.375 -0.422,-1.343 -0.762,-1.223 -1.054,-1.008 -1.27,-0.719 -1.394,-0.375 -1.418,-0.015 -1.344,0.328"
       style="fill:none;stroke:#000000;stroke-width:0.9216;stroke-linecap:square;stroke-linejoin:miter;stroke-miterlimit:3.25;stroke-dasharray:none;stroke-opacity:1"
       transform="scale(1.3333333)" />
    <path
       id="path104"
       d="m 9.7034418,-10.524395 c 0.3164062,0.234375 0.5859372,0.5859378 0.8437502,1.0312503 l 0.304687,-1.3828123 h 1.710938 l -2.121094,9.9960935 C 10.148754,0.502949 9.7034418,1.6162303 9.1175043,2.4131053 c -1.0898437,1.4882812 -2.6953125,2.25 -4.8164062,2.25 -1.1953125,0 -2.1210938,-0.2695313 -2.8125,-0.796875 C 0.79719181,3.3388865 0.50422306,2.4951365 0.65656681,1.3584178 H 2.5432856 c -0.023437,0.5039062 0.082031,0.890625 0.2929687,1.1601562 0.3164063,0.3984375 0.9492188,0.609375 1.828125,0.609375 1.4296875,0 2.4492188,-0.5039062 3.1054688,-1.4882812 0.375,-0.5859375 0.7148437,-1.64062505 1.0078125,-3.1523438 -0.4804688,0.55078125 -1.0078125,0.9609375 -1.5703125,1.2421875 -0.5976563,0.26953125 -1.3007813,0.421875 -2.1679688,0.421875 -1.171875,0 -2.1445312,-0.421875 -2.859375,-1.265625 -0.7148437,-0.8554687 -0.8554687,-2.25 -0.4335937,-4.1953125 0.3984375,-1.828125 1.1367187,-3.28125 2.2617187,-4.3125 1.1132813,-1.03125 2.3085938,-1.546875 3.5742188,-1.546875 0.8554687,0 1.5703125,0.210938 2.1210937,0.644531 z m -2.1210937,0.9843753 c -1.3007813,0 -2.3085938,0.609375 -3.046875,1.828125 -0.3984375,0.65625 -0.7148438,1.5 -0.9257813,2.5429687 -0.2695312,1.2421875 -0.2109375,2.1914063 0.1523438,2.8359375 0.3515625,0.65625 0.9609375,0.9726563 1.828125,0.9726563 1.3242187,0 2.3671875,-0.5976563 3.1640625,-1.7929688 0.4453125,-0.6914062 0.7617187,-1.4648437 0.9492187,-2.3671875 0.2929688,-1.3710937 0.234375,-2.3789062 -0.1875,-3.0234375 -0.421875,-0.65625 -1.078125,-0.9960937 -1.9335937,-0.9960937 z m 0,0"
       style="fill:#000000;fill-opacity:1;fill-rule:nonzero;stroke:none"
       aria-label="g"
       transform="matrix(1.3333333,0,0,1.3333333,896.83942,102.8919)" />
    <path
       id="path105"
       d="m 657.184,71.215 c 0,0.976 -0.387,1.914 -1.079,2.605 -0.691,0.692 -1.628,1.082 -2.605,1.082 -0.98,0 -1.918,-0.39 -2.609,-1.082 -0.692,-0.691 -1.079,-1.629 -1.079,-2.605 0,-0.977 0.387,-1.914 1.079,-2.606 0.691,-0.691 1.629,-1.082 2.609,-1.082 0.977,0 1.914,0.391 2.605,1.082 0.692,0.692 1.079,1.629 1.079,2.606 z"
       style="fill:#000000;fill-opacity:1;fill-rule:evenodd;stroke:none"
       transform="scale(1.3333333)" />
    <path
       id="path106"
       d="m 623.672,71.215 c 0,0.976 -0.387,1.914 -1.078,2.605 -0.692,0.692 -1.629,1.082 -2.61,1.082 -0.976,0 -1.914,-0.39 -2.605,-1.082 -0.691,-0.691 -1.078,-1.629 -1.078,-2.605 0,-0.977 0.387,-1.914 1.078,-2.606 0.691,-0.691 1.629,-1.082 2.605,-1.082 0.981,0 1.918,0.391 2.61,1.082 0.691,0.692 1.078,1.629 1.078,2.606 z"
       style="fill:#000000;fill-opacity:1;fill-rule:evenodd;stroke:none"
       transform="scale(1.3333333)" />
    <path
       id="path107"
       d="m 606.914,100.539 c 0,0.977 -0.387,1.914 -1.078,2.606 -0.691,0.691 -1.629,1.078 -2.606,1.078 -0.98,0 -1.918,-0.387 -2.609,-1.078 -0.691,-0.692 -1.078,-1.629 -1.078,-2.606 0,-0.98 0.387,-1.918 1.078,-2.609 0.691,-0.692 1.629,-1.078 2.609,-1.078 0.977,0 1.915,0.386 2.606,1.078 0.691,0.691 1.078,1.629 1.078,2.609 z"
       style="fill:#000000;fill-opacity:1;fill-rule:evenodd;stroke:none"
       transform="scale(1.3333333)" />
    <path
       id="path108"
       d="m 673.941,100.539 c 0,0.977 -0.39,1.914 -1.082,2.606 -0.691,0.691 -1.629,1.078 -2.605,1.078 -0.977,0 -1.914,-0.387 -2.606,-1.078 -0.691,-0.692 -1.082,-1.629 -1.082,-2.606 0,-0.98 0.391,-1.918 1.082,-2.609 0.692,-0.692 1.629,-1.078 2.606,-1.078 0.976,0 1.914,0.386 2.605,1.078 0.692,0.691 1.082,1.629 1.082,2.609 z"
       style="fill:#000000;fill-opacity:1;fill-rule:evenodd;stroke:none"
       transform="scale(1.3333333)" />
  </g>
</svg>
