<?xml version="1.0" encoding="UTF-8" standalone="no"?>
<!-- Created with Inkscape (http://www.inkscape.org/) -->

<svg
   version="1.1"
   id="svg2"
   width="737.33331"
   height="246.66667"
   viewBox="0 0 737.33331 246.66667"
   sodipodi:docname="0ar9lt2oovp7p.pdf"
   xmlns:inkscape="http://www.inkscape.org/namespaces/inkscape"
   xmlns:sodipodi="http://sodipodi.sourceforge.net/DTD/sodipodi-0.dtd"
   xmlns="http://www.w3.org/2000/svg"
   xmlns:svg="http://www.w3.org/2000/svg">
  <defs
     id="defs6">
    <clipPath
       clipPathUnits="userSpaceOnUse"
       id="clipPath98">
      <path
         d="m 59,152 h 7 v 9.281 h -7 z"
         id="path96" />
    </clipPath>
    <clipPath
       clipPathUnits="userSpaceOnUse"
       id="clipPath150">
      <path
         d="m 165,72 h 9.961 V 85 H 165 Z"
         id="path148" />
    </clipPath>
    <clipPath
       clipPathUnits="userSpaceOnUse"
       id="clipPath202">
      <path
         d="m 197,152 h 8 v 9.281 h -8 z"
         id="path200" />
    </clipPath>
    <clipPath
       clipPathUnits="userSpaceOnUse"
       id="clipPath296">
      <path
         d="m 336,152 h 7 v 9.281 h -7 z"
         id="path294" />
    </clipPath>
    <clipPath
       clipPathUnits="userSpaceOnUse"
       id="clipPath378">
      <path
         d="m 474,152 h 7 v 9.281 h -7 z"
         id="path376" />
    </clipPath>
  </defs>
  <sodipodi:namedview
     id="namedview4"
     pagecolor="#ffffff"
     bordercolor="#999999"
     borderopacity="1"
     inkscape:showpageshadow="0"
     inkscape:pageopacity="0"
     inkscape:pagecheckerboard="0"
     inkscape:deskcolor="#d1d1d1" />
  <g
     id="g8"
     inkscape:groupmode="layer"
     inkscape:label="0ar9lt2oovp7p"
     transform="matrix(1.3333333,0,0,1.3333333,0,9.5e-6)">
    <g
       id="g10">
      <path
         d="M 0,98.445 H 37.703"
         style="fill:none;stroke:#000000;stroke-width:0.6912;stroke-linecap:butt;stroke-linejoin:miter;stroke-miterlimit:3.25;stroke-dasharray:0.6912, 4.1472;stroke-dashoffset:0;stroke-opacity:1"
         id="path12" />
      <path
         d="m 22.621,98.445 -7.539,2.512 V 95.93 Z"
         style="fill:#000000;fill-opacity:1;fill-rule:evenodd;stroke:none"
         id="path14" />
      <text
         xml:space="preserve"
         transform="translate(10.862315,113.62121)"
         style="font-variant:normal;font-size:15.84px;font-family:CairoFont-0;-inkscape-font-specification:CairoFont-0-0;writing-mode:lr-tb;fill:#000000;fill-opacity:1;fill-rule:nonzero;stroke:none"
         id="text18"><tspan
           x="0"
           y="0"
           id="tspan16">u</tspan></text>
      <text
         xml:space="preserve"
         transform="translate(19.75294,116.56262)"
         style="font-variant:normal;font-size:11.28px;font-family:CairoFont-0;-inkscape-font-specification:CairoFont-0-0;writing-mode:lr-tb;fill:#000000;fill-opacity:1;fill-rule:nonzero;stroke:none"
         id="text22"><tspan
           x="0"
           y="0"
           id="tspan20">g</tspan></text>
      <path
         d="M 125.672,98.445 H 87.973"
         style="fill:none;stroke:#000000;stroke-width:0.6912;stroke-linecap:butt;stroke-linejoin:miter;stroke-miterlimit:3.25;stroke-dasharray:0.6912, 4.1472;stroke-dashoffset:0;stroke-opacity:1"
         id="path24" />
      <path
         d="m 110.594,98.445 -7.543,-2.515 v 5.027 z"
         style="fill:#000000;fill-opacity:1;fill-rule:evenodd;stroke:none"
         id="path26" />
      <text
         xml:space="preserve"
         transform="translate(98.833224,113.62121)"
         style="font-variant:normal;font-size:15.84px;font-family:CairoFont-0;-inkscape-font-specification:CairoFont-0-0;writing-mode:lr-tb;fill:#000000;fill-opacity:1;fill-rule:nonzero;stroke:none"
         id="text30"><tspan
           x="0"
           y="0"
           id="tspan28">u</tspan></text>
      <text
         xml:space="preserve"
         transform="translate(107.72385,116.56262)"
         style="font-variant:normal;font-size:11.28px;font-family:CairoFont-0;-inkscape-font-specification:CairoFont-0-0;writing-mode:lr-tb;fill:#000000;fill-opacity:1;fill-rule:nonzero;stroke:none"
         id="text34"><tspan
           x="0"
           y="0"
           id="tspan32">g</tspan></text>
      <path
         d="m 37.703,98.445 c 0,6.664 2.649,13.059 7.359,17.77 4.715,4.715 11.11,7.363 17.774,7.363 6.668,0 13.059,-2.648 17.773,-7.363 4.715,-4.711 7.364,-11.106 7.364,-17.77"
         style="fill:none;stroke:#000000;stroke-width:0.6912;stroke-linecap:butt;stroke-linejoin:miter;stroke-miterlimit:3.25;stroke-dasharray:0.6912, 4.1472;stroke-dashoffset:0;stroke-opacity:1"
         id="path36" />
      <path
         d="m 66.605,123.578 -7.539,2.512 v -5.024 z"
         style="fill:#000000;fill-opacity:1;fill-rule:evenodd;stroke:none"
         id="path38" />
      <text
         xml:space="preserve"
         transform="translate(54.84777,138.75576)"
         style="font-variant:normal;font-size:15.84px;font-family:CairoFont-0;-inkscape-font-specification:CairoFont-0-0;writing-mode:lr-tb;fill:#000000;fill-opacity:1;fill-rule:nonzero;stroke:none"
         id="text42"><tspan
           x="0"
           y="0"
           id="tspan40">u</tspan></text>
      <text
         xml:space="preserve"
         transform="translate(63.738395,141.69716)"
         style="font-variant:normal;font-size:11.28px;font-family:CairoFont-0;-inkscape-font-specification:CairoFont-0-0;writing-mode:lr-tb;fill:#000000;fill-opacity:1;fill-rule:nonzero;stroke:none"
         id="text46"><tspan
           x="0"
           y="0"
           id="tspan44">g</tspan></text>
      <path
         d="m 37.703,98.445 -0.734,-0.738 -0.539,-0.918 -0.297,-1.043 -0.031,-1.098 0.242,-1.066 0.496,-0.965 0.703,-0.789 0.855,-0.578 0.946,-0.348 0.968,-0.125 0.934,0.067 0.856,0.226 0.726,0.328 0.567,0.395 0.382,0.418 0.184,0.406 -0.027,0.379 -0.235,0.324 -0.433,0.258 -0.606,0.168 -0.742,0.059 -0.84,-0.078 -0.879,-0.239 -0.859,-0.426 -0.778,-0.621 -0.628,-0.8 -0.422,-0.957 -0.18,-1.055 0.094,-1.086 0.363,-1.035 0.606,-0.91 0.8,-0.719 0.934,-0.484 1,-0.239 1,0.008 0.945,0.219 0.844,0.379 0.711,0.488 0.555,0.539 0.378,0.539 0.196,0.496 0.004,0.422 -0.184,0.324 -0.367,0.211 -0.527,0.086 -0.661,-0.055 -0.742,-0.203 -0.781,-0.363 -0.758,-0.535 -0.664,-0.703 -0.516,-0.86 -0.304,-0.98 -0.055,-1.051 0.211,-1.055 0.477,-0.984 0.707,-0.836 0.89,-0.633 0.996,-0.382 1.039,-0.122 1.012,0.137 0.93,0.352 0.801,0.523 0.656,0.637 0.492,0.684 0.328,0.667 0.16,0.61 -0.004,0.504 -0.16,0.367 -0.308,0.215 -0.446,0.051 -0.554,-0.122 -0.629,-0.289 -0.653,-0.457 -0.625,-0.621 -0.535,-0.769 -0.383,-0.899 -0.179,-0.992 0.062,-1.031 0.324,-1.008 0.579,-0.914 0.797,-0.75 0.96,-0.531 1.051,-0.274 h 1.063 l 1.008,0.254"
         style="fill:none;stroke:#000000;stroke-width:0.6912;stroke-linecap:square;stroke-linejoin:miter;stroke-miterlimit:3.25;stroke-dasharray:none;stroke-opacity:1"
         id="path48" />
      <text
         xml:space="preserve"
         transform="translate(26.432699,80.820399)"
         style="font-variant:normal;font-size:15.84px;font-family:CairoFont-0;-inkscape-font-specification:CairoFont-0-0;writing-mode:lr-tb;fill:#000000;fill-opacity:1;fill-rule:nonzero;stroke:none"
         id="text52"><tspan
           x="0"
           y="0"
           id="tspan50">g</tspan></text>
      <path
         d="m 75.402,76.449 c -0.859,-3.832 -3.425,-7.062 -6.964,-8.769 -3.54,-1.711 -7.665,-1.711 -11.204,0 -3.539,1.707 -6.101,4.937 -6.964,8.769"
         style="fill:none;stroke:#000000;stroke-width:0.6912;stroke-linecap:square;stroke-linejoin:miter;stroke-miterlimit:3.25;stroke-dasharray:none;stroke-opacity:1"
         id="path54" />
      <path
         d="M 66.605,66.398 59.066,63.883 V 68.91 Z"
         style="fill:#000000;fill-opacity:1;fill-rule:evenodd;stroke:none"
         id="path56" />
      <text
         xml:space="preserve"
         transform="translate(54.859489,56.516392)"
         style="font-variant:normal;font-size:15.84px;font-family:CairoFont-0;-inkscape-font-specification:CairoFont-0-0;writing-mode:lr-tb;fill:#000000;fill-opacity:1;fill-rule:nonzero;stroke:none"
         id="text60"><tspan
           x="0"
           y="0"
           id="tspan58">d</tspan></text>
      <text
         xml:space="preserve"
         transform="translate(63.750114,59.457798)"
         style="font-variant:normal;font-size:11.28px;font-family:CairoFont-0;-inkscape-font-specification:CairoFont-0-0;writing-mode:lr-tb;fill:#000000;fill-opacity:1;fill-rule:nonzero;stroke:none"
         id="text64"><tspan
           x="0"
           y="0"
           id="tspan62">k</tspan></text>
      <path
         d="m 50.27,76.449 c 0.863,3.836 3.425,7.067 6.964,8.774 3.539,1.711 7.664,1.711 11.204,0 3.539,-1.707 6.105,-4.938 6.964,-8.774"
         style="fill:none;stroke:#000000;stroke-width:0.6912;stroke-linecap:square;stroke-linejoin:miter;stroke-miterlimit:3.25;stroke-dasharray:none;stroke-opacity:1"
         id="path66" />
      <path
         d="m 59.066,86.504 7.539,2.516 v -5.028 z"
         style="fill:#000000;fill-opacity:1;fill-rule:evenodd;stroke:none"
         id="path68" />
      <text
         xml:space="preserve"
         transform="translate(54.859489,104.77605)"
         style="font-variant:normal;font-size:15.84px;font-family:CairoFont-0;-inkscape-font-specification:CairoFont-0-0;writing-mode:lr-tb;fill:#000000;fill-opacity:1;fill-rule:nonzero;stroke:none"
         id="text72"><tspan
           x="0"
           y="0"
           id="tspan70">d</tspan></text>
      <text
         xml:space="preserve"
         transform="translate(63.750114,107.71746)"
         style="font-variant:normal;font-size:11.28px;font-family:CairoFont-0;-inkscape-font-specification:CairoFont-0-0;writing-mode:lr-tb;fill:#000000;fill-opacity:1;fill-rule:nonzero;stroke:none"
         id="text76"><tspan
           x="0"
           y="0"
           id="tspan74">k</tspan></text>
      <path
         d="m 87.973,98.445 0.722,-0.746 0.532,-0.922 0.289,-1.043 0.019,-1.097 -0.25,-1.063 -0.5,-0.957 -0.711,-0.785 -0.859,-0.574 -0.945,-0.34 -0.969,-0.121 -0.938,0.074 -0.851,0.227 -0.723,0.336 -0.566,0.398 -0.379,0.422 -0.184,0.41 0.031,0.379 0.239,0.328 0.433,0.254 0.61,0.168 0.742,0.055 0.84,-0.082 0.875,-0.246 0.859,-0.43 0.77,-0.625 0.625,-0.805 0.421,-0.957 0.172,-1.055 -0.097,-1.086 -0.368,-1.031 -0.605,-0.906 -0.801,-0.719 -0.933,-0.48 -1,-0.235 -1,0.004 -0.942,0.219 -0.847,0.379 -0.711,0.488 -0.551,0.539 -0.383,0.539 -0.191,0.5 -0.004,0.426 0.187,0.324 0.367,0.215 0.528,0.086 0.66,-0.055 0.746,-0.203 0.781,-0.363 0.754,-0.535 0.668,-0.703 0.512,-0.86 0.305,-0.98 0.058,-1.047 -0.211,-1.055 -0.472,-0.984 -0.707,-0.84 -0.883,-0.633 -0.996,-0.386 -1.039,-0.125 -1.008,0.129 -0.93,0.351 -0.809,0.52 -0.656,0.629 -0.496,0.679 -0.332,0.672 -0.164,0.606 v 0.503 l 0.16,0.372 0.313,0.218 0.445,0.055 0.559,-0.117 0.628,-0.285 0.657,-0.453 0.629,-0.618 0.539,-0.765 0.386,-0.899 0.188,-0.988 -0.059,-1.031 -0.316,-1.012 -0.57,-0.914 -0.789,-0.758 -0.954,-0.539 -1.046,-0.281 -1.063,-0.012 -1.012,0.246"
         style="fill:none;stroke:#000000;stroke-width:0.6912;stroke-linecap:square;stroke-linejoin:miter;stroke-miterlimit:3.25;stroke-dasharray:none;stroke-opacity:1"
         id="path78" />
      <text
         xml:space="preserve"
         transform="translate(89.752175,80.858101)"
         style="font-variant:normal;font-size:15.84px;font-family:CairoFont-0;-inkscape-font-specification:CairoFont-0-0;writing-mode:lr-tb;fill:#000000;fill-opacity:1;fill-rule:nonzero;stroke:none"
         id="text82"><tspan
           x="0"
           y="0"
           id="tspan80">g</tspan></text>
      <path
         d="m 78.168,76.449 c 0,0.735 -0.289,1.438 -0.809,1.957 -0.519,0.52 -1.222,0.809 -1.957,0.809 -0.73,0 -1.433,-0.289 -1.953,-0.809 -0.519,-0.519 -0.808,-1.222 -0.808,-1.957 0,-0.73 0.289,-1.433 0.808,-1.953 0.52,-0.519 1.223,-0.808 1.953,-0.808 0.735,0 1.438,0.289 1.957,0.808 0.52,0.52 0.809,1.223 0.809,1.953 z"
         style="fill:#000000;fill-opacity:1;fill-rule:evenodd;stroke:none"
         id="path84" />
      <path
         d="m 53.035,76.449 c 0,0.735 -0.293,1.438 -0.812,1.957 -0.516,0.52 -1.219,0.809 -1.953,0.809 -0.735,0 -1.438,-0.289 -1.958,-0.809 -0.515,-0.519 -0.808,-1.222 -0.808,-1.957 0,-0.73 0.293,-1.433 0.808,-1.953 0.52,-0.519 1.223,-0.808 1.958,-0.808 0.734,0 1.437,0.289 1.953,0.808 0.519,0.52 0.812,1.223 0.812,1.953 z"
         style="fill:#000000;fill-opacity:1;fill-rule:evenodd;stroke:none"
         id="path86" />
      <path
         d="m 40.465,98.445 c 0,0.731 -0.289,1.434 -0.809,1.953 -0.519,0.52 -1.222,0.809 -1.953,0.809 -0.734,0 -1.437,-0.289 -1.957,-0.809 -0.519,-0.519 -0.808,-1.222 -0.808,-1.953 0,-0.734 0.289,-1.437 0.808,-1.957 0.52,-0.519 1.223,-0.808 1.957,-0.808 0.731,0 1.434,0.289 1.953,0.808 0.52,0.52 0.809,1.223 0.809,1.957 z"
         style="fill:#000000;fill-opacity:1;fill-rule:evenodd;stroke:none"
         id="path88" />
      <path
         d="m 90.734,98.445 c 0,0.731 -0.289,1.434 -0.808,1.953 -0.52,0.52 -1.223,0.809 -1.953,0.809 -0.735,0 -1.438,-0.289 -1.957,-0.809 -0.52,-0.519 -0.809,-1.222 -0.809,-1.953 0,-0.734 0.289,-1.437 0.809,-1.957 0.519,-0.519 1.222,-0.808 1.957,-0.808 0.73,0 1.433,0.289 1.953,0.808 0.519,0.52 0.808,1.223 0.808,1.957 z"
         style="fill:#000000;fill-opacity:1;fill-rule:evenodd;stroke:none"
         id="path90" />
    </g>
    <g
       id="g92">
      <g
         id="g94"
         clip-path="url(#clipPath98)">
        <text
           xml:space="preserve"
           transform="translate(59.226989,161.49994)"
           style="font-variant:normal;font-size:12.72px;font-family:CairoFont-1;-inkscape-font-specification:CairoFont-1-0;writing-mode:lr-tb;fill:#000000;fill-opacity:1;fill-rule:nonzero;stroke:none"
           id="text102"><tspan
             x="0"
             y="0"
             id="tspan100">5</tspan></text>
      </g>
    </g>
    <g
       id="g104">
      <path
         d="m 138.238,98.445 h 37.703"
         style="fill:none;stroke:#000000;stroke-width:0.6912;stroke-linecap:butt;stroke-linejoin:miter;stroke-miterlimit:3.25;stroke-dasharray:0.6912, 4.1472;stroke-dashoffset:0;stroke-opacity:1"
         id="path106" />
      <path
         d="m 160.859,98.445 -7.539,2.512 V 95.93 Z"
         style="fill:#000000;fill-opacity:1;fill-rule:evenodd;stroke:none"
         id="path108" />
      <text
         xml:space="preserve"
         transform="translate(149.10231,113.62121)"
         style="font-variant:normal;font-size:15.84px;font-family:CairoFont-0;-inkscape-font-specification:CairoFont-0-0;writing-mode:lr-tb;fill:#000000;fill-opacity:1;fill-rule:nonzero;stroke:none"
         id="text112"><tspan
           x="0"
           y="0"
           id="tspan110">u</tspan></text>
      <text
         xml:space="preserve"
         transform="translate(157.99294,116.56262)"
         style="font-variant:normal;font-size:11.28px;font-family:CairoFont-0;-inkscape-font-specification:CairoFont-0-0;writing-mode:lr-tb;fill:#000000;fill-opacity:1;fill-rule:nonzero;stroke:none"
         id="text116"><tspan
           x="0"
           y="0"
           id="tspan114">g</tspan></text>
      <path
         d="M 263.914,98.445 H 226.211"
         style="fill:none;stroke:#000000;stroke-width:0.6912;stroke-linecap:butt;stroke-linejoin:miter;stroke-miterlimit:3.25;stroke-dasharray:0.6912, 4.1472;stroke-dashoffset:0;stroke-opacity:1"
         id="path118" />
      <path
         d="m 248.832,98.445 -7.539,-2.515 v 5.027 z"
         style="fill:#000000;fill-opacity:1;fill-rule:evenodd;stroke:none"
         id="path120" />
      <text
         xml:space="preserve"
         transform="translate(237.07322,113.62121)"
         style="font-variant:normal;font-size:15.84px;font-family:CairoFont-0;-inkscape-font-specification:CairoFont-0-0;writing-mode:lr-tb;fill:#000000;fill-opacity:1;fill-rule:nonzero;stroke:none"
         id="text124"><tspan
           x="0"
           y="0"
           id="tspan122">u</tspan></text>
      <text
         xml:space="preserve"
         transform="translate(245.96385,116.56262)"
         style="font-variant:normal;font-size:11.28px;font-family:CairoFont-0;-inkscape-font-specification:CairoFont-0-0;writing-mode:lr-tb;fill:#000000;fill-opacity:1;fill-rule:nonzero;stroke:none"
         id="text128"><tspan
           x="0"
           y="0"
           id="tspan126">g</tspan></text>
      <path
         d="m 175.941,98.445 c 0,6.664 2.649,13.059 7.364,17.77 4.711,4.715 11.105,7.363 17.773,7.363 6.664,0 13.059,-2.648 17.77,-7.363 4.714,-4.711 7.363,-11.106 7.363,-17.77"
         style="fill:none;stroke:#000000;stroke-width:0.6912;stroke-linecap:butt;stroke-linejoin:miter;stroke-miterlimit:3.25;stroke-dasharray:0.6912, 4.1472;stroke-dashoffset:0;stroke-opacity:1"
         id="path130" />
      <path
         d="m 204.848,123.578 -7.543,2.512 v -5.024 z"
         style="fill:#000000;fill-opacity:1;fill-rule:evenodd;stroke:none"
         id="path132" />
      <text
         xml:space="preserve"
         transform="translate(193.08777,138.75576)"
         style="font-variant:normal;font-size:15.84px;font-family:CairoFont-0;-inkscape-font-specification:CairoFont-0-0;writing-mode:lr-tb;fill:#000000;fill-opacity:1;fill-rule:nonzero;stroke:none"
         id="text136"><tspan
           x="0"
           y="0"
           id="tspan134">u</tspan></text>
      <text
         xml:space="preserve"
         transform="translate(201.97839,141.69716)"
         style="font-variant:normal;font-size:11.28px;font-family:CairoFont-0;-inkscape-font-specification:CairoFont-0-0;writing-mode:lr-tb;fill:#000000;fill-opacity:1;fill-rule:nonzero;stroke:none"
         id="text140"><tspan
           x="0"
           y="0"
           id="tspan138">g</tspan></text>
      <path
         d="m 175.941,98.445 -0.73,-0.738 -0.539,-0.918 -0.301,-1.043 -0.027,-1.098 0.242,-1.066 0.492,-0.965 0.703,-0.789 0.856,-0.578 0.945,-0.348 0.969,-0.125 0.937,0.067 0.852,0.226 0.726,0.328 0.567,0.395 0.387,0.418 0.179,0.406 -0.027,0.379 -0.234,0.324 -0.434,0.258 -0.606,0.168 -0.742,0.059 -0.84,-0.078 -0.878,-0.239 -0.86,-0.426 -0.773,-0.621 -0.629,-0.8 -0.426,-0.957 -0.176,-1.055 0.094,-1.086 0.363,-1.035 0.606,-0.91 0.801,-0.719 0.933,-0.484 1,-0.239 1,0.008 0.941,0.219 0.844,0.379 0.711,0.488 0.555,0.539 0.383,0.539 0.195,0.496 0.004,0.422 -0.188,0.324 -0.367,0.211 -0.527,0.086 -0.656,-0.055 -0.746,-0.203 -0.782,-0.363 -0.754,-0.535 -0.668,-0.703 -0.511,-0.86 -0.305,-0.98 -0.059,-1.051 0.215,-1.055 0.477,-0.984 0.707,-0.836 0.887,-0.633 1,-0.382 1.039,-0.122 1.011,0.137 0.926,0.352 0.805,0.523 0.652,0.637 0.492,0.684 0.328,0.667 0.161,0.61 v 0.504 l -0.161,0.367 -0.312,0.215 -0.445,0.051 -0.555,-0.122 -0.625,-0.289 -0.656,-0.457 -0.625,-0.621 -0.535,-0.769 -0.383,-0.899 -0.18,-0.992 0.063,-1.031 0.324,-1.008 0.578,-0.914 0.797,-0.75 0.961,-0.531 1.051,-0.274 h 1.066 l 1.004,0.254"
         style="fill:none;stroke:#000000;stroke-width:0.6912;stroke-linecap:square;stroke-linejoin:miter;stroke-miterlimit:3.25;stroke-dasharray:none;stroke-opacity:1"
         id="path142" />
    </g>
    <g
       id="g144">
      <g
         id="g146"
         clip-path="url(#clipPath150)">
        <text
           xml:space="preserve"
           transform="translate(164.6727,80.820399)"
           style="font-variant:normal;font-size:15.84px;font-family:CairoFont-0;-inkscape-font-specification:CairoFont-0-0;writing-mode:lr-tb;fill:#000000;fill-opacity:1;fill-rule:nonzero;stroke:none"
           id="text154"><tspan
             x="0"
             y="0"
             id="tspan152">g</tspan></text>
      </g>
    </g>
    <g
       id="g156">
      <path
         d="m 213.645,76.449 c -0.864,-3.832 -3.43,-7.062 -6.969,-8.769 -3.535,-1.711 -7.66,-1.711 -11.199,0 -3.539,1.707 -6.106,4.937 -6.969,8.769"
         style="fill:none;stroke:#000000;stroke-width:0.6912;stroke-linecap:butt;stroke-linejoin:miter;stroke-miterlimit:3.25;stroke-dasharray:0.6912, 4.1472;stroke-dashoffset:0;stroke-opacity:1"
         id="path158" />
      <path
         d="m 204.848,66.398 -7.543,-2.515 v 5.027 z"
         style="fill:#000000;fill-opacity:1;fill-rule:evenodd;stroke:none"
         id="path160" />
      <text
         xml:space="preserve"
         transform="translate(193.08777,54.032017)"
         style="font-variant:normal;font-size:15.84px;font-family:CairoFont-0;-inkscape-font-specification:CairoFont-0-0;writing-mode:lr-tb;fill:#000000;fill-opacity:1;fill-rule:nonzero;stroke:none"
         id="text164"><tspan
           x="0"
           y="0"
           id="tspan162">u</tspan></text>
      <text
         xml:space="preserve"
         transform="translate(201.97839,56.973423)"
         style="font-variant:normal;font-size:11.28px;font-family:CairoFont-0;-inkscape-font-specification:CairoFont-0-0;writing-mode:lr-tb;fill:#000000;fill-opacity:1;fill-rule:nonzero;stroke:none"
         id="text168"><tspan
           x="0"
           y="0"
           id="tspan166">g</tspan></text>
      <path
         d="m 188.508,76.449 c 0.863,3.836 3.43,7.067 6.969,8.774 3.539,1.711 7.664,1.711 11.199,0 3.539,-1.707 6.105,-4.938 6.969,-8.774"
         style="fill:none;stroke:#000000;stroke-width:0.6912;stroke-linecap:butt;stroke-linejoin:miter;stroke-miterlimit:3.25;stroke-dasharray:0.6912, 4.1472;stroke-dashoffset:0;stroke-opacity:1"
         id="path170" />
      <path
         d="m 197.305,86.504 7.543,2.516 v -5.028 z"
         style="fill:#000000;fill-opacity:1;fill-rule:evenodd;stroke:none"
         id="path172" />
      <text
         xml:space="preserve"
         transform="translate(193.08777,101.6823)"
         style="font-variant:normal;font-size:15.84px;font-family:CairoFont-0;-inkscape-font-specification:CairoFont-0-0;writing-mode:lr-tb;fill:#000000;fill-opacity:1;fill-rule:nonzero;stroke:none"
         id="text176"><tspan
           x="0"
           y="0"
           id="tspan174">u</tspan></text>
      <text
         xml:space="preserve"
         transform="translate(201.97839,104.62371)"
         style="font-variant:normal;font-size:11.28px;font-family:CairoFont-0;-inkscape-font-specification:CairoFont-0-0;writing-mode:lr-tb;fill:#000000;fill-opacity:1;fill-rule:nonzero;stroke:none"
         id="text180"><tspan
           x="0"
           y="0"
           id="tspan178">g</tspan></text>
      <path
         d="m 226.211,98.445 0.723,-0.746 0.531,-0.922 0.289,-1.043 0.019,-1.097 -0.25,-1.063 -0.5,-0.957 -0.707,-0.785 -0.859,-0.574 -0.949,-0.34 -0.969,-0.121 -0.934,0.074 -0.851,0.227 -0.727,0.336 -0.562,0.398 -0.383,0.422 -0.18,0.41 0.032,0.379 0.238,0.328 0.433,0.254 0.606,0.168 0.746,0.055 0.836,-0.082 0.879,-0.246 0.855,-0.43 0.774,-0.625 0.625,-0.805 0.418,-0.957 0.172,-1.055 -0.098,-1.086 -0.363,-1.031 -0.606,-0.906 -0.804,-0.719 -0.934,-0.48 -0.996,-0.235 -1,0.004 -0.945,0.219 -0.844,0.379 -0.711,0.488 -0.555,0.539 -0.379,0.539 -0.195,0.5 -0.004,0.426 0.188,0.324 0.367,0.215 0.531,0.086 0.656,-0.055 0.746,-0.203 0.782,-0.363 0.757,-0.535 0.664,-0.703 0.512,-0.86 0.309,-0.98 0.054,-1.047 -0.21,-1.055 -0.473,-0.984 -0.703,-0.84 -0.883,-0.633 -1,-0.386 -1.035,-0.125 -1.012,0.129 -0.93,0.351 -0.804,0.52 -0.66,0.629 -0.497,0.679 -0.332,0.672 -0.16,0.606 v 0.503 l 0.16,0.372 0.313,0.218 0.445,0.055 0.555,-0.117 0.629,-0.285 0.66,-0.453 0.625,-0.618 0.539,-0.765 0.391,-0.899 0.183,-0.988 -0.054,-1.031 -0.321,-1.012 -0.57,-0.914 -0.789,-0.758 -0.953,-0.539 -1.047,-0.281 -1.063,-0.012 -1.007,0.246"
         style="fill:none;stroke:#000000;stroke-width:0.6912;stroke-linecap:square;stroke-linejoin:miter;stroke-miterlimit:3.25;stroke-dasharray:none;stroke-opacity:1"
         id="path182" />
      <text
         xml:space="preserve"
         transform="translate(227.99217,80.858101)"
         style="font-variant:normal;font-size:15.84px;font-family:CairoFont-0;-inkscape-font-specification:CairoFont-0-0;writing-mode:lr-tb;fill:#000000;fill-opacity:1;fill-rule:nonzero;stroke:none"
         id="text186"><tspan
           x="0"
           y="0"
           id="tspan184">g</tspan></text>
      <path
         d="m 216.41,76.449 c 0,0.735 -0.293,1.438 -0.812,1.957 -0.516,0.52 -1.223,0.809 -1.953,0.809 -0.735,0 -1.438,-0.289 -1.957,-0.809 -0.516,-0.519 -0.809,-1.222 -0.809,-1.957 0,-0.73 0.293,-1.433 0.809,-1.953 0.519,-0.519 1.222,-0.808 1.957,-0.808 0.73,0 1.437,0.289 1.953,0.808 0.519,0.52 0.812,1.223 0.812,1.953 z"
         style="fill:#000000;fill-opacity:1;fill-rule:evenodd;stroke:none"
         id="path188" />
      <path
         d="m 191.273,76.449 c 0,0.735 -0.289,1.438 -0.808,1.957 -0.52,0.52 -1.223,0.809 -1.957,0.809 -0.731,0 -1.434,-0.289 -1.953,-0.809 -0.52,-0.519 -0.809,-1.222 -0.809,-1.957 0,-0.73 0.289,-1.433 0.809,-1.953 0.519,-0.519 1.222,-0.808 1.953,-0.808 0.734,0 1.437,0.289 1.957,0.808 0.519,0.52 0.808,1.223 0.808,1.953 z"
         style="fill:#000000;fill-opacity:1;fill-rule:evenodd;stroke:none"
         id="path190" />
      <path
         d="m 178.707,98.445 c 0,0.731 -0.293,1.434 -0.809,1.953 -0.519,0.52 -1.222,0.809 -1.957,0.809 -0.734,0 -1.437,-0.289 -1.953,-0.809 -0.519,-0.519 -0.812,-1.222 -0.812,-1.953 0,-0.734 0.293,-1.437 0.812,-1.957 0.516,-0.519 1.219,-0.808 1.953,-0.808 0.735,0 1.438,0.289 1.957,0.808 0.516,0.52 0.809,1.223 0.809,1.957 z"
         style="fill:#000000;fill-opacity:1;fill-rule:evenodd;stroke:none"
         id="path192" />
      <path
         d="m 228.977,98.445 c 0,0.731 -0.293,1.434 -0.813,1.953 -0.516,0.52 -1.219,0.809 -1.953,0.809 -0.734,0 -1.438,-0.289 -1.953,-0.809 -0.52,-0.519 -0.813,-1.222 -0.813,-1.953 0,-0.734 0.293,-1.437 0.813,-1.957 0.515,-0.519 1.219,-0.808 1.953,-0.808 0.734,0 1.437,0.289 1.953,0.808 0.52,0.52 0.813,1.223 0.813,1.957 z"
         style="fill:#000000;fill-opacity:1;fill-rule:evenodd;stroke:none"
         id="path194" />
    </g>
    <g
       id="g196">
      <g
         id="g198"
         clip-path="url(#clipPath202)">
        <text
           xml:space="preserve"
           transform="translate(197.46699,161.49994)"
           style="font-variant:normal;font-size:12.72px;font-family:CairoFont-1;-inkscape-font-specification:CairoFont-1-0;writing-mode:lr-tb;fill:#000000;fill-opacity:1;fill-rule:nonzero;stroke:none"
           id="text206"><tspan
             x="0"
             y="0"
             id="tspan204">6</tspan></text>
      </g>
    </g>
    <g
       id="g208">
      <path
         d="m 276.48,98.445 h 37.704"
         style="fill:none;stroke:#000000;stroke-width:0.6912;stroke-linecap:butt;stroke-linejoin:miter;stroke-miterlimit:3.25;stroke-dasharray:0.6912, 4.1472;stroke-dashoffset:0;stroke-opacity:1"
         id="path210" />
      <path
         d="m 299.102,98.445 -7.54,2.512 V 95.93 Z"
         style="fill:#000000;fill-opacity:1;fill-rule:evenodd;stroke:none"
         id="path212" />
      <text
         xml:space="preserve"
         transform="translate(287.34231,113.62121)"
         style="font-variant:normal;font-size:15.84px;font-family:CairoFont-0;-inkscape-font-specification:CairoFont-0-0;writing-mode:lr-tb;fill:#000000;fill-opacity:1;fill-rule:nonzero;stroke:none"
         id="text216"><tspan
           x="0"
           y="0"
           id="tspan214">u</tspan></text>
      <text
         xml:space="preserve"
         transform="translate(296.23294,116.56262)"
         style="font-variant:normal;font-size:11.28px;font-family:CairoFont-0;-inkscape-font-specification:CairoFont-0-0;writing-mode:lr-tb;fill:#000000;fill-opacity:1;fill-rule:nonzero;stroke:none"
         id="text220"><tspan
           x="0"
           y="0"
           id="tspan218">g</tspan></text>
      <path
         d="M 402.152,98.445 H 364.449"
         style="fill:none;stroke:#000000;stroke-width:0.6912;stroke-linecap:butt;stroke-linejoin:miter;stroke-miterlimit:3.25;stroke-dasharray:0.6912, 4.1472;stroke-dashoffset:0;stroke-opacity:1"
         id="path222" />
      <path
         d="m 387.07,98.445 -7.539,-2.515 v 5.027 z"
         style="fill:#000000;fill-opacity:1;fill-rule:evenodd;stroke:none"
         id="path224" />
      <text
         xml:space="preserve"
         transform="translate(375.31322,113.62121)"
         style="font-variant:normal;font-size:15.84px;font-family:CairoFont-0;-inkscape-font-specification:CairoFont-0-0;writing-mode:lr-tb;fill:#000000;fill-opacity:1;fill-rule:nonzero;stroke:none"
         id="text228"><tspan
           x="0"
           y="0"
           id="tspan226">u</tspan></text>
      <text
         xml:space="preserve"
         transform="translate(384.20385,116.56262)"
         style="font-variant:normal;font-size:11.28px;font-family:CairoFont-0;-inkscape-font-specification:CairoFont-0-0;writing-mode:lr-tb;fill:#000000;fill-opacity:1;fill-rule:nonzero;stroke:none"
         id="text232"><tspan
           x="0"
           y="0"
           id="tspan230">g</tspan></text>
      <path
         d="m 364.449,98.445 0.574,0.746 0.426,0.868 0.25,0.957 0.059,1 -0.145,0.996 -0.336,0.945 -0.511,0.848 -0.657,0.715 -0.765,0.554 -0.832,0.387 -0.86,0.215 -0.847,0.054 -0.809,-0.078 -0.73,-0.191 -0.633,-0.27 -0.516,-0.32 -0.383,-0.34 -0.238,-0.336 -0.09,-0.308 0.063,-0.27 0.211,-0.215 0.347,-0.144 0.473,-0.063 0.574,0.032 0.645,0.136 0.687,0.254 0.692,0.387 0.656,0.519 0.582,0.657 0.469,0.773 0.32,0.879 0.141,0.953 -0.051,0.981 -0.246,0.968 -0.442,0.907 -0.605,0.8 -0.746,0.657 -0.848,0.488 -0.902,0.301 -0.914,0.113 -0.895,-0.059 -0.832,-0.211 -0.75,-0.332 -0.648,-0.418 -0.532,-0.464 -0.402,-0.481 -0.273,-0.457 -0.137,-0.414 -0.008,-0.34 0.125,-0.254 0.242,-0.152 0.356,-0.043 0.445,0.074 0.516,0.199 0.554,0.325 0.559,0.449 0.527,0.57 0.461,0.692 0.348,0.793 0.207,0.875 0.039,0.929 -0.152,0.942 -0.344,0.918 -0.527,0.843 -0.692,0.731 -0.82,0.582 -0.914,0.402 -0.957,0.207 -0.957,0.016 -0.914,-0.168 -0.84,-0.332 -0.735,-0.461 -0.621,-0.555 -0.492,-0.609 -0.363,-0.625 -0.242,-0.598 -0.121,-0.543 -0.012,-0.461 0.09,-0.351 0.183,-0.223 0.266,-0.094 0.332,0.051 0.383,0.192 0.41,0.332 0.414,0.464 0.379,0.59 0.32,0.699 0.219,0.786 0.086,0.855 -0.07,0.891 -0.243,0.886 -0.425,0.848 -0.602,0.77 -0.754,0.64 -0.879,0.489 -0.961,0.304 -0.996,0.11 -0.98,-0.09 -0.922,-0.278 -0.824,-0.441 -0.703,-0.578 -0.567,-0.668 -0.422,-0.731 -0.281,-0.742 -0.152,-0.722 -0.043,-0.664 0.051,-0.575 0.132,-0.465 0.196,-0.332 0.238,-0.183 0.277,-0.031 0.293,0.129 0.293,0.277 0.278,0.422 0.238,0.551 0.176,0.66 0.082,0.75 -0.039,0.804 -0.176,0.832 -0.336,0.821 -0.5,0.765 -0.656,0.676 -0.801,0.547 -0.91,0.383 -0.985,0.199 h -1.008 l -0.984,-0.199 -0.91,-0.383 -0.801,-0.547 -0.656,-0.676 -0.5,-0.765 -0.336,-0.821 -0.176,-0.832 -0.039,-0.804 0.082,-0.75 0.176,-0.66 0.238,-0.551 0.278,-0.422 0.293,-0.277 0.293,-0.129 0.277,0.031 0.238,0.183 0.195,0.332 0.133,0.465 0.051,0.575 -0.043,0.664 -0.152,0.722 -0.281,0.742 -0.422,0.731 -0.567,0.668 -0.703,0.578 -0.824,0.441 -0.922,0.278 -0.98,0.09 -0.997,-0.11 -0.961,-0.304 -0.878,-0.489 -0.754,-0.64 -0.602,-0.77 -0.426,-0.848 -0.242,-0.886 -0.07,-0.891 0.086,-0.855 0.219,-0.786 0.316,-0.699 0.383,-0.59 0.414,-0.464 0.41,-0.332 0.383,-0.192 0.332,-0.051 0.265,0.094 0.184,0.223 0.09,0.351 -0.012,0.461 -0.121,0.543 -0.242,0.598 -0.363,0.625 -0.493,0.609 -0.621,0.555 -0.734,0.461 -0.84,0.332 -0.914,0.168 -0.957,-0.016 -0.957,-0.207 -0.914,-0.402 -0.82,-0.582 -0.692,-0.731 -0.527,-0.843 -0.344,-0.918 -0.152,-0.942 0.039,-0.929 0.207,-0.875 0.347,-0.793 0.458,-0.692 0.531,-0.57 0.558,-0.449 0.555,-0.325 0.516,-0.199 0.445,-0.074 0.355,0.043 0.243,0.152 0.125,0.254 -0.008,0.34 -0.137,0.414 -0.273,0.457 -0.403,0.481 -0.531,0.464 -0.648,0.418 -0.75,0.332 -0.836,0.211 -0.891,0.059 -0.914,-0.113 -0.902,-0.301 -0.848,-0.488 -0.746,-0.657 -0.606,-0.8 -0.441,-0.907 -0.246,-0.968 -0.051,-0.981 0.141,-0.953 0.32,-0.879 0.469,-0.773 0.578,-0.657 0.66,-0.519 0.692,-0.387 0.687,-0.254 0.645,-0.136 0.574,-0.032 0.472,0.063 0.348,0.144 0.211,0.215 0.063,0.27 -0.09,0.308 -0.239,0.336 -0.382,0.34 -0.516,0.32 -0.633,0.27 -0.73,0.191 -0.809,0.078 -0.848,-0.054 -0.859,-0.215 -0.832,-0.387 -0.766,-0.554 -0.656,-0.715 -0.512,-0.848 -0.335,-0.945 -0.145,-0.996 0.059,-1 0.25,-0.957 0.425,-0.868 0.575,-0.746"
         style="fill:none;stroke:#000000;stroke-width:0.6912;stroke-linecap:square;stroke-linejoin:miter;stroke-miterlimit:3.25;stroke-dasharray:none;stroke-opacity:1"
         id="path234" />
      <text
         xml:space="preserve"
         transform="translate(334.60543,144.7206)"
         style="font-variant:normal;font-size:15.84px;font-family:CairoFont-0;-inkscape-font-specification:CairoFont-0-0;writing-mode:lr-tb;fill:#000000;fill-opacity:1;fill-rule:nonzero;stroke:none"
         id="text238"><tspan
           x="0"
           y="0"
           id="tspan236">g</tspan></text>
      <path
         d="m 326.75,76.449 c -8.406,3.953 -13.43,12.746 -12.566,21.996"
         style="fill:none;stroke:#000000;stroke-width:0.6912;stroke-linecap:butt;stroke-linejoin:miter;stroke-miterlimit:3.25;stroke-dasharray:0.6912, 4.1472;stroke-dashoffset:0;stroke-opacity:1"
         id="path240" />
      <path
         d="m 318.859,82.188 -5.921,5.3 4.363,2.492 z"
         style="fill:#000000;fill-opacity:1;fill-rule:evenodd;stroke:none"
         id="path242" />
      <text
         xml:space="preserve"
         transform="translate(296.35739,78.003993)"
         style="font-variant:normal;font-size:15.84px;font-family:CairoFont-0;-inkscape-font-specification:CairoFont-0-0;writing-mode:lr-tb;fill:#000000;fill-opacity:1;fill-rule:nonzero;stroke:none"
         id="text246"><tspan
           x="0"
           y="0"
           id="tspan244">u</tspan></text>
      <text
         xml:space="preserve"
         transform="translate(305.24801,80.945399)"
         style="font-variant:normal;font-size:11.28px;font-family:CairoFont-0;-inkscape-font-specification:CairoFont-0-0;writing-mode:lr-tb;fill:#000000;fill-opacity:1;fill-rule:nonzero;stroke:none"
         id="text250"><tspan
           x="0"
           y="0"
           id="tspan248">g</tspan></text>
      <path
         d="m 351.883,76.449 c -0.863,-3.832 -3.426,-7.062 -6.965,-8.769 -3.539,-1.711 -7.664,-1.711 -11.203,0 -3.539,1.707 -6.102,4.937 -6.965,8.769"
         style="fill:none;stroke:#000000;stroke-width:0.6912;stroke-linecap:butt;stroke-linejoin:miter;stroke-miterlimit:3.25;stroke-dasharray:0.6912, 4.1472;stroke-dashoffset:0;stroke-opacity:1"
         id="path252" />
      <path
         d="m 343.086,66.398 -7.539,-2.515 v 5.027 z"
         style="fill:#000000;fill-opacity:1;fill-rule:evenodd;stroke:none"
         id="path254" />
      <text
         xml:space="preserve"
         transform="translate(331.32777,54.032017)"
         style="font-variant:normal;font-size:15.84px;font-family:CairoFont-0;-inkscape-font-specification:CairoFont-0-0;writing-mode:lr-tb;fill:#000000;fill-opacity:1;fill-rule:nonzero;stroke:none"
         id="text258"><tspan
           x="0"
           y="0"
           id="tspan256">u</tspan></text>
      <text
         xml:space="preserve"
         transform="translate(340.21839,56.973423)"
         style="font-variant:normal;font-size:11.28px;font-family:CairoFont-0;-inkscape-font-specification:CairoFont-0-0;writing-mode:lr-tb;fill:#000000;fill-opacity:1;fill-rule:nonzero;stroke:none"
         id="text262"><tspan
           x="0"
           y="0"
           id="tspan260">g</tspan></text>
      <path
         d="m 326.75,76.449 -0.453,0.961 -0.172,1.094 0.141,1.133 0.457,1.074 0.73,0.906 0.926,0.656 1.035,0.356 1.047,0.047 0.984,-0.231 0.871,-0.449 0.723,-0.598 0.574,-0.671 0.422,-0.668 0.281,-0.606 0.133,-0.504 -0.011,-0.363 -0.168,-0.219 -0.321,-0.066 -0.469,0.078 -0.585,0.215 -0.672,0.359 -0.696,0.508 -0.648,0.66 -0.527,0.813 -0.332,0.945 -0.071,1.035 0.231,1.055 0.539,0.984 0.816,0.824 1.016,0.575 1.121,0.273 1.117,-0.047 1.016,-0.344 0.847,-0.589 0.637,-0.766 0.43,-0.859 0.242,-0.887 0.094,-0.84 -0.02,-0.746 -0.105,-0.598 -0.164,-0.418 -0.223,-0.222 -0.277,-0.012 -0.332,0.191 -0.383,0.387 -0.399,0.563 -0.375,0.71 -0.297,0.84 -0.152,0.934 0.055,0.984 0.308,0.965 0.586,0.879 0.84,0.707 1.047,0.457 1.152,0.16 1.153,-0.16 1.047,-0.457 0.839,-0.707 0.586,-0.879 0.309,-0.965 0.055,-0.984 -0.153,-0.934 -0.297,-0.84 -0.375,-0.71 -0.398,-0.563 -0.383,-0.387 -0.332,-0.191 -0.281,0.012 -0.219,0.222 -0.168,0.418 -0.101,0.598 -0.02,0.746 0.094,0.84 0.242,0.887 0.43,0.859 0.636,0.766 0.848,0.589 1.016,0.344 1.117,0.047 1.121,-0.273 1.016,-0.575 0.816,-0.824 0.539,-0.984 0.231,-1.055 -0.071,-1.035 -0.332,-0.945 -0.527,-0.813 -0.649,-0.66 -0.695,-0.508 -0.672,-0.359 -0.586,-0.215 -0.468,-0.078 -0.321,0.066 -0.168,0.219 -0.011,0.363 0.132,0.504 0.282,0.606 0.422,0.668 0.574,0.671 0.722,0.598 0.872,0.449 0.984,0.231 1.047,-0.047 1.031,-0.356 0.93,-0.656 0.73,-0.906 0.457,-1.074 0.141,-1.133 -0.172,-1.094 -0.453,-0.961"
         style="fill:none;stroke:#000000;stroke-width:0.6912;stroke-linecap:square;stroke-linejoin:miter;stroke-miterlimit:3.25;stroke-dasharray:none;stroke-opacity:1"
         id="path264" />
      <text
         xml:space="preserve"
         transform="translate(334.60543,107.64715)"
         style="font-variant:normal;font-size:15.84px;font-family:CairoFont-0;-inkscape-font-specification:CairoFont-0-0;writing-mode:lr-tb;fill:#000000;fill-opacity:1;fill-rule:nonzero;stroke:none"
         id="text268"><tspan
           x="0"
           y="0"
           id="tspan266">g</tspan></text>
      <path
         d="M 364.449,98.445 C 365.211,89.219 360.215,80.48 351.883,76.449"
         style="fill:none;stroke:#000000;stroke-width:0.6912;stroke-linecap:butt;stroke-linejoin:miter;stroke-miterlimit:3.25;stroke-dasharray:0.6912, 4.1472;stroke-dashoffset:0;stroke-opacity:1"
         id="path270" />
      <path
         d="m 363.445,88.773 -1.558,-7.793 -4.364,2.493 z"
         style="fill:#000000;fill-opacity:1;fill-rule:evenodd;stroke:none"
         id="path272" />
      <text
         xml:space="preserve"
         transform="translate(366.23217,78.041695)"
         style="font-variant:normal;font-size:15.84px;font-family:CairoFont-0;-inkscape-font-specification:CairoFont-0-0;writing-mode:lr-tb;fill:#000000;fill-opacity:1;fill-rule:nonzero;stroke:none"
         id="text276"><tspan
           x="0"
           y="0"
           id="tspan274">u</tspan></text>
      <text
         xml:space="preserve"
         transform="translate(375.1228,80.983101)"
         style="font-variant:normal;font-size:11.28px;font-family:CairoFont-0;-inkscape-font-specification:CairoFont-0-0;writing-mode:lr-tb;fill:#000000;fill-opacity:1;fill-rule:nonzero;stroke:none"
         id="text280"><tspan
           x="0"
           y="0"
           id="tspan278">g</tspan></text>
      <path
         d="m 354.648,76.449 c 0,0.735 -0.293,1.438 -0.808,1.957 -0.52,0.52 -1.223,0.809 -1.957,0.809 -0.735,0 -1.438,-0.289 -1.953,-0.809 -0.52,-0.519 -0.813,-1.222 -0.813,-1.957 0,-0.73 0.293,-1.433 0.813,-1.953 0.515,-0.519 1.218,-0.808 1.953,-0.808 0.734,0 1.437,0.289 1.957,0.808 0.515,0.52 0.808,1.223 0.808,1.953 z"
         style="fill:#000000;fill-opacity:1;fill-rule:evenodd;stroke:none"
         id="path282" />
      <path
         d="m 329.516,76.449 c 0,0.735 -0.293,1.438 -0.813,1.957 -0.515,0.52 -1.223,0.809 -1.953,0.809 -0.734,0 -1.438,-0.289 -1.957,-0.809 -0.516,-0.519 -0.809,-1.222 -0.809,-1.957 0,-0.73 0.293,-1.433 0.809,-1.953 0.519,-0.519 1.223,-0.808 1.957,-0.808 0.73,0 1.438,0.289 1.953,0.808 0.52,0.52 0.813,1.223 0.813,1.953 z"
         style="fill:#000000;fill-opacity:1;fill-rule:evenodd;stroke:none"
         id="path284" />
      <path
         d="m 316.945,98.445 c 0,0.731 -0.289,1.434 -0.808,1.953 -0.52,0.52 -1.223,0.809 -1.953,0.809 -0.735,0 -1.438,-0.289 -1.957,-0.809 -0.52,-0.519 -0.809,-1.222 -0.809,-1.953 0,-0.734 0.289,-1.437 0.809,-1.957 0.519,-0.519 1.222,-0.808 1.957,-0.808 0.73,0 1.433,0.289 1.953,0.808 0.519,0.52 0.808,1.223 0.808,1.957 z"
         style="fill:#000000;fill-opacity:1;fill-rule:evenodd;stroke:none"
         id="path286" />
      <path
         d="m 367.215,98.445 c 0,0.731 -0.289,1.434 -0.809,1.953 -0.519,0.52 -1.222,0.809 -1.957,0.809 -0.73,0 -1.433,-0.289 -1.953,-0.809 -0.519,-0.519 -0.808,-1.222 -0.808,-1.953 0,-0.734 0.289,-1.437 0.808,-1.957 0.52,-0.519 1.223,-0.808 1.953,-0.808 0.735,0 1.438,0.289 1.957,0.808 0.52,0.52 0.809,1.223 0.809,1.957 z"
         style="fill:#000000;fill-opacity:1;fill-rule:evenodd;stroke:none"
         id="path288" />
    </g>
    <g
       id="g290">
      <g
         id="g292"
         clip-path="url(#clipPath296)">
        <text
           xml:space="preserve"
           transform="translate(335.70699,161.49994)"
           style="font-variant:normal;font-size:12.72px;font-family:CairoFont-1;-inkscape-font-specification:CairoFont-1-0;writing-mode:lr-tb;fill:#000000;fill-opacity:1;fill-rule:nonzero;stroke:none"
           id="text300"><tspan
             x="0"
             y="0"
             id="tspan298">7</tspan></text>
      </g>
    </g>
    <g
       id="g302">
      <path
         d="m 414.719,98.445 h 37.703"
         style="fill:none;stroke:#000000;stroke-width:0.6912;stroke-linecap:butt;stroke-linejoin:miter;stroke-miterlimit:3.25;stroke-dasharray:0.6912, 4.1472;stroke-dashoffset:0;stroke-opacity:1"
         id="path304" />
      <path
         d="m 437.34,98.445 -7.539,2.512 V 95.93 Z"
         style="fill:#000000;fill-opacity:1;fill-rule:evenodd;stroke:none"
         id="path306" />
      <text
         xml:space="preserve"
         transform="translate(425.58231,113.62121)"
         style="font-variant:normal;font-size:15.84px;font-family:CairoFont-0;-inkscape-font-specification:CairoFont-0-0;writing-mode:lr-tb;fill:#000000;fill-opacity:1;fill-rule:nonzero;stroke:none"
         id="text310"><tspan
           x="0"
           y="0"
           id="tspan308">u</tspan></text>
      <text
         xml:space="preserve"
         transform="translate(434.47294,116.56262)"
         style="font-variant:normal;font-size:11.28px;font-family:CairoFont-0;-inkscape-font-specification:CairoFont-0-0;writing-mode:lr-tb;fill:#000000;fill-opacity:1;fill-rule:nonzero;stroke:none"
         id="text314"><tspan
           x="0"
           y="0"
           id="tspan312">g</tspan></text>
      <path
         d="M 540.395,98.445 H 502.691"
         style="fill:none;stroke:#000000;stroke-width:0.6912;stroke-linecap:butt;stroke-linejoin:miter;stroke-miterlimit:3.25;stroke-dasharray:0.6912, 4.1472;stroke-dashoffset:0;stroke-opacity:1"
         id="path316" />
      <path
         d="m 525.312,98.445 -7.539,-2.515 v 5.027 z"
         style="fill:#000000;fill-opacity:1;fill-rule:evenodd;stroke:none"
         id="path318" />
      <text
         xml:space="preserve"
         transform="translate(513.55322,113.62121)"
         style="font-variant:normal;font-size:15.84px;font-family:CairoFont-0;-inkscape-font-specification:CairoFont-0-0;writing-mode:lr-tb;fill:#000000;fill-opacity:1;fill-rule:nonzero;stroke:none"
         id="text322"><tspan
           x="0"
           y="0"
           id="tspan320">u</tspan></text>
      <text
         xml:space="preserve"
         transform="translate(522.44385,116.56262)"
         style="font-variant:normal;font-size:11.28px;font-family:CairoFont-0;-inkscape-font-specification:CairoFont-0-0;writing-mode:lr-tb;fill:#000000;fill-opacity:1;fill-rule:nonzero;stroke:none"
         id="text326"><tspan
           x="0"
           y="0"
           id="tspan324">g</tspan></text>
      <path
         d="m 452.422,98.445 c 0,6.664 2.648,13.059 7.363,17.77 4.711,4.715 11.106,7.363 17.77,7.363 6.668,0 13.062,-2.648 17.773,-7.363 4.715,-4.711 7.363,-11.106 7.363,-17.77"
         style="fill:none;stroke:#000000;stroke-width:0.6912;stroke-linecap:butt;stroke-linejoin:miter;stroke-miterlimit:3.25;stroke-dasharray:0.6912, 4.1472;stroke-dashoffset:0;stroke-opacity:1"
         id="path328" />
      <path
         d="m 481.328,123.578 -7.543,2.512 v -5.024 z"
         style="fill:#000000;fill-opacity:1;fill-rule:evenodd;stroke:none"
         id="path330" />
      <text
         xml:space="preserve"
         transform="translate(469.56777,138.75576)"
         style="font-variant:normal;font-size:15.84px;font-family:CairoFont-0;-inkscape-font-specification:CairoFont-0-0;writing-mode:lr-tb;fill:#000000;fill-opacity:1;fill-rule:nonzero;stroke:none"
         id="text334"><tspan
           x="0"
           y="0"
           id="tspan332">u</tspan></text>
      <text
         xml:space="preserve"
         transform="translate(478.45839,141.69716)"
         style="font-variant:normal;font-size:11.28px;font-family:CairoFont-0;-inkscape-font-specification:CairoFont-0-0;writing-mode:lr-tb;fill:#000000;fill-opacity:1;fill-rule:nonzero;stroke:none"
         id="text338"><tspan
           x="0"
           y="0"
           id="tspan336">g</tspan></text>
      <path
         d="m 452.422,98.445 -0.731,-0.738 -0.539,-0.918 -0.3,-1.043 -0.032,-1.098 0.242,-1.066 0.497,-0.965 0.703,-0.789 0.855,-0.578 0.945,-0.348 0.969,-0.125 0.938,0.067 0.851,0.226 0.727,0.328 0.566,0.395 0.383,0.418 0.184,0.406 -0.028,0.379 -0.234,0.324 -0.434,0.258 -0.605,0.168 -0.742,0.059 -0.84,-0.078 -0.879,-0.239 -0.859,-0.426 -0.774,-0.621 -0.629,-0.8 -0.426,-0.957 -0.175,-1.055 0.093,-1.086 0.364,-1.035 0.605,-0.91 0.801,-0.719 0.934,-0.484 1,-0.239 0.996,0.008 0.945,0.219 0.844,0.379 0.711,0.488 0.554,0.539 0.379,0.539 0.196,0.496 0.007,0.422 -0.187,0.324 -0.367,0.211 -0.528,0.086 -0.656,-0.055 -0.746,-0.203 -0.781,-0.363 -0.758,-0.535 -0.664,-0.703 -0.512,-0.86 -0.308,-0.98 -0.055,-1.051 0.215,-1.055 0.472,-0.984 0.711,-0.836 0.887,-0.633 1,-0.382 1.039,-0.122 1.008,0.137 0.93,0.352 0.8,0.523 0.657,0.637 0.492,0.684 0.328,0.667 0.16,0.61 v 0.504 l -0.164,0.367 -0.309,0.215 -0.445,0.051 -0.555,-0.122 -0.625,-0.289 -0.656,-0.457 -0.625,-0.621 -0.535,-0.769 -0.383,-0.899 -0.179,-0.992 0.062,-1.031 0.324,-1.008 0.578,-0.914 0.797,-0.75 0.961,-0.531 1.051,-0.274 h 1.062 l 1.008,0.254"
         style="fill:none;stroke:#000000;stroke-width:0.6912;stroke-linecap:square;stroke-linejoin:miter;stroke-miterlimit:3.25;stroke-dasharray:none;stroke-opacity:1"
         id="path340" />
      <text
         xml:space="preserve"
         transform="translate(441.1527,80.820399)"
         style="font-variant:normal;font-size:15.84px;font-family:CairoFont-0;-inkscape-font-specification:CairoFont-0-0;writing-mode:lr-tb;fill:#000000;fill-opacity:1;fill-rule:nonzero;stroke:none"
         id="text344"><tspan
           x="0"
           y="0"
           id="tspan342">g</tspan></text>
      <path
         d="m 464.988,76.449 -0.453,-0.957 -0.172,-1.094 0.145,-1.132 0.457,-1.075 0.73,-0.906 0.926,-0.656 1.035,-0.356 1.047,-0.046 0.985,0.23 0.867,0.449 0.726,0.598 0.571,0.668 0.425,0.672 0.278,0.605 0.136,0.504 -0.015,0.363 -0.164,0.219 -0.324,0.067 -0.465,-0.079 -0.59,-0.218 -0.668,-0.36 -0.695,-0.504 -0.649,-0.66 -0.527,-0.812 -0.332,-0.946 -0.071,-1.035 0.231,-1.054 0.539,-0.985 0.812,-0.824 1.016,-0.574 1.121,-0.274 1.117,0.047 1.016,0.344 0.848,0.59 0.64,0.762 0.43,0.863 0.242,0.887 0.09,0.839 -0.02,0.746 -0.101,0.598 -0.164,0.418 -0.223,0.223 -0.277,0.011 -0.336,-0.195 -0.379,-0.383 -0.402,-0.562 -0.375,-0.711 -0.297,-0.84 -0.153,-0.934 0.055,-0.984 0.313,-0.965 0.582,-0.879 0.843,-0.707 1.043,-0.461 1.153,-0.156 1.156,0.156 1.043,0.461 0.844,0.707 0.582,0.879 0.312,0.965 0.055,0.984 -0.152,0.934 -0.297,0.84 -0.379,0.711 -0.399,0.562 -0.379,0.383 -0.336,0.195 -0.277,-0.011 -0.223,-0.223 -0.164,-0.418 -0.101,-0.598 -0.02,-0.746 0.09,-0.839 0.242,-0.887 0.43,-0.863 0.641,-0.762 0.843,-0.59 1.02,-0.344 1.117,-0.047 1.121,0.274 1.016,0.574 0.812,0.824 0.539,0.985 0.231,1.054 -0.07,1.035 -0.332,0.946 -0.528,0.812 -0.648,0.66 -0.696,0.504 -0.668,0.36 -0.589,0.218 -0.465,0.079 -0.324,-0.067 -0.164,-0.219 -0.016,-0.363 0.137,-0.504 0.277,-0.605 0.426,-0.672 0.57,-0.668 0.727,-0.598 0.867,-0.449 0.984,-0.23 1.047,0.046 1.035,0.356 0.926,0.656 0.73,0.906 0.457,1.075 0.145,1.132 -0.172,1.094 -0.453,0.957"
         style="fill:none;stroke:#000000;stroke-width:0.6912;stroke-linecap:square;stroke-linejoin:miter;stroke-miterlimit:3.25;stroke-dasharray:none;stroke-opacity:1"
         id="path346" />
      <text
         xml:space="preserve"
         transform="translate(472.84543,56.848423)"
         style="font-variant:normal;font-size:15.84px;font-family:CairoFont-0;-inkscape-font-specification:CairoFont-0-0;writing-mode:lr-tb;fill:#000000;fill-opacity:1;fill-rule:nonzero;stroke:none"
         id="text350"><tspan
           x="0"
           y="0"
           id="tspan348">g</tspan></text>
      <path
         d="m 464.988,76.449 -0.453,0.961 -0.172,1.094 0.145,1.133 0.457,1.074 0.73,0.906 0.926,0.656 1.035,0.356 1.047,0.047 0.985,-0.231 0.867,-0.449 0.726,-0.598 0.571,-0.671 0.425,-0.668 0.278,-0.606 0.136,-0.504 -0.015,-0.363 -0.164,-0.219 -0.324,-0.066 -0.465,0.078 -0.59,0.215 -0.668,0.359 -0.695,0.508 -0.649,0.66 -0.527,0.813 -0.332,0.945 -0.071,1.035 0.231,1.055 0.539,0.984 0.812,0.824 1.016,0.575 1.121,0.273 1.117,-0.047 1.016,-0.344 0.848,-0.589 0.64,-0.766 0.43,-0.859 0.242,-0.887 0.09,-0.84 -0.02,-0.746 -0.101,-0.598 -0.164,-0.418 -0.223,-0.222 -0.277,-0.012 -0.336,0.191 -0.379,0.387 -0.402,0.563 -0.375,0.71 -0.297,0.84 -0.153,0.934 0.055,0.984 0.313,0.965 0.582,0.879 0.843,0.707 1.043,0.457 1.153,0.16 1.156,-0.16 1.043,-0.457 0.844,-0.707 0.582,-0.879 0.312,-0.965 0.055,-0.984 -0.152,-0.934 -0.297,-0.84 -0.379,-0.71 -0.399,-0.563 -0.379,-0.387 -0.336,-0.191 -0.277,0.012 -0.223,0.222 -0.164,0.418 -0.101,0.598 -0.02,0.746 0.09,0.84 0.242,0.887 0.43,0.859 0.641,0.766 0.843,0.589 1.02,0.344 1.117,0.047 1.121,-0.273 1.016,-0.575 0.812,-0.824 0.539,-0.984 0.231,-1.055 -0.07,-1.035 -0.332,-0.945 -0.528,-0.813 -0.648,-0.66 -0.696,-0.508 -0.668,-0.359 -0.589,-0.215 -0.465,-0.078 -0.324,0.066 -0.164,0.219 -0.016,0.363 0.137,0.504 0.277,0.606 0.426,0.668 0.57,0.671 0.727,0.598 0.867,0.449 0.984,0.231 1.047,-0.047 1.035,-0.356 0.926,-0.656 0.73,-0.906 0.457,-1.074 0.145,-1.133 -0.172,-1.094 -0.453,-0.961"
         style="fill:none;stroke:#000000;stroke-width:0.6912;stroke-linecap:square;stroke-linejoin:miter;stroke-miterlimit:3.25;stroke-dasharray:none;stroke-opacity:1"
         id="path352" />
      <text
         xml:space="preserve"
         transform="translate(472.84543,107.64715)"
         style="font-variant:normal;font-size:15.84px;font-family:CairoFont-0;-inkscape-font-specification:CairoFont-0-0;writing-mode:lr-tb;fill:#000000;fill-opacity:1;fill-rule:nonzero;stroke:none"
         id="text356"><tspan
           x="0"
           y="0"
           id="tspan354">g</tspan></text>
      <path
         d="m 502.691,98.445 0.723,-0.746 0.531,-0.922 0.289,-1.043 0.02,-1.097 -0.25,-1.063 -0.5,-0.957 -0.707,-0.785 -0.859,-0.574 -0.95,-0.34 -0.968,-0.121 -0.934,0.074 -0.852,0.227 -0.726,0.336 -0.567,0.398 -0.379,0.422 -0.179,0.41 0.027,0.379 0.238,0.328 0.438,0.254 0.605,0.168 0.743,0.055 0.839,-0.082 0.879,-0.246 0.856,-0.43 0.773,-0.625 0.621,-0.805 0.422,-0.957 0.172,-1.055 -0.098,-1.086 -0.363,-1.031 -0.609,-0.906 -0.801,-0.719 -0.934,-0.48 -0.996,-0.235 -1,0.004 -0.945,0.219 -0.844,0.379 -0.711,0.488 -0.554,0.539 -0.379,0.539 -0.196,0.5 -0.004,0.426 0.188,0.324 0.367,0.215 0.528,0.086 0.66,-0.055 0.746,-0.203 0.781,-0.363 0.754,-0.535 0.668,-0.703 0.512,-0.86 0.304,-0.98 0.059,-1.047 -0.211,-1.055 -0.473,-0.984 -0.703,-0.84 -0.887,-0.633 -0.996,-0.386 -1.035,-0.125 -1.012,0.129 -0.929,0.351 -0.805,0.52 -0.66,0.629 -0.496,0.679 -0.332,0.672 -0.164,0.606 0.004,0.503 0.16,0.372 0.308,0.218 0.45,0.055 0.554,-0.117 0.629,-0.285 0.657,-0.453 0.628,-0.618 0.539,-0.765 0.391,-0.899 0.184,-0.988 -0.059,-1.031 -0.316,-1.012 -0.571,-0.914 -0.789,-0.758 -0.953,-0.539 -1.047,-0.281 -1.062,-0.012 -1.008,0.246"
         style="fill:none;stroke:#000000;stroke-width:0.6912;stroke-linecap:square;stroke-linejoin:miter;stroke-miterlimit:3.25;stroke-dasharray:none;stroke-opacity:1"
         id="path358" />
      <text
         xml:space="preserve"
         transform="translate(504.47217,80.858101)"
         style="font-variant:normal;font-size:15.84px;font-family:CairoFont-0;-inkscape-font-specification:CairoFont-0-0;writing-mode:lr-tb;fill:#000000;fill-opacity:1;fill-rule:nonzero;stroke:none"
         id="text362"><tspan
           x="0"
           y="0"
           id="tspan360">g</tspan></text>
      <path
         d="m 492.887,76.449 c 0,0.735 -0.289,1.438 -0.809,1.957 -0.519,0.52 -1.223,0.809 -1.953,0.809 -0.734,0 -1.437,-0.289 -1.957,-0.809 -0.52,-0.519 -0.809,-1.222 -0.809,-1.957 0,-0.73 0.289,-1.433 0.809,-1.953 0.52,-0.519 1.223,-0.808 1.957,-0.808 0.73,0 1.434,0.289 1.953,0.808 0.52,0.52 0.809,1.223 0.809,1.953 z"
         style="fill:#000000;fill-opacity:1;fill-rule:evenodd;stroke:none"
         id="path364" />
      <path
         d="m 467.754,76.449 c 0,0.735 -0.293,1.438 -0.809,1.957 -0.519,0.52 -1.222,0.809 -1.957,0.809 -0.734,0 -1.437,-0.289 -1.953,-0.809 -0.519,-0.519 -0.812,-1.222 -0.812,-1.957 0,-0.73 0.293,-1.433 0.812,-1.953 0.516,-0.519 1.219,-0.808 1.953,-0.808 0.735,0 1.438,0.289 1.957,0.808 0.516,0.52 0.809,1.223 0.809,1.953 z"
         style="fill:#000000;fill-opacity:1;fill-rule:evenodd;stroke:none"
         id="path366" />
      <path
         d="m 455.188,98.445 c 0,0.731 -0.293,1.434 -0.813,1.953 -0.516,0.52 -1.219,0.809 -1.953,0.809 -0.734,0 -1.438,-0.289 -1.953,-0.809 -0.52,-0.519 -0.813,-1.222 -0.813,-1.953 0,-0.734 0.293,-1.437 0.813,-1.957 0.515,-0.519 1.219,-0.808 1.953,-0.808 0.734,0 1.437,0.289 1.953,0.808 0.52,0.52 0.813,1.223 0.813,1.957 z"
         style="fill:#000000;fill-opacity:1;fill-rule:evenodd;stroke:none"
         id="path368" />
      <path
         d="m 505.457,98.445 c 0,0.731 -0.293,1.434 -0.812,1.953 -0.516,0.52 -1.219,0.809 -1.954,0.809 -0.734,0 -1.437,-0.289 -1.957,-0.809 -0.515,-0.519 -0.808,-1.222 -0.808,-1.953 0,-0.734 0.293,-1.437 0.808,-1.957 0.52,-0.519 1.223,-0.808 1.957,-0.808 0.735,0 1.438,0.289 1.954,0.808 0.519,0.52 0.812,1.223 0.812,1.957 z"
         style="fill:#000000;fill-opacity:1;fill-rule:evenodd;stroke:none"
         id="path370" />
    </g>
    <g
       id="g372">
      <g
         id="g374"
         clip-path="url(#clipPath378)">
        <text
           xml:space="preserve"
           transform="translate(473.94699,161.49994)"
           style="font-variant:normal;font-size:12.72px;font-family:CairoFont-1;-inkscape-font-specification:CairoFont-1-0;writing-mode:lr-tb;fill:#000000;fill-opacity:1;fill-rule:nonzero;stroke:none"
           id="text382"><tspan
             x="0"
             y="0"
             id="tspan380">8</tspan></text>
      </g>
    </g>
  </g>
</svg>
