<?xml version="1.0" encoding="UTF-8" standalone="no"?>
<!-- Created with Inkscape (http://www.inkscape.org/) -->

<svg
   version="1.1"
   id="svg1"
   width="984"
   height="246.66667"
   viewBox="0 0 984 246.66667"
   sodipodi:docname="0azm2cxgztk7a.pdf"
   xmlns:inkscape="http://www.inkscape.org/namespaces/inkscape"
   xmlns:sodipodi="http://sodipodi.sourceforge.net/DTD/sodipodi-0.dtd"
   xmlns="http://www.w3.org/2000/svg"
   xmlns:svg="http://www.w3.org/2000/svg">
  <defs
     id="defs1">
    <clipPath
       clipPathUnits="userSpaceOnUse"
       id="clipPath101">
      <path
         d="m 630,33 h 13.922 V 50 H 630 Z"
         transform="translate(-630.46058,-45.156023)"
         id="path101" />
    </clipPath>
    <clipPath
       clipPathUnits="userSpaceOnUse"
       id="clipPath104">
      <path
         d="m 630,101 h 13.922 v 17 H 630 Z"
         transform="translate(-630.46058,-112.49182)"
         id="path104" />
    </clipPath>
  </defs>
  <sodipodi:namedview
     id="namedview1"
     pagecolor="#ffffff"
     bordercolor="#999999"
     borderopacity="1"
     inkscape:showpageshadow="0"
     inkscape:pageopacity="0"
     inkscape:pagecheckerboard="0"
     inkscape:deskcolor="#d1d1d1">
    <inkscape:page
       x="0"
       y="0"
       id="page1"
       width="984"
       height="246.66667"
       margin="0"
       bleed="0" />
  </sodipodi:namedview>
  <g
     id="g1"
     inkscape:groupmode="layer"
     inkscape:label="">
    <path
       id="path1"
       d="M 0,100.539 H 50.27"
       style="fill:none;stroke:#000000;stroke-width:0.9216;stroke-linecap:butt;stroke-linejoin:miter;stroke-miterlimit:3.25;stroke-dasharray:0.9216, 5.5296;stroke-dashoffset:0;stroke-opacity:1"
       transform="scale(1.3333333)" />
    <path
       id="path2"
       d="m 30.16,100.539 -10.051,3.352 v -6.703 z"
       style="fill:#000000;fill-opacity:1;fill-rule:evenodd;stroke:none"
       transform="scale(1.3333333)" />
    <path
       id="path3"
       d="m 5.5552199,-11.028528 -1.5585938,7.3359372 c -0.1289062,0.5507812 -0.1289062,1.0078125 -0.023437,1.3710937 0.1875,0.65625 0.7148438,0.984375 1.6289063,0.984375 1.2773437,0 2.296875,-0.5625 3.0117187,-1.7226562 0.3867188,-0.6210938 0.6796875,-1.4765625 0.9140625,-2.5546875 l 1.1601564,-5.4140622 h 1.851563 l -2.34375,11.02734344 H 8.4497511 L 8.8013136,-1.6300908 c -0.328125,0.421875 -0.6914062,0.78515624 -1.1132812,1.07812499 -0.84375,0.57421875 -1.7578125,0.8671875 -2.765625,0.8671875 -1.5820313,0 -2.53125,-0.52734375 -2.8710938,-1.58203129 -0.1875,-0.5742187 -0.1875,-1.3125 0,-2.2617187 l 1.6054688,-7.4999997 z m 0,0"
       style="fill:#000000;fill-opacity:1;fill-rule:nonzero;stroke:none"
       aria-label="u"
       transform="matrix(1.3333333,0,0,1.3333333,19.507103,160.58361)" />
    <path
       id="path4"
       d="m 6.8794386,-7.4543097 c 0.2226563,0.1640625 0.4101563,0.4101563 0.5976563,0.7265625 l 0.2226562,-0.984375 h 1.1953125 l -1.5,7.08984376 c -0.2109375,0.97265625 -0.515625,1.76953124 -0.9375,2.33203124 -0.7734375,1.0546875 -1.8984375,1.59375 -3.4101562,1.59375 -0.84375,0 -1.5,-0.1992187 -1.9921875,-0.5625 C 0.56303238,2.3660028 0.35209488,1.7683466 0.45756363,0.97147156 H 1.8052199 c -0.023437,0.35156254 0.058594,0.62109374 0.1992187,0.80859374 0.234375,0.2929688 0.6796875,0.4335938 1.3007813,0.4335938 1.0078125,0 1.7460937,-0.3515625 2.203125,-1.0546875 0.2695312,-0.41015629 0.5039062,-1.16015629 0.7148437,-2.2265625 -0.3398437,0.38671871 -0.7148437,0.67968746 -1.1132812,0.86718746 -0.421875,0.19921875 -0.9257813,0.3046875 -1.5351563,0.3046875 -0.8320312,0 -1.5234375,-0.3046875 -2.0273437,-0.890625 C 1.0435011,-1.3957159 0.93803238,-2.3800909 1.2310011,-3.7629034 c 0.2929688,-1.3007813 0.8085938,-2.3203125 1.6171875,-3.0585938 0.7851563,-0.7265625 1.6289063,-1.1015625 2.5195313,-1.1015625 0.6210937,0 1.125,0.1523438 1.5117187,0.46875 z m -1.5117187,0.6914063 c -0.9140625,0 -1.6289063,0.4335937 -2.15625,1.3007812 -0.28125,0.4570313 -0.5039063,1.0546875 -0.65625,1.8046875 -0.1875,0.8789063 -0.140625,1.546875 0.1054687,2.0039063 0.2578125,0.4570312 0.6914063,0.67968746 1.3007813,0.67968746 0.9375,0 1.6757812,-0.41015626 2.25,-1.26562496 0.3046875,-0.4804688 0.5273437,-1.03125 0.6679687,-1.6757813 0.2109375,-0.9726562 0.1640625,-1.6875 -0.140625,-2.1445312 -0.2929687,-0.4570313 -0.75,-0.703125 -1.3710937,-0.703125 z m 0,0"
       style="fill:#000000;fill-opacity:1;fill-rule:nonzero;stroke:none"
       aria-label="g"
       transform="matrix(1.3333333,0,0,1.3333333,35.069603,165.81017)" />
    <path
       id="path5"
       d="M 167.562,100.539 H 117.293"
       style="fill:none;stroke:#000000;stroke-width:0.9216;stroke-linecap:butt;stroke-linejoin:miter;stroke-miterlimit:3.25;stroke-dasharray:0.9216, 5.5296;stroke-dashoffset:0;stroke-opacity:1"
       transform="scale(1.3333333)" />
    <path
       id="path6"
       d="m 147.457,100.539 -10.055,-3.351 v 6.703 z"
       style="fill:#000000;fill-opacity:1;fill-rule:evenodd;stroke:none"
       transform="scale(1.3333333)" />
    <path
       id="path7"
       d="m 5.5536436,-11.028528 -1.5585937,7.3359372 c -0.1289063,0.5507812 -0.1289063,1.0078125 -0.023437,1.3710937 0.1875,0.65625 0.7148437,0.984375 1.6289062,0.984375 1.2773438,0 2.296875,-0.5625 3.0117188,-1.7226562 0.3867187,-0.6210938 0.6796875,-1.4765625 0.9140625,-2.5546875 L 10.686457,-11.028528 H 12.53802 L 10.19427,-0.00118456 H 8.4481749 L 8.7997374,-1.6300908 c -0.328125,0.421875 -0.6914063,0.78515624 -1.1132813,1.07812499 -0.84375,0.57421875 -1.7578125,0.8671875 -2.765625,0.8671875 -1.5820312,0 -2.53125,-0.52734375 -2.8710937,-1.58203129 -0.1875,-0.5742187 -0.1875,-1.3125 0,-2.2617187 l 1.6054687,-7.4999997 z m 0,0"
       style="fill:#000000;fill-opacity:1;fill-rule:nonzero;stroke:none"
       aria-label="u"
       transform="matrix(1.3333333,0,0,1.3333333,175.89983,160.58361)" />
    <path
       id="path8"
       d="m 6.8778624,-7.4543097 c 0.2226562,0.1640625 0.4101562,0.4101563 0.5976562,0.7265625 l 0.2226563,-0.984375 h 1.1953125 l -1.5,7.08984376 c -0.2109375,0.97265625 -0.515625,1.76953124 -0.9375,2.33203124 -0.7734375,1.0546875 -1.8984375,1.59375 -3.4101563,1.59375 -0.84375,0 -1.5,-0.1992187 -1.9921875,-0.5625 C 0.56145613,2.3660028 0.35051863,1.7683466 0.45598738,0.97147156 H 1.8036436 c -0.023437,0.35156254 0.058594,0.62109374 0.1992188,0.80859374 0.234375,0.2929688 0.6796875,0.4335938 1.3007812,0.4335938 1.0078125,0 1.7460938,-0.3515625 2.203125,-1.0546875 0.2695313,-0.41015629 0.5039063,-1.16015629 0.7148438,-2.2265625 -0.3398438,0.38671871 -0.7148438,0.67968746 -1.1132813,0.86718746 -0.421875,0.19921875 -0.9257812,0.3046875 -1.5351562,0.3046875 -0.8320313,0 -1.5234375,-0.3046875 -2.0273438,-0.890625 C 1.0419249,-1.3957159 0.93645613,-2.3800909 1.2294249,-3.7629034 c 0.2929687,-1.3007813 0.8085937,-2.3203125 1.6171875,-3.0585938 0.7851562,-0.7265625 1.6289062,-1.1015625 2.5195312,-1.1015625 0.6210938,0 1.125,0.1523438 1.5117188,0.46875 z m -1.5117188,0.6914063 c -0.9140625,0 -1.6289062,0.4335937 -2.15625,1.3007812 -0.28125,0.4570313 -0.5039062,1.0546875 -0.65625,1.8046875 -0.1875,0.8789063 -0.140625,1.546875 0.1054688,2.0039063 0.2578125,0.4570312 0.6914062,0.67968746 1.3007812,0.67968746 0.9375,0 1.6757813,-0.41015626 2.25,-1.26562496 0.3046875,-0.4804688 0.5273438,-1.03125 0.6679688,-1.6757813 0.2109375,-0.9726562 0.1640625,-1.6875 -0.140625,-2.1445312 -0.2929688,-0.4570313 -0.75,-0.703125 -1.3710938,-0.703125 z m 0,0"
       style="fill:#000000;fill-opacity:1;fill-rule:nonzero;stroke:none"
       aria-label="g"
       transform="matrix(1.3333333,0,0,1.3333333,191.46233,165.81017)" />
    <path
       id="path9"
       d="m 50.27,100.539 c 0,8.887 3.531,17.41 9.816,23.695 6.285,6.286 14.809,9.817 23.695,9.817 8.891,0 17.414,-3.531 23.699,-9.817 6.286,-6.285 9.813,-14.808 9.813,-23.695"
       style="fill:none;stroke:#000000;stroke-width:0.9216;stroke-linecap:butt;stroke-linejoin:miter;stroke-miterlimit:3.25;stroke-dasharray:0.9216, 5.5296;stroke-dashoffset:0;stroke-opacity:1"
       transform="scale(1.3333333)" />
    <path
       id="path10"
       d="m 88.809,134.051 -10.055,3.351 v -6.703 z"
       style="fill:#000000;fill-opacity:1;fill-rule:evenodd;stroke:none"
       transform="scale(1.3333333)" />
    <path
       id="path11"
       d="m 5.5544322,-11.02856 -1.5585937,7.3359375 c -0.1289063,0.5507812 -0.1289063,1.0078125 -0.023437,1.3710937 0.1875,0.65625 0.7148437,0.984375 1.6289062,0.984375 1.2773438,0 2.296875,-0.5625 3.0117188,-1.7226562 0.3867187,-0.6210938 0.6796875,-1.4765625 0.9140625,-2.5546875 l 1.160156,-5.4140625 h 1.851562 l -2.34375,11.02734375 H 8.4489635 L 8.800526,-1.6301225 c -0.328125,0.421875 -0.6914063,0.78515625 -1.1132813,1.078125 -0.84375,0.57421875 -1.7578125,0.8671875 -2.765625,0.8671875 -1.5820312,0 -2.53125,-0.52734375 -2.8710937,-1.5820313 -0.1875,-0.5742187 -0.1875,-1.3125 0,-2.2617187 l 1.6054687,-7.5 z m 0,0"
       style="fill:#000000;fill-opacity:1;fill-rule:nonzero;stroke:none"
       aria-label="u"
       transform="matrix(1.3333333,0,0,1.3333333,97.703465,205.26725)" />
    <path
       id="path12"
       d="m 6.878651,-7.4543414 c 0.2226562,0.1640625 0.4101562,0.4101563 0.5976562,0.7265625 l 0.2226563,-0.984375 H 8.894276 l -1.5,7.08984377 C 7.1833385,0.35034612 6.878651,1.1472211 6.456776,1.7097211 c -0.7734375,1.0546875 -1.8984375,1.59375 -3.4101563,1.59375 -0.84375,0 -1.5,-0.1992187 -1.9921875,-0.5625 C 0.56224475,2.3659711 0.35130725,1.7683149 0.456776,0.97143987 H 1.8044322 C 1.7809947,1.3230024 1.863026,1.5925336 2.003651,1.7800336 c 0.234375,0.2929688 0.6796875,0.4335938 1.3007812,0.4335938 1.0078125,0 1.7460938,-0.3515625 2.203125,-1.0546875 0.2695313,-0.41015628 0.5039063,-1.16015628 0.7148438,-2.2265625 -0.3398438,0.38671872 -0.7148438,0.67968747 -1.1132813,0.86718747 -0.421875,0.19921875 -0.9257812,0.3046875 -1.5351562,0.3046875 -0.8320313,0 -1.5234375,-0.3046875 -2.0273438,-0.890625 C 1.0427135,-1.3957476 0.93724475,-2.3801226 1.2302135,-3.7629351 1.5231822,-5.0637164 2.0388072,-6.0832476 2.847401,-6.8215289 c 0.7851562,-0.7265625 1.6289062,-1.1015625 2.5195312,-1.1015625 0.6210938,0 1.125,0.1523438 1.5117188,0.46875 z m -1.5117188,0.6914063 c -0.9140625,0 -1.6289062,0.4335937 -2.15625,1.3007812 -0.28125,0.4570313 -0.5039062,1.0546875 -0.65625,1.8046875 -0.1875,0.8789063 -0.140625,1.546875 0.1054688,2.0039063 0.2578125,0.4570312 0.6914062,0.67968747 1.3007812,0.67968747 0.9375,0 1.6757813,-0.41015627 2.25,-1.26562497 0.3046875,-0.4804688 0.5273438,-1.03125 0.6679688,-1.6757813 0.2109375,-0.9726562 0.1640625,-1.6875 -0.140625,-2.1445312 -0.2929688,-0.4570313 -0.75,-0.703125 -1.3710938,-0.703125 z m 0,0"
       style="fill:#000000;fill-opacity:1;fill-rule:nonzero;stroke:none"
       aria-label="g"
       transform="matrix(1.3333333,0,0,1.3333333,113.26597,210.49381)" />
    <path
       id="path13"
       d="m 50.27,100.539 -0.977,-0.984 -0.719,-1.223 -0.398,-1.391 -0.039,-1.464 0.32,-1.422 0.66,-1.282 0.938,-1.054 1.14,-0.774 1.262,-0.465 1.293,-0.164 1.246,0.09 1.137,0.297 0.969,0.445 0.757,0.524 0.512,0.555 0.242,0.546 -0.035,0.5 -0.316,0.434 -0.574,0.344 -0.809,0.226 -0.992,0.078 -1.117,-0.105 -1.172,-0.32 -1.145,-0.571 -1.035,-0.824 -0.84,-1.07 -0.562,-1.274 -0.239,-1.41 0.125,-1.445 0.485,-1.383 0.808,-1.211 1.067,-0.957 1.246,-0.648 1.332,-0.313 1.332,0.008 1.262,0.289 1.125,0.508 0.945,0.648 0.738,0.719 0.508,0.723 0.262,0.66 0.004,0.566 -0.246,0.43 -0.489,0.281 -0.703,0.114 -0.879,-0.071 -0.992,-0.273 -1.043,-0.485 -1.008,-0.714 -0.886,-0.938 -0.684,-1.144 -0.41,-1.305 -0.074,-1.402 0.285,-1.407 0.633,-1.312 0.945,-1.117 1.183,-0.844 1.332,-0.508 1.387,-0.16 1.348,0.176 1.234,0.472 1.074,0.7 0.872,0.847 0.656,0.91 0.437,0.895 0.215,0.808 -0.004,0.672 -0.215,0.492 -0.414,0.286 -0.593,0.066 -0.739,-0.16 -0.836,-0.383 -0.871,-0.613 -0.832,-0.828 -0.715,-1.028 -0.511,-1.199 -0.239,-1.32 0.082,-1.375 0.434,-1.344 0.77,-1.219 1.062,-1 1.281,-0.707 1.403,-0.363 1.418,-0.004 1.343,0.344"
       style="fill:none;stroke:#000000;stroke-width:0.9216;stroke-linecap:square;stroke-linejoin:miter;stroke-miterlimit:3.25;stroke-dasharray:none;stroke-opacity:1"
       transform="scale(1.3333333)" />
    <path
       id="path14"
       d="m 9.7622604,-10.582524 c 0.3164066,0.234375 0.5859376,0.5976561 0.8437496,1.0312498 l 0.316407,-1.3828128 h 1.710937 L 10.500542,-0.89111794 C 10.195854,0.50341331 9.7622604,1.6284133 9.1646041,2.4252883 c -1.1015625,1.5 -2.7070312,2.2617188 -4.8398437,2.2617188 -1.1953125,0 -2.1328125,-0.2695313 -2.8242188,-0.796875 C 0.79741662,3.3627883 0.50444787,2.5073196 0.65679162,1.3706008 H 2.5552291 c -0.023437,0.5039063 0.082031,0.890625 0.2929688,1.1601563 0.3164062,0.3984375 0.9492187,0.609375 1.8398437,0.609375 1.4414063,0 2.4726563,-0.5039063 3.1289063,-1.4882813 0.375,-0.5976562 0.7148437,-1.6523437375 1.0078125,-3.1757812 -0.4804688,0.55078121 -1.0078125,0.97265621 -1.5820313,1.25390621 -0.5859375,0.2695312525 -1.3125,0.421875 -2.1796875,0.421875 -1.171875,0 -2.1445312,-0.421875 -2.8710937,-1.27734371 -0.7148438,-0.8554688 -0.8554688,-2.25 -0.4335938,-4.21875 0.3984375,-1.8398438 1.1367188,-3.2929688 2.2734375,-4.3242188 1.125,-1.0429683 2.3203125,-1.5703123 3.5976563,-1.5703123 0.8554687,0 1.5820312,0.210937 2.1328125,0.65625 z m -2.1328125,0.9960936 c -1.3125,0 -2.3320313,0.609375 -3.0703125,1.8398437 -0.3984375,0.65625 -0.7148438,1.5 -0.9257813,2.5546875 -0.2695312,1.2421875 -0.2109375,2.1914063 0.1523438,2.8476563 0.3515625,0.65625 0.9609375,0.9726562 1.828125,0.9726562 1.3359375,0 2.390625,-0.5976562 3.1875,-1.7929687 0.4453125,-0.703125 0.7617187,-1.4765625 0.9609375,-2.390625 0.2929686,-1.3710938 0.2226562,-2.390625 -0.1992188,-3.0351563 -0.421875,-0.65625 -1.078125,-0.9960937 -1.9335937,-0.9960937 z m 0,0"
       style="fill:#000000;fill-opacity:1;fill-rule:nonzero;stroke:none"
       aria-label="g"
       transform="matrix(1.3333333,0,0,1.3333333,46.991465,102.82488)" />
    <path
       id="path15"
       d="m 100.539,71.215 c -1.152,-5.113 -4.57,-9.418 -9.289,-11.695 -4.719,-2.282 -10.219,-2.282 -14.938,0 -4.714,2.277 -8.136,6.582 -9.285,11.695"
       style="fill:none;stroke:#000000;stroke-width:0.9216;stroke-linecap:square;stroke-linejoin:miter;stroke-miterlimit:3.25;stroke-dasharray:none;stroke-opacity:1"
       transform="scale(1.3333333)" />
    <path
       id="path16"
       d="M 88.809,57.809 78.754,54.457 v 6.703 z"
       style="fill:#000000;fill-opacity:1;fill-rule:evenodd;stroke:none"
       transform="scale(1.3333333)" />
    <path
       id="path17"
       d="m 5.9528689,-1.2302406 c 0.84375,0 1.6523437,-0.3515625 2.34375,-1.0898438 0.7148437,-0.7382812 1.2070312,-1.7929687 1.5,-3.1875 0.2929691,-1.3945312 0.2343751,-2.4375 -0.1875,-3.0820312 -0.421875,-0.6796875 -1.0546875,-1.0195313 -1.8984375,-1.0195313 -0.9375,0 -1.78125,0.3632813 -2.4960938,1.078125 -0.7382812,0.7148438 -1.2421875,1.7578125 -1.5351562,3.140625 -0.2578125,1.1835938 -0.2109375,2.1796875 0.1054687,2.9882813 0.328125,0.796875 1.0546875,1.171875 2.1679688,1.171875 z m 3.7617187,-9.4570314 c 0.2929684,0.1875 0.5859374,0.574219 0.8906254,1.0781251 l 1.195312,-5.5781251 h 1.78125 L 10.3474,2.28125e-4 H 8.6833376 L 8.9997439,-1.5232094 c -0.5742188,0.67968752 -1.1835938,1.16015627 -1.8398438,1.47656252 -0.65625,0.3046875 -1.3710937,0.4453125 -2.1328125,0.4453125 -1.2304687,0 -2.203125,-0.50390625 -2.8710937,-1.53515622 -0.6796875,-1.0429688 -0.84375,-2.4375 -0.46875,-4.1484375 0.3398437,-1.59375 1.03125,-2.9882813 2.109375,-4.171875 1.078125,-1.1835939 2.3671875,-1.7812499 3.9140625,-1.7812499 0.84375,0 1.5117187,0.199219 2.0039062,0.550781 z m 0,0"
       style="fill:#000000;fill-opacity:1;fill-rule:nonzero;stroke:none"
       aria-label="d"
       transform="matrix(1.3333333,0,0,1.3333333,97.726904,59.960633)" />
    <path
       id="path18"
       d="m 3.1872439,-10.675553 h 1.265625 l -1.3242188,6.2109373 4.0546875,-3.3046875 h 1.6757813 l -3.5859375,2.90625 2.109375,4.8632812 h -1.6875 L 4.1130251,-3.9138345 2.8005251,-2.9177408 2.1677126,2.28e-4 H 0.92552512 Z m 0,0"
       style="fill:#000000;fill-opacity:1;fill-rule:nonzero;stroke:none"
       aria-label="k"
       transform="matrix(1.3333333,0,0,1.3333333,113.2894,65.187196)" />
    <path
       id="path19"
       d="m 67.027,71.215 c 1.149,5.109 4.571,9.418 9.285,11.695 4.719,2.278 10.219,2.278 14.938,0 4.719,-2.277 8.137,-6.586 9.289,-11.695"
       style="fill:none;stroke:#000000;stroke-width:0.9216;stroke-linecap:square;stroke-linejoin:miter;stroke-miterlimit:3.25;stroke-dasharray:none;stroke-opacity:1"
       transform="scale(1.3333333)" />
    <path
       id="path20"
       d="m 78.754,84.621 10.055,3.352 V 81.27 Z"
       style="fill:#000000;fill-opacity:1;fill-rule:evenodd;stroke:none"
       transform="scale(1.3333333)" />
    <path
       id="path21"
       d="m 5.9528689,-1.2300997 c 0.84375,0 1.6523437,-0.3515625 2.34375,-1.0898438 0.7148437,-0.7382812 1.2070312,-1.7929687 1.5,-3.1875 0.2929691,-1.3945312 0.2343751,-2.4375 -0.1875,-3.0820312 -0.421875,-0.6796875 -1.0546875,-1.0195313 -1.8984375,-1.0195313 -0.9375,0 -1.78125,0.3632813 -2.4960938,1.078125 -0.7382812,0.7148438 -1.2421875,1.7578125 -1.5351562,3.140625 -0.2578125,1.1835938 -0.2109375,2.1796875 0.1054687,2.9882813 0.328125,0.796875 1.0546875,1.171875 2.1679688,1.171875 z m 3.7617187,-9.4570313 c 0.2929684,0.1875 0.5859374,0.574219 0.8906254,1.078125 l 1.195312,-5.578125 h 1.78125 L 10.3474,3.69e-4 H 8.6833376 L 8.9997439,-1.5230685 C 8.4255251,-0.843381 7.8161501,-0.36291225 7.1599001,-0.046506 6.5036501,0.2581815 5.7888064,0.3988065 5.0270876,0.3988065 c -1.2304687,0 -2.203125,-0.50390625 -2.8710937,-1.5351562 -0.6796875,-1.0429688 -0.84375,-2.4375 -0.46875,-4.1484375 0.3398437,-1.59375 1.03125,-2.9882813 2.109375,-4.171875 1.078125,-1.1835938 2.3671875,-1.7812498 3.9140625,-1.7812498 0.84375,0 1.5117187,0.199219 2.0039062,0.550781 z m 0,0"
       style="fill:#000000;fill-opacity:1;fill-rule:nonzero;stroke:none"
       aria-label="d"
       transform="matrix(1.3333333,0,0,1.3333333,97.726904,144.87451)" />
    <path
       id="path22"
       d="m 3.1872439,-10.675412 h 1.265625 l -1.3242188,6.2109371 4.0546875,-3.3046875 h 1.6757813 l -3.5859375,2.90625 2.109375,4.863281275 h -1.6875 L 4.1130251,-3.9136936 2.8005251,-2.9175999 2.1677126,3.68875e-4 H 0.92552512 Z m 0,0"
       style="fill:#000000;fill-opacity:1;fill-rule:nonzero;stroke:none"
       aria-label="k"
       transform="matrix(1.3333333,0,0,1.3333333,113.2894,150.10107)" />
    <path
       id="path23"
       d="m 117.293,100.539 0.969,-0.992 0.703,-1.231 0.387,-1.39 0.027,-1.461 -0.332,-1.418 -0.668,-1.277 -0.945,-1.047 -1.145,-0.762 -1.262,-0.457 -1.293,-0.16 -1.25,0.097 -1.132,0.305 -0.965,0.445 -0.754,0.532 -0.512,0.558 -0.238,0.551 0.039,0.504 0.316,0.437 0.582,0.34 0.809,0.227 0.992,0.07 1.117,-0.109 1.168,-0.328 1.145,-0.575 1.027,-0.832 0.836,-1.074 0.559,-1.277 0.23,-1.406 -0.129,-1.446 -0.488,-1.375 -0.809,-1.211 -1.07,-0.953 -1.242,-0.644 -1.332,-0.313 -1.332,0.008 -1.262,0.289 -1.125,0.504 -0.949,0.652 -0.738,0.719 -0.504,0.723 -0.262,0.664 -0.004,0.566 0.25,0.438 0.488,0.281 0.707,0.117 0.879,-0.07 0.992,-0.274 1.043,-0.484 1.008,-0.715 0.887,-0.937 0.684,-1.145 0.406,-1.305 0.078,-1.402 -0.281,-1.402 -0.629,-1.313 -0.942,-1.117 -1.175,-0.848 -1.332,-0.515 -1.383,-0.164 -1.348,0.172 -1.238,0.464 -1.074,0.692 -0.879,0.844 -0.664,0.906 -0.438,0.89 -0.219,0.813 v 0.672 l 0.215,0.492 0.414,0.293 0.594,0.07 0.742,-0.152 0.84,-0.379 0.875,-0.605 0.84,-0.825 0.719,-1.023 0.515,-1.195 0.25,-1.321 -0.078,-1.375 -0.422,-1.343 -0.761,-1.223 -1.051,-1.008 -1.274,-0.719 -1.394,-0.375 -1.418,-0.015 -1.344,0.328"
       style="fill:none;stroke:#000000;stroke-width:0.9216;stroke-linecap:square;stroke-linejoin:miter;stroke-miterlimit:3.25;stroke-dasharray:none;stroke-opacity:1"
       transform="scale(1.3333333)" />
    <path
       id="path24"
       d="m 9.7610981,-10.582988 c 0.3164059,0.234375 0.5859379,0.5976558 0.8437499,1.0312495 l 0.316406,-1.3828125 h 1.710938 L 10.499379,-0.89158225 C 10.194692,0.502949 9.7610981,1.627949 9.1634418,2.424824 c -1.1015625,1.5 -2.7070312,2.2617188 -4.8398437,2.2617188 -1.1953125,0 -2.1328125,-0.2695313 -2.8242188,-0.796875 C 0.79625431,3.362324 0.50328556,2.5068553 0.65562931,1.3701365 H 2.5540668 c -0.023437,0.5039063 0.082031,0.890625 0.2929688,1.1601563 0.3164062,0.3984375 0.9492187,0.609375 1.8398437,0.609375 1.4414063,0 2.4726563,-0.5039063 3.1289063,-1.4882813 0.375,-0.5976562 0.7148437,-1.65234375 1.0078125,-3.1757812 -0.4804688,0.5507812 -1.0078125,0.9726562 -1.5820313,1.2539062 -0.5859375,0.26953125 -1.3125,0.421875 -2.1796875,0.421875 -1.171875,0 -2.1445312,-0.421875 -2.8710937,-1.2773437 -0.7148438,-0.8554688 -0.8554688,-2.25 -0.4335938,-4.21875 0.3984375,-1.8398438 1.1367188,-3.2929688 2.2734375,-4.3242188 1.125,-1.042969 2.3203125,-1.570312 3.5976563,-1.570312 0.8554687,0 1.5820312,0.210937 2.1328125,0.65625 z m -2.1328125,0.9960933 c -1.3125,0 -2.3320313,0.609375 -3.0703125,1.8398437 -0.3984375,0.65625 -0.7148438,1.5 -0.9257813,2.5546875 -0.2695312,1.2421875 -0.2109375,2.1914063 0.1523438,2.8476563 0.3515625,0.65625 0.9609375,0.9726562 1.828125,0.9726562 1.3359375,0 2.390625,-0.5976562 3.1875,-1.7929687 0.4453125,-0.703125 0.7617187,-1.4765625 0.9609375,-2.390625 0.2929689,-1.3710938 0.2226562,-2.390625 -0.1992188,-3.0351563 -0.421875,-0.65625 -1.078125,-0.9960937 -1.9335937,-0.9960937 z m 0,0"
       style="fill:#000000;fill-opacity:1;fill-rule:nonzero;stroke:none"
       aria-label="g"
       transform="matrix(1.3333333,0,0,1.3333333,159.55942,102.8919)" />
    <path
       id="path25"
       d="m 104.223,71.215 c 0,0.976 -0.387,1.914 -1.078,2.605 -0.692,0.692 -1.629,1.082 -2.606,1.082 -0.98,0 -1.918,-0.39 -2.609,-1.082 -0.692,-0.691 -1.078,-1.629 -1.078,-2.605 0,-0.977 0.386,-1.914 1.078,-2.606 0.691,-0.691 1.629,-1.082 2.609,-1.082 0.977,0 1.914,0.391 2.606,1.082 0.691,0.692 1.078,1.629 1.078,2.606 z"
       style="fill:#000000;fill-opacity:1;fill-rule:evenodd;stroke:none"
       transform="scale(1.3333333)" />
    <path
       id="path26"
       d="m 70.711,71.215 c 0,0.976 -0.387,1.914 -1.078,2.605 -0.692,0.692 -1.629,1.082 -2.606,1.082 -0.98,0 -1.918,-0.39 -2.609,-1.082 -0.691,-0.691 -1.078,-1.629 -1.078,-2.605 0,-0.977 0.387,-1.914 1.078,-2.606 0.691,-0.691 1.629,-1.082 2.609,-1.082 0.977,0 1.914,0.391 2.606,1.082 0.691,0.692 1.078,1.629 1.078,2.606 z"
       style="fill:#000000;fill-opacity:1;fill-rule:evenodd;stroke:none"
       transform="scale(1.3333333)" />
    <path
       id="path27"
       d="m 53.957,100.539 c 0,0.977 -0.391,1.914 -1.082,2.606 -0.691,0.691 -1.629,1.078 -2.605,1.078 -0.977,0 -1.915,-0.387 -2.606,-1.078 -0.691,-0.692 -1.082,-1.629 -1.082,-2.606 0,-0.98 0.391,-1.918 1.082,-2.609 0.691,-0.692 1.629,-1.078 2.606,-1.078 0.976,0 1.914,0.386 2.605,1.078 0.691,0.691 1.082,1.629 1.082,2.609 z"
       style="fill:#000000;fill-opacity:1;fill-rule:evenodd;stroke:none"
       transform="scale(1.3333333)" />
    <path
       id="path28"
       d="m 120.98,100.539 c 0,0.977 -0.386,1.914 -1.078,2.606 -0.691,0.691 -1.629,1.078 -2.609,1.078 -0.977,0 -1.914,-0.387 -2.605,-1.078 -0.692,-0.692 -1.079,-1.629 -1.079,-2.606 0,-0.98 0.387,-1.918 1.079,-2.609 0.691,-0.692 1.628,-1.078 2.605,-1.078 0.98,0 1.918,0.386 2.609,1.078 0.692,0.691 1.078,1.629 1.078,2.609 z"
       style="fill:#000000;fill-opacity:1;fill-rule:evenodd;stroke:none"
       transform="scale(1.3333333)" />
    <path
       id="path29"
       d="m 184.32,100.539 h 50.27"
       style="fill:none;stroke:#000000;stroke-width:0.9216;stroke-linecap:butt;stroke-linejoin:miter;stroke-miterlimit:3.25;stroke-dasharray:0.9216, 5.5296;stroke-dashoffset:0;stroke-opacity:1"
       transform="scale(1.3333333)" />
    <path
       id="path30"
       d="m 214.48,100.539 -10.054,3.352 v -6.703 z"
       style="fill:#000000;fill-opacity:1;fill-rule:evenodd;stroke:none"
       transform="scale(1.3333333)" />
    <path
       id="path31"
       d="m 5.5535792,-11.028528 -1.5585937,7.3359372 c -0.1289063,0.5507812 -0.1289063,1.0078125 -0.023437,1.3710937 0.1875,0.65625 0.7148437,0.984375 1.6289062,0.984375 1.2773438,0 2.296875,-0.5625 3.0117188,-1.7226562 0.3867187,-0.6210938 0.6796875,-1.4765625 0.9140625,-2.5546875 l 1.160156,-5.4140622 h 1.851562 l -2.34375,11.02734344 H 8.4481105 L 8.799673,-1.6300908 c -0.328125,0.421875 -0.6914063,0.78515624 -1.1132813,1.07812499 -0.84375,0.57421875 -1.7578125,0.8671875 -2.765625,0.8671875 -1.5820312,0 -2.53125,-0.52734375 -2.8710937,-1.58203129 -0.1875,-0.5742187 -0.1875,-1.3125 0,-2.2617187 l 1.6054687,-7.4999997 z m 0,0"
       style="fill:#000000;fill-opacity:1;fill-rule:nonzero;stroke:none"
       aria-label="u"
       transform="matrix(1.3333333,0,0,1.3333333,265.2671,160.58361)" />
    <path
       id="path32"
       d="m 6.877798,-7.4543097 c 0.2226562,0.1640625 0.4101562,0.4101563 0.5976562,0.7265625 l 0.2226563,-0.984375 H 8.893423 l -1.5,7.08984376 C 7.1824855,0.35037781 6.877798,1.1472528 6.455923,1.7097528 c -0.7734375,1.0546875 -1.8984375,1.59375 -3.4101563,1.59375 -0.84375,0 -1.5,-0.1992187 -1.9921875,-0.5625 C 0.56139175,2.3660028 0.35045425,1.7683466 0.455923,0.97147156 H 1.8035792 C 1.7801417,1.3230341 1.862173,1.5925653 2.002798,1.7800653 c 0.234375,0.2929688 0.6796875,0.4335938 1.3007812,0.4335938 1.0078125,0 1.7460938,-0.3515625 2.203125,-1.0546875 0.2695313,-0.41015629 0.5039063,-1.16015629 0.7148438,-2.2265625 -0.3398438,0.38671871 -0.7148438,0.67968746 -1.1132813,0.86718746 -0.421875,0.19921875 -0.9257812,0.3046875 -1.5351562,0.3046875 -0.8320313,0 -1.5234375,-0.3046875 -2.0273438,-0.890625 C 1.0418605,-1.3957159 0.93639175,-2.3800909 1.2293605,-3.7629034 1.5223292,-5.0636847 2.0379542,-6.0832159 2.846548,-6.8214972 c 0.7851562,-0.7265625 1.6289062,-1.1015625 2.5195312,-1.1015625 0.6210938,0 1.125,0.1523438 1.5117188,0.46875 z m -1.5117188,0.6914063 c -0.9140625,0 -1.6289062,0.4335937 -2.15625,1.3007812 -0.28125,0.4570313 -0.5039062,1.0546875 -0.65625,1.8046875 -0.1875,0.8789063 -0.140625,1.546875 0.1054688,2.0039063 0.2578125,0.4570312 0.6914062,0.67968746 1.3007812,0.67968746 0.9375,0 1.6757813,-0.41015626 2.25,-1.26562496 0.3046875,-0.4804688 0.5273438,-1.03125 0.6679688,-1.6757813 0.2109375,-0.9726562 0.1640625,-1.6875 -0.140625,-2.1445312 -0.2929688,-0.4570313 -0.75,-0.703125 -1.3710938,-0.703125 z m 0,0"
       style="fill:#000000;fill-opacity:1;fill-rule:nonzero;stroke:none"
       aria-label="g"
       transform="matrix(1.3333333,0,0,1.3333333,280.8296,165.81017)" />
    <path
       id="path33"
       d="m 351.883,100.539 h -50.27"
       style="fill:none;stroke:#000000;stroke-width:0.9216;stroke-linecap:butt;stroke-linejoin:miter;stroke-miterlimit:3.25;stroke-dasharray:0.9216, 5.5296;stroke-dashoffset:0;stroke-opacity:1"
       transform="scale(1.3333333)" />
    <path
       id="path34"
       d="m 331.777,100.539 -10.054,-3.351 v 6.703 z"
       style="fill:#000000;fill-opacity:1;fill-rule:evenodd;stroke:none"
       transform="scale(1.3333333)" />
    <path
       id="path35"
       d="m 5.5549327,-11.028528 -1.5585938,7.3359372 c -0.1289062,0.5507812 -0.1289062,1.0078125 -0.023437,1.3710937 0.1875,0.65625 0.7148438,0.984375 1.6289063,0.984375 1.2773437,0 2.296875,-0.5625 3.0117187,-1.7226562 0.3867188,-0.6210938 0.6796875,-1.4765625 0.9140625,-2.5546875 l 1.1601566,-5.4140622 h 1.851563 l -2.34375,11.02734344 H 8.4494639 L 8.8010264,-1.6300908 c -0.328125,0.421875 -0.6914062,0.78515624 -1.1132812,1.07812499 -0.84375,0.57421875 -1.7578125,0.8671875 -2.765625,0.8671875 -1.5820313,0 -2.53125,-0.52734375 -2.8710938,-1.58203129 -0.1875,-0.5742187 -0.1875,-1.3125 0,-2.2617187 l 1.6054688,-7.4999997 z m 0,0"
       style="fill:#000000;fill-opacity:1;fill-rule:nonzero;stroke:none"
       aria-label="u"
       transform="matrix(1.3333333,0,0,1.3333333,421.65983,160.58361)" />
    <path
       id="path36"
       d="m 6.8791514,-7.4543097 c 0.2226563,0.1640625 0.4101563,0.4101563 0.5976563,0.7265625 l 0.2226562,-0.984375 h 1.1953125 l -1.5,7.08984376 c -0.2109375,0.97265625 -0.515625,1.76953124 -0.9375,2.33203124 -0.7734375,1.0546875 -1.8984375,1.59375 -3.4101562,1.59375 -0.84375,0 -1.5,-0.1992187 -1.9921875,-0.5625 C 0.56274519,2.3660028 0.35180769,1.7683466 0.45727644,0.97147156 H 1.8049327 c -0.023437,0.35156254 0.058594,0.62109374 0.1992187,0.80859374 0.234375,0.2929688 0.6796875,0.4335938 1.3007813,0.4335938 1.0078125,0 1.7460937,-0.3515625 2.203125,-1.0546875 0.2695312,-0.41015629 0.5039062,-1.16015629 0.7148437,-2.2265625 -0.3398437,0.38671871 -0.7148437,0.67968746 -1.1132812,0.86718746 -0.421875,0.19921875 -0.9257813,0.3046875 -1.5351563,0.3046875 -0.8320312,0 -1.5234375,-0.3046875 -2.0273437,-0.890625 C 1.0432139,-1.3957159 0.93774519,-2.3800909 1.2307139,-3.7629034 c 0.2929688,-1.3007813 0.8085938,-2.3203125 1.6171875,-3.0585938 0.7851563,-0.7265625 1.6289063,-1.1015625 2.5195313,-1.1015625 0.6210937,0 1.125,0.1523438 1.5117187,0.46875 z m -1.5117187,0.6914063 c -0.9140625,0 -1.6289063,0.4335937 -2.15625,1.3007812 -0.28125,0.4570313 -0.5039063,1.0546875 -0.65625,1.8046875 -0.1875,0.8789063 -0.140625,1.546875 0.1054687,2.0039063 0.2578125,0.4570312 0.6914063,0.67968746 1.3007813,0.67968746 0.9375,0 1.6757812,-0.41015626 2.25,-1.26562496 0.3046875,-0.4804688 0.5273437,-1.03125 0.6679687,-1.6757813 0.2109375,-0.9726562 0.1640625,-1.6875 -0.140625,-2.1445312 -0.2929687,-0.4570313 -0.75,-0.703125 -1.3710937,-0.703125 z m 0,0"
       style="fill:#000000;fill-opacity:1;fill-rule:nonzero;stroke:none"
       aria-label="g"
       transform="matrix(1.3333333,0,0,1.3333333,437.22233,165.81017)" />
    <path
       id="path37"
       d="m 234.59,100.539 c 0,8.887 3.531,17.41 9.816,23.695 6.285,6.286 14.809,9.817 23.696,9.817 8.886,0 17.414,-3.531 23.699,-9.817 6.281,-6.285 9.812,-14.808 9.812,-23.695"
       style="fill:none;stroke:#000000;stroke-width:0.9216;stroke-linecap:butt;stroke-linejoin:miter;stroke-miterlimit:3.25;stroke-dasharray:0.9216, 5.5296;stroke-dashoffset:0;stroke-opacity:1"
       transform="scale(1.3333333)" />
    <path
       id="path38"
       d="m 273.129,134.051 -10.055,3.351 v -6.703 z"
       style="fill:#000000;fill-opacity:1;fill-rule:evenodd;stroke:none"
       transform="scale(1.3333333)" />
    <path
       id="path39"
       d="m 5.5557213,-11.02856 -1.5585937,7.3359375 c -0.1289063,0.5507812 -0.1289063,1.0078125 -0.023437,1.3710937 0.1875,0.65625 0.7148437,0.984375 1.6289062,0.984375 1.2773438,0 2.296875,-0.5625 3.0117188,-1.7226562 0.3867187,-0.6210938 0.6796875,-1.4765625 0.9140625,-2.5546875 L 10.688534,-11.02856 h 1.851562 l -2.34375,11.02734375 H 8.4502526 L 8.8018151,-1.6301225 c -0.328125,0.421875 -0.6914063,0.78515625 -1.1132813,1.078125 -0.84375,0.57421875 -1.7578125,0.8671875 -2.765625,0.8671875 -1.5820312,0 -2.53125,-0.52734375 -2.8710937,-1.5820313 -0.1875,-0.5742187 -0.1875,-1.3125 0,-2.2617187 l 1.6054687,-7.5 z m 0,0"
       style="fill:#000000;fill-opacity:1;fill-rule:nonzero;stroke:none"
       aria-label="u"
       transform="matrix(1.3333333,0,0,1.3333333,343.46347,205.26725)" />
    <path
       id="path40"
       d="m 6.8799401,-7.4543414 c 0.2226562,0.1640625 0.4101562,0.4101563 0.5976562,0.7265625 l 0.2226563,-0.984375 h 1.1953125 l -1.5,7.08984377 c -0.2109375,0.97265625 -0.515625,1.76953123 -0.9375,2.33203123 -0.7734375,1.0546875 -1.8984375,1.59375 -3.4101563,1.59375 -0.84375,0 -1.5,-0.1992187 -1.9921875,-0.5625 C 0.56353381,2.3659711 0.35259631,1.7683149 0.45806506,0.97143987 H 1.8057213 c -0.023437,0.35156253 0.058594,0.62109373 0.1992188,0.80859373 0.234375,0.2929688 0.6796875,0.4335938 1.3007812,0.4335938 1.0078125,0 1.7460938,-0.3515625 2.203125,-1.0546875 0.2695313,-0.41015628 0.5039063,-1.16015628 0.7148438,-2.2265625 -0.3398438,0.38671872 -0.7148438,0.67968747 -1.1132813,0.86718747 -0.421875,0.19921875 -0.9257812,0.3046875 -1.5351562,0.3046875 -0.8320313,0 -1.5234375,-0.3046875 -2.0273438,-0.890625 C 1.0440026,-1.3957476 0.93853381,-2.3801226 1.2315026,-3.7629351 c 0.2929687,-1.3007813 0.8085937,-2.3203125 1.6171875,-3.0585938 0.7851562,-0.7265625 1.6289062,-1.1015625 2.5195312,-1.1015625 0.6210938,0 1.125,0.1523438 1.5117188,0.46875 z m -1.5117188,0.6914063 c -0.9140625,0 -1.6289062,0.4335937 -2.15625,1.3007812 -0.28125,0.4570313 -0.5039062,1.0546875 -0.65625,1.8046875 -0.1875,0.8789063 -0.140625,1.546875 0.1054688,2.0039063 0.2578125,0.4570312 0.6914062,0.67968747 1.3007812,0.67968747 0.9375,0 1.6757813,-0.41015627 2.25,-1.26562497 0.3046875,-0.4804688 0.5273438,-1.03125 0.6679688,-1.6757813 0.2109375,-0.9726562 0.1640625,-1.6875 -0.140625,-2.1445312 -0.2929688,-0.4570313 -0.75,-0.703125 -1.3710938,-0.703125 z m 0,0"
       style="fill:#000000;fill-opacity:1;fill-rule:nonzero;stroke:none"
       aria-label="g"
       transform="matrix(1.3333333,0,0,1.3333333,359.02597,210.49381)" />
    <path
       id="path41"
       d="m 234.59,100.539 -0.977,-0.984 -0.718,-1.223 -0.399,-1.391 -0.039,-1.464 0.32,-1.422 0.661,-1.282 0.937,-1.054 1.141,-0.774 1.261,-0.465 1.293,-0.164 1.246,0.09 1.137,0.297 0.969,0.445 0.758,0.524 0.511,0.555 0.243,0.546 -0.036,0.5 -0.316,0.434 -0.574,0.344 -0.809,0.226 -0.992,0.078 -1.117,-0.105 -1.172,-0.32 -1.145,-0.571 -1.035,-0.824 -0.84,-1.07 -0.562,-1.274 -0.238,-1.41 0.125,-1.445 0.484,-1.383 0.809,-1.211 1.066,-0.957 1.246,-0.648 1.332,-0.313 1.332,0.008 1.258,0.289 1.129,0.508 0.945,0.648 0.738,0.719 0.508,0.723 0.262,0.66 0.004,0.566 -0.246,0.43 -0.488,0.281 -0.704,0.114 -0.878,-0.071 -0.993,-0.273 -1.043,-0.485 -1.007,-0.714 -0.887,-0.938 -0.684,-1.144 -0.41,-1.305 -0.074,-1.402 0.285,-1.407 0.633,-1.312 0.945,-1.117 1.184,-0.844 1.332,-0.508 1.387,-0.16 1.347,0.176 1.235,0.472 1.07,0.7 0.875,0.847 0.656,0.91 0.438,0.895 0.214,0.808 -0.003,0.672 -0.215,0.492 -0.414,0.286 -0.594,0.066 -0.738,-0.16 -0.836,-0.383 -0.871,-0.613 -0.836,-0.828 -0.711,-1.028 -0.512,-1.199 -0.242,-1.32 0.086,-1.375 0.433,-1.344 0.77,-1.219 1.062,-1 1.282,-0.707 1.398,-0.363 1.422,-0.004 1.34,0.344"
       style="fill:none;stroke:#000000;stroke-width:0.9216;stroke-linecap:square;stroke-linejoin:miter;stroke-miterlimit:3.25;stroke-dasharray:none;stroke-opacity:1"
       transform="scale(1.3333333)" />
    <path
       id="path42"
       d="m 9.7606198,-10.582524 c 0.3164062,0.234375 0.5859372,0.5976561 0.8437502,1.0312498 l 0.316406,-1.3828128 h 1.710938 L 10.498901,-0.89111794 C 10.194214,0.50341331 9.7606198,1.6284133 9.1629635,2.4252883 c -1.1015625,1.5 -2.7070312,2.2617188 -4.8398437,2.2617188 -1.1953125,0 -2.1328125,-0.2695313 -2.8242188,-0.796875 C 0.795776,3.3627883 0.50280725,2.5073196 0.655151,1.3706008 h 1.8984375 c -0.023437,0.5039063 0.082031,0.890625 0.2929688,1.1601563 0.3164062,0.3984375 0.9492187,0.609375 1.8398437,0.609375 1.4414063,0 2.4726563,-0.5039063 3.1289063,-1.4882813 0.375,-0.5976562 0.7148437,-1.6523437375 1.0078125,-3.1757812 -0.4804688,0.55078121 -1.0078125,0.97265621 -1.5820313,1.25390621 -0.5859375,0.2695312525 -1.3125,0.421875 -2.1796875,0.421875 -1.171875,0 -2.1445312,-0.421875 -2.8710937,-1.27734371 -0.7148438,-0.8554688 -0.8554688,-2.25 -0.4335938,-4.21875 0.3984375,-1.8398438 1.1367188,-3.2929688 2.2734375,-4.3242188 1.125,-1.0429683 2.3203125,-1.5703123 3.5976563,-1.5703123 0.8554687,0 1.5820312,0.210937 2.1328125,0.65625 z m -2.1328125,0.9960936 c -1.3125,0 -2.3320313,0.609375 -3.0703125,1.8398437 -0.3984375,0.65625 -0.7148438,1.5 -0.9257813,2.5546875 -0.2695312,1.2421875 -0.2109375,2.1914063 0.1523438,2.8476563 0.3515625,0.65625 0.9609375,0.9726562 1.828125,0.9726562 1.3359375,0 2.390625,-0.5976562 3.1875,-1.7929687 0.4453125,-0.703125 0.7617187,-1.4765625 0.9609375,-2.390625 C 10.053589,-6.9262742 9.983276,-7.9458054 9.561401,-8.5903367 9.139526,-9.2465867 8.483276,-9.5864304 7.6278073,-9.5864304 Z m 0,0"
       style="fill:#000000;fill-opacity:1;fill-rule:nonzero;stroke:none"
       aria-label="g"
       transform="matrix(1.3333333,0,0,1.3333333,292.75147,102.82488)" />
    <path
       id="path43"
       d="m 284.859,71.215 c -1.152,-5.113 -4.57,-9.418 -9.289,-11.695 -4.718,-2.282 -10.218,-2.282 -14.937,0 -4.719,2.277 -8.137,6.582 -9.289,11.695"
       style="fill:none;stroke:#000000;stroke-width:0.9216;stroke-linecap:butt;stroke-linejoin:miter;stroke-miterlimit:3.25;stroke-dasharray:0.9216, 5.5296;stroke-dashoffset:0;stroke-opacity:1"
       transform="scale(1.3333333)" />
    <path
       id="path44"
       d="M 273.129,57.809 263.074,54.457 V 61.16 Z"
       style="fill:#000000;fill-opacity:1;fill-rule:evenodd;stroke:none"
       transform="scale(1.3333333)" />
    <path
       id="path45"
       d="m 5.5557213,-11.027116 -1.5585937,7.3359376 c -0.1289063,0.5507813 -0.1289063,1.0078125 -0.023437,1.3710938 0.1875,0.65625 0.7148437,0.984375 1.6289062,0.984375 1.2773438,0 2.296875,-0.5625 3.0117188,-1.7226563 0.3867187,-0.6210937 0.6796875,-1.4765625 0.9140625,-2.5546875 l 1.1601559,-5.4140626 h 1.851562 L 10.196346,2.27875e-4 H 8.4502526 L 8.8018151,-1.6286784 c -0.328125,0.421875 -0.6914063,0.78515628 -1.1132813,1.07812503 -0.84375,0.57421875 -1.7578125,0.8671875 -2.765625,0.8671875 -1.5820312,0 -2.53125,-0.52734375 -2.8710937,-1.58203123 -0.1875,-0.5742188 -0.1875,-1.3125 0,-2.2617188 l 1.6054687,-7.5000001 z m 0,0"
       style="fill:#000000;fill-opacity:1;fill-rule:nonzero;stroke:none"
       aria-label="u"
       transform="matrix(1.3333333,0,0,1.3333333,343.46347,55.538759)" />
    <path
       id="path46"
       d="m 6.8799401,-7.4528972 c 0.2226562,0.1640625 0.4101562,0.4101562 0.5976562,0.7265625 l 0.2226563,-0.984375 h 1.1953125 l -1.5,7.0898437 c -0.2109375,0.97265625 -0.515625,1.7695313 -0.9375,2.3320313 -0.7734375,1.0546875 -1.8984375,1.59375 -3.4101563,1.59375 -0.84375,0 -1.5,-0.1992188 -1.9921875,-0.5625 C 0.56353381,2.3674153 0.35259631,1.769759 0.45806506,0.972884 H 1.8057213 c -0.023437,0.3515625 0.058594,0.6210938 0.1992188,0.8085938 0.234375,0.2929687 0.6796875,0.4335937 1.3007812,0.4335937 1.0078125,0 1.7460938,-0.3515625 2.203125,-1.0546875 C 5.7783776,0.75022775 6.0127526,2.2775e-4 6.2236901,-1.0661785 5.8838463,-0.67945975 5.5088463,-0.386491 5.1104088,-0.198991 4.6885338,2.2775e-4 4.1846276,0.1056965 3.5752526,0.1056965 c -0.8320313,0 -1.5234375,-0.3046875 -2.0273438,-0.890625 -0.5039062,-0.609375 -0.60937499,-1.59375 -0.3164062,-2.9765625 0.2929687,-1.3007812 0.8085937,-2.3203125 1.6171875,-3.0585937 0.7851562,-0.7265625 1.6289062,-1.1015625 2.5195312,-1.1015625 0.6210938,0 1.125,0.1523437 1.5117188,0.46875 z M 5.3682213,-6.761491 c -0.9140625,0 -1.6289062,0.4335938 -2.15625,1.3007813 -0.28125,0.4570312 -0.5039062,1.0546875 -0.65625,1.8046875 -0.1875,0.8789062 -0.140625,1.546875 0.1054688,2.0039062 0.2578125,0.4570313 0.6914062,0.6796875 1.3007812,0.6796875 0.9375,0 1.6757813,-0.4101562 2.25,-1.265625 0.3046875,-0.4804687 0.5273438,-1.03125 0.6679688,-1.6757812 0.2109375,-0.9726563 0.1640625,-1.6875 -0.140625,-2.1445313 -0.2929688,-0.4570312 -0.75,-0.703125 -1.3710938,-0.703125 z m 0,0"
       style="fill:#000000;fill-opacity:1;fill-rule:nonzero;stroke:none"
       aria-label="g"
       transform="matrix(1.3333333,0,0,1.3333333,359.02597,60.765321)" />
    <path
       id="path47"
       d="m 251.344,71.215 c 1.152,5.109 4.57,9.418 9.289,11.695 4.719,2.278 10.219,2.278 14.937,0 4.719,-2.277 8.137,-6.586 9.289,-11.695"
       style="fill:none;stroke:#000000;stroke-width:0.9216;stroke-linecap:butt;stroke-linejoin:miter;stroke-miterlimit:3.25;stroke-dasharray:0.9216, 5.5296;stroke-dashoffset:0;stroke-opacity:1"
       transform="scale(1.3333333)" />
    <path
       id="path48"
       d="m 263.074,84.621 10.055,3.352 V 81.27 Z"
       style="fill:#000000;fill-opacity:1;fill-rule:evenodd;stroke:none"
       transform="scale(1.3333333)" />
    <path
       id="path49"
       d="m 5.5557213,-11.026976 -1.5585937,7.335938 c -0.1289063,0.5507812 -0.1289063,1.0078125 -0.023437,1.3710937 0.1875,0.65625 0.7148437,0.984375 1.6289062,0.984375 1.2773438,0 2.296875,-0.5625 3.0117188,-1.7226562 0.3867187,-0.6210938 0.6796875,-1.4765625 0.9140625,-2.5546875 l 1.1601559,-5.414063 h 1.851562 L 10.196346,3.6825e-4 H 8.4502526 L 8.8018151,-1.628538 c -0.328125,0.421875 -0.6914063,0.78515625 -1.1132813,1.078125 -0.84375,0.57421875 -1.7578125,0.8671875 -2.765625,0.8671875 -1.5820312,0 -2.53125,-0.52734375 -2.8710937,-1.5820313 -0.1875,-0.5742187 -0.1875,-1.3125 0,-2.2617187 l 1.6054687,-7.5000005 z m 0,0"
       style="fill:#000000;fill-opacity:1;fill-rule:nonzero;stroke:none"
       aria-label="u"
       transform="matrix(1.3333333,0,0,1.3333333,343.46347,139.35888)" />
    <path
       id="path50"
       d="m 6.8799401,-7.4527559 c 0.2226562,0.1640625 0.4101562,0.4101563 0.5976562,0.7265625 l 0.2226563,-0.984375 h 1.1953125 l -1.5,7.08984378 c -0.2109375,0.97265625 -0.515625,1.76953122 -0.9375,2.33203122 -0.7734375,1.0546875 -1.8984375,1.59375 -3.4101563,1.59375 -0.84375,0 -1.5,-0.1992187 -1.9921875,-0.5625 C 0.56353381,2.3675566 0.35259631,1.7699004 0.45806506,0.97302538 H 1.8057213 c -0.023437,0.35156252 0.058594,0.62109372 0.1992188,0.80859372 0.234375,0.2929688 0.6796875,0.4335938 1.3007812,0.4335938 1.0078125,0 1.7460938,-0.3515625 2.203125,-1.0546875 0.2695313,-0.41015627 0.5039063,-1.160156275 0.7148438,-2.2265625 -0.3398438,0.38671873 -0.7148438,0.67968748 -1.1132813,0.86718748 -0.421875,0.199218745 -0.9257812,0.3046875 -1.5351562,0.3046875 -0.8320313,0 -1.5234375,-0.3046875 -2.0273438,-0.890625 C 1.0440026,-1.3941621 0.93853381,-2.3785371 1.2315026,-3.7613496 c 0.2929687,-1.3007813 0.8085937,-2.3203125 1.6171875,-3.0585938 0.7851562,-0.7265625 1.6289062,-1.1015625 2.5195312,-1.1015625 0.6210938,0 1.125,0.1523438 1.5117188,0.46875 z m -1.5117188,0.6914063 c -0.9140625,0 -1.6289062,0.4335937 -2.15625,1.3007812 -0.28125,0.4570313 -0.5039062,1.0546875 -0.65625,1.8046875 -0.1875,0.8789063 -0.140625,1.546875 0.1054688,2.0039063 0.2578125,0.4570312 0.6914062,0.67968748 1.3007812,0.67968748 0.9375,0 1.6757813,-0.41015628 2.25,-1.26562498 0.3046875,-0.4804688 0.5273438,-1.03125 0.6679688,-1.6757813 0.2109375,-0.9726562 0.1640625,-1.6875 -0.140625,-2.1445312 -0.2929688,-0.4570313 -0.75,-0.703125 -1.3710938,-0.703125 z m 0,0"
       style="fill:#000000;fill-opacity:1;fill-rule:nonzero;stroke:none"
       aria-label="g"
       transform="matrix(1.3333333,0,0,1.3333333,359.02597,144.58545)" />
    <path
       id="path51"
       d="m 301.613,100.539 0.969,-0.992 0.703,-1.231 0.387,-1.39 0.027,-1.461 -0.332,-1.418 -0.668,-1.277 -0.945,-1.047 -1.145,-0.762 -1.261,-0.457 -1.297,-0.16 -1.246,0.097 -1.133,0.305 -0.969,0.445 -0.754,0.532 -0.508,0.558 -0.238,0.551 0.039,0.504 0.317,0.437 0.582,0.34 0.808,0.227 0.992,0.07 1.118,-0.109 1.168,-0.328 1.144,-0.575 1.027,-0.832 0.832,-1.074 0.563,-1.277 0.23,-1.406 -0.128,-1.446 -0.489,-1.375 -0.808,-1.211 -1.071,-0.953 -1.242,-0.644 -1.332,-0.313 -1.336,0.008 -1.258,0.289 -1.125,0.504 -0.949,0.652 -0.738,0.719 -0.504,0.723 -0.262,0.664 -0.004,0.566 0.25,0.438 0.489,0.281 0.707,0.117 0.879,-0.07 0.992,-0.274 1.043,-0.484 1.008,-0.715 0.886,-0.937 0.684,-1.145 0.406,-1.305 0.078,-1.402 -0.281,-1.402 -0.629,-1.313 -0.941,-1.117 -1.18,-0.848 -1.328,-0.515 -1.383,-0.164 -1.348,0.172 -1.238,0.464 -1.074,0.692 -0.879,0.844 -0.664,0.906 -0.438,0.89 -0.218,0.813 v 0.672 l 0.214,0.492 0.415,0.293 0.593,0.07 0.742,-0.152 0.84,-0.379 0.875,-0.605 0.84,-0.825 0.719,-1.023 0.516,-1.195 0.246,-1.321 -0.075,-1.375 -0.421,-1.343 -0.762,-1.223 -1.051,-1.008 -1.273,-0.719 -1.395,-0.375 -1.418,-0.015 -1.344,0.328"
       style="fill:none;stroke:#000000;stroke-width:0.9216;stroke-linecap:square;stroke-linejoin:miter;stroke-miterlimit:3.25;stroke-dasharray:none;stroke-opacity:1"
       transform="scale(1.3333333)" />
    <path
       id="path52"
       d="m 9.7623871,-10.582988 c 0.3164059,0.234375 0.5859379,0.5976558 0.8437499,1.0312495 l 0.316406,-1.3828125 h 1.710938 L 10.500668,-0.89158225 C 10.195981,0.502949 9.7623871,1.627949 9.1647309,2.424824 c -1.1015625,1.5 -2.7070313,2.2617188 -4.8398438,2.2617188 -1.1953125,0 -2.1328125,-0.2695313 -2.8242187,-0.796875 C 0.79754338,3.362324 0.50457463,2.5068553 0.65691838,1.3701365 H 2.5553559 c -0.023437,0.5039063 0.082031,0.890625 0.2929687,1.1601563 0.3164063,0.3984375 0.9492188,0.609375 1.8398438,0.609375 1.4414062,0 2.4726562,-0.5039063 3.1289062,-1.4882813 0.375,-0.5976562 0.7148438,-1.65234375 1.0078125,-3.1757812 -0.4804687,0.5507812 -1.0078125,0.9726562 -1.5820312,1.2539062 -0.5859375,0.26953125 -1.3125,0.421875 -2.1796875,0.421875 -1.171875,0 -2.1445313,-0.421875 -2.8710938,-1.2773437 -0.7148437,-0.8554688 -0.8554687,-2.25 -0.4335937,-4.21875 0.3984375,-1.8398438 1.1367187,-3.2929688 2.2734375,-4.3242188 1.125,-1.042969 2.3203125,-1.570312 3.5976562,-1.570312 0.8554688,0 1.5820313,0.210937 2.1328125,0.65625 z m -2.1328125,0.9960933 c -1.3125,0 -2.3320312,0.609375 -3.0703125,1.8398437 -0.3984375,0.65625 -0.7148437,1.5 -0.9257812,2.5546875 -0.2695313,1.2421875 -0.2109375,2.1914063 0.1523437,2.8476563 0.3515625,0.65625 0.9609375,0.9726562 1.828125,0.9726562 1.3359375,0 2.390625,-0.5976562 3.1875,-1.7929687 0.4453125,-0.703125 0.7617188,-1.4765625 0.9609375,-2.390625 0.2929689,-1.3710938 0.2226563,-2.390625 -0.1992187,-3.0351563 -0.421875,-0.65625 -1.078125,-0.9960937 -1.9335938,-0.9960937 z m 0,0"
       style="fill:#000000;fill-opacity:1;fill-rule:nonzero;stroke:none"
       aria-label="g"
       transform="matrix(1.3333333,0,0,1.3333333,405.31942,102.8919)" />
    <path
       id="path53"
       d="m 288.543,71.215 c 0,0.976 -0.387,1.914 -1.078,2.605 -0.692,0.692 -1.629,1.082 -2.606,1.082 -0.98,0 -1.918,-0.39 -2.609,-1.082 -0.691,-0.691 -1.078,-1.629 -1.078,-2.605 0,-0.977 0.387,-1.914 1.078,-2.606 0.691,-0.691 1.629,-1.082 2.609,-1.082 0.977,0 1.914,0.391 2.606,1.082 0.691,0.692 1.078,1.629 1.078,2.606 z"
       style="fill:#000000;fill-opacity:1;fill-rule:evenodd;stroke:none"
       transform="scale(1.3333333)" />
    <path
       id="path54"
       d="m 255.031,71.215 c 0,0.976 -0.386,1.914 -1.078,2.605 -0.691,0.692 -1.629,1.082 -2.609,1.082 -0.977,0 -1.914,-0.39 -2.606,-1.082 -0.691,-0.691 -1.078,-1.629 -1.078,-2.605 0,-0.977 0.387,-1.914 1.078,-2.606 0.692,-0.691 1.629,-1.082 2.606,-1.082 0.98,0 1.918,0.391 2.609,1.082 0.692,0.692 1.078,1.629 1.078,2.606 z"
       style="fill:#000000;fill-opacity:1;fill-rule:evenodd;stroke:none"
       transform="scale(1.3333333)" />
    <path
       id="path55"
       d="m 238.277,100.539 c 0,0.977 -0.39,1.914 -1.082,2.606 -0.691,0.691 -1.629,1.078 -2.605,1.078 -0.977,0 -1.918,-0.387 -2.61,-1.078 -0.687,-0.692 -1.078,-1.629 -1.078,-2.606 0,-0.98 0.391,-1.918 1.078,-2.609 0.692,-0.692 1.633,-1.078 2.61,-1.078 0.976,0 1.914,0.386 2.605,1.078 0.692,0.691 1.082,1.629 1.082,2.609 z"
       style="fill:#000000;fill-opacity:1;fill-rule:evenodd;stroke:none"
       transform="scale(1.3333333)" />
    <path
       id="path56"
       d="m 305.301,100.539 c 0,0.977 -0.387,1.914 -1.078,2.606 -0.692,0.691 -1.629,1.078 -2.61,1.078 -0.976,0 -1.914,-0.387 -2.605,-1.078 -0.692,-0.692 -1.078,-1.629 -1.078,-2.606 0,-0.98 0.386,-1.918 1.078,-2.609 0.691,-0.692 1.629,-1.078 2.605,-1.078 0.981,0 1.918,0.386 2.61,1.078 0.691,0.691 1.078,1.629 1.078,2.609 z"
       style="fill:#000000;fill-opacity:1;fill-rule:evenodd;stroke:none"
       transform="scale(1.3333333)" />
    <path
       id="path57"
       d="M 368.641,100.539 H 418.91"
       style="fill:none;stroke:#000000;stroke-width:0.9216;stroke-linecap:butt;stroke-linejoin:miter;stroke-miterlimit:3.25;stroke-dasharray:0.9216, 5.5296;stroke-dashoffset:0;stroke-opacity:1"
       transform="scale(1.3333333)" />
    <path
       id="path58"
       d="m 398.801,100.539 -10.055,3.352 v -6.703 z"
       style="fill:#000000;fill-opacity:1;fill-rule:evenodd;stroke:none"
       transform="scale(1.3333333)" />
    <path
       id="path59"
       d="m 5.5548683,-11.028528 -1.5585937,7.3359372 c -0.1289063,0.5507812 -0.1289063,1.0078125 -0.023437,1.3710937 0.1875,0.65625 0.7148437,0.984375 1.6289062,0.984375 1.2773438,0 2.296875,-0.5625 3.0117188,-1.7226562 0.3867187,-0.6210938 0.6796875,-1.4765625 0.9140625,-2.5546875 l 1.1601569,-5.4140622 h 1.851562 l -2.34375,11.02734344 H 8.4493996 L 8.8009621,-1.6300908 c -0.328125,0.421875 -0.6914063,0.78515624 -1.1132813,1.07812499 -0.84375,0.57421875 -1.7578125,0.8671875 -2.765625,0.8671875 -1.5820312,0 -2.53125,-0.52734375 -2.8710937,-1.58203129 -0.1875,-0.5742187 -0.1875,-1.3125 0,-2.2617187 l 1.6054687,-7.4999997 z m 0,0"
       style="fill:#000000;fill-opacity:1;fill-rule:nonzero;stroke:none"
       aria-label="u"
       transform="matrix(1.3333333,0,0,1.3333333,511.0271,160.58361)" />
    <path
       id="path60"
       d="m 6.8790871,-7.4543097 c 0.2226562,0.1640625 0.4101562,0.4101563 0.5976562,0.7265625 l 0.2226563,-0.984375 h 1.1953125 l -1.5,7.08984376 c -0.2109375,0.97265625 -0.515625,1.76953124 -0.9375,2.33203124 -0.7734375,1.0546875 -1.8984375,1.59375 -3.4101563,1.59375 -0.84375,0 -1.5,-0.1992187 -1.9921875,-0.5625 C 0.56268081,2.3660028 0.35174331,1.7683466 0.45721206,0.97147156 H 1.8048683 c -0.023437,0.35156254 0.058594,0.62109374 0.1992188,0.80859374 0.234375,0.2929688 0.6796875,0.4335938 1.3007812,0.4335938 1.0078125,0 1.7460938,-0.3515625 2.203125,-1.0546875 0.2695313,-0.41015629 0.5039063,-1.16015629 0.7148438,-2.2265625 -0.3398438,0.38671871 -0.7148438,0.67968746 -1.1132813,0.86718746 -0.421875,0.19921875 -0.9257812,0.3046875 -1.5351562,0.3046875 -0.8320313,0 -1.5234375,-0.3046875 -2.0273438,-0.890625 C 1.0431496,-1.3957159 0.93768081,-2.3800909 1.2306496,-3.7629034 c 0.2929687,-1.3007813 0.8085937,-2.3203125 1.6171875,-3.0585938 0.7851562,-0.7265625 1.6289062,-1.1015625 2.5195312,-1.1015625 0.6210938,0 1.125,0.1523438 1.5117188,0.46875 z m -1.5117188,0.6914063 c -0.9140625,0 -1.6289062,0.4335937 -2.15625,1.3007812 -0.28125,0.4570313 -0.5039062,1.0546875 -0.65625,1.8046875 -0.1875,0.8789063 -0.140625,1.546875 0.1054688,2.0039063 0.2578125,0.4570312 0.6914062,0.67968746 1.3007812,0.67968746 0.9375,0 1.6757813,-0.41015626 2.25,-1.26562496 0.3046875,-0.4804688 0.5273438,-1.03125 0.6679688,-1.6757813 0.2109375,-0.9726562 0.1640625,-1.6875 -0.140625,-2.1445312 -0.2929688,-0.4570313 -0.75,-0.703125 -1.3710938,-0.703125 z m 0,0"
       style="fill:#000000;fill-opacity:1;fill-rule:nonzero;stroke:none"
       aria-label="g"
       transform="matrix(1.3333333,0,0,1.3333333,526.5896,165.81017)" />
    <path
       id="path61"
       d="M 536.203,100.539 H 485.934"
       style="fill:none;stroke:#000000;stroke-width:0.9216;stroke-linecap:butt;stroke-linejoin:miter;stroke-miterlimit:3.25;stroke-dasharray:0.9216, 5.5296;stroke-dashoffset:0;stroke-opacity:1"
       transform="scale(1.3333333)" />
    <path
       id="path62"
       d="m 516.098,100.539 -10.055,-3.351 v 6.703 z"
       style="fill:#000000;fill-opacity:1;fill-rule:evenodd;stroke:none"
       transform="scale(1.3333333)" />
    <path
       id="path63"
       d="m 5.5532921,-11.028528 -1.5585938,7.3359372 c -0.1289062,0.5507812 -0.1289062,1.0078125 -0.023437,1.3710937 0.1875,0.65625 0.7148438,0.984375 1.6289063,0.984375 1.2773437,0 2.296875,-0.5625 3.0117187,-1.7226562 0.3867188,-0.6210938 0.6796875,-1.4765625 0.9140625,-2.5546875 l 1.1601572,-5.4140622 h 1.851562 l -2.34375,11.02734344 H 8.4478233 L 8.7993858,-1.6300908 c -0.328125,0.421875 -0.6914062,0.78515624 -1.1132812,1.07812499 -0.84375,0.57421875 -1.7578125,0.8671875 -2.765625,0.8671875 -1.5820313,0 -2.53125,-0.52734375 -2.8710938,-1.58203129 -0.1875,-0.5742187 -0.1875,-1.3125 0,-2.2617187 l 1.6054688,-7.4999997 z m 0,0"
       style="fill:#000000;fill-opacity:1;fill-rule:nonzero;stroke:none"
       aria-label="u"
       transform="matrix(1.3333333,0,0,1.3333333,667.41983,160.58361)" />
    <path
       id="path64"
       d="m 6.8775108,-7.4543097 c 0.2226563,0.1640625 0.4101563,0.4101563 0.5976563,0.7265625 l 0.2226562,-0.984375 h 1.1953125 l -1.5,7.08984376 c -0.2109375,0.97265625 -0.515625,1.76953124 -0.9375,2.33203124 -0.7734375,1.0546875 -1.8984375,1.59375 -3.4101562,1.59375 -0.84375,0 -1.5,-0.1992187 -1.9921875,-0.5625 C 0.56110456,2.3660028 0.35016706,1.7683466 0.45563581,0.97147156 H 1.8032921 c -0.023437,0.35156254 0.058594,0.62109374 0.1992187,0.80859374 0.234375,0.2929688 0.6796875,0.4335938 1.3007813,0.4335938 1.0078125,0 1.7460937,-0.3515625 2.203125,-1.0546875 0.2695312,-0.41015629 0.5039062,-1.16015629 0.7148437,-2.2265625 -0.3398437,0.38671871 -0.7148437,0.67968746 -1.1132812,0.86718746 -0.421875,0.19921875 -0.9257813,0.3046875 -1.5351563,0.3046875 -0.8320312,0 -1.5234375,-0.3046875 -2.0273437,-0.890625 C 1.0415733,-1.3957159 0.93610456,-2.3800909 1.2290733,-3.7629034 c 0.2929688,-1.3007813 0.8085938,-2.3203125 1.6171875,-3.0585938 0.7851563,-0.7265625 1.6289063,-1.1015625 2.5195313,-1.1015625 0.6210937,0 1.125,0.1523438 1.5117187,0.46875 z m -1.5117187,0.6914063 c -0.9140625,0 -1.6289063,0.4335937 -2.15625,1.3007812 -0.28125,0.4570313 -0.5039063,1.0546875 -0.65625,1.8046875 -0.1875,0.8789063 -0.140625,1.546875 0.1054687,2.0039063 0.2578125,0.4570312 0.6914063,0.67968746 1.3007813,0.67968746 0.9375,0 1.6757812,-0.41015626 2.25,-1.26562496 0.3046875,-0.4804688 0.5273437,-1.03125 0.6679687,-1.6757813 0.2109375,-0.9726562 0.1640625,-1.6875 -0.140625,-2.1445312 -0.2929687,-0.4570313 -0.75,-0.703125 -1.3710937,-0.703125 z m 0,0"
       style="fill:#000000;fill-opacity:1;fill-rule:nonzero;stroke:none"
       aria-label="g"
       transform="matrix(1.3333333,0,0,1.3333333,682.98233,165.81017)" />
    <path
       id="path65"
       d="m 485.934,100.539 0.765,0.996 0.567,1.156 0.336,1.274 0.074,1.336 -0.192,1.328 -0.449,1.262 -0.683,1.129 -0.872,0.953 -1.019,0.742 -1.109,0.512 -1.149,0.285 -1.133,0.078 -1.074,-0.11 -0.976,-0.253 -0.844,-0.36 -0.688,-0.426 -0.511,-0.453 -0.317,-0.445 -0.117,-0.414 0.082,-0.359 0.281,-0.286 0.465,-0.195 0.629,-0.082 0.766,0.039 0.859,0.184 0.918,0.34 0.922,0.515 0.875,0.695 0.777,0.872 0.621,1.035 0.426,1.172 0.191,1.265 -0.066,1.313 -0.332,1.289 -0.586,1.211 -0.809,1.066 -0.996,0.875 -1.128,0.649 -1.2,0.402 -1.222,0.152 -1.192,-0.078 -1.113,-0.281 -1,-0.442 -0.863,-0.558 -0.703,-0.621 -0.54,-0.637 -0.363,-0.613 -0.187,-0.551 -0.008,-0.457 0.164,-0.34 0.328,-0.203 0.473,-0.055 0.593,0.102 0.688,0.265 0.738,0.43 0.746,0.598 0.703,0.765 0.614,0.918 0.465,1.059 0.277,1.168 0.047,1.234 -0.199,1.258 -0.457,1.223 -0.704,1.129 -0.921,0.972 -1.098,0.778 -1.219,0.535 -1.273,0.277 -1.278,0.02 -1.218,-0.227 -1.118,-0.441 -0.984,-0.613 -0.824,-0.743 -0.656,-0.808 -0.485,-0.832 -0.324,-0.801 -0.164,-0.723 -0.016,-0.613 0.121,-0.469 0.246,-0.301 0.352,-0.121 0.445,0.067 0.512,0.258 0.547,0.441 0.551,0.621 0.508,0.785 0.421,0.93 0.293,1.051 0.118,1.136 -0.094,1.188 -0.324,1.184 -0.571,1.132 -0.8,1.02 -1.008,0.859 -1.172,0.653 -1.278,0.406 -1.328,0.14 -1.308,-0.117 -1.227,-0.371 -1.101,-0.59 -0.938,-0.765 -0.754,-0.895 -0.562,-0.969 -0.375,-0.992 -0.207,-0.961 -0.055,-0.886 0.07,-0.77 0.176,-0.617 0.258,-0.442 0.324,-0.246 0.363,-0.043 0.391,0.168 0.395,0.375 0.371,0.563 0.316,0.734 0.231,0.883 0.109,0.996 -0.051,1.074 -0.234,1.11 -0.449,1.09 -0.665,1.023 -0.874,0.902 -1.067,0.727 -1.215,0.512 -1.312,0.265 h -1.344 l -1.312,-0.265 -1.215,-0.512 -1.067,-0.727 -0.875,-0.902 -0.664,-1.023 -0.449,-1.09 -0.238,-1.11 -0.047,-1.074 0.109,-0.996 0.231,-0.883 0.316,-0.734 0.371,-0.563 0.395,-0.375 0.39,-0.168 0.364,0.043 0.324,0.246 0.258,0.442 0.175,0.617 0.071,0.77 -0.055,0.886 -0.207,0.961 -0.375,0.992 -0.562,0.969 -0.754,0.895 -0.938,0.765 -1.101,0.59 -1.227,0.371 -1.309,0.117 -1.328,-0.14 -1.277,-0.406 -1.172,-0.653 -1.008,-0.859 -0.801,-1.02 -0.57,-1.132 -0.324,-1.184 -0.094,-1.188 0.117,-1.136 0.293,-1.051 0.422,-0.93 0.508,-0.785 0.551,-0.621 0.547,-0.441 0.511,-0.258 0.446,-0.067 0.351,0.121 0.246,0.301 0.121,0.469 -0.019,0.613 -0.16,0.723 -0.324,0.801 -0.485,0.832 -0.656,0.808 -0.824,0.743 -0.985,0.613 -1.117,0.441 -1.219,0.227 -1.277,-0.02 -1.273,-0.277 -1.219,-0.535 -1.098,-0.778 -0.922,-0.972 -0.703,-1.129 -0.457,-1.223 -0.199,-1.258 0.047,-1.234 0.277,-1.168 0.465,-1.059 0.613,-0.918 0.703,-0.765 0.746,-0.598 0.739,-0.43 0.687,-0.265 0.594,-0.102 0.473,0.055 0.328,0.203 0.164,0.34 -0.008,0.457 -0.187,0.551 -0.364,0.613 -0.539,0.637 -0.703,0.621 -0.863,0.558 -1.004,0.442 -1.109,0.281 -1.192,0.078 -1.223,-0.152 -1.203,-0.402 -1.125,-0.649 -0.996,-0.875 -0.808,-1.066 -0.586,-1.211 -0.332,-1.289 -0.067,-1.313 0.192,-1.265 0.425,-1.172 0.622,-1.035 0.777,-0.872 0.875,-0.695 0.922,-0.515 0.918,-0.34 0.859,-0.184 0.766,-0.039 0.629,0.082 0.465,0.195 0.281,0.286 0.082,0.359 -0.117,0.414 -0.317,0.445 -0.512,0.453 -0.687,0.426 -0.844,0.36 -0.976,0.253 -1.075,0.11 -1.132,-0.078 -1.149,-0.285 -1.109,-0.512 -1.02,-0.742 -0.871,-0.953 -0.683,-1.129 -0.45,-1.262 -0.191,-1.328 0.074,-1.336 0.336,-1.274 0.567,-1.156 0.765,-0.996"
       style="fill:none;stroke:#000000;stroke-width:0.9216;stroke-linecap:square;stroke-linejoin:miter;stroke-miterlimit:3.25;stroke-dasharray:none;stroke-opacity:1"
       transform="scale(1.3333333)" />
    <path
       id="path66"
       d="m 9.7627523,-10.581295 c 0.3164067,0.234375 0.5859377,0.5976561 0.8437497,1.0312499 l 0.316407,-1.3828129 h 1.710937 L 10.501034,-0.88988887 C 10.196346,0.50464238 9.7627523,1.6296424 9.1650961,2.4265174 c -1.1015625,1.5 -2.7070313,2.2617187 -4.8398438,2.2617187 -1.1953125,0 -2.1328125,-0.2695312 -2.8242187,-0.796875 C 0.79790856,3.3640174 0.50493981,2.5085486 0.65728356,1.3718299 H 2.5557211 c -0.023437,0.5039062 0.082031,0.890625 0.2929687,1.1601562 0.3164063,0.3984375 0.9492188,0.609375 1.8398438,0.609375 1.4414062,0 2.4726562,-0.5039062 3.1289062,-1.4882812 0.375,-0.5976563 0.7148438,-1.652343775 1.0078125,-3.1757813 -0.4804687,0.55078128 -1.0078125,0.97265628 -1.5820312,1.25390628 -0.5859375,0.269531245 -1.3125,0.421875 -2.1796875,0.421875 -1.171875,0 -2.1445313,-0.421875 -2.8710938,-1.27734378 -0.7148437,-0.8554687 -0.8554687,-2.25 -0.4335937,-4.21875 0.3984375,-1.8398437 1.1367187,-3.2929687 2.2734375,-4.3242187 1.125,-1.0429684 2.3203125,-1.5703124 3.5976562,-1.5703124 0.8554688,0 1.5820313,0.210937 2.1328125,0.65625 z m -2.1328125,0.9960936 c -1.3125,0 -2.3320312,0.609375 -3.0703125,1.8398438 -0.3984375,0.65625 -0.7148437,1.5 -0.9257812,2.5546875 -0.2695313,1.2421875 -0.2109375,2.1914062 0.1523437,2.8476562 0.3515625,0.65625 0.9609375,0.9726563 1.828125,0.9726563 1.3359375,0 2.390625,-0.5976563 3.1875,-1.7929688 0.4453125,-0.703125 0.7617188,-1.4765625 0.9609375,-2.390625 0.2929687,-1.3710937 0.2226563,-2.390625 -0.1992187,-3.0351562 -0.421875,-0.65625 -1.078125,-0.9960938 -1.9335938,-0.9960938 z m 0,0"
       style="fill:#000000;fill-opacity:1;fill-rule:nonzero;stroke:none"
       aria-label="g"
       transform="matrix(1.3333333,0,0,1.3333333,594.85409,215.89746)" />
    <path
       id="path67"
       d="m 435.664,71.215 c -11.203,5.269 -17.906,16.996 -16.754,29.324"
       style="fill:none;stroke:#000000;stroke-width:0.9216;stroke-linecap:butt;stroke-linejoin:miter;stroke-miterlimit:3.25;stroke-dasharray:0.9216, 5.5296;stroke-dashoffset:0;stroke-opacity:1"
       transform="scale(1.3333333)" />
    <path
       id="path68"
       d="m 425.148,78.863 -7.898,7.067 5.82,3.328 z"
       style="fill:#000000;fill-opacity:1;fill-rule:evenodd;stroke:none"
       transform="scale(1.3333333)" />
    <path
       id="path69"
       d="m 5.5545255,-11.02686 -1.5585937,7.3359373 c -0.1289063,0.5507812 -0.1289063,1.0078125 -0.023437,1.3710937 0.1875,0.65625 0.7148437,0.984375 1.6289062,0.984375 1.2773438,0 2.296875,-0.5625 3.0117188,-1.7226562 0.3867182,-0.6210938 0.679687,-1.4765625 0.914062,-2.5546875 L 10.687338,-11.02686 h 1.851563 L 10.195151,4.835e-4 H 8.4490568 l 0.3515625,-1.6289062 c -0.328125,0.421875 -0.6914063,0.7851562 -1.1132813,1.07812495 -0.84375,0.57421875 -1.7578125,0.8671875 -2.765625,0.8671875 -1.5820312,0 -2.53125,-0.52734375 -2.8710937,-1.58203125 -0.1875,-0.5742187 -0.1875,-1.3125 0,-2.2617187 L 3.656088,-11.02686 Z m 0,0"
       style="fill:#000000;fill-opacity:1;fill-rule:nonzero;stroke:none"
       aria-label="u"
       transform="matrix(1.3333333,0,0,1.3333333,527.25022,98.155605)" />
    <path
       id="path70"
       d="m 6.8787443,-7.4526416 c 0.2226562,0.1640625 0.4101562,0.4101562 0.5976562,0.7265625 l 0.2226563,-0.984375 h 1.1953125 l -1.5,7.08984372 c -0.2109375,0.97265625 -0.515625,1.76953128 -0.9375,2.33203128 -0.7734375,1.0546875 -1.8984375,1.59375 -3.4101563,1.59375 -0.84375,0 -1.5,-0.1992188 -1.9921875,-0.5625 C 0.562338,2.3676709 0.3514005,1.7700146 0.45686925,0.97313962 H 1.8045255 C 1.781088,1.3247021 1.8631193,1.5942334 2.0037443,1.7817334 c 0.234375,0.2929687 0.6796875,0.4335937 1.3007812,0.4335937 1.0078125,0 1.7460938,-0.3515625 2.203125,-1.0546875 C 5.7771818,0.75048337 6.0115568,4.83375e-4 6.2224943,-1.0659229 5.8826505,-0.67920413 5.5076505,-0.38623538 5.109213,-0.19873538 4.687338,4.83375e-4 4.1834318,0.10595212 3.5740568,0.10595212 c -0.8320313,0 -1.5234375,-0.3046875 -2.0273438,-0.890625 C 1.0428068,-1.3940479 0.937338,-2.3784229 1.2303068,-3.7612354 c 0.2929687,-1.3007812 0.8085937,-2.3203125 1.6171875,-3.0585937 0.7851562,-0.7265625 1.6289062,-1.1015625 2.5195312,-1.1015625 0.6210938,0 1.125,0.1523437 1.5117188,0.46875 z m -1.5117188,0.6914062 c -0.9140625,0 -1.6289062,0.4335938 -2.15625,1.3007813 -0.28125,0.4570312 -0.5039062,1.0546875 -0.65625,1.8046875 -0.1875,0.8789062 -0.140625,1.546875 0.1054688,2.0039062 0.2578125,0.4570313 0.6914062,0.67968752 1.3007812,0.67968752 0.9375,0 1.6757813,-0.41015622 2.25,-1.26562502 0.3046875,-0.4804687 0.5273438,-1.03125 0.6679688,-1.6757812 0.2109375,-0.9726563 0.1640625,-1.6875 -0.140625,-2.1445313 -0.2929688,-0.4570312 -0.75,-0.703125 -1.3710938,-0.703125 z m 0,0"
       style="fill:#000000;fill-opacity:1;fill-rule:nonzero;stroke:none"
       aria-label="g"
       transform="matrix(1.3333333,0,0,1.3333333,542.81272,103.38217)" />
    <path
       id="path71"
       d="m 469.18,71.215 c -1.153,-5.113 -4.571,-9.418 -9.289,-11.695 -4.719,-2.282 -10.219,-2.282 -14.938,0 -4.719,2.277 -8.137,6.582 -9.289,11.695"
       style="fill:none;stroke:#000000;stroke-width:0.9216;stroke-linecap:butt;stroke-linejoin:miter;stroke-miterlimit:3.25;stroke-dasharray:0.9216, 5.5296;stroke-dashoffset:0;stroke-opacity:1"
       transform="scale(1.3333333)" />
    <path
       id="path72"
       d="M 457.449,57.809 447.395,54.457 V 61.16 Z"
       style="fill:#000000;fill-opacity:1;fill-rule:evenodd;stroke:none"
       transform="scale(1.3333333)" />
    <path
       id="path73"
       d="m 5.5540807,-11.027116 -1.5585938,7.3359376 c -0.1289062,0.5507813 -0.1289062,1.0078125 -0.023437,1.3710938 0.1875,0.65625 0.7148438,0.984375 1.6289063,0.984375 1.2773437,0 2.296875,-0.5625 3.0117187,-1.7226563 0.3867188,-0.6210937 0.6796875,-1.4765625 0.9140625,-2.5546875 l 1.1601566,-5.4140626 h 1.851563 L 10.194706,2.27875e-4 H 8.4486119 L 8.8001744,-1.6286784 c -0.328125,0.421875 -0.6914062,0.78515628 -1.1132812,1.07812503 -0.84375,0.57421875 -1.7578125,0.8671875 -2.765625,0.8671875 -1.5820313,0 -2.53125,-0.52734375 -2.8710938,-1.58203123 -0.1875,-0.5742188 -0.1875,-1.3125 0,-2.2617188 l 1.6054688,-7.5000001 z m 0,0"
       style="fill:#000000;fill-opacity:1;fill-rule:nonzero;stroke:none"
       aria-label="u"
       transform="matrix(1.3333333,0,0,1.3333333,589.22347,55.538759)" />
    <path
       id="path74"
       d="m 6.8782994,-7.4528972 c 0.2226563,0.1640625 0.4101563,0.4101562 0.5976563,0.7265625 l 0.2226562,-0.984375 h 1.1953125 l -1.5,7.0898437 c -0.2109375,0.97265625 -0.515625,1.7695313 -0.9375,2.3320313 -0.7734375,1.0546875 -1.8984375,1.59375 -3.4101562,1.59375 -0.84375,0 -1.5,-0.1992188 -1.9921875,-0.5625 C 0.56189319,2.3674153 0.35095569,1.769759 0.45642444,0.972884 H 1.8040807 c -0.023437,0.3515625 0.058594,0.6210938 0.1992187,0.8085938 0.234375,0.2929687 0.6796875,0.4335937 1.3007813,0.4335937 1.0078125,0 1.7460937,-0.3515625 2.203125,-1.0546875 C 5.7767369,0.75022775 6.0111119,2.2775e-4 6.2220494,-1.0661785 5.8822057,-0.67945975 5.5072057,-0.386491 5.1087682,-0.198991 4.6868932,2.2775e-4 4.1829869,0.1056965 3.5736119,0.1056965 c -0.8320312,0 -1.5234375,-0.3046875 -2.0273437,-0.890625 -0.5039063,-0.609375 -0.60937501,-1.59375 -0.3164063,-2.9765625 0.2929688,-1.3007812 0.8085938,-2.3203125 1.6171875,-3.0585937 0.7851563,-0.7265625 1.6289063,-1.1015625 2.5195313,-1.1015625 0.6210937,0 1.125,0.1523437 1.5117187,0.46875 z M 5.3665807,-6.761491 c -0.9140625,0 -1.6289063,0.4335938 -2.15625,1.3007813 -0.28125,0.4570312 -0.5039063,1.0546875 -0.65625,1.8046875 -0.1875,0.8789062 -0.140625,1.546875 0.1054687,2.0039062 0.2578125,0.4570313 0.6914063,0.6796875 1.3007813,0.6796875 0.9375,0 1.6757812,-0.4101562 2.25,-1.265625 0.3046875,-0.4804687 0.5273437,-1.03125 0.6679687,-1.6757812 0.2109375,-0.9726563 0.1640625,-1.6875 -0.140625,-2.1445313 -0.2929687,-0.4570312 -0.75,-0.703125 -1.3710937,-0.703125 z m 0,0"
       style="fill:#000000;fill-opacity:1;fill-rule:nonzero;stroke:none"
       aria-label="g"
       transform="matrix(1.3333333,0,0,1.3333333,604.78597,60.765321)" />
    <path
       id="path75"
       d="m 435.664,71.215 -0.602,1.277 -0.23,1.457 0.191,1.516 0.61,1.43 0.972,1.207 1.235,0.875 1.379,0.472 1.398,0.067 1.313,-0.309 1.156,-0.598 0.969,-0.8 0.761,-0.891 0.567,-0.895 0.371,-0.808 0.18,-0.668 -0.02,-0.488 -0.223,-0.289 -0.425,-0.09 -0.625,0.105 -0.786,0.289 -0.89,0.481 -0.926,0.672 -0.867,0.882 -0.703,1.082 -0.442,1.258 -0.093,1.379 0.308,1.41 0.719,1.313 1.086,1.097 1.351,0.766 1.497,0.367 1.488,-0.062 1.355,-0.457 1.129,-0.789 0.852,-1.02 0.574,-1.148 0.324,-1.18 0.121,-1.125 -0.027,-0.988 -0.137,-0.797 -0.219,-0.563 -0.296,-0.293 -0.371,-0.015 -0.446,0.258 -0.508,0.511 -0.531,0.746 -0.504,0.953 -0.394,1.122 -0.203,1.242 0.074,1.308 0.414,1.293 0.777,1.168 1.125,0.942 1.391,0.613 1.539,0.215 1.539,-0.215 1.391,-0.613 1.125,-0.942 0.777,-1.168 0.414,-1.293 0.074,-1.308 -0.203,-1.242 -0.394,-1.122 -0.504,-0.953 -0.532,-0.746 -0.507,-0.511 -0.446,-0.258 -0.371,0.015 -0.297,0.293 -0.218,0.563 -0.137,0.797 -0.028,0.988 0.122,1.125 0.324,1.18 0.574,1.148 0.852,1.02 1.128,0.789 1.356,0.457 1.488,0.062 1.496,-0.367 1.352,-0.766 1.086,-1.097 0.719,-1.313 0.308,-1.41 -0.094,-1.379 -0.441,-1.258 -0.703,-1.082 -0.867,-0.882 -0.926,-0.672 -0.891,-0.481 -0.785,-0.289 -0.625,-0.105 -0.43,0.09 -0.218,0.289 -0.02,0.488 0.18,0.668 0.371,0.808 0.566,0.895 0.762,0.891 0.969,0.8 1.156,0.598 1.313,0.309 1.398,-0.067 1.379,-0.472 1.234,-0.875 0.973,-1.207 0.609,-1.43 0.192,-1.516 -0.231,-1.457 -0.601,-1.277"
       style="fill:none;stroke:#000000;stroke-width:0.9216;stroke-linecap:square;stroke-linejoin:miter;stroke-miterlimit:3.25;stroke-dasharray:none;stroke-opacity:1"
       transform="scale(1.3333333)" />
    <path
       id="path76"
       d="m 9.7627523,-10.582639 c 0.3164067,0.234375 0.5859377,0.5976559 0.8437497,1.0312497 l 0.316407,-1.3828127 h 1.710937 L 10.501034,-0.89123306 C 10.196346,0.50329819 9.7627523,1.6282982 9.1650961,2.4251732 c -1.1015625,1.5 -2.7070313,2.2617187 -4.8398438,2.2617187 -1.1953125,0 -2.1328125,-0.2695312 -2.8242187,-0.796875 C 0.79790856,3.3626732 0.50493981,2.5072044 0.65728356,1.3704857 H 2.5557211 c -0.023437,0.5039062 0.082031,0.890625 0.2929687,1.1601562 0.3164063,0.3984375 0.9492188,0.609375 1.8398438,0.609375 1.4414062,0 2.4726562,-0.5039062 3.1289062,-1.4882812 0.375,-0.5976563 0.7148438,-1.6523437625 1.0078125,-3.1757813 -0.4804687,0.55078129 -1.0078125,0.97265629 -1.5820312,1.25390629 -0.5859375,0.2695312475 -1.3125,0.421875 -2.1796875,0.421875 -1.171875,0 -2.1445313,-0.421875 -2.8710938,-1.27734379 -0.7148437,-0.8554687 -0.8554687,-2.25 -0.4335937,-4.21875 0.3984375,-1.8398437 1.1367187,-3.2929687 2.2734375,-4.3242187 1.125,-1.0429692 2.3203125,-1.5703122 3.5976562,-1.5703122 0.8554688,0 1.5820313,0.210937 2.1328125,0.65625 z m -2.1328125,0.9960934 c -1.3125,0 -2.3320312,0.609375 -3.0703125,1.8398438 -0.3984375,0.65625 -0.7148437,1.5 -0.9257812,2.5546875 -0.2695313,1.2421875 -0.2109375,2.1914062 0.1523437,2.8476562 0.3515625,0.65625 0.9609375,0.9726563 1.828125,0.9726563 1.3359375,0 2.390625,-0.5976563 3.1875,-1.7929688 0.4453125,-0.703125 0.7617188,-1.4765625 0.9609375,-2.390625 0.2929687,-1.3710937 0.2226563,-2.390625 -0.1992187,-3.0351562 -0.421875,-0.65625 -1.078125,-0.9960938 -1.9335938,-0.9960938 z m 0,0"
       style="fill:#000000;fill-opacity:1;fill-rule:nonzero;stroke:none"
       aria-label="g"
       transform="matrix(1.3333333,0,0,1.3333333,594.85409,149.98909)" />
    <path
       id="path77"
       d="M 485.934,100.539 C 486.945,88.238 480.285,76.586 469.18,71.215"
       style="fill:none;stroke:#000000;stroke-width:0.9216;stroke-linecap:butt;stroke-linejoin:miter;stroke-miterlimit:3.25;stroke-dasharray:0.9216, 5.5296;stroke-dashoffset:0;stroke-opacity:1"
       transform="scale(1.3333333)" />
    <path
       id="path78"
       d="m 484.594,87.645 -2.078,-10.395 -5.817,3.328 z"
       style="fill:#000000;fill-opacity:1;fill-rule:evenodd;stroke:none"
       transform="scale(1.3333333)" />
    <path
       id="path79"
       d="m 5.5537152,-11.027325 -1.5585937,7.3359379 c -0.1289063,0.5507813 -0.1289063,1.0078125 -0.023437,1.3710938 0.1875,0.65625 0.7148437,0.984375 1.6289062,0.984375 1.2773438,0 2.296875,-0.5625 3.0117188,-1.7226563 0.3867187,-0.6210937 0.6796875,-1.4765625 0.9140625,-2.5546875 l 1.160156,-5.4140629 H 12.53809 L 10.19434,1.91875e-5 H 8.4482465 L 8.799809,-1.6288871 c -0.328125,0.421875 -0.6914063,0.78515629 -1.1132813,1.07812504 -0.84375,0.57421875 -1.7578125,0.8671875 -2.765625,0.8671875 -1.5820312,0 -2.53125,-0.52734375 -2.8710937,-1.58203124 -0.1875,-0.5742188 -0.1875,-1.3125 0,-2.2617188 l 1.6054687,-7.5000004 z m 0,0"
       style="fill:#000000;fill-opacity:1;fill-rule:nonzero;stroke:none"
       aria-label="u"
       transform="matrix(1.3333333,0,0,1.3333333,651.07942,98.222631)" />
    <path
       id="path80"
       d="m 6.877934,-7.4531059 c 0.2226563,0.1640625 0.4101563,0.4101562 0.5976563,0.7265625 l 0.2226562,-0.984375 H 8.893559 l -1.5,7.08984371 C 7.1826215,0.35158156 6.877934,1.1484566 6.456059,1.7109566 c -0.7734375,1.0546875 -1.8984375,1.59375 -3.4101562,1.59375 -0.84375,0 -1.5,-0.1992188 -1.9921875,-0.5625 C 0.56152775,2.3672066 0.35059025,1.7695503 0.456059,0.97267531 H 1.8037153 C 1.7802778,1.3242378 1.862309,1.5937691 2.002934,1.7812691 c 0.234375,0.2929687 0.6796875,0.4335937 1.3007813,0.4335937 1.0078125,0 1.7460937,-0.3515625 2.203125,-1.0546875 C 5.7763715,0.75001906 6.0107465,1.90625e-5 6.221684,-1.0663872 5.8818403,-0.67966844 5.5068403,-0.38669969 5.1084028,-0.19919969 4.6865278,1.90625e-5 4.1826215,0.10548781 3.5732465,0.10548781 c -0.8320312,0 -1.5234375,-0.3046875 -2.0273437,-0.890625 C 1.0419965,-1.3945122 0.93652775,-2.3788872 1.2294965,-3.7616997 1.5224653,-5.0624809 2.0380903,-6.0820122 2.846684,-6.8202934 c 0.7851563,-0.7265625 1.6289063,-1.1015625 2.5195313,-1.1015625 0.6210937,0 1.125,0.1523437 1.5117187,0.46875 z m -1.5117187,0.6914062 c -0.9140625,0 -1.6289063,0.4335938 -2.15625,1.3007813 -0.28125,0.4570312 -0.5039063,1.0546875 -0.65625,1.8046875 -0.1875,0.8789062 -0.140625,1.546875 0.1054687,2.0039062 0.2578125,0.4570313 0.6914063,0.67968751 1.3007813,0.67968751 0.9375,0 1.6757812,-0.41015621 2.25,-1.26562501 0.3046875,-0.4804687 0.5273437,-1.03125 0.6679687,-1.6757812 0.2109375,-0.9726563 0.1640625,-1.6875 -0.140625,-2.1445313 -0.2929687,-0.4570312 -0.75,-0.703125 -1.3710937,-0.703125 z m 0,0"
       style="fill:#000000;fill-opacity:1;fill-rule:nonzero;stroke:none"
       aria-label="g"
       transform="matrix(1.3333333,0,0,1.3333333,666.64192,103.44919)" />
    <path
       id="path81"
       d="m 472.863,71.215 c 0,0.976 -0.386,1.914 -1.078,2.605 -0.691,0.692 -1.629,1.082 -2.605,1.082 -0.981,0 -1.918,-0.39 -2.61,-1.082 -0.691,-0.691 -1.078,-1.629 -1.078,-2.605 0,-0.977 0.387,-1.914 1.078,-2.606 0.692,-0.691 1.629,-1.082 2.61,-1.082 0.976,0 1.914,0.391 2.605,1.082 0.692,0.692 1.078,1.629 1.078,2.606 z"
       style="fill:#000000;fill-opacity:1;fill-rule:evenodd;stroke:none"
       transform="scale(1.3333333)" />
    <path
       id="path82"
       d="m 439.352,71.215 c 0,0.976 -0.387,1.914 -1.079,2.605 -0.691,0.692 -1.628,1.082 -2.609,1.082 -0.976,0 -1.914,-0.39 -2.605,-1.082 -0.692,-0.691 -1.079,-1.629 -1.079,-2.605 0,-0.977 0.387,-1.914 1.079,-2.606 0.691,-0.691 1.629,-1.082 2.605,-1.082 0.981,0 1.918,0.391 2.609,1.082 0.692,0.692 1.079,1.629 1.079,2.606 z"
       style="fill:#000000;fill-opacity:1;fill-rule:evenodd;stroke:none"
       transform="scale(1.3333333)" />
    <path
       id="path83"
       d="m 422.594,100.539 c 0,0.977 -0.387,1.914 -1.078,2.606 -0.692,0.691 -1.629,1.078 -2.606,1.078 -0.98,0 -1.918,-0.387 -2.609,-1.078 -0.692,-0.692 -1.078,-1.629 -1.078,-2.606 0,-0.98 0.386,-1.918 1.078,-2.609 0.691,-0.692 1.629,-1.078 2.609,-1.078 0.977,0 1.914,0.386 2.606,1.078 0.691,0.691 1.078,1.629 1.078,2.609 z"
       style="fill:#000000;fill-opacity:1;fill-rule:evenodd;stroke:none"
       transform="scale(1.3333333)" />
    <path
       id="path84"
       d="m 489.621,100.539 c 0,0.977 -0.387,1.914 -1.078,2.606 -0.691,0.691 -1.629,1.078 -2.609,1.078 -0.977,0 -1.914,-0.387 -2.606,-1.078 -0.691,-0.692 -1.078,-1.629 -1.078,-2.606 0,-0.98 0.387,-1.918 1.078,-2.609 0.692,-0.692 1.629,-1.078 2.606,-1.078 0.98,0 1.918,0.386 2.609,1.078 0.691,0.691 1.078,1.629 1.078,2.609 z"
       style="fill:#000000;fill-opacity:1;fill-rule:evenodd;stroke:none"
       transform="scale(1.3333333)" />
    <path
       id="path85"
       d="M 552.961,100.539 H 603.23"
       style="fill:none;stroke:#000000;stroke-width:0.9216;stroke-linecap:butt;stroke-linejoin:miter;stroke-miterlimit:3.25;stroke-dasharray:0.9216, 5.5296;stroke-dashoffset:0;stroke-opacity:1"
       transform="scale(1.3333333)" />
    <path
       id="path86"
       d="m 583.121,100.539 -10.055,3.352 v -6.703 z"
       style="fill:#000000;fill-opacity:1;fill-rule:evenodd;stroke:none"
       transform="scale(1.3333333)" />
    <path
       id="path87"
       d="m 5.5532277,-11.028528 -1.5585938,7.3359372 c -0.1289062,0.5507812 -0.1289062,1.0078125 -0.023437,1.3710937 0.1875,0.65625 0.7148438,0.984375 1.6289063,0.984375 1.2773437,0 2.296875,-0.5625 3.0117187,-1.7226562 0.3867188,-0.6210938 0.6796875,-1.4765625 0.9140625,-2.5546875 L 10.68604,-11.028528 h 1.851563 l -2.34375,11.02734344 H 8.4477589 L 8.7993214,-1.6300908 c -0.328125,0.421875 -0.6914062,0.78515624 -1.1132812,1.07812499 -0.84375,0.57421875 -1.7578125,0.8671875 -2.765625,0.8671875 -1.5820313,0 -2.53125,-0.52734375 -2.8710938,-1.58203129 -0.1875,-0.5742187 -0.1875,-1.3125 0,-2.2617187 l 1.6054688,-7.4999997 z m 0,0"
       style="fill:#000000;fill-opacity:1;fill-rule:nonzero;stroke:none"
       aria-label="u"
       transform="matrix(1.3333333,0,0,1.3333333,756.7871,160.58361)" />
    <path
       id="path88"
       d="m 6.8774464,-7.4543097 c 0.2226563,0.1640625 0.4101563,0.4101563 0.5976563,0.7265625 l 0.2226562,-0.984375 h 1.1953125 l -1.5,7.08984376 c -0.2109375,0.97265625 -0.515625,1.76953124 -0.9375,2.33203124 -0.7734375,1.0546875 -1.8984375,1.59375 -3.4101562,1.59375 -0.84375,0 -1.5,-0.1992187 -1.9921875,-0.5625 C 0.56104019,2.3660028 0.35010269,1.7683466 0.45557144,0.97147156 H 1.8032277 c -0.023437,0.35156254 0.058594,0.62109374 0.1992187,0.80859374 0.234375,0.2929688 0.6796875,0.4335938 1.3007813,0.4335938 1.0078125,0 1.7460937,-0.3515625 2.203125,-1.0546875 0.2695312,-0.41015629 0.5039062,-1.16015629 0.7148437,-2.2265625 -0.3398437,0.38671871 -0.7148437,0.67968746 -1.1132812,0.86718746 -0.421875,0.19921875 -0.9257813,0.3046875 -1.5351563,0.3046875 -0.8320312,0 -1.5234375,-0.3046875 -2.0273437,-0.890625 C 1.0415089,-1.3957159 0.93604019,-2.3800909 1.2290089,-3.7629034 c 0.2929688,-1.3007813 0.8085938,-2.3203125 1.6171875,-3.0585938 0.7851563,-0.7265625 1.6289063,-1.1015625 2.5195313,-1.1015625 0.6210937,0 1.125,0.1523438 1.5117187,0.46875 z m -1.5117187,0.6914063 c -0.9140625,0 -1.6289063,0.4335937 -2.15625,1.3007812 -0.28125,0.4570313 -0.5039063,1.0546875 -0.65625,1.8046875 -0.1875,0.8789063 -0.140625,1.546875 0.1054687,2.0039063 0.2578125,0.4570312 0.6914063,0.67968746 1.3007813,0.67968746 0.9375,0 1.6757812,-0.41015626 2.25,-1.26562496 0.3046875,-0.4804688 0.5273437,-1.03125 0.6679687,-1.6757813 0.2109375,-0.9726562 0.1640625,-1.6875 -0.140625,-2.1445312 -0.2929687,-0.4570313 -0.75,-0.703125 -1.3710937,-0.703125 z m 0,0"
       style="fill:#000000;fill-opacity:1;fill-rule:nonzero;stroke:none"
       aria-label="g"
       transform="matrix(1.3333333,0,0,1.3333333,772.3496,165.81017)" />
    <path
       id="path89"
       d="M 720.523,100.539 H 670.254"
       style="fill:none;stroke:#000000;stroke-width:0.9216;stroke-linecap:butt;stroke-linejoin:miter;stroke-miterlimit:3.25;stroke-dasharray:0.9216, 5.5296;stroke-dashoffset:0;stroke-opacity:1"
       transform="scale(1.3333333)" />
    <path
       id="path90"
       d="m 700.414,100.539 -10.051,-3.351 v 6.703 z"
       style="fill:#000000;fill-opacity:1;fill-rule:evenodd;stroke:none"
       transform="scale(1.3333333)" />
    <path
       id="path91"
       d="m 5.5545811,-11.028528 -1.5585937,7.3359372 c -0.1289063,0.5507812 -0.1289063,1.0078125 -0.023437,1.3710937 0.1875,0.65625 0.7148437,0.984375 1.6289062,0.984375 1.2773438,0 2.296875,-0.5625 3.0117188,-1.7226562 0.3867187,-0.6210938 0.6796875,-1.4765625 0.9140625,-2.5546875 l 1.1601571,-5.4140622 h 1.851561 l -2.34375,11.02734344 H 8.4491124 L 8.8006749,-1.6300908 c -0.328125,0.421875 -0.6914063,0.78515624 -1.1132813,1.07812499 -0.84375,0.57421875 -1.7578125,0.8671875 -2.765625,0.8671875 -1.5820312,0 -2.53125,-0.52734375 -2.8710937,-1.58203129 -0.1875,-0.5742187 -0.1875,-1.3125 0,-2.2617187 l 1.6054687,-7.4999997 z m 0,0"
       style="fill:#000000;fill-opacity:1;fill-rule:nonzero;stroke:none"
       aria-label="u"
       transform="matrix(1.3333333,0,0,1.3333333,913.17983,160.58361)" />
    <path
       id="path92"
       d="m 6.8787999,-7.4543097 c 0.2226562,0.1640625 0.4101562,0.4101563 0.5976562,0.7265625 l 0.2226563,-0.984375 h 1.1953125 l -1.5,7.08984376 c -0.2109375,0.97265625 -0.515625,1.76953124 -0.9375,2.33203124 -0.7734375,1.0546875 -1.8984375,1.59375 -3.4101563,1.59375 -0.84375,0 -1.5,-0.1992187 -1.9921875,-0.5625 C 0.56239363,2.3660028 0.35145613,1.7683466 0.45692488,0.97147156 H 1.8045811 c -0.023437,0.35156254 0.058594,0.62109374 0.1992188,0.80859374 0.234375,0.2929688 0.6796875,0.4335938 1.3007812,0.4335938 1.0078125,0 1.7460938,-0.3515625 2.203125,-1.0546875 0.2695313,-0.41015629 0.5039063,-1.16015629 0.7148438,-2.2265625 -0.3398438,0.38671871 -0.7148438,0.67968746 -1.1132813,0.86718746 -0.421875,0.19921875 -0.9257812,0.3046875 -1.5351562,0.3046875 -0.8320313,0 -1.5234375,-0.3046875 -2.0273438,-0.890625 C 1.0428624,-1.3957159 0.93739363,-2.3800909 1.2303624,-3.7629034 c 0.2929687,-1.3007813 0.8085937,-2.3203125 1.6171875,-3.0585938 0.7851562,-0.7265625 1.6289062,-1.1015625 2.5195312,-1.1015625 0.6210938,0 1.125,0.1523438 1.5117188,0.46875 z m -1.5117188,0.6914063 c -0.9140625,0 -1.6289062,0.4335937 -2.15625,1.3007812 -0.28125,0.4570313 -0.5039062,1.0546875 -0.65625,1.8046875 -0.1875,0.8789063 -0.140625,1.546875 0.1054688,2.0039063 0.2578125,0.4570312 0.6914062,0.67968746 1.3007812,0.67968746 0.9375,0 1.6757813,-0.41015626 2.25,-1.26562496 0.3046875,-0.4804688 0.5273438,-1.03125 0.6679688,-1.6757813 0.2109375,-0.9726562 0.1640625,-1.6875 -0.140625,-2.1445312 -0.2929688,-0.4570313 -0.75,-0.703125 -1.3710938,-0.703125 z m 0,0"
       style="fill:#000000;fill-opacity:1;fill-rule:nonzero;stroke:none"
       aria-label="g"
       transform="matrix(1.3333333,0,0,1.3333333,928.74233,165.81017)" />
    <path
       id="path93"
       d="m 603.23,100.539 c 0,8.887 3.532,17.41 9.813,23.695 6.285,6.286 14.812,9.817 23.699,9.817 8.887,0 17.41,-3.531 23.696,-9.817 6.285,-6.285 9.816,-14.808 9.816,-23.695"
       style="fill:none;stroke:#000000;stroke-width:0.9216;stroke-linecap:butt;stroke-linejoin:miter;stroke-miterlimit:3.25;stroke-dasharray:0.9216, 5.5296;stroke-dashoffset:0;stroke-opacity:1"
       transform="scale(1.3333333)" />
    <path
       id="path94"
       d="m 641.77,134.051 -10.055,3.351 v -6.703 z"
       style="fill:#000000;fill-opacity:1;fill-rule:evenodd;stroke:none"
       transform="scale(1.3333333)" />
    <path
       id="path95"
       d="M 5.5553698,-11.02856 3.996776,-3.6926225 c -0.1289062,0.5507812 -0.1289062,1.0078125 -0.023437,1.3710937 0.1875,0.65625 0.7148438,0.984375 1.6289063,0.984375 1.2773437,0 2.296875,-0.5625 3.0117187,-1.7226562 0.3867188,-0.6210938 0.6796875,-1.4765625 0.9140625,-2.5546875 L 10.688183,-11.02856 h 1.851563 l -2.34375,11.02734375 H 8.449901 L 8.8014635,-1.6301225 c -0.328125,0.421875 -0.6914062,0.78515625 -1.1132812,1.078125 -0.84375,0.57421875 -1.7578125,0.8671875 -2.765625,0.8671875 -1.5820313,0 -2.53125,-0.52734375 -2.8710938,-1.5820313 -0.1875,-0.5742187 -0.1875,-1.3125 0,-2.2617187 l 1.6054688,-7.5 z m 0,0"
       style="fill:#000000;fill-opacity:1;fill-rule:nonzero;stroke:none"
       aria-label="u"
       transform="matrix(1.3333333,0,0,1.3333333,834.98347,205.26725)" />
    <path
       id="path96"
       d="m 6.8795885,-7.4543414 c 0.2226562,0.1640625 0.4101562,0.4101563 0.5976562,0.7265625 l 0.2226563,-0.984375 h 1.1953125 l -1.5,7.08984377 C 7.184276,0.35034612 6.8795885,1.1472211 6.4577135,1.7097211 5.684276,2.7644086 4.559276,3.3034711 3.0475572,3.3034711 c -0.84375,0 -1.5,-0.1992187 -1.9921875,-0.5625 -0.49218745,-0.375 -0.70312495,-0.9726562 -0.5976562,-1.76953123 h 1.3476562 c -0.023437,0.35156253 0.058594,0.62109373 0.1992188,0.80859373 0.234375,0.2929688 0.6796875,0.4335938 1.3007812,0.4335938 1.0078125,0 1.7460938,-0.3515625 2.203125,-1.0546875 0.2695313,-0.41015628 0.5039063,-1.16015628 0.7148438,-2.2265625 -0.3398438,0.38671872 -0.7148438,0.67968747 -1.1132813,0.86718747 -0.421875,0.19921875 -0.9257812,0.3046875 -1.5351562,0.3046875 -0.8320313,0 -1.5234375,-0.3046875 -2.0273438,-0.890625 C 1.043651,-1.3957476 0.93818225,-2.3801226 1.231151,-3.7629351 c 0.2929687,-1.3007813 0.8085937,-2.3203125 1.6171875,-3.0585938 0.7851562,-0.7265625 1.6289062,-1.1015625 2.5195312,-1.1015625 0.6210938,0 1.125,0.1523438 1.5117188,0.46875 z m -1.5117188,0.6914063 c -0.9140625,0 -1.6289062,0.4335937 -2.15625,1.3007812 -0.28125,0.4570313 -0.5039062,1.0546875 -0.65625,1.8046875 -0.1875,0.8789063 -0.140625,1.546875 0.1054688,2.0039063 0.2578125,0.4570312 0.6914062,0.67968747 1.3007812,0.67968747 0.9375,0 1.6757813,-0.41015627 2.25,-1.26562497 0.3046875,-0.4804688 0.5273438,-1.03125 0.6679688,-1.6757813 0.2109375,-0.9726562 0.1640625,-1.6875 -0.140625,-2.1445312 -0.2929688,-0.4570313 -0.75,-0.703125 -1.3710938,-0.703125 z m 0,0"
       style="fill:#000000;fill-opacity:1;fill-rule:nonzero;stroke:none"
       aria-label="g"
       transform="matrix(1.3333333,0,0,1.3333333,850.54597,210.49381)" />
    <path
       id="path97"
       d="m 603.23,100.539 -0.976,-0.984 -0.719,-1.223 -0.398,-1.391 -0.039,-1.464 0.32,-1.422 0.66,-1.282 0.938,-1.054 1.14,-0.774 1.262,-0.465 1.293,-0.164 1.246,0.09 1.137,0.297 0.968,0.445 0.758,0.524 0.512,0.555 0.242,0.546 -0.035,0.5 -0.316,0.434 -0.575,0.344 -0.808,0.226 -0.992,0.078 -1.118,-0.105 -1.171,-0.32 -1.145,-0.571 -1.035,-0.824 -0.84,-1.07 -0.566,-1.274 -0.235,-1.41 0.125,-1.445 0.485,-1.383 0.808,-1.211 1.067,-0.957 1.246,-0.648 1.332,-0.313 1.332,0.008 1.258,0.289 1.125,0.508 0.949,0.648 0.738,0.719 0.508,0.723 0.262,0.66 0.004,0.566 -0.247,0.43 -0.488,0.281 -0.703,0.114 -0.879,-0.071 -0.996,-0.273 -1.039,-0.485 -1.008,-0.714 -0.887,-0.938 -0.687,-1.144 -0.406,-1.305 -0.075,-1.402 0.286,-1.407 0.632,-1.312 0.946,-1.117 1.183,-0.844 1.332,-0.508 1.387,-0.16 1.348,0.176 1.234,0.472 1.07,0.7 0.875,0.847 0.657,0.91 0.437,0.895 0.215,0.808 -0.004,0.672 -0.215,0.492 -0.414,0.286 -0.593,0.066 -0.739,-0.16 -0.836,-0.383 -0.871,-0.613 -0.836,-0.828 -0.711,-1.028 -0.511,-1.199 -0.243,-1.32 0.086,-1.375 0.434,-1.344 0.769,-1.219 1.063,-1 1.281,-0.707 1.399,-0.363 1.422,-0.004 1.339,0.344"
       style="fill:none;stroke:#000000;stroke-width:0.9216;stroke-linecap:square;stroke-linejoin:miter;stroke-miterlimit:3.25;stroke-dasharray:none;stroke-opacity:1"
       transform="scale(1.3333333)" />
    <path
       id="path98"
       d="m 9.7602682,-10.582524 c 0.3164058,0.234375 0.5859378,0.5976561 0.8437498,1.0312498 l 0.316406,-1.3828128 h 1.710938 L 10.498549,-0.89111794 C 10.193862,0.50341331 9.7602682,1.6284133 9.1626119,2.4252883 c -1.1015625,1.5 -2.7070312,2.2617188 -4.8398437,2.2617188 -1.1953125,0 -2.1328125,-0.2695313 -2.8242188,-0.796875 C 0.79542444,3.3627883 0.50245569,2.5073196 0.65479944,1.3706008 H 2.5532369 c -0.023437,0.5039063 0.082031,0.890625 0.2929688,1.1601563 0.3164062,0.3984375 0.9492187,0.609375 1.8398437,0.609375 1.4414063,0 2.4726563,-0.5039063 3.1289063,-1.4882813 0.375,-0.5976562 0.7148437,-1.6523437375 1.0078125,-3.1757812 -0.4804688,0.55078121 -1.0078125,0.97265621 -1.5820313,1.25390621 -0.5859375,0.2695312525 -1.3125,0.421875 -2.1796875,0.421875 -1.171875,0 -2.1445312,-0.421875 -2.8710937,-1.27734371 -0.7148438,-0.8554688 -0.8554688,-2.25 -0.4335938,-4.21875 0.3984375,-1.8398438 1.1367188,-3.2929688 2.2734375,-4.3242188 1.125,-1.0429683 2.3203125,-1.5703123 3.5976563,-1.5703123 0.8554687,0 1.5820312,0.210937 2.1328125,0.65625 z m -2.1328125,0.9960936 c -1.3125,0 -2.3320313,0.609375 -3.0703125,1.8398437 -0.3984375,0.65625 -0.7148438,1.5 -0.9257813,2.5546875 -0.2695312,1.2421875 -0.2109375,2.1914063 0.1523438,2.8476563 0.3515625,0.65625 0.9609375,0.9726562 1.828125,0.9726562 1.3359375,0 2.390625,-0.5976562 3.1875,-1.7929687 0.4453125,-0.703125 0.7617187,-1.4765625 0.9609375,-2.390625 0.2929688,-1.3710938 0.2226562,-2.390625 -0.1992188,-3.0351563 -0.421875,-0.65625 -1.078125,-0.9960937 -1.9335937,-0.9960937 z m 0,0"
       style="fill:#000000;fill-opacity:1;fill-rule:nonzero;stroke:none"
       aria-label="g"
       transform="matrix(1.3333333,0,0,1.3333333,784.27147,102.82488)" />
    <path
       id="path99"
       d="m 619.984,71.215 -0.605,-1.277 -0.227,-1.458 0.192,-1.515 0.609,-1.43 0.973,-1.207 1.234,-0.875 1.379,-0.473 1.399,-0.066 1.312,0.309 1.156,0.597 0.965,0.797 0.766,0.895 0.566,0.89 0.371,0.813 0.18,0.668 -0.02,0.488 -0.222,0.289 -0.426,0.09 -0.625,-0.105 -0.785,-0.29 -0.891,-0.48 -0.926,-0.676 -0.867,-0.879 -0.703,-1.082 -0.441,-1.258 -0.094,-1.382 0.308,-1.407 0.719,-1.312 1.082,-1.098 1.356,-0.769 1.496,-0.364 1.488,0.063 1.356,0.457 1.129,0.789 0.851,1.02 0.574,1.148 0.325,1.18 0.121,1.121 -0.028,0.992 -0.136,0.797 -0.219,0.562 -0.297,0.293 -0.371,0.016 -0.446,-0.258 -0.507,-0.512 -0.532,-0.75 -0.503,-0.949 -0.395,-1.121 -0.203,-1.246 0.074,-1.309 0.414,-1.289 0.778,-1.168 1.124,-0.941 1.391,-0.613 1.539,-0.215 1.539,0.215 1.391,0.613 1.121,0.941 0.781,1.168 0.414,1.289 0.074,1.309 -0.203,1.246 -0.394,1.121 -0.504,0.949 -0.535,0.75 -0.504,0.512 -0.445,0.258 -0.372,-0.016 -0.296,-0.293 -0.219,-0.562 -0.137,-0.797 -0.027,-0.992 0.121,-1.121 0.324,-1.18 0.574,-1.148 0.852,-1.02 1.125,-0.789 1.359,-0.457 1.489,-0.063 1.492,0.364 1.355,0.769 1.086,1.098 0.719,1.312 0.308,1.407 -0.093,1.382 -0.442,1.258 -0.707,1.082 -0.863,0.879 -0.926,0.676 -0.89,0.48 -0.786,0.29 -0.625,0.105 -0.429,-0.09 -0.223,-0.289 -0.016,-0.488 0.18,-0.668 0.371,-0.813 0.567,-0.89 0.761,-0.895 0.969,-0.797 1.156,-0.597 1.313,-0.309 1.398,0.066 1.379,0.473 1.235,0.875 0.972,1.207 0.61,1.43 0.191,1.515 -0.23,1.458 -0.602,1.277"
       style="fill:none;stroke:#000000;stroke-width:0.9216;stroke-linecap:square;stroke-linejoin:miter;stroke-miterlimit:3.25;stroke-dasharray:none;stroke-opacity:1"
       transform="scale(1.3333333)" />
    <path
       id="path100"
       d="m 9.7611117,-10.58278 c 0.3164063,0.234375 0.5859373,0.5976564 0.8437503,1.0312502 l 0.316406,-1.3828122 h 1.710937 L 10.499393,-0.89137356 C 10.194705,0.50315769 9.7611117,1.6281577 9.1634554,2.4250327 c -1.1015625,1.5 -2.7070312,2.2617187 -4.8398437,2.2617187 -1.1953125,0 -2.1328125,-0.2695312 -2.8242188,-0.796875 C 0.79626794,3.3625327 0.50329919,2.5070639 0.65564294,1.3703452 H 2.5540804 c -0.023437,0.5039062 0.082031,0.890625 0.2929688,1.1601562 0.3164062,0.3984375 0.9492187,0.609375 1.8398437,0.609375 1.4414063,0 2.4726563,-0.5039062 3.1289063,-1.4882812 0.375,-0.5976563 0.7148437,-1.6523437625 1.0078125,-3.1757813 -0.4804688,0.55078129 -1.0078125,0.97265629 -1.5820313,1.25390629 -0.5859375,0.2695312475 -1.3125,0.421875 -2.1796875,0.421875 -1.171875,0 -2.1445312,-0.421875 -2.8710937,-1.27734379 -0.7148438,-0.8554687 -0.8554688,-2.25 -0.4335938,-4.21875 0.3984375,-1.8398437 1.1367188,-3.2929687 2.2734375,-4.3242187 1.125,-1.0429687 2.3203125,-1.5703127 3.5976563,-1.5703127 0.8554687,0 1.5820312,0.210938 2.1328125,0.65625 z m -2.1328125,0.9960939 c -1.3125,0 -2.3320313,0.609375 -3.0703125,1.8398438 -0.3984375,0.65625 -0.7148438,1.5 -0.9257813,2.5546875 -0.2695312,1.2421875 -0.2109375,2.1914062 0.1523438,2.8476562 0.3515625,0.65625 0.9609375,0.9726563 1.828125,0.9726563 1.3359375,0 2.390625,-0.5976563 3.1875,-1.7929688 0.4453125,-0.703125 0.7617187,-1.4765625 0.9609375,-2.390625 0.2929683,-1.3710937 0.2226562,-2.390625 -0.1992188,-3.0351562 -0.421875,-0.65625 -1.078125,-0.9960938 -1.9335937,-0.9960938 z m 0,0"
       style="fill:#000000;fill-opacity:1;fill-rule:nonzero;stroke:none"
       aria-label="g"
       transform="matrix(1.3333333,0,0,1.3333333,840.61409,60.208029)"
       clip-path="url(#clipPath101)" />
    <path
       id="path102"
       d="m 619.984,71.215 -0.605,1.277 -0.227,1.457 0.192,1.516 0.609,1.43 0.973,1.207 1.234,0.875 1.379,0.472 1.399,0.067 1.312,-0.309 1.156,-0.598 0.965,-0.8 0.766,-0.891 0.566,-0.895 0.371,-0.808 0.18,-0.668 -0.02,-0.488 -0.222,-0.289 -0.426,-0.09 -0.625,0.105 -0.785,0.289 -0.891,0.481 -0.926,0.672 -0.867,0.882 -0.703,1.082 -0.441,1.258 -0.094,1.379 0.308,1.41 0.719,1.313 1.082,1.097 1.356,0.766 1.496,0.367 1.488,-0.062 1.356,-0.457 1.129,-0.789 0.851,-1.02 0.574,-1.148 0.325,-1.18 0.121,-1.125 -0.028,-0.988 -0.136,-0.797 -0.219,-0.563 -0.297,-0.293 -0.371,-0.015 -0.446,0.258 -0.507,0.511 -0.532,0.746 -0.503,0.953 -0.395,1.122 -0.203,1.242 0.074,1.308 0.414,1.293 0.778,1.168 1.124,0.942 1.391,0.613 1.539,0.215 1.539,-0.215 1.391,-0.613 1.121,-0.942 0.781,-1.168 0.414,-1.293 0.074,-1.308 -0.203,-1.242 -0.394,-1.122 -0.504,-0.953 -0.535,-0.746 -0.504,-0.511 -0.445,-0.258 -0.372,0.015 -0.296,0.293 -0.219,0.563 -0.137,0.797 -0.027,0.988 0.121,1.125 0.324,1.18 0.574,1.148 0.852,1.02 1.125,0.789 1.359,0.457 1.489,0.062 1.492,-0.367 1.355,-0.766 1.086,-1.097 0.719,-1.313 0.308,-1.41 -0.093,-1.379 -0.442,-1.258 -0.707,-1.082 -0.863,-0.882 -0.926,-0.672 -0.89,-0.481 -0.786,-0.289 -0.625,-0.105 -0.429,0.09 -0.223,0.289 -0.016,0.488 0.18,0.668 0.371,0.808 0.567,0.895 0.761,0.891 0.969,0.8 1.156,0.598 1.313,0.309 1.398,-0.067 1.379,-0.472 1.235,-0.875 0.972,-1.207 0.61,-1.43 0.191,-1.516 -0.23,-1.457 -0.602,-1.277"
       style="fill:none;stroke:#000000;stroke-width:0.9216;stroke-linecap:square;stroke-linejoin:miter;stroke-miterlimit:3.25;stroke-dasharray:none;stroke-opacity:1"
       transform="scale(1.3333333)" />
    <path
       id="path103"
       d="m 9.7611117,-10.582639 c 0.3164063,0.234375 0.5859373,0.5976559 0.8437503,1.0312497 l 0.316406,-1.3828127 h 1.710937 L 10.499393,-0.89123306 C 10.194705,0.50329819 9.7611117,1.6282982 9.1634554,2.4251732 c -1.1015625,1.5 -2.7070312,2.2617187 -4.8398437,2.2617187 -1.1953125,0 -2.1328125,-0.2695312 -2.8242188,-0.796875 C 0.79626794,3.3626732 0.50329919,2.5072044 0.65564294,1.3704857 H 2.5540804 c -0.023437,0.5039062 0.082031,0.890625 0.2929688,1.1601562 0.3164062,0.3984375 0.9492187,0.609375 1.8398437,0.609375 1.4414063,0 2.4726563,-0.5039062 3.1289063,-1.4882812 0.375,-0.5976563 0.7148437,-1.6523437625 1.0078125,-3.1757813 -0.4804688,0.55078129 -1.0078125,0.97265629 -1.5820313,1.25390629 -0.5859375,0.2695312475 -1.3125,0.421875 -2.1796875,0.421875 -1.171875,0 -2.1445312,-0.421875 -2.8710937,-1.27734379 -0.7148438,-0.8554687 -0.8554688,-2.25 -0.4335938,-4.21875 0.3984375,-1.8398437 1.1367188,-3.2929687 2.2734375,-4.3242187 1.125,-1.0429692 2.3203125,-1.5703122 3.5976563,-1.5703122 0.8554687,0 1.5820312,0.210937 2.1328125,0.65625 z m -2.1328125,0.9960934 c -1.3125,0 -2.3320313,0.609375 -3.0703125,1.8398438 -0.3984375,0.65625 -0.7148438,1.5 -0.9257813,2.5546875 -0.2695312,1.2421875 -0.2109375,2.1914062 0.1523438,2.8476562 0.3515625,0.65625 0.9609375,0.9726563 1.828125,0.9726563 1.3359375,0 2.390625,-0.5976563 3.1875,-1.7929688 0.4453125,-0.703125 0.7617187,-1.4765625 0.9609375,-2.390625 0.2929683,-1.3710937 0.2226562,-2.390625 -0.1992188,-3.0351562 -0.421875,-0.65625 -1.078125,-0.9960938 -1.9335937,-0.9960938 z m 0,0"
       style="fill:#000000;fill-opacity:1;fill-rule:nonzero;stroke:none"
       aria-label="g"
       transform="matrix(1.3333333,0,0,1.3333333,840.61409,149.98909)"
       clip-path="url(#clipPath104)" />
    <path
       id="path105"
       d="m 670.254,100.539 0.965,-0.992 0.707,-1.231 0.386,-1.39 0.028,-1.461 -0.336,-1.418 -0.664,-1.277 -0.945,-1.047 -1.145,-0.762 -1.266,-0.457 -1.293,-0.16 -1.246,0.097 -1.133,0.305 -0.968,0.445 -0.754,0.532 -0.508,0.558 -0.238,0.551 0.039,0.504 0.316,0.437 0.578,0.34 0.809,0.227 0.996,0.07 1.117,-0.109 1.168,-0.328 1.145,-0.575 1.027,-0.832 0.832,-1.074 0.563,-1.277 0.23,-1.406 -0.133,-1.446 -0.484,-1.375 -0.809,-1.211 -1.07,-0.953 -1.246,-0.644 -1.328,-0.313 -1.336,0.008 -1.258,0.289 -1.125,0.504 -0.949,0.652 -0.738,0.719 -0.508,0.723 -0.258,0.664 -0.004,0.566 0.25,0.438 0.488,0.281 0.707,0.117 0.875,-0.07 0.996,-0.274 1.043,-0.484 1.008,-0.715 0.887,-0.937 0.683,-1.145 0.407,-1.305 0.078,-1.402 -0.281,-1.402 -0.629,-1.313 -0.942,-1.117 -1.179,-0.848 -1.329,-0.515 -1.382,-0.164 -1.348,0.172 -1.238,0.464 -1.078,0.692 -0.875,0.844 -0.664,0.906 -0.442,0.89 -0.215,0.813 v 0.672 l 0.215,0.492 0.414,0.293 0.594,0.07 0.742,-0.152 0.84,-0.379 0.875,-0.605 0.84,-0.825 0.715,-1.023 0.519,-1.195 0.246,-1.321 -0.074,-1.375 -0.422,-1.343 -0.762,-1.223 -1.054,-1.008 -1.27,-0.719 -1.394,-0.375 -1.418,-0.015 -1.344,0.328"
       style="fill:none;stroke:#000000;stroke-width:0.9216;stroke-linecap:square;stroke-linejoin:miter;stroke-miterlimit:3.25;stroke-dasharray:none;stroke-opacity:1"
       transform="scale(1.3333333)" />
    <path
       id="path106"
       d="m 9.7620356,-10.582988 c 0.3164064,0.234375 0.5859374,0.5976558 0.8437504,1.0312495 l 0.316406,-1.3828125 h 1.710937 L 10.500317,-0.89158225 C 10.195629,0.502949 9.7620356,1.627949 9.1643793,2.424824 c -1.1015625,1.5 -2.7070312,2.2617188 -4.8398437,2.2617188 -1.1953125,0 -2.1328125,-0.2695313 -2.8242188,-0.796875 C 0.79719181,3.362324 0.50422306,2.5068553 0.65656681,1.3701365 H 2.5550043 c -0.023437,0.5039063 0.082031,0.890625 0.2929688,1.1601563 0.3164062,0.3984375 0.9492187,0.609375 1.8398437,0.609375 1.4414063,0 2.4726563,-0.5039063 3.1289063,-1.4882813 0.375,-0.5976562 0.7148437,-1.65234375 1.0078125,-3.1757812 -0.4804688,0.5507812 -1.0078125,0.9726562 -1.5820313,1.2539062 -0.5859375,0.26953125 -1.3125,0.421875 -2.1796875,0.421875 -1.171875,0 -2.1445312,-0.421875 -2.8710937,-1.2773437 -0.7148438,-0.8554688 -0.8554688,-2.25 -0.4335938,-4.21875 0.3984375,-1.8398438 1.1367188,-3.2929688 2.2734375,-4.3242188 1.125,-1.042969 2.3203125,-1.570312 3.5976563,-1.570312 0.8554687,0 1.5820312,0.210937 2.1328125,0.65625 z m -2.1328125,0.9960933 c -1.3125,0 -2.3320313,0.609375 -3.0703125,1.8398437 -0.3984375,0.65625 -0.7148438,1.5 -0.9257813,2.5546875 -0.2695312,1.2421875 -0.2109375,2.1914063 0.1523438,2.8476563 0.3515625,0.65625 0.9609375,0.9726562 1.828125,0.9726562 1.3359375,0 2.390625,-0.5976562 3.1875,-1.7929687 0.4453125,-0.703125 0.7617187,-1.4765625 0.9609375,-2.390625 0.2929684,-1.3710938 0.2226562,-2.390625 -0.1992188,-3.0351563 -0.421875,-0.65625 -1.078125,-0.9960937 -1.9335937,-0.9960937 z m 0,0"
       style="fill:#000000;fill-opacity:1;fill-rule:nonzero;stroke:none"
       aria-label="g"
       transform="matrix(1.3333333,0,0,1.3333333,896.83942,102.8919)" />
    <path
       id="path107"
       d="m 657.184,71.215 c 0,0.976 -0.387,1.914 -1.079,2.605 -0.691,0.692 -1.628,1.082 -2.605,1.082 -0.98,0 -1.918,-0.39 -2.609,-1.082 -0.692,-0.691 -1.079,-1.629 -1.079,-2.605 0,-0.977 0.387,-1.914 1.079,-2.606 0.691,-0.691 1.629,-1.082 2.609,-1.082 0.977,0 1.914,0.391 2.605,1.082 0.692,0.692 1.079,1.629 1.079,2.606 z"
       style="fill:#000000;fill-opacity:1;fill-rule:evenodd;stroke:none"
       transform="scale(1.3333333)" />
    <path
       id="path108"
       d="m 623.672,71.215 c 0,0.976 -0.387,1.914 -1.078,2.605 -0.692,0.692 -1.629,1.082 -2.61,1.082 -0.976,0 -1.914,-0.39 -2.605,-1.082 -0.691,-0.691 -1.078,-1.629 -1.078,-2.605 0,-0.977 0.387,-1.914 1.078,-2.606 0.691,-0.691 1.629,-1.082 2.605,-1.082 0.981,0 1.918,0.391 2.61,1.082 0.691,0.692 1.078,1.629 1.078,2.606 z"
       style="fill:#000000;fill-opacity:1;fill-rule:evenodd;stroke:none"
       transform="scale(1.3333333)" />
    <path
       id="path109"
       d="m 606.914,100.539 c 0,0.977 -0.387,1.914 -1.078,2.606 -0.691,0.691 -1.629,1.078 -2.606,1.078 -0.98,0 -1.918,-0.387 -2.609,-1.078 -0.691,-0.692 -1.078,-1.629 -1.078,-2.606 0,-0.98 0.387,-1.918 1.078,-2.609 0.691,-0.692 1.629,-1.078 2.609,-1.078 0.977,0 1.915,0.386 2.606,1.078 0.691,0.691 1.078,1.629 1.078,2.609 z"
       style="fill:#000000;fill-opacity:1;fill-rule:evenodd;stroke:none"
       transform="scale(1.3333333)" />
    <path
       id="path110"
       d="m 673.941,100.539 c 0,0.977 -0.39,1.914 -1.082,2.606 -0.691,0.691 -1.629,1.078 -2.605,1.078 -0.977,0 -1.914,-0.387 -2.606,-1.078 -0.691,-0.692 -1.082,-1.629 -1.082,-2.606 0,-0.98 0.391,-1.918 1.082,-2.609 0.692,-0.692 1.629,-1.078 2.606,-1.078 0.976,0 1.914,0.386 2.605,1.078 0.692,0.691 1.082,1.629 1.082,2.609 z"
       style="fill:#000000;fill-opacity:1;fill-rule:evenodd;stroke:none"
       transform="scale(1.3333333)" />
  </g>
</svg>
