<?xml version="1.0" encoding="UTF-8" standalone="no"?>
<!-- Created with Inkscape (http://www.inkscape.org/) -->

<svg
   version="1.1"
   id="svg1"
   width="984"
   height="246.66667"
   viewBox="0 0 984 246.66667"
   sodipodi:docname="0paycvetg4g5v.pdf"
   xmlns:inkscape="http://www.inkscape.org/namespaces/inkscape"
   xmlns:sodipodi="http://sodipodi.sourceforge.net/DTD/sodipodi-0.dtd"
   xmlns="http://www.w3.org/2000/svg"
   xmlns:svg="http://www.w3.org/2000/svg">
  <defs
     id="defs1">
    <clipPath
       clipPathUnits="userSpaceOnUse"
       id="clipPath81">
      <path
         d="m 630,101 h 13.922 v 17 H 630 Z"
         transform="translate(-630.46058,-112.49182)"
         id="path81" />
    </clipPath>
  </defs>
  <sodipodi:namedview
     id="namedview1"
     pagecolor="#ffffff"
     bordercolor="#999999"
     borderopacity="1"
     inkscape:showpageshadow="0"
     inkscape:pageopacity="0"
     inkscape:pagecheckerboard="0"
     inkscape:deskcolor="#d1d1d1">
    <inkscape:page
       x="0"
       y="0"
       id="page1"
       width="984"
       height="246.66667"
       margin="0"
       bleed="0" />
  </sodipodi:namedview>
  <g
     id="g1"
     inkscape:groupmode="layer"
     inkscape:label="">
    <path
       id="path1"
       d="m 50.27,100.539 -0.997,0.836 -1.14,0.648 -1.238,0.426 -1.297,0.18 -1.305,-0.074 -1.27,-0.325 -1.183,-0.558 -1.063,-0.762 -0.898,-0.93 -0.711,-1.05 -0.508,-1.118 -0.293,-1.124 -0.086,-1.083 0.11,-0.976 0.281,-0.832 0.418,-0.637 0.519,-0.41 0.575,-0.168 0.582,0.09 0.543,0.336 0.457,0.57 0.328,0.77 0.168,0.937 -0.024,1.055 -0.226,1.121 -0.442,1.125 -0.648,1.074 -0.844,0.973 -1.016,0.82 -1.148,0.625 -1.246,0.402 -1.301,0.153 -1.305,-0.102 -1.261,-0.347 -1.176,-0.582 -1.043,-0.782 -0.883,-0.945 -0.691,-1.059 -0.485,-1.121 -0.273,-1.125 -0.062,-1.07 0.128,-0.969 0.297,-0.808 0.434,-0.614 0.527,-0.386 0.578,-0.141 0.578,0.113 0.536,0.364 0.445,0.589 0.312,0.793 0.149,0.95 -0.043,1.066 -0.25,1.121 -0.461,1.125 -0.672,1.067 -0.863,0.96 -1.028,0.801 -1.164,0.602 -1.253,0.375 -1.305,0.125 -1.301,-0.125 -1.254,-0.375 -1.164,-0.602 -1.027,-0.801 -0.864,-0.96 -0.671,-1.067 -0.461,-1.125 -0.25,-1.121 -0.043,-1.066 0.148,-0.95 0.313,-0.793 0.445,-0.589 0.535,-0.364 0.578,-0.113 0.578,0.141 0.528,0.386 0.433,0.614 0.297,0.808 0.129,0.969 -0.066,1.07 -0.27,1.125 -0.484,1.121 -0.692,1.059 -0.882,0.945 -1.043,0.782 -1.176,0.582 -1.262,0.347 -1.305,0.102 -1.3,-0.153 -1.247,-0.402 -1.152,-0.625 -1.012,-0.82 L 9.348,99.66 8.699,98.586 8.258,97.461 8.031,96.34 8.008,95.285 l 0.168,-0.937 0.328,-0.77 0.457,-0.57 0.543,-0.336 0.578,-0.09 0.578,0.168 0.516,0.41 0.422,0.637 0.281,0.832 0.109,0.976 -0.086,1.083 -0.293,1.124 -0.507,1.118 -0.711,1.05 -0.899,0.93 -1.062,0.762 -1.184,0.558 -1.269,0.325 -1.305,0.074 -1.297,-0.18 L 2.133,102.023 0.996,101.375 0,100.539"
       style="fill:none;stroke:#000000;stroke-width:0.9216;stroke-linecap:square;stroke-linejoin:miter;stroke-miterlimit:3.25;stroke-dasharray:none;stroke-opacity:1"
       transform="scale(1.3333333)" />
    <path
       id="path2"
       d="m 9.7609628,-10.581262 c 0.3164062,0.234375 0.5859372,0.5976558 0.8437502,1.0312496 l 0.316406,-1.3828126 h 1.710938 L 10.499244,-0.88985619 C 10.194557,0.50467506 9.7609628,1.6296751 9.1633066,2.4265501 c -1.1015625,1.5 -2.7070313,2.2617187 -4.8398438,2.2617187 -1.1953125,0 -2.1328125,-0.2695312 -2.8242187,-0.796875 C 0.79611906,3.3640501 0.50315031,2.5085813 0.65549406,1.3718626 H 2.5539316 c -0.023437,0.5039062 0.082031,0.890625 0.2929687,1.1601562 0.3164063,0.3984375 0.9492188,0.609375 1.8398438,0.609375 1.4414062,0 2.4726562,-0.5039062 3.1289062,-1.4882812 0.375,-0.5976563 0.7148438,-1.6523437875 1.0078125,-3.1757813 -0.4804687,0.55078126 -1.0078125,0.97265626 -1.5820312,1.25390626 -0.5859375,0.2695312525 -1.3125,0.421875 -2.1796875,0.421875 -1.171875,0 -2.1445313,-0.421875 -2.8710938,-1.27734376 -0.7148437,-0.8554687 -0.8554687,-2.25 -0.4335937,-4.21875 0.3984375,-1.8398437 1.1367187,-3.2929687 2.2734375,-4.3242187 1.125,-1.0429691 2.3203125,-1.5703121 3.5976562,-1.5703121 0.8554688,0 1.5820313,0.210937 2.1328125,0.65625 z m -2.1328125,0.9960933 c -1.3125,0 -2.3320312,0.609375 -3.0703125,1.8398438 -0.3984375,0.65625 -0.7148437,1.5 -0.9257812,2.5546875 -0.2695313,1.2421875 -0.2109375,2.1914062 0.1523437,2.8476562 0.3515625,0.65625 0.9609375,0.9726563 1.828125,0.9726563 1.3359375,0 2.390625,-0.5976563 3.1875,-1.7929688 0.4453125,-0.703125 0.7617188,-1.4765625 0.9609375,-2.390625 0.2929692,-1.3710937 0.2226563,-2.390625 -0.1992187,-3.0351562 -0.421875,-0.65625 -1.078125,-0.9960938 -1.9335938,-0.9960938 z m 0,0"
       style="fill:#000000;fill-opacity:1;fill-rule:nonzero;stroke:none"
       aria-label="g"
       transform="matrix(1.3333333,0,0,1.3333333,25.137727,171.21382)" />
    <path
       id="path3"
       d="m 117.293,100.539 1,-0.84 1.137,-0.648 1.238,-0.422 1.297,-0.18 1.305,0.074 1.269,0.325 1.188,0.554 1.058,0.766 0.899,0.93 0.714,1.047 0.504,1.117 0.297,1.129 0.086,1.078 -0.113,0.98 -0.281,0.828 -0.418,0.637 -0.52,0.414 -0.574,0.164 -0.582,-0.086 -0.543,-0.336 -0.453,-0.57 -0.332,-0.773 -0.164,-0.938 0.019,-1.055 0.231,-1.117 0.437,-1.125 0.653,-1.078 0.843,-0.973 1.012,-0.82 1.148,-0.625 1.25,-0.398 1.297,-0.153 1.305,0.098 1.262,0.352 1.176,0.578 1.046,0.785 0.879,0.941 0.692,1.063 0.484,1.117 0.273,1.125 0.063,1.074 -0.129,0.965 -0.297,0.812 -0.433,0.614 -0.528,0.386 -0.574,0.141 -0.582,-0.113 -0.535,-0.363 -0.445,-0.59 -0.313,-0.793 -0.148,-0.953 0.043,-1.063 0.25,-1.121 0.464,-1.125 0.668,-1.066 0.864,-0.961 1.031,-0.801 1.16,-0.606 1.254,-0.371 1.305,-0.129 1.3,0.129 1.258,0.371 1.16,0.606 1.032,0.801 0.859,0.961 0.672,1.066 0.461,1.125 0.25,1.121 0.043,1.063 -0.149,0.953 -0.312,0.793 -0.445,0.59 -0.532,0.363 -0.582,0.113 -0.578,-0.141 -0.527,-0.386 -0.43,-0.614 -0.301,-0.812 -0.129,-0.965 0.067,-1.074 0.269,-1.125 0.489,-1.117 0.691,-1.063 0.879,-0.941 1.047,-0.785 1.172,-0.578 1.261,-0.352 1.305,-0.098 1.301,0.153 1.246,0.398 1.152,0.625 1.012,0.82 0.844,0.973 0.648,1.078 0.442,1.125 0.226,1.117 0.024,1.055 -0.168,0.938 -0.328,0.773 -0.457,0.57 -0.54,0.336 -0.582,0.086 -0.574,-0.164 -0.519,-0.414 -0.422,-0.637 -0.281,-0.828 -0.11,-0.98 0.086,-1.078 0.293,-1.129 0.508,-1.117 0.711,-1.047 0.902,-0.93 1.059,-0.766 1.187,-0.554 1.266,-0.325 1.309,-0.074 1.296,0.18 1.239,0.422 1.136,0.648 0.996,0.84"
       style="fill:none;stroke:#000000;stroke-width:0.9216;stroke-linecap:square;stroke-linejoin:miter;stroke-miterlimit:3.25;stroke-dasharray:none;stroke-opacity:1"
       transform="scale(1.3333333)" />
    <path
       id="path4"
       d="m 9.7623153,-10.582015 c 0.3164067,0.234375 0.5859377,0.5976566 0.8437497,1.0312504 l 0.316407,-1.3828124 h 1.710937 L 10.500597,-0.89060837 C 10.195909,0.50392288 9.7623153,1.6289229 9.164659,2.4257979 c -1.1015625,1.5 -2.7070312,2.2617187 -4.8398437,2.2617187 -1.1953125,0 -2.1328125,-0.2695312 -2.8242188,-0.796875 C 0.7974715,3.3632979 0.50450275,2.5078291 0.6568465,1.3711104 H 2.555284 c -0.023437,0.5039062 0.082031,0.890625 0.2929688,1.1601562 0.3164062,0.3984375 0.9492187,0.609375 1.8398437,0.609375 1.4414063,0 2.4726563,-0.5039062 3.1289063,-1.4882812 0.375,-0.5976563 0.7148437,-1.652343775 1.0078125,-3.1757813 -0.4804688,0.55078128 -1.0078125,0.97265628 -1.5820313,1.25390628 -0.5859375,0.269531245 -1.3125,0.421875 -2.1796875,0.421875 -1.171875,0 -2.1445312,-0.421875 -2.8710937,-1.27734378 -0.7148438,-0.8554687 -0.8554688,-2.25 -0.4335938,-4.21875 0.3984375,-1.8398437 1.1367188,-3.2929687 2.2734375,-4.3242187 1.125,-1.0429689 2.3203125,-1.5703129 3.5976563,-1.5703129 0.8554687,0 1.5820312,0.210938 2.1328125,0.65625 z m -2.1328125,0.9960941 c -1.3125,0 -2.3320313,0.609375 -3.0703125,1.8398438 -0.3984375,0.65625 -0.7148438,1.5 -0.9257813,2.5546875 -0.2695312,1.2421875 -0.2109375,2.1914062 0.1523438,2.8476562 0.3515625,0.65625 0.9609375,0.9726563 1.828125,0.9726563 1.3359375,0 2.390625,-0.5976563 3.1875,-1.7929688 0.4453125,-0.703125 0.7617187,-1.4765625 0.9609375,-2.390625 0.2929687,-1.3710937 0.2226562,-2.390625 -0.1992188,-3.0351562 -0.421875,-0.65625 -1.078125,-0.9960938 -1.9335937,-0.9960938 z m 0,0"
       style="fill:#000000;fill-opacity:1;fill-rule:nonzero;stroke:none"
       aria-label="g"
       transform="matrix(1.3333333,0,0,1.3333333,181.53045,117.17967)" />
    <path
       id="path5"
       d="m 50.27,100.539 -0.821,0.965 -0.617,1.141 -0.375,1.273 -0.094,1.344 0.184,1.336 0.457,1.261 0.703,1.121 0.898,0.93 1.051,0.703 1.133,0.461 1.168,0.227 1.137,0.011 1.066,-0.171 0.953,-0.309 0.805,-0.402 0.629,-0.461 0.433,-0.473 0.223,-0.461 0.008,-0.422 -0.207,-0.355 -0.41,-0.278 -0.602,-0.179 -0.758,-0.059 -0.882,0.078 -0.961,0.235 -0.989,0.41 -0.961,0.605 -0.871,0.797 -0.726,0.981 -0.528,1.14 -0.285,1.258 -0.015,1.32 0.261,1.313 0.539,1.242 0.782,1.094 0.98,0.898 1.125,0.657 1.207,0.398 1.227,0.141 1.195,-0.106 1.113,-0.308 0.993,-0.469 0.847,-0.582 0.68,-0.637 0.496,-0.645 0.312,-0.609 0.118,-0.535 -0.075,-0.434 -0.261,-0.308 -0.434,-0.172 -0.586,-0.02 -0.707,0.145 -0.793,0.309 -0.832,0.488 -0.812,0.66 -0.743,0.836 -0.613,0.992 -0.43,1.133 -0.199,1.23 0.063,1.282 0.332,1.265 0.605,1.192 0.848,1.05 1.051,0.848 1.191,0.602 1.266,0.336 1.281,0.062 1.23,-0.199 1.129,-0.43 0.996,-0.613 0.836,-0.742 0.661,-0.813 0.488,-0.832 0.308,-0.793 0.141,-0.707 -0.016,-0.586 -0.171,-0.433 -0.309,-0.262 -0.434,-0.074 -0.535,0.117 -0.609,0.312 -0.645,0.496 -0.636,0.68 -0.582,0.848 -0.469,0.992 -0.309,1.113 -0.105,1.196 0.14,1.226 0.399,1.207 0.656,1.125 0.898,0.981 1.094,0.781 1.239,0.539 1.316,0.262 1.32,-0.016 1.258,-0.285 1.141,-0.527 0.98,-0.727 0.797,-0.875 0.602,-0.957 0.414,-0.988 0.234,-0.961 0.078,-0.883 -0.058,-0.758 -0.18,-0.601 -0.278,-0.415 -0.355,-0.207 -0.422,0.008 -0.461,0.227 -0.472,0.433 -0.461,0.629 -0.403,0.805 -0.308,0.949 -0.172,1.071 0.012,1.136 0.226,1.168 0.461,1.133 0.703,1.051 0.93,0.898 1.121,0.703 1.262,0.457 1.336,0.184 1.343,-0.098 1.274,-0.371 1.14,-0.617 0.965,-0.82"
       style="fill:none;stroke:#000000;stroke-width:0.9216;stroke-linecap:square;stroke-linejoin:miter;stroke-miterlimit:3.25;stroke-dasharray:none;stroke-opacity:1"
       transform="scale(1.3333333)" />
    <path
       id="path6"
       d="m 9.7608919,-10.581869 c 0.3164061,0.234375 0.5859371,0.5976567 0.8437501,1.0312505 l 0.316406,-1.3828125 h 1.710938 L 10.499173,-0.89046225 C 10.194486,0.504069 9.7608919,1.629069 9.1632357,2.425944 c -1.1015625,1.5 -2.7070313,2.2617187 -4.8398438,2.2617187 -1.1953125,0 -2.1328125,-0.2695312 -2.8242187,-0.796875 C 0.79604819,3.363444 0.50307944,2.5079752 0.65542319,1.3712565 H 2.5538607 c -0.023437,0.5039062 0.082031,0.890625 0.2929687,1.1601562 0.3164063,0.3984375 0.9492188,0.609375 1.8398438,0.609375 1.4414062,0 2.4726562,-0.5039062 3.1289062,-1.4882812 0.375,-0.5976563 0.7148438,-1.65234375 1.0078125,-3.1757813 -0.4804687,0.5507813 -1.0078125,0.9726563 -1.5820312,1.2539063 -0.5859375,0.26953125 -1.3125,0.421875 -2.1796875,0.421875 -1.171875,0 -2.1445313,-0.421875 -2.8710938,-1.2773438 -0.7148437,-0.8554687 -0.8554687,-2.25 -0.4335937,-4.21875 0.3984375,-1.8398437 1.1367187,-3.2929687 2.2734375,-4.3242187 1.125,-1.042969 2.3203125,-1.570313 3.5976562,-1.570313 0.8554688,0 1.5820313,0.210938 2.1328125,0.65625 z m -2.1328125,0.9960942 c -1.3125,0 -2.3320312,0.609375 -3.0703125,1.8398438 -0.3984375,0.65625 -0.7148437,1.5 -0.9257812,2.5546875 -0.2695313,1.2421875 -0.2109375,2.1914062 0.1523437,2.8476562 0.3515625,0.65625 0.9609375,0.9726563 1.828125,0.9726563 1.3359375,0 2.390625,-0.5976563 3.1875,-1.7929688 0.4453125,-0.703125 0.7617188,-1.4765625 0.9609375,-2.390625 0.2929691,-1.3710937 0.2226563,-2.390625 -0.1992187,-3.0351562 -0.421875,-0.65625 -1.078125,-0.9960938 -1.9335938,-0.9960938 z m 0,0"
       style="fill:#000000;fill-opacity:1;fill-rule:nonzero;stroke:none"
       aria-label="g"
       transform="matrix(1.3333333,0,0,1.3333333,57.411259,198.20291)" />
    <path
       id="path7"
       d="m 117.293,100.539 0.793,0.996 0.578,1.172 0.324,1.289 0.047,1.348 -0.234,1.332 -0.508,1.246 -0.75,1.094 -0.941,0.894 -1.082,0.66 -1.157,0.414 -1.179,0.176 -1.141,-0.035 -1.059,-0.211 -0.937,-0.348 -0.781,-0.437 -0.598,-0.488 -0.398,-0.493 -0.18,-0.472 0.035,-0.422 0.254,-0.352 0.453,-0.257 0.641,-0.153 0.793,-0.023 0.906,0.125 0.973,0.293 0.984,0.472 0.937,0.672 0.832,0.86 0.672,1.043 0.453,1.187 0.2,1.285 -0.075,1.328 -0.359,1.301 -0.625,1.199 -0.859,1.036 -1.043,0.82 -1.168,0.57 -1.231,0.305 -1.23,0.051 -1.18,-0.188 -1.082,-0.379 -0.949,-0.527 -0.793,-0.617 -0.613,-0.66 -0.43,-0.649 -0.234,-0.598 -0.04,-0.507 0.157,-0.399 0.34,-0.262 0.503,-0.113 0.649,0.043 0.758,0.215 0.82,0.391 0.832,0.57 0.793,0.75 0.688,0.918 0.535,1.07 0.324,1.192 0.078,1.265 -0.195,1.289 -0.469,1.242 -0.73,1.129 -0.957,0.957 -1.133,0.731 -1.243,0.473 -1.285,0.195 -1.269,-0.078 -1.192,-0.324 -1.07,-0.536 -0.918,-0.691 -0.75,-0.789 -0.57,-0.836 -0.387,-0.82 -0.215,-0.754 -0.047,-0.649 0.114,-0.508 0.261,-0.335 0.399,-0.157 0.512,0.039 0.597,0.235 0.649,0.426 0.656,0.617 0.621,0.793 0.523,0.949 0.383,1.078 0.184,1.18 -0.047,1.234 -0.305,1.231 -0.57,1.168 -0.824,1.042 -1.035,0.856 -1.2,0.629 -1.297,0.359 -1.328,0.074 -1.289,-0.199 -1.187,-0.457 -1.039,-0.668 -0.864,-0.832 -0.668,-0.937 -0.476,-0.985 -0.293,-0.972 -0.125,-0.907 0.023,-0.793 0.153,-0.64 0.261,-0.457 0.352,-0.25 0.422,-0.039 0.469,0.183 0.496,0.399 0.484,0.597 0.438,0.778 0.347,0.937 0.215,1.059 0.035,1.144 -0.179,1.18 -0.415,1.156 -0.66,1.082 -0.894,0.942 -1.094,0.746 -1.246,0.508 -1.332,0.238 -1.348,-0.047 -1.289,-0.324 -1.168,-0.578 -1,-0.793"
       style="fill:none;stroke:#000000;stroke-width:0.9216;stroke-linecap:square;stroke-linejoin:miter;stroke-miterlimit:3.25;stroke-dasharray:none;stroke-opacity:1"
       transform="scale(1.3333333)" />
    <path
       id="path8"
       d="m 9.7618845,-10.582369 c 0.3164065,0.234375 0.5859375,0.5976561 0.8437505,1.0312499 l 0.316406,-1.3828129 h 1.710937 L 10.500166,-0.89096287 C 10.195478,0.50356838 9.7618845,1.6285684 9.1642283,2.4254434 8.0626658,3.9254434 6.457197,4.6871621 4.3243845,4.6871621 3.129072,4.6871621 2.191572,4.4176309 1.5001658,3.8902871 0.79704075,3.3629434 0.504072,2.5074746 0.65641575,1.3707559 H 2.5548533 c -0.023437,0.5039062 0.082031,0.890625 0.2929687,1.1601562 0.3164063,0.3984375 0.9492188,0.609375 1.8398438,0.609375 1.4414062,0 2.4726562,-0.5039062 3.1289062,-1.4882812 0.375,-0.5976563 0.7148438,-1.652343775 1.0078125,-3.1757813 -0.4804687,0.55078128 -1.0078125,0.97265628 -1.5820312,1.25390628 -0.5859375,0.269531245 -1.3125,0.421875 -2.1796875,0.421875 -1.171875,0 -2.1445313,-0.421875 -2.8710938,-1.27734378 -0.7148437,-0.8554687 -0.8554687,-2.25 -0.4335937,-4.21875 0.3984375,-1.8398437 1.1367187,-3.2929687 2.2734375,-4.3242187 1.125,-1.0429684 2.3203125,-1.5703124 3.5976562,-1.5703124 0.8554688,0 1.5820313,0.210937 2.1328125,0.65625 z M 7.629072,-9.5862754 c -1.3125,0 -2.3320312,0.609375 -3.0703125,1.8398438 -0.3984375,0.65625 -0.7148437,1.5 -0.9257812,2.5546875 -0.2695313,1.2421875 -0.2109375,2.1914062 0.1523437,2.8476562 0.3515625,0.65625 0.9609375,0.9726563 1.828125,0.9726563 1.3359375,0 2.390625,-0.5976563 3.1875,-1.7929688 0.4453125,-0.703125 0.7617188,-1.4765625 0.9609375,-2.390625 0.2929685,-1.3710937 0.2226563,-2.390625 -0.1992187,-3.0351562 -0.421875,-0.65625 -1.078125,-0.9960938 -1.9335938,-0.9960938 z m 0,0"
       style="fill:#000000;fill-opacity:1;fill-rule:nonzero;stroke:none"
       aria-label="g"
       transform="matrix(1.3333333,0,0,1.3333333,148.7654,197.71139)" />
    <path
       id="path9"
       d="M 83.781,134.051 83,133.094 l -0.621,-1.082 -0.434,-1.172 -0.226,-1.231 -0.012,-1.25 0.207,-1.234 0.41,-1.18 0.602,-1.093 0.765,-0.973 0.895,-0.828 0.988,-0.66 1.035,-0.485 1.043,-0.304 1,-0.125 0.914,0.046 0.797,0.192 0.633,0.316 0.453,0.414 0.246,0.477 0.032,0.496 -0.188,0.488 -0.394,0.434 -0.586,0.348 -0.75,0.23 -0.887,0.09 -0.981,-0.074 -1.031,-0.25 -1.043,-0.434 -1.008,-0.613 -0.925,-0.782 -0.805,-0.933 -0.652,-1.059 -0.469,-1.16 -0.266,-1.223 -0.051,-1.25 0.168,-1.242 0.375,-1.191 0.571,-1.109 0.738,-0.997 0.875,-0.855 0.973,-0.691 1.031,-0.516 1.043,-0.336 1.012,-0.156 0.933,0.015 0.82,0.168 0.665,0.297 0.488,0.399 0.281,0.464 0.07,0.5 -0.148,0.489 -0.356,0.445 -0.554,0.367 -0.723,0.254 -0.863,0.117 -0.969,-0.043 -1.027,-0.222 -1.043,-0.399 -1.016,-0.582 -0.945,-0.75 -0.828,-0.91 -0.684,-1.039 -0.5,-1.145 -0.305,-1.21 -0.089,-1.25 0.128,-1.247 0.34,-1.203 0.536,-1.125 0.71,-1.019 0.852,-0.883 0.961,-0.723 1.023,-0.547 1.047,-0.367 1.02,-0.187 0.949,-0.016 0.844,0.141 0.695,0.277 0.52,0.383 0.32,0.457 0.109,0.496 -0.109,0.492 -0.32,0.457 -0.52,0.383 -0.695,0.277 -0.844,0.145 -0.949,-0.016 -1.02,-0.187 -1.047,-0.367 -1.023,-0.551 -0.961,-0.723 -0.852,-0.883 -0.71,-1.015 -0.536,-1.129 -0.34,-1.203 -0.128,-1.246 0.089,-1.246 0.305,-1.215 0.5,-1.145 0.684,-1.039 0.828,-0.906 0.945,-0.754 1.016,-0.578 1.043,-0.402 1.027,-0.219 0.969,-0.043 0.863,0.113 0.723,0.254 0.554,0.367 0.356,0.445 0.148,0.493 -0.07,0.496 -0.281,0.468 -0.488,0.399 -0.665,0.297 -0.82,0.168 -0.933,0.015 -1.012,-0.156 -1.043,-0.336 -1.031,-0.515 -0.973,-0.696 -0.875,-0.851 -0.738,-0.996 -0.571,-1.114 -0.375,-1.191 -0.168,-1.238 0.051,-1.25 0.266,-1.227 0.469,-1.156 0.652,-1.063 0.805,-0.929 0.925,-0.782 1.008,-0.613 1.043,-0.433 1.031,-0.25 0.981,-0.075 0.887,0.086 0.75,0.231 0.586,0.351 0.394,0.434 0.188,0.484 -0.032,0.5 -0.246,0.473 -0.453,0.414 -0.633,0.32 -0.797,0.192 -0.914,0.043 -1,-0.125 -1.043,-0.301 -1.035,-0.484 -0.988,-0.665 -0.895,-0.828 -0.765,-0.972 -0.602,-1.09 -0.41,-1.18 -0.207,-1.234 0.012,-1.254 0.226,-1.231 0.434,-1.172 0.621,-1.078 0.781,-0.957"
       style="fill:none;stroke:#000000;stroke-width:0.9216;stroke-linecap:square;stroke-linejoin:miter;stroke-miterlimit:3.25;stroke-dasharray:none;stroke-opacity:1"
       transform="scale(1.3333333)" />
    <path
       id="path10"
       d="m 9.7605689,-10.583104 c 0.3164061,0.234375 0.5859371,0.5976564 0.8437501,1.0312501 l 0.316406,-1.3828121 h 1.710938 L 10.49885,-0.89169763 C 10.194163,0.50283362 9.7605689,1.6278336 9.1629126,2.4247086 c -1.1015625,1.5 -2.7070312,2.2617188 -4.8398437,2.2617188 -1.1953125,0 -2.1328125,-0.2695313 -2.8242188,-0.796875 C 0.79572513,3.3622086 0.50275638,2.5067399 0.65510013,1.3700211 H 2.5535376 c -0.023437,0.5039063 0.082031,0.890625 0.2929688,1.1601563 0.3164062,0.3984375 0.9492187,0.609375 1.8398437,0.609375 1.4414063,0 2.4726563,-0.5039063 3.1289063,-1.4882813 0.375,-0.5976562 0.7148437,-1.65234373 1.0078125,-3.1757812 -0.4804688,0.55078122 -1.0078125,0.97265622 -1.5820313,1.25390622 -0.5859375,0.26953125 -1.3125,0.421875 -2.1796875,0.421875 -1.171875,0 -2.1445312,-0.421875 -2.8710937,-1.27734372 -0.7148438,-0.8554688 -0.8554688,-2.25 -0.4335938,-4.21875 0.3984375,-1.8398438 1.1367188,-3.2929688 2.2734375,-4.3242188 1.125,-1.0429686 2.3203125,-1.5703126 3.5976563,-1.5703126 0.8554687,0 1.5820312,0.210938 2.1328125,0.65625 z m -2.1328125,0.9960939 c -1.3125,0 -2.3320313,0.609375 -3.0703125,1.8398437 -0.3984375,0.65625 -0.7148438,1.5 -0.9257813,2.5546875 -0.2695312,1.2421875 -0.2109375,2.1914063 0.1523438,2.8476563 0.3515625,0.65625 0.9609375,0.9726562 1.828125,0.9726562 1.3359375,0 2.390625,-0.5976562 3.1875,-1.7929687 0.4453125,-0.703125 0.7617187,-1.4765625 0.9609375,-2.390625 0.2929691,-1.3710938 0.2226562,-2.390625 -0.1992188,-3.0351563 -0.421875,-0.65625 -1.078125,-0.9960937 -1.9335937,-0.9960937 z m 0,0"
       style="fill:#000000;fill-opacity:1;fill-rule:nonzero;stroke:none"
       aria-label="g"
       transform="matrix(1.3333333,0,0,1.3333333,130.08747,144.19674)" />
    <path
       id="path11"
       d="m 50.27,100.539 -0.809,-0.977 -0.602,-1.148 -0.351,-1.277 -0.082,-1.336 0.203,-1.332 0.473,-1.254 0.714,-1.113 0.911,-0.914 1.054,-0.692 1.137,-0.449 1.168,-0.211 h 1.141 l 1.066,0.18 0.945,0.32 0.801,0.41 0.625,0.469 0.43,0.48 0.218,0.465 v 0.426 l -0.21,0.355 -0.414,0.278 -0.602,0.176 -0.762,0.054 -0.883,-0.086 -0.957,-0.242 -0.984,-0.422 -0.957,-0.613 -0.863,-0.801 -0.719,-0.988 -0.516,-1.145 -0.277,-1.257 -0.008,-1.317 0.274,-1.308 0.543,-1.235 0.785,-1.086 0.984,-0.89 1.125,-0.653 1.211,-0.39 1.227,-0.133 1.191,0.109 1.113,0.313 0.989,0.476 0.843,0.582 0.68,0.641 0.496,0.648 0.305,0.614 0.117,0.535 -0.078,0.437 -0.266,0.309 -0.433,0.172 -0.59,0.019 -0.707,-0.14 -0.793,-0.313 -0.832,-0.488 -0.813,-0.664 -0.738,-0.836 -0.609,-0.996 -0.426,-1.133 -0.199,-1.227 0.062,-1.281 0.336,-1.265 0.602,-1.188 0.847,-1.043 1.047,-0.848 1.188,-0.605 1.265,-0.332 1.278,-0.063 1.23,0.196 1.129,0.426 0.996,0.609 0.84,0.742 0.66,0.813 0.488,0.828 0.313,0.793 0.14,0.711 -0.015,0.586 -0.172,0.437 -0.313,0.262 -0.433,0.078 -0.539,-0.113 -0.613,-0.309 -0.649,-0.496 -0.641,-0.676 -0.582,-0.844 -0.476,-0.992 -0.313,-1.109 -0.105,-1.192 0.129,-1.23 0.394,-1.207 0.649,-1.125 0.89,-0.984 1.09,-0.79 1.231,-0.542 1.308,-0.274 1.321,0.008 1.257,0.277 1.141,0.52 0.988,0.719 0.805,0.863 0.609,0.953 0.422,0.984 0.246,0.961 0.082,0.883 -0.054,0.758 -0.176,0.601 -0.273,0.418 -0.36,0.211 -0.422,-0.004 -0.465,-0.218 -0.484,-0.426 -0.465,-0.625 -0.414,-0.801 -0.32,-0.949 -0.18,-1.063 v -1.14 l 0.215,-1.168 0.449,-1.141 0.688,-1.055 0.918,-0.91 1.109,-0.711 1.254,-0.472 1.332,-0.203 1.34,0.082 1.273,0.351 1.153,0.602 0.972,0.808"
       style="fill:none;stroke:#000000;stroke-width:0.9216;stroke-linecap:square;stroke-linejoin:miter;stroke-miterlimit:3.25;stroke-dasharray:none;stroke-opacity:1"
       transform="scale(1.3333333)" />
    <path
       id="path12"
       d="m 9.7624287,-10.582801 c 0.3164063,0.234375 0.5859373,0.5976558 0.8437503,1.0312495 l 0.316406,-1.3828125 h 1.710937 L 10.50071,-0.89139525 C 10.196022,0.503136 9.7624287,1.628136 9.1647724,2.425011 c -1.1015625,1.5 -2.7070312,2.2617188 -4.8398437,2.2617188 -1.1953125,0 -2.1328125,-0.2695313 -2.8242188,-0.796875 C 0.79758494,3.362511 0.50461619,2.5070423 0.65695994,1.3703235 H 2.5553974 c -0.023437,0.5039063 0.082031,0.890625 0.2929688,1.1601563 0.3164062,0.3984375 0.9492187,0.609375 1.8398437,0.609375 1.4414063,0 2.4726563,-0.5039063 3.1289063,-1.4882813 0.375,-0.5976562 0.7148437,-1.65234375 1.0078125,-3.1757812 -0.4804688,0.5507812 -1.0078125,0.9726562 -1.5820313,1.2539062 -0.5859375,0.26953125 -1.3125,0.421875 -2.1796875,0.421875 -1.171875,0 -2.1445312,-0.421875 -2.8710937,-1.2773437 -0.7148438,-0.8554688 -0.8554688,-2.25 -0.4335938,-4.21875 0.3984375,-1.8398438 1.1367188,-3.2929688 2.2734375,-4.3242188 1.125,-1.042969 2.3203125,-1.570312 3.5976563,-1.570312 0.8554687,0 1.5820312,0.210937 2.1328125,0.65625 z m -2.1328125,0.9960933 c -1.3125,0 -2.3320313,0.609375 -3.0703125,1.8398437 -0.3984375,0.65625 -0.7148438,1.5 -0.9257813,2.5546875 -0.2695312,1.2421875 -0.2109375,2.1914063 0.1523438,2.8476563 0.3515625,0.65625 0.9609375,0.9726562 1.828125,0.9726562 1.3359375,0 2.390625,-0.5976562 3.1875,-1.7929687 0.4453125,-0.703125 0.7617187,-1.4765625 0.9609375,-2.390625 0.2929683,-1.3710938 0.2226562,-2.390625 -0.1992188,-3.0351563 -0.421875,-0.65625 -1.078125,-0.9960937 -1.9335937,-0.9960937 z m 0,0"
       style="fill:#000000;fill-opacity:1;fill-rule:nonzero;stroke:none"
       aria-label="g"
       transform="matrix(1.3333333,0,0,1.3333333,57.612335,90.391652)" />
    <path
       id="path13"
       d="m 117.293,100.539 0.793,-1 0.578,-1.168 0.324,-1.289 0.047,-1.348 -0.234,-1.332 -0.508,-1.246 -0.75,-1.094 -0.941,-0.894 -1.082,-0.66 -1.157,-0.414 -1.179,-0.18 -1.141,0.035 -1.059,0.215 -0.937,0.348 -0.781,0.437 -0.598,0.485 -0.398,0.496 -0.18,0.468 0.035,0.422 0.254,0.352 0.453,0.262 0.641,0.148 0.793,0.023 0.906,-0.121 0.973,-0.293 0.984,-0.476 0.937,-0.668 0.832,-0.863 0.672,-1.039 0.453,-1.188 0.2,-1.289 -0.075,-1.328 -0.359,-1.297 -0.625,-1.199 -0.859,-1.039 -1.043,-0.821 -1.168,-0.57 -1.231,-0.305 -1.23,-0.047 -1.18,0.184 -1.082,0.383 -0.949,0.523 -0.793,0.621 -0.613,0.657 -0.43,0.648 -0.234,0.598 -0.04,0.512 0.157,0.398 0.34,0.262 0.503,0.113 0.649,-0.047 0.758,-0.215 0.82,-0.39 0.832,-0.567 0.793,-0.75 0.688,-0.918 0.535,-1.07 0.324,-1.192 0.078,-1.269 -0.195,-1.285 -0.469,-1.242 -0.73,-1.133 -0.957,-0.957 -1.133,-0.731 -1.243,-0.468 -1.285,-0.196 -1.269,0.078 -1.192,0.325 -1.07,0.531 -0.918,0.691 -0.75,0.793 -0.57,0.832 -0.387,0.821 -0.215,0.757 -0.047,0.649 0.114,0.504 0.261,0.34 0.399,0.156 0.512,-0.039 0.597,-0.235 0.649,-0.429 0.656,-0.614 0.621,-0.793 0.523,-0.949 0.383,-1.082 0.184,-1.179 -0.047,-1.231 -0.305,-1.23 -0.57,-1.168 -0.824,-1.043 -1.035,-0.86 -1.2,-0.625 -1.297,-0.359 -1.328,-0.078 -1.289,0.203 -1.187,0.453 -1.039,0.672 -0.864,0.832 -0.668,0.937 -0.476,0.985 -0.293,0.972 -0.125,0.907 0.023,0.793 0.153,0.636 0.261,0.457 0.352,0.254 0.422,0.035 0.469,-0.179 0.496,-0.399 0.484,-0.597 0.438,-0.782 0.347,-0.937 0.215,-1.059 0.035,-1.14 -0.179,-1.18 -0.415,-1.16 -0.66,-1.078 -0.894,-0.942 -1.094,-0.75 -1.246,-0.507 -1.332,-0.239 -1.348,0.051 -1.289,0.324 -1.168,0.578 -1,0.793"
       style="fill:none;stroke:#000000;stroke-width:0.9216;stroke-linecap:square;stroke-linejoin:miter;stroke-miterlimit:3.25;stroke-dasharray:none;stroke-opacity:1"
       transform="scale(1.3333333)" />
    <path
       id="path14"
       d="m 9.7618845,-10.580908 c 0.3164065,0.234375 0.5859375,0.5976563 0.8437505,1.0312501 l 0.316406,-1.3828121 h 1.710937 L 10.500166,-0.88950169 C 10.195478,0.50502956 9.7618845,1.6300296 9.1642283,2.4269046 8.0626658,3.9269046 6.457197,4.6886233 4.3243845,4.6886233 3.129072,4.6886233 2.191572,4.4190921 1.5001658,3.8917483 0.79704075,3.3644046 0.504072,2.5089358 0.65641575,1.3722171 H 2.5548533 c -0.023437,0.5039062 0.082031,0.890625 0.2929687,1.1601562 0.3164063,0.3984375 0.9492188,0.609375 1.8398438,0.609375 1.4414062,0 2.4726562,-0.5039062 3.1289062,-1.4882812 0.375,-0.5976563 0.7148438,-1.65234379 1.0078125,-3.1757813 -0.4804687,0.55078126 -1.0078125,0.97265626 -1.5820312,1.25390626 -0.5859375,0.26953125 -1.3125,0.421875 -2.1796875,0.421875 -1.171875,0 -2.1445313,-0.421875 -2.8710938,-1.27734376 -0.7148437,-0.8554687 -0.8554687,-2.25 -0.4335937,-4.21875 0.3984375,-1.8398437 1.1367187,-3.2929687 2.2734375,-4.3242187 1.125,-1.0429686 2.3203125,-1.5703126 3.5976562,-1.5703126 0.8554688,0 1.5820313,0.210938 2.1328125,0.65625 z M 7.629072,-9.5848142 c -1.3125,0 -2.3320312,0.609375 -3.0703125,1.8398438 -0.3984375,0.65625 -0.7148437,1.5 -0.9257812,2.5546875 -0.2695313,1.2421875 -0.2109375,2.1914062 0.1523437,2.8476562 0.3515625,0.65625 0.9609375,0.9726563 1.828125,0.9726563 1.3359375,0 2.390625,-0.5976563 3.1875,-1.7929688 0.4453125,-0.703125 0.7617188,-1.4765625 0.9609375,-2.390625 0.2929685,-1.3710937 0.2226563,-2.390625 -0.1992187,-3.0351562 -0.421875,-0.65625 -1.078125,-0.9960938 -1.9335938,-0.9960938 z m 0,0"
       style="fill:#000000;fill-opacity:1;fill-rule:nonzero;stroke:none"
       aria-label="g"
       transform="matrix(1.3333333,0,0,1.3333333,148.7654,90.682096)" />
    <path
       id="path15"
       d="m 87.469,67.027 c 0,0.977 -0.391,1.914 -1.082,2.606 -0.692,0.691 -1.629,1.078 -2.606,1.078 -0.976,0 -1.914,-0.387 -2.605,-1.078 -0.692,-0.692 -1.082,-1.629 -1.082,-2.606 0,-0.98 0.39,-1.918 1.082,-2.609 0.691,-0.691 1.629,-1.078 2.605,-1.078 0.977,0 1.914,0.387 2.606,1.078 0.691,0.691 1.082,1.629 1.082,2.609 z"
       style="fill:#000000;fill-opacity:1;fill-rule:evenodd;stroke:none"
       transform="scale(1.3333333)" />
    <path
       id="path16"
       d="m 87.469,134.051 c 0,0.976 -0.391,1.914 -1.082,2.605 -0.692,0.692 -1.629,1.082 -2.606,1.082 -0.976,0 -1.914,-0.39 -2.605,-1.082 -0.692,-0.691 -1.082,-1.629 -1.082,-2.605 0,-0.977 0.39,-1.914 1.082,-2.606 0.691,-0.691 1.629,-1.082 2.605,-1.082 0.977,0 1.914,0.391 2.606,1.082 0.691,0.692 1.082,1.629 1.082,2.606 z"
       style="fill:#000000;fill-opacity:1;fill-rule:evenodd;stroke:none"
       transform="scale(1.3333333)" />
    <path
       id="path17"
       d="m 53.957,100.539 c 0,0.977 -0.391,1.914 -1.082,2.606 -0.691,0.691 -1.629,1.078 -2.605,1.078 -0.977,0 -1.915,-0.387 -2.606,-1.078 -0.691,-0.692 -1.082,-1.629 -1.082,-2.606 0,-0.98 0.391,-1.918 1.082,-2.609 0.691,-0.692 1.629,-1.078 2.606,-1.078 0.976,0 1.914,0.386 2.605,1.078 0.691,0.691 1.082,1.629 1.082,2.609 z"
       style="fill:#000000;fill-opacity:1;fill-rule:evenodd;stroke:none"
       transform="scale(1.3333333)" />
    <path
       id="path18"
       d="m 120.98,100.539 c 0,0.977 -0.386,1.914 -1.078,2.606 -0.691,0.691 -1.629,1.078 -2.609,1.078 -0.977,0 -1.914,-0.387 -2.605,-1.078 -0.692,-0.692 -1.079,-1.629 -1.079,-2.606 0,-0.98 0.387,-1.918 1.079,-2.609 0.691,-0.692 1.628,-1.078 2.605,-1.078 0.98,0 1.918,0.386 2.609,1.078 0.692,0.691 1.078,1.629 1.078,2.609 z"
       style="fill:#000000;fill-opacity:1;fill-rule:evenodd;stroke:none"
       transform="scale(1.3333333)" />
    <path
       id="path19"
       d="m 234.59,100.539 -0.996,0.836 -1.141,0.648 -1.238,0.426 -1.297,0.18 -1.305,-0.074 -1.269,-0.325 -1.184,-0.558 -1.062,-0.762 -0.899,-0.93 -0.711,-1.05 -0.508,-1.118 -0.296,-1.124 -0.082,-1.083 0.109,-0.976 0.281,-0.832 0.418,-0.637 0.52,-0.41 0.574,-0.168 0.582,0.09 0.543,0.336 0.457,0.57 0.328,0.77 0.164,0.937 -0.019,1.055 -0.227,1.121 -0.441,1.125 -0.649,1.074 -0.844,0.973 -1.015,0.82 -1.149,0.625 -1.246,0.402 -1.3,0.153 -1.305,-0.102 -1.262,-0.347 -1.176,-0.582 -1.043,-0.782 -0.882,-0.945 -0.692,-1.059 -0.484,-1.121 -0.274,-1.125 -0.062,-1.07 0.129,-0.969 0.297,-0.808 0.433,-0.614 0.528,-0.386 0.578,-0.141 0.578,0.113 0.535,0.364 0.445,0.589 0.313,0.793 0.148,0.95 -0.043,1.066 -0.25,1.121 -0.465,1.125 -0.668,1.067 -0.863,0.96 -1.027,0.801 -1.164,0.602 -1.254,0.375 -1.305,0.125 -1.301,-0.125 -1.254,-0.375 -1.164,-0.602 -1.027,-0.801 -0.863,-0.96 -0.672,-1.067 -0.461,-1.125 -0.25,-1.121 -0.043,-1.066 0.148,-0.95 0.313,-0.793 0.445,-0.589 0.535,-0.364 0.579,-0.113 0.578,0.141 0.527,0.386 0.434,0.614 0.296,0.808 0.129,0.969 -0.066,1.07 -0.27,1.125 -0.484,1.121 -0.691,1.059 -0.883,0.945 -1.043,0.782 -1.176,0.582 -1.262,0.347 -1.304,0.102 -1.301,-0.153 -1.246,-0.402 -1.153,-0.625 -1.011,-0.82 -0.844,-0.973 -0.648,-1.074 -0.442,-1.125 -0.226,-1.121 -0.024,-1.055 0.168,-0.937 0.328,-0.77 0.457,-0.57 0.539,-0.336 0.582,-0.09 0.575,0.168 0.519,0.41 0.422,0.637 0.281,0.832 0.11,0.976 -0.086,1.083 -0.293,1.124 -0.508,1.118 -0.711,1.05 -0.899,0.93 -1.062,0.762 -1.184,0.558 -1.269,0.325 -1.309,0.074 -1.293,-0.18 -1.242,-0.426 -1.137,-0.648 -0.996,-0.836"
       style="fill:none;stroke:#000000;stroke-width:0.9216;stroke-linecap:square;stroke-linejoin:miter;stroke-miterlimit:3.25;stroke-dasharray:none;stroke-opacity:1"
       transform="scale(1.3333333)" />
    <path
       id="path20"
       d="m 9.7622519,-10.581262 c 0.3164061,0.234375 0.5859371,0.5976558 0.8437501,1.0312496 l 0.316406,-1.3828126 h 1.710938 L 10.500533,-0.88985619 C 10.195846,0.50467506 9.7622519,1.6296751 9.1645956,2.4265501 c -1.1015625,1.5 -2.7070312,2.2617187 -4.8398437,2.2617187 -1.1953125,0 -2.1328125,-0.2695312 -2.8242188,-0.796875 C 0.79740813,3.3640501 0.50443938,2.5085813 0.65678313,1.3718626 H 2.5552206 c -0.023437,0.5039062 0.082031,0.890625 0.2929688,1.1601562 0.3164062,0.3984375 0.9492187,0.609375 1.8398437,0.609375 1.4414063,0 2.4726563,-0.5039062 3.1289063,-1.4882812 0.375,-0.5976563 0.7148437,-1.6523437875 1.0078125,-3.1757813 -0.4804688,0.55078126 -1.0078125,0.97265626 -1.5820313,1.25390626 -0.5859375,0.2695312525 -1.3125,0.421875 -2.1796875,0.421875 -1.171875,0 -2.1445312,-0.421875 -2.8710937,-1.27734376 -0.7148438,-0.8554687 -0.8554688,-2.25 -0.4335938,-4.21875 0.3984375,-1.8398437 1.1367188,-3.2929687 2.2734375,-4.3242187 1.125,-1.0429691 2.3203125,-1.5703121 3.5976563,-1.5703121 0.8554687,0 1.5820312,0.210937 2.1328125,0.65625 z m -2.1328125,0.9960933 c -1.3125,0 -2.3320313,0.609375 -3.0703125,1.8398438 -0.3984375,0.65625 -0.7148438,1.5 -0.9257813,2.5546875 -0.2695312,1.2421875 -0.2109375,2.1914062 0.1523438,2.8476562 0.3515625,0.65625 0.9609375,0.9726563 1.828125,0.9726563 1.3359375,0 2.390625,-0.5976563 3.1875,-1.7929688 0.4453125,-0.703125 0.7617187,-1.4765625 0.9609375,-2.390625 0.2929691,-1.3710937 0.2226562,-2.390625 -0.1992188,-3.0351562 -0.421875,-0.65625 -1.078125,-0.9960938 -1.9335937,-0.9960938 z m 0,0"
       style="fill:#000000;fill-opacity:1;fill-rule:nonzero;stroke:none"
       aria-label="g"
       transform="matrix(1.3333333,0,0,1.3333333,270.89773,171.21382)" />
    <path
       id="path21"
       d="m 301.613,100.539 1,-0.84 1.137,-0.648 1.238,-0.422 1.297,-0.18 1.305,0.074 1.269,0.325 1.188,0.554 1.058,0.766 0.899,0.93 0.715,1.047 0.504,1.117 0.297,1.129 0.085,1.078 -0.113,0.98 -0.281,0.828 -0.418,0.637 -0.52,0.414 -0.574,0.164 -0.582,-0.086 -0.543,-0.336 -0.453,-0.57 -0.332,-0.773 -0.164,-0.938 0.02,-1.055 0.23,-1.117 0.437,-1.125 0.653,-1.078 0.84,-0.973 1.015,-0.82 1.149,-0.625 1.25,-0.398 1.297,-0.153 1.304,0.098 1.262,0.352 1.176,0.578 1.043,0.785 0.883,0.941 0.691,1.063 0.484,1.117 0.274,1.125 0.062,1.074 -0.129,0.965 -0.296,0.812 -0.434,0.614 -0.527,0.386 -0.579,0.141 -0.578,-0.113 -0.535,-0.363 -0.445,-0.59 -0.313,-0.793 -0.148,-0.953 0.043,-1.063 0.25,-1.121 0.465,-1.125 0.668,-1.066 0.863,-0.961 1.031,-0.801 1.16,-0.606 1.254,-0.371 1.305,-0.129 1.301,0.129 1.254,0.371 1.164,0.606 1.027,0.801 0.863,0.961 0.672,1.066 0.461,1.125 0.25,1.121 0.043,1.063 -0.148,0.953 -0.313,0.793 -0.445,0.59 -0.531,0.363 -0.582,0.113 -0.578,-0.141 -0.528,-0.386 -0.43,-0.614 -0.3,-0.812 -0.129,-0.965 0.066,-1.074 0.27,-1.125 0.488,-1.117 0.691,-1.063 0.879,-0.941 1.047,-0.785 1.172,-0.578 1.262,-0.352 1.304,-0.098 1.301,0.153 1.246,0.398 1.153,0.625 1.011,0.82 0.844,0.973 0.649,1.078 0.441,1.125 0.227,1.117 0.023,1.055 -0.168,0.938 -0.328,0.773 -0.457,0.57 -0.539,0.336 -0.582,0.086 -0.574,-0.164 -0.52,-0.414 -0.422,-0.637 -0.281,-0.828 -0.109,-0.98 0.085,-1.078 0.293,-1.129 0.508,-1.117 0.711,-1.047 0.903,-0.93 1.058,-0.766 1.184,-0.554 1.269,-0.325 1.309,-0.074 1.297,0.18 1.238,0.422 1.137,0.648 0.996,0.84"
       style="fill:none;stroke:#000000;stroke-width:0.9216;stroke-linecap:square;stroke-linejoin:miter;stroke-miterlimit:3.25;stroke-dasharray:none;stroke-opacity:1"
       transform="scale(1.3333333)" />
    <path
       id="path22"
       d="m 9.7606746,-10.580756 c 0.3164064,0.234375 0.5859374,0.5976562 0.8437504,1.0312499 l 0.316406,-1.3828129 h 1.710937 L 10.498956,-0.88934981 C 10.194268,0.50518144 9.7606746,1.6301814 9.1630184,2.4270564 c -1.1015625,1.5 -2.7070313,2.2617188 -4.8398438,2.2617188 -1.1953125,0 -2.1328125,-0.2695313 -2.8242187,-0.796875 C 0.79583087,3.3645564 0.50286212,2.5090877 0.65520587,1.3723689 H 2.5536434 c -0.023437,0.5039063 0.082031,0.890625 0.2929687,1.1601563 0.3164063,0.3984375 0.9492188,0.609375 1.8398438,0.609375 1.4414062,0 2.4726562,-0.5039063 3.1289062,-1.4882813 0.375,-0.5976562 0.7148438,-1.65234371 1.0078125,-3.1757812 -0.4804687,0.55078124 -1.0078125,0.97265624 -1.5820312,1.25390624 -0.5859375,0.26953125 -1.3125,0.421875 -2.1796875,0.421875 -1.171875,0 -2.1445313,-0.421875 -2.8710938,-1.27734374 -0.7148437,-0.8554688 -0.8554687,-2.25 -0.4335937,-4.21875 0.3984375,-1.8398438 1.1367187,-3.2929688 2.2734375,-4.3242188 1.125,-1.0429684 2.3203125,-1.5703124 3.5976562,-1.5703124 0.8554688,0 1.5820313,0.210937 2.1328125,0.65625 z m -2.1328125,0.9960937 c -1.3125,0 -2.3320312,0.609375 -3.0703125,1.8398437 -0.3984375,0.65625 -0.7148437,1.5 -0.9257812,2.5546875 -0.2695313,1.2421875 -0.2109375,2.1914063 0.1523437,2.8476563 0.3515625,0.65625 0.9609375,0.9726562 1.828125,0.9726562 1.3359375,0 2.390625,-0.5976562 3.1875,-1.7929687 0.4453125,-0.703125 0.7617188,-1.4765625 0.9609375,-2.390625 0.2929684,-1.3710938 0.2226563,-2.390625 -0.1992187,-3.0351563 -0.421875,-0.65625 -1.078125,-0.9960937 -1.9335938,-0.9960937 z m 0,0"
       style="fill:#000000;fill-opacity:1;fill-rule:nonzero;stroke:none"
       aria-label="g"
       transform="matrix(1.3333333,0,0,1.3333333,427.29045,179.03346)" />
    <path
       id="path23"
       d="m 234.59,100.539 c 0,8.887 3.531,17.41 9.816,23.695 6.285,6.286 14.809,9.817 23.696,9.817 8.886,0 17.414,-3.531 23.699,-9.817 6.281,-6.285 9.812,-14.808 9.812,-23.695"
       style="fill:none;stroke:#000000;stroke-width:0.9216;stroke-linecap:square;stroke-linejoin:miter;stroke-miterlimit:3.25;stroke-dasharray:none;stroke-opacity:1"
       transform="scale(1.3333333)" />
    <path
       id="path24"
       d="m 273.129,134.051 -10.055,3.351 v -6.703 z"
       style="fill:#000000;fill-opacity:1;fill-rule:evenodd;stroke:none"
       transform="scale(1.3333333)" />
    <path
       id="path25"
       d="m 5.5544316,-11.026608 -1.5585937,7.3359379 c -0.1289063,0.5507812 -0.1289063,1.0078125 -0.023437,1.3710937 0.1875,0.65625 0.7148437,0.984375 1.6289062,0.984375 1.2773438,0 2.296875,-0.5625 3.0117188,-1.7226562 0.3867187,-0.6210938 0.6796875,-1.4765625 0.9140625,-2.5546875 l 1.1601566,-5.4140629 h 1.851563 L 10.195057,7.36125e-4 H 8.4489629 L 8.8005254,-1.6281701 c -0.328125,0.421875 -0.6914063,0.78515623 -1.1132813,1.07812498 -0.84375,0.57421875 -1.7578125,0.8671875 -2.765625,0.8671875 -1.5820312,0 -2.53125,-0.52734375 -2.8710937,-1.58203128 -0.1875,-0.5742187 -0.1875,-1.3125 0,-2.2617187 l 1.6054687,-7.5000004 z m 0,0"
       style="fill:#000000;fill-opacity:1;fill-rule:nonzero;stroke:none"
       aria-label="u"
       transform="matrix(1.3333333,0,0,1.3333333,349.14878,215.89746)" />
    <path
       id="path26"
       d="m 251.344,71.215 c -11.203,5.269 -17.906,16.996 -16.754,29.324"
       style="fill:none;stroke:#000000;stroke-width:0.9216;stroke-linecap:square;stroke-linejoin:miter;stroke-miterlimit:3.25;stroke-dasharray:none;stroke-opacity:1"
       transform="scale(1.3333333)" />
    <path
       id="path27"
       d="m 235.84,87.594 2.078,-10.391 5.82,3.324 z"
       style="fill:#000000;fill-opacity:1;fill-rule:evenodd;stroke:none"
       transform="scale(1.3333333)" />
    <path
       id="path28"
       d="M 5.5535888,-11.027837 3.994995,-3.6918992 c -0.1289062,0.5507813 -0.1289062,1.0078125 -0.023437,1.3710938 0.1875,0.65625 0.7148438,0.984375 1.6289063,0.984375 1.2773437,0 2.296875,-0.5625 3.0117187,-1.7226563 0.3867183,-0.6210937 0.679687,-1.4765625 0.914062,-2.5546875 l 1.160156,-5.4140628 h 1.851563 L 10.194214,-4.929375e-4 H 8.44812 L 8.7996825,-1.6293992 c -0.328125,0.421875 -0.6914062,0.78515626 -1.1132812,1.07812501 -0.84375,0.57421875 -1.7578125,0.8671875 -2.765625,0.8671875 -1.5820313,0 -2.53125,-0.52734375 -2.8710938,-1.58203121 -0.1875,-0.5742188 -0.1875,-1.3125 0,-2.2617188 l 1.6054688,-7.5000003 z m 0,0"
       style="fill:#000000;fill-opacity:1;fill-rule:nonzero;stroke:none"
       aria-label="u"
       transform="matrix(1.3333333,0,0,1.3333333,292.86084,102.82488)" />
    <path
       id="path29"
       d="m 284.859,71.215 c -1.152,-5.113 -4.57,-9.418 -9.289,-11.695 -4.718,-2.282 -10.218,-2.282 -14.937,0 -4.719,2.277 -8.137,6.582 -9.289,11.695"
       style="fill:none;stroke:#000000;stroke-width:0.9216;stroke-linecap:square;stroke-linejoin:miter;stroke-miterlimit:3.25;stroke-dasharray:none;stroke-opacity:1"
       transform="scale(1.3333333)" />
    <path
       id="path30"
       d="m 263.074,57.809 10.055,-3.352 v 6.703 z"
       style="fill:#000000;fill-opacity:1;fill-rule:evenodd;stroke:none"
       transform="scale(1.3333333)" />
    <path
       id="path31"
       d="m 5.5544316,-11.028092 -1.5585937,7.3359372 c -0.1289063,0.5507812 -0.1289063,1.0078125 -0.023437,1.3710937 0.1875,0.65625 0.7148437,0.984375 1.6289062,0.984375 1.2773438,0 2.296875,-0.5625 3.0117188,-1.7226562 0.3867187,-0.6210938 0.6796875,-1.4765625 0.9140625,-2.5546875 l 1.1601566,-5.4140622 h 1.851563 L 10.195057,-7.485625e-4 H 8.4489629 L 8.8005254,-1.6296548 c -0.328125,0.421875 -0.6914063,0.78515624 -1.1132813,1.07812499 -0.84375,0.57421875 -1.7578125,0.8671875 -2.765625,0.8671875 -1.5820312,0 -2.53125,-0.52734375 -2.8710937,-1.58203129 -0.1875,-0.5742187 -0.1875,-1.3125 0,-2.2617187 l 1.6054687,-7.4999997 z m 0,0"
       style="fill:#000000;fill-opacity:1;fill-rule:nonzero;stroke:none"
       aria-label="u"
       transform="matrix(1.3333333,0,0,1.3333333,349.14878,60.208029)" />
    <path
       id="path32"
       d="m 251.344,71.215 -0.602,1.277 -0.23,1.457 0.191,1.516 0.609,1.43 0.973,1.207 1.235,0.875 1.378,0.472 1.399,0.067 1.312,-0.309 1.157,-0.598 0.968,-0.8 0.762,-0.891 0.566,-0.895 0.372,-0.808 0.179,-0.668 -0.019,-0.488 -0.219,-0.289 -0.43,-0.09 -0.625,0.105 -0.785,0.289 -0.89,0.481 -0.926,0.672 -0.864,0.882 -0.707,1.082 -0.441,1.258 -0.094,1.379 0.309,1.41 0.719,1.313 1.086,1.097 1.355,0.766 1.492,0.367 1.488,-0.062 1.356,-0.457 1.129,-0.789 0.851,-1.02 0.575,-1.148 0.324,-1.18 0.121,-1.125 -0.027,-0.988 -0.137,-0.797 -0.219,-0.563 -0.297,-0.293 -0.371,-0.015 -0.445,0.258 -0.504,0.511 -0.535,0.746 -0.504,0.953 -0.395,1.122 -0.203,1.242 0.074,1.308 0.415,1.293 0.781,1.168 1.121,0.942 1.39,0.613 1.54,0.215 1.539,-0.215 1.39,-0.613 1.125,-0.942 0.778,-1.168 0.414,-1.293 0.074,-1.308 -0.203,-1.242 -0.395,-1.122 -0.504,-0.953 -0.531,-0.746 -0.508,-0.511 -0.445,-0.258 -0.371,0.015 -0.297,0.293 -0.219,0.563 -0.137,0.797 -0.027,0.988 0.121,1.125 0.324,1.18 0.575,1.148 0.851,1.02 1.129,0.789 1.356,0.457 1.488,0.062 1.496,-0.367 1.355,-0.766 1.082,-1.097 0.719,-1.313 0.309,-1.41 -0.094,-1.379 -0.441,-1.258 -0.703,-1.082 -0.868,-0.882 -0.925,-0.672 -0.891,-0.481 -0.785,-0.289 -0.625,-0.105 -0.426,0.09 -0.223,0.289 -0.019,0.488 0.18,0.668 0.371,0.808 0.566,0.895 0.766,0.891 0.965,0.8 1.156,0.598 1.312,0.309 1.399,-0.067 1.379,-0.472 1.234,-0.875 0.973,-1.207 0.609,-1.43 0.191,-1.516 -0.226,-1.457 -0.606,-1.277"
       style="fill:none;stroke:#000000;stroke-width:0.9216;stroke-linecap:square;stroke-linejoin:miter;stroke-miterlimit:3.25;stroke-dasharray:none;stroke-opacity:1"
       transform="scale(1.3333333)" />
    <path
       id="path33"
       d="m 9.7614633,-10.582639 c 0.3164067,0.234375 0.5859377,0.5976559 0.8437497,1.0312497 l 0.316407,-1.3828127 h 1.710937 L 10.499745,-0.89123306 C 10.195057,0.50329819 9.7614633,1.6282982 9.163807,2.4251732 c -1.1015625,1.5 -2.7070312,2.2617187 -4.8398437,2.2617187 -1.1953125,0 -2.1328125,-0.2695312 -2.8242188,-0.796875 C 0.7966195,3.3626732 0.50365075,2.5072044 0.6559945,1.3704857 H 2.554432 c -0.023437,0.5039062 0.082031,0.890625 0.2929688,1.1601562 0.3164062,0.3984375 0.9492187,0.609375 1.8398437,0.609375 1.4414063,0 2.4726563,-0.5039062 3.1289063,-1.4882812 0.375,-0.5976563 0.7148437,-1.6523437625 1.0078125,-3.1757813 -0.4804688,0.55078129 -1.0078125,0.97265629 -1.5820313,1.25390629 -0.5859375,0.2695312475 -1.3125,0.421875 -2.1796875,0.421875 -1.171875,0 -2.1445312,-0.421875 -2.8710937,-1.27734379 -0.7148438,-0.8554687 -0.8554688,-2.25 -0.4335938,-4.21875 0.3984375,-1.8398437 1.1367188,-3.2929687 2.2734375,-4.3242187 1.125,-1.0429692 2.3203125,-1.5703122 3.5976563,-1.5703122 0.8554687,0 1.5820312,0.210937 2.1328125,0.65625 z m -2.1328125,0.9960934 c -1.3125,0 -2.3320313,0.609375 -3.0703125,1.8398438 -0.3984375,0.65625 -0.7148438,1.5 -0.9257813,2.5546875 -0.2695312,1.2421875 -0.2109375,2.1914062 0.1523438,2.8476562 0.3515625,0.65625 0.9609375,0.9726563 1.828125,0.9726563 1.3359375,0 2.390625,-0.5976563 3.1875,-1.7929688 0.4453125,-0.703125 0.7617187,-1.4765625 0.9609375,-2.390625 0.2929687,-1.3710937 0.2226562,-2.390625 -0.1992188,-3.0351562 -0.421875,-0.65625 -1.078125,-0.9960938 -1.9335937,-0.9960938 z m 0,0"
       style="fill:#000000;fill-opacity:1;fill-rule:nonzero;stroke:none"
       aria-label="g"
       transform="matrix(1.3333333,0,0,1.3333333,349.09409,149.98909)" />
    <path
       id="path34"
       d="M 301.613,100.539 C 302.625,88.238 295.969,76.586 284.859,71.215"
       style="fill:none;stroke:#000000;stroke-width:0.9216;stroke-linecap:square;stroke-linejoin:miter;stroke-miterlimit:3.25;stroke-dasharray:none;stroke-opacity:1"
       transform="scale(1.3333333)" />
    <path
       id="path35"
       d="m 295.289,78.914 7.895,7.066 -5.817,3.325 z"
       style="fill:#000000;fill-opacity:1;fill-rule:evenodd;stroke:none"
       transform="scale(1.3333333)" />
    <path
       id="path36"
       d="m 5.5553559,-11.028301 -1.5585938,7.3359375 c -0.1289062,0.5507813 -0.1289062,1.0078125 -0.023437,1.3710938 0.1875,0.65625 0.7148438,0.984375 1.6289063,0.984375 1.2773437,0 2.296875,-0.5625 3.0117187,-1.7226563 0.3867188,-0.6210937 0.6796875,-1.4765625 0.9140625,-2.5546875 l 1.1601564,-5.4140625 h 1.851563 L 10.195981,-9.5725e-4 H 8.4498871 L 8.8014496,-1.6298635 c -0.328125,0.421875 -0.6914062,0.78515625 -1.1132812,1.078125 -0.84375,0.57421875 -1.7578125,0.8671875 -2.765625,0.8671875 -1.5820313,0 -2.53125,-0.52734375 -2.8710938,-1.5820312 -0.1875,-0.5742188 -0.1875,-1.3125 0,-2.2617188 l 1.6054688,-7.5 z m 0,0"
       style="fill:#000000;fill-opacity:1;fill-rule:nonzero;stroke:none"
       aria-label="u"
       transform="matrix(1.3333333,0,0,1.3333333,405.31942,102.8919)" />
    <path
       id="path37"
       d="m 288.543,71.215 c 0,0.976 -0.387,1.914 -1.078,2.605 -0.692,0.692 -1.629,1.082 -2.606,1.082 -0.98,0 -1.918,-0.39 -2.609,-1.082 -0.691,-0.691 -1.078,-1.629 -1.078,-2.605 0,-0.977 0.387,-1.914 1.078,-2.606 0.691,-0.691 1.629,-1.082 2.609,-1.082 0.977,0 1.914,0.391 2.606,1.082 0.691,0.692 1.078,1.629 1.078,2.606 z"
       style="fill:#000000;fill-opacity:1;fill-rule:evenodd;stroke:none"
       transform="scale(1.3333333)" />
    <path
       id="path38"
       d="m 255.031,71.215 c 0,0.976 -0.386,1.914 -1.078,2.605 -0.691,0.692 -1.629,1.082 -2.609,1.082 -0.977,0 -1.914,-0.39 -2.606,-1.082 -0.691,-0.691 -1.078,-1.629 -1.078,-2.605 0,-0.977 0.387,-1.914 1.078,-2.606 0.692,-0.691 1.629,-1.082 2.606,-1.082 0.98,0 1.918,0.391 2.609,1.082 0.692,0.692 1.078,1.629 1.078,2.606 z"
       style="fill:#000000;fill-opacity:1;fill-rule:evenodd;stroke:none"
       transform="scale(1.3333333)" />
    <path
       id="path39"
       d="m 238.277,100.539 c 0,0.977 -0.39,1.914 -1.082,2.606 -0.691,0.691 -1.629,1.078 -2.605,1.078 -0.977,0 -1.918,-0.387 -2.61,-1.078 -0.687,-0.692 -1.078,-1.629 -1.078,-2.606 0,-0.98 0.391,-1.918 1.078,-2.609 0.692,-0.692 1.633,-1.078 2.61,-1.078 0.976,0 1.914,0.386 2.605,1.078 0.692,0.691 1.082,1.629 1.082,2.609 z"
       style="fill:#000000;fill-opacity:1;fill-rule:evenodd;stroke:none"
       transform="scale(1.3333333)" />
    <path
       id="path40"
       d="m 305.301,100.539 c 0,0.977 -0.387,1.914 -1.078,2.606 -0.692,0.691 -1.629,1.078 -2.61,1.078 -0.976,0 -1.914,-0.387 -2.605,-1.078 -0.692,-0.692 -1.078,-1.629 -1.078,-2.606 0,-0.98 0.386,-1.918 1.078,-2.609 0.691,-0.692 1.629,-1.078 2.605,-1.078 0.981,0 1.918,0.386 2.61,1.078 0.691,0.691 1.078,1.629 1.078,2.609 z"
       style="fill:#000000;fill-opacity:1;fill-rule:evenodd;stroke:none"
       transform="scale(1.3333333)" />
    <path
       id="path41"
       d="m 418.91,100.539 -0.996,0.836 -1.141,0.648 -1.238,0.426 -1.297,0.18 -1.304,-0.074 -1.27,-0.325 -1.184,-0.558 -1.062,-0.762 -0.898,-0.93 -0.715,-1.05 -0.504,-1.118 -0.297,-1.124 -0.082,-1.083 0.109,-0.976 0.281,-0.832 0.418,-0.637 0.52,-0.41 0.574,-0.168 0.582,0.09 0.543,0.336 0.457,0.57 0.328,0.77 0.164,0.937 -0.019,1.055 -0.231,1.121 -0.437,1.125 -0.649,1.074 -0.843,0.973 -1.016,0.82 -1.148,0.625 -1.25,0.402 -1.297,0.153 -1.305,-0.102 -1.262,-0.347 -1.175,-0.582 -1.043,-0.782 -0.883,-0.945 -0.692,-1.059 -0.484,-1.121 -0.273,-1.125 -0.063,-1.07 0.129,-0.969 0.297,-0.808 0.434,-0.614 0.527,-0.386 0.578,-0.141 0.578,0.113 0.535,0.364 0.446,0.589 0.312,0.793 0.148,0.95 -0.042,1.066 -0.25,1.121 -0.465,1.125 -0.668,1.067 -0.864,0.96 -1.027,0.801 -1.164,0.602 -1.254,0.375 -1.305,0.125 -1.3,-0.125 -1.254,-0.375 -1.164,-0.602 -1.028,-0.801 -0.863,-0.96 -0.672,-1.067 -0.461,-1.125 -0.25,-1.121 -0.043,-1.066 0.149,-0.95 0.312,-0.793 0.446,-0.589 0.535,-0.364 0.578,-0.113 0.578,0.141 0.527,0.386 0.43,0.614 0.301,0.808 0.129,0.969 -0.067,1.07 -0.269,1.125 -0.485,1.121 -0.691,1.059 -0.883,0.945 -1.047,0.782 -1.172,0.582 -1.261,0.347 -1.305,0.102 -1.301,-0.153 -1.246,-0.402 -1.152,-0.625 -1.012,-0.82 -0.844,-0.973 -0.648,-1.074 -0.442,-1.125 -0.226,-1.121 -0.024,-1.055 0.168,-0.937 0.329,-0.77 0.457,-0.57 0.539,-0.336 0.582,-0.09 0.574,0.168 0.519,0.41 0.422,0.637 0.282,0.832 0.109,0.976 -0.086,1.083 -0.293,1.124 -0.508,1.118 -0.711,1.05 -0.902,0.93 -1.059,0.762 -1.183,0.558 -1.27,0.325 -1.308,0.074 -1.297,-0.18 -1.239,-0.426 -1.136,-0.648 -0.996,-0.836"
       style="fill:none;stroke:#000000;stroke-width:0.9216;stroke-linecap:square;stroke-linejoin:miter;stroke-miterlimit:3.25;stroke-dasharray:none;stroke-opacity:1"
       transform="scale(1.3333333)" />
    <path
       id="path42"
       d="m 9.7606113,-10.581262 c 0.3164067,0.234375 0.5859377,0.5976558 0.8437497,1.0312496 l 0.316407,-1.3828126 h 1.710937 L 10.498893,-0.88985619 C 10.194205,0.50467506 9.7606113,1.6296751 9.162955,2.4265501 c -1.1015625,1.5 -2.7070312,2.2617187 -4.8398437,2.2617187 -1.1953125,0 -2.1328125,-0.2695312 -2.8242188,-0.796875 C 0.7957675,3.3640501 0.50279875,2.5085813 0.6551425,1.3718626 H 2.55358 c -0.023437,0.5039062 0.082031,0.890625 0.2929688,1.1601562 0.3164062,0.3984375 0.9492187,0.609375 1.8398437,0.609375 1.4414063,0 2.4726563,-0.5039062 3.1289063,-1.4882812 0.375,-0.5976563 0.7148437,-1.6523437875 1.0078125,-3.1757813 -0.4804688,0.55078126 -1.0078125,0.97265626 -1.5820313,1.25390626 -0.5859375,0.2695312525 -1.3125,0.421875 -2.1796875,0.421875 -1.171875,0 -2.1445312,-0.421875 -2.8710937,-1.27734376 -0.7148438,-0.8554687 -0.8554688,-2.25 -0.4335938,-4.21875 0.3984375,-1.8398437 1.1367188,-3.2929687 2.2734375,-4.3242187 1.125,-1.0429691 2.3203125,-1.5703121 3.5976563,-1.5703121 0.8554687,0 1.5820312,0.210937 2.1328125,0.65625 z m -2.1328125,0.9960933 c -1.3125,0 -2.3320313,0.609375 -3.0703125,1.8398438 -0.3984375,0.65625 -0.7148438,1.5 -0.9257813,2.5546875 -0.2695312,1.2421875 -0.2109375,2.1914062 0.1523438,2.8476562 0.3515625,0.65625 0.9609375,0.9726563 1.828125,0.9726563 1.3359375,0 2.390625,-0.5976563 3.1875,-1.7929688 0.4453125,-0.703125 0.7617187,-1.4765625 0.9609375,-2.390625 0.2929687,-1.3710937 0.2226562,-2.390625 -0.1992188,-3.0351562 -0.421875,-0.65625 -1.078125,-0.9960938 -1.9335937,-0.9960938 z m 0,0"
       style="fill:#000000;fill-opacity:1;fill-rule:nonzero;stroke:none"
       aria-label="g"
       transform="matrix(1.3333333,0,0,1.3333333,516.65773,171.21382)" />
    <path
       id="path43"
       d="m 485.934,100.539 0.996,-0.84 1.14,-0.648 1.239,-0.422 1.296,-0.18 1.305,0.074 1.27,0.325 1.183,0.554 1.063,0.766 0.898,0.93 0.711,1.047 0.508,1.117 0.297,1.129 0.082,1.078 -0.11,0.98 -0.281,0.828 -0.418,0.637 -0.519,0.414 -0.574,0.164 -0.582,-0.086 -0.543,-0.336 -0.457,-0.57 -0.329,-0.773 -0.164,-0.938 0.02,-1.055 0.23,-1.117 0.438,-1.125 0.648,-1.078 0.844,-0.973 1.016,-0.82 1.148,-0.625 1.246,-0.398 1.301,-0.153 1.305,0.098 1.261,0.352 1.176,0.578 1.043,0.785 0.883,0.941 0.691,1.063 0.485,1.117 0.273,1.125 0.063,1.074 -0.129,0.965 -0.297,0.812 -0.434,0.614 -0.527,0.386 -0.578,0.141 -0.578,-0.113 -0.535,-0.363 -0.446,-0.59 -0.312,-0.793 -0.149,-0.953 0.043,-1.063 0.25,-1.121 0.465,-1.125 0.668,-1.066 0.863,-0.961 1.028,-0.801 1.164,-0.606 1.254,-0.371 1.304,-0.129 1.301,0.129 1.254,0.371 1.164,0.606 1.027,0.801 0.864,0.961 0.672,1.066 0.46,1.125 0.25,1.121 0.043,1.063 -0.148,0.953 -0.312,0.793 -0.446,0.59 -0.535,0.363 -0.578,0.113 -0.578,-0.141 -0.528,-0.386 -0.433,-0.614 -0.297,-0.812 -0.129,-0.965 0.067,-1.074 0.269,-1.125 0.484,-1.117 0.692,-1.063 0.883,-0.941 1.046,-0.785 1.172,-0.578 1.262,-0.352 1.305,-0.098 1.301,0.153 1.246,0.398 1.152,0.625 1.012,0.82 0.843,0.973 0.649,1.078 0.441,1.125 0.227,1.117 0.023,1.055 -0.168,0.938 -0.328,0.773 -0.457,0.57 -0.539,0.336 -0.582,0.086 -0.574,-0.164 -0.52,-0.414 -0.422,-0.637 -0.281,-0.828 -0.109,-0.98 0.086,-1.078 0.293,-1.129 0.508,-1.117 0.71,-1.047 0.903,-0.93 1.058,-0.766 1.184,-0.554 1.27,-0.325 1.308,-0.074 1.293,0.18 1.242,0.422 1.137,0.648 0.996,0.84"
       style="fill:none;stroke:#000000;stroke-width:0.9216;stroke-linecap:square;stroke-linejoin:miter;stroke-miterlimit:3.25;stroke-dasharray:none;stroke-opacity:1"
       transform="scale(1.3333333)" />
    <path
       id="path44"
       d="m 9.7619637,-10.580756 c 0.3164063,0.234375 0.5859373,0.5976562 0.8437503,1.0312499 l 0.316406,-1.3828129 h 1.710937 L 10.500245,-0.88934981 C 10.195557,0.50518144 9.7619637,1.6301814 9.1643074,2.4270564 c -1.1015625,1.5 -2.7070312,2.2617188 -4.8398437,2.2617188 -1.1953125,0 -2.1328125,-0.2695313 -2.8242188,-0.796875 C 0.79711994,3.3645564 0.50415119,2.5090877 0.65649494,1.3723689 H 2.5549324 c -0.023437,0.5039063 0.082031,0.890625 0.2929688,1.1601563 0.3164062,0.3984375 0.9492187,0.609375 1.8398437,0.609375 1.4414063,0 2.4726563,-0.5039063 3.1289063,-1.4882813 0.375,-0.5976562 0.7148437,-1.65234371 1.0078125,-3.1757812 -0.4804688,0.55078124 -1.0078125,0.97265624 -1.5820313,1.25390624 -0.5859375,0.26953125 -1.3125,0.421875 -2.1796875,0.421875 -1.171875,0 -2.1445312,-0.421875 -2.8710937,-1.27734374 -0.7148438,-0.8554688 -0.8554688,-2.25 -0.4335938,-4.21875 0.3984375,-1.8398438 1.1367188,-3.2929688 2.2734375,-4.3242188 1.125,-1.0429684 2.3203125,-1.5703124 3.5976563,-1.5703124 0.8554687,0 1.5820312,0.210937 2.1328125,0.65625 z m -2.1328125,0.9960937 c -1.3125,0 -2.3320313,0.609375 -3.0703125,1.8398437 -0.3984375,0.65625 -0.7148438,1.5 -0.9257813,2.5546875 -0.2695312,1.2421875 -0.2109375,2.1914063 0.1523438,2.8476563 0.3515625,0.65625 0.9609375,0.9726562 1.828125,0.9726562 1.3359375,0 2.390625,-0.5976562 3.1875,-1.7929687 0.4453125,-0.703125 0.7617187,-1.4765625 0.9609375,-2.390625 0.2929683,-1.3710938 0.2226562,-2.390625 -0.1992188,-3.0351563 -0.421875,-0.65625 -1.078125,-0.9960937 -1.9335937,-0.9960937 z m 0,0"
       style="fill:#000000;fill-opacity:1;fill-rule:nonzero;stroke:none"
       aria-label="g"
       transform="matrix(1.3333333,0,0,1.3333333,673.05045,179.03346)" />
    <path
       id="path45"
       d="m 418.91,100.539 c 0,8.887 3.531,17.41 9.817,23.695 6.281,6.286 14.808,9.817 23.695,9.817 8.887,0 17.414,-3.531 23.695,-9.817 6.285,-6.285 9.817,-14.808 9.817,-23.695"
       style="fill:none;stroke:#000000;stroke-width:0.9216;stroke-linecap:square;stroke-linejoin:miter;stroke-miterlimit:3.25;stroke-dasharray:none;stroke-opacity:1"
       transform="scale(1.3333333)" />
    <path
       id="path46"
       d="m 447.395,134.051 10.054,3.351 v -6.703 z"
       style="fill:#000000;fill-opacity:1;fill-rule:evenodd;stroke:none"
       transform="scale(1.3333333)" />
    <path
       id="path47"
       d="m 5.5557207,-11.026608 -1.5585938,7.3359379 c -0.1289062,0.5507812 -0.1289062,1.0078125 -0.023437,1.3710937 0.1875,0.65625 0.7148438,0.984375 1.6289063,0.984375 1.2773437,0 2.296875,-0.5625 3.0117187,-1.7226562 0.3867188,-0.6210938 0.6796875,-1.4765625 0.9140625,-2.5546875 l 1.1601566,-5.4140629 h 1.851563 L 10.196346,7.36125e-4 H 8.4502519 L 8.8018144,-1.6281701 c -0.328125,0.421875 -0.6914062,0.78515623 -1.1132812,1.07812498 -0.84375,0.57421875 -1.7578125,0.8671875 -2.765625,0.8671875 -1.5820313,0 -2.53125,-0.52734375 -2.8710938,-1.58203128 -0.1875,-0.5742187 -0.1875,-1.3125 0,-2.2617187 l 1.6054688,-7.5000004 z m 0,0"
       style="fill:#000000;fill-opacity:1;fill-rule:nonzero;stroke:none"
       aria-label="u"
       transform="matrix(1.3333333,0,0,1.3333333,594.90878,215.89746)" />
    <path
       id="path48"
       d="m 435.664,71.215 c -11.203,5.269 -17.906,16.996 -16.754,29.324"
       style="fill:none;stroke:#000000;stroke-width:0.9216;stroke-linecap:square;stroke-linejoin:miter;stroke-miterlimit:3.25;stroke-dasharray:none;stroke-opacity:1"
       transform="scale(1.3333333)" />
    <path
       id="path49"
       d="m 425.148,78.863 -7.898,7.067 5.82,3.328 z"
       style="fill:#000000;fill-opacity:1;fill-rule:evenodd;stroke:none"
       transform="scale(1.3333333)" />
    <path
       id="path50"
       d="m 5.5548778,-11.027837 -1.5585937,7.3359378 c -0.1289063,0.5507813 -0.1289063,1.0078125 -0.023437,1.3710938 0.1875,0.65625 0.7148437,0.984375 1.6289062,0.984375 1.2773438,0 2.296875,-0.5625 3.0117188,-1.7226563 0.3867187,-0.6210937 0.6796875,-1.4765625 0.9140625,-2.5546875 L 10.68769,-11.027837 h 1.851563 L 10.195503,-4.929375e-4 H 8.4494091 L 8.8009716,-1.6293992 c -0.328125,0.421875 -0.6914063,0.78515626 -1.1132813,1.07812501 -0.84375,0.57421875 -1.7578125,0.8671875 -2.765625,0.8671875 -1.5820312,0 -2.53125,-0.52734375 -2.8710937,-1.58203121 -0.1875,-0.5742188 -0.1875,-1.3125 0,-2.2617188 l 1.6054687,-7.5000003 z m 0,0"
       style="fill:#000000;fill-opacity:1;fill-rule:nonzero;stroke:none"
       aria-label="u"
       transform="matrix(1.3333333,0,0,1.3333333,538.62084,102.82488)" />
    <path
       id="path51"
       d="m 469.18,71.215 c -1.153,-5.113 -4.571,-9.418 -9.289,-11.695 -4.719,-2.282 -10.219,-2.282 -14.938,0 -4.719,2.277 -8.137,6.582 -9.289,11.695"
       style="fill:none;stroke:#000000;stroke-width:0.9216;stroke-linecap:square;stroke-linejoin:miter;stroke-miterlimit:3.25;stroke-dasharray:none;stroke-opacity:1"
       transform="scale(1.3333333)" />
    <path
       id="path52"
       d="M 457.449,57.809 447.395,54.457 V 61.16 Z"
       style="fill:#000000;fill-opacity:1;fill-rule:evenodd;stroke:none"
       transform="scale(1.3333333)" />
    <path
       id="path53"
       d="m 5.5557207,-11.028092 -1.5585938,7.3359372 c -0.1289062,0.5507812 -0.1289062,1.0078125 -0.023437,1.3710937 0.1875,0.65625 0.7148438,0.984375 1.6289063,0.984375 1.2773437,0 2.296875,-0.5625 3.0117187,-1.7226562 0.3867188,-0.6210938 0.6796875,-1.4765625 0.9140625,-2.5546875 l 1.1601566,-5.4140622 h 1.851563 L 10.196346,-7.485625e-4 H 8.4502519 L 8.8018144,-1.6296548 c -0.328125,0.421875 -0.6914062,0.78515624 -1.1132812,1.07812499 -0.84375,0.57421875 -1.7578125,0.8671875 -2.765625,0.8671875 -1.5820313,0 -2.53125,-0.52734375 -2.8710938,-1.58203129 -0.1875,-0.5742187 -0.1875,-1.3125 0,-2.2617187 l 1.6054688,-7.4999997 z m 0,0"
       style="fill:#000000;fill-opacity:1;fill-rule:nonzero;stroke:none"
       aria-label="u"
       transform="matrix(1.3333333,0,0,1.3333333,594.90878,60.208029)" />
    <path
       id="path54"
       d="m 435.664,71.215 -0.602,1.277 -0.23,1.457 0.191,1.516 0.61,1.43 0.972,1.207 1.235,0.875 1.379,0.472 1.398,0.067 1.313,-0.309 1.156,-0.598 0.969,-0.8 0.761,-0.891 0.567,-0.895 0.371,-0.808 0.18,-0.668 -0.02,-0.488 -0.223,-0.289 -0.425,-0.09 -0.625,0.105 -0.786,0.289 -0.89,0.481 -0.926,0.672 -0.867,0.882 -0.703,1.082 -0.442,1.258 -0.093,1.379 0.308,1.41 0.719,1.313 1.086,1.097 1.351,0.766 1.497,0.367 1.488,-0.062 1.355,-0.457 1.129,-0.789 0.852,-1.02 0.574,-1.148 0.324,-1.18 0.121,-1.125 -0.027,-0.988 -0.137,-0.797 -0.219,-0.563 -0.296,-0.293 -0.371,-0.015 -0.446,0.258 -0.508,0.511 -0.531,0.746 -0.504,0.953 -0.394,1.122 -0.203,1.242 0.074,1.308 0.414,1.293 0.777,1.168 1.125,0.942 1.391,0.613 1.539,0.215 1.539,-0.215 1.391,-0.613 1.125,-0.942 0.777,-1.168 0.414,-1.293 0.074,-1.308 -0.203,-1.242 -0.394,-1.122 -0.504,-0.953 -0.532,-0.746 -0.507,-0.511 -0.446,-0.258 -0.371,0.015 -0.297,0.293 -0.218,0.563 -0.137,0.797 -0.028,0.988 0.122,1.125 0.324,1.18 0.574,1.148 0.852,1.02 1.128,0.789 1.356,0.457 1.488,0.062 1.496,-0.367 1.352,-0.766 1.086,-1.097 0.719,-1.313 0.308,-1.41 -0.094,-1.379 -0.441,-1.258 -0.703,-1.082 -0.867,-0.882 -0.926,-0.672 -0.891,-0.481 -0.785,-0.289 -0.625,-0.105 -0.43,0.09 -0.218,0.289 -0.02,0.488 0.18,0.668 0.371,0.808 0.566,0.895 0.762,0.891 0.969,0.8 1.156,0.598 1.313,0.309 1.398,-0.067 1.379,-0.472 1.234,-0.875 0.973,-1.207 0.609,-1.43 0.192,-1.516 -0.231,-1.457 -0.601,-1.277"
       style="fill:none;stroke:#000000;stroke-width:0.9216;stroke-linecap:square;stroke-linejoin:miter;stroke-miterlimit:3.25;stroke-dasharray:none;stroke-opacity:1"
       transform="scale(1.3333333)" />
    <path
       id="path55"
       d="m 9.7627523,-10.582639 c 0.3164067,0.234375 0.5859377,0.5976559 0.8437497,1.0312497 l 0.316407,-1.3828127 h 1.710937 L 10.501034,-0.89123306 C 10.196346,0.50329819 9.7627523,1.6282982 9.1650961,2.4251732 c -1.1015625,1.5 -2.7070313,2.2617187 -4.8398438,2.2617187 -1.1953125,0 -2.1328125,-0.2695312 -2.8242187,-0.796875 C 0.79790856,3.3626732 0.50493981,2.5072044 0.65728356,1.3704857 H 2.5557211 c -0.023437,0.5039062 0.082031,0.890625 0.2929687,1.1601562 0.3164063,0.3984375 0.9492188,0.609375 1.8398438,0.609375 1.4414062,0 2.4726562,-0.5039062 3.1289062,-1.4882812 0.375,-0.5976563 0.7148438,-1.6523437625 1.0078125,-3.1757813 -0.4804687,0.55078129 -1.0078125,0.97265629 -1.5820312,1.25390629 -0.5859375,0.2695312475 -1.3125,0.421875 -2.1796875,0.421875 -1.171875,0 -2.1445313,-0.421875 -2.8710938,-1.27734379 -0.7148437,-0.8554687 -0.8554687,-2.25 -0.4335937,-4.21875 0.3984375,-1.8398437 1.1367187,-3.2929687 2.2734375,-4.3242187 1.125,-1.0429692 2.3203125,-1.5703122 3.5976562,-1.5703122 0.8554688,0 1.5820313,0.210937 2.1328125,0.65625 z m -2.1328125,0.9960934 c -1.3125,0 -2.3320312,0.609375 -3.0703125,1.8398438 -0.3984375,0.65625 -0.7148437,1.5 -0.9257812,2.5546875 -0.2695313,1.2421875 -0.2109375,2.1914062 0.1523437,2.8476562 0.3515625,0.65625 0.9609375,0.9726563 1.828125,0.9726563 1.3359375,0 2.390625,-0.5976563 3.1875,-1.7929688 0.4453125,-0.703125 0.7617188,-1.4765625 0.9609375,-2.390625 0.2929687,-1.3710937 0.2226563,-2.390625 -0.1992187,-3.0351562 -0.421875,-0.65625 -1.078125,-0.9960938 -1.9335938,-0.9960938 z m 0,0"
       style="fill:#000000;fill-opacity:1;fill-rule:nonzero;stroke:none"
       aria-label="g"
       transform="matrix(1.3333333,0,0,1.3333333,594.85409,149.98909)" />
    <path
       id="path56"
       d="M 485.934,100.539 C 486.945,88.238 480.285,76.586 469.18,71.215"
       style="fill:none;stroke:#000000;stroke-width:0.9216;stroke-linecap:square;stroke-linejoin:miter;stroke-miterlimit:3.25;stroke-dasharray:none;stroke-opacity:1"
       transform="scale(1.3333333)" />
    <path
       id="path57"
       d="m 484.594,87.645 -2.078,-10.395 -5.817,3.328 z"
       style="fill:#000000;fill-opacity:1;fill-rule:evenodd;stroke:none"
       transform="scale(1.3333333)" />
    <path
       id="path58"
       d="m 5.5537152,-11.028301 -1.5585937,7.3359375 c -0.1289063,0.5507813 -0.1289063,1.0078125 -0.023437,1.3710938 0.1875,0.65625 0.7148437,0.984375 1.6289062,0.984375 1.2773438,0 2.296875,-0.5625 3.0117188,-1.7226563 0.3867187,-0.6210937 0.6796875,-1.4765625 0.9140625,-2.5546875 l 1.160156,-5.4140625 H 12.53809 L 10.19434,-9.5725e-4 H 8.4482465 L 8.799809,-1.6298635 c -0.328125,0.421875 -0.6914063,0.78515625 -1.1132813,1.078125 -0.84375,0.57421875 -1.7578125,0.8671875 -2.765625,0.8671875 -1.5820312,0 -2.53125,-0.52734375 -2.8710937,-1.5820312 -0.1875,-0.5742188 -0.1875,-1.3125 0,-2.2617188 l 1.6054687,-7.5 z m 0,0"
       style="fill:#000000;fill-opacity:1;fill-rule:nonzero;stroke:none"
       aria-label="u"
       transform="matrix(1.3333333,0,0,1.3333333,651.07942,102.8919)" />
    <path
       id="path59"
       d="m 472.863,71.215 c 0,0.976 -0.386,1.914 -1.078,2.605 -0.691,0.692 -1.629,1.082 -2.605,1.082 -0.981,0 -1.918,-0.39 -2.61,-1.082 -0.691,-0.691 -1.078,-1.629 -1.078,-2.605 0,-0.977 0.387,-1.914 1.078,-2.606 0.692,-0.691 1.629,-1.082 2.61,-1.082 0.976,0 1.914,0.391 2.605,1.082 0.692,0.692 1.078,1.629 1.078,2.606 z"
       style="fill:#000000;fill-opacity:1;fill-rule:evenodd;stroke:none"
       transform="scale(1.3333333)" />
    <path
       id="path60"
       d="m 439.352,71.215 c 0,0.976 -0.387,1.914 -1.079,2.605 -0.691,0.692 -1.628,1.082 -2.609,1.082 -0.976,0 -1.914,-0.39 -2.605,-1.082 -0.692,-0.691 -1.079,-1.629 -1.079,-2.605 0,-0.977 0.387,-1.914 1.079,-2.606 0.691,-0.691 1.629,-1.082 2.605,-1.082 0.981,0 1.918,0.391 2.609,1.082 0.692,0.692 1.079,1.629 1.079,2.606 z"
       style="fill:#000000;fill-opacity:1;fill-rule:evenodd;stroke:none"
       transform="scale(1.3333333)" />
    <path
       id="path61"
       d="m 422.594,100.539 c 0,0.977 -0.387,1.914 -1.078,2.606 -0.692,0.691 -1.629,1.078 -2.606,1.078 -0.98,0 -1.918,-0.387 -2.609,-1.078 -0.692,-0.692 -1.078,-1.629 -1.078,-2.606 0,-0.98 0.386,-1.918 1.078,-2.609 0.691,-0.692 1.629,-1.078 2.609,-1.078 0.977,0 1.914,0.386 2.606,1.078 0.691,0.691 1.078,1.629 1.078,2.609 z"
       style="fill:#000000;fill-opacity:1;fill-rule:evenodd;stroke:none"
       transform="scale(1.3333333)" />
    <path
       id="path62"
       d="m 489.621,100.539 c 0,0.977 -0.387,1.914 -1.078,2.606 -0.691,0.691 -1.629,1.078 -2.609,1.078 -0.977,0 -1.914,-0.387 -2.606,-1.078 -0.691,-0.692 -1.078,-1.629 -1.078,-2.606 0,-0.98 0.387,-1.918 1.078,-2.609 0.692,-0.692 1.629,-1.078 2.606,-1.078 0.98,0 1.918,0.386 2.609,1.078 0.691,0.691 1.078,1.629 1.078,2.609 z"
       style="fill:#000000;fill-opacity:1;fill-rule:evenodd;stroke:none"
       transform="scale(1.3333333)" />
    <path
       id="path63"
       d="m 603.23,100.539 -1,0.836 -1.136,0.648 -1.239,0.426 -1.296,0.18 -1.305,-0.074 -1.27,-0.325 -1.187,-0.558 -1.059,-0.762 -0.898,-0.93 -0.715,-1.05 -0.504,-1.118 -0.297,-1.124 -0.086,-1.083 0.114,-0.976 0.281,-0.832 0.418,-0.637 0.519,-0.41 0.575,-0.168 0.582,0.09 0.543,0.336 0.453,0.57 0.332,0.77 0.164,0.937 -0.02,1.055 -0.23,1.121 -0.438,1.125 -0.652,1.074 -0.84,0.973 -1.016,0.82 -1.148,0.625 -1.25,0.402 -1.297,0.153 -1.305,-0.102 -1.261,-0.347 -1.176,-0.582 -1.043,-0.782 -0.883,-0.945 -0.691,-1.059 -0.485,-1.121 -0.273,-1.125 -0.063,-1.07 0.129,-0.969 0.297,-0.808 0.434,-0.614 0.527,-0.386 0.578,-0.141 0.578,0.113 0.536,0.364 0.445,0.589 0.312,0.793 0.149,0.95 -0.043,1.066 -0.25,1.121 -0.465,1.125 -0.668,1.067 -0.863,0.96 -1.032,0.801 -1.16,0.602 -1.254,0.375 -1.304,0.125 -1.301,-0.125 -1.254,-0.375 -1.164,-0.602 -1.031,-0.801 -0.86,-0.96 -0.672,-1.067 -0.46,-1.125 -0.25,-1.121 -0.043,-1.066 0.148,-0.95 0.313,-0.793 0.445,-0.589 0.531,-0.364 0.582,-0.113 0.578,0.141 0.528,0.386 0.429,0.614 0.301,0.808 0.129,0.969 -0.066,1.07 -0.27,1.125 -0.488,1.121 -0.692,1.059 -0.879,0.945 -1.046,0.782 -1.172,0.582 -1.262,0.347 -1.305,0.102 -1.301,-0.153 -1.246,-0.402 -1.152,-0.625 -1.012,-0.82 -0.843,-0.973 -0.649,-1.074 -0.441,-1.125 -0.227,-1.121 -0.023,-1.055 0.168,-0.937 0.328,-0.77 0.457,-0.57 0.539,-0.336 0.582,-0.09 0.574,0.168 0.52,0.41 0.422,0.637 0.281,0.832 0.109,0.976 -0.086,1.083 -0.293,1.124 -0.508,1.118 -0.71,1.05 -0.903,0.93 -1.058,0.762 -1.184,0.558 -1.269,0.325 -1.309,0.074 -1.297,-0.18 -1.238,-0.426 -1.137,-0.648 -0.996,-0.836"
       style="fill:none;stroke:#000000;stroke-width:0.9216;stroke-linecap:square;stroke-linejoin:miter;stroke-miterlimit:3.25;stroke-dasharray:none;stroke-opacity:1"
       transform="scale(1.3333333)" />
    <path
       id="path64"
       d="m 9.7619003,-10.581262 c 0.3164067,0.234375 0.5859377,0.5976558 0.8437497,1.0312496 l 0.316407,-1.3828126 h 1.710937 L 10.500182,-0.88985619 C 10.195494,0.50467506 9.7619003,1.6296751 9.1642441,2.4265501 c -1.1015625,1.5 -2.7070313,2.2617187 -4.8398438,2.2617187 -1.1953125,0 -2.1328125,-0.2695312 -2.8242187,-0.796875 C 0.79705656,3.3640501 0.50408781,2.5085813 0.65643156,1.3718626 H 2.5548691 c -0.023437,0.5039062 0.082031,0.890625 0.2929687,1.1601562 0.3164063,0.3984375 0.9492188,0.609375 1.8398438,0.609375 1.4414062,0 2.4726562,-0.5039062 3.1289062,-1.4882812 0.375,-0.5976563 0.7148438,-1.6523437875 1.0078125,-3.1757813 -0.4804687,0.55078126 -1.0078125,0.97265626 -1.5820312,1.25390626 -0.5859375,0.2695312525 -1.3125,0.421875 -2.1796875,0.421875 -1.171875,0 -2.1445313,-0.421875 -2.8710938,-1.27734376 -0.7148437,-0.8554687 -0.8554687,-2.25 -0.4335937,-4.21875 0.3984375,-1.8398437 1.1367187,-3.2929687 2.2734375,-4.3242187 1.125,-1.0429691 2.3203125,-1.5703121 3.5976562,-1.5703121 0.8554688,0 1.5820313,0.210937 2.1328125,0.65625 z m -2.1328125,0.9960933 c -1.3125,0 -2.3320312,0.609375 -3.0703125,1.8398438 -0.3984375,0.65625 -0.7148437,1.5 -0.9257812,2.5546875 -0.2695313,1.2421875 -0.2109375,2.1914062 0.1523437,2.8476562 0.3515625,0.65625 0.9609375,0.9726563 1.828125,0.9726563 1.3359375,0 2.390625,-0.5976563 3.1875,-1.7929688 0.4453125,-0.703125 0.7617188,-1.4765625 0.9609375,-2.390625 0.2929687,-1.3710937 0.2226563,-2.390625 -0.1992187,-3.0351562 -0.421875,-0.65625 -1.078125,-0.9960938 -1.9335938,-0.9960938 z m 0,0"
       style="fill:#000000;fill-opacity:1;fill-rule:nonzero;stroke:none"
       aria-label="g"
       transform="matrix(1.3333333,0,0,1.3333333,762.41773,171.21382)" />
    <path
       id="path65"
       d="m 670.254,100.539 0.996,-0.84 1.141,-0.648 1.238,-0.422 1.297,-0.18 1.304,0.074 1.27,0.325 1.184,0.554 1.062,0.766 0.899,0.93 0.71,1.047 0.508,1.117 0.297,1.129 0.082,1.078 -0.109,0.98 -0.281,0.828 -0.418,0.637 -0.52,0.414 -0.574,0.164 -0.582,-0.086 -0.543,-0.336 -0.457,-0.57 -0.328,-0.773 -0.168,-0.938 0.023,-1.055 0.227,-1.117 0.441,-1.125 0.649,-1.078 0.843,-0.973 1.016,-0.82 1.148,-0.625 1.246,-0.398 1.301,-0.153 1.305,0.098 1.262,0.352 1.175,0.578 1.043,0.785 0.883,0.941 0.692,1.063 0.484,1.117 0.273,1.125 0.063,1.074 -0.129,0.965 -0.297,0.812 -0.433,0.614 -0.528,0.386 -0.578,0.141 -0.578,-0.113 -0.535,-0.363 -0.446,-0.59 -0.312,-0.793 -0.148,-0.953 0.043,-1.063 0.25,-1.121 0.46,-1.125 0.672,-1.066 0.864,-0.961 1.027,-0.801 1.164,-0.606 1.254,-0.371 1.305,-0.129 1.3,0.129 1.254,0.371 1.164,0.606 1.028,0.801 0.863,0.961 0.672,1.066 0.461,1.125 0.25,1.121 0.043,1.063 -0.149,0.953 -0.312,0.793 -0.445,0.59 -0.536,0.363 -0.578,0.113 -0.578,-0.141 -0.527,-0.386 -0.434,-0.614 -0.297,-0.812 -0.129,-0.965 0.067,-1.074 0.269,-1.125 0.485,-1.117 0.691,-1.063 0.883,-0.941 1.043,-0.785 1.176,-0.578 1.261,-0.352 1.305,-0.098 1.301,0.153 1.246,0.398 1.152,0.625 1.012,0.82 0.844,0.973 0.648,1.078 0.442,1.125 0.226,1.117 0.024,1.055 -0.168,0.938 -0.328,0.773 -0.458,0.57 -0.539,0.336 -0.582,0.086 -0.574,-0.164 -0.519,-0.414 -0.422,-0.637 -0.281,-0.828 -0.11,-0.98 0.086,-1.078 0.293,-1.129 0.508,-1.117 0.711,-1.047 0.898,-0.93 1.063,-0.766 1.183,-0.554 1.27,-0.325 1.308,-0.074 1.293,0.18 1.243,0.422 1.136,0.648 0.996,0.84"
       style="fill:none;stroke:#000000;stroke-width:0.9216;stroke-linecap:square;stroke-linejoin:miter;stroke-miterlimit:3.25;stroke-dasharray:none;stroke-opacity:1"
       transform="scale(1.3333333)" />
    <path
       id="path66"
       d="m 9.7603231,-10.580756 c 0.3164059,0.234375 0.5859379,0.5976562 0.8437499,1.0312499 l 0.316406,-1.3828129 h 1.710938 L 10.498604,-0.88934981 C 10.193917,0.50518144 9.7603231,1.6301814 9.1626668,2.4270564 c -1.1015625,1.5 -2.7070312,2.2617188 -4.8398437,2.2617188 -1.1953125,0 -2.1328125,-0.2695313 -2.8242188,-0.796875 C 0.79547931,3.3645564 0.50251056,2.5090877 0.65485431,1.3723689 H 2.5532918 c -0.023437,0.5039063 0.082031,0.890625 0.2929688,1.1601563 0.3164062,0.3984375 0.9492187,0.609375 1.8398437,0.609375 1.4414063,0 2.4726563,-0.5039063 3.1289063,-1.4882813 0.375,-0.5976562 0.7148437,-1.65234371 1.0078125,-3.1757812 -0.4804688,0.55078124 -1.0078125,0.97265624 -1.5820313,1.25390624 -0.5859375,0.26953125 -1.3125,0.421875 -2.1796875,0.421875 -1.171875,0 -2.1445312,-0.421875 -2.8710937,-1.27734374 -0.7148438,-0.8554688 -0.8554688,-2.25 -0.4335938,-4.21875 0.3984375,-1.8398438 1.1367188,-3.2929688 2.2734375,-4.3242188 1.125,-1.0429684 2.3203125,-1.5703124 3.5976563,-1.5703124 0.8554687,0 1.5820312,0.210937 2.1328125,0.65625 z m -2.1328125,0.9960937 c -1.3125,0 -2.3320313,0.609375 -3.0703125,1.8398437 -0.3984375,0.65625 -0.7148438,1.5 -0.9257813,2.5546875 -0.2695312,1.2421875 -0.2109375,2.1914063 0.1523438,2.8476563 0.3515625,0.65625 0.9609375,0.9726562 1.828125,0.9726562 1.3359375,0 2.390625,-0.5976562 3.1875,-1.7929687 0.4453125,-0.703125 0.7617187,-1.4765625 0.9609375,-2.390625 0.2929689,-1.3710938 0.2226562,-2.390625 -0.1992188,-3.0351563 -0.421875,-0.65625 -1.078125,-0.9960937 -1.9335937,-0.9960937 z m 0,0"
       style="fill:#000000;fill-opacity:1;fill-rule:nonzero;stroke:none"
       aria-label="g"
       transform="matrix(1.3333333,0,0,1.3333333,918.81045,179.03346)" />
    <path
       id="path67"
       d="m 603.23,100.539 c 0,8.887 3.532,17.41 9.813,23.695 6.285,6.286 14.812,9.817 23.699,9.817 8.887,0 17.41,-3.531 23.696,-9.817 6.285,-6.285 9.816,-14.808 9.816,-23.695"
       style="fill:none;stroke:#000000;stroke-width:0.9216;stroke-linecap:butt;stroke-linejoin:miter;stroke-miterlimit:3.25;stroke-dasharray:0.9216, 5.5296;stroke-dashoffset:0;stroke-opacity:1"
       transform="scale(1.3333333)" />
    <path
       id="path68"
       d="m 641.77,134.051 -10.055,3.351 v -6.703 z"
       style="fill:#000000;fill-opacity:1;fill-rule:evenodd;stroke:none"
       transform="scale(1.3333333)" />
    <path
       id="path69"
       d="M 5.5553698,-11.02856 3.996776,-3.6926225 c -0.1289062,0.5507812 -0.1289062,1.0078125 -0.023437,1.3710937 0.1875,0.65625 0.7148438,0.984375 1.6289063,0.984375 1.2773437,0 2.296875,-0.5625 3.0117187,-1.7226562 0.3867188,-0.6210938 0.6796875,-1.4765625 0.9140625,-2.5546875 L 10.688183,-11.02856 h 1.851563 l -2.34375,11.02734375 H 8.449901 L 8.8014635,-1.6301225 c -0.328125,0.421875 -0.6914062,0.78515625 -1.1132812,1.078125 -0.84375,0.57421875 -1.7578125,0.8671875 -2.765625,0.8671875 -1.5820313,0 -2.53125,-0.52734375 -2.8710938,-1.5820313 -0.1875,-0.5742187 -0.1875,-1.3125 0,-2.2617187 l 1.6054688,-7.5 z m 0,0"
       style="fill:#000000;fill-opacity:1;fill-rule:nonzero;stroke:none"
       aria-label="u"
       transform="matrix(1.3333333,0,0,1.3333333,834.98347,205.26725)" />
    <path
       id="path70"
       d="m 6.8795885,-7.4543414 c 0.2226562,0.1640625 0.4101562,0.4101563 0.5976562,0.7265625 l 0.2226563,-0.984375 h 1.1953125 l -1.5,7.08984377 C 7.184276,0.35034612 6.8795885,1.1472211 6.4577135,1.7097211 5.684276,2.7644086 4.559276,3.3034711 3.0475572,3.3034711 c -0.84375,0 -1.5,-0.1992187 -1.9921875,-0.5625 -0.49218745,-0.375 -0.70312495,-0.9726562 -0.5976562,-1.76953123 h 1.3476562 c -0.023437,0.35156253 0.058594,0.62109373 0.1992188,0.80859373 0.234375,0.2929688 0.6796875,0.4335938 1.3007812,0.4335938 1.0078125,0 1.7460938,-0.3515625 2.203125,-1.0546875 0.2695313,-0.41015628 0.5039063,-1.16015628 0.7148438,-2.2265625 -0.3398438,0.38671872 -0.7148438,0.67968747 -1.1132813,0.86718747 -0.421875,0.19921875 -0.9257812,0.3046875 -1.5351562,0.3046875 -0.8320313,0 -1.5234375,-0.3046875 -2.0273438,-0.890625 C 1.043651,-1.3957476 0.93818225,-2.3801226 1.231151,-3.7629351 c 0.2929687,-1.3007813 0.8085937,-2.3203125 1.6171875,-3.0585938 0.7851562,-0.7265625 1.6289062,-1.1015625 2.5195312,-1.1015625 0.6210938,0 1.125,0.1523438 1.5117188,0.46875 z m -1.5117188,0.6914063 c -0.9140625,0 -1.6289062,0.4335937 -2.15625,1.3007812 -0.28125,0.4570313 -0.5039062,1.0546875 -0.65625,1.8046875 -0.1875,0.8789063 -0.140625,1.546875 0.1054688,2.0039063 0.2578125,0.4570312 0.6914062,0.67968747 1.3007812,0.67968747 0.9375,0 1.6757813,-0.41015627 2.25,-1.26562497 0.3046875,-0.4804688 0.5273438,-1.03125 0.6679688,-1.6757813 0.2109375,-0.9726562 0.1640625,-1.6875 -0.140625,-2.1445312 -0.2929688,-0.4570313 -0.75,-0.703125 -1.3710938,-0.703125 z m 0,0"
       style="fill:#000000;fill-opacity:1;fill-rule:nonzero;stroke:none"
       aria-label="g"
       transform="matrix(1.3333333,0,0,1.3333333,850.54597,210.49381)" />
    <path
       id="path71"
       d="m 619.984,71.215 c -11.203,5.269 -17.906,16.996 -16.754,29.324"
       style="fill:none;stroke:#000000;stroke-width:0.9216;stroke-linecap:butt;stroke-linejoin:miter;stroke-miterlimit:3.25;stroke-dasharray:0.9216, 5.5296;stroke-dashoffset:0;stroke-opacity:1"
       transform="scale(1.3333333)" />
    <path
       id="path72"
       d="m 604.48,87.594 2.079,-10.391 5.82,3.324 z"
       style="fill:#000000;fill-opacity:1;fill-rule:evenodd;stroke:none"
       transform="scale(1.3333333)" />
    <path
       id="path73"
       d="m 5.5558146,-11.02686 -1.5585938,7.3359373 c -0.1289062,0.5507812 -0.1289062,1.0078125 -0.023437,1.3710937 0.1875,0.65625 0.7148438,0.984375 1.6289063,0.984375 1.2773437,0 2.296875,-0.5625 3.0117187,-1.7226562 0.3867188,-0.6210938 0.6796875,-1.4765625 0.9140625,-2.5546875 L 10.688627,-11.02686 H 12.54019 L 10.19644,4.835e-4 H 8.4503458 l 0.3515625,-1.6289062 c -0.328125,0.421875 -0.6914062,0.7851562 -1.1132812,1.07812495 -0.84375,0.57421875 -1.7578125,0.8671875 -2.765625,0.8671875 -1.5820313,0 -2.53125,-0.52734375 -2.8710938,-1.58203125 -0.1875,-0.5742187 -0.1875,-1.3125 0,-2.2617187 L 3.6573771,-11.02686 Z m 0,0"
       style="fill:#000000;fill-opacity:1;fill-rule:nonzero;stroke:none"
       aria-label="u"
       transform="matrix(1.3333333,0,0,1.3333333,773.01022,98.155605)" />
    <path
       id="path74"
       d="m 6.8800333,-7.4526416 c 0.2226563,0.1640625 0.4101563,0.4101562 0.5976563,0.7265625 l 0.2226562,-0.984375 h 1.1953125 l -1.5,7.08984372 c -0.2109375,0.97265625 -0.515625,1.76953128 -0.9375,2.33203128 -0.7734375,1.0546875 -1.8984375,1.59375 -3.4101562,1.59375 -0.84375,0 -1.5,-0.1992188 -1.9921875,-0.5625 C 0.56362706,2.3676709 0.35268956,1.7700146 0.45815831,0.97313962 H 1.8058146 c -0.023437,0.35156248 0.058594,0.62109378 0.1992187,0.80859378 0.234375,0.2929687 0.6796875,0.4335937 1.3007813,0.4335937 1.0078125,0 1.7460937,-0.3515625 2.203125,-1.0546875 0.2695312,-0.41015623 0.5039062,-1.160156225 0.7148437,-2.2265625 -0.3398437,0.38671877 -0.7148437,0.67968752 -1.1132812,0.86718752 -0.421875,0.199218755 -0.9257813,0.3046875 -1.5351563,0.3046875 -0.8320312,0 -1.5234375,-0.3046875 -2.0273437,-0.890625 C 1.0440958,-1.3940479 0.93862706,-2.3784229 1.2315958,-3.7612354 c 0.2929688,-1.3007812 0.8085938,-2.3203125 1.6171875,-3.0585937 0.7851563,-0.7265625 1.6289063,-1.1015625 2.5195313,-1.1015625 0.6210937,0 1.125,0.1523437 1.5117187,0.46875 z m -1.5117187,0.6914062 c -0.9140625,0 -1.6289063,0.4335938 -2.15625,1.3007813 -0.28125,0.4570312 -0.5039063,1.0546875 -0.65625,1.8046875 -0.1875,0.8789062 -0.140625,1.546875 0.1054687,2.0039062 0.2578125,0.4570313 0.6914063,0.67968752 1.3007813,0.67968752 0.9375,0 1.6757812,-0.41015622 2.25,-1.26562502 0.3046875,-0.4804687 0.5273437,-1.03125 0.6679687,-1.6757812 0.2109375,-0.9726563 0.1640625,-1.6875 -0.140625,-2.1445313 -0.2929687,-0.4570312 -0.75,-0.703125 -1.3710937,-0.703125 z m 0,0"
       style="fill:#000000;fill-opacity:1;fill-rule:nonzero;stroke:none"
       aria-label="g"
       transform="matrix(1.3333333,0,0,1.3333333,788.57272,103.38217)" />
    <path
       id="path75"
       d="m 653.5,71.215 c -1.152,-5.113 -4.57,-9.418 -9.289,-11.695 -4.719,-2.282 -10.219,-2.282 -14.938,0 -4.718,2.277 -8.136,6.582 -9.289,11.695"
       style="fill:none;stroke:#000000;stroke-width:0.9216;stroke-linecap:butt;stroke-linejoin:miter;stroke-miterlimit:3.25;stroke-dasharray:0.9216, 5.5296;stroke-dashoffset:0;stroke-opacity:1"
       transform="scale(1.3333333)" />
    <path
       id="path76"
       d="M 631.715,57.809 641.77,54.457 V 61.16 Z"
       style="fill:#000000;fill-opacity:1;fill-rule:evenodd;stroke:none"
       transform="scale(1.3333333)" />
    <path
       id="path77"
       d="M 5.5553698,-11.027116 3.996776,-3.6911784 c -0.1289062,0.5507813 -0.1289062,1.0078125 -0.023437,1.3710938 0.1875,0.65625 0.7148438,0.984375 1.6289063,0.984375 1.2773437,0 2.296875,-0.5625 3.0117187,-1.7226563 0.3867188,-0.6210937 0.6796875,-1.4765625 0.9140625,-2.5546875 l 1.1601565,-5.4140626 h 1.851563 L 10.195995,2.27875e-4 H 8.449901 L 8.8014635,-1.6286784 c -0.328125,0.421875 -0.6914062,0.78515628 -1.1132812,1.07812503 -0.84375,0.57421875 -1.7578125,0.8671875 -2.765625,0.8671875 -1.5820313,0 -2.53125,-0.52734375 -2.8710938,-1.58203123 -0.1875,-0.5742188 -0.1875,-1.3125 0,-2.2617188 l 1.6054688,-7.5000001 z m 0,0"
       style="fill:#000000;fill-opacity:1;fill-rule:nonzero;stroke:none"
       aria-label="u"
       transform="matrix(1.3333333,0,0,1.3333333,834.98347,55.538759)" />
    <path
       id="path78"
       d="m 6.8795885,-7.4528972 c 0.2226562,0.1640625 0.4101562,0.4101562 0.5976562,0.7265625 l 0.2226563,-0.984375 h 1.1953125 l -1.5,7.0898437 c -0.2109375,0.97265625 -0.515625,1.7695313 -0.9375,2.3320313 -0.7734375,1.0546875 -1.8984375,1.59375 -3.4101563,1.59375 -0.84375,0 -1.5,-0.1992188 -1.9921875,-0.5625 C 0.56318225,2.3674153 0.35224475,1.769759 0.4577135,0.972884 h 1.3476562 c -0.023437,0.3515625 0.058594,0.6210938 0.1992188,0.8085938 0.234375,0.2929687 0.6796875,0.4335937 1.3007812,0.4335937 1.0078125,0 1.7460938,-0.3515625 2.203125,-1.0546875 C 5.778026,0.75022775 6.012401,2.2775e-4 6.2233385,-1.0661785 5.8834947,-0.67945975 5.5084947,-0.386491 5.1100572,-0.198991 4.6881822,2.2775e-4 4.184276,0.1056965 3.574901,0.1056965 c -0.8320313,0 -1.5234375,-0.3046875 -2.0273438,-0.890625 -0.5039062,-0.609375 -0.60937495,-1.59375 -0.3164062,-2.9765625 0.2929687,-1.3007812 0.8085937,-2.3203125 1.6171875,-3.0585937 0.7851562,-0.7265625 1.6289062,-1.1015625 2.5195312,-1.1015625 0.6210938,0 1.125,0.1523437 1.5117188,0.46875 z M 5.3678697,-6.761491 c -0.9140625,0 -1.6289062,0.4335938 -2.15625,1.3007813 -0.28125,0.4570312 -0.5039062,1.0546875 -0.65625,1.8046875 -0.1875,0.8789062 -0.140625,1.546875 0.1054688,2.0039062 0.2578125,0.4570313 0.6914062,0.6796875 1.3007812,0.6796875 0.9375,0 1.6757813,-0.4101562 2.25,-1.265625 0.3046875,-0.4804687 0.5273438,-1.03125 0.6679688,-1.6757812 0.2109375,-0.9726563 0.1640625,-1.6875 -0.140625,-2.1445313 -0.2929688,-0.4570312 -0.75,-0.703125 -1.3710938,-0.703125 z m 0,0"
       style="fill:#000000;fill-opacity:1;fill-rule:nonzero;stroke:none"
       aria-label="g"
       transform="matrix(1.3333333,0,0,1.3333333,850.54597,60.765321)" />
    <path
       id="path79"
       d="m 619.984,71.215 -0.605,1.277 -0.227,1.457 0.192,1.516 0.609,1.43 0.973,1.207 1.234,0.875 1.379,0.472 1.399,0.067 1.312,-0.309 1.156,-0.598 0.965,-0.8 0.766,-0.891 0.566,-0.895 0.371,-0.808 0.18,-0.668 -0.02,-0.488 -0.222,-0.289 -0.426,-0.09 -0.625,0.105 -0.785,0.289 -0.891,0.481 -0.926,0.672 -0.867,0.882 -0.703,1.082 -0.441,1.258 -0.094,1.379 0.308,1.41 0.719,1.313 1.082,1.097 1.356,0.766 1.496,0.367 1.488,-0.062 1.356,-0.457 1.129,-0.789 0.851,-1.02 0.574,-1.148 0.325,-1.18 0.121,-1.125 -0.028,-0.988 -0.136,-0.797 -0.219,-0.563 -0.297,-0.293 -0.371,-0.015 -0.446,0.258 -0.507,0.511 -0.532,0.746 -0.503,0.953 -0.395,1.122 -0.203,1.242 0.074,1.308 0.414,1.293 0.778,1.168 1.124,0.942 1.391,0.613 1.539,0.215 1.539,-0.215 1.391,-0.613 1.121,-0.942 0.781,-1.168 0.414,-1.293 0.074,-1.308 -0.203,-1.242 -0.394,-1.122 -0.504,-0.953 -0.535,-0.746 -0.504,-0.511 -0.445,-0.258 -0.372,0.015 -0.296,0.293 -0.219,0.563 -0.137,0.797 -0.027,0.988 0.121,1.125 0.324,1.18 0.574,1.148 0.852,1.02 1.125,0.789 1.359,0.457 1.489,0.062 1.492,-0.367 1.355,-0.766 1.086,-1.097 0.719,-1.313 0.308,-1.41 -0.093,-1.379 -0.442,-1.258 -0.707,-1.082 -0.863,-0.882 -0.926,-0.672 -0.89,-0.481 -0.786,-0.289 -0.625,-0.105 -0.429,0.09 -0.223,0.289 -0.016,0.488 0.18,0.668 0.371,0.808 0.567,0.895 0.761,0.891 0.969,0.8 1.156,0.598 1.313,0.309 1.398,-0.067 1.379,-0.472 1.235,-0.875 0.972,-1.207 0.61,-1.43 0.191,-1.516 -0.23,-1.457 -0.602,-1.277"
       style="fill:none;stroke:#000000;stroke-width:0.9216;stroke-linecap:square;stroke-linejoin:miter;stroke-miterlimit:3.25;stroke-dasharray:none;stroke-opacity:1"
       transform="scale(1.3333333)" />
    <path
       id="path80"
       d="m 9.7611117,-10.582639 c 0.3164063,0.234375 0.5859373,0.5976559 0.8437503,1.0312497 l 0.316406,-1.3828127 h 1.710937 L 10.499393,-0.89123306 C 10.194705,0.50329819 9.7611117,1.6282982 9.1634554,2.4251732 c -1.1015625,1.5 -2.7070312,2.2617187 -4.8398437,2.2617187 -1.1953125,0 -2.1328125,-0.2695312 -2.8242188,-0.796875 C 0.79626794,3.3626732 0.50329919,2.5072044 0.65564294,1.3704857 H 2.5540804 c -0.023437,0.5039062 0.082031,0.890625 0.2929688,1.1601562 0.3164062,0.3984375 0.9492187,0.609375 1.8398437,0.609375 1.4414063,0 2.4726563,-0.5039062 3.1289063,-1.4882812 0.375,-0.5976563 0.7148437,-1.6523437625 1.0078125,-3.1757813 -0.4804688,0.55078129 -1.0078125,0.97265629 -1.5820313,1.25390629 -0.5859375,0.2695312475 -1.3125,0.421875 -2.1796875,0.421875 -1.171875,0 -2.1445312,-0.421875 -2.8710937,-1.27734379 -0.7148438,-0.8554687 -0.8554688,-2.25 -0.4335938,-4.21875 0.3984375,-1.8398437 1.1367188,-3.2929687 2.2734375,-4.3242187 1.125,-1.0429692 2.3203125,-1.5703122 3.5976563,-1.5703122 0.8554687,0 1.5820312,0.210937 2.1328125,0.65625 z m -2.1328125,0.9960934 c -1.3125,0 -2.3320313,0.609375 -3.0703125,1.8398438 -0.3984375,0.65625 -0.7148438,1.5 -0.9257813,2.5546875 -0.2695312,1.2421875 -0.2109375,2.1914062 0.1523438,2.8476562 0.3515625,0.65625 0.9609375,0.9726563 1.828125,0.9726563 1.3359375,0 2.390625,-0.5976563 3.1875,-1.7929688 0.4453125,-0.703125 0.7617187,-1.4765625 0.9609375,-2.390625 0.2929683,-1.3710937 0.2226562,-2.390625 -0.1992188,-3.0351562 -0.421875,-0.65625 -1.078125,-0.9960938 -1.9335937,-0.9960938 z m 0,0"
       style="fill:#000000;fill-opacity:1;fill-rule:nonzero;stroke:none"
       aria-label="g"
       transform="matrix(1.3333333,0,0,1.3333333,840.61409,149.98909)"
       clip-path="url(#clipPath81)" />
    <path
       id="path82"
       d="M 670.254,100.539 C 671.266,88.238 664.605,76.586 653.5,71.215"
       style="fill:none;stroke:#000000;stroke-width:0.9216;stroke-linecap:butt;stroke-linejoin:miter;stroke-miterlimit:3.25;stroke-dasharray:0.9216, 5.5296;stroke-dashoffset:0;stroke-opacity:1"
       transform="scale(1.3333333)" />
    <path
       id="path83"
       d="m 663.926,78.914 7.898,7.066 -5.82,3.325 z"
       style="fill:#000000;fill-opacity:1;fill-rule:evenodd;stroke:none"
       transform="scale(1.3333333)" />
    <path
       id="path84"
       d="m 5.5550043,-11.027325 -1.5585937,7.3359379 c -0.1289063,0.5507813 -0.1289063,1.0078125 -0.023437,1.3710938 0.1875,0.65625 0.7148437,0.984375 1.6289062,0.984375 1.2773438,0 2.296875,-0.5625 3.0117188,-1.7226563 0.3867187,-0.6210937 0.6796875,-1.4765625 0.9140625,-2.5546875 l 1.1601569,-5.4140629 h 1.851561 L 10.195629,1.91875e-5 H 8.4495356 L 8.8010981,-1.6288871 c -0.328125,0.421875 -0.6914063,0.78515629 -1.1132813,1.07812504 -0.84375,0.57421875 -1.7578125,0.8671875 -2.765625,0.8671875 -1.5820312,0 -2.53125,-0.52734375 -2.8710937,-1.58203124 -0.1875,-0.5742188 -0.1875,-1.3125 0,-2.2617188 l 1.6054687,-7.5000004 z m 0,0"
       style="fill:#000000;fill-opacity:1;fill-rule:nonzero;stroke:none"
       aria-label="u"
       transform="matrix(1.3333333,0,0,1.3333333,896.83942,98.222631)" />
    <path
       id="path85"
       d="m 6.8792231,-7.4531059 c 0.2226562,0.1640625 0.4101562,0.4101562 0.5976562,0.7265625 l 0.2226563,-0.984375 h 1.1953125 l -1.5,7.08984371 c -0.2109375,0.97265625 -0.515625,1.76953129 -0.9375,2.33203129 -0.7734375,1.0546875 -1.8984375,1.59375 -3.4101563,1.59375 -0.84375,0 -1.5,-0.1992188 -1.9921875,-0.5625 C 0.56281681,2.3672066 0.35187931,1.7695503 0.45734806,0.97267531 H 1.8050043 c -0.023437,0.35156249 0.058594,0.62109379 0.1992188,0.80859379 0.234375,0.2929687 0.6796875,0.4335937 1.3007812,0.4335937 1.0078125,0 1.7460938,-0.3515625 2.203125,-1.0546875 C 5.7776606,0.75001906 6.0120356,1.90625e-5 6.2229731,-1.0663872 5.8831293,-0.67966844 5.5081293,-0.38669969 5.1096918,-0.19919969 4.6878168,1.90625e-5 4.1839106,0.10548781 3.5745356,0.10548781 c -0.8320313,0 -1.5234375,-0.3046875 -2.0273438,-0.890625 C 1.0432856,-1.3945122 0.93781681,-2.3788872 1.2307856,-3.7616997 c 0.2929687,-1.3007812 0.8085937,-2.3203125 1.6171875,-3.0585937 0.7851562,-0.7265625 1.6289062,-1.1015625 2.5195312,-1.1015625 0.6210938,0 1.125,0.1523437 1.5117188,0.46875 z m -1.5117188,0.6914062 c -0.9140625,0 -1.6289062,0.4335938 -2.15625,1.3007813 -0.28125,0.4570312 -0.5039062,1.0546875 -0.65625,1.8046875 -0.1875,0.8789062 -0.140625,1.546875 0.1054688,2.0039062 0.2578125,0.4570313 0.6914062,0.67968751 1.3007812,0.67968751 0.9375,0 1.6757813,-0.41015621 2.25,-1.26562501 0.3046875,-0.4804687 0.5273438,-1.03125 0.6679688,-1.6757812 0.2109375,-0.9726563 0.1640625,-1.6875 -0.140625,-2.1445313 -0.2929688,-0.4570312 -0.75,-0.703125 -1.3710938,-0.703125 z m 0,0"
       style="fill:#000000;fill-opacity:1;fill-rule:nonzero;stroke:none"
       aria-label="g"
       transform="matrix(1.3333333,0,0,1.3333333,912.40192,103.44919)" />
    <path
       id="path86"
       d="m 657.184,71.215 c 0,0.976 -0.387,1.914 -1.079,2.605 -0.691,0.692 -1.628,1.082 -2.605,1.082 -0.98,0 -1.918,-0.39 -2.609,-1.082 -0.692,-0.691 -1.079,-1.629 -1.079,-2.605 0,-0.977 0.387,-1.914 1.079,-2.606 0.691,-0.691 1.629,-1.082 2.609,-1.082 0.977,0 1.914,0.391 2.605,1.082 0.692,0.692 1.079,1.629 1.079,2.606 z"
       style="fill:#000000;fill-opacity:1;fill-rule:evenodd;stroke:none"
       transform="scale(1.3333333)" />
    <path
       id="path87"
       d="m 623.672,71.215 c 0,0.976 -0.387,1.914 -1.078,2.605 -0.692,0.692 -1.629,1.082 -2.61,1.082 -0.976,0 -1.914,-0.39 -2.605,-1.082 -0.691,-0.691 -1.078,-1.629 -1.078,-2.605 0,-0.977 0.387,-1.914 1.078,-2.606 0.691,-0.691 1.629,-1.082 2.605,-1.082 0.981,0 1.918,0.391 2.61,1.082 0.691,0.692 1.078,1.629 1.078,2.606 z"
       style="fill:#000000;fill-opacity:1;fill-rule:evenodd;stroke:none"
       transform="scale(1.3333333)" />
    <path
       id="path88"
       d="m 606.914,100.539 c 0,0.977 -0.387,1.914 -1.078,2.606 -0.691,0.691 -1.629,1.078 -2.606,1.078 -0.98,0 -1.918,-0.387 -2.609,-1.078 -0.691,-0.692 -1.078,-1.629 -1.078,-2.606 0,-0.98 0.387,-1.918 1.078,-2.609 0.691,-0.692 1.629,-1.078 2.609,-1.078 0.977,0 1.915,0.386 2.606,1.078 0.691,0.691 1.078,1.629 1.078,2.609 z"
       style="fill:#000000;fill-opacity:1;fill-rule:evenodd;stroke:none"
       transform="scale(1.3333333)" />
    <path
       id="path89"
       d="m 673.941,100.539 c 0,0.977 -0.39,1.914 -1.082,2.606 -0.691,0.691 -1.629,1.078 -2.605,1.078 -0.977,0 -1.914,-0.387 -2.606,-1.078 -0.691,-0.692 -1.082,-1.629 -1.082,-2.606 0,-0.98 0.391,-1.918 1.082,-2.609 0.692,-0.692 1.629,-1.078 2.606,-1.078 0.976,0 1.914,0.386 2.605,1.078 0.692,0.691 1.082,1.629 1.082,2.609 z"
       style="fill:#000000;fill-opacity:1;fill-rule:evenodd;stroke:none"
       transform="scale(1.3333333)" />
  </g>
</svg>
