<?xml version="1.0" encoding="UTF-8" standalone="no"?>
<!-- Created with Inkscape (http://www.inkscape.org/) -->

<svg
   version="1.1"
   id="svg2"
   width="984"
   height="246.66667"
   viewBox="0 0 984 246.66667"
   sodipodi:docname="0zks7qpbolljd.pdf"
   xmlns:inkscape="http://www.inkscape.org/namespaces/inkscape"
   xmlns:sodipodi="http://sodipodi.sourceforge.net/DTD/sodipodi-0.dtd"
   xmlns="http://www.w3.org/2000/svg"
   xmlns:svg="http://www.w3.org/2000/svg">
  <defs
     id="defs6">
    <clipPath
       clipPathUnits="userSpaceOnUse"
       id="clipPath234">
      <path
         d="m 630,101 h 13.922 v 17 H 630 Z"
         id="path232" />
    </clipPath>
  </defs>
  <sodipodi:namedview
     id="namedview4"
     pagecolor="#ffffff"
     bordercolor="#999999"
     borderopacity="1"
     inkscape:showpageshadow="0"
     inkscape:pageopacity="0"
     inkscape:pagecheckerboard="0"
     inkscape:deskcolor="#d1d1d1" />
  <g
     id="g8"
     inkscape:groupmode="layer"
     inkscape:label="0zks7qpbolljd"
     transform="matrix(1.3333333,0,0,1.3333333,0,9.5e-6)">
    <g
       id="g10">
      <path
         d="m 50.27,100.539 -0.997,0.836 -1.14,0.648 -1.238,0.426 -1.297,0.18 -1.305,-0.074 -1.27,-0.325 -1.183,-0.558 -1.063,-0.762 -0.898,-0.93 -0.711,-1.05 -0.508,-1.118 -0.293,-1.124 -0.086,-1.083 0.11,-0.976 0.281,-0.832 0.418,-0.637 0.519,-0.41 0.575,-0.168 0.582,0.09 0.543,0.336 0.457,0.57 0.328,0.77 0.168,0.937 -0.024,1.055 -0.226,1.121 -0.442,1.125 -0.648,1.074 -0.844,0.973 -1.016,0.82 -1.148,0.625 -1.246,0.402 -1.301,0.153 -1.305,-0.102 -1.261,-0.347 -1.176,-0.582 -1.043,-0.782 -0.883,-0.945 -0.691,-1.059 -0.485,-1.121 -0.273,-1.125 -0.062,-1.07 0.128,-0.969 0.297,-0.808 0.434,-0.614 0.527,-0.386 0.578,-0.141 0.578,0.113 0.536,0.364 0.445,0.589 0.312,0.793 0.149,0.95 -0.043,1.066 -0.25,1.121 -0.461,1.125 -0.672,1.067 -0.863,0.96 -1.028,0.801 -1.164,0.602 -1.253,0.375 -1.305,0.125 -1.301,-0.125 -1.254,-0.375 -1.164,-0.602 -1.027,-0.801 -0.864,-0.96 -0.671,-1.067 -0.461,-1.125 -0.25,-1.121 -0.043,-1.066 0.148,-0.95 0.313,-0.793 0.445,-0.589 0.535,-0.364 0.578,-0.113 0.578,0.141 0.528,0.386 0.433,0.614 0.297,0.808 0.129,0.969 -0.066,1.07 -0.27,1.125 -0.484,1.121 -0.692,1.059 -0.882,0.945 -1.043,0.782 -1.176,0.582 -1.262,0.347 -1.305,0.102 -1.3,-0.153 -1.247,-0.402 -1.152,-0.625 -1.012,-0.82 L 9.348,99.66 8.699,98.586 8.258,97.461 8.031,96.34 8.008,95.285 l 0.168,-0.937 0.328,-0.77 0.457,-0.57 0.543,-0.336 0.578,-0.09 0.578,0.168 0.516,0.41 0.422,0.637 0.281,0.832 0.109,0.976 -0.086,1.083 -0.293,1.124 -0.507,1.118 -0.711,1.05 -0.899,0.93 -1.062,0.762 -1.184,0.558 -1.269,0.325 -1.305,0.074 -1.297,-0.18 L 2.133,102.023 0.996,101.375 0,100.539"
         style="fill:none;stroke:#000000;stroke-width:0.9216;stroke-linecap:square;stroke-linejoin:miter;stroke-miterlimit:3.25;stroke-dasharray:none;stroke-opacity:1"
         id="path12" />
      <text
         xml:space="preserve"
         transform="translate(18.853295,128.41036)"
         style="font-variant:normal;font-size:21.12px;font-family:CairoFont-0;-inkscape-font-specification:CairoFont-0-0;writing-mode:lr-tb;fill:#000000;fill-opacity:1;fill-rule:nonzero;stroke:none"
         id="text16"><tspan
           x="0"
           y="0"
           id="tspan14">g</tspan></text>
      <path
         d="m 117.293,100.539 1,-0.84 1.137,-0.648 1.238,-0.422 1.297,-0.18 1.305,0.074 1.269,0.325 1.188,0.554 1.058,0.766 0.899,0.93 0.714,1.047 0.504,1.117 0.297,1.129 0.086,1.078 -0.113,0.98 -0.281,0.828 -0.418,0.637 -0.52,0.414 -0.574,0.164 -0.582,-0.086 -0.543,-0.336 -0.453,-0.57 -0.332,-0.773 -0.164,-0.938 0.019,-1.055 0.231,-1.117 0.437,-1.125 0.653,-1.078 0.843,-0.973 1.012,-0.82 1.148,-0.625 1.25,-0.398 1.297,-0.153 1.305,0.098 1.262,0.352 1.176,0.578 1.046,0.785 0.879,0.941 0.692,1.063 0.484,1.117 0.273,1.125 0.063,1.074 -0.129,0.965 -0.297,0.812 -0.433,0.614 -0.528,0.386 -0.574,0.141 -0.582,-0.113 -0.535,-0.363 -0.445,-0.59 -0.313,-0.793 -0.148,-0.953 0.043,-1.063 0.25,-1.121 0.464,-1.125 0.668,-1.066 0.864,-0.961 1.031,-0.801 1.16,-0.606 1.254,-0.371 1.305,-0.129 1.3,0.129 1.258,0.371 1.16,0.606 1.032,0.801 0.859,0.961 0.672,1.066 0.461,1.125 0.25,1.121 0.043,1.063 -0.149,0.953 -0.312,0.793 -0.445,0.59 -0.532,0.363 -0.582,0.113 -0.578,-0.141 -0.527,-0.386 -0.43,-0.614 -0.301,-0.812 -0.129,-0.965 0.067,-1.074 0.269,-1.125 0.489,-1.117 0.691,-1.063 0.879,-0.941 1.047,-0.785 1.172,-0.578 1.261,-0.352 1.305,-0.098 1.301,0.153 1.246,0.398 1.152,0.625 1.012,0.82 0.844,0.973 0.648,1.078 0.442,1.125 0.226,1.117 0.024,1.055 -0.168,0.938 -0.328,0.773 -0.457,0.57 -0.54,0.336 -0.582,0.086 -0.574,-0.164 -0.519,-0.414 -0.422,-0.637 -0.281,-0.828 -0.11,-0.98 0.086,-1.078 0.293,-1.129 0.508,-1.117 0.711,-1.047 0.902,-0.93 1.059,-0.766 1.187,-0.554 1.266,-0.325 1.309,-0.074 1.296,0.18 1.239,0.422 1.136,0.648 0.996,0.84"
         style="fill:none;stroke:#000000;stroke-width:0.9216;stroke-linecap:square;stroke-linejoin:miter;stroke-miterlimit:3.25;stroke-dasharray:none;stroke-opacity:1"
         id="path18" />
      <text
         xml:space="preserve"
         transform="translate(136.14784,87.884749)"
         style="font-variant:normal;font-size:21.12px;font-family:CairoFont-0;-inkscape-font-specification:CairoFont-0-0;writing-mode:lr-tb;fill:#000000;fill-opacity:1;fill-rule:nonzero;stroke:none"
         id="text22"><tspan
           x="0"
           y="0"
           id="tspan20">g</tspan></text>
      <path
         d="m 50.27,100.539 -0.821,0.965 -0.617,1.141 -0.375,1.273 -0.094,1.344 0.184,1.336 0.457,1.261 0.703,1.121 0.898,0.93 1.051,0.703 1.133,0.461 1.168,0.227 1.137,0.011 1.066,-0.171 0.953,-0.309 0.805,-0.402 0.629,-0.461 0.433,-0.473 0.223,-0.461 0.008,-0.422 -0.207,-0.355 -0.41,-0.278 -0.602,-0.179 -0.758,-0.059 -0.882,0.078 -0.961,0.235 -0.989,0.41 -0.961,0.605 -0.871,0.797 -0.726,0.981 -0.528,1.14 -0.285,1.258 -0.015,1.32 0.261,1.313 0.539,1.242 0.782,1.094 0.98,0.898 1.125,0.657 1.207,0.398 1.227,0.141 1.195,-0.106 1.113,-0.308 0.993,-0.469 0.847,-0.582 0.68,-0.637 0.496,-0.645 0.312,-0.609 0.118,-0.535 -0.075,-0.434 -0.261,-0.308 -0.434,-0.172 -0.586,-0.02 -0.707,0.145 -0.793,0.309 -0.832,0.488 -0.812,0.66 -0.743,0.836 -0.613,0.992 -0.43,1.133 -0.199,1.23 0.063,1.282 0.332,1.265 0.605,1.192 0.848,1.05 1.051,0.848 1.191,0.602 1.266,0.336 1.281,0.062 1.23,-0.199 1.129,-0.43 0.996,-0.613 0.836,-0.742 0.661,-0.813 0.488,-0.832 0.308,-0.793 0.141,-0.707 -0.016,-0.586 -0.171,-0.433 -0.309,-0.262 -0.434,-0.074 -0.535,0.117 -0.609,0.312 -0.645,0.496 -0.636,0.68 -0.582,0.848 -0.469,0.992 -0.309,1.113 -0.105,1.196 0.14,1.226 0.399,1.207 0.656,1.125 0.898,0.981 1.094,0.781 1.239,0.539 1.316,0.262 1.32,-0.016 1.258,-0.285 1.141,-0.527 0.98,-0.727 0.797,-0.875 0.602,-0.957 0.414,-0.988 0.234,-0.961 0.078,-0.883 -0.058,-0.758 -0.18,-0.601 -0.278,-0.415 -0.355,-0.207 -0.422,0.008 -0.461,0.227 -0.472,0.433 -0.461,0.629 -0.403,0.805 -0.308,0.949 -0.172,1.071 0.012,1.136 0.226,1.168 0.461,1.133 0.703,1.051 0.93,0.898 1.121,0.703 1.262,0.457 1.336,0.184 1.343,-0.098 1.274,-0.371 1.14,-0.617 0.965,-0.82"
         style="fill:none;stroke:#000000;stroke-width:0.9216;stroke-linecap:square;stroke-linejoin:miter;stroke-miterlimit:3.25;stroke-dasharray:none;stroke-opacity:1"
         id="path24" />
      <text
         xml:space="preserve"
         transform="translate(43.058444,148.65218)"
         style="font-variant:normal;font-size:21.12px;font-family:CairoFont-0;-inkscape-font-specification:CairoFont-0-0;writing-mode:lr-tb;fill:#000000;fill-opacity:1;fill-rule:nonzero;stroke:none"
         id="text28"><tspan
           x="0"
           y="0"
           id="tspan26">g</tspan></text>
      <path
         d="m 117.293,100.539 0.793,0.996 0.578,1.172 0.324,1.289 0.047,1.348 -0.234,1.332 -0.508,1.246 -0.75,1.094 -0.941,0.894 -1.082,0.66 -1.157,0.414 -1.179,0.176 -1.141,-0.035 -1.059,-0.211 -0.937,-0.348 -0.781,-0.437 -0.598,-0.488 -0.398,-0.493 -0.18,-0.472 0.035,-0.422 0.254,-0.352 0.453,-0.257 0.641,-0.153 0.793,-0.023 0.906,0.125 0.973,0.293 0.984,0.472 0.937,0.672 0.832,0.86 0.672,1.043 0.453,1.187 0.2,1.285 -0.075,1.328 -0.359,1.301 -0.625,1.199 -0.859,1.036 -1.043,0.82 -1.168,0.57 -1.231,0.305 -1.23,0.051 -1.18,-0.188 -1.082,-0.379 -0.949,-0.527 -0.793,-0.617 -0.613,-0.66 -0.43,-0.649 -0.234,-0.598 -0.04,-0.507 0.157,-0.399 0.34,-0.262 0.503,-0.113 0.649,0.043 0.758,0.215 0.82,0.391 0.832,0.57 0.793,0.75 0.688,0.918 0.535,1.07 0.324,1.192 0.078,1.265 -0.195,1.289 -0.469,1.242 -0.73,1.129 -0.957,0.957 -1.133,0.731 -1.243,0.473 -1.285,0.195 -1.269,-0.078 -1.192,-0.324 -1.07,-0.536 -0.918,-0.691 -0.75,-0.789 -0.57,-0.836 -0.387,-0.82 -0.215,-0.754 -0.047,-0.649 0.114,-0.508 0.261,-0.335 0.399,-0.157 0.512,0.039 0.597,0.235 0.649,0.426 0.656,0.617 0.621,0.793 0.523,0.949 0.383,1.078 0.184,1.18 -0.047,1.234 -0.305,1.231 -0.57,1.168 -0.824,1.042 -1.035,0.856 -1.2,0.629 -1.297,0.359 -1.328,0.074 -1.289,-0.199 -1.187,-0.457 -1.039,-0.668 -0.864,-0.832 -0.668,-0.937 -0.476,-0.985 -0.293,-0.972 -0.125,-0.907 0.023,-0.793 0.153,-0.64 0.261,-0.457 0.352,-0.25 0.422,-0.039 0.469,0.183 0.496,0.399 0.484,0.597 0.438,0.778 0.347,0.937 0.215,1.059 0.035,1.144 -0.179,1.18 -0.415,1.156 -0.66,1.082 -0.894,0.942 -1.094,0.746 -1.246,0.508 -1.332,0.238 -1.348,-0.047 -1.289,-0.324 -1.168,-0.578 -1,-0.793"
         style="fill:none;stroke:#000000;stroke-width:0.9216;stroke-linecap:square;stroke-linejoin:miter;stroke-miterlimit:3.25;stroke-dasharray:none;stroke-opacity:1"
         id="path30" />
      <text
         xml:space="preserve"
         transform="translate(111.57405,148.28354)"
         style="font-variant:normal;font-size:21.12px;font-family:CairoFont-0;-inkscape-font-specification:CairoFont-0-0;writing-mode:lr-tb;fill:#000000;fill-opacity:1;fill-rule:nonzero;stroke:none"
         id="text34"><tspan
           x="0"
           y="0"
           id="tspan32">g</tspan></text>
      <path
         d="M 83.781,134.051 83,133.094 l -0.621,-1.082 -0.434,-1.172 -0.226,-1.231 -0.012,-1.25 0.207,-1.234 0.41,-1.18 0.602,-1.093 0.765,-0.973 0.895,-0.828 0.988,-0.66 1.035,-0.485 1.043,-0.304 1,-0.125 0.914,0.046 0.797,0.192 0.633,0.316 0.453,0.414 0.246,0.477 0.032,0.496 -0.188,0.488 -0.394,0.434 -0.586,0.348 -0.75,0.23 -0.887,0.09 -0.981,-0.074 -1.031,-0.25 -1.043,-0.434 -1.008,-0.613 -0.925,-0.782 -0.805,-0.933 -0.652,-1.059 -0.469,-1.16 -0.266,-1.223 -0.051,-1.25 0.168,-1.242 0.375,-1.191 0.571,-1.109 0.738,-0.997 0.875,-0.855 0.973,-0.691 1.031,-0.516 1.043,-0.336 1.012,-0.156 0.933,0.015 0.82,0.168 0.665,0.297 0.488,0.399 0.281,0.464 0.07,0.5 -0.148,0.489 -0.356,0.445 -0.554,0.367 -0.723,0.254 -0.863,0.117 -0.969,-0.043 -1.027,-0.222 -1.043,-0.399 -1.016,-0.582 -0.945,-0.75 -0.828,-0.91 -0.684,-1.039 -0.5,-1.145 -0.305,-1.21 -0.089,-1.25 0.128,-1.247 0.34,-1.203 0.536,-1.125 0.71,-1.019 0.852,-0.883 0.961,-0.723 1.023,-0.547 1.047,-0.367 1.02,-0.187 0.949,-0.016 0.844,0.141 0.695,0.277 0.52,0.383 0.32,0.457 0.109,0.496 -0.109,0.492 -0.32,0.457 -0.52,0.383 -0.695,0.277 -0.844,0.145 -0.949,-0.016 -1.02,-0.187 -1.047,-0.367 -1.023,-0.551 -0.961,-0.723 -0.852,-0.883 -0.71,-1.015 -0.536,-1.129 -0.34,-1.203 -0.128,-1.246 0.089,-1.246 0.305,-1.215 0.5,-1.145 0.684,-1.039 0.828,-0.906 0.945,-0.754 1.016,-0.578 1.043,-0.402 1.027,-0.219 0.969,-0.043 0.863,0.113 0.723,0.254 0.554,0.367 0.356,0.445 0.148,0.493 -0.07,0.496 -0.281,0.468 -0.488,0.399 -0.665,0.297 -0.82,0.168 -0.933,0.015 -1.012,-0.156 -1.043,-0.336 -1.031,-0.515 -0.973,-0.696 -0.875,-0.851 -0.738,-0.996 -0.571,-1.114 -0.375,-1.191 -0.168,-1.238 0.051,-1.25 0.266,-1.227 0.469,-1.156 0.652,-1.063 0.805,-0.929 0.925,-0.782 1.008,-0.613 1.043,-0.433 1.031,-0.25 0.981,-0.075 0.887,0.086 0.75,0.231 0.586,0.351 0.394,0.434 0.188,0.484 -0.032,0.5 -0.246,0.473 -0.453,0.414 -0.633,0.32 -0.797,0.192 -0.914,0.043 -1,-0.125 -1.043,-0.301 -1.035,-0.484 -0.988,-0.665 -0.895,-0.828 -0.765,-0.972 -0.602,-1.09 -0.41,-1.18 -0.207,-1.234 0.012,-1.254 0.226,-1.231 0.434,-1.172 0.621,-1.078 0.781,-0.957"
         style="fill:none;stroke:#000000;stroke-width:0.9216;stroke-linecap:square;stroke-linejoin:miter;stroke-miterlimit:3.25;stroke-dasharray:none;stroke-opacity:1"
         id="path36" />
      <text
         xml:space="preserve"
         transform="translate(97.565603,108.14756)"
         style="font-variant:normal;font-size:21.12px;font-family:CairoFont-0;-inkscape-font-specification:CairoFont-0-0;writing-mode:lr-tb;fill:#000000;fill-opacity:1;fill-rule:nonzero;stroke:none"
         id="text40"><tspan
           x="0"
           y="0"
           id="tspan38">g</tspan></text>
      <path
         d="m 50.27,100.539 -0.809,-0.977 -0.602,-1.148 -0.351,-1.277 -0.082,-1.336 0.203,-1.332 0.473,-1.254 0.714,-1.113 0.911,-0.914 1.054,-0.692 1.137,-0.449 1.168,-0.211 h 1.141 l 1.066,0.18 0.945,0.32 0.801,0.41 0.625,0.469 0.43,0.48 0.218,0.465 v 0.426 l -0.21,0.355 -0.414,0.278 -0.602,0.176 -0.762,0.054 -0.883,-0.086 -0.957,-0.242 -0.984,-0.422 -0.957,-0.613 -0.863,-0.801 -0.719,-0.988 -0.516,-1.145 -0.277,-1.257 -0.008,-1.317 0.274,-1.308 0.543,-1.235 0.785,-1.086 0.984,-0.89 1.125,-0.653 1.211,-0.39 1.227,-0.133 1.191,0.109 1.113,0.313 0.989,0.476 0.843,0.582 0.68,0.641 0.496,0.648 0.305,0.614 0.117,0.535 -0.078,0.437 -0.266,0.309 -0.433,0.172 -0.59,0.019 -0.707,-0.14 -0.793,-0.313 -0.832,-0.488 -0.813,-0.664 -0.738,-0.836 -0.609,-0.996 -0.426,-1.133 -0.199,-1.227 0.062,-1.281 0.336,-1.265 0.602,-1.188 0.847,-1.043 1.047,-0.848 1.188,-0.605 1.265,-0.332 1.278,-0.063 1.23,0.196 1.129,0.426 0.996,0.609 0.84,0.742 0.66,0.813 0.488,0.828 0.313,0.793 0.14,0.711 -0.015,0.586 -0.172,0.437 -0.313,0.262 -0.433,0.078 -0.539,-0.113 -0.613,-0.309 -0.649,-0.496 -0.641,-0.676 -0.582,-0.844 -0.476,-0.992 -0.313,-1.109 -0.105,-1.192 0.129,-1.23 0.394,-1.207 0.649,-1.125 0.89,-0.984 1.09,-0.79 1.231,-0.542 1.308,-0.274 1.321,0.008 1.257,0.277 1.141,0.52 0.988,0.719 0.805,0.863 0.609,0.953 0.422,0.984 0.246,0.961 0.082,0.883 -0.054,0.758 -0.176,0.601 -0.273,0.418 -0.36,0.211 -0.422,-0.004 -0.465,-0.218 -0.484,-0.426 -0.465,-0.625 -0.414,-0.801 -0.32,-0.949 -0.18,-1.063 v -1.14 l 0.215,-1.168 0.449,-1.141 0.688,-1.055 0.918,-0.91 1.109,-0.711 1.254,-0.472 1.332,-0.203 1.34,0.082 1.273,0.351 1.153,0.602 0.972,0.808"
         style="fill:none;stroke:#000000;stroke-width:0.9216;stroke-linecap:square;stroke-linejoin:miter;stroke-miterlimit:3.25;stroke-dasharray:none;stroke-opacity:1"
         id="path42" />
      <text
         xml:space="preserve"
         transform="translate(43.209251,67.793739)"
         style="font-variant:normal;font-size:21.12px;font-family:CairoFont-0;-inkscape-font-specification:CairoFont-0-0;writing-mode:lr-tb;fill:#000000;fill-opacity:1;fill-rule:nonzero;stroke:none"
         id="text46"><tspan
           x="0"
           y="0"
           id="tspan44">g</tspan></text>
      <path
         d="m 117.293,100.539 0.793,-1 0.578,-1.168 0.324,-1.289 0.047,-1.348 -0.234,-1.332 -0.508,-1.246 -0.75,-1.094 -0.941,-0.894 -1.082,-0.66 -1.157,-0.414 -1.179,-0.18 -1.141,0.035 -1.059,0.215 -0.937,0.348 -0.781,0.437 -0.598,0.485 -0.398,0.496 -0.18,0.468 0.035,0.422 0.254,0.352 0.453,0.262 0.641,0.148 0.793,0.023 0.906,-0.121 0.973,-0.293 0.984,-0.476 0.937,-0.668 0.832,-0.863 0.672,-1.039 0.453,-1.188 0.2,-1.289 -0.075,-1.328 -0.359,-1.297 -0.625,-1.199 -0.859,-1.039 -1.043,-0.821 -1.168,-0.57 -1.231,-0.305 -1.23,-0.047 -1.18,0.184 -1.082,0.383 -0.949,0.523 -0.793,0.621 -0.613,0.657 -0.43,0.648 -0.234,0.598 -0.04,0.512 0.157,0.398 0.34,0.262 0.503,0.113 0.649,-0.047 0.758,-0.215 0.82,-0.39 0.832,-0.567 0.793,-0.75 0.688,-0.918 0.535,-1.07 0.324,-1.192 0.078,-1.269 -0.195,-1.285 -0.469,-1.242 -0.73,-1.133 -0.957,-0.957 -1.133,-0.731 -1.243,-0.468 -1.285,-0.196 -1.269,0.078 -1.192,0.325 -1.07,0.531 -0.918,0.691 -0.75,0.793 -0.57,0.832 -0.387,0.821 -0.215,0.757 -0.047,0.649 0.114,0.504 0.261,0.34 0.399,0.156 0.512,-0.039 0.597,-0.235 0.649,-0.429 0.656,-0.614 0.621,-0.793 0.523,-0.949 0.383,-1.082 0.184,-1.179 -0.047,-1.231 -0.305,-1.23 -0.57,-1.168 -0.824,-1.043 -1.035,-0.86 -1.2,-0.625 -1.297,-0.359 -1.328,-0.078 -1.289,0.203 -1.187,0.453 -1.039,0.672 -0.864,0.832 -0.668,0.937 -0.476,0.985 -0.293,0.972 -0.125,0.907 0.023,0.793 0.153,0.636 0.261,0.457 0.352,0.254 0.422,0.035 0.469,-0.179 0.496,-0.399 0.484,-0.597 0.438,-0.782 0.347,-0.937 0.215,-1.059 0.035,-1.14 -0.179,-1.18 -0.415,-1.16 -0.66,-1.078 -0.894,-0.942 -1.094,-0.75 -1.246,-0.507 -1.332,-0.239 -1.348,0.051 -1.289,0.324 -1.168,0.578 -1,0.793"
         style="fill:none;stroke:#000000;stroke-width:0.9216;stroke-linecap:square;stroke-linejoin:miter;stroke-miterlimit:3.25;stroke-dasharray:none;stroke-opacity:1"
         id="path48" />
      <text
         xml:space="preserve"
         transform="translate(111.57405,68.011572)"
         style="font-variant:normal;font-size:21.12px;font-family:CairoFont-0;-inkscape-font-specification:CairoFont-0-0;writing-mode:lr-tb;fill:#000000;fill-opacity:1;fill-rule:nonzero;stroke:none"
         id="text52"><tspan
           x="0"
           y="0"
           id="tspan50">g</tspan></text>
      <path
         d="m 87.469,67.027 c 0,0.977 -0.391,1.914 -1.082,2.606 -0.692,0.691 -1.629,1.078 -2.606,1.078 -0.976,0 -1.914,-0.387 -2.605,-1.078 -0.692,-0.692 -1.082,-1.629 -1.082,-2.606 0,-0.98 0.39,-1.918 1.082,-2.609 0.691,-0.691 1.629,-1.078 2.605,-1.078 0.977,0 1.914,0.387 2.606,1.078 0.691,0.691 1.082,1.629 1.082,2.609 z"
         style="fill:#000000;fill-opacity:1;fill-rule:evenodd;stroke:none"
         id="path54" />
      <path
         d="m 87.469,134.051 c 0,0.976 -0.391,1.914 -1.082,2.605 -0.692,0.692 -1.629,1.082 -2.606,1.082 -0.976,0 -1.914,-0.39 -2.605,-1.082 -0.692,-0.691 -1.082,-1.629 -1.082,-2.605 0,-0.977 0.39,-1.914 1.082,-2.606 0.691,-0.691 1.629,-1.082 2.605,-1.082 0.977,0 1.914,0.391 2.606,1.082 0.691,0.692 1.082,1.629 1.082,2.606 z"
         style="fill:#000000;fill-opacity:1;fill-rule:evenodd;stroke:none"
         id="path56" />
      <path
         d="m 53.957,100.539 c 0,0.977 -0.391,1.914 -1.082,2.606 -0.691,0.691 -1.629,1.078 -2.605,1.078 -0.977,0 -1.915,-0.387 -2.606,-1.078 -0.691,-0.692 -1.082,-1.629 -1.082,-2.606 0,-0.98 0.391,-1.918 1.082,-2.609 0.691,-0.692 1.629,-1.078 2.606,-1.078 0.976,0 1.914,0.386 2.605,1.078 0.691,0.691 1.082,1.629 1.082,2.609 z"
         style="fill:#000000;fill-opacity:1;fill-rule:evenodd;stroke:none"
         id="path58" />
      <path
         d="m 120.98,100.539 c 0,0.977 -0.386,1.914 -1.078,2.606 -0.691,0.691 -1.629,1.078 -2.609,1.078 -0.977,0 -1.914,-0.387 -2.605,-1.078 -0.692,-0.692 -1.079,-1.629 -1.079,-2.606 0,-0.98 0.387,-1.918 1.079,-2.609 0.691,-0.692 1.628,-1.078 2.605,-1.078 0.98,0 1.918,0.386 2.609,1.078 0.692,0.691 1.078,1.629 1.078,2.609 z"
         style="fill:#000000;fill-opacity:1;fill-rule:evenodd;stroke:none"
         id="path60" />
      <path
         d="m 234.59,100.539 -0.996,0.836 -1.141,0.648 -1.238,0.426 -1.297,0.18 -1.305,-0.074 -1.269,-0.325 -1.184,-0.558 -1.062,-0.762 -0.899,-0.93 -0.711,-1.05 -0.508,-1.118 -0.296,-1.124 -0.082,-1.083 0.109,-0.976 0.281,-0.832 0.418,-0.637 0.52,-0.41 0.574,-0.168 0.582,0.09 0.543,0.336 0.457,0.57 0.328,0.77 0.164,0.937 -0.019,1.055 -0.227,1.121 -0.441,1.125 -0.649,1.074 -0.844,0.973 -1.015,0.82 -1.149,0.625 -1.246,0.402 -1.3,0.153 -1.305,-0.102 -1.262,-0.347 -1.176,-0.582 -1.043,-0.782 -0.882,-0.945 -0.692,-1.059 -0.484,-1.121 -0.274,-1.125 -0.062,-1.07 0.129,-0.969 0.297,-0.808 0.433,-0.614 0.528,-0.386 0.578,-0.141 0.578,0.113 0.535,0.364 0.445,0.589 0.313,0.793 0.148,0.95 -0.043,1.066 -0.25,1.121 -0.465,1.125 -0.668,1.067 -0.863,0.96 -1.027,0.801 -1.164,0.602 -1.254,0.375 -1.305,0.125 -1.301,-0.125 -1.254,-0.375 -1.164,-0.602 -1.027,-0.801 -0.863,-0.96 -0.672,-1.067 -0.461,-1.125 -0.25,-1.121 -0.043,-1.066 0.148,-0.95 0.313,-0.793 0.445,-0.589 0.535,-0.364 0.579,-0.113 0.578,0.141 0.527,0.386 0.434,0.614 0.296,0.808 0.129,0.969 -0.066,1.07 -0.27,1.125 -0.484,1.121 -0.691,1.059 -0.883,0.945 -1.043,0.782 -1.176,0.582 -1.262,0.347 -1.304,0.102 -1.301,-0.153 -1.246,-0.402 -1.153,-0.625 -1.011,-0.82 -0.844,-0.973 -0.648,-1.074 -0.442,-1.125 -0.226,-1.121 -0.024,-1.055 0.168,-0.937 0.328,-0.77 0.457,-0.57 0.539,-0.336 0.582,-0.09 0.575,0.168 0.519,0.41 0.422,0.637 0.281,0.832 0.11,0.976 -0.086,1.083 -0.293,1.124 -0.508,1.118 -0.711,1.05 -0.899,0.93 -1.062,0.762 -1.184,0.558 -1.269,0.325 -1.309,0.074 -1.293,-0.18 -1.242,-0.426 -1.137,-0.648 -0.996,-0.836"
         style="fill:none;stroke:#000000;stroke-width:0.9216;stroke-linecap:square;stroke-linejoin:miter;stroke-miterlimit:3.25;stroke-dasharray:none;stroke-opacity:1"
         id="path62" />
      <text
         xml:space="preserve"
         transform="translate(203.17329,128.41036)"
         style="font-variant:normal;font-size:21.12px;font-family:CairoFont-0;-inkscape-font-specification:CairoFont-0-0;writing-mode:lr-tb;fill:#000000;fill-opacity:1;fill-rule:nonzero;stroke:none"
         id="text66"><tspan
           x="0"
           y="0"
           id="tspan64">g</tspan></text>
      <path
         d="m 301.613,100.539 1,-0.84 1.137,-0.648 1.238,-0.422 1.297,-0.18 1.305,0.074 1.269,0.325 1.188,0.554 1.058,0.766 0.899,0.93 0.715,1.047 0.504,1.117 0.297,1.129 0.085,1.078 -0.113,0.98 -0.281,0.828 -0.418,0.637 -0.52,0.414 -0.574,0.164 -0.582,-0.086 -0.543,-0.336 -0.453,-0.57 -0.332,-0.773 -0.164,-0.938 0.02,-1.055 0.23,-1.117 0.437,-1.125 0.653,-1.078 0.84,-0.973 1.015,-0.82 1.149,-0.625 1.25,-0.398 1.297,-0.153 1.304,0.098 1.262,0.352 1.176,0.578 1.043,0.785 0.883,0.941 0.691,1.063 0.484,1.117 0.274,1.125 0.062,1.074 -0.129,0.965 -0.296,0.812 -0.434,0.614 -0.527,0.386 -0.579,0.141 -0.578,-0.113 -0.535,-0.363 -0.445,-0.59 -0.313,-0.793 -0.148,-0.953 0.043,-1.063 0.25,-1.121 0.465,-1.125 0.668,-1.066 0.863,-0.961 1.031,-0.801 1.16,-0.606 1.254,-0.371 1.305,-0.129 1.301,0.129 1.254,0.371 1.164,0.606 1.027,0.801 0.863,0.961 0.672,1.066 0.461,1.125 0.25,1.121 0.043,1.063 -0.148,0.953 -0.313,0.793 -0.445,0.59 -0.531,0.363 -0.582,0.113 -0.578,-0.141 -0.528,-0.386 -0.43,-0.614 -0.3,-0.812 -0.129,-0.965 0.066,-1.074 0.27,-1.125 0.488,-1.117 0.691,-1.063 0.879,-0.941 1.047,-0.785 1.172,-0.578 1.262,-0.352 1.304,-0.098 1.301,0.153 1.246,0.398 1.153,0.625 1.011,0.82 0.844,0.973 0.649,1.078 0.441,1.125 0.227,1.117 0.023,1.055 -0.168,0.938 -0.328,0.773 -0.457,0.57 -0.539,0.336 -0.582,0.086 -0.574,-0.164 -0.52,-0.414 -0.422,-0.637 -0.281,-0.828 -0.109,-0.98 0.085,-1.078 0.293,-1.129 0.508,-1.117 0.711,-1.047 0.903,-0.93 1.058,-0.766 1.184,-0.554 1.269,-0.325 1.309,-0.074 1.297,0.18 1.238,0.422 1.137,0.648 0.996,0.84"
         style="fill:none;stroke:#000000;stroke-width:0.9216;stroke-linecap:square;stroke-linejoin:miter;stroke-miterlimit:3.25;stroke-dasharray:none;stroke-opacity:1"
         id="path68" />
      <text
         xml:space="preserve"
         transform="translate(320.46784,134.27509)"
         style="font-variant:normal;font-size:21.12px;font-family:CairoFont-0;-inkscape-font-specification:CairoFont-0-0;writing-mode:lr-tb;fill:#000000;fill-opacity:1;fill-rule:nonzero;stroke:none"
         id="text72"><tspan
           x="0"
           y="0"
           id="tspan70">g</tspan></text>
      <path
         d="m 234.59,100.539 c 0,8.887 3.531,17.41 9.816,23.695 6.285,6.286 14.809,9.817 23.696,9.817 8.886,0 17.414,-3.531 23.699,-9.817 6.281,-6.285 9.812,-14.808 9.812,-23.695"
         style="fill:none;stroke:#000000;stroke-width:0.9216;stroke-linecap:square;stroke-linejoin:miter;stroke-miterlimit:3.25;stroke-dasharray:none;stroke-opacity:1"
         id="path74" />
      <path
         d="m 273.129,134.051 -10.055,3.351 v -6.703 z"
         style="fill:#000000;fill-opacity:1;fill-rule:evenodd;stroke:none"
         id="path76" />
      <text
         xml:space="preserve"
         transform="translate(261.86158,161.92309)"
         style="font-variant:normal;font-size:21.12px;font-family:CairoFont-0;-inkscape-font-specification:CairoFont-0-0;writing-mode:lr-tb;fill:#000000;fill-opacity:1;fill-rule:nonzero;stroke:none"
         id="text80"><tspan
           x="0"
           y="0"
           id="tspan78">u</tspan></text>
      <path
         d="m 251.344,71.215 c -11.203,5.269 -17.906,16.996 -16.754,29.324"
         style="fill:none;stroke:#000000;stroke-width:0.9216;stroke-linecap:square;stroke-linejoin:miter;stroke-miterlimit:3.25;stroke-dasharray:none;stroke-opacity:1"
         id="path82" />
      <path
         d="m 235.84,87.594 2.078,-10.391 5.82,3.324 z"
         style="fill:#000000;fill-opacity:1;fill-rule:evenodd;stroke:none"
         id="path84" />
      <text
         xml:space="preserve"
         transform="translate(219.64563,77.118657)"
         style="font-variant:normal;font-size:21.12px;font-family:CairoFont-0;-inkscape-font-specification:CairoFont-0-0;writing-mode:lr-tb;fill:#000000;fill-opacity:1;fill-rule:nonzero;stroke:none"
         id="text88"><tspan
           x="0"
           y="0"
           id="tspan86">u</tspan></text>
      <path
         d="m 284.859,71.215 c -1.152,-5.113 -4.57,-9.418 -9.289,-11.695 -4.718,-2.282 -10.218,-2.282 -14.937,0 -4.719,2.277 -8.137,6.582 -9.289,11.695"
         style="fill:none;stroke:#000000;stroke-width:0.9216;stroke-linecap:square;stroke-linejoin:miter;stroke-miterlimit:3.25;stroke-dasharray:none;stroke-opacity:1"
         id="path90" />
      <path
         d="m 263.074,57.809 10.055,-3.352 v 6.703 z"
         style="fill:#000000;fill-opacity:1;fill-rule:evenodd;stroke:none"
         id="path92" />
      <text
         xml:space="preserve"
         transform="translate(261.86158,45.156022)"
         style="font-variant:normal;font-size:21.12px;font-family:CairoFont-0;-inkscape-font-specification:CairoFont-0-0;writing-mode:lr-tb;fill:#000000;fill-opacity:1;fill-rule:nonzero;stroke:none"
         id="text96"><tspan
           x="0"
           y="0"
           id="tspan94">u</tspan></text>
      <path
         d="m 251.344,71.215 -0.602,1.277 -0.23,1.457 0.191,1.516 0.609,1.43 0.973,1.207 1.235,0.875 1.378,0.472 1.399,0.067 1.312,-0.309 1.157,-0.598 0.968,-0.8 0.762,-0.891 0.566,-0.895 0.372,-0.808 0.179,-0.668 -0.019,-0.488 -0.219,-0.289 -0.43,-0.09 -0.625,0.105 -0.785,0.289 -0.89,0.481 -0.926,0.672 -0.864,0.882 -0.707,1.082 -0.441,1.258 -0.094,1.379 0.309,1.41 0.719,1.313 1.086,1.097 1.355,0.766 1.492,0.367 1.488,-0.062 1.356,-0.457 1.129,-0.789 0.851,-1.02 0.575,-1.148 0.324,-1.18 0.121,-1.125 -0.027,-0.988 -0.137,-0.797 -0.219,-0.563 -0.297,-0.293 -0.371,-0.015 -0.445,0.258 -0.504,0.511 -0.535,0.746 -0.504,0.953 -0.395,1.122 -0.203,1.242 0.074,1.308 0.415,1.293 0.781,1.168 1.121,0.942 1.39,0.613 1.54,0.215 1.539,-0.215 1.39,-0.613 1.125,-0.942 0.778,-1.168 0.414,-1.293 0.074,-1.308 -0.203,-1.242 -0.395,-1.122 -0.504,-0.953 -0.531,-0.746 -0.508,-0.511 -0.445,-0.258 -0.371,0.015 -0.297,0.293 -0.219,0.563 -0.137,0.797 -0.027,0.988 0.121,1.125 0.324,1.18 0.575,1.148 0.851,1.02 1.129,0.789 1.356,0.457 1.488,0.062 1.496,-0.367 1.355,-0.766 1.082,-1.097 0.719,-1.313 0.309,-1.41 -0.094,-1.379 -0.441,-1.258 -0.703,-1.082 -0.868,-0.882 -0.925,-0.672 -0.891,-0.481 -0.785,-0.289 -0.625,-0.105 -0.426,0.09 -0.223,0.289 -0.019,0.488 0.18,0.668 0.371,0.808 0.566,0.895 0.766,0.891 0.965,0.8 1.156,0.598 1.312,0.309 1.399,-0.067 1.379,-0.472 1.234,-0.875 0.973,-1.207 0.609,-1.43 0.191,-1.516 -0.226,-1.457 -0.606,-1.277"
         style="fill:none;stroke:#000000;stroke-width:0.9216;stroke-linecap:square;stroke-linejoin:miter;stroke-miterlimit:3.25;stroke-dasharray:none;stroke-opacity:1"
         id="path98" />
      <text
         xml:space="preserve"
         transform="translate(261.82057,112.49182)"
         style="font-variant:normal;font-size:21.12px;font-family:CairoFont-0;-inkscape-font-specification:CairoFont-0-0;writing-mode:lr-tb;fill:#000000;fill-opacity:1;fill-rule:nonzero;stroke:none"
         id="text102"><tspan
           x="0"
           y="0"
           id="tspan100">g</tspan></text>
      <path
         d="M 301.613,100.539 C 302.625,88.238 295.969,76.586 284.859,71.215"
         style="fill:none;stroke:#000000;stroke-width:0.9216;stroke-linecap:square;stroke-linejoin:miter;stroke-miterlimit:3.25;stroke-dasharray:none;stroke-opacity:1"
         id="path104" />
      <path
         d="m 295.289,78.914 7.895,7.066 -5.817,3.325 z"
         style="fill:#000000;fill-opacity:1;fill-rule:evenodd;stroke:none"
         id="path106" />
      <text
         xml:space="preserve"
         transform="translate(303.98957,77.168926)"
         style="font-variant:normal;font-size:21.12px;font-family:CairoFont-0;-inkscape-font-specification:CairoFont-0-0;writing-mode:lr-tb;fill:#000000;fill-opacity:1;fill-rule:nonzero;stroke:none"
         id="text110"><tspan
           x="0"
           y="0"
           id="tspan108">u</tspan></text>
      <path
         d="m 288.543,71.215 c 0,0.976 -0.387,1.914 -1.078,2.605 -0.692,0.692 -1.629,1.082 -2.606,1.082 -0.98,0 -1.918,-0.39 -2.609,-1.082 -0.691,-0.691 -1.078,-1.629 -1.078,-2.605 0,-0.977 0.387,-1.914 1.078,-2.606 0.691,-0.691 1.629,-1.082 2.609,-1.082 0.977,0 1.914,0.391 2.606,1.082 0.691,0.692 1.078,1.629 1.078,2.606 z"
         style="fill:#000000;fill-opacity:1;fill-rule:evenodd;stroke:none"
         id="path112" />
      <path
         d="m 255.031,71.215 c 0,0.976 -0.386,1.914 -1.078,2.605 -0.691,0.692 -1.629,1.082 -2.609,1.082 -0.977,0 -1.914,-0.39 -2.606,-1.082 -0.691,-0.691 -1.078,-1.629 -1.078,-2.605 0,-0.977 0.387,-1.914 1.078,-2.606 0.692,-0.691 1.629,-1.082 2.606,-1.082 0.98,0 1.918,0.391 2.609,1.082 0.692,0.692 1.078,1.629 1.078,2.606 z"
         style="fill:#000000;fill-opacity:1;fill-rule:evenodd;stroke:none"
         id="path114" />
      <path
         d="m 238.277,100.539 c 0,0.977 -0.39,1.914 -1.082,2.606 -0.691,0.691 -1.629,1.078 -2.605,1.078 -0.977,0 -1.918,-0.387 -2.61,-1.078 -0.687,-0.692 -1.078,-1.629 -1.078,-2.606 0,-0.98 0.391,-1.918 1.078,-2.609 0.692,-0.692 1.633,-1.078 2.61,-1.078 0.976,0 1.914,0.386 2.605,1.078 0.692,0.691 1.082,1.629 1.082,2.609 z"
         style="fill:#000000;fill-opacity:1;fill-rule:evenodd;stroke:none"
         id="path116" />
      <path
         d="m 305.301,100.539 c 0,0.977 -0.387,1.914 -1.078,2.606 -0.692,0.691 -1.629,1.078 -2.61,1.078 -0.976,0 -1.914,-0.387 -2.605,-1.078 -0.692,-0.692 -1.078,-1.629 -1.078,-2.606 0,-0.98 0.386,-1.918 1.078,-2.609 0.691,-0.692 1.629,-1.078 2.605,-1.078 0.981,0 1.918,0.386 2.61,1.078 0.691,0.691 1.078,1.629 1.078,2.609 z"
         style="fill:#000000;fill-opacity:1;fill-rule:evenodd;stroke:none"
         id="path118" />
      <path
         d="m 418.91,100.539 -0.996,0.836 -1.141,0.648 -1.238,0.426 -1.297,0.18 -1.304,-0.074 -1.27,-0.325 -1.184,-0.558 -1.062,-0.762 -0.898,-0.93 -0.715,-1.05 -0.504,-1.118 -0.297,-1.124 -0.082,-1.083 0.109,-0.976 0.281,-0.832 0.418,-0.637 0.52,-0.41 0.574,-0.168 0.582,0.09 0.543,0.336 0.457,0.57 0.328,0.77 0.164,0.937 -0.019,1.055 -0.231,1.121 -0.437,1.125 -0.649,1.074 -0.843,0.973 -1.016,0.82 -1.148,0.625 -1.25,0.402 -1.297,0.153 -1.305,-0.102 -1.262,-0.347 -1.175,-0.582 -1.043,-0.782 -0.883,-0.945 -0.692,-1.059 -0.484,-1.121 -0.273,-1.125 -0.063,-1.07 0.129,-0.969 0.297,-0.808 0.434,-0.614 0.527,-0.386 0.578,-0.141 0.578,0.113 0.535,0.364 0.446,0.589 0.312,0.793 0.148,0.95 -0.042,1.066 -0.25,1.121 -0.465,1.125 -0.668,1.067 -0.864,0.96 -1.027,0.801 -1.164,0.602 -1.254,0.375 -1.305,0.125 -1.3,-0.125 -1.254,-0.375 -1.164,-0.602 -1.028,-0.801 -0.863,-0.96 -0.672,-1.067 -0.461,-1.125 -0.25,-1.121 -0.043,-1.066 0.149,-0.95 0.312,-0.793 0.446,-0.589 0.535,-0.364 0.578,-0.113 0.578,0.141 0.527,0.386 0.43,0.614 0.301,0.808 0.129,0.969 -0.067,1.07 -0.269,1.125 -0.485,1.121 -0.691,1.059 -0.883,0.945 -1.047,0.782 -1.172,0.582 -1.261,0.347 -1.305,0.102 -1.301,-0.153 -1.246,-0.402 -1.152,-0.625 -1.012,-0.82 -0.844,-0.973 -0.648,-1.074 -0.442,-1.125 -0.226,-1.121 -0.024,-1.055 0.168,-0.937 0.329,-0.77 0.457,-0.57 0.539,-0.336 0.582,-0.09 0.574,0.168 0.519,0.41 0.422,0.637 0.282,0.832 0.109,0.976 -0.086,1.083 -0.293,1.124 -0.508,1.118 -0.711,1.05 -0.902,0.93 -1.059,0.762 -1.183,0.558 -1.27,0.325 -1.308,0.074 -1.297,-0.18 -1.239,-0.426 -1.136,-0.648 -0.996,-0.836"
         style="fill:none;stroke:#000000;stroke-width:0.9216;stroke-linecap:square;stroke-linejoin:miter;stroke-miterlimit:3.25;stroke-dasharray:none;stroke-opacity:1"
         id="path120" />
      <text
         xml:space="preserve"
         transform="translate(387.49329,128.41036)"
         style="font-variant:normal;font-size:21.12px;font-family:CairoFont-0;-inkscape-font-specification:CairoFont-0-0;writing-mode:lr-tb;fill:#000000;fill-opacity:1;fill-rule:nonzero;stroke:none"
         id="text124"><tspan
           x="0"
           y="0"
           id="tspan122">g</tspan></text>
      <path
         d="m 485.934,100.539 0.996,-0.84 1.14,-0.648 1.239,-0.422 1.296,-0.18 1.305,0.074 1.27,0.325 1.183,0.554 1.063,0.766 0.898,0.93 0.711,1.047 0.508,1.117 0.297,1.129 0.082,1.078 -0.11,0.98 -0.281,0.828 -0.418,0.637 -0.519,0.414 -0.574,0.164 -0.582,-0.086 -0.543,-0.336 -0.457,-0.57 -0.329,-0.773 -0.164,-0.938 0.02,-1.055 0.23,-1.117 0.438,-1.125 0.648,-1.078 0.844,-0.973 1.016,-0.82 1.148,-0.625 1.246,-0.398 1.301,-0.153 1.305,0.098 1.261,0.352 1.176,0.578 1.043,0.785 0.883,0.941 0.691,1.063 0.485,1.117 0.273,1.125 0.063,1.074 -0.129,0.965 -0.297,0.812 -0.434,0.614 -0.527,0.386 -0.578,0.141 -0.578,-0.113 -0.535,-0.363 -0.446,-0.59 -0.312,-0.793 -0.149,-0.953 0.043,-1.063 0.25,-1.121 0.465,-1.125 0.668,-1.066 0.863,-0.961 1.028,-0.801 1.164,-0.606 1.254,-0.371 1.304,-0.129 1.301,0.129 1.254,0.371 1.164,0.606 1.027,0.801 0.864,0.961 0.672,1.066 0.46,1.125 0.25,1.121 0.043,1.063 -0.148,0.953 -0.312,0.793 -0.446,0.59 -0.535,0.363 -0.578,0.113 -0.578,-0.141 -0.528,-0.386 -0.433,-0.614 -0.297,-0.812 -0.129,-0.965 0.067,-1.074 0.269,-1.125 0.484,-1.117 0.692,-1.063 0.883,-0.941 1.046,-0.785 1.172,-0.578 1.262,-0.352 1.305,-0.098 1.301,0.153 1.246,0.398 1.152,0.625 1.012,0.82 0.843,0.973 0.649,1.078 0.441,1.125 0.227,1.117 0.023,1.055 -0.168,0.938 -0.328,0.773 -0.457,0.57 -0.539,0.336 -0.582,0.086 -0.574,-0.164 -0.52,-0.414 -0.422,-0.637 -0.281,-0.828 -0.109,-0.98 0.086,-1.078 0.293,-1.129 0.508,-1.117 0.71,-1.047 0.903,-0.93 1.058,-0.766 1.184,-0.554 1.27,-0.325 1.308,-0.074 1.293,0.18 1.242,0.422 1.137,0.648 0.996,0.84"
         style="fill:none;stroke:#000000;stroke-width:0.9216;stroke-linecap:square;stroke-linejoin:miter;stroke-miterlimit:3.25;stroke-dasharray:none;stroke-opacity:1"
         id="path126" />
      <text
         xml:space="preserve"
         transform="translate(504.78784,134.27509)"
         style="font-variant:normal;font-size:21.12px;font-family:CairoFont-0;-inkscape-font-specification:CairoFont-0-0;writing-mode:lr-tb;fill:#000000;fill-opacity:1;fill-rule:nonzero;stroke:none"
         id="text130"><tspan
           x="0"
           y="0"
           id="tspan128">g</tspan></text>
      <path
         d="m 418.91,100.539 c 0,8.887 3.531,17.41 9.817,23.695 6.281,6.286 14.808,9.817 23.695,9.817 8.887,0 17.414,-3.531 23.695,-9.817 6.285,-6.285 9.817,-14.808 9.817,-23.695"
         style="fill:none;stroke:#000000;stroke-width:0.9216;stroke-linecap:square;stroke-linejoin:miter;stroke-miterlimit:3.25;stroke-dasharray:none;stroke-opacity:1"
         id="path132" />
      <path
         d="m 447.395,134.051 10.054,3.351 v -6.703 z"
         style="fill:#000000;fill-opacity:1;fill-rule:evenodd;stroke:none"
         id="path134" />
      <text
         xml:space="preserve"
         transform="translate(446.18158,161.92309)"
         style="font-variant:normal;font-size:21.12px;font-family:CairoFont-0;-inkscape-font-specification:CairoFont-0-0;writing-mode:lr-tb;fill:#000000;fill-opacity:1;fill-rule:nonzero;stroke:none"
         id="text138"><tspan
           x="0"
           y="0"
           id="tspan136">u</tspan></text>
      <path
         d="m 435.664,71.215 c -11.203,5.269 -17.906,16.996 -16.754,29.324"
         style="fill:none;stroke:#000000;stroke-width:0.9216;stroke-linecap:square;stroke-linejoin:miter;stroke-miterlimit:3.25;stroke-dasharray:none;stroke-opacity:1"
         id="path140" />
      <path
         d="m 425.148,78.863 -7.898,7.067 5.82,3.328 z"
         style="fill:#000000;fill-opacity:1;fill-rule:evenodd;stroke:none"
         id="path142" />
      <text
         xml:space="preserve"
         transform="translate(403.96563,77.118657)"
         style="font-variant:normal;font-size:21.12px;font-family:CairoFont-0;-inkscape-font-specification:CairoFont-0-0;writing-mode:lr-tb;fill:#000000;fill-opacity:1;fill-rule:nonzero;stroke:none"
         id="text146"><tspan
           x="0"
           y="0"
           id="tspan144">u</tspan></text>
      <path
         d="m 469.18,71.215 c -1.153,-5.113 -4.571,-9.418 -9.289,-11.695 -4.719,-2.282 -10.219,-2.282 -14.938,0 -4.719,2.277 -8.137,6.582 -9.289,11.695"
         style="fill:none;stroke:#000000;stroke-width:0.9216;stroke-linecap:square;stroke-linejoin:miter;stroke-miterlimit:3.25;stroke-dasharray:none;stroke-opacity:1"
         id="path148" />
      <path
         d="M 457.449,57.809 447.395,54.457 V 61.16 Z"
         style="fill:#000000;fill-opacity:1;fill-rule:evenodd;stroke:none"
         id="path150" />
      <text
         xml:space="preserve"
         transform="translate(446.18158,45.156022)"
         style="font-variant:normal;font-size:21.12px;font-family:CairoFont-0;-inkscape-font-specification:CairoFont-0-0;writing-mode:lr-tb;fill:#000000;fill-opacity:1;fill-rule:nonzero;stroke:none"
         id="text154"><tspan
           x="0"
           y="0"
           id="tspan152">u</tspan></text>
      <path
         d="m 435.664,71.215 -0.602,1.277 -0.23,1.457 0.191,1.516 0.61,1.43 0.972,1.207 1.235,0.875 1.379,0.472 1.398,0.067 1.313,-0.309 1.156,-0.598 0.969,-0.8 0.761,-0.891 0.567,-0.895 0.371,-0.808 0.18,-0.668 -0.02,-0.488 -0.223,-0.289 -0.425,-0.09 -0.625,0.105 -0.786,0.289 -0.89,0.481 -0.926,0.672 -0.867,0.882 -0.703,1.082 -0.442,1.258 -0.093,1.379 0.308,1.41 0.719,1.313 1.086,1.097 1.351,0.766 1.497,0.367 1.488,-0.062 1.355,-0.457 1.129,-0.789 0.852,-1.02 0.574,-1.148 0.324,-1.18 0.121,-1.125 -0.027,-0.988 -0.137,-0.797 -0.219,-0.563 -0.296,-0.293 -0.371,-0.015 -0.446,0.258 -0.508,0.511 -0.531,0.746 -0.504,0.953 -0.394,1.122 -0.203,1.242 0.074,1.308 0.414,1.293 0.777,1.168 1.125,0.942 1.391,0.613 1.539,0.215 1.539,-0.215 1.391,-0.613 1.125,-0.942 0.777,-1.168 0.414,-1.293 0.074,-1.308 -0.203,-1.242 -0.394,-1.122 -0.504,-0.953 -0.532,-0.746 -0.507,-0.511 -0.446,-0.258 -0.371,0.015 -0.297,0.293 -0.218,0.563 -0.137,0.797 -0.028,0.988 0.122,1.125 0.324,1.18 0.574,1.148 0.852,1.02 1.128,0.789 1.356,0.457 1.488,0.062 1.496,-0.367 1.352,-0.766 1.086,-1.097 0.719,-1.313 0.308,-1.41 -0.094,-1.379 -0.441,-1.258 -0.703,-1.082 -0.867,-0.882 -0.926,-0.672 -0.891,-0.481 -0.785,-0.289 -0.625,-0.105 -0.43,0.09 -0.218,0.289 -0.02,0.488 0.18,0.668 0.371,0.808 0.566,0.895 0.762,0.891 0.969,0.8 1.156,0.598 1.313,0.309 1.398,-0.067 1.379,-0.472 1.234,-0.875 0.973,-1.207 0.609,-1.43 0.192,-1.516 -0.231,-1.457 -0.601,-1.277"
         style="fill:none;stroke:#000000;stroke-width:0.9216;stroke-linecap:square;stroke-linejoin:miter;stroke-miterlimit:3.25;stroke-dasharray:none;stroke-opacity:1"
         id="path156" />
      <text
         xml:space="preserve"
         transform="translate(446.14057,112.49182)"
         style="font-variant:normal;font-size:21.12px;font-family:CairoFont-0;-inkscape-font-specification:CairoFont-0-0;writing-mode:lr-tb;fill:#000000;fill-opacity:1;fill-rule:nonzero;stroke:none"
         id="text160"><tspan
           x="0"
           y="0"
           id="tspan158">g</tspan></text>
      <path
         d="M 485.934,100.539 C 486.945,88.238 480.285,76.586 469.18,71.215"
         style="fill:none;stroke:#000000;stroke-width:0.9216;stroke-linecap:square;stroke-linejoin:miter;stroke-miterlimit:3.25;stroke-dasharray:none;stroke-opacity:1"
         id="path162" />
      <path
         d="m 484.594,87.645 -2.078,-10.395 -5.817,3.328 z"
         style="fill:#000000;fill-opacity:1;fill-rule:evenodd;stroke:none"
         id="path164" />
      <text
         xml:space="preserve"
         transform="translate(488.30957,77.168926)"
         style="font-variant:normal;font-size:21.12px;font-family:CairoFont-0;-inkscape-font-specification:CairoFont-0-0;writing-mode:lr-tb;fill:#000000;fill-opacity:1;fill-rule:nonzero;stroke:none"
         id="text168"><tspan
           x="0"
           y="0"
           id="tspan166">u</tspan></text>
      <path
         d="m 472.863,71.215 c 0,0.976 -0.386,1.914 -1.078,2.605 -0.691,0.692 -1.629,1.082 -2.605,1.082 -0.981,0 -1.918,-0.39 -2.61,-1.082 -0.691,-0.691 -1.078,-1.629 -1.078,-2.605 0,-0.977 0.387,-1.914 1.078,-2.606 0.692,-0.691 1.629,-1.082 2.61,-1.082 0.976,0 1.914,0.391 2.605,1.082 0.692,0.692 1.078,1.629 1.078,2.606 z"
         style="fill:#000000;fill-opacity:1;fill-rule:evenodd;stroke:none"
         id="path170" />
      <path
         d="m 439.352,71.215 c 0,0.976 -0.387,1.914 -1.079,2.605 -0.691,0.692 -1.628,1.082 -2.609,1.082 -0.976,0 -1.914,-0.39 -2.605,-1.082 -0.692,-0.691 -1.079,-1.629 -1.079,-2.605 0,-0.977 0.387,-1.914 1.079,-2.606 0.691,-0.691 1.629,-1.082 2.605,-1.082 0.981,0 1.918,0.391 2.609,1.082 0.692,0.692 1.079,1.629 1.079,2.606 z"
         style="fill:#000000;fill-opacity:1;fill-rule:evenodd;stroke:none"
         id="path172" />
      <path
         d="m 422.594,100.539 c 0,0.977 -0.387,1.914 -1.078,2.606 -0.692,0.691 -1.629,1.078 -2.606,1.078 -0.98,0 -1.918,-0.387 -2.609,-1.078 -0.692,-0.692 -1.078,-1.629 -1.078,-2.606 0,-0.98 0.386,-1.918 1.078,-2.609 0.691,-0.692 1.629,-1.078 2.609,-1.078 0.977,0 1.914,0.386 2.606,1.078 0.691,0.691 1.078,1.629 1.078,2.609 z"
         style="fill:#000000;fill-opacity:1;fill-rule:evenodd;stroke:none"
         id="path174" />
      <path
         d="m 489.621,100.539 c 0,0.977 -0.387,1.914 -1.078,2.606 -0.691,0.691 -1.629,1.078 -2.609,1.078 -0.977,0 -1.914,-0.387 -2.606,-1.078 -0.691,-0.692 -1.078,-1.629 -1.078,-2.606 0,-0.98 0.387,-1.918 1.078,-2.609 0.692,-0.692 1.629,-1.078 2.606,-1.078 0.98,0 1.918,0.386 2.609,1.078 0.691,0.691 1.078,1.629 1.078,2.609 z"
         style="fill:#000000;fill-opacity:1;fill-rule:evenodd;stroke:none"
         id="path176" />
      <path
         d="m 603.23,100.539 -1,0.836 -1.136,0.648 -1.239,0.426 -1.296,0.18 -1.305,-0.074 -1.27,-0.325 -1.187,-0.558 -1.059,-0.762 -0.898,-0.93 -0.715,-1.05 -0.504,-1.118 -0.297,-1.124 -0.086,-1.083 0.114,-0.976 0.281,-0.832 0.418,-0.637 0.519,-0.41 0.575,-0.168 0.582,0.09 0.543,0.336 0.453,0.57 0.332,0.77 0.164,0.937 -0.02,1.055 -0.23,1.121 -0.438,1.125 -0.652,1.074 -0.84,0.973 -1.016,0.82 -1.148,0.625 -1.25,0.402 -1.297,0.153 -1.305,-0.102 -1.261,-0.347 -1.176,-0.582 -1.043,-0.782 -0.883,-0.945 -0.691,-1.059 -0.485,-1.121 -0.273,-1.125 -0.063,-1.07 0.129,-0.969 0.297,-0.808 0.434,-0.614 0.527,-0.386 0.578,-0.141 0.578,0.113 0.536,0.364 0.445,0.589 0.312,0.793 0.149,0.95 -0.043,1.066 -0.25,1.121 -0.465,1.125 -0.668,1.067 -0.863,0.96 -1.032,0.801 -1.16,0.602 -1.254,0.375 -1.304,0.125 -1.301,-0.125 -1.254,-0.375 -1.164,-0.602 -1.031,-0.801 -0.86,-0.96 -0.672,-1.067 -0.46,-1.125 -0.25,-1.121 -0.043,-1.066 0.148,-0.95 0.313,-0.793 0.445,-0.589 0.531,-0.364 0.582,-0.113 0.578,0.141 0.528,0.386 0.429,0.614 0.301,0.808 0.129,0.969 -0.066,1.07 -0.27,1.125 -0.488,1.121 -0.692,1.059 -0.879,0.945 -1.046,0.782 -1.172,0.582 -1.262,0.347 -1.305,0.102 -1.301,-0.153 -1.246,-0.402 -1.152,-0.625 -1.012,-0.82 -0.843,-0.973 -0.649,-1.074 -0.441,-1.125 -0.227,-1.121 -0.023,-1.055 0.168,-0.937 0.328,-0.77 0.457,-0.57 0.539,-0.336 0.582,-0.09 0.574,0.168 0.52,0.41 0.422,0.637 0.281,0.832 0.109,0.976 -0.086,1.083 -0.293,1.124 -0.508,1.118 -0.71,1.05 -0.903,0.93 -1.058,0.762 -1.184,0.558 -1.269,0.325 -1.309,0.074 -1.297,-0.18 -1.238,-0.426 -1.137,-0.648 -0.996,-0.836"
         style="fill:none;stroke:#000000;stroke-width:0.9216;stroke-linecap:square;stroke-linejoin:miter;stroke-miterlimit:3.25;stroke-dasharray:none;stroke-opacity:1"
         id="path178" />
      <text
         xml:space="preserve"
         transform="translate(571.81329,128.41036)"
         style="font-variant:normal;font-size:21.12px;font-family:CairoFont-0;-inkscape-font-specification:CairoFont-0-0;writing-mode:lr-tb;fill:#000000;fill-opacity:1;fill-rule:nonzero;stroke:none"
         id="text182"><tspan
           x="0"
           y="0"
           id="tspan180">g</tspan></text>
      <path
         d="m 670.254,100.539 0.996,-0.84 1.141,-0.648 1.238,-0.422 1.297,-0.18 1.304,0.074 1.27,0.325 1.184,0.554 1.062,0.766 0.899,0.93 0.71,1.047 0.508,1.117 0.297,1.129 0.082,1.078 -0.109,0.98 -0.281,0.828 -0.418,0.637 -0.52,0.414 -0.574,0.164 -0.582,-0.086 -0.543,-0.336 -0.457,-0.57 -0.328,-0.773 -0.168,-0.938 0.023,-1.055 0.227,-1.117 0.441,-1.125 0.649,-1.078 0.843,-0.973 1.016,-0.82 1.148,-0.625 1.246,-0.398 1.301,-0.153 1.305,0.098 1.262,0.352 1.175,0.578 1.043,0.785 0.883,0.941 0.692,1.063 0.484,1.117 0.273,1.125 0.063,1.074 -0.129,0.965 -0.297,0.812 -0.433,0.614 -0.528,0.386 -0.578,0.141 -0.578,-0.113 -0.535,-0.363 -0.446,-0.59 -0.312,-0.793 -0.148,-0.953 0.043,-1.063 0.25,-1.121 0.46,-1.125 0.672,-1.066 0.864,-0.961 1.027,-0.801 1.164,-0.606 1.254,-0.371 1.305,-0.129 1.3,0.129 1.254,0.371 1.164,0.606 1.028,0.801 0.863,0.961 0.672,1.066 0.461,1.125 0.25,1.121 0.043,1.063 -0.149,0.953 -0.312,0.793 -0.445,0.59 -0.536,0.363 -0.578,0.113 -0.578,-0.141 -0.527,-0.386 -0.434,-0.614 -0.297,-0.812 -0.129,-0.965 0.067,-1.074 0.269,-1.125 0.485,-1.117 0.691,-1.063 0.883,-0.941 1.043,-0.785 1.176,-0.578 1.261,-0.352 1.305,-0.098 1.301,0.153 1.246,0.398 1.152,0.625 1.012,0.82 0.844,0.973 0.648,1.078 0.442,1.125 0.226,1.117 0.024,1.055 -0.168,0.938 -0.328,0.773 -0.458,0.57 -0.539,0.336 -0.582,0.086 -0.574,-0.164 -0.519,-0.414 -0.422,-0.637 -0.281,-0.828 -0.11,-0.98 0.086,-1.078 0.293,-1.129 0.508,-1.117 0.711,-1.047 0.898,-0.93 1.063,-0.766 1.183,-0.554 1.27,-0.325 1.308,-0.074 1.293,0.18 1.243,0.422 1.136,0.648 0.996,0.84"
         style="fill:none;stroke:#000000;stroke-width:0.9216;stroke-linecap:square;stroke-linejoin:miter;stroke-miterlimit:3.25;stroke-dasharray:none;stroke-opacity:1"
         id="path184" />
      <text
         xml:space="preserve"
         transform="translate(689.10784,134.27509)"
         style="font-variant:normal;font-size:21.12px;font-family:CairoFont-0;-inkscape-font-specification:CairoFont-0-0;writing-mode:lr-tb;fill:#000000;fill-opacity:1;fill-rule:nonzero;stroke:none"
         id="text188"><tspan
           x="0"
           y="0"
           id="tspan186">g</tspan></text>
      <path
         d="m 603.23,100.539 c 0,8.887 3.532,17.41 9.813,23.695 6.285,6.286 14.812,9.817 23.699,9.817 8.887,0 17.41,-3.531 23.696,-9.817 6.285,-6.285 9.816,-14.808 9.816,-23.695"
         style="fill:none;stroke:#000000;stroke-width:0.9216;stroke-linecap:butt;stroke-linejoin:miter;stroke-miterlimit:3.25;stroke-dasharray:0.9216, 5.5296;stroke-dashoffset:0;stroke-opacity:1"
         id="path190" />
      <path
         d="m 641.77,134.051 -10.055,3.351 v -6.703 z"
         style="fill:#000000;fill-opacity:1;fill-rule:evenodd;stroke:none"
         id="path192" />
      <text
         xml:space="preserve"
         transform="translate(626.2376,153.95044)"
         style="font-variant:normal;font-size:21.12px;font-family:CairoFont-0;-inkscape-font-specification:CairoFont-0-0;writing-mode:lr-tb;fill:#000000;fill-opacity:1;fill-rule:nonzero;stroke:none"
         id="text196"><tspan
           x="0"
           y="0"
           id="tspan194">u</tspan></text>
      <text
         xml:space="preserve"
         transform="translate(637.90947,157.87036)"
         style="font-variant:normal;font-size:14.88px;font-family:CairoFont-0;-inkscape-font-specification:CairoFont-0-0;writing-mode:lr-tb;fill:#000000;fill-opacity:1;fill-rule:nonzero;stroke:none"
         id="text200"><tspan
           x="0"
           y="0"
           id="tspan198">g</tspan></text>
      <path
         d="m 619.984,71.215 c -11.203,5.269 -17.906,16.996 -16.754,29.324"
         style="fill:none;stroke:#000000;stroke-width:0.9216;stroke-linecap:butt;stroke-linejoin:miter;stroke-miterlimit:3.25;stroke-dasharray:0.9216, 5.5296;stroke-dashoffset:0;stroke-opacity:1"
         id="path202" />
      <path
         d="m 604.48,87.594 2.079,-10.391 5.82,3.324 z"
         style="fill:#000000;fill-opacity:1;fill-rule:evenodd;stroke:none"
         id="path204" />
      <text
         xml:space="preserve"
         transform="translate(579.75766,73.616704)"
         style="font-variant:normal;font-size:21.12px;font-family:CairoFont-0;-inkscape-font-specification:CairoFont-0-0;writing-mode:lr-tb;fill:#000000;fill-opacity:1;fill-rule:nonzero;stroke:none"
         id="text208"><tspan
           x="0"
           y="0"
           id="tspan206">u</tspan></text>
      <text
         xml:space="preserve"
         transform="translate(591.42954,77.536626)"
         style="font-variant:normal;font-size:14.88px;font-family:CairoFont-0;-inkscape-font-specification:CairoFont-0-0;writing-mode:lr-tb;fill:#000000;fill-opacity:1;fill-rule:nonzero;stroke:none"
         id="text212"><tspan
           x="0"
           y="0"
           id="tspan210">g</tspan></text>
      <path
         d="m 653.5,71.215 c -1.152,-5.113 -4.57,-9.418 -9.289,-11.695 -4.719,-2.282 -10.219,-2.282 -14.938,0 -4.718,2.277 -8.136,6.582 -9.289,11.695"
         style="fill:none;stroke:#000000;stroke-width:0.9216;stroke-linecap:butt;stroke-linejoin:miter;stroke-miterlimit:3.25;stroke-dasharray:0.9216, 5.5296;stroke-dashoffset:0;stroke-opacity:1"
         id="path214" />
      <path
         d="M 631.715,57.809 641.77,54.457 V 61.16 Z"
         style="fill:#000000;fill-opacity:1;fill-rule:evenodd;stroke:none"
         id="path216" />
      <text
         xml:space="preserve"
         transform="translate(626.2376,41.654069)"
         style="font-variant:normal;font-size:21.12px;font-family:CairoFont-0;-inkscape-font-specification:CairoFont-0-0;writing-mode:lr-tb;fill:#000000;fill-opacity:1;fill-rule:nonzero;stroke:none"
         id="text220"><tspan
           x="0"
           y="0"
           id="tspan218">u</tspan></text>
      <text
         xml:space="preserve"
         transform="translate(637.90947,45.573991)"
         style="font-variant:normal;font-size:14.88px;font-family:CairoFont-0;-inkscape-font-specification:CairoFont-0-0;writing-mode:lr-tb;fill:#000000;fill-opacity:1;fill-rule:nonzero;stroke:none"
         id="text224"><tspan
           x="0"
           y="0"
           id="tspan222">g</tspan></text>
      <path
         d="m 619.984,71.215 -0.605,1.277 -0.227,1.457 0.192,1.516 0.609,1.43 0.973,1.207 1.234,0.875 1.379,0.472 1.399,0.067 1.312,-0.309 1.156,-0.598 0.965,-0.8 0.766,-0.891 0.566,-0.895 0.371,-0.808 0.18,-0.668 -0.02,-0.488 -0.222,-0.289 -0.426,-0.09 -0.625,0.105 -0.785,0.289 -0.891,0.481 -0.926,0.672 -0.867,0.882 -0.703,1.082 -0.441,1.258 -0.094,1.379 0.308,1.41 0.719,1.313 1.082,1.097 1.356,0.766 1.496,0.367 1.488,-0.062 1.356,-0.457 1.129,-0.789 0.851,-1.02 0.574,-1.148 0.325,-1.18 0.121,-1.125 -0.028,-0.988 -0.136,-0.797 -0.219,-0.563 -0.297,-0.293 -0.371,-0.015 -0.446,0.258 -0.507,0.511 -0.532,0.746 -0.503,0.953 -0.395,1.122 -0.203,1.242 0.074,1.308 0.414,1.293 0.778,1.168 1.124,0.942 1.391,0.613 1.539,0.215 1.539,-0.215 1.391,-0.613 1.121,-0.942 0.781,-1.168 0.414,-1.293 0.074,-1.308 -0.203,-1.242 -0.394,-1.122 -0.504,-0.953 -0.535,-0.746 -0.504,-0.511 -0.445,-0.258 -0.372,0.015 -0.296,0.293 -0.219,0.563 -0.137,0.797 -0.027,0.988 0.121,1.125 0.324,1.18 0.574,1.148 0.852,1.02 1.125,0.789 1.359,0.457 1.489,0.062 1.492,-0.367 1.355,-0.766 1.086,-1.097 0.719,-1.313 0.308,-1.41 -0.093,-1.379 -0.442,-1.258 -0.707,-1.082 -0.863,-0.882 -0.926,-0.672 -0.89,-0.481 -0.786,-0.289 -0.625,-0.105 -0.429,0.09 -0.223,0.289 -0.016,0.488 0.18,0.668 0.371,0.808 0.567,0.895 0.761,0.891 0.969,0.8 1.156,0.598 1.313,0.309 1.398,-0.067 1.379,-0.472 1.235,-0.875 0.972,-1.207 0.61,-1.43 0.191,-1.516 -0.23,-1.457 -0.602,-1.277"
         style="fill:none;stroke:#000000;stroke-width:0.9216;stroke-linecap:square;stroke-linejoin:miter;stroke-miterlimit:3.25;stroke-dasharray:none;stroke-opacity:1"
         id="path226" />
    </g>
    <g
       id="g228">
      <g
         id="g230"
         clip-path="url(#clipPath234)">
        <text
           xml:space="preserve"
           transform="translate(630.46057,112.49182)"
           style="font-variant:normal;font-size:21.12px;font-family:CairoFont-0;-inkscape-font-specification:CairoFont-0-0;writing-mode:lr-tb;fill:#000000;fill-opacity:1;fill-rule:nonzero;stroke:none"
           id="text238"><tspan
             x="0"
             y="0"
             id="tspan236">g</tspan></text>
      </g>
    </g>
    <g
       id="g240">
      <path
         d="M 670.254,100.539 C 671.266,88.238 664.605,76.586 653.5,71.215"
         style="fill:none;stroke:#000000;stroke-width:0.9216;stroke-linecap:butt;stroke-linejoin:miter;stroke-miterlimit:3.25;stroke-dasharray:0.9216, 5.5296;stroke-dashoffset:0;stroke-opacity:1"
         id="path242" />
      <path
         d="m 663.926,78.914 7.898,7.066 -5.82,3.325 z"
         style="fill:#000000;fill-opacity:1;fill-rule:evenodd;stroke:none"
         id="path244" />
      <text
         xml:space="preserve"
         transform="translate(672.62957,73.666973)"
         style="font-variant:normal;font-size:21.12px;font-family:CairoFont-0;-inkscape-font-specification:CairoFont-0-0;writing-mode:lr-tb;fill:#000000;fill-opacity:1;fill-rule:nonzero;stroke:none"
         id="text248"><tspan
           x="0"
           y="0"
           id="tspan246">u</tspan></text>
      <text
         xml:space="preserve"
         transform="translate(684.30144,77.586895)"
         style="font-variant:normal;font-size:14.88px;font-family:CairoFont-0;-inkscape-font-specification:CairoFont-0-0;writing-mode:lr-tb;fill:#000000;fill-opacity:1;fill-rule:nonzero;stroke:none"
         id="text252"><tspan
           x="0"
           y="0"
           id="tspan250">g</tspan></text>
      <path
         d="m 657.184,71.215 c 0,0.976 -0.387,1.914 -1.079,2.605 -0.691,0.692 -1.628,1.082 -2.605,1.082 -0.98,0 -1.918,-0.39 -2.609,-1.082 -0.692,-0.691 -1.079,-1.629 -1.079,-2.605 0,-0.977 0.387,-1.914 1.079,-2.606 0.691,-0.691 1.629,-1.082 2.609,-1.082 0.977,0 1.914,0.391 2.605,1.082 0.692,0.692 1.079,1.629 1.079,2.606 z"
         style="fill:#000000;fill-opacity:1;fill-rule:evenodd;stroke:none"
         id="path254" />
      <path
         d="m 623.672,71.215 c 0,0.976 -0.387,1.914 -1.078,2.605 -0.692,0.692 -1.629,1.082 -2.61,1.082 -0.976,0 -1.914,-0.39 -2.605,-1.082 -0.691,-0.691 -1.078,-1.629 -1.078,-2.605 0,-0.977 0.387,-1.914 1.078,-2.606 0.691,-0.691 1.629,-1.082 2.605,-1.082 0.981,0 1.918,0.391 2.61,1.082 0.691,0.692 1.078,1.629 1.078,2.606 z"
         style="fill:#000000;fill-opacity:1;fill-rule:evenodd;stroke:none"
         id="path256" />
      <path
         d="m 606.914,100.539 c 0,0.977 -0.387,1.914 -1.078,2.606 -0.691,0.691 -1.629,1.078 -2.606,1.078 -0.98,0 -1.918,-0.387 -2.609,-1.078 -0.691,-0.692 -1.078,-1.629 -1.078,-2.606 0,-0.98 0.387,-1.918 1.078,-2.609 0.691,-0.692 1.629,-1.078 2.609,-1.078 0.977,0 1.915,0.386 2.606,1.078 0.691,0.691 1.078,1.629 1.078,2.609 z"
         style="fill:#000000;fill-opacity:1;fill-rule:evenodd;stroke:none"
         id="path258" />
      <path
         d="m 673.941,100.539 c 0,0.977 -0.39,1.914 -1.082,2.606 -0.691,0.691 -1.629,1.078 -2.605,1.078 -0.977,0 -1.914,-0.387 -2.606,-1.078 -0.691,-0.692 -1.082,-1.629 -1.082,-2.606 0,-0.98 0.391,-1.918 1.082,-2.609 0.692,-0.692 1.629,-1.078 2.606,-1.078 0.976,0 1.914,0.386 2.605,1.078 0.692,0.691 1.082,1.629 1.082,2.609 z"
         style="fill:#000000;fill-opacity:1;fill-rule:evenodd;stroke:none"
         id="path260" />
    </g>
  </g>
</svg>
