<?xml version="1.0" encoding="UTF-8" standalone="no"?>
<!-- Created with Inkscape (http://www.inkscape.org/) -->

<svg
   version="1.1"
   id="svg2"
   width="737.33331"
   height="246.66667"
   viewBox="0 0 737.33331 246.66667"
   sodipodi:docname="12676vegamh2o.pdf"
   xmlns:inkscape="http://www.inkscape.org/namespaces/inkscape"
   xmlns:sodipodi="http://sodipodi.sourceforge.net/DTD/sodipodi-0.dtd"
   xmlns="http://www.w3.org/2000/svg"
   xmlns:svg="http://www.w3.org/2000/svg">
  <defs
     id="defs6">
    <clipPath
       clipPathUnits="userSpaceOnUse"
       id="clipPath78">
      <path
         d="m 60,152 h 4 v 9.281 h -4 z"
         id="path76" />
    </clipPath>
    <clipPath
       clipPathUnits="userSpaceOnUse"
       id="clipPath148">
      <path
         d="m 170,65 h 10.961 V 78 H 170 Z"
         id="path146" />
    </clipPath>
    <clipPath
       clipPathUnits="userSpaceOnUse"
       id="clipPath182">
      <path
         d="m 197,152 h 8 v 9.281 h -8 z"
         id="path180" />
    </clipPath>
    <clipPath
       clipPathUnits="userSpaceOnUse"
       id="clipPath270">
      <path
         d="m 336,152 h 7 v 9.281 h -7 z"
         id="path268" />
    </clipPath>
    <clipPath
       clipPathUnits="userSpaceOnUse"
       id="clipPath364">
      <path
         d="m 474,152 h 7 v 9.281 h -7 z"
         id="path362" />
    </clipPath>
  </defs>
  <sodipodi:namedview
     id="namedview4"
     pagecolor="#ffffff"
     bordercolor="#999999"
     borderopacity="1"
     inkscape:showpageshadow="0"
     inkscape:pageopacity="0"
     inkscape:pagecheckerboard="0"
     inkscape:deskcolor="#d1d1d1" />
  <g
     id="g8"
     inkscape:groupmode="layer"
     inkscape:label="12676vegamh2o"
     transform="matrix(1.3333333,0,0,1.3333333,0,9.5e-6)">
    <g
       id="g10">
      <path
         d="M 0,104.727 H 37.703"
         style="fill:none;stroke:#000000;stroke-width:0.6912;stroke-linecap:butt;stroke-linejoin:miter;stroke-miterlimit:3.25;stroke-dasharray:0.6912, 4.1472;stroke-dashoffset:0;stroke-opacity:1"
         id="path12" />
      <path
         d="m 22.621,104.727 -7.539,2.515 v -5.027 z"
         style="fill:#000000;fill-opacity:1;fill-rule:evenodd;stroke:none"
         id="path14" />
      <text
         xml:space="preserve"
         transform="translate(10.862315,119.90485)"
         style="font-variant:normal;font-size:15.84px;font-family:CairoFont-0;-inkscape-font-specification:CairoFont-0-0;writing-mode:lr-tb;fill:#000000;fill-opacity:1;fill-rule:nonzero;stroke:none"
         id="text18"><tspan
           x="0"
           y="0"
           id="tspan16">u</tspan></text>
      <text
         xml:space="preserve"
         transform="translate(19.75294,122.84625)"
         style="font-variant:normal;font-size:11.28px;font-family:CairoFont-0;-inkscape-font-specification:CairoFont-0-0;writing-mode:lr-tb;fill:#000000;fill-opacity:1;fill-rule:nonzero;stroke:none"
         id="text22"><tspan
           x="0"
           y="0"
           id="tspan20">g</tspan></text>
      <path
         d="M 125.672,104.727 H 87.973"
         style="fill:none;stroke:#000000;stroke-width:0.6912;stroke-linecap:butt;stroke-linejoin:miter;stroke-miterlimit:3.25;stroke-dasharray:0.6912, 4.1472;stroke-dashoffset:0;stroke-opacity:1"
         id="path24" />
      <path
         d="m 110.594,104.727 -7.543,-2.512 v 5.027 z"
         style="fill:#000000;fill-opacity:1;fill-rule:evenodd;stroke:none"
         id="path26" />
      <text
         xml:space="preserve"
         transform="translate(98.833224,119.90485)"
         style="font-variant:normal;font-size:15.84px;font-family:CairoFont-0;-inkscape-font-specification:CairoFont-0-0;writing-mode:lr-tb;fill:#000000;fill-opacity:1;fill-rule:nonzero;stroke:none"
         id="text30"><tspan
           x="0"
           y="0"
           id="tspan28">u</tspan></text>
      <text
         xml:space="preserve"
         transform="translate(107.72385,122.84625)"
         style="font-variant:normal;font-size:11.28px;font-family:CairoFont-0;-inkscape-font-specification:CairoFont-0-0;writing-mode:lr-tb;fill:#000000;fill-opacity:1;fill-rule:nonzero;stroke:none"
         id="text34"><tspan
           x="0"
           y="0"
           id="tspan32">g</tspan></text>
      <path
         d="m 37.703,104.727 c 0,6.668 2.649,13.058 7.359,17.773 4.715,4.715 11.11,7.363 17.774,7.363 6.668,0 13.059,-2.648 17.773,-7.363 4.715,-4.715 7.364,-11.105 7.364,-17.773"
         style="fill:none;stroke:#000000;stroke-width:0.6912;stroke-linecap:butt;stroke-linejoin:miter;stroke-miterlimit:3.25;stroke-dasharray:0.6912, 4.1472;stroke-dashoffset:0;stroke-opacity:1"
         id="path36" />
      <path
         d="m 66.605,129.863 -7.539,2.512 v -5.027 z"
         style="fill:#000000;fill-opacity:1;fill-rule:evenodd;stroke:none"
         id="path38" />
      <text
         xml:space="preserve"
         transform="translate(54.84777,145.03939)"
         style="font-variant:normal;font-size:15.84px;font-family:CairoFont-0;-inkscape-font-specification:CairoFont-0-0;writing-mode:lr-tb;fill:#000000;fill-opacity:1;fill-rule:nonzero;stroke:none"
         id="text42"><tspan
           x="0"
           y="0"
           id="tspan40">u</tspan></text>
      <text
         xml:space="preserve"
         transform="translate(63.738395,147.9808)"
         style="font-variant:normal;font-size:11.28px;font-family:CairoFont-0;-inkscape-font-specification:CairoFont-0-0;writing-mode:lr-tb;fill:#000000;fill-opacity:1;fill-rule:nonzero;stroke:none"
         id="text46"><tspan
           x="0"
           y="0"
           id="tspan44">g</tspan></text>
      <path
         d="m 62.836,79.594 -0.711,-0.621 -0.848,-0.469 -0.945,-0.289 -0.996,-0.086 -1,0.121 -0.945,0.324 -0.848,0.508 -0.707,0.66 -0.539,0.77 -0.363,0.84 -0.188,0.863 -0.027,0.851 0.105,0.801 0.219,0.723 0.289,0.613 0.332,0.488 0.352,0.344 0.343,0.192 0.317,0.031 0.273,-0.125 0.215,-0.281 0.148,-0.426 0.063,-0.543 -0.031,-0.645 -0.149,-0.707 -0.277,-0.734 -0.414,-0.727 -0.559,-0.668 -0.695,-0.574 -0.824,-0.433 -0.918,-0.266 -0.977,-0.067 -0.984,0.141 -0.945,0.344 -0.852,0.531 -0.715,0.692 -0.547,0.808 -0.359,0.883 -0.164,0.914 0.019,0.902 0.184,0.852 0.312,0.773 0.407,0.668 0.465,0.551 0.48,0.422 0.465,0.281 0.418,0.141 h 0.351 l 0.266,-0.141 0.168,-0.269 0.059,-0.395 -0.055,-0.492 -0.18,-0.566 -0.304,-0.614 -0.434,-0.617 -0.566,-0.582 -0.688,-0.504 -0.801,-0.387 -0.883,-0.23 -0.941,-0.051 -0.957,0.153 -0.922,0.355 -0.836,0.543 -0.715,0.715 -0.543,0.836 -0.355,0.922 -0.152,0.957 0.05,0.941 0.231,0.887 0.387,0.797 0.503,0.687 0.582,0.567 0.618,0.433 0.613,0.305 0.566,0.18 0.493,0.054 0.394,-0.058 0.27,-0.168 0.14,-0.266 v -0.352 l -0.14,-0.417 -0.282,-0.465 -0.422,-0.481 -0.55,-0.465 -0.668,-0.406 -0.774,-0.312 -0.851,-0.184 -0.903,-0.02 -0.914,0.165 -0.882,0.359 -0.809,0.547 -0.691,0.715 -0.532,0.851 -0.344,0.946 -0.14,0.984 0.066,0.976 0.266,0.918 0.434,0.825 0.574,0.695 0.668,0.559 0.726,0.414 0.735,0.277 0.707,0.148 0.644,0.032 0.543,-0.063 0.422,-0.148 0.281,-0.215 0.129,-0.274 -0.031,-0.316 -0.191,-0.344 -0.344,-0.351 -0.489,-0.332 -0.613,-0.289 -0.722,-0.215 -0.801,-0.11 -0.852,0.028 -0.863,0.187 -0.84,0.364 -0.773,0.539 -0.657,0.707 -0.507,0.847 -0.325,0.946 -0.121,1 0.086,0.996 0.289,0.945 0.469,0.848 0.621,0.711"
         style="fill:none;stroke:#000000;stroke-width:0.6912;stroke-linecap:square;stroke-linejoin:miter;stroke-miterlimit:3.25;stroke-dasharray:none;stroke-opacity:1"
         id="path48" />
      <text
         xml:space="preserve"
         transform="translate(32.218429,79.921838)"
         style="font-variant:normal;font-size:15.84px;font-family:CairoFont-0;-inkscape-font-specification:CairoFont-0-0;writing-mode:lr-tb;fill:#000000;fill-opacity:1;fill-rule:nonzero;stroke:none"
         id="text52"><tspan
           x="0"
           y="0"
           id="tspan50">g</tspan></text>
      <path
         d="m 62.836,79.594 0.73,-0.606 0.864,-0.453 0.957,-0.262 1.004,-0.062 1,0.152 0.937,0.352 0.836,0.535 0.688,0.684 0.515,0.793 0.336,0.855 0.16,0.875 v 0.855 l -0.136,0.797 -0.239,0.711 -0.308,0.602 -0.352,0.469 -0.359,0.32 -0.352,0.164 h -0.316 l -0.27,-0.156 -0.203,-0.313 -0.133,-0.453 -0.043,-0.57 0.067,-0.66 0.179,-0.719 0.317,-0.738 0.461,-0.715 0.601,-0.649 0.739,-0.539 0.859,-0.39 0.945,-0.207 0.985,-0.004 0.984,0.203 0.922,0.406 0.816,0.59 0.668,0.738 0.489,0.848 0.293,0.902 0.101,0.922 -0.082,0.895 -0.234,0.836 -0.356,0.742 -0.437,0.633 -0.481,0.507 -0.488,0.371 -0.457,0.231 -0.406,0.086 -0.325,-0.059 -0.234,-0.199 -0.129,-0.324 -0.011,-0.442 0.105,-0.531 0.234,-0.594 0.364,-0.625 0.5,-0.609 0.625,-0.555 0.75,-0.457 0.847,-0.32 0.922,-0.148 0.957,0.046 0.949,0.254 0.891,0.453 0.785,0.633 0.637,0.785 0.453,0.891 0.25,0.949 0.047,0.957 -0.149,0.922 -0.32,0.852 -0.457,0.746 -0.555,0.629 -0.609,0.496 -0.621,0.363 -0.594,0.235 -0.535,0.109 -0.437,-0.016 -0.329,-0.129 -0.199,-0.234 -0.058,-0.324 0.086,-0.403 0.23,-0.461 0.371,-0.484 0.508,-0.48 0.633,-0.438 0.746,-0.359 0.832,-0.235 0.894,-0.082 0.922,0.102 0.907,0.293 0.843,0.488 0.739,0.668 0.589,0.817 0.407,0.921 0.207,0.985 -0.008,0.988 -0.207,0.942 -0.391,0.859 -0.535,0.738 -0.648,0.606 -0.719,0.457 -0.738,0.316 -0.719,0.184 -0.66,0.062 -0.571,-0.043 -0.453,-0.129 -0.308,-0.207 -0.16,-0.269 0.003,-0.317 0.164,-0.347 0.321,-0.364 0.469,-0.351 0.597,-0.309 0.711,-0.238 0.801,-0.137 h 0.855 l 0.875,0.16 0.852,0.336 0.793,0.52 0.683,0.687 0.536,0.832 0.351,0.942 0.153,0.996 -0.059,1.004 -0.266,0.957 -0.449,0.863 -0.605,0.731"
         style="fill:none;stroke:#000000;stroke-width:0.6912;stroke-linecap:square;stroke-linejoin:miter;stroke-miterlimit:3.25;stroke-dasharray:none;stroke-opacity:1"
         id="path54" />
      <text
         xml:space="preserve"
         transform="translate(83.843914,80.110347)"
         style="font-variant:normal;font-size:15.84px;font-family:CairoFont-0;-inkscape-font-specification:CairoFont-0-0;writing-mode:lr-tb;fill:#000000;fill-opacity:1;fill-rule:nonzero;stroke:none"
         id="text58"><tspan
           x="0"
           y="0"
           id="tspan56">g</tspan></text>
      <path
         d="m 62.836,79.594 -0.762,0.562 -0.914,0.383 -1.015,0.164 -1.051,-0.07 -1.02,-0.313 -0.918,-0.531 -0.75,-0.707 -0.547,-0.832 -0.32,-0.898 -0.098,-0.907 0.102,-0.871 0.269,-0.797 0.383,-0.703 0.461,-0.601 0.485,-0.489 0.468,-0.379 0.422,-0.261 0.348,-0.149 0.262,-0.027 0.168,0.094 0.07,0.218 -0.024,0.336 -0.125,0.442 -0.214,0.519 -0.325,0.578 -0.429,0.594 -0.547,0.567 -0.672,0.488 -0.781,0.363 -0.879,0.192 -0.938,-0.016 -0.949,-0.246 -0.898,-0.481 -0.789,-0.695 -0.618,-0.867 -0.406,-0.981 -0.168,-1.027 0.071,-1 0.292,-0.918 0.481,-0.789 0.617,-0.633 0.707,-0.468 0.746,-0.317 0.746,-0.187 0.703,-0.079 0.625,0.004 0.52,0.063 0.391,0.105 0.254,0.141 0.101,0.176 -0.055,0.203 -0.203,0.23 -0.343,0.254 -0.481,0.258 -0.594,0.238 -0.691,0.188 -0.77,0.097 -0.82,-0.027 -0.832,-0.191 -0.809,-0.375 -0.726,-0.578 -0.598,-0.762 -0.422,-0.922 -0.199,-1.023 0.035,-1.067 0.278,-1.027 0.492,-0.922 0.672,-0.758 0.797,-0.558 0.867,-0.34 0.883,-0.125 0.855,0.062 0.793,0.215 0.711,0.328 0.609,0.387 0.496,0.41 0.383,0.391 0.262,0.351 0.133,0.285 -0.004,0.219 -0.145,0.137 -0.273,0.062 -0.399,-0.015 -0.507,-0.094 -0.594,-0.184 -0.641,-0.281 -0.652,-0.398 -0.621,-0.52 -0.535,-0.656 -0.407,-0.785 -0.226,-0.891 -0.012,-0.961 0.223,-0.976 0.461,-0.93 0.676,-0.82 0.843,-0.649 0.957,-0.433 1.004,-0.2 0.981,0.043 0.906,0.258 0.785,0.442 0.645,0.582 0.496,0.664 0.355,0.707 0.238,0.699 0.133,0.648 0.055,0.571 -0.016,0.465 -0.074,0.335 -0.133,0.196 -0.183,0.047 -0.239,-0.098 -0.285,-0.238 -0.32,-0.371 -0.328,-0.496 -0.317,-0.61 -0.257,-0.703 -0.161,-0.785 -0.019,-0.84 0.156,-0.859 0.36,-0.836 0.566,-0.762 0.766,-0.637 0.921,-0.457 1.032,-0.238 h 1.066 l 1.027,0.238 0.926,0.457 0.762,0.637 0.566,0.762 0.36,0.836 0.156,0.859 -0.02,0.84 -0.16,0.785 -0.258,0.703 -0.312,0.61 -0.332,0.496 -0.32,0.371 -0.286,0.238 -0.238,0.098 -0.183,-0.047 -0.129,-0.196 -0.075,-0.335 -0.015,-0.465 0.051,-0.571 0.136,-0.648 0.235,-0.699 0.355,-0.707 0.5,-0.664 0.641,-0.582 0.785,-0.442 0.906,-0.258 0.981,-0.043 1.004,0.2 0.957,0.433 0.847,0.649 0.672,0.82 0.461,0.93 0.223,0.976 -0.012,0.961 -0.227,0.891 -0.406,0.785 -0.535,0.656 -0.617,0.52 -0.656,0.398 -0.641,0.281 -0.59,0.184 -0.508,0.094 -0.402,0.015 -0.273,-0.062 -0.141,-0.137 -0.004,-0.219 0.129,-0.285 0.262,-0.351 0.382,-0.391 0.5,-0.41 0.606,-0.387 0.711,-0.328 0.793,-0.215 0.855,-0.062 0.883,0.125 0.867,0.34 0.797,0.558 0.672,0.758 0.492,0.922 0.278,1.027 0.039,1.067 -0.203,1.023 -0.422,0.922 -0.598,0.762 -0.727,0.578 -0.808,0.375 -0.832,0.191 -0.82,0.027 -0.77,-0.097 -0.691,-0.188 -0.594,-0.238 -0.477,-0.258 -0.347,-0.254 -0.204,-0.23 -0.054,-0.203 0.101,-0.176 0.254,-0.141 0.395,-0.105 0.519,-0.063 0.625,-0.004 0.7,0.079 0.746,0.187 0.746,0.317 0.711,0.468 0.617,0.633 0.476,0.789 0.293,0.918 0.071,1 -0.168,1.027 -0.403,0.981 -0.621,0.867 -0.789,0.695 -0.898,0.481 -0.949,0.246 -0.938,0.016 -0.879,-0.192 -0.781,-0.363 -0.668,-0.488 -0.551,-0.567 -0.43,-0.594 -0.32,-0.578 -0.219,-0.519 -0.121,-0.442 -0.027,-0.336 0.07,-0.218 0.168,-0.094 0.262,0.027 0.348,0.149 0.421,0.261 0.469,0.379 0.485,0.489 0.461,0.601 0.386,0.703 0.266,0.797 0.101,0.871 -0.097,0.907 -0.321,0.898 -0.546,0.832 -0.75,0.707 -0.914,0.531 -1.02,0.313 -1.055,0.07 -1.015,-0.164 -0.914,-0.383 -0.762,-0.562"
         style="fill:none;stroke:#000000;stroke-width:0.6912;stroke-linecap:square;stroke-linejoin:miter;stroke-miterlimit:3.25;stroke-dasharray:none;stroke-opacity:1"
         id="path60" />
      <text
         xml:space="preserve"
         transform="translate(58.125426,44.909514)"
         style="font-variant:normal;font-size:15.84px;font-family:CairoFont-0;-inkscape-font-specification:CairoFont-0-0;writing-mode:lr-tb;fill:#000000;fill-opacity:1;fill-rule:nonzero;stroke:none"
         id="text64"><tspan
           x="0"
           y="0"
           id="tspan62">g</tspan></text>
      <path
         d="m 40.465,104.727 c 0,0.734 -0.289,1.437 -0.809,1.957 -0.519,0.515 -1.222,0.808 -1.953,0.808 -0.734,0 -1.437,-0.293 -1.957,-0.808 -0.519,-0.52 -0.808,-1.223 -0.808,-1.957 0,-0.735 0.289,-1.438 0.808,-1.954 0.52,-0.519 1.223,-0.812 1.957,-0.812 0.731,0 1.434,0.293 1.953,0.812 0.52,0.516 0.809,1.219 0.809,1.954 z"
         style="fill:#000000;fill-opacity:1;fill-rule:evenodd;stroke:none"
         id="path66" />
      <path
         d="m 90.734,104.727 c 0,0.734 -0.289,1.437 -0.808,1.957 -0.52,0.515 -1.223,0.808 -1.953,0.808 -0.735,0 -1.438,-0.293 -1.957,-0.808 -0.52,-0.52 -0.809,-1.223 -0.809,-1.957 0,-0.735 0.289,-1.438 0.809,-1.954 0.519,-0.519 1.222,-0.812 1.957,-0.812 0.73,0 1.433,0.293 1.953,0.812 0.519,0.516 0.808,1.219 0.808,1.954 z"
         style="fill:#000000;fill-opacity:1;fill-rule:evenodd;stroke:none"
         id="path68" />
      <path
         d="m 65.602,79.594 c 0,0.73 -0.293,1.433 -0.809,1.953 -0.52,0.519 -1.223,0.812 -1.957,0.812 -0.734,0 -1.438,-0.293 -1.953,-0.812 -0.52,-0.52 -0.813,-1.223 -0.813,-1.953 0,-0.735 0.293,-1.438 0.813,-1.957 0.515,-0.516 1.219,-0.809 1.953,-0.809 0.734,0 1.437,0.293 1.957,0.809 0.516,0.519 0.809,1.222 0.809,1.957 z"
         style="fill:#000000;fill-opacity:1;fill-rule:evenodd;stroke:none"
         id="path70" />
    </g>
    <g
       id="g72">
      <g
         id="g74"
         clip-path="url(#clipPath78)">
        <text
           xml:space="preserve"
           transform="translate(59.226989,161.49994)"
           style="font-variant:normal;font-size:12.72px;font-family:CairoFont-1;-inkscape-font-specification:CairoFont-1-0;writing-mode:lr-tb;fill:#000000;fill-opacity:1;fill-rule:nonzero;stroke:none"
           id="text82"><tspan
             x="0"
             y="0"
             id="tspan80">1</tspan></text>
      </g>
    </g>
    <g
       id="g84">
      <path
         d="m 138.238,98.445 h 37.703"
         style="fill:none;stroke:#000000;stroke-width:0.6912;stroke-linecap:butt;stroke-linejoin:miter;stroke-miterlimit:3.25;stroke-dasharray:0.6912, 4.1472;stroke-dashoffset:0;stroke-opacity:1"
         id="path86" />
      <path
         d="m 160.859,98.445 -7.539,2.512 V 95.93 Z"
         style="fill:#000000;fill-opacity:1;fill-rule:evenodd;stroke:none"
         id="path88" />
      <text
         xml:space="preserve"
         transform="translate(149.10231,113.62121)"
         style="font-variant:normal;font-size:15.84px;font-family:CairoFont-0;-inkscape-font-specification:CairoFont-0-0;writing-mode:lr-tb;fill:#000000;fill-opacity:1;fill-rule:nonzero;stroke:none"
         id="text92"><tspan
           x="0"
           y="0"
           id="tspan90">u</tspan></text>
      <text
         xml:space="preserve"
         transform="translate(157.99294,116.56262)"
         style="font-variant:normal;font-size:11.28px;font-family:CairoFont-0;-inkscape-font-specification:CairoFont-0-0;writing-mode:lr-tb;fill:#000000;fill-opacity:1;fill-rule:nonzero;stroke:none"
         id="text96"><tspan
           x="0"
           y="0"
           id="tspan94">g</tspan></text>
      <path
         d="M 263.914,98.445 H 226.211"
         style="fill:none;stroke:#000000;stroke-width:0.6912;stroke-linecap:butt;stroke-linejoin:miter;stroke-miterlimit:3.25;stroke-dasharray:0.6912, 4.1472;stroke-dashoffset:0;stroke-opacity:1"
         id="path98" />
      <path
         d="m 248.832,98.445 -7.539,-2.515 v 5.027 z"
         style="fill:#000000;fill-opacity:1;fill-rule:evenodd;stroke:none"
         id="path100" />
      <text
         xml:space="preserve"
         transform="translate(237.07322,86.078562)"
         style="font-variant:normal;font-size:15.84px;font-family:CairoFont-0;-inkscape-font-specification:CairoFont-0-0;writing-mode:lr-tb;fill:#000000;fill-opacity:1;fill-rule:nonzero;stroke:none"
         id="text104"><tspan
           x="0"
           y="0"
           id="tspan102">u</tspan></text>
      <text
         xml:space="preserve"
         transform="translate(245.96385,89.019968)"
         style="font-variant:normal;font-size:11.28px;font-family:CairoFont-0;-inkscape-font-specification:CairoFont-0-0;writing-mode:lr-tb;fill:#000000;fill-opacity:1;fill-rule:nonzero;stroke:none"
         id="text108"><tspan
           x="0"
           y="0"
           id="tspan106">g</tspan></text>
      <path
         d="m 175.941,98.445 c -0.238,6.735 2.336,13.266 7.102,18.032 4.766,4.765 11.297,7.339 18.035,7.101"
         style="fill:none;stroke:#000000;stroke-width:0.6912;stroke-linecap:butt;stroke-linejoin:miter;stroke-miterlimit:3.25;stroke-dasharray:0.6912, 4.1472;stroke-dashoffset:0;stroke-opacity:1"
         id="path110" />
      <path
         d="m 185.707,119.145 -7.109,-3.555 3.554,-3.555 z"
         style="fill:#000000;fill-opacity:1;fill-rule:evenodd;stroke:none"
         id="path112" />
      <text
         xml:space="preserve"
         transform="translate(163.97852,128.80257)"
         style="font-variant:normal;font-size:15.84px;font-family:CairoFont-0;-inkscape-font-specification:CairoFont-0-0;writing-mode:lr-tb;fill:#000000;fill-opacity:1;fill-rule:nonzero;stroke:none"
         id="text116"><tspan
           x="0"
           y="0"
           id="tspan114">u</tspan></text>
      <text
         xml:space="preserve"
         transform="translate(172.86914,131.74398)"
         style="font-variant:normal;font-size:11.28px;font-family:CairoFont-0;-inkscape-font-specification:CairoFont-0-0;writing-mode:lr-tb;fill:#000000;fill-opacity:1;fill-rule:nonzero;stroke:none"
         id="text120"><tspan
           x="0"
           y="0"
           id="tspan118">g</tspan></text>
      <path
         d="m 226.211,98.445 0.594,0.746 0.433,0.879 0.242,0.969 0.04,1.008 -0.18,1 -0.383,0.933 -0.559,0.821 -0.707,0.672 -0.808,0.492 -0.871,0.312 -0.883,0.133 -0.856,-0.027 -0.796,-0.156 -0.704,-0.262 -0.585,-0.328 -0.446,-0.367 -0.301,-0.368 -0.136,-0.355 0.027,-0.317 0.191,-0.261 0.344,-0.196 0.477,-0.113 0.597,-0.019 0.68,0.093 0.727,0.219 0.738,0.356 0.703,0.503 0.625,0.649 0.504,0.777 0.34,0.891 0.152,0.965 -0.058,0.996 -0.27,0.976 -0.469,0.899 -0.644,0.777 -0.781,0.617 -0.879,0.426 -0.922,0.231 -0.922,0.035 -0.887,-0.141 -0.808,-0.285 -0.715,-0.391 -0.594,-0.464 -0.461,-0.497 -0.32,-0.484 -0.176,-0.449 -0.027,-0.383 0.113,-0.297 0.258,-0.199 0.379,-0.086 0.484,0.035 0.566,0.16 0.618,0.293 0.625,0.43 0.593,0.559 0.516,0.691 0.402,0.801 0.242,0.894 0.059,0.95 -0.144,0.964 -0.356,0.934 -0.547,0.848 -0.719,0.718 -0.847,0.547 -0.934,0.356 -0.965,0.144 -0.949,-0.058 -0.894,-0.243 -0.801,-0.402 -0.692,-0.516 -0.558,-0.593 -0.43,-0.625 -0.293,-0.617 -0.16,-0.567 -0.035,-0.484 0.086,-0.379 0.199,-0.254 0.297,-0.117 0.383,0.027 0.449,0.176 0.484,0.32 0.496,0.461 0.461,0.594 0.395,0.715 0.285,0.808 0.141,0.887 -0.036,0.922 -0.23,0.922 -0.426,0.879 -0.617,0.781 -0.777,0.644 -0.899,0.469 -0.976,0.27 -0.996,0.058 -0.965,-0.152 -0.891,-0.34 -0.777,-0.504 -0.649,-0.625 -0.504,-0.703 -0.355,-0.738 -0.219,-0.727 -0.094,-0.679 0.02,-0.598 0.113,-0.477 0.196,-0.343 0.261,-0.192 0.317,-0.027 0.355,0.137 0.367,0.3 0.368,0.446 0.328,0.586 0.261,0.703 0.157,0.797 0.027,0.855 -0.133,0.883 -0.312,0.871 -0.493,0.809 -0.671,0.707 -0.821,0.558 -0.933,0.383 -1,0.18 -1.012,-0.039 -0.965,-0.243 -0.879,-0.433 -0.746,-0.594"
         style="fill:none;stroke:#000000;stroke-width:0.6912;stroke-linecap:square;stroke-linejoin:miter;stroke-miterlimit:3.25;stroke-dasharray:none;stroke-opacity:1"
         id="path122" />
      <text
         xml:space="preserve"
         transform="translate(221.92054,134.49094)"
         style="font-variant:normal;font-size:15.84px;font-family:CairoFont-0;-inkscape-font-specification:CairoFont-0-0;writing-mode:lr-tb;fill:#000000;fill-opacity:1;fill-rule:nonzero;stroke:none"
         id="text126"><tspan
           x="0"
           y="0"
           id="tspan124">g</tspan></text>
      <path
         d="m 201.078,73.309 v 50.269"
         style="fill:none;stroke:#000000;stroke-width:0.6912;stroke-linecap:butt;stroke-linejoin:miter;stroke-miterlimit:3.25;stroke-dasharray:0.6912, 4.1472;stroke-dashoffset:0;stroke-opacity:1"
         id="path128" />
      <path
         d="m 201.078,94.672 -2.516,7.543 h 5.028 z"
         style="fill:#000000;fill-opacity:1;fill-rule:evenodd;stroke:none"
         id="path130" />
      <text
         xml:space="preserve"
         transform="translate(207.01566,99.849886)"
         style="font-variant:normal;font-size:15.84px;font-family:CairoFont-0;-inkscape-font-specification:CairoFont-0-0;writing-mode:lr-tb;fill:#000000;fill-opacity:1;fill-rule:nonzero;stroke:none"
         id="text134"><tspan
           x="0"
           y="0"
           id="tspan132">u</tspan></text>
      <text
         xml:space="preserve"
         transform="translate(215.90628,102.79129)"
         style="font-variant:normal;font-size:11.28px;font-family:CairoFont-0;-inkscape-font-specification:CairoFont-0-0;writing-mode:lr-tb;fill:#000000;fill-opacity:1;fill-rule:nonzero;stroke:none"
         id="text138"><tspan
           x="0"
           y="0"
           id="tspan136">g</tspan></text>
      <path
         d="m 175.941,98.445 -0.605,-0.734 -0.449,-0.859 -0.266,-0.957 -0.059,-1.004 0.149,-1 0.355,-0.942 0.536,-0.832 0.683,-0.687 0.789,-0.516 0.856,-0.34 0.875,-0.156 h 0.855 l 0.797,0.133 0.715,0.238 0.598,0.313 0.468,0.347 0.321,0.363 0.164,0.348 0.004,0.317 -0.161,0.269 -0.312,0.207 -0.449,0.133 -0.571,0.039 -0.664,-0.063 -0.718,-0.183 -0.739,-0.317 -0.715,-0.457 -0.648,-0.601 -0.539,-0.742 -0.387,-0.856 -0.211,-0.945 -0.004,-0.988 0.203,-0.981 0.411,-0.926 0.589,-0.816 0.739,-0.668 0.844,-0.488 0.906,-0.293 0.922,-0.098 0.894,0.082 0.832,0.235 0.742,0.355 0.633,0.437 0.508,0.481 0.371,0.488 0.231,0.457 0.086,0.403 -0.059,0.328 -0.195,0.234 -0.328,0.125 -0.442,0.016 -0.531,-0.106 -0.594,-0.234 -0.621,-0.367 -0.609,-0.496 -0.555,-0.629 -0.457,-0.746 -0.32,-0.848 -0.149,-0.922 0.047,-0.961 0.25,-0.949 0.453,-0.891 0.633,-0.785 0.785,-0.633 0.891,-0.453 0.949,-0.25 0.961,-0.047 0.922,0.149 0.847,0.32 0.747,0.457 0.628,0.555 0.497,0.609 0.367,0.621 0.234,0.594 0.106,0.531 -0.016,0.442 -0.125,0.328 -0.234,0.195 -0.329,0.059 -0.402,-0.086 -0.457,-0.231 -0.488,-0.371 -0.481,-0.508 -0.437,-0.632 -0.356,-0.743 -0.234,-0.832 -0.082,-0.894 0.098,-0.922 0.293,-0.906 0.488,-0.844 0.668,-0.738 0.816,-0.59 0.926,-0.41 0.98,-0.203 0.989,0.003 0.945,0.211 0.856,0.387 0.742,0.539 0.601,0.649 0.457,0.714 0.317,0.739 0.183,0.719 0.063,0.664 -0.039,0.57 -0.133,0.449 -0.207,0.313 -0.27,0.16 -0.316,-0.004 -0.348,-0.164 -0.363,-0.321 -0.348,-0.468 -0.312,-0.598 -0.238,-0.715 -0.133,-0.797 v -0.855 l 0.156,-0.875 0.34,-0.856 0.515,-0.789 0.688,-0.683 0.832,-0.535 0.941,-0.356 1,-0.148 1.004,0.058 0.957,0.266 0.86,0.449 0.734,0.606"
         style="fill:none;stroke:#000000;stroke-width:0.6912;stroke-linecap:square;stroke-linejoin:miter;stroke-miterlimit:3.25;stroke-dasharray:none;stroke-opacity:1"
         id="path140" />
    </g>
    <g
       id="g142">
      <g
         id="g144"
         clip-path="url(#clipPath148)">
        <text
           xml:space="preserve"
           transform="translate(170.64694,73.826711)"
           style="font-variant:normal;font-size:15.84px;font-family:CairoFont-0;-inkscape-font-specification:CairoFont-0-0;writing-mode:lr-tb;fill:#000000;fill-opacity:1;fill-rule:nonzero;stroke:none"
           id="text152"><tspan
             x="0"
             y="0"
             id="tspan150">g</tspan></text>
      </g>
    </g>
    <g
       id="g154">
      <path
         d="M 226.211,98.445 C 226.184,84.574 214.945,73.336 201.078,73.309"
         style="fill:none;stroke:#000000;stroke-width:0.6912;stroke-linecap:butt;stroke-linejoin:miter;stroke-miterlimit:3.25;stroke-dasharray:0.6912, 4.1472;stroke-dashoffset:0;stroke-opacity:1"
         id="path156" />
      <path
         d="m 221.5,83.352 -3.555,-7.11 -3.554,3.555 z"
         style="fill:#000000;fill-opacity:1;fill-rule:evenodd;stroke:none"
         id="path158" />
      <text
         xml:space="preserve"
         transform="translate(221.92054,71.173679)"
         style="font-variant:normal;font-size:15.84px;font-family:CairoFont-0;-inkscape-font-specification:CairoFont-0-0;writing-mode:lr-tb;fill:#000000;fill-opacity:1;fill-rule:nonzero;stroke:none"
         id="text162"><tspan
           x="0"
           y="0"
           id="tspan160">u</tspan></text>
      <text
         xml:space="preserve"
         transform="translate(230.81116,74.115085)"
         style="font-variant:normal;font-size:11.28px;font-family:CairoFont-0;-inkscape-font-specification:CairoFont-0-0;writing-mode:lr-tb;fill:#000000;fill-opacity:1;fill-rule:nonzero;stroke:none"
         id="text166"><tspan
           x="0"
           y="0"
           id="tspan164">g</tspan></text>
      <path
         d="m 203.84,73.309 c 0,0.734 -0.289,1.437 -0.809,1.957 -0.519,0.515 -1.222,0.808 -1.953,0.808 -0.734,0 -1.437,-0.293 -1.957,-0.808 -0.519,-0.52 -0.809,-1.223 -0.809,-1.957 0,-0.735 0.29,-1.438 0.809,-1.954 0.52,-0.519 1.223,-0.812 1.957,-0.812 0.731,0 1.434,0.293 1.953,0.812 0.52,0.516 0.809,1.219 0.809,1.954 z"
         style="fill:#000000;fill-opacity:1;fill-rule:evenodd;stroke:none"
         id="path168" />
      <path
         d="m 203.84,123.578 c 0,0.734 -0.289,1.438 -0.809,1.953 -0.519,0.52 -1.222,0.813 -1.953,0.813 -0.734,0 -1.437,-0.293 -1.957,-0.813 -0.519,-0.515 -0.809,-1.219 -0.809,-1.953 0,-0.734 0.29,-1.437 0.809,-1.953 0.52,-0.52 1.223,-0.813 1.957,-0.813 0.731,0 1.434,0.293 1.953,0.813 0.52,0.516 0.809,1.219 0.809,1.953 z"
         style="fill:#000000;fill-opacity:1;fill-rule:evenodd;stroke:none"
         id="path170" />
      <path
         d="m 178.707,98.445 c 0,0.731 -0.293,1.434 -0.809,1.953 -0.519,0.52 -1.222,0.809 -1.957,0.809 -0.734,0 -1.437,-0.289 -1.953,-0.809 -0.519,-0.519 -0.812,-1.222 -0.812,-1.953 0,-0.734 0.293,-1.437 0.812,-1.957 0.516,-0.519 1.219,-0.808 1.953,-0.808 0.735,0 1.438,0.289 1.957,0.808 0.516,0.52 0.809,1.223 0.809,1.957 z"
         style="fill:#000000;fill-opacity:1;fill-rule:evenodd;stroke:none"
         id="path172" />
      <path
         d="m 228.977,98.445 c 0,0.731 -0.293,1.434 -0.813,1.953 -0.516,0.52 -1.219,0.809 -1.953,0.809 -0.734,0 -1.438,-0.289 -1.953,-0.809 -0.52,-0.519 -0.813,-1.222 -0.813,-1.953 0,-0.734 0.293,-1.437 0.813,-1.957 0.515,-0.519 1.219,-0.808 1.953,-0.808 0.734,0 1.437,0.289 1.953,0.808 0.52,0.52 0.813,1.223 0.813,1.957 z"
         style="fill:#000000;fill-opacity:1;fill-rule:evenodd;stroke:none"
         id="path174" />
    </g>
    <g
       id="g176">
      <g
         id="g178"
         clip-path="url(#clipPath182)">
        <text
           xml:space="preserve"
           transform="translate(197.46699,161.49994)"
           style="font-variant:normal;font-size:12.72px;font-family:CairoFont-1;-inkscape-font-specification:CairoFont-1-0;writing-mode:lr-tb;fill:#000000;fill-opacity:1;fill-rule:nonzero;stroke:none"
           id="text186"><tspan
             x="0"
             y="0"
             id="tspan184">2</tspan></text>
      </g>
    </g>
    <g
       id="g188">
      <path
         d="m 276.48,98.445 h 37.704"
         style="fill:none;stroke:#000000;stroke-width:0.6912;stroke-linecap:butt;stroke-linejoin:miter;stroke-miterlimit:3.25;stroke-dasharray:0.6912, 4.1472;stroke-dashoffset:0;stroke-opacity:1"
         id="path190" />
      <path
         d="m 299.102,98.445 -7.54,2.512 V 95.93 Z"
         style="fill:#000000;fill-opacity:1;fill-rule:evenodd;stroke:none"
         id="path192" />
      <text
         xml:space="preserve"
         transform="translate(287.34231,113.62121)"
         style="font-variant:normal;font-size:15.84px;font-family:CairoFont-0;-inkscape-font-specification:CairoFont-0-0;writing-mode:lr-tb;fill:#000000;fill-opacity:1;fill-rule:nonzero;stroke:none"
         id="text196"><tspan
           x="0"
           y="0"
           id="tspan194">u</tspan></text>
      <text
         xml:space="preserve"
         transform="translate(296.23294,116.56262)"
         style="font-variant:normal;font-size:11.28px;font-family:CairoFont-0;-inkscape-font-specification:CairoFont-0-0;writing-mode:lr-tb;fill:#000000;fill-opacity:1;fill-rule:nonzero;stroke:none"
         id="text200"><tspan
           x="0"
           y="0"
           id="tspan198">g</tspan></text>
      <path
         d="M 402.152,98.445 H 364.449"
         style="fill:none;stroke:#000000;stroke-width:0.6912;stroke-linecap:butt;stroke-linejoin:miter;stroke-miterlimit:3.25;stroke-dasharray:0.6912, 4.1472;stroke-dashoffset:0;stroke-opacity:1"
         id="path202" />
      <path
         d="m 387.07,98.445 -7.539,-2.515 v 5.027 z"
         style="fill:#000000;fill-opacity:1;fill-rule:evenodd;stroke:none"
         id="path204" />
      <text
         xml:space="preserve"
         transform="translate(375.31322,86.078562)"
         style="font-variant:normal;font-size:15.84px;font-family:CairoFont-0;-inkscape-font-specification:CairoFont-0-0;writing-mode:lr-tb;fill:#000000;fill-opacity:1;fill-rule:nonzero;stroke:none"
         id="text208"><tspan
           x="0"
           y="0"
           id="tspan206">u</tspan></text>
      <text
         xml:space="preserve"
         transform="translate(384.20385,89.019968)"
         style="font-variant:normal;font-size:11.28px;font-family:CairoFont-0;-inkscape-font-specification:CairoFont-0-0;writing-mode:lr-tb;fill:#000000;fill-opacity:1;fill-rule:nonzero;stroke:none"
         id="text212"><tspan
           x="0"
           y="0"
           id="tspan210">g</tspan></text>
      <path
         d="m 314.184,98.445 c -0.239,6.735 2.332,13.266 7.097,18.032 4.766,4.765 11.301,7.339 18.035,7.101"
         style="fill:none;stroke:#000000;stroke-width:0.6912;stroke-linecap:butt;stroke-linejoin:miter;stroke-miterlimit:3.25;stroke-dasharray:0.6912, 4.1472;stroke-dashoffset:0;stroke-opacity:1"
         id="path214" />
      <path
         d="m 323.949,119.145 -7.109,-3.555 3.555,-3.555 z"
         style="fill:#000000;fill-opacity:1;fill-rule:evenodd;stroke:none"
         id="path216" />
      <text
         xml:space="preserve"
         transform="translate(302.21852,128.80257)"
         style="font-variant:normal;font-size:15.84px;font-family:CairoFont-0;-inkscape-font-specification:CairoFont-0-0;writing-mode:lr-tb;fill:#000000;fill-opacity:1;fill-rule:nonzero;stroke:none"
         id="text220"><tspan
           x="0"
           y="0"
           id="tspan218">u</tspan></text>
      <text
         xml:space="preserve"
         transform="translate(311.10914,131.74398)"
         style="font-variant:normal;font-size:11.28px;font-family:CairoFont-0;-inkscape-font-specification:CairoFont-0-0;writing-mode:lr-tb;fill:#000000;fill-opacity:1;fill-rule:nonzero;stroke:none"
         id="text224"><tspan
           x="0"
           y="0"
           id="tspan222">g</tspan></text>
      <path
         d="m 339.316,123.578 c 13.872,-0.027 25.106,-11.266 25.133,-25.133"
         style="fill:none;stroke:#000000;stroke-width:0.6912;stroke-linecap:butt;stroke-linejoin:miter;stroke-miterlimit:3.25;stroke-dasharray:0.6912, 4.1472;stroke-dashoffset:0;stroke-opacity:1"
         id="path226" />
      <path
         d="m 359.738,113.535 -3.554,7.11 -3.555,-3.555 z"
         style="fill:#000000;fill-opacity:1;fill-rule:evenodd;stroke:none"
         id="path228" />
      <text
         xml:space="preserve"
         transform="translate(360.16054,128.52609)"
         style="font-variant:normal;font-size:15.84px;font-family:CairoFont-0;-inkscape-font-specification:CairoFont-0-0;writing-mode:lr-tb;fill:#000000;fill-opacity:1;fill-rule:nonzero;stroke:none"
         id="text232"><tspan
           x="0"
           y="0"
           id="tspan230">u</tspan></text>
      <text
         xml:space="preserve"
         transform="translate(369.05116,131.4675)"
         style="font-variant:normal;font-size:11.28px;font-family:CairoFont-0;-inkscape-font-specification:CairoFont-0-0;writing-mode:lr-tb;fill:#000000;fill-opacity:1;fill-rule:nonzero;stroke:none"
         id="text236"><tspan
           x="0"
           y="0"
           id="tspan234">g</tspan></text>
      <path
         d="m 339.316,123.578 -0.586,-0.719 -0.464,-0.808 -0.325,-0.879 -0.171,-0.926 -0.008,-0.937 0.152,-0.926 0.309,-0.887 0.453,-0.816 0.57,-0.731 0.672,-0.621 0.742,-0.496 0.778,-0.363 0.781,-0.227 0.75,-0.094 0.687,0.032 0.594,0.144 0.477,0.242 0.339,0.309 0.184,0.355 0.023,0.375 -0.136,0.364 -0.297,0.324 -0.438,0.262 -0.566,0.175 -0.664,0.067 -0.734,-0.059 -0.778,-0.187 -0.781,-0.324 -0.754,-0.461 -0.695,-0.586 -0.606,-0.7 -0.488,-0.792 -0.352,-0.872 -0.195,-0.914 -0.039,-0.941 0.125,-0.93 0.281,-0.894 0.426,-0.832 0.555,-0.746 0.656,-0.641 0.73,-0.52 0.774,-0.386 0.781,-0.254 0.758,-0.117 0.703,0.011 0.613,0.125 0.5,0.227 0.364,0.297 0.214,0.351 0.051,0.371 -0.109,0.368 -0.27,0.336 -0.414,0.273 -0.543,0.191 -0.648,0.086 -0.727,-0.031 -0.769,-0.164 -0.785,-0.301 -0.762,-0.437 -0.707,-0.563 -0.621,-0.679 -0.512,-0.782 -0.375,-0.855 -0.227,-0.91 -0.07,-0.938 0.098,-0.933 0.254,-0.903 0.402,-0.847 0.531,-0.762 0.641,-0.66 0.719,-0.543 0.769,-0.414 0.785,-0.274 0.762,-0.14 0.715,-0.012 0.633,0.105 0.519,0.207 0.391,0.289 0.242,0.344 0.082,0.371 -0.082,0.367 -0.242,0.344 -0.391,0.289 -0.519,0.207 -0.633,0.106 -0.715,-0.012 -0.762,-0.141 -0.785,-0.273 -0.769,-0.414 -0.719,-0.539 -0.641,-0.664 -0.531,-0.762 -0.402,-0.848 -0.254,-0.902 -0.098,-0.933 0.07,-0.934 0.227,-0.91 0.375,-0.86 0.512,-0.781 0.621,-0.68 0.707,-0.562 0.762,-0.438 0.785,-0.3 0.769,-0.164 0.727,-0.032 0.648,0.086 0.543,0.192 0.414,0.273 0.27,0.336 0.109,0.367 -0.051,0.371 -0.214,0.352 -0.364,0.297 -0.5,0.226 -0.613,0.125 -0.703,0.012 -0.758,-0.117 -0.781,-0.254 -0.774,-0.387 -0.73,-0.519 -0.656,-0.641 -0.555,-0.746 -0.426,-0.832 -0.281,-0.895 -0.125,-0.929 0.039,-0.938 0.195,-0.918 0.352,-0.871 0.488,-0.793 0.606,-0.699 0.695,-0.586 0.754,-0.461 0.781,-0.324 0.778,-0.188 0.734,-0.058 0.664,0.066 0.566,0.176 0.438,0.262 0.297,0.324 0.136,0.363 -0.023,0.375 -0.184,0.356 -0.339,0.312 -0.477,0.238 -0.594,0.145 -0.687,0.031 -0.75,-0.093 -0.781,-0.227 -0.778,-0.363 -0.742,-0.496 -0.672,-0.621 -0.57,-0.731 -0.453,-0.816 -0.309,-0.887 -0.152,-0.926 0.008,-0.937 0.171,-0.922 0.325,-0.883 0.464,-0.809 0.586,-0.718"
         style="fill:none;stroke:#000000;stroke-width:0.6912;stroke-linecap:square;stroke-linejoin:miter;stroke-miterlimit:3.25;stroke-dasharray:none;stroke-opacity:1"
         id="path238" />
      <text
         xml:space="preserve"
         transform="translate(349.6542,104.24051)"
         style="font-variant:normal;font-size:15.84px;font-family:CairoFont-0;-inkscape-font-specification:CairoFont-0-0;writing-mode:lr-tb;fill:#000000;fill-opacity:1;fill-rule:nonzero;stroke:none"
         id="text242"><tspan
           x="0"
           y="0"
           id="tspan240">g</tspan></text>
      <path
         d="m 314.184,98.445 -0.606,-0.734 -0.453,-0.859 -0.266,-0.957 -0.058,-1.004 0.152,-1 0.352,-0.942 0.535,-0.832 0.683,-0.687 0.793,-0.516 0.856,-0.34 0.875,-0.156 h 0.851 l 0.801,0.133 0.711,0.238 0.602,0.313 0.465,0.347 0.324,0.363 0.164,0.348 v 0.317 l -0.156,0.269 -0.313,0.207 -0.453,0.133 -0.57,0.039 -0.661,-0.063 -0.718,-0.183 -0.739,-0.317 -0.718,-0.457 -0.645,-0.601 -0.539,-0.742 -0.391,-0.856 -0.207,-0.945 -0.007,-0.988 0.207,-0.981 0.406,-0.926 0.59,-0.816 0.738,-0.668 0.844,-0.488 0.906,-0.293 0.922,-0.098 0.894,0.082 0.833,0.235 0.746,0.355 0.632,0.437 0.508,0.481 0.371,0.488 0.231,0.457 0.086,0.403 -0.059,0.328 -0.199,0.234 -0.324,0.125 -0.442,0.016 -0.531,-0.106 -0.598,-0.234 -0.621,-0.367 -0.609,-0.496 -0.555,-0.629 -0.457,-0.746 -0.32,-0.848 -0.149,-0.922 0.047,-0.961 0.25,-0.949 0.453,-0.891 0.637,-0.785 0.785,-0.633 0.891,-0.453 0.949,-0.25 0.957,-0.047 0.922,0.149 0.848,0.32 0.75,0.457 0.625,0.555 0.5,0.609 0.363,0.621 0.234,0.594 0.106,0.531 -0.012,0.442 -0.129,0.328 -0.234,0.195 -0.324,0.059 -0.407,-0.086 -0.457,-0.231 -0.488,-0.371 -0.48,-0.508 -0.438,-0.632 -0.355,-0.743 -0.235,-0.832 -0.082,-0.894 0.102,-0.922 0.293,-0.906 0.488,-0.844 0.668,-0.738 0.816,-0.59 0.922,-0.41 0.985,-0.203 0.988,0.003 0.941,0.211 0.86,0.387 0.738,0.539 0.605,0.649 0.458,0.714 0.316,0.739 0.184,0.719 0.062,0.664 -0.043,0.57 -0.129,0.449 -0.207,0.313 -0.269,0.16 -0.317,-0.004 -0.351,-0.164 -0.36,-0.321 -0.351,-0.468 -0.309,-0.598 -0.238,-0.715 -0.137,-0.797 v -0.855 l 0.16,-0.875 0.336,-0.856 0.516,-0.789 0.687,-0.683 0.836,-0.535 0.938,-0.356 1,-0.148 1.004,0.058 0.957,0.266 0.863,0.449 0.73,0.606"
         style="fill:none;stroke:#000000;stroke-width:0.6912;stroke-linecap:square;stroke-linejoin:miter;stroke-miterlimit:3.25;stroke-dasharray:none;stroke-opacity:1"
         id="path244" />
      <text
         xml:space="preserve"
         transform="translate(308.88694,73.826711)"
         style="font-variant:normal;font-size:15.84px;font-family:CairoFont-0;-inkscape-font-specification:CairoFont-0-0;writing-mode:lr-tb;fill:#000000;fill-opacity:1;fill-rule:nonzero;stroke:none"
         id="text248"><tspan
           x="0"
           y="0"
           id="tspan246">g</tspan></text>
      <path
         d="m 364.449,98.445 0.594,-0.75 0.434,-0.879 0.246,-0.964 0.035,-1.012 -0.18,-1 -0.379,-0.934 -0.562,-0.82 -0.707,-0.672 -0.809,-0.492 -0.867,-0.313 -0.887,-0.132 -0.855,0.027 -0.793,0.16 -0.703,0.258 -0.586,0.332 -0.45,0.363 -0.296,0.371 -0.137,0.352 0.027,0.316 0.188,0.262 0.343,0.195 0.481,0.114 0.594,0.019 0.679,-0.094 0.731,-0.218 0.738,-0.356 0.703,-0.504 0.625,-0.644 0.5,-0.782 0.34,-0.89 0.152,-0.965 -0.058,-0.996 -0.27,-0.977 -0.468,-0.898 -0.645,-0.777 -0.781,-0.614 -0.875,-0.429 -0.922,-0.231 -0.926,-0.035 -0.883,0.141 -0.812,0.285 -0.711,0.394 -0.594,0.461 -0.461,0.496 -0.324,0.489 -0.176,0.445 -0.027,0.383 0.117,0.297 0.254,0.199 0.379,0.086 0.488,-0.035 0.567,-0.161 0.613,-0.293 0.625,-0.429 0.594,-0.559 0.519,-0.691 0.399,-0.801 0.242,-0.895 0.058,-0.949 -0.144,-0.965 -0.352,-0.933 -0.551,-0.848 -0.714,-0.719 -0.852,-0.546 -0.93,-0.356 -0.965,-0.144 -0.949,0.058 -0.894,0.242 -0.805,0.403 -0.687,0.515 -0.563,0.594 -0.426,0.625 -0.293,0.617 -0.16,0.567 -0.035,0.484 0.086,0.383 0.195,0.254 0.297,0.113 0.383,-0.027 0.449,-0.176 0.488,-0.32 0.493,-0.461 0.464,-0.594 0.395,-0.715 0.285,-0.809 0.137,-0.886 -0.035,-0.922 -0.227,-0.922 -0.43,-0.875 -0.617,-0.785 -0.773,-0.645 -0.902,-0.468 -0.973,-0.27 -0.996,-0.055 -0.965,0.149 -0.891,0.34 -0.781,0.503 -0.648,0.625 -0.5,0.704 -0.356,0.738 -0.219,0.73 -0.093,0.68 0.015,0.594 0.114,0.48 0.195,0.34 0.265,0.192 0.317,0.027 0.351,-0.137 0.372,-0.297 0.363,-0.449 0.328,-0.586 0.262,-0.703 0.16,-0.793 0.027,-0.859 -0.133,-0.883 -0.312,-0.867 -0.496,-0.813 -0.668,-0.707 -0.821,-0.559 -0.937,-0.382 -0.996,-0.176 -1.012,0.035 -0.969,0.242 -0.875,0.434 -0.75,0.594"
         style="fill:none;stroke:#000000;stroke-width:0.6912;stroke-linecap:square;stroke-linejoin:miter;stroke-miterlimit:3.25;stroke-dasharray:none;stroke-opacity:1"
         id="path250" />
      <text
         xml:space="preserve"
         transform="translate(360.16054,73.990085)"
         style="font-variant:normal;font-size:15.84px;font-family:CairoFont-0;-inkscape-font-specification:CairoFont-0-0;writing-mode:lr-tb;fill:#000000;fill-opacity:1;fill-rule:nonzero;stroke:none"
         id="text254"><tspan
           x="0"
           y="0"
           id="tspan252">g</tspan></text>
      <path
         d="m 342.082,73.309 c 0,0.734 -0.293,1.437 -0.812,1.957 -0.516,0.515 -1.219,0.808 -1.954,0.808 -0.734,0 -1.437,-0.293 -1.953,-0.808 -0.519,-0.52 -0.812,-1.223 -0.812,-1.957 0,-0.735 0.293,-1.438 0.812,-1.954 0.516,-0.519 1.219,-0.812 1.953,-0.812 0.735,0 1.438,0.293 1.954,0.812 0.519,0.516 0.812,1.219 0.812,1.954 z"
         style="fill:#000000;fill-opacity:1;fill-rule:evenodd;stroke:none"
         id="path256" />
      <path
         d="m 342.082,123.578 c 0,0.734 -0.293,1.438 -0.812,1.953 -0.516,0.52 -1.219,0.813 -1.954,0.813 -0.734,0 -1.437,-0.293 -1.953,-0.813 -0.519,-0.515 -0.812,-1.219 -0.812,-1.953 0,-0.734 0.293,-1.437 0.812,-1.953 0.516,-0.52 1.219,-0.813 1.953,-0.813 0.735,0 1.438,0.293 1.954,0.813 0.519,0.516 0.812,1.219 0.812,1.953 z"
         style="fill:#000000;fill-opacity:1;fill-rule:evenodd;stroke:none"
         id="path258" />
      <path
         d="m 316.945,98.445 c 0,0.731 -0.289,1.434 -0.808,1.953 -0.52,0.52 -1.223,0.809 -1.953,0.809 -0.735,0 -1.438,-0.289 -1.957,-0.809 -0.52,-0.519 -0.809,-1.222 -0.809,-1.953 0,-0.734 0.289,-1.437 0.809,-1.957 0.519,-0.519 1.222,-0.808 1.957,-0.808 0.73,0 1.433,0.289 1.953,0.808 0.519,0.52 0.808,1.223 0.808,1.957 z"
         style="fill:#000000;fill-opacity:1;fill-rule:evenodd;stroke:none"
         id="path260" />
      <path
         d="m 367.215,98.445 c 0,0.731 -0.289,1.434 -0.809,1.953 -0.519,0.52 -1.222,0.809 -1.957,0.809 -0.73,0 -1.433,-0.289 -1.953,-0.809 -0.519,-0.519 -0.808,-1.222 -0.808,-1.953 0,-0.734 0.289,-1.437 0.808,-1.957 0.52,-0.519 1.223,-0.808 1.953,-0.808 0.735,0 1.438,0.289 1.957,0.808 0.52,0.52 0.809,1.223 0.809,1.957 z"
         style="fill:#000000;fill-opacity:1;fill-rule:evenodd;stroke:none"
         id="path262" />
    </g>
    <g
       id="g264">
      <g
         id="g266"
         clip-path="url(#clipPath270)">
        <text
           xml:space="preserve"
           transform="translate(335.70699,161.49994)"
           style="font-variant:normal;font-size:12.72px;font-family:CairoFont-1;-inkscape-font-specification:CairoFont-1-0;writing-mode:lr-tb;fill:#000000;fill-opacity:1;fill-rule:nonzero;stroke:none"
           id="text274"><tspan
             x="0"
             y="0"
             id="tspan272">3</tspan></text>
      </g>
    </g>
    <g
       id="g276">
      <path
         d="m 414.719,98.445 h 37.703"
         style="fill:none;stroke:#000000;stroke-width:0.6912;stroke-linecap:butt;stroke-linejoin:miter;stroke-miterlimit:3.25;stroke-dasharray:0.6912, 4.1472;stroke-dashoffset:0;stroke-opacity:1"
         id="path278" />
      <path
         d="m 437.34,98.445 -7.539,2.512 V 95.93 Z"
         style="fill:#000000;fill-opacity:1;fill-rule:evenodd;stroke:none"
         id="path280" />
      <text
         xml:space="preserve"
         transform="translate(425.58231,113.62121)"
         style="font-variant:normal;font-size:15.84px;font-family:CairoFont-1;-inkscape-font-specification:CairoFont-1-0;writing-mode:lr-tb;fill:#000000;fill-opacity:1;fill-rule:nonzero;stroke:none"
         id="text284"><tspan
           x="0"
           y="0"
           id="tspan282">u</tspan></text>
      <text
         xml:space="preserve"
         transform="translate(434.47294,116.56262)"
         style="font-variant:normal;font-size:11.28px;font-family:CairoFont-0;-inkscape-font-specification:CairoFont-0-0;writing-mode:lr-tb;fill:#000000;fill-opacity:1;fill-rule:nonzero;stroke:none"
         id="text288"><tspan
           x="0"
           y="0"
           id="tspan286">g</tspan></text>
      <path
         d="M 540.395,98.445 H 502.691"
         style="fill:none;stroke:#000000;stroke-width:0.6912;stroke-linecap:butt;stroke-linejoin:miter;stroke-miterlimit:3.25;stroke-dasharray:0.6912, 4.1472;stroke-dashoffset:0;stroke-opacity:1"
         id="path290" />
      <path
         d="m 525.312,98.445 -7.539,-2.515 v 5.027 z"
         style="fill:#000000;fill-opacity:1;fill-rule:evenodd;stroke:none"
         id="path292" />
      <text
         xml:space="preserve"
         transform="translate(513.55322,113.62121)"
         style="font-variant:normal;font-size:15.84px;font-family:CairoFont-1;-inkscape-font-specification:CairoFont-1-0;writing-mode:lr-tb;fill:#000000;fill-opacity:1;fill-rule:nonzero;stroke:none"
         id="text296"><tspan
           x="0"
           y="0"
           id="tspan294">u</tspan></text>
      <text
         xml:space="preserve"
         transform="translate(522.44385,116.56262)"
         style="font-variant:normal;font-size:11.28px;font-family:CairoFont-0;-inkscape-font-specification:CairoFont-0-0;writing-mode:lr-tb;fill:#000000;fill-opacity:1;fill-rule:nonzero;stroke:none"
         id="text300"><tspan
           x="0"
           y="0"
           id="tspan298">g</tspan></text>
      <path
         d="m 452.422,98.445 c 0,6.664 2.648,13.059 7.363,17.77 4.711,4.715 11.106,7.363 17.77,7.363 6.668,0 13.062,-2.648 17.773,-7.363 4.715,-4.711 7.363,-11.106 7.363,-17.77"
         style="fill:none;stroke:#000000;stroke-width:0.6912;stroke-linecap:butt;stroke-linejoin:miter;stroke-miterlimit:3.25;stroke-dasharray:0.6912, 4.1472;stroke-dashoffset:0;stroke-opacity:1"
         id="path302" />
      <path
         d="m 481.328,123.578 -7.543,2.512 v -5.024 z"
         style="fill:#000000;fill-opacity:1;fill-rule:evenodd;stroke:none"
         id="path304" />
      <text
         xml:space="preserve"
         transform="translate(469.56777,138.75576)"
         style="font-variant:normal;font-size:15.84px;font-family:CairoFont-1;-inkscape-font-specification:CairoFont-1-0;writing-mode:lr-tb;fill:#000000;fill-opacity:1;fill-rule:nonzero;stroke:none"
         id="text308"><tspan
           x="0"
           y="0"
           id="tspan306">u</tspan></text>
      <text
         xml:space="preserve"
         transform="translate(478.45839,141.69716)"
         style="font-variant:normal;font-size:11.28px;font-family:CairoFont-0;-inkscape-font-specification:CairoFont-0-0;writing-mode:lr-tb;fill:#000000;fill-opacity:1;fill-rule:nonzero;stroke:none"
         id="text312"><tspan
           x="0"
           y="0"
           id="tspan310">g</tspan></text>
      <path
         d="m 452.422,98.445 -0.731,-0.738 -0.539,-0.918 -0.3,-1.043 -0.032,-1.098 0.242,-1.066 0.497,-0.965 0.703,-0.789 0.855,-0.578 0.945,-0.348 0.969,-0.125 0.938,0.067 0.851,0.226 0.727,0.328 0.566,0.395 0.383,0.418 0.184,0.406 -0.028,0.379 -0.234,0.324 -0.434,0.258 -0.605,0.168 -0.742,0.059 -0.84,-0.078 -0.879,-0.239 -0.859,-0.426 -0.774,-0.621 -0.629,-0.8 -0.426,-0.957 -0.175,-1.055 0.093,-1.086 0.364,-1.035 0.605,-0.91 0.801,-0.719 0.934,-0.484 1,-0.239 0.996,0.008 0.945,0.219 0.844,0.379 0.711,0.488 0.554,0.539 0.379,0.539 0.196,0.496 0.007,0.422 -0.187,0.324 -0.367,0.211 -0.528,0.086 -0.656,-0.055 -0.746,-0.203 -0.781,-0.363 -0.758,-0.535 -0.664,-0.703 -0.512,-0.86 -0.308,-0.98 -0.055,-1.051 0.215,-1.055 0.472,-0.984 0.711,-0.836 0.887,-0.633 1,-0.382 1.039,-0.122 1.008,0.137 0.93,0.352 0.8,0.523 0.657,0.637 0.492,0.684 0.328,0.667 0.16,0.61 v 0.504 l -0.164,0.367 -0.309,0.215 -0.445,0.051 -0.555,-0.122 -0.625,-0.289 -0.656,-0.457 -0.625,-0.621 -0.535,-0.769 -0.383,-0.899 -0.179,-0.992 0.062,-1.031 0.324,-1.008 0.578,-0.914 0.797,-0.75 0.961,-0.531 1.051,-0.274 h 1.062 l 1.008,0.254"
         style="fill:none;stroke:#000000;stroke-width:0.6912;stroke-linecap:square;stroke-linejoin:miter;stroke-miterlimit:3.25;stroke-dasharray:none;stroke-opacity:1"
         id="path314" />
      <text
         xml:space="preserve"
         transform="translate(441.1527,80.820399)"
         style="font-variant:normal;font-size:15.84px;font-family:CairoFont-1;-inkscape-font-specification:CairoFont-1-0;writing-mode:lr-tb;fill:#000000;fill-opacity:1;fill-rule:nonzero;stroke:none"
         id="text318"><tspan
           x="0"
           y="0"
           id="tspan316">g</tspan></text>
      <path
         d="m 490.125,76.449 c -0.863,-3.832 -3.43,-7.062 -6.969,-8.769 -3.539,-1.711 -7.664,-1.711 -11.199,0 -3.539,1.707 -6.105,4.937 -6.969,8.769"
         style="fill:none;stroke:#000000;stroke-width:0.6912;stroke-linecap:square;stroke-linejoin:miter;stroke-miterlimit:3.25;stroke-dasharray:none;stroke-opacity:1"
         id="path320" />
      <path
         d="m 481.328,66.398 -7.543,-2.515 v 5.027 z"
         style="fill:#000000;fill-opacity:1;fill-rule:evenodd;stroke:none"
         id="path322" />
      <text
         xml:space="preserve"
         transform="translate(469.57949,56.516392)"
         style="font-variant:normal;font-size:15.84px;font-family:CairoFont-1;-inkscape-font-specification:CairoFont-1-0;writing-mode:lr-tb;fill:#000000;fill-opacity:1;fill-rule:nonzero;stroke:none"
         id="text326"><tspan
           x="0"
           y="0"
           id="tspan324">u</tspan></text>
      <text
         xml:space="preserve"
         transform="translate(478.47011,59.457798)"
         style="font-variant:normal;font-size:11.28px;font-family:CairoFont-0;-inkscape-font-specification:CairoFont-0-0;writing-mode:lr-tb;fill:#000000;fill-opacity:1;fill-rule:nonzero;stroke:none"
         id="text330"><tspan
           x="0"
           y="0"
           id="tspan328">k</tspan></text>
      <path
         d="m 464.988,76.449 c 0.864,3.836 3.43,7.067 6.969,8.774 3.535,1.711 7.66,1.711 11.199,0 3.539,-1.707 6.106,-4.938 6.969,-8.774"
         style="fill:none;stroke:#000000;stroke-width:0.6912;stroke-linecap:square;stroke-linejoin:miter;stroke-miterlimit:3.25;stroke-dasharray:none;stroke-opacity:1"
         id="path332" />
      <path
         d="m 473.785,86.504 7.543,2.516 v -5.028 z"
         style="fill:#000000;fill-opacity:1;fill-rule:evenodd;stroke:none"
         id="path334" />
      <text
         xml:space="preserve"
         transform="translate(469.57949,101.6823)"
         style="font-variant:normal;font-size:15.84px;font-family:CairoFont-1;-inkscape-font-specification:CairoFont-1-0;writing-mode:lr-tb;fill:#000000;fill-opacity:1;fill-rule:nonzero;stroke:none"
         id="text338"><tspan
           x="0"
           y="0"
           id="tspan336">u</tspan></text>
      <text
         xml:space="preserve"
         transform="translate(478.47011,104.62371)"
         style="font-variant:normal;font-size:11.28px;font-family:CairoFont-0;-inkscape-font-specification:CairoFont-0-0;writing-mode:lr-tb;fill:#000000;fill-opacity:1;fill-rule:nonzero;stroke:none"
         id="text342"><tspan
           x="0"
           y="0"
           id="tspan340">k</tspan></text>
      <path
         d="m 502.691,98.445 0.723,-0.746 0.531,-0.922 0.289,-1.043 0.02,-1.097 -0.25,-1.063 -0.5,-0.957 -0.707,-0.785 -0.859,-0.574 -0.95,-0.34 -0.968,-0.121 -0.934,0.074 -0.852,0.227 -0.726,0.336 -0.567,0.398 -0.379,0.422 -0.179,0.41 0.027,0.379 0.238,0.328 0.438,0.254 0.605,0.168 0.743,0.055 0.839,-0.082 0.879,-0.246 0.856,-0.43 0.773,-0.625 0.621,-0.805 0.422,-0.957 0.172,-1.055 -0.098,-1.086 -0.363,-1.031 -0.609,-0.906 -0.801,-0.719 -0.934,-0.48 -0.996,-0.235 -1,0.004 -0.945,0.219 -0.844,0.379 -0.711,0.488 -0.554,0.539 -0.379,0.539 -0.196,0.5 -0.004,0.426 0.188,0.324 0.367,0.215 0.528,0.086 0.66,-0.055 0.746,-0.203 0.781,-0.363 0.754,-0.535 0.668,-0.703 0.512,-0.86 0.304,-0.98 0.059,-1.047 -0.211,-1.055 -0.473,-0.984 -0.703,-0.84 -0.887,-0.633 -0.996,-0.386 -1.035,-0.125 -1.012,0.129 -0.929,0.351 -0.805,0.52 -0.66,0.629 -0.496,0.679 -0.332,0.672 -0.164,0.606 0.004,0.503 0.16,0.372 0.308,0.218 0.45,0.055 0.554,-0.117 0.629,-0.285 0.657,-0.453 0.628,-0.618 0.539,-0.765 0.391,-0.899 0.184,-0.988 -0.059,-1.031 -0.316,-1.012 -0.571,-0.914 -0.789,-0.758 -0.953,-0.539 -1.047,-0.281 -1.062,-0.012 -1.008,0.246"
         style="fill:none;stroke:#000000;stroke-width:0.6912;stroke-linecap:square;stroke-linejoin:miter;stroke-miterlimit:3.25;stroke-dasharray:none;stroke-opacity:1"
         id="path344" />
      <text
         xml:space="preserve"
         transform="translate(504.47217,80.858101)"
         style="font-variant:normal;font-size:15.84px;font-family:CairoFont-1;-inkscape-font-specification:CairoFont-1-0;writing-mode:lr-tb;fill:#000000;fill-opacity:1;fill-rule:nonzero;stroke:none"
         id="text348"><tspan
           x="0"
           y="0"
           id="tspan346">g</tspan></text>
      <path
         d="m 492.887,76.449 c 0,0.735 -0.289,1.438 -0.809,1.957 -0.519,0.52 -1.223,0.809 -1.953,0.809 -0.734,0 -1.437,-0.289 -1.957,-0.809 -0.52,-0.519 -0.809,-1.222 -0.809,-1.957 0,-0.73 0.289,-1.433 0.809,-1.953 0.52,-0.519 1.223,-0.808 1.957,-0.808 0.73,0 1.434,0.289 1.953,0.808 0.52,0.52 0.809,1.223 0.809,1.953 z"
         style="fill:#000000;fill-opacity:1;fill-rule:evenodd;stroke:none"
         id="path350" />
      <path
         d="m 467.754,76.449 c 0,0.735 -0.293,1.438 -0.809,1.957 -0.519,0.52 -1.222,0.809 -1.957,0.809 -0.734,0 -1.437,-0.289 -1.953,-0.809 -0.519,-0.519 -0.812,-1.222 -0.812,-1.957 0,-0.73 0.293,-1.433 0.812,-1.953 0.516,-0.519 1.219,-0.808 1.953,-0.808 0.735,0 1.438,0.289 1.957,0.808 0.516,0.52 0.809,1.223 0.809,1.953 z"
         style="fill:#000000;fill-opacity:1;fill-rule:evenodd;stroke:none"
         id="path352" />
      <path
         d="m 455.188,98.445 c 0,0.731 -0.293,1.434 -0.813,1.953 -0.516,0.52 -1.219,0.809 -1.953,0.809 -0.734,0 -1.438,-0.289 -1.953,-0.809 -0.52,-0.519 -0.813,-1.222 -0.813,-1.953 0,-0.734 0.293,-1.437 0.813,-1.957 0.515,-0.519 1.219,-0.808 1.953,-0.808 0.734,0 1.437,0.289 1.953,0.808 0.52,0.52 0.813,1.223 0.813,1.957 z"
         style="fill:#000000;fill-opacity:1;fill-rule:evenodd;stroke:none"
         id="path354" />
      <path
         d="m 505.457,98.445 c 0,0.731 -0.293,1.434 -0.812,1.953 -0.516,0.52 -1.219,0.809 -1.954,0.809 -0.734,0 -1.437,-0.289 -1.957,-0.809 -0.515,-0.519 -0.808,-1.222 -0.808,-1.953 0,-0.734 0.293,-1.437 0.808,-1.957 0.52,-0.519 1.223,-0.808 1.957,-0.808 0.735,0 1.438,0.289 1.954,0.808 0.519,0.52 0.812,1.223 0.812,1.957 z"
         style="fill:#000000;fill-opacity:1;fill-rule:evenodd;stroke:none"
         id="path356" />
    </g>
    <g
       id="g358">
      <g
         id="g360"
         clip-path="url(#clipPath364)">
        <text
           xml:space="preserve"
           transform="translate(473.94699,161.49994)"
           style="font-variant:normal;font-size:12.72px;font-family:CairoFont-1;-inkscape-font-specification:CairoFont-1-0;writing-mode:lr-tb;fill:#000000;fill-opacity:1;fill-rule:nonzero;stroke:none"
           id="text368"><tspan
             x="0"
             y="0"
             id="tspan366">4</tspan></text>
      </g>
    </g>
  </g>
</svg>
