<?xml version="1.0" encoding="UTF-8" standalone="no"?>
<!-- Created with Inkscape (http://www.inkscape.org/) -->

<svg
   version="1.1"
   id="svg2"
   width="984"
   height="246.66667"
   viewBox="0 0 984 246.66667"
   sodipodi:docname="1bzq5z1x0b8rv.pdf"
   xmlns:inkscape="http://www.inkscape.org/namespaces/inkscape"
   xmlns:sodipodi="http://sodipodi.sourceforge.net/DTD/sodipodi-0.dtd"
   xmlns="http://www.w3.org/2000/svg"
   xmlns:svg="http://www.w3.org/2000/svg">
  <defs
     id="defs6" />
  <sodipodi:namedview
     id="namedview4"
     pagecolor="#ffffff"
     bordercolor="#999999"
     borderopacity="1"
     inkscape:showpageshadow="0"
     inkscape:pageopacity="0"
     inkscape:pagecheckerboard="0"
     inkscape:deskcolor="#d1d1d1" />
  <g
     id="g8"
     inkscape:groupmode="layer"
     inkscape:label="1bzq5z1x0b8rv"
     transform="matrix(1.3333333,0,0,1.3333333,0,9.5e-6)">
    <g
       id="g10">
      <path
         d="m 33.512,100.539 -1.078,0.949 -1.254,0.688 -1.375,0.386 -1.422,0.051 -1.395,-0.281 -1.3,-0.598 -1.141,-0.875 -0.926,-1.093 -0.668,-1.235 -0.394,-1.297 -0.114,-1.273 0.153,-1.164 0.386,-0.977 0.575,-0.718 0.695,-0.422 0.754,-0.09 0.738,0.242 0.645,0.566 0.496,0.844 0.285,1.07 0.035,1.223 -0.242,1.297 -0.524,1.277 -0.789,1.18 -1.031,1 -1.219,0.754 -1.355,0.457 -1.414,0.133 -1.41,-0.207 -1.328,-0.531 -1.18,-0.813 -0.981,-1.047 -0.73,-1.211 -0.457,-1.293 -0.176,-1.285 0.094,-1.195 0.336,-1.024 0.535,-0.785 0.676,-0.496 0.746,-0.168 0.746,0.168 0.672,0.496 0.535,0.785 0.336,1.024 0.098,1.195 -0.176,1.285 -0.461,1.293 -0.731,1.211 -0.976,1.047 -1.184,0.813 -1.328,0.531 -1.406,0.207 -1.418,-0.133 -1.356,-0.457 -1.218,-0.754 -1.028,-1 L 7.07,99.109 6.547,97.832 6.309,96.535 6.34,95.312 6.625,94.242 7.121,93.398 7.77,92.832 8.504,92.59 l 0.754,0.09 0.695,0.422 0.574,0.718 0.387,0.977 0.152,1.164 -0.113,1.273 -0.391,1.297 -0.671,1.235 -0.926,1.093 -1.137,0.875 -1.301,0.598 -1.398,0.281 L 3.707,102.562 2.336,102.176 1.078,101.488 0,100.539"
         style="fill:none;stroke:#000000;stroke-width:0.9216;stroke-linecap:square;stroke-linejoin:miter;stroke-miterlimit:3.25;stroke-dasharray:none;stroke-opacity:1"
         id="path12" />
      <text
         xml:space="preserve"
         transform="translate(10.475114,128.41036)"
         style="font-variant:normal;font-size:21.12px;font-family:CairoFont-0;-inkscape-font-specification:CairoFont-0-0;writing-mode:lr-tb;fill:#000000;fill-opacity:1;fill-rule:nonzero;stroke:none"
         id="text16"><tspan
           x="0"
           y="0"
           id="tspan14">g</tspan></text>
      <path
         d="m 134.051,100.539 1.078,-0.949 1.258,-0.692 1.371,-0.382 1.422,-0.051 1.398,0.281 1.301,0.598 1.137,0.875 0.925,1.09 0.672,1.238 0.391,1.297 0.113,1.273 -0.152,1.164 -0.387,0.973 -0.574,0.723 -0.695,0.421 -0.754,0.09 -0.735,-0.246 -0.648,-0.562 -0.496,-0.844 -0.281,-1.07 -0.036,-1.227 0.239,-1.293 0.523,-1.281 0.793,-1.18 1.027,-1 1.219,-0.754 1.356,-0.457 1.418,-0.129 1.406,0.207 1.328,0.528 1.184,0.816 0.976,1.047 0.731,1.211 0.461,1.289 0.175,1.289 -0.093,1.195 -0.34,1.024 -0.535,0.785 -0.672,0.492 -0.746,0.168 -0.747,-0.168 -0.675,-0.492 -0.535,-0.785 -0.336,-1.024 -0.094,-1.195 0.176,-1.289 0.457,-1.289 0.73,-1.211 0.981,-1.047 1.179,-0.816 1.328,-0.528 1.411,-0.207 1.418,0.129 1.351,0.457 1.219,0.754 1.031,1 0.789,1.18 0.524,1.281 0.242,1.293 -0.035,1.227 -0.285,1.07 -0.497,0.844 -0.644,0.562 -0.738,0.246 -0.754,-0.09 -0.696,-0.421 -0.574,-0.723 -0.387,-0.973 -0.152,-1.164 0.113,-1.273 0.395,-1.297 0.668,-1.238 0.926,-1.09 1.14,-0.875 1.301,-0.598 1.395,-0.281 1.421,0.051 1.375,0.382 1.254,0.692 1.078,0.949"
         style="fill:none;stroke:#000000;stroke-width:0.9216;stroke-linecap:square;stroke-linejoin:miter;stroke-miterlimit:3.25;stroke-dasharray:none;stroke-opacity:1"
         id="path18" />
      <text
         xml:space="preserve"
         transform="translate(144.52602,87.884749)"
         style="font-variant:normal;font-size:21.12px;font-family:CairoFont-0;-inkscape-font-specification:CairoFont-0-0;writing-mode:lr-tb;fill:#000000;fill-opacity:1;fill-rule:nonzero;stroke:none"
         id="text22"><tspan
           x="0"
           y="0"
           id="tspan20">g</tspan></text>
      <path
         d="m 83.781,100.539 0.77,1.004 0.554,1.18 0.293,1.308 0.012,1.364 -0.277,1.343 -0.555,1.25 -0.789,1.078 -0.98,0.868 -1.102,0.613 -1.172,0.355 -1.176,0.11 -1.129,-0.11 -1.039,-0.281 -0.918,-0.406 -0.773,-0.485 -0.605,-0.511 -0.426,-0.5 -0.235,-0.457 -0.035,-0.387 0.16,-0.305 0.352,-0.207 0.527,-0.097 0.68,0.019 0.797,0.149 0.879,0.3 0.906,0.465 0.883,0.637 0.793,0.82 0.652,0.992 0.453,1.145 0.207,1.254 -0.07,1.308 -0.359,1.297 -0.633,1.211 -0.879,1.055 -1.074,0.836 -1.203,0.578 -1.266,0.301 -1.258,0.019 -1.191,-0.234 -1.082,-0.453 -0.942,-0.617 -0.781,-0.723 -0.621,-0.773 -0.453,-0.77 -0.293,-0.715 -0.137,-0.617 0.016,-0.492 0.164,-0.336 0.297,-0.176 0.429,-0.004 0.532,0.172 0.613,0.348 0.656,0.515 0.652,0.684 0.598,0.84 0.488,0.98 0.325,1.106 0.109,1.187 -0.141,1.231 -0.414,1.207 -0.683,1.129 -0.93,0.976 -1.129,0.77 -1.273,0.515 -1.34,0.235 -1.328,-0.059 -1.246,-0.332 -1.114,-0.57 -0.937,-0.766 -0.738,-0.898 -0.543,-0.977 -0.356,-0.996 -0.187,-0.957 -0.047,-0.871 0.07,-0.746 0.16,-0.586 0.242,-0.402 0.305,-0.2 0.356,0.012 0.386,0.219 0.407,0.422 0.394,0.609 0.352,0.777 0.269,0.922 0.141,1.035 -0.024,1.106 -0.23,1.137 -0.465,1.105 -0.707,1.024 -0.941,0.878 -1.137,0.672 -1.285,0.426 -1.364,0.145 -1.363,-0.145 -1.285,-0.426 -1.141,-0.672 -0.937,-0.878 -0.707,-1.024 -0.465,-1.105 -0.234,-1.137 -0.024,-1.106 0.145,-1.035 0.269,-0.922 0.352,-0.777 0.394,-0.609 0.403,-0.422 0.39,-0.219 0.352,-0.012 0.305,0.2 0.242,0.402 0.164,0.586 0.07,0.746 -0.051,0.871 -0.187,0.957 -0.356,0.996 -0.543,0.977 -0.738,0.898 -0.937,0.766 -1.11,0.57 -1.25,0.332 -1.328,0.059 -1.34,-0.235 -1.269,-0.515 -1.133,-0.77 -0.93,-0.976 -0.683,-1.129 -0.411,-1.207 -0.14,-1.231 0.109,-1.187 0.321,-1.106 0.488,-0.98 0.598,-0.84 0.656,-0.684 0.652,-0.515 0.613,-0.348 0.536,-0.172 0.425,0.004 0.301,0.176 0.16,0.336 0.016,0.492 -0.137,0.617 -0.293,0.715 -0.453,0.77 -0.617,0.773 -0.785,0.723 -0.942,0.617 -1.082,0.453 -1.191,0.234 -1.258,-0.019 -1.262,-0.301 -1.203,-0.578 -1.074,-0.836 -0.879,-1.055 -0.637,-1.211 -0.355,-1.297 -0.07,-1.308 0.207,-1.254 0.449,-1.145 0.652,-0.992 0.797,-0.82 0.879,-0.637 0.906,-0.465 0.879,-0.3 0.801,-0.149 0.68,-0.019 0.527,0.097 0.352,0.207 0.16,0.305 -0.039,0.387 -0.235,0.457 -0.426,0.5 -0.605,0.511 -0.773,0.485 -0.918,0.406 -1.04,0.281 -1.128,0.11 -1.176,-0.11 -1.168,-0.355 -1.106,-0.613 -0.976,-0.868 -0.793,-1.078 -0.555,-1.25 -0.277,-1.343 0.012,-1.364 0.296,-1.308 0.551,-1.18 0.77,-1.004"
         style="fill:none;stroke:#000000;stroke-width:0.9216;stroke-linecap:square;stroke-linejoin:miter;stroke-miterlimit:3.25;stroke-dasharray:none;stroke-opacity:1"
         id="path24" />
      <text
         xml:space="preserve"
         transform="translate(52.366023,153.54491)"
         style="font-variant:normal;font-size:21.12px;font-family:CairoFont-0;-inkscape-font-specification:CairoFont-0-0;writing-mode:lr-tb;fill:#000000;fill-opacity:1;fill-rule:nonzero;stroke:none"
         id="text28"><tspan
           x="0"
           y="0"
           id="tspan26">g</tspan></text>
      <path
         d="m 83.781,100.539 0.77,-1.004 0.554,-1.18 0.293,-1.308 0.012,-1.363 -0.277,-1.348 -0.555,-1.246 -0.789,-1.082 -0.98,-0.863 -1.102,-0.614 -1.172,-0.355 -1.176,-0.11 -1.129,0.106 -1.039,0.281 -0.918,0.41 -0.773,0.481 -0.605,0.511 -0.426,0.5 -0.235,0.457 -0.035,0.391 0.16,0.305 0.352,0.207 0.527,0.097 0.68,-0.019 0.797,-0.152 0.879,-0.301 0.906,-0.461 0.883,-0.641 0.793,-0.816 0.652,-0.992 0.453,-1.145 0.207,-1.254 -0.07,-1.308 -0.359,-1.297 -0.633,-1.211 -0.879,-1.055 -1.074,-0.84 -1.203,-0.578 -1.266,-0.297 -1.258,-0.019 -1.191,0.234 -1.082,0.453 -0.942,0.614 -0.781,0.726 -0.621,0.774 -0.453,0.769 -0.293,0.711 -0.137,0.621 0.016,0.488 0.164,0.34 0.297,0.176 h 0.429 l 0.532,-0.172 0.613,-0.344 0.656,-0.515 0.652,-0.684 0.598,-0.84 0.488,-0.984 0.325,-1.102 0.109,-1.191 -0.141,-1.227 -0.414,-1.211 -0.683,-1.124 -0.93,-0.981 -1.129,-0.769 -1.273,-0.516 -1.34,-0.231 -1.328,0.059 -1.246,0.332 -1.114,0.57 -0.937,0.762 -0.738,0.902 -0.543,0.977 -0.356,0.992 -0.187,0.957 -0.047,0.875 0.07,0.746 0.16,0.586 0.242,0.399 0.305,0.203 0.356,-0.012 0.386,-0.219 0.407,-0.422 0.394,-0.609 0.352,-0.781 0.269,-0.922 0.141,-1.035 -0.024,-1.106 -0.23,-1.133 -0.465,-1.109 -0.707,-1.023 -0.941,-0.875 -1.137,-0.676 -1.285,-0.426 -1.364,-0.144 -1.363,0.144 -1.285,0.426 -1.141,0.676 -0.937,0.875 -0.707,1.023 -0.465,1.109 -0.234,1.133 -0.024,1.106 0.145,1.035 0.269,0.922 0.352,0.781 0.394,0.609 0.403,0.422 0.39,0.219 0.352,0.012 0.305,-0.203 0.242,-0.399 0.164,-0.586 0.07,-0.746 -0.051,-0.875 -0.187,-0.957 -0.356,-0.992 -0.543,-0.977 -0.738,-0.902 -0.937,-0.762 -1.11,-0.57 -1.25,-0.332 -1.328,-0.059 -1.34,0.231 -1.269,0.516 -1.133,0.769 -0.93,0.981 -0.683,1.124 -0.411,1.211 -0.14,1.227 0.109,1.191 0.321,1.102 0.488,0.984 0.598,0.84 0.656,0.684 0.652,0.515 0.613,0.344 0.536,0.172 h 0.425 l 0.301,-0.176 0.16,-0.34 0.016,-0.488 -0.137,-0.621 -0.293,-0.711 -0.453,-0.769 -0.617,-0.774 -0.785,-0.726 -0.942,-0.614 -1.082,-0.453 -1.191,-0.234 -1.258,0.019 -1.262,0.297 -1.203,0.578 -1.074,0.84 -0.879,1.055 -0.637,1.211 -0.355,1.297 -0.07,1.308 0.207,1.254 0.449,1.145 0.652,0.992 0.797,0.816 0.879,0.641 0.906,0.461 0.879,0.301 0.801,0.152 0.68,0.019 0.527,-0.097 0.352,-0.207 0.16,-0.305 -0.039,-0.391 -0.235,-0.457 -0.426,-0.5 -0.605,-0.511 -0.773,-0.481 -0.918,-0.41 -1.04,-0.281 -1.128,-0.106 -1.176,0.11 -1.168,0.355 -1.106,0.614 -0.976,0.863 -0.793,1.082 -0.555,1.246 -0.277,1.348 0.012,1.363 0.296,1.308 0.551,1.18 0.77,1.004"
         style="fill:none;stroke:#000000;stroke-width:0.9216;stroke-linecap:square;stroke-linejoin:miter;stroke-miterlimit:3.25;stroke-dasharray:none;stroke-opacity:1"
         id="path30" />
      <text
         xml:space="preserve"
         transform="translate(52.366023,62.750204)"
         style="font-variant:normal;font-size:21.12px;font-family:CairoFont-0;-inkscape-font-specification:CairoFont-0-0;writing-mode:lr-tb;fill:#000000;fill-opacity:1;fill-rule:nonzero;stroke:none"
         id="text34"><tspan
           x="0"
           y="0"
           id="tspan32">g</tspan></text>
      <path
         d="m 83.781,100.539 -0.769,-1.004 -0.555,-1.18 -0.293,-1.308 -0.012,-1.363 0.278,-1.348 0.554,-1.246 0.789,-1.082 0.981,-0.863 1.105,-0.614 1.168,-0.355 1.176,-0.11 1.129,0.106 1.039,0.281 0.918,0.41 0.773,0.481 0.606,0.511 0.426,0.5 0.234,0.457 0.039,0.391 -0.16,0.305 -0.352,0.207 -0.527,0.097 -0.68,-0.019 -0.8,-0.152 -0.879,-0.301 -0.907,-0.461 -0.882,-0.641 -0.793,-0.816 -0.653,-0.992 -0.449,-1.145 -0.207,-1.254 0.07,-1.308 0.356,-1.297 0.637,-1.211 0.879,-1.055 1.074,-0.84 1.203,-0.578 1.262,-0.297 1.257,-0.019 1.192,0.234 1.082,0.453 0.941,0.614 0.785,0.726 0.618,0.774 0.453,0.769 0.293,0.711 0.136,0.621 -0.015,0.488 -0.16,0.34 -0.301,0.176 h -0.426 l -0.535,-0.172 -0.613,-0.344 -0.657,-0.515 -0.652,-0.684 -0.598,-0.84 -0.488,-0.984 -0.324,-1.102 -0.109,-1.191 0.144,-1.227 0.41,-1.211 0.684,-1.124 0.929,-0.981 1.133,-0.769 1.27,-0.516 1.34,-0.231 1.328,0.059 1.25,0.332 1.109,0.57 0.938,0.762 0.738,0.902 0.543,0.977 0.355,0.992 0.188,0.957 0.047,0.875 -0.067,0.746 -0.164,0.586 -0.242,0.399 -0.305,0.203 -0.351,-0.012 -0.391,-0.219 -0.402,-0.422 -0.395,-0.609 -0.351,-0.781 -0.27,-0.922 -0.144,-1.035 0.023,-1.106 0.235,-1.133 0.46,-1.109 0.711,-1.023 0.938,-0.875 1.141,-0.676 1.285,-0.426 1.363,-0.144 1.363,0.144 1.285,0.426 1.137,0.676 0.942,0.875 0.707,1.023 0.464,1.109 0.231,1.133 0.023,1.106 -0.14,1.035 -0.27,0.922 -0.351,0.781 -0.399,0.609 -0.402,0.422 -0.391,0.219 -0.351,0.012 -0.305,-0.203 -0.242,-0.399 -0.164,-0.586 -0.067,-0.746 0.047,-0.875 0.188,-0.957 0.355,-0.992 0.543,-0.977 0.738,-0.902 0.938,-0.762 1.113,-0.57 1.246,-0.332 1.328,-0.059 1.34,0.231 1.27,0.516 1.133,0.769 0.929,0.981 0.684,1.124 0.414,1.211 0.141,1.227 -0.11,1.191 -0.324,1.102 -0.488,0.984 -0.598,0.84 -0.652,0.684 -0.657,0.515 -0.613,0.344 -0.535,0.172 h -0.426 l -0.297,-0.176 -0.164,-0.34 -0.015,-0.488 0.136,-0.621 0.293,-0.711 0.453,-0.769 0.618,-0.774 0.785,-0.726 0.941,-0.614 1.082,-0.453 1.192,-0.234 1.257,0.019 1.266,0.297 1.203,0.578 1.07,0.84 0.883,1.055 0.633,1.211 0.36,1.297 0.066,1.308 -0.203,1.254 -0.453,1.145 -0.653,0.992 -0.793,0.816 -0.882,0.641 -0.907,0.461 -0.879,0.301 -0.8,0.152 -0.68,0.019 -0.527,-0.097 -0.348,-0.207 -0.16,-0.305 0.035,-0.391 0.234,-0.457 0.426,-0.5 0.606,-0.511 0.773,-0.481 0.918,-0.41 1.039,-0.281 1.129,-0.106 1.176,0.11 1.168,0.355 1.105,0.614 0.981,0.863 0.789,1.082 0.554,1.246 0.278,1.348 -0.012,1.363 -0.293,1.308 -0.555,1.18 -0.769,1.004"
         style="fill:none;stroke:#000000;stroke-width:0.9216;stroke-linecap:square;stroke-linejoin:miter;stroke-miterlimit:3.25;stroke-dasharray:none;stroke-opacity:1"
         id="path36" />
      <text
         xml:space="preserve"
         transform="translate(102.63511,62.750204)"
         style="font-variant:normal;font-size:21.12px;font-family:CairoFont-0;-inkscape-font-specification:CairoFont-0-0;writing-mode:lr-tb;fill:#000000;fill-opacity:1;fill-rule:nonzero;stroke:none"
         id="text40"><tspan
           x="0"
           y="0"
           id="tspan38">g</tspan></text>
      <path
         d="m 83.781,100.539 -0.769,1.004 -0.555,1.18 -0.293,1.308 -0.012,1.364 0.278,1.343 0.554,1.25 0.789,1.078 0.981,0.868 1.105,0.613 1.168,0.355 1.176,0.11 1.129,-0.11 1.039,-0.281 0.918,-0.406 0.773,-0.485 0.606,-0.511 0.426,-0.5 0.234,-0.457 0.039,-0.387 -0.16,-0.305 -0.352,-0.207 -0.527,-0.097 -0.68,0.019 -0.8,0.149 -0.879,0.3 -0.907,0.465 -0.882,0.637 -0.793,0.82 -0.653,0.992 -0.449,1.145 -0.207,1.254 0.07,1.308 0.356,1.297 0.637,1.211 0.879,1.055 1.074,0.836 1.203,0.578 1.262,0.301 1.257,0.019 1.192,-0.234 1.082,-0.453 0.941,-0.617 0.785,-0.723 0.618,-0.773 0.453,-0.77 0.293,-0.715 0.136,-0.617 -0.015,-0.492 -0.16,-0.336 -0.301,-0.176 -0.426,-0.004 -0.535,0.172 -0.613,0.348 -0.657,0.515 -0.652,0.684 -0.598,0.84 -0.488,0.98 -0.324,1.106 -0.109,1.187 0.144,1.231 0.41,1.207 0.684,1.129 0.929,0.976 1.133,0.77 1.27,0.515 1.34,0.235 1.328,-0.059 1.25,-0.332 1.109,-0.57 0.938,-0.766 0.738,-0.898 0.543,-0.977 0.355,-0.996 0.188,-0.957 0.047,-0.871 -0.067,-0.746 -0.164,-0.586 -0.242,-0.402 -0.305,-0.2 -0.351,0.012 -0.391,0.219 -0.402,0.422 -0.395,0.609 -0.351,0.777 -0.27,0.922 -0.144,1.035 0.023,1.106 0.235,1.137 0.46,1.105 0.711,1.024 0.938,0.878 1.141,0.672 1.285,0.426 1.363,0.145 1.363,-0.145 1.285,-0.426 1.137,-0.672 0.942,-0.878 0.707,-1.024 0.464,-1.105 0.231,-1.137 0.023,-1.106 -0.14,-1.035 -0.27,-0.922 -0.351,-0.777 -0.399,-0.609 -0.402,-0.422 -0.391,-0.219 -0.351,-0.012 -0.305,0.2 -0.242,0.402 -0.164,0.586 -0.067,0.746 0.047,0.871 0.188,0.957 0.355,0.996 0.543,0.977 0.738,0.898 0.938,0.766 1.113,0.57 1.246,0.332 1.328,0.059 1.34,-0.235 1.27,-0.515 1.133,-0.77 0.929,-0.976 0.684,-1.129 0.414,-1.207 0.141,-1.231 -0.11,-1.187 -0.324,-1.106 -0.488,-0.98 -0.598,-0.84 -0.652,-0.684 -0.657,-0.515 -0.613,-0.348 -0.535,-0.172 -0.426,0.004 -0.297,0.176 -0.164,0.336 -0.015,0.492 0.136,0.617 0.293,0.715 0.453,0.77 0.618,0.773 0.785,0.723 0.941,0.617 1.082,0.453 1.192,0.234 1.257,-0.019 1.266,-0.301 1.203,-0.578 1.07,-0.836 0.883,-1.055 0.633,-1.211 0.36,-1.297 0.066,-1.308 -0.203,-1.254 -0.453,-1.145 -0.653,-0.992 -0.793,-0.82 -0.882,-0.637 -0.907,-0.465 -0.879,-0.3 -0.8,-0.149 -0.68,-0.019 -0.527,0.097 -0.348,0.207 -0.16,0.305 0.035,0.387 0.234,0.457 0.426,0.5 0.606,0.511 0.773,0.485 0.918,0.406 1.039,0.281 1.129,0.11 1.176,-0.11 1.168,-0.355 1.105,-0.613 0.981,-0.868 0.789,-1.078 0.554,-1.25 0.278,-1.343 -0.012,-1.364 -0.293,-1.308 -0.555,-1.18 -0.769,-1.004"
         style="fill:none;stroke:#000000;stroke-width:0.9216;stroke-linecap:square;stroke-linejoin:miter;stroke-miterlimit:3.25;stroke-dasharray:none;stroke-opacity:1"
         id="path42" />
      <text
         xml:space="preserve"
         transform="translate(102.63511,153.54491)"
         style="font-variant:normal;font-size:21.12px;font-family:CairoFont-0;-inkscape-font-specification:CairoFont-0-0;writing-mode:lr-tb;fill:#000000;fill-opacity:1;fill-rule:nonzero;stroke:none"
         id="text46"><tspan
           x="0"
           y="0"
           id="tspan44">g</tspan></text>
      <path
         d="m 37.199,100.539 c 0,0.977 -0.387,1.914 -1.078,2.606 -0.691,0.691 -1.629,1.078 -2.609,1.078 -0.977,0 -1.914,-0.387 -2.606,-1.078 -0.691,-0.692 -1.078,-1.629 -1.078,-2.606 0,-0.98 0.387,-1.918 1.078,-2.609 0.692,-0.692 1.629,-1.078 2.606,-1.078 0.98,0 1.918,0.386 2.609,1.078 0.691,0.691 1.078,1.629 1.078,2.609 z"
         style="fill:#000000;fill-opacity:1;fill-rule:evenodd;stroke:none"
         id="path48" />
      <path
         d="m 137.738,100.539 c 0,0.977 -0.39,1.914 -1.082,2.606 -0.691,0.691 -1.629,1.078 -2.605,1.078 -0.977,0 -1.914,-0.387 -2.606,-1.078 -0.691,-0.692 -1.082,-1.629 -1.082,-2.606 0,-0.98 0.391,-1.918 1.082,-2.609 0.692,-0.692 1.629,-1.078 2.606,-1.078 0.976,0 1.914,0.386 2.605,1.078 0.692,0.691 1.082,1.629 1.082,2.609 z"
         style="fill:#000000;fill-opacity:1;fill-rule:evenodd;stroke:none"
         id="path50" />
      <path
         d="m 87.469,100.539 c 0,0.977 -0.391,1.914 -1.082,2.606 -0.692,0.691 -1.629,1.078 -2.606,1.078 -0.976,0 -1.914,-0.387 -2.605,-1.078 -0.692,-0.692 -1.082,-1.629 -1.082,-2.606 0,-0.98 0.39,-1.918 1.082,-2.609 0.691,-0.692 1.629,-1.078 2.605,-1.078 0.977,0 1.914,0.386 2.606,1.078 0.691,0.691 1.082,1.629 1.082,2.609 z"
         style="fill:#000000;fill-opacity:1;fill-rule:evenodd;stroke:none"
         id="path52" />
      <path
         d="m 234.59,100.539 -0.996,0.836 -1.141,0.648 -1.238,0.426 -1.297,0.18 -1.305,-0.074 -1.269,-0.325 -1.184,-0.558 -1.062,-0.762 -0.899,-0.93 -0.711,-1.05 -0.508,-1.118 -0.296,-1.124 -0.082,-1.083 0.109,-0.976 0.281,-0.832 0.418,-0.637 0.52,-0.41 0.574,-0.168 0.582,0.09 0.543,0.336 0.457,0.57 0.328,0.77 0.164,0.937 -0.019,1.055 -0.227,1.121 -0.441,1.125 -0.649,1.074 -0.844,0.973 -1.015,0.82 -1.149,0.625 -1.246,0.402 -1.3,0.153 -1.305,-0.102 -1.262,-0.347 -1.176,-0.582 -1.043,-0.782 -0.882,-0.945 -0.692,-1.059 -0.484,-1.121 -0.274,-1.125 -0.062,-1.07 0.129,-0.969 0.297,-0.808 0.433,-0.614 0.528,-0.386 0.578,-0.141 0.578,0.113 0.535,0.364 0.445,0.589 0.313,0.793 0.148,0.95 -0.043,1.066 -0.25,1.121 -0.465,1.125 -0.668,1.067 -0.863,0.96 -1.027,0.801 -1.164,0.602 -1.254,0.375 -1.305,0.125 -1.301,-0.125 -1.254,-0.375 -1.164,-0.602 -1.027,-0.801 -0.863,-0.96 -0.672,-1.067 -0.461,-1.125 -0.25,-1.121 -0.043,-1.066 0.148,-0.95 0.313,-0.793 0.445,-0.589 0.535,-0.364 0.579,-0.113 0.578,0.141 0.527,0.386 0.434,0.614 0.296,0.808 0.129,0.969 -0.066,1.07 -0.27,1.125 -0.484,1.121 -0.691,1.059 -0.883,0.945 -1.043,0.782 -1.176,0.582 -1.262,0.347 -1.304,0.102 -1.301,-0.153 -1.246,-0.402 -1.153,-0.625 -1.011,-0.82 -0.844,-0.973 -0.648,-1.074 -0.442,-1.125 -0.226,-1.121 -0.024,-1.055 0.168,-0.937 0.328,-0.77 0.457,-0.57 0.539,-0.336 0.582,-0.09 0.575,0.168 0.519,0.41 0.422,0.637 0.281,0.832 0.11,0.976 -0.086,1.083 -0.293,1.124 -0.508,1.118 -0.711,1.05 -0.899,0.93 -1.062,0.762 -1.184,0.558 -1.269,0.325 -1.309,0.074 -1.293,-0.18 -1.242,-0.426 -1.137,-0.648 -0.996,-0.836"
         style="fill:none;stroke:#000000;stroke-width:0.9216;stroke-linecap:square;stroke-linejoin:miter;stroke-miterlimit:3.25;stroke-dasharray:none;stroke-opacity:1"
         id="path54" />
      <text
         xml:space="preserve"
         transform="translate(203.17329,128.41036)"
         style="font-variant:normal;font-size:21.12px;font-family:CairoFont-0;-inkscape-font-specification:CairoFont-0-0;writing-mode:lr-tb;fill:#000000;fill-opacity:1;fill-rule:nonzero;stroke:none"
         id="text58"><tspan
           x="0"
           y="0"
           id="tspan56">g</tspan></text>
      <path
         d="m 301.613,100.539 1,-0.84 1.137,-0.648 1.238,-0.422 1.297,-0.18 1.305,0.074 1.269,0.325 1.188,0.554 1.058,0.766 0.899,0.93 0.715,1.047 0.504,1.117 0.297,1.129 0.085,1.078 -0.113,0.98 -0.281,0.828 -0.418,0.637 -0.52,0.414 -0.574,0.164 -0.582,-0.086 -0.543,-0.336 -0.453,-0.57 -0.332,-0.773 -0.164,-0.938 0.02,-1.055 0.23,-1.117 0.437,-1.125 0.653,-1.078 0.84,-0.973 1.015,-0.82 1.149,-0.625 1.25,-0.398 1.297,-0.153 1.304,0.098 1.262,0.352 1.176,0.578 1.043,0.785 0.883,0.941 0.691,1.063 0.484,1.117 0.274,1.125 0.062,1.074 -0.129,0.965 -0.296,0.812 -0.434,0.614 -0.527,0.386 -0.579,0.141 -0.578,-0.113 -0.535,-0.363 -0.445,-0.59 -0.313,-0.793 -0.148,-0.953 0.043,-1.063 0.25,-1.121 0.465,-1.125 0.668,-1.066 0.863,-0.961 1.031,-0.801 1.16,-0.606 1.254,-0.371 1.305,-0.129 1.301,0.129 1.254,0.371 1.164,0.606 1.027,0.801 0.863,0.961 0.672,1.066 0.461,1.125 0.25,1.121 0.043,1.063 -0.148,0.953 -0.313,0.793 -0.445,0.59 -0.531,0.363 -0.582,0.113 -0.578,-0.141 -0.528,-0.386 -0.43,-0.614 -0.3,-0.812 -0.129,-0.965 0.066,-1.074 0.27,-1.125 0.488,-1.117 0.691,-1.063 0.879,-0.941 1.047,-0.785 1.172,-0.578 1.262,-0.352 1.304,-0.098 1.301,0.153 1.246,0.398 1.153,0.625 1.011,0.82 0.844,0.973 0.649,1.078 0.441,1.125 0.227,1.117 0.023,1.055 -0.168,0.938 -0.328,0.773 -0.457,0.57 -0.539,0.336 -0.582,0.086 -0.574,-0.164 -0.52,-0.414 -0.422,-0.637 -0.281,-0.828 -0.109,-0.98 0.085,-1.078 0.293,-1.129 0.508,-1.117 0.711,-1.047 0.903,-0.93 1.058,-0.766 1.184,-0.554 1.269,-0.325 1.309,-0.074 1.297,0.18 1.238,0.422 1.137,0.648 0.996,0.84"
         style="fill:none;stroke:#000000;stroke-width:0.9216;stroke-linecap:square;stroke-linejoin:miter;stroke-miterlimit:3.25;stroke-dasharray:none;stroke-opacity:1"
         id="path60" />
      <text
         xml:space="preserve"
         transform="translate(320.46784,87.884749)"
         style="font-variant:normal;font-size:21.12px;font-family:CairoFont-0;-inkscape-font-specification:CairoFont-0-0;writing-mode:lr-tb;fill:#000000;fill-opacity:1;fill-rule:nonzero;stroke:none"
         id="text64"><tspan
           x="0"
           y="0"
           id="tspan62">g</tspan></text>
      <path
         d="m 234.59,100.539 -0.766,0.996 -0.566,1.156 -0.336,1.274 -0.074,1.336 0.191,1.328 0.449,1.262 0.684,1.129 0.871,0.953 1.019,0.742 1.11,0.512 1.148,0.285 1.133,0.078 1.074,-0.11 0.977,-0.253 0.844,-0.36 0.687,-0.426 0.512,-0.453 0.316,-0.445 0.117,-0.414 -0.082,-0.359 -0.281,-0.286 -0.465,-0.195 -0.629,-0.082 -0.765,0.039 -0.86,0.184 -0.918,0.34 -0.921,0.515 -0.875,0.695 -0.778,0.872 -0.621,1.035 -0.426,1.172 -0.191,1.265 0.066,1.313 0.332,1.289 0.586,1.211 0.809,1.066 0.996,0.875 1.129,0.649 1.199,0.402 1.223,0.152 1.191,-0.078 1.113,-0.281 1,-0.442 0.864,-0.558 0.703,-0.621 0.539,-0.637 0.363,-0.613 0.188,-0.551 0.008,-0.457 -0.165,-0.34 -0.328,-0.203 -0.472,-0.055 -0.594,0.102 -0.688,0.265 -0.738,0.43 -0.746,0.598 -0.703,0.765 -0.613,0.918 -0.465,1.059 -0.274,1.168 -0.05,1.234 0.199,1.258 0.457,1.223 0.703,1.129 0.922,0.972 1.098,0.778 1.218,0.535 1.278,0.277 1.273,0.02 1.219,-0.227 1.117,-0.441 0.984,-0.613 0.825,-0.743 0.656,-0.808 0.484,-0.832 0.324,-0.801 0.164,-0.723 0.016,-0.613 -0.121,-0.469 -0.242,-0.301 -0.356,-0.121 -0.445,0.067 -0.512,0.258 -0.547,0.441 -0.55,0.621 -0.508,0.785 -0.422,0.93 -0.293,1.051 -0.117,1.136 0.094,1.188 0.324,1.184 0.57,1.132 0.801,1.02 1.008,0.859 1.172,0.653 1.277,0.406 1.328,0.14 1.309,-0.117 1.226,-0.371 1.102,-0.59 0.937,-0.765 0.754,-0.895 0.563,-0.969 0.375,-0.992 0.207,-0.961 0.054,-0.886 -0.07,-0.77 -0.176,-0.617 -0.258,-0.442 -0.32,-0.246 -0.367,-0.043 -0.391,0.168 -0.394,0.375 -0.371,0.563 -0.317,0.734 -0.23,0.883 -0.11,0.996 0.051,1.074 0.235,1.11 0.449,1.09 0.664,1.023 0.875,0.902 1.066,0.727 1.215,0.512 1.313,0.265 h 1.343 l 1.313,-0.265 1.215,-0.512 1.066,-0.727 0.875,-0.902 0.668,-1.023 0.445,-1.09 0.239,-1.11 0.047,-1.074 -0.11,-0.996 -0.23,-0.883 -0.317,-0.734 -0.371,-0.563 -0.394,-0.375 -0.391,-0.168 -0.363,0.043 -0.324,0.246 -0.258,0.442 -0.176,0.617 -0.07,0.77 0.058,0.886 0.203,0.961 0.375,0.992 0.563,0.969 0.754,0.895 0.937,0.765 1.102,0.59 1.226,0.371 1.309,0.117 1.328,-0.14 1.278,-0.406 1.175,-0.653 1.008,-0.859 0.801,-1.02 0.566,-1.132 0.325,-1.184 0.093,-1.188 -0.117,-1.136 -0.293,-1.051 -0.422,-0.93 -0.508,-0.785 -0.55,-0.621 -0.547,-0.441 -0.512,-0.258 -0.445,-0.067 -0.352,0.121 -0.246,0.301 -0.121,0.469 0.02,0.613 0.16,0.723 0.324,0.801 0.484,0.832 0.657,0.808 0.824,0.743 0.984,0.613 1.117,0.441 1.219,0.227 1.277,-0.02 1.274,-0.277 1.219,-0.535 1.097,-0.778 0.922,-0.972 0.703,-1.129 0.457,-1.223 0.199,-1.258 -0.046,-1.234 -0.278,-1.168 -0.465,-1.059 -0.613,-0.918 -0.703,-0.765 -0.746,-0.598 -0.738,-0.43 -0.688,-0.265 -0.594,-0.102 -0.472,0.055 -0.328,0.203 -0.164,0.34 0.007,0.457 0.188,0.551 0.363,0.613 0.539,0.637 0.707,0.621 0.86,0.558 1.004,0.442 1.109,0.281 1.191,0.078 1.223,-0.152 1.203,-0.402 1.125,-0.649 0.996,-0.875 0.809,-1.066 0.586,-1.211 0.332,-1.289 0.066,-1.313 -0.191,-1.265 -0.426,-1.172 -0.621,-1.035 -0.777,-0.872 -0.875,-0.695 -0.922,-0.515 -0.918,-0.34 -0.86,-0.184 -0.765,-0.039 -0.629,0.082 -0.465,0.195 -0.281,0.286 -0.082,0.359 0.117,0.414 0.316,0.445 0.512,0.453 0.687,0.426 0.844,0.36 0.977,0.253 1.074,0.11 1.133,-0.078 1.148,-0.285 1.11,-0.512 1.019,-0.742 0.871,-0.953 0.684,-1.129 0.449,-1.262 0.191,-1.328 -0.074,-1.336 -0.336,-1.274 -0.566,-1.156 -0.766,-0.996"
         style="fill:none;stroke:#000000;stroke-width:0.9216;stroke-linecap:square;stroke-linejoin:miter;stroke-miterlimit:3.25;stroke-dasharray:none;stroke-opacity:1"
         id="path66" />
      <text
         xml:space="preserve"
         transform="translate(261.82057,161.92309)"
         style="font-variant:normal;font-size:21.12px;font-family:CairoFont-0;-inkscape-font-specification:CairoFont-0-0;writing-mode:lr-tb;fill:#000000;fill-opacity:1;fill-rule:nonzero;stroke:none"
         id="text70"><tspan
           x="0"
           y="0"
           id="tspan68">g</tspan></text>
      <path
         d="m 234.59,100.539 0.957,-0.781 1.082,-0.621 1.172,-0.434 1.23,-0.226 1.25,-0.012 1.235,0.203 1.179,0.414 1.094,0.602 0.973,0.761 0.824,0.899 0.664,0.984 0.484,1.039 0.305,1.039 0.121,1 -0.043,0.918 -0.191,0.793 -0.321,0.637 -0.41,0.449 -0.476,0.246 -0.5,0.031 -0.485,-0.183 -0.433,-0.395 -0.348,-0.586 -0.234,-0.75 -0.086,-0.886 0.074,-0.981 0.25,-1.035 0.434,-1.043 0.613,-1.004 0.781,-0.926 0.934,-0.808 1.058,-0.649 1.161,-0.468 1.222,-0.266 1.25,-0.051 1.238,0.164 1.196,0.379 1.109,0.567 0.996,0.738 0.856,0.875 0.691,0.976 0.516,1.032 0.336,1.043 0.156,1.011 -0.016,0.934 -0.168,0.816 -0.297,0.668 -0.398,0.485 -0.465,0.285 -0.5,0.07 -0.488,-0.148 -0.445,-0.36 -0.368,-0.55 -0.257,-0.723 -0.114,-0.867 0.043,-0.965 0.219,-1.027 0.402,-1.047 0.582,-1.016 0.75,-0.941 0.907,-0.832 1.043,-0.68 1.14,-0.504 1.215,-0.301 1.25,-0.09 1.242,0.129 1.207,0.34 1.125,0.535 1.02,0.711 0.879,0.852 0.722,0.961 0.551,1.023 0.367,1.043 0.188,1.02 0.015,0.953 -0.144,0.84 -0.273,0.699 -0.383,0.519 -0.457,0.321 -0.496,0.105 -0.493,-0.105 -0.457,-0.321 -0.382,-0.519 -0.278,-0.699 -0.144,-0.84 0.015,-0.953 0.188,-1.02 0.367,-1.043 0.551,-1.023 0.722,-0.961 0.879,-0.852 1.02,-0.711 1.129,-0.535 1.203,-0.34 1.242,-0.129 1.25,0.09 1.215,0.301 1.141,0.504 1.042,0.68 0.907,0.832 0.754,0.941 0.578,1.016 0.402,1.047 0.219,1.027 0.043,0.965 -0.113,0.867 -0.258,0.723 -0.364,0.55 -0.449,0.36 -0.488,0.148 -0.496,-0.07 -0.469,-0.285 -0.398,-0.485 -0.297,-0.668 -0.168,-0.816 -0.016,-0.934 0.156,-1.011 0.336,-1.043 0.516,-1.032 0.695,-0.976 0.852,-0.875 0.996,-0.738 1.109,-0.567 1.196,-0.379 1.238,-0.164 1.25,0.051 1.223,0.266 1.16,0.468 1.058,0.649 0.934,0.808 0.781,0.926 0.613,1.004 0.434,1.043 0.25,1.035 0.074,0.981 -0.086,0.886 -0.234,0.75 -0.348,0.586 -0.433,0.395 -0.485,0.183 -0.5,-0.031 -0.472,-0.246 -0.414,-0.449 -0.321,-0.637 -0.191,-0.793 -0.043,-0.918 0.125,-1 0.301,-1.039 0.484,-1.039 0.664,-0.984 0.824,-0.899 0.973,-0.761 1.094,-0.602 1.18,-0.414 1.234,-0.203 1.25,0.012 1.23,0.226 1.176,0.434 1.078,0.621 0.957,0.781"
         style="fill:none;stroke:#000000;stroke-width:0.9216;stroke-linecap:square;stroke-linejoin:miter;stroke-miterlimit:3.25;stroke-dasharray:none;stroke-opacity:1"
         id="path72" />
      <text
         xml:space="preserve"
         transform="translate(261.82057,134.27509)"
         style="font-variant:normal;font-size:21.12px;font-family:CairoFont-0;-inkscape-font-specification:CairoFont-0-0;writing-mode:lr-tb;fill:#000000;fill-opacity:1;fill-rule:nonzero;stroke:none"
         id="text76"><tspan
           x="0"
           y="0"
           id="tspan74">g</tspan></text>
      <path
         d="m 234.59,100.539 -0.766,-0.996 -0.566,-1.156 -0.336,-1.278 -0.074,-1.332 0.191,-1.332 0.449,-1.257 0.684,-1.133 0.871,-0.953 1.019,-0.739 1.11,-0.515 1.148,-0.286 1.133,-0.074 1.074,0.106 0.977,0.254 0.844,0.359 0.687,0.426 0.512,0.453 0.316,0.449 0.117,0.414 -0.082,0.36 -0.281,0.285 -0.465,0.191 -0.629,0.086 -0.765,-0.043 -0.86,-0.18 -0.918,-0.343 -0.921,-0.516 -0.875,-0.691 -0.778,-0.871 -0.621,-1.036 -0.426,-1.171 -0.191,-1.27 0.066,-1.309 0.332,-1.293 0.586,-1.207 0.809,-1.066 0.996,-0.879 1.129,-0.648 1.199,-0.399 1.223,-0.152 1.191,0.078 1.113,0.281 1,0.442 0.864,0.554 0.703,0.621 0.539,0.641 0.363,0.613 0.188,0.551 0.008,0.453 -0.165,0.34 -0.328,0.203 -0.472,0.055 -0.594,-0.098 -0.688,-0.265 -0.738,-0.43 -0.746,-0.602 -0.703,-0.761 -0.613,-0.922 -0.465,-1.059 -0.274,-1.164 -0.05,-1.238 0.199,-1.258 0.457,-1.223 0.703,-1.125 0.922,-0.976 1.098,-0.774 1.218,-0.535 1.278,-0.281 1.273,-0.016 1.219,0.223 1.117,0.441 0.984,0.618 0.825,0.738 0.656,0.812 0.484,0.832 0.324,0.797 0.164,0.727 0.016,0.609 -0.121,0.469 -0.242,0.301 -0.356,0.125 -0.445,-0.071 -0.512,-0.253 -0.547,-0.446 -0.55,-0.617 -0.508,-0.785 -0.422,-0.93 -0.293,-1.051 -0.117,-1.14 0.094,-1.184 0.324,-1.187 0.57,-1.129 0.801,-1.024 1.008,-0.859 1.172,-0.648 1.277,-0.407 1.328,-0.144 1.309,0.121 1.226,0.371 1.102,0.586 0.937,0.769 0.754,0.895 0.563,0.969 0.375,0.992 0.207,0.961 0.054,0.887 -0.07,0.769 -0.176,0.617 -0.258,0.442 -0.32,0.246 -0.367,0.039 -0.391,-0.168 -0.394,-0.371 -0.371,-0.563 -0.317,-0.734 -0.23,-0.883 -0.11,-0.996 0.051,-1.078 0.235,-1.106 0.449,-1.093 0.664,-1.02 0.875,-0.902 1.066,-0.727 1.215,-0.512 1.313,-0.265 h 1.343 l 1.313,0.265 1.215,0.512 1.066,0.727 0.875,0.902 0.668,1.02 0.445,1.093 0.239,1.106 0.047,1.078 -0.11,0.996 -0.23,0.883 -0.317,0.734 -0.371,0.563 -0.394,0.371 -0.391,0.168 -0.363,-0.039 -0.324,-0.246 -0.258,-0.442 -0.176,-0.617 -0.07,-0.769 0.058,-0.887 0.203,-0.961 0.375,-0.992 0.563,-0.969 0.754,-0.895 0.937,-0.769 1.102,-0.586 1.226,-0.371 1.309,-0.121 1.328,0.144 1.278,0.407 1.175,0.648 1.008,0.859 0.801,1.024 0.566,1.129 0.325,1.187 0.093,1.184 -0.117,1.14 -0.293,1.051 -0.422,0.93 -0.508,0.785 -0.55,0.617 -0.547,0.446 -0.512,0.253 -0.445,0.071 -0.352,-0.125 -0.246,-0.301 -0.121,-0.469 0.02,-0.609 0.16,-0.727 0.324,-0.797 0.484,-0.832 0.657,-0.812 0.824,-0.738 0.984,-0.618 1.117,-0.441 1.219,-0.223 1.277,0.016 1.274,0.281 1.219,0.535 1.097,0.774 0.922,0.976 0.703,1.125 0.457,1.223 0.199,1.258 -0.046,1.238 -0.278,1.164 -0.465,1.059 -0.613,0.922 -0.703,0.761 -0.746,0.602 -0.738,0.43 -0.688,0.265 -0.594,0.098 -0.472,-0.055 -0.328,-0.203 -0.164,-0.34 0.007,-0.453 0.188,-0.551 0.363,-0.613 0.539,-0.641 0.707,-0.621 0.86,-0.554 1.004,-0.442 1.109,-0.281 1.191,-0.078 1.223,0.152 1.203,0.399 1.125,0.648 0.996,0.879 0.809,1.066 0.586,1.207 0.332,1.293 0.066,1.309 -0.191,1.27 -0.426,1.171 -0.621,1.036 -0.777,0.871 -0.875,0.691 -0.922,0.516 -0.918,0.343 -0.86,0.18 -0.765,0.043 -0.629,-0.086 -0.465,-0.191 -0.281,-0.285 -0.082,-0.36 0.117,-0.414 0.316,-0.449 0.512,-0.453 0.687,-0.426 0.844,-0.359 0.977,-0.254 1.074,-0.106 1.133,0.074 1.148,0.286 1.11,0.515 1.019,0.739 0.871,0.953 0.684,1.133 0.449,1.257 0.191,1.332 -0.074,1.332 -0.336,1.278 -0.566,1.156 -0.766,0.996"
         style="fill:none;stroke:#000000;stroke-width:0.9216;stroke-linecap:square;stroke-linejoin:miter;stroke-miterlimit:3.25;stroke-dasharray:none;stroke-opacity:1"
         id="path78" />
      <text
         xml:space="preserve"
         transform="translate(261.82057,54.372022)"
         style="font-variant:normal;font-size:21.12px;font-family:CairoFont-0;-inkscape-font-specification:CairoFont-0-0;writing-mode:lr-tb;fill:#000000;fill-opacity:1;fill-rule:nonzero;stroke:none"
         id="text82"><tspan
           x="0"
           y="0"
           id="tspan80">g</tspan></text>
      <path
         d="m 305.301,100.539 c 0,0.977 -0.387,1.914 -1.078,2.606 -0.692,0.691 -1.629,1.078 -2.61,1.078 -0.976,0 -1.914,-0.387 -2.605,-1.078 -0.692,-0.692 -1.078,-1.629 -1.078,-2.606 0,-0.98 0.386,-1.918 1.078,-2.609 0.691,-0.692 1.629,-1.078 2.605,-1.078 0.981,0 1.918,0.386 2.61,1.078 0.691,0.691 1.078,1.629 1.078,2.609 z"
         style="fill:#000000;fill-opacity:1;fill-rule:evenodd;stroke:none"
         id="path84" />
      <path
         d="m 238.277,100.539 c 0,0.977 -0.39,1.914 -1.082,2.606 -0.691,0.691 -1.629,1.078 -2.605,1.078 -0.977,0 -1.918,-0.387 -2.61,-1.078 -0.687,-0.692 -1.078,-1.629 -1.078,-2.606 0,-0.98 0.391,-1.918 1.078,-2.609 0.692,-0.692 1.633,-1.078 2.61,-1.078 0.976,0 1.914,0.386 2.605,1.078 0.692,0.691 1.082,1.629 1.082,2.609 z"
         style="fill:#000000;fill-opacity:1;fill-rule:evenodd;stroke:none"
         id="path86" />
    </g>
  </g>
</svg>
