<?xml version="1.0" encoding="UTF-8" standalone="no"?>
<!-- Created with Inkscape (http://www.inkscape.org/) -->

<svg
   version="1.1"
   id="svg2"
   width="984"
   height="246.66667"
   viewBox="0 0 984 246.66667"
   sodipodi:docname="1gwtdibzvkwav.pdf"
   xmlns:inkscape="http://www.inkscape.org/namespaces/inkscape"
   xmlns:sodipodi="http://sodipodi.sourceforge.net/DTD/sodipodi-0.dtd"
   xmlns="http://www.w3.org/2000/svg"
   xmlns:svg="http://www.w3.org/2000/svg">
  <defs
     id="defs6">
    <clipPath
       clipPathUnits="userSpaceOnUse"
       id="clipPath88">
      <path
         d="m 227,137 h 13.961 v 17 H 227 Z"
         id="path86" />
    </clipPath>
    <clipPath
       clipPathUnits="userSpaceOnUse"
       id="clipPath120">
      <path
         d="m 227,56 h 13.961 V 73 H 227 Z"
         id="path118" />
    </clipPath>
  </defs>
  <sodipodi:namedview
     id="namedview4"
     pagecolor="#ffffff"
     bordercolor="#999999"
     borderopacity="1"
     inkscape:showpageshadow="0"
     inkscape:pageopacity="0"
     inkscape:pagecheckerboard="0"
     inkscape:deskcolor="#d1d1d1" />
  <g
     id="g8"
     inkscape:groupmode="layer"
     inkscape:label="1gwtdibzvkwav"
     transform="matrix(1.3333333,0,0,1.3333333,0,9.5e-6)">
    <g
       id="g10">
      <path
         d="m 50.27,100.539 -0.997,0.836 -1.14,0.648 -1.238,0.426 -1.297,0.18 -1.305,-0.074 -1.27,-0.325 -1.183,-0.558 -1.063,-0.762 -0.898,-0.93 -0.711,-1.05 -0.508,-1.118 -0.293,-1.124 -0.086,-1.083 0.11,-0.976 0.281,-0.832 0.418,-0.637 0.519,-0.41 0.575,-0.168 0.582,0.09 0.543,0.336 0.457,0.57 0.328,0.77 0.168,0.937 -0.024,1.055 -0.226,1.121 -0.442,1.125 -0.648,1.074 -0.844,0.973 -1.016,0.82 -1.148,0.625 -1.246,0.402 -1.301,0.153 -1.305,-0.102 -1.261,-0.347 -1.176,-0.582 -1.043,-0.782 -0.883,-0.945 -0.691,-1.059 -0.485,-1.121 -0.273,-1.125 -0.062,-1.07 0.128,-0.969 0.297,-0.808 0.434,-0.614 0.527,-0.386 0.578,-0.141 0.578,0.113 0.536,0.364 0.445,0.589 0.312,0.793 0.149,0.95 -0.043,1.066 -0.25,1.121 -0.461,1.125 -0.672,1.067 -0.863,0.96 -1.028,0.801 -1.164,0.602 -1.253,0.375 -1.305,0.125 -1.301,-0.125 -1.254,-0.375 -1.164,-0.602 -1.027,-0.801 -0.864,-0.96 -0.671,-1.067 -0.461,-1.125 -0.25,-1.121 -0.043,-1.066 0.148,-0.95 0.313,-0.793 0.445,-0.589 0.535,-0.364 0.578,-0.113 0.578,0.141 0.528,0.386 0.433,0.614 0.297,0.808 0.129,0.969 -0.066,1.07 -0.27,1.125 -0.484,1.121 -0.692,1.059 -0.882,0.945 -1.043,0.782 -1.176,0.582 -1.262,0.347 -1.305,0.102 -1.3,-0.153 -1.247,-0.402 -1.152,-0.625 -1.012,-0.82 L 9.348,99.66 8.699,98.586 8.258,97.461 8.031,96.34 8.008,95.285 l 0.168,-0.937 0.328,-0.77 0.457,-0.57 0.543,-0.336 0.578,-0.09 0.578,0.168 0.516,0.41 0.422,0.637 0.281,0.832 0.109,0.976 -0.086,1.083 -0.293,1.124 -0.507,1.118 -0.711,1.05 -0.899,0.93 -1.062,0.762 -1.184,0.558 -1.269,0.325 -1.305,0.074 -1.297,-0.18 L 2.133,102.023 0.996,101.375 0,100.539"
         style="fill:none;stroke:#000000;stroke-width:0.9216;stroke-linecap:square;stroke-linejoin:miter;stroke-miterlimit:3.25;stroke-dasharray:none;stroke-opacity:1"
         id="path12" />
      <text
         xml:space="preserve"
         transform="translate(18.853295,128.41036)"
         style="font-variant:normal;font-size:21.12px;font-family:CairoFont-0;-inkscape-font-specification:CairoFont-0-0;writing-mode:lr-tb;fill:#000000;fill-opacity:1;fill-rule:nonzero;stroke:none"
         id="text16"><tspan
           x="0"
           y="0"
           id="tspan14">g</tspan></text>
      <path
         d="m 117.293,100.539 1,-0.84 1.137,-0.648 1.238,-0.422 1.297,-0.18 1.305,0.074 1.269,0.325 1.188,0.554 1.058,0.766 0.899,0.93 0.714,1.047 0.504,1.117 0.297,1.129 0.086,1.078 -0.113,0.98 -0.281,0.828 -0.418,0.637 -0.52,0.414 -0.574,0.164 -0.582,-0.086 -0.543,-0.336 -0.453,-0.57 -0.332,-0.773 -0.164,-0.938 0.019,-1.055 0.231,-1.117 0.437,-1.125 0.653,-1.078 0.843,-0.973 1.012,-0.82 1.148,-0.625 1.25,-0.398 1.297,-0.153 1.305,0.098 1.262,0.352 1.176,0.578 1.046,0.785 0.879,0.941 0.692,1.063 0.484,1.117 0.273,1.125 0.063,1.074 -0.129,0.965 -0.297,0.812 -0.433,0.614 -0.528,0.386 -0.574,0.141 -0.582,-0.113 -0.535,-0.363 -0.445,-0.59 -0.313,-0.793 -0.148,-0.953 0.043,-1.063 0.25,-1.121 0.464,-1.125 0.668,-1.066 0.864,-0.961 1.031,-0.801 1.16,-0.606 1.254,-0.371 1.305,-0.129 1.3,0.129 1.258,0.371 1.16,0.606 1.032,0.801 0.859,0.961 0.672,1.066 0.461,1.125 0.25,1.121 0.043,1.063 -0.149,0.953 -0.312,0.793 -0.445,0.59 -0.532,0.363 -0.582,0.113 -0.578,-0.141 -0.527,-0.386 -0.43,-0.614 -0.301,-0.812 -0.129,-0.965 0.067,-1.074 0.269,-1.125 0.489,-1.117 0.691,-1.063 0.879,-0.941 1.047,-0.785 1.172,-0.578 1.261,-0.352 1.305,-0.098 1.301,0.153 1.246,0.398 1.152,0.625 1.012,0.82 0.844,0.973 0.648,1.078 0.442,1.125 0.226,1.117 0.024,1.055 -0.168,0.938 -0.328,0.773 -0.457,0.57 -0.54,0.336 -0.582,0.086 -0.574,-0.164 -0.519,-0.414 -0.422,-0.637 -0.281,-0.828 -0.11,-0.98 0.086,-1.078 0.293,-1.129 0.508,-1.117 0.711,-1.047 0.902,-0.93 1.059,-0.766 1.187,-0.554 1.266,-0.325 1.309,-0.074 1.296,0.18 1.239,0.422 1.136,0.648 0.996,0.84"
         style="fill:none;stroke:#000000;stroke-width:0.9216;stroke-linecap:square;stroke-linejoin:miter;stroke-miterlimit:3.25;stroke-dasharray:none;stroke-opacity:1"
         id="path18" />
      <text
         xml:space="preserve"
         transform="translate(136.14784,87.884749)"
         style="font-variant:normal;font-size:21.12px;font-family:CairoFont-0;-inkscape-font-specification:CairoFont-0-0;writing-mode:lr-tb;fill:#000000;fill-opacity:1;fill-rule:nonzero;stroke:none"
         id="text22"><tspan
           x="0"
           y="0"
           id="tspan20">g</tspan></text>
      <path
         d="m 50.27,100.539 c -0.317,8.981 3.113,17.691 9.468,24.043 6.352,6.356 15.063,9.785 24.043,9.469"
         style="fill:none;stroke:#000000;stroke-width:0.9216;stroke-linecap:square;stroke-linejoin:miter;stroke-miterlimit:3.25;stroke-dasharray:none;stroke-opacity:1"
         id="path24" />
      <path
         d="m 63.289,128.137 -9.477,-4.739 4.739,-4.738 z"
         style="fill:#000000;fill-opacity:1;fill-rule:evenodd;stroke:none"
         id="path26" />
      <text
         xml:space="preserve"
         transform="translate(43.140475,148.65218)"
         style="font-variant:normal;font-size:21.12px;font-family:CairoFont-0;-inkscape-font-specification:CairoFont-0-0;writing-mode:lr-tb;fill:#000000;fill-opacity:1;fill-rule:nonzero;stroke:none"
         id="text30"><tspan
           x="0"
           y="0"
           id="tspan28">u</tspan></text>
      <path
         d="m 117.293,100.539 0.793,0.996 0.578,1.172 0.324,1.289 0.047,1.348 -0.234,1.332 -0.508,1.246 -0.75,1.094 -0.941,0.894 -1.082,0.66 -1.157,0.414 -1.179,0.176 -1.141,-0.035 -1.059,-0.211 -0.937,-0.348 -0.781,-0.437 -0.598,-0.488 -0.398,-0.493 -0.18,-0.472 0.035,-0.422 0.254,-0.352 0.453,-0.257 0.641,-0.153 0.793,-0.023 0.906,0.125 0.973,0.293 0.984,0.472 0.937,0.672 0.832,0.86 0.672,1.043 0.453,1.187 0.2,1.285 -0.075,1.328 -0.359,1.301 -0.625,1.199 -0.859,1.036 -1.043,0.82 -1.168,0.57 -1.231,0.305 -1.23,0.051 -1.18,-0.188 -1.082,-0.379 -0.949,-0.527 -0.793,-0.617 -0.613,-0.66 -0.43,-0.649 -0.234,-0.598 -0.04,-0.507 0.157,-0.399 0.34,-0.262 0.503,-0.113 0.649,0.043 0.758,0.215 0.82,0.391 0.832,0.57 0.793,0.75 0.688,0.918 0.535,1.07 0.324,1.192 0.078,1.265 -0.195,1.289 -0.469,1.242 -0.73,1.129 -0.957,0.957 -1.133,0.731 -1.243,0.473 -1.285,0.195 -1.269,-0.078 -1.192,-0.324 -1.07,-0.536 -0.918,-0.691 -0.75,-0.789 -0.57,-0.836 -0.387,-0.82 -0.215,-0.754 -0.047,-0.649 0.114,-0.508 0.261,-0.335 0.399,-0.157 0.512,0.039 0.597,0.235 0.649,0.426 0.656,0.617 0.621,0.793 0.523,0.949 0.383,1.078 0.184,1.18 -0.047,1.234 -0.305,1.231 -0.57,1.168 -0.824,1.042 -1.035,0.856 -1.2,0.629 -1.297,0.359 -1.328,0.074 -1.289,-0.199 -1.187,-0.457 -1.039,-0.668 -0.864,-0.832 -0.668,-0.937 -0.476,-0.985 -0.293,-0.972 -0.125,-0.907 0.023,-0.793 0.153,-0.64 0.261,-0.457 0.352,-0.25 0.422,-0.039 0.469,0.183 0.496,0.399 0.484,0.597 0.438,0.778 0.347,0.937 0.215,1.059 0.035,1.144 -0.179,1.18 -0.415,1.156 -0.66,1.082 -0.894,0.942 -1.094,0.746 -1.246,0.508 -1.332,0.238 -1.348,-0.047 -1.289,-0.324 -1.168,-0.578 -1,-0.793"
         style="fill:none;stroke:#000000;stroke-width:0.9216;stroke-linecap:square;stroke-linejoin:miter;stroke-miterlimit:3.25;stroke-dasharray:none;stroke-opacity:1"
         id="path32" />
      <text
         xml:space="preserve"
         transform="translate(111.57405,148.28354)"
         style="font-variant:normal;font-size:21.12px;font-family:CairoFont-0;-inkscape-font-specification:CairoFont-0-0;writing-mode:lr-tb;fill:#000000;fill-opacity:1;fill-rule:nonzero;stroke:none"
         id="text36"><tspan
           x="0"
           y="0"
           id="tspan34">g</tspan></text>
      <path
         d="m 83.781,67.027 v 67.024"
         style="fill:none;stroke:#000000;stroke-width:0.9216;stroke-linecap:square;stroke-linejoin:miter;stroke-miterlimit:3.25;stroke-dasharray:none;stroke-opacity:1"
         id="path38" />
      <path
         d="m 83.781,95.512 -3.351,10.054 h 6.703 z"
         style="fill:#000000;fill-opacity:1;fill-rule:evenodd;stroke:none"
         id="path40" />
      <text
         xml:space="preserve"
         transform="translate(91.700876,108.14756)"
         style="font-variant:normal;font-size:21.12px;font-family:CairoFont-0;-inkscape-font-specification:CairoFont-0-0;writing-mode:lr-tb;fill:#000000;fill-opacity:1;fill-rule:nonzero;stroke:none"
         id="text44"><tspan
           x="0"
           y="0"
           id="tspan42">u</tspan></text>
      <path
         d="M 83.781,67.027 C 74.84,66.848 66.211,70.32 59.887,76.645 53.562,82.969 50.09,91.598 50.27,100.539"
         style="fill:none;stroke:#000000;stroke-width:0.9216;stroke-linecap:square;stroke-linejoin:miter;stroke-miterlimit:3.25;stroke-dasharray:none;stroke-opacity:1"
         id="path46" />
      <path
         d="m 56.332,80.199 4.738,-9.48 4.742,4.738 z"
         style="fill:#000000;fill-opacity:1;fill-rule:evenodd;stroke:none"
         id="path48" />
      <text
         xml:space="preserve"
         transform="translate(43.291282,67.793739)"
         style="font-variant:normal;font-size:21.12px;font-family:CairoFont-0;-inkscape-font-specification:CairoFont-0-0;writing-mode:lr-tb;fill:#000000;fill-opacity:1;fill-rule:nonzero;stroke:none"
         id="text52"><tspan
           x="0"
           y="0"
           id="tspan50">u</tspan></text>
      <path
         d="m 117.293,100.539 0.793,-1 0.578,-1.168 0.324,-1.289 0.047,-1.348 -0.234,-1.332 -0.508,-1.246 -0.75,-1.094 -0.941,-0.894 -1.082,-0.66 -1.157,-0.414 -1.179,-0.18 -1.141,0.035 -1.059,0.215 -0.937,0.348 -0.781,0.437 -0.598,0.485 -0.398,0.496 -0.18,0.468 0.035,0.422 0.254,0.352 0.453,0.262 0.641,0.148 0.793,0.023 0.906,-0.121 0.973,-0.293 0.984,-0.476 0.937,-0.668 0.832,-0.863 0.672,-1.039 0.453,-1.188 0.2,-1.289 -0.075,-1.328 -0.359,-1.297 -0.625,-1.199 -0.859,-1.039 -1.043,-0.821 -1.168,-0.57 -1.231,-0.305 -1.23,-0.047 -1.18,0.184 -1.082,0.383 -0.949,0.523 -0.793,0.621 -0.613,0.657 -0.43,0.648 -0.234,0.598 -0.04,0.512 0.157,0.398 0.34,0.262 0.503,0.113 0.649,-0.047 0.758,-0.215 0.82,-0.39 0.832,-0.567 0.793,-0.75 0.688,-0.918 0.535,-1.07 0.324,-1.192 0.078,-1.269 -0.195,-1.285 -0.469,-1.242 -0.73,-1.133 -0.957,-0.957 -1.133,-0.731 -1.243,-0.468 -1.285,-0.196 -1.269,0.078 -1.192,0.325 -1.07,0.531 -0.918,0.691 -0.75,0.793 -0.57,0.832 -0.387,0.821 -0.215,0.757 -0.047,0.649 0.114,0.504 0.261,0.34 0.399,0.156 0.512,-0.039 0.597,-0.235 0.649,-0.429 0.656,-0.614 0.621,-0.793 0.523,-0.949 0.383,-1.082 0.184,-1.179 -0.047,-1.231 -0.305,-1.23 -0.57,-1.168 -0.824,-1.043 -1.035,-0.86 -1.2,-0.625 -1.297,-0.359 -1.328,-0.078 -1.289,0.203 -1.187,0.453 -1.039,0.672 -0.864,0.832 -0.668,0.937 -0.476,0.985 -0.293,0.972 -0.125,0.907 0.023,0.793 0.153,0.636 0.261,0.457 0.352,0.254 0.422,0.035 0.469,-0.179 0.496,-0.399 0.484,-0.597 0.438,-0.782 0.347,-0.937 0.215,-1.059 0.035,-1.14 -0.179,-1.18 -0.415,-1.16 -0.66,-1.078 -0.894,-0.942 -1.094,-0.75 -1.246,-0.507 -1.332,-0.239 -1.348,0.051 -1.289,0.324 -1.168,0.578 -1,0.793"
         style="fill:none;stroke:#000000;stroke-width:0.9216;stroke-linecap:square;stroke-linejoin:miter;stroke-miterlimit:3.25;stroke-dasharray:none;stroke-opacity:1"
         id="path54" />
      <text
         xml:space="preserve"
         transform="translate(111.57405,68.011572)"
         style="font-variant:normal;font-size:21.12px;font-family:CairoFont-0;-inkscape-font-specification:CairoFont-0-0;writing-mode:lr-tb;fill:#000000;fill-opacity:1;fill-rule:nonzero;stroke:none"
         id="text58"><tspan
           x="0"
           y="0"
           id="tspan56">g</tspan></text>
      <path
         d="m 87.469,67.027 c 0,0.977 -0.391,1.914 -1.082,2.606 -0.692,0.691 -1.629,1.078 -2.606,1.078 -0.976,0 -1.914,-0.387 -2.605,-1.078 -0.692,-0.692 -1.082,-1.629 -1.082,-2.606 0,-0.98 0.39,-1.918 1.082,-2.609 0.691,-0.691 1.629,-1.078 2.605,-1.078 0.977,0 1.914,0.387 2.606,1.078 0.691,0.691 1.082,1.629 1.082,2.609 z"
         style="fill:#000000;fill-opacity:1;fill-rule:evenodd;stroke:none"
         id="path60" />
      <path
         d="m 87.469,134.051 c 0,0.976 -0.391,1.914 -1.082,2.605 -0.692,0.692 -1.629,1.082 -2.606,1.082 -0.976,0 -1.914,-0.39 -2.605,-1.082 -0.692,-0.691 -1.082,-1.629 -1.082,-2.605 0,-0.977 0.39,-1.914 1.082,-2.606 0.691,-0.691 1.629,-1.082 2.605,-1.082 0.977,0 1.914,0.391 2.606,1.082 0.691,0.692 1.082,1.629 1.082,2.606 z"
         style="fill:#000000;fill-opacity:1;fill-rule:evenodd;stroke:none"
         id="path62" />
      <path
         d="m 53.957,100.539 c 0,0.977 -0.391,1.914 -1.082,2.606 -0.691,0.691 -1.629,1.078 -2.605,1.078 -0.977,0 -1.915,-0.387 -2.606,-1.078 -0.691,-0.692 -1.082,-1.629 -1.082,-2.606 0,-0.98 0.391,-1.918 1.082,-2.609 0.691,-0.692 1.629,-1.078 2.606,-1.078 0.976,0 1.914,0.386 2.605,1.078 0.691,0.691 1.082,1.629 1.082,2.609 z"
         style="fill:#000000;fill-opacity:1;fill-rule:evenodd;stroke:none"
         id="path64" />
      <path
         d="m 120.98,100.539 c 0,0.977 -0.386,1.914 -1.078,2.606 -0.691,0.691 -1.629,1.078 -2.609,1.078 -0.977,0 -1.914,-0.387 -2.605,-1.078 -0.692,-0.692 -1.079,-1.629 -1.079,-2.606 0,-0.98 0.387,-1.918 1.079,-2.609 0.691,-0.692 1.628,-1.078 2.605,-1.078 0.98,0 1.918,0.386 2.609,1.078 0.692,0.691 1.078,1.629 1.078,2.609 z"
         style="fill:#000000;fill-opacity:1;fill-rule:evenodd;stroke:none"
         id="path66" />
      <path
         d="m 234.59,100.539 -0.996,0.836 -1.141,0.648 -1.238,0.426 -1.297,0.18 -1.305,-0.074 -1.269,-0.325 -1.184,-0.558 -1.062,-0.762 -0.899,-0.93 -0.711,-1.05 -0.508,-1.118 -0.296,-1.124 -0.082,-1.083 0.109,-0.976 0.281,-0.832 0.418,-0.637 0.52,-0.41 0.574,-0.168 0.582,0.09 0.543,0.336 0.457,0.57 0.328,0.77 0.164,0.937 -0.019,1.055 -0.227,1.121 -0.441,1.125 -0.649,1.074 -0.844,0.973 -1.015,0.82 -1.149,0.625 -1.246,0.402 -1.3,0.153 -1.305,-0.102 -1.262,-0.347 -1.176,-0.582 -1.043,-0.782 -0.882,-0.945 -0.692,-1.059 -0.484,-1.121 -0.274,-1.125 -0.062,-1.07 0.129,-0.969 0.297,-0.808 0.433,-0.614 0.528,-0.386 0.578,-0.141 0.578,0.113 0.535,0.364 0.445,0.589 0.313,0.793 0.148,0.95 -0.043,1.066 -0.25,1.121 -0.465,1.125 -0.668,1.067 -0.863,0.96 -1.027,0.801 -1.164,0.602 -1.254,0.375 -1.305,0.125 -1.301,-0.125 -1.254,-0.375 -1.164,-0.602 -1.027,-0.801 -0.863,-0.96 -0.672,-1.067 -0.461,-1.125 -0.25,-1.121 -0.043,-1.066 0.148,-0.95 0.313,-0.793 0.445,-0.589 0.535,-0.364 0.579,-0.113 0.578,0.141 0.527,0.386 0.434,0.614 0.296,0.808 0.129,0.969 -0.066,1.07 -0.27,1.125 -0.484,1.121 -0.691,1.059 -0.883,0.945 -1.043,0.782 -1.176,0.582 -1.262,0.347 -1.304,0.102 -1.301,-0.153 -1.246,-0.402 -1.153,-0.625 -1.011,-0.82 -0.844,-0.973 -0.648,-1.074 -0.442,-1.125 -0.226,-1.121 -0.024,-1.055 0.168,-0.937 0.328,-0.77 0.457,-0.57 0.539,-0.336 0.582,-0.09 0.575,0.168 0.519,0.41 0.422,0.637 0.281,0.832 0.11,0.976 -0.086,1.083 -0.293,1.124 -0.508,1.118 -0.711,1.05 -0.899,0.93 -1.062,0.762 -1.184,0.558 -1.269,0.325 -1.309,0.074 -1.293,-0.18 -1.242,-0.426 -1.137,-0.648 -0.996,-0.836"
         style="fill:none;stroke:#000000;stroke-width:0.9216;stroke-linecap:square;stroke-linejoin:miter;stroke-miterlimit:3.25;stroke-dasharray:none;stroke-opacity:1"
         id="path68" />
      <text
         xml:space="preserve"
         transform="translate(203.17329,128.41036)"
         style="font-variant:normal;font-size:21.12px;font-family:CairoFont-0;-inkscape-font-specification:CairoFont-0-0;writing-mode:lr-tb;fill:#000000;fill-opacity:1;fill-rule:nonzero;stroke:none"
         id="text72"><tspan
           x="0"
           y="0"
           id="tspan70">g</tspan></text>
      <path
         d="m 301.613,100.539 1,-0.84 1.137,-0.648 1.238,-0.422 1.297,-0.18 1.305,0.074 1.269,0.325 1.188,0.554 1.058,0.766 0.899,0.93 0.715,1.047 0.504,1.117 0.297,1.129 0.085,1.078 -0.113,0.98 -0.281,0.828 -0.418,0.637 -0.52,0.414 -0.574,0.164 -0.582,-0.086 -0.543,-0.336 -0.453,-0.57 -0.332,-0.773 -0.164,-0.938 0.02,-1.055 0.23,-1.117 0.437,-1.125 0.653,-1.078 0.84,-0.973 1.015,-0.82 1.149,-0.625 1.25,-0.398 1.297,-0.153 1.304,0.098 1.262,0.352 1.176,0.578 1.043,0.785 0.883,0.941 0.691,1.063 0.484,1.117 0.274,1.125 0.062,1.074 -0.129,0.965 -0.296,0.812 -0.434,0.614 -0.527,0.386 -0.579,0.141 -0.578,-0.113 -0.535,-0.363 -0.445,-0.59 -0.313,-0.793 -0.148,-0.953 0.043,-1.063 0.25,-1.121 0.465,-1.125 0.668,-1.066 0.863,-0.961 1.031,-0.801 1.16,-0.606 1.254,-0.371 1.305,-0.129 1.301,0.129 1.254,0.371 1.164,0.606 1.027,0.801 0.863,0.961 0.672,1.066 0.461,1.125 0.25,1.121 0.043,1.063 -0.148,0.953 -0.313,0.793 -0.445,0.59 -0.531,0.363 -0.582,0.113 -0.578,-0.141 -0.528,-0.386 -0.43,-0.614 -0.3,-0.812 -0.129,-0.965 0.066,-1.074 0.27,-1.125 0.488,-1.117 0.691,-1.063 0.879,-0.941 1.047,-0.785 1.172,-0.578 1.262,-0.352 1.304,-0.098 1.301,0.153 1.246,0.398 1.153,0.625 1.011,0.82 0.844,0.973 0.649,1.078 0.441,1.125 0.227,1.117 0.023,1.055 -0.168,0.938 -0.328,0.773 -0.457,0.57 -0.539,0.336 -0.582,0.086 -0.574,-0.164 -0.52,-0.414 -0.422,-0.637 -0.281,-0.828 -0.109,-0.98 0.085,-1.078 0.293,-1.129 0.508,-1.117 0.711,-1.047 0.903,-0.93 1.058,-0.766 1.184,-0.554 1.269,-0.325 1.309,-0.074 1.297,0.18 1.238,0.422 1.137,0.648 0.996,0.84"
         style="fill:none;stroke:#000000;stroke-width:0.9216;stroke-linecap:square;stroke-linejoin:miter;stroke-miterlimit:3.25;stroke-dasharray:none;stroke-opacity:1"
         id="path74" />
      <text
         xml:space="preserve"
         transform="translate(320.46784,87.884749)"
         style="font-variant:normal;font-size:21.12px;font-family:CairoFont-0;-inkscape-font-specification:CairoFont-0-0;writing-mode:lr-tb;fill:#000000;fill-opacity:1;fill-rule:nonzero;stroke:none"
         id="text78"><tspan
           x="0"
           y="0"
           id="tspan76">g</tspan></text>
      <path
         d="m 234.59,100.539 -0.824,0.965 -0.618,1.141 -0.371,1.273 -0.097,1.344 0.187,1.336 0.457,1.261 0.699,1.121 0.903,0.93 1.047,0.703 1.136,0.461 1.164,0.227 1.141,0.011 1.066,-0.171 0.954,-0.309 0.804,-0.402 0.629,-0.461 0.434,-0.473 0.222,-0.461 0.008,-0.422 -0.207,-0.355 -0.41,-0.278 -0.602,-0.179 -0.757,-0.059 -0.883,0.078 -0.961,0.235 -0.988,0.41 -0.961,0.605 -0.871,0.797 -0.727,0.981 -0.527,1.14 -0.285,1.258 -0.02,1.32 0.266,1.313 0.539,1.242 0.777,1.094 0.984,0.898 1.125,0.657 1.207,0.398 1.227,0.141 1.195,-0.106 1.114,-0.308 0.992,-0.469 0.847,-0.582 0.68,-0.637 0.496,-0.645 0.313,-0.609 0.117,-0.535 -0.074,-0.434 -0.262,-0.308 -0.434,-0.172 -0.586,-0.02 -0.707,0.145 -0.793,0.309 -0.832,0.488 -0.812,0.66 -0.742,0.836 -0.614,0.992 -0.429,1.133 -0.199,1.23 0.062,1.282 0.332,1.265 0.606,1.192 0.847,1.05 1.051,0.848 1.187,0.602 1.27,0.336 1.281,0.062 1.231,-0.199 1.129,-0.43 0.996,-0.613 0.836,-0.742 0.66,-0.813 0.484,-0.832 0.313,-0.793 0.14,-0.707 -0.015,-0.586 -0.172,-0.433 -0.309,-0.262 -0.433,-0.074 -0.535,0.117 -0.61,0.312 -0.644,0.496 -0.637,0.68 -0.582,0.848 -0.469,0.992 -0.312,1.113 -0.102,1.196 0.141,1.226 0.398,1.207 0.656,1.125 0.899,0.981 1.094,0.781 1.238,0.539 1.316,0.262 1.321,-0.016 1.257,-0.285 1.141,-0.527 0.98,-0.727 0.797,-0.875 0.602,-0.957 0.414,-0.988 0.234,-0.961 0.078,-0.883 -0.062,-0.758 -0.176,-0.601 -0.277,-0.415 -0.356,-0.207 -0.422,0.008 -0.46,0.227 -0.473,0.433 -0.461,0.629 -0.402,0.805 -0.309,0.949 -0.172,1.071 0.012,1.136 0.226,1.168 0.461,1.133 0.703,1.051 0.93,0.898 1.121,0.703 1.262,0.457 1.336,0.184 1.34,-0.098 1.273,-0.371 1.145,-0.617 0.965,-0.82"
         style="fill:none;stroke:#000000;stroke-width:0.9216;stroke-linecap:square;stroke-linejoin:miter;stroke-miterlimit:3.25;stroke-dasharray:none;stroke-opacity:1"
         id="path80" />
    </g>
    <g
       id="g82">
      <g
         id="g84"
         clip-path="url(#clipPath88)">
        <text
           xml:space="preserve"
           transform="translate(227.37844,148.65218)"
           style="font-variant:normal;font-size:21.12px;font-family:CairoFont-0;-inkscape-font-specification:CairoFont-0-0;writing-mode:lr-tb;fill:#000000;fill-opacity:1;fill-rule:nonzero;stroke:none"
           id="text92"><tspan
             x="0"
             y="0"
             id="tspan90">g</tspan></text>
      </g>
    </g>
    <g
       id="g94">
      <path
         d="m 268.102,134.051 c 18.492,-0.039 33.476,-15.02 33.511,-33.512"
         style="fill:none;stroke:#000000;stroke-width:0.9216;stroke-linecap:square;stroke-linejoin:miter;stroke-miterlimit:3.25;stroke-dasharray:none;stroke-opacity:1"
         id="path96" />
      <path
         d="m 288.223,127.77 9.48,-4.739 -4.738,-4.742 z"
         style="fill:#000000;fill-opacity:1;fill-rule:evenodd;stroke:none"
         id="path98" />
      <text
         xml:space="preserve"
         transform="translate(295.89405,148.28354)"
         style="font-variant:normal;font-size:21.12px;font-family:CairoFont-0;-inkscape-font-specification:CairoFont-0-0;writing-mode:lr-tb;fill:#000000;fill-opacity:1;fill-rule:nonzero;stroke:none"
         id="text102"><tspan
           x="0"
           y="0"
           id="tspan100">u</tspan></text>
      <path
         d="m 268.102,67.027 v 67.024"
         style="fill:none;stroke:#000000;stroke-width:0.9216;stroke-linecap:square;stroke-linejoin:miter;stroke-miterlimit:3.25;stroke-dasharray:none;stroke-opacity:1"
         id="path104" />
      <path
         d="m 268.102,95.512 -3.352,10.054 h 6.703 z"
         style="fill:#000000;fill-opacity:1;fill-rule:evenodd;stroke:none"
         id="path106" />
      <text
         xml:space="preserve"
         transform="translate(276.02088,108.14756)"
         style="font-variant:normal;font-size:21.12px;font-family:CairoFont-0;-inkscape-font-specification:CairoFont-0-0;writing-mode:lr-tb;fill:#000000;fill-opacity:1;fill-rule:nonzero;stroke:none"
         id="text110"><tspan
           x="0"
           y="0"
           id="tspan108">u</tspan></text>
      <path
         d="m 234.59,100.539 -0.809,-0.977 -0.601,-1.148 -0.352,-1.277 -0.082,-1.336 0.203,-1.332 0.473,-1.254 0.711,-1.113 0.914,-0.914 1.055,-0.692 1.136,-0.449 1.168,-0.211 h 1.141 l 1.062,0.18 0.95,0.32 0.8,0.41 0.625,0.469 0.426,0.48 0.223,0.465 v 0.426 l -0.211,0.355 -0.414,0.278 -0.606,0.176 -0.757,0.054 -0.883,-0.086 -0.957,-0.242 -0.985,-0.422 -0.957,-0.613 -0.863,-0.801 -0.719,-0.988 -0.515,-1.145 -0.278,-1.257 -0.008,-1.317 0.274,-1.308 0.543,-1.235 0.785,-1.086 0.984,-0.89 1.125,-0.653 1.207,-0.39 1.231,-0.133 1.191,0.109 1.114,0.313 0.988,0.476 0.844,0.582 0.679,0.641 0.496,0.648 0.305,0.614 0.113,0.535 -0.074,0.437 -0.265,0.309 -0.434,0.172 -0.59,0.019 -0.711,-0.14 -0.789,-0.313 -0.832,-0.488 -0.812,-0.664 -0.739,-0.836 -0.609,-0.996 -0.426,-1.133 -0.199,-1.227 0.062,-1.281 0.336,-1.265 0.602,-1.188 0.848,-1.043 1.046,-0.848 1.188,-0.605 1.266,-0.332 1.277,-0.063 1.23,0.196 1.129,0.426 0.996,0.609 0.84,0.742 0.66,0.813 0.489,0.828 0.312,0.793 0.141,0.711 -0.016,0.586 -0.172,0.437 -0.312,0.262 -0.434,0.078 -0.539,-0.113 -0.613,-0.309 -0.649,-0.496 -0.64,-0.676 -0.582,-0.844 -0.477,-0.992 -0.312,-1.109 -0.11,-1.192 0.133,-1.23 0.395,-1.207 0.648,-1.125 0.891,-0.984 1.09,-0.79 1.23,-0.542 1.309,-0.274 1.316,0.008 1.262,0.277 1.14,0.52 0.989,0.719 0.804,0.863 0.61,0.953 0.422,0.984 0.246,0.961 0.082,0.883 -0.055,0.758 -0.176,0.601 -0.273,0.418 -0.36,0.211 -0.421,-0.004 -0.465,-0.218 -0.485,-0.426 -0.465,-0.625 -0.414,-0.801 -0.32,-0.949 -0.18,-1.063 v -1.14 l 0.215,-1.168 0.446,-1.141 0.691,-1.055 0.918,-0.91 1.109,-0.711 1.254,-0.472 1.332,-0.203 1.34,0.082 1.274,0.351 1.152,0.602 0.973,0.808"
         style="fill:none;stroke:#000000;stroke-width:0.9216;stroke-linecap:square;stroke-linejoin:miter;stroke-miterlimit:3.25;stroke-dasharray:none;stroke-opacity:1"
         id="path112" />
    </g>
    <g
       id="g114">
      <g
         id="g116"
         clip-path="url(#clipPath120)">
        <text
           xml:space="preserve"
           transform="translate(227.52925,67.793739)"
           style="font-variant:normal;font-size:21.12px;font-family:CairoFont-0;-inkscape-font-specification:CairoFont-0-0;writing-mode:lr-tb;fill:#000000;fill-opacity:1;fill-rule:nonzero;stroke:none"
           id="text124"><tspan
             x="0"
             y="0"
             id="tspan122">g</tspan></text>
      </g>
    </g>
    <g
       id="g126">
      <path
         d="M 301.613,100.539 C 301.578,82.047 286.594,67.062 268.102,67.027"
         style="fill:none;stroke:#000000;stroke-width:0.9216;stroke-linecap:square;stroke-linejoin:miter;stroke-miterlimit:3.25;stroke-dasharray:none;stroke-opacity:1"
         id="path128" />
      <path
         d="m 295.332,80.414 -4.738,-9.476 -4.739,4.738 z"
         style="fill:#000000;fill-opacity:1;fill-rule:evenodd;stroke:none"
         id="path130" />
      <text
         xml:space="preserve"
         transform="translate(295.89405,68.011572)"
         style="font-variant:normal;font-size:21.12px;font-family:CairoFont-0;-inkscape-font-specification:CairoFont-0-0;writing-mode:lr-tb;fill:#000000;fill-opacity:1;fill-rule:nonzero;stroke:none"
         id="text134"><tspan
           x="0"
           y="0"
           id="tspan132">u</tspan></text>
      <path
         d="m 271.789,67.027 c 0,0.977 -0.391,1.914 -1.082,2.606 -0.691,0.691 -1.629,1.078 -2.605,1.078 -0.977,0 -1.914,-0.387 -2.606,-1.078 -0.691,-0.692 -1.082,-1.629 -1.082,-2.606 0,-0.98 0.391,-1.918 1.082,-2.609 0.692,-0.691 1.629,-1.078 2.606,-1.078 0.976,0 1.914,0.387 2.605,1.078 0.691,0.691 1.082,1.629 1.082,2.609 z"
         style="fill:#000000;fill-opacity:1;fill-rule:evenodd;stroke:none"
         id="path136" />
      <path
         d="m 271.789,134.051 c 0,0.976 -0.391,1.914 -1.082,2.605 -0.691,0.692 -1.629,1.082 -2.605,1.082 -0.977,0 -1.914,-0.39 -2.606,-1.082 -0.691,-0.691 -1.082,-1.629 -1.082,-2.605 0,-0.977 0.391,-1.914 1.082,-2.606 0.692,-0.691 1.629,-1.082 2.606,-1.082 0.976,0 1.914,0.391 2.605,1.082 0.691,0.692 1.082,1.629 1.082,2.606 z"
         style="fill:#000000;fill-opacity:1;fill-rule:evenodd;stroke:none"
         id="path138" />
      <path
         d="m 238.277,100.539 c 0,0.977 -0.39,1.914 -1.082,2.606 -0.691,0.691 -1.629,1.078 -2.605,1.078 -0.977,0 -1.918,-0.387 -2.61,-1.078 -0.687,-0.692 -1.078,-1.629 -1.078,-2.606 0,-0.98 0.391,-1.918 1.078,-2.609 0.692,-0.692 1.633,-1.078 2.61,-1.078 0.976,0 1.914,0.386 2.605,1.078 0.692,0.691 1.082,1.629 1.082,2.609 z"
         style="fill:#000000;fill-opacity:1;fill-rule:evenodd;stroke:none"
         id="path140" />
      <path
         d="m 305.301,100.539 c 0,0.977 -0.387,1.914 -1.078,2.606 -0.692,0.691 -1.629,1.078 -2.61,1.078 -0.976,0 -1.914,-0.387 -2.605,-1.078 -0.692,-0.692 -1.078,-1.629 -1.078,-2.606 0,-0.98 0.386,-1.918 1.078,-2.609 0.691,-0.692 1.629,-1.078 2.605,-1.078 0.981,0 1.918,0.386 2.61,1.078 0.691,0.691 1.078,1.629 1.078,2.609 z"
         style="fill:#000000;fill-opacity:1;fill-rule:evenodd;stroke:none"
         id="path142" />
      <path
         d="m 418.91,100.539 -0.996,0.836 -1.141,0.648 -1.238,0.426 -1.297,0.18 -1.304,-0.074 -1.27,-0.325 -1.184,-0.558 -1.062,-0.762 -0.898,-0.93 -0.715,-1.05 -0.504,-1.118 -0.297,-1.124 -0.082,-1.083 0.109,-0.976 0.281,-0.832 0.418,-0.637 0.52,-0.41 0.574,-0.168 0.582,0.09 0.543,0.336 0.457,0.57 0.328,0.77 0.164,0.937 -0.019,1.055 -0.231,1.121 -0.437,1.125 -0.649,1.074 -0.843,0.973 -1.016,0.82 -1.148,0.625 -1.25,0.402 -1.297,0.153 -1.305,-0.102 -1.262,-0.347 -1.175,-0.582 -1.043,-0.782 -0.883,-0.945 -0.692,-1.059 -0.484,-1.121 -0.273,-1.125 -0.063,-1.07 0.129,-0.969 0.297,-0.808 0.434,-0.614 0.527,-0.386 0.578,-0.141 0.578,0.113 0.535,0.364 0.446,0.589 0.312,0.793 0.148,0.95 -0.042,1.066 -0.25,1.121 -0.465,1.125 -0.668,1.067 -0.864,0.96 -1.027,0.801 -1.164,0.602 -1.254,0.375 -1.305,0.125 -1.3,-0.125 -1.254,-0.375 -1.164,-0.602 -1.028,-0.801 -0.863,-0.96 -0.672,-1.067 -0.461,-1.125 -0.25,-1.121 -0.043,-1.066 0.149,-0.95 0.312,-0.793 0.446,-0.589 0.535,-0.364 0.578,-0.113 0.578,0.141 0.527,0.386 0.43,0.614 0.301,0.808 0.129,0.969 -0.067,1.07 -0.269,1.125 -0.485,1.121 -0.691,1.059 -0.883,0.945 -1.047,0.782 -1.172,0.582 -1.261,0.347 -1.305,0.102 -1.301,-0.153 -1.246,-0.402 -1.152,-0.625 -1.012,-0.82 -0.844,-0.973 -0.648,-1.074 -0.442,-1.125 -0.226,-1.121 -0.024,-1.055 0.168,-0.937 0.329,-0.77 0.457,-0.57 0.539,-0.336 0.582,-0.09 0.574,0.168 0.519,0.41 0.422,0.637 0.282,0.832 0.109,0.976 -0.086,1.083 -0.293,1.124 -0.508,1.118 -0.711,1.05 -0.902,0.93 -1.059,0.762 -1.183,0.558 -1.27,0.325 -1.308,0.074 -1.297,-0.18 -1.239,-0.426 -1.136,-0.648 -0.996,-0.836"
         style="fill:none;stroke:#000000;stroke-width:0.9216;stroke-linecap:square;stroke-linejoin:miter;stroke-miterlimit:3.25;stroke-dasharray:none;stroke-opacity:1"
         id="path144" />
      <text
         xml:space="preserve"
         transform="translate(387.49329,128.41036)"
         style="font-variant:normal;font-size:21.12px;font-family:CairoFont-0;-inkscape-font-specification:CairoFont-0-0;writing-mode:lr-tb;fill:#000000;fill-opacity:1;fill-rule:nonzero;stroke:none"
         id="text148"><tspan
           x="0"
           y="0"
           id="tspan146">g</tspan></text>
      <path
         d="m 485.934,100.539 0.996,-0.84 1.14,-0.648 1.239,-0.422 1.296,-0.18 1.305,0.074 1.27,0.325 1.183,0.554 1.063,0.766 0.898,0.93 0.711,1.047 0.508,1.117 0.297,1.129 0.082,1.078 -0.11,0.98 -0.281,0.828 -0.418,0.637 -0.519,0.414 -0.574,0.164 -0.582,-0.086 -0.543,-0.336 -0.457,-0.57 -0.329,-0.773 -0.164,-0.938 0.02,-1.055 0.23,-1.117 0.438,-1.125 0.648,-1.078 0.844,-0.973 1.016,-0.82 1.148,-0.625 1.246,-0.398 1.301,-0.153 1.305,0.098 1.261,0.352 1.176,0.578 1.043,0.785 0.883,0.941 0.691,1.063 0.485,1.117 0.273,1.125 0.063,1.074 -0.129,0.965 -0.297,0.812 -0.434,0.614 -0.527,0.386 -0.578,0.141 -0.578,-0.113 -0.535,-0.363 -0.446,-0.59 -0.312,-0.793 -0.149,-0.953 0.043,-1.063 0.25,-1.121 0.465,-1.125 0.668,-1.066 0.863,-0.961 1.028,-0.801 1.164,-0.606 1.254,-0.371 1.304,-0.129 1.301,0.129 1.254,0.371 1.164,0.606 1.027,0.801 0.864,0.961 0.672,1.066 0.46,1.125 0.25,1.121 0.043,1.063 -0.148,0.953 -0.312,0.793 -0.446,0.59 -0.535,0.363 -0.578,0.113 -0.578,-0.141 -0.528,-0.386 -0.433,-0.614 -0.297,-0.812 -0.129,-0.965 0.067,-1.074 0.269,-1.125 0.484,-1.117 0.692,-1.063 0.883,-0.941 1.046,-0.785 1.172,-0.578 1.262,-0.352 1.305,-0.098 1.301,0.153 1.246,0.398 1.152,0.625 1.012,0.82 0.843,0.973 0.649,1.078 0.441,1.125 0.227,1.117 0.023,1.055 -0.168,0.938 -0.328,0.773 -0.457,0.57 -0.539,0.336 -0.582,0.086 -0.574,-0.164 -0.52,-0.414 -0.422,-0.637 -0.281,-0.828 -0.109,-0.98 0.086,-1.078 0.293,-1.129 0.508,-1.117 0.71,-1.047 0.903,-0.93 1.058,-0.766 1.184,-0.554 1.27,-0.325 1.308,-0.074 1.293,0.18 1.242,0.422 1.137,0.648 0.996,0.84"
         style="fill:none;stroke:#000000;stroke-width:0.9216;stroke-linecap:square;stroke-linejoin:miter;stroke-miterlimit:3.25;stroke-dasharray:none;stroke-opacity:1"
         id="path150" />
      <text
         xml:space="preserve"
         transform="translate(504.78784,87.884749)"
         style="font-variant:normal;font-size:21.12px;font-family:CairoFont-0;-inkscape-font-specification:CairoFont-0-0;writing-mode:lr-tb;fill:#000000;fill-opacity:1;fill-rule:nonzero;stroke:none"
         id="text154"><tspan
           x="0"
           y="0"
           id="tspan152">g</tspan></text>
      <path
         d="m 418.91,100.539 c -0.316,8.981 3.113,17.691 9.465,24.043 6.355,6.356 15.066,9.785 24.047,9.469"
         style="fill:none;stroke:#000000;stroke-width:0.9216;stroke-linecap:butt;stroke-linejoin:miter;stroke-miterlimit:3.25;stroke-dasharray:0.9216, 5.5296;stroke-dashoffset:0;stroke-opacity:1"
         id="path156" />
      <path
         d="m 431.93,128.137 -9.477,-4.739 4.738,-4.738 z"
         style="fill:#000000;fill-opacity:1;fill-rule:evenodd;stroke:none"
         id="path158" />
      <text
         xml:space="preserve"
         transform="translate(403.25251,140.67952)"
         style="font-variant:normal;font-size:21.12px;font-family:CairoFont-0;-inkscape-font-specification:CairoFont-0-0;writing-mode:lr-tb;fill:#000000;fill-opacity:1;fill-rule:nonzero;stroke:none"
         id="text162"><tspan
           x="0"
           y="0"
           id="tspan160">u</tspan></text>
      <text
         xml:space="preserve"
         transform="translate(414.92438,144.59945)"
         style="font-variant:normal;font-size:14.88px;font-family:CairoFont-0;-inkscape-font-specification:CairoFont-0-0;writing-mode:lr-tb;fill:#000000;fill-opacity:1;fill-rule:nonzero;stroke:none"
         id="text166"><tspan
           x="0"
           y="0"
           id="tspan164">g</tspan></text>
      <path
         d="m 485.934,100.539 0.793,0.996 0.578,1.172 0.324,1.289 0.047,1.348 -0.235,1.332 -0.511,1.246 -0.746,1.094 -0.942,0.894 -1.082,0.66 -1.156,0.414 -1.18,0.176 -1.14,-0.035 -1.063,-0.211 -0.933,-0.348 -0.782,-0.437 -0.597,-0.488 -0.399,-0.493 -0.183,-0.472 0.039,-0.422 0.25,-0.352 0.457,-0.257 0.64,-0.153 0.793,-0.023 0.906,0.125 0.973,0.293 0.985,0.472 0.937,0.672 0.832,0.86 0.668,1.043 0.457,1.187 0.199,1.285 -0.074,1.328 -0.359,1.301 -0.625,1.199 -0.86,1.036 -1.043,0.82 -1.168,0.57 -1.23,0.305 -1.231,0.051 -1.179,-0.188 -1.082,-0.379 -0.95,-0.527 -0.792,-0.617 -0.614,-0.66 -0.429,-0.649 -0.235,-0.598 -0.039,-0.507 0.156,-0.399 0.34,-0.262 0.504,-0.113 0.649,0.043 0.757,0.215 0.817,0.391 0.836,0.57 0.789,0.75 0.691,0.918 0.535,1.07 0.325,1.192 0.078,1.265 -0.196,1.289 -0.468,1.242 -0.735,1.129 -0.957,0.957 -1.129,0.731 -1.242,0.473 -1.289,0.195 -1.266,-0.078 -1.191,-0.324 -1.07,-0.536 -0.918,-0.691 -0.75,-0.789 -0.571,-0.836 -0.39,-0.82 -0.211,-0.754 -0.047,-0.649 0.113,-0.508 0.262,-0.335 0.398,-0.157 0.508,0.039 0.598,0.235 0.652,0.426 0.657,0.617 0.621,0.793 0.523,0.949 0.379,1.078 0.187,1.18 -0.046,1.234 -0.309,1.231 -0.57,1.168 -0.821,1.042 -1.035,0.856 -1.199,0.629 -1.301,0.359 -1.324,0.074 -1.289,-0.199 -1.188,-0.457 -1.039,-0.668 -0.863,-0.832 -0.668,-0.937 -0.476,-0.985 -0.293,-0.972 -0.125,-0.907 0.023,-0.793 0.152,-0.64 0.262,-0.457 0.348,-0.25 0.422,-0.039 0.472,0.183 0.496,0.399 0.485,0.597 0.437,0.778 0.348,0.937 0.211,1.059 0.039,1.144 -0.18,1.18 -0.414,1.156 -0.66,1.082 -0.895,0.942 -1.093,0.746 -1.246,0.508 -1.332,0.238 -1.348,-0.047 -1.289,-0.324 -1.172,-0.578 -0.996,-0.793"
         style="fill:none;stroke:#000000;stroke-width:0.9216;stroke-linecap:square;stroke-linejoin:miter;stroke-miterlimit:3.25;stroke-dasharray:none;stroke-opacity:1"
         id="path168" />
      <text
         xml:space="preserve"
         transform="translate(480.21405,148.28354)"
         style="font-variant:normal;font-size:21.12px;font-family:CairoFont-0;-inkscape-font-specification:CairoFont-0-0;writing-mode:lr-tb;fill:#000000;fill-opacity:1;fill-rule:nonzero;stroke:none"
         id="text172"><tspan
           x="0"
           y="0"
           id="tspan170">g</tspan></text>
      <path
         d="m 452.422,67.027 v 67.024"
         style="fill:none;stroke:#000000;stroke-width:0.9216;stroke-linecap:butt;stroke-linejoin:miter;stroke-miterlimit:3.25;stroke-dasharray:0.9216, 5.5296;stroke-dashoffset:0;stroke-opacity:1"
         id="path174" />
      <path
         d="m 452.422,95.512 -3.352,10.054 h 6.703 z"
         style="fill:#000000;fill-opacity:1;fill-rule:evenodd;stroke:none"
         id="path176" />
      <text
         xml:space="preserve"
         transform="translate(460.34088,102.41025)"
         style="font-variant:normal;font-size:21.12px;font-family:CairoFont-0;-inkscape-font-specification:CairoFont-0-0;writing-mode:lr-tb;fill:#000000;fill-opacity:1;fill-rule:nonzero;stroke:none"
         id="text180"><tspan
           x="0"
           y="0"
           id="tspan178">u</tspan></text>
      <text
         xml:space="preserve"
         transform="translate(472.01275,106.33017)"
         style="font-variant:normal;font-size:14.88px;font-family:CairoFont-0;-inkscape-font-specification:CairoFont-0-0;writing-mode:lr-tb;fill:#000000;fill-opacity:1;fill-rule:nonzero;stroke:none"
         id="text184"><tspan
           x="0"
           y="0"
           id="tspan182">g</tspan></text>
      <path
         d="m 452.422,67.027 c -8.942,-0.179 -17.57,3.293 -23.895,9.618 -6.324,6.324 -9.797,14.953 -9.617,23.894"
         style="fill:none;stroke:#000000;stroke-width:0.9216;stroke-linecap:butt;stroke-linejoin:miter;stroke-miterlimit:3.25;stroke-dasharray:0.9216, 5.5296;stroke-dashoffset:0;stroke-opacity:1"
         id="path186" />
      <path
         d="m 424.973,80.199 4.738,-9.48 4.742,4.738 z"
         style="fill:#000000;fill-opacity:1;fill-rule:evenodd;stroke:none"
         id="path188" />
      <text
         xml:space="preserve"
         transform="translate(403.40331,64.291786)"
         style="font-variant:normal;font-size:21.12px;font-family:CairoFont-0;-inkscape-font-specification:CairoFont-0-0;writing-mode:lr-tb;fill:#000000;fill-opacity:1;fill-rule:nonzero;stroke:none"
         id="text192"><tspan
           x="0"
           y="0"
           id="tspan190">u</tspan></text>
      <text
         xml:space="preserve"
         transform="translate(415.07519,68.211708)"
         style="font-variant:normal;font-size:14.88px;font-family:CairoFont-0;-inkscape-font-specification:CairoFont-0-0;writing-mode:lr-tb;fill:#000000;fill-opacity:1;fill-rule:nonzero;stroke:none"
         id="text196"><tspan
           x="0"
           y="0"
           id="tspan194">g</tspan></text>
      <path
         d="m 485.934,100.539 0.793,-1 0.578,-1.168 0.324,-1.289 0.047,-1.348 -0.235,-1.332 -0.511,-1.246 -0.746,-1.094 -0.942,-0.894 -1.082,-0.66 -1.156,-0.414 -1.18,-0.18 -1.14,0.035 -1.063,0.215 -0.933,0.348 -0.782,0.437 -0.597,0.485 -0.399,0.496 -0.183,0.468 0.039,0.422 0.25,0.352 0.457,0.262 0.64,0.148 0.793,0.023 0.906,-0.121 0.973,-0.293 0.985,-0.476 0.937,-0.668 0.832,-0.863 0.668,-1.039 0.457,-1.188 0.199,-1.289 -0.074,-1.328 -0.359,-1.297 -0.625,-1.199 -0.86,-1.039 -1.043,-0.821 -1.168,-0.57 -1.23,-0.305 -1.231,-0.047 -1.179,0.184 -1.082,0.383 -0.95,0.523 -0.792,0.621 -0.614,0.657 -0.429,0.648 -0.235,0.598 -0.039,0.512 0.156,0.398 0.34,0.262 0.504,0.113 0.649,-0.047 0.757,-0.215 0.817,-0.39 0.836,-0.567 0.789,-0.75 0.691,-0.918 0.535,-1.07 0.325,-1.192 0.078,-1.269 -0.196,-1.285 -0.468,-1.242 -0.735,-1.133 -0.957,-0.957 -1.129,-0.731 -1.242,-0.468 -1.289,-0.196 -1.266,0.078 -1.191,0.325 -1.07,0.531 -0.918,0.691 -0.75,0.793 -0.571,0.832 -0.39,0.821 -0.211,0.757 -0.047,0.649 0.113,0.504 0.262,0.34 0.398,0.156 0.508,-0.039 0.598,-0.235 0.652,-0.429 0.657,-0.614 0.621,-0.793 0.523,-0.949 0.379,-1.082 0.187,-1.179 -0.046,-1.231 -0.309,-1.23 -0.57,-1.168 -0.821,-1.043 -1.035,-0.86 -1.199,-0.625 -1.301,-0.359 -1.324,-0.078 -1.289,0.203 -1.188,0.453 -1.039,0.672 -0.863,0.832 -0.668,0.937 -0.476,0.985 -0.293,0.972 -0.125,0.907 0.023,0.793 0.152,0.636 0.262,0.457 0.348,0.254 0.422,0.035 0.472,-0.179 0.496,-0.399 0.485,-0.597 0.437,-0.782 0.348,-0.937 0.211,-1.059 0.039,-1.14 -0.18,-1.18 -0.414,-1.16 -0.66,-1.078 -0.895,-0.942 -1.093,-0.75 -1.246,-0.507 -1.332,-0.239 -1.348,0.051 -1.289,0.324 -1.172,0.578 -0.996,0.793"
         style="fill:none;stroke:#000000;stroke-width:0.9216;stroke-linecap:square;stroke-linejoin:miter;stroke-miterlimit:3.25;stroke-dasharray:none;stroke-opacity:1"
         id="path198" />
      <text
         xml:space="preserve"
         transform="translate(480.21405,68.011572)"
         style="font-variant:normal;font-size:21.12px;font-family:CairoFont-0;-inkscape-font-specification:CairoFont-0-0;writing-mode:lr-tb;fill:#000000;fill-opacity:1;fill-rule:nonzero;stroke:none"
         id="text202"><tspan
           x="0"
           y="0"
           id="tspan200">g</tspan></text>
      <path
         d="m 456.109,67.027 c 0,0.977 -0.39,1.914 -1.082,2.606 -0.691,0.691 -1.629,1.078 -2.605,1.078 -0.977,0 -1.914,-0.387 -2.606,-1.078 -0.691,-0.692 -1.082,-1.629 -1.082,-2.606 0,-0.98 0.391,-1.918 1.082,-2.609 0.692,-0.691 1.629,-1.078 2.606,-1.078 0.976,0 1.914,0.387 2.605,1.078 0.692,0.691 1.082,1.629 1.082,2.609 z"
         style="fill:#000000;fill-opacity:1;fill-rule:evenodd;stroke:none"
         id="path204" />
      <path
         d="m 456.109,134.051 c 0,0.976 -0.39,1.914 -1.082,2.605 -0.691,0.692 -1.629,1.082 -2.605,1.082 -0.977,0 -1.914,-0.39 -2.606,-1.082 -0.691,-0.691 -1.082,-1.629 -1.082,-2.605 0,-0.977 0.391,-1.914 1.082,-2.606 0.692,-0.691 1.629,-1.082 2.606,-1.082 0.976,0 1.914,0.391 2.605,1.082 0.692,0.692 1.082,1.629 1.082,2.606 z"
         style="fill:#000000;fill-opacity:1;fill-rule:evenodd;stroke:none"
         id="path206" />
      <path
         d="m 422.594,100.539 c 0,0.977 -0.387,1.914 -1.078,2.606 -0.692,0.691 -1.629,1.078 -2.606,1.078 -0.98,0 -1.918,-0.387 -2.609,-1.078 -0.692,-0.692 -1.078,-1.629 -1.078,-2.606 0,-0.98 0.386,-1.918 1.078,-2.609 0.691,-0.692 1.629,-1.078 2.609,-1.078 0.977,0 1.914,0.386 2.606,1.078 0.691,0.691 1.078,1.629 1.078,2.609 z"
         style="fill:#000000;fill-opacity:1;fill-rule:evenodd;stroke:none"
         id="path208" />
      <path
         d="m 489.621,100.539 c 0,0.977 -0.387,1.914 -1.078,2.606 -0.691,0.691 -1.629,1.078 -2.609,1.078 -0.977,0 -1.914,-0.387 -2.606,-1.078 -0.691,-0.692 -1.078,-1.629 -1.078,-2.606 0,-0.98 0.387,-1.918 1.078,-2.609 0.692,-0.692 1.629,-1.078 2.606,-1.078 0.98,0 1.918,0.386 2.609,1.078 0.691,0.691 1.078,1.629 1.078,2.609 z"
         style="fill:#000000;fill-opacity:1;fill-rule:evenodd;stroke:none"
         id="path210" />
      <path
         d="m 603.23,100.539 -1,0.836 -1.136,0.648 -1.239,0.426 -1.296,0.18 -1.305,-0.074 -1.27,-0.325 -1.187,-0.558 -1.059,-0.762 -0.898,-0.93 -0.715,-1.05 -0.504,-1.118 -0.297,-1.124 -0.086,-1.083 0.114,-0.976 0.281,-0.832 0.418,-0.637 0.519,-0.41 0.575,-0.168 0.582,0.09 0.543,0.336 0.453,0.57 0.332,0.77 0.164,0.937 -0.02,1.055 -0.23,1.121 -0.438,1.125 -0.652,1.074 -0.84,0.973 -1.016,0.82 -1.148,0.625 -1.25,0.402 -1.297,0.153 -1.305,-0.102 -1.261,-0.347 -1.176,-0.582 -1.043,-0.782 -0.883,-0.945 -0.691,-1.059 -0.485,-1.121 -0.273,-1.125 -0.063,-1.07 0.129,-0.969 0.297,-0.808 0.434,-0.614 0.527,-0.386 0.578,-0.141 0.578,0.113 0.536,0.364 0.445,0.589 0.312,0.793 0.149,0.95 -0.043,1.066 -0.25,1.121 -0.465,1.125 -0.668,1.067 -0.863,0.96 -1.032,0.801 -1.16,0.602 -1.254,0.375 -1.304,0.125 -1.301,-0.125 -1.254,-0.375 -1.164,-0.602 -1.031,-0.801 -0.86,-0.96 -0.672,-1.067 -0.46,-1.125 -0.25,-1.121 -0.043,-1.066 0.148,-0.95 0.313,-0.793 0.445,-0.589 0.531,-0.364 0.582,-0.113 0.578,0.141 0.528,0.386 0.429,0.614 0.301,0.808 0.129,0.969 -0.066,1.07 -0.27,1.125 -0.488,1.121 -0.692,1.059 -0.879,0.945 -1.046,0.782 -1.172,0.582 -1.262,0.347 -1.305,0.102 -1.301,-0.153 -1.246,-0.402 -1.152,-0.625 -1.012,-0.82 -0.843,-0.973 -0.649,-1.074 -0.441,-1.125 -0.227,-1.121 -0.023,-1.055 0.168,-0.937 0.328,-0.77 0.457,-0.57 0.539,-0.336 0.582,-0.09 0.574,0.168 0.52,0.41 0.422,0.637 0.281,0.832 0.109,0.976 -0.086,1.083 -0.293,1.124 -0.508,1.118 -0.71,1.05 -0.903,0.93 -1.058,0.762 -1.184,0.558 -1.269,0.325 -1.309,0.074 -1.297,-0.18 -1.238,-0.426 -1.137,-0.648 -0.996,-0.836"
         style="fill:none;stroke:#000000;stroke-width:0.9216;stroke-linecap:square;stroke-linejoin:miter;stroke-miterlimit:3.25;stroke-dasharray:none;stroke-opacity:1"
         id="path212" />
      <text
         xml:space="preserve"
         transform="translate(571.81329,128.41036)"
         style="font-variant:normal;font-size:21.12px;font-family:CairoFont-0;-inkscape-font-specification:CairoFont-0-0;writing-mode:lr-tb;fill:#000000;fill-opacity:1;fill-rule:nonzero;stroke:none"
         id="text216"><tspan
           x="0"
           y="0"
           id="tspan214">g</tspan></text>
      <path
         d="m 670.254,100.539 0.996,-0.84 1.141,-0.648 1.238,-0.422 1.297,-0.18 1.304,0.074 1.27,0.325 1.184,0.554 1.062,0.766 0.899,0.93 0.71,1.047 0.508,1.117 0.297,1.129 0.082,1.078 -0.109,0.98 -0.281,0.828 -0.418,0.637 -0.52,0.414 -0.574,0.164 -0.582,-0.086 -0.543,-0.336 -0.457,-0.57 -0.328,-0.773 -0.168,-0.938 0.023,-1.055 0.227,-1.117 0.441,-1.125 0.649,-1.078 0.843,-0.973 1.016,-0.82 1.148,-0.625 1.246,-0.398 1.301,-0.153 1.305,0.098 1.262,0.352 1.175,0.578 1.043,0.785 0.883,0.941 0.692,1.063 0.484,1.117 0.273,1.125 0.063,1.074 -0.129,0.965 -0.297,0.812 -0.433,0.614 -0.528,0.386 -0.578,0.141 -0.578,-0.113 -0.535,-0.363 -0.446,-0.59 -0.312,-0.793 -0.148,-0.953 0.043,-1.063 0.25,-1.121 0.46,-1.125 0.672,-1.066 0.864,-0.961 1.027,-0.801 1.164,-0.606 1.254,-0.371 1.305,-0.129 1.3,0.129 1.254,0.371 1.164,0.606 1.028,0.801 0.863,0.961 0.672,1.066 0.461,1.125 0.25,1.121 0.043,1.063 -0.149,0.953 -0.312,0.793 -0.445,0.59 -0.536,0.363 -0.578,0.113 -0.578,-0.141 -0.527,-0.386 -0.434,-0.614 -0.297,-0.812 -0.129,-0.965 0.067,-1.074 0.269,-1.125 0.485,-1.117 0.691,-1.063 0.883,-0.941 1.043,-0.785 1.176,-0.578 1.261,-0.352 1.305,-0.098 1.301,0.153 1.246,0.398 1.152,0.625 1.012,0.82 0.844,0.973 0.648,1.078 0.442,1.125 0.226,1.117 0.024,1.055 -0.168,0.938 -0.328,0.773 -0.458,0.57 -0.539,0.336 -0.582,0.086 -0.574,-0.164 -0.519,-0.414 -0.422,-0.637 -0.281,-0.828 -0.11,-0.98 0.086,-1.078 0.293,-1.129 0.508,-1.117 0.711,-1.047 0.898,-0.93 1.063,-0.766 1.183,-0.554 1.27,-0.325 1.308,-0.074 1.293,0.18 1.243,0.422 1.136,0.648 0.996,0.84"
         style="fill:none;stroke:#000000;stroke-width:0.9216;stroke-linecap:square;stroke-linejoin:miter;stroke-miterlimit:3.25;stroke-dasharray:none;stroke-opacity:1"
         id="path218" />
      <text
         xml:space="preserve"
         transform="translate(689.10784,87.884749)"
         style="font-variant:normal;font-size:21.12px;font-family:CairoFont-0;-inkscape-font-specification:CairoFont-0-0;writing-mode:lr-tb;fill:#000000;fill-opacity:1;fill-rule:nonzero;stroke:none"
         id="text222"><tspan
           x="0"
           y="0"
           id="tspan220">g</tspan></text>
      <path
         d="m 603.23,100.539 -0.824,0.965 -0.617,1.141 -0.371,1.273 -0.098,1.344 0.188,1.336 0.457,1.261 0.699,1.121 0.902,0.93 1.047,0.703 1.137,0.461 1.164,0.227 1.141,0.011 1.066,-0.171 0.953,-0.309 0.805,-0.402 0.629,-0.461 0.433,-0.473 0.223,-0.461 0.008,-0.422 -0.207,-0.355 -0.41,-0.278 -0.602,-0.179 -0.758,-0.059 -0.883,0.078 -0.96,0.235 -0.989,0.41 -0.961,0.605 -0.871,0.797 -0.726,0.981 -0.528,1.14 -0.285,1.258 -0.019,1.32 0.265,1.313 0.535,1.242 0.782,1.094 0.98,0.898 1.125,0.657 1.207,0.398 1.231,0.141 1.195,-0.106 1.113,-0.308 0.992,-0.469 0.844,-0.582 0.68,-0.637 0.5,-0.645 0.312,-0.609 0.118,-0.535 -0.075,-0.434 -0.261,-0.308 -0.434,-0.172 -0.586,-0.02 -0.711,0.145 -0.789,0.309 -0.832,0.488 -0.816,0.66 -0.743,0.836 -0.609,0.992 -0.43,1.133 -0.199,1.23 0.059,1.282 0.336,1.265 0.605,1.192 0.848,1.05 1.047,0.848 1.191,0.602 1.27,0.336 1.277,0.062 1.234,-0.199 1.129,-0.43 0.996,-0.613 0.836,-0.742 0.66,-0.813 0.485,-0.832 0.312,-0.793 0.141,-0.707 -0.02,-0.586 -0.168,-0.433 -0.308,-0.262 -0.434,-0.074 -0.535,0.117 -0.609,0.312 -0.645,0.496 -0.636,0.68 -0.583,0.848 -0.472,0.992 -0.309,1.113 -0.101,1.196 0.136,1.226 0.399,1.207 0.66,1.125 0.898,0.981 1.094,0.781 1.238,0.539 1.317,0.262 1.316,-0.016 1.258,-0.285 1.141,-0.527 0.984,-0.727 0.797,-0.875 0.601,-0.957 0.415,-0.988 0.234,-0.961 0.078,-0.883 -0.062,-0.758 -0.176,-0.601 -0.278,-0.415 -0.359,-0.207 -0.418,0.008 -0.461,0.227 -0.476,0.433 -0.457,0.629 -0.407,0.805 -0.308,0.949 -0.168,1.071 0.011,1.136 0.227,1.168 0.461,1.133 0.703,1.051 0.93,0.898 1.121,0.703 1.262,0.457 1.336,0.184 1.339,-0.098 1.274,-0.371 1.144,-0.617 0.965,-0.82"
         style="fill:none;stroke:#000000;stroke-width:0.9216;stroke-linecap:square;stroke-linejoin:miter;stroke-miterlimit:3.25;stroke-dasharray:none;stroke-opacity:1"
         id="path224" />
      <text
         xml:space="preserve"
         transform="translate(596.01844,148.65218)"
         style="font-variant:normal;font-size:21.12px;font-family:CairoFont-0;-inkscape-font-specification:CairoFont-0-0;writing-mode:lr-tb;fill:#000000;fill-opacity:1;fill-rule:nonzero;stroke:none"
         id="text228"><tspan
           x="0"
           y="0"
           id="tspan226">g</tspan></text>
      <path
         d="m 636.742,134.051 c 18.492,-0.039 33.473,-15.02 33.512,-33.512"
         style="fill:none;stroke:#000000;stroke-width:0.9216;stroke-linecap:butt;stroke-linejoin:miter;stroke-miterlimit:3.25;stroke-dasharray:0.9216, 5.5296;stroke-dashoffset:0;stroke-opacity:1"
         id="path230" />
      <path
         d="m 656.863,127.77 9.481,-4.739 -4.742,-4.742 z"
         style="fill:#000000;fill-opacity:1;fill-rule:evenodd;stroke:none"
         id="path232" />
      <text
         xml:space="preserve"
         transform="translate(664.53405,140.31088)"
         style="font-variant:normal;font-size:21.12px;font-family:CairoFont-0;-inkscape-font-specification:CairoFont-0-0;writing-mode:lr-tb;fill:#000000;fill-opacity:1;fill-rule:nonzero;stroke:none"
         id="text236"><tspan
           x="0"
           y="0"
           id="tspan234">u</tspan></text>
      <text
         xml:space="preserve"
         transform="translate(676.20593,144.23081)"
         style="font-variant:normal;font-size:14.88px;font-family:CairoFont-0;-inkscape-font-specification:CairoFont-0-0;writing-mode:lr-tb;fill:#000000;fill-opacity:1;fill-rule:nonzero;stroke:none"
         id="text240"><tspan
           x="0"
           y="0"
           id="tspan238">g</tspan></text>
      <path
         d="m 636.742,67.027 v 67.024"
         style="fill:none;stroke:#000000;stroke-width:0.9216;stroke-linecap:butt;stroke-linejoin:miter;stroke-miterlimit:3.25;stroke-dasharray:0.9216, 5.5296;stroke-dashoffset:0;stroke-opacity:1"
         id="path242" />
      <path
         d="m 636.742,95.512 -3.351,10.054 h 6.703 z"
         style="fill:#000000;fill-opacity:1;fill-rule:evenodd;stroke:none"
         id="path244" />
      <text
         xml:space="preserve"
         transform="translate(644.66088,102.41025)"
         style="font-variant:normal;font-size:21.12px;font-family:CairoFont-0;-inkscape-font-specification:CairoFont-0-0;writing-mode:lr-tb;fill:#000000;fill-opacity:1;fill-rule:nonzero;stroke:none"
         id="text248"><tspan
           x="0"
           y="0"
           id="tspan246">u</tspan></text>
      <text
         xml:space="preserve"
         transform="translate(656.33275,106.33017)"
         style="font-variant:normal;font-size:14.88px;font-family:CairoFont-0;-inkscape-font-specification:CairoFont-0-0;writing-mode:lr-tb;fill:#000000;fill-opacity:1;fill-rule:nonzero;stroke:none"
         id="text252"><tspan
           x="0"
           y="0"
           id="tspan250">g</tspan></text>
      <path
         d="m 603.23,100.539 -0.808,-0.977 -0.602,-1.148 -0.351,-1.277 -0.082,-1.336 0.203,-1.332 0.472,-1.254 0.711,-1.113 0.915,-0.914 1.05,-0.692 1.141,-0.449 1.168,-0.211 h 1.141 l 1.062,0.18 0.949,0.32 0.801,0.41 0.625,0.469 0.426,0.48 0.219,0.465 0.003,0.426 -0.211,0.355 -0.417,0.278 -0.602,0.176 -0.758,0.054 -0.883,-0.086 -0.961,-0.242 -0.984,-0.422 -0.953,-0.613 -0.863,-0.801 -0.719,-0.988 -0.52,-1.145 -0.277,-1.257 -0.004,-1.317 0.27,-1.308 0.543,-1.235 0.789,-1.086 0.984,-0.89 1.125,-0.653 1.207,-0.39 1.231,-0.133 1.191,0.109 1.109,0.313 0.992,0.476 0.844,0.582 0.676,0.641 0.496,0.648 0.309,0.614 0.113,0.535 -0.078,0.437 -0.262,0.309 -0.437,0.172 -0.586,0.019 -0.711,-0.14 -0.793,-0.313 -0.828,-0.488 -0.813,-0.664 -0.738,-0.836 -0.609,-0.996 -0.426,-1.133 -0.199,-1.227 0.062,-1.281 0.336,-1.265 0.602,-1.188 0.847,-1.043 1.043,-0.848 1.192,-0.605 1.265,-0.332 1.278,-0.063 1.226,0.196 1.133,0.426 0.996,0.609 0.836,0.742 0.664,0.813 0.488,0.828 0.313,0.793 0.14,0.711 -0.019,0.586 -0.168,0.437 -0.313,0.262 -0.433,0.078 -0.539,-0.113 -0.614,-0.309 -0.648,-0.496 -0.641,-0.676 -0.582,-0.844 -0.476,-0.992 -0.313,-1.109 -0.109,-1.192 0.133,-1.23 0.39,-1.207 0.653,-1.125 0.89,-0.984 1.09,-0.79 1.231,-0.542 1.308,-0.274 1.317,0.008 1.257,0.277 1.145,0.52 0.988,0.719 0.805,0.863 0.609,0.953 0.422,0.984 0.242,0.961 0.086,0.883 -0.054,0.758 -0.176,0.601 -0.277,0.418 -0.356,0.211 -0.426,-0.004 -0.465,-0.218 -0.48,-0.426 -0.465,-0.625 -0.414,-0.801 -0.32,-0.949 -0.18,-1.063 v -1.14 l 0.211,-1.168 0.449,-1.141 0.692,-1.055 0.918,-0.91 1.109,-0.711 1.254,-0.472 1.332,-0.203 1.336,0.082 1.277,0.351 1.149,0.602 0.976,0.808"
         style="fill:none;stroke:#000000;stroke-width:0.9216;stroke-linecap:square;stroke-linejoin:miter;stroke-miterlimit:3.25;stroke-dasharray:none;stroke-opacity:1"
         id="path254" />
      <text
         xml:space="preserve"
         transform="translate(596.16925,67.793739)"
         style="font-variant:normal;font-size:21.12px;font-family:CairoFont-0;-inkscape-font-specification:CairoFont-0-0;writing-mode:lr-tb;fill:#000000;fill-opacity:1;fill-rule:nonzero;stroke:none"
         id="text258"><tspan
           x="0"
           y="0"
           id="tspan256">g</tspan></text>
      <path
         d="M 670.254,100.539 C 670.215,82.047 655.234,67.062 636.742,67.027"
         style="fill:none;stroke:#000000;stroke-width:0.9216;stroke-linecap:butt;stroke-linejoin:miter;stroke-miterlimit:3.25;stroke-dasharray:0.9216, 5.5296;stroke-dashoffset:0;stroke-opacity:1"
         id="path260" />
      <path
         d="m 663.973,80.414 -4.739,-9.476 -4.738,4.738 z"
         style="fill:#000000;fill-opacity:1;fill-rule:evenodd;stroke:none"
         id="path262" />
      <text
         xml:space="preserve"
         transform="translate(664.53405,64.509619)"
         style="font-variant:normal;font-size:21.12px;font-family:CairoFont-0;-inkscape-font-specification:CairoFont-0-0;writing-mode:lr-tb;fill:#000000;fill-opacity:1;fill-rule:nonzero;stroke:none"
         id="text266"><tspan
           x="0"
           y="0"
           id="tspan264">u</tspan></text>
      <text
         xml:space="preserve"
         transform="translate(676.20593,68.429541)"
         style="font-variant:normal;font-size:14.88px;font-family:CairoFont-0;-inkscape-font-specification:CairoFont-0-0;writing-mode:lr-tb;fill:#000000;fill-opacity:1;fill-rule:nonzero;stroke:none"
         id="text270"><tspan
           x="0"
           y="0"
           id="tspan268">g</tspan></text>
      <path
         d="m 640.43,67.027 c 0,0.977 -0.391,1.914 -1.082,2.606 -0.692,0.691 -1.629,1.078 -2.606,1.078 -0.976,0 -1.914,-0.387 -2.605,-1.078 -0.692,-0.692 -1.082,-1.629 -1.082,-2.606 0,-0.98 0.39,-1.918 1.082,-2.609 0.691,-0.691 1.629,-1.078 2.605,-1.078 0.977,0 1.914,0.387 2.606,1.078 0.691,0.691 1.082,1.629 1.082,2.609 z"
         style="fill:#000000;fill-opacity:1;fill-rule:evenodd;stroke:none"
         id="path272" />
      <path
         d="m 640.43,134.051 c 0,0.976 -0.391,1.914 -1.082,2.605 -0.692,0.692 -1.629,1.082 -2.606,1.082 -0.976,0 -1.914,-0.39 -2.605,-1.082 -0.692,-0.691 -1.082,-1.629 -1.082,-2.605 0,-0.977 0.39,-1.914 1.082,-2.606 0.691,-0.691 1.629,-1.082 2.605,-1.082 0.977,0 1.914,0.391 2.606,1.082 0.691,0.692 1.082,1.629 1.082,2.606 z"
         style="fill:#000000;fill-opacity:1;fill-rule:evenodd;stroke:none"
         id="path274" />
      <path
         d="m 606.914,100.539 c 0,0.977 -0.387,1.914 -1.078,2.606 -0.691,0.691 -1.629,1.078 -2.606,1.078 -0.98,0 -1.918,-0.387 -2.609,-1.078 -0.691,-0.692 -1.078,-1.629 -1.078,-2.606 0,-0.98 0.387,-1.918 1.078,-2.609 0.691,-0.692 1.629,-1.078 2.609,-1.078 0.977,0 1.915,0.386 2.606,1.078 0.691,0.691 1.078,1.629 1.078,2.609 z"
         style="fill:#000000;fill-opacity:1;fill-rule:evenodd;stroke:none"
         id="path276" />
      <path
         d="m 673.941,100.539 c 0,0.977 -0.39,1.914 -1.082,2.606 -0.691,0.691 -1.629,1.078 -2.605,1.078 -0.977,0 -1.914,-0.387 -2.606,-1.078 -0.691,-0.692 -1.082,-1.629 -1.082,-2.606 0,-0.98 0.391,-1.918 1.082,-2.609 0.692,-0.692 1.629,-1.078 2.606,-1.078 0.976,0 1.914,0.386 2.605,1.078 0.692,0.691 1.082,1.629 1.082,2.609 z"
         style="fill:#000000;fill-opacity:1;fill-rule:evenodd;stroke:none"
         id="path278" />
    </g>
  </g>
</svg>
