<?xml version="1.0" encoding="UTF-8" standalone="no"?>
<!-- Created with Inkscape (http://www.inkscape.org/) -->

<svg
   version="1.1"
   id="svg2"
   width="984"
   height="246.66667"
   viewBox="0 0 984 246.66667"
   sodipodi:docname="1izbjdmo028st.pdf"
   xmlns:inkscape="http://www.inkscape.org/namespaces/inkscape"
   xmlns:sodipodi="http://sodipodi.sourceforge.net/DTD/sodipodi-0.dtd"
   xmlns="http://www.w3.org/2000/svg"
   xmlns:svg="http://www.w3.org/2000/svg">
  <defs
     id="defs6">
    <clipPath
       clipPathUnits="userSpaceOnUse"
       id="clipPath50">
      <path
         d="m 77,154 h 13.961 v 17 H 77 Z"
         id="path48" />
    </clipPath>
  </defs>
  <sodipodi:namedview
     id="namedview4"
     pagecolor="#ffffff"
     bordercolor="#999999"
     borderopacity="1"
     inkscape:showpageshadow="0"
     inkscape:pageopacity="0"
     inkscape:pagecheckerboard="0"
     inkscape:deskcolor="#d1d1d1" />
  <g
     id="g8"
     inkscape:groupmode="layer"
     inkscape:label="1izbjdmo028st"
     transform="matrix(1.3333333,0,0,1.3333333,0,9.5e-6)">
    <g
       id="g10">
      <path
         d="m 46.078,100.539 -1.055,0.906 -1.222,0.672 -1.328,0.406 -1.387,0.106 -1.375,-0.191 -1.309,-0.485 -1.175,-0.746 -1.004,-0.961 -0.789,-1.117 -0.543,-1.211 -0.297,-1.23 -0.043,-1.176 0.183,-1.047 0.383,-0.86 0.535,-0.621 0.637,-0.339 0.676,-0.047 0.652,0.257 0.571,0.543 0.429,0.797 0.246,1 0.024,1.145 -0.223,1.222 -0.473,1.223 -0.718,1.153 -0.946,1.015 -1.132,0.813 -1.274,0.562 -1.363,0.277 -1.391,-0.019 -1.351,-0.32 -1.258,-0.602 -1.11,-0.844 -0.914,-1.039 -0.687,-1.164 -0.438,-1.23 -0.183,-1.215 0.054,-1.129 0.278,-0.973 0.453,-0.765 0.586,-0.504 0.66,-0.215 0.672,0.086 0.625,0.383 0.516,0.656 0.355,0.891 0.156,1.07 -0.078,1.187 -0.332,1.231 -0.582,1.203 -0.816,1.102 -1.032,0.933 -1.199,0.711 -1.32,0.445 -1.383,0.149 -1.379,-0.149 -1.32,-0.445 -1.199,-0.711 -1.032,-0.933 -0.82,-1.102 -0.582,-1.203 -0.328,-1.231 -0.078,-1.187 0.152,-1.07 0.356,-0.891 0.519,-0.656 0.625,-0.383 0.672,-0.086 0.66,0.215 0.586,0.504 0.453,0.765 0.274,0.973 0.058,1.129 -0.187,1.215 -0.438,1.23 -0.687,1.164 -0.914,1.039 -1.106,0.844 -1.262,0.602 -1.351,0.32 -1.391,0.019 -1.359,-0.277 -1.277,-0.562 L 9.551,100.953 8.609,99.938 7.887,98.785 7.414,97.562 7.191,96.34 l 0.028,-1.145 0.242,-1 0.434,-0.797 0.57,-0.543 0.652,-0.257 0.676,0.047 0.633,0.339 0.535,0.621 0.383,0.86 0.187,1.047 -0.047,1.176 -0.293,1.23 -0.546,1.211 -0.786,1.117 -1.004,0.961 -1.179,0.746 -1.305,0.485 -1.379,0.191 L 3.609,102.523 2.277,102.117 1.059,101.445 0,100.539"
         style="fill:none;stroke:#000000;stroke-width:0.9216;stroke-linecap:square;stroke-linejoin:miter;stroke-miterlimit:3.25;stroke-dasharray:none;stroke-opacity:1"
         id="path12" />
      <text
         xml:space="preserve"
         transform="translate(16.75875,128.41036)"
         style="font-variant:normal;font-size:21.12px;font-family:CairoFont-0;-inkscape-font-specification:CairoFont-0-0;writing-mode:lr-tb;fill:#000000;fill-opacity:1;fill-rule:nonzero;stroke:none"
         id="text16"><tspan
           x="0"
           y="0"
           id="tspan14">g</tspan></text>
      <path
         d="m 121.484,100.539 1.055,-0.906 1.223,-0.676 1.332,-0.402 1.383,-0.11 1.378,0.196 1.305,0.484 1.18,0.742 1,0.961 0.789,1.121 0.547,1.211 0.293,1.231 0.043,1.171 -0.184,1.051 -0.383,0.86 -0.535,0.621 -0.633,0.34 -0.675,0.043 -0.653,-0.258 -0.57,-0.543 -0.434,-0.793 -0.246,-1 -0.023,-1.149 0.222,-1.218 0.473,-1.227 0.719,-1.152 0.945,-1.012 1.133,-0.813 1.277,-0.562 1.36,-0.281 1.39,0.023 1.352,0.32 1.258,0.602 1.109,0.844 0.914,1.035 0.688,1.168 0.437,1.227 0.188,1.214 -0.059,1.129 -0.273,0.977 -0.457,0.762 -0.582,0.503 -0.661,0.215 -0.675,-0.086 -0.622,-0.382 -0.519,-0.657 -0.355,-0.89 -0.157,-1.071 0.082,-1.187 0.328,-1.231 0.582,-1.203 0.821,-1.101 1.027,-0.934 1.203,-0.711 1.317,-0.441 1.382,-0.153 1.383,0.153 1.317,0.441 1.203,0.711 1.027,0.934 0.82,1.101 0.582,1.203 0.329,1.231 0.082,1.187 -0.157,1.071 -0.355,0.89 -0.52,0.657 -0.621,0.382 -0.675,0.086 -0.657,-0.215 -0.586,-0.503 -0.457,-0.762 -0.273,-0.977 -0.055,-1.129 0.184,-1.214 0.437,-1.227 0.688,-1.168 0.914,-1.035 1.109,-0.844 1.258,-0.602 1.352,-0.32 1.39,-0.023 1.363,0.281 1.274,0.562 1.133,0.813 0.945,1.012 0.719,1.152 0.472,1.227 0.223,1.218 -0.023,1.149 -0.246,1 -0.434,0.793 -0.57,0.543 -0.653,0.258 -0.672,-0.043 -0.636,-0.34 -0.535,-0.621 -0.383,-0.86 -0.184,-1.051 0.043,-1.171 0.293,-1.231 0.547,-1.211 0.789,-1.121 1,-0.961 1.18,-0.742 1.308,-0.484 1.375,-0.196 1.383,0.11 1.332,0.402 1.223,0.676 1.054,0.906"
         style="fill:none;stroke:#000000;stroke-width:0.9216;stroke-linecap:square;stroke-linejoin:miter;stroke-miterlimit:3.25;stroke-dasharray:none;stroke-opacity:1"
         id="path18" />
      <text
         xml:space="preserve"
         transform="translate(138.24239,134.27509)"
         style="font-variant:normal;font-size:21.12px;font-family:CairoFont-0;-inkscape-font-specification:CairoFont-0-0;writing-mode:lr-tb;fill:#000000;fill-opacity:1;fill-rule:nonzero;stroke:none"
         id="text22"><tspan
           x="0"
           y="0"
           id="tspan20">g</tspan></text>
      <path
         d="m 46.078,100.539 -0.859,-0.949 -0.657,-1.133 -0.414,-1.269 -0.136,-1.344 0.148,-1.348 0.422,-1.277 0.676,-1.145 0.879,-0.957 1.039,-0.738 1.129,-0.496 1.168,-0.262 1.148,-0.051 1.074,0.137 0.953,0.281 0.805,0.383 0.617,0.445 0.414,0.469 0.192,0.465 -0.039,0.434 -0.258,0.375 -0.473,0.296 -0.66,0.196 -0.824,0.074 -0.938,-0.074 -1.011,-0.242 -1.028,-0.434 -0.988,-0.637 -0.883,-0.836 -0.722,-1.023 -0.512,-1.18 -0.258,-1.289 0.02,-1.34 0.304,-1.316 0.574,-1.227 0.813,-1.07 1.004,-0.863 1.141,-0.617 1.214,-0.364 1.223,-0.109 1.184,0.125 1.093,0.312 0.961,0.461 0.809,0.559 0.625,0.601 0.43,0.602 0.222,0.559 0.012,0.484 -0.195,0.387 -0.387,0.261 -0.567,0.122 -0.714,-0.032 -0.825,-0.195 -0.886,-0.371 -0.895,-0.559 -0.847,-0.742 -0.739,-0.922 -0.574,-1.082 -0.355,-1.207 -0.102,-1.285 0.172,-1.309 0.453,-1.265 0.711,-1.149 0.941,-0.976 1.114,-0.746 1.222,-0.492 1.274,-0.215 1.258,0.047 1.191,0.289 1.074,0.488 0.93,0.637 0.758,0.73 0.582,0.77 0.39,0.75 0.207,0.683 0.02,0.578 -0.16,0.446 -0.324,0.281 -0.473,0.105 -0.598,-0.078 -0.687,-0.265 -0.739,-0.457 -0.738,-0.645 -0.683,-0.82 -0.575,-0.985 -0.406,-1.113 -0.199,-1.215 0.051,-1.265 0.32,-1.258 0.59,-1.184 0.836,-1.051 1.047,-0.859 1.203,-0.617 1.293,-0.352 1.312,-0.066 1.27,0.203 1.172,0.449 1.027,0.649 0.859,0.8 0.672,0.891 0.485,0.918 0.304,0.895 0.129,0.816 -0.027,0.687 -0.172,0.532 -0.297,0.344 -0.41,0.14 -0.5,-0.07 -0.555,-0.285 -0.586,-0.489 -0.566,-0.683 -0.508,-0.86 -0.398,-1.003 -0.235,-1.126 -0.031,-1.195 0.203,-1.219 0.457,-1.187 0.711,-1.09 0.945,-0.933 1.133,-0.727 1.27,-0.473 1.336,-0.199 1.332,0.09 1.261,0.355 1.129,0.602"
         style="fill:none;stroke:#000000;stroke-width:0.9216;stroke-linecap:square;stroke-linejoin:miter;stroke-miterlimit:3.25;stroke-dasharray:none;stroke-opacity:1"
         id="path24" />
      <text
         xml:space="preserve"
         transform="translate(35.870127,68.50511)"
         style="font-variant:normal;font-size:21.12px;font-family:CairoFont-0;-inkscape-font-specification:CairoFont-0-0;writing-mode:lr-tb;fill:#000000;fill-opacity:1;fill-rule:nonzero;stroke:none"
         id="text28"><tspan
           x="0"
           y="0"
           id="tspan26">g</tspan></text>
      <path
         d="m 121.484,100.539 -0.82,0.93 -1.004,0.773 -1.156,0.574 -1.266,0.34 -1.308,0.09 -1.301,-0.168 -1.231,-0.41 -1.101,-0.629 -0.942,-0.816 -0.75,-0.95 -0.546,-1.043 -0.34,-1.078 -0.157,-1.062 0.012,-1.008 0.149,-0.91 0.257,-0.774 0.329,-0.613 0.375,-0.426 0.398,-0.226 0.395,-0.016 0.367,0.188 0.324,0.39 0.254,0.575 0.164,0.734 0.043,0.867 -0.094,0.957 -0.258,1.012 -0.441,1.012 -0.629,0.964 -0.82,0.864 -0.996,0.718 -1.145,0.528 -1.246,0.301 -1.305,0.05 -1.297,-0.203 -1.23,-0.449 -1.113,-0.676 -0.946,-0.867 -0.742,-1.012 -0.523,-1.105 -0.297,-1.153 -0.086,-1.144 0.098,-1.094 0.257,-1 0.375,-0.879 0.45,-0.726 0.488,-0.559 0.492,-0.367 0.465,-0.176 0.406,0.024 0.332,0.222 0.235,0.403 0.121,0.566 -0.008,0.711 -0.152,0.812 -0.309,0.875 -0.477,0.899 -0.652,0.863 -0.82,0.781 -0.985,0.653 -1.121,0.469 -1.218,0.257 -1.274,0.02 -1.277,-0.238 -1.219,-0.485 -1.102,-0.711 -0.941,-0.91 -0.734,-1.062 -0.504,-1.161 -0.262,-1.207 -0.035,-1.203 0.18,-1.148 0.359,-1.059 0.5,-0.933 0.59,-0.789 0.636,-0.629 0.641,-0.457 0.602,-0.274 0.527,-0.097 0.426,0.078 0.301,0.25 0.164,0.402 0.007,0.535 -0.152,0.645 -0.316,0.715 -0.493,0.75 -0.656,0.734 -0.816,0.672 -0.969,0.562 -1.09,0.407 -1.183,0.203 -1.235,-0.02 -1.238,-0.262 -1.187,-0.511 -1.075,-0.739 -0.918,-0.941 -0.718,-1.098 -0.485,-1.203 -0.234,-1.254 0.012,-1.246 0.238,-1.191 0.445,-1.094 0.602,-0.961 0.718,-0.808 0.786,-0.649 0.796,-0.476 0.766,-0.309 0.695,-0.148 0.579,0.007 0.445,0.153 0.281,0.281 0.102,0.395 -0.078,0.488 -0.266,0.554 -0.445,0.59 -0.625,0.586 -0.789,0.539 -0.93,0.45 -1.051,0.316 -1.141,0.141 -1.187,-0.063 -1.188,-0.293 -1.136,-0.527 -1.039,-0.758 -0.883,-0.953 -0.684,-1.121 -0.457,-1.231 -0.207,-1.289 0.047,-1.281 0.293,-1.227 0.504,-1.117 0.687,-0.972 0.821,-0.813 0.906,-0.629 0.937,-0.453 0.922,-0.285 0.856,-0.125 0.754,0.012 0.613,0.136 0.445,0.239 0.258,0.324 0.063,0.39 -0.145,0.434 -0.344,0.453 -0.535,0.445 -0.707,0.403 -0.863,0.324 -0.984,0.211 -1.075,0.062 -1.125,-0.125 -1.125,-0.328 -1.082,-0.543 -0.984,-0.761 -0.836,-0.957 -0.648,-1.125 -0.418,-1.243 -0.172,-1.3 0.082,-1.305 0.332,-1.25 0.558,-1.137 0.75,-0.988"
         style="fill:none;stroke:#000000;stroke-width:0.9216;stroke-linecap:square;stroke-linejoin:miter;stroke-miterlimit:3.25;stroke-dasharray:none;stroke-opacity:1"
         id="path30" />
      <text
         xml:space="preserve"
         transform="translate(73.959247,117.33762)"
         style="font-variant:normal;font-size:21.12px;font-family:CairoFont-0;-inkscape-font-specification:CairoFont-0-0;writing-mode:lr-tb;fill:#000000;fill-opacity:1;fill-rule:nonzero;stroke:none"
         id="text34"><tspan
           x="0"
           y="0"
           id="tspan32">g</tspan></text>
      <path
         d="m 121.484,100.539 0.825,-0.883 0.66,-1.043 0.461,-1.175 0.23,-1.258 -0.004,-1.289 -0.25,-1.262 -0.472,-1.18 -0.68,-1.051 -0.844,-0.882 -0.969,-0.692 -1.043,-0.492 -1.074,-0.293 -1.062,-0.109 -1.008,0.054 -0.914,0.18 -0.797,0.281 -0.648,0.348 -0.485,0.387 -0.301,0.394 -0.113,0.383 0.078,0.348 0.262,0.3 0.441,0.227 0.602,0.145 0.734,0.043 0.84,-0.086 0.906,-0.223 0.934,-0.379 0.914,-0.551 0.852,-0.719 0.738,-0.886 0.582,-1.039 0.387,-1.157 0.172,-1.238 -0.071,-1.269 -0.308,-1.25 -0.543,-1.168 -0.743,-1.039 -0.918,-0.871 -1.039,-0.665 -1.121,-0.449 -1.148,-0.23 -1.137,-0.02 -1.078,0.164 -0.988,0.313 -0.875,0.43 -0.735,0.503 -0.582,0.539 -0.414,0.536 -0.246,0.5 -0.07,0.437 0.105,0.356 0.27,0.25 0.422,0.136 0.554,0.008 0.668,-0.129 0.743,-0.277 0.777,-0.43 0.777,-0.586 0.727,-0.742 0.633,-0.891 0.492,-1.023 0.312,-1.129 0.106,-1.203 -0.129,-1.227 -0.363,-1.211 -0.594,-1.132 -0.801,-1.008 -0.973,-0.84 -1.105,-0.633 -1.18,-0.406 -1.211,-0.172 -1.187,0.051 -1.125,0.262 -1.028,0.433 -0.902,0.57 -0.758,0.661 -0.609,0.711 -0.449,0.71 -0.297,0.676 -0.141,0.602 0.008,0.496 0.145,0.371 0.277,0.227 0.394,0.07 0.489,-0.09 0.558,-0.258 0.606,-0.426 0.609,-0.582 0.574,-0.738 0.496,-0.875 0.383,-0.996 0.223,-1.09 0.031,-1.156 -0.183,-1.176 -0.411,-1.148 -0.632,-1.078 -0.84,-0.957 -1.012,-0.789 -1.148,-0.586 -1.231,-0.356 -1.254,-0.117 -1.23,0.117 -1.16,0.34 -1.043,0.531 -0.907,0.684 -0.746,0.797 -0.582,0.859 -0.422,0.875 -0.265,0.852 -0.125,0.781 0.004,0.68 0.117,0.543 0.215,0.386 0.301,0.215 0.367,0.031 0.414,-0.156 0.445,-0.336 0.441,-0.515 0.415,-0.676 0.347,-0.821 0.246,-0.941 0.114,-1.031 -0.051,-1.09 -0.246,-1.109 -0.453,-1.082 -0.661,-1.008 -0.859,-0.887 -1.035,-0.727 -1.168,-0.523 -1.25,-0.297 -1.285,-0.058 -1.258,0.183 -1.184,0.41 -1.054,0.614 -0.903,0.773 -0.722,0.898 -0.539,0.977 -0.356,1.004 -0.187,0.992 -0.043,0.934 0.086,0.836 0.187,0.714 0.258,0.559 0.312,0.387 0.344,0.203 0.36,0.004 0.351,-0.188 0.328,-0.375 0.282,-0.547 0.21,-0.707 0.122,-0.836 -0.004,-0.933 -0.149,-0.996 -0.316,-1.02 -0.5,-0.996 -0.688,-0.926 -0.871,-0.812 -1.035,-0.652 -1.164,-0.454 -1.25,-0.234 -1.285,0.008 -1.262,0.25 -1.187,0.476 -1.063,0.684 -0.891,0.855 -0.703,0.981"
         style="fill:none;stroke:#000000;stroke-width:0.9216;stroke-linecap:square;stroke-linejoin:miter;stroke-miterlimit:3.25;stroke-dasharray:none;stroke-opacity:1"
         id="path36" />
      <text
         xml:space="preserve"
         transform="translate(111.62854,59.711992)"
         style="font-variant:normal;font-size:21.12px;font-family:CairoFont-0;-inkscape-font-specification:CairoFont-0-0;writing-mode:lr-tb;fill:#000000;fill-opacity:1;fill-rule:nonzero;stroke:none"
         id="text40"><tspan
           x="0"
           y="0"
           id="tspan38">g</tspan></text>
      <path
         d="m 121.484,100.539 0.766,0.992 0.57,1.153 0.344,1.265 0.094,1.328 -0.164,1.325 -0.418,1.265 -0.649,1.145 -0.839,0.98 -0.989,0.778 -1.09,0.558 -1.132,0.34 -1.133,0.133 -1.078,-0.051 -0.989,-0.203 -0.863,-0.317 -0.711,-0.394 -0.531,-0.43 -0.344,-0.441 -0.14,-0.418 0.062,-0.375 0.266,-0.305 0.449,-0.219 0.613,-0.113 0.758,0.008 0.855,0.152 0.922,0.309 0.934,0.476 0.894,0.661 0.809,0.839 0.664,1.004 0.484,1.149 0.258,1.25 0.016,1.305 -0.246,1.3 -0.496,1.239 -0.727,1.121 -0.922,0.949 -1.066,0.738 -1.168,0.504 -1.203,0.266 -1.199,0.039 -1.141,-0.172 -1.047,-0.34 -0.918,-0.469 -0.773,-0.554 -0.606,-0.594 -0.43,-0.586 -0.246,-0.547 -0.058,-0.473 0.121,-0.367 0.293,-0.25 0.449,-0.113 0.582,0.035 0.691,0.191 0.754,0.36 0.782,0.527 0.754,0.696 0.679,0.855 0.551,1.008 0.383,1.129 0.172,1.222 -0.063,1.266 -0.316,1.254 -0.567,1.195 -0.793,1.071 -0.988,0.898 -1.137,0.687 -1.226,0.446 -1.266,0.195 -1.246,-0.051 -1.176,-0.273 -1.074,-0.469 -0.933,-0.613 -0.778,-0.715 -0.613,-0.762 -0.445,-0.761 -0.278,-0.715 -0.109,-0.629 0.039,-0.512 0.187,-0.363 0.321,-0.199 0.433,-0.028 0.52,0.16 0.582,0.34 0.605,0.524 0.59,0.691 0.528,0.852 0.421,0.988 0.266,1.101 0.078,1.176 -0.144,1.211 -0.383,1.199 -0.617,1.125 -0.848,1.008 -1.035,0.832 -1.184,0.621 -1.277,0.375 -1.309,0.121 -1.281,-0.132 -1.203,-0.368 -1.078,-0.574 -0.926,-0.738 -0.754,-0.848 -0.57,-0.914 -0.399,-0.922 -0.23,-0.886 -0.082,-0.801 0.051,-0.68 0.164,-0.523 0.265,-0.348 0.344,-0.152 0.406,0.047 0.438,0.25 0.449,0.445 0.426,0.629 0.371,0.797 0.273,0.933 0.141,1.043 -0.031,1.117 -0.227,1.145 -0.445,1.121 -0.668,1.051 -0.879,0.926 -1.066,0.757 -1.211,0.539 -1.301,0.301 -1.336,0.039 -1.301,-0.214 -1.215,-0.458 -1.078,-0.668 -0.906,-0.839 -0.711,-0.957 -0.512,-1.036 -0.316,-1.046 -0.141,-1.024 0.012,-0.945 0.141,-0.828 0.238,-0.684 0.305,-0.504 0.351,-0.312 0.371,-0.106 0.375,0.106 0.348,0.312 0.308,0.504 0.235,0.684 0.141,0.828 0.011,0.945 -0.14,1.024 -0.317,1.046 -0.512,1.036 -0.71,0.957 -0.907,0.839 -1.078,0.668 -1.215,0.458 -1.3,0.214 -1.332,-0.039 -1.305,-0.301 -1.207,-0.539 -1.067,-0.757 -0.882,-0.926 -0.668,-1.051 -0.446,-1.121 -0.226,-1.145 -0.032,-1.117 0.141,-1.043 0.274,-0.933 0.371,-0.797 0.425,-0.629 0.45,-0.445 0.441,-0.25 0.402,-0.047 0.344,0.152 0.266,0.348 0.168,0.523 0.051,0.68 -0.083,0.801 -0.234,0.886 -0.394,0.922 -0.575,0.914 -0.754,0.848 -0.921,0.738 -1.082,0.574 -1.204,0.368 -1.281,0.132 -1.308,-0.121 -1.278,-0.375 -1.183,-0.621 -1.036,-0.832 -0.843,-1.008 -0.621,-1.125 -0.383,-1.199 -0.145,-1.211 0.078,-1.176 0.266,-1.101 0.422,-0.988 0.527,-0.852 0.59,-0.691 0.606,-0.524 0.582,-0.34 0.523,-0.16 0.43,0.028 0.32,0.199 0.188,0.363 0.043,0.512 -0.114,0.629 -0.277,0.715 -0.442,0.761 -0.613,0.762 -0.781,0.715 -0.934,0.613 -1.07,0.469 -1.18,0.273 -1.246,0.051 -1.265,-0.195 -1.227,-0.446 -1.137,-0.687 -0.988,-0.898 -0.793,-1.071 -0.562,-1.195 -0.317,-1.254 -0.066,-1.266 0.172,-1.222 0.382,-1.129 0.555,-1.008 0.68,-0.855 0.754,-0.696 0.777,-0.527 0.758,-0.36 0.687,-0.191 0.582,-0.035 0.454,0.113 0.293,0.25 0.121,0.367 -0.063,0.473 -0.246,0.547 -0.43,0.586 -0.605,0.594 -0.77,0.554 -0.922,0.469 -1.046,0.34 -1.141,0.172 -1.195,-0.039 -1.207,-0.266 -1.164,-0.504 -1.071,-0.738 -0.922,-0.949 -0.726,-1.121 -0.496,-1.239 -0.242,-1.3 0.011,-1.305 0.258,-1.25 0.484,-1.149 0.668,-1.004 0.805,-0.839 0.899,-0.661 0.933,-0.476 0.918,-0.309 0.859,-0.152 0.754,-0.008 0.618,0.113 0.449,0.219 0.261,0.305 0.063,0.375 -0.141,0.418 -0.339,0.441 -0.536,0.43 -0.711,0.394 -0.863,0.317 -0.988,0.203 -1.078,0.051 -1.129,-0.133 -1.137,-0.34 -1.086,-0.558 -0.992,-0.778 -0.84,-0.98 -0.648,-1.145 -0.418,-1.265 -0.164,-1.325 0.093,-1.328 0.344,-1.265 0.574,-1.153 0.762,-0.992"
         style="fill:none;stroke:#000000;stroke-width:0.9216;stroke-linecap:square;stroke-linejoin:miter;stroke-miterlimit:3.25;stroke-dasharray:none;stroke-opacity:1"
         id="path42" />
    </g>
    <g
       id="g44">
      <g
         id="g46"
         clip-path="url(#clipPath50)">
        <text
           xml:space="preserve"
           transform="translate(77.500568,166.11218)"
           style="font-variant:normal;font-size:21.12px;font-family:CairoFont-0;-inkscape-font-specification:CairoFont-0-0;writing-mode:lr-tb;fill:#000000;fill-opacity:1;fill-rule:nonzero;stroke:none"
           id="text54"><tspan
             x="0"
             y="0"
             id="tspan52">g</tspan></text>
      </g>
    </g>
    <g
       id="g56">
      <path
         d="m 79.09,62.836 c 0,0.976 -0.387,1.914 -1.078,2.605 -0.692,0.692 -1.629,1.082 -2.61,1.082 -0.976,0 -1.914,-0.39 -2.605,-1.082 -0.692,-0.691 -1.078,-1.629 -1.078,-2.605 0,-0.977 0.386,-1.914 1.078,-2.606 0.691,-0.691 1.629,-1.082 2.605,-1.082 0.981,0 1.918,0.391 2.61,1.082 0.691,0.692 1.078,1.629 1.078,2.606 z"
         style="fill:#000000;fill-opacity:1;fill-rule:evenodd;stroke:none"
         id="path58" />
      <path
         d="m 49.766,100.539 c 0,0.977 -0.387,1.914 -1.078,2.606 -0.692,0.691 -1.629,1.078 -2.61,1.078 -0.976,0 -1.914,-0.387 -2.605,-1.078 -0.692,-0.692 -1.078,-1.629 -1.078,-2.606 0,-0.98 0.386,-1.918 1.078,-2.609 0.691,-0.692 1.629,-1.078 2.605,-1.078 0.981,0 1.918,0.386 2.61,1.078 0.691,0.691 1.078,1.629 1.078,2.609 z"
         style="fill:#000000;fill-opacity:1;fill-rule:evenodd;stroke:none"
         id="path60" />
      <path
         d="m 125.172,100.539 c 0,0.977 -0.391,1.914 -1.082,2.606 -0.692,0.691 -1.629,1.078 -2.606,1.078 -0.976,0 -1.918,-0.387 -2.605,-1.078 -0.691,-0.692 -1.082,-1.629 -1.082,-2.606 0,-0.98 0.391,-1.918 1.082,-2.609 0.687,-0.692 1.629,-1.078 2.605,-1.078 0.977,0 1.914,0.386 2.606,1.078 0.691,0.691 1.082,1.629 1.082,2.609 z"
         style="fill:#000000;fill-opacity:1;fill-rule:evenodd;stroke:none"
         id="path62" />
      <path
         d="m 230.398,100.539 -1.054,0.906 -1.223,0.672 -1.332,0.406 -1.383,0.106 -1.375,-0.191 -1.308,-0.485 -1.18,-0.746 -1,-0.961 -0.789,-1.117 -0.547,-1.211 -0.293,-1.23 -0.043,-1.176 0.184,-1.047 0.383,-0.86 0.535,-0.621 0.636,-0.339 0.672,-0.047 0.657,0.257 0.566,0.543 0.434,0.797 0.246,1 0.023,1.145 -0.223,1.222 -0.472,1.223 -0.719,1.153 -0.945,1.015 -1.133,0.813 -1.274,0.562 -1.363,0.277 -1.39,-0.019 -1.352,-0.32 -1.258,-0.602 -1.109,-0.844 -0.914,-1.039 -0.688,-1.164 -0.437,-1.23 -0.184,-1.215 0.055,-1.129 0.277,-0.973 0.453,-0.765 0.586,-0.504 0.656,-0.215 0.676,0.086 0.625,0.383 0.516,0.656 0.355,0.891 0.157,1.07 -0.082,1.187 -0.329,1.231 -0.582,1.203 -0.816,1.102 -1.031,0.933 -1.2,0.711 -1.32,0.445 -1.383,0.149 -1.379,-0.149 -1.32,-0.445 -1.199,-0.711 -1.031,-0.933 -0.821,-1.102 -0.582,-1.203 -0.328,-1.231 -0.078,-1.187 0.152,-1.07 0.356,-0.891 0.519,-0.656 0.625,-0.383 0.672,-0.086 0.66,0.215 0.586,0.504 0.454,0.765 0.273,0.973 0.059,1.129 -0.188,1.215 -0.437,1.23 -0.688,1.164 -0.914,1.039 -1.109,0.844 -1.258,0.602 -1.352,0.32 -1.39,0.019 -1.36,-0.277 -1.277,-0.562 -1.133,-0.813 -0.941,-1.015 -0.723,-1.153 -0.473,-1.223 -0.222,-1.222 0.023,-1.145 0.246,-1 0.434,-0.797 0.57,-0.543 0.653,-0.257 0.675,0.047 0.633,0.339 0.535,0.621 0.383,0.86 0.188,1.047 -0.047,1.176 -0.293,1.23 -0.547,1.211 -0.785,1.117 -1.004,0.961 -1.18,0.746 -1.305,0.485 -1.379,0.191 -1.382,-0.106 -1.332,-0.406 -1.223,-0.672 -1.055,-0.906"
         style="fill:none;stroke:#000000;stroke-width:0.9216;stroke-linecap:square;stroke-linejoin:miter;stroke-miterlimit:3.25;stroke-dasharray:none;stroke-opacity:1"
         id="path64" />
      <text
         xml:space="preserve"
         transform="translate(201.07875,128.41036)"
         style="font-variant:normal;font-size:21.12px;font-family:CairoFont-0;-inkscape-font-specification:CairoFont-0-0;writing-mode:lr-tb;fill:#000000;fill-opacity:1;fill-rule:nonzero;stroke:none"
         id="text68"><tspan
           x="0"
           y="0"
           id="tspan66">g</tspan></text>
      <path
         d="m 305.805,100.539 1.054,-0.906 1.223,-0.676 1.332,-0.402 1.383,-0.11 1.379,0.196 1.304,0.484 1.18,0.742 1,0.961 0.789,1.121 0.547,1.211 0.293,1.231 0.043,1.171 -0.184,1.051 -0.382,0.86 -0.536,0.621 -0.636,0.34 -0.672,0.043 -0.652,-0.258 -0.571,-0.543 -0.433,-0.793 -0.246,-1 -0.024,-1.149 0.223,-1.218 0.472,-1.227 0.719,-1.152 0.945,-1.012 1.133,-0.813 1.274,-0.562 1.363,-0.281 1.391,0.023 1.351,0.32 1.258,0.602 1.109,0.844 0.914,1.035 0.688,1.168 0.437,1.227 0.184,1.214 -0.055,1.129 -0.273,0.977 -0.457,0.762 -0.582,0.503 -0.66,0.215 -0.676,-0.086 -0.621,-0.382 -0.52,-0.657 -0.355,-0.89 -0.156,-1.071 0.082,-1.187 0.328,-1.231 0.582,-1.203 0.82,-1.101 1.027,-0.934 1.204,-0.711 1.316,-0.441 1.383,-0.153 1.383,0.153 1.316,0.441 1.203,0.711 1.027,0.934 0.821,1.101 0.582,1.203 0.328,1.231 0.082,1.187 -0.156,1.071 -0.356,0.89 -0.519,0.657 -0.621,0.382 -0.676,0.086 -0.66,-0.215 -0.582,-0.503 -0.457,-0.762 -0.274,-0.977 -0.058,-1.129 0.187,-1.214 0.438,-1.227 0.687,-1.168 0.914,-1.035 1.109,-0.844 1.258,-0.602 1.352,-0.32 1.39,-0.023 1.36,0.281 1.277,0.562 1.133,0.813 0.945,1.012 0.719,1.152 0.473,1.227 0.222,1.218 -0.023,1.149 -0.246,1 -0.434,0.793 -0.57,0.543 -0.652,0.258 -0.672,-0.043 -0.637,-0.34 -0.535,-0.621 -0.383,-0.86 -0.184,-1.051 0.043,-1.171 0.293,-1.231 0.547,-1.211 0.789,-1.121 1,-0.961 1.18,-0.742 1.305,-0.484 1.379,-0.196 1.382,0.11 1.332,0.402 1.223,0.676 1.055,0.906"
         style="fill:none;stroke:#000000;stroke-width:0.9216;stroke-linecap:square;stroke-linejoin:miter;stroke-miterlimit:3.25;stroke-dasharray:none;stroke-opacity:1"
         id="path70" />
      <text
         xml:space="preserve"
         transform="translate(322.56239,134.27509)"
         style="font-variant:normal;font-size:21.12px;font-family:CairoFont-0;-inkscape-font-specification:CairoFont-0-0;writing-mode:lr-tb;fill:#000000;fill-opacity:1;fill-rule:nonzero;stroke:none"
         id="text74"><tspan
           x="0"
           y="0"
           id="tspan72">g</tspan></text>
      <path
         d="m 305.805,100.539 0.859,-0.949 0.656,-1.133 0.414,-1.269 0.137,-1.344 -0.144,-1.348 -0.426,-1.277 -0.672,-1.145 -0.883,-0.957 -1.035,-0.738 -1.133,-0.496 -1.168,-0.262 -1.144,-0.051 -1.075,0.137 -0.957,0.281 -0.804,0.383 -0.618,0.445 -0.41,0.469 -0.191,0.465 0.035,0.434 0.258,0.375 0.473,0.296 0.664,0.196 0.82,0.074 0.941,-0.074 1.012,-0.242 1.027,-0.434 0.985,-0.637 0.883,-0.836 0.722,-1.023 0.512,-1.18 0.258,-1.289 -0.02,-1.34 -0.304,-1.316 -0.575,-1.227 -0.812,-1.07 -1.004,-0.863 -1.141,-0.617 -1.211,-0.364 -1.226,-0.109 -1.184,0.125 -1.09,0.312 -0.964,0.461 -0.809,0.559 -0.625,0.601 -0.426,0.602 -0.222,0.559 -0.016,0.484 0.195,0.387 0.391,0.261 0.566,0.122 0.711,-0.032 0.824,-0.195 0.887,-0.371 0.899,-0.559 0.843,-0.742 0.739,-0.922 0.574,-1.082 0.355,-1.207 0.106,-1.285 -0.176,-1.309 -0.453,-1.265 -0.711,-1.149 -0.942,-0.976 -1.113,-0.746 -1.222,-0.492 -1.274,-0.215 -1.258,0.047 -1.191,0.289 -1.074,0.488 -0.926,0.637 -0.762,0.73 -0.578,0.77 -0.394,0.75 -0.204,0.683 -0.023,0.578 0.16,0.446 0.324,0.281 0.473,0.105 0.598,-0.078 0.687,-0.265 0.738,-0.457 0.739,-0.645 0.683,-0.82 0.575,-0.985 0.41,-1.113 0.195,-1.215 -0.051,-1.265 -0.32,-1.258 -0.59,-1.184 -0.836,-1.051 -1.047,-0.859 -1.203,-0.617 -1.293,-0.352 -1.312,-0.066 -1.27,0.203 -1.172,0.449 -1.027,0.649 -0.856,0.8 -0.675,0.891 -0.485,0.918 -0.301,0.895 -0.132,0.816 0.027,0.687 0.172,0.532 0.301,0.344 0.406,0.14 0.5,-0.07 0.559,-0.285 0.582,-0.489 0.57,-0.683 0.504,-0.86 0.398,-1.003 0.235,-1.126 0.031,-1.195 -0.203,-1.219 -0.457,-1.187 -0.711,-1.09 -0.942,-0.933 -1.136,-0.727 -1.27,-0.473 -1.336,-0.199 -1.332,0.09 -1.262,0.355 -1.129,0.602"
         style="fill:none;stroke:#000000;stroke-width:0.9216;stroke-linecap:square;stroke-linejoin:miter;stroke-miterlimit:3.25;stroke-dasharray:none;stroke-opacity:1"
         id="path76" />
      <text
         xml:space="preserve"
         transform="translate(303.45101,68.50511)"
         style="font-variant:normal;font-size:21.12px;font-family:CairoFont-0;-inkscape-font-specification:CairoFont-0-0;writing-mode:lr-tb;fill:#000000;fill-opacity:1;fill-rule:nonzero;stroke:none"
         id="text80"><tspan
           x="0"
           y="0"
           id="tspan78">g</tspan></text>
      <path
         d="m 230.398,100.539 -0.789,-0.934 -0.613,-1.089 -0.402,-1.211 -0.164,-1.285 0.086,-1.297 0.328,-1.258 0.558,-1.156 0.758,-1.008 0.91,-0.828 1.028,-0.625 1.086,-0.414 1.105,-0.211 1.07,-0.028 1,0.129 0.895,0.254 0.754,0.34 0.597,0.398 0.418,0.422 0.227,0.418 0.031,0.391 -0.164,0.34 -0.355,0.273 -0.528,0.192 -0.679,0.086 -0.801,-0.036 -0.887,-0.175 -0.929,-0.332 -0.93,-0.5 -0.883,-0.676 -0.781,-0.848 -0.637,-1.004 -0.449,-1.14 -0.231,-1.231 0.012,-1.281 0.258,-1.266 0.496,-1.203 0.719,-1.082 0.898,-0.914 1.039,-0.711 1.129,-0.488 1.172,-0.262 1.16,-0.043 1.11,0.156 1.019,0.313 0.902,0.441 0.762,0.52 0.602,0.562 0.433,0.563 0.254,0.527 0.074,0.461 -0.101,0.375 -0.277,0.266 -0.43,0.14 -0.57,0.008 -0.676,-0.137 -0.754,-0.293 -0.793,-0.453 -0.781,-0.613 -0.723,-0.773 -0.621,-0.926 -0.469,-1.059 -0.277,-1.16 -0.063,-1.223 0.18,-1.242 0.422,-1.211 0.656,-1.117 0.859,-0.976 1.024,-0.793 1.148,-0.575 1.211,-0.339 1.223,-0.098 1.187,0.129 1.114,0.332 0.996,0.5 0.863,0.621 0.711,0.703 0.551,0.73 0.39,0.719 0.227,0.664 0.066,0.571 -0.082,0.457 -0.222,0.312 -0.352,0.156 -0.461,-0.007 -0.547,-0.184 -0.605,-0.352 -0.629,-0.523 -0.606,-0.684 -0.546,-0.836 -0.442,-0.968 -0.289,-1.078 -0.105,-1.157 0.105,-1.187 0.34,-1.184 0.57,-1.121 0.793,-1.008 0.977,-0.847 1.129,-0.649 1.226,-0.422 1.27,-0.172 1.254,0.071 1.187,0.301 1.082,0.503 0.942,0.668 0.785,0.79 0.617,0.863 0.445,0.89 0.285,0.864 0.137,0.797 0.004,0.691 -0.121,0.555 -0.227,0.394 -0.312,0.219 -0.387,0.027 -0.437,-0.164 -0.469,-0.355 -0.465,-0.535 -0.43,-0.704 -0.359,-0.847 -0.254,-0.973 -0.105,-1.062 0.07,-1.118 0.27,-1.128 0.488,-1.094 0.703,-1.012 0.902,-0.879 1.074,-0.699 1.2,-0.488 1.277,-0.25 1.297,-0.004 1.254,0.242 1.164,0.473 1.027,0.664 0.86,0.824 0.675,0.933 0.489,1 0.304,1.008 0.141,0.981 -0.004,0.902 -0.125,0.793 -0.219,0.649 -0.289,0.48 -0.34,0.293 -0.367,0.094 -0.375,-0.11 -0.363,-0.304 -0.332,-0.493 -0.27,-0.664 -0.187,-0.808 -0.07,-0.926 0.07,-1.004 0.242,-1.047 0.422,-1.039 0.625,-0.984 0.812,-0.883 0.993,-0.73 1.14,-0.54 1.242,-0.32 1.297,-0.074 1.289,0.172 1.227,0.418 1.105,0.633 0.95,0.816 0.757,0.961"
         style="fill:none;stroke:#000000;stroke-width:0.9216;stroke-linecap:square;stroke-linejoin:miter;stroke-miterlimit:3.25;stroke-dasharray:none;stroke-opacity:1"
         id="path82" />
      <text
         xml:space="preserve"
         transform="translate(228.29583,60.449272)"
         style="font-variant:normal;font-size:21.12px;font-family:CairoFont-0;-inkscape-font-specification:CairoFont-0-0;writing-mode:lr-tb;fill:#000000;fill-opacity:1;fill-rule:nonzero;stroke:none"
         id="text86"><tspan
           x="0"
           y="0"
           id="tspan84">g</tspan></text>
      <path
         d="m 230.398,100.539 0.891,0.887 1.066,0.711 1.211,0.496 1.297,0.25 1.325,-0.008 1.292,-0.273 1.204,-0.516 1.054,-0.727 0.875,-0.902 0.668,-1.023 0.453,-1.094 0.246,-1.113 0.059,-1.079 -0.101,-1 -0.235,-0.878 -0.328,-0.727 -0.391,-0.551 -0.422,-0.344 -0.425,-0.136 -0.407,0.082 -0.355,0.293 -0.293,0.488 -0.199,0.672 -0.086,0.816 0.058,0.93 0.215,1 0.399,1.019 0.59,0.985 0.785,0.898 0.965,0.762 1.121,0.578 1.242,0.352 1.305,0.105 1.312,-0.16 1.262,-0.414 1.144,-0.652 0.985,-0.856 0.777,-1.015 0.555,-1.118 0.324,-1.172 0.102,-1.171 -0.098,-1.125 -0.262,-1.036 -0.39,-0.906 -0.473,-0.754 -0.52,-0.574 -0.519,-0.383 -0.492,-0.183 -0.43,0.027 -0.352,0.223 -0.246,0.418 -0.121,0.582 0.016,0.722 0.168,0.828 0.34,0.891 0.511,0.902 0.692,0.864 0.867,0.765 1.027,0.625 1.156,0.434 1.25,0.207 1.293,-0.043 1.278,-0.301 1.203,-0.555 1.074,-0.781 0.887,-0.969 0.672,-1.109 0.433,-1.199 0.184,-1.227 -0.047,-1.211 -0.254,-1.136 -0.426,-1.035 -0.55,-0.895 -0.633,-0.738 -0.66,-0.563 -0.645,-0.379 -0.59,-0.191 -0.504,-0.008 -0.382,0.176 -0.25,0.344 -0.094,0.492 0.074,0.617 0.242,0.707 0.422,0.758 0.598,0.765 0.769,0.719 0.926,0.621 1.066,0.477 1.176,0.285 1.242,0.059 1.258,-0.184 1.223,-0.437 1.125,-0.68 0.98,-0.899 0.778,-1.07 0.55,-1.191 0.297,-1.258 0.047,-1.266 -0.195,-1.222 -0.41,-1.129 -0.582,-1 -0.707,-0.852 -0.785,-0.68 -0.805,-0.507 -0.778,-0.328 -0.707,-0.161 -0.593,0.004 -0.457,0.16 -0.289,0.297 -0.11,0.418 0.078,0.52 0.274,0.586 0.461,0.621 0.644,0.613 0.813,0.563 0.961,0.461 1.086,0.316 1.168,0.133 1.211,-0.082 1.207,-0.325 1.148,-0.562 1.031,-0.793 0.867,-0.996 0.657,-1.152 0.418,-1.254 0.156,-1.301 -0.102,-1.285 -0.339,-1.215 -0.559,-1.098 -0.727,-0.945 -0.847,-0.773 -0.918,-0.594 -0.938,-0.41 -0.902,-0.239 -0.816,-0.078 -0.696,0.063 -0.539,0.187 -0.359,0.293 -0.16,0.379 0.05,0.445 0.254,0.485 0.461,0.488 0.649,0.469 0.816,0.402 0.957,0.297 1.07,0.156 1.137,-0.019 1.164,-0.231 1.137,-0.449 1.055,-0.68 0.925,-0.89 0.743,-1.074 0.519,-1.215 0.274,-1.297 0.011,-1.321 -0.246,-1.285 -0.488,-1.187 -0.692,-1.047"
         style="fill:none;stroke:#000000;stroke-width:0.9216;stroke-linecap:square;stroke-linejoin:miter;stroke-miterlimit:3.25;stroke-dasharray:none;stroke-opacity:1"
         id="path88" />
      <text
         xml:space="preserve"
         transform="translate(264.589,116.39298)"
         style="font-variant:normal;font-size:21.12px;font-family:CairoFont-0;-inkscape-font-specification:CairoFont-0-0;writing-mode:lr-tb;fill:#000000;fill-opacity:1;fill-rule:nonzero;stroke:none"
         id="text92"><tspan
           x="0"
           y="0"
           id="tspan90">g</tspan></text>
      <path
         d="m 230.398,100.539 -0.761,0.992 -0.575,1.153 -0.343,1.265 -0.094,1.328 0.164,1.325 0.418,1.265 0.648,1.145 0.84,0.98 0.993,0.778 1.085,0.558 1.137,0.34 1.129,0.133 1.078,-0.051 0.988,-0.203 0.864,-0.317 0.711,-0.394 0.531,-0.43 0.344,-0.441 0.14,-0.418 -0.062,-0.375 -0.262,-0.305 -0.449,-0.219 -0.617,-0.113 -0.754,0.008 -0.86,0.152 -0.918,0.309 -0.933,0.476 -0.899,0.661 -0.804,0.839 -0.668,1.004 -0.485,1.149 -0.257,1.25 -0.012,1.305 0.242,1.3 0.496,1.239 0.727,1.121 0.922,0.949 1.07,0.738 1.164,0.504 1.207,0.266 1.195,0.039 1.141,-0.172 1.047,-0.34 0.922,-0.469 0.769,-0.554 0.606,-0.594 0.429,-0.586 0.246,-0.547 0.059,-0.473 -0.117,-0.367 -0.293,-0.25 -0.453,-0.113 -0.582,0.035 -0.692,0.191 -0.754,0.36 -0.777,0.527 -0.758,0.696 -0.676,0.855 -0.554,1.008 -0.383,1.129 -0.172,1.222 0.066,1.266 0.317,1.254 0.562,1.195 0.793,1.071 0.989,0.898 1.136,0.687 1.227,0.446 1.266,0.195 1.246,-0.051 1.179,-0.273 1.071,-0.469 0.933,-0.613 0.781,-0.715 0.614,-0.762 0.441,-0.761 0.278,-0.715 0.113,-0.629 -0.043,-0.512 -0.188,-0.363 -0.32,-0.199 -0.43,-0.028 -0.523,0.16 -0.582,0.34 -0.606,0.524 -0.589,0.691 -0.528,0.852 -0.422,0.988 -0.265,1.101 -0.078,1.176 0.144,1.211 0.383,1.199 0.621,1.125 0.844,1.008 1.035,0.832 1.184,0.621 1.277,0.375 1.308,0.121 1.282,-0.132 1.203,-0.368 1.078,-0.574 0.926,-0.738 0.754,-0.848 0.574,-0.914 0.394,-0.922 0.235,-0.886 0.082,-0.801 -0.051,-0.68 -0.168,-0.523 -0.266,-0.348 -0.343,-0.152 -0.403,0.047 -0.441,0.25 -0.449,0.445 -0.426,0.629 -0.371,0.797 -0.274,0.933 -0.14,1.043 0.031,1.117 0.227,1.145 0.445,1.121 0.668,1.051 0.883,0.926 1.062,0.757 1.211,0.539 1.305,0.301 1.332,0.039 1.301,-0.214 1.214,-0.458 1.079,-0.668 0.906,-0.839 0.711,-0.957 0.511,-1.036 0.317,-1.046 0.141,-1.024 -0.012,-0.945 -0.141,-0.828 -0.234,-0.684 -0.309,-0.504 -0.351,-0.312 -0.371,-0.106 -0.372,0.106 -0.351,0.312 -0.309,0.504 -0.234,0.684 -0.141,0.828 -0.011,0.945 0.14,1.024 0.317,1.046 0.511,1.036 0.711,0.957 0.907,0.839 1.078,0.668 1.214,0.458 1.301,0.214 1.336,-0.039 1.301,-0.301 1.211,-0.539 1.066,-0.757 0.879,-0.926 0.668,-1.051 0.446,-1.121 0.226,-1.145 0.031,-1.117 -0.14,-1.043 -0.274,-0.933 -0.371,-0.797 -0.426,-0.629 -0.449,-0.445 -0.437,-0.25 -0.407,-0.047 -0.343,0.152 -0.266,0.348 -0.164,0.523 -0.055,0.68 0.082,0.801 0.235,0.886 0.398,0.922 0.57,0.914 0.754,0.848 0.926,0.738 1.078,0.574 1.203,0.368 1.282,0.132 1.308,-0.121 1.278,-0.375 1.183,-0.621 1.035,-0.832 0.844,-1.008 0.621,-1.125 0.383,-1.199 0.145,-1.211 -0.079,-1.176 -0.265,-1.101 -0.422,-0.988 -0.527,-0.852 -0.59,-0.691 -0.606,-0.524 -0.582,-0.34 -0.523,-0.16 -0.43,0.028 -0.32,0.199 -0.188,0.363 -0.039,0.512 0.11,0.629 0.277,0.715 0.445,0.761 0.61,0.762 0.781,0.715 0.933,0.613 1.071,0.469 1.179,0.273 1.247,0.051 1.265,-0.195 1.227,-0.446 1.136,-0.687 0.989,-0.898 0.793,-1.071 0.562,-1.195 0.321,-1.254 0.062,-1.266 -0.172,-1.222 -0.383,-1.129 -0.55,-1.008 -0.68,-0.855 -0.754,-0.696 -0.781,-0.527 -0.754,-0.36 -0.692,-0.191 -0.582,-0.035 -0.449,0.113 -0.293,0.25 -0.121,0.367 0.059,0.473 0.246,0.547 0.429,0.586 0.606,0.594 0.769,0.554 0.922,0.469 1.047,0.34 1.141,0.172 1.195,-0.039 1.207,-0.266 1.164,-0.504 1.071,-0.738 0.921,-0.949 0.727,-1.121 0.496,-1.239 0.242,-1.3 -0.011,-1.305 -0.258,-1.25 -0.485,-1.149 -0.664,-1.004 -0.808,-0.839 -0.895,-0.661 -0.933,-0.476 -0.922,-0.309 -0.856,-0.152 -0.758,-0.008 -0.613,0.113 -0.453,0.219 -0.262,0.305 -0.062,0.375 0.14,0.418 0.344,0.441 0.531,0.43 0.711,0.394 0.864,0.317 0.988,0.203 1.078,0.051 1.133,-0.133 1.133,-0.34 1.09,-0.558 0.988,-0.778 0.84,-0.98 0.648,-1.145 0.418,-1.265 0.164,-1.325 -0.094,-1.328 -0.343,-1.265 -0.575,-1.153 -0.761,-0.992"
         style="fill:none;stroke:#000000;stroke-width:0.9216;stroke-linecap:square;stroke-linejoin:miter;stroke-miterlimit:3.25;stroke-dasharray:none;stroke-opacity:1"
         id="path94" />
      <text
         xml:space="preserve"
         transform="translate(261.82057,166.11218)"
         style="font-variant:normal;font-size:21.12px;font-family:CairoFont-0;-inkscape-font-specification:CairoFont-0-0;writing-mode:lr-tb;fill:#000000;fill-opacity:1;fill-rule:nonzero;stroke:none"
         id="text98"><tspan
           x="0"
           y="0"
           id="tspan96">g</tspan></text>
      <path
         d="m 280.168,62.836 c 0,0.976 -0.391,1.914 -1.082,2.605 -0.691,0.692 -1.629,1.082 -2.606,1.082 -0.976,0 -1.914,-0.39 -2.605,-1.082 -0.691,-0.691 -1.082,-1.629 -1.082,-2.605 0,-0.977 0.391,-1.914 1.082,-2.606 0.691,-0.691 1.629,-1.082 2.605,-1.082 0.977,0 1.915,0.391 2.606,1.082 0.691,0.692 1.082,1.629 1.082,2.606 z"
         style="fill:#000000;fill-opacity:1;fill-rule:evenodd;stroke:none"
         id="path100" />
      <path
         d="m 309.488,100.539 c 0,0.977 -0.386,1.914 -1.078,2.606 -0.691,0.691 -1.629,1.078 -2.605,1.078 -0.981,0 -1.918,-0.387 -2.61,-1.078 -0.691,-0.692 -1.078,-1.629 -1.078,-2.606 0,-0.98 0.387,-1.918 1.078,-2.609 0.692,-0.692 1.629,-1.078 2.61,-1.078 0.976,0 1.914,0.386 2.605,1.078 0.692,0.691 1.078,1.629 1.078,2.609 z"
         style="fill:#000000;fill-opacity:1;fill-rule:evenodd;stroke:none"
         id="path102" />
      <path
         d="m 234.086,100.539 c 0,0.977 -0.387,1.914 -1.078,2.606 -0.692,0.691 -1.629,1.078 -2.61,1.078 -0.976,0 -1.914,-0.387 -2.605,-1.078 -0.691,-0.692 -1.078,-1.629 -1.078,-2.606 0,-0.98 0.387,-1.918 1.078,-2.609 0.691,-0.692 1.629,-1.078 2.605,-1.078 0.981,0 1.918,0.386 2.61,1.078 0.691,0.691 1.078,1.629 1.078,2.609 z"
         style="fill:#000000;fill-opacity:1;fill-rule:evenodd;stroke:none"
         id="path104" />
      <path
         d="m 418.91,100.539 -0.996,0.836 -1.141,0.648 -1.238,0.426 -1.297,0.18 -1.304,-0.074 -1.27,-0.325 -1.184,-0.558 -1.062,-0.762 -0.898,-0.93 -0.715,-1.05 -0.504,-1.118 -0.297,-1.124 -0.082,-1.083 0.109,-0.976 0.281,-0.832 0.418,-0.637 0.52,-0.41 0.574,-0.168 0.582,0.09 0.543,0.336 0.457,0.57 0.328,0.77 0.164,0.937 -0.019,1.055 -0.231,1.121 -0.437,1.125 -0.649,1.074 -0.843,0.973 -1.016,0.82 -1.148,0.625 -1.25,0.402 -1.297,0.153 -1.305,-0.102 -1.262,-0.347 -1.175,-0.582 -1.043,-0.782 -0.883,-0.945 -0.692,-1.059 -0.484,-1.121 -0.273,-1.125 -0.063,-1.07 0.129,-0.969 0.297,-0.808 0.434,-0.614 0.527,-0.386 0.578,-0.141 0.578,0.113 0.535,0.364 0.446,0.589 0.312,0.793 0.148,0.95 -0.042,1.066 -0.25,1.121 -0.465,1.125 -0.668,1.067 -0.864,0.96 -1.027,0.801 -1.164,0.602 -1.254,0.375 -1.305,0.125 -1.3,-0.125 -1.254,-0.375 -1.164,-0.602 -1.028,-0.801 -0.863,-0.96 -0.672,-1.067 -0.461,-1.125 -0.25,-1.121 -0.043,-1.066 0.149,-0.95 0.312,-0.793 0.446,-0.589 0.535,-0.364 0.578,-0.113 0.578,0.141 0.527,0.386 0.43,0.614 0.301,0.808 0.129,0.969 -0.067,1.07 -0.269,1.125 -0.485,1.121 -0.691,1.059 -0.883,0.945 -1.047,0.782 -1.172,0.582 -1.261,0.347 -1.305,0.102 -1.301,-0.153 -1.246,-0.402 -1.152,-0.625 -1.012,-0.82 -0.844,-0.973 -0.648,-1.074 -0.442,-1.125 -0.226,-1.121 -0.024,-1.055 0.168,-0.937 0.329,-0.77 0.457,-0.57 0.539,-0.336 0.582,-0.09 0.574,0.168 0.519,0.41 0.422,0.637 0.282,0.832 0.109,0.976 -0.086,1.083 -0.293,1.124 -0.508,1.118 -0.711,1.05 -0.902,0.93 -1.059,0.762 -1.183,0.558 -1.27,0.325 -1.308,0.074 -1.297,-0.18 -1.239,-0.426 -1.136,-0.648 -0.996,-0.836"
         style="fill:none;stroke:#000000;stroke-width:0.9216;stroke-linecap:square;stroke-linejoin:miter;stroke-miterlimit:3.25;stroke-dasharray:none;stroke-opacity:1"
         id="path106" />
      <text
         xml:space="preserve"
         transform="translate(387.49329,128.41036)"
         style="font-variant:normal;font-size:21.12px;font-family:CairoFont-0;-inkscape-font-specification:CairoFont-0-0;writing-mode:lr-tb;fill:#000000;fill-opacity:1;fill-rule:nonzero;stroke:none"
         id="text110"><tspan
           x="0"
           y="0"
           id="tspan108">g</tspan></text>
      <path
         d="m 485.934,100.539 0.996,-0.84 1.14,-0.648 1.239,-0.422 1.296,-0.18 1.305,0.074 1.27,0.325 1.183,0.554 1.063,0.766 0.898,0.93 0.711,1.047 0.508,1.117 0.297,1.129 0.082,1.078 -0.11,0.98 -0.281,0.828 -0.418,0.637 -0.519,0.414 -0.574,0.164 -0.582,-0.086 -0.543,-0.336 -0.457,-0.57 -0.329,-0.773 -0.164,-0.938 0.02,-1.055 0.23,-1.117 0.438,-1.125 0.648,-1.078 0.844,-0.973 1.016,-0.82 1.148,-0.625 1.246,-0.398 1.301,-0.153 1.305,0.098 1.261,0.352 1.176,0.578 1.043,0.785 0.883,0.941 0.691,1.063 0.485,1.117 0.273,1.125 0.063,1.074 -0.129,0.965 -0.297,0.812 -0.434,0.614 -0.527,0.386 -0.578,0.141 -0.578,-0.113 -0.535,-0.363 -0.446,-0.59 -0.312,-0.793 -0.149,-0.953 0.043,-1.063 0.25,-1.121 0.465,-1.125 0.668,-1.066 0.863,-0.961 1.028,-0.801 1.164,-0.606 1.254,-0.371 1.304,-0.129 1.301,0.129 1.254,0.371 1.164,0.606 1.027,0.801 0.864,0.961 0.672,1.066 0.46,1.125 0.25,1.121 0.043,1.063 -0.148,0.953 -0.312,0.793 -0.446,0.59 -0.535,0.363 -0.578,0.113 -0.578,-0.141 -0.528,-0.386 -0.433,-0.614 -0.297,-0.812 -0.129,-0.965 0.067,-1.074 0.269,-1.125 0.484,-1.117 0.692,-1.063 0.883,-0.941 1.046,-0.785 1.172,-0.578 1.262,-0.352 1.305,-0.098 1.301,0.153 1.246,0.398 1.152,0.625 1.012,0.82 0.843,0.973 0.649,1.078 0.441,1.125 0.227,1.117 0.023,1.055 -0.168,0.938 -0.328,0.773 -0.457,0.57 -0.539,0.336 -0.582,0.086 -0.574,-0.164 -0.52,-0.414 -0.422,-0.637 -0.281,-0.828 -0.109,-0.98 0.086,-1.078 0.293,-1.129 0.508,-1.117 0.71,-1.047 0.903,-0.93 1.058,-0.766 1.184,-0.554 1.27,-0.325 1.308,-0.074 1.293,0.18 1.242,0.422 1.137,0.648 0.996,0.84"
         style="fill:none;stroke:#000000;stroke-width:0.9216;stroke-linecap:square;stroke-linejoin:miter;stroke-miterlimit:3.25;stroke-dasharray:none;stroke-opacity:1"
         id="path112" />
      <text
         xml:space="preserve"
         transform="translate(504.78784,87.884749)"
         style="font-variant:normal;font-size:21.12px;font-family:CairoFont-0;-inkscape-font-specification:CairoFont-0-0;writing-mode:lr-tb;fill:#000000;fill-opacity:1;fill-rule:nonzero;stroke:none"
         id="text116"><tspan
           x="0"
           y="0"
           id="tspan114">g</tspan></text>
      <path
         d="m 418.91,100.539 c -0.316,8.981 3.113,17.691 9.465,24.043 6.355,6.356 15.066,9.785 24.047,9.469"
         style="fill:none;stroke:#000000;stroke-width:0.9216;stroke-linecap:square;stroke-linejoin:miter;stroke-miterlimit:3.25;stroke-dasharray:none;stroke-opacity:1"
         id="path118" />
      <path
         d="m 431.93,128.137 -9.477,-4.739 4.738,-4.738 z"
         style="fill:#000000;fill-opacity:1;fill-rule:evenodd;stroke:none"
         id="path120" />
      <text
         xml:space="preserve"
         transform="translate(411.78047,148.65218)"
         style="font-variant:normal;font-size:21.12px;font-family:CairoFont-0;-inkscape-font-specification:CairoFont-0-0;writing-mode:lr-tb;fill:#000000;fill-opacity:1;fill-rule:nonzero;stroke:none"
         id="text124"><tspan
           x="0"
           y="0"
           id="tspan122">u</tspan></text>
      <path
         d="m 452.422,134.051 c 18.492,-0.039 33.473,-15.02 33.512,-33.512"
         style="fill:none;stroke:#000000;stroke-width:0.9216;stroke-linecap:square;stroke-linejoin:miter;stroke-miterlimit:3.25;stroke-dasharray:none;stroke-opacity:1"
         id="path126" />
      <path
         d="m 479.652,120.66 -4.738,9.481 -4.738,-4.743 z"
         style="fill:#000000;fill-opacity:1;fill-rule:evenodd;stroke:none"
         id="path128" />
      <text
         xml:space="preserve"
         transform="translate(480.21405,148.28354)"
         style="font-variant:normal;font-size:21.12px;font-family:CairoFont-0;-inkscape-font-specification:CairoFont-0-0;writing-mode:lr-tb;fill:#000000;fill-opacity:1;fill-rule:nonzero;stroke:none"
         id="text132"><tspan
           x="0"
           y="0"
           id="tspan130">u</tspan></text>
      <path
         d="m 452.422,134.051 -0.781,-0.957 -0.621,-1.082 -0.434,-1.172 -0.227,-1.231 -0.011,-1.25 0.203,-1.234 0.414,-1.18 0.601,-1.093 0.766,-0.973 0.895,-0.828 0.988,-0.66 1.035,-0.485 1.039,-0.304 1.004,-0.125 0.914,0.046 0.793,0.192 0.637,0.316 0.453,0.414 0.246,0.477 0.031,0.496 -0.187,0.488 -0.395,0.434 -0.586,0.348 -0.75,0.23 -0.887,0.09 -0.98,-0.074 -1.035,-0.25 -1.039,-0.434 -1.008,-0.613 -0.926,-0.782 -0.804,-0.933 -0.653,-1.059 -0.469,-1.16 -0.265,-1.223 -0.051,-1.25 0.168,-1.242 0.375,-1.191 0.57,-1.109 0.739,-0.997 0.875,-0.855 0.972,-0.691 1.031,-0.516 1.043,-0.336 1.012,-0.156 0.934,0.015 0.82,0.168 0.664,0.297 0.485,0.399 0.285,0.464 0.07,0.5 -0.148,0.489 -0.356,0.445 -0.555,0.367 -0.722,0.254 -0.864,0.117 -0.968,-0.043 -1.028,-0.222 -1.043,-0.399 -1.015,-0.582 -0.946,-0.75 -0.832,-0.91 -0.679,-1.039 -0.504,-1.145 -0.301,-1.21 -0.09,-1.25 0.129,-1.247 0.34,-1.203 0.535,-1.125 0.711,-1.019 0.852,-0.883 0.961,-0.723 1.023,-0.547 1.043,-0.367 1.023,-0.187 0.95,-0.016 0.843,0.141 0.696,0.277 0.519,0.383 0.321,0.457 0.109,0.496 -0.109,0.492 -0.321,0.457 -0.519,0.383 -0.696,0.277 -0.843,0.145 -0.95,-0.016 -1.023,-0.187 -1.043,-0.367 -1.023,-0.551 -0.961,-0.723 -0.852,-0.883 -0.711,-1.015 -0.535,-1.129 -0.34,-1.203 -0.129,-1.246 0.09,-1.246 0.301,-1.215 0.504,-1.145 0.679,-1.039 0.832,-0.906 0.946,-0.754 1.015,-0.578 1.043,-0.402 1.028,-0.219 0.968,-0.043 0.864,0.113 0.722,0.254 0.555,0.367 0.356,0.445 0.148,0.493 -0.07,0.496 -0.285,0.468 -0.485,0.399 -0.664,0.297 -0.82,0.168 -0.934,0.015 -1.012,-0.156 -1.043,-0.336 -1.031,-0.515 -0.972,-0.696 -0.875,-0.851 -0.739,-0.996 -0.57,-1.114 -0.375,-1.191 -0.168,-1.238 0.051,-1.25 0.265,-1.227 0.469,-1.156 0.653,-1.063 0.804,-0.929 0.926,-0.782 1.008,-0.613 1.039,-0.433 1.035,-0.25 0.98,-0.075 0.887,0.086 0.75,0.231 0.586,0.351 0.395,0.434 0.187,0.484 -0.031,0.5 -0.246,0.473 -0.453,0.414 -0.637,0.32 -0.793,0.192 -0.914,0.043 -1.004,-0.125 -1.039,-0.301 -1.035,-0.484 -0.988,-0.665 -0.895,-0.828 -0.766,-0.972 -0.601,-1.09 -0.414,-1.18 -0.203,-1.234 0.011,-1.254 0.227,-1.231 0.434,-1.172 0.621,-1.078 0.781,-0.957"
         style="fill:none;stroke:#000000;stroke-width:0.9216;stroke-linecap:square;stroke-linejoin:miter;stroke-miterlimit:3.25;stroke-dasharray:none;stroke-opacity:1"
         id="path134" />
      <text
         xml:space="preserve"
         transform="translate(466.2056,108.14756)"
         style="font-variant:normal;font-size:21.12px;font-family:CairoFont-0;-inkscape-font-specification:CairoFont-0-0;writing-mode:lr-tb;fill:#000000;fill-opacity:1;fill-rule:nonzero;stroke:none"
         id="text138"><tspan
           x="0"
           y="0"
           id="tspan136">g</tspan></text>
      <path
         d="m 452.422,67.027 c -8.942,-0.179 -17.57,3.293 -23.895,9.618 -6.324,6.324 -9.797,14.953 -9.617,23.894"
         style="fill:none;stroke:#000000;stroke-width:0.9216;stroke-linecap:square;stroke-linejoin:miter;stroke-miterlimit:3.25;stroke-dasharray:none;stroke-opacity:1"
         id="path140" />
      <path
         d="m 424.973,80.199 4.738,-9.48 4.742,4.738 z"
         style="fill:#000000;fill-opacity:1;fill-rule:evenodd;stroke:none"
         id="path142" />
      <text
         xml:space="preserve"
         transform="translate(411.93128,67.793739)"
         style="font-variant:normal;font-size:21.12px;font-family:CairoFont-0;-inkscape-font-specification:CairoFont-0-0;writing-mode:lr-tb;fill:#000000;fill-opacity:1;fill-rule:nonzero;stroke:none"
         id="text146"><tspan
           x="0"
           y="0"
           id="tspan144">u</tspan></text>
      <path
         d="M 485.934,100.539 C 485.895,82.047 470.914,67.062 452.422,67.027"
         style="fill:none;stroke:#000000;stroke-width:0.9216;stroke-linecap:square;stroke-linejoin:miter;stroke-miterlimit:3.25;stroke-dasharray:none;stroke-opacity:1"
         id="path148" />
      <path
         d="m 472.543,73.309 9.48,4.738 -4.738,4.738 z"
         style="fill:#000000;fill-opacity:1;fill-rule:evenodd;stroke:none"
         id="path150" />
      <text
         xml:space="preserve"
         transform="translate(480.21405,68.011572)"
         style="font-variant:normal;font-size:21.12px;font-family:CairoFont-0;-inkscape-font-specification:CairoFont-0-0;writing-mode:lr-tb;fill:#000000;fill-opacity:1;fill-rule:nonzero;stroke:none"
         id="text154"><tspan
           x="0"
           y="0"
           id="tspan152">u</tspan></text>
      <path
         d="m 456.109,67.027 c 0,0.977 -0.39,1.914 -1.082,2.606 -0.691,0.691 -1.629,1.078 -2.605,1.078 -0.977,0 -1.914,-0.387 -2.606,-1.078 -0.691,-0.692 -1.082,-1.629 -1.082,-2.606 0,-0.98 0.391,-1.918 1.082,-2.609 0.692,-0.691 1.629,-1.078 2.606,-1.078 0.976,0 1.914,0.387 2.605,1.078 0.692,0.691 1.082,1.629 1.082,2.609 z"
         style="fill:#000000;fill-opacity:1;fill-rule:evenodd;stroke:none"
         id="path156" />
      <path
         d="m 456.109,134.051 c 0,0.976 -0.39,1.914 -1.082,2.605 -0.691,0.692 -1.629,1.082 -2.605,1.082 -0.977,0 -1.914,-0.39 -2.606,-1.082 -0.691,-0.691 -1.082,-1.629 -1.082,-2.605 0,-0.977 0.391,-1.914 1.082,-2.606 0.692,-0.691 1.629,-1.082 2.606,-1.082 0.976,0 1.914,0.391 2.605,1.082 0.692,0.692 1.082,1.629 1.082,2.606 z"
         style="fill:#000000;fill-opacity:1;fill-rule:evenodd;stroke:none"
         id="path158" />
      <path
         d="m 422.594,100.539 c 0,0.977 -0.387,1.914 -1.078,2.606 -0.692,0.691 -1.629,1.078 -2.606,1.078 -0.98,0 -1.918,-0.387 -2.609,-1.078 -0.692,-0.692 -1.078,-1.629 -1.078,-2.606 0,-0.98 0.386,-1.918 1.078,-2.609 0.691,-0.692 1.629,-1.078 2.609,-1.078 0.977,0 1.914,0.386 2.606,1.078 0.691,0.691 1.078,1.629 1.078,2.609 z"
         style="fill:#000000;fill-opacity:1;fill-rule:evenodd;stroke:none"
         id="path160" />
      <path
         d="m 489.621,100.539 c 0,0.977 -0.387,1.914 -1.078,2.606 -0.691,0.691 -1.629,1.078 -2.609,1.078 -0.977,0 -1.914,-0.387 -2.606,-1.078 -0.691,-0.692 -1.078,-1.629 -1.078,-2.606 0,-0.98 0.387,-1.918 1.078,-2.609 0.692,-0.692 1.629,-1.078 2.606,-1.078 0.98,0 1.918,0.386 2.609,1.078 0.691,0.691 1.078,1.629 1.078,2.609 z"
         style="fill:#000000;fill-opacity:1;fill-rule:evenodd;stroke:none"
         id="path162" />
      <path
         d="m 603.23,100.539 -1,0.836 -1.136,0.648 -1.239,0.426 -1.296,0.18 -1.305,-0.074 -1.27,-0.325 -1.187,-0.558 -1.059,-0.762 -0.898,-0.93 -0.715,-1.05 -0.504,-1.118 -0.297,-1.124 -0.086,-1.083 0.114,-0.976 0.281,-0.832 0.418,-0.637 0.519,-0.41 0.575,-0.168 0.582,0.09 0.543,0.336 0.453,0.57 0.332,0.77 0.164,0.937 -0.02,1.055 -0.23,1.121 -0.438,1.125 -0.652,1.074 -0.84,0.973 -1.016,0.82 -1.148,0.625 -1.25,0.402 -1.297,0.153 -1.305,-0.102 -1.261,-0.347 -1.176,-0.582 -1.043,-0.782 -0.883,-0.945 -0.691,-1.059 -0.485,-1.121 -0.273,-1.125 -0.063,-1.07 0.129,-0.969 0.297,-0.808 0.434,-0.614 0.527,-0.386 0.578,-0.141 0.578,0.113 0.536,0.364 0.445,0.589 0.312,0.793 0.149,0.95 -0.043,1.066 -0.25,1.121 -0.465,1.125 -0.668,1.067 -0.863,0.96 -1.032,0.801 -1.16,0.602 -1.254,0.375 -1.304,0.125 -1.301,-0.125 -1.254,-0.375 -1.164,-0.602 -1.031,-0.801 -0.86,-0.96 -0.672,-1.067 -0.46,-1.125 -0.25,-1.121 -0.043,-1.066 0.148,-0.95 0.313,-0.793 0.445,-0.589 0.531,-0.364 0.582,-0.113 0.578,0.141 0.528,0.386 0.429,0.614 0.301,0.808 0.129,0.969 -0.066,1.07 -0.27,1.125 -0.488,1.121 -0.692,1.059 -0.879,0.945 -1.046,0.782 -1.172,0.582 -1.262,0.347 -1.305,0.102 -1.301,-0.153 -1.246,-0.402 -1.152,-0.625 -1.012,-0.82 -0.843,-0.973 -0.649,-1.074 -0.441,-1.125 -0.227,-1.121 -0.023,-1.055 0.168,-0.937 0.328,-0.77 0.457,-0.57 0.539,-0.336 0.582,-0.09 0.574,0.168 0.52,0.41 0.422,0.637 0.281,0.832 0.109,0.976 -0.086,1.083 -0.293,1.124 -0.508,1.118 -0.71,1.05 -0.903,0.93 -1.058,0.762 -1.184,0.558 -1.269,0.325 -1.309,0.074 -1.297,-0.18 -1.238,-0.426 -1.137,-0.648 -0.996,-0.836"
         style="fill:none;stroke:#000000;stroke-width:0.9216;stroke-linecap:square;stroke-linejoin:miter;stroke-miterlimit:3.25;stroke-dasharray:none;stroke-opacity:1"
         id="path164" />
      <text
         xml:space="preserve"
         transform="translate(571.81329,128.41036)"
         style="font-variant:normal;font-size:21.12px;font-family:CairoFont-0;-inkscape-font-specification:CairoFont-0-0;writing-mode:lr-tb;fill:#000000;fill-opacity:1;fill-rule:nonzero;stroke:none"
         id="text168"><tspan
           x="0"
           y="0"
           id="tspan166">g</tspan></text>
      <path
         d="m 670.254,100.539 0.996,-0.84 1.141,-0.648 1.238,-0.422 1.297,-0.18 1.304,0.074 1.27,0.325 1.184,0.554 1.062,0.766 0.899,0.93 0.71,1.047 0.508,1.117 0.297,1.129 0.082,1.078 -0.109,0.98 -0.281,0.828 -0.418,0.637 -0.52,0.414 -0.574,0.164 -0.582,-0.086 -0.543,-0.336 -0.457,-0.57 -0.328,-0.773 -0.168,-0.938 0.023,-1.055 0.227,-1.117 0.441,-1.125 0.649,-1.078 0.843,-0.973 1.016,-0.82 1.148,-0.625 1.246,-0.398 1.301,-0.153 1.305,0.098 1.262,0.352 1.175,0.578 1.043,0.785 0.883,0.941 0.692,1.063 0.484,1.117 0.273,1.125 0.063,1.074 -0.129,0.965 -0.297,0.812 -0.433,0.614 -0.528,0.386 -0.578,0.141 -0.578,-0.113 -0.535,-0.363 -0.446,-0.59 -0.312,-0.793 -0.148,-0.953 0.043,-1.063 0.25,-1.121 0.46,-1.125 0.672,-1.066 0.864,-0.961 1.027,-0.801 1.164,-0.606 1.254,-0.371 1.305,-0.129 1.3,0.129 1.254,0.371 1.164,0.606 1.028,0.801 0.863,0.961 0.672,1.066 0.461,1.125 0.25,1.121 0.043,1.063 -0.149,0.953 -0.312,0.793 -0.445,0.59 -0.536,0.363 -0.578,0.113 -0.578,-0.141 -0.527,-0.386 -0.434,-0.614 -0.297,-0.812 -0.129,-0.965 0.067,-1.074 0.269,-1.125 0.485,-1.117 0.691,-1.063 0.883,-0.941 1.043,-0.785 1.176,-0.578 1.261,-0.352 1.305,-0.098 1.301,0.153 1.246,0.398 1.152,0.625 1.012,0.82 0.844,0.973 0.648,1.078 0.442,1.125 0.226,1.117 0.024,1.055 -0.168,0.938 -0.328,0.773 -0.458,0.57 -0.539,0.336 -0.582,0.086 -0.574,-0.164 -0.519,-0.414 -0.422,-0.637 -0.281,-0.828 -0.11,-0.98 0.086,-1.078 0.293,-1.129 0.508,-1.117 0.711,-1.047 0.898,-0.93 1.063,-0.766 1.183,-0.554 1.27,-0.325 1.308,-0.074 1.293,0.18 1.243,0.422 1.136,0.648 0.996,0.84"
         style="fill:none;stroke:#000000;stroke-width:0.9216;stroke-linecap:square;stroke-linejoin:miter;stroke-miterlimit:3.25;stroke-dasharray:none;stroke-opacity:1"
         id="path170" />
      <text
         xml:space="preserve"
         transform="translate(689.10784,87.884749)"
         style="font-variant:normal;font-size:21.12px;font-family:CairoFont-0;-inkscape-font-specification:CairoFont-0-0;writing-mode:lr-tb;fill:#000000;fill-opacity:1;fill-rule:nonzero;stroke:none"
         id="text174"><tspan
           x="0"
           y="0"
           id="tspan172">g</tspan></text>
      <path
         d="m 603.23,100.539 c -0.316,8.981 3.11,17.691 9.465,24.043 6.356,6.356 15.067,9.785 24.047,9.469"
         style="fill:none;stroke:#000000;stroke-width:0.9216;stroke-linecap:butt;stroke-linejoin:miter;stroke-miterlimit:3.25;stroke-dasharray:0.9216, 5.5296;stroke-dashoffset:0;stroke-opacity:1"
         id="path176" />
      <path
         d="m 616.25,128.137 -9.477,-4.739 4.739,-4.738 z"
         style="fill:#000000;fill-opacity:1;fill-rule:evenodd;stroke:none"
         id="path178" />
      <text
         xml:space="preserve"
         transform="translate(587.57251,140.67952)"
         style="font-variant:normal;font-size:21.12px;font-family:CairoFont-0;-inkscape-font-specification:CairoFont-0-0;writing-mode:lr-tb;fill:#000000;fill-opacity:1;fill-rule:nonzero;stroke:none"
         id="text182"><tspan
           x="0"
           y="0"
           id="tspan180">u</tspan></text>
      <text
         xml:space="preserve"
         transform="translate(599.24438,144.59945)"
         style="font-variant:normal;font-size:14.88px;font-family:CairoFont-0;-inkscape-font-specification:CairoFont-0-0;writing-mode:lr-tb;fill:#000000;fill-opacity:1;fill-rule:nonzero;stroke:none"
         id="text186"><tspan
           x="0"
           y="0"
           id="tspan184">g</tspan></text>
      <path
         d="m 636.742,134.051 c 18.492,-0.039 33.473,-15.02 33.512,-33.512"
         style="fill:none;stroke:#000000;stroke-width:0.9216;stroke-linecap:butt;stroke-linejoin:miter;stroke-miterlimit:3.25;stroke-dasharray:0.9216, 5.5296;stroke-dashoffset:0;stroke-opacity:1"
         id="path188" />
      <path
         d="m 663.973,120.66 -4.739,9.481 -4.738,-4.743 z"
         style="fill:#000000;fill-opacity:1;fill-rule:evenodd;stroke:none"
         id="path190" />
      <text
         xml:space="preserve"
         transform="translate(664.53405,140.31088)"
         style="font-variant:normal;font-size:21.12px;font-family:CairoFont-0;-inkscape-font-specification:CairoFont-0-0;writing-mode:lr-tb;fill:#000000;fill-opacity:1;fill-rule:nonzero;stroke:none"
         id="text194"><tspan
           x="0"
           y="0"
           id="tspan192">u</tspan></text>
      <text
         xml:space="preserve"
         transform="translate(676.20593,144.23081)"
         style="font-variant:normal;font-size:14.88px;font-family:CairoFont-0;-inkscape-font-specification:CairoFont-0-0;writing-mode:lr-tb;fill:#000000;fill-opacity:1;fill-rule:nonzero;stroke:none"
         id="text198"><tspan
           x="0"
           y="0"
           id="tspan196">g</tspan></text>
      <path
         d="m 636.742,134.051 -0.781,-0.957 -0.621,-1.082 -0.434,-1.172 -0.226,-1.231 -0.012,-1.25 0.203,-1.234 0.414,-1.18 0.602,-1.093 0.765,-0.973 0.895,-0.828 0.988,-0.66 1.035,-0.485 1.039,-0.304 1,-0.125 0.918,0.046 0.793,0.192 0.637,0.316 0.449,0.414 0.25,0.477 0.028,0.496 -0.184,0.488 -0.395,0.434 -0.585,0.348 -0.75,0.23 -0.887,0.09 -0.981,-0.074 -1.035,-0.25 -1.043,-0.434 -1.004,-0.613 -0.925,-0.782 -0.809,-0.933 -0.648,-1.059 -0.469,-1.16 -0.266,-1.223 -0.051,-1.25 0.168,-1.242 0.375,-1.191 0.571,-1.109 0.734,-0.997 0.875,-0.855 0.977,-0.691 1.031,-0.516 1.043,-0.336 1.012,-0.156 0.933,0.015 0.817,0.168 0.667,0.297 0.485,0.399 0.285,0.464 0.07,0.5 -0.148,0.489 -0.356,0.445 -0.554,0.367 -0.723,0.254 -0.867,0.117 -0.965,-0.043 -1.027,-0.222 -1.047,-0.399 -1.016,-0.582 -0.941,-0.75 -0.832,-0.91 -0.68,-1.039 -0.504,-1.145 -0.301,-1.21 -0.089,-1.25 0.128,-1.247 0.34,-1.203 0.535,-1.125 0.711,-1.019 0.852,-0.883 0.961,-0.723 1.023,-0.547 1.043,-0.367 1.024,-0.187 0.949,-0.016 0.844,0.141 0.695,0.277 0.52,0.383 0.32,0.457 0.109,0.496 -0.109,0.492 -0.32,0.457 -0.52,0.383 -0.695,0.277 -0.844,0.145 -0.949,-0.016 -1.024,-0.187 -1.043,-0.367 -1.023,-0.551 -0.961,-0.723 -0.852,-0.883 -0.711,-1.015 -0.535,-1.129 -0.34,-1.203 -0.128,-1.246 0.089,-1.246 0.301,-1.215 0.504,-1.145 0.68,-1.039 0.832,-0.906 0.941,-0.754 1.016,-0.578 1.047,-0.402 1.027,-0.219 0.965,-0.043 0.867,0.113 0.723,0.254 0.554,0.367 0.356,0.445 0.148,0.493 -0.07,0.496 -0.285,0.468 -0.485,0.399 -0.667,0.297 -0.817,0.168 -0.933,0.015 -1.012,-0.156 -1.043,-0.336 -1.031,-0.515 -0.977,-0.696 -0.875,-0.851 -0.734,-0.996 -0.571,-1.114 -0.375,-1.191 -0.168,-1.238 0.051,-1.25 0.266,-1.227 0.469,-1.156 0.648,-1.063 0.809,-0.929 0.925,-0.782 1.004,-0.613 1.043,-0.433 1.035,-0.25 0.981,-0.075 0.887,0.086 0.75,0.231 0.585,0.351 0.395,0.434 0.184,0.484 -0.028,0.5 -0.25,0.473 -0.449,0.414 -0.637,0.32 -0.793,0.192 -0.918,0.043 -1,-0.125 -1.039,-0.301 -1.035,-0.484 -0.988,-0.665 -0.895,-0.828 -0.765,-0.972 -0.602,-1.09 -0.414,-1.18 -0.203,-1.234 0.012,-1.254 0.226,-1.231 0.434,-1.172 0.621,-1.078 0.781,-0.957"
         style="fill:none;stroke:#000000;stroke-width:0.9216;stroke-linecap:square;stroke-linejoin:miter;stroke-miterlimit:3.25;stroke-dasharray:none;stroke-opacity:1"
         id="path200" />
      <text
         xml:space="preserve"
         transform="translate(650.5256,108.14756)"
         style="font-variant:normal;font-size:21.12px;font-family:CairoFont-0;-inkscape-font-specification:CairoFont-0-0;writing-mode:lr-tb;fill:#000000;fill-opacity:1;fill-rule:nonzero;stroke:none"
         id="text204"><tspan
           x="0"
           y="0"
           id="tspan202">g</tspan></text>
      <path
         d="m 636.742,67.027 c -8.941,-0.179 -17.57,3.293 -23.894,9.618 -6.325,6.324 -9.797,14.953 -9.618,23.894"
         style="fill:none;stroke:#000000;stroke-width:0.9216;stroke-linecap:butt;stroke-linejoin:miter;stroke-miterlimit:3.25;stroke-dasharray:0.9216, 5.5296;stroke-dashoffset:0;stroke-opacity:1"
         id="path206" />
      <path
         d="m 609.293,80.199 4.738,-9.48 4.742,4.738 z"
         style="fill:#000000;fill-opacity:1;fill-rule:evenodd;stroke:none"
         id="path208" />
      <text
         xml:space="preserve"
         transform="translate(587.72331,64.291786)"
         style="font-variant:normal;font-size:21.12px;font-family:CairoFont-0;-inkscape-font-specification:CairoFont-0-0;writing-mode:lr-tb;fill:#000000;fill-opacity:1;fill-rule:nonzero;stroke:none"
         id="text212"><tspan
           x="0"
           y="0"
           id="tspan210">u</tspan></text>
      <text
         xml:space="preserve"
         transform="translate(599.39519,68.211708)"
         style="font-variant:normal;font-size:14.88px;font-family:CairoFont-0;-inkscape-font-specification:CairoFont-0-0;writing-mode:lr-tb;fill:#000000;fill-opacity:1;fill-rule:nonzero;stroke:none"
         id="text216"><tspan
           x="0"
           y="0"
           id="tspan214">g</tspan></text>
      <path
         d="M 670.254,100.539 C 670.215,82.047 655.234,67.062 636.742,67.027"
         style="fill:none;stroke:#000000;stroke-width:0.9216;stroke-linecap:butt;stroke-linejoin:miter;stroke-miterlimit:3.25;stroke-dasharray:0.9216, 5.5296;stroke-dashoffset:0;stroke-opacity:1"
         id="path218" />
      <path
         d="m 656.863,73.309 9.481,4.738 -4.742,4.738 z"
         style="fill:#000000;fill-opacity:1;fill-rule:evenodd;stroke:none"
         id="path220" />
      <text
         xml:space="preserve"
         transform="translate(664.53405,64.509619)"
         style="font-variant:normal;font-size:21.12px;font-family:CairoFont-0;-inkscape-font-specification:CairoFont-0-0;writing-mode:lr-tb;fill:#000000;fill-opacity:1;fill-rule:nonzero;stroke:none"
         id="text224"><tspan
           x="0"
           y="0"
           id="tspan222">u</tspan></text>
      <text
         xml:space="preserve"
         transform="translate(676.20593,68.429541)"
         style="font-variant:normal;font-size:14.88px;font-family:CairoFont-0;-inkscape-font-specification:CairoFont-0-0;writing-mode:lr-tb;fill:#000000;fill-opacity:1;fill-rule:nonzero;stroke:none"
         id="text228"><tspan
           x="0"
           y="0"
           id="tspan226">g</tspan></text>
      <path
         d="m 640.43,67.027 c 0,0.977 -0.391,1.914 -1.082,2.606 -0.692,0.691 -1.629,1.078 -2.606,1.078 -0.976,0 -1.914,-0.387 -2.605,-1.078 -0.692,-0.692 -1.082,-1.629 -1.082,-2.606 0,-0.98 0.39,-1.918 1.082,-2.609 0.691,-0.691 1.629,-1.078 2.605,-1.078 0.977,0 1.914,0.387 2.606,1.078 0.691,0.691 1.082,1.629 1.082,2.609 z"
         style="fill:#000000;fill-opacity:1;fill-rule:evenodd;stroke:none"
         id="path230" />
      <path
         d="m 640.43,134.051 c 0,0.976 -0.391,1.914 -1.082,2.605 -0.692,0.692 -1.629,1.082 -2.606,1.082 -0.976,0 -1.914,-0.39 -2.605,-1.082 -0.692,-0.691 -1.082,-1.629 -1.082,-2.605 0,-0.977 0.39,-1.914 1.082,-2.606 0.691,-0.691 1.629,-1.082 2.605,-1.082 0.977,0 1.914,0.391 2.606,1.082 0.691,0.692 1.082,1.629 1.082,2.606 z"
         style="fill:#000000;fill-opacity:1;fill-rule:evenodd;stroke:none"
         id="path232" />
      <path
         d="m 606.914,100.539 c 0,0.977 -0.387,1.914 -1.078,2.606 -0.691,0.691 -1.629,1.078 -2.606,1.078 -0.98,0 -1.918,-0.387 -2.609,-1.078 -0.691,-0.692 -1.078,-1.629 -1.078,-2.606 0,-0.98 0.387,-1.918 1.078,-2.609 0.691,-0.692 1.629,-1.078 2.609,-1.078 0.977,0 1.915,0.386 2.606,1.078 0.691,0.691 1.078,1.629 1.078,2.609 z"
         style="fill:#000000;fill-opacity:1;fill-rule:evenodd;stroke:none"
         id="path234" />
      <path
         d="m 673.941,100.539 c 0,0.977 -0.39,1.914 -1.082,2.606 -0.691,0.691 -1.629,1.078 -2.605,1.078 -0.977,0 -1.914,-0.387 -2.606,-1.078 -0.691,-0.692 -1.082,-1.629 -1.082,-2.606 0,-0.98 0.391,-1.918 1.082,-2.609 0.692,-0.692 1.629,-1.078 2.606,-1.078 0.976,0 1.914,0.386 2.605,1.078 0.692,0.691 1.082,1.629 1.082,2.609 z"
         style="fill:#000000;fill-opacity:1;fill-rule:evenodd;stroke:none"
         id="path236" />
    </g>
  </g>
</svg>
