<?xml version="1.0" encoding="UTF-8" standalone="no"?>
<!-- Created with Inkscape (http://www.inkscape.org/) -->

<svg
   version="1.1"
   id="svg1"
   width="984"
   height="246.66667"
   viewBox="0 0 984 246.66667"
   sodipodi:docname="1sih58kj8jn4p.pdf"
   xmlns:inkscape="http://www.inkscape.org/namespaces/inkscape"
   xmlns:sodipodi="http://sodipodi.sourceforge.net/DTD/sodipodi-0.dtd"
   xmlns="http://www.w3.org/2000/svg"
   xmlns:svg="http://www.w3.org/2000/svg">
  <defs
     id="defs1">
    <clipPath
       clipPathUnits="userSpaceOnUse"
       id="clipPath19">
      <path
         d="M 77,17 H 90.961 V 34 H 77 Z"
         transform="translate(-77.500569,-29.237478)"
         id="path19" />
    </clipPath>
    <clipPath
       clipPathUnits="userSpaceOnUse"
       id="clipPath43">
      <path
         d="m 227,56 h 13.961 V 73 H 227 Z"
         transform="translate(-227.52925,-67.793741)"
         id="path43" />
    </clipPath>
  </defs>
  <sodipodi:namedview
     id="namedview1"
     pagecolor="#ffffff"
     bordercolor="#999999"
     borderopacity="1"
     inkscape:showpageshadow="0"
     inkscape:pageopacity="0"
     inkscape:pagecheckerboard="0"
     inkscape:deskcolor="#d1d1d1">
    <inkscape:page
       x="0"
       y="0"
       id="page1"
       width="984"
       height="246.66667"
       margin="0"
       bleed="0" />
  </sodipodi:namedview>
  <g
     id="g1"
     inkscape:groupmode="layer"
     inkscape:label="">
    <path
       id="path1"
       d="M 0,108.918 H 50.27"
       style="fill:none;stroke:#000000;stroke-width:0.9216;stroke-linecap:butt;stroke-linejoin:miter;stroke-miterlimit:3.25;stroke-dasharray:0.9216, 5.5296;stroke-dashoffset:0;stroke-opacity:1"
       transform="scale(1.3333333)" />
    <path
       id="path2"
       d="m 30.16,108.918 -10.051,3.352 v -6.704 z"
       style="fill:#000000;fill-opacity:1;fill-rule:evenodd;stroke:none"
       transform="scale(1.3333333)" />
    <path
       id="path3"
       d="m 5.5552199,-11.027804 -1.5585938,7.3359374 c -0.1289062,0.5507813 -0.1289062,1.0078125 -0.023437,1.3710938 0.1875,0.65625 0.7148438,0.984375 1.6289063,0.984375 1.2773437,0 2.296875,-0.5625 3.0117187,-1.7226563 0.3867188,-0.6210937 0.6796875,-1.4765625 0.9140625,-2.5546875 l 1.1601564,-5.4140624 h 1.851563 L 10.195845,-4.603125e-4 H 8.4497511 L 8.8013136,-1.6293666 c -0.328125,0.421875 -0.6914062,0.78515629 -1.1132812,1.07812504 -0.84375,0.57421875 -1.7578125,0.8671875 -2.765625,0.8671875 -1.5820313,0 -2.53125,-0.52734375 -2.8710938,-1.58203124 -0.1875,-0.5742188 -0.1875,-1.3125 0,-2.2617188 l 1.6054688,-7.4999999 z m 0,0"
       style="fill:#000000;fill-opacity:1;fill-rule:nonzero;stroke:none"
       aria-label="u"
       transform="matrix(1.3333333,0,0,1.3333333,19.507103,171.75452)" />
    <path
       id="path4"
       d="m 6.8794386,-7.4535854 c 0.2226563,0.1640625 0.4101563,0.4101562 0.5976563,0.7265625 l 0.2226562,-0.984375 h 1.1953125 l -1.5,7.08984371 c -0.2109375,0.97265625 -0.515625,1.76953129 -0.9375,2.33203129 -0.7734375,1.0546875 -1.8984375,1.59375 -3.4101562,1.59375 -0.84375,0 -1.5,-0.1992188 -1.9921875,-0.5625 C 0.56303238,2.3667271 0.35209488,1.7690708 0.45756363,0.97219581 H 1.8052199 c -0.023437,0.35156249 0.058594,0.62109379 0.1992187,0.80859379 0.234375,0.2929687 0.6796875,0.4335937 1.3007813,0.4335937 1.0078125,0 1.7460937,-0.3515625 2.203125,-1.0546875 0.2695312,-0.41015624 0.5039062,-1.1601562375 0.7148437,-2.2265625 -0.3398437,0.38671876 -0.7148437,0.67968751 -1.1132812,0.86718751 -0.421875,0.1992187525 -0.9257813,0.3046875 -1.5351563,0.3046875 -0.8320312,0 -1.5234375,-0.3046875 -2.0273437,-0.890625 C 1.0435011,-1.3949917 0.93803238,-2.3793667 1.2310011,-3.7621792 c 0.2929688,-1.3007812 0.8085938,-2.3203125 1.6171875,-3.0585937 0.7851563,-0.7265625 1.6289063,-1.1015625 2.5195313,-1.1015625 0.6210937,0 1.125,0.1523437 1.5117187,0.46875 z m -1.5117187,0.6914062 c -0.9140625,0 -1.6289063,0.4335938 -2.15625,1.3007813 -0.28125,0.4570312 -0.5039063,1.0546875 -0.65625,1.8046875 -0.1875,0.8789062 -0.140625,1.546875 0.1054687,2.0039062 0.2578125,0.4570313 0.6914063,0.67968751 1.3007813,0.67968751 0.9375,0 1.6757812,-0.41015621 2.25,-1.26562501 0.3046875,-0.4804687 0.5273437,-1.03125 0.6679687,-1.6757812 0.2109375,-0.9726563 0.1640625,-1.6875 -0.140625,-2.1445313 -0.2929687,-0.4570312 -0.75,-0.703125 -1.3710937,-0.703125 z m 0,0"
       style="fill:#000000;fill-opacity:1;fill-rule:nonzero;stroke:none"
       aria-label="g"
       transform="matrix(1.3333333,0,0,1.3333333,35.069603,176.98108)" />
    <path
       id="path5"
       d="M 167.562,108.918 H 117.293"
       style="fill:none;stroke:#000000;stroke-width:0.9216;stroke-linecap:butt;stroke-linejoin:miter;stroke-miterlimit:3.25;stroke-dasharray:0.9216, 5.5296;stroke-dashoffset:0;stroke-opacity:1"
       transform="scale(1.3333333)" />
    <path
       id="path6"
       d="m 147.457,108.918 -10.055,-3.352 v 6.704 z"
       style="fill:#000000;fill-opacity:1;fill-rule:evenodd;stroke:none"
       transform="scale(1.3333333)" />
    <path
       id="path7"
       d="m 5.5536436,-11.027804 -1.5585937,7.3359374 c -0.1289063,0.5507813 -0.1289063,1.0078125 -0.023437,1.3710938 0.1875,0.65625 0.7148437,0.984375 1.6289062,0.984375 1.2773438,0 2.296875,-0.5625 3.0117188,-1.7226563 0.3867187,-0.6210937 0.6796875,-1.4765625 0.9140625,-2.5546875 L 10.686457,-11.027804 H 12.53802 L 10.194269,-4.603125e-4 H 8.4481749 L 8.7997374,-1.6293666 c -0.328125,0.421875 -0.6914063,0.78515629 -1.1132813,1.07812504 -0.84375,0.57421875 -1.7578125,0.8671875 -2.765625,0.8671875 -1.5820312,0 -2.53125,-0.52734375 -2.8710937,-1.58203124 -0.1875,-0.5742188 -0.1875,-1.3125 0,-2.2617188 l 1.6054687,-7.4999999 z m 0,0"
       style="fill:#000000;fill-opacity:1;fill-rule:nonzero;stroke:none"
       aria-label="u"
       transform="matrix(1.3333333,0,0,1.3333333,175.89983,171.75452)" />
    <path
       id="path8"
       d="m 6.8778624,-7.4535854 c 0.2226562,0.1640625 0.4101562,0.4101562 0.5976562,0.7265625 l 0.2226563,-0.984375 h 1.1953125 l -1.5,7.08984371 c -0.2109375,0.97265625 -0.515625,1.76953129 -0.9375,2.33203129 -0.7734375,1.0546875 -1.8984375,1.59375 -3.4101563,1.59375 -0.84375,0 -1.5,-0.1992188 -1.9921875,-0.5625 C 0.56145613,2.3667271 0.35051863,1.7690708 0.45598738,0.97219581 H 1.8036436 c -0.023437,0.35156249 0.058594,0.62109379 0.1992188,0.80859379 0.234375,0.2929687 0.6796875,0.4335937 1.3007812,0.4335937 1.0078125,0 1.7460938,-0.3515625 2.203125,-1.0546875 0.2695313,-0.41015624 0.5039063,-1.1601562375 0.7148438,-2.2265625 -0.3398438,0.38671876 -0.7148438,0.67968751 -1.1132813,0.86718751 -0.421875,0.1992187525 -0.9257812,0.3046875 -1.5351562,0.3046875 -0.8320313,0 -1.5234375,-0.3046875 -2.0273438,-0.890625 C 1.0419249,-1.3949917 0.93645613,-2.3793667 1.2294249,-3.7621792 c 0.2929687,-1.3007812 0.8085937,-2.3203125 1.6171875,-3.0585937 0.7851562,-0.7265625 1.6289062,-1.1015625 2.5195312,-1.1015625 0.6210938,0 1.125,0.1523437 1.5117188,0.46875 z m -1.5117188,0.6914062 c -0.9140625,0 -1.6289062,0.4335938 -2.15625,1.3007813 -0.28125,0.4570312 -0.5039062,1.0546875 -0.65625,1.8046875 -0.1875,0.8789062 -0.140625,1.546875 0.1054688,2.0039062 0.2578125,0.4570313 0.6914062,0.67968751 1.3007812,0.67968751 0.9375,0 1.6757813,-0.41015621 2.25,-1.26562501 0.3046875,-0.4804687 0.5273438,-1.03125 0.6679688,-1.6757812 0.2109375,-0.9726563 0.1640625,-1.6875 -0.140625,-2.1445313 -0.2929688,-0.4570312 -0.75,-0.703125 -1.3710938,-0.703125 z m 0,0"
       style="fill:#000000;fill-opacity:1;fill-rule:nonzero;stroke:none"
       aria-label="g"
       transform="matrix(1.3333333,0,0,1.3333333,191.46233,176.98108)" />
    <path
       id="path9"
       d="m 50.27,108.918 c 0,8.887 3.531,17.41 9.816,23.695 6.285,6.285 14.809,9.817 23.695,9.817 8.891,0 17.414,-3.532 23.699,-9.817 6.286,-6.285 9.813,-14.808 9.813,-23.695"
       style="fill:none;stroke:#000000;stroke-width:0.9216;stroke-linecap:butt;stroke-linejoin:miter;stroke-miterlimit:3.25;stroke-dasharray:0.9216, 5.5296;stroke-dashoffset:0;stroke-opacity:1"
       transform="scale(1.3333333)" />
    <path
       id="path10"
       d="m 88.809,142.43 -10.055,3.351 v -6.703 z"
       style="fill:#000000;fill-opacity:1;fill-rule:evenodd;stroke:none"
       transform="scale(1.3333333)" />
    <path
       id="path11"
       d="m 5.5544322,-11.027836 -1.5585937,7.3359377 c -0.1289063,0.5507813 -0.1289063,1.0078125 -0.023437,1.3710938 0.1875,0.65625 0.7148437,0.984375 1.6289062,0.984375 1.2773438,0 2.296875,-0.5625 3.0117188,-1.7226563 0.3867187,-0.6210937 0.6796875,-1.4765625 0.9140625,-2.5546875 l 1.160157,-5.4140627 h 1.851561 L 10.195057,-4.92e-4 H 8.4489635 L 8.800526,-1.6293983 c -0.328125,0.421875 -0.6914063,0.7851563 -1.1132813,1.07812505 -0.84375,0.57421875 -1.7578125,0.8671875 -2.765625,0.8671875 -1.5820312,0 -2.53125,-0.52734375 -2.8710937,-1.58203125 -0.1875,-0.5742188 -0.1875,-1.3125 0,-2.2617188 l 1.6054687,-7.5000002 z m 0,0"
       style="fill:#000000;fill-opacity:1;fill-rule:nonzero;stroke:none"
       aria-label="u"
       transform="matrix(1.3333333,0,0,1.3333333,97.703465,216.43816)" />
    <path
       id="path12"
       d="m 6.878651,-7.4536171 c 0.2226562,0.1640625 0.4101562,0.4101562 0.5976562,0.7265625 l 0.2226563,-0.984375 H 8.894276 l -1.5,7.08984373 C 7.1833385,0.35107038 6.878651,1.1479454 6.456776,1.7104454 c -0.7734375,1.0546875 -1.8984375,1.59375 -3.4101563,1.59375 -0.84375,0 -1.5,-0.1992188 -1.9921875,-0.5625 C 0.56224475,2.3666954 0.35130725,1.7690391 0.456776,0.97216413 H 1.8044322 C 1.7809947,1.3237266 1.863026,1.5932579 2.003651,1.7807579 c 0.234375,0.2929687 0.6796875,0.4335937 1.3007812,0.4335937 1.0078125,0 1.7460938,-0.3515625 2.203125,-1.0546875 0.2695313,-0.41015622 0.5039063,-1.160156225 0.7148438,-2.2265625 -0.3398438,0.38671878 -0.7148438,0.67968753 -1.1132813,0.86718753 -0.421875,0.199218745 -0.9257812,0.3046875 -1.5351562,0.3046875 -0.8320313,0 -1.5234375,-0.3046875 -2.0273438,-0.890625 C 1.0427135,-1.3950234 0.93724475,-2.3793984 1.2302135,-3.7622109 1.5231822,-5.0629921 2.0388072,-6.0825234 2.847401,-6.8208046 c 0.7851562,-0.7265625 1.6289062,-1.1015625 2.5195312,-1.1015625 0.6210938,0 1.125,0.1523437 1.5117188,0.46875 z m -1.5117188,0.6914062 c -0.9140625,0 -1.6289062,0.4335938 -2.15625,1.3007813 -0.28125,0.4570312 -0.5039062,1.0546875 -0.65625,1.8046875 -0.1875,0.8789062 -0.140625,1.546875 0.1054688,2.0039062 0.2578125,0.4570313 0.6914062,0.67968753 1.3007812,0.67968753 0.9375,0 1.6757813,-0.41015623 2.25,-1.26562503 0.3046875,-0.4804687 0.5273438,-1.03125 0.6679688,-1.6757812 0.2109375,-0.9726563 0.1640625,-1.6875 -0.140625,-2.1445313 -0.2929688,-0.4570312 -0.75,-0.703125 -1.3710938,-0.703125 z m 0,0"
       style="fill:#000000;fill-opacity:1;fill-rule:nonzero;stroke:none"
       aria-label="g"
       transform="matrix(1.3333333,0,0,1.3333333,113.26597,221.66472)" />
    <path
       id="path13"
       d="m 83.781,75.402 -0.949,-0.824 -1.129,-0.625 -1.258,-0.387 -1.332,-0.113 -1.332,0.16 -1.261,0.434 -1.129,0.676 -0.942,0.879 -0.719,1.027 -0.484,1.117 -0.254,1.156 -0.035,1.133 0.145,1.07 0.285,0.961 0.386,0.821 0.446,0.648 0.469,0.457 0.457,0.258 0.421,0.043 0.364,-0.172 0.289,-0.375 0.195,-0.562 0.086,-0.727 -0.043,-0.855 -0.199,-0.946 -0.367,-0.98 -0.551,-0.965 -0.746,-0.895 -0.93,-0.765 -1.098,-0.578 -1.222,-0.352 -1.301,-0.09 -1.313,0.184 -1.261,0.461 -1.137,0.707 -0.953,0.922 -0.731,1.078 -0.476,1.179 -0.219,1.219 0.027,1.203 0.243,1.133 0.418,1.031 0.543,0.891 0.617,0.734 0.64,0.563 0.621,0.379 0.559,0.187 h 0.469 l 0.355,-0.187 0.223,-0.363 0.078,-0.524 L 68.672,86.172 68.434,85.414 68.027,84.598 67.445,83.777 66.695,83 65.777,82.328 64.711,81.812 63.527,81.504 62.273,81.438 61,81.641 l -1.227,0.472 -1.121,0.727 -0.945,0.949 -0.73,1.117 -0.473,1.231 -0.199,1.273 0.062,1.254 0.309,1.18 0.515,1.066 0.676,0.918 0.774,0.754 0.824,0.578 0.812,0.406 0.758,0.239 0.656,0.078 0.524,-0.082 0.363,-0.223 0.188,-0.351 v -0.473 l -0.188,-0.559 -0.379,-0.617 -0.558,-0.644 -0.735,-0.614 -0.894,-0.543 -1.028,-0.418 -1.136,-0.246 -1.2,-0.023 -1.218,0.215 -1.18,0.476 -1.082,0.731 -0.918,0.957 -0.711,1.136 -0.457,1.258 -0.187,1.313 0.093,1.304 0.352,1.223 0.578,1.098 0.762,0.929 0.894,0.743 0.965,0.554 0.984,0.368 0.942,0.195 0.855,0.047 0.727,-0.086 0.566,-0.196 0.375,-0.289 0.168,-0.367 -0.043,-0.422 -0.254,-0.457 -0.461,-0.465 -0.648,-0.445 -0.82,-0.387 -0.957,-0.289 -1.071,-0.144 -1.136,0.039 -1.153,0.25 -1.121,0.484 -1.027,0.723 -0.875,0.941 -0.676,1.129 -0.434,1.262 -0.164,1.332 0.118,1.328 0.382,1.262 0.629,1.129 0.825,0.949"
       style="fill:none;stroke:#000000;stroke-width:0.9216;stroke-linecap:square;stroke-linejoin:miter;stroke-miterlimit:3.25;stroke-dasharray:none;stroke-opacity:1"
       transform="scale(1.3333333)" />
    <path
       id="path14"
       d="m 9.7618216,-10.582685 c 0.3164064,0.234375 0.5859374,0.5976559 0.8437504,1.0312496 l 0.316406,-1.3828126 h 1.710937 L 10.500103,-0.89127912 C 10.195415,0.50325213 9.7618216,1.6282521 9.1641653,2.4251271 c -1.1015625,1.5 -2.7070312,2.2617188 -4.8398437,2.2617188 -1.1953125,0 -2.1328125,-0.2695313 -2.8242188,-0.796875 C 0.79697781,3.3626271 0.50400906,2.5071584 0.65635281,1.3704396 H 2.5547903 c -0.023437,0.5039063 0.082031,0.890625 0.2929688,1.1601563 0.3164062,0.3984375 0.9492187,0.609375 1.8398437,0.609375 1.4414063,0 2.4726563,-0.5039063 3.1289063,-1.4882813 0.375,-0.5976562 0.7148437,-1.652343725 1.0078125,-3.1757812 -0.4804688,0.55078123 -1.0078125,0.97265623 -1.5820313,1.25390623 -0.5859375,0.269531245 -1.3125,0.421875 -2.1796875,0.421875 -1.171875,0 -2.1445312,-0.421875 -2.8710937,-1.27734373 -0.7148438,-0.8554688 -0.8554688,-2.25 -0.4335938,-4.21875 0.3984375,-1.8398438 1.1367188,-3.2929688 2.2734375,-4.3242188 1.125,-1.0429691 2.3203125,-1.5703121 3.5976563,-1.5703121 0.8554687,0 1.5820312,0.210937 2.1328125,0.65625 z m -2.1328125,0.9960934 c -1.3125,0 -2.3320313,0.609375 -3.0703125,1.8398437 -0.3984375,0.65625 -0.7148438,1.5 -0.9257813,2.5546875 -0.2695312,1.2421875 -0.2109375,2.1914063 0.1523438,2.8476563 0.3515625,0.65625 0.9609375,0.9726562 1.828125,0.9726562 1.3359375,0 2.390625,-0.5976562 3.1875,-1.7929687 0.4453125,-0.703125 0.7617187,-1.4765625 0.9609375,-2.390625 0.2929684,-1.3710938 0.2226562,-2.390625 -0.1992188,-3.0351563 -0.421875,-0.65625 -1.078125,-0.9960937 -1.9335937,-0.9960937 z m 0,0"
       style="fill:#000000;fill-opacity:1;fill-rule:nonzero;stroke:none"
       aria-label="g"
       transform="matrix(1.3333333,0,0,1.3333333,57.277207,101.22743)" />
    <path
       id="path15"
       d="m 83.781,75.402 0.977,-0.804 1.148,-0.602 1.278,-0.355 1.336,-0.079 1.332,0.2 1.253,0.472 1.114,0.715 0.914,0.91 0.691,1.055 0.449,1.141 0.211,1.168 v 1.136 l -0.179,1.067 -0.321,0.949 -0.41,0.801 -0.469,0.621 -0.48,0.43 -0.465,0.218 -0.426,0.004 -0.355,-0.211 -0.277,-0.418 -0.176,-0.601 -0.055,-0.762 0.086,-0.879 0.242,-0.961 0.422,-0.984 0.609,-0.953 0.805,-0.864 0.988,-0.718 1.145,-0.52 1.258,-0.277 1.316,-0.008 1.309,0.273 1.234,0.543 1.086,0.786 0.891,0.984 0.652,1.129 0.391,1.207 0.133,1.226 -0.11,1.196 -0.312,1.109 -0.477,0.992 -0.582,0.844 -0.641,0.676 -0.648,0.496 -0.613,0.308 -0.535,0.114 -0.438,-0.078 -0.312,-0.262 -0.168,-0.438 -0.02,-0.586 0.141,-0.71 0.312,-0.793 0.488,-0.829 0.665,-0.812 0.835,-0.742 0.997,-0.61 1.132,-0.425 1.227,-0.196 1.277,0.059 1.266,0.336 1.191,0.605 1.043,0.844 0.848,1.047 0.605,1.187 0.332,1.266 0.063,1.277 -0.195,1.231 -0.43,1.133 -0.609,0.996 -0.739,0.836 -0.812,0.664 -0.828,0.484 -0.793,0.313 -0.711,0.144 -0.586,-0.019 -0.438,-0.172 -0.261,-0.309 -0.079,-0.437 0.114,-0.539 0.308,-0.61 0.496,-0.648 0.676,-0.641 0.844,-0.586 0.992,-0.472 1.109,-0.313 1.192,-0.109 1.23,0.133 1.207,0.39 1.125,0.653 0.985,0.886 0.789,1.09 0.543,1.234 0.269,1.309 -0.004,1.316 -0.277,1.258 -0.519,1.145 -0.719,0.984 -0.863,0.805 -0.954,0.613 -0.984,0.422 -0.961,0.242 -0.883,0.086 -0.758,-0.058 -0.601,-0.172 -0.418,-0.278 -0.211,-0.359 0.004,-0.422 0.219,-0.465 0.425,-0.48 0.625,-0.469 0.801,-0.414 0.949,-0.316 1.063,-0.18 h 1.141 l 1.168,0.211 1.14,0.449 1.055,0.691 0.91,0.914 0.711,1.114 0.473,1.25 0.203,1.332 -0.082,1.34 -0.352,1.277 -0.601,1.148 -0.809,0.977"
       style="fill:none;stroke:#000000;stroke-width:0.9216;stroke-linecap:square;stroke-linejoin:miter;stroke-miterlimit:3.25;stroke-dasharray:none;stroke-opacity:1"
       transform="scale(1.3333333)" />
    <path
       id="path16"
       d="m 9.7608484,-10.582077 c 0.3164066,0.234375 0.5859376,0.597656 0.8437496,1.0312498 l 0.316407,-1.3828128 h 1.710937 L 10.49913,-0.890671 C 10.194442,0.50386025 9.7608484,1.6288603 9.1631921,2.4257353 8.0616296,3.9257353 6.4561609,4.687454 4.3233484,4.687454 3.1280359,4.687454 2.1905359,4.4179228 1.4991296,3.890579 0.79600462,3.3632353 0.50303587,2.5077665 0.65537962,1.3710478 H 2.5538171 c -0.023437,0.5039062 0.082031,0.890625 0.2929688,1.1601562 0.3164062,0.3984375 0.9492187,0.609375 1.8398437,0.609375 1.4414063,0 2.4726563,-0.5039062 3.1289063,-1.4882812 0.375,-0.5976563 0.7148437,-1.6523438 1.0078125,-3.1757813 -0.4804688,0.55078125 -1.0078125,0.97265625 -1.5820313,1.25390625 -0.5859375,0.26953125 -1.3125,0.421875 -2.1796875,0.421875 -1.171875,0 -2.1445312,-0.421875 -2.8710937,-1.27734375 -0.7148438,-0.8554687 -0.8554688,-2.25 -0.4335938,-4.21875 0.3984375,-1.8398437 1.1367188,-3.2929687 2.2734375,-4.3242187 1.125,-1.0429683 2.3203125,-1.5703123 3.5976563,-1.5703123 0.8554687,0 1.5820312,0.210937 2.1328125,0.65625 z m -2.1328125,0.9960935 c -1.3125,0 -2.3320313,0.609375 -3.0703125,1.8398438 -0.3984375,0.65625 -0.7148438,1.5 -0.9257813,2.5546875 -0.2695312,1.2421875 -0.2109375,2.1914062 0.1523438,2.8476562 0.3515625,0.65625 0.9609375,0.9726563 1.828125,0.9726563 1.3359375,0 2.390625,-0.5976563 3.1875,-1.7929688 0.4453125,-0.703125 0.7617187,-1.4765625 0.9609375,-2.390625 0.2929686,-1.3710937 0.2226562,-2.390625 -0.1992188,-3.0351562 -0.421875,-0.65625 -1.078125,-0.9960938 -1.9335937,-0.9960938 z m 0,0"
       style="fill:#000000;fill-opacity:1;fill-rule:nonzero;stroke:none"
       aria-label="g"
       transform="matrix(1.3333333,0,0,1.3333333,149.05585,101.56256)" />
    <path
       id="path17"
       d="m 83.781,75.402 -1.015,0.75 -1.219,0.512 -1.352,0.223 -1.406,-0.098 -1.359,-0.414 -1.219,-0.707 -1.004,-0.945 -0.727,-1.11 -0.425,-1.195 -0.133,-1.211 0.137,-1.16 0.355,-1.063 0.516,-0.941 0.609,-0.797 0.649,-0.652 0.624,-0.504 0.563,-0.352 0.465,-0.199 0.351,-0.035 0.223,0.125 0.094,0.293 -0.035,0.445 -0.164,0.586 -0.289,0.699 -0.43,0.77 -0.574,0.789 -0.731,0.754 -0.894,0.652 -1.043,0.485 -1.172,0.257 -1.25,-0.023 -1.266,-0.328 -1.199,-0.641 -1.051,-0.926 -0.824,-1.156 -0.539,-1.308 -0.227,-1.368 0.098,-1.336 0.391,-1.222 0.636,-1.051 0.825,-0.844 0.941,-0.629 1,-0.422 0.992,-0.246 0.938,-0.105 0.832,0.004 0.691,0.082 0.527,0.144 0.336,0.188 0.133,0.23 -0.07,0.274 -0.27,0.308 -0.461,0.336 -0.636,0.344 -0.793,0.32 -0.926,0.25 -1.024,0.133 -1.093,-0.039 -1.114,-0.254 -1.074,-0.504 -0.969,-0.769 -0.8,-1.02 -0.559,-1.226 -0.269,-1.367 0.05,-1.415 0.368,-1.371 0.66,-1.23 0.894,-1.012 1.063,-0.742 1.156,-0.453 1.176,-0.168 1.14,0.082 1.059,0.289 0.945,0.434 0.813,0.515 0.664,0.547 0.512,0.524 0.347,0.464 0.172,0.387 -0.004,0.285 -0.187,0.184 -0.368,0.086 -0.535,-0.02 -0.675,-0.129 -0.79,-0.242 -0.855,-0.375 -0.871,-0.531 -0.824,-0.695 -0.715,-0.875 -0.539,-1.047 -0.305,-1.188 -0.015,-1.281 0.296,-1.301 0.614,-1.242 0.898,-1.09 1.129,-0.867 1.277,-0.578 1.336,-0.262 1.313,0.055 1.203,0.344 1.047,0.589 0.859,0.774 0.66,0.887 0.477,0.941 0.316,0.93 0.18,0.871 0.07,0.761 -0.019,0.618 -0.102,0.445 -0.172,0.262 -0.246,0.062 -0.316,-0.129 -0.383,-0.32 -0.426,-0.496 -0.441,-0.66 -0.418,-0.809 -0.344,-0.941 -0.215,-1.047 -0.023,-1.117 0.207,-1.149 0.476,-1.113 0.758,-1.02 1.016,-0.843 1.234,-0.61 1.371,-0.32 h 1.422 l 1.371,0.32 1.235,0.61 1.015,0.843 0.758,1.02 0.477,1.113 0.211,1.149 -0.028,1.117 -0.215,1.047 -0.343,0.941 -0.418,0.809 -0.442,0.66 -0.425,0.496 -0.379,0.32 -0.317,0.129 -0.246,-0.062 -0.176,-0.262 -0.097,-0.445 -0.02,-0.618 0.067,-0.761 0.179,-0.871 0.317,-0.93 0.476,-0.941 0.66,-0.887 0.86,-0.774 1.047,-0.589 1.207,-0.344 1.308,-0.055 1.336,0.262 1.278,0.578 1.128,0.867 0.899,1.09 0.613,1.242 0.297,1.301 -0.016,1.281 -0.3,1.188 -0.539,1.047 -0.715,0.875 -0.828,0.695 -0.872,0.531 -0.855,0.375 -0.789,0.242 -0.676,0.129 -0.535,0.02 -0.367,-0.086 -0.188,-0.184 -0.004,-0.285 0.176,-0.387 0.344,-0.464 0.512,-0.524 0.668,-0.547 0.808,-0.515 0.946,-0.434 1.058,-0.289 1.141,-0.082 1.176,0.168 1.156,0.453 1.066,0.742 0.895,1.012 0.656,1.23 0.367,1.371 0.051,1.415 -0.27,1.367 -0.558,1.226 -0.797,1.02 -0.973,0.769 -1.074,0.504 -1.113,0.254 -1.09,0.039 -1.027,-0.133 -0.926,-0.25 -0.789,-0.32 -0.637,-0.344 -0.461,-0.336 -0.273,-0.308 -0.071,-0.274 0.137,-0.23 0.336,-0.188 0.523,-0.144 0.696,-0.082 0.832,-0.004 0.933,0.105 0.993,0.246 1,0.422 0.941,0.629 0.824,0.844 0.637,1.051 0.391,1.222 0.097,1.336 -0.222,1.368 -0.543,1.308 -0.825,1.156 -1.05,0.926 -1.2,0.641 -1.265,0.328 -1.25,0.023 -1.172,-0.257 -1.043,-0.485 -0.891,-0.652 -0.734,-0.754 -0.574,-0.789 -0.426,-0.77 -0.293,-0.699 -0.16,-0.586 -0.035,-0.445 0.093,-0.293 0.223,-0.125 0.348,0.035 0.465,0.199 0.562,0.352 0.629,0.504 0.644,0.652 0.61,0.797 0.515,0.941 0.356,1.063 0.137,1.16 -0.129,1.211 -0.43,1.195 -0.727,1.11 -1.003,0.945 -1.219,0.707 -1.36,0.414 -1.402,0.098 -1.355,-0.223 -1.215,-0.512 -1.02,-0.75"
       style="fill:none;stroke:#000000;stroke-width:0.9216;stroke-linecap:square;stroke-linejoin:miter;stroke-miterlimit:3.25;stroke-dasharray:none;stroke-opacity:1"
       transform="scale(1.3333333)" />
    <path
       id="path18"
       d="m 9.7631039,-10.581227 c 0.3164061,0.234375 0.5859371,0.5976563 0.8437501,1.03125 l 0.316406,-1.382812 h 1.710938 L 10.501385,-0.88982075 C 10.196698,0.5047105 9.7631039,1.6297105 9.1654476,2.4265855 c -1.1015625,1.5 -2.7070312,2.2617188 -4.8398437,2.2617188 -1.1953125,0 -2.1328125,-0.2695313 -2.8242188,-0.796875 C 0.79826012,3.3640855 0.50529137,2.5086168 0.65763512,1.371898 H 2.5560726 c -0.023437,0.5039063 0.082031,0.890625 0.2929688,1.1601563 0.3164062,0.3984375 0.9492187,0.609375 1.8398437,0.609375 1.4414063,0 2.4726563,-0.5039063 3.1289063,-1.4882813 0.375,-0.5976562 0.7148437,-1.65234375 1.0078125,-3.1757812 -0.4804688,0.5507812 -1.0078125,0.9726562 -1.5820313,1.2539062 -0.5859375,0.26953125 -1.3125,0.421875 -2.1796875,0.421875 -1.171875,0 -2.1445312,-0.421875 -2.8710937,-1.2773437 -0.7148438,-0.8554688 -0.8554688,-2.25 -0.4335938,-4.21875 0.3984375,-1.8398438 1.1367188,-3.2929688 2.2734375,-4.3242188 1.125,-1.0429685 2.3203125,-1.5703125 3.5976563,-1.5703125 0.8554687,0 1.5820312,0.210938 2.1328125,0.65625 z m -2.1328125,0.9960938 c -1.3125,0 -2.3320313,0.609375 -3.0703125,1.8398437 -0.3984375,0.65625 -0.7148438,1.5 -0.9257813,2.5546875 -0.2695312,1.2421875 -0.2109375,2.1914063 0.1523438,2.8476563 0.3515625,0.65625 0.9609375,0.9726562 1.828125,0.9726562 1.3359375,0 2.390625,-0.5976562 3.1875,-1.7929687 0.4453125,-0.703125 0.7617187,-1.4765625 0.9609375,-2.390625 0.2929691,-1.3710938 0.2226562,-2.390625 -0.1992188,-3.0351563 -0.421875,-0.65625 -1.078125,-0.9960937 -1.9335937,-0.9960937 z m 0,0"
       style="fill:#000000;fill-opacity:1;fill-rule:nonzero;stroke:none"
       aria-label="g"
       transform="matrix(1.3333333,0,0,1.3333333,103.33409,38.983303)"
       clip-path="url(#clipPath19)" />
    <path
       id="path20"
       d="m 53.957,108.918 c 0,0.977 -0.391,1.914 -1.082,2.605 -0.691,0.692 -1.629,1.079 -2.605,1.079 -0.977,0 -1.915,-0.387 -2.606,-1.079 -0.691,-0.691 -1.082,-1.628 -1.082,-2.605 0,-0.98 0.391,-1.918 1.082,-2.609 0.691,-0.692 1.629,-1.079 2.606,-1.079 0.976,0 1.914,0.387 2.605,1.079 0.691,0.691 1.082,1.629 1.082,2.609 z"
       style="fill:#000000;fill-opacity:1;fill-rule:evenodd;stroke:none"
       transform="scale(1.3333333)" />
    <path
       id="path21"
       d="m 120.98,108.918 c 0,0.977 -0.386,1.914 -1.078,2.605 -0.691,0.692 -1.629,1.079 -2.609,1.079 -0.977,0 -1.914,-0.387 -2.605,-1.079 -0.692,-0.691 -1.079,-1.628 -1.079,-2.605 0,-0.98 0.387,-1.918 1.079,-2.609 0.691,-0.692 1.628,-1.079 2.605,-1.079 0.98,0 1.918,0.387 2.609,1.079 0.692,0.691 1.078,1.629 1.078,2.609 z"
       style="fill:#000000;fill-opacity:1;fill-rule:evenodd;stroke:none"
       transform="scale(1.3333333)" />
    <path
       id="path22"
       d="m 87.469,75.402 c 0,0.981 -0.391,1.918 -1.082,2.61 -0.692,0.691 -1.629,1.078 -2.606,1.078 -0.976,0 -1.914,-0.387 -2.605,-1.078 -0.692,-0.692 -1.082,-1.629 -1.082,-2.61 0,-0.976 0.39,-1.914 1.082,-2.605 0.691,-0.692 1.629,-1.078 2.605,-1.078 0.977,0 1.914,0.386 2.606,1.078 0.691,0.691 1.082,1.629 1.082,2.605 z"
       style="fill:#000000;fill-opacity:1;fill-rule:evenodd;stroke:none"
       transform="scale(1.3333333)" />
    <path
       id="path23"
       d="m 184.32,100.539 h 50.27"
       style="fill:none;stroke:#000000;stroke-width:0.9216;stroke-linecap:butt;stroke-linejoin:miter;stroke-miterlimit:3.25;stroke-dasharray:0.9216, 5.5296;stroke-dashoffset:0;stroke-opacity:1"
       transform="scale(1.3333333)" />
    <path
       id="path24"
       d="m 214.48,100.539 -10.054,3.352 v -6.703 z"
       style="fill:#000000;fill-opacity:1;fill-rule:evenodd;stroke:none"
       transform="scale(1.3333333)" />
    <path
       id="path25"
       d="m 5.5535792,-11.028528 -1.5585937,7.3359372 c -0.1289063,0.5507812 -0.1289063,1.0078125 -0.023437,1.3710937 0.1875,0.65625 0.7148437,0.984375 1.6289062,0.984375 1.2773438,0 2.296875,-0.5625 3.0117188,-1.7226562 0.3867187,-0.6210938 0.6796875,-1.4765625 0.9140625,-2.5546875 l 1.160156,-5.4140622 h 1.851562 l -2.34375,11.02734344 H 8.4481105 L 8.799673,-1.6300908 c -0.328125,0.421875 -0.6914063,0.78515624 -1.1132813,1.07812499 -0.84375,0.57421875 -1.7578125,0.8671875 -2.765625,0.8671875 -1.5820312,0 -2.53125,-0.52734375 -2.8710937,-1.58203129 -0.1875,-0.5742187 -0.1875,-1.3125 0,-2.2617187 l 1.6054687,-7.4999997 z m 0,0"
       style="fill:#000000;fill-opacity:1;fill-rule:nonzero;stroke:none"
       aria-label="u"
       transform="matrix(1.3333333,0,0,1.3333333,265.2671,160.58361)" />
    <path
       id="path26"
       d="m 6.877798,-7.4543097 c 0.2226562,0.1640625 0.4101562,0.4101563 0.5976562,0.7265625 l 0.2226563,-0.984375 H 8.893423 l -1.5,7.08984376 C 7.1824855,0.35037781 6.877798,1.1472528 6.455923,1.7097528 c -0.7734375,1.0546875 -1.8984375,1.59375 -3.4101563,1.59375 -0.84375,0 -1.5,-0.1992187 -1.9921875,-0.5625 C 0.56139175,2.3660028 0.35045425,1.7683466 0.455923,0.97147156 H 1.8035792 C 1.7801417,1.3230341 1.862173,1.5925653 2.002798,1.7800653 c 0.234375,0.2929688 0.6796875,0.4335938 1.3007812,0.4335938 1.0078125,0 1.7460938,-0.3515625 2.203125,-1.0546875 0.2695313,-0.41015629 0.5039063,-1.16015629 0.7148438,-2.2265625 -0.3398438,0.38671871 -0.7148438,0.67968746 -1.1132813,0.86718746 -0.421875,0.19921875 -0.9257812,0.3046875 -1.5351562,0.3046875 -0.8320313,0 -1.5234375,-0.3046875 -2.0273438,-0.890625 C 1.0418605,-1.3957159 0.93639175,-2.3800909 1.2293605,-3.7629034 1.5223292,-5.0636847 2.0379542,-6.0832159 2.846548,-6.8214972 c 0.7851562,-0.7265625 1.6289062,-1.1015625 2.5195312,-1.1015625 0.6210938,0 1.125,0.1523438 1.5117188,0.46875 z m -1.5117188,0.6914063 c -0.9140625,0 -1.6289062,0.4335937 -2.15625,1.3007812 -0.28125,0.4570313 -0.5039062,1.0546875 -0.65625,1.8046875 -0.1875,0.8789063 -0.140625,1.546875 0.1054688,2.0039063 0.2578125,0.4570312 0.6914062,0.67968746 1.3007812,0.67968746 0.9375,0 1.6757813,-0.41015626 2.25,-1.26562496 0.3046875,-0.4804688 0.5273438,-1.03125 0.6679688,-1.6757813 0.2109375,-0.9726562 0.1640625,-1.6875 -0.140625,-2.1445312 -0.2929688,-0.4570313 -0.75,-0.703125 -1.3710938,-0.703125 z m 0,0"
       style="fill:#000000;fill-opacity:1;fill-rule:nonzero;stroke:none"
       aria-label="g"
       transform="matrix(1.3333333,0,0,1.3333333,280.8296,165.81017)" />
    <path
       id="path27"
       d="m 351.883,100.539 h -50.27"
       style="fill:none;stroke:#000000;stroke-width:0.9216;stroke-linecap:butt;stroke-linejoin:miter;stroke-miterlimit:3.25;stroke-dasharray:0.9216, 5.5296;stroke-dashoffset:0;stroke-opacity:1"
       transform="scale(1.3333333)" />
    <path
       id="path28"
       d="m 331.777,100.539 -10.054,-3.351 v 6.703 z"
       style="fill:#000000;fill-opacity:1;fill-rule:evenodd;stroke:none"
       transform="scale(1.3333333)" />
    <path
       id="path29"
       d="m 5.5549327,-11.026351 -1.5585938,7.3359378 c -0.1289062,0.5507813 -0.1289062,1.0078125 -0.023437,1.3710938 0.1875,0.65625 0.7148438,0.984375 1.6289063,0.984375 1.2773437,0 2.296875,-0.5625 3.0117187,-1.7226563 0.3867188,-0.6210937 0.6796875,-1.4765625 0.9140625,-2.5546875 l 1.1601566,-5.4140628 h 1.851563 L 10.195558,9.930625e-4 H 8.4494639 L 8.8010264,-1.6279132 c -0.328125,0.421875 -0.6914062,0.78515626 -1.1132812,1.07812501 -0.84375,0.57421875 -1.7578125,0.8671875 -2.765625,0.8671875 -1.5820313,0 -2.53125,-0.52734375 -2.8710938,-1.58203121 -0.1875,-0.5742188 -0.1875,-1.3125 0,-2.2617188 l 1.6054688,-7.5000003 z m 0,0"
       style="fill:#000000;fill-opacity:1;fill-rule:nonzero;stroke:none"
       aria-label="u"
       transform="matrix(1.3333333,0,0,1.3333333,421.65983,112.51039)" />
    <path
       id="path30"
       d="m 6.8791514,-7.4521321 c 0.2226563,0.1640625 0.4101563,0.4101563 0.5976563,0.7265625 l 0.2226562,-0.984375 h 1.1953125 l -1.5,7.08984379 c -0.2109375,0.97265625 -0.515625,1.76953121 -0.9375,2.33203121 -0.7734375,1.0546875 -1.8984375,1.59375 -3.4101562,1.59375 -0.84375,0 -1.5,-0.1992187 -1.9921875,-0.5625 C 0.56274519,2.3681804 0.35180769,1.7705242 0.45727644,0.97364919 H 1.8049327 c -0.023437,0.35156251 0.058594,0.62109371 0.1992187,0.80859371 0.234375,0.2929688 0.6796875,0.4335938 1.3007813,0.4335938 1.0078125,0 1.7460937,-0.3515625 2.203125,-1.0546875 0.2695312,-0.41015626 0.5039062,-1.1601562625 0.7148437,-2.2265625 -0.3398437,0.38671874 -0.7148437,0.67968749 -1.1132812,0.86718749 -0.421875,0.1992187475 -0.9257813,0.3046875 -1.5351563,0.3046875 -0.8320312,0 -1.5234375,-0.3046875 -2.0273437,-0.890625 C 1.0432139,-1.3935383 0.93774519,-2.3779133 1.2307139,-3.7607258 c 0.2929688,-1.3007813 0.8085938,-2.3203125 1.6171875,-3.0585938 0.7851563,-0.7265625 1.6289063,-1.1015625 2.5195313,-1.1015625 0.6210937,0 1.125,0.1523438 1.5117187,0.46875 z m -1.5117187,0.6914063 c -0.9140625,0 -1.6289063,0.4335937 -2.15625,1.3007812 -0.28125,0.4570313 -0.5039063,1.0546875 -0.65625,1.8046875 -0.1875,0.8789063 -0.140625,1.546875 0.1054687,2.0039063 0.2578125,0.4570312 0.6914063,0.67968749 1.3007813,0.67968749 0.9375,0 1.6757812,-0.41015629 2.25,-1.26562499 0.3046875,-0.4804688 0.5273437,-1.03125 0.6679687,-1.6757813 0.2109375,-0.9726562 0.1640625,-1.6875 -0.140625,-2.1445312 -0.2929687,-0.4570313 -0.75,-0.703125 -1.3710937,-0.703125 z m 0,0"
       style="fill:#000000;fill-opacity:1;fill-rule:nonzero;stroke:none"
       aria-label="g"
       transform="matrix(1.3333333,0,0,1.3333333,437.22233,117.73696)" />
    <path
       id="path31"
       d="m 234.59,100.539 c -0.317,8.981 3.113,17.691 9.465,24.043 6.355,6.356 15.066,9.785 24.047,9.469"
       style="fill:none;stroke:#000000;stroke-width:0.9216;stroke-linecap:butt;stroke-linejoin:miter;stroke-miterlimit:3.25;stroke-dasharray:0.9216, 5.5296;stroke-dashoffset:0;stroke-opacity:1"
       transform="scale(1.3333333)" />
    <path
       id="path32"
       d="m 247.609,128.137 -9.476,-4.739 4.738,-4.738 z"
       style="fill:#000000;fill-opacity:1;fill-rule:evenodd;stroke:none"
       transform="scale(1.3333333)" />
    <path
       id="path33"
       d="m 5.5547987,-11.026205 -1.5585938,7.3359378 c -0.1289062,0.5507813 -0.1289062,1.0078125 -0.023437,1.3710938 0.1875,0.65625 0.7148438,0.984375 1.6289063,0.984375 1.2773437,0 2.296875,-0.5625 3.0117187,-1.7226563 0.3867188,-0.6210937 0.6796875,-1.4765625 0.9140625,-2.5546875 l 1.1601566,-5.4140628 h 1.851563 L 10.195424,0.00113906 H 8.4493299 L 8.8008924,-1.6277672 c -0.328125,0.421875 -0.6914062,0.78515626 -1.1132812,1.07812501 -0.84375,0.57421875 -1.7578125,0.8671875 -2.765625,0.8671875 -1.5820313,0 -2.53125,-0.52734375 -2.8710938,-1.58203121 -0.1875,-0.5742188 -0.1875,-1.3125 0,-2.2617188 l 1.6054688,-7.5000003 z m 0,0"
       style="fill:#000000;fill-opacity:1;fill-rule:nonzero;stroke:none"
       aria-label="u"
       transform="matrix(1.3333333,0,0,1.3333333,291.91001,187.5727)" />
    <path
       id="path34"
       d="m 6.8790174,-7.4519861 c 0.2226563,0.1640625 0.4101563,0.4101563 0.5976563,0.7265625 l 0.2226562,-0.984375 h 1.1953125 l -1.5,7.08984379 c -0.2109375,0.97265625 -0.515625,1.76953121 -0.9375,2.33203121 -0.7734375,1.0546875 -1.8984375,1.59375 -3.4101562,1.59375 -0.84375,0 -1.5,-0.1992187 -1.9921875,-0.5625 C 0.56261119,2.3683264 0.35167369,1.7706702 0.45714244,0.97379519 H 1.8047987 c -0.023437,0.35156251 0.058594,0.62109371 0.1992187,0.80859371 0.234375,0.2929688 0.6796875,0.4335938 1.3007813,0.4335938 1.0078125,0 1.7460937,-0.3515625 2.203125,-1.0546875 0.2695312,-0.41015626 0.5039062,-1.16015626 0.7148437,-2.2265625 -0.3398437,0.38671874 -0.7148437,0.67968749 -1.1132812,0.86718749 -0.421875,0.19921875 -0.9257813,0.3046875 -1.5351563,0.3046875 -0.8320312,0 -1.5234375,-0.3046875 -2.0273437,-0.890625 C 1.0430799,-1.3933923 0.93761119,-2.3777673 1.2305799,-3.7605798 c 0.2929688,-1.3007813 0.8085938,-2.3203125 1.6171875,-3.0585938 0.7851563,-0.7265625 1.6289063,-1.1015625 2.5195313,-1.1015625 0.6210937,0 1.125,0.1523438 1.5117187,0.46875 z m -1.5117187,0.6914063 c -0.9140625,0 -1.6289063,0.4335937 -2.15625,1.3007812 -0.28125,0.4570313 -0.5039063,1.0546875 -0.65625,1.8046875 -0.1875,0.8789063 -0.140625,1.546875 0.1054687,2.0039063 0.2578125,0.4570312 0.6914063,0.67968749 1.3007813,0.67968749 0.9375,0 1.6757812,-0.41015629 2.25,-1.26562499 0.3046875,-0.4804688 0.5273437,-1.03125 0.6679687,-1.6757813 0.2109375,-0.9726562 0.1640625,-1.6875 -0.140625,-2.1445312 -0.2929687,-0.4570313 -0.75,-0.703125 -1.3710937,-0.703125 z m 0,0"
       style="fill:#000000;fill-opacity:1;fill-rule:nonzero;stroke:none"
       aria-label="g"
       transform="matrix(1.3333333,0,0,1.3333333,307.47251,192.79926)" />
    <path
       id="path35"
       d="m 301.613,100.539 0.793,0.996 0.578,1.172 0.325,1.289 0.046,1.348 -0.234,1.332 -0.508,1.246 -0.75,1.094 -0.941,0.894 -1.082,0.66 -1.156,0.414 -1.18,0.176 -1.141,-0.035 -1.062,-0.211 -0.934,-0.348 -0.781,-0.437 -0.598,-0.488 -0.398,-0.493 -0.18,-0.472 0.035,-0.422 0.25,-0.352 0.457,-0.257 0.641,-0.153 0.793,-0.023 0.906,0.125 0.973,0.293 0.984,0.472 0.938,0.672 0.832,0.86 0.672,1.043 0.453,1.187 0.199,1.285 -0.074,1.328 -0.36,1.301 -0.625,1.199 -0.859,1.036 -1.043,0.82 -1.168,0.57 -1.23,0.305 -1.231,0.051 -1.18,-0.188 -1.082,-0.379 -0.949,-0.527 -0.793,-0.617 -0.613,-0.66 -0.43,-0.649 -0.234,-0.598 -0.039,-0.507 0.156,-0.399 0.34,-0.262 0.504,-0.113 0.648,0.043 0.758,0.215 0.82,0.391 0.832,0.57 0.793,0.75 0.688,0.918 0.535,1.07 0.324,1.192 0.078,1.265 -0.195,1.289 -0.469,1.242 -0.734,1.129 -0.957,0.957 -1.129,0.731 -1.242,0.473 -1.285,0.195 -1.27,-0.078 -1.191,-0.324 -1.071,-0.536 -0.918,-0.691 -0.75,-0.789 -0.57,-0.836 -0.387,-0.82 -0.214,-0.754 -0.047,-0.649 0.113,-0.508 0.262,-0.335 0.398,-0.157 0.512,0.039 0.594,0.235 0.652,0.426 0.656,0.617 0.621,0.793 0.524,0.949 0.383,1.078 0.183,1.18 -0.047,1.234 -0.308,1.231 -0.571,1.168 -0.82,1.042 -1.035,0.856 -1.199,0.629 -1.301,0.359 -1.324,0.074 -1.289,-0.199 -1.188,-0.457 -1.039,-0.668 -0.863,-0.832 -0.668,-0.937 -0.477,-0.985 -0.293,-0.972 -0.125,-0.907 0.024,-0.793 0.152,-0.64 0.262,-0.457 0.347,-0.25 0.422,-0.039 0.473,0.183 0.496,0.399 0.484,0.597 0.438,0.778 0.348,0.937 0.214,1.059 0.036,1.144 -0.18,1.18 -0.414,1.156 -0.66,1.082 -0.895,0.942 -1.094,0.746 -1.246,0.508 -1.332,0.238 -1.347,-0.047 -1.289,-0.324 -1.172,-0.578 -0.996,-0.793"
       style="fill:none;stroke:#000000;stroke-width:0.9216;stroke-linecap:square;stroke-linejoin:miter;stroke-miterlimit:3.25;stroke-dasharray:none;stroke-opacity:1"
       transform="scale(1.3333333)" />
    <path
       id="path36"
       d="m 9.7631736,-10.582369 c 0.3164064,0.234375 0.5859374,0.5976561 0.8437504,1.0312499 l 0.316406,-1.3828129 h 1.710937 L 10.501455,-0.89096287 C 10.196767,0.50356838 9.7631736,1.6285684 9.1655173,2.4254434 c -1.1015625,1.5 -2.7070312,2.2617187 -4.8398437,2.2617187 -1.1953125,0 -2.1328125,-0.2695312 -2.8242188,-0.796875 C 0.79832981,3.3629434 0.50536106,2.5074746 0.65770481,1.3707559 H 2.5561423 c -0.023437,0.5039062 0.082031,0.890625 0.2929688,1.1601562 0.3164062,0.3984375 0.9492187,0.609375 1.8398437,0.609375 1.4414063,0 2.4726563,-0.5039062 3.1289063,-1.4882812 0.375,-0.5976563 0.7148437,-1.652343775 1.0078125,-3.1757813 -0.4804688,0.55078128 -1.0078125,0.97265628 -1.5820313,1.25390628 -0.5859375,0.269531245 -1.3125,0.421875 -2.1796875,0.421875 -1.171875,0 -2.1445312,-0.421875 -2.8710937,-1.27734378 -0.7148438,-0.8554687 -0.8554688,-2.25 -0.4335938,-4.21875 0.3984375,-1.8398437 1.1367188,-3.2929687 2.2734375,-4.3242187 1.125,-1.0429684 2.3203125,-1.5703124 3.5976563,-1.5703124 0.8554687,0 1.5820312,0.210937 2.1328125,0.65625 z m -2.1328125,0.9960936 c -1.3125,0 -2.3320313,0.609375 -3.0703125,1.8398438 -0.3984375,0.65625 -0.7148438,1.5 -0.9257813,2.5546875 -0.2695312,1.2421875 -0.2109375,2.1914062 0.1523438,2.8476562 0.3515625,0.65625 0.9609375,0.9726563 1.828125,0.9726563 1.3359375,0 2.390625,-0.5976563 3.1875,-1.7929688 0.4453125,-0.703125 0.7617187,-1.4765625 0.9609375,-2.390625 0.2929684,-1.3710937 0.2226562,-2.390625 -0.1992188,-3.0351562 -0.421875,-0.65625 -1.078125,-0.9960938 -1.9335937,-0.9960938 z m 0,0"
       style="fill:#000000;fill-opacity:1;fill-rule:nonzero;stroke:none"
       aria-label="g"
       transform="matrix(1.3333333,0,0,1.3333333,394.5254,197.71139)" />
    <path
       id="path37"
       d="m 268.102,67.027 v 67.024"
       style="fill:none;stroke:#000000;stroke-width:0.9216;stroke-linecap:butt;stroke-linejoin:miter;stroke-miterlimit:3.25;stroke-dasharray:0.9216, 5.5296;stroke-dashoffset:0;stroke-opacity:1"
       transform="scale(1.3333333)" />
    <path
       id="path38"
       d="m 268.102,95.512 -3.352,10.054 h 6.703 z"
       style="fill:#000000;fill-opacity:1;fill-rule:evenodd;stroke:none"
       transform="scale(1.3333333)" />
    <path
       id="path39"
       d="m 5.5543193,-11.02744 -1.5585937,7.335938 c -0.1289063,0.5507812 -0.1289063,1.0078125 -0.023437,1.3710937 0.1875,0.65625 0.7148437,0.984375 1.6289062,0.984375 1.2773438,0 2.296875,-0.5625 3.0117188,-1.7226562 0.3867187,-0.6210938 0.6796875,-1.4765625 0.9140625,-2.5546875 l 1.1601569,-5.414063 h 1.851562 L 10.194944,-9.575e-5 H 8.4488506 L 8.8004131,-1.629002 c -0.328125,0.421875 -0.6914063,0.78515625 -1.1132813,1.078125 -0.84375,0.57421875 -1.7578125,0.8671875 -2.765625,0.8671875 -1.5820312,0 -2.53125,-0.52734375 -2.8710937,-1.5820313 -0.1875,-0.5742187 -0.1875,-1.3125 0,-2.2617187 L 3.6558818,-11.02744 Z m 0,0"
       style="fill:#000000;fill-opacity:1;fill-rule:nonzero;stroke:none"
       aria-label="u"
       transform="matrix(1.3333333,0,0,1.3333333,368.02783,136.547)" />
    <path
       id="path40"
       d="m 6.8785381,-7.4532209 c 0.2226562,0.1640625 0.4101562,0.4101563 0.5976562,0.7265625 l 0.2226563,-0.984375 h 1.1953125 l -1.5,7.08984378 c -0.2109375,0.97265625 -0.515625,1.76953122 -0.9375,2.33203122 -0.7734375,1.0546875 -1.8984375,1.59375 -3.4101563,1.59375 -0.84375,0 -1.5,-0.1992187 -1.9921875,-0.5625 C 0.56213181,2.3670916 0.35119431,1.7694354 0.45666306,0.97256038 H 1.8043193 c -0.023437,0.35156252 0.058594,0.62109372 0.1992188,0.80859372 0.234375,0.2929688 0.6796875,0.4335938 1.3007812,0.4335938 1.0078125,0 1.7460938,-0.3515625 2.203125,-1.0546875 0.2695313,-0.41015627 0.5039063,-1.160156275 0.7148438,-2.2265625 -0.3398438,0.38671873 -0.7148438,0.67968748 -1.1132813,0.86718748 -0.421875,0.199218745 -0.9257812,0.3046875 -1.5351562,0.3046875 -0.8320313,0 -1.5234375,-0.3046875 -2.0273438,-0.890625 C 1.0426006,-1.3946271 0.93713181,-2.3790021 1.2301006,-3.7618146 c 0.2929687,-1.3007813 0.8085937,-2.3203125 1.6171875,-3.0585938 0.7851562,-0.7265625 1.6289062,-1.1015625 2.5195312,-1.1015625 0.6210938,0 1.125,0.1523438 1.5117188,0.46875 z m -1.5117188,0.6914063 c -0.9140625,0 -1.6289062,0.4335937 -2.15625,1.3007812 -0.28125,0.4570313 -0.5039062,1.0546875 -0.65625,1.8046875 -0.1875,0.8789063 -0.140625,1.546875 0.1054688,2.0039063 0.2578125,0.4570312 0.6914062,0.67968748 1.3007812,0.67968748 0.9375,0 1.6757813,-0.41015628 2.25,-1.26562498 0.3046875,-0.4804688 0.5273438,-1.03125 0.6679688,-1.6757813 0.2109375,-0.9726562 0.1640625,-1.6875 -0.140625,-2.1445312 -0.2929688,-0.4570313 -0.75,-0.703125 -1.3710938,-0.703125 z m 0,0"
       style="fill:#000000;fill-opacity:1;fill-rule:nonzero;stroke:none"
       aria-label="g"
       transform="matrix(1.3333333,0,0,1.3333333,383.59033,141.77357)" />
    <path
       id="path41"
       d="m 234.59,100.539 -0.809,-0.977 -0.601,-1.148 -0.352,-1.277 -0.082,-1.336 0.203,-1.332 0.473,-1.254 0.711,-1.113 0.914,-0.914 1.055,-0.692 1.136,-0.449 1.168,-0.211 h 1.141 l 1.062,0.18 0.95,0.32 0.8,0.41 0.625,0.469 0.426,0.48 0.223,0.465 v 0.426 l -0.211,0.355 -0.414,0.278 -0.606,0.176 -0.757,0.054 -0.883,-0.086 -0.957,-0.242 -0.985,-0.422 -0.957,-0.613 -0.863,-0.801 -0.719,-0.988 -0.515,-1.145 -0.278,-1.257 -0.008,-1.317 0.274,-1.308 0.543,-1.235 0.785,-1.086 0.984,-0.89 1.125,-0.653 1.207,-0.39 1.231,-0.133 1.191,0.109 1.114,0.313 0.988,0.476 0.844,0.582 0.679,0.641 0.496,0.648 0.305,0.614 0.113,0.535 -0.074,0.437 -0.265,0.309 -0.434,0.172 -0.59,0.019 -0.711,-0.14 -0.789,-0.313 -0.832,-0.488 -0.812,-0.664 -0.739,-0.836 -0.609,-0.996 -0.426,-1.133 -0.199,-1.227 0.062,-1.281 0.336,-1.265 0.602,-1.188 0.848,-1.043 1.046,-0.848 1.188,-0.605 1.266,-0.332 1.277,-0.063 1.23,0.196 1.129,0.426 0.996,0.609 0.84,0.742 0.66,0.813 0.489,0.828 0.312,0.793 0.141,0.711 -0.016,0.586 -0.172,0.437 -0.312,0.262 -0.434,0.078 -0.539,-0.113 -0.613,-0.309 -0.649,-0.496 -0.64,-0.676 -0.582,-0.844 -0.477,-0.992 -0.312,-1.109 -0.11,-1.192 0.133,-1.23 0.395,-1.207 0.648,-1.125 0.891,-0.984 1.09,-0.79 1.23,-0.542 1.309,-0.274 1.316,0.008 1.262,0.277 1.14,0.52 0.989,0.719 0.804,0.863 0.61,0.953 0.422,0.984 0.246,0.961 0.082,0.883 -0.055,0.758 -0.176,0.601 -0.273,0.418 -0.36,0.211 -0.421,-0.004 -0.465,-0.218 -0.485,-0.426 -0.465,-0.625 -0.414,-0.801 -0.32,-0.949 -0.18,-1.063 v -1.14 l 0.215,-1.168 0.446,-1.141 0.691,-1.055 0.918,-0.91 1.109,-0.711 1.254,-0.472 1.332,-0.203 1.34,0.082 1.274,0.351 1.152,0.602 0.973,0.808"
       style="fill:none;stroke:#000000;stroke-width:0.9216;stroke-linecap:square;stroke-linejoin:miter;stroke-miterlimit:3.25;stroke-dasharray:none;stroke-opacity:1"
       transform="scale(1.3333333)" />
    <path
       id="path42"
       d="m 9.7607881,-10.582801 c 0.3164059,0.234375 0.5859379,0.5976558 0.8437499,1.0312495 l 0.316406,-1.3828125 h 1.710938 L 10.499069,-0.89139525 C 10.194382,0.503136 9.7607881,1.628136 9.1631318,2.425011 c -1.1015625,1.5 -2.7070312,2.2617188 -4.8398437,2.2617188 -1.1953125,0 -2.1328125,-0.2695313 -2.8242188,-0.796875 C 0.79594431,3.362511 0.50297556,2.5070423 0.65531931,1.3703235 H 2.5537568 c -0.023437,0.5039063 0.082031,0.890625 0.2929688,1.1601563 0.3164062,0.3984375 0.9492187,0.609375 1.8398437,0.609375 1.4414063,0 2.4726563,-0.5039063 3.1289063,-1.4882813 0.375,-0.5976562 0.7148437,-1.65234375 1.0078125,-3.1757812 -0.4804688,0.5507812 -1.0078125,0.9726562 -1.5820313,1.2539062 -0.5859375,0.26953125 -1.3125,0.421875 -2.1796875,0.421875 -1.171875,0 -2.1445312,-0.421875 -2.8710937,-1.2773437 -0.7148438,-0.8554688 -0.8554688,-2.25 -0.4335938,-4.21875 0.3984375,-1.8398438 1.1367188,-3.2929688 2.2734375,-4.3242188 1.125,-1.042969 2.3203125,-1.570312 3.5976563,-1.570312 0.8554687,0 1.5820312,0.210937 2.1328125,0.65625 z m -2.1328125,0.9960933 c -1.3125,0 -2.3320313,0.609375 -3.0703125,1.8398437 -0.3984375,0.65625 -0.7148438,1.5 -0.9257813,2.5546875 -0.2695312,1.2421875 -0.2109375,2.1914063 0.1523438,2.8476563 0.3515625,0.65625 0.9609375,0.9726562 1.828125,0.9726562 1.3359375,0 2.390625,-0.5976562 3.1875,-1.7929687 0.4453125,-0.703125 0.7617187,-1.4765625 0.9609375,-2.390625 0.2929689,-1.3710938 0.2226562,-2.390625 -0.1992188,-3.0351563 -0.421875,-0.65625 -1.078125,-0.9960937 -1.9335937,-0.9960937 z m 0,0"
       style="fill:#000000;fill-opacity:1;fill-rule:nonzero;stroke:none"
       aria-label="g"
       transform="matrix(1.3333333,0,0,1.3333333,303.37233,90.391652)"
       clip-path="url(#clipPath43)" />
    <path
       id="path44"
       d="M 301.613,100.539 C 301.578,82.047 286.594,67.062 268.102,67.027"
       style="fill:none;stroke:#000000;stroke-width:0.9216;stroke-linecap:butt;stroke-linejoin:miter;stroke-miterlimit:3.25;stroke-dasharray:0.9216, 5.5296;stroke-dashoffset:0;stroke-opacity:1"
       transform="scale(1.3333333)" />
    <path
       id="path45"
       d="m 295.332,80.414 -4.738,-9.476 -4.739,4.738 z"
       style="fill:#000000;fill-opacity:1;fill-rule:evenodd;stroke:none"
       transform="scale(1.3333333)" />
    <path
       id="path46"
       d="m 5.5561423,-11.028174 -1.5585937,7.3359378 c -0.1289063,0.5507813 -0.1289063,1.0078125 -0.023437,1.3710938 0.1875,0.65625 0.7148437,0.984375 1.6289062,0.984375 1.2773438,0 2.296875,-0.5625 3.0117188,-1.7226563 0.3867187,-0.6210937 0.6796875,-1.4765625 0.9140625,-2.5546875 l 1.1601569,-5.4140628 h 1.851562 L 10.196767,-8.299375e-4 H 8.4506736 L 8.8022361,-1.6297362 c -0.328125,0.421875 -0.6914063,0.78515626 -1.1132813,1.07812501 -0.84375,0.57421875 -1.7578125,0.8671875 -2.765625,0.8671875 -1.5820312,0 -2.53125,-0.52734375 -2.8710937,-1.58203121 -0.1875,-0.5742188 -0.1875,-1.3125 0,-2.2617188 l 1.6054687,-7.5000003 z m 0,0"
       style="fill:#000000;fill-opacity:1;fill-rule:nonzero;stroke:none"
       aria-label="u"
       transform="matrix(1.3333333,0,0,1.3333333,394.5254,86.012825)" />
    <path
       id="path47"
       d="m 6.8803611,-7.4539551 c 0.2226562,0.1640625 0.4101562,0.4101563 0.5976562,0.7265625 l 0.2226563,-0.984375 h 1.1953125 l -1.5,7.08984379 c -0.2109375,0.97265625 -0.515625,1.76953121 -0.9375,2.33203121 -0.7734375,1.0546875 -1.8984375,1.59375 -3.4101563,1.59375 -0.84375,0 -1.5,-0.1992187 -1.9921875,-0.5625 C 0.56395481,2.3663574 0.35301731,1.7687012 0.45848606,0.97182619 H 1.8061423 c -0.023437,0.35156251 0.058594,0.62109371 0.1992188,0.80859371 0.234375,0.2929688 0.6796875,0.4335938 1.3007812,0.4335938 1.0078125,0 1.7460938,-0.3515625 2.203125,-1.0546875 0.2695313,-0.41015626 0.5039063,-1.1601562625 0.7148438,-2.2265625 -0.3398438,0.38671874 -0.7148438,0.67968749 -1.1132813,0.86718749 -0.421875,0.1992187475 -0.9257812,0.3046875 -1.5351562,0.3046875 -0.8320313,0 -1.5234375,-0.3046875 -2.0273438,-0.890625 C 1.0444236,-1.3953613 0.93895481,-2.3797363 1.2319236,-3.7625488 c 0.2929687,-1.3007813 0.8085937,-2.3203125 1.6171875,-3.0585938 0.7851562,-0.7265625 1.6289062,-1.1015625 2.5195312,-1.1015625 0.6210938,0 1.125,0.1523438 1.5117188,0.46875 z m -1.5117188,0.6914063 c -0.9140625,0 -1.6289062,0.4335937 -2.15625,1.3007812 -0.28125,0.4570313 -0.5039062,1.0546875 -0.65625,1.8046875 -0.1875,0.8789063 -0.140625,1.546875 0.1054688,2.0039063 0.2578125,0.4570312 0.6914062,0.67968749 1.3007812,0.67968749 0.9375,0 1.6757813,-0.41015629 2.25,-1.26562499 0.3046875,-0.4804688 0.5273438,-1.03125 0.6679688,-1.6757813 0.2109375,-0.9726562 0.1640625,-1.6875 -0.140625,-2.1445312 -0.2929688,-0.4570313 -0.75,-0.703125 -1.3710938,-0.703125 z m 0,0"
       style="fill:#000000;fill-opacity:1;fill-rule:nonzero;stroke:none"
       aria-label="g"
       transform="matrix(1.3333333,0,0,1.3333333,410.0879,91.239388)" />
    <path
       id="path48"
       d="m 271.789,67.027 c 0,0.977 -0.391,1.914 -1.082,2.606 -0.691,0.691 -1.629,1.078 -2.605,1.078 -0.977,0 -1.914,-0.387 -2.606,-1.078 -0.691,-0.692 -1.082,-1.629 -1.082,-2.606 0,-0.98 0.391,-1.918 1.082,-2.609 0.692,-0.691 1.629,-1.078 2.606,-1.078 0.976,0 1.914,0.387 2.605,1.078 0.691,0.691 1.082,1.629 1.082,2.609 z"
       style="fill:#000000;fill-opacity:1;fill-rule:evenodd;stroke:none"
       transform="scale(1.3333333)" />
    <path
       id="path49"
       d="m 271.789,134.051 c 0,0.976 -0.391,1.914 -1.082,2.605 -0.691,0.692 -1.629,1.082 -2.605,1.082 -0.977,0 -1.914,-0.39 -2.606,-1.082 -0.691,-0.691 -1.082,-1.629 -1.082,-2.605 0,-0.977 0.391,-1.914 1.082,-2.606 0.692,-0.691 1.629,-1.082 2.606,-1.082 0.976,0 1.914,0.391 2.605,1.082 0.691,0.692 1.082,1.629 1.082,2.606 z"
       style="fill:#000000;fill-opacity:1;fill-rule:evenodd;stroke:none"
       transform="scale(1.3333333)" />
    <path
       id="path50"
       d="m 238.277,100.539 c 0,0.977 -0.39,1.914 -1.082,2.606 -0.691,0.691 -1.629,1.078 -2.605,1.078 -0.977,0 -1.918,-0.387 -2.61,-1.078 -0.687,-0.692 -1.078,-1.629 -1.078,-2.606 0,-0.98 0.391,-1.918 1.078,-2.609 0.692,-0.692 1.633,-1.078 2.61,-1.078 0.976,0 1.914,0.386 2.605,1.078 0.692,0.691 1.082,1.629 1.082,2.609 z"
       style="fill:#000000;fill-opacity:1;fill-rule:evenodd;stroke:none"
       transform="scale(1.3333333)" />
    <path
       id="path51"
       d="m 305.301,100.539 c 0,0.977 -0.387,1.914 -1.078,2.606 -0.692,0.691 -1.629,1.078 -2.61,1.078 -0.976,0 -1.914,-0.387 -2.605,-1.078 -0.692,-0.692 -1.078,-1.629 -1.078,-2.606 0,-0.98 0.386,-1.918 1.078,-2.609 0.691,-0.692 1.629,-1.078 2.605,-1.078 0.981,0 1.918,0.386 2.61,1.078 0.691,0.691 1.078,1.629 1.078,2.609 z"
       style="fill:#000000;fill-opacity:1;fill-rule:evenodd;stroke:none"
       transform="scale(1.3333333)" />
    <path
       id="path52"
       d="M 368.641,100.539 H 418.91"
       style="fill:none;stroke:#000000;stroke-width:0.9216;stroke-linecap:butt;stroke-linejoin:miter;stroke-miterlimit:3.25;stroke-dasharray:0.9216, 5.5296;stroke-dashoffset:0;stroke-opacity:1"
       transform="scale(1.3333333)" />
    <path
       id="path53"
       d="m 398.801,100.539 -10.055,3.352 v -6.703 z"
       style="fill:#000000;fill-opacity:1;fill-rule:evenodd;stroke:none"
       transform="scale(1.3333333)" />
    <path
       id="path54"
       d="m 5.5548683,-11.028528 -1.5585937,7.3359372 c -0.1289063,0.5507812 -0.1289063,1.0078125 -0.023437,1.3710937 0.1875,0.65625 0.7148437,0.984375 1.6289062,0.984375 1.2773438,0 2.296875,-0.5625 3.0117188,-1.7226562 0.3867187,-0.6210938 0.6796875,-1.4765625 0.9140625,-2.5546875 l 1.1601569,-5.4140622 h 1.851562 l -2.34375,11.02734344 H 8.4493996 L 8.8009621,-1.6300908 c -0.328125,0.421875 -0.6914063,0.78515624 -1.1132813,1.07812499 -0.84375,0.57421875 -1.7578125,0.8671875 -2.765625,0.8671875 -1.5820312,0 -2.53125,-0.52734375 -2.8710937,-1.58203129 -0.1875,-0.5742187 -0.1875,-1.3125 0,-2.2617187 l 1.6054687,-7.4999997 z m 0,0"
       style="fill:#000000;fill-opacity:1;fill-rule:nonzero;stroke:none"
       aria-label="u"
       transform="matrix(1.3333333,0,0,1.3333333,511.0271,160.58361)" />
    <path
       id="path55"
       d="m 6.8790871,-7.4543097 c 0.2226562,0.1640625 0.4101562,0.4101563 0.5976562,0.7265625 l 0.2226563,-0.984375 h 1.1953125 l -1.5,7.08984376 c -0.2109375,0.97265625 -0.515625,1.76953124 -0.9375,2.33203124 -0.7734375,1.0546875 -1.8984375,1.59375 -3.4101563,1.59375 -0.84375,0 -1.5,-0.1992187 -1.9921875,-0.5625 C 0.56268081,2.3660028 0.35174331,1.7683466 0.45721206,0.97147156 H 1.8048683 c -0.023437,0.35156254 0.058594,0.62109374 0.1992188,0.80859374 0.234375,0.2929688 0.6796875,0.4335938 1.3007812,0.4335938 1.0078125,0 1.7460938,-0.3515625 2.203125,-1.0546875 0.2695313,-0.41015629 0.5039063,-1.16015629 0.7148438,-2.2265625 -0.3398438,0.38671871 -0.7148438,0.67968746 -1.1132813,0.86718746 -0.421875,0.19921875 -0.9257812,0.3046875 -1.5351562,0.3046875 -0.8320313,0 -1.5234375,-0.3046875 -2.0273438,-0.890625 C 1.0431496,-1.3957159 0.93768081,-2.3800909 1.2306496,-3.7629034 c 0.2929687,-1.3007813 0.8085937,-2.3203125 1.6171875,-3.0585938 0.7851562,-0.7265625 1.6289062,-1.1015625 2.5195312,-1.1015625 0.6210938,0 1.125,0.1523438 1.5117188,0.46875 z m -1.5117188,0.6914063 c -0.9140625,0 -1.6289062,0.4335937 -2.15625,1.3007812 -0.28125,0.4570313 -0.5039062,1.0546875 -0.65625,1.8046875 -0.1875,0.8789063 -0.140625,1.546875 0.1054688,2.0039063 0.2578125,0.4570312 0.6914062,0.67968746 1.3007812,0.67968746 0.9375,0 1.6757813,-0.41015626 2.25,-1.26562496 0.3046875,-0.4804688 0.5273438,-1.03125 0.6679688,-1.6757813 0.2109375,-0.9726562 0.1640625,-1.6875 -0.140625,-2.1445312 -0.2929688,-0.4570313 -0.75,-0.703125 -1.3710938,-0.703125 z m 0,0"
       style="fill:#000000;fill-opacity:1;fill-rule:nonzero;stroke:none"
       aria-label="g"
       transform="matrix(1.3333333,0,0,1.3333333,526.5896,165.81017)" />
    <path
       id="path56"
       d="M 536.203,100.539 H 485.934"
       style="fill:none;stroke:#000000;stroke-width:0.9216;stroke-linecap:butt;stroke-linejoin:miter;stroke-miterlimit:3.25;stroke-dasharray:0.9216, 5.5296;stroke-dashoffset:0;stroke-opacity:1"
       transform="scale(1.3333333)" />
    <path
       id="path57"
       d="m 516.098,100.539 -10.055,-3.351 v 6.703 z"
       style="fill:#000000;fill-opacity:1;fill-rule:evenodd;stroke:none"
       transform="scale(1.3333333)" />
    <path
       id="path58"
       d="m 5.5532921,-11.026351 -1.5585938,7.3359378 c -0.1289062,0.5507813 -0.1289062,1.0078125 -0.023437,1.3710938 0.1875,0.65625 0.7148438,0.984375 1.6289063,0.984375 1.2773437,0 2.296875,-0.5625 3.0117187,-1.7226563 0.3867188,-0.6210937 0.6796875,-1.4765625 0.9140625,-2.5546875 l 1.1601572,-5.4140628 h 1.851562 L 10.193917,9.930625e-4 H 8.4478233 L 8.7993858,-1.6279132 c -0.328125,0.421875 -0.6914062,0.78515626 -1.1132812,1.07812501 -0.84375,0.57421875 -1.7578125,0.8671875 -2.765625,0.8671875 -1.5820313,0 -2.53125,-0.52734375 -2.8710938,-1.58203121 -0.1875,-0.5742188 -0.1875,-1.3125 0,-2.2617188 l 1.6054688,-7.5000003 z m 0,0"
       style="fill:#000000;fill-opacity:1;fill-rule:nonzero;stroke:none"
       aria-label="u"
       transform="matrix(1.3333333,0,0,1.3333333,667.41983,112.51039)" />
    <path
       id="path59"
       d="m 6.8775108,-7.4521321 c 0.2226563,0.1640625 0.4101563,0.4101563 0.5976563,0.7265625 l 0.2226562,-0.984375 h 1.1953125 l -1.5,7.08984379 c -0.2109375,0.97265625 -0.515625,1.76953121 -0.9375,2.33203121 -0.7734375,1.0546875 -1.8984375,1.59375 -3.4101562,1.59375 -0.84375,0 -1.5,-0.1992187 -1.9921875,-0.5625 C 0.56110456,2.3681804 0.35016706,1.7705242 0.45563581,0.97364919 H 1.8032921 c -0.023437,0.35156251 0.058594,0.62109371 0.1992187,0.80859371 0.234375,0.2929688 0.6796875,0.4335938 1.3007813,0.4335938 1.0078125,0 1.7460937,-0.3515625 2.203125,-1.0546875 0.2695312,-0.41015626 0.5039062,-1.1601562625 0.7148437,-2.2265625 -0.3398437,0.38671874 -0.7148437,0.67968749 -1.1132812,0.86718749 -0.421875,0.1992187475 -0.9257813,0.3046875 -1.5351563,0.3046875 -0.8320312,0 -1.5234375,-0.3046875 -2.0273437,-0.890625 C 1.0415733,-1.3935383 0.93610456,-2.3779133 1.2290733,-3.7607258 c 0.2929688,-1.3007813 0.8085938,-2.3203125 1.6171875,-3.0585938 0.7851563,-0.7265625 1.6289063,-1.1015625 2.5195313,-1.1015625 0.6210937,0 1.125,0.1523438 1.5117187,0.46875 z m -1.5117187,0.6914063 c -0.9140625,0 -1.6289063,0.4335937 -2.15625,1.3007812 -0.28125,0.4570313 -0.5039063,1.0546875 -0.65625,1.8046875 -0.1875,0.8789063 -0.140625,1.546875 0.1054687,2.0039063 0.2578125,0.4570312 0.6914063,0.67968749 1.3007813,0.67968749 0.9375,0 1.6757812,-0.41015629 2.25,-1.26562499 0.3046875,-0.4804688 0.5273437,-1.03125 0.6679687,-1.6757813 0.2109375,-0.9726562 0.1640625,-1.6875 -0.140625,-2.1445312 -0.2929687,-0.4570313 -0.75,-0.703125 -1.3710937,-0.703125 z m 0,0"
       style="fill:#000000;fill-opacity:1;fill-rule:nonzero;stroke:none"
       aria-label="g"
       transform="matrix(1.3333333,0,0,1.3333333,682.98233,117.73696)" />
    <path
       id="path60"
       d="m 418.91,100.539 c -0.316,8.981 3.113,17.691 9.465,24.043 6.355,6.356 15.066,9.785 24.047,9.469"
       style="fill:none;stroke:#000000;stroke-width:0.9216;stroke-linecap:butt;stroke-linejoin:miter;stroke-miterlimit:3.25;stroke-dasharray:0.9216, 5.5296;stroke-dashoffset:0;stroke-opacity:1"
       transform="scale(1.3333333)" />
    <path
       id="path61"
       d="m 431.93,128.137 -9.477,-4.739 4.738,-4.738 z"
       style="fill:#000000;fill-opacity:1;fill-rule:evenodd;stroke:none"
       transform="scale(1.3333333)" />
    <path
       id="path62"
       d="M 5.5560878,-11.026205 3.997494,-3.6902672 c -0.1289062,0.5507813 -0.1289062,1.0078125 -0.023437,1.3710938 0.1875,0.65625 0.7148438,0.984375 1.6289063,0.984375 1.2773437,0 2.296875,-0.5625 3.0117187,-1.7226563 0.3867183,-0.6210937 0.679687,-1.4765625 0.914062,-2.5546875 L 10.6889,-11.026205 h 1.851563 L 10.196713,0.00113906 H 8.450619 L 8.8021815,-1.6277672 c -0.328125,0.421875 -0.6914062,0.78515626 -1.1132812,1.07812501 -0.84375,0.57421875 -1.7578125,0.8671875 -2.765625,0.8671875 -1.5820313,0 -2.53125,-0.52734375 -2.8710938,-1.58203121 -0.1875,-0.5742188 -0.1875,-1.3125 0,-2.2617188 l 1.6054688,-7.5000003 z m 0,0"
       style="fill:#000000;fill-opacity:1;fill-rule:nonzero;stroke:none"
       aria-label="u"
       transform="matrix(1.3333333,0,0,1.3333333,537.67001,187.5727)" />
    <path
       id="path63"
       d="m 6.8803065,-7.4519861 c 0.2226563,0.1640625 0.4101563,0.4101563 0.5976563,0.7265625 l 0.2226562,-0.984375 h 1.1953125 l -1.5,7.08984379 C 7.184994,0.35270144 6.8803065,1.1495764 6.4584315,1.7120764 5.684994,2.7667639 4.559994,3.3058264 3.0482753,3.3058264 c -0.84375,0 -1.5,-0.1992187 -1.9921875,-0.5625 -0.49218755,-0.375 -0.70312505,-0.9726562 -0.5976563,-1.76953121 h 1.3476563 c -0.023437,0.35156251 0.058594,0.62109371 0.1992187,0.80859371 0.234375,0.2929688 0.6796875,0.4335938 1.3007813,0.4335938 1.0078125,0 1.7460937,-0.3515625 2.203125,-1.0546875 C 5.778744,0.75113894 6.013119,0.00113894 6.2240565,-1.0652673 5.8842128,-0.67854856 5.5092128,-0.38557981 5.1107753,-0.19807981 4.6889003,0.00113894 4.184994,0.10660769 3.575619,0.10660769 c -0.8320312,0 -1.5234375,-0.3046875 -2.0273437,-0.890625 C 1.044369,-1.3933923 0.93890025,-2.3777673 1.231869,-3.7605798 c 0.2929688,-1.3007813 0.8085938,-2.3203125 1.6171875,-3.0585938 0.7851563,-0.7265625 1.6289063,-1.1015625 2.5195313,-1.1015625 0.6210937,0 1.125,0.1523438 1.5117187,0.46875 z m -1.5117187,0.6914063 c -0.9140625,0 -1.6289063,0.4335937 -2.15625,1.3007812 -0.28125,0.4570313 -0.5039063,1.0546875 -0.65625,1.8046875 -0.1875,0.8789063 -0.140625,1.546875 0.1054687,2.0039063 0.2578125,0.4570312 0.6914063,0.67968749 1.3007813,0.67968749 0.9375,0 1.6757812,-0.41015629 2.25,-1.26562499 0.3046875,-0.4804688 0.5273437,-1.03125 0.6679687,-1.6757813 0.2109375,-0.9726562 0.1640625,-1.6875 -0.140625,-2.1445312 -0.2929687,-0.4570313 -0.75,-0.703125 -1.3710937,-0.703125 z m 0,0"
       style="fill:#000000;fill-opacity:1;fill-rule:nonzero;stroke:none"
       aria-label="g"
       transform="matrix(1.3333333,0,0,1.3333333,553.23251,192.79926)" />
    <path
       id="path64"
       d="m 452.422,134.051 c 18.492,-0.039 33.473,-15.02 33.512,-33.512"
       style="fill:none;stroke:#000000;stroke-width:0.9216;stroke-linecap:butt;stroke-linejoin:miter;stroke-miterlimit:3.25;stroke-dasharray:0.9216, 5.5296;stroke-dashoffset:0;stroke-opacity:1"
       transform="scale(1.3333333)" />
    <path
       id="path65"
       d="m 479.652,120.66 -4.738,9.481 -4.738,-4.743 z"
       style="fill:#000000;fill-opacity:1;fill-rule:evenodd;stroke:none"
       transform="scale(1.3333333)" />
    <path
       id="path66"
       d="m 5.5545017,-11.026705 -1.5585938,7.3359372 c -0.1289062,0.5507812 -0.1289062,1.0078125 -0.023437,1.3710937 0.1875,0.65625 0.7148438,0.984375 1.6289063,0.984375 1.2773437,0 2.296875,-0.5625 3.0117187,-1.7226562 0.3867188,-0.6210938 0.6796875,-1.4765625 0.9140625,-2.5546875 l 1.1601566,-5.4140622 h 1.851563 L 10.195127,6.384375e-4 H 8.4490329 L 8.8005954,-1.6282678 c -0.328125,0.421875 -0.6914062,0.78515624 -1.1132812,1.07812499 -0.84375,0.57421875 -1.7578125,0.8671875 -2.765625,0.8671875 -1.5820313,0 -2.53125,-0.52734375 -2.8710938,-1.58203129 -0.1875,-0.5742187 -0.1875,-1.3125 0,-2.2617187 l 1.6054688,-7.4999997 z m 0,0"
       style="fill:#000000;fill-opacity:1;fill-rule:nonzero;stroke:none"
       aria-label="u"
       transform="matrix(1.3333333,0,0,1.3333333,640.2854,187.08118)" />
    <path
       id="path67"
       d="m 6.8787204,-7.4524867 c 0.2226563,0.1640625 0.4101563,0.4101563 0.5976563,0.7265625 l 0.2226562,-0.984375 h 1.1953125 l -1.5,7.08984376 c -0.2109375,0.97265625 -0.515625,1.76953124 -0.9375,2.33203124 -0.7734375,1.0546875 -1.8984375,1.59375 -3.4101562,1.59375 -0.84375,0 -1.5,-0.1992187 -1.9921875,-0.5625 C 0.56231419,2.3678258 0.35137669,1.7701696 0.45684544,0.97329456 H 1.8045017 c -0.023437,0.35156254 0.058594,0.62109374 0.1992187,0.80859374 0.234375,0.2929688 0.6796875,0.4335938 1.3007813,0.4335938 1.0078125,0 1.7460937,-0.3515625 2.203125,-1.0546875 0.2695312,-0.41015629 0.5039062,-1.1601562875 0.7148437,-2.2265625 -0.3398437,0.38671871 -0.7148437,0.67968746 -1.1132812,0.86718746 -0.421875,0.1992187525 -0.9257813,0.3046875 -1.5351563,0.3046875 -0.8320312,0 -1.5234375,-0.3046875 -2.0273437,-0.890625 C 1.0427829,-1.3938929 0.93731419,-2.3782679 1.2302829,-3.7610804 c 0.2929688,-1.3007813 0.8085938,-2.3203125 1.6171875,-3.0585938 0.7851563,-0.7265625 1.6289063,-1.1015625 2.5195313,-1.1015625 0.6210937,0 1.125,0.1523438 1.5117187,0.46875 z m -1.5117187,0.6914063 c -0.9140625,0 -1.6289063,0.4335937 -2.15625,1.3007812 -0.28125,0.4570313 -0.5039063,1.0546875 -0.65625,1.8046875 -0.1875,0.8789063 -0.140625,1.546875 0.1054687,2.0039063 0.2578125,0.4570312 0.6914063,0.67968746 1.3007813,0.67968746 0.9375,0 1.6757812,-0.41015626 2.25,-1.26562496 0.3046875,-0.4804688 0.5273437,-1.03125 0.6679687,-1.6757813 0.2109375,-0.9726562 0.1640625,-1.6875 -0.140625,-2.1445312 -0.2929687,-0.4570313 -0.75,-0.703125 -1.3710937,-0.703125 z m 0,0"
       style="fill:#000000;fill-opacity:1;fill-rule:nonzero;stroke:none"
       aria-label="g"
       transform="matrix(1.3333333,0,0,1.3333333,655.8479,192.30774)" />
    <path
       id="path68"
       d="m 452.422,134.051 -0.781,-0.957 -0.621,-1.082 -0.434,-1.172 -0.227,-1.231 -0.011,-1.25 0.203,-1.234 0.414,-1.18 0.601,-1.093 0.766,-0.973 0.895,-0.828 0.988,-0.66 1.035,-0.485 1.039,-0.304 1.004,-0.125 0.914,0.046 0.793,0.192 0.637,0.316 0.453,0.414 0.246,0.477 0.031,0.496 -0.187,0.488 -0.395,0.434 -0.586,0.348 -0.75,0.23 -0.887,0.09 -0.98,-0.074 -1.035,-0.25 -1.039,-0.434 -1.008,-0.613 -0.926,-0.782 -0.804,-0.933 -0.653,-1.059 -0.469,-1.16 -0.265,-1.223 -0.051,-1.25 0.168,-1.242 0.375,-1.191 0.57,-1.109 0.739,-0.997 0.875,-0.855 0.972,-0.691 1.031,-0.516 1.043,-0.336 1.012,-0.156 0.934,0.015 0.82,0.168 0.664,0.297 0.485,0.399 0.285,0.464 0.07,0.5 -0.148,0.489 -0.356,0.445 -0.555,0.367 -0.722,0.254 -0.864,0.117 -0.968,-0.043 -1.028,-0.222 -1.043,-0.399 -1.015,-0.582 -0.946,-0.75 -0.832,-0.91 -0.679,-1.039 -0.504,-1.145 -0.301,-1.21 -0.09,-1.25 0.129,-1.247 0.34,-1.203 0.535,-1.125 0.711,-1.019 0.852,-0.883 0.961,-0.723 1.023,-0.547 1.043,-0.367 1.023,-0.187 0.95,-0.016 0.843,0.141 0.696,0.277 0.519,0.383 0.321,0.457 0.109,0.496 -0.109,0.492 -0.321,0.457 -0.519,0.383 -0.696,0.277 -0.843,0.145 -0.95,-0.016 -1.023,-0.187 -1.043,-0.367 -1.023,-0.551 -0.961,-0.723 -0.852,-0.883 -0.711,-1.015 -0.535,-1.129 -0.34,-1.203 -0.129,-1.246 0.09,-1.246 0.301,-1.215 0.504,-1.145 0.679,-1.039 0.832,-0.906 0.946,-0.754 1.015,-0.578 1.043,-0.402 1.028,-0.219 0.968,-0.043 0.864,0.113 0.722,0.254 0.555,0.367 0.356,0.445 0.148,0.493 -0.07,0.496 -0.285,0.468 -0.485,0.399 -0.664,0.297 -0.82,0.168 -0.934,0.015 -1.012,-0.156 -1.043,-0.336 -1.031,-0.515 -0.972,-0.696 -0.875,-0.851 -0.739,-0.996 -0.57,-1.114 -0.375,-1.191 -0.168,-1.238 0.051,-1.25 0.265,-1.227 0.469,-1.156 0.653,-1.063 0.804,-0.929 0.926,-0.782 1.008,-0.613 1.039,-0.433 1.035,-0.25 0.98,-0.075 0.887,0.086 0.75,0.231 0.586,0.351 0.395,0.434 0.187,0.484 -0.031,0.5 -0.246,0.473 -0.453,0.414 -0.637,0.32 -0.793,0.192 -0.914,0.043 -1.004,-0.125 -1.039,-0.301 -1.035,-0.484 -0.988,-0.665 -0.895,-0.828 -0.766,-0.972 -0.601,-1.09 -0.414,-1.18 -0.203,-1.234 0.011,-1.254 0.227,-1.231 0.434,-1.172 0.621,-1.078 0.781,-0.957"
       style="fill:none;stroke:#000000;stroke-width:0.9216;stroke-linecap:square;stroke-linejoin:miter;stroke-miterlimit:3.25;stroke-dasharray:none;stroke-opacity:1"
       transform="scale(1.3333333)" />
    <path
       id="path69"
       d="m 9.763147,-10.583104 c 0.316406,0.234375 0.585938,0.5976564 0.84375,1.0312501 l 0.316406,-1.3828121 h 1.710938 L 10.501428,-0.89169763 C 10.196741,0.50283362 9.763147,1.6278336 9.1654908,2.4247086 c -1.1015625,1.5 -2.7070313,2.2617188 -4.8398438,2.2617188 -1.1953125,0 -2.1328125,-0.2695313 -2.8242187,-0.796875 C 0.79830325,3.3622086 0.5053345,2.5067399 0.65767825,1.3700211 H 2.5561158 c -0.023437,0.5039063 0.082031,0.890625 0.2929687,1.1601563 0.3164063,0.3984375 0.9492188,0.609375 1.8398438,0.609375 1.4414062,0 2.4726562,-0.5039063 3.1289062,-1.4882813 0.375,-0.5976562 0.7148438,-1.65234373 1.0078125,-3.1757812 -0.4804687,0.55078122 -1.0078125,0.97265622 -1.5820312,1.25390622 -0.5859375,0.26953125 -1.3125,0.421875 -2.1796875,0.421875 -1.171875,0 -2.1445313,-0.421875 -2.8710938,-1.27734372 -0.7148437,-0.8554688 -0.8554687,-2.25 -0.4335937,-4.21875 0.3984375,-1.8398438 1.1367187,-3.2929688 2.2734375,-4.3242188 1.125,-1.0429686 2.3203125,-1.5703126 3.5976562,-1.5703126 0.8554688,0 1.5820313,0.210938 2.1328125,0.65625 z m -2.1328125,0.9960939 c -1.3125,0 -2.3320312,0.609375 -3.0703125,1.8398437 -0.3984375,0.65625 -0.7148437,1.5 -0.9257812,2.5546875 -0.2695313,1.2421875 -0.2109375,2.1914063 0.1523437,2.8476563 0.3515625,0.65625 0.9609375,0.9726562 1.828125,0.9726562 1.3359375,0 2.390625,-0.5976562 3.1875,-1.7929687 0.4453125,-0.703125 0.7617188,-1.4765625 0.9609375,-2.390625 0.292969,-1.3710938 0.2226563,-2.390625 -0.1992187,-3.0351563 -0.421875,-0.65625 -1.078125,-0.9960937 -1.9335938,-0.9960937 z m 0,0"
       style="fill:#000000;fill-opacity:1;fill-rule:nonzero;stroke:none"
       aria-label="g"
       transform="matrix(1.3333333,0,0,1.3333333,621.60747,144.19674)" />
    <path
       id="path70"
       d="m 418.91,100.539 -0.808,-0.977 -0.602,-1.148 -0.352,-1.277 -0.082,-1.336 0.204,-1.332 0.472,-1.254 0.711,-1.113 0.914,-0.914 1.055,-0.692 1.137,-0.449 1.168,-0.211 h 1.14 l 1.063,0.18 0.949,0.32 0.801,0.41 0.625,0.469 0.425,0.48 0.219,0.465 0.004,0.426 -0.211,0.355 -0.414,0.278 -0.605,0.176 -0.758,0.054 -0.883,-0.086 -0.961,-0.242 -0.984,-0.422 -0.953,-0.613 -0.864,-0.801 -0.718,-0.988 -0.52,-1.145 -0.273,-1.257 -0.008,-1.317 0.269,-1.308 0.547,-1.235 0.785,-1.086 0.985,-0.89 1.125,-0.653 1.207,-0.39 1.23,-0.133 1.192,0.109 1.113,0.313 0.988,0.476 0.844,0.582 0.68,0.641 0.492,0.648 0.308,0.614 0.114,0.535 -0.078,0.437 -0.262,0.309 -0.438,0.172 -0.586,0.019 -0.711,-0.14 -0.793,-0.313 -0.828,-0.488 -0.812,-0.664 -0.738,-0.836 -0.61,-0.996 -0.426,-1.133 -0.199,-1.227 0.063,-1.281 0.336,-1.265 0.601,-1.188 0.848,-1.043 1.047,-0.848 1.187,-0.605 1.266,-0.332 1.277,-0.063 1.231,0.196 1.129,0.426 0.996,0.609 0.836,0.742 0.664,0.813 0.488,0.828 0.312,0.793 0.141,0.711 -0.019,0.586 -0.168,0.437 -0.313,0.262 -0.433,0.078 -0.54,-0.113 -0.613,-0.309 -0.648,-0.496 -0.641,-0.676 -0.582,-0.844 -0.476,-0.992 -0.313,-1.109 -0.109,-1.192 0.132,-1.23 0.391,-1.207 0.652,-1.125 0.891,-0.984 1.09,-0.79 1.23,-0.542 1.309,-0.274 1.316,0.008 1.258,0.277 1.145,0.52 0.988,0.719 0.805,0.863 0.609,0.953 0.422,0.984 0.242,0.961 0.086,0.883 -0.055,0.758 -0.175,0.601 -0.278,0.418 -0.355,0.211 -0.422,-0.004 -0.469,-0.218 -0.48,-0.426 -0.465,-0.625 -0.414,-0.801 -0.321,-0.949 -0.179,-1.063 v -1.14 l 0.215,-1.168 0.445,-1.141 0.691,-1.055 0.918,-0.91 1.11,-0.711 1.254,-0.472 1.332,-0.203 1.339,0.082 1.274,0.351 1.148,0.602 0.977,0.808"
       style="fill:none;stroke:#000000;stroke-width:0.9216;stroke-linecap:square;stroke-linejoin:miter;stroke-miterlimit:3.25;stroke-dasharray:none;stroke-opacity:1"
       transform="scale(1.3333333)" />
    <path
       id="path71"
       d="m 9.7620771,-10.582801 c 0.3164059,0.234375 0.5859379,0.5976558 0.8437499,1.0312495 l 0.316406,-1.3828125 h 1.710938 L 10.500358,-0.89139525 C 10.195671,0.503136 9.7620771,1.628136 9.1644209,2.425011 c -1.1015625,1.5 -2.7070313,2.2617188 -4.8398438,2.2617188 -1.1953125,0 -2.1328125,-0.2695313 -2.8242187,-0.796875 C 0.79723338,3.362511 0.50426463,2.5070423 0.65660838,1.3703235 H 2.5550459 c -0.023437,0.5039063 0.082031,0.890625 0.2929687,1.1601563 0.3164063,0.3984375 0.9492188,0.609375 1.8398438,0.609375 1.4414062,0 2.4726562,-0.5039063 3.1289062,-1.4882813 0.375,-0.5976562 0.7148438,-1.65234375 1.0078125,-3.1757812 -0.4804687,0.5507812 -1.0078125,0.9726562 -1.5820312,1.2539062 -0.5859375,0.26953125 -1.3125,0.421875 -2.1796875,0.421875 -1.171875,0 -2.1445313,-0.421875 -2.8710938,-1.2773437 -0.7148437,-0.8554688 -0.8554687,-2.25 -0.4335937,-4.21875 0.3984375,-1.8398438 1.1367187,-3.2929688 2.2734375,-4.3242188 1.125,-1.042969 2.3203125,-1.570312 3.5976562,-1.570312 0.8554688,0 1.5820313,0.210937 2.1328125,0.65625 z m -2.1328125,0.9960933 c -1.3125,0 -2.3320312,0.609375 -3.0703125,1.8398437 -0.3984375,0.65625 -0.7148437,1.5 -0.9257812,2.5546875 -0.2695313,1.2421875 -0.2109375,2.1914063 0.1523437,2.8476563 0.3515625,0.65625 0.9609375,0.9726562 1.828125,0.9726562 1.3359375,0 2.390625,-0.5976562 3.1875,-1.7929687 0.4453125,-0.703125 0.7617188,-1.4765625 0.9609375,-2.390625 0.2929689,-1.3710938 0.2226563,-2.390625 -0.1992187,-3.0351563 -0.421875,-0.65625 -1.078125,-0.9960937 -1.9335938,-0.9960937 z m 0,0"
       style="fill:#000000;fill-opacity:1;fill-rule:nonzero;stroke:none"
       aria-label="g"
       transform="matrix(1.3333333,0,0,1.3333333,549.13233,90.391652)" />
    <path
       id="path72"
       d="m 485.934,100.539 0.793,-1 0.578,-1.168 0.324,-1.289 0.047,-1.348 -0.235,-1.332 -0.511,-1.246 -0.746,-1.094 -0.942,-0.894 -1.082,-0.66 -1.156,-0.414 -1.18,-0.18 -1.14,0.035 -1.063,0.215 -0.933,0.348 -0.782,0.437 -0.597,0.485 -0.399,0.496 -0.183,0.468 0.039,0.422 0.25,0.352 0.457,0.262 0.64,0.148 0.793,0.023 0.906,-0.121 0.973,-0.293 0.985,-0.476 0.937,-0.668 0.832,-0.863 0.668,-1.039 0.457,-1.188 0.199,-1.289 -0.074,-1.328 -0.359,-1.297 -0.625,-1.199 -0.86,-1.039 -1.043,-0.821 -1.168,-0.57 -1.23,-0.305 -1.231,-0.047 -1.179,0.184 -1.082,0.383 -0.95,0.523 -0.792,0.621 -0.614,0.657 -0.429,0.648 -0.235,0.598 -0.039,0.512 0.156,0.398 0.34,0.262 0.504,0.113 0.649,-0.047 0.757,-0.215 0.817,-0.39 0.836,-0.567 0.789,-0.75 0.691,-0.918 0.535,-1.07 0.325,-1.192 0.078,-1.269 -0.196,-1.285 -0.468,-1.242 -0.735,-1.133 -0.957,-0.957 -1.129,-0.731 -1.242,-0.468 -1.289,-0.196 -1.266,0.078 -1.191,0.325 -1.07,0.531 -0.918,0.691 -0.75,0.793 -0.571,0.832 -0.39,0.821 -0.211,0.757 -0.047,0.649 0.113,0.504 0.262,0.34 0.398,0.156 0.508,-0.039 0.598,-0.235 0.652,-0.429 0.657,-0.614 0.621,-0.793 0.523,-0.949 0.379,-1.082 0.187,-1.179 -0.046,-1.231 -0.309,-1.23 -0.57,-1.168 -0.821,-1.043 -1.035,-0.86 -1.199,-0.625 -1.301,-0.359 -1.324,-0.078 -1.289,0.203 -1.188,0.453 -1.039,0.672 -0.863,0.832 -0.668,0.937 -0.476,0.985 -0.293,0.972 -0.125,0.907 0.023,0.793 0.152,0.636 0.262,0.457 0.348,0.254 0.422,0.035 0.472,-0.179 0.496,-0.399 0.485,-0.597 0.437,-0.782 0.348,-0.937 0.211,-1.059 0.039,-1.14 -0.18,-1.18 -0.414,-1.16 -0.66,-1.078 -0.895,-0.942 -1.093,-0.75 -1.246,-0.507 -1.332,-0.239 -1.348,0.051 -1.289,0.324 -1.172,0.578 -0.996,0.793"
       style="fill:none;stroke:#000000;stroke-width:0.9216;stroke-linecap:square;stroke-linejoin:miter;stroke-miterlimit:3.25;stroke-dasharray:none;stroke-opacity:1"
       transform="scale(1.3333333)" />
    <path
       id="path73"
       d="m 9.7615329,-10.580908 c 0.3164061,0.234375 0.5859371,0.5976563 0.8437501,1.0312501 l 0.316406,-1.3828121 h 1.710938 L 10.499814,-0.88950169 C 10.195127,0.50502956 9.7615329,1.6300296 9.1638767,2.4269046 c -1.1015625,1.5 -2.7070313,2.2617187 -4.8398438,2.2617187 -1.1953125,0 -2.1328125,-0.2695312 -2.8242187,-0.796875 C 0.79668919,3.3644046 0.50372044,2.5089358 0.65606419,1.3722171 H 2.5545017 c -0.023437,0.5039062 0.082031,0.890625 0.2929687,1.1601562 0.3164063,0.3984375 0.9492188,0.609375 1.8398438,0.609375 1.4414062,0 2.4726562,-0.5039062 3.1289062,-1.4882812 0.375,-0.5976563 0.7148438,-1.65234379 1.0078125,-3.1757813 -0.4804687,0.55078126 -1.0078125,0.97265626 -1.5820312,1.25390626 -0.5859375,0.26953125 -1.3125,0.421875 -2.1796875,0.421875 -1.171875,0 -2.1445313,-0.421875 -2.8710938,-1.27734376 -0.7148437,-0.8554687 -0.8554687,-2.25 -0.4335937,-4.21875 0.3984375,-1.8398437 1.1367187,-3.2929687 2.2734375,-4.3242187 1.125,-1.0429686 2.3203125,-1.5703126 3.5976562,-1.5703126 0.8554688,0 1.5820313,0.210938 2.1328125,0.65625 z m -2.1328125,0.9960938 c -1.3125,0 -2.3320312,0.609375 -3.0703125,1.8398438 -0.3984375,0.65625 -0.7148437,1.5 -0.9257812,2.5546875 -0.2695313,1.2421875 -0.2109375,2.1914062 0.1523437,2.8476562 0.3515625,0.65625 0.9609375,0.9726563 1.828125,0.9726563 1.3359375,0 2.390625,-0.5976563 3.1875,-1.7929688 0.4453125,-0.703125 0.7617188,-1.4765625 0.9609375,-2.390625 0.2929691,-1.3710937 0.2226563,-2.390625 -0.1992187,-3.0351562 -0.421875,-0.65625 -1.078125,-0.9960938 -1.9335938,-0.9960938 z m 0,0"
       style="fill:#000000;fill-opacity:1;fill-rule:nonzero;stroke:none"
       aria-label="g"
       transform="matrix(1.3333333,0,0,1.3333333,640.2854,90.682096)" />
    <path
       id="path74"
       d="m 456.109,67.027 c 0,0.977 -0.39,1.914 -1.082,2.606 -0.691,0.691 -1.629,1.078 -2.605,1.078 -0.977,0 -1.914,-0.387 -2.606,-1.078 -0.691,-0.692 -1.082,-1.629 -1.082,-2.606 0,-0.98 0.391,-1.918 1.082,-2.609 0.692,-0.691 1.629,-1.078 2.606,-1.078 0.976,0 1.914,0.387 2.605,1.078 0.692,0.691 1.082,1.629 1.082,2.609 z"
       style="fill:#000000;fill-opacity:1;fill-rule:evenodd;stroke:none"
       transform="scale(1.3333333)" />
    <path
       id="path75"
       d="m 456.109,134.051 c 0,0.976 -0.39,1.914 -1.082,2.605 -0.691,0.692 -1.629,1.082 -2.605,1.082 -0.977,0 -1.914,-0.39 -2.606,-1.082 -0.691,-0.691 -1.082,-1.629 -1.082,-2.605 0,-0.977 0.391,-1.914 1.082,-2.606 0.692,-0.691 1.629,-1.082 2.606,-1.082 0.976,0 1.914,0.391 2.605,1.082 0.692,0.692 1.082,1.629 1.082,2.606 z"
       style="fill:#000000;fill-opacity:1;fill-rule:evenodd;stroke:none"
       transform="scale(1.3333333)" />
    <path
       id="path76"
       d="m 422.594,100.539 c 0,0.977 -0.387,1.914 -1.078,2.606 -0.692,0.691 -1.629,1.078 -2.606,1.078 -0.98,0 -1.918,-0.387 -2.609,-1.078 -0.692,-0.692 -1.078,-1.629 -1.078,-2.606 0,-0.98 0.386,-1.918 1.078,-2.609 0.691,-0.692 1.629,-1.078 2.609,-1.078 0.977,0 1.914,0.386 2.606,1.078 0.691,0.691 1.078,1.629 1.078,2.609 z"
       style="fill:#000000;fill-opacity:1;fill-rule:evenodd;stroke:none"
       transform="scale(1.3333333)" />
    <path
       id="path77"
       d="m 489.621,100.539 c 0,0.977 -0.387,1.914 -1.078,2.606 -0.691,0.691 -1.629,1.078 -2.609,1.078 -0.977,0 -1.914,-0.387 -2.606,-1.078 -0.691,-0.692 -1.078,-1.629 -1.078,-2.606 0,-0.98 0.387,-1.918 1.078,-2.609 0.692,-0.692 1.629,-1.078 2.606,-1.078 0.98,0 1.918,0.386 2.609,1.078 0.691,0.691 1.078,1.629 1.078,2.609 z"
       style="fill:#000000;fill-opacity:1;fill-rule:evenodd;stroke:none"
       transform="scale(1.3333333)" />
    <path
       id="path78"
       d="M 552.961,100.539 H 603.23"
       style="fill:none;stroke:#000000;stroke-width:0.9216;stroke-linecap:butt;stroke-linejoin:miter;stroke-miterlimit:3.25;stroke-dasharray:0.9216, 5.5296;stroke-dashoffset:0;stroke-opacity:1"
       transform="scale(1.3333333)" />
    <path
       id="path79"
       d="m 583.121,100.539 -10.055,3.352 v -6.703 z"
       style="fill:#000000;fill-opacity:1;fill-rule:evenodd;stroke:none"
       transform="scale(1.3333333)" />
    <path
       id="path80"
       d="m 5.5532277,-11.028528 -1.5585938,7.3359372 c -0.1289062,0.5507812 -0.1289062,1.0078125 -0.023437,1.3710937 0.1875,0.65625 0.7148438,0.984375 1.6289063,0.984375 1.2773437,0 2.296875,-0.5625 3.0117187,-1.7226562 0.3867188,-0.6210938 0.6796875,-1.4765625 0.9140625,-2.5546875 L 10.68604,-11.028528 h 1.851563 l -2.34375,11.02734344 H 8.4477589 L 8.7993214,-1.6300908 c -0.328125,0.421875 -0.6914062,0.78515624 -1.1132812,1.07812499 -0.84375,0.57421875 -1.7578125,0.8671875 -2.765625,0.8671875 -1.5820313,0 -2.53125,-0.52734375 -2.8710938,-1.58203129 -0.1875,-0.5742187 -0.1875,-1.3125 0,-2.2617187 l 1.6054688,-7.4999997 z m 0,0"
       style="fill:#000000;fill-opacity:1;fill-rule:nonzero;stroke:none"
       aria-label="u"
       transform="matrix(1.3333333,0,0,1.3333333,756.7871,160.58361)" />
    <path
       id="path81"
       d="m 6.8774464,-7.4543097 c 0.2226563,0.1640625 0.4101563,0.4101563 0.5976563,0.7265625 l 0.2226562,-0.984375 h 1.1953125 l -1.5,7.08984376 c -0.2109375,0.97265625 -0.515625,1.76953124 -0.9375,2.33203124 -0.7734375,1.0546875 -1.8984375,1.59375 -3.4101562,1.59375 -0.84375,0 -1.5,-0.1992187 -1.9921875,-0.5625 C 0.56104019,2.3660028 0.35010269,1.7683466 0.45557144,0.97147156 H 1.8032277 c -0.023437,0.35156254 0.058594,0.62109374 0.1992187,0.80859374 0.234375,0.2929688 0.6796875,0.4335938 1.3007813,0.4335938 1.0078125,0 1.7460937,-0.3515625 2.203125,-1.0546875 0.2695312,-0.41015629 0.5039062,-1.16015629 0.7148437,-2.2265625 -0.3398437,0.38671871 -0.7148437,0.67968746 -1.1132812,0.86718746 -0.421875,0.19921875 -0.9257813,0.3046875 -1.5351563,0.3046875 -0.8320312,0 -1.5234375,-0.3046875 -2.0273437,-0.890625 C 1.0415089,-1.3957159 0.93604019,-2.3800909 1.2290089,-3.7629034 c 0.2929688,-1.3007813 0.8085938,-2.3203125 1.6171875,-3.0585938 0.7851563,-0.7265625 1.6289063,-1.1015625 2.5195313,-1.1015625 0.6210937,0 1.125,0.1523438 1.5117187,0.46875 z m -1.5117187,0.6914063 c -0.9140625,0 -1.6289063,0.4335937 -2.15625,1.3007812 -0.28125,0.4570313 -0.5039063,1.0546875 -0.65625,1.8046875 -0.1875,0.8789063 -0.140625,1.546875 0.1054687,2.0039063 0.2578125,0.4570312 0.6914063,0.67968746 1.3007813,0.67968746 0.9375,0 1.6757812,-0.41015626 2.25,-1.26562496 0.3046875,-0.4804688 0.5273437,-1.03125 0.6679687,-1.6757813 0.2109375,-0.9726562 0.1640625,-1.6875 -0.140625,-2.1445312 -0.2929687,-0.4570313 -0.75,-0.703125 -1.3710937,-0.703125 z m 0,0"
       style="fill:#000000;fill-opacity:1;fill-rule:nonzero;stroke:none"
       aria-label="g"
       transform="matrix(1.3333333,0,0,1.3333333,772.3496,165.81017)" />
    <path
       id="path82"
       d="M 720.523,100.539 H 670.254"
       style="fill:none;stroke:#000000;stroke-width:0.9216;stroke-linecap:butt;stroke-linejoin:miter;stroke-miterlimit:3.25;stroke-dasharray:0.9216, 5.5296;stroke-dashoffset:0;stroke-opacity:1"
       transform="scale(1.3333333)" />
    <path
       id="path83"
       d="m 700.414,100.539 -10.051,-3.351 v 6.703 z"
       style="fill:#000000;fill-opacity:1;fill-rule:evenodd;stroke:none"
       transform="scale(1.3333333)" />
    <path
       id="path84"
       d="m 5.5545811,-11.028528 -1.5585937,7.3359372 c -0.1289063,0.5507812 -0.1289063,1.0078125 -0.023437,1.3710937 0.1875,0.65625 0.7148437,0.984375 1.6289062,0.984375 1.2773438,0 2.296875,-0.5625 3.0117188,-1.7226562 0.3867187,-0.6210938 0.6796875,-1.4765625 0.9140625,-2.5546875 l 1.1601571,-5.4140622 h 1.851561 l -2.34375,11.02734344 H 8.4491124 L 8.8006749,-1.6300908 c -0.328125,0.421875 -0.6914063,0.78515624 -1.1132813,1.07812499 -0.84375,0.57421875 -1.7578125,0.8671875 -2.765625,0.8671875 -1.5820312,0 -2.53125,-0.52734375 -2.8710937,-1.58203129 -0.1875,-0.5742187 -0.1875,-1.3125 0,-2.2617187 l 1.6054687,-7.4999997 z m 0,0"
       style="fill:#000000;fill-opacity:1;fill-rule:nonzero;stroke:none"
       aria-label="u"
       transform="matrix(1.3333333,0,0,1.3333333,913.17983,160.58361)" />
    <path
       id="path85"
       d="m 6.8787999,-7.4543097 c 0.2226562,0.1640625 0.4101562,0.4101563 0.5976562,0.7265625 l 0.2226563,-0.984375 h 1.1953125 l -1.5,7.08984376 c -0.2109375,0.97265625 -0.515625,1.76953124 -0.9375,2.33203124 -0.7734375,1.0546875 -1.8984375,1.59375 -3.4101563,1.59375 -0.84375,0 -1.5,-0.1992187 -1.9921875,-0.5625 C 0.56239363,2.3660028 0.35145613,1.7683466 0.45692488,0.97147156 H 1.8045811 c -0.023437,0.35156254 0.058594,0.62109374 0.1992188,0.80859374 0.234375,0.2929688 0.6796875,0.4335938 1.3007812,0.4335938 1.0078125,0 1.7460938,-0.3515625 2.203125,-1.0546875 0.2695313,-0.41015629 0.5039063,-1.16015629 0.7148438,-2.2265625 -0.3398438,0.38671871 -0.7148438,0.67968746 -1.1132813,0.86718746 -0.421875,0.19921875 -0.9257812,0.3046875 -1.5351562,0.3046875 -0.8320313,0 -1.5234375,-0.3046875 -2.0273438,-0.890625 C 1.0428624,-1.3957159 0.93739363,-2.3800909 1.2303624,-3.7629034 c 0.2929687,-1.3007813 0.8085937,-2.3203125 1.6171875,-3.0585938 0.7851562,-0.7265625 1.6289062,-1.1015625 2.5195312,-1.1015625 0.6210938,0 1.125,0.1523438 1.5117188,0.46875 z m -1.5117188,0.6914063 c -0.9140625,0 -1.6289062,0.4335937 -2.15625,1.3007812 -0.28125,0.4570313 -0.5039062,1.0546875 -0.65625,1.8046875 -0.1875,0.8789063 -0.140625,1.546875 0.1054688,2.0039063 0.2578125,0.4570312 0.6914062,0.67968746 1.3007812,0.67968746 0.9375,0 1.6757813,-0.41015626 2.25,-1.26562496 0.3046875,-0.4804688 0.5273438,-1.03125 0.6679688,-1.6757813 0.2109375,-0.9726562 0.1640625,-1.6875 -0.140625,-2.1445312 -0.2929688,-0.4570313 -0.75,-0.703125 -1.3710938,-0.703125 z m 0,0"
       style="fill:#000000;fill-opacity:1;fill-rule:nonzero;stroke:none"
       aria-label="g"
       transform="matrix(1.3333333,0,0,1.3333333,928.74233,165.81017)" />
    <path
       id="path86"
       d="m 603.23,100.539 c 0,8.887 3.532,17.41 9.813,23.695 6.285,6.286 14.812,9.817 23.699,9.817 8.887,0 17.41,-3.531 23.696,-9.817 6.285,-6.285 9.816,-14.808 9.816,-23.695"
       style="fill:none;stroke:#000000;stroke-width:0.9216;stroke-linecap:butt;stroke-linejoin:miter;stroke-miterlimit:3.25;stroke-dasharray:0.9216, 5.5296;stroke-dashoffset:0;stroke-opacity:1"
       transform="scale(1.3333333)" />
    <path
       id="path87"
       d="m 641.77,134.051 -10.055,3.351 v -6.703 z"
       style="fill:#000000;fill-opacity:1;fill-rule:evenodd;stroke:none"
       transform="scale(1.3333333)" />
    <path
       id="path88"
       d="M 5.5553698,-11.02856 3.996776,-3.6926225 c -0.1289062,0.5507812 -0.1289062,1.0078125 -0.023437,1.3710937 0.1875,0.65625 0.7148438,0.984375 1.6289063,0.984375 1.2773437,0 2.296875,-0.5625 3.0117187,-1.7226562 0.3867188,-0.6210938 0.6796875,-1.4765625 0.9140625,-2.5546875 L 10.688183,-11.02856 h 1.851563 l -2.34375,11.02734375 H 8.449901 L 8.8014635,-1.6301225 c -0.328125,0.421875 -0.6914062,0.78515625 -1.1132812,1.078125 -0.84375,0.57421875 -1.7578125,0.8671875 -2.765625,0.8671875 -1.5820313,0 -2.53125,-0.52734375 -2.8710938,-1.5820313 -0.1875,-0.5742187 -0.1875,-1.3125 0,-2.2617187 l 1.6054688,-7.5 z m 0,0"
       style="fill:#000000;fill-opacity:1;fill-rule:nonzero;stroke:none"
       aria-label="u"
       transform="matrix(1.3333333,0,0,1.3333333,834.98347,205.26725)" />
    <path
       id="path89"
       d="m 6.8795885,-7.4543414 c 0.2226562,0.1640625 0.4101562,0.4101563 0.5976562,0.7265625 l 0.2226563,-0.984375 h 1.1953125 l -1.5,7.08984377 C 7.184276,0.35034612 6.8795885,1.1472211 6.4577135,1.7097211 5.684276,2.7644086 4.559276,3.3034711 3.0475572,3.3034711 c -0.84375,0 -1.5,-0.1992187 -1.9921875,-0.5625 -0.49218745,-0.375 -0.70312495,-0.9726562 -0.5976562,-1.76953123 h 1.3476562 c -0.023437,0.35156253 0.058594,0.62109373 0.1992188,0.80859373 0.234375,0.2929688 0.6796875,0.4335938 1.3007812,0.4335938 1.0078125,0 1.7460938,-0.3515625 2.203125,-1.0546875 0.2695313,-0.41015628 0.5039063,-1.16015628 0.7148438,-2.2265625 -0.3398438,0.38671872 -0.7148438,0.67968747 -1.1132813,0.86718747 -0.421875,0.19921875 -0.9257812,0.3046875 -1.5351562,0.3046875 -0.8320313,0 -1.5234375,-0.3046875 -2.0273438,-0.890625 C 1.043651,-1.3957476 0.93818225,-2.3801226 1.231151,-3.7629351 c 0.2929687,-1.3007813 0.8085937,-2.3203125 1.6171875,-3.0585938 0.7851562,-0.7265625 1.6289062,-1.1015625 2.5195312,-1.1015625 0.6210938,0 1.125,0.1523438 1.5117188,0.46875 z m -1.5117188,0.6914063 c -0.9140625,0 -1.6289062,0.4335937 -2.15625,1.3007812 -0.28125,0.4570313 -0.5039062,1.0546875 -0.65625,1.8046875 -0.1875,0.8789063 -0.140625,1.546875 0.1054688,2.0039063 0.2578125,0.4570312 0.6914062,0.67968747 1.3007812,0.67968747 0.9375,0 1.6757813,-0.41015627 2.25,-1.26562497 0.3046875,-0.4804688 0.5273438,-1.03125 0.6679688,-1.6757813 0.2109375,-0.9726562 0.1640625,-1.6875 -0.140625,-2.1445312 -0.2929688,-0.4570313 -0.75,-0.703125 -1.3710938,-0.703125 z m 0,0"
       style="fill:#000000;fill-opacity:1;fill-rule:nonzero;stroke:none"
       aria-label="g"
       transform="matrix(1.3333333,0,0,1.3333333,850.54597,210.49381)" />
    <path
       id="path90"
       d="m 603.23,100.539 -0.976,-0.984 -0.719,-1.223 -0.398,-1.391 -0.039,-1.464 0.32,-1.422 0.66,-1.282 0.938,-1.054 1.14,-0.774 1.262,-0.465 1.293,-0.164 1.246,0.09 1.137,0.297 0.968,0.445 0.758,0.524 0.512,0.555 0.242,0.546 -0.035,0.5 -0.316,0.434 -0.575,0.344 -0.808,0.226 -0.992,0.078 -1.118,-0.105 -1.171,-0.32 -1.145,-0.571 -1.035,-0.824 -0.84,-1.07 -0.566,-1.274 -0.235,-1.41 0.125,-1.445 0.485,-1.383 0.808,-1.211 1.067,-0.957 1.246,-0.648 1.332,-0.313 1.332,0.008 1.258,0.289 1.125,0.508 0.949,0.648 0.738,0.719 0.508,0.723 0.262,0.66 0.004,0.566 -0.247,0.43 -0.488,0.281 -0.703,0.114 -0.879,-0.071 -0.996,-0.273 -1.039,-0.485 -1.008,-0.714 -0.887,-0.938 -0.687,-1.144 -0.406,-1.305 -0.075,-1.402 0.286,-1.407 0.632,-1.312 0.946,-1.117 1.183,-0.844 1.332,-0.508 1.387,-0.16 1.348,0.176 1.234,0.472 1.07,0.7 0.875,0.847 0.657,0.91 0.437,0.895 0.215,0.808 -0.004,0.672 -0.215,0.492 -0.414,0.286 -0.593,0.066 -0.739,-0.16 -0.836,-0.383 -0.871,-0.613 -0.836,-0.828 -0.711,-1.028 -0.511,-1.199 -0.243,-1.32 0.086,-1.375 0.434,-1.344 0.769,-1.219 1.063,-1 1.281,-0.707 1.399,-0.363 1.422,-0.004 1.339,0.344"
       style="fill:none;stroke:#000000;stroke-width:0.9216;stroke-linecap:square;stroke-linejoin:miter;stroke-miterlimit:3.25;stroke-dasharray:none;stroke-opacity:1"
       transform="scale(1.3333333)" />
    <path
       id="path91"
       d="m 9.7602682,-10.582524 c 0.3164058,0.234375 0.5859378,0.5976561 0.8437498,1.0312498 l 0.316406,-1.3828128 h 1.710938 L 10.498549,-0.89111794 C 10.193862,0.50341331 9.7602682,1.6284133 9.1626119,2.4252883 c -1.1015625,1.5 -2.7070312,2.2617188 -4.8398437,2.2617188 -1.1953125,0 -2.1328125,-0.2695313 -2.8242188,-0.796875 C 0.79542444,3.3627883 0.50245569,2.5073196 0.65479944,1.3706008 H 2.5532369 c -0.023437,0.5039063 0.082031,0.890625 0.2929688,1.1601563 0.3164062,0.3984375 0.9492187,0.609375 1.8398437,0.609375 1.4414063,0 2.4726563,-0.5039063 3.1289063,-1.4882813 0.375,-0.5976562 0.7148437,-1.6523437375 1.0078125,-3.1757812 -0.4804688,0.55078121 -1.0078125,0.97265621 -1.5820313,1.25390621 -0.5859375,0.2695312525 -1.3125,0.421875 -2.1796875,0.421875 -1.171875,0 -2.1445312,-0.421875 -2.8710937,-1.27734371 -0.7148438,-0.8554688 -0.8554688,-2.25 -0.4335938,-4.21875 0.3984375,-1.8398438 1.1367188,-3.2929688 2.2734375,-4.3242188 1.125,-1.0429683 2.3203125,-1.5703123 3.5976563,-1.5703123 0.8554687,0 1.5820312,0.210937 2.1328125,0.65625 z m -2.1328125,0.9960936 c -1.3125,0 -2.3320313,0.609375 -3.0703125,1.8398437 -0.3984375,0.65625 -0.7148438,1.5 -0.9257813,2.5546875 -0.2695312,1.2421875 -0.2109375,2.1914063 0.1523438,2.8476563 0.3515625,0.65625 0.9609375,0.9726562 1.828125,0.9726562 1.3359375,0 2.390625,-0.5976562 3.1875,-1.7929687 0.4453125,-0.703125 0.7617187,-1.4765625 0.9609375,-2.390625 0.2929688,-1.3710938 0.2226562,-2.390625 -0.1992188,-3.0351563 -0.421875,-0.65625 -1.078125,-0.9960937 -1.9335937,-0.9960937 z m 0,0"
       style="fill:#000000;fill-opacity:1;fill-rule:nonzero;stroke:none"
       aria-label="g"
       transform="matrix(1.3333333,0,0,1.3333333,784.27147,102.82488)" />
    <path
       id="path92"
       d="m 653.5,71.215 c -1.152,-5.113 -4.57,-9.418 -9.289,-11.695 -4.719,-2.282 -10.219,-2.282 -14.938,0 -4.718,2.277 -8.136,6.582 -9.289,11.695"
       style="fill:none;stroke:#000000;stroke-width:0.9216;stroke-linecap:square;stroke-linejoin:miter;stroke-miterlimit:3.25;stroke-dasharray:none;stroke-opacity:1"
       transform="scale(1.3333333)" />
    <path
       id="path93"
       d="M 641.77,57.809 631.715,54.457 V 61.16 Z"
       style="fill:#000000;fill-opacity:1;fill-rule:evenodd;stroke:none"
       transform="scale(1.3333333)" />
    <path
       id="path94"
       d="m 5.5553689,-11.027116 -1.5585938,7.3359379 c -0.1289062,0.5507812 -0.1289062,1.0078125 -0.023437,1.3710937 0.1875,0.65625 0.7148438,0.984375 1.6289063,0.984375 1.2773437,0 2.296875,-0.5625 3.0117187,-1.7226562 0.3867188,-0.6210938 0.6796875,-1.4765625 0.9140625,-2.5546875 l 1.1601564,-5.4140629 h 1.851563 L 10.195994,2.28125e-4 H 8.4499001 L 8.8014626,-1.6286781 c -0.328125,0.421875 -0.6914062,0.78515622 -1.1132812,1.07812497 -0.84375,0.57421875 -1.7578125,0.8671875 -2.765625,0.8671875 -1.5820313,0 -2.53125,-0.52734375 -2.8710938,-1.58203127 -0.1875,-0.5742187 -0.1875,-1.3125 0,-2.2617187 l 1.6054688,-7.5000004 z m 0,0"
       style="fill:#000000;fill-opacity:1;fill-rule:nonzero;stroke:none"
       aria-label="u"
       transform="matrix(1.3333333,0,0,1.3333333,835.0069,59.960633)" />
    <path
       id="path95"
       d="m 3.1881814,-10.675553 h 1.265625 l -1.3242188,6.2109373 4.0546875,-3.3046875 h 1.6757813 l -3.5859375,2.90625 2.109375,4.8632812 h -1.6875 L 4.1139626,-3.9138345 2.8014626,-2.9177408 2.1686501,2.28e-4 H 0.92646263 Z m 0,0"
       style="fill:#000000;fill-opacity:1;fill-rule:nonzero;stroke:none"
       aria-label="k"
       transform="matrix(1.3333333,0,0,1.3333333,850.5694,65.187196)" />
    <path
       id="path96"
       d="m 619.984,71.215 c 1.153,5.109 4.571,9.418 9.289,11.695 4.719,2.278 10.219,2.278 14.938,0 4.719,-2.277 8.137,-6.586 9.289,-11.695"
       style="fill:none;stroke:#000000;stroke-width:0.9216;stroke-linecap:square;stroke-linejoin:miter;stroke-miterlimit:3.25;stroke-dasharray:none;stroke-opacity:1"
       transform="scale(1.3333333)" />
    <path
       id="path97"
       d="m 631.715,84.621 10.055,3.352 V 81.27 Z"
       style="fill:#000000;fill-opacity:1;fill-rule:evenodd;stroke:none"
       transform="scale(1.3333333)" />
    <path
       id="path98"
       d="m 5.5553689,-11.026976 -1.5585938,7.335938 c -0.1289062,0.5507812 -0.1289062,1.0078125 -0.023437,1.3710937 0.1875,0.65625 0.7148438,0.984375 1.6289063,0.984375 1.2773437,0 2.296875,-0.5625 3.0117187,-1.7226562 0.3867188,-0.6210938 0.6796875,-1.4765625 0.9140625,-2.5546875 l 1.1601564,-5.414063 h 1.851563 L 10.195994,3.6825e-4 H 8.4499001 L 8.8014626,-1.628538 c -0.328125,0.421875 -0.6914062,0.78515625 -1.1132812,1.078125 -0.84375,0.57421875 -1.7578125,0.8671875 -2.765625,0.8671875 -1.5820313,0 -2.53125,-0.52734375 -2.8710938,-1.5820313 -0.1875,-0.5742187 -0.1875,-1.3125 0,-2.2617187 l 1.6054688,-7.5000005 z m 0,0"
       style="fill:#000000;fill-opacity:1;fill-rule:nonzero;stroke:none"
       aria-label="u"
       transform="matrix(1.3333333,0,0,1.3333333,835.0069,139.35888)" />
    <path
       id="path99"
       d="m 3.1881814,-10.675412 h 1.265625 l -1.3242188,6.2109374 4.0546875,-3.3046875 h 1.6757813 l -3.5859375,2.90625 2.109375,4.863281225 h -1.6875 L 4.1139626,-3.9136934 2.8014626,-2.9175996 2.1686501,3.69125e-4 H 0.92646263 Z m 0,0"
       style="fill:#000000;fill-opacity:1;fill-rule:nonzero;stroke:none"
       aria-label="k"
       transform="matrix(1.3333333,0,0,1.3333333,850.5694,144.58545)" />
    <path
       id="path100"
       d="m 670.254,100.539 0.965,-0.992 0.707,-1.231 0.386,-1.39 0.028,-1.461 -0.336,-1.418 -0.664,-1.277 -0.945,-1.047 -1.145,-0.762 -1.266,-0.457 -1.293,-0.16 -1.246,0.097 -1.133,0.305 -0.968,0.445 -0.754,0.532 -0.508,0.558 -0.238,0.551 0.039,0.504 0.316,0.437 0.578,0.34 0.809,0.227 0.996,0.07 1.117,-0.109 1.168,-0.328 1.145,-0.575 1.027,-0.832 0.832,-1.074 0.563,-1.277 0.23,-1.406 -0.133,-1.446 -0.484,-1.375 -0.809,-1.211 -1.07,-0.953 -1.246,-0.644 -1.328,-0.313 -1.336,0.008 -1.258,0.289 -1.125,0.504 -0.949,0.652 -0.738,0.719 -0.508,0.723 -0.258,0.664 -0.004,0.566 0.25,0.438 0.488,0.281 0.707,0.117 0.875,-0.07 0.996,-0.274 1.043,-0.484 1.008,-0.715 0.887,-0.937 0.683,-1.145 0.407,-1.305 0.078,-1.402 -0.281,-1.402 -0.629,-1.313 -0.942,-1.117 -1.179,-0.848 -1.329,-0.515 -1.382,-0.164 -1.348,0.172 -1.238,0.464 -1.078,0.692 -0.875,0.844 -0.664,0.906 -0.442,0.89 -0.215,0.813 v 0.672 l 0.215,0.492 0.414,0.293 0.594,0.07 0.742,-0.152 0.84,-0.379 0.875,-0.605 0.84,-0.825 0.715,-1.023 0.519,-1.195 0.246,-1.321 -0.074,-1.375 -0.422,-1.343 -0.762,-1.223 -1.054,-1.008 -1.27,-0.719 -1.394,-0.375 -1.418,-0.015 -1.344,0.328"
       style="fill:none;stroke:#000000;stroke-width:0.9216;stroke-linecap:square;stroke-linejoin:miter;stroke-miterlimit:3.25;stroke-dasharray:none;stroke-opacity:1"
       transform="scale(1.3333333)" />
    <path
       id="path101"
       d="m 9.7620356,-10.582988 c 0.3164064,0.234375 0.5859374,0.5976558 0.8437504,1.0312495 l 0.316406,-1.3828125 h 1.710937 L 10.500317,-0.89158225 C 10.195629,0.502949 9.7620356,1.627949 9.1643793,2.424824 c -1.1015625,1.5 -2.7070312,2.2617188 -4.8398437,2.2617188 -1.1953125,0 -2.1328125,-0.2695313 -2.8242188,-0.796875 C 0.79719181,3.362324 0.50422306,2.5068553 0.65656681,1.3701365 H 2.5550043 c -0.023437,0.5039063 0.082031,0.890625 0.2929688,1.1601563 0.3164062,0.3984375 0.9492187,0.609375 1.8398437,0.609375 1.4414063,0 2.4726563,-0.5039063 3.1289063,-1.4882813 0.375,-0.5976562 0.7148437,-1.65234375 1.0078125,-3.1757812 -0.4804688,0.5507812 -1.0078125,0.9726562 -1.5820313,1.2539062 -0.5859375,0.26953125 -1.3125,0.421875 -2.1796875,0.421875 -1.171875,0 -2.1445312,-0.421875 -2.8710937,-1.2773437 -0.7148438,-0.8554688 -0.8554688,-2.25 -0.4335938,-4.21875 0.3984375,-1.8398438 1.1367188,-3.2929688 2.2734375,-4.3242188 1.125,-1.042969 2.3203125,-1.570312 3.5976563,-1.570312 0.8554687,0 1.5820312,0.210937 2.1328125,0.65625 z m -2.1328125,0.9960933 c -1.3125,0 -2.3320313,0.609375 -3.0703125,1.8398437 -0.3984375,0.65625 -0.7148438,1.5 -0.9257813,2.5546875 -0.2695312,1.2421875 -0.2109375,2.1914063 0.1523438,2.8476563 0.3515625,0.65625 0.9609375,0.9726562 1.828125,0.9726562 1.3359375,0 2.390625,-0.5976562 3.1875,-1.7929687 0.4453125,-0.703125 0.7617187,-1.4765625 0.9609375,-2.390625 0.2929684,-1.3710938 0.2226562,-2.390625 -0.1992188,-3.0351563 -0.421875,-0.65625 -1.078125,-0.9960937 -1.9335937,-0.9960937 z m 0,0"
       style="fill:#000000;fill-opacity:1;fill-rule:nonzero;stroke:none"
       aria-label="g"
       transform="matrix(1.3333333,0,0,1.3333333,896.83942,102.8919)" />
    <path
       id="path102"
       d="m 657.184,71.215 c 0,0.976 -0.387,1.914 -1.079,2.605 -0.691,0.692 -1.628,1.082 -2.605,1.082 -0.98,0 -1.918,-0.39 -2.609,-1.082 -0.692,-0.691 -1.079,-1.629 -1.079,-2.605 0,-0.977 0.387,-1.914 1.079,-2.606 0.691,-0.691 1.629,-1.082 2.609,-1.082 0.977,0 1.914,0.391 2.605,1.082 0.692,0.692 1.079,1.629 1.079,2.606 z"
       style="fill:#000000;fill-opacity:1;fill-rule:evenodd;stroke:none"
       transform="scale(1.3333333)" />
    <path
       id="path103"
       d="m 623.672,71.215 c 0,0.976 -0.387,1.914 -1.078,2.605 -0.692,0.692 -1.629,1.082 -2.61,1.082 -0.976,0 -1.914,-0.39 -2.605,-1.082 -0.691,-0.691 -1.078,-1.629 -1.078,-2.605 0,-0.977 0.387,-1.914 1.078,-2.606 0.691,-0.691 1.629,-1.082 2.605,-1.082 0.981,0 1.918,0.391 2.61,1.082 0.691,0.692 1.078,1.629 1.078,2.606 z"
       style="fill:#000000;fill-opacity:1;fill-rule:evenodd;stroke:none"
       transform="scale(1.3333333)" />
    <path
       id="path104"
       d="m 606.914,100.539 c 0,0.977 -0.387,1.914 -1.078,2.606 -0.691,0.691 -1.629,1.078 -2.606,1.078 -0.98,0 -1.918,-0.387 -2.609,-1.078 -0.691,-0.692 -1.078,-1.629 -1.078,-2.606 0,-0.98 0.387,-1.918 1.078,-2.609 0.691,-0.692 1.629,-1.078 2.609,-1.078 0.977,0 1.915,0.386 2.606,1.078 0.691,0.691 1.078,1.629 1.078,2.609 z"
       style="fill:#000000;fill-opacity:1;fill-rule:evenodd;stroke:none"
       transform="scale(1.3333333)" />
    <path
       id="path105"
       d="m 673.941,100.539 c 0,0.977 -0.39,1.914 -1.082,2.606 -0.691,0.691 -1.629,1.078 -2.605,1.078 -0.977,0 -1.914,-0.387 -2.606,-1.078 -0.691,-0.692 -1.082,-1.629 -1.082,-2.606 0,-0.98 0.391,-1.918 1.082,-2.609 0.692,-0.692 1.629,-1.078 2.606,-1.078 0.976,0 1.914,0.386 2.605,1.078 0.692,0.691 1.082,1.629 1.082,2.609 z"
       style="fill:#000000;fill-opacity:1;fill-rule:evenodd;stroke:none"
       transform="scale(1.3333333)" />
  </g>
</svg>
