<?xml version="1.0" encoding="UTF-8" standalone="no"?>
<!-- Created with Inkscape (http://www.inkscape.org/) -->

<svg
   version="1.1"
   id="svg1"
   width="984"
   height="246.66667"
   viewBox="0 0 984 246.66667"
   sodipodi:docname="1vjsk3vgxy6ft.pdf"
   xmlns:inkscape="http://www.inkscape.org/namespaces/inkscape"
   xmlns:sodipodi="http://sodipodi.sourceforge.net/DTD/sodipodi-0.dtd"
   xmlns="http://www.w3.org/2000/svg"
   xmlns:svg="http://www.w3.org/2000/svg">
  <defs
     id="defs1">
    <clipPath
       clipPathUnits="userSpaceOnUse"
       id="clipPath28">
      <path
         d="m 227,137 h 13.961 v 17 H 227 Z"
         transform="translate(-227.37845,-148.65219)"
         id="path28" />
    </clipPath>
    <clipPath
       clipPathUnits="userSpaceOnUse"
       id="clipPath37">
      <path
         d="m 227,56 h 13.961 V 73 H 227 Z"
         transform="translate(-227.52925,-67.793741)"
         id="path37" />
    </clipPath>
  </defs>
  <sodipodi:namedview
     id="namedview1"
     pagecolor="#ffffff"
     bordercolor="#999999"
     borderopacity="1"
     inkscape:showpageshadow="0"
     inkscape:pageopacity="0"
     inkscape:pagecheckerboard="0"
     inkscape:deskcolor="#d1d1d1">
    <inkscape:page
       x="0"
       y="0"
       id="page1"
       width="984"
       height="246.66667"
       margin="0"
       bleed="0" />
  </sodipodi:namedview>
  <g
     id="g1"
     inkscape:groupmode="layer"
     inkscape:label="">
    <path
       id="path1"
       d="m 50.27,100.539 -0.997,0.836 -1.14,0.648 -1.238,0.426 -1.297,0.18 -1.305,-0.074 -1.27,-0.325 -1.183,-0.558 -1.063,-0.762 -0.898,-0.93 -0.711,-1.05 -0.508,-1.118 -0.293,-1.124 -0.086,-1.083 0.11,-0.976 0.281,-0.832 0.418,-0.637 0.519,-0.41 0.575,-0.168 0.582,0.09 0.543,0.336 0.457,0.57 0.328,0.77 0.168,0.937 -0.024,1.055 -0.226,1.121 -0.442,1.125 -0.648,1.074 -0.844,0.973 -1.016,0.82 -1.148,0.625 -1.246,0.402 -1.301,0.153 -1.305,-0.102 -1.261,-0.347 -1.176,-0.582 -1.043,-0.782 -0.883,-0.945 -0.691,-1.059 -0.485,-1.121 -0.273,-1.125 -0.062,-1.07 0.128,-0.969 0.297,-0.808 0.434,-0.614 0.527,-0.386 0.578,-0.141 0.578,0.113 0.536,0.364 0.445,0.589 0.312,0.793 0.149,0.95 -0.043,1.066 -0.25,1.121 -0.461,1.125 -0.672,1.067 -0.863,0.96 -1.028,0.801 -1.164,0.602 -1.253,0.375 -1.305,0.125 -1.301,-0.125 -1.254,-0.375 -1.164,-0.602 -1.027,-0.801 -0.864,-0.96 -0.671,-1.067 -0.461,-1.125 -0.25,-1.121 -0.043,-1.066 0.148,-0.95 0.313,-0.793 0.445,-0.589 0.535,-0.364 0.578,-0.113 0.578,0.141 0.528,0.386 0.433,0.614 0.297,0.808 0.129,0.969 -0.066,1.07 -0.27,1.125 -0.484,1.121 -0.692,1.059 -0.882,0.945 -1.043,0.782 -1.176,0.582 -1.262,0.347 -1.305,0.102 -1.3,-0.153 -1.247,-0.402 -1.152,-0.625 -1.012,-0.82 L 9.348,99.66 8.699,98.586 8.258,97.461 8.031,96.34 8.008,95.285 l 0.168,-0.937 0.328,-0.77 0.457,-0.57 0.543,-0.336 0.578,-0.09 0.578,0.168 0.516,0.41 0.422,0.637 0.281,0.832 0.109,0.976 -0.086,1.083 -0.293,1.124 -0.507,1.118 -0.711,1.05 -0.899,0.93 -1.062,0.762 -1.184,0.558 -1.269,0.325 -1.305,0.074 -1.297,-0.18 L 2.133,102.023 0.996,101.375 0,100.539"
       style="fill:none;stroke:#000000;stroke-width:0.9216;stroke-linecap:square;stroke-linejoin:miter;stroke-miterlimit:3.25;stroke-dasharray:none;stroke-opacity:1"
       transform="scale(1.3333333)" />
    <path
       id="path2"
       d="m 9.7609628,-10.581262 c 0.3164062,0.234375 0.5859372,0.5976558 0.8437502,1.0312496 l 0.316406,-1.3828126 h 1.710938 L 10.499244,-0.88985619 C 10.194557,0.50467506 9.7609628,1.6296751 9.1633066,2.4265501 c -1.1015625,1.5 -2.7070313,2.2617187 -4.8398438,2.2617187 -1.1953125,0 -2.1328125,-0.2695312 -2.8242187,-0.796875 C 0.79611906,3.3640501 0.50315031,2.5085813 0.65549406,1.3718626 H 2.5539316 c -0.023437,0.5039062 0.082031,0.890625 0.2929687,1.1601562 0.3164063,0.3984375 0.9492188,0.609375 1.8398438,0.609375 1.4414062,0 2.4726562,-0.5039062 3.1289062,-1.4882812 0.375,-0.5976563 0.7148438,-1.6523437875 1.0078125,-3.1757813 -0.4804687,0.55078126 -1.0078125,0.97265626 -1.5820312,1.25390626 -0.5859375,0.2695312525 -1.3125,0.421875 -2.1796875,0.421875 -1.171875,0 -2.1445313,-0.421875 -2.8710938,-1.27734376 -0.7148437,-0.8554687 -0.8554687,-2.25 -0.4335937,-4.21875 0.3984375,-1.8398437 1.1367187,-3.2929687 2.2734375,-4.3242187 1.125,-1.0429691 2.3203125,-1.5703121 3.5976562,-1.5703121 0.8554688,0 1.5820313,0.210937 2.1328125,0.65625 z m -2.1328125,0.9960933 c -1.3125,0 -2.3320312,0.609375 -3.0703125,1.8398438 -0.3984375,0.65625 -0.7148437,1.5 -0.9257812,2.5546875 -0.2695313,1.2421875 -0.2109375,2.1914062 0.1523437,2.8476562 0.3515625,0.65625 0.9609375,0.9726563 1.828125,0.9726563 1.3359375,0 2.390625,-0.5976563 3.1875,-1.7929688 0.4453125,-0.703125 0.7617188,-1.4765625 0.9609375,-2.390625 0.2929692,-1.3710937 0.2226563,-2.390625 -0.1992187,-3.0351562 -0.421875,-0.65625 -1.078125,-0.9960938 -1.9335938,-0.9960938 z m 0,0"
       style="fill:#000000;fill-opacity:1;fill-rule:nonzero;stroke:none"
       aria-label="g"
       transform="matrix(1.3333333,0,0,1.3333333,25.137727,171.21382)" />
    <path
       id="path3"
       d="m 117.293,100.539 1,-0.84 1.137,-0.648 1.238,-0.422 1.297,-0.18 1.305,0.074 1.269,0.325 1.188,0.554 1.058,0.766 0.899,0.93 0.714,1.047 0.504,1.117 0.297,1.129 0.086,1.078 -0.113,0.98 -0.281,0.828 -0.418,0.637 -0.52,0.414 -0.574,0.164 -0.582,-0.086 -0.543,-0.336 -0.453,-0.57 -0.332,-0.773 -0.164,-0.938 0.019,-1.055 0.231,-1.117 0.437,-1.125 0.653,-1.078 0.843,-0.973 1.012,-0.82 1.148,-0.625 1.25,-0.398 1.297,-0.153 1.305,0.098 1.262,0.352 1.176,0.578 1.046,0.785 0.879,0.941 0.692,1.063 0.484,1.117 0.273,1.125 0.063,1.074 -0.129,0.965 -0.297,0.812 -0.433,0.614 -0.528,0.386 -0.574,0.141 -0.582,-0.113 -0.535,-0.363 -0.445,-0.59 -0.313,-0.793 -0.148,-0.953 0.043,-1.063 0.25,-1.121 0.464,-1.125 0.668,-1.066 0.864,-0.961 1.031,-0.801 1.16,-0.606 1.254,-0.371 1.305,-0.129 1.3,0.129 1.258,0.371 1.16,0.606 1.032,0.801 0.859,0.961 0.672,1.066 0.461,1.125 0.25,1.121 0.043,1.063 -0.149,0.953 -0.312,0.793 -0.445,0.59 -0.532,0.363 -0.582,0.113 -0.578,-0.141 -0.527,-0.386 -0.43,-0.614 -0.301,-0.812 -0.129,-0.965 0.067,-1.074 0.269,-1.125 0.489,-1.117 0.691,-1.063 0.879,-0.941 1.047,-0.785 1.172,-0.578 1.261,-0.352 1.305,-0.098 1.301,0.153 1.246,0.398 1.152,0.625 1.012,0.82 0.844,0.973 0.648,1.078 0.442,1.125 0.226,1.117 0.024,1.055 -0.168,0.938 -0.328,0.773 -0.457,0.57 -0.54,0.336 -0.582,0.086 -0.574,-0.164 -0.519,-0.414 -0.422,-0.637 -0.281,-0.828 -0.11,-0.98 0.086,-1.078 0.293,-1.129 0.508,-1.117 0.711,-1.047 0.902,-0.93 1.059,-0.766 1.187,-0.554 1.266,-0.325 1.309,-0.074 1.296,0.18 1.239,0.422 1.136,0.648 0.996,0.84"
       style="fill:none;stroke:#000000;stroke-width:0.9216;stroke-linecap:square;stroke-linejoin:miter;stroke-miterlimit:3.25;stroke-dasharray:none;stroke-opacity:1"
       transform="scale(1.3333333)" />
    <path
       id="path4"
       d="m 9.7623153,-10.582015 c 0.3164067,0.234375 0.5859377,0.5976566 0.8437497,1.0312504 l 0.316407,-1.3828124 h 1.710937 L 10.500597,-0.89060837 C 10.195909,0.50392288 9.7623153,1.6289229 9.164659,2.4257979 c -1.1015625,1.5 -2.7070312,2.2617187 -4.8398437,2.2617187 -1.1953125,0 -2.1328125,-0.2695312 -2.8242188,-0.796875 C 0.7974715,3.3632979 0.50450275,2.5078291 0.6568465,1.3711104 H 2.555284 c -0.023437,0.5039062 0.082031,0.890625 0.2929688,1.1601562 0.3164062,0.3984375 0.9492187,0.609375 1.8398437,0.609375 1.4414063,0 2.4726563,-0.5039062 3.1289063,-1.4882812 0.375,-0.5976563 0.7148437,-1.652343775 1.0078125,-3.1757813 -0.4804688,0.55078128 -1.0078125,0.97265628 -1.5820313,1.25390628 -0.5859375,0.269531245 -1.3125,0.421875 -2.1796875,0.421875 -1.171875,0 -2.1445312,-0.421875 -2.8710937,-1.27734378 -0.7148438,-0.8554687 -0.8554688,-2.25 -0.4335938,-4.21875 0.3984375,-1.8398437 1.1367188,-3.2929687 2.2734375,-4.3242187 1.125,-1.0429689 2.3203125,-1.5703129 3.5976563,-1.5703129 0.8554687,0 1.5820312,0.210938 2.1328125,0.65625 z m -2.1328125,0.9960941 c -1.3125,0 -2.3320313,0.609375 -3.0703125,1.8398438 -0.3984375,0.65625 -0.7148438,1.5 -0.9257813,2.5546875 -0.2695312,1.2421875 -0.2109375,2.1914062 0.1523438,2.8476562 0.3515625,0.65625 0.9609375,0.9726563 1.828125,0.9726563 1.3359375,0 2.390625,-0.5976563 3.1875,-1.7929688 0.4453125,-0.703125 0.7617187,-1.4765625 0.9609375,-2.390625 0.2929687,-1.3710937 0.2226562,-2.390625 -0.1992188,-3.0351562 -0.421875,-0.65625 -1.078125,-0.9960938 -1.9335937,-0.9960938 z m 0,0"
       style="fill:#000000;fill-opacity:1;fill-rule:nonzero;stroke:none"
       aria-label="g"
       transform="matrix(1.3333333,0,0,1.3333333,181.53045,117.17967)" />
    <path
       id="path5"
       d="m 50.27,100.539 c -0.317,8.981 3.113,17.691 9.468,24.043 6.352,6.356 15.063,9.785 24.043,9.469"
       style="fill:none;stroke:#000000;stroke-width:0.9216;stroke-linecap:square;stroke-linejoin:miter;stroke-miterlimit:3.25;stroke-dasharray:none;stroke-opacity:1"
       transform="scale(1.3333333)" />
    <path
       id="path6"
       d="m 63.289,128.137 -9.477,-4.739 4.739,-4.738 z"
       style="fill:#000000;fill-opacity:1;fill-rule:evenodd;stroke:none"
       transform="scale(1.3333333)" />
    <path
       id="path7"
       d="m 5.5538609,-11.027181 -1.5585937,7.3359375 c -0.1289063,0.5507812 -0.1289063,1.0078125 -0.023437,1.3710937 0.1875,0.65625 0.7148437,0.984375 1.6289062,0.984375 1.2773438,0 2.296875,-0.5625 3.0117188,-1.7226562 0.3867187,-0.6210938 0.6796875,-1.4765625 0.9140625,-2.5546875 l 1.1601563,-5.4140625 h 1.851563 L 10.194486,1.6275e-4 H 8.4483922 L 8.7999547,-1.6287435 c -0.328125,0.421875 -0.6914063,0.78515625 -1.1132813,1.078125 -0.84375,0.57421875 -1.7578125,0.8671875 -2.765625,0.8671875 -1.5820312,0 -2.53125,-0.52734375 -2.8710937,-1.5820313 -0.1875,-0.5742187 -0.1875,-1.3125 0,-2.2617187 l 1.6054687,-7.5 z m 0,0"
       style="fill:#000000;fill-opacity:1;fill-rule:nonzero;stroke:none"
       aria-label="u"
       transform="matrix(1.3333333,0,0,1.3333333,57.520633,198.20291)" />
    <path
       id="path8"
       d="m 117.293,100.539 0.793,0.996 0.578,1.172 0.324,1.289 0.047,1.348 -0.234,1.332 -0.508,1.246 -0.75,1.094 -0.941,0.894 -1.082,0.66 -1.157,0.414 -1.179,0.176 -1.141,-0.035 -1.059,-0.211 -0.937,-0.348 -0.781,-0.437 -0.598,-0.488 -0.398,-0.493 -0.18,-0.472 0.035,-0.422 0.254,-0.352 0.453,-0.257 0.641,-0.153 0.793,-0.023 0.906,0.125 0.973,0.293 0.984,0.472 0.937,0.672 0.832,0.86 0.672,1.043 0.453,1.187 0.2,1.285 -0.075,1.328 -0.359,1.301 -0.625,1.199 -0.859,1.036 -1.043,0.82 -1.168,0.57 -1.231,0.305 -1.23,0.051 -1.18,-0.188 -1.082,-0.379 -0.949,-0.527 -0.793,-0.617 -0.613,-0.66 -0.43,-0.649 -0.234,-0.598 -0.04,-0.507 0.157,-0.399 0.34,-0.262 0.503,-0.113 0.649,0.043 0.758,0.215 0.82,0.391 0.832,0.57 0.793,0.75 0.688,0.918 0.535,1.07 0.324,1.192 0.078,1.265 -0.195,1.289 -0.469,1.242 -0.73,1.129 -0.957,0.957 -1.133,0.731 -1.243,0.473 -1.285,0.195 -1.269,-0.078 -1.192,-0.324 -1.07,-0.536 -0.918,-0.691 -0.75,-0.789 -0.57,-0.836 -0.387,-0.82 -0.215,-0.754 -0.047,-0.649 0.114,-0.508 0.261,-0.335 0.399,-0.157 0.512,0.039 0.597,0.235 0.649,0.426 0.656,0.617 0.621,0.793 0.523,0.949 0.383,1.078 0.184,1.18 -0.047,1.234 -0.305,1.231 -0.57,1.168 -0.824,1.042 -1.035,0.856 -1.2,0.629 -1.297,0.359 -1.328,0.074 -1.289,-0.199 -1.187,-0.457 -1.039,-0.668 -0.864,-0.832 -0.668,-0.937 -0.476,-0.985 -0.293,-0.972 -0.125,-0.907 0.023,-0.793 0.153,-0.64 0.261,-0.457 0.352,-0.25 0.422,-0.039 0.469,0.183 0.496,0.399 0.484,0.597 0.438,0.778 0.347,0.937 0.215,1.059 0.035,1.144 -0.179,1.18 -0.415,1.156 -0.66,1.082 -0.894,0.942 -1.094,0.746 -1.246,0.508 -1.332,0.238 -1.348,-0.047 -1.289,-0.324 -1.168,-0.578 -1,-0.793"
       style="fill:none;stroke:#000000;stroke-width:0.9216;stroke-linecap:square;stroke-linejoin:miter;stroke-miterlimit:3.25;stroke-dasharray:none;stroke-opacity:1"
       transform="scale(1.3333333)" />
    <path
       id="path9"
       d="m 9.7618845,-10.582369 c 0.3164065,0.234375 0.5859375,0.5976561 0.8437505,1.0312499 l 0.316406,-1.3828129 h 1.710937 L 10.500166,-0.89096287 C 10.195478,0.50356838 9.7618845,1.6285684 9.1642283,2.4254434 8.0626658,3.9254434 6.457197,4.6871621 4.3243845,4.6871621 3.129072,4.6871621 2.191572,4.4176309 1.5001658,3.8902871 0.79704075,3.3629434 0.504072,2.5074746 0.65641575,1.3707559 H 2.5548533 c -0.023437,0.5039062 0.082031,0.890625 0.2929687,1.1601562 0.3164063,0.3984375 0.9492188,0.609375 1.8398438,0.609375 1.4414062,0 2.4726562,-0.5039062 3.1289062,-1.4882812 0.375,-0.5976563 0.7148438,-1.652343775 1.0078125,-3.1757813 -0.4804687,0.55078128 -1.0078125,0.97265628 -1.5820312,1.25390628 -0.5859375,0.269531245 -1.3125,0.421875 -2.1796875,0.421875 -1.171875,0 -2.1445313,-0.421875 -2.8710938,-1.27734378 -0.7148437,-0.8554687 -0.8554687,-2.25 -0.4335937,-4.21875 0.3984375,-1.8398437 1.1367187,-3.2929687 2.2734375,-4.3242187 1.125,-1.0429684 2.3203125,-1.5703124 3.5976562,-1.5703124 0.8554688,0 1.5820313,0.210937 2.1328125,0.65625 z M 7.629072,-9.5862754 c -1.3125,0 -2.3320312,0.609375 -3.0703125,1.8398438 -0.3984375,0.65625 -0.7148437,1.5 -0.9257812,2.5546875 -0.2695313,1.2421875 -0.2109375,2.1914062 0.1523437,2.8476562 0.3515625,0.65625 0.9609375,0.9726563 1.828125,0.9726563 1.3359375,0 2.390625,-0.5976563 3.1875,-1.7929688 0.4453125,-0.703125 0.7617188,-1.4765625 0.9609375,-2.390625 0.2929685,-1.3710937 0.2226563,-2.390625 -0.1992187,-3.0351562 -0.421875,-0.65625 -1.078125,-0.9960938 -1.9335938,-0.9960938 z m 0,0"
       style="fill:#000000;fill-opacity:1;fill-rule:nonzero;stroke:none"
       aria-label="g"
       transform="matrix(1.3333333,0,0,1.3333333,148.7654,197.71139)" />
    <path
       id="path10"
       d="m 83.781,67.027 v 67.024"
       style="fill:none;stroke:#000000;stroke-width:0.9216;stroke-linecap:square;stroke-linejoin:miter;stroke-miterlimit:3.25;stroke-dasharray:none;stroke-opacity:1"
       transform="scale(1.3333333)" />
    <path
       id="path11"
       d="m 83.781,95.512 -3.351,10.054 h 6.703 z"
       style="fill:#000000;fill-opacity:1;fill-rule:evenodd;stroke:none"
       transform="scale(1.3333333)" />
    <path
       id="path12"
       d="m 5.5559599,-11.028416 -1.5585937,7.3359371 c -0.1289063,0.5507813 -0.1289063,1.0078125 -0.023437,1.3710938 0.1875,0.65625 0.7148437,0.984375 1.6289062,0.984375 1.2773438,0 2.296875,-0.5625 3.0117188,-1.7226563 0.3867187,-0.6210937 0.6796875,-1.4765625 0.9140625,-2.5546875 l 1.1601563,-5.4140621 h 1.851563 l -2.34375,11.02734337 H 8.4504912 L 8.8020537,-1.6299789 c -0.328125,0.421875 -0.6914063,0.78515627 -1.1132813,1.07812502 -0.84375,0.57421875 -1.7578125,0.8671875 -2.765625,0.8671875 -1.5820312,0 -2.53125,-0.52734375 -2.8710937,-1.58203122 -0.1875,-0.5742188 -0.1875,-1.3125 0,-2.2617188 l 1.6054687,-7.4999996 z m 0,0"
       style="fill:#000000;fill-opacity:1;fill-rule:nonzero;stroke:none"
       aria-label="u"
       transform="matrix(1.3333333,0,0,1.3333333,122.26783,144.19674)" />
    <path
       id="path13"
       d="M 83.781,67.027 C 74.84,66.848 66.211,70.32 59.887,76.645 53.562,82.969 50.09,91.598 50.27,100.539"
       style="fill:none;stroke:#000000;stroke-width:0.9216;stroke-linecap:square;stroke-linejoin:miter;stroke-miterlimit:3.25;stroke-dasharray:none;stroke-opacity:1"
       transform="scale(1.3333333)" />
    <path
       id="path14"
       d="m 56.332,80.199 4.738,-9.48 4.742,4.738 z"
       style="fill:#000000;fill-opacity:1;fill-rule:evenodd;stroke:none"
       transform="scale(1.3333333)" />
    <path
       id="path15"
       d="m 5.5553977,-11.028114 -1.5585938,7.3359375 c -0.1289062,0.5507813 -0.1289062,1.0078125 -0.023437,1.3710938 0.1875,0.65625 0.7148438,0.984375 1.6289063,0.984375 1.2773437,0 2.296875,-0.5625 3.0117187,-1.7226563 0.3867188,-0.6210937 0.6796875,-1.4765625 0.9140625,-2.5546875 L 10.68821,-11.028114 h 1.851563 L 10.196023,-7.7025e-4 H 8.4499289 L 8.8014914,-1.6296765 c -0.328125,0.421875 -0.6914062,0.78515625 -1.1132812,1.078125 -0.84375,0.57421875 -1.7578125,0.8671875 -2.765625,0.8671875 -1.5820313,0 -2.53125,-0.52734375 -2.8710938,-1.5820312 -0.1875,-0.5742188 -0.1875,-1.3125 0,-2.2617188 l 1.6054688,-7.5 z m 0,0"
       style="fill:#000000;fill-opacity:1;fill-rule:nonzero;stroke:none"
       aria-label="u"
       transform="matrix(1.3333333,0,0,1.3333333,57.721709,90.391652)" />
    <path
       id="path16"
       d="m 117.293,100.539 0.793,-1 0.578,-1.168 0.324,-1.289 0.047,-1.348 -0.234,-1.332 -0.508,-1.246 -0.75,-1.094 -0.941,-0.894 -1.082,-0.66 -1.157,-0.414 -1.179,-0.18 -1.141,0.035 -1.059,0.215 -0.937,0.348 -0.781,0.437 -0.598,0.485 -0.398,0.496 -0.18,0.468 0.035,0.422 0.254,0.352 0.453,0.262 0.641,0.148 0.793,0.023 0.906,-0.121 0.973,-0.293 0.984,-0.476 0.937,-0.668 0.832,-0.863 0.672,-1.039 0.453,-1.188 0.2,-1.289 -0.075,-1.328 -0.359,-1.297 -0.625,-1.199 -0.859,-1.039 -1.043,-0.821 -1.168,-0.57 -1.231,-0.305 -1.23,-0.047 -1.18,0.184 -1.082,0.383 -0.949,0.523 -0.793,0.621 -0.613,0.657 -0.43,0.648 -0.234,0.598 -0.04,0.512 0.157,0.398 0.34,0.262 0.503,0.113 0.649,-0.047 0.758,-0.215 0.82,-0.39 0.832,-0.567 0.793,-0.75 0.688,-0.918 0.535,-1.07 0.324,-1.192 0.078,-1.269 -0.195,-1.285 -0.469,-1.242 -0.73,-1.133 -0.957,-0.957 -1.133,-0.731 -1.243,-0.468 -1.285,-0.196 -1.269,0.078 -1.192,0.325 -1.07,0.531 -0.918,0.691 -0.75,0.793 -0.57,0.832 -0.387,0.821 -0.215,0.757 -0.047,0.649 0.114,0.504 0.261,0.34 0.399,0.156 0.512,-0.039 0.597,-0.235 0.649,-0.429 0.656,-0.614 0.621,-0.793 0.523,-0.949 0.383,-1.082 0.184,-1.179 -0.047,-1.231 -0.305,-1.23 -0.57,-1.168 -0.824,-1.043 -1.035,-0.86 -1.2,-0.625 -1.297,-0.359 -1.328,-0.078 -1.289,0.203 -1.187,0.453 -1.039,0.672 -0.864,0.832 -0.668,0.937 -0.476,0.985 -0.293,0.972 -0.125,0.907 0.023,0.793 0.153,0.636 0.261,0.457 0.352,0.254 0.422,0.035 0.469,-0.179 0.496,-0.399 0.484,-0.597 0.438,-0.782 0.347,-0.937 0.215,-1.059 0.035,-1.14 -0.179,-1.18 -0.415,-1.16 -0.66,-1.078 -0.894,-0.942 -1.094,-0.75 -1.246,-0.507 -1.332,-0.239 -1.348,0.051 -1.289,0.324 -1.168,0.578 -1,0.793"
       style="fill:none;stroke:#000000;stroke-width:0.9216;stroke-linecap:square;stroke-linejoin:miter;stroke-miterlimit:3.25;stroke-dasharray:none;stroke-opacity:1"
       transform="scale(1.3333333)" />
    <path
       id="path17"
       d="m 9.7618845,-10.580908 c 0.3164065,0.234375 0.5859375,0.5976563 0.8437505,1.0312501 l 0.316406,-1.3828121 h 1.710937 L 10.500166,-0.88950169 C 10.195478,0.50502956 9.7618845,1.6300296 9.1642283,2.4269046 8.0626658,3.9269046 6.457197,4.6886233 4.3243845,4.6886233 3.129072,4.6886233 2.191572,4.4190921 1.5001658,3.8917483 0.79704075,3.3644046 0.504072,2.5089358 0.65641575,1.3722171 H 2.5548533 c -0.023437,0.5039062 0.082031,0.890625 0.2929687,1.1601562 0.3164063,0.3984375 0.9492188,0.609375 1.8398438,0.609375 1.4414062,0 2.4726562,-0.5039062 3.1289062,-1.4882812 0.375,-0.5976563 0.7148438,-1.65234379 1.0078125,-3.1757813 -0.4804687,0.55078126 -1.0078125,0.97265626 -1.5820312,1.25390626 -0.5859375,0.26953125 -1.3125,0.421875 -2.1796875,0.421875 -1.171875,0 -2.1445313,-0.421875 -2.8710938,-1.27734376 -0.7148437,-0.8554687 -0.8554687,-2.25 -0.4335937,-4.21875 0.3984375,-1.8398437 1.1367187,-3.2929687 2.2734375,-4.3242187 1.125,-1.0429686 2.3203125,-1.5703126 3.5976562,-1.5703126 0.8554688,0 1.5820313,0.210938 2.1328125,0.65625 z M 7.629072,-9.5848142 c -1.3125,0 -2.3320312,0.609375 -3.0703125,1.8398438 -0.3984375,0.65625 -0.7148437,1.5 -0.9257812,2.5546875 -0.2695313,1.2421875 -0.2109375,2.1914062 0.1523437,2.8476562 0.3515625,0.65625 0.9609375,0.9726563 1.828125,0.9726563 1.3359375,0 2.390625,-0.5976563 3.1875,-1.7929688 0.4453125,-0.703125 0.7617188,-1.4765625 0.9609375,-2.390625 0.2929685,-1.3710937 0.2226563,-2.390625 -0.1992187,-3.0351562 -0.421875,-0.65625 -1.078125,-0.9960938 -1.9335938,-0.9960938 z m 0,0"
       style="fill:#000000;fill-opacity:1;fill-rule:nonzero;stroke:none"
       aria-label="g"
       transform="matrix(1.3333333,0,0,1.3333333,148.7654,90.682096)" />
    <path
       id="path18"
       d="m 87.469,67.027 c 0,0.977 -0.391,1.914 -1.082,2.606 -0.692,0.691 -1.629,1.078 -2.606,1.078 -0.976,0 -1.914,-0.387 -2.605,-1.078 -0.692,-0.692 -1.082,-1.629 -1.082,-2.606 0,-0.98 0.39,-1.918 1.082,-2.609 0.691,-0.691 1.629,-1.078 2.605,-1.078 0.977,0 1.914,0.387 2.606,1.078 0.691,0.691 1.082,1.629 1.082,2.609 z"
       style="fill:#000000;fill-opacity:1;fill-rule:evenodd;stroke:none"
       transform="scale(1.3333333)" />
    <path
       id="path19"
       d="m 87.469,134.051 c 0,0.976 -0.391,1.914 -1.082,2.605 -0.692,0.692 -1.629,1.082 -2.606,1.082 -0.976,0 -1.914,-0.39 -2.605,-1.082 -0.692,-0.691 -1.082,-1.629 -1.082,-2.605 0,-0.977 0.39,-1.914 1.082,-2.606 0.691,-0.691 1.629,-1.082 2.605,-1.082 0.977,0 1.914,0.391 2.606,1.082 0.691,0.692 1.082,1.629 1.082,2.606 z"
       style="fill:#000000;fill-opacity:1;fill-rule:evenodd;stroke:none"
       transform="scale(1.3333333)" />
    <path
       id="path20"
       d="m 53.957,100.539 c 0,0.977 -0.391,1.914 -1.082,2.606 -0.691,0.691 -1.629,1.078 -2.605,1.078 -0.977,0 -1.915,-0.387 -2.606,-1.078 -0.691,-0.692 -1.082,-1.629 -1.082,-2.606 0,-0.98 0.391,-1.918 1.082,-2.609 0.691,-0.692 1.629,-1.078 2.606,-1.078 0.976,0 1.914,0.386 2.605,1.078 0.691,0.691 1.082,1.629 1.082,2.609 z"
       style="fill:#000000;fill-opacity:1;fill-rule:evenodd;stroke:none"
       transform="scale(1.3333333)" />
    <path
       id="path21"
       d="m 120.98,100.539 c 0,0.977 -0.386,1.914 -1.078,2.606 -0.691,0.691 -1.629,1.078 -2.609,1.078 -0.977,0 -1.914,-0.387 -2.605,-1.078 -0.692,-0.692 -1.079,-1.629 -1.079,-2.606 0,-0.98 0.387,-1.918 1.079,-2.609 0.691,-0.692 1.628,-1.078 2.605,-1.078 0.98,0 1.918,0.386 2.609,1.078 0.692,0.691 1.078,1.629 1.078,2.609 z"
       style="fill:#000000;fill-opacity:1;fill-rule:evenodd;stroke:none"
       transform="scale(1.3333333)" />
    <path
       id="path22"
       d="m 234.59,100.539 -0.996,0.836 -1.141,0.648 -1.238,0.426 -1.297,0.18 -1.305,-0.074 -1.269,-0.325 -1.184,-0.558 -1.062,-0.762 -0.899,-0.93 -0.711,-1.05 -0.508,-1.118 -0.296,-1.124 -0.082,-1.083 0.109,-0.976 0.281,-0.832 0.418,-0.637 0.52,-0.41 0.574,-0.168 0.582,0.09 0.543,0.336 0.457,0.57 0.328,0.77 0.164,0.937 -0.019,1.055 -0.227,1.121 -0.441,1.125 -0.649,1.074 -0.844,0.973 -1.015,0.82 -1.149,0.625 -1.246,0.402 -1.3,0.153 -1.305,-0.102 -1.262,-0.347 -1.176,-0.582 -1.043,-0.782 -0.882,-0.945 -0.692,-1.059 -0.484,-1.121 -0.274,-1.125 -0.062,-1.07 0.129,-0.969 0.297,-0.808 0.433,-0.614 0.528,-0.386 0.578,-0.141 0.578,0.113 0.535,0.364 0.445,0.589 0.313,0.793 0.148,0.95 -0.043,1.066 -0.25,1.121 -0.465,1.125 -0.668,1.067 -0.863,0.96 -1.027,0.801 -1.164,0.602 -1.254,0.375 -1.305,0.125 -1.301,-0.125 -1.254,-0.375 -1.164,-0.602 -1.027,-0.801 -0.863,-0.96 -0.672,-1.067 -0.461,-1.125 -0.25,-1.121 -0.043,-1.066 0.148,-0.95 0.313,-0.793 0.445,-0.589 0.535,-0.364 0.579,-0.113 0.578,0.141 0.527,0.386 0.434,0.614 0.296,0.808 0.129,0.969 -0.066,1.07 -0.27,1.125 -0.484,1.121 -0.691,1.059 -0.883,0.945 -1.043,0.782 -1.176,0.582 -1.262,0.347 -1.304,0.102 -1.301,-0.153 -1.246,-0.402 -1.153,-0.625 -1.011,-0.82 -0.844,-0.973 -0.648,-1.074 -0.442,-1.125 -0.226,-1.121 -0.024,-1.055 0.168,-0.937 0.328,-0.77 0.457,-0.57 0.539,-0.336 0.582,-0.09 0.575,0.168 0.519,0.41 0.422,0.637 0.281,0.832 0.11,0.976 -0.086,1.083 -0.293,1.124 -0.508,1.118 -0.711,1.05 -0.899,0.93 -1.062,0.762 -1.184,0.558 -1.269,0.325 -1.309,0.074 -1.293,-0.18 -1.242,-0.426 -1.137,-0.648 -0.996,-0.836"
       style="fill:none;stroke:#000000;stroke-width:0.9216;stroke-linecap:square;stroke-linejoin:miter;stroke-miterlimit:3.25;stroke-dasharray:none;stroke-opacity:1"
       transform="scale(1.3333333)" />
    <path
       id="path23"
       d="m 9.7622519,-10.581262 c 0.3164061,0.234375 0.5859371,0.5976558 0.8437501,1.0312496 l 0.316406,-1.3828126 h 1.710938 L 10.500533,-0.88985619 C 10.195846,0.50467506 9.7622519,1.6296751 9.1645956,2.4265501 c -1.1015625,1.5 -2.7070312,2.2617187 -4.8398437,2.2617187 -1.1953125,0 -2.1328125,-0.2695312 -2.8242188,-0.796875 C 0.79740813,3.3640501 0.50443938,2.5085813 0.65678313,1.3718626 H 2.5552206 c -0.023437,0.5039062 0.082031,0.890625 0.2929688,1.1601562 0.3164062,0.3984375 0.9492187,0.609375 1.8398437,0.609375 1.4414063,0 2.4726563,-0.5039062 3.1289063,-1.4882812 0.375,-0.5976563 0.7148437,-1.6523437875 1.0078125,-3.1757813 -0.4804688,0.55078126 -1.0078125,0.97265626 -1.5820313,1.25390626 -0.5859375,0.2695312525 -1.3125,0.421875 -2.1796875,0.421875 -1.171875,0 -2.1445312,-0.421875 -2.8710937,-1.27734376 -0.7148438,-0.8554687 -0.8554688,-2.25 -0.4335938,-4.21875 0.3984375,-1.8398437 1.1367188,-3.2929687 2.2734375,-4.3242187 1.125,-1.0429691 2.3203125,-1.5703121 3.5976563,-1.5703121 0.8554687,0 1.5820312,0.210937 2.1328125,0.65625 z m -2.1328125,0.9960933 c -1.3125,0 -2.3320313,0.609375 -3.0703125,1.8398438 -0.3984375,0.65625 -0.7148438,1.5 -0.9257813,2.5546875 -0.2695312,1.2421875 -0.2109375,2.1914062 0.1523438,2.8476562 0.3515625,0.65625 0.9609375,0.9726563 1.828125,0.9726563 1.3359375,0 2.390625,-0.5976563 3.1875,-1.7929688 0.4453125,-0.703125 0.7617187,-1.4765625 0.9609375,-2.390625 0.2929691,-1.3710937 0.2226562,-2.390625 -0.1992188,-3.0351562 -0.421875,-0.65625 -1.078125,-0.9960938 -1.9335937,-0.9960938 z m 0,0"
       style="fill:#000000;fill-opacity:1;fill-rule:nonzero;stroke:none"
       aria-label="g"
       transform="matrix(1.3333333,0,0,1.3333333,270.89773,171.21382)" />
    <path
       id="path24"
       d="m 301.613,100.539 1,-0.84 1.137,-0.648 1.238,-0.422 1.297,-0.18 1.305,0.074 1.269,0.325 1.188,0.554 1.058,0.766 0.899,0.93 0.715,1.047 0.504,1.117 0.297,1.129 0.085,1.078 -0.113,0.98 -0.281,0.828 -0.418,0.637 -0.52,0.414 -0.574,0.164 -0.582,-0.086 -0.543,-0.336 -0.453,-0.57 -0.332,-0.773 -0.164,-0.938 0.02,-1.055 0.23,-1.117 0.437,-1.125 0.653,-1.078 0.84,-0.973 1.015,-0.82 1.149,-0.625 1.25,-0.398 1.297,-0.153 1.304,0.098 1.262,0.352 1.176,0.578 1.043,0.785 0.883,0.941 0.691,1.063 0.484,1.117 0.274,1.125 0.062,1.074 -0.129,0.965 -0.296,0.812 -0.434,0.614 -0.527,0.386 -0.579,0.141 -0.578,-0.113 -0.535,-0.363 -0.445,-0.59 -0.313,-0.793 -0.148,-0.953 0.043,-1.063 0.25,-1.121 0.465,-1.125 0.668,-1.066 0.863,-0.961 1.031,-0.801 1.16,-0.606 1.254,-0.371 1.305,-0.129 1.301,0.129 1.254,0.371 1.164,0.606 1.027,0.801 0.863,0.961 0.672,1.066 0.461,1.125 0.25,1.121 0.043,1.063 -0.148,0.953 -0.313,0.793 -0.445,0.59 -0.531,0.363 -0.582,0.113 -0.578,-0.141 -0.528,-0.386 -0.43,-0.614 -0.3,-0.812 -0.129,-0.965 0.066,-1.074 0.27,-1.125 0.488,-1.117 0.691,-1.063 0.879,-0.941 1.047,-0.785 1.172,-0.578 1.262,-0.352 1.304,-0.098 1.301,0.153 1.246,0.398 1.153,0.625 1.011,0.82 0.844,0.973 0.649,1.078 0.441,1.125 0.227,1.117 0.023,1.055 -0.168,0.938 -0.328,0.773 -0.457,0.57 -0.539,0.336 -0.582,0.086 -0.574,-0.164 -0.52,-0.414 -0.422,-0.637 -0.281,-0.828 -0.109,-0.98 0.085,-1.078 0.293,-1.129 0.508,-1.117 0.711,-1.047 0.903,-0.93 1.058,-0.766 1.184,-0.554 1.269,-0.325 1.309,-0.074 1.297,0.18 1.238,0.422 1.137,0.648 0.996,0.84"
       style="fill:none;stroke:#000000;stroke-width:0.9216;stroke-linecap:square;stroke-linejoin:miter;stroke-miterlimit:3.25;stroke-dasharray:none;stroke-opacity:1"
       transform="scale(1.3333333)" />
    <path
       id="path25"
       d="m 9.7606746,-10.582015 c 0.3164064,0.234375 0.5859374,0.5976566 0.8437504,1.0312504 l 0.316406,-1.3828124 h 1.710937 L 10.498956,-0.89060837 C 10.194268,0.50392288 9.7606746,1.6289229 9.1630184,2.4257979 c -1.1015625,1.5 -2.7070313,2.2617187 -4.8398438,2.2617187 -1.1953125,0 -2.1328125,-0.2695312 -2.8242187,-0.796875 C 0.79583087,3.3632979 0.50286212,2.5078291 0.65520587,1.3711104 H 2.5536434 c -0.023437,0.5039062 0.082031,0.890625 0.2929687,1.1601562 0.3164063,0.3984375 0.9492188,0.609375 1.8398438,0.609375 1.4414062,0 2.4726562,-0.5039062 3.1289062,-1.4882812 0.375,-0.5976563 0.7148438,-1.652343775 1.0078125,-3.1757813 -0.4804687,0.55078128 -1.0078125,0.97265628 -1.5820312,1.25390628 -0.5859375,0.269531245 -1.3125,0.421875 -2.1796875,0.421875 -1.171875,0 -2.1445313,-0.421875 -2.8710938,-1.27734378 -0.7148437,-0.8554687 -0.8554687,-2.25 -0.4335937,-4.21875 0.3984375,-1.8398437 1.1367187,-3.2929687 2.2734375,-4.3242187 1.125,-1.0429689 2.3203125,-1.5703129 3.5976562,-1.5703129 0.8554688,0 1.5820313,0.210938 2.1328125,0.65625 z m -2.1328125,0.9960941 c -1.3125,0 -2.3320312,0.609375 -3.0703125,1.8398438 -0.3984375,0.65625 -0.7148437,1.5 -0.9257812,2.5546875 -0.2695313,1.2421875 -0.2109375,2.1914062 0.1523437,2.8476562 0.3515625,0.65625 0.9609375,0.9726563 1.828125,0.9726563 1.3359375,0 2.390625,-0.5976563 3.1875,-1.7929688 0.4453125,-0.703125 0.7617188,-1.4765625 0.9609375,-2.390625 0.2929684,-1.3710937 0.2226563,-2.390625 -0.1992187,-3.0351562 -0.421875,-0.65625 -1.078125,-0.9960938 -1.9335938,-0.9960938 z m 0,0"
       style="fill:#000000;fill-opacity:1;fill-rule:nonzero;stroke:none"
       aria-label="g"
       transform="matrix(1.3333333,0,0,1.3333333,427.29045,117.17967)" />
    <path
       id="path26"
       d="m 234.59,100.539 -0.824,0.965 -0.618,1.141 -0.371,1.273 -0.097,1.344 0.187,1.336 0.457,1.261 0.699,1.121 0.903,0.93 1.047,0.703 1.136,0.461 1.164,0.227 1.141,0.011 1.066,-0.171 0.954,-0.309 0.804,-0.402 0.629,-0.461 0.434,-0.473 0.222,-0.461 0.008,-0.422 -0.207,-0.355 -0.41,-0.278 -0.602,-0.179 -0.757,-0.059 -0.883,0.078 -0.961,0.235 -0.988,0.41 -0.961,0.605 -0.871,0.797 -0.727,0.981 -0.527,1.14 -0.285,1.258 -0.02,1.32 0.266,1.313 0.539,1.242 0.777,1.094 0.984,0.898 1.125,0.657 1.207,0.398 1.227,0.141 1.195,-0.106 1.114,-0.308 0.992,-0.469 0.847,-0.582 0.68,-0.637 0.496,-0.645 0.313,-0.609 0.117,-0.535 -0.074,-0.434 -0.262,-0.308 -0.434,-0.172 -0.586,-0.02 -0.707,0.145 -0.793,0.309 -0.832,0.488 -0.812,0.66 -0.742,0.836 -0.614,0.992 -0.429,1.133 -0.199,1.23 0.062,1.282 0.332,1.265 0.606,1.192 0.847,1.05 1.051,0.848 1.187,0.602 1.27,0.336 1.281,0.062 1.231,-0.199 1.129,-0.43 0.996,-0.613 0.836,-0.742 0.66,-0.813 0.484,-0.832 0.313,-0.793 0.14,-0.707 -0.015,-0.586 -0.172,-0.433 -0.309,-0.262 -0.433,-0.074 -0.535,0.117 -0.61,0.312 -0.644,0.496 -0.637,0.68 -0.582,0.848 -0.469,0.992 -0.312,1.113 -0.102,1.196 0.141,1.226 0.398,1.207 0.656,1.125 0.899,0.981 1.094,0.781 1.238,0.539 1.316,0.262 1.321,-0.016 1.257,-0.285 1.141,-0.527 0.98,-0.727 0.797,-0.875 0.602,-0.957 0.414,-0.988 0.234,-0.961 0.078,-0.883 -0.062,-0.758 -0.176,-0.601 -0.277,-0.415 -0.356,-0.207 -0.422,0.008 -0.46,0.227 -0.473,0.433 -0.461,0.629 -0.402,0.805 -0.309,0.949 -0.172,1.071 0.012,1.136 0.226,1.168 0.461,1.133 0.703,1.051 0.93,0.898 1.121,0.703 1.262,0.457 1.336,0.184 1.34,-0.098 1.273,-0.371 1.145,-0.617 0.965,-0.82"
       style="fill:none;stroke:#000000;stroke-width:0.9216;stroke-linecap:square;stroke-linejoin:miter;stroke-miterlimit:3.25;stroke-dasharray:none;stroke-opacity:1"
       transform="scale(1.3333333)" />
    <path
       id="path27"
       d="m 9.762181,-10.581869 c 0.316406,0.234375 0.585937,0.5976567 0.84375,1.0312505 l 0.316406,-1.3828125 h 1.710938 L 10.500462,-0.89046225 C 10.195775,0.504069 9.762181,1.629069 9.1645247,2.425944 c -1.1015625,1.5 -2.7070312,2.2617187 -4.8398437,2.2617187 -1.1953125,0 -2.1328125,-0.2695312 -2.8242188,-0.796875 C 0.79733725,3.363444 0.5043685,2.5079752 0.65671225,1.3712565 H 2.5551497 c -0.023437,0.5039062 0.082031,0.890625 0.2929688,1.1601562 0.3164062,0.3984375 0.9492187,0.609375 1.8398437,0.609375 1.4414063,0 2.4726563,-0.5039062 3.1289063,-1.4882812 0.375,-0.5976563 0.7148437,-1.65234375 1.0078125,-3.1757813 -0.4804688,0.5507813 -1.0078125,0.9726563 -1.5820313,1.2539063 -0.5859375,0.26953125 -1.3125,0.421875 -2.1796875,0.421875 -1.171875,0 -2.1445312,-0.421875 -2.8710937,-1.2773438 -0.7148438,-0.8554687 -0.8554688,-2.25 -0.4335938,-4.21875 0.3984375,-1.8398437 1.1367188,-3.2929687 2.2734375,-4.3242187 1.125,-1.042969 2.3203125,-1.570313 3.5976563,-1.570313 0.8554687,0 1.5820312,0.210938 2.1328125,0.65625 z m -2.1328125,0.9960942 c -1.3125,0 -2.3320313,0.609375 -3.0703125,1.8398438 -0.3984375,0.65625 -0.7148438,1.5 -0.9257813,2.5546875 -0.2695312,1.2421875 -0.2109375,2.1914062 0.1523438,2.8476562 0.3515625,0.65625 0.9609375,0.9726563 1.828125,0.9726563 1.3359375,0 2.390625,-0.5976563 3.1875,-1.7929688 0.4453125,-0.703125 0.7617187,-1.4765625 0.9609375,-2.390625 0.292969,-1.3710937 0.2226562,-2.390625 -0.1992188,-3.0351562 -0.421875,-0.65625 -1.078125,-0.9960938 -1.9335937,-0.9960938 z m 0,0"
       style="fill:#000000;fill-opacity:1;fill-rule:nonzero;stroke:none"
       aria-label="g"
       transform="matrix(1.3333333,0,0,1.3333333,303.17126,198.20291)"
       clip-path="url(#clipPath28)" />
    <path
       id="path29"
       d="m 268.102,134.051 c 18.492,-0.039 33.476,-15.02 33.511,-33.512"
       style="fill:none;stroke:#000000;stroke-width:0.9216;stroke-linecap:square;stroke-linejoin:miter;stroke-miterlimit:3.25;stroke-dasharray:none;stroke-opacity:1"
       transform="scale(1.3333333)" />
    <path
       id="path30"
       d="m 288.223,127.77 9.48,-4.739 -4.738,-4.742 z"
       style="fill:#000000;fill-opacity:1;fill-rule:evenodd;stroke:none"
       transform="scale(1.3333333)" />
    <path
       id="path31"
       d="m 5.5561423,-11.027682 -1.5585937,7.3359379 c -0.1289063,0.5507812 -0.1289063,1.0078125 -0.023437,1.3710937 0.1875,0.65625 0.7148437,0.984375 1.6289062,0.984375 1.2773438,0 2.296875,-0.5625 3.0117188,-1.7226562 0.3867187,-0.6210938 0.6796875,-1.4765625 0.9140625,-2.5546875 l 1.1601569,-5.4140629 h 1.851562 L 10.196767,-3.37875e-4 H 8.4506736 L 8.8022361,-1.6292441 c -0.328125,0.421875 -0.6914063,0.78515623 -1.1132813,1.07812498 -0.84375,0.57421875 -1.7578125,0.8671875 -2.765625,0.8671875 -1.5820312,0 -2.53125,-0.52734375 -2.8710937,-1.58203128 -0.1875,-0.5742187 -0.1875,-1.3125 0,-2.2617187 l 1.6054687,-7.5000004 z m 0,0"
       style="fill:#000000;fill-opacity:1;fill-rule:nonzero;stroke:none"
       aria-label="u"
       transform="matrix(1.3333333,0,0,1.3333333,394.5254,197.71139)" />
    <path
       id="path32"
       d="m 268.102,67.027 v 67.024"
       style="fill:none;stroke:#000000;stroke-width:0.9216;stroke-linecap:square;stroke-linejoin:miter;stroke-miterlimit:3.25;stroke-dasharray:none;stroke-opacity:1"
       transform="scale(1.3333333)" />
    <path
       id="path33"
       d="m 268.102,95.512 -3.352,10.054 h 6.703 z"
       style="fill:#000000;fill-opacity:1;fill-rule:evenodd;stroke:none"
       transform="scale(1.3333333)" />
    <path
       id="path34"
       d="m 5.5543193,-11.028416 -1.5585937,7.3359371 c -0.1289063,0.5507813 -0.1289063,1.0078125 -0.023437,1.3710938 0.1875,0.65625 0.7148437,0.984375 1.6289062,0.984375 1.2773438,0 2.296875,-0.5625 3.0117188,-1.7226563 0.3867187,-0.6210937 0.6796875,-1.4765625 0.9140625,-2.5546875 l 1.1601569,-5.4140621 h 1.851562 l -2.34375,11.02734337 H 8.4488506 L 8.8004131,-1.6299789 c -0.328125,0.421875 -0.6914063,0.78515627 -1.1132813,1.07812502 -0.84375,0.57421875 -1.7578125,0.8671875 -2.765625,0.8671875 -1.5820312,0 -2.53125,-0.52734375 -2.8710937,-1.58203122 -0.1875,-0.5742188 -0.1875,-1.3125 0,-2.2617188 l 1.6054687,-7.4999996 z m 0,0"
       style="fill:#000000;fill-opacity:1;fill-rule:nonzero;stroke:none"
       aria-label="u"
       transform="matrix(1.3333333,0,0,1.3333333,368.02783,144.19674)" />
    <path
       id="path35"
       d="m 234.59,100.539 -0.809,-0.977 -0.601,-1.148 -0.352,-1.277 -0.082,-1.336 0.203,-1.332 0.473,-1.254 0.711,-1.113 0.914,-0.914 1.055,-0.692 1.136,-0.449 1.168,-0.211 h 1.141 l 1.062,0.18 0.95,0.32 0.8,0.41 0.625,0.469 0.426,0.48 0.223,0.465 v 0.426 l -0.211,0.355 -0.414,0.278 -0.606,0.176 -0.757,0.054 -0.883,-0.086 -0.957,-0.242 -0.985,-0.422 -0.957,-0.613 -0.863,-0.801 -0.719,-0.988 -0.515,-1.145 -0.278,-1.257 -0.008,-1.317 0.274,-1.308 0.543,-1.235 0.785,-1.086 0.984,-0.89 1.125,-0.653 1.207,-0.39 1.231,-0.133 1.191,0.109 1.114,0.313 0.988,0.476 0.844,0.582 0.679,0.641 0.496,0.648 0.305,0.614 0.113,0.535 -0.074,0.437 -0.265,0.309 -0.434,0.172 -0.59,0.019 -0.711,-0.14 -0.789,-0.313 -0.832,-0.488 -0.812,-0.664 -0.739,-0.836 -0.609,-0.996 -0.426,-1.133 -0.199,-1.227 0.062,-1.281 0.336,-1.265 0.602,-1.188 0.848,-1.043 1.046,-0.848 1.188,-0.605 1.266,-0.332 1.277,-0.063 1.23,0.196 1.129,0.426 0.996,0.609 0.84,0.742 0.66,0.813 0.489,0.828 0.312,0.793 0.141,0.711 -0.016,0.586 -0.172,0.437 -0.312,0.262 -0.434,0.078 -0.539,-0.113 -0.613,-0.309 -0.649,-0.496 -0.64,-0.676 -0.582,-0.844 -0.477,-0.992 -0.312,-1.109 -0.11,-1.192 0.133,-1.23 0.395,-1.207 0.648,-1.125 0.891,-0.984 1.09,-0.79 1.23,-0.542 1.309,-0.274 1.316,0.008 1.262,0.277 1.14,0.52 0.989,0.719 0.804,0.863 0.61,0.953 0.422,0.984 0.246,0.961 0.082,0.883 -0.055,0.758 -0.176,0.601 -0.273,0.418 -0.36,0.211 -0.421,-0.004 -0.465,-0.218 -0.485,-0.426 -0.465,-0.625 -0.414,-0.801 -0.32,-0.949 -0.18,-1.063 v -1.14 l 0.215,-1.168 0.446,-1.141 0.691,-1.055 0.918,-0.91 1.109,-0.711 1.254,-0.472 1.332,-0.203 1.34,0.082 1.274,0.351 1.152,0.602 0.973,0.808"
       style="fill:none;stroke:#000000;stroke-width:0.9216;stroke-linecap:square;stroke-linejoin:miter;stroke-miterlimit:3.25;stroke-dasharray:none;stroke-opacity:1"
       transform="scale(1.3333333)" />
    <path
       id="path36"
       d="m 9.7607881,-10.582801 c 0.3164059,0.234375 0.5859379,0.5976558 0.8437499,1.0312495 l 0.316406,-1.3828125 h 1.710938 L 10.499069,-0.89139525 C 10.194382,0.503136 9.7607881,1.628136 9.1631318,2.425011 c -1.1015625,1.5 -2.7070312,2.2617188 -4.8398437,2.2617188 -1.1953125,0 -2.1328125,-0.2695313 -2.8242188,-0.796875 C 0.79594431,3.362511 0.50297556,2.5070423 0.65531931,1.3703235 H 2.5537568 c -0.023437,0.5039063 0.082031,0.890625 0.2929688,1.1601563 0.3164062,0.3984375 0.9492187,0.609375 1.8398437,0.609375 1.4414063,0 2.4726563,-0.5039063 3.1289063,-1.4882813 0.375,-0.5976562 0.7148437,-1.65234375 1.0078125,-3.1757812 -0.4804688,0.5507812 -1.0078125,0.9726562 -1.5820313,1.2539062 -0.5859375,0.26953125 -1.3125,0.421875 -2.1796875,0.421875 -1.171875,0 -2.1445312,-0.421875 -2.8710937,-1.2773437 -0.7148438,-0.8554688 -0.8554688,-2.25 -0.4335938,-4.21875 0.3984375,-1.8398438 1.1367188,-3.2929688 2.2734375,-4.3242188 1.125,-1.042969 2.3203125,-1.570312 3.5976563,-1.570312 0.8554687,0 1.5820312,0.210937 2.1328125,0.65625 z m -2.1328125,0.9960933 c -1.3125,0 -2.3320313,0.609375 -3.0703125,1.8398437 -0.3984375,0.65625 -0.7148438,1.5 -0.9257813,2.5546875 -0.2695312,1.2421875 -0.2109375,2.1914063 0.1523438,2.8476563 0.3515625,0.65625 0.9609375,0.9726562 1.828125,0.9726562 1.3359375,0 2.390625,-0.5976562 3.1875,-1.7929687 0.4453125,-0.703125 0.7617187,-1.4765625 0.9609375,-2.390625 0.2929689,-1.3710938 0.2226562,-2.390625 -0.1992188,-3.0351563 -0.421875,-0.65625 -1.078125,-0.9960937 -1.9335937,-0.9960937 z m 0,0"
       style="fill:#000000;fill-opacity:1;fill-rule:nonzero;stroke:none"
       aria-label="g"
       transform="matrix(1.3333333,0,0,1.3333333,303.37233,90.391652)"
       clip-path="url(#clipPath37)" />
    <path
       id="path38"
       d="M 301.613,100.539 C 301.578,82.047 286.594,67.062 268.102,67.027"
       style="fill:none;stroke:#000000;stroke-width:0.9216;stroke-linecap:square;stroke-linejoin:miter;stroke-miterlimit:3.25;stroke-dasharray:none;stroke-opacity:1"
       transform="scale(1.3333333)" />
    <path
       id="path39"
       d="m 295.332,80.414 -4.738,-9.476 -4.739,4.738 z"
       style="fill:#000000;fill-opacity:1;fill-rule:evenodd;stroke:none"
       transform="scale(1.3333333)" />
    <path
       id="path40"
       d="m 5.5561423,-11.02622 -1.5585937,7.3359371 c -0.1289063,0.5507812 -0.1289063,1.0078125 -0.023437,1.3710937 0.1875,0.65625 0.7148437,0.984375 1.6289062,0.984375 1.2773438,0 2.296875,-0.5625 3.0117188,-1.7226562 0.3867187,-0.6210938 0.6796875,-1.4765625 0.9140625,-2.5546875 L 10.688955,-11.02622 h 1.851562 L 10.196767,0.00112331 H 8.4506736 L 8.8022361,-1.6277829 c -0.328125,0.421875 -0.6914063,0.78515621 -1.1132813,1.07812496 -0.84375,0.57421875 -1.7578125,0.8671875 -2.765625,0.8671875 -1.5820312,0 -2.53125,-0.52734375 -2.8710937,-1.58203126 -0.1875,-0.5742187 -0.1875,-1.3125 0,-2.2617187 L 3.6577048,-11.02622 Z m 0,0"
       style="fill:#000000;fill-opacity:1;fill-rule:nonzero;stroke:none"
       aria-label="u"
       transform="matrix(1.3333333,0,0,1.3333333,394.5254,90.682096)" />
    <path
       id="path41"
       d="m 271.789,67.027 c 0,0.977 -0.391,1.914 -1.082,2.606 -0.691,0.691 -1.629,1.078 -2.605,1.078 -0.977,0 -1.914,-0.387 -2.606,-1.078 -0.691,-0.692 -1.082,-1.629 -1.082,-2.606 0,-0.98 0.391,-1.918 1.082,-2.609 0.692,-0.691 1.629,-1.078 2.606,-1.078 0.976,0 1.914,0.387 2.605,1.078 0.691,0.691 1.082,1.629 1.082,2.609 z"
       style="fill:#000000;fill-opacity:1;fill-rule:evenodd;stroke:none"
       transform="scale(1.3333333)" />
    <path
       id="path42"
       d="m 271.789,134.051 c 0,0.976 -0.391,1.914 -1.082,2.605 -0.691,0.692 -1.629,1.082 -2.605,1.082 -0.977,0 -1.914,-0.39 -2.606,-1.082 -0.691,-0.691 -1.082,-1.629 -1.082,-2.605 0,-0.977 0.391,-1.914 1.082,-2.606 0.692,-0.691 1.629,-1.082 2.606,-1.082 0.976,0 1.914,0.391 2.605,1.082 0.691,0.692 1.082,1.629 1.082,2.606 z"
       style="fill:#000000;fill-opacity:1;fill-rule:evenodd;stroke:none"
       transform="scale(1.3333333)" />
    <path
       id="path43"
       d="m 238.277,100.539 c 0,0.977 -0.39,1.914 -1.082,2.606 -0.691,0.691 -1.629,1.078 -2.605,1.078 -0.977,0 -1.918,-0.387 -2.61,-1.078 -0.687,-0.692 -1.078,-1.629 -1.078,-2.606 0,-0.98 0.391,-1.918 1.078,-2.609 0.692,-0.692 1.633,-1.078 2.61,-1.078 0.976,0 1.914,0.386 2.605,1.078 0.692,0.691 1.082,1.629 1.082,2.609 z"
       style="fill:#000000;fill-opacity:1;fill-rule:evenodd;stroke:none"
       transform="scale(1.3333333)" />
    <path
       id="path44"
       d="m 305.301,100.539 c 0,0.977 -0.387,1.914 -1.078,2.606 -0.692,0.691 -1.629,1.078 -2.61,1.078 -0.976,0 -1.914,-0.387 -2.605,-1.078 -0.692,-0.692 -1.078,-1.629 -1.078,-2.606 0,-0.98 0.386,-1.918 1.078,-2.609 0.691,-0.692 1.629,-1.078 2.605,-1.078 0.981,0 1.918,0.386 2.61,1.078 0.691,0.691 1.078,1.629 1.078,2.609 z"
       style="fill:#000000;fill-opacity:1;fill-rule:evenodd;stroke:none"
       transform="scale(1.3333333)" />
    <path
       id="path45"
       d="m 418.91,100.539 -0.996,0.836 -1.141,0.648 -1.238,0.426 -1.297,0.18 -1.304,-0.074 -1.27,-0.325 -1.184,-0.558 -1.062,-0.762 -0.898,-0.93 -0.715,-1.05 -0.504,-1.118 -0.297,-1.124 -0.082,-1.083 0.109,-0.976 0.281,-0.832 0.418,-0.637 0.52,-0.41 0.574,-0.168 0.582,0.09 0.543,0.336 0.457,0.57 0.328,0.77 0.164,0.937 -0.019,1.055 -0.231,1.121 -0.437,1.125 -0.649,1.074 -0.843,0.973 -1.016,0.82 -1.148,0.625 -1.25,0.402 -1.297,0.153 -1.305,-0.102 -1.262,-0.347 -1.175,-0.582 -1.043,-0.782 -0.883,-0.945 -0.692,-1.059 -0.484,-1.121 -0.273,-1.125 -0.063,-1.07 0.129,-0.969 0.297,-0.808 0.434,-0.614 0.527,-0.386 0.578,-0.141 0.578,0.113 0.535,0.364 0.446,0.589 0.312,0.793 0.148,0.95 -0.042,1.066 -0.25,1.121 -0.465,1.125 -0.668,1.067 -0.864,0.96 -1.027,0.801 -1.164,0.602 -1.254,0.375 -1.305,0.125 -1.3,-0.125 -1.254,-0.375 -1.164,-0.602 -1.028,-0.801 -0.863,-0.96 -0.672,-1.067 -0.461,-1.125 -0.25,-1.121 -0.043,-1.066 0.149,-0.95 0.312,-0.793 0.446,-0.589 0.535,-0.364 0.578,-0.113 0.578,0.141 0.527,0.386 0.43,0.614 0.301,0.808 0.129,0.969 -0.067,1.07 -0.269,1.125 -0.485,1.121 -0.691,1.059 -0.883,0.945 -1.047,0.782 -1.172,0.582 -1.261,0.347 -1.305,0.102 -1.301,-0.153 -1.246,-0.402 -1.152,-0.625 -1.012,-0.82 -0.844,-0.973 -0.648,-1.074 -0.442,-1.125 -0.226,-1.121 -0.024,-1.055 0.168,-0.937 0.329,-0.77 0.457,-0.57 0.539,-0.336 0.582,-0.09 0.574,0.168 0.519,0.41 0.422,0.637 0.282,0.832 0.109,0.976 -0.086,1.083 -0.293,1.124 -0.508,1.118 -0.711,1.05 -0.902,0.93 -1.059,0.762 -1.183,0.558 -1.27,0.325 -1.308,0.074 -1.297,-0.18 -1.239,-0.426 -1.136,-0.648 -0.996,-0.836"
       style="fill:none;stroke:#000000;stroke-width:0.9216;stroke-linecap:square;stroke-linejoin:miter;stroke-miterlimit:3.25;stroke-dasharray:none;stroke-opacity:1"
       transform="scale(1.3333333)" />
    <path
       id="path46"
       d="m 9.7606113,-10.581262 c 0.3164067,0.234375 0.5859377,0.5976558 0.8437497,1.0312496 l 0.316407,-1.3828126 h 1.710937 L 10.498893,-0.88985619 C 10.194205,0.50467506 9.7606113,1.6296751 9.162955,2.4265501 c -1.1015625,1.5 -2.7070312,2.2617187 -4.8398437,2.2617187 -1.1953125,0 -2.1328125,-0.2695312 -2.8242188,-0.796875 C 0.7957675,3.3640501 0.50279875,2.5085813 0.6551425,1.3718626 H 2.55358 c -0.023437,0.5039062 0.082031,0.890625 0.2929688,1.1601562 0.3164062,0.3984375 0.9492187,0.609375 1.8398437,0.609375 1.4414063,0 2.4726563,-0.5039062 3.1289063,-1.4882812 0.375,-0.5976563 0.7148437,-1.6523437875 1.0078125,-3.1757813 -0.4804688,0.55078126 -1.0078125,0.97265626 -1.5820313,1.25390626 -0.5859375,0.2695312525 -1.3125,0.421875 -2.1796875,0.421875 -1.171875,0 -2.1445312,-0.421875 -2.8710937,-1.27734376 -0.7148438,-0.8554687 -0.8554688,-2.25 -0.4335938,-4.21875 0.3984375,-1.8398437 1.1367188,-3.2929687 2.2734375,-4.3242187 1.125,-1.0429691 2.3203125,-1.5703121 3.5976563,-1.5703121 0.8554687,0 1.5820312,0.210937 2.1328125,0.65625 z m -2.1328125,0.9960933 c -1.3125,0 -2.3320313,0.609375 -3.0703125,1.8398438 -0.3984375,0.65625 -0.7148438,1.5 -0.9257813,2.5546875 -0.2695312,1.2421875 -0.2109375,2.1914062 0.1523438,2.8476562 0.3515625,0.65625 0.9609375,0.9726563 1.828125,0.9726563 1.3359375,0 2.390625,-0.5976563 3.1875,-1.7929688 0.4453125,-0.703125 0.7617187,-1.4765625 0.9609375,-2.390625 0.2929687,-1.3710937 0.2226562,-2.390625 -0.1992188,-3.0351562 -0.421875,-0.65625 -1.078125,-0.9960938 -1.9335937,-0.9960938 z m 0,0"
       style="fill:#000000;fill-opacity:1;fill-rule:nonzero;stroke:none"
       aria-label="g"
       transform="matrix(1.3333333,0,0,1.3333333,516.65773,171.21382)" />
    <path
       id="path47"
       d="m 485.934,100.539 0.996,-0.84 1.14,-0.648 1.239,-0.422 1.296,-0.18 1.305,0.074 1.27,0.325 1.183,0.554 1.063,0.766 0.898,0.93 0.711,1.047 0.508,1.117 0.297,1.129 0.082,1.078 -0.11,0.98 -0.281,0.828 -0.418,0.637 -0.519,0.414 -0.574,0.164 -0.582,-0.086 -0.543,-0.336 -0.457,-0.57 -0.329,-0.773 -0.164,-0.938 0.02,-1.055 0.23,-1.117 0.438,-1.125 0.648,-1.078 0.844,-0.973 1.016,-0.82 1.148,-0.625 1.246,-0.398 1.301,-0.153 1.305,0.098 1.261,0.352 1.176,0.578 1.043,0.785 0.883,0.941 0.691,1.063 0.485,1.117 0.273,1.125 0.063,1.074 -0.129,0.965 -0.297,0.812 -0.434,0.614 -0.527,0.386 -0.578,0.141 -0.578,-0.113 -0.535,-0.363 -0.446,-0.59 -0.312,-0.793 -0.149,-0.953 0.043,-1.063 0.25,-1.121 0.465,-1.125 0.668,-1.066 0.863,-0.961 1.028,-0.801 1.164,-0.606 1.254,-0.371 1.304,-0.129 1.301,0.129 1.254,0.371 1.164,0.606 1.027,0.801 0.864,0.961 0.672,1.066 0.46,1.125 0.25,1.121 0.043,1.063 -0.148,0.953 -0.312,0.793 -0.446,0.59 -0.535,0.363 -0.578,0.113 -0.578,-0.141 -0.528,-0.386 -0.433,-0.614 -0.297,-0.812 -0.129,-0.965 0.067,-1.074 0.269,-1.125 0.484,-1.117 0.692,-1.063 0.883,-0.941 1.046,-0.785 1.172,-0.578 1.262,-0.352 1.305,-0.098 1.301,0.153 1.246,0.398 1.152,0.625 1.012,0.82 0.843,0.973 0.649,1.078 0.441,1.125 0.227,1.117 0.023,1.055 -0.168,0.938 -0.328,0.773 -0.457,0.57 -0.539,0.336 -0.582,0.086 -0.574,-0.164 -0.52,-0.414 -0.422,-0.637 -0.281,-0.828 -0.109,-0.98 0.086,-1.078 0.293,-1.129 0.508,-1.117 0.71,-1.047 0.903,-0.93 1.058,-0.766 1.184,-0.554 1.27,-0.325 1.308,-0.074 1.293,0.18 1.242,0.422 1.137,0.648 0.996,0.84"
       style="fill:none;stroke:#000000;stroke-width:0.9216;stroke-linecap:square;stroke-linejoin:miter;stroke-miterlimit:3.25;stroke-dasharray:none;stroke-opacity:1"
       transform="scale(1.3333333)" />
    <path
       id="path48"
       d="m 9.7619637,-10.582015 c 0.3164063,0.234375 0.5859373,0.5976566 0.8437503,1.0312504 l 0.316406,-1.3828124 h 1.710937 L 10.500245,-0.89060837 C 10.195557,0.50392288 9.7619637,1.6289229 9.1643074,2.4257979 c -1.1015625,1.5 -2.7070312,2.2617187 -4.8398437,2.2617187 -1.1953125,0 -2.1328125,-0.2695312 -2.8242188,-0.796875 C 0.79711994,3.3632979 0.50415119,2.5078291 0.65649494,1.3711104 H 2.5549324 c -0.023437,0.5039062 0.082031,0.890625 0.2929688,1.1601562 0.3164062,0.3984375 0.9492187,0.609375 1.8398437,0.609375 1.4414063,0 2.4726563,-0.5039062 3.1289063,-1.4882812 0.375,-0.5976563 0.7148437,-1.652343775 1.0078125,-3.1757813 -0.4804688,0.55078128 -1.0078125,0.97265628 -1.5820313,1.25390628 -0.5859375,0.269531245 -1.3125,0.421875 -2.1796875,0.421875 -1.171875,0 -2.1445312,-0.421875 -2.8710937,-1.27734378 -0.7148438,-0.8554687 -0.8554688,-2.25 -0.4335938,-4.21875 0.3984375,-1.8398437 1.1367188,-3.2929687 2.2734375,-4.3242187 1.125,-1.0429689 2.3203125,-1.5703129 3.5976563,-1.5703129 0.8554687,0 1.5820312,0.210938 2.1328125,0.65625 z m -2.1328125,0.9960941 c -1.3125,0 -2.3320313,0.609375 -3.0703125,1.8398438 -0.3984375,0.65625 -0.7148438,1.5 -0.9257813,2.5546875 -0.2695312,1.2421875 -0.2109375,2.1914062 0.1523438,2.8476562 0.3515625,0.65625 0.9609375,0.9726563 1.828125,0.9726563 1.3359375,0 2.390625,-0.5976563 3.1875,-1.7929688 0.4453125,-0.703125 0.7617187,-1.4765625 0.9609375,-2.390625 0.2929683,-1.3710937 0.2226562,-2.390625 -0.1992188,-3.0351562 -0.421875,-0.65625 -1.078125,-0.9960938 -1.9335937,-0.9960938 z m 0,0"
       style="fill:#000000;fill-opacity:1;fill-rule:nonzero;stroke:none"
       aria-label="g"
       transform="matrix(1.3333333,0,0,1.3333333,673.05045,117.17967)" />
    <path
       id="path49"
       d="m 418.91,100.539 c -0.316,8.981 3.113,17.691 9.465,24.043 6.355,6.356 15.066,9.785 24.047,9.469"
       style="fill:none;stroke:#000000;stroke-width:0.9216;stroke-linecap:butt;stroke-linejoin:miter;stroke-miterlimit:3.25;stroke-dasharray:0.9216, 5.5296;stroke-dashoffset:0;stroke-opacity:1"
       transform="scale(1.3333333)" />
    <path
       id="path50"
       d="m 431.93,128.137 -9.477,-4.739 4.738,-4.738 z"
       style="fill:#000000;fill-opacity:1;fill-rule:evenodd;stroke:none"
       transform="scale(1.3333333)" />
    <path
       id="path51"
       d="M 5.5560878,-11.026205 3.997494,-3.6902672 c -0.1289062,0.5507813 -0.1289062,1.0078125 -0.023437,1.3710938 0.1875,0.65625 0.7148438,0.984375 1.6289063,0.984375 1.2773437,0 2.296875,-0.5625 3.0117187,-1.7226563 0.3867183,-0.6210937 0.679687,-1.4765625 0.914062,-2.5546875 L 10.6889,-11.026205 h 1.851563 L 10.196713,0.00113906 H 8.450619 L 8.8021815,-1.6277672 c -0.328125,0.421875 -0.6914062,0.78515626 -1.1132812,1.07812501 -0.84375,0.57421875 -1.7578125,0.8671875 -2.765625,0.8671875 -1.5820313,0 -2.53125,-0.52734375 -2.8710938,-1.58203121 -0.1875,-0.5742188 -0.1875,-1.3125 0,-2.2617188 l 1.6054688,-7.5000003 z m 0,0"
       style="fill:#000000;fill-opacity:1;fill-rule:nonzero;stroke:none"
       aria-label="u"
       transform="matrix(1.3333333,0,0,1.3333333,537.67001,187.5727)" />
    <path
       id="path52"
       d="m 6.8803065,-7.4519861 c 0.2226563,0.1640625 0.4101563,0.4101563 0.5976563,0.7265625 l 0.2226562,-0.984375 h 1.1953125 l -1.5,7.08984379 C 7.184994,0.35270144 6.8803065,1.1495764 6.4584315,1.7120764 5.684994,2.7667639 4.559994,3.3058264 3.0482753,3.3058264 c -0.84375,0 -1.5,-0.1992187 -1.9921875,-0.5625 -0.49218755,-0.375 -0.70312505,-0.9726562 -0.5976563,-1.76953121 h 1.3476563 c -0.023437,0.35156251 0.058594,0.62109371 0.1992187,0.80859371 0.234375,0.2929688 0.6796875,0.4335938 1.3007813,0.4335938 1.0078125,0 1.7460937,-0.3515625 2.203125,-1.0546875 C 5.778744,0.75113894 6.013119,0.00113894 6.2240565,-1.0652673 5.8842128,-0.67854856 5.5092128,-0.38557981 5.1107753,-0.19807981 4.6889003,0.00113894 4.184994,0.10660769 3.575619,0.10660769 c -0.8320312,0 -1.5234375,-0.3046875 -2.0273437,-0.890625 C 1.044369,-1.3933923 0.93890025,-2.3777673 1.231869,-3.7605798 c 0.2929688,-1.3007813 0.8085938,-2.3203125 1.6171875,-3.0585938 0.7851563,-0.7265625 1.6289063,-1.1015625 2.5195313,-1.1015625 0.6210937,0 1.125,0.1523438 1.5117187,0.46875 z m -1.5117187,0.6914063 c -0.9140625,0 -1.6289063,0.4335937 -2.15625,1.3007812 -0.28125,0.4570313 -0.5039063,1.0546875 -0.65625,1.8046875 -0.1875,0.8789063 -0.140625,1.546875 0.1054687,2.0039063 0.2578125,0.4570312 0.6914063,0.67968749 1.3007813,0.67968749 0.9375,0 1.6757812,-0.41015629 2.25,-1.26562499 0.3046875,-0.4804688 0.5273437,-1.03125 0.6679687,-1.6757813 0.2109375,-0.9726562 0.1640625,-1.6875 -0.140625,-2.1445312 -0.2929687,-0.4570313 -0.75,-0.703125 -1.3710937,-0.703125 z m 0,0"
       style="fill:#000000;fill-opacity:1;fill-rule:nonzero;stroke:none"
       aria-label="g"
       transform="matrix(1.3333333,0,0,1.3333333,553.23251,192.79926)" />
    <path
       id="path53"
       d="m 485.934,100.539 0.793,0.996 0.578,1.172 0.324,1.289 0.047,1.348 -0.235,1.332 -0.511,1.246 -0.746,1.094 -0.942,0.894 -1.082,0.66 -1.156,0.414 -1.18,0.176 -1.14,-0.035 -1.063,-0.211 -0.933,-0.348 -0.782,-0.437 -0.597,-0.488 -0.399,-0.493 -0.183,-0.472 0.039,-0.422 0.25,-0.352 0.457,-0.257 0.64,-0.153 0.793,-0.023 0.906,0.125 0.973,0.293 0.985,0.472 0.937,0.672 0.832,0.86 0.668,1.043 0.457,1.187 0.199,1.285 -0.074,1.328 -0.359,1.301 -0.625,1.199 -0.86,1.036 -1.043,0.82 -1.168,0.57 -1.23,0.305 -1.231,0.051 -1.179,-0.188 -1.082,-0.379 -0.95,-0.527 -0.792,-0.617 -0.614,-0.66 -0.429,-0.649 -0.235,-0.598 -0.039,-0.507 0.156,-0.399 0.34,-0.262 0.504,-0.113 0.649,0.043 0.757,0.215 0.817,0.391 0.836,0.57 0.789,0.75 0.691,0.918 0.535,1.07 0.325,1.192 0.078,1.265 -0.196,1.289 -0.468,1.242 -0.735,1.129 -0.957,0.957 -1.129,0.731 -1.242,0.473 -1.289,0.195 -1.266,-0.078 -1.191,-0.324 -1.07,-0.536 -0.918,-0.691 -0.75,-0.789 -0.571,-0.836 -0.39,-0.82 -0.211,-0.754 -0.047,-0.649 0.113,-0.508 0.262,-0.335 0.398,-0.157 0.508,0.039 0.598,0.235 0.652,0.426 0.657,0.617 0.621,0.793 0.523,0.949 0.379,1.078 0.187,1.18 -0.046,1.234 -0.309,1.231 -0.57,1.168 -0.821,1.042 -1.035,0.856 -1.199,0.629 -1.301,0.359 -1.324,0.074 -1.289,-0.199 -1.188,-0.457 -1.039,-0.668 -0.863,-0.832 -0.668,-0.937 -0.476,-0.985 -0.293,-0.972 -0.125,-0.907 0.023,-0.793 0.152,-0.64 0.262,-0.457 0.348,-0.25 0.422,-0.039 0.472,0.183 0.496,0.399 0.485,0.597 0.437,0.778 0.348,0.937 0.211,1.059 0.039,1.144 -0.18,1.18 -0.414,1.156 -0.66,1.082 -0.895,0.942 -1.093,0.746 -1.246,0.508 -1.332,0.238 -1.348,-0.047 -1.289,-0.324 -1.172,-0.578 -0.996,-0.793"
       style="fill:none;stroke:#000000;stroke-width:0.9216;stroke-linecap:square;stroke-linejoin:miter;stroke-miterlimit:3.25;stroke-dasharray:none;stroke-opacity:1"
       transform="scale(1.3333333)" />
    <path
       id="path54"
       d="m 9.7615329,-10.582369 c 0.3164061,0.234375 0.5859371,0.5976561 0.8437501,1.0312499 l 0.316406,-1.3828129 h 1.710938 L 10.499814,-0.89096287 C 10.195127,0.50356838 9.7615329,1.6285684 9.1638767,2.4254434 c -1.1015625,1.5 -2.7070313,2.2617187 -4.8398438,2.2617187 -1.1953125,0 -2.1328125,-0.2695312 -2.8242187,-0.796875 C 0.79668919,3.3629434 0.50372044,2.5074746 0.65606419,1.3707559 H 2.5545017 c -0.023437,0.5039062 0.082031,0.890625 0.2929687,1.1601562 0.3164063,0.3984375 0.9492188,0.609375 1.8398438,0.609375 1.4414062,0 2.4726562,-0.5039062 3.1289062,-1.4882812 0.375,-0.5976563 0.7148438,-1.652343775 1.0078125,-3.1757813 -0.4804687,0.55078128 -1.0078125,0.97265628 -1.5820312,1.25390628 -0.5859375,0.269531245 -1.3125,0.421875 -2.1796875,0.421875 -1.171875,0 -2.1445313,-0.421875 -2.8710938,-1.27734378 -0.7148437,-0.8554687 -0.8554687,-2.25 -0.4335937,-4.21875 0.3984375,-1.8398437 1.1367187,-3.2929687 2.2734375,-4.3242187 1.125,-1.0429684 2.3203125,-1.5703124 3.5976562,-1.5703124 0.8554688,0 1.5820313,0.210937 2.1328125,0.65625 z m -2.1328125,0.9960936 c -1.3125,0 -2.3320312,0.609375 -3.0703125,1.8398438 -0.3984375,0.65625 -0.7148437,1.5 -0.9257812,2.5546875 -0.2695313,1.2421875 -0.2109375,2.1914062 0.1523437,2.8476562 0.3515625,0.65625 0.9609375,0.9726563 1.828125,0.9726563 1.3359375,0 2.390625,-0.5976563 3.1875,-1.7929688 0.4453125,-0.703125 0.7617188,-1.4765625 0.9609375,-2.390625 0.2929691,-1.3710937 0.2226563,-2.390625 -0.1992187,-3.0351562 -0.421875,-0.65625 -1.078125,-0.9960938 -1.9335938,-0.9960938 z m 0,0"
       style="fill:#000000;fill-opacity:1;fill-rule:nonzero;stroke:none"
       aria-label="g"
       transform="matrix(1.3333333,0,0,1.3333333,640.2854,197.71139)" />
    <path
       id="path55"
       d="m 452.422,67.027 v 67.024"
       style="fill:none;stroke:#000000;stroke-width:0.9216;stroke-linecap:butt;stroke-linejoin:miter;stroke-miterlimit:3.25;stroke-dasharray:0.9216, 5.5296;stroke-dashoffset:0;stroke-opacity:1"
       transform="scale(1.3333333)" />
    <path
       id="path56"
       d="m 452.422,95.512 -3.352,10.054 h 6.703 z"
       style="fill:#000000;fill-opacity:1;fill-rule:evenodd;stroke:none"
       transform="scale(1.3333333)" />
    <path
       id="path57"
       d="m 5.5556084,-11.02744 -1.5585938,7.335938 c -0.1289062,0.5507812 -0.1289062,1.0078125 -0.023437,1.3710937 0.1875,0.65625 0.7148438,0.984375 1.6289063,0.984375 1.2773437,0 2.296875,-0.5625 3.0117187,-1.7226562 0.3867188,-0.6210938 0.6796875,-1.4765625 0.9140625,-2.5546875 l 1.1601569,-5.414063 h 1.851562 L 10.196233,-9.575e-5 H 8.4501396 L 8.8017021,-1.629002 c -0.328125,0.421875 -0.6914062,0.78515625 -1.1132812,1.078125 -0.84375,0.57421875 -1.7578125,0.8671875 -2.765625,0.8671875 -1.5820313,0 -2.53125,-0.52734375 -2.8710938,-1.5820313 -0.1875,-0.5742187 -0.1875,-1.3125 0,-2.2617187 L 3.6571709,-11.02744 Z m 0,0"
       style="fill:#000000;fill-opacity:1;fill-rule:nonzero;stroke:none"
       aria-label="u"
       transform="matrix(1.3333333,0,0,1.3333333,613.78783,136.547)" />
    <path
       id="path58"
       d="m 6.8798271,-7.4532209 c 0.2226563,0.1640625 0.4101563,0.4101563 0.5976563,0.7265625 l 0.2226562,-0.984375 h 1.1953125 l -1.5,7.08984378 c -0.2109375,0.97265625 -0.515625,1.76953122 -0.9375,2.33203122 -0.7734375,1.0546875 -1.8984375,1.59375 -3.4101562,1.59375 -0.84375,0 -1.5,-0.1992187 -1.9921875,-0.5625 C 0.56342088,2.3670916 0.35248338,1.7694354 0.45795213,0.97256038 H 1.8056084 c -0.023437,0.35156252 0.058594,0.62109372 0.1992187,0.80859372 0.234375,0.2929688 0.6796875,0.4335938 1.3007813,0.4335938 1.0078125,0 1.7460937,-0.3515625 2.203125,-1.0546875 0.2695312,-0.41015627 0.5039062,-1.160156275 0.7148437,-2.2265625 -0.3398437,0.38671873 -0.7148437,0.67968748 -1.1132812,0.86718748 -0.421875,0.199218745 -0.9257813,0.3046875 -1.5351563,0.3046875 -0.8320312,0 -1.5234375,-0.3046875 -2.0273437,-0.890625 C 1.0438896,-1.3946271 0.93842088,-2.3790021 1.2313896,-3.7618146 c 0.2929688,-1.3007813 0.8085938,-2.3203125 1.6171875,-3.0585938 0.7851563,-0.7265625 1.6289063,-1.1015625 2.5195313,-1.1015625 0.6210937,0 1.125,0.1523438 1.5117187,0.46875 z m -1.5117187,0.6914063 c -0.9140625,0 -1.6289063,0.4335937 -2.15625,1.3007812 -0.28125,0.4570313 -0.5039063,1.0546875 -0.65625,1.8046875 -0.1875,0.8789063 -0.140625,1.546875 0.1054687,2.0039063 0.2578125,0.4570312 0.6914063,0.67968748 1.3007813,0.67968748 0.9375,0 1.6757812,-0.41015628 2.25,-1.26562498 0.3046875,-0.4804688 0.5273437,-1.03125 0.6679687,-1.6757813 0.2109375,-0.9726562 0.1640625,-1.6875 -0.140625,-2.1445312 -0.2929687,-0.4570313 -0.75,-0.703125 -1.3710937,-0.703125 z m 0,0"
       style="fill:#000000;fill-opacity:1;fill-rule:nonzero;stroke:none"
       aria-label="g"
       transform="matrix(1.3333333,0,0,1.3333333,629.35033,141.77357)" />
    <path
       id="path59"
       d="m 452.422,67.027 c -8.942,-0.179 -17.57,3.293 -23.895,9.618 -6.324,6.324 -9.797,14.953 -9.617,23.894"
       style="fill:none;stroke:#000000;stroke-width:0.9216;stroke-linecap:butt;stroke-linejoin:miter;stroke-miterlimit:3.25;stroke-dasharray:0.9216, 5.5296;stroke-dashoffset:0;stroke-opacity:1"
       transform="scale(1.3333333)" />
    <path
       id="path60"
       d="m 424.973,80.199 4.738,-9.48 4.742,4.738 z"
       style="fill:#000000;fill-opacity:1;fill-rule:evenodd;stroke:none"
       transform="scale(1.3333333)" />
    <path
       id="path61"
       d="m 5.5546948,-11.027138 -1.5585937,7.3359379 c -0.1289063,0.5507813 -0.1289063,1.0078125 -0.023437,1.3710938 0.1875,0.65625 0.7148437,0.984375 1.6289062,0.984375 1.2773438,0 2.296875,-0.5625 3.0117188,-1.7226563 0.3867187,-0.6210937 0.6796875,-1.4765625 0.9140625,-2.5546875 L 10.687507,-11.027138 H 12.53907 L 10.19532,2.061875e-4 H 8.4492261 L 8.8007886,-1.6287001 c -0.328125,0.421875 -0.6914063,0.78515629 -1.1132813,1.07812504 -0.84375,0.57421875 -1.7578125,0.8671875 -2.765625,0.8671875 -1.5820312,0 -2.53125,-0.52734375 -2.8710937,-1.58203124 -0.1875,-0.5742188 -0.1875,-1.3125 0,-2.2617188 l 1.6054687,-7.5000004 z m 0,0"
       style="fill:#000000;fill-opacity:1;fill-rule:nonzero;stroke:none"
       aria-label="u"
       transform="matrix(1.3333333,0,0,1.3333333,537.87108,85.722381)" />
    <path
       id="path62"
       d="m 6.8789136,-7.4529189 c 0.2226562,0.1640625 0.4101562,0.4101562 0.5976562,0.7265625 l 0.2226563,-0.984375 h 1.1953125 l -1.5,7.08984371 c -0.2109375,0.97265625 -0.515625,1.76953129 -0.9375,2.33203129 -0.7734375,1.0546875 -1.8984375,1.59375 -3.4101563,1.59375 -0.84375,0 -1.5,-0.1992188 -1.9921875,-0.5625 C 0.56250731,2.3673936 0.35156981,1.7697373 0.45703856,0.97286231 H 1.8046948 c -0.023437,0.35156249 0.058594,0.62109379 0.1992188,0.80859379 0.234375,0.2929687 0.6796875,0.4335937 1.3007812,0.4335937 1.0078125,0 1.7460938,-0.3515625 2.203125,-1.0546875 0.2695313,-0.41015624 0.5039063,-1.1601562375 0.7148438,-2.2265625 -0.3398438,0.38671876 -0.7148438,0.67968751 -1.1132813,0.86718751 -0.421875,0.1992187525 -0.9257812,0.3046875 -1.5351562,0.3046875 -0.8320313,0 -1.5234375,-0.3046875 -2.0273438,-0.890625 C 1.0429761,-1.3943252 0.93750731,-2.3787002 1.2304761,-3.7615127 c 0.2929687,-1.3007812 0.8085937,-2.3203125 1.6171875,-3.0585937 0.7851562,-0.7265625 1.6289062,-1.1015625 2.5195312,-1.1015625 0.6210938,0 1.125,0.1523437 1.5117188,0.46875 z m -1.5117188,0.6914062 c -0.9140625,0 -1.6289062,0.4335938 -2.15625,1.3007813 -0.28125,0.4570312 -0.5039062,1.0546875 -0.65625,1.8046875 -0.1875,0.8789062 -0.140625,1.546875 0.1054688,2.0039062 0.2578125,0.4570313 0.6914062,0.67968751 1.3007812,0.67968751 0.9375,0 1.6757813,-0.41015621 2.25,-1.26562501 0.3046875,-0.4804687 0.5273438,-1.03125 0.6679688,-1.6757812 0.2109375,-0.9726563 0.1640625,-1.6875 -0.140625,-2.1445313 -0.2929688,-0.4570312 -0.75,-0.703125 -1.3710938,-0.703125 z m 0,0"
       style="fill:#000000;fill-opacity:1;fill-rule:nonzero;stroke:none"
       aria-label="g"
       transform="matrix(1.3333333,0,0,1.3333333,553.43358,90.948944)" />
    <path
       id="path63"
       d="m 485.934,100.539 0.793,-1 0.578,-1.168 0.324,-1.289 0.047,-1.348 -0.235,-1.332 -0.511,-1.246 -0.746,-1.094 -0.942,-0.894 -1.082,-0.66 -1.156,-0.414 -1.18,-0.18 -1.14,0.035 -1.063,0.215 -0.933,0.348 -0.782,0.437 -0.597,0.485 -0.399,0.496 -0.183,0.468 0.039,0.422 0.25,0.352 0.457,0.262 0.64,0.148 0.793,0.023 0.906,-0.121 0.973,-0.293 0.985,-0.476 0.937,-0.668 0.832,-0.863 0.668,-1.039 0.457,-1.188 0.199,-1.289 -0.074,-1.328 -0.359,-1.297 -0.625,-1.199 -0.86,-1.039 -1.043,-0.821 -1.168,-0.57 -1.23,-0.305 -1.231,-0.047 -1.179,0.184 -1.082,0.383 -0.95,0.523 -0.792,0.621 -0.614,0.657 -0.429,0.648 -0.235,0.598 -0.039,0.512 0.156,0.398 0.34,0.262 0.504,0.113 0.649,-0.047 0.757,-0.215 0.817,-0.39 0.836,-0.567 0.789,-0.75 0.691,-0.918 0.535,-1.07 0.325,-1.192 0.078,-1.269 -0.196,-1.285 -0.468,-1.242 -0.735,-1.133 -0.957,-0.957 -1.129,-0.731 -1.242,-0.468 -1.289,-0.196 -1.266,0.078 -1.191,0.325 -1.07,0.531 -0.918,0.691 -0.75,0.793 -0.571,0.832 -0.39,0.821 -0.211,0.757 -0.047,0.649 0.113,0.504 0.262,0.34 0.398,0.156 0.508,-0.039 0.598,-0.235 0.652,-0.429 0.657,-0.614 0.621,-0.793 0.523,-0.949 0.379,-1.082 0.187,-1.179 -0.046,-1.231 -0.309,-1.23 -0.57,-1.168 -0.821,-1.043 -1.035,-0.86 -1.199,-0.625 -1.301,-0.359 -1.324,-0.078 -1.289,0.203 -1.188,0.453 -1.039,0.672 -0.863,0.832 -0.668,0.937 -0.476,0.985 -0.293,0.972 -0.125,0.907 0.023,0.793 0.152,0.636 0.262,0.457 0.348,0.254 0.422,0.035 0.472,-0.179 0.496,-0.399 0.485,-0.597 0.437,-0.782 0.348,-0.937 0.211,-1.059 0.039,-1.14 -0.18,-1.18 -0.414,-1.16 -0.66,-1.078 -0.895,-0.942 -1.093,-0.75 -1.246,-0.507 -1.332,-0.239 -1.348,0.051 -1.289,0.324 -1.172,0.578 -0.996,0.793"
       style="fill:none;stroke:#000000;stroke-width:0.9216;stroke-linecap:square;stroke-linejoin:miter;stroke-miterlimit:3.25;stroke-dasharray:none;stroke-opacity:1"
       transform="scale(1.3333333)" />
    <path
       id="path64"
       d="m 9.7615329,-10.580908 c 0.3164061,0.234375 0.5859371,0.5976563 0.8437501,1.0312501 l 0.316406,-1.3828121 h 1.710938 L 10.499814,-0.88950169 C 10.195127,0.50502956 9.7615329,1.6300296 9.1638767,2.4269046 c -1.1015625,1.5 -2.7070313,2.2617187 -4.8398438,2.2617187 -1.1953125,0 -2.1328125,-0.2695312 -2.8242187,-0.796875 C 0.79668919,3.3644046 0.50372044,2.5089358 0.65606419,1.3722171 H 2.5545017 c -0.023437,0.5039062 0.082031,0.890625 0.2929687,1.1601562 0.3164063,0.3984375 0.9492188,0.609375 1.8398438,0.609375 1.4414062,0 2.4726562,-0.5039062 3.1289062,-1.4882812 0.375,-0.5976563 0.7148438,-1.65234379 1.0078125,-3.1757813 -0.4804687,0.55078126 -1.0078125,0.97265626 -1.5820312,1.25390626 -0.5859375,0.26953125 -1.3125,0.421875 -2.1796875,0.421875 -1.171875,0 -2.1445313,-0.421875 -2.8710938,-1.27734376 -0.7148437,-0.8554687 -0.8554687,-2.25 -0.4335937,-4.21875 0.3984375,-1.8398437 1.1367187,-3.2929687 2.2734375,-4.3242187 1.125,-1.0429686 2.3203125,-1.5703126 3.5976562,-1.5703126 0.8554688,0 1.5820313,0.210938 2.1328125,0.65625 z m -2.1328125,0.9960938 c -1.3125,0 -2.3320312,0.609375 -3.0703125,1.8398438 -0.3984375,0.65625 -0.7148437,1.5 -0.9257812,2.5546875 -0.2695313,1.2421875 -0.2109375,2.1914062 0.1523437,2.8476562 0.3515625,0.65625 0.9609375,0.9726563 1.828125,0.9726563 1.3359375,0 2.390625,-0.5976563 3.1875,-1.7929688 0.4453125,-0.703125 0.7617188,-1.4765625 0.9609375,-2.390625 0.2929691,-1.3710937 0.2226563,-2.390625 -0.1992187,-3.0351562 -0.421875,-0.65625 -1.078125,-0.9960938 -1.9335938,-0.9960938 z m 0,0"
       style="fill:#000000;fill-opacity:1;fill-rule:nonzero;stroke:none"
       aria-label="g"
       transform="matrix(1.3333333,0,0,1.3333333,640.2854,90.682096)" />
    <path
       id="path65"
       d="m 456.109,67.027 c 0,0.977 -0.39,1.914 -1.082,2.606 -0.691,0.691 -1.629,1.078 -2.605,1.078 -0.977,0 -1.914,-0.387 -2.606,-1.078 -0.691,-0.692 -1.082,-1.629 -1.082,-2.606 0,-0.98 0.391,-1.918 1.082,-2.609 0.692,-0.691 1.629,-1.078 2.606,-1.078 0.976,0 1.914,0.387 2.605,1.078 0.692,0.691 1.082,1.629 1.082,2.609 z"
       style="fill:#000000;fill-opacity:1;fill-rule:evenodd;stroke:none"
       transform="scale(1.3333333)" />
    <path
       id="path66"
       d="m 456.109,134.051 c 0,0.976 -0.39,1.914 -1.082,2.605 -0.691,0.692 -1.629,1.082 -2.605,1.082 -0.977,0 -1.914,-0.39 -2.606,-1.082 -0.691,-0.691 -1.082,-1.629 -1.082,-2.605 0,-0.977 0.391,-1.914 1.082,-2.606 0.692,-0.691 1.629,-1.082 2.606,-1.082 0.976,0 1.914,0.391 2.605,1.082 0.692,0.692 1.082,1.629 1.082,2.606 z"
       style="fill:#000000;fill-opacity:1;fill-rule:evenodd;stroke:none"
       transform="scale(1.3333333)" />
    <path
       id="path67"
       d="m 422.594,100.539 c 0,0.977 -0.387,1.914 -1.078,2.606 -0.692,0.691 -1.629,1.078 -2.606,1.078 -0.98,0 -1.918,-0.387 -2.609,-1.078 -0.692,-0.692 -1.078,-1.629 -1.078,-2.606 0,-0.98 0.386,-1.918 1.078,-2.609 0.691,-0.692 1.629,-1.078 2.609,-1.078 0.977,0 1.914,0.386 2.606,1.078 0.691,0.691 1.078,1.629 1.078,2.609 z"
       style="fill:#000000;fill-opacity:1;fill-rule:evenodd;stroke:none"
       transform="scale(1.3333333)" />
    <path
       id="path68"
       d="m 489.621,100.539 c 0,0.977 -0.387,1.914 -1.078,2.606 -0.691,0.691 -1.629,1.078 -2.609,1.078 -0.977,0 -1.914,-0.387 -2.606,-1.078 -0.691,-0.692 -1.078,-1.629 -1.078,-2.606 0,-0.98 0.387,-1.918 1.078,-2.609 0.692,-0.692 1.629,-1.078 2.606,-1.078 0.98,0 1.918,0.386 2.609,1.078 0.691,0.691 1.078,1.629 1.078,2.609 z"
       style="fill:#000000;fill-opacity:1;fill-rule:evenodd;stroke:none"
       transform="scale(1.3333333)" />
    <path
       id="path69"
       d="m 603.23,100.539 -1,0.836 -1.136,0.648 -1.239,0.426 -1.296,0.18 -1.305,-0.074 -1.27,-0.325 -1.187,-0.558 -1.059,-0.762 -0.898,-0.93 -0.715,-1.05 -0.504,-1.118 -0.297,-1.124 -0.086,-1.083 0.114,-0.976 0.281,-0.832 0.418,-0.637 0.519,-0.41 0.575,-0.168 0.582,0.09 0.543,0.336 0.453,0.57 0.332,0.77 0.164,0.937 -0.02,1.055 -0.23,1.121 -0.438,1.125 -0.652,1.074 -0.84,0.973 -1.016,0.82 -1.148,0.625 -1.25,0.402 -1.297,0.153 -1.305,-0.102 -1.261,-0.347 -1.176,-0.582 -1.043,-0.782 -0.883,-0.945 -0.691,-1.059 -0.485,-1.121 -0.273,-1.125 -0.063,-1.07 0.129,-0.969 0.297,-0.808 0.434,-0.614 0.527,-0.386 0.578,-0.141 0.578,0.113 0.536,0.364 0.445,0.589 0.312,0.793 0.149,0.95 -0.043,1.066 -0.25,1.121 -0.465,1.125 -0.668,1.067 -0.863,0.96 -1.032,0.801 -1.16,0.602 -1.254,0.375 -1.304,0.125 -1.301,-0.125 -1.254,-0.375 -1.164,-0.602 -1.031,-0.801 -0.86,-0.96 -0.672,-1.067 -0.46,-1.125 -0.25,-1.121 -0.043,-1.066 0.148,-0.95 0.313,-0.793 0.445,-0.589 0.531,-0.364 0.582,-0.113 0.578,0.141 0.528,0.386 0.429,0.614 0.301,0.808 0.129,0.969 -0.066,1.07 -0.27,1.125 -0.488,1.121 -0.692,1.059 -0.879,0.945 -1.046,0.782 -1.172,0.582 -1.262,0.347 -1.305,0.102 -1.301,-0.153 -1.246,-0.402 -1.152,-0.625 -1.012,-0.82 -0.843,-0.973 -0.649,-1.074 -0.441,-1.125 -0.227,-1.121 -0.023,-1.055 0.168,-0.937 0.328,-0.77 0.457,-0.57 0.539,-0.336 0.582,-0.09 0.574,0.168 0.52,0.41 0.422,0.637 0.281,0.832 0.109,0.976 -0.086,1.083 -0.293,1.124 -0.508,1.118 -0.71,1.05 -0.903,0.93 -1.058,0.762 -1.184,0.558 -1.269,0.325 -1.309,0.074 -1.297,-0.18 -1.238,-0.426 -1.137,-0.648 -0.996,-0.836"
       style="fill:none;stroke:#000000;stroke-width:0.9216;stroke-linecap:square;stroke-linejoin:miter;stroke-miterlimit:3.25;stroke-dasharray:none;stroke-opacity:1"
       transform="scale(1.3333333)" />
    <path
       id="path70"
       d="m 9.7619003,-10.581262 c 0.3164067,0.234375 0.5859377,0.5976558 0.8437497,1.0312496 l 0.316407,-1.3828126 h 1.710937 L 10.500182,-0.88985619 C 10.195494,0.50467506 9.7619003,1.6296751 9.1642441,2.4265501 c -1.1015625,1.5 -2.7070313,2.2617187 -4.8398438,2.2617187 -1.1953125,0 -2.1328125,-0.2695312 -2.8242187,-0.796875 C 0.79705656,3.3640501 0.50408781,2.5085813 0.65643156,1.3718626 H 2.5548691 c -0.023437,0.5039062 0.082031,0.890625 0.2929687,1.1601562 0.3164063,0.3984375 0.9492188,0.609375 1.8398438,0.609375 1.4414062,0 2.4726562,-0.5039062 3.1289062,-1.4882812 0.375,-0.5976563 0.7148438,-1.6523437875 1.0078125,-3.1757813 -0.4804687,0.55078126 -1.0078125,0.97265626 -1.5820312,1.25390626 -0.5859375,0.2695312525 -1.3125,0.421875 -2.1796875,0.421875 -1.171875,0 -2.1445313,-0.421875 -2.8710938,-1.27734376 -0.7148437,-0.8554687 -0.8554687,-2.25 -0.4335937,-4.21875 0.3984375,-1.8398437 1.1367187,-3.2929687 2.2734375,-4.3242187 1.125,-1.0429691 2.3203125,-1.5703121 3.5976562,-1.5703121 0.8554688,0 1.5820313,0.210937 2.1328125,0.65625 z m -2.1328125,0.9960933 c -1.3125,0 -2.3320312,0.609375 -3.0703125,1.8398438 -0.3984375,0.65625 -0.7148437,1.5 -0.9257812,2.5546875 -0.2695313,1.2421875 -0.2109375,2.1914062 0.1523437,2.8476562 0.3515625,0.65625 0.9609375,0.9726563 1.828125,0.9726563 1.3359375,0 2.390625,-0.5976563 3.1875,-1.7929688 0.4453125,-0.703125 0.7617188,-1.4765625 0.9609375,-2.390625 0.2929687,-1.3710937 0.2226563,-2.390625 -0.1992187,-3.0351562 -0.421875,-0.65625 -1.078125,-0.9960938 -1.9335938,-0.9960938 z m 0,0"
       style="fill:#000000;fill-opacity:1;fill-rule:nonzero;stroke:none"
       aria-label="g"
       transform="matrix(1.3333333,0,0,1.3333333,762.41773,171.21382)" />
    <path
       id="path71"
       d="m 670.254,100.539 0.996,-0.84 1.141,-0.648 1.238,-0.422 1.297,-0.18 1.304,0.074 1.27,0.325 1.184,0.554 1.062,0.766 0.899,0.93 0.71,1.047 0.508,1.117 0.297,1.129 0.082,1.078 -0.109,0.98 -0.281,0.828 -0.418,0.637 -0.52,0.414 -0.574,0.164 -0.582,-0.086 -0.543,-0.336 -0.457,-0.57 -0.328,-0.773 -0.168,-0.938 0.023,-1.055 0.227,-1.117 0.441,-1.125 0.649,-1.078 0.843,-0.973 1.016,-0.82 1.148,-0.625 1.246,-0.398 1.301,-0.153 1.305,0.098 1.262,0.352 1.175,0.578 1.043,0.785 0.883,0.941 0.692,1.063 0.484,1.117 0.273,1.125 0.063,1.074 -0.129,0.965 -0.297,0.812 -0.433,0.614 -0.528,0.386 -0.578,0.141 -0.578,-0.113 -0.535,-0.363 -0.446,-0.59 -0.312,-0.793 -0.148,-0.953 0.043,-1.063 0.25,-1.121 0.46,-1.125 0.672,-1.066 0.864,-0.961 1.027,-0.801 1.164,-0.606 1.254,-0.371 1.305,-0.129 1.3,0.129 1.254,0.371 1.164,0.606 1.028,0.801 0.863,0.961 0.672,1.066 0.461,1.125 0.25,1.121 0.043,1.063 -0.149,0.953 -0.312,0.793 -0.445,0.59 -0.536,0.363 -0.578,0.113 -0.578,-0.141 -0.527,-0.386 -0.434,-0.614 -0.297,-0.812 -0.129,-0.965 0.067,-1.074 0.269,-1.125 0.485,-1.117 0.691,-1.063 0.883,-0.941 1.043,-0.785 1.176,-0.578 1.261,-0.352 1.305,-0.098 1.301,0.153 1.246,0.398 1.152,0.625 1.012,0.82 0.844,0.973 0.648,1.078 0.442,1.125 0.226,1.117 0.024,1.055 -0.168,0.938 -0.328,0.773 -0.458,0.57 -0.539,0.336 -0.582,0.086 -0.574,-0.164 -0.519,-0.414 -0.422,-0.637 -0.281,-0.828 -0.11,-0.98 0.086,-1.078 0.293,-1.129 0.508,-1.117 0.711,-1.047 0.898,-0.93 1.063,-0.766 1.183,-0.554 1.27,-0.325 1.308,-0.074 1.293,0.18 1.243,0.422 1.136,0.648 0.996,0.84"
       style="fill:none;stroke:#000000;stroke-width:0.9216;stroke-linecap:square;stroke-linejoin:miter;stroke-miterlimit:3.25;stroke-dasharray:none;stroke-opacity:1"
       transform="scale(1.3333333)" />
    <path
       id="path72"
       d="m 9.7603231,-10.582015 c 0.3164059,0.234375 0.5859379,0.5976566 0.8437499,1.0312504 l 0.316406,-1.3828124 h 1.710938 L 10.498604,-0.89060837 C 10.193917,0.50392288 9.7603231,1.6289229 9.1626668,2.4257979 c -1.1015625,1.5 -2.7070312,2.2617187 -4.8398437,2.2617187 -1.1953125,0 -2.1328125,-0.2695312 -2.8242188,-0.796875 C 0.79547931,3.3632979 0.50251056,2.5078291 0.65485431,1.3711104 H 2.5532918 c -0.023437,0.5039062 0.082031,0.890625 0.2929688,1.1601562 0.3164062,0.3984375 0.9492187,0.609375 1.8398437,0.609375 1.4414063,0 2.4726563,-0.5039062 3.1289063,-1.4882812 0.375,-0.5976563 0.7148437,-1.652343775 1.0078125,-3.1757813 -0.4804688,0.55078128 -1.0078125,0.97265628 -1.5820313,1.25390628 -0.5859375,0.269531245 -1.3125,0.421875 -2.1796875,0.421875 -1.171875,0 -2.1445312,-0.421875 -2.8710937,-1.27734378 -0.7148438,-0.8554687 -0.8554688,-2.25 -0.4335938,-4.21875 0.3984375,-1.8398437 1.1367188,-3.2929687 2.2734375,-4.3242187 1.125,-1.0429689 2.3203125,-1.5703129 3.5976563,-1.5703129 0.8554687,0 1.5820312,0.210938 2.1328125,0.65625 z m -2.1328125,0.9960941 c -1.3125,0 -2.3320313,0.609375 -3.0703125,1.8398438 -0.3984375,0.65625 -0.7148438,1.5 -0.9257813,2.5546875 -0.2695312,1.2421875 -0.2109375,2.1914062 0.1523438,2.8476562 0.3515625,0.65625 0.9609375,0.9726563 1.828125,0.9726563 1.3359375,0 2.390625,-0.5976563 3.1875,-1.7929688 0.4453125,-0.703125 0.7617187,-1.4765625 0.9609375,-2.390625 0.2929689,-1.3710937 0.2226562,-2.390625 -0.1992188,-3.0351562 -0.421875,-0.65625 -1.078125,-0.9960938 -1.9335937,-0.9960938 z m 0,0"
       style="fill:#000000;fill-opacity:1;fill-rule:nonzero;stroke:none"
       aria-label="g"
       transform="matrix(1.3333333,0,0,1.3333333,918.81045,117.17967)" />
    <path
       id="path73"
       d="m 603.23,100.539 -0.824,0.965 -0.617,1.141 -0.371,1.273 -0.098,1.344 0.188,1.336 0.457,1.261 0.699,1.121 0.902,0.93 1.047,0.703 1.137,0.461 1.164,0.227 1.141,0.011 1.066,-0.171 0.953,-0.309 0.805,-0.402 0.629,-0.461 0.433,-0.473 0.223,-0.461 0.008,-0.422 -0.207,-0.355 -0.41,-0.278 -0.602,-0.179 -0.758,-0.059 -0.883,0.078 -0.96,0.235 -0.989,0.41 -0.961,0.605 -0.871,0.797 -0.726,0.981 -0.528,1.14 -0.285,1.258 -0.019,1.32 0.265,1.313 0.535,1.242 0.782,1.094 0.98,0.898 1.125,0.657 1.207,0.398 1.231,0.141 1.195,-0.106 1.113,-0.308 0.992,-0.469 0.844,-0.582 0.68,-0.637 0.5,-0.645 0.312,-0.609 0.118,-0.535 -0.075,-0.434 -0.261,-0.308 -0.434,-0.172 -0.586,-0.02 -0.711,0.145 -0.789,0.309 -0.832,0.488 -0.816,0.66 -0.743,0.836 -0.609,0.992 -0.43,1.133 -0.199,1.23 0.059,1.282 0.336,1.265 0.605,1.192 0.848,1.05 1.047,0.848 1.191,0.602 1.27,0.336 1.277,0.062 1.234,-0.199 1.129,-0.43 0.996,-0.613 0.836,-0.742 0.66,-0.813 0.485,-0.832 0.312,-0.793 0.141,-0.707 -0.02,-0.586 -0.168,-0.433 -0.308,-0.262 -0.434,-0.074 -0.535,0.117 -0.609,0.312 -0.645,0.496 -0.636,0.68 -0.583,0.848 -0.472,0.992 -0.309,1.113 -0.101,1.196 0.136,1.226 0.399,1.207 0.66,1.125 0.898,0.981 1.094,0.781 1.238,0.539 1.317,0.262 1.316,-0.016 1.258,-0.285 1.141,-0.527 0.984,-0.727 0.797,-0.875 0.601,-0.957 0.415,-0.988 0.234,-0.961 0.078,-0.883 -0.062,-0.758 -0.176,-0.601 -0.278,-0.415 -0.359,-0.207 -0.418,0.008 -0.461,0.227 -0.476,0.433 -0.457,0.629 -0.407,0.805 -0.308,0.949 -0.168,1.071 0.011,1.136 0.227,1.168 0.461,1.133 0.703,1.051 0.93,0.898 1.121,0.703 1.262,0.457 1.336,0.184 1.339,-0.098 1.274,-0.371 1.144,-0.617 0.965,-0.82"
       style="fill:none;stroke:#000000;stroke-width:0.9216;stroke-linecap:square;stroke-linejoin:miter;stroke-miterlimit:3.25;stroke-dasharray:none;stroke-opacity:1"
       transform="scale(1.3333333)" />
    <path
       id="path74"
       d="m 9.7618294,-10.581869 c 0.3164066,0.234375 0.5859376,0.5976567 0.8437496,1.0312505 l 0.316407,-1.3828125 h 1.710937 L 10.500111,-0.89046225 C 10.195423,0.504069 9.7618294,1.629069 9.1641732,2.425944 c -1.1015625,1.5 -2.7070313,2.2617187 -4.8398438,2.2617187 -1.1953125,0 -2.1328125,-0.2695312 -2.8242187,-0.796875 C 0.79698569,3.363444 0.50401694,2.5079752 0.65636069,1.3712565 H 2.5547982 c -0.023437,0.5039062 0.082031,0.890625 0.2929687,1.1601562 0.3164063,0.3984375 0.9492188,0.609375 1.8398438,0.609375 1.4414062,0 2.4726562,-0.5039062 3.1289062,-1.4882812 0.375,-0.5976563 0.7148438,-1.65234375 1.0078125,-3.1757813 -0.4804687,0.5507813 -1.0078125,0.9726563 -1.5820312,1.2539063 -0.5859375,0.26953125 -1.3125,0.421875 -2.1796875,0.421875 -1.171875,0 -2.1445313,-0.421875 -2.8710938,-1.2773438 -0.7148437,-0.8554687 -0.8554687,-2.25 -0.4335937,-4.21875 0.3984375,-1.8398437 1.1367187,-3.2929687 2.2734375,-4.3242187 1.125,-1.042969 2.3203125,-1.570313 3.5976562,-1.570313 0.8554688,0 1.5820313,0.210938 2.1328125,0.65625 z m -2.1328125,0.9960942 c -1.3125,0 -2.3320312,0.609375 -3.0703125,1.8398438 -0.3984375,0.65625 -0.7148437,1.5 -0.9257812,2.5546875 -0.2695313,1.2421875 -0.2109375,2.1914062 0.1523437,2.8476562 0.3515625,0.65625 0.9609375,0.9726563 1.828125,0.9726563 1.3359375,0 2.390625,-0.5976563 3.1875,-1.7929688 0.4453125,-0.703125 0.7617188,-1.4765625 0.9609375,-2.390625 0.2929686,-1.3710937 0.2226563,-2.390625 -0.1992187,-3.0351562 -0.421875,-0.65625 -1.078125,-0.9960938 -1.9335938,-0.9960938 z m 0,0"
       style="fill:#000000;fill-opacity:1;fill-rule:nonzero;stroke:none"
       aria-label="g"
       transform="matrix(1.3333333,0,0,1.3333333,794.69126,198.20291)" />
    <path
       id="path75"
       d="m 636.742,134.051 c 18.492,-0.039 33.473,-15.02 33.512,-33.512"
       style="fill:none;stroke:#000000;stroke-width:0.9216;stroke-linecap:butt;stroke-linejoin:miter;stroke-miterlimit:3.25;stroke-dasharray:0.9216, 5.5296;stroke-dashoffset:0;stroke-opacity:1"
       transform="scale(1.3333333)" />
    <path
       id="path76"
       d="m 656.863,127.77 9.481,-4.739 -4.742,-4.742 z"
       style="fill:#000000;fill-opacity:1;fill-rule:evenodd;stroke:none"
       transform="scale(1.3333333)" />
    <path
       id="path77"
       d="M 5.5557908,-11.026705 3.997197,-3.6907678 c -0.1289062,0.5507812 -0.1289062,1.0078125 -0.023437,1.3710937 0.1875,0.65625 0.7148438,0.984375 1.6289063,0.984375 1.2773437,0 2.296875,-0.5625 3.0117187,-1.7226562 0.3867188,-0.6210938 0.6796875,-1.4765625 0.9140625,-2.5546875 l 1.1601565,-5.4140622 h 1.851563 L 10.196416,6.384375e-4 H 8.450322 L 8.8018845,-1.6282678 c -0.328125,0.421875 -0.6914062,0.78515624 -1.1132812,1.07812499 -0.84375,0.57421875 -1.7578125,0.8671875 -2.765625,0.8671875 -1.5820313,0 -2.53125,-0.52734375 -2.8710938,-1.58203129 -0.1875,-0.5742187 -0.1875,-1.3125 0,-2.2617187 l 1.6054688,-7.4999997 z m 0,0"
       style="fill:#000000;fill-opacity:1;fill-rule:nonzero;stroke:none"
       aria-label="u"
       transform="matrix(1.3333333,0,0,1.3333333,886.0454,187.08118)" />
    <path
       id="path78"
       d="m 6.8800095,-7.4524867 c 0.2226563,0.1640625 0.4101563,0.4101563 0.5976563,0.7265625 l 0.2226562,-0.984375 h 1.1953125 l -1.5,7.08984376 C 7.184697,0.35220081 6.8800095,1.1490758 6.4581345,1.7115758 5.684697,2.7662633 4.559697,3.3053258 3.0479783,3.3053258 c -0.84375,0 -1.5,-0.1992187 -1.9921875,-0.5625 -0.49218755,-0.375 -0.70312505,-0.9726562 -0.5976563,-1.76953124 h 1.3476563 c -0.023437,0.35156254 0.058594,0.62109374 0.1992187,0.80859374 0.234375,0.2929688 0.6796875,0.4335938 1.3007813,0.4335938 1.0078125,0 1.7460937,-0.3515625 2.203125,-1.0546875 C 5.778447,0.75063831 6.012822,6.383125e-4 6.2237595,-1.0657679 5.8839158,-0.67904919 5.5089158,-0.38608044 5.1104783,-0.19858044 4.6886033,6.383125e-4 4.184697,0.10610706 3.575322,0.10610706 c -0.8320312,0 -1.5234375,-0.3046875 -2.0273437,-0.890625 C 1.044072,-1.3938929 0.93860325,-2.3782679 1.231572,-3.7610804 c 0.2929688,-1.3007813 0.8085938,-2.3203125 1.6171875,-3.0585938 0.7851563,-0.7265625 1.6289063,-1.1015625 2.5195313,-1.1015625 0.6210937,0 1.125,0.1523438 1.5117187,0.46875 z m -1.5117187,0.6914063 c -0.9140625,0 -1.6289063,0.4335937 -2.15625,1.3007812 -0.28125,0.4570313 -0.5039063,1.0546875 -0.65625,1.8046875 -0.1875,0.8789063 -0.140625,1.546875 0.1054687,2.0039063 0.2578125,0.4570312 0.6914063,0.67968746 1.3007813,0.67968746 0.9375,0 1.6757812,-0.41015626 2.25,-1.26562496 0.3046875,-0.4804688 0.5273437,-1.03125 0.6679687,-1.6757813 0.2109375,-0.9726562 0.1640625,-1.6875 -0.140625,-2.1445312 -0.2929687,-0.4570313 -0.75,-0.703125 -1.3710937,-0.703125 z m 0,0"
       style="fill:#000000;fill-opacity:1;fill-rule:nonzero;stroke:none"
       aria-label="g"
       transform="matrix(1.3333333,0,0,1.3333333,901.6079,192.30774)" />
    <path
       id="path79"
       d="m 636.742,67.027 v 67.024"
       style="fill:none;stroke:#000000;stroke-width:0.9216;stroke-linecap:butt;stroke-linejoin:miter;stroke-miterlimit:3.25;stroke-dasharray:0.9216, 5.5296;stroke-dashoffset:0;stroke-opacity:1"
       transform="scale(1.3333333)" />
    <path
       id="path80"
       d="m 636.742,95.512 -3.351,10.054 h 6.703 z"
       style="fill:#000000;fill-opacity:1;fill-rule:evenodd;stroke:none"
       transform="scale(1.3333333)" />
    <path
       id="path81"
       d="M 5.5539678,-11.02744 3.995374,-3.691502 c -0.1289062,0.5507812 -0.1289062,1.0078125 -0.023437,1.3710937 0.1875,0.65625 0.7148438,0.984375 1.6289063,0.984375 1.2773437,0 2.296875,-0.5625 3.0117187,-1.7226562 0.3867183,-0.6210938 0.679687,-1.4765625 0.914062,-2.5546875 l 1.160156,-5.414063 h 1.851563 L 10.194593,-9.575e-5 H 8.448499 L 8.8000615,-1.629002 c -0.328125,0.421875 -0.6914062,0.78515625 -1.1132812,1.078125 -0.84375,0.57421875 -1.7578125,0.8671875 -2.765625,0.8671875 -1.5820313,0 -2.53125,-0.52734375 -2.8710938,-1.5820313 -0.1875,-0.5742187 -0.1875,-1.3125 0,-2.2617187 L 3.6555303,-11.02744 Z m 0,0"
       style="fill:#000000;fill-opacity:1;fill-rule:nonzero;stroke:none"
       aria-label="u"
       transform="matrix(1.3333333,0,0,1.3333333,859.54783,136.547)" />
    <path
       id="path82"
       d="m 6.8781865,-7.4532209 c 0.2226563,0.1640625 0.4101563,0.4101563 0.5976563,0.7265625 l 0.2226562,-0.984375 h 1.1953125 l -1.5,7.08984378 C 7.182874,0.35146663 6.8781865,1.1483416 6.4563115,1.7108416 5.682874,2.7655291 4.557874,3.3045916 3.0461553,3.3045916 c -0.84375,0 -1.5,-0.1992187 -1.9921875,-0.5625 -0.49218755,-0.375 -0.70312505,-0.9726562 -0.5976563,-1.76953122 h 1.3476563 c -0.023437,0.35156252 0.058594,0.62109372 0.1992187,0.80859372 0.234375,0.2929688 0.6796875,0.4335938 1.3007813,0.4335938 1.0078125,0 1.7460937,-0.3515625 2.203125,-1.0546875 C 5.776624,0.74990413 6.010999,-9.5875e-5 6.2219365,-1.0665021 5.8820928,-0.67978337 5.5070928,-0.38681462 5.1086553,-0.19931462 4.6867803,-9.5875e-5 4.182874,0.10537288 3.573499,0.10537288 c -0.8320312,0 -1.5234375,-0.3046875 -2.0273437,-0.890625 C 1.042249,-1.3946271 0.93678025,-2.3790021 1.229749,-3.7618146 c 0.2929688,-1.3007813 0.8085938,-2.3203125 1.6171875,-3.0585938 0.7851563,-0.7265625 1.6289063,-1.1015625 2.5195313,-1.1015625 0.6210937,0 1.125,0.1523438 1.5117187,0.46875 z m -1.5117187,0.6914063 c -0.9140625,0 -1.6289063,0.4335937 -2.15625,1.3007812 -0.28125,0.4570313 -0.5039063,1.0546875 -0.65625,1.8046875 -0.1875,0.8789063 -0.140625,1.546875 0.1054687,2.0039063 0.2578125,0.4570312 0.6914063,0.67968748 1.3007813,0.67968748 0.9375,0 1.6757812,-0.41015628 2.25,-1.26562498 0.3046875,-0.4804688 0.5273437,-1.03125 0.6679687,-1.6757813 0.2109375,-0.9726562 0.1640625,-1.6875 -0.140625,-2.1445312 -0.2929687,-0.4570313 -0.75,-0.703125 -1.3710937,-0.703125 z m 0,0"
       style="fill:#000000;fill-opacity:1;fill-rule:nonzero;stroke:none"
       aria-label="g"
       transform="matrix(1.3333333,0,0,1.3333333,875.11033,141.77357)" />
    <path
       id="path83"
       d="m 603.23,100.539 -0.808,-0.977 -0.602,-1.148 -0.351,-1.277 -0.082,-1.336 0.203,-1.332 0.472,-1.254 0.711,-1.113 0.915,-0.914 1.05,-0.692 1.141,-0.449 1.168,-0.211 h 1.141 l 1.062,0.18 0.949,0.32 0.801,0.41 0.625,0.469 0.426,0.48 0.219,0.465 0.003,0.426 -0.211,0.355 -0.417,0.278 -0.602,0.176 -0.758,0.054 -0.883,-0.086 -0.961,-0.242 -0.984,-0.422 -0.953,-0.613 -0.863,-0.801 -0.719,-0.988 -0.52,-1.145 -0.277,-1.257 -0.004,-1.317 0.27,-1.308 0.543,-1.235 0.789,-1.086 0.984,-0.89 1.125,-0.653 1.207,-0.39 1.231,-0.133 1.191,0.109 1.109,0.313 0.992,0.476 0.844,0.582 0.676,0.641 0.496,0.648 0.309,0.614 0.113,0.535 -0.078,0.437 -0.262,0.309 -0.437,0.172 -0.586,0.019 -0.711,-0.14 -0.793,-0.313 -0.828,-0.488 -0.813,-0.664 -0.738,-0.836 -0.609,-0.996 -0.426,-1.133 -0.199,-1.227 0.062,-1.281 0.336,-1.265 0.602,-1.188 0.847,-1.043 1.043,-0.848 1.192,-0.605 1.265,-0.332 1.278,-0.063 1.226,0.196 1.133,0.426 0.996,0.609 0.836,0.742 0.664,0.813 0.488,0.828 0.313,0.793 0.14,0.711 -0.019,0.586 -0.168,0.437 -0.313,0.262 -0.433,0.078 -0.539,-0.113 -0.614,-0.309 -0.648,-0.496 -0.641,-0.676 -0.582,-0.844 -0.476,-0.992 -0.313,-1.109 -0.109,-1.192 0.133,-1.23 0.39,-1.207 0.653,-1.125 0.89,-0.984 1.09,-0.79 1.231,-0.542 1.308,-0.274 1.317,0.008 1.257,0.277 1.145,0.52 0.988,0.719 0.805,0.863 0.609,0.953 0.422,0.984 0.242,0.961 0.086,0.883 -0.054,0.758 -0.176,0.601 -0.277,0.418 -0.356,0.211 -0.426,-0.004 -0.465,-0.218 -0.48,-0.426 -0.465,-0.625 -0.414,-0.801 -0.32,-0.949 -0.18,-1.063 v -1.14 l 0.211,-1.168 0.449,-1.141 0.692,-1.055 0.918,-0.91 1.109,-0.711 1.254,-0.472 1.332,-0.203 1.336,0.082 1.277,0.351 1.149,0.602 0.976,0.808"
       style="fill:none;stroke:#000000;stroke-width:0.9216;stroke-linecap:square;stroke-linejoin:miter;stroke-miterlimit:3.25;stroke-dasharray:none;stroke-opacity:1"
       transform="scale(1.3333333)" />
    <path
       id="path84"
       d="m 9.7604365,-10.582801 c 0.3164065,0.234375 0.5859375,0.5976558 0.8437505,1.0312495 l 0.316406,-1.3828125 H 12.63153 L 10.498718,-0.89139525 C 10.19403,0.503136 9.7604365,1.628136 9.1627803,2.425011 8.0612178,3.925011 6.455749,4.6867298 4.3229365,4.6867298 3.127624,4.6867298 2.190124,4.4171985 1.4987178,3.8898548 0.79559275,3.362511 0.502624,2.5070423 0.65496775,1.3703235 H 2.5534053 c -0.023437,0.5039063 0.082031,0.890625 0.2929687,1.1601563 0.3164063,0.3984375 0.9492188,0.609375 1.8398438,0.609375 1.4414062,0 2.4726562,-0.5039063 3.1289062,-1.4882813 0.375,-0.5976562 0.7148438,-1.65234375 1.0078125,-3.1757812 -0.4804687,0.5507812 -1.0078125,0.9726562 -1.5820312,1.2539062 -0.5859375,0.26953125 -1.3125,0.421875 -2.1796875,0.421875 -1.171875,0 -2.1445313,-0.421875 -2.8710938,-1.2773437 -0.7148437,-0.8554688 -0.8554687,-2.25 -0.4335937,-4.21875 0.3984375,-1.8398438 1.1367187,-3.2929688 2.2734375,-4.3242188 1.125,-1.042969 2.3203125,-1.570312 3.5976562,-1.570312 0.8554688,0 1.5820313,0.210937 2.1328125,0.65625 z M 7.627624,-9.5867077 c -1.3125,0 -2.3320312,0.609375 -3.0703125,1.8398437 -0.3984375,0.65625 -0.7148437,1.5 -0.9257812,2.5546875 -0.2695313,1.2421875 -0.2109375,2.1914063 0.1523437,2.8476563 0.3515625,0.65625 0.9609375,0.9726562 1.828125,0.9726562 1.3359375,0 2.390625,-0.5976562 3.1875,-1.7929687 0.4453125,-0.703125 0.7617188,-1.4765625 0.9609375,-2.390625 0.2929685,-1.3710938 0.2226563,-2.390625 -0.1992187,-3.0351563 -0.421875,-0.65625 -1.078125,-0.9960937 -1.9335938,-0.9960937 z m 0,0"
       style="fill:#000000;fill-opacity:1;fill-rule:nonzero;stroke:none"
       aria-label="g"
       transform="matrix(1.3333333,0,0,1.3333333,794.89233,90.391652)" />
    <path
       id="path85"
       d="M 670.254,100.539 C 670.215,82.047 655.234,67.062 636.742,67.027"
       style="fill:none;stroke:#000000;stroke-width:0.9216;stroke-linecap:butt;stroke-linejoin:miter;stroke-miterlimit:3.25;stroke-dasharray:0.9216, 5.5296;stroke-dashoffset:0;stroke-opacity:1"
       transform="scale(1.3333333)" />
    <path
       id="path86"
       d="m 663.973,80.414 -4.739,-9.476 -4.738,4.738 z"
       style="fill:#000000;fill-opacity:1;fill-rule:evenodd;stroke:none"
       transform="scale(1.3333333)" />
    <path
       id="path87"
       d="M 5.5557908,-11.028174 3.997197,-3.6922362 c -0.1289062,0.5507813 -0.1289062,1.0078125 -0.023437,1.3710938 0.1875,0.65625 0.7148438,0.984375 1.6289063,0.984375 1.2773437,0 2.296875,-0.5625 3.0117187,-1.7226563 0.3867188,-0.6210937 0.6796875,-1.4765625 0.9140625,-2.5546875 l 1.1601565,-5.4140628 h 1.851563 L 10.196416,-8.299375e-4 H 8.450322 L 8.8018845,-1.6297362 c -0.328125,0.421875 -0.6914062,0.78515626 -1.1132812,1.07812501 -0.84375,0.57421875 -1.7578125,0.8671875 -2.765625,0.8671875 -1.5820313,0 -2.53125,-0.52734375 -2.8710938,-1.58203121 -0.1875,-0.5742188 -0.1875,-1.3125 0,-2.2617188 l 1.6054688,-7.5000003 z m 0,0"
       style="fill:#000000;fill-opacity:1;fill-rule:nonzero;stroke:none"
       aria-label="u"
       transform="matrix(1.3333333,0,0,1.3333333,886.0454,86.012825)" />
    <path
       id="path88"
       d="m 6.8800095,-7.4539551 c 0.2226563,0.1640625 0.4101563,0.4101563 0.5976563,0.7265625 l 0.2226562,-0.984375 h 1.1953125 l -1.5,7.08984379 C 7.184697,0.35073244 6.8800095,1.1476074 6.4581345,1.7101074 5.684697,2.7647949 4.559697,3.3038574 3.0479783,3.3038574 c -0.84375,0 -1.5,-0.1992187 -1.9921875,-0.5625 -0.49218755,-0.375 -0.70312505,-0.9726562 -0.5976563,-1.76953121 h 1.3476563 c -0.023437,0.35156251 0.058594,0.62109371 0.1992187,0.80859371 0.234375,0.2929688 0.6796875,0.4335938 1.3007813,0.4335938 1.0078125,0 1.7460937,-0.3515625 2.203125,-1.0546875 C 5.778447,0.74916994 6.012822,-8.300625e-4 6.2237595,-1.0672363 5.8839158,-0.68051756 5.5089158,-0.38754881 5.1104783,-0.20004881 4.6886033,-8.300625e-4 4.184697,0.10463869 3.575322,0.10463869 c -0.8320312,0 -1.5234375,-0.3046875 -2.0273437,-0.890625 C 1.044072,-1.3953613 0.93860325,-2.3797363 1.231572,-3.7625488 c 0.2929688,-1.3007813 0.8085938,-2.3203125 1.6171875,-3.0585938 0.7851563,-0.7265625 1.6289063,-1.1015625 2.5195313,-1.1015625 0.6210937,0 1.125,0.1523438 1.5117187,0.46875 z m -1.5117187,0.6914063 c -0.9140625,0 -1.6289063,0.4335937 -2.15625,1.3007812 -0.28125,0.4570313 -0.5039063,1.0546875 -0.65625,1.8046875 -0.1875,0.8789063 -0.140625,1.546875 0.1054687,2.0039063 0.2578125,0.4570312 0.6914063,0.67968749 1.3007813,0.67968749 0.9375,0 1.6757812,-0.41015629 2.25,-1.26562499 0.3046875,-0.4804688 0.5273437,-1.03125 0.6679687,-1.6757813 0.2109375,-0.9726562 0.1640625,-1.6875 -0.140625,-2.1445312 -0.2929687,-0.4570313 -0.75,-0.703125 -1.3710937,-0.703125 z m 0,0"
       style="fill:#000000;fill-opacity:1;fill-rule:nonzero;stroke:none"
       aria-label="g"
       transform="matrix(1.3333333,0,0,1.3333333,901.6079,91.239388)" />
    <path
       id="path89"
       d="m 640.43,67.027 c 0,0.977 -0.391,1.914 -1.082,2.606 -0.692,0.691 -1.629,1.078 -2.606,1.078 -0.976,0 -1.914,-0.387 -2.605,-1.078 -0.692,-0.692 -1.082,-1.629 -1.082,-2.606 0,-0.98 0.39,-1.918 1.082,-2.609 0.691,-0.691 1.629,-1.078 2.605,-1.078 0.977,0 1.914,0.387 2.606,1.078 0.691,0.691 1.082,1.629 1.082,2.609 z"
       style="fill:#000000;fill-opacity:1;fill-rule:evenodd;stroke:none"
       transform="scale(1.3333333)" />
    <path
       id="path90"
       d="m 640.43,134.051 c 0,0.976 -0.391,1.914 -1.082,2.605 -0.692,0.692 -1.629,1.082 -2.606,1.082 -0.976,0 -1.914,-0.39 -2.605,-1.082 -0.692,-0.691 -1.082,-1.629 -1.082,-2.605 0,-0.977 0.39,-1.914 1.082,-2.606 0.691,-0.691 1.629,-1.082 2.605,-1.082 0.977,0 1.914,0.391 2.606,1.082 0.691,0.692 1.082,1.629 1.082,2.606 z"
       style="fill:#000000;fill-opacity:1;fill-rule:evenodd;stroke:none"
       transform="scale(1.3333333)" />
    <path
       id="path91"
       d="m 606.914,100.539 c 0,0.977 -0.387,1.914 -1.078,2.606 -0.691,0.691 -1.629,1.078 -2.606,1.078 -0.98,0 -1.918,-0.387 -2.609,-1.078 -0.691,-0.692 -1.078,-1.629 -1.078,-2.606 0,-0.98 0.387,-1.918 1.078,-2.609 0.691,-0.692 1.629,-1.078 2.609,-1.078 0.977,0 1.915,0.386 2.606,1.078 0.691,0.691 1.078,1.629 1.078,2.609 z"
       style="fill:#000000;fill-opacity:1;fill-rule:evenodd;stroke:none"
       transform="scale(1.3333333)" />
    <path
       id="path92"
       d="m 673.941,100.539 c 0,0.977 -0.39,1.914 -1.082,2.606 -0.691,0.691 -1.629,1.078 -2.605,1.078 -0.977,0 -1.914,-0.387 -2.606,-1.078 -0.691,-0.692 -1.082,-1.629 -1.082,-2.606 0,-0.98 0.391,-1.918 1.082,-2.609 0.692,-0.692 1.629,-1.078 2.606,-1.078 0.976,0 1.914,0.386 2.605,1.078 0.692,0.691 1.082,1.629 1.082,2.609 z"
       style="fill:#000000;fill-opacity:1;fill-rule:evenodd;stroke:none"
       transform="scale(1.3333333)" />
  </g>
</svg>
