<?xml version="1.0" encoding="UTF-8" standalone="no"?>
<!-- Created with Inkscape (http://www.inkscape.org/) -->

<svg
   version="1.1"
   id="svg2"
   width="492"
   height="246.66667"
   viewBox="0 0 492 246.66667"
   sodipodi:docname="00ul6x2tjp5hd.pdf"
   xmlns:inkscape="http://www.inkscape.org/namespaces/inkscape"
   xmlns:sodipodi="http://sodipodi.sourceforge.net/DTD/sodipodi-0.dtd"
   xmlns="http://www.w3.org/2000/svg"
   xmlns:svg="http://www.w3.org/2000/svg">
  <defs
     id="defs6">
    <clipPath
       clipPathUnits="userSpaceOnUse"
       id="clipPath44">
      <path
         d="m 80,172 h 5 v 12.32 h -5 z"
         id="path42" />
    </clipPath>
  </defs>
  <sodipodi:namedview
     id="namedview4"
     pagecolor="#ffffff"
     bordercolor="#999999"
     borderopacity="1"
     inkscape:showpageshadow="0"
     inkscape:pageopacity="0"
     inkscape:pagecheckerboard="0"
     inkscape:deskcolor="#d1d1d1" />
  <g
     id="g8"
     inkscape:groupmode="layer"
     inkscape:label="00ul6x2tjp5hd"
     transform="matrix(1.3333333,0,0,1.3333333,0,9.5e-6)">
    <g
       id="g10">
      <path
         d="M 0,100.539 H 92.16"
         style="fill:none;stroke:#000000;stroke-width:0.9216;stroke-linecap:butt;stroke-linejoin:miter;stroke-miterlimit:3.25;stroke-dasharray:0.9216, 5.5296;stroke-dashoffset:0;stroke-opacity:1"
         id="path12" />
      <path
         d="m 51.105,100.539 -10.05,3.352 v -6.703 z"
         style="fill:#000000;fill-opacity:1;fill-rule:evenodd;stroke:none"
         id="path14" />
      <text
         xml:space="preserve"
         transform="translate(32.08,128.41036)"
         style="font-variant:normal;font-size:21.12px;font-family:CairoFont-0;-inkscape-font-specification:CairoFont-0-0;writing-mode:lr-tb;fill:#000000;fill-opacity:1;fill-rule:nonzero;stroke:none"
         id="text18"><tspan
           x="0 11.74272"
           y="0"
           sodipodi:role="line"
           id="tspan16">uG</tspan></text>
      <path
         d="m 92.16,100.539 0.485,-1.223 0.699,-1.128 0.89,-0.981 1.063,-0.801 1.191,-0.586 1.278,-0.351 1.324,-0.114 1.316,0.125 1.258,0.352 1.156,0.543 1.016,0.699 0.836,0.821 0.637,0.878 0.421,0.891 0.2,0.852 -0.012,0.754 -0.207,0.613 -0.379,0.429 -0.512,0.219 -0.597,-0.015 -0.645,-0.254 -0.64,-0.496 -0.583,-0.715 -0.484,-0.914 -0.344,-1.075 -0.168,-1.187 0.032,-1.258 0.25,-1.269 0.468,-1.227 0.68,-1.137 0.879,-0.992 1.051,-0.816 1.183,-0.602 1.274,-0.371 1.32,-0.133 1.316,0.11 1.266,0.332 1.168,0.531 1.024,0.691 0.855,0.809 0.652,0.879 0.438,0.894 0.215,0.852 0.004,0.766 -0.196,0.625 -0.367,0.445 -0.5,0.234 -0.594,0.004 -0.644,-0.238 -0.641,-0.477 -0.59,-0.699 -0.492,-0.898 -0.355,-1.067 -0.184,-1.179 0.016,-1.254 0.234,-1.27 0.449,-1.234 0.668,-1.141 0.864,-1.008 1.039,-0.832 1.175,-0.617 1.27,-0.39 1.316,-0.149 1.321,0.094 1.269,0.316 1.176,0.516 1.039,0.68 0.867,0.804 0.668,0.875 0.453,0.891 0.235,0.859 0.015,0.774 -0.179,0.636 -0.356,0.461 -0.492,0.25 -0.59,0.024 -0.64,-0.223 -0.641,-0.457 -0.598,-0.684 -0.5,-0.886 -0.367,-1.051 -0.195,-1.176 v -1.25 l 0.215,-1.269 0.433,-1.239 0.653,-1.152 0.851,-1.02 1.023,-0.843 1.168,-0.637 1.262,-0.406 1.32,-0.164 1.321,0.07 1.273,0.301 1.184,0.504 1.051,0.672 0.879,0.793 0.687,0.871 0.469,0.894 0.25,0.863 0.035,0.782 -0.168,0.648 -0.344,0.473 -0.48,0.269 -0.586,0.039 -0.637,-0.199 -0.644,-0.441 -0.602,-0.668 -0.512,-0.875 -0.379,-1.039 -0.207,-1.168 -0.015,-1.246 0.199,-1.27 0.418,-1.242 0.637,-1.16 0.836,-1.031 1.011,-0.856 1.157,-0.656 1.257,-0.422 1.317,-0.188 1.32,0.059 1.281,0.281 1.196,0.489 1.058,0.66 0.895,0.789 0.699,0.867 0.488,0.895 0.266,0.867 0.051,0.789 -0.153,0.656 -0.332,0.492 -0.472,0.285 -0.578,0.055 -0.637,-0.18 -0.645,-0.425 -0.605,-0.653 -0.52,-0.855 -0.39,-1.031 -0.223,-1.161 -0.031,-1.238 0.183,-1.273 0.403,-1.246 0.621,-1.168 0.82,-1.039 1,-0.875 1.148,-0.668 1.254,-0.442 1.309,-0.203 1.324,0.039 1.285,0.266 1.204,0.472 1.07,0.649 0.91,0.781 0.715,0.863 0.5,0.895 0.285,0.871 0.066,0.793 -0.14,0.672 -0.317,0.504 -0.465,0.3 -0.57,0.075 -0.633,-0.164 -0.648,-0.403 -0.609,-0.636 -0.528,-0.844 -0.402,-1.016 -0.234,-1.152 -0.047,-1.238 0.168,-1.27 0.382,-1.25 0.606,-1.176 0.808,-1.05 0.989,-0.887 1.136,-0.688 1.247,-0.461 1.308,-0.218 1.324,0.019 1.289,0.25 1.211,0.461 1.082,0.637 0.922,0.769 0.731,0.86 0.519,0.894 0.297,0.875 0.082,0.801 -0.121,0.684 -0.305,0.515 -0.457,0.321 -0.562,0.089 -0.633,-0.144 -0.644,-0.387 -0.618,-0.621 -0.535,-0.828 -0.41,-1.004 -0.25,-1.145 -0.062,-1.23 0.152,-1.27 0.367,-1.253 0.59,-1.184 0.793,-1.063 0.976,-0.902 1.125,-0.699 1.239,-0.481 1.308,-0.238 1.325,0.004 1.292,0.234"
         style="fill:none;stroke:#000000;stroke-width:0.9216;stroke-linecap:square;stroke-linejoin:miter;stroke-miterlimit:3.25;stroke-dasharray:none;stroke-opacity:1"
         id="path20" />
      <text
         xml:space="preserve"
         transform="translate(116.05979,68.573511)"
         style="font-variant:normal;font-size:21.12px;font-family:CairoFont-1;-inkscape-font-specification:CairoFont-1-0;writing-mode:lr-tb;fill:#000000;fill-opacity:1;fill-rule:nonzero;stroke:none"
         id="text24"><tspan
           x="0"
           y="0"
           id="tspan22">g</tspan></text>
      <path
         d="M 167.562,142.43 92.16,100.539"
         style="fill:none;stroke:#000000;stroke-width:0.9216;stroke-linecap:butt;stroke-linejoin:miter;stroke-miterlimit:3.25;stroke-dasharray:0.9216, 5.5296;stroke-dashoffset:0;stroke-opacity:1"
         id="path26" />
      <path
         d="m 134.258,123.926 -7.164,-7.813 -3.254,5.86 z"
         style="fill:#000000;fill-opacity:1;fill-rule:evenodd;stroke:none"
         id="path28" />
      <text
         xml:space="preserve"
         transform="translate(100.62229,147.7216)"
         style="font-variant:normal;font-size:21.12px;font-family:CairoFont-0;-inkscape-font-specification:CairoFont-0-0;writing-mode:lr-tb;fill:#000000;fill-opacity:1;fill-rule:nonzero;stroke:none"
         id="text32"><tspan
           x="0 11.74272"
           y="0"
           sodipodi:role="line"
           id="tspan30">uG</tspan></text>
      <path
         d="m 87.973,104.727 8.375,-8.379"
         style="fill:none;stroke:#000000;stroke-width:2.7648;stroke-linecap:square;stroke-linejoin:miter;stroke-miterlimit:3.25;stroke-dasharray:none;stroke-opacity:1"
         id="path34" />
      <path
         d="m 87.973,96.348 8.375,8.379"
         style="fill:none;stroke:#000000;stroke-width:2.7648;stroke-linecap:square;stroke-linejoin:miter;stroke-miterlimit:3.25;stroke-dasharray:none;stroke-opacity:1"
         id="path36" />
    </g>
    <g
       id="g38">
      <g
         id="g40"
         clip-path="url(#clipPath44)">
        <text
           xml:space="preserve"
           transform="translate(79.055256,184.68097)"
           style="font-variant:normal;font-size:16.8px;font-family:CairoFont-0;-inkscape-font-specification:CairoFont-0-0;writing-mode:lr-tb;fill:#000000;fill-opacity:1;fill-rule:nonzero;stroke:none"
           id="text48"><tspan
             x="0"
             y="0"
             id="tspan46">1</tspan></text>
      </g>
    </g>
  </g>
</svg>
