<?xml version="1.0" encoding="UTF-8" standalone="no"?>
<!-- Created with Inkscape (http://www.inkscape.org/) -->

<svg
   version="1.1"
   id="svg1"
   width="492"
   height="124"
   viewBox="0 0 492 124"
   sodipodi:docname="02u6eq4qf9sd8.pdf"
   xmlns:inkscape="http://www.inkscape.org/namespaces/inkscape"
   xmlns:sodipodi="http://sodipodi.sourceforge.net/DTD/sodipodi-0.dtd"
   xmlns="http://www.w3.org/2000/svg"
   xmlns:svg="http://www.w3.org/2000/svg">
  <defs
     id="defs1">
    <clipPath
       clipPathUnits="userSpaceOnUse"
       id="clipPath5">
      <path
         d="m 59,38 h 7.961 v 9 H 59 Z"
         transform="translate(-59.695741,-43.840813)"
         id="path5" />
    </clipPath>
    <clipPath
       clipPathUnits="userSpaceOnUse"
       id="clipPath9">
      <path
         d="m 39,86 h 5 v 6.16 h -5 z"
         transform="translate(-39.67216,-92.45767)"
         id="path9" />
    </clipPath>
  </defs>
  <sodipodi:namedview
     id="namedview1"
     pagecolor="#ffffff"
     bordercolor="#999999"
     borderopacity="1"
     inkscape:showpageshadow="0"
     inkscape:pageopacity="0"
     inkscape:pagecheckerboard="0"
     inkscape:deskcolor="#d1d1d1">
    <inkscape:page
       x="0"
       y="0"
       id="page1"
       width="492"
       height="124"
       margin="0"
       bleed="0" />
  </sodipodi:namedview>
  <g
     id="g1"
     inkscape:groupmode="layer"
     inkscape:label="">
    <path
       id="path1"
       d="m 41.891,50.27 -0.516,0.425 -0.59,0.328 -0.64,0.211 -0.668,0.082 -0.672,-0.05 -0.653,-0.176 -0.605,-0.297 -0.539,-0.402 -0.449,-0.485 -0.356,-0.543 -0.246,-0.57 -0.133,-0.57 -0.027,-0.543 0.07,-0.481 0.156,-0.398 0.223,-0.293 0.266,-0.172 0.289,-0.043 0.285,0.086 0.254,0.219 0.203,0.328 0.125,0.429 0.039,0.508 -0.062,0.551 -0.172,0.578 -0.285,0.563 -0.387,0.527 -0.485,0.457 -0.562,0.371 -0.621,0.254 -0.664,0.137 -0.672,0.004 -0.664,-0.129 -0.625,-0.254 -0.567,-0.363 -0.488,-0.454 -0.391,-0.523 -0.289,-0.562 -0.179,-0.575 -0.067,-0.558 0.032,-0.508 0.125,-0.434 0.199,-0.336 0.254,-0.218 0.281,-0.098 0.289,0.039 0.27,0.168 0.226,0.285 0.156,0.395 0.079,0.476 -0.024,0.539 -0.129,0.571 -0.242,0.574 -0.348,0.543 -0.449,0.488 -0.531,0.406 -0.602,0.305 -0.652,0.18 -0.672,0.054 -0.668,-0.074 -0.644,-0.207 -0.59,-0.32 -0.52,-0.422 -0.433,-0.5 -0.329,-0.551 -0.222,-0.574 -0.11,-0.566 -0.007,-0.532 0.089,-0.465 0.176,-0.375 0.231,-0.269 0.277,-0.145 0.289,-0.015 0.277,0.117 0.247,0.242 0.187,0.356 0.109,0.445 0.02,0.519 -0.09,0.563 -0.195,0.574 -0.309,0.559 -0.41,0.515 -0.5,0.438 -0.578,0.348 -0.633,0.23 -0.668,0.105 -0.672,-0.027 -0.656,-0.152 -0.617,-0.278 -0.551,-0.386 -0.465,-0.473 -0.371,-0.535 -0.265,-0.566 -0.153,-0.575 -0.047,-0.547 0.055,-0.496 0.141,-0.414 0.214,-0.312 0.262,-0.192 0.285,-0.066 0.285,0.066 0.262,0.192 0.215,0.312 0.141,0.414 0.054,0.496 -0.047,0.547 -0.152,0.575 -0.265,0.566 -0.368,0.535 -0.468,0.473 -0.551,0.386 -0.613,0.278 -0.657,0.152 -0.676,0.027 -0.667,-0.105 -0.633,-0.23 -0.578,-0.348 -0.5,-0.438 -0.411,-0.515 -0.308,-0.559 -0.196,-0.574 -0.085,-0.563 0.015,-0.519 0.11,-0.445 0.187,-0.356 0.246,-0.242 0.277,-0.117 0.29,0.015 0.277,0.145 0.234,0.269 0.172,0.375 0.09,0.465 -0.004,0.532 -0.113,0.566 -0.223,0.574 -0.328,0.551 -0.43,0.5 -0.523,0.422 -0.59,0.32 -0.644,0.207 -0.668,0.074 -0.672,-0.054 -0.653,-0.18 -0.601,-0.305 -0.531,-0.406 -0.45,-0.488 L 9.848,49.34 9.605,48.766 9.477,48.195 9.453,47.656 9.531,47.18 9.691,46.785 9.914,46.5 l 0.27,-0.168 0.289,-0.039 0.281,0.098 0.254,0.218 0.199,0.336 0.125,0.434 0.031,0.508 -0.066,0.558 -0.18,0.575 -0.289,0.562 -0.39,0.523 L 9.949,50.559 9.383,50.922 8.758,51.176 8.094,51.305 7.422,51.301 6.762,51.164 6.137,50.91 5.574,50.539 5.09,50.082 4.703,49.555 4.418,48.992 4.246,48.414 4.184,47.863 4.223,47.355 4.352,46.926 4.551,46.598 4.805,46.379 5.09,46.293 l 0.289,0.043 0.266,0.172 0.222,0.293 0.156,0.398 0.071,0.481 -0.028,0.543 -0.132,0.57 -0.246,0.57 L 5.332,49.906 4.883,50.391 4.344,50.793 3.738,51.09 3.09,51.266 2.414,51.316 1.746,51.234 1.105,51.023 0.516,50.695 0,50.27"
       style="fill:none;stroke:#000000;stroke-width:0.4608;stroke-linecap:square;stroke-linejoin:miter;stroke-miterlimit:3.25;stroke-dasharray:none;stroke-opacity:1"
       transform="scale(1.3333333)" />
    <path
       id="path2"
       d="m 4.8738809,-5.2852606 c 0.1640625,0.1171875 0.2929688,0.2929687 0.421875,0.515625 l 0.1640625,-0.703125 h 0.8554688 l -1.0664063,5.02734373 c -0.1523437,0.703125 -0.375,1.25390625 -0.6679687,1.66406247 -0.5507813,0.75 -1.3476563,1.125 -2.4140625,1.125 -0.609375,0 -1.0664063,-0.140625 -1.41796876,-0.3984375 C 0.39731844,1.6756769 0.25669344,1.2538019 0.32700594,0.69130188 H 1.2762247 c -0.011719,0.24609375 0.046875,0.43359372 0.1523437,0.57421872 0.1523438,0.1992188 0.46875,0.3046875 0.9140625,0.3046875 0.7148438,0 1.2304688,-0.2460937 1.5585938,-0.74999997 0.1992187,-0.29296875 0.3632812,-0.820312505 0.515625,-1.58203125 -0.2460938,0.28125 -0.515625,0.4921875 -0.796875,0.62109375 -0.2929688,0.140624995 -0.65625,0.2109375 -1.0898438,0.2109375 -0.5859375,0 -1.078125,-0.2109375 -1.4296875,-0.6328125 C 0.73716219,-0.99619812 0.66684969,-1.6876044 0.87778719,-2.6719794 1.0770059,-3.5860419 1.4402872,-4.3243231 2.0145059,-4.8399481 c 0.5625,-0.515625 1.1601563,-0.7734375 1.7929688,-0.7734375 0.4335937,0 0.796875,0.1054687 1.0664062,0.328125 z m -1.0664062,0.4921875 c -0.65625,0 -1.1601563,0.3046875 -1.5234375,0.9140625 -0.2109375,0.328125 -0.3632813,0.75 -0.46875,1.2773437 -0.140625,0.6328125 -0.1054688,1.1015625 0.070312,1.4296875 0.1875,0.32812503 0.4921875,0.48046878 0.9257812,0.48046878 0.65625,0 1.1835938,-0.29296875 1.59375,-0.89062498 0.2226563,-0.3515625 0.375,-0.7382813 0.46875,-1.1953125 0.1523438,-0.6914063 0.1171875,-1.1953125 -0.09375,-1.5234375 -0.2109375,-0.328125 -0.5390625,-0.4921875 -0.9726557,-0.4921875 z m 0,0"
       style="fill:#000000;fill-opacity:1;fill-rule:nonzero;stroke:none"
       aria-label="g"
       transform="matrix(1.3333333,0,0,1.3333333,23.739773,86.242327)" />
    <path
       id="path3"
       d="m 41.891,50.27 0.515,-0.426 0.59,-0.328 0.641,-0.211 0.668,-0.082 0.675,0.047 0.649,0.179 0.605,0.297 0.539,0.402 0.45,0.485 0.355,0.539 0.246,0.574 0.133,0.57 0.027,0.539 -0.07,0.485 -0.156,0.398 -0.223,0.293 -0.265,0.172 -0.29,0.043 -0.281,-0.09 -0.258,-0.215 -0.199,-0.332 -0.129,-0.425 -0.039,-0.508 0.063,-0.555 0.172,-0.574 0.285,-0.567 0.386,-0.523 0.485,-0.461 0.562,-0.367 0.625,-0.258 0.66,-0.133 0.672,-0.004 0.664,0.129 0.625,0.25 0.567,0.364 0.488,0.457 0.391,0.523 0.289,0.563 0.18,0.574 0.07,0.558 -0.035,0.508 -0.125,0.434 -0.2,0.336 -0.253,0.218 -0.282,0.094 -0.289,-0.035 -0.269,-0.168 -0.223,-0.285 -0.16,-0.395 -0.078,-0.48 0.023,-0.535 0.133,-0.571 0.238,-0.574 0.348,-0.543 0.449,-0.488 0.531,-0.406 0.606,-0.305 0.648,-0.184 0.672,-0.054 0.668,0.078 0.645,0.203 0.59,0.324 0.523,0.422 0.43,0.5 0.328,0.551 0.222,0.574 0.114,0.567 0.004,0.531 -0.09,0.465 -0.172,0.375 -0.234,0.269 -0.278,0.145 -0.289,0.011 -0.277,-0.113 -0.246,-0.242 -0.188,-0.356 -0.109,-0.449 -0.016,-0.515 0.086,-0.563 0.195,-0.574 0.309,-0.559 0.41,-0.515 0.5,-0.442 0.578,-0.344 0.637,-0.23 0.664,-0.105 0.676,0.023 0.656,0.156 0.613,0.278 0.551,0.386 0.469,0.473 0.367,0.531 0.266,0.571 0.156,0.574 0.043,0.547 -0.055,0.496 -0.14,0.414 -0.215,0.308 -0.262,0.196 -0.285,0.066 -0.285,-0.066 -0.262,-0.196 -0.215,-0.308 -0.14,-0.414 -0.055,-0.496 0.047,-0.547 0.152,-0.574 0.266,-0.571 0.371,-0.531 0.465,-0.473 0.55,-0.386 0.618,-0.278 0.656,-0.156 0.672,-0.023 0.668,0.105 0.633,0.23 0.578,0.344 0.5,0.442 0.41,0.515 0.308,0.559 0.196,0.574 0.09,0.563 -0.02,0.515 -0.109,0.449 -0.188,0.356 -0.246,0.242 -0.277,0.113 -0.289,-0.011 -0.274,-0.145 -0.234,-0.269 -0.172,-0.375 -0.094,-0.465 0.008,-0.531 0.109,-0.567 0.223,-0.574 0.328,-0.551 0.434,-0.5 0.519,-0.422 0.59,-0.324 0.645,-0.203 0.668,-0.078 0.672,0.054 0.652,0.184 0.601,0.305 0.536,0.406 0.445,0.488 0.348,0.543 0.242,0.574 0.129,0.571 0.023,0.535 -0.078,0.48 -0.156,0.395 -0.227,0.285 -0.269,0.168 -0.289,0.035 -0.282,-0.094 -0.254,-0.218 -0.199,-0.336 -0.125,-0.434 -0.031,-0.508 0.066,-0.558 0.18,-0.574 0.289,-0.563 0.391,-0.523 0.488,-0.457 0.566,-0.364 0.625,-0.25 0.665,-0.129 0.671,0.004 0.664,0.133 0.622,0.258 0.562,0.367 0.484,0.461 0.387,0.523 0.285,0.567 0.172,0.574 0.063,0.555 -0.036,0.508 -0.128,0.425 -0.204,0.332 -0.253,0.215 -0.286,0.09 -0.289,-0.043 -0.265,-0.172 -0.223,-0.293 -0.156,-0.398 -0.07,-0.485 0.027,-0.539 0.137,-0.57 0.242,-0.574 0.355,-0.539 0.449,-0.485 0.54,-0.402 0.605,-0.297 0.652,-0.179 0.672,-0.047 0.668,0.082 0.641,0.211 0.59,0.328 0.515,0.426"
       style="fill:none;stroke:#000000;stroke-width:0.4608;stroke-linecap:square;stroke-linejoin:miter;stroke-miterlimit:3.25;stroke-dasharray:none;stroke-opacity:1"
       transform="scale(1.3333333)" />
    <path
       id="path4"
       d="m 4.8745735,-5.2861245 c 0.1640625,0.1171875 0.2929687,0.2929688 0.421875,0.515625 l 0.1640625,-0.703125 h 0.8554687 l -1.0664062,5.02734375 c -0.1523438,0.703125 -0.375,1.25390625 -0.6679688,1.66406255 -0.5507812,0.75 -1.3476562,1.125 -2.4140625,1.125 -0.609375,0 -1.0664062,-0.140625 -1.4179687,-0.3984375 C 0.398011,1.674813 0.257386,1.252938 0.3276985,0.690438 h 0.9492187 c -0.011719,0.24609375 0.046875,0.4335938 0.1523438,0.5742188 0.1523437,0.1992187 0.46875,0.3046875 0.9140625,0.3046875 0.7148437,0 1.2304687,-0.2460938 1.5585937,-0.75000005 0.1992188,-0.29296875 0.3632813,-0.8203125 0.515625,-1.58203125 -0.2460937,0.28125 -0.515625,0.4921875 -0.796875,0.62109375 -0.2929687,0.140625 -0.65625,0.2109375 -1.0898437,0.2109375 -0.5859375,0 -1.078125,-0.2109375 -1.4296875,-0.6328125 C 0.73785475,-0.997062 0.66754225,-1.6884682 0.87847975,-2.6728432 1.0776985,-3.5869057 1.4409797,-4.325187 2.0151985,-4.840812 c 0.5625,-0.515625 1.1601562,-0.7734375 1.7929687,-0.7734375 0.4335938,0 0.796875,0.1054688 1.0664063,0.328125 z M 3.8081672,-4.793937 c -0.65625,0 -1.1601562,0.3046875 -1.5234375,0.9140625 -0.2109375,0.328125 -0.3632812,0.75 -0.46875,1.2773438 -0.140625,0.6328125 -0.1054687,1.1015625 0.070312,1.4296875 0.1875,0.32812495 0.4921875,0.4804687 0.9257813,0.4804687 0.65625,0 1.1835937,-0.29296875 1.59375,-0.890625 0.2226562,-0.3515625 0.375,-0.7382812 0.46875,-1.1953125 C 5.0269172,-3.4697182 4.991761,-3.9736245 4.7808235,-4.3017495 4.569886,-4.6298745 4.241761,-4.793937 3.8081672,-4.793937 Z m 0,0"
       style="fill:#000000;fill-opacity:1;fill-rule:nonzero;stroke:none"
       aria-label="g"
       transform="matrix(1.3333333,0,0,1.3333333,79.594319,58.454416)"
       clip-path="url(#clipPath5)" />
    <path
       id="path6"
       d="m 39.797,52.363 4.187,-4.187"
       style="fill:none;stroke:#000000;stroke-width:1.3824;stroke-linecap:square;stroke-linejoin:miter;stroke-miterlimit:3.25;stroke-dasharray:none;stroke-opacity:1"
       transform="scale(1.3333333)" />
    <path
       id="path7"
       d="m 39.797,48.176 4.187,4.187"
       style="fill:none;stroke:#000000;stroke-width:1.3824;stroke-linecap:square;stroke-linejoin:miter;stroke-miterlimit:3.25;stroke-dasharray:none;stroke-opacity:1"
       transform="scale(1.3333333)" />
    <path
       id="path8"
       d="m 1.0299894,-1.4996622 c 0.046875,0.421875 0.2460938,0.71484376 0.5859375,0.87890626 0.1757813,0.0820313 0.3867188,0.12890625 0.609375,0.12890625 0.4335938,0 0.7617188,-0.140625 0.9726563,-0.421875 0.2109375,-0.28125001 0.3164062,-0.58593751 0.3164062,-0.92578121 0,-0.4101563 -0.1171875,-0.7265625 -0.375,-0.9609375 -0.2460937,-0.2109375 -0.5507812,-0.328125 -0.9023437,-0.328125 -0.2578125,0 -0.46875,0.046875 -0.6445313,0.140625 -0.1875,0.1054687 -0.3398437,0.2460937 -0.4804687,0.421875 l -0.63281251,-0.046875 0.4453125,-3.1640625 H 3.9831144 v 0.7148437 H 1.4753019 l -0.2460937,1.6289063 c 0.140625,-0.09375 0.2695312,-0.1757813 0.3867187,-0.234375 0.2226563,-0.082031 0.4804688,-0.1289063 0.7617188,-0.1289063 0.5390625,0 0.9960937,0.1757813 1.3710937,0.515625 0.375,0.3515625 0.5625,0.796875 0.5625,1.3359375 0,0.5507813 -0.1757812,1.04296876 -0.515625,1.45312501 -0.3398437,0.43359375 -0.890625,0.64453125 -1.640625,0.64453125 -0.4804687,0 -0.9023437,-0.140625 -1.27734371,-0.41015625 -0.36328125,-0.2578125 -0.5625,-0.6796875 -0.609375,-1.24218751 z m 0,0"
       style="fill:#000000;fill-opacity:1;fill-rule:nonzero;stroke:none"
       aria-label="5"
       transform="matrix(1.3333333,0,0,1.3333333,52.896212,123.27689)"
       clip-path="url(#clipPath9)" />
  </g>
</svg>
