<?xml version="1.0" encoding="UTF-8" standalone="no"?>
<!-- Created with Inkscape (http://www.inkscape.org/) -->

<svg
   version="1.1"
   id="svg1"
   width="492"
   height="492"
   viewBox="0 0 492 492"
   sodipodi:docname="0921g3y0d2lml.pdf"
   xmlns:inkscape="http://www.inkscape.org/namespaces/inkscape"
   xmlns:sodipodi="http://sodipodi.sourceforge.net/DTD/sodipodi-0.dtd"
   xmlns="http://www.w3.org/2000/svg"
   xmlns:svg="http://www.w3.org/2000/svg">
  <defs
     id="defs1">
    <clipPath
       clipPathUnits="userSpaceOnUse"
       id="clipPath23">
      <path
         d="m 136,257 h 14.961 v 16 H 136 Z"
         transform="translate(-134.96144,-272.20476)"
         id="path23" />
    </clipPath>
    <clipPath
       clipPathUnits="userSpaceOnUse"
       id="clipPath35">
      <path
         d="m 79,357 h 9 v 11.641 h -9 z"
         transform="translate(-79.055259,-369.00098)"
         id="path35" />
    </clipPath>
    <clipPath
       clipPathUnits="userSpaceOnUse"
       id="clipPath47">
      <path
         d="m 263,357 h 10 v 11.641 h -10 z"
         transform="translate(-263.37526,-369.00098)"
         id="path47" />
    </clipPath>
  </defs>
  <sodipodi:namedview
     id="namedview1"
     pagecolor="#ffffff"
     bordercolor="#999999"
     borderopacity="1"
     inkscape:showpageshadow="0"
     inkscape:pageopacity="0"
     inkscape:pagecheckerboard="0"
     inkscape:deskcolor="#d1d1d1">
    <inkscape:page
       x="0"
       y="0"
       id="page1"
       width="492"
       height="492"
       margin="0"
       bleed="0" />
  </sodipodi:namedview>
  <g
     id="g1"
     inkscape:groupmode="layer"
     inkscape:label="">
    <path
       id="path1"
       d="m 83.781,100.539 -1.031,0.852 -1.18,0.652 -1.281,0.422 -1.34,0.168 -1.344,-0.098 -1.3,-0.355 -1.211,-0.594 -1.074,-0.805 -0.907,-0.969 -0.703,-1.082 -0.492,-1.144 -0.27,-1.145 -0.054,-1.078 0.14,-0.965 0.313,-0.796 0.441,-0.586 0.535,-0.344 0.579,-0.086 0.566,0.176 0.512,0.429 0.402,0.664 0.258,0.856 0.078,1.012 -0.129,1.109 -0.348,1.148 -0.562,1.133 -0.777,1.051 -0.969,0.918 -1.125,0.734 -1.246,0.516 -1.321,0.27 -1.351,0.003 -1.324,-0.253 -1.25,-0.504 -1.133,-0.727 -0.977,-0.91 -0.785,-1.047 -0.574,-1.129 -0.356,-1.148 -0.14,-1.114 0.07,-1.015 0.246,-0.867 0.399,-0.672 0.504,-0.442 0.566,-0.187 0.578,0.074 0.539,0.332 0.449,0.574 0.321,0.789 0.148,0.957 -0.043,1.075 -0.262,1.14 -0.48,1.149 -0.695,1.086 -0.895,0.976 -1.066,0.813 -1.207,0.605 -1.297,0.367 -1.344,0.11 -1.34,-0.157 -1.285,-0.406 -1.187,-0.644 -1.04,-0.844 -0.863,-1 -0.66,-1.102 -0.441,-1.148 -0.223,-1.133 -0.012,-1.062 0.184,-0.93 0.344,-0.754 0.468,-0.535 0.547,-0.289 0.582,-0.028 0.559,0.231 0.488,0.484 0.375,0.707 0.219,0.899 0.035,1.035 -0.176,1.125 -0.394,1.148 -0.61,1.118 -0.82,1.027 -1.004,0.883 -1.156,0.691 -1.27,0.461 -1.332,0.211 -1.347,-0.051 -1.313,-0.312 -1.23,-0.555 -1.098,-0.769 -0.937,-0.946 -0.743,-1.066 -0.527,-1.141 -0.309,-1.144 -0.089,-1.098 0.109,-0.988 0.285,-0.828 0.426,-0.622 0.519,-0.39 0.575,-0.129 0.574,0.129 0.523,0.39 0.422,0.622 0.285,0.828 0.11,0.988 -0.09,1.098 -0.309,1.144 -0.527,1.141 -0.742,1.066 -0.934,0.946 -1.101,0.769 -1.231,0.555 -1.312,0.312 -1.348,0.051 -1.332,-0.211 -1.266,-0.461 -1.156,-0.691 -1.004,-0.883 -0.82,-1.027 -0.613,-1.118 -0.395,-1.148 -0.176,-1.125 0.035,-1.035 0.219,-0.899 0.375,-0.707 0.488,-0.484 0.563,-0.231 0.578,0.028 0.547,0.289 0.469,0.535 0.343,0.754 0.184,0.93 -0.012,1.062 -0.222,1.133 -0.442,1.148 -0.66,1.102 -0.863,1 -1.039,0.844 -1.184,0.644 -1.289,0.406 -1.34,0.157 -1.344,-0.11 -1.296,-0.367 -1.204,-0.605 -1.07,-0.813 -0.894,-0.976 -0.696,-1.086 -0.48,-1.149 -0.262,-1.14 -0.043,-1.075 0.149,-0.957 0.32,-0.789 0.449,-0.574 0.539,-0.332 0.578,-0.074 0.567,0.187 0.504,0.442 0.398,0.672 0.25,0.867 0.066,1.015 -0.136,1.114 -0.36,1.148 -0.574,1.129 -0.785,1.047 -0.977,0.91 -1.132,0.727 -1.25,0.504 -1.325,0.253 -1.351,-0.003 -1.32,-0.27 -1.247,-0.516 -1.125,-0.734 L 10.18,100.164 9.406,99.113 8.84,97.98 8.492,96.832 8.367,95.723 l 0.074,-1.012 0.258,-0.856 0.403,-0.664 0.511,-0.429 0.567,-0.176 0.578,0.086 0.535,0.344 0.445,0.586 0.309,0.796 0.144,0.965 -0.058,1.078 -0.27,1.145 -0.488,1.144 -0.707,1.082 -0.906,0.969 -1.074,0.805 -1.211,0.594 -1.301,0.355 -1.344,0.098 -1.34,-0.168 -1.281,-0.422 -1.18,-0.652 L 0,100.539"
       style="fill:none;stroke:#000000;stroke-width:0.9216;stroke-linecap:square;stroke-linejoin:miter;stroke-miterlimit:3.25;stroke-dasharray:none;stroke-opacity:1"
       transform="scale(1.3333333)" />
    <path
       id="path2"
       d="m 9.1412001,-8.7414187 c 0.8671879,0 1.5703129,-0.1054687 2.0976559,-0.3632812 0.84375,-0.375 1.371094,-1.0546871 1.558594,-2.0273441 0.234375,-0.984375 -0.04687,-1.664062 -0.761719,-2.003906 -0.421875,-0.1875 -1.078125,-0.292969 -1.957031,-0.292969 H 6.3990126 l -0.9960937,4.6875003 z m -0.7734375,6.984375 c 1.2421875,0 2.2148434,-0.3515625 2.9062504,-1.0664062 0.421875,-0.46875 0.726562,-1.0195313 0.867187,-1.6757813 0.234375,-1.1015625 -0.105469,-1.8515625 -1.007812,-2.2617187 -0.46875,-0.2109375 -1.1484379,-0.3164063 -1.9921879,-0.3164063 H 5.0630751 L 3.9263564,-1.7570437 Z M 4.7701064,-15.139856 h 6.5039066 c 1.78125,0 2.917968,0.527344 3.445312,1.582031 0.292969,0.632813 0.375,1.347656 0.1875,2.179688 -0.1875,0.949218 -0.632812,1.7226558 -1.3125,2.3437496 -0.351562,0.3398437 -0.820312,0.6328125 -1.382812,0.8789062 0.691406,0.3046875 1.195312,0.6328125 1.511718,1.0195313 0.550782,0.65625 0.703125,1.5585937 0.445313,2.71875 -0.210938,0.9726562 -0.691406,1.8632812 -1.476563,2.6601562 C 11.531825,-0.57344994 9.9497939,7.688125e-4 7.9458876,7.688125e-4 H 1.5474501 Z m 0,0"
       style="fill:#000000;fill-opacity:1;fill-rule:nonzero;stroke:none"
       aria-label="B"
       transform="matrix(1.3333333,0,0,1.3333333,45.897671,171.21382)" />
    <path
       id="path3"
       d="m 83.781,100.539 1.035,-0.851 1.176,-0.657 1.281,-0.418 1.34,-0.168 1.344,0.098 1.301,0.352 1.211,0.597 1.078,0.801 0.902,0.969 0.707,1.086 0.489,1.144 0.273,1.141 0.055,1.082 -0.145,0.965 -0.308,0.793 -0.446,0.586 -0.535,0.347 -0.578,0.086 -0.566,-0.176 -0.508,-0.433 -0.407,-0.66 -0.257,-0.86 -0.075,-1.008 0.125,-1.109 0.348,-1.152 0.567,-1.129 0.773,-1.051 0.969,-0.918 1.125,-0.734 1.246,-0.516 1.324,-0.269 1.348,-0.008 1.324,0.258 1.25,0.503 1.133,0.727 0.976,0.91 0.785,1.043 0.575,1.129 0.359,1.149 0.137,1.113 -0.067,1.015 -0.25,0.868 -0.398,0.671 -0.504,0.442 -0.566,0.191 -0.579,-0.074 -0.539,-0.336 -0.449,-0.574 -0.316,-0.785 -0.153,-0.957 0.047,-1.078 0.258,-1.141 0.481,-1.145 0.695,-1.089 0.894,-0.977 1.071,-0.812 1.203,-0.602 1.297,-0.367 1.347,-0.11 1.34,0.153 1.285,0.41 1.184,0.644 1.039,0.84 0.863,1 0.66,1.102 0.442,1.152 0.223,1.133 0.011,1.059 -0.183,0.933 -0.344,0.75 -0.469,0.535 -0.547,0.293 -0.578,0.028 -0.558,-0.235 -0.493,-0.484 -0.375,-0.707 -0.218,-0.895 -0.036,-1.039 0.176,-1.121 0.395,-1.152 0.613,-1.117 0.82,-1.028 1.004,-0.879 1.157,-0.691 1.265,-0.465 1.332,-0.211 1.348,0.055 1.312,0.308 1.231,0.555 1.101,0.774 0.934,0.941 0.742,1.07 0.528,1.137 0.308,1.149 0.09,1.093 -0.109,0.989 -0.286,0.828 -0.421,0.625 -0.524,0.386 -0.574,0.133 -0.57,-0.133 -0.524,-0.386 -0.426,-0.625 -0.285,-0.828 -0.109,-0.989 0.09,-1.093 0.308,-1.149 0.528,-1.137 0.742,-1.07 0.937,-0.941 1.102,-0.774 1.226,-0.555 1.313,-0.308 1.348,-0.055 1.332,0.211 1.269,0.465 1.156,0.691 1.004,0.879 0.821,1.028 0.613,1.117 0.394,1.152 0.172,1.121 -0.031,1.039 -0.223,0.895 -0.375,0.707 -0.488,0.484 -0.558,0.235 -0.583,-0.028 -0.546,-0.293 -0.469,-0.535 -0.344,-0.75 -0.18,-0.933 0.008,-1.059 0.223,-1.133 0.441,-1.152 0.66,-1.102 0.864,-1 1.043,-0.84 1.183,-0.644 1.285,-0.41 1.34,-0.153 1.344,0.11 1.297,0.367 1.207,0.602 1.066,0.812 0.895,0.977 0.695,1.089 0.481,1.145 0.261,1.141 0.043,1.078 -0.148,0.957 -0.32,0.785 -0.45,0.574 -0.539,0.336 -0.574,0.074 -0.566,-0.191 -0.508,-0.442 -0.399,-0.671 -0.246,-0.868 -0.07,-1.015 0.141,-1.113 0.355,-1.149 0.574,-1.129 0.789,-1.043 0.973,-0.91 1.133,-0.727 1.25,-0.503 1.328,-0.258 1.348,0.008 1.32,0.269 1.246,0.516 1.129,0.734 0.965,0.918 0.777,1.051 0.567,1.129 0.343,1.152 0.129,1.109 -0.078,1.008 -0.258,0.86 -0.402,0.66 -0.512,0.433 -0.566,0.176 -0.574,-0.086 -0.536,-0.347 -0.445,-0.586 -0.312,-0.793 -0.141,-0.965 0.055,-1.082 0.269,-1.141 0.492,-1.144 0.704,-1.086 0.906,-0.969 1.074,-0.801 1.211,-0.597 1.301,-0.352 1.347,-0.098 1.336,0.168 1.282,0.418 1.179,0.657 1.031,0.851"
       style="fill:none;stroke:#000000;stroke-width:0.9216;stroke-linecap:square;stroke-linejoin:miter;stroke-miterlimit:3.25;stroke-dasharray:none;stroke-opacity:1"
       transform="scale(1.3333333)" />
    <path
       id="path4"
       d="m 9.1396556,-8.7409123 c 0.8671874,0 1.5703124,-0.1054688 2.0976564,-0.3632813 0.84375,-0.375 1.371094,-1.0546874 1.558594,-2.0273434 0.234375,-0.984375 -0.04687,-1.664063 -0.761719,-2.003907 -0.421875,-0.1875 -1.078125,-0.292968 -1.957031,-0.292968 H 6.3974681 l -0.9960938,4.6874997 z m -0.7734375,6.984375 c 1.2421875,0 2.2148439,-0.3515625 2.9062499,-1.0664063 0.421875,-0.46875 0.726563,-1.0195312 0.867188,-1.6757812 0.234375,-1.1015625 -0.105469,-1.8515625 -1.007813,-2.2617188 -0.46875,-0.2109375 -1.1484374,-0.3164062 -1.9921874,-0.3164062 H 5.0615306 L 3.9248118,-1.7565373 Z M 4.7685618,-15.13935 h 6.5039062 c 1.78125,0 2.917969,0.527344 3.445313,1.582031 0.292968,0.632813 0.375,1.347657 0.1875,2.179688 -0.1875,0.949219 -0.632813,1.7226562 -1.3125,2.3437499 -0.351563,0.3398438 -0.820313,0.6328125 -1.382813,0.8789063 0.691406,0.3046875 1.195313,0.6328125 1.511719,1.0195312 0.550781,0.65625 0.703125,1.5585938 0.445312,2.71875 -0.210937,0.9726563 -0.691406,1.8632813 -1.476562,2.6601563 -1.160156,1.18359374 -2.7421877,1.75781249 -4.7460939,1.75781249 H 1.5459056 Z m 0,0"
       style="fill:#000000;fill-opacity:1;fill-rule:nonzero;stroke:none"
       aria-label="B"
       transform="matrix(1.3333333,0,0,1.3333333,157.60676,179.03346)" />
    <path
       id="path5"
       d="m 106.82,77.5 c 0,6.109 -2.425,11.969 -6.746,16.289 -4.32,4.32 -10.183,6.75 -16.293,6.75 -6.109,0 -11.969,-2.43 -16.293,-6.75 -4.32,-4.32 -6.746,-10.18 -6.746,-16.289 0,-6.113 2.426,-11.973 6.746,-16.293 4.324,-4.32 10.184,-6.75 16.293,-6.75 6.11,0 11.973,2.43 16.293,6.75 4.321,4.32 6.746,10.18 6.746,16.293 z"
       style="fill:none;stroke:#000000;stroke-width:0.9216;stroke-linecap:butt;stroke-linejoin:miter;stroke-miterlimit:3.25;stroke-dasharray:0.9216, 5.5296;stroke-dashoffset:0;stroke-opacity:1"
       transform="scale(1.3333333)" />
    <path
       id="path6"
       d="M 88.809,54.457 78.754,51.105 v 6.704 z"
       style="fill:#000000;fill-opacity:1;fill-rule:evenodd;stroke:none"
       transform="scale(1.3333333)" />
    <path
       id="path7"
       d="m 5.5544322,-11.027405 -1.5585937,7.3359371 c -0.1289063,0.5507813 -0.1289063,1.0078125 -0.023437,1.3710938 0.1875,0.65625 0.7148437,0.984375 1.6289062,0.984375 1.2773438,0 2.296875,-0.5625 3.0117188,-1.7226563 0.3867187,-0.6210937 0.6796875,-1.4765625 0.9140625,-2.5546875 l 1.160157,-5.4140621 h 1.851561 L 10.195057,-6.1625e-5 H 8.4489635 L 8.800526,-1.6289679 c -0.328125,0.421875 -0.6914063,0.78515627 -1.1132813,1.07812502 -0.84375,0.57421875 -1.7578125,0.8671875 -2.765625,0.8671875 -1.5820312,0 -2.53125,-0.52734375 -2.8710937,-1.58203122 -0.1875,-0.5742188 -0.1875,-1.3125 0,-2.2617188 l 1.6054687,-7.4999996 z m 0,0"
       style="fill:#000000;fill-opacity:1;fill-rule:nonzero;stroke:none"
       aria-label="u"
       transform="matrix(1.3333333,0,0,1.3333333,97.703465,51.070395)" />
    <path
       id="path8"
       d="m 6.878651,-7.4531868 c 0.2226562,0.1640625 0.4101562,0.4101563 0.5976562,0.7265625 l 0.2226563,-0.984375 H 8.894276 l -1.5,7.0898438 c -0.2109375,0.97265625 -0.515625,1.7695312 -0.9375,2.3320312 -0.7734375,1.0546875 -1.8984375,1.59375 -3.4101563,1.59375 -0.84375,0 -1.5,-0.1992187 -1.9921875,-0.5625 C 0.56224475,2.3671257 0.35130725,1.7694695 0.456776,0.9725945 H 1.8044322 C 1.7809947,1.324157 1.863026,1.5936882 2.003651,1.7811882 2.238026,2.074157 2.6833385,2.214782 3.3044322,2.214782 c 1.0078125,0 1.7460938,-0.3515625 2.203125,-1.0546875 C 5.7770885,0.74993825 6.0114635,-6.175e-5 6.222401,-1.066468 5.8825572,-0.67974925 5.5075572,-0.3867805 5.1091197,-0.1992805 4.6872447,-6.175e-5 4.1833385,0.105407 3.5739635,0.105407 2.7419322,0.105407 2.050526,-0.1992805 1.5466197,-0.785218 1.0427135,-1.394593 0.93724475,-2.378968 1.2302135,-3.7617805 1.5231822,-5.0625618 2.0388072,-6.082093 2.847401,-6.8203743 c 0.7851562,-0.7265625 1.6289062,-1.1015625 2.5195312,-1.1015625 0.6210938,0 1.125,0.1523438 1.5117188,0.46875 z m -1.5117188,0.6914063 c -0.9140625,0 -1.6289062,0.4335937 -2.15625,1.3007812 -0.28125,0.4570313 -0.5039062,1.0546875 -0.65625,1.8046875 -0.1875,0.8789063 -0.140625,1.546875 0.1054688,2.0039063 0.2578125,0.4570312 0.6914062,0.6796875 1.3007812,0.6796875 0.9375,0 1.6757813,-0.4101563 2.25,-1.265625 0.3046875,-0.4804688 0.5273438,-1.03125 0.6679688,-1.6757813 0.2109375,-0.9726562 0.1640625,-1.6875 -0.140625,-2.1445312 -0.2929688,-0.4570313 -0.75,-0.703125 -1.3710938,-0.703125 z m 0,0"
       style="fill:#000000;fill-opacity:1;fill-rule:nonzero;stroke:none"
       aria-label="g"
       transform="matrix(1.3333333,0,0,1.3333333,113.26597,56.296957)" />
    <path
       id="path9"
       d="m 87.469,100.539 c 0,0.977 -0.391,1.914 -1.082,2.606 -0.692,0.691 -1.629,1.078 -2.606,1.078 -0.976,0 -1.914,-0.387 -2.605,-1.078 -0.692,-0.692 -1.082,-1.629 -1.082,-2.606 0,-0.98 0.39,-1.918 1.082,-2.609 0.691,-0.692 1.629,-1.078 2.605,-1.078 0.977,0 1.914,0.386 2.606,1.078 0.691,0.691 1.082,1.629 1.082,2.609 z"
       style="fill:#000000;fill-opacity:1;fill-rule:evenodd;stroke:none"
       transform="scale(1.3333333)" />
    <path
       id="path10"
       d="m 1.5931815,-8.3196379 v -1.125 c 1.078125,-0.1054687 1.8164063,-0.28125 2.2382813,-0.515625 0.421875,-0.2343751 0.7382812,-0.8320311 0.9375,-1.7343751 H 5.9525565 V 6.74625e-4 H 4.3705253 V -8.3196379 Z m 0,0"
       style="fill:#000000;fill-opacity:1;fill-rule:nonzero;stroke:none"
       aria-label="1"
       transform="matrix(1.3333333,0,0,1.3333333,105.40701,246.24129)" />
    <path
       id="path11"
       d="m 268.102,100.539 -1.032,0.852 -1.179,0.652 -1.282,0.422 -1.339,0.168 -1.344,-0.098 -1.301,-0.355 -1.211,-0.594 -1.074,-0.805 -0.906,-0.969 -0.704,-1.082 -0.492,-1.144 -0.269,-1.145 -0.059,-1.078 0.145,-0.965 0.308,-0.796 0.446,-0.586 0.535,-0.344 0.578,-0.086 0.566,0.176 0.512,0.429 0.402,0.664 0.258,0.856 0.074,1.012 -0.125,1.109 -0.347,1.148 -0.567,1.133 -0.773,1.051 -0.969,0.918 -1.125,0.734 -1.246,0.516 -1.32,0.27 -1.352,0.003 -1.324,-0.253 -1.25,-0.504 -1.133,-0.727 -0.976,-0.91 -0.786,-1.047 -0.574,-1.129 -0.355,-1.148 -0.141,-1.114 0.067,-1.015 0.25,-0.867 0.398,-0.672 0.504,-0.442 0.566,-0.187 0.578,0.074 0.539,0.332 0.45,0.574 0.32,0.789 0.148,0.957 -0.043,1.075 -0.261,1.14 -0.481,1.149 -0.695,1.086 -0.895,0.976 -1.07,0.813 -1.203,0.605 -1.297,0.367 -1.344,0.11 -1.34,-0.157 -1.289,-0.406 -1.183,-0.644 -1.039,-0.844 -0.863,-1 -0.661,-1.102 -0.441,-1.148 -0.223,-1.133 -0.011,-1.062 0.183,-0.93 0.344,-0.754 0.469,-0.535 0.547,-0.289 0.578,-0.028 0.562,0.231 0.488,0.484 0.375,0.707 0.219,0.899 0.035,1.035 -0.175,1.125 -0.395,1.148 -0.613,1.118 -0.817,1.027 -1.007,0.883 -1.153,0.691 -1.269,0.461 -1.332,0.211 -1.348,-0.051 -1.313,-0.312 -1.23,-0.555 -1.098,-0.769 -0.937,-0.946 -0.742,-1.066 -0.528,-1.141 -0.308,-1.144 -0.09,-1.098 0.109,-0.988 0.285,-0.828 0.426,-0.622 0.52,-0.39 0.574,-0.129 0.574,0.129 0.52,0.39 0.425,0.622 0.286,0.828 0.109,0.988 -0.09,1.098 -0.308,1.144 -0.528,1.141 -0.742,1.066 -0.937,0.946 -1.098,0.769 -1.231,0.555 -1.312,0.312 -1.348,0.051 -1.332,-0.211 -1.269,-0.461 -1.153,-0.691 -1.007,-0.883 -0.817,-1.027 -0.613,-1.118 -0.395,-1.148 -0.175,-1.125 0.035,-1.035 0.218,-0.899 0.375,-0.707 0.489,-0.484 0.562,-0.231 0.578,0.028 0.547,0.289 0.469,0.535 0.344,0.754 0.183,0.93 -0.011,1.062 -0.223,1.133 -0.441,1.148 -0.661,1.102 -0.863,1 -1.039,0.844 -1.184,0.644 -1.289,0.406 -1.339,0.157 -1.344,-0.11 -1.297,-0.367 -1.203,-0.605 -1.071,-0.813 -0.894,-0.976 -0.695,-1.086 -0.481,-1.149 -0.262,-1.14 -0.043,-1.075 0.149,-0.957 0.32,-0.789 0.449,-0.574 0.54,-0.332 0.578,-0.074 0.566,0.187 0.504,0.442 0.398,0.672 0.25,0.867 0.067,1.015 -0.141,1.114 -0.355,1.148 -0.575,1.129 -0.785,1.047 -0.976,0.91 -1.133,0.727 -1.25,0.504 -1.324,0.253 -1.352,-0.003 -1.32,-0.27 -1.246,-0.516 -1.125,-0.734 -0.969,-0.918 -0.773,-1.051 -0.567,-1.133 -0.348,-1.148 -0.124,-1.109 0.074,-1.012 0.258,-0.856 0.402,-0.664 0.512,-0.429 0.566,-0.176 0.578,0.086 0.535,0.344 0.446,0.586 0.308,0.796 0.145,0.965 -0.059,1.078 -0.269,1.145 -0.493,1.144 -0.703,1.082 -0.906,0.969 -1.074,0.805 -1.211,0.594 -1.301,0.355 -1.344,0.098 -1.34,-0.168 -1.281,-0.422 -1.179,-0.652 -1.032,-0.852"
       style="fill:none;stroke:#000000;stroke-width:0.9216;stroke-linecap:square;stroke-linejoin:miter;stroke-miterlimit:3.25;stroke-dasharray:none;stroke-opacity:1"
       transform="scale(1.3333333)" />
    <path
       id="path12"
       d="m 9.1395595,-8.7414187 c 0.8671875,0 1.5703125,-0.1054687 2.0976565,-0.3632812 0.84375,-0.375 1.371094,-1.0546871 1.558594,-2.0273441 0.234375,-0.984375 -0.04687,-1.664062 -0.761719,-2.003906 -0.421875,-0.1875 -1.078125,-0.292969 -1.957031,-0.292969 H 6.397372 l -0.9960937,4.6875003 z m -0.7734375,6.984375 c 1.2421875,0 2.214844,-0.3515625 2.90625,-1.0664062 0.421875,-0.46875 0.726563,-1.0195313 0.867188,-1.6757813 0.234375,-1.1015625 -0.105469,-1.8515625 -1.007813,-2.2617187 -0.46875,-0.2109375 -1.1484375,-0.3164063 -1.9921875,-0.3164063 H 5.0614345 L 3.9247158,-1.7570437 Z M 4.7684658,-15.139856 h 6.5039062 c 1.78125,0 2.917969,0.527344 3.445313,1.582031 0.292968,0.632813 0.375,1.347656 0.1875,2.179688 -0.1875,0.949218 -0.632813,1.7226558 -1.3125,2.3437496 -0.351563,0.3398437 -0.820313,0.6328125 -1.382813,0.8789062 0.691406,0.3046875 1.195313,0.6328125 1.511719,1.0195313 0.550781,0.65625 0.703125,1.5585937 0.445312,2.71875 -0.210937,0.9726562 -0.691406,1.8632812 -1.476562,2.6601562 C 11.530185,-0.57344994 9.9481533,7.688125e-4 7.944247,7.688125e-4 H 1.5458095 Z m 0,0"
       style="fill:#000000;fill-opacity:1;fill-rule:nonzero;stroke:none"
       aria-label="B"
       transform="matrix(1.3333333,0,0,1.3333333,291.65767,171.21382)" />
    <path
       id="path13"
       d="m 268.102,100.539 1.031,-0.851 1.179,-0.657 1.282,-0.418 1.34,-0.168 1.343,0.098 1.301,0.352 1.211,0.597 1.074,0.801 0.907,0.969 0.707,1.086 0.488,1.144 0.269,1.141 0.059,1.082 -0.145,0.965 -0.308,0.793 -0.445,0.586 -0.536,0.347 -0.578,0.086 -0.566,-0.176 -0.508,-0.433 -0.406,-0.66 -0.258,-0.86 -0.074,-1.008 0.125,-1.109 0.347,-1.152 0.567,-1.129 0.773,-1.051 0.969,-0.918 1.125,-0.734 1.246,-0.516 1.324,-0.269 1.348,-0.008 1.324,0.258 1.25,0.503 1.133,0.727 0.977,0.91 0.785,1.043 0.574,1.129 0.359,1.149 0.137,1.113 -0.066,1.015 -0.25,0.868 -0.399,0.671 -0.504,0.442 -0.566,0.191 -0.578,-0.074 -0.539,-0.336 -0.45,-0.574 -0.32,-0.785 -0.148,-0.957 0.047,-1.078 0.257,-1.141 0.481,-1.145 0.695,-1.089 0.895,-0.977 1.07,-0.812 1.203,-0.602 1.297,-0.367 1.348,-0.11 1.34,0.153 1.285,0.41 1.183,0.644 1.039,0.84 0.864,1 0.66,1.102 0.441,1.152 0.223,1.133 0.012,1.059 -0.184,0.933 -0.344,0.75 -0.469,0.535 -0.546,0.293 -0.579,0.028 -0.558,-0.235 -0.492,-0.484 -0.375,-0.707 -0.219,-0.895 -0.035,-1.039 0.176,-1.121 0.394,-1.152 0.613,-1.117 0.821,-1.028 1.004,-0.879 1.156,-0.691 1.265,-0.465 1.332,-0.211 1.348,0.055 1.313,0.308 1.23,0.555 1.102,0.774 0.933,0.941 0.742,1.07 0.528,1.137 0.308,1.149 0.09,1.093 -0.109,0.989 -0.285,0.828 -0.422,0.625 -0.524,0.386 -0.574,0.133 -0.574,-0.133 -0.52,-0.386 -0.425,-0.625 -0.285,-0.828 -0.11,-0.989 0.09,-1.093 0.309,-1.149 0.527,-1.137 0.742,-1.07 0.938,-0.941 1.101,-0.774 1.227,-0.555 1.312,-0.308 1.348,-0.055 1.332,0.211 1.269,0.465 1.157,0.691 1.004,0.879 0.82,1.028 0.613,1.117 0.391,1.152 0.176,1.121 -0.032,1.039 -0.222,0.895 -0.375,0.707 -0.489,0.484 -0.558,0.235 -0.582,-0.028 -0.547,-0.293 -0.469,-0.535 -0.344,-0.75 -0.183,-0.933 0.012,-1.059 0.222,-1.133 0.442,-1.152 0.66,-1.102 0.863,-1 1.043,-0.84 1.184,-0.644 1.285,-0.41 1.34,-0.153 1.343,0.11 1.297,0.367 1.207,0.602 1.067,0.812 0.894,0.977 0.696,1.089 0.48,1.145 0.262,1.141 0.043,1.078 -0.149,0.957 -0.32,0.785 -0.449,0.574 -0.539,0.336 -0.578,0.074 -0.563,-0.191 -0.508,-0.442 -0.398,-0.671 -0.246,-0.868 -0.071,-1.015 0.141,-1.113 0.355,-1.149 0.575,-1.129 0.789,-1.043 0.972,-0.91 1.133,-0.727 1.25,-0.503 1.324,-0.258 1.352,0.008 1.32,0.269 1.246,0.516 1.129,0.734 0.965,0.918 0.777,1.051 0.563,1.129 0.348,1.152 0.129,1.109 -0.079,1.008 -0.257,0.86 -0.403,0.66 -0.511,0.433 -0.567,0.176 -0.578,-0.086 -0.531,-0.347 -0.446,-0.586 -0.312,-0.793 -0.141,-0.965 0.055,-1.082 0.27,-1.141 0.492,-1.144 0.703,-1.086 0.906,-0.969 1.074,-0.801 1.211,-0.597 1.301,-0.352 1.344,-0.098 1.34,0.168 1.281,0.418 1.18,0.657 1.031,0.851"
       style="fill:none;stroke:#000000;stroke-width:0.9216;stroke-linecap:square;stroke-linejoin:miter;stroke-miterlimit:3.25;stroke-dasharray:none;stroke-opacity:1"
       transform="scale(1.3333333)" />
    <path
       id="path14"
       d="m 9.1409446,-8.7409123 c 0.8671874,0 1.5703124,-0.1054688 2.0976564,-0.3632813 0.84375,-0.375 1.371094,-1.0546874 1.558594,-2.0273434 0.234375,-0.984375 -0.04687,-1.664063 -0.761719,-2.003907 -0.421875,-0.1875 -1.078125,-0.292968 -1.957031,-0.292968 H 6.3987571 l -0.9960937,4.6874997 z m -0.7734375,6.984375 c 1.2421875,0 2.2148439,-0.3515625 2.9062499,-1.0664063 0.421875,-0.46875 0.726563,-1.0195312 0.867188,-1.6757812 0.234375,-1.1015625 -0.105469,-1.8515625 -1.007813,-2.2617188 -0.46875,-0.2109375 -1.1484374,-0.3164062 -1.9921874,-0.3164062 H 5.0628196 L 3.9261009,-1.7565373 Z M 4.7698509,-15.13935 h 6.5039061 c 1.78125,0 2.917969,0.527344 3.445313,1.582031 0.292968,0.632813 0.375,1.347657 0.1875,2.179688 -0.1875,0.949219 -0.632813,1.7226562 -1.3125,2.3437499 -0.351563,0.3398438 -0.820313,0.6328125 -1.382813,0.8789063 0.691406,0.3046875 1.195313,0.6328125 1.511719,1.0195312 0.550781,0.65625 0.703125,1.5585938 0.445312,2.71875 -0.210937,0.9726563 -0.691406,1.8632813 -1.476562,2.6601563 C 11.53157,-0.57294356 9.9495384,0.00127519 7.9456321,0.00127519 H 1.5471946 Z m 0,0"
       style="fill:#000000;fill-opacity:1;fill-rule:nonzero;stroke:none"
       aria-label="B"
       transform="matrix(1.3333333,0,0,1.3333333,403.36676,179.03346)" />
    <path
       id="path15"
       d="m 268.102,100.539 -1.008,0.75 -1.184,0.539 -1.308,0.285 -1.368,0.004 -1.347,-0.281 -1.254,-0.555 -1.094,-0.789 -0.875,-0.972 -0.625,-1.102 -0.367,-1.164 -0.121,-1.168 0.101,-1.121 0.274,-1.039 0.406,-0.926 0.484,-0.785 0.52,-0.629 0.504,-0.465 0.461,-0.289 0.39,-0.105 0.305,0.074 0.207,0.258 0.098,0.429 -0.02,0.582 -0.14,0.707 -0.282,0.801 -0.425,0.844 -0.59,0.84 -0.758,0.785 -0.926,0.668 -1.078,0.492 -1.203,0.273 -1.277,0.012 -1.293,-0.265 -1.239,-0.547 -1.113,-0.805 -0.926,-1.023 -0.683,-1.176 -0.41,-1.266 -0.133,-1.281 0.14,-1.238 0.379,-1.137 0.574,-1 0.711,-0.844 0.797,-0.68 0.824,-0.515 0.797,-0.36 0.723,-0.214 0.613,-0.086 0.477,0.043 0.312,0.16 0.141,0.273 -0.039,0.371 -0.215,0.457 -0.391,0.52 -0.558,0.547 -0.719,0.539 -0.863,0.48 -0.992,0.371 -1.098,0.211 -1.16,0.004 -1.188,-0.238 -1.148,-0.496 -1.059,-0.754 -0.898,-0.992 -0.684,-1.18 -0.429,-1.312 -0.145,-1.364 0.137,-1.34 0.41,-1.246 0.641,-1.093 0.824,-0.903 0.957,-0.687 1.027,-0.473 1.039,-0.277 1.008,-0.106 0.93,0.032 0.808,0.136 0.66,0.211 0.489,0.258 0.293,0.289 0.093,0.301 -0.113,0.305 -0.316,0.296 -0.504,0.274 -0.68,0.223 -0.824,0.152 -0.945,0.047 -1.02,-0.094 -1.051,-0.266 -1.039,-0.472 -0.965,-0.688 -0.832,-0.902 -0.648,-1.098 -0.414,-1.25 -0.145,-1.347 0.145,-1.368 0.422,-1.308 0.679,-1.184 0.891,-0.988 1.051,-0.754 1.14,-0.496 1.18,-0.238 1.156,-0.004 1.086,0.199 0.989,0.355 0.859,0.461 0.711,0.516 0.555,0.527 0.382,0.496 0.204,0.442 0.023,0.355 -0.16,0.262 -0.332,0.152 -0.5,0.043 -0.637,-0.082 -0.746,-0.211 -0.816,-0.355 -0.84,-0.508 -0.813,-0.676 -0.726,-0.843 -0.582,-1.004 -0.387,-1.141 -0.145,-1.246 0.129,-1.289 0.407,-1.27 0.683,-1.183 0.922,-1.024 1.109,-0.808 1.235,-0.551 1.285,-0.27 1.269,0.012 1.196,0.266 1.074,0.484 0.926,0.656 0.758,0.77 0.593,0.824 0.438,0.828 0.281,0.774 0.149,0.687 0.019,0.559 -0.101,0.406 -0.211,0.238 -0.317,0.059 -0.41,-0.121 -0.48,-0.297 -0.528,-0.473 -0.539,-0.636 -0.504,-0.793 -0.422,-0.926 -0.293,-1.047 -0.105,-1.129 0.113,-1.176 0.367,-1.172 0.625,-1.109 0.879,-0.98 1.09,-0.797 1.258,-0.559 1.348,-0.285 h 1.363 l 1.305,0.277 1.175,0.535 1.004,0.743 0.797,0.902 0.578,1.004 0.371,1.047 0.18,1.035 0.027,0.98 -0.097,0.879 -0.184,0.75 -0.242,0.586 -0.281,0.403 -0.301,0.203 h -0.305 l -0.301,-0.203 -0.277,-0.403 -0.246,-0.586 -0.184,-0.75 -0.097,-0.879 0.027,-0.98 0.18,-1.035 0.371,-1.047 0.578,-1.004 0.797,-0.902 1.004,-0.743 1.179,-0.535 1.301,-0.277 h 1.367 l 1.348,0.285 1.254,0.559 1.09,0.797 0.879,0.98 0.625,1.109 0.367,1.172 0.113,1.176 -0.105,1.129 -0.293,1.047 -0.422,0.926 -0.504,0.793 -0.539,0.636 -0.527,0.473 -0.481,0.297 -0.406,0.121 -0.32,-0.059 -0.211,-0.238 -0.102,-0.406 0.02,-0.559 0.148,-0.687 0.285,-0.774 0.434,-0.828 0.594,-0.824 0.757,-0.77 0.926,-0.656 1.074,-0.484 1.196,-0.266 1.269,-0.012 1.289,0.27 1.231,0.551 1.109,0.808 0.922,1.024 0.684,1.183 0.406,1.27 0.129,1.289 -0.145,1.246 -0.387,1.141 -0.582,1.004 -0.726,0.843 -0.809,0.676 -0.843,0.508 -0.817,0.355 -0.746,0.211 -0.637,0.082 -0.5,-0.043 -0.332,-0.152 -0.16,-0.262 0.024,-0.355 0.203,-0.442 0.382,-0.496 0.555,-0.527 0.711,-0.516 0.86,-0.461 0.988,-0.355 1.09,-0.199 1.152,0.004 1.18,0.238 1.14,0.496 1.051,0.754 0.891,0.988 0.679,1.184 0.426,1.308 0.141,1.368 -0.145,1.347 -0.414,1.25 -0.648,1.098 -0.832,0.902 -0.965,0.688 -1.039,0.472 -1.051,0.266 -1.02,0.094 -0.941,-0.047 -0.828,-0.152 -0.676,-0.223 -0.508,-0.274 -0.316,-0.296 -0.113,-0.305 0.093,-0.301 0.293,-0.289 0.489,-0.258 0.66,-0.211 0.808,-0.136 0.93,-0.032 1.008,0.106 1.039,0.277 1.027,0.473 0.957,0.687 0.825,0.903 0.64,1.093 0.41,1.246 0.141,1.34 -0.148,1.364 -0.43,1.312 -0.684,1.18 -0.898,0.992 -1.059,0.754 -1.148,0.496 -1.188,0.238 -1.16,-0.004 -1.097,-0.211 -0.993,-0.371 -0.863,-0.48 -0.715,-0.539 -0.562,-0.547 -0.391,-0.52 -0.215,-0.457 -0.039,-0.371 0.141,-0.273 0.312,-0.16 0.477,-0.043 0.613,0.086 0.727,0.214 0.797,0.36 0.82,0.515 0.797,0.68 0.711,0.844 0.574,1 0.379,1.137 0.14,1.238 -0.132,1.281 -0.411,1.266 -0.683,1.176 -0.926,1.023 -1.113,0.805 -1.238,0.547 -1.293,0.265 -1.278,-0.012 -1.199,-0.273 -1.082,-0.492 -0.926,-0.668 -0.758,-0.785 -0.589,-0.84 -0.426,-0.844 -0.282,-0.801 -0.14,-0.707 -0.02,-0.582 0.102,-0.429 0.203,-0.258 0.305,-0.074 0.39,0.105 0.461,0.289 0.508,0.465 0.516,0.629 0.484,0.785 0.406,0.926 0.278,1.039 0.097,1.121 -0.121,1.168 -0.367,1.164 -0.625,1.102 -0.875,0.972 -1.094,0.789 -1.254,0.555 -1.347,0.281 -1.367,-0.004 -1.309,-0.285 -1.184,-0.539 -1.007,-0.75"
       style="fill:none;stroke:#000000;stroke-width:0.9216;stroke-linecap:square;stroke-linejoin:miter;stroke-miterlimit:3.25;stroke-dasharray:none;stroke-opacity:1"
       transform="scale(1.3333333)" />
    <path
       id="path16"
       d="m 9.7614633,-10.583069 c 0.3164067,0.234375 0.5859377,0.5976559 0.8437497,1.0312497 l 0.316407,-1.3828127 h 1.710937 L 10.499745,-0.89166306 C 10.195057,0.50286819 9.7614633,1.6278682 9.163807,2.4247432 c -1.1015625,1.5 -2.7070312,2.2617187 -4.8398437,2.2617187 -1.1953125,0 -2.1328125,-0.2695312 -2.8242188,-0.796875 C 0.7966195,3.3622432 0.50365075,2.5067744 0.6559945,1.3700557 H 2.554432 c -0.023437,0.5039062 0.082031,0.890625 0.2929688,1.1601562 0.3164062,0.3984375 0.9492187,0.609375 1.8398437,0.609375 1.4414063,0 2.4726563,-0.5039062 3.1289063,-1.4882812 0.375,-0.5976563 0.7148437,-1.65234376 1.0078125,-3.1757813 -0.4804688,0.55078129 -1.0078125,0.97265629 -1.5820313,1.25390629 -0.5859375,0.26953125 -1.3125,0.421875 -2.1796875,0.421875 -1.171875,0 -2.1445312,-0.421875 -2.8710937,-1.27734379 -0.7148438,-0.8554687 -0.8554688,-2.25 -0.4335938,-4.21875 0.3984375,-1.8398437 1.1367188,-3.2929687 2.2734375,-4.3242187 1.125,-1.0429692 2.3203125,-1.5703122 3.5976563,-1.5703122 0.8554687,0 1.5820312,0.210937 2.1328125,0.65625 z m -2.1328125,0.9960934 c -1.3125,0 -2.3320313,0.609375 -3.0703125,1.8398438 -0.3984375,0.65625 -0.7148438,1.5 -0.9257813,2.5546875 -0.2695312,1.2421875 -0.2109375,2.1914062 0.1523438,2.8476562 0.3515625,0.65625 0.9609375,0.9726563 1.828125,0.9726563 1.3359375,0 2.390625,-0.5976563 3.1875,-1.7929688 0.4453125,-0.703125 0.7617187,-1.4765625 0.9609375,-2.390625 0.2929687,-1.3710937 0.2226562,-2.390625 -0.1992188,-3.0351562 -0.421875,-0.65625 -1.078125,-0.9960938 -1.9335937,-0.9960938 z m 0,0"
       style="fill:#000000;fill-opacity:1;fill-rule:nonzero;stroke:none"
       aria-label="g"
       transform="matrix(1.3333333,0,0,1.3333333,349.09409,55.739665)" />
    <path
       id="path17"
       d="m 271.789,100.539 c 0,0.977 -0.391,1.914 -1.082,2.606 -0.691,0.691 -1.629,1.078 -2.605,1.078 -0.977,0 -1.914,-0.387 -2.606,-1.078 -0.691,-0.692 -1.082,-1.629 -1.082,-2.606 0,-0.98 0.391,-1.918 1.082,-2.609 0.692,-0.692 1.629,-1.078 2.606,-1.078 0.976,0 1.914,0.386 2.605,1.078 0.691,0.691 1.082,1.629 1.082,2.609 z"
       style="fill:#000000;fill-opacity:1;fill-rule:evenodd;stroke:none"
       transform="scale(1.3333333)" />
    <path
       id="path18"
       d="M 0.51634556,6.74625e-4 C 0.57493931,-1.0071379 0.77415806,-1.8860441 1.1491581,-2.6360441 1.5124393,-3.3743254 2.2155643,-4.0657316 3.2819706,-4.6751066 l 1.5703125,-0.9257813 c 0.7148437,-0.3984375 1.1953125,-0.75 1.4882812,-1.03125 0.4453125,-0.4570312 0.6679688,-0.984375 0.6679688,-1.5703125 0,-0.6679687 -0.1992188,-1.21875 -0.6210938,-1.6289062 -0.3984375,-0.3984374 -0.9609375,-0.6093754 -1.6289062,-0.6093754 -1.03125,0 -1.7109375,0.386719 -2.0976563,1.1601566 -0.2226562,0.4101563 -0.328125,0.984375 -0.3632812,1.6992188 H 0.80931431 c 0.0117188,-1.0195313 0.19921879,-1.8398438 0.57421879,-2.4960934 0.6328125,-1.125 1.7578125,-1.699219 3.375,-1.699219 1.3476562,0 2.3320312,0.351562 2.953125,1.089844 0.6210937,0.7265621 0.9257812,1.5234371 0.9257812,2.4140621 0,0.9492188 -0.3398437,1.7578125 -0.9960937,2.4257813 -0.3867188,0.3867187 -1.0664063,0.8554687 -2.0390625,1.40625 l -1.1367188,0.6210937 c -0.5273437,0.3046875 -0.9492187,0.5742188 -1.2773437,0.84375 -0.5273438,0.4921875 -0.890625,1.0078125 -1.0195313,1.5820313 h 6.421875 V 6.74625e-4 Z m 0,0"
       style="fill:#000000;fill-opacity:1;fill-rule:nonzero;stroke:none"
       aria-label="2"
       transform="matrix(1.3333333,0,0,1.3333333,351.16701,246.24129)" />
    <path
       id="path19"
       d="m 50.27,284.859 -0.997,0.836 -1.14,0.649 -1.238,0.426 -1.297,0.179 -1.305,-0.074 -1.27,-0.324 -1.183,-0.559 -1.063,-0.762 -0.898,-0.929 -0.711,-1.051 -0.508,-1.117 -0.293,-1.125 -0.086,-1.082 0.11,-0.981 0.281,-0.828 0.418,-0.637 0.519,-0.41 0.575,-0.168 0.582,0.09 0.543,0.336 0.457,0.567 0.328,0.773 0.168,0.937 -0.024,1.055 -0.226,1.117 -0.442,1.129 -0.648,1.074 -0.844,0.973 -1.016,0.82 -1.148,0.625 -1.246,0.403 -1.301,0.152 -1.305,-0.101 -1.261,-0.348 -1.176,-0.582 -1.043,-0.781 -0.883,-0.946 -0.691,-1.058 -0.485,-1.121 -0.273,-1.125 -0.062,-1.071 0.128,-0.968 0.297,-0.809 0.434,-0.613 0.527,-0.387 0.578,-0.141 0.578,0.114 0.536,0.359 0.445,0.594 0.312,0.793 0.149,0.949 -0.043,1.066 -0.25,1.121 -0.461,1.122 -0.672,1.07 -0.863,0.957 -1.028,0.805 -1.164,0.601 -1.253,0.375 -1.305,0.125 -1.301,-0.125 -1.254,-0.375 -1.164,-0.601 -1.027,-0.805 -0.864,-0.957 -0.671,-1.07 -0.461,-1.122 -0.25,-1.121 -0.043,-1.066 0.148,-0.949 0.313,-0.793 0.445,-0.594 0.535,-0.359 0.578,-0.114 0.578,0.141 0.528,0.387 0.433,0.613 0.297,0.809 0.129,0.968 -0.066,1.071 -0.27,1.125 -0.484,1.121 -0.692,1.058 -0.882,0.946 -1.043,0.781 -1.176,0.582 -1.262,0.348 -1.305,0.101 -1.3,-0.152 -1.247,-0.403 -1.152,-0.625 -1.012,-0.82 -0.843,-0.973 -0.649,-1.074 -0.441,-1.129 -0.227,-1.117 -0.023,-1.055 0.168,-0.937 0.328,-0.773 0.457,-0.567 0.543,-0.336 0.578,-0.09 0.578,0.168 0.516,0.41 0.422,0.637 0.281,0.828 0.109,0.981 -0.086,1.082 -0.293,1.125 -0.507,1.117 -0.711,1.051 -0.899,0.929 -1.062,0.762 -1.184,0.559 -1.269,0.324 -1.305,0.074 L 3.375,286.77 2.133,286.344 0.996,285.695 0,284.859"
       style="fill:none;stroke:#000000;stroke-width:0.9216;stroke-linecap:square;stroke-linejoin:miter;stroke-miterlimit:3.25;stroke-dasharray:none;stroke-opacity:1"
       transform="scale(1.3333333)" />
    <path
       id="path20"
       d="m 9.1397516,-8.7430593 c 0.8671874,0 1.5703124,-0.1054688 2.0976564,-0.3632813 0.84375,-0.375 1.371094,-1.0546874 1.558594,-2.0273434 0.234375,-0.984375 -0.04687,-1.664063 -0.761719,-2.003907 -0.421875,-0.1875 -1.078125,-0.292968 -1.957031,-0.292968 H 6.3975641 l -0.9960937,4.6874997 z m -0.7734375,6.984375 c 1.2421875,0 2.2148439,-0.3515625 2.9062499,-1.0664063 0.421875,-0.46875 0.726563,-1.0195312 0.867188,-1.6757812 0.234375,-1.1015625 -0.105469,-1.8515625 -1.007813,-2.2617188 -0.46875,-0.2109375 -1.1484374,-0.3164062 -1.9921874,-0.3164062 H 5.0616266 L 3.9249079,-1.7586843 Z M 4.7686579,-15.141497 h 6.5039061 c 1.78125,0 2.917969,0.527344 3.445313,1.582031 0.292968,0.632813 0.375,1.347657 0.1875,2.179688 -0.1875,0.949219 -0.632813,1.7226562 -1.3125,2.3437499 -0.351563,0.3398438 -0.820313,0.6328125 -1.382813,0.8789063 0.691406,0.3046875 1.195313,0.6328125 1.511719,1.0195312 0.550781,0.65625 0.703125,1.5585938 0.445312,2.71875 -0.210937,0.9726563 -0.691406,1.8632813 -1.476562,2.6601563 -1.160156,1.18359374 -2.7421876,1.7578124875 -4.7460939,1.7578124875 H 1.5460016 Z m 0,0"
       style="fill:#000000;fill-opacity:1;fill-rule:nonzero;stroke:none"
       aria-label="B"
       transform="matrix(1.3333333,0,0,1.3333333,23.555852,416.97382)" />
    <path
       id="path21"
       d="m 117.293,284.859 1,-0.839 1.137,-0.649 1.238,-0.422 1.297,-0.179 1.305,0.074 1.269,0.324 1.188,0.555 1.058,0.765 0.899,0.93 0.714,1.047 0.504,1.117 0.297,1.129 0.086,1.078 -0.113,0.981 -0.281,0.828 -0.418,0.636 -0.52,0.414 -0.574,0.164 -0.582,-0.085 -0.543,-0.336 -0.453,-0.571 -0.332,-0.773 -0.164,-0.938 0.019,-1.054 0.231,-1.117 0.437,-1.126 0.653,-1.078 0.843,-0.972 1.012,-0.821 1.148,-0.625 1.25,-0.398 1.297,-0.156 1.305,0.101 1.262,0.352 1.176,0.578 1.046,0.781 0.879,0.946 0.692,1.058 0.484,1.121 0.273,1.125 0.063,1.074 -0.129,0.965 -0.297,0.809 -0.433,0.617 -0.528,0.387 -0.574,0.14 -0.582,-0.113 -0.535,-0.363 -0.445,-0.594 -0.313,-0.789 -0.148,-0.953 0.043,-1.063 0.25,-1.125 0.464,-1.121 0.668,-1.07 0.864,-0.957 1.031,-0.801 1.16,-0.605 1.254,-0.371 1.305,-0.129 1.3,0.129 1.258,0.371 1.16,0.605 1.032,0.801 0.859,0.957 0.672,1.07 0.461,1.121 0.25,1.125 0.043,1.063 -0.149,0.953 -0.312,0.789 -0.445,0.594 -0.532,0.363 -0.582,0.113 -0.578,-0.14 -0.527,-0.387 -0.43,-0.617 -0.301,-0.809 -0.129,-0.965 0.067,-1.074 0.269,-1.125 0.489,-1.121 0.691,-1.058 0.879,-0.946 1.047,-0.781 1.172,-0.578 1.261,-0.352 1.305,-0.101 1.301,0.156 1.246,0.398 1.152,0.625 1.012,0.821 0.844,0.972 0.648,1.078 0.442,1.126 0.226,1.117 0.024,1.054 -0.168,0.938 -0.328,0.773 -0.457,0.571 -0.54,0.336 -0.582,0.085 -0.574,-0.164 -0.519,-0.414 -0.422,-0.636 -0.281,-0.828 -0.11,-0.981 0.086,-1.078 0.293,-1.129 0.508,-1.117 0.711,-1.047 0.902,-0.93 1.059,-0.765 1.187,-0.555 1.266,-0.324 1.309,-0.074 1.296,0.179 1.239,0.422 1.136,0.649 0.996,0.839"
       style="fill:none;stroke:#000000;stroke-width:0.9216;stroke-linecap:square;stroke-linejoin:miter;stroke-miterlimit:3.25;stroke-dasharray:none;stroke-opacity:1"
       transform="scale(1.3333333)" />
    <path
       id="path22"
       d="m 9.1411041,-8.7408818 c 0.8671879,0 1.5703129,-0.1054688 2.0976559,-0.3632813 0.84375,-0.375 1.371094,-1.0546879 1.558594,-2.0273439 0.234375,-0.984375 -0.04687,-1.664062 -0.761719,-2.003906 -0.421875,-0.1875 -1.078125,-0.292969 -1.957031,-0.292969 H 6.3989166 l -0.9960938,4.6875002 z m -0.7734375,6.984375 c 1.2421875,0 2.2148434,-0.3515625 2.9062504,-1.0664063 0.421875,-0.46875 0.726562,-1.0195312 0.867187,-1.6757812 0.234375,-1.1015625 -0.105469,-1.8515625 -1.007812,-2.2617188 -0.46875,-0.2109375 -1.1484379,-0.3164062 -1.9921879,-0.3164062 H 5.0629791 L 3.9262603,-1.7565068 Z M 4.7700103,-15.139319 h 6.5039067 c 1.78125,0 2.917968,0.527343 3.445312,1.582031 0.292969,0.632812 0.375,1.347656 0.1875,2.179687 -0.1875,0.949219 -0.632812,1.7226567 -1.3125,2.3437504 -0.351562,0.3398438 -0.820312,0.6328125 -1.382812,0.8789063 0.691406,0.3046875 1.195312,0.6328125 1.511718,1.0195312 0.550782,0.65625 0.703125,1.5585938 0.445313,2.71875 -0.210938,0.9726563 -0.691406,1.8632813 -1.476563,2.6601563 -1.160156,1.18359374 -2.7421872,1.75781249 -4.7460934,1.75781249 H 1.5473541 Z m 0,0"
       style="fill:#000000;fill-opacity:1;fill-rule:nonzero;stroke:none"
       aria-label="B"
       transform="matrix(1.3333333,0,0,1.3333333,179.94858,362.93967)"
       clip-path="url(#clipPath23)" />
    <path
       id="path24"
       d="m 50.27,284.859 c 2.3,10.223 9.14,18.836 18.578,23.391 9.433,4.559 20.433,4.559 29.871,0 9.433,-4.555 16.277,-13.168 18.574,-23.391"
       style="fill:none;stroke:#000000;stroke-width:0.9216;stroke-linecap:butt;stroke-linejoin:miter;stroke-miterlimit:3.25;stroke-dasharray:0.9216, 5.5296;stroke-dashoffset:0;stroke-opacity:1"
       transform="scale(1.3333333)" />
    <path
       id="path25"
       d="m 78.754,311.668 10.055,3.352 v -6.704 z"
       style="fill:#000000;fill-opacity:1;fill-rule:evenodd;stroke:none"
       transform="scale(1.3333333)" />
    <path
       id="path26"
       d="m 5.5544322,-11.027851 -1.5585937,7.3359376 c -0.1289063,0.5507812 -0.1289063,1.0078125 -0.023437,1.3710937 0.1875,0.65625 0.7148437,0.984375 1.6289062,0.984375 1.2773438,0 2.296875,-0.5625 3.0117188,-1.7226562 0.3867187,-0.6210938 0.6796875,-1.4765625 0.9140625,-2.5546875 l 1.160157,-5.4140626 h 1.851561 L 10.195057,-5.071875e-4 H 8.4489635 L 8.800526,-1.6294134 c -0.328125,0.421875 -0.6914063,0.78515621 -1.1132813,1.07812496 -0.84375,0.57421875 -1.7578125,0.8671875 -2.765625,0.8671875 -1.5820312,0 -2.53125,-0.52734375 -2.8710937,-1.58203126 -0.1875,-0.5742187 -0.1875,-1.3125 0,-2.2617187 l 1.6054687,-7.5000001 z m 0,0"
       style="fill:#000000;fill-opacity:1;fill-rule:nonzero;stroke:none"
       aria-label="u"
       transform="matrix(1.3333333,0,0,1.3333333,97.703465,442.09052)" />
    <path
       id="path27"
       d="m 6.878651,-7.4536323 c 0.2226562,0.1640625 0.4101562,0.4101562 0.5976562,0.7265625 l 0.2226563,-0.984375 H 8.894276 l -1.5,7.08984374 C 7.1833385,0.35105519 6.878651,1.1479302 6.456776,1.7104302 c -0.7734375,1.0546875 -1.8984375,1.59375 -3.4101563,1.59375 -0.84375,0 -1.5,-0.1992188 -1.9921875,-0.5625 C 0.56224475,2.3666802 0.35130725,1.7690239 0.456776,0.97214894 H 1.8044322 C 1.7809947,1.3237114 1.863026,1.5932427 2.003651,1.7807427 c 0.234375,0.2929687 0.6796875,0.4335937 1.3007812,0.4335937 1.0078125,0 1.7460938,-0.3515625 2.203125,-1.0546875 0.2695313,-0.41015621 0.5039063,-1.1601562125 0.7148438,-2.2265625 -0.3398438,0.38671879 -0.7148438,0.67968754 -1.1132813,0.86718754 -0.421875,0.1992187475 -0.9257812,0.3046875 -1.5351562,0.3046875 -0.8320313,0 -1.5234375,-0.3046875 -2.0273438,-0.890625 C 1.0427135,-1.3950386 0.93724475,-2.3794136 1.2302135,-3.7622261 1.5231822,-5.0630073 2.0388072,-6.0825386 2.847401,-6.8208198 c 0.7851562,-0.7265625 1.6289062,-1.1015625 2.5195312,-1.1015625 0.6210938,0 1.125,0.1523437 1.5117188,0.46875 z m -1.5117188,0.6914062 c -0.9140625,0 -1.6289062,0.4335938 -2.15625,1.3007813 -0.28125,0.4570312 -0.5039062,1.0546875 -0.65625,1.8046875 -0.1875,0.8789062 -0.140625,1.546875 0.1054688,2.0039062 0.2578125,0.4570313 0.6914062,0.67968754 1.3007812,0.67968754 0.9375,0 1.6757813,-0.41015624 2.25,-1.26562504 0.3046875,-0.4804687 0.5273438,-1.03125 0.6679688,-1.6757812 0.2109375,-0.9726563 0.1640625,-1.6875 -0.140625,-2.1445313 -0.2929688,-0.4570312 -0.75,-0.703125 -1.3710938,-0.703125 z m 0,0"
       style="fill:#000000;fill-opacity:1;fill-rule:nonzero;stroke:none"
       aria-label="g"
       transform="matrix(1.3333333,0,0,1.3333333,113.26597,447.31708)" />
    <path
       id="path28"
       d="m 117.293,284.859 c -2.297,-10.222 -9.141,-18.839 -18.574,-23.394 -9.438,-4.555 -20.438,-4.555 -29.871,0 -9.438,4.555 -16.278,13.172 -18.578,23.394"
       style="fill:none;stroke:#000000;stroke-width:0.9216;stroke-linecap:butt;stroke-linejoin:miter;stroke-miterlimit:3.25;stroke-dasharray:0.9216, 5.5296;stroke-dashoffset:0;stroke-opacity:1"
       transform="scale(1.3333333)" />
    <path
       id="path29"
       d="m 88.809,258.047 -10.055,-3.352 v 6.703 z"
       style="fill:#000000;fill-opacity:1;fill-rule:evenodd;stroke:none"
       transform="scale(1.3333333)" />
    <path
       id="path30"
       d="m 5.5544322,-11.02738 -1.5585937,7.3359379 c -0.1289063,0.5507812 -0.1289063,1.0078125 -0.023437,1.3710937 0.1875,0.65625 0.7148437,0.984375 1.6289062,0.984375 1.2773438,0 2.296875,-0.5625 3.0117188,-1.7226562 0.3867187,-0.6210938 0.6796875,-1.4765625 0.9140625,-2.5546875 l 1.160156,-5.4140629 h 1.851562 L 10.195057,-3.5875e-5 H 8.4489635 L 8.800526,-1.6289421 c -0.328125,0.421875 -0.6914063,0.78515623 -1.1132813,1.07812498 -0.84375,0.57421875 -1.7578125,0.8671875 -2.765625,0.8671875 -1.5820312,0 -2.53125,-0.52734375 -2.8710937,-1.58203128 -0.1875,-0.5742187 -0.1875,-1.3125 0,-2.2617187 L 3.6559947,-11.02738 Z m 0,0"
       style="fill:#000000;fill-opacity:1;fill-rule:nonzero;stroke:none"
       aria-label="u"
       transform="matrix(1.3333333,0,0,1.3333333,97.703465,322.52349)" />
    <path
       id="path31"
       d="m 6.878651,-7.453161 c 0.2226562,0.1640625 0.4101562,0.4101563 0.5976562,0.7265625 l 0.2226563,-0.984375 H 8.894276 l -1.5,7.08984375 C 7.1833385,0.3515265 6.878651,1.1484015 6.456776,1.7109015 c -0.7734375,1.0546875 -1.8984375,1.59375 -3.4101563,1.59375 -0.84375,0 -1.5,-0.1992187 -1.9921875,-0.5625 C 0.56224475,2.3671515 0.35130725,1.7694953 0.456776,0.97262025 H 1.8044322 C 1.7809947,1.3241828 1.863026,1.593714 2.003651,1.781214 c 0.234375,0.2929688 0.6796875,0.4335938 1.3007812,0.4335938 1.0078125,0 1.7460938,-0.3515625 2.203125,-1.0546875 C 5.7770885,0.749964 6.0114635,-3.6e-5 6.222401,-1.0664422 5.8825572,-0.6797235 5.5075572,-0.38675475 5.1091197,-0.19925475 4.6872447,-3.6e-5 4.1833385,0.10543275 3.5739635,0.10543275 c -0.8320313,0 -1.5234375,-0.3046875 -2.0273438,-0.890625 C 1.0427135,-1.3945672 0.93724475,-2.3789422 1.2302135,-3.7617547 1.5231822,-5.062536 2.0388072,-6.0820672 2.847401,-6.8203485 3.6325572,-7.546911 4.4763072,-7.921911 5.3669322,-7.921911 c 0.6210938,0 1.125,0.1523438 1.5117188,0.46875 z m -1.5117188,0.6914063 c -0.9140625,0 -1.6289062,0.4335937 -2.15625,1.3007812 -0.28125,0.4570313 -0.5039062,1.0546875 -0.65625,1.8046875 -0.1875,0.8789063 -0.140625,1.546875 0.1054688,2.0039063 0.2578125,0.4570312 0.6914062,0.67968745 1.3007812,0.67968745 0.9375,0 1.6757813,-0.41015625 2.25,-1.26562495 0.3046875,-0.4804688 0.5273438,-1.03125 0.6679688,-1.6757813 0.2109375,-0.9726562 0.1640625,-1.6875 -0.140625,-2.1445312 -0.2929688,-0.4570313 -0.75,-0.703125 -1.3710938,-0.703125 z m 0,0"
       style="fill:#000000;fill-opacity:1;fill-rule:nonzero;stroke:none"
       aria-label="g"
       transform="matrix(1.3333333,0,0,1.3333333,113.26597,327.75005)" />
    <path
       id="path32"
       d="m 53.957,284.859 c 0,0.977 -0.391,1.914 -1.082,2.606 -0.691,0.691 -1.629,1.078 -2.605,1.078 -0.977,0 -1.915,-0.387 -2.606,-1.078 -0.691,-0.692 -1.082,-1.629 -1.082,-2.606 0,-0.98 0.391,-1.918 1.082,-2.609 0.691,-0.691 1.629,-1.078 2.606,-1.078 0.976,0 1.914,0.387 2.605,1.078 0.691,0.691 1.082,1.629 1.082,2.609 z"
       style="fill:#000000;fill-opacity:1;fill-rule:evenodd;stroke:none"
       transform="scale(1.3333333)" />
    <path
       id="path33"
       d="m 120.98,284.859 c 0,0.977 -0.386,1.914 -1.078,2.606 -0.691,0.691 -1.629,1.078 -2.609,1.078 -0.977,0 -1.914,-0.387 -2.605,-1.078 -0.692,-0.692 -1.079,-1.629 -1.079,-2.606 0,-0.98 0.387,-1.918 1.079,-2.609 0.691,-0.691 1.628,-1.078 2.605,-1.078 0.98,0 1.918,0.387 2.609,1.078 0.692,0.691 1.078,1.629 1.078,2.609 z"
       style="fill:#000000;fill-opacity:1;fill-rule:evenodd;stroke:none"
       transform="scale(1.3333333)" />
    <path
       id="path34"
       d="m 4.3470878,0.33887775 c -1.3710938,0 -2.3789063,-0.38671875 -3.0234375,-1.16015625 -0.6210938,-0.7617188 -0.93750005,-1.6875 -0.93750005,-2.7773438 H 1.9330253 c 0.070313,0.7617188 0.2226562,1.3125 0.4335937,1.6523438 0.375,0.6210937 1.078125,0.9257812 2.0742188,0.9257812 0.7734375,0 1.3945312,-0.2109375 1.8632812,-0.6328125 0.46875,-0.3984375 0.703125,-0.9375 0.703125,-1.59375 0,-0.8203125 -0.234375,-1.3710937 -0.7382812,-1.6992187 -0.4921875,-0.328125 -1.171875,-0.4804688 -2.0625,-0.4804688 -0.09375,0 -0.1875,0 -0.2929688,0 -0.09375,0 -0.1992187,0 -0.3164062,0.011719 v -1.3125 c 0.1523437,0.023437 0.28125,0.035156 0.3867187,0.035156 0.09375,0 0.2226563,0.023437 0.3398438,0.023437 0.5507812,0 1.0078125,-0.1054687 1.359375,-0.2695312 0.6210937,-0.3046875 0.9375,-0.8554688 0.9375,-1.6523438 0,-0.5859375 -0.1992188,-1.0195312 -0.6210938,-1.3359375 -0.421875,-0.3281242 -0.9023437,-0.4921882 -1.4414062,-0.4921882 -0.9960938,0 -1.6875,0.339844 -2.0507813,0.9960945 C 2.2963065,-9.071279 2.179119,-8.555654 2.1556815,-7.8876853 H 0.69083775 c 0,-0.8671875 0.1640625,-1.6289062 0.51562505,-2.2265627 0.609375,-1.089844 1.6640625,-1.652344 3.1757812,-1.652344 1.21875,0 2.1328125,0.269531 2.7890625,0.808594 0.65625,0.539062 0.9726563,1.3125002 0.9726563,2.3203127 0,0.7265625 -0.1757813,1.3125 -0.5625,1.7460938 -0.2578125,0.28125 -0.5625,0.5039062 -0.9492188,0.65625 0.6210938,0.1640625 1.1132813,0.5039062 1.453125,0.9960937 0.3515625,0.4804688 0.515625,1.0664063 0.515625,1.7578125 0,1.125 -0.3632812,2.0507813 -1.1015625,2.7539063 -0.75,0.71484375 -1.78125,1.06640625 -3.1523437,1.06640675 z m 0,0"
       style="fill:#000000;fill-opacity:1;fill-rule:nonzero;stroke:none"
       aria-label="3"
       transform="matrix(1.3333333,0,0,1.3333333,105.40701,492.00129)"
       clip-path="url(#clipPath35)" />
    <path
       id="path36"
       d="m 234.59,284.859 -0.996,0.836 -1.141,0.649 -1.238,0.426 -1.297,0.179 -1.305,-0.074 -1.269,-0.324 -1.184,-0.559 -1.062,-0.762 -0.899,-0.929 -0.711,-1.051 -0.508,-1.117 -0.296,-1.125 -0.082,-1.082 0.109,-0.981 0.281,-0.828 0.418,-0.637 0.52,-0.41 0.574,-0.168 0.582,0.09 0.543,0.336 0.457,0.567 0.328,0.773 0.164,0.937 -0.019,1.055 -0.227,1.117 -0.441,1.129 -0.649,1.074 -0.844,0.973 -1.015,0.82 -1.149,0.625 -1.246,0.403 -1.3,0.152 -1.305,-0.101 -1.262,-0.348 -1.176,-0.582 -1.043,-0.781 -0.882,-0.946 -0.692,-1.058 -0.484,-1.121 -0.274,-1.125 -0.062,-1.071 0.129,-0.968 0.297,-0.809 0.433,-0.613 0.528,-0.387 0.578,-0.141 0.578,0.114 0.535,0.359 0.445,0.594 0.313,0.793 0.148,0.949 -0.043,1.066 -0.25,1.121 -0.465,1.122 -0.668,1.07 -0.863,0.957 -1.027,0.805 -1.164,0.601 -1.254,0.375 -1.305,0.125 -1.301,-0.125 -1.254,-0.375 -1.164,-0.601 -1.027,-0.805 -0.863,-0.957 -0.672,-1.07 -0.461,-1.122 -0.25,-1.121 -0.043,-1.066 0.148,-0.949 0.313,-0.793 0.445,-0.594 0.535,-0.359 0.579,-0.114 0.578,0.141 0.527,0.387 0.434,0.613 0.296,0.809 0.129,0.968 -0.066,1.071 -0.27,1.125 -0.484,1.121 -0.691,1.058 -0.883,0.946 -1.043,0.781 -1.176,0.582 -1.262,0.348 -1.304,0.101 -1.301,-0.152 -1.246,-0.403 -1.153,-0.625 -1.011,-0.82 -0.844,-0.973 -0.648,-1.074 -0.442,-1.129 -0.226,-1.117 -0.024,-1.055 0.168,-0.937 0.328,-0.773 0.457,-0.567 0.539,-0.336 0.582,-0.09 0.575,0.168 0.519,0.41 0.422,0.637 0.281,0.828 0.11,0.981 -0.086,1.082 -0.293,1.125 -0.508,1.117 -0.711,1.051 -0.899,0.929 -1.062,0.762 -1.184,0.559 -1.269,0.324 -1.309,0.074 -1.293,-0.179 -1.242,-0.426 -1.137,-0.649 -0.996,-0.836"
       style="fill:none;stroke:#000000;stroke-width:0.9216;stroke-linecap:square;stroke-linejoin:miter;stroke-miterlimit:3.25;stroke-dasharray:none;stroke-opacity:1"
       transform="scale(1.3333333)" />
    <path
       id="path37"
       d="m 7.2894782,-8.7430593 c 0.8671875,0 1.5351562,-0.1054688 2.0273437,-0.3632813 0.7617191,-0.375 1.1367191,-1.0546874 1.1367191,-2.0273434 0,-0.984375 -0.398438,-1.664063 -1.2304691,-2.003907 -0.4335937,-0.1875 -1.1132812,-0.292968 -2.0039062,-0.292968 H 3.5511969 v 4.6874997 z m 0.6914062,6.984375 c 1.2421875,0 2.1562496,-0.3515625 2.6835936,-1.0664063 0.339844,-0.46875 0.503906,-1.0195312 0.503906,-1.6757812 0,-1.1015625 -0.480468,-1.8515625 -1.4765621,-2.2617188 -0.5039062,-0.2109375 -1.2070312,-0.3164062 -2.0625,-0.3164062 h -4.078125 v 5.3203125 z M 1.5472907,-15.141497 h 6.5039062 c 1.7695313,0 3.0351561,0.527344 3.7968751,1.582031 0.421875,0.632813 0.65625,1.347657 0.65625,2.179688 0,0.949219 -0.28125,1.7226562 -0.820313,2.3437499 -0.28125,0.3398438 -0.679687,0.6328125 -1.207031,0.8789063 0.761719,0.3046875 1.347656,0.6328125 1.734375,1.0195312 0.667969,0.65625 1.007813,1.5585938 1.007813,2.71875 0,0.9726563 -0.292969,1.8632813 -0.902344,2.6601563 -0.914063,1.18359374 -2.3671876,1.7578124875 -4.3710938,1.7578124875 H 1.5472907 Z m 0,0"
       style="fill:#000000;fill-opacity:1;fill-rule:nonzero;stroke:none"
       aria-label="B"
       transform="matrix(1.3333333,0,0,1.3333333,269.31585,416.97382)" />
    <path
       id="path38"
       d="m 301.613,284.859 1,-0.839 1.137,-0.649 1.238,-0.422 1.297,-0.179 1.305,0.074 1.269,0.324 1.188,0.555 1.058,0.765 0.899,0.93 0.715,1.047 0.504,1.117 0.297,1.129 0.085,1.078 -0.113,0.981 -0.281,0.828 -0.418,0.636 -0.52,0.414 -0.574,0.164 -0.582,-0.085 -0.543,-0.336 -0.453,-0.571 -0.332,-0.773 -0.164,-0.938 0.02,-1.054 0.23,-1.117 0.437,-1.126 0.653,-1.078 0.84,-0.972 1.015,-0.821 1.149,-0.625 1.25,-0.398 1.297,-0.156 1.304,0.101 1.262,0.352 1.176,0.578 1.043,0.781 0.883,0.946 0.691,1.058 0.484,1.121 0.274,1.125 0.062,1.074 -0.129,0.965 -0.296,0.809 -0.434,0.617 -0.527,0.387 -0.579,0.14 -0.578,-0.113 -0.535,-0.363 -0.445,-0.594 -0.313,-0.789 -0.148,-0.953 0.043,-1.063 0.25,-1.125 0.465,-1.121 0.668,-1.07 0.863,-0.957 1.031,-0.801 1.16,-0.605 1.254,-0.371 1.305,-0.129 1.301,0.129 1.254,0.371 1.164,0.605 1.027,0.801 0.863,0.957 0.672,1.07 0.461,1.121 0.25,1.125 0.043,1.063 -0.148,0.953 -0.313,0.789 -0.445,0.594 -0.531,0.363 -0.582,0.113 -0.578,-0.14 -0.528,-0.387 -0.43,-0.617 -0.3,-0.809 -0.129,-0.965 0.066,-1.074 0.27,-1.125 0.488,-1.121 0.691,-1.058 0.879,-0.946 1.047,-0.781 1.172,-0.578 1.262,-0.352 1.304,-0.101 1.301,0.156 1.246,0.398 1.153,0.625 1.011,0.821 0.844,0.972 0.649,1.078 0.441,1.126 0.227,1.117 0.023,1.054 -0.168,0.938 -0.328,0.773 -0.457,0.571 -0.539,0.336 -0.582,0.085 -0.574,-0.164 -0.52,-0.414 -0.422,-0.636 -0.281,-0.828 -0.109,-0.981 0.085,-1.078 0.293,-1.129 0.508,-1.117 0.711,-1.047 0.903,-0.93 1.058,-0.765 1.184,-0.555 1.269,-0.324 1.309,-0.074 1.297,0.179 1.238,0.422 1.137,0.649 0.996,0.839"
       style="fill:none;stroke:#000000;stroke-width:0.9216;stroke-linecap:square;stroke-linejoin:miter;stroke-miterlimit:3.25;stroke-dasharray:none;stroke-opacity:1"
       transform="scale(1.3333333)" />
    <path
       id="path39"
       d="m 7.2879009,-8.7408818 c 0.8671875,0 1.5351563,-0.1054688 2.0273438,-0.3632813 0.7617183,-0.375 1.1367183,-1.0546879 1.1367183,-2.0273439 0,-0.984375 -0.398437,-1.664062 -1.2304683,-2.003906 -0.4335938,-0.1875 -1.1132813,-0.292969 -2.0039063,-0.292969 H 3.5496197 v 4.6875002 z m 0.6914063,6.984375 c 1.2421875,0 2.1562498,-0.3515625 2.6835938,-1.0664063 0.339844,-0.46875 0.503906,-1.0195312 0.503906,-1.6757812 0,-1.1015625 -0.480469,-1.8515625 -1.4765623,-2.2617188 -0.5039063,-0.2109375 -1.2070313,-0.3164062 -2.0625,-0.3164062 h -4.078125 v 5.3203125 z M 1.5457134,-15.139319 h 6.5039063 c 1.7695312,0 3.0351563,0.527343 3.7968753,1.582031 0.421875,0.632812 0.65625,1.347656 0.65625,2.179687 0,0.949219 -0.28125,1.7226567 -0.820313,2.3437504 -0.28125,0.3398438 -0.679687,0.6328125 -1.207031,0.8789063 0.761719,0.3046875 1.347656,0.6328125 1.734375,1.0195312 0.667969,0.65625 1.007812,1.5585938 1.007812,2.71875 0,0.9726563 -0.292968,1.8632813 -0.902343,2.6601563 -0.914063,1.18359374 -2.3671878,1.75781249 -4.3710941,1.75781249 H 1.5457134 Z m 0,0"
       style="fill:#000000;fill-opacity:1;fill-rule:nonzero;stroke:none"
       aria-label="B"
       transform="matrix(1.3333333,0,0,1.3333333,425.70858,362.93967)" />
    <path
       id="path40"
       d="m 301.613,284.859 0.532,1.133 0.3,1.246 0.051,1.313 -0.215,1.312 -0.469,1.25 -0.703,1.133 -0.902,0.953 -1.055,0.742 -1.148,0.508 -1.192,0.266 -1.175,0.039 -1.125,-0.164 -1.028,-0.328 -0.898,-0.453 -0.754,-0.532 -0.582,-0.558 -0.406,-0.555 -0.219,-0.508 -0.027,-0.437 0.156,-0.34 0.332,-0.227 0.496,-0.097 0.629,0.043 0.738,0.195 0.801,0.352 0.828,0.519 0.793,0.688 0.715,0.855 0.582,1.008 0.398,1.137 0.184,1.226 -0.066,1.274 -0.325,1.265 -0.578,1.195 -0.808,1.063 -1,0.883 -1.141,0.664 -1.227,0.414 -1.253,0.156 -1.227,-0.086 -1.152,-0.304 -1.039,-0.493 -0.895,-0.625 -0.742,-0.714 -0.574,-0.75 -0.407,-0.735 -0.238,-0.68 -0.078,-0.585 0.078,-0.458 0.227,-0.308 0.355,-0.149 0.473,0.028 0.558,0.203 0.621,0.383 0.641,0.558 0.617,0.723 0.543,0.879 0.426,1.012 0.262,1.121 0.054,1.191 -0.175,1.219 -0.426,1.195 -0.664,1.113 -0.891,0.977 -1.078,0.789 -1.211,0.563 -1.289,0.308 -1.301,0.047 -1.258,-0.207 -1.16,-0.437 -1.019,-0.633 -0.86,-0.778 -0.683,-0.875 -0.504,-0.918 -0.336,-0.91 -0.172,-0.851 -0.035,-0.754 0.094,-0.617 0.199,-0.454 0.297,-0.269 0.367,-0.07 0.426,0.129 0.457,0.328 0.457,0.519 0.43,0.695 0.363,0.852 0.254,0.981 0.109,1.078 -0.078,1.136 -0.289,1.149 -0.516,1.105 -0.738,1.016 -0.953,0.871 -1.125,0.68 -1.258,0.449 -1.32,0.191 -1.328,-0.07 -1.27,-0.328 -1.152,-0.559 -0.992,-0.758 -0.805,-0.906 -0.602,-1.004 -0.402,-1.05 -0.211,-1.043 -0.051,-0.993 0.09,-0.894 0.199,-0.762 0.278,-0.598 0.332,-0.41 0.359,-0.211 h 0.375 l 0.359,0.211 0.332,0.41 0.278,0.598 0.199,0.762 0.09,0.894 -0.047,0.993 -0.215,1.043 -0.402,1.05 -0.602,1.004 -0.804,0.906 -0.993,0.758 -1.152,0.559 -1.27,0.328 -1.328,0.07 -1.32,-0.191 -1.254,-0.449 -1.129,-0.68 -0.949,-0.871 -0.742,-1.016 -0.516,-1.105 -0.289,-1.149 -0.078,-1.136 0.109,-1.078 0.254,-0.981 0.364,-0.852 0.429,-0.695 0.461,-0.519 0.453,-0.328 0.426,-0.129 0.367,0.07 0.297,0.269 0.199,0.454 0.094,0.617 -0.031,0.754 -0.176,0.851 -0.336,0.91 -0.504,0.918 -0.679,0.875 -0.86,0.778 -1.023,0.633 -1.16,0.437 -1.258,0.207 -1.301,-0.047 -1.289,-0.308 -1.211,-0.563 -1.078,-0.789 -0.891,-0.977 -0.664,-1.113 -0.426,-1.195 -0.175,-1.219 0.054,-1.191 0.262,-1.121 0.426,-1.012 0.543,-0.879 0.617,-0.723 0.641,-0.558 0.621,-0.383 0.558,-0.203 0.473,-0.028 0.359,0.149 0.223,0.308 0.078,0.458 -0.078,0.585 -0.238,0.68 -0.407,0.735 -0.574,0.75 -0.742,0.714 -0.894,0.625 -1.04,0.493 -1.148,0.304 -1.227,0.086 -1.257,-0.156 -1.227,-0.414 -1.141,-0.664 -1,-0.883 -0.808,-1.063 -0.578,-1.195 -0.324,-1.265 -0.063,-1.274 0.18,-1.226 0.398,-1.137 0.582,-1.008 0.715,-0.855 0.797,-0.688 0.824,-0.519 0.801,-0.352 0.738,-0.195 0.633,-0.043 0.492,0.097 0.332,0.227 0.156,0.34 -0.027,0.437 -0.219,0.508 -0.406,0.555 -0.582,0.558 -0.75,0.532 -0.902,0.453 -1.028,0.328 -1.121,0.164 -1.179,-0.039 -1.192,-0.266 -1.148,-0.508 -1.051,-0.742 -0.902,-0.953 -0.707,-1.133 -0.469,-1.25 -0.215,-1.312 0.051,-1.313 0.301,-1.246 0.531,-1.133"
       style="fill:none;stroke:#000000;stroke-width:0.9216;stroke-linecap:square;stroke-linejoin:miter;stroke-miterlimit:3.25;stroke-dasharray:none;stroke-opacity:1"
       transform="scale(1.3333333)" />
    <path
       id="path41"
       d="m 5.2614633,-11.236835 c 0.8671875,0 1.6054687,0.210937 2.2617187,0.65625 0.3515625,0.234375 0.6914063,0.5976562 1.0664063,1.0312499 v -1.3828129 h 1.7109377 v 10.04296919 c 0,1.39453125 -0.210938,2.51953121 -0.6328127,3.31640621 -0.7617188,1.5 -2.2148438,2.2617188 -4.3476563,2.2617188 -1.1835937,0 -2.1914062,-0.2695313 -3,-0.796875 C 1.4997445,3.3647274 1.054432,2.5092587 0.94896325,1.3725399 H 2.8474008 c 0.082031,0.5039063 0.2578125,0.890625 0.5273437,1.1601563 0.421875,0.3984375 1.078125,0.609375 1.9921875,0.609375 1.40625,0 2.34375,-0.5039063 2.7890625,-1.4882813 0.2695313,-0.5976562 0.375,-1.65234371 0.3515625,-3.1757812 -0.3515625,0.55078124 -0.796875,0.97265624 -1.3242187,1.25390624 -0.5273438,0.26953125 -1.2304688,0.421875 -2.0742188,0.421875 -1.2070312,0 -2.2617187,-0.421875 -3.140625,-1.27734374 -0.890625,-0.8554688 -1.359375,-2.25 -1.359375,-4.21875 0,-1.8398438 0.46875,-3.2929688 1.359375,-4.3242188 0.9023438,-1.0429684 2.0039063,-1.5703124 3.2929688,-1.5703124 z m 3.328125,5.6835937 c 0,-1.3710938 -0.2929688,-2.390625 -0.84375,-3.0351563 -0.5625,-0.65625 -1.2890625,-0.9960937 -2.1445313,-0.9960937 -1.3125,0 -2.2265625,0.609375 -2.6835937,1.8398437 -0.2578125,0.65625 -0.3867188,1.5 -0.3867188,2.5546875 0,1.2421875 0.2578125,2.1914063 0.7617188,2.8476563 0.4921875,0.65625 1.1835937,0.9726562 2.0273437,0.9726562 1.3359375,0 2.2851563,-0.5976562 2.8125,-1.7929687 0.3164063,-0.703125 0.4570313,-1.4765625 0.4570313,-2.390625 z m 0,0"
       style="fill:#000000;fill-opacity:1;fill-rule:nonzero;stroke:none"
       aria-label="g"
       transform="matrix(1.3333333,0,0,1.3333333,349.09409,452.72073)" />
    <path
       id="path42"
       d="m 301.613,284.859 0.532,-1.136 0.3,-1.246 0.051,-1.309 -0.215,-1.316 -0.469,-1.25 -0.703,-1.129 -0.902,-0.957 -1.055,-0.743 -1.148,-0.507 -1.192,-0.266 -1.175,-0.039 -1.125,0.164 -1.028,0.332 -0.898,0.449 -0.754,0.532 -0.582,0.562 -0.406,0.551 -0.219,0.508 -0.027,0.437 0.156,0.34 0.332,0.226 0.496,0.098 0.629,-0.043 0.738,-0.191 0.801,-0.356 0.828,-0.519 0.793,-0.688 0.715,-0.855 0.582,-1.008 0.398,-1.133 0.184,-1.23 -0.066,-1.274 -0.325,-1.265 -0.578,-1.192 -0.808,-1.066 -1,-0.883 -1.141,-0.66 -1.227,-0.414 -1.253,-0.16 -1.227,0.086 -1.152,0.308 -1.039,0.488 -0.895,0.629 -0.742,0.715 -0.574,0.746 -0.407,0.739 -0.238,0.679 -0.078,0.582 0.078,0.457 0.227,0.313 0.355,0.144 0.473,-0.027 0.558,-0.203 0.621,-0.383 0.641,-0.555 0.617,-0.726 0.543,-0.875 0.426,-1.016 0.262,-1.117 0.054,-1.195 -0.175,-1.219 -0.426,-1.195 -0.664,-1.11 -0.891,-0.976 -1.078,-0.789 -1.211,-0.563 -1.289,-0.308 -1.301,-0.047 -1.258,0.207 -1.16,0.437 -1.019,0.629 -0.86,0.781 -0.683,0.875 -0.504,0.918 -0.336,0.91 -0.172,0.852 -0.035,0.754 0.094,0.613 0.199,0.453 0.297,0.27 0.367,0.07 0.426,-0.129 0.457,-0.328 0.457,-0.519 0.43,-0.696 0.363,-0.851 0.254,-0.981 0.109,-1.078 -0.078,-1.133 -0.289,-1.148 -0.516,-1.109 -0.738,-1.016 -0.953,-0.871 -1.125,-0.68 -1.258,-0.449 -1.32,-0.191 -1.328,0.07 -1.27,0.328 -1.152,0.562 -0.992,0.754 -0.805,0.907 -0.602,1.007 -0.402,1.051 -0.211,1.043 -0.051,0.988 0.09,0.895 0.199,0.762 0.278,0.597 0.332,0.411 0.359,0.21 h 0.375 l 0.359,-0.21 0.332,-0.411 0.278,-0.597 0.199,-0.762 0.09,-0.895 -0.047,-0.988 -0.215,-1.043 -0.402,-1.051 -0.602,-1.007 -0.804,-0.907 -0.993,-0.754 -1.152,-0.562 -1.27,-0.328 -1.328,-0.07 -1.32,0.191 -1.254,0.449 -1.129,0.68 -0.949,0.871 -0.742,1.016 -0.516,1.109 -0.289,1.148 -0.078,1.133 0.109,1.078 0.254,0.981 0.364,0.851 0.429,0.696 0.461,0.519 0.453,0.328 0.426,0.129 0.367,-0.07 0.297,-0.27 0.199,-0.453 0.094,-0.613 -0.031,-0.754 -0.176,-0.852 -0.336,-0.91 -0.504,-0.918 -0.679,-0.875 -0.86,-0.781 -1.023,-0.629 -1.16,-0.437 -1.258,-0.207 -1.301,0.047 -1.289,0.308 -1.211,0.563 -1.078,0.789 -0.891,0.976 -0.664,1.11 -0.426,1.195 -0.175,1.219 0.054,1.195 0.262,1.117 0.426,1.016 0.543,0.875 0.617,0.726 0.641,0.555 0.621,0.383 0.558,0.203 0.473,0.027 0.359,-0.144 0.223,-0.313 0.078,-0.457 -0.078,-0.582 -0.238,-0.679 -0.407,-0.739 -0.574,-0.746 -0.742,-0.715 -0.894,-0.629 -1.04,-0.488 -1.148,-0.308 -1.227,-0.086 -1.257,0.16 -1.227,0.414 -1.141,0.66 -1,0.883 -0.808,1.066 -0.578,1.192 -0.324,1.265 -0.063,1.274 0.18,1.23 0.398,1.133 0.582,1.008 0.715,0.855 0.797,0.688 0.824,0.519 0.801,0.356 0.738,0.191 0.633,0.043 0.492,-0.098 0.332,-0.226 0.156,-0.34 -0.027,-0.437 -0.219,-0.508 -0.406,-0.551 -0.582,-0.562 -0.75,-0.532 -0.902,-0.449 -1.028,-0.332 -1.121,-0.164 -1.179,0.039 -1.192,0.266 -1.148,0.507 -1.051,0.743 -0.902,0.957 -0.707,1.129 -0.469,1.25 -0.215,1.316 0.051,1.309 0.301,1.246 0.531,1.136"
       style="fill:none;stroke:#000000;stroke-width:0.9216;stroke-linecap:square;stroke-linejoin:miter;stroke-miterlimit:3.25;stroke-dasharray:none;stroke-opacity:1"
       transform="scale(1.3333333)" />
    <path
       id="path43"
       d="m 5.2614633,-11.239295 c 0.8671875,0 1.6054687,0.210938 2.2617187,0.65625 0.3515625,0.234375 0.6914063,0.5976567 1.0664063,1.0312504 v -1.3828124 h 1.7109377 v 10.04296869 c 0,1.39453125 -0.210938,2.51953121 -0.6328127,3.31640621 -0.7617188,1.5 -2.2148438,2.2617188 -4.3476563,2.2617188 -1.1835937,0 -2.1914062,-0.2695313 -3,-0.796875 C 1.4997445,3.3622679 1.054432,2.5067992 0.94896325,1.3700804 H 2.8474008 c 0.082031,0.5039063 0.2578125,0.890625 0.5273437,1.1601563 0.421875,0.3984375 1.078125,0.609375 1.9921875,0.609375 1.40625,0 2.34375,-0.5039063 2.7890625,-1.4882813 0.2695313,-0.5976562 0.375,-1.65234371 0.3515625,-3.1757812 -0.3515625,0.55078124 -0.796875,0.97265624 -1.3242187,1.25390624 -0.5273438,0.26953125 -1.2304688,0.421875 -2.0742188,0.421875 -1.2070312,0 -2.2617187,-0.421875 -3.140625,-1.27734374 -0.890625,-0.8554688 -1.359375,-2.25 -1.359375,-4.21875 0,-1.8398438 0.46875,-3.2929688 1.359375,-4.3242188 0.9023438,-1.0429689 2.0039063,-1.5703129 3.2929688,-1.5703129 z m 3.328125,5.6835942 c 0,-1.3710938 -0.2929688,-2.390625 -0.84375,-3.0351563 -0.5625,-0.65625 -1.2890625,-0.9960937 -2.1445313,-0.9960937 -1.3125,0 -2.2265625,0.609375 -2.6835937,1.8398437 -0.2578125,0.65625 -0.3867188,1.5 -0.3867188,2.5546875 0,1.2421875 0.2578125,2.1914063 0.7617188,2.8476563 0.4921875,0.65625 1.1835937,0.9726562 2.0273437,0.9726562 1.3359375,0 2.2851563,-0.5976562 2.8125,-1.7929687 0.3164063,-0.703125 0.4570313,-1.4765625 0.4570313,-2.390625 z m 0,0"
       style="fill:#000000;fill-opacity:1;fill-rule:nonzero;stroke:none"
       aria-label="g"
       transform="matrix(1.3333333,0,0,1.3333333,349.09409,327.19276)" />
    <path
       id="path44"
       d="m 238.277,284.859 c 0,0.977 -0.39,1.914 -1.082,2.606 -0.691,0.691 -1.629,1.078 -2.605,1.078 -0.977,0 -1.918,-0.387 -2.61,-1.078 -0.687,-0.692 -1.078,-1.629 -1.078,-2.606 0,-0.98 0.391,-1.918 1.078,-2.609 0.692,-0.691 1.633,-1.078 2.61,-1.078 0.976,0 1.914,0.387 2.605,1.078 0.692,0.691 1.082,1.629 1.082,2.609 z"
       style="fill:#000000;fill-opacity:1;fill-rule:evenodd;stroke:none"
       transform="scale(1.3333333)" />
    <path
       id="path45"
       d="m 305.301,284.859 c 0,0.977 -0.387,1.914 -1.078,2.606 -0.692,0.691 -1.629,1.078 -2.61,1.078 -0.976,0 -1.914,-0.387 -2.605,-1.078 -0.692,-0.692 -1.078,-1.629 -1.078,-2.606 0,-0.98 0.386,-1.918 1.078,-2.609 0.691,-0.691 1.629,-1.078 2.605,-1.078 0.981,0 1.918,0.387 2.61,1.078 0.691,0.691 1.078,1.629 1.078,2.609 z"
       style="fill:#000000;fill-opacity:1;fill-rule:evenodd;stroke:none"
       transform="scale(1.3333333)" />
    <path
       id="path46"
       d="M 5.5436893,-4.1494035 V -9.4814348 L 1.7819706,-4.1494035 Z M 5.5788456,-9.66e-4 V -2.860341 H 0.42259556 V -4.3017473 L 5.8015018,-11.77831 h 1.2421875 v 7.6289065 h 1.734375 v 1.2890625 h -1.734375 v 2.859375 z m 0,0"
       style="fill:#000000;fill-opacity:1;fill-rule:nonzero;stroke:none"
       aria-label="4"
       transform="matrix(1.3333333,0,0,1.3333333,351.16701,492.00129)"
       clip-path="url(#clipPath47)" />
  </g>
</svg>
