<?xml version="1.0" encoding="UTF-8" standalone="no"?>
<!-- Created with Inkscape (http://www.inkscape.org/) -->

<svg
   version="1.1"
   id="svg1"
   width="492"
   height="246.66667"
   viewBox="0 0 492 246.66667"
   sodipodi:docname="0ccx6gna81gsa.pdf"
   xmlns:inkscape="http://www.inkscape.org/namespaces/inkscape"
   xmlns:sodipodi="http://sodipodi.sourceforge.net/DTD/sodipodi-0.dtd"
   xmlns="http://www.w3.org/2000/svg"
   xmlns:svg="http://www.w3.org/2000/svg">
  <defs
     id="defs1">
    <clipPath
       clipPathUnits="userSpaceOnUse"
       id="clipPath20">
      <path
         d="m 53,146 h 4 v 7.602 h -4 z"
         transform="translate(-52.79986,-153.92398)"
         id="path20" />
    </clipPath>
    <clipPath
       clipPathUnits="userSpaceOnUse"
       id="clipPath25">
      <path
         d="m 209,56 h 9.879 V 68 H 209 Z"
         transform="translate(-209.55589,-64.2623)"
         id="path25" />
    </clipPath>
    <clipPath
       clipPathUnits="userSpaceOnUse"
       id="clipPath41">
      <path
         d="m 176,146 h 6 v 7.602 h -6 z"
         transform="translate(-175.67986,-153.92398)"
         id="path41" />
    </clipPath>
    <clipPath
       clipPathUnits="userSpaceOnUse"
       id="clipPath61">
      <path
         d="m 298,146 h 7 v 7.602 h -7 z"
         transform="translate(-298.55986,-153.92398)"
         id="path61" />
    </clipPath>
  </defs>
  <sodipodi:namedview
     id="namedview1"
     pagecolor="#ffffff"
     bordercolor="#999999"
     borderopacity="1"
     inkscape:showpageshadow="0"
     inkscape:pageopacity="0"
     inkscape:pagecheckerboard="0"
     inkscape:deskcolor="#d1d1d1">
    <inkscape:page
       x="0"
       y="0"
       id="page1"
       width="492"
       height="246.66667"
       margin="0"
       bleed="0" />
  </sodipodi:namedview>
  <g
     id="g1"
     inkscape:groupmode="layer"
     inkscape:label="">
    <path
       id="path1"
       d="m 36.305,97.746 -0.629,0.52 -0.715,0.414 -0.773,0.289 -0.813,0.152 -0.828,0.008 L 31.73,98.992 30.953,98.719 30.23,98.32 29.59,97.812 29.043,97.219 28.605,96.562 28.289,95.871 28.09,95.18 l -0.078,-0.668 0.031,-0.614 0.133,-0.527 0.219,-0.426 0.281,-0.304 0.32,-0.168 0.336,-0.024 0.332,0.117 0.297,0.258 0.238,0.387 0.164,0.5 0.071,0.586 -0.039,0.648 -0.161,0.692 -0.277,0.691 -0.395,0.672 -0.511,0.621 -0.61,0.539 -0.695,0.438 -0.766,0.32 -0.804,0.18 -0.824,0.043 -0.821,-0.106 -0.793,-0.242 -0.734,-0.375 -0.66,-0.484 -0.571,-0.579 -0.461,-0.644 -0.343,-0.688 -0.227,-0.695 -0.101,-0.672 0.007,-0.629 0.114,-0.55 0.199,-0.45 0.269,-0.332 0.313,-0.199 0.336,-0.055 0.336,0.09 0.305,0.227 0.253,0.359 0.184,0.473 0.09,0.57 -0.016,0.641 -0.129,0.679 -0.25,0.7 -0.371,0.675 -0.488,0.633 -0.59,0.563 -0.68,0.461 -0.75,0.347 -0.796,0.211 -0.825,0.075 -0.824,-0.075 -0.797,-0.211 -0.75,-0.347 -0.679,-0.461 -0.59,-0.563 -0.485,-0.633 -0.371,-0.675 -0.254,-0.7 -0.129,-0.679 -0.015,-0.641 0.09,-0.57 0.183,-0.473 0.254,-0.359 0.309,-0.227 0.332,-0.09 0.336,0.055 0.316,0.199 0.266,0.332 0.199,0.45 0.113,0.55 0.008,0.629 -0.102,0.672 -0.226,0.695 -0.344,0.688 -0.461,0.644 -0.566,0.579 -0.664,0.484 -0.735,0.375 -0.789,0.242 -0.82,0.106 L 10.129,99.098 9.324,98.918 8.562,98.598 7.863,98.16 7.254,97.621 6.742,97 6.348,96.328 6.07,95.637 5.914,94.945 5.871,94.297 l 0.07,-0.586 0.164,-0.5 0.239,-0.387 0.297,-0.258 0.332,-0.117 0.336,0.024 0.324,0.168 0.277,0.304 0.219,0.426 0.133,0.527 0.031,0.614 L 8.215,95.18 8.02,95.871 7.699,96.562 7.262,97.219 6.719,97.812 6.074,98.32 5.355,98.719 4.574,98.992 3.758,99.129 2.93,99.121 2.117,98.969 1.344,98.68 0.633,98.266 0,97.746"
       style="fill:none;stroke:#000000;stroke-width:0.6144;stroke-linecap:square;stroke-linejoin:miter;stroke-miterlimit:3.25;stroke-dasharray:none;stroke-opacity:1"
       transform="scale(1.3333333)" />
    <path
       id="path2"
       d="m 6.5386786,-7.0912322 c 0.2109375,0.1523437 0.3984375,0.3984375 0.5625,0.6914062 l 0.2226563,-0.9375 h 1.1367187 l -1.4296875,6.73828125 c -0.1992187,0.9375 -0.4921875,1.68750005 -0.890625,2.22656255 -0.7382812,1.0078125 -1.8046875,1.5117187 -3.234375,1.5117187 -0.8085937,0 -1.4296875,-0.1875 -1.8984375,-0.5390625 C 0.53867862,2.2486115 0.33945987,1.6861115 0.43320987,0.92439275 H 1.7105536 c -0.011719,0.33984375 0.058594,0.58593755 0.1992188,0.77343755 0.2109375,0.2695312 0.6328125,0.4101562 1.2304687,0.4101562 0.9609375,0 1.6640625,-0.3398437 2.0976563,-1.0078125 0.2578125,-0.3984375 0.4804687,-1.1015625 0.6796875,-2.1210937 -0.328125,0.3632812 -0.6796875,0.65624995 -1.0664063,0.8320312 -0.3867187,0.1875 -0.8789062,0.28125 -1.453125,0.28125 -0.796875,0 -1.4414062,-0.28125 -1.921875,-0.84375 C 0.99570987,-1.337326 0.89024112,-2.2631072 1.1714911,-3.587326 c 0.2695313,-1.2304687 0.7617188,-2.203125 1.5351563,-2.8945312 0.75,-0.6914063 1.5585937,-1.0546875 2.4023437,-1.0546875 0.5859375,0 1.0664063,0.140625 1.4296875,0.4453125 z m -1.4296875,0.6679687 c -0.8789062,0 -1.5585937,0.4101563 -2.0507812,1.2304688 -0.2695313,0.4335937 -0.4804688,0.9960937 -0.6210938,1.7109375 -0.1875,0.8320312 -0.140625,1.4648437 0.09375,1.9101562 0.2460938,0.4335938 0.65625,0.64453125 1.2304688,0.64453125 0.890625,0 1.6054687,-0.38671875 2.1445312,-1.19531245 0.2929688,-0.46875 0.5039063,-0.9960938 0.6328125,-1.6054688 0.1992188,-0.9140625 0.1523438,-1.59375 -0.1289062,-2.0390625 -0.28125,-0.4335937 -0.7148438,-0.65625 -1.3007813,-0.65625 z m 0,0"
       style="fill:#000000;fill-opacity:1;fill-rule:nonzero;stroke:none"
       aria-label="g"
       transform="matrix(1.3333333,0,0,1.3333333,18.523949,155.0956)" />
    <path
       id="path3"
       d="m 72.609,75.402 0.606,-0.675 0.726,-0.547 0.821,-0.399 0.883,-0.222 0.906,-0.039 0.902,0.148 0.852,0.32 0.769,0.473 0.664,0.601 0.532,0.696 0.382,0.742 0.227,0.75 0.07,0.715 -0.074,0.633 -0.203,0.523 -0.305,0.371 -0.375,0.207 -0.414,0.024 -0.418,-0.161 -0.379,-0.343 -0.308,-0.5 -0.207,-0.637 -0.082,-0.742 0.062,-0.801 0.219,-0.824 0.375,-0.797 0.523,-0.734 0.657,-0.629 0.765,-0.489 0.852,-0.328 0.898,-0.148 0.906,0.035 0.887,0.219 0.824,0.386 0.731,0.532 0.609,0.64 0.473,0.719 0.32,0.75 0.16,0.742 0.012,0.688 -0.129,0.594 -0.246,0.464 -0.336,0.305 -0.398,0.133 -0.418,-0.051 -0.407,-0.234 -0.355,-0.41 -0.27,-0.559 -0.16,-0.684 -0.023,-0.769 0.125,-0.817 0.281,-0.816 0.438,-0.777 0.578,-0.696 0.703,-0.578 0.805,-0.426 0.875,-0.257 0.906,-0.075 0.902,0.114 0.863,0.289 0.793,0.445 0.684,0.582 0.559,0.676 0.41,0.738 0.254,0.75 0.101,0.727 -0.047,0.652 -0.179,0.547 -0.289,0.402 -0.364,0.239 -0.41,0.058 -0.418,-0.125 -0.39,-0.308 -0.325,-0.473 -0.23,-0.613 -0.106,-0.723 0.036,-0.797 0.187,-0.82 0.344,-0.809 0.496,-0.746 0.633,-0.652 0.75,-0.52 0.836,-0.359 0.89,-0.184 0.91,0.004 0.891,0.184 0.84,0.355 0.75,0.504 0.637,0.625 0.5,0.707 0.347,0.75 0.192,0.746 0.039,0.699 -0.102,0.614 -0.226,0.492 -0.325,0.34 -0.386,0.168 -0.418,-0.02 -0.41,-0.199 -0.368,-0.379 -0.289,-0.531 -0.183,-0.664 -0.051,-0.758 0.098,-0.809 0.25,-0.82 0.406,-0.789 0.554,-0.715 0.684,-0.601 0.785,-0.457 0.864,-0.289 0.902,-0.11 0.91,0.078 0.871,0.254 0.809,0.422 0.707,0.555 0.582,0.664 0.441,0.73 0.285,0.75 0.129,0.735 -0.023,0.668 -0.156,0.57 -0.266,0.434 -0.356,0.269 -0.402,0.094 -0.422,-0.09 -0.394,-0.277 -0.34,-0.442 -0.25,-0.59 -0.133,-0.703 0.008,-0.785 0.16,-0.82 0.313,-0.813 0.468,-0.761 0.61,-0.672 0.73,-0.547 0.82,-0.395 0.883,-0.215 0.91,-0.035 0.899,0.153 0.848,0.324 0.773,0.476"
       style="fill:none;stroke:#000000;stroke-width:0.6144;stroke-linecap:square;stroke-linejoin:miter;stroke-miterlimit:3.25;stroke-dasharray:none;stroke-opacity:1"
       transform="scale(1.3333333)" />
    <path
       id="path4"
       d="m 6.5379822,-7.0894474 c 0.2109375,0.1523437 0.3984375,0.3984375 0.5625,0.6914062 l 0.2226562,-0.9375 h 1.1367188 l -1.4296875,6.73828126 c -0.1992188,0.9375 -0.4921875,1.68750004 -0.890625,2.22656254 -0.7382813,1.0078125 -1.8046875,1.5117187 -3.234375,1.5117187 -0.8085938,0 -1.4296875,-0.1875 -1.8984375,-0.5390625 C 0.53798219,2.2503963 0.33876344,1.6878963 0.43251344,0.92617756 H 1.7098572 c -0.011719,0.33984374 0.058594,0.58593754 0.1992187,0.77343754 0.2109375,0.2695312 0.6328125,0.4101562 1.2304688,0.4101562 0.9609375,0 1.6640625,-0.3398437 2.0976562,-1.0078125 0.2578125,-0.39843749 0.4804688,-1.1015624875 0.6796875,-2.1210937 -0.328125,0.36328121 -0.6796875,0.65624996 -1.0664062,0.83203121 -0.3867188,0.1875000025 -0.8789063,0.28125 -1.453125,0.28125 -0.796875,0 -1.4414063,-0.28125 -1.921875,-0.84375 C 0.99501344,-1.3355412 0.88954469,-2.2613224 1.1707947,-3.5855412 c 0.2695312,-1.2304687 0.7617187,-2.203125 1.5351562,-2.8945312 0.75,-0.6914063 1.5585938,-1.0546875 2.4023438,-1.0546875 0.5859375,0 1.0664062,0.140625 1.4296875,0.4453125 z m -1.4296875,0.6679687 c -0.8789063,0 -1.5585938,0.4101563 -2.0507813,1.2304688 -0.2695312,0.4335937 -0.4804687,0.9960937 -0.6210937,1.7109375 -0.1875,0.8320312 -0.140625,1.4648437 0.09375,1.9101562 0.2460937,0.4335938 0.65625,0.64453126 1.2304687,0.64453126 0.890625,0 1.6054688,-0.38671876 2.1445313,-1.19531246 0.2929687,-0.46875 0.5039062,-0.9960938 0.6328125,-1.6054688 0.1992187,-0.9140625 0.1523437,-1.59375 -0.1289063,-2.0390625 -0.28125,-0.4335937 -0.7148437,-0.65625 -1.3007812,-0.65625 z m 0,0"
       style="fill:#000000;fill-opacity:1;fill-rule:nonzero;stroke:none"
       aria-label="g"
       transform="matrix(1.3333333,0,0,1.3333333,115.56785,85.683065)" />
    <path
       id="path5"
       d="m 72.609,120.086 0.77,-0.477 0.851,-0.324 0.899,-0.152 0.91,0.031 0.883,0.219 0.82,0.394 0.731,0.543 0.609,0.676 0.469,0.762 0.312,0.812 0.16,0.821 0.008,0.781 -0.133,0.707 -0.25,0.59 -0.339,0.441 -0.399,0.278 -0.418,0.089 -0.402,-0.093 -0.356,-0.27 -0.265,-0.434 -0.157,-0.57 -0.023,-0.668 0.129,-0.734 0.285,-0.754 0.442,-0.727 0.582,-0.664 0.707,-0.554 0.808,-0.422 0.871,-0.254 0.91,-0.078 0.903,0.109 0.863,0.289 0.785,0.457 0.684,0.602 0.554,0.715 0.407,0.789 0.25,0.82 0.097,0.809 -0.05,0.757 -0.184,0.664 -0.289,0.532 -0.367,0.379 -0.41,0.199 -0.418,0.015 -0.387,-0.164 -0.324,-0.339 -0.227,-0.493 -0.101,-0.613 0.039,-0.703 0.191,-0.746 0.348,-0.746 0.5,-0.707 0.636,-0.625 0.75,-0.504 0.84,-0.356 0.891,-0.187 h 0.91 l 0.891,0.183 0.836,0.36 0.746,0.519 0.636,0.653 0.493,0.746 0.347,0.808 0.188,0.821 0.035,0.797 -0.109,0.722 -0.227,0.613 -0.324,0.473 -0.391,0.309 -0.418,0.125 -0.41,-0.059 -0.363,-0.238 -0.289,-0.402 -0.18,-0.547 -0.047,-0.653 0.102,-0.726 0.254,-0.75 0.41,-0.739 0.558,-0.675 0.684,-0.582 0.793,-0.446 0.863,-0.289 0.903,-0.113 0.906,0.074 0.875,0.258 0.804,0.426 0.704,0.574 0.578,0.695 0.437,0.778 0.281,0.82 0.125,0.816 -0.023,0.77 -0.16,0.683 -0.27,0.559 -0.355,0.41 -0.406,0.235 -0.418,0.05 -0.399,-0.132 -0.336,-0.309 -0.246,-0.465 -0.129,-0.59 0.012,-0.687 0.16,-0.742 0.32,-0.75 0.473,-0.719 0.61,-0.641 0.73,-0.531 0.824,-0.387 0.887,-0.218 0.906,-0.036 0.899,0.149 0.847,0.328 0.77,0.488 0.656,0.629 0.523,0.735 0.375,0.796 0.219,0.825 0.063,0.8 -0.082,0.743 -0.207,0.636 -0.309,0.5 -0.379,0.34 -0.418,0.164 -0.414,-0.023 -0.375,-0.207 -0.305,-0.375 -0.203,-0.52 -0.074,-0.637 0.07,-0.71 0.227,-0.75 0.383,-0.743 0.531,-0.695 0.66,-0.602 0.774,-0.472 0.851,-0.32 0.903,-0.149 0.906,0.039 0.883,0.223 0.82,0.398 0.726,0.547 0.606,0.676"
       style="fill:none;stroke:#000000;stroke-width:0.6144;stroke-linecap:square;stroke-linejoin:miter;stroke-miterlimit:3.25;stroke-dasharray:none;stroke-opacity:1"
       transform="scale(1.3333333)" />
    <path
       id="path6"
       d="m 6.5401319,-7.0903429 c 0.2109375,0.1523437 0.3984375,0.3984375 0.5625,0.6914062 l 0.2226563,-0.9375 h 1.1367187 l -1.4296875,6.73828126 c -0.1992187,0.9375 -0.4921875,1.68750004 -0.890625,2.22656254 -0.7382812,1.0078125 -1.8046875,1.5117187 -3.234375,1.5117187 -0.8085937,0 -1.4296875,-0.1875 -1.8984375,-0.5390625 C 0.54013194,2.2495008 0.34091319,1.6870008 0.43466319,0.92528206 H 1.7120069 c -0.011719,0.33984374 0.058594,0.58593754 0.1992188,0.77343754 0.2109375,0.2695312 0.6328125,0.4101562 1.2304687,0.4101562 0.9609375,0 1.6640625,-0.3398437 2.0976563,-1.0078125 0.2578125,-0.39843749 0.4804687,-1.1015624875 0.6796875,-2.1210937 -0.328125,0.36328121 -0.6796875,0.65624996 -1.0664063,0.83203121 -0.3867187,0.1875000025 -0.8789062,0.28125 -1.453125,0.28125 -0.796875,0 -1.4414062,-0.28125 -1.921875,-0.84375 C 0.99716319,-1.3364367 0.89169444,-2.2622179 1.1729444,-3.5864367 c 0.2695313,-1.2304687 0.7617188,-2.203125 1.5351563,-2.8945312 0.75,-0.6914063 1.5585937,-1.0546875 2.4023437,-1.0546875 0.5859375,0 1.0664063,0.140625 1.4296875,0.4453125 z m -1.4296875,0.6679687 c -0.8789062,0 -1.5585937,0.4101563 -2.0507812,1.2304688 -0.2695313,0.4335937 -0.4804688,0.9960937 -0.6210938,1.7109375 -0.1875,0.8320312 -0.140625,1.4648437 0.09375,1.9101562 0.2460938,0.4335938 0.65625,0.64453126 1.2304688,0.64453126 0.890625,0 1.6054687,-0.38671876 2.1445312,-1.19531246 0.2929688,-0.46875 0.5039063,-0.9960938 0.6328125,-1.6054688 0.1992188,-0.9140625 0.1523438,-1.59375 -0.1289062,-2.0390625 -0.28125,-0.4335937 -0.7148438,-0.65625 -1.3007813,-0.65625 z m 0,0"
       style="fill:#000000;fill-opacity:1;fill-rule:nonzero;stroke:none"
       aria-label="g"
       transform="matrix(1.3333333,0,0,1.3333333,114.83061,193.65301)" />
    <path
       id="path7"
       d="M 36.305,97.746 72.609,75.402"
       style="fill:none;stroke:#000000;stroke-width:0.6144;stroke-linecap:square;stroke-linejoin:miter;stroke-miterlimit:3.25;stroke-dasharray:none;stroke-opacity:1"
       transform="scale(1.3333333)" />
    <path
       id="path8"
       d="m 51.605,88.332 6.879,-1.609 -2.343,-3.809 z"
       style="fill:#000000;fill-opacity:1;fill-rule:evenodd;stroke:none"
       transform="scale(1.3333333)" />
    <path
       id="path9"
       d="m 3.7276769,-7.393523 -1.0546875,4.921875 c -0.082031,0.3632812 -0.082031,0.6796875 -0.011719,0.9140625 0.1289062,0.4453125 0.4804687,0.66796875 1.0898437,0.66796875 0.8671875,0 1.546875,-0.38671875 2.0273438,-1.16015625 0.2578125,-0.4101563 0.4570312,-0.9960938 0.609375,-1.7109375 L 7.1612707,-7.393523 H 8.4151769 L 6.8331457,0.00100825 H 5.6612707 L 5.9073644,-1.0888355 c -0.234375,0.28125 -0.46875,0.52734375 -0.75,0.7265625 -0.5742187,0.375 -1.1835937,0.57421875 -1.8632812,0.57421875 -1.0546875,0 -1.6875,-0.3515625 -1.921875,-1.0546875 -0.1289063,-0.38671875 -0.1289063,-0.87890625 0,-1.52343755 l 1.078125,-5.0273437 z m 0,0"
       style="fill:#000000;fill-opacity:1;fill-rule:nonzero;stroke:none"
       aria-label="u"
       transform="matrix(1.3333333,0,0,1.3333333,58.205545,103.35803)" />
    <path
       id="path10"
       d="m 36.305,97.746 36.304,22.34"
       style="fill:none;stroke:#000000;stroke-width:0.6144;stroke-linecap:square;stroke-linejoin:miter;stroke-miterlimit:3.25;stroke-dasharray:none;stroke-opacity:1"
       transform="scale(1.3333333)" />
    <path
       id="path11"
       d="m 57.312,110.672 -6.878,-1.61 2.339,-3.804 z"
       style="fill:#000000;fill-opacity:1;fill-rule:evenodd;stroke:none"
       transform="scale(1.3333333)" />
    <path
       id="path12"
       d="m 3.7276769,-7.3952376 -1.0546875,4.921875 c -0.082031,0.3632813 -0.082031,0.6796875 -0.011719,0.9140625 0.1289062,0.4453125 0.4804687,0.66796879 1.0898437,0.66796879 0.8671875,0 1.546875,-0.38671879 2.0273438,-1.16015629 0.2578125,-0.4101562 0.4570312,-0.9960937 0.609375,-1.7109375 L 7.1612707,-7.3952376 H 8.4151769 L 6.8331457,-7.063125e-4 H 5.6612707 L 5.9073644,-1.0905501 c -0.234375,0.28125004 -0.46875,0.52734379 -0.75,0.72656254 -0.5742187,0.375 -1.1835937,0.57421875 -1.8632812,0.57421875 -1.0546875,0 -1.6875,-0.3515625 -1.921875,-1.0546875 -0.1289063,-0.38671879 -0.1289063,-0.87890629 0,-1.52343749 l 1.078125,-5.0273438 z m 0,0"
       style="fill:#000000;fill-opacity:1;fill-rule:nonzero;stroke:none"
       aria-label="u"
       transform="matrix(1.3333333,0,0,1.3333333,58.205545,170.81735)" />
    <path
       id="path13"
       d="m 72.609,75.402 v 44.684"
       style="fill:none;stroke:#000000;stroke-width:0.6144;stroke-linecap:square;stroke-linejoin:miter;stroke-miterlimit:3.25;stroke-dasharray:none;stroke-opacity:1"
       transform="scale(1.3333333)" />
    <path
       id="path14"
       d="m 72.609,94.395 -2.234,6.703 h 4.469 z"
       style="fill:#000000;fill-opacity:1;fill-rule:evenodd;stroke:none"
       transform="scale(1.3333333)" />
    <path
       id="path15"
       d="m 3.7275405,-7.3958451 -1.0546875,4.921875 c -0.082031,0.3632812 -0.082031,0.6796875 -0.011719,0.9140625 0.1289062,0.4453125 0.4804687,0.66796873 1.0898437,0.66796873 0.8671875,0 1.546875,-0.38671873 2.0273438,-1.16015623 0.2578125,-0.4101563 0.4570312,-0.9960938 0.609375,-1.7109375 L 7.1611343,-7.3958451 H 8.4150405 L 6.8330093,-0.00131387 H 5.6611343 L 5.907228,-1.0911576 c -0.234375,0.28124998 -0.46875,0.52734373 -0.75,0.72656248 -0.5742187,0.375 -1.1835937,0.57421875 -1.8632812,0.57421875 -1.0546875,0 -1.6875,-0.3515625 -1.921875,-1.0546875 -0.1289063,-0.38671873 -0.1289063,-0.87890623 0,-1.52343753 l 1.078125,-5.0273437 z m 0,0"
       style="fill:#000000;fill-opacity:1;fill-rule:nonzero;stroke:none"
       aria-label="u"
       transform="matrix(1.3333333,0,0,1.3333333,105.3737,137.08769)" />
    <path
       id="path16"
       d="m 38.762,97.746 c 0,0.652 -0.258,1.277 -0.719,1.738 -0.461,0.461 -1.086,0.719 -1.738,0.719 -0.653,0 -1.278,-0.258 -1.739,-0.719 -0.461,-0.461 -0.718,-1.086 -0.718,-1.738 0,-0.652 0.257,-1.277 0.718,-1.738 0.461,-0.461 1.086,-0.719 1.739,-0.719 0.652,0 1.277,0.258 1.738,0.719 0.461,0.461 0.719,1.086 0.719,1.738 z"
       style="fill:#000000;fill-opacity:1;fill-rule:evenodd;stroke:none"
       transform="scale(1.3333333)" />
    <path
       id="path17"
       d="m 75.07,75.402 c 0,0.653 -0.261,1.278 -0.722,1.739 -0.461,0.461 -1.086,0.718 -1.739,0.718 -0.648,0 -1.273,-0.257 -1.734,-0.718 -0.461,-0.461 -0.723,-1.086 -0.723,-1.739 0,-0.652 0.262,-1.277 0.723,-1.738 0.461,-0.461 1.086,-0.719 1.734,-0.719 0.653,0 1.278,0.258 1.739,0.719 0.461,0.461 0.722,1.086 0.722,1.738 z"
       style="fill:#000000;fill-opacity:1;fill-rule:evenodd;stroke:none"
       transform="scale(1.3333333)" />
    <path
       id="path18"
       d="m 75.07,120.086 c 0,0.652 -0.261,1.277 -0.722,1.738 -0.461,0.461 -1.086,0.719 -1.739,0.719 -0.648,0 -1.273,-0.258 -1.734,-0.719 -0.461,-0.461 -0.723,-1.086 -0.723,-1.738 0,-0.652 0.262,-1.277 0.723,-1.738 0.461,-0.461 1.086,-0.719 1.734,-0.719 0.653,0 1.278,0.258 1.739,0.719 0.461,0.461 0.722,1.086 0.722,1.738 z"
       style="fill:#000000;fill-opacity:1;fill-rule:evenodd;stroke:none"
       transform="scale(1.3333333)" />
    <path
       id="path19"
       d="m 1.0653764,-5.5909692 v -0.75 c 0.7265625,-0.070312 1.21875,-0.1992187 1.5117187,-0.3515625 0.28125,-0.1640625 0.4921875,-0.5507812 0.6210938,-1.1601562 h 0.796875 v 7.85156246 H 2.9286576 V -5.5909692 Z m 0,0"
       style="fill:#000000;fill-opacity:1;fill-rule:nonzero;stroke:none"
       aria-label="1"
       transform="matrix(1.3333333,0,0,1.3333333,70.399811,205.23197)"
       clip-path="url(#clipPath20)" />
    <path
       id="path21"
       d="m 159.184,97.746 -0.629,0.52 -0.715,0.414 -0.774,0.289 -0.812,0.152 -0.828,0.008 -0.813,-0.137 -0.781,-0.273 -0.723,-0.399 -0.64,-0.508 -0.547,-0.593 -0.434,-0.657 -0.32,-0.691 -0.199,-0.691 -0.078,-0.668 0.035,-0.614 0.133,-0.527 0.214,-0.426 0.282,-0.304 0.32,-0.168 0.34,-0.024 0.328,0.117 0.297,0.258 0.242,0.387 0.16,0.5 0.07,0.586 -0.039,0.648 -0.156,0.692 -0.277,0.691 -0.399,0.672 -0.507,0.621 -0.614,0.539 -0.695,0.438 -0.762,0.32 -0.808,0.18 -0.825,0.043 -0.82,-0.106 -0.789,-0.242 -0.738,-0.375 -0.66,-0.484 -0.571,-0.579 -0.461,-0.644 -0.343,-0.688 -0.223,-0.695 -0.105,-0.672 0.007,-0.629 0.114,-0.55 0.199,-0.45 0.269,-0.332 0.313,-0.199 0.336,-0.055 0.336,0.09 0.304,0.227 0.258,0.359 0.18,0.473 0.09,0.57 -0.012,0.641 -0.133,0.679 -0.25,0.7 -0.371,0.675 -0.484,0.633 -0.59,0.563 -0.68,0.461 -0.75,0.347 -0.801,0.211 -0.824,0.075 -0.82,-0.075 -0.801,-0.211 -0.75,-0.347 -0.68,-0.461 -0.589,-0.563 -0.485,-0.633 -0.371,-0.675 -0.25,-0.7 -0.133,-0.679 -0.015,-0.641 0.093,-0.57 0.18,-0.473 0.254,-0.359 0.309,-0.227 0.332,-0.09 0.336,0.055 0.316,0.199 0.27,0.332 0.199,0.45 0.109,0.55 0.012,0.629 -0.106,0.672 -0.222,0.695 -0.348,0.688 -0.461,0.644 -0.566,0.579 -0.66,0.484 -0.739,0.375 -0.789,0.242 -0.82,0.106 -0.828,-0.043 -0.805,-0.18 -0.762,-0.32 -0.699,-0.438 -0.609,-0.539 -0.508,-0.621 -0.398,-0.672 -0.278,-0.691 -0.156,-0.692 -0.039,-0.648 0.066,-0.586 0.164,-0.5 0.243,-0.387 0.296,-0.258 0.329,-0.117 0.339,0.024 0.321,0.168 0.281,0.304 0.215,0.426 0.133,0.527 0.035,0.614 -0.082,0.668 -0.196,0.691 -0.32,0.691 -0.433,0.657 -0.547,0.593 -0.641,0.508 -0.723,0.399 -0.781,0.273 -0.816,0.137 -0.825,-0.008 -0.812,-0.152 -0.777,-0.289 -0.711,-0.414 -0.633,-0.52"
       style="fill:none;stroke:#000000;stroke-width:0.6144;stroke-linecap:square;stroke-linejoin:miter;stroke-miterlimit:3.25;stroke-dasharray:none;stroke-opacity:1"
       transform="scale(1.3333333)" />
    <path
       id="path22"
       d="m 6.5385614,-7.0912322 c 0.2109375,0.1523437 0.3984375,0.3984375 0.5625,0.6914062 l 0.2226563,-0.9375 h 1.1367187 l -1.4296875,6.73828125 c -0.1992187,0.9375 -0.4921875,1.68750005 -0.890625,2.22656255 -0.7382812,1.0078125 -1.8046875,1.5117187 -3.234375,1.5117187 -0.8085937,0 -1.4296875,-0.1875 -1.8984375,-0.5390625 C 0.53856144,2.2486115 0.33934269,1.6861115 0.43309269,0.92439275 H 1.7104364 c -0.011719,0.33984375 0.058594,0.58593755 0.1992188,0.77343755 0.2109375,0.2695312 0.6328125,0.4101562 1.2304687,0.4101562 0.9609375,0 1.6640625,-0.3398437 2.0976563,-1.0078125 0.2578125,-0.3984375 0.4804687,-1.1015625 0.6796875,-2.1210937 -0.328125,0.3632812 -0.6796875,0.65624995 -1.0664063,0.8320312 -0.3867187,0.1875 -0.8789062,0.28125 -1.453125,0.28125 -0.796875,0 -1.4414062,-0.28125 -1.921875,-0.84375 C 0.99559269,-1.337326 0.89012394,-2.2631072 1.1713739,-3.587326 c 0.2695313,-1.2304687 0.7617188,-2.203125 1.5351563,-2.8945312 0.75,-0.6914063 1.5585937,-1.0546875 2.4023437,-1.0546875 0.5859375,0 1.0664063,0.140625 1.4296875,0.4453125 z m -1.4296875,0.6679687 c -0.8789062,0 -1.5585937,0.4101563 -2.0507812,1.2304688 -0.2695313,0.4335937 -0.4804688,0.9960937 -0.6210938,1.7109375 -0.1875,0.8320312 -0.140625,1.4648437 0.09375,1.9101562 0.2460938,0.4335938 0.65625,0.64453125 1.2304688,0.64453125 0.890625,0 1.6054687,-0.38671875 2.1445312,-1.19531245 0.2929688,-0.46875 0.5039063,-0.9960938 0.6328125,-1.6054688 0.1992188,-0.9140625 0.1523438,-1.59375 -0.1289062,-2.0390625 -0.28125,-0.4335937 -0.7148438,-0.65625 -1.3007813,-0.65625 z m 0,0"
       style="fill:#000000;fill-opacity:1;fill-rule:nonzero;stroke:none"
       aria-label="g"
       transform="matrix(1.3333333,0,0,1.3333333,182.36395,155.0956)" />
    <path
       id="path23"
       d="m 195.492,75.402 0.606,-0.675 0.722,-0.547 0.821,-0.399 0.882,-0.222 0.911,-0.039 0.898,0.148 0.852,0.32 0.773,0.473 0.66,0.601 0.531,0.696 0.383,0.742 0.227,0.75 0.07,0.715 -0.074,0.633 -0.203,0.523 -0.305,0.371 -0.375,0.207 -0.414,0.024 -0.414,-0.161 -0.379,-0.343 -0.312,-0.5 -0.207,-0.637 -0.083,-0.742 0.067,-0.801 0.215,-0.824 0.375,-0.797 0.523,-0.734 0.656,-0.629 0.77,-0.489 0.848,-0.328 0.898,-0.148 0.91,0.035 0.883,0.219 0.824,0.386 0.731,0.532 0.613,0.64 0.469,0.719 0.32,0.75 0.164,0.742 0.008,0.688 -0.129,0.594 -0.246,0.464 -0.336,0.305 -0.398,0.133 -0.418,-0.051 -0.403,-0.234 -0.355,-0.41 -0.274,-0.559 -0.16,-0.684 -0.023,-0.769 0.125,-0.817 0.281,-0.816 0.438,-0.777 0.578,-0.696 0.707,-0.578 0.804,-0.426 0.871,-0.257 0.907,-0.075 0.902,0.114 0.867,0.289 0.789,0.445 0.684,0.582 0.558,0.676 0.411,0.738 0.257,0.75 0.098,0.727 -0.047,0.652 -0.179,0.547 -0.29,0.402 -0.363,0.239 -0.41,0.058 -0.418,-0.125 -0.391,-0.308 -0.324,-0.473 -0.226,-0.613 -0.11,-0.723 0.035,-0.797 0.188,-0.82 0.348,-0.809 0.496,-0.746 0.632,-0.652 0.747,-0.52 0.836,-0.359 0.89,-0.184 0.91,0.004 0.895,0.184 0.836,0.355 0.75,0.504 0.636,0.625 0.5,0.707 0.348,0.75 0.195,0.746 0.036,0.699 -0.102,0.614 -0.227,0.492 -0.324,0.34 -0.386,0.168 -0.418,-0.02 -0.411,-0.199 -0.367,-0.379 -0.289,-0.531 -0.183,-0.664 -0.051,-0.758 0.097,-0.809 0.25,-0.82 0.411,-0.789 0.55,-0.715 0.684,-0.601 0.789,-0.457 0.859,-0.289 0.907,-0.11 0.906,0.078 0.875,0.254 0.805,0.422 0.707,0.555 0.582,0.664 0.441,0.73 0.285,0.75 0.129,0.735 -0.019,0.668 -0.157,0.57 -0.269,0.434 -0.356,0.269 -0.402,0.094 -0.418,-0.09 -0.398,-0.277 -0.34,-0.442 -0.25,-0.59 -0.129,-0.703 0.004,-0.785 0.16,-0.82 0.316,-0.813 0.469,-0.761 0.606,-0.672 0.73,-0.547 0.82,-0.395 0.883,-0.215 0.91,-0.035 0.899,0.153 0.851,0.324 0.77,0.476"
       style="fill:none;stroke:#000000;stroke-width:0.6144;stroke-linecap:square;stroke-linejoin:miter;stroke-miterlimit:3.25;stroke-dasharray:none;stroke-opacity:1"
       transform="scale(1.3333333)" />
    <path
       id="path24"
       d="m 6.537865,-7.0894474 c 0.2109375,0.1523437 0.3984375,0.3984375 0.5625,0.6914062 l 0.2226563,-0.9375 H 8.45974 L 7.0300525,-0.59725994 C 6.8308338,0.34024006 6.537865,1.0902401 6.1394275,1.6293026 5.4011463,2.6371151 4.33474,3.1410213 2.9050525,3.1410213 2.0964588,3.1410213 1.475365,2.9535213 1.006615,2.6019588 0.537865,2.2503963 0.33864625,1.6878963 0.43239625,0.92617756 H 1.70974 C 1.698021,1.2660213 1.768334,1.5121151 1.9089588,1.6996151 c 0.2109375,0.2695312 0.6328125,0.4101562 1.2304687,0.4101562 0.9609375,0 1.6640625,-0.3398437 2.0976563,-1.0078125 0.2578125,-0.39843749 0.4804687,-1.1015624875 0.6796875,-2.1210937 -0.328125,0.36328121 -0.6796875,0.65624996 -1.0664063,0.83203121 -0.3867187,0.1875000025 -0.8789062,0.28125 -1.453125,0.28125 -0.796875,0 -1.4414062,-0.28125 -1.921875,-0.84375 C 0.99489625,-1.3355412 0.8894275,-2.2613224 1.1706775,-3.5855412 c 0.2695313,-1.2304687 0.7617188,-2.203125 1.5351563,-2.8945312 0.75,-0.6914063 1.5585937,-1.0546875 2.4023437,-1.0546875 0.5859375,0 1.0664063,0.140625 1.4296875,0.4453125 z m -1.4296875,0.6679687 c -0.8789062,0 -1.5585937,0.4101563 -2.0507812,1.2304688 -0.2695313,0.4335937 -0.4804688,0.9960937 -0.6210938,1.7109375 -0.1875,0.8320312 -0.140625,1.4648437 0.09375,1.9101562 0.2460938,0.4335938 0.65625,0.64453126 1.2304688,0.64453126 0.890625,0 1.6054687,-0.38671876 2.1445312,-1.19531246 0.2929688,-0.46875 0.5039063,-0.9960938 0.6328125,-1.6054688 0.1992188,-0.9140625 0.1523438,-1.59375 -0.1289062,-2.0390625 -0.28125,-0.4335937 -0.7148438,-0.65625 -1.3007813,-0.65625 z m 0,0"
       style="fill:#000000;fill-opacity:1;fill-rule:nonzero;stroke:none"
       aria-label="g"
       transform="matrix(1.3333333,0,0,1.3333333,279.40785,85.683065)"
       clip-path="url(#clipPath25)" />
    <path
       id="path26"
       d="m 195.492,120.086 0.77,-0.477 0.851,-0.324 0.895,-0.152 0.91,0.031 0.883,0.219 0.824,0.394 0.727,0.543 0.609,0.676 0.469,0.762 0.316,0.812 0.156,0.821 0.008,0.781 -0.133,0.707 -0.25,0.59 -0.339,0.441 -0.395,0.278 -0.422,0.089 -0.402,-0.093 -0.352,-0.27 -0.269,-0.434 -0.157,-0.57 -0.023,-0.668 0.133,-0.734 0.285,-0.754 0.437,-0.727 0.582,-0.664 0.707,-0.554 0.809,-0.422 0.875,-0.254 0.906,-0.078 0.903,0.109 0.863,0.289 0.785,0.457 0.684,0.602 0.554,0.715 0.407,0.789 0.254,0.82 0.093,0.809 -0.05,0.757 -0.184,0.664 -0.289,0.532 -0.367,0.379 -0.41,0.199 -0.418,0.015 -0.387,-0.164 -0.32,-0.339 -0.227,-0.493 -0.105,-0.613 0.039,-0.703 0.191,-0.746 0.348,-0.746 0.5,-0.707 0.636,-0.625 0.75,-0.504 0.84,-0.356 0.891,-0.187 h 0.91 l 0.891,0.183 0.836,0.36 0.75,0.519 0.632,0.653 0.496,0.746 0.344,0.808 0.188,0.821 0.035,0.797 -0.106,0.722 -0.23,0.613 -0.324,0.473 -0.391,0.309 -0.414,0.125 -0.41,-0.059 -0.367,-0.238 -0.285,-0.402 -0.18,-0.547 -0.051,-0.653 0.102,-0.726 0.253,-0.75 0.415,-0.739 0.554,-0.675 0.688,-0.582 0.789,-0.446 0.863,-0.289 0.902,-0.113 0.907,0.074 0.875,0.258 0.804,0.426 0.703,0.574 0.583,0.695 0.433,0.778 0.281,0.82 0.125,0.816 -0.023,0.77 -0.16,0.683 -0.27,0.559 -0.355,0.41 -0.406,0.235 -0.418,0.05 -0.395,-0.132 -0.34,-0.309 -0.246,-0.465 -0.129,-0.59 0.012,-0.687 0.16,-0.742 0.32,-0.75 0.473,-0.719 0.609,-0.641 0.735,-0.531 0.82,-0.387 0.887,-0.218 0.91,-0.036 0.894,0.149 0.852,0.328 0.766,0.488 0.656,0.629 0.523,0.735 0.375,0.796 0.219,0.825 0.063,0.8 -0.082,0.743 -0.207,0.636 -0.309,0.5 -0.379,0.34 -0.414,0.164 -0.414,-0.023 -0.379,-0.207 -0.305,-0.375 -0.199,-0.52 -0.078,-0.637 0.074,-0.71 0.223,-0.75 0.383,-0.743 0.531,-0.695 0.664,-0.602 0.77,-0.472 0.855,-0.32 0.898,-0.149 0.907,0.039 0.883,0.223 0.82,0.398 0.726,0.547 0.606,0.676"
       style="fill:none;stroke:#000000;stroke-width:0.6144;stroke-linecap:square;stroke-linejoin:miter;stroke-miterlimit:3.25;stroke-dasharray:none;stroke-opacity:1"
       transform="scale(1.3333333)" />
    <path
       id="path27"
       d="m 6.5400148,-7.0903429 c 0.2109375,0.1523437 0.3984375,0.3984375 0.5625,0.6914062 l 0.2226562,-0.9375 H 8.4618898 L 7.0322023,-0.59815544 C 6.8329835,0.33934456 6.5400148,1.0893446 6.1415773,1.6284071 5.403296,2.6362196 4.3368898,3.1401258 2.9072023,3.1401258 c -0.8085938,0 -1.4296875,-0.1875 -1.8984375,-0.5390625 C 0.54001475,2.2495008 0.340796,1.6870008 0.434546,0.92528206 H 1.7118898 C 1.700171,1.2651258 1.7704835,1.5112196 1.9111085,1.6987196 2.122046,1.9682508 2.543921,2.1088758 3.1415773,2.1088758 c 0.9609375,0 1.6640625,-0.3398437 2.0976562,-1.0078125 0.2578125,-0.39843749 0.4804688,-1.1015624875 0.6796875,-2.1210937 -0.328125,0.36328121 -0.6796875,0.65624996 -1.0664062,0.83203121 -0.3867188,0.1875000025 -0.8789063,0.28125 -1.453125,0.28125 -0.796875,0 -1.4414063,-0.28125 -1.921875,-0.84375 C 0.997046,-1.3364367 0.89157725,-2.2622179 1.1728273,-3.5864367 c 0.2695312,-1.2304687 0.7617187,-2.203125 1.5351562,-2.8945312 0.75,-0.6914063 1.5585938,-1.0546875 2.4023438,-1.0546875 0.5859375,0 1.0664062,0.140625 1.4296875,0.4453125 z m -1.4296875,0.6679687 c -0.8789063,0 -1.5585938,0.4101563 -2.0507813,1.2304688 -0.2695312,0.4335937 -0.4804687,0.9960937 -0.6210937,1.7109375 -0.1875,0.8320312 -0.140625,1.4648437 0.09375,1.9101562 0.2460937,0.4335938 0.65625,0.64453126 1.2304687,0.64453126 0.890625,0 1.6054688,-0.38671876 2.1445313,-1.19531246 0.2929687,-0.46875 0.5039062,-0.9960938 0.6328125,-1.6054688 0.1992187,-0.9140625 0.1523437,-1.59375 -0.1289063,-2.0390625 -0.28125,-0.4335937 -0.7148437,-0.65625 -1.3007812,-0.65625 z m 0,0"
       style="fill:#000000;fill-opacity:1;fill-rule:nonzero;stroke:none"
       aria-label="g"
       transform="matrix(1.3333333,0,0,1.3333333,278.67061,193.65301)" />
    <path
       id="path28"
       d="M 159.184,97.746 195.492,75.402"
       style="fill:none;stroke:#000000;stroke-width:0.6144;stroke-linecap:square;stroke-linejoin:miter;stroke-miterlimit:3.25;stroke-dasharray:none;stroke-opacity:1"
       transform="scale(1.3333333)" />
    <path
       id="path29"
       d="m 180.191,84.816 -4.535,5.418 -2.344,-3.804 z"
       style="fill:#000000;fill-opacity:1;fill-rule:evenodd;stroke:none"
       transform="scale(1.3333333)" />
    <path
       id="path30"
       d="m 3.7275598,-7.393523 -1.0546875,4.921875 c -0.082031,0.3632812 -0.082031,0.6796875 -0.011719,0.9140625 0.1289063,0.4453125 0.4804688,0.66796875 1.0898438,0.66796875 0.8671875,0 1.546875,-0.38671875 2.0273437,-1.16015625 0.2578125,-0.4101563 0.4570313,-0.9960938 0.609375,-1.7109375 L 7.1611535,-7.393523 H 8.4150598 L 6.8330285,0.00100825 H 5.6611535 L 5.9072473,-1.0888355 c -0.234375,0.28125 -0.46875,0.52734375 -0.75,0.7265625 -0.5742188,0.375 -1.1835938,0.57421875 -1.8632813,0.57421875 -1.0546875,0 -1.6875,-0.3515625 -1.921875,-1.0546875 -0.1289062,-0.38671875 -0.1289062,-0.87890625 0,-1.52343755 L 2.450216,-7.393523 Z m 0,0"
       style="fill:#000000;fill-opacity:1;fill-rule:nonzero;stroke:none"
       aria-label="u"
       transform="matrix(1.3333333,0,0,1.3333333,222.04555,103.35803)" />
    <path
       id="path31"
       d="m 159.184,97.746 36.308,22.34"
       style="fill:none;stroke:#000000;stroke-width:0.6144;stroke-linecap:square;stroke-linejoin:miter;stroke-miterlimit:3.25;stroke-dasharray:none;stroke-opacity:1"
       transform="scale(1.3333333)" />
    <path
       id="path32"
       d="m 174.484,107.16 4.536,5.414 2.343,-3.804 z"
       style="fill:#000000;fill-opacity:1;fill-rule:evenodd;stroke:none"
       transform="scale(1.3333333)" />
    <path
       id="path33"
       d="m 3.7275598,-7.3952376 -1.0546875,4.921875 c -0.082031,0.3632813 -0.082031,0.6796875 -0.011719,0.9140625 0.1289063,0.4453125 0.4804688,0.66796879 1.0898438,0.66796879 0.8671875,0 1.546875,-0.38671879 2.0273437,-1.16015629 0.2578125,-0.4101562 0.4570313,-0.9960937 0.609375,-1.7109375 L 7.1611535,-7.3952376 H 8.4150598 L 6.8330285,-7.063125e-4 H 5.6611535 L 5.9072473,-1.0905501 c -0.234375,0.28125004 -0.46875,0.52734379 -0.75,0.72656254 -0.5742188,0.375 -1.1835938,0.57421875 -1.8632813,0.57421875 -1.0546875,0 -1.6875,-0.3515625 -1.921875,-1.0546875 -0.1289062,-0.38671879 -0.1289062,-0.87890629 0,-1.52343749 l 1.078125,-5.0273438 z m 0,0"
       style="fill:#000000;fill-opacity:1;fill-rule:nonzero;stroke:none"
       aria-label="u"
       transform="matrix(1.3333333,0,0,1.3333333,222.04555,170.81735)" />
    <path
       id="path34"
       d="m 195.492,75.402 v 44.684"
       style="fill:none;stroke:#000000;stroke-width:0.6144;stroke-linecap:square;stroke-linejoin:miter;stroke-miterlimit:3.25;stroke-dasharray:none;stroke-opacity:1"
       transform="scale(1.3333333)" />
    <path
       id="path35"
       d="m 195.492,101.098 -2.234,-6.703 h 4.469 z"
       style="fill:#000000;fill-opacity:1;fill-rule:evenodd;stroke:none"
       transform="scale(1.3333333)" />
    <path
       id="path36"
       d="m 3.7274233,-7.3958451 -1.0546875,4.921875 c -0.082031,0.3632812 -0.082031,0.6796875 -0.011719,0.9140625 0.1289062,0.4453125 0.4804687,0.66796873 1.0898437,0.66796873 0.8671875,0 1.546875,-0.38671873 2.0273438,-1.16015623 0.2578125,-0.4101563 0.4570312,-0.9960938 0.609375,-1.7109375 L 7.1610171,-7.3958451 H 8.4149233 L 6.8328921,-0.00131387 H 5.6610171 L 5.9071108,-1.0911576 c -0.234375,0.28124998 -0.46875,0.52734373 -0.75,0.72656248 -0.5742187,0.375 -1.1835937,0.57421875 -1.8632812,0.57421875 -1.0546875,0 -1.6875,-0.3515625 -1.921875,-1.0546875 -0.1289063,-0.38671873 -0.1289063,-0.87890623 0,-1.52343753 l 1.078125,-5.0273437 z m 0,0"
       style="fill:#000000;fill-opacity:1;fill-rule:nonzero;stroke:none"
       aria-label="u"
       transform="matrix(1.3333333,0,0,1.3333333,269.2137,137.08769)" />
    <path
       id="path37"
       d="m 161.645,97.746 c 0,0.652 -0.262,1.277 -0.723,1.738 -0.461,0.461 -1.086,0.719 -1.738,0.719 -0.649,0 -1.274,-0.258 -1.735,-0.719 -0.461,-0.461 -0.722,-1.086 -0.722,-1.738 0,-0.652 0.261,-1.277 0.722,-1.738 0.461,-0.461 1.086,-0.719 1.735,-0.719 0.652,0 1.277,0.258 1.738,0.719 0.461,0.461 0.723,1.086 0.723,1.738 z"
       style="fill:#000000;fill-opacity:1;fill-rule:evenodd;stroke:none"
       transform="scale(1.3333333)" />
    <path
       id="path38"
       d="m 197.949,75.402 c 0,0.653 -0.258,1.278 -0.719,1.739 -0.46,0.461 -1.085,0.718 -1.738,0.718 -0.652,0 -1.277,-0.257 -1.738,-0.718 -0.461,-0.461 -0.719,-1.086 -0.719,-1.739 0,-0.652 0.258,-1.277 0.719,-1.738 0.461,-0.461 1.086,-0.719 1.738,-0.719 0.653,0 1.278,0.258 1.738,0.719 0.461,0.461 0.719,1.086 0.719,1.738 z"
       style="fill:#000000;fill-opacity:1;fill-rule:evenodd;stroke:none"
       transform="scale(1.3333333)" />
    <path
       id="path39"
       d="m 197.949,120.086 c 0,0.652 -0.258,1.277 -0.719,1.738 -0.46,0.461 -1.085,0.719 -1.738,0.719 -0.652,0 -1.277,-0.258 -1.738,-0.719 -0.461,-0.461 -0.719,-1.086 -0.719,-1.738 0,-0.652 0.258,-1.277 0.719,-1.738 0.461,-0.461 1.086,-0.719 1.738,-0.719 0.653,0 1.278,0.258 1.738,0.719 0.461,0.461 0.719,1.086 0.719,1.738 z"
       style="fill:#000000;fill-opacity:1;fill-rule:evenodd;stroke:none"
       transform="scale(1.3333333)" />
    <path
       id="path40"
       d="M 0.35041544,-0.00112544 C 0.38557169,-0.68081294 0.51447794,-1.2667504 0.76057169,-1.7706567 1.0183842,-2.2745629 1.4871342,-2.7315942 2.2019779,-3.1417504 l 1.0546875,-0.6210938 c 0.4804688,-0.2695312 0.8085938,-0.5039062 0.9960938,-0.6914062 0.3046875,-0.3046875 0.4570312,-0.65625 0.4570312,-1.0546875 0,-0.4453125 -0.140625,-0.8203125 -0.421875,-1.0898438 -0.2695312,-0.2695312 -0.6445312,-0.4101562 -1.0898437,-0.4101562 -0.6914063,0 -1.1601563,0.2578125 -1.4179688,0.7734375 -0.140625,0.28125 -0.2109375,0.65625 -0.234375,1.1484375 H 0.53791544 c 0.0117188,-0.6914063 0.140625,-1.2421875 0.38671875,-1.6875 0.43359371,-0.75 1.18359371,-1.1367188 2.27343751,-1.1367188 0.9023437,0 1.5585937,0.234375 1.9804687,0.7382813 0.421875,0.4804687 0.6210938,1.0195312 0.6210938,1.6171875 0,0.6328125 -0.2226563,1.171875 -0.6679688,1.6289062 -0.2578125,0.2578125 -0.7148437,0.5742188 -1.3710937,0.9492188 l -0.7617188,0.4101562 c -0.3632812,0.2109375 -0.6445312,0.3867188 -0.8554687,0.5742188 -0.3632813,0.3164062 -0.5976563,0.6679687 -0.6914063,1.05468746 h 4.3125 v 0.9375 z m 0,0"
       style="fill:#000000;fill-opacity:1;fill-rule:nonzero;stroke:none"
       aria-label="2"
       transform="matrix(1.3333333,0,0,1.3333333,234.23981,205.23197)"
       clip-path="url(#clipPath41)" />
    <path
       id="path42"
       d="m 282.066,97.746 -0.632,0.52 -0.711,0.414 -0.778,0.289 -0.812,0.152 -0.824,0.008 -0.817,-0.137 -0.781,-0.273 -0.723,-0.399 -0.64,-0.508 -0.547,-0.593 -0.434,-0.657 -0.32,-0.691 -0.195,-0.691 -0.079,-0.668 0.032,-0.614 0.133,-0.527 0.214,-0.426 0.282,-0.304 0.32,-0.168 0.34,-0.024 0.328,0.117 0.297,0.258 0.242,0.387 0.164,0.5 0.066,0.586 -0.039,0.648 -0.156,0.692 -0.277,0.691 -0.399,0.672 -0.508,0.621 -0.609,0.539 -0.699,0.438 -0.762,0.32 -0.804,0.18 -0.829,0.043 -0.82,-0.106 -0.789,-0.242 -0.738,-0.375 -0.66,-0.484 -0.567,-0.579 -0.461,-0.644 -0.347,-0.688 -0.223,-0.695 -0.106,-0.672 0.012,-0.629 0.11,-0.55 0.203,-0.45 0.265,-0.332 0.317,-0.199 0.336,-0.055 0.332,0.09 0.308,0.227 0.254,0.359 0.18,0.473 0.094,0.57 -0.016,0.641 -0.133,0.679 -0.25,0.7 -0.371,0.675 -0.484,0.633 -0.59,0.563 -0.68,0.461 -0.75,0.347 -0.797,0.211 -0.824,0.075 -0.824,-0.075 -0.801,-0.211 -0.75,-0.347 -0.68,-0.461 -0.589,-0.563 -0.485,-0.633 -0.371,-0.675 -0.25,-0.7 -0.129,-0.679 -0.015,-0.641 0.089,-0.57 0.184,-0.473 0.254,-0.359 0.305,-0.227 0.336,-0.09 0.335,0.055 0.313,0.199 0.269,0.332 0.2,0.45 0.113,0.55 0.008,0.629 -0.106,0.672 -0.222,0.695 -0.344,0.688 -0.461,0.644 -0.57,0.579 -0.661,0.484 -0.738,0.375 -0.789,0.242 -0.82,0.106 -0.824,-0.043 -0.809,-0.18 -0.762,-0.32 -0.695,-0.438 -0.613,-0.539 -0.508,-0.621 -0.399,-0.672 -0.277,-0.691 -0.156,-0.692 -0.039,-0.648 0.07,-0.586 0.16,-0.5 0.242,-0.387 0.297,-0.258 0.328,-0.117 0.34,0.024 0.321,0.168 0.281,0.304 0.215,0.426 0.133,0.527 0.035,0.614 -0.078,0.668 -0.2,0.691 -0.316,0.691 -0.438,0.657 -0.546,0.593 -0.641,0.508 -0.723,0.399 -0.781,0.273 -0.812,0.137 -0.829,-0.008 -0.812,-0.152 -0.774,-0.289 -0.714,-0.414 -0.629,-0.52"
       style="fill:none;stroke:#000000;stroke-width:0.6144;stroke-linecap:square;stroke-linejoin:miter;stroke-miterlimit:3.25;stroke-dasharray:none;stroke-opacity:1"
       transform="scale(1.3333333)" />
    <path
       id="path43"
       d="m 6.5384442,-7.0912322 c 0.2109375,0.1523437 0.3984375,0.3984375 0.5625,0.6914062 l 0.2226563,-0.9375 H 8.4603192 L 7.0306317,-0.59904475 C 6.831413,0.33845525 6.5384442,1.0884553 6.1400067,1.6275178 5.4017255,2.6353303 4.3353192,3.1392365 2.9056317,3.1392365 2.097038,3.1392365 1.4759442,2.9517365 1.0071942,2.600174 0.53844425,2.2486115 0.3392255,1.6861115 0.4329755,0.92439275 H 1.7103192 C 1.6986005,1.2642365 1.768913,1.5103303 1.909538,1.6978303 c 0.2109375,0.2695312 0.6328125,0.4101562 1.2304687,0.4101562 0.9609375,0 1.6640625,-0.3398437 2.0976563,-1.0078125 0.2578125,-0.3984375 0.4804687,-1.1015625 0.6796875,-2.1210937 -0.328125,0.3632812 -0.6796875,0.65624995 -1.0664063,0.8320312 -0.3867187,0.1875 -0.8789062,0.28125 -1.453125,0.28125 -0.796875,0 -1.4414062,-0.28125 -1.921875,-0.84375 C 0.9954755,-1.337326 0.89000675,-2.2631072 1.1712567,-3.587326 1.440788,-4.8177947 1.9329755,-5.790451 2.706413,-6.4818572 c 0.75,-0.6914063 1.5585937,-1.0546875 2.4023437,-1.0546875 0.5859375,0 1.0664063,0.140625 1.4296875,0.4453125 z m -1.4296875,0.6679687 c -0.8789062,0 -1.5585937,0.4101563 -2.0507812,1.2304688 -0.2695313,0.4335937 -0.4804688,0.9960937 -0.6210938,1.7109375 -0.1875,0.8320312 -0.140625,1.4648437 0.09375,1.9101562 0.2460938,0.4335938 0.65625,0.64453125 1.2304688,0.64453125 0.890625,0 1.6054687,-0.38671875 2.1445312,-1.19531245 0.2929688,-0.46875 0.5039063,-0.9960938 0.6328125,-1.6054688 0.1992188,-0.9140625 0.1523438,-1.59375 -0.1289062,-2.0390625 -0.28125,-0.4335937 -0.7148438,-0.65625 -1.3007813,-0.65625 z m 0,0"
       style="fill:#000000;fill-opacity:1;fill-rule:nonzero;stroke:none"
       aria-label="g"
       transform="matrix(1.3333333,0,0,1.3333333,346.20395,155.0956)" />
    <path
       id="path44"
       d="m 318.371,75.402 0.606,-0.675 0.726,-0.547 0.817,-0.399 0.882,-0.222 0.91,-0.039 0.899,0.148 0.851,0.32 0.774,0.473 0.664,0.601 0.531,0.696 0.379,0.742 0.227,0.75 0.07,0.715 -0.074,0.633 -0.199,0.523 -0.305,0.371 -0.379,0.207 -0.414,0.024 -0.414,-0.161 -0.379,-0.343 -0.309,-0.5 -0.207,-0.637 -0.082,-0.742 0.063,-0.801 0.219,-0.824 0.375,-0.797 0.519,-0.734 0.66,-0.629 0.766,-0.489 0.848,-0.328 0.898,-0.148 0.91,0.035 0.883,0.219 0.824,0.386 0.731,0.532 0.613,0.64 0.473,0.719 0.316,0.75 0.164,0.742 0.012,0.688 -0.129,0.594 -0.246,0.464 -0.34,0.305 -0.395,0.133 -0.421,-0.051 -0.403,-0.234 -0.355,-0.41 -0.274,-0.559 -0.156,-0.684 -0.027,-0.769 0.129,-0.817 0.281,-0.816 0.433,-0.777 0.582,-0.696 0.704,-0.578 0.804,-0.426 0.871,-0.257 0.907,-0.075 0.906,0.114 0.863,0.289 0.789,0.445 0.688,0.582 0.554,0.676 0.411,0.738 0.257,0.75 0.098,0.727 -0.047,0.652 -0.18,0.547 -0.285,0.402 -0.367,0.239 -0.41,0.058 -0.418,-0.125 -0.387,-0.308 -0.324,-0.473 -0.23,-0.613 -0.106,-0.723 0.035,-0.797 0.188,-0.82 0.343,-0.809 0.497,-0.746 0.632,-0.652 0.75,-0.52 0.836,-0.359 0.891,-0.184 0.91,0.004 0.891,0.184 0.836,0.355 0.754,0.504 0.636,0.625 0.496,0.707 0.352,0.75 0.191,0.746 0.039,0.699 -0.105,0.614 -0.227,0.492 -0.32,0.34 -0.391,0.168 -0.418,-0.02 -0.41,-0.199 -0.367,-0.379 -0.289,-0.531 -0.18,-0.664 -0.05,-0.758 0.093,-0.809 0.254,-0.82 0.407,-0.789 0.554,-0.715 0.68,-0.601 0.789,-0.457 0.863,-0.289 0.903,-0.11 0.906,0.078 0.875,0.254 0.805,0.422 0.707,0.555 0.586,0.664 0.437,0.73 0.285,0.75 0.129,0.735 -0.019,0.668 -0.157,0.57 -0.269,0.434 -0.352,0.269 -0.406,0.094 -0.418,-0.09 -0.398,-0.277 -0.34,-0.442 -0.246,-0.59 -0.133,-0.703 0.008,-0.785 0.156,-0.82 0.316,-0.813 0.469,-0.761 0.609,-0.672 0.727,-0.547 0.82,-0.395 0.887,-0.215 0.906,-0.035 0.899,0.153 0.851,0.324 0.77,0.476"
       style="fill:none;stroke:#000000;stroke-width:0.6144;stroke-linecap:square;stroke-linejoin:miter;stroke-miterlimit:3.25;stroke-dasharray:none;stroke-opacity:1"
       transform="scale(1.3333333)" />
    <path
       id="path45"
       d="m 6.5377478,-7.0894474 c 0.2109375,0.1523437 0.3984375,0.3984375 0.5625,0.6914062 l 0.2226563,-0.9375 h 1.1367187 l -1.4296875,6.73828126 c -0.1992187,0.9375 -0.4921875,1.68750004 -0.890625,2.22656254 -0.7382812,1.0078125 -1.8046875,1.5117187 -3.234375,1.5117187 -0.8085937,0 -1.4296875,-0.1875 -1.8984375,-0.5390625 C 0.53774781,2.2503963 0.33852906,1.6878963 0.43227906,0.92617756 H 1.7096228 c -0.011719,0.33984374 0.058594,0.58593754 0.1992188,0.77343754 0.2109375,0.2695312 0.6328125,0.4101562 1.2304687,0.4101562 0.9609375,0 1.6640625,-0.3398437 2.0976563,-1.0078125 0.2578125,-0.39843749 0.4804687,-1.1015624875 0.6796875,-2.1210937 -0.328125,0.36328121 -0.6796875,0.65624996 -1.0664063,0.83203121 -0.3867187,0.1875000025 -0.8789062,0.28125 -1.453125,0.28125 -0.796875,0 -1.4414062,-0.28125 -1.921875,-0.84375 C 0.99477906,-1.3355412 0.88931031,-2.2613224 1.1705603,-3.5855412 c 0.2695313,-1.2304687 0.7617188,-2.203125 1.5351563,-2.8945312 0.75,-0.6914063 1.5585937,-1.0546875 2.4023437,-1.0546875 0.5859375,0 1.0664063,0.140625 1.4296875,0.4453125 z m -1.4296875,0.6679687 c -0.8789062,0 -1.5585937,0.4101563 -2.0507812,1.2304688 -0.2695313,0.4335937 -0.4804688,0.9960937 -0.6210938,1.7109375 -0.1875,0.8320312 -0.140625,1.4648437 0.09375,1.9101562 0.2460938,0.4335938 0.65625,0.64453126 1.2304688,0.64453126 0.890625,0 1.6054687,-0.38671876 2.1445312,-1.19531246 0.2929688,-0.46875 0.5039063,-0.9960938 0.6328125,-1.6054688 0.1992188,-0.9140625 0.1523438,-1.59375 -0.1289062,-2.0390625 -0.28125,-0.4335937 -0.7148438,-0.65625 -1.3007813,-0.65625 z m 0,0"
       style="fill:#000000;fill-opacity:1;fill-rule:nonzero;stroke:none"
       aria-label="g"
       transform="matrix(1.3333333,0,0,1.3333333,443.24785,85.683065)" />
    <path
       id="path46"
       d="m 318.371,120.086 0.77,-0.477 0.851,-0.324 0.899,-0.152 0.906,0.031 0.887,0.219 0.82,0.394 0.726,0.543 0.61,0.676 0.469,0.762 0.316,0.812 0.156,0.821 0.008,0.781 -0.133,0.707 -0.246,0.59 -0.34,0.441 -0.398,0.278 -0.418,0.089 -0.406,-0.093 -0.352,-0.27 -0.269,-0.434 -0.157,-0.57 -0.019,-0.668 0.129,-0.734 0.285,-0.754 0.437,-0.727 0.586,-0.664 0.707,-0.554 0.805,-0.422 0.875,-0.254 0.906,-0.078 0.903,0.109 0.863,0.289 0.789,0.457 0.684,0.602 0.55,0.715 0.407,0.789 0.253,0.82 0.098,0.809 -0.055,0.757 -0.179,0.664 -0.289,0.532 -0.367,0.379 -0.411,0.199 -0.418,0.015 -0.39,-0.164 -0.321,-0.339 -0.226,-0.493 -0.106,-0.613 0.039,-0.703 0.192,-0.746 0.351,-0.746 0.497,-0.707 0.636,-0.625 0.754,-0.504 0.836,-0.356 0.891,-0.187 h 0.91 l 0.89,0.183 0.836,0.36 0.75,0.519 0.633,0.653 0.496,0.746 0.344,0.808 0.188,0.821 0.035,0.797 -0.106,0.722 -0.23,0.613 -0.324,0.473 -0.387,0.309 -0.418,0.125 -0.41,-0.059 -0.367,-0.238 -0.286,-0.402 -0.179,-0.547 -0.047,-0.653 0.098,-0.726 0.257,-0.75 0.41,-0.739 0.555,-0.675 0.688,-0.582 0.789,-0.446 0.863,-0.289 0.906,-0.113 0.906,0.074 0.872,0.258 0.804,0.426 0.703,0.574 0.582,0.695 0.434,0.778 0.281,0.82 0.129,0.816 -0.027,0.77 -0.156,0.683 -0.274,0.559 -0.355,0.41 -0.403,0.235 -0.422,0.05 -0.394,-0.132 -0.34,-0.309 -0.246,-0.465 -0.129,-0.59 0.012,-0.687 0.164,-0.742 0.316,-0.75 0.473,-0.719 0.613,-0.641 0.731,-0.531 0.824,-0.387 0.883,-0.218 0.91,-0.036 0.898,0.149 0.848,0.328 0.766,0.488 0.66,0.629 0.523,0.735 0.371,0.796 0.219,0.825 0.063,0.8 -0.083,0.743 -0.207,0.636 -0.308,0.5 -0.379,0.34 -0.414,0.164 -0.414,-0.023 -0.379,-0.207 -0.305,-0.375 -0.199,-0.52 -0.074,-0.637 0.07,-0.71 0.227,-0.75 0.382,-0.743 0.528,-0.695 0.664,-0.602 0.773,-0.472 0.852,-0.32 0.898,-0.149 0.911,0.039 0.882,0.223 0.817,0.398 0.726,0.547 0.606,0.676"
       style="fill:none;stroke:#000000;stroke-width:0.6144;stroke-linecap:square;stroke-linejoin:miter;stroke-miterlimit:3.25;stroke-dasharray:none;stroke-opacity:1"
       transform="scale(1.3333333)" />
    <path
       id="path47"
       d="m 6.5398976,-7.0903429 c 0.2109375,0.1523437 0.3984375,0.3984375 0.5625,0.6914062 l 0.2226562,-0.9375 h 1.1367188 l -1.4296875,6.73828126 c -0.1992188,0.9375 -0.4921875,1.68750004 -0.890625,2.22656254 -0.7382813,1.0078125 -1.8046875,1.5117187 -3.234375,1.5117187 -0.8085938,0 -1.4296875,-0.1875 -1.8984375,-0.5390625 C 0.53989756,2.2495008 0.34067881,1.6870008 0.43442881,0.92528206 H 1.7117726 c -0.011719,0.33984374 0.058594,0.58593754 0.1992187,0.77343754 0.2109375,0.2695312 0.6328125,0.4101562 1.2304688,0.4101562 0.9609375,0 1.6640625,-0.3398437 2.0976562,-1.0078125 0.2578125,-0.39843749 0.4804688,-1.1015624875 0.6796875,-2.1210937 -0.328125,0.36328121 -0.6796875,0.65624996 -1.0664062,0.83203121 -0.3867188,0.1875000025 -0.8789063,0.28125 -1.453125,0.28125 -0.796875,0 -1.4414063,-0.28125 -1.921875,-0.84375 C 0.99692881,-1.3364367 0.89146006,-2.2622179 1.1727101,-3.5864367 c 0.2695312,-1.2304687 0.7617187,-2.203125 1.5351562,-2.8945312 0.75,-0.6914063 1.5585938,-1.0546875 2.4023438,-1.0546875 0.5859375,0 1.0664062,0.140625 1.4296875,0.4453125 z m -1.4296875,0.6679687 c -0.8789063,0 -1.5585938,0.4101563 -2.0507813,1.2304688 -0.2695312,0.4335937 -0.4804687,0.9960937 -0.6210937,1.7109375 -0.1875,0.8320312 -0.140625,1.4648437 0.09375,1.9101562 0.2460937,0.4335938 0.65625,0.64453126 1.2304687,0.64453126 0.890625,0 1.6054688,-0.38671876 2.1445313,-1.19531246 0.2929687,-0.46875 0.5039062,-0.9960938 0.6328125,-1.6054688 0.1992187,-0.9140625 0.1523437,-1.59375 -0.1289063,-2.0390625 -0.28125,-0.4335937 -0.7148437,-0.65625 -1.3007812,-0.65625 z m 0,0"
       style="fill:#000000;fill-opacity:1;fill-rule:nonzero;stroke:none"
       aria-label="g"
       transform="matrix(1.3333333,0,0,1.3333333,442.51061,193.65301)" />
    <path
       id="path48"
       d="M 282.066,97.746 318.371,75.402"
       style="fill:none;stroke:#000000;stroke-width:0.6144;stroke-linecap:butt;stroke-linejoin:miter;stroke-miterlimit:3.25;stroke-dasharray:0.6144, 3.6864;stroke-dashoffset:0;stroke-opacity:1"
       transform="scale(1.3333333)" />
    <path
       id="path49"
       d="m 297.363,88.332 6.879,-1.609 -2.34,-3.809 z"
       style="fill:#000000;fill-opacity:1;fill-rule:evenodd;stroke:none"
       transform="scale(1.3333333)" />
    <path
       id="path50"
       d="m 2.1571303,-7.393523 v 4.921875 c 0,0.3632812 0.046875,0.6796875 0.1757813,0.9140625 0.2109375,0.4453125 0.6210937,0.66796875 1.2304687,0.66796875 0.8671875,0 1.4648438,-0.38671875 1.7695313,-1.16015625 0.1757812,-0.4101563 0.2578125,-0.9960938 0.2578125,-1.7109375 V -7.393523 h 1.2421875 v 7.39453125 h -1.171875 l 0.011719,-1.08984375 c -0.1640625,0.28125 -0.3632812,0.52734375 -0.609375,0.7265625 -0.4570312,0.375 -1.0429687,0.57421875 -1.7226562,0.57421875 -1.0429688,0 -1.7695313,-0.3515625 -2.15625,-1.0546875 C 0.97353656,-1.2294605 0.87978656,-1.721648 0.87978656,-2.3661793 V -7.393523 Z m 11.1767577,-3.011719 c 0.949219,0 1.769531,0.1875 2.484375,0.5507815 0.996094,0.5273437 1.605469,1.4648437 1.839844,2.7773437 h -1.359375 c -0.175781,-0.7382812 -0.515625,-1.2773437 -1.03125,-1.6171875 -0.515625,-0.3398437 -1.183594,-0.5039062 -1.96875,-0.5039062 -0.9375,0 -1.734375,0.3515625 -2.367188,1.0546875 -0.65625,0.7148437 -0.9726559,1.7578125 -0.9726559,3.1523437 0,1.2070313 0.2695309,2.1914063 0.7968749,2.953125 0.527344,0.75 1.394531,1.1367188 2.589844,1.1367188 0.914062,0 1.675781,-0.2695313 2.285156,-0.796875 0.597656,-0.5390625 0.902344,-1.40625 0.914063,-2.5898438 H 13.369044 V -5.424773 h 4.453125 V 0.00100825 H 16.943263 L 16.603419,-1.299773 c -0.46875,0.50390625 -0.878906,0.8671875 -1.230468,1.0546875 -0.609375,0.33984375 -1.371094,0.52734375 -2.308594,0.52734375 -1.195313,0 -2.238281,-0.3984375 -3.0937501,-1.171875 C 9.0213881,-1.862273 8.5526381,-3.2099293 8.5526381,-4.909148 c 0,-1.6992188 0.4570313,-3.0585938 1.3828125,-4.0664063 0.8671874,-0.9492187 2.0039064,-1.4296877 3.3984374,-1.4296877 z m 0,0"
       style="fill:#000000;fill-opacity:1;fill-rule:nonzero;stroke:none"
       aria-label="uG"
       transform="matrix(1.3333333,0,0,1.3333333,372.30742,103.35803)" />
    <path
       id="path51"
       d="m 282.066,97.746 36.305,22.34"
       style="fill:none;stroke:#000000;stroke-width:0.6144;stroke-linecap:butt;stroke-linejoin:miter;stroke-miterlimit:3.25;stroke-dasharray:0.6144, 3.6864;stroke-dashoffset:0;stroke-opacity:1"
       transform="scale(1.3333333)" />
    <path
       id="path52"
       d="m 303.074,110.672 -6.883,-1.61 2.344,-3.804 z"
       style="fill:#000000;fill-opacity:1;fill-rule:evenodd;stroke:none"
       transform="scale(1.3333333)" />
    <path
       id="path53"
       d="m 2.1571303,-7.3952376 v 4.921875 c 0,0.3632813 0.046875,0.6796875 0.1757813,0.9140625 0.2109375,0.4453125 0.6210937,0.66796879 1.2304687,0.66796879 0.8671875,0 1.4648438,-0.38671879 1.7695313,-1.16015629 0.1757812,-0.4101562 0.2578125,-0.9960937 0.2578125,-1.7109375 V -7.3952376 H 6.8329116 V -7.063125e-4 H 5.6610366 L 5.6727553,-1.0905501 c -0.1640625,0.28125004 -0.3632812,0.52734379 -0.609375,0.72656254 -0.4570312,0.375 -1.0429687,0.57421875 -1.7226562,0.57421875 -1.0429688,0 -1.7695313,-0.3515625 -2.15625,-1.0546875 C 0.97353656,-1.2311751 0.87978656,-1.7233626 0.87978656,-2.3678938 V -7.3952376 Z M 13.333888,-10.406956 c 0.949219,0 1.769531,0.1875 2.484375,0.5507809 0.996094,0.5273438 1.605469,1.4648438 1.839844,2.7773438 h -1.359375 c -0.175781,-0.7382813 -0.515625,-1.2773438 -1.03125,-1.6171875 -0.515625,-0.3398438 -1.183594,-0.5039063 -1.96875,-0.5039063 -0.9375,0 -1.734375,0.3515625 -2.367188,1.0546875 -0.65625,0.7148438 -0.9726559,1.7578125 -0.9726559,3.1523438 0,1.2070312 0.2695309,2.1914062 0.7968749,2.953125 0.527344,0.75 1.394531,1.13671874 2.589844,1.13671874 0.914062,0 1.675781,-0.26953124 2.285156,-0.79687504 0.597656,-0.5390625 0.902344,-1.40625 0.914063,-2.5898437 h -3.175782 v -1.1367188 h 4.453125 V -7.063125e-4 H 16.943263 L 16.603419,-1.3014876 c -0.46875,0.50390629 -0.878906,0.86718754 -1.230468,1.05468754 -0.609375,0.33984375 -1.371094,0.52734375 -2.308594,0.52734375 -1.195313,0 -2.238281,-0.3984375 -3.0937501,-1.171875 C 9.0213881,-1.8639876 8.5526381,-3.2116438 8.5526381,-4.9108626 c 0,-1.6992187 0.4570313,-3.0585937 1.3828125,-4.0664062 0.8671874,-0.9492188 2.0039064,-1.4296872 3.3984374,-1.4296872 z m 0,0"
       style="fill:#000000;fill-opacity:1;fill-rule:nonzero;stroke:none"
       aria-label="uG"
       transform="matrix(1.3333333,0,0,1.3333333,372.30742,170.81735)" />
    <path
       id="path54"
       d="m 318.371,75.402 v 44.684"
       style="fill:none;stroke:#000000;stroke-width:0.6144;stroke-linecap:butt;stroke-linejoin:miter;stroke-miterlimit:3.25;stroke-dasharray:0.6144, 3.6864;stroke-dashoffset:0;stroke-opacity:1"
       transform="scale(1.3333333)" />
    <path
       id="path55"
       d="m 318.371,94.395 -2.234,6.703 h 4.468 z"
       style="fill:#000000;fill-opacity:1;fill-rule:evenodd;stroke:none"
       transform="scale(1.3333333)" />
    <path
       id="path56"
       d="m 2.1569936,-7.3958451 v 4.921875 c 0,0.3632812 0.046875,0.6796875 0.1757813,0.9140625 0.2109375,0.4453125 0.6210937,0.66796873 1.2304687,0.66796873 0.8671875,0 1.4648438,-0.38671873 1.7695313,-1.16015623 0.1757812,-0.4101563 0.2578125,-0.9960938 0.2578125,-1.7109375 v -3.6328125 h 1.2421875 v 7.39453123 h -1.171875 l 0.011719,-1.08984373 c -0.1640625,0.28124998 -0.3632812,0.52734373 -0.609375,0.72656248 -0.4570312,0.375 -1.0429687,0.57421875 -1.7226562,0.57421875 -1.0429688,0 -1.7695313,-0.3515625 -2.15625,-1.0546875 C 0.97339988,-1.2317826 0.87964988,-1.7239701 0.87964988,-2.3685014 V -7.3958451 Z M 13.333751,-10.407564 c 0.949219,0 1.769532,0.1875 2.484375,0.5507814 0.996094,0.5273437 1.605469,1.4648437 1.839844,2.7773437 h -1.359375 c -0.175781,-0.7382812 -0.515625,-1.2773437 -1.03125,-1.6171875 -0.515625,-0.3398437 -1.183594,-0.5039062 -1.96875,-0.5039062 -0.9375,0 -1.734375,0.3515625 -2.367187,1.0546875 -0.65625,0.7148437 -0.9726566,1.7578125 -0.9726566,3.1523437 0,1.2070313 0.2695316,2.1914063 0.7968746,2.953125 0.527344,0.75 1.394532,1.13671878 2.589844,1.13671878 0.914063,0 1.675781,-0.26953128 2.285156,-0.79687498 0.597657,-0.5390625 0.902344,-1.40625 0.914063,-2.5898438 h -3.175781 v -1.1367187 h 4.453125 v 5.42578123 H 16.943126 L 16.603283,-1.3020951 c -0.46875,0.50390623 -0.878907,0.86718748 -1.230469,1.05468748 -0.609375,0.33984375 -1.371094,0.52734375 -2.308594,0.52734375 -1.195312,0 -2.238281,-0.3984375 -3.0937498,-1.171875 C 9.0212514,-1.8645951 8.5525014,-3.2122514 8.5525014,-4.9114701 c 0,-1.6992188 0.4570313,-3.0585938 1.3828125,-4.0664063 0.8671871,-0.9492187 2.0039061,-1.4296876 3.3984371,-1.4296876 z m 0,0"
       style="fill:#000000;fill-opacity:1;fill-rule:nonzero;stroke:none"
       aria-label="uG"
       transform="matrix(1.3333333,0,0,1.3333333,433.0537,137.08769)" />
    <path
       id="path57"
       d="m 284.523,97.746 c 0,0.652 -0.257,1.277 -0.718,1.738 -0.461,0.461 -1.086,0.719 -1.739,0.719 -0.652,0 -1.277,-0.258 -1.738,-0.719 -0.461,-0.461 -0.719,-1.086 -0.719,-1.738 0,-0.652 0.258,-1.277 0.719,-1.738 0.461,-0.461 1.086,-0.719 1.738,-0.719 0.653,0 1.278,0.258 1.739,0.719 0.461,0.461 0.718,1.086 0.718,1.738 z"
       style="fill:#000000;fill-opacity:1;fill-rule:evenodd;stroke:none"
       transform="scale(1.3333333)" />
    <path
       id="path58"
       d="m 320.828,75.402 c 0,0.653 -0.258,1.278 -0.719,1.739 -0.461,0.461 -1.086,0.718 -1.738,0.718 -0.652,0 -1.277,-0.257 -1.738,-0.718 -0.461,-0.461 -0.719,-1.086 -0.719,-1.739 0,-0.652 0.258,-1.277 0.719,-1.738 0.461,-0.461 1.086,-0.719 1.738,-0.719 0.652,0 1.277,0.258 1.738,0.719 0.461,0.461 0.719,1.086 0.719,1.738 z"
       style="fill:#000000;fill-opacity:1;fill-rule:evenodd;stroke:none"
       transform="scale(1.3333333)" />
    <path
       id="path59"
       d="m 320.828,120.086 c 0,0.652 -0.258,1.277 -0.719,1.738 -0.461,0.461 -1.086,0.719 -1.738,0.719 -0.652,0 -1.277,-0.258 -1.738,-0.719 -0.461,-0.461 -0.719,-1.086 -0.719,-1.738 0,-0.652 0.258,-1.277 0.719,-1.738 0.461,-0.461 1.086,-0.719 1.738,-0.719 0.652,0 1.277,0.258 1.738,0.719 0.461,0.461 0.719,1.086 0.719,1.738 z"
       style="fill:#000000;fill-opacity:1;fill-rule:evenodd;stroke:none"
       transform="scale(1.3333333)" />
    <path
       id="path60"
       d="m 2.9167045,0.22153081 c -0.9257813,0 -1.59375,-0.2578125 -2.02734375,-0.7734375 C 0.46748575,-1.0675317 0.25654825,-1.6769067 0.25654825,-2.4151879 H 1.299517 c 0.046875,0.5039062 0.140625,0.8789062 0.2929687,1.1015625 0.2460938,0.42187496 0.7148438,0.62109371 1.3828125,0.62109371 0.5273438,0 0.9375,-0.12890625 1.2539063,-0.41015621 0.3164062,-0.2695313 0.4804687,-0.6328125 0.4804687,-1.078125 0,-0.5507813 -0.1640625,-0.9257813 -0.5039062,-1.1367188 -0.328125,-0.2226562 -0.7851563,-0.328125 -1.3828125,-0.328125 -0.058594,0 -0.1289063,0 -0.1992188,0 -0.058594,0 -0.1289062,0 -0.2109375,0.011719 V -4.512844 c 0.1054688,0.011719 0.1875,0.023437 0.2578125,0.023437 0.070312,0 0.1523438,0.011719 0.2226563,0.011719 0.375,0 0.6796875,-0.070312 0.9140625,-0.1875 0.421875,-0.1992188 0.6328125,-0.5742188 0.6328125,-1.1015625 0,-0.3984375 -0.1289063,-0.6914063 -0.4101563,-0.9023438 -0.28125,-0.2109375 -0.609375,-0.328125 -0.9726562,-0.328125 -0.6679688,0 -1.125,0.2226563 -1.3828125,0.6679688 -0.1289063,0.234375 -0.2109375,0.5859375 -0.234375,1.03125 H 0.455767 c 0,-0.5859375 0.1171875,-1.0898438 0.3515625,-1.5 0.4101562,-0.7265625 1.125,-1.1015625 2.1328125,-1.1015625 0.8203125,0 1.4414062,0.1757812 1.875,0.5390625 0.4453125,0.3632812 0.65625,0.8789062 0.65625,1.5585937 0,0.4804688 -0.1289063,0.8789063 -0.3867188,1.171875 -0.1640625,0.1992188 -0.3632812,0.3398438 -0.6328125,0.4453125 0.421875,0.1054688 0.75,0.3398438 0.9726563,0.6679688 0.234375,0.3164062 0.3515625,0.7148437 0.3515625,1.1835937 0,0.75 -0.2460938,1.37109376 -0.75,1.85156251 -0.4921875,0.46875 -1.1953125,0.703125 -2.109375,0.7031251 z m 0,0"
       style="fill:#000000;fill-opacity:1;fill-rule:nonzero;stroke:none"
       aria-label="3"
       transform="matrix(1.3333333,0,0,1.3333333,398.07981,205.23197)"
       clip-path="url(#clipPath61)" />
  </g>
</svg>
