<?xml version="1.0" encoding="UTF-8" standalone="no"?>
<!-- Created with Inkscape (http://www.inkscape.org/) -->

<svg
   version="1.1"
   id="svg2"
   width="492"
   height="246.66667"
   viewBox="0 0 492 246.66667"
   sodipodi:docname="0cty7gtqz5g4m.pdf"
   xmlns:inkscape="http://www.inkscape.org/namespaces/inkscape"
   xmlns:sodipodi="http://sodipodi.sourceforge.net/DTD/sodipodi-0.dtd"
   xmlns="http://www.w3.org/2000/svg"
   xmlns:svg="http://www.w3.org/2000/svg">
  <defs
     id="defs6">
    <clipPath
       clipPathUnits="userSpaceOnUse"
       id="clipPath66">
      <path
         d="m 53,146 h 6 v 7.602 h -6 z"
         id="path64" />
    </clipPath>
    <clipPath
       clipPathUnits="userSpaceOnUse"
       id="clipPath88">
      <path
         d="m 209,56 h 9.879 V 68 H 209 Z"
         id="path86" />
    </clipPath>
    <clipPath
       clipPathUnits="userSpaceOnUse"
       id="clipPath132">
      <path
         d="m 176,146 h 6 v 7.602 h -6 z"
         id="path130" />
    </clipPath>
    <clipPath
       clipPathUnits="userSpaceOnUse"
       id="clipPath160">
      <path
         d="m 339,97 h 9.961 v 11.961 H 339 Z"
         id="path158" />
    </clipPath>
    <clipPath
       clipPathUnits="userSpaceOnUse"
       id="clipPath190">
      <path
         d="m 298,146 h 7 v 7.602 h -7 z"
         id="path188" />
    </clipPath>
  </defs>
  <sodipodi:namedview
     id="namedview4"
     pagecolor="#ffffff"
     bordercolor="#999999"
     borderopacity="1"
     inkscape:showpageshadow="0"
     inkscape:pageopacity="0"
     inkscape:pagecheckerboard="0"
     inkscape:deskcolor="#d1d1d1" />
  <g
     id="g8"
     inkscape:groupmode="layer"
     inkscape:label="0cty7gtqz5g4m"
     transform="matrix(1.3333333,0,0,1.3333333,0,9.5e-6)">
    <g
       id="g10">
      <path
         d="m 36.305,97.746 -0.629,0.52 -0.715,0.414 -0.773,0.289 -0.813,0.152 -0.828,0.008 L 31.73,98.992 30.953,98.719 30.23,98.32 29.59,97.812 29.043,97.219 28.605,96.562 28.289,95.871 28.09,95.18 l -0.078,-0.668 0.031,-0.614 0.133,-0.527 0.219,-0.426 0.281,-0.304 0.32,-0.168 0.336,-0.024 0.332,0.117 0.297,0.258 0.238,0.387 0.164,0.5 0.071,0.586 -0.039,0.648 -0.161,0.692 -0.277,0.691 -0.395,0.672 -0.511,0.621 -0.61,0.539 -0.695,0.438 -0.766,0.32 -0.804,0.18 -0.824,0.043 -0.821,-0.106 -0.793,-0.242 -0.734,-0.375 -0.66,-0.484 -0.571,-0.579 -0.461,-0.644 -0.343,-0.688 -0.227,-0.695 -0.101,-0.672 0.007,-0.629 0.114,-0.55 0.199,-0.45 0.269,-0.332 0.313,-0.199 0.336,-0.055 0.336,0.09 0.305,0.227 0.253,0.359 0.184,0.473 0.09,0.57 -0.016,0.641 -0.129,0.679 -0.25,0.7 -0.371,0.675 -0.488,0.633 -0.59,0.563 -0.68,0.461 -0.75,0.347 -0.796,0.211 -0.825,0.075 -0.824,-0.075 -0.797,-0.211 -0.75,-0.347 -0.679,-0.461 -0.59,-0.563 -0.485,-0.633 -0.371,-0.675 -0.254,-0.7 -0.129,-0.679 -0.015,-0.641 0.09,-0.57 0.183,-0.473 0.254,-0.359 0.309,-0.227 0.332,-0.09 0.336,0.055 0.316,0.199 0.266,0.332 0.199,0.45 0.113,0.55 0.008,0.629 -0.102,0.672 -0.226,0.695 -0.344,0.688 -0.461,0.644 -0.566,0.579 -0.664,0.484 -0.735,0.375 -0.789,0.242 -0.82,0.106 L 10.129,99.098 9.324,98.918 8.562,98.598 7.863,98.16 7.254,97.621 6.742,97 6.348,96.328 6.07,95.637 5.914,94.945 5.871,94.297 l 0.07,-0.586 0.164,-0.5 0.239,-0.387 0.297,-0.258 0.332,-0.117 0.336,0.024 0.324,0.168 0.277,0.304 0.219,0.426 0.133,0.527 0.031,0.614 L 8.215,95.18 8.02,95.871 7.699,96.562 7.262,97.219 6.719,97.812 6.074,98.32 5.355,98.719 4.574,98.992 3.758,99.129 2.93,99.121 2.117,98.969 1.344,98.68 0.633,98.266 0,97.746"
         style="fill:none;stroke:#000000;stroke-width:0.6144;stroke-linecap:square;stroke-linejoin:miter;stroke-miterlimit:3.25;stroke-dasharray:none;stroke-opacity:1"
         id="path12" />
      <text
         xml:space="preserve"
         transform="translate(13.892962,116.3217)"
         style="font-variant:normal;font-size:14.16px;font-family:CairoFont-0;-inkscape-font-specification:CairoFont-0-0;writing-mode:lr-tb;fill:#000000;fill-opacity:1;fill-rule:nonzero;stroke:none"
         id="text16"><tspan
           x="0"
           y="0"
           id="tspan14">g</tspan></text>
      <path
         d="m 72.609,75.402 0.606,-0.675 0.726,-0.547 0.821,-0.399 0.883,-0.222 0.906,-0.039 0.902,0.148 0.852,0.32 0.769,0.473 0.664,0.601 0.532,0.696 0.382,0.742 0.227,0.75 0.07,0.715 -0.074,0.633 -0.203,0.523 -0.305,0.371 -0.375,0.207 -0.414,0.024 -0.418,-0.161 -0.379,-0.343 -0.308,-0.5 -0.207,-0.637 -0.082,-0.742 0.062,-0.801 0.219,-0.824 0.375,-0.797 0.523,-0.734 0.657,-0.629 0.765,-0.489 0.852,-0.328 0.898,-0.148 0.906,0.035 0.887,0.219 0.824,0.386 0.731,0.532 0.609,0.64 0.473,0.719 0.32,0.75 0.16,0.742 0.012,0.688 -0.129,0.594 -0.246,0.464 -0.336,0.305 -0.398,0.133 -0.418,-0.051 -0.407,-0.234 -0.355,-0.41 -0.27,-0.559 -0.16,-0.684 -0.023,-0.769 0.125,-0.817 0.281,-0.816 0.438,-0.777 0.578,-0.696 0.703,-0.578 0.805,-0.426 0.875,-0.257 0.906,-0.075 0.902,0.114 0.863,0.289 0.793,0.445 0.684,0.582 0.559,0.676 0.41,0.738 0.254,0.75 0.101,0.727 -0.047,0.652 -0.179,0.547 -0.289,0.402 -0.364,0.239 -0.41,0.058 -0.418,-0.125 -0.39,-0.308 -0.325,-0.473 -0.23,-0.613 -0.106,-0.723 0.036,-0.797 0.187,-0.82 0.344,-0.809 0.496,-0.746 0.633,-0.652 0.75,-0.52 0.836,-0.359 0.89,-0.184 0.91,0.004 0.891,0.184 0.84,0.355 0.75,0.504 0.637,0.625 0.5,0.707 0.347,0.75 0.192,0.746 0.039,0.699 -0.102,0.614 -0.226,0.492 -0.325,0.34 -0.386,0.168 -0.418,-0.02 -0.41,-0.199 -0.368,-0.379 -0.289,-0.531 -0.183,-0.664 -0.051,-0.758 0.098,-0.809 0.25,-0.82 0.406,-0.789 0.554,-0.715 0.684,-0.601 0.785,-0.457 0.864,-0.289 0.902,-0.11 0.91,0.078 0.871,0.254 0.809,0.422 0.707,0.555 0.582,0.664 0.441,0.73 0.285,0.75 0.129,0.735 -0.023,0.668 -0.156,0.57 -0.266,0.434 -0.356,0.269 -0.402,0.094 -0.422,-0.09 -0.394,-0.277 -0.34,-0.442 -0.25,-0.59 -0.133,-0.703 0.008,-0.785 0.16,-0.82 0.313,-0.813 0.468,-0.761 0.61,-0.672 0.73,-0.547 0.82,-0.395 0.883,-0.215 0.91,-0.035 0.899,0.153 0.848,0.324 0.773,0.476"
         style="fill:none;stroke:#000000;stroke-width:0.6144;stroke-linecap:square;stroke-linejoin:miter;stroke-miterlimit:3.25;stroke-dasharray:none;stroke-opacity:1"
         id="path18" />
      <text
         xml:space="preserve"
         transform="translate(86.675885,64.262299)"
         style="font-variant:normal;font-size:14.16px;font-family:CairoFont-0;-inkscape-font-specification:CairoFont-0-0;writing-mode:lr-tb;fill:#000000;fill-opacity:1;fill-rule:nonzero;stroke:none"
         id="text22"><tspan
           x="0"
           y="0"
           id="tspan20">g</tspan></text>
      <path
         d="m 72.609,120.086 0.77,-0.477 0.851,-0.324 0.899,-0.152 0.91,0.031 0.883,0.219 0.82,0.394 0.731,0.543 0.609,0.676 0.469,0.762 0.312,0.812 0.16,0.821 0.008,0.781 -0.133,0.707 -0.25,0.59 -0.339,0.441 -0.399,0.278 -0.418,0.089 -0.402,-0.093 -0.356,-0.27 -0.265,-0.434 -0.157,-0.57 -0.023,-0.668 0.129,-0.734 0.285,-0.754 0.442,-0.727 0.582,-0.664 0.707,-0.554 0.808,-0.422 0.871,-0.254 0.91,-0.078 0.903,0.109 0.863,0.289 0.785,0.457 0.684,0.602 0.554,0.715 0.407,0.789 0.25,0.82 0.097,0.809 -0.05,0.757 -0.184,0.664 -0.289,0.532 -0.367,0.379 -0.41,0.199 -0.418,0.015 -0.387,-0.164 -0.324,-0.339 -0.227,-0.493 -0.101,-0.613 0.039,-0.703 0.191,-0.746 0.348,-0.746 0.5,-0.707 0.636,-0.625 0.75,-0.504 0.84,-0.356 0.891,-0.187 h 0.91 l 0.891,0.183 0.836,0.36 0.746,0.519 0.636,0.653 0.493,0.746 0.347,0.808 0.188,0.821 0.035,0.797 -0.109,0.722 -0.227,0.613 -0.324,0.473 -0.391,0.309 -0.418,0.125 -0.41,-0.059 -0.363,-0.238 -0.289,-0.402 -0.18,-0.547 -0.047,-0.653 0.102,-0.726 0.254,-0.75 0.41,-0.739 0.558,-0.675 0.684,-0.582 0.793,-0.446 0.863,-0.289 0.903,-0.113 0.906,0.074 0.875,0.258 0.804,0.426 0.704,0.574 0.578,0.695 0.437,0.778 0.281,0.82 0.125,0.816 -0.023,0.77 -0.16,0.683 -0.27,0.559 -0.355,0.41 -0.406,0.235 -0.418,0.05 -0.399,-0.132 -0.336,-0.309 -0.246,-0.465 -0.129,-0.59 0.012,-0.687 0.16,-0.742 0.32,-0.75 0.473,-0.719 0.61,-0.641 0.73,-0.531 0.824,-0.387 0.887,-0.218 0.906,-0.036 0.899,0.149 0.847,0.328 0.77,0.488 0.656,0.629 0.523,0.735 0.375,0.796 0.219,0.825 0.063,0.8 -0.082,0.743 -0.207,0.636 -0.309,0.5 -0.379,0.34 -0.418,0.164 -0.414,-0.023 -0.375,-0.207 -0.305,-0.375 -0.203,-0.52 -0.074,-0.637 0.07,-0.71 0.227,-0.75 0.383,-0.743 0.531,-0.695 0.66,-0.602 0.774,-0.472 0.851,-0.32 0.903,-0.149 0.906,0.039 0.883,0.223 0.82,0.398 0.726,0.547 0.606,0.676"
         style="fill:none;stroke:#000000;stroke-width:0.6144;stroke-linecap:square;stroke-linejoin:miter;stroke-miterlimit:3.25;stroke-dasharray:none;stroke-opacity:1"
         id="path24" />
      <text
         xml:space="preserve"
         transform="translate(86.122954,145.23976)"
         style="font-variant:normal;font-size:14.16px;font-family:CairoFont-0;-inkscape-font-specification:CairoFont-0-0;writing-mode:lr-tb;fill:#000000;fill-opacity:1;fill-rule:nonzero;stroke:none"
         id="text28"><tspan
           x="0"
           y="0"
           id="tspan26">g</tspan></text>
      <path
         d="M 36.305,97.746 72.609,75.402"
         style="fill:none;stroke:#000000;stroke-width:0.6144;stroke-linecap:butt;stroke-linejoin:miter;stroke-miterlimit:3.25;stroke-dasharray:0.6144, 3.6864;stroke-dashoffset:0;stroke-opacity:1"
         id="path30" />
      <path
         d="M 57.312,84.816 52.773,90.234 50.434,86.43 Z"
         style="fill:#000000;fill-opacity:1;fill-rule:evenodd;stroke:none"
         id="path32" />
      <text
         xml:space="preserve"
         transform="translate(33.470565,77.518523)"
         style="font-variant:normal;font-size:14.16px;font-family:CairoFont-1;-inkscape-font-specification:CairoFont-1-0;writing-mode:lr-tb;fill:#000000;fill-opacity:1;fill-rule:nonzero;stroke:none"
         id="text36"><tspan
           x="0 7.8729601"
           y="0"
           sodipodi:role="line"
           id="tspan34">uG</tspan></text>
      <path
         d="m 36.305,97.746 36.304,22.34"
         style="fill:none;stroke:#000000;stroke-width:0.6144;stroke-linecap:butt;stroke-linejoin:miter;stroke-miterlimit:3.25;stroke-dasharray:0.6144, 3.6864;stroke-dashoffset:0;stroke-opacity:1"
         id="path38" />
      <path
         d="m 51.605,107.16 4.536,5.414 2.343,-3.804 z"
         style="fill:#000000;fill-opacity:1;fill-rule:evenodd;stroke:none"
         id="path40" />
      <text
         xml:space="preserve"
         transform="translate(33.470565,128.11301)"
         style="font-variant:normal;font-size:14.16px;font-family:CairoFont-1;-inkscape-font-specification:CairoFont-1-0;writing-mode:lr-tb;fill:#000000;fill-opacity:1;fill-rule:nonzero;stroke:none"
         id="text44"><tspan
           x="0 7.8729601"
           y="0"
           sodipodi:role="line"
           id="tspan42">uG</tspan></text>
      <path
         d="m 72.609,75.402 v 44.684"
         style="fill:none;stroke:#000000;stroke-width:0.6144;stroke-linecap:butt;stroke-linejoin:miter;stroke-miterlimit:3.25;stroke-dasharray:0.6144, 3.6864;stroke-dashoffset:0;stroke-opacity:1"
         id="path46" />
      <path
         d="m 72.609,101.098 -2.234,-6.703 h 4.469 z"
         style="fill:#000000;fill-opacity:1;fill-rule:evenodd;stroke:none"
         id="path48" />
      <text
         xml:space="preserve"
         transform="translate(79.030272,102.81577)"
         style="font-variant:normal;font-size:14.16px;font-family:CairoFont-1;-inkscape-font-specification:CairoFont-1-0;writing-mode:lr-tb;fill:#000000;fill-opacity:1;fill-rule:nonzero;stroke:none"
         id="text52"><tspan
           x="0 7.8729601"
           y="0"
           sodipodi:role="line"
           id="tspan50">uG</tspan></text>
      <path
         d="m 38.762,97.746 c 0,0.652 -0.258,1.277 -0.719,1.738 -0.461,0.461 -1.086,0.719 -1.738,0.719 -0.653,0 -1.278,-0.258 -1.739,-0.719 -0.461,-0.461 -0.718,-1.086 -0.718,-1.738 0,-0.652 0.257,-1.277 0.718,-1.738 0.461,-0.461 1.086,-0.719 1.739,-0.719 0.652,0 1.277,0.258 1.738,0.719 0.461,0.461 0.719,1.086 0.719,1.738 z"
         style="fill:#000000;fill-opacity:1;fill-rule:evenodd;stroke:none"
         id="path54" />
      <path
         d="m 75.07,75.402 c 0,0.653 -0.261,1.278 -0.722,1.739 -0.461,0.461 -1.086,0.718 -1.739,0.718 -0.648,0 -1.273,-0.257 -1.734,-0.718 -0.461,-0.461 -0.723,-1.086 -0.723,-1.739 0,-0.652 0.262,-1.277 0.723,-1.738 0.461,-0.461 1.086,-0.719 1.734,-0.719 0.653,0 1.278,0.258 1.739,0.719 0.461,0.461 0.722,1.086 0.722,1.738 z"
         style="fill:#000000;fill-opacity:1;fill-rule:evenodd;stroke:none"
         id="path56" />
      <path
         d="m 75.07,120.086 c 0,0.652 -0.261,1.277 -0.722,1.738 -0.461,0.461 -1.086,0.719 -1.739,0.719 -0.648,0 -1.273,-0.258 -1.734,-0.719 -0.461,-0.461 -0.723,-1.086 -0.723,-1.738 0,-0.652 0.262,-1.277 0.723,-1.738 0.461,-0.461 1.086,-0.719 1.734,-0.719 0.653,0 1.278,0.258 1.739,0.719 0.461,0.461 0.722,1.086 0.722,1.738 z"
         style="fill:#000000;fill-opacity:1;fill-rule:evenodd;stroke:none"
         id="path58" />
    </g>
    <g
       id="g60">
      <g
         id="g62"
         clip-path="url(#clipPath66)">
        <text
           xml:space="preserve"
           transform="translate(52.799858,153.92398)"
           style="font-variant:normal;font-size:11.28px;font-family:CairoFont-1;-inkscape-font-specification:CairoFont-1-0;writing-mode:lr-tb;fill:#000000;fill-opacity:1;fill-rule:nonzero;stroke:none"
           id="text70"><tspan
             x="0"
             y="0"
             id="tspan68">4</tspan></text>
      </g>
    </g>
    <g
       id="g72">
      <path
         d="m 159.184,97.746 -0.629,0.52 -0.715,0.414 -0.774,0.289 -0.812,0.152 -0.828,0.008 -0.813,-0.137 -0.781,-0.273 -0.723,-0.399 -0.64,-0.508 -0.547,-0.593 -0.434,-0.657 -0.32,-0.691 -0.199,-0.691 -0.078,-0.668 0.035,-0.614 0.133,-0.527 0.214,-0.426 0.282,-0.304 0.32,-0.168 0.34,-0.024 0.328,0.117 0.297,0.258 0.242,0.387 0.16,0.5 0.07,0.586 -0.039,0.648 -0.156,0.692 -0.277,0.691 -0.399,0.672 -0.507,0.621 -0.614,0.539 -0.695,0.438 -0.762,0.32 -0.808,0.18 -0.825,0.043 -0.82,-0.106 -0.789,-0.242 -0.738,-0.375 -0.66,-0.484 -0.571,-0.579 -0.461,-0.644 -0.343,-0.688 -0.223,-0.695 -0.105,-0.672 0.007,-0.629 0.114,-0.55 0.199,-0.45 0.269,-0.332 0.313,-0.199 0.336,-0.055 0.336,0.09 0.304,0.227 0.258,0.359 0.18,0.473 0.09,0.57 -0.012,0.641 -0.133,0.679 -0.25,0.7 -0.371,0.675 -0.484,0.633 -0.59,0.563 -0.68,0.461 -0.75,0.347 -0.801,0.211 -0.824,0.075 -0.82,-0.075 -0.801,-0.211 -0.75,-0.347 -0.68,-0.461 -0.589,-0.563 -0.485,-0.633 -0.371,-0.675 -0.25,-0.7 -0.133,-0.679 -0.015,-0.641 0.093,-0.57 0.18,-0.473 0.254,-0.359 0.309,-0.227 0.332,-0.09 0.336,0.055 0.316,0.199 0.27,0.332 0.199,0.45 0.109,0.55 0.012,0.629 -0.106,0.672 -0.222,0.695 -0.348,0.688 -0.461,0.644 -0.566,0.579 -0.66,0.484 -0.739,0.375 -0.789,0.242 -0.82,0.106 -0.828,-0.043 -0.805,-0.18 -0.762,-0.32 -0.699,-0.438 -0.609,-0.539 -0.508,-0.621 -0.398,-0.672 -0.278,-0.691 -0.156,-0.692 -0.039,-0.648 0.066,-0.586 0.164,-0.5 0.243,-0.387 0.296,-0.258 0.329,-0.117 0.339,0.024 0.321,0.168 0.281,0.304 0.215,0.426 0.133,0.527 0.035,0.614 -0.082,0.668 -0.196,0.691 -0.32,0.691 -0.433,0.657 -0.547,0.593 -0.641,0.508 -0.723,0.399 -0.781,0.273 -0.816,0.137 -0.825,-0.008 -0.812,-0.152 -0.777,-0.289 -0.711,-0.414 -0.633,-0.52"
         style="fill:none;stroke:#000000;stroke-width:0.6144;stroke-linecap:square;stroke-linejoin:miter;stroke-miterlimit:3.25;stroke-dasharray:none;stroke-opacity:1"
         id="path74" />
      <text
         xml:space="preserve"
         transform="translate(136.77296,116.3217)"
         style="font-variant:normal;font-size:14.16px;font-family:CairoFont-0;-inkscape-font-specification:CairoFont-0-0;writing-mode:lr-tb;fill:#000000;fill-opacity:1;fill-rule:nonzero;stroke:none"
         id="text78"><tspan
           x="0"
           y="0"
           id="tspan76">g</tspan></text>
      <path
         d="m 195.492,75.402 0.606,-0.675 0.722,-0.547 0.821,-0.399 0.882,-0.222 0.911,-0.039 0.898,0.148 0.852,0.32 0.773,0.473 0.66,0.601 0.531,0.696 0.383,0.742 0.227,0.75 0.07,0.715 -0.074,0.633 -0.203,0.523 -0.305,0.371 -0.375,0.207 -0.414,0.024 -0.414,-0.161 -0.379,-0.343 -0.312,-0.5 -0.207,-0.637 -0.083,-0.742 0.067,-0.801 0.215,-0.824 0.375,-0.797 0.523,-0.734 0.656,-0.629 0.77,-0.489 0.848,-0.328 0.898,-0.148 0.91,0.035 0.883,0.219 0.824,0.386 0.731,0.532 0.613,0.64 0.469,0.719 0.32,0.75 0.164,0.742 0.008,0.688 -0.129,0.594 -0.246,0.464 -0.336,0.305 -0.398,0.133 -0.418,-0.051 -0.403,-0.234 -0.355,-0.41 -0.274,-0.559 -0.16,-0.684 -0.023,-0.769 0.125,-0.817 0.281,-0.816 0.438,-0.777 0.578,-0.696 0.707,-0.578 0.804,-0.426 0.871,-0.257 0.907,-0.075 0.902,0.114 0.867,0.289 0.789,0.445 0.684,0.582 0.558,0.676 0.411,0.738 0.257,0.75 0.098,0.727 -0.047,0.652 -0.179,0.547 -0.29,0.402 -0.363,0.239 -0.41,0.058 -0.418,-0.125 -0.391,-0.308 -0.324,-0.473 -0.226,-0.613 -0.11,-0.723 0.035,-0.797 0.188,-0.82 0.348,-0.809 0.496,-0.746 0.632,-0.652 0.747,-0.52 0.836,-0.359 0.89,-0.184 0.91,0.004 0.895,0.184 0.836,0.355 0.75,0.504 0.636,0.625 0.5,0.707 0.348,0.75 0.195,0.746 0.036,0.699 -0.102,0.614 -0.227,0.492 -0.324,0.34 -0.386,0.168 -0.418,-0.02 -0.411,-0.199 -0.367,-0.379 -0.289,-0.531 -0.183,-0.664 -0.051,-0.758 0.097,-0.809 0.25,-0.82 0.411,-0.789 0.55,-0.715 0.684,-0.601 0.789,-0.457 0.859,-0.289 0.907,-0.11 0.906,0.078 0.875,0.254 0.805,0.422 0.707,0.555 0.582,0.664 0.441,0.73 0.285,0.75 0.129,0.735 -0.019,0.668 -0.157,0.57 -0.269,0.434 -0.356,0.269 -0.402,0.094 -0.418,-0.09 -0.398,-0.277 -0.34,-0.442 -0.25,-0.59 -0.129,-0.703 0.004,-0.785 0.16,-0.82 0.316,-0.813 0.469,-0.761 0.606,-0.672 0.73,-0.547 0.82,-0.395 0.883,-0.215 0.91,-0.035 0.899,0.153 0.851,0.324 0.77,0.476"
         style="fill:none;stroke:#000000;stroke-width:0.6144;stroke-linecap:square;stroke-linejoin:miter;stroke-miterlimit:3.25;stroke-dasharray:none;stroke-opacity:1"
         id="path80" />
    </g>
    <g
       id="g82">
      <g
         id="g84"
         clip-path="url(#clipPath88)">
        <text
           xml:space="preserve"
           transform="translate(209.55588,64.262299)"
           style="font-variant:normal;font-size:14.16px;font-family:CairoFont-0;-inkscape-font-specification:CairoFont-0-0;writing-mode:lr-tb;fill:#000000;fill-opacity:1;fill-rule:nonzero;stroke:none"
           id="text92"><tspan
             x="0"
             y="0"
             id="tspan90">g</tspan></text>
      </g>
    </g>
    <g
       id="g94">
      <path
         d="m 195.492,120.086 0.77,-0.477 0.851,-0.324 0.895,-0.152 0.91,0.031 0.883,0.219 0.824,0.394 0.727,0.543 0.609,0.676 0.469,0.762 0.316,0.812 0.156,0.821 0.008,0.781 -0.133,0.707 -0.25,0.59 -0.339,0.441 -0.395,0.278 -0.422,0.089 -0.402,-0.093 -0.352,-0.27 -0.269,-0.434 -0.157,-0.57 -0.023,-0.668 0.133,-0.734 0.285,-0.754 0.437,-0.727 0.582,-0.664 0.707,-0.554 0.809,-0.422 0.875,-0.254 0.906,-0.078 0.903,0.109 0.863,0.289 0.785,0.457 0.684,0.602 0.554,0.715 0.407,0.789 0.254,0.82 0.093,0.809 -0.05,0.757 -0.184,0.664 -0.289,0.532 -0.367,0.379 -0.41,0.199 -0.418,0.015 -0.387,-0.164 -0.32,-0.339 -0.227,-0.493 -0.105,-0.613 0.039,-0.703 0.191,-0.746 0.348,-0.746 0.5,-0.707 0.636,-0.625 0.75,-0.504 0.84,-0.356 0.891,-0.187 h 0.91 l 0.891,0.183 0.836,0.36 0.75,0.519 0.632,0.653 0.496,0.746 0.344,0.808 0.188,0.821 0.035,0.797 -0.106,0.722 -0.23,0.613 -0.324,0.473 -0.391,0.309 -0.414,0.125 -0.41,-0.059 -0.367,-0.238 -0.285,-0.402 -0.18,-0.547 -0.051,-0.653 0.102,-0.726 0.253,-0.75 0.415,-0.739 0.554,-0.675 0.688,-0.582 0.789,-0.446 0.863,-0.289 0.902,-0.113 0.907,0.074 0.875,0.258 0.804,0.426 0.703,0.574 0.583,0.695 0.433,0.778 0.281,0.82 0.125,0.816 -0.023,0.77 -0.16,0.683 -0.27,0.559 -0.355,0.41 -0.406,0.235 -0.418,0.05 -0.395,-0.132 -0.34,-0.309 -0.246,-0.465 -0.129,-0.59 0.012,-0.687 0.16,-0.742 0.32,-0.75 0.473,-0.719 0.609,-0.641 0.735,-0.531 0.82,-0.387 0.887,-0.218 0.91,-0.036 0.894,0.149 0.852,0.328 0.766,0.488 0.656,0.629 0.523,0.735 0.375,0.796 0.219,0.825 0.063,0.8 -0.082,0.743 -0.207,0.636 -0.309,0.5 -0.379,0.34 -0.414,0.164 -0.414,-0.023 -0.379,-0.207 -0.305,-0.375 -0.199,-0.52 -0.078,-0.637 0.074,-0.71 0.223,-0.75 0.383,-0.743 0.531,-0.695 0.664,-0.602 0.77,-0.472 0.855,-0.32 0.898,-0.149 0.907,0.039 0.883,0.223 0.82,0.398 0.726,0.547 0.606,0.676"
         style="fill:none;stroke:#000000;stroke-width:0.6144;stroke-linecap:square;stroke-linejoin:miter;stroke-miterlimit:3.25;stroke-dasharray:none;stroke-opacity:1"
         id="path96" />
      <text
         xml:space="preserve"
         transform="translate(209.00295,145.23976)"
         style="font-variant:normal;font-size:14.16px;font-family:CairoFont-0;-inkscape-font-specification:CairoFont-0-0;writing-mode:lr-tb;fill:#000000;fill-opacity:1;fill-rule:nonzero;stroke:none"
         id="text100"><tspan
           x="0"
           y="0"
           id="tspan98">g</tspan></text>
      <path
         d="m 195.492,75.402 -0.277,0.813 -0.418,0.754 -0.543,0.672 -0.66,0.562 -0.75,0.426 -0.817,0.285 -0.855,0.133 -0.86,-0.024 -0.835,-0.168 -0.786,-0.296 -0.699,-0.411 -0.597,-0.492 -0.473,-0.547 -0.34,-0.57 -0.195,-0.562 -0.059,-0.512 0.078,-0.442 0.196,-0.335 0.296,-0.215 0.372,-0.071 0.418,0.082 0.433,0.231 0.422,0.383 0.379,0.519 0.305,0.637 0.207,0.73 0.089,0.797 -0.039,0.828 -0.183,0.832 -0.324,0.793 -0.461,0.731 -0.582,0.637 -0.692,0.519 -0.777,0.383 -0.832,0.234 -0.86,0.082 -0.855,-0.074 -0.824,-0.211 -0.758,-0.336 -0.668,-0.441 -0.559,-0.516 -0.429,-0.558 -0.293,-0.571 -0.149,-0.547 -0.011,-0.496 0.117,-0.406 0.23,-0.301 0.324,-0.164 0.391,-0.023 0.426,0.129 0.437,0.285 0.41,0.43 0.356,0.558 0.273,0.672 0.172,0.754 0.047,0.812 -0.086,0.832 -0.23,0.825 -0.371,0.777 -0.5,0.703 -0.625,0.598 -0.719,0.476 -0.801,0.336 -0.844,0.184 -0.863,0.027 -0.848,-0.117 -0.804,-0.258 -0.731,-0.375 -0.633,-0.465 -0.519,-0.535 -0.383,-0.566 -0.246,-0.567 -0.105,-0.535 0.035,-0.468 0.156,-0.376 0.266,-0.253 0.347,-0.121 0.406,0.027 0.434,0.183 0.43,0.332 0.394,0.473 0.332,0.602 0.246,0.699 0.129,0.777 0.004,0.824 -0.133,0.833 -0.277,0.812 -0.414,0.754 -0.543,0.672 -0.66,0.562 -0.75,0.43 -0.816,0.285 -0.852,0.133 -0.863,-0.02 -0.836,-0.168 -0.782,-0.296 -0.703,-0.407 -0.597,-0.496 -0.477,-0.547 -0.34,-0.57 -0.195,-0.559 -0.059,-0.515 0.075,-0.442 0.195,-0.339 0.297,-0.211 0.371,-0.075 0.418,0.079 0.433,0.234 0.422,0.379 0.379,0.519 0.305,0.637 0.211,0.731 0.09,0.792 -0.043,0.829 -0.18,0.832 -0.32,0.797 -0.461,0.73 -0.582,0.637 -0.692,0.519 -0.777,0.387 -0.832,0.234 -0.859,0.082 -0.856,-0.07 -0.824,-0.211 -0.758,-0.336 -0.668,-0.441 -0.562,-0.516 -0.43,-0.558 -0.293,-0.571 -0.152,-0.547 -0.012,-0.496 0.117,-0.41 0.231,-0.297 0.324,-0.168 0.39,-0.023 0.426,0.129 0.434,0.281 0.41,0.43 0.359,0.558 0.274,0.668 0.172,0.758 0.05,0.809 -0.086,0.832 -0.23,0.824 -0.367,0.777 -0.504,0.703 -0.621,0.602 -0.719,0.476 -0.797,0.336 -0.847,0.184 -0.86,0.031 -0.851,-0.117"
         style="fill:none;stroke:#000000;stroke-width:0.6144;stroke-linecap:square;stroke-linejoin:miter;stroke-miterlimit:3.25;stroke-dasharray:none;stroke-opacity:1"
         id="path102" />
      <text
         xml:space="preserve"
         transform="translate(164.43816,74.188694)"
         style="font-variant:normal;font-size:14.16px;font-family:CairoFont-0;-inkscape-font-specification:CairoFont-0-0;writing-mode:lr-tb;fill:#000000;fill-opacity:1;fill-rule:nonzero;stroke:none"
         id="text106"><tspan
           x="0"
           y="0"
           id="tspan104">g</tspan></text>
      <path
         d="m 195.492,120.086 -0.851,0.121 -0.86,-0.031 -0.847,-0.188 -0.797,-0.332 -0.719,-0.476 -0.621,-0.602 -0.504,-0.703 -0.367,-0.781 -0.227,-0.821 -0.09,-0.832 0.051,-0.812 0.172,-0.754 0.273,-0.672 0.36,-0.558 0.41,-0.426 0.434,-0.285 0.429,-0.129 0.387,0.023 0.324,0.168 0.231,0.301 0.117,0.41 -0.012,0.492 -0.152,0.551 -0.293,0.57 -0.43,0.559 -0.558,0.516 -0.672,0.437 -0.758,0.336 -0.824,0.211 -0.856,0.07 -0.859,-0.082 -0.832,-0.234 -0.778,-0.383 -0.687,-0.52 -0.586,-0.636 -0.457,-0.735 -0.324,-0.797 -0.18,-0.828 -0.043,-0.828 0.094,-0.797 0.207,-0.73 0.305,-0.637 0.378,-0.515 0.422,-0.383 0.434,-0.231 0.418,-0.078 0.371,0.07 0.297,0.215 0.195,0.336 0.074,0.442 -0.058,0.515 -0.195,0.563 -0.34,0.57 -0.477,0.547 -0.598,0.492 -0.699,0.406 -0.785,0.301 -0.836,0.164 -0.863,0.02 -0.852,-0.133 -0.816,-0.285 -0.75,-0.43 -0.66,-0.558 -0.543,-0.672 -0.414,-0.758 -0.278,-0.813 -0.132,-0.832 0.003,-0.82 0.133,-0.777 0.242,-0.703 0.332,-0.598 0.395,-0.477 0.43,-0.332 0.433,-0.179 0.407,-0.032 0.347,0.121 0.266,0.258 0.156,0.375 0.035,0.469 -0.105,0.531 -0.242,0.571 -0.387,0.566 -0.516,0.531 -0.636,0.469 -0.731,0.375 -0.805,0.254 -0.847,0.121 -0.864,-0.031 -0.843,-0.184 -0.797,-0.332 -0.723,-0.476 -0.625,-0.602 -0.5,-0.703 -0.371,-0.778 -0.23,-0.82 -0.086,-0.832 0.046,-0.812 0.172,-0.754 0.274,-0.672 0.359,-0.563 0.41,-0.425 0.434,-0.286 0.426,-0.132 0.39,0.023 0.325,0.168 0.23,0.297 0.117,0.41 -0.008,0.492 -0.152,0.547 -0.293,0.574 -0.43,0.559 -0.554,0.516 -0.672,0.437 -0.758,0.34 -0.82,0.211 -0.86,0.07 -0.859,-0.078 -0.832,-0.234 -0.773,-0.383 -0.692,-0.52 -0.586,-0.636 -0.461,-0.731 -0.324,-0.797 -0.18,-0.828 -0.043,-0.832 0.09,-0.793 0.207,-0.73 0.305,-0.637 0.379,-0.52 0.422,-0.382 0.433,-0.235 0.418,-0.078 0.371,0.07 0.297,0.211 0.196,0.336 0.078,0.442 -0.055,0.515 -0.199,0.559 -0.336,0.57 -0.477,0.547 -0.593,0.496 -0.704,0.406 -0.781,0.301 -0.84,0.164 -0.859,0.024 -0.856,-0.129 -0.816,-0.285 -0.75,-0.43 -0.656,-0.559 -0.547,-0.672 -0.418,-0.757 -0.277,-0.809"
         style="fill:none;stroke:#000000;stroke-width:0.6144;stroke-linecap:square;stroke-linejoin:miter;stroke-miterlimit:3.25;stroke-dasharray:none;stroke-opacity:1"
         id="path108" />
      <text
         xml:space="preserve"
         transform="translate(166.48728,128.11301)"
         style="font-variant:normal;font-size:14.16px;font-family:CairoFont-0;-inkscape-font-specification:CairoFont-0-0;writing-mode:lr-tb;fill:#000000;fill-opacity:1;fill-rule:nonzero;stroke:none"
         id="text112"><tspan
           x="0"
           y="0"
           id="tspan110">g</tspan></text>
      <path
         d="m 195.492,120.086 -0.523,-0.637 -0.41,-0.719 -0.289,-0.785 -0.153,-0.82 -0.008,-0.832 0.137,-0.824 0.274,-0.785 0.402,-0.731 0.508,-0.648 0.597,-0.551 0.657,-0.442 0.691,-0.32 0.695,-0.203 0.668,-0.082 0.61,0.027 0.531,0.129 0.422,0.211 0.301,0.278 0.164,0.316 0.019,0.332 -0.121,0.324 -0.266,0.289 -0.386,0.231 -0.504,0.156 -0.59,0.059 -0.652,-0.051 -0.692,-0.168 -0.695,-0.289 -0.668,-0.406 -0.617,-0.52 -0.539,-0.625 -0.434,-0.707 -0.312,-0.77 -0.176,-0.816 -0.035,-0.832 0.109,-0.828 0.254,-0.797 0.379,-0.738 0.492,-0.664 0.582,-0.571 0.648,-0.461 0.688,-0.343 0.695,-0.227 0.676,-0.101 0.621,0.007 0.547,0.114 0.445,0.199 0.325,0.265 0.187,0.313 0.047,0.328 -0.098,0.328 -0.238,0.297 -0.371,0.246 -0.481,0.168 -0.578,0.078 -0.644,-0.031 -0.684,-0.145 -0.695,-0.265 -0.68,-0.391 -0.629,-0.5 -0.55,-0.605 -0.457,-0.692 -0.333,-0.761 -0.203,-0.813 -0.058,-0.832 0.086,-0.828 0.226,-0.801 0.356,-0.754 0.472,-0.679 0.571,-0.586 0.64,-0.481 0.68,-0.367 0.699,-0.246 0.68,-0.125 0.633,-0.008 0.562,0.094 0.465,0.183 0.344,0.258 0.215,0.301 0.07,0.332 -0.07,0.328 -0.215,0.305 -0.344,0.258 -0.465,0.183 -0.562,0.094 -0.633,-0.008 -0.68,-0.125 -0.699,-0.246 -0.68,-0.367 -0.64,-0.48 -0.571,-0.59 -0.472,-0.676 -0.356,-0.754 -0.226,-0.801 -0.086,-0.832 0.058,-0.832 0.203,-0.808 0.333,-0.762 0.457,-0.695 0.55,-0.602 0.629,-0.504 0.68,-0.387 0.695,-0.265 0.684,-0.149 0.644,-0.027 0.578,0.074 0.481,0.172 0.371,0.242 0.238,0.301 0.098,0.324 -0.047,0.332 -0.187,0.313 -0.325,0.265 -0.445,0.2 -0.547,0.109 -0.621,0.012 -0.676,-0.106 -0.695,-0.222 -0.688,-0.344 -0.648,-0.465 -0.582,-0.566 -0.492,-0.665 -0.379,-0.742 -0.254,-0.793 -0.109,-0.828 0.035,-0.832 0.176,-0.816 0.312,-0.774 0.434,-0.707 0.539,-0.621 0.617,-0.519 0.668,-0.41 0.695,-0.29 0.692,-0.168 0.652,-0.046 0.59,0.058 0.504,0.153 0.386,0.234 0.266,0.289 0.121,0.324 -0.019,0.332 -0.164,0.317 -0.301,0.273 -0.422,0.215 -0.531,0.129 -0.61,0.027 -0.668,-0.082 -0.695,-0.203 -0.691,-0.324 -0.657,-0.442 -0.597,-0.55 -0.508,-0.649 -0.402,-0.726 -0.274,-0.789 -0.137,-0.821 0.008,-0.836 0.153,-0.82 0.289,-0.781 0.41,-0.719 0.523,-0.641"
         style="fill:none;stroke:#000000;stroke-width:0.6144;stroke-linecap:square;stroke-linejoin:miter;stroke-miterlimit:3.25;stroke-dasharray:none;stroke-opacity:1"
         id="path114" />
      <text
         xml:space="preserve"
         transform="translate(205.82009,102.81577)"
         style="font-variant:normal;font-size:14.16px;font-family:CairoFont-0;-inkscape-font-specification:CairoFont-0-0;writing-mode:lr-tb;fill:#000000;fill-opacity:1;fill-rule:nonzero;stroke:none"
         id="text118"><tspan
           x="0"
           y="0"
           id="tspan116">g</tspan></text>
      <path
         d="m 161.645,97.746 c 0,0.652 -0.262,1.277 -0.723,1.738 -0.461,0.461 -1.086,0.719 -1.738,0.719 -0.649,0 -1.274,-0.258 -1.735,-0.719 -0.461,-0.461 -0.722,-1.086 -0.722,-1.738 0,-0.652 0.261,-1.277 0.722,-1.738 0.461,-0.461 1.086,-0.719 1.735,-0.719 0.652,0 1.277,0.258 1.738,0.719 0.461,0.461 0.723,1.086 0.723,1.738 z"
         style="fill:#000000;fill-opacity:1;fill-rule:evenodd;stroke:none"
         id="path120" />
      <path
         d="m 197.949,75.402 c 0,0.653 -0.258,1.278 -0.719,1.739 -0.46,0.461 -1.085,0.718 -1.738,0.718 -0.652,0 -1.277,-0.257 -1.738,-0.718 -0.461,-0.461 -0.719,-1.086 -0.719,-1.739 0,-0.652 0.258,-1.277 0.719,-1.738 0.461,-0.461 1.086,-0.719 1.738,-0.719 0.653,0 1.278,0.258 1.738,0.719 0.461,0.461 0.719,1.086 0.719,1.738 z"
         style="fill:#000000;fill-opacity:1;fill-rule:evenodd;stroke:none"
         id="path122" />
      <path
         d="m 197.949,120.086 c 0,0.652 -0.258,1.277 -0.719,1.738 -0.46,0.461 -1.085,0.719 -1.738,0.719 -0.652,0 -1.277,-0.258 -1.738,-0.719 -0.461,-0.461 -0.719,-1.086 -0.719,-1.738 0,-0.652 0.258,-1.277 0.719,-1.738 0.461,-0.461 1.086,-0.719 1.738,-0.719 0.653,0 1.278,0.258 1.738,0.719 0.461,0.461 0.719,1.086 0.719,1.738 z"
         style="fill:#000000;fill-opacity:1;fill-rule:evenodd;stroke:none"
         id="path124" />
    </g>
    <g
       id="g126">
      <g
         id="g128"
         clip-path="url(#clipPath132)">
        <text
           xml:space="preserve"
           transform="translate(175.67986,153.92398)"
           style="font-variant:normal;font-size:11.28px;font-family:CairoFont-1;-inkscape-font-specification:CairoFont-1-0;writing-mode:lr-tb;fill:#000000;fill-opacity:1;fill-rule:nonzero;stroke:none"
           id="text136"><tspan
             x="0"
             y="0"
             id="tspan134">5</tspan></text>
      </g>
    </g>
    <g
       id="g138">
      <path
         d="m 284.859,97.746 -0.699,0.586 -0.801,0.445 -0.871,0.274 -0.906,0.09 -0.91,-0.094 -0.871,-0.281 -0.797,-0.45 -0.692,-0.589 -0.566,-0.7 -0.414,-0.769 -0.262,-0.797 -0.101,-0.777 0.043,-0.715 0.179,-0.61 0.289,-0.476 0.368,-0.309 0.41,-0.129 0.418,0.059 0.386,0.242 0.325,0.418 0.222,0.563 0.098,0.679 -0.047,0.758 -0.199,0.797 -0.359,0.781 -0.512,0.731 -0.645,0.636 -0.761,0.508 -0.848,0.344 -0.898,0.168 -0.915,-0.02 -0.89,-0.207 -0.828,-0.382 -0.739,-0.54 -0.621,-0.66 -0.476,-0.746 -0.328,-0.789 -0.164,-0.789 -0.012,-0.746 0.125,-0.656 0.25,-0.535 0.336,-0.379 0.398,-0.207 0.418,-0.016 0.406,0.168 0.352,0.352 0.266,0.507 0.152,0.637 0.016,0.731 -0.137,0.785 -0.293,0.793 -0.453,0.758 -0.594,0.679 -0.719,0.563 -0.816,0.41 -0.879,0.242 -0.914,0.059 -0.902,-0.133 -0.86,-0.313 -0.781,-0.48 -0.668,-0.613 -0.539,-0.715 -0.387,-0.778 -0.23,-0.797 -0.074,-0.765 0.07,-0.699 0.203,-0.59 0.305,-0.446 0.379,-0.277 0.414,-0.094 0.414,0.094 0.379,0.277 0.304,0.446 0.203,0.59 0.075,0.699 -0.075,0.765 -0.23,0.797 -0.391,0.778 -0.535,0.715 -0.672,0.613 -0.781,0.48 -0.859,0.313 -0.903,0.133 -0.91,-0.059 -0.883,-0.242 -0.816,-0.41 -0.719,-0.563 -0.594,-0.679 -0.449,-0.758 -0.297,-0.793 -0.136,-0.785 0.015,-0.731 0.153,-0.637 0.265,-0.507 0.352,-0.352 0.406,-0.168 0.418,0.016 0.398,0.207 0.34,0.379 0.246,0.535 0.129,0.656 -0.015,0.746 -0.164,0.789 -0.325,0.789 -0.48,0.746 -0.617,0.66 -0.739,0.54 -0.832,0.382 -0.89,0.207 -0.914,0.02 -0.899,-0.168 -0.843,-0.344 -0.762,-0.508 -0.649,-0.636 -0.511,-0.731 -0.36,-0.781 -0.199,-0.797 -0.047,-0.758 0.098,-0.679 0.226,-0.563 0.321,-0.418 0.386,-0.242 0.418,-0.059 0.411,0.129 0.367,0.309 0.289,0.476 0.179,0.61 0.047,0.715 -0.105,0.777 -0.258,0.797 -0.418,0.769 -0.562,0.7 -0.696,0.589 -0.797,0.45 -0.871,0.281 -0.906,0.094 -0.91,-0.09 -0.871,-0.274 -0.801,-0.445 -0.695,-0.586"
         style="fill:none;stroke:#000000;stroke-width:0.6144;stroke-linecap:square;stroke-linejoin:miter;stroke-miterlimit:3.25;stroke-dasharray:none;stroke-opacity:1"
         id="path140" />
      <text
         xml:space="preserve"
         transform="translate(261.04932,116.3217)"
         style="font-variant:normal;font-size:14.16px;font-family:CairoFont-0;-inkscape-font-specification:CairoFont-0-0;writing-mode:lr-tb;fill:#000000;fill-opacity:1;fill-rule:nonzero;stroke:none"
         id="text144"><tspan
           x="0"
           y="0"
           id="tspan142">g</tspan></text>
      <path
         d="m 318.371,97.746 0.227,-0.863 0.386,-0.813 0.532,-0.722 0.66,-0.606 0.769,-0.469 0.844,-0.304 0.887,-0.141 0.89,0.027 0.868,0.18 0.796,0.324 0.708,0.438 0.582,0.523 0.437,0.571 0.289,0.582 0.125,0.554 -0.023,0.493 -0.168,0.39 -0.293,0.266 -0.387,0.117 -0.449,-0.047 -0.485,-0.211 -0.476,-0.379 -0.434,-0.527 -0.355,-0.66 -0.254,-0.766 -0.121,-0.84 0.023,-0.871 0.18,-0.871 0.34,-0.832 0.488,-0.75 0.629,-0.644 0.738,-0.512 0.824,-0.352 0.879,-0.191 0.895,-0.024 0.875,0.141 0.824,0.281 0.734,0.41 0.622,0.5 0.484,0.563 0.332,0.582 0.172,0.566 0.019,0.512 -0.129,0.426 -0.257,0.305 -0.36,0.16 -0.437,0.004 -0.477,-0.164 -0.48,-0.329 -0.449,-0.484 -0.383,-0.625 -0.289,-0.738 -0.161,-0.821 -0.023,-0.867 0.137,-0.875 0.293,-0.847 0.445,-0.778 0.59,-0.679 0.707,-0.551 0.805,-0.403 0.863,-0.238 0.894,-0.07 0.887,0.09 0.84,0.246 0.766,0.371 0.656,0.476 0.527,0.547 0.375,0.582 0.223,0.575 0.062,0.535 -0.086,0.453 -0.222,0.34 -0.332,0.207 -0.418,0.051 -0.469,-0.114 -0.484,-0.281 -0.461,-0.441 -0.407,-0.586 -0.32,-0.707 -0.199,-0.801 -0.066,-0.856 0.089,-0.879 0.246,-0.855 0.403,-0.805 0.547,-0.711 0.675,-0.589 0.782,-0.45 0.847,-0.285 0.891,-0.121 0.895,0.043 0.855,0.203 0.789,0.336 0.691,0.449 0.567,0.532 0.426,0.574 0.265,0.582 0.11,0.547 -0.043,0.48 -0.184,0.379 -0.305,0.25 -0.398,0.098 -0.457,-0.063 -0.481,-0.234 -0.472,-0.395 -0.426,-0.547 -0.348,-0.675 -0.238,-0.774 -0.105,-0.844 0.043,-0.875 0.199,-0.871 0.355,-0.82 0.508,-0.742 0.641,-0.629 0.75,-0.492 0.836,-0.336 0.879,-0.168 0.894,-0.004 0.875,0.156 0.813,0.301 0.722,0.418 0.606,0.512 0.465,0.566 0.316,0.582 0.156,0.563 v 0.504 l -0.148,0.41 -0.27,0.289 -0.371,0.144 -0.445,-0.015 -0.477,-0.184 -0.48,-0.348 -0.442,-0.503 -0.375,-0.641 -0.273,-0.75 -0.145,-0.824 -0.003,-0.871 0.152,-0.875 0.312,-0.84 0.465,-0.77 0.602,-0.664 0.722,-0.535 0.813,-0.383 0.871,-0.219 0.895,-0.05 0.882,0.113 0.832,0.258 0.754,0.386 0.641,0.489 0.512,0.554 0.359,0.582 0.203,0.571 0.043,0.523 -0.101,0.446 -0.239,0.328 -0.343,0.187 -0.426,0.031 -0.473,-0.132 -0.484,-0.301 -0.457,-0.461 -0.399,-0.602 -0.304,-0.718 -0.184,-0.809 -0.047,-0.863 0.106,-0.875 0.265,-0.856 0.422,-0.793 0.563,-0.699 0.691,-0.574 0.789,-0.43 0.856,-0.266 0.89,-0.101 0.891,0.062"
         style="fill:none;stroke:#000000;stroke-width:0.6144;stroke-linecap:square;stroke-linejoin:miter;stroke-miterlimit:3.25;stroke-dasharray:none;stroke-opacity:1"
         id="path146" />
      <text
         xml:space="preserve"
         transform="translate(327.74651,76.958791)"
         style="font-variant:normal;font-size:14.16px;font-family:CairoFont-0;-inkscape-font-specification:CairoFont-0-0;writing-mode:lr-tb;fill:#000000;fill-opacity:1;fill-rule:nonzero;stroke:none"
         id="text150"><tspan
           x="0"
           y="0"
           id="tspan148">g</tspan></text>
      <path
         d="m 318.371,97.746 0.891,-0.066 0.89,0.101 0.86,0.27 0.785,0.426 0.691,0.578 0.563,0.699 0.422,0.793 0.265,0.851 0.106,0.879 -0.047,0.86 -0.184,0.808 -0.304,0.719 -0.399,0.606 -0.457,0.457 -0.484,0.3 -0.473,0.137 -0.426,-0.035 -0.343,-0.188 -0.239,-0.328 -0.101,-0.441 0.043,-0.527 0.203,-0.571 0.359,-0.582 0.512,-0.554 0.641,-0.485 0.753,-0.387 0.832,-0.261 0.883,-0.114 0.895,0.055 0.871,0.219 0.812,0.383 0.723,0.531 0.602,0.668 0.464,0.769 0.313,0.84 0.152,0.871 -0.004,0.871 -0.144,0.829 -0.274,0.75 -0.375,0.636 -0.441,0.504 -0.48,0.352 -0.477,0.183 -0.445,0.016 -0.371,-0.145 -0.27,-0.289 -0.144,-0.414 v -0.504 l 0.152,-0.562 0.316,-0.582 0.465,-0.567 0.606,-0.507 0.722,-0.422 0.813,-0.301 0.875,-0.156 0.894,0.004 0.879,0.168 0.836,0.336 0.75,0.492 0.641,0.629 0.508,0.742 0.355,0.824 0.199,0.867 0.043,0.875 -0.105,0.844 -0.239,0.777 -0.347,0.672 -0.426,0.547 -0.473,0.395 -0.48,0.234 -0.457,0.066 -0.399,-0.101 -0.304,-0.246 -0.184,-0.379 -0.043,-0.481 0.11,-0.55 0.269,-0.579 0.422,-0.574 0.566,-0.531 0.692,-0.449 0.789,-0.34 0.859,-0.199 0.891,-0.047 0.89,0.121 0.848,0.289 0.781,0.445 0.676,0.59 0.547,0.715 0.402,0.801 0.246,0.859 0.09,0.875 -0.066,0.86 -0.199,0.796 -0.321,0.707 -0.406,0.59 -0.461,0.442 -0.484,0.281 -0.469,0.113 -0.418,-0.051 -0.332,-0.207 -0.223,-0.343 -0.086,-0.453 0.063,-0.532 0.223,-0.578 0.375,-0.578 0.527,-0.547 0.656,-0.476 0.766,-0.375 0.84,-0.243 0.886,-0.093 0.895,0.07 0.863,0.238 0.805,0.403 0.707,0.55 0.59,0.68 0.445,0.781 0.293,0.844 0.137,0.875 -0.024,0.867 -0.16,0.821 -0.285,0.738 -0.387,0.625 -0.449,0.484 -0.48,0.332 -0.477,0.164 -0.437,-0.004 -0.36,-0.164 -0.258,-0.304 -0.129,-0.426 0.02,-0.512 0.172,-0.566 0.332,-0.582 0.484,-0.563 0.621,-0.5 0.735,-0.406 0.824,-0.285 0.875,-0.137 0.894,0.02 0.879,0.191 0.825,0.355 0.742,0.508 0.625,0.645 0.488,0.754 0.34,0.828 0.18,0.871 0.023,0.875 -0.121,0.836 -0.254,0.766 -0.355,0.66 -0.434,0.531 -0.477,0.375 -0.48,0.215 -0.453,0.043 -0.387,-0.117 -0.293,-0.266 -0.168,-0.391 -0.023,-0.488 0.125,-0.555 0.289,-0.582 0.437,-0.574 0.582,-0.519 0.707,-0.438 0.797,-0.324 0.867,-0.184 0.891,-0.027 0.887,0.141 0.844,0.308 0.769,0.465 0.66,0.605 0.531,0.727 0.387,0.809 0.227,0.863"
         style="fill:none;stroke:#000000;stroke-width:0.6144;stroke-linecap:square;stroke-linejoin:miter;stroke-miterlimit:3.25;stroke-dasharray:none;stroke-opacity:1"
         id="path152" />
    </g>
    <g
       id="g154">
      <g
         id="g156"
         clip-path="url(#clipPath160)">
        <text
           xml:space="preserve"
           transform="translate(339.57396,104.88606)"
           style="font-variant:normal;font-size:14.16px;font-family:CairoFont-0;-inkscape-font-specification:CairoFont-0-0;writing-mode:lr-tb;fill:#000000;fill-opacity:1;fill-rule:nonzero;stroke:none"
           id="text164"><tspan
             x="0"
             y="0"
             id="tspan162">g</tspan></text>
      </g>
    </g>
    <g
       id="g166">
      <path
         d="m 318.371,97.746 0.426,0.809 0.223,0.914 -0.004,0.969 -0.239,0.949 -0.457,0.867 -0.64,0.726 -0.778,0.536 -0.859,0.32 -0.883,0.105 -0.851,-0.089 -0.786,-0.254 -0.687,-0.371 -0.566,-0.442 -0.434,-0.465 -0.293,-0.445 -0.145,-0.395 0.008,-0.32 0.156,-0.226 0.305,-0.129 0.43,-0.02 0.535,0.094 0.606,0.219 0.632,0.347 0.618,0.489 0.542,0.625 0.418,0.753 0.247,0.856 0.039,0.918 -0.192,0.926 -0.418,0.875 -0.625,0.758 -0.781,0.589 -0.887,0.379 -0.929,0.149 -0.907,-0.078 -0.84,-0.278 -0.726,-0.441 -0.602,-0.555 -0.465,-0.613 -0.324,-0.625 -0.199,-0.586 -0.074,-0.508 0.039,-0.398 0.152,-0.266 0.25,-0.125 0.344,0.027 0.418,0.176 0.461,0.32 0.473,0.461 0.441,0.594 0.359,0.707 0.231,0.801 0.058,0.863 -0.14,0.883 -0.363,0.852 -0.575,0.761 -0.754,0.614 -0.886,0.418 -0.957,0.195 -0.961,-0.035 -0.899,-0.262 -0.781,-0.457 -0.637,-0.602 -0.468,-0.707 -0.313,-0.746 -0.164,-0.742 -0.035,-0.691 0.058,-0.598 0.141,-0.469 0.203,-0.324 0.25,-0.156 0.285,0.016 0.313,0.187 0.312,0.352 0.297,0.5 0.242,0.632 0.161,0.731 0.031,0.801 -0.129,0.832 -0.317,0.812 -0.511,0.742 -0.692,0.618 -0.847,0.445 -0.95,0.23 h -0.98 l -0.949,-0.23 -0.848,-0.445 -0.695,-0.618 -0.508,-0.742 -0.316,-0.812 -0.129,-0.832 0.031,-0.801 0.156,-0.731 0.246,-0.632 0.297,-0.5 0.313,-0.352 0.308,-0.187 0.285,-0.016 0.25,0.156 0.204,0.324 0.14,0.469 0.063,0.598 -0.039,0.691 -0.164,0.742 -0.309,0.746 -0.473,0.707 -0.633,0.602 -0.785,0.457 -0.894,0.262 -0.961,0.035 -0.957,-0.195 -0.891,-0.418 -0.754,-0.614 -0.57,-0.761 -0.363,-0.852 -0.145,-0.883 0.063,-0.863 0.23,-0.801 0.36,-0.707 0.441,-0.594 0.473,-0.461 0.46,-0.32 0.415,-0.176 0.343,-0.027 0.254,0.125 0.149,0.266 0.043,0.398 -0.075,0.508 -0.199,0.586 -0.328,0.625 -0.461,0.613 -0.601,0.555 -0.731,0.441 -0.836,0.278 -0.91,0.078 -0.926,-0.149 -0.887,-0.379 -0.785,-0.589 -0.621,-0.758 -0.418,-0.875 -0.191,-0.926 0.039,-0.918 0.246,-0.856 0.418,-0.753 0.543,-0.625 0.613,-0.489 0.637,-0.347 0.605,-0.219 0.536,-0.094 0.429,0.02 0.301,0.129 0.16,0.226 0.008,0.32 -0.144,0.395 -0.293,0.445 -0.438,0.465 -0.566,0.442 -0.684,0.371 -0.785,0.254 -0.856,0.089 -0.878,-0.105 -0.86,-0.32 -0.777,-0.536 -0.645,-0.726 -0.457,-0.867 -0.234,-0.949 -0.004,-0.969 0.223,-0.914 0.425,-0.809"
         style="fill:none;stroke:#000000;stroke-width:0.6144;stroke-linecap:square;stroke-linejoin:miter;stroke-miterlimit:3.25;stroke-dasharray:none;stroke-opacity:1"
         id="path168" />
      <text
         xml:space="preserve"
         transform="translate(297.35478,130.27975)"
         style="font-variant:normal;font-size:14.16px;font-family:CairoFont-0;-inkscape-font-specification:CairoFont-0-0;writing-mode:lr-tb;fill:#000000;fill-opacity:1;fill-rule:nonzero;stroke:none"
         id="text172"><tspan
           x="0"
           y="0"
           id="tspan170">g</tspan></text>
      <path
         d="m 318.371,97.746 0.426,-0.808 0.223,-0.918 -0.004,-0.965 -0.239,-0.95 -0.457,-0.871 -0.64,-0.722 -0.778,-0.535 -0.859,-0.321 -0.883,-0.109 -0.851,0.094 -0.786,0.254 -0.687,0.371 -0.566,0.441 -0.434,0.461 -0.293,0.445 -0.145,0.399 0.008,0.316 0.156,0.231 0.305,0.129 0.43,0.019 0.535,-0.094 0.606,-0.218 0.632,-0.352 0.618,-0.484 0.542,-0.625 0.418,-0.754 0.247,-0.856 0.039,-0.918 -0.192,-0.926 -0.418,-0.875 -0.625,-0.761 -0.781,-0.586 -0.887,-0.379 -0.929,-0.149 -0.907,0.075 -0.84,0.277 -0.726,0.441 -0.602,0.555 -0.465,0.617 -0.324,0.625 -0.199,0.586 -0.074,0.508 0.039,0.398 0.152,0.266 0.25,0.125 0.344,-0.027 0.418,-0.176 0.461,-0.32 0.473,-0.461 0.441,-0.594 0.359,-0.707 0.231,-0.801 0.058,-0.863 -0.14,-0.887 -0.363,-0.847 -0.575,-0.762 -0.754,-0.613 -0.886,-0.422 -0.957,-0.196 -0.961,0.039 -0.899,0.262 -0.781,0.453 -0.637,0.606 -0.468,0.703 -0.313,0.75 -0.164,0.742 -0.035,0.688 0.058,0.597 0.141,0.473 0.203,0.324 0.25,0.156 0.285,-0.015 0.313,-0.188 0.312,-0.351 0.297,-0.504 0.242,-0.629 0.161,-0.735 0.031,-0.8 -0.129,-0.828 -0.317,-0.813 -0.511,-0.742 -0.692,-0.617 -0.847,-0.446 -0.95,-0.23 h -0.98 l -0.949,0.23 -0.848,0.446 -0.695,0.617 -0.508,0.742 -0.316,0.813 -0.129,0.828 0.031,0.8 0.156,0.735 0.246,0.629 0.297,0.504 0.313,0.351 0.308,0.188 0.285,0.015 0.25,-0.156 0.204,-0.324 0.14,-0.473 0.063,-0.597 -0.039,-0.688 -0.164,-0.742 -0.309,-0.75 -0.473,-0.703 -0.633,-0.606 -0.785,-0.453 -0.894,-0.262 -0.961,-0.039 -0.957,0.196 -0.891,0.422 -0.754,0.613 -0.57,0.762 -0.363,0.847 -0.145,0.887 0.063,0.863 0.23,0.801 0.36,0.707 0.441,0.594 0.473,0.461 0.46,0.32 0.415,0.176 0.343,0.027 0.254,-0.125 0.149,-0.266 0.043,-0.398 -0.075,-0.508 -0.199,-0.586 -0.328,-0.625 -0.461,-0.617 -0.601,-0.555 -0.731,-0.441 -0.836,-0.277 -0.91,-0.075 -0.926,0.149 -0.887,0.379 -0.785,0.586 -0.621,0.761 -0.418,0.875 -0.191,0.926 0.039,0.918 0.246,0.856 0.418,0.754 0.543,0.625 0.613,0.484 0.637,0.352 0.605,0.218 0.536,0.094 0.429,-0.019 0.301,-0.129 0.16,-0.231 0.008,-0.316 -0.144,-0.399 -0.293,-0.445 -0.438,-0.461 -0.566,-0.441 -0.684,-0.371 -0.785,-0.254 -0.856,-0.094 -0.878,0.109 -0.86,0.321 -0.777,0.535 -0.645,0.722 -0.457,0.871 -0.234,0.95 -0.004,0.965 0.223,0.918 0.425,0.808"
         style="fill:none;stroke:#000000;stroke-width:0.6144;stroke-linecap:square;stroke-linejoin:miter;stroke-miterlimit:3.25;stroke-dasharray:none;stroke-opacity:1"
         id="path174" />
      <text
         xml:space="preserve"
         transform="translate(297.35478,75.351782)"
         style="font-variant:normal;font-size:14.16px;font-family:CairoFont-0;-inkscape-font-specification:CairoFont-0-0;writing-mode:lr-tb;fill:#000000;fill-opacity:1;fill-rule:nonzero;stroke:none"
         id="text178"><tspan
           x="0"
           y="0"
           id="tspan176">g</tspan></text>
      <path
         d="m 287.316,97.746 c 0,0.652 -0.257,1.277 -0.718,1.738 -0.461,0.461 -1.086,0.719 -1.739,0.719 -0.652,0 -1.277,-0.258 -1.738,-0.719 -0.461,-0.461 -0.719,-1.086 -0.719,-1.738 0,-0.652 0.258,-1.277 0.719,-1.738 0.461,-0.461 1.086,-0.719 1.738,-0.719 0.653,0 1.278,0.258 1.739,0.719 0.461,0.461 0.718,1.086 0.718,1.738 z"
         style="fill:#000000;fill-opacity:1;fill-rule:evenodd;stroke:none"
         id="path180" />
      <path
         d="m 320.828,97.746 c 0,0.652 -0.258,1.277 -0.719,1.738 -0.461,0.461 -1.086,0.719 -1.738,0.719 -0.652,0 -1.277,-0.258 -1.738,-0.719 -0.461,-0.461 -0.719,-1.086 -0.719,-1.738 0,-0.652 0.258,-1.277 0.719,-1.738 0.461,-0.461 1.086,-0.719 1.738,-0.719 0.652,0 1.277,0.258 1.738,0.719 0.461,0.461 0.719,1.086 0.719,1.738 z"
         style="fill:#000000;fill-opacity:1;fill-rule:evenodd;stroke:none"
         id="path182" />
    </g>
    <g
       id="g184">
      <g
         id="g186"
         clip-path="url(#clipPath190)">
        <text
           xml:space="preserve"
           transform="translate(298.55986,153.92398)"
           style="font-variant:normal;font-size:11.28px;font-family:CairoFont-1;-inkscape-font-specification:CairoFont-1-0;writing-mode:lr-tb;fill:#000000;fill-opacity:1;fill-rule:nonzero;stroke:none"
           id="text194"><tspan
             x="0"
             y="0"
             id="tspan192">6</tspan></text>
      </g>
    </g>
  </g>
</svg>
