<?xml version="1.0" encoding="UTF-8" standalone="no"?>
<!-- Created with Inkscape (http://www.inkscape.org/) -->

<svg
   version="1.1"
   id="svg2"
   width="492"
   height="492"
   viewBox="0 0 492 492"
   sodipodi:docname="0d71mzxqsstdl.pdf"
   xmlns:inkscape="http://www.inkscape.org/namespaces/inkscape"
   xmlns:sodipodi="http://sodipodi.sourceforge.net/DTD/sodipodi-0.dtd"
   xmlns="http://www.w3.org/2000/svg"
   xmlns:svg="http://www.w3.org/2000/svg">
  <defs
     id="defs6">
    <clipPath
       clipPathUnits="userSpaceOnUse"
       id="clipPath26">
      <path
         d="m 119,123 h 13.961 v 16 H 119 Z"
         id="path24" />
    </clipPath>
    <clipPath
       clipPathUnits="userSpaceOnUse"
       id="clipPath42">
      <path
         d="M 77,30 H 90.961 V 47 H 77 Z"
         id="path40" />
    </clipPath>
    <clipPath
       clipPathUnits="userSpaceOnUse"
       id="clipPath138">
      <path
         d="m 79,357 h 9 v 11.641 h -9 z"
         id="path136" />
    </clipPath>
    <clipPath
       clipPathUnits="userSpaceOnUse"
       id="clipPath180">
      <path
         d="m 263,357 h 10 v 11.641 h -10 z"
         id="path178" />
    </clipPath>
  </defs>
  <sodipodi:namedview
     id="namedview4"
     pagecolor="#ffffff"
     bordercolor="#999999"
     borderopacity="1"
     inkscape:showpageshadow="0"
     inkscape:pageopacity="0"
     inkscape:pagecheckerboard="0"
     inkscape:deskcolor="#d1d1d1" />
  <g
     id="g8"
     inkscape:groupmode="layer"
     inkscape:label="0d71mzxqsstdl"
     transform="matrix(1.3333333,0,0,1.3333333,0,1.23e-5)">
    <g
       id="g10">
      <path
         d="m 83.781,100.539 -1.031,0.852 -1.18,0.652 -1.281,0.422 -1.34,0.168 -1.344,-0.098 -1.3,-0.355 -1.211,-0.594 -1.074,-0.805 -0.907,-0.969 -0.703,-1.082 -0.492,-1.144 -0.27,-1.145 -0.054,-1.078 0.14,-0.965 0.313,-0.796 0.441,-0.586 0.535,-0.344 0.579,-0.086 0.566,0.176 0.512,0.429 0.402,0.664 0.258,0.856 0.078,1.012 -0.129,1.109 -0.348,1.148 -0.562,1.133 -0.777,1.051 -0.969,0.918 -1.125,0.734 -1.246,0.516 -1.321,0.27 -1.351,0.003 -1.324,-0.253 -1.25,-0.504 -1.133,-0.727 -0.977,-0.91 -0.785,-1.047 -0.574,-1.129 -0.356,-1.148 -0.14,-1.114 0.07,-1.015 0.246,-0.867 0.399,-0.672 0.504,-0.442 0.566,-0.187 0.578,0.074 0.539,0.332 0.449,0.574 0.321,0.789 0.148,0.957 -0.043,1.075 -0.262,1.14 -0.48,1.149 -0.695,1.086 -0.895,0.976 -1.066,0.813 -1.207,0.605 -1.297,0.367 -1.344,0.11 -1.34,-0.157 -1.285,-0.406 -1.187,-0.644 -1.04,-0.844 -0.863,-1 -0.66,-1.102 -0.441,-1.148 -0.223,-1.133 -0.012,-1.062 0.184,-0.93 0.344,-0.754 0.468,-0.535 0.547,-0.289 0.582,-0.028 0.559,0.231 0.488,0.484 0.375,0.707 0.219,0.899 0.035,1.035 -0.176,1.125 -0.394,1.148 -0.61,1.118 -0.82,1.027 -1.004,0.883 -1.156,0.691 -1.27,0.461 -1.332,0.211 -1.347,-0.051 -1.313,-0.312 -1.23,-0.555 -1.098,-0.769 -0.937,-0.946 -0.743,-1.066 -0.527,-1.141 -0.309,-1.144 -0.089,-1.098 0.109,-0.988 0.285,-0.828 0.426,-0.622 0.519,-0.39 0.575,-0.129 0.574,0.129 0.523,0.39 0.422,0.622 0.285,0.828 0.11,0.988 -0.09,1.098 -0.309,1.144 -0.527,1.141 -0.742,1.066 -0.934,0.946 -1.101,0.769 -1.231,0.555 -1.312,0.312 -1.348,0.051 -1.332,-0.211 -1.266,-0.461 -1.156,-0.691 -1.004,-0.883 -0.82,-1.027 -0.613,-1.118 -0.395,-1.148 -0.176,-1.125 0.035,-1.035 0.219,-0.899 0.375,-0.707 0.488,-0.484 0.563,-0.231 0.578,0.028 0.547,0.289 0.469,0.535 0.343,0.754 0.184,0.93 -0.012,1.062 -0.222,1.133 -0.442,1.148 -0.66,1.102 -0.863,1 -1.039,0.844 -1.184,0.644 -1.289,0.406 -1.34,0.157 -1.344,-0.11 -1.296,-0.367 -1.204,-0.605 -1.07,-0.813 -0.894,-0.976 -0.696,-1.086 -0.48,-1.149 -0.262,-1.14 -0.043,-1.075 0.149,-0.957 0.32,-0.789 0.449,-0.574 0.539,-0.332 0.578,-0.074 0.567,0.187 0.504,0.442 0.398,0.672 0.25,0.867 0.066,1.015 -0.136,1.114 -0.36,1.148 -0.574,1.129 -0.785,1.047 -0.977,0.91 -1.132,0.727 -1.25,0.504 -1.325,0.253 -1.351,-0.003 -1.32,-0.27 -1.247,-0.516 -1.125,-0.734 L 10.18,100.164 9.406,99.113 8.84,97.98 8.492,96.832 8.367,95.723 l 0.074,-1.012 0.258,-0.856 0.403,-0.664 0.511,-0.429 0.567,-0.176 0.578,0.086 0.535,0.344 0.445,0.586 0.309,0.796 0.144,0.965 -0.058,1.078 -0.27,1.145 -0.488,1.144 -0.707,1.082 -0.906,0.969 -1.074,0.805 -1.211,0.594 -1.301,0.355 -1.344,0.098 -1.34,-0.168 -1.281,-0.422 -1.18,-0.652 L 0,100.539"
         style="fill:none;stroke:#000000;stroke-width:0.9216;stroke-linecap:square;stroke-linejoin:miter;stroke-miterlimit:3.25;stroke-dasharray:none;stroke-opacity:1"
         id="path12" />
      <text
         xml:space="preserve"
         transform="translate(35.609659,128.41036)"
         style="font-variant:normal;font-size:21.12px;font-family:CairoFont-0;-inkscape-font-specification:CairoFont-0-0;writing-mode:lr-tb;fill:#000000;fill-opacity:1;fill-rule:nonzero;stroke:none"
         id="text16"><tspan
           x="0"
           y="0"
           id="tspan14">g</tspan></text>
      <path
         d="m 83.781,100.539 1.035,-0.851 1.176,-0.657 1.281,-0.418 1.34,-0.168 1.344,0.098 1.301,0.352 1.211,0.597 1.078,0.801 0.902,0.969 0.707,1.086 0.489,1.144 0.273,1.141 0.055,1.082 -0.145,0.965 -0.308,0.793 -0.446,0.586 -0.535,0.347 -0.578,0.086 -0.566,-0.176 -0.508,-0.433 -0.407,-0.66 -0.257,-0.86 -0.075,-1.008 0.125,-1.109 0.348,-1.152 0.567,-1.129 0.773,-1.051 0.969,-0.918 1.125,-0.734 1.246,-0.516 1.324,-0.269 1.348,-0.008 1.324,0.258 1.25,0.503 1.133,0.727 0.976,0.91 0.785,1.043 0.575,1.129 0.359,1.149 0.137,1.113 -0.067,1.015 -0.25,0.868 -0.398,0.671 -0.504,0.442 -0.566,0.191 -0.579,-0.074 -0.539,-0.336 -0.449,-0.574 -0.316,-0.785 -0.153,-0.957 0.047,-1.078 0.258,-1.141 0.481,-1.145 0.695,-1.089 0.894,-0.977 1.071,-0.812 1.203,-0.602 1.297,-0.367 1.347,-0.11 1.34,0.153 1.285,0.41 1.184,0.644 1.039,0.84 0.863,1 0.66,1.102 0.442,1.152 0.223,1.133 0.011,1.059 -0.183,0.933 -0.344,0.75 -0.469,0.535 -0.547,0.293 -0.578,0.028 -0.558,-0.235 -0.493,-0.484 -0.375,-0.707 -0.218,-0.895 -0.036,-1.039 0.176,-1.121 0.395,-1.152 0.613,-1.117 0.82,-1.028 1.004,-0.879 1.157,-0.691 1.265,-0.465 1.332,-0.211 1.348,0.055 1.312,0.308 1.231,0.555 1.101,0.774 0.934,0.941 0.742,1.07 0.528,1.137 0.308,1.149 0.09,1.093 -0.109,0.989 -0.286,0.828 -0.421,0.625 -0.524,0.386 -0.574,0.133 -0.57,-0.133 -0.524,-0.386 -0.426,-0.625 -0.285,-0.828 -0.109,-0.989 0.09,-1.093 0.308,-1.149 0.528,-1.137 0.742,-1.07 0.937,-0.941 1.102,-0.774 1.226,-0.555 1.313,-0.308 1.348,-0.055 1.332,0.211 1.269,0.465 1.156,0.691 1.004,0.879 0.821,1.028 0.613,1.117 0.394,1.152 0.172,1.121 -0.031,1.039 -0.223,0.895 -0.375,0.707 -0.488,0.484 -0.558,0.235 -0.583,-0.028 -0.546,-0.293 -0.469,-0.535 -0.344,-0.75 -0.18,-0.933 0.008,-1.059 0.223,-1.133 0.441,-1.152 0.66,-1.102 0.864,-1 1.043,-0.84 1.183,-0.644 1.285,-0.41 1.34,-0.153 1.344,0.11 1.297,0.367 1.207,0.602 1.066,0.812 0.895,0.977 0.695,1.089 0.481,1.145 0.261,1.141 0.043,1.078 -0.148,0.957 -0.32,0.785 -0.45,0.574 -0.539,0.336 -0.574,0.074 -0.566,-0.191 -0.508,-0.442 -0.399,-0.671 -0.246,-0.868 -0.07,-1.015 0.141,-1.113 0.355,-1.149 0.574,-1.129 0.789,-1.043 0.973,-0.91 1.133,-0.727 1.25,-0.503 1.328,-0.258 1.348,0.008 1.32,0.269 1.246,0.516 1.129,0.734 0.965,0.918 0.777,1.051 0.567,1.129 0.343,1.152 0.129,1.109 -0.078,1.008 -0.258,0.86 -0.402,0.66 -0.512,0.433 -0.566,0.176 -0.574,-0.086 -0.536,-0.347 -0.445,-0.586 -0.312,-0.793 -0.141,-0.965 0.055,-1.082 0.269,-1.141 0.492,-1.144 0.704,-1.086 0.906,-0.969 1.074,-0.801 1.211,-0.597 1.301,-0.352 1.347,-0.098 1.336,0.168 1.282,0.418 1.179,0.657 1.031,0.851"
         style="fill:none;stroke:#000000;stroke-width:0.9216;stroke-linecap:square;stroke-linejoin:miter;stroke-miterlimit:3.25;stroke-dasharray:none;stroke-opacity:1"
         id="path18" />
    </g>
    <g
       id="g20">
      <g
         id="g22"
         clip-path="url(#clipPath26)">
        <text
           xml:space="preserve"
           transform="translate(119.39148,134.27509)"
           style="font-variant:normal;font-size:21.12px;font-family:CairoFont-0;-inkscape-font-specification:CairoFont-0-0;writing-mode:lr-tb;fill:#000000;fill-opacity:1;fill-rule:nonzero;stroke:none"
           id="text30"><tspan
             x="0"
             y="0"
             id="tspan28">g</tspan></text>
      </g>
    </g>
    <g
       id="g32">
      <path
         d="m 83.781,100.539 -1.004,0.75 -1.183,0.539 -1.313,0.285 -1.367,0.004 -1.348,-0.281 -1.254,-0.555 -1.089,-0.789 -0.875,-0.972 -0.629,-1.102 -0.367,-1.164 -0.122,-1.168 0.102,-1.121 0.277,-1.039 0.403,-0.926 0.488,-0.785 0.516,-0.629 0.504,-0.465 0.46,-0.289 0.391,-0.105 0.305,0.074 0.207,0.258 0.097,0.429 -0.019,0.582 -0.141,0.707 -0.277,0.801 -0.43,0.844 -0.59,0.84 -0.757,0.785 -0.926,0.668 -1.078,0.492 -1.203,0.273 -1.278,0.012 -1.293,-0.265 -1.238,-0.547 -1.113,-0.805 -0.926,-1.023 -0.684,-1.176 -0.41,-1.266 -0.129,-1.281 0.137,-1.238 0.379,-1.137 0.574,-1 0.711,-0.844 0.797,-0.68 0.824,-0.515 0.797,-0.36 0.723,-0.214 0.613,-0.086 0.477,0.043 0.312,0.16 0.141,0.273 -0.039,0.371 -0.215,0.457 -0.391,0.52 -0.558,0.547 -0.719,0.539 -0.863,0.48 -0.993,0.371 -1.097,0.211 -1.16,0.004 -1.188,-0.238 -1.148,-0.496 -1.059,-0.754 -0.898,-0.992 -0.684,-1.18 -0.43,-1.312 -0.144,-1.364 0.136,-1.34 0.411,-1.246 0.64,-1.093 0.824,-0.903 0.957,-0.687 1.028,-0.473 1.043,-0.277 1.004,-0.106 0.929,0.032 0.809,0.136 0.66,0.211 0.488,0.258 0.293,0.289 0.094,0.301 -0.113,0.305 -0.317,0.296 -0.503,0.274 -0.68,0.223 -0.824,0.152 -0.942,0.047 L 64.305,79 63.25,78.734 l -1.039,-0.472 -0.965,-0.688 -0.832,-0.902 -0.648,-1.098 -0.414,-1.25 -0.145,-1.347 0.145,-1.368 0.421,-1.308 0.68,-1.184 0.891,-0.988 1.051,-0.754 1.144,-0.496 1.176,-0.238 1.156,-0.004 1.086,0.199 0.988,0.355 0.86,0.461 0.715,0.516 0.55,0.527 0.383,0.496 0.203,0.442 0.024,0.355 -0.16,0.262 -0.332,0.152 -0.497,0.043 -0.64,-0.082 -0.746,-0.211 -0.817,-0.355 -0.84,-0.508 -0.812,-0.676 -0.727,-0.843 -0.582,-1.004 -0.386,-1.141 -0.145,-1.246 0.129,-1.289 0.41,-1.27 0.68,-1.183 0.922,-1.024 1.109,-0.808 1.234,-0.551 1.286,-0.27 1.269,0.012 1.195,0.266 1.075,0.484 0.925,0.656 0.758,0.77 0.598,0.824 0.434,0.828 0.281,0.774 0.148,0.687 0.02,0.559 -0.102,0.406 -0.211,0.238 -0.316,0.059 -0.41,-0.121 -0.481,-0.297 -0.527,-0.473 -0.539,-0.636 -0.504,-0.793 -0.422,-0.926 -0.289,-1.047 -0.109,-1.129 0.113,-1.176 0.367,-1.172 0.625,-1.109 0.879,-0.98 1.09,-0.797 1.258,-0.559 1.347,-0.285 h 1.364 l 1.304,0.277 1.176,0.535 1.004,0.743 0.797,0.902 0.578,1.004 0.371,1.047 0.184,1.035 0.023,0.98 -0.098,0.879 -0.183,0.75 -0.242,0.586 -0.282,0.403 -0.3,0.203 h -0.305 l -0.301,-0.203 -0.277,-0.403 -0.246,-0.586 -0.184,-0.75 -0.098,-0.879 0.028,-0.98 0.179,-1.035 0.372,-1.047 0.578,-1.004 0.797,-0.902 1.003,-0.743 1.18,-0.535 1.305,-0.277 h 1.363 l 1.348,0.285 1.254,0.559 1.093,0.797 0.875,0.98 0.625,1.109 0.368,1.172 0.113,1.176 -0.106,1.129 -0.293,1.047 -0.421,0.926 -0.504,0.793 -0.539,0.636 -0.528,0.473 -0.48,0.297 -0.406,0.121 -0.317,-0.059 -0.215,-0.238 -0.101,-0.406 0.019,-0.559 0.149,-0.687 0.285,-0.774 0.433,-0.828 0.594,-0.824 0.758,-0.77 0.926,-0.656 1.074,-0.484 1.195,-0.266 1.27,-0.012 1.289,0.27 1.23,0.551 1.11,0.808 0.922,1.024 0.683,1.183 0.41,1.27 0.125,1.289 -0.144,1.246 -0.387,1.141 -0.582,1.004 -0.726,0.843 -0.809,0.676 -0.844,0.508 -0.816,0.355 -0.746,0.211 -0.637,0.082 -0.496,-0.043 -0.336,-0.152 -0.16,-0.262 0.023,-0.355 0.207,-0.442 0.379,-0.496 0.555,-0.527 0.711,-0.516 0.859,-0.461 0.988,-0.355 1.09,-0.199 1.157,0.004 1.175,0.238 1.141,0.496 1.051,0.754 0.89,0.988 0.68,1.184 0.426,1.308 0.14,1.368 -0.144,1.347 -0.414,1.25 -0.649,1.098 -0.832,0.902 -0.964,0.688 -1.04,0.472 -1.05,0.266 -1.02,0.094 -0.941,-0.047 -0.828,-0.152 -0.676,-0.223 -0.508,-0.274 -0.316,-0.296 -0.114,-0.305 0.094,-0.301 0.293,-0.289 0.488,-0.258 0.661,-0.211 0.812,-0.136 0.926,-0.032 1.008,0.106 1.043,0.277 1.023,0.473 0.957,0.687 0.824,0.903 0.641,1.093 0.41,1.246 0.141,1.34 -0.149,1.364 -0.429,1.312 -0.684,1.18 -0.898,0.992 -1.055,0.754 -1.153,0.496 -1.183,0.238 -1.164,-0.004 -1.098,-0.211 -0.992,-0.371 -0.863,-0.48 -0.715,-0.539 -0.559,-0.547 -0.394,-0.52 -0.215,-0.457 -0.039,-0.371 0.14,-0.273 0.317,-0.16 0.473,-0.043 0.613,0.086 0.726,0.214 0.797,0.36 0.821,0.515 0.796,0.68 0.711,0.844 0.575,1 0.379,1.137 0.14,1.238 -0.129,1.281 -0.414,1.266 -0.683,1.176 -0.922,1.023 -1.118,0.805 -1.238,0.547 -1.293,0.265 -1.277,-0.012 -1.199,-0.273 -1.082,-0.492 -0.926,-0.668 -0.758,-0.785 -0.59,-0.84 -0.426,-0.844 -0.281,-0.801 -0.14,-0.707 -0.016,-0.582 0.098,-0.429 0.203,-0.258 0.304,-0.074 0.391,0.105 0.461,0.289 0.508,0.465 0.515,0.629 0.485,0.785 0.406,0.926 0.277,1.039 0.098,1.121 -0.121,1.168 -0.367,1.164 -0.625,1.102 -0.875,0.972 -1.094,0.789 -1.254,0.555 -1.348,0.281 -1.367,-0.004 -1.308,-0.285 -1.184,-0.539 -1.008,-0.75"
         style="fill:none;stroke:#000000;stroke-width:0.9216;stroke-linecap:square;stroke-linejoin:miter;stroke-miterlimit:3.25;stroke-dasharray:none;stroke-opacity:1"
         id="path34" />
    </g>
    <g
       id="g36">
      <g
         id="g38"
         clip-path="url(#clipPath42)">
        <text
           xml:space="preserve"
           transform="translate(77.500568,41.804749)"
           style="font-variant:normal;font-size:21.12px;font-family:CairoFont-0;-inkscape-font-specification:CairoFont-0-0;writing-mode:lr-tb;fill:#000000;fill-opacity:1;fill-rule:nonzero;stroke:none"
           id="text46"><tspan
             x="0"
             y="0"
             id="tspan44">g</tspan></text>
      </g>
    </g>
    <g
       id="g48">
      <path
         d="m 87.469,100.539 c 0,0.977 -0.391,1.914 -1.082,2.606 -0.692,0.691 -1.629,1.078 -2.606,1.078 -0.976,0 -1.914,-0.387 -2.605,-1.078 -0.692,-0.692 -1.082,-1.629 -1.082,-2.606 0,-0.98 0.39,-1.918 1.082,-2.609 0.691,-0.692 1.629,-1.078 2.605,-1.078 0.977,0 1.914,0.386 2.606,1.078 0.691,0.691 1.082,1.629 1.082,2.609 z"
         style="fill:#000000;fill-opacity:1;fill-rule:evenodd;stroke:none"
         id="path50" />
      <text
         xml:space="preserve"
         transform="translate(79.055256,184.68097)"
         style="font-variant:normal;font-size:16.8px;font-family:CairoFont-1;-inkscape-font-specification:CairoFont-1-0;writing-mode:lr-tb;fill:#000000;fill-opacity:1;fill-rule:nonzero;stroke:none"
         id="text54"><tspan
           x="0"
           y="0"
           id="tspan52">1</tspan></text>
      <path
         d="m 234.59,100.539 -0.996,0.836 -1.141,0.648 -1.238,0.426 -1.297,0.18 -1.305,-0.074 -1.269,-0.325 -1.184,-0.558 -1.062,-0.762 -0.899,-0.93 -0.711,-1.05 -0.508,-1.118 -0.296,-1.124 -0.082,-1.083 0.109,-0.976 0.281,-0.832 0.418,-0.637 0.52,-0.41 0.574,-0.168 0.582,0.09 0.543,0.336 0.457,0.57 0.328,0.77 0.164,0.937 -0.019,1.055 -0.227,1.121 -0.441,1.125 -0.649,1.074 -0.844,0.973 -1.015,0.82 -1.149,0.625 -1.246,0.402 -1.3,0.153 -1.305,-0.102 -1.262,-0.347 -1.176,-0.582 -1.043,-0.782 -0.882,-0.945 -0.692,-1.059 -0.484,-1.121 -0.274,-1.125 -0.062,-1.07 0.129,-0.969 0.297,-0.808 0.433,-0.614 0.528,-0.386 0.578,-0.141 0.578,0.113 0.535,0.364 0.445,0.589 0.313,0.793 0.148,0.95 -0.043,1.066 -0.25,1.121 -0.465,1.125 -0.668,1.067 -0.863,0.96 -1.027,0.801 -1.164,0.602 -1.254,0.375 -1.305,0.125 -1.301,-0.125 -1.254,-0.375 -1.164,-0.602 -1.027,-0.801 -0.863,-0.96 -0.672,-1.067 -0.461,-1.125 -0.25,-1.121 -0.043,-1.066 0.148,-0.95 0.313,-0.793 0.445,-0.589 0.535,-0.364 0.579,-0.113 0.578,0.141 0.527,0.386 0.434,0.614 0.296,0.808 0.129,0.969 -0.066,1.07 -0.27,1.125 -0.484,1.121 -0.691,1.059 -0.883,0.945 -1.043,0.782 -1.176,0.582 -1.262,0.347 -1.304,0.102 -1.301,-0.153 -1.246,-0.402 -1.153,-0.625 -1.011,-0.82 -0.844,-0.973 -0.648,-1.074 -0.442,-1.125 -0.226,-1.121 -0.024,-1.055 0.168,-0.937 0.328,-0.77 0.457,-0.57 0.539,-0.336 0.582,-0.09 0.575,0.168 0.519,0.41 0.422,0.637 0.281,0.832 0.11,0.976 -0.086,1.083 -0.293,1.124 -0.508,1.118 -0.711,1.05 -0.899,0.93 -1.062,0.762 -1.184,0.558 -1.269,0.325 -1.309,0.074 -1.293,-0.18 -1.242,-0.426 -1.137,-0.648 -0.996,-0.836"
         style="fill:none;stroke:#000000;stroke-width:0.9216;stroke-linecap:square;stroke-linejoin:miter;stroke-miterlimit:3.25;stroke-dasharray:none;stroke-opacity:1"
         id="path56" />
      <text
         xml:space="preserve"
         transform="translate(203.17329,128.41036)"
         style="font-variant:normal;font-size:21.12px;font-family:CairoFont-0;-inkscape-font-specification:CairoFont-0-0;writing-mode:lr-tb;fill:#000000;fill-opacity:1;fill-rule:nonzero;stroke:none"
         id="text60"><tspan
           x="0"
           y="0"
           id="tspan58">g</tspan></text>
      <path
         d="m 301.613,100.539 1,-0.84 1.137,-0.648 1.238,-0.422 1.297,-0.18 1.305,0.074 1.269,0.325 1.188,0.554 1.058,0.766 0.899,0.93 0.715,1.047 0.504,1.117 0.297,1.129 0.085,1.078 -0.113,0.98 -0.281,0.828 -0.418,0.637 -0.52,0.414 -0.574,0.164 -0.582,-0.086 -0.543,-0.336 -0.453,-0.57 -0.332,-0.773 -0.164,-0.938 0.02,-1.055 0.23,-1.117 0.437,-1.125 0.653,-1.078 0.84,-0.973 1.015,-0.82 1.149,-0.625 1.25,-0.398 1.297,-0.153 1.304,0.098 1.262,0.352 1.176,0.578 1.043,0.785 0.883,0.941 0.691,1.063 0.484,1.117 0.274,1.125 0.062,1.074 -0.129,0.965 -0.296,0.812 -0.434,0.614 -0.527,0.386 -0.579,0.141 -0.578,-0.113 -0.535,-0.363 -0.445,-0.59 -0.313,-0.793 -0.148,-0.953 0.043,-1.063 0.25,-1.121 0.465,-1.125 0.668,-1.066 0.863,-0.961 1.031,-0.801 1.16,-0.606 1.254,-0.371 1.305,-0.129 1.301,0.129 1.254,0.371 1.164,0.606 1.027,0.801 0.863,0.961 0.672,1.066 0.461,1.125 0.25,1.121 0.043,1.063 -0.148,0.953 -0.313,0.793 -0.445,0.59 -0.531,0.363 -0.582,0.113 -0.578,-0.141 -0.528,-0.386 -0.43,-0.614 -0.3,-0.812 -0.129,-0.965 0.066,-1.074 0.27,-1.125 0.488,-1.117 0.691,-1.063 0.879,-0.941 1.047,-0.785 1.172,-0.578 1.262,-0.352 1.304,-0.098 1.301,0.153 1.246,0.398 1.153,0.625 1.011,0.82 0.844,0.973 0.649,1.078 0.441,1.125 0.227,1.117 0.023,1.055 -0.168,0.938 -0.328,0.773 -0.457,0.57 -0.539,0.336 -0.582,0.086 -0.574,-0.164 -0.52,-0.414 -0.422,-0.637 -0.281,-0.828 -0.109,-0.98 0.085,-1.078 0.293,-1.129 0.508,-1.117 0.711,-1.047 0.903,-0.93 1.058,-0.766 1.184,-0.554 1.269,-0.325 1.309,-0.074 1.297,0.18 1.238,0.422 1.137,0.648 0.996,0.84"
         style="fill:none;stroke:#000000;stroke-width:0.9216;stroke-linecap:square;stroke-linejoin:miter;stroke-miterlimit:3.25;stroke-dasharray:none;stroke-opacity:1"
         id="path62" />
      <text
         xml:space="preserve"
         transform="translate(320.46784,87.884749)"
         style="font-variant:normal;font-size:21.12px;font-family:CairoFont-0;-inkscape-font-specification:CairoFont-0-0;writing-mode:lr-tb;fill:#000000;fill-opacity:1;fill-rule:nonzero;stroke:none"
         id="text66"><tspan
           x="0"
           y="0"
           id="tspan64">g</tspan></text>
      <path
         d="m 234.59,100.539 c 2.301,10.223 9.14,18.836 18.574,23.391 9.438,4.558 20.438,4.558 29.875,0 9.434,-4.555 16.273,-13.168 18.574,-23.391"
         style="fill:none;stroke:#000000;stroke-width:0.9216;stroke-linecap:square;stroke-linejoin:miter;stroke-miterlimit:3.25;stroke-dasharray:none;stroke-opacity:1"
         id="path68" />
      <path
         d="m 263.074,127.348 10.055,3.351 v -6.703 z"
         style="fill:#000000;fill-opacity:1;fill-rule:evenodd;stroke:none"
         id="path70" />
      <text
         xml:space="preserve"
         transform="translate(261.86158,155.22055)"
         style="font-variant:normal;font-size:21.12px;font-family:CairoFont-0;-inkscape-font-specification:CairoFont-0-0;writing-mode:lr-tb;fill:#000000;fill-opacity:1;fill-rule:nonzero;stroke:none"
         id="text74"><tspan
           x="0"
           y="0"
           id="tspan72">u</tspan></text>
      <path
         d="m 301.613,100.539 c -2.301,-10.223 -9.14,-18.836 -18.574,-23.394 -9.437,-4.555 -20.437,-4.555 -29.875,0 -9.434,4.558 -16.273,13.171 -18.574,23.394"
         style="fill:none;stroke:#000000;stroke-width:0.9216;stroke-linecap:square;stroke-linejoin:miter;stroke-miterlimit:3.25;stroke-dasharray:none;stroke-opacity:1"
         id="path76" />
      <path
         d="m 273.129,73.727 -10.055,-3.352 v 6.703 z"
         style="fill:#000000;fill-opacity:1;fill-rule:evenodd;stroke:none"
         id="path78" />
      <text
         xml:space="preserve"
         transform="translate(261.86158,61.074568)"
         style="font-variant:normal;font-size:21.12px;font-family:CairoFont-0;-inkscape-font-specification:CairoFont-0-0;writing-mode:lr-tb;fill:#000000;fill-opacity:1;fill-rule:nonzero;stroke:none"
         id="text82"><tspan
           x="0"
           y="0"
           id="tspan80">u</tspan></text>
      <path
         d="m 238.277,100.539 c 0,0.977 -0.39,1.914 -1.082,2.606 -0.691,0.691 -1.629,1.078 -2.605,1.078 -0.977,0 -1.918,-0.387 -2.61,-1.078 -0.687,-0.692 -1.078,-1.629 -1.078,-2.606 0,-0.98 0.391,-1.918 1.078,-2.609 0.692,-0.692 1.633,-1.078 2.61,-1.078 0.976,0 1.914,0.386 2.605,1.078 0.692,0.691 1.082,1.629 1.082,2.609 z"
         style="fill:#000000;fill-opacity:1;fill-rule:evenodd;stroke:none"
         id="path84" />
      <path
         d="m 305.301,100.539 c 0,0.977 -0.387,1.914 -1.078,2.606 -0.692,0.691 -1.629,1.078 -2.61,1.078 -0.976,0 -1.914,-0.387 -2.605,-1.078 -0.692,-0.692 -1.078,-1.629 -1.078,-2.606 0,-0.98 0.386,-1.918 1.078,-2.609 0.691,-0.692 1.629,-1.078 2.605,-1.078 0.981,0 1.918,0.386 2.61,1.078 0.691,0.691 1.078,1.629 1.078,2.609 z"
         style="fill:#000000;fill-opacity:1;fill-rule:evenodd;stroke:none"
         id="path86" />
      <text
         xml:space="preserve"
         transform="translate(263.37526,184.68097)"
         style="font-variant:normal;font-size:16.8px;font-family:CairoFont-1;-inkscape-font-specification:CairoFont-1-0;writing-mode:lr-tb;fill:#000000;fill-opacity:1;fill-rule:nonzero;stroke:none"
         id="text90"><tspan
           x="0"
           y="0"
           id="tspan88">2</tspan></text>
      <path
         d="m 50.27,284.859 -0.997,0.836 -1.14,0.649 -1.238,0.426 -1.297,0.179 -1.305,-0.074 -1.27,-0.324 -1.183,-0.559 -1.063,-0.762 -0.898,-0.929 -0.711,-1.051 -0.508,-1.117 -0.293,-1.125 -0.086,-1.082 0.11,-0.981 0.281,-0.828 0.418,-0.637 0.519,-0.41 0.575,-0.168 0.582,0.09 0.543,0.336 0.457,0.567 0.328,0.773 0.168,0.937 -0.024,1.055 -0.226,1.117 -0.442,1.129 -0.648,1.074 -0.844,0.973 -1.016,0.82 -1.148,0.625 -1.246,0.403 -1.301,0.152 -1.305,-0.101 -1.261,-0.348 -1.176,-0.582 -1.043,-0.781 -0.883,-0.946 -0.691,-1.058 -0.485,-1.121 -0.273,-1.125 -0.062,-1.071 0.128,-0.968 0.297,-0.809 0.434,-0.613 0.527,-0.387 0.578,-0.141 0.578,0.114 0.536,0.359 0.445,0.594 0.312,0.793 0.149,0.949 -0.043,1.066 -0.25,1.121 -0.461,1.122 -0.672,1.07 -0.863,0.957 -1.028,0.805 -1.164,0.601 -1.253,0.375 -1.305,0.125 -1.301,-0.125 -1.254,-0.375 -1.164,-0.601 -1.027,-0.805 -0.864,-0.957 -0.671,-1.07 -0.461,-1.122 -0.25,-1.121 -0.043,-1.066 0.148,-0.949 0.313,-0.793 0.445,-0.594 0.535,-0.359 0.578,-0.114 0.578,0.141 0.528,0.387 0.433,0.613 0.297,0.809 0.129,0.968 -0.066,1.071 -0.27,1.125 -0.484,1.121 -0.692,1.058 -0.882,0.946 -1.043,0.781 -1.176,0.582 -1.262,0.348 -1.305,0.101 -1.3,-0.152 -1.247,-0.403 -1.152,-0.625 -1.012,-0.82 -0.843,-0.973 -0.649,-1.074 -0.441,-1.129 -0.227,-1.117 -0.023,-1.055 0.168,-0.937 0.328,-0.773 0.457,-0.567 0.543,-0.336 0.578,-0.09 0.578,0.168 0.516,0.41 0.422,0.637 0.281,0.828 0.109,0.981 -0.086,1.082 -0.293,1.125 -0.507,1.117 -0.711,1.051 -0.899,0.929 -1.062,0.762 -1.184,0.559 -1.269,0.324 -1.305,0.074 L 3.375,286.77 2.133,286.344 0.996,285.695 0,284.859"
         style="fill:none;stroke:#000000;stroke-width:0.9216;stroke-linecap:square;stroke-linejoin:miter;stroke-miterlimit:3.25;stroke-dasharray:none;stroke-opacity:1"
         id="path92" />
      <text
         xml:space="preserve"
         transform="translate(18.853295,312.73036)"
         style="font-variant:normal;font-size:21.12px;font-family:CairoFont-0;-inkscape-font-specification:CairoFont-0-0;writing-mode:lr-tb;fill:#000000;fill-opacity:1;fill-rule:nonzero;stroke:none"
         id="text96"><tspan
           x="0"
           y="0"
           id="tspan94">g</tspan></text>
      <path
         d="m 117.293,284.859 1,-0.839 1.137,-0.649 1.238,-0.422 1.297,-0.179 1.305,0.074 1.269,0.324 1.188,0.555 1.058,0.765 0.899,0.93 0.714,1.047 0.504,1.117 0.297,1.129 0.086,1.078 -0.113,0.981 -0.281,0.828 -0.418,0.636 -0.52,0.414 -0.574,0.164 -0.582,-0.085 -0.543,-0.336 -0.453,-0.571 -0.332,-0.773 -0.164,-0.938 0.019,-1.054 0.231,-1.117 0.437,-1.126 0.653,-1.078 0.843,-0.972 1.012,-0.821 1.148,-0.625 1.25,-0.398 1.297,-0.156 1.305,0.101 1.262,0.352 1.176,0.578 1.046,0.781 0.879,0.946 0.692,1.058 0.484,1.121 0.273,1.125 0.063,1.074 -0.129,0.965 -0.297,0.809 -0.433,0.617 -0.528,0.387 -0.574,0.14 -0.582,-0.113 -0.535,-0.363 -0.445,-0.594 -0.313,-0.789 -0.148,-0.953 0.043,-1.063 0.25,-1.125 0.464,-1.121 0.668,-1.07 0.864,-0.957 1.031,-0.801 1.16,-0.605 1.254,-0.371 1.305,-0.129 1.3,0.129 1.258,0.371 1.16,0.605 1.032,0.801 0.859,0.957 0.672,1.07 0.461,1.121 0.25,1.125 0.043,1.063 -0.149,0.953 -0.312,0.789 -0.445,0.594 -0.532,0.363 -0.582,0.113 -0.578,-0.14 -0.527,-0.387 -0.43,-0.617 -0.301,-0.809 -0.129,-0.965 0.067,-1.074 0.269,-1.125 0.489,-1.121 0.691,-1.058 0.879,-0.946 1.047,-0.781 1.172,-0.578 1.261,-0.352 1.305,-0.101 1.301,0.156 1.246,0.398 1.152,0.625 1.012,0.821 0.844,0.972 0.648,1.078 0.442,1.126 0.226,1.117 0.024,1.054 -0.168,0.938 -0.328,0.773 -0.457,0.571 -0.54,0.336 -0.582,0.085 -0.574,-0.164 -0.519,-0.414 -0.422,-0.636 -0.281,-0.828 -0.11,-0.981 0.086,-1.078 0.293,-1.129 0.508,-1.117 0.711,-1.047 0.902,-0.93 1.059,-0.765 1.187,-0.555 1.266,-0.324 1.309,-0.074 1.296,0.179 1.239,0.422 1.136,0.649 0.996,0.839"
         style="fill:none;stroke:#000000;stroke-width:0.9216;stroke-linecap:square;stroke-linejoin:miter;stroke-miterlimit:3.25;stroke-dasharray:none;stroke-opacity:1"
         id="path98" />
      <text
         xml:space="preserve"
         transform="translate(136.14784,272.20475)"
         style="font-variant:normal;font-size:21.12px;font-family:CairoFont-0;-inkscape-font-specification:CairoFont-0-0;writing-mode:lr-tb;fill:#000000;fill-opacity:1;fill-rule:nonzero;stroke:none"
         id="text102"><tspan
           x="0"
           y="0"
           id="tspan100">g</tspan></text>
      <path
         d="m 50.27,284.859 c 2.3,10.223 9.14,18.836 18.578,23.391 9.433,4.559 20.433,4.559 29.871,0 9.433,-4.555 16.277,-13.168 18.574,-23.391"
         style="fill:none;stroke:#000000;stroke-width:0.9216;stroke-linecap:butt;stroke-linejoin:miter;stroke-miterlimit:3.25;stroke-dasharray:0.9216, 5.5296;stroke-dashoffset:0;stroke-opacity:1"
         id="path104" />
      <path
         d="m 78.754,311.668 10.055,3.352 v -6.704 z"
         style="fill:#000000;fill-opacity:1;fill-rule:evenodd;stroke:none"
         id="path106" />
      <text
         xml:space="preserve"
         transform="translate(73.277599,331.56789)"
         style="font-variant:normal;font-size:21.12px;font-family:CairoFont-0;-inkscape-font-specification:CairoFont-0-0;writing-mode:lr-tb;fill:#000000;fill-opacity:1;fill-rule:nonzero;stroke:none"
         id="text110"><tspan
           x="0"
           y="0"
           id="tspan108">u</tspan></text>
      <text
         xml:space="preserve"
         transform="translate(84.949474,335.48781)"
         style="font-variant:normal;font-size:14.88px;font-family:CairoFont-0;-inkscape-font-specification:CairoFont-0-0;writing-mode:lr-tb;fill:#000000;fill-opacity:1;fill-rule:nonzero;stroke:none"
         id="text114"><tspan
           x="0"
           y="0"
           id="tspan112">g</tspan></text>
      <path
         d="m 117.293,284.859 c -2.297,-10.222 -9.141,-18.839 -18.574,-23.394 -9.438,-4.555 -20.438,-4.555 -29.871,0 -9.438,4.555 -16.278,13.172 -18.578,23.394"
         style="fill:none;stroke:#000000;stroke-width:0.9216;stroke-linecap:butt;stroke-linejoin:miter;stroke-miterlimit:3.25;stroke-dasharray:0.9216, 5.5296;stroke-dashoffset:0;stroke-opacity:1"
         id="path116" />
      <path
         d="m 88.809,258.047 -10.055,-3.352 v 6.703 z"
         style="fill:#000000;fill-opacity:1;fill-rule:evenodd;stroke:none"
         id="path118" />
      <text
         xml:space="preserve"
         transform="translate(73.277599,241.89261)"
         style="font-variant:normal;font-size:21.12px;font-family:CairoFont-0;-inkscape-font-specification:CairoFont-0-0;writing-mode:lr-tb;fill:#000000;fill-opacity:1;fill-rule:nonzero;stroke:none"
         id="text122"><tspan
           x="0"
           y="0"
           id="tspan120">u</tspan></text>
      <text
         xml:space="preserve"
         transform="translate(84.949474,245.81254)"
         style="font-variant:normal;font-size:14.88px;font-family:CairoFont-0;-inkscape-font-specification:CairoFont-0-0;writing-mode:lr-tb;fill:#000000;fill-opacity:1;fill-rule:nonzero;stroke:none"
         id="text126"><tspan
           x="0"
           y="0"
           id="tspan124">g</tspan></text>
      <path
         d="m 53.957,284.859 c 0,0.977 -0.391,1.914 -1.082,2.606 -0.691,0.691 -1.629,1.078 -2.605,1.078 -0.977,0 -1.915,-0.387 -2.606,-1.078 -0.691,-0.692 -1.082,-1.629 -1.082,-2.606 0,-0.98 0.391,-1.918 1.082,-2.609 0.691,-0.691 1.629,-1.078 2.606,-1.078 0.976,0 1.914,0.387 2.605,1.078 0.691,0.691 1.082,1.629 1.082,2.609 z"
         style="fill:#000000;fill-opacity:1;fill-rule:evenodd;stroke:none"
         id="path128" />
      <path
         d="m 120.98,284.859 c 0,0.977 -0.386,1.914 -1.078,2.606 -0.691,0.691 -1.629,1.078 -2.609,1.078 -0.977,0 -1.914,-0.387 -2.605,-1.078 -0.692,-0.692 -1.079,-1.629 -1.079,-2.606 0,-0.98 0.387,-1.918 1.079,-2.609 0.691,-0.691 1.628,-1.078 2.605,-1.078 0.98,0 1.918,0.387 2.609,1.078 0.692,0.691 1.078,1.629 1.078,2.609 z"
         style="fill:#000000;fill-opacity:1;fill-rule:evenodd;stroke:none"
         id="path130" />
    </g>
    <g
       id="g132">
      <g
         id="g134"
         clip-path="url(#clipPath138)">
        <text
           xml:space="preserve"
           transform="translate(79.055256,369.00097)"
           style="font-variant:normal;font-size:16.8px;font-family:CairoFont-1;-inkscape-font-specification:CairoFont-1-0;writing-mode:lr-tb;fill:#000000;fill-opacity:1;fill-rule:nonzero;stroke:none"
           id="text142"><tspan
             x="0"
             y="0"
             id="tspan140">3</tspan></text>
      </g>
    </g>
    <g
       id="g144">
      <path
         d="m 234.59,284.859 -0.996,0.836 -1.141,0.649 -1.238,0.426 -1.297,0.179 -1.305,-0.074 -1.269,-0.324 -1.184,-0.559 -1.062,-0.762 -0.899,-0.929 -0.711,-1.051 -0.508,-1.117 -0.296,-1.125 -0.082,-1.082 0.109,-0.981 0.281,-0.828 0.418,-0.637 0.52,-0.41 0.574,-0.168 0.582,0.09 0.543,0.336 0.457,0.567 0.328,0.773 0.164,0.937 -0.019,1.055 -0.227,1.117 -0.441,1.129 -0.649,1.074 -0.844,0.973 -1.015,0.82 -1.149,0.625 -1.246,0.403 -1.3,0.152 -1.305,-0.101 -1.262,-0.348 -1.176,-0.582 -1.043,-0.781 -0.882,-0.946 -0.692,-1.058 -0.484,-1.121 -0.274,-1.125 -0.062,-1.071 0.129,-0.968 0.297,-0.809 0.433,-0.613 0.528,-0.387 0.578,-0.141 0.578,0.114 0.535,0.359 0.445,0.594 0.313,0.793 0.148,0.949 -0.043,1.066 -0.25,1.121 -0.465,1.122 -0.668,1.07 -0.863,0.957 -1.027,0.805 -1.164,0.601 -1.254,0.375 -1.305,0.125 -1.301,-0.125 -1.254,-0.375 -1.164,-0.601 -1.027,-0.805 -0.863,-0.957 -0.672,-1.07 -0.461,-1.122 -0.25,-1.121 -0.043,-1.066 0.148,-0.949 0.313,-0.793 0.445,-0.594 0.535,-0.359 0.579,-0.114 0.578,0.141 0.527,0.387 0.434,0.613 0.296,0.809 0.129,0.968 -0.066,1.071 -0.27,1.125 -0.484,1.121 -0.691,1.058 -0.883,0.946 -1.043,0.781 -1.176,0.582 -1.262,0.348 -1.304,0.101 -1.301,-0.152 -1.246,-0.403 -1.153,-0.625 -1.011,-0.82 -0.844,-0.973 -0.648,-1.074 -0.442,-1.129 -0.226,-1.117 -0.024,-1.055 0.168,-0.937 0.328,-0.773 0.457,-0.567 0.539,-0.336 0.582,-0.09 0.575,0.168 0.519,0.41 0.422,0.637 0.281,0.828 0.11,0.981 -0.086,1.082 -0.293,1.125 -0.508,1.117 -0.711,1.051 -0.899,0.929 -1.062,0.762 -1.184,0.559 -1.269,0.324 -1.309,0.074 -1.293,-0.179 -1.242,-0.426 -1.137,-0.649 -0.996,-0.836"
         style="fill:none;stroke:#000000;stroke-width:0.9216;stroke-linecap:square;stroke-linejoin:miter;stroke-miterlimit:3.25;stroke-dasharray:none;stroke-opacity:1"
         id="path146" />
      <text
         xml:space="preserve"
         transform="translate(203.17329,312.73036)"
         style="font-variant:normal;font-size:21.12px;font-family:CairoFont-0;-inkscape-font-specification:CairoFont-0-0;writing-mode:lr-tb;fill:#000000;fill-opacity:1;fill-rule:nonzero;stroke:none"
         id="text150"><tspan
           x="0"
           y="0"
           id="tspan148">g</tspan></text>
      <path
         d="m 301.613,284.859 1,-0.839 1.137,-0.649 1.238,-0.422 1.297,-0.179 1.305,0.074 1.269,0.324 1.188,0.555 1.058,0.765 0.899,0.93 0.715,1.047 0.504,1.117 0.297,1.129 0.085,1.078 -0.113,0.981 -0.281,0.828 -0.418,0.636 -0.52,0.414 -0.574,0.164 -0.582,-0.085 -0.543,-0.336 -0.453,-0.571 -0.332,-0.773 -0.164,-0.938 0.02,-1.054 0.23,-1.117 0.437,-1.126 0.653,-1.078 0.84,-0.972 1.015,-0.821 1.149,-0.625 1.25,-0.398 1.297,-0.156 1.304,0.101 1.262,0.352 1.176,0.578 1.043,0.781 0.883,0.946 0.691,1.058 0.484,1.121 0.274,1.125 0.062,1.074 -0.129,0.965 -0.296,0.809 -0.434,0.617 -0.527,0.387 -0.579,0.14 -0.578,-0.113 -0.535,-0.363 -0.445,-0.594 -0.313,-0.789 -0.148,-0.953 0.043,-1.063 0.25,-1.125 0.465,-1.121 0.668,-1.07 0.863,-0.957 1.031,-0.801 1.16,-0.605 1.254,-0.371 1.305,-0.129 1.301,0.129 1.254,0.371 1.164,0.605 1.027,0.801 0.863,0.957 0.672,1.07 0.461,1.121 0.25,1.125 0.043,1.063 -0.148,0.953 -0.313,0.789 -0.445,0.594 -0.531,0.363 -0.582,0.113 -0.578,-0.14 -0.528,-0.387 -0.43,-0.617 -0.3,-0.809 -0.129,-0.965 0.066,-1.074 0.27,-1.125 0.488,-1.121 0.691,-1.058 0.879,-0.946 1.047,-0.781 1.172,-0.578 1.262,-0.352 1.304,-0.101 1.301,0.156 1.246,0.398 1.153,0.625 1.011,0.821 0.844,0.972 0.649,1.078 0.441,1.126 0.227,1.117 0.023,1.054 -0.168,0.938 -0.328,0.773 -0.457,0.571 -0.539,0.336 -0.582,0.085 -0.574,-0.164 -0.52,-0.414 -0.422,-0.636 -0.281,-0.828 -0.109,-0.981 0.085,-1.078 0.293,-1.129 0.508,-1.117 0.711,-1.047 0.903,-0.93 1.058,-0.765 1.184,-0.555 1.269,-0.324 1.309,-0.074 1.297,0.179 1.238,0.422 1.137,0.649 0.996,0.839"
         style="fill:none;stroke:#000000;stroke-width:0.9216;stroke-linecap:square;stroke-linejoin:miter;stroke-miterlimit:3.25;stroke-dasharray:none;stroke-opacity:1"
         id="path152" />
      <text
         xml:space="preserve"
         transform="translate(320.46784,272.20475)"
         style="font-variant:normal;font-size:21.12px;font-family:CairoFont-0;-inkscape-font-specification:CairoFont-0-0;writing-mode:lr-tb;fill:#000000;fill-opacity:1;fill-rule:nonzero;stroke:none"
         id="text156"><tspan
           x="0"
           y="0"
           id="tspan154">g</tspan></text>
      <path
         d="m 301.613,284.859 0.532,1.133 0.3,1.246 0.051,1.313 -0.215,1.312 -0.469,1.25 -0.703,1.133 -0.902,0.953 -1.055,0.742 -1.148,0.508 -1.192,0.266 -1.175,0.039 -1.125,-0.164 -1.028,-0.328 -0.898,-0.453 -0.754,-0.532 -0.582,-0.558 -0.406,-0.555 -0.219,-0.508 -0.027,-0.437 0.156,-0.34 0.332,-0.227 0.496,-0.097 0.629,0.043 0.738,0.195 0.801,0.352 0.828,0.519 0.793,0.688 0.715,0.855 0.582,1.008 0.398,1.137 0.184,1.226 -0.066,1.274 -0.325,1.265 -0.578,1.195 -0.808,1.063 -1,0.883 -1.141,0.664 -1.227,0.414 -1.253,0.156 -1.227,-0.086 -1.152,-0.304 -1.039,-0.493 -0.895,-0.625 -0.742,-0.714 -0.574,-0.75 -0.407,-0.735 -0.238,-0.68 -0.078,-0.585 0.078,-0.458 0.227,-0.308 0.355,-0.149 0.473,0.028 0.558,0.203 0.621,0.383 0.641,0.558 0.617,0.723 0.543,0.879 0.426,1.012 0.262,1.121 0.054,1.191 -0.175,1.219 -0.426,1.195 -0.664,1.113 -0.891,0.977 -1.078,0.789 -1.211,0.563 -1.289,0.308 -1.301,0.047 -1.258,-0.207 -1.16,-0.437 -1.019,-0.633 -0.86,-0.778 -0.683,-0.875 -0.504,-0.918 -0.336,-0.91 -0.172,-0.851 -0.035,-0.754 0.094,-0.617 0.199,-0.454 0.297,-0.269 0.367,-0.07 0.426,0.129 0.457,0.328 0.457,0.519 0.43,0.695 0.363,0.852 0.254,0.981 0.109,1.078 -0.078,1.136 -0.289,1.149 -0.516,1.105 -0.738,1.016 -0.953,0.871 -1.125,0.68 -1.258,0.449 -1.32,0.191 -1.328,-0.07 -1.27,-0.328 -1.152,-0.559 -0.992,-0.758 -0.805,-0.906 -0.602,-1.004 -0.402,-1.05 -0.211,-1.043 -0.051,-0.993 0.09,-0.894 0.199,-0.762 0.278,-0.598 0.332,-0.41 0.359,-0.211 h 0.375 l 0.359,0.211 0.332,0.41 0.278,0.598 0.199,0.762 0.09,0.894 -0.047,0.993 -0.215,1.043 -0.402,1.05 -0.602,1.004 -0.804,0.906 -0.993,0.758 -1.152,0.559 -1.27,0.328 -1.328,0.07 -1.32,-0.191 -1.254,-0.449 -1.129,-0.68 -0.949,-0.871 -0.742,-1.016 -0.516,-1.105 -0.289,-1.149 -0.078,-1.136 0.109,-1.078 0.254,-0.981 0.364,-0.852 0.429,-0.695 0.461,-0.519 0.453,-0.328 0.426,-0.129 0.367,0.07 0.297,0.269 0.199,0.454 0.094,0.617 -0.031,0.754 -0.176,0.851 -0.336,0.91 -0.504,0.918 -0.679,0.875 -0.86,0.778 -1.023,0.633 -1.16,0.437 -1.258,0.207 -1.301,-0.047 -1.289,-0.308 -1.211,-0.563 -1.078,-0.789 -0.891,-0.977 -0.664,-1.113 -0.426,-1.195 -0.175,-1.219 0.054,-1.191 0.262,-1.121 0.426,-1.012 0.543,-0.879 0.617,-0.723 0.641,-0.558 0.621,-0.383 0.558,-0.203 0.473,-0.028 0.359,0.149 0.223,0.308 0.078,0.458 -0.078,0.585 -0.238,0.68 -0.407,0.735 -0.574,0.75 -0.742,0.714 -0.894,0.625 -1.04,0.493 -1.148,0.304 -1.227,0.086 -1.257,-0.156 -1.227,-0.414 -1.141,-0.664 -1,-0.883 -0.808,-1.063 -0.578,-1.195 -0.324,-1.265 -0.063,-1.274 0.18,-1.226 0.398,-1.137 0.582,-1.008 0.715,-0.855 0.797,-0.688 0.824,-0.519 0.801,-0.352 0.738,-0.195 0.633,-0.043 0.492,0.097 0.332,0.227 0.156,0.34 -0.027,0.437 -0.219,0.508 -0.406,0.555 -0.582,0.558 -0.75,0.532 -0.902,0.453 -1.028,0.328 -1.121,0.164 -1.179,-0.039 -1.192,-0.266 -1.148,-0.508 -1.051,-0.742 -0.902,-0.953 -0.707,-1.133 -0.469,-1.25 -0.215,-1.312 0.051,-1.313 0.301,-1.246 0.531,-1.133"
         style="fill:none;stroke:#000000;stroke-width:0.9216;stroke-linecap:square;stroke-linejoin:miter;stroke-miterlimit:3.25;stroke-dasharray:none;stroke-opacity:1"
         id="path158" />
      <text
         xml:space="preserve"
         transform="translate(261.82057,339.54055)"
         style="font-variant:normal;font-size:21.12px;font-family:CairoFont-0;-inkscape-font-specification:CairoFont-0-0;writing-mode:lr-tb;fill:#000000;fill-opacity:1;fill-rule:nonzero;stroke:none"
         id="text162"><tspan
           x="0"
           y="0"
           id="tspan160">g</tspan></text>
      <path
         d="m 301.613,284.859 0.532,-1.136 0.3,-1.246 0.051,-1.309 -0.215,-1.316 -0.469,-1.25 -0.703,-1.129 -0.902,-0.957 -1.055,-0.743 -1.148,-0.507 -1.192,-0.266 -1.175,-0.039 -1.125,0.164 -1.028,0.332 -0.898,0.449 -0.754,0.532 -0.582,0.562 -0.406,0.551 -0.219,0.508 -0.027,0.437 0.156,0.34 0.332,0.226 0.496,0.098 0.629,-0.043 0.738,-0.191 0.801,-0.356 0.828,-0.519 0.793,-0.688 0.715,-0.855 0.582,-1.008 0.398,-1.133 0.184,-1.23 -0.066,-1.274 -0.325,-1.265 -0.578,-1.192 -0.808,-1.066 -1,-0.883 -1.141,-0.66 -1.227,-0.414 -1.253,-0.16 -1.227,0.086 -1.152,0.308 -1.039,0.488 -0.895,0.629 -0.742,0.715 -0.574,0.746 -0.407,0.739 -0.238,0.679 -0.078,0.582 0.078,0.457 0.227,0.313 0.355,0.144 0.473,-0.027 0.558,-0.203 0.621,-0.383 0.641,-0.555 0.617,-0.726 0.543,-0.875 0.426,-1.016 0.262,-1.117 0.054,-1.195 -0.175,-1.219 -0.426,-1.195 -0.664,-1.11 -0.891,-0.976 -1.078,-0.789 -1.211,-0.563 -1.289,-0.308 -1.301,-0.047 -1.258,0.207 -1.16,0.437 -1.019,0.629 -0.86,0.781 -0.683,0.875 -0.504,0.918 -0.336,0.91 -0.172,0.852 -0.035,0.754 0.094,0.613 0.199,0.453 0.297,0.27 0.367,0.07 0.426,-0.129 0.457,-0.328 0.457,-0.519 0.43,-0.696 0.363,-0.851 0.254,-0.981 0.109,-1.078 -0.078,-1.133 -0.289,-1.148 -0.516,-1.109 -0.738,-1.016 -0.953,-0.871 -1.125,-0.68 -1.258,-0.449 -1.32,-0.191 -1.328,0.07 -1.27,0.328 -1.152,0.562 -0.992,0.754 -0.805,0.907 -0.602,1.007 -0.402,1.051 -0.211,1.043 -0.051,0.988 0.09,0.895 0.199,0.762 0.278,0.597 0.332,0.411 0.359,0.21 h 0.375 l 0.359,-0.21 0.332,-0.411 0.278,-0.597 0.199,-0.762 0.09,-0.895 -0.047,-0.988 -0.215,-1.043 -0.402,-1.051 -0.602,-1.007 -0.804,-0.907 -0.993,-0.754 -1.152,-0.562 -1.27,-0.328 -1.328,-0.07 -1.32,0.191 -1.254,0.449 -1.129,0.68 -0.949,0.871 -0.742,1.016 -0.516,1.109 -0.289,1.148 -0.078,1.133 0.109,1.078 0.254,0.981 0.364,0.851 0.429,0.696 0.461,0.519 0.453,0.328 0.426,0.129 0.367,-0.07 0.297,-0.27 0.199,-0.453 0.094,-0.613 -0.031,-0.754 -0.176,-0.852 -0.336,-0.91 -0.504,-0.918 -0.679,-0.875 -0.86,-0.781 -1.023,-0.629 -1.16,-0.437 -1.258,-0.207 -1.301,0.047 -1.289,0.308 -1.211,0.563 -1.078,0.789 -0.891,0.976 -0.664,1.11 -0.426,1.195 -0.175,1.219 0.054,1.195 0.262,1.117 0.426,1.016 0.543,0.875 0.617,0.726 0.641,0.555 0.621,0.383 0.558,0.203 0.473,0.027 0.359,-0.144 0.223,-0.313 0.078,-0.457 -0.078,-0.582 -0.238,-0.679 -0.407,-0.739 -0.574,-0.746 -0.742,-0.715 -0.894,-0.629 -1.04,-0.488 -1.148,-0.308 -1.227,-0.086 -1.257,0.16 -1.227,0.414 -1.141,0.66 -1,0.883 -0.808,1.066 -0.578,1.192 -0.324,1.265 -0.063,1.274 0.18,1.23 0.398,1.133 0.582,1.008 0.715,0.855 0.797,0.688 0.824,0.519 0.801,0.356 0.738,0.191 0.633,0.043 0.492,-0.098 0.332,-0.226 0.156,-0.34 -0.027,-0.437 -0.219,-0.508 -0.406,-0.551 -0.582,-0.562 -0.75,-0.532 -0.902,-0.449 -1.028,-0.332 -1.121,-0.164 -1.179,0.039 -1.192,0.266 -1.148,0.507 -1.051,0.743 -0.902,0.957 -0.707,1.129 -0.469,1.25 -0.215,1.316 0.051,1.309 0.301,1.246 0.531,1.136"
         style="fill:none;stroke:#000000;stroke-width:0.9216;stroke-linecap:square;stroke-linejoin:miter;stroke-miterlimit:3.25;stroke-dasharray:none;stroke-opacity:1"
         id="path164" />
      <text
         xml:space="preserve"
         transform="translate(261.82057,245.39457)"
         style="font-variant:normal;font-size:21.12px;font-family:CairoFont-0;-inkscape-font-specification:CairoFont-0-0;writing-mode:lr-tb;fill:#000000;fill-opacity:1;fill-rule:nonzero;stroke:none"
         id="text168"><tspan
           x="0"
           y="0"
           id="tspan166">g</tspan></text>
      <path
         d="m 238.277,284.859 c 0,0.977 -0.39,1.914 -1.082,2.606 -0.691,0.691 -1.629,1.078 -2.605,1.078 -0.977,0 -1.918,-0.387 -2.61,-1.078 -0.687,-0.692 -1.078,-1.629 -1.078,-2.606 0,-0.98 0.391,-1.918 1.078,-2.609 0.692,-0.691 1.633,-1.078 2.61,-1.078 0.976,0 1.914,0.387 2.605,1.078 0.692,0.691 1.082,1.629 1.082,2.609 z"
         style="fill:#000000;fill-opacity:1;fill-rule:evenodd;stroke:none"
         id="path170" />
      <path
         d="m 305.301,284.859 c 0,0.977 -0.387,1.914 -1.078,2.606 -0.692,0.691 -1.629,1.078 -2.61,1.078 -0.976,0 -1.914,-0.387 -2.605,-1.078 -0.692,-0.692 -1.078,-1.629 -1.078,-2.606 0,-0.98 0.386,-1.918 1.078,-2.609 0.691,-0.691 1.629,-1.078 2.605,-1.078 0.981,0 1.918,0.387 2.61,1.078 0.691,0.691 1.078,1.629 1.078,2.609 z"
         style="fill:#000000;fill-opacity:1;fill-rule:evenodd;stroke:none"
         id="path172" />
    </g>
    <g
       id="g174">
      <g
         id="g176"
         clip-path="url(#clipPath180)">
        <text
           xml:space="preserve"
           transform="translate(263.37526,369.00097)"
           style="font-variant:normal;font-size:16.8px;font-family:CairoFont-1;-inkscape-font-specification:CairoFont-1-0;writing-mode:lr-tb;fill:#000000;fill-opacity:1;fill-rule:nonzero;stroke:none"
           id="text184"><tspan
             x="0"
             y="0"
             id="tspan182">4</tspan></text>
      </g>
    </g>
  </g>
</svg>
