<?xml version="1.0" encoding="UTF-8" standalone="no"?>
<!-- Created with Inkscape (http://www.inkscape.org/) -->

<svg
   version="1.1"
   id="svg1"
   width="492"
   height="124"
   viewBox="0 0 492 124"
   sodipodi:docname="0o654jrk6fahd.pdf"
   xmlns:inkscape="http://www.inkscape.org/namespaces/inkscape"
   xmlns:sodipodi="http://sodipodi.sourceforge.net/DTD/sodipodi-0.dtd"
   xmlns="http://www.w3.org/2000/svg"
   xmlns:svg="http://www.w3.org/2000/svg">
  <defs
     id="defs1">
    <clipPath
       clipPathUnits="userSpaceOnUse"
       id="clipPath5">
      <path
         d="m 59,61 h 7.961 v 9 H 59 Z"
         transform="translate(-59.695741,-67.61411)"
         id="path5" />
    </clipPath>
    <clipPath
       clipPathUnits="userSpaceOnUse"
       id="clipPath10">
      <path
         d="m 40,86 h 3 v 6.16 h -3 z"
         transform="translate(-39.67216,-92.45767)"
         id="path10" />
    </clipPath>
    <clipPath
       clipPathUnits="userSpaceOnUse"
       id="clipPath24">
      <path
         d="m 132,86 h 5 v 6.16 h -5 z"
         transform="translate(-131.83216,-92.45767)"
         id="path24" />
    </clipPath>
    <clipPath
       clipPathUnits="userSpaceOnUse"
       id="clipPath38">
      <path
         d="m 224,86 h 5 v 6.16 h -5 z"
         transform="translate(-223.99216,-92.45767)"
         id="path38" />
    </clipPath>
    <clipPath
       clipPathUnits="userSpaceOnUse"
       id="clipPath50">
      <path
         d="m 316,86 h 5 v 6.16 h -5 z"
         transform="translate(-316.15217,-92.45767)"
         id="path50" />
    </clipPath>
  </defs>
  <sodipodi:namedview
     id="namedview1"
     pagecolor="#ffffff"
     bordercolor="#999999"
     borderopacity="1"
     inkscape:showpageshadow="0"
     inkscape:pageopacity="0"
     inkscape:pagecheckerboard="0"
     inkscape:deskcolor="#d1d1d1">
    <inkscape:page
       x="0"
       y="0"
       id="page1"
       width="492"
       height="124"
       margin="0"
       bleed="0" />
  </sodipodi:namedview>
  <g
     id="g1"
     inkscape:groupmode="layer"
     inkscape:label="">
    <path
       id="path1"
       d="m 41.891,50.27 -0.516,0.425 -0.59,0.328 -0.64,0.211 -0.668,0.082 -0.672,-0.05 -0.653,-0.176 -0.605,-0.297 -0.539,-0.402 -0.449,-0.485 -0.356,-0.543 -0.246,-0.57 -0.133,-0.57 -0.027,-0.543 0.07,-0.481 0.156,-0.398 0.223,-0.293 0.266,-0.172 0.289,-0.043 0.285,0.086 0.254,0.219 0.203,0.328 0.125,0.429 0.039,0.508 -0.062,0.551 -0.172,0.578 -0.285,0.563 -0.387,0.527 -0.485,0.457 -0.562,0.371 -0.621,0.254 -0.664,0.137 -0.672,0.004 -0.664,-0.129 -0.625,-0.254 -0.567,-0.363 -0.488,-0.454 -0.391,-0.523 -0.289,-0.562 -0.179,-0.575 -0.067,-0.558 0.032,-0.508 0.125,-0.434 0.199,-0.336 0.254,-0.218 0.281,-0.098 0.289,0.039 0.27,0.168 0.226,0.285 0.156,0.395 0.079,0.476 -0.024,0.539 -0.129,0.571 -0.242,0.574 -0.348,0.543 -0.449,0.488 -0.531,0.406 -0.602,0.305 -0.652,0.18 -0.672,0.054 -0.668,-0.074 -0.644,-0.207 -0.59,-0.32 -0.52,-0.422 -0.433,-0.5 -0.329,-0.551 -0.222,-0.574 -0.11,-0.566 -0.007,-0.532 0.089,-0.465 0.176,-0.375 0.231,-0.269 0.277,-0.145 0.289,-0.015 0.277,0.117 0.247,0.242 0.187,0.356 0.109,0.445 0.02,0.519 -0.09,0.563 -0.195,0.574 -0.309,0.559 -0.41,0.515 -0.5,0.438 -0.578,0.348 -0.633,0.23 -0.668,0.105 -0.672,-0.027 -0.656,-0.152 -0.617,-0.278 -0.551,-0.386 -0.465,-0.473 -0.371,-0.535 -0.265,-0.566 -0.153,-0.575 -0.047,-0.547 0.055,-0.496 0.141,-0.414 0.214,-0.312 0.262,-0.192 0.285,-0.066 0.285,0.066 0.262,0.192 0.215,0.312 0.141,0.414 0.054,0.496 -0.047,0.547 -0.152,0.575 -0.265,0.566 -0.368,0.535 -0.468,0.473 -0.551,0.386 -0.613,0.278 -0.657,0.152 -0.676,0.027 -0.667,-0.105 -0.633,-0.23 -0.578,-0.348 -0.5,-0.438 -0.411,-0.515 -0.308,-0.559 -0.196,-0.574 -0.085,-0.563 0.015,-0.519 0.11,-0.445 0.187,-0.356 0.246,-0.242 0.277,-0.117 0.29,0.015 0.277,0.145 0.234,0.269 0.172,0.375 0.09,0.465 -0.004,0.532 -0.113,0.566 -0.223,0.574 -0.328,0.551 -0.43,0.5 -0.523,0.422 -0.59,0.32 -0.644,0.207 -0.668,0.074 -0.672,-0.054 -0.653,-0.18 -0.601,-0.305 -0.531,-0.406 -0.45,-0.488 L 9.848,49.34 9.605,48.766 9.477,48.195 9.453,47.656 9.531,47.18 9.691,46.785 9.914,46.5 l 0.27,-0.168 0.289,-0.039 0.281,0.098 0.254,0.218 0.199,0.336 0.125,0.434 0.031,0.508 -0.066,0.558 -0.18,0.575 -0.289,0.562 -0.39,0.523 L 9.949,50.559 9.383,50.922 8.758,51.176 8.094,51.305 7.422,51.301 6.762,51.164 6.137,50.91 5.574,50.539 5.09,50.082 4.703,49.555 4.418,48.992 4.246,48.414 4.184,47.863 4.223,47.355 4.352,46.926 4.551,46.598 4.805,46.379 5.09,46.293 l 0.289,0.043 0.266,0.172 0.222,0.293 0.156,0.398 0.071,0.481 -0.028,0.543 -0.132,0.57 -0.246,0.57 L 5.332,49.906 4.883,50.391 4.344,50.793 3.738,51.09 3.09,51.266 2.414,51.316 1.746,51.234 1.105,51.023 0.516,50.695 0,50.27"
       style="fill:none;stroke:#000000;stroke-width:0.4608;stroke-linecap:square;stroke-linejoin:miter;stroke-miterlimit:3.25;stroke-dasharray:none;stroke-opacity:1"
       transform="scale(1.3333333)" />
    <path
       id="path2"
       d="m 4.8738809,-5.2852606 c 0.1640625,0.1171875 0.2929688,0.2929687 0.421875,0.515625 l 0.1640625,-0.703125 h 0.8554688 l -1.0664063,5.02734373 c -0.1523437,0.703125 -0.375,1.25390625 -0.6679687,1.66406247 -0.5507813,0.75 -1.3476563,1.125 -2.4140625,1.125 -0.609375,0 -1.0664063,-0.140625 -1.41796876,-0.3984375 C 0.39731844,1.6756769 0.25669344,1.2538019 0.32700594,0.69130188 H 1.2762247 c -0.011719,0.24609375 0.046875,0.43359372 0.1523437,0.57421872 0.1523438,0.1992188 0.46875,0.3046875 0.9140625,0.3046875 0.7148438,0 1.2304688,-0.2460937 1.5585938,-0.74999997 0.1992187,-0.29296875 0.3632812,-0.820312505 0.515625,-1.58203125 -0.2460938,0.28125 -0.515625,0.4921875 -0.796875,0.62109375 -0.2929688,0.140624995 -0.65625,0.2109375 -1.0898438,0.2109375 -0.5859375,0 -1.078125,-0.2109375 -1.4296875,-0.6328125 C 0.73716219,-0.99619812 0.66684969,-1.6876044 0.87778719,-2.6719794 1.0770059,-3.5860419 1.4402872,-4.3243231 2.0145059,-4.8399481 c 0.5625,-0.515625 1.1601563,-0.7734375 1.7929688,-0.7734375 0.4335937,0 0.796875,0.1054687 1.0664062,0.328125 z m -1.0664062,0.4921875 c -0.65625,0 -1.1601563,0.3046875 -1.5234375,0.9140625 -0.2109375,0.328125 -0.3632813,0.75 -0.46875,1.2773437 -0.140625,0.6328125 -0.1054688,1.1015625 0.070312,1.4296875 0.1875,0.32812503 0.4921875,0.48046878 0.9257812,0.48046878 0.65625,0 1.1835938,-0.29296875 1.59375,-0.89062498 0.2226563,-0.3515625 0.375,-0.7382813 0.46875,-1.1953125 0.1523438,-0.6914063 0.1171875,-1.1953125 -0.09375,-1.5234375 -0.2109375,-0.328125 -0.5390625,-0.4921875 -0.9726557,-0.4921875 z m 0,0"
       style="fill:#000000;fill-opacity:1;fill-rule:nonzero;stroke:none"
       aria-label="g"
       transform="matrix(1.3333333,0,0,1.3333333,23.739773,86.242327)" />
    <path
       id="path3"
       d="m 41.891,50.27 0.515,-0.426 0.59,-0.328 0.641,-0.211 0.668,-0.082 0.675,0.047 0.649,0.179 0.605,0.297 0.539,0.402 0.45,0.485 0.355,0.539 0.246,0.574 0.133,0.57 0.027,0.539 -0.07,0.485 -0.156,0.398 -0.223,0.293 -0.265,0.172 -0.29,0.043 -0.281,-0.09 -0.258,-0.215 -0.199,-0.332 -0.129,-0.425 -0.039,-0.508 0.063,-0.555 0.172,-0.574 0.285,-0.567 0.386,-0.523 0.485,-0.461 0.562,-0.367 0.625,-0.258 0.66,-0.133 0.672,-0.004 0.664,0.129 0.625,0.25 0.567,0.364 0.488,0.457 0.391,0.523 0.289,0.563 0.18,0.574 0.07,0.558 -0.035,0.508 -0.125,0.434 -0.2,0.336 -0.253,0.218 -0.282,0.094 -0.289,-0.035 -0.269,-0.168 -0.223,-0.285 -0.16,-0.395 -0.078,-0.48 0.023,-0.535 0.133,-0.571 0.238,-0.574 0.348,-0.543 0.449,-0.488 0.531,-0.406 0.606,-0.305 0.648,-0.184 0.672,-0.054 0.668,0.078 0.645,0.203 0.59,0.324 0.523,0.422 0.43,0.5 0.328,0.551 0.222,0.574 0.114,0.567 0.004,0.531 -0.09,0.465 -0.172,0.375 -0.234,0.269 -0.278,0.145 -0.289,0.011 -0.277,-0.113 -0.246,-0.242 -0.188,-0.356 -0.109,-0.449 -0.016,-0.515 0.086,-0.563 0.195,-0.574 0.309,-0.559 0.41,-0.515 0.5,-0.442 0.578,-0.344 0.637,-0.23 0.664,-0.105 0.676,0.023 0.656,0.156 0.613,0.278 0.551,0.386 0.469,0.473 0.367,0.531 0.266,0.571 0.156,0.574 0.043,0.547 -0.055,0.496 -0.14,0.414 -0.215,0.308 -0.262,0.196 -0.285,0.066 -0.285,-0.066 -0.262,-0.196 -0.215,-0.308 -0.14,-0.414 -0.055,-0.496 0.047,-0.547 0.152,-0.574 0.266,-0.571 0.371,-0.531 0.465,-0.473 0.55,-0.386 0.618,-0.278 0.656,-0.156 0.672,-0.023 0.668,0.105 0.633,0.23 0.578,0.344 0.5,0.442 0.41,0.515 0.308,0.559 0.196,0.574 0.09,0.563 -0.02,0.515 -0.109,0.449 -0.188,0.356 -0.246,0.242 -0.277,0.113 -0.289,-0.011 -0.274,-0.145 -0.234,-0.269 -0.172,-0.375 -0.094,-0.465 0.008,-0.531 0.109,-0.567 0.223,-0.574 0.328,-0.551 0.434,-0.5 0.519,-0.422 0.59,-0.324 0.645,-0.203 0.668,-0.078 0.672,0.054 0.652,0.184 0.601,0.305 0.536,0.406 0.445,0.488 0.348,0.543 0.242,0.574 0.129,0.571 0.023,0.535 -0.078,0.48 -0.156,0.395 -0.227,0.285 -0.269,0.168 -0.289,0.035 -0.282,-0.094 -0.254,-0.218 -0.199,-0.336 -0.125,-0.434 -0.031,-0.508 0.066,-0.558 0.18,-0.574 0.289,-0.563 0.391,-0.523 0.488,-0.457 0.566,-0.364 0.625,-0.25 0.665,-0.129 0.671,0.004 0.664,0.133 0.622,0.258 0.562,0.367 0.484,0.461 0.387,0.523 0.285,0.567 0.172,0.574 0.063,0.555 -0.036,0.508 -0.128,0.425 -0.204,0.332 -0.253,0.215 -0.286,0.09 -0.289,-0.043 -0.265,-0.172 -0.223,-0.293 -0.156,-0.398 -0.07,-0.485 0.027,-0.539 0.137,-0.57 0.242,-0.574 0.355,-0.539 0.449,-0.485 0.54,-0.402 0.605,-0.297 0.652,-0.179 0.672,-0.047 0.668,0.082 0.641,0.211 0.59,0.328 0.515,0.426"
       style="fill:none;stroke:#000000;stroke-width:0.4608;stroke-linecap:square;stroke-linejoin:miter;stroke-miterlimit:3.25;stroke-dasharray:none;stroke-opacity:1"
       transform="scale(1.3333333)" />
    <path
       id="path4"
       d="m 4.8745735,-5.2850064 c 0.1640625,0.1171875 0.2929687,0.2929687 0.421875,0.515625 l 0.1640625,-0.703125 h 0.8554687 l -1.0664062,5.02734371 c -0.1523438,0.703125 -0.375,1.25390625 -0.6679688,1.66406249 -0.5507812,0.75 -1.3476562,1.125 -2.4140625,1.125 -0.609375,0 -1.0664062,-0.140625 -1.4179687,-0.3984375 C 0.398011,1.6759311 0.257386,1.2540561 0.3276985,0.69155606 h 0.9492187 c -0.011719,0.24609375 0.046875,0.43359374 0.1523438,0.57421874 0.1523437,0.1992188 0.46875,0.3046875 0.9140625,0.3046875 0.7148437,0 1.2304687,-0.2460937 1.5585937,-0.74999999 0.1992188,-0.29296875 0.3632813,-0.8203124975 0.515625,-1.58203125 -0.2460937,0.28125 -0.515625,0.4921875 -0.796875,0.62109375 -0.2929687,0.1406250025 -0.65625,0.2109375 -1.0898437,0.2109375 -0.5859375,0 -1.078125,-0.2109375 -1.4296875,-0.6328125 C 0.73785475,-0.99594394 0.66754225,-1.6873502 0.87847975,-2.6717252 1.0776985,-3.5857877 1.4409797,-4.3240689 2.0151985,-4.8396939 c 0.5625,-0.515625 1.1601562,-0.7734375 1.7929687,-0.7734375 0.4335938,0 0.796875,0.1054687 1.0664063,0.328125 z m -1.0664063,0.4921875 c -0.65625,0 -1.1601562,0.3046875 -1.5234375,0.9140625 -0.2109375,0.328125 -0.3632812,0.75 -0.46875,1.2773437 -0.140625,0.6328125 -0.1054687,1.1015625 0.070312,1.4296875 0.1875,0.32812501 0.4921875,0.48046876 0.9257813,0.48046876 0.65625,0 1.1835937,-0.29296875 1.59375,-0.89062496 0.2226562,-0.3515625 0.375,-0.7382813 0.46875,-1.1953125 C 5.0269172,-3.4686002 4.991761,-3.9725064 4.7808235,-4.3006314 4.569886,-4.6287564 4.241761,-4.7928189 3.8081672,-4.7928189 Z m 0,0"
       style="fill:#000000;fill-opacity:1;fill-rule:nonzero;stroke:none"
       aria-label="g"
       transform="matrix(1.3333333,0,0,1.3333333,79.594319,90.152144)"
       clip-path="url(#clipPath5)" />
    <path
       id="path6"
       d="m 41.891,50.27 -0.504,0.375 -0.59,0.269 -0.656,0.141 -0.684,0.004 -0.672,-0.141 -0.629,-0.277 -0.547,-0.395 -0.437,-0.488 -0.313,-0.547 -0.183,-0.582 -0.059,-0.586 0.047,-0.563 0.141,-0.519 0.203,-0.461 0.242,-0.391 0.258,-0.316 0.254,-0.234 0.23,-0.145 0.196,-0.051 0.152,0.039 0.101,0.129 0.047,0.215 -0.008,0.289 -0.07,0.356 -0.14,0.398 -0.215,0.422 -0.293,0.422 -0.379,0.39 -0.465,0.332 -0.539,0.25 -0.598,0.133 -0.64,0.008 -0.645,-0.133 -0.621,-0.273 -0.559,-0.402 -0.461,-0.512 -0.339,-0.59 -0.207,-0.629 -0.067,-0.645 0.07,-0.617 0.192,-0.566 0.285,-0.504 0.356,-0.418 0.398,-0.34 0.41,-0.258 0.399,-0.179 0.363,-0.11 0.308,-0.043 0.235,0.024 0.16,0.078 0.066,0.137 -0.015,0.187 -0.11,0.227 -0.195,0.261 -0.281,0.274 -0.36,0.269 -0.429,0.239 -0.496,0.183 -0.547,0.106 -0.582,0.004 -0.594,-0.118 -0.574,-0.25 -0.528,-0.375 -0.449,-0.496 -0.344,-0.593 -0.214,-0.653 -0.075,-0.683 0.071,-0.668 0.203,-0.625 0.32,-0.547 0.414,-0.449 0.481,-0.344 0.511,-0.238 0.52,-0.141 0.504,-0.051 0.465,0.016 0.406,0.066 0.328,0.106 0.242,0.129 0.149,0.144 0.047,0.152 -0.059,0.153 -0.156,0.148 -0.254,0.137 -0.34,0.113 -0.41,0.074 -0.473,0.024 -0.508,-0.047 -0.527,-0.133 -0.52,-0.234 -0.48,-0.344 -0.418,-0.453 -0.324,-0.551 -0.207,-0.625 -0.071,-0.672 0.071,-0.683 0.211,-0.657 0.34,-0.589 0.445,-0.493 0.523,-0.378 0.575,-0.25 0.585,-0.118 h 0.579 l 0.546,0.098 0.493,0.18 0.429,0.23 0.356,0.258 0.277,0.262 0.192,0.25 0.101,0.218 0.012,0.176 -0.078,0.133 -0.168,0.078 -0.25,0.02 -0.317,-0.039 -0.375,-0.106 -0.41,-0.18 -0.418,-0.253 -0.406,-0.34 -0.363,-0.422 -0.293,-0.5 -0.192,-0.571 -0.07,-0.621 0.062,-0.644 0.204,-0.637 0.343,-0.594 0.457,-0.511 0.555,-0.403 0.617,-0.273 0.645,-0.137 0.637,0.004 0.593,0.137 0.539,0.242 0.461,0.328 0.383,0.383 0.297,0.414 0.215,0.41 0.144,0.391 0.075,0.34 0.007,0.281 -0.05,0.203 -0.106,0.117 -0.16,0.031 -0.203,-0.058 -0.242,-0.153 -0.262,-0.234 -0.27,-0.32 -0.25,-0.395 -0.214,-0.465 -0.145,-0.519 -0.055,-0.567 0.059,-0.589 0.184,-0.586 0.312,-0.551 0.438,-0.492 0.546,-0.399 0.629,-0.277 0.672,-0.145 h 0.684 l 0.652,0.141 0.59,0.266 0.5,0.371 0.398,0.453 0.289,0.5 0.184,0.523 0.094,0.52 0.012,0.488 -0.047,0.442 -0.094,0.371 -0.121,0.293 -0.141,0.203 -0.148,0.101 h -0.153 l -0.152,-0.101 -0.141,-0.203 -0.121,-0.293 -0.093,-0.371 -0.047,-0.442 0.011,-0.488 0.094,-0.52 0.184,-0.523 0.289,-0.5 0.398,-0.453 0.5,-0.371 0.59,-0.266 0.652,-0.141 h 0.684 l 0.672,0.145 0.629,0.277 0.547,0.399 0.437,0.492 0.313,0.551 0.183,0.586 0.059,0.589 -0.055,0.567 -0.144,0.519 -0.211,0.465 -0.254,0.395 -0.27,0.32 -0.261,0.234 -0.243,0.153 -0.203,0.058 -0.16,-0.031 -0.105,-0.117 -0.051,-0.203 0.012,-0.281 0.07,-0.34 0.144,-0.391 0.215,-0.41 0.297,-0.414 0.383,-0.383 0.461,-0.328 0.539,-0.242 0.598,-0.137 0.632,-0.004 0.645,0.137 0.617,0.273 0.555,0.403 0.461,0.511 0.34,0.594 0.203,0.637 0.066,0.644 -0.074,0.621 -0.191,0.571 -0.293,0.5 -0.364,0.422 -0.406,0.34 -0.418,0.253 -0.41,0.18 -0.375,0.106 -0.316,0.039 -0.25,-0.02 -0.168,-0.078 -0.079,-0.133 0.012,-0.176 0.102,-0.218 0.191,-0.25 0.277,-0.262 0.356,-0.258 0.43,-0.23 0.492,-0.18 0.547,-0.098 h 0.578 l 0.586,0.118 0.574,0.25 0.523,0.378 0.446,0.493 0.34,0.589 0.21,0.657 0.071,0.683 -0.071,0.672 -0.207,0.625 -0.324,0.551 -0.418,0.453 -0.48,0.344 -0.52,0.234 -0.527,0.133 -0.508,0.047 -0.473,-0.024 -0.41,-0.074 -0.34,-0.113 -0.253,-0.137 -0.157,-0.148 -0.058,-0.153 0.047,-0.152 0.148,-0.144 0.242,-0.129 0.332,-0.106 0.403,-0.066 0.464,-0.016 0.504,0.051 0.52,0.141 0.515,0.238 0.477,0.344 0.414,0.449 0.32,0.547 0.204,0.625 0.07,0.668 -0.074,0.683 -0.215,0.653 -0.344,0.593 -0.449,0.496 -0.528,0.375 -0.574,0.25 -0.594,0.118 -0.582,-0.004 -0.546,-0.106 -0.496,-0.183 -0.43,-0.239 -0.36,-0.269 -0.281,-0.274 -0.195,-0.261 -0.106,-0.227 -0.019,-0.187 0.07,-0.137 0.156,-0.078 0.235,-0.024 0.308,0.043 0.364,0.11 0.398,0.179 0.41,0.258 0.399,0.34 0.355,0.418 0.289,0.504 0.188,0.566 0.07,0.617 -0.066,0.645 -0.203,0.629 -0.344,0.59 -0.461,0.512 -0.559,0.402 -0.617,0.273 -0.648,0.133 -0.637,-0.008 -0.602,-0.133 -0.539,-0.25 -0.465,-0.332 -0.378,-0.39 -0.293,-0.422 -0.215,-0.422 -0.141,-0.398 -0.07,-0.356 -0.008,-0.289 0.047,-0.215 0.105,-0.129 0.153,-0.039 0.195,0.051 0.23,0.145 0.25,0.234 0.258,0.316 0.242,0.391 0.204,0.461 0.14,0.519 0.047,0.563 -0.059,0.586 -0.183,0.582 -0.313,0.547 -0.437,0.488 -0.547,0.395 L 45,50.918 44.324,51.059 43.641,51.055 42.984,50.914 42.395,50.645 41.891,50.27"
       style="fill:none;stroke:#000000;stroke-width:0.4608;stroke-linecap:square;stroke-linejoin:miter;stroke-miterlimit:3.25;stroke-dasharray:none;stroke-opacity:1"
       transform="scale(1.3333333)" />
    <path
       id="path7"
       d="m 4.8756926,-5.285187 c 0.1640625,0.1171875 0.2929687,0.2929687 0.421875,0.515625 l 0.1640625,-0.703125 h 0.8554687 l -1.0664062,5.02734375 c -0.1523438,0.703125 -0.375,1.25390625 -0.6679688,1.66406245 -0.5507812,0.75 -1.3476562,1.125 -2.4140625,1.125 -0.609375,0 -1.0664062,-0.140625 -1.41796874,-0.3984375 C 0.39913006,1.6757505 0.25850506,1.2538755 0.32881756,0.6913755 H 1.2780363 c -0.011719,0.24609375 0.046875,0.4335937 0.1523438,0.5742187 0.1523437,0.1992188 0.46875,0.3046875 0.9140625,0.3046875 0.7148437,0 1.2304687,-0.2460937 1.5585937,-0.74999995 0.1992188,-0.29296875 0.3632813,-0.8203125 0.515625,-1.58203125 -0.2460937,0.28125 -0.515625,0.4921875 -0.796875,0.62109375 -0.2929687,0.140625 -0.65625,0.2109375 -1.0898437,0.2109375 -0.5859375,0 -1.078125,-0.2109375 -1.4296875,-0.6328125 C 0.73897381,-0.9961245 0.66866131,-1.6875308 0.87959881,-2.6719058 1.0788176,-3.5859683 1.4420988,-4.3242495 2.0163176,-4.8398745 c 0.5625,-0.515625 1.1601562,-0.7734375 1.7929687,-0.7734375 0.4335938,0 0.796875,0.1054687 1.0664063,0.328125 z m -1.0664063,0.4921875 c -0.65625,0 -1.1601562,0.3046875 -1.5234375,0.9140625 -0.2109375,0.328125 -0.3632812,0.75 -0.46875,1.2773437 -0.140625,0.6328125 -0.1054687,1.1015625 0.070312,1.4296875 0.1875,0.32812505 0.4921875,0.4804688 0.9257813,0.4804688 0.65625,0 1.1835937,-0.29296875 1.59375,-0.890625 0.2226562,-0.3515625 0.375,-0.7382813 0.46875,-1.1953125 C 5.0280363,-3.4687808 4.9928801,-3.972687 4.7819426,-4.300812 4.5710051,-4.628937 4.2428801,-4.7929995 3.8092863,-4.7929995 Z m 0,0"
       style="fill:#000000;fill-opacity:1;fill-rule:nonzero;stroke:none"
       aria-label="g"
       transform="matrix(1.3333333,0,0,1.3333333,51.667045,27.734416)" />
    <path
       id="path8"
       d="m 43.734,50.27 c 0,0.488 -0.195,0.957 -0.539,1.304 -0.347,0.344 -0.816,0.539 -1.304,0.539 -0.489,0 -0.957,-0.195 -1.305,-0.539 -0.344,-0.347 -0.539,-0.816 -0.539,-1.304 0,-0.489 0.195,-0.958 0.539,-1.305 0.348,-0.344 0.816,-0.539 1.305,-0.539 0.488,0 0.957,0.195 1.304,0.539 0.344,0.347 0.539,0.816 0.539,1.305 z"
       style="fill:#000000;fill-opacity:1;fill-rule:evenodd;stroke:none"
       transform="scale(1.3333333)" />
    <path
       id="path9"
       d="m 0.79561444,-4.1598184 v -0.5625 c 0.53906246,-0.046875 0.91406246,-0.140625 1.11328126,-0.2578125 0.2109375,-0.1171875 0.375,-0.4101563 0.4804687,-0.8671875 H 2.9753019 V 3.378125e-4 H 2.1784269 V -4.1598184 Z m 0,0"
       style="fill:#000000;fill-opacity:1;fill-rule:nonzero;stroke:none"
       aria-label="1"
       transform="matrix(1.3333333,0,0,1.3333333,52.896212,123.27689)"
       clip-path="url(#clipPath10)" />
    <path
       id="path11"
       d="m 117.293,50.27 -0.496,0.418 -0.57,0.324 -0.618,0.211 -0.648,0.089 -0.656,-0.035 -0.633,-0.164 -0.594,-0.277 -0.527,-0.383 -0.453,-0.465 -0.356,-0.523 -0.254,-0.559 -0.144,-0.562 -0.043,-0.539 0.054,-0.493 0.141,-0.414 0.211,-0.316 0.258,-0.207 0.289,-0.082 0.289,0.043 0.269,0.168 0.231,0.285 0.164,0.387 0.082,0.469 -0.012,0.527 -0.113,0.558 -0.219,0.563 -0.324,0.539 -0.422,0.484 -0.508,0.411 -0.574,0.312 -0.625,0.199 -0.648,0.078 -0.653,-0.05 -0.632,-0.176 -0.586,-0.289 -0.524,-0.391 -0.437,-0.472 -0.348,-0.528 -0.242,-0.562 -0.137,-0.563 -0.031,-0.535 0.066,-0.484 0.149,-0.407 0.215,-0.304 0.261,-0.196 0.289,-0.07 0.293,0.059 0.266,0.179 0.223,0.297 0.156,0.395 0.074,0.476 -0.023,0.532 -0.125,0.562 -0.231,0.563 -0.336,0.535 -0.429,0.476 -0.516,0.403 -0.578,0.3 -0.629,0.188 -0.652,0.062 -0.653,-0.062 -0.625,-0.188 -0.582,-0.3 -0.515,-0.403 -0.43,-0.476 -0.336,-0.535 -0.231,-0.563 -0.125,-0.562 -0.023,-0.532 0.074,-0.476 0.157,-0.395 0.222,-0.297 0.27,-0.179 0.289,-0.059 0.289,0.07 0.262,0.196 0.218,0.304 0.149,0.407 0.062,0.484 -0.031,0.535 -0.137,0.563 -0.242,0.562 -0.344,0.528 -0.441,0.472 -0.524,0.391 -0.585,0.289 -0.633,0.176 -0.653,0.05 -0.648,-0.078 -0.625,-0.199 -0.574,-0.312 -0.504,-0.411 -0.422,-0.484 -0.328,-0.539 -0.219,-0.563 -0.113,-0.558 -0.012,-0.527 0.082,-0.469 0.168,-0.387 0.227,-0.285 0.269,-0.168 0.293,-0.043 0.285,0.082 0.262,0.207 0.207,0.316 0.141,0.414 0.058,0.493 -0.043,0.539 -0.148,0.562 -0.254,0.559 -0.356,0.523 -0.449,0.465 -0.531,0.383 -0.594,0.277 -0.633,0.164 -0.652,0.035 -0.648,-0.089 -0.621,-0.211 -0.567,-0.324 -0.5,-0.418"
       style="fill:none;stroke:#000000;stroke-width:0.4608;stroke-linecap:square;stroke-linejoin:miter;stroke-miterlimit:3.25;stroke-dasharray:none;stroke-opacity:1"
       transform="scale(1.3333333)" />
    <path
       id="path12"
       d="m 4.8752661,-5.2852606 c 0.1640625,0.1171875 0.2929687,0.2929687 0.421875,0.515625 l 0.1640625,-0.703125 h 0.8554687 l -1.0664062,5.02734373 c -0.1523438,0.703125 -0.375,1.25390625 -0.6679688,1.66406247 -0.5507812,0.75 -1.3476562,1.125 -2.4140625,1.125 -0.609375,0 -1.0664062,-0.140625 -1.41796874,-0.3984375 C 0.39870356,1.6756769 0.25807856,1.2538019 0.32839106,0.69130188 H 1.2776098 c -0.011719,0.24609375 0.046875,0.43359372 0.1523438,0.57421872 0.1523437,0.1992188 0.46875,0.3046875 0.9140625,0.3046875 0.7148437,0 1.2304687,-0.2460937 1.5585937,-0.74999997 0.1992188,-0.29296875 0.3632813,-0.820312505 0.515625,-1.58203125 -0.2460937,0.28125 -0.515625,0.4921875 -0.796875,0.62109375 -0.2929687,0.140624995 -0.65625,0.2109375 -1.0898437,0.2109375 -0.5859375,0 -1.078125,-0.2109375 -1.4296875,-0.6328125 C 0.73854731,-0.99619812 0.66823481,-1.6876044 0.87917231,-2.6719794 1.0783911,-3.5860419 1.4416723,-4.3243231 2.0158911,-4.8399481 c 0.5625,-0.515625 1.1601562,-0.7734375 1.7929687,-0.7734375 0.4335938,0 0.796875,0.1054687 1.0664063,0.328125 z m -1.0664063,0.4921875 c -0.65625,0 -1.1601562,0.3046875 -1.5234375,0.9140625 -0.2109375,0.328125 -0.3632812,0.75 -0.46875,1.2773437 -0.140625,0.6328125 -0.1054687,1.1015625 0.070312,1.4296875 0.1875,0.32812503 0.4921875,0.48046878 0.9257813,0.48046878 0.65625,0 1.1835937,-0.29296875 1.59375,-0.89062498 0.2226562,-0.3515625 0.375,-0.7382813 0.46875,-1.1953125 0.1523437,-0.6914063 0.1171875,-1.1953125 -0.09375,-1.5234375 -0.2109375,-0.328125 -0.5390625,-0.4921875 -0.9726558,-0.4921875 z m 0,0"
       style="fill:#000000;fill-opacity:1;fill-rule:nonzero;stroke:none"
       aria-label="g"
       transform="matrix(1.3333333,0,0,1.3333333,135.44886,86.242327)" />
    <path
       id="path13"
       d="m 150.809,50.27 0.496,-0.418 0.57,-0.325 0.617,-0.215 0.649,-0.089 0.656,0.039 0.633,0.16 0.593,0.281 0.528,0.379 0.453,0.465 0.355,0.527 0.254,0.559 0.145,0.562 0.043,0.539 -0.055,0.493 -0.141,0.414 -0.21,0.316 -0.258,0.207 -0.289,0.082 -0.289,-0.043 -0.27,-0.168 -0.23,-0.285 -0.164,-0.387 -0.083,-0.468 0.012,-0.528 0.114,-0.558 0.218,-0.563 0.324,-0.539 0.422,-0.484 0.508,-0.411 0.574,-0.312 0.625,-0.203 0.649,-0.074 0.652,0.05 0.633,0.172 0.586,0.293 0.523,0.391 0.442,0.473 0.344,0.527 0.242,0.562 0.136,0.563 0.032,0.535 -0.063,0.484 -0.152,0.403 -0.215,0.308 -0.262,0.192 -0.289,0.07 -0.289,-0.055 -0.269,-0.179 -0.223,-0.297 -0.156,-0.399 -0.075,-0.472 0.024,-0.535 0.125,-0.559 0.23,-0.562 0.336,-0.536 0.43,-0.476 0.516,-0.403 0.582,-0.3 0.625,-0.188 0.652,-0.062 0.652,0.062 0.625,0.188 0.582,0.3 0.516,0.403 0.43,0.476 0.336,0.536 0.23,0.562 0.125,0.559 0.024,0.535 -0.075,0.472 -0.156,0.399 -0.223,0.297 -0.269,0.179 -0.289,0.055 -0.289,-0.07 -0.262,-0.192 -0.219,-0.308 -0.148,-0.403 -0.063,-0.484 0.032,-0.535 0.136,-0.563 0.242,-0.562 0.344,-0.527 0.442,-0.473 0.523,-0.391 0.586,-0.293 0.633,-0.172 0.652,-0.05 0.649,0.074 0.625,0.203 0.574,0.312 0.508,0.411 0.418,0.484 0.328,0.539 0.218,0.563 0.114,0.558 0.012,0.528 -0.083,0.468 -0.164,0.387 -0.23,0.285 -0.27,0.168 -0.293,0.043 -0.285,-0.082 -0.261,-0.207 -0.207,-0.316 -0.141,-0.414 -0.055,-0.493 0.039,-0.539 0.149,-0.562 0.254,-0.559 0.355,-0.527 0.449,-0.465 0.532,-0.379 0.593,-0.281 0.633,-0.16 0.652,-0.039 0.649,0.089 0.621,0.215 0.57,0.325 0.496,0.418"
       style="fill:none;stroke:#000000;stroke-width:0.4608;stroke-linecap:square;stroke-linejoin:miter;stroke-miterlimit:3.25;stroke-dasharray:none;stroke-opacity:1"
       transform="scale(1.3333333)" />
    <path
       id="path14"
       d="m 4.8744784,-5.2861245 c 0.1640625,0.1171875 0.2929688,0.2929688 0.421875,0.515625 l 0.1640625,-0.703125 h 0.8554688 l -1.0664063,5.02734375 c -0.1523437,0.703125 -0.375,1.25390625 -0.6679687,1.66406255 -0.5507813,0.75 -1.3476563,1.125 -2.4140625,1.125 -0.609375,0 -1.0664063,-0.140625 -1.41796876,-0.3984375 C 0.39791594,1.674813 0.25729094,1.252938 0.32760344,0.690438 H 1.2768222 c -0.011719,0.24609375 0.046875,0.4335938 0.1523437,0.5742188 0.1523438,0.1992187 0.46875,0.3046875 0.9140625,0.3046875 0.7148438,0 1.2304688,-0.2460938 1.5585938,-0.75000005 0.1992187,-0.29296875 0.3632812,-0.8203125 0.515625,-1.58203125 -0.2460938,0.28125 -0.515625,0.4921875 -0.796875,0.62109375 -0.2929688,0.140625 -0.65625,0.2109375 -1.0898438,0.2109375 -0.5859375,0 -1.078125,-0.2109375 -1.4296875,-0.6328125 C 0.73775969,-0.997062 0.66744719,-1.6884682 0.87838469,-2.6728432 1.0776034,-3.5869057 1.4408847,-4.325187 2.0151034,-4.840812 c 0.5625,-0.515625 1.1601563,-0.7734375 1.7929688,-0.7734375 0.4335937,0 0.796875,0.1054688 1.0664062,0.328125 z M 3.8080722,-4.793937 c -0.65625,0 -1.1601563,0.3046875 -1.5234375,0.9140625 -0.2109375,0.328125 -0.3632813,0.75 -0.46875,1.2773438 -0.140625,0.6328125 -0.1054688,1.1015625 0.070312,1.4296875 0.1875,0.32812495 0.4921875,0.4804687 0.9257812,0.4804687 0.65625,0 1.1835938,-0.29296875 1.59375,-0.890625 0.2226563,-0.3515625 0.375,-0.7382812 0.46875,-1.1953125 0.1523438,-0.6914062 0.1171875,-1.1953125 -0.09375,-1.5234375 -0.210937,-0.328125 -0.539062,-0.4921875 -0.9726557,-0.4921875 z m 0,0"
       style="fill:#000000;fill-opacity:1;fill-rule:nonzero;stroke:none"
       aria-label="g"
       transform="matrix(1.3333333,0,0,1.3333333,213.64523,58.454416)" />
    <path
       id="path15"
       d="m 117.293,50.27 c 1.152,5.109 4.57,9.418 9.289,11.695 4.719,2.277 10.219,2.277 14.938,0 4.718,-2.277 8.136,-6.586 9.289,-11.695"
       style="fill:none;stroke:#000000;stroke-width:0.4608;stroke-linecap:square;stroke-linejoin:miter;stroke-miterlimit:3.25;stroke-dasharray:none;stroke-opacity:1"
       transform="scale(1.3333333)" />
    <path
       id="path16"
       d="m 131.539,63.676 5.023,1.676 V 62 Z"
       style="fill:#000000;fill-opacity:1;fill-rule:evenodd;stroke:none"
       transform="scale(1.3333333)" />
    <path
       id="path17"
       d="m 2.7772155,-5.5067579 -0.7851562,3.65625 c -0.058594,0.28125 -0.058594,0.515625 -0.011719,0.6914063 0.09375,0.32812498 0.3632813,0.49218748 0.8203125,0.49218748 0.6445313,0 1.1484375,-0.28125 1.5117188,-0.86718748 0.1875,-0.3046875 0.328125,-0.7382813 0.4453125,-1.2773438 L 5.3436218,-5.5067579 H 6.269403 L 5.097528,0.00105463 H 4.2186218 l 0.1875,-0.80859375 c -0.1757813,0.2109375 -0.3515625,0.38671875 -0.5625,0.5390625 -0.421875,0.28125 -0.8789063,0.43359375 -1.3828125,0.43359375 -0.796875,0 -1.265625,-0.26953125 -1.4414063,-0.796875 -0.09375,-0.28125 -0.09375,-0.65625003 0,-1.12500003 l 0.8085938,-3.75 z m 0,0"
       style="fill:#000000;fill-opacity:1;fill-rule:nonzero;stroke:none"
       aria-label="u"
       transform="matrix(1.3333333,0,0,1.3333333,174.5783,104.11578)" />
    <path
       id="path18"
       d="m 150.809,50.27 c -1.153,-5.114 -4.571,-9.418 -9.289,-11.696 -4.719,-2.281 -10.219,-2.281 -14.938,0 -4.719,2.278 -8.137,6.582 -9.289,11.696"
       style="fill:none;stroke:#000000;stroke-width:0.4608;stroke-linecap:square;stroke-linejoin:miter;stroke-miterlimit:3.25;stroke-dasharray:none;stroke-opacity:1"
       transform="scale(1.3333333)" />
    <path
       id="path19"
       d="m 136.562,36.863 -5.023,-1.675 v 3.351 z"
       style="fill:#000000;fill-opacity:1;fill-rule:evenodd;stroke:none"
       transform="scale(1.3333333)" />
    <path
       id="path20"
       d="m 2.7772155,-5.5070101 -0.7851562,3.65625 c -0.058594,0.28125 -0.058594,0.515625 -0.011719,0.6914063 0.09375,0.32812499 0.3632813,0.49218749 0.8203125,0.49218749 0.6445313,0 1.1484375,-0.28125 1.5117188,-0.86718749 0.1875,-0.3046875 0.328125,-0.7382813 0.4453125,-1.2773438 L 5.3436218,-5.5070101 H 6.269403 L 5.097528,8.024375e-4 H 4.2186218 l 0.1875,-0.8085937475 c -0.1757813,0.2109375 -0.3515625,0.38671875 -0.5625,0.5390625 -0.421875,0.28125 -0.8789063,0.43359375 -1.3828125,0.43359375 -0.796875,0 -1.265625,-0.26953125 -1.4414063,-0.796875 -0.09375,-0.28125 -0.09375,-0.65625004 0,-1.12500004 l 0.8085938,-3.75 z m 0,0"
       style="fill:#000000;fill-opacity:1;fill-rule:nonzero;stroke:none"
       aria-label="u"
       transform="matrix(1.3333333,0,0,1.3333333,174.5783,40.580961)" />
    <path
       id="path21"
       d="m 119.137,50.27 c 0,0.488 -0.192,0.957 -0.539,1.304 -0.344,0.344 -0.813,0.539 -1.305,0.539 -0.488,0 -0.957,-0.195 -1.301,-0.539 -0.347,-0.347 -0.539,-0.816 -0.539,-1.304 0,-0.489 0.192,-0.958 0.539,-1.305 0.344,-0.344 0.813,-0.539 1.301,-0.539 0.492,0 0.961,0.195 1.305,0.539 0.347,0.347 0.539,0.816 0.539,1.305 z"
       style="fill:#000000;fill-opacity:1;fill-rule:evenodd;stroke:none"
       transform="scale(1.3333333)" />
    <path
       id="path22"
       d="m 152.652,50.27 c 0,0.488 -0.195,0.957 -0.543,1.304 -0.343,0.344 -0.812,0.539 -1.3,0.539 -0.489,0 -0.961,-0.195 -1.305,-0.539 -0.344,-0.347 -0.539,-0.816 -0.539,-1.304 0,-0.489 0.195,-0.958 0.539,-1.305 0.344,-0.344 0.816,-0.539 1.305,-0.539 0.488,0 0.957,0.195 1.3,0.539 0.348,0.347 0.543,0.816 0.543,1.305 z"
       style="fill:#000000;fill-opacity:1;fill-rule:evenodd;stroke:none"
       transform="scale(1.3333333)" />
    <path
       id="path23"
       d="M 0.25866131,3.378125e-4 C 0.28209881,-0.50356844 0.38756756,-0.93716219 0.57506756,-1.3238809 c 0.1875,-0.3632813 0.53906254,-0.7148438 1.06640624,-1.0078125 l 0.7851563,-0.46875 c 0.3515625,-0.1992188 0.5976562,-0.375 0.7382812,-0.515625 0.234375,-0.234375 0.3398438,-0.4921875 0.3398438,-0.7851563 0,-0.3398437 -0.1054688,-0.609375 -0.3164063,-0.8085937 -0.1992187,-0.2109375 -0.46875,-0.3046875 -0.8085937,-0.3046875 -0.515625,0 -0.8554688,0.1875 -1.0546875,0.5742187 -0.1054688,0.1992188 -0.1523438,0.4921875 -0.1757813,0.8554688 H 0.39928631 c 0.0117188,-0.515625 0.10546875,-0.9257813 0.29296875,-1.2539063 0.31640624,-0.5625 0.87890624,-0.8554687 1.68750004,-0.8554687 0.6679687,0 1.171875,0.1757812 1.4765625,0.5507812 0.3164062,0.3632813 0.46875,0.7617188 0.46875,1.2070313 0,0.46875 -0.1757813,0.8789062 -0.5039063,1.2070312 -0.1875,0.1992188 -0.5390625,0.4335938 -1.0195312,0.7148438 l -0.5625,0.3046875 c -0.2695313,0.1523437 -0.4804688,0.2929687 -0.6445313,0.421875 -0.2695312,0.2460937 -0.4453125,0.50390621 -0.515625,0.78515621 H 4.2899113 V 3.378125e-4 Z m 0,0"
       style="fill:#000000;fill-opacity:1;fill-rule:nonzero;stroke:none"
       aria-label="2"
       transform="matrix(1.3333333,0,0,1.3333333,175.77621,123.27689)"
       clip-path="url(#clipPath24)" />
    <path
       id="path25"
       d="m 209.453,50.27 -0.496,0.418 -0.57,0.324 -0.617,0.211 -0.649,0.089 -0.656,-0.035 -0.633,-0.164 -0.594,-0.277 -0.527,-0.383 -0.453,-0.465 -0.356,-0.523 -0.254,-0.559 -0.144,-0.562 -0.043,-0.539 0.055,-0.493 0.14,-0.414 0.211,-0.316 0.258,-0.207 0.289,-0.082 0.289,0.043 0.27,0.168 0.23,0.285 0.164,0.387 0.082,0.469 -0.011,0.527 -0.114,0.558 -0.219,0.563 -0.324,0.539 -0.422,0.484 -0.507,0.411 -0.575,0.312 -0.625,0.199 -0.648,0.078 -0.652,-0.05 -0.633,-0.176 -0.586,-0.289 -0.524,-0.391 -0.437,-0.472 -0.348,-0.528 -0.242,-0.562 -0.137,-0.563 -0.031,-0.535 0.063,-0.484 0.152,-0.407 0.215,-0.304 0.261,-0.196 0.29,-0.07 0.293,0.059 0.265,0.179 0.223,0.297 0.156,0.395 0.074,0.476 -0.023,0.532 -0.125,0.562 -0.231,0.563 -0.336,0.535 -0.429,0.476 -0.516,0.403 -0.582,0.3 -0.625,0.188 -0.652,0.062 -0.653,-0.062 -0.625,-0.188 -0.582,-0.3 -0.515,-0.403 -0.43,-0.476 -0.336,-0.535 -0.23,-0.563 -0.125,-0.562 -0.024,-0.532 0.074,-0.476 0.157,-0.395 0.222,-0.297 0.27,-0.179 0.289,-0.059 0.289,0.07 0.262,0.196 0.218,0.304 0.149,0.407 0.062,0.484 -0.031,0.535 -0.137,0.563 -0.242,0.562 -0.344,0.528 -0.441,0.472 -0.523,0.391 -0.586,0.289 -0.633,0.176 -0.652,0.05 -0.649,-0.078 -0.625,-0.199 -0.574,-0.312 -0.508,-0.411 -0.418,-0.484 -0.328,-0.539 -0.219,-0.563 -0.113,-0.558 -0.012,-0.527 0.082,-0.469 0.168,-0.387 0.227,-0.285 0.269,-0.168 0.293,-0.043 0.285,0.082 0.262,0.207 0.207,0.316 0.141,0.414 0.058,0.493 -0.043,0.539 -0.148,0.562 -0.254,0.559 -0.355,0.523 -0.45,0.465 -0.531,0.383 -0.594,0.277 -0.632,0.164 -0.653,0.035 -0.648,-0.089 -0.621,-0.211 -0.567,-0.324 -0.5,-0.418"
       style="fill:none;stroke:#000000;stroke-width:0.4608;stroke-linecap:square;stroke-linejoin:miter;stroke-miterlimit:3.25;stroke-dasharray:none;stroke-opacity:1"
       transform="scale(1.3333333)" />
    <path
       id="path26"
       d="m 4.8744458,-5.2852606 c 0.1640625,0.1171875 0.2929687,0.2929687 0.421875,0.515625 l 0.1640625,-0.703125 H 6.315852 l -1.0664062,5.02734373 c -0.1523438,0.703125 -0.375,1.25390625 -0.6679688,1.66406247 -0.5507812,0.75 -1.3476562,1.125 -2.4140625,1.125 -0.609375,0 -1.0664062,-0.140625 -1.41796875,-0.3984375 C 0.39788325,1.6756769 0.25725825,1.2538019 0.32757075,0.69130188 H 1.2767895 c -0.011719,0.24609375 0.046875,0.43359372 0.1523438,0.57421872 0.1523437,0.1992188 0.46875,0.3046875 0.9140625,0.3046875 0.7148437,0 1.2304687,-0.2460937 1.5585937,-0.74999997 0.1992188,-0.29296875 0.3632813,-0.820312505 0.515625,-1.58203125 -0.2460937,0.28125 -0.515625,0.4921875 -0.796875,0.62109375 -0.2929687,0.140624995 -0.65625,0.2109375 -1.0898437,0.2109375 -0.5859375,0 -1.078125,-0.2109375 -1.4296875,-0.6328125 C 0.737727,-0.99619812 0.6674145,-1.6876044 0.878352,-2.6719794 c 0.1992188,-0.9140625 0.5625,-1.6523437 1.1367188,-2.1679687 0.5625,-0.515625 1.1601562,-0.7734375 1.7929687,-0.7734375 0.4335938,0 0.796875,0.1054687 1.0664063,0.328125 z m -1.0664063,0.4921875 c -0.65625,0 -1.1601562,0.3046875 -1.5234375,0.9140625 -0.2109375,0.328125 -0.3632812,0.75 -0.46875,1.2773437 -0.140625,0.6328125 -0.1054687,1.1015625 0.070312,1.4296875 0.1875,0.32812503 0.4921875,0.48046878 0.9257813,0.48046878 0.65625,0 1.1835937,-0.29296875 1.59375,-0.89062498 0.2226562,-0.3515625 0.375,-0.7382813 0.46875,-1.1953125 0.1523437,-0.6914063 0.1171875,-1.1953125 -0.09375,-1.5234375 -0.2109375,-0.328125 -0.5390625,-0.4921875 -0.9726558,-0.4921875 z m 0,0"
       style="fill:#000000;fill-opacity:1;fill-rule:nonzero;stroke:none"
       aria-label="g"
       transform="matrix(1.3333333,0,0,1.3333333,258.32886,86.242327)" />
    <path
       id="path27"
       d="m 242.969,50.27 0.496,-0.418 0.57,-0.325 0.617,-0.215 0.649,-0.089 0.656,0.039 0.633,0.16 0.594,0.281 0.527,0.379 0.453,0.465 0.356,0.527 0.253,0.559 0.145,0.562 0.043,0.539 -0.055,0.493 -0.14,0.414 -0.211,0.316 -0.258,0.207 -0.289,0.082 -0.289,-0.043 -0.27,-0.168 -0.23,-0.285 -0.164,-0.387 -0.082,-0.468 0.011,-0.528 0.114,-0.558 0.218,-0.563 0.325,-0.539 0.421,-0.484 0.508,-0.411 0.575,-0.312 0.625,-0.203 0.648,-0.074 0.652,0.05 0.633,0.172 0.586,0.293 0.523,0.391 0.438,0.473 0.348,0.527 0.242,0.562 0.137,0.563 0.031,0.535 -0.063,0.484 -0.152,0.403 -0.215,0.308 -0.262,0.192 -0.289,0.07 -0.293,-0.055 -0.265,-0.179 -0.223,-0.297 -0.156,-0.399 -0.074,-0.472 0.023,-0.535 0.125,-0.559 0.231,-0.562 0.335,-0.536 0.43,-0.476 0.516,-0.403 0.578,-0.3 0.629,-0.188 0.652,-0.062 0.653,0.062 0.624,0.188 0.583,0.3 0.515,0.403 0.43,0.476 0.336,0.536 0.23,0.562 0.125,0.559 0.024,0.535 -0.075,0.472 -0.156,0.399 -0.222,0.297 -0.27,0.179 -0.289,0.055 -0.289,-0.07 -0.262,-0.192 -0.219,-0.308 -0.148,-0.403 -0.063,-0.484 0.032,-0.535 0.136,-0.563 0.243,-0.562 0.343,-0.527 0.442,-0.473 0.523,-0.391 0.586,-0.293 0.633,-0.172 0.652,-0.05 0.649,0.074 0.625,0.203 0.574,0.312 0.508,0.411 0.418,0.484 0.328,0.539 0.219,0.563 0.113,0.558 0.012,0.528 -0.082,0.468 -0.168,0.387 -0.227,0.285 -0.269,0.168 -0.293,0.043 -0.286,-0.082 -0.261,-0.207 -0.207,-0.316 -0.141,-0.414 -0.059,-0.493 0.043,-0.539 0.149,-0.562 0.254,-0.559 0.355,-0.527 0.449,-0.465 0.532,-0.379 0.593,-0.281 0.633,-0.16 0.653,-0.039 0.648,0.089 0.621,0.215 0.567,0.325 0.5,0.418"
       style="fill:none;stroke:#000000;stroke-width:0.4608;stroke-linecap:square;stroke-linejoin:miter;stroke-miterlimit:3.25;stroke-dasharray:none;stroke-opacity:1"
       transform="scale(1.3333333)" />
    <path
       id="path28"
       d="m 4.8736581,-5.2861245 c 0.1640625,0.1171875 0.2929688,0.2929688 0.421875,0.515625 l 0.1640625,-0.703125 h 0.8554688 l -1.0664063,5.02734375 c -0.1523437,0.703125 -0.375,1.25390625 -0.6679687,1.66406255 -0.5507813,0.75 -1.3476563,1.125 -2.4140625,1.125 -0.609375,0 -1.0664063,-0.140625 -1.41796877,-0.3984375 C 0.39709563,1.674813 0.25647063,1.252938 0.32678313,0.690438 H 1.2760019 c -0.011719,0.24609375 0.046875,0.4335938 0.1523437,0.5742188 0.1523438,0.1992187 0.46875,0.3046875 0.9140625,0.3046875 0.7148438,0 1.2304688,-0.2460938 1.5585938,-0.75000005 0.1992187,-0.29296875 0.3632812,-0.8203125 0.515625,-1.58203125 -0.2460938,0.28125 -0.515625,0.4921875 -0.796875,0.62109375 -0.2929688,0.140625 -0.65625,0.2109375 -1.0898438,0.2109375 -0.5859375,0 -1.078125,-0.2109375 -1.4296875,-0.6328125 C 0.73693938,-0.997062 0.66662688,-1.6884682 0.87756438,-2.6728432 1.0767831,-3.5869057 1.4400644,-4.325187 2.0142831,-4.840812 c 0.5625,-0.515625 1.1601563,-0.7734375 1.7929688,-0.7734375 0.4335937,0 0.796875,0.1054688 1.0664062,0.328125 z M 3.8072519,-4.793937 c -0.65625,0 -1.1601563,0.3046875 -1.5234375,0.9140625 -0.2109375,0.328125 -0.3632813,0.75 -0.46875,1.2773438 -0.140625,0.6328125 -0.1054688,1.1015625 0.070312,1.4296875 0.1875,0.32812495 0.4921875,0.4804687 0.9257812,0.4804687 0.65625,0 1.1835938,-0.29296875 1.59375,-0.890625 0.2226563,-0.3515625 0.375,-0.7382812 0.46875,-1.1953125 0.1523438,-0.6914062 0.1171875,-1.1953125 -0.09375,-1.5234375 -0.210937,-0.328125 -0.539062,-0.4921875 -0.9726557,-0.4921875 z m 0,0"
       style="fill:#000000;fill-opacity:1;fill-rule:nonzero;stroke:none"
       aria-label="g"
       transform="matrix(1.3333333,0,0,1.3333333,336.52523,58.454416)" />
    <path
       id="path29"
       d="m 209.453,50.27 c 1.152,5.109 4.57,9.418 9.289,11.695 4.719,2.277 10.219,2.277 14.938,0 4.718,-2.277 8.136,-6.586 9.289,-11.695"
       style="fill:none;stroke:#000000;stroke-width:0.4608;stroke-linecap:butt;stroke-linejoin:miter;stroke-miterlimit:3.25;stroke-dasharray:0.4608, 2.7648;stroke-dashoffset:0;stroke-opacity:1"
       transform="scale(1.3333333)" />
    <path
       id="path30"
       d="m 223.699,63.676 5.024,1.676 V 62 Z"
       style="fill:#000000;fill-opacity:1;fill-rule:evenodd;stroke:none"
       transform="scale(1.3333333)" />
    <path
       id="path31"
       d="m 1.6054973,-5.5067579 v 3.65625 c 0,0.28125 0.046875,0.515625 0.140625,0.6914063 0.1523437,0.32812498 0.4570312,0.49218748 0.9140625,0.49218748 0.6445312,0 1.0898437,-0.28125 1.3242187,-0.86718748 0.1171875,-0.3046875 0.1875,-0.7382813 0.1875,-1.2773438 V -5.5067579 H 5.0976848 V 0.00105463 H 4.2187785 l 0.011719,-0.80859375 c -0.1289063,0.2109375 -0.2695313,0.38671875 -0.4453125,0.5390625 -0.3515625,0.28125 -0.7851563,0.43359375 -1.2890625,0.43359375 -0.7851563,0 -1.3242188,-0.26953125 -1.6054688,-0.796875 -0.1640625,-0.28125 -0.234375,-0.65625003 -0.234375,-1.12500003 v -3.75 z m 8.34375,-2.25 c 0.7031247,0 1.3124997,0.1289063 1.8398437,0.4101563 0.75,0.3867187 1.207031,1.0898437 1.382813,2.0625 h -1.019532 c -0.128906,-0.5390625 -0.375,-0.9492188 -0.773437,-1.1953125 -0.375,-0.2578125 -0.867188,-0.3867188 -1.464844,-0.3867188 -0.6914062,0 -1.2890625,0.2695313 -1.7578125,0.796875 -0.4921875,0.5273438 -0.7382812,1.3125 -0.7382812,2.34375 0,0.9023438 0.2109375,1.640625 0.609375,2.203125 0.3867187,0.56250003 1.03125,0.84375003 1.9335937,0.84375003 0.667969,0 1.242188,-0.19921875 1.699219,-0.58593753 0.445312,-0.3984375 0.667969,-1.0429687 0.679687,-1.9335937 H 9.9726848 v -0.84375 H 13.289091 V 0.00105463 H 12.64456 l -0.257813,-0.97265625 c -0.351562,0.38671875 -0.65625,0.64453125 -0.914062,0.796875 -0.457031,0.24609375 -1.03125,0.38671875 -1.7226565,0.38671875 -0.9023437,0 -1.6757812,-0.29296875 -2.3203125,-0.87890625 C 6.726591,-1.3934766 6.3750285,-2.4012891 6.3750285,-3.6669141 c 0,-1.265625 0.3398438,-2.2734375 1.0429688,-3.0234375 0.6445312,-0.7148438 1.4882812,-1.0664063 2.53125,-1.0664063 z m 0,0"
       style="fill:#000000;fill-opacity:1;fill-rule:nonzero;stroke:none"
       aria-label="uG"
       transform="matrix(1.3333333,0,0,1.3333333,291.84371,104.11578)" />
    <path
       id="path32"
       d="m 242.969,50.27 c -1.153,-5.114 -4.571,-9.418 -9.289,-11.696 -4.719,-2.281 -10.219,-2.281 -14.938,0 -4.719,2.278 -8.137,6.582 -9.289,11.696"
       style="fill:none;stroke:#000000;stroke-width:0.4608;stroke-linecap:butt;stroke-linejoin:miter;stroke-miterlimit:3.25;stroke-dasharray:0.4608, 2.7648;stroke-dashoffset:0;stroke-opacity:1"
       transform="scale(1.3333333)" />
    <path
       id="path33"
       d="m 228.723,36.863 -5.024,-1.675 v 3.351 z"
       style="fill:#000000;fill-opacity:1;fill-rule:evenodd;stroke:none"
       transform="scale(1.3333333)" />
    <path
       id="path34"
       d="m 1.6054973,-5.5070101 v 3.65625 c 0,0.28125 0.046875,0.515625 0.140625,0.6914063 0.1523437,0.32812499 0.4570312,0.49218749 0.9140625,0.49218749 0.6445312,0 1.0898437,-0.28125 1.3242187,-0.86718749 0.1171875,-0.3046875 0.1875,-0.7382813 0.1875,-1.2773438 V -5.5070101 H 5.0976848 V 8.024375e-4 H 4.2187785 L 4.2304973,-0.80779131 c -0.1289063,0.2109375 -0.2695313,0.38671875 -0.4453125,0.5390625 -0.3515625,0.28125 -0.7851563,0.43359375 -1.2890625,0.43359375 -0.7851563,0 -1.3242188,-0.26953125 -1.6054688,-0.796875 -0.1640625,-0.28125 -0.234375,-0.65625004 -0.234375,-1.12500004 v -3.75 z m 8.34375,-2.25 c 0.7031247,0 1.3124997,0.1289063 1.8398437,0.4101563 0.75,0.3867187 1.207031,1.0898437 1.382813,2.0625 h -1.019532 c -0.128906,-0.5390625 -0.375,-0.9492188 -0.773437,-1.1953125 -0.375,-0.2578125 -0.867188,-0.3867188 -1.464844,-0.3867188 -0.6914062,0 -1.2890625,0.2695313 -1.7578125,0.796875 -0.4921875,0.5273438 -0.7382812,1.3125 -0.7382812,2.34375 0,0.9023438 0.2109375,1.640625 0.609375,2.203125 0.3867187,0.56250004 1.03125,0.84375004 1.9335937,0.84375004 0.667969,0 1.242188,-0.19921875 1.699219,-0.58593754 0.445312,-0.3984375 0.667969,-1.0429687 0.679687,-1.9335937 H 9.9726848 v -0.84375 H 13.289091 V 8.024375e-4 H 12.64456 L 12.386747,-0.97185381 c -0.351562,0.38671875 -0.65625,0.64453125 -0.914062,0.796875 -0.457031,0.24609375 -1.03125,0.38671875 -1.7226565,0.38671875 -0.9023437,0 -1.6757812,-0.29296875 -2.3203125,-0.87890625 C 6.726591,-1.3937288 6.3750285,-2.4015413 6.3750285,-3.6671663 c 0,-1.265625 0.3398438,-2.2734375 1.0429688,-3.0234375 0.6445312,-0.7148438 1.4882812,-1.0664063 2.53125,-1.0664063 z m 0,0"
       style="fill:#000000;fill-opacity:1;fill-rule:nonzero;stroke:none"
       aria-label="uG"
       transform="matrix(1.3333333,0,0,1.3333333,291.84371,40.580961)" />
    <path
       id="path35"
       d="m 211.297,50.27 c 0,0.488 -0.192,0.957 -0.539,1.304 -0.344,0.344 -0.813,0.539 -1.305,0.539 -0.488,0 -0.957,-0.195 -1.301,-0.539 -0.347,-0.347 -0.539,-0.816 -0.539,-1.304 0,-0.489 0.192,-0.958 0.539,-1.305 0.344,-0.344 0.813,-0.539 1.301,-0.539 0.492,0 0.961,0.195 1.305,0.539 0.347,0.347 0.539,0.816 0.539,1.305 z"
       style="fill:#000000;fill-opacity:1;fill-rule:evenodd;stroke:none"
       transform="scale(1.3333333)" />
    <path
       id="path36"
       d="m 244.809,50.27 c 0,0.488 -0.192,0.957 -0.539,1.304 -0.344,0.344 -0.813,0.539 -1.301,0.539 -0.492,0 -0.961,-0.195 -1.305,-0.539 -0.348,-0.347 -0.539,-0.816 -0.539,-1.304 0,-0.489 0.191,-0.958 0.539,-1.305 0.344,-0.344 0.813,-0.539 1.305,-0.539 0.488,0 0.957,0.195 1.301,0.539 0.347,0.347 0.539,0.816 0.539,1.305 z"
       style="fill:#000000;fill-opacity:1;fill-rule:evenodd;stroke:none"
       transform="scale(1.3333333)" />
    <path
       id="path37"
       d="m 2.179716,0.16440031 c -0.6914062,0 -1.1953125,-0.1875 -1.51171875,-0.57421875 C 0.351591,-0.78481844 0.1875285,-1.2535684 0.1875285,-1.7926309 H 0.960966 c 0.0351563,0.375 0.1171875,0.6445312 0.2226563,0.82031246 0.1875,0.3046875 0.5390625,0.45703125 1.03125,0.45703125 0.3867187,0 0.703125,-0.09375 0.9375,-0.3046875 0.234375,-0.19921871 0.3515625,-0.46875001 0.3515625,-0.79687501 0,-0.421875 -0.1171875,-0.6914062 -0.375,-0.8554687 -0.234375,-0.1640625 -0.5859375,-0.2460938 -1.03125,-0.2460938 -0.035156,0 -0.09375,0 -0.140625,0 -0.046875,0 -0.1054688,0 -0.1640625,0.011719 v -0.65625 c 0.082031,0.011719 0.1523437,0.023437 0.1992187,0.023437 0.046875,0 0.1054688,0 0.1640625,0 0.28125,0 0.5039063,-0.046875 0.6796875,-0.1289063 0.3164063,-0.1523437 0.46875,-0.4335937 0.46875,-0.8203125 0,-0.2929687 -0.09375,-0.515625 -0.3046875,-0.6796875 C 2.789091,-5.1207559 2.5429973,-5.2145059 2.273466,-5.2145059 c -0.4921875,0 -0.8320312,0.1757812 -1.0195312,0.5039062 -0.1054688,0.1757813 -0.1640625,0.4335938 -0.1757813,0.7734375 H 0.33987225 c 0,-0.4453125 0.09375,-0.8203125 0.26953125,-1.125 0.29296875,-0.5390625 0.8320313,-0.8203125 1.5820313,-0.8203125 0.609375,0 1.0664062,0.140625 1.3945312,0.4101563 0.328125,0.2578125 0.4921875,0.6445312 0.4921875,1.1484375 0,0.3632812 -0.09375,0.65625 -0.2929687,0.8789062 -0.1171875,0.140625 -0.2695313,0.2578125 -0.46875,0.328125 0.3164062,0.082031 0.5625,0.2578125 0.7265625,0.4921875 0.1757812,0.2460938 0.2578125,0.5390625 0.2578125,0.890625 0,0.5625 -0.1875,1.01953126 -0.5507813,1.37109376 -0.375,0.3515625 -0.890625,0.52734375 -1.5703125,0.52734375 z m 0,0"
       style="fill:#000000;fill-opacity:1;fill-rule:nonzero;stroke:none"
       aria-label="3"
       transform="matrix(1.3333333,0,0,1.3333333,298.65621,123.27689)"
       clip-path="url(#clipPath38)" />
    <path
       id="path39"
       d="m 301.613,50.27 -0.496,0.418 -0.57,0.324 -0.617,0.211 -0.649,0.089 -0.656,-0.035 -0.633,-0.164 -0.594,-0.277 -0.527,-0.383 -0.453,-0.465 -0.356,-0.523 -0.253,-0.559 -0.145,-0.562 -0.043,-0.539 0.055,-0.493 0.14,-0.414 0.211,-0.316 0.258,-0.207 0.289,-0.082 0.289,0.043 0.27,0.168 0.23,0.285 0.164,0.387 0.082,0.469 -0.011,0.527 -0.114,0.558 -0.218,0.563 -0.325,0.539 -0.421,0.484 -0.508,0.411 -0.574,0.312 -0.626,0.199 -0.648,0.078 -0.652,-0.05 -0.633,-0.176 -0.586,-0.289 -0.523,-0.391 -0.442,-0.472 -0.344,-0.528 -0.242,-0.562 -0.137,-0.563 -0.031,-0.535 0.063,-0.484 0.152,-0.407 0.215,-0.304 0.262,-0.196 0.289,-0.07 0.289,0.059 0.269,0.179 0.223,0.297 0.156,0.395 0.074,0.476 -0.023,0.532 -0.125,0.562 -0.23,0.563 -0.336,0.535 -0.43,0.476 -0.516,0.403 -0.582,0.3 -0.625,0.188 -0.652,0.062 -0.652,-0.062 -0.625,-0.188 -0.582,-0.3 -0.516,-0.403 -0.43,-0.476 -0.336,-0.535 -0.23,-0.563 -0.125,-0.562 -0.024,-0.532 0.075,-0.476 0.156,-0.395 0.222,-0.297 0.27,-0.179 0.289,-0.059 0.289,0.07 0.262,0.196 0.219,0.304 0.148,0.407 0.063,0.484 -0.032,0.535 -0.136,0.563 -0.243,0.562 -0.343,0.528 -0.442,0.472 -0.523,0.391 -0.586,0.289 -0.633,0.176 -0.652,0.05 -0.649,-0.078 -0.625,-0.199 -0.574,-0.312 -0.508,-0.411 -0.422,-0.484 -0.324,-0.539 -0.219,-0.563 -0.113,-0.558 -0.012,-0.527 0.082,-0.469 0.164,-0.387 0.231,-0.285 0.269,-0.168 0.293,-0.043 0.286,0.082 0.261,0.207 0.207,0.316 0.141,0.414 0.055,0.493 -0.039,0.539 -0.149,0.562 -0.254,0.559 -0.355,0.523 -0.449,0.465 -0.532,0.383 -0.593,0.277 -0.633,0.164 -0.653,0.035 -0.648,-0.089 -0.621,-0.211 -0.57,-0.324 -0.497,-0.418"
       style="fill:none;stroke:#000000;stroke-width:0.4608;stroke-linecap:square;stroke-linejoin:miter;stroke-miterlimit:3.25;stroke-dasharray:none;stroke-opacity:1"
       transform="scale(1.3333333)" />
    <path
       id="path40"
       d="m 4.8736254,-5.2852606 c 0.1640625,0.1171875 0.2929688,0.2929687 0.421875,0.515625 l 0.1640625,-0.703125 h 0.8554688 l -1.0664063,5.02734373 c -0.1523437,0.703125 -0.375,1.25390625 -0.6679687,1.66406247 -0.5507813,0.75 -1.3476563,1.125 -2.4140625,1.125 -0.609375,0 -1.0664063,-0.140625 -1.41796876,-0.3984375 C 0.39706294,1.6756769 0.25643794,1.2538019 0.32675044,0.69130188 H 1.2759692 c -0.011719,0.24609375 0.046875,0.43359372 0.1523437,0.57421872 0.1523438,0.1992188 0.46875,0.3046875 0.9140625,0.3046875 0.7148438,0 1.2304688,-0.2460937 1.5585938,-0.74999997 0.1992187,-0.29296875 0.3632812,-0.820312505 0.515625,-1.58203125 -0.2460938,0.28125 -0.515625,0.4921875 -0.796875,0.62109375 -0.2929688,0.140624995 -0.65625,0.2109375 -1.0898438,0.2109375 -0.5859375,0 -1.078125,-0.2109375 -1.4296875,-0.6328125 C 0.73690669,-0.99619812 0.66659419,-1.6876044 0.87753169,-2.6719794 1.0767504,-3.5860419 1.4400317,-4.3243231 2.0142504,-4.8399481 c 0.5625,-0.515625 1.1601563,-0.7734375 1.7929688,-0.7734375 0.4335937,0 0.796875,0.1054687 1.0664062,0.328125 z m -1.0664062,0.4921875 c -0.65625,0 -1.1601563,0.3046875 -1.5234375,0.9140625 -0.2109375,0.328125 -0.3632813,0.75 -0.46875,1.2773437 -0.140625,0.6328125 -0.1054688,1.1015625 0.070312,1.4296875 0.1875,0.32812503 0.4921875,0.48046878 0.9257812,0.48046878 0.65625,0 1.1835938,-0.29296875 1.59375,-0.89062498 0.2226563,-0.3515625 0.375,-0.7382813 0.46875,-1.1953125 0.1523438,-0.6914063 0.1171875,-1.1953125 -0.09375,-1.5234375 -0.2109375,-0.328125 -0.5390625,-0.4921875 -0.9726557,-0.4921875 z m 0,0"
       style="fill:#000000;fill-opacity:1;fill-rule:nonzero;stroke:none"
       aria-label="g"
       transform="matrix(1.3333333,0,0,1.3333333,381.20886,86.242327)" />
    <path
       id="path41"
       d="m 335.129,50.27 0.496,-0.418 0.57,-0.325 0.617,-0.215 0.649,-0.089 0.656,0.039 0.633,0.16 0.594,0.281 0.527,0.379 0.453,0.465 0.356,0.527 0.254,0.559 0.144,0.562 0.043,0.539 -0.055,0.493 -0.14,0.414 -0.211,0.316 -0.258,0.207 -0.289,0.082 -0.289,-0.043 -0.27,-0.168 -0.23,-0.285 -0.164,-0.387 -0.082,-0.468 0.012,-0.528 0.113,-0.558 0.219,-0.563 0.324,-0.539 0.422,-0.484 0.507,-0.411 0.575,-0.312 0.625,-0.203 0.648,-0.074 0.652,0.05 0.633,0.172 0.586,0.293 0.524,0.391 0.437,0.473 0.348,0.527 0.242,0.562 0.137,0.563 0.031,0.535 -0.066,0.484 -0.149,0.403 -0.215,0.308 -0.261,0.192 -0.289,0.07 -0.293,-0.055 -0.266,-0.179 -0.223,-0.297 -0.156,-0.399 -0.074,-0.472 0.023,-0.535 0.125,-0.559 0.231,-0.562 0.336,-0.536 0.429,-0.476 0.516,-0.403 0.578,-0.3 0.629,-0.188 0.652,-0.062 0.653,0.062 0.625,0.188 0.582,0.3 0.515,0.403 0.43,0.476 0.336,0.536 0.23,0.562 0.125,0.559 0.024,0.535 -0.074,0.472 -0.157,0.399 -0.222,0.297 -0.27,0.179 -0.289,0.055 -0.289,-0.07 -0.262,-0.192 -0.218,-0.308 -0.149,-0.403 -0.062,-0.484 0.031,-0.535 0.137,-0.563 0.242,-0.562 0.344,-0.527 0.441,-0.473 0.523,-0.391 0.586,-0.293 0.633,-0.172 0.652,-0.05 0.649,0.074 0.625,0.203 0.574,0.312 0.504,0.411 0.422,0.484 0.328,0.539 0.219,0.563 0.113,0.558 0.012,0.528 -0.082,0.468 -0.168,0.387 -0.227,0.285 -0.269,0.168 -0.293,0.043 -0.285,-0.082 -0.262,-0.207 -0.207,-0.316 -0.145,-0.414 -0.054,-0.493 0.043,-0.539 0.148,-0.562 0.254,-0.559 0.355,-0.527 0.45,-0.465 0.531,-0.379 0.594,-0.281 0.632,-0.16 0.653,-0.039 0.648,0.089 0.621,0.215 0.567,0.325 0.5,0.418"
       style="fill:none;stroke:#000000;stroke-width:0.4608;stroke-linecap:square;stroke-linejoin:miter;stroke-miterlimit:3.25;stroke-dasharray:none;stroke-opacity:1"
       transform="scale(1.3333333)" />
    <path
       id="path42"
       d="m 4.8757675,-5.2861245 c 0.1640625,0.1171875 0.2929688,0.2929688 0.421875,0.515625 l 0.1640625,-0.703125 h 0.8554688 l -1.0664063,5.02734375 c -0.1523437,0.703125 -0.375,1.25390625 -0.6679687,1.66406255 -0.5507813,0.75 -1.3476563,1.125 -2.4140625,1.125 -0.609375,0 -1.0664063,-0.140625 -1.4179688,-0.3984375 C 0.399205,1.674813 0.25858,1.252938 0.3288925,0.690438 h 0.9492188 c -0.011719,0.24609375 0.046875,0.4335938 0.1523437,0.5742188 0.1523438,0.1992187 0.46875,0.3046875 0.9140625,0.3046875 0.7148438,0 1.2304688,-0.2460938 1.5585938,-0.75000005 C 4.10233,0.5263755 4.2663925,-9.6825e-4 4.4187363,-0.762687 c -0.2460938,0.28125 -0.515625,0.4921875 -0.796875,0.62109375 -0.2929688,0.140625 -0.65625,0.2109375 -1.0898438,0.2109375 -0.5859375,0 -1.078125,-0.2109375 -1.4296875,-0.6328125 C 0.73904875,-0.997062 0.66873625,-1.6884682 0.87967375,-2.6728432 1.0788925,-3.5869057 1.4421738,-4.325187 2.0163925,-4.840812 c 0.5625,-0.515625 1.1601563,-0.7734375 1.7929688,-0.7734375 0.4335937,0 0.796875,0.1054688 1.0664062,0.328125 z M 3.8093613,-4.793937 c -0.65625,0 -1.1601563,0.3046875 -1.5234375,0.9140625 -0.2109375,0.328125 -0.3632813,0.75 -0.46875,1.2773438 -0.140625,0.6328125 -0.1054688,1.1015625 0.070312,1.4296875 0.1875,0.32812495 0.4921875,0.4804687 0.9257812,0.4804687 0.65625,0 1.1835938,-0.29296875 1.59375,-0.890625 0.2226563,-0.3515625 0.375,-0.7382812 0.46875,-1.1953125 C 5.0281113,-3.4697182 4.992955,-3.9736245 4.7820175,-4.3017495 4.57108,-4.6298745 4.242955,-4.793937 3.8093613,-4.793937 Z m 0,0"
       style="fill:#000000;fill-opacity:1;fill-rule:nonzero;stroke:none"
       aria-label="g"
       transform="matrix(1.3333333,0,0,1.3333333,459.40523,58.454416)" />
    <path
       id="path43"
       d="m 335.129,50.27 0.262,0.566 0.152,0.625 0.023,0.652 -0.105,0.657 -0.234,0.628 -0.352,0.563 -0.453,0.48 -0.527,0.371 -0.575,0.254 -0.593,0.133 -0.59,0.02 -0.563,-0.082 -0.512,-0.168 -0.449,-0.223 -0.375,-0.266 -0.293,-0.281 -0.203,-0.277 -0.109,-0.254 -0.016,-0.219 0.078,-0.168 0.168,-0.113 0.246,-0.051 0.317,0.024 0.367,0.093 0.402,0.18 0.414,0.258 0.395,0.344 0.359,0.429 0.289,0.504 0.203,0.567 0.09,0.613 -0.035,0.637 -0.16,0.632 -0.289,0.598 -0.402,0.531 -0.5,0.442 -0.575,0.332 -0.613,0.207 -0.625,0.078 -0.613,-0.043 -0.578,-0.152 -0.516,-0.246 -0.449,-0.313 -0.371,-0.359 -0.289,-0.371 -0.203,-0.372 -0.118,-0.339 -0.039,-0.289 0.039,-0.231 0.114,-0.156 0.175,-0.07 0.239,0.011 0.281,0.102 0.309,0.191 0.32,0.278 0.308,0.363 0.274,0.437 0.211,0.508 0.129,0.559 0.027,0.597 -0.086,0.61 -0.211,0.597 -0.336,0.555 -0.445,0.488 -0.535,0.395 -0.61,0.281 -0.644,0.156 -0.649,0.024 -0.628,-0.106 -0.579,-0.218 -0.511,-0.313 -0.43,-0.39 -0.344,-0.438 -0.25,-0.461 -0.168,-0.453 -0.086,-0.426 -0.015,-0.379 0.043,-0.304 0.101,-0.227 0.149,-0.137 0.183,-0.035 0.211,0.067 0.231,0.164 0.23,0.257 0.215,0.348 0.18,0.426 0.129,0.492 0.05,0.539 -0.039,0.567 -0.144,0.574 -0.254,0.554 -0.371,0.508 -0.477,0.434 -0.562,0.34 -0.629,0.226 -0.66,0.094 -0.664,-0.035 -0.633,-0.164 -0.578,-0.281 -0.496,-0.375 -0.403,-0.454 -0.301,-0.503 -0.199,-0.528 -0.109,-0.519 -0.024,-0.496 0.047,-0.446 0.098,-0.383 0.137,-0.296 0.168,-0.208 0.179,-0.105 h 0.188 l 0.18,0.105 0.167,0.208 0.137,0.296 0.098,0.383 0.047,0.446 -0.024,0.496 -0.109,0.519 -0.199,0.528 -0.301,0.503 -0.402,0.454 -0.497,0.375 -0.578,0.281 -0.632,0.164 -0.664,0.035 -0.661,-0.094 -0.629,-0.226 -0.562,-0.34 -0.477,-0.434 -0.371,-0.508 -0.258,-0.554 -0.14,-0.574 -0.039,-0.567 0.051,-0.539 0.128,-0.492 0.18,-0.426 0.215,-0.348 0.23,-0.257 0.231,-0.164 0.211,-0.067 0.183,0.035 0.149,0.137 0.101,0.227 0.043,0.304 -0.015,0.379 -0.086,0.426 -0.168,0.453 -0.25,0.461 -0.344,0.438 -0.43,0.39 -0.511,0.313 -0.578,0.218 -0.629,0.106 -0.653,-0.024 -0.64,-0.156 -0.61,-0.281 -0.535,-0.395 -0.445,-0.488 -0.336,-0.555 -0.211,-0.597 -0.09,-0.61 0.031,-0.597 0.129,-0.559 0.211,-0.508 0.274,-0.437 0.308,-0.363 0.321,-0.278 0.308,-0.191 0.281,-0.102 0.235,-0.011 0.18,0.07 0.113,0.156 0.039,0.231 -0.039,0.289 -0.121,0.339 -0.203,0.372 -0.286,0.371 -0.371,0.359 -0.449,0.313 -0.515,0.246 -0.579,0.152 -0.613,0.043 -0.625,-0.078 -0.617,-0.207 -0.57,-0.332 -0.5,-0.442 -0.403,-0.531 -0.289,-0.598 -0.16,-0.632 -0.035,-0.637 0.09,-0.613 0.203,-0.567 0.289,-0.504 0.355,-0.429 0.399,-0.344 0.414,-0.258 0.402,-0.18 0.367,-0.093 0.317,-0.024 0.246,0.051 0.168,0.113 0.078,0.168 -0.016,0.219 -0.109,0.254 -0.203,0.277 -0.293,0.281 -0.375,0.266 -0.449,0.223 -0.516,0.168 -0.559,0.082 -0.589,-0.02 -0.598,-0.133 -0.574,-0.254 -0.524,-0.371 -0.453,-0.48 -0.351,-0.563 -0.235,-0.628 -0.105,-0.657 0.023,-0.652 0.153,-0.625 0.261,-0.566"
       style="fill:none;stroke:#000000;stroke-width:0.4608;stroke-linecap:square;stroke-linejoin:miter;stroke-miterlimit:3.25;stroke-dasharray:none;stroke-opacity:1"
       transform="scale(1.3333333)" />
    <path
       id="path44"
       d="m 4.8761613,-5.2841016 c 0.1640625,0.1171875 0.2929688,0.2929687 0.421875,0.515625 l 0.1640625,-0.703125 h 0.8554688 l -1.0664063,5.02734373 c -0.1523437,0.703125 -0.375,1.25390625 -0.6679687,1.66406247 -0.5507813,0.75 -1.3476563,1.125 -2.4140625,1.125 -0.609375,0 -1.0664063,-0.140625 -1.41796879,-0.3984375 C 0.39959881,1.6768359 0.25897381,1.2549609 0.32928631,0.69246088 H 1.2785051 c -0.011719,0.24609375 0.046875,0.43359372 0.1523437,0.57421872 0.1523438,0.1992188 0.46875,0.3046875 0.9140625,0.3046875 0.7148438,0 1.2304688,-0.2460937 1.5585938,-0.74999997 0.1992187,-0.29296875 0.3632812,-0.8203125 0.515625,-1.58203125 -0.2460938,0.28125 -0.515625,0.4921875 -0.796875,0.62109375 -0.2929688,0.140625 -0.65625,0.2109375 -1.0898438,0.2109375 -0.5859375,0 -1.078125,-0.2109375 -1.4296875,-0.6328125 C 0.73944256,-0.99503912 0.66913006,-1.6864454 0.88006756,-2.6708204 1.0792863,-3.5848829 1.4425676,-4.3231641 2.0167863,-4.8387891 c 0.5625,-0.515625 1.1601563,-0.7734375 1.7929688,-0.7734375 0.4335937,0 0.796875,0.1054687 1.0664062,0.328125 z m -1.0664062,0.4921875 c -0.65625,0 -1.1601563,0.3046875 -1.5234375,0.9140625 -0.2109375,0.328125 -0.3632813,0.75 -0.46875,1.2773437 -0.140625,0.6328125 -0.1054688,1.1015625 0.070312,1.4296875 0.1875,0.32812503 0.4921875,0.48046878 0.9257812,0.48046878 0.65625,0 1.1835938,-0.29296875 1.59375,-0.89062498 0.2226563,-0.3515625 0.375,-0.7382813 0.46875,-1.1953125 0.1523438,-0.6914063 0.1171875,-1.1953125 -0.09375,-1.5234375 -0.2109375,-0.328125 -0.5390625,-0.4921875 -0.9726557,-0.4921875 z m 0,0"
       style="fill:#000000;fill-opacity:1;fill-rule:nonzero;stroke:none"
       aria-label="g"
       transform="matrix(1.3333333,0,0,1.3333333,420.30705,104.11578)" />
    <path
       id="path45"
       d="m 335.129,50.27 0.262,-0.567 0.152,-0.625 0.023,-0.656 -0.105,-0.656 -0.234,-0.625 -0.352,-0.567 -0.453,-0.476 -0.527,-0.371 -0.575,-0.254 -0.593,-0.133 -0.59,-0.02 -0.563,0.082 -0.512,0.164 -0.449,0.227 -0.375,0.266 -0.293,0.281 -0.203,0.277 -0.109,0.254 -0.016,0.219 0.078,0.168 0.168,0.113 0.246,0.051 0.317,-0.024 0.367,-0.097 0.402,-0.176 0.414,-0.258 0.395,-0.344 0.359,-0.429 0.289,-0.504 0.203,-0.567 0.09,-0.613 -0.035,-0.637 -0.16,-0.632 -0.289,-0.598 -0.402,-0.531 -0.5,-0.442 -0.575,-0.332 -0.613,-0.207 -0.625,-0.078 -0.613,0.043 -0.578,0.152 -0.516,0.247 -0.449,0.312 -0.371,0.355 -0.289,0.376 -0.203,0.367 -0.118,0.34 -0.039,0.293 0.039,0.23 0.114,0.152 0.175,0.075 0.239,-0.012 0.281,-0.102 0.309,-0.191 0.32,-0.281 0.308,-0.36 0.274,-0.441 0.211,-0.504 0.129,-0.563 0.027,-0.593 -0.086,-0.61 -0.211,-0.597 -0.336,-0.559 -0.445,-0.488 -0.535,-0.395 -0.61,-0.281 -0.644,-0.152 -0.649,-0.024 -0.628,0.102 -0.579,0.218 -0.511,0.317 -0.43,0.391 -0.344,0.437 -0.25,0.457 -0.168,0.457 -0.086,0.426 -0.015,0.375 0.043,0.308 0.101,0.227 0.149,0.137 0.183,0.035 0.211,-0.067 0.231,-0.164 0.23,-0.257 0.215,-0.348 0.18,-0.426 0.129,-0.492 0.05,-0.539 -0.039,-0.566 -0.144,-0.575 -0.254,-0.554 -0.371,-0.508 -0.477,-0.438 -0.562,-0.336 -0.629,-0.226 -0.66,-0.094 -0.664,0.035 -0.633,0.164 -0.578,0.278 -0.496,0.379 -0.403,0.453 -0.301,0.504 -0.199,0.523 -0.109,0.523 -0.024,0.497 0.047,0.445 0.098,0.383 0.137,0.297 0.168,0.207 0.179,0.105 h 0.188 l 0.18,-0.105 0.167,-0.207 0.137,-0.297 0.098,-0.383 0.047,-0.445 -0.024,-0.497 -0.109,-0.523 -0.199,-0.523 -0.301,-0.504 -0.402,-0.453 -0.497,-0.379 -0.578,-0.278 -0.632,-0.164 -0.664,-0.035 -0.661,0.094 -0.629,0.226 -0.562,0.336 -0.477,0.438 -0.371,0.508 -0.258,0.554 -0.14,0.575 -0.039,0.566 0.051,0.539 0.128,0.492 0.18,0.426 0.215,0.348 0.23,0.257 0.231,0.164 0.211,0.067 0.183,-0.035 0.149,-0.137 0.101,-0.227 0.043,-0.308 -0.015,-0.375 -0.086,-0.426 -0.168,-0.457 -0.25,-0.457 -0.344,-0.437 -0.43,-0.391 -0.511,-0.317 -0.578,-0.218 -0.629,-0.102 -0.653,0.024 -0.64,0.152 -0.61,0.281 -0.535,0.395 -0.445,0.488 -0.336,0.559 -0.211,0.597 -0.09,0.61 0.031,0.593 0.129,0.563 0.211,0.504 0.274,0.441 0.308,0.36 0.321,0.281 0.308,0.191 0.281,0.102 0.235,0.012 0.18,-0.075 0.113,-0.152 0.039,-0.23 -0.039,-0.293 -0.121,-0.34 -0.203,-0.367 -0.286,-0.376 -0.371,-0.355 -0.449,-0.312 -0.515,-0.247 -0.579,-0.152 -0.613,-0.043 -0.625,0.078 -0.617,0.207 -0.57,0.332 -0.5,0.442 -0.403,0.531 -0.289,0.598 -0.16,0.632 -0.035,0.637 0.09,0.613 0.203,0.567 0.289,0.504 0.355,0.429 0.399,0.344 0.414,0.258 0.402,0.176 0.367,0.097 0.317,0.024 0.246,-0.051 0.168,-0.113 0.078,-0.168 -0.016,-0.219 -0.109,-0.254 -0.203,-0.277 -0.293,-0.281 -0.375,-0.266 -0.449,-0.227 -0.516,-0.164 -0.559,-0.082 -0.589,0.02 -0.598,0.133 -0.574,0.254 -0.524,0.371 -0.453,0.476 -0.351,0.567 -0.235,0.625 -0.105,0.656 0.023,0.656 0.153,0.625 0.261,0.567"
       style="fill:none;stroke:#000000;stroke-width:0.4608;stroke-linecap:square;stroke-linejoin:miter;stroke-miterlimit:3.25;stroke-dasharray:none;stroke-opacity:1"
       transform="scale(1.3333333)" />
    <path
       id="path46"
       d="m 4.8761613,-5.2843538 c 0.1640625,0.1171875 0.2929688,0.2929687 0.421875,0.515625 l 0.1640625,-0.703125 h 0.8554688 l -1.0664063,5.02734374 c -0.1523437,0.703125 -0.375,1.25390625 -0.6679687,1.66406246 -0.5507813,0.75 -1.3476563,1.125 -2.4140625,1.125 -0.609375,0 -1.0664063,-0.140625 -1.41796879,-0.3984375 C 0.39959881,1.6765837 0.25897381,1.2547087 0.32928631,0.69220869 H 1.2785051 c -0.011719,0.24609375 0.046875,0.43359371 0.1523437,0.57421871 0.1523438,0.1992188 0.46875,0.3046875 0.9140625,0.3046875 0.7148438,0 1.2304688,-0.2460937 1.5585938,-0.74999996 0.1992187,-0.29296875 0.3632812,-0.8203125025 0.515625,-1.58203125 -0.2460938,0.28125 -0.515625,0.4921875 -0.796875,0.62109375 -0.2929688,0.1406249975 -0.65625,0.2109375 -1.0898438,0.2109375 -0.5859375,0 -1.078125,-0.2109375 -1.4296875,-0.6328125 C 0.73944256,-0.99529131 0.66913006,-1.6866976 0.88006756,-2.6710726 1.0792863,-3.5851351 1.4425676,-4.3234163 2.0167863,-4.8390413 c 0.5625,-0.515625 1.1601563,-0.7734375 1.7929688,-0.7734375 0.4335937,0 0.796875,0.1054687 1.0664062,0.328125 z m -1.0664062,0.4921875 c -0.65625,0 -1.1601563,0.3046875 -1.5234375,0.9140625 -0.2109375,0.328125 -0.3632813,0.75 -0.46875,1.2773437 -0.140625,0.6328125 -0.1054688,1.1015625 0.070312,1.4296875 0.1875,0.32812504 0.4921875,0.48046879 0.9257812,0.48046879 0.65625,0 1.1835938,-0.29296875 1.59375,-0.89062499 0.2226563,-0.3515625 0.375,-0.7382813 0.46875,-1.1953125 0.1523438,-0.6914063 0.1171875,-1.1953125 -0.09375,-1.5234375 -0.2109375,-0.328125 -0.5390625,-0.4921875 -0.9726557,-0.4921875 z m 0,0"
       style="fill:#000000;fill-opacity:1;fill-rule:nonzero;stroke:none"
       aria-label="g"
       transform="matrix(1.3333333,0,0,1.3333333,420.30705,40.580961)" />
    <path
       id="path47"
       d="m 303.457,50.27 c 0,0.488 -0.195,0.957 -0.539,1.304 -0.348,0.344 -0.816,0.539 -1.305,0.539 -0.488,0 -0.957,-0.195 -1.301,-0.539 -0.347,-0.347 -0.542,-0.816 -0.542,-1.304 0,-0.489 0.195,-0.958 0.542,-1.305 0.344,-0.344 0.813,-0.539 1.301,-0.539 0.489,0 0.957,0.195 1.305,0.539 0.344,0.347 0.539,0.816 0.539,1.305 z"
       style="fill:#000000;fill-opacity:1;fill-rule:evenodd;stroke:none"
       transform="scale(1.3333333)" />
    <path
       id="path48"
       d="m 336.969,50.27 c 0,0.488 -0.192,0.957 -0.539,1.304 -0.344,0.344 -0.813,0.539 -1.301,0.539 -0.492,0 -0.961,-0.195 -1.305,-0.539 -0.347,-0.347 -0.539,-0.816 -0.539,-1.304 0,-0.489 0.192,-0.958 0.539,-1.305 0.344,-0.344 0.813,-0.539 1.305,-0.539 0.488,0 0.957,0.195 1.301,0.539 0.347,0.347 0.539,0.816 0.539,1.305 z"
       style="fill:#000000;fill-opacity:1;fill-rule:evenodd;stroke:none"
       transform="scale(1.3333333)" />
    <path
       id="path49"
       d="M 2.7765519,-2.0738809 V -4.7340372 L 0.88983319,-2.0738809 Z M 2.7882707,3.378125e-4 V -1.4293497 H 0.21014569 V -2.1559122 L 2.8937394,-5.8941934 h 0.6210938 v 3.8203125 h 0.8671875 v 0.6445312 H 3.5148332 V 3.378125e-4 Z m 0,0"
       style="fill:#000000;fill-opacity:1;fill-rule:nonzero;stroke:none"
       aria-label="4"
       transform="matrix(1.3333333,0,0,1.3333333,421.53621,123.27689)"
       clip-path="url(#clipPath50)" />
  </g>
</svg>
