<?xml version="1.0" encoding="UTF-8" standalone="no"?>
<!-- Created with Inkscape (http://www.inkscape.org/) -->

<svg
   version="1.1"
   id="svg1"
   width="246.66667"
   height="246.66667"
   viewBox="0 0 246.66667 246.66667"
   sodipodi:docname="0oy82inwo4mrl.pdf"
   xmlns:inkscape="http://www.inkscape.org/namespaces/inkscape"
   xmlns:sodipodi="http://sodipodi.sourceforge.net/DTD/sodipodi-0.dtd"
   xmlns="http://www.w3.org/2000/svg"
   xmlns:svg="http://www.w3.org/2000/svg">
  <defs
     id="defs1">
    <clipPath
       clipPathUnits="userSpaceOnUse"
       id="clipPath10">
      <path
         d="m 79,144 h 11.961 v 12 H 79 Z"
         transform="translate(-77.541587,-155.22055)"
         id="path10" />
    </clipPath>
    <clipPath
       clipPathUnits="userSpaceOnUse"
       id="clipPath13">
      <path
         d="M 77,49 H 90.961 V 66 H 77 Z"
         transform="translate(-77.500569,-61.074569)"
         id="path13" />
    </clipPath>
    <clipPath
       clipPathUnits="userSpaceOnUse"
       id="clipPath17">
      <path
         d="m 80,172 h 5 v 12.32 h -5 z"
         transform="translate(-79.055259,-184.68097)"
         id="path17" />
    </clipPath>
  </defs>
  <sodipodi:namedview
     id="namedview1"
     pagecolor="#ffffff"
     bordercolor="#999999"
     borderopacity="1"
     inkscape:showpageshadow="0"
     inkscape:pageopacity="0"
     inkscape:pagecheckerboard="0"
     inkscape:deskcolor="#d1d1d1">
    <inkscape:page
       x="0"
       y="0"
       id="page1"
       width="246.66667"
       height="246.66667"
       margin="0"
       bleed="0" />
  </sodipodi:namedview>
  <g
     id="g1"
     inkscape:groupmode="layer"
     inkscape:label="">
    <path
       id="path1"
       d="M 0,100.539 H 50.27"
       style="fill:none;stroke:#000000;stroke-width:0.9216;stroke-linecap:square;stroke-linejoin:miter;stroke-miterlimit:3.25;stroke-dasharray:none;stroke-opacity:1"
       transform="scale(1.3333333)" />
    <path
       id="path2"
       d="m 30.16,100.539 -10.051,3.352 v -6.703 z"
       style="fill:#000000;fill-opacity:1;fill-rule:evenodd;stroke:none"
       transform="scale(1.3333333)" />
    <path
       id="path3"
       d="m 5.5539312,-11.026575 -1.5585938,7.3359376 c -0.1289062,0.5507812 -0.1289062,1.0078125 -0.023437,1.3710937 0.1875,0.65625 0.7148438,0.984375 1.6289063,0.984375 1.2773437,0 2.296875,-0.5625 3.0117187,-1.7226562 0.3867188,-0.6210938 0.6796875,-1.4765625 0.9140625,-2.5546875 l 1.1601571,-5.4140626 h 1.851562 L 10.194556,7.688125e-4 H 8.4484624 L 8.8000249,-1.6281374 c -0.328125,0.421875 -0.6914062,0.78515621 -1.1132812,1.07812496 -0.84375,0.57421875 -1.7578125,0.8671875 -2.765625,0.8671875 -1.5820313,0 -2.53125,-0.52734375 -2.8710938,-1.58203126 -0.1875,-0.5742187 -0.1875,-1.3125 0,-2.2617187 l 1.6054688,-7.5000001 z m 0,0"
       style="fill:#000000;fill-opacity:1;fill-rule:nonzero;stroke:none"
       aria-label="u"
       transform="matrix(1.3333333,0,0,1.3333333,25.192415,171.21382)" />
    <path
       id="path4"
       d="M 167.562,100.539 H 117.293"
       style="fill:none;stroke:#000000;stroke-width:0.9216;stroke-linecap:square;stroke-linejoin:miter;stroke-miterlimit:3.25;stroke-dasharray:none;stroke-opacity:1"
       transform="scale(1.3333333)" />
    <path
       id="path5"
       d="m 147.457,100.539 -10.055,-3.351 v 6.703 z"
       style="fill:#000000;fill-opacity:1;fill-rule:evenodd;stroke:none"
       transform="scale(1.3333333)" />
    <path
       id="path6"
       d="m 5.5552836,-11.027327 -1.5585937,7.3359374 c -0.1289063,0.5507812 -0.1289063,1.0078125 -0.023437,1.3710937 0.1875,0.65625 0.7148437,0.984375 1.6289062,0.984375 1.2773438,0 2.296875,-0.5625 3.0117188,-1.7226562 0.3867187,-0.6210938 0.6796875,-1.4765625 0.9140625,-2.5546875 L 10.688097,-11.027327 H 12.53966 L 10.195909,1.6625e-5 H 8.4498149 L 8.8013774,-1.6288896 c -0.328125,0.421875 -0.6914063,0.78515623 -1.1132813,1.07812498 -0.84375,0.57421875 -1.7578125,0.8671875 -2.765625,0.8671875 -1.5820312,0 -2.53125,-0.52734375 -2.8710937,-1.58203128 -0.1875,-0.5742187 -0.1875,-1.3125 0,-2.2617187 l 1.6054687,-7.4999999 z m 0,0"
       style="fill:#000000;fill-opacity:1;fill-rule:nonzero;stroke:none"
       aria-label="u"
       transform="matrix(1.3333333,0,0,1.3333333,181.58514,117.17967)" />
    <path
       id="path7"
       d="m 50.27,100.539 c 2.3,10.223 9.14,18.836 18.578,23.391 9.433,4.558 20.433,4.558 29.871,0 9.433,-4.555 16.277,-13.168 18.574,-23.391"
       style="fill:none;stroke:#000000;stroke-width:0.9216;stroke-linecap:square;stroke-linejoin:miter;stroke-miterlimit:3.25;stroke-dasharray:none;stroke-opacity:1"
       transform="scale(1.3333333)" />
    <path
       id="path8"
       d="m 88.809,127.348 -10.055,3.351 v -6.703 z"
       style="fill:#000000;fill-opacity:1;fill-rule:evenodd;stroke:none"
       transform="scale(1.3333333)" />
    <path
       id="path9"
       d="m 5.5560722,-11.027187 -1.5585937,7.3359379 c -0.1289063,0.5507812 -0.1289063,1.0078125 -0.023437,1.3710937 0.1875,0.65625 0.7148437,0.984375 1.6289062,0.984375 1.2773438,0 2.296875,-0.5625 3.0117188,-1.7226562 0.3867187,-0.6210938 0.6796875,-1.4765625 0.9140625,-2.5546875 l 1.160157,-5.4140629 h 1.851561 L 10.196697,1.57125e-4 H 8.4506035 L 8.802166,-1.6287491 c -0.328125,0.421875 -0.6914063,0.78515622 -1.1132813,1.07812497 -0.84375,0.57421875 -1.7578125,0.8671875 -2.765625,0.8671875 -1.5820312,0 -2.53125,-0.52734375 -2.8710937,-1.58203127 -0.1875,-0.5742187 -0.1875,-1.3125 0,-2.2617187 l 1.6054687,-7.5000004 z m 0,0"
       style="fill:#000000;fill-opacity:1;fill-rule:nonzero;stroke:none"
       aria-label="u"
       transform="matrix(1.3333333,0,0,1.3333333,103.38878,206.96073)"
       clip-path="url(#clipPath10)" />
    <path
       id="path11"
       d="m 117.293,100.539 0.531,-1.133 0.301,-1.25 0.051,-1.308 -0.215,-1.313 -0.469,-1.254 -0.703,-1.129 -0.902,-0.957 -1.055,-0.742 -1.148,-0.508 -1.188,-0.265 -1.18,-0.039 -1.125,0.164 -1.027,0.332 -0.898,0.453 -0.754,0.527 -0.582,0.563 -0.407,0.55 -0.218,0.512 -0.028,0.434 0.157,0.34 0.332,0.226 0.496,0.098 0.629,-0.043 0.738,-0.192 0.805,-0.355 0.824,-0.52 0.793,-0.687 0.715,-0.855 0.582,-1.008 0.398,-1.133 0.184,-1.231 -0.067,-1.273 -0.324,-1.262 -0.578,-1.195 -0.805,-1.066 -1,-0.883 -1.144,-0.66 -1.227,-0.415 -1.254,-0.16 -1.226,0.086 -1.153,0.309 -1.039,0.488 -0.894,0.629 -0.742,0.715 -0.575,0.75 -0.406,0.734 -0.238,0.68 -0.078,0.582 0.078,0.457 0.226,0.313 0.356,0.144 0.472,-0.023 0.563,-0.207 0.617,-0.383 0.641,-0.555 0.617,-0.723 0.543,-0.878 0.426,-1.016 0.261,-1.117 0.055,-1.196 -0.176,-1.218 -0.421,-1.192 -0.668,-1.113 -0.891,-0.977 -1.078,-0.789 L 100.59,75.84 99.301,75.531 98,75.484 l -1.258,0.207 -1.16,0.438 -1.02,0.629 -0.859,0.781 -0.683,0.875 -0.504,0.918 -0.332,0.91 -0.176,0.852 -0.035,0.754 0.093,0.617 0.204,0.449 0.292,0.27 0.368,0.074 0.425,-0.133 0.457,-0.328 0.458,-0.52 0.433,-0.695 0.359,-0.852 0.254,-0.98 0.11,-1.078 -0.078,-1.133 -0.289,-1.148 -0.516,-1.11 -0.738,-1.015 -0.953,-0.871 -1.125,-0.68 -1.258,-0.449 -1.321,-0.192 -1.328,0.071 -1.269,0.328 -1.153,0.562 -0.992,0.754 -0.804,0.906 -0.602,1.008 -0.402,1.051 -0.211,1.043 -0.051,0.988 0.09,0.895 0.199,0.761 0.277,0.598 0.332,0.41 0.36,0.211 h 0.375 l 0.363,-0.211 0.328,-0.41 0.278,-0.598 0.199,-0.761 0.09,-0.895 -0.047,-0.988 -0.215,-1.043 -0.403,-1.051 -0.601,-1.008 -0.805,-0.906 -0.992,-0.754 -1.152,-0.562 -1.27,-0.328 -1.324,-0.071 -1.324,0.192 -1.254,0.449 -1.129,0.68 -0.949,0.871 -0.742,1.015 -0.516,1.11 -0.289,1.148 -0.074,1.133 0.105,1.078 0.254,0.98 0.363,0.852 0.43,0.695 0.461,0.52 0.453,0.328 0.426,0.133 0.371,-0.074 0.293,-0.27 0.199,-0.449 0.094,-0.617 -0.031,-0.754 -0.176,-0.852 -0.336,-0.91 -0.504,-0.918 -0.68,-0.875 -0.859,-0.781 -1.024,-0.629 -1.16,-0.438 -1.258,-0.207 -1.3,0.047 -1.289,0.309 -1.211,0.562 -1.078,0.789 -0.887,0.977 -0.668,1.113 -0.426,1.192 -0.176,1.218 0.055,1.196 0.262,1.117 0.426,1.016 0.542,0.878 0.618,0.723 0.64,0.555 0.621,0.383 0.563,0.207 0.469,0.023 0.359,-0.144 0.223,-0.313 0.078,-0.457 -0.074,-0.582 -0.243,-0.68 -0.406,-0.734 -0.574,-0.75 -0.738,-0.715 -0.899,-0.629 -1.039,-0.488 -1.148,-0.309 -1.227,-0.086 -1.254,0.16 -1.23,0.415 -1.141,0.66 -1,0.883 -0.808,1.066 -0.579,1.195 -0.324,1.262 -0.062,1.273 0.179,1.231 0.403,1.133 0.578,1.008 0.715,0.855 0.797,0.687 0.824,0.52 0.801,0.355 0.738,0.192 0.633,0.043 0.492,-0.098 0.332,-0.226 0.156,-0.34 -0.027,-0.434 -0.219,-0.512 -0.406,-0.55 -0.582,-0.563 -0.75,-0.527 -0.903,-0.453 -1.027,-0.332 -1.121,-0.164 -1.18,0.039 -1.191,0.265 -1.149,0.508 -1.05,0.742 -0.903,0.957 -0.707,1.129 -0.468,1.254 -0.215,1.313 0.051,1.308 0.304,1.25 0.528,1.133"
       style="fill:none;stroke:#000000;stroke-width:0.9216;stroke-linecap:square;stroke-linejoin:miter;stroke-miterlimit:3.25;stroke-dasharray:none;stroke-opacity:1"
       transform="scale(1.3333333)" />
    <path
       id="path12"
       d="m 9.7631039,-10.581404 c 0.3164061,0.234375 0.5859371,0.5976563 0.8437501,1.0312501 l 0.316406,-1.3828121 h 1.710938 L 10.501385,-0.88999769 C 10.196698,0.50453356 9.7631039,1.6295336 9.1654476,2.4264086 c -1.1015625,1.5 -2.7070312,2.2617187 -4.8398437,2.2617187 -1.1953125,0 -2.1328125,-0.2695312 -2.8242188,-0.796875 C 0.79826012,3.3639086 0.50529137,2.5084398 0.65763512,1.3717211 H 2.5560726 c -0.023437,0.5039062 0.082031,0.890625 0.2929688,1.1601562 0.3164062,0.3984375 0.9492187,0.609375 1.8398437,0.609375 1.4414063,0 2.4726563,-0.5039062 3.1289063,-1.4882812 0.375,-0.5976563 0.7148437,-1.6523437875 1.0078125,-3.1757813 -0.4804688,0.55078126 -1.0078125,0.97265626 -1.5820313,1.25390626 -0.5859375,0.2695312525 -1.3125,0.421875 -2.1796875,0.421875 -1.171875,0 -2.1445312,-0.421875 -2.8710937,-1.27734376 -0.7148438,-0.8554687 -0.8554688,-2.25 -0.4335938,-4.21875 0.3984375,-1.8398437 1.1367188,-3.2929687 2.2734375,-4.3242187 1.125,-1.0429686 2.3203125,-1.5703126 3.5976563,-1.5703126 0.8554687,0 1.5820312,0.210938 2.1328125,0.65625 z m -2.1328125,0.9960938 c -1.3125,0 -2.3320313,0.609375 -3.0703125,1.8398438 -0.3984375,0.65625 -0.7148438,1.5 -0.9257813,2.5546875 -0.2695312,1.2421875 -0.2109375,2.1914062 0.1523438,2.8476562 0.3515625,0.65625 0.9609375,0.9726563 1.828125,0.9726563 1.3359375,0 2.390625,-0.5976563 3.1875,-1.7929688 0.4453125,-0.703125 0.7617187,-1.4765625 0.9609375,-2.390625 0.2929691,-1.3710937 0.2226562,-2.390625 -0.1992188,-3.0351562 -0.421875,-0.65625 -1.078125,-0.9960938 -1.9335937,-0.9960938 z m 0,0"
       style="fill:#000000;fill-opacity:1;fill-rule:nonzero;stroke:none"
       aria-label="g"
       transform="matrix(1.3333333,0,0,1.3333333,103.33409,81.432757)"
       clip-path="url(#clipPath13)" />
    <path
       id="path14"
       d="m 53.957,100.539 c 0,0.977 -0.391,1.914 -1.082,2.606 -0.691,0.691 -1.629,1.078 -2.605,1.078 -0.977,0 -1.915,-0.387 -2.606,-1.078 -0.691,-0.692 -1.082,-1.629 -1.082,-2.606 0,-0.98 0.391,-1.918 1.082,-2.609 0.691,-0.692 1.629,-1.078 2.606,-1.078 0.976,0 1.914,0.386 2.605,1.078 0.691,0.691 1.082,1.629 1.082,2.609 z"
       style="fill:#000000;fill-opacity:1;fill-rule:evenodd;stroke:none"
       transform="scale(1.3333333)" />
    <path
       id="path15"
       d="m 120.98,100.539 c 0,0.977 -0.386,1.914 -1.078,2.606 -0.691,0.691 -1.629,1.078 -2.609,1.078 -0.977,0 -1.914,-0.387 -2.605,-1.078 -0.692,-0.692 -1.079,-1.629 -1.079,-2.606 0,-0.98 0.387,-1.918 1.079,-2.609 0.691,-0.692 1.628,-1.078 2.605,-1.078 0.98,0 1.918,0.386 2.609,1.078 0.692,0.691 1.078,1.629 1.078,2.609 z"
       style="fill:#000000;fill-opacity:1;fill-rule:evenodd;stroke:none"
       transform="scale(1.3333333)" />
    <path
       id="path16"
       d="m 1.5931815,-8.3196379 v -1.125 c 1.078125,-0.1054687 1.8164063,-0.28125 2.2382813,-0.515625 0.421875,-0.2343751 0.7382812,-0.8320311 0.9375,-1.7343751 H 5.9525565 V 6.74625e-4 H 4.3705253 V -8.3196379 Z m 0,0"
       style="fill:#000000;fill-opacity:1;fill-rule:nonzero;stroke:none"
       aria-label="1"
       transform="matrix(1.3333333,0,0,1.3333333,105.40701,246.24129)"
       clip-path="url(#clipPath17)" />
  </g>
</svg>
