<?xml version="1.0" encoding="UTF-8" standalone="no"?>
<!-- Created with Inkscape (http://www.inkscape.org/) -->

<svg
   version="1.1"
   id="svg2"
   width="492"
   height="124"
   viewBox="0 0 492 124"
   sodipodi:docname="0yw7gz095v7pi.pdf"
   xmlns:inkscape="http://www.inkscape.org/namespaces/inkscape"
   xmlns:sodipodi="http://sodipodi.sourceforge.net/DTD/sodipodi-0.dtd"
   xmlns="http://www.w3.org/2000/svg"
   xmlns:svg="http://www.w3.org/2000/svg">
  <defs
     id="defs6">
    <clipPath
       clipPathUnits="userSpaceOnUse"
       id="clipPath26">
      <path
         d="m 59,38 h 7.961 v 9 H 59 Z"
         id="path24" />
    </clipPath>
    <clipPath
       clipPathUnits="userSpaceOnUse"
       id="clipPath44">
      <path
         d="m 39,86 h 5 v 6.16 h -5 z"
         id="path42" />
    </clipPath>
  </defs>
  <sodipodi:namedview
     id="namedview4"
     pagecolor="#ffffff"
     bordercolor="#999999"
     borderopacity="1"
     inkscape:showpageshadow="0"
     inkscape:pageopacity="0"
     inkscape:pagecheckerboard="0"
     inkscape:deskcolor="#d1d1d1" />
  <g
     id="g8"
     inkscape:groupmode="layer"
     inkscape:label="0yw7gz095v7pi"
     transform="matrix(1.3333333,0,0,1.3333333,0,3.1e-6)">
    <g
       id="g10">
      <path
         d="m 41.891,50.27 -0.516,0.425 -0.59,0.328 -0.64,0.211 -0.668,0.082 -0.672,-0.05 -0.653,-0.176 -0.605,-0.297 -0.539,-0.402 -0.449,-0.485 -0.356,-0.543 -0.246,-0.57 -0.133,-0.57 -0.027,-0.543 0.07,-0.481 0.156,-0.398 0.223,-0.293 0.266,-0.172 0.289,-0.043 0.285,0.086 0.254,0.219 0.203,0.328 0.125,0.429 0.039,0.508 -0.062,0.551 -0.172,0.578 -0.285,0.563 -0.387,0.527 -0.485,0.457 -0.562,0.371 -0.621,0.254 -0.664,0.137 -0.672,0.004 -0.664,-0.129 -0.625,-0.254 -0.567,-0.363 -0.488,-0.454 -0.391,-0.523 -0.289,-0.562 -0.179,-0.575 -0.067,-0.558 0.032,-0.508 0.125,-0.434 0.199,-0.336 0.254,-0.218 0.281,-0.098 0.289,0.039 0.27,0.168 0.226,0.285 0.156,0.395 0.079,0.476 -0.024,0.539 -0.129,0.571 -0.242,0.574 -0.348,0.543 -0.449,0.488 -0.531,0.406 -0.602,0.305 -0.652,0.18 -0.672,0.054 -0.668,-0.074 -0.644,-0.207 -0.59,-0.32 -0.52,-0.422 -0.433,-0.5 -0.329,-0.551 -0.222,-0.574 -0.11,-0.566 -0.007,-0.532 0.089,-0.465 0.176,-0.375 0.231,-0.269 0.277,-0.145 0.289,-0.015 0.277,0.117 0.247,0.242 0.187,0.356 0.109,0.445 0.02,0.519 -0.09,0.563 -0.195,0.574 -0.309,0.559 -0.41,0.515 -0.5,0.438 -0.578,0.348 -0.633,0.23 -0.668,0.105 -0.672,-0.027 -0.656,-0.152 -0.617,-0.278 -0.551,-0.386 -0.465,-0.473 -0.371,-0.535 -0.265,-0.566 -0.153,-0.575 -0.047,-0.547 0.055,-0.496 0.141,-0.414 0.214,-0.312 0.262,-0.192 0.285,-0.066 0.285,0.066 0.262,0.192 0.215,0.312 0.141,0.414 0.054,0.496 -0.047,0.547 -0.152,0.575 -0.265,0.566 -0.368,0.535 -0.468,0.473 -0.551,0.386 -0.613,0.278 -0.657,0.152 -0.676,0.027 -0.667,-0.105 -0.633,-0.23 -0.578,-0.348 -0.5,-0.438 -0.411,-0.515 -0.308,-0.559 -0.196,-0.574 -0.085,-0.563 0.015,-0.519 0.11,-0.445 0.187,-0.356 0.246,-0.242 0.277,-0.117 0.29,0.015 0.277,0.145 0.234,0.269 0.172,0.375 0.09,0.465 -0.004,0.532 -0.113,0.566 -0.223,0.574 -0.328,0.551 -0.43,0.5 -0.523,0.422 -0.59,0.32 -0.644,0.207 -0.668,0.074 -0.672,-0.054 -0.653,-0.18 -0.601,-0.305 -0.531,-0.406 -0.45,-0.488 L 9.848,49.34 9.605,48.766 9.477,48.195 9.453,47.656 9.531,47.18 9.691,46.785 9.914,46.5 l 0.27,-0.168 0.289,-0.039 0.281,0.098 0.254,0.218 0.199,0.336 0.125,0.434 0.031,0.508 -0.066,0.558 -0.18,0.575 -0.289,0.562 -0.39,0.523 L 9.949,50.559 9.383,50.922 8.758,51.176 8.094,51.305 7.422,51.301 6.762,51.164 6.137,50.91 5.574,50.539 5.09,50.082 4.703,49.555 4.418,48.992 4.246,48.414 4.184,47.863 4.223,47.355 4.352,46.926 4.551,46.598 4.805,46.379 5.09,46.293 l 0.289,0.043 0.266,0.172 0.222,0.293 0.156,0.398 0.071,0.481 -0.028,0.543 -0.132,0.57 -0.246,0.57 L 5.332,49.906 4.883,50.391 4.344,50.793 3.738,51.09 3.09,51.266 2.414,51.316 1.746,51.234 1.105,51.023 0.516,50.695 0,50.27"
         style="fill:none;stroke:#000000;stroke-width:0.4608;stroke-linecap:square;stroke-linejoin:miter;stroke-miterlimit:3.25;stroke-dasharray:none;stroke-opacity:1"
         id="path12" />
      <text
         xml:space="preserve"
         transform="translate(17.80483,64.681745)"
         style="font-variant:normal;font-size:10.56px;font-family:CairoFont-0;-inkscape-font-specification:CairoFont-0-0;writing-mode:lr-tb;fill:#000000;fill-opacity:1;fill-rule:nonzero;stroke:none"
         id="text16"><tspan
           x="0"
           y="0"
           id="tspan14">g</tspan></text>
      <path
         d="m 41.891,50.27 0.515,-0.426 0.59,-0.328 0.641,-0.211 0.668,-0.082 0.675,0.047 0.649,0.179 0.605,0.297 0.539,0.402 0.45,0.485 0.355,0.539 0.246,0.574 0.133,0.57 0.027,0.539 -0.07,0.485 -0.156,0.398 -0.223,0.293 -0.265,0.172 -0.29,0.043 -0.281,-0.09 -0.258,-0.215 -0.199,-0.332 -0.129,-0.425 -0.039,-0.508 0.063,-0.555 0.172,-0.574 0.285,-0.567 0.386,-0.523 0.485,-0.461 0.562,-0.367 0.625,-0.258 0.66,-0.133 0.672,-0.004 0.664,0.129 0.625,0.25 0.567,0.364 0.488,0.457 0.391,0.523 0.289,0.563 0.18,0.574 0.07,0.558 -0.035,0.508 -0.125,0.434 -0.2,0.336 -0.253,0.218 -0.282,0.094 -0.289,-0.035 -0.269,-0.168 -0.223,-0.285 -0.16,-0.395 -0.078,-0.48 0.023,-0.535 0.133,-0.571 0.238,-0.574 0.348,-0.543 0.449,-0.488 0.531,-0.406 0.606,-0.305 0.648,-0.184 0.672,-0.054 0.668,0.078 0.645,0.203 0.59,0.324 0.523,0.422 0.43,0.5 0.328,0.551 0.222,0.574 0.114,0.567 0.004,0.531 -0.09,0.465 -0.172,0.375 -0.234,0.269 -0.278,0.145 -0.289,0.011 -0.277,-0.113 -0.246,-0.242 -0.188,-0.356 -0.109,-0.449 -0.016,-0.515 0.086,-0.563 0.195,-0.574 0.309,-0.559 0.41,-0.515 0.5,-0.442 0.578,-0.344 0.637,-0.23 0.664,-0.105 0.676,0.023 0.656,0.156 0.613,0.278 0.551,0.386 0.469,0.473 0.367,0.531 0.266,0.571 0.156,0.574 0.043,0.547 -0.055,0.496 -0.14,0.414 -0.215,0.308 -0.262,0.196 -0.285,0.066 -0.285,-0.066 -0.262,-0.196 -0.215,-0.308 -0.14,-0.414 -0.055,-0.496 0.047,-0.547 0.152,-0.574 0.266,-0.571 0.371,-0.531 0.465,-0.473 0.55,-0.386 0.618,-0.278 0.656,-0.156 0.672,-0.023 0.668,0.105 0.633,0.23 0.578,0.344 0.5,0.442 0.41,0.515 0.308,0.559 0.196,0.574 0.09,0.563 -0.02,0.515 -0.109,0.449 -0.188,0.356 -0.246,0.242 -0.277,0.113 -0.289,-0.011 -0.274,-0.145 -0.234,-0.269 -0.172,-0.375 -0.094,-0.465 0.008,-0.531 0.109,-0.567 0.223,-0.574 0.328,-0.551 0.434,-0.5 0.519,-0.422 0.59,-0.324 0.645,-0.203 0.668,-0.078 0.672,0.054 0.652,0.184 0.601,0.305 0.536,0.406 0.445,0.488 0.348,0.543 0.242,0.574 0.129,0.571 0.023,0.535 -0.078,0.48 -0.156,0.395 -0.227,0.285 -0.269,0.168 -0.289,0.035 -0.282,-0.094 -0.254,-0.218 -0.199,-0.336 -0.125,-0.434 -0.031,-0.508 0.066,-0.558 0.18,-0.574 0.289,-0.563 0.391,-0.523 0.488,-0.457 0.566,-0.364 0.625,-0.25 0.665,-0.129 0.671,0.004 0.664,0.133 0.622,0.258 0.562,0.367 0.484,0.461 0.387,0.523 0.285,0.567 0.172,0.574 0.063,0.555 -0.036,0.508 -0.128,0.425 -0.204,0.332 -0.253,0.215 -0.286,0.09 -0.289,-0.043 -0.265,-0.172 -0.223,-0.293 -0.156,-0.398 -0.07,-0.485 0.027,-0.539 0.137,-0.57 0.242,-0.574 0.355,-0.539 0.449,-0.485 0.54,-0.402 0.605,-0.297 0.652,-0.179 0.672,-0.047 0.668,0.082 0.641,0.211 0.59,0.328 0.515,0.426"
         style="fill:none;stroke:#000000;stroke-width:0.4608;stroke-linecap:square;stroke-linejoin:miter;stroke-miterlimit:3.25;stroke-dasharray:none;stroke-opacity:1"
         id="path18" />
    </g>
    <g
       id="g20">
      <g
         id="g22"
         clip-path="url(#clipPath26)">
        <text
           xml:space="preserve"
           transform="translate(59.695739,43.840812)"
           style="font-variant:normal;font-size:10.56px;font-family:CairoFont-0;-inkscape-font-specification:CairoFont-0-0;writing-mode:lr-tb;fill:#000000;fill-opacity:1;fill-rule:nonzero;stroke:none"
           id="text30"><tspan
             x="0"
             y="0"
             id="tspan28">g</tspan></text>
      </g>
    </g>
    <g
       id="g32">
      <path
         d="m 39.797,52.363 4.187,-4.187"
         style="fill:none;stroke:#000000;stroke-width:1.3824;stroke-linecap:square;stroke-linejoin:miter;stroke-miterlimit:3.25;stroke-dasharray:none;stroke-opacity:1"
         id="path34" />
      <path
         d="m 39.797,48.176 4.187,4.187"
         style="fill:none;stroke:#000000;stroke-width:1.3824;stroke-linecap:square;stroke-linejoin:miter;stroke-miterlimit:3.25;stroke-dasharray:none;stroke-opacity:1"
         id="path36" />
    </g>
    <g
       id="g38">
      <g
         id="g40"
         clip-path="url(#clipPath44)">
        <text
           xml:space="preserve"
           transform="translate(39.672159,92.45767)"
           style="font-variant:normal;font-size:8.4px;font-family:CairoFont-1;-inkscape-font-specification:CairoFont-1-0;writing-mode:lr-tb;fill:#000000;fill-opacity:1;fill-rule:nonzero;stroke:none"
           id="text48"><tspan
             x="0"
             y="0"
             id="tspan46">5</tspan></text>
      </g>
    </g>
  </g>
</svg>
