<?xml version="1.0" encoding="UTF-8" standalone="no"?>
<!-- Created with Inkscape (http://www.inkscape.org/) -->

<svg
   version="1.1"
   id="svg2"
   width="492"
   height="246.66667"
   viewBox="0 0 492 246.66667"
   sodipodi:docname="13sjrsf5ld9u9.pdf"
   xmlns:inkscape="http://www.inkscape.org/namespaces/inkscape"
   xmlns:sodipodi="http://sodipodi.sourceforge.net/DTD/sodipodi-0.dtd"
   xmlns="http://www.w3.org/2000/svg"
   xmlns:svg="http://www.w3.org/2000/svg">
  <defs
     id="defs6">
    <clipPath
       clipPathUnits="userSpaceOnUse"
       id="clipPath68">
      <path
         d="m 80,172 h 5 v 12.32 h -5 z"
         id="path66" />
    </clipPath>
    <clipPath
       clipPathUnits="userSpaceOnUse"
       id="clipPath130">
      <path
         d="m 263,172 h 10 v 12.32 h -10 z"
         id="path128" />
    </clipPath>
  </defs>
  <sodipodi:namedview
     id="namedview4"
     pagecolor="#ffffff"
     bordercolor="#999999"
     borderopacity="1"
     inkscape:showpageshadow="0"
     inkscape:pageopacity="0"
     inkscape:pagecheckerboard="0"
     inkscape:deskcolor="#d1d1d1" />
  <g
     id="g8"
     inkscape:groupmode="layer"
     inkscape:label="13sjrsf5ld9u9"
     transform="matrix(1.3333333,0,0,1.3333333,0,9.5e-6)">
    <g
       id="g10">
      <path
         d="M 0,100.539 H 54.457"
         style="fill:none;stroke:#000000;stroke-width:0.9216;stroke-linecap:butt;stroke-linejoin:miter;stroke-miterlimit:3.25;stroke-dasharray:0.9216, 5.5296;stroke-dashoffset:0;stroke-opacity:1"
         id="path12" />
      <path
         d="m 32.258,100.539 -10.055,3.352 v -6.703 z"
         style="fill:#000000;fill-opacity:1;fill-rule:evenodd;stroke:none"
         id="path14" />
      <text
         xml:space="preserve"
         transform="translate(13.229091,128.41036)"
         style="font-variant:normal;font-size:21.12px;font-family:CairoFont-0;-inkscape-font-specification:CairoFont-0-0;writing-mode:lr-tb;fill:#000000;fill-opacity:1;fill-rule:nonzero;stroke:none"
         id="text18"><tspan
           x="0 11.74272"
           y="0"
           sodipodi:role="line"
           id="tspan16">uG</tspan></text>
      <path
         d="m 108.918,67.027 0.906,-1.015 1.09,-0.824 1.227,-0.594 1.324,-0.336 1.363,-0.055 1.348,0.219 1.281,0.48 1.156,0.711 0.996,0.903 0.793,1.039 0.575,1.113 0.339,1.125 0.106,1.07 -0.11,0.953 -0.304,0.782 -0.457,0.562 -0.563,0.309 -0.625,0.035 -0.621,-0.242 -0.57,-0.512 -0.461,-0.754 -0.313,-0.953 -0.121,-1.109 0.094,-1.204 0.328,-1.234 0.559,-1.199 0.785,-1.102 0.984,-0.941 1.153,-0.734 1.273,-0.493 1.348,-0.222 1.363,0.054 1.328,0.329 1.235,0.578 1.097,0.796 0.918,0.961 0.707,1.079 0.477,1.125 0.246,1.113 0.016,1.031 -0.196,0.887 -0.367,0.699 -0.508,0.461 -0.594,0.199 -0.628,-0.078 -0.61,-0.351 -0.531,-0.614 -0.406,-0.84 -0.239,-1.027 -0.039,-1.152 0.188,-1.223 0.426,-1.23 0.652,-1.164 0.867,-1.043 1.059,-0.864 1.207,-0.64 1.308,-0.387 1.36,-0.109 1.355,0.167 1.297,0.434 1.184,0.672 1.031,0.867 0.836,1.02 0.613,1.101 0.383,1.129 0.152,1.086 -0.074,0.981 -0.266,0.816 -0.433,0.609 -0.547,0.356 -0.613,0.09 -0.629,-0.192 -0.582,-0.461 -0.489,-0.711 -0.343,-0.918 -0.16,-1.086 0.054,-1.191 0.282,-1.23 0.515,-1.211 0.746,-1.125 0.949,-0.977 1.122,-0.777 1.253,-0.539 1.336,-0.278 1.368,0.004 1.335,0.278 1.258,0.535 1.125,0.758 0.953,0.933 0.75,1.063 0.524,1.121 0.289,1.117 0.059,1.051 -0.157,0.922 -0.34,0.738 -0.484,0.508 -0.582,0.25 -0.625,-0.024 -0.617,-0.301 -0.551,-0.566 -0.434,-0.801 -0.273,-0.992 -0.078,-1.137 0.144,-1.214 0.379,-1.231 0.61,-1.184 0.832,-1.07 1.023,-0.902 1.184,-0.688 1.293,-0.433 1.355,-0.164 1.36,0.117 1.312,0.383 1.207,0.629 1.063,0.835 0.875,0.997 0.656,1.089 0.43,1.129 0.195,1.102 -0.031,1.004 -0.235,0.851 -0.406,0.653 -0.527,0.406 -0.606,0.141 -0.629,-0.141 -0.597,-0.41 -0.508,-0.664 -0.375,-0.883 -0.199,-1.059 0.011,-1.175 0.239,-1.231 0.472,-1.219 0.703,-1.144 0.911,-1.008 1.093,-0.82 1.235,-0.586 1.324,-0.328 1.363,-0.051 1.348,0.226 1.277,0.489 1.152,0.718"
         style="fill:none;stroke:#000000;stroke-width:0.9216;stroke-linecap:square;stroke-linejoin:miter;stroke-miterlimit:3.25;stroke-dasharray:none;stroke-opacity:1"
         id="path20" />
      <text
         xml:space="preserve"
         transform="translate(130.12223,50.313449)"
         style="font-variant:normal;font-size:21.12px;font-family:CairoFont-1;-inkscape-font-specification:CairoFont-1-0;writing-mode:lr-tb;fill:#000000;fill-opacity:1;fill-rule:nonzero;stroke:none"
         id="text24"><tspan
           x="0"
           y="0"
           id="tspan22">g</tspan></text>
      <path
         d="m 167.562,142.43 -58.644,-8.379"
         style="fill:none;stroke:#000000;stroke-width:0.9216;stroke-linecap:butt;stroke-linejoin:miter;stroke-miterlimit:3.25;stroke-dasharray:0.9216, 5.5296;stroke-dashoffset:0;stroke-opacity:1"
         id="path26" />
      <path
         d="m 143.215,138.949 -9.477,-4.738 -0.949,6.637 z"
         style="fill:#000000;fill-opacity:1;fill-rule:evenodd;stroke:none"
         id="path28" />
      <text
         xml:space="preserve"
         transform="translate(122.40348,165.98166)"
         style="font-variant:normal;font-size:21.12px;font-family:CairoFont-0;-inkscape-font-specification:CairoFont-0-0;writing-mode:lr-tb;fill:#000000;fill-opacity:1;fill-rule:nonzero;stroke:none"
         id="text32"><tspan
           x="0 11.74272"
           y="0"
           sodipodi:role="line"
           id="tspan30">uG</tspan></text>
      <path
         d="M 54.457,100.539 108.918,67.027"
         style="fill:none;stroke:#000000;stroke-width:0.9216;stroke-linecap:butt;stroke-linejoin:miter;stroke-miterlimit:3.25;stroke-dasharray:0.9216, 5.5296;stroke-dashoffset:0;stroke-opacity:1"
         id="path34" />
      <path
         d="M 85.969,81.148 79.164,89.27 75.648,83.562 Z"
         style="fill:#000000;fill-opacity:1;fill-rule:evenodd;stroke:none"
         id="path36" />
      <text
         xml:space="preserve"
         transform="translate(50.190223,70.197784)"
         style="font-variant:normal;font-size:21.12px;font-family:CairoFont-0;-inkscape-font-specification:CairoFont-0-0;writing-mode:lr-tb;fill:#000000;fill-opacity:1;fill-rule:nonzero;stroke:none"
         id="text40"><tspan
           x="0 11.74272"
           y="0"
           sodipodi:role="line"
           id="tspan38">uG</tspan></text>
      <path
         d="m 108.918,134.051 -1.273,0.176 -1.293,-0.047 -1.27,-0.274 -1.195,-0.504 -1.082,-0.714 -0.93,-0.903 -0.754,-1.055 -0.555,-1.168 -0.339,-1.234 -0.129,-1.25 0.07,-1.215 0.258,-1.133 0.414,-1.003 0.535,-0.84 0.617,-0.641 0.653,-0.422 0.64,-0.195 0.582,0.035 0.485,0.25 0.347,0.449 0.176,0.617 -0.02,0.739 -0.226,0.824 -0.438,0.855 -0.648,0.84 -0.84,0.774 -1.004,0.656 -1.137,0.504 -1.234,0.316 -1.285,0.106 -1.289,-0.121 -1.25,-0.352 -1.16,-0.578 -1.039,-0.777 -0.875,-0.957 -0.688,-1.098 -0.484,-1.195 -0.27,-1.243 -0.062,-1.246 0.136,-1.191 0.313,-1.098 0.457,-0.953 0.566,-0.777 0.633,-0.57 0.657,-0.348 0.624,-0.117 0.555,0.105 0.445,0.32 0.293,0.508 0.114,0.66 -0.086,0.774 -0.297,0.84 -0.512,0.855 -0.711,0.824 -0.894,0.739 -1.055,0.613 -1.176,0.445 -1.254,0.25 -1.293,0.028 -1.281,-0.196 -1.222,-0.429 -1.126,-0.645 -0.988,-0.844 -0.816,-1.004 -0.621,-1.136 -0.414,-1.215 -0.203,-1.25 0.007,-1.235 0.2,-1.164 0.363,-1.054 0.496,-0.899 0.594,-0.711 0.644,-0.5 0.653,-0.273 0.609,-0.039 0.519,0.18 0.399,0.382 0.238,0.563 0.047,0.703 -0.152,0.801 -0.371,0.851 -0.578,0.852 -0.774,0.797 -0.953,0.703 -1.098,0.562 -1.207,0.383 -1.269,0.18 -1.293,-0.047 -1.27,-0.273 -1.195,-0.5 -1.082,-0.715 -0.934,-0.903 -0.754,-1.05 -0.554,-1.168 -0.344,-1.235 -0.133,-1.25 0.07,-1.215 0.258,-1.132 0.414,-1.008 0.532,-0.84 0.617,-0.645 0.652,-0.425 0.641,-0.196 0.586,0.035 0.484,0.25 0.348,0.446 0.175,0.613 -0.015,0.742 -0.227,0.821 -0.437,0.855 -0.645,0.84 -0.836,0.773 -1.004,0.66 -1.136,0.504 -1.235,0.321 -1.285,0.105 -1.289,-0.121 -1.25,-0.348 -1.16,-0.574 -1.039,-0.781 -0.879,-0.953 -0.688,-1.098 -0.488,-1.191 -0.269,-1.246 -0.067,-1.243 0.137,-1.195 0.312,-1.098 0.457,-0.953 0.567,-0.777 0.633,-0.574 0.652,-0.352 0.629,-0.121 0.555,0.11 0.445,0.316 0.293,0.508 0.113,0.66 -0.082,0.769 -0.297,0.84 -0.508,0.856 -0.707,0.824 -0.898,0.738 -1.051,0.614 -1.172,0.449 -1.257,0.25 -1.289,0.031 -1.282,-0.195 -1.226,-0.426 -1.125,-0.645 -0.989,-0.839 -0.816,-1.008 -0.625,-1.133 -0.418,-1.215"
         style="fill:none;stroke:#000000;stroke-width:0.9216;stroke-linecap:square;stroke-linejoin:miter;stroke-miterlimit:3.25;stroke-dasharray:none;stroke-opacity:1"
         id="path42" />
      <text
         xml:space="preserve"
         transform="translate(65.627723,146.09733)"
         style="font-variant:normal;font-size:21.12px;font-family:CairoFont-1;-inkscape-font-specification:CairoFont-1-0;writing-mode:lr-tb;fill:#000000;fill-opacity:1;fill-rule:nonzero;stroke:none"
         id="text46"><tspan
           x="0"
           y="0"
           id="tspan44">g</tspan></text>
      <path
         d="m 108.918,67.027 v 67.024"
         style="fill:none;stroke:#000000;stroke-width:0.9216;stroke-linecap:butt;stroke-linejoin:miter;stroke-miterlimit:3.25;stroke-dasharray:0.9216, 5.5296;stroke-dashoffset:0;stroke-opacity:1"
         id="path48" />
      <path
         d="m 108.918,105.566 -3.352,-10.054 h 6.704 z"
         style="fill:#000000;fill-opacity:1;fill-rule:evenodd;stroke:none"
         id="path50" />
      <text
         xml:space="preserve"
         transform="translate(118.54541,108.14756)"
         style="font-variant:normal;font-size:21.12px;font-family:CairoFont-0;-inkscape-font-specification:CairoFont-0-0;writing-mode:lr-tb;fill:#000000;fill-opacity:1;fill-rule:nonzero;stroke:none"
         id="text54"><tspan
           x="0 11.74272"
           y="0"
           sodipodi:role="line"
           id="tspan52">uG</tspan></text>
      <path
         d="m 58.145,100.539 c 0,0.977 -0.387,1.914 -1.079,2.606 -0.691,0.691 -1.628,1.078 -2.609,1.078 -0.977,0 -1.914,-0.387 -2.605,-1.078 -0.692,-0.692 -1.079,-1.629 -1.079,-2.606 0,-0.98 0.387,-1.918 1.079,-2.609 0.691,-0.692 1.628,-1.078 2.605,-1.078 0.981,0 1.918,0.386 2.609,1.078 0.692,0.691 1.079,1.629 1.079,2.609 z"
         style="fill:#000000;fill-opacity:1;fill-rule:evenodd;stroke:none"
         id="path56" />
      <path
         d="m 112.602,67.027 c 0,0.977 -0.387,1.914 -1.079,2.606 -0.691,0.691 -1.628,1.078 -2.605,1.078 -0.98,0 -1.918,-0.387 -2.609,-1.078 -0.692,-0.692 -1.079,-1.629 -1.079,-2.606 0,-0.98 0.387,-1.918 1.079,-2.609 0.691,-0.691 1.629,-1.078 2.609,-1.078 0.977,0 1.914,0.387 2.605,1.078 0.692,0.691 1.079,1.629 1.079,2.609 z"
         style="fill:#000000;fill-opacity:1;fill-rule:evenodd;stroke:none"
         id="path58" />
      <path
         d="m 112.602,134.051 c 0,0.976 -0.387,1.914 -1.079,2.605 -0.691,0.692 -1.628,1.082 -2.605,1.082 -0.98,0 -1.918,-0.39 -2.609,-1.082 -0.692,-0.691 -1.079,-1.629 -1.079,-2.605 0,-0.977 0.387,-1.914 1.079,-2.606 0.691,-0.691 1.629,-1.082 2.609,-1.082 0.977,0 1.914,0.391 2.605,1.082 0.692,0.692 1.079,1.629 1.079,2.606 z"
         style="fill:#000000;fill-opacity:1;fill-rule:evenodd;stroke:none"
         id="path60" />
    </g>
    <g
       id="g62">
      <g
         id="g64"
         clip-path="url(#clipPath68)">
        <text
           xml:space="preserve"
           transform="translate(79.055256,184.68097)"
           style="font-variant:normal;font-size:16.8px;font-family:CairoFont-0;-inkscape-font-specification:CairoFont-0-0;writing-mode:lr-tb;fill:#000000;fill-opacity:1;fill-rule:nonzero;stroke:none"
           id="text72"><tspan
             x="0"
             y="0"
             id="tspan70">1</tspan></text>
      </g>
    </g>
    <g
       id="g74">
      <path
         d="m 184.32,100.539 h 54.457"
         style="fill:none;stroke:#000000;stroke-width:0.9216;stroke-linecap:butt;stroke-linejoin:miter;stroke-miterlimit:3.25;stroke-dasharray:0.9216, 5.5296;stroke-dashoffset:0;stroke-opacity:1"
         id="path76" />
      <path
         d="m 216.574,100.539 -10.051,3.352 v -6.703 z"
         style="fill:#000000;fill-opacity:1;fill-rule:evenodd;stroke:none"
         id="path78" />
      <text
         xml:space="preserve"
         transform="translate(197.54909,128.41036)"
         style="font-variant:normal;font-size:21.12px;font-family:CairoFont-0;-inkscape-font-specification:CairoFont-0-0;writing-mode:lr-tb;fill:#000000;fill-opacity:1;fill-rule:nonzero;stroke:none"
         id="text82"><tspan
           x="0 11.74272"
           y="0"
           sodipodi:role="line"
           id="tspan80">uG</tspan></text>
      <path
         d="m 293.238,67.027 0.907,-1.015 1.085,-0.824 1.231,-0.594 1.324,-0.336 1.363,-0.055 1.348,0.219 1.281,0.48 1.157,0.711 0.996,0.903 0.793,1.039 0.574,1.113 0.34,1.125 0.105,1.07 -0.113,0.953 -0.301,0.782 -0.457,0.562 -0.566,0.309 -0.621,0.035 -0.622,-0.242 -0.57,-0.512 -0.461,-0.754 -0.312,-0.953 -0.121,-1.109 0.093,-1.204 0.329,-1.234 0.558,-1.199 0.785,-1.102 0.985,-0.941 1.152,-0.734 1.273,-0.493 1.348,-0.222 1.363,0.054 1.325,0.329 1.238,0.578 1.098,0.796 0.914,0.961 0.711,1.079 0.476,1.125 0.246,1.113 0.016,1.031 -0.196,0.887 -0.371,0.699 -0.503,0.461 -0.594,0.199 -0.629,-0.078 -0.61,-0.351 -0.531,-0.614 -0.406,-0.84 -0.238,-1.027 -0.039,-1.152 0.187,-1.223 0.426,-1.23 0.652,-1.164 0.867,-1.043 1.059,-0.864 1.207,-0.64 1.309,-0.387 1.359,-0.109 1.355,0.167 1.297,0.434 1.184,0.672 1.031,0.867 0.832,1.02 0.617,1.101 0.383,1.129 0.153,1.086 -0.075,0.981 -0.269,0.816 -0.43,0.609 -0.547,0.356 -0.617,0.09 -0.625,-0.192 -0.582,-0.461 -0.488,-0.711 -0.344,-0.918 -0.16,-1.086 0.051,-1.191 0.285,-1.23 0.515,-1.211 0.747,-1.125 0.949,-0.977 1.121,-0.777 1.254,-0.539 1.336,-0.278 1.367,0.004 1.336,0.278 1.258,0.535 1.125,0.758 0.953,0.933 0.75,1.063 0.523,1.121 0.289,1.117 0.059,1.051 -0.156,0.922 -0.34,0.738 -0.485,0.508 -0.582,0.25 -0.625,-0.024 -0.617,-0.301 -0.551,-0.566 -0.433,-0.801 -0.274,-0.992 -0.078,-1.137 0.145,-1.214 0.379,-1.231 0.609,-1.184 0.832,-1.07 1.024,-0.902 1.183,-0.688 1.293,-0.433 1.352,-0.164 1.363,0.117 1.309,0.383 1.21,0.629 1.063,0.835 0.875,0.997 0.656,1.089 0.43,1.129 0.191,1.102 -0.031,1.004 -0.23,0.851 -0.407,0.653 -0.527,0.406 -0.609,0.141 -0.625,-0.141 -0.598,-0.41 -0.508,-0.664 -0.375,-0.883 -0.199,-1.059 0.012,-1.175 0.238,-1.231 0.473,-1.219 0.703,-1.144 0.91,-1.008 1.094,-0.82 1.234,-0.586 1.324,-0.328 1.363,-0.051 1.348,0.226 1.277,0.489 1.153,0.718"
         style="fill:none;stroke:#000000;stroke-width:0.9216;stroke-linecap:square;stroke-linejoin:miter;stroke-miterlimit:3.25;stroke-dasharray:none;stroke-opacity:1"
         id="path84" />
      <text
         xml:space="preserve"
         transform="translate(314.44223,50.313449)"
         style="font-variant:normal;font-size:21.12px;font-family:CairoFont-1;-inkscape-font-specification:CairoFont-1-0;writing-mode:lr-tb;fill:#000000;fill-opacity:1;fill-rule:nonzero;stroke:none"
         id="text88"><tspan
           x="0"
           y="0"
           id="tspan86">g</tspan></text>
      <path
         d="m 351.883,142.43 -58.645,-8.379"
         style="fill:none;stroke:#000000;stroke-width:0.9216;stroke-linecap:butt;stroke-linejoin:miter;stroke-miterlimit:3.25;stroke-dasharray:0.9216, 5.5296;stroke-dashoffset:0;stroke-opacity:1"
         id="path90" />
      <path
         d="m 327.535,138.949 -9.476,-4.738 -0.95,6.637 z"
         style="fill:#000000;fill-opacity:1;fill-rule:evenodd;stroke:none"
         id="path92" />
      <text
         xml:space="preserve"
         transform="translate(306.72348,165.98166)"
         style="font-variant:normal;font-size:21.12px;font-family:CairoFont-0;-inkscape-font-specification:CairoFont-0-0;writing-mode:lr-tb;fill:#000000;fill-opacity:1;fill-rule:nonzero;stroke:none"
         id="text96"><tspan
           x="0 11.74272"
           y="0"
           sodipodi:role="line"
           id="tspan94">uG</tspan></text>
      <path
         d="m 293.238,67.027 -0.418,1.215 -0.625,1.133 -0.816,1.008 -0.988,0.84 -1.125,0.644 -1.227,0.426 -1.281,0.195 -1.289,-0.031 -1.258,-0.254 -1.172,-0.445 -1.055,-0.613 -0.894,-0.743 -0.711,-0.82 -0.508,-0.855 -0.293,-0.84 -0.086,-0.774 0.117,-0.66 0.293,-0.504 0.446,-0.32 0.554,-0.106 0.629,0.122 0.653,0.351 0.632,0.57 0.567,0.782 0.457,0.953 0.312,1.097 0.133,1.192 -0.062,1.246 -0.274,1.242 -0.484,1.195 -0.692,1.098 -0.875,0.953 -1.039,0.778 -1.164,0.574 -1.246,0.351 -1.289,0.121 -1.285,-0.105 -1.234,-0.32 -1.137,-0.504 -1.004,-0.66 -0.836,-0.774 -0.644,-0.84 -0.442,-0.855 -0.223,-0.824 -0.015,-0.739 0.176,-0.613 0.347,-0.449 0.485,-0.25 0.586,-0.031 0.64,0.195 0.653,0.426 0.613,0.644 0.535,0.84 0.414,1.008 0.254,1.133 0.074,1.215 -0.133,1.25 -0.343,1.234 -0.555,1.164 -0.754,1.055 -0.934,0.902 -1.082,0.711 -1.195,0.504 -1.269,0.273 -1.293,0.043 -1.274,-0.176 -1.203,-0.386 -1.098,-0.559 -0.953,-0.703 -0.777,-0.801 -0.578,-0.847 -0.367,-0.852 -0.153,-0.801 0.047,-0.703 0.238,-0.562 0.395,-0.387 0.523,-0.18 0.61,0.043 0.648,0.274 0.645,0.5 0.593,0.711 0.5,0.898 0.364,1.051 0.199,1.168 0.004,1.23 -0.199,1.25 -0.414,1.219 -0.621,1.133 -0.817,1.008 -0.988,0.843 -1.125,0.645 -1.223,0.426 -1.281,0.199 -1.293,-0.031 -1.254,-0.246 -1.176,-0.446 -1.054,-0.613 -0.895,-0.738 -0.715,-0.825 -0.508,-0.855 -0.297,-0.84 -0.085,-0.773 0.113,-0.66 0.293,-0.508 0.441,-0.321 0.559,-0.109 0.625,0.121 0.652,0.348 0.633,0.57 0.57,0.777 0.457,0.954 0.313,1.093 0.137,1.196 -0.063,1.242 -0.269,1.246 -0.485,1.195 -0.687,1.098 -0.879,0.953 -1.035,0.781 -1.161,0.574 -1.25,0.356 -1.289,0.121 -1.285,-0.105 -1.234,-0.317 -1.137,-0.504 -1.008,-0.66 -0.836,-0.769 -0.648,-0.84 -0.438,-0.856 -0.226,-0.824 -0.02,-0.742 0.176,-0.613 0.344,-0.45 0.484,-0.254 0.586,-0.031 0.641,0.192 0.652,0.425 0.613,0.641 0.539,0.84 0.411,1.004 0.257,1.133 0.075,1.214 -0.129,1.25 -0.344,1.235 -0.551,1.168 -0.754,1.054 -0.933,0.903 -1.078,0.715 -1.2,0.5 -1.265,0.277 -1.293,0.047 -1.274,-0.176"
         style="fill:none;stroke:#000000;stroke-width:0.9216;stroke-linecap:square;stroke-linejoin:miter;stroke-miterlimit:3.25;stroke-dasharray:none;stroke-opacity:1"
         id="path98" />
      <text
         xml:space="preserve"
         transform="translate(246.87403,65.203041)"
         style="font-variant:normal;font-size:21.12px;font-family:CairoFont-1;-inkscape-font-specification:CairoFont-1-0;writing-mode:lr-tb;fill:#000000;fill-opacity:1;fill-rule:nonzero;stroke:none"
         id="text102"><tspan
           x="0"
           y="0"
           id="tspan100">g</tspan></text>
      <path
         d="m 238.777,100.539 54.461,33.512"
         style="fill:none;stroke:#000000;stroke-width:0.9216;stroke-linecap:butt;stroke-linejoin:miter;stroke-miterlimit:3.25;stroke-dasharray:0.9216, 5.5296;stroke-dashoffset:0;stroke-opacity:1"
         id="path104" />
      <path
         d="m 270.289,119.93 -10.32,-2.414 3.515,-5.711 z"
         style="fill:#000000;fill-opacity:1;fill-rule:evenodd;stroke:none"
         id="path106" />
      <text
         xml:space="preserve"
         transform="translate(234.51022,146.09733)"
         style="font-variant:normal;font-size:21.12px;font-family:CairoFont-0;-inkscape-font-specification:CairoFont-0-0;writing-mode:lr-tb;fill:#000000;fill-opacity:1;fill-rule:nonzero;stroke:none"
         id="text110"><tspan
           x="0 11.74272"
           y="0"
           sodipodi:role="line"
           id="tspan108">uG</tspan></text>
      <path
         d="m 293.238,134.051 -0.781,-0.957 -0.621,-1.082 -0.434,-1.172 -0.226,-1.231 -0.012,-1.25 0.203,-1.234 0.41,-1.18 0.602,-1.093 0.766,-0.973 0.894,-0.828 0.988,-0.66 1.035,-0.485 1.043,-0.304 1,-0.125 0.918,0.046 0.793,0.192 0.637,0.316 0.449,0.414 0.246,0.477 0.032,0.496 -0.184,0.488 -0.394,0.434 -0.586,0.348 -0.754,0.23 -0.883,0.09 -0.981,-0.074 -1.035,-0.25 -1.043,-0.434 -1.008,-0.613 -0.925,-0.782 -0.805,-0.933 -0.652,-1.059 -0.469,-1.16 -0.262,-1.223 -0.051,-1.25 0.164,-1.242 0.376,-1.191 0.57,-1.109 0.738,-0.997 0.875,-0.855 0.973,-0.691 1.031,-0.516 1.043,-0.336 1.012,-0.156 0.937,0.015 0.817,0.168 0.668,0.297 0.484,0.399 0.285,0.464 0.067,0.5 -0.145,0.489 -0.359,0.445 -0.551,0.367 -0.727,0.254 -0.863,0.117 -0.965,-0.043 -1.031,-0.222 -1.043,-0.399 -1.016,-0.582 -0.941,-0.75 -0.832,-0.91 -0.68,-1.039 -0.504,-1.145 -0.301,-1.21 -0.089,-1.25 0.125,-1.247 0.339,-1.203 0.54,-1.125 0.707,-1.019 0.855,-0.883 0.957,-0.723 1.027,-0.547 1.043,-0.367 1.02,-0.187 0.953,-0.016 0.84,0.141 0.695,0.277 0.52,0.383 0.32,0.457 0.109,0.496 -0.109,0.492 -0.32,0.457 -0.52,0.383 -0.695,0.277 -0.84,0.145 -0.953,-0.016 -1.02,-0.187 -1.043,-0.367 -1.027,-0.551 -0.957,-0.723 -0.855,-0.883 -0.707,-1.015 -0.54,-1.129 -0.339,-1.203 -0.125,-1.246 0.089,-1.246 0.301,-1.215 0.504,-1.145 0.68,-1.039 0.832,-0.906 0.941,-0.754 1.016,-0.578 1.043,-0.402 1.031,-0.219 0.965,-0.043 0.863,0.113 0.727,0.254 0.551,0.367 0.359,0.445 0.145,0.493 -0.067,0.496 -0.285,0.468 -0.484,0.399 -0.668,0.297 -0.817,0.168 -0.937,0.015 -1.012,-0.156 -1.043,-0.336 -1.031,-0.515 -0.973,-0.696 -0.875,-0.851 -0.738,-0.996 -0.57,-1.114 -0.376,-1.191 -0.164,-1.238 0.051,-1.25 0.262,-1.227 0.469,-1.156 0.652,-1.063 0.805,-0.929 0.925,-0.782 1.008,-0.613 1.043,-0.433 1.035,-0.25 0.981,-0.075 0.883,0.086 0.754,0.231 0.586,0.351 0.394,0.434 0.184,0.484 -0.032,0.5 -0.246,0.473 -0.449,0.414 -0.637,0.32 -0.793,0.192 -0.918,0.043 -1,-0.125 -1.043,-0.301 -1.035,-0.484 -0.988,-0.665 -0.894,-0.828 -0.766,-0.972 -0.602,-1.09 -0.41,-1.18 -0.203,-1.234 0.012,-1.254 0.226,-1.231 0.434,-1.172 0.621,-1.078 0.781,-0.957"
         style="fill:none;stroke:#000000;stroke-width:0.9216;stroke-linecap:square;stroke-linejoin:miter;stroke-miterlimit:3.25;stroke-dasharray:none;stroke-opacity:1"
         id="path112" />
      <text
         xml:space="preserve"
         transform="translate(308.73013,108.14756)"
         style="font-variant:normal;font-size:21.12px;font-family:CairoFont-1;-inkscape-font-specification:CairoFont-1-0;writing-mode:lr-tb;fill:#000000;fill-opacity:1;fill-rule:nonzero;stroke:none"
         id="text116"><tspan
           x="0"
           y="0"
           id="tspan114">g</tspan></text>
      <path
         d="m 242.465,100.539 c 0,0.977 -0.387,1.914 -1.078,2.606 -0.692,0.691 -1.629,1.078 -2.61,1.078 -0.976,0 -1.914,-0.387 -2.605,-1.078 -0.692,-0.692 -1.082,-1.629 -1.082,-2.606 0,-0.98 0.39,-1.918 1.082,-2.609 0.691,-0.692 1.629,-1.078 2.605,-1.078 0.981,0 1.918,0.386 2.61,1.078 0.691,0.691 1.078,1.629 1.078,2.609 z"
         style="fill:#000000;fill-opacity:1;fill-rule:evenodd;stroke:none"
         id="path118" />
      <path
         d="m 296.922,67.027 c 0,0.977 -0.387,1.914 -1.078,2.606 -0.692,0.691 -1.629,1.078 -2.606,1.078 -0.98,0 -1.918,-0.387 -2.609,-1.078 -0.691,-0.692 -1.078,-1.629 -1.078,-2.606 0,-0.98 0.387,-1.918 1.078,-2.609 0.691,-0.691 1.629,-1.078 2.609,-1.078 0.977,0 1.914,0.387 2.606,1.078 0.691,0.691 1.078,1.629 1.078,2.609 z"
         style="fill:#000000;fill-opacity:1;fill-rule:evenodd;stroke:none"
         id="path120" />
      <path
         d="m 296.922,134.051 c 0,0.976 -0.387,1.914 -1.078,2.605 -0.692,0.692 -1.629,1.082 -2.606,1.082 -0.98,0 -1.918,-0.39 -2.609,-1.082 -0.691,-0.691 -1.078,-1.629 -1.078,-2.605 0,-0.977 0.387,-1.914 1.078,-2.606 0.691,-0.691 1.629,-1.082 2.609,-1.082 0.977,0 1.914,0.391 2.606,1.082 0.691,0.692 1.078,1.629 1.078,2.606 z"
         style="fill:#000000;fill-opacity:1;fill-rule:evenodd;stroke:none"
         id="path122" />
    </g>
    <g
       id="g124">
      <g
         id="g126"
         clip-path="url(#clipPath130)">
        <text
           xml:space="preserve"
           transform="translate(263.37526,184.68097)"
           style="font-variant:normal;font-size:16.8px;font-family:CairoFont-0;-inkscape-font-specification:CairoFont-0-0;writing-mode:lr-tb;fill:#000000;fill-opacity:1;fill-rule:nonzero;stroke:none"
           id="text134"><tspan
             x="0"
             y="0"
             id="tspan132">2</tspan></text>
      </g>
    </g>
  </g>
</svg>
