<?xml version="1.0" encoding="UTF-8" standalone="no"?>
<!-- Created with Inkscape (http://www.inkscape.org/) -->

<svg
   version="1.1"
   id="svg2"
   width="492"
   height="246.66667"
   viewBox="0 0 492 246.66667"
   sodipodi:docname="16fxlye0ek1v9.pdf"
   xmlns:inkscape="http://www.inkscape.org/namespaces/inkscape"
   xmlns:sodipodi="http://sodipodi.sourceforge.net/DTD/sodipodi-0.dtd"
   xmlns="http://www.w3.org/2000/svg"
   xmlns:svg="http://www.w3.org/2000/svg">
  <defs
     id="defs6">
    <clipPath
       clipPathUnits="userSpaceOnUse"
       id="clipPath52">
      <path
         d="m 53,146 h 6 v 7.602 h -6 z"
         id="path50" />
    </clipPath>
    <clipPath
       clipPathUnits="userSpaceOnUse"
       id="clipPath68">
      <path
         d="m 142,72 h 9.922 V 84 H 142 Z"
         id="path66" />
    </clipPath>
    <clipPath
       clipPathUnits="userSpaceOnUse"
       id="clipPath110">
      <path
         d="m 176,146 h 6 v 7.602 h -6 z"
         id="path108" />
    </clipPath>
  </defs>
  <sodipodi:namedview
     id="namedview4"
     pagecolor="#ffffff"
     bordercolor="#999999"
     borderopacity="1"
     inkscape:showpageshadow="0"
     inkscape:pageopacity="0"
     inkscape:pagecheckerboard="0"
     inkscape:deskcolor="#d1d1d1" />
  <g
     id="g8"
     inkscape:groupmode="layer"
     inkscape:label="16fxlye0ek1v9"
     transform="matrix(1.3333333,0,0,1.3333333,0,9.5e-6)">
    <g
       id="g10">
      <path
         d="m 58.648,108.918 -0.75,0.402 -0.816,0.274 -0.852,0.129 -0.859,-0.02 -0.848,-0.18 -0.796,-0.32 -0.731,-0.461 -0.637,-0.574 -0.527,-0.668 -0.402,-0.73 -0.274,-0.762 -0.144,-0.758 -0.02,-0.727 0.094,-0.66 0.191,-0.566 0.274,-0.449 0.324,-0.313 0.352,-0.164 0.347,-0.012 0.321,0.141 0.265,0.285 0.184,0.414 0.086,0.52 -0.035,0.601 -0.157,0.649 -0.289,0.668 -0.414,0.652 -0.539,0.609 -0.648,0.528 -0.735,0.422 -0.804,0.297 -0.848,0.156 -0.863,0.004 -0.848,-0.149 -0.809,-0.301 -0.746,-0.437 -0.652,-0.559 -0.547,-0.652 -0.426,-0.719 -0.297,-0.761 -0.168,-0.762 -0.039,-0.735 0.079,-0.671 0.175,-0.586 0.262,-0.469 0.316,-0.34 0.348,-0.187 0.352,-0.039 0.328,0.117 0.273,0.261 0.199,0.395 0.106,0.5 -0.012,0.59 -0.137,0.644 -0.265,0.668 -0.395,0.657 -0.519,0.617 -0.629,0.543 -0.723,0.441 -0.793,0.32 -0.843,0.184 -0.86,0.027 -0.855,-0.125 -0.817,-0.273 -0.758,-0.414 -0.668,-0.539 -0.566,-0.637 -0.449,-0.711 -0.317,-0.758 -0.191,-0.761 -0.059,-0.743 0.055,-0.687 0.164,-0.602 0.246,-0.492 0.309,-0.359 0.344,-0.215 0.355,-0.063 0.332,0.09 0.285,0.239 0.215,0.371 0.121,0.484 0.012,0.574 -0.113,0.637 -0.246,0.668 -0.372,0.66 -0.5,0.625 -0.609,0.559 -0.711,0.461 -0.785,0.343 -0.836,0.207 -0.859,0.055 -0.856,-0.098 -0.828,-0.25 -0.766,-0.39 -0.687,-0.52 -0.586,-0.621 -0.465,-0.703 -0.344,-0.75 -0.211,-0.766 -0.082,-0.746 0.04,-0.699 0.144,-0.617 0.234,-0.512 0.301,-0.383 0.34,-0.242 0.356,-0.09 0.335,0.063 0.297,0.215 0.227,0.351 0.141,0.465 0.027,0.563 -0.09,0.629 -0.223,0.664 -0.351,0.664 -0.477,0.632 -0.593,0.575 -0.692,0.48 -0.773,0.363 -0.828,0.231 -0.86,0.082 -0.859,-0.074 -0.832,-0.223 -0.782,-0.367 -0.703,-0.5 -0.601,-0.606 -0.488,-0.691 -0.364,-0.742 -0.234,-0.766 -0.106,-0.754 0.02,-0.707 0.129,-0.633 0.219,-0.535 0.293,-0.406 0.335,-0.266 0.352,-0.117 0.344,0.039 0.304,0.188 0.243,0.328 0.156,0.449 0.047,0.547 -0.07,0.621 -0.2,0.66 -0.328,0.664 -0.457,0.645 -0.574,0.582 -0.68,0.5 -0.758,0.383 -0.824,0.254 -0.851,0.109 -0.864,-0.047 -0.84,-0.195 -0.789,-0.348 -0.718,-0.476 -0.621,-0.59 -0.508,-0.676 -0.387,-0.738 -0.254,-0.762 -0.125,-0.758 -0.004,-0.719 0.11,-0.648 0.207,-0.551 0.281,-0.43 0.328,-0.292 0.356,-0.141 0.343,0.012 0.317,0.164 0.254,0.304 0.171,0.43 0.067,0.531 -0.051,0.61 -0.176,0.656 -0.304,0.668 -0.438,0.648 -0.555,0.594 -0.66,0.516 -0.75,0.406 -0.812,0.277 -0.852,0.133 -0.859,-0.019 -0.848,-0.172 -0.801,-0.321 -0.73,-0.457 L 7.867,99.707 7.336,99.043 6.93,98.312 6.652,97.551 6.504,96.789 6.48,96.062 l 0.094,-0.66 0.192,-0.57 0.269,-0.453 0.32,-0.317 0.352,-0.167 0.352,-0.016 0.32,0.141 0.266,0.281 0.187,0.41 0.086,0.516 L 8.891,95.824 8.734,96.473 8.449,97.141 8.035,97.797 7.5,98.402 6.855,98.934 6.121,99.359 5.32,99.66 4.473,99.82 3.609,99.828 2.762,99.68 1.949,99.383 1.207,98.949 0.551,98.398 0,97.746"
         style="fill:none;stroke:#000000;stroke-width:0.6144;stroke-linecap:square;stroke-linejoin:miter;stroke-miterlimit:3.25;stroke-dasharray:none;stroke-opacity:1"
         id="path12" />
      <text
         xml:space="preserve"
         transform="translate(23.443956,121.75425)"
         style="font-variant:normal;font-size:14.16px;font-family:CairoFont-0;-inkscape-font-specification:CairoFont-0-0;writing-mode:lr-tb;fill:#000000;fill-opacity:1;fill-rule:nonzero;stroke:none"
         id="text16"><tspan
           x="0"
           y="0"
           id="tspan14">g</tspan></text>
      <path
         d="m 69.816,78.195 0.543,-0.664 0.653,-0.562 0.746,-0.442 0.812,-0.297 0.852,-0.144 0.867,0.019 0.848,0.172 0.801,0.321 0.726,0.445 0.633,0.551 0.515,0.629 0.387,0.668 0.258,0.679 0.117,0.653 -0.008,0.593 -0.125,0.5 -0.222,0.387 -0.301,0.246 -0.352,0.098 -0.371,-0.063 -0.367,-0.218 -0.324,-0.371 -0.262,-0.504 -0.176,-0.618 -0.062,-0.703 0.058,-0.758 0.192,-0.777 0.328,-0.765 0.461,-0.715 0.578,-0.633 0.688,-0.527 0.769,-0.395 0.828,-0.246 0.86,-0.09 0.863,0.07 0.836,0.223 0.777,0.363 0.699,0.485 0.594,0.578 0.477,0.644 0.343,0.676 0.211,0.676 0.079,0.637 -0.051,0.562 -0.16,0.469 -0.25,0.344 -0.321,0.199 -0.363,0.043 -0.371,-0.117 -0.356,-0.27 -0.308,-0.418 -0.235,-0.543 -0.14,-0.648 -0.024,-0.727 0.102,-0.765 0.238,-0.778 0.371,-0.754 0.5,-0.691 0.618,-0.602 0.718,-0.484 0.789,-0.348 0.844,-0.195 0.863,-0.035 0.86,0.121 0.816,0.269 0.758,0.407 0.664,0.519 0.559,0.606 0.433,0.656 0.301,0.68 0.164,0.668 0.035,0.613 -0.09,0.539 -0.191,0.426 -0.277,0.297 -0.336,0.148 -0.367,-0.008 -0.372,-0.168 -0.343,-0.32 -0.285,-0.461 -0.208,-0.582 -0.105,-0.676 0.02,-0.742 0.144,-0.777 0.281,-0.77 0.418,-0.738 0.539,-0.664 0.653,-0.567 0.742,-0.441 0.812,-0.297 0.856,-0.144 0.863,0.015 0.848,0.172 0.801,0.32 0.73,0.446 0.629,0.55 0.519,0.625 0.391,0.668 0.254,0.68 0.121,0.652 -0.008,0.594 -0.121,0.504 -0.226,0.387 -0.297,0.25 -0.352,0.097 -0.371,-0.062 -0.367,-0.219 -0.324,-0.367 -0.266,-0.504 -0.172,-0.617 -0.066,-0.703 0.058,-0.758 0.192,-0.777 0.324,-0.762 0.461,-0.719 0.578,-0.633 0.684,-0.527 0.769,-0.394 0.832,-0.25 0.86,-0.09 0.863,0.066 0.832,0.223 0.781,0.363 0.699,0.484 0.594,0.579 0.481,0.644 0.343,0.676 0.211,0.672 0.078,0.636 -0.046,0.567 -0.161,0.469 -0.25,0.343 -0.32,0.2 -0.363,0.046 -0.371,-0.113 -0.356,-0.269 -0.308,-0.414 -0.235,-0.547 -0.14,-0.649 -0.028,-0.722 0.102,-0.77 0.234,-0.773 0.371,-0.754 0.5,-0.692 0.617,-0.601 0.715,-0.489 0.793,-0.347 0.844,-0.196 0.863,-0.039 0.856,0.122 0.82,0.269 0.758,0.402"
         style="fill:none;stroke:#000000;stroke-width:0.6144;stroke-linecap:square;stroke-linejoin:miter;stroke-miterlimit:3.25;stroke-dasharray:none;stroke-opacity:1"
         id="path18" />
      <text
         xml:space="preserve"
         transform="translate(84.806004,65.739773)"
         style="font-variant:normal;font-size:14.16px;font-family:CairoFont-0;-inkscape-font-specification:CairoFont-0-0;writing-mode:lr-tb;fill:#000000;fill-opacity:1;fill-rule:nonzero;stroke:none"
         id="text22"><tspan
           x="0"
           y="0"
           id="tspan20">g</tspan></text>
      <path
         d="m 58.648,108.918 0.747,-0.289 0.789,-0.172 0.812,-0.051 0.809,0.082 0.785,0.211 0.742,0.336 0.68,0.449 0.593,0.551 0.5,0.633 0.399,0.687 0.281,0.723 0.172,0.734 0.063,0.719 -0.043,0.676 -0.133,0.609 -0.207,0.524 -0.27,0.418 -0.305,0.304 -0.324,0.172 -0.316,0.047 -0.289,-0.082 -0.242,-0.207 -0.172,-0.32 -0.086,-0.414 0.012,-0.488 0.117,-0.543 0.226,-0.575 0.344,-0.578 0.449,-0.558 0.551,-0.508 0.641,-0.438 0.715,-0.347 0.765,-0.243 0.801,-0.121 0.812,0.004 0.805,0.137 0.77,0.266 0.714,0.386 0.649,0.496 0.555,0.586 0.457,0.657 0.351,0.707 0.235,0.73 0.125,0.731 0.015,0.703 -0.078,0.652 -0.168,0.574 -0.238,0.481 -0.285,0.371 -0.317,0.25 -0.324,0.121 -0.309,-0.008 -0.269,-0.137 -0.215,-0.257 -0.137,-0.36 -0.047,-0.449 0.055,-0.516 0.164,-0.558 0.278,-0.578 0.386,-0.575 0.496,-0.539 0.59,-0.48 0.672,-0.402 0.738,-0.305 0.786,-0.192 0.808,-0.07 0.813,0.063 0.789,0.191 0.75,0.316 0.691,0.434 0.609,0.535 0.516,0.617 0.41,0.684 0.305,0.719 0.187,0.734 0.079,0.723 -0.028,0.683 -0.117,0.621 -0.199,0.54 -0.262,0.437 -0.301,0.32 -0.32,0.196 -0.32,0.066 -0.293,-0.066 -0.25,-0.188 -0.184,-0.301 -0.101,-0.398 -0.008,-0.481 0.101,-0.539 0.211,-0.57 0.324,-0.578 0.434,-0.563 0.535,-0.515 0.629,-0.453 0.703,-0.364 0.758,-0.257 0.801,-0.141 0.812,-0.012 0.805,0.114 0.777,0.246 0.727,0.367 0.656,0.48 0.571,0.571 0.476,0.648 0.363,0.703 0.254,0.727 0.145,0.734 0.031,0.707 -0.066,0.66 -0.157,0.59 -0.226,0.496 -0.278,0.391 -0.312,0.269 -0.324,0.141 -0.313,0.012 -0.277,-0.117 -0.227,-0.239 -0.148,-0.343 -0.063,-0.438 0.036,-0.508 0.148,-0.554 0.258,-0.575 0.371,-0.578 0.48,-0.543 0.575,-0.492 0.664,-0.418 0.726,-0.32 0.778,-0.211 0.808,-0.086 0.813,0.039 0.797,0.172 0.757,0.297 0.7,0.418 0.621,0.519 0.535,0.606 0.426,0.675 0.32,0.715 0.207,0.735 0.094,0.722 -0.008,0.692 -0.106,0.633 -0.187,0.554 -0.254,0.453 -0.297,0.34 -0.32,0.215 -0.32,0.086 -0.301,-0.043 -0.258,-0.168 -0.195,-0.285 -0.114,-0.387 -0.023,-0.469 0.086,-0.527 0.191,-0.57 0.309,-0.578 0.418,-0.567 0.519,-0.523 0.614,-0.465 0.691,-0.379 0.754,-0.273 0.793,-0.161 0.812,-0.035 0.809,0.098 0.781,0.223 0.735,0.351 0.671,0.461 0.586,0.559 0.489,0.636 0.383,0.696 0.273,0.726 0.156,0.735 0.051,0.714 -0.051,0.668 -0.144,0.602 -0.215,0.512 -0.274,0.41 -0.308,0.285 -0.324,0.164 -0.313,0.031 -0.285,-0.097 -0.234,-0.219 -0.165,-0.332 -0.078,-0.422 0.024,-0.496 0.129,-0.551 0.242,-0.574 0.351,-0.578 0.465,-0.551 0.559,-0.5 0.648,-0.43 0.723,-0.339 0.77,-0.227 0.804,-0.109 0.813,0.023 0.8,0.148 0.766,0.278 0.711,0.398 0.633,0.508 0.547,0.594 0.449,0.664"
         style="fill:none;stroke:#000000;stroke-width:0.6144;stroke-linecap:square;stroke-linejoin:miter;stroke-miterlimit:3.25;stroke-dasharray:none;stroke-opacity:1"
         id="path24" />
      <text
         xml:space="preserve"
         transform="translate(77.134016,139.19727)"
         style="font-variant:normal;font-size:14.16px;font-family:CairoFont-0;-inkscape-font-specification:CairoFont-0-0;writing-mode:lr-tb;fill:#000000;fill-opacity:1;fill-rule:nonzero;stroke:none"
         id="text28"><tspan
           x="0"
           y="0"
           id="tspan26">g</tspan></text>
      <path
         d="m 58.648,108.918 -0.828,0.07 -0.847,-0.109 -0.828,-0.293 -0.762,-0.465 -0.656,-0.621 -0.508,-0.738 -0.336,-0.813 -0.156,-0.847 0.023,-0.832 0.191,-0.782 0.332,-0.703 0.442,-0.609 0.512,-0.5 0.546,-0.387 0.547,-0.281 0.508,-0.184 0.449,-0.082 0.364,0.004 0.265,0.09 0.149,0.168 0.035,0.242 -0.086,0.305 -0.207,0.351 -0.32,0.383 -0.43,0.383 -0.535,0.359 -0.625,0.297 -0.703,0.203 -0.758,0.082 -0.789,-0.074 -0.785,-0.238 -0.739,-0.41 -0.656,-0.571 -0.531,-0.714 -0.375,-0.817 -0.199,-0.879 -0.012,-0.886 0.172,-0.852 0.336,-0.773 0.472,-0.665 0.582,-0.531 0.645,-0.402 0.68,-0.266 0.671,-0.148 0.637,-0.043 0.567,0.039 0.48,0.101 0.367,0.149 0.246,0.187 0.11,0.211 -0.024,0.231 -0.164,0.234 -0.297,0.231 -0.414,0.211 -0.519,0.171 -0.61,0.114 -0.675,0.031 -0.715,-0.082 -0.723,-0.215 -0.695,-0.355 -0.629,-0.508 -0.531,-0.645 -0.391,-0.769 -0.227,-0.852 -0.046,-0.898 0.144,-0.887 0.32,-0.836 0.477,-0.734 0.605,-0.598 0.696,-0.445 0.75,-0.285 0.758,-0.125 0.742,0.015 0.691,0.129 0.621,0.215 0.531,0.273 0.426,0.301 0.309,0.301 0.183,0.285 0.055,0.254 -0.078,0.211 -0.203,0.16 -0.324,0.102 -0.43,0.031 -0.52,-0.043 -0.582,-0.133 -0.613,-0.23 -0.613,-0.348 -0.578,-0.465 -0.504,-0.586 -0.391,-0.695 -0.246,-0.789 -0.082,-0.848 0.106,-0.871 0.289,-0.844 0.464,-0.773 0.61,-0.656 0.722,-0.508 0.793,-0.336 0.821,-0.156 0.808,0.015 0.762,0.172 0.691,0.301 0.602,0.398 0.496,0.454 0.395,0.48 0.289,0.469 0.183,0.426 0.078,0.367 -0.027,0.285 -0.125,0.191 -0.223,0.09 -0.308,-0.015 -0.379,-0.122 -0.43,-0.226 -0.461,-0.336 -0.457,-0.441 -0.422,-0.547 -0.347,-0.641 -0.242,-0.723 -0.098,-0.781 0.059,-0.812 0.242,-0.809 0.414,-0.762 0.578,-0.672 0.719,-0.546 0.812,-0.383 0.863,-0.207 0.872,-0.016 0.832,0.16 0.753,0.321 0.649,0.449 0.531,0.551 0.406,0.609 0.289,0.629 0.18,0.617 0.082,0.57 v 0.5 l -0.066,0.403 -0.129,0.289 -0.184,0.164 -0.222,0.031 -0.258,-0.102 -0.285,-0.23 -0.289,-0.352 -0.274,-0.468 -0.238,-0.567 -0.168,-0.648 -0.07,-0.711 0.05,-0.746 0.2,-0.754 0.355,-0.723 0.516,-0.656 0.66,-0.547 0.785,-0.406 0.863,-0.238 0.899,-0.055 0.883,0.133 0.824,0.304 0.718,0.465 0.586,0.582"
         style="fill:none;stroke:#000000;stroke-width:0.6144;stroke-linecap:square;stroke-linejoin:miter;stroke-miterlimit:3.25;stroke-dasharray:none;stroke-opacity:1"
         id="path30" />
      <text
         xml:space="preserve"
         transform="translate(38.66706,91.199687)"
         style="font-variant:normal;font-size:14.16px;font-family:CairoFont-0;-inkscape-font-specification:CairoFont-0-0;writing-mode:lr-tb;fill:#000000;fill-opacity:1;fill-rule:nonzero;stroke:none"
         id="text34"><tspan
           x="0"
           y="0"
           id="tspan32">g</tspan></text>
      <path
         d="m 58.648,108.918 0.586,0.582 0.719,0.461 0.824,0.309 0.883,0.132 0.902,-0.054 0.864,-0.239 0.781,-0.406 0.66,-0.547 0.516,-0.656 0.359,-0.723 0.196,-0.754 0.054,-0.746 -0.074,-0.711 -0.168,-0.648 -0.238,-0.566 -0.274,-0.469 -0.289,-0.352 -0.285,-0.23 -0.258,-0.102 -0.222,0.031 -0.184,0.165 -0.129,0.289 -0.066,0.402 v 0.5 l 0.082,0.57 0.179,0.617 0.289,0.629 0.407,0.61 0.531,0.547 0.652,0.453 0.75,0.32 0.832,0.16 0.871,-0.019 0.864,-0.203 0.816,-0.383 0.715,-0.547 0.578,-0.672 0.418,-0.762 0.238,-0.808 0.063,-0.813 -0.102,-0.785 -0.242,-0.719 -0.348,-0.64 -0.418,-0.547 -0.46,-0.442 -0.458,-0.336 -0.433,-0.23 -0.379,-0.121 -0.309,-0.012 -0.222,0.09 -0.125,0.191 -0.024,0.286 0.075,0.363 0.183,0.429 0.289,0.469 0.395,0.481 0.5,0.453 0.597,0.398 0.692,0.301 0.761,0.172 0.809,0.016 0.82,-0.157 0.793,-0.336 0.723,-0.507 0.609,-0.657 0.465,-0.773 0.289,-0.848 0.106,-0.867 -0.078,-0.852 -0.25,-0.785 -0.391,-0.699 -0.504,-0.582 -0.574,-0.465 -0.617,-0.347 -0.614,-0.231 -0.582,-0.133 -0.515,-0.043 -0.434,0.032 -0.324,0.101 -0.203,0.16 -0.078,0.211 0.054,0.25 0.184,0.289 0.309,0.301 0.425,0.301 0.532,0.269 0.621,0.219 0.691,0.129 0.742,0.016 0.762,-0.125 0.746,-0.285 0.695,-0.446 0.606,-0.597 0.48,-0.735 0.321,-0.836 0.14,-0.886 -0.047,-0.899 -0.226,-0.851 -0.391,-0.77 -0.527,-0.645 -0.633,-0.507 -0.695,-0.36 -0.723,-0.211 -0.715,-0.082 -0.672,0.032 -0.613,0.113 -0.519,0.172 -0.414,0.211 -0.297,0.23 -0.16,0.234 -0.028,0.231 0.11,0.211 0.246,0.183 0.367,0.153 0.48,0.101 0.567,0.039 0.636,-0.043 0.672,-0.148 0.68,-0.27 0.644,-0.398 0.583,-0.535 0.472,-0.66 0.34,-0.774 0.168,-0.851 -0.012,-0.891 -0.199,-0.875 -0.375,-0.816 -0.531,-0.715 -0.656,-0.57 -0.739,-0.415 -0.785,-0.238 -0.785,-0.07 -0.762,0.082 -0.703,0.203 -0.625,0.297 -0.535,0.359 -0.43,0.383 -0.32,0.383 -0.207,0.351 -0.086,0.305 0.035,0.242 0.149,0.168 0.265,0.09 0.364,0.004 0.449,-0.086 0.511,-0.18 0.543,-0.281 0.547,-0.39 0.512,-0.496 0.441,-0.61 0.332,-0.703 0.192,-0.781 0.023,-0.836 -0.152,-0.844 -0.34,-0.812 -0.508,-0.739 -0.656,-0.621 -0.762,-0.465 -0.828,-0.293 -0.847,-0.109 -0.829,0.07"
         style="fill:none;stroke:#000000;stroke-width:0.6144;stroke-linecap:square;stroke-linejoin:miter;stroke-miterlimit:3.25;stroke-dasharray:none;stroke-opacity:1"
         id="path36" />
      <text
         xml:space="preserve"
         transform="translate(81.278863,106.05367)"
         style="font-variant:normal;font-size:14.16px;font-family:CairoFont-0;-inkscape-font-specification:CairoFont-0-0;writing-mode:lr-tb;fill:#000000;fill-opacity:1;fill-rule:nonzero;stroke:none"
         id="text40"><tspan
           x="0"
           y="0"
           id="tspan38">g</tspan></text>
      <path
         d="m 72.277,78.195 c 0,0.653 -0.261,1.278 -0.722,1.739 -0.461,0.461 -1.086,0.718 -1.739,0.718 -0.648,0 -1.273,-0.257 -1.734,-0.718 -0.461,-0.461 -0.723,-1.086 -0.723,-1.739 0,-0.652 0.262,-1.277 0.723,-1.738 0.461,-0.461 1.086,-0.719 1.734,-0.719 0.653,0 1.278,0.258 1.739,0.719 0.461,0.461 0.722,1.086 0.722,1.738 z"
         style="fill:#000000;fill-opacity:1;fill-rule:evenodd;stroke:none"
         id="path42" />
      <path
         d="m 61.105,108.918 c 0,0.648 -0.257,1.273 -0.718,1.734 -0.461,0.461 -1.086,0.723 -1.739,0.723 -0.652,0 -1.277,-0.262 -1.738,-0.723 -0.461,-0.461 -0.719,-1.086 -0.719,-1.734 0,-0.652 0.258,-1.277 0.719,-1.738 0.461,-0.461 1.086,-0.723 1.738,-0.723 0.653,0 1.278,0.262 1.739,0.723 0.461,0.461 0.718,1.086 0.718,1.738 z"
         style="fill:#000000;fill-opacity:1;fill-rule:evenodd;stroke:none"
         id="path44" />
    </g>
    <g
       id="g46">
      <g
         id="g48"
         clip-path="url(#clipPath52)">
        <text
           xml:space="preserve"
           transform="translate(52.799858,153.92398)"
           style="font-variant:normal;font-size:11.28px;font-family:CairoFont-1;-inkscape-font-specification:CairoFont-1-0;writing-mode:lr-tb;fill:#000000;fill-opacity:1;fill-rule:nonzero;stroke:none"
           id="text56"><tspan
             x="0"
             y="0"
             id="tspan54">7</tspan></text>
      </g>
    </g>
    <g
       id="g58">
      <path
         d="m 175.941,86.574 -0.515,0.633 -0.614,0.547 -0.699,0.441 -0.761,0.325 -0.805,0.187 -0.828,0.055 -0.824,-0.086 -0.793,-0.215 -0.747,-0.336 -0.675,-0.441 -0.586,-0.528 -0.485,-0.586 -0.375,-0.617 -0.254,-0.625 -0.14,-0.601 -0.028,-0.555 0.079,-0.477 0.168,-0.379 0.238,-0.265 0.289,-0.137 0.32,-0.004 0.324,0.137 0.309,0.273 0.266,0.395 0.203,0.508 0.125,0.601 0.023,0.672 -0.082,0.715 -0.199,0.73 -0.316,0.719 -0.43,0.68 -0.539,0.617 -0.633,0.527 -0.715,0.418 -0.773,0.293 -0.813,0.16 -0.828,0.024 -0.816,-0.113 -0.789,-0.243 -0.731,-0.363 -0.656,-0.461 -0.566,-0.539 -0.461,-0.598 -0.348,-0.621 -0.234,-0.621 -0.114,-0.593 -0.004,-0.539 0.098,-0.458 0.184,-0.355 0.25,-0.242 0.3,-0.106 0.325,0.028 0.324,0.164 0.301,0.301 0.254,0.421 0.187,0.532 0.102,0.617 0.004,0.68 -0.11,0.722 -0.223,0.731 -0.339,0.715 -0.457,0.667 -0.559,0.598 -0.652,0.504 -0.731,0.391 -0.781,0.269 -0.82,0.129 -0.825,-0.004 -0.816,-0.144 -0.777,-0.27 -0.715,-0.383 -0.641,-0.48 -0.543,-0.555 -0.437,-0.605 -0.324,-0.625 -0.204,-0.618 -0.089,-0.582 0.015,-0.523 0.117,-0.437 0.203,-0.332 0.262,-0.215 0.305,-0.078 0.328,0.058 0.32,0.195 0.293,0.325 0.242,0.449 0.168,0.551 0.082,0.632 -0.019,0.692 -0.133,0.726 -0.246,0.731 -0.367,0.703 -0.481,0.656 -0.578,0.578 -0.672,0.485 -0.742,0.367 -0.793,0.238 -0.82,0.102 -0.828,-0.039 -0.809,-0.168 -0.765,-0.297 -0.7,-0.406 -0.621,-0.5 -0.523,-0.567 -0.414,-0.609 -0.297,-0.625 -0.18,-0.613 -0.066,-0.575 0.043,-0.507 0.136,-0.415 0.215,-0.308 0.274,-0.184 0.312,-0.05 0.324,0.085 0.321,0.227 0.281,0.352 0.23,0.472 0.153,0.571 0.058,0.648 -0.043,0.699 -0.156,0.731 -0.273,0.726 -0.391,0.696 -0.504,0.64 -0.601,0.563 -0.688,0.457 -0.754,0.34 -0.801,0.211 -0.824,0.07 -0.824,-0.067 -0.801,-0.195 -0.754,-0.324 -0.687,-0.426 -0.598,-0.516 -0.5,-0.578 -0.39,-0.617 -0.274,-0.625 -0.152,-0.605 -0.043,-0.563 0.062,-0.488 0.157,-0.395 0.226,-0.285 0.285,-0.156 0.317,-0.02 0.328,0.118 0.312,0.254 0.274,0.378 0.215,0.493 0.132,0.589 0.039,0.665 -0.066,0.71 -0.184,0.731 -0.3,0.723 -0.414,0.687 -0.524,0.625 -0.621,0.539 -0.703,0.434 -0.77,0.312 -0.804,0.18 -0.828,0.043 -0.821,-0.094 -0.793,-0.226 -0.742,-0.348 -0.668,-0.449 -0.578,-0.532 -0.476,-0.585 -0.368,-0.622 -0.246,-0.625 -0.129,-0.597 -0.019,-0.547 0.082,-0.473 0.176,-0.371 0.242,-0.258 0.293,-0.125 0.32,0.008 0.324,0.145 0.309,0.281 0.262,0.406 0.199,0.516 0.113,0.609 0.02,0.672 -0.094,0.719 -0.207,0.73 -0.324,0.719 -0.442,0.676 -0.547,0.609 -0.64,0.52 -0.719,0.406 -0.777,0.285 -0.813,0.152 -0.828,0.012 -0.816,-0.125 -0.786,-0.254 -0.726,-0.367"
         style="fill:none;stroke:#000000;stroke-width:0.6144;stroke-linecap:square;stroke-linejoin:miter;stroke-miterlimit:3.25;stroke-dasharray:none;stroke-opacity:1"
         id="path60" />
    </g>
    <g
       id="g62">
      <g
         id="g64"
         clip-path="url(#clipPath68)">
        <text
           xml:space="preserve"
           transform="translate(142.56215,80.084131)"
           style="font-variant:normal;font-size:14.16px;font-family:CairoFont-0;-inkscape-font-specification:CairoFont-0-0;writing-mode:lr-tb;fill:#000000;fill-opacity:1;fill-rule:nonzero;stroke:none"
           id="text72"><tspan
             x="0"
             y="0"
             id="tspan70">g</tspan></text>
      </g>
    </g>
    <g
       id="g74">
      <path
         d="m 175.941,86.574 0.481,-0.683 0.594,-0.602 0.687,-0.496 0.762,-0.371 0.816,-0.234 0.844,-0.09 0.844,0.054 0.824,0.2 0.769,0.324 0.7,0.437 0.605,0.524 0.496,0.586 0.379,0.621 0.254,0.621 0.125,0.594 0.008,0.535 -0.102,0.453 -0.195,0.348 -0.27,0.218 -0.32,0.082 -0.347,-0.066 -0.348,-0.207 -0.32,-0.348 -0.266,-0.476 -0.195,-0.586 -0.102,-0.672 0.008,-0.735 0.129,-0.761 0.254,-0.762 0.379,-0.734 0.5,-0.676 0.605,-0.586 0.699,-0.481 0.774,-0.351 0.82,-0.215 0.848,-0.066 0.843,0.078 0.813,0.215 0.762,0.343 0.687,0.45 0.59,0.535 0.48,0.594 0.364,0.621 0.234,0.621 0.109,0.586 -0.011,0.527 -0.113,0.437 -0.208,0.329 -0.281,0.199 -0.324,0.062 -0.348,-0.086 -0.347,-0.23 -0.313,-0.367 -0.262,-0.492 -0.179,-0.602 -0.086,-0.68 0.023,-0.738 0.149,-0.766 0.273,-0.761 0.395,-0.727 0.515,-0.664 0.621,-0.574 0.711,-0.461 0.782,-0.332 0.824,-0.192 0.847,-0.046 0.844,0.097 0.809,0.235 0.75,0.359 0.676,0.465 0.574,0.543 0.465,0.601 0.34,0.621 0.218,0.618 0.09,0.582 -0.023,0.515 -0.129,0.422 -0.219,0.313 -0.289,0.179 -0.332,0.039 -0.348,-0.105 -0.344,-0.25 -0.304,-0.387 -0.25,-0.511 -0.172,-0.61 -0.07,-0.695 0.043,-0.742 0.164,-0.766 0.293,-0.758 0.414,-0.719 0.531,-0.652 0.633,-0.558 0.722,-0.446 0.789,-0.312 0.833,-0.172 0.847,-0.028 0.84,0.122 0.801,0.253 0.742,0.375 0.66,0.477 0.563,0.555 0.445,0.605 0.324,0.625 0.199,0.613 0.075,0.571 -0.043,0.504 -0.145,0.41 -0.23,0.293 -0.293,0.16 -0.336,0.019 -0.352,-0.124 -0.336,-0.274 -0.301,-0.406 -0.242,-0.524 -0.156,-0.625 -0.055,-0.703 0.063,-0.75 0.18,-0.765 0.308,-0.754 0.434,-0.711 0.547,-0.641 0.648,-0.543 0.734,-0.426 0.797,-0.293 0.836,-0.152 0.848,-0.004 0.832,0.137 0.797,0.273 0.73,0.395 0.649,0.488 0.543,0.563 0.429,0.609 0.309,0.625 0.18,0.609 0.054,0.567 -0.054,0.492 -0.161,0.391 -0.238,0.277 -0.305,0.141 -0.335,-0.004 -0.352,-0.149 -0.336,-0.289 -0.293,-0.426 -0.227,-0.539 -0.144,-0.64 -0.039,-0.711 0.078,-0.754 0.199,-0.766 0.328,-0.75 0.45,-0.703 0.562,-0.625 0.664,-0.527 0.742,-0.41 0.805,-0.274 0.836,-0.129 0.848,0.016 0.832,0.16 0.789,0.293 0.718,0.406 0.633,0.5 0.528,0.575 0.414,0.613 0.289,0.625 0.16,0.605 0.039,0.555 -0.07,0.48 -0.172,0.375 -0.25,0.258 -0.309,0.121 -0.344,-0.023 -0.347,-0.168 -0.332,-0.313 -0.285,-0.441 -0.219,-0.559 -0.129,-0.648 -0.02,-0.719 0.094,-0.758 0.219,-0.765 0.344,-0.746 0.465,-0.696 0.578,-0.613 0.675,-0.512 0.754,-0.386 0.813,-0.254 0.84,-0.11 0.847,0.039 0.825,0.18 0.781,0.309 0.707,0.422 0.621,0.511 0.512,0.582 0.394,0.618 0.27,0.621 0.144,0.601 0.024,0.547 -0.09,0.465 -0.184,0.359 -0.258,0.239 -0.316,0.101 -0.348,-0.043 -0.347,-0.191 -0.325,-0.332 -0.277,-0.457 -0.207,-0.575 -0.113,-0.66 -0.004,-0.726 0.109,-0.762 0.239,-0.766 0.363,-0.738 0.484,-0.683 0.59,-0.602 0.691,-0.492 0.762,-0.371 0.817,-0.235 0.843,-0.086 0.844,0.059 0.824,0.199 0.77,0.324"
         style="fill:none;stroke:#000000;stroke-width:0.6144;stroke-linecap:square;stroke-linejoin:miter;stroke-miterlimit:3.25;stroke-dasharray:none;stroke-opacity:1"
         id="path76" />
      <text
         xml:space="preserve"
         transform="translate(198.6273,70.093847)"
         style="font-variant:normal;font-size:14.16px;font-family:CairoFont-0;-inkscape-font-specification:CairoFont-0-0;writing-mode:lr-tb;fill:#000000;fill-opacity:1;fill-rule:nonzero;stroke:none"
         id="text80"><tspan
           x="0"
           y="0"
           id="tspan78">g</tspan></text>
      <path
         d="m 192.699,117.293 0.754,-0.402 0.82,-0.27 0.856,-0.121 0.867,0.039 0.84,0.195 0.793,0.348 0.715,0.488 0.617,0.602 0.5,0.691 0.371,0.75 0.234,0.778 0.102,0.769 -0.023,0.723 -0.141,0.648 -0.238,0.547 -0.309,0.414 -0.355,0.27 -0.372,0.113 -0.363,-0.047 -0.316,-0.199 -0.254,-0.344 -0.156,-0.469 -0.051,-0.566 0.078,-0.637 0.211,-0.672 0.348,-0.675 0.476,-0.645 0.594,-0.582 0.699,-0.48 0.781,-0.364 0.836,-0.222 0.86,-0.067 0.863,0.09 0.828,0.25 0.77,0.395 0.683,0.527 0.582,0.633 0.457,0.719 0.324,0.761 0.192,0.778 0.058,0.757 -0.062,0.704 -0.176,0.617 -0.262,0.504 -0.328,0.367 -0.363,0.219 -0.375,0.062 -0.348,-0.098 -0.3,-0.25 -0.223,-0.386 -0.125,-0.504 -0.008,-0.594 0.121,-0.652 0.254,-0.68 0.391,-0.668 0.519,-0.625 0.633,-0.551 0.727,-0.445 0.8,-0.32 0.848,-0.172 0.863,-0.016 0.856,0.145 0.812,0.297 0.743,0.441 0.652,0.566 0.543,0.664 0.414,0.735 0.281,0.773 0.149,0.778 0.015,0.742 -0.105,0.676 -0.203,0.582 -0.289,0.461 -0.344,0.32 -0.367,0.168 -0.371,0.008 -0.336,-0.149 -0.278,-0.297 -0.191,-0.426 -0.09,-0.539 0.035,-0.617 0.164,-0.664 0.301,-0.68 0.434,-0.656 0.558,-0.605 0.668,-0.52 0.754,-0.406 0.82,-0.27 0.856,-0.121 0.863,0.036 0.844,0.195 0.793,0.347 0.715,0.485 0.617,0.601 0.5,0.692 0.371,0.754 0.238,0.773 0.102,0.77 -0.024,0.726 -0.14,0.649 -0.235,0.543 -0.308,0.418 -0.356,0.269 -0.371,0.117 -0.363,-0.047 -0.316,-0.199 -0.254,-0.34 -0.161,-0.468 -0.05,-0.567 0.078,-0.633 0.211,-0.675 0.344,-0.676 0.476,-0.645 0.594,-0.578 0.699,-0.484 0.777,-0.363 0.836,-0.223 0.864,-0.07 0.859,0.089 0.828,0.247 0.774,0.394 0.683,0.527 0.582,0.633 0.457,0.715 0.328,0.762 0.192,0.781 0.062,0.758 -0.066,0.703 -0.172,0.617 -0.266,0.504 -0.324,0.371 -0.363,0.219 -0.375,0.062 -0.348,-0.097 -0.301,-0.246 -0.226,-0.387 -0.125,-0.5 -0.008,-0.594 0.121,-0.652 0.254,-0.68 0.387,-0.668 0.519,-0.629 0.629,-0.55 0.731,-0.446 0.797,-0.32 0.847,-0.172 0.867,-0.02 0.852,0.145 0.812,0.297 0.747,0.441 0.652,0.563 0.543,0.664"
         style="fill:none;stroke:#000000;stroke-width:0.6144;stroke-linecap:square;stroke-linejoin:miter;stroke-miterlimit:3.25;stroke-dasharray:none;stroke-opacity:1"
         id="path82" />
      <text
         xml:space="preserve"
         transform="translate(206.91923,143.72565)"
         style="font-variant:normal;font-size:14.16px;font-family:CairoFont-0;-inkscape-font-specification:CairoFont-0-0;writing-mode:lr-tb;fill:#000000;fill-opacity:1;fill-rule:nonzero;stroke:none"
         id="text86"><tspan
           x="0"
           y="0"
           id="tspan84">g</tspan></text>
      <path
         d="m 175.941,86.574 0.528,-0.726 0.703,-0.602 0.84,-0.43 0.933,-0.23 0.961,-0.008 0.93,0.211 0.836,0.41 0.695,0.578 0.531,0.7 0.348,0.769 0.184,0.797 0.027,0.777 -0.094,0.715 -0.179,0.621 -0.243,0.504 -0.269,0.356 -0.285,0.203 -0.278,0.035 -0.257,-0.137 -0.227,-0.293 -0.184,-0.445 -0.113,-0.57 -0.027,-0.668 0.086,-0.735 0.222,-0.754 0.379,-0.734 0.543,-0.66 0.699,-0.543 0.832,-0.379 0.918,-0.176 0.958,0.039 0.925,0.262 0.84,0.461 0.695,0.637 0.516,0.757 0.316,0.829 0.118,0.855 -0.063,0.828 -0.211,0.77 -0.32,0.675 -0.391,0.563 -0.41,0.434 -0.402,0.296 -0.363,0.149 -0.305,-0.008 -0.227,-0.152 -0.14,-0.301 -0.047,-0.426 0.058,-0.535 0.176,-0.605 0.297,-0.645 0.43,-0.637 0.57,-0.578 0.699,-0.469 0.809,-0.32 0.89,-0.129 0.922,0.082 0.899,0.305 0.816,0.508 0.68,0.679 0.496,0.813 0.289,0.883 0.07,0.898 -0.129,0.863 -0.304,0.789 -0.442,0.684 -0.527,0.563 -0.57,0.433 -0.563,0.305 -0.515,0.176 -0.438,0.054 -0.332,-0.066 -0.211,-0.18 -0.078,-0.285 0.059,-0.379 0.195,-0.449 0.328,-0.488 0.461,-0.496 0.586,-0.457 0.699,-0.375 0.793,-0.243 0.856,-0.074 0.878,0.121 0.852,0.332 0.773,0.535 0.637,0.711 0.461,0.848 0.254,0.922 0.031,0.937 -0.183,0.899 -0.371,0.804 -0.528,0.676 -0.633,0.535 -0.691,0.387 -0.703,0.246 -0.664,0.121 -0.59,0.012 -0.484,-0.082 -0.348,-0.156 -0.199,-0.219 -0.039,-0.277 0.125,-0.313 0.281,-0.34 0.43,-0.336 0.562,-0.308 0.672,-0.246 0.758,-0.141 0.812,0.004 0.828,0.168 0.801,0.359 0.715,0.547 0.586,0.723 0.41,0.855 0.207,0.938 -0.016,0.961 -0.23,0.922 -0.43,0.82 -0.59,0.676 -0.707,0.511 -0.777,0.333 -0.793,0.164 -0.765,0.019 -0.704,-0.098 -0.605,-0.183 -0.481,-0.242 -0.332,-0.27 -0.175,-0.277 -0.008,-0.278 0.16,-0.257 0.32,-0.223 0.465,-0.18 0.59,-0.113 0.684,-0.02 0.742,0.098 0.762,0.238 0.73,0.395 0.652,0.562 0.528,0.715 0.359,0.844 0.156,0.93 -0.062,0.953 -0.285,0.922 -0.485,0.824 -0.648,0.676 -0.766,0.492 -0.832,0.297 -0.851,0.097 -0.825,-0.078 -0.754,-0.222 -0.664,-0.325 -0.546,-0.382 -0.418,-0.407 -0.274,-0.39 -0.125,-0.352 0.027,-0.289 0.18,-0.215 0.32,-0.129 0.45,-0.035 0.55,0.067 0.622,0.183 0.652,0.313 0.637,0.441 0.574,0.586 0.457,0.711 0.301,0.824 0.109,0.899 -0.105,0.925 -0.329,0.895 -0.527,0.801 -0.699,0.66 -0.817,0.476 -0.886,0.266 -0.895,0.047"
         style="fill:none;stroke:#000000;stroke-width:0.6144;stroke-linecap:square;stroke-linejoin:miter;stroke-miterlimit:3.25;stroke-dasharray:none;stroke-opacity:1"
         id="path88" />
      <text
         xml:space="preserve"
         transform="translate(202.27512,93.391793)"
         style="font-variant:normal;font-size:14.16px;font-family:CairoFont-0;-inkscape-font-specification:CairoFont-0-0;writing-mode:lr-tb;fill:#000000;fill-opacity:1;fill-rule:nonzero;stroke:none"
         id="text92"><tspan
           x="0"
           y="0"
           id="tspan90">g</tspan></text>
      <path
         d="m 175.941,86.574 -0.894,0.051 -0.887,0.266 -0.816,0.472 -0.699,0.66 -0.528,0.805 -0.328,0.895 -0.105,0.922 0.109,0.898 0.301,0.824 0.457,0.715 0.574,0.582 0.637,0.445 0.652,0.309 0.621,0.184 0.551,0.07 0.449,-0.035 0.32,-0.129 0.18,-0.215 0.027,-0.289 -0.124,-0.352 -0.274,-0.394 -0.418,-0.403 -0.547,-0.386 -0.664,-0.324 -0.758,-0.219 -0.82,-0.078 -0.852,0.097 -0.832,0.293 -0.765,0.492 -0.649,0.68 -0.484,0.824 -0.285,0.918 -0.063,0.957 0.157,0.926 0.359,0.848 0.527,0.715 0.653,0.558 0.73,0.399 0.762,0.238 0.742,0.098 0.684,-0.024 0.589,-0.109 0.465,-0.18 0.321,-0.226 0.16,-0.258 -0.008,-0.274 -0.176,-0.281 -0.336,-0.269 -0.476,-0.239 -0.606,-0.183 -0.703,-0.098 -0.766,0.016 -0.796,0.168 -0.774,0.332 -0.707,0.507 -0.59,0.68 -0.429,0.82 -0.235,0.918 -0.012,0.961 0.204,0.942 0.414,0.855 0.586,0.719 0.714,0.551 0.797,0.355 0.828,0.172 h 0.817 l 0.758,-0.141 0.672,-0.242 0.562,-0.308 0.43,-0.34 0.281,-0.336 0.121,-0.317 -0.035,-0.273 -0.199,-0.223 -0.348,-0.156 -0.484,-0.078 -0.59,0.012 -0.664,0.121 -0.703,0.246 -0.692,0.383 -0.633,0.535 -0.527,0.68 -0.375,0.804 -0.18,0.895 0.032,0.937 0.254,0.926 0.46,0.844 0.637,0.711 0.774,0.535 0.851,0.332 0.879,0.125 0.856,-0.078 0.793,-0.242 0.699,-0.371 0.586,-0.457 0.461,-0.497 0.328,-0.492 0.195,-0.449 0.059,-0.375 -0.078,-0.285 -0.211,-0.184 -0.332,-0.066 -0.438,0.055 -0.516,0.175 -0.562,0.305 -0.57,0.434 -0.528,0.566 -0.441,0.684 -0.305,0.789 -0.133,0.863 0.075,0.898 0.289,0.883 0.496,0.809 0.679,0.683 0.817,0.508 0.898,0.301 0.922,0.082 0.891,-0.129 0.808,-0.316 0.7,-0.473 0.57,-0.578 0.43,-0.633 0.297,-0.644 0.171,-0.61 0.059,-0.531 -0.043,-0.43 -0.141,-0.297 -0.226,-0.156 -0.305,-0.004 -0.363,0.149 -0.402,0.293 -0.415,0.433 -0.386,0.567 -0.321,0.675 -0.211,0.766 -0.062,0.832 0.117,0.852 0.317,0.832 0.515,0.757 0.696,0.633 0.839,0.465 0.926,0.262 0.957,0.039 0.918,-0.18 0.832,-0.379 0.695,-0.539 0.543,-0.664 0.383,-0.73 0.223,-0.758 0.086,-0.734 -0.028,-0.668 -0.113,-0.571 -0.183,-0.441 -0.227,-0.297 -0.258,-0.133 -0.277,0.035 -0.285,0.2 -0.27,0.359 -0.242,0.5 -0.184,0.621 -0.089,0.719 0.027,0.773 0.18,0.797 0.351,0.774 0.531,0.699 0.696,0.578 0.836,0.41 0.929,0.211 0.961,-0.012 0.934,-0.226 0.84,-0.434 0.703,-0.601 0.527,-0.727"
         style="fill:none;stroke:#000000;stroke-width:0.6144;stroke-linecap:square;stroke-linejoin:miter;stroke-miterlimit:3.25;stroke-dasharray:none;stroke-opacity:1"
         id="path94" />
      <text
         xml:space="preserve"
         transform="translate(159.29021,122.70152)"
         style="font-variant:normal;font-size:14.16px;font-family:CairoFont-0;-inkscape-font-specification:CairoFont-0-0;writing-mode:lr-tb;fill:#000000;fill-opacity:1;fill-rule:nonzero;stroke:none"
         id="text98"><tspan
           x="0"
           y="0"
           id="tspan96">g</tspan></text>
      <path
         d="m 195.156,117.293 c 0,0.652 -0.258,1.277 -0.718,1.738 -0.461,0.461 -1.086,0.723 -1.739,0.723 -0.652,0 -1.277,-0.262 -1.738,-0.723 -0.461,-0.461 -0.719,-1.086 -0.719,-1.738 0,-0.648 0.258,-1.273 0.719,-1.734 0.461,-0.461 1.086,-0.723 1.738,-0.723 0.653,0 1.278,0.262 1.739,0.723 0.46,0.461 0.718,1.086 0.718,1.734 z"
         style="fill:#000000;fill-opacity:1;fill-rule:evenodd;stroke:none"
         id="path100" />
      <path
         d="m 178.398,86.574 c 0,0.653 -0.257,1.278 -0.718,1.738 -0.461,0.461 -1.086,0.719 -1.739,0.719 -0.652,0 -1.277,-0.258 -1.738,-0.719 -0.461,-0.46 -0.719,-1.085 -0.719,-1.738 0,-0.652 0.258,-1.277 0.719,-1.738 0.461,-0.461 1.086,-0.719 1.738,-0.719 0.653,0 1.278,0.258 1.739,0.719 0.461,0.461 0.718,1.086 0.718,1.738 z"
         style="fill:#000000;fill-opacity:1;fill-rule:evenodd;stroke:none"
         id="path102" />
    </g>
    <g
       id="g104">
      <g
         id="g106"
         clip-path="url(#clipPath110)">
        <text
           xml:space="preserve"
           transform="translate(175.67986,153.92398)"
           style="font-variant:normal;font-size:11.28px;font-family:CairoFont-1;-inkscape-font-specification:CairoFont-1-0;writing-mode:lr-tb;fill:#000000;fill-opacity:1;fill-rule:nonzero;stroke:none"
           id="text114"><tspan
             x="0"
             y="0"
             id="tspan112">8</tspan></text>
      </g>
    </g>
  </g>
</svg>
