<?xml version="1.0" encoding="UTF-8" standalone="no"?>
<!-- Created with Inkscape (http://www.inkscape.org/) -->

<svg
   version="1.1"
   id="svg2"
   width="492"
   height="246.66667"
   viewBox="0 0 492 246.66667"
   sodipodi:docname="1hioq5saix3mh.pdf"
   xmlns:inkscape="http://www.inkscape.org/namespaces/inkscape"
   xmlns:sodipodi="http://sodipodi.sourceforge.net/DTD/sodipodi-0.dtd"
   xmlns="http://www.w3.org/2000/svg"
   xmlns:svg="http://www.w3.org/2000/svg">
  <defs
     id="defs6">
    <clipPath
       clipPathUnits="userSpaceOnUse"
       id="clipPath68">
      <path
         d="m 53,146 h 4 v 7.602 h -4 z"
         id="path66" />
    </clipPath>
    <clipPath
       clipPathUnits="userSpaceOnUse"
       id="clipPath130">
      <path
         d="m 176,146 h 6 v 7.602 h -6 z"
         id="path128" />
    </clipPath>
    <clipPath
       clipPathUnits="userSpaceOnUse"
       id="clipPath148">
      <path
         d="m 262,93 h 8.961 v 9 H 262 Z"
         id="path146" />
    </clipPath>
    <clipPath
       clipPathUnits="userSpaceOnUse"
       id="clipPath180">
      <path
         d="m 298,146 h 7 v 7.602 h -7 z"
         id="path178" />
    </clipPath>
  </defs>
  <sodipodi:namedview
     id="namedview4"
     pagecolor="#ffffff"
     bordercolor="#999999"
     borderopacity="1"
     inkscape:showpageshadow="0"
     inkscape:pageopacity="0"
     inkscape:pagecheckerboard="0"
     inkscape:deskcolor="#d1d1d1" />
  <g
     id="g8"
     inkscape:groupmode="layer"
     inkscape:label="1hioq5saix3mh"
     transform="matrix(1.3333333,0,0,1.3333333,0,9.5e-6)">
    <g
       id="g10">
      <path
         d="m 0,69.816 39.098,5.586"
         style="fill:none;stroke:#000000;stroke-width:0.6144;stroke-linecap:square;stroke-linejoin:miter;stroke-miterlimit:3.25;stroke-dasharray:none;stroke-opacity:1"
         id="path12" />
      <path
         d="m 22.867,73.086 -6.953,1.262 0.633,-4.422 z"
         style="fill:#000000;fill-opacity:1;fill-rule:evenodd;stroke:none"
         id="path14" />
      <text
         xml:space="preserve"
         transform="translate(16.537112,64.262299)"
         style="font-variant:normal;font-size:14.16px;font-family:CairoFont-0;-inkscape-font-specification:CairoFont-0-0;writing-mode:lr-tb;fill:#000000;fill-opacity:1;fill-rule:nonzero;stroke:none"
         id="text18"><tspan
           x="0"
           y="0"
           id="tspan16">u</tspan></text>
      <path
         d="m 39.098,120.086 -0.606,0.676 -0.726,0.55 -0.817,0.399 -0.883,0.219 -0.91,0.039 -0.898,-0.145 -0.852,-0.32 -0.773,-0.477 -0.664,-0.601 -0.528,-0.692 -0.382,-0.742 -0.227,-0.75 -0.07,-0.715 0.074,-0.636 0.199,-0.52 0.305,-0.375 0.379,-0.203 0.414,-0.023 0.414,0.16 0.379,0.34 0.308,0.503 0.211,0.637 0.078,0.738 -0.062,0.805 -0.219,0.82 -0.371,0.801 -0.523,0.731 -0.657,0.629 -0.769,0.492 -0.848,0.328 -0.898,0.148 -0.91,-0.039 -0.883,-0.218 -0.824,-0.383 -0.731,-0.532 -0.613,-0.644 -0.473,-0.715 -0.316,-0.754 -0.164,-0.738 -0.012,-0.688 0.129,-0.593 0.25,-0.465 0.336,-0.309 0.394,-0.133 0.422,0.051 0.403,0.238 0.355,0.407 0.273,0.562 0.157,0.684 0.027,0.769 -0.125,0.817 -0.285,0.816 -0.434,0.777 -0.578,0.696 -0.707,0.578 -0.805,0.426 -0.871,0.258 -0.906,0.07 -0.906,-0.11 -0.863,-0.289 -0.789,-0.449 -0.688,-0.578 -0.555,-0.68 -0.41,-0.734 -0.258,-0.754 -0.097,-0.723 0.047,-0.652 0.179,-0.547 0.285,-0.402 0.368,-0.242 0.41,-0.059 0.418,0.129 0.386,0.309 0.325,0.472 0.23,0.614 0.106,0.722 -0.032,0.793 -0.191,0.824 -0.344,0.805 -0.496,0.75 -0.633,0.652 -0.75,0.516 -0.836,0.363 -0.89,0.184 -0.91,-0.004 -0.891,-0.184 -0.836,-0.355 -0.754,-0.508 -0.633,-0.621 -0.5,-0.707 -0.351,-0.75 -0.192,-0.746 -0.039,-0.699 0.106,-0.614 0.226,-0.492 0.321,-0.34 0.39,-0.168 0.418,0.016 0.41,0.203 0.368,0.375 0.289,0.535 0.179,0.664 0.055,0.754 -0.098,0.813 -0.25,0.82 -0.41,0.789 -0.551,0.711 -0.683,0.602 -0.789,0.457 -0.864,0.293 -0.902,0.109 -0.906,-0.078 -0.875,-0.258 -0.805,-0.418 -0.707,-0.558 -0.586,-0.661 -0.437,-0.73 -0.285,-0.754 -0.129,-0.73 0.019,-0.672 0.156,-0.567 0.27,-0.433 0.352,-0.274 0.406,-0.09 0.418,0.09 0.398,0.274 0.34,0.445 0.246,0.59 0.133,0.703 -0.008,0.785 -0.156,0.82 -0.316,0.813 -0.469,0.762 -0.606,0.672 -0.73,0.546 -0.821,0.391 -0.886,0.219 L 2.52,126.629 1.621,126.477 0.77,126.152 0,125.672"
         style="fill:none;stroke:#000000;stroke-width:0.6144;stroke-linecap:square;stroke-linejoin:miter;stroke-miterlimit:3.25;stroke-dasharray:none;stroke-opacity:1"
         id="path20" />
      <text
         xml:space="preserve"
         transform="translate(16.513674,141.36923)"
         style="font-variant:normal;font-size:14.16px;font-family:CairoFont-0;-inkscape-font-specification:CairoFont-0-0;writing-mode:lr-tb;fill:#000000;fill-opacity:1;fill-rule:nonzero;stroke:none"
         id="text24"><tspan
           x="0"
           y="0"
           id="tspan22">g</tspan></text>
      <path
         d="M 111.711,97.746 H 75.402"
         style="fill:none;stroke:#000000;stroke-width:0.6144;stroke-linecap:square;stroke-linejoin:miter;stroke-miterlimit:3.25;stroke-dasharray:none;stroke-opacity:1"
         id="path26" />
      <path
         d="M 96.906,97.746 90.207,95.512 V 99.98 Z"
         style="fill:#000000;fill-opacity:1;fill-rule:evenodd;stroke:none"
         id="path28" />
      <text
         xml:space="preserve"
         transform="translate(89.320036,89.309833)"
         style="font-variant:normal;font-size:14.16px;font-family:CairoFont-0;-inkscape-font-specification:CairoFont-0-0;writing-mode:lr-tb;fill:#000000;fill-opacity:1;fill-rule:nonzero;stroke:none"
         id="text32"><tspan
           x="0"
           y="0"
           id="tspan30">u</tspan></text>
      <path
         d="m 39.098,75.402 v 44.684"
         style="fill:none;stroke:#000000;stroke-width:0.6144;stroke-linecap:square;stroke-linejoin:miter;stroke-miterlimit:3.25;stroke-dasharray:none;stroke-opacity:1"
         id="path34" />
      <path
         d="m 39.098,101.098 -2.235,-6.703 h 4.469 z"
         style="fill:#000000;fill-opacity:1;fill-rule:evenodd;stroke:none"
         id="path36" />
      <text
         xml:space="preserve"
         transform="translate(25.346154,102.81577)"
         style="font-variant:normal;font-size:14.16px;font-family:CairoFont-0;-inkscape-font-specification:CairoFont-0-0;writing-mode:lr-tb;fill:#000000;fill-opacity:1;fill-rule:nonzero;stroke:none"
         id="text40"><tspan
           x="0"
           y="0"
           id="tspan38">u</tspan></text>
      <path
         d="m 75.402,97.746 -0.847,0.117 -0.864,-0.031 -0.843,-0.184 -0.797,-0.336 -0.723,-0.476 -0.621,-0.602 -0.5,-0.703 -0.367,-0.777 -0.231,-0.824 -0.086,-0.832 0.051,-0.809 0.168,-0.758 0.278,-0.668 0.355,-0.558 0.414,-0.43 0.434,-0.281 0.425,-0.129 0.391,0.023 0.324,0.168 0.231,0.297 0.117,0.41 -0.016,0.496 -0.148,0.547 -0.293,0.571 -0.434,0.558 -0.558,0.516 -0.668,0.441 -0.762,0.336 -0.82,0.211 -0.856,0.07 -0.863,-0.082 -0.832,-0.234 -0.773,-0.387 -0.692,-0.519 -0.582,-0.637 -0.461,-0.73 -0.32,-0.797 -0.184,-0.832 -0.039,-0.829 0.09,-0.792 0.211,-0.731 0.305,-0.637 0.379,-0.519 0.421,-0.379 0.434,-0.234 0.418,-0.079 0.371,0.075 0.293,0.211 0.195,0.339 0.078,0.442 -0.058,0.515 -0.199,0.559 -0.336,0.57 -0.477,0.547 -0.597,0.496 -0.704,0.407 -0.781,0.296 -0.84,0.168 -0.859,0.02 -0.856,-0.133 -0.816,-0.285 -0.75,-0.43 -0.656,-0.562 -0.543,-0.672 -0.414,-0.754 -0.278,-0.812 -0.132,-0.833 0.003,-0.824 0.129,-0.777 0.243,-0.699 0.336,-0.602 0.394,-0.473 0.43,-0.332 0.433,-0.183 0.407,-0.027 0.347,0.121 0.266,0.253 0.156,0.376 0.031,0.468 -0.101,0.535 -0.246,0.567 -0.383,0.566 -0.52,0.535 -0.632,0.465 -0.735,0.375 -0.801,0.258 -0.851,0.117 -0.86,-0.027 -0.847,-0.184 -0.797,-0.336 -0.723,-0.476 -0.621,-0.598 -0.504,-0.703 -0.367,-0.777 -0.23,-0.825 -0.086,-0.832 0.047,-0.812 0.168,-0.754 0.277,-0.672 0.355,-0.558 0.411,-0.43 0.433,-0.285 0.43,-0.129 0.39,0.023 0.325,0.164 0.23,0.301 0.117,0.406 -0.011,0.496 -0.149,0.547 -0.293,0.571 -0.43,0.558 -0.558,0.516 -0.668,0.441 -0.758,0.336 -0.824,0.211 -0.856,0.074 -0.859,-0.082 -0.832,-0.234 -0.777,-0.383 -0.692,-0.519 -0.582,-0.637 -0.461,-0.731 -0.324,-0.793 -0.184,-0.832 -0.039,-0.828 0.09,-0.797 0.207,-0.73 0.305,-0.637 0.375,-0.519 0.422,-0.383 0.437,-0.231 0.418,-0.082 0.371,0.071 0.297,0.215 0.196,0.335 0.078,0.442 -0.059,0.512 -0.195,0.562 -0.34,0.57 -0.473,0.547 -0.597,0.492 -0.7,0.411 -0.785,0.296 -0.836,0.168 -0.859,0.024 -0.856,-0.133 -0.816,-0.285 -0.75,-0.426 -0.66,-0.562 -0.543,-0.672 -0.418,-0.754 -0.277,-0.813"
         style="fill:none;stroke:#000000;stroke-width:0.6144;stroke-linecap:square;stroke-linejoin:miter;stroke-miterlimit:3.25;stroke-dasharray:none;stroke-opacity:1"
         id="path42" />
      <text
         xml:space="preserve"
         transform="translate(60.459301,76.093356)"
         style="font-variant:normal;font-size:14.16px;font-family:CairoFont-0;-inkscape-font-specification:CairoFont-0-0;writing-mode:lr-tb;fill:#000000;fill-opacity:1;fill-rule:nonzero;stroke:none"
         id="text46"><tspan
           x="0"
           y="0"
           id="tspan44">g</tspan></text>
      <path
         d="M 39.098,120.086 75.402,97.746"
         style="fill:none;stroke:#000000;stroke-width:0.6144;stroke-linecap:square;stroke-linejoin:miter;stroke-miterlimit:3.25;stroke-dasharray:none;stroke-opacity:1"
         id="path48" />
      <path
         d="m 60.105,107.16 -4.539,5.414 -2.339,-3.804 z"
         style="fill:#000000;fill-opacity:1;fill-rule:evenodd;stroke:none"
         id="path50" />
      <text
         xml:space="preserve"
         transform="translate(58.410176,126.20835)"
         style="font-variant:normal;font-size:14.16px;font-family:CairoFont-0;-inkscape-font-specification:CairoFont-0-0;writing-mode:lr-tb;fill:#000000;fill-opacity:1;fill-rule:nonzero;stroke:none"
         id="text54"><tspan
           x="0"
           y="0"
           id="tspan52">u</tspan></text>
      <path
         d="m 41.555,75.402 c 0,0.653 -0.258,1.278 -0.719,1.739 -0.461,0.461 -1.086,0.718 -1.738,0.718 -0.653,0 -1.278,-0.257 -1.739,-0.718 -0.461,-0.461 -0.718,-1.086 -0.718,-1.739 0,-0.652 0.257,-1.277 0.718,-1.738 0.461,-0.461 1.086,-0.719 1.739,-0.719 0.652,0 1.277,0.258 1.738,0.719 0.461,0.461 0.719,1.086 0.719,1.738 z"
         style="fill:#000000;fill-opacity:1;fill-rule:evenodd;stroke:none"
         id="path56" />
      <path
         d="m 41.555,120.086 c 0,0.652 -0.258,1.277 -0.719,1.738 -0.461,0.461 -1.086,0.719 -1.738,0.719 -0.653,0 -1.278,-0.258 -1.739,-0.719 -0.461,-0.461 -0.718,-1.086 -0.718,-1.738 0,-0.652 0.257,-1.277 0.718,-1.738 0.461,-0.461 1.086,-0.719 1.739,-0.719 0.652,0 1.277,0.258 1.738,0.719 0.461,0.461 0.719,1.086 0.719,1.738 z"
         style="fill:#000000;fill-opacity:1;fill-rule:evenodd;stroke:none"
         id="path58" />
      <path
         d="m 77.859,97.746 c 0,0.652 -0.257,1.277 -0.718,1.738 -0.461,0.461 -1.086,0.719 -1.739,0.719 -0.652,0 -1.277,-0.258 -1.738,-0.719 -0.461,-0.461 -0.719,-1.086 -0.719,-1.738 0,-0.652 0.258,-1.277 0.719,-1.738 0.461,-0.461 1.086,-0.719 1.738,-0.719 0.653,0 1.278,0.258 1.739,0.719 0.461,0.461 0.718,1.086 0.718,1.738 z"
         style="fill:#000000;fill-opacity:1;fill-rule:evenodd;stroke:none"
         id="path60" />
    </g>
    <g
       id="g62">
      <g
         id="g64"
         clip-path="url(#clipPath68)">
        <text
           xml:space="preserve"
           transform="translate(52.799858,153.92398)"
           style="font-variant:normal;font-size:11.28px;font-family:CairoFont-1;-inkscape-font-specification:CairoFont-1-0;writing-mode:lr-tb;fill:#000000;fill-opacity:1;fill-rule:nonzero;stroke:none"
           id="text72"><tspan
             x="0"
             y="0"
             id="tspan70">1</tspan></text>
      </g>
    </g>
    <g
       id="g74">
      <path
         d="m 122.879,69.816 39.098,5.586"
         style="fill:none;stroke:#000000;stroke-width:0.6144;stroke-linecap:square;stroke-linejoin:miter;stroke-miterlimit:3.25;stroke-dasharray:none;stroke-opacity:1"
         id="path76" />
      <path
         d="m 145.746,73.086 -6.949,1.262 0.629,-4.422 z"
         style="fill:#000000;fill-opacity:1;fill-rule:evenodd;stroke:none"
         id="path78" />
      <text
         xml:space="preserve"
         transform="translate(139.41711,64.262299)"
         style="font-variant:normal;font-size:14.16px;font-family:CairoFont-0;-inkscape-font-specification:CairoFont-0-0;writing-mode:lr-tb;fill:#000000;fill-opacity:1;fill-rule:nonzero;stroke:none"
         id="text82"><tspan
           x="0"
           y="0"
           id="tspan80">u</tspan></text>
      <path
         d="m 161.977,120.086 -0.602,0.676 -0.727,0.55 -0.82,0.399 -0.883,0.219 -0.91,0.039 -0.898,-0.145 -0.852,-0.32 -0.773,-0.477 -0.66,-0.601 -0.532,-0.692 -0.382,-0.742 -0.227,-0.75 -0.07,-0.715 0.074,-0.636 0.203,-0.52 0.305,-0.375 0.375,-0.203 0.414,-0.023 0.414,0.16 0.383,0.34 0.308,0.503 0.207,0.637 0.082,0.738 -0.066,0.805 -0.215,0.82 -0.375,0.801 -0.523,0.731 -0.657,0.629 -0.769,0.492 -0.848,0.328 -0.898,0.148 -0.91,-0.039 -0.883,-0.218 -0.824,-0.383 -0.731,-0.532 -0.613,-0.644 -0.469,-0.715 -0.32,-0.754 -0.164,-0.738 -0.008,-0.688 0.129,-0.593 0.246,-0.465 0.336,-0.309 0.398,-0.133 0.418,0.051 0.406,0.238 0.352,0.407 0.273,0.562 0.161,0.684 0.023,0.769 -0.125,0.817 -0.281,0.816 -0.438,0.777 -0.578,0.696 -0.707,0.578 -0.805,0.426 -0.871,0.258 -0.906,0.07 -0.902,-0.11 -0.867,-0.289 -0.79,-0.449 -0.683,-0.578 -0.559,-0.68 -0.41,-0.734 -0.258,-0.754 -0.097,-0.723 0.047,-0.652 0.179,-0.547 0.289,-0.402 0.364,-0.242 0.41,-0.059 0.418,0.129 0.39,0.309 0.325,0.472 0.226,0.614 0.109,0.722 -0.035,0.793 -0.187,0.824 -0.348,0.805 -0.496,0.75 -0.633,0.652 -0.746,0.516 -0.836,0.363 -0.89,0.184 -0.911,-0.004 -0.894,-0.184 -0.836,-0.355 -0.75,-0.508 -0.637,-0.621 -0.5,-0.707 -0.347,-0.75 -0.192,-0.746 -0.039,-0.699 0.102,-0.614 0.226,-0.492 0.324,-0.34 0.387,-0.168 0.418,0.016 0.41,0.203 0.367,0.375 0.29,0.535 0.183,0.664 0.051,0.754 -0.098,0.813 -0.25,0.82 -0.406,0.789 -0.555,0.711 -0.683,0.602 -0.789,0.457 -0.86,0.293 -0.906,0.109 -0.906,-0.078 -0.875,-0.258 -0.805,-0.418 -0.707,-0.558 -0.582,-0.661 -0.441,-0.73 -0.285,-0.754 -0.129,-0.73 0.019,-0.672 0.156,-0.567 0.27,-0.433 0.355,-0.274 0.403,-0.09 0.418,0.09 0.398,0.274 0.34,0.445 0.25,0.59 0.129,0.703 -0.004,0.785 -0.16,0.82 -0.317,0.813 -0.464,0.762 -0.61,0.672 -0.73,0.546 -0.821,0.391 -0.882,0.219 -0.911,0.035 -0.898,-0.152 -0.852,-0.325 -0.769,-0.48"
         style="fill:none;stroke:#000000;stroke-width:0.6144;stroke-linecap:square;stroke-linejoin:miter;stroke-miterlimit:3.25;stroke-dasharray:none;stroke-opacity:1"
         id="path84" />
      <text
         xml:space="preserve"
         transform="translate(139.39367,141.36923)"
         style="font-variant:normal;font-size:14.16px;font-family:CairoFont-0;-inkscape-font-specification:CairoFont-0-0;writing-mode:lr-tb;fill:#000000;fill-opacity:1;fill-rule:nonzero;stroke:none"
         id="text88"><tspan
           x="0"
           y="0"
           id="tspan86">g</tspan></text>
      <path
         d="M 234.59,97.746 H 198.285"
         style="fill:none;stroke:#000000;stroke-width:0.6144;stroke-linecap:square;stroke-linejoin:miter;stroke-miterlimit:3.25;stroke-dasharray:none;stroke-opacity:1"
         id="path90" />
      <path
         d="m 219.789,97.746 -6.703,-2.234 v 4.468 z"
         style="fill:#000000;fill-opacity:1;fill-rule:evenodd;stroke:none"
         id="path92" />
      <text
         xml:space="preserve"
         transform="translate(212.20004,89.309833)"
         style="font-variant:normal;font-size:14.16px;font-family:CairoFont-0;-inkscape-font-specification:CairoFont-0-0;writing-mode:lr-tb;fill:#000000;fill-opacity:1;fill-rule:nonzero;stroke:none"
         id="text96"><tspan
           x="0"
           y="0"
           id="tspan94">u</tspan></text>
      <path
         d="m 161.977,120.086 -0.52,-0.637 -0.414,-0.719 -0.289,-0.785 -0.152,-0.82 -0.008,-0.832 0.136,-0.824 0.278,-0.785 0.398,-0.731 0.512,-0.648 0.598,-0.551 0.656,-0.442 0.691,-0.32 0.696,-0.203 0.664,-0.082 0.613,0.027 0.527,0.129 0.426,0.211 0.301,0.278 0.164,0.316 0.019,0.332 -0.125,0.324 -0.261,0.289 -0.391,0.231 -0.5,0.156 -0.59,0.059 -0.652,-0.051 -0.692,-0.168 -0.695,-0.289 -0.672,-0.406 -0.617,-0.52 -0.535,-0.625 -0.434,-0.707 -0.312,-0.77 -0.18,-0.816 -0.031,-0.832 0.109,-0.828 0.25,-0.797 0.383,-0.738 0.488,-0.664 0.586,-0.571 0.649,-0.461 0.687,-0.343 0.696,-0.227 0.675,-0.101 0.621,0.007 0.547,0.114 0.442,0.199 0.324,0.265 0.191,0.313 0.047,0.328 -0.097,0.328 -0.239,0.297 -0.371,0.246 -0.48,0.168 -0.578,0.078 -0.645,-0.031 -0.683,-0.145 -0.7,-0.265 -0.676,-0.391 -0.628,-0.5 -0.555,-0.605 -0.453,-0.692 -0.336,-0.761 -0.199,-0.813 -0.059,-0.832 0.082,-0.828 0.227,-0.801 0.359,-0.754 0.473,-0.679 0.57,-0.586 0.637,-0.481 0.683,-0.367 0.696,-0.246 0.679,-0.125 0.637,-0.008 0.563,0.094 0.46,0.183 0.348,0.258 0.215,0.301 0.07,0.332 -0.07,0.328 -0.215,0.305 -0.348,0.258 -0.46,0.183 -0.563,0.094 -0.637,-0.008 -0.679,-0.125 -0.696,-0.246 -0.683,-0.367 -0.637,-0.48 -0.57,-0.59 -0.473,-0.676 -0.359,-0.754 -0.227,-0.801 -0.082,-0.832 0.059,-0.832 0.199,-0.808 0.336,-0.762 0.453,-0.695 0.555,-0.602 0.628,-0.504 0.676,-0.387 0.7,-0.265 0.683,-0.149 0.645,-0.027 0.578,0.074 0.48,0.172 0.371,0.242 0.239,0.301 0.097,0.324 -0.047,0.332 -0.191,0.313 -0.324,0.265 -0.442,0.2 -0.547,0.109 -0.621,0.012 -0.675,-0.106 -0.696,-0.222 -0.687,-0.344 -0.649,-0.465 -0.586,-0.566 -0.488,-0.665 -0.383,-0.742 -0.25,-0.793 -0.109,-0.828 0.031,-0.832 0.18,-0.816 0.312,-0.774 0.434,-0.707 0.535,-0.621 0.617,-0.519 0.672,-0.41 0.695,-0.29 0.692,-0.168 0.652,-0.046 0.59,0.058 0.5,0.153 0.391,0.234 0.261,0.289 0.125,0.324 -0.019,0.332 -0.164,0.317 -0.301,0.273 -0.426,0.215 -0.527,0.129 -0.613,0.027 -0.664,-0.082 -0.696,-0.203 -0.691,-0.324 -0.656,-0.442 -0.598,-0.55 -0.512,-0.649 -0.398,-0.726 -0.278,-0.789 -0.136,-0.821 0.008,-0.836 0.152,-0.82 0.289,-0.781 0.414,-0.719 0.52,-0.641"
         style="fill:none;stroke:#000000;stroke-width:0.6144;stroke-linecap:square;stroke-linejoin:miter;stroke-miterlimit:3.25;stroke-dasharray:none;stroke-opacity:1"
         id="path98" />
      <text
         xml:space="preserve"
         transform="translate(148.17928,102.81577)"
         style="font-variant:normal;font-size:14.16px;font-family:CairoFont-0;-inkscape-font-specification:CairoFont-0-0;writing-mode:lr-tb;fill:#000000;fill-opacity:1;fill-rule:nonzero;stroke:none"
         id="text102"><tspan
           x="0"
           y="0"
           id="tspan100">g</tspan></text>
      <path
         d="m 161.977,75.402 36.308,22.344"
         style="fill:none;stroke:#000000;stroke-width:0.6144;stroke-linecap:square;stroke-linejoin:miter;stroke-miterlimit:3.25;stroke-dasharray:none;stroke-opacity:1"
         id="path104" />
      <path
         d="m 182.984,88.332 -6.879,-1.609 2.344,-3.809 z"
         style="fill:#000000;fill-opacity:1;fill-rule:evenodd;stroke:none"
         id="path106" />
      <text
         xml:space="preserve"
         transform="translate(181.29018,79.423185)"
         style="font-variant:normal;font-size:14.16px;font-family:CairoFont-0;-inkscape-font-specification:CairoFont-0-0;writing-mode:lr-tb;fill:#000000;fill-opacity:1;fill-rule:nonzero;stroke:none"
         id="text110"><tspan
           x="0"
           y="0"
           id="tspan108">u</tspan></text>
      <path
         d="m 198.285,97.746 -0.277,0.809 -0.418,0.757 -0.543,0.672 -0.66,0.559 -0.75,0.43 -0.817,0.285 -0.855,0.129 -0.86,-0.024 -0.839,-0.164 -0.782,-0.301 -0.699,-0.406 -0.597,-0.496 -0.473,-0.547 -0.34,-0.57 -0.195,-0.559 -0.059,-0.515 0.078,-0.442 0.196,-0.336 0.296,-0.211 0.371,-0.07 0.418,0.078 0.434,0.235 0.422,0.382 0.379,0.52 0.305,0.637 0.207,0.73 0.089,0.793 -0.043,0.832 -0.179,0.828 -0.324,0.797 -0.461,0.731 -0.586,0.636 -0.692,0.52 -0.773,0.383 -0.832,0.234 -0.86,0.078 -0.859,-0.07 -0.82,-0.211 -0.758,-0.34 -0.668,-0.437 -0.559,-0.516 -0.429,-0.559 -0.293,-0.574 -0.149,-0.547 -0.011,-0.492 0.117,-0.41 0.23,-0.297 0.324,-0.168 0.391,-0.023 0.426,0.132 0.437,0.286 0.41,0.425 0.356,0.563 0.273,0.672 0.172,0.754 0.047,0.812 -0.086,0.832 -0.23,0.82 -0.371,0.778 -0.5,0.703 -0.625,0.602 -0.723,0.476 -0.797,0.332 -0.844,0.184 -0.863,0.031 -0.848,-0.121 -0.804,-0.254 -0.731,-0.375 -0.633,-0.469 -0.519,-0.531 -0.383,-0.566 -0.246,-0.571 -0.105,-0.531 0.035,-0.469 0.156,-0.375 0.266,-0.258 0.347,-0.121 0.406,0.032 0.434,0.179 0.43,0.332 0.394,0.477 0.332,0.598 0.243,0.703 0.132,0.777 0.004,0.82 -0.133,0.832 -0.277,0.813 -0.414,0.758 -0.543,0.672 -0.66,0.558 -0.75,0.43 -0.817,0.285 -0.851,0.133 -0.863,-0.02 -0.836,-0.164 -0.782,-0.301 -0.703,-0.406 -0.597,-0.492 -0.477,-0.547 -0.34,-0.57 -0.195,-0.563 -0.059,-0.515 0.075,-0.442 0.195,-0.336 0.297,-0.215 0.371,-0.07 0.418,0.078 0.433,0.231 0.422,0.383 0.379,0.515 0.305,0.637 0.211,0.73 0.09,0.797 -0.043,0.828 -0.18,0.828 -0.324,0.797 -0.457,0.735 -0.582,0.636 -0.692,0.52 -0.777,0.383 -0.832,0.234 -0.859,0.082 -0.856,-0.07 -0.824,-0.211 -0.758,-0.336 -0.672,-0.437 -0.558,-0.516 -0.43,-0.559 -0.293,-0.57 -0.152,-0.551 -0.012,-0.492 0.117,-0.41 0.231,-0.301 0.324,-0.168 0.39,-0.023 0.426,0.129 0.434,0.285 0.41,0.426 0.359,0.558 0.274,0.672 0.172,0.754 0.05,0.812 -0.086,0.832 -0.23,0.821 -0.367,0.781 -0.504,0.703 -0.621,0.602 -0.719,0.476 -0.797,0.332 -0.847,0.188 -0.86,0.031 -0.851,-0.121"
         style="fill:none;stroke:#000000;stroke-width:0.6144;stroke-linecap:square;stroke-linejoin:miter;stroke-miterlimit:3.25;stroke-dasharray:none;stroke-opacity:1"
         id="path112" />
      <text
         xml:space="preserve"
         transform="translate(181.29018,126.20835)"
         style="font-variant:normal;font-size:14.16px;font-family:CairoFont-0;-inkscape-font-specification:CairoFont-0-0;writing-mode:lr-tb;fill:#000000;fill-opacity:1;fill-rule:nonzero;stroke:none"
         id="text116"><tspan
           x="0"
           y="0"
           id="tspan114">g</tspan></text>
      <path
         d="m 164.438,75.402 c 0,0.653 -0.262,1.278 -0.723,1.739 -0.461,0.461 -1.086,0.718 -1.738,0.718 -0.649,0 -1.274,-0.257 -1.735,-0.718 -0.461,-0.461 -0.722,-1.086 -0.722,-1.739 0,-0.652 0.261,-1.277 0.722,-1.738 0.461,-0.461 1.086,-0.719 1.735,-0.719 0.652,0 1.277,0.258 1.738,0.719 0.461,0.461 0.723,1.086 0.723,1.738 z"
         style="fill:#000000;fill-opacity:1;fill-rule:evenodd;stroke:none"
         id="path118" />
      <path
         d="m 164.438,120.086 c 0,0.652 -0.262,1.277 -0.723,1.738 -0.461,0.461 -1.086,0.719 -1.738,0.719 -0.649,0 -1.274,-0.258 -1.735,-0.719 -0.461,-0.461 -0.722,-1.086 -0.722,-1.738 0,-0.652 0.261,-1.277 0.722,-1.738 0.461,-0.461 1.086,-0.719 1.735,-0.719 0.652,0 1.277,0.258 1.738,0.719 0.461,0.461 0.723,1.086 0.723,1.738 z"
         style="fill:#000000;fill-opacity:1;fill-rule:evenodd;stroke:none"
         id="path120" />
      <path
         d="m 200.742,97.746 c 0,0.652 -0.262,1.277 -0.722,1.738 -0.461,0.461 -1.086,0.719 -1.735,0.719 -0.652,0 -1.277,-0.258 -1.738,-0.719 -0.461,-0.461 -0.723,-1.086 -0.723,-1.738 0,-0.652 0.262,-1.277 0.723,-1.738 0.461,-0.461 1.086,-0.719 1.738,-0.719 0.649,0 1.274,0.258 1.735,0.719 0.46,0.461 0.722,1.086 0.722,1.738 z"
         style="fill:#000000;fill-opacity:1;fill-rule:evenodd;stroke:none"
         id="path122" />
    </g>
    <g
       id="g124">
      <g
         id="g126"
         clip-path="url(#clipPath130)">
        <text
           xml:space="preserve"
           transform="translate(175.67986,153.92398)"
           style="font-variant:normal;font-size:11.28px;font-family:CairoFont-1;-inkscape-font-specification:CairoFont-1-0;writing-mode:lr-tb;fill:#000000;fill-opacity:1;fill-rule:nonzero;stroke:none"
           id="text134"><tspan
             x="0"
             y="0"
             id="tspan132">2</tspan></text>
      </g>
    </g>
    <g
       id="g136">
      <path
         d="m 245.762,69.816 50.265,27.93"
         style="fill:none;stroke:#000000;stroke-width:0.6144;stroke-linecap:square;stroke-linejoin:miter;stroke-miterlimit:3.25;stroke-dasharray:none;stroke-opacity:1"
         id="path138" />
      <path
         d="m 273.824,85.41 -6.945,-1.305 2.172,-3.902 z"
         style="fill:#000000;fill-opacity:1;fill-rule:evenodd;stroke:none"
         id="path140" />
    </g>
    <g
       id="g142">
      <g
         id="g144"
         clip-path="url(#clipPath148)">
        <text
           xml:space="preserve"
           transform="translate(261.59554,101.26859)"
           style="font-variant:normal;font-size:14.16px;font-family:CairoFont-0;-inkscape-font-specification:CairoFont-0-0;writing-mode:lr-tb;fill:#000000;fill-opacity:1;fill-rule:nonzero;stroke:none"
           id="text152"><tspan
             x="0"
             y="0"
             id="tspan150">u</tspan></text>
      </g>
    </g>
    <g
       id="g154">
      <path
         d="m 296.027,97.746 -0.32,0.816 -0.465,0.75 -0.597,0.653 -0.707,0.535 -0.793,0.391 -0.856,0.234 -0.879,0.074 -0.879,-0.082 -0.836,-0.234 -0.773,-0.36 -0.676,-0.468 -0.558,-0.547 -0.426,-0.586 -0.282,-0.594 -0.132,-0.566 0.007,-0.504 0.141,-0.406 0.25,-0.29 0.34,-0.144 0.402,0.008 0.43,0.172 0.426,0.328 0.39,0.48 0.321,0.606 0.23,0.718 0.113,0.793 -0.023,0.836 -0.164,0.848 -0.313,0.816 -0.457,0.758 -0.586,0.664 -0.699,0.543 -0.789,0.403 -0.847,0.246 -0.883,0.086 -0.875,-0.071 -0.844,-0.222 -0.777,-0.356 -0.684,-0.461 -0.57,-0.539 -0.434,-0.586 -0.293,-0.593 -0.144,-0.571 v -0.508 l 0.129,-0.418 0.242,-0.296 0.336,-0.157 0.394,-0.004 0.43,0.161 0.426,0.316 0.394,0.469 0.328,0.597 0.239,0.711 0.121,0.789 -0.012,0.832 -0.152,0.848 -0.301,0.82 -0.445,0.766 -0.579,0.672 -0.691,0.551 -0.781,0.414 -0.848,0.258 -0.879,0.101 -0.879,-0.062 -0.847,-0.211 -0.786,-0.344 -0.691,-0.453 -0.578,-0.535 -0.445,-0.586 -0.301,-0.594 -0.156,-0.574 -0.012,-0.512 0.121,-0.426 0.234,-0.308 0.328,-0.168 0.395,-0.012 0.426,0.144 0.429,0.305 0.399,0.457 0.332,0.59 0.246,0.703 0.129,0.781 v 0.836 l -0.145,0.844 -0.289,0.828 -0.433,0.766 -0.567,0.68 -0.683,0.562 -0.778,0.426 -0.843,0.269 -0.879,0.114 -0.879,-0.051 -0.852,-0.199 -0.789,-0.336 -0.699,-0.446 -0.586,-0.531 -0.457,-0.582 -0.312,-0.594 -0.168,-0.578 -0.024,-0.519 0.113,-0.43 0.227,-0.316 0.324,-0.18 0.387,-0.027 0.426,0.132 0.429,0.297 0.403,0.446 0.34,0.578 0.253,0.695 0.137,0.777 0.012,0.832 -0.133,0.848 -0.281,0.828 -0.422,0.774 -0.559,0.683 -0.675,0.574 -0.77,0.434 -0.84,0.285 -0.875,0.121 -0.883,-0.035 -0.851,-0.191 -0.797,-0.325 -0.707,-0.437 -0.598,-0.527 -0.465,-0.578 -0.324,-0.594 -0.179,-0.582 -0.032,-0.524 0.102,-0.441 0.219,-0.324 0.316,-0.192 0.387,-0.039 0.422,0.125 0.429,0.281 0.407,0.434 0.343,0.57 0.262,0.688 0.148,0.773 0.02,0.828 -0.121,0.848 -0.27,0.828 -0.41,0.781 -0.551,0.696 -0.668,0.578 -0.761,0.449 -0.836,0.293 -0.875,0.137 -0.883,-0.028 -0.856,-0.175 -0.8,-0.317 -0.715,-0.433 -0.606,-0.52 -0.476,-0.574 -0.336,-0.598 -0.188,-0.578 -0.043,-0.531 0.09,-0.449 0.211,-0.336 0.313,-0.2 0.379,-0.05 0.421,0.109 0.434,0.27 0.406,0.425 0.352,0.563 0.266,0.676 0.16,0.769 0.027,0.824 -0.109,0.848 -0.258,0.832 -0.402,0.785 -0.54,0.699 -0.656,0.594 -0.762,0.457 -0.828,0.305 -0.875,0.148 -0.882,-0.015 -0.86,-0.164 -0.805,-0.309 -0.722,-0.422 -0.613,-0.515 -0.489,-0.575 -0.344,-0.593 -0.203,-0.582 -0.054,-0.536 0.082,-0.457 0.207,-0.343 0.301,-0.211 0.378,-0.063 0.418,0.098 0.434,0.258 0.41,0.41 0.356,0.555 0.273,0.671 0.168,0.762 0.039,0.82 -0.098,0.848 -0.246,0.832 -0.394,0.789 -0.528,0.711 -0.652,0.602 -0.75,0.465 -0.828,0.32 -0.867,0.16 -0.887,-0.004 -0.859,-0.156"
         style="fill:none;stroke:#000000;stroke-width:0.6144;stroke-linecap:square;stroke-linejoin:miter;stroke-miterlimit:3.25;stroke-dasharray:none;stroke-opacity:1"
         id="path156" />
      <text
         xml:space="preserve"
         transform="translate(271.72089,129.19586)"
         style="font-variant:normal;font-size:14.16px;font-family:CairoFont-0;-inkscape-font-specification:CairoFont-0-0;writing-mode:lr-tb;fill:#000000;fill-opacity:1;fill-rule:nonzero;stroke:none"
         id="text160"><tspan
           x="0"
           y="0"
           id="tspan158">g</tspan></text>
      <path
         d="M 357.469,97.746 H 296.027"
         style="fill:none;stroke:#000000;stroke-width:0.6144;stroke-linecap:square;stroke-linejoin:miter;stroke-miterlimit:3.25;stroke-dasharray:none;stroke-opacity:1"
         id="path162" />
      <path
         d="m 330.102,97.746 -6.704,-2.234 v 4.468 z"
         style="fill:#000000;fill-opacity:1;fill-rule:evenodd;stroke:none"
         id="path164" />
      <text
         xml:space="preserve"
         transform="translate(322.51276,89.309833)"
         style="font-variant:normal;font-size:14.16px;font-family:CairoFont-0;-inkscape-font-specification:CairoFont-0-0;writing-mode:lr-tb;fill:#000000;fill-opacity:1;fill-rule:nonzero;stroke:none"
         id="text168"><tspan
           x="0"
           y="0"
           id="tspan166">u</tspan></text>
      <path
         d="m 293.238,100.539 5.582,-5.586"
         style="fill:none;stroke:#000000;stroke-width:1.8432;stroke-linecap:square;stroke-linejoin:miter;stroke-miterlimit:3.25;stroke-dasharray:none;stroke-opacity:1"
         id="path170" />
      <path
         d="m 293.238,94.953 5.582,5.586"
         style="fill:none;stroke:#000000;stroke-width:1.8432;stroke-linecap:square;stroke-linejoin:miter;stroke-miterlimit:3.25;stroke-dasharray:none;stroke-opacity:1"
         id="path172" />
    </g>
    <g
       id="g174">
      <g
         id="g176"
         clip-path="url(#clipPath180)">
        <text
           xml:space="preserve"
           transform="translate(298.55986,153.92398)"
           style="font-variant:normal;font-size:11.28px;font-family:CairoFont-1;-inkscape-font-specification:CairoFont-1-0;writing-mode:lr-tb;fill:#000000;fill-opacity:1;fill-rule:nonzero;stroke:none"
           id="text184"><tspan
             x="0"
             y="0"
             id="tspan182">3</tspan></text>
      </g>
    </g>
  </g>
</svg>
