<?xml version="1.0" encoding="UTF-8" standalone="no"?>
<!-- Created with Inkscape (http://www.inkscape.org/) -->

<svg
   version="1.1"
   id="svg2"
   width="492"
   height="246.66667"
   viewBox="0 0 492 246.66667"
   sodipodi:docname="1m1jhfclhy7cu.pdf"
   xmlns:inkscape="http://www.inkscape.org/namespaces/inkscape"
   xmlns:sodipodi="http://sodipodi.sourceforge.net/DTD/sodipodi-0.dtd"
   xmlns="http://www.w3.org/2000/svg"
   xmlns:svg="http://www.w3.org/2000/svg">
  <defs
     id="defs6">
    <clipPath
       clipPathUnits="userSpaceOnUse"
       id="clipPath44">
      <path
         d="M 77,49 H 90.961 V 66 H 77 Z"
         id="path42" />
    </clipPath>
    <clipPath
       clipPathUnits="userSpaceOnUse"
       id="clipPath62">
      <path
         d="m 80,172 h 5 v 12.32 h -5 z"
         id="path60" />
    </clipPath>
    <clipPath
       clipPathUnits="userSpaceOnUse"
       id="clipPath96">
      <path
         d="m 263,172 h 10 v 12.32 h -10 z"
         id="path94" />
    </clipPath>
  </defs>
  <sodipodi:namedview
     id="namedview4"
     pagecolor="#ffffff"
     bordercolor="#999999"
     borderopacity="1"
     inkscape:showpageshadow="0"
     inkscape:pageopacity="0"
     inkscape:pagecheckerboard="0"
     inkscape:deskcolor="#d1d1d1" />
  <g
     id="g8"
     inkscape:groupmode="layer"
     inkscape:label="1m1jhfclhy7cu"
     transform="matrix(1.3333333,0,0,1.3333333,0,9.5e-6)">
    <g
       id="g10">
      <path
         d="M 0,100.539 H 50.27"
         style="fill:none;stroke:#000000;stroke-width:0.9216;stroke-linecap:butt;stroke-linejoin:miter;stroke-miterlimit:3.25;stroke-dasharray:0.9216, 5.5296;stroke-dashoffset:0;stroke-opacity:1"
         id="path12" />
      <path
         d="m 30.16,100.539 -10.051,3.352 v -6.703 z"
         style="fill:#000000;fill-opacity:1;fill-rule:evenodd;stroke:none"
         id="path14" />
      <text
         xml:space="preserve"
         transform="translate(11.134545,128.41036)"
         style="font-variant:normal;font-size:21.12px;font-family:CairoFont-0;-inkscape-font-specification:CairoFont-0-0;writing-mode:lr-tb;fill:#000000;fill-opacity:1;fill-rule:nonzero;stroke:none"
         id="text18"><tspan
           x="0 11.74272"
           y="0"
           sodipodi:role="line"
           id="tspan16">uG</tspan></text>
      <path
         d="M 167.562,100.539 H 117.293"
         style="fill:none;stroke:#000000;stroke-width:0.9216;stroke-linecap:butt;stroke-linejoin:miter;stroke-miterlimit:3.25;stroke-dasharray:0.9216, 5.5296;stroke-dashoffset:0;stroke-opacity:1"
         id="path20" />
      <path
         d="m 147.457,100.539 -10.055,-3.351 v 6.703 z"
         style="fill:#000000;fill-opacity:1;fill-rule:evenodd;stroke:none"
         id="path22" />
      <text
         xml:space="preserve"
         transform="translate(128.42909,87.884749)"
         style="font-variant:normal;font-size:21.12px;font-family:CairoFont-0;-inkscape-font-specification:CairoFont-0-0;writing-mode:lr-tb;fill:#000000;fill-opacity:1;fill-rule:nonzero;stroke:none"
         id="text26"><tspan
           x="0 11.74272"
           y="0"
           sodipodi:role="line"
           id="tspan24">uG</tspan></text>
      <path
         d="m 50.27,100.539 c 2.3,10.223 9.14,18.836 18.578,23.391 9.433,4.558 20.433,4.558 29.871,0 9.433,-4.555 16.277,-13.168 18.574,-23.391"
         style="fill:none;stroke:#000000;stroke-width:0.9216;stroke-linecap:butt;stroke-linejoin:miter;stroke-miterlimit:3.25;stroke-dasharray:0.9216, 5.5296;stroke-dashoffset:0;stroke-opacity:1"
         id="path28" />
      <path
         d="m 88.809,127.348 -10.055,3.351 v -6.703 z"
         style="fill:#000000;fill-opacity:1;fill-rule:evenodd;stroke:none"
         id="path30" />
      <text
         xml:space="preserve"
         transform="translate(69.781818,155.22055)"
         style="font-variant:normal;font-size:21.12px;font-family:CairoFont-0;-inkscape-font-specification:CairoFont-0-0;writing-mode:lr-tb;fill:#000000;fill-opacity:1;fill-rule:nonzero;stroke:none"
         id="text34"><tspan
           x="0 11.74272"
           y="0"
           sodipodi:role="line"
           id="tspan32">uG</tspan></text>
      <path
         d="m 117.293,100.539 0.531,-1.133 0.301,-1.25 0.051,-1.308 -0.215,-1.313 -0.469,-1.254 -0.703,-1.129 -0.902,-0.957 -1.055,-0.742 -1.148,-0.508 -1.188,-0.265 -1.18,-0.039 -1.125,0.164 -1.027,0.332 -0.898,0.453 -0.754,0.527 -0.582,0.563 -0.407,0.55 -0.218,0.512 -0.028,0.434 0.157,0.34 0.332,0.226 0.496,0.098 0.629,-0.043 0.738,-0.192 0.805,-0.355 0.824,-0.52 0.793,-0.687 0.715,-0.855 0.582,-1.008 0.398,-1.133 0.184,-1.231 -0.067,-1.273 -0.324,-1.262 -0.578,-1.195 -0.805,-1.066 -1,-0.883 -1.144,-0.66 -1.227,-0.415 -1.254,-0.16 -1.226,0.086 -1.153,0.309 -1.039,0.488 -0.894,0.629 -0.742,0.715 -0.575,0.75 -0.406,0.734 -0.238,0.68 -0.078,0.582 0.078,0.457 0.226,0.313 0.356,0.144 0.472,-0.023 0.563,-0.207 0.617,-0.383 0.641,-0.555 0.617,-0.723 0.543,-0.878 0.426,-1.016 0.261,-1.117 0.055,-1.196 -0.176,-1.218 -0.421,-1.192 -0.668,-1.113 -0.891,-0.977 -1.078,-0.789 L 100.59,75.84 99.301,75.531 98,75.484 l -1.258,0.207 -1.16,0.438 -1.02,0.629 -0.859,0.781 -0.683,0.875 -0.504,0.918 -0.332,0.91 -0.176,0.852 -0.035,0.754 0.093,0.617 0.204,0.449 0.292,0.27 0.368,0.074 0.425,-0.133 0.457,-0.328 0.458,-0.52 0.433,-0.695 0.359,-0.852 0.254,-0.98 0.11,-1.078 -0.078,-1.133 -0.289,-1.148 -0.516,-1.11 -0.738,-1.015 -0.953,-0.871 -1.125,-0.68 -1.258,-0.449 -1.321,-0.192 -1.328,0.071 -1.269,0.328 -1.153,0.562 -0.992,0.754 -0.804,0.906 -0.602,1.008 -0.402,1.051 -0.211,1.043 -0.051,0.988 0.09,0.895 0.199,0.761 0.277,0.598 0.332,0.41 0.36,0.211 h 0.375 l 0.363,-0.211 0.328,-0.41 0.278,-0.598 0.199,-0.761 0.09,-0.895 -0.047,-0.988 -0.215,-1.043 -0.403,-1.051 -0.601,-1.008 -0.805,-0.906 -0.992,-0.754 -1.152,-0.562 -1.27,-0.328 -1.324,-0.071 -1.324,0.192 -1.254,0.449 -1.129,0.68 -0.949,0.871 -0.742,1.015 -0.516,1.11 -0.289,1.148 -0.074,1.133 0.105,1.078 0.254,0.98 0.363,0.852 0.43,0.695 0.461,0.52 0.453,0.328 0.426,0.133 0.371,-0.074 0.293,-0.27 0.199,-0.449 0.094,-0.617 -0.031,-0.754 -0.176,-0.852 -0.336,-0.91 -0.504,-0.918 -0.68,-0.875 -0.859,-0.781 -1.024,-0.629 -1.16,-0.438 -1.258,-0.207 -1.3,0.047 -1.289,0.309 -1.211,0.562 -1.078,0.789 -0.887,0.977 -0.668,1.113 -0.426,1.192 -0.176,1.218 0.055,1.196 0.262,1.117 0.426,1.016 0.542,0.878 0.618,0.723 0.64,0.555 0.621,0.383 0.563,0.207 0.469,0.023 0.359,-0.144 0.223,-0.313 0.078,-0.457 -0.074,-0.582 -0.243,-0.68 -0.406,-0.734 -0.574,-0.75 -0.738,-0.715 -0.899,-0.629 -1.039,-0.488 -1.148,-0.309 -1.227,-0.086 -1.254,0.16 -1.23,0.415 -1.141,0.66 -1,0.883 -0.808,1.066 -0.579,1.195 -0.324,1.262 -0.062,1.273 0.179,1.231 0.403,1.133 0.578,1.008 0.715,0.855 0.797,0.687 0.824,0.52 0.801,0.355 0.738,0.192 0.633,0.043 0.492,-0.098 0.332,-0.226 0.156,-0.34 -0.027,-0.434 -0.219,-0.512 -0.406,-0.55 -0.582,-0.563 -0.75,-0.527 -0.903,-0.453 -1.027,-0.332 -1.121,-0.164 -1.18,0.039 -1.191,0.265 -1.149,0.508 -1.05,0.742 -0.903,0.957 -0.707,1.129 -0.468,1.254 -0.215,1.313 0.051,1.308 0.304,1.25 0.528,1.133"
         style="fill:none;stroke:#000000;stroke-width:0.9216;stroke-linecap:square;stroke-linejoin:miter;stroke-miterlimit:3.25;stroke-dasharray:none;stroke-opacity:1"
         id="path36" />
    </g>
    <g
       id="g38">
      <g
         id="g40"
         clip-path="url(#clipPath44)">
        <text
           xml:space="preserve"
           transform="translate(77.500568,61.074568)"
           style="font-variant:normal;font-size:21.12px;font-family:CairoFont-1;-inkscape-font-specification:CairoFont-1-0;writing-mode:lr-tb;fill:#000000;fill-opacity:1;fill-rule:nonzero;stroke:none"
           id="text48"><tspan
             x="0"
             y="0"
             id="tspan46">g</tspan></text>
      </g>
    </g>
    <g
       id="g50">
      <path
         d="m 53.957,100.539 c 0,0.977 -0.391,1.914 -1.082,2.606 -0.691,0.691 -1.629,1.078 -2.605,1.078 -0.977,0 -1.915,-0.387 -2.606,-1.078 -0.691,-0.692 -1.082,-1.629 -1.082,-2.606 0,-0.98 0.391,-1.918 1.082,-2.609 0.691,-0.692 1.629,-1.078 2.606,-1.078 0.976,0 1.914,0.386 2.605,1.078 0.691,0.691 1.082,1.629 1.082,2.609 z"
         style="fill:#000000;fill-opacity:1;fill-rule:evenodd;stroke:none"
         id="path52" />
      <path
         d="m 120.98,100.539 c 0,0.977 -0.386,1.914 -1.078,2.606 -0.691,0.691 -1.629,1.078 -2.609,1.078 -0.977,0 -1.914,-0.387 -2.605,-1.078 -0.692,-0.692 -1.079,-1.629 -1.079,-2.606 0,-0.98 0.387,-1.918 1.079,-2.609 0.691,-0.692 1.628,-1.078 2.605,-1.078 0.98,0 1.918,0.386 2.609,1.078 0.692,0.691 1.078,1.629 1.078,2.609 z"
         style="fill:#000000;fill-opacity:1;fill-rule:evenodd;stroke:none"
         id="path54" />
    </g>
    <g
       id="g56">
      <g
         id="g58"
         clip-path="url(#clipPath62)">
        <text
           xml:space="preserve"
           transform="translate(79.055256,184.68097)"
           style="font-variant:normal;font-size:16.8px;font-family:CairoFont-0;-inkscape-font-specification:CairoFont-0-0;writing-mode:lr-tb;fill:#000000;fill-opacity:1;fill-rule:nonzero;stroke:none"
           id="text66"><tspan
             x="0"
             y="0"
             id="tspan64">1</tspan></text>
      </g>
    </g>
    <g
       id="g68">
      <path
         d="m 184.32,100.539 h 83.782"
         style="fill:none;stroke:#000000;stroke-width:0.9216;stroke-linecap:butt;stroke-linejoin:miter;stroke-miterlimit:3.25;stroke-dasharray:0.9216, 5.5296;stroke-dashoffset:0;stroke-opacity:1"
         id="path70" />
      <path
         d="m 231.238,100.539 -10.054,3.352 v -6.703 z"
         style="fill:#000000;fill-opacity:1;fill-rule:evenodd;stroke:none"
         id="path72" />
      <text
         xml:space="preserve"
         transform="translate(212.21091,128.41036)"
         style="font-variant:normal;font-size:21.12px;font-family:CairoFont-0;-inkscape-font-specification:CairoFont-0-0;writing-mode:lr-tb;fill:#000000;fill-opacity:1;fill-rule:nonzero;stroke:none"
         id="text76"><tspan
           x="0 11.74272"
           y="0"
           sodipodi:role="line"
           id="tspan74">uG</tspan></text>
      <path
         d="M 351.883,100.539 H 268.102"
         style="fill:none;stroke:#000000;stroke-width:0.9216;stroke-linecap:butt;stroke-linejoin:miter;stroke-miterlimit:3.25;stroke-dasharray:0.9216, 5.5296;stroke-dashoffset:0;stroke-opacity:1"
         id="path78" />
      <path
         d="m 315.02,100.539 -10.055,-3.351 v 6.703 z"
         style="fill:#000000;fill-opacity:1;fill-rule:evenodd;stroke:none"
         id="path80" />
      <text
         xml:space="preserve"
         transform="translate(295.99273,87.884749)"
         style="font-variant:normal;font-size:21.12px;font-family:CairoFont-0;-inkscape-font-specification:CairoFont-0-0;writing-mode:lr-tb;fill:#000000;fill-opacity:1;fill-rule:nonzero;stroke:none"
         id="text84"><tspan
           x="0 11.74272"
           y="0"
           sodipodi:role="line"
           id="tspan82">uG</tspan></text>
      <path
         d="m 263.914,104.727 8.375,-8.379"
         style="fill:none;stroke:#000000;stroke-width:2.7648;stroke-linecap:square;stroke-linejoin:miter;stroke-miterlimit:3.25;stroke-dasharray:none;stroke-opacity:1"
         id="path86" />
      <path
         d="m 263.914,96.348 8.375,8.379"
         style="fill:none;stroke:#000000;stroke-width:2.7648;stroke-linecap:square;stroke-linejoin:miter;stroke-miterlimit:3.25;stroke-dasharray:none;stroke-opacity:1"
         id="path88" />
    </g>
    <g
       id="g90">
      <g
         id="g92"
         clip-path="url(#clipPath96)">
        <text
           xml:space="preserve"
           transform="translate(263.37526,184.68097)"
           style="font-variant:normal;font-size:16.8px;font-family:CairoFont-0;-inkscape-font-specification:CairoFont-0-0;writing-mode:lr-tb;fill:#000000;fill-opacity:1;fill-rule:nonzero;stroke:none"
           id="text100"><tspan
             x="0"
             y="0"
             id="tspan98">2</tspan></text>
      </g>
    </g>
  </g>
</svg>
