<?xml version="1.0" encoding="UTF-8" standalone="no"?>
<!-- Created with Inkscape (http://www.inkscape.org/) -->

<svg
   version="1.1"
   id="svg2"
   width="492"
   height="124"
   viewBox="0 0 492 124"
   sodipodi:docname="1m7b27sd00d0v.pdf"
   xmlns:inkscape="http://www.inkscape.org/namespaces/inkscape"
   xmlns:sodipodi="http://sodipodi.sourceforge.net/DTD/sodipodi-0.dtd"
   xmlns="http://www.w3.org/2000/svg"
   xmlns:svg="http://www.w3.org/2000/svg">
  <defs
     id="defs6">
    <clipPath
       clipPathUnits="userSpaceOnUse"
       id="clipPath26">
      <path
         d="m 59,61 h 7.961 v 9 H 59 Z"
         id="path24" />
    </clipPath>
    <clipPath
       clipPathUnits="userSpaceOnUse"
       id="clipPath48">
      <path
         d="m 40,86 h 3 v 6.16 h -3 z"
         id="path46" />
    </clipPath>
    <clipPath
       clipPathUnits="userSpaceOnUse"
       id="clipPath94">
      <path
         d="m 132,86 h 5 v 6.16 h -5 z"
         id="path92" />
    </clipPath>
    <clipPath
       clipPathUnits="userSpaceOnUse"
       id="clipPath140">
      <path
         d="m 224,86 h 5 v 6.16 h -5 z"
         id="path138" />
    </clipPath>
    <clipPath
       clipPathUnits="userSpaceOnUse"
       id="clipPath182">
      <path
         d="m 316,86 h 5 v 6.16 h -5 z"
         id="path180" />
    </clipPath>
  </defs>
  <sodipodi:namedview
     id="namedview4"
     pagecolor="#ffffff"
     bordercolor="#999999"
     borderopacity="1"
     inkscape:showpageshadow="0"
     inkscape:pageopacity="0"
     inkscape:pagecheckerboard="0"
     inkscape:deskcolor="#d1d1d1" />
  <g
     id="g8"
     inkscape:groupmode="layer"
     inkscape:label="1m7b27sd00d0v"
     transform="matrix(1.3333333,0,0,1.3333333,0,3.1e-6)">
    <g
       id="g10">
      <path
         d="m 41.891,50.27 -0.516,0.425 -0.59,0.328 -0.64,0.211 -0.668,0.082 -0.672,-0.05 -0.653,-0.176 -0.605,-0.297 -0.539,-0.402 -0.449,-0.485 -0.356,-0.543 -0.246,-0.57 -0.133,-0.57 -0.027,-0.543 0.07,-0.481 0.156,-0.398 0.223,-0.293 0.266,-0.172 0.289,-0.043 0.285,0.086 0.254,0.219 0.203,0.328 0.125,0.429 0.039,0.508 -0.062,0.551 -0.172,0.578 -0.285,0.563 -0.387,0.527 -0.485,0.457 -0.562,0.371 -0.621,0.254 -0.664,0.137 -0.672,0.004 -0.664,-0.129 -0.625,-0.254 -0.567,-0.363 -0.488,-0.454 -0.391,-0.523 -0.289,-0.562 -0.179,-0.575 -0.067,-0.558 0.032,-0.508 0.125,-0.434 0.199,-0.336 0.254,-0.218 0.281,-0.098 0.289,0.039 0.27,0.168 0.226,0.285 0.156,0.395 0.079,0.476 -0.024,0.539 -0.129,0.571 -0.242,0.574 -0.348,0.543 -0.449,0.488 -0.531,0.406 -0.602,0.305 -0.652,0.18 -0.672,0.054 -0.668,-0.074 -0.644,-0.207 -0.59,-0.32 -0.52,-0.422 -0.433,-0.5 -0.329,-0.551 -0.222,-0.574 -0.11,-0.566 -0.007,-0.532 0.089,-0.465 0.176,-0.375 0.231,-0.269 0.277,-0.145 0.289,-0.015 0.277,0.117 0.247,0.242 0.187,0.356 0.109,0.445 0.02,0.519 -0.09,0.563 -0.195,0.574 -0.309,0.559 -0.41,0.515 -0.5,0.438 -0.578,0.348 -0.633,0.23 -0.668,0.105 -0.672,-0.027 -0.656,-0.152 -0.617,-0.278 -0.551,-0.386 -0.465,-0.473 -0.371,-0.535 -0.265,-0.566 -0.153,-0.575 -0.047,-0.547 0.055,-0.496 0.141,-0.414 0.214,-0.312 0.262,-0.192 0.285,-0.066 0.285,0.066 0.262,0.192 0.215,0.312 0.141,0.414 0.054,0.496 -0.047,0.547 -0.152,0.575 -0.265,0.566 -0.368,0.535 -0.468,0.473 -0.551,0.386 -0.613,0.278 -0.657,0.152 -0.676,0.027 -0.667,-0.105 -0.633,-0.23 -0.578,-0.348 -0.5,-0.438 -0.411,-0.515 -0.308,-0.559 -0.196,-0.574 -0.085,-0.563 0.015,-0.519 0.11,-0.445 0.187,-0.356 0.246,-0.242 0.277,-0.117 0.29,0.015 0.277,0.145 0.234,0.269 0.172,0.375 0.09,0.465 -0.004,0.532 -0.113,0.566 -0.223,0.574 -0.328,0.551 -0.43,0.5 -0.523,0.422 -0.59,0.32 -0.644,0.207 -0.668,0.074 -0.672,-0.054 -0.653,-0.18 -0.601,-0.305 -0.531,-0.406 -0.45,-0.488 L 9.848,49.34 9.605,48.766 9.477,48.195 9.453,47.656 9.531,47.18 9.691,46.785 9.914,46.5 l 0.27,-0.168 0.289,-0.039 0.281,0.098 0.254,0.218 0.199,0.336 0.125,0.434 0.031,0.508 -0.066,0.558 -0.18,0.575 -0.289,0.562 -0.39,0.523 L 9.949,50.559 9.383,50.922 8.758,51.176 8.094,51.305 7.422,51.301 6.762,51.164 6.137,50.91 5.574,50.539 5.09,50.082 4.703,49.555 4.418,48.992 4.246,48.414 4.184,47.863 4.223,47.355 4.352,46.926 4.551,46.598 4.805,46.379 5.09,46.293 l 0.289,0.043 0.266,0.172 0.222,0.293 0.156,0.398 0.071,0.481 -0.028,0.543 -0.132,0.57 -0.246,0.57 L 5.332,49.906 4.883,50.391 4.344,50.793 3.738,51.09 3.09,51.266 2.414,51.316 1.746,51.234 1.105,51.023 0.516,50.695 0,50.27"
         style="fill:none;stroke:#000000;stroke-width:0.4608;stroke-linecap:square;stroke-linejoin:miter;stroke-miterlimit:3.25;stroke-dasharray:none;stroke-opacity:1"
         id="path12" />
      <text
         xml:space="preserve"
         transform="translate(17.80483,64.681745)"
         style="font-variant:normal;font-size:10.56px;font-family:CairoFont-0;-inkscape-font-specification:CairoFont-0-0;writing-mode:lr-tb;fill:#000000;fill-opacity:1;fill-rule:nonzero;stroke:none"
         id="text16"><tspan
           x="0"
           y="0"
           id="tspan14">g</tspan></text>
      <path
         d="m 41.891,50.27 0.515,-0.426 0.59,-0.328 0.641,-0.211 0.668,-0.082 0.675,0.047 0.649,0.179 0.605,0.297 0.539,0.402 0.45,0.485 0.355,0.539 0.246,0.574 0.133,0.57 0.027,0.539 -0.07,0.485 -0.156,0.398 -0.223,0.293 -0.265,0.172 -0.29,0.043 -0.281,-0.09 -0.258,-0.215 -0.199,-0.332 -0.129,-0.425 -0.039,-0.508 0.063,-0.555 0.172,-0.574 0.285,-0.567 0.386,-0.523 0.485,-0.461 0.562,-0.367 0.625,-0.258 0.66,-0.133 0.672,-0.004 0.664,0.129 0.625,0.25 0.567,0.364 0.488,0.457 0.391,0.523 0.289,0.563 0.18,0.574 0.07,0.558 -0.035,0.508 -0.125,0.434 -0.2,0.336 -0.253,0.218 -0.282,0.094 -0.289,-0.035 -0.269,-0.168 -0.223,-0.285 -0.16,-0.395 -0.078,-0.48 0.023,-0.535 0.133,-0.571 0.238,-0.574 0.348,-0.543 0.449,-0.488 0.531,-0.406 0.606,-0.305 0.648,-0.184 0.672,-0.054 0.668,0.078 0.645,0.203 0.59,0.324 0.523,0.422 0.43,0.5 0.328,0.551 0.222,0.574 0.114,0.567 0.004,0.531 -0.09,0.465 -0.172,0.375 -0.234,0.269 -0.278,0.145 -0.289,0.011 -0.277,-0.113 -0.246,-0.242 -0.188,-0.356 -0.109,-0.449 -0.016,-0.515 0.086,-0.563 0.195,-0.574 0.309,-0.559 0.41,-0.515 0.5,-0.442 0.578,-0.344 0.637,-0.23 0.664,-0.105 0.676,0.023 0.656,0.156 0.613,0.278 0.551,0.386 0.469,0.473 0.367,0.531 0.266,0.571 0.156,0.574 0.043,0.547 -0.055,0.496 -0.14,0.414 -0.215,0.308 -0.262,0.196 -0.285,0.066 -0.285,-0.066 -0.262,-0.196 -0.215,-0.308 -0.14,-0.414 -0.055,-0.496 0.047,-0.547 0.152,-0.574 0.266,-0.571 0.371,-0.531 0.465,-0.473 0.55,-0.386 0.618,-0.278 0.656,-0.156 0.672,-0.023 0.668,0.105 0.633,0.23 0.578,0.344 0.5,0.442 0.41,0.515 0.308,0.559 0.196,0.574 0.09,0.563 -0.02,0.515 -0.109,0.449 -0.188,0.356 -0.246,0.242 -0.277,0.113 -0.289,-0.011 -0.274,-0.145 -0.234,-0.269 -0.172,-0.375 -0.094,-0.465 0.008,-0.531 0.109,-0.567 0.223,-0.574 0.328,-0.551 0.434,-0.5 0.519,-0.422 0.59,-0.324 0.645,-0.203 0.668,-0.078 0.672,0.054 0.652,0.184 0.601,0.305 0.536,0.406 0.445,0.488 0.348,0.543 0.242,0.574 0.129,0.571 0.023,0.535 -0.078,0.48 -0.156,0.395 -0.227,0.285 -0.269,0.168 -0.289,0.035 -0.282,-0.094 -0.254,-0.218 -0.199,-0.336 -0.125,-0.434 -0.031,-0.508 0.066,-0.558 0.18,-0.574 0.289,-0.563 0.391,-0.523 0.488,-0.457 0.566,-0.364 0.625,-0.25 0.665,-0.129 0.671,0.004 0.664,0.133 0.622,0.258 0.562,0.367 0.484,0.461 0.387,0.523 0.285,0.567 0.172,0.574 0.063,0.555 -0.036,0.508 -0.128,0.425 -0.204,0.332 -0.253,0.215 -0.286,0.09 -0.289,-0.043 -0.265,-0.172 -0.223,-0.293 -0.156,-0.398 -0.07,-0.485 0.027,-0.539 0.137,-0.57 0.242,-0.574 0.355,-0.539 0.449,-0.485 0.54,-0.402 0.605,-0.297 0.652,-0.179 0.672,-0.047 0.668,0.082 0.641,0.211 0.59,0.328 0.515,0.426"
         style="fill:none;stroke:#000000;stroke-width:0.4608;stroke-linecap:square;stroke-linejoin:miter;stroke-miterlimit:3.25;stroke-dasharray:none;stroke-opacity:1"
         id="path18" />
    </g>
    <g
       id="g20">
      <g
         id="g22"
         clip-path="url(#clipPath26)">
        <text
           xml:space="preserve"
           transform="translate(59.695739,67.614108)"
           style="font-variant:normal;font-size:10.56px;font-family:CairoFont-0;-inkscape-font-specification:CairoFont-0-0;writing-mode:lr-tb;fill:#000000;fill-opacity:1;fill-rule:nonzero;stroke:none"
           id="text30"><tspan
             x="0"
             y="0"
             id="tspan28">g</tspan></text>
      </g>
    </g>
    <g
       id="g32">
      <path
         d="m 41.891,50.27 -0.504,0.375 -0.59,0.269 -0.656,0.141 -0.684,0.004 -0.672,-0.141 -0.629,-0.277 -0.547,-0.395 -0.437,-0.488 -0.313,-0.547 -0.183,-0.582 -0.059,-0.586 0.047,-0.563 0.141,-0.519 0.203,-0.461 0.242,-0.391 0.258,-0.316 0.254,-0.234 0.23,-0.145 0.196,-0.051 0.152,0.039 0.101,0.129 0.047,0.215 -0.008,0.289 -0.07,0.356 -0.14,0.398 -0.215,0.422 -0.293,0.422 -0.379,0.39 -0.465,0.332 -0.539,0.25 -0.598,0.133 -0.64,0.008 -0.645,-0.133 -0.621,-0.273 -0.559,-0.402 -0.461,-0.512 -0.339,-0.59 -0.207,-0.629 -0.067,-0.645 0.07,-0.617 0.192,-0.566 0.285,-0.504 0.356,-0.418 0.398,-0.34 0.41,-0.258 0.399,-0.179 0.363,-0.11 0.308,-0.043 0.235,0.024 0.16,0.078 0.066,0.137 -0.015,0.187 -0.11,0.227 -0.195,0.261 -0.281,0.274 -0.36,0.269 -0.429,0.239 -0.496,0.183 -0.547,0.106 -0.582,0.004 -0.594,-0.118 -0.574,-0.25 -0.528,-0.375 -0.449,-0.496 -0.344,-0.593 -0.214,-0.653 -0.075,-0.683 0.071,-0.668 0.203,-0.625 0.32,-0.547 0.414,-0.449 0.481,-0.344 0.511,-0.238 0.52,-0.141 0.504,-0.051 0.465,0.016 0.406,0.066 0.328,0.106 0.242,0.129 0.149,0.144 0.047,0.152 -0.059,0.153 -0.156,0.148 -0.254,0.137 -0.34,0.113 -0.41,0.074 -0.473,0.024 -0.508,-0.047 -0.527,-0.133 -0.52,-0.234 -0.48,-0.344 -0.418,-0.453 -0.324,-0.551 -0.207,-0.625 -0.071,-0.672 0.071,-0.683 0.211,-0.657 0.34,-0.589 0.445,-0.493 0.523,-0.378 0.575,-0.25 0.585,-0.118 h 0.579 l 0.546,0.098 0.493,0.18 0.429,0.23 0.356,0.258 0.277,0.262 0.192,0.25 0.101,0.218 0.012,0.176 -0.078,0.133 -0.168,0.078 -0.25,0.02 -0.317,-0.039 -0.375,-0.106 -0.41,-0.18 -0.418,-0.253 -0.406,-0.34 -0.363,-0.422 -0.293,-0.5 -0.192,-0.571 -0.07,-0.621 0.062,-0.644 0.204,-0.637 0.343,-0.594 0.457,-0.511 0.555,-0.403 0.617,-0.273 0.645,-0.137 0.637,0.004 0.593,0.137 0.539,0.242 0.461,0.328 0.383,0.383 0.297,0.414 0.215,0.41 0.144,0.391 0.075,0.34 0.007,0.281 -0.05,0.203 -0.106,0.117 -0.16,0.031 -0.203,-0.058 -0.242,-0.153 -0.262,-0.234 -0.27,-0.32 -0.25,-0.395 -0.214,-0.465 -0.145,-0.519 -0.055,-0.567 0.059,-0.589 0.184,-0.586 0.312,-0.551 0.438,-0.492 0.546,-0.399 0.629,-0.277 0.672,-0.145 h 0.684 l 0.652,0.141 0.59,0.266 0.5,0.371 0.398,0.453 0.289,0.5 0.184,0.523 0.094,0.52 0.012,0.488 -0.047,0.442 -0.094,0.371 -0.121,0.293 -0.141,0.203 -0.148,0.101 h -0.153 l -0.152,-0.101 -0.141,-0.203 -0.121,-0.293 -0.093,-0.371 -0.047,-0.442 0.011,-0.488 0.094,-0.52 0.184,-0.523 0.289,-0.5 0.398,-0.453 0.5,-0.371 0.59,-0.266 0.652,-0.141 h 0.684 l 0.672,0.145 0.629,0.277 0.547,0.399 0.437,0.492 0.313,0.551 0.183,0.586 0.059,0.589 -0.055,0.567 -0.144,0.519 -0.211,0.465 -0.254,0.395 -0.27,0.32 -0.261,0.234 -0.243,0.153 -0.203,0.058 -0.16,-0.031 -0.105,-0.117 -0.051,-0.203 0.012,-0.281 0.07,-0.34 0.144,-0.391 0.215,-0.41 0.297,-0.414 0.383,-0.383 0.461,-0.328 0.539,-0.242 0.598,-0.137 0.632,-0.004 0.645,0.137 0.617,0.273 0.555,0.403 0.461,0.511 0.34,0.594 0.203,0.637 0.066,0.644 -0.074,0.621 -0.191,0.571 -0.293,0.5 -0.364,0.422 -0.406,0.34 -0.418,0.253 -0.41,0.18 -0.375,0.106 -0.316,0.039 -0.25,-0.02 -0.168,-0.078 -0.079,-0.133 0.012,-0.176 0.102,-0.218 0.191,-0.25 0.277,-0.262 0.356,-0.258 0.43,-0.23 0.492,-0.18 0.547,-0.098 h 0.578 l 0.586,0.118 0.574,0.25 0.523,0.378 0.446,0.493 0.34,0.589 0.21,0.657 0.071,0.683 -0.071,0.672 -0.207,0.625 -0.324,0.551 -0.418,0.453 -0.48,0.344 -0.52,0.234 -0.527,0.133 -0.508,0.047 -0.473,-0.024 -0.41,-0.074 -0.34,-0.113 -0.253,-0.137 -0.157,-0.148 -0.058,-0.153 0.047,-0.152 0.148,-0.144 0.242,-0.129 0.332,-0.106 0.403,-0.066 0.464,-0.016 0.504,0.051 0.52,0.141 0.515,0.238 0.477,0.344 0.414,0.449 0.32,0.547 0.204,0.625 0.07,0.668 -0.074,0.683 -0.215,0.653 -0.344,0.593 -0.449,0.496 -0.528,0.375 -0.574,0.25 -0.594,0.118 -0.582,-0.004 -0.546,-0.106 -0.496,-0.183 -0.43,-0.239 -0.36,-0.269 -0.281,-0.274 -0.195,-0.261 -0.106,-0.227 -0.019,-0.187 0.07,-0.137 0.156,-0.078 0.235,-0.024 0.308,0.043 0.364,0.11 0.398,0.179 0.41,0.258 0.399,0.34 0.355,0.418 0.289,0.504 0.188,0.566 0.07,0.617 -0.066,0.645 -0.203,0.629 -0.344,0.59 -0.461,0.512 -0.559,0.402 -0.617,0.273 -0.648,0.133 -0.637,-0.008 -0.602,-0.133 -0.539,-0.25 -0.465,-0.332 -0.378,-0.39 -0.293,-0.422 -0.215,-0.422 -0.141,-0.398 -0.07,-0.356 -0.008,-0.289 0.047,-0.215 0.105,-0.129 0.153,-0.039 0.195,0.051 0.23,0.145 0.25,0.234 0.258,0.316 0.242,0.391 0.204,0.461 0.14,0.519 0.047,0.563 -0.059,0.586 -0.183,0.582 -0.313,0.547 -0.437,0.488 -0.547,0.395 L 45,50.918 44.324,51.059 43.641,51.055 42.984,50.914 42.395,50.645 41.891,50.27"
         style="fill:none;stroke:#000000;stroke-width:0.4608;stroke-linecap:square;stroke-linejoin:miter;stroke-miterlimit:3.25;stroke-dasharray:none;stroke-opacity:1"
         id="path34" />
      <text
         xml:space="preserve"
         transform="translate(38.750284,20.800812)"
         style="font-variant:normal;font-size:10.56px;font-family:CairoFont-0;-inkscape-font-specification:CairoFont-0-0;writing-mode:lr-tb;fill:#000000;fill-opacity:1;fill-rule:nonzero;stroke:none"
         id="text38"><tspan
           x="0"
           y="0"
           id="tspan36">g</tspan></text>
      <path
         d="m 43.734,50.27 c 0,0.488 -0.195,0.957 -0.539,1.304 -0.347,0.344 -0.816,0.539 -1.304,0.539 -0.489,0 -0.957,-0.195 -1.305,-0.539 -0.344,-0.347 -0.539,-0.816 -0.539,-1.304 0,-0.489 0.195,-0.958 0.539,-1.305 0.348,-0.344 0.816,-0.539 1.305,-0.539 0.488,0 0.957,0.195 1.304,0.539 0.344,0.347 0.539,0.816 0.539,1.305 z"
         style="fill:#000000;fill-opacity:1;fill-rule:evenodd;stroke:none"
         id="path40" />
    </g>
    <g
       id="g42">
      <g
         id="g44"
         clip-path="url(#clipPath48)">
        <text
           xml:space="preserve"
           transform="translate(39.672159,92.45767)"
           style="font-variant:normal;font-size:8.4px;font-family:CairoFont-1;-inkscape-font-specification:CairoFont-1-0;writing-mode:lr-tb;fill:#000000;fill-opacity:1;fill-rule:nonzero;stroke:none"
           id="text52"><tspan
             x="0"
             y="0"
             id="tspan50">1</tspan></text>
      </g>
    </g>
    <g
       id="g54">
      <path
         d="m 117.293,50.27 -0.496,0.418 -0.57,0.324 -0.618,0.211 -0.648,0.089 -0.656,-0.035 -0.633,-0.164 -0.594,-0.277 -0.527,-0.383 -0.453,-0.465 -0.356,-0.523 -0.254,-0.559 -0.144,-0.562 -0.043,-0.539 0.054,-0.493 0.141,-0.414 0.211,-0.316 0.258,-0.207 0.289,-0.082 0.289,0.043 0.269,0.168 0.231,0.285 0.164,0.387 0.082,0.469 -0.012,0.527 -0.113,0.558 -0.219,0.563 -0.324,0.539 -0.422,0.484 -0.508,0.411 -0.574,0.312 -0.625,0.199 -0.648,0.078 -0.653,-0.05 -0.632,-0.176 -0.586,-0.289 -0.524,-0.391 -0.437,-0.472 -0.348,-0.528 -0.242,-0.562 -0.137,-0.563 -0.031,-0.535 0.066,-0.484 0.149,-0.407 0.215,-0.304 0.261,-0.196 0.289,-0.07 0.293,0.059 0.266,0.179 0.223,0.297 0.156,0.395 0.074,0.476 -0.023,0.532 -0.125,0.562 -0.231,0.563 -0.336,0.535 -0.429,0.476 -0.516,0.403 -0.578,0.3 -0.629,0.188 -0.652,0.062 -0.653,-0.062 -0.625,-0.188 -0.582,-0.3 -0.515,-0.403 -0.43,-0.476 -0.336,-0.535 -0.231,-0.563 -0.125,-0.562 -0.023,-0.532 0.074,-0.476 0.157,-0.395 0.222,-0.297 0.27,-0.179 0.289,-0.059 0.289,0.07 0.262,0.196 0.218,0.304 0.149,0.407 0.062,0.484 -0.031,0.535 -0.137,0.563 -0.242,0.562 -0.344,0.528 -0.441,0.472 -0.524,0.391 -0.585,0.289 -0.633,0.176 -0.653,0.05 -0.648,-0.078 -0.625,-0.199 -0.574,-0.312 -0.504,-0.411 -0.422,-0.484 -0.328,-0.539 -0.219,-0.563 -0.113,-0.558 -0.012,-0.527 0.082,-0.469 0.168,-0.387 0.227,-0.285 0.269,-0.168 0.293,-0.043 0.285,0.082 0.262,0.207 0.207,0.316 0.141,0.414 0.058,0.493 -0.043,0.539 -0.148,0.562 -0.254,0.559 -0.356,0.523 -0.449,0.465 -0.531,0.383 -0.594,0.277 -0.633,0.164 -0.652,0.035 -0.648,-0.089 -0.621,-0.211 -0.567,-0.324 -0.5,-0.418"
         style="fill:none;stroke:#000000;stroke-width:0.4608;stroke-linecap:square;stroke-linejoin:miter;stroke-miterlimit:3.25;stroke-dasharray:none;stroke-opacity:1"
         id="path56" />
      <text
         xml:space="preserve"
         transform="translate(101.58665,64.681745)"
         style="font-variant:normal;font-size:10.56px;font-family:CairoFont-0;-inkscape-font-specification:CairoFont-0-0;writing-mode:lr-tb;fill:#000000;fill-opacity:1;fill-rule:nonzero;stroke:none"
         id="text60"><tspan
           x="0"
           y="0"
           id="tspan58">g</tspan></text>
      <path
         d="m 150.809,50.27 0.496,-0.418 0.57,-0.325 0.617,-0.215 0.649,-0.089 0.656,0.039 0.633,0.16 0.593,0.281 0.528,0.379 0.453,0.465 0.355,0.527 0.254,0.559 0.145,0.562 0.043,0.539 -0.055,0.493 -0.141,0.414 -0.21,0.316 -0.258,0.207 -0.289,0.082 -0.289,-0.043 -0.27,-0.168 -0.23,-0.285 -0.164,-0.387 -0.083,-0.468 0.012,-0.528 0.114,-0.558 0.218,-0.563 0.324,-0.539 0.422,-0.484 0.508,-0.411 0.574,-0.312 0.625,-0.203 0.649,-0.074 0.652,0.05 0.633,0.172 0.586,0.293 0.523,0.391 0.442,0.473 0.344,0.527 0.242,0.562 0.136,0.563 0.032,0.535 -0.063,0.484 -0.152,0.403 -0.215,0.308 -0.262,0.192 -0.289,0.07 -0.289,-0.055 -0.269,-0.179 -0.223,-0.297 -0.156,-0.399 -0.075,-0.472 0.024,-0.535 0.125,-0.559 0.23,-0.562 0.336,-0.536 0.43,-0.476 0.516,-0.403 0.582,-0.3 0.625,-0.188 0.652,-0.062 0.652,0.062 0.625,0.188 0.582,0.3 0.516,0.403 0.43,0.476 0.336,0.536 0.23,0.562 0.125,0.559 0.024,0.535 -0.075,0.472 -0.156,0.399 -0.223,0.297 -0.269,0.179 -0.289,0.055 -0.289,-0.07 -0.262,-0.192 -0.219,-0.308 -0.148,-0.403 -0.063,-0.484 0.032,-0.535 0.136,-0.563 0.242,-0.562 0.344,-0.527 0.442,-0.473 0.523,-0.391 0.586,-0.293 0.633,-0.172 0.652,-0.05 0.649,0.074 0.625,0.203 0.574,0.312 0.508,0.411 0.418,0.484 0.328,0.539 0.218,0.563 0.114,0.558 0.012,0.528 -0.083,0.468 -0.164,0.387 -0.23,0.285 -0.27,0.168 -0.293,0.043 -0.285,-0.082 -0.261,-0.207 -0.207,-0.316 -0.141,-0.414 -0.055,-0.493 0.039,-0.539 0.149,-0.562 0.254,-0.559 0.355,-0.527 0.449,-0.465 0.532,-0.379 0.593,-0.281 0.633,-0.16 0.652,-0.039 0.649,0.089 0.621,0.215 0.57,0.325 0.496,0.418"
         style="fill:none;stroke:#000000;stroke-width:0.4608;stroke-linecap:square;stroke-linejoin:miter;stroke-miterlimit:3.25;stroke-dasharray:none;stroke-opacity:1"
         id="path62" />
      <text
         xml:space="preserve"
         transform="translate(160.23392,43.840812)"
         style="font-variant:normal;font-size:10.56px;font-family:CairoFont-0;-inkscape-font-specification:CairoFont-0-0;writing-mode:lr-tb;fill:#000000;fill-opacity:1;fill-rule:nonzero;stroke:none"
         id="text66"><tspan
           x="0"
           y="0"
           id="tspan64">g</tspan></text>
      <path
         d="m 117.293,50.27 c 1.152,5.109 4.57,9.418 9.289,11.695 4.719,2.277 10.219,2.277 14.938,0 4.718,-2.277 8.136,-6.586 9.289,-11.695"
         style="fill:none;stroke:#000000;stroke-width:0.4608;stroke-linecap:square;stroke-linejoin:miter;stroke-miterlimit:3.25;stroke-dasharray:none;stroke-opacity:1"
         id="path68" />
      <path
         d="m 131.539,63.676 5.023,1.676 V 62 Z"
         style="fill:#000000;fill-opacity:1;fill-rule:evenodd;stroke:none"
         id="path70" />
      <text
         xml:space="preserve"
         transform="translate(130.93372,78.086836)"
         style="font-variant:normal;font-size:10.56px;font-family:CairoFont-0;-inkscape-font-specification:CairoFont-0-0;writing-mode:lr-tb;fill:#000000;fill-opacity:1;fill-rule:nonzero;stroke:none"
         id="text74"><tspan
           x="0"
           y="0"
           id="tspan72">u</tspan></text>
      <path
         d="m 150.809,50.27 c -1.153,-5.114 -4.571,-9.418 -9.289,-11.696 -4.719,-2.281 -10.219,-2.281 -14.938,0 -4.719,2.278 -8.137,6.582 -9.289,11.696"
         style="fill:none;stroke:#000000;stroke-width:0.4608;stroke-linecap:square;stroke-linejoin:miter;stroke-miterlimit:3.25;stroke-dasharray:none;stroke-opacity:1"
         id="path76" />
      <path
         d="m 136.562,36.863 -5.023,-1.675 v 3.351 z"
         style="fill:#000000;fill-opacity:1;fill-rule:evenodd;stroke:none"
         id="path78" />
      <text
         xml:space="preserve"
         transform="translate(130.93372,30.435721)"
         style="font-variant:normal;font-size:10.56px;font-family:CairoFont-0;-inkscape-font-specification:CairoFont-0-0;writing-mode:lr-tb;fill:#000000;fill-opacity:1;fill-rule:nonzero;stroke:none"
         id="text82"><tspan
           x="0"
           y="0"
           id="tspan80">u</tspan></text>
      <path
         d="m 119.137,50.27 c 0,0.488 -0.192,0.957 -0.539,1.304 -0.344,0.344 -0.813,0.539 -1.305,0.539 -0.488,0 -0.957,-0.195 -1.301,-0.539 -0.347,-0.347 -0.539,-0.816 -0.539,-1.304 0,-0.489 0.192,-0.958 0.539,-1.305 0.344,-0.344 0.813,-0.539 1.301,-0.539 0.492,0 0.961,0.195 1.305,0.539 0.347,0.347 0.539,0.816 0.539,1.305 z"
         style="fill:#000000;fill-opacity:1;fill-rule:evenodd;stroke:none"
         id="path84" />
      <path
         d="m 152.652,50.27 c 0,0.488 -0.195,0.957 -0.543,1.304 -0.343,0.344 -0.812,0.539 -1.3,0.539 -0.489,0 -0.961,-0.195 -1.305,-0.539 -0.344,-0.347 -0.539,-0.816 -0.539,-1.304 0,-0.489 0.195,-0.958 0.539,-1.305 0.344,-0.344 0.816,-0.539 1.305,-0.539 0.488,0 0.957,0.195 1.3,0.539 0.348,0.347 0.543,0.816 0.543,1.305 z"
         style="fill:#000000;fill-opacity:1;fill-rule:evenodd;stroke:none"
         id="path86" />
    </g>
    <g
       id="g88">
      <g
         id="g90"
         clip-path="url(#clipPath94)">
        <text
           xml:space="preserve"
           transform="translate(131.83216,92.45767)"
           style="font-variant:normal;font-size:8.4px;font-family:CairoFont-1;-inkscape-font-specification:CairoFont-1-0;writing-mode:lr-tb;fill:#000000;fill-opacity:1;fill-rule:nonzero;stroke:none"
           id="text98"><tspan
             x="0"
             y="0"
             id="tspan96">2</tspan></text>
      </g>
    </g>
    <g
       id="g100">
      <path
         d="m 209.453,50.27 -0.496,0.418 -0.57,0.324 -0.617,0.211 -0.649,0.089 -0.656,-0.035 -0.633,-0.164 -0.594,-0.277 -0.527,-0.383 -0.453,-0.465 -0.356,-0.523 -0.254,-0.559 -0.144,-0.562 -0.043,-0.539 0.055,-0.493 0.14,-0.414 0.211,-0.316 0.258,-0.207 0.289,-0.082 0.289,0.043 0.27,0.168 0.23,0.285 0.164,0.387 0.082,0.469 -0.011,0.527 -0.114,0.558 -0.219,0.563 -0.324,0.539 -0.422,0.484 -0.507,0.411 -0.575,0.312 -0.625,0.199 -0.648,0.078 -0.652,-0.05 -0.633,-0.176 -0.586,-0.289 -0.524,-0.391 -0.437,-0.472 -0.348,-0.528 -0.242,-0.562 -0.137,-0.563 -0.031,-0.535 0.063,-0.484 0.152,-0.407 0.215,-0.304 0.261,-0.196 0.29,-0.07 0.293,0.059 0.265,0.179 0.223,0.297 0.156,0.395 0.074,0.476 -0.023,0.532 -0.125,0.562 -0.231,0.563 -0.336,0.535 -0.429,0.476 -0.516,0.403 -0.582,0.3 -0.625,0.188 -0.652,0.062 -0.653,-0.062 -0.625,-0.188 -0.582,-0.3 -0.515,-0.403 -0.43,-0.476 -0.336,-0.535 -0.23,-0.563 -0.125,-0.562 -0.024,-0.532 0.074,-0.476 0.157,-0.395 0.222,-0.297 0.27,-0.179 0.289,-0.059 0.289,0.07 0.262,0.196 0.218,0.304 0.149,0.407 0.062,0.484 -0.031,0.535 -0.137,0.563 -0.242,0.562 -0.344,0.528 -0.441,0.472 -0.523,0.391 -0.586,0.289 -0.633,0.176 -0.652,0.05 -0.649,-0.078 -0.625,-0.199 -0.574,-0.312 -0.508,-0.411 -0.418,-0.484 -0.328,-0.539 -0.219,-0.563 -0.113,-0.558 -0.012,-0.527 0.082,-0.469 0.168,-0.387 0.227,-0.285 0.269,-0.168 0.293,-0.043 0.285,0.082 0.262,0.207 0.207,0.316 0.141,0.414 0.058,0.493 -0.043,0.539 -0.148,0.562 -0.254,0.559 -0.355,0.523 -0.45,0.465 -0.531,0.383 -0.594,0.277 -0.632,0.164 -0.653,0.035 -0.648,-0.089 -0.621,-0.211 -0.567,-0.324 -0.5,-0.418"
         style="fill:none;stroke:#000000;stroke-width:0.4608;stroke-linecap:square;stroke-linejoin:miter;stroke-miterlimit:3.25;stroke-dasharray:none;stroke-opacity:1"
         id="path102" />
      <text
         xml:space="preserve"
         transform="translate(193.74665,64.681745)"
         style="font-variant:normal;font-size:10.56px;font-family:CairoFont-0;-inkscape-font-specification:CairoFont-0-0;writing-mode:lr-tb;fill:#000000;fill-opacity:1;fill-rule:nonzero;stroke:none"
         id="text106"><tspan
           x="0"
           y="0"
           id="tspan104">g</tspan></text>
      <path
         d="m 242.969,50.27 0.496,-0.418 0.57,-0.325 0.617,-0.215 0.649,-0.089 0.656,0.039 0.633,0.16 0.594,0.281 0.527,0.379 0.453,0.465 0.356,0.527 0.253,0.559 0.145,0.562 0.043,0.539 -0.055,0.493 -0.14,0.414 -0.211,0.316 -0.258,0.207 -0.289,0.082 -0.289,-0.043 -0.27,-0.168 -0.23,-0.285 -0.164,-0.387 -0.082,-0.468 0.011,-0.528 0.114,-0.558 0.218,-0.563 0.325,-0.539 0.421,-0.484 0.508,-0.411 0.575,-0.312 0.625,-0.203 0.648,-0.074 0.652,0.05 0.633,0.172 0.586,0.293 0.523,0.391 0.438,0.473 0.348,0.527 0.242,0.562 0.137,0.563 0.031,0.535 -0.063,0.484 -0.152,0.403 -0.215,0.308 -0.262,0.192 -0.289,0.07 -0.293,-0.055 -0.265,-0.179 -0.223,-0.297 -0.156,-0.399 -0.074,-0.472 0.023,-0.535 0.125,-0.559 0.231,-0.562 0.335,-0.536 0.43,-0.476 0.516,-0.403 0.578,-0.3 0.629,-0.188 0.652,-0.062 0.653,0.062 0.624,0.188 0.583,0.3 0.515,0.403 0.43,0.476 0.336,0.536 0.23,0.562 0.125,0.559 0.024,0.535 -0.075,0.472 -0.156,0.399 -0.222,0.297 -0.27,0.179 -0.289,0.055 -0.289,-0.07 -0.262,-0.192 -0.219,-0.308 -0.148,-0.403 -0.063,-0.484 0.032,-0.535 0.136,-0.563 0.243,-0.562 0.343,-0.527 0.442,-0.473 0.523,-0.391 0.586,-0.293 0.633,-0.172 0.652,-0.05 0.649,0.074 0.625,0.203 0.574,0.312 0.508,0.411 0.418,0.484 0.328,0.539 0.219,0.563 0.113,0.558 0.012,0.528 -0.082,0.468 -0.168,0.387 -0.227,0.285 -0.269,0.168 -0.293,0.043 -0.286,-0.082 -0.261,-0.207 -0.207,-0.316 -0.141,-0.414 -0.059,-0.493 0.043,-0.539 0.149,-0.562 0.254,-0.559 0.355,-0.527 0.449,-0.465 0.532,-0.379 0.593,-0.281 0.633,-0.16 0.653,-0.039 0.648,0.089 0.621,0.215 0.567,0.325 0.5,0.418"
         style="fill:none;stroke:#000000;stroke-width:0.4608;stroke-linecap:square;stroke-linejoin:miter;stroke-miterlimit:3.25;stroke-dasharray:none;stroke-opacity:1"
         id="path108" />
      <text
         xml:space="preserve"
         transform="translate(252.39392,43.840812)"
         style="font-variant:normal;font-size:10.56px;font-family:CairoFont-0;-inkscape-font-specification:CairoFont-0-0;writing-mode:lr-tb;fill:#000000;fill-opacity:1;fill-rule:nonzero;stroke:none"
         id="text112"><tspan
           x="0"
           y="0"
           id="tspan110">g</tspan></text>
      <path
         d="m 209.453,50.27 c 1.152,5.109 4.57,9.418 9.289,11.695 4.719,2.277 10.219,2.277 14.938,0 4.718,-2.277 8.136,-6.586 9.289,-11.695"
         style="fill:none;stroke:#000000;stroke-width:0.4608;stroke-linecap:butt;stroke-linejoin:miter;stroke-miterlimit:3.25;stroke-dasharray:0.4608, 2.7648;stroke-dashoffset:0;stroke-opacity:1"
         id="path114" />
      <path
         d="m 223.699,63.676 5.024,1.676 V 62 Z"
         style="fill:#000000;fill-opacity:1;fill-rule:evenodd;stroke:none"
         id="path116" />
      <text
         xml:space="preserve"
         transform="translate(218.88278,78.086836)"
         style="font-variant:normal;font-size:10.56px;font-family:CairoFont-1;-inkscape-font-specification:CairoFont-1-0;writing-mode:lr-tb;fill:#000000;fill-opacity:1;fill-rule:nonzero;stroke:none"
         id="text120"><tspan
           x="0 5.8713598"
           y="0"
           sodipodi:role="line"
           id="tspan118">uG</tspan></text>
      <path
         d="m 242.969,50.27 c -1.153,-5.114 -4.571,-9.418 -9.289,-11.696 -4.719,-2.281 -10.219,-2.281 -14.938,0 -4.719,2.278 -8.137,6.582 -9.289,11.696"
         style="fill:none;stroke:#000000;stroke-width:0.4608;stroke-linecap:butt;stroke-linejoin:miter;stroke-miterlimit:3.25;stroke-dasharray:0.4608, 2.7648;stroke-dashoffset:0;stroke-opacity:1"
         id="path122" />
      <path
         d="m 228.723,36.863 -5.024,-1.675 v 3.351 z"
         style="fill:#000000;fill-opacity:1;fill-rule:evenodd;stroke:none"
         id="path124" />
      <text
         xml:space="preserve"
         transform="translate(218.88278,30.435721)"
         style="font-variant:normal;font-size:10.56px;font-family:CairoFont-1;-inkscape-font-specification:CairoFont-1-0;writing-mode:lr-tb;fill:#000000;fill-opacity:1;fill-rule:nonzero;stroke:none"
         id="text128"><tspan
           x="0 5.8713598"
           y="0"
           sodipodi:role="line"
           id="tspan126">uG</tspan></text>
      <path
         d="m 211.297,50.27 c 0,0.488 -0.192,0.957 -0.539,1.304 -0.344,0.344 -0.813,0.539 -1.305,0.539 -0.488,0 -0.957,-0.195 -1.301,-0.539 -0.347,-0.347 -0.539,-0.816 -0.539,-1.304 0,-0.489 0.192,-0.958 0.539,-1.305 0.344,-0.344 0.813,-0.539 1.301,-0.539 0.492,0 0.961,0.195 1.305,0.539 0.347,0.347 0.539,0.816 0.539,1.305 z"
         style="fill:#000000;fill-opacity:1;fill-rule:evenodd;stroke:none"
         id="path130" />
      <path
         d="m 244.809,50.27 c 0,0.488 -0.192,0.957 -0.539,1.304 -0.344,0.344 -0.813,0.539 -1.301,0.539 -0.492,0 -0.961,-0.195 -1.305,-0.539 -0.348,-0.347 -0.539,-0.816 -0.539,-1.304 0,-0.489 0.191,-0.958 0.539,-1.305 0.344,-0.344 0.813,-0.539 1.305,-0.539 0.488,0 0.957,0.195 1.301,0.539 0.347,0.347 0.539,0.816 0.539,1.305 z"
         style="fill:#000000;fill-opacity:1;fill-rule:evenodd;stroke:none"
         id="path132" />
    </g>
    <g
       id="g134">
      <g
         id="g136"
         clip-path="url(#clipPath140)">
        <text
           xml:space="preserve"
           transform="translate(223.99216,92.45767)"
           style="font-variant:normal;font-size:8.4px;font-family:CairoFont-1;-inkscape-font-specification:CairoFont-1-0;writing-mode:lr-tb;fill:#000000;fill-opacity:1;fill-rule:nonzero;stroke:none"
           id="text144"><tspan
             x="0"
             y="0"
             id="tspan142">3</tspan></text>
      </g>
    </g>
    <g
       id="g146">
      <path
         d="m 301.613,50.27 -0.496,0.418 -0.57,0.324 -0.617,0.211 -0.649,0.089 -0.656,-0.035 -0.633,-0.164 -0.594,-0.277 -0.527,-0.383 -0.453,-0.465 -0.356,-0.523 -0.253,-0.559 -0.145,-0.562 -0.043,-0.539 0.055,-0.493 0.14,-0.414 0.211,-0.316 0.258,-0.207 0.289,-0.082 0.289,0.043 0.27,0.168 0.23,0.285 0.164,0.387 0.082,0.469 -0.011,0.527 -0.114,0.558 -0.218,0.563 -0.325,0.539 -0.421,0.484 -0.508,0.411 -0.574,0.312 -0.626,0.199 -0.648,0.078 -0.652,-0.05 -0.633,-0.176 -0.586,-0.289 -0.523,-0.391 -0.442,-0.472 -0.344,-0.528 -0.242,-0.562 -0.137,-0.563 -0.031,-0.535 0.063,-0.484 0.152,-0.407 0.215,-0.304 0.262,-0.196 0.289,-0.07 0.289,0.059 0.269,0.179 0.223,0.297 0.156,0.395 0.074,0.476 -0.023,0.532 -0.125,0.562 -0.23,0.563 -0.336,0.535 -0.43,0.476 -0.516,0.403 -0.582,0.3 -0.625,0.188 -0.652,0.062 -0.652,-0.062 -0.625,-0.188 -0.582,-0.3 -0.516,-0.403 -0.43,-0.476 -0.336,-0.535 -0.23,-0.563 -0.125,-0.562 -0.024,-0.532 0.075,-0.476 0.156,-0.395 0.222,-0.297 0.27,-0.179 0.289,-0.059 0.289,0.07 0.262,0.196 0.219,0.304 0.148,0.407 0.063,0.484 -0.032,0.535 -0.136,0.563 -0.243,0.562 -0.343,0.528 -0.442,0.472 -0.523,0.391 -0.586,0.289 -0.633,0.176 -0.652,0.05 -0.649,-0.078 -0.625,-0.199 -0.574,-0.312 -0.508,-0.411 -0.422,-0.484 -0.324,-0.539 -0.219,-0.563 -0.113,-0.558 -0.012,-0.527 0.082,-0.469 0.164,-0.387 0.231,-0.285 0.269,-0.168 0.293,-0.043 0.286,0.082 0.261,0.207 0.207,0.316 0.141,0.414 0.055,0.493 -0.039,0.539 -0.149,0.562 -0.254,0.559 -0.355,0.523 -0.449,0.465 -0.532,0.383 -0.593,0.277 -0.633,0.164 -0.653,0.035 -0.648,-0.089 -0.621,-0.211 -0.57,-0.324 -0.497,-0.418"
         style="fill:none;stroke:#000000;stroke-width:0.4608;stroke-linecap:square;stroke-linejoin:miter;stroke-miterlimit:3.25;stroke-dasharray:none;stroke-opacity:1"
         id="path148" />
      <text
         xml:space="preserve"
         transform="translate(285.90665,64.681745)"
         style="font-variant:normal;font-size:10.56px;font-family:CairoFont-0;-inkscape-font-specification:CairoFont-0-0;writing-mode:lr-tb;fill:#000000;fill-opacity:1;fill-rule:nonzero;stroke:none"
         id="text152"><tspan
           x="0"
           y="0"
           id="tspan150">g</tspan></text>
      <path
         d="m 335.129,50.27 0.496,-0.418 0.57,-0.325 0.617,-0.215 0.649,-0.089 0.656,0.039 0.633,0.16 0.594,0.281 0.527,0.379 0.453,0.465 0.356,0.527 0.254,0.559 0.144,0.562 0.043,0.539 -0.055,0.493 -0.14,0.414 -0.211,0.316 -0.258,0.207 -0.289,0.082 -0.289,-0.043 -0.27,-0.168 -0.23,-0.285 -0.164,-0.387 -0.082,-0.468 0.012,-0.528 0.113,-0.558 0.219,-0.563 0.324,-0.539 0.422,-0.484 0.507,-0.411 0.575,-0.312 0.625,-0.203 0.648,-0.074 0.652,0.05 0.633,0.172 0.586,0.293 0.524,0.391 0.437,0.473 0.348,0.527 0.242,0.562 0.137,0.563 0.031,0.535 -0.066,0.484 -0.149,0.403 -0.215,0.308 -0.261,0.192 -0.289,0.07 -0.293,-0.055 -0.266,-0.179 -0.223,-0.297 -0.156,-0.399 -0.074,-0.472 0.023,-0.535 0.125,-0.559 0.231,-0.562 0.336,-0.536 0.429,-0.476 0.516,-0.403 0.578,-0.3 0.629,-0.188 0.652,-0.062 0.653,0.062 0.625,0.188 0.582,0.3 0.515,0.403 0.43,0.476 0.336,0.536 0.23,0.562 0.125,0.559 0.024,0.535 -0.074,0.472 -0.157,0.399 -0.222,0.297 -0.27,0.179 -0.289,0.055 -0.289,-0.07 -0.262,-0.192 -0.218,-0.308 -0.149,-0.403 -0.062,-0.484 0.031,-0.535 0.137,-0.563 0.242,-0.562 0.344,-0.527 0.441,-0.473 0.523,-0.391 0.586,-0.293 0.633,-0.172 0.652,-0.05 0.649,0.074 0.625,0.203 0.574,0.312 0.504,0.411 0.422,0.484 0.328,0.539 0.219,0.563 0.113,0.558 0.012,0.528 -0.082,0.468 -0.168,0.387 -0.227,0.285 -0.269,0.168 -0.293,0.043 -0.285,-0.082 -0.262,-0.207 -0.207,-0.316 -0.145,-0.414 -0.054,-0.493 0.043,-0.539 0.148,-0.562 0.254,-0.559 0.355,-0.527 0.45,-0.465 0.531,-0.379 0.594,-0.281 0.632,-0.16 0.653,-0.039 0.648,0.089 0.621,0.215 0.567,0.325 0.5,0.418"
         style="fill:none;stroke:#000000;stroke-width:0.4608;stroke-linecap:square;stroke-linejoin:miter;stroke-miterlimit:3.25;stroke-dasharray:none;stroke-opacity:1"
         id="path154" />
      <text
         xml:space="preserve"
         transform="translate(344.55392,43.840812)"
         style="font-variant:normal;font-size:10.56px;font-family:CairoFont-0;-inkscape-font-specification:CairoFont-0-0;writing-mode:lr-tb;fill:#000000;fill-opacity:1;fill-rule:nonzero;stroke:none"
         id="text158"><tspan
           x="0"
           y="0"
           id="tspan156">g</tspan></text>
      <path
         d="m 335.129,50.27 0.262,0.566 0.152,0.625 0.023,0.652 -0.105,0.657 -0.234,0.628 -0.352,0.563 -0.453,0.48 -0.527,0.371 -0.575,0.254 -0.593,0.133 -0.59,0.02 -0.563,-0.082 -0.512,-0.168 -0.449,-0.223 -0.375,-0.266 -0.293,-0.281 -0.203,-0.277 -0.109,-0.254 -0.016,-0.219 0.078,-0.168 0.168,-0.113 0.246,-0.051 0.317,0.024 0.367,0.093 0.402,0.18 0.414,0.258 0.395,0.344 0.359,0.429 0.289,0.504 0.203,0.567 0.09,0.613 -0.035,0.637 -0.16,0.632 -0.289,0.598 -0.402,0.531 -0.5,0.442 -0.575,0.332 -0.613,0.207 -0.625,0.078 -0.613,-0.043 -0.578,-0.152 -0.516,-0.246 -0.449,-0.313 -0.371,-0.359 -0.289,-0.371 -0.203,-0.372 -0.118,-0.339 -0.039,-0.289 0.039,-0.231 0.114,-0.156 0.175,-0.07 0.239,0.011 0.281,0.102 0.309,0.191 0.32,0.278 0.308,0.363 0.274,0.437 0.211,0.508 0.129,0.559 0.027,0.597 -0.086,0.61 -0.211,0.597 -0.336,0.555 -0.445,0.488 -0.535,0.395 -0.61,0.281 -0.644,0.156 -0.649,0.024 -0.628,-0.106 -0.579,-0.218 -0.511,-0.313 -0.43,-0.39 -0.344,-0.438 -0.25,-0.461 -0.168,-0.453 -0.086,-0.426 -0.015,-0.379 0.043,-0.304 0.101,-0.227 0.149,-0.137 0.183,-0.035 0.211,0.067 0.231,0.164 0.23,0.257 0.215,0.348 0.18,0.426 0.129,0.492 0.05,0.539 -0.039,0.567 -0.144,0.574 -0.254,0.554 -0.371,0.508 -0.477,0.434 -0.562,0.34 -0.629,0.226 -0.66,0.094 -0.664,-0.035 -0.633,-0.164 -0.578,-0.281 -0.496,-0.375 -0.403,-0.454 -0.301,-0.503 -0.199,-0.528 -0.109,-0.519 -0.024,-0.496 0.047,-0.446 0.098,-0.383 0.137,-0.296 0.168,-0.208 0.179,-0.105 h 0.188 l 0.18,0.105 0.167,0.208 0.137,0.296 0.098,0.383 0.047,0.446 -0.024,0.496 -0.109,0.519 -0.199,0.528 -0.301,0.503 -0.402,0.454 -0.497,0.375 -0.578,0.281 -0.632,0.164 -0.664,0.035 -0.661,-0.094 -0.629,-0.226 -0.562,-0.34 -0.477,-0.434 -0.371,-0.508 -0.258,-0.554 -0.14,-0.574 -0.039,-0.567 0.051,-0.539 0.128,-0.492 0.18,-0.426 0.215,-0.348 0.23,-0.257 0.231,-0.164 0.211,-0.067 0.183,0.035 0.149,0.137 0.101,0.227 0.043,0.304 -0.015,0.379 -0.086,0.426 -0.168,0.453 -0.25,0.461 -0.344,0.438 -0.43,0.39 -0.511,0.313 -0.578,0.218 -0.629,0.106 -0.653,-0.024 -0.64,-0.156 -0.61,-0.281 -0.535,-0.395 -0.445,-0.488 -0.336,-0.555 -0.211,-0.597 -0.09,-0.61 0.031,-0.597 0.129,-0.559 0.211,-0.508 0.274,-0.437 0.308,-0.363 0.321,-0.278 0.308,-0.191 0.281,-0.102 0.235,-0.011 0.18,0.07 0.113,0.156 0.039,0.231 -0.039,0.289 -0.121,0.339 -0.203,0.372 -0.286,0.371 -0.371,0.359 -0.449,0.313 -0.515,0.246 -0.579,0.152 -0.613,0.043 -0.625,-0.078 -0.617,-0.207 -0.57,-0.332 -0.5,-0.442 -0.403,-0.531 -0.289,-0.598 -0.16,-0.632 -0.035,-0.637 0.09,-0.613 0.203,-0.567 0.289,-0.504 0.355,-0.429 0.399,-0.344 0.414,-0.258 0.402,-0.18 0.367,-0.093 0.317,-0.024 0.246,0.051 0.168,0.113 0.078,0.168 -0.016,0.219 -0.109,0.254 -0.203,0.277 -0.293,0.281 -0.375,0.266 -0.449,0.223 -0.516,0.168 -0.559,0.082 -0.589,-0.02 -0.598,-0.133 -0.574,-0.254 -0.524,-0.371 -0.453,-0.48 -0.351,-0.563 -0.235,-0.628 -0.105,-0.657 0.023,-0.652 0.153,-0.625 0.261,-0.566"
         style="fill:none;stroke:#000000;stroke-width:0.4608;stroke-linecap:square;stroke-linejoin:miter;stroke-miterlimit:3.25;stroke-dasharray:none;stroke-opacity:1"
         id="path160" />
      <text
         xml:space="preserve"
         transform="translate(315.23028,78.086836)"
         style="font-variant:normal;font-size:10.56px;font-family:CairoFont-0;-inkscape-font-specification:CairoFont-0-0;writing-mode:lr-tb;fill:#000000;fill-opacity:1;fill-rule:nonzero;stroke:none"
         id="text164"><tspan
           x="0"
           y="0"
           id="tspan162">g</tspan></text>
      <path
         d="m 335.129,50.27 0.262,-0.567 0.152,-0.625 0.023,-0.656 -0.105,-0.656 -0.234,-0.625 -0.352,-0.567 -0.453,-0.476 -0.527,-0.371 -0.575,-0.254 -0.593,-0.133 -0.59,-0.02 -0.563,0.082 -0.512,0.164 -0.449,0.227 -0.375,0.266 -0.293,0.281 -0.203,0.277 -0.109,0.254 -0.016,0.219 0.078,0.168 0.168,0.113 0.246,0.051 0.317,-0.024 0.367,-0.097 0.402,-0.176 0.414,-0.258 0.395,-0.344 0.359,-0.429 0.289,-0.504 0.203,-0.567 0.09,-0.613 -0.035,-0.637 -0.16,-0.632 -0.289,-0.598 -0.402,-0.531 -0.5,-0.442 -0.575,-0.332 -0.613,-0.207 -0.625,-0.078 -0.613,0.043 -0.578,0.152 -0.516,0.247 -0.449,0.312 -0.371,0.355 -0.289,0.376 -0.203,0.367 -0.118,0.34 -0.039,0.293 0.039,0.23 0.114,0.152 0.175,0.075 0.239,-0.012 0.281,-0.102 0.309,-0.191 0.32,-0.281 0.308,-0.36 0.274,-0.441 0.211,-0.504 0.129,-0.563 0.027,-0.593 -0.086,-0.61 -0.211,-0.597 -0.336,-0.559 -0.445,-0.488 -0.535,-0.395 -0.61,-0.281 -0.644,-0.152 -0.649,-0.024 -0.628,0.102 -0.579,0.218 -0.511,0.317 -0.43,0.391 -0.344,0.437 -0.25,0.457 -0.168,0.457 -0.086,0.426 -0.015,0.375 0.043,0.308 0.101,0.227 0.149,0.137 0.183,0.035 0.211,-0.067 0.231,-0.164 0.23,-0.257 0.215,-0.348 0.18,-0.426 0.129,-0.492 0.05,-0.539 -0.039,-0.566 -0.144,-0.575 -0.254,-0.554 -0.371,-0.508 -0.477,-0.438 -0.562,-0.336 -0.629,-0.226 -0.66,-0.094 -0.664,0.035 -0.633,0.164 -0.578,0.278 -0.496,0.379 -0.403,0.453 -0.301,0.504 -0.199,0.523 -0.109,0.523 -0.024,0.497 0.047,0.445 0.098,0.383 0.137,0.297 0.168,0.207 0.179,0.105 h 0.188 l 0.18,-0.105 0.167,-0.207 0.137,-0.297 0.098,-0.383 0.047,-0.445 -0.024,-0.497 -0.109,-0.523 -0.199,-0.523 -0.301,-0.504 -0.402,-0.453 -0.497,-0.379 -0.578,-0.278 -0.632,-0.164 -0.664,-0.035 -0.661,0.094 -0.629,0.226 -0.562,0.336 -0.477,0.438 -0.371,0.508 -0.258,0.554 -0.14,0.575 -0.039,0.566 0.051,0.539 0.128,0.492 0.18,0.426 0.215,0.348 0.23,0.257 0.231,0.164 0.211,0.067 0.183,-0.035 0.149,-0.137 0.101,-0.227 0.043,-0.308 -0.015,-0.375 -0.086,-0.426 -0.168,-0.457 -0.25,-0.457 -0.344,-0.437 -0.43,-0.391 -0.511,-0.317 -0.578,-0.218 -0.629,-0.102 -0.653,0.024 -0.64,0.152 -0.61,0.281 -0.535,0.395 -0.445,0.488 -0.336,0.559 -0.211,0.597 -0.09,0.61 0.031,0.593 0.129,0.563 0.211,0.504 0.274,0.441 0.308,0.36 0.321,0.281 0.308,0.191 0.281,0.102 0.235,0.012 0.18,-0.075 0.113,-0.152 0.039,-0.23 -0.039,-0.293 -0.121,-0.34 -0.203,-0.367 -0.286,-0.376 -0.371,-0.355 -0.449,-0.312 -0.515,-0.247 -0.579,-0.152 -0.613,-0.043 -0.625,0.078 -0.617,0.207 -0.57,0.332 -0.5,0.442 -0.403,0.531 -0.289,0.598 -0.16,0.632 -0.035,0.637 0.09,0.613 0.203,0.567 0.289,0.504 0.355,0.429 0.399,0.344 0.414,0.258 0.402,0.176 0.367,0.097 0.317,0.024 0.246,-0.051 0.168,-0.113 0.078,-0.168 -0.016,-0.219 -0.109,-0.254 -0.203,-0.277 -0.293,-0.281 -0.375,-0.266 -0.449,-0.227 -0.516,-0.164 -0.559,-0.082 -0.589,0.02 -0.598,0.133 -0.574,0.254 -0.524,0.371 -0.453,0.476 -0.351,0.567 -0.235,0.625 -0.105,0.656 0.023,0.656 0.153,0.625 0.261,0.567"
         style="fill:none;stroke:#000000;stroke-width:0.4608;stroke-linecap:square;stroke-linejoin:miter;stroke-miterlimit:3.25;stroke-dasharray:none;stroke-opacity:1"
         id="path166" />
      <text
         xml:space="preserve"
         transform="translate(315.23028,30.435721)"
         style="font-variant:normal;font-size:10.56px;font-family:CairoFont-0;-inkscape-font-specification:CairoFont-0-0;writing-mode:lr-tb;fill:#000000;fill-opacity:1;fill-rule:nonzero;stroke:none"
         id="text170"><tspan
           x="0"
           y="0"
           id="tspan168">g</tspan></text>
      <path
         d="m 303.457,50.27 c 0,0.488 -0.195,0.957 -0.539,1.304 -0.348,0.344 -0.816,0.539 -1.305,0.539 -0.488,0 -0.957,-0.195 -1.301,-0.539 -0.347,-0.347 -0.542,-0.816 -0.542,-1.304 0,-0.489 0.195,-0.958 0.542,-1.305 0.344,-0.344 0.813,-0.539 1.301,-0.539 0.489,0 0.957,0.195 1.305,0.539 0.344,0.347 0.539,0.816 0.539,1.305 z"
         style="fill:#000000;fill-opacity:1;fill-rule:evenodd;stroke:none"
         id="path172" />
      <path
         d="m 336.969,50.27 c 0,0.488 -0.192,0.957 -0.539,1.304 -0.344,0.344 -0.813,0.539 -1.301,0.539 -0.492,0 -0.961,-0.195 -1.305,-0.539 -0.347,-0.347 -0.539,-0.816 -0.539,-1.304 0,-0.489 0.192,-0.958 0.539,-1.305 0.344,-0.344 0.813,-0.539 1.305,-0.539 0.488,0 0.957,0.195 1.301,0.539 0.347,0.347 0.539,0.816 0.539,1.305 z"
         style="fill:#000000;fill-opacity:1;fill-rule:evenodd;stroke:none"
         id="path174" />
    </g>
    <g
       id="g176">
      <g
         id="g178"
         clip-path="url(#clipPath182)">
        <text
           xml:space="preserve"
           transform="translate(316.15216,92.45767)"
           style="font-variant:normal;font-size:8.4px;font-family:CairoFont-1;-inkscape-font-specification:CairoFont-1-0;writing-mode:lr-tb;fill:#000000;fill-opacity:1;fill-rule:nonzero;stroke:none"
           id="text186"><tspan
             x="0"
             y="0"
             id="tspan184">4</tspan></text>
      </g>
    </g>
  </g>
</svg>
