<?xml version="1.0" encoding="UTF-8" standalone="no"?>
<!-- Created with Inkscape (http://www.inkscape.org/) -->

<svg
   version="1.1"
   id="svg1"
   width="492"
   height="246.66667"
   viewBox="0 0 492 246.66667"
   sodipodi:docname="1nc85fkdw9j80.pdf"
   xmlns:inkscape="http://www.inkscape.org/namespaces/inkscape"
   xmlns:sodipodi="http://sodipodi.sourceforge.net/DTD/sodipodi-0.dtd"
   xmlns="http://www.w3.org/2000/svg"
   xmlns:svg="http://www.w3.org/2000/svg">
  <defs
     id="defs1">
    <clipPath
       clipPathUnits="userSpaceOnUse"
       id="clipPath21">
      <path
         d="m 80,172 h 5 v 12.32 h -5 z"
         transform="translate(-79.055259,-184.68097)"
         id="path21" />
    </clipPath>
    <clipPath
       clipPathUnits="userSpaceOnUse"
       id="clipPath41">
      <path
         d="m 263,172 h 10 v 12.32 h -10 z"
         transform="translate(-263.37526,-184.68097)"
         id="path41" />
    </clipPath>
  </defs>
  <sodipodi:namedview
     id="namedview1"
     pagecolor="#ffffff"
     bordercolor="#999999"
     borderopacity="1"
     inkscape:showpageshadow="0"
     inkscape:pageopacity="0"
     inkscape:pagecheckerboard="0"
     inkscape:deskcolor="#d1d1d1">
    <inkscape:page
       x="0"
       y="0"
       id="page1"
       width="492"
       height="246.66667"
       margin="0"
       bleed="0" />
  </sodipodi:namedview>
  <g
     id="g1"
     inkscape:groupmode="layer"
     inkscape:label="">
    <path
       id="path1"
       d="M 0,100.539 H 54.457"
       style="fill:none;stroke:#000000;stroke-width:0.9216;stroke-linecap:butt;stroke-linejoin:miter;stroke-miterlimit:3.25;stroke-dasharray:0.9216, 5.5296;stroke-dashoffset:0;stroke-opacity:1"
       transform="scale(1.3333333)" />
    <path
       id="path2"
       d="m 32.258,100.539 -10.055,3.352 v -6.703 z"
       style="fill:#000000;fill-opacity:1;fill-rule:evenodd;stroke:none"
       transform="scale(1.3333333)" />
    <path
       id="path3"
       d="m 3.2123153,-11.026575 v 7.3359376 c 0,0.5507812 0.082031,1.0078125 0.2695312,1.3710937 0.3164063,0.65625 0.9375,0.984375 1.8398438,0.984375 1.2890625,0 2.1796875,-0.5625 2.6367187,-1.7226562 0.2578125,-0.6210938 0.3867188,-1.4765625 0.3867188,-2.5546875 V -11.026575 H 10.19669 V 7.688125e-4 H 8.4505965 L 8.474034,-1.6281374 c -0.2578125,0.421875 -0.5507812,0.78515621 -0.9140625,1.07812496 -0.6914062,0.57421875 -1.5585937,0.8671875 -2.578125,0.8671875 -1.5585937,0 -2.6367187,-0.52734375 -3.2109375,-1.58203126 -0.3164062,-0.5742187 -0.4570312,-1.3125 -0.4570312,-2.2617187 v -7.5000001 z m 16.6874997,-4.488281 c 1.40625,0 2.636719,0.269531 3.691407,0.820312 1.5,0.773438 2.402343,2.167969 2.742187,4.136719 h -2.027344 c -0.246093,-1.101562 -0.761718,-1.898437 -1.535156,-2.402344 -0.761719,-0.515625 -1.757812,-0.761718 -2.941406,-0.761718 -1.394531,0 -2.578125,0.527343 -3.527344,1.582031 -0.972656,1.054687 -1.453125,2.6132811 -1.453125,4.6874998 0,1.8164063 0.398438,3.2695313 1.207031,4.4179688 0.773438,1.1132812 2.0625,1.6875 3.855469,1.6875 1.359375,0 2.496094,-0.4101563 3.398438,-1.1835938 0.890625,-0.8085937 1.359375,-2.0976562 1.382812,-3.8671875 h -4.757812 v -1.6875 h 6.65625 V 7.688125e-4 h -1.3125 L 24.774815,-1.9445437 c -0.703125,0.7617188 -1.3125,1.28906251 -1.839843,1.58203126 -0.902344,0.515625 -2.050782,0.78515625 -3.445313,0.78515625 -1.792969,0 -3.328125,-0.5859375 -4.617187,-1.75781251 -1.417969,-1.453125 -2.121094,-3.4570312 -2.121094,-5.9882812 0,-2.5429688 0.679687,-4.5703121 2.074219,-6.0585941 1.289062,-1.417968 2.976562,-2.132812 5.074218,-2.132812 z m 0,0"
       style="fill:#000000;fill-opacity:1;fill-rule:nonzero;stroke:none"
       aria-label="uG"
       transform="matrix(1.3333333,0,0,1.3333333,17.638788,171.21382)" />
    <path
       id="path4"
       d="m 108.918,67.027 0.906,-1.015 1.09,-0.824 1.227,-0.594 1.324,-0.336 1.363,-0.055 1.348,0.219 1.281,0.48 1.156,0.711 0.996,0.903 0.793,1.039 0.575,1.113 0.339,1.125 0.106,1.07 -0.11,0.953 -0.304,0.782 -0.457,0.562 -0.563,0.309 -0.625,0.035 -0.621,-0.242 -0.57,-0.512 -0.461,-0.754 -0.313,-0.953 -0.121,-1.109 0.094,-1.204 0.328,-1.234 0.559,-1.199 0.785,-1.102 0.984,-0.941 1.153,-0.734 1.273,-0.493 1.348,-0.222 1.363,0.054 1.328,0.329 1.235,0.578 1.097,0.796 0.918,0.961 0.707,1.079 0.477,1.125 0.246,1.113 0.016,1.031 -0.196,0.887 -0.367,0.699 -0.508,0.461 -0.594,0.199 -0.628,-0.078 -0.61,-0.351 -0.531,-0.614 -0.406,-0.84 -0.239,-1.027 -0.039,-1.152 0.188,-1.223 0.426,-1.23 0.652,-1.164 0.867,-1.043 1.059,-0.864 1.207,-0.64 1.308,-0.387 1.36,-0.109 1.355,0.167 1.297,0.434 1.184,0.672 1.031,0.867 0.836,1.02 0.613,1.101 0.383,1.129 0.152,1.086 -0.074,0.981 -0.266,0.816 -0.433,0.609 -0.547,0.356 -0.613,0.09 -0.629,-0.192 -0.582,-0.461 -0.489,-0.711 -0.343,-0.918 -0.16,-1.086 0.054,-1.191 0.282,-1.23 0.515,-1.211 0.746,-1.125 0.949,-0.977 1.122,-0.777 1.253,-0.539 1.336,-0.278 1.368,0.004 1.335,0.278 1.258,0.535 1.125,0.758 0.953,0.933 0.75,1.063 0.524,1.121 0.289,1.117 0.059,1.051 -0.157,0.922 -0.34,0.738 -0.484,0.508 -0.582,0.25 -0.625,-0.024 -0.617,-0.301 -0.551,-0.566 -0.434,-0.801 -0.273,-0.992 -0.078,-1.137 0.144,-1.214 0.379,-1.231 0.61,-1.184 0.832,-1.07 1.023,-0.902 1.184,-0.688 1.293,-0.433 1.355,-0.164 1.36,0.117 1.312,0.383 1.207,0.629 1.063,0.835 0.875,0.997 0.656,1.089 0.43,1.129 0.195,1.102 -0.031,1.004 -0.235,0.851 -0.406,0.653 -0.527,0.406 -0.606,0.141 -0.629,-0.141 -0.597,-0.41 -0.508,-0.664 -0.375,-0.883 -0.199,-1.059 0.011,-1.175 0.239,-1.231 0.472,-1.219 0.703,-1.144 0.911,-1.008 1.093,-0.82 1.235,-0.586 1.324,-0.328 1.363,-0.051 1.348,0.226 1.277,0.489 1.152,0.718"
       style="fill:none;stroke:#000000;stroke-width:0.9216;stroke-linecap:square;stroke-linejoin:miter;stroke-miterlimit:3.25;stroke-dasharray:none;stroke-opacity:1"
       transform="scale(1.3333333)" />
    <path
       id="path5"
       d="m 9.7615621,-10.581027 c 0.3164059,0.234375 0.5859379,0.5976561 0.8437499,1.0312499 l 0.316406,-1.3828129 h 1.710938 L 10.499843,-0.88962087 C 10.195156,0.50491038 9.7615621,1.6299104 9.1639058,2.4267854 c -1.1015625,1.5 -2.7070312,2.2617187 -4.8398437,2.2617187 -1.1953125,0 -2.1328125,-0.2695312 -2.8242188,-0.796875 C 0.79671831,3.3642854 0.50374956,2.5088166 0.65609331,1.3720979 H 2.5545308 c -0.023437,0.5039062 0.082031,0.890625 0.2929688,1.1601562 0.3164062,0.3984375 0.9492187,0.609375 1.8398437,0.609375 1.4414063,0 2.4726563,-0.5039062 3.1289063,-1.4882812 0.375,-0.5976563 0.7148437,-1.65234377 1.0078125,-3.1757813 -0.4804688,0.55078128 -1.0078125,0.97265628 -1.5820313,1.25390628 -0.5859375,0.26953125 -1.3125,0.421875 -2.1796875,0.421875 -1.171875,0 -2.1445312,-0.421875 -2.8710937,-1.27734378 -0.7148438,-0.8554687 -0.8554688,-2.25 -0.4335938,-4.21875 0.3984375,-1.8398437 1.1367188,-3.2929687 2.2734375,-4.3242187 1.125,-1.0429684 2.3203125,-1.5703124 3.5976563,-1.5703124 0.8554687,0 1.5820312,0.210937 2.1328125,0.65625 z m -2.1328125,0.9960936 c -1.3125,0 -2.3320313,0.609375 -3.0703125,1.8398438 -0.3984375,0.65625 -0.7148438,1.5 -0.9257813,2.5546875 -0.2695312,1.2421875 -0.2109375,2.1914062 0.1523438,2.8476562 0.3515625,0.65625 0.9609375,0.9726563 1.828125,0.9726563 1.3359375,0 2.390625,-0.5976563 3.1875,-1.7929688 0.4453125,-0.703125 0.7617187,-1.4765625 0.9609375,-2.390625 0.2929689,-1.3710937 0.2226562,-2.390625 -0.1992188,-3.0351562 -0.421875,-0.65625 -1.078125,-0.9960938 -1.9335937,-0.9960938 z m 0,0"
       style="fill:#000000;fill-opacity:1;fill-rule:nonzero;stroke:none"
       aria-label="g"
       transform="matrix(1.3333333,0,0,1.3333333,173.4963,67.084599)" />
    <path
       id="path6"
       d="m 167.562,142.43 -58.644,-8.379"
       style="fill:none;stroke:#000000;stroke-width:0.9216;stroke-linecap:butt;stroke-linejoin:miter;stroke-miterlimit:3.25;stroke-dasharray:0.9216, 5.5296;stroke-dashoffset:0;stroke-opacity:1"
       transform="scale(1.3333333)" />
    <path
       id="path7"
       d="m 143.215,138.949 -9.477,-4.738 -0.949,6.637 z"
       style="fill:#000000;fill-opacity:1;fill-rule:evenodd;stroke:none"
       transform="scale(1.3333333)" />
    <path
       id="path8"
       d="m 3.2098043,-11.027563 v 7.3359371 c 0,0.5507812 0.082031,1.0078125 0.2695312,1.3710937 0.3164063,0.65625 0.9375,0.984375 1.8398438,0.984375 1.2890625,0 2.1796875,-0.5625 2.6367187,-1.7226562 0.2578125,-0.6210938 0.3867188,-1.4765625 0.3867188,-2.5546875 V -11.027563 H 10.194179 V -2.196875e-4 H 8.4480855 L 8.471523,-1.6291259 c -0.2578125,0.421875 -0.5507812,0.78515621 -0.9140625,1.07812496 -0.6914062,0.57421875 -1.5585937,0.8671875 -2.578125,0.8671875 -1.5585937,0 -2.6367187,-0.52734375 -3.2109375,-1.58203126 -0.3164062,-0.5742187 -0.4570312,-1.3125 -0.4570312,-2.2617187 v -7.4999996 z m 16.6904297,-4.488282 c 1.40625,0 2.636719,0.269532 3.691406,0.820313 1.5,0.773437 2.402344,2.167969 2.742188,4.136719 h -2.027344 c -0.246094,-1.101563 -0.761719,-1.898438 -1.535156,-2.402344 -0.761719,-0.515625 -1.757813,-0.761719 -2.941407,-0.761719 -1.394531,0 -2.578125,0.527344 -3.527343,1.582031 -0.972657,1.054688 -1.453125,2.6132816 -1.453125,4.6875003 0,1.8164063 0.398437,3.2695313 1.207031,4.4179688 0.773437,1.1132812 2.0625,1.6875 3.855469,1.6875 1.359375,0 2.496093,-0.4101563 3.398437,-1.1835938 0.890625,-0.8085937 1.359375,-2.0976562 1.382813,-3.8671875 H 19.93539 v -1.6875 h 6.65625 v 8.0859375125 h -1.3125 L 24.775234,-1.9455322 c -0.703125,0.7617188 -1.3125,1.28906251 -1.839844,1.58203126 -0.902344,0.515625 -2.050781,0.78515625 -3.445312,0.78515625 -1.792969,0 -3.328125,-0.5859375 -4.617188,-1.75781251 -1.417969,-1.453125 -2.121094,-3.4570312 -2.121094,-5.9882812 0,-2.5429688 0.679688,-4.5703126 2.074219,-6.0585936 1.289063,-1.417969 2.976563,-2.132813 5.074219,-2.132813 z m 0,0"
       style="fill:#000000;fill-opacity:1;fill-rule:nonzero;stroke:none"
       aria-label="uG"
       transform="matrix(1.3333333,0,0,1.3333333,163.20464,221.30889)" />
    <path
       id="path9"
       d="M 54.457,100.539 108.918,67.027"
       style="fill:none;stroke:#000000;stroke-width:0.9216;stroke-linecap:butt;stroke-linejoin:miter;stroke-miterlimit:3.25;stroke-dasharray:0.9216, 5.5296;stroke-dashoffset:0;stroke-opacity:1"
       transform="scale(1.3333333)" />
    <path
       id="path10"
       d="M 85.969,81.148 79.164,89.27 75.648,83.562 Z"
       style="fill:#000000;fill-opacity:1;fill-rule:evenodd;stroke:none"
       transform="scale(1.3333333)" />
    <path
       id="path11"
       d="m 3.2121207,-11.026886 v 7.3359379 c 0,0.5507813 0.082031,1.0078125 0.2695313,1.3710938 0.3164062,0.65625 0.9375,0.984375 1.8398437,0.984375 1.2890625,0 2.1796875,-0.5625 2.6367188,-1.7226563 0.2578125,-0.6210937 0.3867187,-1.4765625 0.3867187,-2.5546875 V -11.026886 H 10.196496 V 4.581875e-4 H 8.450402 L 8.4738395,-1.6284481 c -0.2578125,0.421875 -0.5507813,0.78515629 -0.9140625,1.07812504 -0.6914063,0.57421875 -1.5585938,0.8671875 -2.578125,0.8671875 -1.5585938,0 -2.6367188,-0.52734375 -3.2109375,-1.58203124 -0.3164063,-0.5742188 -0.4570313,-1.3125 -0.4570313,-2.2617188 v -7.5000004 z m 16.6875003,-4.488281 c 1.40625,0 2.636718,0.269531 3.691406,0.820313 1.5,0.773437 2.402344,2.167968 2.742187,4.136718 h -2.027343 c -0.246094,-1.101562 -0.761719,-1.898437 -1.535157,-2.402343 -0.761718,-0.515625 -1.757812,-0.761719 -2.941406,-0.761719 -1.394531,0 -2.578125,0.527344 -3.527344,1.582031 -0.972656,1.054688 -1.453125,2.6132814 -1.453125,4.6875002 0,1.8164062 0.398438,3.2695312 1.207032,4.4179687 0.773437,1.1132813 2.0625,1.6875 3.855468,1.6875 1.359375,0 2.496094,-0.4101562 3.398438,-1.1835937 0.890625,-0.8085938 1.359375,-2.0976563 1.382812,-3.8671875 h -4.757812 v -1.6875 h 6.65625 V 4.581875e-4 h -1.3125 L 24.774621,-1.9448543 c -0.703125,0.7617187 -1.3125,1.28906249 -1.839844,1.58203124 -0.902344,0.515625 -2.050781,0.78515625 -3.445313,0.78515625 -1.792968,0 -3.328125,-0.5859375 -4.617187,-1.75781249 -1.417969,-1.453125 -2.121094,-3.4570313 -2.121094,-5.9882813 0,-2.5429687 0.679688,-4.5703124 2.074219,-6.0585934 1.289062,-1.417969 2.976562,-2.132813 5.074219,-2.132813 z m 0,0"
       style="fill:#000000;fill-opacity:1;fill-rule:nonzero;stroke:none"
       aria-label="uG"
       transform="matrix(1.3333333,0,0,1.3333333,66.920297,93.597045)" />
    <path
       id="path12"
       d="m 108.918,134.051 -1.273,0.176 -1.293,-0.047 -1.27,-0.274 -1.195,-0.504 -1.082,-0.714 -0.93,-0.903 -0.754,-1.055 -0.555,-1.168 -0.339,-1.234 -0.129,-1.25 0.07,-1.215 0.258,-1.133 0.414,-1.003 0.535,-0.84 0.617,-0.641 0.653,-0.422 0.64,-0.195 0.582,0.035 0.485,0.25 0.347,0.449 0.176,0.617 -0.02,0.739 -0.226,0.824 -0.438,0.855 -0.648,0.84 -0.84,0.774 -1.004,0.656 -1.137,0.504 -1.234,0.316 -1.285,0.106 -1.289,-0.121 -1.25,-0.352 -1.16,-0.578 -1.039,-0.777 -0.875,-0.957 -0.688,-1.098 -0.484,-1.195 -0.27,-1.243 -0.062,-1.246 0.136,-1.191 0.313,-1.098 0.457,-0.953 0.566,-0.777 0.633,-0.57 0.657,-0.348 0.624,-0.117 0.555,0.105 0.445,0.32 0.293,0.508 0.114,0.66 -0.086,0.774 -0.297,0.84 -0.512,0.855 -0.711,0.824 -0.894,0.739 -1.055,0.613 -1.176,0.445 -1.254,0.25 -1.293,0.028 -1.281,-0.196 -1.222,-0.429 -1.126,-0.645 -0.988,-0.844 -0.816,-1.004 -0.621,-1.136 -0.414,-1.215 -0.203,-1.25 0.007,-1.235 0.2,-1.164 0.363,-1.054 0.496,-0.899 0.594,-0.711 0.644,-0.5 0.653,-0.273 0.609,-0.039 0.519,0.18 0.399,0.382 0.238,0.563 0.047,0.703 -0.152,0.801 -0.371,0.851 -0.578,0.852 -0.774,0.797 -0.953,0.703 -1.098,0.562 -1.207,0.383 -1.269,0.18 -1.293,-0.047 -1.27,-0.273 -1.195,-0.5 -1.082,-0.715 -0.934,-0.903 -0.754,-1.05 -0.554,-1.168 -0.344,-1.235 -0.133,-1.25 0.07,-1.215 0.258,-1.132 0.414,-1.008 0.532,-0.84 0.617,-0.645 0.652,-0.425 0.641,-0.196 0.586,0.035 0.484,0.25 0.348,0.446 0.175,0.613 -0.015,0.742 -0.227,0.821 -0.437,0.855 -0.645,0.84 -0.836,0.773 -1.004,0.66 -1.136,0.504 -1.235,0.321 -1.285,0.105 -1.289,-0.121 -1.25,-0.348 -1.16,-0.574 -1.039,-0.781 -0.879,-0.953 -0.688,-1.098 -0.488,-1.191 -0.269,-1.246 -0.067,-1.243 0.137,-1.195 0.312,-1.098 0.457,-0.953 0.567,-0.777 0.633,-0.574 0.652,-0.352 0.629,-0.121 0.555,0.11 0.445,0.316 0.293,0.508 0.113,0.66 -0.082,0.769 -0.297,0.84 -0.508,0.856 -0.707,0.824 -0.898,0.738 -1.051,0.614 -1.172,0.449 -1.257,0.25 -1.289,0.031 -1.282,-0.195 -1.226,-0.426 -1.125,-0.645 -0.989,-0.839 -0.816,-1.008 -0.625,-1.133 -0.418,-1.215"
       style="fill:none;stroke:#000000;stroke-width:0.9216;stroke-linecap:square;stroke-linejoin:miter;stroke-miterlimit:3.25;stroke-dasharray:none;stroke-opacity:1"
       transform="scale(1.3333333)" />
    <path
       id="path13"
       d="m 9.7619254,-10.581704 c 0.3164066,0.234375 0.5859376,0.5976562 0.8437496,1.03125 l 0.316407,-1.382813 h 1.710937 L 10.500207,-0.89029775 C 10.195519,0.5042335 9.7619254,1.6292335 9.1642692,2.4261085 c -1.1015625,1.5 -2.7070313,2.2617187 -4.8398438,2.2617187 -1.1953125,0 -2.1328125,-0.2695312 -2.8242187,-0.796875 C 0.79708169,3.3636085 0.50411294,2.5081397 0.65645669,1.371421 H 2.5548942 c -0.023437,0.5039062 0.082031,0.890625 0.2929687,1.1601562 0.3164063,0.3984375 0.9492188,0.609375 1.8398438,0.609375 1.4414062,0 2.4726562,-0.5039062 3.1289062,-1.4882812 0.375,-0.5976563 0.7148438,-1.65234375 1.0078125,-3.1757813 -0.4804687,0.5507813 -1.0078125,0.9726563 -1.5820312,1.2539063 -0.5859375,0.26953125 -1.3125,0.421875 -2.1796875,0.421875 -1.171875,0 -2.1445313,-0.421875 -2.8710938,-1.2773438 -0.7148437,-0.8554687 -0.8554687,-2.25 -0.4335937,-4.21875 0.3984375,-1.8398437 1.1367187,-3.2929687 2.2734375,-4.3242187 1.125,-1.0429685 2.3203125,-1.5703125 3.5976562,-1.5703125 0.8554688,0 1.5820313,0.210937 2.1328125,0.65625 z m -2.1328125,0.9960937 c -1.3125,0 -2.3320312,0.609375 -3.0703125,1.8398438 -0.3984375,0.65625 -0.7148437,1.5 -0.9257812,2.5546875 -0.2695313,1.2421875 -0.2109375,2.1914062 0.1523437,2.8476562 0.3515625,0.65625 0.9609375,0.9726563 1.828125,0.9726563 1.3359375,0 2.390625,-0.5976563 3.1875,-1.7929688 0.4453125,-0.703125 0.7617188,-1.4765625 0.9609375,-2.390625 0.2929686,-1.3710937 0.2226563,-2.390625 -0.1992187,-3.0351562 -0.421875,-0.65625 -1.078125,-0.9960938 -1.9335938,-0.9960938 z m 0,0"
       style="fill:#000000;fill-opacity:1;fill-rule:nonzero;stroke:none"
       aria-label="g"
       transform="matrix(1.3333333,0,0,1.3333333,87.503631,194.79644)" />
    <path
       id="path14"
       d="m 108.918,67.027 v 67.024"
       style="fill:none;stroke:#000000;stroke-width:0.9216;stroke-linecap:butt;stroke-linejoin:miter;stroke-miterlimit:3.25;stroke-dasharray:0.9216, 5.5296;stroke-dashoffset:0;stroke-opacity:1"
       transform="scale(1.3333333)" />
    <path
       id="path15"
       d="m 108.918,105.566 -3.352,-10.054 h 6.704 z"
       style="fill:#000000;fill-opacity:1;fill-rule:evenodd;stroke:none"
       transform="scale(1.3333333)" />
    <path
       id="path16"
       d="m 3.2094748,-11.028416 v 7.3359371 c 0,0.5507813 0.082031,1.0078125 0.2695313,1.3710938 0.3164062,0.65625 0.9375,0.984375 1.8398437,0.984375 1.2890625,0 2.1796875,-0.5625 2.6367188,-1.7226563 0.2578125,-0.6210937 0.3867187,-1.4765625 0.3867187,-2.5546875 V -11.028416 H 10.19385 V -0.00107263 H 8.4477561 l 0.023437,-1.62890627 c -0.2578125,0.421875 -0.5507813,0.78515627 -0.9140625,1.07812502 -0.6914063,0.57421875 -1.5585938,0.8671875 -2.578125,0.8671875 -1.5585938,0 -2.6367188,-0.52734375 -3.2109375,-1.58203122 -0.3164063,-0.5742188 -0.4570313,-1.3125 -0.4570313,-2.2617188 v -7.4999996 z m 16.6904302,-4.488282 c 1.40625,0 2.636718,0.269532 3.691406,0.820313 1.5,0.773437 2.402344,2.167969 2.742187,4.136719 h -2.027343 c -0.246094,-1.101563 -0.761719,-1.898438 -1.535157,-2.402344 -0.761718,-0.515625 -1.757812,-0.761719 -2.941406,-0.761719 -1.394531,0 -2.578125,0.527344 -3.527344,1.582031 -0.972656,1.054688 -1.453125,2.6132816 -1.453125,4.6875004 0,1.8164062 0.398438,3.2695312 1.207032,4.4179687 0.773437,1.1132813 2.0625,1.6875 3.855468,1.6875 1.359375,0 2.496094,-0.4101562 3.398438,-1.1835937 0.890625,-0.8085938 1.359375,-2.0976563 1.382812,-3.8671875 h -4.757812 v -1.6875 h 6.65625 v 8.08593747 h -1.3125 L 24.774905,-1.9463851 c -0.703125,0.7617187 -1.3125,1.28906247 -1.839844,1.58203122 -0.902344,0.515625 -2.050781,0.78515625 -3.445313,0.78515625 -1.792968,0 -3.328125,-0.5859375 -4.617187,-1.75781247 -1.417969,-1.453125 -2.121094,-3.4570313 -2.121094,-5.9882813 0,-2.5429687 0.679688,-4.5703126 2.074219,-6.0585936 1.289062,-1.417969 2.976562,-2.132813 5.074219,-2.132813 z m 0,0"
       style="fill:#000000;fill-opacity:1;fill-rule:nonzero;stroke:none"
       aria-label="uG"
       transform="matrix(1.3333333,0,0,1.3333333,158.06054,144.19674)" />
    <path
       id="path17"
       d="m 58.145,100.539 c 0,0.977 -0.387,1.914 -1.079,2.606 -0.691,0.691 -1.628,1.078 -2.609,1.078 -0.977,0 -1.914,-0.387 -2.605,-1.078 -0.692,-0.692 -1.079,-1.629 -1.079,-2.606 0,-0.98 0.387,-1.918 1.079,-2.609 0.691,-0.692 1.628,-1.078 2.605,-1.078 0.981,0 1.918,0.386 2.609,1.078 0.692,0.691 1.079,1.629 1.079,2.609 z"
       style="fill:#000000;fill-opacity:1;fill-rule:evenodd;stroke:none"
       transform="scale(1.3333333)" />
    <path
       id="path18"
       d="m 112.602,67.027 c 0,0.977 -0.387,1.914 -1.079,2.606 -0.691,0.691 -1.628,1.078 -2.605,1.078 -0.98,0 -1.918,-0.387 -2.609,-1.078 -0.692,-0.692 -1.079,-1.629 -1.079,-2.606 0,-0.98 0.387,-1.918 1.079,-2.609 0.691,-0.691 1.629,-1.078 2.609,-1.078 0.977,0 1.914,0.387 2.605,1.078 0.692,0.691 1.079,1.629 1.079,2.609 z"
       style="fill:#000000;fill-opacity:1;fill-rule:evenodd;stroke:none"
       transform="scale(1.3333333)" />
    <path
       id="path19"
       d="m 112.602,134.051 c 0,0.976 -0.387,1.914 -1.079,2.605 -0.691,0.692 -1.628,1.082 -2.605,1.082 -0.98,0 -1.918,-0.39 -2.609,-1.082 -0.692,-0.691 -1.079,-1.629 -1.079,-2.605 0,-0.977 0.387,-1.914 1.079,-2.606 0.691,-0.691 1.629,-1.082 2.609,-1.082 0.977,0 1.914,0.391 2.605,1.082 0.692,0.692 1.079,1.629 1.079,2.606 z"
       style="fill:#000000;fill-opacity:1;fill-rule:evenodd;stroke:none"
       transform="scale(1.3333333)" />
    <path
       id="path20"
       d="m 1.5931815,-8.3196379 v -1.125 c 1.078125,-0.1054687 1.8164063,-0.28125 2.2382813,-0.515625 0.421875,-0.2343751 0.7382812,-0.8320311 0.9375,-1.7343751 H 5.9525565 V 6.74625e-4 H 4.3705253 V -8.3196379 Z m 0,0"
       style="fill:#000000;fill-opacity:1;fill-rule:nonzero;stroke:none"
       aria-label="1"
       transform="matrix(1.3333333,0,0,1.3333333,105.40701,246.24129)"
       clip-path="url(#clipPath21)" />
    <path
       id="path22"
       d="m 184.32,100.539 h 54.457"
       style="fill:none;stroke:#000000;stroke-width:0.9216;stroke-linecap:butt;stroke-linejoin:miter;stroke-miterlimit:3.25;stroke-dasharray:0.9216, 5.5296;stroke-dashoffset:0;stroke-opacity:1"
       transform="scale(1.3333333)" />
    <path
       id="path23"
       d="m 216.574,100.539 -10.051,3.352 v -6.703 z"
       style="fill:#000000;fill-opacity:1;fill-rule:evenodd;stroke:none"
       transform="scale(1.3333333)" />
    <path
       id="path24"
       d="m 3.2106746,-11.026575 v 7.3359376 c 0,0.5507812 0.082031,1.0078125 0.2695313,1.3710937 0.3164062,0.65625 0.9375,0.984375 1.8398437,0.984375 1.2890625,0 2.1796875,-0.5625 2.6367188,-1.7226562 0.2578125,-0.6210938 0.3867187,-1.4765625 0.3867187,-2.5546875 V -11.026575 H 10.19505 V 7.688125e-4 H 8.4489559 L 8.4723934,-1.6281374 c -0.2578125,0.421875 -0.5507813,0.78515621 -0.9140625,1.07812496 -0.6914063,0.57421875 -1.5585938,0.8671875 -2.578125,0.8671875 -1.5585938,0 -2.6367188,-0.52734375 -3.2109375,-1.58203126 -0.3164063,-0.5742187 -0.4570313,-1.3125 -0.4570313,-2.2617187 v -7.5000001 z m 16.6875004,-4.488281 c 1.40625,0 2.636718,0.269531 3.691406,0.820312 1.5,0.773438 2.402344,2.167969 2.742187,4.136719 h -2.027343 c -0.246094,-1.101562 -0.761719,-1.898437 -1.535157,-2.402344 -0.761718,-0.515625 -1.757812,-0.761718 -2.941406,-0.761718 -1.394531,0 -2.578125,0.527343 -3.527344,1.582031 -0.972656,1.054687 -1.453125,2.6132811 -1.453125,4.6874998 0,1.8164063 0.398438,3.2695313 1.207032,4.4179688 0.773437,1.1132812 2.0625,1.6875 3.855468,1.6875 1.359375,0 2.496094,-0.4101563 3.398438,-1.1835938 0.890625,-0.8085937 1.359375,-2.0976562 1.382812,-3.8671875 h -4.757812 v -1.6875 h 6.65625 V 7.688125e-4 h -1.3125 L 24.773175,-1.9445437 c -0.703125,0.7617188 -1.3125,1.28906251 -1.839844,1.58203126 -0.902344,0.515625 -2.050781,0.78515625 -3.445313,0.78515625 -1.792968,0 -3.328125,-0.5859375 -4.617187,-1.75781251 -1.417969,-1.453125 -2.121094,-3.4570312 -2.121094,-5.9882812 0,-2.5429688 0.679688,-4.5703121 2.074219,-6.0585941 1.289062,-1.417968 2.976562,-2.132812 5.074219,-2.132812 z m 0,0"
       style="fill:#000000;fill-opacity:1;fill-rule:nonzero;stroke:none"
       aria-label="uG"
       transform="matrix(1.3333333,0,0,1.3333333,263.39879,171.21382)" />
    <path
       id="path25"
       d="m 293.238,67.027 0.907,-1.015 1.085,-0.824 1.231,-0.594 1.324,-0.336 1.363,-0.055 1.348,0.219 1.281,0.48 1.157,0.711 0.996,0.903 0.793,1.039 0.574,1.113 0.34,1.125 0.105,1.07 -0.113,0.953 -0.301,0.782 -0.457,0.562 -0.566,0.309 -0.621,0.035 -0.622,-0.242 -0.57,-0.512 -0.461,-0.754 -0.312,-0.953 -0.121,-1.109 0.093,-1.204 0.329,-1.234 0.558,-1.199 0.785,-1.102 0.985,-0.941 1.152,-0.734 1.273,-0.493 1.348,-0.222 1.363,0.054 1.325,0.329 1.238,0.578 1.098,0.796 0.914,0.961 0.711,1.079 0.476,1.125 0.246,1.113 0.016,1.031 -0.196,0.887 -0.371,0.699 -0.503,0.461 -0.594,0.199 -0.629,-0.078 -0.61,-0.351 -0.531,-0.614 -0.406,-0.84 -0.238,-1.027 -0.039,-1.152 0.187,-1.223 0.426,-1.23 0.652,-1.164 0.867,-1.043 1.059,-0.864 1.207,-0.64 1.309,-0.387 1.359,-0.109 1.355,0.167 1.297,0.434 1.184,0.672 1.031,0.867 0.832,1.02 0.617,1.101 0.383,1.129 0.153,1.086 -0.075,0.981 -0.269,0.816 -0.43,0.609 -0.547,0.356 -0.617,0.09 -0.625,-0.192 -0.582,-0.461 -0.488,-0.711 -0.344,-0.918 -0.16,-1.086 0.051,-1.191 0.285,-1.23 0.515,-1.211 0.747,-1.125 0.949,-0.977 1.121,-0.777 1.254,-0.539 1.336,-0.278 1.367,0.004 1.336,0.278 1.258,0.535 1.125,0.758 0.953,0.933 0.75,1.063 0.523,1.121 0.289,1.117 0.059,1.051 -0.156,0.922 -0.34,0.738 -0.485,0.508 -0.582,0.25 -0.625,-0.024 -0.617,-0.301 -0.551,-0.566 -0.433,-0.801 -0.274,-0.992 -0.078,-1.137 0.145,-1.214 0.379,-1.231 0.609,-1.184 0.832,-1.07 1.024,-0.902 1.183,-0.688 1.293,-0.433 1.352,-0.164 1.363,0.117 1.309,0.383 1.21,0.629 1.063,0.835 0.875,0.997 0.656,1.089 0.43,1.129 0.191,1.102 -0.031,1.004 -0.23,0.851 -0.407,0.653 -0.527,0.406 -0.609,0.141 -0.625,-0.141 -0.598,-0.41 -0.508,-0.664 -0.375,-0.883 -0.199,-1.059 0.012,-1.175 0.238,-1.231 0.473,-1.219 0.703,-1.144 0.91,-1.008 1.094,-0.82 1.234,-0.586 1.324,-0.328 1.363,-0.051 1.348,0.226 1.277,0.489 1.153,0.718"
       style="fill:none;stroke:#000000;stroke-width:0.9216;stroke-linecap:square;stroke-linejoin:miter;stroke-miterlimit:3.25;stroke-dasharray:none;stroke-opacity:1"
       transform="scale(1.3333333)" />
    <path
       id="path26"
       d="m 9.7628511,-10.581027 c 0.3164059,0.234375 0.5859379,0.5976561 0.8437499,1.0312499 l 0.316406,-1.3828129 h 1.710938 L 10.501132,-0.88962087 C 10.196445,0.50491038 9.7628511,1.6299104 9.1651949,2.4267854 c -1.1015625,1.5 -2.7070313,2.2617187 -4.8398438,2.2617187 -1.1953125,0 -2.1328125,-0.2695312 -2.8242187,-0.796875 C 0.79800737,3.3642854 0.50503862,2.5088166 0.65738237,1.3720979 H 2.5558199 c -0.023437,0.5039062 0.082031,0.890625 0.2929687,1.1601562 0.3164063,0.3984375 0.9492188,0.609375 1.8398438,0.609375 1.4414062,0 2.4726562,-0.5039062 3.1289062,-1.4882812 0.375,-0.5976563 0.7148438,-1.65234377 1.0078125,-3.1757813 -0.4804687,0.55078128 -1.0078125,0.97265628 -1.5820312,1.25390628 -0.5859375,0.26953125 -1.3125,0.421875 -2.1796875,0.421875 -1.171875,0 -2.1445313,-0.421875 -2.8710938,-1.27734378 -0.7148437,-0.8554687 -0.8554687,-2.25 -0.4335937,-4.21875 0.3984375,-1.8398437 1.1367187,-3.2929687 2.2734375,-4.3242187 1.125,-1.0429684 2.3203125,-1.5703124 3.5976562,-1.5703124 0.8554688,0 1.5820313,0.210937 2.1328125,0.65625 z m -2.1328125,0.9960936 c -1.3125,0 -2.3320312,0.609375 -3.0703125,1.8398438 -0.3984375,0.65625 -0.7148437,1.5 -0.9257812,2.5546875 -0.2695313,1.2421875 -0.2109375,2.1914062 0.1523437,2.8476562 0.3515625,0.65625 0.9609375,0.9726563 1.828125,0.9726563 1.3359375,0 2.390625,-0.5976563 3.1875,-1.7929688 0.4453125,-0.703125 0.7617188,-1.4765625 0.9609375,-2.390625 0.2929689,-1.3710937 0.2226563,-2.390625 -0.1992187,-3.0351562 -0.421875,-0.65625 -1.078125,-0.9960938 -1.9335938,-0.9960938 z m 0,0"
       style="fill:#000000;fill-opacity:1;fill-rule:nonzero;stroke:none"
       aria-label="g"
       transform="matrix(1.3333333,0,0,1.3333333,419.2563,67.084599)" />
    <path
       id="path27"
       d="m 351.883,142.43 -58.645,-8.379"
       style="fill:none;stroke:#000000;stroke-width:0.9216;stroke-linecap:butt;stroke-linejoin:miter;stroke-miterlimit:3.25;stroke-dasharray:0.9216, 5.5296;stroke-dashoffset:0;stroke-opacity:1"
       transform="scale(1.3333333)" />
    <path
       id="path28"
       d="m 327.535,138.949 -9.476,-4.738 -0.95,6.637 z"
       style="fill:#000000;fill-opacity:1;fill-rule:evenodd;stroke:none"
       transform="scale(1.3333333)" />
    <path
       id="path29"
       d="m 3.2110933,-11.027563 v 7.3359371 c 0,0.5507812 0.082031,1.0078125 0.2695313,1.3710937 0.3164062,0.65625 0.9375,0.984375 1.8398437,0.984375 1.2890625,0 2.1796875,-0.5625 2.6367188,-1.7226562 0.2578125,-0.6210938 0.3867187,-1.4765625 0.3867187,-2.5546875 V -11.027563 H 10.195468 V -2.196875e-4 H 8.4493746 L 8.4728121,-1.6291259 c -0.2578125,0.421875 -0.5507813,0.78515621 -0.9140625,1.07812496 -0.6914063,0.57421875 -1.5585938,0.8671875 -2.578125,0.8671875 -1.5585938,0 -2.6367188,-0.52734375 -3.2109375,-1.58203126 -0.3164063,-0.5742187 -0.4570313,-1.3125 -0.4570313,-2.2617187 v -7.4999996 z m 16.6874997,-4.488282 c 1.40625,0 2.636719,0.269532 3.691407,0.820313 1.5,0.773437 2.402343,2.167969 2.742187,4.136719 h -2.027344 c -0.246093,-1.101563 -0.761718,-1.898438 -1.535156,-2.402344 -0.761719,-0.515625 -1.757812,-0.761719 -2.941406,-0.761719 -1.394531,0 -2.578125,0.527344 -3.527344,1.582031 -0.972656,1.054688 -1.453125,2.6132816 -1.453125,4.6875003 0,1.8164063 0.398438,3.2695313 1.207031,4.4179688 0.773438,1.1132812 2.0625,1.6875 3.855469,1.6875 1.359375,0 2.496094,-0.4101563 3.398438,-1.1835938 0.890625,-0.8085937 1.359375,-2.0976562 1.382812,-3.8671875 H 19.93375 v -1.6875 H 26.59 V -2.196875e-4 H 25.2775 L 24.773593,-1.9455322 c -0.703125,0.7617188 -1.3125,1.28906251 -1.839843,1.58203126 -0.902344,0.515625 -2.050782,0.78515625 -3.445313,0.78515625 -1.792969,0 -3.328125,-0.5859375 -4.617187,-1.75781251 -1.417969,-1.453125 -2.121094,-3.4570312 -2.121094,-5.9882812 0,-2.5429688 0.679687,-4.5703126 2.074219,-6.0585936 1.289062,-1.417969 2.976562,-2.132813 5.074218,-2.132813 z m 0,0"
       style="fill:#000000;fill-opacity:1;fill-rule:nonzero;stroke:none"
       aria-label="uG"
       transform="matrix(1.3333333,0,0,1.3333333,408.96464,221.30889)" />
    <path
       id="path30"
       d="m 293.238,67.027 -0.418,1.215 -0.625,1.133 -0.816,1.008 -0.988,0.84 -1.125,0.644 -1.227,0.426 -1.281,0.195 -1.289,-0.031 -1.258,-0.254 -1.172,-0.445 -1.055,-0.613 -0.894,-0.743 -0.711,-0.82 -0.508,-0.855 -0.293,-0.84 -0.086,-0.774 0.117,-0.66 0.293,-0.504 0.446,-0.32 0.554,-0.106 0.629,0.122 0.653,0.351 0.632,0.57 0.567,0.782 0.457,0.953 0.312,1.097 0.133,1.192 -0.062,1.246 -0.274,1.242 -0.484,1.195 -0.692,1.098 -0.875,0.953 -1.039,0.778 -1.164,0.574 -1.246,0.351 -1.289,0.121 -1.285,-0.105 -1.234,-0.32 -1.137,-0.504 -1.004,-0.66 -0.836,-0.774 -0.644,-0.84 -0.442,-0.855 -0.223,-0.824 -0.015,-0.739 0.176,-0.613 0.347,-0.449 0.485,-0.25 0.586,-0.031 0.64,0.195 0.653,0.426 0.613,0.644 0.535,0.84 0.414,1.008 0.254,1.133 0.074,1.215 -0.133,1.25 -0.343,1.234 -0.555,1.164 -0.754,1.055 -0.934,0.902 -1.082,0.711 -1.195,0.504 -1.269,0.273 -1.293,0.043 -1.274,-0.176 -1.203,-0.386 -1.098,-0.559 -0.953,-0.703 -0.777,-0.801 -0.578,-0.847 -0.367,-0.852 -0.153,-0.801 0.047,-0.703 0.238,-0.562 0.395,-0.387 0.523,-0.18 0.61,0.043 0.648,0.274 0.645,0.5 0.593,0.711 0.5,0.898 0.364,1.051 0.199,1.168 0.004,1.23 -0.199,1.25 -0.414,1.219 -0.621,1.133 -0.817,1.008 -0.988,0.843 -1.125,0.645 -1.223,0.426 -1.281,0.199 -1.293,-0.031 -1.254,-0.246 -1.176,-0.446 -1.054,-0.613 -0.895,-0.738 -0.715,-0.825 -0.508,-0.855 -0.297,-0.84 -0.085,-0.773 0.113,-0.66 0.293,-0.508 0.441,-0.321 0.559,-0.109 0.625,0.121 0.652,0.348 0.633,0.57 0.57,0.777 0.457,0.954 0.313,1.093 0.137,1.196 -0.063,1.242 -0.269,1.246 -0.485,1.195 -0.687,1.098 -0.879,0.953 -1.035,0.781 -1.161,0.574 -1.25,0.356 -1.289,0.121 -1.285,-0.105 -1.234,-0.317 -1.137,-0.504 -1.008,-0.66 -0.836,-0.769 -0.648,-0.84 -0.438,-0.856 -0.226,-0.824 -0.02,-0.742 0.176,-0.613 0.344,-0.45 0.484,-0.254 0.586,-0.031 0.641,0.192 0.652,0.425 0.613,0.641 0.539,0.84 0.411,1.004 0.257,1.133 0.075,1.214 -0.129,1.25 -0.344,1.235 -0.551,1.168 -0.754,1.054 -0.933,0.903 -1.078,0.715 -1.2,0.5 -1.265,0.277 -1.293,0.047 -1.274,-0.176"
       style="fill:none;stroke:#000000;stroke-width:0.9216;stroke-linecap:square;stroke-linejoin:miter;stroke-miterlimit:3.25;stroke-dasharray:none;stroke-opacity:1"
       transform="scale(1.3333333)" />
    <path
       id="path31"
       d="m 9.7607316,-10.581947 c 0.3164064,0.234375 0.5859374,0.597656 0.8437504,1.0312498 l 0.316406,-1.3828128 h 1.710937 L 10.499013,-0.890541 C 10.194325,0.50399025 9.7607316,1.6289903 9.1630754,2.4258653 8.0615129,3.9258653 6.4560441,4.687584 4.3232316,4.687584 3.1279191,4.687584 2.1904191,4.4180528 1.4990129,3.890709 0.79588788,3.3633653 0.50291913,2.5078965 0.65526288,1.3711778 H 2.5537004 c -0.023437,0.5039062 0.082031,0.890625 0.2929687,1.1601562 0.3164063,0.3984375 0.9492188,0.609375 1.8398438,0.609375 1.4414062,0 2.4726562,-0.5039062 3.1289062,-1.4882812 0.375,-0.5976563 0.7148438,-1.6523438 1.0078125,-3.1757813 -0.4804687,0.55078125 -1.0078125,0.97265625 -1.5820312,1.25390625 -0.5859375,0.26953125 -1.3125,0.421875 -2.1796875,0.421875 -1.171875,0 -2.1445313,-0.421875 -2.8710938,-1.27734375 -0.7148437,-0.8554687 -0.8554687,-2.25 -0.4335937,-4.21875 0.3984375,-1.8398437 1.1367187,-3.2929687 2.2734375,-4.3242187 1.125,-1.0429683 2.3203125,-1.5703123 3.5976562,-1.5703123 0.8554688,0 1.5820313,0.210937 2.1328125,0.65625 z m -2.1328125,0.9960935 c -1.3125,0 -2.3320312,0.609375 -3.0703125,1.8398438 -0.3984375,0.65625 -0.7148437,1.5 -0.9257812,2.5546875 -0.2695313,1.2421875 -0.2109375,2.1914062 0.1523437,2.8476562 0.3515625,0.65625 0.9609375,0.9726563 1.828125,0.9726563 1.3359375,0 2.390625,-0.5976563 3.1875,-1.7929688 0.4453125,-0.703125 0.7617188,-1.4765625 0.9609375,-2.390625 0.2929684,-1.3710937 0.2226563,-2.390625 -0.1992187,-3.0351562 -0.421875,-0.65625 -1.078125,-0.9960938 -1.9335938,-0.9960938 z m 0,0"
       style="fill:#000000;fill-opacity:1;fill-rule:nonzero;stroke:none"
       aria-label="g"
       transform="matrix(1.3333333,0,0,1.3333333,329.16538,86.937388)" />
    <path
       id="path32"
       d="m 238.777,100.539 54.461,33.512"
       style="fill:none;stroke:#000000;stroke-width:0.9216;stroke-linecap:butt;stroke-linejoin:miter;stroke-miterlimit:3.25;stroke-dasharray:0.9216, 5.5296;stroke-dashoffset:0;stroke-opacity:1"
       transform="scale(1.3333333)" />
    <path
       id="path33"
       d="m 270.289,119.93 -10.32,-2.414 3.515,-5.711 z"
       style="fill:#000000;fill-opacity:1;fill-rule:evenodd;stroke:none"
       transform="scale(1.3333333)" />
    <path
       id="path34"
       d="m 3.2104801,-11.027017 v 7.335938 c 0,0.5507812 0.082031,1.0078125 0.2695313,1.3710937 0.3164062,0.65625 0.9375,0.984375 1.8398437,0.984375 1.2890625,0 2.1796875,-0.5625 2.6367188,-1.7226562 0.2578125,-0.6210938 0.3867187,-1.4765625 0.3867187,-2.5546875 v -5.414063 H 10.194855 V 3.2725e-4 H 8.4487614 L 8.4721989,-1.628579 c -0.2578125,0.421875 -0.5507813,0.78515625 -0.9140625,1.078125 -0.6914063,0.57421875 -1.5585938,0.8671875 -2.578125,0.8671875 -1.5585938,0 -2.6367188,-0.52734375 -3.2109375,-1.5820313 -0.3164063,-0.5742187 -0.4570313,-1.3125 -0.4570313,-2.2617187 V -11.027017 Z M 19.89798,-15.515298 c 1.40625,0 2.636719,0.269531 3.691406,0.820313 1.5,0.773437 2.402344,2.167968 2.742188,4.136718 H 24.30423 c -0.246094,-1.101562 -0.761719,-1.898437 -1.535156,-2.402343 -0.761719,-0.515625 -1.757813,-0.761719 -2.941406,-0.761719 -1.394532,0 -2.578125,0.527344 -3.527344,1.582031 -0.972656,1.054688 -1.453125,2.6132815 -1.453125,4.6875002 0,1.8164063 0.398437,3.2695313 1.207031,4.4179688 0.773438,1.1132812 2.0625,1.6875 3.855469,1.6875 1.359375,0 2.496094,-0.4101563 3.398437,-1.1835938 0.890625,-0.8085937 1.359375,-2.0976562 1.382813,-3.8671875 h -4.757813 v -1.6875 h 6.65625 V 3.2725e-4 h -1.3125 L 24.77298,-1.9449853 c -0.703125,0.7617188 -1.3125,1.28906255 -1.839844,1.5820313 -0.902343,0.515625 -2.050781,0.78515625 -3.445312,0.78515625 -1.792969,0 -3.328125,-0.5859375 -4.617188,-1.75781255 -1.417968,-1.453125 -2.121093,-3.4570312 -2.121093,-5.9882812 0,-2.5429688 0.679687,-4.5703125 2.074218,-6.0585935 1.289063,-1.417969 2.976563,-2.132813 5.074219,-2.132813 z m 0,0"
       style="fill:#000000;fill-opacity:1;fill-rule:nonzero;stroke:none"
       aria-label="uG"
       transform="matrix(1.3333333,0,0,1.3333333,312.6803,194.79644)" />
    <path
       id="path35"
       d="m 293.238,134.051 -0.781,-0.957 -0.621,-1.082 -0.434,-1.172 -0.226,-1.231 -0.012,-1.25 0.203,-1.234 0.41,-1.18 0.602,-1.093 0.766,-0.973 0.894,-0.828 0.988,-0.66 1.035,-0.485 1.043,-0.304 1,-0.125 0.918,0.046 0.793,0.192 0.637,0.316 0.449,0.414 0.246,0.477 0.032,0.496 -0.184,0.488 -0.394,0.434 -0.586,0.348 -0.754,0.23 -0.883,0.09 -0.981,-0.074 -1.035,-0.25 -1.043,-0.434 -1.008,-0.613 -0.925,-0.782 -0.805,-0.933 -0.652,-1.059 -0.469,-1.16 -0.262,-1.223 -0.051,-1.25 0.164,-1.242 0.376,-1.191 0.57,-1.109 0.738,-0.997 0.875,-0.855 0.973,-0.691 1.031,-0.516 1.043,-0.336 1.012,-0.156 0.937,0.015 0.817,0.168 0.668,0.297 0.484,0.399 0.285,0.464 0.067,0.5 -0.145,0.489 -0.359,0.445 -0.551,0.367 -0.727,0.254 -0.863,0.117 -0.965,-0.043 -1.031,-0.222 -1.043,-0.399 -1.016,-0.582 -0.941,-0.75 -0.832,-0.91 -0.68,-1.039 -0.504,-1.145 -0.301,-1.21 -0.089,-1.25 0.125,-1.247 0.339,-1.203 0.54,-1.125 0.707,-1.019 0.855,-0.883 0.957,-0.723 1.027,-0.547 1.043,-0.367 1.02,-0.187 0.953,-0.016 0.84,0.141 0.695,0.277 0.52,0.383 0.32,0.457 0.109,0.496 -0.109,0.492 -0.32,0.457 -0.52,0.383 -0.695,0.277 -0.84,0.145 -0.953,-0.016 -1.02,-0.187 -1.043,-0.367 -1.027,-0.551 -0.957,-0.723 -0.855,-0.883 -0.707,-1.015 -0.54,-1.129 -0.339,-1.203 -0.125,-1.246 0.089,-1.246 0.301,-1.215 0.504,-1.145 0.68,-1.039 0.832,-0.906 0.941,-0.754 1.016,-0.578 1.043,-0.402 1.031,-0.219 0.965,-0.043 0.863,0.113 0.727,0.254 0.551,0.367 0.359,0.445 0.145,0.493 -0.067,0.496 -0.285,0.468 -0.484,0.399 -0.668,0.297 -0.817,0.168 -0.937,0.015 -1.012,-0.156 -1.043,-0.336 -1.031,-0.515 -0.973,-0.696 -0.875,-0.851 -0.738,-0.996 -0.57,-1.114 -0.376,-1.191 -0.164,-1.238 0.051,-1.25 0.262,-1.227 0.469,-1.156 0.652,-1.063 0.805,-0.929 0.925,-0.782 1.008,-0.613 1.043,-0.433 1.035,-0.25 0.981,-0.075 0.883,0.086 0.754,0.231 0.586,0.351 0.394,0.434 0.184,0.484 -0.032,0.5 -0.246,0.473 -0.449,0.414 -0.637,0.32 -0.793,0.192 -0.918,0.043 -1,-0.125 -1.043,-0.301 -1.035,-0.484 -0.988,-0.665 -0.894,-0.828 -0.766,-0.972 -0.602,-1.09 -0.41,-1.18 -0.203,-1.234 0.012,-1.254 0.226,-1.231 0.434,-1.172 0.621,-1.078 0.781,-0.957"
       style="fill:none;stroke:#000000;stroke-width:0.9216;stroke-linecap:square;stroke-linejoin:miter;stroke-miterlimit:3.25;stroke-dasharray:none;stroke-opacity:1"
       transform="scale(1.3333333)" />
    <path
       id="path36"
       d="m 9.7620525,-10.583104 c 0.3164065,0.234375 0.5859375,0.5976564 0.8437505,1.0312501 l 0.316406,-1.3828121 h 1.710937 L 10.500334,-0.89169763 C 10.195646,0.50283362 9.7620525,1.6278336 9.1643963,2.4247086 8.0628338,3.9247086 6.457365,4.6864274 4.3245525,4.6864274 3.12924,4.6864274 2.19174,4.4168961 1.5003338,3.8895524 0.79720875,3.3622086 0.50424,2.5067399 0.65658375,1.3700211 H 2.5550213 c -0.023437,0.5039063 0.082031,0.890625 0.2929687,1.1601563 0.3164063,0.3984375 0.9492188,0.609375 1.8398438,0.609375 1.4414062,0 2.4726562,-0.5039063 3.1289062,-1.4882813 0.375,-0.5976562 0.7148438,-1.65234373 1.0078125,-3.1757812 -0.4804687,0.55078122 -1.0078125,0.97265622 -1.5820312,1.25390622 -0.5859375,0.26953125 -1.3125,0.421875 -2.1796875,0.421875 -1.171875,0 -2.1445313,-0.421875 -2.8710938,-1.27734372 -0.7148437,-0.8554688 -0.8554687,-2.25 -0.4335937,-4.21875 0.3984375,-1.8398438 1.1367187,-3.2929688 2.2734375,-4.3242188 1.125,-1.0429686 2.3203125,-1.5703126 3.5976562,-1.5703126 0.8554688,0 1.5820313,0.210938 2.1328125,0.65625 z M 7.62924,-9.5870101 c -1.3125,0 -2.3320312,0.609375 -3.0703125,1.8398437 -0.3984375,0.65625 -0.7148437,1.5 -0.9257812,2.5546875 -0.2695313,1.2421875 -0.2109375,2.1914063 0.1523437,2.8476563 0.3515625,0.65625 0.9609375,0.9726562 1.828125,0.9726562 1.3359375,0 2.390625,-0.5976562 3.1875,-1.7929687 0.4453125,-0.703125 0.7617188,-1.4765625 0.9609375,-2.390625 0.2929685,-1.3710938 0.2226563,-2.390625 -0.1992187,-3.0351563 -0.421875,-0.65625 -1.078125,-0.9960937 -1.9335938,-0.9960937 z m 0,0"
       style="fill:#000000;fill-opacity:1;fill-rule:nonzero;stroke:none"
       aria-label="g"
       transform="matrix(1.3333333,0,0,1.3333333,411.64018,144.19674)" />
    <path
       id="path37"
       d="m 242.465,100.539 c 0,0.977 -0.387,1.914 -1.078,2.606 -0.692,0.691 -1.629,1.078 -2.61,1.078 -0.976,0 -1.914,-0.387 -2.605,-1.078 -0.692,-0.692 -1.082,-1.629 -1.082,-2.606 0,-0.98 0.39,-1.918 1.082,-2.609 0.691,-0.692 1.629,-1.078 2.605,-1.078 0.981,0 1.918,0.386 2.61,1.078 0.691,0.691 1.078,1.629 1.078,2.609 z"
       style="fill:#000000;fill-opacity:1;fill-rule:evenodd;stroke:none"
       transform="scale(1.3333333)" />
    <path
       id="path38"
       d="m 296.922,67.027 c 0,0.977 -0.387,1.914 -1.078,2.606 -0.692,0.691 -1.629,1.078 -2.606,1.078 -0.98,0 -1.918,-0.387 -2.609,-1.078 -0.691,-0.692 -1.078,-1.629 -1.078,-2.606 0,-0.98 0.387,-1.918 1.078,-2.609 0.691,-0.691 1.629,-1.078 2.609,-1.078 0.977,0 1.914,0.387 2.606,1.078 0.691,0.691 1.078,1.629 1.078,2.609 z"
       style="fill:#000000;fill-opacity:1;fill-rule:evenodd;stroke:none"
       transform="scale(1.3333333)" />
    <path
       id="path39"
       d="m 296.922,134.051 c 0,0.976 -0.387,1.914 -1.078,2.605 -0.692,0.692 -1.629,1.082 -2.606,1.082 -0.98,0 -1.918,-0.39 -2.609,-1.082 -0.691,-0.691 -1.078,-1.629 -1.078,-2.605 0,-0.977 0.387,-1.914 1.078,-2.606 0.691,-0.691 1.629,-1.082 2.609,-1.082 0.977,0 1.914,0.391 2.606,1.082 0.691,0.692 1.078,1.629 1.078,2.606 z"
       style="fill:#000000;fill-opacity:1;fill-rule:evenodd;stroke:none"
       transform="scale(1.3333333)" />
    <path
       id="path40"
       d="M 0.51634556,6.74625e-4 C 0.57493931,-1.0071379 0.77415806,-1.8860441 1.1491581,-2.6360441 1.5124393,-3.3743254 2.2155643,-4.0657316 3.2819706,-4.6751066 l 1.5703125,-0.9257813 c 0.7148437,-0.3984375 1.1953125,-0.75 1.4882812,-1.03125 0.4453125,-0.4570312 0.6679688,-0.984375 0.6679688,-1.5703125 0,-0.6679687 -0.1992188,-1.21875 -0.6210938,-1.6289062 -0.3984375,-0.3984374 -0.9609375,-0.6093754 -1.6289062,-0.6093754 -1.03125,0 -1.7109375,0.386719 -2.0976563,1.1601566 -0.2226562,0.4101563 -0.328125,0.984375 -0.3632812,1.6992188 H 0.80931431 c 0.0117188,-1.0195313 0.19921879,-1.8398438 0.57421879,-2.4960934 0.6328125,-1.125 1.7578125,-1.699219 3.375,-1.699219 1.3476562,0 2.3320312,0.351562 2.953125,1.089844 0.6210937,0.7265621 0.9257812,1.5234371 0.9257812,2.4140621 0,0.9492188 -0.3398437,1.7578125 -0.9960937,2.4257813 -0.3867188,0.3867187 -1.0664063,0.8554687 -2.0390625,1.40625 l -1.1367188,0.6210937 c -0.5273437,0.3046875 -0.9492187,0.5742188 -1.2773437,0.84375 -0.5273438,0.4921875 -0.890625,1.0078125 -1.0195313,1.5820313 h 6.421875 V 6.74625e-4 Z m 0,0"
       style="fill:#000000;fill-opacity:1;fill-rule:nonzero;stroke:none"
       aria-label="2"
       transform="matrix(1.3333333,0,0,1.3333333,351.16701,246.24129)"
       clip-path="url(#clipPath41)" />
  </g>
</svg>
