<?xml version="1.0" encoding="UTF-8" standalone="no"?>
<!-- Created with Inkscape (http://www.inkscape.org/) -->

<svg
   version="1.1"
   id="svg1"
   width="246.66667"
   height="246.66667"
   viewBox="0 0 246.66667 246.66667"
   sodipodi:docname="1nffgfkxw4o1s.pdf"
   xmlns:inkscape="http://www.inkscape.org/namespaces/inkscape"
   xmlns:sodipodi="http://sodipodi.sourceforge.net/DTD/sodipodi-0.dtd"
   xmlns="http://www.w3.org/2000/svg"
   xmlns:svg="http://www.w3.org/2000/svg">
  <defs
     id="defs1">
    <clipPath
       clipPathUnits="userSpaceOnUse"
       id="clipPath15">
      <path
         d="M 77,49 H 90.961 V 66 H 77 Z"
         transform="translate(-77.500569,-61.074569)"
         id="path15" />
    </clipPath>
    <clipPath
       clipPathUnits="userSpaceOnUse"
       id="clipPath19">
      <path
         d="m 80,172 h 5 v 12.32 h -5 z"
         transform="translate(-79.055259,-184.68097)"
         id="path19" />
    </clipPath>
  </defs>
  <sodipodi:namedview
     id="namedview1"
     pagecolor="#ffffff"
     bordercolor="#999999"
     borderopacity="1"
     inkscape:showpageshadow="0"
     inkscape:pageopacity="0"
     inkscape:pagecheckerboard="0"
     inkscape:deskcolor="#d1d1d1">
    <inkscape:page
       x="0"
       y="0"
       id="page1"
       width="246.66667"
       height="246.66667"
       margin="0"
       bleed="0" />
  </sodipodi:namedview>
  <g
     id="g1"
     inkscape:groupmode="layer"
     inkscape:label="">
    <path
       id="path1"
       d="M 0,100.539 H 50.27"
       style="fill:none;stroke:#000000;stroke-width:0.9216;stroke-linecap:butt;stroke-linejoin:miter;stroke-miterlimit:3.25;stroke-dasharray:0.9216, 5.5296;stroke-dashoffset:0;stroke-opacity:1"
       transform="scale(1.3333333)" />
    <path
       id="path2"
       d="m 30.16,100.539 -10.051,3.352 v -6.703 z"
       style="fill:#000000;fill-opacity:1;fill-rule:evenodd;stroke:none"
       transform="scale(1.3333333)" />
    <path
       id="path3"
       d="m 5.5552199,-11.028528 -1.5585938,7.3359372 c -0.1289062,0.5507812 -0.1289062,1.0078125 -0.023437,1.3710937 0.1875,0.65625 0.7148438,0.984375 1.6289063,0.984375 1.2773437,0 2.296875,-0.5625 3.0117187,-1.7226562 0.3867188,-0.6210938 0.6796875,-1.4765625 0.9140625,-2.5546875 l 1.1601564,-5.4140622 h 1.851563 l -2.34375,11.02734344 H 8.4497511 L 8.8013136,-1.6300908 c -0.328125,0.421875 -0.6914062,0.78515624 -1.1132812,1.07812499 -0.84375,0.57421875 -1.7578125,0.8671875 -2.765625,0.8671875 -1.5820313,0 -2.53125,-0.52734375 -2.8710938,-1.58203129 -0.1875,-0.5742187 -0.1875,-1.3125 0,-2.2617187 l 1.6054688,-7.4999997 z m 0,0"
       style="fill:#000000;fill-opacity:1;fill-rule:nonzero;stroke:none"
       aria-label="u"
       transform="matrix(1.3333333,0,0,1.3333333,19.507103,160.58361)" />
    <path
       id="path4"
       d="m 6.8794386,-7.4543097 c 0.2226563,0.1640625 0.4101563,0.4101563 0.5976563,0.7265625 l 0.2226562,-0.984375 h 1.1953125 l -1.5,7.08984376 c -0.2109375,0.97265625 -0.515625,1.76953124 -0.9375,2.33203124 -0.7734375,1.0546875 -1.8984375,1.59375 -3.4101562,1.59375 -0.84375,0 -1.5,-0.1992187 -1.9921875,-0.5625 C 0.56303238,2.3660028 0.35209488,1.7683466 0.45756363,0.97147156 H 1.8052199 c -0.023437,0.35156254 0.058594,0.62109374 0.1992187,0.80859374 0.234375,0.2929688 0.6796875,0.4335938 1.3007813,0.4335938 1.0078125,0 1.7460937,-0.3515625 2.203125,-1.0546875 0.2695312,-0.41015629 0.5039062,-1.16015629 0.7148437,-2.2265625 -0.3398437,0.38671871 -0.7148437,0.67968746 -1.1132812,0.86718746 -0.421875,0.19921875 -0.9257813,0.3046875 -1.5351563,0.3046875 -0.8320312,0 -1.5234375,-0.3046875 -2.0273437,-0.890625 C 1.0435011,-1.3957159 0.93803238,-2.3800909 1.2310011,-3.7629034 c 0.2929688,-1.3007813 0.8085938,-2.3203125 1.6171875,-3.0585938 0.7851563,-0.7265625 1.6289063,-1.1015625 2.5195313,-1.1015625 0.6210937,0 1.125,0.1523438 1.5117187,0.46875 z m -1.5117187,0.6914063 c -0.9140625,0 -1.6289063,0.4335937 -2.15625,1.3007812 -0.28125,0.4570313 -0.5039063,1.0546875 -0.65625,1.8046875 -0.1875,0.8789063 -0.140625,1.546875 0.1054687,2.0039063 0.2578125,0.4570312 0.6914063,0.67968746 1.3007813,0.67968746 0.9375,0 1.6757812,-0.41015626 2.25,-1.26562496 0.3046875,-0.4804688 0.5273437,-1.03125 0.6679687,-1.6757813 0.2109375,-0.9726562 0.1640625,-1.6875 -0.140625,-2.1445312 -0.2929687,-0.4570313 -0.75,-0.703125 -1.3710937,-0.703125 z m 0,0"
       style="fill:#000000;fill-opacity:1;fill-rule:nonzero;stroke:none"
       aria-label="g"
       transform="matrix(1.3333333,0,0,1.3333333,35.069603,165.81017)" />
    <path
       id="path5"
       d="M 167.562,100.539 H 117.293"
       style="fill:none;stroke:#000000;stroke-width:0.9216;stroke-linecap:butt;stroke-linejoin:miter;stroke-miterlimit:3.25;stroke-dasharray:0.9216, 5.5296;stroke-dashoffset:0;stroke-opacity:1"
       transform="scale(1.3333333)" />
    <path
       id="path6"
       d="m 147.457,100.539 -10.055,-3.351 v 6.703 z"
       style="fill:#000000;fill-opacity:1;fill-rule:evenodd;stroke:none"
       transform="scale(1.3333333)" />
    <path
       id="path7"
       d="m 5.5536436,-11.026351 -1.5585937,7.3359378 c -0.1289063,0.5507813 -0.1289063,1.0078125 -0.023437,1.3710938 0.1875,0.65625 0.7148437,0.984375 1.6289062,0.984375 1.2773438,0 2.296875,-0.5625 3.0117188,-1.7226563 0.3867187,-0.6210937 0.6796875,-1.4765625 0.9140625,-2.5546875 L 10.686457,-11.026351 H 12.53802 L 10.194269,9.930625e-4 H 8.4481749 L 8.7997374,-1.6279132 c -0.328125,0.421875 -0.6914063,0.78515626 -1.1132813,1.07812501 -0.84375,0.57421875 -1.7578125,0.8671875 -2.765625,0.8671875 -1.5820312,0 -2.53125,-0.52734375 -2.8710937,-1.58203121 -0.1875,-0.5742188 -0.1875,-1.3125 0,-2.2617188 l 1.6054687,-7.5000003 z m 0,0"
       style="fill:#000000;fill-opacity:1;fill-rule:nonzero;stroke:none"
       aria-label="u"
       transform="matrix(1.3333333,0,0,1.3333333,175.89983,112.51039)" />
    <path
       id="path8"
       d="m 6.8778624,-7.4521321 c 0.2226562,0.1640625 0.4101562,0.4101563 0.5976562,0.7265625 l 0.2226563,-0.984375 h 1.1953125 l -1.5,7.08984379 c -0.2109375,0.97265625 -0.515625,1.76953121 -0.9375,2.33203121 -0.7734375,1.0546875 -1.8984375,1.59375 -3.4101563,1.59375 -0.84375,0 -1.5,-0.1992187 -1.9921875,-0.5625 C 0.56145613,2.3681804 0.35051863,1.7705242 0.45598738,0.97364919 H 1.8036436 c -0.023437,0.35156251 0.058594,0.62109371 0.1992188,0.80859371 0.234375,0.2929688 0.6796875,0.4335938 1.3007812,0.4335938 1.0078125,0 1.7460938,-0.3515625 2.203125,-1.0546875 0.2695313,-0.41015626 0.5039063,-1.1601562625 0.7148438,-2.2265625 -0.3398438,0.38671874 -0.7148438,0.67968749 -1.1132813,0.86718749 -0.421875,0.1992187475 -0.9257812,0.3046875 -1.5351562,0.3046875 -0.8320313,0 -1.5234375,-0.3046875 -2.0273438,-0.890625 C 1.0419249,-1.3935383 0.93645613,-2.3779133 1.2294249,-3.7607258 c 0.2929687,-1.3007813 0.8085937,-2.3203125 1.6171875,-3.0585938 0.7851562,-0.7265625 1.6289062,-1.1015625 2.5195312,-1.1015625 0.6210938,0 1.125,0.1523438 1.5117188,0.46875 z m -1.5117188,0.6914063 c -0.9140625,0 -1.6289062,0.4335937 -2.15625,1.3007812 -0.28125,0.4570313 -0.5039062,1.0546875 -0.65625,1.8046875 -0.1875,0.8789063 -0.140625,1.546875 0.1054688,2.0039063 0.2578125,0.4570312 0.6914062,0.67968749 1.3007812,0.67968749 0.9375,0 1.6757813,-0.41015629 2.25,-1.26562499 0.3046875,-0.4804688 0.5273438,-1.03125 0.6679688,-1.6757813 0.2109375,-0.9726562 0.1640625,-1.6875 -0.140625,-2.1445312 -0.2929688,-0.4570313 -0.75,-0.703125 -1.3710938,-0.703125 z m 0,0"
       style="fill:#000000;fill-opacity:1;fill-rule:nonzero;stroke:none"
       aria-label="g"
       transform="matrix(1.3333333,0,0,1.3333333,191.46233,117.73696)" />
    <path
       id="path9"
       d="m 50.27,100.539 c 2.3,10.223 9.14,18.836 18.578,23.391 9.433,4.558 20.433,4.558 29.871,0 9.433,-4.555 16.277,-13.168 18.574,-23.391"
       style="fill:none;stroke:#000000;stroke-width:0.9216;stroke-linecap:butt;stroke-linejoin:miter;stroke-miterlimit:3.25;stroke-dasharray:0.9216, 5.5296;stroke-dashoffset:0;stroke-opacity:1"
       transform="scale(1.3333333)" />
    <path
       id="path10"
       d="m 88.809,127.348 -10.055,3.351 v -6.703 z"
       style="fill:#000000;fill-opacity:1;fill-rule:evenodd;stroke:none"
       transform="scale(1.3333333)" />
    <path
       id="path11"
       d="m 5.5544322,-11.02621 -1.5585937,7.3359372 c -0.1289063,0.5507812 -0.1289063,1.0078125 -0.023437,1.3710937 0.1875,0.65625 0.7148437,0.984375 1.6289062,0.984375 1.2773438,0 2.296875,-0.5625 3.0117188,-1.7226562 0.3867187,-0.6210938 0.6796875,-1.4765625 0.9140625,-2.5546875 l 1.160156,-5.4140622 h 1.851562 L 10.195057,0.00113344 H 8.4489635 L 8.800526,-1.6277728 c -0.328125,0.421875 -0.6914063,0.78515624 -1.1132813,1.07812499 -0.84375,0.57421875 -1.7578125,0.8671875 -2.765625,0.8671875 -1.5820312,0 -2.53125,-0.52734375 -2.8710937,-1.58203129 -0.1875,-0.5742187 -0.1875,-1.3125 0,-2.2617187 L 3.6559947,-11.02621 Z m 0,0"
       style="fill:#000000;fill-opacity:1;fill-rule:nonzero;stroke:none"
       aria-label="u"
       transform="matrix(1.3333333,0,0,1.3333333,97.703465,196.33052)" />
    <path
       id="path12"
       d="m 6.878651,-7.4519917 c 0.2226562,0.1640625 0.4101562,0.4101563 0.5976562,0.7265625 l 0.2226563,-0.984375 H 8.894276 l -1.5,7.08984376 C 7.1833385,0.35269581 6.878651,1.1495708 6.456776,1.7120708 c -0.7734375,1.0546875 -1.8984375,1.59375 -3.4101563,1.59375 -0.84375,0 -1.5,-0.1992187 -1.9921875,-0.5625 C 0.56224475,2.3683208 0.35130725,1.7706646 0.456776,0.97378956 H 1.8044322 C 1.7809947,1.3253521 1.863026,1.5948833 2.003651,1.7823833 c 0.234375,0.2929688 0.6796875,0.4335938 1.3007812,0.4335938 1.0078125,0 1.7460938,-0.3515625 2.203125,-1.0546875 0.2695313,-0.41015629 0.5039063,-1.16015629 0.7148438,-2.2265625 -0.3398438,0.38671871 -0.7148438,0.67968746 -1.1132813,0.86718746 -0.421875,0.19921875 -0.9257812,0.3046875 -1.5351562,0.3046875 -0.8320313,0 -1.5234375,-0.3046875 -2.0273438,-0.890625 C 1.0427135,-1.3933979 0.93724475,-2.3777729 1.2302135,-3.7605854 1.5231822,-5.0613667 2.0388072,-6.0808979 2.847401,-6.8191792 c 0.7851562,-0.7265625 1.6289062,-1.1015625 2.5195312,-1.1015625 0.6210938,0 1.125,0.1523438 1.5117188,0.46875 z m -1.5117188,0.6914063 c -0.9140625,0 -1.6289062,0.4335937 -2.15625,1.3007812 -0.28125,0.4570313 -0.5039062,1.0546875 -0.65625,1.8046875 -0.1875,0.8789063 -0.140625,1.546875 0.1054688,2.0039063 0.2578125,0.4570312 0.6914062,0.67968746 1.3007812,0.67968746 0.9375,0 1.6757813,-0.41015626 2.25,-1.26562496 0.3046875,-0.4804688 0.5273438,-1.03125 0.6679688,-1.6757813 0.2109375,-0.9726562 0.1640625,-1.6875 -0.140625,-2.1445312 -0.2929688,-0.4570313 -0.75,-0.703125 -1.3710938,-0.703125 z m 0,0"
       style="fill:#000000;fill-opacity:1;fill-rule:nonzero;stroke:none"
       aria-label="g"
       transform="matrix(1.3333333,0,0,1.3333333,113.26597,201.55708)" />
    <path
       id="path13"
       d="m 117.293,100.539 0.531,-1.133 0.301,-1.25 0.051,-1.308 -0.215,-1.313 -0.469,-1.254 -0.703,-1.129 -0.902,-0.957 -1.055,-0.742 -1.148,-0.508 -1.188,-0.265 -1.18,-0.039 -1.125,0.164 -1.027,0.332 -0.898,0.453 -0.754,0.527 -0.582,0.563 -0.407,0.55 -0.218,0.512 -0.028,0.434 0.157,0.34 0.332,0.226 0.496,0.098 0.629,-0.043 0.738,-0.192 0.805,-0.355 0.824,-0.52 0.793,-0.687 0.715,-0.855 0.582,-1.008 0.398,-1.133 0.184,-1.231 -0.067,-1.273 -0.324,-1.262 -0.578,-1.195 -0.805,-1.066 -1,-0.883 -1.144,-0.66 -1.227,-0.415 -1.254,-0.16 -1.226,0.086 -1.153,0.309 -1.039,0.488 -0.894,0.629 -0.742,0.715 -0.575,0.75 -0.406,0.734 -0.238,0.68 -0.078,0.582 0.078,0.457 0.226,0.313 0.356,0.144 0.472,-0.023 0.563,-0.207 0.617,-0.383 0.641,-0.555 0.617,-0.723 0.543,-0.878 0.426,-1.016 0.261,-1.117 0.055,-1.196 -0.176,-1.218 -0.421,-1.192 -0.668,-1.113 -0.891,-0.977 -1.078,-0.789 L 100.59,75.84 99.301,75.531 98,75.484 l -1.258,0.207 -1.16,0.438 -1.02,0.629 -0.859,0.781 -0.683,0.875 -0.504,0.918 -0.332,0.91 -0.176,0.852 -0.035,0.754 0.093,0.617 0.204,0.449 0.292,0.27 0.368,0.074 0.425,-0.133 0.457,-0.328 0.458,-0.52 0.433,-0.695 0.359,-0.852 0.254,-0.98 0.11,-1.078 -0.078,-1.133 -0.289,-1.148 -0.516,-1.11 -0.738,-1.015 -0.953,-0.871 -1.125,-0.68 -1.258,-0.449 -1.321,-0.192 -1.328,0.071 -1.269,0.328 -1.153,0.562 -0.992,0.754 -0.804,0.906 -0.602,1.008 -0.402,1.051 -0.211,1.043 -0.051,0.988 0.09,0.895 0.199,0.761 0.277,0.598 0.332,0.41 0.36,0.211 h 0.375 l 0.363,-0.211 0.328,-0.41 0.278,-0.598 0.199,-0.761 0.09,-0.895 -0.047,-0.988 -0.215,-1.043 -0.403,-1.051 -0.601,-1.008 -0.805,-0.906 -0.992,-0.754 -1.152,-0.562 -1.27,-0.328 -1.324,-0.071 -1.324,0.192 -1.254,0.449 -1.129,0.68 -0.949,0.871 -0.742,1.015 -0.516,1.11 -0.289,1.148 -0.074,1.133 0.105,1.078 0.254,0.98 0.363,0.852 0.43,0.695 0.461,0.52 0.453,0.328 0.426,0.133 0.371,-0.074 0.293,-0.27 0.199,-0.449 0.094,-0.617 -0.031,-0.754 -0.176,-0.852 -0.336,-0.91 -0.504,-0.918 -0.68,-0.875 -0.859,-0.781 -1.024,-0.629 -1.16,-0.438 -1.258,-0.207 -1.3,0.047 -1.289,0.309 -1.211,0.562 -1.078,0.789 -0.887,0.977 -0.668,1.113 -0.426,1.192 -0.176,1.218 0.055,1.196 0.262,1.117 0.426,1.016 0.542,0.878 0.618,0.723 0.64,0.555 0.621,0.383 0.563,0.207 0.469,0.023 0.359,-0.144 0.223,-0.313 0.078,-0.457 -0.074,-0.582 -0.243,-0.68 -0.406,-0.734 -0.574,-0.75 -0.738,-0.715 -0.899,-0.629 -1.039,-0.488 -1.148,-0.309 -1.227,-0.086 -1.254,0.16 -1.23,0.415 -1.141,0.66 -1,0.883 -0.808,1.066 -0.579,1.195 -0.324,1.262 -0.062,1.273 0.179,1.231 0.403,1.133 0.578,1.008 0.715,0.855 0.797,0.687 0.824,0.52 0.801,0.355 0.738,0.192 0.633,0.043 0.492,-0.098 0.332,-0.226 0.156,-0.34 -0.027,-0.434 -0.219,-0.512 -0.406,-0.55 -0.582,-0.563 -0.75,-0.527 -0.903,-0.453 -1.027,-0.332 -1.121,-0.164 -1.18,0.039 -1.191,0.265 -1.149,0.508 -1.05,0.742 -0.903,0.957 -0.707,1.129 -0.468,1.254 -0.215,1.313 0.051,1.308 0.304,1.25 0.528,1.133"
       style="fill:none;stroke:#000000;stroke-width:0.9216;stroke-linecap:square;stroke-linejoin:miter;stroke-miterlimit:3.25;stroke-dasharray:none;stroke-opacity:1"
       transform="scale(1.3333333)" />
    <path
       id="path14"
       d="m 9.7631039,-10.581404 c 0.3164061,0.234375 0.5859371,0.5976563 0.8437501,1.0312501 l 0.316406,-1.3828121 h 1.710938 L 10.501385,-0.88999769 C 10.196698,0.50453356 9.7631039,1.6295336 9.1654476,2.4264086 c -1.1015625,1.5 -2.7070312,2.2617187 -4.8398437,2.2617187 -1.1953125,0 -2.1328125,-0.2695312 -2.8242188,-0.796875 C 0.79826012,3.3639086 0.50529137,2.5084398 0.65763512,1.3717211 H 2.5560726 c -0.023437,0.5039062 0.082031,0.890625 0.2929688,1.1601562 0.3164062,0.3984375 0.9492187,0.609375 1.8398437,0.609375 1.4414063,0 2.4726563,-0.5039062 3.1289063,-1.4882812 0.375,-0.5976563 0.7148437,-1.6523437875 1.0078125,-3.1757813 -0.4804688,0.55078126 -1.0078125,0.97265626 -1.5820313,1.25390626 -0.5859375,0.2695312525 -1.3125,0.421875 -2.1796875,0.421875 -1.171875,0 -2.1445312,-0.421875 -2.8710937,-1.27734376 -0.7148438,-0.8554687 -0.8554688,-2.25 -0.4335938,-4.21875 0.3984375,-1.8398437 1.1367188,-3.2929687 2.2734375,-4.3242187 1.125,-1.0429686 2.3203125,-1.5703126 3.5976563,-1.5703126 0.8554687,0 1.5820312,0.210938 2.1328125,0.65625 z m -2.1328125,0.9960938 c -1.3125,0 -2.3320313,0.609375 -3.0703125,1.8398438 -0.3984375,0.65625 -0.7148438,1.5 -0.9257813,2.5546875 -0.2695312,1.2421875 -0.2109375,2.1914062 0.1523438,2.8476562 0.3515625,0.65625 0.9609375,0.9726563 1.828125,0.9726563 1.3359375,0 2.390625,-0.5976563 3.1875,-1.7929688 0.4453125,-0.703125 0.7617187,-1.4765625 0.9609375,-2.390625 0.2929691,-1.3710937 0.2226562,-2.390625 -0.1992188,-3.0351562 -0.421875,-0.65625 -1.078125,-0.9960938 -1.9335937,-0.9960938 z m 0,0"
       style="fill:#000000;fill-opacity:1;fill-rule:nonzero;stroke:none"
       aria-label="g"
       transform="matrix(1.3333333,0,0,1.3333333,103.33409,81.432757)"
       clip-path="url(#clipPath15)" />
    <path
       id="path16"
       d="m 53.957,100.539 c 0,0.977 -0.391,1.914 -1.082,2.606 -0.691,0.691 -1.629,1.078 -2.605,1.078 -0.977,0 -1.915,-0.387 -2.606,-1.078 -0.691,-0.692 -1.082,-1.629 -1.082,-2.606 0,-0.98 0.391,-1.918 1.082,-2.609 0.691,-0.692 1.629,-1.078 2.606,-1.078 0.976,0 1.914,0.386 2.605,1.078 0.691,0.691 1.082,1.629 1.082,2.609 z"
       style="fill:#000000;fill-opacity:1;fill-rule:evenodd;stroke:none"
       transform="scale(1.3333333)" />
    <path
       id="path17"
       d="m 120.98,100.539 c 0,0.977 -0.386,1.914 -1.078,2.606 -0.691,0.691 -1.629,1.078 -2.609,1.078 -0.977,0 -1.914,-0.387 -2.605,-1.078 -0.692,-0.692 -1.079,-1.629 -1.079,-2.606 0,-0.98 0.387,-1.918 1.079,-2.609 0.691,-0.692 1.628,-1.078 2.605,-1.078 0.98,0 1.918,0.386 2.609,1.078 0.692,0.691 1.078,1.629 1.078,2.609 z"
       style="fill:#000000;fill-opacity:1;fill-rule:evenodd;stroke:none"
       transform="scale(1.3333333)" />
    <path
       id="path18"
       d="m 1.5931815,-8.3196379 v -1.125 c 1.078125,-0.1054687 1.8164063,-0.28125 2.2382813,-0.515625 0.421875,-0.2343751 0.7382812,-0.8320311 0.9375,-1.7343751 H 5.9525565 V 6.74625e-4 H 4.3705253 V -8.3196379 Z m 0,0"
       style="fill:#000000;fill-opacity:1;fill-rule:nonzero;stroke:none"
       aria-label="1"
       transform="matrix(1.3333333,0,0,1.3333333,105.40701,246.24129)"
       clip-path="url(#clipPath19)" />
  </g>
</svg>
