<?xml version="1.0" encoding="UTF-8" standalone="no"?>
<!-- Created with Inkscape (http://www.inkscape.org/) -->

<svg
   version="1.1"
   id="svg2"
   width="492"
   height="246.66667"
   viewBox="0 0 492 246.66667"
   sodipodi:docname="1pfdvzv05q15f.pdf"
   xmlns:inkscape="http://www.inkscape.org/namespaces/inkscape"
   xmlns:sodipodi="http://sodipodi.sourceforge.net/DTD/sodipodi-0.dtd"
   xmlns="http://www.w3.org/2000/svg"
   xmlns:svg="http://www.w3.org/2000/svg">
  <defs
     id="defs6">
    <clipPath
       clipPathUnits="userSpaceOnUse"
       id="clipPath40">
      <path
         d="m 53,146 h 4 v 7.602 h -4 z"
         id="path38" />
    </clipPath>
  </defs>
  <sodipodi:namedview
     id="namedview4"
     pagecolor="#ffffff"
     bordercolor="#999999"
     borderopacity="1"
     inkscape:showpageshadow="0"
     inkscape:pageopacity="0"
     inkscape:pagecheckerboard="0"
     inkscape:deskcolor="#d1d1d1" />
  <g
     id="g8"
     inkscape:groupmode="layer"
     inkscape:label="1pfdvzv05q15f"
     transform="matrix(1.3333333,0,0,1.3333333,0,9.5e-6)">
    <g
       id="g10">
      <path
         d="m 61.441,97.746 -0.648,0.52 -0.731,0.414 -0.789,0.289 -0.828,0.152 -0.843,0.008 -0.832,-0.141 -0.793,-0.273 -0.739,-0.403 -0.652,-0.515 -0.559,-0.598 -0.449,-0.66 -0.328,-0.691 -0.207,-0.696 -0.09,-0.668 0.024,-0.609 0.125,-0.527 0.207,-0.422 0.269,-0.297 0.313,-0.16 0.324,-0.016 0.316,0.129 0.281,0.266 0.223,0.394 0.145,0.508 0.047,0.594 -0.063,0.656 -0.18,0.691 -0.3,0.696 -0.422,0.672 -0.535,0.613 -0.633,0.535 -0.723,0.43 -0.781,0.304 -0.828,0.168 -0.84,0.028 -0.836,-0.121 -0.801,-0.258 -0.746,-0.387 -0.664,-0.5 -0.574,-0.59 -0.461,-0.652 -0.344,-0.691 -0.223,-0.696 -0.105,-0.672 0.012,-0.621 0.113,-0.539 0.195,-0.433 0.266,-0.317 0.305,-0.18 0.324,-0.031 0.32,0.11 0.285,0.25 0.235,0.379 0.152,0.492 0.063,0.586 -0.047,0.648 -0.164,0.688 -0.289,0.699 -0.407,0.676 -0.519,0.621 -0.621,0.547 -0.711,0.441 -0.778,0.324 -0.82,0.188 -0.84,0.047 -0.84,-0.102 -0.804,-0.242 -0.754,-0.371 -0.68,-0.489 -0.582,-0.578 -0.477,-0.644 -0.363,-0.688 -0.238,-0.699 -0.117,-0.676 -0.004,-0.629 0.097,-0.55 0.188,-0.45 0.258,-0.332 0.301,-0.195 0.324,-0.055 0.32,0.09 0.293,0.235 0.242,0.363 0.164,0.476 0.075,0.575 -0.032,0.644 -0.148,0.684 -0.27,0.699 -0.394,0.68 -0.504,0.632 -0.609,0.555 -0.7,0.461 -0.769,0.336 -0.817,0.207 -0.843,0.063 -0.836,-0.083 -0.813,-0.222 -0.762,-0.356 -0.687,-0.472 -0.598,-0.567 -0.492,-0.64 -0.379,-0.684 -0.254,-0.699 -0.133,-0.68 -0.019,-0.637 0.09,-0.562 0.176,-0.465 0.25,-0.348 0.296,-0.214 0.321,-0.071 0.324,0.071 0.297,0.214 0.25,0.348 0.176,0.465 0.086,0.562 -0.016,0.637 -0.137,0.68 -0.254,0.699 -0.375,0.684 -0.492,0.64 -0.598,0.567 -0.687,0.472 -0.762,0.356 -0.812,0.222 -0.84,0.083 -0.84,-0.063 -0.816,-0.207 -0.77,-0.336 -0.699,-0.461 -0.609,-0.555 -0.508,-0.632 -0.391,-0.68 -0.269,-0.699 -0.149,-0.684 -0.035,-0.644 0.074,-0.575 0.168,-0.476 0.238,-0.363 0.293,-0.235 0.321,-0.09 0.324,0.055 0.305,0.195 0.254,0.332 0.187,0.45 0.102,0.55 -0.004,0.629 -0.121,0.676 -0.239,0.699 -0.359,0.688 -0.477,0.644 -0.586,0.578 -0.675,0.489 -0.754,0.371 -0.809,0.242 -0.836,0.102 -0.84,-0.047 -0.824,-0.188 -0.777,-0.324 -0.707,-0.441 -0.625,-0.547 -0.52,-0.621 -0.406,-0.676 -0.285,-0.699 -0.164,-0.688 -0.047,-0.648 0.058,-0.586 0.157,-0.492 0.23,-0.379 0.289,-0.25 0.317,-0.11 0.328,0.031 0.305,0.18 0.261,0.317 0.199,0.433 0.114,0.539 0.008,0.621 -0.102,0.672 -0.223,0.696 -0.343,0.691 -0.465,0.652 -0.571,0.59 -0.668,0.5 -0.742,0.387 -0.804,0.258 L 11.52,99.137 10.676,99.109 9.852,98.941 9.066,98.637 8.348,98.207 7.711,97.672 7.18,97.059 6.758,96.387 6.457,95.691 6.273,95 6.211,94.344 6.262,93.75 6.406,93.242 6.629,92.848 6.91,92.582 l 0.317,-0.129 0.324,0.016 0.308,0.16 0.27,0.297 0.207,0.422 0.125,0.527 0.023,0.609 -0.086,0.668 -0.207,0.696 -0.328,0.691 -0.449,0.66 L 6.855,97.797 6.199,98.312 5.465,98.715 4.668,98.988 3.84,99.129 2.996,99.121 2.168,98.969 1.375,98.68 0.648,98.266 0,97.746"
         style="fill:none;stroke:#000000;stroke-width:0.6144;stroke-linecap:square;stroke-linejoin:miter;stroke-miterlimit:3.25;stroke-dasharray:none;stroke-opacity:1"
         id="path12" />
      <text
         xml:space="preserve"
         transform="translate(26.460234,116.3217)"
         style="font-variant:normal;font-size:14.16px;font-family:CairoFont-0;-inkscape-font-specification:CairoFont-0-0;writing-mode:lr-tb;fill:#000000;fill-opacity:1;fill-rule:nonzero;stroke:none"
         id="text16"><tspan
           x="0"
           y="0"
           id="tspan14">g</tspan></text>
      <path
         d="m 61.441,97.746 0.321,-0.816 0.468,-0.75 0.594,-0.657 0.707,-0.531 0.793,-0.39 0.856,-0.239 0.879,-0.074 0.879,0.086 0.839,0.23 0.77,0.364 0.676,0.469 0.558,0.542 0.426,0.59 0.281,0.594 0.133,0.566 -0.008,0.5 -0.14,0.411 -0.25,0.289 -0.34,0.144 -0.403,-0.012 -0.429,-0.167 -0.426,-0.333 -0.391,-0.476 -0.32,-0.609 -0.23,-0.715 -0.114,-0.793 0.024,-0.836 0.164,-0.848 0.312,-0.816 0.457,-0.758 0.586,-0.664 0.699,-0.543 0.79,-0.402 0.847,-0.247 0.883,-0.085 0.875,0.07 0.844,0.222 0.777,0.352 0.688,0.461 0.566,0.543 0.434,0.582 0.293,0.598 0.144,0.57 v 0.508 l -0.129,0.414 -0.242,0.301 -0.336,0.156 h -0.394 l -0.43,-0.156 -0.426,-0.321 -0.394,-0.465 -0.329,-0.601 -0.238,-0.707 -0.121,-0.789 0.012,-0.836 0.152,-0.844 0.305,-0.824 0.441,-0.762 0.578,-0.672 0.692,-0.55 0.781,-0.415 0.848,-0.261 0.879,-0.098 0.878,0.063 0.848,0.211 0.785,0.343 0.692,0.453 0.578,0.536 0.445,0.582 0.301,0.597 0.156,0.571 0.012,0.515 -0.121,0.426 -0.235,0.305 -0.328,0.168 -0.394,0.015 -0.426,-0.144 -0.43,-0.309 -0.394,-0.453 -0.336,-0.594 -0.246,-0.699 -0.129,-0.785 v -0.832 l 0.144,-0.848 0.289,-0.824 0.434,-0.77 0.566,-0.675 0.684,-0.567 0.777,-0.422 0.844,-0.273 0.879,-0.109 0.879,0.05 0.851,0.2 0.79,0.335 0.699,0.446 0.586,0.531 0.457,0.578 0.312,0.598 0.168,0.574 0.024,0.52 -0.114,0.433 -0.226,0.317 -0.324,0.179 -0.387,0.028 -0.426,-0.137 -0.43,-0.293 -0.402,-0.445 -0.34,-0.582 -0.25,-0.692 -0.14,-0.781 -0.012,-0.828 0.133,-0.848 0.281,-0.828 0.422,-0.773 0.558,-0.688 0.676,-0.57 0.77,-0.438 0.84,-0.281 0.875,-0.125 0.882,0.039 0.856,0.188 0.793,0.328 0.707,0.437 0.597,0.528 0.465,0.578 0.325,0.593 0.179,0.579 0.031,0.527 -0.101,0.437 -0.219,0.329 -0.316,0.187 -0.387,0.039 -0.422,-0.121 -0.43,-0.281 -0.406,-0.434 -0.344,-0.574 -0.261,-0.684 -0.149,-0.773 -0.019,-0.828 0.121,-0.848 0.269,-0.832 0.411,-0.777 0.55,-0.696 0.668,-0.582 0.762,-0.445 0.836,-0.297 0.875,-0.133 0.883,0.024 0.855,0.18 0.801,0.316 0.715,0.43 0.605,0.519 0.477,0.578 0.336,0.594 0.187,0.582 0.043,0.531 -0.09,0.446 -0.21,0.336 -0.313,0.203 -0.379,0.05 -0.422,-0.109 -0.433,-0.273 -0.407,-0.422 -0.351,-0.563 -0.266,-0.679 -0.16,-0.766 -0.027,-0.824 0.109,-0.848 0.258,-0.832 0.402,-0.785 0.539,-0.703 0.66,-0.59 0.758,-0.457 0.828,-0.309 0.875,-0.144 0.883,0.012 0.86,0.167 0.804,0.309 0.723,0.422 0.613,0.516 0.488,0.57 0.348,0.598 0.199,0.582 0.055,0.535 -0.082,0.457 -0.203,0.344 -0.305,0.21 -0.379,0.063 -0.418,-0.098 -0.433,-0.258 -0.406,-0.414 -0.36,-0.55 -0.273,-0.672 -0.168,-0.762 -0.039,-0.82 0.097,-0.848 0.25,-0.836 0.391,-0.789 0.527,-0.707 0.653,-0.602 0.75,-0.468 0.828,-0.317 0.871,-0.16 h 0.883 l 0.863,0.156"
         style="fill:none;stroke:#000000;stroke-width:0.6144;stroke-linecap:square;stroke-linejoin:miter;stroke-miterlimit:3.25;stroke-dasharray:none;stroke-opacity:1"
         id="path18" />
      <text
         xml:space="preserve"
         transform="translate(77.228666,76.435674)"
         style="font-variant:normal;font-size:14.16px;font-family:CairoFont-0;-inkscape-font-specification:CairoFont-0-0;writing-mode:lr-tb;fill:#000000;fill-opacity:1;fill-rule:nonzero;stroke:none"
         id="text22"><tspan
           x="0"
           y="0"
           id="tspan20">g</tspan></text>
      <path
         d="m 61.441,97.746 0.864,-0.156 0.883,-0.004 0.871,0.16 0.824,0.32 0.75,0.465 0.652,0.602 0.527,0.711 0.395,0.789 0.246,0.832 0.098,0.847 -0.039,0.821 -0.168,0.762 -0.274,0.671 -0.355,0.555 -0.41,0.41 -0.434,0.258 -0.418,0.098 -0.379,-0.063 -0.301,-0.211 -0.203,-0.343 -0.082,-0.454 0.055,-0.539 0.199,-0.582 0.344,-0.593 0.488,-0.575 0.614,-0.515 0.722,-0.422 0.805,-0.309 0.859,-0.164 0.883,-0.015 0.875,0.148 0.832,0.305 0.758,0.457 0.656,0.593 0.539,0.7 0.403,0.785 0.257,0.832 0.11,0.848 -0.028,0.824 -0.16,0.769 -0.265,0.676 -0.352,0.563 -0.406,0.425 -0.434,0.27 -0.422,0.109 -0.379,-0.051 -0.312,-0.199 -0.211,-0.336 -0.09,-0.449 0.043,-0.527 0.188,-0.582 0.336,-0.598 0.476,-0.574 0.606,-0.52 0.714,-0.433 0.801,-0.317 0.856,-0.175 0.882,-0.028 0.875,0.137 0.836,0.293 0.766,0.449 0.664,0.582 0.551,0.692 0.41,0.781 0.27,0.828 0.121,0.848 -0.02,0.828 -0.148,0.773 -0.258,0.688 -0.348,0.57 -0.402,0.434 -0.434,0.281 -0.422,0.125 -0.386,-0.039 -0.317,-0.192 -0.218,-0.324 -0.102,-0.441 0.035,-0.524 0.176,-0.578 0.324,-0.598 0.465,-0.578 0.598,-0.527 0.707,-0.437 0.797,-0.325 0.851,-0.191 0.883,-0.035 0.875,0.121 0.84,0.285 0.769,0.434 0.676,0.574 0.559,0.683 0.422,0.774 0.281,0.828 0.133,0.848 -0.012,0.832 -0.137,0.777 -0.254,0.695 -0.34,0.578 -0.402,0.45 -0.43,0.293 -0.425,0.132 -0.387,-0.027 -0.324,-0.176 -0.227,-0.32 -0.113,-0.43 0.023,-0.519 0.168,-0.578 0.313,-0.594 0.457,-0.582 0.586,-0.531 0.699,-0.446 0.789,-0.336 0.852,-0.199 0.878,-0.051 0.879,0.114 0.844,0.269 0.777,0.426 0.684,0.562 0.566,0.68 0.434,0.766 0.293,0.828 0.141,0.844 v 0.836 l -0.129,0.781 -0.246,0.703 -0.332,0.59 -0.399,0.457 -0.43,0.304 -0.425,0.145 -0.395,-0.012 -0.328,-0.168 -0.234,-0.308 -0.121,-0.422 0.011,-0.516 0.157,-0.574 0.3,-0.594 0.446,-0.586 0.578,-0.535 0.691,-0.453 0.785,-0.344 0.848,-0.211 0.879,-0.058 0.879,0.097 0.847,0.258 0.782,0.414 0.691,0.555 0.578,0.668 0.446,0.766 0.3,0.82 0.153,0.848 0.011,0.836 -0.121,0.785 -0.238,0.711 -0.328,0.597 -0.391,0.469 -0.429,0.316 -0.43,0.161 -0.395,-0.004 -0.336,-0.157 -0.242,-0.296 -0.129,-0.418 v -0.508 l 0.145,-0.571 0.293,-0.593 0.433,-0.586 0.571,-0.539 0.683,-0.461 0.778,-0.356 0.843,-0.218 0.875,-0.075 0.883,0.086 0.848,0.246 0.789,0.403 0.699,0.543 0.586,0.664 0.457,0.758 0.313,0.82 0.164,0.844 0.023,0.836 -0.113,0.793 -0.231,0.718 -0.32,0.61 -0.391,0.476 -0.425,0.328 -0.43,0.172 -0.398,0.008 -0.344,-0.145 -0.25,-0.289 -0.137,-0.406 -0.012,-0.504 0.137,-0.566 0.277,-0.594 0.426,-0.586 0.559,-0.547 0.676,-0.468 0.773,-0.36 0.836,-0.234 0.879,-0.082 0.883,0.074 0.851,0.234 0.793,0.391 0.707,0.535 0.598,0.652 0.465,0.754 0.324,0.813"
         style="fill:none;stroke:#000000;stroke-width:0.6144;stroke-linecap:square;stroke-linejoin:miter;stroke-miterlimit:3.25;stroke-dasharray:none;stroke-opacity:1"
         id="path24" />
      <text
         xml:space="preserve"
         transform="translate(75.32989,132.61366)"
         style="font-variant:normal;font-size:14.16px;font-family:CairoFont-0;-inkscape-font-specification:CairoFont-0-0;writing-mode:lr-tb;fill:#000000;fill-opacity:1;fill-rule:nonzero;stroke:none"
         id="text28"><tspan
           x="0"
           y="0"
           id="tspan26">g</tspan></text>
      <path
         d="m 58.648,100.539 5.586,-5.586"
         style="fill:none;stroke:#000000;stroke-width:1.8432;stroke-linecap:square;stroke-linejoin:miter;stroke-miterlimit:3.25;stroke-dasharray:none;stroke-opacity:1"
         id="path30" />
      <path
         d="m 58.648,94.953 5.586,5.586"
         style="fill:none;stroke:#000000;stroke-width:1.8432;stroke-linecap:square;stroke-linejoin:miter;stroke-miterlimit:3.25;stroke-dasharray:none;stroke-opacity:1"
         id="path32" />
    </g>
    <g
       id="g34">
      <g
         id="g36"
         clip-path="url(#clipPath40)">
        <text
           xml:space="preserve"
           transform="translate(52.799858,153.92398)"
           style="font-variant:normal;font-size:11.28px;font-family:CairoFont-1;-inkscape-font-specification:CairoFont-1-0;writing-mode:lr-tb;fill:#000000;fill-opacity:1;fill-rule:nonzero;stroke:none"
           id="text44"><tspan
             x="0"
             y="0"
             id="tspan42">1</tspan></text>
      </g>
    </g>
  </g>
</svg>
