<?xml version="1.0" encoding="UTF-8" standalone="no"?>
<!-- Created with Inkscape (http://www.inkscape.org/) -->

<svg
   version="1.1"
   id="svg1"
   width="492"
   height="246.66667"
   viewBox="0 0 492 246.66667"
   sodipodi:docname="1qu97dxgcn6p0.pdf"
   xmlns:inkscape="http://www.inkscape.org/namespaces/inkscape"
   xmlns:sodipodi="http://sodipodi.sourceforge.net/DTD/sodipodi-0.dtd"
   xmlns="http://www.w3.org/2000/svg"
   xmlns:svg="http://www.w3.org/2000/svg">
  <defs
     id="defs1">
    <clipPath
       clipPathUnits="userSpaceOnUse"
       id="clipPath21">
      <path
         d="m 53,146 h 4 v 7.602 h -4 z"
         transform="translate(-52.79986,-153.92398)"
         id="path21" />
    </clipPath>
    <clipPath
       clipPathUnits="userSpaceOnUse"
       id="clipPath41">
      <path
         d="m 176,146 h 6 v 7.602 h -6 z"
         transform="translate(-175.67986,-153.92398)"
         id="path41" />
    </clipPath>
    <clipPath
       clipPathUnits="userSpaceOnUse"
       id="clipPath45">
      <path
         d="m 262,93 h 8.961 v 9 H 262 Z"
         transform="translate(-261.59554,-101.26859)"
         id="path45" />
    </clipPath>
    <clipPath
       clipPathUnits="userSpaceOnUse"
       id="clipPath54">
      <path
         d="m 298,146 h 7 v 7.602 h -7 z"
         transform="translate(-298.55986,-153.92398)"
         id="path54" />
    </clipPath>
  </defs>
  <sodipodi:namedview
     id="namedview1"
     pagecolor="#ffffff"
     bordercolor="#999999"
     borderopacity="1"
     inkscape:showpageshadow="0"
     inkscape:pageopacity="0"
     inkscape:pagecheckerboard="0"
     inkscape:deskcolor="#d1d1d1">
    <inkscape:page
       x="0"
       y="0"
       id="page1"
       width="492"
       height="246.66667"
       margin="0"
       bleed="0" />
  </sodipodi:namedview>
  <g
     id="g1"
     inkscape:groupmode="layer"
     inkscape:label="">
    <path
       id="path1"
       d="m 0,69.816 39.098,5.586"
       style="fill:none;stroke:#000000;stroke-width:0.6144;stroke-linecap:square;stroke-linejoin:miter;stroke-miterlimit:3.25;stroke-dasharray:none;stroke-opacity:1"
       transform="scale(1.3333333)" />
    <path
       id="path2"
       d="m 22.867,73.086 -6.953,1.262 0.633,-4.422 z"
       style="fill:#000000;fill-opacity:1;fill-rule:evenodd;stroke:none"
       transform="scale(1.3333333)" />
    <path
       id="path3"
       d="m 3.7275364,-7.3941349 -1.0546875,4.921875 c -0.082031,0.3632812 -0.082031,0.6796875 -0.011719,0.9140625 0.1289062,0.4453125 0.4804687,0.66796871 1.0898437,0.66796871 0.8671875,0 1.546875,-0.38671871 2.0273438,-1.16015621 0.2578125,-0.4101563 0.4570312,-0.9960938 0.609375,-1.7109375 L 7.1611302,-7.3941349 H 8.4150364 L 6.8330052,3.963125e-4 H 5.6611302 L 5.9072239,-1.0894474 c -0.234375,0.28124996 -0.46875,0.52734371 -0.75,0.72656246 -0.5742187,0.375 -1.1835937,0.57421875 -1.8632812,0.57421875 -1.0546875,0 -1.6875,-0.3515625 -1.921875,-1.0546875 -0.1289063,-0.38671871 -0.1289063,-0.87890621 0,-1.52343751 l 1.078125,-5.0273437 z m 0,0"
       style="fill:#000000;fill-opacity:1;fill-rule:nonzero;stroke:none"
       aria-label="u"
       transform="matrix(1.3333333,0,0,1.3333333,22.049483,85.683065)" />
    <path
       id="path4"
       d="m 39.098,120.086 -0.606,0.676 -0.726,0.55 -0.817,0.399 -0.883,0.219 -0.91,0.039 -0.898,-0.145 -0.852,-0.32 -0.773,-0.477 -0.664,-0.601 -0.528,-0.692 -0.382,-0.742 -0.227,-0.75 -0.07,-0.715 0.074,-0.636 0.199,-0.52 0.305,-0.375 0.379,-0.203 0.414,-0.023 0.414,0.16 0.379,0.34 0.308,0.503 0.211,0.637 0.078,0.738 -0.062,0.805 -0.219,0.82 -0.371,0.801 -0.523,0.731 -0.657,0.629 -0.769,0.492 -0.848,0.328 -0.898,0.148 -0.91,-0.039 -0.883,-0.218 -0.824,-0.383 -0.731,-0.532 -0.613,-0.644 -0.473,-0.715 -0.316,-0.754 -0.164,-0.738 -0.012,-0.688 0.129,-0.593 0.25,-0.465 0.336,-0.309 0.394,-0.133 0.422,0.051 0.403,0.238 0.355,0.407 0.273,0.562 0.157,0.684 0.027,0.769 -0.125,0.817 -0.285,0.816 -0.434,0.777 -0.578,0.696 -0.707,0.578 -0.805,0.426 -0.871,0.258 -0.906,0.07 -0.906,-0.11 -0.863,-0.289 -0.789,-0.449 -0.688,-0.578 -0.555,-0.68 -0.41,-0.734 -0.258,-0.754 -0.097,-0.723 0.047,-0.652 0.179,-0.547 0.285,-0.402 0.368,-0.242 0.41,-0.059 0.418,0.129 0.386,0.309 0.325,0.472 0.23,0.614 0.106,0.722 -0.032,0.793 -0.191,0.824 -0.344,0.805 -0.496,0.75 -0.633,0.652 -0.75,0.516 -0.836,0.363 -0.89,0.184 -0.91,-0.004 -0.891,-0.184 -0.836,-0.355 -0.754,-0.508 -0.633,-0.621 -0.5,-0.707 -0.351,-0.75 -0.192,-0.746 -0.039,-0.699 0.106,-0.614 0.226,-0.492 0.321,-0.34 0.39,-0.168 0.418,0.016 0.41,0.203 0.368,0.375 0.289,0.535 0.179,0.664 0.055,0.754 -0.098,0.813 -0.25,0.82 -0.41,0.789 -0.551,0.711 -0.683,0.602 -0.789,0.457 -0.864,0.293 -0.902,0.109 -0.906,-0.078 -0.875,-0.258 -0.805,-0.418 -0.707,-0.558 -0.586,-0.661 -0.437,-0.73 -0.285,-0.754 -0.129,-0.73 0.019,-0.672 0.156,-0.567 0.27,-0.433 0.352,-0.274 0.406,-0.09 0.418,0.09 0.398,0.274 0.34,0.445 0.246,0.59 0.133,0.703 -0.008,0.785 -0.156,0.82 -0.316,0.813 -0.469,0.762 -0.606,0.672 -0.73,0.546 -0.821,0.391 -0.886,0.219 L 2.52,126.629 1.621,126.477 0.77,126.152 0,125.672"
       style="fill:none;stroke:#000000;stroke-width:0.6144;stroke-linecap:square;stroke-linejoin:miter;stroke-miterlimit:3.25;stroke-dasharray:none;stroke-opacity:1"
       transform="scale(1.3333333)" />
    <path
       id="path5"
       d="m 6.5400369,-7.0899381 c 0.2109375,0.1523437 0.3984375,0.3984375 0.5625,0.6914062 l 0.2226563,-0.9375 h 1.1367187 l -1.4296875,6.73828127 c -0.1992187,0.9375 -0.4921875,1.68750003 -0.890625,2.22656253 -0.7382812,1.0078125 -1.8046875,1.5117187 -3.234375,1.5117187 -0.8085937,0 -1.4296875,-0.1875 -1.8984375,-0.5390625 C 0.54003694,2.2499056 0.34081819,1.6874056 0.43456819,0.92568687 H 1.7119119 c -0.011719,0.33984373 0.058594,0.58593753 0.1992188,0.77343753 0.2109375,0.2695312 0.6328125,0.4101562 1.2304687,0.4101562 0.9609375,0 1.6640625,-0.3398437 2.0976563,-1.0078125 0.2578125,-0.39843748 0.4804687,-1.101562475 0.6796875,-2.1210937 -0.328125,0.36328122 -0.6796875,0.65624997 -1.0664063,0.83203122 -0.3867187,0.187500005 -0.8789062,0.28125 -1.453125,0.28125 -0.796875,0 -1.4414062,-0.28125 -1.921875,-0.84375 C 0.99706819,-1.3360319 0.89159944,-2.2618131 1.1728494,-3.5860319 c 0.2695313,-1.2304687 0.7617188,-2.203125 1.5351563,-2.8945312 0.75,-0.6914063 1.5585937,-1.0546875 2.4023437,-1.0546875 0.5859375,0 1.0664063,0.140625 1.4296875,0.4453125 z m -1.4296875,0.6679687 c -0.8789062,0 -1.5585937,0.4101563 -2.0507812,1.2304688 -0.2695313,0.4335937 -0.4804688,0.9960937 -0.6210938,1.7109375 -0.1875,0.8320312 -0.140625,1.4648437 0.09375,1.9101562 0.2460938,0.4335938 0.65625,0.64453127 1.2304688,0.64453127 0.890625,0 1.6054687,-0.38671877 2.1445312,-1.19531247 0.2929688,-0.46875 0.5039063,-0.9960938 0.6328125,-1.6054688 0.1992188,-0.9140625 0.1523438,-1.59375 -0.1289062,-2.0390625 -0.28125,-0.4335937 -0.7148438,-0.65625 -1.3007813,-0.65625 z m 0,0"
       style="fill:#000000;fill-opacity:1;fill-rule:nonzero;stroke:none"
       aria-label="g"
       transform="matrix(1.3333333,0,0,1.3333333,22.018232,188.49231)" />
    <path
       id="path6"
       d="M 111.711,97.746 H 75.402"
       style="fill:none;stroke:#000000;stroke-width:0.6144;stroke-linecap:square;stroke-linejoin:miter;stroke-miterlimit:3.25;stroke-dasharray:none;stroke-opacity:1"
       transform="scale(1.3333333)" />
    <path
       id="path7"
       d="M 96.906,97.746 90.207,95.512 V 99.98 Z"
       style="fill:#000000;fill-opacity:1;fill-rule:evenodd;stroke:none"
       transform="scale(1.3333333)" />
    <path
       id="path8"
       d="m 3.726839,-7.3957705 -1.0546875,4.921875 c -0.082031,0.3632813 -0.082031,0.6796875 -0.011719,0.9140625 0.1289062,0.4453125 0.4804687,0.66796875 1.0898437,0.66796875 0.8671875,0 1.546875,-0.38671875 2.0273438,-1.16015625 0.2578125,-0.4101562 0.4570312,-0.9960937 0.609375,-1.7109375 L 7.1604328,-7.3957705 H 8.414339 L 6.8323078,-0.00123925 H 5.6604328 L 5.9065265,-1.091083 c -0.234375,0.28125 -0.46875,0.52734375 -0.75,0.7265625 -0.5742187,0.375 -1.1835937,0.57421875 -1.8632812,0.57421875 -1.0546875,0 -1.6875,-0.3515625 -1.921875,-1.0546875 -0.1289063,-0.38671875 -0.1289063,-0.87890625 0,-1.52343745 l 1.078125,-5.0273438 z m 0,0"
       style="fill:#000000;fill-opacity:1;fill-rule:nonzero;stroke:none"
       aria-label="u"
       transform="matrix(1.3333333,0,0,1.3333333,119.09338,119.07978)" />
    <path
       id="path9"
       d="m 39.098,75.402 v 44.684"
       style="fill:none;stroke:#000000;stroke-width:0.6144;stroke-linecap:square;stroke-linejoin:miter;stroke-miterlimit:3.25;stroke-dasharray:none;stroke-opacity:1"
       transform="scale(1.3333333)" />
    <path
       id="path10"
       d="m 39.098,101.098 -2.235,-6.703 h 4.469 z"
       style="fill:#000000;fill-opacity:1;fill-rule:evenodd;stroke:none"
       transform="scale(1.3333333)" />
    <path
       id="path11"
       d="m 3.7251351,-7.3958451 -1.0546875,4.921875 c -0.082031,0.3632812 -0.082031,0.6796875 -0.011719,0.9140625 0.1289063,0.4453125 0.4804688,0.66796873 1.0898438,0.66796873 0.8671875,0 1.546875,-0.38671873 2.0273437,-1.16015623 0.2578125,-0.4101563 0.4570313,-0.9960938 0.609375,-1.7109375 L 7.1587288,-7.3958451 H 8.4126351 L 6.8306038,-0.00131387 H 5.6587288 L 5.9048226,-1.0911576 c -0.234375,0.28124998 -0.46875,0.52734373 -0.75,0.72656248 -0.5742188,0.375 -1.1835938,0.57421875 -1.8632813,0.57421875 -1.0546875,0 -1.6875,-0.3515625 -1.921875,-1.0546875 -0.1289062,-0.38671873 -0.1289062,-0.87890623 0,-1.52343753 l 1.078125,-5.0273437 z m 0,0"
       style="fill:#000000;fill-opacity:1;fill-rule:nonzero;stroke:none"
       aria-label="u"
       transform="matrix(1.3333333,0,0,1.3333333,33.794872,137.08769)" />
    <path
       id="path12"
       d="m 75.402,97.746 -0.847,0.117 -0.864,-0.031 -0.843,-0.184 -0.797,-0.336 -0.723,-0.476 -0.621,-0.602 -0.5,-0.703 -0.367,-0.777 -0.231,-0.824 -0.086,-0.832 0.051,-0.809 0.168,-0.758 0.278,-0.668 0.355,-0.558 0.414,-0.43 0.434,-0.281 0.425,-0.129 0.391,0.023 0.324,0.168 0.231,0.297 0.117,0.41 -0.016,0.496 -0.148,0.547 -0.293,0.571 -0.434,0.558 -0.558,0.516 -0.668,0.441 -0.762,0.336 -0.82,0.211 -0.856,0.07 -0.863,-0.082 -0.832,-0.234 -0.773,-0.387 -0.692,-0.519 -0.582,-0.637 -0.461,-0.73 -0.32,-0.797 -0.184,-0.832 -0.039,-0.829 0.09,-0.792 0.211,-0.731 0.305,-0.637 0.379,-0.519 0.421,-0.379 0.434,-0.234 0.418,-0.079 0.371,0.075 0.293,0.211 0.195,0.339 0.078,0.442 -0.058,0.515 -0.199,0.559 -0.336,0.57 -0.477,0.547 -0.597,0.496 -0.704,0.407 -0.781,0.296 -0.84,0.168 -0.859,0.02 -0.856,-0.133 -0.816,-0.285 -0.75,-0.43 -0.656,-0.562 -0.543,-0.672 -0.414,-0.754 -0.278,-0.812 -0.132,-0.833 0.003,-0.824 0.129,-0.777 0.243,-0.699 0.336,-0.602 0.394,-0.473 0.43,-0.332 0.433,-0.183 0.407,-0.027 0.347,0.121 0.266,0.253 0.156,0.376 0.031,0.468 -0.101,0.535 -0.246,0.567 -0.383,0.566 -0.52,0.535 -0.632,0.465 -0.735,0.375 -0.801,0.258 -0.851,0.117 -0.86,-0.027 -0.847,-0.184 -0.797,-0.336 -0.723,-0.476 -0.621,-0.598 -0.504,-0.703 -0.367,-0.777 -0.23,-0.825 -0.086,-0.832 0.047,-0.812 0.168,-0.754 0.277,-0.672 0.355,-0.558 0.411,-0.43 0.433,-0.285 0.43,-0.129 0.39,0.023 0.325,0.164 0.23,0.301 0.117,0.406 -0.011,0.496 -0.149,0.547 -0.293,0.571 -0.43,0.558 -0.558,0.516 -0.668,0.441 -0.758,0.336 -0.824,0.211 -0.856,0.074 -0.859,-0.082 -0.832,-0.234 -0.777,-0.383 -0.692,-0.519 -0.582,-0.637 -0.461,-0.731 -0.324,-0.793 -0.184,-0.832 -0.039,-0.828 0.09,-0.797 0.207,-0.73 0.305,-0.637 0.375,-0.519 0.422,-0.383 0.437,-0.231 0.418,-0.082 0.371,0.071 0.297,0.215 0.196,0.335 0.078,0.442 -0.059,0.512 -0.195,0.562 -0.34,0.57 -0.473,0.547 -0.597,0.492 -0.7,0.411 -0.785,0.296 -0.836,0.168 -0.859,0.024 -0.856,-0.133 -0.816,-0.285 -0.75,-0.426 -0.66,-0.562 -0.543,-0.672 -0.418,-0.754 -0.277,-0.813"
       style="fill:none;stroke:#000000;stroke-width:0.6144;stroke-linecap:square;stroke-linejoin:miter;stroke-miterlimit:3.25;stroke-dasharray:none;stroke-opacity:1"
       transform="scale(1.3333333)" />
    <path
       id="path13"
       d="m 6.5397224,-7.0904263 c 0.2109375,0.1523437 0.3984375,0.3984375 0.5625,0.6914062 l 0.2226563,-0.9375 h 1.1367187 l -1.4296875,6.73828129 c -0.1992187,0.9375 -0.4921875,1.68750001 -0.890625,2.22656251 -0.7382812,1.0078125 -1.8046875,1.5117187 -3.234375,1.5117187 -0.8085937,0 -1.4296875,-0.1875 -1.8984375,-0.5390625 C 0.53972244,2.2494174 0.34050369,1.6869174 0.43425369,0.92519869 H 1.7115974 c -0.011719,0.33984371 0.058594,0.58593751 0.1992188,0.77343751 0.2109375,0.2695312 0.6328125,0.4101562 1.2304687,0.4101562 0.9609375,0 1.6640625,-0.3398437 2.0976563,-1.0078125 0.2578125,-0.39843746 0.4804687,-1.1015624625 0.6796875,-2.1210937 -0.328125,0.36328124 -0.6796875,0.65624999 -1.0664063,0.83203124 -0.3867187,0.1874999975 -0.8789062,0.28125 -1.453125,0.28125 -0.796875,0 -1.4414062,-0.28125 -1.921875,-0.84375 C 0.99675369,-1.3365201 0.89128494,-2.2623013 1.1725349,-3.5865201 c 0.2695313,-1.2304687 0.7617188,-2.203125 1.5351563,-2.8945312 0.75,-0.6914063 1.5585937,-1.0546875 2.4023437,-1.0546875 0.5859375,0 1.0664063,0.140625 1.4296875,0.4453125 z m -1.4296875,0.6679687 c -0.8789062,0 -1.5585937,0.4101563 -2.0507812,1.2304688 -0.2695313,0.4335937 -0.4804688,0.9960937 -0.6210938,1.7109375 -0.1875,0.8320312 -0.140625,1.4648437 0.09375,1.9101562 0.2460938,0.4335938 0.65625,0.64453129 1.2304688,0.64453129 0.890625,0 1.6054687,-0.38671879 2.1445312,-1.19531249 0.2929688,-0.46875 0.5039063,-0.9960938 0.6328125,-1.6054688 0.1992188,-0.9140625 0.1523438,-1.59375 -0.1289062,-2.0390625 -0.28125,-0.4335937 -0.7148438,-0.65625 -1.3007813,-0.65625 z m 0,0"
       style="fill:#000000;fill-opacity:1;fill-rule:nonzero;stroke:none"
       aria-label="g"
       transform="matrix(1.3333333,0,0,1.3333333,80.612401,101.45781)" />
    <path
       id="path14"
       d="M 39.098,120.086 75.402,97.746"
       style="fill:none;stroke:#000000;stroke-width:0.6144;stroke-linecap:square;stroke-linejoin:miter;stroke-miterlimit:3.25;stroke-dasharray:none;stroke-opacity:1"
       transform="scale(1.3333333)" />
    <path
       id="path15"
       d="m 60.105,107.16 -4.539,5.414 -2.339,-3.804 z"
       style="fill:#000000;fill-opacity:1;fill-rule:evenodd;stroke:none"
       transform="scale(1.3333333)" />
    <path
       id="path16"
       d="m 3.7255662,-7.3948724 -1.0546875,4.921875 c -0.082031,0.3632812 -0.082031,0.6796875 -0.011719,0.9140625 0.1289063,0.4453125 0.4804688,0.66796871 1.0898438,0.66796871 0.8671875,0 1.546875,-0.38671871 2.0273437,-1.16015621 0.2578125,-0.4101563 0.4570313,-0.9960938 0.609375,-1.7109375 L 7.1591599,-7.3948724 H 8.4130662 L 6.8310349,-3.411875e-4 H 5.6591599 L 5.9052537,-1.0901849 c -0.234375,0.28124996 -0.46875,0.52734371 -0.75,0.72656246 -0.5742188,0.375 -1.1835938,0.57421875 -1.8632813,0.57421875 -1.0546875,0 -1.6875,-0.3515625 -1.921875,-1.0546875 -0.1289062,-0.38671871 -0.1289062,-0.87890621 0,-1.52343751 l 1.078125,-5.0273437 z m 0,0"
       style="fill:#000000;fill-opacity:1;fill-rule:nonzero;stroke:none"
       aria-label="u"
       transform="matrix(1.3333333,0,0,1.3333333,77.880235,168.2778)" />
    <path
       id="path17"
       d="m 41.555,75.402 c 0,0.653 -0.258,1.278 -0.719,1.739 -0.461,0.461 -1.086,0.718 -1.738,0.718 -0.653,0 -1.278,-0.257 -1.739,-0.718 -0.461,-0.461 -0.718,-1.086 -0.718,-1.739 0,-0.652 0.257,-1.277 0.718,-1.738 0.461,-0.461 1.086,-0.719 1.739,-0.719 0.652,0 1.277,0.258 1.738,0.719 0.461,0.461 0.719,1.086 0.719,1.738 z"
       style="fill:#000000;fill-opacity:1;fill-rule:evenodd;stroke:none"
       transform="scale(1.3333333)" />
    <path
       id="path18"
       d="m 41.555,120.086 c 0,0.652 -0.258,1.277 -0.719,1.738 -0.461,0.461 -1.086,0.719 -1.738,0.719 -0.653,0 -1.278,-0.258 -1.739,-0.719 -0.461,-0.461 -0.718,-1.086 -0.718,-1.738 0,-0.652 0.257,-1.277 0.718,-1.738 0.461,-0.461 1.086,-0.719 1.739,-0.719 0.652,0 1.277,0.258 1.738,0.719 0.461,0.461 0.719,1.086 0.719,1.738 z"
       style="fill:#000000;fill-opacity:1;fill-rule:evenodd;stroke:none"
       transform="scale(1.3333333)" />
    <path
       id="path19"
       d="m 77.859,97.746 c 0,0.652 -0.257,1.277 -0.718,1.738 -0.461,0.461 -1.086,0.719 -1.739,0.719 -0.652,0 -1.277,-0.258 -1.738,-0.719 -0.461,-0.461 -0.719,-1.086 -0.719,-1.738 0,-0.652 0.258,-1.277 0.719,-1.738 0.461,-0.461 1.086,-0.719 1.738,-0.719 0.653,0 1.278,0.258 1.739,0.719 0.461,0.461 0.718,1.086 0.718,1.738 z"
       style="fill:#000000;fill-opacity:1;fill-rule:evenodd;stroke:none"
       transform="scale(1.3333333)" />
    <path
       id="path20"
       d="m 1.0653764,-5.5909692 v -0.75 c 0.7265625,-0.070312 1.21875,-0.1992187 1.5117187,-0.3515625 0.28125,-0.1640625 0.4921875,-0.5507812 0.6210938,-1.1601562 h 0.796875 v 7.85156246 H 2.9286576 V -5.5909692 Z m 0,0"
       style="fill:#000000;fill-opacity:1;fill-rule:nonzero;stroke:none"
       aria-label="1"
       transform="matrix(1.3333333,0,0,1.3333333,70.399811,205.23197)"
       clip-path="url(#clipPath21)" />
    <path
       id="path22"
       d="m 122.879,69.816 39.098,5.586"
       style="fill:none;stroke:#000000;stroke-width:0.6144;stroke-linecap:square;stroke-linejoin:miter;stroke-miterlimit:3.25;stroke-dasharray:none;stroke-opacity:1"
       transform="scale(1.3333333)" />
    <path
       id="path23"
       d="m 145.746,73.086 -6.949,1.262 0.629,-4.422 z"
       style="fill:#000000;fill-opacity:1;fill-rule:evenodd;stroke:none"
       transform="scale(1.3333333)" />
    <path
       id="path24"
       d="m 3.7274193,-7.3941349 -1.0546875,4.921875 c -0.082031,0.3632812 -0.082031,0.6796875 -0.011719,0.9140625 0.1289063,0.4453125 0.4804688,0.66796871 1.0898438,0.66796871 0.8671875,0 1.546875,-0.38671871 2.0273437,-1.16015621 0.2578125,-0.4101563 0.4570313,-0.9960938 0.609375,-1.7109375 L 7.161013,-7.3941349 H 8.4149193 L 6.832888,3.963125e-4 H 5.661013 L 5.9071068,-1.0894474 c -0.234375,0.28124996 -0.46875,0.52734371 -0.75,0.72656246 -0.5742188,0.375 -1.1835938,0.57421875 -1.8632813,0.57421875 -1.0546875,0 -1.6875,-0.3515625 -1.921875,-1.0546875 -0.1289062,-0.38671871 -0.1289062,-0.87890621 0,-1.52343751 l 1.078125,-5.0273437 z m 0,0"
       style="fill:#000000;fill-opacity:1;fill-rule:nonzero;stroke:none"
       aria-label="u"
       transform="matrix(1.3333333,0,0,1.3333333,185.88948,85.683065)" />
    <path
       id="path25"
       d="m 161.977,120.086 -0.602,0.676 -0.727,0.55 -0.82,0.399 -0.883,0.219 -0.91,0.039 -0.898,-0.145 -0.852,-0.32 -0.773,-0.477 -0.66,-0.601 -0.532,-0.692 -0.382,-0.742 -0.227,-0.75 -0.07,-0.715 0.074,-0.636 0.203,-0.52 0.305,-0.375 0.375,-0.203 0.414,-0.023 0.414,0.16 0.383,0.34 0.308,0.503 0.207,0.637 0.082,0.738 -0.066,0.805 -0.215,0.82 -0.375,0.801 -0.523,0.731 -0.657,0.629 -0.769,0.492 -0.848,0.328 -0.898,0.148 -0.91,-0.039 -0.883,-0.218 -0.824,-0.383 -0.731,-0.532 -0.613,-0.644 -0.469,-0.715 -0.32,-0.754 -0.164,-0.738 -0.008,-0.688 0.129,-0.593 0.246,-0.465 0.336,-0.309 0.398,-0.133 0.418,0.051 0.406,0.238 0.352,0.407 0.273,0.562 0.161,0.684 0.023,0.769 -0.125,0.817 -0.281,0.816 -0.438,0.777 -0.578,0.696 -0.707,0.578 -0.805,0.426 -0.871,0.258 -0.906,0.07 -0.902,-0.11 -0.867,-0.289 -0.79,-0.449 -0.683,-0.578 -0.559,-0.68 -0.41,-0.734 -0.258,-0.754 -0.097,-0.723 0.047,-0.652 0.179,-0.547 0.289,-0.402 0.364,-0.242 0.41,-0.059 0.418,0.129 0.39,0.309 0.325,0.472 0.226,0.614 0.109,0.722 -0.035,0.793 -0.187,0.824 -0.348,0.805 -0.496,0.75 -0.633,0.652 -0.746,0.516 -0.836,0.363 -0.89,0.184 -0.911,-0.004 -0.894,-0.184 -0.836,-0.355 -0.75,-0.508 -0.637,-0.621 -0.5,-0.707 -0.347,-0.75 -0.192,-0.746 -0.039,-0.699 0.102,-0.614 0.226,-0.492 0.324,-0.34 0.387,-0.168 0.418,0.016 0.41,0.203 0.367,0.375 0.29,0.535 0.183,0.664 0.051,0.754 -0.098,0.813 -0.25,0.82 -0.406,0.789 -0.555,0.711 -0.683,0.602 -0.789,0.457 -0.86,0.293 -0.906,0.109 -0.906,-0.078 -0.875,-0.258 -0.805,-0.418 -0.707,-0.558 -0.582,-0.661 -0.441,-0.73 -0.285,-0.754 -0.129,-0.73 0.019,-0.672 0.156,-0.567 0.27,-0.433 0.355,-0.274 0.403,-0.09 0.418,0.09 0.398,0.274 0.34,0.445 0.25,0.59 0.129,0.703 -0.004,0.785 -0.16,0.82 -0.317,0.813 -0.464,0.762 -0.61,0.672 -0.73,0.546 -0.821,0.391 -0.882,0.219 -0.911,0.035 -0.898,-0.152 -0.852,-0.325 -0.769,-0.48"
       style="fill:none;stroke:#000000;stroke-width:0.6144;stroke-linecap:square;stroke-linejoin:miter;stroke-miterlimit:3.25;stroke-dasharray:none;stroke-opacity:1"
       transform="scale(1.3333333)" />
    <path
       id="path26"
       d="m 6.5399198,-7.0899381 c 0.2109375,0.1523437 0.3984375,0.3984375 0.5625,0.6914062 l 0.2226562,-0.9375 H 8.4617948 L 7.0321073,-0.59775063 C 6.8328885,0.33974937 6.5399198,1.0897494 6.1414823,1.6288119 5.403201,2.6366244 4.3367948,3.1405306 2.9071073,3.1405306 c -0.8085938,0 -1.4296875,-0.1875 -1.8984375,-0.5390625 C 0.53991975,2.2499056 0.340701,1.6874056 0.434451,0.92568687 H 1.7117948 C 1.700076,1.2655306 1.7703885,1.5116244 1.9110135,1.6991244 2.121951,1.9686556 2.543826,2.1092806 3.1414823,2.1092806 c 0.9609375,0 1.6640625,-0.3398437 2.0976562,-1.0078125 C 5.496951,0.70303062 5.7196073,-9.4375e-5 5.918826,-1.0196256 c -0.328125,0.36328122 -0.6796875,0.65624997 -1.0664062,0.83203122 -0.3867188,0.187500005 -0.8789063,0.28125 -1.453125,0.28125 -0.796875,0 -1.4414063,-0.28125 -1.921875,-0.84375 C 0.996951,-1.3360319 0.89148225,-2.2618131 1.1727323,-3.5860319 c 0.2695312,-1.2304687 0.7617187,-2.203125 1.5351562,-2.8945312 0.75,-0.6914063 1.5585938,-1.0546875 2.4023438,-1.0546875 0.5859375,0 1.0664062,0.140625 1.4296875,0.4453125 z m -1.4296875,0.6679687 c -0.8789063,0 -1.5585938,0.4101563 -2.0507813,1.2304688 -0.2695312,0.4335937 -0.4804687,0.9960937 -0.6210937,1.7109375 -0.1875,0.8320312 -0.140625,1.4648437 0.09375,1.9101562 0.2460937,0.4335938 0.65625,0.64453127 1.2304687,0.64453127 0.890625,0 1.6054688,-0.38671877 2.1445313,-1.19531247 0.2929687,-0.46875 0.5039062,-0.9960938 0.6328125,-1.6054688 0.1992187,-0.9140625 0.1523437,-1.59375 -0.1289063,-2.0390625 -0.28125,-0.4335937 -0.7148437,-0.65625 -1.3007812,-0.65625 z m 0,0"
       style="fill:#000000;fill-opacity:1;fill-rule:nonzero;stroke:none"
       aria-label="g"
       transform="matrix(1.3333333,0,0,1.3333333,185.85823,188.49231)" />
    <path
       id="path27"
       d="M 234.59,97.746 H 198.285"
       style="fill:none;stroke:#000000;stroke-width:0.6144;stroke-linecap:square;stroke-linejoin:miter;stroke-miterlimit:3.25;stroke-dasharray:none;stroke-opacity:1"
       transform="scale(1.3333333)" />
    <path
       id="path28"
       d="m 219.789,97.746 -6.703,-2.234 v 4.468 z"
       style="fill:#000000;fill-opacity:1;fill-rule:evenodd;stroke:none"
       transform="scale(1.3333333)" />
    <path
       id="path29"
       d="m 3.7267218,-7.3957705 -1.0546875,4.921875 c -0.082031,0.3632813 -0.082031,0.6796875 -0.011719,0.9140625 0.1289062,0.4453125 0.4804687,0.66796875 1.0898437,0.66796875 0.8671875,0 1.546875,-0.38671875 2.0273438,-1.16015625 0.2578125,-0.4101562 0.4570312,-0.9960937 0.609375,-1.7109375 L 7.1603156,-7.3957705 H 8.4142218 L 6.8321906,-0.00123925 H 5.6603156 L 5.9064093,-1.091083 c -0.234375,0.28125 -0.46875,0.52734375 -0.75,0.7265625 -0.5742187,0.375 -1.1835937,0.57421875 -1.8632812,0.57421875 -1.0546875,0 -1.6875,-0.3515625 -1.921875,-1.0546875 -0.1289063,-0.38671875 -0.1289063,-0.87890625 0,-1.52343745 l 1.078125,-5.0273438 z m 0,0"
       style="fill:#000000;fill-opacity:1;fill-rule:nonzero;stroke:none"
       aria-label="u"
       transform="matrix(1.3333333,0,0,1.3333333,282.93338,119.07978)" />
    <path
       id="path30"
       d="m 161.977,120.086 -0.52,-0.637 -0.414,-0.719 -0.289,-0.785 -0.152,-0.82 -0.008,-0.832 0.136,-0.824 0.278,-0.785 0.398,-0.731 0.512,-0.648 0.598,-0.551 0.656,-0.442 0.691,-0.32 0.696,-0.203 0.664,-0.082 0.613,0.027 0.527,0.129 0.426,0.211 0.301,0.278 0.164,0.316 0.019,0.332 -0.125,0.324 -0.261,0.289 -0.391,0.231 -0.5,0.156 -0.59,0.059 -0.652,-0.051 -0.692,-0.168 -0.695,-0.289 -0.672,-0.406 -0.617,-0.52 -0.535,-0.625 -0.434,-0.707 -0.312,-0.77 -0.18,-0.816 -0.031,-0.832 0.109,-0.828 0.25,-0.797 0.383,-0.738 0.488,-0.664 0.586,-0.571 0.649,-0.461 0.687,-0.343 0.696,-0.227 0.675,-0.101 0.621,0.007 0.547,0.114 0.442,0.199 0.324,0.265 0.191,0.313 0.047,0.328 -0.097,0.328 -0.239,0.297 -0.371,0.246 -0.48,0.168 -0.578,0.078 -0.645,-0.031 -0.683,-0.145 -0.7,-0.265 -0.676,-0.391 -0.628,-0.5 -0.555,-0.605 -0.453,-0.692 -0.336,-0.761 -0.199,-0.813 -0.059,-0.832 0.082,-0.828 0.227,-0.801 0.359,-0.754 0.473,-0.679 0.57,-0.586 0.637,-0.481 0.683,-0.367 0.696,-0.246 0.679,-0.125 0.637,-0.008 0.563,0.094 0.46,0.183 0.348,0.258 0.215,0.301 0.07,0.332 -0.07,0.328 -0.215,0.305 -0.348,0.258 -0.46,0.183 -0.563,0.094 -0.637,-0.008 -0.679,-0.125 -0.696,-0.246 -0.683,-0.367 -0.637,-0.48 -0.57,-0.59 -0.473,-0.676 -0.359,-0.754 -0.227,-0.801 -0.082,-0.832 0.059,-0.832 0.199,-0.808 0.336,-0.762 0.453,-0.695 0.555,-0.602 0.628,-0.504 0.676,-0.387 0.7,-0.265 0.683,-0.149 0.645,-0.027 0.578,0.074 0.48,0.172 0.371,0.242 0.239,0.301 0.097,0.324 -0.047,0.332 -0.191,0.313 -0.324,0.265 -0.442,0.2 -0.547,0.109 -0.621,0.012 -0.675,-0.106 -0.696,-0.222 -0.687,-0.344 -0.649,-0.465 -0.586,-0.566 -0.488,-0.665 -0.383,-0.742 -0.25,-0.793 -0.109,-0.828 0.031,-0.832 0.18,-0.816 0.312,-0.774 0.434,-0.707 0.535,-0.621 0.617,-0.519 0.672,-0.41 0.695,-0.29 0.692,-0.168 0.652,-0.046 0.59,0.058 0.5,0.153 0.391,0.234 0.261,0.289 0.125,0.324 -0.019,0.332 -0.164,0.317 -0.301,0.273 -0.426,0.215 -0.527,0.129 -0.613,0.027 -0.664,-0.082 -0.696,-0.203 -0.691,-0.324 -0.656,-0.442 -0.598,-0.55 -0.512,-0.649 -0.398,-0.726 -0.278,-0.789 -0.136,-0.821 0.008,-0.836 0.152,-0.82 0.289,-0.781 0.414,-0.719 0.52,-0.641"
       style="fill:none;stroke:#000000;stroke-width:0.6144;stroke-linecap:square;stroke-linejoin:miter;stroke-miterlimit:3.25;stroke-dasharray:none;stroke-opacity:1"
       transform="scale(1.3333333)" />
    <path
       id="path31"
       d="m 6.5404476,-7.0911576 c 0.2109375,0.1523437 0.3984375,0.3984375 0.5625,0.6914062 l 0.2226562,-0.9375 h 1.1367188 l -1.4296875,6.73828128 c -0.1992188,0.9375 -0.4921875,1.68750002 -0.890625,2.22656252 -0.7382813,1.0078125 -1.8046875,1.5117187 -3.234375,1.5117187 -0.8085938,0 -1.4296875,-0.1875 -1.8984375,-0.5390625 C 0.54044756,2.2486861 0.34122881,1.6861861 0.43497881,0.92446738 H 1.7123226 c -0.011719,0.33984372 0.058594,0.58593752 0.1992187,0.77343752 0.2109375,0.2695312 0.6328125,0.4101562 1.2304688,0.4101562 0.9609375,0 1.6640625,-0.3398437 2.0976562,-1.0078125 0.2578125,-0.39843747 0.4804688,-1.10156247 0.6796875,-2.1210937 -0.328125,0.36328123 -0.6796875,0.65624998 -1.0664062,0.83203123 -0.3867188,0.1875 -0.8789063,0.28125 -1.453125,0.28125 -0.796875,0 -1.4414063,-0.28125 -1.921875,-0.84375 C 0.99747881,-1.3372514 0.89201006,-2.2630326 1.1732601,-3.5872514 c 0.2695312,-1.2304687 0.7617187,-2.203125 1.5351562,-2.8945312 0.75,-0.6914063 1.5585938,-1.0546875 2.4023438,-1.0546875 0.5859375,0 1.0664062,0.140625 1.4296875,0.4453125 z m -1.4296875,0.6679687 c -0.8789063,0 -1.5585938,0.4101563 -2.0507813,1.2304688 -0.2695312,0.4335937 -0.4804687,0.9960937 -0.6210937,1.7109375 -0.1875,0.8320312 -0.140625,1.4648437 0.09375,1.9101562 0.2460937,0.4335938 0.65625,0.64453128 1.2304687,0.64453128 0.890625,0 1.6054688,-0.38671878 2.1445313,-1.19531248 0.2929687,-0.46875 0.5039062,-0.9960938 0.6328125,-1.6054688 0.1992187,-0.9140625 0.1523437,-1.59375 -0.1289063,-2.0390625 -0.28125,-0.4335937 -0.7148437,-0.65625 -1.3007812,-0.65625 z m 0,0"
       style="fill:#000000;fill-opacity:1;fill-rule:nonzero;stroke:none"
       aria-label="g"
       transform="matrix(1.3333333,0,0,1.3333333,197.57237,137.08769)" />
    <path
       id="path32"
       d="m 161.977,75.402 36.308,22.344"
       style="fill:none;stroke:#000000;stroke-width:0.6144;stroke-linecap:square;stroke-linejoin:miter;stroke-miterlimit:3.25;stroke-dasharray:none;stroke-opacity:1"
       transform="scale(1.3333333)" />
    <path
       id="path33"
       d="m 182.984,88.332 -6.879,-1.609 2.344,-3.809 z"
       style="fill:#000000;fill-opacity:1;fill-rule:evenodd;stroke:none"
       transform="scale(1.3333333)" />
    <path
       id="path34"
       d="m 3.725449,-7.3938881 -1.0546875,4.921875 c -0.082031,0.3632812 -0.082031,0.6796875 -0.011719,0.9140625 0.1289063,0.4453125 0.4804688,0.66796872 1.0898438,0.66796872 0.8671875,0 1.546875,-0.38671872 2.0273437,-1.16015622 0.2578125,-0.4101563 0.4570313,-0.9960938 0.609375,-1.7109375 L 7.1590427,-7.3938881 H 8.412949 L 6.8309177,6.43125e-4 H 5.6590427 L 5.9051365,-1.0892006 c -0.234375,0.28124997 -0.46875,0.52734372 -0.75,0.72656247 -0.5742188,0.375 -1.1835938,0.57421875 -1.8632813,0.57421875 -1.0546875,0 -1.6875,-0.3515625 -1.921875,-1.0546875 -0.1289062,-0.38671872 -0.1289062,-0.87890622 0,-1.52343752 l 1.078125,-5.0273437 z m 0,0"
       style="fill:#000000;fill-opacity:1;fill-rule:nonzero;stroke:none"
       aria-label="u"
       transform="matrix(1.3333333,0,0,1.3333333,241.72023,105.89758)" />
    <path
       id="path35"
       d="m 198.285,97.746 -0.277,0.809 -0.418,0.757 -0.543,0.672 -0.66,0.559 -0.75,0.43 -0.817,0.285 -0.855,0.129 -0.86,-0.024 -0.839,-0.164 -0.782,-0.301 -0.699,-0.406 -0.597,-0.496 -0.473,-0.547 -0.34,-0.57 -0.195,-0.559 -0.059,-0.515 0.078,-0.442 0.196,-0.336 0.296,-0.211 0.371,-0.07 0.418,0.078 0.434,0.235 0.422,0.382 0.379,0.52 0.305,0.637 0.207,0.73 0.089,0.793 -0.043,0.832 -0.179,0.828 -0.324,0.797 -0.461,0.731 -0.586,0.636 -0.692,0.52 -0.773,0.383 -0.832,0.234 -0.86,0.078 -0.859,-0.07 -0.82,-0.211 -0.758,-0.34 -0.668,-0.437 -0.559,-0.516 -0.429,-0.559 -0.293,-0.574 -0.149,-0.547 -0.011,-0.492 0.117,-0.41 0.23,-0.297 0.324,-0.168 0.391,-0.023 0.426,0.132 0.437,0.286 0.41,0.425 0.356,0.563 0.273,0.672 0.172,0.754 0.047,0.812 -0.086,0.832 -0.23,0.82 -0.371,0.778 -0.5,0.703 -0.625,0.602 -0.723,0.476 -0.797,0.332 -0.844,0.184 -0.863,0.031 -0.848,-0.121 -0.804,-0.254 -0.731,-0.375 -0.633,-0.469 -0.519,-0.531 -0.383,-0.566 -0.246,-0.571 -0.105,-0.531 0.035,-0.469 0.156,-0.375 0.266,-0.258 0.347,-0.121 0.406,0.032 0.434,0.179 0.43,0.332 0.394,0.477 0.332,0.598 0.243,0.703 0.132,0.777 0.004,0.82 -0.133,0.832 -0.277,0.813 -0.414,0.758 -0.543,0.672 -0.66,0.558 -0.75,0.43 -0.817,0.285 -0.851,0.133 -0.863,-0.02 -0.836,-0.164 -0.782,-0.301 -0.703,-0.406 -0.597,-0.492 -0.477,-0.547 -0.34,-0.57 -0.195,-0.563 -0.059,-0.515 0.075,-0.442 0.195,-0.336 0.297,-0.215 0.371,-0.07 0.418,0.078 0.433,0.231 0.422,0.383 0.379,0.515 0.305,0.637 0.211,0.73 0.09,0.797 -0.043,0.828 -0.18,0.828 -0.324,0.797 -0.457,0.735 -0.582,0.636 -0.692,0.52 -0.777,0.383 -0.832,0.234 -0.859,0.082 -0.856,-0.07 -0.824,-0.211 -0.758,-0.336 -0.672,-0.437 -0.558,-0.516 -0.43,-0.559 -0.293,-0.57 -0.152,-0.551 -0.012,-0.492 0.117,-0.41 0.231,-0.301 0.324,-0.168 0.39,-0.023 0.426,0.129 0.434,0.285 0.41,0.426 0.359,0.558 0.274,0.672 0.172,0.754 0.05,0.812 -0.086,0.832 -0.23,0.821 -0.367,0.781 -0.504,0.703 -0.621,0.602 -0.719,0.476 -0.797,0.332 -0.847,0.188 -0.86,0.031 -0.851,-0.121"
       style="fill:none;stroke:#000000;stroke-width:0.6144;stroke-linecap:square;stroke-linejoin:miter;stroke-miterlimit:3.25;stroke-dasharray:none;stroke-opacity:1"
       transform="scale(1.3333333)" />
    <path
       id="path36"
       d="m 6.537949,-7.0901849 c 0.2109375,0.1523437 0.3984375,0.3984375 0.5625,0.6914062 l 0.2226562,-0.9375 H 8.459824 L 7.0301365,-0.59799744 C 6.8309177,0.33950256 6.537949,1.0895026 6.1395115,1.6285651 5.4012302,2.6363776 4.334824,3.1402838 2.9051365,3.1402838 2.0965427,3.1402838 1.475449,2.9527838 1.006699,2.6012213 0.537949,2.2496588 0.33873025,1.6871588 0.43248025,0.92544006 H 1.709824 C 1.698105,1.2652838 1.768418,1.5113776 1.9090427,1.6988776 c 0.2109375,0.2695312 0.6328125,0.4101562 1.2304688,0.4101562 0.9609375,0 1.6640625,-0.3398437 2.0976562,-1.0078125 0.2578125,-0.39843749 0.4804688,-1.1015624875 0.6796875,-2.1210937 -0.328125,0.36328121 -0.6796875,0.65624996 -1.0664062,0.83203121 -0.3867188,0.1875000025 -0.8789063,0.28125 -1.453125,0.28125 -0.796875,0 -1.4414063,-0.28125 -1.921875,-0.84375 C 0.99498025,-1.3362787 0.8895115,-2.2620599 1.1707615,-3.5862787 c 0.2695312,-1.2304687 0.7617187,-2.203125 1.5351562,-2.8945312 0.75,-0.6914063 1.5585938,-1.0546875 2.4023438,-1.0546875 0.5859375,0 1.0664062,0.140625 1.4296875,0.4453125 z m -1.4296875,0.6679687 c -0.8789063,0 -1.5585938,0.4101563 -2.0507813,1.2304688 -0.2695312,0.4335937 -0.4804687,0.9960937 -0.6210937,1.7109375 -0.1875,0.8320312 -0.140625,1.4648437 0.09375,1.9101562 0.2460937,0.4335938 0.65625,0.64453126 1.2304687,0.64453126 0.890625,0 1.6054688,-0.38671876 2.1445313,-1.19531246 0.2929687,-0.46875 0.5039062,-0.9960938 0.6328125,-1.6054688 0.1992187,-0.9140625 0.1523437,-1.59375 -0.1289063,-2.0390625 -0.28125,-0.4335937 -0.7148437,-0.65625 -1.3007812,-0.65625 z m 0,0"
       style="fill:#000000;fill-opacity:1;fill-rule:nonzero;stroke:none"
       aria-label="g"
       transform="matrix(1.3333333,0,0,1.3333333,241.72023,168.2778)" />
    <path
       id="path37"
       d="m 164.438,75.402 c 0,0.653 -0.262,1.278 -0.723,1.739 -0.461,0.461 -1.086,0.718 -1.738,0.718 -0.649,0 -1.274,-0.257 -1.735,-0.718 -0.461,-0.461 -0.722,-1.086 -0.722,-1.739 0,-0.652 0.261,-1.277 0.722,-1.738 0.461,-0.461 1.086,-0.719 1.735,-0.719 0.652,0 1.277,0.258 1.738,0.719 0.461,0.461 0.723,1.086 0.723,1.738 z"
       style="fill:#000000;fill-opacity:1;fill-rule:evenodd;stroke:none"
       transform="scale(1.3333333)" />
    <path
       id="path38"
       d="m 164.438,120.086 c 0,0.652 -0.262,1.277 -0.723,1.738 -0.461,0.461 -1.086,0.719 -1.738,0.719 -0.649,0 -1.274,-0.258 -1.735,-0.719 -0.461,-0.461 -0.722,-1.086 -0.722,-1.738 0,-0.652 0.261,-1.277 0.722,-1.738 0.461,-0.461 1.086,-0.719 1.735,-0.719 0.652,0 1.277,0.258 1.738,0.719 0.461,0.461 0.723,1.086 0.723,1.738 z"
       style="fill:#000000;fill-opacity:1;fill-rule:evenodd;stroke:none"
       transform="scale(1.3333333)" />
    <path
       id="path39"
       d="m 200.742,97.746 c 0,0.652 -0.262,1.277 -0.722,1.738 -0.461,0.461 -1.086,0.719 -1.735,0.719 -0.652,0 -1.277,-0.258 -1.738,-0.719 -0.461,-0.461 -0.723,-1.086 -0.723,-1.738 0,-0.652 0.262,-1.277 0.723,-1.738 0.461,-0.461 1.086,-0.719 1.738,-0.719 0.649,0 1.274,0.258 1.735,0.719 0.46,0.461 0.722,1.086 0.722,1.738 z"
       style="fill:#000000;fill-opacity:1;fill-rule:evenodd;stroke:none"
       transform="scale(1.3333333)" />
    <path
       id="path40"
       d="M 0.35041544,-0.00112544 C 0.38557169,-0.68081294 0.51447794,-1.2667504 0.76057169,-1.7706567 1.0183842,-2.2745629 1.4871342,-2.7315942 2.2019779,-3.1417504 l 1.0546875,-0.6210938 c 0.4804688,-0.2695312 0.8085938,-0.5039062 0.9960938,-0.6914062 0.3046875,-0.3046875 0.4570312,-0.65625 0.4570312,-1.0546875 0,-0.4453125 -0.140625,-0.8203125 -0.421875,-1.0898438 -0.2695312,-0.2695312 -0.6445312,-0.4101562 -1.0898437,-0.4101562 -0.6914063,0 -1.1601563,0.2578125 -1.4179688,0.7734375 -0.140625,0.28125 -0.2109375,0.65625 -0.234375,1.1484375 H 0.53791544 c 0.0117188,-0.6914063 0.140625,-1.2421875 0.38671875,-1.6875 0.43359371,-0.75 1.18359371,-1.1367188 2.27343751,-1.1367188 0.9023437,0 1.5585937,0.234375 1.9804687,0.7382813 0.421875,0.4804687 0.6210938,1.0195312 0.6210938,1.6171875 0,0.6328125 -0.2226563,1.171875 -0.6679688,1.6289062 -0.2578125,0.2578125 -0.7148437,0.5742188 -1.3710937,0.9492188 l -0.7617188,0.4101562 c -0.3632812,0.2109375 -0.6445312,0.3867188 -0.8554687,0.5742188 -0.3632813,0.3164062 -0.5976563,0.6679687 -0.6914063,1.05468746 h 4.3125 v 0.9375 z m 0,0"
       style="fill:#000000;fill-opacity:1;fill-rule:nonzero;stroke:none"
       aria-label="2"
       transform="matrix(1.3333333,0,0,1.3333333,234.23981,205.23197)"
       clip-path="url(#clipPath41)" />
    <path
       id="path42"
       d="m 245.762,69.816 50.265,27.93"
       style="fill:none;stroke:#000000;stroke-width:0.6144;stroke-linecap:square;stroke-linejoin:miter;stroke-miterlimit:3.25;stroke-dasharray:none;stroke-opacity:1"
       transform="scale(1.3333333)" />
    <path
       id="path43"
       d="m 273.824,85.41 -6.945,-1.305 2.172,-3.902 z"
       style="fill:#000000;fill-opacity:1;fill-rule:evenodd;stroke:none"
       transform="scale(1.3333333)" />
    <path
       id="path44"
       d="m 3.7257481,-7.3955401 -1.0546875,4.921875 c -0.082031,0.3632812 -0.082031,0.6796875 -0.011719,0.9140625 0.1289063,0.4453125 0.4804688,0.66796873 1.0898438,0.66796873 0.8671875,0 1.546875,-0.38671873 2.0273437,-1.16015623 0.2578125,-0.4101563 0.4570313,-0.9960938 0.609375,-1.7109375 L 7.1593418,-7.3955401 H 8.4132481 L 6.8312168,-0.00100887 H 5.6593418 L 5.9054356,-1.0908526 c -0.234375,0.28124998 -0.46875,0.52734373 -0.75,0.72656248 -0.5742188,0.375 -1.1835938,0.57421875 -1.8632813,0.57421875 -1.0546875,0 -1.6875,-0.3515625 -1.921875,-1.0546875 -0.1289062,-0.38671873 -0.1289062,-0.87890623 0,-1.52343753 l 1.078125,-5.0273437 z m 0,0"
       style="fill:#000000;fill-opacity:1;fill-rule:nonzero;stroke:none"
       aria-label="u"
       transform="matrix(1.3333333,0,0,1.3333333,348.79405,135.02478)"
       clip-path="url(#clipPath45)" />
    <path
       id="path46"
       d="m 296.027,97.746 -0.32,0.816 -0.465,0.75 -0.597,0.653 -0.707,0.535 -0.793,0.391 -0.856,0.234 -0.879,0.074 -0.879,-0.082 -0.836,-0.234 -0.773,-0.36 -0.676,-0.468 -0.558,-0.547 -0.426,-0.586 -0.282,-0.594 -0.132,-0.566 0.007,-0.504 0.141,-0.406 0.25,-0.29 0.34,-0.144 0.402,0.008 0.43,0.172 0.426,0.328 0.39,0.48 0.321,0.606 0.23,0.718 0.113,0.793 -0.023,0.836 -0.164,0.848 -0.313,0.816 -0.457,0.758 -0.586,0.664 -0.699,0.543 -0.789,0.403 -0.847,0.246 -0.883,0.086 -0.875,-0.071 -0.844,-0.222 -0.777,-0.356 -0.684,-0.461 -0.57,-0.539 -0.434,-0.586 -0.293,-0.593 -0.144,-0.571 v -0.508 l 0.129,-0.418 0.242,-0.296 0.336,-0.157 0.394,-0.004 0.43,0.161 0.426,0.316 0.394,0.469 0.328,0.597 0.239,0.711 0.121,0.789 -0.012,0.832 -0.152,0.848 -0.301,0.82 -0.445,0.766 -0.579,0.672 -0.691,0.551 -0.781,0.414 -0.848,0.258 -0.879,0.101 -0.879,-0.062 -0.847,-0.211 -0.786,-0.344 -0.691,-0.453 -0.578,-0.535 -0.445,-0.586 -0.301,-0.594 -0.156,-0.574 -0.012,-0.512 0.121,-0.426 0.234,-0.308 0.328,-0.168 0.395,-0.012 0.426,0.144 0.429,0.305 0.399,0.457 0.332,0.59 0.246,0.703 0.129,0.781 v 0.836 l -0.145,0.844 -0.289,0.828 -0.433,0.766 -0.567,0.68 -0.683,0.562 -0.778,0.426 -0.843,0.269 -0.879,0.114 -0.879,-0.051 -0.852,-0.199 -0.789,-0.336 -0.699,-0.446 -0.586,-0.531 -0.457,-0.582 -0.312,-0.594 -0.168,-0.578 -0.024,-0.519 0.113,-0.43 0.227,-0.316 0.324,-0.18 0.387,-0.027 0.426,0.132 0.429,0.297 0.403,0.446 0.34,0.578 0.253,0.695 0.137,0.777 0.012,0.832 -0.133,0.848 -0.281,0.828 -0.422,0.774 -0.559,0.683 -0.675,0.574 -0.77,0.434 -0.84,0.285 -0.875,0.121 -0.883,-0.035 -0.851,-0.191 -0.797,-0.325 -0.707,-0.437 -0.598,-0.527 -0.465,-0.578 -0.324,-0.594 -0.179,-0.582 -0.032,-0.524 0.102,-0.441 0.219,-0.324 0.316,-0.192 0.387,-0.039 0.422,0.125 0.429,0.281 0.407,0.434 0.343,0.57 0.262,0.688 0.148,0.773 0.02,0.828 -0.121,0.848 -0.27,0.828 -0.41,0.781 -0.551,0.696 -0.668,0.578 -0.761,0.449 -0.836,0.293 -0.875,0.137 -0.883,-0.028 -0.856,-0.175 -0.8,-0.317 -0.715,-0.433 -0.606,-0.52 -0.476,-0.574 -0.336,-0.598 -0.188,-0.578 -0.043,-0.531 0.09,-0.449 0.211,-0.336 0.313,-0.2 0.379,-0.05 0.421,0.109 0.434,0.27 0.406,0.425 0.352,0.563 0.266,0.676 0.16,0.769 0.027,0.824 -0.109,0.848 -0.258,0.832 -0.402,0.785 -0.54,0.699 -0.656,0.594 -0.762,0.457 -0.828,0.305 -0.875,0.148 -0.882,-0.015 -0.86,-0.164 -0.805,-0.309 -0.722,-0.422 -0.613,-0.515 -0.489,-0.575 -0.344,-0.593 -0.203,-0.582 -0.054,-0.536 0.082,-0.457 0.207,-0.343 0.301,-0.211 0.378,-0.063 0.418,0.098 0.434,0.258 0.41,0.41 0.356,0.555 0.273,0.671 0.168,0.762 0.039,0.82 -0.098,0.848 -0.246,0.832 -0.394,0.789 -0.528,0.711 -0.652,0.602 -0.75,0.465 -0.828,0.32 -0.867,0.16 -0.887,-0.004 -0.859,-0.156"
       style="fill:none;stroke:#000000;stroke-width:0.6144;stroke-linecap:square;stroke-linejoin:miter;stroke-miterlimit:3.25;stroke-dasharray:none;stroke-opacity:1"
       transform="scale(1.3333333)" />
    <path
       id="path47"
       d="m 6.5378951,-7.0894147 c 0.2109375,0.1523438 0.3984375,0.3984375 0.5625,0.6914063 l 0.2226562,-0.9375 h 1.1367188 l -1.4296875,6.73828121 c -0.1992188,0.9375 -0.4921875,1.68749999 -0.890625,2.22656249 -0.7382813,1.0078125 -1.8046875,1.5117188 -3.234375,1.5117188 -0.8085938,0 -1.4296875,-0.1875 -1.8984375,-0.5390625 C 0.53789506,2.2504291 0.33867631,1.6879291 0.43242631,0.92621031 H 1.7097701 c -0.011719,0.33984379 0.058594,0.58593749 0.1992187,0.77343749 0.2109375,0.2695313 0.6328125,0.4101563 1.2304688,0.4101563 0.9609375,0 1.6640625,-0.3398438 2.0976562,-1.0078125 0.2578125,-0.39843754 0.4804688,-1.1015625375 0.6796875,-2.1210938 -0.328125,0.36328126 -0.6796875,0.65625001 -1.0664062,0.83203126 -0.3867188,0.1875000025 -0.8789063,0.28125 -1.453125,0.28125 -0.796875,0 -1.4414063,-0.28125 -1.921875,-0.84375 C 0.99492631,-1.3355084 0.88945756,-2.2612897 1.1707076,-3.5855084 c 0.2695312,-1.2304688 0.7617187,-2.203125 1.5351562,-2.8945313 0.75,-0.6914062 1.5585938,-1.0546875 2.4023438,-1.0546875 0.5859375,0 1.0664062,0.140625 1.4296875,0.4453125 z m -1.4296875,0.6679688 c -0.8789063,0 -1.5585938,0.4101562 -2.0507813,1.2304687 -0.2695312,0.4335938 -0.4804687,0.9960938 -0.6210937,1.7109375 -0.1875,0.8320313 -0.140625,1.4648438 0.09375,1.9101563 0.2460937,0.4335937 0.65625,0.64453121 1.2304687,0.64453121 0.890625,0 1.6054688,-0.38671871 2.1445313,-1.19531251 0.2929687,-0.46875 0.5039062,-0.9960937 0.6328125,-1.6054687 0.1992187,-0.9140625 0.1523437,-1.59375 -0.1289063,-2.0390625 -0.28125,-0.4335938 -0.7148437,-0.65625 -1.3007812,-0.65625 z m 0,0"
       style="fill:#000000;fill-opacity:1;fill-rule:nonzero;stroke:none"
       aria-label="g"
       transform="matrix(1.3333333,0,0,1.3333333,362.29453,172.26115)" />
    <path
       id="path48"
       d="M 357.469,97.746 H 296.027"
       style="fill:none;stroke:#000000;stroke-width:0.6144;stroke-linecap:square;stroke-linejoin:miter;stroke-miterlimit:3.25;stroke-dasharray:none;stroke-opacity:1"
       transform="scale(1.3333333)" />
    <path
       id="path49"
       d="m 330.102,97.746 -6.704,-2.234 v 4.468 z"
       style="fill:#000000;fill-opacity:1;fill-rule:evenodd;stroke:none"
       transform="scale(1.3333333)" />
    <path
       id="path50"
       d="m 3.7255182,-7.3957705 -1.0546875,4.921875 c -0.082031,0.3632813 -0.082031,0.6796875 -0.011719,0.9140625 0.1289062,0.4453125 0.4804687,0.66796875 1.0898437,0.66796875 0.8671875,0 1.546875,-0.38671875 2.0273438,-1.16015625 0.2578125,-0.4101562 0.4570312,-0.9960937 0.609375,-1.7109375 L 7.159112,-7.3957705 H 8.4130182 L 6.830987,-0.00123925 H 5.659112 L 5.9052057,-1.091083 c -0.234375,0.28125 -0.46875,0.52734375 -0.75,0.7265625 -0.5742187,0.375 -1.1835937,0.57421875 -1.8632812,0.57421875 -1.0546875,0 -1.6875,-0.3515625 -1.921875,-1.0546875 -0.1289063,-0.38671875 -0.1289063,-0.87890625 0,-1.52343745 l 1.078125,-5.0273438 z m 0,0"
       style="fill:#000000;fill-opacity:1;fill-rule:nonzero;stroke:none"
       aria-label="u"
       transform="matrix(1.3333333,0,0,1.3333333,430.01702,119.07978)" />
    <path
       id="path51"
       d="m 293.238,100.539 5.582,-5.586"
       style="fill:none;stroke:#000000;stroke-width:1.8432;stroke-linecap:square;stroke-linejoin:miter;stroke-miterlimit:3.25;stroke-dasharray:none;stroke-opacity:1"
       transform="scale(1.3333333)" />
    <path
       id="path52"
       d="m 293.238,94.953 5.582,5.586"
       style="fill:none;stroke:#000000;stroke-width:1.8432;stroke-linecap:square;stroke-linejoin:miter;stroke-miterlimit:3.25;stroke-dasharray:none;stroke-opacity:1"
       transform="scale(1.3333333)" />
    <path
       id="path53"
       d="m 2.9167045,0.22153081 c -0.9257813,0 -1.59375,-0.2578125 -2.02734375,-0.7734375 C 0.46748575,-1.0675317 0.25654825,-1.6769067 0.25654825,-2.4151879 H 1.299517 c 0.046875,0.5039062 0.140625,0.8789062 0.2929687,1.1015625 0.2460938,0.42187496 0.7148438,0.62109371 1.3828125,0.62109371 0.5273438,0 0.9375,-0.12890625 1.2539063,-0.41015621 0.3164062,-0.2695313 0.4804687,-0.6328125 0.4804687,-1.078125 0,-0.5507813 -0.1640625,-0.9257813 -0.5039062,-1.1367188 -0.328125,-0.2226562 -0.7851563,-0.328125 -1.3828125,-0.328125 -0.058594,0 -0.1289063,0 -0.1992188,0 -0.058594,0 -0.1289062,0 -0.2109375,0.011719 V -4.512844 c 0.1054688,0.011719 0.1875,0.023437 0.2578125,0.023437 0.070312,0 0.1523438,0.011719 0.2226563,0.011719 0.375,0 0.6796875,-0.070312 0.9140625,-0.1875 0.421875,-0.1992188 0.6328125,-0.5742188 0.6328125,-1.1015625 0,-0.3984375 -0.1289063,-0.6914063 -0.4101563,-0.9023438 -0.28125,-0.2109375 -0.609375,-0.328125 -0.9726562,-0.328125 -0.6679688,0 -1.125,0.2226563 -1.3828125,0.6679688 -0.1289063,0.234375 -0.2109375,0.5859375 -0.234375,1.03125 H 0.455767 c 0,-0.5859375 0.1171875,-1.0898438 0.3515625,-1.5 0.4101562,-0.7265625 1.125,-1.1015625 2.1328125,-1.1015625 0.8203125,0 1.4414062,0.1757812 1.875,0.5390625 0.4453125,0.3632812 0.65625,0.8789062 0.65625,1.5585937 0,0.4804688 -0.1289063,0.8789063 -0.3867188,1.171875 -0.1640625,0.1992188 -0.3632812,0.3398438 -0.6328125,0.4453125 0.421875,0.1054688 0.75,0.3398438 0.9726563,0.6679688 0.234375,0.3164062 0.3515625,0.7148437 0.3515625,1.1835937 0,0.75 -0.2460938,1.37109376 -0.75,1.85156251 -0.4921875,0.46875 -1.1953125,0.703125 -2.109375,0.7031251 z m 0,0"
       style="fill:#000000;fill-opacity:1;fill-rule:nonzero;stroke:none"
       aria-label="3"
       transform="matrix(1.3333333,0,0,1.3333333,398.07981,205.23197)"
       clip-path="url(#clipPath54)" />
  </g>
</svg>
