<?xml version="1.0" encoding="UTF-8" standalone="no"?>
<!-- Created with Inkscape (http://www.inkscape.org/) -->

<svg
   version="1.1"
   id="svg1"
   width="492"
   height="492"
   viewBox="0 0 492 492"
   sodipodi:docname="1tcgqvpx23p0b.pdf"
   xmlns:inkscape="http://www.inkscape.org/namespaces/inkscape"
   xmlns:sodipodi="http://sodipodi.sourceforge.net/DTD/sodipodi-0.dtd"
   xmlns="http://www.w3.org/2000/svg"
   xmlns:svg="http://www.w3.org/2000/svg">
  <defs
     id="defs1">
    <clipPath
       clipPathUnits="userSpaceOnUse"
       id="clipPath5">
      <path
         d="m 119,123 h 13.961 v 16 H 119 Z"
         transform="translate(-119.39148,-134.2751)"
         id="path5" />
    </clipPath>
    <clipPath
       clipPathUnits="userSpaceOnUse"
       id="clipPath8">
      <path
         d="M 77,30 H 90.961 V 47 H 77 Z"
         transform="translate(-77.500569,-41.80475)"
         id="path8" />
    </clipPath>
    <clipPath
       clipPathUnits="userSpaceOnUse"
       id="clipPath39">
      <path
         d="m 79,357 h 9 v 11.641 h -9 z"
         transform="translate(-79.055259,-369.00098)"
         id="path39" />
    </clipPath>
    <clipPath
       clipPathUnits="userSpaceOnUse"
       id="clipPath51">
      <path
         d="m 263,357 h 10 v 11.641 h -10 z"
         transform="translate(-263.37526,-369.00098)"
         id="path51" />
    </clipPath>
  </defs>
  <sodipodi:namedview
     id="namedview1"
     pagecolor="#ffffff"
     bordercolor="#999999"
     borderopacity="1"
     inkscape:showpageshadow="0"
     inkscape:pageopacity="0"
     inkscape:pagecheckerboard="0"
     inkscape:deskcolor="#d1d1d1">
    <inkscape:page
       x="0"
       y="0"
       id="page1"
       width="492"
       height="492"
       margin="0"
       bleed="0" />
  </sodipodi:namedview>
  <g
     id="g1"
     inkscape:groupmode="layer"
     inkscape:label="">
    <path
       id="path1"
       d="m 83.781,100.539 -1.031,0.852 -1.18,0.652 -1.281,0.422 -1.34,0.168 -1.344,-0.098 -1.3,-0.355 -1.211,-0.594 -1.074,-0.805 -0.907,-0.969 -0.703,-1.082 -0.492,-1.144 -0.27,-1.145 -0.054,-1.078 0.14,-0.965 0.313,-0.796 0.441,-0.586 0.535,-0.344 0.579,-0.086 0.566,0.176 0.512,0.429 0.402,0.664 0.258,0.856 0.078,1.012 -0.129,1.109 -0.348,1.148 -0.562,1.133 -0.777,1.051 -0.969,0.918 -1.125,0.734 -1.246,0.516 -1.321,0.27 -1.351,0.003 -1.324,-0.253 -1.25,-0.504 -1.133,-0.727 -0.977,-0.91 -0.785,-1.047 -0.574,-1.129 -0.356,-1.148 -0.14,-1.114 0.07,-1.015 0.246,-0.867 0.399,-0.672 0.504,-0.442 0.566,-0.187 0.578,0.074 0.539,0.332 0.449,0.574 0.321,0.789 0.148,0.957 -0.043,1.075 -0.262,1.14 -0.48,1.149 -0.695,1.086 -0.895,0.976 -1.066,0.813 -1.207,0.605 -1.297,0.367 -1.344,0.11 -1.34,-0.157 -1.285,-0.406 -1.187,-0.644 -1.04,-0.844 -0.863,-1 -0.66,-1.102 -0.441,-1.148 -0.223,-1.133 -0.012,-1.062 0.184,-0.93 0.344,-0.754 0.468,-0.535 0.547,-0.289 0.582,-0.028 0.559,0.231 0.488,0.484 0.375,0.707 0.219,0.899 0.035,1.035 -0.176,1.125 -0.394,1.148 -0.61,1.118 -0.82,1.027 -1.004,0.883 -1.156,0.691 -1.27,0.461 -1.332,0.211 -1.347,-0.051 -1.313,-0.312 -1.23,-0.555 -1.098,-0.769 -0.937,-0.946 -0.743,-1.066 -0.527,-1.141 -0.309,-1.144 -0.089,-1.098 0.109,-0.988 0.285,-0.828 0.426,-0.622 0.519,-0.39 0.575,-0.129 0.574,0.129 0.523,0.39 0.422,0.622 0.285,0.828 0.11,0.988 -0.09,1.098 -0.309,1.144 -0.527,1.141 -0.742,1.066 -0.934,0.946 -1.101,0.769 -1.231,0.555 -1.312,0.312 -1.348,0.051 -1.332,-0.211 -1.266,-0.461 -1.156,-0.691 -1.004,-0.883 -0.82,-1.027 -0.613,-1.118 -0.395,-1.148 -0.176,-1.125 0.035,-1.035 0.219,-0.899 0.375,-0.707 0.488,-0.484 0.563,-0.231 0.578,0.028 0.547,0.289 0.469,0.535 0.343,0.754 0.184,0.93 -0.012,1.062 -0.222,1.133 -0.442,1.148 -0.66,1.102 -0.863,1 -1.039,0.844 -1.184,0.644 -1.289,0.406 -1.34,0.157 -1.344,-0.11 -1.296,-0.367 -1.204,-0.605 -1.07,-0.813 -0.894,-0.976 -0.696,-1.086 -0.48,-1.149 -0.262,-1.14 -0.043,-1.075 0.149,-0.957 0.32,-0.789 0.449,-0.574 0.539,-0.332 0.578,-0.074 0.567,0.187 0.504,0.442 0.398,0.672 0.25,0.867 0.066,1.015 -0.136,1.114 -0.36,1.148 -0.574,1.129 -0.785,1.047 -0.977,0.91 -1.132,0.727 -1.25,0.504 -1.325,0.253 -1.351,-0.003 -1.32,-0.27 -1.247,-0.516 -1.125,-0.734 L 10.18,100.164 9.406,99.113 8.84,97.98 8.492,96.832 8.367,95.723 l 0.074,-1.012 0.258,-0.856 0.403,-0.664 0.511,-0.429 0.567,-0.176 0.578,0.086 0.535,0.344 0.445,0.586 0.309,0.796 0.144,0.965 -0.058,1.078 -0.27,1.145 -0.488,1.144 -0.707,1.082 -0.906,0.969 -1.074,0.805 -1.211,0.594 -1.301,0.355 -1.344,0.098 -1.34,-0.168 -1.281,-0.422 -1.18,-0.652 L 0,100.539"
       style="fill:none;stroke:#000000;stroke-width:0.9216;stroke-linecap:square;stroke-linejoin:miter;stroke-miterlimit:3.25;stroke-dasharray:none;stroke-opacity:1"
       transform="scale(1.3333333)" />
    <path
       id="path2"
       d="m 9.7624113,-10.581262 c 0.3164067,0.234375 0.5859377,0.5976558 0.8437497,1.0312496 l 0.316407,-1.3828126 h 1.710937 L 10.500693,-0.88985619 C 10.196005,0.50467506 9.7624113,1.6296751 9.1647551,2.4265501 c -1.1015625,1.5 -2.7070313,2.2617187 -4.8398438,2.2617187 -1.1953125,0 -2.1328125,-0.2695312 -2.8242187,-0.796875 C 0.79756756,3.3640501 0.50459881,2.5085813 0.65694256,1.3718626 H 2.5553801 c -0.023437,0.5039062 0.082031,0.890625 0.2929687,1.1601562 0.3164063,0.3984375 0.9492188,0.609375 1.8398438,0.609375 1.4414062,0 2.4726562,-0.5039062 3.1289062,-1.4882812 0.375,-0.5976563 0.7148438,-1.6523437875 1.0078125,-3.1757813 -0.4804687,0.55078126 -1.0078125,0.97265626 -1.5820312,1.25390626 -0.5859375,0.2695312525 -1.3125,0.421875 -2.1796875,0.421875 -1.171875,0 -2.1445313,-0.421875 -2.8710938,-1.27734376 -0.7148437,-0.8554687 -0.8554687,-2.25 -0.4335937,-4.21875 0.3984375,-1.8398437 1.1367187,-3.2929687 2.2734375,-4.3242187 1.125,-1.0429691 2.3203125,-1.5703121 3.5976562,-1.5703121 0.8554688,0 1.5820313,0.210937 2.1328125,0.65625 z m -2.1328125,0.9960933 c -1.3125,0 -2.3320312,0.609375 -3.0703125,1.8398438 -0.3984375,0.65625 -0.7148437,1.5 -0.9257812,2.5546875 -0.2695313,1.2421875 -0.2109375,2.1914062 0.1523437,2.8476562 0.3515625,0.65625 0.9609375,0.9726563 1.828125,0.9726563 1.3359375,0 2.390625,-0.5976563 3.1875,-1.7929688 0.4453125,-0.703125 0.7617188,-1.4765625 0.9609375,-2.390625 0.2929687,-1.3710937 0.2226563,-2.390625 -0.1992187,-3.0351562 -0.421875,-0.65625 -1.078125,-0.9960938 -1.9335938,-0.9960938 z m 0,0"
       style="fill:#000000;fill-opacity:1;fill-rule:nonzero;stroke:none"
       aria-label="g"
       transform="matrix(1.3333333,0,0,1.3333333,47.479545,171.21382)" />
    <path
       id="path3"
       d="m 83.781,100.539 1.035,-0.851 1.176,-0.657 1.281,-0.418 1.34,-0.168 1.344,0.098 1.301,0.352 1.211,0.597 1.078,0.801 0.902,0.969 0.707,1.086 0.489,1.144 0.273,1.141 0.055,1.082 -0.145,0.965 -0.308,0.793 -0.446,0.586 -0.535,0.347 -0.578,0.086 -0.566,-0.176 -0.508,-0.433 -0.407,-0.66 -0.257,-0.86 -0.075,-1.008 0.125,-1.109 0.348,-1.152 0.567,-1.129 0.773,-1.051 0.969,-0.918 1.125,-0.734 1.246,-0.516 1.324,-0.269 1.348,-0.008 1.324,0.258 1.25,0.503 1.133,0.727 0.976,0.91 0.785,1.043 0.575,1.129 0.359,1.149 0.137,1.113 -0.067,1.015 -0.25,0.868 -0.398,0.671 -0.504,0.442 -0.566,0.191 -0.579,-0.074 -0.539,-0.336 -0.449,-0.574 -0.316,-0.785 -0.153,-0.957 0.047,-1.078 0.258,-1.141 0.481,-1.145 0.695,-1.089 0.894,-0.977 1.071,-0.812 1.203,-0.602 1.297,-0.367 1.347,-0.11 1.34,0.153 1.285,0.41 1.184,0.644 1.039,0.84 0.863,1 0.66,1.102 0.442,1.152 0.223,1.133 0.011,1.059 -0.183,0.933 -0.344,0.75 -0.469,0.535 -0.547,0.293 -0.578,0.028 -0.558,-0.235 -0.493,-0.484 -0.375,-0.707 -0.218,-0.895 -0.036,-1.039 0.176,-1.121 0.395,-1.152 0.613,-1.117 0.82,-1.028 1.004,-0.879 1.157,-0.691 1.265,-0.465 1.332,-0.211 1.348,0.055 1.312,0.308 1.231,0.555 1.101,0.774 0.934,0.941 0.742,1.07 0.528,1.137 0.308,1.149 0.09,1.093 -0.109,0.989 -0.286,0.828 -0.421,0.625 -0.524,0.386 -0.574,0.133 -0.57,-0.133 -0.524,-0.386 -0.426,-0.625 -0.285,-0.828 -0.109,-0.989 0.09,-1.093 0.308,-1.149 0.528,-1.137 0.742,-1.07 0.937,-0.941 1.102,-0.774 1.226,-0.555 1.313,-0.308 1.348,-0.055 1.332,0.211 1.269,0.465 1.156,0.691 1.004,0.879 0.821,1.028 0.613,1.117 0.394,1.152 0.172,1.121 -0.031,1.039 -0.223,0.895 -0.375,0.707 -0.488,0.484 -0.558,0.235 -0.583,-0.028 -0.546,-0.293 -0.469,-0.535 -0.344,-0.75 -0.18,-0.933 0.008,-1.059 0.223,-1.133 0.441,-1.152 0.66,-1.102 0.864,-1 1.043,-0.84 1.183,-0.644 1.285,-0.41 1.34,-0.153 1.344,0.11 1.297,0.367 1.207,0.602 1.066,0.812 0.895,0.977 0.695,1.089 0.481,1.145 0.261,1.141 0.043,1.078 -0.148,0.957 -0.32,0.785 -0.45,0.574 -0.539,0.336 -0.574,0.074 -0.566,-0.191 -0.508,-0.442 -0.399,-0.671 -0.246,-0.868 -0.07,-1.015 0.141,-1.113 0.355,-1.149 0.574,-1.129 0.789,-1.043 0.973,-0.91 1.133,-0.727 1.25,-0.503 1.328,-0.258 1.348,0.008 1.32,0.269 1.246,0.516 1.129,0.734 0.965,0.918 0.777,1.051 0.567,1.129 0.343,1.152 0.129,1.109 -0.078,1.008 -0.258,0.86 -0.402,0.66 -0.512,0.433 -0.566,0.176 -0.574,-0.086 -0.536,-0.347 -0.445,-0.586 -0.312,-0.793 -0.141,-0.965 0.055,-1.082 0.269,-1.141 0.492,-1.144 0.704,-1.086 0.906,-0.969 1.074,-0.801 1.211,-0.597 1.301,-0.352 1.347,-0.098 1.336,0.168 1.282,0.418 1.179,0.657 1.031,0.851"
       style="fill:none;stroke:#000000;stroke-width:0.9216;stroke-linecap:square;stroke-linejoin:miter;stroke-miterlimit:3.25;stroke-dasharray:none;stroke-opacity:1"
       transform="scale(1.3333333)" />
    <path
       id="path4"
       d="m 9.7608668,-10.580756 c 0.3164062,0.234375 0.5859372,0.5976562 0.8437502,1.0312499 l 0.316406,-1.3828129 h 1.710938 L 10.499148,-0.88934981 C 10.194461,0.50518144 9.7608668,1.6301814 9.1632105,2.4270564 c -1.1015625,1.5 -2.7070312,2.2617188 -4.8398437,2.2617188 -1.1953125,0 -2.1328125,-0.2695313 -2.8242188,-0.796875 C 0.796023,3.3645564 0.50305425,2.5090877 0.655398,1.3723689 h 1.8984375 c -0.023437,0.5039063 0.082031,0.890625 0.2929688,1.1601563 0.3164062,0.3984375 0.9492187,0.609375 1.8398437,0.609375 1.4414063,0 2.4726563,-0.5039063 3.1289063,-1.4882813 0.375,-0.5976562 0.7148437,-1.65234371 1.0078125,-3.1757812 -0.4804688,0.55078124 -1.0078125,0.97265624 -1.5820313,1.25390624 -0.5859375,0.26953125 -1.3125,0.421875 -2.1796875,0.421875 -1.171875,0 -2.1445312,-0.421875 -2.8710937,-1.27734374 -0.7148438,-0.8554688 -0.8554688,-2.25 -0.4335938,-4.21875 0.3984375,-1.8398438 1.1367188,-3.2929688 2.2734375,-4.3242188 1.125,-1.0429684 2.3203125,-1.5703124 3.5976563,-1.5703124 0.8554687,0 1.5820312,0.210937 2.1328125,0.65625 z m -2.1328125,0.9960937 c -1.3125,0 -2.3320313,0.609375 -3.0703125,1.8398437 -0.3984375,0.65625 -0.7148438,1.5 -0.9257813,2.5546875 -0.2695312,1.2421875 -0.2109375,2.1914063 0.1523438,2.8476563 0.3515625,0.65625 0.9609375,0.9726562 1.828125,0.9726562 1.3359375,0 2.390625,-0.5976562 3.1875,-1.7929687 0.4453125,-0.703125 0.7617187,-1.4765625 0.9609375,-2.390625 C 10.053836,-6.9245061 9.983523,-7.9440373 9.561648,-8.5885686 9.139773,-9.2448186 8.483523,-9.5846623 7.6280543,-9.5846623 Z m 0,0"
       style="fill:#000000;fill-opacity:1;fill-rule:nonzero;stroke:none"
       aria-label="g"
       transform="matrix(1.3333333,0,0,1.3333333,159.18864,179.03346)"
       clip-path="url(#clipPath5)" />
    <path
       id="path6"
       d="m 83.781,100.539 -1.004,0.75 -1.183,0.539 -1.313,0.285 -1.367,0.004 -1.348,-0.281 -1.254,-0.555 -1.089,-0.789 -0.875,-0.972 -0.629,-1.102 -0.367,-1.164 -0.122,-1.168 0.102,-1.121 0.277,-1.039 0.403,-0.926 0.488,-0.785 0.516,-0.629 0.504,-0.465 0.46,-0.289 0.391,-0.105 0.305,0.074 0.207,0.258 0.097,0.429 -0.019,0.582 -0.141,0.707 -0.277,0.801 -0.43,0.844 -0.59,0.84 -0.757,0.785 -0.926,0.668 -1.078,0.492 -1.203,0.273 -1.278,0.012 -1.293,-0.265 -1.238,-0.547 -1.113,-0.805 -0.926,-1.023 -0.684,-1.176 -0.41,-1.266 -0.129,-1.281 0.137,-1.238 0.379,-1.137 0.574,-1 0.711,-0.844 0.797,-0.68 0.824,-0.515 0.797,-0.36 0.723,-0.214 0.613,-0.086 0.477,0.043 0.312,0.16 0.141,0.273 -0.039,0.371 -0.215,0.457 -0.391,0.52 -0.558,0.547 -0.719,0.539 -0.863,0.48 -0.993,0.371 -1.097,0.211 -1.16,0.004 -1.188,-0.238 -1.148,-0.496 -1.059,-0.754 -0.898,-0.992 -0.684,-1.18 -0.43,-1.312 -0.144,-1.364 0.136,-1.34 0.411,-1.246 0.64,-1.093 0.824,-0.903 0.957,-0.687 1.028,-0.473 1.043,-0.277 1.004,-0.106 0.929,0.032 0.809,0.136 0.66,0.211 0.488,0.258 0.293,0.289 0.094,0.301 -0.113,0.305 -0.317,0.296 -0.503,0.274 -0.68,0.223 -0.824,0.152 -0.942,0.047 L 64.305,79 63.25,78.734 l -1.039,-0.472 -0.965,-0.688 -0.832,-0.902 -0.648,-1.098 -0.414,-1.25 -0.145,-1.347 0.145,-1.368 0.421,-1.308 0.68,-1.184 0.891,-0.988 1.051,-0.754 1.144,-0.496 1.176,-0.238 1.156,-0.004 1.086,0.199 0.988,0.355 0.86,0.461 0.715,0.516 0.55,0.527 0.383,0.496 0.203,0.442 0.024,0.355 -0.16,0.262 -0.332,0.152 -0.497,0.043 -0.64,-0.082 -0.746,-0.211 -0.817,-0.355 -0.84,-0.508 -0.812,-0.676 -0.727,-0.843 -0.582,-1.004 -0.386,-1.141 -0.145,-1.246 0.129,-1.289 0.41,-1.27 0.68,-1.183 0.922,-1.024 1.109,-0.808 1.234,-0.551 1.286,-0.27 1.269,0.012 1.195,0.266 1.075,0.484 0.925,0.656 0.758,0.77 0.598,0.824 0.434,0.828 0.281,0.774 0.148,0.687 0.02,0.559 -0.102,0.406 -0.211,0.238 -0.316,0.059 -0.41,-0.121 -0.481,-0.297 -0.527,-0.473 -0.539,-0.636 -0.504,-0.793 -0.422,-0.926 -0.289,-1.047 -0.109,-1.129 0.113,-1.176 0.367,-1.172 0.625,-1.109 0.879,-0.98 1.09,-0.797 1.258,-0.559 1.347,-0.285 h 1.364 l 1.304,0.277 1.176,0.535 1.004,0.743 0.797,0.902 0.578,1.004 0.371,1.047 0.184,1.035 0.023,0.98 -0.098,0.879 -0.183,0.75 -0.242,0.586 -0.282,0.403 -0.3,0.203 h -0.305 l -0.301,-0.203 -0.277,-0.403 -0.246,-0.586 -0.184,-0.75 -0.098,-0.879 0.028,-0.98 0.179,-1.035 0.372,-1.047 0.578,-1.004 0.797,-0.902 1.003,-0.743 1.18,-0.535 1.305,-0.277 h 1.363 l 1.348,0.285 1.254,0.559 1.093,0.797 0.875,0.98 0.625,1.109 0.368,1.172 0.113,1.176 -0.106,1.129 -0.293,1.047 -0.421,0.926 -0.504,0.793 -0.539,0.636 -0.528,0.473 -0.48,0.297 -0.406,0.121 -0.317,-0.059 -0.215,-0.238 -0.101,-0.406 0.019,-0.559 0.149,-0.687 0.285,-0.774 0.433,-0.828 0.594,-0.824 0.758,-0.77 0.926,-0.656 1.074,-0.484 1.195,-0.266 1.27,-0.012 1.289,0.27 1.23,0.551 1.11,0.808 0.922,1.024 0.683,1.183 0.41,1.27 0.125,1.289 -0.144,1.246 -0.387,1.141 -0.582,1.004 -0.726,0.843 -0.809,0.676 -0.844,0.508 -0.816,0.355 -0.746,0.211 -0.637,0.082 -0.496,-0.043 -0.336,-0.152 -0.16,-0.262 0.023,-0.355 0.207,-0.442 0.379,-0.496 0.555,-0.527 0.711,-0.516 0.859,-0.461 0.988,-0.355 1.09,-0.199 1.157,0.004 1.175,0.238 1.141,0.496 1.051,0.754 0.89,0.988 0.68,1.184 0.426,1.308 0.14,1.368 -0.144,1.347 -0.414,1.25 -0.649,1.098 -0.832,0.902 -0.964,0.688 -1.04,0.472 -1.05,0.266 -1.02,0.094 -0.941,-0.047 -0.828,-0.152 -0.676,-0.223 -0.508,-0.274 -0.316,-0.296 -0.114,-0.305 0.094,-0.301 0.293,-0.289 0.488,-0.258 0.661,-0.211 0.812,-0.136 0.926,-0.032 1.008,0.106 1.043,0.277 1.023,0.473 0.957,0.687 0.824,0.903 0.641,1.093 0.41,1.246 0.141,1.34 -0.149,1.364 -0.429,1.312 -0.684,1.18 -0.898,0.992 -1.055,0.754 -1.153,0.496 -1.183,0.238 -1.164,-0.004 -1.098,-0.211 -0.992,-0.371 -0.863,-0.48 -0.715,-0.539 -0.559,-0.547 -0.394,-0.52 -0.215,-0.457 -0.039,-0.371 0.14,-0.273 0.317,-0.16 0.473,-0.043 0.613,0.086 0.726,0.214 0.797,0.36 0.821,0.515 0.796,0.68 0.711,0.844 0.575,1 0.379,1.137 0.14,1.238 -0.129,1.281 -0.414,1.266 -0.683,1.176 -0.922,1.023 -1.118,0.805 -1.238,0.547 -1.293,0.265 -1.277,-0.012 -1.199,-0.273 -1.082,-0.492 -0.926,-0.668 -0.758,-0.785 -0.59,-0.84 -0.426,-0.844 -0.281,-0.801 -0.14,-0.707 -0.016,-0.582 0.098,-0.429 0.203,-0.258 0.304,-0.074 0.391,0.105 0.461,0.289 0.508,0.465 0.515,0.629 0.485,0.785 0.406,0.926 0.277,1.039 0.098,1.121 -0.121,1.168 -0.367,1.164 -0.625,1.102 -0.875,0.972 -1.094,0.789 -1.254,0.555 -1.348,0.281 -1.367,-0.004 -1.308,-0.285 -1.184,-0.539 -1.008,-0.75"
       style="fill:none;stroke:#000000;stroke-width:0.9216;stroke-linecap:square;stroke-linejoin:miter;stroke-miterlimit:3.25;stroke-dasharray:none;stroke-opacity:1"
       transform="scale(1.3333333)" />
    <path
       id="path7"
       d="m 9.7631039,-10.583069 c 0.3164061,0.234375 0.5859371,0.5976559 0.8437501,1.0312497 l 0.316406,-1.3828127 h 1.710938 L 10.501385,-0.89166306 C 10.196698,0.50286819 9.7631039,1.6278682 9.1654476,2.4247432 c -1.1015625,1.5 -2.7070312,2.2617187 -4.8398437,2.2617187 -1.1953125,0 -2.1328125,-0.2695312 -2.8242188,-0.796875 C 0.79826012,3.3622432 0.50529137,2.5067744 0.65763512,1.3700557 H 2.5560726 c -0.023437,0.5039062 0.082031,0.890625 0.2929688,1.1601562 0.3164062,0.3984375 0.9492187,0.609375 1.8398437,0.609375 1.4414063,0 2.4726563,-0.5039062 3.1289063,-1.4882812 0.375,-0.5976563 0.7148437,-1.65234376 1.0078125,-3.1757813 -0.4804688,0.55078129 -1.0078125,0.97265629 -1.5820313,1.25390629 -0.5859375,0.26953125 -1.3125,0.421875 -2.1796875,0.421875 -1.171875,0 -2.1445312,-0.421875 -2.8710937,-1.27734379 -0.7148438,-0.8554687 -0.8554688,-2.25 -0.4335938,-4.21875 0.3984375,-1.8398437 1.1367188,-3.2929687 2.2734375,-4.3242187 1.125,-1.0429692 2.3203125,-1.5703122 3.5976563,-1.5703122 0.8554687,0 1.5820312,0.210937 2.1328125,0.65625 z m -2.1328125,0.9960934 c -1.3125,0 -2.3320313,0.609375 -3.0703125,1.8398438 -0.3984375,0.65625 -0.7148438,1.5 -0.9257813,2.5546875 -0.2695312,1.2421875 -0.2109375,2.1914062 0.1523438,2.8476562 0.3515625,0.65625 0.9609375,0.9726563 1.828125,0.9726563 1.3359375,0 2.390625,-0.5976563 3.1875,-1.7929688 0.4453125,-0.703125 0.7617187,-1.4765625 0.9609375,-2.390625 0.2929691,-1.3710937 0.2226562,-2.390625 -0.1992188,-3.0351562 -0.421875,-0.65625 -1.078125,-0.9960938 -1.9335937,-0.9960938 z m 0,0"
       style="fill:#000000;fill-opacity:1;fill-rule:nonzero;stroke:none"
       aria-label="g"
       transform="matrix(1.3333333,0,0,1.3333333,103.33409,55.739665)"
       clip-path="url(#clipPath8)" />
    <path
       id="path9"
       d="m 87.469,100.539 c 0,0.977 -0.391,1.914 -1.082,2.606 -0.692,0.691 -1.629,1.078 -2.606,1.078 -0.976,0 -1.914,-0.387 -2.605,-1.078 -0.692,-0.692 -1.082,-1.629 -1.082,-2.606 0,-0.98 0.39,-1.918 1.082,-2.609 0.691,-0.692 1.629,-1.078 2.605,-1.078 0.977,0 1.914,0.386 2.606,1.078 0.691,0.691 1.082,1.629 1.082,2.609 z"
       style="fill:#000000;fill-opacity:1;fill-rule:evenodd;stroke:none"
       transform="scale(1.3333333)" />
    <path
       id="path10"
       d="m 1.5931815,-8.3196379 v -1.125 c 1.078125,-0.1054687 1.8164063,-0.28125 2.2382813,-0.515625 0.421875,-0.2343751 0.7382812,-0.8320311 0.9375,-1.7343751 H 5.9525565 V 6.74625e-4 H 4.3705253 V -8.3196379 Z m 0,0"
       style="fill:#000000;fill-opacity:1;fill-rule:nonzero;stroke:none"
       aria-label="1"
       transform="matrix(1.3333333,0,0,1.3333333,105.40701,246.24129)" />
    <path
       id="path11"
       d="m 234.59,100.539 -0.996,0.836 -1.141,0.648 -1.238,0.426 -1.297,0.18 -1.305,-0.074 -1.269,-0.325 -1.184,-0.558 -1.062,-0.762 -0.899,-0.93 -0.711,-1.05 -0.508,-1.118 -0.296,-1.124 -0.082,-1.083 0.109,-0.976 0.281,-0.832 0.418,-0.637 0.52,-0.41 0.574,-0.168 0.582,0.09 0.543,0.336 0.457,0.57 0.328,0.77 0.164,0.937 -0.019,1.055 -0.227,1.121 -0.441,1.125 -0.649,1.074 -0.844,0.973 -1.015,0.82 -1.149,0.625 -1.246,0.402 -1.3,0.153 -1.305,-0.102 -1.262,-0.347 -1.176,-0.582 -1.043,-0.782 -0.882,-0.945 -0.692,-1.059 -0.484,-1.121 -0.274,-1.125 -0.062,-1.07 0.129,-0.969 0.297,-0.808 0.433,-0.614 0.528,-0.386 0.578,-0.141 0.578,0.113 0.535,0.364 0.445,0.589 0.313,0.793 0.148,0.95 -0.043,1.066 -0.25,1.121 -0.465,1.125 -0.668,1.067 -0.863,0.96 -1.027,0.801 -1.164,0.602 -1.254,0.375 -1.305,0.125 -1.301,-0.125 -1.254,-0.375 -1.164,-0.602 -1.027,-0.801 -0.863,-0.96 -0.672,-1.067 -0.461,-1.125 -0.25,-1.121 -0.043,-1.066 0.148,-0.95 0.313,-0.793 0.445,-0.589 0.535,-0.364 0.579,-0.113 0.578,0.141 0.527,0.386 0.434,0.614 0.296,0.808 0.129,0.969 -0.066,1.07 -0.27,1.125 -0.484,1.121 -0.691,1.059 -0.883,0.945 -1.043,0.782 -1.176,0.582 -1.262,0.347 -1.304,0.102 -1.301,-0.153 -1.246,-0.402 -1.153,-0.625 -1.011,-0.82 -0.844,-0.973 -0.648,-1.074 -0.442,-1.125 -0.226,-1.121 -0.024,-1.055 0.168,-0.937 0.328,-0.77 0.457,-0.57 0.539,-0.336 0.582,-0.09 0.575,0.168 0.519,0.41 0.422,0.637 0.281,0.832 0.11,0.976 -0.086,1.083 -0.293,1.124 -0.508,1.118 -0.711,1.05 -0.899,0.93 -1.062,0.762 -1.184,0.558 -1.269,0.325 -1.309,0.074 -1.293,-0.18 -1.242,-0.426 -1.137,-0.648 -0.996,-0.836"
       style="fill:none;stroke:#000000;stroke-width:0.9216;stroke-linecap:square;stroke-linejoin:miter;stroke-miterlimit:3.25;stroke-dasharray:none;stroke-opacity:1"
       transform="scale(1.3333333)" />
    <path
       id="path12"
       d="m 9.7622519,-10.581262 c 0.3164061,0.234375 0.5859371,0.5976558 0.8437501,1.0312496 l 0.316406,-1.3828126 h 1.710938 L 10.500533,-0.88985619 C 10.195846,0.50467506 9.7622519,1.6296751 9.1645956,2.4265501 c -1.1015625,1.5 -2.7070312,2.2617187 -4.8398437,2.2617187 -1.1953125,0 -2.1328125,-0.2695312 -2.8242188,-0.796875 C 0.79740813,3.3640501 0.50443938,2.5085813 0.65678313,1.3718626 H 2.5552206 c -0.023437,0.5039062 0.082031,0.890625 0.2929688,1.1601562 0.3164062,0.3984375 0.9492187,0.609375 1.8398437,0.609375 1.4414063,0 2.4726563,-0.5039062 3.1289063,-1.4882812 0.375,-0.5976563 0.7148437,-1.6523437875 1.0078125,-3.1757813 -0.4804688,0.55078126 -1.0078125,0.97265626 -1.5820313,1.25390626 -0.5859375,0.2695312525 -1.3125,0.421875 -2.1796875,0.421875 -1.171875,0 -2.1445312,-0.421875 -2.8710937,-1.27734376 -0.7148438,-0.8554687 -0.8554688,-2.25 -0.4335938,-4.21875 0.3984375,-1.8398437 1.1367188,-3.2929687 2.2734375,-4.3242187 1.125,-1.0429691 2.3203125,-1.5703121 3.5976563,-1.5703121 0.8554687,0 1.5820312,0.210937 2.1328125,0.65625 z m -2.1328125,0.9960933 c -1.3125,0 -2.3320313,0.609375 -3.0703125,1.8398438 -0.3984375,0.65625 -0.7148438,1.5 -0.9257813,2.5546875 -0.2695312,1.2421875 -0.2109375,2.1914062 0.1523438,2.8476562 0.3515625,0.65625 0.9609375,0.9726563 1.828125,0.9726563 1.3359375,0 2.390625,-0.5976563 3.1875,-1.7929688 0.4453125,-0.703125 0.7617187,-1.4765625 0.9609375,-2.390625 0.2929691,-1.3710937 0.2226562,-2.390625 -0.1992188,-3.0351562 -0.421875,-0.65625 -1.078125,-0.9960938 -1.9335937,-0.9960938 z m 0,0"
       style="fill:#000000;fill-opacity:1;fill-rule:nonzero;stroke:none"
       aria-label="g"
       transform="matrix(1.3333333,0,0,1.3333333,270.89773,171.21382)" />
    <path
       id="path13"
       d="m 301.613,100.539 1,-0.84 1.137,-0.648 1.238,-0.422 1.297,-0.18 1.305,0.074 1.269,0.325 1.188,0.554 1.058,0.766 0.899,0.93 0.715,1.047 0.504,1.117 0.297,1.129 0.085,1.078 -0.113,0.98 -0.281,0.828 -0.418,0.637 -0.52,0.414 -0.574,0.164 -0.582,-0.086 -0.543,-0.336 -0.453,-0.57 -0.332,-0.773 -0.164,-0.938 0.02,-1.055 0.23,-1.117 0.437,-1.125 0.653,-1.078 0.84,-0.973 1.015,-0.82 1.149,-0.625 1.25,-0.398 1.297,-0.153 1.304,0.098 1.262,0.352 1.176,0.578 1.043,0.785 0.883,0.941 0.691,1.063 0.484,1.117 0.274,1.125 0.062,1.074 -0.129,0.965 -0.296,0.812 -0.434,0.614 -0.527,0.386 -0.579,0.141 -0.578,-0.113 -0.535,-0.363 -0.445,-0.59 -0.313,-0.793 -0.148,-0.953 0.043,-1.063 0.25,-1.121 0.465,-1.125 0.668,-1.066 0.863,-0.961 1.031,-0.801 1.16,-0.606 1.254,-0.371 1.305,-0.129 1.301,0.129 1.254,0.371 1.164,0.606 1.027,0.801 0.863,0.961 0.672,1.066 0.461,1.125 0.25,1.121 0.043,1.063 -0.148,0.953 -0.313,0.793 -0.445,0.59 -0.531,0.363 -0.582,0.113 -0.578,-0.141 -0.528,-0.386 -0.43,-0.614 -0.3,-0.812 -0.129,-0.965 0.066,-1.074 0.27,-1.125 0.488,-1.117 0.691,-1.063 0.879,-0.941 1.047,-0.785 1.172,-0.578 1.262,-0.352 1.304,-0.098 1.301,0.153 1.246,0.398 1.153,0.625 1.011,0.82 0.844,0.973 0.649,1.078 0.441,1.125 0.227,1.117 0.023,1.055 -0.168,0.938 -0.328,0.773 -0.457,0.57 -0.539,0.336 -0.582,0.086 -0.574,-0.164 -0.52,-0.414 -0.422,-0.637 -0.281,-0.828 -0.109,-0.98 0.085,-1.078 0.293,-1.129 0.508,-1.117 0.711,-1.047 0.903,-0.93 1.058,-0.766 1.184,-0.554 1.269,-0.325 1.309,-0.074 1.297,0.18 1.238,0.422 1.137,0.648 0.996,0.84"
       style="fill:none;stroke:#000000;stroke-width:0.9216;stroke-linecap:square;stroke-linejoin:miter;stroke-miterlimit:3.25;stroke-dasharray:none;stroke-opacity:1"
       transform="scale(1.3333333)" />
    <path
       id="path14"
       d="m 9.7606746,-10.582015 c 0.3164064,0.234375 0.5859374,0.5976566 0.8437504,1.0312504 l 0.316406,-1.3828124 h 1.710937 L 10.498956,-0.89060837 C 10.194268,0.50392288 9.7606746,1.6289229 9.1630184,2.4257979 c -1.1015625,1.5 -2.7070313,2.2617187 -4.8398438,2.2617187 -1.1953125,0 -2.1328125,-0.2695312 -2.8242187,-0.796875 C 0.79583087,3.3632979 0.50286212,2.5078291 0.65520587,1.3711104 H 2.5536434 c -0.023437,0.5039062 0.082031,0.890625 0.2929687,1.1601562 0.3164063,0.3984375 0.9492188,0.609375 1.8398438,0.609375 1.4414062,0 2.4726562,-0.5039062 3.1289062,-1.4882812 0.375,-0.5976563 0.7148438,-1.652343775 1.0078125,-3.1757813 -0.4804687,0.55078128 -1.0078125,0.97265628 -1.5820312,1.25390628 -0.5859375,0.269531245 -1.3125,0.421875 -2.1796875,0.421875 -1.171875,0 -2.1445313,-0.421875 -2.8710938,-1.27734378 -0.7148437,-0.8554687 -0.8554687,-2.25 -0.4335937,-4.21875 0.3984375,-1.8398437 1.1367187,-3.2929687 2.2734375,-4.3242187 1.125,-1.0429689 2.3203125,-1.5703129 3.5976562,-1.5703129 0.8554688,0 1.5820313,0.210938 2.1328125,0.65625 z m -2.1328125,0.9960941 c -1.3125,0 -2.3320312,0.609375 -3.0703125,1.8398438 -0.3984375,0.65625 -0.7148437,1.5 -0.9257812,2.5546875 -0.2695313,1.2421875 -0.2109375,2.1914062 0.1523437,2.8476562 0.3515625,0.65625 0.9609375,0.9726563 1.828125,0.9726563 1.3359375,0 2.390625,-0.5976563 3.1875,-1.7929688 0.4453125,-0.703125 0.7617188,-1.4765625 0.9609375,-2.390625 0.2929684,-1.3710937 0.2226563,-2.390625 -0.1992187,-3.0351562 -0.421875,-0.65625 -1.078125,-0.9960938 -1.9335938,-0.9960938 z m 0,0"
       style="fill:#000000;fill-opacity:1;fill-rule:nonzero;stroke:none"
       aria-label="g"
       transform="matrix(1.3333333,0,0,1.3333333,427.29045,117.17967)" />
    <path
       id="path15"
       d="m 234.59,100.539 c 2.301,10.223 9.14,18.836 18.574,23.391 9.438,4.558 20.438,4.558 29.875,0 9.434,-4.555 16.273,-13.168 18.574,-23.391"
       style="fill:none;stroke:#000000;stroke-width:0.9216;stroke-linecap:square;stroke-linejoin:miter;stroke-miterlimit:3.25;stroke-dasharray:none;stroke-opacity:1"
       transform="scale(1.3333333)" />
    <path
       id="path16"
       d="m 263.074,127.348 10.055,3.351 v -6.703 z"
       style="fill:#000000;fill-opacity:1;fill-rule:evenodd;stroke:none"
       transform="scale(1.3333333)" />
    <path
       id="path17"
       d="m 5.5544316,-11.027187 -1.5585937,7.3359379 c -0.1289063,0.5507812 -0.1289063,1.0078125 -0.023437,1.3710937 0.1875,0.65625 0.7148437,0.984375 1.6289062,0.984375 1.2773438,0 2.296875,-0.5625 3.0117188,-1.7226562 0.3867187,-0.6210938 0.6796875,-1.4765625 0.9140625,-2.5546875 l 1.1601566,-5.4140629 h 1.851563 L 10.195057,1.57125e-4 H 8.4489629 L 8.8005254,-1.6287491 c -0.328125,0.421875 -0.6914063,0.78515622 -1.1132813,1.07812497 -0.84375,0.57421875 -1.7578125,0.8671875 -2.765625,0.8671875 -1.5820312,0 -2.53125,-0.52734375 -2.8710937,-1.58203127 -0.1875,-0.5742187 -0.1875,-1.3125 0,-2.2617187 l 1.6054687,-7.5000004 z m 0,0"
       style="fill:#000000;fill-opacity:1;fill-rule:nonzero;stroke:none"
       aria-label="u"
       transform="matrix(1.3333333,0,0,1.3333333,349.14878,206.96073)" />
    <path
       id="path18"
       d="m 301.613,100.539 c -2.301,-10.223 -9.14,-18.836 -18.574,-23.394 -9.437,-4.555 -20.437,-4.555 -29.875,0 -9.434,4.558 -16.273,13.171 -18.574,23.394"
       style="fill:none;stroke:#000000;stroke-width:0.9216;stroke-linecap:square;stroke-linejoin:miter;stroke-miterlimit:3.25;stroke-dasharray:none;stroke-opacity:1"
       transform="scale(1.3333333)" />
    <path
       id="path19"
       d="m 273.129,73.727 -10.055,-3.352 v 6.703 z"
       style="fill:#000000;fill-opacity:1;fill-rule:evenodd;stroke:none"
       transform="scale(1.3333333)" />
    <path
       id="path20"
       d="m 5.5544316,-11.026716 -1.5585937,7.3359371 c -0.1289063,0.5507812 -0.1289063,1.0078125 -0.023437,1.3710937 0.1875,0.65625 0.7148437,0.984375 1.6289062,0.984375 1.2773438,0 2.296875,-0.5625 3.0117188,-1.7226562 0.3867187,-0.6210938 0.6796875,-1.4765625 0.9140625,-2.5546875 l 1.1601566,-5.4140621 h 1.851563 L 10.195057,6.273125e-4 H 8.4489629 L 8.8005254,-1.6282789 c -0.328125,0.421875 -0.6914063,0.78515621 -1.1132813,1.07812496 -0.84375,0.57421875 -1.7578125,0.8671875 -2.765625,0.8671875 -1.5820312,0 -2.53125,-0.52734375 -2.8710937,-1.58203126 -0.1875,-0.5742187 -0.1875,-1.3125 0,-2.2617187 l 1.6054687,-7.4999996 z m 0,0"
       style="fill:#000000;fill-opacity:1;fill-rule:nonzero;stroke:none"
       aria-label="u"
       transform="matrix(1.3333333,0,0,1.3333333,349.14878,81.432757)" />
    <path
       id="path21"
       d="m 238.277,100.539 c 0,0.977 -0.39,1.914 -1.082,2.606 -0.691,0.691 -1.629,1.078 -2.605,1.078 -0.977,0 -1.918,-0.387 -2.61,-1.078 -0.687,-0.692 -1.078,-1.629 -1.078,-2.606 0,-0.98 0.391,-1.918 1.078,-2.609 0.692,-0.692 1.633,-1.078 2.61,-1.078 0.976,0 1.914,0.386 2.605,1.078 0.692,0.691 1.082,1.629 1.082,2.609 z"
       style="fill:#000000;fill-opacity:1;fill-rule:evenodd;stroke:none"
       transform="scale(1.3333333)" />
    <path
       id="path22"
       d="m 305.301,100.539 c 0,0.977 -0.387,1.914 -1.078,2.606 -0.692,0.691 -1.629,1.078 -2.61,1.078 -0.976,0 -1.914,-0.387 -2.605,-1.078 -0.692,-0.692 -1.078,-1.629 -1.078,-2.606 0,-0.98 0.386,-1.918 1.078,-2.609 0.691,-0.692 1.629,-1.078 2.605,-1.078 0.981,0 1.918,0.386 2.61,1.078 0.691,0.691 1.078,1.629 1.078,2.609 z"
       style="fill:#000000;fill-opacity:1;fill-rule:evenodd;stroke:none"
       transform="scale(1.3333333)" />
    <path
       id="path23"
       d="M 0.51634556,6.74625e-4 C 0.57493931,-1.0071379 0.77415806,-1.8860441 1.1491581,-2.6360441 1.5124393,-3.3743254 2.2155643,-4.0657316 3.2819706,-4.6751066 l 1.5703125,-0.9257813 c 0.7148437,-0.3984375 1.1953125,-0.75 1.4882812,-1.03125 0.4453125,-0.4570312 0.6679688,-0.984375 0.6679688,-1.5703125 0,-0.6679687 -0.1992188,-1.21875 -0.6210938,-1.6289062 -0.3984375,-0.3984374 -0.9609375,-0.6093754 -1.6289062,-0.6093754 -1.03125,0 -1.7109375,0.386719 -2.0976563,1.1601566 -0.2226562,0.4101563 -0.328125,0.984375 -0.3632812,1.6992188 H 0.80931431 c 0.0117188,-1.0195313 0.19921879,-1.8398438 0.57421879,-2.4960934 0.6328125,-1.125 1.7578125,-1.699219 3.375,-1.699219 1.3476562,0 2.3320312,0.351562 2.953125,1.089844 0.6210937,0.7265621 0.9257812,1.5234371 0.9257812,2.4140621 0,0.9492188 -0.3398437,1.7578125 -0.9960937,2.4257813 -0.3867188,0.3867187 -1.0664063,0.8554687 -2.0390625,1.40625 l -1.1367188,0.6210937 c -0.5273437,0.3046875 -0.9492187,0.5742188 -1.2773437,0.84375 -0.5273438,0.4921875 -0.890625,1.0078125 -1.0195313,1.5820313 h 6.421875 V 6.74625e-4 Z m 0,0"
       style="fill:#000000;fill-opacity:1;fill-rule:nonzero;stroke:none"
       aria-label="2"
       transform="matrix(1.3333333,0,0,1.3333333,351.16701,246.24129)" />
    <path
       id="path24"
       d="m 50.27,284.859 -0.997,0.836 -1.14,0.649 -1.238,0.426 -1.297,0.179 -1.305,-0.074 -1.27,-0.324 -1.183,-0.559 -1.063,-0.762 -0.898,-0.929 -0.711,-1.051 -0.508,-1.117 -0.293,-1.125 -0.086,-1.082 0.11,-0.981 0.281,-0.828 0.418,-0.637 0.519,-0.41 0.575,-0.168 0.582,0.09 0.543,0.336 0.457,0.567 0.328,0.773 0.168,0.937 -0.024,1.055 -0.226,1.117 -0.442,1.129 -0.648,1.074 -0.844,0.973 -1.016,0.82 -1.148,0.625 -1.246,0.403 -1.301,0.152 -1.305,-0.101 -1.261,-0.348 -1.176,-0.582 -1.043,-0.781 -0.883,-0.946 -0.691,-1.058 -0.485,-1.121 -0.273,-1.125 -0.062,-1.071 0.128,-0.968 0.297,-0.809 0.434,-0.613 0.527,-0.387 0.578,-0.141 0.578,0.114 0.536,0.359 0.445,0.594 0.312,0.793 0.149,0.949 -0.043,1.066 -0.25,1.121 -0.461,1.122 -0.672,1.07 -0.863,0.957 -1.028,0.805 -1.164,0.601 -1.253,0.375 -1.305,0.125 -1.301,-0.125 -1.254,-0.375 -1.164,-0.601 -1.027,-0.805 -0.864,-0.957 -0.671,-1.07 -0.461,-1.122 -0.25,-1.121 -0.043,-1.066 0.148,-0.949 0.313,-0.793 0.445,-0.594 0.535,-0.359 0.578,-0.114 0.578,0.141 0.528,0.387 0.433,0.613 0.297,0.809 0.129,0.968 -0.066,1.071 -0.27,1.125 -0.484,1.121 -0.692,1.058 -0.882,0.946 -1.043,0.781 -1.176,0.582 -1.262,0.348 -1.305,0.101 -1.3,-0.152 -1.247,-0.403 -1.152,-0.625 -1.012,-0.82 -0.843,-0.973 -0.649,-1.074 -0.441,-1.129 -0.227,-1.117 -0.023,-1.055 0.168,-0.937 0.328,-0.773 0.457,-0.567 0.543,-0.336 0.578,-0.09 0.578,0.168 0.516,0.41 0.422,0.637 0.281,0.828 0.109,0.981 -0.086,1.082 -0.293,1.125 -0.507,1.117 -0.711,1.051 -0.899,0.929 -1.062,0.762 -1.184,0.559 -1.269,0.324 -1.305,0.074 L 3.375,286.77 2.133,286.344 0.996,285.695 0,284.859"
       style="fill:none;stroke:#000000;stroke-width:0.9216;stroke-linecap:square;stroke-linejoin:miter;stroke-miterlimit:3.25;stroke-dasharray:none;stroke-opacity:1"
       transform="scale(1.3333333)" />
    <path
       id="path25"
       d="m 9.7609628,-10.582903 c 0.3164062,0.234375 0.5859372,0.5976562 0.8437502,1.0312499 l 0.316406,-1.3828129 h 1.710938 L 10.499244,-0.89149681 C 10.194557,0.50303444 9.7609628,1.6280344 9.1633066,2.4249094 c -1.1015625,1.5 -2.7070313,2.2617188 -4.8398438,2.2617188 -1.1953125,0 -2.1328125,-0.2695313 -2.8242187,-0.796875 C 0.79611906,3.3624094 0.50315031,2.5069407 0.65549406,1.3702219 H 2.5539316 c -0.023437,0.5039063 0.082031,0.890625 0.2929687,1.1601563 0.3164063,0.3984375 0.9492188,0.609375 1.8398438,0.609375 1.4414062,0 2.4726562,-0.5039063 3.1289062,-1.4882813 0.375,-0.5976562 0.7148438,-1.6523437125 1.0078125,-3.1757812 -0.4804687,0.55078124 -1.0078125,0.97265624 -1.5820312,1.25390624 -0.5859375,0.2695312475 -1.3125,0.421875 -2.1796875,0.421875 -1.171875,0 -2.1445313,-0.421875 -2.8710938,-1.27734374 -0.7148437,-0.8554688 -0.8554687,-2.25 -0.4335937,-4.21875 0.3984375,-1.8398438 1.1367187,-3.2929688 2.2734375,-4.3242188 1.125,-1.0429684 2.3203125,-1.5703124 3.5976562,-1.5703124 0.8554688,0 1.5820313,0.210937 2.1328125,0.65625 z m -2.1328125,0.9960937 c -1.3125,0 -2.3320312,0.609375 -3.0703125,1.8398437 -0.3984375,0.65625 -0.7148437,1.5 -0.9257812,2.5546875 -0.2695313,1.2421875 -0.2109375,2.1914063 0.1523437,2.8476563 0.3515625,0.65625 0.9609375,0.9726562 1.828125,0.9726562 1.3359375,0 2.390625,-0.5976562 3.1875,-1.7929687 0.4453125,-0.703125 0.7617188,-1.4765625 0.9609375,-2.390625 0.2929692,-1.3710938 0.2226563,-2.390625 -0.1992187,-3.0351563 -0.421875,-0.65625 -1.078125,-0.9960937 -1.9335938,-0.9960937 z m 0,0"
       style="fill:#000000;fill-opacity:1;fill-rule:nonzero;stroke:none"
       aria-label="g"
       transform="matrix(1.3333333,0,0,1.3333333,25.137727,416.97382)" />
    <path
       id="path26"
       d="m 117.293,284.859 1,-0.839 1.137,-0.649 1.238,-0.422 1.297,-0.179 1.305,0.074 1.269,0.324 1.188,0.555 1.058,0.765 0.899,0.93 0.714,1.047 0.504,1.117 0.297,1.129 0.086,1.078 -0.113,0.981 -0.281,0.828 -0.418,0.636 -0.52,0.414 -0.574,0.164 -0.582,-0.085 -0.543,-0.336 -0.453,-0.571 -0.332,-0.773 -0.164,-0.938 0.019,-1.054 0.231,-1.117 0.437,-1.126 0.653,-1.078 0.843,-0.972 1.012,-0.821 1.148,-0.625 1.25,-0.398 1.297,-0.156 1.305,0.101 1.262,0.352 1.176,0.578 1.046,0.781 0.879,0.946 0.692,1.058 0.484,1.121 0.273,1.125 0.063,1.074 -0.129,0.965 -0.297,0.809 -0.433,0.617 -0.528,0.387 -0.574,0.14 -0.582,-0.113 -0.535,-0.363 -0.445,-0.594 -0.313,-0.789 -0.148,-0.953 0.043,-1.063 0.25,-1.125 0.464,-1.121 0.668,-1.07 0.864,-0.957 1.031,-0.801 1.16,-0.605 1.254,-0.371 1.305,-0.129 1.3,0.129 1.258,0.371 1.16,0.605 1.032,0.801 0.859,0.957 0.672,1.07 0.461,1.121 0.25,1.125 0.043,1.063 -0.149,0.953 -0.312,0.789 -0.445,0.594 -0.532,0.363 -0.582,0.113 -0.578,-0.14 -0.527,-0.387 -0.43,-0.617 -0.301,-0.809 -0.129,-0.965 0.067,-1.074 0.269,-1.125 0.489,-1.121 0.691,-1.058 0.879,-0.946 1.047,-0.781 1.172,-0.578 1.261,-0.352 1.305,-0.101 1.301,0.156 1.246,0.398 1.152,0.625 1.012,0.821 0.844,0.972 0.648,1.078 0.442,1.126 0.226,1.117 0.024,1.054 -0.168,0.938 -0.328,0.773 -0.457,0.571 -0.54,0.336 -0.582,0.085 -0.574,-0.164 -0.519,-0.414 -0.422,-0.636 -0.281,-0.828 -0.11,-0.981 0.086,-1.078 0.293,-1.129 0.508,-1.117 0.711,-1.047 0.902,-0.93 1.059,-0.765 1.187,-0.555 1.266,-0.324 1.309,-0.074 1.296,0.179 1.239,0.422 1.136,0.649 0.996,0.839"
       style="fill:none;stroke:#000000;stroke-width:0.9216;stroke-linecap:square;stroke-linejoin:miter;stroke-miterlimit:3.25;stroke-dasharray:none;stroke-opacity:1"
       transform="scale(1.3333333)" />
    <path
       id="path27"
       d="m 9.7623153,-10.580726 c 0.3164067,0.234375 0.5859377,0.5976567 0.8437497,1.0312504 l 0.316407,-1.3828124 h 1.710937 L 10.500597,-0.88931931 C 10.195909,0.50521194 9.7623153,1.6302119 9.164659,2.4270869 c -1.1015625,1.5 -2.7070312,2.2617188 -4.8398437,2.2617188 -1.1953125,0 -2.1328125,-0.2695313 -2.8242188,-0.796875 C 0.7974715,3.3645869 0.50450275,2.5091182 0.6568465,1.3723994 H 2.555284 c -0.023437,0.5039063 0.082031,0.890625 0.2929688,1.1601563 0.3164062,0.3984375 0.9492187,0.609375 1.8398437,0.609375 1.4414063,0 2.4726563,-0.5039063 3.1289063,-1.4882813 0.375,-0.5976562 0.7148437,-1.65234371 1.0078125,-3.1757812 -0.4804688,0.55078124 -1.0078125,0.97265624 -1.5820313,1.25390624 -0.5859375,0.26953125 -1.3125,0.421875 -2.1796875,0.421875 -1.171875,0 -2.1445312,-0.421875 -2.8710937,-1.27734374 -0.7148438,-0.8554688 -0.8554688,-2.25 -0.4335938,-4.21875 0.3984375,-1.8398438 1.1367188,-3.2929688 2.2734375,-4.3242188 1.125,-1.0429689 2.3203125,-1.5703129 3.5976563,-1.5703129 0.8554687,0 1.5820312,0.210938 2.1328125,0.65625 z m -2.1328125,0.9960942 c -1.3125,0 -2.3320313,0.609375 -3.0703125,1.8398437 -0.3984375,0.65625 -0.7148438,1.5 -0.9257813,2.5546875 -0.2695312,1.2421875 -0.2109375,2.1914063 0.1523438,2.8476563 0.3515625,0.65625 0.9609375,0.9726562 1.828125,0.9726562 1.3359375,0 2.390625,-0.5976562 3.1875,-1.7929687 0.4453125,-0.703125 0.7617187,-1.4765625 0.9609375,-2.390625 0.2929687,-1.3710938 0.2226562,-2.390625 -0.1992188,-3.0351563 -0.421875,-0.65625 -1.078125,-0.9960937 -1.9335937,-0.9960937 z m 0,0"
       style="fill:#000000;fill-opacity:1;fill-rule:nonzero;stroke:none"
       aria-label="g"
       transform="matrix(1.3333333,0,0,1.3333333,181.53045,362.93967)" />
    <path
       id="path28"
       d="m 50.27,284.859 c 2.3,10.223 9.14,18.836 18.578,23.391 9.433,4.559 20.433,4.559 29.871,0 9.433,-4.555 16.277,-13.168 18.574,-23.391"
       style="fill:none;stroke:#000000;stroke-width:0.9216;stroke-linecap:butt;stroke-linejoin:miter;stroke-miterlimit:3.25;stroke-dasharray:0.9216, 5.5296;stroke-dashoffset:0;stroke-opacity:1"
       transform="scale(1.3333333)" />
    <path
       id="path29"
       d="m 78.754,311.668 10.055,3.352 v -6.704 z"
       style="fill:#000000;fill-opacity:1;fill-rule:evenodd;stroke:none"
       transform="scale(1.3333333)" />
    <path
       id="path30"
       d="m 5.5544322,-11.027851 -1.5585937,7.3359376 c -0.1289063,0.5507812 -0.1289063,1.0078125 -0.023437,1.3710937 0.1875,0.65625 0.7148437,0.984375 1.6289062,0.984375 1.2773438,0 2.296875,-0.5625 3.0117188,-1.7226562 0.3867187,-0.6210938 0.6796875,-1.4765625 0.9140625,-2.5546875 l 1.160157,-5.4140626 h 1.851561 L 10.195057,-5.071875e-4 H 8.4489635 L 8.800526,-1.6294134 c -0.328125,0.421875 -0.6914063,0.78515621 -1.1132813,1.07812496 -0.84375,0.57421875 -1.7578125,0.8671875 -2.765625,0.8671875 -1.5820312,0 -2.53125,-0.52734375 -2.8710937,-1.58203126 -0.1875,-0.5742187 -0.1875,-1.3125 0,-2.2617187 l 1.6054687,-7.5000001 z m 0,0"
       style="fill:#000000;fill-opacity:1;fill-rule:nonzero;stroke:none"
       aria-label="u"
       transform="matrix(1.3333333,0,0,1.3333333,97.703465,442.09052)" />
    <path
       id="path31"
       d="m 6.878651,-7.4536323 c 0.2226562,0.1640625 0.4101562,0.4101562 0.5976562,0.7265625 l 0.2226563,-0.984375 H 8.894276 l -1.5,7.08984374 C 7.1833385,0.35105519 6.878651,1.1479302 6.456776,1.7104302 c -0.7734375,1.0546875 -1.8984375,1.59375 -3.4101563,1.59375 -0.84375,0 -1.5,-0.1992188 -1.9921875,-0.5625 C 0.56224475,2.3666802 0.35130725,1.7690239 0.456776,0.97214894 H 1.8044322 C 1.7809947,1.3237114 1.863026,1.5932427 2.003651,1.7807427 c 0.234375,0.2929687 0.6796875,0.4335937 1.3007812,0.4335937 1.0078125,0 1.7460938,-0.3515625 2.203125,-1.0546875 0.2695313,-0.41015621 0.5039063,-1.1601562125 0.7148438,-2.2265625 -0.3398438,0.38671879 -0.7148438,0.67968754 -1.1132813,0.86718754 -0.421875,0.1992187475 -0.9257812,0.3046875 -1.5351562,0.3046875 -0.8320313,0 -1.5234375,-0.3046875 -2.0273438,-0.890625 C 1.0427135,-1.3950386 0.93724475,-2.3794136 1.2302135,-3.7622261 1.5231822,-5.0630073 2.0388072,-6.0825386 2.847401,-6.8208198 c 0.7851562,-0.7265625 1.6289062,-1.1015625 2.5195312,-1.1015625 0.6210938,0 1.125,0.1523437 1.5117188,0.46875 z m -1.5117188,0.6914062 c -0.9140625,0 -1.6289062,0.4335938 -2.15625,1.3007813 -0.28125,0.4570312 -0.5039062,1.0546875 -0.65625,1.8046875 -0.1875,0.8789062 -0.140625,1.546875 0.1054688,2.0039062 0.2578125,0.4570313 0.6914062,0.67968754 1.3007812,0.67968754 0.9375,0 1.6757813,-0.41015624 2.25,-1.26562504 0.3046875,-0.4804687 0.5273438,-1.03125 0.6679688,-1.6757812 0.2109375,-0.9726563 0.1640625,-1.6875 -0.140625,-2.1445313 -0.2929688,-0.4570312 -0.75,-0.703125 -1.3710938,-0.703125 z m 0,0"
       style="fill:#000000;fill-opacity:1;fill-rule:nonzero;stroke:none"
       aria-label="g"
       transform="matrix(1.3333333,0,0,1.3333333,113.26597,447.31708)" />
    <path
       id="path32"
       d="m 117.293,284.859 c -2.297,-10.222 -9.141,-18.839 -18.574,-23.394 -9.438,-4.555 -20.438,-4.555 -29.871,0 -9.438,4.555 -16.278,13.172 -18.578,23.394"
       style="fill:none;stroke:#000000;stroke-width:0.9216;stroke-linecap:butt;stroke-linejoin:miter;stroke-miterlimit:3.25;stroke-dasharray:0.9216, 5.5296;stroke-dashoffset:0;stroke-opacity:1"
       transform="scale(1.3333333)" />
    <path
       id="path33"
       d="m 88.809,258.047 -10.055,-3.352 v 6.703 z"
       style="fill:#000000;fill-opacity:1;fill-rule:evenodd;stroke:none"
       transform="scale(1.3333333)" />
    <path
       id="path34"
       d="m 5.5544322,-11.02738 -1.5585937,7.3359379 c -0.1289063,0.5507812 -0.1289063,1.0078125 -0.023437,1.3710937 0.1875,0.65625 0.7148437,0.984375 1.6289062,0.984375 1.2773438,0 2.296875,-0.5625 3.0117188,-1.7226562 0.3867187,-0.6210938 0.6796875,-1.4765625 0.9140625,-2.5546875 l 1.160156,-5.4140629 h 1.851562 L 10.195057,-3.5875e-5 H 8.4489635 L 8.800526,-1.6289421 c -0.328125,0.421875 -0.6914063,0.78515623 -1.1132813,1.07812498 -0.84375,0.57421875 -1.7578125,0.8671875 -2.765625,0.8671875 -1.5820312,0 -2.53125,-0.52734375 -2.8710937,-1.58203128 -0.1875,-0.5742187 -0.1875,-1.3125 0,-2.2617187 L 3.6559947,-11.02738 Z m 0,0"
       style="fill:#000000;fill-opacity:1;fill-rule:nonzero;stroke:none"
       aria-label="u"
       transform="matrix(1.3333333,0,0,1.3333333,97.703465,322.52349)" />
    <path
       id="path35"
       d="m 6.878651,-7.453161 c 0.2226562,0.1640625 0.4101562,0.4101563 0.5976562,0.7265625 l 0.2226563,-0.984375 H 8.894276 l -1.5,7.08984375 C 7.1833385,0.3515265 6.878651,1.1484015 6.456776,1.7109015 c -0.7734375,1.0546875 -1.8984375,1.59375 -3.4101563,1.59375 -0.84375,0 -1.5,-0.1992187 -1.9921875,-0.5625 C 0.56224475,2.3671515 0.35130725,1.7694953 0.456776,0.97262025 H 1.8044322 C 1.7809947,1.3241828 1.863026,1.593714 2.003651,1.781214 c 0.234375,0.2929688 0.6796875,0.4335938 1.3007812,0.4335938 1.0078125,0 1.7460938,-0.3515625 2.203125,-1.0546875 C 5.7770885,0.749964 6.0114635,-3.6e-5 6.222401,-1.0664422 5.8825572,-0.6797235 5.5075572,-0.38675475 5.1091197,-0.19925475 4.6872447,-3.6e-5 4.1833385,0.10543275 3.5739635,0.10543275 c -0.8320313,0 -1.5234375,-0.3046875 -2.0273438,-0.890625 C 1.0427135,-1.3945672 0.93724475,-2.3789422 1.2302135,-3.7617547 1.5231822,-5.062536 2.0388072,-6.0820672 2.847401,-6.8203485 3.6325572,-7.546911 4.4763072,-7.921911 5.3669322,-7.921911 c 0.6210938,0 1.125,0.1523438 1.5117188,0.46875 z m -1.5117188,0.6914063 c -0.9140625,0 -1.6289062,0.4335937 -2.15625,1.3007812 -0.28125,0.4570313 -0.5039062,1.0546875 -0.65625,1.8046875 -0.1875,0.8789063 -0.140625,1.546875 0.1054688,2.0039063 0.2578125,0.4570312 0.6914062,0.67968745 1.3007812,0.67968745 0.9375,0 1.6757813,-0.41015625 2.25,-1.26562495 0.3046875,-0.4804688 0.5273438,-1.03125 0.6679688,-1.6757813 0.2109375,-0.9726562 0.1640625,-1.6875 -0.140625,-2.1445312 -0.2929688,-0.4570313 -0.75,-0.703125 -1.3710938,-0.703125 z m 0,0"
       style="fill:#000000;fill-opacity:1;fill-rule:nonzero;stroke:none"
       aria-label="g"
       transform="matrix(1.3333333,0,0,1.3333333,113.26597,327.75005)" />
    <path
       id="path36"
       d="m 53.957,284.859 c 0,0.977 -0.391,1.914 -1.082,2.606 -0.691,0.691 -1.629,1.078 -2.605,1.078 -0.977,0 -1.915,-0.387 -2.606,-1.078 -0.691,-0.692 -1.082,-1.629 -1.082,-2.606 0,-0.98 0.391,-1.918 1.082,-2.609 0.691,-0.691 1.629,-1.078 2.606,-1.078 0.976,0 1.914,0.387 2.605,1.078 0.691,0.691 1.082,1.629 1.082,2.609 z"
       style="fill:#000000;fill-opacity:1;fill-rule:evenodd;stroke:none"
       transform="scale(1.3333333)" />
    <path
       id="path37"
       d="m 120.98,284.859 c 0,0.977 -0.386,1.914 -1.078,2.606 -0.691,0.691 -1.629,1.078 -2.609,1.078 -0.977,0 -1.914,-0.387 -2.605,-1.078 -0.692,-0.692 -1.079,-1.629 -1.079,-2.606 0,-0.98 0.387,-1.918 1.079,-2.609 0.691,-0.691 1.628,-1.078 2.605,-1.078 0.98,0 1.918,0.387 2.609,1.078 0.692,0.691 1.078,1.629 1.078,2.609 z"
       style="fill:#000000;fill-opacity:1;fill-rule:evenodd;stroke:none"
       transform="scale(1.3333333)" />
    <path
       id="path38"
       d="m 4.3470878,0.33887775 c -1.3710938,0 -2.3789063,-0.38671875 -3.0234375,-1.16015625 -0.6210938,-0.7617188 -0.93750005,-1.6875 -0.93750005,-2.7773438 H 1.9330253 c 0.070313,0.7617188 0.2226562,1.3125 0.4335937,1.6523438 0.375,0.6210937 1.078125,0.9257812 2.0742188,0.9257812 0.7734375,0 1.3945312,-0.2109375 1.8632812,-0.6328125 0.46875,-0.3984375 0.703125,-0.9375 0.703125,-1.59375 0,-0.8203125 -0.234375,-1.3710937 -0.7382812,-1.6992187 -0.4921875,-0.328125 -1.171875,-0.4804688 -2.0625,-0.4804688 -0.09375,0 -0.1875,0 -0.2929688,0 -0.09375,0 -0.1992187,0 -0.3164062,0.011719 v -1.3125 c 0.1523437,0.023437 0.28125,0.035156 0.3867187,0.035156 0.09375,0 0.2226563,0.023437 0.3398438,0.023437 0.5507812,0 1.0078125,-0.1054687 1.359375,-0.2695312 0.6210937,-0.3046875 0.9375,-0.8554688 0.9375,-1.6523438 0,-0.5859375 -0.1992188,-1.0195312 -0.6210938,-1.3359375 -0.421875,-0.3281242 -0.9023437,-0.4921882 -1.4414062,-0.4921882 -0.9960938,0 -1.6875,0.339844 -2.0507813,0.9960945 C 2.2963065,-9.071279 2.179119,-8.555654 2.1556815,-7.8876853 H 0.69083775 c 0,-0.8671875 0.1640625,-1.6289062 0.51562505,-2.2265627 0.609375,-1.089844 1.6640625,-1.652344 3.1757812,-1.652344 1.21875,0 2.1328125,0.269531 2.7890625,0.808594 0.65625,0.539062 0.9726563,1.3125002 0.9726563,2.3203127 0,0.7265625 -0.1757813,1.3125 -0.5625,1.7460938 -0.2578125,0.28125 -0.5625,0.5039062 -0.9492188,0.65625 0.6210938,0.1640625 1.1132813,0.5039062 1.453125,0.9960937 0.3515625,0.4804688 0.515625,1.0664063 0.515625,1.7578125 0,1.125 -0.3632812,2.0507813 -1.1015625,2.7539063 -0.75,0.71484375 -1.78125,1.06640625 -3.1523437,1.06640675 z m 0,0"
       style="fill:#000000;fill-opacity:1;fill-rule:nonzero;stroke:none"
       aria-label="3"
       transform="matrix(1.3333333,0,0,1.3333333,105.40701,492.00129)"
       clip-path="url(#clipPath39)" />
    <path
       id="path40"
       d="m 234.59,284.859 -0.996,0.836 -1.141,0.649 -1.238,0.426 -1.297,0.179 -1.305,-0.074 -1.269,-0.324 -1.184,-0.559 -1.062,-0.762 -0.899,-0.929 -0.711,-1.051 -0.508,-1.117 -0.296,-1.125 -0.082,-1.082 0.109,-0.981 0.281,-0.828 0.418,-0.637 0.52,-0.41 0.574,-0.168 0.582,0.09 0.543,0.336 0.457,0.567 0.328,0.773 0.164,0.937 -0.019,1.055 -0.227,1.117 -0.441,1.129 -0.649,1.074 -0.844,0.973 -1.015,0.82 -1.149,0.625 -1.246,0.403 -1.3,0.152 -1.305,-0.101 -1.262,-0.348 -1.176,-0.582 -1.043,-0.781 -0.882,-0.946 -0.692,-1.058 -0.484,-1.121 -0.274,-1.125 -0.062,-1.071 0.129,-0.968 0.297,-0.809 0.433,-0.613 0.528,-0.387 0.578,-0.141 0.578,0.114 0.535,0.359 0.445,0.594 0.313,0.793 0.148,0.949 -0.043,1.066 -0.25,1.121 -0.465,1.122 -0.668,1.07 -0.863,0.957 -1.027,0.805 -1.164,0.601 -1.254,0.375 -1.305,0.125 -1.301,-0.125 -1.254,-0.375 -1.164,-0.601 -1.027,-0.805 -0.863,-0.957 -0.672,-1.07 -0.461,-1.122 -0.25,-1.121 -0.043,-1.066 0.148,-0.949 0.313,-0.793 0.445,-0.594 0.535,-0.359 0.579,-0.114 0.578,0.141 0.527,0.387 0.434,0.613 0.296,0.809 0.129,0.968 -0.066,1.071 -0.27,1.125 -0.484,1.121 -0.691,1.058 -0.883,0.946 -1.043,0.781 -1.176,0.582 -1.262,0.348 -1.304,0.101 -1.301,-0.152 -1.246,-0.403 -1.153,-0.625 -1.011,-0.82 -0.844,-0.973 -0.648,-1.074 -0.442,-1.129 -0.226,-1.117 -0.024,-1.055 0.168,-0.937 0.328,-0.773 0.457,-0.567 0.539,-0.336 0.582,-0.09 0.575,0.168 0.519,0.41 0.422,0.637 0.281,0.828 0.11,0.981 -0.086,1.082 -0.293,1.125 -0.508,1.117 -0.711,1.051 -0.899,0.929 -1.062,0.762 -1.184,0.559 -1.269,0.324 -1.309,0.074 -1.293,-0.179 -1.242,-0.426 -1.137,-0.649 -0.996,-0.836"
       style="fill:none;stroke:#000000;stroke-width:0.9216;stroke-linecap:square;stroke-linejoin:miter;stroke-miterlimit:3.25;stroke-dasharray:none;stroke-opacity:1"
       transform="scale(1.3333333)" />
    <path
       id="path41"
       d="m 9.7622519,-10.582903 c 0.3164061,0.234375 0.5859371,0.5976562 0.8437501,1.0312499 l 0.316406,-1.3828129 h 1.710938 L 10.500533,-0.89149681 C 10.195846,0.50303444 9.7622519,1.6280344 9.1645956,2.4249094 c -1.1015625,1.5 -2.7070312,2.2617188 -4.8398437,2.2617188 -1.1953125,0 -2.1328125,-0.2695313 -2.8242188,-0.796875 C 0.79740813,3.3624094 0.50443938,2.5069407 0.65678313,1.3702219 H 2.5552206 c -0.023437,0.5039063 0.082031,0.890625 0.2929688,1.1601563 0.3164062,0.3984375 0.9492187,0.609375 1.8398437,0.609375 1.4414063,0 2.4726563,-0.5039063 3.1289063,-1.4882813 0.375,-0.5976562 0.7148437,-1.6523437125 1.0078125,-3.1757812 -0.4804688,0.55078124 -1.0078125,0.97265624 -1.5820313,1.25390624 -0.5859375,0.2695312475 -1.3125,0.421875 -2.1796875,0.421875 -1.171875,0 -2.1445312,-0.421875 -2.8710937,-1.27734374 -0.7148438,-0.8554688 -0.8554688,-2.25 -0.4335938,-4.21875 0.3984375,-1.8398438 1.1367188,-3.2929688 2.2734375,-4.3242188 1.125,-1.0429684 2.3203125,-1.5703124 3.5976563,-1.5703124 0.8554687,0 1.5820312,0.210937 2.1328125,0.65625 z m -2.1328125,0.9960937 c -1.3125,0 -2.3320313,0.609375 -3.0703125,1.8398437 -0.3984375,0.65625 -0.7148438,1.5 -0.9257813,2.5546875 -0.2695312,1.2421875 -0.2109375,2.1914063 0.1523438,2.8476563 0.3515625,0.65625 0.9609375,0.9726562 1.828125,0.9726562 1.3359375,0 2.390625,-0.5976562 3.1875,-1.7929687 0.4453125,-0.703125 0.7617187,-1.4765625 0.9609375,-2.390625 0.2929691,-1.3710938 0.2226562,-2.390625 -0.1992188,-3.0351563 -0.421875,-0.65625 -1.078125,-0.9960937 -1.9335937,-0.9960937 z m 0,0"
       style="fill:#000000;fill-opacity:1;fill-rule:nonzero;stroke:none"
       aria-label="g"
       transform="matrix(1.3333333,0,0,1.3333333,270.89773,416.97382)" />
    <path
       id="path42"
       d="m 301.613,284.859 1,-0.839 1.137,-0.649 1.238,-0.422 1.297,-0.179 1.305,0.074 1.269,0.324 1.188,0.555 1.058,0.765 0.899,0.93 0.715,1.047 0.504,1.117 0.297,1.129 0.085,1.078 -0.113,0.981 -0.281,0.828 -0.418,0.636 -0.52,0.414 -0.574,0.164 -0.582,-0.085 -0.543,-0.336 -0.453,-0.571 -0.332,-0.773 -0.164,-0.938 0.02,-1.054 0.23,-1.117 0.437,-1.126 0.653,-1.078 0.84,-0.972 1.015,-0.821 1.149,-0.625 1.25,-0.398 1.297,-0.156 1.304,0.101 1.262,0.352 1.176,0.578 1.043,0.781 0.883,0.946 0.691,1.058 0.484,1.121 0.274,1.125 0.062,1.074 -0.129,0.965 -0.296,0.809 -0.434,0.617 -0.527,0.387 -0.579,0.14 -0.578,-0.113 -0.535,-0.363 -0.445,-0.594 -0.313,-0.789 -0.148,-0.953 0.043,-1.063 0.25,-1.125 0.465,-1.121 0.668,-1.07 0.863,-0.957 1.031,-0.801 1.16,-0.605 1.254,-0.371 1.305,-0.129 1.301,0.129 1.254,0.371 1.164,0.605 1.027,0.801 0.863,0.957 0.672,1.07 0.461,1.121 0.25,1.125 0.043,1.063 -0.148,0.953 -0.313,0.789 -0.445,0.594 -0.531,0.363 -0.582,0.113 -0.578,-0.14 -0.528,-0.387 -0.43,-0.617 -0.3,-0.809 -0.129,-0.965 0.066,-1.074 0.27,-1.125 0.488,-1.121 0.691,-1.058 0.879,-0.946 1.047,-0.781 1.172,-0.578 1.262,-0.352 1.304,-0.101 1.301,0.156 1.246,0.398 1.153,0.625 1.011,0.821 0.844,0.972 0.649,1.078 0.441,1.126 0.227,1.117 0.023,1.054 -0.168,0.938 -0.328,0.773 -0.457,0.571 -0.539,0.336 -0.582,0.085 -0.574,-0.164 -0.52,-0.414 -0.422,-0.636 -0.281,-0.828 -0.109,-0.981 0.085,-1.078 0.293,-1.129 0.508,-1.117 0.711,-1.047 0.903,-0.93 1.058,-0.765 1.184,-0.555 1.269,-0.324 1.309,-0.074 1.297,0.179 1.238,0.422 1.137,0.649 0.996,0.839"
       style="fill:none;stroke:#000000;stroke-width:0.9216;stroke-linecap:square;stroke-linejoin:miter;stroke-miterlimit:3.25;stroke-dasharray:none;stroke-opacity:1"
       transform="scale(1.3333333)" />
    <path
       id="path43"
       d="m 9.7606746,-10.580726 c 0.3164064,0.234375 0.5859374,0.5976567 0.8437504,1.0312504 l 0.316406,-1.3828124 h 1.710937 L 10.498956,-0.88931931 C 10.194268,0.50521194 9.7606746,1.6302119 9.1630184,2.4270869 c -1.1015625,1.5 -2.7070313,2.2617188 -4.8398438,2.2617188 -1.1953125,0 -2.1328125,-0.2695313 -2.8242187,-0.796875 C 0.79583087,3.3645869 0.50286212,2.5091182 0.65520587,1.3723994 H 2.5536434 c -0.023437,0.5039063 0.082031,0.890625 0.2929687,1.1601563 0.3164063,0.3984375 0.9492188,0.609375 1.8398438,0.609375 1.4414062,0 2.4726562,-0.5039063 3.1289062,-1.4882813 0.375,-0.5976562 0.7148438,-1.65234371 1.0078125,-3.1757812 -0.4804687,0.55078124 -1.0078125,0.97265624 -1.5820312,1.25390624 -0.5859375,0.26953125 -1.3125,0.421875 -2.1796875,0.421875 -1.171875,0 -2.1445313,-0.421875 -2.8710938,-1.27734374 -0.7148437,-0.8554688 -0.8554687,-2.25 -0.4335937,-4.21875 0.3984375,-1.8398438 1.1367187,-3.2929688 2.2734375,-4.3242188 1.125,-1.0429689 2.3203125,-1.5703129 3.5976562,-1.5703129 0.8554688,0 1.5820313,0.210938 2.1328125,0.65625 z m -2.1328125,0.9960942 c -1.3125,0 -2.3320312,0.609375 -3.0703125,1.8398437 -0.3984375,0.65625 -0.7148437,1.5 -0.9257812,2.5546875 -0.2695313,1.2421875 -0.2109375,2.1914063 0.1523437,2.8476563 0.3515625,0.65625 0.9609375,0.9726562 1.828125,0.9726562 1.3359375,0 2.390625,-0.5976562 3.1875,-1.7929687 0.4453125,-0.703125 0.7617188,-1.4765625 0.9609375,-2.390625 0.2929684,-1.3710938 0.2226563,-2.390625 -0.1992187,-3.0351563 -0.421875,-0.65625 -1.078125,-0.9960937 -1.9335938,-0.9960937 z m 0,0"
       style="fill:#000000;fill-opacity:1;fill-rule:nonzero;stroke:none"
       aria-label="g"
       transform="matrix(1.3333333,0,0,1.3333333,427.29045,362.93967)" />
    <path
       id="path44"
       d="m 301.613,284.859 0.532,1.133 0.3,1.246 0.051,1.313 -0.215,1.312 -0.469,1.25 -0.703,1.133 -0.902,0.953 -1.055,0.742 -1.148,0.508 -1.192,0.266 -1.175,0.039 -1.125,-0.164 -1.028,-0.328 -0.898,-0.453 -0.754,-0.532 -0.582,-0.558 -0.406,-0.555 -0.219,-0.508 -0.027,-0.437 0.156,-0.34 0.332,-0.227 0.496,-0.097 0.629,0.043 0.738,0.195 0.801,0.352 0.828,0.519 0.793,0.688 0.715,0.855 0.582,1.008 0.398,1.137 0.184,1.226 -0.066,1.274 -0.325,1.265 -0.578,1.195 -0.808,1.063 -1,0.883 -1.141,0.664 -1.227,0.414 -1.253,0.156 -1.227,-0.086 -1.152,-0.304 -1.039,-0.493 -0.895,-0.625 -0.742,-0.714 -0.574,-0.75 -0.407,-0.735 -0.238,-0.68 -0.078,-0.585 0.078,-0.458 0.227,-0.308 0.355,-0.149 0.473,0.028 0.558,0.203 0.621,0.383 0.641,0.558 0.617,0.723 0.543,0.879 0.426,1.012 0.262,1.121 0.054,1.191 -0.175,1.219 -0.426,1.195 -0.664,1.113 -0.891,0.977 -1.078,0.789 -1.211,0.563 -1.289,0.308 -1.301,0.047 -1.258,-0.207 -1.16,-0.437 -1.019,-0.633 -0.86,-0.778 -0.683,-0.875 -0.504,-0.918 -0.336,-0.91 -0.172,-0.851 -0.035,-0.754 0.094,-0.617 0.199,-0.454 0.297,-0.269 0.367,-0.07 0.426,0.129 0.457,0.328 0.457,0.519 0.43,0.695 0.363,0.852 0.254,0.981 0.109,1.078 -0.078,1.136 -0.289,1.149 -0.516,1.105 -0.738,1.016 -0.953,0.871 -1.125,0.68 -1.258,0.449 -1.32,0.191 -1.328,-0.07 -1.27,-0.328 -1.152,-0.559 -0.992,-0.758 -0.805,-0.906 -0.602,-1.004 -0.402,-1.05 -0.211,-1.043 -0.051,-0.993 0.09,-0.894 0.199,-0.762 0.278,-0.598 0.332,-0.41 0.359,-0.211 h 0.375 l 0.359,0.211 0.332,0.41 0.278,0.598 0.199,0.762 0.09,0.894 -0.047,0.993 -0.215,1.043 -0.402,1.05 -0.602,1.004 -0.804,0.906 -0.993,0.758 -1.152,0.559 -1.27,0.328 -1.328,0.07 -1.32,-0.191 -1.254,-0.449 -1.129,-0.68 -0.949,-0.871 -0.742,-1.016 -0.516,-1.105 -0.289,-1.149 -0.078,-1.136 0.109,-1.078 0.254,-0.981 0.364,-0.852 0.429,-0.695 0.461,-0.519 0.453,-0.328 0.426,-0.129 0.367,0.07 0.297,0.269 0.199,0.454 0.094,0.617 -0.031,0.754 -0.176,0.851 -0.336,0.91 -0.504,0.918 -0.679,0.875 -0.86,0.778 -1.023,0.633 -1.16,0.437 -1.258,0.207 -1.301,-0.047 -1.289,-0.308 -1.211,-0.563 -1.078,-0.789 -0.891,-0.977 -0.664,-1.113 -0.426,-1.195 -0.175,-1.219 0.054,-1.191 0.262,-1.121 0.426,-1.012 0.543,-0.879 0.617,-0.723 0.641,-0.558 0.621,-0.383 0.558,-0.203 0.473,-0.028 0.359,0.149 0.223,0.308 0.078,0.458 -0.078,0.585 -0.238,0.68 -0.407,0.735 -0.574,0.75 -0.742,0.714 -0.894,0.625 -1.04,0.493 -1.148,0.304 -1.227,0.086 -1.257,-0.156 -1.227,-0.414 -1.141,-0.664 -1,-0.883 -0.808,-1.063 -0.578,-1.195 -0.324,-1.265 -0.063,-1.274 0.18,-1.226 0.398,-1.137 0.582,-1.008 0.715,-0.855 0.797,-0.688 0.824,-0.519 0.801,-0.352 0.738,-0.195 0.633,-0.043 0.492,0.097 0.332,0.227 0.156,0.34 -0.027,0.437 -0.219,0.508 -0.406,0.555 -0.582,0.558 -0.75,0.532 -0.902,0.453 -1.028,0.328 -1.121,0.164 -1.179,-0.039 -1.192,-0.266 -1.148,-0.508 -1.051,-0.742 -0.902,-0.953 -0.707,-1.133 -0.469,-1.25 -0.215,-1.312 0.051,-1.313 0.301,-1.246 0.531,-1.133"
       style="fill:none;stroke:#000000;stroke-width:0.9216;stroke-linecap:square;stroke-linejoin:miter;stroke-miterlimit:3.25;stroke-dasharray:none;stroke-opacity:1"
       transform="scale(1.3333333)" />
    <path
       id="path45"
       d="m 9.7614633,-10.580585 c 0.3164067,0.234375 0.5859377,0.5976562 0.8437497,1.0312499 l 0.316407,-1.3828129 h 1.710937 L 10.499745,-0.88917881 C 10.195057,0.50535244 9.7614633,1.6303524 9.163807,2.4272274 c -1.1015625,1.5 -2.7070312,2.2617188 -4.8398437,2.2617188 -1.1953125,0 -2.1328125,-0.2695313 -2.8242188,-0.796875 C 0.7966195,3.3647274 0.50365075,2.5092587 0.6559945,1.3725399 H 2.554432 c -0.023437,0.5039063 0.082031,0.890625 0.2929688,1.1601563 0.3164062,0.3984375 0.9492187,0.609375 1.8398437,0.609375 1.4414063,0 2.4726563,-0.5039063 3.1289063,-1.4882813 0.375,-0.5976562 0.7148437,-1.65234371 1.0078125,-3.1757812 -0.4804688,0.55078124 -1.0078125,0.97265624 -1.5820313,1.25390624 -0.5859375,0.26953125 -1.3125,0.421875 -2.1796875,0.421875 -1.171875,0 -2.1445312,-0.421875 -2.8710937,-1.27734374 -0.7148438,-0.8554688 -0.8554688,-2.25 -0.4335938,-4.21875 0.3984375,-1.8398438 1.1367188,-3.2929688 2.2734375,-4.3242188 1.125,-1.0429684 2.3203125,-1.5703124 3.5976563,-1.5703124 0.8554687,0 1.5820312,0.210937 2.1328125,0.65625 z m -2.1328125,0.9960937 c -1.3125,0 -2.3320313,0.609375 -3.0703125,1.8398437 -0.3984375,0.65625 -0.7148438,1.5 -0.9257813,2.5546875 -0.2695312,1.2421875 -0.2109375,2.1914063 0.1523438,2.8476563 0.3515625,0.65625 0.9609375,0.9726562 1.828125,0.9726562 1.3359375,0 2.390625,-0.5976562 3.1875,-1.7929687 0.4453125,-0.703125 0.7617187,-1.4765625 0.9609375,-2.390625 0.2929687,-1.3710938 0.2226562,-2.390625 -0.1992188,-3.0351563 -0.421875,-0.65625 -1.078125,-0.9960937 -1.9335937,-0.9960937 z m 0,0"
       style="fill:#000000;fill-opacity:1;fill-rule:nonzero;stroke:none"
       aria-label="g"
       transform="matrix(1.3333333,0,0,1.3333333,349.09409,452.72073)" />
    <path
       id="path46"
       d="m 301.613,284.859 0.532,-1.136 0.3,-1.246 0.051,-1.309 -0.215,-1.316 -0.469,-1.25 -0.703,-1.129 -0.902,-0.957 -1.055,-0.743 -1.148,-0.507 -1.192,-0.266 -1.175,-0.039 -1.125,0.164 -1.028,0.332 -0.898,0.449 -0.754,0.532 -0.582,0.562 -0.406,0.551 -0.219,0.508 -0.027,0.437 0.156,0.34 0.332,0.226 0.496,0.098 0.629,-0.043 0.738,-0.191 0.801,-0.356 0.828,-0.519 0.793,-0.688 0.715,-0.855 0.582,-1.008 0.398,-1.133 0.184,-1.23 -0.066,-1.274 -0.325,-1.265 -0.578,-1.192 -0.808,-1.066 -1,-0.883 -1.141,-0.66 -1.227,-0.414 -1.253,-0.16 -1.227,0.086 -1.152,0.308 -1.039,0.488 -0.895,0.629 -0.742,0.715 -0.574,0.746 -0.407,0.739 -0.238,0.679 -0.078,0.582 0.078,0.457 0.227,0.313 0.355,0.144 0.473,-0.027 0.558,-0.203 0.621,-0.383 0.641,-0.555 0.617,-0.726 0.543,-0.875 0.426,-1.016 0.262,-1.117 0.054,-1.195 -0.175,-1.219 -0.426,-1.195 -0.664,-1.11 -0.891,-0.976 -1.078,-0.789 -1.211,-0.563 -1.289,-0.308 -1.301,-0.047 -1.258,0.207 -1.16,0.437 -1.019,0.629 -0.86,0.781 -0.683,0.875 -0.504,0.918 -0.336,0.91 -0.172,0.852 -0.035,0.754 0.094,0.613 0.199,0.453 0.297,0.27 0.367,0.07 0.426,-0.129 0.457,-0.328 0.457,-0.519 0.43,-0.696 0.363,-0.851 0.254,-0.981 0.109,-1.078 -0.078,-1.133 -0.289,-1.148 -0.516,-1.109 -0.738,-1.016 -0.953,-0.871 -1.125,-0.68 -1.258,-0.449 -1.32,-0.191 -1.328,0.07 -1.27,0.328 -1.152,0.562 -0.992,0.754 -0.805,0.907 -0.602,1.007 -0.402,1.051 -0.211,1.043 -0.051,0.988 0.09,0.895 0.199,0.762 0.278,0.597 0.332,0.411 0.359,0.21 h 0.375 l 0.359,-0.21 0.332,-0.411 0.278,-0.597 0.199,-0.762 0.09,-0.895 -0.047,-0.988 -0.215,-1.043 -0.402,-1.051 -0.602,-1.007 -0.804,-0.907 -0.993,-0.754 -1.152,-0.562 -1.27,-0.328 -1.328,-0.07 -1.32,0.191 -1.254,0.449 -1.129,0.68 -0.949,0.871 -0.742,1.016 -0.516,1.109 -0.289,1.148 -0.078,1.133 0.109,1.078 0.254,0.981 0.364,0.851 0.429,0.696 0.461,0.519 0.453,0.328 0.426,0.129 0.367,-0.07 0.297,-0.27 0.199,-0.453 0.094,-0.613 -0.031,-0.754 -0.176,-0.852 -0.336,-0.91 -0.504,-0.918 -0.679,-0.875 -0.86,-0.781 -1.023,-0.629 -1.16,-0.437 -1.258,-0.207 -1.301,0.047 -1.289,0.308 -1.211,0.563 -1.078,0.789 -0.891,0.976 -0.664,1.11 -0.426,1.195 -0.175,1.219 0.054,1.195 0.262,1.117 0.426,1.016 0.543,0.875 0.617,0.726 0.641,0.555 0.621,0.383 0.558,0.203 0.473,0.027 0.359,-0.144 0.223,-0.313 0.078,-0.457 -0.078,-0.582 -0.238,-0.679 -0.407,-0.739 -0.574,-0.746 -0.742,-0.715 -0.894,-0.629 -1.04,-0.488 -1.148,-0.308 -1.227,-0.086 -1.257,0.16 -1.227,0.414 -1.141,0.66 -1,0.883 -0.808,1.066 -0.578,1.192 -0.324,1.265 -0.063,1.274 0.18,1.23 0.398,1.133 0.582,1.008 0.715,0.855 0.797,0.688 0.824,0.519 0.801,0.356 0.738,0.191 0.633,0.043 0.492,-0.098 0.332,-0.226 0.156,-0.34 -0.027,-0.437 -0.219,-0.508 -0.406,-0.551 -0.582,-0.562 -0.75,-0.532 -0.902,-0.449 -1.028,-0.332 -1.121,-0.164 -1.179,0.039 -1.192,0.266 -1.148,0.507 -1.051,0.743 -0.902,0.957 -0.707,1.129 -0.469,1.25 -0.215,1.316 0.051,1.309 0.301,1.246 0.531,1.136"
       style="fill:none;stroke:#000000;stroke-width:0.9216;stroke-linecap:square;stroke-linejoin:miter;stroke-miterlimit:3.25;stroke-dasharray:none;stroke-opacity:1"
       transform="scale(1.3333333)" />
    <path
       id="path47"
       d="m 9.7614633,-10.583045 c 0.3164067,0.234375 0.5859377,0.5976567 0.8437497,1.0312504 l 0.316407,-1.3828124 h 1.710937 L 10.499745,-0.89163831 C 10.195057,0.50289294 9.7614633,1.6278929 9.163807,2.4247679 c -1.1015625,1.5 -2.7070312,2.2617188 -4.8398437,2.2617188 -1.1953125,0 -2.1328125,-0.2695313 -2.8242188,-0.796875 C 0.7966195,3.3622679 0.50365075,2.5067992 0.6559945,1.3700804 H 2.554432 c -0.023437,0.5039063 0.082031,0.890625 0.2929688,1.1601563 0.3164062,0.3984375 0.9492187,0.609375 1.8398437,0.609375 1.4414063,0 2.4726563,-0.5039063 3.1289063,-1.4882813 0.375,-0.5976562 0.7148437,-1.65234371 1.0078125,-3.1757812 -0.4804688,0.55078124 -1.0078125,0.97265624 -1.5820313,1.25390624 -0.5859375,0.26953125 -1.3125,0.421875 -2.1796875,0.421875 -1.171875,0 -2.1445312,-0.421875 -2.8710937,-1.27734374 -0.7148438,-0.8554688 -0.8554688,-2.25 -0.4335938,-4.21875 0.3984375,-1.8398438 1.1367188,-3.2929688 2.2734375,-4.3242188 1.125,-1.0429689 2.3203125,-1.5703129 3.5976563,-1.5703129 0.8554687,0 1.5820312,0.210938 2.1328125,0.65625 z m -2.1328125,0.9960942 c -1.3125,0 -2.3320313,0.609375 -3.0703125,1.8398437 -0.3984375,0.65625 -0.7148438,1.5 -0.9257813,2.5546875 -0.2695312,1.2421875 -0.2109375,2.1914063 0.1523438,2.8476563 0.3515625,0.65625 0.9609375,0.9726562 1.828125,0.9726562 1.3359375,0 2.390625,-0.5976562 3.1875,-1.7929687 0.4453125,-0.703125 0.7617187,-1.4765625 0.9609375,-2.390625 0.2929687,-1.3710938 0.2226562,-2.390625 -0.1992188,-3.0351563 -0.421875,-0.65625 -1.078125,-0.9960937 -1.9335937,-0.9960937 z m 0,0"
       style="fill:#000000;fill-opacity:1;fill-rule:nonzero;stroke:none"
       aria-label="g"
       transform="matrix(1.3333333,0,0,1.3333333,349.09409,327.19276)" />
    <path
       id="path48"
       d="m 238.277,284.859 c 0,0.977 -0.39,1.914 -1.082,2.606 -0.691,0.691 -1.629,1.078 -2.605,1.078 -0.977,0 -1.918,-0.387 -2.61,-1.078 -0.687,-0.692 -1.078,-1.629 -1.078,-2.606 0,-0.98 0.391,-1.918 1.078,-2.609 0.692,-0.691 1.633,-1.078 2.61,-1.078 0.976,0 1.914,0.387 2.605,1.078 0.692,0.691 1.082,1.629 1.082,2.609 z"
       style="fill:#000000;fill-opacity:1;fill-rule:evenodd;stroke:none"
       transform="scale(1.3333333)" />
    <path
       id="path49"
       d="m 305.301,284.859 c 0,0.977 -0.387,1.914 -1.078,2.606 -0.692,0.691 -1.629,1.078 -2.61,1.078 -0.976,0 -1.914,-0.387 -2.605,-1.078 -0.692,-0.692 -1.078,-1.629 -1.078,-2.606 0,-0.98 0.386,-1.918 1.078,-2.609 0.691,-0.691 1.629,-1.078 2.605,-1.078 0.981,0 1.918,0.387 2.61,1.078 0.691,0.691 1.078,1.629 1.078,2.609 z"
       style="fill:#000000;fill-opacity:1;fill-rule:evenodd;stroke:none"
       transform="scale(1.3333333)" />
    <path
       id="path50"
       d="M 5.5436893,-4.1494035 V -9.4814348 L 1.7819706,-4.1494035 Z M 5.5788456,-9.66e-4 V -2.860341 H 0.42259556 V -4.3017473 L 5.8015018,-11.77831 h 1.2421875 v 7.6289065 h 1.734375 v 1.2890625 h -1.734375 v 2.859375 z m 0,0"
       style="fill:#000000;fill-opacity:1;fill-rule:nonzero;stroke:none"
       aria-label="4"
       transform="matrix(1.3333333,0,0,1.3333333,351.16701,492.00129)"
       clip-path="url(#clipPath51)" />
  </g>
</svg>
