<?xml version="1.0" encoding="UTF-8" standalone="no"?>
<!-- Created with Inkscape (http://www.inkscape.org/) -->

<svg
   version="1.1"
   id="svg2"
   width="492"
   height="246.66667"
   viewBox="0 0 492 246.66667"
   sodipodi:docname="1upk049xa8r7h.pdf"
   xmlns:inkscape="http://www.inkscape.org/namespaces/inkscape"
   xmlns:sodipodi="http://sodipodi.sourceforge.net/DTD/sodipodi-0.dtd"
   xmlns="http://www.w3.org/2000/svg"
   xmlns:svg="http://www.w3.org/2000/svg">
  <defs
     id="defs6">
    <clipPath
       clipPathUnits="userSpaceOnUse"
       id="clipPath66">
      <path
         d="m 53,146 h 4 v 7.602 h -4 z"
         id="path64" />
    </clipPath>
    <clipPath
       clipPathUnits="userSpaceOnUse"
       id="clipPath88">
      <path
         d="m 209,56 h 9.879 V 68 H 209 Z"
         id="path86" />
    </clipPath>
    <clipPath
       clipPathUnits="userSpaceOnUse"
       id="clipPath138">
      <path
         d="m 176,146 h 6 v 7.602 h -6 z"
         id="path136" />
    </clipPath>
    <clipPath
       clipPathUnits="userSpaceOnUse"
       id="clipPath200">
      <path
         d="m 298,146 h 7 v 7.602 h -7 z"
         id="path198" />
    </clipPath>
  </defs>
  <sodipodi:namedview
     id="namedview4"
     pagecolor="#ffffff"
     bordercolor="#999999"
     borderopacity="1"
     inkscape:showpageshadow="0"
     inkscape:pageopacity="0"
     inkscape:pagecheckerboard="0"
     inkscape:deskcolor="#d1d1d1" />
  <g
     id="g8"
     inkscape:groupmode="layer"
     inkscape:label="1upk049xa8r7h"
     transform="matrix(1.3333333,0,0,1.3333333,0,9.5e-6)">
    <g
       id="g10">
      <path
         d="m 36.305,97.746 -0.629,0.52 -0.715,0.414 -0.773,0.289 -0.813,0.152 -0.828,0.008 L 31.73,98.992 30.953,98.719 30.23,98.32 29.59,97.812 29.043,97.219 28.605,96.562 28.289,95.871 28.09,95.18 l -0.078,-0.668 0.031,-0.614 0.133,-0.527 0.219,-0.426 0.281,-0.304 0.32,-0.168 0.336,-0.024 0.332,0.117 0.297,0.258 0.238,0.387 0.164,0.5 0.071,0.586 -0.039,0.648 -0.161,0.692 -0.277,0.691 -0.395,0.672 -0.511,0.621 -0.61,0.539 -0.695,0.438 -0.766,0.32 -0.804,0.18 -0.824,0.043 -0.821,-0.106 -0.793,-0.242 -0.734,-0.375 -0.66,-0.484 -0.571,-0.579 -0.461,-0.644 -0.343,-0.688 -0.227,-0.695 -0.101,-0.672 0.007,-0.629 0.114,-0.55 0.199,-0.45 0.269,-0.332 0.313,-0.199 0.336,-0.055 0.336,0.09 0.305,0.227 0.253,0.359 0.184,0.473 0.09,0.57 -0.016,0.641 -0.129,0.679 -0.25,0.7 -0.371,0.675 -0.488,0.633 -0.59,0.563 -0.68,0.461 -0.75,0.347 -0.796,0.211 -0.825,0.075 -0.824,-0.075 -0.797,-0.211 -0.75,-0.347 -0.679,-0.461 -0.59,-0.563 -0.485,-0.633 -0.371,-0.675 -0.254,-0.7 -0.129,-0.679 -0.015,-0.641 0.09,-0.57 0.183,-0.473 0.254,-0.359 0.309,-0.227 0.332,-0.09 0.336,0.055 0.316,0.199 0.266,0.332 0.199,0.45 0.113,0.55 0.008,0.629 -0.102,0.672 -0.226,0.695 -0.344,0.688 -0.461,0.644 -0.566,0.579 -0.664,0.484 -0.735,0.375 -0.789,0.242 -0.82,0.106 L 10.129,99.098 9.324,98.918 8.562,98.598 7.863,98.16 7.254,97.621 6.742,97 6.348,96.328 6.07,95.637 5.914,94.945 5.871,94.297 l 0.07,-0.586 0.164,-0.5 0.239,-0.387 0.297,-0.258 0.332,-0.117 0.336,0.024 0.324,0.168 0.277,0.304 0.219,0.426 0.133,0.527 0.031,0.614 L 8.215,95.18 8.02,95.871 7.699,96.562 7.262,97.219 6.719,97.812 6.074,98.32 5.355,98.719 4.574,98.992 3.758,99.129 2.93,99.121 2.117,98.969 1.344,98.68 0.633,98.266 0,97.746"
         style="fill:none;stroke:#000000;stroke-width:0.6144;stroke-linecap:square;stroke-linejoin:miter;stroke-miterlimit:3.25;stroke-dasharray:none;stroke-opacity:1"
         id="path12" />
      <text
         xml:space="preserve"
         transform="translate(13.892962,116.3217)"
         style="font-variant:normal;font-size:14.16px;font-family:CairoFont-0;-inkscape-font-specification:CairoFont-0-0;writing-mode:lr-tb;fill:#000000;fill-opacity:1;fill-rule:nonzero;stroke:none"
         id="text16"><tspan
           x="0"
           y="0"
           id="tspan14">g</tspan></text>
      <path
         d="m 72.609,75.402 0.606,-0.675 0.726,-0.547 0.821,-0.399 0.883,-0.222 0.906,-0.039 0.902,0.148 0.852,0.32 0.769,0.473 0.664,0.601 0.532,0.696 0.382,0.742 0.227,0.75 0.07,0.715 -0.074,0.633 -0.203,0.523 -0.305,0.371 -0.375,0.207 -0.414,0.024 -0.418,-0.161 -0.379,-0.343 -0.308,-0.5 -0.207,-0.637 -0.082,-0.742 0.062,-0.801 0.219,-0.824 0.375,-0.797 0.523,-0.734 0.657,-0.629 0.765,-0.489 0.852,-0.328 0.898,-0.148 0.906,0.035 0.887,0.219 0.824,0.386 0.731,0.532 0.609,0.64 0.473,0.719 0.32,0.75 0.16,0.742 0.012,0.688 -0.129,0.594 -0.246,0.464 -0.336,0.305 -0.398,0.133 -0.418,-0.051 -0.407,-0.234 -0.355,-0.41 -0.27,-0.559 -0.16,-0.684 -0.023,-0.769 0.125,-0.817 0.281,-0.816 0.438,-0.777 0.578,-0.696 0.703,-0.578 0.805,-0.426 0.875,-0.257 0.906,-0.075 0.902,0.114 0.863,0.289 0.793,0.445 0.684,0.582 0.559,0.676 0.41,0.738 0.254,0.75 0.101,0.727 -0.047,0.652 -0.179,0.547 -0.289,0.402 -0.364,0.239 -0.41,0.058 -0.418,-0.125 -0.39,-0.308 -0.325,-0.473 -0.23,-0.613 -0.106,-0.723 0.036,-0.797 0.187,-0.82 0.344,-0.809 0.496,-0.746 0.633,-0.652 0.75,-0.52 0.836,-0.359 0.89,-0.184 0.91,0.004 0.891,0.184 0.84,0.355 0.75,0.504 0.637,0.625 0.5,0.707 0.347,0.75 0.192,0.746 0.039,0.699 -0.102,0.614 -0.226,0.492 -0.325,0.34 -0.386,0.168 -0.418,-0.02 -0.41,-0.199 -0.368,-0.379 -0.289,-0.531 -0.183,-0.664 -0.051,-0.758 0.098,-0.809 0.25,-0.82 0.406,-0.789 0.554,-0.715 0.684,-0.601 0.785,-0.457 0.864,-0.289 0.902,-0.11 0.91,0.078 0.871,0.254 0.809,0.422 0.707,0.555 0.582,0.664 0.441,0.73 0.285,0.75 0.129,0.735 -0.023,0.668 -0.156,0.57 -0.266,0.434 -0.356,0.269 -0.402,0.094 -0.422,-0.09 -0.394,-0.277 -0.34,-0.442 -0.25,-0.59 -0.133,-0.703 0.008,-0.785 0.16,-0.82 0.313,-0.813 0.468,-0.761 0.61,-0.672 0.73,-0.547 0.82,-0.395 0.883,-0.215 0.91,-0.035 0.899,0.153 0.848,0.324 0.773,0.476"
         style="fill:none;stroke:#000000;stroke-width:0.6144;stroke-linecap:square;stroke-linejoin:miter;stroke-miterlimit:3.25;stroke-dasharray:none;stroke-opacity:1"
         id="path18" />
      <text
         xml:space="preserve"
         transform="translate(86.675885,64.262299)"
         style="font-variant:normal;font-size:14.16px;font-family:CairoFont-0;-inkscape-font-specification:CairoFont-0-0;writing-mode:lr-tb;fill:#000000;fill-opacity:1;fill-rule:nonzero;stroke:none"
         id="text22"><tspan
           x="0"
           y="0"
           id="tspan20">g</tspan></text>
      <path
         d="m 72.609,120.086 0.77,-0.477 0.851,-0.324 0.899,-0.152 0.91,0.031 0.883,0.219 0.82,0.394 0.731,0.543 0.609,0.676 0.469,0.762 0.312,0.812 0.16,0.821 0.008,0.781 -0.133,0.707 -0.25,0.59 -0.339,0.441 -0.399,0.278 -0.418,0.089 -0.402,-0.093 -0.356,-0.27 -0.265,-0.434 -0.157,-0.57 -0.023,-0.668 0.129,-0.734 0.285,-0.754 0.442,-0.727 0.582,-0.664 0.707,-0.554 0.808,-0.422 0.871,-0.254 0.91,-0.078 0.903,0.109 0.863,0.289 0.785,0.457 0.684,0.602 0.554,0.715 0.407,0.789 0.25,0.82 0.097,0.809 -0.05,0.757 -0.184,0.664 -0.289,0.532 -0.367,0.379 -0.41,0.199 -0.418,0.015 -0.387,-0.164 -0.324,-0.339 -0.227,-0.493 -0.101,-0.613 0.039,-0.703 0.191,-0.746 0.348,-0.746 0.5,-0.707 0.636,-0.625 0.75,-0.504 0.84,-0.356 0.891,-0.187 h 0.91 l 0.891,0.183 0.836,0.36 0.746,0.519 0.636,0.653 0.493,0.746 0.347,0.808 0.188,0.821 0.035,0.797 -0.109,0.722 -0.227,0.613 -0.324,0.473 -0.391,0.309 -0.418,0.125 -0.41,-0.059 -0.363,-0.238 -0.289,-0.402 -0.18,-0.547 -0.047,-0.653 0.102,-0.726 0.254,-0.75 0.41,-0.739 0.558,-0.675 0.684,-0.582 0.793,-0.446 0.863,-0.289 0.903,-0.113 0.906,0.074 0.875,0.258 0.804,0.426 0.704,0.574 0.578,0.695 0.437,0.778 0.281,0.82 0.125,0.816 -0.023,0.77 -0.16,0.683 -0.27,0.559 -0.355,0.41 -0.406,0.235 -0.418,0.05 -0.399,-0.132 -0.336,-0.309 -0.246,-0.465 -0.129,-0.59 0.012,-0.687 0.16,-0.742 0.32,-0.75 0.473,-0.719 0.61,-0.641 0.73,-0.531 0.824,-0.387 0.887,-0.218 0.906,-0.036 0.899,0.149 0.847,0.328 0.77,0.488 0.656,0.629 0.523,0.735 0.375,0.796 0.219,0.825 0.063,0.8 -0.082,0.743 -0.207,0.636 -0.309,0.5 -0.379,0.34 -0.418,0.164 -0.414,-0.023 -0.375,-0.207 -0.305,-0.375 -0.203,-0.52 -0.074,-0.637 0.07,-0.71 0.227,-0.75 0.383,-0.743 0.531,-0.695 0.66,-0.602 0.774,-0.472 0.851,-0.32 0.903,-0.149 0.906,0.039 0.883,0.223 0.82,0.398 0.726,0.547 0.606,0.676"
         style="fill:none;stroke:#000000;stroke-width:0.6144;stroke-linecap:square;stroke-linejoin:miter;stroke-miterlimit:3.25;stroke-dasharray:none;stroke-opacity:1"
         id="path24" />
      <text
         xml:space="preserve"
         transform="translate(86.122954,145.23976)"
         style="font-variant:normal;font-size:14.16px;font-family:CairoFont-0;-inkscape-font-specification:CairoFont-0-0;writing-mode:lr-tb;fill:#000000;fill-opacity:1;fill-rule:nonzero;stroke:none"
         id="text28"><tspan
           x="0"
           y="0"
           id="tspan26">g</tspan></text>
      <path
         d="M 36.305,97.746 72.609,75.402"
         style="fill:none;stroke:#000000;stroke-width:0.6144;stroke-linecap:square;stroke-linejoin:miter;stroke-miterlimit:3.25;stroke-dasharray:none;stroke-opacity:1"
         id="path30" />
      <path
         d="m 51.605,88.332 6.879,-1.609 -2.343,-3.809 z"
         style="fill:#000000;fill-opacity:1;fill-rule:evenodd;stroke:none"
         id="path32" />
      <text
         xml:space="preserve"
         transform="translate(43.654159,77.518523)"
         style="font-variant:normal;font-size:14.16px;font-family:CairoFont-0;-inkscape-font-specification:CairoFont-0-0;writing-mode:lr-tb;fill:#000000;fill-opacity:1;fill-rule:nonzero;stroke:none"
         id="text36"><tspan
           x="0"
           y="0"
           id="tspan34">u</tspan></text>
      <path
         d="m 36.305,97.746 36.304,22.34"
         style="fill:none;stroke:#000000;stroke-width:0.6144;stroke-linecap:square;stroke-linejoin:miter;stroke-miterlimit:3.25;stroke-dasharray:none;stroke-opacity:1"
         id="path38" />
      <path
         d="m 57.312,110.672 -6.878,-1.61 2.339,-3.804 z"
         style="fill:#000000;fill-opacity:1;fill-rule:evenodd;stroke:none"
         id="path40" />
      <text
         xml:space="preserve"
         transform="translate(43.654159,128.11301)"
         style="font-variant:normal;font-size:14.16px;font-family:CairoFont-0;-inkscape-font-specification:CairoFont-0-0;writing-mode:lr-tb;fill:#000000;fill-opacity:1;fill-rule:nonzero;stroke:none"
         id="text44"><tspan
           x="0"
           y="0"
           id="tspan42">u</tspan></text>
      <path
         d="m 72.609,75.402 v 44.684"
         style="fill:none;stroke:#000000;stroke-width:0.6144;stroke-linecap:square;stroke-linejoin:miter;stroke-miterlimit:3.25;stroke-dasharray:none;stroke-opacity:1"
         id="path46" />
      <path
         d="m 72.609,94.395 -2.234,6.703 h 4.469 z"
         style="fill:#000000;fill-opacity:1;fill-rule:evenodd;stroke:none"
         id="path48" />
      <text
         xml:space="preserve"
         transform="translate(79.030272,102.81577)"
         style="font-variant:normal;font-size:14.16px;font-family:CairoFont-0;-inkscape-font-specification:CairoFont-0-0;writing-mode:lr-tb;fill:#000000;fill-opacity:1;fill-rule:nonzero;stroke:none"
         id="text52"><tspan
           x="0"
           y="0"
           id="tspan50">u</tspan></text>
      <path
         d="m 38.762,97.746 c 0,0.652 -0.258,1.277 -0.719,1.738 -0.461,0.461 -1.086,0.719 -1.738,0.719 -0.653,0 -1.278,-0.258 -1.739,-0.719 -0.461,-0.461 -0.718,-1.086 -0.718,-1.738 0,-0.652 0.257,-1.277 0.718,-1.738 0.461,-0.461 1.086,-0.719 1.739,-0.719 0.652,0 1.277,0.258 1.738,0.719 0.461,0.461 0.719,1.086 0.719,1.738 z"
         style="fill:#000000;fill-opacity:1;fill-rule:evenodd;stroke:none"
         id="path54" />
      <path
         d="m 75.07,75.402 c 0,0.653 -0.261,1.278 -0.722,1.739 -0.461,0.461 -1.086,0.718 -1.739,0.718 -0.648,0 -1.273,-0.257 -1.734,-0.718 -0.461,-0.461 -0.723,-1.086 -0.723,-1.739 0,-0.652 0.262,-1.277 0.723,-1.738 0.461,-0.461 1.086,-0.719 1.734,-0.719 0.653,0 1.278,0.258 1.739,0.719 0.461,0.461 0.722,1.086 0.722,1.738 z"
         style="fill:#000000;fill-opacity:1;fill-rule:evenodd;stroke:none"
         id="path56" />
      <path
         d="m 75.07,120.086 c 0,0.652 -0.261,1.277 -0.722,1.738 -0.461,0.461 -1.086,0.719 -1.739,0.719 -0.648,0 -1.273,-0.258 -1.734,-0.719 -0.461,-0.461 -0.723,-1.086 -0.723,-1.738 0,-0.652 0.262,-1.277 0.723,-1.738 0.461,-0.461 1.086,-0.719 1.734,-0.719 0.653,0 1.278,0.258 1.739,0.719 0.461,0.461 0.722,1.086 0.722,1.738 z"
         style="fill:#000000;fill-opacity:1;fill-rule:evenodd;stroke:none"
         id="path58" />
    </g>
    <g
       id="g60">
      <g
         id="g62"
         clip-path="url(#clipPath66)">
        <text
           xml:space="preserve"
           transform="translate(52.799858,153.92398)"
           style="font-variant:normal;font-size:11.28px;font-family:CairoFont-1;-inkscape-font-specification:CairoFont-1-0;writing-mode:lr-tb;fill:#000000;fill-opacity:1;fill-rule:nonzero;stroke:none"
           id="text70"><tspan
             x="0"
             y="0"
             id="tspan68">1</tspan></text>
      </g>
    </g>
    <g
       id="g72">
      <path
         d="m 159.184,97.746 -0.629,0.52 -0.715,0.414 -0.774,0.289 -0.812,0.152 -0.828,0.008 -0.813,-0.137 -0.781,-0.273 -0.723,-0.399 -0.64,-0.508 -0.547,-0.593 -0.434,-0.657 -0.32,-0.691 -0.199,-0.691 -0.078,-0.668 0.035,-0.614 0.133,-0.527 0.214,-0.426 0.282,-0.304 0.32,-0.168 0.34,-0.024 0.328,0.117 0.297,0.258 0.242,0.387 0.16,0.5 0.07,0.586 -0.039,0.648 -0.156,0.692 -0.277,0.691 -0.399,0.672 -0.507,0.621 -0.614,0.539 -0.695,0.438 -0.762,0.32 -0.808,0.18 -0.825,0.043 -0.82,-0.106 -0.789,-0.242 -0.738,-0.375 -0.66,-0.484 -0.571,-0.579 -0.461,-0.644 -0.343,-0.688 -0.223,-0.695 -0.105,-0.672 0.007,-0.629 0.114,-0.55 0.199,-0.45 0.269,-0.332 0.313,-0.199 0.336,-0.055 0.336,0.09 0.304,0.227 0.258,0.359 0.18,0.473 0.09,0.57 -0.012,0.641 -0.133,0.679 -0.25,0.7 -0.371,0.675 -0.484,0.633 -0.59,0.563 -0.68,0.461 -0.75,0.347 -0.801,0.211 -0.824,0.075 -0.82,-0.075 -0.801,-0.211 -0.75,-0.347 -0.68,-0.461 -0.589,-0.563 -0.485,-0.633 -0.371,-0.675 -0.25,-0.7 -0.133,-0.679 -0.015,-0.641 0.093,-0.57 0.18,-0.473 0.254,-0.359 0.309,-0.227 0.332,-0.09 0.336,0.055 0.316,0.199 0.27,0.332 0.199,0.45 0.109,0.55 0.012,0.629 -0.106,0.672 -0.222,0.695 -0.348,0.688 -0.461,0.644 -0.566,0.579 -0.66,0.484 -0.739,0.375 -0.789,0.242 -0.82,0.106 -0.828,-0.043 -0.805,-0.18 -0.762,-0.32 -0.699,-0.438 -0.609,-0.539 -0.508,-0.621 -0.398,-0.672 -0.278,-0.691 -0.156,-0.692 -0.039,-0.648 0.066,-0.586 0.164,-0.5 0.243,-0.387 0.296,-0.258 0.329,-0.117 0.339,0.024 0.321,0.168 0.281,0.304 0.215,0.426 0.133,0.527 0.035,0.614 -0.082,0.668 -0.196,0.691 -0.32,0.691 -0.433,0.657 -0.547,0.593 -0.641,0.508 -0.723,0.399 -0.781,0.273 -0.816,0.137 -0.825,-0.008 -0.812,-0.152 -0.777,-0.289 -0.711,-0.414 -0.633,-0.52"
         style="fill:none;stroke:#000000;stroke-width:0.6144;stroke-linecap:square;stroke-linejoin:miter;stroke-miterlimit:3.25;stroke-dasharray:none;stroke-opacity:1"
         id="path74" />
      <text
         xml:space="preserve"
         transform="translate(136.77296,116.3217)"
         style="font-variant:normal;font-size:14.16px;font-family:CairoFont-0;-inkscape-font-specification:CairoFont-0-0;writing-mode:lr-tb;fill:#000000;fill-opacity:1;fill-rule:nonzero;stroke:none"
         id="text78"><tspan
           x="0"
           y="0"
           id="tspan76">g</tspan></text>
      <path
         d="m 195.492,75.402 0.606,-0.675 0.722,-0.547 0.821,-0.399 0.882,-0.222 0.911,-0.039 0.898,0.148 0.852,0.32 0.773,0.473 0.66,0.601 0.531,0.696 0.383,0.742 0.227,0.75 0.07,0.715 -0.074,0.633 -0.203,0.523 -0.305,0.371 -0.375,0.207 -0.414,0.024 -0.414,-0.161 -0.379,-0.343 -0.312,-0.5 -0.207,-0.637 -0.083,-0.742 0.067,-0.801 0.215,-0.824 0.375,-0.797 0.523,-0.734 0.656,-0.629 0.77,-0.489 0.848,-0.328 0.898,-0.148 0.91,0.035 0.883,0.219 0.824,0.386 0.731,0.532 0.613,0.64 0.469,0.719 0.32,0.75 0.164,0.742 0.008,0.688 -0.129,0.594 -0.246,0.464 -0.336,0.305 -0.398,0.133 -0.418,-0.051 -0.403,-0.234 -0.355,-0.41 -0.274,-0.559 -0.16,-0.684 -0.023,-0.769 0.125,-0.817 0.281,-0.816 0.438,-0.777 0.578,-0.696 0.707,-0.578 0.804,-0.426 0.871,-0.257 0.907,-0.075 0.902,0.114 0.867,0.289 0.789,0.445 0.684,0.582 0.558,0.676 0.411,0.738 0.257,0.75 0.098,0.727 -0.047,0.652 -0.179,0.547 -0.29,0.402 -0.363,0.239 -0.41,0.058 -0.418,-0.125 -0.391,-0.308 -0.324,-0.473 -0.226,-0.613 -0.11,-0.723 0.035,-0.797 0.188,-0.82 0.348,-0.809 0.496,-0.746 0.632,-0.652 0.747,-0.52 0.836,-0.359 0.89,-0.184 0.91,0.004 0.895,0.184 0.836,0.355 0.75,0.504 0.636,0.625 0.5,0.707 0.348,0.75 0.195,0.746 0.036,0.699 -0.102,0.614 -0.227,0.492 -0.324,0.34 -0.386,0.168 -0.418,-0.02 -0.411,-0.199 -0.367,-0.379 -0.289,-0.531 -0.183,-0.664 -0.051,-0.758 0.097,-0.809 0.25,-0.82 0.411,-0.789 0.55,-0.715 0.684,-0.601 0.789,-0.457 0.859,-0.289 0.907,-0.11 0.906,0.078 0.875,0.254 0.805,0.422 0.707,0.555 0.582,0.664 0.441,0.73 0.285,0.75 0.129,0.735 -0.019,0.668 -0.157,0.57 -0.269,0.434 -0.356,0.269 -0.402,0.094 -0.418,-0.09 -0.398,-0.277 -0.34,-0.442 -0.25,-0.59 -0.129,-0.703 0.004,-0.785 0.16,-0.82 0.316,-0.813 0.469,-0.761 0.606,-0.672 0.73,-0.547 0.82,-0.395 0.883,-0.215 0.91,-0.035 0.899,0.153 0.851,0.324 0.77,0.476"
         style="fill:none;stroke:#000000;stroke-width:0.6144;stroke-linecap:square;stroke-linejoin:miter;stroke-miterlimit:3.25;stroke-dasharray:none;stroke-opacity:1"
         id="path80" />
    </g>
    <g
       id="g82">
      <g
         id="g84"
         clip-path="url(#clipPath88)">
        <text
           xml:space="preserve"
           transform="translate(209.55588,64.262299)"
           style="font-variant:normal;font-size:14.16px;font-family:CairoFont-0;-inkscape-font-specification:CairoFont-0-0;writing-mode:lr-tb;fill:#000000;fill-opacity:1;fill-rule:nonzero;stroke:none"
           id="text92"><tspan
             x="0"
             y="0"
             id="tspan90">g</tspan></text>
      </g>
    </g>
    <g
       id="g94">
      <path
         d="m 195.492,120.086 0.77,-0.477 0.851,-0.324 0.895,-0.152 0.91,0.031 0.883,0.219 0.824,0.394 0.727,0.543 0.609,0.676 0.469,0.762 0.316,0.812 0.156,0.821 0.008,0.781 -0.133,0.707 -0.25,0.59 -0.339,0.441 -0.395,0.278 -0.422,0.089 -0.402,-0.093 -0.352,-0.27 -0.269,-0.434 -0.157,-0.57 -0.023,-0.668 0.133,-0.734 0.285,-0.754 0.437,-0.727 0.582,-0.664 0.707,-0.554 0.809,-0.422 0.875,-0.254 0.906,-0.078 0.903,0.109 0.863,0.289 0.785,0.457 0.684,0.602 0.554,0.715 0.407,0.789 0.254,0.82 0.093,0.809 -0.05,0.757 -0.184,0.664 -0.289,0.532 -0.367,0.379 -0.41,0.199 -0.418,0.015 -0.387,-0.164 -0.32,-0.339 -0.227,-0.493 -0.105,-0.613 0.039,-0.703 0.191,-0.746 0.348,-0.746 0.5,-0.707 0.636,-0.625 0.75,-0.504 0.84,-0.356 0.891,-0.187 h 0.91 l 0.891,0.183 0.836,0.36 0.75,0.519 0.632,0.653 0.496,0.746 0.344,0.808 0.188,0.821 0.035,0.797 -0.106,0.722 -0.23,0.613 -0.324,0.473 -0.391,0.309 -0.414,0.125 -0.41,-0.059 -0.367,-0.238 -0.285,-0.402 -0.18,-0.547 -0.051,-0.653 0.102,-0.726 0.253,-0.75 0.415,-0.739 0.554,-0.675 0.688,-0.582 0.789,-0.446 0.863,-0.289 0.902,-0.113 0.907,0.074 0.875,0.258 0.804,0.426 0.703,0.574 0.583,0.695 0.433,0.778 0.281,0.82 0.125,0.816 -0.023,0.77 -0.16,0.683 -0.27,0.559 -0.355,0.41 -0.406,0.235 -0.418,0.05 -0.395,-0.132 -0.34,-0.309 -0.246,-0.465 -0.129,-0.59 0.012,-0.687 0.16,-0.742 0.32,-0.75 0.473,-0.719 0.609,-0.641 0.735,-0.531 0.82,-0.387 0.887,-0.218 0.91,-0.036 0.894,0.149 0.852,0.328 0.766,0.488 0.656,0.629 0.523,0.735 0.375,0.796 0.219,0.825 0.063,0.8 -0.082,0.743 -0.207,0.636 -0.309,0.5 -0.379,0.34 -0.414,0.164 -0.414,-0.023 -0.379,-0.207 -0.305,-0.375 -0.199,-0.52 -0.078,-0.637 0.074,-0.71 0.223,-0.75 0.383,-0.743 0.531,-0.695 0.664,-0.602 0.77,-0.472 0.855,-0.32 0.898,-0.149 0.907,0.039 0.883,0.223 0.82,0.398 0.726,0.547 0.606,0.676"
         style="fill:none;stroke:#000000;stroke-width:0.6144;stroke-linecap:square;stroke-linejoin:miter;stroke-miterlimit:3.25;stroke-dasharray:none;stroke-opacity:1"
         id="path96" />
      <text
         xml:space="preserve"
         transform="translate(209.00295,145.23976)"
         style="font-variant:normal;font-size:14.16px;font-family:CairoFont-0;-inkscape-font-specification:CairoFont-0-0;writing-mode:lr-tb;fill:#000000;fill-opacity:1;fill-rule:nonzero;stroke:none"
         id="text100"><tspan
           x="0"
           y="0"
           id="tspan98">g</tspan></text>
      <path
         d="M 159.184,97.746 195.492,75.402"
         style="fill:none;stroke:#000000;stroke-width:0.6144;stroke-linecap:square;stroke-linejoin:miter;stroke-miterlimit:3.25;stroke-dasharray:none;stroke-opacity:1"
         id="path102" />
      <path
         d="m 180.191,84.816 -4.535,5.418 -2.344,-3.804 z"
         style="fill:#000000;fill-opacity:1;fill-rule:evenodd;stroke:none"
         id="path104" />
      <text
         xml:space="preserve"
         transform="translate(166.53416,77.518523)"
         style="font-variant:normal;font-size:14.16px;font-family:CairoFont-0;-inkscape-font-specification:CairoFont-0-0;writing-mode:lr-tb;fill:#000000;fill-opacity:1;fill-rule:nonzero;stroke:none"
         id="text108"><tspan
           x="0"
           y="0"
           id="tspan106">u</tspan></text>
      <path
         d="m 159.184,97.746 36.308,22.34"
         style="fill:none;stroke:#000000;stroke-width:0.6144;stroke-linecap:square;stroke-linejoin:miter;stroke-miterlimit:3.25;stroke-dasharray:none;stroke-opacity:1"
         id="path110" />
      <path
         d="m 174.484,107.16 4.536,5.414 2.343,-3.804 z"
         style="fill:#000000;fill-opacity:1;fill-rule:evenodd;stroke:none"
         id="path112" />
      <text
         xml:space="preserve"
         transform="translate(166.53416,128.11301)"
         style="font-variant:normal;font-size:14.16px;font-family:CairoFont-0;-inkscape-font-specification:CairoFont-0-0;writing-mode:lr-tb;fill:#000000;fill-opacity:1;fill-rule:nonzero;stroke:none"
         id="text116"><tspan
           x="0"
           y="0"
           id="tspan114">u</tspan></text>
      <path
         d="m 195.492,75.402 v 44.684"
         style="fill:none;stroke:#000000;stroke-width:0.6144;stroke-linecap:square;stroke-linejoin:miter;stroke-miterlimit:3.25;stroke-dasharray:none;stroke-opacity:1"
         id="path118" />
      <path
         d="m 195.492,101.098 -2.234,-6.703 h 4.469 z"
         style="fill:#000000;fill-opacity:1;fill-rule:evenodd;stroke:none"
         id="path120" />
      <text
         xml:space="preserve"
         transform="translate(201.91027,102.81577)"
         style="font-variant:normal;font-size:14.16px;font-family:CairoFont-0;-inkscape-font-specification:CairoFont-0-0;writing-mode:lr-tb;fill:#000000;fill-opacity:1;fill-rule:nonzero;stroke:none"
         id="text124"><tspan
           x="0"
           y="0"
           id="tspan122">u</tspan></text>
      <path
         d="m 161.645,97.746 c 0,0.652 -0.262,1.277 -0.723,1.738 -0.461,0.461 -1.086,0.719 -1.738,0.719 -0.649,0 -1.274,-0.258 -1.735,-0.719 -0.461,-0.461 -0.722,-1.086 -0.722,-1.738 0,-0.652 0.261,-1.277 0.722,-1.738 0.461,-0.461 1.086,-0.719 1.735,-0.719 0.652,0 1.277,0.258 1.738,0.719 0.461,0.461 0.723,1.086 0.723,1.738 z"
         style="fill:#000000;fill-opacity:1;fill-rule:evenodd;stroke:none"
         id="path126" />
      <path
         d="m 197.949,75.402 c 0,0.653 -0.258,1.278 -0.719,1.739 -0.46,0.461 -1.085,0.718 -1.738,0.718 -0.652,0 -1.277,-0.257 -1.738,-0.718 -0.461,-0.461 -0.719,-1.086 -0.719,-1.739 0,-0.652 0.258,-1.277 0.719,-1.738 0.461,-0.461 1.086,-0.719 1.738,-0.719 0.653,0 1.278,0.258 1.738,0.719 0.461,0.461 0.719,1.086 0.719,1.738 z"
         style="fill:#000000;fill-opacity:1;fill-rule:evenodd;stroke:none"
         id="path128" />
      <path
         d="m 197.949,120.086 c 0,0.652 -0.258,1.277 -0.719,1.738 -0.46,0.461 -1.085,0.719 -1.738,0.719 -0.652,0 -1.277,-0.258 -1.738,-0.719 -0.461,-0.461 -0.719,-1.086 -0.719,-1.738 0,-0.652 0.258,-1.277 0.719,-1.738 0.461,-0.461 1.086,-0.719 1.738,-0.719 0.653,0 1.278,0.258 1.738,0.719 0.461,0.461 0.719,1.086 0.719,1.738 z"
         style="fill:#000000;fill-opacity:1;fill-rule:evenodd;stroke:none"
         id="path130" />
    </g>
    <g
       id="g132">
      <g
         id="g134"
         clip-path="url(#clipPath138)">
        <text
           xml:space="preserve"
           transform="translate(175.67986,153.92398)"
           style="font-variant:normal;font-size:11.28px;font-family:CairoFont-1;-inkscape-font-specification:CairoFont-1-0;writing-mode:lr-tb;fill:#000000;fill-opacity:1;fill-rule:nonzero;stroke:none"
           id="text142"><tspan
             x="0"
             y="0"
             id="tspan140">2</tspan></text>
      </g>
    </g>
    <g
       id="g144">
      <path
         d="m 282.066,97.746 -0.632,0.52 -0.711,0.414 -0.778,0.289 -0.812,0.152 -0.824,0.008 -0.817,-0.137 -0.781,-0.273 -0.723,-0.399 -0.64,-0.508 -0.547,-0.593 -0.434,-0.657 -0.32,-0.691 -0.195,-0.691 -0.079,-0.668 0.032,-0.614 0.133,-0.527 0.214,-0.426 0.282,-0.304 0.32,-0.168 0.34,-0.024 0.328,0.117 0.297,0.258 0.242,0.387 0.164,0.5 0.066,0.586 -0.039,0.648 -0.156,0.692 -0.277,0.691 -0.399,0.672 -0.508,0.621 -0.609,0.539 -0.699,0.438 -0.762,0.32 -0.804,0.18 -0.829,0.043 -0.82,-0.106 -0.789,-0.242 -0.738,-0.375 -0.66,-0.484 -0.567,-0.579 -0.461,-0.644 -0.347,-0.688 -0.223,-0.695 -0.106,-0.672 0.012,-0.629 0.11,-0.55 0.203,-0.45 0.265,-0.332 0.317,-0.199 0.336,-0.055 0.332,0.09 0.308,0.227 0.254,0.359 0.18,0.473 0.094,0.57 -0.016,0.641 -0.133,0.679 -0.25,0.7 -0.371,0.675 -0.484,0.633 -0.59,0.563 -0.68,0.461 -0.75,0.347 -0.797,0.211 -0.824,0.075 -0.824,-0.075 -0.801,-0.211 -0.75,-0.347 -0.68,-0.461 -0.589,-0.563 -0.485,-0.633 -0.371,-0.675 -0.25,-0.7 -0.129,-0.679 -0.015,-0.641 0.089,-0.57 0.184,-0.473 0.254,-0.359 0.305,-0.227 0.336,-0.09 0.335,0.055 0.313,0.199 0.269,0.332 0.2,0.45 0.113,0.55 0.008,0.629 -0.106,0.672 -0.222,0.695 -0.344,0.688 -0.461,0.644 -0.57,0.579 -0.661,0.484 -0.738,0.375 -0.789,0.242 -0.82,0.106 -0.824,-0.043 -0.809,-0.18 -0.762,-0.32 -0.695,-0.438 -0.613,-0.539 -0.508,-0.621 -0.399,-0.672 -0.277,-0.691 -0.156,-0.692 -0.039,-0.648 0.07,-0.586 0.16,-0.5 0.242,-0.387 0.297,-0.258 0.328,-0.117 0.34,0.024 0.321,0.168 0.281,0.304 0.215,0.426 0.133,0.527 0.035,0.614 -0.078,0.668 -0.2,0.691 -0.316,0.691 -0.438,0.657 -0.546,0.593 -0.641,0.508 -0.723,0.399 -0.781,0.273 -0.812,0.137 -0.829,-0.008 -0.812,-0.152 -0.774,-0.289 -0.714,-0.414 -0.629,-0.52"
         style="fill:none;stroke:#000000;stroke-width:0.6144;stroke-linecap:square;stroke-linejoin:miter;stroke-miterlimit:3.25;stroke-dasharray:none;stroke-opacity:1"
         id="path146" />
      <text
         xml:space="preserve"
         transform="translate(259.65296,116.3217)"
         style="font-variant:normal;font-size:14.16px;font-family:CairoFont-0;-inkscape-font-specification:CairoFont-0-0;writing-mode:lr-tb;fill:#000000;fill-opacity:1;fill-rule:nonzero;stroke:none"
         id="text150"><tspan
           x="0"
           y="0"
           id="tspan148">g</tspan></text>
      <path
         d="m 318.371,75.402 0.606,-0.675 0.726,-0.547 0.817,-0.399 0.882,-0.222 0.91,-0.039 0.899,0.148 0.851,0.32 0.774,0.473 0.664,0.601 0.531,0.696 0.379,0.742 0.227,0.75 0.07,0.715 -0.074,0.633 -0.199,0.523 -0.305,0.371 -0.379,0.207 -0.414,0.024 -0.414,-0.161 -0.379,-0.343 -0.309,-0.5 -0.207,-0.637 -0.082,-0.742 0.063,-0.801 0.219,-0.824 0.375,-0.797 0.519,-0.734 0.66,-0.629 0.766,-0.489 0.848,-0.328 0.898,-0.148 0.91,0.035 0.883,0.219 0.824,0.386 0.731,0.532 0.613,0.64 0.473,0.719 0.316,0.75 0.164,0.742 0.012,0.688 -0.129,0.594 -0.246,0.464 -0.34,0.305 -0.395,0.133 -0.421,-0.051 -0.403,-0.234 -0.355,-0.41 -0.274,-0.559 -0.156,-0.684 -0.027,-0.769 0.129,-0.817 0.281,-0.816 0.433,-0.777 0.582,-0.696 0.704,-0.578 0.804,-0.426 0.871,-0.257 0.907,-0.075 0.906,0.114 0.863,0.289 0.789,0.445 0.688,0.582 0.554,0.676 0.411,0.738 0.257,0.75 0.098,0.727 -0.047,0.652 -0.18,0.547 -0.285,0.402 -0.367,0.239 -0.41,0.058 -0.418,-0.125 -0.387,-0.308 -0.324,-0.473 -0.23,-0.613 -0.106,-0.723 0.035,-0.797 0.188,-0.82 0.343,-0.809 0.497,-0.746 0.632,-0.652 0.75,-0.52 0.836,-0.359 0.891,-0.184 0.91,0.004 0.891,0.184 0.836,0.355 0.754,0.504 0.636,0.625 0.496,0.707 0.352,0.75 0.191,0.746 0.039,0.699 -0.105,0.614 -0.227,0.492 -0.32,0.34 -0.391,0.168 -0.418,-0.02 -0.41,-0.199 -0.367,-0.379 -0.289,-0.531 -0.18,-0.664 -0.05,-0.758 0.093,-0.809 0.254,-0.82 0.407,-0.789 0.554,-0.715 0.68,-0.601 0.789,-0.457 0.863,-0.289 0.903,-0.11 0.906,0.078 0.875,0.254 0.805,0.422 0.707,0.555 0.586,0.664 0.437,0.73 0.285,0.75 0.129,0.735 -0.019,0.668 -0.157,0.57 -0.269,0.434 -0.352,0.269 -0.406,0.094 -0.418,-0.09 -0.398,-0.277 -0.34,-0.442 -0.246,-0.59 -0.133,-0.703 0.008,-0.785 0.156,-0.82 0.316,-0.813 0.469,-0.761 0.609,-0.672 0.727,-0.547 0.82,-0.395 0.887,-0.215 0.906,-0.035 0.899,0.153 0.851,0.324 0.77,0.476"
         style="fill:none;stroke:#000000;stroke-width:0.6144;stroke-linecap:square;stroke-linejoin:miter;stroke-miterlimit:3.25;stroke-dasharray:none;stroke-opacity:1"
         id="path152" />
      <text
         xml:space="preserve"
         transform="translate(332.43588,64.262299)"
         style="font-variant:normal;font-size:14.16px;font-family:CairoFont-0;-inkscape-font-specification:CairoFont-0-0;writing-mode:lr-tb;fill:#000000;fill-opacity:1;fill-rule:nonzero;stroke:none"
         id="text156"><tspan
           x="0"
           y="0"
           id="tspan154">g</tspan></text>
      <path
         d="m 318.371,120.086 0.77,-0.477 0.851,-0.324 0.899,-0.152 0.906,0.031 0.887,0.219 0.82,0.394 0.726,0.543 0.61,0.676 0.469,0.762 0.316,0.812 0.156,0.821 0.008,0.781 -0.133,0.707 -0.246,0.59 -0.34,0.441 -0.398,0.278 -0.418,0.089 -0.406,-0.093 -0.352,-0.27 -0.269,-0.434 -0.157,-0.57 -0.019,-0.668 0.129,-0.734 0.285,-0.754 0.437,-0.727 0.586,-0.664 0.707,-0.554 0.805,-0.422 0.875,-0.254 0.906,-0.078 0.903,0.109 0.863,0.289 0.789,0.457 0.684,0.602 0.55,0.715 0.407,0.789 0.253,0.82 0.098,0.809 -0.055,0.757 -0.179,0.664 -0.289,0.532 -0.367,0.379 -0.411,0.199 -0.418,0.015 -0.39,-0.164 -0.321,-0.339 -0.226,-0.493 -0.106,-0.613 0.039,-0.703 0.192,-0.746 0.351,-0.746 0.497,-0.707 0.636,-0.625 0.754,-0.504 0.836,-0.356 0.891,-0.187 h 0.91 l 0.89,0.183 0.836,0.36 0.75,0.519 0.633,0.653 0.496,0.746 0.344,0.808 0.188,0.821 0.035,0.797 -0.106,0.722 -0.23,0.613 -0.324,0.473 -0.387,0.309 -0.418,0.125 -0.41,-0.059 -0.367,-0.238 -0.286,-0.402 -0.179,-0.547 -0.047,-0.653 0.098,-0.726 0.257,-0.75 0.41,-0.739 0.555,-0.675 0.688,-0.582 0.789,-0.446 0.863,-0.289 0.906,-0.113 0.906,0.074 0.872,0.258 0.804,0.426 0.703,0.574 0.582,0.695 0.434,0.778 0.281,0.82 0.129,0.816 -0.027,0.77 -0.156,0.683 -0.274,0.559 -0.355,0.41 -0.403,0.235 -0.422,0.05 -0.394,-0.132 -0.34,-0.309 -0.246,-0.465 -0.129,-0.59 0.012,-0.687 0.164,-0.742 0.316,-0.75 0.473,-0.719 0.613,-0.641 0.731,-0.531 0.824,-0.387 0.883,-0.218 0.91,-0.036 0.898,0.149 0.848,0.328 0.766,0.488 0.66,0.629 0.523,0.735 0.371,0.796 0.219,0.825 0.063,0.8 -0.083,0.743 -0.207,0.636 -0.308,0.5 -0.379,0.34 -0.414,0.164 -0.414,-0.023 -0.379,-0.207 -0.305,-0.375 -0.199,-0.52 -0.074,-0.637 0.07,-0.71 0.227,-0.75 0.382,-0.743 0.528,-0.695 0.664,-0.602 0.773,-0.472 0.852,-0.32 0.898,-0.149 0.911,0.039 0.882,0.223 0.817,0.398 0.726,0.547 0.606,0.676"
         style="fill:none;stroke:#000000;stroke-width:0.6144;stroke-linecap:square;stroke-linejoin:miter;stroke-miterlimit:3.25;stroke-dasharray:none;stroke-opacity:1"
         id="path158" />
      <text
         xml:space="preserve"
         transform="translate(331.88295,145.23976)"
         style="font-variant:normal;font-size:14.16px;font-family:CairoFont-0;-inkscape-font-specification:CairoFont-0-0;writing-mode:lr-tb;fill:#000000;fill-opacity:1;fill-rule:nonzero;stroke:none"
         id="text162"><tspan
           x="0"
           y="0"
           id="tspan160">g</tspan></text>
      <path
         d="M 282.066,97.746 318.371,75.402"
         style="fill:none;stroke:#000000;stroke-width:0.6144;stroke-linecap:butt;stroke-linejoin:miter;stroke-miterlimit:3.25;stroke-dasharray:0.6144, 3.6864;stroke-dashoffset:0;stroke-opacity:1"
         id="path164" />
      <path
         d="m 297.363,88.332 6.879,-1.609 -2.34,-3.809 z"
         style="fill:#000000;fill-opacity:1;fill-rule:evenodd;stroke:none"
         id="path166" />
      <text
         xml:space="preserve"
         transform="translate(279.23056,77.518523)"
         style="font-variant:normal;font-size:14.16px;font-family:CairoFont-1;-inkscape-font-specification:CairoFont-1-0;writing-mode:lr-tb;fill:#000000;fill-opacity:1;fill-rule:nonzero;stroke:none"
         id="text170"><tspan
           x="0 7.8729601"
           y="0"
           sodipodi:role="line"
           id="tspan168">uG</tspan></text>
      <path
         d="m 282.066,97.746 36.305,22.34"
         style="fill:none;stroke:#000000;stroke-width:0.6144;stroke-linecap:butt;stroke-linejoin:miter;stroke-miterlimit:3.25;stroke-dasharray:0.6144, 3.6864;stroke-dashoffset:0;stroke-opacity:1"
         id="path172" />
      <path
         d="m 303.074,110.672 -6.883,-1.61 2.344,-3.804 z"
         style="fill:#000000;fill-opacity:1;fill-rule:evenodd;stroke:none"
         id="path174" />
      <text
         xml:space="preserve"
         transform="translate(279.23056,128.11301)"
         style="font-variant:normal;font-size:14.16px;font-family:CairoFont-1;-inkscape-font-specification:CairoFont-1-0;writing-mode:lr-tb;fill:#000000;fill-opacity:1;fill-rule:nonzero;stroke:none"
         id="text178"><tspan
           x="0 7.8729601"
           y="0"
           sodipodi:role="line"
           id="tspan176">uG</tspan></text>
      <path
         d="m 318.371,75.402 v 44.684"
         style="fill:none;stroke:#000000;stroke-width:0.6144;stroke-linecap:butt;stroke-linejoin:miter;stroke-miterlimit:3.25;stroke-dasharray:0.6144, 3.6864;stroke-dashoffset:0;stroke-opacity:1"
         id="path180" />
      <path
         d="m 318.371,94.395 -2.234,6.703 h 4.468 z"
         style="fill:#000000;fill-opacity:1;fill-rule:evenodd;stroke:none"
         id="path182" />
      <text
         xml:space="preserve"
         transform="translate(324.79027,102.81577)"
         style="font-variant:normal;font-size:14.16px;font-family:CairoFont-1;-inkscape-font-specification:CairoFont-1-0;writing-mode:lr-tb;fill:#000000;fill-opacity:1;fill-rule:nonzero;stroke:none"
         id="text186"><tspan
           x="0 7.8729601"
           y="0"
           sodipodi:role="line"
           id="tspan184">uG</tspan></text>
      <path
         d="m 284.523,97.746 c 0,0.652 -0.257,1.277 -0.718,1.738 -0.461,0.461 -1.086,0.719 -1.739,0.719 -0.652,0 -1.277,-0.258 -1.738,-0.719 -0.461,-0.461 -0.719,-1.086 -0.719,-1.738 0,-0.652 0.258,-1.277 0.719,-1.738 0.461,-0.461 1.086,-0.719 1.738,-0.719 0.653,0 1.278,0.258 1.739,0.719 0.461,0.461 0.718,1.086 0.718,1.738 z"
         style="fill:#000000;fill-opacity:1;fill-rule:evenodd;stroke:none"
         id="path188" />
      <path
         d="m 320.828,75.402 c 0,0.653 -0.258,1.278 -0.719,1.739 -0.461,0.461 -1.086,0.718 -1.738,0.718 -0.652,0 -1.277,-0.257 -1.738,-0.718 -0.461,-0.461 -0.719,-1.086 -0.719,-1.739 0,-0.652 0.258,-1.277 0.719,-1.738 0.461,-0.461 1.086,-0.719 1.738,-0.719 0.652,0 1.277,0.258 1.738,0.719 0.461,0.461 0.719,1.086 0.719,1.738 z"
         style="fill:#000000;fill-opacity:1;fill-rule:evenodd;stroke:none"
         id="path190" />
      <path
         d="m 320.828,120.086 c 0,0.652 -0.258,1.277 -0.719,1.738 -0.461,0.461 -1.086,0.719 -1.738,0.719 -0.652,0 -1.277,-0.258 -1.738,-0.719 -0.461,-0.461 -0.719,-1.086 -0.719,-1.738 0,-0.652 0.258,-1.277 0.719,-1.738 0.461,-0.461 1.086,-0.719 1.738,-0.719 0.652,0 1.277,0.258 1.738,0.719 0.461,0.461 0.719,1.086 0.719,1.738 z"
         style="fill:#000000;fill-opacity:1;fill-rule:evenodd;stroke:none"
         id="path192" />
    </g>
    <g
       id="g194">
      <g
         id="g196"
         clip-path="url(#clipPath200)">
        <text
           xml:space="preserve"
           transform="translate(298.55986,153.92398)"
           style="font-variant:normal;font-size:11.28px;font-family:CairoFont-1;-inkscape-font-specification:CairoFont-1-0;writing-mode:lr-tb;fill:#000000;fill-opacity:1;fill-rule:nonzero;stroke:none"
           id="text204"><tspan
             x="0"
             y="0"
             id="tspan202">3</tspan></text>
      </g>
    </g>
  </g>
</svg>
