<?xml version="1.0" encoding="UTF-8" standalone="no"?>
<!-- Created with Inkscape (http://www.inkscape.org/) -->

<svg
   version="1.1"
   id="svg2"
   width="246.66667"
   height="246.66667"
   viewBox="0 0 246.66667 246.66667"
   sodipodi:docname="0133bojpmpiil.pdf"
   xmlns:inkscape="http://www.inkscape.org/namespaces/inkscape"
   xmlns:sodipodi="http://sodipodi.sourceforge.net/DTD/sodipodi-0.dtd"
   xmlns="http://www.w3.org/2000/svg"
   xmlns:svg="http://www.w3.org/2000/svg">
  <defs
     id="defs6">
    <clipPath
       clipPathUnits="userSpaceOnUse"
       id="clipPath20">
      <path
         d="m 22,117 h 9.68 v 16 H 22 Z"
         id="path18" />
    </clipPath>
    <clipPath
       clipPathUnits="userSpaceOnUse"
       id="clipPath60">
      <path
         d="m 80,172 h 5 v 12.32 h -5 z"
         id="path58" />
    </clipPath>
  </defs>
  <sodipodi:namedview
     id="namedview4"
     pagecolor="#ffffff"
     bordercolor="#999999"
     borderopacity="1"
     inkscape:showpageshadow="0"
     inkscape:pageopacity="0"
     inkscape:pagecheckerboard="0"
     inkscape:deskcolor="#d1d1d1" />
  <g
     id="g8"
     inkscape:groupmode="layer"
     inkscape:label="0133bojpmpiil"
     transform="matrix(1.3333333,0,0,1.3333333,0,9.5e-6)">
    <g
       id="g10">
      <path
         d="m 50.27,100.539 -0.84,-0.75 -0.836,-0.652 -0.84,-0.465 -0.836,-0.215 -0.84,0.059 -0.836,0.328 -0.84,0.554 -0.836,0.707 -0.836,0.762 -0.839,0.719 -0.836,0.582 -0.84,0.363 -0.836,0.102 -0.84,-0.18 -0.836,-0.433 -0.84,-0.629 -0.836,-0.743 -0.839,-0.757 -0.836,-0.668 -0.84,-0.496 -0.836,-0.254 -0.84,0.019 -0.836,0.293 -0.84,0.524 -0.836,0.687 -0.84,0.762 -0.836,0.734 -0.839,0.606 -0.836,0.398 -0.84,0.137 -0.836,-0.137 -0.84,-0.398 -0.836,-0.606 -0.836,-0.734 -0.84,-0.762 -0.836,-0.687 -0.839,-0.524 -0.836,-0.293 -0.84,-0.019 -0.836,0.254 -0.84,0.496 -0.836,0.668 -0.84,0.757 -0.836,0.743 -0.84,0.629 -0.836,0.433 -0.839,0.18 -0.836,-0.102 -0.84,-0.363 -0.836,-0.582 -0.84,-0.719 L 6.703,100.105 5.863,99.398 5.027,98.844 4.188,98.516 3.352,98.457 2.516,98.672 1.676,99.137 0.84,99.789 0,100.539"
         style="fill:none;stroke:#000000;stroke-width:0.9216;stroke-linecap:square;stroke-linejoin:miter;stroke-miterlimit:3.25;stroke-dasharray:none;stroke-opacity:1"
         id="path12" />
    </g>
    <g
       id="g14">
      <g
         id="g16"
         clip-path="url(#clipPath20)">
        <text
           xml:space="preserve"
           transform="translate(19.55642,128.41036)"
           style="font-variant:normal;font-size:20.16px;font-family:CairoFont-0;-inkscape-font-specification:CairoFont-0-1;writing-mode:lr-tb;fill:#000000;fill-opacity:1;fill-rule:nonzero;stroke:none"
           id="text24"><tspan
             x="0"
             y="0"
             id="tspan22">γ</tspan></text>
      </g>
    </g>
    <g
       id="g26">
      <path
         d="m 117.293,100.539 0.84,0.75 0.836,0.652 0.84,0.461 0.836,0.219 0.839,-0.059 0.836,-0.332 0.84,-0.55 0.836,-0.707 0.84,-0.762 0.836,-0.723 0.84,-0.578 0.836,-0.363 0.84,-0.102 0.835,0.18 0.84,0.43 0.836,0.629 0.84,0.742 0.836,0.758 0.84,0.671 0.836,0.497 0.84,0.253 0.836,-0.019 0.835,-0.293 0.84,-0.527 0.836,-0.688 0.84,-0.762 0.836,-0.73 0.84,-0.606 0.836,-0.398 0.84,-0.141 0.836,0.141 0.839,0.398 0.836,0.606 0.84,0.73 0.836,0.762 0.84,0.688 0.836,0.527 0.84,0.293 0.836,0.019 0.84,-0.253 0.836,-0.497 0.839,-0.671 0.836,-0.758 0.84,-0.742 0.836,-0.629 0.84,-0.43 0.836,-0.18 0.84,0.102 0.836,0.363 0.84,0.578 0.835,0.723 0.836,0.762 0.84,0.707 0.836,0.55 0.84,0.332 0.836,0.059 0.84,-0.219 0.836,-0.461 0.84,-0.652 0.835,-0.75"
         style="fill:none;stroke:#000000;stroke-width:0.9216;stroke-linecap:square;stroke-linejoin:miter;stroke-miterlimit:3.25;stroke-dasharray:none;stroke-opacity:1"
         id="path28" />
      <text
         xml:space="preserve"
         transform="translate(136.85097,87.884749)"
         style="font-variant:normal;font-size:20.16px;font-family:CairoFont-0;-inkscape-font-specification:CairoFont-0-1;writing-mode:lr-tb;fill:#000000;fill-opacity:1;fill-rule:nonzero;stroke:none"
         id="text32"><tspan
           x="0"
           y="0"
           id="tspan30">γ</tspan></text>
      <path
         d="m 50.27,100.539 c 2.3,10.223 9.14,18.836 18.578,23.391 9.433,4.558 20.433,4.558 29.871,0 9.433,-4.555 16.277,-13.168 18.574,-23.391"
         style="fill:none;stroke:#000000;stroke-width:0.9216;stroke-linecap:square;stroke-linejoin:miter;stroke-miterlimit:3.25;stroke-dasharray:none;stroke-opacity:1"
         id="path34" />
      <path
         d="m 78.754,127.348 10.055,3.351 v -6.703 z"
         style="fill:#000000;fill-opacity:1;fill-rule:evenodd;stroke:none"
         id="path36" />
      <text
         xml:space="preserve"
         transform="translate(77.704709,155.22055)"
         style="font-variant:normal;font-size:21.12px;font-family:CairoFont-1;-inkscape-font-specification:CairoFont-1-0;writing-mode:lr-tb;fill:#000000;fill-opacity:1;fill-rule:nonzero;stroke:none"
         id="text40"><tspan
           x="0"
           y="0"
           id="tspan38">e</tspan></text>
      <path
         d="M 117.293,100.539 C 114.996,90.316 108.152,81.703 98.719,77.145 89.281,72.59 78.281,72.59 68.848,77.145 59.41,81.703 52.57,90.316 50.27,100.539"
         style="fill:none;stroke:#000000;stroke-width:0.9216;stroke-linecap:square;stroke-linejoin:miter;stroke-miterlimit:3.25;stroke-dasharray:none;stroke-opacity:1"
         id="path42" />
      <path
         d="M 88.809,73.727 78.754,70.375 v 6.703 z"
         style="fill:#000000;fill-opacity:1;fill-rule:evenodd;stroke:none"
         id="path44" />
      <text
         xml:space="preserve"
         transform="translate(77.704709,61.074568)"
         style="font-variant:normal;font-size:21.12px;font-family:CairoFont-1;-inkscape-font-specification:CairoFont-1-0;writing-mode:lr-tb;fill:#000000;fill-opacity:1;fill-rule:nonzero;stroke:none"
         id="text48"><tspan
           x="0"
           y="0"
           id="tspan46">e</tspan></text>
      <path
         d="m 53.957,100.539 c 0,0.977 -0.391,1.914 -1.082,2.606 -0.691,0.691 -1.629,1.078 -2.605,1.078 -0.977,0 -1.915,-0.387 -2.606,-1.078 -0.691,-0.692 -1.082,-1.629 -1.082,-2.606 0,-0.98 0.391,-1.918 1.082,-2.609 0.691,-0.692 1.629,-1.078 2.606,-1.078 0.976,0 1.914,0.386 2.605,1.078 0.691,0.691 1.082,1.629 1.082,2.609 z"
         style="fill:#000000;fill-opacity:1;fill-rule:evenodd;stroke:none"
         id="path50" />
      <path
         d="m 120.98,100.539 c 0,0.977 -0.386,1.914 -1.078,2.606 -0.691,0.691 -1.629,1.078 -2.609,1.078 -0.977,0 -1.914,-0.387 -2.605,-1.078 -0.692,-0.692 -1.079,-1.629 -1.079,-2.606 0,-0.98 0.387,-1.918 1.079,-2.609 0.691,-0.692 1.628,-1.078 2.605,-1.078 0.98,0 1.918,0.386 2.609,1.078 0.692,0.691 1.078,1.629 1.078,2.609 z"
         style="fill:#000000;fill-opacity:1;fill-rule:evenodd;stroke:none"
         id="path52" />
    </g>
    <g
       id="g54">
      <g
         id="g56"
         clip-path="url(#clipPath60)">
        <text
           xml:space="preserve"
           transform="translate(79.055256,184.68097)"
           style="font-variant:normal;font-size:16.8px;font-family:CairoFont-2;-inkscape-font-specification:CairoFont-2-0;writing-mode:lr-tb;fill:#000000;fill-opacity:1;fill-rule:nonzero;stroke:none"
           id="text64"><tspan
             x="0"
             y="0"
             id="tspan62">1</tspan></text>
      </g>
    </g>
  </g>
</svg>
