<?xml version="1.0" encoding="UTF-8" standalone="no"?>
<!-- Created with Inkscape (http://www.inkscape.org/) -->

<svg
   version="1.1"
   id="svg2"
   width="984"
   height="189.33333"
   viewBox="0 0 984 189.33333"
   sodipodi:docname="017zis4550exy.pdf"
   xmlns:inkscape="http://www.inkscape.org/namespaces/inkscape"
   xmlns:sodipodi="http://sodipodi.sourceforge.net/DTD/sodipodi-0.dtd"
   xmlns="http://www.w3.org/2000/svg"
   xmlns:svg="http://www.w3.org/2000/svg">
  <defs
     id="defs6">
    <clipPath
       clipPathUnits="userSpaceOnUse"
       id="clipPath18">
      <path
         d="M 156.961,44 H 196 v 34 h -39.039 z"
         id="path16" />
    </clipPath>
    <clipPath
       clipPathUnits="userSpaceOnUse"
       id="clipPath36">
      <path
         d="M 156.961,76 H 196 v 34 h -39.039 z"
         id="path34" />
    </clipPath>
    <clipPath
       clipPathUnits="userSpaceOnUse"
       id="clipPath82">
      <path
         d="m 220,132 h 4 v 9.121 h -4 z"
         id="path80" />
    </clipPath>
    <clipPath
       clipPathUnits="userSpaceOnUse"
       id="clipPath100">
      <path
         d="m 305,68 h 10.84 V 80 H 305 Z"
         id="path98" />
    </clipPath>
    <clipPath
       clipPathUnits="userSpaceOnUse"
       id="clipPath118">
      <path
         d="m 319,100 h 11.48 v 12 H 319 Z"
         id="path116" />
    </clipPath>
    <clipPath
       clipPathUnits="userSpaceOnUse"
       id="clipPath150">
      <path
         d="m 358,84 h 9.441 V 99 H 358 Z"
         id="path148" />
    </clipPath>
    <clipPath
       clipPathUnits="userSpaceOnUse"
       id="clipPath170">
      <path
         d="m 358,131 h 5 v 10.121 h -5 z"
         id="path168" />
    </clipPath>
    <clipPath
       clipPathUnits="userSpaceOnUse"
       id="clipPath218">
      <path
         d="m 488,90 h 7.84 v 12 H 488 Z"
         id="path216" />
    </clipPath>
    <clipPath
       clipPathUnits="userSpaceOnUse"
       id="clipPath234">
      <path
         d="m 513,59 h 8.52 V 71 H 513 Z"
         id="path232" />
    </clipPath>
    <clipPath
       clipPathUnits="userSpaceOnUse"
       id="clipPath256">
      <path
         d="m 500,132 h 8 v 9.121 h -8 z"
         id="path254" />
    </clipPath>
  </defs>
  <sodipodi:namedview
     id="namedview4"
     pagecolor="#ffffff"
     bordercolor="#999999"
     borderopacity="1"
     inkscape:showpageshadow="0"
     inkscape:pageopacity="0"
     inkscape:pagecheckerboard="0"
     inkscape:deskcolor="#d1d1d1" />
  <g
     id="g8"
     inkscape:groupmode="layer"
     inkscape:label="017zis4550exy"
     transform="matrix(1.3333333,0,0,1.3333333,0,1.4e-6)">
    <g
       id="g10" />
    <g
       id="g12">
      <g
         id="g14"
         clip-path="url(#clipPath18)">
        <path
           d="m 156.961,44.902 38.488,32.071"
           style="fill:none;stroke:#000000;stroke-width:0.7056;stroke-linecap:square;stroke-linejoin:miter;stroke-miterlimit:3.25;stroke-dasharray:none;stroke-opacity:1"
           id="path20" />
        <path
           d="m 179.16,63.402 -7.555,-2.957 3.286,-3.941 z"
           style="fill:#000000;fill-opacity:1;fill-rule:evenodd;stroke:none"
           id="path22" />
      </g>
    </g>
    <g
       id="g24">
      <text
         xml:space="preserve"
         transform="translate(164.16637,79.899865)"
         style="font-variant:normal;font-size:16.08px;font-family:CairoFont-0;-inkscape-font-specification:CairoFont-0-0;writing-mode:lr-tb;fill:#000000;fill-opacity:1;fill-rule:nonzero;stroke:none"
         id="text28"><tspan
           x="0"
           y="0"
           id="tspan26">e</tspan></text>
    </g>
    <g
       id="g30">
      <g
         id="g32"
         clip-path="url(#clipPath36)">
        <path
           d="M 156.961,109.047 195.449,76.973"
           style="fill:none;stroke:#000000;stroke-width:0.7056;stroke-linecap:square;stroke-linejoin:miter;stroke-miterlimit:3.25;stroke-dasharray:none;stroke-opacity:1"
           id="path38" />
        <path
           d="m 173.246,95.477 7.559,-2.957 -3.285,-3.946 z"
           style="fill:#000000;fill-opacity:1;fill-rule:evenodd;stroke:none"
           id="path40" />
      </g>
    </g>
    <g
       id="g42">
      <text
         xml:space="preserve"
         transform="translate(178.68918,111.97259)"
         style="font-variant:normal;font-size:16.08px;font-family:CairoFont-0;-inkscape-font-specification:CairoFont-0-0;writing-mode:lr-tb;fill:#000000;fill-opacity:1;fill-rule:nonzero;stroke:none"
         id="text46"><tspan
           x="0"
           y="0"
           id="tspan44">e</tspan></text>
      <path
         d="M 285.25,44.902 246.762,76.973"
         style="fill:none;stroke:#000000;stroke-width:0.7056;stroke-linecap:square;stroke-linejoin:miter;stroke-miterlimit:3.25;stroke-dasharray:none;stroke-opacity:1"
         id="path48" />
      <path
         d="m 268.965,58.473 -7.559,2.957 3.285,3.945 z"
         style="fill:#000000;fill-opacity:1;fill-rule:evenodd;stroke:none"
         id="path50" />
      <text
         xml:space="preserve"
         transform="translate(254.46313,53.570249)"
         style="font-variant:normal;font-size:15.12px;font-family:CairoFont-1;-inkscape-font-specification:CairoFont-1-1;writing-mode:lr-tb;fill:#000000;fill-opacity:1;fill-rule:nonzero;stroke:none"
         id="text54"><tspan
           x="0"
           y="0"
           id="tspan52">μ</tspan></text>
      <path
         d="M 285.25,109.047 246.762,76.973"
         style="fill:none;stroke:#000000;stroke-width:0.7056;stroke-linecap:square;stroke-linejoin:miter;stroke-miterlimit:3.25;stroke-dasharray:none;stroke-opacity:1"
         id="path56" />
      <path
         d="m 263.051,90.547 7.554,2.957 -3.285,3.941 z"
         style="fill:#000000;fill-opacity:1;fill-rule:evenodd;stroke:none"
         id="path58" />
      <text
         xml:space="preserve"
         transform="translate(268.49282,85.642976)"
         style="font-variant:normal;font-size:15.12px;font-family:CairoFont-1;-inkscape-font-specification:CairoFont-1-1;writing-mode:lr-tb;fill:#000000;fill-opacity:1;fill-rule:nonzero;stroke:none"
         id="text62"><tspan
           x="0"
           y="0"
           id="tspan60">μ</tspan></text>
      <path
         d="m 246.762,76.973 -0.641,-0.555 -0.641,-0.484 -0.64,-0.36 -0.641,-0.183 -0.644,0.011 -0.641,0.207 -0.641,0.375 -0.64,0.496 -0.641,0.559 -0.644,0.551 -0.641,0.472 -0.641,0.344 -0.64,0.164 -0.641,-0.035 -0.644,-0.226 -0.641,-0.391 -0.641,-0.508 -0.64,-0.558 -0.645,-0.547 -0.64,-0.461 -0.641,-0.324 -0.641,-0.141 -0.64,0.055 -0.645,0.246 -0.64,0.406 -0.641,0.516 -0.641,0.562 -0.64,0.539 -0.645,0.453 -0.64,0.301 -0.641,0.121 -0.641,-0.074 -0.644,-0.266 -0.641,-0.422 -0.641,-0.527 -0.64,-0.562 -0.641,-0.532 -0.644,-0.437 -0.641,-0.285 -0.641,-0.098 -0.64,0.098 -0.641,0.285 -0.644,0.437 -0.641,0.532 -0.641,0.562 -0.64,0.527 -0.645,0.422 -0.64,0.266 -0.641,0.074 -0.641,-0.121 -0.64,-0.301 -0.645,-0.453 -0.64,-0.539 -0.641,-0.562 -0.641,-0.516 -0.64,-0.406 -0.645,-0.246 -0.64,-0.055 -0.641,0.141 -0.641,0.324 -0.64,0.461 -0.645,0.547 -0.64,0.558 -0.641,0.508 -0.641,0.391 -0.644,0.226 -0.641,0.035 -0.64,-0.164 -0.641,-0.344 -0.641,-0.472 -0.644,-0.551 -0.641,-0.559 -0.64,-0.496 -0.641,-0.375 -0.641,-0.207 -0.644,-0.011 -0.641,0.183 -0.641,0.36 -0.64,0.484 -0.641,0.555"
         style="fill:none;stroke:#000000;stroke-width:0.7056;stroke-linecap:square;stroke-linejoin:miter;stroke-miterlimit:3.25;stroke-dasharray:none;stroke-opacity:1"
         id="path64" />
      <text
         xml:space="preserve"
         transform="translate(216.92577,98.240699)"
         style="font-variant:normal;font-size:15.12px;font-family:CairoFont-1;-inkscape-font-specification:CairoFont-1-1;writing-mode:lr-tb;fill:#000000;fill-opacity:1;fill-rule:nonzero;stroke:none"
         id="text68"><tspan
           x="0"
           y="0"
           id="tspan66">γ</tspan></text>
      <path
         d="m 198.27,76.973 c 0,0.75 -0.297,1.468 -0.829,1.996 -0.527,0.531 -1.246,0.828 -1.992,0.828 -0.75,0 -1.469,-0.297 -1.996,-0.828 -0.531,-0.528 -0.828,-1.246 -0.828,-1.996 0,-0.746 0.297,-1.465 0.828,-1.993 0.527,-0.531 1.246,-0.828 1.996,-0.828 0.746,0 1.465,0.297 1.992,0.828 0.532,0.528 0.829,1.247 0.829,1.993 z"
         style="fill:#000000;fill-opacity:1;fill-rule:evenodd;stroke:none"
         id="path70" />
      <path
         d="m 243.555,80.184 6.418,-6.418"
         style="fill:none;stroke:#000000;stroke-width:2.1168;stroke-linecap:square;stroke-linejoin:miter;stroke-miterlimit:3.25;stroke-dasharray:none;stroke-opacity:1"
         id="path72" />
      <path
         d="m 243.555,73.766 6.418,6.418"
         style="fill:none;stroke:#000000;stroke-width:2.1168;stroke-linecap:square;stroke-linejoin:miter;stroke-miterlimit:3.25;stroke-dasharray:none;stroke-opacity:1"
         id="path74" />
    </g>
    <g
       id="g76">
      <g
         id="g78"
         clip-path="url(#clipPath82)">
        <text
           xml:space="preserve"
           transform="translate(217.49608,141.4054)"
           style="font-variant:normal;font-size:12.96px;font-family:CairoFont-0;-inkscape-font-specification:CairoFont-0-0;writing-mode:lr-tb;fill:#000000;fill-opacity:1;fill-rule:nonzero;stroke:none"
           id="text86"><tspan
             x="0"
             y="0"
             id="tspan84">1</tspan></text>
      </g>
    </g>
    <g
       id="g88">
      <path
         d="m 298.078,44.902 38.488,32.071"
         style="fill:none;stroke:#000000;stroke-width:0.7056;stroke-linecap:square;stroke-linejoin:miter;stroke-miterlimit:3.25;stroke-dasharray:none;stroke-opacity:1"
         id="path90" />
      <path
         d="m 320.281,63.402 -7.558,-2.957 3.285,-3.941 z"
         style="fill:#000000;fill-opacity:1;fill-rule:evenodd;stroke:none"
         id="path92" />
    </g>
    <g
       id="g94">
      <g
         id="g96"
         clip-path="url(#clipPath100)">
        <text
           xml:space="preserve"
           transform="translate(305.28637,79.899865)"
           style="font-variant:normal;font-size:16.08px;font-family:CairoFont-1;-inkscape-font-specification:CairoFont-1-1;writing-mode:lr-tb;fill:#000000;fill-opacity:1;fill-rule:nonzero;stroke:none"
           id="text104"><tspan
             x="0"
             y="0"
             id="tspan102">Α</tspan></text>
      </g>
    </g>
    <g
       id="g106">
      <path
         d="M 298.078,109.047 336.566,76.973"
         style="fill:none;stroke:#000000;stroke-width:0.7056;stroke-linecap:square;stroke-linejoin:miter;stroke-miterlimit:3.25;stroke-dasharray:none;stroke-opacity:1"
         id="path108" />
      <path
         d="m 314.367,95.477 7.555,-2.957 -3.285,-3.946 z"
         style="fill:#000000;fill-opacity:1;fill-rule:evenodd;stroke:none"
         id="path110" />
    </g>
    <g
       id="g112">
      <g
         id="g114"
         clip-path="url(#clipPath118)">
        <text
           xml:space="preserve"
           transform="translate(319.80918,111.97259)"
           style="font-variant:normal;font-size:16.08px;font-family:CairoFont-1;-inkscape-font-specification:CairoFont-1-1;writing-mode:lr-tb;fill:#000000;fill-opacity:1;fill-rule:nonzero;stroke:none"
           id="text122"><tspan
             x="0"
             y="0"
             id="tspan120">Α</tspan></text>
      </g>
    </g>
    <g
       id="g124">
      <path
         d="M 426.371,44.902 387.883,76.973"
         style="fill:none;stroke:#000000;stroke-width:0.7056;stroke-linecap:square;stroke-linejoin:miter;stroke-miterlimit:3.25;stroke-dasharray:none;stroke-opacity:1"
         id="path126" />
      <path
         d="m 410.082,58.473 -7.555,2.957 3.285,3.945 z"
         style="fill:#000000;fill-opacity:1;fill-rule:evenodd;stroke:none"
         id="path128" />
      <text
         xml:space="preserve"
         transform="translate(395.58313,53.570249)"
         style="font-variant:normal;font-size:15.12px;font-family:CairoFont-0;-inkscape-font-specification:CairoFont-0-0;writing-mode:lr-tb;fill:#000000;fill-opacity:1;fill-rule:nonzero;stroke:none"
         id="text132"><tspan
           x="0"
           y="0"
           id="tspan130">â</tspan></text>
      <path
         d="M 426.371,109.047 387.883,76.973"
         style="fill:none;stroke:#000000;stroke-width:0.7056;stroke-linecap:square;stroke-linejoin:miter;stroke-miterlimit:3.25;stroke-dasharray:none;stroke-opacity:1"
         id="path134" />
      <path
         d="m 404.172,90.547 7.555,2.957 -3.286,3.941 z"
         style="fill:#000000;fill-opacity:1;fill-rule:evenodd;stroke:none"
         id="path136" />
      <text
         xml:space="preserve"
         transform="translate(409.61282,85.642976)"
         style="font-variant:normal;font-size:15.12px;font-family:CairoFont-0;-inkscape-font-specification:CairoFont-0-0;writing-mode:lr-tb;fill:#000000;fill-opacity:1;fill-rule:nonzero;stroke:none"
         id="text140"><tspan
           x="0"
           y="0"
           id="tspan138">â</tspan></text>
      <path
         d="m 387.883,76.973 -0.641,-0.555 -0.64,-0.484 -0.641,-0.36 -0.645,-0.183 -0.64,0.011 -0.641,0.207 -0.64,0.375 -0.645,0.496 -0.641,0.559 -0.64,0.551 -0.641,0.472 -0.64,0.344 -0.641,0.164 -0.645,-0.035 -0.64,-0.226 -0.641,-0.391 -0.641,-0.508 -0.644,-0.558 -0.641,-0.547 -0.64,-0.461 -0.641,-0.324 -0.641,-0.141 -0.644,0.055 -0.641,0.246 -0.64,0.406 -0.641,0.516 -0.645,0.562 -0.64,0.539 -0.641,0.453 -0.64,0.301 -0.641,0.121 -0.645,-0.074 -0.64,-0.266 -0.641,-0.422 -0.64,-0.527 -0.641,-0.562 -0.645,-0.532 -0.64,-0.437 -0.641,-0.285 -0.64,-0.098 -0.641,0.098 -0.645,0.285 -0.64,0.437 -0.641,0.532 -0.64,0.562 -0.645,0.527 -0.641,0.422 -0.64,0.266 -0.641,0.074 -0.641,-0.121 -0.644,-0.301 -0.641,-0.453 -0.64,-0.539 -0.641,-0.562 -0.641,-0.516 -0.644,-0.406 -0.641,-0.246 -0.64,-0.055 -0.641,0.141 -0.644,0.324 -0.641,0.461 -0.641,0.547 -0.64,0.558 -0.641,0.508 -0.644,0.391 -0.641,0.226 -0.641,0.035 -0.64,-0.164 -0.641,-0.344 -0.645,-0.472 -0.64,-0.551 -0.641,-0.559 -0.64,-0.496 -0.641,-0.375 -0.645,-0.207 -0.64,-0.011 -0.641,0.183 -0.64,0.36 -0.645,0.484 -0.641,0.555"
         style="fill:none;stroke:#000000;stroke-width:0.7056;stroke-linecap:square;stroke-linejoin:miter;stroke-miterlimit:3.25;stroke-dasharray:none;stroke-opacity:1"
         id="path142" />
    </g>
    <g
       id="g144">
      <g
         id="g146"
         clip-path="url(#clipPath150)">
        <text
           xml:space="preserve"
           transform="translate(358.04577,98.240699)"
           style="font-variant:normal;font-size:15.12px;font-family:CairoFont-0;-inkscape-font-specification:CairoFont-0-0;writing-mode:lr-tb;fill:#000000;fill-opacity:1;fill-rule:nonzero;stroke:none"
           id="text154"><tspan
             x="0"
             y="0"
             id="tspan152">Ä</tspan></text>
      </g>
    </g>
    <g
       id="g156">
      <path
         d="m 390.707,76.973 c 0,0.75 -0.297,1.468 -0.828,1.996 -0.527,0.531 -1.246,0.828 -1.996,0.828 -0.746,0 -1.465,-0.297 -1.996,-0.828 -0.528,-0.528 -0.825,-1.246 -0.825,-1.996 0,-0.746 0.297,-1.465 0.825,-1.993 0.531,-0.531 1.25,-0.828 1.996,-0.828 0.75,0 1.469,0.297 1.996,0.828 0.531,0.528 0.828,1.247 0.828,1.993 z"
         style="fill:#000000;fill-opacity:1;fill-rule:evenodd;stroke:none"
         id="path158" />
      <path
         d="m 333.359,80.184 6.414,-6.418"
         style="fill:none;stroke:#000000;stroke-width:2.1168;stroke-linecap:square;stroke-linejoin:miter;stroke-miterlimit:3.25;stroke-dasharray:none;stroke-opacity:1"
         id="path160" />
      <path
         d="m 333.359,73.766 6.414,6.418"
         style="fill:none;stroke:#000000;stroke-width:2.1168;stroke-linecap:square;stroke-linejoin:miter;stroke-miterlimit:3.25;stroke-dasharray:none;stroke-opacity:1"
         id="path162" />
    </g>
    <g
       id="g164">
      <g
         id="g166"
         clip-path="url(#clipPath170)">
        <text
           xml:space="preserve"
           transform="translate(358.61608,141.4054)"
           style="font-variant:normal;font-size:12.96px;font-family:CairoFont-1;-inkscape-font-specification:CairoFont-1-0;writing-mode:lr-tb;fill:#000000;fill-opacity:1;fill-rule:nonzero;stroke:none"
           id="text174"><tspan
             x="0"
             y="0"
             id="tspan172">{</tspan></text>
      </g>
    </g>
    <g
       id="g176">
      <path
         d="m 439.199,44.902 38.489,32.071"
         style="fill:none;stroke:#000000;stroke-width:0.7056;stroke-linecap:square;stroke-linejoin:miter;stroke-miterlimit:3.25;stroke-dasharray:none;stroke-opacity:1"
         id="path178" />
      <path
         d="m 461.398,63.402 -7.554,-2.957 3.285,-3.941 z"
         style="fill:#000000;fill-opacity:1;fill-rule:evenodd;stroke:none"
         id="path180" />
      <text
         xml:space="preserve"
         transform="translate(446.40637,79.899865)"
         style="font-variant:normal;font-size:16.08px;font-family:CairoFont-0;-inkscape-font-specification:CairoFont-0-0;writing-mode:lr-tb;fill:#000000;fill-opacity:1;fill-rule:nonzero;stroke:none"
         id="text184"><tspan
           x="0"
           y="0"
           id="tspan182">e</tspan></text>
      <path
         d="M 439.199,109.047 477.688,76.973"
         style="fill:none;stroke:#000000;stroke-width:0.7056;stroke-linecap:square;stroke-linejoin:miter;stroke-miterlimit:3.25;stroke-dasharray:none;stroke-opacity:1"
         id="path186" />
      <path
         d="m 455.488,95.477 7.555,-2.957 -3.285,-3.946 z"
         style="fill:#000000;fill-opacity:1;fill-rule:evenodd;stroke:none"
         id="path188" />
      <text
         xml:space="preserve"
         transform="translate(460.92918,111.97259)"
         style="font-variant:normal;font-size:16.08px;font-family:CairoFont-0;-inkscape-font-specification:CairoFont-0-0;writing-mode:lr-tb;fill:#000000;fill-opacity:1;fill-rule:nonzero;stroke:none"
         id="text192"><tspan
           x="0"
           y="0"
           id="tspan190">e</tspan></text>
      <path
         d="M 567.492,44.902 529.004,76.973"
         style="fill:none;stroke:#000000;stroke-width:0.7056;stroke-linecap:square;stroke-linejoin:miter;stroke-miterlimit:3.25;stroke-dasharray:none;stroke-opacity:1"
         id="path194" />
      <path
         d="m 551.203,58.473 -7.555,2.957 3.286,3.945 z"
         style="fill:#000000;fill-opacity:1;fill-rule:evenodd;stroke:none"
         id="path196" />
      <text
         xml:space="preserve"
         transform="translate(536.70313,53.570249)"
         style="font-variant:normal;font-size:15.12px;font-family:CairoFont-1;-inkscape-font-specification:CairoFont-1-1;writing-mode:lr-tb;fill:#000000;fill-opacity:1;fill-rule:nonzero;stroke:none"
         id="text200"><tspan
           x="0"
           y="0"
           id="tspan198">μ</tspan></text>
      <path
         d="M 567.492,109.047 529.004,76.973"
         style="fill:none;stroke:#000000;stroke-width:0.7056;stroke-linecap:square;stroke-linejoin:miter;stroke-miterlimit:3.25;stroke-dasharray:none;stroke-opacity:1"
         id="path202" />
      <path
         d="m 545.289,90.547 7.559,2.957 -3.286,3.941 z"
         style="fill:#000000;fill-opacity:1;fill-rule:evenodd;stroke:none"
         id="path204" />
      <text
         xml:space="preserve"
         transform="translate(550.73282,85.642976)"
         style="font-variant:normal;font-size:15.12px;font-family:CairoFont-1;-inkscape-font-specification:CairoFont-1-1;writing-mode:lr-tb;fill:#000000;fill-opacity:1;fill-rule:nonzero;stroke:none"
         id="text208"><tspan
           x="0"
           y="0"
           id="tspan206">μ</tspan></text>
      <path
         d="m 477.688,76.973 0.64,0.617 0.641,0.519 0.644,0.348 0.641,0.121 0.641,-0.121 0.64,-0.348 0.641,-0.523 0.644,-0.613 0.641,-0.614 0.641,-0.519 0.64,-0.348 0.641,-0.121 0.644,0.121 0.641,0.348 0.641,0.519 0.64,0.614 0.645,0.613 0.64,0.523 0.641,0.348 0.641,0.121 0.64,-0.121 0.645,-0.348 0.64,-0.523 1.282,-1.227 0.64,-0.519 0.645,-0.348 0.64,-0.121 0.641,0.121 0.641,0.348 0.644,0.519 1.281,1.227 0.641,0.523 0.641,0.348 0.644,0.121 0.641,-0.121 0.64,-0.348 0.641,-0.519 0.641,-0.617"
         style="fill:none;stroke:#000000;stroke-width:0.7056;stroke-linecap:square;stroke-linejoin:miter;stroke-miterlimit:3.25;stroke-dasharray:none;stroke-opacity:1"
         id="path210" />
    </g>
    <g
       id="g212">
      <g
         id="g214"
         clip-path="url(#clipPath218)">
        <text
           xml:space="preserve"
           transform="translate(486.33668,98.240699)"
           style="font-variant:normal;font-size:15.12px;font-family:CairoFont-1;-inkscape-font-specification:CairoFont-1-1;writing-mode:lr-tb;fill:#000000;fill-opacity:1;fill-rule:nonzero;stroke:none"
           id="text222"><tspan
             x="0"
             y="0"
             id="tspan220">γ</tspan></text>
      </g>
    </g>
    <g
       id="g224">
      <path
         d="m 529.004,76.973 -0.641,-0.614 -0.644,-0.519 -0.641,-0.348 -0.64,-0.121 -0.641,0.121 -0.641,0.348 -0.644,0.519 -0.641,0.618 -0.641,0.613 -0.64,0.519 -0.641,0.348 -0.644,0.121 -0.641,-0.121 -0.641,-0.348 -0.64,-0.519 -0.641,-0.613 -0.644,-0.614 -0.641,-0.523 -0.641,-0.348 -0.64,-0.121 -0.645,0.121 -0.64,0.348 -0.641,0.523 -1.281,1.227 -0.645,0.519 -0.64,0.348 -0.641,0.121 -0.641,-0.121 -0.64,-0.348 -0.645,-0.519 -0.64,-0.613 -0.641,-0.618 -0.641,-0.519 -0.64,-0.348 -0.645,-0.121 -0.64,0.121 -0.641,0.348 -0.641,0.519 -0.644,0.614"
         style="fill:none;stroke:#000000;stroke-width:0.7056;stroke-linecap:square;stroke-linejoin:miter;stroke-miterlimit:3.25;stroke-dasharray:none;stroke-opacity:1"
         id="path226" />
    </g>
    <g
       id="g228">
      <g
         id="g230"
         clip-path="url(#clipPath234)">
        <text
           xml:space="preserve"
           transform="translate(511.99486,67.302142)"
           style="font-variant:normal;font-size:15.12px;font-family:CairoFont-1;-inkscape-font-specification:CairoFont-1-1;writing-mode:lr-tb;fill:#000000;fill-opacity:1;fill-rule:nonzero;stroke:none"
           id="text238"><tspan
             x="0"
             y="0"
             id="tspan236">γ</tspan></text>
      </g>
    </g>
    <g
       id="g240">
      <path
         d="m 480.508,76.973 c 0,0.75 -0.297,1.468 -0.824,1.996 -0.532,0.531 -1.246,0.828 -1.996,0.828 -0.75,0 -1.465,-0.297 -1.997,-0.828 -0.527,-0.528 -0.828,-1.246 -0.828,-1.996 0,-0.746 0.301,-1.465 0.828,-1.993 0.532,-0.531 1.247,-0.828 1.997,-0.828 0.75,0 1.464,0.297 1.996,0.828 0.527,0.528 0.824,1.247 0.824,1.993 z"
         style="fill:#000000;fill-opacity:1;fill-rule:evenodd;stroke:none"
         id="path242" />
      <path
         d="m 531.824,76.973 c 0,0.75 -0.297,1.468 -0.824,1.996 -0.531,0.531 -1.246,0.828 -1.996,0.828 -0.75,0 -1.465,-0.297 -1.996,-0.828 -0.528,-0.528 -0.828,-1.246 -0.828,-1.996 0,-0.746 0.3,-1.465 0.828,-1.993 0.531,-0.531 1.246,-0.828 1.996,-0.828 0.75,0 1.465,0.297 1.996,0.828 0.527,0.528 0.824,1.247 0.824,1.993 z"
         style="fill:#000000;fill-opacity:1;fill-rule:evenodd;stroke:none"
         id="path244" />
      <path
         d="m 500.137,80.184 6.414,-6.418"
         style="fill:none;stroke:#000000;stroke-width:2.1168;stroke-linecap:square;stroke-linejoin:miter;stroke-miterlimit:3.25;stroke-dasharray:none;stroke-opacity:1"
         id="path246" />
      <path
         d="m 500.137,73.766 6.414,6.418"
         style="fill:none;stroke:#000000;stroke-width:2.1168;stroke-linecap:square;stroke-linejoin:miter;stroke-miterlimit:3.25;stroke-dasharray:none;stroke-opacity:1"
         id="path248" />
    </g>
    <g
       id="g250">
      <g
         id="g252"
         clip-path="url(#clipPath256)">
        <text
           xml:space="preserve"
           transform="translate(499.73608,141.4054)"
           style="font-variant:normal;font-size:12.96px;font-family:CairoFont-0;-inkscape-font-specification:CairoFont-0-0;writing-mode:lr-tb;fill:#000000;fill-opacity:1;fill-rule:nonzero;stroke:none"
           id="text260"><tspan
             x="0"
             y="0"
             id="tspan258">3</tspan></text>
      </g>
    </g>
  </g>
</svg>
