<?xml version="1.0" encoding="UTF-8" standalone="no"?>
<!-- Created with Inkscape (http://www.inkscape.org/) -->

<svg
   version="1.1"
   id="svg1"
   width="492"
   height="246.66667"
   viewBox="0 0 492 246.66667"
   sodipodi:docname="02syui52uzcpa.pdf"
   xmlns:inkscape="http://www.inkscape.org/namespaces/inkscape"
   xmlns:sodipodi="http://sodipodi.sourceforge.net/DTD/sodipodi-0.dtd"
   xmlns="http://www.w3.org/2000/svg"
   xmlns:svg="http://www.w3.org/2000/svg">
  <defs
     id="defs1">
    <clipPath
       clipPathUnits="userSpaceOnUse"
       id="clipPath6">
      <path
         d="m 28,155 h 9.68 v 16 H 28 Z"
         transform="translate(-25.582036,-165.98167)"
         id="path6" />
    </clipPath>
    <clipPath
       clipPathUnits="userSpaceOnUse"
       id="clipPath15">
      <path
         d="m 90,62 h 9.602 V 78 H 90 Z"
         transform="translate(-87.615265,-73.05478)"
         id="path15" />
    </clipPath>
    <clipPath
       clipPathUnits="userSpaceOnUse"
       id="clipPath23">
      <path
         d="m 80,172 h 5 v 12.32 h -5 z"
         transform="translate(-79.055259,-184.68097)"
         id="path23" />
    </clipPath>
    <clipPath
       clipPathUnits="userSpaceOnUse"
       id="clipPath29">
      <path
         d="m 223,129 h 12.441 v 19 H 223 Z"
         transform="translate(-223.26135,-147.72161)"
         id="path29" />
    </clipPath>
    <clipPath
       clipPathUnits="userSpaceOnUse"
       id="clipPath36">
      <path
         d="m 263,172 h 10 v 12.32 h -10 z"
         transform="translate(-263.37526,-184.68097)"
         id="path36" />
    </clipPath>
  </defs>
  <sodipodi:namedview
     id="namedview1"
     pagecolor="#ffffff"
     bordercolor="#999999"
     borderopacity="1"
     inkscape:showpageshadow="0"
     inkscape:pageopacity="0"
     inkscape:pagecheckerboard="0"
     inkscape:deskcolor="#d1d1d1">
    <inkscape:page
       x="0"
       y="0"
       id="page1"
       width="492"
       height="246.66667"
       margin="0"
       bleed="0" />
  </sodipodi:namedview>
  <g
     id="g1"
     inkscape:groupmode="layer"
     inkscape:label="">
    <path
       id="path1"
       d="m 0,58.648 58.648,8.379"
       style="fill:none;stroke:#000000;stroke-width:0.9216;stroke-linecap:square;stroke-linejoin:miter;stroke-miterlimit:3.25;stroke-dasharray:none;stroke-opacity:1"
       transform="scale(1.3333333)" />
    <path
       id="path2"
       d="M 34.301,63.547 23.875,65.441 24.82,58.809 Z"
       style="fill:#000000;fill-opacity:1;fill-rule:evenodd;stroke:none"
       transform="scale(1.3333333)" />
    <path
       id="path3"
       d="m 11.872028,-9.2919646 c 0.269531,0.5507812 0.375,1.2070312 0.339844,1.9453125 0,0.5039062 -0.105469,1.3125 -0.339844,2.4257812 H 3.7626531 c -0.2109375,1.125 -0.1289062,2.0273438 0.234375,2.7070313 0.328125,0.6679687 1.03125,1.0078125 2.0859375,1.0078125 0.9492188,0 1.7929688,-0.3164063 2.5078125,-0.9726563 0.4101563,-0.3515625 0.7382813,-0.7734375 0.9726563,-1.2890625 h 1.8398436 c -0.152344,0.4335938 -0.398437,0.8671875 -0.785156,1.3828125 -0.375,0.4804688 -0.7500001,0.9023438 -1.1601564,1.19531253 -0.6679687,0.57421875 -1.453125,0.9375 -2.34375,1.125 -0.4570312,0.10546875 -0.984375,0.1640625 -1.5351562,0.1640625 -1.3710938,0 -2.4492188,-0.50390625 -3.1875,-1.50000003 -0.7382813,-0.984375 -0.9140625,-2.4023437 -0.5273438,-4.1953125 0.375,-1.78125 1.1601563,-3.2109375 2.3554688,-4.3359375 1.1835937,-1.0898436 2.5546875,-1.6406246 4.125,-1.6406246 0.7734375,0 1.5,0.1875 2.1679686,0.550781 0.65625,0.351562 1.101563,0.8437499 1.359375,1.4296874 z m -1.605469,2.8945312 c 0.08203,-0.796875 0.05859,-1.4414062 -0.128906,-1.921875 -0.3164061,-0.890625 -1.0546874,-1.3476562 -2.2382811,-1.3476562 -0.8671875,0 -1.6523438,0.3164062 -2.34375,0.9257812 -0.7148438,0.609375 -1.1835938,1.3945313 -1.4414063,2.34375 z m 0,0"
       style="fill:#000000;fill-opacity:1;fill-rule:nonzero;stroke:none"
       aria-label="e"
       transform="matrix(1.3333333,0,0,1.3333333,33.444067,67.084599)" />
    <path
       id="path4"
       d="m 58.648,134.051 -0.957,-0.696 -0.933,-0.562 -0.903,-0.324 -0.855,-0.012 -0.809,0.324 -0.765,0.625 -0.735,0.844 -0.718,0.945 -0.727,0.918 -0.746,0.758 -0.781,0.496 -0.832,0.176 -0.875,-0.156 -0.918,-0.442 -0.949,-0.636 -0.954,-0.711 -0.949,-0.653 -0.922,-0.468 -0.882,-0.192 -0.836,0.141 -0.79,0.465 -0.75,0.73 -0.722,0.906 -0.723,0.95 -0.73,0.863 -0.762,0.652 -0.805,0.36 -0.851,0.023 -0.895,-0.289 -0.933,-0.543 -0.953,-0.688 -0.954,-0.699 -0.937,-0.586 -0.906,-0.355 -0.864,-0.047 -0.812,0.289 -0.77,0.594 -0.738,0.824 -0.723,0.937 -0.722,0.93 -0.742,0.781 -0.778,0.528 -0.824,0.215 -0.875,-0.121 -0.914,-0.415 -0.941,-0.621 -0.958,-0.711 -0.949,-0.664 -0.926,-0.492 -0.886,-0.226 -0.84,0.101 -0.797,0.43 -0.75,0.707 -0.73,0.891 -0.719,0.953 -0.731,0.875 -0.757,0.683 -0.797,0.395 -0.848,0.062 -0.891,-0.258 -0.929,-0.519 -0.95,-0.676 -0.957,-0.707 -0.941,-0.605 -0.91,-0.383 -0.867,-0.086 -0.817,0.25 -0.777,0.562 -0.738,0.805 L 0,142.43"
       style="fill:none;stroke:#000000;stroke-width:0.9216;stroke-linecap:square;stroke-linejoin:miter;stroke-miterlimit:3.25;stroke-dasharray:none;stroke-opacity:1"
       transform="scale(1.3333333)" />
    <path
       id="path5"
       d="M 12.05859,-10.441626 5.9062463,-2.196875e-4 V 0.19899906 c 0,0.12890625 0.023437,0.24609375 0.023437,0.36328125 0,0.1171875 0,0.24609375 0,0.36328125 0,0.18750004 0,0.38671874 -0.023437,0.60937504 -0.023437,0.234375 -0.058594,0.4804687 -0.1054688,0.7382812 -0.035156,0.2460938 -0.09375,0.4921875 -0.1523437,0.75 -0.082031,0.2460938 -0.1875,0.46875 -0.3046875,0.6445313 C 5.21484,3.8669678 5.074215,4.0310303 4.8984338,4.1482178 c -0.1640625,0.1289063 -0.3632813,0.1875 -0.609375,0.1875 -0.1757813,0 -0.3398438,-0.046875 -0.4804688,-0.1289062 C 3.667965,4.1364991 3.5507775,4.0544678 3.4453088,3.9255616 3.3515588,3.8083741 3.2695275,3.6677491 3.2226525,3.5036866 3.1640588,3.3513428 3.1406213,3.1638428 3.1406213,2.9997803 c 0,-0.3164062 0.046875,-0.5976562 0.082031,-0.8671875 C 3.2812463,1.8747803 3.3515588,1.6286866 3.4453088,1.3943116 3.52734,1.1716553 3.6328088,0.92556156 3.7499963,0.67946781 3.8671838,0.46853031 3.99609,0.19899906 4.136715,-0.08225094 L 2.4843713,-10.441626 h 1.8515625 l 1.171875,8.2500001 4.7460942,-8.2500001 z m 0,0"
       style="fill:#000000;fill-opacity:1;fill-rule:nonzero;stroke:none"
       aria-label="γ"
       transform="matrix(1.3333333,0,0,1.3333333,34.10938,221.30889)"
       clip-path="url(#clipPath6)" />
    <path
       id="path7"
       d="M 167.562,100.539 H 113.105"
       style="fill:none;stroke:#000000;stroke-width:0.9216;stroke-linecap:square;stroke-linejoin:miter;stroke-miterlimit:3.25;stroke-dasharray:none;stroke-opacity:1"
       transform="scale(1.3333333)" />
    <path
       id="path8"
       d="m 145.363,100.539 -10.054,-3.351 v 6.703 z"
       style="fill:#000000;fill-opacity:1;fill-rule:evenodd;stroke:none"
       transform="scale(1.3333333)" />
    <path
       id="path9"
       d="m 11.872447,-9.2929521 c 0.269531,0.5507812 0.375,1.2070312 0.339844,1.9453125 0,0.5039062 -0.105469,1.3125 -0.339844,2.4257812 H 3.7630718 c -0.2109375,1.125 -0.1289062,2.0273438 0.234375,2.7070313 0.328125,0.6679687 1.03125,1.0078125 2.0859375,1.0078125 0.9492188,0 1.7929688,-0.3164063 2.5078125,-0.9726563 0.4101563,-0.3515625 0.7382813,-0.7734375 0.9726563,-1.2890625 h 1.8398439 c -0.152344,0.4335938 -0.398438,0.8671875 -0.785156,1.3828125 -0.375,0.4804688 -0.7500004,0.9023438 -1.1601567,1.19531253 -0.6679687,0.57421875 -1.453125,0.9375 -2.34375,1.125 -0.4570312,0.10546875 -0.984375,0.1640625 -1.5351562,0.1640625 -1.3710938,0 -2.4492188,-0.50390625 -3.1875,-1.50000003 -0.7382813,-0.984375 -0.9140625,-2.4023437 -0.5273438,-4.1953125 0.375,-1.78125 1.1601563,-3.2109375 2.3554688,-4.3359375 1.1835937,-1.0898441 2.5546875,-1.6406251 4.125,-1.6406251 0.7734375,0 1.5,0.1875 2.1679689,0.550781 0.65625,0.351563 1.101562,0.8437504 1.359375,1.4296879 z m -1.605469,2.8945312 c 0.08203,-0.796875 0.05859,-1.4414062 -0.128906,-1.921875 -0.3164064,-0.890625 -1.0546877,-1.3476562 -2.2382814,-1.3476562 -0.8671875,0 -1.6523438,0.3164062 -2.34375,0.9257812 -0.7148438,0.609375 -1.1835938,1.3945313 -1.4414063,2.34375 z m 0,0"
       style="fill:#000000;fill-opacity:1;fill-rule:nonzero;stroke:none"
       aria-label="e"
       transform="matrix(1.3333333,0,0,1.3333333,179.00991,117.17967)" />
    <path
       id="path10"
       d="m 58.648,67.027 v 67.024"
       style="fill:none;stroke:#000000;stroke-width:0.9216;stroke-linecap:square;stroke-linejoin:miter;stroke-miterlimit:3.25;stroke-dasharray:none;stroke-opacity:1"
       transform="scale(1.3333333)" />
    <path
       id="path11"
       d="M 58.648,105.566 55.297,95.512 H 62 Z"
       style="fill:#000000;fill-opacity:1;fill-rule:evenodd;stroke:none"
       transform="scale(1.3333333)" />
    <path
       id="path12"
       d="m 11.872292,-9.2940414 c 0.269531,0.5507813 0.375,1.2070313 0.339844,1.9453125 0,0.5039063 -0.105469,1.3125 -0.339844,2.4257813 H 3.7629171 c -0.2109375,1.125 -0.1289063,2.0273437 0.234375,2.7070312 0.328125,0.6679688 1.03125,1.0078125 2.0859375,1.0078125 0.9492187,0 1.7929687,-0.3164062 2.5078125,-0.9726562 0.4101562,-0.3515625 0.7382812,-0.7734375 0.9726562,-1.2890625 h 1.8398437 c -0.152344,0.4335937 -0.398437,0.8671875 -0.785156,1.3828125 -0.375,0.4804687 -0.7500002,0.9023437 -1.1601564,1.19531247 -0.6679688,0.57421875 -1.453125,0.9375 -2.34375,1.125 -0.4570313,0.10546875 -0.984375,0.1640625 -1.5351563,0.1640625 -1.3710937,0 -2.4492187,-0.50390625 -3.1875,-1.49999997 -0.7382812,-0.984375 -0.9140625,-2.4023438 -0.5273437,-4.1953125 0.375,-1.78125 1.1601562,-3.2109375 2.3554687,-4.3359375 1.1835938,-1.0898439 2.5546875,-1.6406249 4.125,-1.6406249 0.7734375,0 1.5,0.1875 2.1679687,0.550781 0.65625,0.351563 1.101563,0.8437501 1.359375,1.4296876 z m -1.605469,2.8945313 c 0.08203,-0.796875 0.05859,-1.4414063 -0.128906,-1.921875 -0.3164062,-0.890625 -1.0546874,-1.3476563 -2.2382812,-1.3476563 -0.8671875,0 -1.6523437,0.3164063 -2.34375,0.9257813 -0.7148437,0.609375 -1.1835937,1.3945312 -1.4414062,2.34375 z m 0,0"
       style="fill:#000000;fill-opacity:1;fill-rule:nonzero;stroke:none"
       aria-label="e"
       transform="matrix(1.3333333,0,0,1.3333333,51.431996,144.19674)" />
    <path
       id="path13"
       d="m 113.105,100.539 -0.316,-1.09 -0.375,-1 -0.473,-0.836 -0.609,-0.617 -0.758,-0.371 -0.902,-0.141 -1.02,0.055 -1.097,0.18 -1.125,0.219 -1.09,0.167 -1.012,0.036 -0.887,-0.164 -0.742,-0.399 -0.59,-0.644 -0.461,-0.856 -0.367,-1.016 -0.312,-1.093 -0.321,-1.082 -0.382,-0.985 -0.489,-0.816 -0.625,-0.59 -0.773,-0.344 -0.918,-0.117 -1.031,0.074 -1.106,0.188 -1.121,0.215 -1.082,0.16 -1,0.016 L 91.25,89.5 90.523,89.07 89.949,88.402 89.5,87.527 89.145,86.5 88.832,85.402 88.508,84.324 88.117,83.355 87.613,82.562 86.973,82 86.18,81.684 85.25,81.59 l -1.043,0.09 -1.109,0.195 -1.118,0.215 -1.078,0.144 -0.988,-0.004 -0.855,-0.214 -0.707,-0.454 -0.563,-0.695 -0.434,-0.898 -0.347,-1.039 -0.313,-1.098 -0.328,-1.07 -0.402,-0.953 -0.516,-0.766 -0.66,-0.539 -0.805,-0.289 -0.949,-0.07 -1.051,0.101 -1.113,0.203 -1.117,0.211 -1.07,0.133 -0.973,-0.023 -0.84,-0.239 -0.691,-0.484 -0.543,-0.719 -0.426,-0.918 -0.34,-1.051 -0.312,-1.097 -0.332,-1.063 -0.415,-0.933 -0.531,-0.746 -0.672,-0.508 -0.828,-0.266 -0.957,-0.047 -1.062,0.117 -1.114,0.211"
       style="fill:none;stroke:#000000;stroke-width:0.9216;stroke-linecap:square;stroke-linejoin:miter;stroke-miterlimit:3.25;stroke-dasharray:none;stroke-opacity:1"
       transform="scale(1.3333333)" />
    <path
       id="path14"
       d="M 12.058564,-10.441497 5.9062204,-9.05e-5 v 0.19921875 c 0,0.12890625 0.023437,0.24609375 0.023437,0.36328125 0,0.1171875 0,0.24609375 0,0.36328125 0,0.18750005 0,0.38671875 -0.023437,0.60937505 -0.023437,0.234375 -0.058594,0.4804687 -0.1054688,0.7382812 -0.035156,0.2460938 -0.09375,0.4921875 -0.1523437,0.75 -0.082031,0.2460938 -0.1875,0.46875 -0.3046875,0.6445313 C 5.2148141,3.867097 5.0741891,4.0311595 4.8984079,4.148347 4.7343454,4.2772533 4.5351266,4.335847 4.2890329,4.335847 4.1132516,4.335847 3.9491891,4.288972 3.8085641,4.2069408 3.6679391,4.1366283 3.5507516,4.054597 3.4452829,3.9256908 3.3515329,3.8085033 3.2695016,3.6678783 3.2226266,3.5038158 3.1640329,3.351472 3.1405954,3.163972 3.1405954,2.9999095 c 0,-0.3164062 0.046875,-0.5976562 0.082031,-0.8671875 C 3.2812204,1.8749095 3.3515329,1.6288158 3.4452829,1.3944408 3.5273141,1.1717845 3.6327829,0.92569075 3.7499704,0.679597 3.8671579,0.4686595 3.9960641,0.19912825 4.1366891,-0.08212175 L 2.4843454,-10.441497 h 1.8515625 l 1.171875,8.2500003 4.7460941,-8.2500003 z m 0,0"
       style="fill:#000000;fill-opacity:1;fill-rule:nonzero;stroke:none"
       aria-label="γ"
       transform="matrix(1.3333333,0,0,1.3333333,116.82035,97.406371)"
       clip-path="url(#clipPath15)" />
    <path
       id="path16"
       d="m 58.648,134.051 54.457,-33.512"
       style="fill:none;stroke:#000000;stroke-width:0.9216;stroke-linecap:square;stroke-linejoin:miter;stroke-miterlimit:3.25;stroke-dasharray:none;stroke-opacity:1"
       transform="scale(1.3333333)" />
    <path
       id="path17"
       d="m 90.156,114.66 -6.804,8.125 -3.512,-5.711 z"
       style="fill:#000000;fill-opacity:1;fill-rule:evenodd;stroke:none"
       transform="scale(1.3333333)" />
    <path
       id="path18"
       d="m 11.871064,-9.2920938 c 0.269531,0.5507812 0.375,1.2070312 0.339844,1.9453125 0,0.5039062 -0.105469,1.3125 -0.339844,2.4257812 H 3.7616891 c -0.2109375,1.125 -0.1289062,2.0273438 0.234375,2.7070313 0.328125,0.6679687 1.03125,1.0078125 2.0859375,1.0078125 0.9492188,0 1.7929688,-0.3164063 2.5078125,-0.9726563 0.4101563,-0.3515625 0.7382813,-0.7734375 0.9726563,-1.2890625 h 1.8398436 c -0.152344,0.4335938 -0.398437,0.8671875 -0.785156,1.3828125 -0.375,0.4804688 -0.7500001,0.9023438 -1.1601564,1.19531254 -0.6679687,0.57421875 -1.453125,0.9375 -2.34375,1.125 -0.4570312,0.10546875 -0.984375,0.1640625 -1.5351562,0.1640625 -1.3710938,0 -2.4492188,-0.50390625 -3.1875,-1.50000004 -0.7382813,-0.984375 -0.9140625,-2.4023437 -0.5273438,-4.1953125 0.375,-1.78125 1.1601563,-3.2109375 2.3554688,-4.3359375 1.1835937,-1.0898434 2.5546875,-1.6406254 4.125,-1.6406254 0.7734375,0 1.5,0.1875 2.1679686,0.550782 0.65625,0.351562 1.101563,0.8437497 1.359375,1.4296872 z m -1.605469,2.8945312 c 0.08203,-0.796875 0.05859,-1.4414062 -0.128906,-1.921875 -0.3164061,-0.890625 -1.0546874,-1.3476562 -2.2382811,-1.3476562 -0.8671875,0 -1.6523438,0.3164062 -2.34375,0.9257812 -0.7148438,0.609375 -1.1835938,1.3945313 -1.4414063,2.34375 z m 0,0"
       style="fill:#000000;fill-opacity:1;fill-rule:nonzero;stroke:none"
       aria-label="e"
       transform="matrix(1.3333333,0,0,1.3333333,116.82035,190.98711)" />
    <path
       id="path19"
       d="m 62.332,67.027 c 0,0.977 -0.387,1.914 -1.078,2.606 -0.692,0.691 -1.629,1.078 -2.606,1.078 -0.98,0 -1.918,-0.387 -2.609,-1.078 -0.691,-0.692 -1.078,-1.629 -1.078,-2.606 0,-0.98 0.387,-1.918 1.078,-2.609 0.691,-0.691 1.629,-1.078 2.609,-1.078 0.977,0 1.914,0.387 2.606,1.078 0.691,0.691 1.078,1.629 1.078,2.609 z"
       style="fill:#000000;fill-opacity:1;fill-rule:evenodd;stroke:none"
       transform="scale(1.3333333)" />
    <path
       id="path20"
       d="m 62.332,134.051 c 0,0.976 -0.387,1.914 -1.078,2.605 -0.692,0.692 -1.629,1.082 -2.606,1.082 -0.98,0 -1.918,-0.39 -2.609,-1.082 -0.691,-0.691 -1.078,-1.629 -1.078,-2.605 0,-0.977 0.387,-1.914 1.078,-2.606 0.691,-0.691 1.629,-1.082 2.609,-1.082 0.977,0 1.914,0.391 2.606,1.082 0.691,0.692 1.078,1.629 1.078,2.606 z"
       style="fill:#000000;fill-opacity:1;fill-rule:evenodd;stroke:none"
       transform="scale(1.3333333)" />
    <path
       id="path21"
       d="m 116.793,100.539 c 0,0.977 -0.391,1.914 -1.082,2.606 -0.691,0.691 -1.629,1.078 -2.606,1.078 -0.976,0 -1.914,-0.387 -2.605,-1.078 -0.691,-0.692 -1.082,-1.629 -1.082,-2.606 0,-0.98 0.391,-1.918 1.082,-2.609 0.691,-0.692 1.629,-1.078 2.605,-1.078 0.977,0 1.915,0.386 2.606,1.078 0.691,0.691 1.082,1.629 1.082,2.609 z"
       style="fill:#000000;fill-opacity:1;fill-rule:evenodd;stroke:none"
       transform="scale(1.3333333)" />
    <path
       id="path22"
       d="m 1.5931815,-8.3196379 v -1.125 c 1.078125,-0.1054687 1.8164063,-0.28125 2.2382813,-0.515625 0.421875,-0.2343751 0.7382812,-0.8320311 0.9375,-1.7343751 H 5.9525565 V 6.74625e-4 H 4.3705253 V -8.3196379 Z m 0,0"
       style="fill:#000000;fill-opacity:1;fill-rule:nonzero;stroke:none"
       aria-label="1"
       transform="matrix(1.3333333,0,0,1.3333333,105.40701,246.24129)"
       clip-path="url(#clipPath23)" />
    <path
       id="path24"
       d="m 184.32,58.648 75.403,41.891"
       style="fill:none;stroke:#000000;stroke-width:0.9216;stroke-linecap:square;stroke-linejoin:miter;stroke-miterlimit:3.25;stroke-dasharray:none;stroke-opacity:1"
       transform="scale(1.3333333)" />
    <path
       id="path25"
       d="M 226.418,82.035 216,80.082 l 3.254,-5.859 z"
       style="fill:#000000;fill-opacity:1;fill-rule:evenodd;stroke:none"
       transform="scale(1.3333333)" />
    <path
       id="path26"
       d="m 11.871924,-9.2916305 c 0.269531,0.5507812 0.375,1.2070312 0.339844,1.9453125 0,0.5039062 -0.105469,1.3125 -0.339844,2.4257812 H 3.762549 c -0.2109375,1.125 -0.1289063,2.0273438 0.234375,2.7070313 0.328125,0.6679687 1.03125,1.0078125 2.0859375,1.0078125 0.9492187,0 1.7929687,-0.3164063 2.5078125,-0.9726563 0.4101562,-0.3515625 0.7382812,-0.7734375 0.9726562,-1.2890625 h 1.8398438 c -0.152344,0.4335938 -0.398438,0.8671875 -0.785156,1.3828125 -0.375,0.4804688 -0.7500003,0.9023438 -1.1601565,1.19531255 -0.6679688,0.57421875 -1.453125,0.9375 -2.34375,1.125 -0.4570313,0.10546875 -0.984375,0.1640625 -1.5351563,0.1640625 -1.3710937,0 -2.4492187,-0.50390625 -3.1875,-1.50000005 -0.7382812,-0.984375 -0.9140625,-2.4023437 -0.5273437,-4.1953125 0.375,-1.78125 1.1601562,-3.2109375 2.3554687,-4.3359375 1.1835938,-1.0898437 2.5546875,-1.6406247 4.125,-1.6406247 0.7734375,0 1.5,0.1875 2.1679688,0.550781 0.65625,0.351562 1.101562,0.84375 1.359375,1.4296875 z m -1.605469,2.8945312 c 0.08203,-0.796875 0.05859,-1.4414062 -0.128906,-1.921875 -0.3164063,-0.890625 -1.0546875,-1.3476562 -2.2382813,-1.3476562 -0.8671875,0 -1.6523437,0.3164062 -2.34375,0.9257812 -0.7148437,0.609375 -1.1835937,1.3945313 -1.4414062,2.34375 z m 0,0"
       style="fill:#000000;fill-opacity:1;fill-rule:nonzero;stroke:none"
       aria-label="e"
       transform="matrix(1.3333333,0,0,1.3333333,278.17077,141.10759)" />
    <path
       id="path27"
       d="m 259.723,100.539 -1.078,-0.199 -1.04,-0.129 -0.964,0.004 -0.868,0.18 -0.753,0.382 -0.641,0.586 -0.539,0.778 -0.453,0.918 -0.41,1.007 -0.395,1.028 -0.426,0.976 -0.492,0.86 -0.578,0.695 -0.695,0.496 -0.805,0.285 -0.918,0.098 -1,-0.066 -1.063,-0.168 -1.082,-0.208 -1.066,-0.171 -1.008,-0.079 -0.926,0.079 -0.816,0.269 -0.703,0.477 -0.59,0.679 -0.496,0.848 -0.43,0.965 -0.398,1.023 -0.406,1.012 -0.45,0.934 -0.527,0.789 -0.633,0.605 -0.742,0.403 -0.859,0.195 -0.957,0.019 -1.036,-0.121 -1.074,-0.195 -1.078,-0.199 -1.047,-0.137 -0.972,-0.012 -0.879,0.16 -0.766,0.364 -0.648,0.57 -0.547,0.762 -0.461,0.906 -0.41,1.004 -0.399,1.027 -0.422,0.981 -0.48,0.875 -0.574,0.711 -0.68,0.515 -0.797,0.305 -0.906,0.113 -0.996,-0.054 -1.059,-0.161 -1.082,-0.207 -1.066,-0.179 -1.016,-0.09 -0.933,0.062 -0.829,0.254 -0.714,0.457 -0.602,0.66 -0.504,0.832 -0.434,0.961 -0.398,1.02 -0.402,1.016 -0.446,0.941 -0.523,0.805 -0.617,0.625 -0.735,0.422 -0.847,0.214 -0.953,0.032 -1.028,-0.11 -1.074,-0.191 -1.078,-0.203 -1.051,-0.149 -0.98,-0.023 -0.887,0.144 -0.777,0.344 -0.661,0.551 -0.554,0.742 -0.469,0.899 -0.414,0.996 -0.395,1.027 -0.418,0.992 -0.476,0.883 -0.563,0.73 -0.671,0.532 -0.786,0.324 -0.898,0.129 -0.988,-0.039 -1.055,-0.156 -1.082,-0.204 -1.07,-0.187 -1.02,-0.098 -0.941,0.047 -0.84,0.231 -0.723,0.441 -0.613,0.641 -0.512,0.82 -0.437,0.949 -0.403,1.02"
       style="fill:none;stroke:#000000;stroke-width:0.9216;stroke-linecap:square;stroke-linejoin:miter;stroke-miterlimit:3.25;stroke-dasharray:none;stroke-opacity:1"
       transform="scale(1.3333333)" />
    <path
       id="path28"
       d="M 8.9544793,-5.9071489 6.7513543,-12.293868 4.4193231,-5.9071489 Z M 5.7201043,-14.450118 H 7.9466668 L 13.184948,-8.98875e-4 H 11.052136 L 9.5755731,-4.3133989 h -5.71875 L 2.2982293,-8.98875e-4 H 0.28260431 Z m 1.7226563,-3.433593 h 1.828125 v 2.0625 h -1.828125 z m -3.2460938,0 h 1.828125 v 2.0625 h -1.828125 z m 0,0"
       style="fill:#000000;fill-opacity:1;fill-rule:nonzero;stroke:none"
       aria-label="Ä"
       transform="matrix(1.3333333,0,0,1.3333333,297.68179,196.96214)"
       clip-path="url(#clipPath29)" />
    <path
       id="path30"
       d="m 351.883,100.539 h -92.16"
       style="fill:none;stroke:#000000;stroke-width:0.9216;stroke-linecap:square;stroke-linejoin:miter;stroke-miterlimit:3.25;stroke-dasharray:none;stroke-opacity:1"
       transform="scale(1.3333333)" />
    <path
       id="path31"
       d="m 310.832,100.539 -10.055,-3.351 v 6.703 z"
       style="fill:#000000;fill-opacity:1;fill-rule:evenodd;stroke:none"
       transform="scale(1.3333333)" />
    <path
       id="path32"
       d="m 11.872106,-9.2929521 c 0.269531,0.5507812 0.375,1.2070312 0.339844,1.9453125 0,0.5039062 -0.105469,1.3125 -0.339844,2.4257812 H 3.7627308 c -0.2109375,1.125 -0.1289062,2.0273438 0.234375,2.7070313 0.328125,0.6679687 1.03125,1.0078125 2.0859375,1.0078125 0.9492188,0 1.7929688,-0.3164063 2.5078125,-0.9726563 0.4101563,-0.3515625 0.7382813,-0.7734375 0.9726563,-1.2890625 h 1.8398439 c -0.152344,0.4335938 -0.398438,0.8671875 -0.785156,1.3828125 -0.375,0.4804688 -0.7500004,0.9023438 -1.1601567,1.19531253 -0.6679687,0.57421875 -1.453125,0.9375 -2.34375,1.125 -0.4570312,0.10546875 -0.984375,0.1640625 -1.5351562,0.1640625 -1.3710938,0 -2.4492188,-0.50390625 -3.1875,-1.50000003 -0.7382813,-0.984375 -0.9140625,-2.4023437 -0.5273438,-4.1953125 0.375,-1.78125 1.1601563,-3.2109375 2.3554688,-4.3359375 1.1835937,-1.0898441 2.5546875,-1.6406251 4.125,-1.6406251 0.7734375,0 1.5,0.1875 2.1679689,0.550781 0.65625,0.351563 1.101562,0.8437504 1.359375,1.4296879 z m -1.605469,2.8945312 c 0.08203,-0.796875 0.05859,-1.4414062 -0.128906,-1.921875 -0.3164064,-0.890625 -1.0546877,-1.3476562 -2.2382814,-1.3476562 -0.8671875,0 -1.6523438,0.3164062 -2.34375,0.9257812 -0.7148438,0.609375 -1.1835938,1.3945313 -1.4414063,2.34375 z m 0,0"
       style="fill:#000000;fill-opacity:1;fill-rule:nonzero;stroke:none"
       aria-label="e"
       transform="matrix(1.3333333,0,0,1.3333333,399.63537,117.17967)" />
    <path
       id="path33"
       d="m 255.535,104.727 8.379,-8.379"
       style="fill:none;stroke:#000000;stroke-width:2.7648;stroke-linecap:square;stroke-linejoin:miter;stroke-miterlimit:3.25;stroke-dasharray:none;stroke-opacity:1"
       transform="scale(1.3333333)" />
    <path
       id="path34"
       d="m 255.535,96.348 8.379,8.379"
       style="fill:none;stroke:#000000;stroke-width:2.7648;stroke-linecap:square;stroke-linejoin:miter;stroke-miterlimit:3.25;stroke-dasharray:none;stroke-opacity:1"
       transform="scale(1.3333333)" />
    <path
       id="path35"
       d="M 0.51634556,6.74625e-4 C 0.57493931,-1.0071379 0.77415806,-1.8860441 1.1491581,-2.6360441 1.5124393,-3.3743254 2.2155643,-4.0657316 3.2819706,-4.6751066 l 1.5703125,-0.9257813 c 0.7148437,-0.3984375 1.1953125,-0.75 1.4882812,-1.03125 0.4453125,-0.4570312 0.6679688,-0.984375 0.6679688,-1.5703125 0,-0.6679687 -0.1992188,-1.21875 -0.6210938,-1.6289062 -0.3984375,-0.3984374 -0.9609375,-0.6093754 -1.6289062,-0.6093754 -1.03125,0 -1.7109375,0.386719 -2.0976563,1.1601566 -0.2226562,0.4101563 -0.328125,0.984375 -0.3632812,1.6992188 H 0.80931431 c 0.0117188,-1.0195313 0.19921879,-1.8398438 0.57421879,-2.4960934 0.6328125,-1.125 1.7578125,-1.699219 3.375,-1.699219 1.3476562,0 2.3320312,0.351562 2.953125,1.089844 0.6210937,0.7265621 0.9257812,1.5234371 0.9257812,2.4140621 0,0.9492188 -0.3398437,1.7578125 -0.9960937,2.4257813 -0.3867188,0.3867187 -1.0664063,0.8554687 -2.0390625,1.40625 l -1.1367188,0.6210937 c -0.5273437,0.3046875 -0.9492187,0.5742188 -1.2773437,0.84375 -0.5273438,0.4921875 -0.890625,1.0078125 -1.0195313,1.5820313 h 6.421875 V 6.74625e-4 Z m 0,0"
       style="fill:#000000;fill-opacity:1;fill-rule:nonzero;stroke:none"
       aria-label="2"
       transform="matrix(1.3333333,0,0,1.3333333,351.16701,246.24129)"
       clip-path="url(#clipPath36)" />
  </g>
</svg>
