<?xml version="1.0" encoding="UTF-8" standalone="no"?>
<!-- Created with Inkscape (http://www.inkscape.org/) -->

<svg
   version="1.1"
   id="svg2"
   width="984"
   height="246.66667"
   viewBox="0 0 984 246.66667"
   sodipodi:docname="0758qtt3uf52x.pdf"
   xmlns:inkscape="http://www.inkscape.org/namespaces/inkscape"
   xmlns:sodipodi="http://sodipodi.sourceforge.net/DTD/sodipodi-0.dtd"
   xmlns="http://www.w3.org/2000/svg"
   xmlns:svg="http://www.w3.org/2000/svg">
  <defs
     id="defs6">
    <clipPath
       clipPathUnits="userSpaceOnUse"
       id="clipPath18">
      <path
         d="M 184.32,57 H 236 v 45 h -51.68 z"
         id="path16" />
    </clipPath>
    <clipPath
       clipPathUnits="userSpaceOnUse"
       id="clipPath36">
      <path
         d="M 184.32,99 H 236 v 45 h -51.68 z"
         id="path34" />
    </clipPath>
    <clipPath
       clipPathUnits="userSpaceOnUse"
       id="clipPath72">
      <path
         d="m 265,117 h 9.559 v 16 H 265 Z"
         id="path70" />
    </clipPath>
    <clipPath
       clipPathUnits="userSpaceOnUse"
       id="clipPath90">
      <path
         d="m 264,172 h 6 v 12.32 h -6 z"
         id="path88" />
    </clipPath>
  </defs>
  <sodipodi:namedview
     id="namedview4"
     pagecolor="#ffffff"
     bordercolor="#999999"
     borderopacity="1"
     inkscape:showpageshadow="0"
     inkscape:pageopacity="0"
     inkscape:pagecheckerboard="0"
     inkscape:deskcolor="#d1d1d1" />
  <g
     id="g8"
     inkscape:groupmode="layer"
     inkscape:label="0758qtt3uf52x"
     transform="matrix(1.3333333,0,0,1.3333333,0,9.5e-6)">
    <g
       id="g10" />
    <g
       id="g12">
      <g
         id="g14"
         clip-path="url(#clipPath18)">
        <path
           d="m 184.32,58.648 50.27,41.891"
           style="fill:none;stroke:#000000;stroke-width:0.9216;stroke-linecap:square;stroke-linejoin:miter;stroke-miterlimit:3.25;stroke-dasharray:none;stroke-opacity:1"
           id="path20" />
        <path
           d="m 213.316,82.812 -9.867,-3.863 4.289,-5.148 z"
           style="fill:#000000;fill-opacity:1;fill-rule:evenodd;stroke:none"
           id="path22" />
      </g>
    </g>
    <g
       id="g24">
      <text
         xml:space="preserve"
         transform="translate(194.0539,104.45499)"
         style="font-variant:normal;font-size:21.12px;font-family:CairoFont-0;-inkscape-font-specification:CairoFont-0-0;writing-mode:lr-tb;fill:#000000;fill-opacity:1;fill-rule:nonzero;stroke:none"
         id="text28"><tspan
           x="0"
           y="0"
           id="tspan26">e</tspan></text>
    </g>
    <g
       id="g30">
      <g
         id="g32"
         clip-path="url(#clipPath36)">
        <path
           d="m 184.32,142.43 50.27,-41.891"
           style="fill:none;stroke:#000000;stroke-width:0.9216;stroke-linecap:square;stroke-linejoin:miter;stroke-miterlimit:3.25;stroke-dasharray:none;stroke-opacity:1"
           id="path38" />
        <path
           d="m 205.594,124.703 9.867,-3.863 -4.289,-5.149 z"
           style="fill:#000000;fill-opacity:1;fill-rule:evenodd;stroke:none"
           id="path40" />
      </g>
    </g>
    <g
       id="g42">
      <text
         xml:space="preserve"
         transform="translate(212.70097,146.3459)"
         style="font-variant:normal;font-size:21.12px;font-family:CairoFont-0;-inkscape-font-specification:CairoFont-0-0;writing-mode:lr-tb;fill:#000000;fill-opacity:1;fill-rule:nonzero;stroke:none"
         id="text46"><tspan
           x="0"
           y="0"
           id="tspan44">e</tspan></text>
      <path
         d="m 351.883,58.648 -50.27,41.891"
         style="fill:none;stroke:#000000;stroke-width:0.9216;stroke-linecap:square;stroke-linejoin:miter;stroke-miterlimit:3.25;stroke-dasharray:none;stroke-opacity:1"
         id="path48" />
      <path
         d="m 330.609,76.375 -9.867,3.863 4.289,5.149 z"
         style="fill:#000000;fill-opacity:1;fill-rule:evenodd;stroke:none"
         id="path50" />
      <text
         xml:space="preserve"
         transform="translate(311.28001,68.820309)"
         style="font-variant:normal;font-size:20.16px;font-family:CairoFont-1;-inkscape-font-specification:CairoFont-1-1;writing-mode:lr-tb;fill:#000000;fill-opacity:1;fill-rule:nonzero;stroke:none"
         id="text54"><tspan
           x="0"
           y="0"
           id="tspan52">μ</tspan></text>
      <path
         d="m 351.883,142.43 -50.27,-41.891"
         style="fill:none;stroke:#000000;stroke-width:0.9216;stroke-linecap:square;stroke-linejoin:miter;stroke-miterlimit:3.25;stroke-dasharray:none;stroke-opacity:1"
         id="path56" />
      <path
         d="m 322.887,118.266 9.871,3.863 -4.293,5.148 z"
         style="fill:#000000;fill-opacity:1;fill-rule:evenodd;stroke:none"
         id="path58" />
      <text
         xml:space="preserve"
         transform="translate(329.99552,110.71122)"
         style="font-variant:normal;font-size:20.16px;font-family:CairoFont-1;-inkscape-font-specification:CairoFont-1-1;writing-mode:lr-tb;fill:#000000;fill-opacity:1;fill-rule:nonzero;stroke:none"
         id="text62"><tspan
           x="0"
           y="0"
           id="tspan60">μ</tspan></text>
      <path
         d="m 301.613,100.539 -0.836,-0.727 -0.839,-0.632 -0.836,-0.469 -0.84,-0.242 -0.836,0.015 -0.84,0.27 -0.836,0.488 -0.84,0.649 -0.836,0.73 -0.836,0.719 -0.84,0.621 -0.836,0.445 -0.839,0.215 -0.836,-0.043 -0.84,-0.297 -0.836,-0.511 -0.84,-0.661 -0.836,-0.734 -0.84,-0.711 -0.836,-0.605 -0.839,-0.422 -0.836,-0.184 -0.84,0.07 -0.836,0.325 -0.84,0.531 -0.836,0.672 -0.84,0.738 -0.836,0.703 -0.84,0.586 -0.836,0.399 -0.839,0.156 -0.836,-0.098 -0.84,-0.347 -0.836,-0.551 -0.84,-0.688 -0.836,-0.734 -0.836,-0.695 -0.84,-0.571 -0.836,-0.371 -0.839,-0.133 -0.836,0.133 -0.84,0.371 -0.836,0.571 -0.84,0.695 -0.836,0.734 -0.84,0.688 -0.836,0.551 -0.84,0.347 -0.836,0.098 -0.839,-0.156 -0.836,-0.399 -0.84,-0.586 -0.836,-0.703 -0.84,-0.738 -0.836,-0.672 -0.84,-0.531 -0.836,-0.325 -0.839,-0.07 -0.836,0.184 -0.84,0.422 -0.836,0.605 -0.84,0.711 -0.836,0.734 -0.84,0.661 -0.836,0.511 -0.84,0.297 -0.836,0.043 -0.835,-0.215 -0.84,-0.445 -0.836,-0.621 -0.84,-0.719 -0.836,-0.73 -0.84,-0.649 -0.836,-0.488 -0.84,-0.27 -0.836,-0.015 -0.839,0.242 -0.836,0.469 -0.84,0.632 -0.836,0.727"
         style="fill:none;stroke:#000000;stroke-width:0.9216;stroke-linecap:square;stroke-linejoin:miter;stroke-miterlimit:3.25;stroke-dasharray:none;stroke-opacity:1"
         id="path64" />
    </g>
    <g
       id="g66">
      <g
         id="g68"
         clip-path="url(#clipPath72)">
        <text
           xml:space="preserve"
           transform="translate(262.52369,128.41036)"
           style="font-variant:normal;font-size:20.16px;font-family:CairoFont-1;-inkscape-font-specification:CairoFont-1-1;writing-mode:lr-tb;fill:#000000;fill-opacity:1;fill-rule:nonzero;stroke:none"
           id="text76"><tspan
             x="0"
             y="0"
             id="tspan74">γ</tspan></text>
      </g>
    </g>
    <g
       id="g78">
      <path
         d="m 238.277,100.539 c 0,0.977 -0.39,1.914 -1.082,2.606 -0.691,0.691 -1.629,1.078 -2.605,1.078 -0.977,0 -1.918,-0.387 -2.61,-1.078 -0.687,-0.692 -1.078,-1.629 -1.078,-2.606 0,-0.98 0.391,-1.918 1.078,-2.609 0.692,-0.692 1.633,-1.078 2.61,-1.078 0.976,0 1.914,0.386 2.605,1.078 0.692,0.691 1.082,1.629 1.082,2.609 z"
         style="fill:#000000;fill-opacity:1;fill-rule:evenodd;stroke:none"
         id="path80" />
      <path
         d="m 305.301,100.539 c 0,0.977 -0.387,1.914 -1.078,2.606 -0.692,0.691 -1.629,1.078 -2.61,1.078 -0.976,0 -1.914,-0.387 -2.605,-1.078 -0.692,-0.692 -1.078,-1.629 -1.078,-2.606 0,-0.98 0.386,-1.918 1.078,-2.609 0.691,-0.692 1.629,-1.078 2.605,-1.078 0.981,0 1.918,0.386 2.61,1.078 0.691,0.691 1.078,1.629 1.078,2.609 z"
         style="fill:#000000;fill-opacity:1;fill-rule:evenodd;stroke:none"
         id="path82" />
    </g>
    <g
       id="g84">
      <g
         id="g86"
         clip-path="url(#clipPath90)">
        <text
           xml:space="preserve"
           transform="translate(263.37526,184.68097)"
           style="font-variant:normal;font-size:16.8px;font-family:CairoFont-2;-inkscape-font-specification:CairoFont-2-0;writing-mode:lr-tb;fill:#000000;fill-opacity:1;fill-rule:nonzero;stroke:none"
           id="text94"><tspan
             x="0"
             y="0"
             id="tspan92">1</tspan></text>
      </g>
    </g>
  </g>
</svg>
