<?xml version="1.0" encoding="UTF-8" standalone="no"?>
<!-- Created with Inkscape (http://www.inkscape.org/) -->

<svg
   version="1.1"
   id="svg1"
   width="492"
   height="246.66667"
   viewBox="0 0 492 246.66667"
   sodipodi:docname="09psr9ceodpz8.pdf"
   xmlns:inkscape="http://www.inkscape.org/namespaces/inkscape"
   xmlns:sodipodi="http://sodipodi.sourceforge.net/DTD/sodipodi-0.dtd"
   xmlns="http://www.w3.org/2000/svg"
   xmlns:svg="http://www.w3.org/2000/svg">
  <defs
     id="defs1">
    <clipPath
       clipPathUnits="userSpaceOnUse"
       id="clipPath3">
      <path
         d="m 24,117 h 9.84 v 16 H 24 Z"
         transform="translate(-21.650967,-128.41037)"
         id="path3" />
    </clipPath>
    <clipPath
       clipPathUnits="userSpaceOnUse"
       id="clipPath6">
      <path
         d="m 133,39 h 9.801 V 55 H 133 Z"
         transform="translate(-130.82535,-50.313451)"
         id="path6" />
    </clipPath>
    <clipPath
       clipPathUnits="userSpaceOnUse"
       id="clipPath9">
      <path
         d="m 133,155 h 9.801 v 16 H 133 Z"
         transform="translate(-130.82535,-165.98167)"
         id="path9" />
    </clipPath>
    <clipPath
       clipPathUnits="userSpaceOnUse"
       id="clipPath13">
      <path
         d="M 67,58 H 78.961 V 71 H 67 Z"
         transform="translate(-66.036005,-70.197786)"
         id="path13" />
    </clipPath>
    <clipPath
       clipPathUnits="userSpaceOnUse"
       id="clipPath17">
      <path
         d="m 67,134 h 11.961 v 13 H 67 Z"
         transform="translate(-66.036005,-146.09733)"
         id="path17" />
    </clipPath>
    <clipPath
       clipPathUnits="userSpaceOnUse"
       id="clipPath25">
      <path
         d="m 80,172 h 5 v 12.32 h -5 z"
         transform="translate(-79.055259,-184.68097)"
         id="path25" />
    </clipPath>
    <clipPath
       clipPathUnits="userSpaceOnUse"
       id="clipPath28">
      <path
         d="m 208,117 h 10.16 v 16 H 208 Z"
         transform="translate(-205.97097,-128.41037)"
         id="path28" />
    </clipPath>
    <clipPath
       clipPathUnits="userSpaceOnUse"
       id="clipPath31">
      <path
         d="m 317,39 h 10.121 V 55 H 317 Z"
         transform="translate(-315.14536,-50.313451)"
         id="path31" />
    </clipPath>
    <clipPath
       clipPathUnits="userSpaceOnUse"
       id="clipPath34">
      <path
         d="m 317,155 h 10.121 v 16 H 317 Z"
         transform="translate(-315.14536,-165.98167)"
         id="path34" />
    </clipPath>
    <clipPath
       clipPathUnits="userSpaceOnUse"
       id="clipPath44">
      <path
         d="m 304,96 h 11.84 v 13 H 304 Z"
         transform="translate(-302.86541,-108.14756)"
         id="path44" />
    </clipPath>
    <clipPath
       clipPathUnits="userSpaceOnUse"
       id="clipPath49">
      <path
         d="m 263,172 h 10 v 12.32 h -10 z"
         transform="translate(-263.37526,-184.68097)"
         id="path49" />
    </clipPath>
  </defs>
  <sodipodi:namedview
     id="namedview1"
     pagecolor="#ffffff"
     bordercolor="#999999"
     borderopacity="1"
     inkscape:showpageshadow="0"
     inkscape:pageopacity="0"
     inkscape:pagecheckerboard="0"
     inkscape:deskcolor="#d1d1d1">
    <inkscape:page
       x="0"
       y="0"
       id="page1"
       width="492"
       height="246.66667"
       margin="0"
       bleed="0" />
  </sodipodi:namedview>
  <g
     id="g1"
     inkscape:groupmode="layer"
     inkscape:label="">
    <path
       id="path1"
       d="m 54.457,100.539 -0.836,-0.695 -0.84,-0.617 -0.836,-0.469 -0.84,-0.266 -0.835,-0.031 -0.84,0.199 -0.836,0.414 -0.84,0.582 -0.836,0.68 -0.84,0.703 -0.836,0.649 -0.836,0.515 -0.84,0.328 -0.836,0.102 -0.839,-0.133 -0.836,-0.359 -0.84,-0.539 -0.836,-0.661 -0.84,-0.703 -0.836,-0.672 -0.84,-0.558 -0.836,-0.387 -0.839,-0.172 -0.836,0.071 -0.84,0.296 -0.836,0.493 -0.84,0.632 -0.836,0.7 -0.84,0.691 -0.836,0.598 -0.84,0.441 -0.836,0.234 h -0.839 l -0.836,-0.234 -0.84,-0.441 -0.836,-0.598 -0.84,-0.691 -0.836,-0.7 -0.836,-0.632 -0.84,-0.493 -0.836,-0.296 -0.839,-0.071 -0.836,0.172 -0.84,0.387 -0.836,0.558 -0.84,0.672 -0.836,0.703 -0.84,0.661 -0.836,0.539 -0.84,0.359 -0.836,0.133 -0.839,-0.102 -0.836,-0.328 -0.84,-0.515 -0.836,-0.649 -0.84,-0.703 L 6.703,99.656 5.863,99.074 5.027,98.66 4.188,98.461 3.352,98.492 2.516,98.758 1.676,99.227 0.84,99.844 0,100.539"
       style="fill:none;stroke:#000000;stroke-width:0.9216;stroke-linecap:square;stroke-linejoin:miter;stroke-miterlimit:3.25;stroke-dasharray:none;stroke-opacity:1"
       transform="scale(1.3333333)" />
    <path
       id="path2"
       d="M 12.058018,-10.440637 5.9056746,7.688125e-4 V 0.19998756 c 0,0.12890625 0.023437,0.24609375 0.023437,0.36328125 0,0.1171875 0,0.24609375 0,0.36328125 0,0.18750004 0,0.38671874 -0.023437,0.60937504 -0.023437,0.234375 -0.058594,0.4804687 -0.1054687,0.7382812 -0.035156,0.2460938 -0.09375,0.4921875 -0.1523438,0.75 -0.082031,0.2460938 -0.1875,0.46875 -0.3046875,0.6445313 -0.1289062,0.1992187 -0.2695312,0.3632812 -0.4453125,0.4804687 -0.1640625,0.1289063 -0.3632812,0.1875 -0.609375,0.1875 -0.1757812,0 -0.3398437,-0.046875 -0.4804687,-0.1289062 C 3.6673934,4.1374876 3.5502059,4.0554563 3.4447371,3.9265501 3.3509871,3.8093626 3.2689559,3.6687376 3.2220809,3.5046751 3.1634871,3.3523313 3.1400496,3.1648313 3.1400496,3.0007688 c 0,-0.3164062 0.046875,-0.5976562 0.082031,-0.8671875 C 3.2806746,1.8757688 3.3509871,1.6296751 3.4447371,1.3953001 3.5267684,1.1726438 3.6322371,0.92655006 3.7494246,0.68045631 3.8666121,0.46951881 3.9955184,0.19998756 4.1361434,-0.08126244 L 2.4837996,-10.440637 h 1.8515625 l 1.171875,8.2499996 4.7460939,-8.2499996 z m 0,0"
       style="fill:#000000;fill-opacity:1;fill-rule:nonzero;stroke:none"
       aria-label="γ"
       transform="matrix(1.3333333,0,0,1.3333333,28.867955,171.21382)"
       clip-path="url(#clipPath3)" />
    <path
       id="path4"
       d="m 108.918,67.027 0.953,0.692 0.934,0.566 0.902,0.32 0.855,0.012 0.809,-0.324 0.766,-0.621 0.734,-0.844 0.723,-0.945 0.722,-0.918 0.746,-0.758 0.786,-0.5 0.828,-0.176 0.879,0.157 0.918,0.441 0.945,0.637 0.957,0.714 0.949,0.653 0.922,0.465 0.879,0.191 0.836,-0.137 0.789,-0.464 0.75,-0.735 0.727,-0.906 0.718,-0.949 0.731,-0.86 0.762,-0.652 0.804,-0.359 0.852,-0.028 0.894,0.293 0.934,0.539 0.953,0.688 0.957,0.703 0.938,0.586 0.906,0.351 0.859,0.047 0.817,-0.285 0.769,-0.594 0.734,-0.824 0.723,-0.941 0.723,-0.926 0.742,-0.781 0.781,-0.532 0.824,-0.211 0.872,0.118 0.914,0.414 0.941,0.621 0.957,0.711 0.949,0.664 0.926,0.496 0.887,0.223 0.844,-0.098 0.792,-0.43 0.754,-0.707 0.727,-0.894 0.719,-0.95 0.73,-0.878 0.758,-0.68 0.797,-0.395 0.847,-0.062 0.891,0.258 0.93,0.519 0.953,0.676 0.953,0.707 0.941,0.605 0.911,0.383 0.867,0.082 0.82,-0.25 0.774,-0.558 0.742,-0.805 0.718,-0.934"
       style="fill:none;stroke:#000000;stroke-width:0.9216;stroke-linecap:square;stroke-linejoin:miter;stroke-miterlimit:3.25;stroke-dasharray:none;stroke-opacity:1"
       transform="scale(1.3333333)" />
    <path
       id="path5"
       d="M 12.058437,-10.440402 5.9060933,0.00100413 v 0.19921875 c 0,0.12890625 0.023437,0.24609375 0.023437,0.36328125 0,0.1171875 0,0.24609375 0,0.36328125 0,0.18750002 0,0.38671872 -0.023437,0.60937502 -0.023437,0.234375 -0.058594,0.4804687 -0.1054687,0.7382812 -0.035156,0.2460938 -0.09375,0.4921875 -0.1523438,0.75 -0.082031,0.2460938 -0.1875,0.46875 -0.3046875,0.6445313 -0.1289062,0.1992187 -0.2695312,0.3632812 -0.4453125,0.4804687 -0.1640625,0.1289063 -0.3632812,0.1875 -0.609375,0.1875 -0.1757812,0 -0.3398437,-0.046875 -0.4804687,-0.1289062 C 3.6678121,4.1377229 3.5506246,4.0556916 3.4451558,3.9267854 3.3514058,3.8095979 3.2693746,3.6689729 3.2224996,3.5049104 3.1639058,3.3525666 3.1404683,3.1650666 3.1404683,3.0010041 c 0,-0.3164062 0.046875,-0.5976562 0.082031,-0.8671875 C 3.2810933,1.8760041 3.3514058,1.6299104 3.4451558,1.3955354 3.5271871,1.1728791 3.6326558,0.92678538 3.7498433,0.68069163 3.8670308,0.46975413 3.9959371,0.20022288 4.1365621,-0.08102712 L 2.4842183,-10.440402 h 1.8515625 l 1.171875,8.2499999 4.7460942,-8.2499999 z m 0,0"
       style="fill:#000000;fill-opacity:1;fill-rule:nonzero;stroke:none"
       aria-label="γ"
       transform="matrix(1.3333333,0,0,1.3333333,174.4338,67.084599)"
       clip-path="url(#clipPath6)" />
    <path
       id="path7"
       d="m 108.918,134.051 0.719,0.933 0.742,0.805 0.773,0.563 0.821,0.25 0.867,-0.086 0.91,-0.383 0.941,-0.606 0.954,-0.707 0.953,-0.675 0.929,-0.52 0.891,-0.258 0.848,0.063 0.796,0.394 0.758,0.684 0.731,0.875 0.719,0.953 0.726,0.891 0.754,0.707 0.793,0.429 0.84,0.102 0.887,-0.227 0.925,-0.492 0.953,-0.668 0.954,-0.707 0.945,-0.625 0.914,-0.41 0.871,-0.121 0.824,0.211 0.782,0.531 0.742,0.781 0.722,0.926 0.719,0.941 0.738,0.825 0.77,0.593 0.816,0.289 0.86,-0.046 0.906,-0.356 0.937,-0.586 0.957,-0.699 0.954,-0.687 0.933,-0.543 0.895,-0.293 0.851,0.027 0.805,0.359 0.762,0.653 0.73,0.863 0.719,0.949 0.726,0.902 0.75,0.735 0.79,0.465 0.835,0.136 0.879,-0.187 0.922,-0.469 0.949,-0.652 0.957,-0.711 0.946,-0.641 0.918,-0.441 0.879,-0.152 0.828,0.175 0.785,0.496 0.746,0.758 0.723,0.918 0.718,0.945 0.735,0.844 0.769,0.625 0.809,0.321 0.855,-0.008 0.899,-0.324 0.937,-0.563 0.953,-0.695"
       style="fill:none;stroke:#000000;stroke-width:0.9216;stroke-linecap:square;stroke-linejoin:miter;stroke-miterlimit:3.25;stroke-dasharray:none;stroke-opacity:1"
       transform="scale(1.3333333)" />
    <path
       id="path8"
       d="M 12.058437,-10.441626 5.9060933,-2.196875e-4 V 0.19899906 c 0,0.12890625 0.023437,0.24609375 0.023437,0.36328125 0,0.1171875 0,0.24609375 0,0.36328125 0,0.18750004 0,0.38671874 -0.023437,0.60937504 -0.023437,0.234375 -0.058594,0.4804687 -0.1054687,0.7382812 -0.035156,0.2460938 -0.09375,0.4921875 -0.1523438,0.75 -0.082031,0.2460938 -0.1875,0.46875 -0.3046875,0.6445313 -0.1289062,0.1992187 -0.2695312,0.3632812 -0.4453125,0.4804687 -0.1640625,0.1289063 -0.3632812,0.1875 -0.609375,0.1875 -0.1757812,0 -0.3398437,-0.046875 -0.4804687,-0.1289062 C 3.6678121,4.1364991 3.5506246,4.0544678 3.4451558,3.9255616 3.3514058,3.8083741 3.2693746,3.6677491 3.2224996,3.5036866 3.1639058,3.3513428 3.1404683,3.1638428 3.1404683,2.9997803 c 0,-0.3164062 0.046875,-0.5976562 0.082031,-0.8671875 C 3.2810933,1.8747803 3.3514058,1.6286866 3.4451558,1.3943116 3.5271871,1.1716553 3.6326558,0.92556156 3.7498433,0.67946781 3.8670308,0.46853031 3.9959371,0.19899906 4.1365621,-0.08225094 L 2.4842183,-10.441626 h 1.8515625 l 1.171875,8.2500001 4.7460942,-8.2500001 z m 0,0"
       style="fill:#000000;fill-opacity:1;fill-rule:nonzero;stroke:none"
       aria-label="γ"
       transform="matrix(1.3333333,0,0,1.3333333,174.4338,221.30889)"
       clip-path="url(#clipPath9)" />
    <path
       id="path10"
       d="M 54.457,100.539 108.918,67.027"
       style="fill:none;stroke:#000000;stroke-width:0.9216;stroke-linecap:square;stroke-linejoin:miter;stroke-miterlimit:3.25;stroke-dasharray:none;stroke-opacity:1"
       transform="scale(1.3333333)" />
    <path
       id="path11"
       d="M 77.406,86.418 87.727,84 84.211,78.293 Z"
       style="fill:#000000;fill-opacity:1;fill-rule:evenodd;stroke:none"
       transform="scale(1.3333333)" />
    <path
       id="path12"
       d="m 11.870246,-9.2925106 c 0.269531,0.5507813 0.375,1.2070313 0.339844,1.9453125 0,0.5039063 -0.105469,1.3125 -0.339844,2.4257813 H 3.760871 c -0.2109375,1.125 -0.1289063,2.0273437 0.234375,2.7070312 0.328125,0.6679688 1.03125,1.0078125 2.0859375,1.0078125 0.9492187,0 1.7929687,-0.3164062 2.5078125,-0.9726562 0.4101562,-0.3515625 0.7382812,-0.7734375 0.9726562,-1.2890625 h 1.8398438 c -0.152344,0.4335937 -0.398438,0.8671875 -0.785156,1.3828125 -0.375,0.4804687 -0.7500003,0.9023437 -1.1601565,1.19531249 -0.6679688,0.57421875 -1.453125,0.9375 -2.34375,1.125 -0.4570313,0.10546875 -0.984375,0.1640625 -1.5351563,0.1640625 -1.3710937,0 -2.4492187,-0.50390625 -3.1875,-1.49999999 -0.7382812,-0.984375 -0.9140625,-2.4023438 -0.5273437,-4.1953125 0.375,-1.78125 1.1601562,-3.2109375 2.3554687,-4.3359375 1.1835938,-1.0898437 2.5546875,-1.6406247 4.125,-1.6406247 0.7734375,0 1.5,0.1875 2.1679688,0.550781 0.65625,0.351562 1.101562,0.8437499 1.359375,1.4296874 z m -1.605469,2.8945313 c 0.08203,-0.796875 0.05859,-1.4414063 -0.128906,-1.921875 -0.3164063,-0.890625 -1.0546875,-1.3476563 -2.2382813,-1.3476563 -0.8671875,0 -1.6523437,0.3164063 -2.34375,0.9257813 -0.7148437,0.609375 -1.1835937,1.3945312 -1.4414062,2.34375 z m 0,0"
       style="fill:#000000;fill-opacity:1;fill-rule:nonzero;stroke:none"
       aria-label="e"
       transform="matrix(1.3333333,0,0,1.3333333,88.048005,93.597045)"
       clip-path="url(#clipPath13)" />
    <path
       id="path14"
       d="m 54.457,100.539 54.461,33.512"
       style="fill:none;stroke:#000000;stroke-width:0.9216;stroke-linecap:square;stroke-linejoin:miter;stroke-miterlimit:3.25;stroke-dasharray:none;stroke-opacity:1"
       transform="scale(1.3333333)" />
    <path
       id="path15"
       d="m 85.969,119.93 -10.321,-2.414 3.516,-5.711 z"
       style="fill:#000000;fill-opacity:1;fill-rule:evenodd;stroke:none"
       transform="scale(1.3333333)" />
    <path
       id="path16"
       d="m 11.870246,-9.2926415 c 0.269531,0.5507812 0.375,1.2070312 0.339844,1.9453125 0,0.5039062 -0.105469,1.3125 -0.339844,2.4257812 H 3.760871 c -0.2109375,1.125 -0.1289063,2.0273438 0.234375,2.7070313 0.328125,0.6679687 1.03125,1.0078125 2.0859375,1.0078125 0.9492187,0 1.7929687,-0.3164063 2.5078125,-0.9726563 0.4101562,-0.3515625 0.7382812,-0.7734375 0.9726562,-1.2890625 h 1.8398438 c -0.152344,0.4335938 -0.398438,0.8671875 -0.785156,1.3828125 -0.375,0.4804688 -0.7500003,0.9023438 -1.1601565,1.19531255 -0.6679688,0.57421875 -1.453125,0.9375 -2.34375,1.125 -0.4570313,0.10546875 -0.984375,0.1640625 -1.5351563,0.1640625 -1.3710937,0 -2.4492187,-0.50390625 -3.1875,-1.50000005 -0.7382812,-0.984375 -0.9140625,-2.4023437 -0.5273437,-4.1953125 0.375,-1.78125 1.1601562,-3.2109375 2.3554687,-4.3359375 1.1835938,-1.0898437 2.5546875,-1.6406247 4.125,-1.6406247 0.7734375,0 1.5,0.1875 2.1679688,0.550781 0.65625,0.351562 1.101562,0.84375 1.359375,1.4296875 z m -1.605469,2.8945312 c 0.08203,-0.796875 0.05859,-1.4414062 -0.128906,-1.921875 -0.3164063,-0.890625 -1.0546875,-1.3476562 -2.2382813,-1.3476562 -0.8671875,0 -1.6523437,0.3164062 -2.34375,0.9257812 -0.7148437,0.609375 -1.1835937,1.3945313 -1.4414062,2.34375 z m 0,0"
       style="fill:#000000;fill-opacity:1;fill-rule:nonzero;stroke:none"
       aria-label="e"
       transform="matrix(1.3333333,0,0,1.3333333,88.048005,194.79644)"
       clip-path="url(#clipPath17)" />
    <path
       id="path18"
       d="m 108.918,67.027 v 67.024"
       style="fill:none;stroke:#000000;stroke-width:0.9216;stroke-linecap:square;stroke-linejoin:miter;stroke-miterlimit:3.25;stroke-dasharray:none;stroke-opacity:1"
       transform="scale(1.3333333)" />
    <path
       id="path19"
       d="m 108.918,95.512 -3.352,10.054 h 6.704 z"
       style="fill:#000000;fill-opacity:1;fill-rule:evenodd;stroke:none"
       transform="scale(1.3333333)" />
    <path
       id="path20"
       d="m 11.869631,-9.2940414 c 0.269531,0.5507813 0.375,1.2070313 0.339844,1.9453125 0,0.5039063 -0.105469,1.3125 -0.339844,2.4257813 H 3.7602561 c -0.2109375,1.125 -0.1289063,2.0273437 0.234375,2.7070312 0.328125,0.6679688 1.03125,1.0078125 2.0859375,1.0078125 0.9492187,0 1.7929687,-0.3164062 2.5078125,-0.9726562 0.4101562,-0.3515625 0.7382812,-0.7734375 0.9726562,-1.2890625 h 1.8398437 c -0.152344,0.4335937 -0.398437,0.8671875 -0.785156,1.3828125 -0.375,0.4804687 -0.7500002,0.9023437 -1.1601564,1.19531247 -0.6679688,0.57421875 -1.453125,0.9375 -2.34375,1.125 -0.4570313,0.10546875 -0.984375,0.1640625 -1.5351563,0.1640625 -1.3710937,0 -2.4492187,-0.50390625 -3.1875,-1.49999997 -0.7382812,-0.984375 -0.9140625,-2.4023438 -0.5273437,-4.1953125 0.375,-1.78125 1.1601562,-3.2109375 2.3554687,-4.3359375 1.1835938,-1.0898439 2.5546875,-1.6406249 4.125,-1.6406249 0.7734375,0 1.5,0.1875 2.1679687,0.550781 0.65625,0.351563 1.101563,0.8437501 1.359375,1.4296876 z m -1.605469,2.8945313 c 0.08203,-0.796875 0.05859,-1.4414063 -0.128906,-1.921875 -0.3164062,-0.890625 -1.0546874,-1.3476563 -2.2382812,-1.3476563 -0.8671875,0 -1.6523437,0.3164063 -2.34375,0.9257813 -0.7148437,0.609375 -1.1835937,1.3945312 -1.4414062,2.34375 z m 0,0"
       style="fill:#000000;fill-opacity:1;fill-rule:nonzero;stroke:none"
       aria-label="e"
       transform="matrix(1.3333333,0,0,1.3333333,158.06054,144.19674)" />
    <path
       id="path21"
       d="m 58.145,100.539 c 0,0.977 -0.387,1.914 -1.079,2.606 -0.691,0.691 -1.628,1.078 -2.609,1.078 -0.977,0 -1.914,-0.387 -2.605,-1.078 -0.692,-0.692 -1.079,-1.629 -1.079,-2.606 0,-0.98 0.387,-1.918 1.079,-2.609 0.691,-0.692 1.628,-1.078 2.605,-1.078 0.981,0 1.918,0.386 2.609,1.078 0.692,0.691 1.079,1.629 1.079,2.609 z"
       style="fill:#000000;fill-opacity:1;fill-rule:evenodd;stroke:none"
       transform="scale(1.3333333)" />
    <path
       id="path22"
       d="m 112.602,67.027 c 0,0.977 -0.387,1.914 -1.079,2.606 -0.691,0.691 -1.628,1.078 -2.605,1.078 -0.98,0 -1.918,-0.387 -2.609,-1.078 -0.692,-0.692 -1.079,-1.629 -1.079,-2.606 0,-0.98 0.387,-1.918 1.079,-2.609 0.691,-0.691 1.629,-1.078 2.609,-1.078 0.977,0 1.914,0.387 2.605,1.078 0.692,0.691 1.079,1.629 1.079,2.609 z"
       style="fill:#000000;fill-opacity:1;fill-rule:evenodd;stroke:none"
       transform="scale(1.3333333)" />
    <path
       id="path23"
       d="m 112.602,134.051 c 0,0.976 -0.387,1.914 -1.079,2.605 -0.691,0.692 -1.628,1.082 -2.605,1.082 -0.98,0 -1.918,-0.39 -2.609,-1.082 -0.692,-0.691 -1.079,-1.629 -1.079,-2.605 0,-0.977 0.387,-1.914 1.079,-2.606 0.691,-0.691 1.629,-1.082 2.609,-1.082 0.977,0 1.914,0.391 2.605,1.082 0.692,0.692 1.079,1.629 1.079,2.606 z"
       style="fill:#000000;fill-opacity:1;fill-rule:evenodd;stroke:none"
       transform="scale(1.3333333)" />
    <path
       id="path24"
       d="m 1.5931815,-8.3196379 v -1.125 c 1.078125,-0.1054687 1.8164063,-0.28125 2.2382813,-0.515625 0.421875,-0.2343751 0.7382812,-0.8320311 0.9375,-1.7343751 H 5.9525565 V 6.74625e-4 H 4.3705253 V -8.3196379 Z m 0,0"
       style="fill:#000000;fill-opacity:1;fill-rule:nonzero;stroke:none"
       aria-label="1"
       transform="matrix(1.3333333,0,0,1.3333333,105.40701,246.24129)"
       clip-path="url(#clipPath25)" />
    <path
       id="path26"
       d="m 238.777,100.539 -0.836,-0.695 -0.839,-0.617 -0.836,-0.469 -0.84,-0.266 -0.836,-0.031 -0.84,0.199 -0.836,0.414 -0.84,0.582 -0.836,0.68 -0.84,0.703 -0.836,0.649 -0.839,0.515 -0.836,0.328 -0.836,0.102 -0.84,-0.133 -0.836,-0.359 -0.84,-0.539 -0.836,-0.661 -0.84,-0.703 -0.836,-0.672 -0.839,-0.558 -0.836,-0.387 -0.84,-0.172 -0.836,0.071 -0.84,0.296 -0.836,0.493 -0.84,0.632 -0.836,0.7 -0.84,0.691 -0.835,0.598 -0.84,0.441 -0.836,0.234 h -0.84 l -0.836,-0.234 -0.84,-0.441 -0.836,-0.598 -0.84,-0.691 -0.836,-0.7 -0.839,-0.632 -0.836,-0.493 -0.84,-0.296 -0.836,-0.071 -0.836,0.172 -0.84,0.387 -0.836,0.558 -0.84,0.672 -0.836,0.703 -0.84,0.661 -0.835,0.539 -0.84,0.359 -0.836,0.133 -0.84,-0.102 -0.836,-0.328 -0.84,-0.515 -0.836,-0.649 -0.84,-0.703 -0.836,-0.68 -0.839,-0.582 -0.836,-0.414 -0.84,-0.199 -0.836,0.031 -0.84,0.266 -0.836,0.469 -0.84,0.617 -0.836,0.695"
       style="fill:none;stroke:#000000;stroke-width:0.9216;stroke-linecap:square;stroke-linejoin:miter;stroke-miterlimit:3.25;stroke-dasharray:none;stroke-opacity:1"
       transform="scale(1.3333333)" />
    <path
       id="path27"
       d="M 12.059307,-10.440637 5.9069637,7.688125e-4 V 0.19998756 c 0,0.12890625 0.023437,0.24609375 0.023437,0.36328125 0,0.1171875 0,0.24609375 0,0.36328125 0,0.18750004 0,0.38671874 -0.023437,0.60937504 -0.023437,0.234375 -0.058594,0.4804687 -0.1054688,0.7382812 -0.035156,0.2460938 -0.09375,0.4921875 -0.1523437,0.75 -0.082031,0.2460938 -0.1875,0.46875 -0.3046875,0.6445313 -0.1289063,0.1992187 -0.2695313,0.3632812 -0.4453125,0.4804687 -0.1640625,0.1289063 -0.3632813,0.1875 -0.609375,0.1875 -0.1757813,0 -0.3398438,-0.046875 -0.4804688,-0.1289062 C 3.6686824,4.1374876 3.5514949,4.0554563 3.4460262,3.9265501 3.3522762,3.8093626 3.2702449,3.6687376 3.2233699,3.5046751 3.1647762,3.3523313 3.1413387,3.1648313 3.1413387,3.0007688 c 0,-0.3164062 0.046875,-0.5976562 0.082031,-0.8671875 C 3.2819637,1.8757688 3.3522762,1.6296751 3.4460262,1.3953001 3.5280574,1.1726438 3.6335262,0.92655006 3.7507137,0.68045631 3.8679012,0.46951881 3.9968074,0.19998756 4.1374324,-0.08126244 L 2.4850887,-10.440637 h 1.8515625 l 1.171875,8.2499996 4.7460938,-8.2499996 z m 0,0"
       style="fill:#000000;fill-opacity:1;fill-rule:nonzero;stroke:none"
       aria-label="γ"
       transform="matrix(1.3333333,0,0,1.3333333,274.62795,171.21382)"
       clip-path="url(#clipPath28)" />
    <path
       id="path29"
       d="m 293.238,67.027 0.953,0.692 0.934,0.566 0.902,0.32 0.856,0.012 0.808,-0.324 0.766,-0.621 0.734,-0.844 0.723,-0.945 0.723,-0.918 0.746,-0.758 0.785,-0.5 0.828,-0.176 0.879,0.157 0.918,0.441 0.945,0.637 0.957,0.714 0.946,0.653 0.921,0.465 0.883,0.191 0.836,-0.137 0.789,-0.464 0.75,-0.735 0.727,-0.906 0.719,-0.949 0.73,-0.86 0.762,-0.652 0.804,-0.359 0.852,-0.028 0.895,0.293 0.933,0.539 0.953,0.688 0.953,0.703 0.942,0.586 0.906,0.351 0.859,0.047 0.813,-0.285 0.773,-0.594 0.735,-0.824 0.722,-0.941 0.723,-0.926 0.742,-0.781 0.782,-0.532 0.824,-0.211 0.871,0.118 0.914,0.414 0.941,0.621 0.957,0.711 0.95,0.664 0.925,0.496 0.887,0.223 0.844,-0.098 0.793,-0.43 0.754,-0.707 0.726,-0.894 0.719,-0.95 0.73,-0.878 0.758,-0.68 0.797,-0.395 0.848,-0.062 0.89,0.258 0.93,0.519 0.953,0.676 0.953,0.707 0.942,0.605 0.91,0.383 0.867,0.082 0.82,-0.25 0.774,-0.558 0.738,-0.805 0.723,-0.934"
       style="fill:none;stroke:#000000;stroke-width:0.9216;stroke-linecap:square;stroke-linejoin:miter;stroke-miterlimit:3.25;stroke-dasharray:none;stroke-opacity:1"
       transform="scale(1.3333333)" />
    <path
       id="path30"
       d="M 12.059726,-10.440402 5.9073824,0.00100413 v 0.19921875 c 0,0.12890625 0.023437,0.24609375 0.023437,0.36328125 0,0.1171875 0,0.24609375 0,0.36328125 0,0.18750002 0,0.38671872 -0.023437,0.60937502 -0.023437,0.234375 -0.058594,0.4804687 -0.1054688,0.7382812 -0.035156,0.2460938 -0.09375,0.4921875 -0.1523437,0.75 -0.082031,0.2460938 -0.1875,0.46875 -0.3046875,0.6445313 -0.1289063,0.1992187 -0.2695313,0.3632812 -0.4453125,0.4804687 -0.1640625,0.1289063 -0.3632813,0.1875 -0.609375,0.1875 -0.1757813,0 -0.3398438,-0.046875 -0.4804688,-0.1289062 C 3.6691011,4.1377229 3.5519136,4.0556916 3.4464449,3.9267854 3.3526949,3.8095979 3.2706636,3.6689729 3.2237886,3.5049104 3.1651949,3.3525666 3.1417574,3.1650666 3.1417574,3.0010041 c 0,-0.3164062 0.046875,-0.5976562 0.082031,-0.8671875 C 3.2823824,1.8760041 3.3526949,1.6299104 3.4464449,1.3955354 3.5284761,1.1728791 3.6339449,0.92678538 3.7511324,0.68069163 3.8683199,0.46975413 3.9972261,0.20022288 4.1378511,-0.08102712 L 2.4855074,-10.440402 h 1.8515625 l 1.171875,8.2499999 4.7460941,-8.2499999 z m 0,0"
       style="fill:#000000;fill-opacity:1;fill-rule:nonzero;stroke:none"
       aria-label="γ"
       transform="matrix(1.3333333,0,0,1.3333333,420.1938,67.084599)"
       clip-path="url(#clipPath31)" />
    <path
       id="path32"
       d="m 293.238,134.051 0.719,0.933 0.742,0.805 0.774,0.563 0.82,0.25 0.867,-0.086 0.91,-0.383 0.942,-0.606 0.953,-0.707 0.953,-0.675 0.93,-0.52 0.89,-0.258 0.844,0.063 0.801,0.394 0.758,0.684 0.73,0.875 0.719,0.953 0.726,0.891 0.754,0.707 0.793,0.429 0.84,0.102 0.887,-0.227 0.926,-0.492 0.949,-0.668 0.957,-0.707 0.945,-0.625 0.914,-0.41 0.871,-0.121 0.825,0.211 0.781,0.531 0.742,0.781 0.723,0.926 0.718,0.941 0.739,0.825 0.769,0.593 0.817,0.289 0.859,-0.046 0.906,-0.356 0.938,-0.586 0.957,-0.699 0.953,-0.687 0.93,-0.543 0.898,-0.293 0.852,0.027 0.804,0.359 0.762,0.653 0.73,0.863 0.719,0.949 0.727,0.902 0.75,0.735 0.789,0.465 0.832,0.136 0.883,-0.187 0.922,-0.469 0.949,-0.652 0.957,-0.711 0.945,-0.641 0.918,-0.441 0.879,-0.152 0.828,0.175 0.785,0.496 0.746,0.758 0.723,0.918 0.719,0.945 0.734,0.844 0.766,0.625 0.808,0.321 0.86,-0.008 0.898,-0.324 0.938,-0.563 0.953,-0.695"
       style="fill:none;stroke:#000000;stroke-width:0.9216;stroke-linecap:square;stroke-linejoin:miter;stroke-miterlimit:3.25;stroke-dasharray:none;stroke-opacity:1"
       transform="scale(1.3333333)" />
    <path
       id="path33"
       d="M 12.059726,-10.441626 5.9073824,-2.196875e-4 V 0.19899906 c 0,0.12890625 0.023437,0.24609375 0.023437,0.36328125 0,0.1171875 0,0.24609375 0,0.36328125 0,0.18750004 0,0.38671874 -0.023437,0.60937504 -0.023437,0.234375 -0.058594,0.4804687 -0.1054688,0.7382812 -0.035156,0.2460938 -0.09375,0.4921875 -0.1523437,0.75 -0.082031,0.2460938 -0.1875,0.46875 -0.3046875,0.6445313 -0.1289063,0.1992187 -0.2695313,0.3632812 -0.4453125,0.4804687 -0.1640625,0.1289063 -0.3632813,0.1875 -0.609375,0.1875 -0.1757813,0 -0.3398438,-0.046875 -0.4804688,-0.1289062 C 3.6691011,4.1364991 3.5519136,4.0544678 3.4464449,3.9255616 3.3526949,3.8083741 3.2706636,3.6677491 3.2237886,3.5036866 3.1651949,3.3513428 3.1417574,3.1638428 3.1417574,2.9997803 c 0,-0.3164062 0.046875,-0.5976562 0.082031,-0.8671875 C 3.2823824,1.8747803 3.3526949,1.6286866 3.4464449,1.3943116 3.5284761,1.1716553 3.6339449,0.92556156 3.7511324,0.67946781 3.8683199,0.46853031 3.9972261,0.19899906 4.1378511,-0.08225094 L 2.4855074,-10.441626 h 1.8515625 l 1.171875,8.2500001 4.7460941,-8.2500001 z m 0,0"
       style="fill:#000000;fill-opacity:1;fill-rule:nonzero;stroke:none"
       aria-label="γ"
       transform="matrix(1.3333333,0,0,1.3333333,420.1938,221.30889)"
       clip-path="url(#clipPath34)" />
    <path
       id="path35"
       d="M 238.777,100.539 293.238,67.027"
       style="fill:none;stroke:#000000;stroke-width:0.9216;stroke-linecap:square;stroke-linejoin:miter;stroke-miterlimit:3.25;stroke-dasharray:none;stroke-opacity:1"
       transform="scale(1.3333333)" />
    <path
       id="path36"
       d="m 270.289,81.148 -6.805,8.122 -3.515,-5.708 z"
       style="fill:#000000;fill-opacity:1;fill-rule:evenodd;stroke:none"
       transform="scale(1.3333333)" />
    <path
       id="path37"
       d="m 11.871535,-9.2925106 c 0.269531,0.5507813 0.375,1.2070313 0.339844,1.9453125 0,0.5039063 -0.105469,1.3125 -0.339844,2.4257813 H 3.7621601 c -0.2109375,1.125 -0.1289063,2.0273437 0.234375,2.7070312 0.328125,0.6679688 1.03125,1.0078125 2.0859375,1.0078125 0.9492187,0 1.7929687,-0.3164062 2.5078125,-0.9726562 0.4101562,-0.3515625 0.7382812,-0.7734375 0.9726562,-1.2890625 h 1.8398437 c -0.152344,0.4335937 -0.398437,0.8671875 -0.785156,1.3828125 -0.375,0.4804687 -0.7500002,0.9023437 -1.1601564,1.19531249 -0.6679688,0.57421875 -1.453125,0.9375 -2.34375,1.125 -0.4570313,0.10546875 -0.984375,0.1640625 -1.5351563,0.1640625 -1.3710937,0 -2.4492187,-0.50390625 -3.1875,-1.49999999 -0.7382812,-0.984375 -0.9140625,-2.4023438 -0.5273437,-4.1953125 0.375,-1.78125 1.1601562,-3.2109375 2.3554687,-4.3359375 1.1835938,-1.0898437 2.5546875,-1.6406247 4.125,-1.6406247 0.7734375,0 1.5,0.1875 2.1679687,0.550781 0.65625,0.351562 1.101563,0.8437499 1.359375,1.4296874 z m -1.605469,2.8945313 c 0.08203,-0.796875 0.05859,-1.4414063 -0.128906,-1.921875 -0.3164062,-0.890625 -1.0546874,-1.3476563 -2.2382812,-1.3476563 -0.8671875,0 -1.6523437,0.3164063 -2.34375,0.9257813 -0.7148437,0.609375 -1.1835937,1.3945312 -1.4414062,2.34375 z m 0,0"
       style="fill:#000000;fill-opacity:1;fill-rule:nonzero;stroke:none"
       aria-label="e"
       transform="matrix(1.3333333,0,0,1.3333333,333.80801,93.597045)" />
    <path
       id="path38"
       d="m 238.777,100.539 54.461,33.512"
       style="fill:none;stroke:#000000;stroke-width:0.9216;stroke-linecap:square;stroke-linejoin:miter;stroke-miterlimit:3.25;stroke-dasharray:none;stroke-opacity:1"
       transform="scale(1.3333333)" />
    <path
       id="path39"
       d="m 261.727,114.66 6.804,8.125 3.512,-5.711 z"
       style="fill:#000000;fill-opacity:1;fill-rule:evenodd;stroke:none"
       transform="scale(1.3333333)" />
    <path
       id="path40"
       d="m 11.871535,-9.2926415 c 0.269531,0.5507812 0.375,1.2070312 0.339844,1.9453125 0,0.5039062 -0.105469,1.3125 -0.339844,2.4257812 H 3.7621601 c -0.2109375,1.125 -0.1289063,2.0273438 0.234375,2.7070313 0.328125,0.6679687 1.03125,1.0078125 2.0859375,1.0078125 0.9492187,0 1.7929687,-0.3164063 2.5078125,-0.9726563 0.4101562,-0.3515625 0.7382812,-0.7734375 0.9726562,-1.2890625 h 1.8398437 c -0.152344,0.4335938 -0.398437,0.8671875 -0.785156,1.3828125 -0.375,0.4804688 -0.7500002,0.9023438 -1.1601564,1.19531255 -0.6679688,0.57421875 -1.453125,0.9375 -2.34375,1.125 -0.4570313,0.10546875 -0.984375,0.1640625 -1.5351563,0.1640625 -1.3710937,0 -2.4492187,-0.50390625 -3.1875,-1.50000005 -0.7382812,-0.984375 -0.9140625,-2.4023437 -0.5273437,-4.1953125 0.375,-1.78125 1.1601562,-3.2109375 2.3554687,-4.3359375 1.1835938,-1.0898437 2.5546875,-1.6406247 4.125,-1.6406247 0.7734375,0 1.5,0.1875 2.1679687,0.550781 0.65625,0.351562 1.101563,0.84375 1.359375,1.4296875 z m -1.605469,2.8945312 c 0.08203,-0.796875 0.05859,-1.4414062 -0.128906,-1.921875 -0.3164062,-0.890625 -1.0546874,-1.3476562 -2.2382812,-1.3476562 -0.8671875,0 -1.6523437,0.3164062 -2.34375,0.9257812 -0.7148437,0.609375 -1.1835937,1.3945313 -1.4414062,2.34375 z m 0,0"
       style="fill:#000000;fill-opacity:1;fill-rule:nonzero;stroke:none"
       aria-label="e"
       transform="matrix(1.3333333,0,0,1.3333333,333.80801,194.79644)" />
    <path
       id="path41"
       d="m 293.238,67.027 v 67.024"
       style="fill:none;stroke:#000000;stroke-width:0.9216;stroke-linecap:square;stroke-linejoin:miter;stroke-miterlimit:3.25;stroke-dasharray:none;stroke-opacity:1"
       transform="scale(1.3333333)" />
    <path
       id="path42"
       d="m 293.238,105.566 -3.351,-10.054 h 6.699 z"
       style="fill:#000000;fill-opacity:1;fill-rule:evenodd;stroke:none"
       transform="scale(1.3333333)" />
    <path
       id="path43"
       d="m 11.87092,-9.2940414 c 0.269531,0.5507813 0.375,1.2070313 0.339844,1.9453125 0,0.5039063 -0.105469,1.3125 -0.339844,2.4257813 H 3.7615451 c -0.2109375,1.125 -0.1289062,2.0273437 0.234375,2.7070312 0.328125,0.6679688 1.03125,1.0078125 2.0859375,1.0078125 0.9492188,0 1.7929688,-0.3164062 2.5078125,-0.9726562 0.4101563,-0.3515625 0.7382813,-0.7734375 0.9726563,-1.2890625 H 11.40217 c -0.152344,0.4335937 -0.398437,0.8671875 -0.785156,1.3828125 -0.375,0.4804687 -0.7500001,0.9023437 -1.1601564,1.19531247 -0.6679687,0.57421875 -1.453125,0.9375 -2.34375,1.125 -0.4570312,0.10546875 -0.984375,0.1640625 -1.5351562,0.1640625 -1.3710938,0 -2.4492188,-0.50390625 -3.1875,-1.49999997 -0.7382813,-0.984375 -0.9140625,-2.4023438 -0.5273438,-4.1953125 0.375,-1.78125 1.1601563,-3.2109375 2.3554688,-4.3359375 1.1835937,-1.0898439 2.5546875,-1.6406249 4.125,-1.6406249 0.7734375,0 1.5,0.1875 2.1679686,0.550781 0.65625,0.351563 1.101563,0.8437501 1.359375,1.4296876 z m -1.605469,2.8945313 c 0.08203,-0.796875 0.05859,-1.4414063 -0.128906,-1.921875 -0.3164061,-0.890625 -1.0546874,-1.3476563 -2.2382811,-1.3476563 -0.8671875,0 -1.6523438,0.3164063 -2.34375,0.9257813 -0.7148438,0.609375 -1.1835938,1.3945312 -1.4414063,2.34375 z m 0,0"
       style="fill:#000000;fill-opacity:1;fill-rule:nonzero;stroke:none"
       aria-label="e"
       transform="matrix(1.3333333,0,0,1.3333333,403.82054,144.19674)"
       clip-path="url(#clipPath44)" />
    <path
       id="path45"
       d="m 242.465,100.539 c 0,0.977 -0.387,1.914 -1.078,2.606 -0.692,0.691 -1.629,1.078 -2.61,1.078 -0.976,0 -1.914,-0.387 -2.605,-1.078 -0.692,-0.692 -1.082,-1.629 -1.082,-2.606 0,-0.98 0.39,-1.918 1.082,-2.609 0.691,-0.692 1.629,-1.078 2.605,-1.078 0.981,0 1.918,0.386 2.61,1.078 0.691,0.691 1.078,1.629 1.078,2.609 z"
       style="fill:#000000;fill-opacity:1;fill-rule:evenodd;stroke:none"
       transform="scale(1.3333333)" />
    <path
       id="path46"
       d="m 296.922,67.027 c 0,0.977 -0.387,1.914 -1.078,2.606 -0.692,0.691 -1.629,1.078 -2.606,1.078 -0.98,0 -1.918,-0.387 -2.609,-1.078 -0.691,-0.692 -1.078,-1.629 -1.078,-2.606 0,-0.98 0.387,-1.918 1.078,-2.609 0.691,-0.691 1.629,-1.078 2.609,-1.078 0.977,0 1.914,0.387 2.606,1.078 0.691,0.691 1.078,1.629 1.078,2.609 z"
       style="fill:#000000;fill-opacity:1;fill-rule:evenodd;stroke:none"
       transform="scale(1.3333333)" />
    <path
       id="path47"
       d="m 296.922,134.051 c 0,0.976 -0.387,1.914 -1.078,2.605 -0.692,0.692 -1.629,1.082 -2.606,1.082 -0.98,0 -1.918,-0.39 -2.609,-1.082 -0.691,-0.691 -1.078,-1.629 -1.078,-2.605 0,-0.977 0.387,-1.914 1.078,-2.606 0.691,-0.691 1.629,-1.082 2.609,-1.082 0.977,0 1.914,0.391 2.606,1.082 0.691,0.692 1.078,1.629 1.078,2.606 z"
       style="fill:#000000;fill-opacity:1;fill-rule:evenodd;stroke:none"
       transform="scale(1.3333333)" />
    <path
       id="path48"
       d="M 0.51634556,6.74625e-4 C 0.57493931,-1.0071379 0.77415806,-1.8860441 1.1491581,-2.6360441 1.5124393,-3.3743254 2.2155643,-4.0657316 3.2819706,-4.6751066 l 1.5703125,-0.9257813 c 0.7148437,-0.3984375 1.1953125,-0.75 1.4882812,-1.03125 0.4453125,-0.4570312 0.6679688,-0.984375 0.6679688,-1.5703125 0,-0.6679687 -0.1992188,-1.21875 -0.6210938,-1.6289062 -0.3984375,-0.3984374 -0.9609375,-0.6093754 -1.6289062,-0.6093754 -1.03125,0 -1.7109375,0.386719 -2.0976563,1.1601566 -0.2226562,0.4101563 -0.328125,0.984375 -0.3632812,1.6992188 H 0.80931431 c 0.0117188,-1.0195313 0.19921879,-1.8398438 0.57421879,-2.4960934 0.6328125,-1.125 1.7578125,-1.699219 3.375,-1.699219 1.3476562,0 2.3320312,0.351562 2.953125,1.089844 0.6210937,0.7265621 0.9257812,1.5234371 0.9257812,2.4140621 0,0.9492188 -0.3398437,1.7578125 -0.9960937,2.4257813 -0.3867188,0.3867187 -1.0664063,0.8554687 -2.0390625,1.40625 l -1.1367188,0.6210937 c -0.5273437,0.3046875 -0.9492187,0.5742188 -1.2773437,0.84375 -0.5273438,0.4921875 -0.890625,1.0078125 -1.0195313,1.5820313 h 6.421875 V 6.74625e-4 Z m 0,0"
       style="fill:#000000;fill-opacity:1;fill-rule:nonzero;stroke:none"
       aria-label="2"
       transform="matrix(1.3333333,0,0,1.3333333,351.16701,246.24129)"
       clip-path="url(#clipPath49)" />
  </g>
</svg>
