<?xml version="1.0" encoding="UTF-8"?>
<svg xmlns="http://www.w3.org/2000/svg" xmlns:xlink="http://www.w3.org/1999/xlink" width="369pt" height="185pt" viewBox="0 0 369 185">
<defs>
<g>
<g id="glyph-0-0">
<path d="M 11.953125 -10.359375 L 5.859375 0 L 5.859375 0.203125 C 5.859375 0.3125 5.875 0.4375 5.875 0.5625 C 5.875 0.6875 5.875 0.796875 5.875 0.921875 C 5.875 1.09375 5.875 1.296875 5.859375 1.515625 C 5.84375 1.765625 5.796875 2 5.765625 2.265625 C 5.71875 2.5 5.65625 2.734375 5.59375 3 C 5.515625 3.234375 5.421875 3.453125 5.296875 3.640625 C 5.1875 3.84375 5.046875 4 4.859375 4.125 C 4.703125 4.234375 4.5 4.296875 4.265625 4.296875 C 4.078125 4.296875 3.921875 4.265625 3.78125 4.1875 C 3.640625 4.09375 3.515625 4.015625 3.421875 3.90625 C 3.3125 3.78125 3.234375 3.640625 3.203125 3.484375 C 3.140625 3.3125 3.125 3.140625 3.125 2.984375 C 3.125 2.65625 3.15625 2.375 3.203125 2.125 C 3.265625 1.859375 3.3125 1.625 3.421875 1.375 C 3.5 1.15625 3.59375 0.921875 3.71875 0.6875 C 3.84375 0.453125 3.953125 0.203125 4.09375 -0.078125 L 2.453125 -10.359375 L 4.296875 -10.359375 L 5.453125 -2.1875 L 10.1875 -10.359375 Z M 11.953125 -10.359375 "/>
</g>
<g id="glyph-1-0">
<path d="M 11.796875 -9.234375 C 12.078125 -8.6875 12.1875 -8.046875 12.140625 -7.3125 C 12.140625 -6.796875 12.03125 -6 11.796875 -4.890625 L 3.734375 -4.890625 C 3.53125 -3.78125 3.609375 -2.875 3.96875 -2.203125 C 4.3125 -1.53125 5 -1.203125 6.046875 -1.203125 C 7 -1.203125 7.828125 -1.515625 8.546875 -2.15625 C 8.953125 -2.515625 9.28125 -2.9375 9.515625 -3.4375 L 11.34375 -3.4375 C 11.1875 -3.03125 10.9375 -2.578125 10.5625 -2.078125 C 10.1875 -1.59375 9.8125 -1.171875 9.40625 -0.875 C 8.734375 -0.3125 7.953125 0.046875 7.078125 0.234375 C 6.609375 0.34375 6.09375 0.40625 5.546875 0.40625 C 4.171875 0.40625 3.109375 -0.109375 2.375 -1.09375 C 1.640625 -2.078125 1.46875 -3.484375 1.84375 -5.265625 C 2.21875 -7.03125 3 -8.46875 4.203125 -9.578125 C 5.375 -10.671875 6.734375 -11.21875 8.296875 -11.21875 C 9.078125 -11.21875 9.78125 -11.03125 10.453125 -10.671875 C 11.109375 -10.3125 11.546875 -9.828125 11.796875 -9.234375 Z M 10.203125 -6.359375 C 10.296875 -7.15625 10.265625 -7.796875 10.078125 -8.28125 C 9.765625 -9.15625 9.03125 -9.625 7.859375 -9.625 C 7 -9.625 6.21875 -9.296875 5.515625 -8.6875 C 4.8125 -8.078125 4.34375 -7.3125 4.09375 -6.359375 Z M 10.203125 -6.359375 "/>
</g>
<g id="glyph-2-0">
<path d="M 1.609375 -8.421875 L 1.609375 -9.546875 C 2.703125 -9.65625 3.453125 -9.84375 3.875 -10.078125 C 4.296875 -10.3125 4.625 -10.90625 4.828125 -11.828125 L 6.015625 -11.828125 L 6.015625 0 L 4.421875 0 L 4.421875 -8.421875 Z M 1.609375 -8.421875 "/>
</g>
<g id="glyph-2-1">
<path d="M 0.53125 0 C 0.578125 -1.015625 0.78125 -1.90625 1.15625 -2.671875 C 1.53125 -3.421875 2.25 -4.109375 3.3125 -4.71875 L 4.90625 -5.65625 C 5.625 -6.0625 6.125 -6.421875 6.40625 -6.71875 C 6.875 -7.171875 7.09375 -7.703125 7.09375 -8.296875 C 7.09375 -8.96875 6.890625 -9.53125 6.453125 -9.9375 C 6.046875 -10.359375 5.484375 -10.5625 4.8125 -10.5625 C 3.78125 -10.5625 3.078125 -10.171875 2.6875 -9.390625 C 2.46875 -8.96875 2.359375 -8.390625 2.328125 -7.671875 L 0.8125 -7.671875 C 0.828125 -8.703125 1.015625 -9.53125 1.390625 -10.203125 C 2.046875 -11.34375 3.171875 -11.921875 4.8125 -11.921875 C 6.171875 -11.921875 7.171875 -11.5625 7.796875 -10.8125 C 8.4375 -10.078125 8.734375 -9.265625 8.734375 -8.359375 C 8.734375 -7.40625 8.390625 -6.59375 7.734375 -5.921875 C 7.34375 -5.53125 6.640625 -5.046875 5.65625 -4.484375 L 4.515625 -3.859375 C 3.984375 -3.546875 3.546875 -3.28125 3.234375 -3.015625 C 2.6875 -2.515625 2.328125 -1.984375 2.1875 -1.40625 L 8.6875 -1.40625 L 8.6875 0 Z M 0.53125 0 "/>
</g>
</g>
<clipPath id="clip-0">
<path clip-rule="nonzero" d="M 24 118 L 33.839844 118 L 33.839844 133 L 24 133 Z M 24 118 "/>
</clipPath>
<clipPath id="clip-1">
<path clip-rule="nonzero" d="M 80 172 L 86 172 L 86 184.320312 L 80 184.320312 Z M 80 172 "/>
</clipPath>
<clipPath id="clip-2">
<path clip-rule="nonzero" d="M 317 39 L 327.359375 39 L 327.359375 55 L 317 55 Z M 317 39 "/>
</clipPath>
<clipPath id="clip-3">
<path clip-rule="nonzero" d="M 317 155 L 327.359375 155 L 327.359375 171 L 317 171 Z M 317 155 "/>
</clipPath>
<clipPath id="clip-4">
<path clip-rule="nonzero" d="M 263 172 L 273 172 L 273 184.320312 L 263 184.320312 Z M 263 172 "/>
</clipPath>
</defs>
<path fill-rule="evenodd" fill="rgb(100%, 99.998474%, 100%)" fill-opacity="1" d="M 0 0 L 368.640625 0 L 368.640625 184.320312 L 0 184.320312 Z M 0 0 "/>
<path fill="none" stroke-width="0.9216" stroke-linecap="square" stroke-linejoin="miter" stroke="rgb(0%, 0%, 0%)" stroke-opacity="1" stroke-miterlimit="3.25" d="M 54.457031 100.539062 L 53.621094 99.84375 L 52.78125 99.226562 L 51.945312 98.757812 L 51.105469 98.492188 L 50.269531 98.460938 L 49.429688 98.660156 L 48.59375 99.074219 L 47.753906 99.65625 L 46.917969 100.335938 L 46.078125 101.039062 L 45.242188 101.6875 L 44.40625 102.203125 L 43.566406 102.53125 L 42.730469 102.632812 L 41.890625 102.5 L 41.054688 102.140625 L 40.214844 101.601562 L 39.378906 100.941406 L 38.539062 100.238281 L 37.703125 99.566406 L 36.863281 99.007812 L 36.027344 98.621094 L 35.1875 98.449219 L 34.351562 98.519531 L 33.511719 98.816406 L 32.675781 99.308594 L 31.835938 99.941406 L 31 100.640625 L 30.160156 101.332031 L 29.324219 101.929688 L 28.484375 102.371094 L 27.648438 102.605469 L 26.808594 102.605469 L 25.972656 102.371094 L 25.132812 101.929688 L 24.296875 101.332031 L 23.457031 100.640625 L 22.621094 99.941406 L 21.785156 99.308594 L 20.945312 98.816406 L 20.109375 98.519531 L 19.269531 98.449219 L 18.433594 98.621094 L 17.59375 99.007812 L 16.757812 99.566406 L 15.917969 100.238281 L 15.082031 100.941406 L 14.242188 101.601562 L 13.40625 102.140625 L 12.566406 102.5 L 11.730469 102.632812 L 10.890625 102.53125 L 10.054688 102.203125 L 9.214844 101.6875 L 8.378906 101.039062 L 7.539062 100.335938 L 6.703125 99.65625 L 5.863281 99.074219 L 5.027344 98.660156 L 4.1875 98.460938 L 3.351562 98.492188 L 2.515625 98.757812 L 1.675781 99.226562 L 0.839844 99.84375 L 0 100.539062 "/>
<g clip-path="url(#clip-0)">
<g fill="rgb(0%, 0%, 0%)" fill-opacity="1">
<use xlink:href="#glyph-0-0" x="21.650966" y="128.410364"/>
</g>
</g>
<path fill="none" stroke-width="0.9216" stroke-linecap="square" stroke-linejoin="miter" stroke="rgb(0%, 0%, 0%)" stroke-opacity="1" stroke-miterlimit="3.25" d="M 108.917969 67.027344 L 109.871094 67.71875 L 110.804688 68.285156 L 111.707031 68.605469 L 112.5625 68.617188 L 113.371094 68.292969 L 114.136719 67.671875 L 114.871094 66.828125 L 115.59375 65.882812 L 116.316406 64.964844 L 117.0625 64.207031 L 117.847656 63.707031 L 118.675781 63.53125 L 119.554688 63.6875 L 120.472656 64.128906 L 121.417969 64.765625 L 122.375 65.480469 L 123.324219 66.132812 L 124.246094 66.597656 L 125.125 66.789062 L 125.960938 66.652344 L 126.75 66.1875 L 127.5 65.453125 L 128.226562 64.546875 L 128.945312 63.597656 L 129.675781 62.738281 L 130.4375 62.085938 L 131.242188 61.726562 L 132.09375 61.699219 L 132.988281 61.992188 L 133.921875 62.53125 L 134.875 63.21875 L 135.832031 63.921875 L 136.769531 64.507812 L 137.675781 64.859375 L 138.535156 64.90625 L 139.351562 64.621094 L 140.121094 64.027344 L 140.855469 63.203125 L 141.578125 62.261719 L 142.300781 61.335938 L 143.042969 60.554688 L 143.824219 60.023438 L 144.648438 59.8125 L 145.519531 59.929688 L 146.433594 60.34375 L 147.375 60.964844 L 148.332031 61.675781 L 149.28125 62.339844 L 150.207031 62.835938 L 151.09375 63.058594 L 151.9375 62.960938 L 152.730469 62.53125 L 153.484375 61.824219 L 154.210938 60.929688 L 154.929688 59.980469 L 155.660156 59.101562 L 156.417969 58.421875 L 157.214844 58.027344 L 158.0625 57.964844 L 158.953125 58.222656 L 159.882812 58.742188 L 160.835938 59.417969 L 161.789062 60.125 L 162.730469 60.730469 L 163.640625 61.113281 L 164.507812 61.195312 L 165.328125 60.945312 L 166.101562 60.386719 L 166.84375 59.582031 L 167.5625 58.648438 "/>
<g fill="rgb(0%, 0%, 0%)" fill-opacity="1">
<use xlink:href="#glyph-0-0" x="130.825352" y="50.313449"/>
</g>
<path fill="none" stroke-width="0.9216" stroke-linecap="square" stroke-linejoin="miter" stroke="rgb(0%, 0%, 0%)" stroke-opacity="1" stroke-miterlimit="3.25" d="M 108.917969 134.050781 L 109.636719 134.984375 L 110.378906 135.789062 L 111.152344 136.351562 L 111.972656 136.601562 L 112.839844 136.515625 L 113.75 136.132812 L 114.691406 135.527344 L 115.644531 134.820312 L 116.597656 134.144531 L 117.527344 133.625 L 118.417969 133.367188 L 119.265625 133.429688 L 120.0625 133.824219 L 120.820312 134.507812 L 121.550781 135.382812 L 122.269531 136.335938 L 122.996094 137.226562 L 123.75 137.933594 L 124.542969 138.363281 L 125.382812 138.464844 L 126.269531 138.238281 L 127.195312 137.746094 L 128.148438 137.078125 L 129.101562 136.371094 L 130.046875 135.746094 L 130.960938 135.335938 L 131.832031 135.214844 L 132.65625 135.425781 L 133.4375 135.957031 L 134.179688 136.738281 L 134.902344 137.664062 L 135.621094 138.605469 L 136.359375 139.429688 L 137.128906 140.023438 L 137.945312 140.3125 L 138.804688 140.265625 L 139.710938 139.910156 L 140.648438 139.324219 L 141.605469 138.625 L 142.558594 137.9375 L 143.492188 137.394531 L 144.386719 137.101562 L 145.238281 137.128906 L 146.042969 137.488281 L 146.804688 138.140625 L 147.535156 139.003906 L 148.253906 139.953125 L 148.980469 140.855469 L 149.730469 141.589844 L 150.519531 142.054688 L 151.355469 142.191406 L 152.234375 142.003906 L 153.15625 141.535156 L 154.105469 140.882812 L 155.0625 140.171875 L 156.007812 139.53125 L 156.925781 139.089844 L 157.804688 138.9375 L 158.632812 139.113281 L 159.417969 139.609375 L 160.164062 140.367188 L 160.886719 141.285156 L 161.605469 142.230469 L 162.339844 143.074219 L 163.109375 143.699219 L 163.917969 144.019531 L 164.773438 144.011719 L 165.671875 143.6875 L 166.609375 143.125 L 167.5625 142.429688 "/>
<g fill="rgb(0%, 0%, 0%)" fill-opacity="1">
<use xlink:href="#glyph-0-0" x="130.825352" y="165.981665"/>
</g>
<path fill="none" stroke-width="0.9216" stroke-linecap="square" stroke-linejoin="miter" stroke="rgb(0%, 0%, 0%)" stroke-opacity="1" stroke-miterlimit="3.25" d="M 54.457031 100.539062 L 108.917969 67.027344 "/>
<path fill-rule="evenodd" fill="rgb(0%, 0%, 0%)" fill-opacity="1" d="M 77.40625 86.417969 L 87.726562 84 L 84.210938 78.292969 Z M 77.40625 86.417969 "/>
<g fill="rgb(0%, 0%, 0%)" fill-opacity="1">
<use xlink:href="#glyph-1-0" x="66.036004" y="70.197784"/>
</g>
<path fill="none" stroke-width="0.9216" stroke-linecap="square" stroke-linejoin="miter" stroke="rgb(0%, 0%, 0%)" stroke-opacity="1" stroke-miterlimit="3.25" d="M 54.457031 100.539062 L 108.917969 134.050781 "/>
<path fill-rule="evenodd" fill="rgb(0%, 0%, 0%)" fill-opacity="1" d="M 85.96875 119.929688 L 75.648438 117.515625 L 79.164062 111.804688 Z M 85.96875 119.929688 "/>
<g fill="rgb(0%, 0%, 0%)" fill-opacity="1">
<use xlink:href="#glyph-1-0" x="66.036004" y="146.097329"/>
</g>
<path fill="none" stroke-width="0.9216" stroke-linecap="square" stroke-linejoin="miter" stroke="rgb(0%, 0%, 0%)" stroke-opacity="1" stroke-miterlimit="3.25" d="M 108.917969 67.027344 L 108.917969 134.050781 "/>
<path fill-rule="evenodd" fill="rgb(0%, 0%, 0%)" fill-opacity="1" d="M 108.917969 95.511719 L 105.566406 105.566406 L 112.269531 105.566406 Z M 108.917969 95.511719 "/>
<g fill="rgb(0%, 0%, 0%)" fill-opacity="1">
<use xlink:href="#glyph-1-0" x="118.545408" y="108.147557"/>
</g>
<path fill-rule="evenodd" fill="rgb(0%, 0%, 0%)" fill-opacity="1" d="M 58.144531 100.539062 C 58.144531 101.515625 57.757812 102.453125 57.066406 103.144531 C 56.375 103.835938 55.4375 104.222656 54.457031 104.222656 C 53.480469 104.222656 52.542969 103.835938 51.851562 103.144531 C 51.160156 102.453125 50.773438 101.515625 50.773438 100.539062 C 50.773438 99.558594 51.160156 98.621094 51.851562 97.929688 C 52.542969 97.238281 53.480469 96.851562 54.457031 96.851562 C 55.4375 96.851562 56.375 97.238281 57.066406 97.929688 C 57.757812 98.621094 58.144531 99.558594 58.144531 100.539062 Z M 58.144531 100.539062 "/>
<path fill-rule="evenodd" fill="rgb(0%, 0%, 0%)" fill-opacity="1" d="M 112.601562 67.027344 C 112.601562 68.003906 112.214844 68.941406 111.523438 69.632812 C 110.832031 70.324219 109.894531 70.710938 108.917969 70.710938 C 107.9375 70.710938 107 70.324219 106.308594 69.632812 C 105.617188 68.941406 105.230469 68.003906 105.230469 67.027344 C 105.230469 66.046875 105.617188 65.109375 106.308594 64.417969 C 107 63.726562 107.9375 63.339844 108.917969 63.339844 C 109.894531 63.339844 110.832031 63.726562 111.523438 64.417969 C 112.214844 65.109375 112.601562 66.046875 112.601562 67.027344 Z M 112.601562 67.027344 "/>
<path fill-rule="evenodd" fill="rgb(0%, 0%, 0%)" fill-opacity="1" d="M 112.601562 134.050781 C 112.601562 135.027344 112.214844 135.964844 111.523438 136.65625 C 110.832031 137.347656 109.894531 137.738281 108.917969 137.738281 C 107.9375 137.738281 107 137.347656 106.308594 136.65625 C 105.617188 135.964844 105.230469 135.027344 105.230469 134.050781 C 105.230469 133.074219 105.617188 132.136719 106.308594 131.445312 C 107 130.753906 107.9375 130.363281 108.917969 130.363281 C 109.894531 130.363281 110.832031 130.753906 111.523438 131.445312 C 112.214844 132.136719 112.601562 133.074219 112.601562 134.050781 Z M 112.601562 134.050781 "/>
<g clip-path="url(#clip-1)">
<g fill="rgb(0%, 0%, 0%)" fill-opacity="1">
<use xlink:href="#glyph-2-0" x="79.055256" y="184.680966"/>
</g>
</g>
<path fill="none" stroke-width="0.9216" stroke-linecap="square" stroke-linejoin="miter" stroke="rgb(0%, 0%, 0%)" stroke-opacity="1" stroke-miterlimit="3.25" d="M 238.777344 100.539062 L 237.941406 99.84375 L 237.101562 99.226562 L 236.265625 98.757812 L 235.425781 98.492188 L 234.589844 98.460938 L 233.75 98.660156 L 232.914062 99.074219 L 232.074219 99.65625 L 231.238281 100.335938 L 230.398438 101.039062 L 229.5625 101.6875 L 228.722656 102.203125 L 227.886719 102.53125 L 227.050781 102.632812 L 226.210938 102.5 L 225.375 102.140625 L 224.535156 101.601562 L 223.699219 100.941406 L 222.859375 100.238281 L 222.023438 99.566406 L 221.183594 99.007812 L 220.347656 98.621094 L 219.507812 98.449219 L 218.671875 98.519531 L 217.832031 98.816406 L 216.996094 99.308594 L 216.15625 99.941406 L 215.320312 100.640625 L 214.480469 101.332031 L 213.644531 101.929688 L 212.804688 102.371094 L 211.96875 102.605469 L 211.128906 102.605469 L 210.292969 102.371094 L 209.453125 101.929688 L 208.617188 101.332031 L 207.777344 100.640625 L 206.941406 99.941406 L 206.101562 99.308594 L 205.265625 98.816406 L 204.425781 98.519531 L 203.589844 98.449219 L 202.753906 98.621094 L 201.914062 99.007812 L 201.078125 99.566406 L 200.238281 100.238281 L 199.402344 100.941406 L 198.5625 101.601562 L 197.726562 102.140625 L 196.886719 102.5 L 196.050781 102.632812 L 195.210938 102.53125 L 194.375 102.203125 L 193.535156 101.6875 L 192.699219 101.039062 L 191.859375 100.335938 L 191.023438 99.65625 L 190.183594 99.074219 L 189.347656 98.660156 L 188.507812 98.460938 L 187.671875 98.492188 L 186.832031 98.757812 L 185.996094 99.226562 L 185.15625 99.84375 L 184.320312 100.539062 "/>
<g fill="rgb(0%, 0%, 0%)" fill-opacity="1">
<use xlink:href="#glyph-0-0" x="205.970966" y="128.410364"/>
</g>
<path fill="none" stroke-width="0.9216" stroke-linecap="square" stroke-linejoin="miter" stroke="rgb(0%, 0%, 0%)" stroke-opacity="1" stroke-miterlimit="3.25" d="M 293.238281 67.027344 L 294.191406 67.71875 L 295.125 68.285156 L 296.027344 68.605469 L 296.882812 68.617188 L 297.691406 68.292969 L 298.457031 67.671875 L 299.191406 66.828125 L 299.914062 65.882812 L 300.636719 64.964844 L 301.382812 64.207031 L 302.167969 63.707031 L 302.996094 63.53125 L 303.875 63.6875 L 304.792969 64.128906 L 305.738281 64.765625 L 306.695312 65.480469 L 307.640625 66.132812 L 308.5625 66.597656 L 309.445312 66.789062 L 310.28125 66.652344 L 311.070312 66.1875 L 311.820312 65.453125 L 312.546875 64.546875 L 313.265625 63.597656 L 313.996094 62.738281 L 314.757812 62.085938 L 315.5625 61.726562 L 316.414062 61.699219 L 317.308594 61.992188 L 318.242188 62.53125 L 319.195312 63.21875 L 320.148438 63.921875 L 321.089844 64.507812 L 321.996094 64.859375 L 322.855469 64.90625 L 323.667969 64.621094 L 324.441406 64.027344 L 325.175781 63.203125 L 325.898438 62.261719 L 326.621094 61.335938 L 327.363281 60.554688 L 328.144531 60.023438 L 328.96875 59.8125 L 329.839844 59.929688 L 330.753906 60.34375 L 331.695312 60.964844 L 332.652344 61.675781 L 333.601562 62.339844 L 334.527344 62.835938 L 335.414062 63.058594 L 336.257812 62.960938 L 337.050781 62.53125 L 337.804688 61.824219 L 338.53125 60.929688 L 339.25 59.980469 L 339.980469 59.101562 L 340.738281 58.421875 L 341.535156 58.027344 L 342.382812 57.964844 L 343.273438 58.222656 L 344.203125 58.742188 L 345.15625 59.417969 L 346.109375 60.125 L 347.050781 60.730469 L 347.960938 61.113281 L 348.828125 61.195312 L 349.648438 60.945312 L 350.421875 60.386719 L 351.160156 59.582031 L 351.882812 58.648438 "/>
<g clip-path="url(#clip-2)">
<g fill="rgb(0%, 0%, 0%)" fill-opacity="1">
<use xlink:href="#glyph-0-0" x="315.145352" y="50.313449"/>
</g>
</g>
<path fill="none" stroke-width="0.9216" stroke-linecap="square" stroke-linejoin="miter" stroke="rgb(0%, 0%, 0%)" stroke-opacity="1" stroke-miterlimit="3.25" d="M 293.238281 134.050781 L 293.957031 134.984375 L 294.699219 135.789062 L 295.472656 136.351562 L 296.292969 136.601562 L 297.160156 136.515625 L 298.070312 136.132812 L 299.011719 135.527344 L 299.964844 134.820312 L 300.917969 134.144531 L 301.847656 133.625 L 302.738281 133.367188 L 303.582031 133.429688 L 304.382812 133.824219 L 305.140625 134.507812 L 305.871094 135.382812 L 306.589844 136.335938 L 307.316406 137.226562 L 308.070312 137.933594 L 308.863281 138.363281 L 309.703125 138.464844 L 310.589844 138.238281 L 311.515625 137.746094 L 312.464844 137.078125 L 313.421875 136.371094 L 314.367188 135.746094 L 315.28125 135.335938 L 316.152344 135.214844 L 316.976562 135.425781 L 317.757812 135.957031 L 318.5 136.738281 L 319.222656 137.664062 L 319.941406 138.605469 L 320.679688 139.429688 L 321.449219 140.023438 L 322.265625 140.3125 L 323.125 140.265625 L 324.03125 139.910156 L 324.96875 139.324219 L 325.925781 138.625 L 326.878906 137.9375 L 327.808594 137.394531 L 328.707031 137.101562 L 329.558594 137.128906 L 330.363281 137.488281 L 331.125 138.140625 L 331.855469 139.003906 L 332.574219 139.953125 L 333.300781 140.855469 L 334.050781 141.589844 L 334.839844 142.054688 L 335.671875 142.191406 L 336.554688 142.003906 L 337.476562 141.535156 L 338.425781 140.882812 L 339.382812 140.171875 L 340.328125 139.53125 L 341.246094 139.089844 L 342.125 138.9375 L 342.953125 139.113281 L 343.738281 139.609375 L 344.484375 140.367188 L 345.207031 141.285156 L 345.925781 142.230469 L 346.660156 143.074219 L 347.425781 143.699219 L 348.234375 144.019531 L 349.09375 144.011719 L 349.992188 143.6875 L 350.929688 143.125 L 351.882812 142.429688 "/>
<g clip-path="url(#clip-3)">
<g fill="rgb(0%, 0%, 0%)" fill-opacity="1">
<use xlink:href="#glyph-0-0" x="315.145352" y="165.981665"/>
</g>
</g>
<path fill="none" stroke-width="0.9216" stroke-linecap="square" stroke-linejoin="miter" stroke="rgb(0%, 0%, 0%)" stroke-opacity="1" stroke-miterlimit="3.25" d="M 238.777344 100.539062 L 293.238281 67.027344 "/>
<path fill-rule="evenodd" fill="rgb(0%, 0%, 0%)" fill-opacity="1" d="M 270.289062 81.148438 L 263.484375 89.269531 L 259.96875 83.5625 Z M 270.289062 81.148438 "/>
<g fill="rgb(0%, 0%, 0%)" fill-opacity="1">
<use xlink:href="#glyph-1-0" x="250.356004" y="70.197784"/>
</g>
<path fill="none" stroke-width="0.9216" stroke-linecap="square" stroke-linejoin="miter" stroke="rgb(0%, 0%, 0%)" stroke-opacity="1" stroke-miterlimit="3.25" d="M 238.777344 100.539062 L 293.238281 134.050781 "/>
<path fill-rule="evenodd" fill="rgb(0%, 0%, 0%)" fill-opacity="1" d="M 261.726562 114.660156 L 268.53125 122.785156 L 272.042969 117.074219 Z M 261.726562 114.660156 "/>
<g fill="rgb(0%, 0%, 0%)" fill-opacity="1">
<use xlink:href="#glyph-1-0" x="250.356004" y="146.097329"/>
</g>
<path fill="none" stroke-width="0.9216" stroke-linecap="square" stroke-linejoin="miter" stroke="rgb(0%, 0%, 0%)" stroke-opacity="1" stroke-miterlimit="3.25" d="M 293.238281 67.027344 L 293.238281 134.050781 "/>
<path fill-rule="evenodd" fill="rgb(0%, 0%, 0%)" fill-opacity="1" d="M 293.238281 105.566406 L 289.886719 95.511719 L 296.585938 95.511719 Z M 293.238281 105.566406 "/>
<g fill="rgb(0%, 0%, 0%)" fill-opacity="1">
<use xlink:href="#glyph-1-0" x="302.865408" y="108.147557"/>
</g>
<path fill-rule="evenodd" fill="rgb(0%, 0%, 0%)" fill-opacity="1" d="M 242.464844 100.539062 C 242.464844 101.515625 242.078125 102.453125 241.386719 103.144531 C 240.695312 103.835938 239.757812 104.222656 238.777344 104.222656 C 237.800781 104.222656 236.863281 103.835938 236.171875 103.144531 C 235.480469 102.453125 235.089844 101.515625 235.089844 100.539062 C 235.089844 99.558594 235.480469 98.621094 236.171875 97.929688 C 236.863281 97.238281 237.800781 96.851562 238.777344 96.851562 C 239.757812 96.851562 240.695312 97.238281 241.386719 97.929688 C 242.078125 98.621094 242.464844 99.558594 242.464844 100.539062 Z M 242.464844 100.539062 "/>
<path fill-rule="evenodd" fill="rgb(0%, 0%, 0%)" fill-opacity="1" d="M 296.921875 67.027344 C 296.921875 68.003906 296.535156 68.941406 295.84375 69.632812 C 295.152344 70.324219 294.214844 70.710938 293.238281 70.710938 C 292.257812 70.710938 291.320312 70.324219 290.628906 69.632812 C 289.9375 68.941406 289.550781 68.003906 289.550781 67.027344 C 289.550781 66.046875 289.9375 65.109375 290.628906 64.417969 C 291.320312 63.726562 292.257812 63.339844 293.238281 63.339844 C 294.214844 63.339844 295.152344 63.726562 295.84375 64.417969 C 296.535156 65.109375 296.921875 66.046875 296.921875 67.027344 Z M 296.921875 67.027344 "/>
<path fill-rule="evenodd" fill="rgb(0%, 0%, 0%)" fill-opacity="1" d="M 296.921875 134.050781 C 296.921875 135.027344 296.535156 135.964844 295.84375 136.65625 C 295.152344 137.347656 294.214844 137.738281 293.238281 137.738281 C 292.257812 137.738281 291.320312 137.347656 290.628906 136.65625 C 289.9375 135.964844 289.550781 135.027344 289.550781 134.050781 C 289.550781 133.074219 289.9375 132.136719 290.628906 131.445312 C 291.320312 130.753906 292.257812 130.363281 293.238281 130.363281 C 294.214844 130.363281 295.152344 130.753906 295.84375 131.445312 C 296.535156 132.136719 296.921875 133.074219 296.921875 134.050781 Z M 296.921875 134.050781 "/>
<g clip-path="url(#clip-4)">
<g fill="rgb(0%, 0%, 0%)" fill-opacity="1">
<use xlink:href="#glyph-2-1" x="263.375256" y="184.680966"/>
</g>
</g>
</svg>
