<?xml version="1.0" encoding="UTF-8" standalone="no"?>
<!-- Created with Inkscape (http://www.inkscape.org/) -->

<svg
   version="1.1"
   id="svg2"
   width="246.66667"
   height="246.66667"
   viewBox="0 0 246.66667 246.66667"
   sodipodi:docname="0a1m2kqb65f42.pdf"
   xmlns:inkscape="http://www.inkscape.org/namespaces/inkscape"
   xmlns:sodipodi="http://sodipodi.sourceforge.net/DTD/sodipodi-0.dtd"
   xmlns="http://www.w3.org/2000/svg"
   xmlns:svg="http://www.w3.org/2000/svg">
  <defs
     id="defs6">
    <clipPath
       clipPathUnits="userSpaceOnUse"
       id="clipPath20">
      <path
         d="m 28,117 h 9.922 v 16 H 28 Z"
         id="path18" />
    </clipPath>
    <clipPath
       clipPathUnits="userSpaceOnUse"
       id="clipPath44">
      <path
         d="m 80,172 h 5 v 12.32 h -5 z"
         id="path42" />
    </clipPath>
  </defs>
  <sodipodi:namedview
     id="namedview4"
     pagecolor="#ffffff"
     bordercolor="#999999"
     borderopacity="1"
     inkscape:showpageshadow="0"
     inkscape:pageopacity="0"
     inkscape:pagecheckerboard="0"
     inkscape:deskcolor="#d1d1d1" />
  <g
     id="g8"
     inkscape:groupmode="layer"
     inkscape:label="0a1m2kqb65f42"
     transform="matrix(1.3333333,0,0,1.3333333,0,9.5e-6)">
    <g
       id="g10">
      <path
         d="M 62.836,100.539 62,99.766 l -0.84,-0.661 -0.836,-0.46 -0.84,-0.196 -0.836,0.098 -0.839,0.379 -0.836,0.605 -0.84,0.746 -0.836,0.782 -0.84,0.711 -0.836,0.539 -0.84,0.289 h -0.836 l -0.84,-0.289 -0.835,-0.539 -0.84,-0.708 -0.836,-0.785 -0.84,-0.746 -0.836,-0.605 -0.84,-0.379 -0.836,-0.098 -0.84,0.196 -0.836,0.46 -0.836,0.665 -0.839,0.769 -0.836,0.773 -0.84,0.665 -0.836,0.461 -0.84,0.195 -0.836,-0.102 -0.84,-0.375 -0.836,-0.605 -0.839,-0.746 -0.836,-0.785 -0.84,-0.711 -0.836,-0.536 -0.84,-0.289 H 31 l -0.84,0.289 -0.836,0.536 -0.84,0.711 -0.836,0.785 -0.839,0.746 -0.836,0.605 -0.84,0.375 -0.836,0.102 -0.84,-0.195 -0.836,-0.461 -0.836,-0.665 -0.84,-0.773 -0.836,-0.769 -0.839,-0.665 -0.836,-0.46 -0.84,-0.196 -0.836,0.098 -0.84,0.379 -0.836,0.605 -0.84,0.746 -0.836,0.785 -0.84,0.708 -0.836,0.539 -0.839,0.289 H 10.055 L 9.215,102.309 8.379,101.77 7.539,101.059 6.703,100.277 5.863,99.531 5.027,98.926 4.188,98.547 3.352,98.449 2.516,98.645 1.676,99.105 0.84,99.766 0,100.539"
         style="fill:none;stroke:#000000;stroke-width:0.9216;stroke-linecap:square;stroke-linejoin:miter;stroke-miterlimit:3.25;stroke-dasharray:none;stroke-opacity:1"
         id="path12" />
    </g>
    <g
       id="g14">
      <g
         id="g16"
         clip-path="url(#clipPath20)">
        <text
           xml:space="preserve"
           transform="translate(25.840057,128.41036)"
           style="font-variant:normal;font-size:20.16px;font-family:CairoFont-0;-inkscape-font-specification:CairoFont-0-1;writing-mode:lr-tb;fill:#000000;fill-opacity:1;fill-rule:nonzero;stroke:none"
           id="text24"><tspan
             x="0"
             y="0"
             id="tspan22">γ</tspan></text>
      </g>
    </g>
    <g
       id="g26">
      <path
         d="m 117.293,100.539 c 0,7.223 -2.867,14.149 -7.973,19.254 -5.109,5.105 -12.035,7.973 -19.254,7.973 -7.222,0 -14.148,-2.868 -19.254,-7.973 -5.105,-5.105 -7.976,-12.031 -7.976,-19.254 0,-7.223 2.871,-14.148 7.976,-19.254 5.106,-5.105 12.032,-7.976 19.254,-7.976 7.219,0 14.145,2.871 19.254,7.976 5.106,5.106 7.973,12.031 7.973,19.254 z"
         style="fill:none;stroke:#000000;stroke-width:0.9216;stroke-linecap:square;stroke-linejoin:miter;stroke-miterlimit:3.25;stroke-dasharray:none;stroke-opacity:1"
         id="path28" />
      <path
         d="m 117.293,105.566 3.352,-10.054 h -6.704 z"
         style="fill:#000000;fill-opacity:1;fill-rule:evenodd;stroke:none"
         id="path30" />
      <text
         xml:space="preserve"
         transform="translate(125.2136,108.14756)"
         style="font-variant:normal;font-size:21.12px;font-family:CairoFont-1;-inkscape-font-specification:CairoFont-1-0;writing-mode:lr-tb;fill:#000000;fill-opacity:1;fill-rule:nonzero;stroke:none"
         id="text34"><tspan
           x="0"
           y="0"
           id="tspan32">e</tspan></text>
      <path
         d="m 66.523,100.539 c 0,0.977 -0.39,1.914 -1.082,2.606 -0.691,0.691 -1.629,1.078 -2.605,1.078 -0.977,0 -1.914,-0.387 -2.606,-1.078 -0.691,-0.692 -1.082,-1.629 -1.082,-2.606 0,-0.98 0.391,-1.918 1.082,-2.609 0.692,-0.692 1.629,-1.078 2.606,-1.078 0.976,0 1.914,0.386 2.605,1.078 0.692,0.691 1.082,1.629 1.082,2.609 z"
         style="fill:#000000;fill-opacity:1;fill-rule:evenodd;stroke:none"
         id="path36" />
    </g>
    <g
       id="g38">
      <g
         id="g40"
         clip-path="url(#clipPath44)">
        <text
           xml:space="preserve"
           transform="translate(79.055256,184.68097)"
           style="font-variant:normal;font-size:16.8px;font-family:CairoFont-2;-inkscape-font-specification:CairoFont-2-0;writing-mode:lr-tb;fill:#000000;fill-opacity:1;fill-rule:nonzero;stroke:none"
           id="text48"><tspan
             x="0"
             y="0"
             id="tspan46">1</tspan></text>
      </g>
    </g>
  </g>
</svg>
