<?xml version="1.0" encoding="UTF-8" standalone="no"?>
<!-- Created with Inkscape (http://www.inkscape.org/) -->

<svg
   version="1.1"
   id="svg2"
   width="492"
   height="246.66667"
   viewBox="0 0 492 246.66667"
   sodipodi:docname="0fg397uh5r1xi.pdf"
   xmlns:inkscape="http://www.inkscape.org/namespaces/inkscape"
   xmlns:sodipodi="http://sodipodi.sourceforge.net/DTD/sodipodi-0.dtd"
   xmlns="http://www.w3.org/2000/svg"
   xmlns:svg="http://www.w3.org/2000/svg">
  <defs
     id="defs6">
    <clipPath
       clipPathUnits="userSpaceOnUse"
       id="clipPath44">
      <path
         d="M 80,50 H 90.238 V 66 H 80 Z"
         id="path42" />
    </clipPath>
    <clipPath
       clipPathUnits="userSpaceOnUse"
       id="clipPath62">
      <path
         d="m 80,172 h 5 v 12.32 h -5 z"
         id="path60" />
    </clipPath>
    <clipPath
       clipPathUnits="userSpaceOnUse"
       id="clipPath96">
      <path
         d="m 263,172 h 10 v 12.32 h -10 z"
         id="path94" />
    </clipPath>
  </defs>
  <sodipodi:namedview
     id="namedview4"
     pagecolor="#ffffff"
     bordercolor="#999999"
     borderopacity="1"
     inkscape:showpageshadow="0"
     inkscape:pageopacity="0"
     inkscape:pagecheckerboard="0"
     inkscape:deskcolor="#d1d1d1" />
  <g
     id="g8"
     inkscape:groupmode="layer"
     inkscape:label="0fg397uh5r1xi"
     transform="matrix(1.3333333,0,0,1.3333333,0,9.5e-6)">
    <g
       id="g10">
      <path
         d="M 0,100.539 H 50.27"
         style="fill:none;stroke:#000000;stroke-width:0.9216;stroke-linecap:square;stroke-linejoin:miter;stroke-miterlimit:3.25;stroke-dasharray:none;stroke-opacity:1"
         id="path12" />
      <path
         d="m 30.16,100.539 -10.051,3.352 v -6.703 z"
         style="fill:#000000;fill-opacity:1;fill-rule:evenodd;stroke:none"
         id="path14" />
      <text
         xml:space="preserve"
         transform="translate(19.057436,128.41036)"
         style="font-variant:normal;font-size:21.12px;font-family:CairoFont-0;-inkscape-font-specification:CairoFont-0-0;writing-mode:lr-tb;fill:#000000;fill-opacity:1;fill-rule:nonzero;stroke:none"
         id="text18"><tspan
           x="0"
           y="0"
           id="tspan16">e</tspan></text>
      <path
         d="M 167.562,100.539 H 117.293"
         style="fill:none;stroke:#000000;stroke-width:0.9216;stroke-linecap:square;stroke-linejoin:miter;stroke-miterlimit:3.25;stroke-dasharray:none;stroke-opacity:1"
         id="path20" />
      <path
         d="m 147.457,100.539 -10.055,-3.351 v 6.703 z"
         style="fill:#000000;fill-opacity:1;fill-rule:evenodd;stroke:none"
         id="path22" />
      <text
         xml:space="preserve"
         transform="translate(136.35198,87.884749)"
         style="font-variant:normal;font-size:21.12px;font-family:CairoFont-0;-inkscape-font-specification:CairoFont-0-0;writing-mode:lr-tb;fill:#000000;fill-opacity:1;fill-rule:nonzero;stroke:none"
         id="text26"><tspan
           x="0"
           y="0"
           id="tspan24">e</tspan></text>
      <path
         d="m 50.27,100.539 c 2.3,10.223 9.14,18.836 18.578,23.391 9.433,4.558 20.433,4.558 29.871,0 9.433,-4.555 16.277,-13.168 18.574,-23.391"
         style="fill:none;stroke:#000000;stroke-width:0.9216;stroke-linecap:square;stroke-linejoin:miter;stroke-miterlimit:3.25;stroke-dasharray:none;stroke-opacity:1"
         id="path28" />
      <path
         d="m 88.809,127.348 -10.055,3.351 v -6.703 z"
         style="fill:#000000;fill-opacity:1;fill-rule:evenodd;stroke:none"
         id="path30" />
      <text
         xml:space="preserve"
         transform="translate(77.704709,155.22055)"
         style="font-variant:normal;font-size:21.12px;font-family:CairoFont-0;-inkscape-font-specification:CairoFont-0-0;writing-mode:lr-tb;fill:#000000;fill-opacity:1;fill-rule:nonzero;stroke:none"
         id="text34"><tspan
           x="0"
           y="0"
           id="tspan32">e</tspan></text>
      <path
         d="m 117.293,100.539 -0.93,-0.637 -0.843,-0.621 -0.668,-0.64 -0.438,-0.696 -0.187,-0.773 0.05,-0.871 0.235,-0.965 0.343,-1.043 0.352,-1.09 0.262,-1.09 0.097,-1.035 -0.14,-0.941 -0.403,-0.797 -0.66,-0.641 -0.886,-0.476 -1.039,-0.336 -1.118,-0.242 -1.105,-0.207 -1.016,-0.231 -0.855,-0.328 -0.664,-0.469 -0.469,-0.648 -0.293,-0.832 -0.164,-0.989 -0.109,-1.097 -0.122,-1.141 -0.207,-1.098 -0.343,-0.976 -0.52,-0.785 -0.703,-0.547 -0.875,-0.301 -1.012,-0.062 -1.093,0.125 -1.122,0.234 -1.089,0.258 -1.012,0.183 -0.906,0.036 -0.789,-0.184 -0.684,-0.422 -0.598,-0.66 -0.547,-0.848 -0.543,-0.968 -0.574,-0.993 -0.636,-0.91 -0.715,-0.738 -0.801,-0.488 -0.871,-0.196 -0.922,0.102 -0.953,0.371 -0.949,0.566 -0.93,0.668 -0.891,0.672 -0.847,0.57 -0.813,0.379 -0.797,0.133 -0.793,-0.133 -0.816,-0.379 -0.848,-0.57 -0.89,-0.672 -0.926,-0.668 -0.953,-0.566 -0.95,-0.371 -0.925,-0.102 -0.871,0.196 -0.797,0.488 -0.719,0.738 -0.633,0.91 -0.574,0.993 -0.543,0.968 -0.551,0.848 -0.597,0.66 -0.68,0.422 -0.789,0.184 -0.91,-0.036 -1.012,-0.183 -1.09,-0.258 -1.121,-0.234 -1.094,-0.125 -1.008,0.062 -0.879,0.301 -0.703,0.547 -0.519,0.785 -0.344,0.976 -0.207,1.098 -0.121,1.141 -0.106,1.097 -0.167,0.989 -0.293,0.832 -0.465,0.648 -0.668,0.469 -0.856,0.328 -1.011,0.231 -1.106,0.207 -1.117,0.242 -1.043,0.336 -0.883,0.476 -0.664,0.641 -0.402,0.797 -0.137,0.941 0.094,1.035 0.265,1.09 0.352,1.09 0.34,1.043 0.234,0.965 0.051,0.871 -0.184,0.773 -0.441,0.696 -0.668,0.64 -0.84,0.621 -0.933,0.637"
         style="fill:none;stroke:#000000;stroke-width:0.9216;stroke-linecap:square;stroke-linejoin:miter;stroke-miterlimit:3.25;stroke-dasharray:none;stroke-opacity:1"
         id="path36" />
    </g>
    <g
       id="g38">
      <g
         id="g40"
         clip-path="url(#clipPath44)">
        <text
           xml:space="preserve"
           transform="translate(78.203693,61.074568)"
           style="font-variant:normal;font-size:20.16px;font-family:CairoFont-1;-inkscape-font-specification:CairoFont-1-1;writing-mode:lr-tb;fill:#000000;fill-opacity:1;fill-rule:nonzero;stroke:none"
           id="text48"><tspan
             x="0"
             y="0"
             id="tspan46">γ</tspan></text>
      </g>
    </g>
    <g
       id="g50">
      <path
         d="m 53.957,100.539 c 0,0.977 -0.391,1.914 -1.082,2.606 -0.691,0.691 -1.629,1.078 -2.605,1.078 -0.977,0 -1.915,-0.387 -2.606,-1.078 -0.691,-0.692 -1.082,-1.629 -1.082,-2.606 0,-0.98 0.391,-1.918 1.082,-2.609 0.691,-0.692 1.629,-1.078 2.606,-1.078 0.976,0 1.914,0.386 2.605,1.078 0.691,0.691 1.082,1.629 1.082,2.609 z"
         style="fill:#000000;fill-opacity:1;fill-rule:evenodd;stroke:none"
         id="path52" />
      <path
         d="m 120.98,100.539 c 0,0.977 -0.386,1.914 -1.078,2.606 -0.691,0.691 -1.629,1.078 -2.609,1.078 -0.977,0 -1.914,-0.387 -2.605,-1.078 -0.692,-0.692 -1.079,-1.629 -1.079,-2.606 0,-0.98 0.387,-1.918 1.079,-2.609 0.691,-0.692 1.628,-1.078 2.605,-1.078 0.98,0 1.918,0.386 2.609,1.078 0.692,0.691 1.078,1.629 1.078,2.609 z"
         style="fill:#000000;fill-opacity:1;fill-rule:evenodd;stroke:none"
         id="path54" />
    </g>
    <g
       id="g56">
      <g
         id="g58"
         clip-path="url(#clipPath62)">
        <text
           xml:space="preserve"
           transform="translate(79.055256,184.68097)"
           style="font-variant:normal;font-size:16.8px;font-family:CairoFont-2;-inkscape-font-specification:CairoFont-2-0;writing-mode:lr-tb;fill:#000000;fill-opacity:1;fill-rule:nonzero;stroke:none"
           id="text66"><tspan
             x="0"
             y="0"
             id="tspan64">1</tspan></text>
      </g>
    </g>
    <g
       id="g68">
      <path
         d="m 184.32,100.539 h 83.782"
         style="fill:none;stroke:#000000;stroke-width:0.9216;stroke-linecap:square;stroke-linejoin:miter;stroke-miterlimit:3.25;stroke-dasharray:none;stroke-opacity:1"
         id="path70" />
      <path
         d="m 231.238,100.539 -10.054,3.352 v -6.703 z"
         style="fill:#000000;fill-opacity:1;fill-rule:evenodd;stroke:none"
         id="path72" />
      <text
         xml:space="preserve"
         transform="translate(220.1338,128.41036)"
         style="font-variant:normal;font-size:21.12px;font-family:CairoFont-0;-inkscape-font-specification:CairoFont-0-0;writing-mode:lr-tb;fill:#000000;fill-opacity:1;fill-rule:nonzero;stroke:none"
         id="text76"><tspan
           x="0"
           y="0"
           id="tspan74">e</tspan></text>
      <path
         d="M 351.883,100.539 H 268.102"
         style="fill:none;stroke:#000000;stroke-width:0.9216;stroke-linecap:square;stroke-linejoin:miter;stroke-miterlimit:3.25;stroke-dasharray:none;stroke-opacity:1"
         id="path78" />
      <path
         d="m 315.02,100.539 -10.055,-3.351 v 6.703 z"
         style="fill:#000000;fill-opacity:1;fill-rule:evenodd;stroke:none"
         id="path80" />
      <text
         xml:space="preserve"
         transform="translate(303.91562,87.884749)"
         style="font-variant:normal;font-size:21.12px;font-family:CairoFont-0;-inkscape-font-specification:CairoFont-0-0;writing-mode:lr-tb;fill:#000000;fill-opacity:1;fill-rule:nonzero;stroke:none"
         id="text84"><tspan
           x="0"
           y="0"
           id="tspan82">e</tspan></text>
      <path
         d="m 263.914,104.727 8.375,-8.379"
         style="fill:none;stroke:#000000;stroke-width:2.7648;stroke-linecap:square;stroke-linejoin:miter;stroke-miterlimit:3.25;stroke-dasharray:none;stroke-opacity:1"
         id="path86" />
      <path
         d="m 263.914,96.348 8.375,8.379"
         style="fill:none;stroke:#000000;stroke-width:2.7648;stroke-linecap:square;stroke-linejoin:miter;stroke-miterlimit:3.25;stroke-dasharray:none;stroke-opacity:1"
         id="path88" />
    </g>
    <g
       id="g90">
      <g
         id="g92"
         clip-path="url(#clipPath96)">
        <text
           xml:space="preserve"
           transform="translate(263.37526,184.68097)"
           style="font-variant:normal;font-size:16.8px;font-family:CairoFont-2;-inkscape-font-specification:CairoFont-2-0;writing-mode:lr-tb;fill:#000000;fill-opacity:1;fill-rule:nonzero;stroke:none"
           id="text100"><tspan
             x="0"
             y="0"
             id="tspan98">2</tspan></text>
      </g>
    </g>
  </g>
</svg>
