<?xml version="1.0" encoding="UTF-8" standalone="no"?>
<!-- Created with Inkscape (http://www.inkscape.org/) -->

<svg
   version="1.1"
   id="svg2"
   width="984"
   height="461.33334"
   viewBox="0 0 984 461.33334"
   sodipodi:docname="0g5zouz0p8yl7.pdf"
   xmlns:inkscape="http://www.inkscape.org/namespaces/inkscape"
   xmlns:sodipodi="http://sodipodi.sourceforge.net/DTD/sodipodi-0.dtd"
   xmlns="http://www.w3.org/2000/svg"
   xmlns:svg="http://www.w3.org/2000/svg">
  <defs
     id="defs6">
    <clipPath
       clipPathUnits="userSpaceOnUse"
       id="clipPath18">
      <path
         d="M 138.238,36 H 171 v 28 h -32.762 z"
         id="path16" />
    </clipPath>
    <clipPath
       clipPathUnits="userSpaceOnUse"
       id="clipPath36">
      <path
         d="M 138.238,62 H 171 v 28 h -32.762 z"
         id="path34" />
    </clipPath>
    <clipPath
       clipPathUnits="userSpaceOnUse"
       id="clipPath90">
      <path
         d="m 274,47 h 9.68 V 57 H 274 Z"
         id="path88" />
    </clipPath>
    <clipPath
       clipPathUnits="userSpaceOnUse"
       id="clipPath108">
      <path
         d="m 276,94 h 9.359 v 10 H 276 Z"
         id="path106" />
    </clipPath>
    <clipPath
       clipPathUnits="userSpaceOnUse"
       id="clipPath126">
      <path
         d="m 327,21 h 9 v 11 h -9 z"
         id="path124" />
    </clipPath>
    <clipPath
       clipPathUnits="userSpaceOnUse"
       id="clipPath144">
      <path
         d="m 328,69 h 9.68 V 79 H 328 Z"
         id="path142" />
    </clipPath>
    <clipPath
       clipPathUnits="userSpaceOnUse"
       id="clipPath160">
      <path
         d="m 294,56 h 7.922 V 68 H 294 Z"
         id="path158" />
    </clipPath>
    <clipPath
       clipPathUnits="userSpaceOnUse"
       id="clipPath236">
      <path
         d="m 489,55 h 9.48 V 66 H 489 Z"
         id="path234" />
    </clipPath>
    <clipPath
       clipPathUnits="userSpaceOnUse"
       id="clipPath254">
      <path
         d="m 501,81 h 9.238 V 92 H 501 Z"
         id="path252" />
    </clipPath>
    <clipPath
       clipPathUnits="userSpaceOnUse"
       id="clipPath272">
      <path
         d="m 563,34 h 8.68 V 44 H 563 Z"
         id="path270" />
    </clipPath>
    <clipPath
       clipPathUnits="userSpaceOnUse"
       id="clipPath290">
      <path
         d="m 574,60 h 9.68 V 70 H 574 Z"
         id="path288" />
    </clipPath>
    <clipPath
       clipPathUnits="userSpaceOnUse"
       id="clipPath306">
      <path
         d="m 533,69 h 7.719 V 81 H 533 Z"
         id="path304" />
    </clipPath>
    <clipPath
       clipPathUnits="userSpaceOnUse"
       id="clipPath330">
      <path
         d="M 138.238,151 H 171 v 28 h -32.762 z"
         id="path328" />
    </clipPath>
    <clipPath
       clipPathUnits="userSpaceOnUse"
       id="clipPath348">
      <path
         d="M 138.238,177 H 171 v 28 h -32.762 z"
         id="path346" />
    </clipPath>
    <clipPath
       clipPathUnits="userSpaceOnUse"
       id="clipPath384">
      <path
         d="m 178,189 h 6.559 v 9 H 178 Z"
         id="path382" />
    </clipPath>
    <clipPath
       clipPathUnits="userSpaceOnUse"
       id="clipPath400">
      <path
         d="m 199,163 h 6.441 v 10 H 199 Z"
         id="path398" />
    </clipPath>
    <clipPath
       clipPathUnits="userSpaceOnUse"
       id="clipPath422">
      <path
         d="m 188,223 h 6.641 v 8 H 188 Z"
         id="path420" />
    </clipPath>
    <clipPath
       clipPathUnits="userSpaceOnUse"
       id="clipPath440">
      <path
         d="m 274,162 h 9.68 v 10 H 274 Z"
         id="path438" />
    </clipPath>
    <clipPath
       clipPathUnits="userSpaceOnUse"
       id="clipPath458">
      <path
         d="m 276,209 h 9.359 v 10 H 276 Z"
         id="path456" />
    </clipPath>
    <clipPath
       clipPathUnits="userSpaceOnUse"
       id="clipPath476">
      <path
         d="m 327,137 h 9 v 10 h -9 z"
         id="path474" />
    </clipPath>
    <clipPath
       clipPathUnits="userSpaceOnUse"
       id="clipPath494">
      <path
         d="m 328,184 h 9.68 v 10 H 328 Z"
         id="path492" />
    </clipPath>
    <clipPath
       clipPathUnits="userSpaceOnUse"
       id="clipPath510">
      <path
         d="m 312,165 h 6.48 v 10 H 312 Z"
         id="path508" />
    </clipPath>
    <clipPath
       clipPathUnits="userSpaceOnUse"
       id="clipPath526">
      <path
         d="m 295,186 h 6.922 v 10 H 295 Z"
         id="path524" />
    </clipPath>
  </defs>
  <sodipodi:namedview
     id="namedview4"
     pagecolor="#ffffff"
     bordercolor="#999999"
     borderopacity="1"
     inkscape:showpageshadow="0"
     inkscape:pageopacity="0"
     inkscape:pagecheckerboard="0"
     inkscape:deskcolor="#d1d1d1" />
  <g
     id="g8"
     inkscape:groupmode="layer"
     inkscape:label="0g5zouz0p8yl7"
     transform="matrix(1.3333333,0,0,1.3333333,0,8.2e-6)">
    <g
       id="g10" />
    <g
       id="g12">
      <g
         id="g14"
         clip-path="url(#clipPath18)">
        <path
           d="m 138.238,36.656 31.418,26.18"
           style="fill:none;stroke:#000000;stroke-width:0.576;stroke-linecap:square;stroke-linejoin:miter;stroke-miterlimit:3.25;stroke-dasharray:none;stroke-opacity:1"
           id="path20" />
        <path
           d="m 156.363,51.758 -6.168,-2.414 2.68,-3.219 z"
           style="fill:#000000;fill-opacity:1;fill-rule:evenodd;stroke:none"
           id="path22" />
      </g>
    </g>
    <g
       id="g24">
      <text
         xml:space="preserve"
         transform="translate(144.10367,65.17304)"
         style="font-variant:normal;font-size:13.2px;font-family:CairoFont-0;-inkscape-font-specification:CairoFont-0-0;writing-mode:lr-tb;fill:#000000;fill-opacity:1;fill-rule:nonzero;stroke:none"
         id="text28"><tspan
           x="0"
           y="0"
           id="tspan26">e</tspan></text>
    </g>
    <g
       id="g30">
      <g
         id="g32"
         clip-path="url(#clipPath36)">
        <path
           d="M 138.238,89.02 169.656,62.836"
           style="fill:none;stroke:#000000;stroke-width:0.576;stroke-linecap:square;stroke-linejoin:miter;stroke-miterlimit:3.25;stroke-dasharray:none;stroke-opacity:1"
           id="path38" />
        <path
           d="m 151.535,77.938 6.168,-2.415 -2.68,-3.214 z"
           style="fill:#000000;fill-opacity:1;fill-rule:evenodd;stroke:none"
           id="path40" />
      </g>
    </g>
    <g
       id="g42">
      <text
         xml:space="preserve"
         transform="translate(155.97811,91.354858)"
         style="font-variant:normal;font-size:13.2px;font-family:CairoFont-0;-inkscape-font-specification:CairoFont-0-0;writing-mode:lr-tb;fill:#000000;fill-opacity:1;fill-rule:nonzero;stroke:none"
         id="text46"><tspan
           x="0"
           y="0"
           id="tspan44">e</tspan></text>
      <path
         d="m 242.969,36.656 -31.418,26.18"
         style="fill:none;stroke:#000000;stroke-width:0.576;stroke-linecap:square;stroke-linejoin:miter;stroke-miterlimit:3.25;stroke-dasharray:none;stroke-opacity:1"
         id="path48" />
      <path
         d="m 229.672,47.734 -6.168,2.414 2.68,3.219 z"
         style="fill:#000000;fill-opacity:1;fill-rule:evenodd;stroke:none"
         id="path50" />
      <text
         xml:space="preserve"
         transform="translate(217.41276,43.755369)"
         style="font-variant:normal;font-size:13.2px;font-family:CairoFont-0;-inkscape-font-specification:CairoFont-0-0;writing-mode:lr-tb;fill:#000000;fill-opacity:1;fill-rule:nonzero;stroke:none"
         id="text54"><tspan
           x="0"
           y="0"
           id="tspan52">e</tspan></text>
      <path
         d="M 242.969,89.02 211.551,62.836"
         style="fill:none;stroke:#000000;stroke-width:0.576;stroke-linecap:square;stroke-linejoin:miter;stroke-miterlimit:3.25;stroke-dasharray:none;stroke-opacity:1"
         id="path56" />
      <path
         d="m 224.844,73.914 6.168,2.414 -2.68,3.219 z"
         style="fill:#000000;fill-opacity:1;fill-rule:evenodd;stroke:none"
         id="path58" />
      <text
         xml:space="preserve"
         transform="translate(229.2872,69.937187)"
         style="font-variant:normal;font-size:13.2px;font-family:CairoFont-0;-inkscape-font-specification:CairoFont-0-0;writing-mode:lr-tb;fill:#000000;fill-opacity:1;fill-rule:nonzero;stroke:none"
         id="text62"><tspan
           x="0"
           y="0"
           id="tspan60">e</tspan></text>
      <path
         d="m 211.551,62.836 -0.528,-0.453 -0.523,-0.395 -0.523,-0.293 -0.524,-0.152 -0.523,0.012 -0.524,0.168 -0.523,0.304 -0.524,0.407 -1.047,0.906 -0.523,0.387 -0.523,0.277 -0.524,0.133 -0.523,-0.028 -0.524,-0.183 -0.523,-0.321 -0.524,-0.414 -0.523,-0.457 -0.523,-0.445 -0.524,-0.375 -0.527,-0.266 -0.524,-0.117 -0.523,0.047 -0.524,0.199 -0.523,0.332 -0.523,0.422 -0.524,0.461 -0.523,0.442 -0.524,0.367 -0.523,0.246 -0.524,0.098 -0.523,-0.063 -0.523,-0.215 -0.524,-0.344 -0.523,-0.429 -0.524,-0.461 -0.523,-0.434 -0.524,-0.355 -0.523,-0.235 -0.524,-0.078 -0.527,0.078 -0.523,0.235 -0.524,0.355 -0.523,0.434 -0.524,0.461 -0.523,0.429 -0.523,0.344 -0.524,0.215 -0.523,0.063 -0.524,-0.098 -0.523,-0.246 -0.524,-0.367 -0.523,-0.442 -0.524,-0.461 -0.523,-0.422 -0.523,-0.332 -0.524,-0.199 -0.523,-0.047 -0.524,0.117 -0.523,0.266 -0.528,0.375 -0.523,0.445 -0.523,0.457 -0.524,0.414 -0.523,0.321 -0.524,0.183 -0.523,0.028 -0.524,-0.133 -0.523,-0.277 -0.523,-0.387 -1.047,-0.906 -0.524,-0.407 -0.523,-0.304 -0.524,-0.168 -0.523,-0.012 -0.524,0.152 -0.523,0.293 -0.523,0.395 -0.528,0.453"
         style="fill:none;stroke:#000000;stroke-width:0.576;stroke-linecap:square;stroke-linejoin:miter;stroke-miterlimit:3.25;stroke-dasharray:none;stroke-opacity:1"
         id="path64" />
      <text
         xml:space="preserve"
         transform="translate(187.25989,80.14515)"
         style="font-variant:normal;font-size:12.24px;font-family:CairoFont-1;-inkscape-font-specification:CairoFont-1-1;writing-mode:lr-tb;fill:#000000;fill-opacity:1;fill-rule:nonzero;stroke:none"
         id="text68"><tspan
           x="0"
           y="0"
           id="tspan66">γ</tspan></text>
      <path
         d="m 171.961,62.836 c 0,0.613 -0.242,1.199 -0.672,1.629 -0.434,0.433 -1.019,0.676 -1.633,0.676 -0.609,0 -1.195,-0.243 -1.629,-0.676 -0.429,-0.43 -0.672,-1.016 -0.672,-1.629 0,-0.609 0.243,-1.195 0.672,-1.629 0.434,-0.434 1.02,-0.676 1.629,-0.676 0.614,0 1.199,0.242 1.633,0.676 0.43,0.434 0.672,1.02 0.672,1.629 z"
         style="fill:#000000;fill-opacity:1;fill-rule:evenodd;stroke:none"
         id="path70" />
      <path
         d="m 208.93,65.453 5.238,-5.234"
         style="fill:none;stroke:#000000;stroke-width:1.728;stroke-linecap:square;stroke-linejoin:miter;stroke-miterlimit:3.25;stroke-dasharray:none;stroke-opacity:1"
         id="path72" />
      <path
         d="m 208.93,60.219 5.238,5.234"
         style="fill:none;stroke:#000000;stroke-width:1.728;stroke-linecap:square;stroke-linejoin:miter;stroke-miterlimit:3.25;stroke-dasharray:none;stroke-opacity:1"
         id="path74" />
      <text
         xml:space="preserve"
         transform="translate(187.54895,115.34943)"
         style="font-variant:normal;font-size:10.56px;font-family:CairoFont-0;-inkscape-font-specification:CairoFont-0-0;writing-mode:lr-tb;fill:#000000;fill-opacity:1;fill-rule:nonzero;stroke:none"
         id="text78"><tspan
           x="0"
           y="0"
           id="tspan76">1</tspan></text>
      <path
         d="m 253.441,36.656 52.364,5.235"
         style="fill:none;stroke:#000000;stroke-width:0.576;stroke-linecap:square;stroke-linejoin:miter;stroke-miterlimit:3.25;stroke-dasharray:none;stroke-opacity:1"
         id="path80" />
      <path
         d="m 282.746,39.586 -6.457,1.457 0.414,-4.168 z"
         style="fill:#000000;fill-opacity:1;fill-rule:evenodd;stroke:none"
         id="path82" />
    </g>
    <g
       id="g84">
      <g
         id="g86"
         clip-path="url(#clipPath90)">
        <text
           xml:space="preserve"
           transform="translate(274.90601,56.541233)"
           style="font-variant:normal;font-size:13.2px;font-family:CairoFont-1;-inkscape-font-specification:CairoFont-1-1;writing-mode:lr-tb;fill:#000000;fill-opacity:1;fill-rule:nonzero;stroke:none"
           id="text94"><tspan
             x="0"
             y="0"
             id="tspan92">Α</tspan></text>
      </g>
    </g>
    <g
       id="g96">
      <path
         d="m 253.441,89.02 52.364,-5.239"
         style="fill:none;stroke:#000000;stroke-width:0.576;stroke-linecap:square;stroke-linejoin:miter;stroke-miterlimit:3.25;stroke-dasharray:none;stroke-opacity:1"
         id="path98" />
      <path
         d="m 276.496,86.711 6.461,1.461 -0.418,-4.168 z"
         style="fill:#000000;fill-opacity:1;fill-rule:evenodd;stroke:none"
         id="path100" />
    </g>
    <g
       id="g102">
      <g
         id="g104"
         clip-path="url(#clipPath108)">
        <text
           xml:space="preserve"
           transform="translate(276.52122,103.66851)"
           style="font-variant:normal;font-size:13.2px;font-family:CairoFont-1;-inkscape-font-specification:CairoFont-1-1;writing-mode:lr-tb;fill:#000000;fill-opacity:1;fill-rule:nonzero;stroke:none"
           id="text112"><tspan
             x="0"
             y="0"
             id="tspan110">Α</tspan></text>
      </g>
    </g>
    <g
       id="g114">
      <path
         d="m 358.168,36.656 -52.363,5.235"
         style="fill:none;stroke:#000000;stroke-width:0.576;stroke-linecap:square;stroke-linejoin:miter;stroke-miterlimit:3.25;stroke-dasharray:none;stroke-opacity:1"
         id="path116" />
      <path
         d="m 335.113,38.961 -6.461,-1.461 0.414,4.168 z"
         style="fill:#000000;fill-opacity:1;fill-rule:evenodd;stroke:none"
         id="path118" />
    </g>
    <g
       id="g120">
      <g
         id="g122"
         clip-path="url(#clipPath126)">
        <text
           xml:space="preserve"
           transform="translate(327.26964,31.441721)"
           style="font-variant:normal;font-size:13.2px;font-family:CairoFont-1;-inkscape-font-specification:CairoFont-1-1;writing-mode:lr-tb;fill:#000000;fill-opacity:1;fill-rule:nonzero;stroke:none"
           id="text130"><tspan
             x="0"
             y="0"
             id="tspan128">Α</tspan></text>
      </g>
    </g>
    <g
       id="g132">
      <path
         d="M 358.168,89.02 305.805,83.781"
         style="fill:none;stroke:#000000;stroke-width:0.576;stroke-linecap:square;stroke-linejoin:miter;stroke-miterlimit:3.25;stroke-dasharray:none;stroke-opacity:1"
         id="path134" />
      <path
         d="m 328.859,86.086 6.461,-1.457 -0.418,4.168 z"
         style="fill:#000000;fill-opacity:1;fill-rule:evenodd;stroke:none"
         id="path136" />
    </g>
    <g
       id="g138">
      <g
         id="g140"
         clip-path="url(#clipPath144)">
        <text
           xml:space="preserve"
           transform="translate(328.88486,78.568994)"
           style="font-variant:normal;font-size:13.2px;font-family:CairoFont-1;-inkscape-font-specification:CairoFont-1-1;writing-mode:lr-tb;fill:#000000;fill-opacity:1;fill-rule:nonzero;stroke:none"
           id="text148"><tspan
             x="0"
             y="0"
             id="tspan146">Α</tspan></text>
      </g>
    </g>
    <g
       id="g150">
      <path
         d="m 305.805,83.781 0.453,-0.523 0.394,-0.524 0.293,-0.523 0.153,-0.523 -0.012,-0.524 -0.168,-0.523 -0.305,-0.524 -0.406,-0.523 -0.457,-0.524 -0.449,-0.523 -0.387,-0.524 -0.277,-0.523 -0.133,-0.523 0.027,-0.528 0.184,-0.523 0.316,-0.524 0.414,-0.523 0.461,-0.524 0.446,-0.523 0.375,-0.523 0.265,-0.524 0.113,-0.523 -0.043,-0.524 -0.203,-0.523 -0.332,-0.524 -0.422,-0.523 -0.457,-0.523 -0.441,-0.524 -0.367,-0.523 -0.246,-0.524 -0.102,-0.523 0.063,-0.524 0.218,-0.527 0.344,-0.523 0.43,-0.524 0.461,-0.523 0.433,-0.524 0.356,-0.523 0.234,-0.524 0.078,-0.523 -0.078,-0.524 -0.234,-0.523 -0.356,-0.523 -0.433,-0.524 -0.461,-0.523 -0.43,-0.524 -0.344,-0.523 -0.218,-0.524 -0.063,-0.523 0.102,-0.523 0.246,-0.524 0.367,-0.527 0.441,-0.524 0.457,-0.523 0.422,-0.524 0.332,-0.523 0.203,-0.523 0.043,-0.524 -0.113,-0.523 -0.265,-0.524 -0.375,-0.523 -0.446,-0.524 -0.461,-0.523 -0.414,-0.523 -0.316,-0.524 -0.184,-0.523 -0.027,-0.524 0.133,-0.523 0.277,-0.524 0.387,-0.523 0.449,-0.524 0.457,-0.527 0.406,-0.523 0.305,-0.524 0.168,-0.523 0.012,-0.524 -0.153,-0.523 -0.293,-0.523 -0.394,-0.524 -0.453,-0.523"
         style="fill:none;stroke:#000000;stroke-width:0.576;stroke-linecap:square;stroke-linejoin:miter;stroke-miterlimit:3.25;stroke-dasharray:none;stroke-opacity:1"
         id="path152" />
    </g>
    <g
       id="g154">
      <g
         id="g156"
         clip-path="url(#clipPath160)">
        <text
           xml:space="preserve"
           transform="translate(294.16672,67.555114)"
           style="font-variant:normal;font-size:12.24px;font-family:CairoFont-0;-inkscape-font-specification:CairoFont-0-0;writing-mode:lr-tb;fill:#000000;fill-opacity:1;fill-rule:nonzero;stroke:none"
           id="text164"><tspan
             x="0"
             y="0"
             id="tspan162">Ä</tspan></text>
      </g>
    </g>
    <g
       id="g166">
      <path
         d="m 308.109,41.891 c 0,0.613 -0.246,1.199 -0.675,1.629 -0.434,0.433 -1.02,0.675 -1.629,0.675 -0.614,0 -1.2,-0.242 -1.629,-0.675 -0.434,-0.43 -0.676,-1.016 -0.676,-1.629 0,-0.61 0.242,-1.196 0.676,-1.629 0.429,-0.434 1.015,-0.676 1.629,-0.676 0.609,0 1.195,0.242 1.629,0.676 0.429,0.433 0.675,1.019 0.675,1.629 z"
         style="fill:#000000;fill-opacity:1;fill-rule:evenodd;stroke:none"
         id="path168" />
      <path
         d="m 303.184,86.398 5.238,-5.234"
         style="fill:none;stroke:#000000;stroke-width:1.728;stroke-linecap:square;stroke-linejoin:miter;stroke-miterlimit:3.25;stroke-dasharray:none;stroke-opacity:1"
         id="path170" />
      <path
         d="m 303.184,81.164 5.238,5.234"
         style="fill:none;stroke:#000000;stroke-width:1.728;stroke-linecap:square;stroke-linejoin:miter;stroke-miterlimit:3.25;stroke-dasharray:none;stroke-opacity:1"
         id="path172" />
      <text
         xml:space="preserve"
         transform="translate(302.74895,115.34943)"
         style="font-variant:normal;font-size:10.56px;font-family:CairoFont-1;-inkscape-font-specification:CairoFont-1-0;writing-mode:lr-tb;fill:#000000;fill-opacity:1;fill-rule:nonzero;stroke:none"
         id="text176"><tspan
           x="0"
           y="0"
           id="tspan174">{</tspan></text>
      <path
         d="m 368.641,36.656 52.363,5.235"
         style="fill:none;stroke:#000000;stroke-width:0.576;stroke-linecap:square;stroke-linejoin:miter;stroke-miterlimit:3.25;stroke-dasharray:none;stroke-opacity:1"
         id="path178" />
      <path
         d="m 397.949,39.586 -6.461,1.457 0.414,-4.168 z"
         style="fill:#000000;fill-opacity:1;fill-rule:evenodd;stroke:none"
         id="path180" />
      <text
         xml:space="preserve"
         transform="translate(390.10601,56.541233)"
         style="font-variant:normal;font-size:13.2px;font-family:CairoFont-0;-inkscape-font-specification:CairoFont-0-0;writing-mode:lr-tb;fill:#000000;fill-opacity:1;fill-rule:nonzero;stroke:none"
         id="text184"><tspan
           x="0"
           y="0"
           id="tspan182">e</tspan></text>
      <path
         d="m 368.641,89.02 52.363,-5.239"
         style="fill:none;stroke:#000000;stroke-width:0.576;stroke-linecap:square;stroke-linejoin:miter;stroke-miterlimit:3.25;stroke-dasharray:none;stroke-opacity:1"
         id="path186" />
      <path
         d="m 391.695,86.711 6.461,1.461 -0.418,-4.168 z"
         style="fill:#000000;fill-opacity:1;fill-rule:evenodd;stroke:none"
         id="path188" />
      <text
         xml:space="preserve"
         transform="translate(391.72122,103.66851)"
         style="font-variant:normal;font-size:13.2px;font-family:CairoFont-0;-inkscape-font-specification:CairoFont-0-0;writing-mode:lr-tb;fill:#000000;fill-opacity:1;fill-rule:nonzero;stroke:none"
         id="text192"><tspan
           x="0"
           y="0"
           id="tspan190">e</tspan></text>
      <path
         d="m 473.367,36.656 -52.363,5.235"
         style="fill:none;stroke:#000000;stroke-width:0.576;stroke-linecap:square;stroke-linejoin:miter;stroke-miterlimit:3.25;stroke-dasharray:none;stroke-opacity:1"
         id="path194" />
      <path
         d="m 450.312,38.961 -6.46,-1.461 0.418,4.168 z"
         style="fill:#000000;fill-opacity:1;fill-rule:evenodd;stroke:none"
         id="path196" />
      <text
         xml:space="preserve"
         transform="translate(442.46964,31.441721)"
         style="font-variant:normal;font-size:13.2px;font-family:CairoFont-0;-inkscape-font-specification:CairoFont-0-0;writing-mode:lr-tb;fill:#000000;fill-opacity:1;fill-rule:nonzero;stroke:none"
         id="text200"><tspan
           x="0"
           y="0"
           id="tspan198">e</tspan></text>
      <path
         d="M 473.367,89.02 421.004,83.781"
         style="fill:none;stroke:#000000;stroke-width:0.576;stroke-linecap:square;stroke-linejoin:miter;stroke-miterlimit:3.25;stroke-dasharray:none;stroke-opacity:1"
         id="path202" />
      <path
         d="m 444.059,86.086 6.461,-1.457 -0.418,4.168 z"
         style="fill:#000000;fill-opacity:1;fill-rule:evenodd;stroke:none"
         id="path204" />
      <text
         xml:space="preserve"
         transform="translate(444.08486,78.568994)"
         style="font-variant:normal;font-size:13.2px;font-family:CairoFont-0;-inkscape-font-specification:CairoFont-0-0;writing-mode:lr-tb;fill:#000000;fill-opacity:1;fill-rule:nonzero;stroke:none"
         id="text208"><tspan
           x="0"
           y="0"
           id="tspan206">e</tspan></text>
      <path
         d="m 421.004,83.781 0.453,-0.523 0.398,-0.524 0.29,-0.523 0.152,-0.523 -0.012,-0.524 -0.164,-0.523 -0.309,-0.524 -0.406,-0.523 -0.906,-1.047 -0.387,-0.524 -0.277,-0.523 -0.133,-0.523 0.027,-0.528 0.184,-0.523 0.32,-0.524 0.414,-0.523 0.457,-0.524 0.446,-0.523 0.375,-0.523 0.265,-0.524 0.118,-0.523 -0.047,-0.524 -0.2,-0.523 -0.332,-0.524 -0.421,-0.523 -0.461,-0.523 -0.442,-0.524 -0.367,-0.523 -0.246,-0.524 -0.098,-0.523 0.063,-0.524 0.215,-0.527 0.343,-0.523 0.43,-0.524 0.461,-0.523 0.434,-0.524 0.355,-0.523 0.234,-0.524 0.082,-0.523 -0.082,-0.524 -0.234,-0.523 -0.355,-0.523 -0.434,-0.524 -0.461,-0.523 -0.43,-0.524 -0.343,-0.523 -0.215,-0.524 -0.063,-0.523 0.098,-0.523 0.246,-0.524 0.367,-0.527 0.442,-0.524 0.461,-0.523 0.421,-0.524 0.332,-0.523 0.2,-0.523 0.047,-0.524 -0.118,-0.523 -0.265,-0.524 -0.375,-0.523 -0.446,-0.524 -0.457,-0.523 -0.414,-0.523 -0.32,-0.524 -0.184,-0.523 -0.027,-0.524 0.133,-0.523 0.277,-0.524 0.387,-0.523 0.453,-0.524 0.453,-0.527 0.406,-0.523 0.309,-0.524 0.164,-0.523 0.012,-0.524 -0.152,-0.523 -0.29,-0.523 -0.398,-0.524 -0.453,-0.523"
         style="fill:none;stroke:#000000;stroke-width:0.576;stroke-linecap:square;stroke-linejoin:miter;stroke-miterlimit:3.25;stroke-dasharray:none;stroke-opacity:1"
         id="path210" />
      <text
         xml:space="preserve"
         transform="translate(409.36672,67.555114)"
         style="font-variant:normal;font-size:12.24px;font-family:CairoFont-1;-inkscape-font-specification:CairoFont-1-1;writing-mode:lr-tb;fill:#000000;fill-opacity:1;fill-rule:nonzero;stroke:none"
         id="text214"><tspan
           x="0"
           y="0"
           id="tspan212">γ</tspan></text>
      <path
         d="m 423.309,83.781 c 0,0.614 -0.243,1.199 -0.676,1.629 -0.434,0.434 -1.02,0.676 -1.629,0.676 -0.613,0 -1.199,-0.242 -1.629,-0.676 -0.434,-0.43 -0.676,-1.015 -0.676,-1.629 0,-0.609 0.242,-1.195 0.676,-1.629 0.43,-0.433 1.016,-0.675 1.629,-0.675 0.609,0 1.195,0.242 1.629,0.675 0.433,0.434 0.676,1.02 0.676,1.629 z"
         style="fill:#000000;fill-opacity:1;fill-rule:evenodd;stroke:none"
         id="path216" />
      <path
         d="m 418.387,44.508 5.234,-5.235"
         style="fill:none;stroke:#000000;stroke-width:1.728;stroke-linecap:square;stroke-linejoin:miter;stroke-miterlimit:3.25;stroke-dasharray:none;stroke-opacity:1"
         id="path218" />
      <path
         d="m 418.387,39.273 5.234,5.235"
         style="fill:none;stroke:#000000;stroke-width:1.728;stroke-linecap:square;stroke-linejoin:miter;stroke-miterlimit:3.25;stroke-dasharray:none;stroke-opacity:1"
         id="path220" />
      <text
         xml:space="preserve"
         transform="translate(417.94895,115.34943)"
         style="font-variant:normal;font-size:10.56px;font-family:CairoFont-0;-inkscape-font-specification:CairoFont-0-0;writing-mode:lr-tb;fill:#000000;fill-opacity:1;fill-rule:nonzero;stroke:none"
         id="text224"><tspan
           x="0"
           y="0"
           id="tspan222">3</tspan></text>
      <path
         d="m 483.84,36.656 31.418,26.18"
         style="fill:none;stroke:#000000;stroke-width:0.576;stroke-linecap:square;stroke-linejoin:miter;stroke-miterlimit:3.25;stroke-dasharray:none;stroke-opacity:1"
         id="path226" />
      <path
         d="m 501.961,51.758 -6.168,-2.414 2.684,-3.219 z"
         style="fill:#000000;fill-opacity:1;fill-rule:evenodd;stroke:none"
         id="path228" />
    </g>
    <g
       id="g230">
      <g
         id="g232"
         clip-path="url(#clipPath236)">
        <text
           xml:space="preserve"
           transform="translate(489.70367,65.17304)"
           style="font-variant:normal;font-size:13.2px;font-family:CairoFont-1;-inkscape-font-specification:CairoFont-1-1;writing-mode:lr-tb;fill:#000000;fill-opacity:1;fill-rule:nonzero;stroke:none"
           id="text240"><tspan
             x="0"
             y="0"
             id="tspan238">Α</tspan></text>
      </g>
    </g>
    <g
       id="g242">
      <path
         d="M 483.84,89.02 515.258,62.836"
         style="fill:none;stroke:#000000;stroke-width:0.576;stroke-linecap:square;stroke-linejoin:miter;stroke-miterlimit:3.25;stroke-dasharray:none;stroke-opacity:1"
         id="path244" />
      <path
         d="m 497.137,77.938 6.168,-2.415 -2.684,-3.214 z"
         style="fill:#000000;fill-opacity:1;fill-rule:evenodd;stroke:none"
         id="path246" />
    </g>
    <g
       id="g248">
      <g
         id="g250"
         clip-path="url(#clipPath254)">
        <text
           xml:space="preserve"
           transform="translate(501.57811,91.354858)"
           style="font-variant:normal;font-size:13.2px;font-family:CairoFont-1;-inkscape-font-specification:CairoFont-1-1;writing-mode:lr-tb;fill:#000000;fill-opacity:1;fill-rule:nonzero;stroke:none"
           id="text258"><tspan
             x="0"
             y="0"
             id="tspan256">Α</tspan></text>
      </g>
    </g>
    <g
       id="g260">
      <path
         d="m 588.566,36.656 -31.418,26.18"
         style="fill:none;stroke:#000000;stroke-width:0.576;stroke-linecap:square;stroke-linejoin:miter;stroke-miterlimit:3.25;stroke-dasharray:none;stroke-opacity:1"
         id="path262" />
      <path
         d="m 575.273,47.734 -6.168,2.414 2.68,3.219 z"
         style="fill:#000000;fill-opacity:1;fill-rule:evenodd;stroke:none"
         id="path264" />
    </g>
    <g
       id="g266">
      <g
         id="g268"
         clip-path="url(#clipPath272)">
        <text
           xml:space="preserve"
           transform="translate(563.01276,43.755369)"
           style="font-variant:normal;font-size:13.2px;font-family:CairoFont-1;-inkscape-font-specification:CairoFont-1-1;writing-mode:lr-tb;fill:#000000;fill-opacity:1;fill-rule:nonzero;stroke:none"
           id="text276"><tspan
             x="0"
             y="0"
             id="tspan274">Α</tspan></text>
      </g>
    </g>
    <g
       id="g278">
      <path
         d="M 588.566,89.02 557.148,62.836"
         style="fill:none;stroke:#000000;stroke-width:0.576;stroke-linecap:square;stroke-linejoin:miter;stroke-miterlimit:3.25;stroke-dasharray:none;stroke-opacity:1"
         id="path280" />
      <path
         d="m 570.445,73.914 6.168,2.414 -2.683,3.219 z"
         style="fill:#000000;fill-opacity:1;fill-rule:evenodd;stroke:none"
         id="path282" />
    </g>
    <g
       id="g284">
      <g
         id="g286"
         clip-path="url(#clipPath290)">
        <text
           xml:space="preserve"
           transform="translate(574.8872,69.937187)"
           style="font-variant:normal;font-size:13.2px;font-family:CairoFont-1;-inkscape-font-specification:CairoFont-1-1;writing-mode:lr-tb;fill:#000000;fill-opacity:1;fill-rule:nonzero;stroke:none"
           id="text294"><tspan
             x="0"
             y="0"
             id="tspan292">Α</tspan></text>
      </g>
    </g>
    <g
       id="g296">
      <path
         d="m 557.148,62.836 -0.523,-0.453 -0.523,-0.395 -0.524,-0.293 -0.523,-0.152 -0.524,0.012 -0.523,0.168 -0.524,0.304 -0.523,0.407 -1.047,0.906 -0.523,0.387 -0.524,0.277 -0.523,0.133 -0.528,-0.028 -0.523,-0.183 -0.523,-0.321 -0.524,-0.414 -0.523,-0.457 -0.524,-0.445 -0.523,-0.375 -0.524,-0.266 -0.523,-0.117 -0.524,0.047 -0.523,0.199 -0.523,0.332 -0.524,0.422 -0.523,0.461 -0.524,0.442 -0.523,0.367 -0.524,0.246 -0.523,0.098 -0.523,-0.063 -0.528,-0.215 -0.523,-0.344 -0.524,-0.429 -0.523,-0.461 -0.524,-0.434 -0.523,-0.355 -0.523,-0.235 -0.524,-0.078 -0.523,0.078 -0.524,0.235 -0.523,0.355 -0.524,0.434 -0.523,0.461 -0.524,0.429 -0.523,0.344 -0.523,0.215 -0.524,0.063 -0.523,-0.098 -0.524,-0.246 -0.523,-0.367 -0.527,-0.442 -0.524,-0.461 -0.523,-0.422 -0.524,-0.332 -0.523,-0.199 -0.524,-0.047 -0.523,0.117 -0.524,0.266 -0.523,0.375 -0.523,0.445 -0.524,0.457 -0.523,0.414 -0.524,0.321 -0.523,0.183 -0.524,0.028 -0.523,-0.133 -0.523,-0.277 -0.524,-0.387 -1.047,-0.906 -0.527,-0.407 -0.524,-0.304 -0.523,-0.168 -0.523,-0.012 -0.524,0.152 -0.523,0.293 -0.524,0.395 -0.523,0.453"
         style="fill:none;stroke:#000000;stroke-width:0.576;stroke-linecap:square;stroke-linejoin:miter;stroke-miterlimit:3.25;stroke-dasharray:none;stroke-opacity:1"
         id="path298" />
    </g>
    <g
       id="g300">
      <g
         id="g302"
         clip-path="url(#clipPath306)">
        <text
           xml:space="preserve"
           transform="translate(532.85989,80.14515)"
           style="font-variant:normal;font-size:12.24px;font-family:CairoFont-0;-inkscape-font-specification:CairoFont-0-0;writing-mode:lr-tb;fill:#000000;fill-opacity:1;fill-rule:nonzero;stroke:none"
           id="text310"><tspan
             x="0"
             y="0"
             id="tspan308">Ä</tspan></text>
      </g>
    </g>
    <g
       id="g312">
      <path
         d="m 559.453,62.836 c 0,0.613 -0.242,1.199 -0.676,1.629 -0.429,0.433 -1.015,0.676 -1.629,0.676 -0.609,0 -1.195,-0.243 -1.628,-0.676 -0.434,-0.43 -0.676,-1.016 -0.676,-1.629 0,-0.609 0.242,-1.195 0.676,-1.629 0.433,-0.434 1.019,-0.676 1.628,-0.676 0.614,0 1.2,0.242 1.629,0.676 0.434,0.434 0.676,1.02 0.676,1.629 z"
         style="fill:#000000;fill-opacity:1;fill-rule:evenodd;stroke:none"
         id="path314" />
      <path
         d="m 512.641,65.453 5.234,-5.234"
         style="fill:none;stroke:#000000;stroke-width:1.728;stroke-linecap:square;stroke-linejoin:miter;stroke-miterlimit:3.25;stroke-dasharray:none;stroke-opacity:1"
         id="path316" />
      <path
         d="m 512.641,60.219 5.234,5.234"
         style="fill:none;stroke:#000000;stroke-width:1.728;stroke-linecap:square;stroke-linejoin:miter;stroke-miterlimit:3.25;stroke-dasharray:none;stroke-opacity:1"
         id="path318" />
      <text
         xml:space="preserve"
         transform="translate(533.14895,115.34943)"
         style="font-variant:normal;font-size:10.56px;font-family:CairoFont-1;-inkscape-font-specification:CairoFont-1-0;writing-mode:lr-tb;fill:#000000;fill-opacity:1;fill-rule:nonzero;stroke:none"
         id="text322"><tspan
           x="0"
           y="0"
           id="tspan320">~</tspan></text>
    </g>
    <g
       id="g324">
      <g
         id="g326"
         clip-path="url(#clipPath330)">
        <path
           d="m 138.238,151.855 31.418,26.18"
           style="fill:none;stroke:#000000;stroke-width:0.576;stroke-linecap:square;stroke-linejoin:miter;stroke-miterlimit:3.25;stroke-dasharray:none;stroke-opacity:1"
           id="path332" />
        <path
           d="m 156.363,166.957 -6.168,-2.414 2.68,-3.219 z"
           style="fill:#000000;fill-opacity:1;fill-rule:evenodd;stroke:none"
           id="path334" />
      </g>
    </g>
    <g
       id="g336">
      <text
         xml:space="preserve"
         transform="translate(144.10367,180.37304)"
         style="font-variant:normal;font-size:13.2px;font-family:CairoFont-0;-inkscape-font-specification:CairoFont-0-0;writing-mode:lr-tb;fill:#000000;fill-opacity:1;fill-rule:nonzero;stroke:none"
         id="text340"><tspan
           x="0"
           y="0"
           id="tspan338">e</tspan></text>
    </g>
    <g
       id="g342">
      <g
         id="g344"
         clip-path="url(#clipPath348)">
        <path
           d="m 138.238,204.219 31.418,-26.184"
           style="fill:none;stroke:#000000;stroke-width:0.576;stroke-linecap:square;stroke-linejoin:miter;stroke-miterlimit:3.25;stroke-dasharray:none;stroke-opacity:1"
           id="path350" />
        <path
           d="m 151.535,193.137 6.168,-2.41 -2.68,-3.219 z"
           style="fill:#000000;fill-opacity:1;fill-rule:evenodd;stroke:none"
           id="path352" />
      </g>
    </g>
    <g
       id="g354">
      <text
         xml:space="preserve"
         transform="translate(155.97811,206.55486)"
         style="font-variant:normal;font-size:13.2px;font-family:CairoFont-0;-inkscape-font-specification:CairoFont-0-0;writing-mode:lr-tb;fill:#000000;fill-opacity:1;fill-rule:nonzero;stroke:none"
         id="text358"><tspan
           x="0"
           y="0"
           id="tspan356">e</tspan></text>
      <path
         d="m 242.969,151.855 -31.418,26.18"
         style="fill:none;stroke:#000000;stroke-width:0.576;stroke-linecap:square;stroke-linejoin:miter;stroke-miterlimit:3.25;stroke-dasharray:none;stroke-opacity:1"
         id="path360" />
      <path
         d="m 229.672,162.934 -6.168,2.414 2.68,3.218 z"
         style="fill:#000000;fill-opacity:1;fill-rule:evenodd;stroke:none"
         id="path362" />
      <text
         xml:space="preserve"
         transform="translate(217.41276,158.95537)"
         style="font-variant:normal;font-size:13.2px;font-family:CairoFont-0;-inkscape-font-specification:CairoFont-0-0;writing-mode:lr-tb;fill:#000000;fill-opacity:1;fill-rule:nonzero;stroke:none"
         id="text366"><tspan
           x="0"
           y="0"
           id="tspan364">e</tspan></text>
      <path
         d="M 242.969,204.219 211.551,178.035"
         style="fill:none;stroke:#000000;stroke-width:0.576;stroke-linecap:square;stroke-linejoin:miter;stroke-miterlimit:3.25;stroke-dasharray:none;stroke-opacity:1"
         id="path368" />
      <path
         d="m 224.844,189.117 6.168,2.414 -2.68,3.215 z"
         style="fill:#000000;fill-opacity:1;fill-rule:evenodd;stroke:none"
         id="path370" />
      <text
         xml:space="preserve"
         transform="translate(229.2872,185.13719)"
         style="font-variant:normal;font-size:13.2px;font-family:CairoFont-0;-inkscape-font-specification:CairoFont-0-0;writing-mode:lr-tb;fill:#000000;fill-opacity:1;fill-rule:nonzero;stroke:none"
         id="text374"><tspan
           x="0"
           y="0"
           id="tspan372">e</tspan></text>
      <path
         d="m 169.656,178.035 0.528,0.504 0.523,0.422 0.523,0.285 0.524,0.098 0.523,-0.098 0.524,-0.285 0.523,-0.426 1.047,-1 0.524,-0.426 0.523,-0.281 0.523,-0.101 0.524,0.101 0.523,0.281 0.524,0.426 1.047,1 0.523,0.426 0.523,0.285 0.528,0.098 0.523,-0.098 0.524,-0.285 0.523,-0.426 1.047,-1 0.523,-0.426 0.524,-0.281 0.523,-0.101 0.524,0.101 0.523,0.281 0.524,0.426 1.047,1 0.523,0.426 0.523,0.285 0.524,0.098 0.523,-0.098 0.524,-0.285 0.523,-0.422 0.527,-0.504"
         style="fill:none;stroke:#000000;stroke-width:0.576;stroke-linecap:square;stroke-linejoin:miter;stroke-miterlimit:3.25;stroke-dasharray:none;stroke-opacity:1"
         id="path376" />
    </g>
    <g
       id="g378">
      <g
         id="g380"
         clip-path="url(#clipPath384)">
        <text
           xml:space="preserve"
           transform="translate(176.78716,195.34515)"
           style="font-variant:normal;font-size:12.24px;font-family:CairoFont-1;-inkscape-font-specification:CairoFont-1-1;writing-mode:lr-tb;fill:#000000;fill-opacity:1;fill-rule:nonzero;stroke:none"
           id="text388"><tspan
             x="0"
             y="0"
             id="tspan386">γ</tspan></text>
      </g>
    </g>
    <g
       id="g390">
      <path
         d="m 211.551,178.035 -0.524,-0.5 -0.527,-0.426 -0.523,-0.281 -0.524,-0.101 -0.523,0.101 -0.524,0.281 -0.523,0.426 -0.524,0.5 -0.523,0.504 -0.524,0.422 -0.523,0.285 -0.523,0.102 -0.524,-0.102 -0.523,-0.285 -0.524,-0.422 -0.523,-0.504 -0.524,-0.5 -0.523,-0.426 -0.523,-0.281 -0.524,-0.101 -0.527,0.101 -0.524,0.281 -0.523,0.426 -0.524,0.5 -0.523,0.504 -0.523,0.422 -0.524,0.285 -0.523,0.102 -0.524,-0.102 -0.523,-0.285 -0.524,-0.422 -0.523,-0.504 -0.523,-0.5 -0.524,-0.426 -0.523,-0.281 -0.524,-0.101 -0.523,0.101 -0.524,0.281 -0.523,0.426 -0.524,0.5"
         style="fill:none;stroke:#000000;stroke-width:0.576;stroke-linecap:square;stroke-linejoin:miter;stroke-miterlimit:3.25;stroke-dasharray:none;stroke-opacity:1"
         id="path392" />
    </g>
    <g
       id="g394">
      <g
         id="g396"
         clip-path="url(#clipPath400)">
        <text
           xml:space="preserve"
           transform="translate(197.73261,170.16508)"
           style="font-variant:normal;font-size:12.24px;font-family:CairoFont-1;-inkscape-font-specification:CairoFont-1-1;writing-mode:lr-tb;fill:#000000;fill-opacity:1;fill-rule:nonzero;stroke:none"
           id="text404"><tspan
             x="0"
             y="0"
             id="tspan402">γ</tspan></text>
      </g>
    </g>
    <g
       id="g406">
      <path
         d="m 171.961,178.035 c 0,0.613 -0.242,1.199 -0.672,1.629 -0.434,0.434 -1.019,0.676 -1.633,0.676 -0.609,0 -1.195,-0.242 -1.629,-0.676 -0.429,-0.43 -0.672,-1.016 -0.672,-1.629 0,-0.609 0.243,-1.195 0.672,-1.629 0.434,-0.429 1.02,-0.676 1.629,-0.676 0.614,0 1.199,0.247 1.633,0.676 0.43,0.434 0.672,1.02 0.672,1.629 z"
         style="fill:#000000;fill-opacity:1;fill-rule:evenodd;stroke:none"
         id="path408" />
      <path
         d="m 213.852,178.035 c 0,0.613 -0.243,1.199 -0.672,1.629 -0.434,0.434 -1.02,0.676 -1.629,0.676 -0.613,0 -1.199,-0.242 -1.633,-0.676 -0.43,-0.43 -0.672,-1.016 -0.672,-1.629 0,-0.609 0.242,-1.195 0.672,-1.629 0.434,-0.429 1.02,-0.676 1.633,-0.676 0.609,0 1.195,0.247 1.629,0.676 0.429,0.434 0.672,1.02 0.672,1.629 z"
         style="fill:#000000;fill-opacity:1;fill-rule:evenodd;stroke:none"
         id="path410" />
      <path
         d="m 187.984,180.656 5.239,-5.238"
         style="fill:none;stroke:#000000;stroke-width:1.728;stroke-linecap:square;stroke-linejoin:miter;stroke-miterlimit:3.25;stroke-dasharray:none;stroke-opacity:1"
         id="path412" />
      <path
         d="m 187.984,175.418 5.239,5.238"
         style="fill:none;stroke:#000000;stroke-width:1.728;stroke-linecap:square;stroke-linejoin:miter;stroke-miterlimit:3.25;stroke-dasharray:none;stroke-opacity:1"
         id="path414" />
    </g>
    <g
       id="g416">
      <g
         id="g418"
         clip-path="url(#clipPath422)">
        <text
           xml:space="preserve"
           transform="translate(187.54895,230.54943)"
           style="font-variant:normal;font-size:10.56px;font-family:CairoFont-0;-inkscape-font-specification:CairoFont-0-0;writing-mode:lr-tb;fill:#000000;fill-opacity:1;fill-rule:nonzero;stroke:none"
           id="text426"><tspan
             x="0"
             y="0"
             id="tspan424">5</tspan></text>
      </g>
    </g>
    <g
       id="g428">
      <path
         d="m 253.441,151.855 52.364,5.235"
         style="fill:none;stroke:#000000;stroke-width:0.576;stroke-linecap:square;stroke-linejoin:miter;stroke-miterlimit:3.25;stroke-dasharray:none;stroke-opacity:1"
         id="path430" />
      <path
         d="m 282.746,154.785 -6.457,1.461 0.414,-4.172 z"
         style="fill:#000000;fill-opacity:1;fill-rule:evenodd;stroke:none"
         id="path432" />
    </g>
    <g
       id="g434">
      <g
         id="g436"
         clip-path="url(#clipPath440)">
        <text
           xml:space="preserve"
           transform="translate(274.90601,171.74123)"
           style="font-variant:normal;font-size:13.2px;font-family:CairoFont-1;-inkscape-font-specification:CairoFont-1-1;writing-mode:lr-tb;fill:#000000;fill-opacity:1;fill-rule:nonzero;stroke:none"
           id="text444"><tspan
             x="0"
             y="0"
             id="tspan442">Α</tspan></text>
      </g>
    </g>
    <g
       id="g446">
      <path
         d="m 253.441,204.219 52.364,-5.239"
         style="fill:none;stroke:#000000;stroke-width:0.576;stroke-linecap:square;stroke-linejoin:miter;stroke-miterlimit:3.25;stroke-dasharray:none;stroke-opacity:1"
         id="path448" />
      <path
         d="m 276.496,201.914 6.461,1.457 -0.418,-4.168 z"
         style="fill:#000000;fill-opacity:1;fill-rule:evenodd;stroke:none"
         id="path450" />
    </g>
    <g
       id="g452">
      <g
         id="g454"
         clip-path="url(#clipPath458)">
        <text
           xml:space="preserve"
           transform="translate(276.52122,218.86851)"
           style="font-variant:normal;font-size:13.2px;font-family:CairoFont-1;-inkscape-font-specification:CairoFont-1-1;writing-mode:lr-tb;fill:#000000;fill-opacity:1;fill-rule:nonzero;stroke:none"
           id="text462"><tspan
             x="0"
             y="0"
             id="tspan460">Α</tspan></text>
      </g>
    </g>
    <g
       id="g464">
      <path
         d="m 358.168,151.855 -52.363,5.235"
         style="fill:none;stroke:#000000;stroke-width:0.576;stroke-linecap:square;stroke-linejoin:miter;stroke-miterlimit:3.25;stroke-dasharray:none;stroke-opacity:1"
         id="path466" />
      <path
         d="m 335.113,154.16 -6.461,-1.457 0.414,4.168 z"
         style="fill:#000000;fill-opacity:1;fill-rule:evenodd;stroke:none"
         id="path468" />
    </g>
    <g
       id="g470">
      <g
         id="g472"
         clip-path="url(#clipPath476)">
        <text
           xml:space="preserve"
           transform="translate(327.26964,146.64172)"
           style="font-variant:normal;font-size:13.2px;font-family:CairoFont-1;-inkscape-font-specification:CairoFont-1-1;writing-mode:lr-tb;fill:#000000;fill-opacity:1;fill-rule:nonzero;stroke:none"
           id="text480"><tspan
             x="0"
             y="0"
             id="tspan478">Α</tspan></text>
      </g>
    </g>
    <g
       id="g482">
      <path
         d="M 358.168,204.219 305.805,198.98"
         style="fill:none;stroke:#000000;stroke-width:0.576;stroke-linecap:square;stroke-linejoin:miter;stroke-miterlimit:3.25;stroke-dasharray:none;stroke-opacity:1"
         id="path484" />
      <path
         d="m 328.859,201.289 6.461,-1.461 -0.418,4.168 z"
         style="fill:#000000;fill-opacity:1;fill-rule:evenodd;stroke:none"
         id="path486" />
    </g>
    <g
       id="g488">
      <g
         id="g490"
         clip-path="url(#clipPath494)">
        <text
           xml:space="preserve"
           transform="translate(328.88486,193.76899)"
           style="font-variant:normal;font-size:13.2px;font-family:CairoFont-1;-inkscape-font-specification:CairoFont-1-1;writing-mode:lr-tb;fill:#000000;fill-opacity:1;fill-rule:nonzero;stroke:none"
           id="text498"><tspan
             x="0"
             y="0"
             id="tspan496">Α</tspan></text>
      </g>
    </g>
    <g
       id="g500">
      <path
         d="m 305.805,157.09 -0.504,0.523 -0.422,0.524 -0.285,0.523 -0.098,0.528 0.098,0.523 0.285,0.523 0.426,0.524 1,1.047 0.425,0.523 0.282,0.524 0.101,0.523 -0.101,0.523 -0.282,0.524 -0.425,0.523 -1,1.047 -0.426,0.524 -0.285,0.523 -0.098,0.523 0.098,0.524 0.285,0.523 0.426,0.524 0.5,0.523 0.5,0.528 0.425,0.523 0.282,0.523 0.101,0.524 -0.101,0.523 -0.282,0.524 -0.425,0.523 -1,1.047 -0.426,0.524 -0.285,0.523 -0.098,0.523 0.098,0.524 0.285,0.523 0.422,0.524 0.504,0.523"
         style="fill:none;stroke:#000000;stroke-width:0.576;stroke-linecap:square;stroke-linejoin:miter;stroke-miterlimit:3.25;stroke-dasharray:none;stroke-opacity:1"
         id="path502" />
    </g>
    <g
       id="g504">
      <g
         id="g506"
         clip-path="url(#clipPath510)">
        <text
           xml:space="preserve"
           transform="translate(310.75305,172.28239)"
           style="font-variant:normal;font-size:12.24px;font-family:CairoFont-1;-inkscape-font-specification:CairoFont-1-1;writing-mode:lr-tb;fill:#000000;fill-opacity:1;fill-rule:nonzero;stroke:none"
           id="text514"><tspan
             x="0"
             y="0"
             id="tspan512">γ</tspan></text>
      </g>
    </g>
    <g
       id="g516">
      <path
         d="m 305.805,198.98 0.5,-0.523 0.425,-0.523 0.282,-0.524 0.101,-0.523 -0.101,-0.524 -0.282,-0.523 -0.425,-0.524 -0.5,-0.523 -0.504,-0.523 -0.422,-0.524 -0.285,-0.523 -0.102,-0.524 0.102,-0.523 0.285,-0.524 0.422,-0.523 0.504,-0.524 0.5,-0.527 0.425,-0.523 0.282,-0.524 0.101,-0.523 -0.101,-0.524 -0.282,-0.523 -0.425,-0.523 -0.5,-0.524 -0.504,-0.523 -0.422,-0.524 -0.285,-0.523 -0.102,-0.524 0.102,-0.523 0.285,-0.524 0.422,-0.523 0.504,-0.523 0.5,-0.524 0.425,-0.523 0.282,-0.524 0.101,-0.523 -0.101,-0.528 -0.282,-0.523 -0.425,-0.523 -0.5,-0.524"
         style="fill:none;stroke:#000000;stroke-width:0.576;stroke-linecap:square;stroke-linejoin:miter;stroke-miterlimit:3.25;stroke-dasharray:none;stroke-opacity:1"
         id="path518" />
    </g>
    <g
       id="g520">
      <g
         id="g522"
         clip-path="url(#clipPath526)">
        <text
           xml:space="preserve"
           transform="translate(294.16672,193.22784)"
           style="font-variant:normal;font-size:12.24px;font-family:CairoFont-1;-inkscape-font-specification:CairoFont-1-1;writing-mode:lr-tb;fill:#000000;fill-opacity:1;fill-rule:nonzero;stroke:none"
           id="text530"><tspan
             x="0"
             y="0"
             id="tspan528">γ</tspan></text>
      </g>
    </g>
    <g
       id="g532">
      <path
         d="m 308.109,157.09 c 0,0.613 -0.246,1.199 -0.675,1.629 -0.434,0.433 -1.02,0.676 -1.629,0.676 -0.614,0 -1.2,-0.243 -1.629,-0.676 -0.434,-0.43 -0.676,-1.016 -0.676,-1.629 0,-0.61 0.242,-1.195 0.676,-1.629 0.429,-0.43 1.015,-0.676 1.629,-0.676 0.609,0 1.195,0.246 1.629,0.676 0.429,0.434 0.675,1.019 0.675,1.629 z"
         style="fill:#000000;fill-opacity:1;fill-rule:evenodd;stroke:none"
         id="path534" />
      <path
         d="m 308.109,198.98 c 0,0.614 -0.246,1.2 -0.675,1.629 -0.434,0.434 -1.02,0.676 -1.629,0.676 -0.614,0 -1.2,-0.242 -1.629,-0.676 -0.434,-0.429 -0.676,-1.015 -0.676,-1.629 0,-0.609 0.242,-1.195 0.676,-1.628 0.429,-0.43 1.015,-0.672 1.629,-0.672 0.609,0 1.195,0.242 1.629,0.672 0.429,0.433 0.675,1.019 0.675,1.628 z"
         style="fill:#000000;fill-opacity:1;fill-rule:evenodd;stroke:none"
         id="path536" />
      <path
         d="m 303.184,180.656 5.238,-5.238"
         style="fill:none;stroke:#000000;stroke-width:1.728;stroke-linecap:square;stroke-linejoin:miter;stroke-miterlimit:3.25;stroke-dasharray:none;stroke-opacity:1"
         id="path538" />
      <path
         d="m 303.184,175.418 5.238,5.238"
         style="fill:none;stroke:#000000;stroke-width:1.728;stroke-linecap:square;stroke-linejoin:miter;stroke-miterlimit:3.25;stroke-dasharray:none;stroke-opacity:1"
         id="path540" />
      <text
         xml:space="preserve"
         transform="translate(302.74895,230.54943)"
         style="font-variant:normal;font-size:10.56px;font-family:CairoFont-2;-inkscape-font-specification:CairoFont-2-0;writing-mode:lr-tb;fill:#000000;fill-opacity:1;fill-rule:nonzero;stroke:none"
         id="text544"><tspan
           x="0"
           y="0"
           id="tspan542">6</tspan></text>
    </g>
  </g>
</svg>
