<?xml version="1.0" encoding="UTF-8" standalone="no"?>
<!-- Created with Inkscape (http://www.inkscape.org/) -->

<svg
   version="1.1"
   id="svg2"
   width="492"
   height="246.66667"
   viewBox="0 0 492 246.66667"
   sodipodi:docname="0iqrew674duyt.pdf"
   xmlns:inkscape="http://www.inkscape.org/namespaces/inkscape"
   xmlns:sodipodi="http://sodipodi.sourceforge.net/DTD/sodipodi-0.dtd"
   xmlns="http://www.w3.org/2000/svg"
   xmlns:svg="http://www.w3.org/2000/svg">
  <defs
     id="defs6">
    <clipPath
       clipPathUnits="userSpaceOnUse"
       id="clipPath20">
      <path
         d="m 12,105 h 5.52 v 8 H 12 Z"
         id="path18" />
    </clipPath>
    <clipPath
       clipPathUnits="userSpaceOnUse"
       id="clipPath36">
      <path
         d="m 66,62 h 5.762 v 9 H 66 Z"
         id="path34" />
    </clipPath>
    <clipPath
       clipPathUnits="userSpaceOnUse"
       id="clipPath52">
      <path
         d="m 69,78 h 5.879 v 9 H 69 Z"
         id="path50" />
    </clipPath>
    <clipPath
       clipPathUnits="userSpaceOnUse"
       id="clipPath68">
      <path
         d="m 72,90 h 5.762 v 9 H 72 Z"
         id="path66" />
    </clipPath>
    <clipPath
       clipPathUnits="userSpaceOnUse"
       id="clipPath84">
      <path
         d="m 75,109 h 5.879 v 9 H 75 Z"
         id="path82" />
    </clipPath>
    <clipPath
       clipPathUnits="userSpaceOnUse"
       id="clipPath110">
      <path
         d="m 42,103 h 6.961 v 7 H 42 Z"
         id="path108" />
    </clipPath>
    <clipPath
       clipPathUnits="userSpaceOnUse"
       id="clipPath158">
      <path
         d="m 40,132 h 3 v 6.238 h -3 z"
         id="path156" />
    </clipPath>
    <clipPath
       clipPathUnits="userSpaceOnUse"
       id="clipPath174">
      <path
         d="m 104,105 h 5.68 v 8 H 104 Z"
         id="path172" />
    </clipPath>
    <clipPath
       clipPathUnits="userSpaceOnUse"
       id="clipPath190">
      <path
         d="m 158,62 h 5.922 v 9 H 158 Z"
         id="path188" />
    </clipPath>
    <clipPath
       clipPathUnits="userSpaceOnUse"
       id="clipPath212">
      <path
         d="m 164,90 h 5.922 v 9 H 164 Z"
         id="path210" />
    </clipPath>
    <clipPath
       clipPathUnits="userSpaceOnUse"
       id="clipPath282">
      <path
         d="m 132,132 h 5 v 6.238 h -5 z"
         id="path280" />
    </clipPath>
    <clipPath
       clipPathUnits="userSpaceOnUse"
       id="clipPath298">
      <path
         d="m 196,105 h 5.84 v 8 H 196 Z"
         id="path296" />
    </clipPath>
    <clipPath
       clipPathUnits="userSpaceOnUse"
       id="clipPath386">
      <path
         d="m 224,132 h 5 v 6.238 h -5 z"
         id="path384" />
    </clipPath>
    <clipPath
       clipPathUnits="userSpaceOnUse"
       id="clipPath480">
      <path
         d="m 316,132 h 5 v 6.238 h -5 z"
         id="path478" />
    </clipPath>
  </defs>
  <sodipodi:namedview
     id="namedview4"
     pagecolor="#ffffff"
     bordercolor="#999999"
     borderopacity="1"
     inkscape:showpageshadow="0"
     inkscape:pageopacity="0"
     inkscape:pagecheckerboard="0"
     inkscape:deskcolor="#d1d1d1" />
  <g
     id="g8"
     inkscape:groupmode="layer"
     inkscape:label="0iqrew674duyt"
     transform="matrix(1.3333333,0,0,1.3333333,0,9.5e-6)">
    <g
       id="g10">
      <path
         d="m 27.648,96.348 -0.418,-0.34 -0.421,-0.305 -0.418,-0.234 -0.418,-0.137 -0.418,-0.023 -0.422,0.089 -0.418,0.192 -0.418,0.281 -0.418,0.328 -0.422,0.348 -0.418,0.328 -0.418,0.266 -0.418,0.179 -0.418,0.075 -0.422,-0.04 -0.418,-0.152 -0.418,-0.246 -0.418,-0.312 -0.421,-0.344 -0.418,-0.34 -0.418,-0.297 -0.418,-0.223 -0.422,-0.121 -0.418,-0.008 -0.418,0.106 -0.418,0.211 -0.422,0.285 -0.418,0.336 -0.418,0.348 -0.418,0.32 -0.422,0.254 -0.418,0.168 -0.418,0.058 L 13.406,97.34 12.984,97.172 12.566,96.918 12.148,96.598 11.73,96.25 11.312,95.914 10.891,95.629 10.473,95.418 10.055,95.312 9.637,95.32 9.215,95.441 8.797,95.664 8.379,95.961 7.961,96.301 7.539,96.645 7.121,96.957 6.703,97.203 6.285,97.355 5.863,97.395 5.445,97.32 5.027,97.141 4.609,96.875 4.188,96.547 3.77,96.199 3.352,95.871 2.934,95.59 2.512,95.398 2.094,95.309 1.676,95.332 1.258,95.469 0.84,95.703 0.418,96.008 0,96.348"
         style="fill:none;stroke:#000000;stroke-width:0.4608;stroke-linecap:square;stroke-linejoin:miter;stroke-miterlimit:3.25;stroke-dasharray:none;stroke-opacity:1"
         id="path12" />
    </g>
    <g
       id="g14">
      <g
         id="g16"
         clip-path="url(#clipPath20)">
        <text
           xml:space="preserve"
           transform="translate(11.034937,110.76175)"
           style="font-variant:normal;font-size:10.08px;font-family:CairoFont-0;-inkscape-font-specification:CairoFont-0-1;writing-mode:lr-tb;fill:#000000;fill-opacity:1;fill-rule:nonzero;stroke:none"
           id="text24"><tspan
             x="0"
             y="0"
             id="tspan22">γ</tspan></text>
      </g>
    </g>
    <g
       id="g26">
      <path
         d="m 61.16,82.945 0.582,0.02 0.539,-0.027 0.465,-0.11 0.367,-0.219 0.262,-0.339 0.164,-0.45 0.086,-0.531 0.047,-0.578 0.051,-0.582 0.086,-0.531 0.164,-0.45 0.261,-0.339 0.368,-0.219 0.464,-0.11 0.539,-0.027 0.583,0.024 0.578,0.019 0.543,-0.027 0.464,-0.11 0.368,-0.218 0.261,-0.34 0.16,-0.449 0.09,-0.532 0.047,-0.578 0.051,-0.582 0.086,-0.531 0.164,-0.449 0.262,-0.34 0.367,-0.219 0.465,-0.109 0.539,-0.028 0.582,0.024 0.578,0.019 0.543,-0.027 0.465,-0.109 0.367,-0.219 0.258,-0.34 0.164,-0.449 0.09,-0.531 0.047,-0.579 0.046,-0.582 0.09,-0.531 0.164,-0.449 0.262,-0.34 0.367,-0.219 0.465,-0.109 0.539,-0.023 0.582,0.019 0.578,0.02 0.539,-0.028 0.465,-0.109 0.367,-0.219 0.262,-0.34 0.164,-0.445 0.09,-0.535 0.094,-1.156 0.09,-0.536 0.164,-0.449 0.261,-0.34 0.368,-0.218 0.464,-0.11 0.54,-0.023 0.582,0.019 0.578,0.02 0.539,-0.024 0.465,-0.109 0.367,-0.223 0.261,-0.336 0.165,-0.449 0.089,-0.535 0.047,-0.578"
         style="fill:none;stroke:#000000;stroke-width:0.4608;stroke-linecap:square;stroke-linejoin:miter;stroke-miterlimit:3.25;stroke-dasharray:none;stroke-opacity:1"
         id="path28" />
    </g>
    <g
       id="g30">
      <g
         id="g32"
         clip-path="url(#clipPath36)">
        <text
           xml:space="preserve"
           transform="translate(65.112935,68.101997)"
           style="font-variant:normal;font-size:10.08px;font-family:CairoFont-0;-inkscape-font-specification:CairoFont-0-1;writing-mode:lr-tb;fill:#000000;fill-opacity:1;fill-rule:nonzero;stroke:none"
           id="text40"><tspan
             x="0"
             y="0"
             id="tspan38">γ</tspan></text>
      </g>
    </g>
    <g
       id="g42">
      <path
         d="m 61.16,92.996 0.5,0.309 0.485,0.242 0.46,0.129 0.426,-0.024 0.395,-0.183 0.355,-0.328 0.336,-0.438 0.321,-0.496 0.324,-0.484 0.34,-0.411 0.367,-0.292 0.402,-0.137 0.434,0.023 0.468,0.164 0.493,0.27 0.5,0.312 0.5,0.293 0.476,0.215 0.453,0.09 0.418,-0.07 0.379,-0.227 0.352,-0.367 0.328,-0.461 0.32,-0.496 0.328,-0.469 0.348,-0.383 0.375,-0.25 0.41,-0.089 0.449,0.066 0.473,0.199 0.496,0.285 0.504,0.317 0.492,0.277 0.473,0.184 0.441,0.043 0.407,-0.114 0.371,-0.269 0.343,-0.399 0.325,-0.476 0.32,-0.496 0.332,-0.453 0.355,-0.348 0.387,-0.207 0.422,-0.043 0.453,0.109 0.484,0.231 0.497,0.301 0.503,0.308 0.489,0.258 0.465,0.148 h 0.429 l 0.395,-0.16 0.363,-0.312 0.336,-0.426 0.324,-0.488"
         style="fill:none;stroke:#000000;stroke-width:0.4608;stroke-linecap:square;stroke-linejoin:miter;stroke-miterlimit:3.25;stroke-dasharray:none;stroke-opacity:1"
         id="path44" />
    </g>
    <g
       id="g46">
      <g
         id="g48"
         clip-path="url(#clipPath52)">
        <text
           xml:space="preserve"
           transform="translate(68.273661,84.210704)"
           style="font-variant:normal;font-size:10.08px;font-family:CairoFont-0;-inkscape-font-specification:CairoFont-0-1;writing-mode:lr-tb;fill:#000000;fill-opacity:1;fill-rule:nonzero;stroke:none"
           id="text56"><tspan
             x="0"
             y="0"
             id="tspan54">γ</tspan></text>
      </g>
    </g>
    <g
       id="g58">
      <path
         d="m 61.16,99.699 0.324,0.492 0.336,0.426 0.364,0.309 0.394,0.16 h 0.434 l 0.465,-0.145 0.488,-0.257 0.5,-0.313 0.496,-0.301 0.484,-0.23 0.457,-0.106 0.422,0.043 0.383,0.207 0.355,0.348 0.333,0.449 0.32,0.496 0.328,0.481 0.34,0.398 0.371,0.27 0.406,0.113 0.442,-0.043 0.472,-0.184 0.496,-0.277 0.5,-0.316 0.496,-0.285 0.477,-0.204 0.445,-0.066 0.41,0.094 0.379,0.25 0.344,0.383 0.328,0.468 0.321,0.496 0.332,0.461 0.347,0.368 0.383,0.226 0.414,0.07 0.453,-0.089 0.481,-0.215 0.496,-0.297 0.5,-0.313 0.492,-0.265 0.469,-0.168 0.437,-0.02 0.399,0.137 0.367,0.289 0.34,0.414 0.324,0.485 0.324,0.492 0.332,0.441 0.36,0.328 0.39,0.184 0.426,0.023 0.461,-0.129 0.484,-0.242 0.5,-0.308"
         style="fill:none;stroke:#000000;stroke-width:0.4608;stroke-linecap:square;stroke-linejoin:miter;stroke-miterlimit:3.25;stroke-dasharray:none;stroke-opacity:1"
         id="path60" />
    </g>
    <g
       id="g62">
      <g
         id="g64"
         clip-path="url(#clipPath68)">
        <text
           xml:space="preserve"
           transform="translate(71.090759,95.940159)"
           style="font-variant:normal;font-size:10.08px;font-family:CairoFont-0;-inkscape-font-specification:CairoFont-0-1;writing-mode:lr-tb;fill:#000000;fill-opacity:1;fill-rule:nonzero;stroke:none"
           id="text72"><tspan
             x="0"
             y="0"
             id="tspan70">γ</tspan></text>
      </g>
    </g>
    <g
       id="g74">
      <path
         d="m 61.16,109.754 0.047,0.578 0.09,0.535 0.164,0.449 0.262,0.336 0.367,0.223 0.465,0.109 0.539,0.024 0.582,-0.02 0.578,-0.019 0.539,0.023 0.469,0.11 0.367,0.218 0.258,0.34 0.164,0.449 0.09,0.536 0.093,1.156 0.09,0.531 0.164,0.449 0.262,0.34 0.367,0.219 0.465,0.109 0.539,0.028 0.582,-0.02 0.578,-0.023 0.539,0.027 0.469,0.109 0.367,0.219 0.258,0.34 0.164,0.449 0.09,0.531 0.047,0.582 0.047,0.579 0.09,0.531 0.164,0.449 0.261,0.34 0.368,0.219 0.464,0.109 0.539,0.027 0.582,-0.019 0.579,-0.024 0.539,0.028 0.464,0.109 0.368,0.219 0.261,0.34 0.164,0.449 0.09,0.531 0.047,0.582 0.047,0.578 0.09,0.532 0.164,0.449 0.262,0.34 0.367,0.218 0.465,0.11 0.539,0.027 0.578,-0.019 0.582,-0.024 0.539,0.027 0.465,0.11 0.367,0.219 0.262,0.339 0.164,0.45 0.09,0.531 0.047,0.582 0.046,0.578 0.09,0.531 0.16,0.45 0.262,0.339 0.367,0.219 0.465,0.109 0.543,0.028 0.578,-0.02"
         style="fill:none;stroke:#000000;stroke-width:0.4608;stroke-linecap:square;stroke-linejoin:miter;stroke-miterlimit:3.25;stroke-dasharray:none;stroke-opacity:1"
         id="path76" />
    </g>
    <g
       id="g78">
      <g
         id="g80"
         clip-path="url(#clipPath84)">
        <text
           xml:space="preserve"
           transform="translate(74.251485,115.01982)"
           style="font-variant:normal;font-size:10.08px;font-family:CairoFont-0;-inkscape-font-specification:CairoFont-0-1;writing-mode:lr-tb;fill:#000000;fill-opacity:1;fill-rule:nonzero;stroke:none"
           id="text88"><tspan
             x="0"
             y="0"
             id="tspan86">γ</tspan></text>
      </g>
    </g>
    <g
       id="g90">
      <path
         d="M 27.648,96.348 61.16,82.945"
         style="fill:none;stroke:#000000;stroke-width:0.4608;stroke-linecap:square;stroke-linejoin:miter;stroke-miterlimit:3.25;stroke-dasharray:none;stroke-opacity:1"
         id="path92" />
      <path
         d="M 42.07,90.578 47.359,90.27 46.117,87.156 Z"
         style="fill:#000000;fill-opacity:1;fill-rule:evenodd;stroke:none"
         id="path94" />
      <text
         xml:space="preserve"
         transform="translate(43.76115,103.59479)"
         style="font-variant:normal;font-size:10.56px;font-family:CairoFont-1;-inkscape-font-specification:CairoFont-1-0;writing-mode:lr-tb;fill:#000000;fill-opacity:1;fill-rule:nonzero;stroke:none"
         id="text98"><tspan
           x="0"
           y="0"
           id="tspan96">e</tspan></text>
      <path
         d="M 27.648,96.348 61.16,92.996"
         style="fill:none;stroke:#000000;stroke-width:0.4608;stroke-linecap:square;stroke-linejoin:miter;stroke-miterlimit:3.25;stroke-dasharray:none;stroke-opacity:1"
         id="path100" />
      <path
         d="M 46.906,94.422 42.07,96.59 41.738,93.258 Z"
         style="fill:#000000;fill-opacity:1;fill-rule:evenodd;stroke:none"
         id="path102" />
    </g>
    <g
       id="g104">
      <g
         id="g106"
         clip-path="url(#clipPath110)">
        <text
           xml:space="preserve"
           transform="translate(41.995763,109.05388)"
           style="font-variant:normal;font-size:10.56px;font-family:CairoFont-1;-inkscape-font-specification:CairoFont-1-0;writing-mode:lr-tb;fill:#000000;fill-opacity:1;fill-rule:nonzero;stroke:none"
           id="text114"><tspan
             x="0"
             y="0"
             id="tspan112">e</tspan></text>
      </g>
    </g>
    <g
       id="g116">
      <path
         d="M 61.16,82.945 V 99.699"
         style="fill:none;stroke:#000000;stroke-width:0.4608;stroke-linecap:square;stroke-linejoin:miter;stroke-miterlimit:3.25;stroke-dasharray:none;stroke-opacity:1"
         id="path118" />
      <path
         d="m 61.16,88.809 -1.676,5.027 h 3.352 z"
         style="fill:#000000;fill-opacity:1;fill-rule:evenodd;stroke:none"
         id="path120" />
      <text
         xml:space="preserve"
         transform="translate(51.091824,95.314369)"
         style="font-variant:normal;font-size:10.56px;font-family:CairoFont-1;-inkscape-font-specification:CairoFont-1-0;writing-mode:lr-tb;fill:#000000;fill-opacity:1;fill-rule:nonzero;stroke:none"
         id="text124"><tspan
           x="0"
           y="0"
           id="tspan122">e</tspan></text>
      <path
         d="m 61.16,92.996 v 16.758"
         style="fill:none;stroke:#000000;stroke-width:0.4608;stroke-linecap:square;stroke-linejoin:miter;stroke-miterlimit:3.25;stroke-dasharray:none;stroke-opacity:1"
         id="path126" />
      <path
         d="m 61.16,103.891 -1.676,-5.028 h 3.352 z"
         style="fill:#000000;fill-opacity:1;fill-rule:evenodd;stroke:none"
         id="path128" />
      <text
         xml:space="preserve"
         transform="translate(51.091824,105.36819)"
         style="font-variant:normal;font-size:10.56px;font-family:CairoFont-1;-inkscape-font-specification:CairoFont-1-0;writing-mode:lr-tb;fill:#000000;fill-opacity:1;fill-rule:nonzero;stroke:none"
         id="text132"><tspan
           x="0"
           y="0"
           id="tspan130">e</tspan></text>
      <path
         d="m 61.16,99.699 v 10.055"
         style="fill:none;stroke:#000000;stroke-width:0.4608;stroke-linecap:square;stroke-linejoin:miter;stroke-miterlimit:3.25;stroke-dasharray:none;stroke-opacity:1"
         id="path134" />
      <path
         d="m 61.16,102.215 -1.676,5.027 h 3.352 z"
         style="fill:#000000;fill-opacity:1;fill-rule:evenodd;stroke:none"
         id="path136" />
      <text
         xml:space="preserve"
         transform="translate(51.091824,108.71946)"
         style="font-variant:normal;font-size:10.56px;font-family:CairoFont-1;-inkscape-font-specification:CairoFont-1-0;writing-mode:lr-tb;fill:#000000;fill-opacity:1;fill-rule:nonzero;stroke:none"
         id="text140"><tspan
           x="0"
           y="0"
           id="tspan138">e</tspan></text>
      <path
         d="m 29.492,96.348 c 0,0.492 -0.195,0.961 -0.539,1.304 C 28.605,98 28.137,98.191 27.648,98.191 27.16,98.191 26.691,98 26.344,97.652 26,97.309 25.805,96.84 25.805,96.348 c 0,-0.489 0.195,-0.957 0.539,-1.301 0.347,-0.348 0.816,-0.539 1.304,-0.539 0.489,0 0.957,0.191 1.305,0.539 0.344,0.344 0.539,0.812 0.539,1.301 z"
         style="fill:#000000;fill-opacity:1;fill-rule:evenodd;stroke:none"
         id="path142" />
      <path
         d="m 63.004,82.945 c 0,0.489 -0.195,0.957 -0.539,1.301 -0.348,0.348 -0.817,0.543 -1.305,0.543 -0.488,0 -0.957,-0.195 -1.305,-0.543 -0.343,-0.344 -0.539,-0.812 -0.539,-1.301 0,-0.488 0.196,-0.961 0.539,-1.304 0.348,-0.344 0.817,-0.539 1.305,-0.539 0.488,0 0.957,0.195 1.305,0.539 0.344,0.343 0.539,0.816 0.539,1.304 z"
         style="fill:#000000;fill-opacity:1;fill-rule:evenodd;stroke:none"
         id="path144" />
      <path
         d="m 63.004,92.996 c 0,0.492 -0.195,0.961 -0.539,1.305 -0.348,0.347 -0.817,0.539 -1.305,0.539 -0.488,0 -0.957,-0.192 -1.305,-0.539 -0.343,-0.344 -0.539,-0.813 -0.539,-1.305 0,-0.488 0.196,-0.957 0.539,-1.301 0.348,-0.347 0.817,-0.539 1.305,-0.539 0.488,0 0.957,0.192 1.305,0.539 0.344,0.344 0.539,0.813 0.539,1.301 z"
         style="fill:#000000;fill-opacity:1;fill-rule:evenodd;stroke:none"
         id="path146" />
      <path
         d="m 63.004,99.699 c 0,0.489 -0.195,0.957 -0.539,1.305 -0.348,0.344 -0.817,0.539 -1.305,0.539 -0.488,0 -0.957,-0.195 -1.305,-0.539 -0.343,-0.348 -0.539,-0.816 -0.539,-1.305 0,-0.488 0.196,-0.957 0.539,-1.301 0.348,-0.347 0.817,-0.543 1.305,-0.543 0.488,0 0.957,0.196 1.305,0.543 0.344,0.344 0.539,0.813 0.539,1.301 z"
         style="fill:#000000;fill-opacity:1;fill-rule:evenodd;stroke:none"
         id="path148" />
      <path
         d="m 63.004,109.754 c 0,0.488 -0.195,0.957 -0.539,1.305 -0.348,0.343 -0.817,0.539 -1.305,0.539 -0.488,0 -0.957,-0.196 -1.305,-0.539 -0.343,-0.348 -0.539,-0.817 -0.539,-1.305 0,-0.488 0.196,-0.957 0.539,-1.305 0.348,-0.344 0.817,-0.539 1.305,-0.539 0.488,0 0.957,0.195 1.305,0.539 0.344,0.348 0.539,0.817 0.539,1.305 z"
         style="fill:#000000;fill-opacity:1;fill-rule:evenodd;stroke:none"
         id="path150" />
    </g>
    <g
       id="g152">
      <g
         id="g154"
         clip-path="url(#clipPath158)">
        <text
           xml:space="preserve"
           transform="translate(39.672159,138.53767)"
           style="font-variant:normal;font-size:8.4px;font-family:CairoFont-2;-inkscape-font-specification:CairoFont-2-0;writing-mode:lr-tb;fill:#000000;fill-opacity:1;fill-rule:nonzero;stroke:none"
           id="text162"><tspan
             x="0"
             y="0"
             id="tspan160">1</tspan></text>
      </g>
    </g>
    <g
       id="g164">
      <path
         d="m 119.809,96.348 -0.418,-0.34 -0.422,-0.305 -0.418,-0.234 -0.418,-0.137 -0.418,-0.023 -0.422,0.089 -0.418,0.192 -0.418,0.281 -0.418,0.328 -0.422,0.348 -0.418,0.328 -0.418,0.266 -0.418,0.179 -0.418,0.075 -0.422,-0.04 -0.418,-0.152 -0.417,-0.246 -0.418,-0.312 -0.422,-0.344 -0.418,-0.34 -0.418,-0.297 -0.418,-0.223 -0.422,-0.121 -0.418,-0.008 -0.418,0.106 -0.418,0.211 -0.422,0.285 -0.418,0.336 -0.418,0.348 -0.418,0.32 -0.422,0.254 -0.418,0.168 -0.418,0.058 -0.418,-0.058 -0.421,-0.168 -0.418,-0.254 -0.418,-0.32 -0.418,-0.348 -0.422,-0.336 -0.418,-0.285 -0.418,-0.211 -0.418,-0.106 -0.418,0.008 -0.422,0.121 -0.418,0.223 -0.418,0.297 -0.418,0.34 -0.422,0.344 -0.418,0.312 -0.418,0.246 -0.418,0.152 -0.422,0.04 -0.418,-0.075 -0.417,-0.179 -0.418,-0.266 -0.422,-0.328 -0.418,-0.348 -0.418,-0.328 -0.418,-0.281 -0.422,-0.192 -0.418,-0.089 -0.418,0.023 -0.418,0.137 -0.422,0.234 -0.418,0.305 -0.418,0.34"
         style="fill:none;stroke:#000000;stroke-width:0.4608;stroke-linecap:square;stroke-linejoin:miter;stroke-miterlimit:3.25;stroke-dasharray:none;stroke-opacity:1"
         id="path166" />
    </g>
    <g
       id="g168">
      <g
         id="g170"
         clip-path="url(#clipPath174)">
        <text
           xml:space="preserve"
           transform="translate(103.19494,110.76175)"
           style="font-variant:normal;font-size:10.08px;font-family:CairoFont-0;-inkscape-font-specification:CairoFont-0-1;writing-mode:lr-tb;fill:#000000;fill-opacity:1;fill-rule:nonzero;stroke:none"
           id="text178"><tspan
             x="0"
             y="0"
             id="tspan176">γ</tspan></text>
      </g>
    </g>
    <g
       id="g180">
      <path
         d="m 153.32,82.945 0.582,0.02 0.539,-0.027 0.465,-0.11 0.367,-0.219 0.262,-0.339 0.164,-0.45 0.086,-0.531 0.047,-0.578 0.051,-0.582 0.086,-0.531 0.164,-0.45 0.262,-0.339 0.367,-0.219 0.465,-0.11 0.539,-0.027 0.582,0.024 0.578,0.019 0.543,-0.027 0.465,-0.11 0.367,-0.218 0.261,-0.34 0.161,-0.449 0.089,-0.532 0.047,-0.578 0.047,-0.582 0.09,-0.531 0.164,-0.449 0.262,-0.34 0.367,-0.219 0.465,-0.109 0.539,-0.028 0.582,0.024 0.578,0.019 0.539,-0.027 0.469,-0.109 0.363,-0.219 0.262,-0.34 0.164,-0.449 0.09,-0.531 0.047,-0.579 0.047,-0.582 0.089,-0.531 0.165,-0.449 0.261,-0.34 0.367,-0.219 0.465,-0.109 0.539,-0.023 0.582,0.019 0.578,0.02 0.54,-0.028 0.464,-0.109 0.368,-0.219 0.261,-0.34 0.164,-0.445 0.09,-0.535 0.094,-1.156 0.09,-0.536 0.164,-0.449 0.262,-0.34 0.367,-0.218 0.465,-0.11 0.539,-0.023 0.582,0.019 0.578,0.02 0.539,-0.024 0.465,-0.109 0.367,-0.223 0.262,-0.336 0.164,-0.449 0.09,-0.535 0.046,-0.578"
         style="fill:none;stroke:#000000;stroke-width:0.4608;stroke-linecap:square;stroke-linejoin:miter;stroke-miterlimit:3.25;stroke-dasharray:none;stroke-opacity:1"
         id="path182" />
    </g>
    <g
       id="g184">
      <g
         id="g186"
         clip-path="url(#clipPath190)">
        <text
           xml:space="preserve"
           transform="translate(157.27293,68.101997)"
           style="font-variant:normal;font-size:10.08px;font-family:CairoFont-0;-inkscape-font-specification:CairoFont-0-1;writing-mode:lr-tb;fill:#000000;fill-opacity:1;fill-rule:nonzero;stroke:none"
           id="text194"><tspan
             x="0"
             y="0"
             id="tspan192">γ</tspan></text>
      </g>
    </g>
    <g
       id="g196">
      <path
         d="m 153.32,92.996 0.5,0.309 0.485,0.242 0.461,0.129 0.425,-0.024 0.391,-0.183 0.359,-0.328 0.336,-0.438 0.321,-0.496 0.324,-0.484 0.34,-0.411 0.367,-0.292 0.402,-0.137 0.434,0.023 0.469,0.164 0.492,0.27 0.5,0.312 0.5,0.293 0.476,0.215 0.453,0.09 0.415,-0.07 0.382,-0.227 0.352,-0.367 0.328,-0.461 0.32,-0.496 0.328,-0.469 0.348,-0.383 0.375,-0.25 0.41,-0.089 0.446,0.066 0.476,0.199 0.496,0.285 0.504,0.317 0.492,0.277 0.473,0.184 0.441,0.043 0.407,-0.114 0.371,-0.269 0.343,-0.399 0.325,-0.476 0.32,-0.496 0.332,-0.453 0.356,-0.348 0.386,-0.207 0.422,-0.043 0.453,0.109 0.485,0.231 0.496,0.301 0.504,0.308 0.488,0.258 0.465,0.148 h 0.429 l 0.395,-0.16 0.363,-0.312 0.336,-0.426 0.324,-0.488"
         style="fill:none;stroke:#000000;stroke-width:0.4608;stroke-linecap:square;stroke-linejoin:miter;stroke-miterlimit:3.25;stroke-dasharray:none;stroke-opacity:1"
         id="path198" />
      <text
         xml:space="preserve"
         transform="translate(160.43366,84.210704)"
         style="font-variant:normal;font-size:10.08px;font-family:CairoFont-0;-inkscape-font-specification:CairoFont-0-1;writing-mode:lr-tb;fill:#000000;fill-opacity:1;fill-rule:nonzero;stroke:none"
         id="text202"><tspan
           x="0"
           y="0"
           id="tspan200">γ</tspan></text>
      <path
         d="m 153.32,99.699 0.325,0.492 0.335,0.426 0.364,0.309 0.394,0.16 h 0.434 l 0.465,-0.145 0.488,-0.257 0.5,-0.313 0.496,-0.301 0.484,-0.23 0.457,-0.106 0.422,0.043 0.383,0.207 0.356,0.348 0.332,0.449 0.32,0.496 0.324,0.481 0.344,0.398 0.371,0.27 0.406,0.113 0.442,-0.043 0.472,-0.184 0.496,-0.277 0.5,-0.316 0.497,-0.285 0.476,-0.204 0.445,-0.066 0.411,0.094 0.379,0.25 0.343,0.383 0.328,0.468 0.321,0.496 0.332,0.461 0.347,0.368 0.383,0.226 0.414,0.07 0.453,-0.089 0.481,-0.215 0.496,-0.297 0.5,-0.313 0.492,-0.265 0.469,-0.168 0.437,-0.02 0.399,0.137 0.367,0.289 0.34,0.414 0.324,0.485 0.324,0.492 0.332,0.441 0.36,0.328 0.39,0.184 0.426,0.023 0.461,-0.129 0.484,-0.242 0.5,-0.308"
         style="fill:none;stroke:#000000;stroke-width:0.4608;stroke-linecap:square;stroke-linejoin:miter;stroke-miterlimit:3.25;stroke-dasharray:none;stroke-opacity:1"
         id="path204" />
    </g>
    <g
       id="g206">
      <g
         id="g208"
         clip-path="url(#clipPath212)">
        <text
           xml:space="preserve"
           transform="translate(163.25076,95.940159)"
           style="font-variant:normal;font-size:10.08px;font-family:CairoFont-0;-inkscape-font-specification:CairoFont-0-1;writing-mode:lr-tb;fill:#000000;fill-opacity:1;fill-rule:nonzero;stroke:none"
           id="text216"><tspan
             x="0"
             y="0"
             id="tspan214">γ</tspan></text>
      </g>
    </g>
    <g
       id="g218">
      <path
         d="m 153.32,109.754 0.047,0.578 0.09,0.535 0.164,0.449 0.262,0.336 0.367,0.223 0.465,0.109 0.539,0.024 0.582,-0.02 0.578,-0.019 0.539,0.023 0.465,0.11 0.367,0.218 0.262,0.34 0.164,0.449 0.09,0.536 0.094,1.156 0.089,0.531 0.164,0.449 0.262,0.34 0.367,0.219 0.465,0.109 0.539,0.028 0.582,-0.02 0.578,-0.023 0.539,0.027 0.465,0.109 0.367,0.219 0.262,0.34 0.164,0.449 0.09,0.531 0.047,0.582 0.047,0.579 0.09,0.531 0.164,0.449 0.262,0.34 0.367,0.219 0.465,0.109 0.539,0.027 0.582,-0.019 0.578,-0.024 0.539,0.028 0.465,0.109 0.367,0.219 0.262,0.34 0.164,0.449 0.089,0.531 0.047,0.582 0.047,0.578 0.09,0.532 0.164,0.449 0.262,0.34 0.367,0.218 0.465,0.11 0.539,0.027 0.578,-0.019 0.582,-0.024 0.539,0.027 0.465,0.11 0.367,0.219 0.262,0.339 0.164,0.45 0.09,0.531 0.047,0.582 0.047,0.578 0.089,0.531 0.161,0.45 0.261,0.339 0.367,0.219 0.465,0.109 0.543,0.028 0.578,-0.02"
         style="fill:none;stroke:#000000;stroke-width:0.4608;stroke-linecap:square;stroke-linejoin:miter;stroke-miterlimit:3.25;stroke-dasharray:none;stroke-opacity:1"
         id="path220" />
      <text
         xml:space="preserve"
         transform="translate(166.41148,115.01982)"
         style="font-variant:normal;font-size:10.08px;font-family:CairoFont-0;-inkscape-font-specification:CairoFont-0-1;writing-mode:lr-tb;fill:#000000;fill-opacity:1;fill-rule:nonzero;stroke:none"
         id="text224"><tspan
           x="0"
           y="0"
           id="tspan222">γ</tspan></text>
      <path
         d="M 119.809,96.348 153.32,82.945"
         style="fill:none;stroke:#000000;stroke-width:0.4608;stroke-linecap:square;stroke-linejoin:miter;stroke-miterlimit:3.25;stroke-dasharray:none;stroke-opacity:1"
         id="path226" />
      <path
         d="m 138.898,88.715 -4.046,3.422 -1.243,-3.114 z"
         style="fill:#000000;fill-opacity:1;fill-rule:evenodd;stroke:none"
         id="path228" />
      <text
         xml:space="preserve"
         transform="translate(135.92115,103.59479)"
         style="font-variant:normal;font-size:10.56px;font-family:CairoFont-1;-inkscape-font-specification:CairoFont-1-0;writing-mode:lr-tb;fill:#000000;fill-opacity:1;fill-rule:nonzero;stroke:none"
         id="text232"><tspan
           x="0"
           y="0"
           id="tspan230">e</tspan></text>
      <path
         d="M 119.809,96.348 153.32,92.996"
         style="fill:none;stroke:#000000;stroke-width:0.4608;stroke-linecap:square;stroke-linejoin:miter;stroke-miterlimit:3.25;stroke-dasharray:none;stroke-opacity:1"
         id="path234" />
      <path
         d="m 134.062,94.922 5.168,1.168 -0.332,-3.332 z"
         style="fill:#000000;fill-opacity:1;fill-rule:evenodd;stroke:none"
         id="path236" />
      <text
         xml:space="preserve"
         transform="translate(134.15576,109.05388)"
         style="font-variant:normal;font-size:10.56px;font-family:CairoFont-1;-inkscape-font-specification:CairoFont-1-0;writing-mode:lr-tb;fill:#000000;fill-opacity:1;fill-rule:nonzero;stroke:none"
         id="text240"><tspan
           x="0"
           y="0"
           id="tspan238">e</tspan></text>
      <path
         d="M 153.32,82.945 V 99.699"
         style="fill:none;stroke:#000000;stroke-width:0.4608;stroke-linecap:square;stroke-linejoin:miter;stroke-miterlimit:3.25;stroke-dasharray:none;stroke-opacity:1"
         id="path242" />
      <path
         d="m 153.32,93.836 -1.675,-5.027 h 3.351 z"
         style="fill:#000000;fill-opacity:1;fill-rule:evenodd;stroke:none"
         id="path244" />
      <text
         xml:space="preserve"
         transform="translate(143.25182,95.314369)"
         style="font-variant:normal;font-size:10.56px;font-family:CairoFont-1;-inkscape-font-specification:CairoFont-1-0;writing-mode:lr-tb;fill:#000000;fill-opacity:1;fill-rule:nonzero;stroke:none"
         id="text248"><tspan
           x="0"
           y="0"
           id="tspan246">e</tspan></text>
      <path
         d="m 153.32,92.996 v 16.758"
         style="fill:none;stroke:#000000;stroke-width:0.4608;stroke-linecap:square;stroke-linejoin:miter;stroke-miterlimit:3.25;stroke-dasharray:none;stroke-opacity:1"
         id="path250" />
      <path
         d="m 153.32,98.863 -1.675,5.028 h 3.351 z"
         style="fill:#000000;fill-opacity:1;fill-rule:evenodd;stroke:none"
         id="path252" />
      <text
         xml:space="preserve"
         transform="translate(143.25182,105.36819)"
         style="font-variant:normal;font-size:10.56px;font-family:CairoFont-1;-inkscape-font-specification:CairoFont-1-0;writing-mode:lr-tb;fill:#000000;fill-opacity:1;fill-rule:nonzero;stroke:none"
         id="text256"><tspan
           x="0"
           y="0"
           id="tspan254">e</tspan></text>
      <path
         d="m 153.32,99.699 v 10.055"
         style="fill:none;stroke:#000000;stroke-width:0.4608;stroke-linecap:square;stroke-linejoin:miter;stroke-miterlimit:3.25;stroke-dasharray:none;stroke-opacity:1"
         id="path258" />
      <path
         d="m 153.32,107.242 -1.675,-5.027 h 3.351 z"
         style="fill:#000000;fill-opacity:1;fill-rule:evenodd;stroke:none"
         id="path260" />
      <text
         xml:space="preserve"
         transform="translate(143.25182,108.71946)"
         style="font-variant:normal;font-size:10.56px;font-family:CairoFont-1;-inkscape-font-specification:CairoFont-1-0;writing-mode:lr-tb;fill:#000000;fill-opacity:1;fill-rule:nonzero;stroke:none"
         id="text264"><tspan
           x="0"
           y="0"
           id="tspan262">e</tspan></text>
      <path
         d="m 121.652,96.348 c 0,0.492 -0.195,0.961 -0.539,1.304 -0.347,0.348 -0.816,0.539 -1.304,0.539 -0.489,0 -0.957,-0.191 -1.305,-0.539 -0.344,-0.343 -0.539,-0.812 -0.539,-1.304 0,-0.489 0.195,-0.957 0.539,-1.301 0.348,-0.348 0.816,-0.539 1.305,-0.539 0.488,0 0.957,0.191 1.304,0.539 0.344,0.344 0.539,0.812 0.539,1.301 z"
         style="fill:#000000;fill-opacity:1;fill-rule:evenodd;stroke:none"
         id="path266" />
      <path
         d="m 155.164,82.945 c 0,0.489 -0.195,0.957 -0.539,1.301 -0.348,0.348 -0.816,0.543 -1.305,0.543 -0.488,0 -0.957,-0.195 -1.304,-0.543 -0.344,-0.344 -0.539,-0.812 -0.539,-1.301 0,-0.488 0.195,-0.961 0.539,-1.304 0.347,-0.344 0.816,-0.539 1.304,-0.539 0.489,0 0.957,0.195 1.305,0.539 0.344,0.343 0.539,0.816 0.539,1.304 z"
         style="fill:#000000;fill-opacity:1;fill-rule:evenodd;stroke:none"
         id="path268" />
      <path
         d="m 155.164,92.996 c 0,0.492 -0.195,0.961 -0.539,1.305 -0.348,0.347 -0.816,0.539 -1.305,0.539 -0.488,0 -0.957,-0.192 -1.304,-0.539 -0.344,-0.344 -0.539,-0.813 -0.539,-1.305 0,-0.488 0.195,-0.957 0.539,-1.301 0.347,-0.347 0.816,-0.539 1.304,-0.539 0.489,0 0.957,0.192 1.305,0.539 0.344,0.344 0.539,0.813 0.539,1.301 z"
         style="fill:#000000;fill-opacity:1;fill-rule:evenodd;stroke:none"
         id="path270" />
      <path
         d="m 155.164,99.699 c 0,0.489 -0.195,0.957 -0.539,1.305 -0.348,0.344 -0.816,0.539 -1.305,0.539 -0.488,0 -0.957,-0.195 -1.304,-0.539 -0.344,-0.348 -0.539,-0.816 -0.539,-1.305 0,-0.488 0.195,-0.957 0.539,-1.301 0.347,-0.347 0.816,-0.543 1.304,-0.543 0.489,0 0.957,0.196 1.305,0.543 0.344,0.344 0.539,0.813 0.539,1.301 z"
         style="fill:#000000;fill-opacity:1;fill-rule:evenodd;stroke:none"
         id="path272" />
      <path
         d="m 155.164,109.754 c 0,0.488 -0.195,0.957 -0.539,1.305 -0.348,0.343 -0.816,0.539 -1.305,0.539 -0.488,0 -0.957,-0.196 -1.304,-0.539 -0.344,-0.348 -0.539,-0.817 -0.539,-1.305 0,-0.488 0.195,-0.957 0.539,-1.305 0.347,-0.344 0.816,-0.539 1.304,-0.539 0.489,0 0.957,0.195 1.305,0.539 0.344,0.348 0.539,0.817 0.539,1.305 z"
         style="fill:#000000;fill-opacity:1;fill-rule:evenodd;stroke:none"
         id="path274" />
    </g>
    <g
       id="g276">
      <g
         id="g278"
         clip-path="url(#clipPath282)">
        <text
           xml:space="preserve"
           transform="translate(131.83216,138.53767)"
           style="font-variant:normal;font-size:8.4px;font-family:CairoFont-2;-inkscape-font-specification:CairoFont-2-0;writing-mode:lr-tb;fill:#000000;fill-opacity:1;fill-rule:nonzero;stroke:none"
           id="text286"><tspan
             x="0"
             y="0"
             id="tspan284">2</tspan></text>
      </g>
    </g>
    <g
       id="g288">
      <path
         d="m 211.969,96.348 -0.418,-0.34 -0.422,-0.305 -0.418,-0.234 -0.418,-0.137 -0.418,-0.023 -0.422,0.089 -0.418,0.192 -0.418,0.281 -0.418,0.328 -0.422,0.348 -0.418,0.328 -0.418,0.266 -0.418,0.179 -0.421,0.075 -0.418,-0.04 -0.418,-0.152 -0.418,-0.246 -0.422,-0.312 -0.418,-0.344 -0.418,-0.34 -0.418,-0.297 -0.422,-0.223 -0.418,-0.121 -0.418,-0.008 -0.418,0.106 -0.418,0.211 -0.422,0.285 -0.418,0.336 -0.418,0.348 -0.418,0.32 -0.422,0.254 -0.418,0.168 -0.417,0.058 -0.418,-0.058 -0.422,-0.168 -0.418,-0.254 -0.418,-0.32 -0.418,-0.348 -0.422,-0.336 -0.418,-0.285 -0.418,-0.211 -0.418,-0.106 -0.422,0.008 -0.418,0.121 -0.418,0.223 -0.418,0.297 -0.422,0.34 -0.418,0.344 -0.418,0.312 -0.418,0.246 -0.418,0.152 -0.421,0.04 -0.418,-0.075 -0.418,-0.179 -0.418,-0.266 -0.422,-0.328 -0.418,-0.348 -0.418,-0.328 -0.418,-0.281 -0.422,-0.192 -0.418,-0.089 -0.418,0.023 -0.418,0.137 -0.422,0.234 -0.418,0.305 -0.418,0.34"
         style="fill:none;stroke:#000000;stroke-width:0.4608;stroke-linecap:square;stroke-linejoin:miter;stroke-miterlimit:3.25;stroke-dasharray:none;stroke-opacity:1"
         id="path290" />
    </g>
    <g
       id="g292">
      <g
         id="g294"
         clip-path="url(#clipPath298)">
        <text
           xml:space="preserve"
           transform="translate(195.35494,110.76175)"
           style="font-variant:normal;font-size:10.08px;font-family:CairoFont-0;-inkscape-font-specification:CairoFont-0-1;writing-mode:lr-tb;fill:#000000;fill-opacity:1;fill-rule:nonzero;stroke:none"
           id="text302"><tspan
             x="0"
             y="0"
             id="tspan300">γ</tspan></text>
      </g>
    </g>
    <g
       id="g304">
      <path
         d="m 245.48,82.945 0.582,0.02 0.54,-0.027 0.464,-0.11 0.368,-0.219 0.261,-0.339 0.164,-0.45 0.086,-0.531 0.047,-0.578 0.051,-0.582 0.086,-0.531 0.164,-0.45 0.262,-0.339 0.367,-0.219 0.465,-0.11 0.539,-0.027 0.582,0.024 0.578,0.019 0.543,-0.027 0.465,-0.11 0.367,-0.218 0.258,-0.34 0.164,-0.449 0.09,-0.532 0.047,-0.578 0.046,-0.582 0.09,-0.531 0.164,-0.449 0.262,-0.34 0.367,-0.219 0.465,-0.109 0.539,-0.028 0.582,0.024 0.578,0.019 0.539,-0.027 0.465,-0.109 0.367,-0.219 0.262,-0.34 0.164,-0.449 0.09,-0.531 0.047,-0.579 0.047,-0.582 0.09,-0.531 0.164,-0.449 0.261,-0.34 0.368,-0.219 0.464,-0.109 0.539,-0.023 0.582,0.019 0.579,0.02 0.539,-0.028 0.465,-0.109 0.367,-0.219 0.261,-0.34 0.165,-0.445 0.089,-0.535 0.094,-1.156 0.09,-0.536 0.164,-0.449 0.262,-0.34 0.367,-0.218 0.465,-0.11 0.539,-0.023 0.582,0.019 0.578,0.02 0.539,-0.024 0.465,-0.109 0.367,-0.223 0.262,-0.336 0.164,-0.449 0.09,-0.535 0.047,-0.578"
         style="fill:none;stroke:#000000;stroke-width:0.4608;stroke-linecap:square;stroke-linejoin:miter;stroke-miterlimit:3.25;stroke-dasharray:none;stroke-opacity:1"
         id="path306" />
      <text
         xml:space="preserve"
         transform="translate(249.43294,68.101997)"
         style="font-variant:normal;font-size:10.08px;font-family:CairoFont-0;-inkscape-font-specification:CairoFont-0-1;writing-mode:lr-tb;fill:#000000;fill-opacity:1;fill-rule:nonzero;stroke:none"
         id="text310"><tspan
           x="0"
           y="0"
           id="tspan308">γ</tspan></text>
      <path
         d="m 245.48,92.996 0.5,0.309 0.485,0.242 0.461,0.129 0.426,-0.024 0.39,-0.183 0.36,-0.328 0.336,-0.438 0.32,-0.496 0.324,-0.484 0.34,-0.411 0.367,-0.292 0.402,-0.137 0.434,0.023 0.469,0.164 0.492,0.27 0.5,0.312 0.5,0.293 0.476,0.215 0.454,0.09 0.414,-0.07 0.382,-0.227 0.352,-0.367 0.328,-0.461 0.32,-0.496 0.329,-0.469 0.347,-0.383 0.375,-0.25 0.41,-0.089 0.446,0.066 0.476,0.199 0.496,0.285 0.504,0.317 0.493,0.277 0.472,0.184 0.442,0.043 0.406,-0.114 0.371,-0.269 0.344,-0.399 0.324,-0.476 0.32,-0.496 0.332,-0.453 0.356,-0.348 0.386,-0.207 0.422,-0.043 0.453,0.109 0.485,0.231 0.496,0.301 0.504,0.308 0.488,0.258 0.461,0.148 h 0.434 l 0.394,-0.16 0.363,-0.312 0.336,-0.426 0.325,-0.488"
         style="fill:none;stroke:#000000;stroke-width:0.4608;stroke-linecap:square;stroke-linejoin:miter;stroke-miterlimit:3.25;stroke-dasharray:none;stroke-opacity:1"
         id="path312" />
      <text
         xml:space="preserve"
         transform="translate(252.59366,84.210704)"
         style="font-variant:normal;font-size:10.08px;font-family:CairoFont-0;-inkscape-font-specification:CairoFont-0-1;writing-mode:lr-tb;fill:#000000;fill-opacity:1;fill-rule:nonzero;stroke:none"
         id="text316"><tspan
           x="0"
           y="0"
           id="tspan314">γ</tspan></text>
      <path
         d="m 245.48,99.699 0.325,0.492 0.336,0.426 0.363,0.309 0.394,0.16 h 0.434 l 0.465,-0.145 0.488,-0.257 0.5,-0.313 0.496,-0.301 0.485,-0.23 0.457,-0.106 0.422,0.043 0.382,0.207 0.356,0.348 0.332,0.449 0.32,0.496 0.324,0.481 0.344,0.398 0.371,0.27 0.406,0.113 0.442,-0.043 0.473,-0.184 0.496,-0.277 0.5,-0.316 0.496,-0.285 0.476,-0.204 0.446,-0.066 0.41,0.094 0.379,0.25 0.343,0.383 0.329,0.468 0.32,0.496 0.332,0.461 0.348,0.368 0.382,0.226 0.414,0.07 0.454,-0.089 0.48,-0.215 0.496,-0.297 0.5,-0.313 0.492,-0.265 0.469,-0.168 0.438,-0.02 0.398,0.137 0.367,0.289 0.34,0.414 0.324,0.485 0.321,0.492 0.335,0.441 0.36,0.328 0.39,0.184 0.426,0.023 0.461,-0.129 0.485,-0.242 0.5,-0.308"
         style="fill:none;stroke:#000000;stroke-width:0.4608;stroke-linecap:square;stroke-linejoin:miter;stroke-miterlimit:3.25;stroke-dasharray:none;stroke-opacity:1"
         id="path318" />
      <text
         xml:space="preserve"
         transform="translate(255.41076,95.940159)"
         style="font-variant:normal;font-size:10.08px;font-family:CairoFont-0;-inkscape-font-specification:CairoFont-0-1;writing-mode:lr-tb;fill:#000000;fill-opacity:1;fill-rule:nonzero;stroke:none"
         id="text322"><tspan
           x="0"
           y="0"
           id="tspan320">γ</tspan></text>
      <path
         d="m 245.48,109.754 0.047,0.578 0.09,0.535 0.164,0.449 0.262,0.336 0.367,0.223 0.465,0.109 0.539,0.024 0.582,-0.02 0.578,-0.019 0.539,0.023 0.465,0.11 0.367,0.218 0.262,0.34 0.164,0.449 0.09,0.536 0.094,1.156 0.09,0.531 0.164,0.449 0.261,0.34 0.368,0.219 0.464,0.109 0.539,0.028 0.582,-0.02 0.579,-0.023 0.539,0.027 0.464,0.109 0.368,0.219 0.261,0.34 0.164,0.449 0.09,0.531 0.047,0.582 0.047,0.579 0.09,0.531 0.164,0.449 0.262,0.34 0.367,0.219 0.465,0.109 0.539,0.027 0.582,-0.019 0.578,-0.024 0.539,0.028 0.465,0.109 0.367,0.219 0.262,0.34 0.164,0.449 0.09,0.531 0.046,0.582 0.047,0.578 0.09,0.532 0.164,0.449 0.262,0.34 0.363,0.218 0.469,0.11 0.539,0.027 0.578,-0.019 0.582,-0.024 0.539,0.027 0.465,0.11 0.367,0.219 0.262,0.339 0.164,0.45 0.086,0.531 0.051,0.582 0.047,0.578 0.09,0.531 0.16,0.45 0.261,0.339 0.368,0.219 0.464,0.109 0.54,0.028 0.582,-0.02"
         style="fill:none;stroke:#000000;stroke-width:0.4608;stroke-linecap:square;stroke-linejoin:miter;stroke-miterlimit:3.25;stroke-dasharray:none;stroke-opacity:1"
         id="path324" />
      <text
         xml:space="preserve"
         transform="translate(258.57148,115.01982)"
         style="font-variant:normal;font-size:10.08px;font-family:CairoFont-0;-inkscape-font-specification:CairoFont-0-1;writing-mode:lr-tb;fill:#000000;fill-opacity:1;fill-rule:nonzero;stroke:none"
         id="text328"><tspan
           x="0"
           y="0"
           id="tspan326">γ</tspan></text>
      <path
         d="M 211.969,96.348 245.48,82.945"
         style="fill:none;stroke:#000000;stroke-width:0.4608;stroke-linecap:square;stroke-linejoin:miter;stroke-miterlimit:3.25;stroke-dasharray:none;stroke-opacity:1"
         id="path330" />
      <path
         d="m 226.391,90.578 5.289,-0.308 -1.242,-3.114 z"
         style="fill:#000000;fill-opacity:1;fill-rule:evenodd;stroke:none"
         id="path332" />
      <text
         xml:space="preserve"
         transform="translate(228.08115,103.59479)"
         style="font-variant:normal;font-size:10.56px;font-family:CairoFont-1;-inkscape-font-specification:CairoFont-1-0;writing-mode:lr-tb;fill:#000000;fill-opacity:1;fill-rule:nonzero;stroke:none"
         id="text336"><tspan
           x="0"
           y="0"
           id="tspan334">e</tspan></text>
      <path
         d="M 211.969,96.348 245.48,92.996"
         style="fill:none;stroke:#000000;stroke-width:0.4608;stroke-linecap:square;stroke-linejoin:miter;stroke-miterlimit:3.25;stroke-dasharray:none;stroke-opacity:1"
         id="path338" />
      <path
         d="m 231.227,94.422 -4.836,2.168 -0.332,-3.332 z"
         style="fill:#000000;fill-opacity:1;fill-rule:evenodd;stroke:none"
         id="path340" />
      <text
         xml:space="preserve"
         transform="translate(226.31576,109.05388)"
         style="font-variant:normal;font-size:10.56px;font-family:CairoFont-1;-inkscape-font-specification:CairoFont-1-0;writing-mode:lr-tb;fill:#000000;fill-opacity:1;fill-rule:nonzero;stroke:none"
         id="text344"><tspan
           x="0"
           y="0"
           id="tspan342">e</tspan></text>
      <path
         d="m 245.48,82.945 v 26.809"
         style="fill:none;stroke:#000000;stroke-width:0.4608;stroke-linecap:square;stroke-linejoin:miter;stroke-miterlimit:3.25;stroke-dasharray:none;stroke-opacity:1"
         id="path346" />
      <path
         d="m 245.48,93.836 -1.675,5.027 h 3.351 z"
         style="fill:#000000;fill-opacity:1;fill-rule:evenodd;stroke:none"
         id="path348" />
      <text
         xml:space="preserve"
         transform="translate(235.41182,100.34128)"
         style="font-variant:normal;font-size:10.56px;font-family:CairoFont-1;-inkscape-font-specification:CairoFont-1-0;writing-mode:lr-tb;fill:#000000;fill-opacity:1;fill-rule:nonzero;stroke:none"
         id="text352"><tspan
           x="0"
           y="0"
           id="tspan350">e</tspan></text>
      <path
         d="m 245.48,92.996 v 6.703"
         style="fill:none;stroke:#000000;stroke-width:0.4608;stroke-linecap:square;stroke-linejoin:miter;stroke-miterlimit:3.25;stroke-dasharray:none;stroke-opacity:1"
         id="path354" />
      <path
         d="m 245.48,98.863 -1.675,-5.027 h 3.351 z"
         style="fill:#000000;fill-opacity:1;fill-rule:evenodd;stroke:none"
         id="path356" />
      <text
         xml:space="preserve"
         transform="translate(235.41182,100.34128)"
         style="font-variant:normal;font-size:10.56px;font-family:CairoFont-1;-inkscape-font-specification:CairoFont-1-0;writing-mode:lr-tb;fill:#000000;fill-opacity:1;fill-rule:nonzero;stroke:none"
         id="text360"><tspan
           x="0"
           y="0"
           id="tspan358">e</tspan></text>
      <path
         d="m 245.48,99.699 v 10.055"
         style="fill:none;stroke:#000000;stroke-width:0.4608;stroke-linecap:square;stroke-linejoin:miter;stroke-miterlimit:3.25;stroke-dasharray:none;stroke-opacity:1"
         id="path362" />
      <path
         d="m 245.48,107.242 -1.675,-5.027 h 3.351 z"
         style="fill:#000000;fill-opacity:1;fill-rule:evenodd;stroke:none"
         id="path364" />
      <text
         xml:space="preserve"
         transform="translate(235.41182,108.71946)"
         style="font-variant:normal;font-size:10.56px;font-family:CairoFont-1;-inkscape-font-specification:CairoFont-1-0;writing-mode:lr-tb;fill:#000000;fill-opacity:1;fill-rule:nonzero;stroke:none"
         id="text368"><tspan
           x="0"
           y="0"
           id="tspan366">e</tspan></text>
      <path
         d="m 213.812,96.348 c 0,0.492 -0.195,0.961 -0.542,1.304 -0.344,0.348 -0.813,0.539 -1.301,0.539 -0.489,0 -0.957,-0.191 -1.305,-0.539 -0.344,-0.343 -0.539,-0.812 -0.539,-1.304 0,-0.489 0.195,-0.957 0.539,-1.301 0.348,-0.348 0.816,-0.539 1.305,-0.539 0.488,0 0.957,0.191 1.301,0.539 0.347,0.344 0.542,0.812 0.542,1.301 z"
         style="fill:#000000;fill-opacity:1;fill-rule:evenodd;stroke:none"
         id="path370" />
      <path
         d="m 247.324,82.945 c 0,0.489 -0.195,0.957 -0.539,1.301 -0.347,0.348 -0.816,0.543 -1.305,0.543 -0.488,0 -0.957,-0.195 -1.304,-0.543 -0.344,-0.344 -0.539,-0.812 -0.539,-1.301 0,-0.488 0.195,-0.961 0.539,-1.304 0.347,-0.344 0.816,-0.539 1.304,-0.539 0.489,0 0.958,0.195 1.305,0.539 0.344,0.343 0.539,0.816 0.539,1.304 z"
         style="fill:#000000;fill-opacity:1;fill-rule:evenodd;stroke:none"
         id="path372" />
      <path
         d="m 247.324,92.996 c 0,0.492 -0.195,0.961 -0.539,1.305 -0.347,0.347 -0.816,0.539 -1.305,0.539 -0.488,0 -0.957,-0.192 -1.304,-0.539 -0.344,-0.344 -0.539,-0.813 -0.539,-1.305 0,-0.488 0.195,-0.957 0.539,-1.301 0.347,-0.347 0.816,-0.539 1.304,-0.539 0.489,0 0.958,0.192 1.305,0.539 0.344,0.344 0.539,0.813 0.539,1.301 z"
         style="fill:#000000;fill-opacity:1;fill-rule:evenodd;stroke:none"
         id="path374" />
      <path
         d="m 247.324,99.699 c 0,0.489 -0.195,0.957 -0.539,1.305 -0.347,0.344 -0.816,0.539 -1.305,0.539 -0.488,0 -0.957,-0.195 -1.304,-0.539 -0.344,-0.348 -0.539,-0.816 -0.539,-1.305 0,-0.488 0.195,-0.957 0.539,-1.301 0.347,-0.347 0.816,-0.543 1.304,-0.543 0.489,0 0.958,0.196 1.305,0.543 0.344,0.344 0.539,0.813 0.539,1.301 z"
         style="fill:#000000;fill-opacity:1;fill-rule:evenodd;stroke:none"
         id="path376" />
      <path
         d="m 247.324,109.754 c 0,0.488 -0.195,0.957 -0.539,1.305 -0.347,0.343 -0.816,0.539 -1.305,0.539 -0.488,0 -0.957,-0.196 -1.304,-0.539 -0.344,-0.348 -0.539,-0.817 -0.539,-1.305 0,-0.488 0.195,-0.957 0.539,-1.305 0.347,-0.344 0.816,-0.539 1.304,-0.539 0.489,0 0.958,0.195 1.305,0.539 0.344,0.348 0.539,0.817 0.539,1.305 z"
         style="fill:#000000;fill-opacity:1;fill-rule:evenodd;stroke:none"
         id="path378" />
    </g>
    <g
       id="g380">
      <g
         id="g382"
         clip-path="url(#clipPath386)">
        <text
           xml:space="preserve"
           transform="translate(223.99216,138.53767)"
           style="font-variant:normal;font-size:8.4px;font-family:CairoFont-2;-inkscape-font-specification:CairoFont-2-0;writing-mode:lr-tb;fill:#000000;fill-opacity:1;fill-rule:nonzero;stroke:none"
           id="text390"><tspan
             x="0"
             y="0"
             id="tspan388">3</tspan></text>
      </g>
    </g>
    <g
       id="g392">
      <path
         d="m 304.129,96.348 -0.418,-0.34 -0.422,-0.305 -0.418,-0.234 -0.418,-0.137 -0.418,-0.023 -0.422,0.089 -0.418,0.192 -0.418,0.281 -0.418,0.328 -0.421,0.348 -0.418,0.328 -0.418,0.266 -0.418,0.179 -0.422,0.075 -0.418,-0.04 -0.418,-0.152 -0.418,-0.246 -0.422,-0.312 -0.418,-0.344 -0.418,-0.34 -0.418,-0.297 -0.422,-0.223 -0.418,-0.121 -0.418,-0.008 -0.418,0.106 -0.418,0.211 -0.422,0.285 -0.418,0.336 -0.418,0.348 -0.418,0.32 -0.421,0.254 -0.418,0.168 -0.418,0.058 -0.418,-0.058 -0.422,-0.168 -0.418,-0.254 -0.418,-0.32 -0.418,-0.348 -0.422,-0.336 -0.418,-0.285 -0.418,-0.211 -0.418,-0.106 -0.422,0.008 -0.418,0.121 -0.418,0.223 -0.418,0.297 -0.421,0.34 -0.418,0.344 -0.418,0.312 -0.418,0.246 -0.422,0.152 -0.418,0.04 -0.418,-0.075 -0.418,-0.179 -0.418,-0.266 -0.422,-0.328 -0.418,-0.348 -0.418,-0.328 -0.418,-0.281 -0.422,-0.192 -0.418,-0.089 -0.418,0.023 -0.418,0.137 -0.422,0.234 -0.418,0.305 -0.418,0.34"
         style="fill:none;stroke:#000000;stroke-width:0.4608;stroke-linecap:square;stroke-linejoin:miter;stroke-miterlimit:3.25;stroke-dasharray:none;stroke-opacity:1"
         id="path394" />
      <text
         xml:space="preserve"
         transform="translate(287.51494,110.76175)"
         style="font-variant:normal;font-size:10.08px;font-family:CairoFont-0;-inkscape-font-specification:CairoFont-0-1;writing-mode:lr-tb;fill:#000000;fill-opacity:1;fill-rule:nonzero;stroke:none"
         id="text398"><tspan
           x="0"
           y="0"
           id="tspan396">γ</tspan></text>
      <path
         d="m 337.641,82.945 0.582,0.02 0.539,-0.027 0.465,-0.11 0.367,-0.219 0.261,-0.339 0.165,-0.45 0.085,-0.531 0.047,-0.578 0.051,-0.582 0.086,-0.531 0.164,-0.45 0.262,-0.339 0.367,-0.219 0.465,-0.11 0.539,-0.027 0.582,0.024 0.578,0.019 0.543,-0.027 0.465,-0.11 0.367,-0.218 0.258,-0.34 0.164,-0.449 0.09,-0.532 0.047,-0.578 0.047,-0.582 0.089,-0.531 0.164,-0.449 0.262,-0.34 0.367,-0.219 0.465,-0.109 0.539,-0.028 0.582,0.024 0.578,0.019 0.539,-0.027 0.465,-0.109 0.368,-0.219 0.261,-0.34 0.164,-0.449 0.09,-0.531 0.047,-0.579 0.047,-0.582 0.09,-0.531 0.164,-0.449 0.262,-0.34 0.367,-0.219 0.465,-0.109 0.539,-0.023 0.578,0.019 0.582,0.02 0.539,-0.028 0.465,-0.109 0.367,-0.219 0.262,-0.34 0.164,-0.445 0.09,-0.535 0.093,-1.156 0.09,-0.536 0.164,-0.449 0.262,-0.34 0.367,-0.218 0.465,-0.11 0.539,-0.023 0.578,0.019 0.582,0.02 0.539,-0.024 0.465,-0.109 0.367,-0.223 0.262,-0.336 0.164,-0.449 0.09,-0.535 0.047,-0.578"
         style="fill:none;stroke:#000000;stroke-width:0.4608;stroke-linecap:square;stroke-linejoin:miter;stroke-miterlimit:3.25;stroke-dasharray:none;stroke-opacity:1"
         id="path400" />
      <text
         xml:space="preserve"
         transform="translate(341.59293,68.101997)"
         style="font-variant:normal;font-size:10.08px;font-family:CairoFont-0;-inkscape-font-specification:CairoFont-0-1;writing-mode:lr-tb;fill:#000000;fill-opacity:1;fill-rule:nonzero;stroke:none"
         id="text404"><tspan
           x="0"
           y="0"
           id="tspan402">γ</tspan></text>
      <path
         d="m 337.641,92.996 0.5,0.309 0.484,0.242 0.461,0.129 0.426,-0.024 0.39,-0.183 0.36,-0.328 0.336,-0.438 0.32,-0.496 0.324,-0.484 0.34,-0.411 0.367,-0.292 0.403,-0.137 0.433,0.023 0.469,0.164 0.492,0.27 0.5,0.312 0.5,0.293 0.477,0.215 0.453,0.09 0.414,-0.07 0.383,-0.227 0.351,-0.367 0.328,-0.461 0.321,-0.496 0.328,-0.469 0.347,-0.383 0.375,-0.25 0.411,-0.089 0.445,0.066 0.476,0.199 0.497,0.285 0.5,0.317 0.496,0.277 0.472,0.184 0.442,0.043 0.406,-0.114 0.371,-0.269 0.344,-0.399 0.324,-0.476 0.32,-0.496 0.332,-0.453 0.356,-0.348 0.387,-0.207 0.421,-0.043 0.454,0.109 0.484,0.231 0.496,0.301 0.504,0.308 0.488,0.258 0.461,0.148 h 0.434 l 0.394,-0.16 0.364,-0.312 0.336,-0.426 0.324,-0.488"
         style="fill:none;stroke:#000000;stroke-width:0.4608;stroke-linecap:square;stroke-linejoin:miter;stroke-miterlimit:3.25;stroke-dasharray:none;stroke-opacity:1"
         id="path406" />
      <text
         xml:space="preserve"
         transform="translate(344.75366,84.210704)"
         style="font-variant:normal;font-size:10.08px;font-family:CairoFont-0;-inkscape-font-specification:CairoFont-0-1;writing-mode:lr-tb;fill:#000000;fill-opacity:1;fill-rule:nonzero;stroke:none"
         id="text410"><tspan
           x="0"
           y="0"
           id="tspan408">γ</tspan></text>
      <path
         d="m 337.641,99.699 0.324,0.492 0.336,0.426 0.363,0.309 0.395,0.16 h 0.433 l 0.461,-0.145 0.492,-0.257 0.5,-0.313 0.496,-0.301 0.485,-0.23 0.457,-0.106 0.418,0.043 0.387,0.207 0.355,0.348 0.332,0.449 0.32,0.496 0.325,0.481 0.343,0.398 0.371,0.27 0.407,0.113 0.441,-0.043 0.473,-0.184 0.496,-0.277 0.5,-0.316 0.496,-0.285 0.476,-0.204 0.446,-0.066 0.41,0.094 0.379,0.25 0.344,0.383 0.328,0.468 0.32,0.496 0.328,0.461 0.352,0.368 0.382,0.226 0.415,0.07 0.453,-0.089 0.48,-0.215 0.496,-0.297 0.5,-0.313 0.492,-0.265 0.469,-0.168 0.438,-0.02 0.398,0.137 0.367,0.289 0.34,0.414 0.324,0.485 0.321,0.492 0.336,0.441 0.359,0.328 0.391,0.184 0.425,0.023 0.461,-0.129 0.485,-0.242 0.5,-0.308"
         style="fill:none;stroke:#000000;stroke-width:0.4608;stroke-linecap:square;stroke-linejoin:miter;stroke-miterlimit:3.25;stroke-dasharray:none;stroke-opacity:1"
         id="path412" />
      <text
         xml:space="preserve"
         transform="translate(347.57076,95.940159)"
         style="font-variant:normal;font-size:10.08px;font-family:CairoFont-0;-inkscape-font-specification:CairoFont-0-1;writing-mode:lr-tb;fill:#000000;fill-opacity:1;fill-rule:nonzero;stroke:none"
         id="text416"><tspan
           x="0"
           y="0"
           id="tspan414">γ</tspan></text>
      <path
         d="m 337.641,109.754 0.047,0.578 0.089,0.535 0.164,0.449 0.262,0.336 0.367,0.223 0.465,0.109 0.539,0.024 0.582,-0.02 0.578,-0.019 0.539,0.023 0.465,0.11 0.367,0.218 0.262,0.34 0.164,0.449 0.09,0.536 0.094,1.156 0.09,0.531 0.164,0.449 0.261,0.34 0.368,0.219 0.464,0.109 0.54,0.028 0.582,-0.02 0.578,-0.023 0.539,0.027 0.465,0.109 0.367,0.219 0.262,0.34 0.164,0.449 0.089,0.531 0.047,0.582 0.047,0.579 0.09,0.531 0.164,0.449 0.262,0.34 0.367,0.219 0.465,0.109 0.539,0.027 0.578,-0.019 0.582,-0.024 0.539,0.028 0.465,0.109 0.367,0.219 0.262,0.34 0.164,0.449 0.09,0.531 0.047,0.582 0.047,0.578 0.089,0.532 0.164,0.449 0.258,0.34 0.367,0.218 0.465,0.11 0.543,0.027 0.578,-0.019 0.582,-0.024 0.539,0.027 0.465,0.11 0.368,0.219 0.261,0.339 0.164,0.45 0.086,0.531 0.051,0.582 0.047,0.578 0.09,0.531 0.16,0.45 0.262,0.339 0.367,0.219 0.465,0.109 0.539,0.028 0.582,-0.02"
         style="fill:none;stroke:#000000;stroke-width:0.4608;stroke-linecap:square;stroke-linejoin:miter;stroke-miterlimit:3.25;stroke-dasharray:none;stroke-opacity:1"
         id="path418" />
      <text
         xml:space="preserve"
         transform="translate(350.73148,115.01982)"
         style="font-variant:normal;font-size:10.08px;font-family:CairoFont-0;-inkscape-font-specification:CairoFont-0-1;writing-mode:lr-tb;fill:#000000;fill-opacity:1;fill-rule:nonzero;stroke:none"
         id="text422"><tspan
           x="0"
           y="0"
           id="tspan420">γ</tspan></text>
      <path
         d="M 304.129,96.348 337.641,82.945"
         style="fill:none;stroke:#000000;stroke-width:0.4608;stroke-linecap:square;stroke-linejoin:miter;stroke-miterlimit:3.25;stroke-dasharray:none;stroke-opacity:1"
         id="path424" />
      <path
         d="m 323.219,88.715 -4.047,3.422 -1.242,-3.114 z"
         style="fill:#000000;fill-opacity:1;fill-rule:evenodd;stroke:none"
         id="path426" />
      <text
         xml:space="preserve"
         transform="translate(320.24115,103.59479)"
         style="font-variant:normal;font-size:10.56px;font-family:CairoFont-1;-inkscape-font-specification:CairoFont-1-0;writing-mode:lr-tb;fill:#000000;fill-opacity:1;fill-rule:nonzero;stroke:none"
         id="text430"><tspan
           x="0"
           y="0"
           id="tspan428">e</tspan></text>
      <path
         d="m 304.129,96.348 33.512,-3.352"
         style="fill:none;stroke:#000000;stroke-width:0.4608;stroke-linecap:square;stroke-linejoin:miter;stroke-miterlimit:3.25;stroke-dasharray:none;stroke-opacity:1"
         id="path432" />
      <path
         d="m 318.383,94.922 5.168,1.168 -0.332,-3.332 z"
         style="fill:#000000;fill-opacity:1;fill-rule:evenodd;stroke:none"
         id="path434" />
      <text
         xml:space="preserve"
         transform="translate(318.47576,109.05388)"
         style="font-variant:normal;font-size:10.56px;font-family:CairoFont-1;-inkscape-font-specification:CairoFont-1-0;writing-mode:lr-tb;fill:#000000;fill-opacity:1;fill-rule:nonzero;stroke:none"
         id="text438"><tspan
           x="0"
           y="0"
           id="tspan436">e</tspan></text>
      <path
         d="m 337.641,82.945 v 26.809"
         style="fill:none;stroke:#000000;stroke-width:0.4608;stroke-linecap:square;stroke-linejoin:miter;stroke-miterlimit:3.25;stroke-dasharray:none;stroke-opacity:1"
         id="path440" />
      <path
         d="m 337.641,98.863 -1.676,-5.027 h 3.351 z"
         style="fill:#000000;fill-opacity:1;fill-rule:evenodd;stroke:none"
         id="path442" />
      <text
         xml:space="preserve"
         transform="translate(327.57182,100.34128)"
         style="font-variant:normal;font-size:10.56px;font-family:CairoFont-1;-inkscape-font-specification:CairoFont-1-0;writing-mode:lr-tb;fill:#000000;fill-opacity:1;fill-rule:nonzero;stroke:none"
         id="text446"><tspan
           x="0"
           y="0"
           id="tspan444">e</tspan></text>
      <path
         d="m 337.641,92.996 v 6.703"
         style="fill:none;stroke:#000000;stroke-width:0.4608;stroke-linecap:square;stroke-linejoin:miter;stroke-miterlimit:3.25;stroke-dasharray:none;stroke-opacity:1"
         id="path448" />
      <path
         d="m 337.641,93.836 -1.676,5.027 h 3.351 z"
         style="fill:#000000;fill-opacity:1;fill-rule:evenodd;stroke:none"
         id="path450" />
      <text
         xml:space="preserve"
         transform="translate(327.57182,100.34128)"
         style="font-variant:normal;font-size:10.56px;font-family:CairoFont-1;-inkscape-font-specification:CairoFont-1-0;writing-mode:lr-tb;fill:#000000;fill-opacity:1;fill-rule:nonzero;stroke:none"
         id="text454"><tspan
           x="0"
           y="0"
           id="tspan452">e</tspan></text>
      <path
         d="m 337.641,99.699 v 10.055"
         style="fill:none;stroke:#000000;stroke-width:0.4608;stroke-linecap:square;stroke-linejoin:miter;stroke-miterlimit:3.25;stroke-dasharray:none;stroke-opacity:1"
         id="path456" />
      <path
         d="m 337.641,102.215 -1.676,5.027 h 3.351 z"
         style="fill:#000000;fill-opacity:1;fill-rule:evenodd;stroke:none"
         id="path458" />
      <text
         xml:space="preserve"
         transform="translate(327.57182,108.71946)"
         style="font-variant:normal;font-size:10.56px;font-family:CairoFont-1;-inkscape-font-specification:CairoFont-1-0;writing-mode:lr-tb;fill:#000000;fill-opacity:1;fill-rule:nonzero;stroke:none"
         id="text462"><tspan
           x="0"
           y="0"
           id="tspan460">e</tspan></text>
      <path
         d="m 305.973,96.348 c 0,0.492 -0.196,0.961 -0.543,1.304 -0.344,0.348 -0.813,0.539 -1.301,0.539 -0.488,0 -0.957,-0.191 -1.305,-0.539 -0.344,-0.343 -0.539,-0.812 -0.539,-1.304 0,-0.489 0.195,-0.957 0.539,-1.301 0.348,-0.348 0.817,-0.539 1.305,-0.539 0.488,0 0.957,0.191 1.301,0.539 0.347,0.344 0.543,0.812 0.543,1.301 z"
         style="fill:#000000;fill-opacity:1;fill-rule:evenodd;stroke:none"
         id="path464" />
      <path
         d="m 339.484,82.945 c 0,0.489 -0.195,0.957 -0.539,1.301 -0.347,0.348 -0.816,0.543 -1.304,0.543 -0.489,0 -0.957,-0.195 -1.305,-0.543 -0.344,-0.344 -0.539,-0.812 -0.539,-1.301 0,-0.488 0.195,-0.961 0.539,-1.304 0.348,-0.344 0.816,-0.539 1.305,-0.539 0.488,0 0.957,0.195 1.304,0.539 0.344,0.343 0.539,0.816 0.539,1.304 z"
         style="fill:#000000;fill-opacity:1;fill-rule:evenodd;stroke:none"
         id="path466" />
      <path
         d="m 339.484,92.996 c 0,0.492 -0.195,0.961 -0.539,1.305 -0.347,0.347 -0.816,0.539 -1.304,0.539 -0.489,0 -0.957,-0.192 -1.305,-0.539 -0.344,-0.344 -0.539,-0.813 -0.539,-1.305 0,-0.488 0.195,-0.957 0.539,-1.301 0.348,-0.347 0.816,-0.539 1.305,-0.539 0.488,0 0.957,0.192 1.304,0.539 0.344,0.344 0.539,0.813 0.539,1.301 z"
         style="fill:#000000;fill-opacity:1;fill-rule:evenodd;stroke:none"
         id="path468" />
      <path
         d="m 339.484,99.699 c 0,0.489 -0.195,0.957 -0.539,1.305 -0.347,0.344 -0.816,0.539 -1.304,0.539 -0.489,0 -0.957,-0.195 -1.305,-0.539 -0.344,-0.348 -0.539,-0.816 -0.539,-1.305 0,-0.488 0.195,-0.957 0.539,-1.301 0.348,-0.347 0.816,-0.543 1.305,-0.543 0.488,0 0.957,0.196 1.304,0.543 0.344,0.344 0.539,0.813 0.539,1.301 z"
         style="fill:#000000;fill-opacity:1;fill-rule:evenodd;stroke:none"
         id="path470" />
      <path
         d="m 339.484,109.754 c 0,0.488 -0.195,0.957 -0.539,1.305 -0.347,0.343 -0.816,0.539 -1.304,0.539 -0.489,0 -0.957,-0.196 -1.305,-0.539 -0.344,-0.348 -0.539,-0.817 -0.539,-1.305 0,-0.488 0.195,-0.957 0.539,-1.305 0.348,-0.344 0.816,-0.539 1.305,-0.539 0.488,0 0.957,0.195 1.304,0.539 0.344,0.348 0.539,0.817 0.539,1.305 z"
         style="fill:#000000;fill-opacity:1;fill-rule:evenodd;stroke:none"
         id="path472" />
    </g>
    <g
       id="g474">
      <g
         id="g476"
         clip-path="url(#clipPath480)">
        <text
           xml:space="preserve"
           transform="translate(316.15216,138.53767)"
           style="font-variant:normal;font-size:8.4px;font-family:CairoFont-2;-inkscape-font-specification:CairoFont-2-0;writing-mode:lr-tb;fill:#000000;fill-opacity:1;fill-rule:nonzero;stroke:none"
           id="text484"><tspan
             x="0"
             y="0"
             id="tspan482">4</tspan></text>
      </g>
    </g>
  </g>
</svg>
