<?xml version="1.0" encoding="UTF-8" standalone="no"?>
<!-- Created with Inkscape (http://www.inkscape.org/) -->

<svg
   version="1.1"
   id="svg1"
   width="984"
   height="461.33334"
   viewBox="0 0 984 461.33334"
   sodipodi:docname="0nd5pq1n0sl3s.pdf"
   xmlns:inkscape="http://www.inkscape.org/namespaces/inkscape"
   xmlns:sodipodi="http://sodipodi.sourceforge.net/DTD/sodipodi-0.dtd"
   xmlns="http://www.w3.org/2000/svg"
   xmlns:svg="http://www.w3.org/2000/svg">
  <defs
     id="defs1">
    <clipPath
       clipPathUnits="userSpaceOnUse"
       id="clipPath2">
      <path
         d="M 138.238,36 H 171 v 28 h -32.762 z"
         id="path2" />
    </clipPath>
    <clipPath
       clipPathUnits="userSpaceOnUse"
       id="clipPath4">
      <path
         d="M 138.238,36 H 171 v 28 h -32.762 z"
         id="path4" />
    </clipPath>
    <clipPath
       clipPathUnits="userSpaceOnUse"
       id="clipPath7">
      <path
         d="M 138.238,62 H 171 v 28 h -32.762 z"
         id="path7" />
    </clipPath>
    <clipPath
       clipPathUnits="userSpaceOnUse"
       id="clipPath9">
      <path
         d="M 138.238,62 H 171 v 28 h -32.762 z"
         id="path9" />
    </clipPath>
    <clipPath
       clipPathUnits="userSpaceOnUse"
       id="clipPath26">
      <path
         d="m 274,47 h 9.68 V 57 H 274 Z"
         transform="translate(-274.90601,-56.541235)"
         id="path26" />
    </clipPath>
    <clipPath
       clipPathUnits="userSpaceOnUse"
       id="clipPath30">
      <path
         d="m 276,94 h 9.359 v 10 H 276 Z"
         transform="translate(-276.52123,-103.66851)"
         id="path30" />
    </clipPath>
    <clipPath
       clipPathUnits="userSpaceOnUse"
       id="clipPath34">
      <path
         d="m 327,21 h 9 v 11 h -9 z"
         transform="translate(-327.26965,-31.441722)"
         id="path34" />
    </clipPath>
    <clipPath
       clipPathUnits="userSpaceOnUse"
       id="clipPath38">
      <path
         d="m 328,69 h 9.68 V 79 H 328 Z"
         transform="translate(-328.88487,-78.568997)"
         id="path38" />
    </clipPath>
    <clipPath
       clipPathUnits="userSpaceOnUse"
       id="clipPath41">
      <path
         d="m 294,56 h 7.922 V 68 H 294 Z"
         transform="translate(-294.16673,-67.555115)"
         id="path41" />
    </clipPath>
    <clipPath
       clipPathUnits="userSpaceOnUse"
       id="clipPath67">
      <path
         d="m 489,55 h 9.48 V 66 H 489 Z"
         transform="translate(-489.70368,-65.173042)"
         id="path67" />
    </clipPath>
    <clipPath
       clipPathUnits="userSpaceOnUse"
       id="clipPath71">
      <path
         d="m 501,81 h 9.238 V 92 H 501 Z"
         transform="translate(-501.57812,-91.354862)"
         id="path71" />
    </clipPath>
    <clipPath
       clipPathUnits="userSpaceOnUse"
       id="clipPath75">
      <path
         d="m 563,34 h 8.68 V 44 H 563 Z"
         transform="translate(-563.01277,-43.75537)"
         id="path75" />
    </clipPath>
    <clipPath
       clipPathUnits="userSpaceOnUse"
       id="clipPath79">
      <path
         d="m 574,60 h 9.68 V 70 H 574 Z"
         transform="translate(-574.88721,-69.937189)"
         id="path79" />
    </clipPath>
    <clipPath
       clipPathUnits="userSpaceOnUse"
       id="clipPath82">
      <path
         d="m 533,69 h 7.719 V 81 H 533 Z"
         transform="translate(-532.8599,-80.145152)"
         id="path82" />
    </clipPath>
    <clipPath
       clipPathUnits="userSpaceOnUse"
       id="clipPath88">
      <path
         d="M 138.238,151 H 171 v 28 h -32.762 z"
         id="path88" />
    </clipPath>
    <clipPath
       clipPathUnits="userSpaceOnUse"
       id="clipPath90">
      <path
         d="M 138.238,151 H 171 v 28 h -32.762 z"
         id="path90" />
    </clipPath>
    <clipPath
       clipPathUnits="userSpaceOnUse"
       id="clipPath93">
      <path
         d="M 138.238,177 H 171 v 28 h -32.762 z"
         id="path93" />
    </clipPath>
    <clipPath
       clipPathUnits="userSpaceOnUse"
       id="clipPath95">
      <path
         d="M 138.238,177 H 171 v 28 h -32.762 z"
         id="path95" />
    </clipPath>
    <clipPath
       clipPathUnits="userSpaceOnUse"
       id="clipPath105">
      <path
         d="m 178,189 h 6.559 v 9 H 178 Z"
         transform="translate(-176.78716,-195.34515)"
         id="path105" />
    </clipPath>
    <clipPath
       clipPathUnits="userSpaceOnUse"
       id="clipPath108">
      <path
         d="m 199,163 h 6.441 v 10 H 199 Z"
         transform="translate(-197.73262,-170.16508)"
         id="path108" />
    </clipPath>
    <clipPath
       clipPathUnits="userSpaceOnUse"
       id="clipPath114">
      <path
         d="m 188,223 h 6.641 v 8 H 188 Z"
         transform="translate(-187.54896,-230.54944)"
         id="path114" />
    </clipPath>
    <clipPath
       clipPathUnits="userSpaceOnUse"
       id="clipPath118">
      <path
         d="m 274,162 h 9.68 v 10 H 274 Z"
         transform="translate(-274.90601,-171.74124)"
         id="path118" />
    </clipPath>
    <clipPath
       clipPathUnits="userSpaceOnUse"
       id="clipPath122">
      <path
         d="m 276,209 h 9.359 v 10 H 276 Z"
         transform="translate(-276.52123,-218.86851)"
         id="path122" />
    </clipPath>
    <clipPath
       clipPathUnits="userSpaceOnUse"
       id="clipPath126">
      <path
         d="m 327,137 h 9 v 10 h -9 z"
         transform="translate(-327.26965,-146.64172)"
         id="path126" />
    </clipPath>
    <clipPath
       clipPathUnits="userSpaceOnUse"
       id="clipPath130">
      <path
         d="m 328,184 h 9.68 v 10 H 328 Z"
         transform="translate(-328.88487,-193.769)"
         id="path130" />
    </clipPath>
    <clipPath
       clipPathUnits="userSpaceOnUse"
       id="clipPath133">
      <path
         d="m 310,161 h 8.48 v 12 H 310 Z"
         transform="translate(-310.75306,-172.28239)"
         id="path133" />
    </clipPath>
    <clipPath
       clipPathUnits="userSpaceOnUse"
       id="clipPath136">
      <path
         d="m 294,182 h 7.922 v 12 H 294 Z"
         transform="translate(-294.16673,-193.22784)"
         id="path136" />
    </clipPath>
  </defs>
  <sodipodi:namedview
     id="namedview1"
     pagecolor="#ffffff"
     bordercolor="#999999"
     borderopacity="1"
     inkscape:showpageshadow="0"
     inkscape:pageopacity="0"
     inkscape:pagecheckerboard="0"
     inkscape:deskcolor="#d1d1d1">
    <inkscape:page
       x="0"
       y="0"
       id="page1"
       width="984"
       height="461.33334"
       margin="0"
       bleed="0" />
  </sodipodi:namedview>
  <g
     id="g1"
     inkscape:groupmode="layer"
     inkscape:label="">
    <path
       id="path1"
       d="m 138.238,36.656 31.418,26.18"
       style="fill:none;stroke:#000000;stroke-width:0.576;stroke-linecap:square;stroke-linejoin:miter;stroke-miterlimit:3.25;stroke-dasharray:none;stroke-opacity:1"
       transform="scale(1.3333333)"
       clip-path="url(#clipPath2)" />
    <path
       id="path3"
       d="m 156.363,51.758 -6.168,-2.414 2.68,-3.219 z"
       style="fill:#000000;fill-opacity:1;fill-rule:evenodd;stroke:none"
       transform="scale(1.3333333)"
       clip-path="url(#clipPath4)" />
    <path
       id="path5"
       d="m 7.4168398,-5.7999931 c 0.1640625,0.3398437 0.234375,0.75 0.2109375,1.2070312 0,0.3164063 -0.070312,0.8203125 -0.2109375,1.5234375 H 2.3426211 c -0.1289063,0.6914063 -0.070312,1.265625 0.1523437,1.6875 0.2109375,0.42187503 0.6445313,0.63281253 1.3007813,0.63281253 0.5976562,0 1.125,-0.19921875 1.5703125,-0.60937503 0.2578125,-0.2226562 0.46875,-0.4921875 0.609375,-0.8085937 h 1.1484375 c -0.09375,0.2695312 -0.2460938,0.5507812 -0.4921875,0.8671875 -0.234375,0.2929687 -0.46875,0.56249998 -0.7265625,0.74999998 -0.421875,0.3515625 -0.9023438,0.57421875 -1.4648438,0.69140625 -0.28125,0.0703125 -0.609375,0.10546875 -0.9609375,0.10546875 -0.8554687,0 -1.5234375,-0.31640625 -1.9921875,-0.9375 C 1.0301211,-1.2999931 0.92465231,-2.1906181 1.1590273,-3.3156181 c 0.234375,-1.1015625 0.7265625,-2.0039063 1.4765625,-2.6953125 0.7382813,-0.6914063 1.59375,-1.03125 2.578125,-1.03125 0.4804688,0 0.9375,0.1171875 1.359375,0.3398437 0.4101563,0.2226563 0.6796875,0.5273438 0.84375,0.9023438 z m -1.0078125,1.8046875 c 0.058594,-0.5039063 0.046875,-0.9023438 -0.082031,-1.2070313 -0.1875,-0.5507812 -0.65625,-0.84375 -1.3945313,-0.84375 -0.5390625,0 -1.03125,0.1992188 -1.4648437,0.5859375 -0.4453125,0.375 -0.7382813,0.8671875 -0.890625,1.4648438 z m 0,0"
       style="fill:#000000;fill-opacity:1;fill-rule:nonzero;stroke:none"
       aria-label="e"
       transform="matrix(1.3333333,0,0,1.3333333,192.13822,86.897387)" />
    <path
       id="path6"
       d="M 138.238,89.02 169.656,62.836"
       style="fill:none;stroke:#000000;stroke-width:0.576;stroke-linecap:square;stroke-linejoin:miter;stroke-miterlimit:3.25;stroke-dasharray:none;stroke-opacity:1"
       transform="scale(1.3333333)"
       clip-path="url(#clipPath7)" />
    <path
       id="path8"
       d="m 151.535,77.938 6.168,-2.415 -2.68,-3.214 z"
       style="fill:#000000;fill-opacity:1;fill-rule:evenodd;stroke:none"
       transform="scale(1.3333333)"
       clip-path="url(#clipPath9)" />
    <path
       id="path10"
       d="m 7.4193529,-5.8021236 c 0.1640625,0.3398437 0.234375,0.75 0.2109375,1.2070312 0,0.3164063 -0.070312,0.8203125 -0.2109375,1.5234375 H 2.3451342 c -0.1289063,0.6914063 -0.070312,1.265625 0.1523437,1.6875 0.2109375,0.42187503 0.6445313,0.63281253 1.3007813,0.63281253 0.5976562,0 1.125,-0.19921875 1.5703125,-0.60937503 0.2578125,-0.2226562 0.46875,-0.4921875 0.609375,-0.8085937 h 1.1484375 c -0.09375,0.2695312 -0.2460938,0.5507812 -0.4921875,0.8671875 -0.234375,0.2929687 -0.46875,0.56249998 -0.7265625,0.74999998 -0.421875,0.3515625 -0.9023438,0.57421875 -1.4648438,0.69140625 -0.28125,0.0703125 -0.609375,0.10546875 -0.9609375,0.10546875 -0.8554687,0 -1.5234375,-0.31640625 -1.9921875,-0.9375 C 1.0326342,-1.3021236 0.92716544,-2.1927486 1.1615404,-3.3177486 c 0.234375,-1.1015625 0.7265625,-2.0039063 1.4765625,-2.6953125 0.7382813,-0.6914063 1.59375,-1.03125 2.578125,-1.03125 0.4804688,0 0.9375,0.1171875 1.359375,0.3398437 0.4101563,0.2226563 0.6796875,0.5273438 0.84375,0.9023438 z m -1.0078125,1.8046875 c 0.058594,-0.5039063 0.046875,-0.9023438 -0.082031,-1.2070313 -0.1875,-0.5507812 -0.65625,-0.84375 -1.3945313,-0.84375 -0.5390625,0 -1.03125,0.1992188 -1.4648437,0.5859375 -0.4453125,0.375 -0.7382813,0.8671875 -0.890625,1.4648438 z m 0,0"
       style="fill:#000000;fill-opacity:1;fill-rule:nonzero;stroke:none"
       aria-label="e"
       transform="matrix(1.3333333,0,0,1.3333333,207.97081,121.80648)" />
    <path
       id="path11"
       d="m 242.969,36.656 -31.418,26.18"
       style="fill:none;stroke:#000000;stroke-width:0.576;stroke-linecap:square;stroke-linejoin:miter;stroke-miterlimit:3.25;stroke-dasharray:none;stroke-opacity:1"
       transform="scale(1.3333333)" />
    <path
       id="path12"
       d="m 229.672,47.734 -6.168,2.414 2.68,3.219 z"
       style="fill:#000000;fill-opacity:1;fill-rule:evenodd;stroke:none"
       transform="scale(1.3333333)" />
    <path
       id="path13"
       d="m 7.4173191,-5.8012674 c 0.1640625,0.3398437 0.234375,0.75 0.2109375,1.2070312 0,0.3164063 -0.070312,0.8203125 -0.2109375,1.5234375 H 2.3431004 c -0.1289063,0.6914063 -0.070312,1.265625 0.1523437,1.6875 0.2109375,0.42187501 0.6445313,0.63281251 1.3007813,0.63281251 0.5976562,0 1.125,-0.19921875 1.5703125,-0.60937501 0.2578125,-0.2226562 0.46875,-0.4921875 0.609375,-0.8085937 h 1.1484375 c -0.09375,0.2695312 -0.2460938,0.5507812 -0.4921875,0.8671875 -0.234375,0.2929687 -0.46875,0.56249996 -0.7265625,0.74999996 -0.421875,0.3515625 -0.9023438,0.57421875 -1.4648438,0.69140625 -0.28125,0.0703125 -0.609375,0.10546875 -0.9609375,0.10546875 -0.8554687,0 -1.5234375,-0.31640625 -1.9921875,-0.9375 C 1.0306004,-1.3012674 0.92513163,-2.1918924 1.1595066,-3.3168924 c 0.234375,-1.1015625 0.7265625,-2.0039063 1.4765625,-2.6953125 0.7382813,-0.6914063 1.59375,-1.03125 2.578125,-1.03125 0.4804688,0 0.9375,0.1171875 1.359375,0.3398437 0.4101563,0.2226563 0.6796875,0.5273438 0.84375,0.9023438 z m -1.0078125,1.8046875 c 0.058594,-0.5039063 0.046875,-0.9023438 -0.082031,-1.2070313 -0.1875,-0.5507812 -0.65625,-0.84375 -1.3945313,-0.84375 -0.5390625,0 -1.03125,0.1992188 -1.4648437,0.5859375 -0.4453125,0.375 -0.7382813,0.8671875 -0.890625,1.4648438 z m 0,0"
       style="fill:#000000;fill-opacity:1;fill-rule:nonzero;stroke:none"
       aria-label="e"
       transform="matrix(1.3333333,0,0,1.3333333,289.88368,58.340492)" />
    <path
       id="path14"
       d="M 242.969,89.02 211.551,62.836"
       style="fill:none;stroke:#000000;stroke-width:0.576;stroke-linecap:square;stroke-linejoin:miter;stroke-miterlimit:3.25;stroke-dasharray:none;stroke-opacity:1"
       transform="scale(1.3333333)" />
    <path
       id="path15"
       d="m 224.844,73.914 6.168,2.414 -2.68,3.219 z"
       style="fill:#000000;fill-opacity:1;fill-rule:evenodd;stroke:none"
       transform="scale(1.3333333)" />
    <path
       id="path16"
       d="m 7.4169036,-5.8004682 c 0.1640625,0.3398437 0.234375,0.75 0.2109375,1.2070312 0,0.3164063 -0.070312,0.8203125 -0.2109375,1.5234375 H 2.3426848 c -0.1289062,0.6914063 -0.070312,1.265625 0.1523438,1.6875 0.2109375,0.421875 0.6445312,0.6328125 1.3007812,0.6328125 0.5976563,0 1.125,-0.19921875 1.5703125,-0.609375 0.2578125,-0.2226562 0.46875,-0.4921875 0.609375,-0.8085937 h 1.1484375 c -0.09375,0.2695312 -0.2460937,0.5507812 -0.4921875,0.8671875 -0.234375,0.2929687 -0.46875,0.56249995 -0.7265625,0.74999995 -0.421875,0.3515625 -0.9023437,0.57421875 -1.4648437,0.69140625 -0.28125,0.0703125 -0.609375,0.10546875 -0.9609375,0.10546875 -0.8554688,0 -1.5234375,-0.31640625 -1.9921875,-0.9375 C 1.0301848,-1.3004682 0.92471606,-2.1910932 1.1590911,-3.3160932 c 0.234375,-1.1015625 0.7265625,-2.0039063 1.4765625,-2.6953125 0.7382812,-0.6914063 1.59375,-1.03125 2.578125,-1.03125 0.4804687,0 0.9375,0.1171875 1.359375,0.3398437 0.4101562,0.2226563 0.6796875,0.5273438 0.84375,0.9023438 z m -1.0078125,1.8046875 c 0.058594,-0.5039063 0.046875,-0.9023438 -0.082031,-1.2070313 -0.1875,-0.5507812 -0.65625,-0.84375 -1.3945312,-0.84375 -0.5390625,0 -1.03125,0.1992188 -1.4648438,0.5859375 -0.4453125,0.375 -0.7382812,0.8671875 -0.890625,1.4648438 z m 0,0"
       style="fill:#000000;fill-opacity:1;fill-rule:nonzero;stroke:none"
       aria-label="e"
       transform="matrix(1.3333333,0,0,1.3333333,305.71626,93.249583)" />
    <path
       id="path17"
       d="m 211.551,62.836 -0.528,-0.453 -0.523,-0.395 -0.523,-0.293 -0.524,-0.152 -0.523,0.012 -0.524,0.168 -0.523,0.304 -0.524,0.407 -1.047,0.906 -0.523,0.387 -0.523,0.277 -0.524,0.133 -0.523,-0.028 -0.524,-0.183 -0.523,-0.321 -0.524,-0.414 -0.523,-0.457 -0.523,-0.445 -0.524,-0.375 -0.527,-0.266 -0.524,-0.117 -0.523,0.047 -0.524,0.199 -0.523,0.332 -0.523,0.422 -0.524,0.461 -0.523,0.442 -0.524,0.367 -0.523,0.246 -0.524,0.098 -0.523,-0.063 -0.523,-0.215 -0.524,-0.344 -0.523,-0.429 -0.524,-0.461 -0.523,-0.434 -0.524,-0.355 -0.523,-0.235 -0.524,-0.078 -0.527,0.078 -0.523,0.235 -0.524,0.355 -0.523,0.434 -0.524,0.461 -0.523,0.429 -0.523,0.344 -0.524,0.215 -0.523,0.063 -0.524,-0.098 -0.523,-0.246 -0.524,-0.367 -0.523,-0.442 -0.524,-0.461 -0.523,-0.422 -0.523,-0.332 -0.524,-0.199 -0.523,-0.047 -0.524,0.117 -0.523,0.266 -0.528,0.375 -0.523,0.445 -0.523,0.457 -0.524,0.414 -0.523,0.321 -0.524,0.183 -0.523,0.028 -0.524,-0.133 -0.523,-0.277 -0.523,-0.387 -1.047,-0.906 -0.524,-0.407 -0.523,-0.304 -0.524,-0.168 -0.523,-0.012 -0.524,0.152 -0.523,0.293 -0.523,0.395 -0.528,0.453"
       style="fill:none;stroke:#000000;stroke-width:0.576;stroke-linecap:square;stroke-linejoin:miter;stroke-miterlimit:3.25;stroke-dasharray:none;stroke-opacity:1"
       transform="scale(1.3333333)" />
    <path
       id="path18"
       d="M 7.3123796,-6.3404625 3.5858171,-6.1875e-4 v 0.1171875 c 0,0.0820313 0.011719,0.15234375 0.011719,0.22265625 0,0.0703125 0,0.15234375 0,0.22265625 0,0.10546875 0,0.234375 -0.011719,0.36328125 C 3.5740984,1.0775062 3.5506609,1.2181312 3.5272234,1.3821937 3.5037859,1.5345375 3.4569109,1.6751625 3.4217546,1.839225 3.3748796,1.97985 3.3162859,2.120475 3.2459734,2.2259437 3.1639421,2.3431312 3.0819109,2.4486 2.9764421,2.5189125 c -0.1054687,0.070312 -0.2226562,0.1054687 -0.375,0.1054687 -0.1054687,0 -0.1992187,-0.023437 -0.2929687,-0.070312 C 2.2264421,2.5071937 2.1561296,2.4603187 2.0975359,2.3900062 2.0272234,2.307975 1.9803484,2.2259437 1.9569109,2.1321937 1.9217546,2.026725 1.9100359,1.9212562 1.9100359,1.8275062 c 0,-0.1992187 0.023437,-0.375 0.046875,-0.5273437 C 1.9920671,1.1361 2.0272234,0.995475 2.0975359,0.84313125 2.1444109,0.714225 2.2030046,0.56188125 2.2733171,0.4095375 2.3436296,0.28063125 2.4256609,0.11656875 2.5076921,-0.04749375 L 1.4998796,-6.3404625 h 1.125 l 0.7148438,5.0039062 2.8828125,-5.0039062 z m 0,0"
       style="fill:#000000;fill-opacity:1;fill-rule:nonzero;stroke:none"
       aria-label="γ"
       transform="matrix(1.3333333,0,0,1.3333333,249.67985,106.8602)" />
    <path
       id="path19"
       d="m 171.961,62.836 c 0,0.613 -0.242,1.199 -0.672,1.629 -0.434,0.433 -1.019,0.676 -1.633,0.676 -0.609,0 -1.195,-0.243 -1.629,-0.676 -0.429,-0.43 -0.672,-1.016 -0.672,-1.629 0,-0.609 0.243,-1.195 0.672,-1.629 0.434,-0.434 1.02,-0.676 1.629,-0.676 0.614,0 1.199,0.242 1.633,0.676 0.43,0.434 0.672,1.02 0.672,1.629 z"
       style="fill:#000000;fill-opacity:1;fill-rule:evenodd;stroke:none"
       transform="scale(1.3333333)" />
    <path
       id="path20"
       d="m 208.93,65.453 5.238,-5.234"
       style="fill:none;stroke:#000000;stroke-width:1.728;stroke-linecap:square;stroke-linejoin:miter;stroke-miterlimit:3.25;stroke-dasharray:none;stroke-opacity:1"
       transform="scale(1.3333333)" />
    <path
       id="path21"
       d="m 208.93,60.219 5.238,5.234"
       style="fill:none;stroke:#000000;stroke-width:1.728;stroke-linecap:square;stroke-linejoin:miter;stroke-miterlimit:3.25;stroke-dasharray:none;stroke-opacity:1"
       transform="scale(1.3333333)" />
    <path
       id="path22"
       d="m 2.1102307,-5.2254086 0.1523437,-0.703125 c 0.6796875,-0.070312 1.1835938,-0.1875 1.4765625,-0.328125 0.2929688,-0.1523437 0.5742188,-0.515625 0.8203125,-1.0898437 H 5.2860119 L 3.7391369,0.00115394 H 2.7430432 L 3.8563244,-5.2254086 Z m 0,0"
       style="fill:#000000;fill-opacity:1;fill-rule:nonzero;stroke:none"
       aria-label="1"
       transform="matrix(1.3333333,0,0,1.3333333,250.06527,153.79924)" />
    <path
       id="path23"
       d="m 253.441,36.656 52.364,5.235"
       style="fill:none;stroke:#000000;stroke-width:0.576;stroke-linecap:square;stroke-linejoin:miter;stroke-miterlimit:3.25;stroke-dasharray:none;stroke-opacity:1"
       transform="scale(1.3333333)" />
    <path
       id="path24"
       d="m 282.746,39.586 -6.457,1.457 0.414,-4.168 z"
       style="fill:#000000;fill-opacity:1;fill-rule:evenodd;stroke:none"
       transform="scale(1.3333333)" />
    <path
       id="path25"
       d="M 8.8137196,-0.00119394 H 7.4191883 L 6.3059071,-2.8605689 h -3.9375 L 1.3254383,-0.00119394 H 0.00121956 L 3.6223133,-9.4347877 H 4.9582508 Z M 5.9309071,-3.8566627 c -0.1523438,-0.375 -0.3046875,-0.7617187 -0.4570313,-1.1484375 -0.140625,-0.3632812 -0.28125,-0.75 -0.4335937,-1.1367187 -0.140625,-0.375 -0.28125,-0.7617188 -0.4101563,-1.1484375 -0.1289062,-0.375 -0.234375,-0.7734375 -0.3398437,-1.171875 h -0.035156 c -0.082031,0.4101562 -0.1757812,0.796875 -0.2929687,1.1953125 -0.1171875,0.375 -0.234375,0.7617187 -0.3867188,1.1484375 -0.1289062,0.375 -0.2695312,0.75 -0.421875,1.125 -0.1523437,0.375 -0.3046875,0.7617187 -0.4335937,1.1367187 z m 0,0"
       style="fill:#000000;fill-opacity:1;fill-rule:nonzero;stroke:none"
       aria-label="Α"
       transform="matrix(1.3333333,0,0,1.3333333,366.54134,75.388311)"
       clip-path="url(#clipPath26)" />
    <path
       id="path27"
       d="m 253.441,89.02 52.364,-5.239"
       style="fill:none;stroke:#000000;stroke-width:0.576;stroke-linecap:square;stroke-linejoin:miter;stroke-miterlimit:3.25;stroke-dasharray:none;stroke-opacity:1"
       transform="scale(1.3333333)" />
    <path
       id="path28"
       d="m 276.496,86.711 6.461,1.461 -0.418,-4.168 z"
       style="fill:#000000;fill-opacity:1;fill-rule:evenodd;stroke:none"
       transform="scale(1.3333333)" />
    <path
       id="path29"
       d="M 8.8127614,0.00141588 H 7.4182301 L 6.3049489,-2.8579591 h -3.9375 L 1.3244801,0.00141588 H 2.61375e-4 L 3.6213551,-9.4321779 H 4.9572926 Z M 5.9299489,-3.8540529 c -0.1523438,-0.375 -0.3046875,-0.7617187 -0.4570313,-1.1484375 -0.140625,-0.3632812 -0.28125,-0.75 -0.4335937,-1.1367187 -0.140625,-0.375 -0.28125,-0.7617188 -0.4101563,-1.1484375 -0.1289062,-0.375 -0.234375,-0.7734375 -0.3398437,-1.171875 h -0.035156 c -0.082031,0.4101562 -0.1757812,0.796875 -0.2929687,1.1953125 -0.1171875,0.375 -0.234375,0.7617187 -0.3867188,1.1484375 -0.1289062,0.375 -0.2695312,0.75 -0.421875,1.125 -0.1523437,0.375 -0.3046875,0.7617187 -0.4335937,1.1367187 z m 0,0"
       style="fill:#000000;fill-opacity:1;fill-rule:nonzero;stroke:none"
       aria-label="Α"
       transform="matrix(1.3333333,0,0,1.3333333,368.69496,138.22467)"
       clip-path="url(#clipPath30)" />
    <path
       id="path31"
       d="m 358.168,36.656 -52.363,5.235"
       style="fill:none;stroke:#000000;stroke-width:0.576;stroke-linecap:square;stroke-linejoin:miter;stroke-miterlimit:3.25;stroke-dasharray:none;stroke-opacity:1"
       transform="scale(1.3333333)" />
    <path
       id="path32"
       d="m 335.113,38.961 -6.461,-1.461 0.414,4.168 z"
       style="fill:#000000;fill-opacity:1;fill-rule:evenodd;stroke:none"
       transform="scale(1.3333333)" />
    <path
       id="path33"
       d="M 8.8123882,-3.1475e-4 H 7.417857 L 6.3045757,-2.8596897 h -3.9375 L 1.324107,-3.1475e-4 H -1.1175e-4 L 3.620982,-9.4339085 H 4.9569195 Z M 5.9295757,-3.8557835 c -0.1523437,-0.375 -0.3046875,-0.7617187 -0.4570312,-1.1484375 -0.140625,-0.3632812 -0.28125,-0.75 -0.4335938,-1.1367187 -0.140625,-0.375 -0.28125,-0.7617188 -0.4101562,-1.1484375 -0.1289063,-0.375 -0.234375,-0.7734375 -0.3398438,-1.171875 h -0.035156 c -0.082031,0.4101562 -0.1757813,0.796875 -0.2929688,1.1953125 -0.1171875,0.375 -0.234375,0.7617187 -0.3867187,1.1484375 -0.1289063,0.375 -0.2695313,0.75 -0.421875,1.125 -0.1523438,0.375 -0.3046875,0.7617187 -0.4335938,1.1367187 z m 0,0"
       style="fill:#000000;fill-opacity:1;fill-rule:nonzero;stroke:none"
       aria-label="Α"
       transform="matrix(1.3333333,0,0,1.3333333,436.35952,41.922295)"
       clip-path="url(#clipPath34)" />
    <path
       id="path35"
       d="M 358.168,89.02 305.805,83.781"
       style="fill:none;stroke:#000000;stroke-width:0.576;stroke-linecap:square;stroke-linejoin:miter;stroke-miterlimit:3.25;stroke-dasharray:none;stroke-opacity:1"
       transform="scale(1.3333333)" />
    <path
       id="path36"
       d="m 328.859,86.086 6.461,-1.457 -0.418,4.168 z"
       style="fill:#000000;fill-opacity:1;fill-rule:evenodd;stroke:none"
       transform="scale(1.3333333)" />
    <path
       id="path37"
       d="M 8.8114291,-6.34625e-4 H 7.4168978 L 6.3036166,-2.8600096 h -3.9375 L 1.3231478,-6.34625e-4 H -0.00107094 L 3.6200228,-9.4342284 H 4.9559603 Z M 5.9286166,-3.8561034 c -0.1523438,-0.375 -0.3046875,-0.7617187 -0.4570313,-1.1484375 -0.140625,-0.3632812 -0.28125,-0.75 -0.4335937,-1.1367187 -0.140625,-0.375 -0.28125,-0.7617188 -0.4101563,-1.1484375 -0.1289062,-0.375 -0.234375,-0.7734375 -0.3398437,-1.171875 h -0.035156 c -0.082031,0.4101562 -0.1757812,0.796875 -0.2929687,1.1953125 -0.1171875,0.375 -0.234375,0.7617187 -0.3867188,1.1484375 -0.1289062,0.375 -0.2695312,0.75 -0.421875,1.125 -0.1523437,0.375 -0.3046875,0.7617187 -0.4335937,1.1367187 z m 0,0"
       style="fill:#000000;fill-opacity:1;fill-rule:nonzero;stroke:none"
       aria-label="Α"
       transform="matrix(1.3333333,0,0,1.3333333,438.51315,104.75866)"
       clip-path="url(#clipPath38)" />
    <path
       id="path39"
       d="m 305.805,83.781 0.453,-0.523 0.394,-0.524 0.293,-0.523 0.153,-0.523 -0.012,-0.524 -0.168,-0.523 -0.305,-0.524 -0.406,-0.523 -0.457,-0.524 -0.449,-0.523 -0.387,-0.524 -0.277,-0.523 -0.133,-0.523 0.027,-0.528 0.184,-0.523 0.316,-0.524 0.414,-0.523 0.461,-0.524 0.446,-0.523 0.375,-0.523 0.265,-0.524 0.113,-0.523 -0.043,-0.524 -0.203,-0.523 -0.332,-0.524 -0.422,-0.523 -0.457,-0.523 -0.441,-0.524 -0.367,-0.523 -0.246,-0.524 -0.102,-0.523 0.063,-0.524 0.218,-0.527 0.344,-0.523 0.43,-0.524 0.461,-0.523 0.433,-0.524 0.356,-0.523 0.234,-0.524 0.078,-0.523 -0.078,-0.524 -0.234,-0.523 -0.356,-0.523 -0.433,-0.524 -0.461,-0.523 -0.43,-0.524 -0.344,-0.523 -0.218,-0.524 -0.063,-0.523 0.102,-0.523 0.246,-0.524 0.367,-0.527 0.441,-0.524 0.457,-0.523 0.422,-0.524 0.332,-0.523 0.203,-0.523 0.043,-0.524 -0.113,-0.523 -0.265,-0.524 -0.375,-0.523 -0.446,-0.524 -0.461,-0.523 -0.414,-0.523 -0.316,-0.524 -0.184,-0.523 -0.027,-0.524 0.133,-0.523 0.277,-0.524 0.387,-0.523 0.449,-0.524 0.457,-0.527 0.406,-0.523 0.305,-0.524 0.168,-0.523 0.012,-0.524 -0.153,-0.523 -0.293,-0.523 -0.394,-0.524 -0.453,-0.523"
       style="fill:none;stroke:#000000;stroke-width:0.576;stroke-linecap:square;stroke-linejoin:miter;stroke-miterlimit:3.25;stroke-dasharray:none;stroke-opacity:1"
       transform="scale(1.3333333)" />
    <path
       id="path40"
       d="m 6.1877672,-3.5853874 -0.515625,-3.8789063 -2.2382813,3.8789063 z m -0.84375,-5.1914063 H 6.6799547 L 8.0041734,5.500625e-4 H 6.7033922 L 6.3752672,-2.6127312 H 2.8947984 l -1.5,2.6132812625 H 0.17604844 Z M 6.9612047,-10.851012 H 8.0744859 L 7.8049547,-9.6088249 H 6.6916734 Z m -1.96875,0 H 6.1057359 L 5.8362047,-9.6088249 H 4.7229234 Z m 0,0"
       style="fill:#000000;fill-opacity:1;fill-rule:nonzero;stroke:none"
       aria-label="Ä"
       transform="matrix(1.3333333,0,0,1.3333333,392.2223,90.073485)"
       clip-path="url(#clipPath41)" />
    <path
       id="path42"
       d="m 308.109,41.891 c 0,0.613 -0.246,1.199 -0.675,1.629 -0.434,0.433 -1.02,0.675 -1.629,0.675 -0.614,0 -1.2,-0.242 -1.629,-0.675 -0.434,-0.43 -0.676,-1.016 -0.676,-1.629 0,-0.61 0.242,-1.196 0.676,-1.629 0.429,-0.434 1.015,-0.676 1.629,-0.676 0.609,0 1.195,0.242 1.629,0.676 0.429,0.433 0.675,1.019 0.675,1.629 z"
       style="fill:#000000;fill-opacity:1;fill-rule:evenodd;stroke:none"
       transform="scale(1.3333333)" />
    <path
       id="path43"
       d="m 303.184,86.398 5.238,-5.234"
       style="fill:none;stroke:#000000;stroke-width:1.728;stroke-linecap:square;stroke-linejoin:miter;stroke-miterlimit:3.25;stroke-dasharray:none;stroke-opacity:1"
       transform="scale(1.3333333)" />
    <path
       id="path44"
       d="m 303.184,81.164 5.238,5.234"
       style="fill:none;stroke:#000000;stroke-width:1.728;stroke-linecap:square;stroke-linejoin:miter;stroke-miterlimit:3.25;stroke-dasharray:none;stroke-opacity:1"
       transform="scale(1.3333333)" />
    <path
       id="path45"
       d="m 3.2686291,2.2159977 h -0.28125 c -0.1289062,0 -0.2578125,0 -0.375,-0.011719 C 2.4951916,2.1925602 2.3780041,2.1808414 2.2490979,2.1456852 2.0264416,2.0753727 1.8506604,1.9699039 1.7217541,1.8058414 1.6045666,1.6417789 1.5108166,1.4425602 1.4522229,1.2316227 1.4053479,1.0089664 1.3701916,0.76287269 1.3701916,0.50506019 c -0.011719,-0.2578125 -0.011719,-0.52734375 -0.011719,-0.7734375 0,-0.26953125 -0.011719,-0.52734375 -0.023437,-0.76171879 0,-0.2460937 -0.046875,-0.46875 -0.1171875,-0.6445312 -0.070312,-0.1875 -0.1757813,-0.3398438 -0.31640627,-0.4570313 -0.15234375,-0.1171875 -0.3515625,-0.1640625 -0.62109375,-0.1757812 v -0.8320313 c 0.2109375,0 0.375,-0.046875 0.515625,-0.1171875 0.1171875,-0.082031 0.22265622,-0.1875 0.31640622,-0.3046875 0.070312,-0.1171875 0.1289063,-0.2695312 0.1640625,-0.4335937 0.046875,-0.1523438 0.058594,-0.328125 0.070312,-0.4921875 0.011719,-0.1640625 0.023437,-0.3398438 0.011719,-0.5039063 0,-0.1757812 0,-0.328125 0,-0.46875 0,-0.1289062 0,-0.2578125 0,-0.3984375 0,-0.1523437 0.011719,-0.2929687 0.035156,-0.4335937 0.011719,-0.1523438 0.035156,-0.28125 0.070312,-0.421875 0.035156,-0.1523438 0.082031,-0.2695313 0.1523438,-0.3867188 0.058594,-0.1171875 0.140625,-0.2226562 0.2460937,-0.3164062 0.1054688,-0.082031 0.234375,-0.140625 0.3867188,-0.1875 0.1640625,-0.046875 0.328125,-0.070312 0.5039062,-0.070312 0.1757813,0 0.3398438,-0.011719 0.515625,-0.011719 v 0.8085938 c -0.082031,0 -0.1523437,0 -0.234375,0 -0.070312,0 -0.1523437,0 -0.2226562,0.011719 -0.082031,0.011719 -0.1523438,0.035156 -0.2109375,0.058594 -0.082031,0.035156 -0.140625,0.070312 -0.1992188,0.1289062 -0.070312,0.046875 -0.1054687,0.1523438 -0.1289062,0.3046875 -0.023437,0.140625 -0.046875,0.328125 -0.058594,0.5273438 0,0.1992187 -0.011719,0.421875 -0.011719,0.65625 0,0.234375 -0.011719,0.46875 -0.011719,0.703125 -0.023437,0.234375 -0.046875,0.4453125 -0.1054687,0.6445312 -0.035156,0.2109375 -0.1054688,0.375 -0.1875,0.515625 -0.09375,0.140625 -0.1992188,0.2578125 -0.3398438,0.3515625 -0.1289062,0.09375 -0.2695312,0.1757813 -0.421875,0.2578125 0.2109375,0.082031 0.375,0.1875 0.515625,0.3164063 0.1289063,0.1171875 0.234375,0.2695312 0.3164063,0.4335937 0.082031,0.1523438 0.1289062,0.328125 0.1757812,0.5273438 0.035156,0.1757812 0.058594,0.3632812 0.070312,0.56249999 0.011719,0.19921875 0.011719,0.3984375 0.011719,0.5859375 0,0.19921875 -0.011719,0.375 -0.011719,0.5625 0,0.234375 0.011719,0.421875 0.023437,0.57421875 0.023437,0.15234375 0.058594,0.28124996 0.1289063,0.36328126 0.070312,0.082031 0.1640625,0.1289062 0.3164062,0.1640625 0.140625,0.035156 0.328125,0.058594 0.5859375,0.046875 z m 0,0"
       style="fill:#000000;fill-opacity:1;fill-rule:nonzero;stroke:none"
       aria-label="{"
       transform="matrix(1.3333333,0,0,1.3333333,403.66527,153.79924)" />
    <path
       id="path46"
       d="m 368.641,36.656 52.363,5.235"
       style="fill:none;stroke:#000000;stroke-width:0.576;stroke-linecap:square;stroke-linejoin:miter;stroke-miterlimit:3.25;stroke-dasharray:none;stroke-opacity:1"
       transform="scale(1.3333333)" />
    <path
       id="path47"
       d="m 397.949,39.586 -6.461,1.457 0.414,-4.168 z"
       style="fill:#000000;fill-opacity:1;fill-rule:evenodd;stroke:none"
       transform="scale(1.3333333)" />
    <path
       id="path48"
       d="m 7.4174305,-5.8019752 c 0.1640625,0.3398438 0.234375,0.75 0.2109375,1.2070313 0,0.3164062 -0.070312,0.8203125 -0.2109375,1.5234375 H 2.3432118 c -0.1289063,0.6914062 -0.070312,1.265625 0.1523437,1.6875 0.2109375,0.42187496 0.6445313,0.63281246 1.3007813,0.63281246 0.5976562,0 1.125,-0.19921875 1.5703125,-0.60937496 0.2578125,-0.2226563 0.46875,-0.4921875 0.609375,-0.8085938 h 1.1484375 c -0.09375,0.2695313 -0.2460938,0.5507813 -0.4921875,0.8671875 -0.234375,0.2929688 -0.46875,0.56250001 -0.7265625,0.75000001 -0.421875,0.3515625 -0.9023438,0.57421875 -1.4648438,0.69140625 -0.28125,0.0703125 -0.609375,0.10546875 -0.9609375,0.10546875 -0.8554687,0 -1.5234375,-0.31640625 -1.9921875,-0.9375 -0.4570312,-0.60937501 -0.5625,-1.50000001 -0.328125,-2.62500001 0.234375,-1.1015625 0.7265625,-2.0039062 1.4765625,-2.6953125 0.7382813,-0.6914062 1.59375,-1.03125 2.578125,-1.03125 0.4804688,0 0.9375,0.1171875 1.359375,0.3398438 0.4101563,0.2226562 0.6796875,0.5273437 0.84375,0.9023437 z M 6.409618,-3.9972877 c 0.058594,-0.5039062 0.046875,-0.9023437 -0.082031,-1.2070312 -0.1875,-0.5507813 -0.65625,-0.84375 -1.3945313,-0.84375 -0.5390625,0 -1.03125,0.1992187 -1.4648437,0.5859375 -0.4453125,0.375 -0.7382813,0.8671875 -0.890625,1.4648437 z m 0,0"
       style="fill:#000000;fill-opacity:1;fill-rule:nonzero;stroke:none"
       aria-label="e"
       transform="matrix(1.3333333,0,0,1.3333333,520.14134,75.388311)" />
    <path
       id="path49"
       d="m 368.641,89.02 52.363,-5.239"
       style="fill:none;stroke:#000000;stroke-width:0.576;stroke-linecap:square;stroke-linejoin:miter;stroke-miterlimit:3.25;stroke-dasharray:none;stroke-opacity:1"
       transform="scale(1.3333333)" />
    <path
       id="path50"
       d="m 391.695,86.711 6.461,1.461 -0.418,-4.168 z"
       style="fill:#000000;fill-opacity:1;fill-rule:evenodd;stroke:none"
       transform="scale(1.3333333)" />
    <path
       id="path51"
       d="m 7.419402,-5.7993654 c 0.1640625,0.3398438 0.234375,0.75 0.2109375,1.2070313 0,0.3164062 -0.070312,0.8203125 -0.2109375,1.5234375 H 2.3451833 c -0.1289063,0.6914062 -0.070312,1.265625 0.1523437,1.6875 0.2109375,0.42187498 0.6445313,0.63281248 1.3007813,0.63281248 0.5976562,0 1.125,-0.19921875 1.5703125,-0.60937498 0.2578125,-0.2226563 0.46875,-0.4921875 0.609375,-0.8085938 h 1.1484375 c -0.09375,0.2695313 -0.2460938,0.5507813 -0.4921875,0.8671875 -0.234375,0.2929688 -0.46875,0.56250003 -0.7265625,0.75000003 -0.421875,0.3515625 -0.9023438,0.57421875 -1.4648438,0.69140625 -0.28125,0.0703125 -0.609375,0.10546875 -0.9609375,0.10546875 -0.8554687,0 -1.5234375,-0.31640625 -1.9921875,-0.9375 -0.4570312,-0.60937503 -0.5625,-1.50000003 -0.328125,-2.62500003 0.234375,-1.1015625 0.7265625,-2.0039062 1.4765625,-2.6953125 0.7382813,-0.6914062 1.59375,-1.03125 2.578125,-1.03125 0.4804688,0 0.9375,0.1171875 1.359375,0.3398438 0.4101563,0.2226562 0.6796875,0.5273437 0.84375,0.9023437 z m -1.0078125,1.8046875 c 0.058594,-0.5039062 0.046875,-0.9023437 -0.082031,-1.2070312 -0.1875,-0.5507813 -0.65625,-0.84375 -1.3945313,-0.84375 -0.5390625,0 -1.03125,0.1992187 -1.4648437,0.5859375 -0.4453125,0.375 -0.7382813,0.8671875 -0.890625,1.4648437 z m 0,0"
       style="fill:#000000;fill-opacity:1;fill-rule:nonzero;stroke:none"
       aria-label="e"
       transform="matrix(1.3333333,0,0,1.3333333,522.29496,138.22467)" />
    <path
       id="path52"
       d="m 473.367,36.656 -52.363,5.235"
       style="fill:none;stroke:#000000;stroke-width:0.576;stroke-linecap:square;stroke-linejoin:miter;stroke-miterlimit:3.25;stroke-dasharray:none;stroke-opacity:1"
       transform="scale(1.3333333)" />
    <path
       id="path53"
       d="m 450.312,38.961 -6.46,-1.461 0.418,4.168 z"
       style="fill:#000000;fill-opacity:1;fill-rule:evenodd;stroke:none"
       transform="scale(1.3333333)" />
    <path
       id="path54"
       d="m 7.4190289,-5.801096 c 0.1640625,0.3398438 0.234375,0.75 0.2109375,1.2070313 0,0.3164062 -0.070312,0.8203125 -0.2109375,1.5234375 H 2.3448101 c -0.1289062,0.6914062 -0.070312,1.265625 0.1523438,1.6875 0.2109375,0.42187495 0.6445312,0.63281245 1.3007812,0.63281245 0.5976563,0 1.125,-0.19921875 1.5703125,-0.60937495 0.2578125,-0.2226563 0.46875,-0.4921875 0.609375,-0.8085938 h 1.1484375 c -0.09375,0.2695313 -0.2460937,0.5507813 -0.4921875,0.8671875 -0.234375,0.2929688 -0.46875,0.5625 -0.7265625,0.75 -0.421875,0.3515625 -0.9023437,0.57421875 -1.4648437,0.69140625 -0.28125,0.0703125 -0.609375,0.10546875 -0.9609375,0.10546875 -0.8554688,0 -1.5234375,-0.31640625 -1.9921875,-0.9375 -0.4570313,-0.609375 -0.56250003,-1.5 -0.328125,-2.625 0.234375,-1.1015625 0.7265625,-2.0039062 1.4765625,-2.6953125 0.7382812,-0.6914062 1.59375,-1.03125 2.578125,-1.03125 0.4804687,0 0.9375,0.1171875 1.359375,0.3398438 0.4101562,0.2226562 0.6796875,0.5273437 0.84375,0.9023437 z m -1.0078125,1.8046875 c 0.058594,-0.5039062 0.046875,-0.9023437 -0.082031,-1.2070312 -0.1875,-0.5507813 -0.65625,-0.84375 -1.3945312,-0.84375 -0.5390625,0 -1.03125,0.1992187 -1.4648438,0.5859375 -0.4453125,0.375 -0.7382812,0.8671875 -0.890625,1.4648437 z m 0,0"
       style="fill:#000000;fill-opacity:1;fill-rule:nonzero;stroke:none"
       aria-label="e"
       transform="matrix(1.3333333,0,0,1.3333333,589.95952,41.922295)" />
    <path
       id="path55"
       d="M 473.367,89.02 421.004,83.781"
       style="fill:none;stroke:#000000;stroke-width:0.576;stroke-linecap:square;stroke-linejoin:miter;stroke-miterlimit:3.25;stroke-dasharray:none;stroke-opacity:1"
       transform="scale(1.3333333)" />
    <path
       id="path56"
       d="m 444.059,86.086 6.461,-1.457 -0.418,4.168 z"
       style="fill:#000000;fill-opacity:1;fill-rule:evenodd;stroke:none"
       transform="scale(1.3333333)" />
    <path
       id="path57"
       d="m 7.4180697,-5.8014159 c 0.1640625,0.3398438 0.234375,0.75 0.2109375,1.2070313 0,0.3164062 -0.070312,0.8203125 -0.2109375,1.5234375 H 2.3438509 c -0.1289062,0.6914062 -0.070312,1.265625 0.1523438,1.6875 0.2109375,0.42187497 0.6445312,0.63281247 1.3007812,0.63281247 0.5976563,0 1.125,-0.19921875 1.5703125,-0.60937497 0.2578125,-0.2226563 0.46875,-0.4921875 0.609375,-0.8085938 h 1.1484375 c -0.09375,0.2695313 -0.2460937,0.5507813 -0.4921875,0.8671875 -0.234375,0.2929688 -0.46875,0.56250002 -0.7265625,0.75000002 -0.421875,0.3515625 -0.9023437,0.57421875 -1.4648437,0.69140625 -0.28125,0.0703125 -0.609375,0.10546875 -0.9609375,0.10546875 -0.8554688,0 -1.5234375,-0.31640625 -1.9921875,-0.9375 C 1.0313509,-1.3014159 0.92588219,-2.1920409 1.1602572,-3.3170409 c 0.234375,-1.1015625 0.7265625,-2.0039062 1.4765625,-2.6953125 0.7382812,-0.6914062 1.59375,-1.03125 2.578125,-1.03125 0.4804687,0 0.9375,0.1171875 1.359375,0.3398438 0.4101562,0.2226562 0.6796875,0.5273437 0.84375,0.9023437 z m -1.0078125,1.8046875 c 0.058594,-0.5039062 0.046875,-0.9023437 -0.082031,-1.2070312 -0.1875,-0.5507813 -0.65625,-0.84375 -1.3945312,-0.84375 -0.5390625,0 -1.03125,0.1992187 -1.4648438,0.5859375 -0.4453125,0.375 -0.7382812,0.8671875 -0.890625,1.4648437 z m 0,0"
       style="fill:#000000;fill-opacity:1;fill-rule:nonzero;stroke:none"
       aria-label="e"
       transform="matrix(1.3333333,0,0,1.3333333,592.11315,104.75866)" />
    <path
       id="path58"
       d="m 421.004,83.781 0.453,-0.523 0.398,-0.524 0.29,-0.523 0.152,-0.523 -0.012,-0.524 -0.164,-0.523 -0.309,-0.524 -0.406,-0.523 -0.906,-1.047 -0.387,-0.524 -0.277,-0.523 -0.133,-0.523 0.027,-0.528 0.184,-0.523 0.32,-0.524 0.414,-0.523 0.457,-0.524 0.446,-0.523 0.375,-0.523 0.265,-0.524 0.118,-0.523 -0.047,-0.524 -0.2,-0.523 -0.332,-0.524 -0.421,-0.523 -0.461,-0.523 -0.442,-0.524 -0.367,-0.523 -0.246,-0.524 -0.098,-0.523 0.063,-0.524 0.215,-0.527 0.343,-0.523 0.43,-0.524 0.461,-0.523 0.434,-0.524 0.355,-0.523 0.234,-0.524 0.082,-0.523 -0.082,-0.524 -0.234,-0.523 -0.355,-0.523 -0.434,-0.524 -0.461,-0.523 -0.43,-0.524 -0.343,-0.523 -0.215,-0.524 -0.063,-0.523 0.098,-0.523 0.246,-0.524 0.367,-0.527 0.442,-0.524 0.461,-0.523 0.421,-0.524 0.332,-0.523 0.2,-0.523 0.047,-0.524 -0.118,-0.523 -0.265,-0.524 -0.375,-0.523 -0.446,-0.524 -0.457,-0.523 -0.414,-0.523 -0.32,-0.524 -0.184,-0.523 -0.027,-0.524 0.133,-0.523 0.277,-0.524 0.387,-0.523 0.453,-0.524 0.453,-0.527 0.406,-0.523 0.309,-0.524 0.164,-0.523 0.012,-0.524 -0.152,-0.523 -0.29,-0.523 -0.398,-0.524 -0.453,-0.523"
       style="fill:none;stroke:#000000;stroke-width:0.576;stroke-linecap:square;stroke-linejoin:miter;stroke-miterlimit:3.25;stroke-dasharray:none;stroke-opacity:1"
       transform="scale(1.3333333)" />
    <path
       id="path59"
       d="M 7.3139391,-6.3392937 3.5873766,5.500625e-4 V 0.11773756 c 0,0.0820312 0.011719,0.15234375 0.011719,0.22265625 0,0.0703125 0,0.15234375 0,0.22265625 0,0.10546875 0,0.234375 -0.011719,0.36328125 C 3.5756578,1.0786751 3.5522203,1.2193001 3.5287828,1.3833626 3.5053453,1.5357063 3.4584703,1.6763313 3.4233141,1.8403938 3.3764391,1.9810188 3.3178453,2.1216438 3.2475328,2.2271126 3.1655016,2.3443001 3.0834703,2.4497688 2.9780016,2.5200813 c -0.1054688,0.070312 -0.2226563,0.1054688 -0.375,0.1054688 -0.1054688,0 -0.1992188,-0.023437 -0.2929688,-0.070312 C 2.2280016,2.5083626 2.1576891,2.4614876 2.0990953,2.3911751 2.0287828,2.3091438 1.9819078,2.2271126 1.9584703,2.1333626 1.9233141,2.0278938 1.9115953,1.9224251 1.9115953,1.8286751 c 0,-0.1992188 0.023437,-0.375 0.046875,-0.5273438 0.035156,-0.1640625 0.070312,-0.30468749 0.140625,-0.45703124 0.046875,-0.12890625 0.1054688,-0.28125 0.1757813,-0.43359375 0.070312,-0.12890625 0.1523437,-0.29296875 0.234375,-0.45703125 L 1.5014391,-6.3392937 h 1.125 l 0.7148437,5.0039063 2.8828125,-5.0039063 z m 0,0"
       style="fill:#000000;fill-opacity:1;fill-rule:nonzero;stroke:none"
       aria-label="γ"
       transform="matrix(1.3333333,0,0,1.3333333,545.8223,90.073485)" />
    <path
       id="path60"
       d="m 423.309,83.781 c 0,0.614 -0.243,1.199 -0.676,1.629 -0.434,0.434 -1.02,0.676 -1.629,0.676 -0.613,0 -1.199,-0.242 -1.629,-0.676 -0.434,-0.43 -0.676,-1.015 -0.676,-1.629 0,-0.609 0.242,-1.195 0.676,-1.629 0.43,-0.433 1.016,-0.675 1.629,-0.675 0.609,0 1.195,0.242 1.629,0.675 0.433,0.434 0.676,1.02 0.676,1.629 z"
       style="fill:#000000;fill-opacity:1;fill-rule:evenodd;stroke:none"
       transform="scale(1.3333333)" />
    <path
       id="path61"
       d="m 418.387,44.508 5.234,-5.235"
       style="fill:none;stroke:#000000;stroke-width:1.728;stroke-linecap:square;stroke-linejoin:miter;stroke-miterlimit:3.25;stroke-dasharray:none;stroke-opacity:1"
       transform="scale(1.3333333)" />
    <path
       id="path62"
       d="m 418.387,39.273 5.234,5.235"
       style="fill:none;stroke:#000000;stroke-width:1.728;stroke-linecap:square;stroke-linejoin:miter;stroke-miterlimit:3.25;stroke-dasharray:none;stroke-opacity:1"
       transform="scale(1.3333333)" />
    <path
       id="path63"
       d="M 0.72683225,-2.2605648 H 1.6994885 c -0.058594,0.4804687 -0.046875,0.8203125 0.046875,1.03125 0.1523438,0.39843749 0.5507813,0.58593749 1.1835938,0.58593749 0.4804687,0 0.9023437,-0.12890625 1.2539062,-0.38671879 0.3515625,-0.2578125 0.5625,-0.5976562 0.65625,-1.0078125 0.1171875,-0.515625 0.023437,-0.8671875 -0.234375,-1.0664062 -0.28125,-0.2109375 -0.6914062,-0.3046875 -1.2421875,-0.3046875 -0.058594,0 -0.1171875,0 -0.1875,0 -0.058594,0 -0.1289062,0 -0.1875,0.011719 l 0.1640625,-0.8203125 c 0.1054688,0.011719 0.1875,0.011719 0.2460938,0.011719 0.070312,0 0.140625,0.011719 0.2109375,0.011719 0.3515625,0 0.6445312,-0.058594 0.890625,-0.1640625 0.4335937,-0.1875 0.6914062,-0.5390625 0.796875,-1.03125 0.09375,-0.375 0.011719,-0.6445312 -0.2109375,-0.84375 -0.2109375,-0.2109375 -0.4921875,-0.3164062 -0.84375,-0.3164062 -0.6210938,0 -1.0898438,0.2109375 -1.4179688,0.6328125 -0.1757812,0.2109375 -0.3164062,0.5390625 -0.421875,0.9609375 H 1.488551 C 1.6057385,-5.494939 1.816676,-5.9754078 2.1096448,-6.3504078 2.6369885,-7.041814 3.363551,-7.3933765 4.3244885,-7.3933765 c 0.75,0 1.3007813,0.1757812 1.640625,0.515625 0.3515625,0.328125 0.4453125,0.8203125 0.3164063,1.453125 -0.1054688,0.4570312 -0.3046875,0.8203125 -0.5976563,1.1015625 -0.1875,0.1757812 -0.421875,0.3164062 -0.6796875,0.4101562 0.3632813,0.1054688 0.6210938,0.3164063 0.7734375,0.6210938 0.1523438,0.3046875 0.1875,0.6796875 0.09375,1.1015625 -0.1523437,0.7148437 -0.5039062,1.28906249 -1.0664062,1.73437499 -0.5625,0.4453125 -1.2539063,0.66796875 -2.109375,0.66796875 -0.8789063,0 -1.4648438,-0.24609375 -1.7460938,-0.7265625 C 0.65651975,-0.99493981 0.58620725,-1.5691586 0.72683225,-2.2605648 Z m 0,0"
       style="fill:#000000;fill-opacity:1;fill-rule:nonzero;stroke:none"
       aria-label="3"
       transform="matrix(1.3333333,0,0,1.3333333,557.26527,153.79924)" />
    <path
       id="path64"
       d="m 483.84,36.656 31.418,26.18"
       style="fill:none;stroke:#000000;stroke-width:0.576;stroke-linecap:square;stroke-linejoin:miter;stroke-miterlimit:3.25;stroke-dasharray:none;stroke-opacity:1"
       transform="scale(1.3333333)" />
    <path
       id="path65"
       d="m 501.961,51.758 -6.168,-2.414 2.684,-3.219 z"
       style="fill:#000000;fill-opacity:1;fill-rule:evenodd;stroke:none"
       transform="scale(1.3333333)" />
    <path
       id="path66"
       d="M 8.811957,7.88125e-4 H 7.4174258 L 6.3041445,-2.8585869 h -3.9375 L 1.3236758,7.88125e-4 H -5.43e-4 L 3.6205508,-9.4328056 H 4.9564883 Z M 5.9291445,-3.8546806 c -0.1523437,-0.375 -0.3046875,-0.7617188 -0.4570312,-1.1484375 -0.140625,-0.3632813 -0.28125,-0.75 -0.4335938,-1.1367188 -0.140625,-0.375 -0.28125,-0.7617187 -0.4101562,-1.1484375 -0.1289063,-0.375 -0.234375,-0.7734375 -0.3398438,-1.171875 h -0.035156 c -0.082031,0.4101563 -0.1757813,0.796875 -0.2929688,1.1953125 -0.1171875,0.375 -0.234375,0.7617188 -0.3867187,1.1484375 -0.1289063,0.375 -0.2695313,0.75 -0.421875,1.125 -0.1523438,0.375 -0.3046875,0.7617188 -0.4335938,1.1367188 z m 0,0"
       style="fill:#000000;fill-opacity:1;fill-rule:nonzero;stroke:none"
       aria-label="Α"
       transform="matrix(1.3333333,0,0,1.3333333,652.93822,86.897387)"
       clip-path="url(#clipPath67)" />
    <path
       id="path68"
       d="M 483.84,89.02 515.258,62.836"
       style="fill:none;stroke:#000000;stroke-width:0.576;stroke-linecap:square;stroke-linejoin:miter;stroke-miterlimit:3.25;stroke-dasharray:none;stroke-opacity:1"
       transform="scale(1.3333333)" />
    <path
       id="path69"
       d="m 497.137,77.938 6.168,-2.415 -2.684,-3.214 z"
       style="fill:#000000;fill-opacity:1;fill-rule:evenodd;stroke:none"
       transform="scale(1.3333333)" />
    <path
       id="path70"
       d="M 8.8115404,-0.00134237 H 7.4170092 L 6.3037279,-2.8607174 h -3.9375 L 1.3232592,-0.00134237 H -9.595625e-4 L 3.6201342,-9.4349361 H 4.9560717 Z M 5.9287279,-3.8568111 c -0.1523437,-0.375 -0.3046875,-0.7617188 -0.4570312,-1.1484375 -0.140625,-0.3632813 -0.28125,-0.75 -0.4335938,-1.1367188 -0.140625,-0.375 -0.28125,-0.7617187 -0.4101562,-1.1484375 -0.1289063,-0.375 -0.234375,-0.7734375 -0.3398438,-1.171875 h -0.035156 c -0.082031,0.4101563 -0.1757813,0.796875 -0.2929688,1.1953125 -0.1171875,0.375 -0.234375,0.7617188 -0.3867187,1.1484375 -0.1289063,0.375 -0.2695313,0.75 -0.421875,1.125 -0.1523438,0.375 -0.3046875,0.7617188 -0.4335938,1.1367188 z m 0,0"
       style="fill:#000000;fill-opacity:1;fill-rule:nonzero;stroke:none"
       aria-label="Α"
       transform="matrix(1.3333333,0,0,1.3333333,668.77081,121.80648)"
       clip-path="url(#clipPath71)" />
    <path
       id="path72"
       d="m 588.566,36.656 -31.418,26.18"
       style="fill:none;stroke:#000000;stroke-width:0.576;stroke-linecap:square;stroke-linejoin:miter;stroke-miterlimit:3.25;stroke-dasharray:none;stroke-opacity:1"
       transform="scale(1.3333333)" />
    <path
       id="path73"
       d="m 575.273,47.734 -6.168,2.414 2.68,3.219 z"
       style="fill:#000000;fill-opacity:1;fill-rule:evenodd;stroke:none"
       transform="scale(1.3333333)" />
    <path
       id="path74"
       d="M 8.8124363,-4.861875e-4 H 7.4179051 L 6.3046238,-2.8598612 h -3.9375 L 1.3241551,-4.861875e-4 H -6.36875e-5 L 3.6210301,-9.4340799 H 4.9569676 Z M 5.9296238,-3.8559549 c -0.1523437,-0.375 -0.3046875,-0.7617188 -0.4570312,-1.1484375 -0.140625,-0.3632813 -0.28125,-0.75 -0.4335938,-1.1367188 -0.140625,-0.375 -0.28125,-0.7617187 -0.4101562,-1.1484375 -0.1289063,-0.375 -0.234375,-0.7734375 -0.3398438,-1.171875 h -0.035156 c -0.082031,0.4101563 -0.1757813,0.796875 -0.2929688,1.1953125 -0.1171875,0.375 -0.234375,0.7617188 -0.3867187,1.1484375 -0.1289063,0.375 -0.2695313,0.75 -0.421875,1.125 -0.1523438,0.375 -0.3046875,0.7617188 -0.4335938,1.1367188 z m 0,0"
       style="fill:#000000;fill-opacity:1;fill-rule:nonzero;stroke:none"
       aria-label="Α"
       transform="matrix(1.3333333,0,0,1.3333333,750.68368,58.340492)"
       clip-path="url(#clipPath75)" />
    <path
       id="path76"
       d="M 588.566,89.02 557.148,62.836"
       style="fill:none;stroke:#000000;stroke-width:0.576;stroke-linecap:square;stroke-linejoin:miter;stroke-miterlimit:3.25;stroke-dasharray:none;stroke-opacity:1"
       transform="scale(1.3333333)" />
    <path
       id="path77"
       d="m 570.445,73.914 6.168,2.414 -2.683,3.219 z"
       style="fill:#000000;fill-opacity:1;fill-rule:evenodd;stroke:none"
       transform="scale(1.3333333)" />
    <path
       id="path78"
       d="M 8.8120208,3.13e-4 H 7.4174895 L 6.3042083,-2.859062 h -3.9375 L 1.3237395,3.13e-4 H -4.7925e-4 L 3.6206145,-9.4332807 H 4.956552 Z M 5.9292083,-3.8551557 c -0.1523438,-0.375 -0.3046875,-0.7617188 -0.4570313,-1.1484375 -0.140625,-0.3632813 -0.28125,-0.75 -0.4335937,-1.1367188 -0.140625,-0.375 -0.28125,-0.7617187 -0.4101563,-1.1484375 -0.1289062,-0.375 -0.234375,-0.7734375 -0.3398437,-1.171875 H 4.253427 c -0.082031,0.4101563 -0.1757812,0.796875 -0.2929687,1.1953125 -0.1171875,0.375 -0.234375,0.7617188 -0.3867188,1.1484375 -0.1289062,0.375 -0.2695312,0.75 -0.421875,1.125 -0.1523437,0.375 -0.3046875,0.7617188 -0.4335937,1.1367188 z m 0,0"
       style="fill:#000000;fill-opacity:1;fill-rule:nonzero;stroke:none"
       aria-label="Α"
       transform="matrix(1.3333333,0,0,1.3333333,766.51626,93.249583)"
       clip-path="url(#clipPath79)" />
    <path
       id="path80"
       d="m 557.148,62.836 -0.523,-0.453 -0.523,-0.395 -0.524,-0.293 -0.523,-0.152 -0.524,0.012 -0.523,0.168 -0.524,0.304 -0.523,0.407 -1.047,0.906 -0.523,0.387 -0.524,0.277 -0.523,0.133 -0.528,-0.028 -0.523,-0.183 -0.523,-0.321 -0.524,-0.414 -0.523,-0.457 -0.524,-0.445 -0.523,-0.375 -0.524,-0.266 -0.523,-0.117 -0.524,0.047 -0.523,0.199 -0.523,0.332 -0.524,0.422 -0.523,0.461 -0.524,0.442 -0.523,0.367 -0.524,0.246 -0.523,0.098 -0.523,-0.063 -0.528,-0.215 -0.523,-0.344 -0.524,-0.429 -0.523,-0.461 -0.524,-0.434 -0.523,-0.355 -0.523,-0.235 -0.524,-0.078 -0.523,0.078 -0.524,0.235 -0.523,0.355 -0.524,0.434 -0.523,0.461 -0.524,0.429 -0.523,0.344 -0.523,0.215 -0.524,0.063 -0.523,-0.098 -0.524,-0.246 -0.523,-0.367 -0.527,-0.442 -0.524,-0.461 -0.523,-0.422 -0.524,-0.332 -0.523,-0.199 -0.524,-0.047 -0.523,0.117 -0.524,0.266 -0.523,0.375 -0.523,0.445 -0.524,0.457 -0.523,0.414 -0.524,0.321 -0.523,0.183 -0.524,0.028 -0.523,-0.133 -0.523,-0.277 -0.524,-0.387 -1.047,-0.906 -0.527,-0.407 -0.524,-0.304 -0.523,-0.168 -0.523,-0.012 -0.524,0.152 -0.523,0.293 -0.524,0.395 -0.523,0.453"
       style="fill:none;stroke:#000000;stroke-width:0.576;stroke-linecap:square;stroke-linejoin:miter;stroke-miterlimit:3.25;stroke-dasharray:none;stroke-opacity:1"
       transform="scale(1.3333333)" />
    <path
       id="path81"
       d="m 6.1879656,-3.5865563 -0.515625,-3.8789062 -2.2382813,3.8789062 z m -0.84375,-5.1914062 H 6.6801531 L 8.0043718,-6.1875e-4 H 6.7035906 L 6.3754656,-2.6139 H 2.8949968 l -1.5,2.61328125 H 0.17624681 Z M 6.9614031,-10.852181 H 8.0746843 L 7.8051531,-9.6099938 H 6.6918718 Z m -1.96875,0 H 6.1059343 L 5.8364031,-9.6099938 H 4.7231218 Z m 0,0"
       style="fill:#000000;fill-opacity:1;fill-rule:nonzero;stroke:none"
       aria-label="Ä"
       transform="matrix(1.3333333,0,0,1.3333333,710.47985,106.8602)"
       clip-path="url(#clipPath82)" />
    <path
       id="path83"
       d="m 559.453,62.836 c 0,0.613 -0.242,1.199 -0.676,1.629 -0.429,0.433 -1.015,0.676 -1.629,0.676 -0.609,0 -1.195,-0.243 -1.628,-0.676 -0.434,-0.43 -0.676,-1.016 -0.676,-1.629 0,-0.609 0.242,-1.195 0.676,-1.629 0.433,-0.434 1.019,-0.676 1.628,-0.676 0.614,0 1.2,0.242 1.629,0.676 0.434,0.434 0.676,1.02 0.676,1.629 z"
       style="fill:#000000;fill-opacity:1;fill-rule:evenodd;stroke:none"
       transform="scale(1.3333333)" />
    <path
       id="path84"
       d="m 512.641,65.453 5.234,-5.234"
       style="fill:none;stroke:#000000;stroke-width:1.728;stroke-linecap:square;stroke-linejoin:miter;stroke-miterlimit:3.25;stroke-dasharray:none;stroke-opacity:1"
       transform="scale(1.3333333)" />
    <path
       id="path85"
       d="m 512.641,60.219 5.234,5.234"
       style="fill:none;stroke:#000000;stroke-width:1.728;stroke-linecap:square;stroke-linejoin:miter;stroke-miterlimit:3.25;stroke-dasharray:none;stroke-opacity:1"
       transform="scale(1.3333333)" />
    <path
       id="path86"
       d="m 5.6733166,-3.6316586 c -0.011719,0.2460938 -0.046875,0.46875 -0.1054687,0.6796875 -0.070312,0.2226563 -0.1640625,0.4101563 -0.28125,0.5625 -0.1171875,0.1757813 -0.28125,0.3046875 -0.4570313,0.3984375 -0.1875,0.09375 -0.421875,0.140625 -0.6796875,0.140625 -0.1875,0 -0.375,-0.035156 -0.5625,-0.1171875 -0.1757812,-0.070313 -0.3515625,-0.1523437 -0.5273437,-0.2460937 -0.1640625,-0.082031 -0.3398438,-0.1757813 -0.4921875,-0.2460938 -0.1640625,-0.082031 -0.3164063,-0.1171875 -0.46875,-0.1171875 -0.1054688,0 -0.1992188,0.023437 -0.2695313,0.070312 -0.082031,0.035156 -0.1523437,0.09375 -0.1875,0.1523438 -0.046875,0.058594 -0.082031,0.1523437 -0.09375,0.2460937 -0.023437,0.082031 -0.035156,0.1757813 -0.023437,0.2695313 H 0.48191037 c 0,-0.234375 0.046875,-0.4570313 0.10546875,-0.6796875 0.0703125,-0.2109375 0.17578125,-0.4101563 0.3046875,-0.5625 0.11718748,-0.1640625 0.29296878,-0.28125 0.48046878,-0.3867188 0.1992187,-0.09375 0.421875,-0.140625 0.6914062,-0.140625 0.1875,0 0.3632813,0.035156 0.5507813,0.1054688 0.1757812,0.058594 0.3515625,0.140625 0.5273437,0.2226562 0.1757813,0.070312 0.328125,0.140625 0.4921875,0.2226563 0.1640625,0.058594 0.3164063,0.09375 0.46875,0.09375 0.1054688,0 0.1875,-0.011719 0.2578125,-0.058594 0.070312,-0.023437 0.1171875,-0.082031 0.1640625,-0.140625 0.035156,-0.058594 0.070312,-0.1289062 0.09375,-0.2109375 0.023437,-0.082031 0.023437,-0.1640625 0.035156,-0.2578125 z m 0,0"
       style="fill:#000000;fill-opacity:1;fill-rule:nonzero;stroke:none"
       aria-label="~"
       transform="matrix(1.3333333,0,0,1.3333333,710.86527,153.79924)" />
    <path
       id="path87"
       d="m 138.238,151.855 31.418,26.18"
       style="fill:none;stroke:#000000;stroke-width:0.576;stroke-linecap:square;stroke-linejoin:miter;stroke-miterlimit:3.25;stroke-dasharray:none;stroke-opacity:1"
       transform="scale(1.3333333)"
       clip-path="url(#clipPath88)" />
    <path
       id="path89"
       d="m 156.363,166.957 -6.168,-2.414 2.68,-3.219 z"
       style="fill:#000000;fill-opacity:1;fill-rule:evenodd;stroke:none"
       transform="scale(1.3333333)"
       clip-path="url(#clipPath90)" />
    <path
       id="path91"
       d="m 7.4168398,-5.8017509 c 0.1640625,0.3398437 0.234375,0.75 0.2109375,1.2070312 0,0.3164063 -0.070312,0.8203125 -0.2109375,1.5234375 H 2.3426211 c -0.1289063,0.6914063 -0.070312,1.265625 0.1523437,1.6875 0.2109375,0.42187501 0.6445313,0.63281251 1.3007813,0.63281251 0.5976562,0 1.125,-0.19921875 1.5703125,-0.60937501 0.2578125,-0.2226562 0.46875,-0.4921875 0.609375,-0.8085937 h 1.1484375 c -0.09375,0.2695312 -0.2460938,0.5507812 -0.4921875,0.8671875 -0.234375,0.2929687 -0.46875,0.56249996 -0.7265625,0.74999996 -0.421875,0.3515625 -0.9023438,0.57421875 -1.4648438,0.69140625 -0.28125,0.0703125 -0.609375,0.10546875 -0.9609375,0.10546875 -0.8554687,0 -1.5234375,-0.31640625 -1.9921875,-0.9375 C 1.0301211,-1.3017509 0.92465231,-2.1923759 1.1590273,-3.3173759 c 0.234375,-1.1015625 0.7265625,-2.0039063 1.4765625,-2.6953125 0.7382813,-0.6914063 1.59375,-1.03125 2.578125,-1.03125 0.4804688,0 0.9375,0.1171875 1.359375,0.3398437 0.4101563,0.2226563 0.6796875,0.5273438 0.84375,0.9023438 z m -1.0078125,1.8046875 c 0.058594,-0.5039063 0.046875,-0.9023438 -0.082031,-1.2070313 -0.1875,-0.5507812 -0.65625,-0.84375 -1.3945313,-0.84375 -0.5390625,0 -1.03125,0.1992188 -1.4648437,0.5859375 -0.4453125,0.375 -0.7382813,0.8671875 -0.890625,1.4648438 z m 0,0"
       style="fill:#000000;fill-opacity:1;fill-rule:nonzero;stroke:none"
       aria-label="e"
       transform="matrix(1.3333333,0,0,1.3333333,192.13822,240.49739)" />
    <path
       id="path92"
       d="m 138.238,204.219 31.418,-26.184"
       style="fill:none;stroke:#000000;stroke-width:0.576;stroke-linecap:square;stroke-linejoin:miter;stroke-miterlimit:3.25;stroke-dasharray:none;stroke-opacity:1"
       transform="scale(1.3333333)"
       clip-path="url(#clipPath93)" />
    <path
       id="path94"
       d="m 151.535,193.137 6.168,-2.41 -2.68,-3.219 z"
       style="fill:#000000;fill-opacity:1;fill-rule:evenodd;stroke:none"
       transform="scale(1.3333333)"
       clip-path="url(#clipPath95)" />
    <path
       id="path96"
       d="m 7.4193529,-5.8009517 c 0.1640625,0.3398437 0.234375,0.75 0.2109375,1.2070312 0,0.3164063 -0.070312,0.8203125 -0.2109375,1.5234375 H 2.3451342 c -0.1289063,0.6914063 -0.070312,1.265625 0.1523437,1.6875 0.2109375,0.421875 0.6445313,0.6328125 1.3007813,0.6328125 0.5976562,0 1.125,-0.19921875 1.5703125,-0.609375 0.2578125,-0.2226562 0.46875,-0.4921875 0.609375,-0.8085937 h 1.1484375 c -0.09375,0.2695312 -0.2460938,0.5507812 -0.4921875,0.8671875 -0.234375,0.2929687 -0.46875,0.56249995 -0.7265625,0.74999995 -0.421875,0.3515625 -0.9023438,0.57421875 -1.4648438,0.69140625 -0.28125,0.0703125 -0.609375,0.10546875 -0.9609375,0.10546875 -0.8554687,0 -1.5234375,-0.31640625 -1.9921875,-0.9375 C 1.0326342,-1.3009517 0.92716544,-2.1915767 1.1615404,-3.3165767 c 0.234375,-1.1015625 0.7265625,-2.0039063 1.4765625,-2.6953125 0.7382813,-0.6914063 1.59375,-1.03125 2.578125,-1.03125 0.4804688,0 0.9375,0.1171875 1.359375,0.3398437 0.4101563,0.2226563 0.6796875,0.5273438 0.84375,0.9023438 z m -1.0078125,1.8046875 c 0.058594,-0.5039063 0.046875,-0.9023438 -0.082031,-1.2070313 -0.1875,-0.5507812 -0.65625,-0.84375 -1.3945313,-0.84375 -0.5390625,0 -1.03125,0.1992188 -1.4648437,0.5859375 -0.4453125,0.375 -0.7382813,0.8671875 -0.890625,1.4648438 z m 0,0"
       style="fill:#000000;fill-opacity:1;fill-rule:nonzero;stroke:none"
       aria-label="e"
       transform="matrix(1.3333333,0,0,1.3333333,207.97081,275.40648)" />
    <path
       id="path97"
       d="m 242.969,151.855 -31.418,26.18"
       style="fill:none;stroke:#000000;stroke-width:0.576;stroke-linecap:square;stroke-linejoin:miter;stroke-miterlimit:3.25;stroke-dasharray:none;stroke-opacity:1"
       transform="scale(1.3333333)" />
    <path
       id="path98"
       d="m 229.672,162.934 -6.168,2.414 2.68,3.218 z"
       style="fill:#000000;fill-opacity:1;fill-rule:evenodd;stroke:none"
       transform="scale(1.3333333)" />
    <path
       id="path99"
       d="m 7.4173191,-5.8000956 c 0.1640625,0.3398438 0.234375,0.75 0.2109375,1.2070313 0,0.3164062 -0.070312,0.8203125 -0.2109375,1.5234375 H 2.3431004 c -0.1289063,0.6914062 -0.070312,1.265625 0.1523437,1.6875 0.2109375,0.42187499 0.6445313,0.63281249 1.3007813,0.63281249 0.5976562,0 1.125,-0.19921875 1.5703125,-0.60937499 0.2578125,-0.2226563 0.46875,-0.4921875 0.609375,-0.8085938 h 1.1484375 c -0.09375,0.2695313 -0.2460938,0.5507813 -0.4921875,0.8671875 -0.234375,0.2929688 -0.46875,0.56250004 -0.7265625,0.75000004 -0.421875,0.3515625 -0.9023438,0.57421875 -1.4648438,0.69140625 -0.28125,0.0703125 -0.609375,0.10546875 -0.9609375,0.10546875 -0.8554687,0 -1.5234375,-0.31640625 -1.9921875,-0.9375 C 1.0306004,-1.3000956 0.92513163,-2.1907206 1.1595066,-3.3157206 c 0.234375,-1.1015625 0.7265625,-2.0039062 1.4765625,-2.6953125 0.7382813,-0.6914062 1.59375,-1.03125 2.578125,-1.03125 0.4804688,0 0.9375,0.1171875 1.359375,0.3398438 0.4101563,0.2226562 0.6796875,0.5273437 0.84375,0.9023437 z m -1.0078125,1.8046875 c 0.058594,-0.5039062 0.046875,-0.9023437 -0.082031,-1.2070312 -0.1875,-0.5507813 -0.65625,-0.84375 -1.3945313,-0.84375 -0.5390625,0 -1.03125,0.1992187 -1.4648437,0.5859375 -0.4453125,0.375 -0.7382813,0.8671875 -0.890625,1.4648437 z m 0,0"
       style="fill:#000000;fill-opacity:1;fill-rule:nonzero;stroke:none"
       aria-label="e"
       transform="matrix(1.3333333,0,0,1.3333333,289.88368,211.94049)" />
    <path
       id="path100"
       d="M 242.969,204.219 211.551,178.035"
       style="fill:none;stroke:#000000;stroke-width:0.576;stroke-linecap:square;stroke-linejoin:miter;stroke-miterlimit:3.25;stroke-dasharray:none;stroke-opacity:1"
       transform="scale(1.3333333)" />
    <path
       id="path101"
       d="m 224.844,189.117 6.168,2.414 -2.68,3.215 z"
       style="fill:#000000;fill-opacity:1;fill-rule:evenodd;stroke:none"
       transform="scale(1.3333333)" />
    <path
       id="path102"
       d="m 7.4169036,-5.8022261 c 0.1640625,0.3398438 0.234375,0.75 0.2109375,1.2070313 0,0.3164062 -0.070312,0.8203125 -0.2109375,1.5234375 H 2.3426848 c -0.1289062,0.6914062 -0.070312,1.265625 0.1523438,1.6875 0.2109375,0.42187499 0.6445312,0.63281249 1.3007812,0.63281249 0.5976563,0 1.125,-0.19921875 1.5703125,-0.60937499 0.2578125,-0.2226563 0.46875,-0.4921875 0.609375,-0.8085938 h 1.1484375 c -0.09375,0.2695313 -0.2460937,0.5507813 -0.4921875,0.8671875 -0.234375,0.2929688 -0.46875,0.56250004 -0.7265625,0.75000004 -0.421875,0.3515625 -0.9023437,0.57421875 -1.4648437,0.69140625 -0.28125,0.0703125 -0.609375,0.10546875 -0.9609375,0.10546875 -0.8554688,0 -1.5234375,-0.31640625 -1.9921875,-0.9375 C 1.0301848,-1.3022261 0.92471606,-2.1928511 1.1590911,-3.3178511 c 0.234375,-1.1015625 0.7265625,-2.0039062 1.4765625,-2.6953125 0.7382812,-0.6914062 1.59375,-1.03125 2.578125,-1.03125 0.4804687,0 0.9375,0.1171875 1.359375,0.3398438 0.4101562,0.2226562 0.6796875,0.5273437 0.84375,0.9023437 z m -1.0078125,1.8046875 c 0.058594,-0.5039062 0.046875,-0.9023437 -0.082031,-1.2070312 -0.1875,-0.5507813 -0.65625,-0.84375 -1.3945312,-0.84375 -0.5390625,0 -1.03125,0.1992187 -1.4648438,0.5859375 -0.4453125,0.375 -0.7382812,0.8671875 -0.890625,1.4648437 z m 0,0"
       style="fill:#000000;fill-opacity:1;fill-rule:nonzero;stroke:none"
       aria-label="e"
       transform="matrix(1.3333333,0,0,1.3333333,305.71626,246.84958)" />
    <path
       id="path103"
       d="m 169.656,178.035 0.528,0.504 0.523,0.422 0.523,0.285 0.524,0.098 0.523,-0.098 0.524,-0.285 0.523,-0.426 1.047,-1 0.524,-0.426 0.523,-0.281 0.523,-0.101 0.524,0.101 0.523,0.281 0.524,0.426 1.047,1 0.523,0.426 0.523,0.285 0.528,0.098 0.523,-0.098 0.524,-0.285 0.523,-0.426 1.047,-1 0.523,-0.426 0.524,-0.281 0.523,-0.101 0.524,0.101 0.523,0.281 0.524,0.426 1.047,1 0.523,0.426 0.523,0.285 0.524,0.098 0.523,-0.098 0.524,-0.285 0.523,-0.422 0.527,-0.504"
       style="fill:none;stroke:#000000;stroke-width:0.576;stroke-linecap:square;stroke-linejoin:miter;stroke-miterlimit:3.25;stroke-dasharray:none;stroke-opacity:1"
       transform="scale(1.3333333)" />
    <path
       id="path104"
       d="M 7.3114738,-6.3392906 3.5849113,5.53125e-4 V 0.11774063 c 0,0.0820313 0.011719,0.15234375 0.011719,0.22265625 0,0.0703125 0,0.15234375 0,0.22265625 0,0.10546875 0,0.234375 -0.011719,0.36328125 C 3.5731926,1.0786781 3.5497551,1.2193031 3.5263176,1.3833656 3.5028801,1.5357094 3.4560051,1.6763344 3.4208488,1.8403969 3.3739738,1.9810219 3.3153801,2.1216469 3.2450676,2.2271156 3.1630363,2.3443031 3.0810051,2.4497719 2.9755363,2.5200844 c -0.1054687,0.070312 -0.2226562,0.1054687 -0.375,0.1054687 -0.1054687,0 -0.1992187,-0.023437 -0.2929687,-0.070312 C 2.2255363,2.5083656 2.1552238,2.4614906 2.0966301,2.3911781 2.0263176,2.3091469 1.9794426,2.2271156 1.9560051,2.1333656 1.9208488,2.0278969 1.9091301,1.9224281 1.9091301,1.8286781 c 0,-0.1992187 0.023437,-0.375 0.046875,-0.5273437 0.035156,-0.1640625 0.070312,-0.30468752 0.140625,-0.45703127 0.046875,-0.12890625 0.1054687,-0.28125 0.1757812,-0.43359375 0.070312,-0.12890625 0.1523438,-0.29296875 0.234375,-0.45703125 L 1.4989738,-6.3392906 h 1.125 l 0.7148438,5.0039062 2.8828125,-5.0039062 z m 0,0"
       style="fill:#000000;fill-opacity:1;fill-rule:nonzero;stroke:none"
       aria-label="γ"
       transform="matrix(1.3333333,0,0,1.3333333,235.71621,260.4602)"
       clip-path="url(#clipPath105)" />
    <path
       id="path106"
       d="m 211.551,178.035 -0.524,-0.5 -0.527,-0.426 -0.523,-0.281 -0.524,-0.101 -0.523,0.101 -0.524,0.281 -0.523,0.426 -0.524,0.5 -0.523,0.504 -0.524,0.422 -0.523,0.285 -0.523,0.102 -0.524,-0.102 -0.523,-0.285 -0.524,-0.422 -0.523,-0.504 -0.524,-0.5 -0.523,-0.426 -0.523,-0.281 -0.524,-0.101 -0.527,0.101 -0.524,0.281 -0.523,0.426 -0.524,0.5 -0.523,0.504 -0.523,0.422 -0.524,0.285 -0.523,0.102 -0.524,-0.102 -0.523,-0.285 -0.524,-0.422 -0.523,-0.504 -0.523,-0.5 -0.524,-0.426 -0.523,-0.281 -0.524,-0.101 -0.523,0.101 -0.524,0.281 -0.523,0.426 -0.524,0.5"
       style="fill:none;stroke:#000000;stroke-width:0.576;stroke-linecap:square;stroke-linejoin:miter;stroke-miterlimit:3.25;stroke-dasharray:none;stroke-opacity:1"
       transform="scale(1.3333333)" />
    <path
       id="path107"
       d="M 7.3132844,-6.3398827 3.5867219,-3.89375e-5 V 0.11714856 c 0,0.0820313 0.011719,0.15234375 0.011719,0.22265625 0,0.0703125 0,0.15234375 0,0.22265625 0,0.10546875 0,0.234375 -0.011719,0.36328125 C 3.5750032,1.0780861 3.5515657,1.2187111 3.5281282,1.3827736 3.5046907,1.5351173 3.4578157,1.6757423 3.4226594,1.8398048 3.3757844,1.9804298 3.3171907,2.1210548 3.2468782,2.2265236 3.1648469,2.3437111 3.0828157,2.4491798 2.9773469,2.5194923 c -0.1054687,0.070312 -0.2226562,0.1054688 -0.375,0.1054688 -0.1054687,0 -0.1992187,-0.023437 -0.2929687,-0.070312 C 2.2273469,2.5077736 2.1570344,2.4608986 2.0984407,2.3905861 2.0281282,2.3085548 1.9812532,2.2265236 1.9578157,2.1327736 1.9226594,2.0273048 1.9109407,1.9218361 1.9109407,1.8280861 c 0,-0.1992188 0.023437,-0.375 0.046875,-0.5273438 0.035156,-0.1640625 0.070312,-0.30468749 0.140625,-0.45703124 0.046875,-0.12890625 0.1054687,-0.28125 0.1757812,-0.43359375 0.070312,-0.12890625 0.1523438,-0.29296875 0.234375,-0.45703125 L 1.5007844,-6.3398827 h 1.125 l 0.7148438,5.0039063 2.8828125,-5.0039063 z m 0,0"
       style="fill:#000000;fill-opacity:1;fill-rule:nonzero;stroke:none"
       aria-label="γ"
       transform="matrix(1.3333333,0,0,1.3333333,263.64349,226.88677)"
       clip-path="url(#clipPath108)" />
    <path
       id="path109"
       d="m 171.961,178.035 c 0,0.613 -0.242,1.199 -0.672,1.629 -0.434,0.434 -1.019,0.676 -1.633,0.676 -0.609,0 -1.195,-0.242 -1.629,-0.676 -0.429,-0.43 -0.672,-1.016 -0.672,-1.629 0,-0.609 0.243,-1.195 0.672,-1.629 0.434,-0.429 1.02,-0.676 1.629,-0.676 0.614,0 1.199,0.247 1.633,0.676 0.43,0.434 0.672,1.02 0.672,1.629 z"
       style="fill:#000000;fill-opacity:1;fill-rule:evenodd;stroke:none"
       transform="scale(1.3333333)" />
    <path
       id="path110"
       d="m 213.852,178.035 c 0,0.613 -0.243,1.199 -0.672,1.629 -0.434,0.434 -1.02,0.676 -1.629,0.676 -0.613,0 -1.199,-0.242 -1.633,-0.676 -0.43,-0.43 -0.672,-1.016 -0.672,-1.629 0,-0.609 0.242,-1.195 0.672,-1.629 0.434,-0.429 1.02,-0.676 1.633,-0.676 0.609,0 1.195,0.247 1.629,0.676 0.429,0.434 0.672,1.02 0.672,1.629 z"
       style="fill:#000000;fill-opacity:1;fill-rule:evenodd;stroke:none"
       transform="scale(1.3333333)" />
    <path
       id="path111"
       d="m 187.984,180.656 5.239,-5.238"
       style="fill:none;stroke:#000000;stroke-width:1.728;stroke-linecap:square;stroke-linejoin:miter;stroke-miterlimit:3.25;stroke-dasharray:none;stroke-opacity:1"
       transform="scale(1.3333333)" />
    <path
       id="path112"
       d="m 187.984,175.418 5.239,5.238"
       style="fill:none;stroke:#000000;stroke-width:1.728;stroke-linecap:square;stroke-linejoin:miter;stroke-miterlimit:3.25;stroke-dasharray:none;stroke-opacity:1"
       transform="scale(1.3333333)" />
    <path
       id="path113"
       d="m 1.7000744,-1.8756039 c -0.046875,0.5273438 0.1171875,0.89062503 0.4921875,1.08984378 0.2109375,0.10546875 0.4453125,0.1640625 0.7382813,0.1640625 0.5390625,0 0.9960937,-0.17578125 1.3359375,-0.52734378 0.3398437,-0.3515625 0.5507812,-0.7382812 0.6445312,-1.1601562 0.1054688,-0.515625 0.035156,-0.9257813 -0.2226562,-1.2070313 -0.2578125,-0.2695312 -0.5976563,-0.421875 -1.03125,-0.421875 -0.328125,0 -0.6210938,0.058594 -0.8671875,0.1875 -0.2578125,0.1289063 -0.4921875,0.2929688 -0.703125,0.515625 l -0.7851563,-0.046875 1.40625,-3.9726562 h 3.84375 l -0.1992187,0.9023437 h -3.140625 l -0.75,2.0390625 c 0.1992187,-0.1171875 0.375,-0.2226562 0.5507812,-0.2929687 0.2929688,-0.1054688 0.6328125,-0.1640625 0.984375,-0.1640625 0.6796875,0 1.2070313,0.2226562 1.59375,0.65625 0.375,0.4335937 0.4921875,0.984375 0.3398438,1.6640625 -0.140625,0.6914062 -0.4804688,1.3125 -1.03125,1.83984373 -0.5390625,0.5390625 -1.2890625,0.796875 -2.2382813,0.796875 -0.5976562,0 -1.0898437,-0.1640625 -1.4765625,-0.50390625 C 0.79773069,-0.65685387 0.64538694,-1.1724789 0.72741819,-1.8756039 Z m 0,0"
       style="fill:#000000;fill-opacity:1;fill-rule:nonzero;stroke:none"
       aria-label="5"
       transform="matrix(1.3333333,0,0,1.3333333,250.06527,307.39924)"
       clip-path="url(#clipPath114)" />
    <path
       id="path115"
       d="m 253.441,151.855 52.364,5.235"
       style="fill:none;stroke:#000000;stroke-width:0.576;stroke-linecap:square;stroke-linejoin:miter;stroke-miterlimit:3.25;stroke-dasharray:none;stroke-opacity:1"
       transform="scale(1.3333333)" />
    <path
       id="path116"
       d="m 282.746,154.785 -6.457,1.461 0.414,-4.172 z"
       style="fill:#000000;fill-opacity:1;fill-rule:evenodd;stroke:none"
       transform="scale(1.3333333)" />
    <path
       id="path117"
       d="M 8.8137196,-2.20625e-5 H 7.4191883 L 6.3059071,-2.8593971 h -3.9375 L 1.3254383,-2.20625e-5 H 0.00121956 L 3.6223133,-9.4336158 H 4.9582508 Z M 5.9309071,-3.8554908 c -0.1523438,-0.375 -0.3046875,-0.7617188 -0.4570313,-1.1484375 -0.140625,-0.3632813 -0.28125,-0.75 -0.4335937,-1.1367188 -0.140625,-0.375 -0.28125,-0.7617187 -0.4101563,-1.1484375 -0.1289062,-0.375 -0.234375,-0.7734375 -0.3398437,-1.171875 h -0.035156 c -0.082031,0.4101563 -0.1757812,0.796875 -0.2929687,1.1953125 -0.1171875,0.375 -0.234375,0.7617188 -0.3867188,1.1484375 -0.1289062,0.375 -0.2695312,0.75 -0.421875,1.125 -0.1523437,0.375 -0.3046875,0.7617188 -0.4335937,1.1367188 z m 0,0"
       style="fill:#000000;fill-opacity:1;fill-rule:nonzero;stroke:none"
       aria-label="Α"
       transform="matrix(1.3333333,0,0,1.3333333,366.54134,228.98831)"
       clip-path="url(#clipPath118)" />
    <path
       id="path119"
       d="m 253.441,204.219 52.364,-5.239"
       style="fill:none;stroke:#000000;stroke-width:0.576;stroke-linecap:square;stroke-linejoin:miter;stroke-miterlimit:3.25;stroke-dasharray:none;stroke-opacity:1"
       transform="scale(1.3333333)" />
    <path
       id="path120"
       d="m 276.496,201.914 6.461,1.457 -0.418,-4.168 z"
       style="fill:#000000;fill-opacity:1;fill-rule:evenodd;stroke:none"
       transform="scale(1.3333333)" />
    <path
       id="path121"
       d="M 8.8127614,-3.419375e-4 H 7.4182301 L 6.3049489,-2.8597169 h -3.9375 L 1.3244801,-3.419375e-4 H 2.61375e-4 L 3.6213551,-9.4339357 H 4.9572926 Z M 5.9299489,-3.8558107 c -0.1523438,-0.375 -0.3046875,-0.7617187 -0.4570313,-1.1484375 -0.140625,-0.3632812 -0.28125,-0.75 -0.4335937,-1.1367187 -0.140625,-0.375 -0.28125,-0.7617188 -0.4101563,-1.1484375 -0.1289062,-0.375 -0.234375,-0.7734375 -0.3398437,-1.171875 h -0.035156 c -0.082031,0.4101562 -0.1757812,0.796875 -0.2929687,1.1953125 -0.1171875,0.375 -0.234375,0.7617187 -0.3867188,1.1484375 -0.1289062,0.375 -0.2695312,0.75 -0.421875,1.125 -0.1523437,0.375 -0.3046875,0.7617187 -0.4335937,1.1367187 z m 0,0"
       style="fill:#000000;fill-opacity:1;fill-rule:nonzero;stroke:none"
       aria-label="Α"
       transform="matrix(1.3333333,0,0,1.3333333,368.69496,291.82467)"
       clip-path="url(#clipPath122)" />
    <path
       id="path123"
       d="m 358.168,151.855 -52.363,5.235"
       style="fill:none;stroke:#000000;stroke-width:0.576;stroke-linecap:square;stroke-linejoin:miter;stroke-miterlimit:3.25;stroke-dasharray:none;stroke-opacity:1"
       transform="scale(1.3333333)" />
    <path
       id="path124"
       d="m 335.113,154.16 -6.461,-1.457 0.414,4.168 z"
       style="fill:#000000;fill-opacity:1;fill-rule:evenodd;stroke:none"
       transform="scale(1.3333333)" />
    <path
       id="path125"
       d="M 8.8123882,8.57125e-4 H 7.417857 L 6.3045757,-2.8585179 h -3.9375 L 1.324107,8.57125e-4 H -1.1175e-4 L 3.620982,-9.4327366 H 4.9569195 Z M 5.9295757,-3.8546116 c -0.1523437,-0.375 -0.3046875,-0.7617188 -0.4570312,-1.1484375 -0.140625,-0.3632813 -0.28125,-0.75 -0.4335938,-1.1367188 -0.140625,-0.375 -0.28125,-0.7617187 -0.4101562,-1.1484375 -0.1289063,-0.375 -0.234375,-0.7734375 -0.3398438,-1.171875 h -0.035156 c -0.082031,0.4101563 -0.1757813,0.796875 -0.2929688,1.1953125 -0.1171875,0.375 -0.234375,0.7617188 -0.3867187,1.1484375 -0.1289063,0.375 -0.2695313,0.75 -0.421875,1.125 -0.1523438,0.375 -0.3046875,0.7617188 -0.4335938,1.1367188 z m 0,0"
       style="fill:#000000;fill-opacity:1;fill-rule:nonzero;stroke:none"
       aria-label="Α"
       transform="matrix(1.3333333,0,0,1.3333333,436.35952,195.52229)"
       clip-path="url(#clipPath126)" />
    <path
       id="path127"
       d="M 358.168,204.219 305.805,198.98"
       style="fill:none;stroke:#000000;stroke-width:0.576;stroke-linecap:square;stroke-linejoin:miter;stroke-miterlimit:3.25;stroke-dasharray:none;stroke-opacity:1"
       transform="scale(1.3333333)" />
    <path
       id="path128"
       d="m 328.859,201.289 6.461,-1.461 -0.418,4.168 z"
       style="fill:#000000;fill-opacity:1;fill-rule:evenodd;stroke:none"
       transform="scale(1.3333333)" />
    <path
       id="path129"
       d="M 8.8114291,5.3725e-4 H 7.4168978 L 6.3036166,-2.8588377 h -3.9375 L 1.3231478,5.3725e-4 H -0.00107094 L 3.6200228,-9.4330565 H 4.9559603 Z M 5.9286166,-3.8549315 c -0.1523438,-0.375 -0.3046875,-0.7617187 -0.4570313,-1.1484375 -0.140625,-0.3632812 -0.28125,-0.75 -0.4335937,-1.1367187 -0.140625,-0.375 -0.28125,-0.7617188 -0.4101563,-1.1484375 -0.1289062,-0.375 -0.234375,-0.7734375 -0.3398437,-1.171875 h -0.035156 c -0.082031,0.4101562 -0.1757812,0.796875 -0.2929687,1.1953125 -0.1171875,0.375 -0.234375,0.7617187 -0.3867188,1.1484375 -0.1289062,0.375 -0.2695312,0.75 -0.421875,1.125 -0.1523437,0.375 -0.3046875,0.7617187 -0.4335937,1.1367187 z m 0,0"
       style="fill:#000000;fill-opacity:1;fill-rule:nonzero;stroke:none"
       aria-label="Α"
       transform="matrix(1.3333333,0,0,1.3333333,438.51315,258.35866)"
       clip-path="url(#clipPath130)" />
    <path
       id="path131"
       d="m 305.805,157.09 -0.504,0.523 -0.422,0.524 -0.285,0.523 -0.098,0.528 0.098,0.523 0.285,0.523 0.426,0.524 1,1.047 0.425,0.523 0.282,0.524 0.101,0.523 -0.101,0.523 -0.282,0.524 -0.425,0.523 -1,1.047 -0.426,0.524 -0.285,0.523 -0.098,0.523 0.098,0.524 0.285,0.523 0.426,0.524 0.5,0.523 0.5,0.528 0.425,0.523 0.282,0.523 0.101,0.524 -0.101,0.523 -0.282,0.524 -0.425,0.523 -1,1.047 -0.426,0.524 -0.285,0.523 -0.098,0.523 0.098,0.524 0.285,0.523 0.422,0.524 0.504,0.523"
       style="fill:none;stroke:#000000;stroke-width:0.576;stroke-linecap:square;stroke-linejoin:miter;stroke-miterlimit:3.25;stroke-dasharray:none;stroke-opacity:1"
       transform="scale(1.3333333)" />
    <path
       id="path132"
       d="m 6.1864061,-3.5851204 -0.515625,-3.8789062 -2.2382812,3.8789062 z m -0.84375,-5.1914062 H 6.6785936 L 8.0028124,8.17125e-4 H 6.7020311 L 6.3739061,-2.6124641 H 2.8934374 l -1.5,2.613281225 H 0.17468738 Z M 6.9598436,-10.850745 H 8.0731249 L 7.8035936,-9.6085579 H 6.6903124 Z m -1.96875,0 H 6.1043749 L 5.8348436,-9.6085579 H 4.7215624 Z m 0,0"
       style="fill:#000000;fill-opacity:1;fill-rule:nonzero;stroke:none"
       aria-label="Ä"
       transform="matrix(1.3333333,0,0,1.3333333,414.3374,229.70985)"
       clip-path="url(#clipPath133)" />
    <path
       id="path134"
       d="m 305.805,198.98 0.5,-0.523 0.425,-0.523 0.282,-0.524 0.101,-0.523 -0.101,-0.524 -0.282,-0.523 -0.425,-0.524 -0.5,-0.523 -0.504,-0.523 -0.422,-0.524 -0.285,-0.523 -0.102,-0.524 0.102,-0.523 0.285,-0.524 0.422,-0.523 0.504,-0.524 0.5,-0.527 0.425,-0.523 0.282,-0.524 0.101,-0.523 -0.101,-0.524 -0.282,-0.523 -0.425,-0.523 -0.5,-0.524 -0.504,-0.523 -0.422,-0.524 -0.285,-0.523 -0.102,-0.524 0.102,-0.523 0.285,-0.524 0.422,-0.523 0.504,-0.523 0.5,-0.524 0.425,-0.523 0.282,-0.524 0.101,-0.523 -0.101,-0.528 -0.282,-0.523 -0.425,-0.523 -0.5,-0.524"
       style="fill:none;stroke:#000000;stroke-width:0.576;stroke-linecap:square;stroke-linejoin:miter;stroke-miterlimit:3.25;stroke-dasharray:none;stroke-opacity:1"
       transform="scale(1.3333333)" />
    <path
       id="path135"
       d="m 6.1877672,-3.5862394 -0.515625,-3.8789063 -2.2382813,3.8789063 z m -0.84375,-5.1914063 H 6.6799547 L 8.0041734,-3.019375e-4 H 6.7033922 L 6.3752672,-2.6135832 H 2.8947984 l -1.5,2.6132812625 H 0.17604844 Z M 6.9612047,-10.851864 H 8.0744859 L 7.8049547,-9.6096769 H 6.6916734 Z m -1.96875,0 H 6.1057359 L 5.8362047,-9.6096769 H 4.7229234 Z m 0,0"
       style="fill:#000000;fill-opacity:1;fill-rule:nonzero;stroke:none"
       aria-label="Ä"
       transform="matrix(1.3333333,0,0,1.3333333,392.2223,257.63712)"
       clip-path="url(#clipPath136)" />
    <path
       id="path137"
       d="m 308.109,157.09 c 0,0.613 -0.246,1.199 -0.675,1.629 -0.434,0.433 -1.02,0.676 -1.629,0.676 -0.614,0 -1.2,-0.243 -1.629,-0.676 -0.434,-0.43 -0.676,-1.016 -0.676,-1.629 0,-0.61 0.242,-1.195 0.676,-1.629 0.429,-0.43 1.015,-0.676 1.629,-0.676 0.609,0 1.195,0.246 1.629,0.676 0.429,0.434 0.675,1.019 0.675,1.629 z"
       style="fill:#000000;fill-opacity:1;fill-rule:evenodd;stroke:none"
       transform="scale(1.3333333)" />
    <path
       id="path138"
       d="m 308.109,198.98 c 0,0.614 -0.246,1.2 -0.675,1.629 -0.434,0.434 -1.02,0.676 -1.629,0.676 -0.614,0 -1.2,-0.242 -1.629,-0.676 -0.434,-0.429 -0.676,-1.015 -0.676,-1.629 0,-0.609 0.242,-1.195 0.676,-1.628 0.429,-0.43 1.015,-0.672 1.629,-0.672 0.609,0 1.195,0.242 1.629,0.672 0.429,0.433 0.675,1.019 0.675,1.628 z"
       style="fill:#000000;fill-opacity:1;fill-rule:evenodd;stroke:none"
       transform="scale(1.3333333)" />
    <path
       id="path139"
       d="m 303.184,180.656 5.238,-5.238"
       style="fill:none;stroke:#000000;stroke-width:1.728;stroke-linecap:square;stroke-linejoin:miter;stroke-miterlimit:3.25;stroke-dasharray:none;stroke-opacity:1"
       transform="scale(1.3333333)" />
    <path
       id="path140"
       d="m 303.184,175.418 5.238,5.238"
       style="fill:none;stroke:#000000;stroke-width:1.728;stroke-linecap:square;stroke-linejoin:miter;stroke-miterlimit:3.25;stroke-dasharray:none;stroke-opacity:1"
       transform="scale(1.3333333)" />
    <path
       id="path141"
       d="m 5.3428479,-1.8990414 c -0.058594,0.3046875 -0.1523438,0.5742188 -0.28125,0.8203125 C 4.9444104,-0.82091637 4.7686291,-0.59826012 4.5811291,-0.42247887 4.3819104,-0.24669762 4.1475354,-0.10607262 3.8897229,-6.03875e-4 3.6319104,0.09314613 3.3506604,0.15173988 3.0342541,0.15173988 c -0.1875,0 -0.3632812,-0.0234375 -0.5273437,-0.08203125 L 1.9092541,2.1204899 1.3233166,1.9564274 1.9209729,-0.09435387 c -0.2460938,-0.1171875 -0.4570313,-0.28125 -0.6210938,-0.46875 -0.1757812,-0.1875 -0.30468747,-0.3984375 -0.42187497,-0.63281253 -0.10546875,-0.234375 -0.1875,-0.46875 -0.22265625,-0.7265625 -0.0585938,-0.2695312 -0.0703125,-0.515625 -0.0703125,-0.7734375 0,-0.375 0.0351563,-0.75 0.12890625,-1.0898437 0.09375,-0.3515625 0.24609375,-0.65625 0.44531247,-0.9375 0.1875,-0.2578125 0.4453125,-0.46875 0.75,-0.6445313 0.3046875,-0.1523437 0.6679688,-0.234375 1.0898438,-0.234375 0.082031,0 0.1640625,0 0.2578125,0.011719 0.082031,0.011719 0.1640625,0.023437 0.2578125,0.035156 l 0.5859375,-1.9921875 0.5507812,0.1523438 -0.5507812,2.0039062 c 0.3164062,0.140625 0.5742187,0.3398438 0.7617187,0.6210938 0.1992188,0.2578125 0.3164063,0.5625 0.3984375,0.9023437 l -0.9140625,0.140625 c -0.023437,-0.1640625 -0.082031,-0.328125 -0.1640625,-0.4804687 -0.082031,-0.1523438 -0.1875,-0.28125 -0.3164062,-0.3984375 l -1.1601563,3.94921873 c 0.1171875,0.0351563 0.2226563,0.046875 0.328125,0.046875 0.1992188,0 0.375,-0.0351563 0.5390625,-0.10546875 0.1640625,-0.0820313 0.3046875,-0.1875 0.421875,-0.30468748 0.1054688,-0.1289063 0.2109375,-0.28125 0.28125,-0.4453125 0.070312,-0.1757813 0.1289063,-0.3515625 0.1523438,-0.5273438 z M 3.3037854,-4.8404476 c -0.035156,-0.011719 -0.058594,-0.011719 -0.09375,-0.011719 -0.035156,0 -0.070312,0 -0.1054688,0 -0.3046875,0 -0.5625,0.058594 -0.7617187,0.1875 -0.2109375,0.1171875 -0.375,0.2695313 -0.4804688,0.46875 -0.1289062,0.1992188 -0.2109375,0.4101563 -0.2695312,0.6679688 -0.046875,0.2578125 -0.058594,0.515625 -0.058594,0.7734375 0,0.1523437 0,0.328125 0.011719,0.5039062 0.011719,0.1757813 0.046875,0.3398438 0.09375,0.5039063 0.035156,0.1757812 0.1054687,0.328125 0.1875,0.4804687 0.082031,0.140625 0.1875,0.2578125 0.3398437,0.36328128 z m 0,0"
       style="fill:#000000;fill-opacity:1;fill-rule:nonzero;stroke:none"
       aria-label="¢"
       transform="matrix(1.3333333,0,0,1.3333333,403.66527,307.39924)" />
  </g>
</svg>
