<?xml version="1.0" encoding="UTF-8" standalone="no"?>
<!-- Created with Inkscape (http://www.inkscape.org/) -->

<svg
   version="1.1"
   id="svg1"
   width="246.66667"
   height="246.66667"
   viewBox="0 0 246.66667 246.66667"
   sodipodi:docname="0tl9ycckvwwb8.pdf"
   xmlns:inkscape="http://www.inkscape.org/namespaces/inkscape"
   xmlns:sodipodi="http://sodipodi.sourceforge.net/DTD/sodipodi-0.dtd"
   xmlns="http://www.w3.org/2000/svg"
   xmlns:svg="http://www.w3.org/2000/svg">
  <defs
     id="defs1">
    <clipPath
       clipPathUnits="userSpaceOnUse"
       id="clipPath6">
      <path
         d="m 133,39 h 9.801 V 55 H 133 Z"
         transform="translate(-130.82535,-50.313451)"
         id="path6" />
    </clipPath>
    <clipPath
       clipPathUnits="userSpaceOnUse"
       id="clipPath13">
      <path
         d="M 67,58 H 78.961 V 71 H 67 Z"
         transform="translate(-66.036005,-70.197786)"
         id="path13" />
    </clipPath>
    <clipPath
       clipPathUnits="userSpaceOnUse"
       id="clipPath16">
      <path
         d="m 69,135 h 10.199 v 16 H 69 Z"
         transform="translate(-67.033975,-146.09733)"
         id="path16" />
    </clipPath>
    <clipPath
       clipPathUnits="userSpaceOnUse"
       id="clipPath24">
      <path
         d="m 80,172 h 5 v 12.32 h -5 z"
         transform="translate(-79.055259,-184.68097)"
         id="path24" />
    </clipPath>
  </defs>
  <sodipodi:namedview
     id="namedview1"
     pagecolor="#ffffff"
     bordercolor="#999999"
     borderopacity="1"
     inkscape:showpageshadow="0"
     inkscape:pageopacity="0"
     inkscape:pagecheckerboard="0"
     inkscape:deskcolor="#d1d1d1">
    <inkscape:page
       x="0"
       y="0"
       id="page1"
       width="246.66667"
       height="246.66667"
       margin="0"
       bleed="0" />
  </sodipodi:namedview>
  <g
     id="g1"
     inkscape:groupmode="layer"
     inkscape:label="">
    <path
       id="path1"
       d="M 0,100.539 H 54.457"
       style="fill:none;stroke:#000000;stroke-width:0.9216;stroke-linecap:square;stroke-linejoin:miter;stroke-miterlimit:3.25;stroke-dasharray:none;stroke-opacity:1"
       transform="scale(1.3333333)" />
    <path
       id="path2"
       d="m 32.258,100.539 -10.055,3.352 v -6.703 z"
       style="fill:#000000;fill-opacity:1;fill-rule:evenodd;stroke:none"
       transform="scale(1.3333333)" />
    <path
       id="path3"
       d="m 11.871455,-9.2921999 c 0.269532,0.5507812 0.375,1.2070312 0.339844,1.9453125 0,0.5039062 -0.105469,1.3125 -0.339844,2.4257812 H 3.7620805 c -0.2109375,1.125 -0.1289063,2.0273438 0.234375,2.7070313 0.328125,0.6679687 1.03125,1.0078125 2.0859375,1.0078125 0.9492187,0 1.7929687,-0.3164063 2.5078125,-0.9726563 0.4101562,-0.3515625 0.7382812,-0.7734375 0.9726562,-1.2890625 h 1.8398433 c -0.152343,0.4335938 -0.398437,0.8671875 -0.785156,1.3828125 -0.375,0.4804688 -0.7499998,0.9023438 -1.160156,1.19531251 -0.6679688,0.57421875 -1.453125,0.9375 -2.34375,1.125 -0.4570313,0.10546875 -0.984375,0.1640625 -1.5351563,0.1640625 -1.3710937,0 -2.4492187,-0.50390625 -3.1875,-1.50000001 -0.7382812,-0.984375 -0.9140625,-2.4023437 -0.5273437,-4.1953125 0.375,-1.78125 1.1601562,-3.2109375 2.3554687,-4.3359375 1.1835938,-1.0898433 2.5546875,-1.6406253 4.125,-1.6406253 0.7734375,0 1.5,0.1875 2.1679683,0.550782 0.65625,0.351562 1.101563,0.8437496 1.359375,1.4296871 z m -1.605468,2.8945312 c 0.08203,-0.796875 0.05859,-1.4414062 -0.128907,-1.921875 -0.3164058,-0.890625 -1.054687,-1.3476562 -2.2382808,-1.3476562 -0.8671875,0 -1.6523437,0.3164062 -2.34375,0.9257812 -0.7148437,0.609375 -1.1835937,1.3945313 -1.4414062,2.34375 z m 0,0"
       style="fill:#000000;fill-opacity:1;fill-rule:nonzero;stroke:none"
       aria-label="e"
       transform="matrix(1.3333333,0,0,1.3333333,28.202643,171.21382)" />
    <path
       id="path4"
       d="m 108.918,67.027 0.953,0.692 0.934,0.566 0.902,0.32 0.855,0.012 0.809,-0.324 0.766,-0.621 0.734,-0.844 0.723,-0.945 0.722,-0.918 0.746,-0.758 0.786,-0.5 0.828,-0.176 0.879,0.157 0.918,0.441 0.945,0.637 0.957,0.714 0.949,0.653 0.922,0.465 0.879,0.191 0.836,-0.137 0.789,-0.464 0.75,-0.735 0.727,-0.906 0.718,-0.949 0.731,-0.86 0.762,-0.652 0.804,-0.359 0.852,-0.028 0.894,0.293 0.934,0.539 0.953,0.688 0.957,0.703 0.938,0.586 0.906,0.351 0.859,0.047 0.817,-0.285 0.769,-0.594 0.734,-0.824 0.723,-0.941 0.723,-0.926 0.742,-0.781 0.781,-0.532 0.824,-0.211 0.872,0.118 0.914,0.414 0.941,0.621 0.957,0.711 0.949,0.664 0.926,0.496 0.887,0.223 0.844,-0.098 0.792,-0.43 0.754,-0.707 0.727,-0.894 0.719,-0.95 0.73,-0.878 0.758,-0.68 0.797,-0.395 0.847,-0.062 0.891,0.258 0.93,0.519 0.953,0.676 0.953,0.707 0.941,0.605 0.911,0.383 0.867,0.082 0.82,-0.25 0.774,-0.558 0.742,-0.805 0.718,-0.934"
       style="fill:none;stroke:#000000;stroke-width:0.9216;stroke-linecap:square;stroke-linejoin:miter;stroke-miterlimit:3.25;stroke-dasharray:none;stroke-opacity:1"
       transform="scale(1.3333333)" />
    <path
       id="path5"
       d="M 12.058437,-10.440402 5.9060933,0.00100413 v 0.19921875 c 0,0.12890625 0.023437,0.24609375 0.023437,0.36328125 0,0.1171875 0,0.24609375 0,0.36328125 0,0.18750002 0,0.38671872 -0.023437,0.60937502 -0.023437,0.234375 -0.058594,0.4804687 -0.1054687,0.7382812 -0.035156,0.2460938 -0.09375,0.4921875 -0.1523438,0.75 -0.082031,0.2460938 -0.1875,0.46875 -0.3046875,0.6445313 -0.1289062,0.1992187 -0.2695312,0.3632812 -0.4453125,0.4804687 -0.1640625,0.1289063 -0.3632812,0.1875 -0.609375,0.1875 -0.1757812,0 -0.3398437,-0.046875 -0.4804687,-0.1289062 C 3.6678121,4.1377229 3.5506246,4.0556916 3.4451558,3.9267854 3.3514058,3.8095979 3.2693746,3.6689729 3.2224996,3.5049104 3.1639058,3.3525666 3.1404683,3.1650666 3.1404683,3.0010041 c 0,-0.3164062 0.046875,-0.5976562 0.082031,-0.8671875 C 3.2810933,1.8760041 3.3514058,1.6299104 3.4451558,1.3955354 3.5271871,1.1728791 3.6326558,0.92678538 3.7498433,0.68069163 3.8670308,0.46975413 3.9959371,0.20022288 4.1365621,-0.08102712 L 2.4842183,-10.440402 h 1.8515625 l 1.171875,8.2499999 4.7460942,-8.2499999 z m 0,0"
       style="fill:#000000;fill-opacity:1;fill-rule:nonzero;stroke:none"
       aria-label="γ"
       transform="matrix(1.3333333,0,0,1.3333333,174.4338,67.084599)"
       clip-path="url(#clipPath6)" />
    <path
       id="path7"
       d="m 167.562,142.43 -58.644,-8.379"
       style="fill:none;stroke:#000000;stroke-width:0.9216;stroke-linecap:square;stroke-linejoin:miter;stroke-miterlimit:3.25;stroke-dasharray:none;stroke-opacity:1"
       transform="scale(1.3333333)" />
    <path
       id="path8"
       d="m 143.215,138.949 -9.477,-4.738 -0.949,6.637 z"
       style="fill:#000000;fill-opacity:1;fill-rule:evenodd;stroke:none"
       transform="scale(1.3333333)" />
    <path
       id="path9"
       d="m 11.871875,-9.2931884 c 0.269531,0.5507812 0.375,1.2070312 0.339844,1.9453125 0,0.5039062 -0.105469,1.3125 -0.339844,2.4257812 H 3.7625002 c -0.2109375,1.125 -0.1289063,2.0273438 0.234375,2.7070313 0.328125,0.6679687 1.03125,1.0078125 2.0859375,1.0078125 0.9492187,0 1.7929687,-0.3164063 2.5078125,-0.9726563 0.4101562,-0.3515625 0.7382812,-0.7734375 0.9726562,-1.2890625 h 1.8398436 c -0.152344,0.4335938 -0.398437,0.8671875 -0.785156,1.3828125 -0.375,0.4804688 -0.7500001,0.9023438 -1.1601563,1.19531251 -0.6679688,0.57421875 -1.453125,0.9375 -2.34375,1.125 -0.4570313,0.10546875 -0.984375,0.1640625 -1.5351563,0.1640625 -1.3710937,0 -2.4492187,-0.50390625 -3.1875,-1.50000001 -0.7382812,-0.984375 -0.9140625,-2.4023437 -0.5273437,-4.1953125 0.375,-1.78125 1.1601562,-3.2109375 2.3554687,-4.3359375 1.1835938,-1.0898438 2.5546875,-1.6406248 4.125,-1.6406248 0.7734375,0 1.5,0.1875 2.1679686,0.550781 0.65625,0.351563 1.101563,0.8437501 1.359375,1.4296876 z m -1.605469,2.8945312 c 0.08203,-0.796875 0.05859,-1.4414062 -0.128906,-1.921875 -0.3164061,-0.890625 -1.0546873,-1.3476562 -2.2382811,-1.3476562 -0.8671875,0 -1.6523437,0.3164062 -2.34375,0.9257812 -0.7148437,0.609375 -1.1835937,1.3945313 -1.4414062,2.34375 z m 0,0"
       style="fill:#000000;fill-opacity:1;fill-rule:nonzero;stroke:none"
       aria-label="e"
       transform="matrix(1.3333333,0,0,1.3333333,173.76849,221.30889)" />
    <path
       id="path10"
       d="M 54.457,100.539 108.918,67.027"
       style="fill:none;stroke:#000000;stroke-width:0.9216;stroke-linecap:square;stroke-linejoin:miter;stroke-miterlimit:3.25;stroke-dasharray:none;stroke-opacity:1"
       transform="scale(1.3333333)" />
    <path
       id="path11"
       d="M 85.969,81.148 79.164,89.27 75.648,83.562 Z"
       style="fill:#000000;fill-opacity:1;fill-rule:evenodd;stroke:none"
       transform="scale(1.3333333)" />
    <path
       id="path12"
       d="m 11.870246,-9.2925106 c 0.269531,0.5507813 0.375,1.2070313 0.339844,1.9453125 0,0.5039063 -0.105469,1.3125 -0.339844,2.4257813 H 3.760871 c -0.2109375,1.125 -0.1289063,2.0273437 0.234375,2.7070312 0.328125,0.6679688 1.03125,1.0078125 2.0859375,1.0078125 0.9492187,0 1.7929687,-0.3164062 2.5078125,-0.9726562 0.4101562,-0.3515625 0.7382812,-0.7734375 0.9726562,-1.2890625 h 1.8398438 c -0.152344,0.4335937 -0.398438,0.8671875 -0.785156,1.3828125 -0.375,0.4804687 -0.7500003,0.9023437 -1.1601565,1.19531249 -0.6679688,0.57421875 -1.453125,0.9375 -2.34375,1.125 -0.4570313,0.10546875 -0.984375,0.1640625 -1.5351563,0.1640625 -1.3710937,0 -2.4492187,-0.50390625 -3.1875,-1.49999999 -0.7382812,-0.984375 -0.9140625,-2.4023438 -0.5273437,-4.1953125 0.375,-1.78125 1.1601562,-3.2109375 2.3554687,-4.3359375 1.1835938,-1.0898437 2.5546875,-1.6406247 4.125,-1.6406247 0.7734375,0 1.5,0.1875 2.1679688,0.550781 0.65625,0.351562 1.101562,0.8437499 1.359375,1.4296874 z m -1.605469,2.8945313 c 0.08203,-0.796875 0.05859,-1.4414063 -0.128906,-1.921875 -0.3164063,-0.890625 -1.0546875,-1.3476563 -2.2382813,-1.3476563 -0.8671875,0 -1.6523437,0.3164063 -2.34375,0.9257813 -0.7148437,0.609375 -1.1835937,1.3945312 -1.4414062,2.34375 z m 0,0"
       style="fill:#000000;fill-opacity:1;fill-rule:nonzero;stroke:none"
       aria-label="e"
       transform="matrix(1.3333333,0,0,1.3333333,88.048005,93.597045)"
       clip-path="url(#clipPath13)" />
    <path
       id="path14"
       d="m 108.918,134.051 -0.32,-1.09 -0.371,-1 -0.473,-0.836 -0.609,-0.617 -0.758,-0.371 -0.903,-0.137 -1.023,0.051 -1.098,0.179 -1.121,0.219 -1.094,0.168 -1.007,0.035 -0.887,-0.164 -0.742,-0.398 -0.594,-0.641 -0.461,-0.859 -0.363,-1.012 -0.317,-1.094 -0.32,-1.086 -0.379,-0.984 -0.488,-0.812 -0.625,-0.59 -0.777,-0.348 -0.915,-0.113 -1.035,0.07 -1.101,0.188 -1.121,0.218 -1.086,0.157 -0.996,0.015 -0.875,-0.187 -0.723,-0.426 -0.578,-0.668 -0.446,-0.879 -0.355,-1.027 -0.316,-1.098 -0.325,-1.078 -0.39,-0.969 -0.5,-0.789 -0.641,-0.566 -0.793,-0.317 -0.933,-0.093 -1.039,0.089 -1.11,0.196 -1.121,0.215 -1.078,0.144 -0.984,-0.004 -0.856,-0.215 -0.707,-0.453 -0.562,-0.695 -0.438,-0.895 -0.348,-1.043 -0.308,-1.097 -0.332,-1.071 -0.403,-0.953 -0.515,-0.765 -0.656,-0.535 -0.809,-0.293 -0.945,-0.071 -1.051,0.106 -1.113,0.199 -1.118,0.215 -1.07,0.133 -0.973,-0.028 -0.839,-0.238 -0.692,-0.484 -0.547,-0.719 -0.422,-0.914 -0.343,-1.051 -0.309,-1.102 -0.336,-1.062 -0.41,-0.934 -0.531,-0.742 -0.676,-0.512 -0.824,-0.265 -0.957,-0.047 -1.063,0.121 -1.117,0.207"
       style="fill:none;stroke:#000000;stroke-width:0.9216;stroke-linecap:square;stroke-linejoin:miter;stroke-miterlimit:3.25;stroke-dasharray:none;stroke-opacity:1"
       transform="scale(1.3333333)" />
    <path
       id="path15"
       d="M 12.0588,-10.441079 5.9064567,3.2725e-4 V 0.199546 c 0,0.12890625 0.023437,0.24609375 0.023437,0.36328125 0,0.1171875 0,0.24609375 0,0.36328125 0,0.1875 0,0.3867187 -0.023437,0.609375 -0.023437,0.234375 -0.058594,0.4804687 -0.1054688,0.7382812 -0.035156,0.2460938 -0.09375,0.4921875 -0.1523437,0.75 -0.082031,0.2460938 -0.1875,0.46875 -0.3046875,0.6445313 -0.1289063,0.1992187 -0.2695313,0.3632812 -0.4453125,0.4804687 -0.1640625,0.1289063 -0.3632813,0.1875 -0.609375,0.1875 -0.1757813,0 -0.3398438,-0.046875 -0.4804688,-0.1289062 C 3.6681754,4.137046 3.5509879,4.0550147 3.4455192,3.9261085 3.3517692,3.808921 3.2697379,3.668296 3.2228629,3.5042335 3.1642692,3.3518897 3.1408317,3.1643897 3.1408317,3.0003272 c 0,-0.3164062 0.046875,-0.5976562 0.082031,-0.8671875 C 3.2814567,1.8753272 3.351769,1.6292335 3.445519,1.3948585 3.52755,1.1722022 3.633019,0.9261085 3.7502065,0.68001475 3.8673942,0.46907725 3.9963004,0.199546 4.1369254,-0.081704 L 2.4845817,-10.441079 h 1.8515625 l 1.171875,8.25 4.7460938,-8.25 z m 0,0"
       style="fill:#000000;fill-opacity:1;fill-rule:nonzero;stroke:none"
       aria-label="γ"
       transform="matrix(1.3333333,0,0,1.3333333,89.378631,194.79644)"
       clip-path="url(#clipPath16)" />
    <path
       id="path17"
       d="m 108.918,67.027 v 67.024"
       style="fill:none;stroke:#000000;stroke-width:0.9216;stroke-linecap:square;stroke-linejoin:miter;stroke-miterlimit:3.25;stroke-dasharray:none;stroke-opacity:1"
       transform="scale(1.3333333)" />
    <path
       id="path18"
       d="m 108.918,105.566 -3.352,-10.054 h 6.704 z"
       style="fill:#000000;fill-opacity:1;fill-rule:evenodd;stroke:none"
       transform="scale(1.3333333)" />
    <path
       id="path19"
       d="m 11.869631,-9.2940414 c 0.269531,0.5507813 0.375,1.2070313 0.339844,1.9453125 0,0.5039063 -0.105469,1.3125 -0.339844,2.4257813 H 3.7602561 c -0.2109375,1.125 -0.1289063,2.0273437 0.234375,2.7070312 0.328125,0.6679688 1.03125,1.0078125 2.0859375,1.0078125 0.9492187,0 1.7929687,-0.3164062 2.5078125,-0.9726562 0.4101562,-0.3515625 0.7382812,-0.7734375 0.9726562,-1.2890625 h 1.8398437 c -0.152344,0.4335937 -0.398437,0.8671875 -0.785156,1.3828125 -0.375,0.4804687 -0.7500002,0.9023437 -1.1601564,1.19531247 -0.6679688,0.57421875 -1.453125,0.9375 -2.34375,1.125 -0.4570313,0.10546875 -0.984375,0.1640625 -1.5351563,0.1640625 -1.3710937,0 -2.4492187,-0.50390625 -3.1875,-1.49999997 -0.7382812,-0.984375 -0.9140625,-2.4023438 -0.5273437,-4.1953125 0.375,-1.78125 1.1601562,-3.2109375 2.3554687,-4.3359375 1.1835938,-1.0898439 2.5546875,-1.6406249 4.125,-1.6406249 0.7734375,0 1.5,0.1875 2.1679687,0.550781 0.65625,0.351563 1.101563,0.8437501 1.359375,1.4296876 z m -1.605469,2.8945313 c 0.08203,-0.796875 0.05859,-1.4414063 -0.128906,-1.921875 -0.3164062,-0.890625 -1.0546874,-1.3476563 -2.2382812,-1.3476563 -0.8671875,0 -1.6523437,0.3164063 -2.34375,0.9257813 -0.7148437,0.609375 -1.1835937,1.3945312 -1.4414062,2.34375 z m 0,0"
       style="fill:#000000;fill-opacity:1;fill-rule:nonzero;stroke:none"
       aria-label="e"
       transform="matrix(1.3333333,0,0,1.3333333,158.06054,144.19674)" />
    <path
       id="path20"
       d="m 58.145,100.539 c 0,0.977 -0.387,1.914 -1.079,2.606 -0.691,0.691 -1.628,1.078 -2.609,1.078 -0.977,0 -1.914,-0.387 -2.605,-1.078 -0.692,-0.692 -1.079,-1.629 -1.079,-2.606 0,-0.98 0.387,-1.918 1.079,-2.609 0.691,-0.692 1.628,-1.078 2.605,-1.078 0.981,0 1.918,0.386 2.609,1.078 0.692,0.691 1.079,1.629 1.079,2.609 z"
       style="fill:#000000;fill-opacity:1;fill-rule:evenodd;stroke:none"
       transform="scale(1.3333333)" />
    <path
       id="path21"
       d="m 112.602,67.027 c 0,0.977 -0.387,1.914 -1.079,2.606 -0.691,0.691 -1.628,1.078 -2.605,1.078 -0.98,0 -1.918,-0.387 -2.609,-1.078 -0.692,-0.692 -1.079,-1.629 -1.079,-2.606 0,-0.98 0.387,-1.918 1.079,-2.609 0.691,-0.691 1.629,-1.078 2.609,-1.078 0.977,0 1.914,0.387 2.605,1.078 0.692,0.691 1.079,1.629 1.079,2.609 z"
       style="fill:#000000;fill-opacity:1;fill-rule:evenodd;stroke:none"
       transform="scale(1.3333333)" />
    <path
       id="path22"
       d="m 112.602,134.051 c 0,0.976 -0.387,1.914 -1.079,2.605 -0.691,0.692 -1.628,1.082 -2.605,1.082 -0.98,0 -1.918,-0.39 -2.609,-1.082 -0.692,-0.691 -1.079,-1.629 -1.079,-2.605 0,-0.977 0.387,-1.914 1.079,-2.606 0.691,-0.691 1.629,-1.082 2.609,-1.082 0.977,0 1.914,0.391 2.605,1.082 0.692,0.692 1.079,1.629 1.079,2.606 z"
       style="fill:#000000;fill-opacity:1;fill-rule:evenodd;stroke:none"
       transform="scale(1.3333333)" />
    <path
       id="path23"
       d="m 1.5931815,-8.3196379 v -1.125 c 1.078125,-0.1054687 1.8164063,-0.28125 2.2382813,-0.515625 0.421875,-0.2343751 0.7382812,-0.8320311 0.9375,-1.7343751 H 5.9525565 V 6.74625e-4 H 4.3705253 V -8.3196379 Z m 0,0"
       style="fill:#000000;fill-opacity:1;fill-rule:nonzero;stroke:none"
       aria-label="1"
       transform="matrix(1.3333333,0,0,1.3333333,105.40701,246.24129)"
       clip-path="url(#clipPath24)" />
  </g>
</svg>
