<?xml version="1.0" encoding="UTF-8" standalone="no"?>
<!-- Created with Inkscape (http://www.inkscape.org/) -->

<svg
   version="1.1"
   id="svg1"
   width="984"
   height="246.66667"
   viewBox="0 0 984 246.66667"
   sodipodi:docname="0x4h8tk2v0r12.pdf"
   xmlns:inkscape="http://www.inkscape.org/namespaces/inkscape"
   xmlns:sodipodi="http://sodipodi.sourceforge.net/DTD/sodipodi-0.dtd"
   xmlns="http://www.w3.org/2000/svg"
   xmlns:svg="http://www.w3.org/2000/svg">
  <defs
     id="defs1">
    <clipPath
       clipPathUnits="userSpaceOnUse"
       id="clipPath15">
      <path
         d="m 53,109 h 7.961 v 11 H 53 Z"
         transform="translate(-51.948296,-116.3217)"
         id="path15" />
    </clipPath>
    <clipPath
       clipPathUnits="userSpaceOnUse"
       id="clipPath19">
      <path
         d="m 53,146 h 4 v 7.602 h -4 z"
         transform="translate(-52.79986,-153.92398)"
         id="path19" />
    </clipPath>
    <clipPath
       clipPathUnits="userSpaceOnUse"
       id="clipPath34">
      <path
         d="m 167,95 h 7.48 v 11 H 167 Z"
         transform="translate(-165.64268,-102.81577)"
         id="path34" />
    </clipPath>
    <clipPath
       clipPathUnits="userSpaceOnUse"
       id="clipPath38">
      <path
         d="m 176,146 h 6 v 7.602 h -6 z"
         transform="translate(-175.67986,-153.92398)"
         id="path38" />
    </clipPath>
  </defs>
  <sodipodi:namedview
     id="namedview1"
     pagecolor="#ffffff"
     bordercolor="#999999"
     borderopacity="1"
     inkscape:showpageshadow="0"
     inkscape:pageopacity="0"
     inkscape:pagecheckerboard="0"
     inkscape:deskcolor="#d1d1d1">
    <inkscape:page
       x="0"
       y="0"
       id="page1"
       width="984"
       height="246.66667"
       margin="0"
       bleed="0" />
  </sodipodi:namedview>
  <g
     id="g1"
     inkscape:groupmode="layer"
     inkscape:label="">
    <path
       id="path1"
       d="m 0,69.816 33.512,27.93"
       style="fill:none;stroke:#000000;stroke-width:0.6144;stroke-linecap:square;stroke-linejoin:miter;stroke-miterlimit:3.25;stroke-dasharray:none;stroke-opacity:1"
       transform="scale(1.3333333)" />
    <path
       id="path2"
       d="m 19.332,85.926 -6.582,-2.574 2.863,-3.43 z"
       style="fill:#000000;fill-opacity:1;fill-rule:evenodd;stroke:none"
       transform="scale(1.3333333)" />
    <path
       id="path3"
       d="m 7.8751088,-6.1649276 c 0.1757812,0.3632813 0.2460937,0.796875 0.2226562,1.2890625 0,0.3398438 -0.070312,0.8671875 -0.2226562,1.6171875 H 2.4962025 c -0.140625,0.7382813 -0.082031,1.3359375 0.1523438,1.7929688 0.2226562,0.4453125 0.6796875,0.66796874 1.3828125,0.66796874 0.6328125,0 1.1953125,-0.21093754 1.6640625,-0.64453124 0.2695312,-0.234375 0.4921875,-0.515625 0.6445312,-0.8554688 h 1.21875 c -0.09375,0.28125 -0.2578125,0.5742188 -0.515625,0.9140625 -0.2460937,0.3164063 -0.5039062,0.59765629 -0.7734375,0.79687504 -0.4453125,0.375 -0.9609375,0.609375 -1.546875,0.73828125 -0.3164062,0.0703125 -0.65625,0.1171875 -1.03125,0.1171875 -0.9023437,0 -1.6171875,-0.33984375 -2.109375,-0.99609375 C 1.0899525,-1.3836776 0.98448375,-2.3211776 1.2305775,-3.5164901 1.48839,-4.6883651 2.004015,-5.6493026 2.80089,-6.3875838 c 0.7851563,-0.7265625 1.6992188,-1.0898438 2.7304688,-1.0898438 0.515625,0 0.9960937,0.1289063 1.4414062,0.3632813 0.4335938,0.234375 0.7265625,0.5625 0.9023438,0.9492187 z m -1.0664063,1.921875 c 0.058594,-0.5273437 0.035156,-0.9492187 -0.082031,-1.2773437 -0.2109375,-0.5859375 -0.703125,-0.890625 -1.4882813,-0.890625 -0.5742187,0 -1.0898437,0.2109375 -1.5585937,0.609375 -0.46875,0.4101562 -0.7851563,0.9257812 -0.9492188,1.5585937 z m 0,0"
       style="fill:#000000;fill-opacity:1;fill-rule:nonzero;stroke:none"
       aria-label="e"
       transform="matrix(1.3333333,0,0,1.3333333,8.45298,133.80193)" />
    <path
       id="path4"
       d="M 0,125.672 33.512,97.746"
       style="fill:none;stroke:#000000;stroke-width:0.6144;stroke-linecap:square;stroke-linejoin:miter;stroke-miterlimit:3.25;stroke-dasharray:none;stroke-opacity:1"
       transform="scale(1.3333333)" />
    <path
       id="path5"
       d="m 14.184,113.855 6.578,-2.574 -2.86,-3.433 z"
       style="fill:#000000;fill-opacity:1;fill-rule:evenodd;stroke:none"
       transform="scale(1.3333333)" />
    <path
       id="path6"
       d="m 7.8742739,-6.1634896 c 0.1757812,0.3632812 0.2460937,0.796875 0.2226562,1.2890625 0,0.3398437 -0.070312,0.8671875 -0.2226562,1.6171875 H 2.4953676 c -0.140625,0.7382812 -0.082031,1.3359375 0.1523438,1.7929687 0.2226562,0.4453125 0.6796875,0.66796878 1.3828125,0.66796878 0.6328125,0 1.1953125,-0.21093748 1.6640625,-0.64453128 0.2695312,-0.234375 0.4921875,-0.515625 0.6445312,-0.8554687 h 1.21875 c -0.09375,0.28125 -0.2578125,0.5742187 -0.515625,0.9140625 -0.2460937,0.3164062 -0.5039062,0.59765623 -0.7734375,0.79687498 -0.4453125,0.375 -0.9609375,0.609375 -1.546875,0.73828125 -0.3164062,0.0703125 -0.65625,0.1171875 -1.03125,0.1171875 -0.9023437,0 -1.6171875,-0.33984375 -2.109375,-0.99609375 C 1.0891176,-1.3822396 0.98364888,-2.3197396 1.2297426,-3.5150521 c 0.2578125,-1.171875 0.7734375,-2.1328125 1.5703125,-2.8710938 0.7851563,-0.7265625 1.6992188,-1.0898437 2.7304688,-1.0898437 0.515625,0 0.9960937,0.1289062 1.4414062,0.3632812 0.4335938,0.234375 0.7265625,0.5625 0.9023438,0.9492188 z m -1.0664063,1.921875 c 0.058594,-0.5273438 0.035156,-0.9492188 -0.082031,-1.2773438 -0.2109375,-0.5859375 -0.703125,-0.890625 -1.4882813,-0.890625 -0.5742187,0 -1.0898437,0.2109375 -1.5585937,0.609375 -0.46875,0.4101563 -0.7851563,0.9257813 -0.9492188,1.5585938 z m 0,0"
       style="fill:#000000;fill-opacity:1;fill-rule:nonzero;stroke:none"
       aria-label="e"
       transform="matrix(1.3333333,0,0,1.3333333,25.227531,171.0383)" />
    <path
       id="path7"
       d="M 111.711,69.816 78.195,97.746"
       style="fill:none;stroke:#000000;stroke-width:0.6144;stroke-linecap:square;stroke-linejoin:miter;stroke-miterlimit:3.25;stroke-dasharray:none;stroke-opacity:1"
       transform="scale(1.3333333)" />
    <path
       id="path8"
       d="m 97.527,81.637 -6.578,2.574 2.86,3.434 z"
       style="fill:#000000;fill-opacity:1;fill-rule:evenodd;stroke:none"
       transform="scale(1.3333333)" />
    <path
       id="path9"
       d="m 7.8750338,-6.1643334 c 0.1757813,0.3632812 0.2460938,0.796875 0.2226563,1.2890625 0,0.3398437 -0.070312,0.8671875 -0.2226563,1.6171875 H 2.4961276 c -0.140625,0.7382812 -0.082031,1.3359375 0.1523437,1.7929687 0.2226563,0.4453125 0.6796875,0.66796876 1.3828125,0.66796876 0.6328125,0 1.1953125,-0.21093746 1.6640625,-0.64453126 0.2695313,-0.234375 0.4921875,-0.515625 0.6445313,-0.8554687 h 1.21875 c -0.09375,0.28125 -0.2578125,0.5742187 -0.515625,0.9140625 -0.2460938,0.3164062 -0.5039063,0.59765621 -0.7734375,0.79687496 -0.4453125,0.375 -0.9609375,0.609375 -1.546875,0.73828125 -0.3164063,0.0703125 -0.65625,0.1171875 -1.03125,0.1171875 -0.9023438,0 -1.6171875,-0.33984375 -2.109375,-0.99609375 C 1.0898776,-1.3830834 0.98440881,-2.3205834 1.2305026,-3.5158959 c 0.2578125,-1.171875 0.7734375,-2.1328125 1.5703125,-2.8710938 0.7851562,-0.7265625 1.6992187,-1.0898437 2.7304687,-1.0898437 0.515625,0 0.9960938,0.1289062 1.4414063,0.3632812 0.4335937,0.234375 0.7265625,0.5625 0.9023437,0.9492188 z m -1.0664062,1.921875 c 0.058594,-0.5273438 0.035156,-0.9492188 -0.082031,-1.2773438 -0.2109375,-0.5859375 -0.703125,-0.890625 -1.4882812,-0.890625 -0.5742188,0 -1.0898438,0.2109375 -1.5585938,0.609375 -0.46875,0.4101563 -0.7851562,0.9257813 -0.9492187,1.5585938 z m 0,0"
       style="fill:#000000;fill-opacity:1;fill-rule:nonzero;stroke:none"
       aria-label="e"
       transform="matrix(1.3333333,0,0,1.3333333,112.7148,103.13708)" />
    <path
       id="path10"
       d="M 111.711,125.672 78.195,97.746"
       style="fill:none;stroke:#000000;stroke-width:0.6144;stroke-linecap:square;stroke-linejoin:miter;stroke-miterlimit:3.25;stroke-dasharray:none;stroke-opacity:1"
       transform="scale(1.3333333)" />
    <path
       id="path11"
       d="m 92.379,109.562 6.578,2.575 -2.859,3.433 z"
       style="fill:#000000;fill-opacity:1;fill-rule:evenodd;stroke:none"
       transform="scale(1.3333333)" />
    <path
       id="path12"
       d="m 7.8741989,-6.1628955 c 0.1757813,0.3632812 0.2460938,0.796875 0.2226563,1.2890625 0,0.3398437 -0.070312,0.8671875 -0.2226563,1.6171875 H 2.4952927 c -0.140625,0.7382812 -0.082031,1.3359375 0.1523437,1.7929687 0.2226563,0.4453125 0.6796875,0.6679688 1.3828125,0.6679688 0.6328125,0 1.1953125,-0.2109375 1.6640625,-0.6445313 0.2695313,-0.234375 0.4921875,-0.515625 0.6445313,-0.8554687 h 1.21875 c -0.09375,0.28125 -0.2578125,0.5742187 -0.515625,0.9140625 -0.2460938,0.3164062 -0.5039063,0.59765625 -0.7734375,0.796875 -0.4453125,0.375 -0.9609375,0.609375 -1.546875,0.73828125 -0.3164063,0.0703125 -0.65625,0.1171875 -1.03125,0.1171875 -0.9023438,0 -1.6171875,-0.33984375 -2.109375,-0.99609375 -0.4921875,-0.65625 -0.59765626,-1.59375 -0.3515625,-2.7890625 0.2578125,-1.171875 0.7734375,-2.1328125 1.5703125,-2.8710938 0.7851562,-0.7265625 1.6992187,-1.0898437 2.7304687,-1.0898437 0.515625,0 0.9960938,0.1289062 1.4414063,0.3632812 0.4335937,0.234375 0.7265625,0.5625 0.9023437,0.9492188 z m -1.0664062,1.921875 c 0.058594,-0.5273438 0.035156,-0.9492188 -0.082031,-1.2773438 -0.2109375,-0.5859375 -0.703125,-0.890625 -1.4882812,-0.890625 -0.5742188,0 -1.0898438,0.2109375 -1.5585938,0.609375 -0.46875,0.4101563 -0.7851562,0.9257813 -0.9492187,1.5585938 z m 0,0"
       style="fill:#000000;fill-opacity:1;fill-rule:nonzero;stroke:none"
       aria-label="e"
       transform="matrix(1.3333333,0,0,1.3333333,129.48935,140.37344)" />
    <path
       id="path13"
       d="m 78.195,97.746 -0.558,-0.484 -0.559,-0.422 -0.558,-0.313 -0.559,-0.16 -0.559,0.008 -0.558,0.18 -0.559,0.328 -0.558,0.433 -0.559,0.485 -0.559,0.48 -0.558,0.414 -0.559,0.297 -0.558,0.141 -0.559,-0.028 -0.559,-0.199 -0.558,-0.34 -0.559,-0.441 -0.558,-0.488 -0.559,-0.473 -0.559,-0.406 -0.558,-0.278 -0.555,-0.125 -0.558,0.047 -0.559,0.215 -0.559,0.356 -0.558,0.449 -0.559,0.488 -0.558,0.473 -0.559,0.39 -0.559,0.266 -0.558,0.106 -0.559,-0.071 -0.558,-0.23 -0.559,-0.367 -0.559,-0.457 -0.558,-0.493 -0.559,-0.461 -0.558,-0.378 -0.559,-0.25 -0.559,-0.086 -0.558,0.086 -0.559,0.25 -0.558,0.378 -0.559,0.461 -0.559,0.493 -0.558,0.457 -0.559,0.367 -0.558,0.23 -0.559,0.071 -0.558,-0.106 -0.559,-0.266 -0.559,-0.39 -0.558,-0.473 -0.559,-0.488 -0.558,-0.449 -0.559,-0.356 -0.559,-0.215 -0.558,-0.047 -0.559,0.125 -0.558,0.278 -0.559,0.406 -0.559,0.473 -0.558,0.488 -0.559,0.441 -0.558,0.34 -0.559,0.199 -0.559,0.028 -0.558,-0.141 -0.559,-0.297 -0.558,-0.414 -0.559,-0.48 -0.559,-0.485 -0.558,-0.433 -0.559,-0.328 -0.558,-0.18 -0.559,-0.008 -0.558,0.16 -0.559,0.313 -0.559,0.422 -0.558,0.484"
       style="fill:none;stroke:#000000;stroke-width:0.6144;stroke-linecap:square;stroke-linejoin:miter;stroke-miterlimit:3.25;stroke-dasharray:none;stroke-opacity:1"
       transform="scale(1.3333333)" />
    <path
       id="path14"
       d="m 8.37983,-7.2552947 -4.2773438,7.2539062 v 0.140625 c 0,0.0820313 0.011719,0.1640625 0.011719,0.24609375 0,0.09375 0,0.17578125 0,0.2578125 0,0.12890625 0,0.26953125 -0.011719,0.42187505 C 4.0907675,1.2290803 4.06733,1.4048615 4.0321737,1.5806428 4.0087362,1.7447053 3.9618612,1.9204865 3.926705,2.0962678 3.8681112,2.272049 3.7977987,2.4243928 3.7157675,2.5415803 3.6337362,2.6822053 3.5282675,2.7993928 3.3993612,2.881424 3.2938925,2.9634553 3.1532675,3.0103303 2.989205,3.0103303 2.8602987,3.0103303 2.7431112,2.9868928 2.6493612,2.928299 2.5438925,2.8697053 2.4618612,2.8111115 2.3915487,2.7290803 2.3212362,2.647049 2.2743612,2.5415803 2.239205,2.4361115 2.2040487,2.318924 2.1806112,2.2017365 2.1806112,2.084549 c 0,-0.2226562 0.035156,-0.421875 0.058594,-0.5976562 C 2.28608,1.2993928 2.3212362,1.1353303 2.3915487,0.959549 2.4501425,0.80720525 2.520455,0.64314275 2.6024862,0.47908025 2.6845175,0.31501775 2.7782675,0.1392365 2.8720175,-0.05998225 L 1.72358,-7.2552947 h 1.2890625 l 0.8085937,5.7304687 3.3046875,-5.7304687 z m 0,0"
       style="fill:#000000;fill-opacity:1;fill-rule:nonzero;stroke:none"
       aria-label="γ"
       transform="matrix(1.3333333,0,0,1.3333333,69.264393,155.0956)"
       clip-path="url(#clipPath15)" />
    <path
       id="path16"
       d="m 35.969,97.746 c 0,0.652 -0.258,1.277 -0.719,1.738 -0.461,0.461 -1.086,0.719 -1.738,0.719 -0.653,0 -1.278,-0.258 -1.739,-0.719 -0.461,-0.461 -0.718,-1.086 -0.718,-1.738 0,-0.652 0.257,-1.277 0.718,-1.738 0.461,-0.461 1.086,-0.719 1.739,-0.719 0.652,0 1.277,0.258 1.738,0.719 0.461,0.461 0.719,1.086 0.719,1.738 z"
       style="fill:#000000;fill-opacity:1;fill-rule:evenodd;stroke:none"
       transform="scale(1.3333333)" />
    <path
       id="path17"
       d="m 80.652,97.746 c 0,0.652 -0.257,1.277 -0.718,1.738 -0.461,0.461 -1.086,0.719 -1.739,0.719 -0.652,0 -1.277,-0.258 -1.738,-0.719 -0.461,-0.461 -0.719,-1.086 -0.719,-1.738 0,-0.652 0.258,-1.277 0.719,-1.738 0.461,-0.461 1.086,-0.719 1.738,-0.719 0.653,0 1.278,0.258 1.739,0.719 0.461,0.461 0.718,1.086 0.718,1.738 z"
       style="fill:#000000;fill-opacity:1;fill-rule:evenodd;stroke:none"
       transform="scale(1.3333333)" />
    <path
       id="path18"
       d="m 1.0419389,-5.4503442 v -0.7382812 c 0.703125,-0.058594 1.1953125,-0.1875 1.4648437,-0.3398438 0.28125,-0.1523437 0.4804688,-0.5390625 0.6210938,-1.1367187 h 0.7617187 v 7.66406246 h -1.03125 V -5.4503442 Z m 0,0"
       style="fill:#000000;fill-opacity:1;fill-rule:nonzero;stroke:none"
       aria-label="1"
       transform="matrix(1.3333333,0,0,1.3333333,70.399811,205.23197)"
       clip-path="url(#clipPath19)" />
    <path
       id="path20"
       d="m 122.879,69.816 55.855,5.586"
       style="fill:none;stroke:#000000;stroke-width:0.6144;stroke-linecap:square;stroke-linejoin:miter;stroke-miterlimit:3.25;stroke-dasharray:none;stroke-opacity:1"
       transform="scale(1.3333333)" />
    <path
       id="path21"
       d="m 154.141,72.945 -6.891,1.555 0.445,-4.445 z"
       style="fill:#000000;fill-opacity:1;fill-rule:evenodd;stroke:none"
       transform="scale(1.3333333)" />
    <path
       id="path22"
       d="m 7.8746839,-6.1627447 c 0.1757813,0.3632813 0.2460938,0.796875 0.2226563,1.2890625 0,0.3398438 -0.070312,0.8671875 -0.2226563,1.6171875 H 2.4957777 c -0.140625,0.7382813 -0.082031,1.3359375 0.1523437,1.7929688 0.2226563,0.4453125 0.6796875,0.66796871 1.3828125,0.66796871 0.6328125,0 1.1953125,-0.21093751 1.6640625,-0.64453121 0.2695313,-0.234375 0.4921875,-0.515625 0.6445313,-0.8554688 h 1.21875 c -0.09375,0.28125 -0.2578125,0.5742188 -0.515625,0.9140625 -0.2460938,0.3164063 -0.5039063,0.59765626 -0.7734375,0.79687501 -0.4453125,0.375 -0.9609375,0.609375 -1.546875,0.73828125 -0.3164063,0.0703125 -0.65625,0.1171875 -1.03125,0.1171875 -0.9023438,0 -1.6171875,-0.33984375 -2.109375,-0.99609375 C 1.0895277,-1.3814947 0.98405894,-2.3189947 1.2301527,-3.5143072 c 0.2578125,-1.171875 0.7734375,-2.1328125 1.5703125,-2.8710937 0.7851562,-0.7265625 1.6992187,-1.0898438 2.7304687,-1.0898438 0.515625,0 0.9960938,0.1289063 1.4414063,0.3632813 0.4335937,0.234375 0.7265625,0.5625 0.9023437,0.9492187 z m -1.0664062,1.921875 c 0.058594,-0.5273437 0.035156,-0.9492187 -0.082031,-1.2773437 -0.2109375,-0.5859375 -0.703125,-0.890625 -1.4882812,-0.890625 -0.5742188,0 -1.0898438,0.2109375 -1.5585938,0.609375 -0.46875,0.4101562 -0.7851562,0.9257812 -0.9492187,1.5585937 z m 0,0"
       style="fill:#000000;fill-opacity:1;fill-rule:nonzero;stroke:none"
       aria-label="e"
       transform="matrix(1.3333333,0,0,1.3333333,194.4262,121.52559)" />
    <path
       id="path23"
       d="m 122.879,125.672 55.855,-5.586"
       style="fill:none;stroke:#000000;stroke-width:0.6144;stroke-linecap:square;stroke-linejoin:miter;stroke-miterlimit:3.25;stroke-dasharray:none;stroke-opacity:1"
       transform="scale(1.3333333)" />
    <path
       id="path24"
       d="m 147.473,123.215 6.89,1.555 -0.445,-4.446 z"
       style="fill:#000000;fill-opacity:1;fill-rule:evenodd;stroke:none"
       transform="scale(1.3333333)" />
    <path
       id="path25"
       d="m 7.8744422,-6.1642576 c 0.1757812,0.3632813 0.2460937,0.796875 0.2226562,1.2890625 0,0.3398438 -0.070312,0.8671875 -0.2226562,1.6171875 H 2.4955359 c -0.140625,0.7382813 -0.082031,1.3359375 0.1523438,1.7929688 0.2226562,0.4453125 0.6796875,0.66796874 1.3828125,0.66796874 0.6328125,0 1.1953125,-0.21093754 1.6640625,-0.64453124 0.2695312,-0.234375 0.4921875,-0.515625 0.6445312,-0.8554688 h 1.21875 c -0.09375,0.28125 -0.2578125,0.5742188 -0.515625,0.9140625 -0.2460937,0.3164063 -0.5039062,0.59765629 -0.7734375,0.79687504 -0.4453125,0.375 -0.9609375,0.609375 -1.546875,0.73828125 -0.3164062,0.0703125 -0.65625,0.1171875 -1.03125,0.1171875 -0.9023437,0 -1.6171875,-0.33984375 -2.109375,-0.99609375 C 1.0892859,-1.3830076 0.98381719,-2.3205076 1.2299109,-3.5158201 c 0.2578125,-1.171875 0.7734375,-2.1328125 1.5703125,-2.8710937 0.7851563,-0.7265625 1.6992188,-1.0898438 2.7304688,-1.0898438 0.515625,0 0.9960937,0.1289063 1.4414062,0.3632813 0.4335938,0.234375 0.7265625,0.5625 0.9023438,0.9492187 z m -1.0664063,1.921875 c 0.058594,-0.5273437 0.035156,-0.9492187 -0.082031,-1.2773437 -0.2109375,-0.5859375 -0.703125,-0.890625 -1.4882813,-0.890625 -0.5742187,0 -1.0898437,0.2109375 -1.5585937,0.609375 -0.46875,0.4101562 -0.7851563,0.9257812 -0.9492188,1.5585937 z m 0,0"
       style="fill:#000000;fill-opacity:1;fill-rule:nonzero;stroke:none"
       aria-label="e"
       transform="matrix(1.3333333,0,0,1.3333333,196.7234,188.55104)" />
    <path
       id="path26"
       d="m 234.59,69.816 -55.856,5.586"
       style="fill:none;stroke:#000000;stroke-width:0.6144;stroke-linecap:square;stroke-linejoin:miter;stroke-miterlimit:3.25;stroke-dasharray:none;stroke-opacity:1"
       transform="scale(1.3333333)" />
    <path
       id="path27"
       d="m 209.996,72.277 -6.891,-1.554 0.446,4.445 z"
       style="fill:#000000;fill-opacity:1;fill-rule:evenodd;stroke:none"
       transform="scale(1.3333333)" />
    <path
       id="path28"
       d="m 7.8746311,-6.1635655 c 0.1757813,0.3632812 0.2460938,0.796875 0.2226563,1.2890625 0,0.3398437 -0.070312,0.8671875 -0.2226563,1.6171875 H 2.4957249 c -0.140625,0.7382812 -0.082031,1.3359375 0.1523437,1.7929687 0.2226563,0.4453125 0.6796875,0.6679688 1.3828125,0.6679688 0.6328125,0 1.1953125,-0.2109375 1.6640625,-0.6445313 0.2695313,-0.234375 0.4921875,-0.515625 0.6445313,-0.8554687 h 1.21875 c -0.09375,0.28125 -0.2578125,0.5742187 -0.515625,0.9140625 -0.2460938,0.3164062 -0.5039063,0.59765625 -0.7734375,0.796875 -0.4453125,0.375 -0.9609375,0.609375 -1.546875,0.73828125 -0.3164063,0.0703125 -0.65625,0.1171875 -1.03125,0.1171875 -0.9023438,0 -1.6171875,-0.33984375 -2.109375,-0.99609375 -0.4921875,-0.65625 -0.59765627,-1.59375 -0.3515625,-2.7890625 0.2578125,-1.171875 0.7734375,-2.1328125 1.5703125,-2.8710938 0.7851562,-0.7265625 1.6992187,-1.0898437 2.7304687,-1.0898437 0.515625,0 0.9960938,0.1289062 1.4414063,0.3632812 0.4335937,0.234375 0.7265625,0.5625 0.9023437,0.9492188 z m -1.0664062,1.921875 c 0.058594,-0.5273438 0.035156,-0.9492188 -0.082031,-1.2773438 -0.2109375,-0.5859375 -0.703125,-0.890625 -1.4882812,-0.890625 -0.5742188,0 -1.0898438,0.2109375 -1.5585938,0.609375 -0.46875,0.4101563 -0.7851562,0.9257813 -0.9492187,1.5585938 z m 0,0"
       style="fill:#000000;fill-opacity:1;fill-rule:nonzero;stroke:none"
       aria-label="e"
       transform="matrix(1.3333333,0,0,1.3333333,268.89893,85.624337)" />
    <path
       id="path29"
       d="m 234.59,125.672 -55.856,-5.586"
       style="fill:none;stroke:#000000;stroke-width:0.6144;stroke-linecap:square;stroke-linejoin:miter;stroke-miterlimit:3.25;stroke-dasharray:none;stroke-opacity:1"
       transform="scale(1.3333333)" />
    <path
       id="path30"
       d="m 203.328,122.547 6.891,-1.555 -0.446,4.446 z"
       style="fill:#000000;fill-opacity:1;fill-rule:evenodd;stroke:none"
       transform="scale(1.3333333)" />
    <path
       id="path31"
       d="m 7.8743894,-6.1650784 c 0.1757812,0.3632813 0.2460937,0.796875 0.2226562,1.2890625 0,0.3398438 -0.070312,0.8671875 -0.2226562,1.6171875 H 2.4954831 c -0.140625,0.7382813 -0.082031,1.3359375 0.1523438,1.7929688 0.2226562,0.4453125 0.6796875,0.66796873 1.3828125,0.66796873 0.6328125,0 1.1953125,-0.21093753 1.6640625,-0.64453123 0.2695312,-0.234375 0.4921875,-0.515625 0.6445312,-0.8554688 h 1.21875 c -0.09375,0.28125 -0.2578125,0.5742188 -0.515625,0.9140625 -0.2460937,0.3164063 -0.5039062,0.59765628 -0.7734375,0.79687503 -0.4453125,0.375 -0.9609375,0.609375 -1.546875,0.73828125 -0.3164062,0.0703125 -0.65625,0.1171875 -1.03125,0.1171875 -0.9023437,0 -1.6171875,-0.33984375 -2.109375,-0.99609375 C 1.0892331,-1.3838284 0.98376437,-2.3213284 1.2298581,-3.5166409 c 0.2578125,-1.171875 0.7734375,-2.1328125 1.5703125,-2.8710937 0.7851563,-0.7265625 1.6992188,-1.0898438 2.7304688,-1.0898438 0.515625,0 0.9960937,0.1289063 1.4414062,0.3632813 0.4335938,0.234375 0.7265625,0.5625 0.9023438,0.9492187 z m -1.0664063,1.921875 c 0.058594,-0.5273437 0.035156,-0.9492187 -0.082031,-1.2773437 -0.2109375,-0.5859375 -0.703125,-0.890625 -1.4882813,-0.890625 -0.5742187,0 -1.0898437,0.2109375 -1.5585937,0.609375 -0.46875,0.4101562 -0.7851563,0.9257812 -0.9492188,1.5585937 z m 0,0"
       style="fill:#000000;fill-opacity:1;fill-rule:nonzero;stroke:none"
       aria-label="e"
       transform="matrix(1.3333333,0,0,1.3333333,271.19613,152.64979)" />
    <path
       id="path32"
       d="m 178.734,120.086 0.485,-0.559 0.422,-0.558 0.312,-0.559 0.16,-0.558 -0.008,-0.559 -0.179,-0.559 -0.328,-0.558 -0.434,-0.559 -0.484,-0.558 -0.481,-0.559 -0.414,-0.555 -0.297,-0.558 -0.14,-0.559 0.027,-0.558 0.195,-0.559 0.344,-0.559 0.441,-0.558 0.489,-0.559 0.472,-0.558 0.403,-0.559 0.281,-0.559 0.125,-0.558 -0.047,-0.559 -0.215,-0.558 -0.355,-0.559 -0.449,-0.559 -0.489,-0.558 -0.472,-0.559 -0.391,-0.558 -0.266,-0.559 -0.105,-0.559 0.07,-0.558 0.231,-0.559 0.367,-0.558 0.457,-0.559 0.488,-0.559 0.465,-0.558 0.379,-0.559 0.25,-0.558 0.086,-0.559 -0.086,-0.558 -0.25,-0.559 -0.379,-0.559 -0.465,-0.558 -0.488,-0.559 -0.457,-0.558 -0.367,-0.559 -0.231,-0.559 -0.07,-0.558 0.105,-0.559 0.266,-0.558 0.391,-0.559 0.472,-0.559 0.489,-0.558 0.449,-0.559 0.355,-0.558 0.215,-0.559 0.047,-0.559 -0.125,-0.558 -0.281,-0.559 -0.403,-0.558 -0.472,-0.559 -0.489,-0.559 -0.441,-0.558 -0.344,-0.559 -0.195,-0.558 -0.027,-0.559 0.14,-0.559 0.297,-0.558 0.414,-0.559 0.481,-0.558 0.484,-0.559 0.434,-0.559 0.328,-0.558 0.179,-0.559 0.008,-0.558 -0.16,-0.559 -0.312,-0.558 -0.422,-0.559 -0.485,-0.559"
       style="fill:none;stroke:#000000;stroke-width:0.6144;stroke-linecap:square;stroke-linejoin:miter;stroke-miterlimit:3.25;stroke-dasharray:none;stroke-opacity:1"
       transform="scale(1.3333333)" />
    <path
       id="path33"
       d="m 8.3778338,-7.2552201 -4.2773437,7.25390623 v 0.140625 c 0,0.0820313 0.011719,0.1640625 0.011719,0.24609375 0,0.09375 0,0.17578125 0,0.2578125 0,0.12890625 0,0.26953125 -0.011719,0.42187502 -0.011719,0.1640625 -0.035156,0.3398437 -0.070312,0.515625 -0.023437,0.1640625 -0.070312,0.3398437 -0.1054688,0.515625 -0.058594,0.1757812 -0.1289062,0.328125 -0.2109375,0.4453125 -0.082031,0.140625 -0.1875,0.2578125 -0.3164062,0.3398437 -0.1054688,0.082031 -0.2460938,0.1289063 -0.4101563,0.1289063 -0.1289062,0 -0.2460937,-0.023437 -0.3398437,-0.082031 C 2.5418963,2.8697799 2.4598651,2.8111861 2.3895526,2.7291549 2.3192401,2.6471236 2.2723651,2.5416549 2.2372088,2.4361861 2.2020526,2.3189986 2.1786151,2.2018111 2.1786151,2.0846236 c 0,-0.2226562 0.035156,-0.421875 0.058594,-0.5976562 0.046875,-0.1875 0.082031,-0.3515625 0.1523438,-0.52734377 0.058594,-0.15234375 0.1289062,-0.31640625 0.2109375,-0.48046875 0.082031,-0.1640625 0.1757812,-0.33984375 0.2695312,-0.5390625 L 1.7215838,-7.2552201 h 1.2890625 l 0.8085938,5.7304687 3.3046875,-5.7304687 z m 0,0"
       style="fill:#000000;fill-opacity:1;fill-rule:nonzero;stroke:none"
       aria-label="γ"
       transform="matrix(1.3333333,0,0,1.3333333,220.8569,137.08769)"
       clip-path="url(#clipPath34)" />
    <path
       id="path35"
       d="m 181.191,75.402 c 0,0.653 -0.257,1.278 -0.718,1.739 -0.461,0.461 -1.086,0.718 -1.739,0.718 -0.652,0 -1.277,-0.257 -1.738,-0.718 -0.461,-0.461 -0.719,-1.086 -0.719,-1.739 0,-0.652 0.258,-1.277 0.719,-1.738 0.461,-0.461 1.086,-0.719 1.738,-0.719 0.653,0 1.278,0.258 1.739,0.719 0.461,0.461 0.718,1.086 0.718,1.738 z"
       style="fill:#000000;fill-opacity:1;fill-rule:evenodd;stroke:none"
       transform="scale(1.3333333)" />
    <path
       id="path36"
       d="m 181.191,120.086 c 0,0.652 -0.257,1.277 -0.718,1.738 -0.461,0.461 -1.086,0.719 -1.739,0.719 -0.652,0 -1.277,-0.258 -1.738,-0.719 -0.461,-0.461 -0.719,-1.086 -0.719,-1.738 0,-0.652 0.258,-1.277 0.719,-1.738 0.461,-0.461 1.086,-0.719 1.738,-0.719 0.653,0 1.278,0.258 1.739,0.719 0.461,0.461 0.718,1.086 0.718,1.738 z"
       style="fill:#000000;fill-opacity:1;fill-rule:evenodd;stroke:none"
       transform="scale(1.3333333)" />
    <path
       id="path37"
       d="m 0.33869669,-0.00112544 c 0.0351563,-0.65625 0.1640625,-1.23046876 0.41015625,-1.72265626 0.24609375,-0.4921875 0.70312496,-0.9375 1.39453126,-1.3359375 l 1.03125,-0.609375 c 0.46875,-0.2578125 0.7851562,-0.4921875 0.9726562,-0.6796875 0.2929688,-0.2929687 0.4453125,-0.6328125 0.4453125,-1.0195312 0,-0.4453125 -0.140625,-0.8085938 -0.4101562,-1.0664063 -0.2695313,-0.2695312 -0.6328125,-0.3984375 -1.0664063,-0.3984375 -0.6796875,0 -1.125,0.2460938 -1.3828125,0.7617188 -0.140625,0.2578125 -0.1992187,0.6328125 -0.2226562,1.1132812 H 0.52619669 c 0.0117188,-0.6796875 0.12890625,-1.21875 0.375,-1.640625 0.42187501,-0.7382812 1.16015621,-1.1132812 2.21484371,-1.1132812 0.8789063,0 1.5234375,0.2226562 1.9335938,0.7148437 0.4101562,0.46875 0.609375,0.9960938 0.609375,1.5820313 0,0.6210937 -0.2226563,1.1484375 -0.65625,1.5820312 -0.2460938,0.2578125 -0.703125,0.5625 -1.3359375,0.9257813 l -0.7382813,0.4101562 c -0.3515625,0.1992188 -0.6328125,0.375 -0.84375,0.5507813 -0.3515625,0.3164062 -0.5742187,0.65625 -0.6679687,1.03124996 h 4.2070312 v 0.9140625 z m 0,0"
       style="fill:#000000;fill-opacity:1;fill-rule:nonzero;stroke:none"
       aria-label="2"
       transform="matrix(1.3333333,0,0,1.3333333,234.23981,205.23197)"
       clip-path="url(#clipPath38)" />
  </g>
</svg>
