<?xml version="1.0" encoding="UTF-8" standalone="no"?>
<!-- Created with Inkscape (http://www.inkscape.org/) -->

<svg
   version="1.1"
   id="svg1"
   width="492"
   height="246.66667"
   viewBox="0 0 492 246.66667"
   sodipodi:docname="11yqcu0tiph7r.pdf"
   xmlns:inkscape="http://www.inkscape.org/namespaces/inkscape"
   xmlns:sodipodi="http://sodipodi.sourceforge.net/DTD/sodipodi-0.dtd"
   xmlns="http://www.w3.org/2000/svg"
   xmlns:svg="http://www.w3.org/2000/svg">
  <defs
     id="defs1">
    <clipPath
       clipPathUnits="userSpaceOnUse"
       id="clipPath3">
      <path
         d="m 22,117 h 9.68 v 16 H 22 Z"
         transform="translate(-19.556421,-128.41037)"
         id="path3" />
    </clipPath>
    <clipPath
       clipPathUnits="userSpaceOnUse"
       id="clipPath15">
      <path
         d="m 80,172 h 5 v 12.32 h -5 z"
         transform="translate(-79.055259,-184.68097)"
         id="path15" />
    </clipPath>
    <clipPath
       clipPathUnits="userSpaceOnUse"
       id="clipPath18">
      <path
         d="m 220,110 h 12.801 v 19 H 220 Z"
         transform="translate(-220.63279,-128.41037)"
         id="path18" />
    </clipPath>
    <clipPath
       clipPathUnits="userSpaceOnUse"
       id="clipPath21">
      <path
         d="m 304,69 h 12.559 V 88 H 304 Z"
         transform="translate(-304.41461,-87.884755)"
         id="path21" />
    </clipPath>
    <clipPath
       clipPathUnits="userSpaceOnUse"
       id="clipPath25">
      <path
         d="m 263,172 h 10 v 12.32 h -10 z"
         transform="translate(-263.37526,-184.68097)"
         id="path25" />
    </clipPath>
  </defs>
  <sodipodi:namedview
     id="namedview1"
     pagecolor="#ffffff"
     bordercolor="#999999"
     borderopacity="1"
     inkscape:showpageshadow="0"
     inkscape:pageopacity="0"
     inkscape:pagecheckerboard="0"
     inkscape:deskcolor="#d1d1d1">
    <inkscape:page
       x="0"
       y="0"
       id="page1"
       width="492"
       height="246.66667"
       margin="0"
       bleed="0" />
  </sodipodi:namedview>
  <g
     id="g1"
     inkscape:groupmode="layer"
     inkscape:label="">
    <path
       id="path1"
       d="m 50.27,100.539 -0.84,-0.75 -0.836,-0.652 -0.84,-0.465 -0.836,-0.215 -0.84,0.059 -0.836,0.328 -0.84,0.554 -0.836,0.707 -0.836,0.762 -0.839,0.719 -0.836,0.582 -0.84,0.363 -0.836,0.102 -0.84,-0.18 -0.836,-0.433 -0.84,-0.629 -0.836,-0.743 -0.839,-0.757 -0.836,-0.668 -0.84,-0.496 -0.836,-0.254 -0.84,0.019 -0.836,0.293 -0.84,0.524 -0.836,0.687 -0.84,0.762 -0.836,0.734 -0.839,0.606 -0.836,0.398 -0.84,0.137 -0.836,-0.137 -0.84,-0.398 -0.836,-0.606 -0.836,-0.734 -0.84,-0.762 -0.836,-0.687 -0.839,-0.524 -0.836,-0.293 -0.84,-0.019 -0.836,0.254 -0.84,0.496 -0.836,0.668 -0.84,0.757 -0.836,0.743 -0.84,0.629 -0.836,0.433 -0.839,0.18 -0.836,-0.102 -0.84,-0.363 -0.836,-0.582 -0.84,-0.719 L 6.703,100.105 5.863,99.398 5.027,98.844 4.188,98.516 3.352,98.457 2.516,98.672 1.676,99.137 0.84,99.789 0,100.539"
       style="fill:none;stroke:#000000;stroke-width:0.9216;stroke-linecap:square;stroke-linejoin:miter;stroke-miterlimit:3.25;stroke-dasharray:none;stroke-opacity:1"
       transform="scale(1.3333333)" />
    <path
       id="path2"
       d="M 12.057838,-10.440637 5.9054941,7.688125e-4 V 0.19998756 c 0,0.12890625 0.023437,0.24609375 0.023437,0.36328125 0,0.1171875 0,0.24609375 0,0.36328125 0,0.18750004 0,0.38671874 -0.023437,0.60937504 -0.023437,0.234375 -0.058594,0.4804687 -0.1054688,0.7382812 -0.035156,0.2460938 -0.09375,0.4921875 -0.1523437,0.75 -0.082031,0.2460938 -0.1875,0.46875 -0.3046875,0.6445313 -0.1289063,0.1992187 -0.2695313,0.3632812 -0.4453125,0.4804687 -0.1640625,0.1289063 -0.3632813,0.1875 -0.609375,0.1875 -0.1757813,0 -0.3398438,-0.046875 -0.4804688,-0.1289062 C 3.6672128,4.1374876 3.5500253,4.0554563 3.4445566,3.9265501 3.3508066,3.8093626 3.2687753,3.6687376 3.2219003,3.5046751 3.1633066,3.3523313 3.1398691,3.1648313 3.1398691,3.0007688 c 0,-0.3164062 0.046875,-0.5976562 0.082031,-0.8671875 C 3.2804941,1.8757688 3.3508066,1.6296751 3.4445566,1.3953001 3.5265878,1.1726438 3.6320566,0.92655006 3.7492441,0.68045631 3.8664316,0.46951881 3.9953378,0.19998756 4.1359628,-0.08126244 L 2.4836191,-10.440637 h 1.8515625 l 1.171875,8.2499996 4.7460934,-8.2499996 z m 0,0"
       style="fill:#000000;fill-opacity:1;fill-rule:nonzero;stroke:none"
       aria-label="γ"
       transform="matrix(1.3333333,0,0,1.3333333,26.075227,171.21382)"
       clip-path="url(#clipPath3)" />
    <path
       id="path4"
       d="m 117.293,100.539 0.84,0.75 0.836,0.652 0.84,0.461 0.836,0.219 0.839,-0.059 0.836,-0.332 0.84,-0.55 0.836,-0.707 0.84,-0.762 0.836,-0.723 0.84,-0.578 0.836,-0.363 0.84,-0.102 0.835,0.18 0.84,0.43 0.836,0.629 0.84,0.742 0.836,0.758 0.84,0.671 0.836,0.497 0.84,0.253 0.836,-0.019 0.835,-0.293 0.84,-0.527 0.836,-0.688 0.84,-0.762 0.836,-0.73 0.84,-0.606 0.836,-0.398 0.84,-0.141 0.836,0.141 0.839,0.398 0.836,0.606 0.84,0.73 0.836,0.762 0.84,0.688 0.836,0.527 0.84,0.293 0.836,0.019 0.84,-0.253 0.836,-0.497 0.839,-0.671 0.836,-0.758 0.84,-0.742 0.836,-0.629 0.84,-0.43 0.836,-0.18 0.84,0.102 0.836,0.363 0.84,0.578 0.835,0.723 0.836,0.762 0.84,0.707 0.836,0.55 0.84,0.332 0.836,0.059 0.84,-0.219 0.836,-0.461 0.84,-0.652 0.835,-0.75"
       style="fill:none;stroke:#000000;stroke-width:0.9216;stroke-linecap:square;stroke-linejoin:miter;stroke-miterlimit:3.25;stroke-dasharray:none;stroke-opacity:1"
       transform="scale(1.3333333)" />
    <path
       id="path5"
       d="M 12.05919,-10.44139 5.9068465,1.6625e-5 V 0.19923538 c 0,0.12890625 0.023437,0.24609375 0.023437,0.36328125 0,0.1171875 0,0.24609375 0,0.36328125 0,0.18750002 0,0.38671872 -0.023437,0.60937502 -0.023437,0.234375 -0.058594,0.4804687 -0.1054688,0.7382812 -0.035156,0.2460938 -0.09375,0.4921875 -0.1523437,0.75 -0.082031,0.2460938 -0.1875,0.46875 -0.3046875,0.6445313 -0.1289063,0.1992187 -0.2695313,0.3632812 -0.4453125,0.4804687 -0.1640625,0.1289063 -0.3632813,0.1875 -0.609375,0.1875 -0.1757813,0 -0.3398438,-0.046875 -0.4804688,-0.1289062 C 3.6685652,4.1367354 3.5513777,4.0547041 3.445909,3.9257979 3.352159,3.8086104 3.2701277,3.6679854 3.2232527,3.5039229 3.164659,3.3515791 3.1412215,3.1640791 3.1412215,3.0000166 c 0,-0.3164062 0.046875,-0.5976562 0.082031,-0.8671875 C 3.2818465,1.8750166 3.352159,1.6289229 3.445909,1.3945479 3.5279402,1.1718916 3.633409,0.92579788 3.7505965,0.67970413 3.867784,0.46876663 3.9966902,0.19923538 4.1373152,-0.08201462 L 2.4849715,-10.44139 H 4.336534 l 1.171875,8.2500004 4.746094,-8.2500004 z m 0,0"
       style="fill:#000000;fill-opacity:1;fill-rule:nonzero;stroke:none"
       aria-label="γ"
       transform="matrix(1.3333333,0,0,1.3333333,182.46795,117.17967)" />
    <path
       id="path6"
       d="m 50.27,100.539 c 2.3,10.223 9.14,18.836 18.578,23.391 9.433,4.558 20.433,4.558 29.871,0 9.433,-4.555 16.277,-13.168 18.574,-23.391"
       style="fill:none;stroke:#000000;stroke-width:0.9216;stroke-linecap:square;stroke-linejoin:miter;stroke-miterlimit:3.25;stroke-dasharray:none;stroke-opacity:1"
       transform="scale(1.3333333)" />
    <path
       id="path7"
       d="m 78.754,127.348 10.055,3.351 v -6.703 z"
       style="fill:#000000;fill-opacity:1;fill-rule:evenodd;stroke:none"
       transform="scale(1.3333333)" />
    <path
       id="path8"
       d="m 11.870486,-9.2928116 c 0.269532,0.5507812 0.375,1.2070312 0.339844,1.9453125 0,0.5039062 -0.105469,1.3125 -0.339844,2.4257812 H 3.7611113 c -0.2109375,1.125 -0.1289062,2.0273438 0.234375,2.7070313 0.328125,0.6679687 1.03125,1.0078125 2.0859375,1.0078125 0.9492188,0 1.7929688,-0.3164063 2.5078125,-0.9726563 0.4101563,-0.3515625 0.7382813,-0.7734375 0.9726563,-1.2890625 h 1.8398434 c -0.152343,0.4335938 -0.398437,0.8671875 -0.785156,1.3828125 -0.375,0.4804688 -0.7499999,0.9023438 -1.1601562,1.19531252 -0.6679687,0.57421875 -1.453125,0.9375 -2.34375,1.125 -0.4570312,0.10546875 -0.984375,0.1640625 -1.5351562,0.1640625 -1.3710938,0 -2.4492188,-0.50390625 -3.1875,-1.50000002 -0.7382813,-0.984375 -0.9140625,-2.4023437 -0.5273438,-4.1953125 0.375,-1.78125 1.1601563,-3.2109375 2.3554688,-4.3359375 1.1835937,-1.0898436 2.5546875,-1.6406246 4.125,-1.6406246 0.7734375,0 1.5,0.1875 2.1679684,0.550781 0.65625,0.351562 1.101563,0.8437499 1.359375,1.4296874 z m -1.605468,2.8945312 c 0.08203,-0.796875 0.05859,-1.4414062 -0.128907,-1.921875 -0.3164059,-0.890625 -1.0546872,-1.3476562 -2.2382809,-1.3476562 -0.8671875,0 -1.6523438,0.3164062 -2.34375,0.9257812 -0.7148438,0.609375 -1.1835938,1.3945313 -1.4414063,2.34375 z m 0,0"
       style="fill:#000000;fill-opacity:1;fill-rule:nonzero;stroke:none"
       aria-label="e"
       transform="matrix(1.3333333,0,0,1.3333333,103.60628,206.96073)" />
    <path
       id="path9"
       d="M 117.293,100.539 C 114.996,90.316 108.152,81.703 98.719,77.145 89.281,72.59 78.281,72.59 68.848,77.145 59.41,81.703 52.57,90.316 50.27,100.539"
       style="fill:none;stroke:#000000;stroke-width:0.9216;stroke-linecap:square;stroke-linejoin:miter;stroke-miterlimit:3.25;stroke-dasharray:none;stroke-opacity:1"
       transform="scale(1.3333333)" />
    <path
       id="path10"
       d="M 88.809,73.727 78.754,70.375 v 6.703 z"
       style="fill:#000000;fill-opacity:1;fill-rule:evenodd;stroke:none"
       transform="scale(1.3333333)" />
    <path
       id="path11"
       d="m 11.870486,-9.2923414 c 0.269532,0.5507812 0.375,1.2070312 0.339844,1.9453125 0,0.5039062 -0.105469,1.3125 -0.339844,2.4257812 H 3.7611113 c -0.2109375,1.125 -0.1289062,2.0273438 0.234375,2.7070313 0.328125,0.6679687 1.03125,1.0078125 2.0859375,1.0078125 0.9492188,0 1.7929688,-0.3164063 2.5078125,-0.9726563 0.4101563,-0.3515625 0.7382813,-0.7734375 0.9726563,-1.2890625 h 1.8398434 c -0.152343,0.4335938 -0.398437,0.8671875 -0.785156,1.3828125 -0.375,0.4804688 -0.7499999,0.9023438 -1.1601562,1.19531251 -0.6679687,0.57421875 -1.453125,0.9375 -2.34375,1.125 -0.4570312,0.10546875 -0.984375,0.1640625 -1.5351562,0.1640625 -1.3710938,0 -2.4492188,-0.50390625 -3.1875,-1.50000001 -0.7382813,-0.984375 -0.9140625,-2.4023437 -0.5273438,-4.1953125 0.375,-1.78125 1.1601563,-3.2109375 2.3554688,-4.3359375 1.1835937,-1.0898438 2.5546875,-1.6406248 4.125,-1.6406248 0.7734375,0 1.5,0.1875 2.1679684,0.550781 0.65625,0.351563 1.101563,0.8437501 1.359375,1.4296876 z m -1.605468,2.8945312 c 0.08203,-0.796875 0.05859,-1.4414062 -0.128907,-1.921875 -0.3164059,-0.890625 -1.0546872,-1.3476562 -2.2382809,-1.3476562 -0.8671875,0 -1.6523438,0.3164062 -2.34375,0.9257812 -0.7148438,0.609375 -1.1835938,1.3945313 -1.4414063,2.34375 z m 0,0"
       style="fill:#000000;fill-opacity:1;fill-rule:nonzero;stroke:none"
       aria-label="e"
       transform="matrix(1.3333333,0,0,1.3333333,103.60628,81.432757)" />
    <path
       id="path12"
       d="m 53.957,100.539 c 0,0.977 -0.391,1.914 -1.082,2.606 -0.691,0.691 -1.629,1.078 -2.605,1.078 -0.977,0 -1.915,-0.387 -2.606,-1.078 -0.691,-0.692 -1.082,-1.629 -1.082,-2.606 0,-0.98 0.391,-1.918 1.082,-2.609 0.691,-0.692 1.629,-1.078 2.606,-1.078 0.976,0 1.914,0.386 2.605,1.078 0.691,0.691 1.082,1.629 1.082,2.609 z"
       style="fill:#000000;fill-opacity:1;fill-rule:evenodd;stroke:none"
       transform="scale(1.3333333)" />
    <path
       id="path13"
       d="m 120.98,100.539 c 0,0.977 -0.386,1.914 -1.078,2.606 -0.691,0.691 -1.629,1.078 -2.609,1.078 -0.977,0 -1.914,-0.387 -2.605,-1.078 -0.692,-0.692 -1.079,-1.629 -1.079,-2.606 0,-0.98 0.387,-1.918 1.079,-2.609 0.691,-0.692 1.628,-1.078 2.605,-1.078 0.98,0 1.918,0.386 2.609,1.078 0.692,0.691 1.078,1.629 1.078,2.609 z"
       style="fill:#000000;fill-opacity:1;fill-rule:evenodd;stroke:none"
       transform="scale(1.3333333)" />
    <path
       id="path14"
       d="m 1.5931815,-8.3196379 v -1.125 c 1.078125,-0.1054687 1.8164063,-0.28125 2.2382813,-0.515625 0.421875,-0.2343751 0.7382812,-0.8320311 0.9375,-1.7343751 H 5.9525565 V 6.74625e-4 H 4.3705253 V -8.3196379 Z m 0,0"
       style="fill:#000000;fill-opacity:1;fill-rule:nonzero;stroke:none"
       aria-label="1"
       transform="matrix(1.3333333,0,0,1.3333333,105.40701,246.24129)"
       clip-path="url(#clipPath15)" />
    <path
       id="path16"
       d="m 268.102,100.539 -0.836,-0.711 -0.84,-0.625 -0.836,-0.469 -0.84,-0.254 -0.836,-0.011 -0.84,0.234 -0.836,0.453 -0.84,0.614 -0.836,0.703 -0.839,0.715 -0.836,0.636 -0.84,0.485 -0.836,0.277 -0.84,0.031 -0.836,-0.211 -0.84,-0.429 -0.836,-0.606 -0.839,-0.699 -0.836,-0.715 -0.84,-0.648 -0.836,-0.5 -0.84,-0.297 -0.836,-0.055 -0.84,0.191 -0.836,0.414 -0.836,0.59 -0.84,0.692 -0.835,0.718 -0.84,0.657 -0.836,0.519 -0.84,0.317 -0.836,0.078 -0.84,-0.168 -0.836,-0.395 -0.84,-0.578 -0.836,-0.687 -0.839,-0.719 -0.836,-0.664 -0.84,-0.535 -0.836,-0.336 -0.84,-0.102 -0.836,0.149 -0.84,0.375 -0.836,0.562 -0.84,0.68 -0.836,0.723 -0.839,0.671 -0.836,0.547 -0.84,0.36 -0.836,0.121 -0.836,-0.121 -0.84,-0.36 -0.836,-0.547 -0.84,-0.671 -0.836,-0.723 -0.839,-0.68 -0.836,-0.562 -0.84,-0.375 -0.836,-0.149 -0.84,0.102 -0.836,0.336 -0.84,0.535 -0.836,0.664 -0.84,0.719 -0.835,0.687 -0.84,0.578 -0.836,0.395 -0.84,0.168 -0.836,-0.078 -0.84,-0.317 -0.836,-0.519 -0.84,-0.657 -0.836,-0.718 -0.839,-0.692 -0.836,-0.59 -0.836,-0.414 -0.84,-0.191 -0.836,0.055 -0.84,0.297 -0.836,0.5 -0.84,0.648 -0.836,0.715 -0.84,0.699 -0.835,0.606 -0.84,0.429 -0.836,0.211 -0.84,-0.031 -0.836,-0.277 -0.84,-0.485 -0.836,-0.636 -0.84,-0.715 -0.836,-0.703 -0.839,-0.614 -0.836,-0.453 -0.84,-0.234 -0.836,0.011 -0.84,0.254 -0.836,0.469 -0.84,0.625 -0.836,0.711"
       style="fill:none;stroke:#000000;stroke-width:0.9216;stroke-linecap:square;stroke-linejoin:miter;stroke-miterlimit:3.25;stroke-dasharray:none;stroke-opacity:1"
       transform="scale(1.3333333)" />
    <path
       id="path17"
       d="M 10.194364,-5.9054812 9.3506144,-12.2922 5.6592082,-5.9054812 Z M 8.8115519,-14.44845 H 11.002958 L 13.182646,7.688125e-4 H 11.049833 L 10.499052,-4.3117312 H 4.7803019 L 2.2959269,7.688125e-4 H 0.28030194 Z m 2.6601561,-3.433594 h 1.828125 l -0.445312,2.0625 h -1.828125 z m -3.2460936,0 h 1.8281246 l -0.4453121,2.0625 h -1.828125 z m 0,0"
       style="fill:#000000;fill-opacity:1;fill-rule:nonzero;stroke:none"
       aria-label="Ä"
       transform="matrix(1.3333333,0,0,1.3333333,294.17705,171.21382)"
       clip-path="url(#clipPath18)" />
    <path
       id="path19"
       d="m 268.102,100.539 0.839,0.707 0.836,0.625 0.84,0.469 0.836,0.254 0.84,0.011 0.836,-0.234 0.84,-0.449 0.836,-0.613 0.836,-0.707 0.839,-0.711 0.836,-0.637 0.84,-0.488 0.836,-0.274 0.84,-0.035 0.836,0.211 0.84,0.434 0.836,0.601 0.84,0.699 0.836,0.719 0.839,0.645 0.836,0.5 0.84,0.296 0.836,0.059 0.84,-0.191 0.836,-0.414 0.84,-0.59 0.836,-0.696 0.839,-0.718 0.836,-0.657 0.836,-0.515 0.84,-0.317 0.836,-0.082 0.84,0.168 0.836,0.399 0.84,0.574 0.836,0.688 0.84,0.718 0.836,0.668 0.839,0.532 0.836,0.335 0.84,0.102 0.836,-0.145 0.84,-0.375 0.836,-0.562 0.84,-0.684 0.836,-0.718 0.839,-0.676 0.836,-0.547 0.84,-0.356 0.836,-0.124 0.84,0.124 0.836,0.356 0.84,0.547 0.836,0.676 0.84,0.718 0.836,0.684 0.835,0.562 0.84,0.375 0.836,0.145 0.84,-0.102 0.836,-0.335 0.84,-0.532 0.836,-0.668 0.84,-0.718 0.836,-0.688 0.839,-0.574 0.836,-0.399 0.84,-0.168 0.836,0.082 0.84,0.317 0.836,0.515 0.84,0.657 0.836,0.718 0.84,0.696 0.836,0.59 0.839,0.414 0.836,0.191 0.84,-0.059 0.836,-0.296 0.84,-0.5 0.836,-0.645 0.84,-0.719 0.836,-0.699 0.839,-0.601 0.836,-0.434 0.84,-0.211 0.836,0.035 0.84,0.274 0.836,0.488 0.836,0.637 0.84,0.711 0.836,0.707 0.84,0.613 0.835,0.449 0.84,0.234 0.836,-0.011 0.84,-0.254 0.836,-0.469 0.84,-0.625 0.836,-0.707"
       style="fill:none;stroke:#000000;stroke-width:0.9216;stroke-linecap:square;stroke-linejoin:miter;stroke-miterlimit:3.25;stroke-dasharray:none;stroke-opacity:1"
       transform="scale(1.3333333)" />
    <path
       id="path20"
       d="M 10.19575,-5.9062334 9.3519996,-12.292952 5.6605933,-5.9062334 Z M 8.8129371,-14.449202 H 11.004343 L 13.184031,1.6625e-5 H 11.051218 L 10.500437,-4.3124834 H 4.7816871 L 2.2973121,1.6625e-5 H 0.28168706 Z m 2.6601559,-3.433594 h 1.828125 l -0.445312,2.0625 h -1.828125 z m -3.2460934,0 h 1.8281254 l -0.4453129,2.0625 h -1.828125 z m 0,0"
       style="fill:#000000;fill-opacity:1;fill-rule:nonzero;stroke:none"
       aria-label="Ä"
       transform="matrix(1.3333333,0,0,1.3333333,405.88614,117.17967)"
       clip-path="url(#clipPath21)" />
    <path
       id="path22"
       d="m 263.914,104.727 8.375,-8.379"
       style="fill:none;stroke:#000000;stroke-width:2.7648;stroke-linecap:square;stroke-linejoin:miter;stroke-miterlimit:3.25;stroke-dasharray:none;stroke-opacity:1"
       transform="scale(1.3333333)" />
    <path
       id="path23"
       d="m 263.914,96.348 8.375,8.379"
       style="fill:none;stroke:#000000;stroke-width:2.7648;stroke-linecap:square;stroke-linejoin:miter;stroke-miterlimit:3.25;stroke-dasharray:none;stroke-opacity:1"
       transform="scale(1.3333333)" />
    <path
       id="path24"
       d="M 0.51634556,6.74625e-4 C 0.57493931,-1.0071379 0.77415806,-1.8860441 1.1491581,-2.6360441 1.5124393,-3.3743254 2.2155643,-4.0657316 3.2819706,-4.6751066 l 1.5703125,-0.9257813 c 0.7148437,-0.3984375 1.1953125,-0.75 1.4882812,-1.03125 0.4453125,-0.4570312 0.6679688,-0.984375 0.6679688,-1.5703125 0,-0.6679687 -0.1992188,-1.21875 -0.6210938,-1.6289062 -0.3984375,-0.3984374 -0.9609375,-0.6093754 -1.6289062,-0.6093754 -1.03125,0 -1.7109375,0.386719 -2.0976563,1.1601566 -0.2226562,0.4101563 -0.328125,0.984375 -0.3632812,1.6992188 H 0.80931431 c 0.0117188,-1.0195313 0.19921879,-1.8398438 0.57421879,-2.4960934 0.6328125,-1.125 1.7578125,-1.699219 3.375,-1.699219 1.3476562,0 2.3320312,0.351562 2.953125,1.089844 0.6210937,0.7265621 0.9257812,1.5234371 0.9257812,2.4140621 0,0.9492188 -0.3398437,1.7578125 -0.9960937,2.4257813 -0.3867188,0.3867187 -1.0664063,0.8554687 -2.0390625,1.40625 l -1.1367188,0.6210937 c -0.5273437,0.3046875 -0.9492187,0.5742188 -1.2773437,0.84375 -0.5273438,0.4921875 -0.890625,1.0078125 -1.0195313,1.5820313 h 6.421875 V 6.74625e-4 Z m 0,0"
       style="fill:#000000;fill-opacity:1;fill-rule:nonzero;stroke:none"
       aria-label="2"
       transform="matrix(1.3333333,0,0,1.3333333,351.16701,246.24129)"
       clip-path="url(#clipPath25)" />
  </g>
</svg>
