<?xml version="1.0" encoding="UTF-8" standalone="no"?>
<!-- Created with Inkscape (http://www.inkscape.org/) -->

<svg
   version="1.1"
   id="svg2"
   width="492"
   height="246.66667"
   viewBox="0 0 492 246.66667"
   sodipodi:docname="1azkfgrquzf2w.pdf"
   xmlns:inkscape="http://www.inkscape.org/namespaces/inkscape"
   xmlns:sodipodi="http://sodipodi.sourceforge.net/DTD/sodipodi-0.dtd"
   xmlns="http://www.w3.org/2000/svg"
   xmlns:svg="http://www.w3.org/2000/svg">
  <defs
     id="defs6">
    <clipPath
       clipPathUnits="userSpaceOnUse"
       id="clipPath28">
      <path
         d="m 28,155 h 9.68 v 16 H 28 Z"
         id="path26" />
    </clipPath>
    <clipPath
       clipPathUnits="userSpaceOnUse"
       id="clipPath60">
      <path
         d="m 90,62 h 9.602 V 78 H 90 Z"
         id="path58" />
    </clipPath>
    <clipPath
       clipPathUnits="userSpaceOnUse"
       id="clipPath88">
      <path
         d="m 80,172 h 5 v 12.32 h -5 z"
         id="path86" />
    </clipPath>
    <clipPath
       clipPathUnits="userSpaceOnUse"
       id="clipPath112">
      <path
         d="m 225,137 h 10.441 v 16 H 225 Z"
         id="path110" />
    </clipPath>
    <clipPath
       clipPathUnits="userSpaceOnUse"
       id="clipPath138">
      <path
         d="m 263,172 h 10 v 12.32 h -10 z"
         id="path136" />
    </clipPath>
  </defs>
  <sodipodi:namedview
     id="namedview4"
     pagecolor="#ffffff"
     bordercolor="#999999"
     borderopacity="1"
     inkscape:showpageshadow="0"
     inkscape:pageopacity="0"
     inkscape:pagecheckerboard="0"
     inkscape:deskcolor="#d1d1d1" />
  <g
     id="g8"
     inkscape:groupmode="layer"
     inkscape:label="1azkfgrquzf2w"
     transform="matrix(1.3333333,0,0,1.3333333,0,9.5e-6)">
    <g
       id="g10">
      <path
         d="m 0,58.648 58.648,8.379"
         style="fill:none;stroke:#000000;stroke-width:0.9216;stroke-linecap:square;stroke-linejoin:miter;stroke-miterlimit:3.25;stroke-dasharray:none;stroke-opacity:1"
         id="path12" />
      <path
         d="M 34.301,63.547 23.875,65.441 24.82,58.809 Z"
         style="fill:#000000;fill-opacity:1;fill-rule:evenodd;stroke:none"
         id="path14" />
      <text
         xml:space="preserve"
         transform="translate(25.08305,50.313449)"
         style="font-variant:normal;font-size:21.12px;font-family:CairoFont-0;-inkscape-font-specification:CairoFont-0-0;writing-mode:lr-tb;fill:#000000;fill-opacity:1;fill-rule:nonzero;stroke:none"
         id="text18"><tspan
           x="0"
           y="0"
           id="tspan16">e</tspan></text>
      <path
         d="m 58.648,134.051 -0.957,-0.696 -0.933,-0.562 -0.903,-0.324 -0.855,-0.012 -0.809,0.324 -0.765,0.625 -0.735,0.844 -0.718,0.945 -0.727,0.918 -0.746,0.758 -0.781,0.496 -0.832,0.176 -0.875,-0.156 -0.918,-0.442 -0.949,-0.636 -0.954,-0.711 -0.949,-0.653 -0.922,-0.468 -0.882,-0.192 -0.836,0.141 -0.79,0.465 -0.75,0.73 -0.722,0.906 -0.723,0.95 -0.73,0.863 -0.762,0.652 -0.805,0.36 -0.851,0.023 -0.895,-0.289 -0.933,-0.543 -0.953,-0.688 -0.954,-0.699 -0.937,-0.586 -0.906,-0.355 -0.864,-0.047 -0.812,0.289 -0.77,0.594 -0.738,0.824 -0.723,0.937 -0.722,0.93 -0.742,0.781 -0.778,0.528 -0.824,0.215 -0.875,-0.121 -0.914,-0.415 -0.941,-0.621 -0.958,-0.711 -0.949,-0.664 -0.926,-0.492 -0.886,-0.226 -0.84,0.101 -0.797,0.43 -0.75,0.707 -0.73,0.891 -0.719,0.953 -0.731,0.875 -0.757,0.683 -0.797,0.395 -0.848,0.062 -0.891,-0.258 -0.929,-0.519 -0.95,-0.676 -0.957,-0.707 -0.941,-0.605 -0.91,-0.383 -0.867,-0.086 -0.817,0.25 -0.777,0.562 -0.738,0.805 L 0,142.43"
         style="fill:none;stroke:#000000;stroke-width:0.9216;stroke-linecap:square;stroke-linejoin:miter;stroke-miterlimit:3.25;stroke-dasharray:none;stroke-opacity:1"
         id="path20" />
    </g>
    <g
       id="g22">
      <g
         id="g24"
         clip-path="url(#clipPath28)">
        <text
           xml:space="preserve"
           transform="translate(25.582035,165.98166)"
           style="font-variant:normal;font-size:20.16px;font-family:CairoFont-1;-inkscape-font-specification:CairoFont-1-1;writing-mode:lr-tb;fill:#000000;fill-opacity:1;fill-rule:nonzero;stroke:none"
           id="text32"><tspan
             x="0"
             y="0"
             id="tspan30">γ</tspan></text>
      </g>
    </g>
    <g
       id="g34">
      <path
         d="M 167.562,100.539 H 113.105"
         style="fill:none;stroke:#000000;stroke-width:0.9216;stroke-linecap:square;stroke-linejoin:miter;stroke-miterlimit:3.25;stroke-dasharray:none;stroke-opacity:1"
         id="path36" />
      <path
         d="m 145.363,100.539 -10.054,-3.351 v 6.703 z"
         style="fill:#000000;fill-opacity:1;fill-rule:evenodd;stroke:none"
         id="path38" />
      <text
         xml:space="preserve"
         transform="translate(134.25744,87.884749)"
         style="font-variant:normal;font-size:21.12px;font-family:CairoFont-0;-inkscape-font-specification:CairoFont-0-0;writing-mode:lr-tb;fill:#000000;fill-opacity:1;fill-rule:nonzero;stroke:none"
         id="text42"><tspan
           x="0"
           y="0"
           id="tspan40">e</tspan></text>
      <path
         d="m 58.648,67.027 v 67.024"
         style="fill:none;stroke:#000000;stroke-width:0.9216;stroke-linecap:square;stroke-linejoin:miter;stroke-miterlimit:3.25;stroke-dasharray:none;stroke-opacity:1"
         id="path44" />
      <path
         d="M 58.648,105.566 55.297,95.512 H 62 Z"
         style="fill:#000000;fill-opacity:1;fill-rule:evenodd;stroke:none"
         id="path46" />
      <text
         xml:space="preserve"
         transform="translate(38.573997,108.14756)"
         style="font-variant:normal;font-size:21.12px;font-family:CairoFont-0;-inkscape-font-specification:CairoFont-0-0;writing-mode:lr-tb;fill:#000000;fill-opacity:1;fill-rule:nonzero;stroke:none"
         id="text50"><tspan
           x="0"
           y="0"
           id="tspan48">e</tspan></text>
      <path
         d="m 113.105,100.539 -0.316,-1.09 -0.375,-1 -0.473,-0.836 -0.609,-0.617 -0.758,-0.371 -0.902,-0.141 -1.02,0.055 -1.097,0.18 -1.125,0.219 -1.09,0.167 -1.012,0.036 -0.887,-0.164 -0.742,-0.399 -0.59,-0.644 -0.461,-0.856 -0.367,-1.016 -0.312,-1.093 -0.321,-1.082 -0.382,-0.985 -0.489,-0.816 -0.625,-0.59 -0.773,-0.344 -0.918,-0.117 -1.031,0.074 -1.106,0.188 -1.121,0.215 -1.082,0.16 -1,0.016 L 91.25,89.5 90.523,89.07 89.949,88.402 89.5,87.527 89.145,86.5 88.832,85.402 88.508,84.324 88.117,83.355 87.613,82.562 86.973,82 86.18,81.684 85.25,81.59 l -1.043,0.09 -1.109,0.195 -1.118,0.215 -1.078,0.144 -0.988,-0.004 -0.855,-0.214 -0.707,-0.454 -0.563,-0.695 -0.434,-0.898 -0.347,-1.039 -0.313,-1.098 -0.328,-1.07 -0.402,-0.953 -0.516,-0.766 -0.66,-0.539 -0.805,-0.289 -0.949,-0.07 -1.051,0.101 -1.113,0.203 -1.117,0.211 -1.07,0.133 -0.973,-0.023 -0.84,-0.239 -0.691,-0.484 -0.543,-0.719 -0.426,-0.918 -0.34,-1.051 -0.312,-1.097 -0.332,-1.063 -0.415,-0.933 -0.531,-0.746 -0.672,-0.508 -0.828,-0.266 -0.957,-0.047 -1.062,0.117 -1.114,0.211"
         style="fill:none;stroke:#000000;stroke-width:0.9216;stroke-linecap:square;stroke-linejoin:miter;stroke-miterlimit:3.25;stroke-dasharray:none;stroke-opacity:1"
         id="path52" />
    </g>
    <g
       id="g54">
      <g
         id="g56"
         clip-path="url(#clipPath60)">
        <text
           xml:space="preserve"
           transform="translate(87.615264,73.054778)"
           style="font-variant:normal;font-size:20.16px;font-family:CairoFont-1;-inkscape-font-specification:CairoFont-1-1;writing-mode:lr-tb;fill:#000000;fill-opacity:1;fill-rule:nonzero;stroke:none"
           id="text64"><tspan
             x="0"
             y="0"
             id="tspan62">γ</tspan></text>
      </g>
    </g>
    <g
       id="g66">
      <path
         d="m 58.648,134.051 54.457,-33.512"
         style="fill:none;stroke:#000000;stroke-width:0.9216;stroke-linecap:square;stroke-linejoin:miter;stroke-miterlimit:3.25;stroke-dasharray:none;stroke-opacity:1"
         id="path68" />
      <path
         d="m 90.156,114.66 -6.804,8.125 -3.512,-5.711 z"
         style="fill:#000000;fill-opacity:1;fill-rule:evenodd;stroke:none"
         id="path70" />
      <text
         xml:space="preserve"
         transform="translate(87.615264,143.24034)"
         style="font-variant:normal;font-size:21.12px;font-family:CairoFont-0;-inkscape-font-specification:CairoFont-0-0;writing-mode:lr-tb;fill:#000000;fill-opacity:1;fill-rule:nonzero;stroke:none"
         id="text74"><tspan
           x="0"
           y="0"
           id="tspan72">e</tspan></text>
      <path
         d="m 62.332,67.027 c 0,0.977 -0.387,1.914 -1.078,2.606 -0.692,0.691 -1.629,1.078 -2.606,1.078 -0.98,0 -1.918,-0.387 -2.609,-1.078 -0.691,-0.692 -1.078,-1.629 -1.078,-2.606 0,-0.98 0.387,-1.918 1.078,-2.609 0.691,-0.691 1.629,-1.078 2.609,-1.078 0.977,0 1.914,0.387 2.606,1.078 0.691,0.691 1.078,1.629 1.078,2.609 z"
         style="fill:#000000;fill-opacity:1;fill-rule:evenodd;stroke:none"
         id="path76" />
      <path
         d="m 62.332,134.051 c 0,0.976 -0.387,1.914 -1.078,2.605 -0.692,0.692 -1.629,1.082 -2.606,1.082 -0.98,0 -1.918,-0.39 -2.609,-1.082 -0.691,-0.691 -1.078,-1.629 -1.078,-2.605 0,-0.977 0.387,-1.914 1.078,-2.606 0.691,-0.691 1.629,-1.082 2.609,-1.082 0.977,0 1.914,0.391 2.606,1.082 0.691,0.692 1.078,1.629 1.078,2.606 z"
         style="fill:#000000;fill-opacity:1;fill-rule:evenodd;stroke:none"
         id="path78" />
      <path
         d="m 116.793,100.539 c 0,0.977 -0.391,1.914 -1.082,2.606 -0.691,0.691 -1.629,1.078 -2.606,1.078 -0.976,0 -1.914,-0.387 -2.605,-1.078 -0.691,-0.692 -1.082,-1.629 -1.082,-2.606 0,-0.98 0.391,-1.918 1.082,-2.609 0.691,-0.692 1.629,-1.078 2.605,-1.078 0.977,0 1.915,0.386 2.606,1.078 0.691,0.691 1.082,1.629 1.082,2.609 z"
         style="fill:#000000;fill-opacity:1;fill-rule:evenodd;stroke:none"
         id="path80" />
    </g>
    <g
       id="g82">
      <g
         id="g84"
         clip-path="url(#clipPath88)">
        <text
           xml:space="preserve"
           transform="translate(79.055256,184.68097)"
           style="font-variant:normal;font-size:16.8px;font-family:CairoFont-2;-inkscape-font-specification:CairoFont-2-0;writing-mode:lr-tb;fill:#000000;fill-opacity:1;fill-rule:nonzero;stroke:none"
           id="text92"><tspan
             x="0"
             y="0"
             id="tspan90">1</tspan></text>
      </g>
    </g>
    <g
       id="g94">
      <path
         d="m 184.32,58.648 75.403,41.891"
         style="fill:none;stroke:#000000;stroke-width:0.9216;stroke-linecap:square;stroke-linejoin:miter;stroke-miterlimit:3.25;stroke-dasharray:none;stroke-opacity:1"
         id="path96" />
      <path
         d="M 226.418,82.035 216,80.082 l 3.254,-5.859 z"
         style="fill:#000000;fill-opacity:1;fill-rule:evenodd;stroke:none"
         id="path98" />
      <text
         xml:space="preserve"
         transform="translate(208.62808,105.83069)"
         style="font-variant:normal;font-size:21.12px;font-family:CairoFont-0;-inkscape-font-specification:CairoFont-0-0;writing-mode:lr-tb;fill:#000000;fill-opacity:1;fill-rule:nonzero;stroke:none"
         id="text102"><tspan
           x="0"
           y="0"
           id="tspan100">e</tspan></text>
      <path
         d="m 259.723,100.539 -1.078,-0.199 -1.04,-0.129 -0.964,0.004 -0.868,0.18 -0.753,0.382 -0.641,0.586 -0.539,0.778 -0.453,0.918 -0.41,1.007 -0.395,1.028 -0.426,0.976 -0.492,0.86 -0.578,0.695 -0.695,0.496 -0.805,0.285 -0.918,0.098 -1,-0.066 -1.063,-0.168 -1.082,-0.208 -1.066,-0.171 -1.008,-0.079 -0.926,0.079 -0.816,0.269 -0.703,0.477 -0.59,0.679 -0.496,0.848 -0.43,0.965 -0.398,1.023 -0.406,1.012 -0.45,0.934 -0.527,0.789 -0.633,0.605 -0.742,0.403 -0.859,0.195 -0.957,0.019 -1.036,-0.121 -1.074,-0.195 -1.078,-0.199 -1.047,-0.137 -0.972,-0.012 -0.879,0.16 -0.766,0.364 -0.648,0.57 -0.547,0.762 -0.461,0.906 -0.41,1.004 -0.399,1.027 -0.422,0.981 -0.48,0.875 -0.574,0.711 -0.68,0.515 -0.797,0.305 -0.906,0.113 -0.996,-0.054 -1.059,-0.161 -1.082,-0.207 -1.066,-0.179 -1.016,-0.09 -0.933,0.062 -0.829,0.254 -0.714,0.457 -0.602,0.66 -0.504,0.832 -0.434,0.961 -0.398,1.02 -0.402,1.016 -0.446,0.941 -0.523,0.805 -0.617,0.625 -0.735,0.422 -0.847,0.214 -0.953,0.032 -1.028,-0.11 -1.074,-0.191 -1.078,-0.203 -1.051,-0.149 -0.98,-0.023 -0.887,0.144 -0.777,0.344 -0.661,0.551 -0.554,0.742 -0.469,0.899 -0.414,0.996 -0.395,1.027 -0.418,0.992 -0.476,0.883 -0.563,0.73 -0.671,0.532 -0.786,0.324 -0.898,0.129 -0.988,-0.039 -1.055,-0.156 -1.082,-0.204 -1.07,-0.187 -1.02,-0.098 -0.941,0.047 -0.84,0.231 -0.723,0.441 -0.613,0.641 -0.512,0.82 -0.437,0.949 -0.403,1.02"
         style="fill:none;stroke:#000000;stroke-width:0.9216;stroke-linecap:square;stroke-linejoin:miter;stroke-miterlimit:3.25;stroke-dasharray:none;stroke-opacity:1"
         id="path104" />
    </g>
    <g
       id="g106">
      <g
         id="g108"
         clip-path="url(#clipPath112)">
        <text
           xml:space="preserve"
           transform="translate(223.26134,147.7216)"
           style="font-variant:normal;font-size:20.16px;font-family:CairoFont-1;-inkscape-font-specification:CairoFont-1-1;writing-mode:lr-tb;fill:#000000;fill-opacity:1;fill-rule:nonzero;stroke:none"
           id="text116"><tspan
             x="0"
             y="0"
             id="tspan114">γ</tspan></text>
      </g>
    </g>
    <g
       id="g118">
      <path
         d="m 351.883,100.539 h -92.16"
         style="fill:none;stroke:#000000;stroke-width:0.9216;stroke-linecap:square;stroke-linejoin:miter;stroke-miterlimit:3.25;stroke-dasharray:none;stroke-opacity:1"
         id="path120" />
      <path
         d="m 310.832,100.539 -10.055,-3.351 v 6.703 z"
         style="fill:#000000;fill-opacity:1;fill-rule:evenodd;stroke:none"
         id="path122" />
      <text
         xml:space="preserve"
         transform="translate(299.72653,87.884749)"
         style="font-variant:normal;font-size:21.12px;font-family:CairoFont-0;-inkscape-font-specification:CairoFont-0-0;writing-mode:lr-tb;fill:#000000;fill-opacity:1;fill-rule:nonzero;stroke:none"
         id="text126"><tspan
           x="0"
           y="0"
           id="tspan124">e</tspan></text>
      <path
         d="m 255.535,104.727 8.379,-8.379"
         style="fill:none;stroke:#000000;stroke-width:2.7648;stroke-linecap:square;stroke-linejoin:miter;stroke-miterlimit:3.25;stroke-dasharray:none;stroke-opacity:1"
         id="path128" />
      <path
         d="m 255.535,96.348 8.379,8.379"
         style="fill:none;stroke:#000000;stroke-width:2.7648;stroke-linecap:square;stroke-linejoin:miter;stroke-miterlimit:3.25;stroke-dasharray:none;stroke-opacity:1"
         id="path130" />
    </g>
    <g
       id="g132">
      <g
         id="g134"
         clip-path="url(#clipPath138)">
        <text
           xml:space="preserve"
           transform="translate(263.37526,184.68097)"
           style="font-variant:normal;font-size:16.8px;font-family:CairoFont-2;-inkscape-font-specification:CairoFont-2-0;writing-mode:lr-tb;fill:#000000;fill-opacity:1;fill-rule:nonzero;stroke:none"
           id="text142"><tspan
             x="0"
             y="0"
             id="tspan140">2</tspan></text>
      </g>
    </g>
  </g>
</svg>
