<?xml version="1.0" encoding="UTF-8" standalone="no"?>
<!-- Created with Inkscape (http://www.inkscape.org/) -->

<svg
   version="1.1"
   id="svg1"
   width="984"
   height="461.33334"
   viewBox="0 0 984 461.33334"
   sodipodi:docname="1b1hbl2j7nsn1.pdf"
   xmlns:inkscape="http://www.inkscape.org/namespaces/inkscape"
   xmlns:sodipodi="http://sodipodi.sourceforge.net/DTD/sodipodi-0.dtd"
   xmlns="http://www.w3.org/2000/svg"
   xmlns:svg="http://www.w3.org/2000/svg">
  <defs
     id="defs1">
    <clipPath
       clipPathUnits="userSpaceOnUse"
       id="clipPath2">
      <path
         d="M 138.238,36 H 171 v 28 h -32.762 z"
         id="path2" />
    </clipPath>
    <clipPath
       clipPathUnits="userSpaceOnUse"
       id="clipPath4">
      <path
         d="M 138.238,36 H 171 v 28 h -32.762 z"
         id="path4" />
    </clipPath>
    <clipPath
       clipPathUnits="userSpaceOnUse"
       id="clipPath7">
      <path
         d="M 138.238,62 H 171 v 28 h -32.762 z"
         id="path7" />
    </clipPath>
    <clipPath
       clipPathUnits="userSpaceOnUse"
       id="clipPath9">
      <path
         d="M 138.238,62 H 171 v 28 h -32.762 z"
         id="path9" />
    </clipPath>
    <clipPath
       clipPathUnits="userSpaceOnUse"
       id="clipPath37">
      <path
         d="m 295,61 h 6.922 V 71 H 295 Z"
         transform="translate(-294.16673,-67.555115)"
         id="path37" />
    </clipPath>
    <clipPath
       clipPathUnits="userSpaceOnUse"
       id="clipPath74">
      <path
         d="m 534,73 h 6.719 V 83 H 534 Z"
         transform="translate(-532.8599,-80.145152)"
         id="path74" />
    </clipPath>
    <clipPath
       clipPathUnits="userSpaceOnUse"
       id="clipPath80">
      <path
         d="M 138.238,151 H 171 v 28 h -32.762 z"
         id="path80" />
    </clipPath>
    <clipPath
       clipPathUnits="userSpaceOnUse"
       id="clipPath82">
      <path
         d="M 138.238,151 H 171 v 28 h -32.762 z"
         id="path82" />
    </clipPath>
    <clipPath
       clipPathUnits="userSpaceOnUse"
       id="clipPath85">
      <path
         d="M 138.238,177 H 171 v 28 h -32.762 z"
         id="path85" />
    </clipPath>
    <clipPath
       clipPathUnits="userSpaceOnUse"
       id="clipPath87">
      <path
         d="M 138.238,177 H 171 v 28 h -32.762 z"
         id="path87" />
    </clipPath>
    <clipPath
       clipPathUnits="userSpaceOnUse"
       id="clipPath120">
      <path
         d="m 295,187 h 6.922 v 9 H 295 Z"
         transform="translate(-294.16673,-193.22784)"
         id="path120" />
    </clipPath>
  </defs>
  <sodipodi:namedview
     id="namedview1"
     pagecolor="#ffffff"
     bordercolor="#999999"
     borderopacity="1"
     inkscape:showpageshadow="0"
     inkscape:pageopacity="0"
     inkscape:pagecheckerboard="0"
     inkscape:deskcolor="#d1d1d1">
    <inkscape:page
       x="0"
       y="0"
       id="page1"
       width="984"
       height="461.33334"
       margin="0"
       bleed="0" />
  </sodipodi:namedview>
  <g
     id="g1"
     inkscape:groupmode="layer"
     inkscape:label="">
    <path
       id="path1"
       d="m 138.238,36.656 31.418,26.18"
       style="fill:none;stroke:#000000;stroke-width:0.576;stroke-linecap:square;stroke-linejoin:miter;stroke-miterlimit:3.25;stroke-dasharray:none;stroke-opacity:1"
       transform="scale(1.3333333)"
       clip-path="url(#clipPath2)" />
    <path
       id="path3"
       d="m 156.363,51.758 -6.168,-2.414 2.68,-3.219 z"
       style="fill:#000000;fill-opacity:1;fill-rule:evenodd;stroke:none"
       transform="scale(1.3333333)"
       clip-path="url(#clipPath4)" />
    <path
       id="path5"
       d="m 7.2996523,-5.7179619 c 0.1757813,0.3398438 0.234375,0.7382813 0.2109375,1.1953125 0,0.3164063 -0.070312,0.8085938 -0.2109375,1.5 H 2.3074648 c -0.1289062,0.6796875 -0.070312,1.2421875 0.1523438,1.6640625 0.1992187,0.41015628 0.6328125,0.62109378 1.2773437,0.62109378 0.5859375,0 1.1132813,-0.19921875 1.546875,-0.59765628 0.2460938,-0.2226562 0.4570313,-0.4804687 0.5976563,-0.796875 h 1.1367187 c -0.09375,0.2578125 -0.2460937,0.5390625 -0.4804687,0.84375 -0.234375,0.30468753 -0.46875,0.56250003 -0.7148438,0.73828128 -0.421875,0.3515625 -0.9023437,0.57421875 -1.4414062,0.69140625 -0.2929688,0.0703125 -0.609375,0.10546875 -0.9492188,0.10546875 -0.84375,0 -1.5117187,-0.31640625 -1.96875,-0.92578125 C 1.0184023,-1.2882744 0.91293356,-2.1554619 1.1473086,-3.2570244 c 0.234375,-1.1015625 0.7148437,-1.9804687 1.453125,-2.671875 0.7265625,-0.6679687 1.5703125,-1.0078125 2.53125,-1.0078125 0.4804687,0 0.9257812,0.1171875 1.3359375,0.3398438 0.4101562,0.2109375 0.6796875,0.515625 0.8320312,0.8789062 z m -0.984375,1.78125 c 0.046875,-0.4921875 0.035156,-0.8789062 -0.082031,-1.1835937 -0.1875,-0.5507813 -0.6445313,-0.8320313 -1.3710938,-0.8320313 -0.5390625,0 -1.0195312,0.1992188 -1.4414062,0.5742188 -0.4453125,0.375 -0.7265625,0.8554687 -0.890625,1.4414062 z m 0,0"
       style="fill:#000000;fill-opacity:1;fill-rule:nonzero;stroke:none"
       aria-label="e"
       transform="matrix(1.3333333,0,0,1.3333333,192.13822,86.897387)" />
    <path
       id="path6"
       d="M 138.238,89.02 169.656,62.836"
       style="fill:none;stroke:#000000;stroke-width:0.576;stroke-linecap:square;stroke-linejoin:miter;stroke-miterlimit:3.25;stroke-dasharray:none;stroke-opacity:1"
       transform="scale(1.3333333)"
       clip-path="url(#clipPath7)" />
    <path
       id="path8"
       d="m 151.535,77.938 6.168,-2.415 -2.68,-3.214 z"
       style="fill:#000000;fill-opacity:1;fill-rule:evenodd;stroke:none"
       transform="scale(1.3333333)"
       clip-path="url(#clipPath9)" />
    <path
       id="path10"
       d="m 7.3021654,-5.7200924 c 0.1757813,0.3398438 0.234375,0.7382813 0.2109375,1.1953125 0,0.3164063 -0.070312,0.8085938 -0.2109375,1.5 H 2.3099779 c -0.1289062,0.6796875 -0.070312,1.2421875 0.1523438,1.6640625 0.1992187,0.41015628 0.6328125,0.62109378 1.2773437,0.62109378 0.5859375,0 1.1132813,-0.19921875 1.546875,-0.59765628 0.2460938,-0.2226562 0.4570313,-0.4804687 0.5976563,-0.796875 h 1.1367187 c -0.09375,0.2578125 -0.2460937,0.5390625 -0.4804687,0.84375 -0.234375,0.30468753 -0.46875,0.56250003 -0.7148438,0.73828128 -0.421875,0.3515625 -0.9023437,0.57421875 -1.4414062,0.69140625 -0.2929688,0.0703125 -0.609375,0.10546875 -0.9492188,0.10546875 -0.84375,0 -1.5117187,-0.31640625 -1.96875,-0.92578125 C 1.0209154,-1.2904049 0.91544669,-2.1575924 1.1498217,-3.2591549 c 0.234375,-1.1015625 0.7148437,-1.9804687 1.453125,-2.671875 0.7265625,-0.6679687 1.5703125,-1.0078125 2.53125,-1.0078125 0.4804687,0 0.9257812,0.1171875 1.3359375,0.3398438 0.4101562,0.2109375 0.6796875,0.515625 0.8320312,0.8789062 z m -0.984375,1.78125 c 0.046875,-0.4921875 0.035156,-0.8789062 -0.082031,-1.1835937 -0.1875,-0.5507813 -0.6445313,-0.8320313 -1.3710938,-0.8320313 -0.5390625,0 -1.0195312,0.1992188 -1.4414062,0.5742188 -0.4453125,0.375 -0.7265625,0.8554687 -0.890625,1.4414062 z m 0,0"
       style="fill:#000000;fill-opacity:1;fill-rule:nonzero;stroke:none"
       aria-label="e"
       transform="matrix(1.3333333,0,0,1.3333333,207.97081,121.80648)" />
    <path
       id="path11"
       d="m 242.969,36.656 -31.418,26.18"
       style="fill:none;stroke:#000000;stroke-width:0.576;stroke-linecap:square;stroke-linejoin:miter;stroke-miterlimit:3.25;stroke-dasharray:none;stroke-opacity:1"
       transform="scale(1.3333333)" />
    <path
       id="path12"
       d="m 229.672,47.734 -6.168,2.414 2.68,3.219 z"
       style="fill:#000000;fill-opacity:1;fill-rule:evenodd;stroke:none"
       transform="scale(1.3333333)" />
    <path
       id="path13"
       d="m 7.3001316,-5.7192362 c 0.1757813,0.3398438 0.234375,0.7382813 0.2109375,1.1953125 0,0.3164063 -0.070312,0.8085938 -0.2109375,1.5 H 2.3079441 c -0.1289062,0.6796875 -0.070312,1.2421875 0.1523438,1.6640625 0.1992187,0.41015626 0.6328125,0.62109376 1.2773437,0.62109376 0.5859375,0 1.1132813,-0.19921875 1.546875,-0.59765626 0.2460938,-0.2226562 0.4570313,-0.4804687 0.5976563,-0.796875 h 1.1367187 c -0.09375,0.2578125 -0.2460937,0.5390625 -0.4804687,0.84375 -0.234375,0.30468751 -0.46875,0.56250001 -0.7148438,0.73828126 -0.421875,0.3515625 -0.9023437,0.57421875 -1.4414062,0.69140625 -0.2929688,0.0703125 -0.609375,0.10546875 -0.9492188,0.10546875 -0.84375,0 -1.5117187,-0.31640625 -1.96875,-0.92578125 C 1.0188816,-1.2895487 0.91341288,-2.1567362 1.1477879,-3.2582987 c 0.234375,-1.1015625 0.7148437,-1.9804687 1.453125,-2.671875 0.7265625,-0.6679687 1.5703125,-1.0078125 2.53125,-1.0078125 0.4804687,0 0.9257812,0.1171875 1.3359375,0.3398438 0.4101562,0.2109375 0.6796875,0.515625 0.8320312,0.8789062 z m -0.984375,1.78125 c 0.046875,-0.4921875 0.035156,-0.8789062 -0.082031,-1.1835937 -0.1875,-0.5507813 -0.6445313,-0.8320313 -1.3710938,-0.8320313 -0.5390625,0 -1.0195312,0.1992188 -1.4414062,0.5742188 -0.4453125,0.375 -0.7265625,0.8554687 -0.890625,1.4414062 z m 0,0"
       style="fill:#000000;fill-opacity:1;fill-rule:nonzero;stroke:none"
       aria-label="e"
       transform="matrix(1.3333333,0,0,1.3333333,289.88368,58.340492)" />
    <path
       id="path14"
       d="M 242.969,89.02 211.551,62.836"
       style="fill:none;stroke:#000000;stroke-width:0.576;stroke-linecap:square;stroke-linejoin:miter;stroke-miterlimit:3.25;stroke-dasharray:none;stroke-opacity:1"
       transform="scale(1.3333333)" />
    <path
       id="path15"
       d="m 224.844,73.914 6.168,2.414 -2.68,3.219 z"
       style="fill:#000000;fill-opacity:1;fill-rule:evenodd;stroke:none"
       transform="scale(1.3333333)" />
    <path
       id="path16"
       d="m 7.2997161,-5.718437 c 0.1757812,0.3398438 0.234375,0.7382813 0.2109375,1.1953125 0,0.3164063 -0.070312,0.8085938 -0.2109375,1.5 H 2.3075286 c -0.1289063,0.6796875 -0.070312,1.2421875 0.1523437,1.6640625 0.1992188,0.41015625 0.6328125,0.62109375 1.2773438,0.62109375 0.5859375,0 1.1132812,-0.19921875 1.546875,-0.59765625 0.2460937,-0.2226562 0.4570312,-0.4804687 0.5976562,-0.796875 h 1.1367188 c -0.09375,0.2578125 -0.2460938,0.5390625 -0.4804688,0.84375 -0.234375,0.3046875 -0.46875,0.5625 -0.7148437,0.73828125 C 5.4012786,-0.19890575 4.9208098,0.0237505 4.3817473,0.140938 4.0887786,0.2112505 3.7723723,0.24640675 3.4325286,0.24640675 c -0.84375,0 -1.5117188,-0.31640625 -1.96875,-0.92578125 -0.4453125,-0.609375 -0.55078129,-1.4765625 -0.3164063,-2.578125 0.234375,-1.1015625 0.7148438,-1.9804687 1.453125,-2.671875 0.7265625,-0.6679687 1.5703125,-1.0078125 2.53125,-1.0078125 0.4804688,0 0.9257813,0.1171875 1.3359375,0.3398438 0.4101563,0.2109375 0.6796875,0.515625 0.8320313,0.8789062 z m -0.984375,1.78125 c 0.046875,-0.4921875 0.035156,-0.8789062 -0.082031,-1.1835937 -0.1875,-0.5507813 -0.6445312,-0.8320313 -1.3710937,-0.8320313 -0.5390625,0 -1.0195313,0.1992188 -1.4414063,0.5742188 -0.4453125,0.375 -0.7265625,0.8554687 -0.890625,1.4414062 z m 0,0"
       style="fill:#000000;fill-opacity:1;fill-rule:nonzero;stroke:none"
       aria-label="e"
       transform="matrix(1.3333333,0,0,1.3333333,305.71626,93.249583)" />
    <path
       id="path17"
       d="m 211.551,62.836 -0.528,-0.453 -0.523,-0.395 -0.523,-0.293 -0.524,-0.152 -0.523,0.012 -0.524,0.168 -0.523,0.304 -0.524,0.407 -1.047,0.906 -0.523,0.387 -0.523,0.277 -0.524,0.133 -0.523,-0.028 -0.524,-0.183 -0.523,-0.321 -0.524,-0.414 -0.523,-0.457 -0.523,-0.445 -0.524,-0.375 -0.527,-0.266 -0.524,-0.117 -0.523,0.047 -0.524,0.199 -0.523,0.332 -0.523,0.422 -0.524,0.461 -0.523,0.442 -0.524,0.367 -0.523,0.246 -0.524,0.098 -0.523,-0.063 -0.523,-0.215 -0.524,-0.344 -0.523,-0.429 -0.524,-0.461 -0.523,-0.434 -0.524,-0.355 -0.523,-0.235 -0.524,-0.078 -0.527,0.078 -0.523,0.235 -0.524,0.355 -0.523,0.434 -0.524,0.461 -0.523,0.429 -0.523,0.344 -0.524,0.215 -0.523,0.063 -0.524,-0.098 -0.523,-0.246 -0.524,-0.367 -0.523,-0.442 -0.524,-0.461 -0.523,-0.422 -0.523,-0.332 -0.524,-0.199 -0.523,-0.047 -0.524,0.117 -0.523,0.266 -0.528,0.375 -0.523,0.445 -0.523,0.457 -0.524,0.414 -0.523,0.321 -0.524,0.183 -0.523,0.028 -0.524,-0.133 -0.523,-0.277 -0.523,-0.387 -1.047,-0.906 -0.524,-0.407 -0.523,-0.304 -0.524,-0.168 -0.523,-0.012 -0.524,0.152 -0.523,0.293 -0.523,0.395 -0.528,0.453"
       style="fill:none;stroke:#000000;stroke-width:0.576;stroke-linecap:square;stroke-linejoin:miter;stroke-miterlimit:3.25;stroke-dasharray:none;stroke-opacity:1"
       transform="scale(1.3333333)" />
    <path
       id="path18"
       d="m 7.1717546,-6.2115563 -3.65625,6.21093755 v 0.1171875 c 0,0.0703125 0.011719,0.15234375 0.011719,0.22265625 0,0.0703125 0,0.140625 0,0.2109375 0,0.10546875 0,0.234375 -0.011719,0.36328125 -0.011719,0.14062495 -0.035156,0.28124995 -0.058594,0.44531245 -0.023437,0.140625 -0.058594,0.28125 -0.09375,0.4453125 -0.046875,0.140625 -0.1054688,0.2695313 -0.1875,0.375 C 3.1053484,2.307975 3.0233171,2.401725 2.9178484,2.4720375 2.8240984,2.54235 2.6951921,2.5775062 2.5545671,2.5775062 c -0.1054687,0 -0.1992187,-0.023437 -0.28125,-0.070312 C 2.1795671,2.4603187 2.1092546,2.4134437 2.0506609,2.3431312 1.9920671,2.2728187 1.9451921,2.1790687 1.9217546,2.0853187 1.8865984,1.9915687 1.8748796,1.8861 1.8748796,1.79235 c 0,-0.1992188 0.023437,-0.3632813 0.046875,-0.515625 0.035156,-0.1640625 0.070312,-0.3046875 0.1289063,-0.4453125 0.046875,-0.140625 0.1054687,-0.28125 0.1757812,-0.421875 0.082031,-0.12890625 0.1523438,-0.29296875 0.234375,-0.45703125 L 1.4764421,-6.2115563 h 1.1015625 l 0.703125,4.8984375 2.8242188,-4.8984375 z m 0,0"
       style="fill:#000000;fill-opacity:1;fill-rule:nonzero;stroke:none"
       aria-label="γ"
       transform="matrix(1.3333333,0,0,1.3333333,249.67985,106.8602)" />
    <path
       id="path19"
       d="m 171.961,62.836 c 0,0.613 -0.242,1.199 -0.672,1.629 -0.434,0.433 -1.019,0.676 -1.633,0.676 -0.609,0 -1.195,-0.243 -1.629,-0.676 -0.429,-0.43 -0.672,-1.016 -0.672,-1.629 0,-0.609 0.243,-1.195 0.672,-1.629 0.434,-0.434 1.02,-0.676 1.629,-0.676 0.614,0 1.199,0.242 1.633,0.676 0.43,0.434 0.672,1.02 0.672,1.629 z"
       style="fill:#000000;fill-opacity:1;fill-rule:evenodd;stroke:none"
       transform="scale(1.3333333)" />
    <path
       id="path20"
       d="m 208.93,65.453 5.238,-5.234"
       style="fill:none;stroke:#000000;stroke-width:1.728;stroke-linecap:square;stroke-linejoin:miter;stroke-miterlimit:3.25;stroke-dasharray:none;stroke-opacity:1"
       transform="scale(1.3333333)" />
    <path
       id="path21"
       d="m 208.93,60.219 5.238,5.234"
       style="fill:none;stroke:#000000;stroke-width:1.728;stroke-linecap:square;stroke-linejoin:miter;stroke-miterlimit:3.25;stroke-dasharray:none;stroke-opacity:1"
       transform="scale(1.3333333)" />
    <path
       id="path22"
       d="m 1.0438244,-5.4480648 v -0.7382813 c 0.703125,-0.058594 1.1953125,-0.1875 1.4648438,-0.3398437 0.28125,-0.1523438 0.4804687,-0.5390625 0.6210937,-1.1367188 h 0.7617188 v 7.66406254 h -1.03125 V -5.4480648 Z m 0,0"
       style="fill:#000000;fill-opacity:1;fill-rule:nonzero;stroke:none"
       aria-label="1"
       transform="matrix(1.3333333,0,0,1.3333333,250.06527,153.79924)" />
    <path
       id="path23"
       d="m 253.441,36.656 52.364,5.235"
       style="fill:none;stroke:#000000;stroke-width:0.576;stroke-linecap:square;stroke-linejoin:miter;stroke-miterlimit:3.25;stroke-dasharray:none;stroke-opacity:1"
       transform="scale(1.3333333)" />
    <path
       id="path24"
       d="m 282.746,39.586 -6.457,1.457 0.414,-4.168 z"
       style="fill:#000000;fill-opacity:1;fill-rule:evenodd;stroke:none"
       transform="scale(1.3333333)" />
    <path
       id="path25"
       d="m 7.3020008,-5.7199439 c 0.1757813,0.3398437 0.234375,0.7382812 0.2109375,1.1953125 0,0.3164062 -0.070312,0.8085937 -0.2109375,1.5 H 2.3098133 c -0.1289062,0.6796875 -0.070312,1.2421875 0.1523438,1.6640625 0.1992187,0.41015621 0.6328125,0.62109371 1.2773437,0.62109371 0.5859375,0 1.1132813,-0.19921875 1.546875,-0.59765621 0.2460938,-0.2226563 0.4570313,-0.4804688 0.5976563,-0.796875 h 1.1367187 c -0.09375,0.2578125 -0.2460937,0.5390625 -0.4804687,0.84375 -0.234375,0.30468746 -0.46875,0.56249996 -0.7148438,0.73828121 -0.421875,0.3515625 -0.9023437,0.57421875 -1.4414062,0.69140625 -0.2929688,0.0703125 -0.609375,0.10546875 -0.9492188,0.10546875 -0.84375,0 -1.5117187,-0.31640625 -1.96875,-0.92578125 C 1.0207508,-1.2902564 0.91528206,-2.1574439 1.1496571,-3.2590064 c 0.234375,-1.1015625 0.7148437,-1.9804688 1.453125,-2.671875 0.7265625,-0.6679688 1.5703125,-1.0078125 2.53125,-1.0078125 0.4804687,0 0.9257812,0.1171875 1.3359375,0.3398437 0.4101562,0.2109375 0.6796875,0.515625 0.8320312,0.8789063 z m -0.984375,1.78125 c 0.046875,-0.4921875 0.035156,-0.8789063 -0.082031,-1.1835938 -0.1875,-0.5507812 -0.6445313,-0.8320312 -1.3710938,-0.8320312 -0.5390625,0 -1.0195312,0.1992187 -1.4414062,0.5742187 -0.4453125,0.375 -0.7265625,0.8554688 -0.890625,1.4414063 z m 0,0"
       style="fill:#000000;fill-opacity:1;fill-rule:nonzero;stroke:none"
       aria-label="e"
       transform="matrix(1.3333333,0,0,1.3333333,366.54134,75.388311)" />
    <path
       id="path26"
       d="m 253.441,89.02 52.364,-5.239"
       style="fill:none;stroke:#000000;stroke-width:0.576;stroke-linecap:square;stroke-linejoin:miter;stroke-miterlimit:3.25;stroke-dasharray:none;stroke-opacity:1"
       transform="scale(1.3333333)" />
    <path
       id="path27"
       d="m 276.496,86.711 6.461,1.461 -0.418,-4.168 z"
       style="fill:#000000;fill-opacity:1;fill-rule:evenodd;stroke:none"
       transform="scale(1.3333333)" />
    <path
       id="path28"
       d="m 7.3010426,-5.7173341 c 0.1757813,0.3398437 0.234375,0.7382812 0.2109375,1.1953125 0,0.3164062 -0.070312,0.8085937 -0.2109375,1.5 H 2.3088551 c -0.1289062,0.6796875 -0.070312,1.2421875 0.1523438,1.6640625 0.1992187,0.41015623 0.6328125,0.62109373 1.2773437,0.62109373 0.5859375,0 1.1132813,-0.19921875 1.546875,-0.59765623 0.2460938,-0.2226563 0.4570313,-0.4804688 0.5976563,-0.796875 h 1.1367187 c -0.09375,0.2578125 -0.2460937,0.5390625 -0.4804687,0.84375 -0.234375,0.30468748 -0.46875,0.56249998 -0.7148438,0.73828123 -0.421875,0.3515625 -0.9023437,0.57421875 -1.4414062,0.69140625 -0.2929688,0.0703125 -0.609375,0.10546875 -0.9492188,0.10546875 -0.84375,0 -1.5117187,-0.31640625 -1.96875,-0.92578125 C 1.0197926,-1.2876466 0.91432388,-2.1548341 1.1486989,-3.2563966 c 0.234375,-1.1015625 0.7148437,-1.9804688 1.453125,-2.671875 0.7265625,-0.6679688 1.5703125,-1.0078125 2.53125,-1.0078125 0.4804687,0 0.9257812,0.1171875 1.3359375,0.3398437 0.4101562,0.2109375 0.6796875,0.515625 0.8320312,0.8789063 z m -0.984375,1.78125 c 0.046875,-0.4921875 0.035156,-0.8789063 -0.082031,-1.1835938 -0.1875,-0.5507812 -0.6445313,-0.8320312 -1.3710938,-0.8320312 -0.5390625,0 -1.0195312,0.1992187 -1.4414062,0.5742187 -0.4453125,0.375 -0.7265625,0.8554688 -0.890625,1.4414063 z m 0,0"
       style="fill:#000000;fill-opacity:1;fill-rule:nonzero;stroke:none"
       aria-label="e"
       transform="matrix(1.3333333,0,0,1.3333333,368.69496,138.22467)" />
    <path
       id="path29"
       d="m 358.168,36.656 -52.363,5.235"
       style="fill:none;stroke:#000000;stroke-width:0.576;stroke-linecap:square;stroke-linejoin:miter;stroke-miterlimit:3.25;stroke-dasharray:none;stroke-opacity:1"
       transform="scale(1.3333333)" />
    <path
       id="path30"
       d="m 335.113,38.961 -6.461,-1.461 0.414,4.168 z"
       style="fill:#000000;fill-opacity:1;fill-rule:evenodd;stroke:none"
       transform="scale(1.3333333)" />
    <path
       id="path31"
       d="m 7.3006695,-5.7190647 c 0.1757812,0.3398437 0.234375,0.7382812 0.2109375,1.1953125 0,0.3164062 -0.070312,0.8085937 -0.2109375,1.5 H 2.308482 c -0.1289063,0.6796875 -0.070312,1.2421875 0.1523437,1.6640625 0.1992188,0.4101562 0.6328125,0.6210937 1.2773438,0.6210937 0.5859375,0 1.1132812,-0.19921875 1.546875,-0.5976562 0.2460937,-0.2226563 0.4570312,-0.4804688 0.5976562,-0.796875 h 1.1367188 c -0.09375,0.2578125 -0.2460938,0.5390625 -0.4804688,0.84375 -0.234375,0.30468745 -0.46875,0.56249995 -0.7148437,0.7382812 C 5.402232,-0.1995335 4.9217632,0.02312275 4.3827007,0.14031025 4.089732,0.21062275 3.7733257,0.245779 3.433482,0.245779 c -0.84375,0 -1.5117188,-0.31640625 -1.96875,-0.92578125 C 1.0194195,-1.2893772 0.91395075,-2.1565647 1.1483257,-3.2581272 c 0.234375,-1.1015625 0.7148438,-1.9804688 1.453125,-2.671875 0.7265625,-0.6679688 1.5703125,-1.0078125 2.53125,-1.0078125 0.4804688,0 0.9257813,0.1171875 1.3359375,0.3398437 0.4101563,0.2109375 0.6796875,0.515625 0.8320313,0.8789063 z m -0.984375,1.78125 c 0.046875,-0.4921875 0.035156,-0.8789063 -0.082031,-1.1835938 -0.1875,-0.5507812 -0.6445312,-0.8320312 -1.3710937,-0.8320312 -0.5390625,0 -1.0195313,0.1992187 -1.4414063,0.5742187 -0.4453125,0.375 -0.7265625,0.8554688 -0.890625,1.4414063 z m 0,0"
       style="fill:#000000;fill-opacity:1;fill-rule:nonzero;stroke:none"
       aria-label="e"
       transform="matrix(1.3333333,0,0,1.3333333,436.35952,41.922295)" />
    <path
       id="path32"
       d="M 358.168,89.02 305.805,83.781"
       style="fill:none;stroke:#000000;stroke-width:0.576;stroke-linecap:square;stroke-linejoin:miter;stroke-miterlimit:3.25;stroke-dasharray:none;stroke-opacity:1"
       transform="scale(1.3333333)" />
    <path
       id="path33"
       d="m 328.859,86.086 6.461,-1.457 -0.418,4.168 z"
       style="fill:#000000;fill-opacity:1;fill-rule:evenodd;stroke:none"
       transform="scale(1.3333333)" />
    <path
       id="path34"
       d="m 7.2997103,-5.7193846 c 0.1757813,0.3398437 0.234375,0.7382812 0.2109375,1.1953125 0,0.3164062 -0.070312,0.8085937 -0.2109375,1.5 H 2.3075228 c -0.1289062,0.6796875 -0.070312,1.2421875 0.1523438,1.6640625 0.1992187,0.41015622 0.6328125,0.62109372 1.2773437,0.62109372 0.5859375,0 1.1132813,-0.19921875 1.546875,-0.59765622 0.2460938,-0.2226563 0.4570313,-0.4804688 0.5976563,-0.796875 h 1.1367187 c -0.09375,0.2578125 -0.2460937,0.5390625 -0.4804687,0.84375 -0.234375,0.30468747 -0.46875,0.56249997 -0.7148438,0.73828122 -0.421875,0.3515625 -0.9023437,0.57421875 -1.4414062,0.69140625 -0.2929688,0.0703125 -0.609375,0.10546875 -0.9492188,0.10546875 -0.84375,0 -1.5117187,-0.31640625 -1.96875,-0.92578125 C 1.0184603,-1.2896971 0.91299156,-2.1568846 1.1473666,-3.2584471 c 0.234375,-1.1015625 0.7148437,-1.9804688 1.453125,-2.671875 0.7265625,-0.6679688 1.5703125,-1.0078125 2.53125,-1.0078125 0.4804687,0 0.9257812,0.1171875 1.3359375,0.3398437 0.4101562,0.2109375 0.6796875,0.515625 0.8320312,0.8789063 z m -0.984375,1.78125 c 0.046875,-0.4921875 0.035156,-0.8789063 -0.082031,-1.1835938 -0.1875,-0.5507812 -0.6445313,-0.8320312 -1.3710938,-0.8320312 -0.5390625,0 -1.0195312,0.1992187 -1.4414062,0.5742187 -0.4453125,0.375 -0.7265625,0.8554688 -0.890625,1.4414063 z m 0,0"
       style="fill:#000000;fill-opacity:1;fill-rule:nonzero;stroke:none"
       aria-label="e"
       transform="matrix(1.3333333,0,0,1.3333333,438.51315,104.75866)" />
    <path
       id="path35"
       d="m 305.805,83.781 0.453,-0.523 0.394,-0.524 0.293,-0.523 0.153,-0.523 -0.012,-0.524 -0.168,-0.523 -0.305,-0.524 -0.406,-0.523 -0.457,-0.524 -0.449,-0.523 -0.387,-0.524 -0.277,-0.523 -0.133,-0.523 0.027,-0.528 0.184,-0.523 0.316,-0.524 0.414,-0.523 0.461,-0.524 0.446,-0.523 0.375,-0.523 0.265,-0.524 0.113,-0.523 -0.043,-0.524 -0.203,-0.523 -0.332,-0.524 -0.422,-0.523 -0.457,-0.523 -0.441,-0.524 -0.367,-0.523 -0.246,-0.524 -0.102,-0.523 0.063,-0.524 0.218,-0.527 0.344,-0.523 0.43,-0.524 0.461,-0.523 0.433,-0.524 0.356,-0.523 0.234,-0.524 0.078,-0.523 -0.078,-0.524 -0.234,-0.523 -0.356,-0.523 -0.433,-0.524 -0.461,-0.523 -0.43,-0.524 -0.344,-0.523 -0.218,-0.524 -0.063,-0.523 0.102,-0.523 0.246,-0.524 0.367,-0.527 0.441,-0.524 0.457,-0.523 0.422,-0.524 0.332,-0.523 0.203,-0.523 0.043,-0.524 -0.113,-0.523 -0.265,-0.524 -0.375,-0.523 -0.446,-0.524 -0.461,-0.523 -0.414,-0.523 -0.316,-0.524 -0.184,-0.523 -0.027,-0.524 0.133,-0.523 0.277,-0.524 0.387,-0.523 0.449,-0.524 0.457,-0.527 0.406,-0.523 0.305,-0.524 0.168,-0.523 0.012,-0.524 -0.153,-0.523 -0.293,-0.523 -0.394,-0.524 -0.453,-0.523"
       style="fill:none;stroke:#000000;stroke-width:0.576;stroke-linecap:square;stroke-linejoin:miter;stroke-miterlimit:3.25;stroke-dasharray:none;stroke-opacity:1"
       transform="scale(1.3333333)" />
    <path
       id="path36"
       d="M 7.1721422,-6.2103874 3.5158922,5.500625e-4 V 0.11773756 c 0,0.0703125 0.011719,0.15234375 0.011719,0.22265625 0,0.0703125 0,0.140625 0,0.2109375 0,0.10546875 0,0.234375 -0.011719,0.36328125 -0.011719,0.14062504 -0.035156,0.28125004 -0.058594,0.44531254 -0.023437,0.140625 -0.058594,0.28125 -0.09375,0.4453125 -0.046875,0.140625 -0.1054687,0.2695312 -0.1875,0.375 -0.070312,0.1289062 -0.1523437,0.2226562 -0.2578125,0.2929687 -0.09375,0.070312 -0.2226562,0.1054688 -0.3632812,0.1054688 -0.1054688,0 -0.1992188,-0.023437 -0.28125,-0.070312 C 2.1799547,2.4614876 2.1096422,2.4146126 2.0510484,2.3443001 1.9924547,2.2739876 1.9455797,2.1802376 1.9221422,2.0864876 1.8869859,1.9927376 1.8752672,1.8872688 1.8752672,1.7935188 c 0,-0.1992187 0.023437,-0.3632812 0.046875,-0.515625 0.035156,-0.1640625 0.070312,-0.30468749 0.1289062,-0.44531249 0.046875,-0.140625 0.1054688,-0.28125 0.1757813,-0.421875 0.082031,-0.12890625 0.1523437,-0.29296875 0.234375,-0.45703125 L 1.4768297,-6.2103874 h 1.1015625 l 0.703125,4.8984375 2.8242187,-4.8984375 z m 0,0"
       style="fill:#000000;fill-opacity:1;fill-rule:nonzero;stroke:none"
       aria-label="γ"
       transform="matrix(1.3333333,0,0,1.3333333,392.2223,90.073485)"
       clip-path="url(#clipPath37)" />
    <path
       id="path38"
       d="m 308.109,41.891 c 0,0.613 -0.246,1.199 -0.675,1.629 -0.434,0.433 -1.02,0.675 -1.629,0.675 -0.614,0 -1.2,-0.242 -1.629,-0.675 -0.434,-0.43 -0.676,-1.016 -0.676,-1.629 0,-0.61 0.242,-1.196 0.676,-1.629 0.429,-0.434 1.015,-0.676 1.629,-0.676 0.609,0 1.195,0.242 1.629,0.676 0.429,0.433 0.675,1.019 0.675,1.629 z"
       style="fill:#000000;fill-opacity:1;fill-rule:evenodd;stroke:none"
       transform="scale(1.3333333)" />
    <path
       id="path39"
       d="m 303.184,86.398 5.238,-5.234"
       style="fill:none;stroke:#000000;stroke-width:1.728;stroke-linecap:square;stroke-linejoin:miter;stroke-miterlimit:3.25;stroke-dasharray:none;stroke-opacity:1"
       transform="scale(1.3333333)" />
    <path
       id="path40"
       d="m 303.184,81.164 5.238,5.234"
       style="fill:none;stroke:#000000;stroke-width:1.728;stroke-linecap:square;stroke-linejoin:miter;stroke-miterlimit:3.25;stroke-dasharray:none;stroke-opacity:1"
       transform="scale(1.3333333)" />
    <path
       id="path41"
       d="m 0.33894163,0.00115394 c 0.0351563,-0.65625 0.1640625,-1.23046874 0.41015625,-1.72265624 0.24609375,-0.4921875 0.70312502,-0.9375 1.39453122,-1.3359375 l 1.03125,-0.609375 c 0.46875,-0.2578125 0.7851563,-0.4921875 0.9726563,-0.6796875 0.2929687,-0.2929688 0.4453125,-0.6328125 0.4453125,-1.0195313 0,-0.4453125 -0.140625,-0.8085937 -0.4101563,-1.0664062 -0.2695312,-0.2695313 -0.6328125,-0.3984375 -1.0664062,-0.3984375 -0.6796875,0 -1.125,0.2460937 -1.3828125,0.7617187 -0.140625,0.2578125 -0.1992188,0.6328125 -0.2226563,1.1132813 H 0.52644163 c 0.0117188,-0.6796875 0.12890625,-1.21875 0.375,-1.640625 0.42187497,-0.7382813 1.16015627,-1.1132813 2.21484377,-1.1132813 0.8789062,0 1.5234375,0.2226563 1.9335937,0.7148438 0.4101563,0.46875 0.609375,0.9960937 0.609375,1.5820312 0,0.6210938 -0.2226562,1.1484375 -0.65625,1.5820313 -0.2460937,0.2578125 -0.703125,0.5625 -1.3359375,0.9257812 l -0.7382812,0.4101563 c -0.3515625,0.1992187 -0.6328125,0.375 -0.84375,0.5507812 -0.3515625,0.3164063 -0.5742188,0.65625 -0.6679688,1.03125004 h 4.2070313 v 0.9140625 z m 0,0"
       style="fill:#000000;fill-opacity:1;fill-rule:nonzero;stroke:none"
       aria-label="2"
       transform="matrix(1.3333333,0,0,1.3333333,403.66527,153.79924)" />
    <path
       id="path42"
       d="m 368.641,36.656 52.363,5.235"
       style="fill:none;stroke:#000000;stroke-width:0.576;stroke-linecap:square;stroke-linejoin:miter;stroke-miterlimit:3.25;stroke-dasharray:none;stroke-opacity:1"
       transform="scale(1.3333333)" />
    <path
       id="path43"
       d="m 397.949,39.586 -6.461,1.457 0.414,-4.168 z"
       style="fill:#000000;fill-opacity:1;fill-rule:evenodd;stroke:none"
       transform="scale(1.3333333)" />
    <path
       id="path44"
       d="m 7.300243,-5.7199439 c 0.1757813,0.3398437 0.234375,0.7382812 0.2109375,1.1953125 0,0.3164062 -0.070312,0.8085937 -0.2109375,1.5 H 2.3080555 c -0.1289062,0.6796875 -0.070312,1.2421875 0.1523438,1.6640625 0.1992187,0.41015621 0.6328125,0.62109371 1.2773437,0.62109371 0.5859375,0 1.1132813,-0.19921875 1.546875,-0.59765621 0.2460938,-0.2226563 0.4570313,-0.4804688 0.5976563,-0.796875 H 7.018993 c -0.09375,0.2578125 -0.2460937,0.5390625 -0.4804687,0.84375 -0.234375,0.30468746 -0.46875,0.56249996 -0.7148438,0.73828121 -0.421875,0.3515625 -0.9023437,0.57421875 -1.4414062,0.69140625 -0.2929688,0.0703125 -0.609375,0.10546875 -0.9492188,0.10546875 -0.84375,0 -1.5117187,-0.31640625 -1.96875,-0.92578125 C 1.018993,-1.2902564 0.91352425,-2.1574439 1.1478993,-3.2590064 c 0.234375,-1.1015625 0.7148437,-1.9804688 1.453125,-2.671875 0.7265625,-0.6679688 1.5703125,-1.0078125 2.53125,-1.0078125 0.4804687,0 0.9257812,0.1171875 1.3359375,0.3398437 0.4101562,0.2109375 0.6796875,0.515625 0.8320312,0.8789063 z m -0.984375,1.78125 c 0.046875,-0.4921875 0.035156,-0.8789063 -0.082031,-1.1835938 -0.1875,-0.5507812 -0.6445313,-0.8320312 -1.3710938,-0.8320312 -0.5390625,0 -1.0195312,0.1992187 -1.4414062,0.5742187 -0.4453125,0.375 -0.7265625,0.8554688 -0.890625,1.4414063 z m 0,0"
       style="fill:#000000;fill-opacity:1;fill-rule:nonzero;stroke:none"
       aria-label="e"
       transform="matrix(1.3333333,0,0,1.3333333,520.14134,75.388311)" />
    <path
       id="path45"
       d="m 368.641,89.02 52.363,-5.239"
       style="fill:none;stroke:#000000;stroke-width:0.576;stroke-linecap:square;stroke-linejoin:miter;stroke-miterlimit:3.25;stroke-dasharray:none;stroke-opacity:1"
       transform="scale(1.3333333)" />
    <path
       id="path46"
       d="m 391.695,86.711 6.461,1.461 -0.418,-4.168 z"
       style="fill:#000000;fill-opacity:1;fill-rule:evenodd;stroke:none"
       transform="scale(1.3333333)" />
    <path
       id="path47"
       d="m 7.3022145,-5.7173341 c 0.1757813,0.3398437 0.234375,0.7382812 0.2109375,1.1953125 0,0.3164062 -0.070312,0.8085937 -0.2109375,1.5 H 2.310027 c -0.1289062,0.6796875 -0.070312,1.2421875 0.1523438,1.6640625 0.1992187,0.41015623 0.6328125,0.62109373 1.2773437,0.62109373 0.5859375,0 1.1132813,-0.19921875 1.546875,-0.59765623 0.2460938,-0.2226563 0.4570313,-0.4804688 0.5976563,-0.796875 h 1.1367187 c -0.09375,0.2578125 -0.2460937,0.5390625 -0.4804687,0.84375 -0.234375,0.30468748 -0.46875,0.56249998 -0.7148438,0.73828123 -0.421875,0.3515625 -0.9023437,0.57421875 -1.4414062,0.69140625 -0.2929688,0.0703125 -0.609375,0.10546875 -0.9492188,0.10546875 -0.84375,0 -1.5117187,-0.31640625 -1.96875,-0.92578125 C 1.0209645,-1.2876466 0.91549575,-2.1548341 1.1498708,-3.2563966 c 0.234375,-1.1015625 0.7148437,-1.9804688 1.453125,-2.671875 0.7265625,-0.6679688 1.5703125,-1.0078125 2.53125,-1.0078125 0.4804687,0 0.9257812,0.1171875 1.3359375,0.3398437 0.4101562,0.2109375 0.6796875,0.515625 0.8320312,0.8789063 z m -0.984375,1.78125 c 0.046875,-0.4921875 0.035156,-0.8789063 -0.082031,-1.1835938 -0.1875,-0.5507812 -0.6445313,-0.8320312 -1.3710938,-0.8320312 -0.5390625,0 -1.0195312,0.1992187 -1.4414062,0.5742187 -0.4453125,0.375 -0.7265625,0.8554688 -0.890625,1.4414063 z m 0,0"
       style="fill:#000000;fill-opacity:1;fill-rule:nonzero;stroke:none"
       aria-label="e"
       transform="matrix(1.3333333,0,0,1.3333333,522.29496,138.22467)" />
    <path
       id="path48"
       d="m 473.367,36.656 -52.363,5.235"
       style="fill:none;stroke:#000000;stroke-width:0.576;stroke-linecap:square;stroke-linejoin:miter;stroke-miterlimit:3.25;stroke-dasharray:none;stroke-opacity:1"
       transform="scale(1.3333333)" />
    <path
       id="path49"
       d="m 450.312,38.961 -6.46,-1.461 0.418,4.168 z"
       style="fill:#000000;fill-opacity:1;fill-rule:evenodd;stroke:none"
       transform="scale(1.3333333)" />
    <path
       id="path50"
       d="m 7.3018414,-5.7190647 c 0.1757812,0.3398437 0.234375,0.7382812 0.2109375,1.1953125 0,0.3164062 -0.070312,0.8085937 -0.2109375,1.5 H 2.3096539 c -0.1289063,0.6796875 -0.070312,1.2421875 0.1523437,1.6640625 0.1992188,0.4101562 0.6328125,0.6210937 1.2773438,0.6210937 0.5859375,0 1.1132812,-0.19921875 1.546875,-0.5976562 0.2460937,-0.2226563 0.4570312,-0.4804688 0.5976562,-0.796875 h 1.1367188 c -0.09375,0.2578125 -0.2460938,0.5390625 -0.4804688,0.84375 -0.234375,0.30468745 -0.46875,0.56249995 -0.7148437,0.7382812 C 5.4034039,-0.1995335 4.9229351,0.02312275 4.3838726,0.14031025 4.0909039,0.21062275 3.7744976,0.245779 3.4346539,0.245779 c -0.84375,0 -1.5117188,-0.31640625 -1.96875,-0.92578125 C 1.0205914,-1.2893772 0.91512262,-2.1565647 1.1494976,-3.2581272 c 0.234375,-1.1015625 0.7148438,-1.9804688 1.453125,-2.671875 0.7265625,-0.6679688 1.5703125,-1.0078125 2.53125,-1.0078125 0.4804688,0 0.9257813,0.1171875 1.3359375,0.3398437 0.4101563,0.2109375 0.6796875,0.515625 0.8320313,0.8789063 z m -0.984375,1.78125 c 0.046875,-0.4921875 0.035156,-0.8789063 -0.082031,-1.1835938 -0.1875,-0.5507812 -0.6445312,-0.8320312 -1.3710937,-0.8320312 -0.5390625,0 -1.0195313,0.1992187 -1.4414063,0.5742187 -0.4453125,0.375 -0.7265625,0.8554688 -0.890625,1.4414063 z m 0,0"
       style="fill:#000000;fill-opacity:1;fill-rule:nonzero;stroke:none"
       aria-label="e"
       transform="matrix(1.3333333,0,0,1.3333333,589.95952,41.922295)" />
    <path
       id="path51"
       d="M 473.367,89.02 421.004,83.781"
       style="fill:none;stroke:#000000;stroke-width:0.576;stroke-linecap:square;stroke-linejoin:miter;stroke-miterlimit:3.25;stroke-dasharray:none;stroke-opacity:1"
       transform="scale(1.3333333)" />
    <path
       id="path52"
       d="m 444.059,86.086 6.461,-1.457 -0.418,4.168 z"
       style="fill:#000000;fill-opacity:1;fill-rule:evenodd;stroke:none"
       transform="scale(1.3333333)" />
    <path
       id="path53"
       d="m 7.3008822,-5.7193846 c 0.1757812,0.3398437 0.234375,0.7382812 0.2109375,1.1953125 0,0.3164062 -0.070312,0.8085937 -0.2109375,1.5 H 2.3086947 c -0.1289063,0.6796875 -0.070312,1.2421875 0.1523437,1.6640625 0.1992188,0.41015622 0.6328125,0.62109372 1.2773438,0.62109372 0.5859375,0 1.1132812,-0.19921875 1.546875,-0.59765622 0.2460937,-0.2226563 0.4570312,-0.4804688 0.5976562,-0.796875 h 1.1367188 c -0.09375,0.2578125 -0.2460938,0.5390625 -0.4804688,0.84375 -0.234375,0.30468747 -0.46875,0.56249997 -0.7148437,0.73828122 -0.421875,0.3515625 -0.9023438,0.57421875 -1.4414063,0.69140625 -0.2929687,0.0703125 -0.609375,0.10546875 -0.9492187,0.10546875 -0.84375,0 -1.5117188,-0.31640625 -1.96875,-0.92578125 C 1.0196322,-1.2896971 0.91416344,-2.1568846 1.1485384,-3.2584471 c 0.234375,-1.1015625 0.7148438,-1.9804688 1.453125,-2.671875 0.7265625,-0.6679688 1.5703125,-1.0078125 2.53125,-1.0078125 0.4804688,0 0.9257813,0.1171875 1.3359375,0.3398437 0.4101563,0.2109375 0.6796875,0.515625 0.8320313,0.8789063 z m -0.984375,1.78125 c 0.046875,-0.4921875 0.035156,-0.8789063 -0.082031,-1.1835938 -0.1875,-0.5507812 -0.6445312,-0.8320312 -1.3710937,-0.8320312 -0.5390625,0 -1.0195313,0.1992187 -1.4414063,0.5742187 -0.4453125,0.375 -0.7265625,0.8554688 -0.890625,1.4414063 z m 0,0"
       style="fill:#000000;fill-opacity:1;fill-rule:nonzero;stroke:none"
       aria-label="e"
       transform="matrix(1.3333333,0,0,1.3333333,592.11315,104.75866)" />
    <path
       id="path54"
       d="m 421.004,83.781 0.453,-0.523 0.398,-0.524 0.29,-0.523 0.152,-0.523 -0.012,-0.524 -0.164,-0.523 -0.309,-0.524 -0.406,-0.523 -0.906,-1.047 -0.387,-0.524 -0.277,-0.523 -0.133,-0.523 0.027,-0.528 0.184,-0.523 0.32,-0.524 0.414,-0.523 0.457,-0.524 0.446,-0.523 0.375,-0.523 0.265,-0.524 0.118,-0.523 -0.047,-0.524 -0.2,-0.523 -0.332,-0.524 -0.421,-0.523 -0.461,-0.523 -0.442,-0.524 -0.367,-0.523 -0.246,-0.524 -0.098,-0.523 0.063,-0.524 0.215,-0.527 0.343,-0.523 0.43,-0.524 0.461,-0.523 0.434,-0.524 0.355,-0.523 0.234,-0.524 0.082,-0.523 -0.082,-0.524 -0.234,-0.523 -0.355,-0.523 -0.434,-0.524 -0.461,-0.523 -0.43,-0.524 -0.343,-0.523 -0.215,-0.524 -0.063,-0.523 0.098,-0.523 0.246,-0.524 0.367,-0.527 0.442,-0.524 0.461,-0.523 0.421,-0.524 0.332,-0.523 0.2,-0.523 0.047,-0.524 -0.118,-0.523 -0.265,-0.524 -0.375,-0.523 -0.446,-0.524 -0.457,-0.523 -0.414,-0.523 -0.32,-0.524 -0.184,-0.523 -0.027,-0.524 0.133,-0.523 0.277,-0.524 0.387,-0.523 0.453,-0.524 0.453,-0.527 0.406,-0.523 0.309,-0.524 0.164,-0.523 0.012,-0.524 -0.152,-0.523 -0.29,-0.523 -0.398,-0.524 -0.453,-0.523"
       style="fill:none;stroke:#000000;stroke-width:0.576;stroke-linecap:square;stroke-linejoin:miter;stroke-miterlimit:3.25;stroke-dasharray:none;stroke-opacity:1"
       transform="scale(1.3333333)" />
    <path
       id="path55"
       d="M 7.1733141,-6.2103874 3.5170641,5.500625e-4 V 0.11773756 c 0,0.0703125 0.011719,0.15234375 0.011719,0.22265625 0,0.0703125 0,0.140625 0,0.2109375 0,0.10546875 0,0.234375 -0.011719,0.36328125 -0.011719,0.14062504 -0.035156,0.28125004 -0.058594,0.44531254 -0.023437,0.140625 -0.058594,0.28125 -0.09375,0.4453125 -0.046875,0.140625 -0.1054687,0.2695312 -0.1875,0.375 -0.070312,0.1289062 -0.1523437,0.2226562 -0.2578125,0.2929687 -0.09375,0.070312 -0.2226562,0.1054688 -0.3632812,0.1054688 -0.1054688,0 -0.1992188,-0.023437 -0.28125,-0.070312 C 2.1811266,2.4614876 2.1108141,2.4146126 2.0522203,2.3443001 1.9936266,2.2739876 1.9467516,2.1802376 1.9233141,2.0864876 1.8881578,1.9927376 1.8764391,1.8872688 1.8764391,1.7935188 c 0,-0.1992187 0.023437,-0.3632812 0.046875,-0.515625 0.035156,-0.1640625 0.070312,-0.30468749 0.1289062,-0.44531249 0.046875,-0.140625 0.1054688,-0.28125 0.1757813,-0.421875 0.082031,-0.12890625 0.1523437,-0.29296875 0.234375,-0.45703125 L 1.4780016,-6.2103874 h 1.1015625 l 0.703125,4.8984375 2.8242187,-4.8984375 z m 0,0"
       style="fill:#000000;fill-opacity:1;fill-rule:nonzero;stroke:none"
       aria-label="γ"
       transform="matrix(1.3333333,0,0,1.3333333,545.8223,90.073485)" />
    <path
       id="path56"
       d="m 423.309,83.781 c 0,0.614 -0.243,1.199 -0.676,1.629 -0.434,0.434 -1.02,0.676 -1.629,0.676 -0.613,0 -1.199,-0.242 -1.629,-0.676 -0.434,-0.43 -0.676,-1.015 -0.676,-1.629 0,-0.609 0.242,-1.195 0.676,-1.629 0.43,-0.433 1.016,-0.675 1.629,-0.675 0.609,0 1.195,0.242 1.629,0.675 0.433,0.434 0.676,1.02 0.676,1.629 z"
       style="fill:#000000;fill-opacity:1;fill-rule:evenodd;stroke:none"
       transform="scale(1.3333333)" />
    <path
       id="path57"
       d="m 418.387,44.508 5.234,-5.235"
       style="fill:none;stroke:#000000;stroke-width:1.728;stroke-linecap:square;stroke-linejoin:miter;stroke-miterlimit:3.25;stroke-dasharray:none;stroke-opacity:1"
       transform="scale(1.3333333)" />
    <path
       id="path58"
       d="m 418.387,39.273 5.234,5.235"
       style="fill:none;stroke:#000000;stroke-width:1.728;stroke-linecap:square;stroke-linejoin:miter;stroke-miterlimit:3.25;stroke-dasharray:none;stroke-opacity:1"
       transform="scale(1.3333333)" />
    <path
       id="path59"
       d="m 2.847926,0.22381019 c -0.9023437,0 -1.5585937,-0.2578125 -1.98046875,-0.76171875 C 0.457301,-1.0300961 0.25808225,-1.6394711 0.25808225,-2.3543148 H 1.2658948 c 0.046875,0.4921875 0.140625,0.8554687 0.28125,1.078125 0.2460937,0.41015624 0.703125,0.60937499 1.359375,0.60937499 0.5039062,0 0.9140625,-0.140625 1.21875,-0.41015629 0.3046875,-0.2695312 0.46875,-0.6210937 0.46875,-1.0429687 0,-0.5390625 -0.1640625,-0.9023438 -0.4921875,-1.1132813 C 3.785426,-3.4558773 3.3401135,-3.5496273 2.754176,-3.5496273 c -0.058594,0 -0.1289062,0 -0.1875,0 -0.070312,0 -0.1289062,0 -0.2109375,0.011719 v -0.8671875 c 0.09375,0.011719 0.1875,0.023437 0.2578125,0.023437 0.058594,0 0.140625,0.011719 0.2109375,0.011719 0.3632813,0 0.6679688,-0.058594 0.890625,-0.1757813 0.4101563,-0.1992187 0.6210938,-0.5625 0.6210938,-1.078125 0,-0.3867187 -0.1289063,-0.6679687 -0.4101563,-0.8789062 -0.2695312,-0.2109375 -0.5859375,-0.3164063 -0.9492187,-0.3164063 -0.6445313,0 -1.0898438,0.2226563 -1.3359375,0.6445313 -0.1289063,0.234375 -0.2109375,0.5742187 -0.234375,1.0195312 H 0.44558225 c 0,-0.5742187 0.1171875,-1.0664062 0.3515625,-1.4648437 0.38671875,-0.7148438 1.08984375,-1.078125 2.07421875,-1.078125 0.796875,0 1.3945313,0.1757812 1.828125,0.5273437 0.4335938,0.3515625 0.6328125,0.8554688 0.6328125,1.5117188 0,0.4804687 -0.1171875,0.8671875 -0.375,1.1484375 -0.1640625,0.1875 -0.3515625,0.328125 -0.609375,0.4335937 0.4101563,0.1054688 0.7265625,0.328125 0.9492188,0.6445313 0.2226562,0.3164062 0.3398437,0.703125 0.3398437,1.1601562 0,0.7382813 -0.2460937,1.33593754 -0.7265625,1.80468754 -0.4921875,0.45703125 -1.171875,0.69140625 -2.0625,0.69140625 z m 0,0"
       style="fill:#000000;fill-opacity:1;fill-rule:nonzero;stroke:none"
       aria-label="3"
       transform="matrix(1.3333333,0,0,1.3333333,557.26527,153.79924)" />
    <path
       id="path60"
       d="m 483.84,36.656 31.418,26.18"
       style="fill:none;stroke:#000000;stroke-width:0.576;stroke-linecap:square;stroke-linejoin:miter;stroke-miterlimit:3.25;stroke-dasharray:none;stroke-opacity:1"
       transform="scale(1.3333333)" />
    <path
       id="path61"
       d="m 501.961,51.758 -6.168,-2.414 2.684,-3.219 z"
       style="fill:#000000;fill-opacity:1;fill-rule:evenodd;stroke:none"
       transform="scale(1.3333333)" />
    <path
       id="path62"
       d="m 7.3002383,-5.7179619 c 0.1757812,0.3398438 0.234375,0.7382813 0.2109375,1.1953125 0,0.3164063 -0.070312,0.8085938 -0.2109375,1.5 H 2.3080508 c -0.1289063,0.6796875 -0.070312,1.2421875 0.1523437,1.6640625 0.1992188,0.41015628 0.6328125,0.62109378 1.2773438,0.62109378 0.5859375,0 1.1132812,-0.19921875 1.546875,-0.59765628 0.2460937,-0.2226562 0.4570312,-0.4804687 0.5976562,-0.796875 h 1.1367188 c -0.09375,0.2578125 -0.2460938,0.5390625 -0.4804688,0.84375 -0.234375,0.30468753 -0.46875,0.56250003 -0.7148437,0.73828128 -0.421875,0.3515625 -0.9023438,0.57421875 -1.4414063,0.69140625 -0.2929687,0.0703125 -0.609375,0.10546875 -0.9492187,0.10546875 -0.84375,0 -1.5117188,-0.31640625 -1.96875,-0.92578125 C 1.0189883,-1.2882744 0.9135195,-2.1554619 1.1478945,-3.2570244 c 0.234375,-1.1015625 0.7148438,-1.9804687 1.453125,-2.671875 0.7265625,-0.6679687 1.5703125,-1.0078125 2.53125,-1.0078125 0.4804688,0 0.9257813,0.1171875 1.3359375,0.3398438 0.4101563,0.2109375 0.6796875,0.515625 0.8320313,0.8789062 z m -0.984375,1.78125 c 0.046875,-0.4921875 0.035156,-0.8789062 -0.082031,-1.1835937 -0.1875,-0.5507813 -0.6445312,-0.8320313 -1.3710937,-0.8320313 -0.5390625,0 -1.0195313,0.1992188 -1.4414063,0.5742188 -0.4453125,0.375 -0.7265625,0.8554687 -0.890625,1.4414062 z m 0,0"
       style="fill:#000000;fill-opacity:1;fill-rule:nonzero;stroke:none"
       aria-label="e"
       transform="matrix(1.3333333,0,0,1.3333333,652.93822,86.897387)" />
    <path
       id="path63"
       d="M 483.84,89.02 515.258,62.836"
       style="fill:none;stroke:#000000;stroke-width:0.576;stroke-linecap:square;stroke-linejoin:miter;stroke-miterlimit:3.25;stroke-dasharray:none;stroke-opacity:1"
       transform="scale(1.3333333)" />
    <path
       id="path64"
       d="m 497.137,77.938 6.168,-2.415 -2.684,-3.214 z"
       style="fill:#000000;fill-opacity:1;fill-rule:evenodd;stroke:none"
       transform="scale(1.3333333)" />
    <path
       id="path65"
       d="m 7.2998217,-5.7200924 c 0.1757812,0.3398438 0.234375,0.7382813 0.2109375,1.1953125 0,0.3164063 -0.070312,0.8085938 -0.2109375,1.5 H 2.3076342 c -0.1289063,0.6796875 -0.070312,1.2421875 0.1523437,1.6640625 0.1992188,0.41015628 0.6328125,0.62109378 1.2773438,0.62109378 0.5859375,0 1.1132812,-0.19921875 1.546875,-0.59765628 0.2460937,-0.2226562 0.4570312,-0.4804687 0.5976562,-0.796875 h 1.1367188 c -0.09375,0.2578125 -0.2460938,0.5390625 -0.4804688,0.84375 -0.234375,0.30468753 -0.46875,0.56250003 -0.7148437,0.73828128 -0.421875,0.3515625 -0.9023438,0.57421875 -1.4414063,0.69140625 -0.2929687,0.0703125 -0.609375,0.10546875 -0.9492187,0.10546875 -0.84375,0 -1.5117188,-0.31640625 -1.96875,-0.92578125 C 1.0185717,-1.2904049 0.91310294,-2.1575924 1.1474779,-3.2591549 c 0.234375,-1.1015625 0.7148438,-1.9804687 1.453125,-2.671875 0.7265625,-0.6679687 1.5703125,-1.0078125 2.53125,-1.0078125 0.4804688,0 0.9257813,0.1171875 1.3359375,0.3398438 0.4101563,0.2109375 0.6796875,0.515625 0.8320313,0.8789062 z m -0.984375,1.78125 c 0.046875,-0.4921875 0.035156,-0.8789062 -0.082031,-1.1835937 -0.1875,-0.5507813 -0.6445312,-0.8320313 -1.3710937,-0.8320313 -0.5390625,0 -1.0195313,0.1992188 -1.4414063,0.5742188 -0.4453125,0.375 -0.7265625,0.8554687 -0.890625,1.4414062 z m 0,0"
       style="fill:#000000;fill-opacity:1;fill-rule:nonzero;stroke:none"
       aria-label="e"
       transform="matrix(1.3333333,0,0,1.3333333,668.77081,121.80648)" />
    <path
       id="path66"
       d="m 588.566,36.656 -31.418,26.18"
       style="fill:none;stroke:#000000;stroke-width:0.576;stroke-linecap:square;stroke-linejoin:miter;stroke-miterlimit:3.25;stroke-dasharray:none;stroke-opacity:1"
       transform="scale(1.3333333)" />
    <path
       id="path67"
       d="m 575.273,47.734 -6.168,2.414 2.68,3.219 z"
       style="fill:#000000;fill-opacity:1;fill-rule:evenodd;stroke:none"
       transform="scale(1.3333333)" />
    <path
       id="path68"
       d="m 7.3007176,-5.7192362 c 0.1757812,0.3398438 0.234375,0.7382813 0.2109375,1.1953125 0,0.3164063 -0.070312,0.8085938 -0.2109375,1.5 H 2.3085301 c -0.1289063,0.6796875 -0.070312,1.2421875 0.1523437,1.6640625 0.1992188,0.41015626 0.6328125,0.62109376 1.2773438,0.62109376 0.5859375,0 1.1132812,-0.19921875 1.546875,-0.59765626 0.2460937,-0.2226562 0.4570312,-0.4804687 0.5976562,-0.796875 h 1.1367188 c -0.09375,0.2578125 -0.2460938,0.5390625 -0.4804688,0.84375 -0.234375,0.30468751 -0.46875,0.56250001 -0.7148437,0.73828126 -0.421875,0.3515625 -0.9023438,0.57421875 -1.4414063,0.69140625 -0.2929687,0.0703125 -0.609375,0.10546875 -0.9492187,0.10546875 -0.84375,0 -1.5117188,-0.31640625 -1.96875,-0.92578125 C 1.0194676,-1.2895487 0.91399881,-2.1567362 1.1483738,-3.2582987 c 0.234375,-1.1015625 0.7148438,-1.9804687 1.453125,-2.671875 0.7265625,-0.6679687 1.5703125,-1.0078125 2.53125,-1.0078125 0.4804688,0 0.9257813,0.1171875 1.3359375,0.3398438 0.4101563,0.2109375 0.6796875,0.515625 0.8320313,0.8789062 z m -0.984375,1.78125 c 0.046875,-0.4921875 0.035156,-0.8789062 -0.082031,-1.1835937 -0.1875,-0.5507813 -0.6445312,-0.8320313 -1.3710937,-0.8320313 -0.5390625,0 -1.0195313,0.1992188 -1.4414063,0.5742188 -0.4453125,0.375 -0.7265625,0.8554687 -0.890625,1.4414062 z m 0,0"
       style="fill:#000000;fill-opacity:1;fill-rule:nonzero;stroke:none"
       aria-label="e"
       transform="matrix(1.3333333,0,0,1.3333333,750.68368,58.340492)" />
    <path
       id="path69"
       d="M 588.566,89.02 557.148,62.836"
       style="fill:none;stroke:#000000;stroke-width:0.576;stroke-linecap:square;stroke-linejoin:miter;stroke-miterlimit:3.25;stroke-dasharray:none;stroke-opacity:1"
       transform="scale(1.3333333)" />
    <path
       id="path70"
       d="m 570.445,73.914 6.168,2.414 -2.683,3.219 z"
       style="fill:#000000;fill-opacity:1;fill-rule:evenodd;stroke:none"
       transform="scale(1.3333333)" />
    <path
       id="path71"
       d="m 7.300302,-5.718437 c 0.1757813,0.3398438 0.234375,0.7382813 0.2109375,1.1953125 0,0.3164063 -0.070312,0.8085938 -0.2109375,1.5 H 2.3081145 c -0.1289062,0.6796875 -0.070312,1.2421875 0.1523438,1.6640625 0.1992187,0.41015625 0.6328125,0.62109375 1.2773437,0.62109375 0.5859375,0 1.1132813,-0.19921875 1.546875,-0.59765625 0.2460938,-0.2226562 0.4570313,-0.4804687 0.5976563,-0.796875 H 7.019052 c -0.09375,0.2578125 -0.2460937,0.5390625 -0.4804687,0.84375 -0.234375,0.3046875 -0.46875,0.5625 -0.7148438,0.73828125 C 5.4018645,-0.19890575 4.9213958,0.0237505 4.3823333,0.140938 4.0893645,0.2112505 3.7729583,0.24640675 3.4331145,0.24640675 c -0.84375,0 -1.5117187,-0.31640625 -1.96875,-0.92578125 -0.4453125,-0.609375 -0.55078125,-1.4765625 -0.3164062,-2.578125 0.234375,-1.1015625 0.7148437,-1.9804687 1.453125,-2.671875 0.7265625,-0.6679687 1.5703125,-1.0078125 2.53125,-1.0078125 0.4804687,0 0.9257812,0.1171875 1.3359375,0.3398438 0.4101562,0.2109375 0.6796875,0.515625 0.8320312,0.8789062 z m -0.984375,1.78125 C 6.362802,-4.4293745 6.3510833,-4.8160932 6.2338958,-5.1207807 6.0463958,-5.671562 5.5893645,-5.952812 4.862802,-5.952812 c -0.5390625,0 -1.0195312,0.1992188 -1.4414062,0.5742188 -0.4453125,0.375 -0.7265625,0.8554687 -0.890625,1.4414062 z m 0,0"
       style="fill:#000000;fill-opacity:1;fill-rule:nonzero;stroke:none"
       aria-label="e"
       transform="matrix(1.3333333,0,0,1.3333333,766.51626,93.249583)" />
    <path
       id="path72"
       d="m 557.148,62.836 -0.523,-0.453 -0.523,-0.395 -0.524,-0.293 -0.523,-0.152 -0.524,0.012 -0.523,0.168 -0.524,0.304 -0.523,0.407 -1.047,0.906 -0.523,0.387 -0.524,0.277 -0.523,0.133 -0.528,-0.028 -0.523,-0.183 -0.523,-0.321 -0.524,-0.414 -0.523,-0.457 -0.524,-0.445 -0.523,-0.375 -0.524,-0.266 -0.523,-0.117 -0.524,0.047 -0.523,0.199 -0.523,0.332 -0.524,0.422 -0.523,0.461 -0.524,0.442 -0.523,0.367 -0.524,0.246 -0.523,0.098 -0.523,-0.063 -0.528,-0.215 -0.523,-0.344 -0.524,-0.429 -0.523,-0.461 -0.524,-0.434 -0.523,-0.355 -0.523,-0.235 -0.524,-0.078 -0.523,0.078 -0.524,0.235 -0.523,0.355 -0.524,0.434 -0.523,0.461 -0.524,0.429 -0.523,0.344 -0.523,0.215 -0.524,0.063 -0.523,-0.098 -0.524,-0.246 -0.523,-0.367 -0.527,-0.442 -0.524,-0.461 -0.523,-0.422 -0.524,-0.332 -0.523,-0.199 -0.524,-0.047 -0.523,0.117 -0.524,0.266 -0.523,0.375 -0.523,0.445 -0.524,0.457 -0.523,0.414 -0.524,0.321 -0.523,0.183 -0.524,0.028 -0.523,-0.133 -0.523,-0.277 -0.524,-0.387 -1.047,-0.906 -0.527,-0.407 -0.524,-0.304 -0.523,-0.168 -0.523,-0.012 -0.524,0.152 -0.523,0.293 -0.524,0.395 -0.523,0.453"
       style="fill:none;stroke:#000000;stroke-width:0.576;stroke-linecap:square;stroke-linejoin:miter;stroke-miterlimit:3.25;stroke-dasharray:none;stroke-opacity:1"
       transform="scale(1.3333333)" />
    <path
       id="path73"
       d="m 7.1723406,-6.2115563 -3.65625,6.21093755 v 0.1171875 c 0,0.0703125 0.011719,0.15234375 0.011719,0.22265625 0,0.0703125 0,0.140625 0,0.2109375 0,0.10546875 0,0.234375 -0.011719,0.36328125 -0.011719,0.14062495 -0.035156,0.28124995 -0.058594,0.44531245 -0.023437,0.140625 -0.058594,0.28125 -0.09375,0.4453125 -0.046875,0.140625 -0.1054687,0.2695313 -0.1875,0.375 C 3.1059343,2.307975 3.0239031,2.401725 2.9184343,2.4720375 2.8246843,2.54235 2.6957781,2.5775062 2.5551531,2.5775062 c -0.1054688,0 -0.1992188,-0.023437 -0.28125,-0.070312 C 2.1801531,2.4603187 2.1098406,2.4134437 2.0512468,2.3431312 1.9926531,2.2728187 1.9457781,2.1790687 1.9223406,2.0853187 1.8871843,1.9915687 1.8754656,1.8861 1.8754656,1.79235 c 0,-0.1992188 0.023437,-0.3632813 0.046875,-0.515625 0.035156,-0.1640625 0.070312,-0.3046875 0.1289062,-0.4453125 0.046875,-0.140625 0.1054688,-0.28125 0.1757813,-0.421875 0.082031,-0.12890625 0.1523437,-0.29296875 0.234375,-0.45703125 L 1.4770281,-6.2115563 h 1.1015625 l 0.703125,4.8984375 2.8242187,-4.8984375 z m 0,0"
       style="fill:#000000;fill-opacity:1;fill-rule:nonzero;stroke:none"
       aria-label="γ"
       transform="matrix(1.3333333,0,0,1.3333333,710.47985,106.8602)"
       clip-path="url(#clipPath74)" />
    <path
       id="path75"
       d="m 559.453,62.836 c 0,0.613 -0.242,1.199 -0.676,1.629 -0.429,0.433 -1.015,0.676 -1.629,0.676 -0.609,0 -1.195,-0.243 -1.628,-0.676 -0.434,-0.43 -0.676,-1.016 -0.676,-1.629 0,-0.609 0.242,-1.195 0.676,-1.629 0.433,-0.434 1.019,-0.676 1.628,-0.676 0.614,0 1.2,0.242 1.629,0.676 0.434,0.434 0.676,1.02 0.676,1.629 z"
       style="fill:#000000;fill-opacity:1;fill-rule:evenodd;stroke:none"
       transform="scale(1.3333333)" />
    <path
       id="path76"
       d="m 512.641,65.453 5.234,-5.234"
       style="fill:none;stroke:#000000;stroke-width:1.728;stroke-linecap:square;stroke-linejoin:miter;stroke-miterlimit:3.25;stroke-dasharray:none;stroke-opacity:1"
       transform="scale(1.3333333)" />
    <path
       id="path77"
       d="m 512.641,60.219 5.234,5.234"
       style="fill:none;stroke:#000000;stroke-width:1.728;stroke-linecap:square;stroke-linejoin:miter;stroke-miterlimit:3.25;stroke-dasharray:none;stroke-opacity:1"
       transform="scale(1.3333333)" />
    <path
       id="path78"
       d="m 3.6342541,-2.7175961 v -3.4921875 l -2.4609375,3.4921875 z m 0.023437,2.71875004 V -1.8738461 H 0.27097287 v -0.9375 L 3.7983166,-7.7097836 h 0.8085938 v 4.9921875 h 1.1367187 v 0.84375 H 4.6069104 v 1.87500004 z m 0,0"
       style="fill:#000000;fill-opacity:1;fill-rule:nonzero;stroke:none"
       aria-label="4"
       transform="matrix(1.3333333,0,0,1.3333333,710.86527,153.79924)" />
    <path
       id="path79"
       d="m 138.238,151.855 31.418,26.18"
       style="fill:none;stroke:#000000;stroke-width:0.576;stroke-linecap:square;stroke-linejoin:miter;stroke-miterlimit:3.25;stroke-dasharray:none;stroke-opacity:1"
       transform="scale(1.3333333)"
       clip-path="url(#clipPath80)" />
    <path
       id="path81"
       d="m 156.363,166.957 -6.168,-2.414 2.68,-3.219 z"
       style="fill:#000000;fill-opacity:1;fill-rule:evenodd;stroke:none"
       transform="scale(1.3333333)"
       clip-path="url(#clipPath82)" />
    <path
       id="path83"
       d="m 7.2996523,-5.7197197 c 0.1757813,0.3398438 0.234375,0.7382813 0.2109375,1.1953125 0,0.3164063 -0.070312,0.8085938 -0.2109375,1.5 H 2.3074648 c -0.1289062,0.6796875 -0.070312,1.2421875 0.1523438,1.6640625 0.1992187,0.41015626 0.6328125,0.62109376 1.2773437,0.62109376 0.5859375,0 1.1132813,-0.19921875 1.546875,-0.59765626 0.2460938,-0.2226562 0.4570313,-0.4804687 0.5976563,-0.796875 h 1.1367187 c -0.09375,0.2578125 -0.2460937,0.5390625 -0.4804687,0.84375 -0.234375,0.30468751 -0.46875,0.56250001 -0.7148438,0.73828126 -0.421875,0.3515625 -0.9023437,0.57421875 -1.4414062,0.69140625 -0.2929688,0.0703125 -0.609375,0.10546875 -0.9492188,0.10546875 -0.84375,0 -1.5117187,-0.31640625 -1.96875,-0.92578125 C 1.0184023,-1.2900322 0.91293356,-2.1572197 1.1473086,-3.2587822 c 0.234375,-1.1015625 0.7148437,-1.9804687 1.453125,-2.671875 0.7265625,-0.6679687 1.5703125,-1.0078125 2.53125,-1.0078125 0.4804687,0 0.9257812,0.1171875 1.3359375,0.3398438 0.4101562,0.2109375 0.6796875,0.515625 0.8320312,0.8789062 z m -0.984375,1.78125 c 0.046875,-0.4921875 0.035156,-0.8789062 -0.082031,-1.1835937 -0.1875,-0.5507813 -0.6445313,-0.8320313 -1.3710938,-0.8320313 -0.5390625,0 -1.0195312,0.1992188 -1.4414062,0.5742188 -0.4453125,0.375 -0.7265625,0.8554687 -0.890625,1.4414062 z m 0,0"
       style="fill:#000000;fill-opacity:1;fill-rule:nonzero;stroke:none"
       aria-label="e"
       transform="matrix(1.3333333,0,0,1.3333333,192.13822,240.49739)" />
    <path
       id="path84"
       d="m 138.238,204.219 31.418,-26.184"
       style="fill:none;stroke:#000000;stroke-width:0.576;stroke-linecap:square;stroke-linejoin:miter;stroke-miterlimit:3.25;stroke-dasharray:none;stroke-opacity:1"
       transform="scale(1.3333333)"
       clip-path="url(#clipPath85)" />
    <path
       id="path86"
       d="m 151.535,193.137 6.168,-2.41 -2.68,-3.219 z"
       style="fill:#000000;fill-opacity:1;fill-rule:evenodd;stroke:none"
       transform="scale(1.3333333)"
       clip-path="url(#clipPath87)" />
    <path
       id="path88"
       d="m 7.3021654,-5.7189205 c 0.1757813,0.3398438 0.234375,0.7382813 0.2109375,1.1953125 0,0.3164063 -0.070312,0.8085938 -0.2109375,1.5 H 2.3099779 c -0.1289062,0.6796875 -0.070312,1.2421875 0.1523438,1.6640625 0.1992187,0.41015625 0.6328125,0.62109375 1.2773437,0.62109375 0.5859375,0 1.1132813,-0.19921875 1.546875,-0.59765625 0.2460938,-0.2226562 0.4570313,-0.4804687 0.5976563,-0.796875 h 1.1367187 c -0.09375,0.2578125 -0.2460937,0.5390625 -0.4804687,0.84375 -0.234375,0.3046875 -0.46875,0.5625 -0.7148438,0.73828125 C 5.4037279,-0.19938925 4.9232592,0.023267 4.3841967,0.1404545 4.0912279,0.210767 3.7748217,0.24592325 3.4349779,0.24592325 c -0.84375,0 -1.5117187,-0.31640625 -1.96875,-0.92578125 -0.4453125,-0.609375 -0.55078121,-1.4765625 -0.3164062,-2.578125 0.234375,-1.1015625 0.7148437,-1.9804687 1.453125,-2.671875 0.7265625,-0.6679687 1.5703125,-1.0078125 2.53125,-1.0078125 0.4804687,0 0.9257812,0.1171875 1.3359375,0.3398438 0.4101562,0.2109375 0.6796875,0.515625 0.8320312,0.8789062 z m -0.984375,1.78125 c 0.046875,-0.4921875 0.035156,-0.8789062 -0.082031,-1.1835937 -0.1875,-0.5507813 -0.6445313,-0.8320313 -1.3710938,-0.8320313 -0.5390625,0 -1.0195312,0.1992188 -1.4414062,0.5742188 -0.4453125,0.375 -0.7265625,0.8554687 -0.890625,1.4414062 z m 0,0"
       style="fill:#000000;fill-opacity:1;fill-rule:nonzero;stroke:none"
       aria-label="e"
       transform="matrix(1.3333333,0,0,1.3333333,207.97081,275.40648)" />
    <path
       id="path89"
       d="m 242.969,151.855 -31.418,26.18"
       style="fill:none;stroke:#000000;stroke-width:0.576;stroke-linecap:square;stroke-linejoin:miter;stroke-miterlimit:3.25;stroke-dasharray:none;stroke-opacity:1"
       transform="scale(1.3333333)" />
    <path
       id="path90"
       d="m 229.672,162.934 -6.168,2.414 2.68,3.218 z"
       style="fill:#000000;fill-opacity:1;fill-rule:evenodd;stroke:none"
       transform="scale(1.3333333)" />
    <path
       id="path91"
       d="m 7.3001316,-5.7180643 c 0.1757813,0.3398437 0.234375,0.7382812 0.2109375,1.1953125 0,0.3164062 -0.070312,0.8085937 -0.2109375,1.5 H 2.3079441 c -0.1289062,0.6796875 -0.070312,1.2421875 0.1523438,1.6640625 0.1992187,0.41015624 0.6328125,0.62109374 1.2773437,0.62109374 0.5859375,0 1.1132813,-0.19921875 1.546875,-0.59765624 0.2460938,-0.2226563 0.4570313,-0.4804688 0.5976563,-0.796875 h 1.1367187 c -0.09375,0.2578125 -0.2460937,0.5390625 -0.4804687,0.84375 -0.234375,0.30468749 -0.46875,0.56249999 -0.7148438,0.73828124 -0.421875,0.3515625 -0.9023437,0.57421875 -1.4414062,0.69140625 -0.2929688,0.0703125 -0.609375,0.10546875 -0.9492188,0.10546875 -0.84375,0 -1.5117187,-0.31640625 -1.96875,-0.92578125 C 1.0188816,-1.2883768 0.91341288,-2.1555643 1.1477879,-3.2571268 c 0.234375,-1.1015625 0.7148437,-1.9804688 1.453125,-2.671875 0.7265625,-0.6679688 1.5703125,-1.0078125 2.53125,-1.0078125 0.4804687,0 0.9257812,0.1171875 1.3359375,0.3398437 0.4101562,0.2109375 0.6796875,0.515625 0.8320312,0.8789063 z m -0.984375,1.78125 c 0.046875,-0.4921875 0.035156,-0.8789063 -0.082031,-1.1835938 -0.1875,-0.5507812 -0.6445313,-0.8320312 -1.3710938,-0.8320312 -0.5390625,0 -1.0195312,0.1992187 -1.4414062,0.5742187 -0.4453125,0.375 -0.7265625,0.8554688 -0.890625,1.4414063 z m 0,0"
       style="fill:#000000;fill-opacity:1;fill-rule:nonzero;stroke:none"
       aria-label="e"
       transform="matrix(1.3333333,0,0,1.3333333,289.88368,211.94049)" />
    <path
       id="path92"
       d="M 242.969,204.219 211.551,178.035"
       style="fill:none;stroke:#000000;stroke-width:0.576;stroke-linecap:square;stroke-linejoin:miter;stroke-miterlimit:3.25;stroke-dasharray:none;stroke-opacity:1"
       transform="scale(1.3333333)" />
    <path
       id="path93"
       d="m 224.844,189.117 6.168,2.414 -2.68,3.215 z"
       style="fill:#000000;fill-opacity:1;fill-rule:evenodd;stroke:none"
       transform="scale(1.3333333)" />
    <path
       id="path94"
       d="m 7.2997161,-5.7201948 c 0.1757812,0.3398437 0.234375,0.7382812 0.2109375,1.1953125 0,0.3164062 -0.070312,0.8085937 -0.2109375,1.5 H 2.3075286 c -0.1289063,0.6796875 -0.070312,1.2421875 0.1523437,1.6640625 0.1992188,0.41015624 0.6328125,0.62109374 1.2773438,0.62109374 0.5859375,0 1.1132812,-0.19921875 1.546875,-0.59765624 0.2460937,-0.2226563 0.4570312,-0.4804688 0.5976562,-0.796875 h 1.1367188 c -0.09375,0.2578125 -0.2460938,0.5390625 -0.4804688,0.84375 -0.234375,0.30468749 -0.46875,0.56249999 -0.7148437,0.73828124 -0.421875,0.3515625 -0.9023438,0.57421875 -1.4414063,0.69140625 -0.2929687,0.0703125 -0.609375,0.10546875 -0.9492187,0.10546875 -0.84375,0 -1.5117188,-0.31640625 -1.96875,-0.92578125 C 1.0184661,-1.2905073 0.91299731,-2.1576948 1.1473723,-3.2592573 c 0.234375,-1.1015625 0.7148438,-1.9804688 1.453125,-2.671875 0.7265625,-0.6679688 1.5703125,-1.0078125 2.53125,-1.0078125 0.4804688,0 0.9257813,0.1171875 1.3359375,0.3398437 0.4101563,0.2109375 0.6796875,0.515625 0.8320313,0.8789063 z m -0.984375,1.78125 c 0.046875,-0.4921875 0.035156,-0.8789063 -0.082031,-1.1835938 -0.1875,-0.5507812 -0.6445312,-0.8320312 -1.3710937,-0.8320312 -0.5390625,0 -1.0195313,0.1992187 -1.4414063,0.5742187 -0.4453125,0.375 -0.7265625,0.8554688 -0.890625,1.4414063 z m 0,0"
       style="fill:#000000;fill-opacity:1;fill-rule:nonzero;stroke:none"
       aria-label="e"
       transform="matrix(1.3333333,0,0,1.3333333,305.71626,246.84958)" />
    <path
       id="path95"
       d="m 169.656,178.035 0.528,0.504 0.523,0.422 0.523,0.285 0.524,0.098 0.523,-0.098 0.524,-0.285 0.523,-0.426 1.047,-1 0.524,-0.426 0.523,-0.281 0.523,-0.101 0.524,0.101 0.523,0.281 0.524,0.426 1.047,1 0.523,0.426 0.523,0.285 0.528,0.098 0.523,-0.098 0.524,-0.285 0.523,-0.426 1.047,-1 0.523,-0.426 0.524,-0.281 0.523,-0.101 0.524,0.101 0.523,0.281 0.524,0.426 1.047,1 0.523,0.426 0.523,0.285 0.524,0.098 0.523,-0.098 0.524,-0.285 0.523,-0.422 0.527,-0.504"
       style="fill:none;stroke:#000000;stroke-width:0.576;stroke-linecap:square;stroke-linejoin:miter;stroke-miterlimit:3.25;stroke-dasharray:none;stroke-opacity:1"
       transform="scale(1.3333333)" />
    <path
       id="path96"
       d="M 7.1708488,-6.2103844 3.5145988,5.53125e-4 V 0.11774063 c 0,0.0703125 0.011719,0.15234375 0.011719,0.22265625 0,0.0703125 0,0.140625 0,0.2109375 0,0.10546875 0,0.234375 -0.011719,0.36328125 -0.011719,0.14062497 -0.035156,0.28124997 -0.058594,0.44531247 -0.023437,0.140625 -0.058594,0.28125 -0.09375,0.4453125 -0.046875,0.140625 -0.1054688,0.2695313 -0.1875,0.375 C 3.1044428,2.3091469 3.022411,2.4028969 2.9169423,2.4732094 2.8231923,2.5435214 2.694286,2.5786781 2.553661,2.5786781 c -0.1054687,0 -0.1992187,-0.023437 -0.28125,-0.070312 C 2.1786613,2.4614906 2.1083488,2.4146156 2.0497551,2.3443031 1.9911613,2.2739906 1.9442863,2.1802406 1.9208488,2.0864906 1.8856926,1.9927406 1.8739738,1.8872719 1.8739738,1.7935219 c 0,-0.1992188 0.023437,-0.3632813 0.046875,-0.515625 0.035156,-0.1640625 0.070312,-0.30468752 0.1289063,-0.44531252 0.046875,-0.140625 0.1054687,-0.28125 0.1757812,-0.421875 0.082031,-0.12890625 0.1523438,-0.29296875 0.234375,-0.45703125 L 1.4755363,-6.2103844 h 1.1015625 l 0.703125,4.8984375 2.8242188,-4.8984375 z m 0,0"
       style="fill:#000000;fill-opacity:1;fill-rule:nonzero;stroke:none"
       aria-label="γ"
       transform="matrix(1.3333333,0,0,1.3333333,235.71621,260.4602)" />
    <path
       id="path97"
       d="m 211.551,178.035 -0.524,-0.5 -0.527,-0.426 -0.523,-0.281 -0.524,-0.101 -0.523,0.101 -0.524,0.281 -0.523,0.426 -0.524,0.5 -0.523,0.504 -0.524,0.422 -0.523,0.285 -0.523,0.102 -0.524,-0.102 -0.523,-0.285 -0.524,-0.422 -0.523,-0.504 -0.524,-0.5 -0.523,-0.426 -0.523,-0.281 -0.524,-0.101 -0.527,0.101 -0.524,0.281 -0.523,0.426 -0.524,0.5 -0.523,0.504 -0.523,0.422 -0.524,0.285 -0.523,0.102 -0.524,-0.102 -0.523,-0.285 -0.524,-0.422 -0.523,-0.504 -0.523,-0.5 -0.524,-0.426 -0.523,-0.281 -0.524,-0.101 -0.523,0.101 -0.524,0.281 -0.523,0.426 -0.524,0.5"
       style="fill:none;stroke:#000000;stroke-width:0.576;stroke-linecap:square;stroke-linejoin:miter;stroke-miterlimit:3.25;stroke-dasharray:none;stroke-opacity:1"
       transform="scale(1.3333333)" />
    <path
       id="path98"
       d="M 7.1726594,-6.2109764 3.5164094,-3.89375e-5 V 0.11714856 c 0,0.0703125 0.011719,0.15234375 0.011719,0.22265625 0,0.0703125 0,0.140625 0,0.2109375 0,0.10546875 0,0.234375 -0.011719,0.36328125 -0.011719,0.14062504 -0.035156,0.28125004 -0.058594,0.44531254 -0.023437,0.140625 -0.058594,0.28125 -0.09375,0.4453125 -0.046875,0.140625 -0.1054688,0.2695312 -0.1875,0.375 -0.070312,0.1289062 -0.1523438,0.2226562 -0.2578125,0.2929687 -0.09375,0.070312 -0.2226563,0.1054688 -0.3632813,0.1054688 -0.1054687,0 -0.1992187,-0.023437 -0.28125,-0.070312 C 2.1804719,2.4608986 2.1101594,2.4140236 2.0515657,2.3437111 1.9929719,2.2733986 1.9460969,2.1796486 1.9226594,2.0858986 1.8875032,1.9921486 1.8757844,1.8866798 1.8757844,1.7929298 c 0,-0.1992187 0.023437,-0.3632812 0.046875,-0.515625 0.035156,-0.1640625 0.070312,-0.30468749 0.1289063,-0.44531249 0.046875,-0.140625 0.1054687,-0.28125 0.1757812,-0.421875 0.082031,-0.12890625 0.1523438,-0.29296875 0.234375,-0.45703125 L 1.4773469,-6.2109764 h 1.1015625 l 0.703125,4.8984375 2.8242188,-4.8984375 z m 0,0"
       style="fill:#000000;fill-opacity:1;fill-rule:nonzero;stroke:none"
       aria-label="γ"
       transform="matrix(1.3333333,0,0,1.3333333,263.64349,226.88677)" />
    <path
       id="path99"
       d="m 171.961,178.035 c 0,0.613 -0.242,1.199 -0.672,1.629 -0.434,0.434 -1.019,0.676 -1.633,0.676 -0.609,0 -1.195,-0.242 -1.629,-0.676 -0.429,-0.43 -0.672,-1.016 -0.672,-1.629 0,-0.609 0.243,-1.195 0.672,-1.629 0.434,-0.429 1.02,-0.676 1.629,-0.676 0.614,0 1.199,0.247 1.633,0.676 0.43,0.434 0.672,1.02 0.672,1.629 z"
       style="fill:#000000;fill-opacity:1;fill-rule:evenodd;stroke:none"
       transform="scale(1.3333333)" />
    <path
       id="path100"
       d="m 213.852,178.035 c 0,0.613 -0.243,1.199 -0.672,1.629 -0.434,0.434 -1.02,0.676 -1.629,0.676 -0.613,0 -1.199,-0.242 -1.633,-0.676 -0.43,-0.43 -0.672,-1.016 -0.672,-1.629 0,-0.609 0.242,-1.195 0.672,-1.629 0.434,-0.429 1.02,-0.676 1.633,-0.676 0.609,0 1.195,0.247 1.629,0.676 0.429,0.434 0.672,1.02 0.672,1.629 z"
       style="fill:#000000;fill-opacity:1;fill-rule:evenodd;stroke:none"
       transform="scale(1.3333333)" />
    <path
       id="path101"
       d="m 187.984,180.656 5.239,-5.238"
       style="fill:none;stroke:#000000;stroke-width:1.728;stroke-linecap:square;stroke-linejoin:miter;stroke-miterlimit:3.25;stroke-dasharray:none;stroke-opacity:1"
       transform="scale(1.3333333)" />
    <path
       id="path102"
       d="m 187.984,175.418 5.239,5.238"
       style="fill:none;stroke:#000000;stroke-width:1.728;stroke-linecap:square;stroke-linejoin:miter;stroke-miterlimit:3.25;stroke-dasharray:none;stroke-opacity:1"
       transform="scale(1.3333333)" />
    <path
       id="path103"
       d="m 1.3485119,-1.9576351 c 0.070312,0.5507812 0.328125,0.9375 0.7734375,1.14843748 0.234375,0.10546875 0.4921875,0.1640625 0.796875,0.1640625 0.5742188,0 0.9960938,-0.1875 1.2773438,-0.55078128 0.2695312,-0.3632812 0.4101562,-0.7734375 0.4101562,-1.21875 0,-0.5390625 -0.1640625,-0.9492187 -0.4921875,-1.2539062 -0.328125,-0.28125 -0.7265625,-0.4335938 -1.171875,-0.4335938 -0.3398437,0 -0.6328125,0.058594 -0.8671875,0.1992188 -0.234375,0.1289062 -0.4335937,0.3046875 -0.609375,0.5390625 L 0.63366819,-3.4224789 1.2078869,-7.5591976 h 4.0078125 v 0.9375 h -3.28125 l -0.328125,2.1328125 c 0.1875,-0.1289063 0.3515625,-0.234375 0.515625,-0.3046875 0.2929688,-0.1171875 0.6210938,-0.1757813 0.9960938,-0.1757813 0.703125,0 1.3007812,0.2226563 1.7929687,0.6796875 0.4921875,0.4570313 0.7382813,1.03125 0.7382813,1.734375 0,0.7265625 -0.2226563,1.3710938 -0.6796875,1.92187503 -0.4453125,0.55078125 -1.1601563,0.83203125 -2.15625,0.83203125 -0.6210938,0 -1.171875,-0.17578125 -1.6523438,-0.52734375 C 0.66882444,-0.68029137 0.41101194,-1.2193539 0.35241819,-1.9576351 Z m 0,0"
       style="fill:#000000;fill-opacity:1;fill-rule:nonzero;stroke:none"
       aria-label="5"
       transform="matrix(1.3333333,0,0,1.3333333,250.06527,307.39924)" />
    <path
       id="path104"
       d="m 253.441,151.855 52.364,5.235"
       style="fill:none;stroke:#000000;stroke-width:0.576;stroke-linecap:square;stroke-linejoin:miter;stroke-miterlimit:3.25;stroke-dasharray:none;stroke-opacity:1"
       transform="scale(1.3333333)" />
    <path
       id="path105"
       d="m 282.746,154.785 -6.457,1.461 0.414,-4.172 z"
       style="fill:#000000;fill-opacity:1;fill-rule:evenodd;stroke:none"
       transform="scale(1.3333333)" />
    <path
       id="path106"
       d="m 7.3020008,-5.7187721 c 0.1757813,0.3398438 0.234375,0.7382813 0.2109375,1.1953125 0,0.3164063 -0.070312,0.8085938 -0.2109375,1.5 H 2.3098133 c -0.1289062,0.6796875 -0.070312,1.2421875 0.1523438,1.6640625 0.1992187,0.41015629 0.6328125,0.62109379 1.2773437,0.62109379 0.5859375,0 1.1132813,-0.19921875 1.546875,-0.59765629 0.2460938,-0.2226562 0.4570313,-0.4804687 0.5976563,-0.796875 h 1.1367187 c -0.09375,0.2578125 -0.2460937,0.5390625 -0.4804687,0.84375 -0.234375,0.30468754 -0.46875,0.56250004 -0.7148438,0.73828129 -0.421875,0.3515625 -0.9023437,0.57421875 -1.4414062,0.69140625 -0.2929688,0.0703125 -0.609375,0.10546875 -0.9492188,0.10546875 -0.84375,0 -1.5117187,-0.31640625 -1.96875,-0.92578125 C 1.0207508,-1.2890846 0.91528206,-2.1562721 1.1496571,-3.2578346 c 0.234375,-1.1015625 0.7148437,-1.9804687 1.453125,-2.671875 0.7265625,-0.6679687 1.5703125,-1.0078125 2.53125,-1.0078125 0.4804687,0 0.9257812,0.1171875 1.3359375,0.3398438 0.4101562,0.2109375 0.6796875,0.515625 0.8320312,0.8789062 z m -0.984375,1.78125 c 0.046875,-0.4921875 0.035156,-0.8789062 -0.082031,-1.1835937 -0.1875,-0.5507813 -0.6445313,-0.8320313 -1.3710938,-0.8320313 -0.5390625,0 -1.0195312,0.1992188 -1.4414062,0.5742188 -0.4453125,0.375 -0.7265625,0.8554687 -0.890625,1.4414062 z m 0,0"
       style="fill:#000000;fill-opacity:1;fill-rule:nonzero;stroke:none"
       aria-label="e"
       transform="matrix(1.3333333,0,0,1.3333333,366.54134,228.98831)" />
    <path
       id="path107"
       d="m 253.441,204.219 52.364,-5.239"
       style="fill:none;stroke:#000000;stroke-width:0.576;stroke-linecap:square;stroke-linejoin:miter;stroke-miterlimit:3.25;stroke-dasharray:none;stroke-opacity:1"
       transform="scale(1.3333333)" />
    <path
       id="path108"
       d="m 276.496,201.914 6.461,1.457 -0.418,-4.168 z"
       style="fill:#000000;fill-opacity:1;fill-rule:evenodd;stroke:none"
       transform="scale(1.3333333)" />
    <path
       id="path109"
       d="m 7.3010426,-5.7190919 c 0.1757813,0.3398437 0.234375,0.7382812 0.2109375,1.1953125 0,0.3164062 -0.070312,0.8085937 -0.2109375,1.5 H 2.3088551 c -0.1289062,0.6796875 -0.070312,1.2421875 0.1523438,1.6640625 0.1992187,0.41015621 0.6328125,0.62109371 1.2773437,0.62109371 0.5859375,0 1.1132813,-0.19921875 1.546875,-0.59765621 0.2460938,-0.2226563 0.4570313,-0.4804688 0.5976563,-0.796875 h 1.1367187 c -0.09375,0.2578125 -0.2460937,0.5390625 -0.4804687,0.84375 -0.234375,0.30468746 -0.46875,0.56249996 -0.7148438,0.73828121 -0.421875,0.3515625 -0.9023437,0.57421875 -1.4414062,0.69140625 -0.2929688,0.0703125 -0.609375,0.10546875 -0.9492188,0.10546875 -0.84375,0 -1.5117187,-0.31640625 -1.96875,-0.92578125 C 1.0197926,-1.2894044 0.91432388,-2.1565919 1.1486989,-3.2581544 c 0.234375,-1.1015625 0.7148437,-1.9804688 1.453125,-2.671875 0.7265625,-0.6679688 1.5703125,-1.0078125 2.53125,-1.0078125 0.4804687,0 0.9257812,0.1171875 1.3359375,0.3398437 0.4101562,0.2109375 0.6796875,0.515625 0.8320312,0.8789063 z m -0.984375,1.78125 c 0.046875,-0.4921875 0.035156,-0.8789063 -0.082031,-1.1835938 -0.1875,-0.5507812 -0.6445313,-0.8320312 -1.3710938,-0.8320312 -0.5390625,0 -1.0195312,0.1992187 -1.4414062,0.5742187 -0.4453125,0.375 -0.7265625,0.8554688 -0.890625,1.4414063 z m 0,0"
       style="fill:#000000;fill-opacity:1;fill-rule:nonzero;stroke:none"
       aria-label="e"
       transform="matrix(1.3333333,0,0,1.3333333,368.69496,291.82467)" />
    <path
       id="path110"
       d="m 358.168,151.855 -52.363,5.235"
       style="fill:none;stroke:#000000;stroke-width:0.576;stroke-linecap:square;stroke-linejoin:miter;stroke-miterlimit:3.25;stroke-dasharray:none;stroke-opacity:1"
       transform="scale(1.3333333)" />
    <path
       id="path111"
       d="m 335.113,154.16 -6.461,-1.457 0.414,4.168 z"
       style="fill:#000000;fill-opacity:1;fill-rule:evenodd;stroke:none"
       transform="scale(1.3333333)" />
    <path
       id="path112"
       d="m 7.3006695,-5.7178929 c 0.1757812,0.3398438 0.234375,0.7382813 0.2109375,1.1953125 0,0.3164063 -0.070312,0.8085938 -0.2109375,1.5 H 2.308482 c -0.1289063,0.6796875 -0.070312,1.2421875 0.1523437,1.6640625 0.1992188,0.41015628 0.6328125,0.62109378 1.2773438,0.62109378 0.5859375,0 1.1132812,-0.19921875 1.546875,-0.59765628 0.2460937,-0.2226562 0.4570312,-0.4804687 0.5976562,-0.796875 h 1.1367188 c -0.09375,0.2578125 -0.2460938,0.5390625 -0.4804688,0.84375 -0.234375,0.30468753 -0.46875,0.56250003 -0.7148437,0.73828128 -0.421875,0.3515625 -0.9023438,0.57421875 -1.4414063,0.69140625 -0.2929687,0.0703125 -0.609375,0.10546875 -0.9492187,0.10546875 -0.84375,0 -1.5117188,-0.31640625 -1.96875,-0.92578125 C 1.0194195,-1.2882054 0.91395075,-2.1553929 1.1483257,-3.2569554 c 0.234375,-1.1015625 0.7148438,-1.9804687 1.453125,-2.671875 0.7265625,-0.6679687 1.5703125,-1.0078125 2.53125,-1.0078125 0.4804688,0 0.9257813,0.1171875 1.3359375,0.3398438 0.4101563,0.2109375 0.6796875,0.515625 0.8320313,0.8789062 z m -0.984375,1.78125 c 0.046875,-0.4921875 0.035156,-0.8789062 -0.082031,-1.1835937 -0.1875,-0.5507813 -0.6445312,-0.8320313 -1.3710937,-0.8320313 -0.5390625,0 -1.0195313,0.1992188 -1.4414063,0.5742188 -0.4453125,0.375 -0.7265625,0.8554687 -0.890625,1.4414062 z m 0,0"
       style="fill:#000000;fill-opacity:1;fill-rule:nonzero;stroke:none"
       aria-label="e"
       transform="matrix(1.3333333,0,0,1.3333333,436.35952,195.52229)" />
    <path
       id="path113"
       d="M 358.168,204.219 305.805,198.98"
       style="fill:none;stroke:#000000;stroke-width:0.576;stroke-linecap:square;stroke-linejoin:miter;stroke-miterlimit:3.25;stroke-dasharray:none;stroke-opacity:1"
       transform="scale(1.3333333)" />
    <path
       id="path114"
       d="m 328.859,201.289 6.461,-1.461 -0.418,4.168 z"
       style="fill:#000000;fill-opacity:1;fill-rule:evenodd;stroke:none"
       transform="scale(1.3333333)" />
    <path
       id="path115"
       d="m 7.2997103,-5.7182127 c 0.1757813,0.3398437 0.234375,0.7382812 0.2109375,1.1953125 0,0.3164062 -0.070312,0.8085937 -0.2109375,1.5 H 2.3075228 c -0.1289062,0.6796875 -0.070312,1.2421875 0.1523438,1.6640625 0.1992187,0.4101562 0.6328125,0.6210937 1.2773437,0.6210937 0.5859375,0 1.1132813,-0.19921875 1.546875,-0.5976562 0.2460938,-0.2226563 0.4570313,-0.4804688 0.5976563,-0.796875 h 1.1367187 c -0.09375,0.2578125 -0.2460937,0.5390625 -0.4804687,0.84375 -0.234375,0.30468745 -0.46875,0.56249995 -0.7148438,0.7382812 C 5.4012728,-0.1986815 4.9208041,0.02397475 4.3817416,0.14116225 4.0887728,0.21147475 3.7723666,0.246631 3.4325228,0.246631 c -0.84375,0 -1.5117187,-0.31640625 -1.96875,-0.92578125 C 1.0184603,-1.2885252 0.91299156,-2.1557127 1.1473666,-3.2572752 c 0.234375,-1.1015625 0.7148437,-1.9804688 1.453125,-2.671875 0.7265625,-0.6679688 1.5703125,-1.0078125 2.53125,-1.0078125 0.4804687,0 0.9257812,0.1171875 1.3359375,0.3398437 0.4101562,0.2109375 0.6796875,0.515625 0.8320312,0.8789063 z m -0.984375,1.78125 c 0.046875,-0.4921875 0.035156,-0.8789063 -0.082031,-1.1835938 -0.1875,-0.5507812 -0.6445313,-0.8320312 -1.3710938,-0.8320312 -0.5390625,0 -1.0195312,0.1992187 -1.4414062,0.5742187 -0.4453125,0.375 -0.7265625,0.8554688 -0.890625,1.4414063 z m 0,0"
       style="fill:#000000;fill-opacity:1;fill-rule:nonzero;stroke:none"
       aria-label="e"
       transform="matrix(1.3333333,0,0,1.3333333,438.51315,258.35866)" />
    <path
       id="path116"
       d="m 305.805,157.09 -0.504,0.523 -0.422,0.524 -0.285,0.523 -0.098,0.528 0.098,0.523 0.285,0.523 0.426,0.524 1,1.047 0.425,0.523 0.282,0.524 0.101,0.523 -0.101,0.523 -0.282,0.524 -0.425,0.523 -1,1.047 -0.426,0.524 -0.285,0.523 -0.098,0.523 0.098,0.524 0.285,0.523 0.426,0.524 0.5,0.523 0.5,0.528 0.425,0.523 0.282,0.523 0.101,0.524 -0.101,0.523 -0.282,0.524 -0.425,0.523 -1,1.047 -0.426,0.524 -0.285,0.523 -0.098,0.523 0.098,0.524 0.285,0.523 0.422,0.524 0.504,0.523"
       style="fill:none;stroke:#000000;stroke-width:0.576;stroke-linecap:square;stroke-linejoin:miter;stroke-miterlimit:3.25;stroke-dasharray:none;stroke-opacity:1"
       transform="scale(1.3333333)" />
    <path
       id="path117"
       d="M 7.1707811,-6.2101204 3.5145311,8.17125e-4 V 0.11800462 c 0,0.0703125 0.011719,0.15234375 0.011719,0.22265625 0,0.0703125 0,0.140625 0,0.2109375 0,0.10546875 0,0.234375 -0.011719,0.36328125 -0.011719,0.14062498 -0.035156,0.28124998 -0.058594,0.44531248 -0.023437,0.140625 -0.058594,0.28125 -0.09375,0.4453125 -0.046875,0.140625 -0.1054688,0.2695313 -0.1875,0.375 -0.070312,0.1289063 -0.1523438,0.2226563 -0.2578125,0.2929688 -0.09375,0.070312 -0.2226563,0.1054687 -0.3632813,0.1054687 -0.1054687,0 -0.1992187,-0.023437 -0.28125,-0.070312 C 2.1785936,2.4617546 2.1082811,2.4148796 2.0496874,2.3445671 1.9910936,2.2742546 1.9442186,2.1805046 1.9207811,2.0867546 1.8856249,1.9930046 1.8739061,1.8875359 1.8739061,1.7937859 c 0,-0.1992188 0.023437,-0.3632813 0.046875,-0.515625 0.035156,-0.1640625 0.070312,-0.30468753 0.1289063,-0.44531253 0.046875,-0.140625 0.1054687,-0.28125 0.1757812,-0.421875 0.082031,-0.12890625 0.1523438,-0.29296875 0.234375,-0.45703125 L 1.4754686,-6.2101204 h 1.1015625 l 0.703125,4.8984375 2.8242188,-4.8984375 z m 0,0"
       style="fill:#000000;fill-opacity:1;fill-rule:nonzero;stroke:none"
       aria-label="γ"
       transform="matrix(1.3333333,0,0,1.3333333,414.3374,229.70985)" />
    <path
       id="path118"
       d="m 305.805,198.98 0.5,-0.523 0.425,-0.523 0.282,-0.524 0.101,-0.523 -0.101,-0.524 -0.282,-0.523 -0.425,-0.524 -0.5,-0.523 -0.504,-0.523 -0.422,-0.524 -0.285,-0.523 -0.102,-0.524 0.102,-0.523 0.285,-0.524 0.422,-0.523 0.504,-0.524 0.5,-0.527 0.425,-0.523 0.282,-0.524 0.101,-0.523 -0.101,-0.524 -0.282,-0.523 -0.425,-0.523 -0.5,-0.524 -0.504,-0.523 -0.422,-0.524 -0.285,-0.523 -0.102,-0.524 0.102,-0.523 0.285,-0.524 0.422,-0.523 0.504,-0.523 0.5,-0.524 0.425,-0.523 0.282,-0.524 0.101,-0.523 -0.101,-0.528 -0.282,-0.523 -0.425,-0.523 -0.5,-0.524"
       style="fill:none;stroke:#000000;stroke-width:0.576;stroke-linecap:square;stroke-linejoin:miter;stroke-miterlimit:3.25;stroke-dasharray:none;stroke-opacity:1"
       transform="scale(1.3333333)" />
    <path
       id="path119"
       d="m 7.1721422,-6.2112394 -3.65625,6.2109374625 V 0.11688556 c 0,0.0703125 0.011719,0.15234375 0.011719,0.22265625 0,0.0703125 0,0.140625 0,0.2109375 0,0.10546875 0,0.234375 -0.011719,0.36328125 -0.011719,0.14062504 -0.035156,0.28125004 -0.058594,0.44531254 -0.023437,0.140625 -0.058594,0.28125 -0.09375,0.4453125 -0.046875,0.140625 -0.1054687,0.2695312 -0.1875,0.375 -0.070312,0.1289062 -0.1523437,0.2226562 -0.2578125,0.2929687 -0.09375,0.070312 -0.2226562,0.1054688 -0.3632812,0.1054688 -0.1054688,0 -0.1992188,-0.023437 -0.28125,-0.070312 C 2.1799547,2.4606356 2.1096422,2.4137606 2.0510484,2.3434481 1.9924547,2.2731356 1.9455797,2.1793856 1.9221422,2.0856356 1.8869859,1.9918856 1.8752672,1.8864168 1.8752672,1.7926668 c 0,-0.1992187 0.023437,-0.3632812 0.046875,-0.515625 0.035156,-0.1640625 0.070312,-0.30468749 0.1289062,-0.44531249 0.046875,-0.140625 0.1054688,-0.28125 0.1757813,-0.421875 0.082031,-0.12890625 0.1523437,-0.29296875 0.234375,-0.45703125 L 1.4768297,-6.2112394 h 1.1015625 l 0.703125,4.8984375 2.8242187,-4.8984375 z m 0,0"
       style="fill:#000000;fill-opacity:1;fill-rule:nonzero;stroke:none"
       aria-label="γ"
       transform="matrix(1.3333333,0,0,1.3333333,392.2223,257.63712)"
       clip-path="url(#clipPath120)" />
    <path
       id="path121"
       d="m 308.109,157.09 c 0,0.613 -0.246,1.199 -0.675,1.629 -0.434,0.433 -1.02,0.676 -1.629,0.676 -0.614,0 -1.2,-0.243 -1.629,-0.676 -0.434,-0.43 -0.676,-1.016 -0.676,-1.629 0,-0.61 0.242,-1.195 0.676,-1.629 0.429,-0.43 1.015,-0.676 1.629,-0.676 0.609,0 1.195,0.246 1.629,0.676 0.429,0.434 0.675,1.019 0.675,1.629 z"
       style="fill:#000000;fill-opacity:1;fill-rule:evenodd;stroke:none"
       transform="scale(1.3333333)" />
    <path
       id="path122"
       d="m 308.109,198.98 c 0,0.614 -0.246,1.2 -0.675,1.629 -0.434,0.434 -1.02,0.676 -1.629,0.676 -0.614,0 -1.2,-0.242 -1.629,-0.676 -0.434,-0.429 -0.676,-1.015 -0.676,-1.629 0,-0.609 0.242,-1.195 0.676,-1.628 0.429,-0.43 1.015,-0.672 1.629,-0.672 0.609,0 1.195,0.242 1.629,0.672 0.429,0.433 0.675,1.019 0.675,1.628 z"
       style="fill:#000000;fill-opacity:1;fill-rule:evenodd;stroke:none"
       transform="scale(1.3333333)" />
    <path
       id="path123"
       d="m 303.184,180.656 5.238,-5.238"
       style="fill:none;stroke:#000000;stroke-width:1.728;stroke-linecap:square;stroke-linejoin:miter;stroke-miterlimit:3.25;stroke-dasharray:none;stroke-opacity:1"
       transform="scale(1.3333333)" />
    <path
       id="path124"
       d="m 303.184,175.418 5.238,5.238"
       style="fill:none;stroke:#000000;stroke-width:1.728;stroke-linecap:square;stroke-linejoin:miter;stroke-miterlimit:3.25;stroke-dasharray:none;stroke-opacity:1"
       transform="scale(1.3333333)" />
    <path
       id="path125"
       d="m 3.2100354,-7.7232601 c 0.8554687,0 1.4648437,0.234375 1.7929687,0.6679687 0.3398438,0.4570313 0.5039063,0.9023438 0.5039063,1.3710938 h -0.9375 c -0.070312,-0.2929688 -0.1523438,-0.5390625 -0.28125,-0.7148438 -0.234375,-0.3164062 -0.5859375,-0.4804687 -1.0664063,-0.4804687 -0.5390625,0 -0.9726562,0.2578125 -1.2890625,0.7617187 -0.3164062,0.4921875 -0.4921875,1.2070313 -0.5273437,2.1445313 0.2226562,-0.328125 0.4921875,-0.5742188 0.84375,-0.7382813 0.3046875,-0.140625 0.6445312,-0.2109375 1.03125,-0.2109375 0.6328125,0 1.2070312,0.1992188 1.6757812,0.6210938 0.4921875,0.4101562 0.7265625,1.0195312 0.7265625,1.8398437 0,0.703125 -0.2226562,1.3125 -0.6796875,1.85156253 -0.4570312,0.5390625 -1.1132812,0.8203125 -1.9453125,0.8203125 -0.7265625,0 -1.3476562,-0.28125 -1.875,-0.83203125 C 0.66706663,-1.1724789 0.40925413,-2.0748226 0.40925413,-3.3756039 c 0,-0.9609375 0.1171875,-1.7695312 0.3515625,-2.4375 C 1.2061291,-7.0904476 2.0264416,-7.7232601 3.2100354,-7.7232601 Z m -0.058594,7.06640623 c 0.5039063,0 0.8789063,-0.1640625 1.125,-0.51562503 0.2578125,-0.3398437 0.3867188,-0.7382812 0.3867188,-1.2070312 0,-0.3984375 -0.1054688,-0.7734375 -0.3398438,-1.1367188 -0.2226562,-0.3515625 -0.6328125,-0.5273437 -1.2304687,-0.5273437 -0.421875,0 -0.7851563,0.140625 -1.0898438,0.4101562 -0.3164062,0.28125 -0.46875,0.6914063 -0.46875,1.2539063 0,0.4804687 0.140625,0.890625 0.421875,1.21875 0.2929688,0.33984373 0.6796875,0.50390623 1.1953125,0.50390623 z m 0,0"
       style="fill:#000000;fill-opacity:1;fill-rule:nonzero;stroke:none"
       aria-label="6"
       transform="matrix(1.3333333,0,0,1.3333333,403.66527,307.39924)" />
  </g>
</svg>
