<?xml version="1.0" encoding="UTF-8" standalone="no"?>
<!-- Created with Inkscape (http://www.inkscape.org/) -->

<svg
   version="1.1"
   id="svg1"
   width="492"
   height="246.66667"
   viewBox="0 0 492 246.66667"
   sodipodi:docname="1cxw4zyvpd3ll.pdf"
   xmlns:inkscape="http://www.inkscape.org/namespaces/inkscape"
   xmlns:sodipodi="http://sodipodi.sourceforge.net/DTD/sodipodi-0.dtd"
   xmlns="http://www.w3.org/2000/svg"
   xmlns:svg="http://www.w3.org/2000/svg">
  <defs
     id="defs1">
    <clipPath
       clipPathUnits="userSpaceOnUse"
       id="clipPath12">
      <path
         d="M 80,50 H 90.238 V 66 H 80 Z"
         transform="translate(-78.203694,-61.074569)"
         id="path12" />
    </clipPath>
    <clipPath
       clipPathUnits="userSpaceOnUse"
       id="clipPath16">
      <path
         d="m 80,172 h 5 v 12.32 h -5 z"
         transform="translate(-79.055259,-184.68097)"
         id="path16" />
    </clipPath>
    <clipPath
       clipPathUnits="userSpaceOnUse"
       id="clipPath26">
      <path
         d="m 263,172 h 10 v 12.32 h -10 z"
         transform="translate(-263.37526,-184.68097)"
         id="path26" />
    </clipPath>
  </defs>
  <sodipodi:namedview
     id="namedview1"
     pagecolor="#ffffff"
     bordercolor="#999999"
     borderopacity="1"
     inkscape:showpageshadow="0"
     inkscape:pageopacity="0"
     inkscape:pagecheckerboard="0"
     inkscape:deskcolor="#d1d1d1">
    <inkscape:page
       x="0"
       y="0"
       id="page1"
       width="492"
       height="246.66667"
       margin="0"
       bleed="0" />
  </sodipodi:namedview>
  <g
     id="g1"
     inkscape:groupmode="layer"
     inkscape:label="">
    <path
       id="path1"
       d="M 0,100.539 H 50.27"
       style="fill:none;stroke:#000000;stroke-width:0.9216;stroke-linecap:square;stroke-linejoin:miter;stroke-miterlimit:3.25;stroke-dasharray:none;stroke-opacity:1"
       transform="scale(1.3333333)" />
    <path
       id="path2"
       d="m 30.16,100.539 -10.051,3.352 v -6.703 z"
       style="fill:#000000;fill-opacity:1;fill-rule:evenodd;stroke:none"
       transform="scale(1.3333333)" />
    <path
       id="path3"
       d="m 11.871275,-9.2921999 c 0.269531,0.5507812 0.375,1.2070312 0.339844,1.9453125 0,0.5039062 -0.105469,1.3125 -0.339844,2.4257812 H 3.7618999 c -0.2109375,1.125 -0.1289062,2.0273438 0.234375,2.7070313 0.328125,0.6679687 1.03125,1.0078125 2.0859375,1.0078125 0.9492188,0 1.7929688,-0.3164063 2.5078125,-0.9726563 0.4101563,-0.3515625 0.7382813,-0.7734375 0.9726563,-1.2890625 h 1.8398438 c -0.152344,0.4335938 -0.398438,0.8671875 -0.785156,1.3828125 -0.375,0.4804688 -0.7500003,0.9023438 -1.1601566,1.19531251 -0.6679687,0.57421875 -1.453125,0.9375 -2.34375,1.125 -0.4570312,0.10546875 -0.984375,0.1640625 -1.5351562,0.1640625 -1.3710938,0 -2.4492188,-0.50390625 -3.1875,-1.50000001 -0.7382813,-0.984375 -0.9140625,-2.4023437 -0.5273438,-4.1953125 0.375,-1.78125 1.1601563,-3.2109375 2.3554688,-4.3359375 1.1835937,-1.0898433 2.5546875,-1.6406253 4.125,-1.6406253 0.7734375,0 1.5,0.1875 2.1679688,0.550782 0.65625,0.351562 1.101562,0.8437496 1.359375,1.4296871 z m -1.605469,2.8945312 c 0.08203,-0.796875 0.05859,-1.4414062 -0.128906,-1.921875 -0.3164063,-0.890625 -1.0546876,-1.3476562 -2.2382813,-1.3476562 -0.8671875,0 -1.6523438,0.3164062 -2.34375,0.9257812 -0.7148438,0.609375 -1.1835938,1.3945313 -1.4414063,2.34375 z m 0,0"
       style="fill:#000000;fill-opacity:1;fill-rule:nonzero;stroke:none"
       aria-label="e"
       transform="matrix(1.3333333,0,0,1.3333333,25.409915,171.21382)" />
    <path
       id="path4"
       d="M 167.562,100.539 H 117.293"
       style="fill:none;stroke:#000000;stroke-width:0.9216;stroke-linecap:square;stroke-linejoin:miter;stroke-miterlimit:3.25;stroke-dasharray:none;stroke-opacity:1"
       transform="scale(1.3333333)" />
    <path
       id="path5"
       d="m 147.457,100.539 -10.055,-3.351 v 6.703 z"
       style="fill:#000000;fill-opacity:1;fill-rule:evenodd;stroke:none"
       transform="scale(1.3333333)" />
    <path
       id="path6"
       d="m 11.869698,-9.2929521 c 0.269531,0.5507812 0.375,1.2070312 0.339843,1.9453125 0,0.5039062 -0.105468,1.3125 -0.339843,2.4257812 H 3.7603227 c -0.2109375,1.125 -0.1289063,2.0273438 0.234375,2.7070313 0.328125,0.6679687 1.03125,1.0078125 2.0859375,1.0078125 0.9492187,0 1.7929687,-0.3164063 2.5078125,-0.9726563 0.4101562,-0.3515625 0.7382812,-0.7734375 0.9726562,-1.2890625 h 1.8398441 c -0.152344,0.4335938 -0.398438,0.8671875 -0.785157,1.3828125 -0.375,0.4804688 -0.7499996,0.9023438 -1.1601558,1.19531253 -0.6679688,0.57421875 -1.453125,0.9375 -2.34375,1.125 -0.4570313,0.10546875 -0.984375,0.1640625 -1.5351563,0.1640625 -1.3710937,0 -2.4492187,-0.50390625 -3.1875,-1.50000003 -0.7382812,-0.984375 -0.9140625,-2.4023437 -0.5273437,-4.1953125 0.375,-1.78125 1.1601562,-3.2109375 2.3554687,-4.3359375 1.1835938,-1.0898441 2.5546875,-1.6406251 4.125,-1.6406251 0.7734375,0 1.5,0.1875 2.1679691,0.550781 0.65625,0.351563 1.101562,0.8437504 1.359375,1.4296879 z m -1.605469,2.8945312 c 0.08203,-0.796875 0.05859,-1.4414062 -0.128906,-1.921875 -0.3164066,-0.890625 -1.0546878,-1.3476562 -2.2382816,-1.3476562 -0.8671875,0 -1.6523437,0.3164062 -2.34375,0.9257812 -0.7148437,0.609375 -1.1835937,1.3945313 -1.4414062,2.34375 z m 0,0"
       style="fill:#000000;fill-opacity:1;fill-rule:nonzero;stroke:none"
       aria-label="e"
       transform="matrix(1.3333333,0,0,1.3333333,181.80264,117.17967)" />
    <path
       id="path7"
       d="m 50.27,100.539 c 2.3,10.223 9.14,18.836 18.578,23.391 9.433,4.558 20.433,4.558 29.871,0 9.433,-4.555 16.277,-13.168 18.574,-23.391"
       style="fill:none;stroke:#000000;stroke-width:0.9216;stroke-linecap:square;stroke-linejoin:miter;stroke-miterlimit:3.25;stroke-dasharray:none;stroke-opacity:1"
       transform="scale(1.3333333)" />
    <path
       id="path8"
       d="m 88.809,127.348 -10.055,3.351 v -6.703 z"
       style="fill:#000000;fill-opacity:1;fill-rule:evenodd;stroke:none"
       transform="scale(1.3333333)" />
    <path
       id="path9"
       d="m 11.870486,-9.2928116 c 0.269532,0.5507812 0.375,1.2070312 0.339844,1.9453125 0,0.5039062 -0.105469,1.3125 -0.339844,2.4257812 H 3.7611113 c -0.2109375,1.125 -0.1289062,2.0273438 0.234375,2.7070313 0.328125,0.6679687 1.03125,1.0078125 2.0859375,1.0078125 0.9492188,0 1.7929688,-0.3164063 2.5078125,-0.9726563 0.4101563,-0.3515625 0.7382813,-0.7734375 0.9726563,-1.2890625 h 1.8398434 c -0.152343,0.4335938 -0.398437,0.8671875 -0.785156,1.3828125 -0.375,0.4804688 -0.7499999,0.9023438 -1.1601562,1.19531252 -0.6679687,0.57421875 -1.453125,0.9375 -2.34375,1.125 -0.4570312,0.10546875 -0.984375,0.1640625 -1.5351562,0.1640625 -1.3710938,0 -2.4492188,-0.50390625 -3.1875,-1.50000002 -0.7382813,-0.984375 -0.9140625,-2.4023437 -0.5273438,-4.1953125 0.375,-1.78125 1.1601563,-3.2109375 2.3554688,-4.3359375 1.1835937,-1.0898436 2.5546875,-1.6406246 4.125,-1.6406246 0.7734375,0 1.5,0.1875 2.1679684,0.550781 0.65625,0.351562 1.101563,0.8437499 1.359375,1.4296874 z m -1.605468,2.8945312 c 0.08203,-0.796875 0.05859,-1.4414062 -0.128907,-1.921875 -0.3164059,-0.890625 -1.0546872,-1.3476562 -2.2382809,-1.3476562 -0.8671875,0 -1.6523438,0.3164062 -2.34375,0.9257812 -0.7148438,0.609375 -1.1835938,1.3945313 -1.4414063,2.34375 z m 0,0"
       style="fill:#000000;fill-opacity:1;fill-rule:nonzero;stroke:none"
       aria-label="e"
       transform="matrix(1.3333333,0,0,1.3333333,103.60628,206.96073)" />
    <path
       id="path10"
       d="m 117.293,100.539 -0.93,-0.637 -0.843,-0.621 -0.668,-0.64 -0.438,-0.696 -0.187,-0.773 0.05,-0.871 0.235,-0.965 0.343,-1.043 0.352,-1.09 0.262,-1.09 0.097,-1.035 -0.14,-0.941 -0.403,-0.797 -0.66,-0.641 -0.886,-0.476 -1.039,-0.336 -1.118,-0.242 -1.105,-0.207 -1.016,-0.231 -0.855,-0.328 -0.664,-0.469 -0.469,-0.648 -0.293,-0.832 -0.164,-0.989 -0.109,-1.097 -0.122,-1.141 -0.207,-1.098 -0.343,-0.976 -0.52,-0.785 -0.703,-0.547 -0.875,-0.301 -1.012,-0.062 -1.093,0.125 -1.122,0.234 -1.089,0.258 -1.012,0.183 -0.906,0.036 -0.789,-0.184 -0.684,-0.422 -0.598,-0.66 -0.547,-0.848 -0.543,-0.968 -0.574,-0.993 -0.636,-0.91 -0.715,-0.738 -0.801,-0.488 -0.871,-0.196 -0.922,0.102 -0.953,0.371 -0.949,0.566 -0.93,0.668 -0.891,0.672 -0.847,0.57 -0.813,0.379 -0.797,0.133 -0.793,-0.133 -0.816,-0.379 -0.848,-0.57 -0.89,-0.672 -0.926,-0.668 -0.953,-0.566 -0.95,-0.371 -0.925,-0.102 -0.871,0.196 -0.797,0.488 -0.719,0.738 -0.633,0.91 -0.574,0.993 -0.543,0.968 -0.551,0.848 -0.597,0.66 -0.68,0.422 -0.789,0.184 -0.91,-0.036 -1.012,-0.183 -1.09,-0.258 -1.121,-0.234 -1.094,-0.125 -1.008,0.062 -0.879,0.301 -0.703,0.547 -0.519,0.785 -0.344,0.976 -0.207,1.098 -0.121,1.141 -0.106,1.097 -0.167,0.989 -0.293,0.832 -0.465,0.648 -0.668,0.469 -0.856,0.328 -1.011,0.231 -1.106,0.207 -1.117,0.242 -1.043,0.336 -0.883,0.476 -0.664,0.641 -0.402,0.797 -0.137,0.941 0.094,1.035 0.265,1.09 0.352,1.09 0.34,1.043 0.234,0.965 0.051,0.871 -0.184,0.773 -0.441,0.696 -0.668,0.64 -0.84,0.621 -0.933,0.637"
       style="fill:none;stroke:#000000;stroke-width:0.9216;stroke-linecap:square;stroke-linejoin:miter;stroke-miterlimit:3.25;stroke-dasharray:none;stroke-opacity:1"
       transform="scale(1.3333333)" />
    <path
       id="path11"
       d="M 12.059979,-10.440779 5.9076351,6.273125e-4 V 0.19984606 c 0,0.12890625 0.023437,0.24609375 0.023437,0.36328125 0,0.1171875 0,0.24609375 0,0.36328125 0,0.18750004 0,0.38671874 -0.023437,0.60937504 -0.023437,0.234375 -0.058594,0.4804687 -0.1054687,0.7382812 -0.035156,0.2460938 -0.09375,0.4921875 -0.1523438,0.75 -0.082031,0.2460938 -0.1875,0.46875 -0.3046875,0.6445313 -0.1289062,0.1992187 -0.2695312,0.3632812 -0.4453125,0.4804687 -0.1640625,0.1289063 -0.3632812,0.1875 -0.609375,0.1875 -0.1757812,0 -0.3398437,-0.046875 -0.4804687,-0.1289062 C 3.6693539,4.1373461 3.5521664,4.0553148 3.4466976,3.9264086 3.3529476,3.8092211 3.2709164,3.6685961 3.2240414,3.5045336 3.1654476,3.3521898 3.1420101,3.1646898 3.1420101,3.0006273 c 0,-0.3164062 0.046875,-0.5976562 0.082031,-0.8671875 C 3.2826351,1.8756273 3.3529476,1.6295336 3.4466976,1.3951586 3.5287289,1.1725023 3.6341976,0.92640856 3.7513851,0.68031481 3.8685726,0.46937731 3.9974789,0.19984606 4.1381039,-0.08140394 L 2.4857601,-10.440779 h 1.8515625 l 1.171875,8.2500001 4.7460934,-8.2500001 z m 0,0"
       style="fill:#000000;fill-opacity:1;fill-rule:nonzero;stroke:none"
       aria-label="γ"
       transform="matrix(1.3333333,0,0,1.3333333,104.27159,81.432757)"
       clip-path="url(#clipPath12)" />
    <path
       id="path13"
       d="m 53.957,100.539 c 0,0.977 -0.391,1.914 -1.082,2.606 -0.691,0.691 -1.629,1.078 -2.605,1.078 -0.977,0 -1.915,-0.387 -2.606,-1.078 -0.691,-0.692 -1.082,-1.629 -1.082,-2.606 0,-0.98 0.391,-1.918 1.082,-2.609 0.691,-0.692 1.629,-1.078 2.606,-1.078 0.976,0 1.914,0.386 2.605,1.078 0.691,0.691 1.082,1.629 1.082,2.609 z"
       style="fill:#000000;fill-opacity:1;fill-rule:evenodd;stroke:none"
       transform="scale(1.3333333)" />
    <path
       id="path14"
       d="m 120.98,100.539 c 0,0.977 -0.386,1.914 -1.078,2.606 -0.691,0.691 -1.629,1.078 -2.609,1.078 -0.977,0 -1.914,-0.387 -2.605,-1.078 -0.692,-0.692 -1.079,-1.629 -1.079,-2.606 0,-0.98 0.387,-1.918 1.079,-2.609 0.691,-0.692 1.628,-1.078 2.605,-1.078 0.98,0 1.918,0.386 2.609,1.078 0.692,0.691 1.078,1.629 1.078,2.609 z"
       style="fill:#000000;fill-opacity:1;fill-rule:evenodd;stroke:none"
       transform="scale(1.3333333)" />
    <path
       id="path15"
       d="m 1.5931815,-8.3196379 v -1.125 c 1.078125,-0.1054687 1.8164063,-0.28125 2.2382813,-0.515625 0.421875,-0.2343751 0.7382812,-0.8320311 0.9375,-1.7343751 H 5.9525565 V 6.74625e-4 H 4.3705253 V -8.3196379 Z m 0,0"
       style="fill:#000000;fill-opacity:1;fill-rule:nonzero;stroke:none"
       aria-label="1"
       transform="matrix(1.3333333,0,0,1.3333333,105.40701,246.24129)"
       clip-path="url(#clipPath16)" />
    <path
       id="path17"
       d="m 184.32,100.539 h 83.782"
       style="fill:none;stroke:#000000;stroke-width:0.9216;stroke-linecap:square;stroke-linejoin:miter;stroke-miterlimit:3.25;stroke-dasharray:none;stroke-opacity:1"
       transform="scale(1.3333333)" />
    <path
       id="path18"
       d="m 231.238,100.539 -10.054,3.352 v -6.703 z"
       style="fill:#000000;fill-opacity:1;fill-rule:evenodd;stroke:none"
       transform="scale(1.3333333)" />
    <path
       id="path19"
       d="m 11.871083,-9.2921999 c 0.269531,0.5507812 0.375,1.2070312 0.339844,1.9453125 0,0.5039062 -0.105469,1.3125 -0.339844,2.4257812 H 3.7617078 c -0.2109375,1.125 -0.1289062,2.0273438 0.234375,2.7070313 0.328125,0.6679687 1.03125,1.0078125 2.0859375,1.0078125 0.9492188,0 1.7929688,-0.3164063 2.5078125,-0.9726563 0.4101563,-0.3515625 0.7382813,-0.7734375 0.9726563,-1.2890625 h 1.8398439 c -0.152344,0.4335938 -0.398438,0.8671875 -0.785156,1.3828125 -0.375,0.4804688 -0.7500004,0.9023438 -1.1601567,1.19531251 -0.6679687,0.57421875 -1.453125,0.9375 -2.34375,1.125 -0.4570312,0.10546875 -0.984375,0.1640625 -1.5351562,0.1640625 -1.3710938,0 -2.4492188,-0.50390625 -3.1875,-1.50000001 -0.7382813,-0.984375 -0.9140625,-2.4023437 -0.5273438,-4.1953125 0.375,-1.78125 1.1601563,-3.2109375 2.3554688,-4.3359375 1.1835937,-1.0898433 2.5546875,-1.6406253 4.125,-1.6406253 0.7734375,0 1.5,0.1875 2.1679689,0.550782 0.65625,0.351562 1.101562,0.8437496 1.359375,1.4296871 z m -1.605469,2.8945312 c 0.08203,-0.796875 0.05859,-1.4414062 -0.128906,-1.921875 -0.3164064,-0.890625 -1.0546877,-1.3476562 -2.2382814,-1.3476562 -0.8671875,0 -1.6523438,0.3164062 -2.34375,0.9257812 -0.7148438,0.609375 -1.1835938,1.3945313 -1.4414063,2.34375 z m 0,0"
       style="fill:#000000;fill-opacity:1;fill-rule:nonzero;stroke:none"
       aria-label="e"
       transform="matrix(1.3333333,0,0,1.3333333,293.51173,171.21382)" />
    <path
       id="path20"
       d="M 351.883,100.539 H 268.102"
       style="fill:none;stroke:#000000;stroke-width:0.9216;stroke-linecap:square;stroke-linejoin:miter;stroke-miterlimit:3.25;stroke-dasharray:none;stroke-opacity:1"
       transform="scale(1.3333333)" />
    <path
       id="path21"
       d="m 315.02,100.539 -10.055,-3.351 v 6.703 z"
       style="fill:#000000;fill-opacity:1;fill-rule:evenodd;stroke:none"
       transform="scale(1.3333333)" />
    <path
       id="path22"
       d="m 11.872468,-9.2929521 c 0.269531,0.5507812 0.375,1.2070312 0.339844,1.9453125 0,0.5039062 -0.105469,1.3125 -0.339844,2.4257812 H 3.7630929 c -0.2109375,1.125 -0.1289062,2.0273438 0.234375,2.7070313 0.328125,0.6679687 1.03125,1.0078125 2.0859375,1.0078125 0.9492188,0 1.7929688,-0.3164063 2.5078125,-0.9726563 0.4101563,-0.3515625 0.7382813,-0.7734375 0.9726563,-1.2890625 h 1.8398438 c -0.152344,0.4335938 -0.398438,0.8671875 -0.785156,1.3828125 -0.375,0.4804688 -0.7500003,0.9023438 -1.1601566,1.19531253 -0.6679687,0.57421875 -1.453125,0.9375 -2.34375,1.125 -0.4570312,0.10546875 -0.984375,0.1640625 -1.5351562,0.1640625 -1.3710938,0 -2.4492188,-0.50390625 -3.1875,-1.50000003 -0.7382813,-0.984375 -0.9140625,-2.4023437 -0.5273438,-4.1953125 0.375,-1.78125 1.1601563,-3.2109375 2.3554688,-4.3359375 1.1835937,-1.0898441 2.5546875,-1.6406251 4.125,-1.6406251 0.7734375,0 1.5,0.1875 2.1679688,0.550781 0.65625,0.351563 1.101562,0.8437504 1.359375,1.4296879 z m -1.605469,2.8945312 c 0.08203,-0.796875 0.05859,-1.4414062 -0.128906,-1.921875 -0.3164063,-0.890625 -1.0546876,-1.3476562 -2.2382813,-1.3476562 -0.8671875,0 -1.6523438,0.3164062 -2.34375,0.9257812 -0.7148438,0.609375 -1.1835938,1.3945313 -1.4414063,2.34375 z m 0,0"
       style="fill:#000000;fill-opacity:1;fill-rule:nonzero;stroke:none"
       aria-label="e"
       transform="matrix(1.3333333,0,0,1.3333333,405.22082,117.17967)" />
    <path
       id="path23"
       d="m 263.914,104.727 8.375,-8.379"
       style="fill:none;stroke:#000000;stroke-width:2.7648;stroke-linecap:square;stroke-linejoin:miter;stroke-miterlimit:3.25;stroke-dasharray:none;stroke-opacity:1"
       transform="scale(1.3333333)" />
    <path
       id="path24"
       d="m 263.914,96.348 8.375,8.379"
       style="fill:none;stroke:#000000;stroke-width:2.7648;stroke-linecap:square;stroke-linejoin:miter;stroke-miterlimit:3.25;stroke-dasharray:none;stroke-opacity:1"
       transform="scale(1.3333333)" />
    <path
       id="path25"
       d="M 0.51634556,6.74625e-4 C 0.57493931,-1.0071379 0.77415806,-1.8860441 1.1491581,-2.6360441 1.5124393,-3.3743254 2.2155643,-4.0657316 3.2819706,-4.6751066 l 1.5703125,-0.9257813 c 0.7148437,-0.3984375 1.1953125,-0.75 1.4882812,-1.03125 0.4453125,-0.4570312 0.6679688,-0.984375 0.6679688,-1.5703125 0,-0.6679687 -0.1992188,-1.21875 -0.6210938,-1.6289062 -0.3984375,-0.3984374 -0.9609375,-0.6093754 -1.6289062,-0.6093754 -1.03125,0 -1.7109375,0.386719 -2.0976563,1.1601566 -0.2226562,0.4101563 -0.328125,0.984375 -0.3632812,1.6992188 H 0.80931431 c 0.0117188,-1.0195313 0.19921879,-1.8398438 0.57421879,-2.4960934 0.6328125,-1.125 1.7578125,-1.699219 3.375,-1.699219 1.3476562,0 2.3320312,0.351562 2.953125,1.089844 0.6210937,0.7265621 0.9257812,1.5234371 0.9257812,2.4140621 0,0.9492188 -0.3398437,1.7578125 -0.9960937,2.4257813 -0.3867188,0.3867187 -1.0664063,0.8554687 -2.0390625,1.40625 l -1.1367188,0.6210937 c -0.5273437,0.3046875 -0.9492187,0.5742188 -1.2773437,0.84375 -0.5273438,0.4921875 -0.890625,1.0078125 -1.0195313,1.5820313 h 6.421875 V 6.74625e-4 Z m 0,0"
       style="fill:#000000;fill-opacity:1;fill-rule:nonzero;stroke:none"
       aria-label="2"
       transform="matrix(1.3333333,0,0,1.3333333,351.16701,246.24129)"
       clip-path="url(#clipPath26)" />
  </g>
</svg>
