<?xml version="1.0" encoding="UTF-8" standalone="no"?>
<!-- Created with Inkscape (http://www.inkscape.org/) -->

<svg
   version="1.1"
   id="svg2"
   width="246.66667"
   height="246.66667"
   viewBox="0 0 246.66667 246.66667"
   sodipodi:docname="1egyqolokmcnv.pdf"
   xmlns:inkscape="http://www.inkscape.org/namespaces/inkscape"
   xmlns:sodipodi="http://sodipodi.sourceforge.net/DTD/sodipodi-0.dtd"
   xmlns="http://www.w3.org/2000/svg"
   xmlns:svg="http://www.w3.org/2000/svg">
  <defs
     id="defs6">
    <clipPath
       clipPathUnits="userSpaceOnUse"
       id="clipPath28">
      <path
         d="m 133,39 h 9.801 V 55 H 133 Z"
         id="path26" />
    </clipPath>
    <clipPath
       clipPathUnits="userSpaceOnUse"
       id="clipPath54">
      <path
         d="M 67,58 H 78.961 V 71 H 67 Z"
         id="path52" />
    </clipPath>
    <clipPath
       clipPathUnits="userSpaceOnUse"
       id="clipPath70">
      <path
         d="m 69,135 h 10.199 v 16 H 69 Z"
         id="path68" />
    </clipPath>
    <clipPath
       clipPathUnits="userSpaceOnUse"
       id="clipPath98">
      <path
         d="m 80,172 h 5 v 12.32 h -5 z"
         id="path96" />
    </clipPath>
  </defs>
  <sodipodi:namedview
     id="namedview4"
     pagecolor="#ffffff"
     bordercolor="#999999"
     borderopacity="1"
     inkscape:showpageshadow="0"
     inkscape:pageopacity="0"
     inkscape:pagecheckerboard="0"
     inkscape:deskcolor="#d1d1d1" />
  <g
     id="g8"
     inkscape:groupmode="layer"
     inkscape:label="1egyqolokmcnv"
     transform="matrix(1.3333333,0,0,1.3333333,0,9.5e-6)">
    <g
       id="g10">
      <path
         d="M 0,100.539 H 54.457"
         style="fill:none;stroke:#000000;stroke-width:0.9216;stroke-linecap:square;stroke-linejoin:miter;stroke-miterlimit:3.25;stroke-dasharray:none;stroke-opacity:1"
         id="path12" />
      <path
         d="m 32.258,100.539 -10.055,3.352 v -6.703 z"
         style="fill:#000000;fill-opacity:1;fill-rule:evenodd;stroke:none"
         id="path14" />
      <text
         xml:space="preserve"
         transform="translate(21.151982,128.41036)"
         style="font-variant:normal;font-size:21.12px;font-family:CairoFont-0;-inkscape-font-specification:CairoFont-0-0;writing-mode:lr-tb;fill:#000000;fill-opacity:1;fill-rule:nonzero;stroke:none"
         id="text18"><tspan
           x="0"
           y="0"
           id="tspan16">e</tspan></text>
      <path
         d="m 108.918,67.027 0.953,0.692 0.934,0.566 0.902,0.32 0.855,0.012 0.809,-0.324 0.766,-0.621 0.734,-0.844 0.723,-0.945 0.722,-0.918 0.746,-0.758 0.786,-0.5 0.828,-0.176 0.879,0.157 0.918,0.441 0.945,0.637 0.957,0.714 0.949,0.653 0.922,0.465 0.879,0.191 0.836,-0.137 0.789,-0.464 0.75,-0.735 0.727,-0.906 0.718,-0.949 0.731,-0.86 0.762,-0.652 0.804,-0.359 0.852,-0.028 0.894,0.293 0.934,0.539 0.953,0.688 0.957,0.703 0.938,0.586 0.906,0.351 0.859,0.047 0.817,-0.285 0.769,-0.594 0.734,-0.824 0.723,-0.941 0.723,-0.926 0.742,-0.781 0.781,-0.532 0.824,-0.211 0.872,0.118 0.914,0.414 0.941,0.621 0.957,0.711 0.949,0.664 0.926,0.496 0.887,0.223 0.844,-0.098 0.792,-0.43 0.754,-0.707 0.727,-0.894 0.719,-0.95 0.73,-0.878 0.758,-0.68 0.797,-0.395 0.847,-0.062 0.891,0.258 0.93,0.519 0.953,0.676 0.953,0.707 0.941,0.605 0.911,0.383 0.867,0.082 0.82,-0.25 0.774,-0.558 0.742,-0.805 0.718,-0.934"
         style="fill:none;stroke:#000000;stroke-width:0.9216;stroke-linecap:square;stroke-linejoin:miter;stroke-miterlimit:3.25;stroke-dasharray:none;stroke-opacity:1"
         id="path20" />
    </g>
    <g
       id="g22">
      <g
         id="g24"
         clip-path="url(#clipPath28)">
        <text
           xml:space="preserve"
           transform="translate(130.82535,50.313449)"
           style="font-variant:normal;font-size:20.16px;font-family:CairoFont-1;-inkscape-font-specification:CairoFont-1-1;writing-mode:lr-tb;fill:#000000;fill-opacity:1;fill-rule:nonzero;stroke:none"
           id="text32"><tspan
             x="0"
             y="0"
             id="tspan30">γ</tspan></text>
      </g>
    </g>
    <g
       id="g34">
      <path
         d="m 167.562,142.43 -58.644,-8.379"
         style="fill:none;stroke:#000000;stroke-width:0.9216;stroke-linecap:square;stroke-linejoin:miter;stroke-miterlimit:3.25;stroke-dasharray:none;stroke-opacity:1"
         id="path36" />
      <path
         d="m 143.215,138.949 -9.477,-4.738 -0.949,6.637 z"
         style="fill:#000000;fill-opacity:1;fill-rule:evenodd;stroke:none"
         id="path38" />
      <text
         xml:space="preserve"
         transform="translate(130.32637,165.98166)"
         style="font-variant:normal;font-size:21.12px;font-family:CairoFont-0;-inkscape-font-specification:CairoFont-0-0;writing-mode:lr-tb;fill:#000000;fill-opacity:1;fill-rule:nonzero;stroke:none"
         id="text42"><tspan
           x="0"
           y="0"
           id="tspan40">e</tspan></text>
      <path
         d="M 54.457,100.539 108.918,67.027"
         style="fill:none;stroke:#000000;stroke-width:0.9216;stroke-linecap:square;stroke-linejoin:miter;stroke-miterlimit:3.25;stroke-dasharray:none;stroke-opacity:1"
         id="path44" />
      <path
         d="M 85.969,81.148 79.164,89.27 75.648,83.562 Z"
         style="fill:#000000;fill-opacity:1;fill-rule:evenodd;stroke:none"
         id="path46" />
    </g>
    <g
       id="g48">
      <g
         id="g50"
         clip-path="url(#clipPath54)">
        <text
           xml:space="preserve"
           transform="translate(66.036004,70.197784)"
           style="font-variant:normal;font-size:21.12px;font-family:CairoFont-0;-inkscape-font-specification:CairoFont-0-0;writing-mode:lr-tb;fill:#000000;fill-opacity:1;fill-rule:nonzero;stroke:none"
           id="text58"><tspan
             x="0"
             y="0"
             id="tspan56">e</tspan></text>
      </g>
    </g>
    <g
       id="g60">
      <path
         d="m 108.918,134.051 -0.32,-1.09 -0.371,-1 -0.473,-0.836 -0.609,-0.617 -0.758,-0.371 -0.903,-0.137 -1.023,0.051 -1.098,0.179 -1.121,0.219 -1.094,0.168 -1.007,0.035 -0.887,-0.164 -0.742,-0.398 -0.594,-0.641 -0.461,-0.859 -0.363,-1.012 -0.317,-1.094 -0.32,-1.086 -0.379,-0.984 -0.488,-0.812 -0.625,-0.59 -0.777,-0.348 -0.915,-0.113 -1.035,0.07 -1.101,0.188 -1.121,0.218 -1.086,0.157 -0.996,0.015 -0.875,-0.187 -0.723,-0.426 -0.578,-0.668 -0.446,-0.879 -0.355,-1.027 -0.316,-1.098 -0.325,-1.078 -0.39,-0.969 -0.5,-0.789 -0.641,-0.566 -0.793,-0.317 -0.933,-0.093 -1.039,0.089 -1.11,0.196 -1.121,0.215 -1.078,0.144 -0.984,-0.004 -0.856,-0.215 -0.707,-0.453 -0.562,-0.695 -0.438,-0.895 -0.348,-1.043 -0.308,-1.097 -0.332,-1.071 -0.403,-0.953 -0.515,-0.765 -0.656,-0.535 -0.809,-0.293 -0.945,-0.071 -1.051,0.106 -1.113,0.199 -1.118,0.215 -1.07,0.133 -0.973,-0.028 -0.839,-0.238 -0.692,-0.484 -0.547,-0.719 -0.422,-0.914 -0.343,-1.051 -0.309,-1.102 -0.336,-1.062 -0.41,-0.934 -0.531,-0.742 -0.676,-0.512 -0.824,-0.265 -0.957,-0.047 -1.063,0.121 -1.117,0.207"
         style="fill:none;stroke:#000000;stroke-width:0.9216;stroke-linecap:square;stroke-linejoin:miter;stroke-miterlimit:3.25;stroke-dasharray:none;stroke-opacity:1"
         id="path62" />
    </g>
    <g
       id="g64">
      <g
         id="g66"
         clip-path="url(#clipPath70)">
        <text
           xml:space="preserve"
           transform="translate(67.033973,146.09733)"
           style="font-variant:normal;font-size:20.16px;font-family:CairoFont-1;-inkscape-font-specification:CairoFont-1-1;writing-mode:lr-tb;fill:#000000;fill-opacity:1;fill-rule:nonzero;stroke:none"
           id="text74"><tspan
             x="0"
             y="0"
             id="tspan72">γ</tspan></text>
      </g>
    </g>
    <g
       id="g76">
      <path
         d="m 108.918,67.027 v 67.024"
         style="fill:none;stroke:#000000;stroke-width:0.9216;stroke-linecap:square;stroke-linejoin:miter;stroke-miterlimit:3.25;stroke-dasharray:none;stroke-opacity:1"
         id="path78" />
      <path
         d="m 108.918,105.566 -3.352,-10.054 h 6.704 z"
         style="fill:#000000;fill-opacity:1;fill-rule:evenodd;stroke:none"
         id="path80" />
      <text
         xml:space="preserve"
         transform="translate(118.54541,108.14756)"
         style="font-variant:normal;font-size:21.12px;font-family:CairoFont-0;-inkscape-font-specification:CairoFont-0-0;writing-mode:lr-tb;fill:#000000;fill-opacity:1;fill-rule:nonzero;stroke:none"
         id="text84"><tspan
           x="0"
           y="0"
           id="tspan82">e</tspan></text>
      <path
         d="m 58.145,100.539 c 0,0.977 -0.387,1.914 -1.079,2.606 -0.691,0.691 -1.628,1.078 -2.609,1.078 -0.977,0 -1.914,-0.387 -2.605,-1.078 -0.692,-0.692 -1.079,-1.629 -1.079,-2.606 0,-0.98 0.387,-1.918 1.079,-2.609 0.691,-0.692 1.628,-1.078 2.605,-1.078 0.981,0 1.918,0.386 2.609,1.078 0.692,0.691 1.079,1.629 1.079,2.609 z"
         style="fill:#000000;fill-opacity:1;fill-rule:evenodd;stroke:none"
         id="path86" />
      <path
         d="m 112.602,67.027 c 0,0.977 -0.387,1.914 -1.079,2.606 -0.691,0.691 -1.628,1.078 -2.605,1.078 -0.98,0 -1.918,-0.387 -2.609,-1.078 -0.692,-0.692 -1.079,-1.629 -1.079,-2.606 0,-0.98 0.387,-1.918 1.079,-2.609 0.691,-0.691 1.629,-1.078 2.609,-1.078 0.977,0 1.914,0.387 2.605,1.078 0.692,0.691 1.079,1.629 1.079,2.609 z"
         style="fill:#000000;fill-opacity:1;fill-rule:evenodd;stroke:none"
         id="path88" />
      <path
         d="m 112.602,134.051 c 0,0.976 -0.387,1.914 -1.079,2.605 -0.691,0.692 -1.628,1.082 -2.605,1.082 -0.98,0 -1.918,-0.39 -2.609,-1.082 -0.692,-0.691 -1.079,-1.629 -1.079,-2.605 0,-0.977 0.387,-1.914 1.079,-2.606 0.691,-0.691 1.629,-1.082 2.609,-1.082 0.977,0 1.914,0.391 2.605,1.082 0.692,0.692 1.079,1.629 1.079,2.606 z"
         style="fill:#000000;fill-opacity:1;fill-rule:evenodd;stroke:none"
         id="path90" />
    </g>
    <g
       id="g92">
      <g
         id="g94"
         clip-path="url(#clipPath98)">
        <text
           xml:space="preserve"
           transform="translate(79.055256,184.68097)"
           style="font-variant:normal;font-size:16.8px;font-family:CairoFont-2;-inkscape-font-specification:CairoFont-2-0;writing-mode:lr-tb;fill:#000000;fill-opacity:1;fill-rule:nonzero;stroke:none"
           id="text102"><tspan
             x="0"
             y="0"
             id="tspan100">1</tspan></text>
      </g>
    </g>
  </g>
</svg>
