<?xml version="1.0" encoding="UTF-8" standalone="no"?>
<!-- Created with Inkscape (http://www.inkscape.org/) -->

<svg
   version="1.1"
   id="svg1"
   width="246.66667"
   height="246.66667"
   viewBox="0 0 246.66667 246.66667"
   sodipodi:docname="1ge1adt8fibyj.pdf"
   xmlns:inkscape="http://www.inkscape.org/namespaces/inkscape"
   xmlns:sodipodi="http://sodipodi.sourceforge.net/DTD/sodipodi-0.dtd"
   xmlns="http://www.w3.org/2000/svg"
   xmlns:svg="http://www.w3.org/2000/svg">
  <defs
     id="defs1">
    <clipPath
       clipPathUnits="userSpaceOnUse"
       id="clipPath3">
      <path
         d="m 28,117 h 9.922 v 16 H 28 Z"
         transform="translate(-25.840057,-128.41037)"
         id="path3" />
    </clipPath>
    <clipPath
       clipPathUnits="userSpaceOnUse"
       id="clipPath9">
      <path
         d="m 80,172 h 5 v 12.32 h -5 z"
         transform="translate(-79.055259,-184.68097)"
         id="path9" />
    </clipPath>
  </defs>
  <sodipodi:namedview
     id="namedview1"
     pagecolor="#ffffff"
     bordercolor="#999999"
     borderopacity="1"
     inkscape:showpageshadow="0"
     inkscape:pageopacity="0"
     inkscape:pagecheckerboard="0"
     inkscape:deskcolor="#d1d1d1">
    <inkscape:page
       x="0"
       y="0"
       id="page1"
       width="246.66667"
       height="246.66667"
       margin="0"
       bleed="0" />
  </sodipodi:namedview>
  <g
     id="g1"
     inkscape:groupmode="layer"
     inkscape:label="">
    <path
       id="path1"
       d="M 62.836,100.539 62,99.766 l -0.84,-0.661 -0.836,-0.46 -0.84,-0.196 -0.836,0.098 -0.839,0.379 -0.836,0.605 -0.84,0.746 -0.836,0.782 -0.84,0.711 -0.836,0.539 -0.84,0.289 h -0.836 l -0.84,-0.289 -0.835,-0.539 -0.84,-0.708 -0.836,-0.785 -0.84,-0.746 -0.836,-0.605 -0.84,-0.379 -0.836,-0.098 -0.84,0.196 -0.836,0.46 -0.836,0.665 -0.839,0.769 -0.836,0.773 -0.84,0.665 -0.836,0.461 -0.84,0.195 -0.836,-0.102 -0.84,-0.375 -0.836,-0.605 -0.839,-0.746 -0.836,-0.785 -0.84,-0.711 -0.836,-0.536 -0.84,-0.289 H 31 l -0.84,0.289 -0.836,0.536 -0.84,0.711 -0.836,0.785 -0.839,0.746 -0.836,0.605 -0.84,0.375 -0.836,0.102 -0.84,-0.195 -0.836,-0.461 -0.836,-0.665 -0.84,-0.773 -0.836,-0.769 -0.839,-0.665 -0.836,-0.46 -0.84,-0.196 -0.836,0.098 -0.84,0.379 -0.836,0.605 -0.84,0.746 -0.836,0.785 -0.84,0.708 -0.836,0.539 -0.839,0.289 H 10.055 L 9.215,102.309 8.379,101.77 7.539,101.059 6.703,100.277 5.863,99.531 5.027,98.926 4.188,98.547 3.352,98.449 2.516,98.645 1.676,99.105 0.84,99.766 0,100.539"
       style="fill:none;stroke:#000000;stroke-width:0.9216;stroke-linecap:square;stroke-linejoin:miter;stroke-miterlimit:3.25;stroke-dasharray:none;stroke-opacity:1"
       transform="scale(1.3333333)" />
    <path
       id="path2"
       d="M 12.05838,-10.440637 5.9060367,7.688125e-4 V 0.19998756 c 0,0.12890625 0.023437,0.24609375 0.023437,0.36328125 0,0.1171875 0,0.24609375 0,0.36328125 0,0.18750004 0,0.38671874 -0.023437,0.60937504 -0.023437,0.234375 -0.058594,0.4804687 -0.1054687,0.7382812 -0.035156,0.2460938 -0.09375,0.4921875 -0.1523438,0.75 -0.082031,0.2460938 -0.1875,0.46875 -0.3046875,0.6445313 -0.1289062,0.1992187 -0.2695312,0.3632812 -0.4453125,0.4804687 -0.1640625,0.1289063 -0.3632812,0.1875 -0.609375,0.1875 -0.1757812,0 -0.3398437,-0.046875 -0.4804687,-0.1289062 C 3.6677555,4.1374876 3.550568,4.0554563 3.4450992,3.9265501 3.3513492,3.8093626 3.269318,3.6687376 3.222443,3.5046751 3.1638492,3.3523313 3.1404117,3.1648313 3.1404117,3.0007688 c 0,-0.3164062 0.046875,-0.5976562 0.082031,-0.8671875 C 3.2810367,1.8757688 3.3513492,1.6296751 3.4450992,1.3953001 3.5271305,1.1726438 3.6325992,0.92655006 3.7497867,0.68045631 3.8669742,0.46951881 3.9958805,0.19998756 4.1365055,-0.08126244 L 2.4841617,-10.440637 h 1.8515625 l 1.171875,8.2499996 4.7460938,-8.2499996 z m 0,0"
       style="fill:#000000;fill-opacity:1;fill-rule:nonzero;stroke:none"
       aria-label="γ"
       transform="matrix(1.3333333,0,0,1.3333333,34.453409,171.21382)"
       clip-path="url(#clipPath3)" />
    <path
       id="path4"
       d="m 117.293,100.539 c 0,7.223 -2.867,14.149 -7.973,19.254 -5.109,5.105 -12.035,7.973 -19.254,7.973 -7.222,0 -14.148,-2.868 -19.254,-7.973 -5.105,-5.105 -7.976,-12.031 -7.976,-19.254 0,-7.223 2.871,-14.148 7.976,-19.254 5.106,-5.105 12.032,-7.976 19.254,-7.976 7.219,0 14.145,2.871 19.254,7.976 5.106,5.106 7.973,12.031 7.973,19.254 z"
       style="fill:none;stroke:#000000;stroke-width:0.9216;stroke-linecap:square;stroke-linejoin:miter;stroke-miterlimit:3.25;stroke-dasharray:none;stroke-opacity:1"
       transform="scale(1.3333333)" />
    <path
       id="path5"
       d="m 117.293,105.566 3.352,-10.054 h -6.704 z"
       style="fill:#000000;fill-opacity:1;fill-rule:evenodd;stroke:none"
       transform="scale(1.3333333)" />
    <path
       id="path6"
       d="m 11.872334,-9.2940414 c 0.269532,0.5507813 0.375,1.2070313 0.339844,1.9453125 0,0.5039063 -0.105469,1.3125 -0.339844,2.4257813 H 3.7629595 c -0.2109375,1.125 -0.1289063,2.0273437 0.234375,2.7070312 0.328125,0.6679688 1.03125,1.0078125 2.0859375,1.0078125 0.9492187,0 1.7929687,-0.3164062 2.5078125,-0.9726562 0.4101562,-0.3515625 0.7382812,-0.7734375 0.9726562,-1.2890625 h 1.8398433 c -0.152343,0.4335937 -0.398437,0.8671875 -0.785156,1.3828125 -0.375,0.4804687 -0.7499998,0.9023437 -1.160156,1.19531247 -0.6679688,0.57421875 -1.453125,0.9375 -2.34375,1.125 -0.4570313,0.10546875 -0.984375,0.1640625 -1.5351563,0.1640625 -1.3710937,0 -2.4492187,-0.50390625 -3.1875,-1.49999997 -0.7382812,-0.984375 -0.9140625,-2.4023438 -0.5273437,-4.1953125 0.375,-1.78125 1.1601562,-3.2109375 2.3554687,-4.3359375 1.1835938,-1.0898439 2.5546875,-1.6406249 4.125,-1.6406249 0.7734375,0 1.5,0.1875 2.1679683,0.550781 0.65625,0.351563 1.101563,0.8437501 1.359375,1.4296876 z m -1.605468,2.8945313 c 0.08203,-0.796875 0.05859,-1.4414063 -0.128907,-1.921875 -0.3164058,-0.890625 -1.054687,-1.3476563 -2.2382808,-1.3476563 -0.8671875,0 -1.6523437,0.3164063 -2.34375,0.9257813 -0.7148437,0.609375 -1.1835937,1.3945312 -1.4414062,2.34375 z m 0,0"
       style="fill:#000000;fill-opacity:1;fill-rule:nonzero;stroke:none"
       aria-label="e"
       transform="matrix(1.3333333,0,0,1.3333333,166.95147,144.19674)" />
    <path
       id="path7"
       d="m 66.523,100.539 c 0,0.977 -0.39,1.914 -1.082,2.606 -0.691,0.691 -1.629,1.078 -2.605,1.078 -0.977,0 -1.914,-0.387 -2.606,-1.078 -0.691,-0.692 -1.082,-1.629 -1.082,-2.606 0,-0.98 0.391,-1.918 1.082,-2.609 0.692,-0.692 1.629,-1.078 2.606,-1.078 0.976,0 1.914,0.386 2.605,1.078 0.692,0.691 1.082,1.629 1.082,2.609 z"
       style="fill:#000000;fill-opacity:1;fill-rule:evenodd;stroke:none"
       transform="scale(1.3333333)" />
    <path
       id="path8"
       d="m 1.5931815,-8.3196379 v -1.125 c 1.078125,-0.1054687 1.8164063,-0.28125 2.2382813,-0.515625 0.421875,-0.2343751 0.7382812,-0.8320311 0.9375,-1.7343751 H 5.9525565 V 6.74625e-4 H 4.3705253 V -8.3196379 Z m 0,0"
       style="fill:#000000;fill-opacity:1;fill-rule:nonzero;stroke:none"
       aria-label="1"
       transform="matrix(1.3333333,0,0,1.3333333,105.40701,246.24129)"
       clip-path="url(#clipPath9)" />
  </g>
</svg>
