<?xml version="1.0" encoding="UTF-8" standalone="no"?>
<!-- Created with Inkscape (http://www.inkscape.org/) -->

<svg
   version="1.1"
   id="svg1"
   width="984"
   height="246.66667"
   viewBox="0 0 984 246.66667"
   sodipodi:docname="1gmsvrugq7b6f.pdf"
   xmlns:inkscape="http://www.inkscape.org/namespaces/inkscape"
   xmlns:sodipodi="http://sodipodi.sourceforge.net/DTD/sodipodi-0.dtd"
   xmlns="http://www.w3.org/2000/svg"
   xmlns:svg="http://www.w3.org/2000/svg">
  <defs
     id="defs1">
    <clipPath
       clipPathUnits="userSpaceOnUse"
       id="clipPath15">
      <path
         d="m 53,109 h 7.719 v 11 H 53 Z"
         transform="translate(-51.948296,-116.3217)"
         id="path15" />
    </clipPath>
    <clipPath
       clipPathUnits="userSpaceOnUse"
       id="clipPath19">
      <path
         d="m 53,146 h 4 v 7.602 h -4 z"
         transform="translate(-52.79986,-153.92398)"
         id="path19" />
    </clipPath>
    <clipPath
       clipPathUnits="userSpaceOnUse"
       id="clipPath37">
      <path
         d="m 176,146 h 6 v 7.602 h -6 z"
         transform="translate(-175.67986,-153.92398)"
         id="path37" />
    </clipPath>
  </defs>
  <sodipodi:namedview
     id="namedview1"
     pagecolor="#ffffff"
     bordercolor="#999999"
     borderopacity="1"
     inkscape:showpageshadow="0"
     inkscape:pageopacity="0"
     inkscape:pagecheckerboard="0"
     inkscape:deskcolor="#d1d1d1">
    <inkscape:page
       x="0"
       y="0"
       id="page1"
       width="984"
       height="246.66667"
       margin="0"
       bleed="0" />
  </sodipodi:namedview>
  <g
     id="g1"
     inkscape:groupmode="layer"
     inkscape:label="">
    <path
       id="path1"
       d="m 0,69.816 33.512,27.93"
       style="fill:none;stroke:#000000;stroke-width:0.6144;stroke-linecap:square;stroke-linejoin:miter;stroke-miterlimit:3.25;stroke-dasharray:none;stroke-opacity:1"
       transform="scale(1.3333333)" />
    <path
       id="path2"
       d="m 19.332,85.926 -6.582,-2.574 2.863,-3.43 z"
       style="fill:#000000;fill-opacity:1;fill-rule:evenodd;stroke:none"
       transform="scale(1.3333333)" />
    <path
       id="path3"
       d="m 7.95714,-6.2352401 c 0.1875,0.375 0.2578125,0.8085938 0.2226562,1.3125 0,0.3398438 -0.070312,0.8789063 -0.2226562,1.6289063 h -5.4375 c -0.140625,0.75 -0.082031,1.359375 0.1523438,1.8046875 0.2343749,0.4570312 0.703125,0.67968749 1.4062499,0.67968749 0.6328125,0 1.2070313,-0.21093749 1.6875,-0.64453129 0.2695313,-0.2460937 0.4921875,-0.5273437 0.6445313,-0.8671875 h 1.2304687 c -0.09375,0.28125 -0.2695312,0.5742188 -0.515625,0.9140625 -0.2578125,0.328125 -0.515625,0.60937504 -0.7851562,0.80859379 -0.4453125,0.38671875 -0.9726563,0.62109375 -1.5703125,0.75 -0.3046875,0.0703125 -0.6679688,0.1171875 -1.03125,0.1171875 -0.9257813,0 -1.640625,-0.33984375 -2.1328125,-1.0078125 C 1.1016712,-1.4071151 0.9962025,-2.3563338 1.2422962,-3.5516463 c 0.2578125,-1.1953125 0.7851563,-2.15625 1.59375,-2.90625 0.7851563,-0.7382813 1.7109375,-1.1015625 2.7539063,-1.1015625 0.5273437,0 1.0078125,0.1289062 1.4648437,0.3632812 0.4335938,0.2460938 0.7265625,0.5742188 0.9023438,0.9609375 z m -1.078125,1.9453125 c 0.058594,-0.5390625 0.046875,-0.9609375 -0.082031,-1.2890625 -0.2109375,-0.5976562 -0.7148437,-0.9023437 -1.5,-0.9023437 -0.5859375,0 -1.1015625,0.2109375 -1.5703124,0.6210937 -0.4804688,0.4101563 -0.7968751,0.9375 -0.9609375,1.5703125 z m 0,0"
       style="fill:#000000;fill-opacity:1;fill-rule:nonzero;stroke:none"
       aria-label="e"
       transform="matrix(1.3333333,0,0,1.3333333,8.45298,133.80193)" />
    <path
       id="path4"
       d="M 0,125.672 33.512,97.746"
       style="fill:none;stroke:#000000;stroke-width:0.6144;stroke-linecap:square;stroke-linejoin:miter;stroke-miterlimit:3.25;stroke-dasharray:none;stroke-opacity:1"
       transform="scale(1.3333333)" />
    <path
       id="path5"
       d="m 14.184,113.855 6.578,-2.574 -2.86,-3.433 z"
       style="fill:#000000;fill-opacity:1;fill-rule:evenodd;stroke:none"
       transform="scale(1.3333333)" />
    <path
       id="path6"
       d="m 7.9563051,-6.2338021 c 0.1875,0.375 0.2578125,0.8085937 0.2226563,1.3125 0,0.3398437 -0.070312,0.8789062 -0.2226563,1.6289062 h -5.4375 c -0.140625,0.75 -0.082031,1.359375 0.1523438,1.8046875 0.234375,0.4570313 0.703125,0.67968753 1.40625,0.67968753 0.6328125,0 1.2070312,-0.21093753 1.6875,-0.64453123 0.2695312,-0.2460938 0.4921875,-0.5273438 0.6445312,-0.8671875 h 1.2304688 c -0.09375,0.28125 -0.2695313,0.5742187 -0.515625,0.9140625 -0.2578125,0.328125 -0.515625,0.60937498 -0.7851563,0.80859373 -0.4453125,0.38671875 -0.9726562,0.62109375 -1.5703125,0.75 -0.3046875,0.0703125 -0.6679687,0.1171875 -1.03125,0.1171875 -0.9257812,0 -1.640625,-0.33984375 -2.1328125,-1.0078125 C 1.1008364,-1.4056771 0.99536763,-2.3548959 1.2414614,-3.5502084 c 0.2578125,-1.1953125 0.7851562,-2.15625 1.59375,-2.90625 0.7851562,-0.7382812 1.7109375,-1.1015625 2.7539062,-1.1015625 0.5273438,0 1.0078125,0.1289063 1.4648438,0.3632813 0.4335937,0.2460937 0.7265625,0.5742187 0.9023437,0.9609375 z m -1.078125,1.9453125 c 0.058594,-0.5390625 0.046875,-0.9609375 -0.082031,-1.2890625 -0.2109375,-0.5976563 -0.7148438,-0.9023438 -1.5,-0.9023438 -0.5859375,0 -1.1015625,0.2109375 -1.5703125,0.6210938 -0.4804688,0.4101562 -0.796875,0.9375 -0.9609375,1.5703125 z m 0,0"
       style="fill:#000000;fill-opacity:1;fill-rule:nonzero;stroke:none"
       aria-label="e"
       transform="matrix(1.3333333,0,0,1.3333333,25.227531,171.0383)" />
    <path
       id="path7"
       d="M 111.711,69.816 78.195,97.746"
       style="fill:none;stroke:#000000;stroke-width:0.6144;stroke-linecap:square;stroke-linejoin:miter;stroke-miterlimit:3.25;stroke-dasharray:none;stroke-opacity:1"
       transform="scale(1.3333333)" />
    <path
       id="path8"
       d="m 97.527,81.637 -6.578,2.574 2.86,3.434 z"
       style="fill:#000000;fill-opacity:1;fill-rule:evenodd;stroke:none"
       transform="scale(1.3333333)" />
    <path
       id="path9"
       d="m 7.9570651,-6.2346459 c 0.1875,0.375 0.2578125,0.8085937 0.2226562,1.3125 0,0.3398437 -0.070312,0.8789062 -0.2226562,1.6289062 h -5.4375 c -0.140625,0.75 -0.082031,1.359375 0.1523437,1.8046875 0.234375,0.4570313 0.703125,0.67968751 1.40625,0.67968751 0.6328125,0 1.2070313,-0.21093751 1.6875,-0.64453121 0.2695313,-0.2460938 0.4921875,-0.5273438 0.6445313,-0.8671875 h 1.2304687 c -0.09375,0.28125 -0.2695312,0.5742187 -0.515625,0.9140625 -0.2578125,0.328125 -0.515625,0.60937496 -0.7851562,0.80859371 -0.4453125,0.38671875 -0.9726563,0.62109375 -1.5703125,0.75 -0.3046875,0.0703125 -0.6679688,0.1171875 -1.03125,0.1171875 -0.9257813,0 -1.640625,-0.33984375 -2.1328125,-1.0078125 C 1.1015963,-1.4065209 0.99612756,-2.3557397 1.2422213,-3.5510522 c 0.2578125,-1.1953125 0.7851563,-2.15625 1.59375,-2.90625 0.7851563,-0.7382812 1.7109375,-1.1015625 2.7539063,-1.1015625 0.5273437,0 1.0078125,0.1289063 1.4648437,0.3632813 0.4335938,0.2460937 0.7265625,0.5742187 0.9023438,0.9609375 z m -1.078125,1.9453125 c 0.058594,-0.5390625 0.046875,-0.9609375 -0.082031,-1.2890625 -0.2109375,-0.5976563 -0.7148437,-0.9023438 -1.5,-0.9023438 -0.5859375,0 -1.1015625,0.2109375 -1.5703125,0.6210938 -0.4804687,0.4101562 -0.796875,0.9375 -0.9609375,1.5703125 z m 0,0"
       style="fill:#000000;fill-opacity:1;fill-rule:nonzero;stroke:none"
       aria-label="e"
       transform="matrix(1.3333333,0,0,1.3333333,112.7148,103.13708)" />
    <path
       id="path10"
       d="M 111.711,125.672 78.195,97.746"
       style="fill:none;stroke:#000000;stroke-width:0.6144;stroke-linecap:square;stroke-linejoin:miter;stroke-miterlimit:3.25;stroke-dasharray:none;stroke-opacity:1"
       transform="scale(1.3333333)" />
    <path
       id="path11"
       d="m 92.379,109.562 6.578,2.575 -2.859,3.433 z"
       style="fill:#000000;fill-opacity:1;fill-rule:evenodd;stroke:none"
       transform="scale(1.3333333)" />
    <path
       id="path12"
       d="m 7.9562302,-6.233208 c 0.1875,0.375 0.2578125,0.8085937 0.2226562,1.3125 0,0.3398437 -0.070312,0.8789062 -0.2226562,1.6289062 h -5.4375 c -0.140625,0.75 -0.082031,1.359375 0.1523437,1.8046875 0.234375,0.4570313 0.703125,0.67968755 1.40625,0.67968755 0.6328125,0 1.2070313,-0.21093755 1.6875,-0.64453125 0.2695313,-0.2460938 0.4921875,-0.5273438 0.6445313,-0.8671875 h 1.2304687 c -0.09375,0.28125 -0.2695312,0.5742187 -0.515625,0.9140625 -0.2578125,0.328125 -0.515625,0.609375 -0.7851562,0.80859375 -0.4453125,0.38671875 -0.9726563,0.62109375 -1.5703125,0.75 -0.3046875,0.0703125 -0.6679688,0.1171875 -1.03125,0.1171875 -0.9257813,0 -1.640625,-0.33984375 -2.1328125,-1.0078125 C 1.1007614,-1.405083 0.99529269,-2.3543018 1.2413864,-3.5496143 c 0.2578125,-1.1953125 0.7851563,-2.15625 1.59375,-2.90625 0.7851563,-0.7382812 1.7109375,-1.1015625 2.7539063,-1.1015625 0.5273437,0 1.0078125,0.1289063 1.4648437,0.3632813 0.4335938,0.2460937 0.7265625,0.5742187 0.9023438,0.9609375 z m -1.078125,1.9453125 c 0.058594,-0.5390625 0.046875,-0.9609375 -0.082031,-1.2890625 -0.2109375,-0.5976563 -0.7148437,-0.9023438 -1.5,-0.9023438 -0.5859375,0 -1.1015625,0.2109375 -1.5703125,0.6210938 -0.4804687,0.4101562 -0.796875,0.9375 -0.9609375,1.5703125 z m 0,0"
       style="fill:#000000;fill-opacity:1;fill-rule:nonzero;stroke:none"
       aria-label="e"
       transform="matrix(1.3333333,0,0,1.3333333,129.48935,140.37344)" />
    <path
       id="path13"
       d="m 78.195,97.746 -0.558,-0.484 -0.559,-0.422 -0.558,-0.313 -0.559,-0.16 -0.559,0.008 -0.558,0.18 -0.559,0.328 -0.558,0.433 -0.559,0.485 -0.559,0.48 -0.558,0.414 -0.559,0.297 -0.558,0.141 -0.559,-0.028 -0.559,-0.199 -0.558,-0.34 -0.559,-0.441 -0.558,-0.488 -0.559,-0.473 -0.559,-0.406 -0.558,-0.278 -0.555,-0.125 -0.558,0.047 -0.559,0.215 -0.559,0.356 -0.558,0.449 -0.559,0.488 -0.558,0.473 -0.559,0.39 -0.559,0.266 -0.558,0.106 -0.559,-0.071 -0.558,-0.23 -0.559,-0.367 -0.559,-0.457 -0.558,-0.493 -0.559,-0.461 -0.558,-0.378 -0.559,-0.25 -0.559,-0.086 -0.558,0.086 -0.559,0.25 -0.558,0.378 -0.559,0.461 -0.559,0.493 -0.558,0.457 -0.559,0.367 -0.558,0.23 -0.559,0.071 -0.558,-0.106 -0.559,-0.266 -0.559,-0.39 -0.558,-0.473 -0.559,-0.488 -0.558,-0.449 -0.559,-0.356 -0.559,-0.215 -0.558,-0.047 -0.559,0.125 -0.558,0.278 -0.559,0.406 -0.559,0.473 -0.558,0.488 -0.559,0.441 -0.558,0.34 -0.559,0.199 -0.559,0.028 -0.558,-0.141 -0.559,-0.297 -0.558,-0.414 -0.559,-0.48 -0.559,-0.485 -0.558,-0.433 -0.559,-0.328 -0.558,-0.18 -0.559,-0.008 -0.558,0.16 -0.559,0.313 -0.559,0.422 -0.558,0.484"
       style="fill:none;stroke:#000000;stroke-width:0.6144;stroke-linecap:square;stroke-linejoin:miter;stroke-miterlimit:3.25;stroke-dasharray:none;stroke-opacity:1"
       transform="scale(1.3333333)" />
    <path
       id="path14"
       d="m 8.1806113,-7.0912322 -4.1718751,7.0898437 v 0.140625 c 0,0.0820313 0.011719,0.1640625 0.011719,0.24609375 0,0.0820313 0,0.1640625 0,0.24609375 0,0.1171875 0,0.2578125 -0.011719,0.4101563 -0.011719,0.1640625 -0.046875,0.328125 -0.070313,0.5039062 C 3.9149862,1.709549 3.8681112,1.8736115 3.832955,2.0493928 3.7743612,2.2134553 3.7040487,2.365799 3.6220175,2.4829865 3.5399862,2.6236115 3.4462362,2.7290803 3.3290487,2.8111115 3.2118612,2.8931428 3.082955,2.9400178 2.9188925,2.9400178 c -0.1289063,0 -0.234375,-0.023437 -0.328125,-0.082031 -0.1054688,-0.058594 -0.1875,-0.1054687 -0.2460938,-0.1875 C 2.2743612,2.5884553 2.2157675,2.4829865 2.19233,2.3775178 2.145455,2.272049 2.1337362,2.1431428 2.1337362,2.037674 c 0,-0.2226562 0.023437,-0.4101562 0.058594,-0.5859375 C 2.2274862,1.2759553 2.2743612,1.1118928 2.3446737,0.94783025 2.3915487,0.7954865 2.4618612,0.631424 2.5438925,0.4673615 2.6259237,0.31501775 2.707955,0.1392365 2.801705,-0.05998225 L 1.6884237,-7.0912322 H 2.94233 l 0.796875,5.6015625 3.2226562,-5.6015625 z m 0,0"
       style="fill:#000000;fill-opacity:1;fill-rule:nonzero;stroke:none"
       aria-label="γ"
       transform="matrix(1.3333333,0,0,1.3333333,69.264393,155.0956)"
       clip-path="url(#clipPath15)" />
    <path
       id="path16"
       d="m 35.969,97.746 c 0,0.652 -0.258,1.277 -0.719,1.738 -0.461,0.461 -1.086,0.719 -1.738,0.719 -0.653,0 -1.278,-0.258 -1.739,-0.719 -0.461,-0.461 -0.718,-1.086 -0.718,-1.738 0,-0.652 0.257,-1.277 0.718,-1.738 0.461,-0.461 1.086,-0.719 1.739,-0.719 0.652,0 1.277,0.258 1.738,0.719 0.461,0.461 0.719,1.086 0.719,1.738 z"
       style="fill:#000000;fill-opacity:1;fill-rule:evenodd;stroke:none"
       transform="scale(1.3333333)" />
    <path
       id="path17"
       d="m 80.652,97.746 c 0,0.652 -0.257,1.277 -0.718,1.738 -0.461,0.461 -1.086,0.719 -1.739,0.719 -0.652,0 -1.277,-0.258 -1.738,-0.719 -0.461,-0.461 -0.719,-1.086 -0.719,-1.738 0,-0.652 0.258,-1.277 0.719,-1.738 0.461,-0.461 1.086,-0.719 1.738,-0.719 0.653,0 1.278,0.258 1.739,0.719 0.461,0.461 0.718,1.086 0.718,1.738 z"
       style="fill:#000000;fill-opacity:1;fill-rule:evenodd;stroke:none"
       transform="scale(1.3333333)" />
    <path
       id="path18"
       d="m 1.0653764,-5.5909692 v -0.75 c 0.7265625,-0.070312 1.21875,-0.1992187 1.5117187,-0.3515625 0.28125,-0.1640625 0.4921875,-0.5507812 0.6210938,-1.1601562 h 0.796875 v 7.85156246 H 2.9286576 V -5.5909692 Z m 0,0"
       style="fill:#000000;fill-opacity:1;fill-rule:nonzero;stroke:none"
       aria-label="1"
       transform="matrix(1.3333333,0,0,1.3333333,70.399811,205.23197)"
       clip-path="url(#clipPath19)" />
    <path
       id="path20"
       d="m 122.879,69.816 55.855,5.586"
       style="fill:none;stroke:#000000;stroke-width:0.6144;stroke-linecap:square;stroke-linejoin:miter;stroke-miterlimit:3.25;stroke-dasharray:none;stroke-opacity:1"
       transform="scale(1.3333333)" />
    <path
       id="path21"
       d="m 154.141,72.945 -6.891,1.555 0.445,-4.445 z"
       style="fill:#000000;fill-opacity:1;fill-rule:evenodd;stroke:none"
       transform="scale(1.3333333)" />
    <path
       id="path22"
       d="m 7.9567152,-6.2330572 c 0.1875,0.375 0.2578125,0.8085938 0.2226562,1.3125 0,0.3398438 -0.070312,0.8789063 -0.2226562,1.6289063 h -5.4375 c -0.140625,0.75 -0.082031,1.359375 0.1523437,1.8046875 0.234375,0.4570312 0.703125,0.67968746 1.40625,0.67968746 0.6328125,0 1.2070313,-0.21093746 1.6875,-0.64453126 0.2695313,-0.2460937 0.4921875,-0.5273437 0.6445313,-0.8671875 h 1.2304687 c -0.09375,0.28125 -0.2695312,0.5742188 -0.515625,0.9140625 -0.2578125,0.328125 -0.515625,0.60937501 -0.7851562,0.80859376 -0.4453125,0.38671875 -0.9726563,0.62109375 -1.5703125,0.75 -0.3046875,0.0703125 -0.6679688,0.1171875 -1.03125,0.1171875 -0.9257813,0 -1.640625,-0.33984375 -2.1328125,-1.0078125 C 1.1012464,-1.4049322 0.99577769,-2.3541509 1.2418714,-3.5494634 c 0.2578125,-1.1953125 0.7851563,-2.15625 1.59375,-2.90625 0.7851563,-0.7382813 1.7109375,-1.1015625 2.7539063,-1.1015625 0.5273437,0 1.0078125,0.1289062 1.4648437,0.3632812 0.4335938,0.2460938 0.7265625,0.5742188 0.9023438,0.9609375 z m -1.078125,1.9453125 c 0.058594,-0.5390625 0.046875,-0.9609375 -0.082031,-1.2890625 -0.2109375,-0.5976562 -0.7148437,-0.9023437 -1.5,-0.9023437 -0.5859375,0 -1.1015625,0.2109375 -1.5703125,0.6210937 -0.4804687,0.4101563 -0.796875,0.9375 -0.9609375,1.5703125 z m 0,0"
       style="fill:#000000;fill-opacity:1;fill-rule:nonzero;stroke:none"
       aria-label="e"
       transform="matrix(1.3333333,0,0,1.3333333,194.4262,121.52559)" />
    <path
       id="path23"
       d="m 122.879,125.672 55.855,-5.586"
       style="fill:none;stroke:#000000;stroke-width:0.6144;stroke-linecap:square;stroke-linejoin:miter;stroke-miterlimit:3.25;stroke-dasharray:none;stroke-opacity:1"
       transform="scale(1.3333333)" />
    <path
       id="path24"
       d="m 147.473,123.215 6.89,1.555 -0.445,-4.446 z"
       style="fill:#000000;fill-opacity:1;fill-rule:evenodd;stroke:none"
       transform="scale(1.3333333)" />
    <path
       id="path25"
       d="m 7.9564734,-6.2345701 c 0.1875,0.375 0.2578125,0.8085938 0.2226563,1.3125 0,0.3398438 -0.070312,0.8789063 -0.2226563,1.6289063 h -5.4375 c -0.140625,0.75 -0.082031,1.359375 0.1523438,1.8046875 0.234375,0.4570312 0.703125,0.67968749 1.40625,0.67968749 0.6328125,0 1.2070312,-0.21093749 1.6875,-0.64453129 0.2695312,-0.2460937 0.4921875,-0.5273437 0.6445312,-0.8671875 h 1.2304688 c -0.09375,0.28125 -0.2695313,0.5742188 -0.515625,0.9140625 -0.2578125,0.328125 -0.515625,0.60937504 -0.7851563,0.80859379 -0.4453125,0.38671875 -0.9726562,0.62109375 -1.5703125,0.75 -0.3046875,0.0703125 -0.6679687,0.1171875 -1.03125,0.1171875 -0.9257812,0 -1.640625,-0.33984375 -2.1328125,-1.0078125 C 1.1010047,-1.4064451 0.99553594,-2.3556638 1.2416297,-3.5509763 c 0.2578125,-1.1953125 0.7851562,-2.15625 1.59375,-2.90625 0.7851562,-0.7382813 1.7109375,-1.1015625 2.7539062,-1.1015625 0.5273438,0 1.0078125,0.1289062 1.4648438,0.3632812 0.4335937,0.2460938 0.7265625,0.5742188 0.9023437,0.9609375 z m -1.078125,1.9453125 c 0.058594,-0.5390625 0.046875,-0.9609375 -0.082031,-1.2890625 -0.2109375,-0.5976562 -0.7148438,-0.9023437 -1.5,-0.9023437 -0.5859375,0 -1.1015625,0.2109375 -1.5703125,0.6210937 -0.4804688,0.4101563 -0.796875,0.9375 -0.9609375,1.5703125 z m 0,0"
       style="fill:#000000;fill-opacity:1;fill-rule:nonzero;stroke:none"
       aria-label="e"
       transform="matrix(1.3333333,0,0,1.3333333,196.7234,188.55104)" />
    <path
       id="path26"
       d="m 234.59,69.816 -55.856,5.586"
       style="fill:none;stroke:#000000;stroke-width:0.6144;stroke-linecap:square;stroke-linejoin:miter;stroke-miterlimit:3.25;stroke-dasharray:none;stroke-opacity:1"
       transform="scale(1.3333333)" />
    <path
       id="path27"
       d="m 209.996,72.277 -6.891,-1.554 0.446,4.445 z"
       style="fill:#000000;fill-opacity:1;fill-rule:evenodd;stroke:none"
       transform="scale(1.3333333)" />
    <path
       id="path28"
       d="m 7.9566624,-6.233878 c 0.1875,0.375 0.2578125,0.8085937 0.2226562,1.3125 0,0.3398437 -0.070312,0.8789062 -0.2226562,1.6289062 h -5.4375 c -0.140625,0.75 -0.082031,1.359375 0.1523437,1.8046875 0.234375,0.4570313 0.703125,0.67968755 1.40625,0.67968755 0.6328125,0 1.2070313,-0.21093755 1.6875,-0.64453125 0.2695313,-0.2460938 0.4921875,-0.5273438 0.6445313,-0.8671875 h 1.2304687 c -0.09375,0.28125 -0.2695312,0.5742187 -0.515625,0.9140625 -0.2578125,0.328125 -0.515625,0.609375 -0.7851562,0.80859375 -0.4453125,0.38671875 -0.9726563,0.62109375 -1.5703125,0.75 -0.3046875,0.0703125 -0.6679688,0.1171875 -1.03125,0.1171875 -0.9257813,0 -1.640625,-0.33984375 -2.1328125,-1.0078125 C 1.1011936,-1.405753 0.99572488,-2.3549718 1.2418186,-3.5502843 c 0.2578125,-1.1953125 0.7851563,-2.15625 1.59375,-2.90625 0.7851563,-0.7382812 1.7109375,-1.1015625 2.7539063,-1.1015625 0.5273437,0 1.0078125,0.1289063 1.4648437,0.3632813 0.4335938,0.2460937 0.7265625,0.5742187 0.9023438,0.9609375 z m -1.078125,1.9453125 c 0.058594,-0.5390625 0.046875,-0.9609375 -0.082031,-1.2890625 -0.2109375,-0.5976563 -0.7148437,-0.9023438 -1.5,-0.9023438 -0.5859375,0 -1.1015625,0.2109375 -1.5703125,0.6210938 -0.4804687,0.4101562 -0.796875,0.9375 -0.9609375,1.5703125 z m 0,0"
       style="fill:#000000;fill-opacity:1;fill-rule:nonzero;stroke:none"
       aria-label="e"
       transform="matrix(1.3333333,0,0,1.3333333,268.89893,85.624337)" />
    <path
       id="path29"
       d="m 234.59,125.672 -55.856,-5.586"
       style="fill:none;stroke:#000000;stroke-width:0.6144;stroke-linecap:square;stroke-linejoin:miter;stroke-miterlimit:3.25;stroke-dasharray:none;stroke-opacity:1"
       transform="scale(1.3333333)" />
    <path
       id="path30"
       d="m 203.328,122.547 6.891,-1.555 -0.446,4.446 z"
       style="fill:#000000;fill-opacity:1;fill-rule:evenodd;stroke:none"
       transform="scale(1.3333333)" />
    <path
       id="path31"
       d="m 7.9564206,-6.2353909 c 0.1875,0.375 0.2578125,0.8085938 0.2226563,1.3125 0,0.3398438 -0.070312,0.8789063 -0.2226563,1.6289063 h -5.4375 c -0.140625,0.75 -0.082031,1.359375 0.1523438,1.8046875 0.234375,0.4570312 0.703125,0.67968748 1.40625,0.67968748 0.6328125,0 1.2070312,-0.21093748 1.6875,-0.64453128 0.2695312,-0.2460937 0.4921875,-0.5273437 0.6445312,-0.8671875 h 1.2304688 c -0.09375,0.28125 -0.2695313,0.5742188 -0.515625,0.9140625 -0.2578125,0.328125 -0.515625,0.60937503 -0.7851563,0.80859378 -0.4453125,0.38671875 -0.9726562,0.62109375 -1.5703125,0.75 -0.3046875,0.0703125 -0.6679687,0.1171875 -1.03125,0.1171875 -0.9257812,0 -1.640625,-0.33984375 -2.1328125,-1.0078125 C 1.1009519,-1.4072659 0.99548313,-2.3564846 1.2415769,-3.5517971 c 0.2578125,-1.1953125 0.7851562,-2.15625 1.59375,-2.90625 0.7851562,-0.7382813 1.7109375,-1.1015625 2.7539062,-1.1015625 0.5273438,0 1.0078125,0.1289062 1.4648438,0.3632812 0.4335937,0.2460938 0.7265625,0.5742188 0.9023437,0.9609375 z m -1.078125,1.9453125 c 0.058594,-0.5390625 0.046875,-0.9609375 -0.082031,-1.2890625 -0.2109375,-0.5976562 -0.7148438,-0.9023437 -1.5,-0.9023437 -0.5859375,0 -1.1015625,0.2109375 -1.5703125,0.6210937 -0.4804688,0.4101563 -0.796875,0.9375 -0.9609375,1.5703125 z m 0,0"
       style="fill:#000000;fill-opacity:1;fill-rule:nonzero;stroke:none"
       aria-label="e"
       transform="matrix(1.3333333,0,0,1.3333333,271.19613,152.64979)" />
    <path
       id="path32"
       d="m 178.734,120.086 0.485,-0.559 0.422,-0.558 0.312,-0.559 0.16,-0.558 -0.008,-0.559 -0.179,-0.559 -0.328,-0.558 -0.434,-0.559 -0.484,-0.558 -0.481,-0.559 -0.414,-0.555 -0.297,-0.558 -0.14,-0.559 0.027,-0.558 0.195,-0.559 0.344,-0.559 0.441,-0.558 0.489,-0.559 0.472,-0.558 0.403,-0.559 0.281,-0.559 0.125,-0.558 -0.047,-0.559 -0.215,-0.558 -0.355,-0.559 -0.449,-0.559 -0.489,-0.558 -0.472,-0.559 -0.391,-0.558 -0.266,-0.559 -0.105,-0.559 0.07,-0.558 0.231,-0.559 0.367,-0.558 0.457,-0.559 0.488,-0.559 0.465,-0.558 0.379,-0.559 0.25,-0.558 0.086,-0.559 -0.086,-0.558 -0.25,-0.559 -0.379,-0.559 -0.465,-0.558 -0.488,-0.559 -0.457,-0.558 -0.367,-0.559 -0.231,-0.559 -0.07,-0.558 0.105,-0.559 0.266,-0.558 0.391,-0.559 0.472,-0.559 0.489,-0.558 0.449,-0.559 0.355,-0.558 0.215,-0.559 0.047,-0.559 -0.125,-0.558 -0.281,-0.559 -0.403,-0.558 -0.472,-0.559 -0.489,-0.559 -0.441,-0.558 -0.344,-0.559 -0.195,-0.558 -0.027,-0.559 0.14,-0.559 0.297,-0.558 0.414,-0.559 0.481,-0.558 0.484,-0.559 0.434,-0.559 0.328,-0.558 0.179,-0.559 0.008,-0.558 -0.16,-0.559 -0.312,-0.558 -0.422,-0.559 -0.485,-0.559"
       style="fill:none;stroke:#000000;stroke-width:0.6144;stroke-linecap:square;stroke-linejoin:miter;stroke-miterlimit:3.25;stroke-dasharray:none;stroke-opacity:1"
       transform="scale(1.3333333)" />
    <path
       id="path33"
       d="m 8.1786151,-7.0911576 -4.171875,7.08984373 v 0.140625 c 0,0.0820313 0.011719,0.1640625 0.011719,0.24609375 0,0.0820313 0,0.1640625 0,0.24609375 0,0.1171875 0,0.2578125 -0.011719,0.41015627 -0.011719,0.1640625 -0.046875,0.328125 -0.070312,0.5039062 -0.023437,0.1640625 -0.070312,0.328125 -0.1054688,0.5039063 -0.058594,0.1640625 -0.1289062,0.3164062 -0.2109375,0.4335937 -0.082031,0.140625 -0.1757812,0.2460938 -0.2929687,0.328125 -0.1171875,0.082031 -0.2460938,0.1289063 -0.4101563,0.1289063 -0.1289062,0 -0.234375,-0.023437 -0.328125,-0.082031 -0.1054687,-0.058594 -0.1875,-0.1054687 -0.2460937,-0.1875 -0.070312,-0.082031 -0.1289063,-0.1875 -0.1523438,-0.2929687 -0.046875,-0.1054688 -0.058594,-0.234375 -0.058594,-0.3398438 0,-0.2226562 0.023437,-0.4101562 0.058594,-0.5859375 0.035156,-0.1757815 0.082031,-0.339844 0.1523433,-0.50390652 0.046875,-0.15234375 0.1171875,-0.31640625 0.1992187,-0.48046875 0.082031,-0.15234375 0.1640625,-0.328125 0.2578125,-0.52734375 L 1.6864276,-7.0911576 h 1.2539062 l 0.796875,5.6015625 3.2226563,-5.6015625 z m 0,0"
       style="fill:#000000;fill-opacity:1;fill-rule:nonzero;stroke:none"
       aria-label="γ"
       transform="matrix(1.3333333,0,0,1.3333333,220.8569,137.08769)" />
    <path
       id="path34"
       d="m 181.191,75.402 c 0,0.653 -0.257,1.278 -0.718,1.739 -0.461,0.461 -1.086,0.718 -1.739,0.718 -0.652,0 -1.277,-0.257 -1.738,-0.718 -0.461,-0.461 -0.719,-1.086 -0.719,-1.739 0,-0.652 0.258,-1.277 0.719,-1.738 0.461,-0.461 1.086,-0.719 1.738,-0.719 0.653,0 1.278,0.258 1.739,0.719 0.461,0.461 0.718,1.086 0.718,1.738 z"
       style="fill:#000000;fill-opacity:1;fill-rule:evenodd;stroke:none"
       transform="scale(1.3333333)" />
    <path
       id="path35"
       d="m 181.191,120.086 c 0,0.652 -0.257,1.277 -0.718,1.738 -0.461,0.461 -1.086,0.719 -1.739,0.719 -0.652,0 -1.277,-0.258 -1.738,-0.719 -0.461,-0.461 -0.719,-1.086 -0.719,-1.738 0,-0.652 0.258,-1.277 0.719,-1.738 0.461,-0.461 1.086,-0.719 1.738,-0.719 0.653,0 1.278,0.258 1.739,0.719 0.461,0.461 0.718,1.086 0.718,1.738 z"
       style="fill:#000000;fill-opacity:1;fill-rule:evenodd;stroke:none"
       transform="scale(1.3333333)" />
    <path
       id="path36"
       d="M 0.35041544,-0.00112544 C 0.38557169,-0.68081294 0.51447794,-1.2667504 0.76057169,-1.7706567 1.0183842,-2.2745629 1.4871342,-2.7315942 2.2019779,-3.1417504 l 1.0546875,-0.6210938 c 0.4804688,-0.2695312 0.8085938,-0.5039062 0.9960938,-0.6914062 0.3046875,-0.3046875 0.4570312,-0.65625 0.4570312,-1.0546875 0,-0.4453125 -0.140625,-0.8203125 -0.421875,-1.0898438 -0.2695312,-0.2695312 -0.6445312,-0.4101562 -1.0898437,-0.4101562 -0.6914063,0 -1.1601563,0.2578125 -1.4179688,0.7734375 -0.140625,0.28125 -0.2109375,0.65625 -0.234375,1.1484375 H 0.53791544 c 0.0117188,-0.6914063 0.140625,-1.2421875 0.38671875,-1.6875 0.43359371,-0.75 1.18359371,-1.1367188 2.27343751,-1.1367188 0.9023437,0 1.5585937,0.234375 1.9804687,0.7382813 0.421875,0.4804687 0.6210938,1.0195312 0.6210938,1.6171875 0,0.6328125 -0.2226563,1.171875 -0.6679688,1.6289062 -0.2578125,0.2578125 -0.7148437,0.5742188 -1.3710937,0.9492188 l -0.7617188,0.4101562 c -0.3632812,0.2109375 -0.6445312,0.3867188 -0.8554687,0.5742188 -0.3632813,0.3164062 -0.5976563,0.6679687 -0.6914063,1.05468746 h 4.3125 v 0.9375 z m 0,0"
       style="fill:#000000;fill-opacity:1;fill-rule:nonzero;stroke:none"
       aria-label="2"
       transform="matrix(1.3333333,0,0,1.3333333,234.23981,205.23197)"
       clip-path="url(#clipPath37)" />
  </g>
</svg>
