<?xml version="1.0" encoding="UTF-8" standalone="no"?>
<!-- Created with Inkscape (http://www.inkscape.org/) -->

<svg
   version="1.1"
   id="svg1"
   width="984"
   height="189.33333"
   viewBox="0 0 984 189.33333"
   sodipodi:docname="1ko4431t6x2qv.pdf"
   xmlns:inkscape="http://www.inkscape.org/namespaces/inkscape"
   xmlns:sodipodi="http://sodipodi.sourceforge.net/DTD/sodipodi-0.dtd"
   xmlns="http://www.w3.org/2000/svg"
   xmlns:svg="http://www.w3.org/2000/svg">
  <defs
     id="defs1">
    <clipPath
       clipPathUnits="userSpaceOnUse"
       id="clipPath2">
      <path
         d="M 156.961,44 H 196 v 34 h -39.039 z"
         id="path2" />
    </clipPath>
    <clipPath
       clipPathUnits="userSpaceOnUse"
       id="clipPath4">
      <path
         d="M 156.961,44 H 196 v 34 h -39.039 z"
         id="path4" />
    </clipPath>
    <clipPath
       clipPathUnits="userSpaceOnUse"
       id="clipPath7">
      <path
         d="M 156.961,76 H 196 v 34 h -39.039 z"
         id="path7" />
    </clipPath>
    <clipPath
       clipPathUnits="userSpaceOnUse"
       id="clipPath9">
      <path
         d="M 156.961,76 H 196 v 34 h -39.039 z"
         id="path9" />
    </clipPath>
    <clipPath
       clipPathUnits="userSpaceOnUse"
       id="clipPath23">
      <path
         d="m 220,132 h 4 v 9.121 h -4 z"
         transform="translate(-217.49608,-141.4054)"
         id="path23" />
    </clipPath>
    <clipPath
       clipPathUnits="userSpaceOnUse"
       id="clipPath27">
      <path
         d="m 305,68 h 10.84 V 80 H 305 Z"
         transform="translate(-305.28638,-79.899864)"
         id="path27" />
    </clipPath>
    <clipPath
       clipPathUnits="userSpaceOnUse"
       id="clipPath31">
      <path
         d="m 319,100 h 11.48 v 12 H 319 Z"
         transform="translate(-319.80919,-111.9726)"
         id="path31" />
    </clipPath>
    <clipPath
       clipPathUnits="userSpaceOnUse"
       id="clipPath40">
      <path
         d="m 358,84 h 9.441 V 99 H 358 Z"
         transform="translate(-358.04578,-98.240702)"
         id="path40" />
    </clipPath>
    <clipPath
       clipPathUnits="userSpaceOnUse"
       id="clipPath45">
      <path
         d="m 358,131 h 5 v 10.121 h -5 z"
         transform="translate(-358.61609,-141.4054)"
         id="path45" />
    </clipPath>
    <clipPath
       clipPathUnits="userSpaceOnUse"
       id="clipPath60">
      <path
         d="m 488,90 h 7.84 v 12 H 488 Z"
         transform="translate(-486.33669,-98.240702)"
         id="path60" />
    </clipPath>
    <clipPath
       clipPathUnits="userSpaceOnUse"
       id="clipPath63">
      <path
         d="m 513,59 h 8.52 V 71 H 513 Z"
         transform="translate(-511.99487,-67.302143)"
         id="path63" />
    </clipPath>
    <clipPath
       clipPathUnits="userSpaceOnUse"
       id="clipPath69">
      <path
         d="m 500,132 h 8 v 9.121 h -8 z"
         transform="translate(-499.73609,-141.4054)"
         id="path69" />
    </clipPath>
  </defs>
  <sodipodi:namedview
     id="namedview1"
     pagecolor="#ffffff"
     bordercolor="#999999"
     borderopacity="1"
     inkscape:showpageshadow="0"
     inkscape:pageopacity="0"
     inkscape:pagecheckerboard="0"
     inkscape:deskcolor="#d1d1d1">
    <inkscape:page
       x="0"
       y="0"
       id="page1"
       width="984"
       height="189.33333"
       margin="0"
       bleed="0" />
  </sodipodi:namedview>
  <g
     id="g1"
     inkscape:groupmode="layer"
     inkscape:label="">
    <path
       id="path1"
       d="m 156.961,44.902 38.488,32.071"
       style="fill:none;stroke:#000000;stroke-width:0.7056;stroke-linecap:square;stroke-linejoin:miter;stroke-miterlimit:3.25;stroke-dasharray:none;stroke-opacity:1"
       transform="scale(1.3333333)"
       clip-path="url(#clipPath2)" />
    <path
       id="path3"
       d="m 179.16,63.402 -7.555,-2.957 3.286,-3.941 z"
       style="fill:#000000;fill-opacity:1;fill-rule:evenodd;stroke:none"
       transform="scale(1.3333333)"
       clip-path="url(#clipPath4)" />
    <path
       id="path5"
       d="m 9.0338233,-7.0795525 c 0.2109375,0.421875 0.2929688,0.9257812 0.2578125,1.4882812 0,0.375 -0.082031,0.9960938 -0.2578125,1.8398438 H 2.8580421 c -0.1640625,0.8554687 -0.09375,1.546875 0.1757812,2.0625 0.2578125,0.515625 0.796875,0.7734375 1.59375,0.7734375 0.7265625,0 1.3710938,-0.2460938 1.9101563,-0.7382813 0.3046875,-0.28125 0.5625,-0.5976562 0.75,-0.984375 h 1.3945312 c -0.1171875,0.3164063 -0.3046875,0.65625 -0.5976562,1.0429688 -0.2929688,0.375 -0.5742188,0.69140625 -0.8789063,0.9140625 C 6.6900733,-0.24752125 6.0924171,0.03372875 5.4127296,0.17435375 5.0611671,0.256385 4.6627296,0.30326 4.2408546,0.30326 c -1.0429688,0 -1.8632813,-0.38671875 -2.4257813,-1.13671875 -0.5625,-0.76171875 -0.6914062,-1.83984375 -0.3984375,-3.19921875 0.28125,-1.359375 0.8789063,-2.4492188 1.7929688,-3.3046875 0.9023437,-0.8320313 1.9453125,-1.2539063 3.140625,-1.2539063 0.5976562,0 1.1367187,0.1523438 1.6523437,0.421875 0.5039063,0.2695313 0.84375,0.6445313 1.03125,1.0898438 z m -1.21875,2.203125 c 0.058594,-0.609375 0.046875,-1.0898438 -0.09375,-1.4648438 C 7.4752296,-7.00924 6.9127296,-7.3608025 6.0103858,-7.3608025 c -0.65625,0 -1.2539062,0.234375 -1.78125,0.703125 -0.5507812,0.46875 -0.9023437,1.0664062 -1.0898437,1.78125 z m 0,0"
       style="fill:#000000;fill-opacity:1;fill-rule:nonzero;stroke:none"
       aria-label="e"
       transform="matrix(1.3333333,0,0,1.3333333,218.8885,106.53315)" />
    <path
       id="path6"
       d="M 156.961,109.047 195.449,76.973"
       style="fill:none;stroke:#000000;stroke-width:0.7056;stroke-linecap:square;stroke-linejoin:miter;stroke-miterlimit:3.25;stroke-dasharray:none;stroke-opacity:1"
       transform="scale(1.3333333)"
       clip-path="url(#clipPath7)" />
    <path
       id="path8"
       d="m 173.246,95.477 7.559,-2.957 -3.285,-3.946 z"
       style="fill:#000000;fill-opacity:1;fill-rule:evenodd;stroke:none"
       transform="scale(1.3333333)"
       clip-path="url(#clipPath9)" />
    <path
       id="path10"
       d="m 9.0364039,-7.0780607 c 0.2109375,0.421875 0.2929688,0.9257812 0.2578125,1.4882812 0,0.375 -0.082031,0.9960938 -0.2578125,1.8398438 H 2.8606227 c -0.1640625,0.8554687 -0.09375,1.546875 0.1757812,2.0625 0.2578125,0.515625 0.796875,0.77343745 1.59375,0.77343745 0.7265625,0 1.3710938,-0.24609375 1.9101563,-0.73828125 0.3046875,-0.28125 0.5625,-0.5976562 0.75,-0.984375 h 1.3945312 c -0.1171875,0.3164063 -0.3046875,0.65625 -0.5976562,1.0429688 -0.2929688,0.375 -0.5742188,0.6914062 -0.8789063,0.91406245 -0.515625,0.43359375 -1.1132812,0.71484375 -1.7929687,0.85546875 -0.3515625,0.0820313 -0.75,0.12890625 -1.171875,0.12890625 -1.0429688,0 -1.8632813,-0.38671875 -2.4257813,-1.13671875 -0.5625,-0.7617187 -0.6914062,-1.8398437 -0.3984375,-3.1992187 0.28125,-1.359375 0.8789063,-2.4492188 1.7929688,-3.3046875 0.9023437,-0.8320313 1.9453125,-1.2539063 3.140625,-1.2539063 0.5976562,0 1.1367187,0.1523438 1.6523437,0.421875 0.5039063,0.2695313 0.84375,0.6445313 1.03125,1.0898438 z m -1.21875,2.203125 c 0.058594,-0.609375 0.046875,-1.0898438 -0.09375,-1.4648438 -0.2460937,-0.6679687 -0.8085937,-1.0195312 -1.7109375,-1.0195312 -0.65625,0 -1.2539062,0.234375 -1.78125,0.703125 -0.5507812,0.46875 -0.9023437,1.0664062 -1.0898437,1.78125 z m 0,0"
       style="fill:#000000;fill-opacity:1;fill-rule:nonzero;stroke:none"
       aria-label="e"
       transform="matrix(1.3333333,0,0,1.3333333,238.25224,149.29679)" />
    <path
       id="path11"
       d="M 285.25,44.902 246.762,76.973"
       style="fill:none;stroke:#000000;stroke-width:0.7056;stroke-linecap:square;stroke-linejoin:miter;stroke-miterlimit:3.25;stroke-dasharray:none;stroke-opacity:1"
       transform="scale(1.3333333)" />
    <path
       id="path12"
       d="m 268.965,58.473 -7.559,2.957 3.285,3.945 z"
       style="fill:#000000;fill-opacity:1;fill-rule:evenodd;stroke:none"
       transform="scale(1.3333333)" />
    <path
       id="path13"
       d="M 9.0241707,-7.8290381 7.3483894,-9.130625e-4 H 6.1647957 L 6.4108894,-1.1493506 h -0.035156 c -0.1640625,0.16406254 -0.328125,0.32812504 -0.4921875,0.50390629 -0.1875,0.140625 -0.3632813,0.29296875 -0.5625,0.421875 -0.1992188,0.1171875 -0.4101563,0.2226562475 -0.6210938,0.29296875 -0.2226562,0.08203125 -0.4570312,0.12890625 -0.6914062,0.12890625 -0.1523438,0 -0.3164063,-0.0351563 -0.46875,-0.0585938 -0.1523438,-0.046875 -0.3046875,-0.10546875 -0.4453125,-0.1875 -0.1289063,-0.09375 -0.2460938,-0.17578125 -0.3632813,-0.3046875 -0.1054687,-0.1171875 -0.1875,-0.2578125 -0.2460937,-0.38671875 L 1.6765144,3.0225244 H 0.35229569 L 2.6608894,-7.8290381 h 1.3359375 l -1.0078125,4.6875 c -0.035156,0.1523438 -0.058594,0.3164063 -0.082031,0.46875 -0.023437,0.1640625 -0.035156,0.328125 -0.035156,0.4804688 0,0.4335937 0.1054688,0.75 0.3164063,0.9375 0.2109375,0.1992187 0.5273437,0.30468749 0.9492187,0.30468749 0.3515625,0 0.6914063,-0.0820313 0.9726563,-0.19921879 0.2929687,-0.140625 0.5273437,-0.3164062 0.7617187,-0.5273437 0.2109375,-0.234375 0.3984375,-0.46875 0.5390625,-0.7734375 0.1523438,-0.28125 0.2578125,-0.5859375 0.328125,-0.9257813 l 0.9609375,-4.453125 z m 0,0"
       style="fill:#000000;fill-opacity:1;fill-rule:nonzero;stroke:none"
       aria-label="μ"
       transform="matrix(1.3333333,0,0,1.3333333,339.28418,71.426999)" />
    <path
       id="path14"
       d="M 285.25,109.047 246.762,76.973"
       style="fill:none;stroke:#000000;stroke-width:0.7056;stroke-linecap:square;stroke-linejoin:miter;stroke-miterlimit:3.25;stroke-dasharray:none;stroke-opacity:1"
       transform="scale(1.3333333)" />
    <path
       id="path15"
       d="m 263.051,90.547 7.554,2.957 -3.285,3.941 z"
       style="fill:#000000;fill-opacity:1;fill-rule:evenodd;stroke:none"
       transform="scale(1.3333333)" />
    <path
       id="path16"
       d="M 9.0247601,-7.8275463 7.3489789,5.786875e-4 H 6.1653851 L 6.4114789,-1.1478588 h -0.035156 c -0.1640625,0.16406249 -0.328125,0.32812499 -0.4921875,0.50390624 -0.1875,0.140625 -0.3632812,0.29296875 -0.5625,0.421875 -0.199219,0.1171875 -0.4101565,0.2226562475 -0.621094,0.29296875 -0.2226563,0.08203125 -0.4570313,0.12890625 -0.6914063,0.12890625 -0.1523437,0 -0.3164062,-0.0351563 -0.46875,-0.0585938 -0.1523437,-0.046875 -0.3046875,-0.10546875 -0.4453125,-0.1875 -0.1289062,-0.09375 -0.2460937,-0.17578125 -0.3632812,-0.3046875 -0.1054688,-0.1171875 -0.1875,-0.2578125 -0.2460938,-0.38671875 L 1.6771039,3.0240162 H 0.35288513 L 2.6614789,-7.8275463 h 1.3359375 l -1.0078125,4.6875 c -0.035156,0.1523437 -0.058594,0.3164062 -0.082031,0.46875 -0.023437,0.1640625 -0.035156,0.328125 -0.035156,0.4804687 0,0.4335938 0.1054687,0.75 0.3164062,0.9375 0.2109375,0.1992188 0.5273438,0.30468754 0.9492188,0.30468754 0.3515625,0 0.6914062,-0.0820312 0.9726562,-0.19921874 0.2929688,-0.140625 0.5273438,-0.3164063 0.7617188,-0.5273438 0.2109375,-0.234375 0.3984375,-0.46875 0.5390625,-0.7734375 0.1523437,-0.28125 0.2578125,-0.5859375 0.328125,-0.9257812 l 0.9609375,-4.453125 z m 0,0"
       style="fill:#000000;fill-opacity:1;fill-rule:nonzero;stroke:none"
       aria-label="μ"
       transform="matrix(1.3333333,0,0,1.3333333,357.99042,114.19063)" />
    <path
       id="path17"
       d="m 246.762,76.973 -0.641,-0.555 -0.641,-0.484 -0.64,-0.36 -0.641,-0.183 -0.644,0.011 -0.641,0.207 -0.641,0.375 -0.64,0.496 -0.641,0.559 -0.644,0.551 -0.641,0.472 -0.641,0.344 -0.64,0.164 -0.641,-0.035 -0.644,-0.226 -0.641,-0.391 -0.641,-0.508 -0.64,-0.558 -0.645,-0.547 -0.64,-0.461 -0.641,-0.324 -0.641,-0.141 -0.64,0.055 -0.645,0.246 -0.64,0.406 -0.641,0.516 -0.641,0.562 -0.64,0.539 -0.645,0.453 -0.64,0.301 -0.641,0.121 -0.641,-0.074 -0.644,-0.266 -0.641,-0.422 -0.641,-0.527 -0.64,-0.562 -0.641,-0.532 -0.644,-0.437 -0.641,-0.285 -0.641,-0.098 -0.64,0.098 -0.641,0.285 -0.644,0.437 -0.641,0.532 -0.641,0.562 -0.64,0.527 -0.645,0.422 -0.64,0.266 -0.641,0.074 -0.641,-0.121 -0.64,-0.301 -0.645,-0.453 -0.64,-0.539 -0.641,-0.562 -0.641,-0.516 -0.64,-0.406 -0.645,-0.246 -0.64,-0.055 -0.641,0.141 -0.641,0.324 -0.64,0.461 -0.645,0.547 -0.64,0.558 -0.641,0.508 -0.641,0.391 -0.644,0.226 -0.641,0.035 -0.64,-0.164 -0.641,-0.344 -0.641,-0.472 -0.644,-0.551 -0.641,-0.559 -0.64,-0.496 -0.641,-0.375 -0.641,-0.207 -0.644,-0.011 -0.641,0.183 -0.641,0.36 -0.64,0.484 -0.641,0.555"
       style="fill:none;stroke:#000000;stroke-width:0.7056;stroke-linecap:square;stroke-linejoin:miter;stroke-miterlimit:3.25;stroke-dasharray:none;stroke-opacity:1"
       transform="scale(1.3333333)" />
    <path
       id="path18"
       d="M 9.0351705,-7.8276131 4.4297017,5.119375e-4 V 0.15285569 c 0,0.09375 0.011719,0.17578125 0.011719,0.26953125 0,0.09375 0,0.1875 0,0.26953125 0,0.140625 0,0.29296875 -0.011719,0.45703121 -0.011719,0.1875 -0.046875,0.3632813 -0.070312,0.5625 C 4.324233,1.8872307 4.277358,2.0747307 4.230483,2.2622307 4.1718892,2.4497307 4.1015767,2.6137932 4.0078267,2.7544182 3.9140767,2.9067619 3.808608,3.0239494 3.667983,3.1176994 3.5507955,3.1997307 3.3984517,3.2466057 3.2226705,3.2466057 c -0.140625,0 -0.2578125,-0.023437 -0.3632813,-0.082031 C 2.7539205,3.0942619 2.6601705,3.0356682 2.589858,2.9536369 2.5078267,2.8598869 2.449233,2.7544182 2.4140767,2.6255119 2.3789205,2.5083244 2.355483,2.3794182 2.355483,2.2505119 c 0,-0.234375 0.035156,-0.4453125 0.058594,-0.6445312 0.046875,-0.1992188 0.09375,-0.3867188 0.1757813,-0.5625 0.058594,-0.16406251 0.1289062,-0.35156251 0.2226562,-0.52734376 0.09375,-0.1640625 0.1757813,-0.36328125 0.28125,-0.57421875 L 1.8632955,-7.8276131 H 3.246108 l 0.8789062,6.1757813 3.5742188,-6.1757813 z m 0,0"
       style="fill:#000000;fill-opacity:1;fill-rule:nonzero;stroke:none"
       aria-label="γ"
       transform="matrix(1.3333333,0,0,1.3333333,289.23436,130.9876)" />
    <path
       id="path19"
       d="m 198.27,76.973 c 0,0.75 -0.297,1.468 -0.829,1.996 -0.527,0.531 -1.246,0.828 -1.992,0.828 -0.75,0 -1.469,-0.297 -1.996,-0.828 -0.531,-0.528 -0.828,-1.246 -0.828,-1.996 0,-0.746 0.297,-1.465 0.828,-1.993 0.527,-0.531 1.246,-0.828 1.996,-0.828 0.746,0 1.465,0.297 1.992,0.828 0.532,0.528 0.829,1.247 0.829,1.993 z"
       style="fill:#000000;fill-opacity:1;fill-rule:evenodd;stroke:none"
       transform="scale(1.3333333)" />
    <path
       id="path20"
       d="m 243.555,80.184 6.418,-6.418"
       style="fill:none;stroke:#000000;stroke-width:2.1168;stroke-linecap:square;stroke-linejoin:miter;stroke-miterlimit:3.25;stroke-dasharray:none;stroke-opacity:1"
       transform="scale(1.3333333)" />
    <path
       id="path21"
       d="m 243.555,73.766 6.418,6.418"
       style="fill:none;stroke:#000000;stroke-width:2.1168;stroke-linecap:square;stroke-linejoin:miter;stroke-miterlimit:3.25;stroke-dasharray:none;stroke-opacity:1"
       transform="scale(1.3333333)" />
    <path
       id="path22"
       d="m 2.5908341,-6.4112574 0.1875,-0.8789062 c 0.84375,-0.070312 1.453125,-0.2109375 1.8164062,-0.3984375 0.3515625,-0.1757813 0.6914063,-0.6328125 1.0078125,-1.3359375 h 0.890625 l -1.8984375,9.02343747 h -1.21875 l 1.359375,-6.41015627 z m 0,0"
       style="fill:#000000;fill-opacity:1;fill-rule:nonzero;stroke:none"
       aria-label="1"
       transform="matrix(1.3333333,0,0,1.3333333,289.99477,188.54053)"
       clip-path="url(#clipPath23)" />
    <path
       id="path24"
       d="m 298.078,44.902 38.488,32.071"
       style="fill:none;stroke:#000000;stroke-width:0.7056;stroke-linecap:square;stroke-linejoin:miter;stroke-miterlimit:3.25;stroke-dasharray:none;stroke-opacity:1"
       transform="scale(1.3333333)" />
    <path
       id="path25"
       d="m 320.281,63.402 -7.558,-2.957 3.285,-3.941 z"
       style="fill:#000000;fill-opacity:1;fill-rule:evenodd;stroke:none"
       transform="scale(1.3333333)" />
    <path
       id="path26"
       d="M 10.733159,-0.0014275 H 9.0339405 L 7.6862843,-3.493615 H 2.8815968 L 1.604253,-0.0014275 H -0.00121575 L 4.4050343,-11.497521 h 1.640625 z M 7.2175343,-4.7006463 C 7.041753,-5.1576775 6.8425343,-5.6264275 6.666753,-6.0951775 6.4909718,-6.54049 6.3151905,-7.00924 6.1394093,-7.47799 5.963628,-7.94674 5.7995655,-8.41549 5.6472218,-8.8725213 5.4831593,-9.3412713 5.354253,-9.82174 5.2253468,-10.302209 h -0.046875 c -0.09375,0.4921877 -0.2109375,0.9609377 -0.3515625,1.4414065 -0.1523438,0.46875 -0.2929688,0.9375 -0.46875,1.3945312 -0.1640625,0.46875 -0.3398438,0.9257813 -0.515625,1.3828125 -0.1992188,0.4570313 -0.375,0.9257813 -0.5273438,1.3828125 z m 0,0"
       style="fill:#000000;fill-opacity:1;fill-rule:nonzero;stroke:none"
       aria-label="Α"
       transform="matrix(1.3333333,0,0,1.3333333,407.0485,106.53315)"
       clip-path="url(#clipPath27)" />
    <path
       id="path28"
       d="M 298.078,109.047 336.566,76.973"
       style="fill:none;stroke:#000000;stroke-width:0.7056;stroke-linecap:square;stroke-linejoin:miter;stroke-miterlimit:3.25;stroke-dasharray:none;stroke-opacity:1"
       transform="scale(1.3333333)" />
    <path
       id="path29"
       d="m 314.367,95.477 7.555,-2.957 -3.285,-3.946 z"
       style="fill:#000000;fill-opacity:1;fill-rule:evenodd;stroke:none"
       transform="scale(1.3333333)" />
    <path
       id="path30"
       d="M 10.73574,6.425e-5 H 9.0365211 L 7.6888649,-3.4921232 H 2.8841774 L 1.6068336,6.425e-5 H 0.00136487 L 4.4076149,-11.496029 h 1.640625 z M 7.2201149,-4.6991545 c -0.1757813,-0.4570312 -0.375,-0.9257812 -0.5507813,-1.3945312 -0.1757812,-0.4453125 -0.3515625,-0.9140625 -0.5273437,-1.3828125 -0.1757813,-0.46875 -0.3398438,-0.9375 -0.4921875,-1.3945313 -0.1640625,-0.46875 -0.2929688,-0.9492187 -0.421875,-1.4296875 h -0.046875 c -0.09375,0.4921875 -0.2109375,0.9609375 -0.3515625,1.4414063 -0.1523438,0.46875 -0.2929688,0.9375 -0.46875,1.3945312 -0.1640625,0.46875 -0.3398438,0.9257813 -0.515625,1.3828125 -0.1992188,0.4570313 -0.375,0.9257813 -0.5273438,1.3828125 z m 0,0"
       style="fill:#000000;fill-opacity:1;fill-rule:nonzero;stroke:none"
       aria-label="Α"
       transform="matrix(1.3333333,0,0,1.3333333,426.41224,149.29679)"
       clip-path="url(#clipPath31)" />
    <path
       id="path32"
       d="M 426.371,44.902 387.883,76.973"
       style="fill:none;stroke:#000000;stroke-width:0.7056;stroke-linecap:square;stroke-linejoin:miter;stroke-miterlimit:3.25;stroke-dasharray:none;stroke-opacity:1"
       transform="scale(1.3333333)" />
    <path
       id="path33"
       d="m 410.082,58.473 -7.555,2.957 3.285,3.945 z"
       style="fill:#000000;fill-opacity:1;fill-rule:evenodd;stroke:none"
       transform="scale(1.3333333)" />
    <path
       id="path34"
       d="m 3.5867879,-0.86810056 c 0.46875,0 0.9375,-0.10546875 1.4296875,-0.31640624 0.8085937,-0.3632813 1.3007812,-0.9492188 1.4882812,-1.7695313 l 0.2109375,-1.0664062 c -0.1875,0.1054687 -0.4101562,0.1992187 -0.6796875,0.2578125 -0.2578125,0.070312 -0.5273437,0.1171875 -0.7734375,0.1523437 l -0.8320312,0.1054688 c -0.5039063,0.058594 -0.8789063,0.1640625 -1.1484375,0.3046875 -0.4570313,0.2226562 -0.7382813,0.5976562 -0.84375,1.1015625 -0.09375,0.3867187 -0.023437,0.6914062 0.2226562,0.9023437 0.2226563,0.22265629 0.5273438,0.32812504 0.9257813,0.32812504 z m 2.625,-3.91406254 c 0.3164062,-0.046875 0.5507812,-0.1640625 0.7148437,-0.3867187 0.070312,-0.1171875 0.1289063,-0.2929688 0.1757813,-0.5039063 0.1054687,-0.4453125 0.023437,-0.7851562 -0.2695313,-0.9960937 -0.2695312,-0.1992188 -0.7265625,-0.3046875 -1.3125,-0.3046875 -0.6914062,0 -1.2304687,0.1875 -1.6054687,0.5625 -0.1992188,0.2109375 -0.375,0.515625 -0.4921875,0.9257812 H 2.1805379 c 0.2226562,-0.9726562 0.6796875,-1.6523437 1.3710937,-2.0273437 0.6796875,-0.3984375 1.4414063,-0.5742188 2.2382813,-0.5742188 0.9257812,0 1.6523437,0.1757813 2.1445312,0.5273438 0.5039063,0.3515625 0.6679688,0.9023437 0.515625,1.6523437 l -0.9609375,4.5585938 c -0.035156,0.140625 -0.035156,0.2460937 0.011719,0.3398437 0.023437,0.0703125 0.1523437,0.11718754 0.328125,0.11718754 0.046875,0 0.1289062,0 0.1992187,-0.0117188 0.070312,0 0.1523438,-0.0234375 0.2460938,-0.0351563 l -0.2109375,0.984375 c -0.2109375,0.05859375 -0.3867188,0.09375 -0.4921875,0.10546875 -0.1171875,0.0117188 -0.2578125,0.0234375 -0.4453125,0.0234375 -0.4570313,0 -0.7617188,-0.1640625 -0.9023438,-0.4921875 -0.070312,-0.1640625 -0.082031,-0.41015625 -0.070312,-0.72656249 -0.3515625,0.36328124 -0.796875,0.66796874 -1.359375,0.92578124 -0.5625,0.2578125 -1.1484375,0.38671875 -1.7578125,0.38671875 -0.7382812,0 -1.2773437,-0.22265625 -1.6640625,-0.66796875 -0.37499997,-0.4453125 -0.48046872,-0.99609374 -0.3398437,-1.67578124 0.1640625,-0.7265625 0.515625,-1.3007813 1.0546875,-1.6992188 0.5390625,-0.3984375 1.1953125,-0.65625 1.96875,-0.75 z m 1.1367187,-6.2695309 1.1601563,2.1328122 H 7.3016316 l -0.7734375,-1.4179692 -1.21875,1.4179692 H 4.1024129 l 1.8398437,-2.1328122 z m 0,0"
       style="fill:#000000;fill-opacity:1;fill-rule:nonzero;stroke:none"
       aria-label="â"
       transform="matrix(1.3333333,0,0,1.3333333,527.44418,71.426999)" />
    <path
       id="path35"
       d="M 426.371,109.047 387.883,76.973"
       style="fill:none;stroke:#000000;stroke-width:0.7056;stroke-linecap:square;stroke-linejoin:miter;stroke-miterlimit:3.25;stroke-dasharray:none;stroke-opacity:1"
       transform="scale(1.3333333)" />
    <path
       id="path36"
       d="m 404.172,90.547 7.555,2.957 -3.286,3.941 z"
       style="fill:#000000;fill-opacity:1;fill-rule:evenodd;stroke:none"
       transform="scale(1.3333333)" />
    <path
       id="path37"
       d="m 3.5873773,-0.86660881 c 0.46875,0 0.9375,-0.10546875 1.4296875,-0.31640629 0.8085938,-0.3632812 1.3007813,-0.9492187 1.4882813,-1.7695312 l 0.2109375,-1.0664063 c -0.1875,0.1054688 -0.4101563,0.1992188 -0.6796875,0.2578125 -0.2578125,0.070312 -0.5273438,0.1171875 -0.7734375,0.1523438 l -0.8320313,0.1054687 c -0.5039062,0.058594 -0.8789062,0.1640625 -1.1484375,0.3046875 -0.4570312,0.2226563 -0.7382812,0.5976563 -0.84375,1.1015625 -0.09375,0.3867188 -0.023437,0.6914063 0.2226563,0.9023438 0.2226562,0.22265624 0.5273437,0.32812499 0.9257812,0.32812499 z m 2.625,-3.91406249 c 0.3164063,-0.046875 0.5507813,-0.1640625 0.7148438,-0.3867188 0.070312,-0.1171875 0.1289062,-0.2929687 0.1757812,-0.5039062 0.1054688,-0.4453125 0.023437,-0.7851563 -0.2695312,-0.9960938 -0.2695313,-0.1992187 -0.7265625,-0.3046875 -1.3125,-0.3046875 -0.6914063,0 -1.2304688,0.1875 -1.6054688,0.5625 -0.1992187,0.2109375 -0.375,0.515625 -0.4921875,0.9257813 H 2.1811273 c 0.2226563,-0.9726563 0.6796875,-1.6523438 1.3710938,-2.0273438 0.6796875,-0.3984375 1.4414062,-0.5742187 2.2382812,-0.5742187 0.9257813,0 1.6523438,0.1757812 2.1445313,0.5273437 0.5039062,0.3515625 0.6679687,0.9023438 0.515625,1.6523438 l -0.9609375,4.5585937 c -0.035156,0.140625 -0.035156,0.2460938 0.011719,0.3398438 0.023437,0.0703125 0.1523438,0.11718749 0.328125,0.11718749 0.046875,0 0.1289063,0 0.1992188,-0.0117188 0.070312,0 0.1523437,-0.0234375 0.2460937,-0.0351563 l -0.2109375,0.984375 c -0.2109375,0.05859375 -0.3867187,0.09375 -0.4921875,0.10546875 -0.1171875,0.0117188 -0.2578125,0.0234375 -0.4453125,0.0234375 -0.4570312,0 -0.7617187,-0.1640625 -0.9023437,-0.4921875 -0.070312,-0.1640625 -0.082031,-0.41015625 -0.070312,-0.72656254 -0.3515625,0.36328129 -0.796875,0.66796879 -1.359375,0.92578129 -0.5625,0.2578125 -1.1484375,0.38671875 -1.7578125,0.38671875 -0.7382813,0 -1.2773438,-0.22265625 -1.6640625,-0.66796875 -0.37500004,-0.4453125 -0.48046879,-0.99609379 -0.3398438,-1.67578129 0.1640625,-0.7265625 0.515625,-1.3007812 1.0546875,-1.6992187 0.5390625,-0.3984375 1.1953125,-0.65625 1.96875,-0.75 z m 1.1367188,-6.2695317 1.1601562,2.1328129 H 7.3022211 l -0.7734375,-1.4179689 -1.21875,1.4179689 H 4.1030023 l 1.8398438,-2.1328129 z m 0,0"
       style="fill:#000000;fill-opacity:1;fill-rule:nonzero;stroke:none"
       aria-label="â"
       transform="matrix(1.3333333,0,0,1.3333333,546.15042,114.19063)" />
    <path
       id="path38"
       d="m 387.883,76.973 -0.641,-0.555 -0.64,-0.484 -0.641,-0.36 -0.645,-0.183 -0.64,0.011 -0.641,0.207 -0.64,0.375 -0.645,0.496 -0.641,0.559 -0.64,0.551 -0.641,0.472 -0.64,0.344 -0.641,0.164 -0.645,-0.035 -0.64,-0.226 -0.641,-0.391 -0.641,-0.508 -0.644,-0.558 -0.641,-0.547 -0.64,-0.461 -0.641,-0.324 -0.641,-0.141 -0.644,0.055 -0.641,0.246 -0.64,0.406 -0.641,0.516 -0.645,0.562 -0.64,0.539 -0.641,0.453 -0.64,0.301 -0.641,0.121 -0.645,-0.074 -0.64,-0.266 -0.641,-0.422 -0.64,-0.527 -0.641,-0.562 -0.645,-0.532 -0.64,-0.437 -0.641,-0.285 -0.64,-0.098 -0.641,0.098 -0.645,0.285 -0.64,0.437 -0.641,0.532 -0.64,0.562 -0.645,0.527 -0.641,0.422 -0.64,0.266 -0.641,0.074 -0.641,-0.121 -0.644,-0.301 -0.641,-0.453 -0.64,-0.539 -0.641,-0.562 -0.641,-0.516 -0.644,-0.406 -0.641,-0.246 -0.64,-0.055 -0.641,0.141 -0.644,0.324 -0.641,0.461 -0.641,0.547 -0.64,0.558 -0.641,0.508 -0.644,0.391 -0.641,0.226 -0.641,0.035 -0.64,-0.164 -0.641,-0.344 -0.645,-0.472 -0.64,-0.551 -0.641,-0.559 -0.64,-0.496 -0.641,-0.375 -0.645,-0.207 -0.64,-0.011 -0.641,0.183 -0.64,0.36 -0.645,0.484 -0.641,0.555"
       style="fill:none;stroke:#000000;stroke-width:0.7056;stroke-linecap:square;stroke-linejoin:miter;stroke-miterlimit:3.25;stroke-dasharray:none;stroke-opacity:1"
       transform="scale(1.3333333)" />
    <path
       id="path39"
       d="M 7.6524752,-4.4291756 7.0196627,-9.2221443 4.2423189,-4.4291756 Z M 6.6095064,-10.839332 h 1.640625 L 9.8907564,5.119375e-4 H 8.2852877 L 7.8751314,-3.2338631 H 3.5860689 L 1.7227877,5.119375e-4 H 0.21106894 Z m 1.9921875,-2.566406 h 1.3710938 l -0.328125,1.535156 H 8.2735689 Z m -2.4375,0 h 1.3828125 l -0.3398437,1.535156 H 5.8360689 Z m 0,0"
       style="fill:#000000;fill-opacity:1;fill-rule:nonzero;stroke:none"
       aria-label="Ä"
       transform="matrix(1.3333333,0,0,1.3333333,477.39436,130.9876)"
       clip-path="url(#clipPath40)" />
    <path
       id="path41"
       d="m 390.707,76.973 c 0,0.75 -0.297,1.468 -0.828,1.996 -0.527,0.531 -1.246,0.828 -1.996,0.828 -0.746,0 -1.465,-0.297 -1.996,-0.828 -0.528,-0.528 -0.825,-1.246 -0.825,-1.996 0,-0.746 0.297,-1.465 0.825,-1.993 0.531,-0.531 1.25,-0.828 1.996,-0.828 0.75,0 1.469,0.297 1.996,0.828 0.531,0.528 0.828,1.247 0.828,1.993 z"
       style="fill:#000000;fill-opacity:1;fill-rule:evenodd;stroke:none"
       transform="scale(1.3333333)" />
    <path
       id="path42"
       d="m 333.359,80.184 6.414,-6.418"
       style="fill:none;stroke:#000000;stroke-width:2.1168;stroke-linecap:square;stroke-linejoin:miter;stroke-miterlimit:3.25;stroke-dasharray:none;stroke-opacity:1"
       transform="scale(1.3333333)" />
    <path
       id="path43"
       d="m 333.359,73.766 6.414,6.418"
       style="fill:none;stroke:#000000;stroke-width:2.1168;stroke-linecap:square;stroke-linejoin:miter;stroke-miterlimit:3.25;stroke-dasharray:none;stroke-opacity:1"
       transform="scale(1.3333333)" />
    <path
       id="path44"
       d="M 4.0206387,2.7176489 H 3.6690762 c -0.1523437,0 -0.3164062,0 -0.4570312,-0.011719 C 3.0597012,2.6942114 2.9190762,2.6707739 2.7667325,2.6356176 2.4854825,2.5535864 2.274545,2.4129614 2.1104825,2.2137426 1.9698575,2.0028051 1.85267,1.7801489 1.7940762,1.4988989 1.7237637,1.2293676 1.6886075,0.93639887 1.6886075,0.61999262 c -0.011719,-0.328125 -0.011719,-0.64453125 -0.011719,-0.9609375 0,-0.31640625 -0.011719,-0.6328125 -0.035156,-0.92578122 C 1.6300137,-1.5714136 1.5831387,-1.8409449 1.4893887,-2.0636011 1.4190762,-2.2979761 1.2784512,-2.4737574 1.10267,-2.6143824 0.92688875,-2.7667261 0.680795,-2.8253199 0.35267,-2.8370386 v -1.03125 c 0.2578125,0 0.45703125,-0.046875 0.62109375,-0.140625 0.15234375,-0.082031 0.28124995,-0.2226563 0.38671875,-0.3632813 0.09375,-0.1523437 0.1757812,-0.328125 0.2109375,-0.5273437 0.046875,-0.1992188 0.070312,-0.3984375 0.09375,-0.609375 0.011719,-0.2109375 0.023437,-0.4101563 0.011719,-0.6210938 0,-0.2109375 0,-0.3984375 0,-0.5742187 0,-0.1523438 0,-0.3164063 0,-0.4921875 0,-0.1757813 0.011719,-0.3632813 0.035156,-0.5273438 0.011719,-0.1875 0.035156,-0.3515625 0.09375,-0.515625 0.035156,-0.1875 0.1054687,-0.3398437 0.1757812,-0.4804687 0.082031,-0.1523438 0.1875,-0.28125 0.3164063,-0.375 0.1289062,-0.1054688 0.28125,-0.1875 0.46875,-0.234375 0.1992187,-0.070312 0.3984375,-0.09375 0.6210937,-0.09375 0.1992188,0 0.4101563,-0.011719 0.6328125,-0.011719 v 0.9960938 c -0.1054687,0 -0.1992187,0 -0.28125,0 -0.09375,0 -0.1992187,0 -0.2929687,0.011719 -0.09375,0.011719 -0.1757813,0.035156 -0.2578125,0.070312 -0.09375,0.035156 -0.1640625,0.082031 -0.2460938,0.1523438 -0.082031,0.058594 -0.1289062,0.1875 -0.1523437,0.375 -0.023437,0.1757812 -0.058594,0.3984375 -0.070312,0.6445312 0,0.2460938 -0.011719,0.5273438 -0.011719,0.8085938 0,0.2929687 -0.011719,0.5859375 -0.023437,0.8671875 -0.023437,0.28125 -0.046875,0.5390625 -0.1171875,0.7851562 -0.046875,0.2695313 -0.1289062,0.46875 -0.234375,0.6445313 -0.1171875,0.1640625 -0.2460937,0.3046875 -0.4101562,0.421875 -0.1757813,0.1171875 -0.3398438,0.2226562 -0.5273438,0.3164062 0.2695313,0.09375 0.4570313,0.234375 0.6328125,0.3867188 0.1640625,0.1523437 0.2929688,0.3398437 0.3867188,0.5273437 0.1054687,0.1992188 0.1640625,0.421875 0.2226562,0.6445313 0.035156,0.2226562 0.070312,0.4570312 0.082031,0.703125 0.011719,0.24609372 0.011719,0.48046872 0.011719,0.71484372 0,0.24609375 -0.011719,0.46875 -0.011719,0.69140625 0,0.29296875 0.011719,0.52734375 0.023437,0.70312503 0.035156,0.1875 0.082031,0.3398437 0.1640625,0.4453125 0.082031,0.1054687 0.1992187,0.1640625 0.3867187,0.2109375 0.1640625,0.035156 0.3984375,0.058594 0.7265625,0.046875 z m 0,0"
       style="fill:#000000;fill-opacity:1;fill-rule:nonzero;stroke:none"
       aria-label="{"
       transform="matrix(1.3333333,0,0,1.3333333,478.15477,188.54053)"
       clip-path="url(#clipPath45)" />
    <path
       id="path46"
       d="m 439.199,44.902 38.489,32.071"
       style="fill:none;stroke:#000000;stroke-width:0.7056;stroke-linecap:square;stroke-linejoin:miter;stroke-miterlimit:3.25;stroke-dasharray:none;stroke-opacity:1"
       transform="scale(1.3333333)" />
    <path
       id="path47"
       d="m 461.398,63.402 -7.554,-2.957 3.285,-3.941 z"
       style="fill:#000000;fill-opacity:1;fill-rule:evenodd;stroke:none"
       transform="scale(1.3333333)" />
    <path
       id="path48"
       d="m 9.0340577,-7.0795525 c 0.2109375,0.421875 0.2929687,0.9257812 0.2578125,1.4882812 0,0.375 -0.082031,0.9960938 -0.2578125,1.8398438 H 2.8582764 c -0.1640625,0.8554687 -0.09375,1.546875 0.1757813,2.0625 0.2578125,0.515625 0.796875,0.7734375 1.59375,0.7734375 0.7265625,0 1.3710937,-0.2460938 1.9101562,-0.7382813 0.3046875,-0.28125 0.5625,-0.5976562 0.75,-0.984375 h 1.3945313 c -0.1171875,0.3164063 -0.3046875,0.65625 -0.5976563,1.0429688 -0.2929687,0.375 -0.5742187,0.69140625 -0.8789062,0.9140625 C 6.6903077,-0.24752125 6.0926514,0.03372875 5.4129639,0.17435375 5.0614014,0.256385 4.6629639,0.30326 4.2410889,0.30326 c -1.0429687,0 -1.8632812,-0.38671875 -2.4257812,-1.13671875 -0.5625,-0.76171875 -0.6914063,-1.83984375 -0.3984375,-3.19921875 0.28125,-1.359375 0.8789062,-2.4492188 1.7929687,-3.3046875 0.9023438,-0.8320313 1.9453125,-1.2539063 3.140625,-1.2539063 0.5976563,0 1.1367188,0.1523438 1.6523438,0.421875 0.5039062,0.2695313 0.84375,0.6445313 1.03125,1.0898438 z m -1.21875,2.203125 c 0.058594,-0.609375 0.046875,-1.0898438 -0.09375,-1.4648438 C 7.4754639,-7.00924 6.9129639,-7.3608025 6.0106202,-7.3608025 c -0.65625,0 -1.2539063,0.234375 -1.78125,0.703125 -0.5507813,0.46875 -0.9023438,1.0664062 -1.0898438,1.78125 z m 0,0"
       style="fill:#000000;fill-opacity:1;fill-rule:nonzero;stroke:none"
       aria-label="e"
       transform="matrix(1.3333333,0,0,1.3333333,595.2085,106.53315)" />
    <path
       id="path49"
       d="M 439.199,109.047 477.688,76.973"
       style="fill:none;stroke:#000000;stroke-width:0.7056;stroke-linecap:square;stroke-linejoin:miter;stroke-miterlimit:3.25;stroke-dasharray:none;stroke-opacity:1"
       transform="scale(1.3333333)" />
    <path
       id="path50"
       d="m 455.488,95.477 7.555,-2.957 -3.285,-3.946 z"
       style="fill:#000000;fill-opacity:1;fill-rule:evenodd;stroke:none"
       transform="scale(1.3333333)" />
    <path
       id="path51"
       d="m 9.0337086,-7.0780607 c 0.2109375,0.421875 0.2929688,0.9257812 0.2578125,1.4882812 0,0.375 -0.082031,0.9960938 -0.2578125,1.8398438 H 2.8579274 c -0.1640625,0.8554687 -0.09375,1.546875 0.1757812,2.0625 0.2578125,0.515625 0.796875,0.77343745 1.59375,0.77343745 0.7265625,0 1.3710938,-0.24609375 1.9101563,-0.73828125 0.3046875,-0.28125 0.5625,-0.5976562 0.75,-0.984375 h 1.3945312 c -0.1171875,0.3164063 -0.3046875,0.65625 -0.5976562,1.0429688 -0.2929688,0.375 -0.5742188,0.6914062 -0.8789063,0.91406245 -0.515625,0.43359375 -1.1132812,0.71484375 -1.7929687,0.85546875 -0.3515625,0.0820313 -0.75,0.12890625 -1.171875,0.12890625 -1.0429688,0 -1.8632813,-0.38671875 -2.4257813,-1.13671875 -0.5625,-0.7617187 -0.6914062,-1.8398437 -0.3984375,-3.1992187 0.28125,-1.359375 0.8789063,-2.4492188 1.7929688,-3.3046875 0.9023437,-0.8320313 1.9453125,-1.2539063 3.140625,-1.2539063 0.5976562,0 1.1367187,0.1523438 1.6523437,0.421875 0.5039063,0.2695313 0.84375,0.6445313 1.03125,1.0898438 z m -1.21875,2.203125 c 0.058594,-0.609375 0.046875,-1.0898438 -0.09375,-1.4648438 -0.2460937,-0.6679687 -0.8085937,-1.0195312 -1.7109375,-1.0195312 -0.65625,0 -1.2539062,0.234375 -1.78125,0.703125 -0.5507812,0.46875 -0.9023437,1.0664062 -1.0898437,1.78125 z m 0,0"
       style="fill:#000000;fill-opacity:1;fill-rule:nonzero;stroke:none"
       aria-label="e"
       transform="matrix(1.3333333,0,0,1.3333333,614.57224,149.29679)" />
    <path
       id="path52"
       d="M 567.492,44.902 529.004,76.973"
       style="fill:none;stroke:#000000;stroke-width:0.7056;stroke-linecap:square;stroke-linejoin:miter;stroke-miterlimit:3.25;stroke-dasharray:none;stroke-opacity:1"
       transform="scale(1.3333333)" />
    <path
       id="path53"
       d="m 551.203,58.473 -7.555,2.957 3.286,3.945 z"
       style="fill:#000000;fill-opacity:1;fill-rule:evenodd;stroke:none"
       transform="scale(1.3333333)" />
    <path
       id="path54"
       d="M 9.0244051,-7.8290381 7.3486238,-9.130625e-4 H 6.1650301 L 6.4111238,-1.1493506 h -0.035156 c -0.1640625,0.16406254 -0.328125,0.32812504 -0.4921875,0.50390629 -0.1875,0.140625 -0.3632813,0.29296875 -0.5625,0.421875 C 5.1220615,-0.10638181 4.911124,-9.130625e-4 4.7001865,0.06939944 4.4775303,0.15143069 4.2431553,0.19830569 4.0087803,0.19830569 c -0.1523438,0 -0.3164063,-0.0351563 -0.46875,-0.0585938 -0.1523438,-0.046875 -0.3046875,-0.10546875 -0.4453125,-0.1875 -0.1289063,-0.09375 -0.2460938,-0.17578125 -0.3632813,-0.3046875 -0.1054687,-0.1171875 -0.1875,-0.2578125 -0.2460937,-0.38671875 L 1.6767488,3.0225244 H 0.35253006 L 2.6611238,-7.8290381 h 1.3359375 l -1.0078125,4.6875 c -0.035156,0.1523438 -0.058594,0.3164063 -0.082031,0.46875 -0.023437,0.1640625 -0.035156,0.328125 -0.035156,0.4804688 0,0.4335937 0.1054688,0.75 0.3164063,0.9375 0.2109375,0.1992187 0.5273437,0.30468749 0.9492187,0.30468749 0.3515625,0 0.6914063,-0.0820313 0.9726563,-0.19921879 0.2929687,-0.140625 0.5273437,-0.3164062 0.7617187,-0.5273437 0.2109375,-0.234375 0.3984375,-0.46875 0.5390625,-0.7734375 0.1523438,-0.28125 0.2578125,-0.5859375 0.328125,-0.9257813 l 0.9609375,-4.453125 z m 0,0"
       style="fill:#000000;fill-opacity:1;fill-rule:nonzero;stroke:none"
       aria-label="μ"
       transform="matrix(1.3333333,0,0,1.3333333,715.60418,71.426999)" />
    <path
       id="path55"
       d="M 567.492,109.047 529.004,76.973"
       style="fill:none;stroke:#000000;stroke-width:0.7056;stroke-linecap:square;stroke-linejoin:miter;stroke-miterlimit:3.25;stroke-dasharray:none;stroke-opacity:1"
       transform="scale(1.3333333)" />
    <path
       id="path56"
       d="m 545.289,90.547 7.559,2.957 -3.286,3.941 z"
       style="fill:#000000;fill-opacity:1;fill-rule:evenodd;stroke:none"
       transform="scale(1.3333333)" />
    <path
       id="path57"
       d="M 9.0220648,-7.8275463 7.3462836,5.786875e-4 H 6.1626898 L 6.4087836,-1.1478588 h -0.035156 c -0.1640625,0.16406249 -0.328125,0.32812499 -0.4921875,0.50390624 -0.1875,0.140625 -0.3632812,0.29296875 -0.5625,0.421875 -0.199219,0.1171875 -0.4101565,0.2226562475 -0.621094,0.29296875 -0.2226563,0.08203125 -0.4570313,0.12890625 -0.6914063,0.12890625 -0.1523437,0 -0.3164062,-0.0351563 -0.46875,-0.0585938 -0.1523437,-0.046875 -0.3046875,-0.10546875 -0.4453125,-0.1875 -0.1289062,-0.09375 -0.2460937,-0.17578125 -0.3632812,-0.3046875 -0.1054688,-0.1171875 -0.1875,-0.2578125 -0.2460938,-0.38671875 L 1.6744086,3.0240162 H 0.35018981 L 2.6587836,-7.8275463 h 1.3359375 l -1.0078125,4.6875 c -0.035156,0.1523437 -0.058594,0.3164062 -0.082031,0.46875 -0.023437,0.1640625 -0.035156,0.328125 -0.035156,0.4804687 0,0.4335938 0.1054687,0.75 0.3164062,0.9375 0.2109375,0.1992188 0.5273438,0.30468754 0.9492188,0.30468754 0.3515625,0 0.6914062,-0.0820312 0.9726562,-0.19921874 0.2929688,-0.140625 0.5273438,-0.3164063 0.7617188,-0.5273438 0.2109375,-0.234375 0.3984375,-0.46875 0.5390625,-0.7734375 0.1523437,-0.28125 0.2578125,-0.5859375 0.328125,-0.9257812 l 0.9609375,-4.453125 z m 0,0"
       style="fill:#000000;fill-opacity:1;fill-rule:nonzero;stroke:none"
       aria-label="μ"
       transform="matrix(1.3333333,0,0,1.3333333,734.31042,114.19063)" />
    <path
       id="path58"
       d="m 477.688,76.973 0.64,0.617 0.641,0.519 0.644,0.348 0.641,0.121 0.641,-0.121 0.64,-0.348 0.641,-0.523 0.644,-0.613 0.641,-0.614 0.641,-0.519 0.64,-0.348 0.641,-0.121 0.644,0.121 0.641,0.348 0.641,0.519 0.64,0.614 0.645,0.613 0.64,0.523 0.641,0.348 0.641,0.121 0.64,-0.121 0.645,-0.348 0.64,-0.523 1.282,-1.227 0.64,-0.519 0.645,-0.348 0.64,-0.121 0.641,0.121 0.641,0.348 0.644,0.519 1.281,1.227 0.641,0.523 0.641,0.348 0.644,0.121 0.641,-0.121 0.64,-0.348 0.641,-0.519 0.641,-0.617"
       style="fill:none;stroke:#000000;stroke-width:0.7056;stroke-linecap:square;stroke-linejoin:miter;stroke-miterlimit:3.25;stroke-dasharray:none;stroke-opacity:1"
       transform="scale(1.3333333)" />
    <path
       id="path59"
       d="M 9.0353943,-7.8276131 4.4299256,5.119375e-4 V 0.15285569 c 0,0.09375 0.011719,0.17578125 0.011719,0.26953125 0,0.09375 0,0.1875 0,0.26953125 0,0.140625 0,0.29296875 -0.011719,0.45703121 -0.011719,0.1875 -0.046875,0.3632813 -0.070312,0.5625 -0.035156,0.1757813 -0.082031,0.3632813 -0.1289063,0.5507813 -0.058594,0.1875 -0.1289062,0.3515625 -0.2226562,0.4921875 -0.09375,0.1523437 -0.1992188,0.2695312 -0.3398438,0.3632812 -0.1171875,0.082031 -0.2695312,0.1289063 -0.4453125,0.1289063 -0.140625,0 -0.2578125,-0.023437 -0.3632812,-0.082031 C 2.7541443,3.0942619 2.6603943,3.0356682 2.5900818,2.9536369 2.5080506,2.8598869 2.4494568,2.7544182 2.4143006,2.6255119 c -0.035156,-0.1171875 -0.058594,-0.2460937 -0.058594,-0.375 0,-0.234375 0.035156,-0.4453125 0.058594,-0.6445312 0.046875,-0.1992188 0.09375,-0.3867188 0.1757812,-0.5625 0.058594,-0.16406251 0.1289063,-0.35156251 0.2226563,-0.52734376 0.09375,-0.1640625 0.1757812,-0.36328125 0.28125,-0.57421875 L 1.8635193,-7.8276131 h 1.3828125 l 0.8789063,6.1757813 3.5742187,-6.1757813 z m 0,0"
       style="fill:#000000;fill-opacity:1;fill-rule:nonzero;stroke:none"
       aria-label="γ"
       transform="matrix(1.3333333,0,0,1.3333333,648.4489,130.9876)"
       clip-path="url(#clipPath60)" />
    <path
       id="path61"
       d="m 529.004,76.973 -0.641,-0.614 -0.644,-0.519 -0.641,-0.348 -0.64,-0.121 -0.641,0.121 -0.641,0.348 -0.644,0.519 -0.641,0.618 -0.641,0.613 -0.64,0.519 -0.641,0.348 -0.644,0.121 -0.641,-0.121 -0.641,-0.348 -0.64,-0.519 -0.641,-0.613 -0.644,-0.614 -0.641,-0.523 -0.641,-0.348 -0.64,-0.121 -0.645,0.121 -0.64,0.348 -0.641,0.523 -1.281,1.227 -0.645,0.519 -0.64,0.348 -0.641,0.121 -0.641,-0.121 -0.64,-0.348 -0.645,-0.519 -0.64,-0.613 -0.641,-0.618 -0.641,-0.519 -0.64,-0.348 -0.645,-0.121 -0.64,0.121 -0.641,0.348 -0.641,0.519 -0.644,0.614"
       style="fill:none;stroke:#000000;stroke-width:0.7056;stroke-linecap:square;stroke-linejoin:miter;stroke-miterlimit:3.25;stroke-dasharray:none;stroke-opacity:1"
       transform="scale(1.3333333)" />
    <path
       id="path62"
       d="M 9.0354154,-7.8294857 4.4299467,-0.00136075 V 0.150983 c 0,0.09375 0.011719,0.17578125 0.011719,0.26953125 0,0.09375 0,0.1875 0,0.26953125 0,0.140625 0,0.29296875 -0.011719,0.4570313 -0.011719,0.1875 -0.046875,0.3632812 -0.070312,0.5625 C 4.3244779,1.885358 4.2776029,2.072858 4.2307279,2.260358 4.1721342,2.447858 4.1018217,2.6119205 4.0080717,2.7525455 3.9143217,2.9048893 3.8088529,3.0220768 3.6682279,3.1158268 3.5510404,3.197858 3.3986967,3.244733 3.2229154,3.244733 3.0822904,3.244733 2.9651029,3.221296 2.8596342,3.162702 2.7541654,3.0923893 2.6604154,3.0337955 2.5901029,2.9517643 2.5080717,2.8580143 2.4494779,2.7525455 2.4143217,2.6236393 c -0.035156,-0.1171875 -0.058594,-0.2460938 -0.058594,-0.375 0,-0.234375 0.035156,-0.4453125 0.058594,-0.6445313 0.046875,-0.1992187 0.09375,-0.3867187 0.1757812,-0.5625 C 2.6486967,0.8775455 2.7190092,0.6900455 2.8127592,0.51426425 2.9065092,0.35020175 2.9885404,0.150983 3.0940092,-0.0599545 L 1.8635404,-7.8294857 h 1.3828125 l 0.8789063,6.1757812 3.5742187,-6.1757812 z m 0,0"
       style="fill:#000000;fill-opacity:1;fill-rule:nonzero;stroke:none"
       aria-label="γ"
       transform="matrix(1.3333333,0,0,1.3333333,682.65981,89.736189)"
       clip-path="url(#clipPath63)" />
    <path
       id="path64"
       d="m 480.508,76.973 c 0,0.75 -0.297,1.468 -0.824,1.996 -0.532,0.531 -1.246,0.828 -1.996,0.828 -0.75,0 -1.465,-0.297 -1.997,-0.828 -0.527,-0.528 -0.828,-1.246 -0.828,-1.996 0,-0.746 0.301,-1.465 0.828,-1.993 0.532,-0.531 1.247,-0.828 1.997,-0.828 0.75,0 1.464,0.297 1.996,0.828 0.527,0.528 0.824,1.247 0.824,1.993 z"
       style="fill:#000000;fill-opacity:1;fill-rule:evenodd;stroke:none"
       transform="scale(1.3333333)" />
    <path
       id="path65"
       d="m 531.824,76.973 c 0,0.75 -0.297,1.468 -0.824,1.996 -0.531,0.531 -1.246,0.828 -1.996,0.828 -0.75,0 -1.465,-0.297 -1.996,-0.828 -0.528,-0.528 -0.828,-1.246 -0.828,-1.996 0,-0.746 0.3,-1.465 0.828,-1.993 0.531,-0.531 1.246,-0.828 1.996,-0.828 0.75,0 1.465,0.297 1.996,0.828 0.527,0.528 0.824,1.247 0.824,1.993 z"
       style="fill:#000000;fill-opacity:1;fill-rule:evenodd;stroke:none"
       transform="scale(1.3333333)" />
    <path
       id="path66"
       d="m 500.137,80.184 6.414,-6.418"
       style="fill:none;stroke:#000000;stroke-width:2.1168;stroke-linecap:square;stroke-linejoin:miter;stroke-miterlimit:3.25;stroke-dasharray:none;stroke-opacity:1"
       transform="scale(1.3333333)" />
    <path
       id="path67"
       d="m 500.137,73.766 6.414,6.418"
       style="fill:none;stroke:#000000;stroke-width:2.1168;stroke-linecap:square;stroke-linejoin:miter;stroke-miterlimit:3.25;stroke-dasharray:none;stroke-opacity:1"
       transform="scale(1.3333333)" />
    <path
       id="path68"
       d="M 0.89184969,-2.7784449 H 2.0871622 c -0.082031,0.5859375 -0.058594,1.0195313 0.046875,1.2773438 0.1992187,0.4804687 0.6796875,0.71484372 1.453125,0.71484372 0.5976562,0 1.1132812,-0.1640625 1.546875,-0.48046872 0.421875,-0.3164063 0.703125,-0.7265625 0.8085937,-1.2304688 0.140625,-0.6445312 0.035156,-1.0664062 -0.2929687,-1.3125 -0.3398438,-0.2578125 -0.84375,-0.375 -1.5117188,-0.375 -0.082031,0 -0.1523437,0 -0.234375,0 -0.082031,0 -0.1523437,0 -0.234375,0.011719 l 0.2109375,-1.0078125 c 0.1171875,0.011719 0.2109375,0.023437 0.2929688,0.023437 0.082031,0 0.1757812,0.011719 0.2578125,0.011719 0.4335937,0 0.796875,-0.082031 1.0898437,-0.2109375 0.5390625,-0.234375 0.8554688,-0.65625 0.984375,-1.265625 0.1054688,-0.4570312 0.011719,-0.796875 -0.2578125,-1.0429687 -0.2578125,-0.2460938 -0.609375,-0.375 -1.03125,-0.375 -0.7734375,0 -1.3359375,0.2578125 -1.7460937,0.7734375 -0.2109375,0.2695312 -0.3867188,0.6679687 -0.515625,1.1835937 h -1.125 c 0.140625,-0.6679687 0.3984375,-1.2539062 0.7617187,-1.7226562 0.65625,-0.84375 1.546875,-1.265625 2.71875,-1.265625 0.9257813,0 1.59375,0.1992187 2.015625,0.6210937 0.421875,0.4101563 0.5390625,1.0078125 0.3867188,1.7929688 -0.1289063,0.5507812 -0.375,1.0078125 -0.7382813,1.3476562 -0.234375,0.2109375 -0.515625,0.3867188 -0.8320312,0.5039063 0.4453125,0.1289062 0.7617187,0.3867187 0.9492187,0.7617187 0.1992188,0.375 0.234375,0.8320313 0.1171875,1.359375 -0.1875,0.8671875 -0.6210937,1.5820313 -1.3125,2.12109377 -0.6796875,0.55078125 -1.5351562,0.8203125 -2.5898437,0.8203125 -1.078125,0 -1.7929688,-0.29296875 -2.1328125,-0.890625 C 0.80981844,-1.2198511 0.71606844,-1.9346949 0.89184969,-2.7784449 Z m 0,0"
       style="fill:#000000;fill-opacity:1;fill-rule:nonzero;stroke:none"
       aria-label="3"
       transform="matrix(1.3333333,0,0,1.3333333,666.31477,188.54053)"
       clip-path="url(#clipPath69)" />
  </g>
</svg>
