<?xml version="1.0" encoding="UTF-8" standalone="no"?>
<!-- Created with Inkscape (http://www.inkscape.org/) -->

<svg
   version="1.1"
   id="svg1"
   width="984"
   height="246.66667"
   viewBox="0 0 984 246.66667"
   sodipodi:docname="1u51miiswwhhs.pdf"
   xmlns:inkscape="http://www.inkscape.org/namespaces/inkscape"
   xmlns:sodipodi="http://sodipodi.sourceforge.net/DTD/sodipodi-0.dtd"
   xmlns="http://www.w3.org/2000/svg"
   xmlns:svg="http://www.w3.org/2000/svg">
  <defs
     id="defs1">
    <clipPath
       clipPathUnits="userSpaceOnUse"
       id="clipPath2">
      <path
         d="M 184.32,57 H 236 v 45 h -51.68 z"
         id="path2" />
    </clipPath>
    <clipPath
       clipPathUnits="userSpaceOnUse"
       id="clipPath4">
      <path
         d="M 184.32,57 H 236 v 45 h -51.68 z"
         id="path4" />
    </clipPath>
    <clipPath
       clipPathUnits="userSpaceOnUse"
       id="clipPath7">
      <path
         d="M 184.32,99 H 236 v 45 h -51.68 z"
         id="path7" />
    </clipPath>
    <clipPath
       clipPathUnits="userSpaceOnUse"
       id="clipPath9">
      <path
         d="M 184.32,99 H 236 v 45 h -51.68 z"
         id="path9" />
    </clipPath>
    <clipPath
       clipPathUnits="userSpaceOnUse"
       id="clipPath19">
      <path
         d="m 265,117 h 9.559 v 16 H 265 Z"
         transform="translate(-262.5237,-128.41037)"
         id="path19" />
    </clipPath>
    <clipPath
       clipPathUnits="userSpaceOnUse"
       id="clipPath23">
      <path
         d="m 264,172 h 6 v 12.32 h -6 z"
         transform="translate(-263.37526,-184.68097)"
         id="path23" />
    </clipPath>
  </defs>
  <sodipodi:namedview
     id="namedview1"
     pagecolor="#ffffff"
     bordercolor="#999999"
     borderopacity="1"
     inkscape:showpageshadow="0"
     inkscape:pageopacity="0"
     inkscape:pagecheckerboard="0"
     inkscape:deskcolor="#d1d1d1">
    <inkscape:page
       x="0"
       y="0"
       id="page1"
       width="984"
       height="246.66667"
       margin="0"
       bleed="0" />
  </sodipodi:namedview>
  <g
     id="g1"
     inkscape:groupmode="layer"
     inkscape:label="">
    <path
       id="path1"
       d="m 184.32,58.648 50.27,41.891"
       style="fill:none;stroke:#000000;stroke-width:0.9216;stroke-linecap:square;stroke-linejoin:miter;stroke-miterlimit:3.25;stroke-dasharray:none;stroke-opacity:1"
       transform="scale(1.3333333)"
       clip-path="url(#clipPath2)" />
    <path
       id="path3"
       d="m 213.316,82.812 -9.867,-3.863 4.289,-5.148 z"
       style="fill:#000000;fill-opacity:1;fill-rule:evenodd;stroke:none"
       transform="scale(1.3333333)"
       clip-path="url(#clipPath4)" />
    <path
       id="path5"
       d="m 11.870905,-9.2928796 c 0.269531,0.5507812 0.375,1.2070312 0.339843,1.9453125 0,0.5039062 -0.105468,1.3125 -0.339843,2.4257812 H 3.7615297 c -0.2109375,1.125 -0.1289063,2.0273438 0.234375,2.7070313 0.328125,0.6679687 1.03125,1.0078125 2.0859375,1.0078125 0.9492187,0 1.7929687,-0.3164063 2.5078125,-0.9726563 0.4101562,-0.3515625 0.7382812,-0.7734375 0.9726562,-1.2890625 h 1.8398441 c -0.152344,0.4335938 -0.398438,0.8671875 -0.785157,1.3828125 -0.375,0.4804688 -0.7499996,0.9023438 -1.1601558,1.19531252 -0.6679688,0.57421875 -1.453125,0.9375 -2.34375,1.125 -0.4570313,0.10546875 -0.984375,0.1640625 -1.5351563,0.1640625 -1.3710937,0 -2.4492187,-0.50390625 -3.1875,-1.50000002 -0.7382812,-0.984375 -0.9140625,-2.4023437 -0.5273437,-4.1953125 0.375,-1.78125 1.1601562,-3.2109375 2.3554687,-4.3359375 1.1835938,-1.0898436 2.5546875,-1.6406246 4.125,-1.6406246 0.7734375,0 1.5,0.1875 2.1679691,0.550781 0.65625,0.351562 1.101562,0.8437499 1.359375,1.4296874 z m -1.605469,2.8945312 c 0.08203,-0.796875 0.05859,-1.4414062 -0.128906,-1.921875 -0.3164066,-0.890625 -1.0546878,-1.3476562 -2.2382816,-1.3476562 -0.8671875,0 -1.6523437,0.3164062 -2.34375,0.9257812 -0.7148437,0.609375 -1.1835937,1.3945313 -1.4414062,2.34375 z m 0,0"
       style="fill:#000000;fill-opacity:1;fill-rule:nonzero;stroke:none"
       aria-label="e"
       transform="matrix(1.3333333,0,0,1.3333333,258.73853,139.27332)" />
    <path
       id="path6"
       d="m 184.32,142.43 50.27,-41.891"
       style="fill:none;stroke:#000000;stroke-width:0.9216;stroke-linecap:square;stroke-linejoin:miter;stroke-miterlimit:3.25;stroke-dasharray:none;stroke-opacity:1"
       transform="scale(1.3333333)"
       clip-path="url(#clipPath7)" />
    <path
       id="path8"
       d="m 205.594,124.703 9.867,-3.863 -4.289,-5.149 z"
       style="fill:#000000;fill-opacity:1;fill-rule:evenodd;stroke:none"
       transform="scale(1.3333333)"
       clip-path="url(#clipPath9)" />
    <path
       id="path10"
       d="m 11.871294,-9.2921871 c 0.269531,0.5507813 0.375,1.2070313 0.339843,1.9453125 0,0.5039063 -0.105468,1.3125 -0.339843,2.4257813 H 3.7619186 c -0.2109375,1.125 -0.1289062,2.0273437 0.234375,2.7070312 0.328125,0.6679688 1.03125,1.0078125 2.0859375,1.0078125 0.9492188,0 1.7929688,-0.3164062 2.5078125,-0.9726562 0.4101563,-0.3515625 0.7382813,-0.7734375 0.9726563,-1.2890625 h 1.8398441 c -0.152344,0.4335937 -0.398438,0.8671875 -0.785157,1.3828125 -0.375,0.4804687 -0.7499996,0.9023437 -1.1601559,1.19531249 -0.6679687,0.57421875 -1.453125,0.9375 -2.34375,1.125 -0.4570312,0.10546875 -0.984375,0.1640625 -1.5351562,0.1640625 -1.3710938,0 -2.4492188,-0.50390625 -3.1875,-1.49999999 -0.7382813,-0.984375 -0.9140625,-2.4023438 -0.5273438,-4.1953125 0.375,-1.78125 1.1601563,-3.2109375 2.3554688,-4.3359375 1.1835937,-1.0898442 2.5546875,-1.6406252 4.125,-1.6406252 0.7734375,0 1.5,0.1875 2.1679691,0.550781 0.65625,0.351563 1.101562,0.8437504 1.359375,1.4296879 z m -1.605469,2.8945313 c 0.08203,-0.796875 0.05859,-1.4414063 -0.128906,-1.921875 -0.3164066,-0.890625 -1.0546879,-1.3476563 -2.2382816,-1.3476563 -0.8671875,0 -1.6523438,0.3164063 -2.34375,0.9257813 -0.7148438,0.609375 -1.1835938,1.3945312 -1.4414063,2.34375 z m 0,0"
       style="fill:#000000;fill-opacity:1;fill-rule:nonzero;stroke:none"
       aria-label="e"
       transform="matrix(1.3333333,0,0,1.3333333,283.6013,195.12786)" />
    <path
       id="path11"
       d="m 351.883,58.648 -50.27,41.891"
       style="fill:none;stroke:#000000;stroke-width:0.9216;stroke-linecap:square;stroke-linejoin:miter;stroke-miterlimit:3.25;stroke-dasharray:none;stroke-opacity:1"
       transform="scale(1.3333333)" />
    <path
       id="path12"
       d="m 330.609,76.375 -9.867,3.863 4.289,5.149 z"
       style="fill:#000000;fill-opacity:1;fill-rule:evenodd;stroke:none"
       transform="scale(1.3333333)" />
    <path
       id="path13"
       d="M 12.034445,-10.440426 9.7961639,9.800625e-4 H 8.2258514 L 8.5422576,-1.5341762 h -0.035156 c -0.2226563,0.2226563 -0.4453125,0.4453125 -0.6679688,0.66796876 -0.2460937,0.19921875 -0.4804687,0.3984375 -0.75,0.5625 -0.2578125,0.1640625 -0.5390625,0.3046875025 -0.8203125,0.41015625 -0.3046875,0.09375 -0.609375,0.15234375 -0.9257812,0.15234375 -0.1992188,0 -0.421875,-0.0351563 -0.6328125,-0.0820313 -0.1992188,-0.0585938 -0.3984375,-0.140625 -0.5742188,-0.234375 -0.1875,-0.1171875 -0.3515625,-0.24609375 -0.4921875,-0.41015625 -0.140625,-0.15234375 -0.2578125,-0.33984375 -0.3398437,-0.515625 L 2.2375701,4.0322301 H 0.46803888 L 3.5500701,-10.440426 h 1.7695313 l -1.3242188,6.2460936 c -0.070312,0.1992187 -0.082031,0.421875 -0.1289062,0.6328125 -0.011719,0.2109375 -0.035156,0.4335937 -0.035156,0.6445312 0,0.5742188 0.140625,1.0078125 0.421875,1.2421875 0.28125,0.2695313 0.703125,0.4101563 1.265625,0.4101563 0.46875,0 0.9140625,-0.1054688 1.2890625,-0.2695313 0.3867188,-0.1757812 0.7148438,-0.421875 1.0078125,-0.703125 0.28125,-0.3046875 0.5507813,-0.6210937 0.7265625,-1.03125 0.1992188,-0.375 0.3515625,-0.7851562 0.4453125,-1.2304687 l 1.2656246,-5.9414061 z m 0,0"
       style="fill:#000000;fill-opacity:1;fill-rule:nonzero;stroke:none"
       aria-label="μ"
       transform="matrix(1.3333333,0,0,1.3333333,415.04001,91.760412)" />
    <path
       id="path14"
       d="m 351.883,142.43 -50.27,-41.891"
       style="fill:none;stroke:#000000;stroke-width:0.9216;stroke-linecap:square;stroke-linejoin:miter;stroke-miterlimit:3.25;stroke-dasharray:none;stroke-opacity:1"
       transform="scale(1.3333333)" />
    <path
       id="path15"
       d="m 322.887,118.266 9.871,3.863 -4.293,5.148 z"
       style="fill:#000000;fill-opacity:1;fill-rule:evenodd;stroke:none"
       transform="scale(1.3333333)" />
    <path
       id="path16"
       d="M 12.033779,-10.442663 9.7954976,-0.00125706 H 8.2251851 L 8.5415914,-1.5364133 h -0.035156 c -0.2226562,0.2226562 -0.4453125,0.4453125 -0.6679687,0.66796874 -0.2460938,0.19921875 -0.4804688,0.3984375 -0.75,0.5625 -0.2578125,0.1640625 -0.5390625,0.3046875 -0.8203125,0.41015625 -0.3046875,0.09375 -0.609375,0.15234375 -0.9257813,0.15234375 -0.1992187,0 -0.421875,-0.0351563 -0.6328125,-0.0820313 -0.1992187,-0.0585938 -0.3984375,-0.140625 -0.5742187,-0.234375 -0.1875,-0.1171875 -0.3515625,-0.24609375 -0.4921875,-0.41015625 -0.140625,-0.15234375 -0.2578125,-0.33984375 -0.3398438,-0.515625 L 2.2369039,4.0299929 H 0.46737263 L 3.5494039,-10.442663 h 1.7695312 l -1.3242187,6.2460934 c -0.070312,0.1992188 -0.082031,0.421875 -0.1289063,0.6328125 -0.011719,0.2109375 -0.035156,0.4335938 -0.035156,0.6445313 0,0.5742187 0.140625,1.0078125 0.421875,1.2421875 0.28125,0.2695312 0.703125,0.4101562 1.265625,0.4101562 0.46875,0 0.9140625,-0.1054687 1.2890625,-0.2695312 0.3867187,-0.1757813 0.7148437,-0.421875 1.0078125,-0.703125 0.28125,-0.3046875 0.5507812,-0.6210938 0.7265625,-1.03125 0.1992187,-0.375 0.3515625,-0.7851563 0.4453125,-1.2304688 l 1.2656249,-5.9414059 z m 0,0"
       style="fill:#000000;fill-opacity:1;fill-rule:nonzero;stroke:none"
       aria-label="μ"
       transform="matrix(1.3333333,0,0,1.3333333,439.99402,147.61496)" />
    <path
       id="path17"
       d="m 301.613,100.539 -0.836,-0.727 -0.839,-0.632 -0.836,-0.469 -0.84,-0.242 -0.836,0.015 -0.84,0.27 -0.836,0.488 -0.84,0.649 -0.836,0.73 -0.836,0.719 -0.84,0.621 -0.836,0.445 -0.839,0.215 -0.836,-0.043 -0.84,-0.297 -0.836,-0.511 -0.84,-0.661 -0.836,-0.734 -0.84,-0.711 -0.836,-0.605 -0.839,-0.422 -0.836,-0.184 -0.84,0.07 -0.836,0.325 -0.84,0.531 -0.836,0.672 -0.84,0.738 -0.836,0.703 -0.84,0.586 -0.836,0.399 -0.839,0.156 -0.836,-0.098 -0.84,-0.347 -0.836,-0.551 -0.84,-0.688 -0.836,-0.734 -0.836,-0.695 -0.84,-0.571 -0.836,-0.371 -0.839,-0.133 -0.836,0.133 -0.84,0.371 -0.836,0.571 -0.84,0.695 -0.836,0.734 -0.84,0.688 -0.836,0.551 -0.84,0.347 -0.836,0.098 -0.839,-0.156 -0.836,-0.399 -0.84,-0.586 -0.836,-0.703 -0.84,-0.738 -0.836,-0.672 -0.84,-0.531 -0.836,-0.325 -0.839,-0.07 -0.836,0.184 -0.84,0.422 -0.836,0.605 -0.84,0.711 -0.836,0.734 -0.84,0.661 -0.836,0.511 -0.84,0.297 -0.836,0.043 -0.835,-0.215 -0.84,-0.445 -0.836,-0.621 -0.84,-0.719 -0.836,-0.73 -0.84,-0.649 -0.836,-0.488 -0.84,-0.27 -0.836,-0.015 -0.839,0.242 -0.836,0.469 -0.84,0.632 -0.836,0.727"
       style="fill:none;stroke:#000000;stroke-width:0.9216;stroke-linecap:square;stroke-linejoin:miter;stroke-miterlimit:3.25;stroke-dasharray:none;stroke-opacity:1"
       transform="scale(1.3333333)" />
    <path
       id="path18"
       d="M 12.058338,-10.440637 5.9059945,7.688125e-4 V 0.19998756 c 0,0.12890625 0.023437,0.24609375 0.023437,0.36328125 0,0.1171875 0,0.24609375 0,0.36328125 0,0.18750004 0,0.38671874 -0.023437,0.60937504 -0.023437,0.234375 -0.058594,0.4804687 -0.1054687,0.7382812 -0.035156,0.2460938 -0.09375,0.4921875 -0.1523438,0.75 -0.082031,0.2460938 -0.1875,0.46875 -0.3046875,0.6445313 -0.1289062,0.1992187 -0.2695312,0.3632812 -0.4453125,0.4804687 -0.1640625,0.1289063 -0.3632812,0.1875 -0.609375,0.1875 -0.1757812,0 -0.3398437,-0.046875 -0.4804687,-0.1289062 C 3.6677133,4.1374876 3.5505258,4.0554563 3.445057,3.9265501 3.351307,3.8093626 3.2692758,3.6687376 3.2224008,3.5046751 3.163807,3.3523313 3.1403695,3.1648313 3.1403695,3.0007688 c 0,-0.3164062 0.046875,-0.5976562 0.082031,-0.8671875 C 3.2809945,1.8757688 3.351307,1.6296751 3.445057,1.3953001 3.5270883,1.1726438 3.632557,0.92655006 3.7497445,0.68045631 3.866932,0.46951881 3.9958383,0.19998756 4.1364633,-0.08126244 L 2.4841195,-10.440637 H 4.335682 l 1.171875,8.2499996 4.746094,-8.2499996 z m 0,0"
       style="fill:#000000;fill-opacity:1;fill-rule:nonzero;stroke:none"
       aria-label="γ"
       transform="matrix(1.3333333,0,0,1.3333333,350.03159,171.21382)"
       clip-path="url(#clipPath19)" />
    <path
       id="path20"
       d="m 238.277,100.539 c 0,0.977 -0.39,1.914 -1.082,2.606 -0.691,0.691 -1.629,1.078 -2.605,1.078 -0.977,0 -1.918,-0.387 -2.61,-1.078 -0.687,-0.692 -1.078,-1.629 -1.078,-2.606 0,-0.98 0.391,-1.918 1.078,-2.609 0.692,-0.692 1.633,-1.078 2.61,-1.078 0.976,0 1.914,0.386 2.605,1.078 0.692,0.691 1.082,1.629 1.082,2.609 z"
       style="fill:#000000;fill-opacity:1;fill-rule:evenodd;stroke:none"
       transform="scale(1.3333333)" />
    <path
       id="path21"
       d="m 305.301,100.539 c 0,0.977 -0.387,1.914 -1.078,2.606 -0.692,0.691 -1.629,1.078 -2.61,1.078 -0.976,0 -1.914,-0.387 -2.605,-1.078 -0.692,-0.692 -1.078,-1.629 -1.078,-2.606 0,-0.98 0.386,-1.918 1.078,-2.609 0.691,-0.692 1.629,-1.078 2.605,-1.078 0.981,0 1.918,0.386 2.61,1.078 0.691,0.691 1.078,1.629 1.078,2.609 z"
       style="fill:#000000;fill-opacity:1;fill-rule:evenodd;stroke:none"
       transform="scale(1.3333333)" />
    <path
       id="path22"
       d="m 1.5944706,-8.3196379 v -1.125 c 1.078125,-0.1054687 1.8164062,-0.28125 2.2382812,-0.515625 0.421875,-0.2343751 0.7382813,-0.8320311 0.9375,-1.7343751 H 5.9538456 V 6.74625e-4 H 4.3718143 V -8.3196379 Z m 0,0"
       style="fill:#000000;fill-opacity:1;fill-rule:nonzero;stroke:none"
       aria-label="1"
       transform="matrix(1.3333333,0,0,1.3333333,351.16701,246.24129)"
       clip-path="url(#clipPath23)" />
  </g>
</svg>
