<?xml version="1.0" encoding="UTF-8" standalone="no"?>
<!-- Created with Inkscape (http://www.inkscape.org/) -->

<svg
   version="1.1"
   id="svg2"
   width="492"
   height="246.66667"
   viewBox="0 0 492 246.66667"
   sodipodi:docname="1wa2uvz5b1zg0.pdf"
   xmlns:inkscape="http://www.inkscape.org/namespaces/inkscape"
   xmlns:sodipodi="http://sodipodi.sourceforge.net/DTD/sodipodi-0.dtd"
   xmlns="http://www.w3.org/2000/svg"
   xmlns:svg="http://www.w3.org/2000/svg">
  <defs
     id="defs6">
    <clipPath
       clipPathUnits="userSpaceOnUse"
       id="clipPath20">
      <path
         d="m 24,117 h 9.84 v 16 H 24 Z"
         id="path18" />
    </clipPath>
    <clipPath
       clipPathUnits="userSpaceOnUse"
       id="clipPath36">
      <path
         d="m 133,39 h 9.801 V 55 H 133 Z"
         id="path34" />
    </clipPath>
    <clipPath
       clipPathUnits="userSpaceOnUse"
       id="clipPath52">
      <path
         d="m 133,155 h 9.801 v 16 H 133 Z"
         id="path50" />
    </clipPath>
    <clipPath
       clipPathUnits="userSpaceOnUse"
       id="clipPath70">
      <path
         d="M 67,58 H 78.961 V 71 H 67 Z"
         id="path68" />
    </clipPath>
    <clipPath
       clipPathUnits="userSpaceOnUse"
       id="clipPath88">
      <path
         d="m 67,134 h 11.961 v 13 H 67 Z"
         id="path86" />
    </clipPath>
    <clipPath
       clipPathUnits="userSpaceOnUse"
       id="clipPath116">
      <path
         d="m 80,172 h 5 v 12.32 h -5 z"
         id="path114" />
    </clipPath>
    <clipPath
       clipPathUnits="userSpaceOnUse"
       id="clipPath132">
      <path
         d="m 208,117 h 10.16 v 16 H 208 Z"
         id="path130" />
    </clipPath>
    <clipPath
       clipPathUnits="userSpaceOnUse"
       id="clipPath148">
      <path
         d="m 317,39 h 10.121 V 55 H 317 Z"
         id="path146" />
    </clipPath>
    <clipPath
       clipPathUnits="userSpaceOnUse"
       id="clipPath164">
      <path
         d="m 317,155 h 10.121 v 16 H 317 Z"
         id="path162" />
    </clipPath>
    <clipPath
       clipPathUnits="userSpaceOnUse"
       id="clipPath198">
      <path
         d="m 304,96 h 11.84 v 13 H 304 Z"
         id="path196" />
    </clipPath>
    <clipPath
       clipPathUnits="userSpaceOnUse"
       id="clipPath218">
      <path
         d="m 263,172 h 10 v 12.32 h -10 z"
         id="path216" />
    </clipPath>
  </defs>
  <sodipodi:namedview
     id="namedview4"
     pagecolor="#ffffff"
     bordercolor="#999999"
     borderopacity="1"
     inkscape:showpageshadow="0"
     inkscape:pageopacity="0"
     inkscape:pagecheckerboard="0"
     inkscape:deskcolor="#d1d1d1" />
  <g
     id="g8"
     inkscape:groupmode="layer"
     inkscape:label="1wa2uvz5b1zg0"
     transform="matrix(1.3333333,0,0,1.3333333,0,9.5e-6)">
    <g
       id="g10">
      <path
         d="m 54.457,100.539 -0.836,-0.695 -0.84,-0.617 -0.836,-0.469 -0.84,-0.266 -0.835,-0.031 -0.84,0.199 -0.836,0.414 -0.84,0.582 -0.836,0.68 -0.84,0.703 -0.836,0.649 -0.836,0.515 -0.84,0.328 -0.836,0.102 -0.839,-0.133 -0.836,-0.359 -0.84,-0.539 -0.836,-0.661 -0.84,-0.703 -0.836,-0.672 -0.84,-0.558 -0.836,-0.387 -0.839,-0.172 -0.836,0.071 -0.84,0.296 -0.836,0.493 -0.84,0.632 -0.836,0.7 -0.84,0.691 -0.836,0.598 -0.84,0.441 -0.836,0.234 h -0.839 l -0.836,-0.234 -0.84,-0.441 -0.836,-0.598 -0.84,-0.691 -0.836,-0.7 -0.836,-0.632 -0.84,-0.493 -0.836,-0.296 -0.839,-0.071 -0.836,0.172 -0.84,0.387 -0.836,0.558 -0.84,0.672 -0.836,0.703 -0.84,0.661 -0.836,0.539 -0.84,0.359 -0.836,0.133 -0.839,-0.102 -0.836,-0.328 -0.84,-0.515 -0.836,-0.649 -0.84,-0.703 L 6.703,99.656 5.863,99.074 5.027,98.66 4.188,98.461 3.352,98.492 2.516,98.758 1.676,99.227 0.84,99.844 0,100.539"
         style="fill:none;stroke:#000000;stroke-width:0.9216;stroke-linecap:square;stroke-linejoin:miter;stroke-miterlimit:3.25;stroke-dasharray:none;stroke-opacity:1"
         id="path12" />
    </g>
    <g
       id="g14">
      <g
         id="g16"
         clip-path="url(#clipPath20)">
        <text
           xml:space="preserve"
           transform="translate(21.650966,128.41036)"
           style="font-variant:normal;font-size:20.16px;font-family:CairoFont-0;-inkscape-font-specification:CairoFont-0-1;writing-mode:lr-tb;fill:#000000;fill-opacity:1;fill-rule:nonzero;stroke:none"
           id="text24"><tspan
             x="0"
             y="0"
             id="tspan22">γ</tspan></text>
      </g>
    </g>
    <g
       id="g26">
      <path
         d="m 108.918,67.027 0.953,0.692 0.934,0.566 0.902,0.32 0.855,0.012 0.809,-0.324 0.766,-0.621 0.734,-0.844 0.723,-0.945 0.722,-0.918 0.746,-0.758 0.786,-0.5 0.828,-0.176 0.879,0.157 0.918,0.441 0.945,0.637 0.957,0.714 0.949,0.653 0.922,0.465 0.879,0.191 0.836,-0.137 0.789,-0.464 0.75,-0.735 0.727,-0.906 0.718,-0.949 0.731,-0.86 0.762,-0.652 0.804,-0.359 0.852,-0.028 0.894,0.293 0.934,0.539 0.953,0.688 0.957,0.703 0.938,0.586 0.906,0.351 0.859,0.047 0.817,-0.285 0.769,-0.594 0.734,-0.824 0.723,-0.941 0.723,-0.926 0.742,-0.781 0.781,-0.532 0.824,-0.211 0.872,0.118 0.914,0.414 0.941,0.621 0.957,0.711 0.949,0.664 0.926,0.496 0.887,0.223 0.844,-0.098 0.792,-0.43 0.754,-0.707 0.727,-0.894 0.719,-0.95 0.73,-0.878 0.758,-0.68 0.797,-0.395 0.847,-0.062 0.891,0.258 0.93,0.519 0.953,0.676 0.953,0.707 0.941,0.605 0.911,0.383 0.867,0.082 0.82,-0.25 0.774,-0.558 0.742,-0.805 0.718,-0.934"
         style="fill:none;stroke:#000000;stroke-width:0.9216;stroke-linecap:square;stroke-linejoin:miter;stroke-miterlimit:3.25;stroke-dasharray:none;stroke-opacity:1"
         id="path28" />
    </g>
    <g
       id="g30">
      <g
         id="g32"
         clip-path="url(#clipPath36)">
        <text
           xml:space="preserve"
           transform="translate(130.82535,50.313449)"
           style="font-variant:normal;font-size:20.16px;font-family:CairoFont-0;-inkscape-font-specification:CairoFont-0-1;writing-mode:lr-tb;fill:#000000;fill-opacity:1;fill-rule:nonzero;stroke:none"
           id="text40"><tspan
             x="0"
             y="0"
             id="tspan38">γ</tspan></text>
      </g>
    </g>
    <g
       id="g42">
      <path
         d="m 108.918,134.051 0.719,0.933 0.742,0.805 0.773,0.563 0.821,0.25 0.867,-0.086 0.91,-0.383 0.941,-0.606 0.954,-0.707 0.953,-0.675 0.929,-0.52 0.891,-0.258 0.848,0.063 0.796,0.394 0.758,0.684 0.731,0.875 0.719,0.953 0.726,0.891 0.754,0.707 0.793,0.429 0.84,0.102 0.887,-0.227 0.925,-0.492 0.953,-0.668 0.954,-0.707 0.945,-0.625 0.914,-0.41 0.871,-0.121 0.824,0.211 0.782,0.531 0.742,0.781 0.722,0.926 0.719,0.941 0.738,0.825 0.77,0.593 0.816,0.289 0.86,-0.046 0.906,-0.356 0.937,-0.586 0.957,-0.699 0.954,-0.687 0.933,-0.543 0.895,-0.293 0.851,0.027 0.805,0.359 0.762,0.653 0.73,0.863 0.719,0.949 0.726,0.902 0.75,0.735 0.79,0.465 0.835,0.136 0.879,-0.187 0.922,-0.469 0.949,-0.652 0.957,-0.711 0.946,-0.641 0.918,-0.441 0.879,-0.152 0.828,0.175 0.785,0.496 0.746,0.758 0.723,0.918 0.718,0.945 0.735,0.844 0.769,0.625 0.809,0.321 0.855,-0.008 0.899,-0.324 0.937,-0.563 0.953,-0.695"
         style="fill:none;stroke:#000000;stroke-width:0.9216;stroke-linecap:square;stroke-linejoin:miter;stroke-miterlimit:3.25;stroke-dasharray:none;stroke-opacity:1"
         id="path44" />
    </g>
    <g
       id="g46">
      <g
         id="g48"
         clip-path="url(#clipPath52)">
        <text
           xml:space="preserve"
           transform="translate(130.82535,165.98166)"
           style="font-variant:normal;font-size:20.16px;font-family:CairoFont-0;-inkscape-font-specification:CairoFont-0-1;writing-mode:lr-tb;fill:#000000;fill-opacity:1;fill-rule:nonzero;stroke:none"
           id="text56"><tspan
             x="0"
             y="0"
             id="tspan54">γ</tspan></text>
      </g>
    </g>
    <g
       id="g58">
      <path
         d="M 54.457,100.539 108.918,67.027"
         style="fill:none;stroke:#000000;stroke-width:0.9216;stroke-linecap:square;stroke-linejoin:miter;stroke-miterlimit:3.25;stroke-dasharray:none;stroke-opacity:1"
         id="path60" />
      <path
         d="M 77.406,86.418 87.727,84 84.211,78.293 Z"
         style="fill:#000000;fill-opacity:1;fill-rule:evenodd;stroke:none"
         id="path62" />
    </g>
    <g
       id="g64">
      <g
         id="g66"
         clip-path="url(#clipPath70)">
        <text
           xml:space="preserve"
           transform="translate(66.036004,70.197784)"
           style="font-variant:normal;font-size:21.12px;font-family:CairoFont-1;-inkscape-font-specification:CairoFont-1-0;writing-mode:lr-tb;fill:#000000;fill-opacity:1;fill-rule:nonzero;stroke:none"
           id="text74"><tspan
             x="0"
             y="0"
             id="tspan72">e</tspan></text>
      </g>
    </g>
    <g
       id="g76">
      <path
         d="m 54.457,100.539 54.461,33.512"
         style="fill:none;stroke:#000000;stroke-width:0.9216;stroke-linecap:square;stroke-linejoin:miter;stroke-miterlimit:3.25;stroke-dasharray:none;stroke-opacity:1"
         id="path78" />
      <path
         d="m 85.969,119.93 -10.321,-2.414 3.516,-5.711 z"
         style="fill:#000000;fill-opacity:1;fill-rule:evenodd;stroke:none"
         id="path80" />
    </g>
    <g
       id="g82">
      <g
         id="g84"
         clip-path="url(#clipPath88)">
        <text
           xml:space="preserve"
           transform="translate(66.036004,146.09733)"
           style="font-variant:normal;font-size:21.12px;font-family:CairoFont-1;-inkscape-font-specification:CairoFont-1-0;writing-mode:lr-tb;fill:#000000;fill-opacity:1;fill-rule:nonzero;stroke:none"
           id="text92"><tspan
             x="0"
             y="0"
             id="tspan90">e</tspan></text>
      </g>
    </g>
    <g
       id="g94">
      <path
         d="m 108.918,67.027 v 67.024"
         style="fill:none;stroke:#000000;stroke-width:0.9216;stroke-linecap:square;stroke-linejoin:miter;stroke-miterlimit:3.25;stroke-dasharray:none;stroke-opacity:1"
         id="path96" />
      <path
         d="m 108.918,95.512 -3.352,10.054 h 6.704 z"
         style="fill:#000000;fill-opacity:1;fill-rule:evenodd;stroke:none"
         id="path98" />
      <text
         xml:space="preserve"
         transform="translate(118.54541,108.14756)"
         style="font-variant:normal;font-size:21.12px;font-family:CairoFont-1;-inkscape-font-specification:CairoFont-1-0;writing-mode:lr-tb;fill:#000000;fill-opacity:1;fill-rule:nonzero;stroke:none"
         id="text102"><tspan
           x="0"
           y="0"
           id="tspan100">e</tspan></text>
      <path
         d="m 58.145,100.539 c 0,0.977 -0.387,1.914 -1.079,2.606 -0.691,0.691 -1.628,1.078 -2.609,1.078 -0.977,0 -1.914,-0.387 -2.605,-1.078 -0.692,-0.692 -1.079,-1.629 -1.079,-2.606 0,-0.98 0.387,-1.918 1.079,-2.609 0.691,-0.692 1.628,-1.078 2.605,-1.078 0.981,0 1.918,0.386 2.609,1.078 0.692,0.691 1.079,1.629 1.079,2.609 z"
         style="fill:#000000;fill-opacity:1;fill-rule:evenodd;stroke:none"
         id="path104" />
      <path
         d="m 112.602,67.027 c 0,0.977 -0.387,1.914 -1.079,2.606 -0.691,0.691 -1.628,1.078 -2.605,1.078 -0.98,0 -1.918,-0.387 -2.609,-1.078 -0.692,-0.692 -1.079,-1.629 -1.079,-2.606 0,-0.98 0.387,-1.918 1.079,-2.609 0.691,-0.691 1.629,-1.078 2.609,-1.078 0.977,0 1.914,0.387 2.605,1.078 0.692,0.691 1.079,1.629 1.079,2.609 z"
         style="fill:#000000;fill-opacity:1;fill-rule:evenodd;stroke:none"
         id="path106" />
      <path
         d="m 112.602,134.051 c 0,0.976 -0.387,1.914 -1.079,2.605 -0.691,0.692 -1.628,1.082 -2.605,1.082 -0.98,0 -1.918,-0.39 -2.609,-1.082 -0.692,-0.691 -1.079,-1.629 -1.079,-2.605 0,-0.977 0.387,-1.914 1.079,-2.606 0.691,-0.691 1.629,-1.082 2.609,-1.082 0.977,0 1.914,0.391 2.605,1.082 0.692,0.692 1.079,1.629 1.079,2.606 z"
         style="fill:#000000;fill-opacity:1;fill-rule:evenodd;stroke:none"
         id="path108" />
    </g>
    <g
       id="g110">
      <g
         id="g112"
         clip-path="url(#clipPath116)">
        <text
           xml:space="preserve"
           transform="translate(79.055256,184.68097)"
           style="font-variant:normal;font-size:16.8px;font-family:CairoFont-2;-inkscape-font-specification:CairoFont-2-0;writing-mode:lr-tb;fill:#000000;fill-opacity:1;fill-rule:nonzero;stroke:none"
           id="text120"><tspan
             x="0"
             y="0"
             id="tspan118">1</tspan></text>
      </g>
    </g>
    <g
       id="g122">
      <path
         d="m 238.777,100.539 -0.836,-0.695 -0.839,-0.617 -0.836,-0.469 -0.84,-0.266 -0.836,-0.031 -0.84,0.199 -0.836,0.414 -0.84,0.582 -0.836,0.68 -0.84,0.703 -0.836,0.649 -0.839,0.515 -0.836,0.328 -0.836,0.102 -0.84,-0.133 -0.836,-0.359 -0.84,-0.539 -0.836,-0.661 -0.84,-0.703 -0.836,-0.672 -0.839,-0.558 -0.836,-0.387 -0.84,-0.172 -0.836,0.071 -0.84,0.296 -0.836,0.493 -0.84,0.632 -0.836,0.7 -0.84,0.691 -0.835,0.598 -0.84,0.441 -0.836,0.234 h -0.84 l -0.836,-0.234 -0.84,-0.441 -0.836,-0.598 -0.84,-0.691 -0.836,-0.7 -0.839,-0.632 -0.836,-0.493 -0.84,-0.296 -0.836,-0.071 -0.836,0.172 -0.84,0.387 -0.836,0.558 -0.84,0.672 -0.836,0.703 -0.84,0.661 -0.835,0.539 -0.84,0.359 -0.836,0.133 -0.84,-0.102 -0.836,-0.328 -0.84,-0.515 -0.836,-0.649 -0.84,-0.703 -0.836,-0.68 -0.839,-0.582 -0.836,-0.414 -0.84,-0.199 -0.836,0.031 -0.84,0.266 -0.836,0.469 -0.84,0.617 -0.836,0.695"
         style="fill:none;stroke:#000000;stroke-width:0.9216;stroke-linecap:square;stroke-linejoin:miter;stroke-miterlimit:3.25;stroke-dasharray:none;stroke-opacity:1"
         id="path124" />
    </g>
    <g
       id="g126">
      <g
         id="g128"
         clip-path="url(#clipPath132)">
        <text
           xml:space="preserve"
           transform="translate(205.97097,128.41036)"
           style="font-variant:normal;font-size:20.16px;font-family:CairoFont-0;-inkscape-font-specification:CairoFont-0-1;writing-mode:lr-tb;fill:#000000;fill-opacity:1;fill-rule:nonzero;stroke:none"
           id="text136"><tspan
             x="0"
             y="0"
             id="tspan134">γ</tspan></text>
      </g>
    </g>
    <g
       id="g138">
      <path
         d="m 293.238,67.027 0.953,0.692 0.934,0.566 0.902,0.32 0.856,0.012 0.808,-0.324 0.766,-0.621 0.734,-0.844 0.723,-0.945 0.723,-0.918 0.746,-0.758 0.785,-0.5 0.828,-0.176 0.879,0.157 0.918,0.441 0.945,0.637 0.957,0.714 0.946,0.653 0.921,0.465 0.883,0.191 0.836,-0.137 0.789,-0.464 0.75,-0.735 0.727,-0.906 0.719,-0.949 0.73,-0.86 0.762,-0.652 0.804,-0.359 0.852,-0.028 0.895,0.293 0.933,0.539 0.953,0.688 0.953,0.703 0.942,0.586 0.906,0.351 0.859,0.047 0.813,-0.285 0.773,-0.594 0.735,-0.824 0.722,-0.941 0.723,-0.926 0.742,-0.781 0.782,-0.532 0.824,-0.211 0.871,0.118 0.914,0.414 0.941,0.621 0.957,0.711 0.95,0.664 0.925,0.496 0.887,0.223 0.844,-0.098 0.793,-0.43 0.754,-0.707 0.726,-0.894 0.719,-0.95 0.73,-0.878 0.758,-0.68 0.797,-0.395 0.848,-0.062 0.89,0.258 0.93,0.519 0.953,0.676 0.953,0.707 0.942,0.605 0.91,0.383 0.867,0.082 0.82,-0.25 0.774,-0.558 0.738,-0.805 0.723,-0.934"
         style="fill:none;stroke:#000000;stroke-width:0.9216;stroke-linecap:square;stroke-linejoin:miter;stroke-miterlimit:3.25;stroke-dasharray:none;stroke-opacity:1"
         id="path140" />
    </g>
    <g
       id="g142">
      <g
         id="g144"
         clip-path="url(#clipPath148)">
        <text
           xml:space="preserve"
           transform="translate(315.14535,50.313449)"
           style="font-variant:normal;font-size:20.16px;font-family:CairoFont-0;-inkscape-font-specification:CairoFont-0-1;writing-mode:lr-tb;fill:#000000;fill-opacity:1;fill-rule:nonzero;stroke:none"
           id="text152"><tspan
             x="0"
             y="0"
             id="tspan150">γ</tspan></text>
      </g>
    </g>
    <g
       id="g154">
      <path
         d="m 293.238,134.051 0.719,0.933 0.742,0.805 0.774,0.563 0.82,0.25 0.867,-0.086 0.91,-0.383 0.942,-0.606 0.953,-0.707 0.953,-0.675 0.93,-0.52 0.89,-0.258 0.844,0.063 0.801,0.394 0.758,0.684 0.73,0.875 0.719,0.953 0.726,0.891 0.754,0.707 0.793,0.429 0.84,0.102 0.887,-0.227 0.926,-0.492 0.949,-0.668 0.957,-0.707 0.945,-0.625 0.914,-0.41 0.871,-0.121 0.825,0.211 0.781,0.531 0.742,0.781 0.723,0.926 0.718,0.941 0.739,0.825 0.769,0.593 0.817,0.289 0.859,-0.046 0.906,-0.356 0.938,-0.586 0.957,-0.699 0.953,-0.687 0.93,-0.543 0.898,-0.293 0.852,0.027 0.804,0.359 0.762,0.653 0.73,0.863 0.719,0.949 0.727,0.902 0.75,0.735 0.789,0.465 0.832,0.136 0.883,-0.187 0.922,-0.469 0.949,-0.652 0.957,-0.711 0.945,-0.641 0.918,-0.441 0.879,-0.152 0.828,0.175 0.785,0.496 0.746,0.758 0.723,0.918 0.719,0.945 0.734,0.844 0.766,0.625 0.808,0.321 0.86,-0.008 0.898,-0.324 0.938,-0.563 0.953,-0.695"
         style="fill:none;stroke:#000000;stroke-width:0.9216;stroke-linecap:square;stroke-linejoin:miter;stroke-miterlimit:3.25;stroke-dasharray:none;stroke-opacity:1"
         id="path156" />
    </g>
    <g
       id="g158">
      <g
         id="g160"
         clip-path="url(#clipPath164)">
        <text
           xml:space="preserve"
           transform="translate(315.14535,165.98166)"
           style="font-variant:normal;font-size:20.16px;font-family:CairoFont-0;-inkscape-font-specification:CairoFont-0-1;writing-mode:lr-tb;fill:#000000;fill-opacity:1;fill-rule:nonzero;stroke:none"
           id="text168"><tspan
             x="0"
             y="0"
             id="tspan166">γ</tspan></text>
      </g>
    </g>
    <g
       id="g170">
      <path
         d="M 238.777,100.539 293.238,67.027"
         style="fill:none;stroke:#000000;stroke-width:0.9216;stroke-linecap:square;stroke-linejoin:miter;stroke-miterlimit:3.25;stroke-dasharray:none;stroke-opacity:1"
         id="path172" />
      <path
         d="m 270.289,81.148 -6.805,8.122 -3.515,-5.708 z"
         style="fill:#000000;fill-opacity:1;fill-rule:evenodd;stroke:none"
         id="path174" />
      <text
         xml:space="preserve"
         transform="translate(250.356,70.197784)"
         style="font-variant:normal;font-size:21.12px;font-family:CairoFont-1;-inkscape-font-specification:CairoFont-1-0;writing-mode:lr-tb;fill:#000000;fill-opacity:1;fill-rule:nonzero;stroke:none"
         id="text178"><tspan
           x="0"
           y="0"
           id="tspan176">e</tspan></text>
      <path
         d="m 238.777,100.539 54.461,33.512"
         style="fill:none;stroke:#000000;stroke-width:0.9216;stroke-linecap:square;stroke-linejoin:miter;stroke-miterlimit:3.25;stroke-dasharray:none;stroke-opacity:1"
         id="path180" />
      <path
         d="m 261.727,114.66 6.804,8.125 3.512,-5.711 z"
         style="fill:#000000;fill-opacity:1;fill-rule:evenodd;stroke:none"
         id="path182" />
      <text
         xml:space="preserve"
         transform="translate(250.356,146.09733)"
         style="font-variant:normal;font-size:21.12px;font-family:CairoFont-1;-inkscape-font-specification:CairoFont-1-0;writing-mode:lr-tb;fill:#000000;fill-opacity:1;fill-rule:nonzero;stroke:none"
         id="text186"><tspan
           x="0"
           y="0"
           id="tspan184">e</tspan></text>
      <path
         d="m 293.238,67.027 v 67.024"
         style="fill:none;stroke:#000000;stroke-width:0.9216;stroke-linecap:square;stroke-linejoin:miter;stroke-miterlimit:3.25;stroke-dasharray:none;stroke-opacity:1"
         id="path188" />
      <path
         d="m 293.238,105.566 -3.351,-10.054 h 6.699 z"
         style="fill:#000000;fill-opacity:1;fill-rule:evenodd;stroke:none"
         id="path190" />
    </g>
    <g
       id="g192">
      <g
         id="g194"
         clip-path="url(#clipPath198)">
        <text
           xml:space="preserve"
           transform="translate(302.86541,108.14756)"
           style="font-variant:normal;font-size:21.12px;font-family:CairoFont-1;-inkscape-font-specification:CairoFont-1-0;writing-mode:lr-tb;fill:#000000;fill-opacity:1;fill-rule:nonzero;stroke:none"
           id="text202"><tspan
             x="0"
             y="0"
             id="tspan200">e</tspan></text>
      </g>
    </g>
    <g
       id="g204">
      <path
         d="m 242.465,100.539 c 0,0.977 -0.387,1.914 -1.078,2.606 -0.692,0.691 -1.629,1.078 -2.61,1.078 -0.976,0 -1.914,-0.387 -2.605,-1.078 -0.692,-0.692 -1.082,-1.629 -1.082,-2.606 0,-0.98 0.39,-1.918 1.082,-2.609 0.691,-0.692 1.629,-1.078 2.605,-1.078 0.981,0 1.918,0.386 2.61,1.078 0.691,0.691 1.078,1.629 1.078,2.609 z"
         style="fill:#000000;fill-opacity:1;fill-rule:evenodd;stroke:none"
         id="path206" />
      <path
         d="m 296.922,67.027 c 0,0.977 -0.387,1.914 -1.078,2.606 -0.692,0.691 -1.629,1.078 -2.606,1.078 -0.98,0 -1.918,-0.387 -2.609,-1.078 -0.691,-0.692 -1.078,-1.629 -1.078,-2.606 0,-0.98 0.387,-1.918 1.078,-2.609 0.691,-0.691 1.629,-1.078 2.609,-1.078 0.977,0 1.914,0.387 2.606,1.078 0.691,0.691 1.078,1.629 1.078,2.609 z"
         style="fill:#000000;fill-opacity:1;fill-rule:evenodd;stroke:none"
         id="path208" />
      <path
         d="m 296.922,134.051 c 0,0.976 -0.387,1.914 -1.078,2.605 -0.692,0.692 -1.629,1.082 -2.606,1.082 -0.98,0 -1.918,-0.39 -2.609,-1.082 -0.691,-0.691 -1.078,-1.629 -1.078,-2.605 0,-0.977 0.387,-1.914 1.078,-2.606 0.691,-0.691 1.629,-1.082 2.609,-1.082 0.977,0 1.914,0.391 2.606,1.082 0.691,0.692 1.078,1.629 1.078,2.606 z"
         style="fill:#000000;fill-opacity:1;fill-rule:evenodd;stroke:none"
         id="path210" />
    </g>
    <g
       id="g212">
      <g
         id="g214"
         clip-path="url(#clipPath218)">
        <text
           xml:space="preserve"
           transform="translate(263.37526,184.68097)"
           style="font-variant:normal;font-size:16.8px;font-family:CairoFont-2;-inkscape-font-specification:CairoFont-2-0;writing-mode:lr-tb;fill:#000000;fill-opacity:1;fill-rule:nonzero;stroke:none"
           id="text222"><tspan
             x="0"
             y="0"
             id="tspan220">2</tspan></text>
      </g>
    </g>
  </g>
</svg>
