<?xml version="1.0" encoding="UTF-8" standalone="no"?>
<!-- Created with Inkscape (http://www.inkscape.org/) -->

<svg
   version="1.1"
   id="svg2"
   width="984"
   height="246.66667"
   viewBox="0 0 984 246.66667"
   sodipodi:docname="1wa4ki0603b5t.pdf"
   xmlns:inkscape="http://www.inkscape.org/namespaces/inkscape"
   xmlns:sodipodi="http://sodipodi.sourceforge.net/DTD/sodipodi-0.dtd"
   xmlns="http://www.w3.org/2000/svg"
   xmlns:svg="http://www.w3.org/2000/svg">
  <defs
     id="defs6">
    <clipPath
       clipPathUnits="userSpaceOnUse"
       id="clipPath52">
      <path
         d="m 53,109 h 7.719 v 11 H 53 Z"
         id="path50" />
    </clipPath>
    <clipPath
       clipPathUnits="userSpaceOnUse"
       id="clipPath70">
      <path
         d="m 53,146 h 4 v 7.602 h -4 z"
         id="path68" />
    </clipPath>
    <clipPath
       clipPathUnits="userSpaceOnUse"
       id="clipPath126">
      <path
         d="m 176,146 h 6 v 7.602 h -6 z"
         id="path124" />
    </clipPath>
  </defs>
  <sodipodi:namedview
     id="namedview4"
     pagecolor="#ffffff"
     bordercolor="#999999"
     borderopacity="1"
     inkscape:showpageshadow="0"
     inkscape:pageopacity="0"
     inkscape:pagecheckerboard="0"
     inkscape:deskcolor="#d1d1d1" />
  <g
     id="g8"
     inkscape:groupmode="layer"
     inkscape:label="1wa4ki0603b5t"
     transform="matrix(1.3333333,0,0,1.3333333,0,9.5e-6)">
    <g
       id="g10">
      <path
         d="m 0,69.816 33.512,27.93"
         style="fill:none;stroke:#000000;stroke-width:0.6144;stroke-linecap:square;stroke-linejoin:miter;stroke-miterlimit:3.25;stroke-dasharray:none;stroke-opacity:1"
         id="path12" />
      <path
         d="m 19.332,85.926 -6.582,-2.574 2.863,-3.43 z"
         style="fill:#000000;fill-opacity:1;fill-rule:evenodd;stroke:none"
         id="path14" />
      <text
         xml:space="preserve"
         transform="translate(6.339735,100.35145)"
         style="font-variant:normal;font-size:14.16px;font-family:CairoFont-0;-inkscape-font-specification:CairoFont-0-0;writing-mode:lr-tb;fill:#000000;fill-opacity:1;fill-rule:nonzero;stroke:none"
         id="text18"><tspan
           x="0"
           y="0"
           id="tspan16">e</tspan></text>
      <path
         d="M 0,125.672 33.512,97.746"
         style="fill:none;stroke:#000000;stroke-width:0.6144;stroke-linecap:square;stroke-linejoin:miter;stroke-miterlimit:3.25;stroke-dasharray:none;stroke-opacity:1"
         id="path20" />
      <path
         d="m 14.184,113.855 6.578,-2.574 -2.86,-3.433 z"
         style="fill:#000000;fill-opacity:1;fill-rule:evenodd;stroke:none"
         id="path22" />
      <text
         xml:space="preserve"
         transform="translate(18.920648,128.27872)"
         style="font-variant:normal;font-size:14.16px;font-family:CairoFont-0;-inkscape-font-specification:CairoFont-0-0;writing-mode:lr-tb;fill:#000000;fill-opacity:1;fill-rule:nonzero;stroke:none"
         id="text26"><tspan
           x="0"
           y="0"
           id="tspan24">e</tspan></text>
      <path
         d="M 111.711,69.816 78.195,97.746"
         style="fill:none;stroke:#000000;stroke-width:0.6144;stroke-linecap:square;stroke-linejoin:miter;stroke-miterlimit:3.25;stroke-dasharray:none;stroke-opacity:1"
         id="path28" />
      <path
         d="m 97.527,81.637 -6.578,2.574 2.86,3.434 z"
         style="fill:#000000;fill-opacity:1;fill-rule:evenodd;stroke:none"
         id="path30" />
      <text
         xml:space="preserve"
         transform="translate(84.536099,77.35281)"
         style="font-variant:normal;font-size:14.16px;font-family:CairoFont-0;-inkscape-font-specification:CairoFont-0-0;writing-mode:lr-tb;fill:#000000;fill-opacity:1;fill-rule:nonzero;stroke:none"
         id="text34"><tspan
           x="0"
           y="0"
           id="tspan32">e</tspan></text>
      <path
         d="M 111.711,125.672 78.195,97.746"
         style="fill:none;stroke:#000000;stroke-width:0.6144;stroke-linecap:square;stroke-linejoin:miter;stroke-miterlimit:3.25;stroke-dasharray:none;stroke-opacity:1"
         id="path36" />
      <path
         d="m 92.379,109.562 6.578,2.575 -2.859,3.433 z"
         style="fill:#000000;fill-opacity:1;fill-rule:evenodd;stroke:none"
         id="path38" />
      <text
         xml:space="preserve"
         transform="translate(97.117012,105.28008)"
         style="font-variant:normal;font-size:14.16px;font-family:CairoFont-0;-inkscape-font-specification:CairoFont-0-0;writing-mode:lr-tb;fill:#000000;fill-opacity:1;fill-rule:nonzero;stroke:none"
         id="text42"><tspan
           x="0"
           y="0"
           id="tspan40">e</tspan></text>
      <path
         d="m 78.195,97.746 -0.558,-0.484 -0.559,-0.422 -0.558,-0.313 -0.559,-0.16 -0.559,0.008 -0.558,0.18 -0.559,0.328 -0.558,0.433 -0.559,0.485 -0.559,0.48 -0.558,0.414 -0.559,0.297 -0.558,0.141 -0.559,-0.028 -0.559,-0.199 -0.558,-0.34 -0.559,-0.441 -0.558,-0.488 -0.559,-0.473 -0.559,-0.406 -0.558,-0.278 -0.555,-0.125 -0.558,0.047 -0.559,0.215 -0.559,0.356 -0.558,0.449 -0.559,0.488 -0.558,0.473 -0.559,0.39 -0.559,0.266 -0.558,0.106 -0.559,-0.071 -0.558,-0.23 -0.559,-0.367 -0.559,-0.457 -0.558,-0.493 -0.559,-0.461 -0.558,-0.378 -0.559,-0.25 -0.559,-0.086 -0.558,0.086 -0.559,0.25 -0.558,0.378 -0.559,0.461 -0.559,0.493 -0.558,0.457 -0.559,0.367 -0.558,0.23 -0.559,0.071 -0.558,-0.106 -0.559,-0.266 -0.559,-0.39 -0.558,-0.473 -0.559,-0.488 -0.558,-0.449 -0.559,-0.356 -0.559,-0.215 -0.558,-0.047 -0.559,0.125 -0.558,0.278 -0.559,0.406 -0.559,0.473 -0.558,0.488 -0.559,0.441 -0.558,0.34 -0.559,0.199 -0.559,0.028 -0.558,-0.141 -0.559,-0.297 -0.558,-0.414 -0.559,-0.48 -0.559,-0.485 -0.558,-0.433 -0.559,-0.328 -0.558,-0.18 -0.559,-0.008 -0.558,0.16 -0.559,0.313 -0.559,0.422 -0.558,0.484"
         style="fill:none;stroke:#000000;stroke-width:0.6144;stroke-linecap:square;stroke-linejoin:miter;stroke-miterlimit:3.25;stroke-dasharray:none;stroke-opacity:1"
         id="path44" />
    </g>
    <g
       id="g46">
      <g
         id="g48"
         clip-path="url(#clipPath52)">
        <text
           xml:space="preserve"
           transform="translate(51.948295,116.3217)"
           style="font-variant:normal;font-size:13.68px;font-family:CairoFont-1;-inkscape-font-specification:CairoFont-1-1;writing-mode:lr-tb;fill:#000000;fill-opacity:1;fill-rule:nonzero;stroke:none"
           id="text56"><tspan
             x="0"
             y="0"
             id="tspan54">γ</tspan></text>
      </g>
    </g>
    <g
       id="g58">
      <path
         d="m 35.969,97.746 c 0,0.652 -0.258,1.277 -0.719,1.738 -0.461,0.461 -1.086,0.719 -1.738,0.719 -0.653,0 -1.278,-0.258 -1.739,-0.719 -0.461,-0.461 -0.718,-1.086 -0.718,-1.738 0,-0.652 0.257,-1.277 0.718,-1.738 0.461,-0.461 1.086,-0.719 1.739,-0.719 0.652,0 1.277,0.258 1.738,0.719 0.461,0.461 0.719,1.086 0.719,1.738 z"
         style="fill:#000000;fill-opacity:1;fill-rule:evenodd;stroke:none"
         id="path60" />
      <path
         d="m 80.652,97.746 c 0,0.652 -0.257,1.277 -0.718,1.738 -0.461,0.461 -1.086,0.719 -1.739,0.719 -0.652,0 -1.277,-0.258 -1.738,-0.719 -0.461,-0.461 -0.719,-1.086 -0.719,-1.738 0,-0.652 0.258,-1.277 0.719,-1.738 0.461,-0.461 1.086,-0.719 1.738,-0.719 0.653,0 1.278,0.258 1.739,0.719 0.461,0.461 0.718,1.086 0.718,1.738 z"
         style="fill:#000000;fill-opacity:1;fill-rule:evenodd;stroke:none"
         id="path62" />
    </g>
    <g
       id="g64">
      <g
         id="g66"
         clip-path="url(#clipPath70)">
        <text
           xml:space="preserve"
           transform="translate(52.799858,153.92398)"
           style="font-variant:normal;font-size:11.28px;font-family:CairoFont-2;-inkscape-font-specification:CairoFont-2-0;writing-mode:lr-tb;fill:#000000;fill-opacity:1;fill-rule:nonzero;stroke:none"
           id="text74"><tspan
             x="0"
             y="0"
             id="tspan72">1</tspan></text>
      </g>
    </g>
    <g
       id="g76">
      <path
         d="m 122.879,69.816 55.855,5.586"
         style="fill:none;stroke:#000000;stroke-width:0.6144;stroke-linecap:square;stroke-linejoin:miter;stroke-miterlimit:3.25;stroke-dasharray:none;stroke-opacity:1"
         id="path78" />
      <path
         d="m 154.141,72.945 -6.891,1.555 0.445,-4.445 z"
         style="fill:#000000;fill-opacity:1;fill-rule:evenodd;stroke:none"
         id="path80" />
      <text
         xml:space="preserve"
         transform="translate(145.81965,91.14419)"
         style="font-variant:normal;font-size:14.16px;font-family:CairoFont-0;-inkscape-font-specification:CairoFont-0-0;writing-mode:lr-tb;fill:#000000;fill-opacity:1;fill-rule:nonzero;stroke:none"
         id="text84"><tspan
           x="0"
           y="0"
           id="tspan82">e</tspan></text>
      <path
         d="m 122.879,125.672 55.855,-5.586"
         style="fill:none;stroke:#000000;stroke-width:0.6144;stroke-linecap:square;stroke-linejoin:miter;stroke-miterlimit:3.25;stroke-dasharray:none;stroke-opacity:1"
         id="path86" />
      <path
         d="m 147.473,123.215 6.89,1.555 -0.445,-4.446 z"
         style="fill:#000000;fill-opacity:1;fill-rule:evenodd;stroke:none"
         id="path88" />
      <text
         xml:space="preserve"
         transform="translate(147.54255,141.41328)"
         style="font-variant:normal;font-size:14.16px;font-family:CairoFont-0;-inkscape-font-specification:CairoFont-0-0;writing-mode:lr-tb;fill:#000000;fill-opacity:1;fill-rule:nonzero;stroke:none"
         id="text92"><tspan
           x="0"
           y="0"
           id="tspan90">e</tspan></text>
      <path
         d="m 234.59,69.816 -55.856,5.586"
         style="fill:none;stroke:#000000;stroke-width:0.6144;stroke-linecap:square;stroke-linejoin:miter;stroke-miterlimit:3.25;stroke-dasharray:none;stroke-opacity:1"
         id="path94" />
      <path
         d="m 209.996,72.277 -6.891,-1.554 0.446,4.445 z"
         style="fill:#000000;fill-opacity:1;fill-rule:evenodd;stroke:none"
         id="path96" />
      <text
         xml:space="preserve"
         transform="translate(201.6742,64.218253)"
         style="font-variant:normal;font-size:14.16px;font-family:CairoFont-0;-inkscape-font-specification:CairoFont-0-0;writing-mode:lr-tb;fill:#000000;fill-opacity:1;fill-rule:nonzero;stroke:none"
         id="text100"><tspan
           x="0"
           y="0"
           id="tspan98">e</tspan></text>
      <path
         d="m 234.59,125.672 -55.856,-5.586"
         style="fill:none;stroke:#000000;stroke-width:0.6144;stroke-linecap:square;stroke-linejoin:miter;stroke-miterlimit:3.25;stroke-dasharray:none;stroke-opacity:1"
         id="path102" />
      <path
         d="m 203.328,122.547 6.891,-1.555 -0.446,4.446 z"
         style="fill:#000000;fill-opacity:1;fill-rule:evenodd;stroke:none"
         id="path104" />
      <text
         xml:space="preserve"
         transform="translate(203.39709,114.48734)"
         style="font-variant:normal;font-size:14.16px;font-family:CairoFont-0;-inkscape-font-specification:CairoFont-0-0;writing-mode:lr-tb;fill:#000000;fill-opacity:1;fill-rule:nonzero;stroke:none"
         id="text108"><tspan
           x="0"
           y="0"
           id="tspan106">e</tspan></text>
      <path
         d="m 178.734,120.086 0.485,-0.559 0.422,-0.558 0.312,-0.559 0.16,-0.558 -0.008,-0.559 -0.179,-0.559 -0.328,-0.558 -0.434,-0.559 -0.484,-0.558 -0.481,-0.559 -0.414,-0.555 -0.297,-0.558 -0.14,-0.559 0.027,-0.558 0.195,-0.559 0.344,-0.559 0.441,-0.558 0.489,-0.559 0.472,-0.558 0.403,-0.559 0.281,-0.559 0.125,-0.558 -0.047,-0.559 -0.215,-0.558 -0.355,-0.559 -0.449,-0.559 -0.489,-0.558 -0.472,-0.559 -0.391,-0.558 -0.266,-0.559 -0.105,-0.559 0.07,-0.558 0.231,-0.559 0.367,-0.558 0.457,-0.559 0.488,-0.559 0.465,-0.558 0.379,-0.559 0.25,-0.558 0.086,-0.559 -0.086,-0.558 -0.25,-0.559 -0.379,-0.559 -0.465,-0.558 -0.488,-0.559 -0.457,-0.558 -0.367,-0.559 -0.231,-0.559 -0.07,-0.558 0.105,-0.559 0.266,-0.558 0.391,-0.559 0.472,-0.559 0.489,-0.558 0.449,-0.559 0.355,-0.558 0.215,-0.559 0.047,-0.559 -0.125,-0.558 -0.281,-0.559 -0.403,-0.558 -0.472,-0.559 -0.489,-0.559 -0.441,-0.558 -0.344,-0.559 -0.195,-0.558 -0.027,-0.559 0.14,-0.559 0.297,-0.558 0.414,-0.559 0.481,-0.558 0.484,-0.559 0.434,-0.559 0.328,-0.558 0.179,-0.559 0.008,-0.558 -0.16,-0.559 -0.312,-0.558 -0.422,-0.559 -0.485,-0.559"
         style="fill:none;stroke:#000000;stroke-width:0.6144;stroke-linecap:square;stroke-linejoin:miter;stroke-miterlimit:3.25;stroke-dasharray:none;stroke-opacity:1"
         id="path110" />
      <text
         xml:space="preserve"
         transform="translate(165.64267,102.81577)"
         style="font-variant:normal;font-size:13.68px;font-family:CairoFont-1;-inkscape-font-specification:CairoFont-1-1;writing-mode:lr-tb;fill:#000000;fill-opacity:1;fill-rule:nonzero;stroke:none"
         id="text114"><tspan
           x="0"
           y="0"
           id="tspan112">γ</tspan></text>
      <path
         d="m 181.191,75.402 c 0,0.653 -0.257,1.278 -0.718,1.739 -0.461,0.461 -1.086,0.718 -1.739,0.718 -0.652,0 -1.277,-0.257 -1.738,-0.718 -0.461,-0.461 -0.719,-1.086 -0.719,-1.739 0,-0.652 0.258,-1.277 0.719,-1.738 0.461,-0.461 1.086,-0.719 1.738,-0.719 0.653,0 1.278,0.258 1.739,0.719 0.461,0.461 0.718,1.086 0.718,1.738 z"
         style="fill:#000000;fill-opacity:1;fill-rule:evenodd;stroke:none"
         id="path116" />
      <path
         d="m 181.191,120.086 c 0,0.652 -0.257,1.277 -0.718,1.738 -0.461,0.461 -1.086,0.719 -1.739,0.719 -0.652,0 -1.277,-0.258 -1.738,-0.719 -0.461,-0.461 -0.719,-1.086 -0.719,-1.738 0,-0.652 0.258,-1.277 0.719,-1.738 0.461,-0.461 1.086,-0.719 1.738,-0.719 0.653,0 1.278,0.258 1.739,0.719 0.461,0.461 0.718,1.086 0.718,1.738 z"
         style="fill:#000000;fill-opacity:1;fill-rule:evenodd;stroke:none"
         id="path118" />
    </g>
    <g
       id="g120">
      <g
         id="g122"
         clip-path="url(#clipPath126)">
        <text
           xml:space="preserve"
           transform="translate(175.67986,153.92398)"
           style="font-variant:normal;font-size:11.28px;font-family:CairoFont-2;-inkscape-font-specification:CairoFont-2-0;writing-mode:lr-tb;fill:#000000;fill-opacity:1;fill-rule:nonzero;stroke:none"
           id="text130"><tspan
             x="0"
             y="0"
             id="tspan128">2</tspan></text>
      </g>
    </g>
  </g>
</svg>
