<?xml version="1.0" encoding="UTF-8" standalone="no"?>
<!-- Created with Inkscape (http://www.inkscape.org/) -->

<svg
   version="1.1"
   id="svg2"
   width="492"
   height="246.66667"
   viewBox="0 0 492 246.66667"
   sodipodi:docname="0jo4u11uwj5yd.pdf"
   xmlns:inkscape="http://www.inkscape.org/namespaces/inkscape"
   xmlns:sodipodi="http://sodipodi.sourceforge.net/DTD/sodipodi-0.dtd"
   xmlns="http://www.w3.org/2000/svg"
   xmlns:svg="http://www.w3.org/2000/svg">
  <defs
     id="defs6">
    <clipPath
       clipPathUnits="userSpaceOnUse"
       id="clipPath56">
      <path
         d="m 53,146 h 4 v 7.602 h -4 z"
         id="path54" />
    </clipPath>
    <clipPath
       clipPathUnits="userSpaceOnUse"
       id="clipPath110">
      <path
         d="m 176,146 h 6 v 7.602 h -6 z"
         id="path108" />
    </clipPath>
    <clipPath
       clipPathUnits="userSpaceOnUse"
       id="clipPath164">
      <path
         d="m 298,146 h 7 v 7.602 h -7 z"
         id="path162" />
    </clipPath>
  </defs>
  <sodipodi:namedview
     id="namedview4"
     pagecolor="#ffffff"
     bordercolor="#999999"
     borderopacity="1"
     inkscape:showpageshadow="0"
     inkscape:pageopacity="0"
     inkscape:pagecheckerboard="0"
     inkscape:deskcolor="#d1d1d1" />
  <g
     id="g8"
     inkscape:groupmode="layer"
     inkscape:label="0jo4u11uwj5yd"
     transform="matrix(1.3333333,0,0,1.3333333,0,9.5e-6)">
    <g
       id="g10">
      <path
         d="m 0,69.816 33.512,27.93"
         style="fill:none;stroke:#000000;stroke-width:0.6144;stroke-linecap:square;stroke-linejoin:miter;stroke-miterlimit:3.25;stroke-dasharray:none;stroke-opacity:1"
         id="path12" />
      <path
         d="m 19.332,85.926 -6.582,-2.574 2.863,-3.43 z"
         style="fill:#000000;fill-opacity:1;fill-rule:evenodd;stroke:none"
         id="path14" />
      <text
         xml:space="preserve"
         transform="translate(6.339735,100.35145)"
         style="font-variant:normal;font-size:14.16px;font-family:CairoFont-0;-inkscape-font-specification:CairoFont-0-0;writing-mode:lr-tb;fill:#000000;fill-opacity:1;fill-rule:nonzero;stroke:none"
         id="text18"><tspan
           x="0"
           y="0"
           id="tspan16">e</tspan></text>
      <path
         d="M 0,125.672 33.512,97.746"
         style="fill:none;stroke:#000000;stroke-width:0.6144;stroke-linecap:square;stroke-linejoin:miter;stroke-miterlimit:3.25;stroke-dasharray:none;stroke-opacity:1"
         id="path20" />
      <path
         d="m 14.184,113.855 6.578,-2.574 -2.86,-3.433 z"
         style="fill:#000000;fill-opacity:1;fill-rule:evenodd;stroke:none"
         id="path22" />
      <text
         xml:space="preserve"
         transform="translate(18.920648,128.27872)"
         style="font-variant:normal;font-size:14.16px;font-family:CairoFont-0;-inkscape-font-specification:CairoFont-0-0;writing-mode:lr-tb;fill:#000000;fill-opacity:1;fill-rule:nonzero;stroke:none"
         id="text26"><tspan
           x="0"
           y="0"
           id="tspan24">e</tspan></text>
      <path
         d="m 78.195,97.746 0.746,0.024 0.707,-0.028 0.629,-0.121 0.524,-0.242 0.41,-0.383 0.297,-0.516 0.203,-0.632 0.137,-0.711 0.105,-0.742 0.125,-0.731 0.176,-0.66 0.262,-0.559 0.371,-0.429 0.488,-0.286 0.598,-0.16 0.683,-0.054 0.735,0.011 0.754,0.028 0.722,-0.004 0.656,-0.086 0.563,-0.199 0.449,-0.332 0.332,-0.477 0.235,-0.594 0.152,-0.691 0.226,-1.477 0.153,-0.687 0.23,-0.598 0.332,-0.472 0.45,-0.336 0.562,-0.2 0.66,-0.082 0.723,-0.008 0.75,0.028 0.738,0.012 0.684,-0.051 0.597,-0.16 0.485,-0.289 0.375,-0.426 0.261,-0.559 0.176,-0.664 0.121,-0.726 0.11,-0.743 0.136,-0.711 0.2,-0.632 0.297,-0.516 0.41,-0.383 0.527,-0.242 0.629,-0.121 0.703,-0.027 0.746,0.023 0.75,0.023 0.703,-0.027 0.629,-0.121 0.528,-0.242 0.41,-0.379 0.297,-0.52 0.199,-0.629 0.137,-0.71 0.109,-0.747 0.121,-0.726 0.176,-0.66 0.265,-0.559 0.371,-0.43 0.489,-0.289 0.593,-0.156 0.684,-0.055 0.738,0.012 0.75,0.028 0.723,-0.004 0.66,-0.086 0.563,-0.2 0.449,-0.332 0.332,-0.472 0.23,-0.598 0.157,-0.691 0.113,-0.739"
         style="fill:none;stroke:#000000;stroke-width:0.6144;stroke-linecap:square;stroke-linejoin:miter;stroke-miterlimit:3.25;stroke-dasharray:none;stroke-opacity:1"
         id="path28" />
      <text
         xml:space="preserve"
         transform="translate(82.241568,77.35281)"
         style="font-variant:normal;font-size:14.16px;font-family:CairoFont-0;-inkscape-font-specification:CairoFont-0-0;writing-mode:lr-tb;fill:#000000;fill-opacity:1;fill-rule:nonzero;stroke:none"
         id="text32"><tspan
           x="0"
           y="0"
           id="tspan30">Z</tspan></text>
      <path
         d="m 78.195,97.746 0.114,0.738 0.156,0.688 0.23,0.598 0.332,0.472 0.45,0.336 0.562,0.199 0.656,0.082 0.727,0.008 0.75,-0.031 0.738,-0.008 0.684,0.051 0.594,0.16 0.488,0.289 0.371,0.426 0.265,0.558 0.176,0.661 0.121,0.73 0.11,0.742 0.133,0.711 0.203,0.633 0.297,0.516 0.41,0.383 0.527,0.242 0.629,0.117 0.703,0.027 0.746,-0.019 0.746,-0.024 0.707,0.028 0.629,0.117 0.524,0.246 0.41,0.379 0.301,0.519 0.199,0.629 0.137,0.711 0.109,0.746 0.121,0.727 0.176,0.66 0.262,0.559 0.371,0.429 0.488,0.289 0.598,0.157 0.683,0.054 0.738,-0.011 0.75,-0.028 0.723,0.004 0.66,0.086 0.559,0.199 0.449,0.332 0.336,0.477 0.23,0.594 0.153,0.691 0.226,1.477 0.153,0.687 0.23,0.598 0.336,0.472 0.449,0.336 0.563,0.2 0.656,0.082 0.723,0.007 0.754,-0.027 0.734,-0.012 0.684,0.055 0.597,0.156 0.489,0.289 0.371,0.426 0.261,0.559 0.176,0.664 0.121,0.726 0.11,0.746 0.136,0.707 0.2,0.633 0.296,0.516 0.411,0.383 0.527,0.242 0.629,0.121 0.703,0.027 0.75,-0.023"
         style="fill:none;stroke:#000000;stroke-width:0.6144;stroke-linecap:square;stroke-linejoin:miter;stroke-miterlimit:3.25;stroke-dasharray:none;stroke-opacity:1"
         id="path34" />
      <text
         xml:space="preserve"
         transform="translate(97.117012,105.28008)"
         style="font-variant:normal;font-size:14.16px;font-family:CairoFont-0;-inkscape-font-specification:CairoFont-0-0;writing-mode:lr-tb;fill:#000000;fill-opacity:1;fill-rule:nonzero;stroke:none"
         id="text38"><tspan
           x="0"
           y="0"
           id="tspan36">Z</tspan></text>
      <path
         d="M 33.512,97.746 H 78.195"
         style="fill:none;stroke:#000000;stroke-width:0.6144;stroke-linecap:butt;stroke-linejoin:miter;stroke-miterlimit:3.25;stroke-dasharray:3.6864, 3.6864;stroke-dashoffset:0;stroke-opacity:1"
         id="path40" />
      <text
         xml:space="preserve"
         transform="translate(50.153374,114.92534)"
         style="font-variant:normal;font-size:14.16px;font-family:CairoFont-0;-inkscape-font-specification:CairoFont-0-0;writing-mode:lr-tb;fill:#000000;fill-opacity:1;fill-rule:nonzero;stroke:none"
         id="text44"><tspan
           x="0"
           y="0"
           id="tspan42">H</tspan></text>
      <path
         d="m 35.969,97.746 c 0,0.652 -0.258,1.277 -0.719,1.738 -0.461,0.461 -1.086,0.719 -1.738,0.719 -0.653,0 -1.278,-0.258 -1.739,-0.719 -0.461,-0.461 -0.718,-1.086 -0.718,-1.738 0,-0.652 0.257,-1.277 0.718,-1.738 0.461,-0.461 1.086,-0.719 1.739,-0.719 0.652,0 1.277,0.258 1.738,0.719 0.461,0.461 0.719,1.086 0.719,1.738 z"
         style="fill:#000000;fill-opacity:1;fill-rule:evenodd;stroke:none"
         id="path46" />
      <path
         d="m 80.652,97.746 c 0,0.652 -0.257,1.277 -0.718,1.738 -0.461,0.461 -1.086,0.719 -1.739,0.719 -0.652,0 -1.277,-0.258 -1.738,-0.719 -0.461,-0.461 -0.719,-1.086 -0.719,-1.738 0,-0.652 0.258,-1.277 0.719,-1.738 0.461,-0.461 1.086,-0.719 1.738,-0.719 0.653,0 1.278,0.258 1.739,0.719 0.461,0.461 0.718,1.086 0.718,1.738 z"
         style="fill:#000000;fill-opacity:1;fill-rule:evenodd;stroke:none"
         id="path48" />
    </g>
    <g
       id="g50">
      <g
         id="g52"
         clip-path="url(#clipPath56)">
        <text
           xml:space="preserve"
           transform="translate(52.799858,153.92398)"
           style="font-variant:normal;font-size:11.28px;font-family:CairoFont-1;-inkscape-font-specification:CairoFont-1-0;writing-mode:lr-tb;fill:#000000;fill-opacity:1;fill-rule:nonzero;stroke:none"
           id="text60"><tspan
             x="0"
             y="0"
             id="tspan58">1</tspan></text>
      </g>
    </g>
    <g
       id="g62">
      <path
         d="m 122.879,69.816 55.855,5.586"
         style="fill:none;stroke:#000000;stroke-width:0.6144;stroke-linecap:square;stroke-linejoin:miter;stroke-miterlimit:3.25;stroke-dasharray:none;stroke-opacity:1"
         id="path64" />
      <path
         d="m 154.141,72.945 -6.891,1.555 0.445,-4.445 z"
         style="fill:#000000;fill-opacity:1;fill-rule:evenodd;stroke:none"
         id="path66" />
      <text
         xml:space="preserve"
         transform="translate(145.81965,91.14419)"
         style="font-variant:normal;font-size:14.16px;font-family:CairoFont-0;-inkscape-font-specification:CairoFont-0-0;writing-mode:lr-tb;fill:#000000;fill-opacity:1;fill-rule:nonzero;stroke:none"
         id="text70"><tspan
           x="0"
           y="0"
           id="tspan68">e</tspan></text>
      <path
         d="m 122.879,125.672 55.855,-5.586"
         style="fill:none;stroke:#000000;stroke-width:0.6144;stroke-linecap:square;stroke-linejoin:miter;stroke-miterlimit:3.25;stroke-dasharray:none;stroke-opacity:1"
         id="path72" />
      <path
         d="m 147.473,123.215 6.89,1.555 -0.445,-4.446 z"
         style="fill:#000000;fill-opacity:1;fill-rule:evenodd;stroke:none"
         id="path74" />
      <text
         xml:space="preserve"
         transform="translate(147.54255,141.41328)"
         style="font-variant:normal;font-size:14.16px;font-family:CairoFont-0;-inkscape-font-specification:CairoFont-0-0;writing-mode:lr-tb;fill:#000000;fill-opacity:1;fill-rule:nonzero;stroke:none"
         id="text78"><tspan
           x="0"
           y="0"
           id="tspan76">e</tspan></text>
      <path
         d="m 178.734,75.402 0.606,0.414 0.601,0.36 0.59,0.254 0.574,0.113 0.559,-0.047 0.543,-0.211 0.531,-0.355 0.516,-0.461 0.512,-0.524 0.511,-0.531 0.516,-0.476 0.527,-0.379 0.539,-0.239 0.555,-0.078 0.574,0.082 0.586,0.235 0.602,0.339 0.605,0.411 0.606,0.418 0.601,0.375 0.59,0.277 0.578,0.141 0.563,-0.02 0.547,-0.184 0.531,-0.328 0.519,-0.449 0.512,-0.516 0.512,-0.531 0.515,-0.492 0.524,-0.398 0.535,-0.266 0.555,-0.109 0.57,0.054 0.586,0.207 0.594,0.328 0.605,0.399 0.606,0.422 0.605,0.386 0.594,0.297 0.578,0.168 0.566,0.012 0.551,-0.152 0.531,-0.309 0.524,-0.426 0.512,-0.508 0.511,-0.535 0.512,-0.504 0.524,-0.418 0.535,-0.293 0.55,-0.136 0.567,0.027 0.582,0.18 0.594,0.308 0.605,0.391 0.606,0.422 0.601,0.394 0.598,0.317 0.582,0.195 0.57,0.039 0.551,-0.121 0.535,-0.281 0.524,-0.406 0.515,-0.5 0.512,-0.532 0.512,-0.511 0.519,-0.438 0.535,-0.32 0.547,-0.168 0.563,-0.004 0.578,0.156 0.593,0.285 0.602,0.383 0.606,0.418 0.605,0.406 0.598,0.336 0.586,0.219 0.57,0.07 0.555,-0.093 0.539,-0.254 0.527,-0.387 0.516,-0.484 0.511,-0.532 0.512,-0.519 0.52,-0.457 0.527,-0.34 0.547,-0.199 0.558,-0.031 0.579,0.124 0.589,0.266 0.602,0.367 0.605,0.418 0.606,0.414 0.598,0.352 0.589,0.242 0.575,0.098 0.558,-0.063 0.539,-0.226 0.528,-0.364 0.519,-0.472 0.512,-0.528"
         style="fill:none;stroke:#000000;stroke-width:0.6144;stroke-linecap:square;stroke-linejoin:miter;stroke-miterlimit:3.25;stroke-dasharray:none;stroke-opacity:1"
         id="path80" />
      <text
         xml:space="preserve"
         transform="translate(200.52693,64.218253)"
         style="font-variant:normal;font-size:14.16px;font-family:CairoFont-0;-inkscape-font-specification:CairoFont-0-0;writing-mode:lr-tb;fill:#000000;fill-opacity:1;fill-rule:nonzero;stroke:none"
         id="text84"><tspan
           x="0"
           y="0"
           id="tspan82">Z</tspan></text>
      <path
         d="m 178.734,120.086 0.512,0.527 0.516,0.473 0.527,0.363 0.543,0.227 0.559,0.062 0.574,-0.097 0.59,-0.246 0.597,-0.352 0.606,-0.41 0.605,-0.418 0.602,-0.367 0.59,-0.266 0.578,-0.125 0.558,0.031 0.547,0.196 0.528,0.343 0.519,0.457 0.512,0.52 0.512,0.531 0.515,0.485 0.524,0.386 0.539,0.254 0.554,0.094 0.575,-0.07 0.586,-0.219 0.597,-0.336 0.602,-0.406 0.609,-0.418 0.602,-0.383 0.59,-0.285 0.582,-0.157 0.562,0.004 0.547,0.168 0.535,0.317 0.52,0.437 0.511,0.516 0.512,0.531 0.516,0.496 0.523,0.41 0.535,0.282 0.551,0.121 0.57,-0.039 0.582,-0.196 0.594,-0.316 0.606,-0.395 0.605,-0.421 0.606,-0.395 0.593,-0.305 0.582,-0.183 0.567,-0.024 0.551,0.137 0.535,0.293 0.523,0.418 0.512,0.504 0.512,0.535 0.511,0.508 0.524,0.426 0.531,0.308 0.551,0.153 0.566,-0.012 0.578,-0.168 0.594,-0.297 0.606,-0.387 0.605,-0.422 0.602,-0.402 0.597,-0.324 0.586,-0.207 0.57,-0.055 0.551,0.109 0.539,0.266 0.524,0.399 0.515,0.492 0.512,0.531 0.512,0.516 0.519,0.449 0.532,0.328 0.546,0.184 0.563,0.019 0.578,-0.141 0.59,-0.277 0.602,-0.375 0.605,-0.418 0.605,-0.41 0.598,-0.344 0.59,-0.23 0.57,-0.082 0.559,0.078 0.539,0.238 0.527,0.379 0.516,0.477 1.023,1.054 0.516,0.461 0.531,0.356 0.543,0.211 0.559,0.046 0.574,-0.113 0.59,-0.254 0.601,-0.359 0.606,-0.414"
         style="fill:none;stroke:#000000;stroke-width:0.6144;stroke-linecap:square;stroke-linejoin:miter;stroke-miterlimit:3.25;stroke-dasharray:none;stroke-opacity:1"
         id="path86" />
      <text
         xml:space="preserve"
         transform="translate(202.24983,114.48734)"
         style="font-variant:normal;font-size:14.16px;font-family:CairoFont-0;-inkscape-font-specification:CairoFont-0-0;writing-mode:lr-tb;fill:#000000;fill-opacity:1;fill-rule:nonzero;stroke:none"
         id="text90"><tspan
           x="0"
           y="0"
           id="tspan88">Z</tspan></text>
      <path
         d="m 178.734,75.402 v 44.684"
         style="fill:none;stroke:#000000;stroke-width:0.6144;stroke-linecap:square;stroke-linejoin:miter;stroke-miterlimit:3.25;stroke-dasharray:none;stroke-opacity:1"
         id="path92" />
      <path
         d="M 178.734,101.098 176.5,94.395 h 4.469 z"
         style="fill:#000000;fill-opacity:1;fill-rule:evenodd;stroke:none"
         id="path94" />
      <text
         xml:space="preserve"
         transform="translate(165.20283,102.81577)"
         style="font-variant:normal;font-size:14.16px;font-family:CairoFont-0;-inkscape-font-specification:CairoFont-0-0;writing-mode:lr-tb;fill:#000000;fill-opacity:1;fill-rule:nonzero;stroke:none"
         id="text98"><tspan
           x="0"
           y="0"
           id="tspan96">e</tspan></text>
      <path
         d="m 181.191,75.402 c 0,0.653 -0.257,1.278 -0.718,1.739 -0.461,0.461 -1.086,0.718 -1.739,0.718 -0.652,0 -1.277,-0.257 -1.738,-0.718 -0.461,-0.461 -0.719,-1.086 -0.719,-1.739 0,-0.652 0.258,-1.277 0.719,-1.738 0.461,-0.461 1.086,-0.719 1.738,-0.719 0.653,0 1.278,0.258 1.739,0.719 0.461,0.461 0.718,1.086 0.718,1.738 z"
         style="fill:#000000;fill-opacity:1;fill-rule:evenodd;stroke:none"
         id="path100" />
      <path
         d="m 181.191,120.086 c 0,0.652 -0.257,1.277 -0.718,1.738 -0.461,0.461 -1.086,0.719 -1.739,0.719 -0.652,0 -1.277,-0.258 -1.738,-0.719 -0.461,-0.461 -0.719,-1.086 -0.719,-1.738 0,-0.652 0.258,-1.277 0.719,-1.738 0.461,-0.461 1.086,-0.719 1.738,-0.719 0.653,0 1.278,0.258 1.739,0.719 0.461,0.461 0.718,1.086 0.718,1.738 z"
         style="fill:#000000;fill-opacity:1;fill-rule:evenodd;stroke:none"
         id="path102" />
    </g>
    <g
       id="g104">
      <g
         id="g106"
         clip-path="url(#clipPath110)">
        <text
           xml:space="preserve"
           transform="translate(175.67986,153.92398)"
           style="font-variant:normal;font-size:11.28px;font-family:CairoFont-1;-inkscape-font-specification:CairoFont-1-0;writing-mode:lr-tb;fill:#000000;fill-opacity:1;fill-rule:nonzero;stroke:none"
           id="text114"><tspan
             x="0"
             y="0"
             id="tspan112">2</tspan></text>
      </g>
    </g>
    <g
       id="g116">
      <path
         d="m 245.762,69.816 55.851,5.586"
         style="fill:none;stroke:#000000;stroke-width:0.6144;stroke-linecap:square;stroke-linejoin:miter;stroke-miterlimit:3.25;stroke-dasharray:none;stroke-opacity:1"
         id="path118" />
      <path
         d="m 277.023,72.945 -6.894,1.555 0.445,-4.445 z"
         style="fill:#000000;fill-opacity:1;fill-rule:evenodd;stroke:none"
         id="path120" />
      <text
         xml:space="preserve"
         transform="translate(268.69965,91.14419)"
         style="font-variant:normal;font-size:14.16px;font-family:CairoFont-0;-inkscape-font-specification:CairoFont-0-0;writing-mode:lr-tb;fill:#000000;fill-opacity:1;fill-rule:nonzero;stroke:none"
         id="text124"><tspan
           x="0"
           y="0"
           id="tspan122">e</tspan></text>
      <path
         d="m 245.762,125.672 55.851,-5.586"
         style="fill:none;stroke:#000000;stroke-width:0.6144;stroke-linecap:square;stroke-linejoin:miter;stroke-miterlimit:3.25;stroke-dasharray:none;stroke-opacity:1"
         id="path126" />
      <path
         d="m 270.352,123.215 6.894,1.555 -0.445,-4.446 z"
         style="fill:#000000;fill-opacity:1;fill-rule:evenodd;stroke:none"
         id="path128" />
      <text
         xml:space="preserve"
         transform="translate(270.42255,141.41328)"
         style="font-variant:normal;font-size:14.16px;font-family:CairoFont-0;-inkscape-font-specification:CairoFont-0-0;writing-mode:lr-tb;fill:#000000;fill-opacity:1;fill-rule:nonzero;stroke:none"
         id="text132"><tspan
           x="0"
           y="0"
           id="tspan130">e</tspan></text>
      <path
         d="m 301.613,120.086 0.739,-0.016 0.699,-0.062 0.625,-0.145 0.527,-0.254 0.414,-0.379 0.301,-0.503 0.199,-0.614 0.133,-0.695 0.094,-0.734 0.094,-0.731 0.14,-0.683 0.215,-0.602 0.312,-0.488 0.43,-0.36 0.539,-0.238 0.637,-0.133 0.707,-0.054 0.742,-0.012 0.735,-0.024 0.691,-0.07 0.613,-0.156 0.512,-0.27 0.398,-0.398 0.286,-0.52 0.191,-0.625 0.121,-0.703 0.094,-0.734 0.097,-0.727 0.149,-0.676 0.226,-0.585 0.329,-0.473 0.445,-0.348 0.555,-0.222 0.648,-0.118 0.711,-0.046 0.742,-0.012 0.735,-0.028 0.679,-0.078 0.602,-0.172 0.496,-0.285 0.383,-0.414 0.273,-0.535 0.18,-0.637 0.117,-0.711 0.09,-0.734 0.105,-0.723 0.157,-0.668 0.238,-0.57 0.344,-0.457 0.46,-0.328 0.567,-0.207 0.656,-0.106 0.723,-0.039 0.742,-0.015 0.727,-0.028 0.675,-0.089 0.586,-0.188 0.481,-0.301 0.367,-0.429 0.262,-0.551 0.168,-0.653 0.113,-0.714 0.09,-0.739 0.109,-0.715 0.164,-0.656 0.25,-0.558 0.36,-0.438 0.476,-0.312 0.582,-0.192 0.668,-0.094 0.723,-0.035 0.746,-0.011 0.723,-0.036 0.664,-0.101 0.574,-0.199 0.465,-0.321 0.351,-0.445 0.246,-0.566 0.16,-0.66 0.106,-0.719 0.09,-0.739 0.117,-0.714 0.176,-0.641 0.265,-0.543 0.375,-0.422 0.489,-0.297 0.593,-0.175 0.68,-0.086 0.727,-0.028 0.746,-0.012 0.715,-0.042 0.652,-0.114 0.562,-0.215 0.45,-0.336 0.339,-0.464 0.231,-0.579 0.152,-0.671 0.102,-0.723 0.094,-0.738 0.117,-0.703 0.187,-0.633 0.278,-0.528 0.39,-0.406 0.504,-0.277 0.61,-0.164 0.687,-0.074 0.731,-0.024 0.742,-0.016 0.711,-0.046 0.644,-0.125 0.547,-0.231 0.434,-0.351 0.324,-0.481 0.219,-0.594 0.144,-0.679 0.098,-0.731 0.094,-0.734 0.125,-0.699 0.199,-0.618 0.293,-0.511 0.406,-0.391 0.52,-0.262 0.617,-0.148 0.695,-0.066 0.738,-0.02 0.739,-0.016 0.703,-0.054 0.633,-0.137 0.531,-0.246 0.422,-0.371 0.308,-0.496 0.207,-0.61 0.137,-0.687 0.094,-0.735"
         style="fill:none;stroke:#000000;stroke-width:0.6144;stroke-linecap:square;stroke-linejoin:miter;stroke-miterlimit:3.25;stroke-dasharray:none;stroke-opacity:1"
         id="path134" />
      <text
         xml:space="preserve"
         transform="translate(329.81219,77.378474)"
         style="font-variant:normal;font-size:14.16px;font-family:CairoFont-0;-inkscape-font-specification:CairoFont-0-0;writing-mode:lr-tb;fill:#000000;fill-opacity:1;fill-rule:nonzero;stroke:none"
         id="text138"><tspan
           x="0"
           y="0"
           id="tspan136">Z</tspan></text>
      <path
         d="m 301.613,75.402 0.098,0.735 0.133,0.687 0.211,0.61 0.304,0.496 0.422,0.367 0.535,0.246 0.629,0.137 0.703,0.058 0.743,0.016 0.734,0.019 0.695,0.067 0.621,0.148 0.52,0.262 0.402,0.391 0.297,0.511 0.195,0.618 0.129,0.699 0.09,0.734 0.102,0.731 0.14,0.679 0.219,0.594 0.324,0.477 0.438,0.355 0.547,0.231 0.64,0.125 0.711,0.046 0.743,0.016 0.734,0.023 0.687,0.075 0.606,0.164 0.504,0.277 0.39,0.406 0.278,0.528 0.187,0.632 0.121,0.704 0.09,0.738 0.102,0.723 0.152,0.671 0.234,0.579 0.336,0.464 0.453,0.336 0.559,0.215 0.652,0.113 0.719,0.043 0.742,0.012 0.731,0.028 0.676,0.085 0.597,0.176 0.489,0.297 0.375,0.422 0.265,0.543 0.176,0.641 0.113,0.71 0.09,0.739 0.106,0.722 0.16,0.661 0.246,0.562 0.351,0.449 0.469,0.321 0.574,0.199 0.664,0.101 0.723,0.036 0.742,0.011 0.727,0.032 0.668,0.097 0.582,0.192 0.472,0.312 0.36,0.438 0.254,0.558 0.164,0.656 0.109,0.715 0.09,0.739 0.109,0.714 0.172,0.649 0.258,0.551 0.367,0.433 0.481,0.301 0.59,0.188 0.671,0.089 0.727,0.028 0.746,0.011 0.719,0.039 0.656,0.11 0.57,0.207 0.457,0.328 0.348,0.457 0.238,0.57 0.157,0.664 0.101,0.723 0.09,0.738 0.117,0.711 0.18,0.637 0.273,0.535 0.383,0.414 0.496,0.285 0.602,0.172 0.683,0.078 0.731,0.028 0.742,0.011 0.715,0.047 0.648,0.118 0.555,0.222 0.441,0.348 0.329,0.472 0.226,0.586 0.149,0.676 0.097,0.727 0.094,0.734 0.125,0.703 0.188,0.625 0.289,0.52 0.398,0.398 0.508,0.27 0.613,0.156 0.692,0.07 0.738,0.02 0.738,0.015 0.707,0.055 0.637,0.133 0.539,0.238 0.43,0.36 0.316,0.488 0.215,0.601 0.137,0.684 0.097,0.731 0.094,0.734 0.129,0.695 0.203,0.613 0.301,0.504 0.41,0.379 0.527,0.254 0.625,0.145 0.699,0.062 0.739,0.016"
         style="fill:none;stroke:#000000;stroke-width:0.6144;stroke-linecap:square;stroke-linejoin:miter;stroke-miterlimit:3.25;stroke-dasharray:none;stroke-opacity:1"
         id="path140" />
      <text
         xml:space="preserve"
         transform="translate(343.85125,105.31156)"
         style="font-variant:normal;font-size:14.16px;font-family:CairoFont-0;-inkscape-font-specification:CairoFont-0-0;writing-mode:lr-tb;fill:#000000;fill-opacity:1;fill-rule:nonzero;stroke:none"
         id="text144"><tspan
           x="0"
           y="0"
           id="tspan142">Z</tspan></text>
      <path
         d="m 301.613,75.402 v 44.684"
         style="fill:none;stroke:#000000;stroke-width:0.6144;stroke-linecap:square;stroke-linejoin:miter;stroke-miterlimit:3.25;stroke-dasharray:none;stroke-opacity:1"
         id="path146" />
      <path
         d="m 301.613,101.098 -2.234,-6.703 h 4.469 z"
         style="fill:#000000;fill-opacity:1;fill-rule:evenodd;stroke:none"
         id="path148" />
      <text
         xml:space="preserve"
         transform="translate(288.64193,102.81577)"
         style="font-variant:normal;font-size:14.16px;font-family:CairoFont-0;-inkscape-font-specification:CairoFont-0-0;writing-mode:lr-tb;fill:#000000;fill-opacity:1;fill-rule:nonzero;stroke:none"
         id="text152"><tspan
           x="0"
           y="0"
           id="tspan150">e</tspan></text>
      <path
         d="m 304.07,75.402 c 0,0.653 -0.258,1.278 -0.718,1.739 -0.461,0.461 -1.086,0.718 -1.739,0.718 -0.652,0 -1.277,-0.257 -1.738,-0.718 -0.461,-0.461 -0.719,-1.086 -0.719,-1.739 0,-0.652 0.258,-1.277 0.719,-1.738 0.461,-0.461 1.086,-0.719 1.738,-0.719 0.653,0 1.278,0.258 1.739,0.719 0.46,0.461 0.718,1.086 0.718,1.738 z"
         style="fill:#000000;fill-opacity:1;fill-rule:evenodd;stroke:none"
         id="path154" />
      <path
         d="m 304.07,120.086 c 0,0.652 -0.258,1.277 -0.718,1.738 -0.461,0.461 -1.086,0.719 -1.739,0.719 -0.652,0 -1.277,-0.258 -1.738,-0.719 -0.461,-0.461 -0.719,-1.086 -0.719,-1.738 0,-0.652 0.258,-1.277 0.719,-1.738 0.461,-0.461 1.086,-0.719 1.738,-0.719 0.653,0 1.278,0.258 1.739,0.719 0.46,0.461 0.718,1.086 0.718,1.738 z"
         style="fill:#000000;fill-opacity:1;fill-rule:evenodd;stroke:none"
         id="path156" />
    </g>
    <g
       id="g158">
      <g
         id="g160"
         clip-path="url(#clipPath164)">
        <text
           xml:space="preserve"
           transform="translate(298.55986,153.92398)"
           style="font-variant:normal;font-size:11.28px;font-family:CairoFont-1;-inkscape-font-specification:CairoFont-1-0;writing-mode:lr-tb;fill:#000000;fill-opacity:1;fill-rule:nonzero;stroke:none"
           id="text168"><tspan
             x="0"
             y="0"
             id="tspan166">3</tspan></text>
      </g>
    </g>
  </g>
</svg>
