<?xml version="1.0" encoding="UTF-8" standalone="no"?>
<!-- Created with Inkscape (http://www.inkscape.org/) -->

<svg
   version="1.1"
   id="svg2"
   width="492"
   height="246.66667"
   viewBox="0 0 492 246.66667"
   sodipodi:docname="16av6pyrw8x3c.pdf"
   xmlns:inkscape="http://www.inkscape.org/namespaces/inkscape"
   xmlns:sodipodi="http://sodipodi.sourceforge.net/DTD/sodipodi-0.dtd"
   xmlns="http://www.w3.org/2000/svg"
   xmlns:svg="http://www.w3.org/2000/svg">
  <defs
     id="defs6">
    <clipPath
       clipPathUnits="userSpaceOnUse"
       id="clipPath44">
      <path
         d="m 80,172 h 5 v 12.32 h -5 z"
         id="path42" />
    </clipPath>
  </defs>
  <sodipodi:namedview
     id="namedview4"
     pagecolor="#ffffff"
     bordercolor="#999999"
     borderopacity="1"
     inkscape:showpageshadow="0"
     inkscape:pageopacity="0"
     inkscape:pagecheckerboard="0"
     inkscape:deskcolor="#d1d1d1" />
  <g
     id="g8"
     inkscape:groupmode="layer"
     inkscape:label="16av6pyrw8x3c"
     transform="matrix(1.3333333,0,0,1.3333333,0,9.5e-6)">
    <g
       id="g10">
      <path
         d="m 92.16,100.539 -0.84,-0.762 -0.836,-0.656 -0.839,-0.461 -0.836,-0.207 -0.84,0.078 -0.836,0.352 -0.836,0.574 -0.84,0.727 -0.836,0.773 -0.84,0.715 -0.836,0.562 -0.84,0.328 -0.835,0.059 -0.84,-0.23 -0.836,-0.481 -0.84,-0.668 -0.836,-0.762 -0.84,-0.753 -0.836,-0.641 -0.84,-0.445 -0.836,-0.184 -0.839,0.098 -0.836,0.371 -0.84,0.59 -0.836,0.73 -0.84,0.77 -0.836,0.703 -0.836,0.543 -0.84,0.304 -0.836,0.032 -0.839,-0.25 -0.836,-0.496 -0.84,-0.672 -0.836,-0.754 -0.84,-0.735 L 62,99.082 61.16,98.68 l -0.836,-0.141 -0.84,0.137 -0.836,0.394 -0.839,0.582 -0.836,0.68 -0.84,0.664 -0.836,0.531 -0.84,0.305 -0.836,0.023 -0.84,-0.226 -0.836,-0.379 -0.84,-0.375 -0.835,-0.246 -0.84,-0.098 -0.836,-0.008 -0.84,0.016 -0.836,0.004 h -1.676 l -0.836,-0.004 -0.84,-0.016 -0.836,0.008 -0.839,0.098 -0.836,0.246 -0.84,0.375 -0.836,0.379 -0.84,0.226 -0.836,-0.023 -0.84,-0.305 -0.836,-0.531 -0.839,-0.664 -0.836,-0.68 -0.84,-0.582 -0.836,-0.394 -0.84,-0.137 -0.836,0.141 -0.84,0.402 -0.836,0.609 -0.84,0.735 -0.836,0.754 -0.839,0.672 -0.836,0.496 -0.84,0.25 -0.836,-0.032 -0.84,-0.304 -0.836,-0.543 -0.836,-0.703 -0.84,-0.77 -0.836,-0.73 -0.839,-0.59 -0.836,-0.371 -0.84,-0.098 -0.836,0.184 -0.84,0.445 -0.836,0.641 -0.84,0.753 -0.836,0.762 -0.84,0.668 -0.836,0.481 -0.839,0.23 -0.836,-0.059 -0.84,-0.328 -0.836,-0.562 -0.84,-0.715 L 6.703,100.184 5.863,99.457 5.027,98.883 4.191,98.531 3.352,98.453 2.516,98.66 1.676,99.121 0.84,99.777 0,100.539"
         style="fill:none;stroke:#000000;stroke-width:0.9216;stroke-linecap:square;stroke-linejoin:miter;stroke-miterlimit:3.25;stroke-dasharray:none;stroke-opacity:1"
         id="path12" />
      <path
         d="m 51.105,100.539 -10.05,3.352 v -6.703 z"
         style="fill:#000000;fill-opacity:1;fill-rule:evenodd;stroke:none"
         id="path14" />
      <text
         xml:space="preserve"
         transform="translate(34.712813,128.41036)"
         style="font-variant:normal;font-size:21.12px;font-family:CairoFont-0;-inkscape-font-specification:CairoFont-0-0;writing-mode:lr-tb;fill:#000000;fill-opacity:1;fill-rule:nonzero;stroke:none"
         id="text18"><tspan
           x="0"
           y="0"
           id="tspan16">W</tspan></text>
      <path
         d="M 167.562,58.648 92.16,100.539"
         style="fill:none;stroke:#000000;stroke-width:0.9216;stroke-linecap:square;stroke-linejoin:miter;stroke-miterlimit:3.25;stroke-dasharray:none;stroke-opacity:1"
         id="path20" />
      <path
         d="m 125.469,82.035 7.16,-7.812 3.254,5.859 z"
         style="fill:#000000;fill-opacity:1;fill-rule:evenodd;stroke:none"
         id="path22" />
      <text
         xml:space="preserve"
         transform="translate(116.14183,68.573511)"
         style="font-variant:normal;font-size:21.12px;font-family:CairoFont-0;-inkscape-font-specification:CairoFont-0-0;writing-mode:lr-tb;fill:#000000;fill-opacity:1;fill-rule:nonzero;stroke:none"
         id="text26"><tspan
           x="0"
           y="0"
           id="tspan24">u</tspan></text>
      <path
         d="M 167.562,142.43 92.16,100.539"
         style="fill:none;stroke:#000000;stroke-width:0.9216;stroke-linecap:square;stroke-linejoin:miter;stroke-miterlimit:3.25;stroke-dasharray:none;stroke-opacity:1"
         id="path28" />
      <path
         d="m 134.258,123.926 -7.164,-7.813 -3.254,5.86 z"
         style="fill:#000000;fill-opacity:1;fill-rule:evenodd;stroke:none"
         id="path30" />
      <text
         xml:space="preserve"
         transform="translate(115.11058,147.7216)"
         style="font-variant:normal;font-size:21.12px;font-family:CairoFont-0;-inkscape-font-specification:CairoFont-0-0;writing-mode:lr-tb;fill:#000000;fill-opacity:1;fill-rule:nonzero;stroke:none"
         id="text34"><tspan
           x="0"
           y="0"
           id="tspan32">d</tspan></text>
      <path
         d="m 95.848,100.539 c 0,0.977 -0.391,1.914 -1.082,2.606 -0.692,0.691 -1.629,1.078 -2.606,1.078 -0.976,0 -1.914,-0.387 -2.605,-1.078 -0.692,-0.692 -1.082,-1.629 -1.082,-2.606 0,-0.98 0.39,-1.918 1.082,-2.609 0.691,-0.692 1.629,-1.078 2.605,-1.078 0.977,0 1.914,0.386 2.606,1.078 0.691,0.691 1.082,1.629 1.082,2.609 z"
         style="fill:#000000;fill-opacity:1;fill-rule:evenodd;stroke:none"
         id="path36" />
    </g>
    <g
       id="g38">
      <g
         id="g40"
         clip-path="url(#clipPath44)">
        <text
           xml:space="preserve"
           transform="translate(79.055256,184.68097)"
           style="font-variant:normal;font-size:16.8px;font-family:CairoFont-1;-inkscape-font-specification:CairoFont-1-0;writing-mode:lr-tb;fill:#000000;fill-opacity:1;fill-rule:nonzero;stroke:none"
           id="text48"><tspan
             x="0"
             y="0"
             id="tspan46">1</tspan></text>
      </g>
    </g>
  </g>
</svg>
