<?xml version="1.0" encoding="UTF-8" standalone="no"?>
<!-- Created with Inkscape (http://www.inkscape.org/) -->

<svg
   version="1.1"
   id="svg2"
   width="492"
   height="246.66667"
   viewBox="0 0 492 246.66667"
   sodipodi:docname="16ieixv8knjj3.pdf"
   xmlns:inkscape="http://www.inkscape.org/namespaces/inkscape"
   xmlns:sodipodi="http://sodipodi.sourceforge.net/DTD/sodipodi-0.dtd"
   xmlns="http://www.w3.org/2000/svg"
   xmlns:svg="http://www.w3.org/2000/svg">
  <defs
     id="defs6">
    <clipPath
       clipPathUnits="userSpaceOnUse"
       id="clipPath70">
      <path
         d="m 82,172 h 6 v 12.32 h -6 z"
         id="path68" />
    </clipPath>
  </defs>
  <sodipodi:namedview
     id="namedview4"
     pagecolor="#ffffff"
     bordercolor="#999999"
     borderopacity="1"
     inkscape:showpageshadow="0"
     inkscape:pageopacity="0"
     inkscape:pagecheckerboard="0"
     inkscape:deskcolor="#d1d1d1" />
  <g
     id="g8"
     inkscape:groupmode="layer"
     inkscape:label="16ieixv8knjj3"
     transform="matrix(1.3333333,0,0,1.3333333,0,9.5e-6)">
    <g
       id="g10">
      <path
         d="m 0,100.539 75.402,16.754"
         style="fill:none;stroke:#000000;stroke-width:0.9216;stroke-linecap:square;stroke-linejoin:miter;stroke-miterlimit:3.25;stroke-dasharray:none;stroke-opacity:1"
         id="path12" />
      <path
         d="m 42.609,110.008 -10.543,1.09 1.457,-6.543 z"
         style="fill:#000000;fill-opacity:1;fill-rule:evenodd;stroke:none"
         id="path14" />
      <text
         xml:space="preserve"
         transform="translate(28.773392,136.47931)"
         style="font-variant:normal;font-size:20.16px;font-family:CairoFont-0;-inkscape-font-specification:CairoFont-0-1;writing-mode:lr-tb;fill:#000000;fill-opacity:1;fill-rule:nonzero;stroke:none"
         id="text18"><tspan
           x="0"
           y="0"
           id="tspan16">μ</tspan></text>
      <path
         d="M 167.562,41.891 113.105,71.215"
         style="fill:none;stroke:#000000;stroke-width:0.9216;stroke-linecap:square;stroke-linejoin:miter;stroke-miterlimit:3.25;stroke-dasharray:none;stroke-opacity:1"
         id="path20" />
      <path
         d="m 144.762,54.168 -10.442,1.816 3.176,5.903 z"
         style="fill:#000000;fill-opacity:1;fill-rule:evenodd;stroke:none"
         id="path22" />
      <text
         xml:space="preserve"
         transform="translate(141.42417,82.872686)"
         style="font-variant:normal;font-size:21.12px;font-family:CairoFont-1;-inkscape-font-specification:CairoFont-1-0;writing-mode:lr-tb;fill:#000000;fill-opacity:1;fill-rule:nonzero;stroke:none"
         id="text26"><tspan
           x="0"
           y="0"
           id="tspan24">e</tspan></text>
      <path
         d="M 167.562,100.539 113.105,71.215"
         style="fill:none;stroke:#000000;stroke-width:0.9216;stroke-linecap:square;stroke-linejoin:miter;stroke-miterlimit:3.25;stroke-dasharray:none;stroke-opacity:1"
         id="path28" />
      <path
         d="m 135.91,83.492 10.438,1.817 -3.176,5.902 z"
         style="fill:#000000;fill-opacity:1;fill-rule:evenodd;stroke:none"
         id="path30" />
      <text
         xml:space="preserve"
         transform="translate(119.04321,104.09476)"
         style="font-variant:normal;font-size:20.16px;font-family:CairoFont-0;-inkscape-font-specification:CairoFont-0-1;writing-mode:lr-tb;fill:#000000;fill-opacity:1;fill-rule:nonzero;stroke:none"
         id="text34"><tspan
           x="0"
           y="0"
           id="tspan32">ν</tspan></text>
      <text
         xml:space="preserve"
         transform="translate(130.19945,108.01468)"
         style="font-variant:normal;font-size:14.88px;font-family:CairoFont-1;-inkscape-font-specification:CairoFont-1-0;writing-mode:lr-tb;fill:#000000;fill-opacity:1;fill-rule:nonzero;stroke:none"
         id="text38"><tspan
           x="0"
           y="0"
           id="tspan36">e</tspan></text>
      <path
         d="M 167.562,159.184 75.402,117.293"
         style="fill:none;stroke:#000000;stroke-width:0.9216;stroke-linecap:square;stroke-linejoin:miter;stroke-miterlimit:3.25;stroke-dasharray:none;stroke-opacity:1"
         id="path40" />
      <path
         d="m 126.059,140.32 -7.766,-7.211 -2.773,6.102 z"
         style="fill:#000000;fill-opacity:1;fill-rule:evenodd;stroke:none"
         id="path42" />
      <text
         xml:space="preserve"
         transform="translate(101.05923,156.84662)"
         style="font-variant:normal;font-size:20.16px;font-family:CairoFont-0;-inkscape-font-specification:CairoFont-0-1;writing-mode:lr-tb;fill:#000000;fill-opacity:1;fill-rule:nonzero;stroke:none"
         id="text46"><tspan
           x="0"
           y="0"
           id="tspan44">ν</tspan></text>
      <text
         xml:space="preserve"
         transform="translate(112.21548,160.76654)"
         style="font-variant:normal;font-size:14.4px;font-family:CairoFont-0;-inkscape-font-specification:CairoFont-0-1;writing-mode:lr-tb;fill:#000000;fill-opacity:1;fill-rule:nonzero;stroke:none"
         id="text50"><tspan
           x="0"
           y="0"
           id="tspan48">μ</tspan></text>
      <path
         d="m 113.105,71.215 -1.156,0.137 -1.062,0.214 -0.879,0.368 -0.641,0.554 -0.39,0.766 -0.161,0.953 0.016,1.094 0.098,1.164 0.086,1.156 -0.024,1.063 -0.211,0.91 -0.449,0.718 -0.699,0.508 -0.926,0.328 -1.082,0.2 -1.152,0.136 -1.129,0.164 -1.004,0.262 -0.805,0.426 -0.562,0.621 -0.325,0.82 -0.121,0.981 -0.004,1.082 0.016,1.098 -0.078,1.019 -0.266,0.863 -0.504,0.672 -0.711,0.5 -0.824,0.414 -0.793,0.434 -0.679,0.523 -0.579,0.614 -0.531,0.648 -0.523,0.656 -0.528,0.653 -0.531,0.648 -0.535,0.645 -0.539,0.644 -0.531,0.649 -0.485,0.687 -0.379,0.773 -0.269,0.864 -0.242,0.886 -0.348,0.797 -0.559,0.625 -0.796,0.434 -0.981,0.277 -1.078,0.203 -1.062,0.215 -0.938,0.317 -0.738,0.48 -0.496,0.676 -0.258,0.871 -0.059,1.035 0.063,1.137 0.093,1.16 0.02,1.102 -0.137,0.968 -0.363,0.789 -0.613,0.582 -0.852,0.387 -1.039,0.235 -1.148,0.14 -1.161,0.133 -1.074,0.207 -0.902,0.344 -0.672,0.535 -0.418,0.738 -0.187,0.934 v 1.082 l 0.093,1.16"
         style="fill:none;stroke:#000000;stroke-width:0.9216;stroke-linecap:square;stroke-linejoin:miter;stroke-miterlimit:3.25;stroke-dasharray:none;stroke-opacity:1"
         id="path52" />
      <path
         d="m 97.438,90.363 -3.774,9.903 -5.187,-4.243 z"
         style="fill:#000000;fill-opacity:1;fill-rule:evenodd;stroke:none"
         id="path54" />
      <text
         xml:space="preserve"
         transform="translate(66.536545,86.363954)"
         style="font-variant:normal;font-size:21.12px;font-family:CairoFont-1;-inkscape-font-specification:CairoFont-1-0;writing-mode:lr-tb;fill:#000000;fill-opacity:1;fill-rule:nonzero;stroke:none"
         id="text58"><tspan
           x="0"
           y="0"
           id="tspan56">W</tspan></text>
      <path
         d="m 79.09,117.293 c 0,0.98 -0.387,1.918 -1.078,2.609 -0.692,0.692 -1.629,1.078 -2.61,1.078 -0.976,0 -1.914,-0.386 -2.605,-1.078 -0.692,-0.691 -1.078,-1.629 -1.078,-2.609 0,-0.977 0.386,-1.914 1.078,-2.605 0.691,-0.692 1.629,-1.079 2.605,-1.079 0.981,0 1.918,0.387 2.61,1.079 0.691,0.691 1.078,1.628 1.078,2.605 z"
         style="fill:#000000;fill-opacity:1;fill-rule:evenodd;stroke:none"
         id="path60" />
      <path
         d="m 116.793,71.215 c 0,0.976 -0.391,1.914 -1.082,2.605 -0.691,0.692 -1.629,1.082 -2.606,1.082 -0.976,0 -1.914,-0.39 -2.605,-1.082 -0.691,-0.691 -1.082,-1.629 -1.082,-2.605 0,-0.977 0.391,-1.914 1.082,-2.606 0.691,-0.691 1.629,-1.082 2.605,-1.082 0.977,0 1.915,0.391 2.606,1.082 0.691,0.692 1.082,1.629 1.082,2.606 z"
         style="fill:#000000;fill-opacity:1;fill-rule:evenodd;stroke:none"
         id="path62" />
    </g>
    <g
       id="g64">
      <g
         id="g66"
         clip-path="url(#clipPath70)">
        <text
           xml:space="preserve"
           transform="translate(79.055256,184.68097)"
           style="font-variant:normal;font-size:16.8px;font-family:CairoFont-1;-inkscape-font-specification:CairoFont-1-0;writing-mode:lr-tb;fill:#000000;fill-opacity:1;fill-rule:nonzero;stroke:none"
           id="text74"><tspan
             x="0"
             y="0"
             id="tspan72">1</tspan></text>
      </g>
    </g>
  </g>
</svg>
