<?xml version="1.0" encoding="UTF-8" standalone="no"?>
<!-- Created with Inkscape (http://www.inkscape.org/) -->

<svg
   version="1.1"
   id="svg2"
   width="492"
   height="246.66667"
   viewBox="0 0 492 246.66667"
   sodipodi:docname="1hxdkz0wsktq0.pdf"
   xmlns:inkscape="http://www.inkscape.org/namespaces/inkscape"
   xmlns:sodipodi="http://sodipodi.sourceforge.net/DTD/sodipodi-0.dtd"
   xmlns="http://www.w3.org/2000/svg"
   xmlns:svg="http://www.w3.org/2000/svg">
  <defs
     id="defs6">
    <clipPath
       clipPathUnits="userSpaceOnUse"
       id="clipPath38">
      <path
         d="m 80,172 h 5 v 12.32 h -5 z"
         id="path36" />
    </clipPath>
  </defs>
  <sodipodi:namedview
     id="namedview4"
     pagecolor="#ffffff"
     bordercolor="#999999"
     borderopacity="1"
     inkscape:showpageshadow="0"
     inkscape:pageopacity="0"
     inkscape:pagecheckerboard="0"
     inkscape:deskcolor="#d1d1d1" />
  <g
     id="g8"
     inkscape:groupmode="layer"
     inkscape:label="1hxdkz0wsktq0"
     transform="matrix(1.3333333,0,0,1.3333333,0,9.5e-6)">
    <g
       id="g10">
      <path
         d="M 0,100.539 H 92.16"
         style="fill:none;stroke:#000000;stroke-width:0.9216;stroke-linecap:butt;stroke-linejoin:miter;stroke-miterlimit:3.25;stroke-dasharray:5.5296, 5.5296;stroke-dashoffset:0;stroke-opacity:1"
         id="path12" />
      <text
         xml:space="preserve"
         transform="translate(37.677656,126.31582)"
         style="font-variant:normal;font-size:21.12px;font-family:CairoFont-0;-inkscape-font-specification:CairoFont-0-0;writing-mode:lr-tb;fill:#000000;fill-opacity:1;fill-rule:nonzero;stroke:none"
         id="text16"><tspan
           x="0"
           y="0"
           id="tspan14">H</tspan></text>
      <path
         d="m 92.16,100.539 1.078,0.195 1.039,0.129 h 0.965 l 0.867,-0.179 0.758,-0.383 0.637,-0.59 0.539,-0.773 0.457,-0.922 0.406,-1.008 0.399,-1.024 0.425,-0.976 0.489,-0.86 0.582,-0.695 0.691,-0.496 0.805,-0.289 0.918,-0.094 1.004,0.063 1.058,0.168 1.082,0.207 1.067,0.176 1.008,0.074 0.925,-0.074 0.817,-0.27 0.703,-0.48 0.59,-0.676 0.496,-0.848 0.43,-0.969 0.398,-1.023 0.406,-1.012 0.449,-0.93 0.532,-0.789 0.629,-0.609 0.746,-0.402 0.855,-0.196 0.961,-0.015 1.031,0.117 1.075,0.195 1.082,0.199 1.043,0.141 0.972,0.012 0.879,-0.164 0.766,-0.364 0.652,-0.57 0.543,-0.758 0.465,-0.91 0.41,-1 0.395,-1.027 0.421,-0.985 0.485,-0.871 0.57,-0.711 0.684,-0.515 0.797,-0.309 0.906,-0.109 0.996,0.051 1.055,0.164 1.082,0.203 1.07,0.183 1.016,0.086 0.929,-0.062 0.828,-0.25 0.715,-0.457 0.602,-0.66 0.504,-0.836 0.433,-0.957 0.399,-1.024 0.406,-1.015 0.445,-0.942 0.52,-0.804 0.621,-0.625 0.73,-0.418 0.852,-0.215 0.949,-0.032 1.028,0.11 1.074,0.191 1.078,0.203 1.051,0.145 0.98,0.027 0.887,-0.144 0.777,-0.344 0.66,-0.551 0.555,-0.746 0.469,-0.898 0.414,-0.996 0.398,-1.028 0.418,-0.988 0.473,-0.887 0.562,-0.726 0.672,-0.536 0.789,-0.324 0.895,-0.125 0.992,0.039 1.051,0.153 1.082,0.207 1.07,0.183 1.024,0.102 0.941,-0.047 0.836,-0.234 0.723,-0.438 0.613,-0.64 0.512,-0.821 0.441,-0.949 0.398,-1.02"
         style="fill:none;stroke:#000000;stroke-width:0.9216;stroke-linecap:square;stroke-linejoin:miter;stroke-miterlimit:3.25;stroke-dasharray:none;stroke-opacity:1"
         id="path18" />
      <text
         xml:space="preserve"
         transform="translate(113.07151,68.573511)"
         style="font-variant:normal;font-size:21.12px;font-family:CairoFont-0;-inkscape-font-specification:CairoFont-0-0;writing-mode:lr-tb;fill:#000000;fill-opacity:1;fill-rule:nonzero;stroke:none"
         id="text22"><tspan
           x="0"
           y="0"
           id="tspan20">Z</tspan></text>
      <path
         d="m 92.16,100.539 0.402,1.02 0.438,0.949 0.512,0.82 0.613,0.641 0.723,0.437 0.84,0.235 0.941,0.047 1.019,-0.102 1.071,-0.184 1.082,-0.207 1.054,-0.152 0.989,-0.039 0.898,0.125 0.785,0.328 0.672,0.531 0.563,0.727 0.476,0.887 0.418,0.988 0.395,1.031 0.414,0.996 0.469,0.895 0.554,0.746 0.66,0.551 0.778,0.343 0.886,0.145 0.985,-0.027 1.047,-0.145 1.078,-0.203 1.074,-0.192 1.027,-0.109 0.954,0.031 0.847,0.215 0.735,0.418 0.617,0.625 0.523,0.809 0.446,0.937 0.402,1.016 0.398,1.023 0.434,0.957 0.508,0.836 0.597,0.66 0.715,0.457 0.828,0.25 0.934,0.063 1.016,-0.086 1.066,-0.184 1.082,-0.203 1.059,-0.164 0.996,-0.051 0.906,0.11 0.797,0.308 0.679,0.516 0.575,0.711 0.48,0.871 0.422,0.984 0.399,1.028 0.41,1 0.461,0.91 0.546,0.762 0.649,0.57 0.766,0.363 0.878,0.16 0.973,-0.011 1.047,-0.137 1.078,-0.203 1.074,-0.195 1.035,-0.118 0.957,0.016 0.86,0.195 0.742,0.403 0.633,0.609 0.527,0.789 0.449,0.93 0.407,1.011 0.398,1.024 0.43,0.969 0.496,0.847 0.59,0.676 0.703,0.481 0.816,0.269 0.926,0.078 1.012,-0.078 1.062,-0.176 1.082,-0.203 1.063,-0.172 1,-0.062 0.918,0.094 0.808,0.289 0.692,0.496 0.578,0.695 0.492,0.859 0.426,0.977 0.394,1.023 0.411,1.008 0.453,0.922 0.539,0.774 0.64,0.589 0.754,0.383 0.867,0.18 h 0.969 l 1.035,-0.129 1.078,-0.195"
         style="fill:none;stroke:#000000;stroke-width:0.9216;stroke-linecap:square;stroke-linejoin:miter;stroke-miterlimit:3.25;stroke-dasharray:none;stroke-opacity:1"
         id="path24" />
      <text
         xml:space="preserve"
         transform="translate(113.07151,147.7216)"
         style="font-variant:normal;font-size:21.12px;font-family:CairoFont-0;-inkscape-font-specification:CairoFont-0-0;writing-mode:lr-tb;fill:#000000;fill-opacity:1;fill-rule:nonzero;stroke:none"
         id="text28"><tspan
           x="0"
           y="0"
           id="tspan26">Z</tspan></text>
      <path
         d="m 95.848,100.539 c 0,0.977 -0.391,1.914 -1.082,2.606 -0.692,0.691 -1.629,1.078 -2.606,1.078 -0.976,0 -1.914,-0.387 -2.605,-1.078 -0.692,-0.692 -1.082,-1.629 -1.082,-2.606 0,-0.98 0.39,-1.918 1.082,-2.609 0.691,-0.692 1.629,-1.078 2.605,-1.078 0.977,0 1.914,0.386 2.606,1.078 0.691,0.691 1.082,1.629 1.082,2.609 z"
         style="fill:#000000;fill-opacity:1;fill-rule:evenodd;stroke:none"
         id="path30" />
    </g>
    <g
       id="g32">
      <g
         id="g34"
         clip-path="url(#clipPath38)">
        <text
           xml:space="preserve"
           transform="translate(79.055256,184.68097)"
           style="font-variant:normal;font-size:16.8px;font-family:CairoFont-1;-inkscape-font-specification:CairoFont-1-0;writing-mode:lr-tb;fill:#000000;fill-opacity:1;fill-rule:nonzero;stroke:none"
           id="text42"><tspan
             x="0"
             y="0"
             id="tspan40">1</tspan></text>
      </g>
    </g>
  </g>
</svg>
