<?xml version="1.0" encoding="UTF-8" standalone="no"?>
<!-- Created with Inkscape (http://www.inkscape.org/) -->

<svg
   version="1.1"
   id="svg2"
   width="492"
   height="246.66667"
   viewBox="0 0 492 246.66667"
   sodipodi:docname="1it6c04mvj0qd.pdf"
   xmlns:inkscape="http://www.inkscape.org/namespaces/inkscape"
   xmlns:sodipodi="http://sodipodi.sourceforge.net/DTD/sodipodi-0.dtd"
   xmlns="http://www.w3.org/2000/svg"
   xmlns:svg="http://www.w3.org/2000/svg">
  <defs
     id="defs6">
    <clipPath
       clipPathUnits="userSpaceOnUse"
       id="clipPath42">
      <path
         d="m 80,172 h 5 v 12.32 h -5 z"
         id="path40" />
    </clipPath>
  </defs>
  <sodipodi:namedview
     id="namedview4"
     pagecolor="#ffffff"
     bordercolor="#999999"
     borderopacity="1"
     inkscape:showpageshadow="0"
     inkscape:pageopacity="0"
     inkscape:pagecheckerboard="0"
     inkscape:deskcolor="#d1d1d1" />
  <g
     id="g8"
     inkscape:groupmode="layer"
     inkscape:label="1it6c04mvj0qd"
     transform="matrix(1.3333333,0,0,1.3333333,0,9.5e-6)">
    <g
       id="g10">
      <path
         d="M 0,100.539 H 92.16"
         style="fill:none;stroke:#000000;stroke-width:0.9216;stroke-linecap:butt;stroke-linejoin:miter;stroke-miterlimit:3.25;stroke-dasharray:5.5296, 5.5296;stroke-dashoffset:0;stroke-opacity:1"
         id="path12" />
      <text
         xml:space="preserve"
         transform="translate(37.677656,126.31582)"
         style="font-variant:normal;font-size:21.12px;font-family:CairoFont-0;-inkscape-font-specification:CairoFont-0-0;writing-mode:lr-tb;fill:#000000;fill-opacity:1;fill-rule:nonzero;stroke:none"
         id="text16"><tspan
           x="0"
           y="0"
           id="tspan14">H</tspan></text>
      <path
         d="m 92.16,100.539 1.078,0.195 1.039,0.129 0.965,-0.004 0.867,-0.175 0.754,-0.383 0.641,-0.59 0.539,-0.777 0.457,-0.918 0.406,-1.008 0.399,-1.024 0.425,-0.976 0.489,-0.86 0.582,-0.691 0.691,-0.496 0.809,-0.289 0.914,-0.094 1.004,0.063 1.058,0.168 1.082,0.203 1.063,0.172 1.008,0.074 0.925,-0.082 0.817,-0.27 0.699,-0.48 0.594,-0.676 0.496,-0.844 0.434,-0.965 0.402,-1.019 0.41,-1 0.457,-0.918 0.535,-0.777 0.637,-0.598 0.75,-0.387 0.859,-0.191 0.957,-0.02 1.024,0.098 1.054,0.156 1.043,0.137 0.989,0.035 0.898,-0.125 0.785,-0.328 0.668,-0.539 0.575,-0.703 0.539,-0.77 0.566,-0.722 0.637,-0.594 0.707,-0.473 0.742,-0.406 0.75,-0.395 0.742,-0.402 0.738,-0.414 0.739,-0.41 0.738,-0.414 0.73,-0.426 0.735,-0.418 0.773,-0.352 0.84,-0.226 0.914,-0.098 0.938,-0.051 0.902,-0.117 0.812,-0.285 0.692,-0.492 0.582,-0.695 0.488,-0.86 0.438,-0.957 0.425,-0.976 0.454,-0.922 0.523,-0.801 0.617,-0.629 0.727,-0.434 0.844,-0.226 0.941,-0.043 1.023,0.098 1.067,0.179 1.078,0.196 1.043,0.144 0.98,0.024 0.891,-0.145 0.773,-0.344 0.664,-0.551 0.555,-0.738 0.473,-0.894 0.414,-0.996 0.398,-1.024 0.418,-0.988 0.477,-0.887 0.562,-0.726 0.672,-0.536 0.785,-0.324 0.899,-0.129 0.988,0.039 1.051,0.153 1.082,0.207 1.07,0.183 1.02,0.098 0.941,-0.043 0.84,-0.234 0.723,-0.438 0.613,-0.644 0.512,-0.817 0.437,-0.949 0.402,-1.02"
         style="fill:none;stroke:#000000;stroke-width:0.9216;stroke-linecap:square;stroke-linejoin:miter;stroke-miterlimit:3.25;stroke-dasharray:none;stroke-opacity:1"
         id="path18" />
      <path
         d="m 125.469,82.035 7.16,-7.812 3.254,5.859 z"
         style="fill:#000000;fill-opacity:1;fill-rule:evenodd;stroke:none"
         id="path20" />
      <text
         xml:space="preserve"
         transform="translate(105.88792,68.573511)"
         style="font-variant:normal;font-size:21.12px;font-family:CairoFont-0;-inkscape-font-specification:CairoFont-0-0;writing-mode:lr-tb;fill:#000000;fill-opacity:1;fill-rule:nonzero;stroke:none"
         id="text24"><tspan
           x="0"
           y="0"
           id="tspan22">W</tspan></text>
      <path
         d="m 92.16,100.539 0.402,1.02 0.438,0.949 0.516,0.816 0.609,0.645 0.723,0.437 0.84,0.235 0.941,0.043 1.019,-0.098 1.071,-0.184 1.082,-0.203 1.054,-0.156 0.989,-0.039 0.894,0.129 0.785,0.324 0.672,0.535 0.567,0.727 0.472,0.886 0.422,0.989 0.395,1.023 0.418,0.996 0.469,0.895 0.554,0.738 0.664,0.551 0.778,0.344 0.886,0.144 0.981,-0.023 1.047,-0.145 1.074,-0.195 1.07,-0.18 1.02,-0.097 0.945,0.043 0.84,0.226 0.726,0.434 0.618,0.629 0.523,0.8 0.453,0.922 0.426,0.981 0.437,0.953 0.489,0.859 0.582,0.696 0.695,0.492 0.809,0.285 0.902,0.117 0.938,0.051 0.914,0.097 0.839,0.227 0.774,0.352 0.738,0.418 0.731,0.425 0.734,0.414 0.738,0.414 0.742,0.411 0.743,0.402 0.746,0.398 0.742,0.403 0.707,0.472 0.637,0.594 0.566,0.723 0.539,0.769 0.578,0.703 0.668,0.54 0.781,0.328 0.899,0.125 0.988,-0.036 1.043,-0.136 1.055,-0.153 1.023,-0.101 0.957,0.019 0.86,0.192 0.75,0.39 0.64,0.594 0.535,0.778 0.458,0.917 0.41,1.004 0.402,1.016 0.43,0.965 0.5,0.844 0.59,0.675 0.703,0.481 0.816,0.269 0.922,0.082 1.008,-0.074 1.062,-0.172 1.082,-0.203 1.059,-0.168 1.004,-0.062 0.914,0.093 0.808,0.29 0.692,0.496 0.582,0.691 0.492,0.859 0.426,0.977 0.394,1.023 0.411,1.008 0.457,0.922 0.535,0.774 0.64,0.589 0.754,0.383 0.867,0.176 0.969,0.004 1.039,-0.129 1.074,-0.195"
         style="fill:none;stroke:#000000;stroke-width:0.9216;stroke-linecap:square;stroke-linejoin:miter;stroke-miterlimit:3.25;stroke-dasharray:none;stroke-opacity:1"
         id="path26" />
      <path
         d="m 134.258,123.926 -7.164,-7.813 -3.254,5.86 z"
         style="fill:#000000;fill-opacity:1;fill-rule:evenodd;stroke:none"
         id="path28" />
      <text
         xml:space="preserve"
         transform="translate(105.88792,147.7216)"
         style="font-variant:normal;font-size:21.12px;font-family:CairoFont-0;-inkscape-font-specification:CairoFont-0-0;writing-mode:lr-tb;fill:#000000;fill-opacity:1;fill-rule:nonzero;stroke:none"
         id="text32"><tspan
           x="0"
           y="0"
           id="tspan30">W</tspan></text>
      <path
         d="m 95.848,100.539 c 0,0.977 -0.391,1.914 -1.082,2.606 -0.692,0.691 -1.629,1.078 -2.606,1.078 -0.976,0 -1.914,-0.387 -2.605,-1.078 -0.692,-0.692 -1.082,-1.629 -1.082,-2.606 0,-0.98 0.39,-1.918 1.082,-2.609 0.691,-0.692 1.629,-1.078 2.605,-1.078 0.977,0 1.914,0.386 2.606,1.078 0.691,0.691 1.082,1.629 1.082,2.609 z"
         style="fill:#000000;fill-opacity:1;fill-rule:evenodd;stroke:none"
         id="path34" />
    </g>
    <g
       id="g36">
      <g
         id="g38"
         clip-path="url(#clipPath42)">
        <text
           xml:space="preserve"
           transform="translate(79.055256,184.68097)"
           style="font-variant:normal;font-size:16.8px;font-family:CairoFont-1;-inkscape-font-specification:CairoFont-1-0;writing-mode:lr-tb;fill:#000000;fill-opacity:1;fill-rule:nonzero;stroke:none"
           id="text46"><tspan
             x="0"
             y="0"
             id="tspan44">1</tspan></text>
      </g>
    </g>
  </g>
</svg>
