<?xml version="1.0" encoding="UTF-8" standalone="no"?>
<!-- Created with Inkscape (http://www.inkscape.org/) -->

<svg
   version="1.1"
   id="svg2"
   width="492"
   height="246.66667"
   viewBox="0 0 492 246.66667"
   sodipodi:docname="1oma4ekmtc4x9.pdf"
   xmlns:inkscape="http://www.inkscape.org/namespaces/inkscape"
   xmlns:sodipodi="http://sodipodi.sourceforge.net/DTD/sodipodi-0.dtd"
   xmlns="http://www.w3.org/2000/svg"
   xmlns:svg="http://www.w3.org/2000/svg">
  <defs
     id="defs6">
    <clipPath
       clipPathUnits="userSpaceOnUse"
       id="clipPath22">
      <path
         d="m 11,93 h 11.801 v 12 H 11 Z"
         id="path20" />
    </clipPath>
    <clipPath
       clipPathUnits="userSpaceOnUse"
       id="clipPath70">
      <path
         d="m 79,172 h 9 v 12.32 h -9 z"
         id="path68" />
    </clipPath>
    <clipPath
       clipPathUnits="userSpaceOnUse"
       id="clipPath88">
      <path
         d="m 220,79 h 11.84 V 92 H 220 Z"
         id="path86" />
    </clipPath>
    <clipPath
       clipPathUnits="userSpaceOnUse"
       id="clipPath142">
      <path
         d="m 264,172 h 9.84 v 12.32 H 264 Z"
         id="path140" />
    </clipPath>
  </defs>
  <sodipodi:namedview
     id="namedview4"
     pagecolor="#ffffff"
     bordercolor="#999999"
     borderopacity="1"
     inkscape:showpageshadow="0"
     inkscape:pageopacity="0"
     inkscape:pagecheckerboard="0"
     inkscape:deskcolor="#d1d1d1" />
  <g
     id="g8"
     inkscape:groupmode="layer"
     inkscape:label="1oma4ekmtc4x9"
     transform="matrix(1.3333333,0,0,1.3333333,0,9.5e-6)">
    <g
       id="g10">
      <path
         d="m 0,58.648 50.27,41.891"
         style="fill:none;stroke:#000000;stroke-width:0.9216;stroke-linecap:square;stroke-linejoin:miter;stroke-miterlimit:3.25;stroke-dasharray:none;stroke-opacity:1"
         id="path12" />
      <path
         d="m 28.996,82.812 -9.867,-3.863 4.289,-5.148 z"
         style="fill:#000000;fill-opacity:1;fill-rule:evenodd;stroke:none"
         id="path14" />
    </g>
    <g
       id="g16">
      <g
         id="g18"
         clip-path="url(#clipPath22)">
        <text
           xml:space="preserve"
           transform="translate(9.7339,104.45499)"
           style="font-variant:normal;font-size:21.12px;font-family:CairoFont-0;-inkscape-font-specification:CairoFont-0-0;writing-mode:lr-tb;fill:#000000;fill-opacity:1;fill-rule:nonzero;stroke:none"
           id="text26"><tspan
             x="0"
             y="0"
             id="tspan24">e</tspan></text>
      </g>
    </g>
    <g
       id="g28">
      <path
         d="M 0,142.43 50.27,100.539"
         style="fill:none;stroke:#000000;stroke-width:0.9216;stroke-linecap:square;stroke-linejoin:miter;stroke-miterlimit:3.25;stroke-dasharray:none;stroke-opacity:1"
         id="path30" />
      <path
         d="m 21.273,124.703 9.868,-3.863 -4.289,-5.149 z"
         style="fill:#000000;fill-opacity:1;fill-rule:evenodd;stroke:none"
         id="path32" />
      <text
         xml:space="preserve"
         transform="translate(28.380972,146.3459)"
         style="font-variant:normal;font-size:21.12px;font-family:CairoFont-0;-inkscape-font-specification:CairoFont-0-0;writing-mode:lr-tb;fill:#000000;fill-opacity:1;fill-rule:nonzero;stroke:none"
         id="text36"><tspan
           x="0"
           y="0"
           id="tspan34">e</tspan></text>
      <path
         d="m 117.293,100.539 1.121,0.031 1.059,-0.043 0.941,-0.179 0.785,-0.364 0.617,-0.574 0.446,-0.773 0.3,-0.949 0.208,-1.063 0.164,-1.113 0.183,-1.09 0.27,-0.988 0.394,-0.836 0.559,-0.641 0.734,-0.43 0.895,-0.238 1.019,-0.082 1.102,0.008 1.117,0.031 1.074,-0.019 0.973,-0.145 0.832,-0.316 0.66,-0.516 0.492,-0.719 0.352,-0.89 0.25,-1.012 0.211,-1.055 0.238,-1.023 0.34,-0.906 0.484,-0.727 0.66,-0.516 0.813,-0.34 0.894,-0.234 0.883,-0.254 0.793,-0.355 0.703,-0.469 0.649,-0.531 0.633,-0.551 0.64,-0.539 0.645,-0.539 0.644,-0.535 0.649,-0.535 0.656,-0.524 0.641,-0.543 0.586,-0.605 0.492,-0.719 0.41,-0.82 0.394,-0.836 0.477,-0.739 0.629,-0.554 0.801,-0.348 0.953,-0.172 1.047,-0.051 1.078,-0.015 1.039,-0.063 0.941,-0.183 0.797,-0.356 0.625,-0.558 0.461,-0.758 0.316,-0.934 0.215,-1.051 0.168,-1.105 0.192,-1.086 0.265,-0.988 0.395,-0.836 0.558,-0.645 0.727,-0.433 0.895,-0.243 1.023,-0.082 1.102,0.012 1.125,0.043 1.082,-0.012 0.988,-0.128 0.844,-0.297 0.671,-0.5 0.5,-0.711 0.348,-0.895 0.235,-1.031 0.167,-1.106"
         style="fill:none;stroke:#000000;stroke-width:0.9216;stroke-linecap:square;stroke-linejoin:miter;stroke-miterlimit:3.25;stroke-dasharray:none;stroke-opacity:1"
         id="path38" />
      <path
         d="m 146.289,76.375 -9.867,3.863 4.289,5.149 z"
         style="fill:#000000;fill-opacity:1;fill-rule:evenodd;stroke:none"
         id="path40" />
      <text
         xml:space="preserve"
         transform="translate(116.44829,69.949215)"
         style="font-variant:normal;font-size:21.12px;font-family:CairoFont-0;-inkscape-font-specification:CairoFont-0-0;writing-mode:lr-tb;fill:#000000;fill-opacity:1;fill-rule:nonzero;stroke:none"
         id="text44"><tspan
           x="0"
           y="0"
           id="tspan42">W</tspan></text>
      <path
         d="m 117.293,100.539 0.172,1.106 0.23,1.031 0.348,0.894 0.504,0.711 0.672,0.5 0.843,0.301 0.985,0.125 1.086,0.012 1.125,-0.043 1.101,-0.012 1.024,0.082 0.89,0.242 0.731,0.434 0.555,0.644 0.398,0.836 0.266,0.989 0.187,1.086 0.172,1.105 0.215,1.051 0.316,0.933 0.461,0.758 0.625,0.559 0.797,0.355 0.938,0.184 1.039,0.062 1.078,0.016 1.051,0.051 0.949,0.172 0.804,0.347 0.629,0.555 0.477,0.738 0.394,0.836 0.407,0.821 0.492,0.718 0.59,0.606 0.64,0.543 0.653,0.527 0.648,0.531 0.645,0.535 0.644,0.54 0.641,0.539 0.637,0.55 0.648,0.532 0.699,0.468 0.797,0.356 0.883,0.254 0.894,0.238 0.809,0.336 0.66,0.519 0.488,0.723 0.34,0.906 0.239,1.024 0.211,1.055 0.25,1.011 0.347,0.891 0.496,0.719 0.66,0.515 0.829,0.317 0.972,0.144 1.074,0.02 1.122,-0.032 1.097,-0.007 1.024,0.082 0.894,0.238 0.731,0.434 0.562,0.636 0.395,0.836 0.265,0.988 0.188,1.09 0.164,1.114 0.203,1.062 0.305,0.949 0.445,0.774 0.613,0.574 0.789,0.363 0.942,0.18 1.058,0.043 1.117,-0.031"
         style="fill:none;stroke:#000000;stroke-width:0.9216;stroke-linecap:square;stroke-linejoin:miter;stroke-miterlimit:3.25;stroke-dasharray:none;stroke-opacity:1"
         id="path46" />
      <path
         d="m 138.566,118.266 9.872,3.863 -4.293,5.148 z"
         style="fill:#000000;fill-opacity:1;fill-rule:evenodd;stroke:none"
         id="path48" />
      <text
         xml:space="preserve"
         transform="translate(145.67552,111.84013)"
         style="font-variant:normal;font-size:21.12px;font-family:CairoFont-0;-inkscape-font-specification:CairoFont-0-0;writing-mode:lr-tb;fill:#000000;fill-opacity:1;fill-rule:nonzero;stroke:none"
         id="text52"><tspan
           x="0"
           y="0"
           id="tspan50">W</tspan></text>
      <path
         d="m 117.293,100.539 -0.836,-0.727 -0.84,-0.632 -0.836,-0.469 -0.84,-0.242 -0.836,0.015 -0.839,0.27 -0.836,0.488 -0.836,0.649 -0.84,0.73 -0.836,0.719 -0.84,0.621 -0.836,0.445 -0.84,0.215 -0.836,-0.043 -0.839,-0.297 -0.836,-0.511 -0.84,-0.661 -0.836,-0.734 -0.84,-0.711 -0.836,-0.605 -0.84,-0.422 -0.836,-0.184 -0.84,0.07 -0.835,0.325 -0.84,0.531 -0.836,0.672 -0.84,0.738 -0.836,0.703 -0.84,0.586 -0.836,0.399 -0.836,0.156 -0.84,-0.098 -0.836,-0.347 -0.839,-0.551 -0.836,-0.688 -0.84,-0.734 -0.836,-0.695 -0.84,-0.571 -0.836,-0.371 -0.84,-0.133 -0.836,0.133 -0.84,0.371 -0.835,0.571 -0.84,0.695 -0.836,0.734 -0.84,0.688 -0.836,0.551 -0.84,0.347 -0.836,0.098 -0.84,-0.156 -0.836,-0.399 -0.839,-0.586 -0.836,-0.703 -0.84,-0.738 -0.836,-0.672 -0.84,-0.531 -0.836,-0.325 -0.836,-0.07 -0.84,0.184 -0.836,0.422 -0.839,0.605 -0.836,0.711 -0.84,0.734 -0.836,0.661 -0.84,0.511 -0.836,0.297 -0.84,0.043 -0.836,-0.215 -0.84,-0.445 -0.836,-0.621 -0.839,-0.719 -0.836,-0.73 -0.84,-0.649 -0.836,-0.488 -0.84,-0.27 -0.836,-0.015 -0.84,0.242 -0.836,0.469 -0.84,0.632 -0.835,0.727"
         style="fill:none;stroke:#000000;stroke-width:0.9216;stroke-linecap:square;stroke-linejoin:miter;stroke-miterlimit:3.25;stroke-dasharray:none;stroke-opacity:1"
         id="path54" />
      <text
         xml:space="preserve"
         transform="translate(76.006428,128.41036)"
         style="font-variant:normal;font-size:21.12px;font-family:CairoFont-0;-inkscape-font-specification:CairoFont-0-0;writing-mode:lr-tb;fill:#000000;fill-opacity:1;fill-rule:nonzero;stroke:none"
         id="text58"><tspan
           x="0"
           y="0"
           id="tspan56">Z</tspan></text>
      <path
         d="m 53.957,100.539 c 0,0.977 -0.391,1.914 -1.082,2.606 -0.691,0.691 -1.629,1.078 -2.605,1.078 -0.977,0 -1.915,-0.387 -2.606,-1.078 -0.691,-0.692 -1.082,-1.629 -1.082,-2.606 0,-0.98 0.391,-1.918 1.082,-2.609 0.691,-0.692 1.629,-1.078 2.606,-1.078 0.976,0 1.914,0.386 2.605,1.078 0.691,0.691 1.082,1.629 1.082,2.609 z"
         style="fill:#000000;fill-opacity:1;fill-rule:evenodd;stroke:none"
         id="path60" />
      <path
         d="m 120.98,100.539 c 0,0.977 -0.386,1.914 -1.078,2.606 -0.691,0.691 -1.629,1.078 -2.609,1.078 -0.977,0 -1.914,-0.387 -2.605,-1.078 -0.692,-0.692 -1.079,-1.629 -1.079,-2.606 0,-0.98 0.387,-1.918 1.079,-2.609 0.691,-0.692 1.628,-1.078 2.605,-1.078 0.98,0 1.918,0.386 2.609,1.078 0.692,0.691 1.078,1.629 1.078,2.609 z"
         style="fill:#000000;fill-opacity:1;fill-rule:evenodd;stroke:none"
         id="path62" />
    </g>
    <g
       id="g64">
      <g
         id="g66"
         clip-path="url(#clipPath70)">
        <text
           xml:space="preserve"
           transform="translate(79.055256,184.68097)"
           style="font-variant:normal;font-size:16.8px;font-family:CairoFont-1;-inkscape-font-specification:CairoFont-1-0;writing-mode:lr-tb;fill:#000000;fill-opacity:1;fill-rule:nonzero;stroke:none"
           id="text74"><tspan
             x="0"
             y="0"
             id="tspan72">3</tspan></text>
      </g>
    </g>
    <g
       id="g76">
      <path
         d="m 184.32,58.648 83.782,8.379"
         style="fill:none;stroke:#000000;stroke-width:0.9216;stroke-linecap:square;stroke-linejoin:miter;stroke-miterlimit:3.25;stroke-dasharray:none;stroke-opacity:1"
         id="path78" />
      <path
         d="M 231.211,63.336 220.875,65.672 221.543,59 Z"
         style="fill:#000000;fill-opacity:1;fill-rule:evenodd;stroke:none"
         id="path80" />
    </g>
    <g
       id="g82">
      <g
         id="g84"
         clip-path="url(#clipPath88)">
        <text
           xml:space="preserve"
           transform="translate(218.84163,90.644098)"
           style="font-variant:normal;font-size:21.12px;font-family:CairoFont-0;-inkscape-font-specification:CairoFont-0-0;writing-mode:lr-tb;fill:#000000;fill-opacity:1;fill-rule:nonzero;stroke:none"
           id="text92"><tspan
             x="0"
             y="0"
             id="tspan90">e</tspan></text>
      </g>
    </g>
    <g
       id="g94">
      <path
         d="m 184.32,142.43 83.782,-8.379"
         style="fill:none;stroke:#000000;stroke-width:0.9216;stroke-linecap:square;stroke-linejoin:miter;stroke-miterlimit:3.25;stroke-dasharray:none;stroke-opacity:1"
         id="path96" />
      <path
         d="m 221.207,138.738 10.34,2.336 -0.668,-6.668 z"
         style="fill:#000000;fill-opacity:1;fill-rule:evenodd;stroke:none"
         id="path98" />
      <text
         xml:space="preserve"
         transform="translate(221.42597,166.04773)"
         style="font-variant:normal;font-size:21.12px;font-family:CairoFont-0;-inkscape-font-specification:CairoFont-0-0;writing-mode:lr-tb;fill:#000000;fill-opacity:1;fill-rule:nonzero;stroke:none"
         id="text102"><tspan
           x="0"
           y="0"
           id="tspan100">e</tspan></text>
      <path
         d="m 268.102,67.027 0.91,0.621 0.898,0.536 0.883,0.382 0.863,0.168 0.84,-0.07 0.816,-0.316 0.793,-0.536 0.778,-0.691 0.765,-0.785 0.766,-0.793 0.777,-0.715 0.789,-0.566 0.809,-0.36 0.836,-0.117 0.859,0.129 0.879,0.344 0.899,0.515 0.906,0.61 0.91,0.625 0.902,0.558 0.887,0.411 0.867,0.207 0.844,-0.028 0.817,-0.273 0.796,-0.496 0.782,-0.664 0.769,-0.77 0.766,-0.789 0.773,-0.723 0.789,-0.582 0.809,-0.382 0.832,-0.149 0.855,0.094 0.875,0.312 0.895,0.473 1.805,1.117 0.894,0.465 0.875,0.285 0.848,0.051 0.828,-0.199 0.805,-0.399 0.8,-0.488 0.801,-0.441 0.817,-0.301 0.828,-0.156 0.84,-0.082 0.839,-0.067 0.84,-0.078 0.836,-0.082 0.836,-0.086 0.84,-0.09 0.836,-0.101 0.836,-0.086 0.848,-0.008 0.859,0.133 0.871,0.273 0.879,0.321 0.871,0.23 0.848,0.031 0.824,-0.219 0.801,-0.453 0.785,-0.632 1.547,-1.454 0.781,-0.64 0.797,-0.477 0.82,-0.262 0.844,-0.019 0.867,0.215 0.891,0.414 0.902,0.555 0.906,0.621 0.907,0.601 0.894,0.5 0.879,0.324 0.859,0.11 0.832,-0.141 0.809,-0.375 0.789,-0.578 0.773,-0.723 0.766,-0.793 0.77,-0.781 0.777,-0.68 0.797,-0.515 0.816,-0.293 0.84,-0.051 0.863,0.192 0.887,0.398 0.902,0.547 0.911,0.625 0.906,0.617 0.898,0.527 0.883,0.364 0.859,0.148 0.84,-0.094 0.813,-0.336 0.789,-0.55 0.777,-0.703 0.766,-0.79"
         style="fill:none;stroke:#000000;stroke-width:0.9216;stroke-linecap:square;stroke-linejoin:miter;stroke-miterlimit:3.25;stroke-dasharray:none;stroke-opacity:1"
         id="path104" />
      <path
         d="M 314.996,62.336 304.656,60 l 0.668,6.672 z"
         style="fill:#000000;fill-opacity:1;fill-rule:evenodd;stroke:none"
         id="path106" />
      <text
         xml:space="preserve"
         transform="translate(297.33337,50.247379)"
         style="font-variant:normal;font-size:21.12px;font-family:CairoFont-0;-inkscape-font-specification:CairoFont-0-0;writing-mode:lr-tb;fill:#000000;fill-opacity:1;fill-rule:nonzero;stroke:none"
         id="text110"><tspan
           x="0"
           y="0"
           id="tspan108">W</tspan></text>
      <path
         d="m 268.102,134.051 0.769,0.789 0.774,0.707 0.793,0.547 0.812,0.336 0.836,0.097 0.859,-0.148 0.883,-0.367 0.899,-0.528 0.91,-0.617 0.906,-0.625 0.902,-0.547 0.887,-0.398 0.863,-0.188 0.844,0.047 0.816,0.297 0.793,0.512 0.778,0.683 0.769,0.778 0.766,0.793 0.777,0.722 0.785,0.582 0.809,0.375 0.836,0.137 0.855,-0.105 0.879,-0.328 0.895,-0.5 0.906,-0.598 0.91,-0.621 0.903,-0.555 0.886,-0.418 0.868,-0.215 0.843,0.02 0.821,0.262 0.796,0.48 0.786,0.637 0.773,0.73 0.773,0.727 0.782,0.629 0.801,0.453 0.824,0.219 0.851,-0.032 0.868,-0.226 0.878,-0.324 0.875,-0.274 0.86,-0.133 0.844,0.012 0.835,0.086 0.836,0.098 0.84,0.093 0.836,0.082 0.84,0.082 0.836,0.079 0.84,0.07 0.84,0.078 0.828,0.16 0.816,0.297 0.805,0.445 0.797,0.489 0.804,0.398 0.829,0.195 0.851,-0.05 0.875,-0.286 0.891,-0.464 1.804,-1.118 0.895,-0.472 0.875,-0.309 0.855,-0.094 0.832,0.145 0.809,0.383 0.789,0.582 0.774,0.726 0.765,0.785 0.77,0.77 0.781,0.664 0.797,0.496 0.816,0.274 0.844,0.031 0.867,-0.207 0.887,-0.414 0.902,-0.555 0.91,-0.625 0.907,-0.613 0.898,-0.512 0.883,-0.348 0.855,-0.125 0.836,0.118 0.813,0.355 0.789,0.566 0.773,0.715 0.766,0.793 0.769,0.785 0.778,0.696 0.793,0.531 0.812,0.316 0.84,0.075 0.863,-0.172 0.883,-0.379 0.903,-0.539 0.906,-0.621"
         style="fill:none;stroke:#000000;stroke-width:0.9216;stroke-linecap:square;stroke-linejoin:miter;stroke-miterlimit:3.25;stroke-dasharray:none;stroke-opacity:1"
         id="path112" />
      <path
         d="m 304.992,137.738 10.336,-2.332 -0.668,6.668 z"
         style="fill:#000000;fill-opacity:1;fill-rule:evenodd;stroke:none"
         id="path114" />
      <text
         xml:space="preserve"
         transform="translate(299.91771,125.65102)"
         style="font-variant:normal;font-size:21.12px;font-family:CairoFont-0;-inkscape-font-specification:CairoFont-0-0;writing-mode:lr-tb;fill:#000000;fill-opacity:1;fill-rule:nonzero;stroke:none"
         id="text118"><tspan
           x="0"
           y="0"
           id="tspan116">W</tspan></text>
      <path
         d="m 268.102,67.027 v 67.024"
         style="fill:none;stroke:#000000;stroke-width:0.9216;stroke-linecap:square;stroke-linejoin:miter;stroke-miterlimit:3.25;stroke-dasharray:none;stroke-opacity:1"
         id="path120" />
      <path
         d="M 268.102,105.566 264.75,95.512 h 6.703 z"
         style="fill:#000000;fill-opacity:1;fill-rule:evenodd;stroke:none"
         id="path122" />
      <text
         xml:space="preserve"
         transform="translate(239.98104,103.86338)"
         style="font-variant:normal;font-size:20.16px;font-family:CairoFont-2;-inkscape-font-specification:CairoFont-2-1;writing-mode:lr-tb;fill:#000000;fill-opacity:1;fill-rule:nonzero;stroke:none"
         id="text126"><tspan
           x="0"
           y="0"
           id="tspan124">ν</tspan></text>
      <text
         xml:space="preserve"
         transform="translate(251.13729,107.7833)"
         style="font-variant:normal;font-size:14.88px;font-family:CairoFont-1;-inkscape-font-specification:CairoFont-1-0;writing-mode:lr-tb;fill:#000000;fill-opacity:1;fill-rule:nonzero;stroke:none"
         id="text130"><tspan
           x="0"
           y="0"
           id="tspan128">e</tspan></text>
      <path
         d="m 271.789,67.027 c 0,0.977 -0.391,1.914 -1.082,2.606 -0.691,0.691 -1.629,1.078 -2.605,1.078 -0.977,0 -1.914,-0.387 -2.606,-1.078 -0.691,-0.692 -1.082,-1.629 -1.082,-2.606 0,-0.98 0.391,-1.918 1.082,-2.609 0.692,-0.691 1.629,-1.078 2.606,-1.078 0.976,0 1.914,0.387 2.605,1.078 0.691,0.691 1.082,1.629 1.082,2.609 z"
         style="fill:#000000;fill-opacity:1;fill-rule:evenodd;stroke:none"
         id="path132" />
      <path
         d="m 271.789,134.051 c 0,0.976 -0.391,1.914 -1.082,2.605 -0.691,0.692 -1.629,1.082 -2.605,1.082 -0.977,0 -1.914,-0.39 -2.606,-1.082 -0.691,-0.691 -1.082,-1.629 -1.082,-2.605 0,-0.977 0.391,-1.914 1.082,-2.606 0.692,-0.691 1.629,-1.082 2.606,-1.082 0.976,0 1.914,0.391 2.605,1.082 0.691,0.692 1.082,1.629 1.082,2.606 z"
         style="fill:#000000;fill-opacity:1;fill-rule:evenodd;stroke:none"
         id="path134" />
    </g>
    <g
       id="g136">
      <g
         id="g138"
         clip-path="url(#clipPath142)">
        <text
           xml:space="preserve"
           transform="translate(263.37526,184.68097)"
           style="font-variant:normal;font-size:16.8px;font-family:CairoFont-0;-inkscape-font-specification:CairoFont-0-0;writing-mode:lr-tb;fill:#000000;fill-opacity:1;fill-rule:nonzero;stroke:none"
           id="text146"><tspan
             x="0"
             y="0"
             id="tspan144">4</tspan></text>
      </g>
    </g>
  </g>
</svg>
