<?xml version="1.0" encoding="UTF-8" standalone="no"?>
<!-- Created with Inkscape (http://www.inkscape.org/) -->

<svg
   version="1.1"
   id="svg2"
   width="346.66666"
   height="212"
   viewBox="0 0 346.66666 212"
   sodipodi:docname="1sxoza52dlo5q.pdf"
   xmlns:inkscape="http://www.inkscape.org/namespaces/inkscape"
   xmlns:sodipodi="http://sodipodi.sourceforge.net/DTD/sodipodi-0.dtd"
   xmlns="http://www.w3.org/2000/svg"
   xmlns:svg="http://www.w3.org/2000/svg">
  <defs
     id="defs6">
    <clipPath
       clipPathUnits="userSpaceOnUse"
       id="clipPath80">
      <path
         d="m 3,149 h 256.199 v 2 H 3 Z"
         id="path78" />
    </clipPath>
    <clipPath
       clipPathUnits="userSpaceOnUse"
       id="clipPath90">
      <path
         d="m 8,157 h 3 v 1.879 H 8 Z"
         id="path88" />
    </clipPath>
  </defs>
  <sodipodi:namedview
     id="namedview4"
     pagecolor="#ffffff"
     bordercolor="#999999"
     borderopacity="1"
     inkscape:showpageshadow="0"
     inkscape:pageopacity="0"
     inkscape:pagecheckerboard="0"
     inkscape:deskcolor="#d1d1d1" />
  <g
     id="g8"
     inkscape:groupmode="layer"
     inkscape:label="1sxoza52dlo5q"
     transform="matrix(1.3333333,0,0,1.3333333,0,5.3e-6)">
    <g
       id="g10">
      <path
         d="m 8.934,150.012 0.074,-0.371 0.074,-0.364 0.152,-0.726 0.301,-1.422 0.602,-2.75 1.199,-5.152 0.078,-0.309 0.074,-0.309 0.149,-0.609 0.301,-1.199 0.601,-2.34 1.203,-4.434 0.164,-0.578 0.16,-0.574 0.329,-1.133 0.652,-2.207 1.301,-4.211 2.609,-7.707 0.148,-0.422 0.153,-0.422 0.304,-0.835 0.61,-1.637 1.219,-3.164 2.433,-5.922 4.77,-10.277 5.179,-9.579 4.829,-7.785 5.238,-7.414 5.14,-6.422 4.793,-5.343 5.2,-5.192 4.855,-4.348 4.758,-3.855 5.16,-3.773 4.82,-3.184 5.219,-3.113 5.129,-2.758 4.781,-2.328 5.184,-2.278 4.84,-1.921 5.246,-1.879 5.148,-1.653 4.801,-1.383 5.211,-1.343 4.859,-1.121 4.77,-0.981 5.172,-0.945 4.824,-0.774 5.23,-0.73 5.133,-0.621 4.793,-0.496 0.078,-0.004 0.246,-0.024 0.973,-0.093 1.297,-0.114 2.598,-0.214 0.078,-0.008 0.074,-0.004 0.152,-0.012 0.301,-0.023 0.609,-0.047 1.211,-0.09 2.422,-0.168 0.149,-0.008 0.148,-0.012 0.301,-0.015 0.594,-0.039 1.187,-0.071 0.149,-0.007 0.148,-0.012 0.297,-0.016 0.594,-0.035 1.187,-0.062 0.082,-0.004 0.078,-0.004 0.164,-0.008 0.321,-0.016 0.644,-0.035 1.289,-0.058 0.164,-0.008 0.481,-0.024 0.644,-0.027 1.289,-0.051 0.079,-0.004 0.074,-0.004 0.148,-0.003 0.903,-0.036 1.203,-0.039 0.078,-0.004 0.074,-0.004 0.148,-0.003 0.301,-0.008 0.602,-0.02 1.203,-0.035 0.082,-0.004 h 0.082 l 0.164,-0.004 0.324,-0.011 0.653,-0.016 h 0.082 l 0.082,-0.004 0.164,-0.004 0.324,-0.008 0.652,-0.015 h 0.082 l 0.082,-0.004 0.164,-0.004 0.325,-0.004 0.652,-0.016 1.305,-0.023 h 0.152 l 0.152,-0.004 0.305,-0.004 0.606,-0.008 h 0.078 l 0.074,-0.004 h 0.152 l 0.914,-0.011 h 0.078 l 0.075,-0.004 h 0.152 L 191.93,8.09 h 0.304 l 0.305,-0.004 h 0.074 l 0.078,-0.004 h 0.457 l 0.075,-0.004 h 0.23 l 0.305,-0.004 h 0.597 L 194.43,8.07 h 0.894 l 0.074,-0.004 h 3.215 l 0.082,0.004 h 0.809 l 0.324,0.004 h 0.324 l 0.325,0.004 h 0.32 l 0.324,0.004 h 0.164 l 0.16,0.004 h 0.325 l 0.648,0.008 h 0.16 l 0.164,0.004 h 0.324 l 0.645,0.007 0.078,0.004 h 0.227 l 0.3,0.004 0.606,0.008 0.074,0.004 h 0.074 l 0.153,0.004 0.3,0.004 0.606,0.008 h 0.074 l 0.078,0.004 h 0.149 l 0.304,0.007 0.606,0.012 1.207,0.02 0.082,0.004 h 0.082 l 0.492,0.011 0.652,0.016 1.313,0.027 0.082,0.004 h 0.078 l 0.164,0.004 0.328,0.012 0.657,0.015 1.308,0.035 0.082,0.004 h 0.078 l 0.16,0.004 0.325,0.012 0.64,0.02 1.289,0.039 2.571,0.086 0.148,0.007 0.152,0.004 0.297,0.012 0.602,0.023 1.199,0.047 2.399,0.098 5.203,0.238 4.855,0.25 4.762,0.274 5.168,0.324 4.82,0.328 0.082,0.008 0.086,0.004 0.504,0.035 0.672,0.051 1.348,0.093 0.082,0.008 0.086,0.008 0.503,0.035 0.672,0.051 0.086,0.004 0.082,0.008 0.504,0.035 0.086,0.008 0.082,0.008 0.168,0.011 0.086,0.004 0.082,0.008 0.086,0.008 0.086,0.004"
         style="fill:none;stroke:#5e81b5;stroke-width:1.44;stroke-linecap:square;stroke-linejoin:miter;stroke-miterlimit:3.25;stroke-dasharray:none;stroke-opacity:1"
         id="path12" />
      <path
         d="m 8.934,150.012 v -1.809"
         style="fill:none;stroke:#000000;stroke-width:0.36;stroke-linecap:butt;stroke-linejoin:miter;stroke-miterlimit:3.25;stroke-dasharray:none;stroke-opacity:1"
         id="path14" />
      <path
         d="m 20.328,150.012 v -1.809"
         style="fill:none;stroke:#000000;stroke-width:0.36;stroke-linecap:butt;stroke-linejoin:miter;stroke-miterlimit:3.25;stroke-dasharray:none;stroke-opacity:1"
         id="path16" />
      <path
         d="m 31.723,150.012 v -1.809"
         style="fill:none;stroke:#000000;stroke-width:0.36;stroke-linecap:butt;stroke-linejoin:miter;stroke-miterlimit:3.25;stroke-dasharray:none;stroke-opacity:1"
         id="path18" />
      <path
         d="m 43.117,150.012 v -1.809"
         style="fill:none;stroke:#000000;stroke-width:0.36;stroke-linecap:butt;stroke-linejoin:miter;stroke-miterlimit:3.25;stroke-dasharray:none;stroke-opacity:1"
         id="path20" />
      <path
         d="M 54.512,150.012 V 147"
         style="fill:none;stroke:#000000;stroke-width:0.36;stroke-linecap:butt;stroke-linejoin:miter;stroke-miterlimit:3.25;stroke-dasharray:none;stroke-opacity:1"
         id="path22" />
      <text
         xml:space="preserve"
         transform="translate(49.466703,157.60801)"
         style="font-variant:normal;font-size:6.48px;font-family:CairoFont-0;-inkscape-font-specification:CairoFont-0-0;writing-mode:lr-tb;fill:#000000;fill-opacity:1;fill-rule:nonzero;stroke:none"
         id="text26"><tspan
           x="0 3.60288 7.20576"
           y="0"
           sodipodi:role="line"
           id="tspan24">170</tspan></text>
      <path
         d="m 65.906,150.012 v -1.809"
         style="fill:none;stroke:#000000;stroke-width:0.36;stroke-linecap:butt;stroke-linejoin:miter;stroke-miterlimit:3.25;stroke-dasharray:none;stroke-opacity:1"
         id="path28" />
      <path
         d="m 77.301,150.012 v -1.809"
         style="fill:none;stroke:#000000;stroke-width:0.36;stroke-linecap:butt;stroke-linejoin:miter;stroke-miterlimit:3.25;stroke-dasharray:none;stroke-opacity:1"
         id="path30" />
      <path
         d="m 88.695,150.012 v -1.809"
         style="fill:none;stroke:#000000;stroke-width:0.36;stroke-linecap:butt;stroke-linejoin:miter;stroke-miterlimit:3.25;stroke-dasharray:none;stroke-opacity:1"
         id="path32" />
      <path
         d="m 100.09,150.012 v -1.809"
         style="fill:none;stroke:#000000;stroke-width:0.36;stroke-linecap:butt;stroke-linejoin:miter;stroke-miterlimit:3.25;stroke-dasharray:none;stroke-opacity:1"
         id="path34" />
      <path
         d="M 111.484,150.012 V 147"
         style="fill:none;stroke:#000000;stroke-width:0.36;stroke-linecap:butt;stroke-linejoin:miter;stroke-miterlimit:3.25;stroke-dasharray:none;stroke-opacity:1"
         id="path36" />
      <text
         xml:space="preserve"
         transform="translate(106.43944,157.60801)"
         style="font-variant:normal;font-size:6.48px;font-family:CairoFont-0;-inkscape-font-specification:CairoFont-0-0;writing-mode:lr-tb;fill:#000000;fill-opacity:1;fill-rule:nonzero;stroke:none"
         id="text40"><tspan
           x="0 3.60288 7.20576"
           y="0"
           sodipodi:role="line"
           id="tspan38">180</tspan></text>
      <path
         d="m 122.879,150.012 v -1.809"
         style="fill:none;stroke:#000000;stroke-width:0.36;stroke-linecap:butt;stroke-linejoin:miter;stroke-miterlimit:3.25;stroke-dasharray:none;stroke-opacity:1"
         id="path42" />
      <path
         d="m 134.273,150.012 v -1.809"
         style="fill:none;stroke:#000000;stroke-width:0.36;stroke-linecap:butt;stroke-linejoin:miter;stroke-miterlimit:3.25;stroke-dasharray:none;stroke-opacity:1"
         id="path44" />
      <path
         d="m 145.668,150.012 v -1.809"
         style="fill:none;stroke:#000000;stroke-width:0.36;stroke-linecap:butt;stroke-linejoin:miter;stroke-miterlimit:3.25;stroke-dasharray:none;stroke-opacity:1"
         id="path46" />
      <path
         d="m 157.062,150.012 v -1.809"
         style="fill:none;stroke:#000000;stroke-width:0.36;stroke-linecap:butt;stroke-linejoin:miter;stroke-miterlimit:3.25;stroke-dasharray:none;stroke-opacity:1"
         id="path48" />
      <path
         d="M 168.457,150.012 V 147"
         style="fill:none;stroke:#000000;stroke-width:0.36;stroke-linecap:butt;stroke-linejoin:miter;stroke-miterlimit:3.25;stroke-dasharray:none;stroke-opacity:1"
         id="path50" />
      <text
         xml:space="preserve"
         transform="translate(163.41217,157.60801)"
         style="font-variant:normal;font-size:6.48px;font-family:CairoFont-0;-inkscape-font-specification:CairoFont-0-0;writing-mode:lr-tb;fill:#000000;fill-opacity:1;fill-rule:nonzero;stroke:none"
         id="text54"><tspan
           x="0 3.60288 7.20576"
           y="0"
           sodipodi:role="line"
           id="tspan52">190</tspan></text>
      <path
         d="m 179.852,150.012 v -1.809"
         style="fill:none;stroke:#000000;stroke-width:0.36;stroke-linecap:butt;stroke-linejoin:miter;stroke-miterlimit:3.25;stroke-dasharray:none;stroke-opacity:1"
         id="path56" />
      <path
         d="m 191.246,150.012 v -1.809"
         style="fill:none;stroke:#000000;stroke-width:0.36;stroke-linecap:butt;stroke-linejoin:miter;stroke-miterlimit:3.25;stroke-dasharray:none;stroke-opacity:1"
         id="path58" />
      <path
         d="m 202.641,150.012 v -1.809"
         style="fill:none;stroke:#000000;stroke-width:0.36;stroke-linecap:butt;stroke-linejoin:miter;stroke-miterlimit:3.25;stroke-dasharray:none;stroke-opacity:1"
         id="path60" />
      <path
         d="m 214.035,150.012 v -1.809"
         style="fill:none;stroke:#000000;stroke-width:0.36;stroke-linecap:butt;stroke-linejoin:miter;stroke-miterlimit:3.25;stroke-dasharray:none;stroke-opacity:1"
         id="path62" />
      <path
         d="M 225.43,150.012 V 147"
         style="fill:none;stroke:#000000;stroke-width:0.36;stroke-linecap:butt;stroke-linejoin:miter;stroke-miterlimit:3.25;stroke-dasharray:none;stroke-opacity:1"
         id="path64" />
      <text
         xml:space="preserve"
         transform="translate(220.3849,157.60801)"
         style="font-variant:normal;font-size:6.48px;font-family:CairoFont-0;-inkscape-font-specification:CairoFont-0-0;writing-mode:lr-tb;fill:#000000;fill-opacity:1;fill-rule:nonzero;stroke:none"
         id="text68"><tspan
           x="0 3.60288 7.20576"
           y="0"
           sodipodi:role="line"
           id="tspan66">200</tspan></text>
      <path
         d="m 236.824,150.012 v -1.809"
         style="fill:none;stroke:#000000;stroke-width:0.36;stroke-linecap:butt;stroke-linejoin:miter;stroke-miterlimit:3.25;stroke-dasharray:none;stroke-opacity:1"
         id="path70" />
      <path
         d="m 248.219,150.012 v -1.809"
         style="fill:none;stroke:#000000;stroke-width:0.36;stroke-linecap:butt;stroke-linejoin:miter;stroke-miterlimit:3.25;stroke-dasharray:none;stroke-opacity:1"
         id="path72" />
    </g>
    <g
       id="g74">
      <g
         id="g76"
         clip-path="url(#clipPath80)">
        <path
           d="M 3.828,150.012 H 259.02"
           style="fill:none;stroke:#000000;stroke-width:0.36;stroke-linecap:butt;stroke-linejoin:miter;stroke-miterlimit:3.25;stroke-dasharray:none;stroke-opacity:1"
           id="path82" />
      </g>
    </g>
    <g
       id="g84">
      <g
         id="g86"
         clip-path="url(#clipPath90)">
        <path
           d="m 8.934,157.844 h 1.804"
           style="fill:none;stroke:#000000;stroke-width:0.36;stroke-linecap:butt;stroke-linejoin:miter;stroke-miterlimit:3.25;stroke-dasharray:none;stroke-opacity:1"
           id="path92" />
      </g>
    </g>
    <g
       id="g94">
      <path
         d="m 8.934,151.555 h 1.804"
         style="fill:none;stroke:#000000;stroke-width:0.36;stroke-linecap:butt;stroke-linejoin:miter;stroke-miterlimit:3.25;stroke-dasharray:none;stroke-opacity:1"
         id="path96" />
      <path
         d="m 8.934,145.266 h 3.007"
         style="fill:none;stroke:#000000;stroke-width:0.36;stroke-linecap:butt;stroke-linejoin:miter;stroke-miterlimit:3.25;stroke-dasharray:none;stroke-opacity:1"
         id="path98" />
      <path
         d="m 8.934,138.977 h 1.804"
         style="fill:none;stroke:#000000;stroke-width:0.36;stroke-linecap:butt;stroke-linejoin:miter;stroke-miterlimit:3.25;stroke-dasharray:none;stroke-opacity:1"
         id="path100" />
      <path
         d="m 8.934,132.691 h 1.804"
         style="fill:none;stroke:#000000;stroke-width:0.36;stroke-linecap:butt;stroke-linejoin:miter;stroke-miterlimit:3.25;stroke-dasharray:none;stroke-opacity:1"
         id="path102" />
      <path
         d="m 8.934,126.402 h 1.804"
         style="fill:none;stroke:#000000;stroke-width:0.36;stroke-linecap:butt;stroke-linejoin:miter;stroke-miterlimit:3.25;stroke-dasharray:none;stroke-opacity:1"
         id="path104" />
      <path
         d="m 8.934,120.113 h 3.007"
         style="fill:none;stroke:#000000;stroke-width:0.36;stroke-linecap:butt;stroke-linejoin:miter;stroke-miterlimit:3.25;stroke-dasharray:none;stroke-opacity:1"
         id="path106" />
      <text
         xml:space="preserve"
         transform="translate(3.316406,122.19946)"
         style="font-variant:normal;font-size:6.48px;font-family:CairoFont-0;-inkscape-font-specification:CairoFont-0-0;writing-mode:lr-tb;fill:#000000;fill-opacity:1;fill-rule:nonzero;stroke:none"
         id="text110"><tspan
           x="0"
           y="0"
           id="tspan108">8</tspan></text>
      <path
         d="m 8.934,113.824 h 1.804"
         style="fill:none;stroke:#000000;stroke-width:0.36;stroke-linecap:butt;stroke-linejoin:miter;stroke-miterlimit:3.25;stroke-dasharray:none;stroke-opacity:1"
         id="path112" />
      <path
         d="m 8.934,107.539 h 1.804"
         style="fill:none;stroke:#000000;stroke-width:0.36;stroke-linecap:butt;stroke-linejoin:miter;stroke-miterlimit:3.25;stroke-dasharray:none;stroke-opacity:1"
         id="path114" />
      <path
         d="m 8.934,101.25 h 1.804"
         style="fill:none;stroke:#000000;stroke-width:0.36;stroke-linecap:butt;stroke-linejoin:miter;stroke-miterlimit:3.25;stroke-dasharray:none;stroke-opacity:1"
         id="path116" />
      <path
         d="m 8.934,94.961 h 3.007"
         style="fill:none;stroke:#000000;stroke-width:0.36;stroke-linecap:butt;stroke-linejoin:miter;stroke-miterlimit:3.25;stroke-dasharray:none;stroke-opacity:1"
         id="path118" />
      <text
         xml:space="preserve"
         transform="translate(0.0117187,97.046928)"
         style="font-variant:normal;font-size:6.48px;font-family:CairoFont-0;-inkscape-font-specification:CairoFont-0-0;writing-mode:lr-tb;fill:#000000;fill-opacity:1;fill-rule:nonzero;stroke:none"
         id="text122"><tspan
           x="0 3.60288"
           y="0"
           sodipodi:role="line"
           id="tspan120">10</tspan></text>
      <path
         d="m 8.934,88.672 h 1.804"
         style="fill:none;stroke:#000000;stroke-width:0.36;stroke-linecap:butt;stroke-linejoin:miter;stroke-miterlimit:3.25;stroke-dasharray:none;stroke-opacity:1"
         id="path124" />
      <path
         d="m 8.934,82.383 h 1.804"
         style="fill:none;stroke:#000000;stroke-width:0.36;stroke-linecap:butt;stroke-linejoin:miter;stroke-miterlimit:3.25;stroke-dasharray:none;stroke-opacity:1"
         id="path126" />
      <path
         d="m 8.934,76.098 h 1.804"
         style="fill:none;stroke:#000000;stroke-width:0.36;stroke-linecap:butt;stroke-linejoin:miter;stroke-miterlimit:3.25;stroke-dasharray:none;stroke-opacity:1"
         id="path128" />
      <path
         d="m 8.934,69.809 h 3.007"
         style="fill:none;stroke:#000000;stroke-width:0.36;stroke-linecap:butt;stroke-linejoin:miter;stroke-miterlimit:3.25;stroke-dasharray:none;stroke-opacity:1"
         id="path130" />
      <text
         xml:space="preserve"
         transform="translate(0.046875,71.894398)"
         style="font-variant:normal;font-size:6.48px;font-family:CairoFont-0;-inkscape-font-specification:CairoFont-0-0;writing-mode:lr-tb;fill:#000000;fill-opacity:1;fill-rule:nonzero;stroke:none"
         id="text134"><tspan
           x="0 3.60288"
           y="0"
           sodipodi:role="line"
           id="tspan132">12</tspan></text>
      <path
         d="m 8.934,63.52 h 1.804"
         style="fill:none;stroke:#000000;stroke-width:0.36;stroke-linecap:butt;stroke-linejoin:miter;stroke-miterlimit:3.25;stroke-dasharray:none;stroke-opacity:1"
         id="path136" />
      <path
         d="m 8.934,57.23 h 1.804"
         style="fill:none;stroke:#000000;stroke-width:0.36;stroke-linecap:butt;stroke-linejoin:miter;stroke-miterlimit:3.25;stroke-dasharray:none;stroke-opacity:1"
         id="path138" />
      <path
         d="m 8.934,50.945 h 1.804"
         style="fill:none;stroke:#000000;stroke-width:0.36;stroke-linecap:butt;stroke-linejoin:miter;stroke-miterlimit:3.25;stroke-dasharray:none;stroke-opacity:1"
         id="path140" />
      <path
         d="m 8.934,44.656 h 3.007"
         style="fill:none;stroke:#000000;stroke-width:0.36;stroke-linecap:butt;stroke-linejoin:miter;stroke-miterlimit:3.25;stroke-dasharray:none;stroke-opacity:1"
         id="path142" />
      <text
         xml:space="preserve"
         transform="translate(0.0117187,46.741868)"
         style="font-variant:normal;font-size:6.48px;font-family:CairoFont-0;-inkscape-font-specification:CairoFont-0-0;writing-mode:lr-tb;fill:#000000;fill-opacity:1;fill-rule:nonzero;stroke:none"
         id="text146"><tspan
           x="0 3.60288"
           y="0"
           sodipodi:role="line"
           id="tspan144">14</tspan></text>
      <path
         d="m 8.934,38.367 h 1.804"
         style="fill:none;stroke:#000000;stroke-width:0.36;stroke-linecap:butt;stroke-linejoin:miter;stroke-miterlimit:3.25;stroke-dasharray:none;stroke-opacity:1"
         id="path148" />
      <path
         d="m 8.934,32.078 h 1.804"
         style="fill:none;stroke:#000000;stroke-width:0.36;stroke-linecap:butt;stroke-linejoin:miter;stroke-miterlimit:3.25;stroke-dasharray:none;stroke-opacity:1"
         id="path150" />
      <path
         d="m 8.934,25.793 h 1.804"
         style="fill:none;stroke:#000000;stroke-width:0.36;stroke-linecap:butt;stroke-linejoin:miter;stroke-miterlimit:3.25;stroke-dasharray:none;stroke-opacity:1"
         id="path152" />
      <path
         d="m 8.934,19.504 h 3.007"
         style="fill:none;stroke:#000000;stroke-width:0.36;stroke-linecap:butt;stroke-linejoin:miter;stroke-miterlimit:3.25;stroke-dasharray:none;stroke-opacity:1"
         id="path154" />
      <text
         xml:space="preserve"
         transform="translate(0,21.589339)"
         style="font-variant:normal;font-size:6.48px;font-family:CairoFont-0;-inkscape-font-specification:CairoFont-0-0;writing-mode:lr-tb;fill:#000000;fill-opacity:1;fill-rule:nonzero;stroke:none"
         id="text158"><tspan
           x="0 3.60288"
           y="0"
           sodipodi:role="line"
           id="tspan156">16</tspan></text>
      <path
         d="m 8.934,13.215 h 1.804"
         style="fill:none;stroke:#000000;stroke-width:0.36;stroke-linecap:butt;stroke-linejoin:miter;stroke-miterlimit:3.25;stroke-dasharray:none;stroke-opacity:1"
         id="path160" />
      <path
         d="m 8.934,6.926 h 1.804"
         style="fill:none;stroke:#000000;stroke-width:0.36;stroke-linecap:butt;stroke-linejoin:miter;stroke-miterlimit:3.25;stroke-dasharray:none;stroke-opacity:1"
         id="path162" />
      <path
         d="m 8.934,0.641 h 1.804"
         style="fill:none;stroke:#000000;stroke-width:0.36;stroke-linecap:butt;stroke-linejoin:miter;stroke-miterlimit:3.25;stroke-dasharray:none;stroke-opacity:1"
         id="path164" />
      <path
         d="M 8.934,157.895 V 0.18"
         style="fill:none;stroke:#000000;stroke-width:0.36;stroke-linecap:butt;stroke-linejoin:miter;stroke-miterlimit:3.25;stroke-dasharray:none;stroke-opacity:1"
         id="path166" />
    </g>
  </g>
</svg>
