<?xml version="1.0" encoding="UTF-8" standalone="no"?>
<!-- Created with Inkscape (http://www.inkscape.org/) -->

<svg
   version="1.1"
   id="svg2"
   width="492"
   height="246.66667"
   viewBox="0 0 492 246.66667"
   sodipodi:docname="00hnmheba4q54.pdf"
   xmlns:inkscape="http://www.inkscape.org/namespaces/inkscape"
   xmlns:sodipodi="http://sodipodi.sourceforge.net/DTD/sodipodi-0.dtd"
   xmlns="http://www.w3.org/2000/svg"
   xmlns:svg="http://www.w3.org/2000/svg">
  <defs
     id="defs6">
    <clipPath
       clipPathUnits="userSpaceOnUse"
       id="clipPath36">
      <path
         d="m 121,39 h 9.801 V 55 H 121 Z"
         id="path34" />
    </clipPath>
    <clipPath
       clipPathUnits="userSpaceOnUse"
       id="clipPath52">
      <path
         d="m 123,115 h 10.441 v 15 H 123 Z"
         id="path50" />
    </clipPath>
    <clipPath
       clipPathUnits="userSpaceOnUse"
       id="clipPath78">
      <path
         d="m 80,172 h 5 v 12.32 h -5 z"
         id="path76" />
    </clipPath>
    <clipPath
       clipPathUnits="userSpaceOnUse"
       id="clipPath110">
      <path
         d="m 317,59 h 10.121 V 75 H 317 Z"
         id="path108" />
    </clipPath>
    <clipPath
       clipPathUnits="userSpaceOnUse"
       id="clipPath126">
      <path
         d="m 333,101 h 10.441 v 16 H 333 Z"
         id="path124" />
    </clipPath>
    <clipPath
       clipPathUnits="userSpaceOnUse"
       id="clipPath152">
      <path
         d="m 263,172 h 10 v 12.32 h -10 z"
         id="path150" />
    </clipPath>
  </defs>
  <sodipodi:namedview
     id="namedview4"
     pagecolor="#ffffff"
     bordercolor="#999999"
     borderopacity="1"
     inkscape:showpageshadow="0"
     inkscape:pageopacity="0"
     inkscape:pagecheckerboard="0"
     inkscape:deskcolor="#d1d1d1" />
  <g
     id="g8"
     inkscape:groupmode="layer"
     inkscape:label="00hnmheba4q54"
     transform="matrix(1.3333333,0,0,1.3333333,0,9.5e-6)">
    <g
       id="g10">
      <path
         d="m 0,58.648 83.781,8.379"
         style="fill:none;stroke:#000000;stroke-width:0.9216;stroke-linecap:square;stroke-linejoin:miter;stroke-miterlimit:3.25;stroke-dasharray:none;stroke-opacity:1"
         id="path12" />
      <path
         d="M 46.895,63.336 36.555,65.672 37.223,59 Z"
         style="fill:#000000;fill-opacity:1;fill-rule:evenodd;stroke:none"
         id="path14" />
      <text
         xml:space="preserve"
         transform="translate(34.358501,90.644098)"
         style="font-variant:normal;font-size:21.12px;font-family:CairoFont-0;-inkscape-font-specification:CairoFont-0-0;writing-mode:lr-tb;fill:#000000;fill-opacity:1;fill-rule:nonzero;stroke:none"
         id="text18"><tspan
           x="0"
           y="0"
           id="tspan16">u</tspan></text>
      <path
         d="m 0,142.43 83.781,-8.379"
         style="fill:none;stroke:#000000;stroke-width:0.9216;stroke-linecap:square;stroke-linejoin:miter;stroke-miterlimit:3.25;stroke-dasharray:none;stroke-opacity:1"
         id="path20" />
      <path
         d="m 36.891,138.738 10.336,2.336 -0.668,-6.668 z"
         style="fill:#000000;fill-opacity:1;fill-rule:evenodd;stroke:none"
         id="path22" />
      <text
         xml:space="preserve"
         transform="translate(36.942848,166.04773)"
         style="font-variant:normal;font-size:21.12px;font-family:CairoFont-0;-inkscape-font-specification:CairoFont-0-0;writing-mode:lr-tb;fill:#000000;fill-opacity:1;fill-rule:nonzero;stroke:none"
         id="text26"><tspan
           x="0"
           y="0"
           id="tspan24">u</tspan></text>
      <path
         d="m 83.781,67.027 0.91,0.621 0.899,0.54 0.887,0.378 0.863,0.172 0.836,-0.074 0.816,-0.316 0.793,-0.532 0.777,-0.695 0.766,-0.785 0.766,-0.793 0.777,-0.719 0.789,-0.566 0.809,-0.36 0.836,-0.117 0.859,0.129 0.879,0.344 0.898,0.516 0.907,0.613 0.91,0.629 0.902,0.558 0.887,0.414 0.867,0.215 0.844,-0.031 0.82,-0.27 0.797,-0.496 0.777,-0.672 0.77,-0.773 0.766,-0.801 0.773,-0.734 0.785,-0.602 0.809,-0.398 0.828,-0.16 0.855,0.082 0.875,0.308 0.899,0.489 0.906,0.601 0.906,0.633 0.906,0.578 0.891,0.445 0.871,0.254 0.848,0.016 0.824,-0.23 0.801,-0.458 0.781,-0.64 0.77,-0.766 0.765,-0.797 0.77,-0.754 0.785,-0.628 0.801,-0.442 0.828,-0.207 0.847,0.039 0.876,0.274 0.89,0.461 0.906,0.585 0.911,0.633 0.906,0.594 0.89,0.477 0.879,0.289 0.852,0.062 0.828,-0.183 0.805,-0.422 0.781,-0.614 0.773,-0.746 0.766,-0.797 0.77,-0.769 0.781,-0.656 0.797,-0.477 0.824,-0.254 0.844,-0.004 0.871,0.231 0.886,0.433 0.903,0.567 0.91,0.633 0.906,0.605 0.899,0.504 0.879,0.328 0.855,0.106 0.832,-0.141 0.809,-0.375 0.789,-0.586 0.773,-0.727 0.766,-0.796 0.769,-0.778 0.778,-0.683 0.796,-0.516 0.817,-0.293 0.84,-0.051 0.863,0.192 0.887,0.398 0.902,0.551 0.91,0.625 0.907,0.617 0.898,0.527 0.883,0.368 0.859,0.148 0.84,-0.098 0.812,-0.336 0.79,-0.546 0.777,-0.707 0.765,-0.79"
         style="fill:none;stroke:#000000;stroke-width:0.9216;stroke-linecap:square;stroke-linejoin:miter;stroke-miterlimit:3.25;stroke-dasharray:none;stroke-opacity:1"
         id="path28" />
    </g>
    <g
       id="g30">
      <g
         id="g32"
         clip-path="url(#clipPath36)">
        <text
           xml:space="preserve"
           transform="translate(118.80243,50.247379)"
           style="font-variant:normal;font-size:20.16px;font-family:CairoFont-1;-inkscape-font-specification:CairoFont-1-1;writing-mode:lr-tb;fill:#000000;fill-opacity:1;fill-rule:nonzero;stroke:none"
           id="text40"><tspan
             x="0"
             y="0"
             id="tspan38">γ</tspan></text>
      </g>
    </g>
    <g
       id="g42">
      <path
         d="m 83.781,134.051 0.77,0.789 0.773,0.707 0.793,0.547 0.813,0.34 0.836,0.093 0.859,-0.148 0.883,-0.363 0.898,-0.528 0.91,-0.621 0.907,-0.625 0.902,-0.551 0.887,-0.398 0.863,-0.188 0.844,0.047 0.816,0.297 0.793,0.512 0.781,0.684 0.766,0.781 0.77,0.797 0.773,0.726 0.785,0.582 0.809,0.379 0.832,0.141 0.859,-0.106 0.879,-0.328 0.895,-0.504 0.906,-0.609 0.91,-0.629 0.902,-0.57 0.891,-0.43 0.867,-0.234 0.848,0.007 0.82,0.25 0.797,0.477 0.781,0.656 0.77,0.77 0.765,0.801 0.774,0.746 0.785,0.613 0.805,0.418 0.828,0.183 0.851,-0.058 0.875,-0.293 0.895,-0.477 0.906,-0.593 0.906,-0.633 0.907,-0.586 0.89,-0.461 0.875,-0.27 0.852,-0.039 0.824,0.207 0.801,0.438 0.785,0.629 0.769,0.754 0.766,0.8 0.774,0.762 0.781,0.641 0.801,0.461 0.82,0.226 0.848,-0.015 0.871,-0.25 0.894,-0.45 0.903,-0.578 0.91,-0.629 0.906,-0.601 0.894,-0.492 0.879,-0.309 0.852,-0.082 0.832,0.16 0.805,0.403 0.785,0.597 0.773,0.738 0.766,0.797 0.769,0.774 0.782,0.672 0.793,0.496 0.82,0.273 0.844,0.028 0.867,-0.211 0.887,-0.414 0.902,-0.563 0.91,-0.629 0.906,-0.609 0.899,-0.516 0.883,-0.348 0.859,-0.124 0.832,0.117 0.813,0.355 0.789,0.567 0.773,0.718 0.766,0.793 0.769,0.785 0.777,0.696 0.793,0.531 0.813,0.316 0.84,0.075 0.863,-0.168 0.883,-0.383 0.902,-0.539 0.906,-0.621"
         style="fill:none;stroke:#000000;stroke-width:0.9216;stroke-linecap:square;stroke-linejoin:miter;stroke-miterlimit:3.25;stroke-dasharray:none;stroke-opacity:1"
         id="path44" />
    </g>
    <g
       id="g46">
      <g
         id="g48"
         clip-path="url(#clipPath52)">
        <text
           xml:space="preserve"
           transform="translate(121.38678,125.65102)"
           style="font-variant:normal;font-size:20.16px;font-family:CairoFont-1;-inkscape-font-specification:CairoFont-1-1;writing-mode:lr-tb;fill:#000000;fill-opacity:1;fill-rule:nonzero;stroke:none"
           id="text56"><tspan
             x="0"
             y="0"
             id="tspan54">γ</tspan></text>
      </g>
    </g>
    <g
       id="g58">
      <path
         d="m 83.781,67.027 v 67.024"
         style="fill:none;stroke:#000000;stroke-width:0.9216;stroke-linecap:square;stroke-linejoin:miter;stroke-miterlimit:3.25;stroke-dasharray:none;stroke-opacity:1"
         id="path60" />
      <path
         d="M 83.781,105.566 80.43,95.512 h 6.703 z"
         style="fill:#000000;fill-opacity:1;fill-rule:evenodd;stroke:none"
         id="path62" />
      <text
         xml:space="preserve"
         transform="translate(63.382292,108.14756)"
         style="font-variant:normal;font-size:21.12px;font-family:CairoFont-0;-inkscape-font-specification:CairoFont-0-0;writing-mode:lr-tb;fill:#000000;fill-opacity:1;fill-rule:nonzero;stroke:none"
         id="text66"><tspan
           x="0"
           y="0"
           id="tspan64">u</tspan></text>
      <path
         d="m 87.469,67.027 c 0,0.977 -0.391,1.914 -1.082,2.606 -0.692,0.691 -1.629,1.078 -2.606,1.078 -0.976,0 -1.914,-0.387 -2.605,-1.078 -0.692,-0.692 -1.082,-1.629 -1.082,-2.606 0,-0.98 0.39,-1.918 1.082,-2.609 0.691,-0.691 1.629,-1.078 2.605,-1.078 0.977,0 1.914,0.387 2.606,1.078 0.691,0.691 1.082,1.629 1.082,2.609 z"
         style="fill:#000000;fill-opacity:1;fill-rule:evenodd;stroke:none"
         id="path68" />
      <path
         d="m 87.469,134.051 c 0,0.976 -0.391,1.914 -1.082,2.605 -0.692,0.692 -1.629,1.082 -2.606,1.082 -0.976,0 -1.914,-0.39 -2.605,-1.082 -0.692,-0.691 -1.082,-1.629 -1.082,-2.605 0,-0.977 0.39,-1.914 1.082,-2.606 0.691,-0.691 1.629,-1.082 2.605,-1.082 0.977,0 1.914,0.391 2.606,1.082 0.691,0.692 1.082,1.629 1.082,2.606 z"
         style="fill:#000000;fill-opacity:1;fill-rule:evenodd;stroke:none"
         id="path70" />
    </g>
    <g
       id="g72">
      <g
         id="g74"
         clip-path="url(#clipPath78)">
        <text
           xml:space="preserve"
           transform="translate(79.055256,184.68097)"
           style="font-variant:normal;font-size:16.8px;font-family:CairoFont-2;-inkscape-font-specification:CairoFont-2-0;writing-mode:lr-tb;fill:#000000;fill-opacity:1;fill-rule:nonzero;stroke:none"
           id="text82"><tspan
             x="0"
             y="0"
             id="tspan80">1</tspan></text>
      </g>
    </g>
    <g
       id="g84">
      <path
         d="m 184.32,58.648 83.782,8.379"
         style="fill:none;stroke:#000000;stroke-width:0.9216;stroke-linecap:square;stroke-linejoin:miter;stroke-miterlimit:3.25;stroke-dasharray:none;stroke-opacity:1"
         id="path86" />
      <path
         d="M 231.211,63.336 220.875,65.672 221.543,59 Z"
         style="fill:#000000;fill-opacity:1;fill-rule:evenodd;stroke:none"
         id="path88" />
      <text
         xml:space="preserve"
         transform="translate(218.6785,90.644098)"
         style="font-variant:normal;font-size:21.12px;font-family:CairoFont-0;-inkscape-font-specification:CairoFont-0-0;writing-mode:lr-tb;fill:#000000;fill-opacity:1;fill-rule:nonzero;stroke:none"
         id="text92"><tspan
           x="0"
           y="0"
           id="tspan90">u</tspan></text>
      <path
         d="m 184.32,142.43 83.782,-8.379"
         style="fill:none;stroke:#000000;stroke-width:0.9216;stroke-linecap:square;stroke-linejoin:miter;stroke-miterlimit:3.25;stroke-dasharray:none;stroke-opacity:1"
         id="path94" />
      <path
         d="m 221.207,138.738 10.34,2.336 -0.668,-6.668 z"
         style="fill:#000000;fill-opacity:1;fill-rule:evenodd;stroke:none"
         id="path96" />
      <text
         xml:space="preserve"
         transform="translate(221.26285,166.04773)"
         style="font-variant:normal;font-size:21.12px;font-family:CairoFont-0;-inkscape-font-specification:CairoFont-0-0;writing-mode:lr-tb;fill:#000000;fill-opacity:1;fill-rule:nonzero;stroke:none"
         id="text100"><tspan
           x="0"
           y="0"
           id="tspan98">u</tspan></text>
      <path
         d="m 268.102,134.051 1.109,-0.028 1.047,-0.089 0.937,-0.219 0.789,-0.379 0.621,-0.57 0.45,-0.758 0.304,-0.918 0.196,-1.039 0.14,-1.102 0.145,-1.097 0.207,-1.028 0.32,-0.898 0.473,-0.735 0.64,-0.543 0.813,-0.359 0.953,-0.195 1.063,-0.078 1.109,-0.024 1.105,-0.031 1.036,-0.106 0.921,-0.238 0.766,-0.402 0.598,-0.598 0.426,-0.777 0.289,-0.942 0.183,-1.05 0.137,-1.106 0.152,-1.09 0.219,-1.011 0.34,-0.879 0.496,-0.711 0.664,-0.516 0.832,-0.336 0.973,-0.176 1.066,-0.07 1.117,-0.019 1.098,-0.039 1.023,-0.118 0.899,-0.257 0.746,-0.43 0.574,-0.621 0.406,-0.805 0.274,-0.953 0.176,-1.063 0.132,-1.109 0.157,-1.082 0.234,-1 0.359,-0.859 0.516,-0.68 0.688,-0.496 0.851,-0.309 0.988,-0.16 1.082,-0.058 1.114,-0.02 1.09,-0.043 1.011,-0.137 0.883,-0.277 0.723,-0.453 0.55,-0.649 0.387,-0.824 0.254,-0.972 0.168,-1.075 0.137,-1.105 0.16,-1.078 0.25,-0.981 0.379,-0.84 0.539,-0.656 0.711,-0.469 0.871,-0.289 1.004,-0.14 1.086,-0.051 1.117,-0.016 1.082,-0.054 0.996,-0.153 0.863,-0.301 0.7,-0.476 0.527,-0.672 0.367,-0.848 0.242,-0.992 0.16,-1.078 0.133,-1.109 0.172,-1.067 0.262,-0.965 0.402,-0.812 0.559,-0.633 0.734,-0.445 0.895,-0.266 1.015,-0.129 1.094,-0.039 1.113,-0.019 1.079,-0.063 0.976,-0.168 0.844,-0.324 0.676,-0.504 0.507,-0.695 0.348,-0.871 0.227,-1.004 0.152,-1.086 0.137,-1.106 0.183,-1.058 0.278,-0.949 0.418,-0.789 0.586,-0.61 0.757,-0.418 0.911,-0.242 1.031,-0.113 1.097,-0.035 1.114,-0.02 1.066,-0.074 0.965,-0.188 0.82,-0.343 0.653,-0.532 0.484,-0.718 0.332,-0.891 0.211,-1.02 0.148,-1.093 0.141,-1.106 0.191,-1.043 0.293,-0.929 0.442,-0.77 0.609,-0.582 0.778,-0.395 0.929,-0.222 1.043,-0.098 1.106,-0.031 1.109,-0.024 1.055,-0.086 0.945,-0.203 0.801,-0.371 0.633,-0.554 0.461,-0.743 0.312,-0.91 0.203,-1.035 0.141,-1.098"
         style="fill:none;stroke:#000000;stroke-width:0.9216;stroke-linecap:square;stroke-linejoin:miter;stroke-miterlimit:3.25;stroke-dasharray:none;stroke-opacity:1"
         id="path102" />
    </g>
    <g
       id="g104">
      <g
         id="g106"
         clip-path="url(#clipPath110)">
        <text
           xml:space="preserve"
           transform="translate(315.06234,69.98771)"
           style="font-variant:normal;font-size:20.16px;font-family:CairoFont-1;-inkscape-font-specification:CairoFont-1-1;writing-mode:lr-tb;fill:#000000;fill-opacity:1;fill-rule:nonzero;stroke:none"
           id="text114"><tspan
             x="0"
             y="0"
             id="tspan112">γ</tspan></text>
      </g>
    </g>
    <g
       id="g116">
      <path
         d="m 268.102,67.027 0.144,1.098 0.199,1.031 0.313,0.91 0.465,0.746 0.629,0.555 0.8,0.371 0.946,0.203 1.054,0.086 1.11,0.024 1.109,0.031 1.039,0.098 0.93,0.222 0.777,0.395 0.61,0.582 0.441,0.766 0.297,0.929 0.187,1.047 0.141,1.102 0.148,1.093 0.215,1.02 0.328,0.891 0.485,0.722 0.656,0.528 0.82,0.347 0.961,0.188 1.067,0.07 1.113,0.023 1.102,0.036 1.031,0.109 0.91,0.246 0.754,0.418 0.586,0.609 0.418,0.789 0.281,0.95 0.18,1.054 0.136,1.106 0.153,1.09 0.226,1.004 0.352,0.871 0.504,0.695 0.676,0.504 0.843,0.324 0.981,0.168 1.074,0.063 1.113,0.019 1.094,0.039 1.02,0.129 0.89,0.266 0.735,0.441 0.562,0.633 0.398,0.816 0.262,0.965 0.172,1.067 0.137,1.109 0.156,1.078 0.242,0.992 0.367,0.848 0.532,0.668 0.699,0.48 0.859,0.301 0.996,0.153 1.086,0.05 1.114,0.02 1.085,0.051 1.004,0.14 0.872,0.289 0.71,0.469 0.543,0.656 0.375,0.84 0.25,0.981 0.164,1.074 0.133,1.109 0.168,1.071 0.254,0.976 0.391,0.824 0.551,0.645 0.722,0.457 0.879,0.277 1.012,0.133 1.09,0.047 1.117,0.019 1.078,0.059 0.988,0.16 0.852,0.309 0.687,0.492 0.516,0.684 0.359,0.859 0.235,1 0.156,1.082 0.137,1.105 0.175,1.063 0.27,0.957 0.406,0.805 0.574,0.621 0.747,0.429 0.902,0.254 1.023,0.121 1.098,0.039 1.113,0.02 1.071,0.066 0.972,0.18 0.828,0.332 0.668,0.52 0.493,0.707 0.339,0.883 0.223,1.011 0.148,1.09 0.137,1.106 0.184,1.05 0.289,0.938 0.43,0.781 0.593,0.594 0.77,0.406 0.918,0.238 1.039,0.106 1.101,0.031 1.114,0.024 1.058,0.078 0.953,0.195 0.813,0.359 0.641,0.543 0.472,0.731 0.321,0.902 0.21,1.027 0.282,2.196 0.199,1.043 0.301,0.918 0.453,0.758 0.617,0.57 0.789,0.379 0.938,0.215 1.05,0.093 1.106,0.028"
         style="fill:none;stroke:#000000;stroke-width:0.9216;stroke-linecap:square;stroke-linejoin:miter;stroke-miterlimit:3.25;stroke-dasharray:none;stroke-opacity:1"
         id="path118" />
    </g>
    <g
       id="g120">
      <g
         id="g122"
         clip-path="url(#clipPath126)">
        <text
           xml:space="preserve"
           transform="translate(331.45687,111.88735)"
           style="font-variant:normal;font-size:20.16px;font-family:CairoFont-1;-inkscape-font-specification:CairoFont-1-1;writing-mode:lr-tb;fill:#000000;fill-opacity:1;fill-rule:nonzero;stroke:none"
           id="text130"><tspan
             x="0"
             y="0"
             id="tspan128">γ</tspan></text>
      </g>
    </g>
    <g
       id="g132">
      <path
         d="m 268.102,67.027 v 67.024"
         style="fill:none;stroke:#000000;stroke-width:0.9216;stroke-linecap:square;stroke-linejoin:miter;stroke-miterlimit:3.25;stroke-dasharray:none;stroke-opacity:1"
         id="path134" />
      <path
         d="M 268.102,105.566 264.75,95.512 h 6.703 z"
         style="fill:#000000;fill-opacity:1;fill-rule:evenodd;stroke:none"
         id="path136" />
      <text
         xml:space="preserve"
         transform="translate(248.54095,108.14756)"
         style="font-variant:normal;font-size:21.12px;font-family:CairoFont-0;-inkscape-font-specification:CairoFont-0-0;writing-mode:lr-tb;fill:#000000;fill-opacity:1;fill-rule:nonzero;stroke:none"
         id="text140"><tspan
           x="0"
           y="0"
           id="tspan138">u</tspan></text>
      <path
         d="m 271.789,67.027 c 0,0.977 -0.391,1.914 -1.082,2.606 -0.691,0.691 -1.629,1.078 -2.605,1.078 -0.977,0 -1.914,-0.387 -2.606,-1.078 -0.691,-0.692 -1.082,-1.629 -1.082,-2.606 0,-0.98 0.391,-1.918 1.082,-2.609 0.692,-0.691 1.629,-1.078 2.606,-1.078 0.976,0 1.914,0.387 2.605,1.078 0.691,0.691 1.082,1.629 1.082,2.609 z"
         style="fill:#000000;fill-opacity:1;fill-rule:evenodd;stroke:none"
         id="path142" />
      <path
         d="m 271.789,134.051 c 0,0.976 -0.391,1.914 -1.082,2.605 -0.691,0.692 -1.629,1.082 -2.605,1.082 -0.977,0 -1.914,-0.39 -2.606,-1.082 -0.691,-0.691 -1.082,-1.629 -1.082,-2.605 0,-0.977 0.391,-1.914 1.082,-2.606 0.692,-0.691 1.629,-1.082 2.606,-1.082 0.976,0 1.914,0.391 2.605,1.082 0.691,0.692 1.082,1.629 1.082,2.606 z"
         style="fill:#000000;fill-opacity:1;fill-rule:evenodd;stroke:none"
         id="path144" />
    </g>
    <g
       id="g146">
      <g
         id="g148"
         clip-path="url(#clipPath152)">
        <text
           xml:space="preserve"
           transform="translate(263.37526,184.68097)"
           style="font-variant:normal;font-size:16.8px;font-family:CairoFont-2;-inkscape-font-specification:CairoFont-2-0;writing-mode:lr-tb;fill:#000000;fill-opacity:1;fill-rule:nonzero;stroke:none"
           id="text156"><tspan
             x="0"
             y="0"
             id="tspan154">2</tspan></text>
      </g>
    </g>
  </g>
</svg>
