<?xml version="1.0" encoding="UTF-8" standalone="no"?>
<!-- Created with Inkscape (http://www.inkscape.org/) -->

<svg
   version="1.1"
   id="svg2"
   width="492"
   height="246.66667"
   viewBox="0 0 492 246.66667"
   sodipodi:docname="087rax4apyzas.pdf"
   xmlns:inkscape="http://www.inkscape.org/namespaces/inkscape"
   xmlns:sodipodi="http://sodipodi.sourceforge.net/DTD/sodipodi-0.dtd"
   xmlns="http://www.w3.org/2000/svg"
   xmlns:svg="http://www.w3.org/2000/svg">
  <defs
     id="defs6">
    <clipPath
       clipPathUnits="userSpaceOnUse"
       id="clipPath36">
      <path
         d="m 121,39 h 9.801 V 55 H 121 Z"
         id="path34" />
    </clipPath>
    <clipPath
       clipPathUnits="userSpaceOnUse"
       id="clipPath68">
      <path
         d="m 80,172 h 5 v 12.32 h -5 z"
         id="path66" />
    </clipPath>
    <clipPath
       clipPathUnits="userSpaceOnUse"
       id="clipPath100">
      <path
         d="m 317,59 h 10.121 V 75 H 317 Z"
         id="path98" />
    </clipPath>
    <clipPath
       clipPathUnits="userSpaceOnUse"
       id="clipPath116">
      <path
         d="m 331,100 h 13.879 v 17 H 331 Z"
         id="path114" />
    </clipPath>
    <clipPath
       clipPathUnits="userSpaceOnUse"
       id="clipPath142">
      <path
         d="m 263,172 h 10 v 12.32 h -10 z"
         id="path140" />
    </clipPath>
  </defs>
  <sodipodi:namedview
     id="namedview4"
     pagecolor="#ffffff"
     bordercolor="#999999"
     borderopacity="1"
     inkscape:showpageshadow="0"
     inkscape:pageopacity="0"
     inkscape:pagecheckerboard="0"
     inkscape:deskcolor="#d1d1d1" />
  <g
     id="g8"
     inkscape:groupmode="layer"
     inkscape:label="087rax4apyzas"
     transform="matrix(1.3333333,0,0,1.3333333,0,9.5e-6)">
    <g
       id="g10">
      <path
         d="m 0,58.648 83.781,8.379"
         style="fill:none;stroke:#000000;stroke-width:0.9216;stroke-linecap:square;stroke-linejoin:miter;stroke-miterlimit:3.25;stroke-dasharray:none;stroke-opacity:1"
         id="path12" />
      <path
         d="M 46.895,63.336 36.555,65.672 37.223,59 Z"
         style="fill:#000000;fill-opacity:1;fill-rule:evenodd;stroke:none"
         id="path14" />
      <text
         xml:space="preserve"
         transform="translate(34.358501,90.644098)"
         style="font-variant:normal;font-size:21.12px;font-family:CairoFont-0;-inkscape-font-specification:CairoFont-0-0;writing-mode:lr-tb;fill:#000000;fill-opacity:1;fill-rule:nonzero;stroke:none"
         id="text18"><tspan
           x="0"
           y="0"
           id="tspan16">u</tspan></text>
      <path
         d="m 0,142.43 83.781,-8.379"
         style="fill:none;stroke:#000000;stroke-width:0.9216;stroke-linecap:square;stroke-linejoin:miter;stroke-miterlimit:3.25;stroke-dasharray:none;stroke-opacity:1"
         id="path20" />
      <path
         d="m 36.891,138.738 10.336,2.336 -0.668,-6.668 z"
         style="fill:#000000;fill-opacity:1;fill-rule:evenodd;stroke:none"
         id="path22" />
      <text
         xml:space="preserve"
         transform="translate(36.942848,166.04773)"
         style="font-variant:normal;font-size:21.12px;font-family:CairoFont-0;-inkscape-font-specification:CairoFont-0-0;writing-mode:lr-tb;fill:#000000;fill-opacity:1;fill-rule:nonzero;stroke:none"
         id="text26"><tspan
           x="0"
           y="0"
           id="tspan24">u</tspan></text>
      <path
         d="m 83.781,67.027 0.91,0.621 0.899,0.54 0.887,0.378 0.863,0.172 0.836,-0.074 0.816,-0.316 0.793,-0.532 0.777,-0.695 0.766,-0.785 0.766,-0.793 0.777,-0.719 0.789,-0.566 0.809,-0.36 0.836,-0.117 0.859,0.129 0.879,0.344 0.898,0.516 0.907,0.613 0.91,0.629 0.902,0.558 0.887,0.414 0.867,0.215 0.844,-0.031 0.82,-0.27 0.797,-0.496 0.777,-0.672 0.77,-0.773 0.766,-0.801 0.773,-0.734 0.785,-0.602 0.809,-0.398 0.828,-0.16 0.855,0.082 0.875,0.308 0.899,0.489 0.906,0.601 0.906,0.633 0.906,0.578 0.891,0.445 0.871,0.254 0.848,0.016 0.824,-0.23 0.801,-0.458 0.781,-0.64 0.77,-0.766 0.765,-0.797 0.77,-0.754 0.785,-0.628 0.801,-0.442 0.828,-0.207 0.847,0.039 0.876,0.274 0.89,0.461 0.906,0.585 0.911,0.633 0.906,0.594 0.89,0.477 0.879,0.289 0.852,0.062 0.828,-0.183 0.805,-0.422 0.781,-0.614 0.773,-0.746 0.766,-0.797 0.77,-0.769 0.781,-0.656 0.797,-0.477 0.824,-0.254 0.844,-0.004 0.871,0.231 0.886,0.433 0.903,0.567 0.91,0.633 0.906,0.605 0.899,0.504 0.879,0.328 0.855,0.106 0.832,-0.141 0.809,-0.375 0.789,-0.586 0.773,-0.727 0.766,-0.796 0.769,-0.778 0.778,-0.683 0.796,-0.516 0.817,-0.293 0.84,-0.051 0.863,0.192 0.887,0.398 0.902,0.551 0.91,0.625 0.907,0.617 0.898,0.527 0.883,0.368 0.859,0.148 0.84,-0.098 0.812,-0.336 0.79,-0.546 0.777,-0.707 0.765,-0.79"
         style="fill:none;stroke:#000000;stroke-width:0.9216;stroke-linecap:square;stroke-linejoin:miter;stroke-miterlimit:3.25;stroke-dasharray:none;stroke-opacity:1"
         id="path28" />
    </g>
    <g
       id="g30">
      <g
         id="g32"
         clip-path="url(#clipPath36)">
        <text
           xml:space="preserve"
           transform="translate(118.80243,50.247379)"
           style="font-variant:normal;font-size:20.16px;font-family:CairoFont-1;-inkscape-font-specification:CairoFont-1-1;writing-mode:lr-tb;fill:#000000;fill-opacity:1;fill-rule:nonzero;stroke:none"
           id="text40"><tspan
             x="0"
             y="0"
             id="tspan38">γ</tspan></text>
      </g>
    </g>
    <g
       id="g42">
      <path
         d="m 83.781,134.051 1.114,-0.746 1.242,-0.532 1.316,-0.293 1.352,-0.031 1.332,0.231 1.261,0.484 1.149,0.711 0.992,0.906 0.805,1.055 0.594,1.148 0.378,1.188 0.157,1.164 -0.051,1.082 -0.234,0.945 -0.387,0.762 -0.5,0.535 -0.563,0.293 -0.582,0.027 -0.543,-0.23 -0.461,-0.48 -0.336,-0.7 -0.168,-0.879 0.028,-1.011 0.238,-1.09 0.461,-1.11 0.676,-1.07 0.879,-0.969 1.054,-0.816 1.196,-0.617 1.297,-0.391 1.343,-0.133 1.344,0.125 1.293,0.387 1.199,0.629 1.055,0.832 0.883,1.004 0.679,1.121 0.465,1.18 0.242,1.179 0.028,1.121 -0.164,1.004 -0.332,0.836 -0.461,0.629 -0.547,0.391 -0.578,0.133 -0.567,-0.133 -0.5,-0.383 -0.386,-0.617 -0.239,-0.817 -0.054,-0.964 0.156,-1.067 0.375,-1.109 0.594,-1.094 0.8,-1.012 0.993,-0.882 1.144,-0.704 1.262,-0.48 1.328,-0.234 1.352,0.023 1.32,0.289 1.242,0.535 1.113,0.758 0.957,0.941 0.758,1.083 0.551,1.16 0.328,1.187 0.109,1.153 -0.093,1.054 -0.27,0.91 -0.414,0.715 -0.519,0.485 -0.571,0.234 -0.578,-0.027 -0.531,-0.289 -0.438,-0.528 -0.3,-0.742 -0.129,-0.914 0.074,-1.035 0.285,-1.098 0.512,-1.105 0.722,-1.055 0.918,-0.938 1.09,-0.777 1.223,-0.57 1.309,-0.336 1.347,-0.078 1.34,0.187 1.277,0.442 1.168,0.672 1.02,0.878 0.84,1.032 0.633,1.136 0.418,1.188 0.191,1.172 -0.016,1.097 -0.203,0.973 -0.367,0.797 -0.48,0.578 -0.559,0.336 -0.578,0.074 -0.555,-0.191 -0.48,-0.438 -0.36,-0.66 -0.199,-0.851 -0.008,-0.996 0.203,-1.082 0.422,-1.11 0.641,-1.078 0.844,-0.992 1.027,-0.844 1.176,-0.656 1.281,-0.43 1.34,-0.18 1.347,0.082 1.305,0.344 1.219,0.586 1.082,0.805 0.914,0.976 0.715,1.102 0.504,1.176 0.277,1.183 0.067,1.133 -0.137,1.031 -0.305,0.868 -0.441,0.668 -0.535,0.433 -0.579,0.176 -0.57,-0.086 -0.516,-0.344 -0.41,-0.578 -0.265,-0.781 -0.086,-0.945 0.117,-1.055 0.336,-1.106 0.558,-1.097 0.77,-1.031 0.957,-0.911 1.121,-0.734 1.246,-0.523 1.321,-0.278 1.351,-0.019 1.328,0.242 1.258,0.496 1.141,0.719 0.984,0.914 0.797,1.062 0.586,1.153 0.367,1.187 0.145,1.16 -0.059,1.078 -0.242,0.938 -0.395,0.75 -0.504,0.527 -0.566,0.281 -0.578,0.016 -0.543,-0.246 -0.457,-0.488 -0.328,-0.707 -0.16,-0.887 0.039,-1.02 0.25,-1.093 0.468,-1.106 0.688,-1.066 0.891,-0.961 1.062,-0.809 1.199,-0.609 1.297,-0.379 1.348,-0.121 1.344,0.141 1.289,0.398 1.191,0.637 1.051,0.843 0.871,1.012 0.668,1.121 0.453,1.184 0.234,1.176 0.016,1.117 -0.172,1 -0.34,0.828 -0.465,0.617 -0.55,0.379 -0.579,0.117 -0.562,-0.14 -0.496,-0.399 -0.383,-0.625 -0.23,-0.824 -0.043,-0.973 0.168,-1.07 0.382,-1.109 0.606,-1.09 0.812,-1.008 0.996,-0.875 1.153,-0.691 1.265,-0.469 1.332,-0.223 1.352,0.035 1.316,0.301 1.235,0.547 1.109,0.766 0.945,0.953"
         style="fill:none;stroke:#000000;stroke-width:0.9216;stroke-linecap:square;stroke-linejoin:miter;stroke-miterlimit:3.25;stroke-dasharray:none;stroke-opacity:1"
         id="path44" />
      <text
         xml:space="preserve"
         transform="translate(120.68365,125.65102)"
         style="font-variant:normal;font-size:21.12px;font-family:CairoFont-0;-inkscape-font-specification:CairoFont-0-0;writing-mode:lr-tb;fill:#000000;fill-opacity:1;fill-rule:nonzero;stroke:none"
         id="text48"><tspan
           x="0"
           y="0"
           id="tspan46">g</tspan></text>
      <path
         d="m 83.781,67.027 v 67.024"
         style="fill:none;stroke:#000000;stroke-width:0.9216;stroke-linecap:square;stroke-linejoin:miter;stroke-miterlimit:3.25;stroke-dasharray:none;stroke-opacity:1"
         id="path50" />
      <path
         d="M 83.781,105.566 80.43,95.512 h 6.703 z"
         style="fill:#000000;fill-opacity:1;fill-rule:evenodd;stroke:none"
         id="path52" />
      <text
         xml:space="preserve"
         transform="translate(63.382292,108.14756)"
         style="font-variant:normal;font-size:21.12px;font-family:CairoFont-0;-inkscape-font-specification:CairoFont-0-0;writing-mode:lr-tb;fill:#000000;fill-opacity:1;fill-rule:nonzero;stroke:none"
         id="text56"><tspan
           x="0"
           y="0"
           id="tspan54">u</tspan></text>
      <path
         d="m 87.469,67.027 c 0,0.977 -0.391,1.914 -1.082,2.606 -0.692,0.691 -1.629,1.078 -2.606,1.078 -0.976,0 -1.914,-0.387 -2.605,-1.078 -0.692,-0.692 -1.082,-1.629 -1.082,-2.606 0,-0.98 0.39,-1.918 1.082,-2.609 0.691,-0.691 1.629,-1.078 2.605,-1.078 0.977,0 1.914,0.387 2.606,1.078 0.691,0.691 1.082,1.629 1.082,2.609 z"
         style="fill:#000000;fill-opacity:1;fill-rule:evenodd;stroke:none"
         id="path58" />
      <path
         d="m 87.469,134.051 c 0,0.976 -0.391,1.914 -1.082,2.605 -0.692,0.692 -1.629,1.082 -2.606,1.082 -0.976,0 -1.914,-0.39 -2.605,-1.082 -0.692,-0.691 -1.082,-1.629 -1.082,-2.605 0,-0.977 0.39,-1.914 1.082,-2.606 0.691,-0.691 1.629,-1.082 2.605,-1.082 0.977,0 1.914,0.391 2.606,1.082 0.691,0.692 1.082,1.629 1.082,2.606 z"
         style="fill:#000000;fill-opacity:1;fill-rule:evenodd;stroke:none"
         id="path60" />
    </g>
    <g
       id="g62">
      <g
         id="g64"
         clip-path="url(#clipPath68)">
        <text
           xml:space="preserve"
           transform="translate(79.055256,184.68097)"
           style="font-variant:normal;font-size:16.8px;font-family:CairoFont-2;-inkscape-font-specification:CairoFont-2-0;writing-mode:lr-tb;fill:#000000;fill-opacity:1;fill-rule:nonzero;stroke:none"
           id="text72"><tspan
             x="0"
             y="0"
             id="tspan70">1</tspan></text>
      </g>
    </g>
    <g
       id="g74">
      <path
         d="m 184.32,58.648 83.782,8.379"
         style="fill:none;stroke:#000000;stroke-width:0.9216;stroke-linecap:square;stroke-linejoin:miter;stroke-miterlimit:3.25;stroke-dasharray:none;stroke-opacity:1"
         id="path76" />
      <path
         d="M 231.211,63.336 220.875,65.672 221.543,59 Z"
         style="fill:#000000;fill-opacity:1;fill-rule:evenodd;stroke:none"
         id="path78" />
      <text
         xml:space="preserve"
         transform="translate(218.6785,90.644098)"
         style="font-variant:normal;font-size:21.12px;font-family:CairoFont-0;-inkscape-font-specification:CairoFont-0-0;writing-mode:lr-tb;fill:#000000;fill-opacity:1;fill-rule:nonzero;stroke:none"
         id="text82"><tspan
           x="0"
           y="0"
           id="tspan80">u</tspan></text>
      <path
         d="m 184.32,142.43 83.782,-8.379"
         style="fill:none;stroke:#000000;stroke-width:0.9216;stroke-linecap:square;stroke-linejoin:miter;stroke-miterlimit:3.25;stroke-dasharray:none;stroke-opacity:1"
         id="path84" />
      <path
         d="m 221.207,138.738 10.34,2.336 -0.668,-6.668 z"
         style="fill:#000000;fill-opacity:1;fill-rule:evenodd;stroke:none"
         id="path86" />
      <text
         xml:space="preserve"
         transform="translate(221.26285,166.04773)"
         style="font-variant:normal;font-size:21.12px;font-family:CairoFont-0;-inkscape-font-specification:CairoFont-0-0;writing-mode:lr-tb;fill:#000000;fill-opacity:1;fill-rule:nonzero;stroke:none"
         id="text90"><tspan
           x="0"
           y="0"
           id="tspan88">u</tspan></text>
      <path
         d="m 268.102,134.051 1.109,-0.028 1.047,-0.089 0.937,-0.219 0.789,-0.379 0.621,-0.57 0.45,-0.758 0.304,-0.918 0.196,-1.039 0.14,-1.102 0.145,-1.097 0.207,-1.028 0.32,-0.898 0.473,-0.735 0.64,-0.543 0.813,-0.359 0.953,-0.195 1.063,-0.078 1.109,-0.024 1.105,-0.031 1.036,-0.106 0.921,-0.238 0.766,-0.402 0.598,-0.598 0.426,-0.777 0.289,-0.942 0.183,-1.05 0.137,-1.106 0.152,-1.09 0.219,-1.011 0.34,-0.879 0.496,-0.711 0.664,-0.516 0.832,-0.336 0.973,-0.176 1.066,-0.07 1.117,-0.019 1.098,-0.039 1.023,-0.118 0.899,-0.257 0.746,-0.43 0.574,-0.621 0.406,-0.805 0.274,-0.953 0.176,-1.063 0.132,-1.109 0.157,-1.082 0.234,-1 0.359,-0.859 0.516,-0.68 0.688,-0.496 0.851,-0.309 0.988,-0.16 1.082,-0.058 1.114,-0.02 1.09,-0.043 1.011,-0.137 0.883,-0.277 0.723,-0.453 0.55,-0.649 0.387,-0.824 0.254,-0.972 0.168,-1.075 0.137,-1.105 0.16,-1.078 0.25,-0.981 0.379,-0.84 0.539,-0.656 0.711,-0.469 0.871,-0.289 1.004,-0.14 1.086,-0.051 1.117,-0.016 1.082,-0.054 0.996,-0.153 0.863,-0.301 0.7,-0.476 0.527,-0.672 0.367,-0.848 0.242,-0.992 0.16,-1.078 0.133,-1.109 0.172,-1.067 0.262,-0.965 0.402,-0.812 0.559,-0.633 0.734,-0.445 0.895,-0.266 1.015,-0.129 1.094,-0.039 1.113,-0.019 1.079,-0.063 0.976,-0.168 0.844,-0.324 0.676,-0.504 0.507,-0.695 0.348,-0.871 0.227,-1.004 0.152,-1.086 0.137,-1.106 0.183,-1.058 0.278,-0.949 0.418,-0.789 0.586,-0.61 0.757,-0.418 0.911,-0.242 1.031,-0.113 1.097,-0.035 1.114,-0.02 1.066,-0.074 0.965,-0.188 0.82,-0.343 0.653,-0.532 0.484,-0.718 0.332,-0.891 0.211,-1.02 0.148,-1.093 0.141,-1.106 0.191,-1.043 0.293,-0.929 0.442,-0.77 0.609,-0.582 0.778,-0.395 0.929,-0.222 1.043,-0.098 1.106,-0.031 1.109,-0.024 1.055,-0.086 0.945,-0.203 0.801,-0.371 0.633,-0.554 0.461,-0.743 0.312,-0.91 0.203,-1.035 0.141,-1.098"
         style="fill:none;stroke:#000000;stroke-width:0.9216;stroke-linecap:square;stroke-linejoin:miter;stroke-miterlimit:3.25;stroke-dasharray:none;stroke-opacity:1"
         id="path92" />
    </g>
    <g
       id="g94">
      <g
         id="g96"
         clip-path="url(#clipPath100)">
        <text
           xml:space="preserve"
           transform="translate(315.06234,69.98771)"
           style="font-variant:normal;font-size:20.16px;font-family:CairoFont-1;-inkscape-font-specification:CairoFont-1-1;writing-mode:lr-tb;fill:#000000;fill-opacity:1;fill-rule:nonzero;stroke:none"
           id="text104"><tspan
             x="0"
             y="0"
             id="tspan102">γ</tspan></text>
      </g>
    </g>
    <g
       id="g106">
      <path
         d="m 268.102,67.027 1.289,0.067 1.269,0.285 1.203,0.508 1.098,0.711 0.949,0.898 0.77,1.055 0.574,1.172 0.363,1.246 0.145,1.277 -0.067,1.262 -0.254,1.191 -0.425,1.086 -0.555,0.942 -0.649,0.757 -0.695,0.559 -0.699,0.34 -0.652,0.121 -0.567,-0.094 -0.433,-0.289 -0.274,-0.461 -0.082,-0.598 0.125,-0.691 0.344,-0.742 0.555,-0.746 0.754,-0.707 0.937,-0.614 1.082,-0.484 1.195,-0.316 1.266,-0.125 1.289,0.082 1.266,0.308 1.195,0.52 1.086,0.73 0.937,0.911 0.758,1.066 0.555,1.18 0.344,1.25 0.129,1.277 -0.082,1.258 -0.27,1.187 -0.437,1.074 -0.563,0.926 -0.652,0.742 -0.7,0.54 -0.699,0.324 -0.648,0.101 -0.555,-0.109 -0.422,-0.305 -0.258,-0.469 -0.066,-0.605 0.141,-0.699 0.359,-0.746 0.574,-0.746 0.77,-0.7 0.949,-0.601 1.094,-0.473 1.203,-0.305 1.269,-0.109 1.289,0.102 1.262,0.324 1.188,0.539 1.074,0.746 0.922,0.926 0.742,1.074 0.539,1.188 0.328,1.253 0.11,1.282 -0.098,1.25 -0.285,1.179 -0.446,1.067 -0.574,0.91 -0.656,0.726 -0.703,0.524 -0.696,0.305 -0.64,0.086 -0.547,-0.125 -0.41,-0.321 -0.246,-0.484 -0.047,-0.613 0.16,-0.704 0.375,-0.75 0.59,-0.742 0.785,-0.691 0.961,-0.598 1.105,-0.457 1.211,-0.289 1.274,-0.094 1.289,0.121 1.254,0.34 1.183,0.559 1.063,0.758 0.91,0.941 0.727,1.086 0.519,1.191 0.309,1.262 0.093,1.278 -0.113,1.246 -0.297,1.171 -0.461,1.055 -0.582,0.899 -0.664,0.711 -0.699,0.503 -0.691,0.29 -0.637,0.066 -0.539,-0.141 -0.399,-0.336 -0.226,-0.496 -0.035,-0.621 0.179,-0.711 0.395,-0.746 0.601,-0.742 0.805,-0.688 0.973,-0.585 1.113,-0.446 1.219,-0.273 1.273,-0.074 1.289,0.136 1.254,0.36 1.172,0.574 1.051,0.773 0.898,0.953 0.707,1.098 0.508,1.199 0.289,1.262 0.078,1.277 -0.129,1.246 -0.316,1.165 -0.469,1.039 -0.59,0.886 -0.667,0.696 -0.704,0.488 -0.687,0.266 -0.633,0.05 -0.527,-0.156 -0.387,-0.348 -0.211,-0.507 -0.016,-0.633 0.196,-0.715 0.41,-0.75 0.621,-0.738 0.816,-0.68 0.989,-0.574 1.125,-0.434 1.222,-0.258 1.278,-0.058 1.285,0.156 1.25,0.375 1.164,0.59 1.039,0.793 0.883,0.965 0.695,1.105 0.488,1.207 0.274,1.266 0.058,1.277 -0.144,1.238 -0.328,1.157 -0.481,1.031 -0.597,0.867 -0.676,0.68 -0.703,0.472 -0.688,0.25 -0.621,0.032 -0.519,-0.172 -0.371,-0.363 -0.2,-0.52 v -0.641 l 0.215,-0.718 0.43,-0.75 0.637,-0.735 0.832,-0.672 1,-0.566 1.132,-0.422 1.231,-0.242 1.277,-0.043 1.285,0.176 1.246,0.394 1.157,0.606 1.027,0.804 0.867,0.981 0.68,1.113 0.469,1.215 0.254,1.27 0.043,1.273 -0.161,1.234 -0.339,1.149 -0.493,1.019 -0.605,0.856 -0.68,0.66 -0.703,0.453 -0.684,0.234 -0.613,0.016 -0.508,-0.191 -0.359,-0.375 -0.184,-0.532 0.016,-0.648 0.231,-0.723 0.445,-0.75 0.656,-0.73 0.848,-0.668 1.011,-0.555 1.141,-0.406 1.234,-0.231 1.286,-0.023 1.281,0.191 1.238,0.415 1.149,0.624 1.015,0.821 0.852,0.988 0.664,1.125 0.453,1.223 0.238,1.269 0.024,1.274 -0.176,1.23 -0.356,1.137 -0.5,1.008 -0.613,0.84 -0.683,0.644 -0.704,0.438 -0.679,0.214 h -0.61 l -0.496,-0.207 -0.344,-0.39 -0.167,-0.543 0.035,-0.656 0.246,-0.727 0.465,-0.75 0.668,-0.727 0.863,-0.66 1.023,-0.543 1.153,-0.394 1.238,-0.211 1.285,-0.008 1.281,0.207 1.231,0.43 1.14,0.644 1.004,0.832 0.836,1.004 0.649,1.137 0.433,1.227 0.223,1.269 0.008,1.273 -0.192,1.223 -0.367,1.129 -0.515,0.992 -0.618,0.828 -0.687,0.629 -0.703,0.418 -0.676,0.199 -0.602,-0.019 -0.484,-0.223 -0.332,-0.402 -0.152,-0.555 0.05,-0.66 0.266,-0.73 0.481,-0.754 0.687,-0.723 0.875,-0.652 1.035,-0.532 1.16,-0.382 1.246,-0.196 1.286,0.012 1.277,0.227 1.227,0.445 1.128,0.66 0.993,0.852 0.824,1.011 0.629,1.145 0.418,1.234 0.203,1.274"
         style="fill:none;stroke:#000000;stroke-width:0.9216;stroke-linecap:square;stroke-linejoin:miter;stroke-miterlimit:3.25;stroke-dasharray:none;stroke-opacity:1"
         id="path108" />
    </g>
    <g
       id="g110">
      <g
         id="g112"
         clip-path="url(#clipPath116)">
        <text
           xml:space="preserve"
           transform="translate(331.45687,111.88735)"
           style="font-variant:normal;font-size:21.12px;font-family:CairoFont-0;-inkscape-font-specification:CairoFont-0-0;writing-mode:lr-tb;fill:#000000;fill-opacity:1;fill-rule:nonzero;stroke:none"
           id="text120"><tspan
             x="0"
             y="0"
             id="tspan118">g</tspan></text>
      </g>
    </g>
    <g
       id="g122">
      <path
         d="m 268.102,67.027 v 67.024"
         style="fill:none;stroke:#000000;stroke-width:0.9216;stroke-linecap:square;stroke-linejoin:miter;stroke-miterlimit:3.25;stroke-dasharray:none;stroke-opacity:1"
         id="path124" />
      <path
         d="M 268.102,105.566 264.75,95.512 h 6.703 z"
         style="fill:#000000;fill-opacity:1;fill-rule:evenodd;stroke:none"
         id="path126" />
      <text
         xml:space="preserve"
         transform="translate(248.54095,108.14756)"
         style="font-variant:normal;font-size:21.12px;font-family:CairoFont-0;-inkscape-font-specification:CairoFont-0-0;writing-mode:lr-tb;fill:#000000;fill-opacity:1;fill-rule:nonzero;stroke:none"
         id="text130"><tspan
           x="0"
           y="0"
           id="tspan128">u</tspan></text>
      <path
         d="m 271.789,67.027 c 0,0.977 -0.391,1.914 -1.082,2.606 -0.691,0.691 -1.629,1.078 -2.605,1.078 -0.977,0 -1.914,-0.387 -2.606,-1.078 -0.691,-0.692 -1.082,-1.629 -1.082,-2.606 0,-0.98 0.391,-1.918 1.082,-2.609 0.692,-0.691 1.629,-1.078 2.606,-1.078 0.976,0 1.914,0.387 2.605,1.078 0.691,0.691 1.082,1.629 1.082,2.609 z"
         style="fill:#000000;fill-opacity:1;fill-rule:evenodd;stroke:none"
         id="path132" />
      <path
         d="m 271.789,134.051 c 0,0.976 -0.391,1.914 -1.082,2.605 -0.691,0.692 -1.629,1.082 -2.605,1.082 -0.977,0 -1.914,-0.39 -2.606,-1.082 -0.691,-0.691 -1.082,-1.629 -1.082,-2.605 0,-0.977 0.391,-1.914 1.082,-2.606 0.692,-0.691 1.629,-1.082 2.606,-1.082 0.976,0 1.914,0.391 2.605,1.082 0.691,0.692 1.082,1.629 1.082,2.606 z"
         style="fill:#000000;fill-opacity:1;fill-rule:evenodd;stroke:none"
         id="path134" />
    </g>
    <g
       id="g136">
      <g
         id="g138"
         clip-path="url(#clipPath142)">
        <text
           xml:space="preserve"
           transform="translate(263.37526,184.68097)"
           style="font-variant:normal;font-size:16.8px;font-family:CairoFont-2;-inkscape-font-specification:CairoFont-2-0;writing-mode:lr-tb;fill:#000000;fill-opacity:1;fill-rule:nonzero;stroke:none"
           id="text146"><tspan
             x="0"
             y="0"
             id="tspan144">2</tspan></text>
      </g>
    </g>
  </g>
</svg>
