<?xml version="1.0" encoding="UTF-8" standalone="no"?>
<!-- Created with Inkscape (http://www.inkscape.org/) -->

<svg
   version="1.1"
   id="svg2"
   width="492"
   height="246.66667"
   viewBox="0 0 492 246.66667"
   sodipodi:docname="08x8e8dudw1z0.pdf"
   xmlns:inkscape="http://www.inkscape.org/namespaces/inkscape"
   xmlns:sodipodi="http://sodipodi.sourceforge.net/DTD/sodipodi-0.dtd"
   xmlns="http://www.w3.org/2000/svg"
   xmlns:svg="http://www.w3.org/2000/svg">
  <defs
     id="defs6">
    <clipPath
       clipPathUnits="userSpaceOnUse"
       id="clipPath28">
      <path
         d="m 30,135 h 10.559 v 16 H 30 Z"
         id="path26" />
    </clipPath>
    <clipPath
       clipPathUnits="userSpaceOnUse"
       id="clipPath60">
      <path
         d="m 79,117 h 11.961 v 12 H 79 Z"
         id="path58" />
    </clipPath>
    <clipPath
       clipPathUnits="userSpaceOnUse"
       id="clipPath78">
      <path
         d="m 80,172 h 5 v 12.32 h -5 z"
         id="path76" />
    </clipPath>
    <clipPath
       clipPathUnits="userSpaceOnUse"
       id="clipPath108">
      <path
         d="m 302,39 h 13.84 V 55 H 302 Z"
         id="path106" />
    </clipPath>
    <clipPath
       clipPathUnits="userSpaceOnUse"
       id="clipPath142">
      <path
         d="m 263,172 h 10 v 12.32 h -10 z"
         id="path140" />
    </clipPath>
  </defs>
  <sodipodi:namedview
     id="namedview4"
     pagecolor="#ffffff"
     bordercolor="#999999"
     borderopacity="1"
     inkscape:showpageshadow="0"
     inkscape:pageopacity="0"
     inkscape:pagecheckerboard="0"
     inkscape:deskcolor="#d1d1d1" />
  <g
     id="g8"
     inkscape:groupmode="layer"
     inkscape:label="08x8e8dudw1z0"
     transform="matrix(1.3333333,0,0,1.3333333,0,9.5e-6)">
    <g
       id="g10">
      <path
         d="m 0,58.648 50.27,41.891"
         style="fill:none;stroke:#000000;stroke-width:0.9216;stroke-linecap:square;stroke-linejoin:miter;stroke-miterlimit:3.25;stroke-dasharray:none;stroke-opacity:1"
         id="path12" />
      <path
         d="m 28.996,82.812 -9.867,-3.863 4.289,-5.148 z"
         style="fill:#000000;fill-opacity:1;fill-rule:evenodd;stroke:none"
         id="path14" />
      <text
         xml:space="preserve"
         transform="translate(9.40765,104.45499)"
         style="font-variant:normal;font-size:21.12px;font-family:CairoFont-0;-inkscape-font-specification:CairoFont-0-0;writing-mode:lr-tb;fill:#000000;fill-opacity:1;fill-rule:nonzero;stroke:none"
         id="text18"><tspan
           x="0"
           y="0"
           id="tspan16">u</tspan></text>
      <path
         d="m 50.27,100.539 -1.122,-0.035 -1.058,0.043 -0.942,0.18 -0.789,0.363 -0.613,0.57 -0.445,0.778 -0.305,0.945 -0.203,1.066 -0.16,1.117 -0.184,1.09 -0.265,0.996 -0.395,0.836 -0.555,0.641 -0.734,0.433 -0.895,0.239 -1.023,0.078 -1.105,-0.016 -1.129,-0.043 -1.082,0.012 -0.989,0.125 -0.843,0.301 -0.672,0.5 -0.5,0.711 -0.348,0.894 -0.23,1.032 -0.168,1.109 -0.172,1.109 -0.231,1.032 -0.343,0.894 -0.5,0.711 -0.676,0.5 -0.844,0.301 -0.984,0.125 -1.086,0.012 -1.125,-0.043 -1.11,-0.016 -1.023,0.078 -0.895,0.238 -0.73,0.434 -0.559,0.641 -0.394,0.835 -0.266,0.993 -0.18,1.093 -0.164,1.114 -0.203,1.066 -0.301,0.949 -0.449,0.774 -0.613,0.574 -0.789,0.363 -0.941,0.18 -1.059,0.039 -1.121,-0.031 -1.121,-0.035 -1.059,0.039 -0.941,0.179 -0.789,0.368 -0.614,0.57 -0.445,0.777 -0.305,0.945 -0.203,1.067 -0.164,1.117 -0.179,1.09 -0.266,0.992 -0.395,0.84 -0.558,0.641 -0.731,0.433 -0.894,0.235 -1.024,0.082 -1.109,-0.02 -1.125,-0.039 -1.086,0.008 -0.984,0.125 -0.844,0.301 -0.676,0.5 -0.5,0.711 -0.348,0.894 -0.23,1.031 L 0,142.43"
         style="fill:none;stroke:#000000;stroke-width:0.9216;stroke-linecap:square;stroke-linejoin:miter;stroke-miterlimit:3.25;stroke-dasharray:none;stroke-opacity:1"
         id="path20" />
    </g>
    <g
       id="g22">
      <g
         id="g24"
         clip-path="url(#clipPath28)">
        <text
           xml:space="preserve"
           transform="translate(28.380972,146.3459)"
           style="font-variant:normal;font-size:20.16px;font-family:CairoFont-1;-inkscape-font-specification:CairoFont-1-1;writing-mode:lr-tb;fill:#000000;fill-opacity:1;fill-rule:nonzero;stroke:none"
           id="text32"><tspan
             x="0"
             y="0"
             id="tspan30">γ</tspan></text>
      </g>
    </g>
    <g
       id="g34">
      <path
         d="m 117.293,100.539 0.238,-1.238 0.446,-1.188 0.64,-1.097 0.828,-0.969 0.989,-0.805 1.113,-0.617 1.203,-0.41 1.254,-0.195 1.258,0.015 1.218,0.215 1.137,0.395 1.016,0.543 0.863,0.66 0.684,0.734 0.488,0.762 0.281,0.746 0.074,0.687 -0.121,0.582 -0.3,0.446 -0.45,0.269 -0.566,0.078 -0.645,-0.132 -0.683,-0.348 -0.676,-0.555 -0.621,-0.75 -0.527,-0.922 -0.399,-1.062 -0.238,-1.164 -0.051,-1.231 0.149,-1.242 0.355,-1.215 0.562,-1.14 0.75,-1.028 0.922,-0.879 1.067,-0.699 1.172,-0.496 1.238,-0.289 1.258,-0.074 1.242,0.133 1.176,0.324 1.074,0.484 0.93,0.613 0.761,0.708 0.575,0.757 0.367,0.758 0.16,0.719 -0.039,0.629 -0.227,0.508 -0.39,0.347 -0.52,0.16 -0.617,-0.043 -0.672,-0.253 -0.684,-0.469 -0.648,-0.668 -0.574,-0.852 -0.457,-1.008 -0.309,-1.128 -0.133,-1.207 0.063,-1.243 0.265,-1.23 0.477,-1.18 0.672,-1.078 0.855,-0.945 1.008,-0.778 1.129,-0.586 1.215,-0.378 1.258,-0.165 1.254,0.047 1.207,0.246 1.121,0.418 0.996,0.567 0.84,0.672 0.652,0.742 0.457,0.762 0.25,0.742 0.043,0.672 -0.148,0.562 -0.325,0.418 -0.472,0.246 -0.582,0.043 -0.653,-0.164 -0.683,-0.379 -0.668,-0.586 -0.61,-0.777 -0.511,-0.945 -0.375,-1.079 -0.211,-1.179 -0.024,-1.235 0.18,-1.242 0.391,-1.207 0.59,-1.125 0.777,-1.008 0.949,-0.851 1.082,-0.668 1.184,-0.469 1.242,-0.254 1.262,-0.039 1.234,0.16 1.164,0.348 1.051,0.508 0.91,0.633 0.734,0.718 0.539,0.758 0.34,0.758 0.129,0.703 -0.07,0.617 -0.254,0.485 -0.41,0.32 -0.539,0.133 -0.629,-0.074 -0.676,-0.29 -0.68,-0.5 -0.64,-0.699 -0.559,-0.879 -0.437,-1.027 -0.286,-1.141 -0.101,-1.214 0.094,-1.243 0.3,-1.23 0.504,-1.164 0.703,-1.063 0.879,-0.922 1.028,-0.75 1.148,-0.55 1.223,-0.348 1.258,-0.129 1.25,0.074 1.199,0.274 1.105,0.445 0.973,0.582 0.809,0.688 0.628,0.746 0.422,0.761 0.219,0.735 0.012,0.66 -0.176,0.543 -0.348,0.394 -0.492,0.215 -0.594,0.012 -0.66,-0.195 -0.683,-0.41 -0.664,-0.618 -0.598,-0.804 -0.492,-0.969 -0.352,-1.098 -0.183,-1.191 0.007,-1.235 0.211,-1.242 0.422,-1.195 0.617,-1.109 0.809,-0.989 0.969,-0.824 1.101,-0.641 1.196,-0.433 1.25,-0.223 1.257,-0.008"
         style="fill:none;stroke:#000000;stroke-width:0.9216;stroke-linecap:square;stroke-linejoin:miter;stroke-miterlimit:3.25;stroke-dasharray:none;stroke-opacity:1"
         id="path36" />
      <text
         xml:space="preserve"
         transform="translate(126.62016,69.949215)"
         style="font-variant:normal;font-size:21.12px;font-family:CairoFont-0;-inkscape-font-specification:CairoFont-0-0;writing-mode:lr-tb;fill:#000000;fill-opacity:1;fill-rule:nonzero;stroke:none"
         id="text40"><tspan
           x="0"
           y="0"
           id="tspan38">g</tspan></text>
      <path
         d="M 167.562,142.43 117.293,100.539"
         style="fill:none;stroke:#000000;stroke-width:0.9216;stroke-linecap:square;stroke-linejoin:miter;stroke-miterlimit:3.25;stroke-dasharray:none;stroke-opacity:1"
         id="path42" />
      <path
         d="m 146.289,124.703 -5.578,-9.012 -4.289,5.149 z"
         style="fill:#000000;fill-opacity:1;fill-rule:evenodd;stroke:none"
         id="path44" />
      <text
         xml:space="preserve"
         transform="translate(145.67552,111.84013)"
         style="font-variant:normal;font-size:21.12px;font-family:CairoFont-0;-inkscape-font-specification:CairoFont-0-0;writing-mode:lr-tb;fill:#000000;fill-opacity:1;fill-rule:nonzero;stroke:none"
         id="text48"><tspan
           x="0"
           y="0"
           id="tspan46">u</tspan></text>
      <path
         d="m 50.27,100.539 h 67.023"
         style="fill:none;stroke:#000000;stroke-width:0.9216;stroke-linecap:square;stroke-linejoin:miter;stroke-miterlimit:3.25;stroke-dasharray:none;stroke-opacity:1"
         id="path50" />
      <path
         d="m 88.809,100.539 -10.055,3.352 v -6.703 z"
         style="fill:#000000;fill-opacity:1;fill-rule:evenodd;stroke:none"
         id="path52" />
    </g>
    <g
       id="g54">
      <g
         id="g56"
         clip-path="url(#clipPath60)">
        <text
           xml:space="preserve"
           transform="translate(77.541584,128.41036)"
           style="font-variant:normal;font-size:21.12px;font-family:CairoFont-0;-inkscape-font-specification:CairoFont-0-0;writing-mode:lr-tb;fill:#000000;fill-opacity:1;fill-rule:nonzero;stroke:none"
           id="text64"><tspan
             x="0"
             y="0"
             id="tspan62">u</tspan></text>
      </g>
    </g>
    <g
       id="g66">
      <path
         d="m 53.957,100.539 c 0,0.977 -0.391,1.914 -1.082,2.606 -0.691,0.691 -1.629,1.078 -2.605,1.078 -0.977,0 -1.915,-0.387 -2.606,-1.078 -0.691,-0.692 -1.082,-1.629 -1.082,-2.606 0,-0.98 0.391,-1.918 1.082,-2.609 0.691,-0.692 1.629,-1.078 2.606,-1.078 0.976,0 1.914,0.386 2.605,1.078 0.691,0.691 1.082,1.629 1.082,2.609 z"
         style="fill:#000000;fill-opacity:1;fill-rule:evenodd;stroke:none"
         id="path68" />
      <path
         d="m 120.98,100.539 c 0,0.977 -0.386,1.914 -1.078,2.606 -0.691,0.691 -1.629,1.078 -2.609,1.078 -0.977,0 -1.914,-0.387 -2.605,-1.078 -0.692,-0.692 -1.079,-1.629 -1.079,-2.606 0,-0.98 0.387,-1.918 1.079,-2.609 0.691,-0.692 1.628,-1.078 2.605,-1.078 0.98,0 1.918,0.386 2.609,1.078 0.692,0.691 1.078,1.629 1.078,2.609 z"
         style="fill:#000000;fill-opacity:1;fill-rule:evenodd;stroke:none"
         id="path70" />
    </g>
    <g
       id="g72">
      <g
         id="g74"
         clip-path="url(#clipPath78)">
        <text
           xml:space="preserve"
           transform="translate(79.055256,184.68097)"
           style="font-variant:normal;font-size:16.8px;font-family:CairoFont-2;-inkscape-font-specification:CairoFont-2-0;writing-mode:lr-tb;fill:#000000;fill-opacity:1;fill-rule:nonzero;stroke:none"
           id="text82"><tspan
             x="0"
             y="0"
             id="tspan80">1</tspan></text>
      </g>
    </g>
    <g
       id="g84">
      <path
         d="m 184.32,58.648 83.782,8.379"
         style="fill:none;stroke:#000000;stroke-width:0.9216;stroke-linecap:square;stroke-linejoin:miter;stroke-miterlimit:3.25;stroke-dasharray:none;stroke-opacity:1"
         id="path86" />
      <path
         d="M 231.211,63.336 220.875,65.672 221.543,59 Z"
         style="fill:#000000;fill-opacity:1;fill-rule:evenodd;stroke:none"
         id="path88" />
      <text
         xml:space="preserve"
         transform="translate(218.6785,90.644098)"
         style="font-variant:normal;font-size:21.12px;font-family:CairoFont-0;-inkscape-font-specification:CairoFont-0-0;writing-mode:lr-tb;fill:#000000;fill-opacity:1;fill-rule:nonzero;stroke:none"
         id="text92"><tspan
           x="0"
           y="0"
           id="tspan90">u</tspan></text>
      <path
         d="m 268.102,134.051 -0.911,-0.621 -0.898,-0.539 -0.883,-0.383 -0.863,-0.168 -0.84,0.074 -0.816,0.313 -0.793,0.535 -0.774,0.695 -0.769,0.785 -0.766,0.793 -0.773,0.715 -0.793,0.566 -0.809,0.36 -0.836,0.117 -0.855,-0.125 -0.883,-0.348 -0.899,-0.515 -0.906,-0.614 -0.91,-0.625 -0.902,-0.562 -0.887,-0.414 -0.867,-0.211 -0.844,0.027 -0.82,0.274 -0.797,0.496 -0.778,0.672 -0.769,0.773 -0.766,0.797 -0.773,0.738 -0.785,0.598 -0.805,0.398 -0.832,0.164 -0.855,-0.082 -0.875,-0.312 -0.895,-0.488 -0.906,-0.602 -0.91,-0.633 -0.907,-0.578 -0.89,-0.445 -0.871,-0.25 -0.848,-0.02 -0.824,0.231 -0.801,0.457 -0.781,0.644 -0.77,0.762 -0.765,0.801 -0.77,0.754 -0.785,0.629 -0.801,0.437 -0.828,0.207 -0.848,-0.039 -0.875,-0.269 -0.89,-0.461 -0.907,-0.586 -0.91,-0.633 -0.902,-0.598 -0.895,-0.472 -0.875,-0.293 -0.855,-0.063 -0.824,0.188 -0.805,0.418 -0.785,0.613 -0.774,0.746 -0.765,0.801 -0.77,0.769 -0.781,0.656 -0.797,0.477 -0.82,0.25 -0.848,0.004 -0.867,-0.231 -0.891,-0.429 -0.902,-0.571 -0.91,-0.628 -0.906,-0.61 -0.899,-0.504 -0.879,-0.328 -0.855,-0.105 -0.832,0.14 -0.809,0.379 -0.789,0.582 -0.773,0.727 -0.766,0.797 -0.769,0.781 -0.778,0.684 -0.793,0.511 -0.816,0.297 -0.844,0.047 -0.863,-0.187 -0.887,-0.403 -0.902,-0.547 -0.907,-0.629 -0.91,-0.617 -0.898,-0.527 -0.883,-0.363 -0.859,-0.149 -0.836,0.094 -0.813,0.336 -0.793,0.551 -0.777,0.707 -0.766,0.789"
         style="fill:none;stroke:#000000;stroke-width:0.9216;stroke-linecap:square;stroke-linejoin:miter;stroke-miterlimit:3.25;stroke-dasharray:none;stroke-opacity:1"
         id="path94" />
      <text
         xml:space="preserve"
         transform="translate(221.92496,166.04773)"
         style="font-variant:normal;font-size:20.16px;font-family:CairoFont-1;-inkscape-font-specification:CairoFont-1-1;writing-mode:lr-tb;fill:#000000;fill-opacity:1;fill-rule:nonzero;stroke:none"
         id="text98"><tspan
           x="0"
           y="0"
           id="tspan96">γ</tspan></text>
      <path
         d="m 268.102,67.027 0.945,-0.953 1.109,-0.765 1.235,-0.547 1.316,-0.301 1.352,-0.039 1.332,0.223 1.265,0.472 1.153,0.692 1,0.875 0.812,1.007 0.602,1.09 0.386,1.11 0.164,1.07 -0.043,0.973 -0.23,0.82 -0.379,0.629 -0.496,0.394 -0.563,0.145 -0.582,-0.117 -0.546,-0.379 -0.465,-0.621 -0.34,-0.828 -0.176,-0.997 0.02,-1.117 0.23,-1.179 0.453,-1.18 0.668,-1.125 0.875,-1.008 1.047,-0.844 1.192,-0.636 1.292,-0.399 1.344,-0.14 1.344,0.121 1.297,0.375 1.203,0.609 1.062,0.809 0.887,0.964 0.688,1.063 0.472,1.109 0.25,1.094 0.035,1.016 -0.16,0.886 -0.328,0.711 -0.457,0.489 -0.539,0.242 -0.582,-0.016 -0.566,-0.277 -0.504,-0.527 -0.391,-0.75 -0.242,-0.938 -0.063,-1.078 0.149,-1.16 0.367,-1.188 0.586,-1.152 0.793,-1.063 0.984,-0.914 1.141,-0.722 1.258,-0.493 1.328,-0.242 1.352,0.02 1.32,0.277 1.246,0.524 1.121,0.734 0.961,0.906 0.766,1.031 0.558,1.102 0.336,1.106 0.117,1.054 -0.086,0.942 -0.265,0.785 -0.41,0.578 -0.516,0.344 -0.57,0.086 -0.578,-0.176 -0.532,-0.434 -0.441,-0.668 -0.309,-0.871 -0.133,-1.027 0.063,-1.137 0.281,-1.184 0.5,-1.171 0.715,-1.106 0.914,-0.976 1.086,-0.801 1.215,-0.586 1.308,-0.344 1.348,-0.082 1.34,0.176 1.277,0.43 1.176,0.656 1.027,0.847 0.848,0.989 0.641,1.082 0.422,1.109 0.203,1.082 -0.012,0.992 -0.199,0.852 -0.356,0.664 -0.48,0.437 -0.555,0.188 -0.582,-0.074 -0.555,-0.332 -0.484,-0.582 -0.363,-0.793 -0.207,-0.973 -0.016,-1.101 0.195,-1.172 0.415,-1.184 0.632,-1.137 0.84,-1.035 1.02,-0.875 1.172,-0.676 1.277,-0.441 1.336,-0.184 1.351,0.079 1.309,0.332 1.219,0.574 1.09,0.777 0.921,0.938 0.723,1.05 0.508,1.106 0.289,1.101 0.07,1.036 -0.129,0.91 -0.3,0.742 -0.438,0.531 -0.531,0.289 -0.574,0.028 -0.575,-0.235 -0.515,-0.484 -0.418,-0.719 -0.27,-0.906 -0.093,-1.055 0.109,-1.152 0.328,-1.188 0.551,-1.164 0.762,-1.078 0.953,-0.945 1.117,-0.758 1.238,-0.535 1.32,-0.285 1.352,-0.028 1.332,0.239 1.258,0.48 1.148,0.703 0.989,0.879 0.8,1.016 0.598,1.09 0.371,1.109 0.156,1.07 -0.054,0.965 -0.235,0.813 -0.39,0.617 -0.5,0.387 -0.563,0.128 -0.582,-0.128 -0.543,-0.391 -0.461,-0.629 -0.332,-0.84 -0.168,-1.004 0.032,-1.121 0.242,-1.18 0.461,-1.179 0.679,-1.117 0.883,-1.004 1.055,-0.836 1.199,-0.625 1.293,-0.387 1.348,-0.129 1.343,0.137 1.293,0.387 1.196,0.621 1.054,0.816 0.879,0.969 0.676,1.066 0.461,1.11 0.242,1.093 0.024,1.012 -0.168,0.879 -0.332,0.699 -0.461,0.477 -0.547,0.234 -0.582,-0.031 -0.563,-0.289 -0.5,-0.539 -0.386,-0.762 -0.235,-0.945 -0.051,-1.078 0.157,-1.164 0.379,-1.188 0.597,-1.152 0.805,-1.055 0.992,-0.902 1.145,-0.715 1.261,-0.481 1.332,-0.23 1.352,0.031 1.32,0.293 1.239,0.531 1.113,0.746"
         style="fill:none;stroke:#000000;stroke-width:0.9216;stroke-linecap:square;stroke-linejoin:miter;stroke-miterlimit:3.25;stroke-dasharray:none;stroke-opacity:1"
         id="path100" />
    </g>
    <g
       id="g102">
      <g
         id="g104"
         clip-path="url(#clipPath108)">
        <text
           xml:space="preserve"
           transform="translate(302.4193,50.247379)"
           style="font-variant:normal;font-size:21.12px;font-family:CairoFont-0;-inkscape-font-specification:CairoFont-0-0;writing-mode:lr-tb;fill:#000000;fill-opacity:1;fill-rule:nonzero;stroke:none"
           id="text112"><tspan
             x="0"
             y="0"
             id="tspan110">g</tspan></text>
      </g>
    </g>
    <g
       id="g114">
      <path
         d="m 351.883,142.43 -83.781,-8.379"
         style="fill:none;stroke:#000000;stroke-width:0.9216;stroke-linecap:square;stroke-linejoin:miter;stroke-miterlimit:3.25;stroke-dasharray:none;stroke-opacity:1"
         id="path116" />
      <path
         d="m 314.996,138.738 -9.672,-4.332 -0.668,6.668 z"
         style="fill:#000000;fill-opacity:1;fill-rule:evenodd;stroke:none"
         id="path118" />
      <text
         xml:space="preserve"
         transform="translate(305.04467,125.65102)"
         style="font-variant:normal;font-size:21.12px;font-family:CairoFont-0;-inkscape-font-specification:CairoFont-0-0;writing-mode:lr-tb;fill:#000000;fill-opacity:1;fill-rule:nonzero;stroke:none"
         id="text122"><tspan
           x="0"
           y="0"
           id="tspan120">u</tspan></text>
      <path
         d="m 268.102,67.027 v 67.024"
         style="fill:none;stroke:#000000;stroke-width:0.9216;stroke-linecap:square;stroke-linejoin:miter;stroke-miterlimit:3.25;stroke-dasharray:none;stroke-opacity:1"
         id="path124" />
      <path
         d="M 268.102,105.566 264.75,95.512 h 6.703 z"
         style="fill:#000000;fill-opacity:1;fill-rule:evenodd;stroke:none"
         id="path126" />
      <text
         xml:space="preserve"
         transform="translate(247.70229,108.14756)"
         style="font-variant:normal;font-size:21.12px;font-family:CairoFont-0;-inkscape-font-specification:CairoFont-0-0;writing-mode:lr-tb;fill:#000000;fill-opacity:1;fill-rule:nonzero;stroke:none"
         id="text130"><tspan
           x="0"
           y="0"
           id="tspan128">u</tspan></text>
      <path
         d="m 271.789,67.027 c 0,0.977 -0.391,1.914 -1.082,2.606 -0.691,0.691 -1.629,1.078 -2.605,1.078 -0.977,0 -1.914,-0.387 -2.606,-1.078 -0.691,-0.692 -1.082,-1.629 -1.082,-2.606 0,-0.98 0.391,-1.918 1.082,-2.609 0.692,-0.691 1.629,-1.078 2.606,-1.078 0.976,0 1.914,0.387 2.605,1.078 0.691,0.691 1.082,1.629 1.082,2.609 z"
         style="fill:#000000;fill-opacity:1;fill-rule:evenodd;stroke:none"
         id="path132" />
      <path
         d="m 271.789,134.051 c 0,0.976 -0.391,1.914 -1.082,2.605 -0.691,0.692 -1.629,1.082 -2.605,1.082 -0.977,0 -1.914,-0.39 -2.606,-1.082 -0.691,-0.691 -1.082,-1.629 -1.082,-2.605 0,-0.977 0.391,-1.914 1.082,-2.606 0.692,-0.691 1.629,-1.082 2.606,-1.082 0.976,0 1.914,0.391 2.605,1.082 0.691,0.692 1.082,1.629 1.082,2.606 z"
         style="fill:#000000;fill-opacity:1;fill-rule:evenodd;stroke:none"
         id="path134" />
    </g>
    <g
       id="g136">
      <g
         id="g138"
         clip-path="url(#clipPath142)">
        <text
           xml:space="preserve"
           transform="translate(263.37526,184.68097)"
           style="font-variant:normal;font-size:16.8px;font-family:CairoFont-2;-inkscape-font-specification:CairoFont-2-0;writing-mode:lr-tb;fill:#000000;fill-opacity:1;fill-rule:nonzero;stroke:none"
           id="text146"><tspan
             x="0"
             y="0"
             id="tspan144">2</tspan></text>
      </g>
    </g>
  </g>
</svg>
