<?xml version="1.0" encoding="UTF-8" standalone="no"?>
<!-- Created with Inkscape (http://www.inkscape.org/) -->

<svg
   version="1.1"
   id="svg2"
   width="492"
   height="246.66667"
   viewBox="0 0 492 246.66667"
   sodipodi:docname="0h2jgx61xkzy9.pdf"
   xmlns:inkscape="http://www.inkscape.org/namespaces/inkscape"
   xmlns:sodipodi="http://sodipodi.sourceforge.net/DTD/sodipodi-0.dtd"
   xmlns="http://www.w3.org/2000/svg"
   xmlns:svg="http://www.w3.org/2000/svg">
  <defs
     id="defs6">
    <clipPath
       clipPathUnits="userSpaceOnUse"
       id="clipPath20">
      <path
         d="M 31,69 H 41.281 V 85 H 31 Z"
         id="path18" />
    </clipPath>
    <clipPath
       clipPathUnits="userSpaceOnUse"
       id="clipPath68">
      <path
         d="m 80,172 h 5 v 12.32 h -5 z"
         id="path66" />
    </clipPath>
    <clipPath
       clipPathUnits="userSpaceOnUse"
       id="clipPath84">
      <path
         d="m 216,126 h 9.602 v 15 H 216 Z"
         id="path82" />
    </clipPath>
    <clipPath
       clipPathUnits="userSpaceOnUse"
       id="clipPath132">
      <path
         d="m 263,172 h 10 v 12.32 h -10 z"
         id="path130" />
    </clipPath>
  </defs>
  <sodipodi:namedview
     id="namedview4"
     pagecolor="#ffffff"
     bordercolor="#999999"
     borderopacity="1"
     inkscape:showpageshadow="0"
     inkscape:pageopacity="0"
     inkscape:pagecheckerboard="0"
     inkscape:deskcolor="#d1d1d1" />
  <g
     id="g8"
     inkscape:groupmode="layer"
     inkscape:label="0h2jgx61xkzy9"
     transform="matrix(1.3333333,0,0,1.3333333,0,9.5e-6)">
    <g
       id="g10">
      <path
         d="m 75.402,83.781 -0.984,-0.566 -0.965,-0.465 -0.918,-0.27 -0.863,-0.007 -0.801,0.273 -0.738,0.543 -0.688,0.766 -0.66,0.906 -0.648,0.945 -0.668,0.879 -0.699,0.711 -0.754,0.477 -0.817,0.195 -0.883,-0.086 -0.929,-0.332 -0.973,-0.5 -0.988,-0.578 -0.985,-0.551 -0.953,-0.418 -0.906,-0.203 -0.844,0.066 -0.781,0.352 -0.727,0.609 -0.675,0.817 -0.657,0.926 -0.652,0.937 -0.672,0.84 -0.715,0.652 -0.769,0.403 -0.836,0.117 -0.895,-0.157 -0.945,-0.386 -0.98,-0.531 -0.989,-0.583 -0.976,-0.523 -0.942,-0.367 -0.89,-0.133 -0.828,0.141 -0.766,0.425 -0.711,0.676 -0.668,0.856 -0.652,0.937 -0.657,0.922 -0.679,0.797 -0.731,0.59 -0.789,0.328 -0.851,0.039 -0.91,-0.227 -0.957,-0.433 -0.981,-0.559 -0.988,-0.574 -0.969,-0.492 -0.93,-0.309 -0.875,-0.062 -0.808,0.222 -0.75,0.5 -0.699,0.731 -0.665,0.887 -0.648,0.945 -0.66,0.898 -0.695,0.746 -0.743,0.524 -0.804,0.246 -0.871,-0.035 -0.922,-0.289 -0.969,-0.477 -0.984,-0.574 -0.985,-0.563 -0.961,-0.449 -0.914,-0.246 -0.859,0.012 -0.793,0.301 -0.735,0.566 -0.687,0.781 -0.656,0.914 -0.649,0.946 -0.668,0.863 -0.707,0.695 -0.761,0.45 -0.821,0.167 L 9.395,100.246 8.457,99.898 7.484,99.383 6.496,98.805 5.516,98.262 4.566,97.859 3.664,97.68 2.824,97.77 2.051,98.145 1.328,98.777 0.652,99.605 0,100.539"
         style="fill:none;stroke:#000000;stroke-width:0.9216;stroke-linecap:square;stroke-linejoin:miter;stroke-miterlimit:3.25;stroke-dasharray:none;stroke-opacity:1"
         id="path12" />
    </g>
    <g
       id="g14">
      <g
         id="g16"
         clip-path="url(#clipPath20)">
        <text
           xml:space="preserve"
           transform="translate(29.306595,79.815807)"
           style="font-variant:normal;font-size:20.16px;font-family:CairoFont-0;-inkscape-font-specification:CairoFont-0-1;writing-mode:lr-tb;fill:#000000;fill-opacity:1;fill-rule:nonzero;stroke:none"
           id="text24"><tspan
             x="0"
             y="0"
             id="tspan22">γ</tspan></text>
      </g>
    </g>
    <g
       id="g26">
      <path
         d="m 167.562,41.891 -92.16,41.89"
         style="fill:none;stroke:#000000;stroke-width:0.9216;stroke-linecap:square;stroke-linejoin:miter;stroke-miterlimit:3.25;stroke-dasharray:none;stroke-opacity:1"
         id="path28" />
      <path
         d="m 126.059,60.758 -10.539,1.109 2.773,6.102 z"
         style="fill:#000000;fill-opacity:1;fill-rule:evenodd;stroke:none"
         id="path30" />
      <text
         xml:space="preserve"
         transform="translate(108.69657,51.346928)"
         style="font-variant:normal;font-size:21.12px;font-family:CairoFont-1;-inkscape-font-specification:CairoFont-1-0;writing-mode:lr-tb;fill:#000000;fill-opacity:1;fill-rule:nonzero;stroke:none"
         id="text34"><tspan
           x="0"
           y="0"
           id="tspan32">u</tspan></text>
      <path
         d="m 167.562,100.539 -54.457,29.324"
         style="fill:none;stroke:#000000;stroke-width:0.9216;stroke-linecap:square;stroke-linejoin:miter;stroke-miterlimit:3.25;stroke-dasharray:none;stroke-opacity:1"
         id="path36" />
      <path
         d="m 135.91,117.582 7.262,-7.715 3.176,5.899 z"
         style="fill:#000000;fill-opacity:1;fill-rule:evenodd;stroke:none"
         id="path38" />
      <text
         xml:space="preserve"
         transform="translate(126.76446,104.09879)"
         style="font-variant:normal;font-size:21.12px;font-family:CairoFont-1;-inkscape-font-specification:CairoFont-1-0;writing-mode:lr-tb;fill:#000000;fill-opacity:1;fill-rule:nonzero;stroke:none"
         id="text42"><tspan
           x="0"
           y="0"
           id="tspan40">u</tspan></text>
      <path
         d="m 113.105,129.863 1.293,-0.261 1.325,-0.024 1.308,0.223 1.242,0.469 1.125,0.699 0.973,0.902 0.785,1.07 0.574,1.192 0.352,1.258 0.125,1.273 -0.086,1.231 -0.281,1.136 -0.442,0.989 -0.562,0.804 -0.641,0.586 -0.668,0.344 -0.644,0.098 -0.567,-0.149 -0.449,-0.371 -0.289,-0.574 -0.101,-0.735 0.117,-0.847 0.34,-0.91 0.562,-0.918 0.774,-0.868 0.96,-0.761 1.122,-0.614 1.238,-0.417 1.305,-0.2 1.324,0.043 1.297,0.293 1.214,0.531 1.09,0.758 0.922,0.953 0.731,1.11 0.511,1.215 0.289,1.269 0.067,1.266 -0.141,1.211 -0.328,1.101 -0.48,0.942 -0.59,0.746 -0.653,0.519 -0.664,0.278 -0.629,0.031 -0.539,-0.211 -0.41,-0.434 -0.242,-0.621 -0.039,-0.769 0.176,-0.871 0.398,-0.918 0.621,-0.907 0.832,-0.843 1.008,-0.727 1.156,-0.562 1.262,-0.364 1.317,-0.132 1.32,0.109 1.277,0.359 1.184,0.598 1.051,0.816 0.871,0.996 0.672,1.145 0.453,1.234 0.226,1.274 0.008,1.258 -0.195,1.183 -0.375,1.063 -0.512,0.894 -0.613,0.688 -0.66,0.453 -0.661,0.211 -0.609,-0.039 -0.508,-0.274 -0.367,-0.488 -0.187,-0.664 0.015,-0.805 0.238,-0.886 0.461,-0.922 0.68,-0.895 0.883,-0.816 1.051,-0.688 1.191,-0.511 1.281,-0.301 1.321,-0.071 1.316,0.18 1.258,0.426 1.148,0.66 1.004,0.871 0.821,1.043 0.613,1.172 0.39,1.25 0.168,1.277 -0.05,1.243 -0.247,1.156 -0.417,1.019 -0.543,0.84 -0.633,0.625 -0.664,0.391 -0.653,0.14 -0.586,-0.105 -0.472,-0.336 -0.324,-0.539 -0.133,-0.707 0.074,-0.832 0.301,-0.902 0.523,-0.922 0.738,-0.879 0.93,-0.785 1.094,-0.641 1.219,-0.457 1.296,-0.242 h 1.329 l 1.304,0.246 1.231,0.492 1.113,0.719 0.957,0.922 0.766,1.082 0.554,1.199 0.329,1.266 0.105,1.273 -0.105,1.223 -0.297,1.125 -0.457,0.972 -0.571,0.785 -0.648,0.563 -0.664,0.32 -0.641,0.074 -0.558,-0.168 -0.438,-0.394 -0.269,-0.59 -0.082,-0.746 0.136,-0.859 0.36,-0.911 0.586,-0.914 0.793,-0.859 0.976,-0.75 1.133,-0.598 1.246,-0.398 1.312,-0.176 1.325,0.067 1.289,0.312 1.203,0.559 1.074,0.777 0.906,0.969 0.711,1.121 0.492,1.219"
         style="fill:none;stroke:#000000;stroke-width:0.9216;stroke-linecap:square;stroke-linejoin:miter;stroke-miterlimit:3.25;stroke-dasharray:none;stroke-opacity:1"
         id="path44" />
      <text
         xml:space="preserve"
         transform="translate(141.42417,133.42243)"
         style="font-variant:normal;font-size:21.12px;font-family:CairoFont-1;-inkscape-font-specification:CairoFont-1-0;writing-mode:lr-tb;fill:#000000;fill-opacity:1;fill-rule:nonzero;stroke:none"
         id="text48"><tspan
           x="0"
           y="0"
           id="tspan46">g</tspan></text>
      <path
         d="m 75.402,83.781 37.703,46.082"
         style="fill:none;stroke:#000000;stroke-width:0.9216;stroke-linecap:square;stroke-linejoin:miter;stroke-miterlimit:3.25;stroke-dasharray:none;stroke-opacity:1"
         id="path50" />
      <path
         d="m 91.07,102.93 3.774,9.906 5.187,-4.246 z"
         style="fill:#000000;fill-opacity:1;fill-rule:evenodd;stroke:none"
         id="path52" />
      <text
         xml:space="preserve"
         transform="translate(76.790451,129.93116)"
         style="font-variant:normal;font-size:21.12px;font-family:CairoFont-1;-inkscape-font-specification:CairoFont-1-0;writing-mode:lr-tb;fill:#000000;fill-opacity:1;fill-rule:nonzero;stroke:none"
         id="text56"><tspan
           x="0"
           y="0"
           id="tspan54">u</tspan></text>
      <path
         d="m 79.09,83.781 c 0,0.977 -0.387,1.914 -1.078,2.606 -0.692,0.691 -1.629,1.082 -2.61,1.082 -0.976,0 -1.914,-0.391 -2.605,-1.082 -0.692,-0.692 -1.078,-1.629 -1.078,-2.606 0,-0.976 0.386,-1.914 1.078,-2.605 0.691,-0.692 1.629,-1.082 2.605,-1.082 0.981,0 1.918,0.39 2.61,1.082 0.691,0.691 1.078,1.629 1.078,2.605 z"
         style="fill:#000000;fill-opacity:1;fill-rule:evenodd;stroke:none"
         id="path58" />
      <path
         d="m 116.793,129.863 c 0,0.977 -0.391,1.914 -1.082,2.606 -0.691,0.691 -1.629,1.078 -2.606,1.078 -0.976,0 -1.914,-0.387 -2.605,-1.078 -0.691,-0.692 -1.082,-1.629 -1.082,-2.606 0,-0.98 0.391,-1.918 1.082,-2.609 0.691,-0.692 1.629,-1.078 2.605,-1.078 0.977,0 1.915,0.386 2.606,1.078 0.691,0.691 1.082,1.629 1.082,2.609 z"
         style="fill:#000000;fill-opacity:1;fill-rule:evenodd;stroke:none"
         id="path60" />
    </g>
    <g
       id="g62">
      <g
         id="g64"
         clip-path="url(#clipPath68)">
        <text
           xml:space="preserve"
           transform="translate(79.055256,184.68097)"
           style="font-variant:normal;font-size:16.8px;font-family:CairoFont-2;-inkscape-font-specification:CairoFont-2-0;writing-mode:lr-tb;fill:#000000;fill-opacity:1;fill-rule:nonzero;stroke:none"
           id="text72"><tspan
             x="0"
             y="0"
             id="tspan70">1</tspan></text>
      </g>
    </g>
    <g
       id="g74">
      <path
         d="m 259.723,117.293 -0.653,-0.93 -0.675,-0.828 -0.719,-0.633 -0.778,-0.375 -0.839,-0.089 -0.903,0.179 -0.949,0.403 -0.98,0.539 -0.989,0.582 -0.972,0.511 -0.938,0.352 -0.883,0.109 -0.824,-0.168 -0.762,-0.453 -0.703,-0.691 -0.668,-0.867 -0.652,-0.942 -0.656,-0.914 -0.688,-0.781 -0.734,-0.57 -0.793,-0.297 -0.856,-0.016 -0.918,0.25 -0.957,0.449 -0.984,0.563 -0.988,0.57 -0.965,0.477 -0.926,0.293 -0.867,0.035 -0.805,-0.246 -0.746,-0.524 -0.695,-0.75 -0.66,-0.894 -0.649,-0.946 -0.664,-0.89 -0.695,-0.731 -0.75,-0.496 -0.813,-0.222 -0.875,0.062 -0.925,0.309 -0.969,0.488 -0.988,0.578 -0.985,0.555 -0.957,0.433 -0.91,0.227 -0.852,-0.039 -0.789,-0.324 -0.726,-0.59 -0.684,-0.797 -0.656,-0.922 -0.652,-0.941 -0.668,-0.852 -0.711,-0.676 -0.766,-0.425 -0.828,-0.145 -0.891,0.137 -0.941,0.367 -0.977,0.523 -0.988,0.578 -0.98,0.536 -0.946,0.382 -0.894,0.161 -0.832,-0.118 -0.774,-0.402 -0.715,-0.652 -0.671,-0.844 -0.653,-0.938 -0.652,-0.925 -0.68,-0.813 -0.722,-0.613 -0.786,-0.348 -0.843,-0.066 -0.907,0.203 -0.953,0.418 -0.98,0.551 -0.992,0.578 -0.969,0.5 -0.934,0.328 -0.879,0.086 -0.816,-0.195 -0.758,-0.473 -0.699,-0.715 -0.664,-0.875 -0.652,-0.945 -0.657,-0.907 -0.691,-0.765 -0.738,-0.547 -0.801,-0.273 -0.863,0.011 -0.918,0.27 -0.965,0.461 -0.985,0.57"
         style="fill:none;stroke:#000000;stroke-width:0.9216;stroke-linecap:square;stroke-linejoin:miter;stroke-miterlimit:3.25;stroke-dasharray:none;stroke-opacity:1"
         id="path76" />
    </g>
    <g
       id="g78">
      <g
         id="g80"
         clip-path="url(#clipPath84)">
        <text
           xml:space="preserve"
           transform="translate(213.62659,136.47931)"
           style="font-variant:normal;font-size:20.16px;font-family:CairoFont-0;-inkscape-font-specification:CairoFont-0-1;writing-mode:lr-tb;fill:#000000;fill-opacity:1;fill-rule:nonzero;stroke:none"
           id="text88"><tspan
             x="0"
             y="0"
             id="tspan86">γ</tspan></text>
      </g>
    </g>
    <g
       id="g90">
      <path
         d="M 351.883,41.891 309.992,62.836"
         style="fill:none;stroke:#000000;stroke-width:0.9216;stroke-linecap:square;stroke-linejoin:miter;stroke-miterlimit:3.25;stroke-dasharray:none;stroke-opacity:1"
         id="path92" />
      <path
         d="m 335.434,50.117 -10.493,1.496 3,5.996 z"
         style="fill:#000000;fill-opacity:1;fill-rule:evenodd;stroke:none"
         id="path94" />
      <text
         xml:space="preserve"
         transform="translate(317.71724,41.081192)"
         style="font-variant:normal;font-size:21.12px;font-family:CairoFont-1;-inkscape-font-specification:CairoFont-1-0;writing-mode:lr-tb;fill:#000000;fill-opacity:1;fill-rule:nonzero;stroke:none"
         id="text98"><tspan
           x="0"
           y="0"
           id="tspan96">u</tspan></text>
      <path
         d="m 351.883,100.539 -92.16,16.754"
         style="fill:none;stroke:#000000;stroke-width:0.9216;stroke-linecap:square;stroke-linejoin:miter;stroke-miterlimit:3.25;stroke-dasharray:none;stroke-opacity:1"
         id="path100" />
      <path
         d="m 300.859,109.816 9.289,-5.097 1.2,6.593 z"
         style="fill:#000000;fill-opacity:1;fill-rule:evenodd;stroke:none"
         id="path102" />
      <text
         xml:space="preserve"
         transform="translate(291.56217,138.43417)"
         style="font-variant:normal;font-size:21.12px;font-family:CairoFont-1;-inkscape-font-specification:CairoFont-1-0;writing-mode:lr-tb;fill:#000000;fill-opacity:1;fill-rule:nonzero;stroke:none"
         id="text106"><tspan
           x="0"
           y="0"
           id="tspan104">u</tspan></text>
      <path
         d="m 309.992,62.836 1.106,0.582 1.007,0.762 0.875,0.918 0.704,1.054 0.515,1.164 0.313,1.231 0.093,1.262 -0.113,1.261 -0.308,1.211 -0.493,1.129 -0.636,1.016 -0.754,0.871 -0.832,0.703 -0.864,0.523 -0.851,0.336 -0.801,0.149 -0.699,-0.028 -0.566,-0.191 -0.403,-0.328 -0.215,-0.438 -0.008,-0.507 0.204,-0.543 0.418,-0.539 0.613,-0.493 0.793,-0.418 0.945,-0.3 1.063,-0.161 1.14,0.008 1.176,0.188 1.168,0.371 1.117,0.562 1.02,0.743 0.89,0.902 0.727,1.039 0.535,1.152 0.336,1.227 0.121,1.262 -0.09,1.261 -0.289,1.219 -0.472,1.141 -0.625,1.031 -0.743,0.887 -0.824,0.722 -0.863,0.547 -0.856,0.356 -0.804,0.168 -0.715,-0.008 -0.586,-0.176 -0.422,-0.312 -0.234,-0.426 -0.032,-0.5 0.18,-0.539 0.391,-0.543 0.594,-0.504 0.773,-0.426 0.93,-0.316 1.05,-0.176 1.133,-0.012 1.176,0.164 1.172,0.352 1.121,0.543 1.035,0.719 0.906,0.886 0.746,1.028 0.559,1.14 0.359,1.219 0.145,1.258 -0.066,1.265 -0.266,1.223 -0.453,1.152 -0.61,1.047 -0.73,0.903 -0.816,0.746 -0.86,0.566 -0.859,0.379 -0.817,0.188 -0.726,0.011 -0.602,-0.156 -0.441,-0.301 -0.258,-0.414 -0.055,-0.492 0.157,-0.539 0.367,-0.543 0.57,-0.508 0.754,-0.437 0.914,-0.332 1.039,-0.192 1.125,-0.035 1.172,0.145 1.176,0.332 1.129,0.519 1.047,0.703 0.921,0.867 0.766,1.012 0.586,1.129 0.379,1.211 0.168,1.258 -0.039,1.262 -0.246,1.234 -0.434,1.164 -0.59,1.055 -0.722,0.925 -0.809,0.762 -0.855,0.586 -0.864,0.398 -0.82,0.215 -0.738,0.028 -0.617,-0.137 -0.461,-0.285 -0.282,-0.403 -0.078,-0.488 0.129,-0.535 0.344,-0.543 0.551,-0.516 0.734,-0.445 0.895,-0.344 1.027,-0.211 1.121,-0.054 1.168,0.125 1.176,0.312 1.136,0.496 1.059,0.68 0.938,0.852 0.785,0.996 0.605,1.117 0.403,1.203 0.195,1.254 -0.02,1.266 -0.222,1.238 -0.411,1.172 -0.578,1.074 -0.707,0.937 -0.8,0.782 -0.852,0.609 -0.863,0.422 -0.828,0.23 -0.75,0.051 -0.633,-0.121 -0.481,-0.266 -0.304,-0.39 -0.102,-0.481 0.106,-0.531 0.32,-0.547 0.527,-0.519 0.715,-0.457 0.879,-0.356 1.012,-0.226 1.113,-0.075 1.164,0.106 1.176,0.289 1.144,0.476 1.071,0.661 0.953,0.832 0.804,0.98 0.625,1.106 0.43,1.195 0.219,1.25 0.004,1.266 -0.199,1.246 -0.395,1.179 -0.555,1.086 -0.695,0.953 -0.793,0.801 -0.851,0.629 -0.864,0.445 -0.836,0.254 -0.758,0.067 -0.648,-0.102 -0.5,-0.25 -0.324,-0.379 -0.125,-0.472 0.082,-0.528 0.297,-0.543 0.5,-0.527 0.695,-0.465 0.863,-0.371 1,-0.242 1.102,-0.09 1.16,0.082 1.18,0.266 1.148,0.457 1.082,0.64 0.969,0.813 0.82,0.965 0.649,1.093 0.449,1.188 0.242,1.246 0.031,1.266 -0.179,1.25 -0.371,1.187 -0.54,1.098 -0.679,0.972 -0.785,0.821 -0.844,0.648 -0.867,0.465 -0.84,0.273 -0.77,0.09 -0.664,-0.082 -0.519,-0.234 -0.344,-0.367 -0.148,-0.461 0.058,-0.524 0.27,-0.547 0.48,-0.527 0.676,-0.476 0.844,-0.383 0.984,-0.258 1.094,-0.109 1.156,0.062 1.18,0.246 1.156,0.434 1.09,0.621 0.98,0.793 0.84,0.949 0.672,1.082 0.473,1.176 0.265,1.242 0.055,1.266 -0.156,1.254 -0.348,1.199 -0.523,1.109 -0.668,0.984 -0.774,0.84 -0.84,0.668 -0.863,0.485 -0.848,0.297 -0.781,0.113 -0.676,-0.063 -0.539,-0.222 -0.363,-0.352 -0.172,-0.453 0.031,-0.52 0.25,-0.543 0.457,-0.535 0.653,-0.48 0.824,-0.395 0.973,-0.273 1.082,-0.129 1.152,0.043 1.176,0.223 1.164,0.414 1.098,0.597 0.996,0.778 0.859,0.933 0.691,1.067 0.497,1.168 0.289,1.234 0.078,1.266 -0.133,1.257 -0.328,1.204"
         style="fill:none;stroke:#000000;stroke-width:0.9216;stroke-linecap:square;stroke-linejoin:miter;stroke-miterlimit:3.25;stroke-dasharray:none;stroke-opacity:1"
         id="path108" />
      <text
         xml:space="preserve"
         transform="translate(316.1412,160.48866)"
         style="font-variant:normal;font-size:21.12px;font-family:CairoFont-1;-inkscape-font-specification:CairoFont-1-0;writing-mode:lr-tb;fill:#000000;fill-opacity:1;fill-rule:nonzero;stroke:none"
         id="text112"><tspan
           x="0"
           y="0"
           id="tspan110">g</tspan></text>
      <path
         d="M 259.723,117.293 309.992,62.836"
         style="fill:none;stroke:#000000;stroke-width:0.9216;stroke-linecap:square;stroke-linejoin:miter;stroke-miterlimit:3.25;stroke-dasharray:none;stroke-opacity:1"
         id="path114" />
      <path
         d="m 288.27,86.371 -4.36,9.66 -4.926,-4.547 z"
         style="fill:#000000;fill-opacity:1;fill-rule:evenodd;stroke:none"
         id="path116" />
      <text
         xml:space="preserve"
         transform="translate(267.90255,81.589935)"
         style="font-variant:normal;font-size:21.12px;font-family:CairoFont-1;-inkscape-font-specification:CairoFont-1-0;writing-mode:lr-tb;fill:#000000;fill-opacity:1;fill-rule:nonzero;stroke:none"
         id="text120"><tspan
           x="0"
           y="0"
           id="tspan118">u</tspan></text>
      <path
         d="m 263.41,117.293 c 0,0.98 -0.387,1.918 -1.078,2.609 -0.691,0.692 -1.629,1.078 -2.609,1.078 -0.977,0 -1.914,-0.386 -2.606,-1.078 -0.691,-0.691 -1.078,-1.629 -1.078,-2.609 0,-0.977 0.387,-1.914 1.078,-2.605 0.692,-0.692 1.629,-1.079 2.606,-1.079 0.98,0 1.918,0.387 2.609,1.079 0.691,0.691 1.078,1.628 1.078,2.605 z"
         style="fill:#000000;fill-opacity:1;fill-rule:evenodd;stroke:none"
         id="path122" />
      <path
         d="m 313.68,62.836 c 0,0.976 -0.391,1.914 -1.082,2.605 -0.692,0.692 -1.629,1.082 -2.606,1.082 -0.976,0 -1.914,-0.39 -2.605,-1.082 -0.692,-0.691 -1.082,-1.629 -1.082,-2.605 0,-0.977 0.39,-1.914 1.082,-2.606 0.691,-0.691 1.629,-1.082 2.605,-1.082 0.977,0 1.914,0.391 2.606,1.082 0.691,0.692 1.082,1.629 1.082,2.606 z"
         style="fill:#000000;fill-opacity:1;fill-rule:evenodd;stroke:none"
         id="path124" />
    </g>
    <g
       id="g126">
      <g
         id="g128"
         clip-path="url(#clipPath132)">
        <text
           xml:space="preserve"
           transform="translate(263.37526,184.68097)"
           style="font-variant:normal;font-size:16.8px;font-family:CairoFont-2;-inkscape-font-specification:CairoFont-2-0;writing-mode:lr-tb;fill:#000000;fill-opacity:1;fill-rule:nonzero;stroke:none"
           id="text136"><tspan
             x="0"
             y="0"
             id="tspan134">2</tspan></text>
      </g>
    </g>
  </g>
</svg>
