<?xml version="1.0" encoding="UTF-8" standalone="no"?>
<!-- Created with Inkscape (http://www.inkscape.org/) -->

<svg
   version="1.1"
   id="svg2"
   width="492"
   height="246.66667"
   viewBox="0 0 492 246.66667"
   sodipodi:docname="0iknc4lr6azi5.pdf"
   xmlns:inkscape="http://www.inkscape.org/namespaces/inkscape"
   xmlns:sodipodi="http://sodipodi.sourceforge.net/DTD/sodipodi-0.dtd"
   xmlns="http://www.w3.org/2000/svg"
   xmlns:svg="http://www.w3.org/2000/svg">
  <defs
     id="defs6">
    <clipPath
       clipPathUnits="userSpaceOnUse"
       id="clipPath20">
      <path
         d="m 42,117 h 10.559 v 16 H 42 Z"
         id="path18" />
    </clipPath>
    <clipPath
       clipPathUnits="userSpaceOnUse"
       id="clipPath52">
      <path
         d="m 80,172 h 5 v 12.32 h -5 z"
         id="path50" />
    </clipPath>
  </defs>
  <sodipodi:namedview
     id="namedview4"
     pagecolor="#ffffff"
     bordercolor="#999999"
     borderopacity="1"
     inkscape:showpageshadow="0"
     inkscape:pageopacity="0"
     inkscape:pagecheckerboard="0"
     inkscape:deskcolor="#d1d1d1" />
  <g
     id="g8"
     inkscape:groupmode="layer"
     inkscape:label="0iknc4lr6azi5"
     transform="matrix(1.3333333,0,0,1.3333333,0,9.5e-6)">
    <g
       id="g10">
      <path
         d="m 92.16,100.539 -0.84,-0.762 -0.836,-0.656 -0.839,-0.461 -0.836,-0.207 -0.84,0.078 -0.836,0.348 -0.836,0.578 -0.84,0.727 -0.836,0.773 -0.84,0.715 -0.836,0.562 -0.84,0.332 -0.835,0.055 -0.84,-0.226 -0.836,-0.481 -0.84,-0.668 -0.836,-0.766 -0.84,-0.753 -0.836,-0.645 -0.84,-0.445 -0.836,-0.188 -0.839,0.102 -0.836,0.371 -0.84,0.59 -0.836,0.734 -0.84,0.77 -0.836,0.711 -0.836,0.546 -0.84,0.309 -0.836,0.035 -0.839,-0.25 -0.836,-0.496 -0.84,-0.68 -0.836,-0.765 -0.84,-0.754 -0.836,-0.629 -0.84,-0.43 -0.836,-0.164 -0.84,0.121 -0.836,0.391 -0.839,0.605 -0.836,0.739 -0.84,0.773 -0.836,0.699 -0.84,0.528 -0.836,0.293 -0.84,0.011 -0.836,-0.269 -0.84,-0.516 -0.835,-0.691 -0.84,-0.766 -0.836,-0.746 -0.84,-0.621 -0.836,-0.406 -0.84,-0.145 -0.836,0.145 -0.836,0.406 -0.84,0.621 -0.836,0.746 -0.839,0.766 -0.836,0.691 -0.84,0.516 -0.836,0.269 -0.84,-0.011 -0.836,-0.293 -0.84,-0.528 -0.836,-0.699 -0.839,-0.773 -0.836,-0.739 -0.84,-0.605 -0.836,-0.391 -0.84,-0.121 -0.836,0.164 -0.84,0.43 -0.836,0.629 -0.84,0.754 -0.836,0.765 -0.839,0.68 -0.836,0.496 -0.84,0.25 -0.836,-0.035 -0.84,-0.309 -0.836,-0.546 -0.836,-0.711 -0.84,-0.77 -0.836,-0.734 -0.839,-0.59 -0.836,-0.371 -0.84,-0.102 -0.836,0.188 -0.84,0.445 -0.836,0.645 -0.84,0.753 -0.836,0.766 -0.84,0.668 -0.836,0.481 -0.839,0.226 -0.836,-0.055 -0.84,-0.332 -0.836,-0.562 -0.84,-0.715 L 6.703,100.184 5.863,99.457 5.027,98.879 4.191,98.531 3.352,98.453 2.516,98.66 1.676,99.121 0.84,99.777 0,100.539"
         style="fill:none;stroke:#000000;stroke-width:0.9216;stroke-linecap:square;stroke-linejoin:miter;stroke-miterlimit:3.25;stroke-dasharray:none;stroke-opacity:1"
         id="path12" />
    </g>
    <g
       id="g14">
      <g
         id="g16"
         clip-path="url(#clipPath20)">
        <text
           xml:space="preserve"
           transform="translate(40.501875,128.41036)"
           style="font-variant:normal;font-size:20.16px;font-family:CairoFont-0;-inkscape-font-specification:CairoFont-0-1;writing-mode:lr-tb;fill:#000000;fill-opacity:1;fill-rule:nonzero;stroke:none"
           id="text24"><tspan
             x="0"
             y="0"
             id="tspan22">γ</tspan></text>
      </g>
    </g>
    <g
       id="g26">
      <path
         d="M 167.562,58.648 92.16,100.539"
         style="fill:none;stroke:#000000;stroke-width:0.9216;stroke-linecap:square;stroke-linejoin:miter;stroke-miterlimit:3.25;stroke-dasharray:none;stroke-opacity:1"
         id="path28" />
      <path
         d="m 134.258,77.152 -10.418,1.953 3.254,5.86 z"
         style="fill:#000000;fill-opacity:1;fill-rule:evenodd;stroke:none"
         id="path30" />
      <text
         xml:space="preserve"
         transform="translate(116.14183,68.573511)"
         style="font-variant:normal;font-size:21.12px;font-family:CairoFont-1;-inkscape-font-specification:CairoFont-1-0;writing-mode:lr-tb;fill:#000000;fill-opacity:1;fill-rule:nonzero;stroke:none"
         id="text34"><tspan
           x="0"
           y="0"
           id="tspan32">u</tspan></text>
      <path
         d="M 167.562,142.43 92.16,100.539"
         style="fill:none;stroke:#000000;stroke-width:0.9216;stroke-linecap:square;stroke-linejoin:miter;stroke-miterlimit:3.25;stroke-dasharray:none;stroke-opacity:1"
         id="path36" />
      <path
         d="m 125.469,119.043 10.414,1.953 -3.254,5.859 z"
         style="fill:#000000;fill-opacity:1;fill-rule:evenodd;stroke:none"
         id="path38" />
      <text
         xml:space="preserve"
         transform="translate(116.14183,147.7216)"
         style="font-variant:normal;font-size:21.12px;font-family:CairoFont-1;-inkscape-font-specification:CairoFont-1-0;writing-mode:lr-tb;fill:#000000;fill-opacity:1;fill-rule:nonzero;stroke:none"
         id="text42"><tspan
           x="0"
           y="0"
           id="tspan40">u</tspan></text>
      <path
         d="m 95.848,100.539 c 0,0.977 -0.391,1.914 -1.082,2.606 -0.692,0.691 -1.629,1.078 -2.606,1.078 -0.976,0 -1.914,-0.387 -2.605,-1.078 -0.692,-0.692 -1.082,-1.629 -1.082,-2.606 0,-0.98 0.39,-1.918 1.082,-2.609 0.691,-0.692 1.629,-1.078 2.605,-1.078 0.977,0 1.914,0.386 2.606,1.078 0.691,0.691 1.082,1.629 1.082,2.609 z"
         style="fill:#000000;fill-opacity:1;fill-rule:evenodd;stroke:none"
         id="path44" />
    </g>
    <g
       id="g46">
      <g
         id="g48"
         clip-path="url(#clipPath52)">
        <text
           xml:space="preserve"
           transform="translate(79.055256,184.68097)"
           style="font-variant:normal;font-size:16.8px;font-family:CairoFont-2;-inkscape-font-specification:CairoFont-2-0;writing-mode:lr-tb;fill:#000000;fill-opacity:1;fill-rule:nonzero;stroke:none"
           id="text56"><tspan
             x="0"
             y="0"
             id="tspan54">1</tspan></text>
      </g>
    </g>
  </g>
</svg>
