<?xml version="1.0" encoding="UTF-8" standalone="no"?>
<!-- Created with Inkscape (http://www.inkscape.org/) -->

<svg
   version="1.1"
   id="svg2"
   width="492"
   height="246.66667"
   viewBox="0 0 492 246.66667"
   sodipodi:docname="0p5k9uxqx531k.pdf"
   xmlns:inkscape="http://www.inkscape.org/namespaces/inkscape"
   xmlns:sodipodi="http://sodipodi.sourceforge.net/DTD/sodipodi-0.dtd"
   xmlns="http://www.w3.org/2000/svg"
   xmlns:svg="http://www.w3.org/2000/svg">
  <defs
     id="defs6">
    <clipPath
       clipPathUnits="userSpaceOnUse"
       id="clipPath52">
      <path
         d="m 77,117 h 13.961 v 17 H 77 Z"
         id="path50" />
    </clipPath>
    <clipPath
       clipPathUnits="userSpaceOnUse"
       id="clipPath70">
      <path
         d="m 80,172 h 5 v 12.32 h -5 z"
         id="path68" />
    </clipPath>
  </defs>
  <sodipodi:namedview
     id="namedview4"
     pagecolor="#ffffff"
     bordercolor="#999999"
     borderopacity="1"
     inkscape:showpageshadow="0"
     inkscape:pageopacity="0"
     inkscape:pagecheckerboard="0"
     inkscape:deskcolor="#d1d1d1" />
  <g
     id="g8"
     inkscape:groupmode="layer"
     inkscape:label="0p5k9uxqx531k"
     transform="matrix(1.3333333,0,0,1.3333333,0,9.5e-6)">
    <g
       id="g10">
      <path
         d="m 0,58.648 50.27,41.891"
         style="fill:none;stroke:#000000;stroke-width:0.9216;stroke-linecap:square;stroke-linejoin:miter;stroke-miterlimit:3.25;stroke-dasharray:none;stroke-opacity:1"
         id="path12" />
      <path
         d="m 28.996,82.812 -9.867,-3.863 4.289,-5.148 z"
         style="fill:#000000;fill-opacity:1;fill-rule:evenodd;stroke:none"
         id="path14" />
      <text
         xml:space="preserve"
         transform="translate(9.40765,104.45499)"
         style="font-variant:normal;font-size:21.12px;font-family:CairoFont-0;-inkscape-font-specification:CairoFont-0-0;writing-mode:lr-tb;fill:#000000;fill-opacity:1;fill-rule:nonzero;stroke:none"
         id="text18"><tspan
           x="0"
           y="0"
           id="tspan16">u</tspan></text>
      <path
         d="M 0,142.43 50.27,100.539"
         style="fill:none;stroke:#000000;stroke-width:0.9216;stroke-linecap:square;stroke-linejoin:miter;stroke-miterlimit:3.25;stroke-dasharray:none;stroke-opacity:1"
         id="path20" />
      <path
         d="m 21.273,124.703 9.868,-3.863 -4.289,-5.149 z"
         style="fill:#000000;fill-opacity:1;fill-rule:evenodd;stroke:none"
         id="path22" />
      <text
         xml:space="preserve"
         transform="translate(28.380972,146.3459)"
         style="font-variant:normal;font-size:21.12px;font-family:CairoFont-0;-inkscape-font-specification:CairoFont-0-0;writing-mode:lr-tb;fill:#000000;fill-opacity:1;fill-rule:nonzero;stroke:none"
         id="text26"><tspan
           x="0"
           y="0"
           id="tspan24">u</tspan></text>
      <path
         d="m 167.562,58.648 -50.269,41.891"
         style="fill:none;stroke:#000000;stroke-width:0.9216;stroke-linecap:square;stroke-linejoin:miter;stroke-miterlimit:3.25;stroke-dasharray:none;stroke-opacity:1"
         id="path28" />
      <path
         d="m 146.289,76.375 -9.867,3.863 4.289,5.149 z"
         style="fill:#000000;fill-opacity:1;fill-rule:evenodd;stroke:none"
         id="path30" />
      <text
         xml:space="preserve"
         transform="translate(127.58649,69.949215)"
         style="font-variant:normal;font-size:21.12px;font-family:CairoFont-0;-inkscape-font-specification:CairoFont-0-0;writing-mode:lr-tb;fill:#000000;fill-opacity:1;fill-rule:nonzero;stroke:none"
         id="text34"><tspan
           x="0"
           y="0"
           id="tspan32">c</tspan></text>
      <path
         d="M 167.562,142.43 117.293,100.539"
         style="fill:none;stroke:#000000;stroke-width:0.9216;stroke-linecap:square;stroke-linejoin:miter;stroke-miterlimit:3.25;stroke-dasharray:none;stroke-opacity:1"
         id="path36" />
      <path
         d="m 138.566,118.266 9.872,3.863 -4.293,5.148 z"
         style="fill:#000000;fill-opacity:1;fill-rule:evenodd;stroke:none"
         id="path38" />
      <text
         xml:space="preserve"
         transform="translate(145.67552,111.84013)"
         style="font-variant:normal;font-size:21.12px;font-family:CairoFont-0;-inkscape-font-specification:CairoFont-0-0;writing-mode:lr-tb;fill:#000000;fill-opacity:1;fill-rule:nonzero;stroke:none"
         id="text42"><tspan
           x="0"
           y="0"
           id="tspan40">c</tspan></text>
      <path
         d="m 117.293,100.539 -0.957,0.781 -1.078,0.621 -1.172,0.43 -1.231,0.231 -1.253,0.011 -1.235,-0.207 -1.179,-0.41 -1.094,-0.601 -0.969,-0.766 -0.828,-0.895 -0.664,-0.988 -0.485,-1.035 -0.3,-1.043 -0.125,-1 0.043,-0.914 0.191,-0.797 0.32,-0.633 0.414,-0.453 0.473,-0.246 0.5,-0.031 0.484,0.187 0.434,0.395 0.348,0.582 0.234,0.754 0.086,0.886 -0.074,0.981 -0.25,1.031 -0.434,1.043 -0.613,1.008 -0.781,0.926 -0.93,0.804 -1.063,0.653 -1.16,0.468 -1.222,0.266 -1.25,0.051 -1.239,-0.168 -1.195,-0.375 -1.109,-0.57 -0.996,-0.739 -0.852,-0.875 -0.695,-0.972 -0.516,-1.032 -0.336,-1.043 -0.156,-1.011 0.016,-0.934 0.167,-0.82 0.297,-0.664 0.399,-0.488 0.469,-0.282 0.496,-0.07 0.488,0.148 0.449,0.356 0.367,0.555 0.254,0.722 0.114,0.863 -0.043,0.969 -0.219,1.028 -0.403,1.043 -0.578,1.015 -0.754,0.945 -0.906,0.829 -1.039,0.683 -1.144,0.5 -1.215,0.305 -1.246,0.09 -1.246,-0.129 -1.204,-0.34 -1.128,-0.535 -1.02,-0.711 -0.879,-0.852 -0.723,-0.961 -0.55,-1.023 -0.368,-1.047 -0.187,-1.019 -0.016,-0.95 0.145,-0.843 0.277,-0.696 0.383,-0.519 0.457,-0.321 0.492,-0.109 0.496,0.109 0.457,0.321 0.383,0.519 0.278,0.696 0.14,0.843 -0.015,0.95 -0.188,1.019 -0.367,1.047 -0.551,1.023 -0.723,0.961 -0.879,0.852 -1.019,0.711 -1.125,0.535 -1.207,0.34 -1.242,0.129 -1.25,-0.09 -1.215,-0.305 -1.141,-0.5 -1.039,-0.683 -0.91,-0.829 -0.75,-0.945 -0.582,-1.015 -0.402,-1.043 -0.219,-1.028 -0.043,-0.969 0.117,-0.863 0.254,-0.722 0.367,-0.555 0.446,-0.356 0.488,-0.148 0.5,0.07 0.465,0.282 0.398,0.488 0.297,0.664 0.168,0.82 0.016,0.934 -0.157,1.011 -0.336,1.043 -0.515,1.032 -0.692,0.972 -0.855,0.875 -0.996,0.739 -1.11,0.57 -1.195,0.375 -1.238,0.168 -1.25,-0.051 -1.223,-0.266 -1.16,-0.468 -1.059,-0.653 -0.933,-0.804 -0.781,-0.926 -0.614,-1.008 -0.433,-1.043 -0.25,-1.031 -0.075,-0.981 0.09,-0.886 0.231,-0.754 0.347,-0.582 0.434,-0.395 0.488,-0.187 0.496,0.031 0.477,0.246 0.41,0.453 0.32,0.633 0.192,0.797 0.043,0.914 -0.121,1 -0.305,1.043 -0.484,1.035 -0.664,0.988 -0.825,0.895 -0.972,0.766 -1.094,0.601 -1.18,0.41 -1.234,0.207 -1.25,-0.011 -1.231,-0.231 -1.171,-0.43 -1.082,-0.621 -0.957,-0.781"
         style="fill:none;stroke:#000000;stroke-width:0.9216;stroke-linecap:square;stroke-linejoin:miter;stroke-miterlimit:3.25;stroke-dasharray:none;stroke-opacity:1"
         id="path44" />
    </g>
    <g
       id="g46">
      <g
         id="g48"
         clip-path="url(#clipPath52)">
        <text
           xml:space="preserve"
           transform="translate(77.500568,128.41036)"
           style="font-variant:normal;font-size:21.12px;font-family:CairoFont-0;-inkscape-font-specification:CairoFont-0-0;writing-mode:lr-tb;fill:#000000;fill-opacity:1;fill-rule:nonzero;stroke:none"
           id="text56"><tspan
             x="0"
             y="0"
             id="tspan54">g</tspan></text>
      </g>
    </g>
    <g
       id="g58">
      <path
         d="m 53.957,100.539 c 0,0.977 -0.391,1.914 -1.082,2.606 -0.691,0.691 -1.629,1.078 -2.605,1.078 -0.977,0 -1.915,-0.387 -2.606,-1.078 -0.691,-0.692 -1.082,-1.629 -1.082,-2.606 0,-0.98 0.391,-1.918 1.082,-2.609 0.691,-0.692 1.629,-1.078 2.606,-1.078 0.976,0 1.914,0.386 2.605,1.078 0.691,0.691 1.082,1.629 1.082,2.609 z"
         style="fill:#000000;fill-opacity:1;fill-rule:evenodd;stroke:none"
         id="path60" />
      <path
         d="m 120.98,100.539 c 0,0.977 -0.386,1.914 -1.078,2.606 -0.691,0.691 -1.629,1.078 -2.609,1.078 -0.977,0 -1.914,-0.387 -2.605,-1.078 -0.692,-0.692 -1.079,-1.629 -1.079,-2.606 0,-0.98 0.387,-1.918 1.079,-2.609 0.691,-0.692 1.628,-1.078 2.605,-1.078 0.98,0 1.918,0.386 2.609,1.078 0.692,0.691 1.078,1.629 1.078,2.609 z"
         style="fill:#000000;fill-opacity:1;fill-rule:evenodd;stroke:none"
         id="path62" />
    </g>
    <g
       id="g64">
      <g
         id="g66"
         clip-path="url(#clipPath70)">
        <text
           xml:space="preserve"
           transform="translate(79.055256,184.68097)"
           style="font-variant:normal;font-size:16.8px;font-family:CairoFont-1;-inkscape-font-specification:CairoFont-1-0;writing-mode:lr-tb;fill:#000000;fill-opacity:1;fill-rule:nonzero;stroke:none"
           id="text74"><tspan
             x="0"
             y="0"
             id="tspan72">1</tspan></text>
      </g>
    </g>
  </g>
</svg>
