<?xml version="1.0" encoding="UTF-8" standalone="no"?>
<!-- Created with Inkscape (http://www.inkscape.org/) -->

<svg
   version="1.1"
   id="svg2"
   width="492"
   height="246.66667"
   viewBox="0 0 492 246.66667"
   sodipodi:docname="0t9kx7zt7rmjd.pdf"
   xmlns:inkscape="http://www.inkscape.org/namespaces/inkscape"
   xmlns:sodipodi="http://sodipodi.sourceforge.net/DTD/sodipodi-0.dtd"
   xmlns="http://www.w3.org/2000/svg"
   xmlns:svg="http://www.w3.org/2000/svg">
  <defs
     id="defs6">
    <clipPath
       clipPathUnits="userSpaceOnUse"
       id="clipPath58">
      <path
         d="m 79,172 h 9 v 12.32 h -9 z"
         id="path56" />
    </clipPath>
  </defs>
  <sodipodi:namedview
     id="namedview4"
     pagecolor="#ffffff"
     bordercolor="#999999"
     borderopacity="1"
     inkscape:showpageshadow="0"
     inkscape:pageopacity="0"
     inkscape:pagecheckerboard="0"
     inkscape:deskcolor="#d1d1d1" />
  <g
     id="g8"
     inkscape:groupmode="layer"
     inkscape:label="0t9kx7zt7rmjd"
     transform="matrix(1.3333333,0,0,1.3333333,0,9.5e-6)">
    <g
       id="g10">
      <path
         d="m 0,58.648 83.781,8.379"
         style="fill:none;stroke:#000000;stroke-width:0.9216;stroke-linecap:square;stroke-linejoin:miter;stroke-miterlimit:3.25;stroke-dasharray:none;stroke-opacity:1"
         id="path12" />
      <path
         d="M 46.895,63.336 36.555,65.672 37.223,59 Z"
         style="fill:#000000;fill-opacity:1;fill-rule:evenodd;stroke:none"
         id="path14" />
      <text
         xml:space="preserve"
         transform="translate(34.358501,90.644098)"
         style="font-variant:normal;font-size:21.12px;font-family:CairoFont-0;-inkscape-font-specification:CairoFont-0-0;writing-mode:lr-tb;fill:#000000;fill-opacity:1;fill-rule:nonzero;stroke:none"
         id="text18"><tspan
           x="0"
           y="0"
           id="tspan16">u</tspan></text>
      <path
         d="m 0,142.43 83.781,-8.379"
         style="fill:none;stroke:#000000;stroke-width:0.9216;stroke-linecap:square;stroke-linejoin:miter;stroke-miterlimit:3.25;stroke-dasharray:none;stroke-opacity:1"
         id="path20" />
      <path
         d="m 36.891,138.738 10.336,2.336 -0.668,-6.668 z"
         style="fill:#000000;fill-opacity:1;fill-rule:evenodd;stroke:none"
         id="path22" />
      <text
         xml:space="preserve"
         transform="translate(36.942848,166.04773)"
         style="font-variant:normal;font-size:21.12px;font-family:CairoFont-0;-inkscape-font-specification:CairoFont-0-0;writing-mode:lr-tb;fill:#000000;fill-opacity:1;fill-rule:nonzero;stroke:none"
         id="text26"><tspan
           x="0"
           y="0"
           id="tspan24">u</tspan></text>
      <path
         d="m 83.781,134.051 0.203,-1.274 0.418,-1.234 0.629,-1.141 0.824,-1.015 0.993,-0.852 1.129,-0.656 1.226,-0.449 1.277,-0.227 1.286,-0.012 1.246,0.2 1.164,0.379 1.035,0.535 0.875,0.648 0.687,0.727 0.481,0.75 0.262,0.73 0.054,0.664 -0.152,0.551 -0.336,0.402 -0.484,0.223 -0.602,0.02 -0.676,-0.2 -0.703,-0.418 -0.683,-0.629 -0.622,-0.824 -0.511,-0.996 -0.367,-1.129 -0.192,-1.222 0.008,-1.27 0.219,-1.273 0.437,-1.227 0.645,-1.137 0.836,-1 1.008,-0.836 1.136,-0.64 1.231,-0.43 1.281,-0.211 1.285,0.008 1.242,0.211 1.153,0.394 1.023,0.543 0.859,0.661 0.672,0.726 0.461,0.754 0.25,0.727 0.035,0.656 -0.168,0.539 -0.347,0.391 -0.496,0.207 h -0.61 l -0.679,-0.215 -0.703,-0.434 -0.68,-0.648 -0.613,-0.84 -0.504,-1.008 -0.356,-1.137 -0.176,-1.23 0.028,-1.274 0.234,-1.269 0.457,-1.219 0.66,-1.129 0.852,-0.988 1.019,-0.82 1.145,-0.625 1.238,-0.414 1.285,-0.192 1.282,0.027 1.234,0.227 1.145,0.406 1.011,0.555 0.844,0.668 0.656,0.73 0.446,0.75 0.23,0.723 0.016,0.649 -0.18,0.531 -0.359,0.375 -0.508,0.191 -0.617,-0.015 -0.684,-0.235 -0.703,-0.449 -0.676,-0.664 -0.609,-0.856 -0.489,-1.019 -0.343,-1.145 -0.16,-1.234 0.043,-1.277 0.253,-1.266 0.473,-1.215 0.676,-1.117 0.867,-0.977 1.031,-0.808 1.157,-0.606 1.242,-0.394 1.285,-0.176 1.281,0.043 1.227,0.242 1.136,0.422 1,0.566 0.829,0.672 0.64,0.735 0.43,0.75 0.211,0.718 v 0.641 l -0.199,0.52 -0.372,0.363 -0.519,0.172 -0.621,-0.031 -0.688,-0.25 -0.703,-0.473 -0.672,-0.68 -0.597,-0.867 -0.481,-1.031 -0.328,-1.156 -0.144,-1.239 0.058,-1.277 0.274,-1.266 0.488,-1.207 0.691,-1.105 0.883,-0.965 1.039,-0.793 1.168,-0.59 1.246,-0.375 1.285,-0.156 1.282,0.058 1.222,0.258 1.125,0.434 0.985,0.578 0.816,0.676 0.621,0.738 0.414,0.75 0.196,0.715 -0.016,0.633 -0.215,0.507 -0.387,0.348 -0.527,0.16 -0.629,-0.05 -0.691,-0.27 -0.7,-0.488 -0.671,-0.696 -0.59,-0.882 -0.469,-1.043 -0.312,-1.164 -0.129,-1.243 0.074,-1.277 0.293,-1.266 0.504,-1.199 0.711,-1.097 0.894,-0.954 1.051,-0.773 1.176,-0.574 1.25,-0.36 1.289,-0.136 1.273,0.074 1.219,0.273 1.113,0.45 0.977,0.585 0.801,0.684 0.605,0.742 0.395,0.75 0.175,0.707 -0.031,0.625 -0.23,0.496 -0.399,0.332 -0.535,0.141 -0.637,-0.066 -0.691,-0.286 -0.703,-0.507 -0.664,-0.711 -0.582,-0.899 -0.457,-1.05 -0.301,-1.172 -0.113,-1.25 0.093,-1.278 0.309,-1.258 0.523,-1.195 0.727,-1.086 0.906,-0.941 1.067,-0.758 1.179,-0.559 1.258,-0.339 1.289,-0.122 1.27,0.094 1.211,0.289 1.105,0.457 0.961,0.598 0.785,0.691 0.59,0.743 0.375,0.75 0.16,0.703 -0.047,0.613 -0.242,0.484 -0.414,0.321 -0.547,0.125 -0.64,-0.086 -0.696,-0.305 -0.699,-0.523 -0.66,-0.727 -0.574,-0.91 -0.446,-1.067 -0.285,-1.179 -0.097,-1.25 0.113,-1.278 0.324,-1.257 0.539,-1.188 0.742,-1.074 0.922,-0.926 1.074,-0.746 1.192,-0.539 1.262,-0.32 1.285,-0.106 1.269,0.11 1.203,0.304 1.094,0.473 0.949,0.605 0.774,0.696 0.57,0.746 0.359,0.746 0.145,0.699 -0.066,0.606 -0.258,0.472 -0.426,0.305 -0.555,0.105 -0.648,-0.101 -0.695,-0.321 -0.7,-0.542 -0.656,-0.743 -0.562,-0.925 -0.434,-1.075 -0.273,-1.187 -0.079,-1.254 0.125,-1.281 0.344,-1.25 0.559,-1.18 0.758,-1.066 0.933,-0.911 1.086,-0.73 1.195,-0.52 1.266,-0.304 1.289,-0.086 1.266,0.125 1.195,0.316 1.086,0.485 0.934,0.617 0.757,0.703 0.555,0.746 0.34,0.742 0.125,0.696 -0.082,0.593 -0.27,0.461 -0.437,0.289 -0.563,0.094 -0.656,-0.121 -0.699,-0.34 -0.695,-0.559 -0.649,-0.757 -0.555,-0.938 -0.421,-1.086 -0.258,-1.195 -0.063,-1.262 0.145,-1.277 0.359,-1.246 0.574,-1.172 0.774,-1.055 0.949,-0.898 1.094,-0.711 1.203,-0.504 1.269,-0.289 1.289,-0.067"
         style="fill:none;stroke:#000000;stroke-width:0.9216;stroke-linecap:square;stroke-linejoin:miter;stroke-miterlimit:3.25;stroke-dasharray:none;stroke-opacity:1"
         id="path28" />
      <text
         xml:space="preserve"
         transform="translate(129.33609,69.98771)"
         style="font-variant:normal;font-size:21.12px;font-family:CairoFont-0;-inkscape-font-specification:CairoFont-0-0;writing-mode:lr-tb;fill:#000000;fill-opacity:1;fill-rule:nonzero;stroke:none"
         id="text32"><tspan
           x="0"
           y="0"
           id="tspan30">g</tspan></text>
      <path
         d="m 83.781,67.027 1.289,0.067 1.27,0.285 1.203,0.508 1.098,0.711 0.949,0.898 0.773,1.055 0.571,1.172 0.363,1.246 0.144,1.277 -0.066,1.262 -0.254,1.191 -0.422,1.086 -0.558,0.942 -0.645,0.757 -0.699,0.559 -0.699,0.34 -0.653,0.121 -0.566,-0.094 -0.434,-0.289 -0.273,-0.461 -0.082,-0.598 0.125,-0.691 0.344,-0.742 0.554,-0.746 0.754,-0.707 0.938,-0.614 1.082,-0.484 1.195,-0.316 1.266,-0.125 1.289,0.082 1.265,0.308 1.196,0.52 1.086,0.73 0.937,0.911 0.758,1.066 0.555,1.18 0.343,1.25 0.129,1.277 -0.082,1.258 -0.269,1.187 -0.438,1.074 -0.562,0.926 -0.653,0.742 -0.699,0.54 -0.699,0.324 -0.649,0.101 -0.554,-0.109 -0.422,-0.305 -0.258,-0.469 -0.066,-0.605 0.144,-0.699 0.356,-0.746 0.574,-0.746 0.769,-0.7 0.95,-0.601 1.093,-0.473 1.204,-0.305 1.269,-0.109 1.289,0.102 1.262,0.324 1.187,0.539 1.075,0.746 0.925,0.926 0.739,1.074 0.543,1.188 0.324,1.253 0.109,1.282 -0.097,1.25 -0.286,1.179 -0.445,1.067 -0.574,0.91 -0.656,0.726 -0.704,0.524 -0.691,0.305 -0.644,0.086 -0.547,-0.125 -0.411,-0.321 -0.242,-0.484 -0.05,-0.613 0.16,-0.704 0.375,-0.75 0.59,-0.742 0.785,-0.691 0.965,-0.598 1.101,-0.457 1.211,-0.289 1.273,-0.094 1.29,0.121 1.253,0.34 1.184,0.559 1.063,0.758 0.91,0.941 0.726,1.086 0.52,1.191 0.308,1.262 0.094,1.278 -0.113,1.246 -0.297,1.171 -0.461,1.055 -0.582,0.899 -0.664,0.711 -0.699,0.503 -0.692,0.29 -0.636,0.066 -0.539,-0.141 -0.399,-0.336 -0.226,-0.496 -0.036,-0.621 0.18,-0.711 0.395,-0.746 0.605,-0.742 0.801,-0.688 0.973,-0.585 1.117,-0.446 1.215,-0.273 1.273,-0.074 1.289,0.136 1.254,0.36 1.172,0.574 1.051,0.773 0.898,0.953 0.707,1.098 0.508,1.199 0.289,1.262 0.078,1.277 -0.129,1.246 -0.316,1.165 -0.469,1.039 -0.59,0.886 -0.668,0.696 -0.703,0.488 -0.687,0.266 -0.633,0.05 -0.528,-0.156 -0.386,-0.348 -0.211,-0.507 -0.016,-0.633 0.195,-0.715 0.411,-0.75 0.621,-0.738 0.816,-0.68 0.988,-0.574 1.125,-0.434 1.223,-0.258 1.277,-0.058 1.286,0.156 1.25,0.375 1.164,0.59 1.039,0.793 0.882,0.965 0.696,1.105 0.488,1.207 0.274,1.266 0.058,1.277 -0.144,1.238 -0.329,1.157 -0.48,1.031 -0.598,0.867 -0.675,0.68 -0.704,0.472 -0.683,0.25 -0.625,0.032 -0.516,-0.172 -0.375,-0.363 -0.199,-0.52 v -0.641 l 0.215,-0.718 0.429,-0.75 0.637,-0.735 0.832,-0.672 1,-0.566 1.133,-0.422 1.231,-0.242 1.281,-0.043 1.281,0.176 1.246,0.394 1.156,0.606 1.028,0.804 0.867,0.981 0.68,1.113 0.468,1.215 0.258,1.27 0.039,1.273 -0.16,1.234 -0.34,1.149 -0.492,1.019 -0.605,0.856 -0.68,0.66 -0.703,0.453 -0.68,0.234 -0.617,0.016 -0.508,-0.191 -0.359,-0.375 -0.184,-0.532 0.016,-0.648 0.23,-0.723 0.449,-0.75 0.653,-0.73 0.847,-0.668 1.012,-0.555 1.141,-0.406 1.238,-0.231 1.281,-0.023 1.282,0.191 1.238,0.415 1.148,0.624 1.016,0.821 0.855,0.988 0.661,1.125 0.453,1.223 0.238,1.269 0.023,1.274 -0.175,1.23 -0.352,1.137 -0.504,1.008 -0.613,0.84 -0.684,0.644 -0.703,0.438 -0.68,0.214 h -0.609 l -0.496,-0.207 -0.344,-0.39 -0.168,-0.543 0.035,-0.656 0.246,-0.727 0.465,-0.75 0.668,-0.727 0.864,-0.66 1.023,-0.543 1.152,-0.394 1.239,-0.211 1.285,-0.008 1.281,0.207 1.23,0.43 1.141,0.644 1.004,0.832 0.84,1.004 0.644,1.137 0.434,1.227 0.223,1.269 0.007,1.273 -0.191,1.223 -0.367,1.129 -0.516,0.992 -0.617,0.828 -0.687,0.629 -0.704,0.418 -0.675,0.199 -0.602,-0.019 -0.484,-0.223 -0.332,-0.402 -0.153,-0.555 0.051,-0.66 0.266,-0.73 0.48,-0.754 0.688,-0.723 0.875,-0.652 1.035,-0.532 1.16,-0.382 1.246,-0.196 1.285,0.012 1.282,0.227 1.222,0.445 1.129,0.66 0.992,0.852 0.824,1.011 0.629,1.145 0.418,1.234 0.203,1.274"
         style="fill:none;stroke:#000000;stroke-width:0.9216;stroke-linecap:square;stroke-linejoin:miter;stroke-miterlimit:3.25;stroke-dasharray:none;stroke-opacity:1"
         id="path34" />
      <text
         xml:space="preserve"
         transform="translate(147.13687,111.88735)"
         style="font-variant:normal;font-size:21.12px;font-family:CairoFont-0;-inkscape-font-specification:CairoFont-0-0;writing-mode:lr-tb;fill:#000000;fill-opacity:1;fill-rule:nonzero;stroke:none"
         id="text38"><tspan
           x="0"
           y="0"
           id="tspan36">g</tspan></text>
      <path
         d="m 83.781,67.027 v 67.024"
         style="fill:none;stroke:#000000;stroke-width:0.9216;stroke-linecap:square;stroke-linejoin:miter;stroke-miterlimit:3.25;stroke-dasharray:none;stroke-opacity:1"
         id="path40" />
      <path
         d="M 83.781,105.566 80.43,95.512 h 6.703 z"
         style="fill:#000000;fill-opacity:1;fill-rule:evenodd;stroke:none"
         id="path42" />
      <text
         xml:space="preserve"
         transform="translate(64.220948,108.14756)"
         style="font-variant:normal;font-size:21.12px;font-family:CairoFont-0;-inkscape-font-specification:CairoFont-0-0;writing-mode:lr-tb;fill:#000000;fill-opacity:1;fill-rule:nonzero;stroke:none"
         id="text46"><tspan
           x="0"
           y="0"
           id="tspan44">u</tspan></text>
      <path
         d="m 87.469,67.027 c 0,0.977 -0.391,1.914 -1.082,2.606 -0.692,0.691 -1.629,1.078 -2.606,1.078 -0.976,0 -1.914,-0.387 -2.605,-1.078 -0.692,-0.692 -1.082,-1.629 -1.082,-2.606 0,-0.98 0.39,-1.918 1.082,-2.609 0.691,-0.691 1.629,-1.078 2.605,-1.078 0.977,0 1.914,0.387 2.606,1.078 0.691,0.691 1.082,1.629 1.082,2.609 z"
         style="fill:#000000;fill-opacity:1;fill-rule:evenodd;stroke:none"
         id="path48" />
      <path
         d="m 87.469,134.051 c 0,0.976 -0.391,1.914 -1.082,2.605 -0.692,0.692 -1.629,1.082 -2.606,1.082 -0.976,0 -1.914,-0.39 -2.605,-1.082 -0.692,-0.691 -1.082,-1.629 -1.082,-2.605 0,-0.977 0.39,-1.914 1.082,-2.606 0.691,-0.691 1.629,-1.082 2.605,-1.082 0.977,0 1.914,0.391 2.606,1.082 0.691,0.692 1.082,1.629 1.082,2.606 z"
         style="fill:#000000;fill-opacity:1;fill-rule:evenodd;stroke:none"
         id="path50" />
    </g>
    <g
       id="g52">
      <g
         id="g54"
         clip-path="url(#clipPath58)">
        <text
           xml:space="preserve"
           transform="translate(79.055256,184.68097)"
           style="font-variant:normal;font-size:16.8px;font-family:CairoFont-1;-inkscape-font-specification:CairoFont-1-0;writing-mode:lr-tb;fill:#000000;fill-opacity:1;fill-rule:nonzero;stroke:none"
           id="text62"><tspan
             x="0"
             y="0"
             id="tspan60">3</tspan></text>
      </g>
    </g>
  </g>
</svg>
