<?xml version="1.0" encoding="UTF-8" standalone="no"?>
<!-- Created with Inkscape (http://www.inkscape.org/) -->

<svg
   version="1.1"
   id="svg2"
   width="492"
   height="246.66667"
   viewBox="0 0 492 246.66667"
   sodipodi:docname="0tuhs963f9qap.pdf"
   xmlns:inkscape="http://www.inkscape.org/namespaces/inkscape"
   xmlns:sodipodi="http://sodipodi.sourceforge.net/DTD/sodipodi-0.dtd"
   xmlns="http://www.w3.org/2000/svg"
   xmlns:svg="http://www.w3.org/2000/svg">
  <defs
     id="defs6">
    <clipPath
       clipPathUnits="userSpaceOnUse"
       id="clipPath58">
      <path
         d="m 79,172 h 9 v 12.32 h -9 z"
         id="path56" />
    </clipPath>
  </defs>
  <sodipodi:namedview
     id="namedview4"
     pagecolor="#ffffff"
     bordercolor="#999999"
     borderopacity="1"
     inkscape:showpageshadow="0"
     inkscape:pageopacity="0"
     inkscape:pagecheckerboard="0"
     inkscape:deskcolor="#d1d1d1" />
  <g
     id="g8"
     inkscape:groupmode="layer"
     inkscape:label="0tuhs963f9qap"
     transform="matrix(1.3333333,0,0,1.3333333,0,9.5e-6)">
    <g
       id="g10">
      <path
         d="m 83.781,67.027 -1.113,0.743 -1.238,0.535 -1.321,0.289 -1.351,0.031 -1.332,-0.227 -1.262,-0.484 -1.144,-0.711 -0.993,-0.906 -0.804,-1.055 -0.598,-1.152 -0.379,-1.184 -0.156,-1.164 0.051,-1.082 0.234,-0.945 0.387,-0.762 0.5,-0.539 0.562,-0.289 0.582,-0.031 0.543,0.234 0.465,0.477 0.332,0.699 0.168,0.879 -0.023,1.015 -0.243,1.09 -0.46,1.11 -0.676,1.066 -0.879,0.969 -1.055,0.816 -1.195,0.621 -1.293,0.387 -1.348,0.137 -1.344,-0.129 -1.293,-0.387 -1.199,-0.625 -1.054,-0.836 -0.883,-1 -0.68,-1.121 -0.461,-1.18 -0.242,-1.179 -0.031,-1.121 0.168,-1.004 0.332,-0.84 0.461,-0.629 0.543,-0.387 0.582,-0.133 0.562,0.129 0.5,0.387 0.391,0.617 0.234,0.813 0.055,0.969 -0.156,1.066 -0.375,1.109 -0.594,1.09 -0.801,1.016 -0.992,0.883 -1.145,0.699 -1.261,0.484 L 58.73,66.52 57.379,66.492 56.059,66.207 54.82,65.672 53.703,64.914 52.75,63.973 51.988,62.891 51.438,61.727 51.109,60.539 51,59.391 l 0.094,-1.059 0.269,-0.906 0.418,-0.715 0.516,-0.488 0.574,-0.235 0.574,0.032 0.532,0.285 0.437,0.531 0.301,0.742 0.129,0.914 -0.071,1.031 -0.289,1.102 -0.507,1.105 -0.723,1.051 -0.922,0.942 -1.09,0.777 -1.219,0.57 -1.312,0.332 -1.348,0.078 -1.336,-0.183 -1.277,-0.442 -1.172,-0.675 -1.019,-0.875 -0.84,-1.032 -0.633,-1.14 -0.414,-1.184 -0.195,-1.172 0.015,-1.101 0.207,-0.973 0.363,-0.793 0.481,-0.578 0.559,-0.336 0.582,-0.074 0.554,0.187 0.477,0.438 0.359,0.664 0.199,0.851 0.008,0.993 -0.199,1.082 -0.422,1.109 -0.644,1.082 -0.844,0.988 -1.027,0.848 -1.176,0.656 -1.278,0.43 -1.339,0.18 -1.348,-0.086 -1.309,-0.34 -1.215,-0.59 -1.085,-0.801 -0.915,-0.976 -0.714,-1.106 -0.5,-1.172 -0.282,-1.183 -0.062,-1.137 0.133,-1.027 0.308,-0.871 0.442,-0.668 0.531,-0.43 0.578,-0.18 0.57,0.086 0.516,0.344 0.41,0.578 0.266,0.785 0.086,0.946 -0.117,1.05 -0.336,1.11 -0.559,1.097 -0.766,1.032 -0.961,0.906 -1.121,0.738 -1.246,0.52 -1.32,0.281 -1.352,0.019 -1.328,-0.242 -1.258,-0.496 -1.14,-0.722 -0.985,-0.915 -0.793,-1.058 -0.589,-1.156 -0.364,-1.188 -0.148,-1.16 0.059,-1.074 0.246,-0.938 0.39,-0.754 0.504,-0.527 0.567,-0.277 0.582,-0.016 0.539,0.242 0.457,0.492 0.328,0.707 0.16,0.887 -0.035,1.016 -0.25,1.094 -0.473,1.109 -0.687,1.066 -0.887,0.961 -1.063,0.809 -1.203,0.609 -1.297,0.375 -1.343,0.125 -1.344,-0.14 -1.293,-0.399 -1.191,-0.637 -1.047,-0.847 -0.875,-1.008 -0.668,-1.125 -0.453,-1.18 -0.231,-1.179 -0.019,-1.118 0.175,-0.996 0.336,-0.828 0.469,-0.621 0.547,-0.375 0.578,-0.121 0.566,0.145 0.493,0.394 0.382,0.629 0.231,0.82 0.043,0.973 -0.164,1.07 -0.387,1.11 -0.601,1.089 -0.813,1.008 -1,0.875 L 8.555,60.555 7.289,61.027 5.957,61.25 4.605,61.211 3.289,60.914 2.055,60.367 0.945,59.598 0,58.648"
         style="fill:none;stroke:#000000;stroke-width:0.9216;stroke-linecap:square;stroke-linejoin:miter;stroke-miterlimit:3.25;stroke-dasharray:none;stroke-opacity:1"
         id="path12" />
      <text
         xml:space="preserve"
         transform="translate(34.317486,90.644098)"
         style="font-variant:normal;font-size:21.12px;font-family:CairoFont-0;-inkscape-font-specification:CairoFont-0-0;writing-mode:lr-tb;fill:#000000;fill-opacity:1;fill-rule:nonzero;stroke:none"
         id="text16"><tspan
           x="0"
           y="0"
           id="tspan14">g</tspan></text>
      <path
         d="m 83.781,134.051 -0.945,0.949 -1.109,0.77 -1.235,0.546 -1.316,0.301 -1.352,0.035 -1.332,-0.222 -1.265,-0.469 -1.153,-0.691 -0.996,-0.875 -0.812,-1.012 -0.606,-1.086 -0.387,-1.109 -0.164,-1.071 0.043,-0.972 0.231,-0.825 0.383,-0.625 0.496,-0.398 0.562,-0.145 0.578,0.121 0.547,0.379 0.469,0.618 0.336,0.828 0.176,1 -0.02,1.117 -0.23,1.176 -0.453,1.183 -0.668,1.121 -0.871,1.012 -1.051,0.844 -1.192,0.637 -1.289,0.398 -1.344,0.141 -1.347,-0.122 -1.297,-0.378 -1.199,-0.61 -1.063,-0.808 -0.89,-0.961 -0.688,-1.067 -0.469,-1.105 -0.25,-1.094 -0.039,-1.02 0.16,-0.886 0.329,-0.707 0.457,-0.489 0.543,-0.246 0.578,0.016 0.566,0.281 0.504,0.528 0.391,0.75 0.246,0.937 0.058,1.074 -0.148,1.164 -0.363,1.188 -0.586,1.152 -0.797,1.059 -0.985,0.914 -1.14,0.723 -1.258,0.496 -1.328,0.242 -1.352,-0.02 -1.32,-0.277 -1.246,-0.523 -1.121,-0.735 -0.961,-0.91 -0.766,-1.031 -0.558,-1.098 -0.336,-1.105 -0.117,-1.055 0.085,-0.945 0.266,-0.782 0.41,-0.578 0.516,-0.344 0.57,-0.085 0.578,0.175 0.535,0.434 0.442,0.668 0.305,0.867 0.132,1.031 -0.062,1.133 -0.281,1.184 -0.5,1.176 -0.715,1.101 -0.914,0.977 -1.082,0.804 -1.219,0.586 -1.305,0.344 -1.351,0.082 -1.336,-0.18 -1.282,-0.429 -1.175,-0.657 -1.028,-0.847 -0.843,-0.989 -0.641,-1.078 -0.426,-1.109 -0.199,-1.082 0.008,-0.996 0.199,-0.852 0.359,-0.66 0.477,-0.441 0.555,-0.188 0.582,0.074 0.558,0.336 0.481,0.578 0.363,0.797 0.207,0.973 0.016,1.098 -0.196,1.172 -0.414,1.187 -0.633,1.137 -0.839,1.031 -1.02,0.875 -1.172,0.676 -1.277,0.441 -1.336,0.188 -1.348,-0.078 -1.308,-0.336 -1.223,-0.571 -1.09,-0.777 -0.918,-0.941 -0.726,-1.051 -0.508,-1.106 -0.285,-1.097 -0.074,-1.035 0.128,-0.915 0.301,-0.742 0.438,-0.527 0.531,-0.289 0.578,-0.027 0.57,0.234 0.516,0.484 0.418,0.715 0.27,0.91 0.093,1.055 -0.109,1.152 -0.328,1.188 -0.551,1.16 -0.762,1.082 -0.953,0.941 -1.113,0.758 -1.242,0.535 -1.321,0.289 -1.351,0.024 -1.328,-0.234 -1.262,-0.485 -1.145,-0.699 -0.992,-0.883 -0.801,-1.012 -0.593,-1.093 -0.375,-1.11 -0.157,-1.066 0.055,-0.969 0.235,-0.812 0.39,-0.618 0.5,-0.382 0.567,-0.133 0.578,0.133 0.547,0.39 0.457,0.629 0.332,0.836 0.168,1.004 -0.028,1.121 -0.242,1.18 -0.465,1.179 -0.68,1.122 -0.882,1.003 -1.055,0.832 -1.199,0.629 -1.293,0.383 -1.344,0.129 -1.344,-0.133 -1.297,-0.39 -1.195,-0.618 -1.055,-0.816 L 9.27,140.07 8.594,139 l -0.461,-1.109 -0.238,-1.09 -0.028,-1.012 0.168,-0.883 0.332,-0.695 0.465,-0.481 0.543,-0.23 0.582,0.027 0.563,0.289 0.5,0.539 0.386,0.762 0.235,0.945 0.05,1.083 -0.156,1.164 -0.379,1.187 -0.594,1.149 -0.808,1.054 -0.992,0.906 -1.145,0.711 -1.262,0.485 -1.332,0.23 L 3.672,144 2.355,143.707 1.113,143.172 0,142.43"
         style="fill:none;stroke:#000000;stroke-width:0.9216;stroke-linecap:square;stroke-linejoin:miter;stroke-miterlimit:3.25;stroke-dasharray:none;stroke-opacity:1"
         id="path18" />
      <text
         xml:space="preserve"
         transform="translate(36.901832,166.04773)"
         style="font-variant:normal;font-size:21.12px;font-family:CairoFont-0;-inkscape-font-specification:CairoFont-0-0;writing-mode:lr-tb;fill:#000000;fill-opacity:1;fill-rule:nonzero;stroke:none"
         id="text22"><tspan
           x="0"
           y="0"
           id="tspan20">g</tspan></text>
      <path
         d="M 167.562,58.648 83.781,134.051"
         style="fill:none;stroke:#000000;stroke-width:0.9216;stroke-linecap:square;stroke-linejoin:miter;stroke-miterlimit:3.25;stroke-dasharray:none;stroke-opacity:1"
         id="path24" />
      <path
         d="m 129.41,92.984 -9.715,4.239 4.485,4.98 z"
         style="fill:#000000;fill-opacity:1;fill-rule:evenodd;stroke:none"
         id="path26" />
      <text
         xml:space="preserve"
         transform="translate(129.41812,69.98771)"
         style="font-variant:normal;font-size:21.12px;font-family:CairoFont-0;-inkscape-font-specification:CairoFont-0-0;writing-mode:lr-tb;fill:#000000;fill-opacity:1;fill-rule:nonzero;stroke:none"
         id="text30"><tspan
           x="0"
           y="0"
           id="tspan28">u</tspan></text>
      <path
         d="M 167.562,142.43 83.781,67.027"
         style="fill:none;stroke:#000000;stroke-width:0.9216;stroke-linecap:square;stroke-linejoin:miter;stroke-miterlimit:3.25;stroke-dasharray:none;stroke-opacity:1"
         id="path32" />
      <path
         d="m 121.938,101.363 9.714,4.235 -4.484,4.984 z"
         style="fill:#000000;fill-opacity:1;fill-rule:evenodd;stroke:none"
         id="path34" />
      <text
         xml:space="preserve"
         transform="translate(147.13687,111.88735)"
         style="font-variant:normal;font-size:21.12px;font-family:CairoFont-0;-inkscape-font-specification:CairoFont-0-0;writing-mode:lr-tb;fill:#000000;fill-opacity:1;fill-rule:nonzero;stroke:none"
         id="text38"><tspan
           x="0"
           y="0"
           id="tspan36">u</tspan></text>
      <path
         d="m 83.781,67.027 v 67.024"
         style="fill:none;stroke:#000000;stroke-width:0.9216;stroke-linecap:square;stroke-linejoin:miter;stroke-miterlimit:3.25;stroke-dasharray:none;stroke-opacity:1"
         id="path40" />
      <path
         d="M 83.781,105.566 80.43,95.512 h 6.703 z"
         style="fill:#000000;fill-opacity:1;fill-rule:evenodd;stroke:none"
         id="path42" />
      <text
         xml:space="preserve"
         transform="translate(64.220948,108.14756)"
         style="font-variant:normal;font-size:21.12px;font-family:CairoFont-0;-inkscape-font-specification:CairoFont-0-0;writing-mode:lr-tb;fill:#000000;fill-opacity:1;fill-rule:nonzero;stroke:none"
         id="text46"><tspan
           x="0"
           y="0"
           id="tspan44">u</tspan></text>
      <path
         d="m 87.469,67.027 c 0,0.977 -0.391,1.914 -1.082,2.606 -0.692,0.691 -1.629,1.078 -2.606,1.078 -0.976,0 -1.914,-0.387 -2.605,-1.078 -0.692,-0.692 -1.082,-1.629 -1.082,-2.606 0,-0.98 0.39,-1.918 1.082,-2.609 0.691,-0.691 1.629,-1.078 2.605,-1.078 0.977,0 1.914,0.387 2.606,1.078 0.691,0.691 1.082,1.629 1.082,2.609 z"
         style="fill:#000000;fill-opacity:1;fill-rule:evenodd;stroke:none"
         id="path48" />
      <path
         d="m 87.469,134.051 c 0,0.976 -0.391,1.914 -1.082,2.605 -0.692,0.692 -1.629,1.082 -2.606,1.082 -0.976,0 -1.914,-0.39 -2.605,-1.082 -0.692,-0.691 -1.082,-1.629 -1.082,-2.605 0,-0.977 0.39,-1.914 1.082,-2.606 0.691,-0.691 1.629,-1.082 2.605,-1.082 0.977,0 1.914,0.391 2.606,1.082 0.691,0.692 1.082,1.629 1.082,2.606 z"
         style="fill:#000000;fill-opacity:1;fill-rule:evenodd;stroke:none"
         id="path50" />
    </g>
    <g
       id="g52">
      <g
         id="g54"
         clip-path="url(#clipPath58)">
        <text
           xml:space="preserve"
           transform="translate(79.055256,184.68097)"
           style="font-variant:normal;font-size:16.8px;font-family:CairoFont-1;-inkscape-font-specification:CairoFont-1-0;writing-mode:lr-tb;fill:#000000;fill-opacity:1;fill-rule:nonzero;stroke:none"
           id="text62"><tspan
             x="0"
             y="0"
             id="tspan60">3</tspan></text>
      </g>
    </g>
  </g>
</svg>
