<?xml version="1.0" encoding="UTF-8" standalone="no"?>
<!-- Created with Inkscape (http://www.inkscape.org/) -->

<svg
   version="1.1"
   id="svg2"
   width="492"
   height="246.66667"
   viewBox="0 0 492 246.66667"
   sodipodi:docname="1684q24zsrp7y.pdf"
   xmlns:inkscape="http://www.inkscape.org/namespaces/inkscape"
   xmlns:sodipodi="http://sodipodi.sourceforge.net/DTD/sodipodi-0.dtd"
   xmlns="http://www.w3.org/2000/svg"
   xmlns:svg="http://www.w3.org/2000/svg">
  <defs
     id="defs6">
    <clipPath
       clipPathUnits="userSpaceOnUse"
       id="clipPath52">
      <path
         d="m 79,172 h 9 v 12.32 h -9 z"
         id="path50" />
    </clipPath>
    <clipPath
       clipPathUnits="userSpaceOnUse"
       id="clipPath86">
      <path
         d="m 331,100 h 13.879 v 17 H 331 Z"
         id="path84" />
    </clipPath>
    <clipPath
       clipPathUnits="userSpaceOnUse"
       id="clipPath110">
      <path
         d="m 263,172 h 10 v 12.32 h -10 z"
         id="path108" />
    </clipPath>
  </defs>
  <sodipodi:namedview
     id="namedview4"
     pagecolor="#ffffff"
     bordercolor="#999999"
     borderopacity="1"
     inkscape:showpageshadow="0"
     inkscape:pageopacity="0"
     inkscape:pagecheckerboard="0"
     inkscape:deskcolor="#d1d1d1" />
  <g
     id="g8"
     inkscape:groupmode="layer"
     inkscape:label="1684q24zsrp7y"
     transform="matrix(1.3333333,0,0,1.3333333,0,9.5e-6)">
    <g
       id="g10">
      <path
         d="m 83.781,67.027 -1.113,0.743 -1.238,0.535 -1.321,0.289 -1.351,0.031 -1.332,-0.227 -1.262,-0.484 -1.144,-0.711 -0.993,-0.906 -0.804,-1.055 -0.598,-1.152 -0.379,-1.184 -0.156,-1.164 0.051,-1.082 0.234,-0.945 0.387,-0.762 0.5,-0.539 0.562,-0.289 0.582,-0.031 0.543,0.234 0.465,0.477 0.332,0.699 0.168,0.879 -0.023,1.015 -0.243,1.09 -0.46,1.11 -0.676,1.066 -0.879,0.969 -1.055,0.816 -1.195,0.621 -1.293,0.387 -1.348,0.137 -1.344,-0.129 -1.293,-0.387 -1.199,-0.625 -1.054,-0.836 -0.883,-1 -0.68,-1.121 -0.461,-1.18 -0.242,-1.179 -0.031,-1.121 0.168,-1.004 0.332,-0.84 0.461,-0.629 0.543,-0.387 0.582,-0.133 0.562,0.129 0.5,0.387 0.391,0.617 0.234,0.813 0.055,0.969 -0.156,1.066 -0.375,1.109 -0.594,1.09 -0.801,1.016 -0.992,0.883 -1.145,0.699 -1.261,0.484 L 58.73,66.52 57.379,66.492 56.059,66.207 54.82,65.672 53.703,64.914 52.75,63.973 51.988,62.891 51.438,61.727 51.109,60.539 51,59.391 l 0.094,-1.059 0.269,-0.906 0.418,-0.715 0.516,-0.488 0.574,-0.235 0.574,0.032 0.532,0.285 0.437,0.531 0.301,0.742 0.129,0.914 -0.071,1.031 -0.289,1.102 -0.507,1.105 -0.723,1.051 -0.922,0.942 -1.09,0.777 -1.219,0.57 -1.312,0.332 -1.348,0.078 -1.336,-0.183 -1.277,-0.442 -1.172,-0.675 -1.019,-0.875 -0.84,-1.032 -0.633,-1.14 -0.414,-1.184 -0.195,-1.172 0.015,-1.101 0.207,-0.973 0.363,-0.793 0.481,-0.578 0.559,-0.336 0.582,-0.074 0.554,0.187 0.477,0.438 0.359,0.664 0.199,0.851 0.008,0.993 -0.199,1.082 -0.422,1.109 -0.644,1.082 -0.844,0.988 -1.027,0.848 -1.176,0.656 -1.278,0.43 -1.339,0.18 -1.348,-0.086 -1.309,-0.34 -1.215,-0.59 -1.085,-0.801 -0.915,-0.976 -0.714,-1.106 -0.5,-1.172 -0.282,-1.183 -0.062,-1.137 0.133,-1.027 0.308,-0.871 0.442,-0.668 0.531,-0.43 0.578,-0.18 0.57,0.086 0.516,0.344 0.41,0.578 0.266,0.785 0.086,0.946 -0.117,1.05 -0.336,1.11 -0.559,1.097 -0.766,1.032 -0.961,0.906 -1.121,0.738 -1.246,0.52 -1.32,0.281 -1.352,0.019 -1.328,-0.242 -1.258,-0.496 -1.14,-0.722 -0.985,-0.915 -0.793,-1.058 -0.589,-1.156 -0.364,-1.188 -0.148,-1.16 0.059,-1.074 0.246,-0.938 0.39,-0.754 0.504,-0.527 0.567,-0.277 0.582,-0.016 0.539,0.242 0.457,0.492 0.328,0.707 0.16,0.887 -0.035,1.016 -0.25,1.094 -0.473,1.109 -0.687,1.066 -0.887,0.961 -1.063,0.809 -1.203,0.609 -1.297,0.375 -1.343,0.125 -1.344,-0.14 -1.293,-0.399 -1.191,-0.637 -1.047,-0.847 -0.875,-1.008 -0.668,-1.125 -0.453,-1.18 -0.231,-1.179 -0.019,-1.118 0.175,-0.996 0.336,-0.828 0.469,-0.621 0.547,-0.375 0.578,-0.121 0.566,0.145 0.493,0.394 0.382,0.629 0.231,0.82 0.043,0.973 -0.164,1.07 -0.387,1.11 -0.601,1.089 -0.813,1.008 -1,0.875 L 8.555,60.555 7.289,61.027 5.957,61.25 4.605,61.211 3.289,60.914 2.055,60.367 0.945,59.598 0,58.648"
         style="fill:none;stroke:#000000;stroke-width:0.9216;stroke-linecap:square;stroke-linejoin:miter;stroke-miterlimit:3.25;stroke-dasharray:none;stroke-opacity:1"
         id="path12" />
      <text
         xml:space="preserve"
         transform="translate(34.317486,90.644098)"
         style="font-variant:normal;font-size:21.12px;font-family:CairoFont-0;-inkscape-font-specification:CairoFont-0-0;writing-mode:lr-tb;fill:#000000;fill-opacity:1;fill-rule:nonzero;stroke:none"
         id="text16"><tspan
           x="0"
           y="0"
           id="tspan14">g</tspan></text>
      <path
         d="m 83.781,134.051 -0.945,0.949 -1.109,0.77 -1.235,0.546 -1.316,0.301 -1.352,0.035 -1.332,-0.222 -1.265,-0.469 -1.153,-0.691 -0.996,-0.875 -0.812,-1.012 -0.606,-1.086 -0.387,-1.109 -0.164,-1.071 0.043,-0.972 0.231,-0.825 0.383,-0.625 0.496,-0.398 0.562,-0.145 0.578,0.121 0.547,0.379 0.469,0.618 0.336,0.828 0.176,1 -0.02,1.117 -0.23,1.176 -0.453,1.183 -0.668,1.121 -0.871,1.012 -1.051,0.844 -1.192,0.637 -1.289,0.398 -1.344,0.141 -1.347,-0.122 -1.297,-0.378 -1.199,-0.61 -1.063,-0.808 -0.89,-0.961 -0.688,-1.067 -0.469,-1.105 -0.25,-1.094 -0.039,-1.02 0.16,-0.886 0.329,-0.707 0.457,-0.489 0.543,-0.246 0.578,0.016 0.566,0.281 0.504,0.528 0.391,0.75 0.246,0.937 0.058,1.074 -0.148,1.164 -0.363,1.188 -0.586,1.152 -0.797,1.059 -0.985,0.914 -1.14,0.723 -1.258,0.496 -1.328,0.242 -1.352,-0.02 -1.32,-0.277 -1.246,-0.523 -1.121,-0.735 -0.961,-0.91 -0.766,-1.031 -0.558,-1.098 -0.336,-1.105 -0.117,-1.055 0.085,-0.945 0.266,-0.782 0.41,-0.578 0.516,-0.344 0.57,-0.085 0.578,0.175 0.535,0.434 0.442,0.668 0.305,0.867 0.132,1.031 -0.062,1.133 -0.281,1.184 -0.5,1.176 -0.715,1.101 -0.914,0.977 -1.082,0.804 -1.219,0.586 -1.305,0.344 -1.351,0.082 -1.336,-0.18 -1.282,-0.429 -1.175,-0.657 -1.028,-0.847 -0.843,-0.989 -0.641,-1.078 -0.426,-1.109 -0.199,-1.082 0.008,-0.996 0.199,-0.852 0.359,-0.66 0.477,-0.441 0.555,-0.188 0.582,0.074 0.558,0.336 0.481,0.578 0.363,0.797 0.207,0.973 0.016,1.098 -0.196,1.172 -0.414,1.187 -0.633,1.137 -0.839,1.031 -1.02,0.875 -1.172,0.676 -1.277,0.441 -1.336,0.188 -1.348,-0.078 -1.308,-0.336 -1.223,-0.571 -1.09,-0.777 -0.918,-0.941 -0.726,-1.051 -0.508,-1.106 -0.285,-1.097 -0.074,-1.035 0.128,-0.915 0.301,-0.742 0.438,-0.527 0.531,-0.289 0.578,-0.027 0.57,0.234 0.516,0.484 0.418,0.715 0.27,0.91 0.093,1.055 -0.109,1.152 -0.328,1.188 -0.551,1.16 -0.762,1.082 -0.953,0.941 -1.113,0.758 -1.242,0.535 -1.321,0.289 -1.351,0.024 -1.328,-0.234 -1.262,-0.485 -1.145,-0.699 -0.992,-0.883 -0.801,-1.012 -0.593,-1.093 -0.375,-1.11 -0.157,-1.066 0.055,-0.969 0.235,-0.812 0.39,-0.618 0.5,-0.382 0.567,-0.133 0.578,0.133 0.547,0.39 0.457,0.629 0.332,0.836 0.168,1.004 -0.028,1.121 -0.242,1.18 -0.465,1.179 -0.68,1.122 -0.882,1.003 -1.055,0.832 -1.199,0.629 -1.293,0.383 -1.344,0.129 -1.344,-0.133 -1.297,-0.39 -1.195,-0.618 -1.055,-0.816 L 9.27,140.07 8.594,139 l -0.461,-1.109 -0.238,-1.09 -0.028,-1.012 0.168,-0.883 0.332,-0.695 0.465,-0.481 0.543,-0.23 0.582,0.027 0.563,0.289 0.5,0.539 0.386,0.762 0.235,0.945 0.05,1.083 -0.156,1.164 -0.379,1.187 -0.594,1.149 -0.808,1.054 -0.992,0.906 -1.145,0.711 -1.262,0.485 -1.332,0.23 L 3.672,144 2.355,143.707 1.113,143.172 0,142.43"
         style="fill:none;stroke:#000000;stroke-width:0.9216;stroke-linecap:square;stroke-linejoin:miter;stroke-miterlimit:3.25;stroke-dasharray:none;stroke-opacity:1"
         id="path18" />
      <text
         xml:space="preserve"
         transform="translate(36.901832,166.04773)"
         style="font-variant:normal;font-size:21.12px;font-family:CairoFont-0;-inkscape-font-specification:CairoFont-0-0;writing-mode:lr-tb;fill:#000000;fill-opacity:1;fill-rule:nonzero;stroke:none"
         id="text22"><tspan
           x="0"
           y="0"
           id="tspan20">g</tspan></text>
      <path
         d="m 83.781,67.027 0.946,-0.953 1.109,-0.765 1.234,-0.547 1.321,-0.301 1.347,-0.039 1.332,0.223 1.266,0.472 1.152,0.692 1,0.875 0.813,1.007 0.601,1.09 0.387,1.11 0.164,1.07 -0.043,0.973 -0.23,0.82 -0.379,0.629 -0.496,0.394 -0.563,0.145 -0.582,-0.117 -0.547,-0.379 -0.465,-0.621 -0.339,-0.828 -0.176,-0.997 0.019,-1.117 0.231,-1.179 0.453,-1.18 0.668,-1.125 0.875,-1.008 1.047,-0.844 1.191,-0.636 1.293,-0.399 1.344,-0.14 1.344,0.121 1.297,0.375 1.203,0.609 1.062,0.809 0.887,0.964 0.687,1.063 0.473,1.109 0.25,1.094 0.035,1.016 -0.16,0.886 -0.328,0.711 -0.453,0.489 -0.543,0.242 -0.582,-0.016 -0.567,-0.277 -0.5,-0.527 -0.394,-0.75 -0.242,-0.938 -0.063,-1.078 0.149,-1.16 0.367,-1.188 0.586,-1.152 0.793,-1.063 0.984,-0.914 1.141,-0.722 1.258,-0.493 1.328,-0.242 1.351,0.02 1.321,0.277 1.246,0.524 1.121,0.734 0.961,0.906 0.769,1.031 0.555,1.102 0.336,1.106 0.117,1.054 -0.086,0.942 -0.266,0.785 -0.41,0.578 -0.515,0.344 -0.571,0.086 -0.578,-0.176 -0.531,-0.434 -0.441,-0.668 -0.309,-0.871 -0.133,-1.027 0.063,-1.137 0.281,-1.184 0.5,-1.171 0.715,-1.106 0.914,-0.976 1.086,-0.801 1.215,-0.586 1.308,-0.344 1.348,-0.082 1.34,0.176 1.277,0.43 1.176,0.656 1.027,0.847 0.848,0.989 0.64,1.082 0.422,1.109 0.203,1.082 -0.011,0.992 -0.2,0.852 -0.355,0.664 -0.48,0.437 -0.555,0.188 -0.582,-0.074 -0.555,-0.332 -0.484,-0.582 -0.364,-0.793 -0.207,-0.973 -0.015,-1.101 0.195,-1.172 0.414,-1.184 0.633,-1.137 0.84,-1.035 1.019,-0.875 1.172,-0.676 1.278,-0.441 1.336,-0.184 1.351,0.079 1.309,0.332 1.218,0.574 1.09,0.777 0.922,0.938 0.723,1.05 0.508,1.106 0.289,1.101 0.07,1.036 -0.129,0.91 -0.301,0.742 -0.437,0.531 -0.531,0.289 -0.575,0.028 -0.574,-0.235 -0.516,-0.484 -0.414,-0.719 -0.273,-0.906 -0.094,-1.055 0.114,-1.152 0.328,-1.188 0.547,-1.164 0.761,-1.078 0.953,-0.945 1.118,-0.758 1.238,-0.535 1.32,-0.285 1.352,-0.028 1.332,0.239 1.258,0.48 1.148,0.703 0.988,0.879 0.805,1.016 0.594,1.09 0.371,1.109 0.156,1.07 -0.055,0.965 -0.234,0.813 -0.391,0.617 -0.5,0.387 -0.562,0.128 -0.582,-0.128 -0.543,-0.391 -0.461,-0.629 -0.332,-0.84 -0.168,-1.004 0.031,-1.121 0.242,-1.18 0.461,-1.179 0.68,-1.117 0.883,-1.004 1.058,-0.836 1.196,-0.625 1.293,-0.387 1.347,-0.129 1.344,0.137 1.293,0.387 1.195,0.621 1.055,0.816 0.879,0.969 0.68,1.066 0.457,1.11 0.242,1.093 0.023,1.012 -0.168,0.879 -0.332,0.699 -0.461,0.477 -0.546,0.234 -0.579,-0.031 -0.566,-0.289 -0.5,-0.539 -0.387,-0.762 -0.234,-0.945 -0.051,-1.078 0.16,-1.164 0.375,-1.188 0.598,-1.152 0.805,-1.055 0.992,-0.902 1.144,-0.715 1.266,-0.481 1.328,-0.23 1.352,0.031 1.32,0.293 1.238,0.531 1.113,0.746"
         style="fill:none;stroke:#000000;stroke-width:0.9216;stroke-linecap:square;stroke-linejoin:miter;stroke-miterlimit:3.25;stroke-dasharray:none;stroke-opacity:1"
         id="path24" />
      <text
         xml:space="preserve"
         transform="translate(118.0993,50.247379)"
         style="font-variant:normal;font-size:21.12px;font-family:CairoFont-0;-inkscape-font-specification:CairoFont-0-0;writing-mode:lr-tb;fill:#000000;fill-opacity:1;fill-rule:nonzero;stroke:none"
         id="text28"><tspan
           x="0"
           y="0"
           id="tspan26">g</tspan></text>
      <path
         d="m 83.781,134.051 1.114,-0.746 1.242,-0.532 1.316,-0.293 1.352,-0.031 1.332,0.231 1.261,0.484 1.149,0.711 0.992,0.906 0.805,1.055 0.594,1.148 0.378,1.188 0.157,1.164 -0.051,1.082 -0.234,0.945 -0.387,0.762 -0.5,0.535 -0.563,0.293 -0.582,0.027 -0.543,-0.23 -0.461,-0.48 -0.336,-0.7 -0.168,-0.879 0.028,-1.011 0.238,-1.09 0.461,-1.11 0.676,-1.07 0.879,-0.969 1.054,-0.816 1.196,-0.617 1.297,-0.391 1.343,-0.133 1.344,0.125 1.293,0.387 1.199,0.629 1.055,0.832 0.883,1.004 0.679,1.121 0.465,1.18 0.242,1.179 0.028,1.121 -0.164,1.004 -0.332,0.836 -0.461,0.629 -0.547,0.391 -0.578,0.133 -0.567,-0.133 -0.5,-0.383 -0.386,-0.617 -0.239,-0.817 -0.054,-0.964 0.156,-1.067 0.375,-1.109 0.594,-1.094 0.8,-1.012 0.993,-0.882 1.144,-0.704 1.262,-0.48 1.328,-0.234 1.352,0.023 1.32,0.289 1.242,0.535 1.113,0.758 0.957,0.941 0.758,1.083 0.551,1.16 0.328,1.187 0.109,1.153 -0.093,1.054 -0.27,0.91 -0.414,0.715 -0.519,0.485 -0.571,0.234 -0.578,-0.027 -0.531,-0.289 -0.438,-0.528 -0.3,-0.742 -0.129,-0.914 0.074,-1.035 0.285,-1.098 0.512,-1.105 0.722,-1.055 0.918,-0.938 1.09,-0.777 1.223,-0.57 1.309,-0.336 1.347,-0.078 1.34,0.187 1.277,0.442 1.168,0.672 1.02,0.878 0.84,1.032 0.633,1.136 0.418,1.188 0.191,1.172 -0.016,1.097 -0.203,0.973 -0.367,0.797 -0.48,0.578 -0.559,0.336 -0.578,0.074 -0.555,-0.191 -0.48,-0.438 -0.36,-0.66 -0.199,-0.851 -0.008,-0.996 0.203,-1.082 0.422,-1.11 0.641,-1.078 0.844,-0.992 1.027,-0.844 1.176,-0.656 1.281,-0.43 1.34,-0.18 1.347,0.082 1.305,0.344 1.219,0.586 1.082,0.805 0.914,0.976 0.715,1.102 0.504,1.176 0.277,1.183 0.067,1.133 -0.137,1.031 -0.305,0.868 -0.441,0.668 -0.535,0.433 -0.579,0.176 -0.57,-0.086 -0.516,-0.344 -0.41,-0.578 -0.265,-0.781 -0.086,-0.945 0.117,-1.055 0.336,-1.106 0.558,-1.097 0.77,-1.031 0.957,-0.911 1.121,-0.734 1.246,-0.523 1.321,-0.278 1.351,-0.019 1.328,0.242 1.258,0.496 1.141,0.719 0.984,0.914 0.797,1.062 0.586,1.153 0.367,1.187 0.145,1.16 -0.059,1.078 -0.242,0.938 -0.395,0.75 -0.504,0.527 -0.566,0.281 -0.578,0.016 -0.543,-0.246 -0.457,-0.488 -0.328,-0.707 -0.16,-0.887 0.039,-1.02 0.25,-1.093 0.468,-1.106 0.688,-1.066 0.891,-0.961 1.062,-0.809 1.199,-0.609 1.297,-0.379 1.348,-0.121 1.344,0.141 1.289,0.398 1.191,0.637 1.051,0.843 0.871,1.012 0.668,1.121 0.453,1.184 0.234,1.176 0.016,1.117 -0.172,1 -0.34,0.828 -0.465,0.617 -0.55,0.379 -0.579,0.117 -0.562,-0.14 -0.496,-0.399 -0.383,-0.625 -0.23,-0.824 -0.043,-0.973 0.168,-1.07 0.382,-1.109 0.606,-1.09 0.812,-1.008 0.996,-0.875 1.153,-0.691 1.265,-0.469 1.332,-0.223 1.352,0.035 1.316,0.301 1.235,0.547 1.109,0.766 0.945,0.953"
         style="fill:none;stroke:#000000;stroke-width:0.9216;stroke-linecap:square;stroke-linejoin:miter;stroke-miterlimit:3.25;stroke-dasharray:none;stroke-opacity:1"
         id="path30" />
      <text
         xml:space="preserve"
         transform="translate(120.68365,125.65102)"
         style="font-variant:normal;font-size:21.12px;font-family:CairoFont-0;-inkscape-font-specification:CairoFont-0-0;writing-mode:lr-tb;fill:#000000;fill-opacity:1;fill-rule:nonzero;stroke:none"
         id="text34"><tspan
           x="0"
           y="0"
           id="tspan32">g</tspan></text>
      <path
         d="M 83.781,134.051 83,133.094 l -0.621,-1.082 -0.434,-1.172 -0.226,-1.231 -0.012,-1.25 0.207,-1.234 0.41,-1.18 0.602,-1.093 0.765,-0.973 0.895,-0.828 0.988,-0.66 1.035,-0.485 1.043,-0.304 1,-0.125 0.914,0.046 0.797,0.192 0.633,0.316 0.453,0.414 0.246,0.477 0.032,0.496 -0.188,0.488 -0.394,0.434 -0.586,0.348 -0.75,0.23 -0.887,0.09 -0.981,-0.074 -1.031,-0.25 -1.043,-0.434 -1.008,-0.613 -0.925,-0.782 -0.805,-0.933 -0.652,-1.059 -0.469,-1.16 -0.266,-1.223 -0.051,-1.25 0.168,-1.242 0.375,-1.191 0.571,-1.109 0.738,-0.997 0.875,-0.855 0.973,-0.691 1.031,-0.516 1.043,-0.336 1.012,-0.156 0.933,0.015 0.82,0.168 0.665,0.297 0.488,0.399 0.281,0.464 0.07,0.5 -0.148,0.489 -0.356,0.445 -0.554,0.367 -0.723,0.254 -0.863,0.117 -0.969,-0.043 -1.027,-0.222 -1.043,-0.399 -1.016,-0.582 -0.945,-0.75 -0.828,-0.91 -0.684,-1.039 -0.5,-1.145 -0.305,-1.21 -0.089,-1.25 0.128,-1.247 0.34,-1.203 0.536,-1.125 0.71,-1.019 0.852,-0.883 0.961,-0.723 1.023,-0.547 1.047,-0.367 1.02,-0.187 0.949,-0.016 0.844,0.141 0.695,0.277 0.52,0.383 0.32,0.457 0.109,0.496 -0.109,0.492 -0.32,0.457 -0.52,0.383 -0.695,0.277 -0.844,0.145 -0.949,-0.016 -1.02,-0.187 -1.047,-0.367 -1.023,-0.551 -0.961,-0.723 -0.852,-0.883 -0.71,-1.015 -0.536,-1.129 -0.34,-1.203 -0.128,-1.246 0.089,-1.246 0.305,-1.215 0.5,-1.145 0.684,-1.039 0.828,-0.906 0.945,-0.754 1.016,-0.578 1.043,-0.402 1.027,-0.219 0.969,-0.043 0.863,0.113 0.723,0.254 0.554,0.367 0.356,0.445 0.148,0.493 -0.07,0.496 -0.281,0.468 -0.488,0.399 -0.665,0.297 -0.82,0.168 -0.933,0.015 -1.012,-0.156 -1.043,-0.336 -1.031,-0.515 -0.973,-0.696 -0.875,-0.851 -0.738,-0.996 -0.571,-1.114 -0.375,-1.191 -0.168,-1.238 0.051,-1.25 0.266,-1.227 0.469,-1.156 0.652,-1.063 0.805,-0.929 0.925,-0.782 1.008,-0.613 1.043,-0.433 1.031,-0.25 0.981,-0.075 0.887,0.086 0.75,0.231 0.586,0.351 0.394,0.434 0.188,0.484 -0.032,0.5 -0.246,0.473 -0.453,0.414 -0.633,0.32 -0.797,0.192 -0.914,0.043 -1,-0.125 -1.043,-0.301 -1.035,-0.484 -0.988,-0.665 -0.895,-0.828 -0.765,-0.972 -0.602,-1.09 -0.41,-1.18 -0.207,-1.234 0.012,-1.254 0.226,-1.231 0.434,-1.172 0.621,-1.078 0.781,-0.957"
         style="fill:none;stroke:#000000;stroke-width:0.9216;stroke-linecap:square;stroke-linejoin:miter;stroke-miterlimit:3.25;stroke-dasharray:none;stroke-opacity:1"
         id="path36" />
      <text
         xml:space="preserve"
         transform="translate(63.300261,108.14756)"
         style="font-variant:normal;font-size:21.12px;font-family:CairoFont-0;-inkscape-font-specification:CairoFont-0-0;writing-mode:lr-tb;fill:#000000;fill-opacity:1;fill-rule:nonzero;stroke:none"
         id="text40"><tspan
           x="0"
           y="0"
           id="tspan38">g</tspan></text>
      <path
         d="m 87.469,67.027 c 0,0.977 -0.391,1.914 -1.082,2.606 -0.692,0.691 -1.629,1.078 -2.606,1.078 -0.976,0 -1.914,-0.387 -2.605,-1.078 -0.692,-0.692 -1.082,-1.629 -1.082,-2.606 0,-0.98 0.39,-1.918 1.082,-2.609 0.691,-0.691 1.629,-1.078 2.605,-1.078 0.977,0 1.914,0.387 2.606,1.078 0.691,0.691 1.082,1.629 1.082,2.609 z"
         style="fill:#000000;fill-opacity:1;fill-rule:evenodd;stroke:none"
         id="path42" />
      <path
         d="m 87.469,134.051 c 0,0.976 -0.391,1.914 -1.082,2.605 -0.692,0.692 -1.629,1.082 -2.606,1.082 -0.976,0 -1.914,-0.39 -2.605,-1.082 -0.692,-0.691 -1.082,-1.629 -1.082,-2.605 0,-0.977 0.39,-1.914 1.082,-2.606 0.691,-0.691 1.629,-1.082 2.605,-1.082 0.977,0 1.914,0.391 2.606,1.082 0.691,0.692 1.082,1.629 1.082,2.606 z"
         style="fill:#000000;fill-opacity:1;fill-rule:evenodd;stroke:none"
         id="path44" />
    </g>
    <g
       id="g46">
      <g
         id="g48"
         clip-path="url(#clipPath52)">
        <text
           xml:space="preserve"
           transform="translate(79.055256,184.68097)"
           style="font-variant:normal;font-size:16.8px;font-family:CairoFont-1;-inkscape-font-specification:CairoFont-1-0;writing-mode:lr-tb;fill:#000000;fill-opacity:1;fill-rule:nonzero;stroke:none"
           id="text56"><tspan
             x="0"
             y="0"
             id="tspan54">3</tspan></text>
      </g>
    </g>
    <g
       id="g58">
      <path
         d="m 268.102,67.027 -1.114,0.743 -1.238,0.535 -1.32,0.289 -1.352,0.031 -1.332,-0.227 -1.262,-0.484 -1.144,-0.711 -0.992,-0.906 -0.809,-1.055 -0.594,-1.152 -0.379,-1.184 -0.156,-1.164 0.051,-1.082 0.234,-0.945 0.387,-0.762 0.5,-0.539 0.563,-0.289 0.582,-0.031 0.543,0.234 0.464,0.477 0.332,0.699 0.168,0.879 -0.023,1.015 -0.242,1.09 -0.461,1.11 -0.676,1.066 -0.879,0.969 -1.055,0.816 -1.195,0.621 -1.293,0.387 -1.348,0.137 -1.343,-0.129 -1.293,-0.387 -1.199,-0.625 -1.055,-0.836 -0.883,-1 -0.68,-1.121 -0.464,-1.18 -0.243,-1.179 -0.027,-1.121 0.168,-1.004 0.332,-0.84 0.461,-0.629 0.543,-0.387 0.578,-0.133 0.566,0.129 0.5,0.387 0.391,0.617 0.234,0.813 0.055,0.969 -0.156,1.066 -0.375,1.109 -0.594,1.09 -0.801,1.016 -0.992,0.883 -1.144,0.699 -1.262,0.484 -1.328,0.235 -1.352,-0.028 -1.32,-0.285 -1.238,-0.535 -1.118,-0.758 -0.953,-0.941 -0.761,-1.082 -0.551,-1.164 -0.328,-1.188 -0.11,-1.148 0.094,-1.059 0.27,-0.906 0.418,-0.715 0.515,-0.488 0.574,-0.235 0.575,0.032 0.531,0.285 0.437,0.531 0.301,0.742 0.129,0.914 -0.074,1.031 -0.285,1.102 -0.508,1.105 -0.727,1.051 -0.918,0.942 -1.09,0.777 -1.218,0.57 -1.313,0.332 -1.347,0.078 -1.336,-0.183 -1.278,-0.442 -1.172,-0.675 -1.019,-0.875 -0.84,-1.032 -0.633,-1.14 -0.414,-1.184 -0.195,-1.172 0.015,-1.101 0.208,-0.973 0.363,-0.793 0.48,-0.578 0.559,-0.336 0.582,-0.074 0.555,0.187 0.476,0.438 0.36,0.664 0.199,0.851 0.008,0.993 -0.2,1.082 -0.425,1.109 -0.641,1.082 -0.844,0.988 -1.027,0.848 -1.176,0.656 -1.281,0.43 -1.336,0.18 -1.348,-0.086 -1.308,-0.34 -1.219,-0.59 -1.082,-0.801 -0.914,-0.976 -0.715,-1.106 -0.5,-1.172 -0.281,-1.183 -0.063,-1.137 0.133,-1.027 0.305,-0.871 0.445,-0.668 0.531,-0.43 0.578,-0.18 0.571,0.086 0.515,0.344 0.41,0.578 0.266,0.785 0.086,0.946 -0.117,1.05 -0.336,1.11 -0.559,1.097 -0.765,1.032 -0.961,0.906 -1.121,0.738 -1.246,0.52 -1.321,0.281 -1.351,0.019 -1.328,-0.242 -1.258,-0.496 -1.141,-0.722 -0.984,-0.915 -0.797,-1.058 -0.586,-1.156 -0.363,-1.188 -0.149,-1.16 0.059,-1.074 0.246,-0.938 0.391,-0.754 0.503,-0.527 0.567,-0.277 0.578,-0.016 0.543,0.242 0.457,0.492 0.328,0.707 0.16,0.887 -0.035,1.016 -0.25,1.094 -0.473,1.109 -0.687,1.066 -0.887,0.961 -1.062,0.809 -1.203,0.609 -1.297,0.375 -1.348,0.125 -1.34,-0.14 -1.293,-0.399 -1.191,-0.637 -1.047,-0.847 -0.875,-1.008 -0.668,-1.125 -0.453,-1.18 -0.231,-1.179 -0.019,-1.118 0.176,-0.996 0.336,-0.828 0.468,-0.621 0.547,-0.375 0.578,-0.121 0.563,0.145 0.496,0.394 0.383,0.629 0.23,0.82 0.043,0.973 -0.164,1.07 -0.387,1.11 -0.605,1.089 -0.813,1.008 -0.996,0.875 -1.152,0.692 -1.266,0.472 -1.332,0.223 -1.351,-0.039 -1.317,-0.297 -1.234,-0.547 -1.109,-0.769 -0.946,-0.95"
         style="fill:none;stroke:#000000;stroke-width:0.9216;stroke-linecap:square;stroke-linejoin:miter;stroke-miterlimit:3.25;stroke-dasharray:none;stroke-opacity:1"
         id="path60" />
      <text
         xml:space="preserve"
         transform="translate(218.63749,90.644098)"
         style="font-variant:normal;font-size:21.12px;font-family:CairoFont-0;-inkscape-font-specification:CairoFont-0-0;writing-mode:lr-tb;fill:#000000;fill-opacity:1;fill-rule:nonzero;stroke:none"
         id="text64"><tspan
           x="0"
           y="0"
           id="tspan62">g</tspan></text>
      <path
         d="m 268.102,134.051 -0.946,0.949 -1.109,0.77 -1.235,0.546 -1.316,0.301 -1.351,0.035 -1.333,-0.222 -1.265,-0.469 -1.152,-0.691 -0.997,-0.875 -0.812,-1.012 -0.606,-1.086 -0.386,-1.109 -0.164,-1.071 0.043,-0.972 0.23,-0.825 0.383,-0.625 0.496,-0.398 0.563,-0.145 0.578,0.121 0.547,0.379 0.468,0.618 0.336,0.828 0.176,1 -0.02,1.117 -0.23,1.176 -0.453,1.183 -0.668,1.121 -0.875,1.012 -1.047,0.844 -1.191,0.637 -1.293,0.398 -1.34,0.141 -1.348,-0.122 -1.297,-0.378 -1.203,-0.61 -1.062,-0.808 -0.887,-0.961 -0.688,-1.067 -0.472,-1.105 -0.25,-1.094 -0.035,-1.02 0.16,-0.886 0.328,-0.707 0.457,-0.489 0.539,-0.246 0.582,0.016 0.566,0.281 0.504,0.528 0.391,0.75 0.246,0.937 0.059,1.074 -0.149,1.164 -0.363,1.188 -0.586,1.152 -0.797,1.059 -0.984,0.914 -1.141,0.723 -1.258,0.496 -1.328,0.242 -1.351,-0.02 -1.321,-0.277 -1.246,-0.523 -1.121,-0.735 -0.961,-0.91 -0.765,-1.031 -0.559,-1.098 -0.336,-1.105 -0.117,-1.055 0.086,-0.945 0.265,-0.782 0.411,-0.578 0.515,-0.344 0.571,-0.085 0.578,0.175 0.531,0.434 0.441,0.668 0.309,0.867 0.133,1.031 -0.063,1.133 -0.281,1.184 -0.5,1.176 -0.715,1.101 -0.914,0.977 -1.082,0.804 -1.219,0.586 -1.308,0.344 -1.348,0.082 -1.336,-0.18 -1.281,-0.429 -1.176,-0.657 -1.027,-0.847 -0.844,-0.989 -0.641,-1.078 -0.425,-1.109 -0.2,-1.082 0.008,-0.996 0.199,-0.852 0.36,-0.66 0.476,-0.441 0.555,-0.188 0.582,0.074 0.559,0.336 0.48,0.578 0.363,0.797 0.207,0.973 0.016,1.098 -0.195,1.172 -0.414,1.187 -0.633,1.137 -0.84,1.031 -1.02,0.875 -1.171,0.676 -1.278,0.441 -1.336,0.188 -1.347,-0.078 -1.313,-0.336 -1.219,-0.571 -1.089,-0.777 -0.918,-0.941 -0.727,-1.051 -0.508,-1.106 -0.285,-1.097 -0.074,-1.035 0.129,-0.915 0.301,-0.742 0.437,-0.527 0.531,-0.289 0.574,-0.027 0.575,0.234 0.515,0.484 0.418,0.715 0.27,0.91 0.094,1.055 -0.11,1.152 -0.328,1.188 -0.551,1.16 -0.761,1.082 -0.954,0.941 -1.117,0.758 -1.238,0.535 -1.32,0.289 -1.352,0.024 -1.328,-0.234 -1.262,-0.485 -1.144,-0.699 -0.992,-0.883 -0.801,-1.012 -0.594,-1.093 -0.375,-1.11 -0.156,-1.066 0.054,-0.969 0.235,-0.812 0.39,-0.618 0.5,-0.382 0.567,-0.133 0.578,0.133 0.543,0.39 0.461,0.629 0.332,0.836 0.168,1.004 -0.027,1.121 -0.243,1.18 -0.465,1.179 -0.679,1.122 -0.883,1.003 -1.055,0.832 -1.199,0.629 -1.293,0.383 -1.344,0.129 -1.347,-0.133 -1.293,-0.39 -1.196,-0.618 -1.054,-0.816 -0.879,-0.969 -0.676,-1.07 -0.461,-1.109 -0.242,-1.09 -0.023,-1.012 0.167,-0.883 0.333,-0.695 0.464,-0.481 0.543,-0.23 0.582,0.027 0.563,0.289 0.5,0.539 0.387,0.762 0.234,0.945 0.051,1.083 -0.157,1.164 -0.378,1.187 -0.594,1.149 -0.809,1.054 -0.992,0.906 -1.144,0.711 -1.262,0.485 -1.332,0.23 -1.352,-0.031 -1.32,-0.293 -1.238,-0.535 -1.114,-0.742"
         style="fill:none;stroke:#000000;stroke-width:0.9216;stroke-linecap:square;stroke-linejoin:miter;stroke-miterlimit:3.25;stroke-dasharray:none;stroke-opacity:1"
         id="path66" />
      <text
         xml:space="preserve"
         transform="translate(221.22183,166.04773)"
         style="font-variant:normal;font-size:21.12px;font-family:CairoFont-0;-inkscape-font-specification:CairoFont-0-0;writing-mode:lr-tb;fill:#000000;fill-opacity:1;fill-rule:nonzero;stroke:none"
         id="text70"><tspan
           x="0"
           y="0"
           id="tspan68">g</tspan></text>
      <path
         d="m 268.102,134.051 0.203,-1.274 0.418,-1.234 0.629,-1.141 0.824,-1.015 0.992,-0.852 1.129,-0.656 1.226,-0.449 1.278,-0.227 1.285,-0.012 1.246,0.2 1.164,0.379 1.035,0.535 0.875,0.648 0.684,0.727 0.48,0.75 0.266,0.73 0.051,0.664 -0.149,0.551 -0.336,0.402 -0.484,0.223 -0.602,0.02 -0.675,-0.2 -0.703,-0.418 -0.684,-0.629 -0.621,-0.824 -0.512,-0.996 -0.371,-1.129 -0.191,-1.222 0.007,-1.27 0.223,-1.273 0.438,-1.227 0.644,-1.137 0.836,-1 1.008,-0.836 1.137,-0.64 1.23,-0.43 1.281,-0.211 1.285,0.008 1.243,0.211 1.152,0.394 1.023,0.543 0.86,0.661 0.672,0.726 0.461,0.754 0.25,0.727 0.035,0.656 -0.168,0.539 -0.348,0.391 -0.496,0.207 h -0.609 l -0.68,-0.215 -0.703,-0.434 -0.684,-0.648 -0.613,-0.84 -0.5,-1.008 -0.355,-1.137 -0.176,-1.23 0.023,-1.274 0.238,-1.269 0.454,-1.219 0.664,-1.129 0.851,-0.988 1.016,-0.82 1.148,-0.625 1.239,-0.414 1.281,-0.192 1.285,0.027 1.234,0.227 1.145,0.406 1.012,0.555 0.843,0.668 0.657,0.73 0.445,0.75 0.23,0.723 0.016,0.649 -0.18,0.531 -0.363,0.375 -0.504,0.191 -0.617,-0.015 -0.684,-0.235 -0.703,-0.449 -0.68,-0.664 -0.605,-0.856 -0.492,-1.019 -0.34,-1.145 -0.16,-1.234 0.043,-1.277 0.254,-1.266 0.472,-1.215 0.676,-1.117 0.867,-0.977 1.032,-0.808 1.156,-0.606 1.242,-0.394 1.285,-0.176 1.281,0.043 1.227,0.242 1.137,0.422 0.996,0.566 0.832,0.672 0.64,0.735 0.426,0.75 0.215,0.718 v 0.641 l -0.199,0.52 -0.371,0.363 -0.52,0.172 -0.621,-0.031 -0.687,-0.25 -0.703,-0.473 -0.672,-0.68 -0.598,-0.867 -0.48,-1.031 -0.329,-1.156 -0.144,-1.239 0.058,-1.277 0.274,-1.266 0.488,-1.207 0.692,-1.105 0.882,-0.965 1.039,-0.793 1.165,-0.59 1.25,-0.375 1.285,-0.156 1.277,0.058 1.227,0.258 1.121,0.434 0.988,0.578 0.816,0.676 0.621,0.738 0.415,0.75 0.195,0.715 -0.02,0.633 -0.211,0.507 -0.386,0.348 -0.528,0.16 -0.629,-0.05 -0.691,-0.27 -0.703,-0.488 -0.668,-0.696 -0.59,-0.882 -0.469,-1.043 -0.312,-1.164 -0.129,-1.243 0.074,-1.277 0.293,-1.266 0.504,-1.199 0.711,-1.097 0.894,-0.954 1.051,-0.773 1.176,-0.574 1.25,-0.36 1.289,-0.136 1.274,0.074 1.218,0.273 1.114,0.45 0.976,0.585 0.801,0.684 0.605,0.742 0.395,0.75 0.176,0.707 -0.032,0.625 -0.23,0.496 -0.398,0.332 -0.536,0.141 -0.636,-0.066 -0.692,-0.286 -0.703,-0.507 -0.664,-0.711 -0.582,-0.899 -0.457,-1.05 -0.301,-1.172 -0.113,-1.25 0.094,-1.278 0.308,-1.258 0.524,-1.195 0.726,-1.086 0.907,-0.941 1.062,-0.758 1.184,-0.559 1.257,-0.339 1.29,-0.122 1.269,0.094 1.211,0.289 1.105,0.457 0.961,0.598 0.786,0.691 0.589,0.743 0.375,0.75 0.161,0.703 -0.047,0.613 -0.243,0.484 -0.414,0.321 -0.546,0.125 -0.641,-0.086 -0.695,-0.305 -0.7,-0.523 -0.66,-0.727 -0.574,-0.91 -0.445,-1.067 -0.285,-1.179 -0.098,-1.25 0.109,-1.278 0.328,-1.257 0.539,-1.188 0.743,-1.074 0.922,-0.926 1.074,-0.746 1.187,-0.539 1.262,-0.32 1.289,-0.106 1.27,0.11 1.203,0.304 1.093,0.473 0.95,0.605 0.773,0.696 0.57,0.746 0.36,0.746 0.14,0.699 -0.062,0.606 -0.258,0.472 -0.426,0.305 -0.554,0.105 -0.649,-0.101 -0.699,-0.321 -0.695,-0.542 -0.657,-0.743 -0.562,-0.925 -0.434,-1.075 -0.273,-1.187 -0.078,-1.254 0.125,-1.281 0.343,-1.25 0.559,-1.18 0.758,-1.066 0.933,-0.911 1.086,-0.73 1.196,-0.52 1.265,-0.304 1.289,-0.086 1.266,0.125 1.195,0.316 1.086,0.485 0.934,0.617 0.758,0.703 0.554,0.746 0.34,0.742 0.125,0.696 -0.082,0.593 -0.269,0.461 -0.438,0.289 -0.566,0.094 -0.653,-0.121 -0.699,-0.34 -0.695,-0.559 -0.649,-0.757 -0.554,-0.938 -0.422,-1.086 -0.258,-1.195 -0.062,-1.262 0.144,-1.277 0.359,-1.246 0.575,-1.172 0.773,-1.055 0.949,-0.898 1.094,-0.711 1.203,-0.504 1.27,-0.289 1.289,-0.067"
         style="fill:none;stroke:#000000;stroke-width:0.9216;stroke-linecap:square;stroke-linejoin:miter;stroke-miterlimit:3.25;stroke-dasharray:none;stroke-opacity:1"
         id="path72" />
      <text
         xml:space="preserve"
         transform="translate(313.65609,69.98771)"
         style="font-variant:normal;font-size:21.12px;font-family:CairoFont-0;-inkscape-font-specification:CairoFont-0-0;writing-mode:lr-tb;fill:#000000;fill-opacity:1;fill-rule:nonzero;stroke:none"
         id="text76"><tspan
           x="0"
           y="0"
           id="tspan74">g</tspan></text>
      <path
         d="m 268.102,67.027 1.289,0.067 1.269,0.285 1.203,0.508 1.098,0.711 0.949,0.898 0.77,1.055 0.574,1.172 0.363,1.246 0.145,1.277 -0.067,1.262 -0.254,1.191 -0.425,1.086 -0.555,0.942 -0.649,0.757 -0.695,0.559 -0.699,0.34 -0.652,0.121 -0.567,-0.094 -0.433,-0.289 -0.274,-0.461 -0.082,-0.598 0.125,-0.691 0.344,-0.742 0.555,-0.746 0.754,-0.707 0.937,-0.614 1.082,-0.484 1.195,-0.316 1.266,-0.125 1.289,0.082 1.266,0.308 1.195,0.52 1.086,0.73 0.937,0.911 0.758,1.066 0.555,1.18 0.344,1.25 0.129,1.277 -0.082,1.258 -0.27,1.187 -0.437,1.074 -0.563,0.926 -0.652,0.742 -0.7,0.54 -0.699,0.324 -0.648,0.101 -0.555,-0.109 -0.422,-0.305 -0.258,-0.469 -0.066,-0.605 0.141,-0.699 0.359,-0.746 0.574,-0.746 0.77,-0.7 0.949,-0.601 1.094,-0.473 1.203,-0.305 1.269,-0.109 1.289,0.102 1.262,0.324 1.188,0.539 1.074,0.746 0.922,0.926 0.742,1.074 0.539,1.188 0.328,1.253 0.11,1.282 -0.098,1.25 -0.285,1.179 -0.446,1.067 -0.574,0.91 -0.656,0.726 -0.703,0.524 -0.696,0.305 -0.64,0.086 -0.547,-0.125 -0.41,-0.321 -0.246,-0.484 -0.047,-0.613 0.16,-0.704 0.375,-0.75 0.59,-0.742 0.785,-0.691 0.961,-0.598 1.105,-0.457 1.211,-0.289 1.274,-0.094 1.289,0.121 1.254,0.34 1.183,0.559 1.063,0.758 0.91,0.941 0.727,1.086 0.519,1.191 0.309,1.262 0.093,1.278 -0.113,1.246 -0.297,1.171 -0.461,1.055 -0.582,0.899 -0.664,0.711 -0.699,0.503 -0.691,0.29 -0.637,0.066 -0.539,-0.141 -0.399,-0.336 -0.226,-0.496 -0.035,-0.621 0.179,-0.711 0.395,-0.746 0.601,-0.742 0.805,-0.688 0.973,-0.585 1.113,-0.446 1.219,-0.273 1.273,-0.074 1.289,0.136 1.254,0.36 1.172,0.574 1.051,0.773 0.898,0.953 0.707,1.098 0.508,1.199 0.289,1.262 0.078,1.277 -0.129,1.246 -0.316,1.165 -0.469,1.039 -0.59,0.886 -0.667,0.696 -0.704,0.488 -0.687,0.266 -0.633,0.05 -0.527,-0.156 -0.387,-0.348 -0.211,-0.507 -0.016,-0.633 0.196,-0.715 0.41,-0.75 0.621,-0.738 0.816,-0.68 0.989,-0.574 1.125,-0.434 1.222,-0.258 1.278,-0.058 1.285,0.156 1.25,0.375 1.164,0.59 1.039,0.793 0.883,0.965 0.695,1.105 0.488,1.207 0.274,1.266 0.058,1.277 -0.144,1.238 -0.328,1.157 -0.481,1.031 -0.597,0.867 -0.676,0.68 -0.703,0.472 -0.688,0.25 -0.621,0.032 -0.519,-0.172 -0.371,-0.363 -0.2,-0.52 v -0.641 l 0.215,-0.718 0.43,-0.75 0.637,-0.735 0.832,-0.672 1,-0.566 1.132,-0.422 1.231,-0.242 1.277,-0.043 1.285,0.176 1.246,0.394 1.157,0.606 1.027,0.804 0.867,0.981 0.68,1.113 0.469,1.215 0.254,1.27 0.043,1.273 -0.161,1.234 -0.339,1.149 -0.493,1.019 -0.605,0.856 -0.68,0.66 -0.703,0.453 -0.684,0.234 -0.613,0.016 -0.508,-0.191 -0.359,-0.375 -0.184,-0.532 0.016,-0.648 0.231,-0.723 0.445,-0.75 0.656,-0.73 0.848,-0.668 1.011,-0.555 1.141,-0.406 1.234,-0.231 1.286,-0.023 1.281,0.191 1.238,0.415 1.149,0.624 1.015,0.821 0.852,0.988 0.664,1.125 0.453,1.223 0.238,1.269 0.024,1.274 -0.176,1.23 -0.356,1.137 -0.5,1.008 -0.613,0.84 -0.683,0.644 -0.704,0.438 -0.679,0.214 h -0.61 l -0.496,-0.207 -0.344,-0.39 -0.167,-0.543 0.035,-0.656 0.246,-0.727 0.465,-0.75 0.668,-0.727 0.863,-0.66 1.023,-0.543 1.153,-0.394 1.238,-0.211 1.285,-0.008 1.281,0.207 1.231,0.43 1.14,0.644 1.004,0.832 0.836,1.004 0.649,1.137 0.433,1.227 0.223,1.269 0.008,1.273 -0.192,1.223 -0.367,1.129 -0.515,0.992 -0.618,0.828 -0.687,0.629 -0.703,0.418 -0.676,0.199 -0.602,-0.019 -0.484,-0.223 -0.332,-0.402 -0.152,-0.555 0.05,-0.66 0.266,-0.73 0.481,-0.754 0.687,-0.723 0.875,-0.652 1.035,-0.532 1.16,-0.382 1.246,-0.196 1.286,0.012 1.277,0.227 1.227,0.445 1.128,0.66 0.993,0.852 0.824,1.011 0.629,1.145 0.418,1.234 0.203,1.274"
         style="fill:none;stroke:#000000;stroke-width:0.9216;stroke-linecap:square;stroke-linejoin:miter;stroke-miterlimit:3.25;stroke-dasharray:none;stroke-opacity:1"
         id="path78" />
    </g>
    <g
       id="g80">
      <g
         id="g82"
         clip-path="url(#clipPath86)">
        <text
           xml:space="preserve"
           transform="translate(331.45687,111.88735)"
           style="font-variant:normal;font-size:21.12px;font-family:CairoFont-0;-inkscape-font-specification:CairoFont-0-0;writing-mode:lr-tb;fill:#000000;fill-opacity:1;fill-rule:nonzero;stroke:none"
           id="text90"><tspan
             x="0"
             y="0"
             id="tspan88">g</tspan></text>
      </g>
    </g>
    <g
       id="g92">
      <path
         d="m 268.102,134.051 -0.782,-0.957 -0.621,-1.082 -0.433,-1.172 -0.227,-1.231 -0.012,-1.25 0.203,-1.234 0.415,-1.18 0.601,-1.093 0.766,-0.973 0.894,-0.828 0.989,-0.66 1.035,-0.485 1.043,-0.304 1,-0.125 0.914,0.046 0.793,0.192 0.636,0.316 0.454,0.414 0.246,0.477 0.031,0.496 -0.188,0.488 -0.394,0.434 -0.586,0.348 -0.75,0.23 -0.887,0.09 -0.98,-0.074 -1.035,-0.25 -1.039,-0.434 -1.008,-0.613 -0.926,-0.782 -0.805,-0.933 -0.652,-1.059 -0.469,-1.16 -0.266,-1.223 -0.05,-1.25 0.168,-1.242 0.375,-1.191 0.57,-1.109 0.738,-0.997 0.875,-0.855 0.973,-0.691 1.031,-0.516 1.043,-0.336 1.012,-0.156 0.933,0.015 0.821,0.168 0.664,0.297 0.484,0.399 0.285,0.464 0.071,0.5 -0.149,0.489 -0.355,0.445 -0.555,0.367 -0.723,0.254 -0.863,0.117 -0.969,-0.043 -1.027,-0.222 -1.043,-0.399 -1.016,-0.582 -0.945,-0.75 -0.828,-0.91 -0.684,-1.039 -0.5,-1.145 -0.304,-1.21 -0.09,-1.25 0.129,-1.247 0.34,-1.203 0.535,-1.125 0.711,-1.019 0.851,-0.883 0.961,-0.723 1.024,-0.547 1.047,-0.367 1.019,-0.187 0.949,-0.016 0.844,0.141 0.695,0.277 0.52,0.383 0.32,0.457 0.11,0.496 -0.11,0.492 -0.32,0.457 -0.52,0.383 -0.695,0.277 -0.844,0.145 -0.949,-0.016 -1.019,-0.187 -1.047,-0.367 -1.024,-0.551 -0.961,-0.723 -0.851,-0.883 -0.711,-1.015 -0.535,-1.129 -0.34,-1.203 -0.129,-1.246 0.09,-1.246 0.304,-1.215 0.5,-1.145 0.684,-1.039 0.828,-0.906 0.945,-0.754 1.016,-0.578 1.043,-0.402 1.027,-0.219 0.969,-0.043 0.863,0.113 0.723,0.254 0.555,0.367 0.355,0.445 0.149,0.493 -0.071,0.496 -0.285,0.468 -0.484,0.399 -0.664,0.297 -0.821,0.168 -0.933,0.015 -1.012,-0.156 -1.043,-0.336 -1.031,-0.515 -0.973,-0.696 -0.875,-0.851 -0.738,-0.996 -0.57,-1.114 -0.375,-1.191 -0.168,-1.238 0.05,-1.25 0.266,-1.227 0.469,-1.156 0.652,-1.063 0.805,-0.929 0.926,-0.782 1.008,-0.613 1.039,-0.433 1.035,-0.25 0.98,-0.075 0.887,0.086 0.75,0.231 0.586,0.351 0.394,0.434 0.188,0.484 -0.031,0.5 -0.246,0.473 -0.454,0.414 -0.636,0.32 -0.793,0.192 -0.914,0.043 -1,-0.125 -1.043,-0.301 -1.035,-0.484 -0.989,-0.665 -0.894,-0.828 -0.766,-0.972 -0.601,-1.09 -0.415,-1.18 -0.203,-1.234 0.012,-1.254 0.227,-1.231 0.433,-1.172 0.621,-1.078 0.782,-0.957"
         style="fill:none;stroke:#000000;stroke-width:0.9216;stroke-linecap:square;stroke-linejoin:miter;stroke-miterlimit:3.25;stroke-dasharray:none;stroke-opacity:1"
         id="path94" />
      <text
         xml:space="preserve"
         transform="translate(248.45892,108.14756)"
         style="font-variant:normal;font-size:21.12px;font-family:CairoFont-0;-inkscape-font-specification:CairoFont-0-0;writing-mode:lr-tb;fill:#000000;fill-opacity:1;fill-rule:nonzero;stroke:none"
         id="text98"><tspan
           x="0"
           y="0"
           id="tspan96">g</tspan></text>
      <path
         d="m 271.789,67.027 c 0,0.977 -0.391,1.914 -1.082,2.606 -0.691,0.691 -1.629,1.078 -2.605,1.078 -0.977,0 -1.914,-0.387 -2.606,-1.078 -0.691,-0.692 -1.082,-1.629 -1.082,-2.606 0,-0.98 0.391,-1.918 1.082,-2.609 0.692,-0.691 1.629,-1.078 2.606,-1.078 0.976,0 1.914,0.387 2.605,1.078 0.691,0.691 1.082,1.629 1.082,2.609 z"
         style="fill:#000000;fill-opacity:1;fill-rule:evenodd;stroke:none"
         id="path100" />
      <path
         d="m 271.789,134.051 c 0,0.976 -0.391,1.914 -1.082,2.605 -0.691,0.692 -1.629,1.082 -2.605,1.082 -0.977,0 -1.914,-0.39 -2.606,-1.082 -0.691,-0.691 -1.082,-1.629 -1.082,-2.605 0,-0.977 0.391,-1.914 1.082,-2.606 0.692,-0.691 1.629,-1.082 2.606,-1.082 0.976,0 1.914,0.391 2.605,1.082 0.691,0.692 1.082,1.629 1.082,2.606 z"
         style="fill:#000000;fill-opacity:1;fill-rule:evenodd;stroke:none"
         id="path102" />
    </g>
    <g
       id="g104">
      <g
         id="g106"
         clip-path="url(#clipPath110)">
        <text
           xml:space="preserve"
           transform="translate(263.37526,184.68097)"
           style="font-variant:normal;font-size:16.8px;font-family:CairoFont-1;-inkscape-font-specification:CairoFont-1-0;writing-mode:lr-tb;fill:#000000;fill-opacity:1;fill-rule:nonzero;stroke:none"
           id="text114"><tspan
             x="0"
             y="0"
             id="tspan112">4</tspan></text>
      </g>
    </g>
  </g>
</svg>
