<?xml version="1.0" encoding="UTF-8" standalone="no"?>
<!-- Created with Inkscape (http://www.inkscape.org/) -->

<svg
   version="1.1"
   id="svg2"
   width="492"
   height="246.66667"
   viewBox="0 0 492 246.66667"
   sodipodi:docname="18zdhyjg2qrmr.pdf"
   xmlns:inkscape="http://www.inkscape.org/namespaces/inkscape"
   xmlns:sodipodi="http://sodipodi.sourceforge.net/DTD/sodipodi-0.dtd"
   xmlns="http://www.w3.org/2000/svg"
   xmlns:svg="http://www.w3.org/2000/svg">
  <defs
     id="defs6">
    <clipPath
       clipPathUnits="userSpaceOnUse"
       id="clipPath38">
      <path
         d="m 126,98 h 13.922 v 17 H 126 Z"
         id="path36" />
    </clipPath>
    <clipPath
       clipPathUnits="userSpaceOnUse"
       id="clipPath54">
      <path
         d="m 80,172 h 5 v 12.32 h -5 z"
         id="path52" />
    </clipPath>
    <clipPath
       clipPathUnits="userSpaceOnUse"
       id="clipPath102">
      <path
         d="m 263,172 h 10 v 12.32 h -10 z"
         id="path100" />
    </clipPath>
  </defs>
  <sodipodi:namedview
     id="namedview4"
     pagecolor="#ffffff"
     bordercolor="#999999"
     borderopacity="1"
     inkscape:showpageshadow="0"
     inkscape:pageopacity="0"
     inkscape:pagecheckerboard="0"
     inkscape:deskcolor="#d1d1d1" />
  <g
     id="g8"
     inkscape:groupmode="layer"
     inkscape:label="18zdhyjg2qrmr"
     transform="matrix(1.3333333,0,0,1.3333333,0,9.5e-6)">
    <g
       id="g10">
      <path
         d="m 83.781,100.539 -1.207,0.258 -1.242,0.066 -1.246,-0.136 -1.207,-0.34 -1.133,-0.539 -1.023,-0.723 -0.887,-0.883 -0.731,-1.012 -0.558,-1.105 -0.371,-1.164 -0.188,-1.172 -0.011,-1.148 0.156,-1.075 0.293,-0.968 0.414,-0.825 0.492,-0.66 0.543,-0.468 0.551,-0.266 0.523,-0.063 0.457,0.141 0.364,0.328 0.23,0.492 0.078,0.633 -0.094,0.735 -0.273,0.804 -0.461,0.828 -0.637,0.809 -0.808,0.75 -0.957,0.652 -1.078,0.52 -1.172,0.355 -1.231,0.176 -1.25,-0.027 -1.23,-0.231 -1.176,-0.433 -1.086,-0.629 -0.965,-0.797 -0.82,-0.949 -0.652,-1.059 -0.469,-1.137 -0.289,-1.172 -0.106,-1.167 0.071,-1.118 0.218,-1.031 0.356,-0.906 0.453,-0.75 0.519,-0.574 0.551,-0.379 0.543,-0.172 0.496,0.035 0.418,0.227 0.305,0.406 0.164,0.562 0.004,0.684 -0.176,0.769 -0.359,0.821 -0.543,0.824 -0.719,0.789 -0.879,0.707 -1.019,0.598 -1.125,0.449 -1.204,0.273 -1.242,0.082 -1.246,-0.121 -1.211,-0.324 -1.137,-0.523 -1.035,-0.711 -0.902,-0.871 -0.742,-1 -0.571,-1.102 -0.386,-1.156 -0.203,-1.176 -0.024,-1.148 0.141,-1.086 0.285,-0.977 0.402,-0.84 0.489,-0.672 0.539,-0.484 0.554,-0.281 0.528,-0.078 0.465,0.121 0.367,0.312 0.242,0.485 0.094,0.621 -0.078,0.726 -0.262,0.801 -0.442,0.824 -0.628,0.813 -0.793,0.758 -0.946,0.66 -1.07,0.535 -1.164,0.371 -1.227,0.187 -1.25,-0.011 -1.234,-0.215 -1.18,-0.418 -1.097,-0.609 -0.977,-0.79 -0.828,-0.933 -0.668,-1.051 -0.484,-1.133 -0.305,-1.172 -0.117,-1.168 0.054,-1.125 0.211,-1.039 0.34,-0.918 0.449,-0.765 0.516,-0.586 0.551,-0.395 0.543,-0.187 0.504,0.015 0.425,0.211 0.317,0.395 0.176,0.547 0.015,0.676 -0.164,0.765 -0.344,0.817 -0.527,0.828 -0.707,0.789 -0.867,0.719 -1.004,0.605 -1.117,0.461 -1.199,0.293 -1.243,0.098 -1.246,-0.106 -1.215,-0.308 -1.144,-0.508 -1.047,-0.696 -0.91,-0.859 -0.758,-0.992 -0.586,-1.094 -0.402,-1.156 -0.215,-1.176 -0.039,-1.152 0.129,-1.09 0.273,-0.988 0.395,-0.852 0.484,-0.684 0.535,-0.503 0.555,-0.297 0.531,-0.094 0.469,0.105 0.379,0.297 0.254,0.469 0.105,0.613 -0.062,0.723 -0.246,0.793 -0.43,0.824 -0.609,0.817 -0.786,0.761 -0.933,0.672 -1.059,0.543 -1.16,0.387 -1.223,0.203 -1.246,0.008 -1.238,-0.2 -1.187,-0.402 -1.106,-0.598 -0.984,-0.773 -0.844,-0.926 -0.68,-1.043 -0.504,-1.125 -0.316,-1.172 -0.133,-1.168 0.043,-1.128 0.199,-1.051 0.332,-0.926 0.438,-0.781 0.512,-0.602 0.55,-0.41 0.547,-0.207 h 0.508 l 0.434,0.199 0.324,0.379 0.187,0.539 0.028,0.664 -0.145,0.762 -0.328,0.812 -0.516,0.829 -0.691,0.793 -0.855,0.726 -0.997,0.617 -1.109,0.473 -1.191,0.305 -1.239,0.113 -1.25,-0.086 -1.218,-0.293 -1.153,-0.492 -1.054,-0.68 -0.922,-0.848 -0.77,-0.984 -0.601,-1.086 -0.414,-1.152 -0.235,-1.176 -0.051,-1.156 0.118,-1.098 0.261,-0.996 0.387,-0.863 0.477,-0.703 0.535,-0.516 0.551,-0.316 0.535,-0.11 0.476,0.094 0.387,0.281 0.266,0.457 0.117,0.602 -0.047,0.711 -0.231,0.793 -0.418,0.824 -0.593,0.816 -0.77,0.77 -0.922,0.68 -1.054,0.554 L 9.07,63.387 7.855,63.605 6.605,63.629 5.367,63.445 4.176,63.059 3.062,62.477 2.066,61.719 1.211,60.805 0.516,59.77 0,58.648"
         style="fill:none;stroke:#000000;stroke-width:0.9216;stroke-linecap:square;stroke-linejoin:miter;stroke-miterlimit:3.25;stroke-dasharray:none;stroke-opacity:1"
         id="path12" />
      <text
         xml:space="preserve"
         transform="translate(28.587936,106.09392)"
         style="font-variant:normal;font-size:21.12px;font-family:CairoFont-0;-inkscape-font-specification:CairoFont-0-0;writing-mode:lr-tb;fill:#000000;fill-opacity:1;fill-rule:nonzero;stroke:none"
         id="text16"><tspan
           x="0"
           y="0"
           id="tspan14">g</tspan></text>
      <path
         d="m 83.781,100.539 -0.515,1.121 -0.692,1.035 -0.859,0.914 -0.996,0.758 -1.11,0.582 -1.195,0.387 -1.238,0.184 -1.246,-0.024 -1.219,-0.219 -1.152,-0.398 -1.055,-0.555 -0.922,-0.679 -0.77,-0.77 -0.593,-0.816 -0.418,-0.825 -0.227,-0.793 -0.051,-0.711 0.118,-0.601 0.265,-0.457 0.387,-0.281 0.477,-0.094 0.535,0.109 0.55,0.321 0.536,0.515 0.476,0.699 0.387,0.864 0.262,0.996 0.117,1.097 -0.051,1.157 -0.234,1.175 -0.414,1.153 -0.602,1.086 -0.77,0.984 -0.921,0.848 -1.055,0.679 -1.152,0.493 -1.219,0.293 -1.25,0.086 -1.238,-0.114 -1.192,-0.304 -1.109,-0.473 -0.996,-0.617 -0.856,-0.727 -0.691,-0.793 -0.516,-0.828 -0.328,-0.812 -0.144,-0.762 0.027,-0.664 0.187,-0.539 0.325,-0.379 0.433,-0.199 h 0.508 l 0.547,0.207 0.551,0.41 0.511,0.601 0.438,0.782 0.336,0.929 0.195,1.047 0.043,1.129 -0.133,1.168 -0.316,1.172 -0.504,1.125 -0.68,1.047 -0.843,0.922 -0.985,0.773 -1.105,0.598 -1.188,0.402 -1.234,0.199 -1.25,-0.007 -1.223,-0.204 -1.156,-0.386 -1.063,-0.543 -0.933,-0.672 -0.781,-0.762 -0.614,-0.816 -0.429,-0.824 -0.247,-0.793 -0.062,-0.723 0.105,-0.613 0.254,-0.465 0.379,-0.301 0.473,-0.105 0.527,0.093 0.555,0.301 0.535,0.5 0.484,0.684 0.395,0.851 0.273,0.988 0.129,1.09 -0.039,1.153 -0.215,1.175 -0.402,1.157 -0.586,1.093 -0.758,0.993 -0.91,0.859 -1.047,0.695 -1.144,0.508 -1.215,0.309 -1.246,0.105 -1.242,-0.097 -1.196,-0.293 -1.121,-0.461 -1.004,-0.606 -0.867,-0.719 -0.707,-0.789 -0.527,-0.824 -0.344,-0.816 -0.16,-0.77 0.016,-0.672 0.175,-0.55 0.313,-0.395 0.426,-0.211 0.503,-0.016 0.547,0.188 0.547,0.394 0.516,0.586 0.449,0.766 0.344,0.918 0.207,1.039 0.055,1.125 -0.118,1.168 -0.304,1.172 -0.485,1.133 -0.664,1.05 -0.832,0.934 -0.976,0.789 -1.098,0.61 -1.18,0.417 -1.234,0.215 -1.25,0.012 -1.227,-0.187 -1.164,-0.372 -1.07,-0.531 -0.945,-0.664 -0.793,-0.758 -0.625,-0.812 -0.446,-0.824 -0.261,-0.797 -0.078,-0.731 0.093,-0.621 0.242,-0.484 0.368,-0.313 0.468,-0.121 0.528,0.078 0.551,0.282 0.539,0.484 0.488,0.672 0.402,0.84 0.285,0.976 0.141,1.086 -0.023,1.149 -0.204,1.175 -0.386,1.157 -0.571,1.101 -0.742,1.004 -0.902,0.867 -1.035,0.711 -1.137,0.524 -1.211,0.324 -1.246,0.121 -1.242,-0.082 -1.203,-0.273 -1.125,-0.45 -1.016,-0.597 -0.879,-0.707 -0.719,-0.789 -0.546,-0.825 -0.36,-0.816 -0.172,-0.774 v -0.683 l 0.164,-0.563 0.305,-0.406 0.418,-0.226 0.496,-0.036 0.543,0.176 0.551,0.375 0.523,0.574 0.453,0.75 0.352,0.907 0.223,1.031 0.066,1.121 -0.105,1.164 -0.286,1.172 -0.472,1.137 -0.653,1.062 -0.82,0.945 -0.965,0.797 -1.086,0.629 -1.175,0.434 -1.231,0.23 -1.25,0.028 -1.23,-0.172 -1.172,-0.36 -1.078,-0.519 -0.957,-0.652 -0.805,-0.75 -0.641,-0.809 -0.461,-0.828 -0.273,-0.801 -0.094,-0.738 0.078,-0.633 0.235,-0.492 0.359,-0.328 0.457,-0.141 0.523,0.063 0.551,0.265 0.543,0.469 0.496,0.66 0.41,0.824 0.293,0.969 0.157,1.074 -0.012,1.149 -0.188,1.172 -0.371,1.164 -0.554,1.105 -0.731,1.012 -0.89,0.883 -1.024,0.722 -1.133,0.539 -1.207,0.344 -1.242,0.137 -1.246,-0.07 L 0,142.43"
         style="fill:none;stroke:#000000;stroke-width:0.9216;stroke-linecap:square;stroke-linejoin:miter;stroke-miterlimit:3.25;stroke-dasharray:none;stroke-opacity:1"
         id="path18" />
      <text
         xml:space="preserve"
         transform="translate(42.631382,147.98483)"
         style="font-variant:normal;font-size:21.12px;font-family:CairoFont-0;-inkscape-font-specification:CairoFont-0-0;writing-mode:lr-tb;fill:#000000;fill-opacity:1;fill-rule:nonzero;stroke:none"
         id="text22"><tspan
           x="0"
           y="0"
           id="tspan20">g</tspan></text>
      <path
         d="m 83.781,100.539 0.516,-1.121 0.695,-1.039 0.856,-0.91 0.996,-0.762 1.113,-0.582 1.191,-0.387 1.239,-0.179 1.25,0.023 1.218,0.219 1.153,0.398 1.051,0.555 0.921,0.68 0.77,0.769 0.598,0.817 0.414,0.824 0.23,0.789 0.047,0.715 -0.117,0.601 -0.262,0.453 -0.39,0.286 -0.477,0.089 -0.535,-0.109 -0.551,-0.316 -0.535,-0.516 -0.477,-0.699 -0.386,-0.867 -0.262,-0.997 -0.117,-1.097 0.054,-1.156 0.231,-1.172 0.418,-1.153 0.597,-1.09 0.77,-0.98 0.926,-0.848 1.051,-0.679 1.156,-0.496 1.219,-0.293 1.246,-0.086 1.238,0.117 1.191,0.301 1.114,0.476 0.996,0.617 0.851,0.723 0.692,0.797 0.515,0.824 0.328,0.817 0.149,0.757 -0.031,0.668 -0.188,0.539 -0.324,0.379 -0.434,0.196 h -0.507 l -0.547,-0.207 -0.547,-0.407 -0.516,-0.605 -0.437,-0.777 -0.332,-0.93 -0.2,-1.047 -0.043,-1.129 0.137,-1.172 0.317,-1.168 0.5,-1.129 0.679,-1.043 0.844,-0.925 0.988,-0.774 1.102,-0.594 1.187,-0.402 1.239,-0.199 1.246,0.008 1.222,0.203 1.161,0.383 1.058,0.542 0.938,0.672 0.781,0.762 0.609,0.816 0.43,0.825 0.246,0.797 0.062,0.722 -0.105,0.61 -0.254,0.468 -0.375,0.297 -0.473,0.11 -0.531,-0.094 -0.554,-0.301 -0.536,-0.5 -0.48,-0.687 -0.395,-0.852 -0.277,-0.988 -0.129,-1.09 0.039,-1.152 0.219,-1.176 0.402,-1.153 0.582,-1.093 0.758,-0.996 0.914,-0.856 1.043,-0.695 1.145,-0.512 1.215,-0.308 1.25,-0.102 1.238,0.098 1.199,0.289 1.117,0.461 1.008,0.605 0.863,0.719 0.707,0.793 0.528,0.824 0.347,0.816 0.161,0.766 -0.016,0.676 -0.176,0.551 -0.316,0.39 -0.426,0.215 -0.504,0.016 -0.543,-0.188 -0.551,-0.394 -0.515,-0.59 -0.446,-0.766 -0.343,-0.918 -0.211,-1.039 -0.055,-1.121 0.121,-1.172 0.301,-1.168 0.484,-1.133 0.668,-1.05 0.832,-0.938 0.973,-0.785 1.097,-0.613 1.18,-0.418 1.235,-0.215 1.25,-0.008 1.226,0.188 1.164,0.371 1.071,0.531 0.945,0.66 0.797,0.758 0.625,0.812 0.445,0.829 0.258,0.796 0.078,0.731 -0.09,0.621 -0.246,0.48 -0.367,0.313 -0.465,0.125 -0.527,-0.078 -0.555,-0.285 -0.539,-0.485 -0.488,-0.672 -0.403,-0.839 -0.285,-0.977 -0.141,-1.082 0.024,-1.148 0.203,-1.176 0.387,-1.16 0.57,-1.098 0.742,-1.004 0.903,-0.871 1.035,-0.707 1.14,-0.527 1.211,-0.325 1.243,-0.121 1.246,0.082 1.199,0.278 1.129,0.449 1.015,0.594 0.879,0.71 0.719,0.786 0.543,0.824 0.359,0.82 0.176,0.774 -0.004,0.683 -0.164,0.559 -0.305,0.41 -0.414,0.227 -0.5,0.031 -0.543,-0.172 -0.55,-0.375 -0.52,-0.574 -0.453,-0.754 -0.352,-0.906 -0.222,-1.032 -0.071,-1.117 0.106,-1.168 0.289,-1.172 0.473,-1.136 0.648,-1.059 0.82,-0.945 0.965,-0.801 1.086,-0.625 1.176,-0.434 1.234,-0.234 1.246,-0.024 1.231,0.172 1.172,0.36 1.078,0.519 0.957,0.653 0.809,0.75 0.636,0.808 0.461,0.828 0.274,0.801 0.093,0.738 -0.078,0.629 -0.23,0.496 -0.363,0.325 -0.458,0.14 -0.523,-0.058 -0.551,-0.27 -0.543,-0.469 -0.492,-0.656 -0.41,-0.828 -0.297,-0.969 -0.152,-1.074 0.008,-1.145 0.187,-1.175 0.371,-1.161 0.559,-1.105 0.73,-1.012 0.887,-0.883 1.027,-0.722 1.129,-0.539 1.207,-0.344 1.246,-0.137 1.242,0.067 1.207,0.261"
         style="fill:none;stroke:#000000;stroke-width:0.9216;stroke-linecap:square;stroke-linejoin:miter;stroke-miterlimit:3.25;stroke-dasharray:none;stroke-opacity:1"
         id="path24" />
      <text
         xml:space="preserve"
         transform="translate(112.36975,68.310283)"
         style="font-variant:normal;font-size:21.12px;font-family:CairoFont-0;-inkscape-font-specification:CairoFont-0-0;writing-mode:lr-tb;fill:#000000;fill-opacity:1;fill-rule:nonzero;stroke:none"
         id="text28"><tspan
           x="0"
           y="0"
           id="tspan26">g</tspan></text>
      <path
         d="m 83.781,100.539 1.207,-0.262 1.246,-0.066 1.243,0.137 1.207,0.343 1.132,0.539 1.024,0.723 0.89,0.883 0.731,1.012 0.555,1.105 0.371,1.16 0.187,1.176 0.012,1.145 -0.152,1.078 -0.297,0.965 -0.41,0.828 -0.497,0.656 -0.539,0.469 -0.554,0.269 -0.524,0.059 -0.457,-0.137 -0.359,-0.328 -0.235,-0.496 -0.078,-0.629 0.094,-0.738 0.274,-0.801 0.46,-0.828 0.641,-0.809 0.809,-0.75 0.953,-0.652 1.082,-0.52 1.168,-0.359 1.23,-0.172 1.25,0.023 1.231,0.235 1.176,0.433 1.086,0.625 0.968,0.801 0.817,0.946 0.652,1.058 0.473,1.137 0.285,1.176 0.105,1.164 -0.066,1.117 -0.223,1.031 -0.351,0.906 -0.453,0.754 -0.524,0.575 -0.551,0.375 -0.543,0.171 -0.496,-0.031 -0.418,-0.226 -0.304,-0.411 -0.164,-0.558 v -0.684 l 0.175,-0.773 0.36,-0.821 0.543,-0.82 0.718,-0.789 0.879,-0.711 1.016,-0.594 1.125,-0.449 1.203,-0.273 1.242,-0.086 1.246,0.121 1.211,0.324 1.137,0.527 1.035,0.708 0.903,0.871 0.742,1.004 0.57,1.097 0.387,1.16 0.203,1.176 0.023,1.149 -0.14,1.082 -0.285,0.98 -0.403,0.836 -0.488,0.672 -0.539,0.484 -0.551,0.285 -0.527,0.079 -0.465,-0.125 -0.371,-0.313 -0.242,-0.48 -0.094,-0.622 0.078,-0.73 0.262,-0.797 0.445,-0.828 0.625,-0.812 0.793,-0.754 0.945,-0.664 1.071,-0.532 1.168,-0.371 1.222,-0.187 1.25,0.008 1.235,0.214 1.183,0.418 1.094,0.614 0.976,0.785 0.833,0.937 0.664,1.051 0.488,1.133 0.301,1.168 0.117,1.172 -0.055,1.121 -0.207,1.039 -0.344,0.918 -0.445,0.765 -0.519,0.59 -0.547,0.395 -0.547,0.187 -0.504,-0.015 -0.426,-0.215 -0.312,-0.391 -0.176,-0.551 -0.016,-0.675 0.16,-0.766 0.344,-0.816 0.527,-0.825 0.707,-0.793 0.868,-0.718 1.004,-0.606 1.121,-0.461 1.195,-0.289 1.242,-0.097 1.246,0.101 1.215,0.309 1.149,0.511 1.042,0.696 0.911,0.855 0.757,0.996 0.586,1.094 0.403,1.152 0.215,1.176 0.039,1.153 -0.129,1.089 -0.274,0.989 -0.394,0.851 -0.485,0.688 -0.535,0.5 -0.551,0.301 -0.531,0.093 -0.472,-0.109 -0.379,-0.297 -0.254,-0.469 -0.106,-0.609 0.067,-0.723 0.242,-0.797 0.43,-0.824 0.613,-0.816 0.781,-0.762 0.934,-0.668 1.062,-0.543 1.156,-0.387 1.223,-0.203 1.25,-0.008 1.234,0.2 1.188,0.402 1.105,0.598 0.989,0.769 0.843,0.926 0.676,1.043 0.504,1.129 0.317,1.168 0.132,1.172 -0.039,1.129 -0.199,1.046 -0.336,0.93 -0.437,0.777 -0.512,0.606 -0.551,0.41 -0.547,0.203 h -0.508 l -0.429,-0.195 -0.328,-0.379 -0.188,-0.539 -0.027,-0.668 0.144,-0.758 0.332,-0.816 0.512,-0.824 0.691,-0.797 0.856,-0.723 0.996,-0.617 1.109,-0.473 1.192,-0.305 1.238,-0.117 1.25,0.09 1.219,0.293 1.152,0.492 1.055,0.68 0.922,0.848 0.773,0.98 0.598,1.09 0.418,1.152 0.23,1.172 0.051,1.16 -0.113,1.094 -0.266,1 -0.387,0.863 -0.476,0.7 -0.535,0.515 -0.551,0.317 -0.535,0.113 -0.477,-0.094 -0.386,-0.281 -0.266,-0.457 -0.117,-0.602 0.05,-0.715 0.231,-0.789 0.414,-0.824 0.598,-0.816 0.765,-0.77 0.926,-0.679 1.051,-0.555 1.152,-0.399 1.219,-0.218 1.246,-0.024 1.238,0.18 1.196,0.387 1.109,0.582 1,0.761 0.855,0.914 0.692,1.036 0.515,1.121"
         style="fill:none;stroke:#000000;stroke-width:0.9216;stroke-linecap:square;stroke-linejoin:miter;stroke-miterlimit:3.25;stroke-dasharray:none;stroke-opacity:1"
         id="path30" />
    </g>
    <g
       id="g32">
      <g
         id="g34"
         clip-path="url(#clipPath38)">
        <text
           xml:space="preserve"
           transform="translate(126.4132,110.20119)"
           style="font-variant:normal;font-size:21.12px;font-family:CairoFont-0;-inkscape-font-specification:CairoFont-0-0;writing-mode:lr-tb;fill:#000000;fill-opacity:1;fill-rule:nonzero;stroke:none"
           id="text42"><tspan
             x="0"
             y="0"
             id="tspan40">g</tspan></text>
      </g>
    </g>
    <g
       id="g44">
      <path
         d="m 87.469,100.539 c 0,0.977 -0.391,1.914 -1.082,2.606 -0.692,0.691 -1.629,1.078 -2.606,1.078 -0.976,0 -1.914,-0.387 -2.605,-1.078 -0.692,-0.692 -1.082,-1.629 -1.082,-2.606 0,-0.98 0.39,-1.918 1.082,-2.609 0.691,-0.692 1.629,-1.078 2.605,-1.078 0.977,0 1.914,0.386 2.606,1.078 0.691,0.691 1.082,1.629 1.082,2.609 z"
         style="fill:#000000;fill-opacity:1;fill-rule:evenodd;stroke:none"
         id="path46" />
    </g>
    <g
       id="g48">
      <g
         id="g50"
         clip-path="url(#clipPath54)">
        <text
           xml:space="preserve"
           transform="translate(79.055256,184.68097)"
           style="font-variant:normal;font-size:16.8px;font-family:CairoFont-1;-inkscape-font-specification:CairoFont-1-0;writing-mode:lr-tb;fill:#000000;fill-opacity:1;fill-rule:nonzero;stroke:none"
           id="text58"><tspan
             x="0"
             y="0"
             id="tspan56">1</tspan></text>
      </g>
    </g>
    <g
       id="g60">
      <path
         d="m 234.59,100.539 -1.262,-0.012 -1.246,-0.222 -1.199,-0.434 -1.098,-0.641 -0.973,-0.824 -0.804,-0.984 -0.621,-1.11 -0.418,-1.199 -0.215,-1.238 -0.008,-1.238 0.184,-1.188 0.351,-1.101 0.496,-0.965 0.598,-0.809 0.66,-0.613 0.684,-0.41 0.664,-0.199 0.594,0.015 0.488,0.215 0.347,0.391 0.18,0.547 -0.015,0.656 -0.215,0.734 -0.426,0.762 -0.625,0.75 -0.813,0.683 -0.972,0.586 -1.106,0.442 -1.195,0.273 -1.25,0.078 -1.262,-0.132 -1.222,-0.344 -1.145,-0.555 -1.031,-0.75 -0.879,-0.922 -0.699,-1.062 -0.508,-1.164 -0.301,-1.227 -0.094,-1.246 0.106,-1.215 0.285,-1.14 0.437,-1.028 0.555,-0.879 0.641,-0.699 0.68,-0.496 0.679,-0.289 0.625,-0.074 0.539,0.129 0.414,0.324 0.254,0.484 0.071,0.613 -0.133,0.708 -0.336,0.753 -0.543,0.762 -0.735,0.715 -0.906,0.633 -1.055,0.508 -1.164,0.347 -1.23,0.164 -1.262,-0.043 -1.246,-0.254 -1.183,-0.468 -1.082,-0.668 -0.946,-0.852 -0.781,-1.008 -0.59,-1.125 -0.387,-1.207 -0.179,-1.242 0.019,-1.23 0.211,-1.18 0.375,-1.082 0.512,-0.945 0.609,-0.778 0.672,-0.586 0.684,-0.379 0.652,-0.164 0.582,0.047 0.469,0.242 0.324,0.418 0.152,0.567 -0.046,0.672 -0.247,0.738 -0.457,0.766 -0.656,0.738 -0.836,0.676 -0.996,0.562 -1.121,0.422 -1.207,0.242 -1.258,0.047 -1.254,-0.164 -1.215,-0.379 -1.132,-0.582 -1.008,-0.777 -0.852,-0.946 -0.676,-1.082 -0.472,-1.175 -0.27,-1.235 -0.062,-1.242 0.133,-1.207 0.308,-1.125 0.461,-1.008 0.57,-0.851 0.649,-0.672 0.683,-0.469 0.672,-0.254 0.618,-0.043 0.523,0.164 0.391,0.344 0.226,0.508 0.039,0.633 -0.16,0.714 -0.371,0.762 -0.57,0.754 -0.762,0.707 -0.934,0.617 -1.07,0.485 -1.18,0.32 -1.238,0.133 -1.262,-0.074 -1.238,-0.286 -1.172,-0.5 -1.062,-0.699 -0.922,-0.875 -0.754,-1.027 -0.559,-1.145 -0.355,-1.214 -0.152,-1.243 0.054,-1.226 0.235,-1.168 0.398,-1.063 0.531,-0.922 0.621,-0.75 0.672,-0.554 0.684,-0.344 0.644,-0.133 0.571,0.074 0.449,0.274 0.297,0.441 0.125,0.586 -0.078,0.684 -0.278,0.746 -0.488,0.765 -0.684,0.731 -0.863,0.66 -1.015,0.547 -1.137,0.391 -1.219,0.214 -1.258,0.016 -1.254,-0.195 -1.203,-0.41 -1.117,-0.614 -0.984,-0.804 -0.828,-0.969 -0.645,-1.098 -0.445,-1.191 -0.235,-1.235"
         style="fill:none;stroke:#000000;stroke-width:0.9216;stroke-linecap:square;stroke-linejoin:miter;stroke-miterlimit:3.25;stroke-dasharray:none;stroke-opacity:1"
         id="path62" />
      <text
         xml:space="preserve"
         transform="translate(193.64562,104.45499)"
         style="font-variant:normal;font-size:21.12px;font-family:CairoFont-0;-inkscape-font-specification:CairoFont-0-0;writing-mode:lr-tb;fill:#000000;fill-opacity:1;fill-rule:nonzero;stroke:none"
         id="text66"><tspan
           x="0"
           y="0"
           id="tspan64">g</tspan></text>
      <path
         d="m 234.59,100.539 -0.238,1.234 -0.442,1.192 -0.644,1.097 -0.828,0.969 -0.989,0.805 -1.113,0.613 -1.203,0.41 -1.254,0.196 -1.258,-0.012 -1.219,-0.215 -1.136,-0.394 -1.016,-0.547 -0.863,-0.66 -0.684,-0.731 -0.488,-0.766 -0.281,-0.746 -0.075,-0.683 0.121,-0.586 0.301,-0.442 0.449,-0.269 0.567,-0.078 0.648,0.133 0.68,0.343 0.676,0.555 0.621,0.75 0.527,0.922 0.399,1.062 0.238,1.168 0.051,1.227 -0.149,1.246 -0.355,1.215 -0.559,1.141 -0.754,1.027 -0.922,0.875 -1.066,0.699 -1.172,0.5 -1.234,0.285 -1.262,0.074 -1.242,-0.132 -1.176,-0.321 -1.07,-0.484 -0.934,-0.617 -0.762,-0.707 -0.574,-0.754 -0.367,-0.762 -0.16,-0.715 0.039,-0.633 0.227,-0.503 0.39,-0.348 0.52,-0.164 0.621,0.043 0.672,0.254 0.679,0.468 0.649,0.672 0.574,0.852 0.457,1.008 0.313,1.125 0.128,1.207 -0.062,1.242 -0.266,1.234 -0.476,1.176 -0.672,1.082 -0.852,0.945 -1.011,0.778 -1.129,0.586 -1.215,0.375 -1.258,0.164 -1.254,-0.047 -1.207,-0.242 -1.121,-0.422 -0.996,-0.563 -0.836,-0.672 -0.656,-0.742 -0.457,-0.761 -0.25,-0.743 -0.043,-0.672 0.152,-0.566 0.32,-0.418 0.473,-0.242 0.582,-0.047 0.652,0.164 0.684,0.379 0.668,0.586 0.613,0.777 0.508,0.946 0.379,1.082 0.211,1.179 0.019,1.231 -0.179,1.242 -0.387,1.207 -0.59,1.129 -0.781,1.004 -0.945,0.851 -1.086,0.672 -1.184,0.465 -1.242,0.254 -1.262,0.043 -1.234,-0.164 -1.16,-0.348 -1.055,-0.508 -0.906,-0.628 -0.739,-0.719 -0.539,-0.758 -0.339,-0.758 -0.129,-0.707 0.07,-0.613 0.254,-0.485 0.41,-0.32 0.539,-0.133 0.629,0.075 0.676,0.289 0.679,0.496 0.641,0.699 0.559,0.879 0.437,1.027 0.285,1.145 0.102,1.215 -0.094,1.242 -0.297,1.226 -0.508,1.168 -0.699,1.059 -0.879,0.922 -1.031,0.75 -1.144,0.554 -1.227,0.344 -1.258,0.133 -1.25,-0.078 -1.199,-0.274 -1.102,-0.441 -0.976,-0.586 -0.809,-0.684 -0.625,-0.746 -0.426,-0.765 -0.218,-0.731 -0.012,-0.66 0.176,-0.543 0.347,-0.394 0.493,-0.215 0.593,-0.016 0.661,0.199 0.687,0.411 0.66,0.617 0.598,0.804 0.492,0.965 0.355,1.102 0.18,1.187 -0.008,1.239 -0.211,1.238 -0.418,1.199 -0.621,1.109 -0.808,0.985 -0.969,0.824 -1.102,0.641 -1.195,0.437 -1.25,0.219 -1.258,0.012"
         style="fill:none;stroke:#000000;stroke-width:0.9216;stroke-linecap:square;stroke-linejoin:miter;stroke-miterlimit:3.25;stroke-dasharray:none;stroke-opacity:1"
         id="path68" />
      <text
         xml:space="preserve"
         transform="translate(212.70097,146.3459)"
         style="font-variant:normal;font-size:21.12px;font-family:CairoFont-0;-inkscape-font-specification:CairoFont-0-0;writing-mode:lr-tb;fill:#000000;fill-opacity:1;fill-rule:nonzero;stroke:none"
         id="text72"><tspan
           x="0"
           y="0"
           id="tspan70">g</tspan></text>
      <path
         d="m 301.613,100.539 0.239,-1.238 0.441,-1.188 0.645,-1.097 0.828,-0.969 0.988,-0.805 1.113,-0.617 1.203,-0.41 1.254,-0.195 1.258,0.015 1.219,0.215 1.137,0.395 1.015,0.543 0.863,0.66 0.684,0.734 0.488,0.762 0.282,0.746 0.074,0.687 -0.121,0.582 -0.301,0.446 -0.449,0.269 -0.567,0.078 -0.648,-0.132 -0.68,-0.348 -0.676,-0.555 -0.621,-0.75 -0.527,-0.922 -0.399,-1.062 -0.238,-1.164 -0.051,-1.231 0.149,-1.242 0.355,-1.215 0.563,-1.14 0.75,-1.028 0.922,-0.879 1.066,-0.699 1.172,-0.496 1.238,-0.289 1.258,-0.074 1.242,0.133 1.176,0.324 1.07,0.484 0.934,0.613 0.762,0.708 0.574,0.757 0.367,0.758 0.16,0.719 -0.039,0.629 -0.226,0.508 -0.391,0.347 -0.52,0.16 -0.617,-0.043 -0.672,-0.253 -0.683,-0.469 -0.649,-0.668 -0.574,-0.852 -0.457,-1.008 -0.308,-1.128 -0.133,-1.207 0.062,-1.243 0.266,-1.23 0.476,-1.18 0.672,-1.078 0.856,-0.945 1.008,-0.778 1.128,-0.586 1.215,-0.378 1.258,-0.165 1.254,0.047 1.207,0.246 1.121,0.418 0.996,0.567 0.84,0.672 0.652,0.742 0.457,0.762 0.25,0.742 0.043,0.672 -0.148,0.562 -0.324,0.418 -0.473,0.246 -0.582,0.043 -0.652,-0.164 -0.684,-0.379 -0.668,-0.586 -0.609,-0.777 -0.512,-0.945 -0.379,-1.079 -0.207,-1.179 -0.023,-1.235 0.179,-1.242 0.387,-1.207 0.594,-1.125 0.777,-1.008 0.946,-0.851 1.085,-0.668 1.184,-0.469 1.242,-0.254 1.262,-0.039 1.234,0.16 1.164,0.348 1.051,0.508 0.91,0.633 0.735,0.718 0.539,0.758 0.34,0.758 0.128,0.703 -0.07,0.617 -0.254,0.485 -0.41,0.32 -0.539,0.133 -0.629,-0.074 -0.676,-0.29 -0.679,-0.5 -0.641,-0.699 -0.559,-0.879 -0.437,-1.027 -0.285,-1.141 -0.102,-1.214 0.094,-1.243 0.297,-1.23 0.508,-1.164 0.703,-1.063 0.879,-0.922 1.027,-0.75 1.145,-0.55 1.226,-0.348 1.258,-0.129 1.25,0.074 1.199,0.274 1.102,0.445 0.976,0.582 0.809,0.688 0.625,0.746 0.426,0.761 0.218,0.735 0.012,0.66 -0.176,0.543 -0.347,0.394 -0.492,0.215 -0.594,0.012 -0.66,-0.195 -0.684,-0.41 -0.664,-0.618 -0.598,-0.804 -0.492,-0.969 -0.351,-1.098 -0.184,-1.191 0.008,-1.235 0.211,-1.242 0.418,-1.195 0.621,-1.109 0.808,-0.989 0.969,-0.824 1.102,-0.641 1.195,-0.433 1.25,-0.223 1.258,-0.008"
         style="fill:none;stroke:#000000;stroke-width:0.9216;stroke-linecap:square;stroke-linejoin:miter;stroke-miterlimit:3.25;stroke-dasharray:none;stroke-opacity:1"
         id="path74" />
      <text
         xml:space="preserve"
         transform="translate(310.94016,69.949215)"
         style="font-variant:normal;font-size:21.12px;font-family:CairoFont-0;-inkscape-font-specification:CairoFont-0-0;writing-mode:lr-tb;fill:#000000;fill-opacity:1;fill-rule:nonzero;stroke:none"
         id="text78"><tspan
           x="0"
           y="0"
           id="tspan76">g</tspan></text>
      <path
         d="m 301.613,100.539 1.262,0.008 1.25,0.223 1.195,0.433 1.102,0.641 0.969,0.824 0.804,0.988 0.621,1.11 0.418,1.195 0.215,1.242 0.008,1.238 -0.184,1.188 -0.351,1.098 -0.492,0.968 -0.598,0.805 -0.664,0.617 -0.684,0.41 -0.66,0.196 -0.597,-0.012 -0.489,-0.215 -0.347,-0.394 -0.18,-0.543 0.016,-0.661 0.214,-0.734 0.426,-0.762 0.625,-0.746 0.813,-0.687 0.972,-0.582 1.106,-0.446 1.195,-0.273 1.25,-0.074 1.262,0.129 1.222,0.347 1.145,0.555 1.031,0.746 0.879,0.922 0.703,1.062 0.504,1.168 0.301,1.227 0.094,1.242 -0.106,1.215 -0.281,1.141 -0.437,1.031 -0.559,0.875 -0.641,0.699 -0.679,0.5 -0.676,0.289 -0.629,0.074 -0.539,-0.132 -0.414,-0.321 -0.254,-0.484 -0.066,-0.613 0.128,-0.707 0.336,-0.758 0.543,-0.758 0.735,-0.719 0.906,-0.633 1.055,-0.507 1.164,-0.348 1.23,-0.16 1.262,0.039 1.246,0.258 1.184,0.465 1.082,0.667 0.945,0.852 0.781,1.008 0.59,1.129 0.387,1.203 0.183,1.242 -0.023,1.234 -0.211,1.18 -0.375,1.078 -0.512,0.946 -0.609,0.777 -0.668,0.586 -0.684,0.379 -0.656,0.164 -0.582,-0.043 -0.469,-0.246 -0.324,-0.418 -0.148,-0.563 0.043,-0.672 0.25,-0.742 0.453,-0.761 0.656,-0.743 0.836,-0.672 0.996,-0.566 1.121,-0.418 1.211,-0.246 1.254,-0.047 1.254,0.164 1.215,0.379 1.132,0.586 1.008,0.777 0.852,0.946 0.676,1.078 0.472,1.179 0.27,1.231 0.062,1.242 -0.133,1.207 -0.308,1.129 -0.457,1.008 -0.574,0.851 -0.649,0.668 -0.683,0.469 -0.672,0.258 -0.617,0.039 -0.524,-0.16 -0.39,-0.348 -0.227,-0.508 -0.039,-0.629 0.16,-0.718 0.371,-0.758 0.57,-0.758 0.766,-0.707 0.93,-0.613 1.074,-0.485 1.176,-0.324 1.238,-0.133 1.262,0.075 1.238,0.289 1.172,0.496 1.062,0.699 0.922,0.879 0.754,1.027 0.559,1.141 0.359,1.215 0.149,1.242 -0.055,1.23 -0.234,1.164 -0.399,1.063 -0.531,0.922 -0.621,0.75 -0.672,0.554 -0.684,0.348 -0.644,0.133 -0.567,-0.078 -0.453,-0.27 -0.297,-0.445 -0.121,-0.582 0.074,-0.688 0.282,-0.746 0.484,-0.761 0.684,-0.735 0.863,-0.66 1.019,-0.543 1.137,-0.394 1.215,-0.215 1.258,-0.016 1.254,0.195 1.207,0.411 1.113,0.617 0.984,0.805 0.829,0.968 0.644,1.098 0.445,1.187 0.235,1.239"
         style="fill:none;stroke:#000000;stroke-width:0.9216;stroke-linecap:square;stroke-linejoin:miter;stroke-miterlimit:3.25;stroke-dasharray:none;stroke-opacity:1"
         id="path80" />
      <text
         xml:space="preserve"
         transform="translate(329.99552,111.84013)"
         style="font-variant:normal;font-size:21.12px;font-family:CairoFont-0;-inkscape-font-specification:CairoFont-0-0;writing-mode:lr-tb;fill:#000000;fill-opacity:1;fill-rule:nonzero;stroke:none"
         id="text84"><tspan
           x="0"
           y="0"
           id="tspan82">g</tspan></text>
      <path
         d="m 301.613,100.539 -0.957,0.781 -1.078,0.621 -1.176,0.43 -1.23,0.231 -1.25,0.011 -1.234,-0.207 -1.18,-0.41 -1.094,-0.601 -0.973,-0.766 -0.824,-0.895 -0.664,-0.988 -0.484,-1.035 -0.301,-1.043 -0.125,-1 0.043,-0.914 0.191,-0.797 0.321,-0.633 0.414,-0.453 0.472,-0.246 0.5,-0.031 0.485,0.187 0.433,0.395 0.348,0.582 0.234,0.754 0.086,0.886 -0.074,0.981 -0.25,1.031 -0.434,1.043 -0.613,1.008 -0.781,0.926 -0.934,0.804 -1.058,0.653 -1.16,0.468 -1.223,0.266 -1.25,0.051 -1.238,-0.168 -1.196,-0.375 -1.109,-0.57 -0.996,-0.739 -0.852,-0.875 -0.695,-0.972 -0.516,-1.032 -0.336,-1.043 -0.156,-1.011 0.016,-0.934 0.168,-0.82 0.297,-0.664 0.398,-0.488 0.469,-0.282 0.496,-0.07 0.488,0.148 0.449,0.356 0.364,0.555 0.258,0.722 0.113,0.863 -0.043,0.969 -0.219,1.028 -0.402,1.043 -0.578,1.015 -0.754,0.945 -0.907,0.829 -1.042,0.683 -1.141,0.5 -1.215,0.305 -1.25,0.09 -1.242,-0.129 -1.203,-0.34 -1.129,-0.535 -1.02,-0.711 -0.879,-0.852 -0.722,-0.961 -0.551,-1.023 -0.367,-1.047 -0.188,-1.019 -0.015,-0.95 0.144,-0.843 0.278,-0.696 0.382,-0.519 0.457,-0.321 0.493,-0.109 0.496,0.109 0.457,0.321 0.383,0.519 0.273,0.696 0.144,0.843 -0.015,0.95 -0.188,1.019 -0.367,1.047 -0.551,1.023 -0.722,0.961 -0.879,0.852 -1.02,0.711 -1.125,0.535 -1.207,0.34 -1.242,0.129 -1.25,-0.09 -1.215,-0.305 -1.14,-0.5 -1.043,-0.683 -0.907,-0.829 -0.75,-0.945 -0.582,-1.015 -0.402,-1.043 -0.219,-1.028 -0.043,-0.969 0.114,-0.863 0.257,-0.722 0.368,-0.555 0.445,-0.356 0.488,-0.148 0.5,0.07 0.465,0.282 0.398,0.488 0.297,0.664 0.168,0.82 0.016,0.934 -0.156,1.011 -0.336,1.043 -0.516,1.032 -0.691,0.972 -0.856,0.875 -0.996,0.739 -1.109,0.57 -1.196,0.375 -1.238,0.168 -1.25,-0.051 -1.222,-0.266 -1.161,-0.468 -1.058,-0.653 -0.934,-0.804 -0.781,-0.926 -0.613,-1.008 -0.434,-1.043 -0.25,-1.031 -0.074,-0.981 0.086,-0.886 0.234,-0.754 0.348,-0.582 0.433,-0.395 0.485,-0.187 0.5,0.031 0.476,0.246 0.41,0.453 0.321,0.633 0.191,0.797 0.043,0.914 -0.121,1 -0.305,1.043 -0.484,1.035 -0.664,0.988 -0.824,0.895 -0.973,0.766 -1.094,0.601 -1.179,0.41 -1.235,0.207 -1.25,-0.011 -1.23,-0.231 -1.172,-0.43 -1.082,-0.621 -0.957,-0.781"
         style="fill:none;stroke:#000000;stroke-width:0.9216;stroke-linecap:square;stroke-linejoin:miter;stroke-miterlimit:3.25;stroke-dasharray:none;stroke-opacity:1"
         id="path86" />
      <text
         xml:space="preserve"
         transform="translate(261.82057,128.41036)"
         style="font-variant:normal;font-size:21.12px;font-family:CairoFont-0;-inkscape-font-specification:CairoFont-0-0;writing-mode:lr-tb;fill:#000000;fill-opacity:1;fill-rule:nonzero;stroke:none"
         id="text90"><tspan
           x="0"
           y="0"
           id="tspan88">g</tspan></text>
      <path
         d="m 238.277,100.539 c 0,0.977 -0.39,1.914 -1.082,2.606 -0.691,0.691 -1.629,1.078 -2.605,1.078 -0.977,0 -1.918,-0.387 -2.61,-1.078 -0.687,-0.692 -1.078,-1.629 -1.078,-2.606 0,-0.98 0.391,-1.918 1.078,-2.609 0.692,-0.692 1.633,-1.078 2.61,-1.078 0.976,0 1.914,0.386 2.605,1.078 0.692,0.691 1.082,1.629 1.082,2.609 z"
         style="fill:#000000;fill-opacity:1;fill-rule:evenodd;stroke:none"
         id="path92" />
      <path
         d="m 305.301,100.539 c 0,0.977 -0.387,1.914 -1.078,2.606 -0.692,0.691 -1.629,1.078 -2.61,1.078 -0.976,0 -1.914,-0.387 -2.605,-1.078 -0.692,-0.692 -1.078,-1.629 -1.078,-2.606 0,-0.98 0.386,-1.918 1.078,-2.609 0.691,-0.692 1.629,-1.078 2.605,-1.078 0.981,0 1.918,0.386 2.61,1.078 0.691,0.691 1.078,1.629 1.078,2.609 z"
         style="fill:#000000;fill-opacity:1;fill-rule:evenodd;stroke:none"
         id="path94" />
    </g>
    <g
       id="g96">
      <g
         id="g98"
         clip-path="url(#clipPath102)">
        <text
           xml:space="preserve"
           transform="translate(263.37526,184.68097)"
           style="font-variant:normal;font-size:16.8px;font-family:CairoFont-1;-inkscape-font-specification:CairoFont-1-0;writing-mode:lr-tb;fill:#000000;fill-opacity:1;fill-rule:nonzero;stroke:none"
           id="text106"><tspan
             x="0"
             y="0"
             id="tspan104">2</tspan></text>
      </g>
    </g>
  </g>
</svg>
