<?xml version="1.0" encoding="UTF-8" standalone="no"?>
<!-- Created with Inkscape (http://www.inkscape.org/) -->

<svg
   version="1.1"
   id="svg2"
   width="492"
   height="246.66667"
   viewBox="0 0 492 246.66667"
   sodipodi:docname="1mxk9tunkc9hh.pdf"
   xmlns:inkscape="http://www.inkscape.org/namespaces/inkscape"
   xmlns:sodipodi="http://sodipodi.sourceforge.net/DTD/sodipodi-0.dtd"
   xmlns="http://www.w3.org/2000/svg"
   xmlns:svg="http://www.w3.org/2000/svg">
  <defs
     id="defs6">
    <clipPath
       clipPathUnits="userSpaceOnUse"
       id="clipPath48">
      <path
         d="m 77,117 h 13.961 v 17 H 77 Z"
         id="path46" />
    </clipPath>
    <clipPath
       clipPathUnits="userSpaceOnUse"
       id="clipPath66">
      <path
         d="m 80,172 h 5 v 12.32 h -5 z"
         id="path64" />
    </clipPath>
    <clipPath
       clipPathUnits="userSpaceOnUse"
       id="clipPath98">
      <path
         d="m 302,39 h 13.84 V 55 H 302 Z"
         id="path96" />
    </clipPath>
    <clipPath
       clipPathUnits="userSpaceOnUse"
       id="clipPath130">
      <path
         d="m 263,172 h 10 v 12.32 h -10 z"
         id="path128" />
    </clipPath>
  </defs>
  <sodipodi:namedview
     id="namedview4"
     pagecolor="#ffffff"
     bordercolor="#999999"
     borderopacity="1"
     inkscape:showpageshadow="0"
     inkscape:pageopacity="0"
     inkscape:pagecheckerboard="0"
     inkscape:deskcolor="#d1d1d1" />
  <g
     id="g8"
     inkscape:groupmode="layer"
     inkscape:label="1mxk9tunkc9hh"
     transform="matrix(1.3333333,0,0,1.3333333,0,9.5e-6)">
    <g
       id="g10">
      <path
         d="m 0,58.648 50.27,41.891"
         style="fill:none;stroke:#000000;stroke-width:0.9216;stroke-linecap:square;stroke-linejoin:miter;stroke-miterlimit:3.25;stroke-dasharray:none;stroke-opacity:1"
         id="path12" />
      <path
         d="m 28.996,82.812 -9.867,-3.863 4.289,-5.148 z"
         style="fill:#000000;fill-opacity:1;fill-rule:evenodd;stroke:none"
         id="path14" />
      <text
         xml:space="preserve"
         transform="translate(9.40765,104.45499)"
         style="font-variant:normal;font-size:21.12px;font-family:CairoFont-0;-inkscape-font-specification:CairoFont-0-0;writing-mode:lr-tb;fill:#000000;fill-opacity:1;fill-rule:nonzero;stroke:none"
         id="text18"><tspan
           x="0"
           y="0"
           id="tspan16">u</tspan></text>
      <path
         d="M 0,142.43 50.27,100.539"
         style="fill:none;stroke:#000000;stroke-width:0.9216;stroke-linecap:square;stroke-linejoin:miter;stroke-miterlimit:3.25;stroke-dasharray:none;stroke-opacity:1"
         id="path20" />
      <path
         d="m 21.273,124.703 9.868,-3.863 -4.289,-5.149 z"
         style="fill:#000000;fill-opacity:1;fill-rule:evenodd;stroke:none"
         id="path22" />
      <text
         xml:space="preserve"
         transform="translate(28.380972,146.3459)"
         style="font-variant:normal;font-size:21.12px;font-family:CairoFont-0;-inkscape-font-specification:CairoFont-0-0;writing-mode:lr-tb;fill:#000000;fill-opacity:1;fill-rule:nonzero;stroke:none"
         id="text26"><tspan
           x="0"
           y="0"
           id="tspan24">u</tspan></text>
      <path
         d="m 117.293,100.539 0.238,-1.238 0.446,-1.188 0.64,-1.097 0.828,-0.969 0.989,-0.805 1.113,-0.617 1.203,-0.41 1.254,-0.195 1.258,0.015 1.218,0.215 1.137,0.395 1.016,0.543 0.863,0.66 0.684,0.734 0.488,0.762 0.281,0.746 0.074,0.687 -0.121,0.582 -0.3,0.446 -0.45,0.269 -0.566,0.078 -0.645,-0.132 -0.683,-0.348 -0.676,-0.555 -0.621,-0.75 -0.527,-0.922 -0.399,-1.062 -0.238,-1.164 -0.051,-1.231 0.149,-1.242 0.355,-1.215 0.562,-1.14 0.75,-1.028 0.922,-0.879 1.067,-0.699 1.172,-0.496 1.238,-0.289 1.258,-0.074 1.242,0.133 1.176,0.324 1.074,0.484 0.93,0.613 0.761,0.708 0.575,0.757 0.367,0.758 0.16,0.719 -0.039,0.629 -0.227,0.508 -0.39,0.347 -0.52,0.16 -0.617,-0.043 -0.672,-0.253 -0.684,-0.469 -0.648,-0.668 -0.574,-0.852 -0.457,-1.008 -0.309,-1.128 -0.133,-1.207 0.063,-1.243 0.265,-1.23 0.477,-1.18 0.672,-1.078 0.855,-0.945 1.008,-0.778 1.129,-0.586 1.215,-0.378 1.258,-0.165 1.254,0.047 1.207,0.246 1.121,0.418 0.996,0.567 0.84,0.672 0.652,0.742 0.457,0.762 0.25,0.742 0.043,0.672 -0.148,0.562 -0.325,0.418 -0.472,0.246 -0.582,0.043 -0.653,-0.164 -0.683,-0.379 -0.668,-0.586 -0.61,-0.777 -0.511,-0.945 -0.375,-1.079 -0.211,-1.179 -0.024,-1.235 0.18,-1.242 0.391,-1.207 0.59,-1.125 0.777,-1.008 0.949,-0.851 1.082,-0.668 1.184,-0.469 1.242,-0.254 1.262,-0.039 1.234,0.16 1.164,0.348 1.051,0.508 0.91,0.633 0.734,0.718 0.539,0.758 0.34,0.758 0.129,0.703 -0.07,0.617 -0.254,0.485 -0.41,0.32 -0.539,0.133 -0.629,-0.074 -0.676,-0.29 -0.68,-0.5 -0.64,-0.699 -0.559,-0.879 -0.437,-1.027 -0.286,-1.141 -0.101,-1.214 0.094,-1.243 0.3,-1.23 0.504,-1.164 0.703,-1.063 0.879,-0.922 1.028,-0.75 1.148,-0.55 1.223,-0.348 1.258,-0.129 1.25,0.074 1.199,0.274 1.105,0.445 0.973,0.582 0.809,0.688 0.628,0.746 0.422,0.761 0.219,0.735 0.012,0.66 -0.176,0.543 -0.348,0.394 -0.492,0.215 -0.594,0.012 -0.66,-0.195 -0.683,-0.41 -0.664,-0.618 -0.598,-0.804 -0.492,-0.969 -0.352,-1.098 -0.183,-1.191 0.007,-1.235 0.211,-1.242 0.422,-1.195 0.617,-1.109 0.809,-0.989 0.969,-0.824 1.101,-0.641 1.196,-0.433 1.25,-0.223 1.257,-0.008"
         style="fill:none;stroke:#000000;stroke-width:0.9216;stroke-linecap:square;stroke-linejoin:miter;stroke-miterlimit:3.25;stroke-dasharray:none;stroke-opacity:1"
         id="path28" />
      <text
         xml:space="preserve"
         transform="translate(126.62016,69.949215)"
         style="font-variant:normal;font-size:21.12px;font-family:CairoFont-0;-inkscape-font-specification:CairoFont-0-0;writing-mode:lr-tb;fill:#000000;fill-opacity:1;fill-rule:nonzero;stroke:none"
         id="text32"><tspan
           x="0"
           y="0"
           id="tspan30">g</tspan></text>
      <path
         d="m 117.293,100.539 1.262,0.008 1.25,0.223 1.195,0.433 1.102,0.641 0.968,0.824 0.805,0.988 0.621,1.11 0.418,1.195 0.215,1.242 0.008,1.238 -0.184,1.188 -0.351,1.098 -0.493,0.968 -0.597,0.805 -0.664,0.617 -0.684,0.41 -0.66,0.196 -0.598,-0.012 -0.488,-0.215 -0.348,-0.394 -0.179,-0.543 0.015,-0.661 0.215,-0.734 0.426,-0.762 0.625,-0.746 0.812,-0.687 0.973,-0.582 1.105,-0.446 1.196,-0.273 1.254,-0.074 1.258,0.129 1.222,0.347 1.149,0.555 1.027,0.746 0.879,0.922 0.703,1.062 0.504,1.168 0.301,1.227 0.093,1.242 -0.105,1.215 -0.281,1.141 -0.438,1.031 -0.558,0.875 -0.641,0.699 -0.68,0.5 -0.675,0.289 -0.629,0.074 -0.539,-0.132 -0.414,-0.321 -0.254,-0.484 -0.067,-0.613 0.129,-0.707 0.336,-0.758 0.543,-0.758 0.734,-0.719 0.911,-0.633 1.05,-0.507 1.164,-0.348 1.231,-0.16 1.262,0.039 1.246,0.258 1.183,0.465 1.082,0.667 0.946,0.852 0.781,1.008 0.59,1.129 0.386,1.203 0.184,1.242 -0.023,1.234 -0.211,1.18 -0.375,1.078 -0.512,0.946 -0.609,0.777 -0.668,0.586 -0.684,0.379 -0.656,0.164 -0.582,-0.043 -0.469,-0.246 -0.324,-0.418 -0.149,-0.563 0.043,-0.672 0.25,-0.742 0.453,-0.761 0.657,-0.743 0.836,-0.672 0.996,-0.566 1.121,-0.418 1.211,-0.246 1.254,-0.047 1.254,0.164 1.214,0.379 1.133,0.586 1.008,0.777 0.852,0.946 0.675,1.078 0.473,1.179 0.269,1.231 0.063,1.242 -0.133,1.207 -0.308,1.129 -0.457,1.008 -0.575,0.851 -0.648,0.668 -0.684,0.469 -0.672,0.258 -0.617,0.039 -0.523,-0.16 -0.391,-0.348 -0.226,-0.508 -0.039,-0.629 0.16,-0.718 0.371,-0.758 0.57,-0.758 0.766,-0.707 0.929,-0.613 1.075,-0.485 1.175,-0.324 1.239,-0.133 1.261,0.075 1.239,0.289 1.172,0.496 1.062,0.699 0.926,0.879 0.75,1.027 0.558,1.141 0.36,1.215 0.148,1.242 -0.051,1.23 -0.238,1.164 -0.398,1.063 -0.531,0.922 -0.622,0.75 -0.671,0.554 -0.684,0.348 -0.645,0.133 -0.566,-0.078 -0.453,-0.27 -0.297,-0.445 -0.121,-0.582 0.074,-0.688 0.281,-0.746 0.485,-0.761 0.683,-0.735 0.864,-0.66 1.019,-0.543 1.137,-0.394 1.219,-0.215 1.257,-0.016 1.25,0.195 1.207,0.411 1.114,0.617 0.988,0.805 0.824,0.968 0.645,1.098 0.445,1.187 0.234,1.239"
         style="fill:none;stroke:#000000;stroke-width:0.9216;stroke-linecap:square;stroke-linejoin:miter;stroke-miterlimit:3.25;stroke-dasharray:none;stroke-opacity:1"
         id="path34" />
      <text
         xml:space="preserve"
         transform="translate(145.67552,111.84013)"
         style="font-variant:normal;font-size:21.12px;font-family:CairoFont-0;-inkscape-font-specification:CairoFont-0-0;writing-mode:lr-tb;fill:#000000;fill-opacity:1;fill-rule:nonzero;stroke:none"
         id="text38"><tspan
           x="0"
           y="0"
           id="tspan36">g</tspan></text>
      <path
         d="m 117.293,100.539 -0.957,0.781 -1.078,0.621 -1.172,0.43 -1.231,0.231 -1.253,0.011 -1.235,-0.207 -1.179,-0.41 -1.094,-0.601 -0.969,-0.766 -0.828,-0.895 -0.664,-0.988 -0.485,-1.035 -0.3,-1.043 -0.125,-1 0.043,-0.914 0.191,-0.797 0.32,-0.633 0.414,-0.453 0.473,-0.246 0.5,-0.031 0.484,0.187 0.434,0.395 0.348,0.582 0.234,0.754 0.086,0.886 -0.074,0.981 -0.25,1.031 -0.434,1.043 -0.613,1.008 -0.781,0.926 -0.93,0.804 -1.063,0.653 -1.16,0.468 -1.222,0.266 -1.25,0.051 -1.239,-0.168 -1.195,-0.375 -1.109,-0.57 -0.996,-0.739 -0.852,-0.875 -0.695,-0.972 -0.516,-1.032 -0.336,-1.043 -0.156,-1.011 0.016,-0.934 0.167,-0.82 0.297,-0.664 0.399,-0.488 0.469,-0.282 0.496,-0.07 0.488,0.148 0.449,0.356 0.367,0.555 0.254,0.722 0.114,0.863 -0.043,0.969 -0.219,1.028 -0.403,1.043 -0.578,1.015 -0.754,0.945 -0.906,0.829 -1.039,0.683 -1.144,0.5 -1.215,0.305 -1.246,0.09 -1.246,-0.129 -1.204,-0.34 -1.128,-0.535 -1.02,-0.711 -0.879,-0.852 -0.723,-0.961 -0.55,-1.023 -0.368,-1.047 -0.187,-1.019 -0.016,-0.95 0.145,-0.843 0.277,-0.696 0.383,-0.519 0.457,-0.321 0.492,-0.109 0.496,0.109 0.457,0.321 0.383,0.519 0.278,0.696 0.14,0.843 -0.015,0.95 -0.188,1.019 -0.367,1.047 -0.551,1.023 -0.723,0.961 -0.879,0.852 -1.019,0.711 -1.125,0.535 -1.207,0.34 -1.242,0.129 -1.25,-0.09 -1.215,-0.305 -1.141,-0.5 -1.039,-0.683 -0.91,-0.829 -0.75,-0.945 -0.582,-1.015 -0.402,-1.043 -0.219,-1.028 -0.043,-0.969 0.117,-0.863 0.254,-0.722 0.367,-0.555 0.446,-0.356 0.488,-0.148 0.5,0.07 0.465,0.282 0.398,0.488 0.297,0.664 0.168,0.82 0.016,0.934 -0.157,1.011 -0.336,1.043 -0.515,1.032 -0.692,0.972 -0.855,0.875 -0.996,0.739 -1.11,0.57 -1.195,0.375 -1.238,0.168 -1.25,-0.051 -1.223,-0.266 -1.16,-0.468 -1.059,-0.653 -0.933,-0.804 -0.781,-0.926 -0.614,-1.008 -0.433,-1.043 -0.25,-1.031 -0.075,-0.981 0.09,-0.886 0.231,-0.754 0.347,-0.582 0.434,-0.395 0.488,-0.187 0.496,0.031 0.477,0.246 0.41,0.453 0.32,0.633 0.192,0.797 0.043,0.914 -0.121,1 -0.305,1.043 -0.484,1.035 -0.664,0.988 -0.825,0.895 -0.972,0.766 -1.094,0.601 -1.18,0.41 -1.234,0.207 -1.25,-0.011 -1.231,-0.231 -1.171,-0.43 -1.082,-0.621 -0.957,-0.781"
         style="fill:none;stroke:#000000;stroke-width:0.9216;stroke-linecap:square;stroke-linejoin:miter;stroke-miterlimit:3.25;stroke-dasharray:none;stroke-opacity:1"
         id="path40" />
    </g>
    <g
       id="g42">
      <g
         id="g44"
         clip-path="url(#clipPath48)">
        <text
           xml:space="preserve"
           transform="translate(77.500568,128.41036)"
           style="font-variant:normal;font-size:21.12px;font-family:CairoFont-0;-inkscape-font-specification:CairoFont-0-0;writing-mode:lr-tb;fill:#000000;fill-opacity:1;fill-rule:nonzero;stroke:none"
           id="text52"><tspan
             x="0"
             y="0"
             id="tspan50">g</tspan></text>
      </g>
    </g>
    <g
       id="g54">
      <path
         d="m 53.957,100.539 c 0,0.977 -0.391,1.914 -1.082,2.606 -0.691,0.691 -1.629,1.078 -2.605,1.078 -0.977,0 -1.915,-0.387 -2.606,-1.078 -0.691,-0.692 -1.082,-1.629 -1.082,-2.606 0,-0.98 0.391,-1.918 1.082,-2.609 0.691,-0.692 1.629,-1.078 2.606,-1.078 0.976,0 1.914,0.386 2.605,1.078 0.691,0.691 1.082,1.629 1.082,2.609 z"
         style="fill:#000000;fill-opacity:1;fill-rule:evenodd;stroke:none"
         id="path56" />
      <path
         d="m 120.98,100.539 c 0,0.977 -0.386,1.914 -1.078,2.606 -0.691,0.691 -1.629,1.078 -2.609,1.078 -0.977,0 -1.914,-0.387 -2.605,-1.078 -0.692,-0.692 -1.079,-1.629 -1.079,-2.606 0,-0.98 0.387,-1.918 1.079,-2.609 0.691,-0.692 1.628,-1.078 2.605,-1.078 0.98,0 1.918,0.386 2.609,1.078 0.692,0.691 1.078,1.629 1.078,2.609 z"
         style="fill:#000000;fill-opacity:1;fill-rule:evenodd;stroke:none"
         id="path58" />
    </g>
    <g
       id="g60">
      <g
         id="g62"
         clip-path="url(#clipPath66)">
        <text
           xml:space="preserve"
           transform="translate(79.055256,184.68097)"
           style="font-variant:normal;font-size:16.8px;font-family:CairoFont-1;-inkscape-font-specification:CairoFont-1-0;writing-mode:lr-tb;fill:#000000;fill-opacity:1;fill-rule:nonzero;stroke:none"
           id="text70"><tspan
             x="0"
             y="0"
             id="tspan68">1</tspan></text>
      </g>
    </g>
    <g
       id="g72">
      <path
         d="m 184.32,58.648 83.782,8.379"
         style="fill:none;stroke:#000000;stroke-width:0.9216;stroke-linecap:square;stroke-linejoin:miter;stroke-miterlimit:3.25;stroke-dasharray:none;stroke-opacity:1"
         id="path74" />
      <path
         d="M 231.211,63.336 220.875,65.672 221.543,59 Z"
         style="fill:#000000;fill-opacity:1;fill-rule:evenodd;stroke:none"
         id="path76" />
      <text
         xml:space="preserve"
         transform="translate(218.6785,90.644098)"
         style="font-variant:normal;font-size:21.12px;font-family:CairoFont-0;-inkscape-font-specification:CairoFont-0-0;writing-mode:lr-tb;fill:#000000;fill-opacity:1;fill-rule:nonzero;stroke:none"
         id="text80"><tspan
           x="0"
           y="0"
           id="tspan78">u</tspan></text>
      <path
         d="m 184.32,142.43 83.782,-8.379"
         style="fill:none;stroke:#000000;stroke-width:0.9216;stroke-linecap:square;stroke-linejoin:miter;stroke-miterlimit:3.25;stroke-dasharray:none;stroke-opacity:1"
         id="path82" />
      <path
         d="m 221.207,138.738 10.34,2.336 -0.668,-6.668 z"
         style="fill:#000000;fill-opacity:1;fill-rule:evenodd;stroke:none"
         id="path84" />
      <text
         xml:space="preserve"
         transform="translate(221.26285,166.04773)"
         style="font-variant:normal;font-size:21.12px;font-family:CairoFont-0;-inkscape-font-specification:CairoFont-0-0;writing-mode:lr-tb;fill:#000000;fill-opacity:1;fill-rule:nonzero;stroke:none"
         id="text88"><tspan
           x="0"
           y="0"
           id="tspan86">u</tspan></text>
      <path
         d="m 268.102,67.027 0.945,-0.953 1.109,-0.765 1.235,-0.547 1.316,-0.301 1.352,-0.039 1.332,0.223 1.265,0.472 1.153,0.692 1,0.875 0.812,1.007 0.602,1.09 0.386,1.11 0.164,1.07 -0.043,0.973 -0.23,0.82 -0.379,0.629 -0.496,0.394 -0.563,0.145 -0.582,-0.117 -0.546,-0.379 -0.465,-0.621 -0.34,-0.828 -0.176,-0.997 0.02,-1.117 0.23,-1.179 0.453,-1.18 0.668,-1.125 0.875,-1.008 1.047,-0.844 1.192,-0.636 1.292,-0.399 1.344,-0.14 1.344,0.121 1.297,0.375 1.203,0.609 1.062,0.809 0.887,0.964 0.688,1.063 0.472,1.109 0.25,1.094 0.035,1.016 -0.16,0.886 -0.328,0.711 -0.457,0.489 -0.539,0.242 -0.582,-0.016 -0.566,-0.277 -0.504,-0.527 -0.391,-0.75 -0.242,-0.938 -0.063,-1.078 0.149,-1.16 0.367,-1.188 0.586,-1.152 0.793,-1.063 0.984,-0.914 1.141,-0.722 1.258,-0.493 1.328,-0.242 1.352,0.02 1.32,0.277 1.246,0.524 1.121,0.734 0.961,0.906 0.766,1.031 0.558,1.102 0.336,1.106 0.117,1.054 -0.086,0.942 -0.265,0.785 -0.41,0.578 -0.516,0.344 -0.57,0.086 -0.578,-0.176 -0.532,-0.434 -0.441,-0.668 -0.309,-0.871 -0.133,-1.027 0.063,-1.137 0.281,-1.184 0.5,-1.171 0.715,-1.106 0.914,-0.976 1.086,-0.801 1.215,-0.586 1.308,-0.344 1.348,-0.082 1.34,0.176 1.277,0.43 1.176,0.656 1.027,0.847 0.848,0.989 0.641,1.082 0.422,1.109 0.203,1.082 -0.012,0.992 -0.199,0.852 -0.356,0.664 -0.48,0.437 -0.555,0.188 -0.582,-0.074 -0.555,-0.332 -0.484,-0.582 -0.363,-0.793 -0.207,-0.973 -0.016,-1.101 0.195,-1.172 0.415,-1.184 0.632,-1.137 0.84,-1.035 1.02,-0.875 1.172,-0.676 1.277,-0.441 1.336,-0.184 1.351,0.079 1.309,0.332 1.219,0.574 1.09,0.777 0.921,0.938 0.723,1.05 0.508,1.106 0.289,1.101 0.07,1.036 -0.129,0.91 -0.3,0.742 -0.438,0.531 -0.531,0.289 -0.574,0.028 -0.575,-0.235 -0.515,-0.484 -0.418,-0.719 -0.27,-0.906 -0.093,-1.055 0.109,-1.152 0.328,-1.188 0.551,-1.164 0.762,-1.078 0.953,-0.945 1.117,-0.758 1.238,-0.535 1.32,-0.285 1.352,-0.028 1.332,0.239 1.258,0.48 1.148,0.703 0.989,0.879 0.8,1.016 0.598,1.09 0.371,1.109 0.156,1.07 -0.054,0.965 -0.235,0.813 -0.39,0.617 -0.5,0.387 -0.563,0.128 -0.582,-0.128 -0.543,-0.391 -0.461,-0.629 -0.332,-0.84 -0.168,-1.004 0.032,-1.121 0.242,-1.18 0.461,-1.179 0.679,-1.117 0.883,-1.004 1.055,-0.836 1.199,-0.625 1.293,-0.387 1.348,-0.129 1.343,0.137 1.293,0.387 1.196,0.621 1.054,0.816 0.879,0.969 0.676,1.066 0.461,1.11 0.242,1.093 0.024,1.012 -0.168,0.879 -0.332,0.699 -0.461,0.477 -0.547,0.234 -0.582,-0.031 -0.563,-0.289 -0.5,-0.539 -0.386,-0.762 -0.235,-0.945 -0.051,-1.078 0.157,-1.164 0.379,-1.188 0.597,-1.152 0.805,-1.055 0.992,-0.902 1.145,-0.715 1.261,-0.481 1.332,-0.23 1.352,0.031 1.32,0.293 1.239,0.531 1.113,0.746"
         style="fill:none;stroke:#000000;stroke-width:0.9216;stroke-linecap:square;stroke-linejoin:miter;stroke-miterlimit:3.25;stroke-dasharray:none;stroke-opacity:1"
         id="path90" />
    </g>
    <g
       id="g92">
      <g
         id="g94"
         clip-path="url(#clipPath98)">
        <text
           xml:space="preserve"
           transform="translate(302.4193,50.247379)"
           style="font-variant:normal;font-size:21.12px;font-family:CairoFont-0;-inkscape-font-specification:CairoFont-0-0;writing-mode:lr-tb;fill:#000000;fill-opacity:1;fill-rule:nonzero;stroke:none"
           id="text102"><tspan
             x="0"
             y="0"
             id="tspan100">g</tspan></text>
      </g>
    </g>
    <g
       id="g104">
      <path
         d="m 268.102,134.051 1.113,-0.746 1.242,-0.532 1.316,-0.293 1.352,-0.031 1.332,0.231 1.262,0.484 1.148,0.711 0.992,0.906 0.805,1.055 0.594,1.148 0.379,1.188 0.156,1.164 -0.051,1.082 -0.234,0.945 -0.387,0.762 -0.5,0.535 -0.562,0.293 -0.582,0.027 -0.543,-0.23 -0.461,-0.48 -0.336,-0.7 -0.168,-0.879 0.027,-1.011 0.238,-1.09 0.461,-1.11 0.676,-1.07 0.879,-0.969 1.055,-0.816 1.195,-0.617 1.297,-0.391 1.344,-0.133 1.343,0.125 1.293,0.387 1.2,0.629 1.054,0.832 0.883,1.004 0.68,1.121 0.465,1.18 0.242,1.179 0.027,1.121 -0.168,1.004 -0.332,0.836 -0.457,0.629 -0.547,0.391 -0.578,0.133 -0.566,-0.133 -0.5,-0.383 -0.387,-0.617 -0.238,-0.817 -0.055,-0.964 0.156,-1.067 0.375,-1.109 0.594,-1.094 0.801,-1.012 0.992,-0.882 1.144,-0.704 1.262,-0.48 1.328,-0.234 1.352,0.023 1.32,0.289 1.242,0.535 1.114,0.758 0.953,0.941 0.762,1.083 0.55,1.16 0.328,1.187 0.11,1.153 -0.094,1.054 -0.269,0.91 -0.418,0.715 -0.516,0.485 -0.57,0.234 -0.578,-0.027 -0.532,-0.289 -0.437,-0.528 -0.301,-0.742 -0.129,-0.914 0.074,-1.035 0.285,-1.098 0.512,-1.105 0.723,-1.055 0.918,-0.938 1.09,-0.777 1.222,-0.57 1.309,-0.336 1.348,-0.078 1.339,0.187 1.274,0.442 1.172,0.672 1.019,0.878 0.84,1.032 0.633,1.136 0.414,1.188 0.195,1.172 -0.015,1.097 -0.203,0.973 -0.368,0.797 -0.48,0.578 -0.559,0.336 -0.578,0.074 -0.558,-0.191 -0.477,-0.438 -0.359,-0.66 -0.2,-0.851 -0.007,-0.996 0.199,-1.082 0.426,-1.11 0.64,-1.078 0.844,-0.992 1.027,-0.844 1.176,-0.656 1.281,-0.43 1.336,-0.18 1.352,0.082 1.305,0.344 1.218,0.586 1.082,0.805 0.914,0.976 0.715,1.102 0.5,1.176 0.281,1.183 0.063,1.133 -0.133,1.031 -0.305,0.868 -0.441,0.668 -0.535,0.433 -0.578,0.176 -0.571,-0.086 -0.515,-0.344 -0.41,-0.578 -0.266,-0.781 -0.086,-0.945 0.117,-1.055 0.336,-1.106 0.559,-1.097 0.769,-1.031 0.957,-0.911 1.121,-0.734 1.247,-0.523 1.32,-0.278 1.351,-0.019 1.329,0.242 1.257,0.496 1.141,0.719 0.984,0.914 0.797,1.062 0.586,1.153 0.363,1.187 0.149,1.16 -0.059,1.078 -0.242,0.938 -0.394,0.75 -0.504,0.527 -0.567,0.281 -0.578,0.016 -0.543,-0.246 -0.457,-0.488 -0.328,-0.707 -0.16,-0.887 0.039,-1.02 0.25,-1.093 0.469,-1.106 0.687,-1.066 0.891,-0.961 1.062,-0.809 1.2,-0.609 1.296,-0.379 1.348,-0.121 1.344,0.141 1.289,0.398 1.191,0.637 1.051,0.843 0.871,1.012 0.668,1.121 0.453,1.184 0.235,1.176 0.015,1.117 -0.172,1 -0.339,0.828 -0.465,0.617 -0.551,0.379 -0.578,0.117 -0.563,-0.14 -0.496,-0.399 -0.383,-0.625 -0.23,-0.824 -0.043,-0.973 0.168,-1.07 0.383,-1.109 0.605,-1.09 0.813,-1.008 0.996,-0.875 1.152,-0.691 1.266,-0.469 1.332,-0.223 1.351,0.035 1.317,0.301 1.234,0.547 1.11,0.766 0.945,0.953"
         style="fill:none;stroke:#000000;stroke-width:0.9216;stroke-linecap:square;stroke-linejoin:miter;stroke-miterlimit:3.25;stroke-dasharray:none;stroke-opacity:1"
         id="path106" />
      <text
         xml:space="preserve"
         transform="translate(305.00365,125.65102)"
         style="font-variant:normal;font-size:21.12px;font-family:CairoFont-0;-inkscape-font-specification:CairoFont-0-0;writing-mode:lr-tb;fill:#000000;fill-opacity:1;fill-rule:nonzero;stroke:none"
         id="text110"><tspan
           x="0"
           y="0"
           id="tspan108">g</tspan></text>
      <path
         d="m 268.102,67.027 v 67.024"
         style="fill:none;stroke:#000000;stroke-width:0.9216;stroke-linecap:square;stroke-linejoin:miter;stroke-miterlimit:3.25;stroke-dasharray:none;stroke-opacity:1"
         id="path112" />
      <path
         d="M 268.102,105.566 264.75,95.512 h 6.703 z"
         style="fill:#000000;fill-opacity:1;fill-rule:evenodd;stroke:none"
         id="path114" />
      <text
         xml:space="preserve"
         transform="translate(247.70229,108.14756)"
         style="font-variant:normal;font-size:21.12px;font-family:CairoFont-0;-inkscape-font-specification:CairoFont-0-0;writing-mode:lr-tb;fill:#000000;fill-opacity:1;fill-rule:nonzero;stroke:none"
         id="text118"><tspan
           x="0"
           y="0"
           id="tspan116">u</tspan></text>
      <path
         d="m 271.789,67.027 c 0,0.977 -0.391,1.914 -1.082,2.606 -0.691,0.691 -1.629,1.078 -2.605,1.078 -0.977,0 -1.914,-0.387 -2.606,-1.078 -0.691,-0.692 -1.082,-1.629 -1.082,-2.606 0,-0.98 0.391,-1.918 1.082,-2.609 0.692,-0.691 1.629,-1.078 2.606,-1.078 0.976,0 1.914,0.387 2.605,1.078 0.691,0.691 1.082,1.629 1.082,2.609 z"
         style="fill:#000000;fill-opacity:1;fill-rule:evenodd;stroke:none"
         id="path120" />
      <path
         d="m 271.789,134.051 c 0,0.976 -0.391,1.914 -1.082,2.605 -0.691,0.692 -1.629,1.082 -2.605,1.082 -0.977,0 -1.914,-0.39 -2.606,-1.082 -0.691,-0.691 -1.082,-1.629 -1.082,-2.605 0,-0.977 0.391,-1.914 1.082,-2.606 0.692,-0.691 1.629,-1.082 2.606,-1.082 0.976,0 1.914,0.391 2.605,1.082 0.691,0.692 1.082,1.629 1.082,2.606 z"
         style="fill:#000000;fill-opacity:1;fill-rule:evenodd;stroke:none"
         id="path122" />
    </g>
    <g
       id="g124">
      <g
         id="g126"
         clip-path="url(#clipPath130)">
        <text
           xml:space="preserve"
           transform="translate(263.37526,184.68097)"
           style="font-variant:normal;font-size:16.8px;font-family:CairoFont-1;-inkscape-font-specification:CairoFont-1-0;writing-mode:lr-tb;fill:#000000;fill-opacity:1;fill-rule:nonzero;stroke:none"
           id="text134"><tspan
             x="0"
             y="0"
             id="tspan132">2</tspan></text>
      </g>
    </g>
  </g>
</svg>
