<?xml version="1.0" encoding="UTF-8" standalone="no"?>
<!-- Created with Inkscape (http://www.inkscape.org/) -->

<svg
   version="1.1"
   id="svg2"
   width="246.66667"
   height="246.66667"
   viewBox="0 0 246.66667 246.66667"
   sodipodi:docname="1pwrygnu6erz8.pdf"
   xmlns:inkscape="http://www.inkscape.org/namespaces/inkscape"
   xmlns:sodipodi="http://sodipodi.sourceforge.net/DTD/sodipodi-0.dtd"
   xmlns="http://www.w3.org/2000/svg"
   xmlns:svg="http://www.w3.org/2000/svg">
  <defs
     id="defs6">
    <clipPath
       clipPathUnits="userSpaceOnUse"
       id="clipPath68">
      <path
         d="m 80,172 h 5 v 12.32 h -5 z"
         id="path66" />
    </clipPath>
  </defs>
  <sodipodi:namedview
     id="namedview4"
     pagecolor="#ffffff"
     bordercolor="#999999"
     borderopacity="1"
     inkscape:showpageshadow="0"
     inkscape:pageopacity="0"
     inkscape:pagecheckerboard="0"
     inkscape:deskcolor="#d1d1d1" />
  <g
     id="g8"
     inkscape:groupmode="layer"
     inkscape:label="1pwrygnu6erz8"
     transform="matrix(1.3333333,0,0,1.3333333,0,9.5e-6)">
    <g
       id="g10">
      <path
         d="m 0,58.648 83.781,8.379"
         style="fill:none;stroke:#000000;stroke-width:0.9216;stroke-linecap:square;stroke-linejoin:miter;stroke-miterlimit:3.25;stroke-dasharray:none;stroke-opacity:1"
         id="path12" />
      <path
         d="M 46.895,63.336 36.555,65.672 37.223,59 Z"
         style="fill:#000000;fill-opacity:1;fill-rule:evenodd;stroke:none"
         id="path14" />
      <text
         xml:space="preserve"
         transform="translate(34.358501,90.644098)"
         style="font-variant:normal;font-size:21.12px;font-family:CairoFont-0;-inkscape-font-specification:CairoFont-0-0;writing-mode:lr-tb;fill:#000000;fill-opacity:1;fill-rule:nonzero;stroke:none"
         id="text18"><tspan
           x="0"
           y="0"
           id="tspan16">u</tspan></text>
      <path
         d="m 0,142.43 83.781,-8.379"
         style="fill:none;stroke:#000000;stroke-width:0.9216;stroke-linecap:butt;stroke-linejoin:miter;stroke-miterlimit:3.25;stroke-dasharray:0.9216, 5.5296;stroke-dashoffset:0;stroke-opacity:1"
         id="path20" />
      <path
         d="m 36.891,138.738 10.336,2.336 -0.668,-6.668 z"
         style="fill:#000000;fill-opacity:1;fill-rule:evenodd;stroke:none"
         id="path22" />
      <text
         xml:space="preserve"
         transform="translate(32.678864,158.07508)"
         style="font-variant:normal;font-size:21.12px;font-family:CairoFont-0;-inkscape-font-specification:CairoFont-0-0;writing-mode:lr-tb;fill:#000000;fill-opacity:1;fill-rule:nonzero;stroke:none"
         id="text26"><tspan
           x="0"
           y="0"
           id="tspan24">u</tspan></text>
      <text
         xml:space="preserve"
         transform="translate(44.350739,161.995)"
         style="font-variant:normal;font-size:14.88px;font-family:CairoFont-0;-inkscape-font-specification:CairoFont-0-0;writing-mode:lr-tb;fill:#000000;fill-opacity:1;fill-rule:nonzero;stroke:none"
         id="text30"><tspan
           x="0"
           y="0"
           id="tspan28">g</tspan></text>
      <path
         d="M 167.562,58.648 83.781,67.027"
         style="fill:none;stroke:#000000;stroke-width:0.9216;stroke-linecap:square;stroke-linejoin:miter;stroke-miterlimit:3.25;stroke-dasharray:none;stroke-opacity:1"
         id="path32" />
      <path
         d="M 130.676,62.336 120.336,60 l 0.668,6.672 z"
         style="fill:#000000;fill-opacity:1;fill-rule:evenodd;stroke:none"
         id="path34" />
      <text
         xml:space="preserve"
         transform="translate(118.14032,50.247379)"
         style="font-variant:normal;font-size:21.12px;font-family:CairoFont-0;-inkscape-font-specification:CairoFont-0-0;writing-mode:lr-tb;fill:#000000;fill-opacity:1;fill-rule:nonzero;stroke:none"
         id="text38"><tspan
           x="0"
           y="0"
           id="tspan36">u</tspan></text>
      <path
         d="M 167.562,142.43 83.781,134.051"
         style="fill:none;stroke:#000000;stroke-width:0.9216;stroke-linecap:butt;stroke-linejoin:miter;stroke-miterlimit:3.25;stroke-dasharray:0.9216, 5.5296;stroke-dashoffset:0;stroke-opacity:1"
         id="path40" />
      <path
         d="m 120.672,137.738 10.336,-2.332 -0.668,6.668 z"
         style="fill:#000000;fill-opacity:1;fill-rule:evenodd;stroke:none"
         id="path42" />
      <text
         xml:space="preserve"
         transform="translate(116.46068,122.14906)"
         style="font-variant:normal;font-size:21.12px;font-family:CairoFont-0;-inkscape-font-specification:CairoFont-0-0;writing-mode:lr-tb;fill:#000000;fill-opacity:1;fill-rule:nonzero;stroke:none"
         id="text46"><tspan
           x="0"
           y="0"
           id="tspan44">u</tspan></text>
      <text
         xml:space="preserve"
         transform="translate(128.13256,126.06898)"
         style="font-variant:normal;font-size:14.88px;font-family:CairoFont-0;-inkscape-font-specification:CairoFont-0-0;writing-mode:lr-tb;fill:#000000;fill-opacity:1;fill-rule:nonzero;stroke:none"
         id="text50"><tspan
           x="0"
           y="0"
           id="tspan48">g</tspan></text>
      <path
         d="M 83.781,134.051 83,133.094 l -0.621,-1.082 -0.434,-1.172 -0.226,-1.231 -0.012,-1.25 0.207,-1.234 0.41,-1.18 0.602,-1.093 0.765,-0.973 0.895,-0.828 0.988,-0.66 1.035,-0.485 1.043,-0.304 1,-0.125 0.914,0.046 0.797,0.192 0.633,0.316 0.453,0.414 0.246,0.477 0.032,0.496 -0.188,0.488 -0.394,0.434 -0.586,0.348 -0.75,0.23 -0.887,0.09 -0.981,-0.074 -1.031,-0.25 -1.043,-0.434 -1.008,-0.613 -0.925,-0.782 -0.805,-0.933 -0.652,-1.059 -0.469,-1.16 -0.266,-1.223 -0.051,-1.25 0.168,-1.242 0.375,-1.191 0.571,-1.109 0.738,-0.997 0.875,-0.855 0.973,-0.691 1.031,-0.516 1.043,-0.336 1.012,-0.156 0.933,0.015 0.82,0.168 0.665,0.297 0.488,0.399 0.281,0.464 0.07,0.5 -0.148,0.489 -0.356,0.445 -0.554,0.367 -0.723,0.254 -0.863,0.117 -0.969,-0.043 -1.027,-0.222 -1.043,-0.399 -1.016,-0.582 -0.945,-0.75 -0.828,-0.91 -0.684,-1.039 -0.5,-1.145 -0.305,-1.21 -0.089,-1.25 0.128,-1.247 0.34,-1.203 0.536,-1.125 0.71,-1.019 0.852,-0.883 0.961,-0.723 1.023,-0.547 1.047,-0.367 1.02,-0.187 0.949,-0.016 0.844,0.141 0.695,0.277 0.52,0.383 0.32,0.457 0.109,0.496 -0.109,0.492 -0.32,0.457 -0.52,0.383 -0.695,0.277 -0.844,0.145 -0.949,-0.016 -1.02,-0.187 -1.047,-0.367 -1.023,-0.551 -0.961,-0.723 -0.852,-0.883 -0.71,-1.015 -0.536,-1.129 -0.34,-1.203 -0.128,-1.246 0.089,-1.246 0.305,-1.215 0.5,-1.145 0.684,-1.039 0.828,-0.906 0.945,-0.754 1.016,-0.578 1.043,-0.402 1.027,-0.219 0.969,-0.043 0.863,0.113 0.723,0.254 0.554,0.367 0.356,0.445 0.148,0.493 -0.07,0.496 -0.281,0.468 -0.488,0.399 -0.665,0.297 -0.82,0.168 -0.933,0.015 -1.012,-0.156 -1.043,-0.336 -1.031,-0.515 -0.973,-0.696 -0.875,-0.851 -0.738,-0.996 -0.571,-1.114 -0.375,-1.191 -0.168,-1.238 0.051,-1.25 0.266,-1.227 0.469,-1.156 0.652,-1.063 0.805,-0.929 0.925,-0.782 1.008,-0.613 1.043,-0.433 1.031,-0.25 0.981,-0.075 0.887,0.086 0.75,0.231 0.586,0.351 0.394,0.434 0.188,0.484 -0.032,0.5 -0.246,0.473 -0.453,0.414 -0.633,0.32 -0.797,0.192 -0.914,0.043 -1,-0.125 -1.043,-0.301 -1.035,-0.484 -0.988,-0.665 -0.895,-0.828 -0.765,-0.972 -0.602,-1.09 -0.41,-1.18 -0.207,-1.234 0.012,-1.254 0.226,-1.231 0.434,-1.172 0.621,-1.078 0.781,-0.957"
         style="fill:none;stroke:#000000;stroke-width:0.9216;stroke-linecap:square;stroke-linejoin:miter;stroke-miterlimit:3.25;stroke-dasharray:none;stroke-opacity:1"
         id="path52" />
      <text
         xml:space="preserve"
         transform="translate(63.300261,108.14756)"
         style="font-variant:normal;font-size:21.12px;font-family:CairoFont-0;-inkscape-font-specification:CairoFont-0-0;writing-mode:lr-tb;fill:#000000;fill-opacity:1;fill-rule:nonzero;stroke:none"
         id="text56"><tspan
           x="0"
           y="0"
           id="tspan54">g</tspan></text>
      <path
         d="m 87.469,67.027 c 0,0.977 -0.391,1.914 -1.082,2.606 -0.692,0.691 -1.629,1.078 -2.606,1.078 -0.976,0 -1.914,-0.387 -2.605,-1.078 -0.692,-0.692 -1.082,-1.629 -1.082,-2.606 0,-0.98 0.39,-1.918 1.082,-2.609 0.691,-0.691 1.629,-1.078 2.605,-1.078 0.977,0 1.914,0.387 2.606,1.078 0.691,0.691 1.082,1.629 1.082,2.609 z"
         style="fill:#000000;fill-opacity:1;fill-rule:evenodd;stroke:none"
         id="path58" />
      <path
         d="m 87.469,134.051 c 0,0.976 -0.391,1.914 -1.082,2.605 -0.692,0.692 -1.629,1.082 -2.606,1.082 -0.976,0 -1.914,-0.39 -2.605,-1.082 -0.692,-0.691 -1.082,-1.629 -1.082,-2.605 0,-0.977 0.39,-1.914 1.082,-2.606 0.691,-0.691 1.629,-1.082 2.605,-1.082 0.977,0 1.914,0.391 2.606,1.082 0.691,0.692 1.082,1.629 1.082,2.606 z"
         style="fill:#000000;fill-opacity:1;fill-rule:evenodd;stroke:none"
         id="path60" />
    </g>
    <g
       id="g62">
      <g
         id="g64"
         clip-path="url(#clipPath68)">
        <text
           xml:space="preserve"
           transform="translate(79.055256,184.68097)"
           style="font-variant:normal;font-size:16.8px;font-family:CairoFont-1;-inkscape-font-specification:CairoFont-1-0;writing-mode:lr-tb;fill:#000000;fill-opacity:1;fill-rule:nonzero;stroke:none"
           id="text72"><tspan
             x="0"
             y="0"
             id="tspan70">1</tspan></text>
      </g>
    </g>
  </g>
</svg>
