<?xml version="1.0" encoding="UTF-8" standalone="no"?>
<!-- Created with Inkscape (http://www.inkscape.org/) -->

<svg
   version="1.1"
   id="svg2"
   width="492"
   height="492"
   viewBox="0 0 492 492"
   sodipodi:docname="1ugxu0yezpt32.pdf"
   xmlns:inkscape="http://www.inkscape.org/namespaces/inkscape"
   xmlns:sodipodi="http://sodipodi.sourceforge.net/DTD/sodipodi-0.dtd"
   xmlns="http://www.w3.org/2000/svg"
   xmlns:svg="http://www.w3.org/2000/svg">
  <defs
     id="defs6">
    <clipPath
       clipPathUnits="userSpaceOnUse"
       id="clipPath50">
      <path
         d="m 79,117 h 11.961 v 12 H 79 Z"
         id="path48" />
    </clipPath>
    <clipPath
       clipPathUnits="userSpaceOnUse"
       id="clipPath154">
      <path
         d="m 79,357 h 9 v 11.641 h -9 z"
         id="path152" />
    </clipPath>
  </defs>
  <sodipodi:namedview
     id="namedview4"
     pagecolor="#ffffff"
     bordercolor="#999999"
     borderopacity="1"
     inkscape:showpageshadow="0"
     inkscape:pageopacity="0"
     inkscape:pagecheckerboard="0"
     inkscape:deskcolor="#d1d1d1" />
  <g
     id="g8"
     inkscape:groupmode="layer"
     inkscape:label="1ugxu0yezpt32"
     transform="matrix(1.3333333,0,0,1.3333333,0,1.23e-5)">
    <g
       id="g10">
      <path
         d="m 0,58.648 50.27,41.891"
         style="fill:none;stroke:#000000;stroke-width:0.9216;stroke-linecap:square;stroke-linejoin:miter;stroke-miterlimit:3.25;stroke-dasharray:none;stroke-opacity:1"
         id="path12" />
      <path
         d="m 28.996,82.812 -9.867,-3.863 4.289,-5.148 z"
         style="fill:#000000;fill-opacity:1;fill-rule:evenodd;stroke:none"
         id="path14" />
      <text
         xml:space="preserve"
         transform="translate(9.40765,104.45499)"
         style="font-variant:normal;font-size:21.12px;font-family:CairoFont-0;-inkscape-font-specification:CairoFont-0-0;writing-mode:lr-tb;fill:#000000;fill-opacity:1;fill-rule:nonzero;stroke:none"
         id="text18"><tspan
           x="0"
           y="0"
           id="tspan16">u</tspan></text>
      <path
         d="m 50.27,100.539 -0.239,1.234 -0.441,1.192 -0.645,1.097 -0.828,0.969 -0.984,0.805 -1.117,0.613 -1.204,0.41 -1.253,0.196 -1.258,-0.012 -1.219,-0.215 -1.137,-0.394 -1.015,-0.547 -0.864,-0.66 -0.683,-0.731 -0.488,-0.766 -0.282,-0.746 -0.074,-0.683 0.121,-0.586 0.301,-0.442 0.449,-0.269 0.567,-0.078 0.648,0.133 0.68,0.343 0.675,0.555 0.622,0.75 0.527,0.922 0.398,1.062 0.239,1.168 0.05,1.227 -0.148,1.246 -0.356,1.215 -0.558,1.141 -0.754,1.027 -0.922,0.875 -1.066,0.699 -1.168,0.5 -1.239,0.285 -1.261,0.074 -1.242,-0.132 -1.176,-0.321 -1.071,-0.484 -0.933,-0.617 -0.762,-0.707 -0.574,-0.754 -0.367,-0.762 -0.16,-0.715 0.039,-0.633 0.226,-0.503 0.391,-0.348 0.523,-0.164 0.617,0.043 0.672,0.254 0.68,0.468 0.652,0.672 0.571,0.852 0.461,1.008 0.308,1.125 0.133,1.207 -0.062,1.242 -0.27,1.234 -0.477,1.176 -0.671,1.082 -0.852,0.945 -1.012,0.778 -1.129,0.586 -1.214,0.375 -1.258,0.164 -1.254,-0.047 -1.207,-0.242 -1.121,-0.422 -0.996,-0.563 -0.836,-0.672 -0.657,-0.742 -0.457,-0.761 -0.25,-0.743 -0.043,-0.672 0.153,-0.566 0.324,-0.418 0.469,-0.242 0.582,-0.047 0.652,0.164 0.684,0.379 0.668,0.586 0.613,0.777 0.512,0.946 0.375,1.082 0.211,1.179 0.019,1.231 -0.18,1.242 -0.386,1.207 -0.59,1.129 -0.781,1.004 -0.946,0.851 -1.086,0.672 -1.183,0.465 -1.242,0.254 -1.262,0.043 -1.234,-0.164 -1.161,-0.348 -1.054,-0.508 -0.907,-0.628 -0.734,-0.719 -0.543,-0.758 -0.336,-0.758 -0.133,-0.707 0.071,-0.613 0.254,-0.485 0.41,-0.32 0.539,-0.133 0.629,0.075 0.675,0.289 0.68,0.496 0.641,0.699 0.558,0.879 0.438,1.027 0.285,1.145 0.102,1.215 -0.094,1.242 -0.297,1.226 -0.508,1.168 -0.699,1.059 -0.879,0.922 -1.031,0.75 -1.145,0.554 -1.226,0.344 -1.258,0.133 -1.25,-0.078 -1.199,-0.274 -1.102,-0.441 -0.973,-0.586 -0.812,-0.684 -0.625,-0.746 -0.426,-0.765 -0.219,-0.731 -0.011,-0.66 0.175,-0.543 0.348,-0.394 0.492,-0.215 0.594,-0.016 0.664,0.199 0.684,0.411 0.66,0.617 0.597,0.804 0.493,0.965 0.355,1.102 0.18,1.187 -0.008,1.239 -0.211,1.238 -0.418,1.199 -0.621,1.109 -0.809,0.985 -0.968,0.824 -1.102,0.641 -1.195,0.437 -1.25,0.219 L 0,142.43"
         style="fill:none;stroke:#000000;stroke-width:0.9216;stroke-linecap:square;stroke-linejoin:miter;stroke-miterlimit:3.25;stroke-dasharray:none;stroke-opacity:1"
         id="path20" />
      <text
         xml:space="preserve"
         transform="translate(28.380972,146.3459)"
         style="font-variant:normal;font-size:21.12px;font-family:CairoFont-0;-inkscape-font-specification:CairoFont-0-0;writing-mode:lr-tb;fill:#000000;fill-opacity:1;fill-rule:nonzero;stroke:none"
         id="text24"><tspan
           x="0"
           y="0"
           id="tspan22">g</tspan></text>
      <path
         d="m 167.562,58.648 -50.269,41.891"
         style="fill:none;stroke:#000000;stroke-width:0.9216;stroke-linecap:square;stroke-linejoin:miter;stroke-miterlimit:3.25;stroke-dasharray:none;stroke-opacity:1"
         id="path26" />
      <path
         d="m 146.289,76.375 -9.867,3.863 4.289,5.149 z"
         style="fill:#000000;fill-opacity:1;fill-rule:evenodd;stroke:none"
         id="path28" />
      <text
         xml:space="preserve"
         transform="translate(126.7022,69.949215)"
         style="font-variant:normal;font-size:21.12px;font-family:CairoFont-0;-inkscape-font-specification:CairoFont-0-0;writing-mode:lr-tb;fill:#000000;fill-opacity:1;fill-rule:nonzero;stroke:none"
         id="text32"><tspan
           x="0"
           y="0"
           id="tspan30">u</tspan></text>
      <path
         d="m 117.293,100.539 1.262,0.008 1.25,0.223 1.195,0.433 1.102,0.641 0.968,0.824 0.805,0.988 0.621,1.11 0.418,1.195 0.215,1.242 0.008,1.238 -0.184,1.188 -0.351,1.098 -0.493,0.968 -0.597,0.805 -0.664,0.617 -0.684,0.41 -0.66,0.196 -0.598,-0.012 -0.488,-0.215 -0.348,-0.394 -0.179,-0.543 0.015,-0.661 0.215,-0.734 0.426,-0.762 0.625,-0.746 0.812,-0.687 0.973,-0.582 1.105,-0.446 1.196,-0.273 1.254,-0.074 1.258,0.129 1.222,0.347 1.149,0.555 1.027,0.746 0.879,0.922 0.703,1.062 0.504,1.168 0.301,1.227 0.093,1.242 -0.105,1.215 -0.281,1.141 -0.438,1.031 -0.558,0.875 -0.641,0.699 -0.68,0.5 -0.675,0.289 -0.629,0.074 -0.539,-0.132 -0.414,-0.321 -0.254,-0.484 -0.067,-0.613 0.129,-0.707 0.336,-0.758 0.543,-0.758 0.734,-0.719 0.911,-0.633 1.05,-0.507 1.164,-0.348 1.231,-0.16 1.262,0.039 1.246,0.258 1.183,0.465 1.082,0.667 0.946,0.852 0.781,1.008 0.59,1.129 0.386,1.203 0.184,1.242 -0.023,1.234 -0.211,1.18 -0.375,1.078 -0.512,0.946 -0.609,0.777 -0.668,0.586 -0.684,0.379 -0.656,0.164 -0.582,-0.043 -0.469,-0.246 -0.324,-0.418 -0.149,-0.563 0.043,-0.672 0.25,-0.742 0.453,-0.761 0.657,-0.743 0.836,-0.672 0.996,-0.566 1.121,-0.418 1.211,-0.246 1.254,-0.047 1.254,0.164 1.214,0.379 1.133,0.586 1.008,0.777 0.852,0.946 0.675,1.078 0.473,1.179 0.269,1.231 0.063,1.242 -0.133,1.207 -0.308,1.129 -0.457,1.008 -0.575,0.851 -0.648,0.668 -0.684,0.469 -0.672,0.258 -0.617,0.039 -0.523,-0.16 -0.391,-0.348 -0.226,-0.508 -0.039,-0.629 0.16,-0.718 0.371,-0.758 0.57,-0.758 0.766,-0.707 0.929,-0.613 1.075,-0.485 1.175,-0.324 1.239,-0.133 1.261,0.075 1.239,0.289 1.172,0.496 1.062,0.699 0.926,0.879 0.75,1.027 0.558,1.141 0.36,1.215 0.148,1.242 -0.051,1.23 -0.238,1.164 -0.398,1.063 -0.531,0.922 -0.622,0.75 -0.671,0.554 -0.684,0.348 -0.645,0.133 -0.566,-0.078 -0.453,-0.27 -0.297,-0.445 -0.121,-0.582 0.074,-0.688 0.281,-0.746 0.485,-0.761 0.683,-0.735 0.864,-0.66 1.019,-0.543 1.137,-0.394 1.219,-0.215 1.257,-0.016 1.25,0.195 1.207,0.411 1.114,0.617 0.988,0.805 0.824,0.968 0.645,1.098 0.445,1.187 0.234,1.239"
         style="fill:none;stroke:#000000;stroke-width:0.9216;stroke-linecap:square;stroke-linejoin:miter;stroke-miterlimit:3.25;stroke-dasharray:none;stroke-opacity:1"
         id="path34" />
      <text
         xml:space="preserve"
         transform="translate(145.67552,111.84013)"
         style="font-variant:normal;font-size:21.12px;font-family:CairoFont-0;-inkscape-font-specification:CairoFont-0-0;writing-mode:lr-tb;fill:#000000;fill-opacity:1;fill-rule:nonzero;stroke:none"
         id="text38"><tspan
           x="0"
           y="0"
           id="tspan36">g</tspan></text>
      <path
         d="m 50.27,100.539 h 67.023"
         style="fill:none;stroke:#000000;stroke-width:0.9216;stroke-linecap:square;stroke-linejoin:miter;stroke-miterlimit:3.25;stroke-dasharray:none;stroke-opacity:1"
         id="path40" />
      <path
         d="m 88.809,100.539 -10.055,3.352 v -6.703 z"
         style="fill:#000000;fill-opacity:1;fill-rule:evenodd;stroke:none"
         id="path42" />
    </g>
    <g
       id="g44">
      <g
         id="g46"
         clip-path="url(#clipPath50)">
        <text
           xml:space="preserve"
           transform="translate(77.541584,128.41036)"
           style="font-variant:normal;font-size:21.12px;font-family:CairoFont-0;-inkscape-font-specification:CairoFont-0-0;writing-mode:lr-tb;fill:#000000;fill-opacity:1;fill-rule:nonzero;stroke:none"
           id="text54"><tspan
             x="0"
             y="0"
             id="tspan52">u</tspan></text>
      </g>
    </g>
    <g
       id="g56">
      <path
         d="m 53.957,100.539 c 0,0.977 -0.391,1.914 -1.082,2.606 -0.691,0.691 -1.629,1.078 -2.605,1.078 -0.977,0 -1.915,-0.387 -2.606,-1.078 -0.691,-0.692 -1.082,-1.629 -1.082,-2.606 0,-0.98 0.391,-1.918 1.082,-2.609 0.691,-0.692 1.629,-1.078 2.606,-1.078 0.976,0 1.914,0.386 2.605,1.078 0.691,0.691 1.082,1.629 1.082,2.609 z"
         style="fill:#000000;fill-opacity:1;fill-rule:evenodd;stroke:none"
         id="path58" />
      <path
         d="m 120.98,100.539 c 0,0.977 -0.386,1.914 -1.078,2.606 -0.691,0.691 -1.629,1.078 -2.609,1.078 -0.977,0 -1.914,-0.387 -2.605,-1.078 -0.692,-0.692 -1.079,-1.629 -1.079,-2.606 0,-0.98 0.387,-1.918 1.079,-2.609 0.691,-0.692 1.628,-1.078 2.605,-1.078 0.98,0 1.918,0.386 2.609,1.078 0.692,0.691 1.078,1.629 1.078,2.609 z"
         style="fill:#000000;fill-opacity:1;fill-rule:evenodd;stroke:none"
         id="path60" />
      <text
         xml:space="preserve"
         transform="translate(79.055256,184.68097)"
         style="font-variant:normal;font-size:16.8px;font-family:CairoFont-1;-inkscape-font-specification:CairoFont-1-0;writing-mode:lr-tb;fill:#000000;fill-opacity:1;fill-rule:nonzero;stroke:none"
         id="text64"><tspan
           x="0"
           y="0"
           id="tspan62">1</tspan></text>
      <path
         d="m 184.32,58.648 83.782,8.379"
         style="fill:none;stroke:#000000;stroke-width:0.9216;stroke-linecap:square;stroke-linejoin:miter;stroke-miterlimit:3.25;stroke-dasharray:none;stroke-opacity:1"
         id="path66" />
      <path
         d="M 231.211,63.336 220.875,65.672 221.543,59 Z"
         style="fill:#000000;fill-opacity:1;fill-rule:evenodd;stroke:none"
         id="path68" />
      <text
         xml:space="preserve"
         transform="translate(218.6785,90.644098)"
         style="font-variant:normal;font-size:21.12px;font-family:CairoFont-0;-inkscape-font-specification:CairoFont-0-0;writing-mode:lr-tb;fill:#000000;fill-opacity:1;fill-rule:nonzero;stroke:none"
         id="text72"><tspan
           x="0"
           y="0"
           id="tspan70">u</tspan></text>
      <path
         d="m 268.102,134.051 -0.946,0.949 -1.109,0.77 -1.235,0.546 -1.316,0.301 -1.351,0.035 -1.333,-0.222 -1.265,-0.469 -1.152,-0.691 -0.997,-0.875 -0.812,-1.012 -0.606,-1.086 -0.386,-1.109 -0.164,-1.071 0.043,-0.972 0.23,-0.825 0.383,-0.625 0.496,-0.398 0.563,-0.145 0.578,0.121 0.547,0.379 0.468,0.618 0.336,0.828 0.176,1 -0.02,1.117 -0.23,1.176 -0.453,1.183 -0.668,1.121 -0.875,1.012 -1.047,0.844 -1.191,0.637 -1.293,0.398 -1.34,0.141 -1.348,-0.122 -1.297,-0.378 -1.203,-0.61 -1.062,-0.808 -0.887,-0.961 -0.688,-1.067 -0.472,-1.105 -0.25,-1.094 -0.035,-1.02 0.16,-0.886 0.328,-0.707 0.457,-0.489 0.539,-0.246 0.582,0.016 0.566,0.281 0.504,0.528 0.391,0.75 0.246,0.937 0.059,1.074 -0.149,1.164 -0.363,1.188 -0.586,1.152 -0.797,1.059 -0.984,0.914 -1.141,0.723 -1.258,0.496 -1.328,0.242 -1.351,-0.02 -1.321,-0.277 -1.246,-0.523 -1.121,-0.735 -0.961,-0.91 -0.765,-1.031 -0.559,-1.098 -0.336,-1.105 -0.117,-1.055 0.086,-0.945 0.265,-0.782 0.411,-0.578 0.515,-0.344 0.571,-0.085 0.578,0.175 0.531,0.434 0.441,0.668 0.309,0.867 0.133,1.031 -0.063,1.133 -0.281,1.184 -0.5,1.176 -0.715,1.101 -0.914,0.977 -1.082,0.804 -1.219,0.586 -1.308,0.344 -1.348,0.082 -1.336,-0.18 -1.281,-0.429 -1.176,-0.657 -1.027,-0.847 -0.844,-0.989 -0.641,-1.078 -0.425,-1.109 -0.2,-1.082 0.008,-0.996 0.199,-0.852 0.36,-0.66 0.476,-0.441 0.555,-0.188 0.582,0.074 0.559,0.336 0.48,0.578 0.363,0.797 0.207,0.973 0.016,1.098 -0.195,1.172 -0.414,1.187 -0.633,1.137 -0.84,1.031 -1.02,0.875 -1.171,0.676 -1.278,0.441 -1.336,0.188 -1.347,-0.078 -1.313,-0.336 -1.219,-0.571 -1.089,-0.777 -0.918,-0.941 -0.727,-1.051 -0.508,-1.106 -0.285,-1.097 -0.074,-1.035 0.129,-0.915 0.301,-0.742 0.437,-0.527 0.531,-0.289 0.574,-0.027 0.575,0.234 0.515,0.484 0.418,0.715 0.27,0.91 0.094,1.055 -0.11,1.152 -0.328,1.188 -0.551,1.16 -0.761,1.082 -0.954,0.941 -1.117,0.758 -1.238,0.535 -1.32,0.289 -1.352,0.024 -1.328,-0.234 -1.262,-0.485 -1.144,-0.699 -0.992,-0.883 -0.801,-1.012 -0.594,-1.093 -0.375,-1.11 -0.156,-1.066 0.054,-0.969 0.235,-0.812 0.39,-0.618 0.5,-0.382 0.567,-0.133 0.578,0.133 0.543,0.39 0.461,0.629 0.332,0.836 0.168,1.004 -0.027,1.121 -0.243,1.18 -0.465,1.179 -0.679,1.122 -0.883,1.003 -1.055,0.832 -1.199,0.629 -1.293,0.383 -1.344,0.129 -1.347,-0.133 -1.293,-0.39 -1.196,-0.618 -1.054,-0.816 -0.879,-0.969 -0.676,-1.07 -0.461,-1.109 -0.242,-1.09 -0.023,-1.012 0.167,-0.883 0.333,-0.695 0.464,-0.481 0.543,-0.23 0.582,0.027 0.563,0.289 0.5,0.539 0.387,0.762 0.234,0.945 0.051,1.083 -0.157,1.164 -0.378,1.187 -0.594,1.149 -0.809,1.054 -0.992,0.906 -1.144,0.711 -1.262,0.485 -1.332,0.23 -1.352,-0.031 -1.32,-0.293 -1.238,-0.535 -1.114,-0.742"
         style="fill:none;stroke:#000000;stroke-width:0.9216;stroke-linecap:square;stroke-linejoin:miter;stroke-miterlimit:3.25;stroke-dasharray:none;stroke-opacity:1"
         id="path74" />
      <text
         xml:space="preserve"
         transform="translate(221.22183,166.04773)"
         style="font-variant:normal;font-size:21.12px;font-family:CairoFont-0;-inkscape-font-specification:CairoFont-0-0;writing-mode:lr-tb;fill:#000000;fill-opacity:1;fill-rule:nonzero;stroke:none"
         id="text78"><tspan
           x="0"
           y="0"
           id="tspan76">g</tspan></text>
      <path
         d="m 351.883,58.648 -83.781,8.379"
         style="fill:none;stroke:#000000;stroke-width:0.9216;stroke-linecap:square;stroke-linejoin:miter;stroke-miterlimit:3.25;stroke-dasharray:none;stroke-opacity:1"
         id="path80" />
      <path
         d="M 314.996,62.336 304.656,60 l 0.668,6.672 z"
         style="fill:#000000;fill-opacity:1;fill-rule:evenodd;stroke:none"
         id="path82" />
      <text
         xml:space="preserve"
         transform="translate(302.46032,50.247379)"
         style="font-variant:normal;font-size:21.12px;font-family:CairoFont-0;-inkscape-font-specification:CairoFont-0-0;writing-mode:lr-tb;fill:#000000;fill-opacity:1;fill-rule:nonzero;stroke:none"
         id="text86"><tspan
           x="0"
           y="0"
           id="tspan84">u</tspan></text>
      <path
         d="m 268.102,134.051 1.113,-0.746 1.242,-0.532 1.316,-0.293 1.352,-0.031 1.332,0.231 1.262,0.484 1.148,0.711 0.992,0.906 0.805,1.055 0.594,1.148 0.379,1.188 0.156,1.164 -0.051,1.082 -0.234,0.945 -0.387,0.762 -0.5,0.535 -0.562,0.293 -0.582,0.027 -0.543,-0.23 -0.461,-0.48 -0.336,-0.7 -0.168,-0.879 0.027,-1.011 0.238,-1.09 0.461,-1.11 0.676,-1.07 0.879,-0.969 1.055,-0.816 1.195,-0.617 1.297,-0.391 1.344,-0.133 1.343,0.125 1.293,0.387 1.2,0.629 1.054,0.832 0.883,1.004 0.68,1.121 0.465,1.18 0.242,1.179 0.027,1.121 -0.168,1.004 -0.332,0.836 -0.457,0.629 -0.547,0.391 -0.578,0.133 -0.566,-0.133 -0.5,-0.383 -0.387,-0.617 -0.238,-0.817 -0.055,-0.964 0.156,-1.067 0.375,-1.109 0.594,-1.094 0.801,-1.012 0.992,-0.882 1.144,-0.704 1.262,-0.48 1.328,-0.234 1.352,0.023 1.32,0.289 1.242,0.535 1.114,0.758 0.953,0.941 0.762,1.083 0.55,1.16 0.328,1.187 0.11,1.153 -0.094,1.054 -0.269,0.91 -0.418,0.715 -0.516,0.485 -0.57,0.234 -0.578,-0.027 -0.532,-0.289 -0.437,-0.528 -0.301,-0.742 -0.129,-0.914 0.074,-1.035 0.285,-1.098 0.512,-1.105 0.723,-1.055 0.918,-0.938 1.09,-0.777 1.222,-0.57 1.309,-0.336 1.348,-0.078 1.339,0.187 1.274,0.442 1.172,0.672 1.019,0.878 0.84,1.032 0.633,1.136 0.414,1.188 0.195,1.172 -0.015,1.097 -0.203,0.973 -0.368,0.797 -0.48,0.578 -0.559,0.336 -0.578,0.074 -0.558,-0.191 -0.477,-0.438 -0.359,-0.66 -0.2,-0.851 -0.007,-0.996 0.199,-1.082 0.426,-1.11 0.64,-1.078 0.844,-0.992 1.027,-0.844 1.176,-0.656 1.281,-0.43 1.336,-0.18 1.352,0.082 1.305,0.344 1.218,0.586 1.082,0.805 0.914,0.976 0.715,1.102 0.5,1.176 0.281,1.183 0.063,1.133 -0.133,1.031 -0.305,0.868 -0.441,0.668 -0.535,0.433 -0.578,0.176 -0.571,-0.086 -0.515,-0.344 -0.41,-0.578 -0.266,-0.781 -0.086,-0.945 0.117,-1.055 0.336,-1.106 0.559,-1.097 0.769,-1.031 0.957,-0.911 1.121,-0.734 1.247,-0.523 1.32,-0.278 1.351,-0.019 1.329,0.242 1.257,0.496 1.141,0.719 0.984,0.914 0.797,1.062 0.586,1.153 0.363,1.187 0.149,1.16 -0.059,1.078 -0.242,0.938 -0.394,0.75 -0.504,0.527 -0.567,0.281 -0.578,0.016 -0.543,-0.246 -0.457,-0.488 -0.328,-0.707 -0.16,-0.887 0.039,-1.02 0.25,-1.093 0.469,-1.106 0.687,-1.066 0.891,-0.961 1.062,-0.809 1.2,-0.609 1.296,-0.379 1.348,-0.121 1.344,0.141 1.289,0.398 1.191,0.637 1.051,0.843 0.871,1.012 0.668,1.121 0.453,1.184 0.235,1.176 0.015,1.117 -0.172,1 -0.339,0.828 -0.465,0.617 -0.551,0.379 -0.578,0.117 -0.563,-0.14 -0.496,-0.399 -0.383,-0.625 -0.23,-0.824 -0.043,-0.973 0.168,-1.07 0.383,-1.109 0.605,-1.09 0.813,-1.008 0.996,-0.875 1.152,-0.691 1.266,-0.469 1.332,-0.223 1.351,0.035 1.317,0.301 1.234,0.547 1.11,0.766 0.945,0.953"
         style="fill:none;stroke:#000000;stroke-width:0.9216;stroke-linecap:square;stroke-linejoin:miter;stroke-miterlimit:3.25;stroke-dasharray:none;stroke-opacity:1"
         id="path88" />
      <text
         xml:space="preserve"
         transform="translate(305.00365,125.65102)"
         style="font-variant:normal;font-size:21.12px;font-family:CairoFont-0;-inkscape-font-specification:CairoFont-0-0;writing-mode:lr-tb;fill:#000000;fill-opacity:1;fill-rule:nonzero;stroke:none"
         id="text92"><tspan
           x="0"
           y="0"
           id="tspan90">g</tspan></text>
      <path
         d="m 268.102,134.051 -0.782,-0.957 -0.621,-1.082 -0.433,-1.172 -0.227,-1.231 -0.012,-1.25 0.203,-1.234 0.415,-1.18 0.601,-1.093 0.766,-0.973 0.894,-0.828 0.989,-0.66 1.035,-0.485 1.043,-0.304 1,-0.125 0.914,0.046 0.793,0.192 0.636,0.316 0.454,0.414 0.246,0.477 0.031,0.496 -0.188,0.488 -0.394,0.434 -0.586,0.348 -0.75,0.23 -0.887,0.09 -0.98,-0.074 -1.035,-0.25 -1.039,-0.434 -1.008,-0.613 -0.926,-0.782 -0.805,-0.933 -0.652,-1.059 -0.469,-1.16 -0.266,-1.223 -0.05,-1.25 0.168,-1.242 0.375,-1.191 0.57,-1.109 0.738,-0.997 0.875,-0.855 0.973,-0.691 1.031,-0.516 1.043,-0.336 1.012,-0.156 0.933,0.015 0.821,0.168 0.664,0.297 0.484,0.399 0.285,0.464 0.071,0.5 -0.149,0.489 -0.355,0.445 -0.555,0.367 -0.723,0.254 -0.863,0.117 -0.969,-0.043 -1.027,-0.222 -1.043,-0.399 -1.016,-0.582 -0.945,-0.75 -0.828,-0.91 -0.684,-1.039 -0.5,-1.145 -0.304,-1.21 -0.09,-1.25 0.129,-1.247 0.34,-1.203 0.535,-1.125 0.711,-1.019 0.851,-0.883 0.961,-0.723 1.024,-0.547 1.047,-0.367 1.019,-0.187 0.949,-0.016 0.844,0.141 0.695,0.277 0.52,0.383 0.32,0.457 0.11,0.496 -0.11,0.492 -0.32,0.457 -0.52,0.383 -0.695,0.277 -0.844,0.145 -0.949,-0.016 -1.019,-0.187 -1.047,-0.367 -1.024,-0.551 -0.961,-0.723 -0.851,-0.883 -0.711,-1.015 -0.535,-1.129 -0.34,-1.203 -0.129,-1.246 0.09,-1.246 0.304,-1.215 0.5,-1.145 0.684,-1.039 0.828,-0.906 0.945,-0.754 1.016,-0.578 1.043,-0.402 1.027,-0.219 0.969,-0.043 0.863,0.113 0.723,0.254 0.555,0.367 0.355,0.445 0.149,0.493 -0.071,0.496 -0.285,0.468 -0.484,0.399 -0.664,0.297 -0.821,0.168 -0.933,0.015 -1.012,-0.156 -1.043,-0.336 -1.031,-0.515 -0.973,-0.696 -0.875,-0.851 -0.738,-0.996 -0.57,-1.114 -0.375,-1.191 -0.168,-1.238 0.05,-1.25 0.266,-1.227 0.469,-1.156 0.652,-1.063 0.805,-0.929 0.926,-0.782 1.008,-0.613 1.039,-0.433 1.035,-0.25 0.98,-0.075 0.887,0.086 0.75,0.231 0.586,0.351 0.394,0.434 0.188,0.484 -0.031,0.5 -0.246,0.473 -0.454,0.414 -0.636,0.32 -0.793,0.192 -0.914,0.043 -1,-0.125 -1.043,-0.301 -1.035,-0.484 -0.989,-0.665 -0.894,-0.828 -0.766,-0.972 -0.601,-1.09 -0.415,-1.18 -0.203,-1.234 0.012,-1.254 0.227,-1.231 0.433,-1.172 0.621,-1.078 0.782,-0.957"
         style="fill:none;stroke:#000000;stroke-width:0.9216;stroke-linecap:square;stroke-linejoin:miter;stroke-miterlimit:3.25;stroke-dasharray:none;stroke-opacity:1"
         id="path94" />
      <text
         xml:space="preserve"
         transform="translate(247.62026,108.14756)"
         style="font-variant:normal;font-size:21.12px;font-family:CairoFont-0;-inkscape-font-specification:CairoFont-0-0;writing-mode:lr-tb;fill:#000000;fill-opacity:1;fill-rule:nonzero;stroke:none"
         id="text98"><tspan
           x="0"
           y="0"
           id="tspan96">g</tspan></text>
      <path
         d="m 271.789,67.027 c 0,0.977 -0.391,1.914 -1.082,2.606 -0.691,0.691 -1.629,1.078 -2.605,1.078 -0.977,0 -1.914,-0.387 -2.606,-1.078 -0.691,-0.692 -1.082,-1.629 -1.082,-2.606 0,-0.98 0.391,-1.918 1.082,-2.609 0.692,-0.691 1.629,-1.078 2.606,-1.078 0.976,0 1.914,0.387 2.605,1.078 0.691,0.691 1.082,1.629 1.082,2.609 z"
         style="fill:#000000;fill-opacity:1;fill-rule:evenodd;stroke:none"
         id="path100" />
      <path
         d="m 271.789,134.051 c 0,0.976 -0.391,1.914 -1.082,2.605 -0.691,0.692 -1.629,1.082 -2.605,1.082 -0.977,0 -1.914,-0.39 -2.606,-1.082 -0.691,-0.691 -1.082,-1.629 -1.082,-2.605 0,-0.977 0.391,-1.914 1.082,-2.606 0.692,-0.691 1.629,-1.082 2.606,-1.082 0.976,0 1.914,0.391 2.605,1.082 0.691,0.692 1.082,1.629 1.082,2.606 z"
         style="fill:#000000;fill-opacity:1;fill-rule:evenodd;stroke:none"
         id="path102" />
      <text
         xml:space="preserve"
         transform="translate(263.37526,184.68097)"
         style="font-variant:normal;font-size:16.8px;font-family:CairoFont-1;-inkscape-font-specification:CairoFont-1-0;writing-mode:lr-tb;fill:#000000;fill-opacity:1;fill-rule:nonzero;stroke:none"
         id="text106"><tspan
           x="0"
           y="0"
           id="tspan104">2</tspan></text>
      <path
         d="m 0,242.969 83.781,8.375"
         style="fill:none;stroke:#000000;stroke-width:0.9216;stroke-linecap:square;stroke-linejoin:miter;stroke-miterlimit:3.25;stroke-dasharray:none;stroke-opacity:1"
         id="path108" />
      <path
         d="m 46.895,247.656 -10.34,2.336 0.668,-6.672 z"
         style="fill:#000000;fill-opacity:1;fill-rule:evenodd;stroke:none"
         id="path110" />
      <text
         xml:space="preserve"
         transform="translate(34.358501,274.9641)"
         style="font-variant:normal;font-size:21.12px;font-family:CairoFont-0;-inkscape-font-specification:CairoFont-0-0;writing-mode:lr-tb;fill:#000000;fill-opacity:1;fill-rule:nonzero;stroke:none"
         id="text114"><tspan
           x="0"
           y="0"
           id="tspan112">u</tspan></text>
      <path
         d="m 83.781,318.371 -0.945,0.949 -1.109,0.77 -1.235,0.547 -1.316,0.297 -1.352,0.039 -1.332,-0.223 -1.265,-0.469 -1.153,-0.695 -0.996,-0.871 -0.812,-1.012 -0.606,-1.086 -0.387,-1.109 -0.164,-1.07 0.043,-0.973 0.231,-0.824 0.383,-0.625 0.496,-0.399 0.562,-0.144 0.578,0.121 0.547,0.379 0.469,0.617 0.336,0.828 0.176,1 -0.02,1.113 -0.23,1.18 -0.453,1.184 -0.668,1.121 -0.871,1.011 -1.051,0.844 -1.192,0.637 -1.289,0.398 -1.344,0.141 -1.347,-0.121 -1.297,-0.379 -1.199,-0.609 -1.063,-0.809 -0.89,-0.961 -0.688,-1.066 -0.469,-1.11 -0.25,-1.09 -0.039,-1.019 0.16,-0.887 0.329,-0.707 0.457,-0.492 0.543,-0.242 0.578,0.015 0.566,0.282 0.504,0.527 0.391,0.75 0.246,0.937 0.058,1.075 -0.148,1.164 -0.363,1.187 -0.586,1.153 -0.797,1.058 -0.985,0.914 -1.14,0.723 -1.258,0.496 -1.328,0.242 -1.352,-0.019 -1.32,-0.282 -1.246,-0.519 -1.121,-0.735 -0.961,-0.91 -0.766,-1.031 -0.558,-1.098 -0.336,-1.105 -0.117,-1.055 0.085,-0.945 0.266,-0.781 0.41,-0.582 0.516,-0.34 0.57,-0.086 0.578,0.176 0.535,0.433 0.442,0.668 0.305,0.867 0.132,1.028 -0.062,1.136 -0.281,1.184 -0.5,1.176 -0.715,1.101 -0.914,0.977 -1.082,0.805 -1.219,0.586 -1.305,0.343 -1.351,0.082 -1.336,-0.179 -1.282,-0.43 -1.175,-0.656 -1.028,-0.848 -0.843,-0.988 -0.641,-1.078 -0.426,-1.114 -0.199,-1.078 0.008,-0.996 0.199,-0.851 0.359,-0.664 0.477,-0.438 0.555,-0.187 0.582,0.074 0.558,0.336 0.481,0.578 0.363,0.797 0.207,0.972 0.016,1.098 -0.196,1.172 -0.414,1.187 -0.633,1.137 -0.839,1.031 -1.02,0.875 -1.172,0.676 -1.277,0.442 -1.336,0.187 -1.348,-0.078 -1.308,-0.336 -1.223,-0.57 -1.09,-0.778 -0.918,-0.941 -0.726,-1.051 -0.508,-1.105 -0.285,-1.098 -0.074,-1.035 0.128,-0.914 0.301,-0.742 0.438,-0.528 0.531,-0.289 0.578,-0.027 0.57,0.23 0.516,0.489 0.418,0.714 0.27,0.911 0.093,1.054 -0.109,1.153 -0.328,1.183 -0.551,1.164 -0.762,1.082 -0.953,0.942 -1.113,0.758 -1.242,0.535 -1.321,0.289 -1.351,0.023 -1.328,-0.234 -1.262,-0.485 -1.145,-0.699 -0.992,-0.883 -0.801,-1.015 -0.593,-1.09 -0.375,-1.109 -0.157,-1.067 0.055,-0.969 0.235,-0.812 0.39,-0.617 0.5,-0.383 0.567,-0.133 0.578,0.133 0.547,0.391 0.457,0.628 0.332,0.836 0.168,1.004 -0.028,1.121 -0.242,1.18 -0.465,1.18 -0.68,1.121 -0.882,1 -1.055,0.836 -1.199,0.629 -1.293,0.383 -1.344,0.128 -1.344,-0.132 -1.297,-0.391 -1.195,-0.617 -1.055,-0.821 -0.878,-0.968 -0.676,-1.067 -0.461,-1.109 -0.238,-1.09 -0.028,-1.012 0.168,-0.882 0.332,-0.696 0.465,-0.48 0.543,-0.231 0.582,0.028 0.563,0.289 0.5,0.539 0.386,0.762 0.235,0.945 0.05,1.082 -0.156,1.164 -0.379,1.187 -0.594,1.149 -0.808,1.055 -0.992,0.906 -1.145,0.711 -1.262,0.484 -1.332,0.231 L 3.672,328.316 2.355,328.027 1.113,327.492 0,326.75"
         style="fill:none;stroke:#000000;stroke-width:0.9216;stroke-linecap:square;stroke-linejoin:miter;stroke-miterlimit:3.25;stroke-dasharray:none;stroke-opacity:1"
         id="path116" />
      <text
         xml:space="preserve"
         transform="translate(36.901832,350.36773)"
         style="font-variant:normal;font-size:21.12px;font-family:CairoFont-0;-inkscape-font-specification:CairoFont-0-0;writing-mode:lr-tb;fill:#000000;fill-opacity:1;fill-rule:nonzero;stroke:none"
         id="text120"><tspan
           x="0"
           y="0"
           id="tspan118">g</tspan></text>
      <path
         d="M 167.562,242.969 83.781,318.371"
         style="fill:none;stroke:#000000;stroke-width:0.9216;stroke-linecap:square;stroke-linejoin:miter;stroke-miterlimit:3.25;stroke-dasharray:none;stroke-opacity:1"
         id="path122" />
      <path
         d="m 129.41,277.305 -9.715,4.234 4.485,4.984 z"
         style="fill:#000000;fill-opacity:1;fill-rule:evenodd;stroke:none"
         id="path124" />
      <text
         xml:space="preserve"
         transform="translate(129.41812,254.30771)"
         style="font-variant:normal;font-size:21.12px;font-family:CairoFont-0;-inkscape-font-specification:CairoFont-0-0;writing-mode:lr-tb;fill:#000000;fill-opacity:1;fill-rule:nonzero;stroke:none"
         id="text128"><tspan
           x="0"
           y="0"
           id="tspan126">u</tspan></text>
      <path
         d="m 83.781,251.344 1.289,0.07 1.27,0.285 1.203,0.508 1.098,0.711 0.949,0.898 0.773,1.055 0.571,1.172 0.363,1.246 0.144,1.277 -0.066,1.262 -0.254,1.192 -0.422,1.085 -0.558,0.942 -0.645,0.758 -0.699,0.554 -0.699,0.344 -0.653,0.117 -0.566,-0.09 -0.434,-0.289 -0.273,-0.461 -0.082,-0.597 0.125,-0.692 0.344,-0.742 0.554,-0.746 0.754,-0.707 0.938,-0.613 1.082,-0.485 1.195,-0.316 1.266,-0.129 1.289,0.086 1.265,0.305 1.196,0.523 1.086,0.731 0.937,0.91 0.758,1.066 0.555,1.18 0.343,1.25 0.129,1.277 -0.082,1.258 -0.269,1.188 -0.438,1.074 -0.562,0.926 -0.653,0.742 -0.699,0.539 -0.699,0.324 -0.649,0.102 -0.554,-0.11 -0.422,-0.304 -0.258,-0.469 -0.066,-0.606 0.144,-0.699 0.356,-0.746 0.574,-0.746 0.769,-0.699 0.95,-0.606 1.093,-0.469 1.204,-0.304 1.269,-0.11 1.289,0.102 1.262,0.324 1.187,0.539 1.075,0.746 0.925,0.926 0.739,1.074 0.543,1.188 0.324,1.254 0.109,1.281 -0.097,1.25 -0.286,1.18 -0.445,1.066 -0.574,0.91 -0.656,0.727 -0.704,0.523 -0.691,0.305 -0.644,0.086 -0.547,-0.125 -0.411,-0.32 -0.242,-0.485 -0.05,-0.613 0.16,-0.703 0.375,-0.75 0.59,-0.742 0.785,-0.692 0.965,-0.597 1.101,-0.458 1.211,-0.289 1.273,-0.093 1.29,0.121 1.253,0.34 1.184,0.558 1.063,0.758 0.91,0.938 0.726,1.085 0.52,1.196 0.308,1.262 0.094,1.277 -0.113,1.246 -0.297,1.172 -0.461,1.055 -0.582,0.898 -0.664,0.711 -0.699,0.504 -0.692,0.289 -0.636,0.066 -0.539,-0.14 -0.399,-0.336 -0.226,-0.496 -0.036,-0.622 0.18,-0.71 0.395,-0.747 0.605,-0.742 0.801,-0.687 0.973,-0.586 1.117,-0.445 1.215,-0.274 1.273,-0.078 1.289,0.141 1.254,0.359 1.172,0.574 1.051,0.774 0.898,0.953 0.707,1.094 0.508,1.203 0.289,1.261 0.078,1.278 -0.129,1.246 -0.316,1.164 -0.469,1.039 -0.59,0.887 -0.668,0.695 -0.703,0.484 -0.687,0.27 -0.633,0.051 -0.528,-0.157 -0.386,-0.347 -0.211,-0.508 -0.016,-0.633 0.195,-0.715 0.411,-0.75 0.621,-0.738 0.816,-0.68 0.988,-0.574 1.125,-0.434 1.223,-0.261 1.277,-0.059 1.286,0.156 1.25,0.379 1.164,0.59 1.039,0.789 0.882,0.969 0.696,1.105 0.488,1.207 0.274,1.266 0.058,1.277 -0.144,1.239 -0.329,1.156 -0.48,1.031 -0.598,0.867 -0.675,0.68 -0.704,0.469 -0.683,0.254 -0.625,0.031 -0.516,-0.176 -0.375,-0.359 -0.199,-0.52 v -0.64 l 0.215,-0.719 0.429,-0.75 0.637,-0.734 0.832,-0.672 1,-0.567 1.133,-0.422 1.231,-0.242 1.281,-0.043 1.281,0.176 1.246,0.391 1.156,0.609 1.028,0.805 0.867,0.98 0.68,1.113 0.468,1.215 0.258,1.27 0.039,1.273 -0.16,1.235 -0.34,1.148 -0.492,1.02 -0.605,0.851 -0.68,0.664 -0.703,0.453 -0.68,0.235 -0.617,0.015 -0.508,-0.191 -0.359,-0.375 -0.184,-0.531 0.016,-0.649 0.23,-0.722 0.449,-0.75 0.653,-0.731 0.847,-0.668 1.012,-0.555 1.141,-0.406 1.238,-0.23 1.281,-0.024 1.282,0.192 1.238,0.414 1.148,0.625 1.016,0.82 0.855,0.988 0.661,1.125 0.453,1.223 0.238,1.27 0.023,1.273 -0.175,1.23 -0.352,1.137 -0.504,1.008 -0.613,0.84 -0.684,0.644 -0.703,0.438 -0.68,0.215 -0.609,-0.004 -0.496,-0.203 -0.344,-0.391 -0.168,-0.543 0.035,-0.656 0.246,-0.727 0.465,-0.75 0.668,-0.726 0.864,-0.66 1.023,-0.543 1.152,-0.395 1.239,-0.215 1.285,-0.004 1.281,0.207 1.23,0.43 1.141,0.641 1.004,0.836 0.84,1.004 0.644,1.136 0.434,1.227 0.223,1.269 0.007,1.274 -0.191,1.222 -0.367,1.129 -0.516,0.993 -0.617,0.828 -0.687,0.629 -0.704,0.418 -0.675,0.199 -0.602,-0.02 -0.484,-0.222 -0.332,-0.403 -0.153,-0.554 0.051,-0.661 0.266,-0.73 0.48,-0.754 0.688,-0.723 0.875,-0.652 1.035,-0.531 1.16,-0.383 1.246,-0.195 1.285,0.011 1.282,0.227 1.222,0.445 1.129,0.66 0.992,0.848 0.824,1.016 0.629,1.144 0.418,1.235 0.203,1.273"
         style="fill:none;stroke:#000000;stroke-width:0.9216;stroke-linecap:square;stroke-linejoin:miter;stroke-miterlimit:3.25;stroke-dasharray:none;stroke-opacity:1"
         id="path130" />
      <text
         xml:space="preserve"
         transform="translate(147.13687,296.20735)"
         style="font-variant:normal;font-size:21.12px;font-family:CairoFont-0;-inkscape-font-specification:CairoFont-0-0;writing-mode:lr-tb;fill:#000000;fill-opacity:1;fill-rule:nonzero;stroke:none"
         id="text134"><tspan
           x="0"
           y="0"
           id="tspan132">g</tspan></text>
      <path
         d="m 83.781,251.344 v 67.027"
         style="fill:none;stroke:#000000;stroke-width:0.9216;stroke-linecap:square;stroke-linejoin:miter;stroke-miterlimit:3.25;stroke-dasharray:none;stroke-opacity:1"
         id="path136" />
      <path
         d="M 83.781,289.887 80.43,279.832 h 6.703 z"
         style="fill:#000000;fill-opacity:1;fill-rule:evenodd;stroke:none"
         id="path138" />
      <text
         xml:space="preserve"
         transform="translate(64.220948,292.46756)"
         style="font-variant:normal;font-size:21.12px;font-family:CairoFont-0;-inkscape-font-specification:CairoFont-0-0;writing-mode:lr-tb;fill:#000000;fill-opacity:1;fill-rule:nonzero;stroke:none"
         id="text142"><tspan
           x="0"
           y="0"
           id="tspan140">u</tspan></text>
      <path
         d="m 87.469,251.344 c 0,0.98 -0.391,1.918 -1.082,2.609 -0.692,0.692 -1.629,1.078 -2.606,1.078 -0.976,0 -1.914,-0.386 -2.605,-1.078 -0.692,-0.691 -1.082,-1.629 -1.082,-2.609 0,-0.977 0.39,-1.914 1.082,-2.606 0.691,-0.691 1.629,-1.078 2.605,-1.078 0.977,0 1.914,0.387 2.606,1.078 0.691,0.692 1.082,1.629 1.082,2.606 z"
         style="fill:#000000;fill-opacity:1;fill-rule:evenodd;stroke:none"
         id="path144" />
      <path
         d="m 87.469,318.371 c 0,0.977 -0.391,1.914 -1.082,2.606 -0.692,0.691 -1.629,1.082 -2.606,1.082 -0.976,0 -1.914,-0.391 -2.605,-1.082 -0.692,-0.692 -1.082,-1.629 -1.082,-2.606 0,-0.976 0.39,-1.914 1.082,-2.605 0.691,-0.692 1.629,-1.082 2.605,-1.082 0.977,0 1.914,0.39 2.606,1.082 0.691,0.691 1.082,1.629 1.082,2.605 z"
         style="fill:#000000;fill-opacity:1;fill-rule:evenodd;stroke:none"
         id="path146" />
    </g>
    <g
       id="g148">
      <g
         id="g150"
         clip-path="url(#clipPath154)">
        <text
           xml:space="preserve"
           transform="translate(79.055256,369.00097)"
           style="font-variant:normal;font-size:16.8px;font-family:CairoFont-1;-inkscape-font-specification:CairoFont-1-0;writing-mode:lr-tb;fill:#000000;fill-opacity:1;fill-rule:nonzero;stroke:none"
           id="text158"><tspan
             x="0"
             y="0"
             id="tspan156">3</tspan></text>
      </g>
    </g>
  </g>
</svg>
