<?xml version="1.0" encoding="UTF-8" standalone="no"?>
<!-- Created with Inkscape (http://www.inkscape.org/) -->

<svg
   version="1.1"
   id="svg2"
   width="492"
   height="246.66667"
   viewBox="0 0 492 246.66667"
   sodipodi:docname="1vrrrpz2pvdsp.pdf"
   xmlns:inkscape="http://www.inkscape.org/namespaces/inkscape"
   xmlns:sodipodi="http://sodipodi.sourceforge.net/DTD/sodipodi-0.dtd"
   xmlns="http://www.w3.org/2000/svg"
   xmlns:svg="http://www.w3.org/2000/svg">
  <defs
     id="defs6">
    <clipPath
       clipPathUnits="userSpaceOnUse"
       id="clipPath48">
      <path
         d="m 77,117 h 13.961 v 17 H 77 Z"
         id="path46" />
    </clipPath>
    <clipPath
       clipPathUnits="userSpaceOnUse"
       id="clipPath66">
      <path
         d="m 80,172 h 5 v 12.32 h -5 z"
         id="path64" />
    </clipPath>
    <clipPath
       clipPathUnits="userSpaceOnUse"
       id="clipPath120">
      <path
         d="m 263,172 h 10 v 12.32 h -10 z"
         id="path118" />
    </clipPath>
  </defs>
  <sodipodi:namedview
     id="namedview4"
     pagecolor="#ffffff"
     bordercolor="#999999"
     borderopacity="1"
     inkscape:showpageshadow="0"
     inkscape:pageopacity="0"
     inkscape:pagecheckerboard="0"
     inkscape:deskcolor="#d1d1d1" />
  <g
     id="g8"
     inkscape:groupmode="layer"
     inkscape:label="1vrrrpz2pvdsp"
     transform="matrix(1.3333333,0,0,1.3333333,0,9.5e-6)">
    <g
       id="g10">
      <path
         d="m 50.27,100.539 -1.262,-0.012 -1.246,-0.222 -1.2,-0.434 -1.097,-0.641 -0.973,-0.824 -0.804,-0.984 -0.622,-1.11 -0.418,-1.199 -0.21,-1.238 -0.012,-1.238 0.183,-1.188 0.352,-1.101 0.496,-0.965 0.598,-0.809 0.66,-0.613 0.683,-0.41 0.664,-0.199 0.594,0.015 0.489,0.215 0.351,0.391 0.176,0.547 -0.012,0.656 -0.219,0.734 -0.425,0.762 -0.625,0.75 -0.813,0.683 -0.973,0.586 -1.101,0.442 -1.199,0.273 -1.25,0.078 -1.262,-0.132 -1.223,-0.344 -1.144,-0.555 -1.031,-0.75 -0.879,-0.922 -0.7,-1.062 -0.507,-1.164 -0.301,-1.227 -0.094,-1.246 0.106,-1.215 0.285,-1.14 0.437,-1.028 0.559,-0.879 0.637,-0.699 0.683,-0.496 0.676,-0.289 0.629,-0.074 0.539,0.129 0.41,0.324 0.254,0.484 0.07,0.613 -0.133,0.708 -0.336,0.753 -0.542,0.762 -0.735,0.715 -0.906,0.633 -1.055,0.508 -1.16,0.347 -1.234,0.164 -1.262,-0.043 -1.242,-0.254 -1.188,-0.468 -1.082,-0.668 -0.945,-0.852 -0.781,-1.008 -0.59,-1.125 -0.387,-1.207 -0.18,-1.242 0.02,-1.23 0.211,-1.18 0.375,-1.082 0.512,-0.945 0.609,-0.778 0.672,-0.586 0.683,-0.379 0.653,-0.164 0.582,0.047 0.469,0.242 0.324,0.418 0.152,0.567 -0.047,0.672 -0.246,0.738 -0.457,0.766 -0.656,0.738 -0.836,0.676 -0.996,0.562 -1.121,0.422 -1.207,0.242 -1.254,0.047 L 22.625,79.164 21.41,78.785 20.277,78.203 19.27,77.426 18.418,76.48 17.746,75.398 17.27,74.223 17,72.988 l -0.062,-1.242 0.132,-1.207 0.309,-1.125 0.461,-1.008 0.57,-0.851 0.652,-0.672 0.68,-0.469 0.672,-0.254 0.617,-0.043 0.524,0.164 0.39,0.344 0.227,0.508 0.039,0.633 -0.16,0.714 -0.371,0.762 -0.571,0.754 -0.761,0.707 -0.934,0.617 -1.07,0.485 -1.176,0.32 -1.242,0.133 -1.262,-0.074 -1.238,-0.286 -1.168,-0.5 L 11.191,70.699 10.27,69.824 9.516,68.797 8.957,67.652 8.602,66.438 8.449,65.195 l 0.055,-1.226 0.234,-1.168 0.399,-1.063 0.531,-0.922 0.621,-0.75 0.676,-0.554 0.68,-0.344 0.644,-0.133 0.57,0.074 0.45,0.274 0.296,0.441 0.125,0.586 -0.078,0.684 -0.277,0.746 -0.488,0.765 -0.684,0.731 -0.863,0.66 -1.016,0.547 L 9.188,64.934 7.969,65.148 6.711,65.164 5.457,64.969 4.254,64.559 3.137,63.945 2.152,63.141 1.324,62.172 0.68,61.074 0.238,59.883 0,58.648"
         style="fill:none;stroke:#000000;stroke-width:0.9216;stroke-linecap:square;stroke-linejoin:miter;stroke-miterlimit:3.25;stroke-dasharray:none;stroke-opacity:1"
         id="path12" />
      <text
         xml:space="preserve"
         transform="translate(9.325619,104.45499)"
         style="font-variant:normal;font-size:21.12px;font-family:CairoFont-0;-inkscape-font-specification:CairoFont-0-0;writing-mode:lr-tb;fill:#000000;fill-opacity:1;fill-rule:nonzero;stroke:none"
         id="text16"><tspan
           x="0"
           y="0"
           id="tspan14">g</tspan></text>
      <path
         d="m 50.27,100.539 -0.239,1.234 -0.441,1.192 -0.645,1.097 -0.828,0.969 -0.984,0.805 -1.117,0.613 -1.204,0.41 -1.253,0.196 -1.258,-0.012 -1.219,-0.215 -1.137,-0.394 -1.015,-0.547 -0.864,-0.66 -0.683,-0.731 -0.488,-0.766 -0.282,-0.746 -0.074,-0.683 0.121,-0.586 0.301,-0.442 0.449,-0.269 0.567,-0.078 0.648,0.133 0.68,0.343 0.675,0.555 0.622,0.75 0.527,0.922 0.398,1.062 0.239,1.168 0.05,1.227 -0.148,1.246 -0.356,1.215 -0.558,1.141 -0.754,1.027 -0.922,0.875 -1.066,0.699 -1.168,0.5 -1.239,0.285 -1.261,0.074 -1.242,-0.132 -1.176,-0.321 -1.071,-0.484 -0.933,-0.617 -0.762,-0.707 -0.574,-0.754 -0.367,-0.762 -0.16,-0.715 0.039,-0.633 0.226,-0.503 0.391,-0.348 0.523,-0.164 0.617,0.043 0.672,0.254 0.68,0.468 0.652,0.672 0.571,0.852 0.461,1.008 0.308,1.125 0.133,1.207 -0.062,1.242 -0.27,1.234 -0.477,1.176 -0.671,1.082 -0.852,0.945 -1.012,0.778 -1.129,0.586 -1.214,0.375 -1.258,0.164 -1.254,-0.047 -1.207,-0.242 -1.121,-0.422 -0.996,-0.563 -0.836,-0.672 -0.657,-0.742 -0.457,-0.761 -0.25,-0.743 -0.043,-0.672 0.153,-0.566 0.324,-0.418 0.469,-0.242 0.582,-0.047 0.652,0.164 0.684,0.379 0.668,0.586 0.613,0.777 0.512,0.946 0.375,1.082 0.211,1.179 0.019,1.231 -0.18,1.242 -0.386,1.207 -0.59,1.129 -0.781,1.004 -0.946,0.851 -1.086,0.672 -1.183,0.465 -1.242,0.254 -1.262,0.043 -1.234,-0.164 -1.161,-0.348 -1.054,-0.508 -0.907,-0.628 -0.734,-0.719 -0.543,-0.758 -0.336,-0.758 -0.133,-0.707 0.071,-0.613 0.254,-0.485 0.41,-0.32 0.539,-0.133 0.629,0.075 0.675,0.289 0.68,0.496 0.641,0.699 0.558,0.879 0.438,1.027 0.285,1.145 0.102,1.215 -0.094,1.242 -0.297,1.226 -0.508,1.168 -0.699,1.059 -0.879,0.922 -1.031,0.75 -1.145,0.554 -1.226,0.344 -1.258,0.133 -1.25,-0.078 -1.199,-0.274 -1.102,-0.441 -0.973,-0.586 -0.812,-0.684 -0.625,-0.746 -0.426,-0.765 -0.219,-0.731 -0.011,-0.66 0.175,-0.543 0.348,-0.394 0.492,-0.215 0.594,-0.016 0.664,0.199 0.684,0.411 0.66,0.617 0.597,0.804 0.493,0.965 0.355,1.102 0.18,1.187 -0.008,1.239 -0.211,1.238 -0.418,1.199 -0.621,1.109 -0.809,0.985 -0.968,0.824 -1.102,0.641 -1.195,0.437 -1.25,0.219 L 0,142.43"
         style="fill:none;stroke:#000000;stroke-width:0.9216;stroke-linecap:square;stroke-linejoin:miter;stroke-miterlimit:3.25;stroke-dasharray:none;stroke-opacity:1"
         id="path18" />
      <text
         xml:space="preserve"
         transform="translate(28.380972,146.3459)"
         style="font-variant:normal;font-size:21.12px;font-family:CairoFont-0;-inkscape-font-specification:CairoFont-0-0;writing-mode:lr-tb;fill:#000000;fill-opacity:1;fill-rule:nonzero;stroke:none"
         id="text22"><tspan
           x="0"
           y="0"
           id="tspan20">g</tspan></text>
      <path
         d="m 167.562,58.648 -50.269,41.891"
         style="fill:none;stroke:#000000;stroke-width:0.9216;stroke-linecap:square;stroke-linejoin:miter;stroke-miterlimit:3.25;stroke-dasharray:none;stroke-opacity:1"
         id="path24" />
      <path
         d="m 146.289,76.375 -9.867,3.863 4.289,5.149 z"
         style="fill:#000000;fill-opacity:1;fill-rule:evenodd;stroke:none"
         id="path26" />
      <text
         xml:space="preserve"
         transform="translate(126.7022,69.949215)"
         style="font-variant:normal;font-size:21.12px;font-family:CairoFont-0;-inkscape-font-specification:CairoFont-0-0;writing-mode:lr-tb;fill:#000000;fill-opacity:1;fill-rule:nonzero;stroke:none"
         id="text30"><tspan
           x="0"
           y="0"
           id="tspan28">u</tspan></text>
      <path
         d="M 167.562,142.43 117.293,100.539"
         style="fill:none;stroke:#000000;stroke-width:0.9216;stroke-linecap:square;stroke-linejoin:miter;stroke-miterlimit:3.25;stroke-dasharray:none;stroke-opacity:1"
         id="path32" />
      <path
         d="m 138.566,118.266 9.872,3.863 -4.293,5.148 z"
         style="fill:#000000;fill-opacity:1;fill-rule:evenodd;stroke:none"
         id="path34" />
      <text
         xml:space="preserve"
         transform="translate(145.67552,111.84013)"
         style="font-variant:normal;font-size:21.12px;font-family:CairoFont-0;-inkscape-font-specification:CairoFont-0-0;writing-mode:lr-tb;fill:#000000;fill-opacity:1;fill-rule:nonzero;stroke:none"
         id="text38"><tspan
           x="0"
           y="0"
           id="tspan36">u</tspan></text>
      <path
         d="m 117.293,100.539 -0.957,0.781 -1.078,0.621 -1.172,0.43 -1.231,0.231 -1.253,0.011 -1.235,-0.207 -1.179,-0.41 -1.094,-0.601 -0.969,-0.766 -0.828,-0.895 -0.664,-0.988 -0.485,-1.035 -0.3,-1.043 -0.125,-1 0.043,-0.914 0.191,-0.797 0.32,-0.633 0.414,-0.453 0.473,-0.246 0.5,-0.031 0.484,0.187 0.434,0.395 0.348,0.582 0.234,0.754 0.086,0.886 -0.074,0.981 -0.25,1.031 -0.434,1.043 -0.613,1.008 -0.781,0.926 -0.93,0.804 -1.063,0.653 -1.16,0.468 -1.222,0.266 -1.25,0.051 -1.239,-0.168 -1.195,-0.375 -1.109,-0.57 -0.996,-0.739 -0.852,-0.875 -0.695,-0.972 -0.516,-1.032 -0.336,-1.043 -0.156,-1.011 0.016,-0.934 0.167,-0.82 0.297,-0.664 0.399,-0.488 0.469,-0.282 0.496,-0.07 0.488,0.148 0.449,0.356 0.367,0.555 0.254,0.722 0.114,0.863 -0.043,0.969 -0.219,1.028 -0.403,1.043 -0.578,1.015 -0.754,0.945 -0.906,0.829 -1.039,0.683 -1.144,0.5 -1.215,0.305 -1.246,0.09 -1.246,-0.129 -1.204,-0.34 -1.128,-0.535 -1.02,-0.711 -0.879,-0.852 -0.723,-0.961 -0.55,-1.023 -0.368,-1.047 -0.187,-1.019 -0.016,-0.95 0.145,-0.843 0.277,-0.696 0.383,-0.519 0.457,-0.321 0.492,-0.109 0.496,0.109 0.457,0.321 0.383,0.519 0.278,0.696 0.14,0.843 -0.015,0.95 -0.188,1.019 -0.367,1.047 -0.551,1.023 -0.723,0.961 -0.879,0.852 -1.019,0.711 -1.125,0.535 -1.207,0.34 -1.242,0.129 -1.25,-0.09 -1.215,-0.305 -1.141,-0.5 -1.039,-0.683 -0.91,-0.829 -0.75,-0.945 -0.582,-1.015 -0.402,-1.043 -0.219,-1.028 -0.043,-0.969 0.117,-0.863 0.254,-0.722 0.367,-0.555 0.446,-0.356 0.488,-0.148 0.5,0.07 0.465,0.282 0.398,0.488 0.297,0.664 0.168,0.82 0.016,0.934 -0.157,1.011 -0.336,1.043 -0.515,1.032 -0.692,0.972 -0.855,0.875 -0.996,0.739 -1.11,0.57 -1.195,0.375 -1.238,0.168 -1.25,-0.051 -1.223,-0.266 -1.16,-0.468 -1.059,-0.653 -0.933,-0.804 -0.781,-0.926 -0.614,-1.008 -0.433,-1.043 -0.25,-1.031 -0.075,-0.981 0.09,-0.886 0.231,-0.754 0.347,-0.582 0.434,-0.395 0.488,-0.187 0.496,0.031 0.477,0.246 0.41,0.453 0.32,0.633 0.192,0.797 0.043,0.914 -0.121,1 -0.305,1.043 -0.484,1.035 -0.664,0.988 -0.825,0.895 -0.972,0.766 -1.094,0.601 -1.18,0.41 -1.234,0.207 -1.25,-0.011 -1.231,-0.231 -1.171,-0.43 -1.082,-0.621 -0.957,-0.781"
         style="fill:none;stroke:#000000;stroke-width:0.9216;stroke-linecap:square;stroke-linejoin:miter;stroke-miterlimit:3.25;stroke-dasharray:none;stroke-opacity:1"
         id="path40" />
    </g>
    <g
       id="g42">
      <g
         id="g44"
         clip-path="url(#clipPath48)">
        <text
           xml:space="preserve"
           transform="translate(77.500568,128.41036)"
           style="font-variant:normal;font-size:21.12px;font-family:CairoFont-0;-inkscape-font-specification:CairoFont-0-0;writing-mode:lr-tb;fill:#000000;fill-opacity:1;fill-rule:nonzero;stroke:none"
           id="text52"><tspan
             x="0"
             y="0"
             id="tspan50">g</tspan></text>
      </g>
    </g>
    <g
       id="g54">
      <path
         d="m 53.957,100.539 c 0,0.977 -0.391,1.914 -1.082,2.606 -0.691,0.691 -1.629,1.078 -2.605,1.078 -0.977,0 -1.915,-0.387 -2.606,-1.078 -0.691,-0.692 -1.082,-1.629 -1.082,-2.606 0,-0.98 0.391,-1.918 1.082,-2.609 0.691,-0.692 1.629,-1.078 2.606,-1.078 0.976,0 1.914,0.386 2.605,1.078 0.691,0.691 1.082,1.629 1.082,2.609 z"
         style="fill:#000000;fill-opacity:1;fill-rule:evenodd;stroke:none"
         id="path56" />
      <path
         d="m 120.98,100.539 c 0,0.977 -0.386,1.914 -1.078,2.606 -0.691,0.691 -1.629,1.078 -2.609,1.078 -0.977,0 -1.914,-0.387 -2.605,-1.078 -0.692,-0.692 -1.079,-1.629 -1.079,-2.606 0,-0.98 0.387,-1.918 1.079,-2.609 0.691,-0.692 1.628,-1.078 2.605,-1.078 0.98,0 1.918,0.386 2.609,1.078 0.692,0.691 1.078,1.629 1.078,2.609 z"
         style="fill:#000000;fill-opacity:1;fill-rule:evenodd;stroke:none"
         id="path58" />
    </g>
    <g
       id="g60">
      <g
         id="g62"
         clip-path="url(#clipPath66)">
        <text
           xml:space="preserve"
           transform="translate(79.055256,184.68097)"
           style="font-variant:normal;font-size:16.8px;font-family:CairoFont-1;-inkscape-font-specification:CairoFont-1-0;writing-mode:lr-tb;fill:#000000;fill-opacity:1;fill-rule:nonzero;stroke:none"
           id="text70"><tspan
             x="0"
             y="0"
             id="tspan68">1</tspan></text>
      </g>
    </g>
    <g
       id="g72">
      <path
         d="m 268.102,67.027 -1.114,0.743 -1.238,0.535 -1.32,0.289 -1.352,0.031 -1.332,-0.227 -1.262,-0.484 -1.144,-0.711 -0.992,-0.906 -0.809,-1.055 -0.594,-1.152 -0.379,-1.184 -0.156,-1.164 0.051,-1.082 0.234,-0.945 0.387,-0.762 0.5,-0.539 0.563,-0.289 0.582,-0.031 0.543,0.234 0.464,0.477 0.332,0.699 0.168,0.879 -0.023,1.015 -0.242,1.09 -0.461,1.11 -0.676,1.066 -0.879,0.969 -1.055,0.816 -1.195,0.621 -1.293,0.387 -1.348,0.137 -1.343,-0.129 -1.293,-0.387 -1.199,-0.625 -1.055,-0.836 -0.883,-1 -0.68,-1.121 -0.464,-1.18 -0.243,-1.179 -0.027,-1.121 0.168,-1.004 0.332,-0.84 0.461,-0.629 0.543,-0.387 0.578,-0.133 0.566,0.129 0.5,0.387 0.391,0.617 0.234,0.813 0.055,0.969 -0.156,1.066 -0.375,1.109 -0.594,1.09 -0.801,1.016 -0.992,0.883 -1.144,0.699 -1.262,0.484 -1.328,0.235 -1.352,-0.028 -1.32,-0.285 -1.238,-0.535 -1.118,-0.758 -0.953,-0.941 -0.761,-1.082 -0.551,-1.164 -0.328,-1.188 -0.11,-1.148 0.094,-1.059 0.27,-0.906 0.418,-0.715 0.515,-0.488 0.574,-0.235 0.575,0.032 0.531,0.285 0.437,0.531 0.301,0.742 0.129,0.914 -0.074,1.031 -0.285,1.102 -0.508,1.105 -0.727,1.051 -0.918,0.942 -1.09,0.777 -1.218,0.57 -1.313,0.332 -1.347,0.078 -1.336,-0.183 -1.278,-0.442 -1.172,-0.675 -1.019,-0.875 -0.84,-1.032 -0.633,-1.14 -0.414,-1.184 -0.195,-1.172 0.015,-1.101 0.208,-0.973 0.363,-0.793 0.48,-0.578 0.559,-0.336 0.582,-0.074 0.555,0.187 0.476,0.438 0.36,0.664 0.199,0.851 0.008,0.993 -0.2,1.082 -0.425,1.109 -0.641,1.082 -0.844,0.988 -1.027,0.848 -1.176,0.656 -1.281,0.43 -1.336,0.18 -1.348,-0.086 -1.308,-0.34 -1.219,-0.59 -1.082,-0.801 -0.914,-0.976 -0.715,-1.106 -0.5,-1.172 -0.281,-1.183 -0.063,-1.137 0.133,-1.027 0.305,-0.871 0.445,-0.668 0.531,-0.43 0.578,-0.18 0.571,0.086 0.515,0.344 0.41,0.578 0.266,0.785 0.086,0.946 -0.117,1.05 -0.336,1.11 -0.559,1.097 -0.765,1.032 -0.961,0.906 -1.121,0.738 -1.246,0.52 -1.321,0.281 -1.351,0.019 -1.328,-0.242 -1.258,-0.496 -1.141,-0.722 -0.984,-0.915 -0.797,-1.058 -0.586,-1.156 -0.363,-1.188 -0.149,-1.16 0.059,-1.074 0.246,-0.938 0.391,-0.754 0.503,-0.527 0.567,-0.277 0.578,-0.016 0.543,0.242 0.457,0.492 0.328,0.707 0.16,0.887 -0.035,1.016 -0.25,1.094 -0.473,1.109 -0.687,1.066 -0.887,0.961 -1.062,0.809 -1.203,0.609 -1.297,0.375 -1.348,0.125 -1.34,-0.14 -1.293,-0.399 -1.191,-0.637 -1.047,-0.847 -0.875,-1.008 -0.668,-1.125 -0.453,-1.18 -0.231,-1.179 -0.019,-1.118 0.176,-0.996 0.336,-0.828 0.468,-0.621 0.547,-0.375 0.578,-0.121 0.563,0.145 0.496,0.394 0.383,0.629 0.23,0.82 0.043,0.973 -0.164,1.07 -0.387,1.11 -0.605,1.089 -0.813,1.008 -0.996,0.875 -1.152,0.692 -1.266,0.472 -1.332,0.223 -1.351,-0.039 -1.317,-0.297 -1.234,-0.547 -1.109,-0.769 -0.946,-0.95"
         style="fill:none;stroke:#000000;stroke-width:0.9216;stroke-linecap:square;stroke-linejoin:miter;stroke-miterlimit:3.25;stroke-dasharray:none;stroke-opacity:1"
         id="path74" />
      <text
         xml:space="preserve"
         transform="translate(218.63749,90.644098)"
         style="font-variant:normal;font-size:21.12px;font-family:CairoFont-0;-inkscape-font-specification:CairoFont-0-0;writing-mode:lr-tb;fill:#000000;fill-opacity:1;fill-rule:nonzero;stroke:none"
         id="text78"><tspan
           x="0"
           y="0"
           id="tspan76">g</tspan></text>
      <path
         d="m 268.102,134.051 -0.946,0.949 -1.109,0.77 -1.235,0.546 -1.316,0.301 -1.351,0.035 -1.333,-0.222 -1.265,-0.469 -1.152,-0.691 -0.997,-0.875 -0.812,-1.012 -0.606,-1.086 -0.386,-1.109 -0.164,-1.071 0.043,-0.972 0.23,-0.825 0.383,-0.625 0.496,-0.398 0.563,-0.145 0.578,0.121 0.547,0.379 0.468,0.618 0.336,0.828 0.176,1 -0.02,1.117 -0.23,1.176 -0.453,1.183 -0.668,1.121 -0.875,1.012 -1.047,0.844 -1.191,0.637 -1.293,0.398 -1.34,0.141 -1.348,-0.122 -1.297,-0.378 -1.203,-0.61 -1.062,-0.808 -0.887,-0.961 -0.688,-1.067 -0.472,-1.105 -0.25,-1.094 -0.035,-1.02 0.16,-0.886 0.328,-0.707 0.457,-0.489 0.539,-0.246 0.582,0.016 0.566,0.281 0.504,0.528 0.391,0.75 0.246,0.937 0.059,1.074 -0.149,1.164 -0.363,1.188 -0.586,1.152 -0.797,1.059 -0.984,0.914 -1.141,0.723 -1.258,0.496 -1.328,0.242 -1.351,-0.02 -1.321,-0.277 -1.246,-0.523 -1.121,-0.735 -0.961,-0.91 -0.765,-1.031 -0.559,-1.098 -0.336,-1.105 -0.117,-1.055 0.086,-0.945 0.265,-0.782 0.411,-0.578 0.515,-0.344 0.571,-0.085 0.578,0.175 0.531,0.434 0.441,0.668 0.309,0.867 0.133,1.031 -0.063,1.133 -0.281,1.184 -0.5,1.176 -0.715,1.101 -0.914,0.977 -1.082,0.804 -1.219,0.586 -1.308,0.344 -1.348,0.082 -1.336,-0.18 -1.281,-0.429 -1.176,-0.657 -1.027,-0.847 -0.844,-0.989 -0.641,-1.078 -0.425,-1.109 -0.2,-1.082 0.008,-0.996 0.199,-0.852 0.36,-0.66 0.476,-0.441 0.555,-0.188 0.582,0.074 0.559,0.336 0.48,0.578 0.363,0.797 0.207,0.973 0.016,1.098 -0.195,1.172 -0.414,1.187 -0.633,1.137 -0.84,1.031 -1.02,0.875 -1.171,0.676 -1.278,0.441 -1.336,0.188 -1.347,-0.078 -1.313,-0.336 -1.219,-0.571 -1.089,-0.777 -0.918,-0.941 -0.727,-1.051 -0.508,-1.106 -0.285,-1.097 -0.074,-1.035 0.129,-0.915 0.301,-0.742 0.437,-0.527 0.531,-0.289 0.574,-0.027 0.575,0.234 0.515,0.484 0.418,0.715 0.27,0.91 0.094,1.055 -0.11,1.152 -0.328,1.188 -0.551,1.16 -0.761,1.082 -0.954,0.941 -1.117,0.758 -1.238,0.535 -1.32,0.289 -1.352,0.024 -1.328,-0.234 -1.262,-0.485 -1.144,-0.699 -0.992,-0.883 -0.801,-1.012 -0.594,-1.093 -0.375,-1.11 -0.156,-1.066 0.054,-0.969 0.235,-0.812 0.39,-0.618 0.5,-0.382 0.567,-0.133 0.578,0.133 0.543,0.39 0.461,0.629 0.332,0.836 0.168,1.004 -0.027,1.121 -0.243,1.18 -0.465,1.179 -0.679,1.122 -0.883,1.003 -1.055,0.832 -1.199,0.629 -1.293,0.383 -1.344,0.129 -1.347,-0.133 -1.293,-0.39 -1.196,-0.618 -1.054,-0.816 -0.879,-0.969 -0.676,-1.07 -0.461,-1.109 -0.242,-1.09 -0.023,-1.012 0.167,-0.883 0.333,-0.695 0.464,-0.481 0.543,-0.23 0.582,0.027 0.563,0.289 0.5,0.539 0.387,0.762 0.234,0.945 0.051,1.083 -0.157,1.164 -0.378,1.187 -0.594,1.149 -0.809,1.054 -0.992,0.906 -1.144,0.711 -1.262,0.485 -1.332,0.23 -1.352,-0.031 -1.32,-0.293 -1.238,-0.535 -1.114,-0.742"
         style="fill:none;stroke:#000000;stroke-width:0.9216;stroke-linecap:square;stroke-linejoin:miter;stroke-miterlimit:3.25;stroke-dasharray:none;stroke-opacity:1"
         id="path80" />
      <text
         xml:space="preserve"
         transform="translate(221.22183,166.04773)"
         style="font-variant:normal;font-size:21.12px;font-family:CairoFont-0;-inkscape-font-specification:CairoFont-0-0;writing-mode:lr-tb;fill:#000000;fill-opacity:1;fill-rule:nonzero;stroke:none"
         id="text84"><tspan
           x="0"
           y="0"
           id="tspan82">g</tspan></text>
      <path
         d="m 351.883,58.648 -83.781,8.379"
         style="fill:none;stroke:#000000;stroke-width:0.9216;stroke-linecap:square;stroke-linejoin:miter;stroke-miterlimit:3.25;stroke-dasharray:none;stroke-opacity:1"
         id="path86" />
      <path
         d="M 314.996,62.336 304.656,60 l 0.668,6.672 z"
         style="fill:#000000;fill-opacity:1;fill-rule:evenodd;stroke:none"
         id="path88" />
      <text
         xml:space="preserve"
         transform="translate(302.46032,50.247379)"
         style="font-variant:normal;font-size:21.12px;font-family:CairoFont-0;-inkscape-font-specification:CairoFont-0-0;writing-mode:lr-tb;fill:#000000;fill-opacity:1;fill-rule:nonzero;stroke:none"
         id="text92"><tspan
           x="0"
           y="0"
           id="tspan90">u</tspan></text>
      <path
         d="m 351.883,142.43 -83.781,-8.379"
         style="fill:none;stroke:#000000;stroke-width:0.9216;stroke-linecap:square;stroke-linejoin:miter;stroke-miterlimit:3.25;stroke-dasharray:none;stroke-opacity:1"
         id="path94" />
      <path
         d="m 304.992,137.738 10.336,-2.332 -0.668,6.668 z"
         style="fill:#000000;fill-opacity:1;fill-rule:evenodd;stroke:none"
         id="path96" />
      <text
         xml:space="preserve"
         transform="translate(305.04467,125.65102)"
         style="font-variant:normal;font-size:21.12px;font-family:CairoFont-0;-inkscape-font-specification:CairoFont-0-0;writing-mode:lr-tb;fill:#000000;fill-opacity:1;fill-rule:nonzero;stroke:none"
         id="text100"><tspan
           x="0"
           y="0"
           id="tspan98">u</tspan></text>
      <path
         d="m 268.102,67.027 v 67.024"
         style="fill:none;stroke:#000000;stroke-width:0.9216;stroke-linecap:square;stroke-linejoin:miter;stroke-miterlimit:3.25;stroke-dasharray:none;stroke-opacity:1"
         id="path102" />
      <path
         d="m 268.102,95.512 -3.352,10.054 h 6.703 z"
         style="fill:#000000;fill-opacity:1;fill-rule:evenodd;stroke:none"
         id="path104" />
      <text
         xml:space="preserve"
         transform="translate(247.70229,108.14756)"
         style="font-variant:normal;font-size:21.12px;font-family:CairoFont-0;-inkscape-font-specification:CairoFont-0-0;writing-mode:lr-tb;fill:#000000;fill-opacity:1;fill-rule:nonzero;stroke:none"
         id="text108"><tspan
           x="0"
           y="0"
           id="tspan106">u</tspan></text>
      <path
         d="m 271.789,67.027 c 0,0.977 -0.391,1.914 -1.082,2.606 -0.691,0.691 -1.629,1.078 -2.605,1.078 -0.977,0 -1.914,-0.387 -2.606,-1.078 -0.691,-0.692 -1.082,-1.629 -1.082,-2.606 0,-0.98 0.391,-1.918 1.082,-2.609 0.692,-0.691 1.629,-1.078 2.606,-1.078 0.976,0 1.914,0.387 2.605,1.078 0.691,0.691 1.082,1.629 1.082,2.609 z"
         style="fill:#000000;fill-opacity:1;fill-rule:evenodd;stroke:none"
         id="path110" />
      <path
         d="m 271.789,134.051 c 0,0.976 -0.391,1.914 -1.082,2.605 -0.691,0.692 -1.629,1.082 -2.605,1.082 -0.977,0 -1.914,-0.39 -2.606,-1.082 -0.691,-0.691 -1.082,-1.629 -1.082,-2.605 0,-0.977 0.391,-1.914 1.082,-2.606 0.692,-0.691 1.629,-1.082 2.606,-1.082 0.976,0 1.914,0.391 2.605,1.082 0.691,0.692 1.082,1.629 1.082,2.606 z"
         style="fill:#000000;fill-opacity:1;fill-rule:evenodd;stroke:none"
         id="path112" />
    </g>
    <g
       id="g114">
      <g
         id="g116"
         clip-path="url(#clipPath120)">
        <text
           xml:space="preserve"
           transform="translate(263.37526,184.68097)"
           style="font-variant:normal;font-size:16.8px;font-family:CairoFont-1;-inkscape-font-specification:CairoFont-1-0;writing-mode:lr-tb;fill:#000000;fill-opacity:1;fill-rule:nonzero;stroke:none"
           id="text124"><tspan
             x="0"
             y="0"
             id="tspan122">2</tspan></text>
      </g>
    </g>
  </g>
</svg>
