<?xml version="1.0" encoding="UTF-8" standalone="no"?>
<!-- Created with Inkscape (http://www.inkscape.org/) -->

<svg
   version="1.1"
   id="svg2"
   width="492"
   height="246.66667"
   viewBox="0 0 492 246.66667"
   sodipodi:docname="1vy1iw6ip51gn.pdf"
   xmlns:inkscape="http://www.inkscape.org/namespaces/inkscape"
   xmlns:sodipodi="http://sodipodi.sourceforge.net/DTD/sodipodi-0.dtd"
   xmlns="http://www.w3.org/2000/svg"
   xmlns:svg="http://www.w3.org/2000/svg">
  <defs
     id="defs6">
    <clipPath
       clipPathUnits="userSpaceOnUse"
       id="clipPath52">
      <path
         d="m 80,117 h 10.238 v 16 H 80 Z"
         id="path50" />
    </clipPath>
    <clipPath
       clipPathUnits="userSpaceOnUse"
       id="clipPath70">
      <path
         d="m 80,172 h 5 v 12.32 h -5 z"
         id="path68" />
    </clipPath>
  </defs>
  <sodipodi:namedview
     id="namedview4"
     pagecolor="#ffffff"
     bordercolor="#999999"
     borderopacity="1"
     inkscape:showpageshadow="0"
     inkscape:pageopacity="0"
     inkscape:pagecheckerboard="0"
     inkscape:deskcolor="#d1d1d1" />
  <g
     id="g8"
     inkscape:groupmode="layer"
     inkscape:label="1vy1iw6ip51gn"
     transform="matrix(1.3333333,0,0,1.3333333,0,9.5e-6)">
    <g
       id="g10">
      <path
         d="m 0,58.648 50.27,41.891"
         style="fill:none;stroke:#000000;stroke-width:0.9216;stroke-linecap:square;stroke-linejoin:miter;stroke-miterlimit:3.25;stroke-dasharray:none;stroke-opacity:1"
         id="path12" />
      <path
         d="m 28.996,82.812 -9.867,-3.863 4.289,-5.148 z"
         style="fill:#000000;fill-opacity:1;fill-rule:evenodd;stroke:none"
         id="path14" />
      <text
         xml:space="preserve"
         transform="translate(9.665463,104.45499)"
         style="font-variant:normal;font-size:20.16px;font-family:CairoFont-0;-inkscape-font-specification:CairoFont-0-1;writing-mode:lr-tb;fill:#000000;fill-opacity:1;fill-rule:nonzero;stroke:none"
         id="text18"><tspan
           x="0"
           y="0"
           id="tspan16">μ</tspan></text>
      <path
         d="M 0,142.43 50.27,100.539"
         style="fill:none;stroke:#000000;stroke-width:0.9216;stroke-linecap:square;stroke-linejoin:miter;stroke-miterlimit:3.25;stroke-dasharray:none;stroke-opacity:1"
         id="path20" />
      <path
         d="m 21.273,124.703 9.868,-3.863 -4.289,-5.149 z"
         style="fill:#000000;fill-opacity:1;fill-rule:evenodd;stroke:none"
         id="path22" />
      <text
         xml:space="preserve"
         transform="translate(28.380972,146.3459)"
         style="font-variant:normal;font-size:20.16px;font-family:CairoFont-0;-inkscape-font-specification:CairoFont-0-1;writing-mode:lr-tb;fill:#000000;fill-opacity:1;fill-rule:nonzero;stroke:none"
         id="text26"><tspan
           x="0"
           y="0"
           id="tspan24">μ</tspan></text>
      <path
         d="m 167.562,58.648 -50.269,41.891"
         style="fill:none;stroke:#000000;stroke-width:0.9216;stroke-linecap:square;stroke-linejoin:miter;stroke-miterlimit:3.25;stroke-dasharray:none;stroke-opacity:1"
         id="path28" />
      <path
         d="m 146.289,76.375 -9.867,3.863 4.289,5.149 z"
         style="fill:#000000;fill-opacity:1;fill-rule:evenodd;stroke:none"
         id="path30" />
      <text
         xml:space="preserve"
         transform="translate(126.7022,69.949215)"
         style="font-variant:normal;font-size:21.12px;font-family:CairoFont-1;-inkscape-font-specification:CairoFont-1-0;writing-mode:lr-tb;fill:#000000;fill-opacity:1;fill-rule:nonzero;stroke:none"
         id="text34"><tspan
           x="0"
           y="0"
           id="tspan32">u</tspan></text>
      <path
         d="M 167.562,142.43 117.293,100.539"
         style="fill:none;stroke:#000000;stroke-width:0.9216;stroke-linecap:square;stroke-linejoin:miter;stroke-miterlimit:3.25;stroke-dasharray:none;stroke-opacity:1"
         id="path36" />
      <path
         d="m 138.566,118.266 9.872,3.863 -4.293,5.148 z"
         style="fill:#000000;fill-opacity:1;fill-rule:evenodd;stroke:none"
         id="path38" />
      <text
         xml:space="preserve"
         transform="translate(145.67552,111.84013)"
         style="font-variant:normal;font-size:21.12px;font-family:CairoFont-1;-inkscape-font-specification:CairoFont-1-0;writing-mode:lr-tb;fill:#000000;fill-opacity:1;fill-rule:nonzero;stroke:none"
         id="text42"><tspan
           x="0"
           y="0"
           id="tspan40">u</tspan></text>
      <path
         d="m 117.293,100.539 -0.836,-0.727 -0.84,-0.632 -0.836,-0.469 -0.84,-0.242 -0.836,0.015 -0.839,0.27 -0.836,0.488 -0.836,0.649 -0.84,0.73 -0.836,0.719 -0.84,0.621 -0.836,0.445 -0.84,0.215 -0.836,-0.043 -0.839,-0.297 -0.836,-0.511 -0.84,-0.661 -0.836,-0.734 -0.84,-0.711 -0.836,-0.605 -0.84,-0.422 -0.836,-0.184 -0.84,0.07 -0.835,0.325 -0.84,0.531 -0.836,0.672 -0.84,0.738 -0.836,0.703 -0.84,0.586 -0.836,0.399 -0.836,0.156 -0.84,-0.098 -0.836,-0.347 -0.839,-0.551 -0.836,-0.688 -0.84,-0.734 -0.836,-0.695 -0.84,-0.571 -0.836,-0.371 -0.84,-0.133 -0.836,0.133 -0.84,0.371 -0.835,0.571 -0.84,0.695 -0.836,0.734 -0.84,0.688 -0.836,0.551 -0.84,0.347 -0.836,0.098 -0.84,-0.156 -0.836,-0.399 -0.839,-0.586 -0.836,-0.703 -0.84,-0.738 -0.836,-0.672 -0.84,-0.531 -0.836,-0.325 -0.836,-0.07 -0.84,0.184 -0.836,0.422 -0.839,0.605 -0.836,0.711 -0.84,0.734 -0.836,0.661 -0.84,0.511 -0.836,0.297 -0.84,0.043 -0.836,-0.215 -0.84,-0.445 -0.836,-0.621 -0.839,-0.719 -0.836,-0.73 -0.84,-0.649 -0.836,-0.488 -0.84,-0.27 -0.836,-0.015 -0.84,0.242 -0.836,0.469 -0.84,0.632 -0.835,0.727"
         style="fill:none;stroke:#000000;stroke-width:0.9216;stroke-linecap:square;stroke-linejoin:miter;stroke-miterlimit:3.25;stroke-dasharray:none;stroke-opacity:1"
         id="path44" />
    </g>
    <g
       id="g46">
      <g
         id="g48"
         clip-path="url(#clipPath52)">
        <text
           xml:space="preserve"
           transform="translate(78.203693,128.41036)"
           style="font-variant:normal;font-size:20.16px;font-family:CairoFont-0;-inkscape-font-specification:CairoFont-0-1;writing-mode:lr-tb;fill:#000000;fill-opacity:1;fill-rule:nonzero;stroke:none"
           id="text56"><tspan
             x="0"
             y="0"
             id="tspan54">γ</tspan></text>
      </g>
    </g>
    <g
       id="g58">
      <path
         d="m 53.957,100.539 c 0,0.977 -0.391,1.914 -1.082,2.606 -0.691,0.691 -1.629,1.078 -2.605,1.078 -0.977,0 -1.915,-0.387 -2.606,-1.078 -0.691,-0.692 -1.082,-1.629 -1.082,-2.606 0,-0.98 0.391,-1.918 1.082,-2.609 0.691,-0.692 1.629,-1.078 2.606,-1.078 0.976,0 1.914,0.386 2.605,1.078 0.691,0.691 1.082,1.629 1.082,2.609 z"
         style="fill:#000000;fill-opacity:1;fill-rule:evenodd;stroke:none"
         id="path60" />
      <path
         d="m 120.98,100.539 c 0,0.977 -0.386,1.914 -1.078,2.606 -0.691,0.691 -1.629,1.078 -2.609,1.078 -0.977,0 -1.914,-0.387 -2.605,-1.078 -0.692,-0.692 -1.079,-1.629 -1.079,-2.606 0,-0.98 0.387,-1.918 1.079,-2.609 0.691,-0.692 1.628,-1.078 2.605,-1.078 0.98,0 1.918,0.386 2.609,1.078 0.692,0.691 1.078,1.629 1.078,2.609 z"
         style="fill:#000000;fill-opacity:1;fill-rule:evenodd;stroke:none"
         id="path62" />
    </g>
    <g
       id="g64">
      <g
         id="g66"
         clip-path="url(#clipPath70)">
        <text
           xml:space="preserve"
           transform="translate(79.055256,184.68097)"
           style="font-variant:normal;font-size:16.8px;font-family:CairoFont-2;-inkscape-font-specification:CairoFont-2-0;writing-mode:lr-tb;fill:#000000;fill-opacity:1;fill-rule:nonzero;stroke:none"
           id="text74"><tspan
             x="0"
             y="0"
             id="tspan72">1</tspan></text>
      </g>
    </g>
  </g>
</svg>
