<?xml version="1.0" encoding="UTF-8"?>
<svg xmlns="http://www.w3.org/2000/svg" xmlns:xlink="http://www.w3.org/1999/xlink" width="185pt" height="93pt" viewBox="0 0 185 93">
<defs>
<g>
<g id="glyph-0-0">
<path d="M 1.5 0 L 0.21875 0 L 3.90625 -4.03125 L 2.0625 -7.890625 L 3.40625 -7.890625 L 4.78125 -4.859375 L 7.421875 -7.890625 L 8.703125 -7.890625 L 5.234375 -4.03125 L 7.15625 0 L 5.8125 0 L 4.375 -3.234375 Z M 1.5 0 "/>
</g>
<g id="glyph-1-0">
<path d="M 0.765625 -3.953125 L 0.765625 -4.5 C 1.265625 -4.546875 1.625 -4.625 1.828125 -4.75 C 2.03125 -4.859375 2.171875 -5.140625 2.265625 -5.5625 L 2.828125 -5.5625 L 2.828125 0 L 2.078125 0 L 2.078125 -3.953125 Z M 0.765625 -3.953125 "/>
</g>
</g>
<clipPath id="clip-0">
<path clip-rule="nonzero" d="M 40 86 L 43 86 L 43 92.160156 L 40 92.160156 Z M 40 86 "/>
</clipPath>
</defs>
<path fill-rule="evenodd" fill="rgb(100%, 99.998474%, 100%)" fill-opacity="1" d="M 0 0 L 184.320312 0 L 184.320312 92.160156 L 0 92.160156 Z M 0 0 "/>
<path fill="none" stroke-width="0.4608" stroke-linecap="square" stroke-linejoin="miter" stroke="rgb(0%, 0%, 0%)" stroke-opacity="1" stroke-miterlimit="3.25" d="M 0 50.269531 L 41.890625 50.269531 "/>
<path fill-rule="evenodd" fill="rgb(0%, 0%, 0%)" fill-opacity="1" d="M 23.457031 50.269531 L 18.433594 51.945312 L 18.433594 48.59375 Z M 23.457031 50.269531 "/>
<g fill="rgb(0%, 0%, 0%)" fill-opacity="1">
<use xlink:href="#glyph-0-0" x="16.791158" y="64.681745"/>
</g>
<path fill="none" stroke-width="0.4608" stroke-linecap="square" stroke-linejoin="miter" stroke="rgb(0%, 0%, 0%)" stroke-opacity="1" stroke-miterlimit="3.25" d="M 83.78125 50.269531 L 41.890625 50.269531 "/>
<path fill-rule="evenodd" fill="rgb(0%, 0%, 0%)" fill-opacity="1" d="M 65.351562 50.269531 L 60.324219 48.59375 L 60.324219 51.945312 Z M 65.351562 50.269531 "/>
<g fill="rgb(0%, 0%, 0%)" fill-opacity="1">
<use xlink:href="#glyph-0-0" x="58.682067" y="43.840812"/>
</g>
<path fill="none" stroke-width="1.3824" stroke-linecap="square" stroke-linejoin="miter" stroke="rgb(0%, 0%, 0%)" stroke-opacity="1" stroke-miterlimit="3.25" d="M 39.796875 52.363281 L 43.984375 48.175781 "/>
<path fill="none" stroke-width="1.3824" stroke-linecap="square" stroke-linejoin="miter" stroke="rgb(0%, 0%, 0%)" stroke-opacity="1" stroke-miterlimit="3.25" d="M 39.796875 48.175781 L 43.984375 52.363281 "/>
<g clip-path="url(#clip-0)">
<g fill="rgb(0%, 0%, 0%)" fill-opacity="1">
<use xlink:href="#glyph-1-0" x="39.672159" y="92.45767"/>
</g>
</g>
</svg>
