<?xml version="1.0" encoding="UTF-8" standalone="no"?>
<!-- Created with Inkscape (http://www.inkscape.org/) -->

<svg
   version="1.1"
   id="svg2"
   width="384"
   height="20"
   viewBox="0 0 384 20"
   sodipodi:docname="0sqx3a3ja9c2n.pdf"
   xmlns:inkscape="http://www.inkscape.org/namespaces/inkscape"
   xmlns:sodipodi="http://sodipodi.sourceforge.net/DTD/sodipodi-0.dtd"
   xmlns="http://www.w3.org/2000/svg"
   xmlns:svg="http://www.w3.org/2000/svg">
  <defs
     id="defs6">
    <clipPath
       clipPathUnits="userSpaceOnUse"
       id="clipPath18">
      <path
         d="m 0,3 h 12.961 v 8.762 H 0 Z"
         id="path16" />
    </clipPath>
  </defs>
  <sodipodi:namedview
     id="namedview4"
     pagecolor="#ffffff"
     bordercolor="#999999"
     borderopacity="1"
     inkscape:showpageshadow="0"
     inkscape:pageopacity="0"
     inkscape:pagecheckerboard="0"
     inkscape:deskcolor="#d1d1d1" />
  <g
     id="g8"
     inkscape:groupmode="layer"
     inkscape:label="0sqx3a3ja9c2n"
     transform="scale(1.3333333)">
    <g
       id="g10" />
    <g
       id="g12">
      <g
         id="g14"
         clip-path="url(#clipPath18)">
        <path
           d="m 12.113,6.73 c 0,-1.554 -1.261,-2.816 -2.816,-2.816 H 3.664 c -1.559,0 -2.82,1.262 -2.82,2.816 v 1.551 c 0,1.555 1.261,2.817 2.82,2.817 h 5.633 c 1.555,0 2.816,-1.262 2.816,-2.817 V 6.73"
           style="fill:none;stroke:#e5e5e5;stroke-width:0.7128;stroke-linecap:square;stroke-linejoin:miter;stroke-miterlimit:3.25;stroke-dasharray:none;stroke-opacity:1"
           id="path20" />
        <path
           d="M 7.258,7.508 C 7.258,7.711 7.176,7.91 7.031,8.055 6.883,8.203 6.688,8.285 6.48,8.285 6.273,8.285 6.074,8.203 5.93,8.055 5.785,7.91 5.703,7.711 5.703,7.508 5.703,7.301 5.785,7.102 5.93,6.957 6.074,6.809 6.273,6.727 6.48,6.727 c 0.208,0 0.403,0.082 0.551,0.23 0.145,0.145 0.227,0.344 0.227,0.551 z"
           style="fill:#ff5454;fill-opacity:1;fill-rule:evenodd;stroke:none"
           id="path22" />
        <path
           d="M 10.074,7.508 C 10.074,7.711 9.992,7.91 9.848,8.055 9.703,8.203 9.504,8.285 9.297,8.285 9.09,8.285 8.895,8.203 8.746,8.055 8.602,7.91 8.52,7.711 8.52,7.508 8.52,7.301 8.602,7.102 8.746,6.957 8.895,6.809 9.09,6.727 9.297,6.727 c 0.207,0 0.406,0.082 0.551,0.23 0.144,0.145 0.226,0.344 0.226,0.551 z"
           style="fill:#ff5454;fill-opacity:1;fill-rule:evenodd;stroke:none"
           id="path24" />
        <path
           d="M 4.441,7.508 C 4.441,7.711 4.359,7.91 4.211,8.055 4.066,8.203 3.867,8.285 3.664,8.285 3.457,8.285 3.258,8.203 3.113,8.055 2.969,7.91 2.887,7.711 2.887,7.508 c 0,-0.207 0.082,-0.406 0.226,-0.551 0.145,-0.148 0.344,-0.23 0.551,-0.23 0.203,0 0.402,0.082 0.547,0.23 0.148,0.145 0.23,0.344 0.23,0.551 z"
           style="fill:#ff5454;fill-opacity:1;fill-rule:evenodd;stroke:none"
           id="path26" />
      </g>
    </g>
    <g
       id="g28">
      <text
         xml:space="preserve"
         transform="translate(14.60225,10)"
         style="font-variant:normal;font-size:7.92px;font-family:CairoFont-0;-inkscape-font-specification:CairoFont-0-0;writing-mode:lr-tb;fill:#dd1100;fill-opacity:1;fill-rule:nonzero;stroke:none"
         id="text32"><tspan
           x="0 4.1500802 6.19344 13.59864 15.642"
           y="0"
           sodipodi:role="line"
           id="tspan30">Limit</tspan></text>
      <text
         xml:space="preserve"
         transform="translate(33.9785,10)"
         style="font-variant:normal;font-size:7.92px;font-family:CairoFont-0;-inkscape-font-specification:CairoFont-0-0;writing-mode:lr-tb;fill:#000000;fill-opacity:1;fill-rule:nonzero;stroke:none"
         id="text36"><tspan
           x="0"
           y="0"
           id="tspan34">:</tspan></text>
      <text
         xml:space="preserve"
         transform="translate(39.721375,10)"
         style="font-variant:normal;font-size:7.92px;font-family:CairoFont-0;-inkscape-font-specification:CairoFont-0-0;writing-mode:lr-tb;fill:#898989;fill-opacity:1;fill-rule:nonzero;stroke:none"
         id="text40"><tspan
           x="0 7.3656001 11.80872 15.07968 19.974239 22.017599 26.912161 32.060162 36.281521 41.3424 45.136082 48.92976 53.824322 61.229519 66.100319 68.959442 71.0028 75.770638 80.665199 86.969521 89.828644 94.723198 99.166321 104.21928 106.26264 111.1572 115.18056 119.97216 122.01552 126.03888 132.81049 135.6696 140.56416 147.20113 149.24448 151.28784 158.69304 160.7364 165.81313 169.83649 174.2796 177.55057 179.59392 184.03703 188.90784 190.92744 197.74657 202.18968 205.46065 212.10551 214.14888 219.01968 223.91425 228.70584 231.97681 236.44368 241.54416"
           y="0"
           sodipodi:role="line"
           id="tspan38">Warning:Assumptionsthatinvolvethelimitvariableareignored.</tspan></text>
    </g>
  </g>
</svg>
