<?xml version="1.0" encoding="UTF-8" standalone="no"?>
<!-- Created with Inkscape (http://www.inkscape.org/) -->

<svg
   version="1.1"
   id="svg2"
   width="492"
   height="246.66667"
   viewBox="0 0 492 246.66667"
   sodipodi:docname="0zhg0w73lhlw0.pdf"
   xmlns:inkscape="http://www.inkscape.org/namespaces/inkscape"
   xmlns:sodipodi="http://sodipodi.sourceforge.net/DTD/sodipodi-0.dtd"
   xmlns="http://www.w3.org/2000/svg"
   xmlns:svg="http://www.w3.org/2000/svg">
  <defs
     id="defs6">
    <clipPath
       clipPathUnits="userSpaceOnUse"
       id="clipPath66">
      <path
         d="m 80,172 h 5 v 12.32 h -5 z"
         id="path64" />
    </clipPath>
    <clipPath
       clipPathUnits="userSpaceOnUse"
       id="clipPath128">
      <path
         d="m 263,172 h 10 v 12.32 h -10 z"
         id="path126" />
    </clipPath>
  </defs>
  <sodipodi:namedview
     id="namedview4"
     pagecolor="#ffffff"
     bordercolor="#999999"
     borderopacity="1"
     inkscape:showpageshadow="0"
     inkscape:pageopacity="0"
     inkscape:pagecheckerboard="0"
     inkscape:deskcolor="#d1d1d1" />
  <g
     id="g8"
     inkscape:groupmode="layer"
     inkscape:label="0zhg0w73lhlw0"
     transform="matrix(1.3333333,0,0,1.3333333,0,9.5e-6)">
    <g
       id="g10">
      <path
         d="M 0,100.539 H 54.457"
         style="fill:none;stroke:#000000;stroke-width:0.9216;stroke-linecap:butt;stroke-linejoin:miter;stroke-miterlimit:3.25;stroke-dasharray:5.5296, 5.5296;stroke-dashoffset:0;stroke-opacity:1"
         id="path12" />
      <text
         xml:space="preserve"
         transform="translate(18.826747,126.31582)"
         style="font-variant:normal;font-size:21.12px;font-family:CairoFont-0;-inkscape-font-specification:CairoFont-0-0;writing-mode:lr-tb;fill:#000000;fill-opacity:1;fill-rule:nonzero;stroke:none"
         id="text16"><tspan
           x="0"
           y="0"
           id="tspan14">H</tspan></text>
      <path
         d="m 108.918,67.027 0.906,-1.015 1.09,-0.824 1.227,-0.594 1.324,-0.336 1.363,-0.055 1.348,0.219 1.281,0.48 1.156,0.711 0.996,0.903 0.793,1.039 0.575,1.113 0.339,1.125 0.106,1.07 -0.11,0.953 -0.304,0.782 -0.457,0.562 -0.563,0.309 -0.625,0.035 -0.621,-0.242 -0.57,-0.512 -0.461,-0.754 -0.313,-0.953 -0.121,-1.109 0.094,-1.204 0.328,-1.234 0.559,-1.199 0.785,-1.102 0.984,-0.941 1.153,-0.734 1.273,-0.493 1.348,-0.222 1.363,0.054 1.328,0.329 1.235,0.578 1.097,0.796 0.918,0.961 0.707,1.079 0.477,1.125 0.246,1.113 0.016,1.031 -0.196,0.887 -0.367,0.699 -0.508,0.461 -0.594,0.199 -0.628,-0.078 -0.61,-0.351 -0.531,-0.614 -0.406,-0.84 -0.239,-1.027 -0.039,-1.152 0.188,-1.223 0.426,-1.23 0.652,-1.164 0.867,-1.043 1.059,-0.864 1.207,-0.64 1.308,-0.387 1.36,-0.109 1.355,0.167 1.297,0.434 1.184,0.672 1.031,0.867 0.836,1.02 0.613,1.101 0.383,1.129 0.152,1.086 -0.074,0.981 -0.266,0.816 -0.433,0.609 -0.547,0.356 -0.613,0.09 -0.629,-0.192 -0.582,-0.461 -0.489,-0.711 -0.343,-0.918 -0.16,-1.086 0.054,-1.191 0.282,-1.23 0.515,-1.211 0.746,-1.125 0.949,-0.977 1.122,-0.777 1.253,-0.539 1.336,-0.278 1.368,0.004 1.335,0.278 1.258,0.535 1.125,0.758 0.953,0.933 0.75,1.063 0.524,1.121 0.289,1.117 0.059,1.051 -0.157,0.922 -0.34,0.738 -0.484,0.508 -0.582,0.25 -0.625,-0.024 -0.617,-0.301 -0.551,-0.566 -0.434,-0.801 -0.273,-0.992 -0.078,-1.137 0.144,-1.214 0.379,-1.231 0.61,-1.184 0.832,-1.07 1.023,-0.902 1.184,-0.688 1.293,-0.433 1.355,-0.164 1.36,0.117 1.312,0.383 1.207,0.629 1.063,0.835 0.875,0.997 0.656,1.089 0.43,1.129 0.195,1.102 -0.031,1.004 -0.235,0.851 -0.406,0.653 -0.527,0.406 -0.606,0.141 -0.629,-0.141 -0.597,-0.41 -0.508,-0.664 -0.375,-0.883 -0.199,-1.059 0.011,-1.175 0.239,-1.231 0.472,-1.219 0.703,-1.144 0.911,-1.008 1.093,-0.82 1.235,-0.586 1.324,-0.328 1.363,-0.051 1.348,0.226 1.277,0.489 1.152,0.718"
         style="fill:none;stroke:#000000;stroke-width:0.9216;stroke-linecap:square;stroke-linejoin:miter;stroke-miterlimit:3.25;stroke-dasharray:none;stroke-opacity:1"
         id="path18" />
      <text
         xml:space="preserve"
         transform="translate(130.12223,50.313449)"
         style="font-variant:normal;font-size:21.12px;font-family:CairoFont-0;-inkscape-font-specification:CairoFont-0-0;writing-mode:lr-tb;fill:#000000;fill-opacity:1;fill-rule:nonzero;stroke:none"
         id="text22"><tspan
           x="0"
           y="0"
           id="tspan20">g</tspan></text>
      <path
         d="m 108.918,134.051 1.152,-0.719 1.278,-0.488 1.347,-0.227 1.364,0.051 1.324,0.328 1.234,0.586 1.09,0.82 0.914,1.008 0.703,1.145 0.473,1.222 0.238,1.227 0.008,1.176 -0.195,1.058 -0.375,0.883 -0.508,0.664 -0.598,0.414 -0.629,0.137 -0.605,-0.141 -0.528,-0.406 -0.406,-0.648 -0.234,-0.856 -0.031,-1.004 0.195,-1.097 0.426,-1.129 0.66,-1.094 0.875,-0.992 1.062,-0.836 1.207,-0.633 1.313,-0.383 1.359,-0.113 1.356,0.16 1.293,0.438 1.183,0.683 1.024,0.903 0.832,1.07 0.609,1.183 0.379,1.231 0.141,1.219 -0.075,1.132 -0.273,0.993 -0.434,0.8 -0.55,0.567 -0.618,0.301 -0.625,0.027 -0.582,-0.254 -0.484,-0.508 -0.34,-0.738 -0.156,-0.918 0.059,-1.051 0.289,-1.121 0.523,-1.121 0.746,-1.059 0.957,-0.937 1.125,-0.758 1.258,-0.535 1.336,-0.277 h 1.367 l 1.336,0.273 1.254,0.539 1.121,0.781 0.949,0.977 0.746,1.121 0.516,1.211 0.281,1.234 0.055,1.188 -0.16,1.086 -0.344,0.922 -0.488,0.707 -0.582,0.461 -0.629,0.191 -0.614,-0.086 -0.546,-0.359 -0.434,-0.606 -0.27,-0.816 -0.07,-0.981 0.149,-1.086 0.386,-1.129 0.614,-1.105 0.836,-1.016 1.031,-0.871 1.183,-0.672 1.297,-0.433 1.356,-0.168 1.359,0.109 1.309,0.387 1.207,0.641 1.054,0.863 0.872,1.043 0.652,1.168 0.422,1.226 0.187,1.223 -0.035,1.156 -0.238,1.024 -0.406,0.84 -0.532,0.613 -0.609,0.355 -0.629,0.078 -0.594,-0.199 -0.508,-0.465 -0.367,-0.695 -0.195,-0.891 0.016,-1.031 0.246,-1.109 0.476,-1.129 0.707,-1.074 0.918,-0.965 1.098,-0.797 1.234,-0.578 1.328,-0.328 1.364,-0.055 1.347,0.223 1.274,0.492 1.148,0.734 0.989,0.946 0.781,1.097 0.562,1.199 0.328,1.235 0.094,1.203 -0.121,1.109 -0.312,0.957 -0.465,0.75 -0.567,0.512 -0.625,0.242 -0.621,-0.035 -0.562,-0.309 -0.457,-0.558 -0.305,-0.781 -0.109,-0.953 0.105,-1.071 0.34,-1.125 0.57,-1.117 0.797,-1.035 0.996,-0.902 1.156,-0.715 1.282,-0.481 1.347,-0.219 1.364,0.059 1.32,0.332 1.23,0.594 1.09,0.828 0.906,1.012"
         style="fill:none;stroke:#000000;stroke-width:0.9216;stroke-linecap:square;stroke-linejoin:miter;stroke-miterlimit:3.25;stroke-dasharray:none;stroke-opacity:1"
         id="path24" />
      <text
         xml:space="preserve"
         transform="translate(129.29283,171.78745)"
         style="font-variant:normal;font-size:21.12px;font-family:CairoFont-0;-inkscape-font-specification:CairoFont-0-0;writing-mode:lr-tb;fill:#000000;fill-opacity:1;fill-rule:nonzero;stroke:none"
         id="text28"><tspan
           x="0"
           y="0"
           id="tspan26">g</tspan></text>
      <path
         d="M 54.457,100.539 108.918,67.027"
         style="fill:none;stroke:#000000;stroke-width:0.9216;stroke-linecap:square;stroke-linejoin:miter;stroke-miterlimit:3.25;stroke-dasharray:none;stroke-opacity:1"
         id="path30" />
      <path
         d="M 77.406,86.418 87.727,84 84.211,78.293 Z"
         style="fill:#000000;fill-opacity:1;fill-rule:evenodd;stroke:none"
         id="path32" />
      <text
         xml:space="preserve"
         transform="translate(70.514442,70.197784)"
         style="font-variant:normal;font-size:21.12px;font-family:CairoFont-0;-inkscape-font-specification:CairoFont-0-0;writing-mode:lr-tb;fill:#000000;fill-opacity:1;fill-rule:nonzero;stroke:none"
         id="text36"><tspan
           x="0"
           y="0"
           id="tspan34">t</tspan></text>
      <path
         d="m 54.457,100.539 54.461,33.512"
         style="fill:none;stroke:#000000;stroke-width:0.9216;stroke-linecap:square;stroke-linejoin:miter;stroke-miterlimit:3.25;stroke-dasharray:none;stroke-opacity:1"
         id="path38" />
      <path
         d="m 85.969,119.93 -10.321,-2.414 3.516,-5.711 z"
         style="fill:#000000;fill-opacity:1;fill-rule:evenodd;stroke:none"
         id="path40" />
      <text
         xml:space="preserve"
         transform="translate(70.514442,146.09733)"
         style="font-variant:normal;font-size:21.12px;font-family:CairoFont-0;-inkscape-font-specification:CairoFont-0-0;writing-mode:lr-tb;fill:#000000;fill-opacity:1;fill-rule:nonzero;stroke:none"
         id="text44"><tspan
           x="0"
           y="0"
           id="tspan42">t</tspan></text>
      <path
         d="m 108.918,67.027 v 67.024"
         style="fill:none;stroke:#000000;stroke-width:0.9216;stroke-linecap:square;stroke-linejoin:miter;stroke-miterlimit:3.25;stroke-dasharray:none;stroke-opacity:1"
         id="path46" />
      <path
         d="m 108.918,95.512 -3.352,10.054 h 6.704 z"
         style="fill:#000000;fill-opacity:1;fill-rule:evenodd;stroke:none"
         id="path48" />
      <text
         xml:space="preserve"
         transform="translate(118.54541,108.14756)"
         style="font-variant:normal;font-size:21.12px;font-family:CairoFont-0;-inkscape-font-specification:CairoFont-0-0;writing-mode:lr-tb;fill:#000000;fill-opacity:1;fill-rule:nonzero;stroke:none"
         id="text52"><tspan
           x="0"
           y="0"
           id="tspan50">t</tspan></text>
      <path
         d="m 58.145,100.539 c 0,0.977 -0.387,1.914 -1.079,2.606 -0.691,0.691 -1.628,1.078 -2.609,1.078 -0.977,0 -1.914,-0.387 -2.605,-1.078 -0.692,-0.692 -1.079,-1.629 -1.079,-2.606 0,-0.98 0.387,-1.918 1.079,-2.609 0.691,-0.692 1.628,-1.078 2.605,-1.078 0.981,0 1.918,0.386 2.609,1.078 0.692,0.691 1.079,1.629 1.079,2.609 z"
         style="fill:#000000;fill-opacity:1;fill-rule:evenodd;stroke:none"
         id="path54" />
      <path
         d="m 112.602,67.027 c 0,0.977 -0.387,1.914 -1.079,2.606 -0.691,0.691 -1.628,1.078 -2.605,1.078 -0.98,0 -1.918,-0.387 -2.609,-1.078 -0.692,-0.692 -1.079,-1.629 -1.079,-2.606 0,-0.98 0.387,-1.918 1.079,-2.609 0.691,-0.691 1.629,-1.078 2.609,-1.078 0.977,0 1.914,0.387 2.605,1.078 0.692,0.691 1.079,1.629 1.079,2.609 z"
         style="fill:#000000;fill-opacity:1;fill-rule:evenodd;stroke:none"
         id="path56" />
      <path
         d="m 112.602,134.051 c 0,0.976 -0.387,1.914 -1.079,2.605 -0.691,0.692 -1.628,1.082 -2.605,1.082 -0.98,0 -1.918,-0.39 -2.609,-1.082 -0.692,-0.691 -1.079,-1.629 -1.079,-2.605 0,-0.977 0.387,-1.914 1.079,-2.606 0.691,-0.691 1.629,-1.082 2.609,-1.082 0.977,0 1.914,0.391 2.605,1.082 0.692,0.692 1.079,1.629 1.079,2.606 z"
         style="fill:#000000;fill-opacity:1;fill-rule:evenodd;stroke:none"
         id="path58" />
    </g>
    <g
       id="g60">
      <g
         id="g62"
         clip-path="url(#clipPath66)">
        <text
           xml:space="preserve"
           transform="translate(79.055256,184.68097)"
           style="font-variant:normal;font-size:16.8px;font-family:CairoFont-1;-inkscape-font-specification:CairoFont-1-0;writing-mode:lr-tb;fill:#000000;fill-opacity:1;fill-rule:nonzero;stroke:none"
           id="text70"><tspan
             x="0"
             y="0"
             id="tspan68">1</tspan></text>
      </g>
    </g>
    <g
       id="g72">
      <path
         d="m 184.32,100.539 h 54.457"
         style="fill:none;stroke:#000000;stroke-width:0.9216;stroke-linecap:butt;stroke-linejoin:miter;stroke-miterlimit:3.25;stroke-dasharray:5.5296, 5.5296;stroke-dashoffset:0;stroke-opacity:1"
         id="path74" />
      <text
         xml:space="preserve"
         transform="translate(203.14675,126.31582)"
         style="font-variant:normal;font-size:21.12px;font-family:CairoFont-0;-inkscape-font-specification:CairoFont-0-0;writing-mode:lr-tb;fill:#000000;fill-opacity:1;fill-rule:nonzero;stroke:none"
         id="text78"><tspan
           x="0"
           y="0"
           id="tspan76">H</tspan></text>
      <path
         d="m 293.238,67.027 0.907,-1.015 1.085,-0.824 1.231,-0.594 1.324,-0.336 1.363,-0.055 1.348,0.219 1.281,0.48 1.157,0.711 0.996,0.903 0.793,1.039 0.574,1.113 0.34,1.125 0.105,1.07 -0.113,0.953 -0.301,0.782 -0.457,0.562 -0.566,0.309 -0.621,0.035 -0.622,-0.242 -0.57,-0.512 -0.461,-0.754 -0.312,-0.953 -0.121,-1.109 0.093,-1.204 0.329,-1.234 0.558,-1.199 0.785,-1.102 0.985,-0.941 1.152,-0.734 1.273,-0.493 1.348,-0.222 1.363,0.054 1.325,0.329 1.238,0.578 1.098,0.796 0.914,0.961 0.711,1.079 0.476,1.125 0.246,1.113 0.016,1.031 -0.196,0.887 -0.371,0.699 -0.503,0.461 -0.594,0.199 -0.629,-0.078 -0.61,-0.351 -0.531,-0.614 -0.406,-0.84 -0.238,-1.027 -0.039,-1.152 0.187,-1.223 0.426,-1.23 0.652,-1.164 0.867,-1.043 1.059,-0.864 1.207,-0.64 1.309,-0.387 1.359,-0.109 1.355,0.167 1.297,0.434 1.184,0.672 1.031,0.867 0.832,1.02 0.617,1.101 0.383,1.129 0.153,1.086 -0.075,0.981 -0.269,0.816 -0.43,0.609 -0.547,0.356 -0.617,0.09 -0.625,-0.192 -0.582,-0.461 -0.488,-0.711 -0.344,-0.918 -0.16,-1.086 0.051,-1.191 0.285,-1.23 0.515,-1.211 0.747,-1.125 0.949,-0.977 1.121,-0.777 1.254,-0.539 1.336,-0.278 1.367,0.004 1.336,0.278 1.258,0.535 1.125,0.758 0.953,0.933 0.75,1.063 0.523,1.121 0.289,1.117 0.059,1.051 -0.156,0.922 -0.34,0.738 -0.485,0.508 -0.582,0.25 -0.625,-0.024 -0.617,-0.301 -0.551,-0.566 -0.433,-0.801 -0.274,-0.992 -0.078,-1.137 0.145,-1.214 0.379,-1.231 0.609,-1.184 0.832,-1.07 1.024,-0.902 1.183,-0.688 1.293,-0.433 1.352,-0.164 1.363,0.117 1.309,0.383 1.21,0.629 1.063,0.835 0.875,0.997 0.656,1.089 0.43,1.129 0.191,1.102 -0.031,1.004 -0.23,0.851 -0.407,0.653 -0.527,0.406 -0.609,0.141 -0.625,-0.141 -0.598,-0.41 -0.508,-0.664 -0.375,-0.883 -0.199,-1.059 0.012,-1.175 0.238,-1.231 0.473,-1.219 0.703,-1.144 0.91,-1.008 1.094,-0.82 1.234,-0.586 1.324,-0.328 1.363,-0.051 1.348,0.226 1.277,0.489 1.153,0.718"
         style="fill:none;stroke:#000000;stroke-width:0.9216;stroke-linecap:square;stroke-linejoin:miter;stroke-miterlimit:3.25;stroke-dasharray:none;stroke-opacity:1"
         id="path80" />
      <text
         xml:space="preserve"
         transform="translate(314.44223,50.313449)"
         style="font-variant:normal;font-size:21.12px;font-family:CairoFont-0;-inkscape-font-specification:CairoFont-0-0;writing-mode:lr-tb;fill:#000000;fill-opacity:1;fill-rule:nonzero;stroke:none"
         id="text84"><tspan
           x="0"
           y="0"
           id="tspan82">g</tspan></text>
      <path
         d="m 293.238,134.051 1.153,-0.719 1.277,-0.488 1.348,-0.227 1.363,0.051 1.324,0.328 1.235,0.586 1.089,0.82 0.914,1.008 0.704,1.145 0.472,1.222 0.238,1.227 0.008,1.176 -0.195,1.058 -0.375,0.883 -0.508,0.664 -0.597,0.414 -0.629,0.137 -0.606,-0.141 -0.531,-0.406 -0.402,-0.648 -0.235,-0.856 -0.031,-1.004 0.195,-1.097 0.426,-1.129 0.66,-1.094 0.875,-0.992 1.063,-0.836 1.207,-0.633 1.312,-0.383 1.36,-0.113 1.355,0.16 1.293,0.438 1.184,0.683 1.023,0.903 0.828,1.07 0.613,1.183 0.375,1.231 0.145,1.219 -0.074,1.132 -0.274,0.993 -0.437,0.8 -0.547,0.567 -0.617,0.301 -0.625,0.027 -0.582,-0.254 -0.485,-0.508 -0.339,-0.738 -0.157,-0.918 0.059,-1.051 0.289,-1.121 0.523,-1.121 0.746,-1.059 0.957,-0.937 1.125,-0.758 1.258,-0.535 1.336,-0.277 h 1.367 l 1.336,0.273 1.254,0.539 1.121,0.781 0.95,0.977 0.746,1.121 0.515,1.211 0.282,1.234 0.054,1.188 -0.16,1.086 -0.344,0.922 -0.488,0.707 -0.582,0.461 -0.629,0.191 -0.613,-0.086 -0.547,-0.359 -0.434,-0.606 -0.269,-0.816 -0.071,-0.981 0.149,-1.086 0.383,-1.129 0.617,-1.105 0.836,-1.016 1.027,-0.871 1.188,-0.672 1.297,-0.433 1.351,-0.168 1.363,0.109 1.309,0.387 1.207,0.641 1.055,0.863 0.871,1.043 0.652,1.168 0.422,1.226 0.188,1.223 -0.036,1.156 -0.238,1.024 -0.406,0.84 -0.535,0.613 -0.606,0.355 -0.629,0.078 -0.593,-0.199 -0.508,-0.465 -0.367,-0.695 -0.196,-0.891 0.016,-1.031 0.246,-1.109 0.477,-1.129 0.707,-1.074 0.918,-0.965 1.097,-0.797 1.235,-0.578 1.328,-0.328 1.363,-0.055 1.348,0.223 1.273,0.492 1.149,0.734 0.984,0.946 0.785,1.097 0.563,1.199 0.328,1.235 0.093,1.203 -0.121,1.109 -0.312,0.957 -0.465,0.75 -0.566,0.512 -0.625,0.242 -0.622,-0.035 -0.562,-0.309 -0.457,-0.558 -0.305,-0.781 -0.109,-0.953 0.105,-1.071 0.34,-1.125 0.571,-1.117 0.796,-1.035 0.997,-0.902 1.156,-0.715 1.281,-0.481 1.348,-0.219 1.363,0.059 1.32,0.332 1.231,0.594 1.09,0.828 0.906,1.012"
         style="fill:none;stroke:#000000;stroke-width:0.9216;stroke-linecap:square;stroke-linejoin:miter;stroke-miterlimit:3.25;stroke-dasharray:none;stroke-opacity:1"
         id="path86" />
      <text
         xml:space="preserve"
         transform="translate(313.61283,171.78745)"
         style="font-variant:normal;font-size:21.12px;font-family:CairoFont-0;-inkscape-font-specification:CairoFont-0-0;writing-mode:lr-tb;fill:#000000;fill-opacity:1;fill-rule:nonzero;stroke:none"
         id="text90"><tspan
           x="0"
           y="0"
           id="tspan88">g</tspan></text>
      <path
         d="M 238.777,100.539 293.238,67.027"
         style="fill:none;stroke:#000000;stroke-width:0.9216;stroke-linecap:square;stroke-linejoin:miter;stroke-miterlimit:3.25;stroke-dasharray:none;stroke-opacity:1"
         id="path92" />
      <path
         d="m 270.289,81.148 -6.805,8.122 -3.515,-5.708 z"
         style="fill:#000000;fill-opacity:1;fill-rule:evenodd;stroke:none"
         id="path94" />
      <text
         xml:space="preserve"
         transform="translate(254.83444,70.197784)"
         style="font-variant:normal;font-size:21.12px;font-family:CairoFont-0;-inkscape-font-specification:CairoFont-0-0;writing-mode:lr-tb;fill:#000000;fill-opacity:1;fill-rule:nonzero;stroke:none"
         id="text98"><tspan
           x="0"
           y="0"
           id="tspan96">t</tspan></text>
      <path
         d="m 238.777,100.539 54.461,33.512"
         style="fill:none;stroke:#000000;stroke-width:0.9216;stroke-linecap:square;stroke-linejoin:miter;stroke-miterlimit:3.25;stroke-dasharray:none;stroke-opacity:1"
         id="path100" />
      <path
         d="m 261.727,114.66 6.804,8.125 3.512,-5.711 z"
         style="fill:#000000;fill-opacity:1;fill-rule:evenodd;stroke:none"
         id="path102" />
      <text
         xml:space="preserve"
         transform="translate(254.83444,146.09733)"
         style="font-variant:normal;font-size:21.12px;font-family:CairoFont-0;-inkscape-font-specification:CairoFont-0-0;writing-mode:lr-tb;fill:#000000;fill-opacity:1;fill-rule:nonzero;stroke:none"
         id="text106"><tspan
           x="0"
           y="0"
           id="tspan104">t</tspan></text>
      <path
         d="m 293.238,67.027 v 67.024"
         style="fill:none;stroke:#000000;stroke-width:0.9216;stroke-linecap:square;stroke-linejoin:miter;stroke-miterlimit:3.25;stroke-dasharray:none;stroke-opacity:1"
         id="path108" />
      <path
         d="m 293.238,105.566 -3.351,-10.054 h 6.699 z"
         style="fill:#000000;fill-opacity:1;fill-rule:evenodd;stroke:none"
         id="path110" />
      <text
         xml:space="preserve"
         transform="translate(302.86541,108.14756)"
         style="font-variant:normal;font-size:21.12px;font-family:CairoFont-0;-inkscape-font-specification:CairoFont-0-0;writing-mode:lr-tb;fill:#000000;fill-opacity:1;fill-rule:nonzero;stroke:none"
         id="text114"><tspan
           x="0"
           y="0"
           id="tspan112">t</tspan></text>
      <path
         d="m 242.465,100.539 c 0,0.977 -0.387,1.914 -1.078,2.606 -0.692,0.691 -1.629,1.078 -2.61,1.078 -0.976,0 -1.914,-0.387 -2.605,-1.078 -0.692,-0.692 -1.082,-1.629 -1.082,-2.606 0,-0.98 0.39,-1.918 1.082,-2.609 0.691,-0.692 1.629,-1.078 2.605,-1.078 0.981,0 1.918,0.386 2.61,1.078 0.691,0.691 1.078,1.629 1.078,2.609 z"
         style="fill:#000000;fill-opacity:1;fill-rule:evenodd;stroke:none"
         id="path116" />
      <path
         d="m 296.922,67.027 c 0,0.977 -0.387,1.914 -1.078,2.606 -0.692,0.691 -1.629,1.078 -2.606,1.078 -0.98,0 -1.918,-0.387 -2.609,-1.078 -0.691,-0.692 -1.078,-1.629 -1.078,-2.606 0,-0.98 0.387,-1.918 1.078,-2.609 0.691,-0.691 1.629,-1.078 2.609,-1.078 0.977,0 1.914,0.387 2.606,1.078 0.691,0.691 1.078,1.629 1.078,2.609 z"
         style="fill:#000000;fill-opacity:1;fill-rule:evenodd;stroke:none"
         id="path118" />
      <path
         d="m 296.922,134.051 c 0,0.976 -0.387,1.914 -1.078,2.605 -0.692,0.692 -1.629,1.082 -2.606,1.082 -0.98,0 -1.918,-0.39 -2.609,-1.082 -0.691,-0.691 -1.078,-1.629 -1.078,-2.605 0,-0.977 0.387,-1.914 1.078,-2.606 0.691,-0.691 1.629,-1.082 2.609,-1.082 0.977,0 1.914,0.391 2.606,1.082 0.691,0.692 1.078,1.629 1.078,2.606 z"
         style="fill:#000000;fill-opacity:1;fill-rule:evenodd;stroke:none"
         id="path120" />
    </g>
    <g
       id="g122">
      <g
         id="g124"
         clip-path="url(#clipPath128)">
        <text
           xml:space="preserve"
           transform="translate(263.37526,184.68097)"
           style="font-variant:normal;font-size:16.8px;font-family:CairoFont-1;-inkscape-font-specification:CairoFont-1-0;writing-mode:lr-tb;fill:#000000;fill-opacity:1;fill-rule:nonzero;stroke:none"
           id="text132"><tspan
             x="0"
             y="0"
             id="tspan130">2</tspan></text>
      </g>
    </g>
  </g>
</svg>
