<?xml version="1.0" encoding="UTF-8" standalone="no"?>
<!-- Created with Inkscape (http://www.inkscape.org/) -->

<svg
   version="1.1"
   id="svg2"
   width="737.33331"
   height="246.66667"
   viewBox="0 0 737.33331 246.66667"
   sodipodi:docname="0hzxh0okgt6g9.pdf"
   xmlns:inkscape="http://www.inkscape.org/namespaces/inkscape"
   xmlns:sodipodi="http://sodipodi.sourceforge.net/DTD/sodipodi-0.dtd"
   xmlns="http://www.w3.org/2000/svg"
   xmlns:svg="http://www.w3.org/2000/svg">
  <defs
     id="defs6">
    <clipPath
       clipPathUnits="userSpaceOnUse"
       id="clipPath44">
      <path
         d="m 114,137 h 9.602 v 16 H 114 Z"
         id="path42" />
    </clipPath>
    <clipPath
       clipPathUnits="userSpaceOnUse"
       id="clipPath68">
      <path
         d="m 47,57 h 9.641 V 73 H 47 Z"
         id="path66" />
    </clipPath>
    <clipPath
       clipPathUnits="userSpaceOnUse"
       id="clipPath124">
      <path
         d="m 223,66 h 10.039 V 82 H 223 Z"
         id="path122" />
    </clipPath>
    <clipPath
       clipPathUnits="userSpaceOnUse"
       id="clipPath156">
      <path
         d="m 306,66 h 10.078 V 82 H 306 Z"
         id="path154" />
    </clipPath>
    <clipPath
       clipPathUnits="userSpaceOnUse"
       id="clipPath190">
      <path
         d="m 506,117 h 11.922 v 12 H 506 Z"
         id="path188" />
    </clipPath>
    <clipPath
       clipPathUnits="userSpaceOnUse"
       id="clipPath206">
      <path
         d="m 449,151 h 9.879 v 16 H 449 Z"
         id="path204" />
    </clipPath>
    <clipPath
       clipPathUnits="userSpaceOnUse"
       id="clipPath238">
      <path
         d="m 449,102 h 9.879 v 15 H 449 Z"
         id="path236" />
    </clipPath>
  </defs>
  <sodipodi:namedview
     id="namedview4"
     pagecolor="#ffffff"
     bordercolor="#999999"
     borderopacity="1"
     inkscape:showpageshadow="0"
     inkscape:pageopacity="0"
     inkscape:pagecheckerboard="0"
     inkscape:deskcolor="#d1d1d1" />
  <g
     id="g8"
     inkscape:groupmode="layer"
     inkscape:label="0hzxh0okgt6g9"
     transform="matrix(1.3333333,0,0,1.3333333,0,9.5e-6)">
    <g
       id="g10">
      <path
         d="M 0,100.539 H 50.27"
         style="fill:none;stroke:#000000;stroke-width:0.9216;stroke-linecap:square;stroke-linejoin:miter;stroke-miterlimit:3.25;stroke-dasharray:none;stroke-opacity:1"
         id="path12" />
      <path
         d="m 30.16,100.539 -10.051,3.352 v -6.703 z"
         style="fill:#000000;fill-opacity:1;fill-rule:evenodd;stroke:none"
         id="path14" />
      <text
         xml:space="preserve"
         transform="translate(19.057436,128.41036)"
         style="font-variant:normal;font-size:21.12px;font-family:CairoFont-0;-inkscape-font-specification:CairoFont-0-0;writing-mode:lr-tb;fill:#000000;fill-opacity:1;fill-rule:nonzero;stroke:none"
         id="text18"><tspan
           x="0"
           y="0"
           id="tspan16">e</tspan></text>
      <path
         d="M 167.562,100.539 H 117.293"
         style="fill:none;stroke:#000000;stroke-width:0.9216;stroke-linecap:square;stroke-linejoin:miter;stroke-miterlimit:3.25;stroke-dasharray:none;stroke-opacity:1"
         id="path20" />
      <path
         d="m 147.457,100.539 -10.055,-3.351 v 6.703 z"
         style="fill:#000000;fill-opacity:1;fill-rule:evenodd;stroke:none"
         id="path22" />
      <text
         xml:space="preserve"
         transform="translate(136.35198,87.884749)"
         style="font-variant:normal;font-size:21.12px;font-family:CairoFont-0;-inkscape-font-specification:CairoFont-0-0;writing-mode:lr-tb;fill:#000000;fill-opacity:1;fill-rule:nonzero;stroke:none"
         id="text26"><tspan
           x="0"
           y="0"
           id="tspan24">e</tspan></text>
      <path
         d="m 50.27,100.539 c -0.317,8.981 3.113,17.691 9.468,24.043 6.352,6.356 15.063,9.785 24.043,9.469"
         style="fill:none;stroke:#000000;stroke-width:0.9216;stroke-linecap:square;stroke-linejoin:miter;stroke-miterlimit:3.25;stroke-dasharray:none;stroke-opacity:1"
         id="path28" />
      <path
         d="m 63.289,128.137 -9.477,-4.739 4.739,-4.738 z"
         style="fill:#000000;fill-opacity:1;fill-rule:evenodd;stroke:none"
         id="path30" />
      <text
         xml:space="preserve"
         transform="translate(43.466725,148.65218)"
         style="font-variant:normal;font-size:21.12px;font-family:CairoFont-0;-inkscape-font-specification:CairoFont-0-0;writing-mode:lr-tb;fill:#000000;fill-opacity:1;fill-rule:nonzero;stroke:none"
         id="text34"><tspan
           x="0"
           y="0"
           id="tspan32">e</tspan></text>
      <path
         d="m 117.293,100.539 -0.738,0.828 -0.668,0.797 -0.52,0.774 -0.308,0.777 -0.075,0.793 0.157,0.828 0.355,0.883 0.488,0.933 0.532,0.981 0.496,1.008 0.363,1.007 0.16,0.981 -0.086,0.918 -0.359,0.828 -0.61,0.723 -0.82,0.617 -0.969,0.523 -1.031,0.453 -1.012,0.422 -0.914,0.438 -0.75,0.496 -0.558,0.594 -0.352,0.722 -0.168,0.856 -0.027,0.98 0.051,1.074 0.05,1.125 -0.019,1.114 -0.152,1.039 -0.336,0.91 -0.532,0.734 -0.738,0.535 -0.91,0.332 -1.039,0.153 -1.113,0.019 -1.121,-0.05 -1.075,-0.047 -0.984,0.027 -0.856,0.168 -0.718,0.352 -0.598,0.554 -0.496,0.754 -0.438,0.914 -0.421,1.008 -0.454,1.035 -0.519,0.965 -0.617,0.824 -0.727,0.61 -0.828,0.355 -0.918,0.09 -0.976,-0.164 -1.012,-0.363 -1.008,-0.493 -0.98,-0.535 -0.934,-0.484 -0.879,-0.356 -0.832,-0.16 -0.793,0.074 -0.773,0.313 -0.778,0.516 -0.797,0.671 -0.828,0.739"
         style="fill:none;stroke:#000000;stroke-width:0.9216;stroke-linecap:square;stroke-linejoin:miter;stroke-miterlimit:3.25;stroke-dasharray:none;stroke-opacity:1"
         id="path36" />
    </g>
    <g
       id="g38">
      <g
         id="g40"
         clip-path="url(#clipPath44)">
        <text
           xml:space="preserve"
           transform="translate(111.57405,148.28354)"
           style="font-variant:normal;font-size:20.16px;font-family:CairoFont-1;-inkscape-font-specification:CairoFont-1-1;writing-mode:lr-tb;fill:#000000;fill-opacity:1;fill-rule:nonzero;stroke:none"
           id="text48"><tspan
             x="0"
             y="0"
             id="tspan46">γ</tspan></text>
      </g>
    </g>
    <g
       id="g50">
      <path
         d="m 83.781,67.027 v 67.024"
         style="fill:none;stroke:#000000;stroke-width:0.9216;stroke-linecap:square;stroke-linejoin:miter;stroke-miterlimit:3.25;stroke-dasharray:none;stroke-opacity:1"
         id="path52" />
      <path
         d="m 83.781,95.512 -3.351,10.054 h 6.703 z"
         style="fill:#000000;fill-opacity:1;fill-rule:evenodd;stroke:none"
         id="path54" />
      <text
         xml:space="preserve"
         transform="translate(91.700876,108.14756)"
         style="font-variant:normal;font-size:21.12px;font-family:CairoFont-0;-inkscape-font-specification:CairoFont-0-0;writing-mode:lr-tb;fill:#000000;fill-opacity:1;fill-rule:nonzero;stroke:none"
         id="text58"><tspan
           x="0"
           y="0"
           id="tspan56">e</tspan></text>
      <path
         d="m 50.27,100.539 0.71,-0.836 0.645,-0.805 0.5,-0.777 0.305,-0.769 0.074,-0.786 -0.152,-0.816 -0.344,-0.859 -0.485,-0.911 -0.539,-0.953 -0.511,-0.988 -0.395,-0.992 -0.215,-0.977 0.028,-0.922 0.285,-0.847 0.539,-0.75 0.758,-0.649 0.918,-0.55 1.004,-0.477 1.007,-0.434 0.934,-0.429 0.797,-0.477 0.613,-0.555 0.418,-0.671 0.223,-0.797 0.074,-0.922 -0.027,-1.031 -0.059,-1.094 -0.02,-1.11 0.086,-1.07 0.243,-0.965 0.429,-0.816 0.633,-0.633 0.816,-0.433 0.969,-0.243 1.067,-0.086 1.109,0.02 1.098,0.059 1.027,0.027 0.926,-0.07 0.797,-0.227 0.668,-0.414 0.558,-0.613 0.473,-0.797 0.434,-0.934 0.433,-1.008 0.477,-1.004 0.55,-0.918 0.645,-0.761 0.75,-0.539 0.848,-0.285 0.925,-0.024 0.973,0.211 0.996,0.398 0.985,0.512 0.957,0.539 0.91,0.481 0.859,0.347 0.813,0.153 0.785,-0.074 0.769,-0.305 0.782,-0.504 0.8,-0.645 0.836,-0.707"
         style="fill:none;stroke:#000000;stroke-width:0.9216;stroke-linecap:square;stroke-linejoin:miter;stroke-miterlimit:3.25;stroke-dasharray:none;stroke-opacity:1"
         id="path60" />
    </g>
    <g
       id="g62">
      <g
         id="g64"
         clip-path="url(#clipPath68)">
        <text
           xml:space="preserve"
           transform="translate(44.615501,67.793739)"
           style="font-variant:normal;font-size:20.16px;font-family:CairoFont-1;-inkscape-font-specification:CairoFont-1-1;writing-mode:lr-tb;fill:#000000;fill-opacity:1;fill-rule:nonzero;stroke:none"
           id="text72"><tspan
             x="0"
             y="0"
             id="tspan70">γ</tspan></text>
      </g>
    </g>
    <g
       id="g74">
      <path
         d="M 117.293,100.539 C 117.258,82.047 102.273,67.062 83.781,67.027"
         style="fill:none;stroke:#000000;stroke-width:0.9216;stroke-linecap:square;stroke-linejoin:miter;stroke-miterlimit:3.25;stroke-dasharray:none;stroke-opacity:1"
         id="path76" />
      <path
         d="m 111.012,80.414 -4.739,-9.476 -4.738,4.738 z"
         style="fill:#000000;fill-opacity:1;fill-rule:evenodd;stroke:none"
         id="path78" />
      <text
         xml:space="preserve"
         transform="translate(111.57405,68.011572)"
         style="font-variant:normal;font-size:21.12px;font-family:CairoFont-0;-inkscape-font-specification:CairoFont-0-0;writing-mode:lr-tb;fill:#000000;fill-opacity:1;fill-rule:nonzero;stroke:none"
         id="text82"><tspan
           x="0"
           y="0"
           id="tspan80">e</tspan></text>
      <path
         d="m 87.469,67.027 c 0,0.977 -0.391,1.914 -1.082,2.606 -0.692,0.691 -1.629,1.078 -2.606,1.078 -0.976,0 -1.914,-0.387 -2.605,-1.078 -0.692,-0.692 -1.082,-1.629 -1.082,-2.606 0,-0.98 0.39,-1.918 1.082,-2.609 0.691,-0.691 1.629,-1.078 2.605,-1.078 0.977,0 1.914,0.387 2.606,1.078 0.691,0.691 1.082,1.629 1.082,2.609 z"
         style="fill:#000000;fill-opacity:1;fill-rule:evenodd;stroke:none"
         id="path84" />
      <path
         d="m 87.469,134.051 c 0,0.976 -0.391,1.914 -1.082,2.605 -0.692,0.692 -1.629,1.082 -2.606,1.082 -0.976,0 -1.914,-0.39 -2.605,-1.082 -0.692,-0.691 -1.082,-1.629 -1.082,-2.605 0,-0.977 0.39,-1.914 1.082,-2.606 0.691,-0.691 1.629,-1.082 2.605,-1.082 0.977,0 1.914,0.391 2.606,1.082 0.691,0.692 1.082,1.629 1.082,2.606 z"
         style="fill:#000000;fill-opacity:1;fill-rule:evenodd;stroke:none"
         id="path86" />
      <path
         d="m 53.957,100.539 c 0,0.977 -0.391,1.914 -1.082,2.606 -0.691,0.691 -1.629,1.078 -2.605,1.078 -0.977,0 -1.915,-0.387 -2.606,-1.078 -0.691,-0.692 -1.082,-1.629 -1.082,-2.606 0,-0.98 0.391,-1.918 1.082,-2.609 0.691,-0.692 1.629,-1.078 2.606,-1.078 0.976,0 1.914,0.386 2.605,1.078 0.691,0.691 1.082,1.629 1.082,2.609 z"
         style="fill:#000000;fill-opacity:1;fill-rule:evenodd;stroke:none"
         id="path88" />
      <path
         d="m 120.98,100.539 c 0,0.977 -0.386,1.914 -1.078,2.606 -0.691,0.691 -1.629,1.078 -2.609,1.078 -0.977,0 -1.914,-0.387 -2.605,-1.078 -0.692,-0.692 -1.079,-1.629 -1.079,-2.606 0,-0.98 0.387,-1.918 1.079,-2.609 0.691,-0.692 1.628,-1.078 2.605,-1.078 0.98,0 1.918,0.386 2.609,1.078 0.692,0.691 1.078,1.629 1.078,2.609 z"
         style="fill:#000000;fill-opacity:1;fill-rule:evenodd;stroke:none"
         id="path90" />
      <path
         d="m 184.32,100.539 h 50.27"
         style="fill:none;stroke:#000000;stroke-width:0.9216;stroke-linecap:square;stroke-linejoin:miter;stroke-miterlimit:3.25;stroke-dasharray:none;stroke-opacity:1"
         id="path92" />
      <path
         d="m 214.48,100.539 -10.054,3.352 v -6.703 z"
         style="fill:#000000;fill-opacity:1;fill-rule:evenodd;stroke:none"
         id="path94" />
      <text
         xml:space="preserve"
         transform="translate(203.37744,128.41036)"
         style="font-variant:normal;font-size:21.12px;font-family:CairoFont-0;-inkscape-font-specification:CairoFont-0-0;writing-mode:lr-tb;fill:#000000;fill-opacity:1;fill-rule:nonzero;stroke:none"
         id="text98"><tspan
           x="0"
           y="0"
           id="tspan96">e</tspan></text>
      <path
         d="m 351.883,100.539 h -50.27"
         style="fill:none;stroke:#000000;stroke-width:0.9216;stroke-linecap:square;stroke-linejoin:miter;stroke-miterlimit:3.25;stroke-dasharray:none;stroke-opacity:1"
         id="path100" />
      <path
         d="m 331.777,100.539 -10.054,-3.351 v 6.703 z"
         style="fill:#000000;fill-opacity:1;fill-rule:evenodd;stroke:none"
         id="path102" />
      <text
         xml:space="preserve"
         transform="translate(320.67198,128.41036)"
         style="font-variant:normal;font-size:21.12px;font-family:CairoFont-0;-inkscape-font-specification:CairoFont-0-0;writing-mode:lr-tb;fill:#000000;fill-opacity:1;fill-rule:nonzero;stroke:none"
         id="text106"><tspan
           x="0"
           y="0"
           id="tspan104">e</tspan></text>
      <path
         d="m 234.59,100.539 c 0,8.887 3.531,17.41 9.816,23.695 6.285,6.286 14.809,9.817 23.696,9.817 8.886,0 17.414,-3.531 23.699,-9.817 6.281,-6.285 9.812,-14.808 9.812,-23.695"
         style="fill:none;stroke:#000000;stroke-width:0.9216;stroke-linecap:square;stroke-linejoin:miter;stroke-miterlimit:3.25;stroke-dasharray:none;stroke-opacity:1"
         id="path108" />
      <path
         d="m 273.129,134.051 -10.055,3.351 v -6.703 z"
         style="fill:#000000;fill-opacity:1;fill-rule:evenodd;stroke:none"
         id="path110" />
      <text
         xml:space="preserve"
         transform="translate(262.02471,161.92309)"
         style="font-variant:normal;font-size:21.12px;font-family:CairoFont-0;-inkscape-font-specification:CairoFont-0-0;writing-mode:lr-tb;fill:#000000;fill-opacity:1;fill-rule:nonzero;stroke:none"
         id="text114"><tspan
           x="0"
           y="0"
           id="tspan112">e</tspan></text>
      <path
         d="m 234.59,100.539 0.695,-0.902 0.617,-0.86 0.45,-0.816 0.207,-0.797 -0.059,-0.801 -0.309,-0.824 -0.507,-0.871 -0.625,-0.922 -0.637,-0.969 -0.539,-0.996 -0.348,-0.996 -0.086,-0.957 0.219,-0.89 0.516,-0.797 0.773,-0.692 0.957,-0.586 1.043,-0.504 1.027,-0.464 0.918,-0.473 0.739,-0.527 0.511,-0.625 0.282,-0.762 0.078,-0.903 -0.059,-1.031 -0.125,-1.121 -0.09,-1.156 0.02,-1.121 0.199,-1.016 0.426,-0.848 0.656,-0.64 0.871,-0.414 1.031,-0.207 1.133,-0.039 1.16,0.054 1.11,0.071 1.008,-0.004 0.871,-0.153 0.715,-0.355 0.582,-0.586 0.476,-0.801 0.426,-0.965 0.422,-1.058"
         style="fill:none;stroke:#000000;stroke-width:0.9216;stroke-linecap:square;stroke-linejoin:miter;stroke-miterlimit:3.25;stroke-dasharray:none;stroke-opacity:1"
         id="path116" />
    </g>
    <g
       id="g118">
      <g
         id="g120"
         clip-path="url(#clipPath124)">
        <text
           xml:space="preserve"
           transform="translate(220.96985,77.118657)"
           style="font-variant:normal;font-size:20.16px;font-family:CairoFont-1;-inkscape-font-specification:CairoFont-1-1;writing-mode:lr-tb;fill:#000000;fill-opacity:1;fill-rule:nonzero;stroke:none"
           id="text128"><tspan
             x="0"
             y="0"
             id="tspan126">γ</tspan></text>
      </g>
    </g>
    <g
       id="g130">
      <path
         d="m 284.859,71.215 c -1.152,-5.113 -4.57,-9.418 -9.289,-11.695 -4.718,-2.282 -10.218,-2.282 -14.937,0 -4.719,2.277 -8.137,6.582 -9.289,11.695"
         style="fill:none;stroke:#000000;stroke-width:0.9216;stroke-linecap:square;stroke-linejoin:miter;stroke-miterlimit:3.25;stroke-dasharray:none;stroke-opacity:1"
         id="path132" />
      <path
         d="M 273.129,57.809 263.074,54.457 V 61.16 Z"
         style="fill:#000000;fill-opacity:1;fill-rule:evenodd;stroke:none"
         id="path134" />
      <text
         xml:space="preserve"
         transform="translate(262.02471,45.156022)"
         style="font-variant:normal;font-size:21.12px;font-family:CairoFont-0;-inkscape-font-specification:CairoFont-0-0;writing-mode:lr-tb;fill:#000000;fill-opacity:1;fill-rule:nonzero;stroke:none"
         id="text138"><tspan
           x="0"
           y="0"
           id="tspan136">e</tspan></text>
      <path
         d="m 251.344,71.215 c 1.152,5.109 4.57,9.418 9.289,11.695 4.719,2.278 10.219,2.278 14.937,0 4.719,-2.277 8.137,-6.586 9.289,-11.695"
         style="fill:none;stroke:#000000;stroke-width:0.9216;stroke-linecap:square;stroke-linejoin:miter;stroke-miterlimit:3.25;stroke-dasharray:none;stroke-opacity:1"
         id="path140" />
      <path
         d="m 263.074,84.621 10.055,3.352 V 81.27 Z"
         style="fill:#000000;fill-opacity:1;fill-rule:evenodd;stroke:none"
         id="path142" />
      <text
         xml:space="preserve"
         transform="translate(262.02471,112.49182)"
         style="font-variant:normal;font-size:21.12px;font-family:CairoFont-0;-inkscape-font-specification:CairoFont-0-0;writing-mode:lr-tb;fill:#000000;fill-opacity:1;fill-rule:nonzero;stroke:none"
         id="text146"><tspan
           x="0"
           y="0"
           id="tspan144">e</tspan></text>
      <path
         d="m 301.613,100.539 -0.703,-0.894 -0.629,-0.848 -0.453,-0.813 -0.215,-0.793 0.047,-0.8 0.305,-0.829 0.5,-0.871 0.621,-0.925 0.629,-0.973 0.535,-0.996 0.344,-0.996 0.078,-0.957 -0.219,-0.887 -0.519,-0.789 -0.774,-0.684 -0.957,-0.582 -1.043,-0.504 -1.027,-0.46 -0.922,-0.465 -0.734,-0.528 -0.512,-0.629 -0.281,-0.757 -0.079,-0.903 0.063,-1.027 0.125,-1.121 0.098,-1.156 -0.016,-1.118 -0.195,-1.015 -0.418,-0.848 -0.653,-0.641 -0.867,-0.418 -1.031,-0.207 -1.129,-0.046 -1.156,0.05 -1.114,0.063 -1.007,-0.008 -0.864,-0.16 -0.714,-0.363 -0.575,-0.59 -0.468,-0.805 -0.414,-0.969 -0.411,-1.062"
         style="fill:none;stroke:#000000;stroke-width:0.9216;stroke-linecap:square;stroke-linejoin:miter;stroke-miterlimit:3.25;stroke-dasharray:none;stroke-opacity:1"
         id="path148" />
    </g>
    <g
       id="g150">
      <g
         id="g152"
         clip-path="url(#clipPath156)">
        <text
           xml:space="preserve"
           transform="translate(303.98957,77.168926)"
           style="font-variant:normal;font-size:20.16px;font-family:CairoFont-1;-inkscape-font-specification:CairoFont-1-1;writing-mode:lr-tb;fill:#000000;fill-opacity:1;fill-rule:nonzero;stroke:none"
           id="text160"><tspan
             x="0"
             y="0"
             id="tspan158">γ</tspan></text>
      </g>
    </g>
    <g
       id="g162">
      <path
         d="m 288.543,71.215 c 0,0.976 -0.387,1.914 -1.078,2.605 -0.692,0.692 -1.629,1.082 -2.606,1.082 -0.98,0 -1.918,-0.39 -2.609,-1.082 -0.691,-0.691 -1.078,-1.629 -1.078,-2.605 0,-0.977 0.387,-1.914 1.078,-2.606 0.691,-0.691 1.629,-1.082 2.609,-1.082 0.977,0 1.914,0.391 2.606,1.082 0.691,0.692 1.078,1.629 1.078,2.606 z"
         style="fill:#000000;fill-opacity:1;fill-rule:evenodd;stroke:none"
         id="path164" />
      <path
         d="m 255.031,71.215 c 0,0.976 -0.386,1.914 -1.078,2.605 -0.691,0.692 -1.629,1.082 -2.609,1.082 -0.977,0 -1.914,-0.39 -2.606,-1.082 -0.691,-0.691 -1.078,-1.629 -1.078,-2.605 0,-0.977 0.387,-1.914 1.078,-2.606 0.692,-0.691 1.629,-1.082 2.606,-1.082 0.98,0 1.918,0.391 2.609,1.082 0.692,0.692 1.078,1.629 1.078,2.606 z"
         style="fill:#000000;fill-opacity:1;fill-rule:evenodd;stroke:none"
         id="path166" />
      <path
         d="m 238.277,100.539 c 0,0.977 -0.39,1.914 -1.082,2.606 -0.691,0.691 -1.629,1.078 -2.605,1.078 -0.977,0 -1.918,-0.387 -2.61,-1.078 -0.687,-0.692 -1.078,-1.629 -1.078,-2.606 0,-0.98 0.391,-1.918 1.078,-2.609 0.692,-0.692 1.633,-1.078 2.61,-1.078 0.976,0 1.914,0.386 2.605,1.078 0.692,0.691 1.082,1.629 1.082,2.609 z"
         style="fill:#000000;fill-opacity:1;fill-rule:evenodd;stroke:none"
         id="path168" />
      <path
         d="m 305.301,100.539 c 0,0.977 -0.387,1.914 -1.078,2.606 -0.692,0.691 -1.629,1.078 -2.61,1.078 -0.976,0 -1.914,-0.387 -2.605,-1.078 -0.692,-0.692 -1.078,-1.629 -1.078,-2.606 0,-0.98 0.386,-1.918 1.078,-2.609 0.691,-0.692 1.629,-1.078 2.605,-1.078 0.981,0 1.918,0.386 2.61,1.078 0.691,0.691 1.078,1.629 1.078,2.609 z"
         style="fill:#000000;fill-opacity:1;fill-rule:evenodd;stroke:none"
         id="path170" />
      <path
         d="M 368.641,100.539 H 418.91"
         style="fill:none;stroke:#000000;stroke-width:0.9216;stroke-linecap:square;stroke-linejoin:miter;stroke-miterlimit:3.25;stroke-dasharray:none;stroke-opacity:1"
         id="path172" />
      <path
         d="m 398.801,100.539 -10.055,3.352 v -6.703 z"
         style="fill:#000000;fill-opacity:1;fill-rule:evenodd;stroke:none"
         id="path174" />
      <text
         xml:space="preserve"
         transform="translate(387.69744,128.41036)"
         style="font-variant:normal;font-size:21.12px;font-family:CairoFont-0;-inkscape-font-specification:CairoFont-0-0;writing-mode:lr-tb;fill:#000000;fill-opacity:1;fill-rule:nonzero;stroke:none"
         id="text178"><tspan
           x="0"
           y="0"
           id="tspan176">e</tspan></text>
      <path
         d="M 536.203,100.539 H 485.934"
         style="fill:none;stroke:#000000;stroke-width:0.9216;stroke-linecap:square;stroke-linejoin:miter;stroke-miterlimit:3.25;stroke-dasharray:none;stroke-opacity:1"
         id="path180" />
      <path
         d="m 516.098,100.539 -10.055,-3.351 v 6.703 z"
         style="fill:#000000;fill-opacity:1;fill-rule:evenodd;stroke:none"
         id="path182" />
    </g>
    <g
       id="g184">
      <g
         id="g186"
         clip-path="url(#clipPath190)">
        <text
           xml:space="preserve"
           transform="translate(504.99198,128.41036)"
           style="font-variant:normal;font-size:21.12px;font-family:CairoFont-0;-inkscape-font-specification:CairoFont-0-0;writing-mode:lr-tb;fill:#000000;fill-opacity:1;fill-rule:nonzero;stroke:none"
           id="text194"><tspan
             x="0"
             y="0"
             id="tspan192">e</tspan></text>
      </g>
    </g>
    <g
       id="g196">
      <path
         d="m 485.934,100.539 -0.684,0.824 -0.629,0.793 -0.516,0.774 -0.351,0.769 -0.156,0.778 0.039,0.804 0.226,0.848 0.364,0.891 0.445,0.941 0.465,0.977 0.406,0.996 0.285,0.996 0.106,0.965 -0.106,0.91 -0.336,0.828 -0.554,0.734 -0.747,0.637 -0.89,0.543 -0.977,0.465 -0.992,0.422 -0.945,0.406 -0.848,0.433 -0.703,0.497 -0.539,0.589 -0.375,0.707 -0.223,0.825 -0.113,0.937 -0.047,1.024 -0.039,1.078 -0.086,1.078 -0.184,1.031 -0.316,0.934 -0.476,0.793 -0.645,0.621 -0.801,0.433 -0.933,0.254 -1.024,0.098 -1.074,-0.02 -1.082,-0.082 -1.039,-0.09 -0.973,-0.027 -0.879,0.078 -0.773,0.235 -0.68,0.41 -0.597,0.586 -0.543,0.746 -0.52,0.863 -0.527,0.93 -0.567,0.926 -0.621,0.855 -0.699,0.719 -0.773,0.527 -0.844,0.305 -0.903,0.07 -0.937,-0.16 -0.953,-0.352 -0.946,-0.496 -0.925,-0.566 -0.891,-0.57 -0.851,-0.504 -0.821,-0.375 -0.801,-0.2 h -0.789 l -0.8,0.2 -0.821,0.375 -0.851,0.504 -0.891,0.57 -0.926,0.566 -0.945,0.496 -0.953,0.352 -0.938,0.16 -0.902,-0.07 -0.844,-0.305 -0.773,-0.527 -0.699,-0.719 -0.622,-0.855 -0.566,-0.926 -0.527,-0.93 -0.52,-0.863 -0.543,-0.746 -0.597,-0.586 -0.68,-0.41 -0.774,-0.235 -0.878,-0.078 -0.973,0.027 -1.039,0.09 -1.082,0.082 -1.074,0.02 -1.024,-0.098 -0.933,-0.254 -0.801,-0.433 -0.645,-0.621 -0.476,-0.793 -0.317,-0.934 -0.183,-1.031 -0.086,-1.078 -0.039,-1.078 -0.047,-1.024 -0.113,-0.937 -0.223,-0.825 -0.375,-0.707 -0.539,-0.589 -0.703,-0.497 -0.848,-0.433 -0.945,-0.406 -0.992,-0.422 -0.977,-0.465 -0.891,-0.543 -0.746,-0.637 -0.558,-0.734 -0.332,-0.828 -0.106,-0.91 0.106,-0.965 0.285,-0.996 0.406,-0.996 0.465,-0.977 0.445,-0.941 0.363,-0.891 0.223,-0.848 0.043,-0.804 -0.156,-0.778 -0.352,-0.769 -0.515,-0.774 -0.633,-0.793 -0.68,-0.824"
         style="fill:none;stroke:#000000;stroke-width:0.9216;stroke-linecap:square;stroke-linejoin:miter;stroke-miterlimit:3.25;stroke-dasharray:none;stroke-opacity:1"
         id="path198" />
    </g>
    <g
       id="g200">
      <g
         id="g202"
         clip-path="url(#clipPath206)">
        <text
           xml:space="preserve"
           transform="translate(446.84369,161.92309)"
           style="font-variant:normal;font-size:20.16px;font-family:CairoFont-1;-inkscape-font-specification:CairoFont-1-1;writing-mode:lr-tb;fill:#000000;fill-opacity:1;fill-rule:nonzero;stroke:none"
           id="text210"><tspan
             x="0"
             y="0"
             id="tspan208">γ</tspan></text>
      </g>
    </g>
    <g
       id="g212">
      <path
         d="m 435.664,71.215 c -11.203,5.269 -17.906,16.996 -16.754,29.324"
         style="fill:none;stroke:#000000;stroke-width:0.9216;stroke-linecap:square;stroke-linejoin:miter;stroke-miterlimit:3.25;stroke-dasharray:none;stroke-opacity:1"
         id="path214" />
      <path
         d="m 425.148,78.863 -7.898,7.067 5.82,3.328 z"
         style="fill:#000000;fill-opacity:1;fill-rule:evenodd;stroke:none"
         id="path216" />
      <text
         xml:space="preserve"
         transform="translate(404.29188,77.118657)"
         style="font-variant:normal;font-size:21.12px;font-family:CairoFont-0;-inkscape-font-specification:CairoFont-0-0;writing-mode:lr-tb;fill:#000000;fill-opacity:1;fill-rule:nonzero;stroke:none"
         id="text220"><tspan
           x="0"
           y="0"
           id="tspan218">e</tspan></text>
      <path
         d="m 469.18,71.215 c -1.153,-5.113 -4.571,-9.418 -9.289,-11.695 -4.719,-2.282 -10.219,-2.282 -14.938,0 -4.719,2.277 -8.137,6.582 -9.289,11.695"
         style="fill:none;stroke:#000000;stroke-width:0.9216;stroke-linecap:square;stroke-linejoin:miter;stroke-miterlimit:3.25;stroke-dasharray:none;stroke-opacity:1"
         id="path222" />
      <path
         d="M 457.449,57.809 447.395,54.457 V 61.16 Z"
         style="fill:#000000;fill-opacity:1;fill-rule:evenodd;stroke:none"
         id="path224" />
      <text
         xml:space="preserve"
         transform="translate(446.34471,45.156022)"
         style="font-variant:normal;font-size:21.12px;font-family:CairoFont-0;-inkscape-font-specification:CairoFont-0-0;writing-mode:lr-tb;fill:#000000;fill-opacity:1;fill-rule:nonzero;stroke:none"
         id="text228"><tspan
           x="0"
           y="0"
           id="tspan226">e</tspan></text>
      <path
         d="m 435.664,71.215 0.992,0.597 0.887,0.555 0.676,0.563 0.418,0.632 0.148,0.754 -0.074,0.899 -0.203,1.047 -0.223,1.144 -0.129,1.176 0.067,1.117 0.32,0.965 0.602,0.734 0.851,0.457 1.047,0.176 1.152,-0.058 1.168,-0.219 1.102,-0.262 0.984,-0.187 0.836,-0.008 0.703,0.238 0.61,0.516 0.574,0.761 0.594,0.926 0.66,0.981 0.754,0.894 0.851,0.684 0.918,0.371 h 0.946 l 0.917,-0.371 0.852,-0.684 0.754,-0.894 0.66,-0.981 0.594,-0.926 0.574,-0.761 0.609,-0.516 0.704,-0.238 0.836,0.008 0.984,0.187 1.101,0.262 1.168,0.219 1.153,0.058 1.047,-0.176 0.851,-0.457 0.602,-0.734 0.32,-0.965 0.067,-1.117 -0.129,-1.176 -0.223,-1.144 -0.203,-1.047 -0.074,-0.899 0.148,-0.754 0.418,-0.632 0.676,-0.563 0.887,-0.555 0.992,-0.597"
         style="fill:none;stroke:#000000;stroke-width:0.9216;stroke-linecap:square;stroke-linejoin:miter;stroke-miterlimit:3.25;stroke-dasharray:none;stroke-opacity:1"
         id="path230" />
    </g>
    <g
       id="g232">
      <g
         id="g234"
         clip-path="url(#clipPath238)">
        <text
           xml:space="preserve"
           transform="translate(446.84369,112.49182)"
           style="font-variant:normal;font-size:20.16px;font-family:CairoFont-1;-inkscape-font-specification:CairoFont-1-1;writing-mode:lr-tb;fill:#000000;fill-opacity:1;fill-rule:nonzero;stroke:none"
           id="text242"><tspan
             x="0"
             y="0"
             id="tspan240">γ</tspan></text>
      </g>
    </g>
    <g
       id="g244">
      <path
         d="M 485.934,100.539 C 486.945,88.238 480.285,76.586 469.18,71.215"
         style="fill:none;stroke:#000000;stroke-width:0.9216;stroke-linecap:square;stroke-linejoin:miter;stroke-miterlimit:3.25;stroke-dasharray:none;stroke-opacity:1"
         id="path246" />
      <path
         d="m 484.594,87.645 -2.078,-10.395 -5.817,3.328 z"
         style="fill:#000000;fill-opacity:1;fill-rule:evenodd;stroke:none"
         id="path248" />
      <text
         xml:space="preserve"
         transform="translate(488.30957,77.168926)"
         style="font-variant:normal;font-size:21.12px;font-family:CairoFont-0;-inkscape-font-specification:CairoFont-0-0;writing-mode:lr-tb;fill:#000000;fill-opacity:1;fill-rule:nonzero;stroke:none"
         id="text252"><tspan
           x="0"
           y="0"
           id="tspan250">e</tspan></text>
      <path
         d="m 472.863,71.215 c 0,0.976 -0.386,1.914 -1.078,2.605 -0.691,0.692 -1.629,1.082 -2.605,1.082 -0.981,0 -1.918,-0.39 -2.61,-1.082 -0.691,-0.691 -1.078,-1.629 -1.078,-2.605 0,-0.977 0.387,-1.914 1.078,-2.606 0.692,-0.691 1.629,-1.082 2.61,-1.082 0.976,0 1.914,0.391 2.605,1.082 0.692,0.692 1.078,1.629 1.078,2.606 z"
         style="fill:#000000;fill-opacity:1;fill-rule:evenodd;stroke:none"
         id="path254" />
      <path
         d="m 439.352,71.215 c 0,0.976 -0.387,1.914 -1.079,2.605 -0.691,0.692 -1.628,1.082 -2.609,1.082 -0.976,0 -1.914,-0.39 -2.605,-1.082 -0.692,-0.691 -1.079,-1.629 -1.079,-2.605 0,-0.977 0.387,-1.914 1.079,-2.606 0.691,-0.691 1.629,-1.082 2.605,-1.082 0.981,0 1.918,0.391 2.609,1.082 0.692,0.692 1.079,1.629 1.079,2.606 z"
         style="fill:#000000;fill-opacity:1;fill-rule:evenodd;stroke:none"
         id="path256" />
      <path
         d="m 422.594,100.539 c 0,0.977 -0.387,1.914 -1.078,2.606 -0.692,0.691 -1.629,1.078 -2.606,1.078 -0.98,0 -1.918,-0.387 -2.609,-1.078 -0.692,-0.692 -1.078,-1.629 -1.078,-2.606 0,-0.98 0.386,-1.918 1.078,-2.609 0.691,-0.692 1.629,-1.078 2.609,-1.078 0.977,0 1.914,0.386 2.606,1.078 0.691,0.691 1.078,1.629 1.078,2.609 z"
         style="fill:#000000;fill-opacity:1;fill-rule:evenodd;stroke:none"
         id="path258" />
      <path
         d="m 489.621,100.539 c 0,0.977 -0.387,1.914 -1.078,2.606 -0.691,0.691 -1.629,1.078 -2.609,1.078 -0.977,0 -1.914,-0.387 -2.606,-1.078 -0.691,-0.692 -1.078,-1.629 -1.078,-2.606 0,-0.98 0.387,-1.918 1.078,-2.609 0.692,-0.692 1.629,-1.078 2.606,-1.078 0.98,0 1.918,0.386 2.609,1.078 0.691,0.691 1.078,1.629 1.078,2.609 z"
         style="fill:#000000;fill-opacity:1;fill-rule:evenodd;stroke:none"
         id="path260" />
    </g>
  </g>
</svg>
