<?xml version="1.0" encoding="UTF-8" standalone="no"?>
<!-- Created with Inkscape (http://www.inkscape.org/) -->

<svg
   version="1.1"
   id="svg1"
   width="737.33331"
   height="246.66667"
   viewBox="0 0 737.33331 246.66667"
   sodipodi:docname="0p7dijx30cq36.pdf"
   xmlns:inkscape="http://www.inkscape.org/namespaces/inkscape"
   xmlns:sodipodi="http://sodipodi.sourceforge.net/DTD/sodipodi-0.dtd"
   xmlns="http://www.w3.org/2000/svg"
   xmlns:svg="http://www.w3.org/2000/svg">
  <defs
     id="defs1">
    <clipPath
       clipPathUnits="userSpaceOnUse"
       id="clipPath3">
      <path
         d="m 22,117 h 9.68 v 16 H 22 Z"
         transform="translate(-19.556421,-128.41037)"
         id="path3" />
    </clipPath>
    <clipPath
       clipPathUnits="userSpaceOnUse"
       id="clipPath14">
      <path
         d="m 94,97 h 9.68 v 16 H 94 Z"
         transform="translate(-91.700875,-108.14756)"
         id="path14" />
    </clipPath>
    <clipPath
       clipPathUnits="userSpaceOnUse"
       id="clipPath29">
      <path
         d="m 323,117 h 10.359 v 16 H 323 Z"
         transform="translate(-321.17097,-128.41037)"
         id="path29" />
    </clipPath>
    <clipPath
       clipPathUnits="userSpaceOnUse"
       id="clipPath41">
      <path
         d="m 265,102 h 9.559 v 15 H 265 Z"
         transform="translate(-262.5237,-112.49182)"
         id="path41" />
    </clipPath>
    <clipPath
       clipPathUnits="userSpaceOnUse"
       id="clipPath51">
      <path
         d="m 390,117 h 10.32 v 16 H 390 Z"
         transform="translate(-388.19643,-128.41037)"
         id="path51" />
    </clipPath>
    <clipPath
       clipPathUnits="userSpaceOnUse"
       id="clipPath54">
      <path
         d="m 507,117 h 10.68 v 16 H 507 Z"
         transform="translate(-505.49098,-128.41037)"
         id="path54" />
    </clipPath>
    <clipPath
       clipPathUnits="userSpaceOnUse"
       id="clipPath66">
      <path
         d="m 449,102 h 9.879 v 15 H 449 Z"
         transform="translate(-446.8437,-112.49182)"
         id="path66" />
    </clipPath>
  </defs>
  <sodipodi:namedview
     id="namedview1"
     pagecolor="#ffffff"
     bordercolor="#999999"
     borderopacity="1"
     inkscape:showpageshadow="0"
     inkscape:pageopacity="0"
     inkscape:pagecheckerboard="0"
     inkscape:deskcolor="#d1d1d1">
    <inkscape:page
       x="0"
       y="0"
       id="page1"
       width="737.33331"
       height="246.66667"
       margin="0"
       bleed="0" />
  </sodipodi:namedview>
  <g
     id="g1"
     inkscape:groupmode="layer"
     inkscape:label="">
    <path
       id="path1"
       d="m 50.27,100.539 -0.84,-0.75 -0.836,-0.652 -0.84,-0.465 -0.836,-0.215 -0.84,0.059 -0.836,0.328 -0.84,0.554 -0.836,0.707 -0.836,0.762 -0.839,0.719 -0.836,0.582 -0.84,0.363 -0.836,0.102 -0.84,-0.18 -0.836,-0.433 -0.84,-0.629 -0.836,-0.743 -0.839,-0.757 -0.836,-0.668 -0.84,-0.496 -0.836,-0.254 -0.84,0.019 -0.836,0.293 -0.84,0.524 -0.836,0.687 -0.84,0.762 -0.836,0.734 -0.839,0.606 -0.836,0.398 -0.84,0.137 -0.836,-0.137 -0.84,-0.398 -0.836,-0.606 -0.836,-0.734 -0.84,-0.762 -0.836,-0.687 -0.839,-0.524 -0.836,-0.293 -0.84,-0.019 -0.836,0.254 -0.84,0.496 -0.836,0.668 -0.84,0.757 -0.836,0.743 -0.84,0.629 -0.836,0.433 -0.839,0.18 -0.836,-0.102 -0.84,-0.363 -0.836,-0.582 -0.84,-0.719 L 6.703,100.105 5.863,99.398 5.027,98.844 4.188,98.516 3.352,98.457 2.516,98.672 1.676,99.137 0.84,99.789 0,100.539"
       style="fill:none;stroke:#000000;stroke-width:0.9216;stroke-linecap:square;stroke-linejoin:miter;stroke-miterlimit:3.25;stroke-dasharray:none;stroke-opacity:1"
       transform="scale(1.3333333)" />
    <path
       id="path2"
       d="M 12.057838,-10.440637 5.9054941,7.688125e-4 V 0.19998756 c 0,0.12890625 0.023437,0.24609375 0.023437,0.36328125 0,0.1171875 0,0.24609375 0,0.36328125 0,0.18750004 0,0.38671874 -0.023437,0.60937504 -0.023437,0.234375 -0.058594,0.4804687 -0.1054688,0.7382812 -0.035156,0.2460938 -0.09375,0.4921875 -0.1523437,0.75 -0.082031,0.2460938 -0.1875,0.46875 -0.3046875,0.6445313 -0.1289063,0.1992187 -0.2695313,0.3632812 -0.4453125,0.4804687 -0.1640625,0.1289063 -0.3632813,0.1875 -0.609375,0.1875 -0.1757813,0 -0.3398438,-0.046875 -0.4804688,-0.1289062 C 3.6672128,4.1374876 3.5500253,4.0554563 3.4445566,3.9265501 3.3508066,3.8093626 3.2687753,3.6687376 3.2219003,3.5046751 3.1633066,3.3523313 3.1398691,3.1648313 3.1398691,3.0007688 c 0,-0.3164062 0.046875,-0.5976562 0.082031,-0.8671875 C 3.2804941,1.8757688 3.3508066,1.6296751 3.4445566,1.3953001 3.5265878,1.1726438 3.6320566,0.92655006 3.7492441,0.68045631 3.8664316,0.46951881 3.9953378,0.19998756 4.1359628,-0.08126244 L 2.4836191,-10.440637 h 1.8515625 l 1.171875,8.2499996 4.7460934,-8.2499996 z m 0,0"
       style="fill:#000000;fill-opacity:1;fill-rule:nonzero;stroke:none"
       aria-label="γ"
       transform="matrix(1.3333333,0,0,1.3333333,26.075227,171.21382)"
       clip-path="url(#clipPath3)" />
    <path
       id="path4"
       d="m 117.293,100.539 0.84,0.75 0.836,0.652 0.84,0.461 0.836,0.219 0.839,-0.059 0.836,-0.332 0.84,-0.55 0.836,-0.707 0.84,-0.762 0.836,-0.723 0.84,-0.578 0.836,-0.363 0.84,-0.102 0.835,0.18 0.84,0.43 0.836,0.629 0.84,0.742 0.836,0.758 0.84,0.671 0.836,0.497 0.84,0.253 0.836,-0.019 0.835,-0.293 0.84,-0.527 0.836,-0.688 0.84,-0.762 0.836,-0.73 0.84,-0.606 0.836,-0.398 0.84,-0.141 0.836,0.141 0.839,0.398 0.836,0.606 0.84,0.73 0.836,0.762 0.84,0.688 0.836,0.527 0.84,0.293 0.836,0.019 0.84,-0.253 0.836,-0.497 0.839,-0.671 0.836,-0.758 0.84,-0.742 0.836,-0.629 0.84,-0.43 0.836,-0.18 0.84,0.102 0.836,0.363 0.84,0.578 0.835,0.723 0.836,0.762 0.84,0.707 0.836,0.55 0.84,0.332 0.836,0.059 0.84,-0.219 0.836,-0.461 0.84,-0.652 0.835,-0.75"
       style="fill:none;stroke:#000000;stroke-width:0.9216;stroke-linecap:square;stroke-linejoin:miter;stroke-miterlimit:3.25;stroke-dasharray:none;stroke-opacity:1"
       transform="scale(1.3333333)" />
    <path
       id="path5"
       d="M 12.05919,-10.44139 5.9068465,1.6625e-5 V 0.19923538 c 0,0.12890625 0.023437,0.24609375 0.023437,0.36328125 0,0.1171875 0,0.24609375 0,0.36328125 0,0.18750002 0,0.38671872 -0.023437,0.60937502 -0.023437,0.234375 -0.058594,0.4804687 -0.1054688,0.7382812 -0.035156,0.2460938 -0.09375,0.4921875 -0.1523437,0.75 -0.082031,0.2460938 -0.1875,0.46875 -0.3046875,0.6445313 -0.1289063,0.1992187 -0.2695313,0.3632812 -0.4453125,0.4804687 -0.1640625,0.1289063 -0.3632813,0.1875 -0.609375,0.1875 -0.1757813,0 -0.3398438,-0.046875 -0.4804688,-0.1289062 C 3.6685652,4.1367354 3.5513777,4.0547041 3.445909,3.9257979 3.352159,3.8086104 3.2701277,3.6679854 3.2232527,3.5039229 3.164659,3.3515791 3.1412215,3.1640791 3.1412215,3.0000166 c 0,-0.3164062 0.046875,-0.5976562 0.082031,-0.8671875 C 3.2818465,1.8750166 3.352159,1.6289229 3.445909,1.3945479 3.5279402,1.1718916 3.633409,0.92579788 3.7505965,0.67970413 3.867784,0.46876663 3.9966902,0.19923538 4.1373152,-0.08201462 L 2.4849715,-10.44139 H 4.336534 l 1.171875,8.2500004 4.746094,-8.2500004 z m 0,0"
       style="fill:#000000;fill-opacity:1;fill-rule:nonzero;stroke:none"
       aria-label="γ"
       transform="matrix(1.3333333,0,0,1.3333333,182.46795,117.17967)" />
    <path
       id="path6"
       d="m 50.27,100.539 c -0.317,8.981 3.113,17.691 9.468,24.043 6.352,6.356 15.063,9.785 24.043,9.469"
       style="fill:none;stroke:#000000;stroke-width:0.9216;stroke-linecap:square;stroke-linejoin:miter;stroke-miterlimit:3.25;stroke-dasharray:none;stroke-opacity:1"
       transform="scale(1.3333333)" />
    <path
       id="path7"
       d="m 63.289,128.137 -9.477,-4.739 4.739,-4.738 z"
       style="fill:#000000;fill-opacity:1;fill-rule:evenodd;stroke:none"
       transform="scale(1.3333333)" />
    <path
       id="path8"
       d="m 11.872142,-9.292806 c 0.269531,0.5507812 0.375,1.2070312 0.339844,1.9453125 0,0.5039062 -0.105469,1.3125 -0.339844,2.4257812 H 3.7627672 c -0.2109375,1.125 -0.1289063,2.0273438 0.234375,2.7070313 0.328125,0.6679687 1.03125,1.0078125 2.0859375,1.0078125 0.9492187,0 1.7929687,-0.3164063 2.5078125,-0.9726563 0.4101562,-0.3515625 0.7382812,-0.7734375 0.9726562,-1.2890625 h 1.8398436 c -0.152344,0.4335938 -0.398437,0.8671875 -0.785156,1.3828125 -0.375,0.4804688 -0.7500001,0.9023438 -1.1601563,1.19531255 -0.6679688,0.57421875 -1.453125,0.9375 -2.34375,1.125 -0.4570313,0.10546875 -0.984375,0.1640625 -1.5351563,0.1640625 -1.3710937,0 -2.4492187,-0.50390625 -3.1875,-1.50000005 -0.7382812,-0.984375 -0.9140625,-2.4023437 -0.5273437,-4.1953125 0.375,-1.78125 1.1601562,-3.2109375 2.3554687,-4.3359375 1.1835938,-1.0898442 2.5546875,-1.6406252 4.125,-1.6406252 0.7734375,0 1.5,0.1875 2.1679686,0.550781 0.65625,0.351563 1.101563,0.8437505 1.359375,1.429688 z m -1.605469,2.8945312 c 0.08203,-0.796875 0.05859,-1.4414062 -0.128906,-1.921875 -0.3164061,-0.890625 -1.0546873,-1.3476562 -2.2382811,-1.3476562 -0.8671875,0 -1.6523437,0.3164062 -2.34375,0.9257812 -0.7148437,0.609375 -1.1835937,1.3945313 -1.4414062,2.34375 z m 0,0"
       style="fill:#000000;fill-opacity:1;fill-rule:nonzero;stroke:none"
       aria-label="e"
       transform="matrix(1.3333333,0,0,1.3333333,57.955633,198.20291)" />
    <path
       id="path9"
       d="m 83.781,134.051 c 18.492,-0.039 33.477,-15.02 33.512,-33.512"
       style="fill:none;stroke:#000000;stroke-width:0.9216;stroke-linecap:square;stroke-linejoin:miter;stroke-miterlimit:3.25;stroke-dasharray:none;stroke-opacity:1"
       transform="scale(1.3333333)" />
    <path
       id="path10"
       d="m 111.012,120.66 -4.739,9.481 -4.738,-4.743 z"
       style="fill:#000000;fill-opacity:1;fill-rule:evenodd;stroke:none"
       transform="scale(1.3333333)" />
    <path
       id="path11"
       d="m 11.87126,-9.2933066 c 0.269531,0.5507812 0.375,1.2070312 0.339843,1.9453125 0,0.5039062 -0.105468,1.3125 -0.339843,2.4257812 H 3.7618845 c -0.2109375,1.125 -0.1289062,2.0273438 0.234375,2.7070313 0.328125,0.6679687 1.03125,1.0078125 2.0859375,1.0078125 0.9492188,0 1.7929688,-0.3164063 2.5078125,-0.9726563 0.4101563,-0.3515625 0.7382813,-0.7734375 0.9726563,-1.2890625 H 11.40251 c -0.152344,0.4335938 -0.398438,0.8671875 -0.785157,1.3828125 -0.375,0.4804688 -0.7499997,0.9023438 -1.160156,1.19531253 -0.6679687,0.57421875 -1.453125,0.9375 -2.34375,1.125 -0.4570312,0.10546875 -0.984375,0.1640625 -1.5351562,0.1640625 -1.3710938,0 -2.4492188,-0.50390625 -3.1875,-1.50000003 -0.7382813,-0.984375 -0.9140625,-2.4023437 -0.5273438,-4.1953125 0.375,-1.78125 1.1601563,-3.2109375 2.3554688,-4.3359375 1.1835937,-1.0898436 2.5546875,-1.6406246 4.125,-1.6406246 0.7734375,0 1.5,0.1875 2.1679692,0.550781 0.65625,0.351562 1.101562,0.8437499 1.359375,1.4296874 z m -1.605469,2.8945312 c 0.08203,-0.796875 0.05859,-1.4414062 -0.128906,-1.921875 -0.3164067,-0.890625 -1.054688,-1.3476562 -2.2382817,-1.3476562 -0.8671875,0 -1.6523438,0.3164062 -2.34375,0.9257812 -0.7148438,0.609375 -1.1835938,1.3945313 -1.4414063,2.34375 z m 0,0"
       style="fill:#000000;fill-opacity:1;fill-rule:nonzero;stroke:none"
       aria-label="e"
       transform="matrix(1.3333333,0,0,1.3333333,148.7654,197.71139)" />
    <path
       id="path12"
       d="m 83.781,134.051 0.727,-0.836 0.633,-0.84 0.468,-0.836 0.243,-0.84 -0.016,-0.836 -0.27,-0.84 -0.488,-0.835 -0.648,-0.84 -0.731,-0.836 -0.719,-0.84 -0.621,-0.836 -0.445,-0.84 -0.215,-0.836 0.043,-0.84 0.297,-0.836 0.508,-0.839 0.664,-0.836 0.734,-0.84 0.711,-0.836 0.606,-0.84 0.418,-0.836 0.187,-0.84 -0.07,-0.836 -0.324,-0.84 -0.532,-0.836 -0.671,-0.835 -0.739,-0.84 -0.703,-0.836 -0.586,-0.84 -0.398,-0.836 -0.156,-0.84 0.097,-0.836 0.348,-0.84 0.551,-0.836 0.687,-0.839 0.734,-0.836 0.696,-0.84 0.57,-0.836 0.371,-0.84 0.129,-0.836 -0.129,-0.84 -0.371,-0.836 -0.57,-0.84 -0.696,-0.835 -0.734,-0.84 -0.687,-0.836 -0.551,-0.84 -0.348,-0.836 -0.097,-0.84 0.156,-0.836 0.398,-0.84 0.586,-0.836 0.703,-0.836 0.739,-0.839 0.671,-0.836 0.532,-0.84 0.324,-0.836 0.07,-0.84 -0.187,-0.836 -0.418,-0.84 -0.606,-0.836 -0.711,-0.84 -0.734,-0.835 -0.664,-0.84 -0.508,-0.836 -0.297,-0.84 -0.043,-0.836 0.215,-0.84 0.445,-0.836 0.621,-0.84 0.719,-0.836 0.731,-0.839 0.648,-0.836 0.488,-0.84 0.27,-0.836 0.016,-0.836 -0.243,-0.84 -0.468,-0.836 -0.633,-0.84 -0.727,-0.836"
       style="fill:none;stroke:#000000;stroke-width:0.9216;stroke-linecap:square;stroke-linejoin:miter;stroke-miterlimit:3.25;stroke-dasharray:none;stroke-opacity:1"
       transform="scale(1.3333333)" />
    <path
       id="path13"
       d="M 12.059866,-10.442479 5.9075224,-0.00107263 v 0.19921875 c 0,0.12890625 0.023437,0.24609375 0.023437,0.36328125 0,0.1171875 0,0.24609375 0,0.36328125 0,0.18749998 0,0.38671878 -0.023437,0.60937498 -0.023437,0.234375 -0.058594,0.4804688 -0.1054687,0.7382813 -0.035156,0.2460937 -0.09375,0.4921875 -0.1523438,0.75 -0.082031,0.2460937 -0.1875,0.46875 -0.3046875,0.6445312 -0.1289062,0.1992188 -0.2695312,0.3632813 -0.4453125,0.4804688 -0.1640625,0.1289062 -0.3632812,0.1875 -0.609375,0.1875 -0.1757812,0 -0.3398437,-0.046875 -0.4804687,-0.1289063 C 3.6692412,4.1356461 3.5520537,4.0536149 3.4465849,3.9247086 3.3528349,3.8075211 3.2708037,3.6668961 3.2239287,3.5028336 3.1653349,3.3504899 3.1418974,3.1629899 3.1418974,2.9989274 c 0,-0.3164063 0.046875,-0.5976563 0.082031,-0.8671875 C 3.2825224,1.8739274 3.3528349,1.6278336 3.4465849,1.3934586 3.5286162,1.1708024 3.6340849,0.92470862 3.7512724,0.67861487 3.8684599,0.46767737 3.9973662,0.19814612 4.1379912,-0.08310388 L 2.4856474,-10.442479 h 1.8515625 l 1.171875,8.2500001 4.7460941,-8.2500001 z m 0,0"
       style="fill:#000000;fill-opacity:1;fill-rule:nonzero;stroke:none"
       aria-label="γ"
       transform="matrix(1.3333333,0,0,1.3333333,122.26783,144.19674)"
       clip-path="url(#clipPath14)" />
    <path
       id="path15"
       d="M 83.781,67.027 C 74.84,66.848 66.211,70.32 59.887,76.645 53.562,82.969 50.09,91.598 50.27,100.539"
       style="fill:none;stroke:#000000;stroke-width:0.9216;stroke-linecap:square;stroke-linejoin:miter;stroke-miterlimit:3.25;stroke-dasharray:none;stroke-opacity:1"
       transform="scale(1.3333333)" />
    <path
       id="path16"
       d="m 56.332,80.199 4.738,-9.48 4.742,4.738 z"
       style="fill:#000000;fill-opacity:1;fill-rule:evenodd;stroke:none"
       transform="scale(1.3333333)" />
    <path
       id="path17"
       d="m 11.870749,-9.293739 c 0.269531,0.5507813 0.375,1.2070313 0.339844,1.9453125 0,0.5039063 -0.105469,1.3125 -0.339844,2.4257813 H 3.7613742 c -0.2109375,1.125 -0.1289062,2.0273437 0.234375,2.7070312 0.328125,0.6679688 1.03125,1.0078125 2.0859375,1.0078125 0.9492188,0 1.7929688,-0.3164062 2.5078125,-0.9726562 0.4101563,-0.3515625 0.7382813,-0.7734375 0.9726563,-1.2890625 h 1.8398435 c -0.152344,0.4335937 -0.398437,0.8671875 -0.785156,1.3828125 -0.375,0.4804687 -0.75,0.9023437 -1.1601563,1.19531245 -0.6679687,0.57421875 -1.453125,0.9375 -2.34375,1.125 -0.4570312,0.10546875 -0.984375,0.1640625 -1.5351562,0.1640625 -1.3710938,0 -2.4492188,-0.50390625 -3.1875,-1.49999995 -0.7382813,-0.984375 -0.9140625,-2.4023438 -0.5273438,-4.1953125 0.375,-1.78125 1.1601563,-3.2109375 2.3554688,-4.3359375 1.1835937,-1.0898433 2.5546875,-1.6406253 4.125,-1.6406253 0.7734375,0 1.5,0.1875 2.1679685,0.550782 0.65625,0.351562 1.101563,0.8437495 1.359375,1.429687 z m -1.605469,2.8945313 c 0.08203,-0.796875 0.05859,-1.4414063 -0.128906,-1.921875 -0.316406,-0.890625 -1.0546873,-1.3476563 -2.238281,-1.3476563 -0.8671875,0 -1.6523438,0.3164063 -2.34375,0.9257813 -0.7148438,0.609375 -1.1835938,1.3945312 -1.4414063,2.34375 z m 0,0"
       style="fill:#000000;fill-opacity:1;fill-rule:nonzero;stroke:none"
       aria-label="e"
       transform="matrix(1.3333333,0,0,1.3333333,58.156709,90.391652)" />
    <path
       id="path18"
       d="M 117.293,100.539 C 117.258,82.047 102.273,67.062 83.781,67.027"
       style="fill:none;stroke:#000000;stroke-width:0.9216;stroke-linecap:square;stroke-linejoin:miter;stroke-miterlimit:3.25;stroke-dasharray:none;stroke-opacity:1"
       transform="scale(1.3333333)" />
    <path
       id="path19"
       d="m 103.902,73.309 9.481,4.738 -4.738,4.738 z"
       style="fill:#000000;fill-opacity:1;fill-rule:evenodd;stroke:none"
       transform="scale(1.3333333)" />
    <path
       id="path20"
       d="m 11.87126,-9.2918454 c 0.269531,0.5507812 0.375,1.2070312 0.339843,1.9453125 0,0.5039062 -0.105468,1.3125 -0.339843,2.4257812 H 3.7618845 c -0.2109375,1.125 -0.1289062,2.0273438 0.234375,2.7070313 0.328125,0.6679687 1.03125,1.0078125 2.0859375,1.0078125 0.9492188,0 1.7929688,-0.3164063 2.5078125,-0.9726563 0.4101563,-0.3515625 0.7382813,-0.7734375 0.9726563,-1.2890625 H 11.40251 c -0.152344,0.4335938 -0.398438,0.8671875 -0.785157,1.3828125 -0.375,0.4804688 -0.7499997,0.9023438 -1.160156,1.19531251 -0.6679687,0.57421875 -1.453125,0.9375 -2.34375,1.125 -0.4570312,0.10546875 -0.984375,0.1640625 -1.5351562,0.1640625 -1.3710938,0 -2.4492188,-0.50390625 -3.1875,-1.50000001 -0.7382813,-0.984375 -0.9140625,-2.4023437 -0.5273438,-4.1953125 0.375,-1.78125 1.1601563,-3.2109375 2.3554688,-4.3359375 1.1835937,-1.0898438 2.5546875,-1.6406248 4.125,-1.6406248 0.7734375,0 1.5,0.1875 2.1679692,0.550781 0.65625,0.351563 1.101562,0.8437501 1.359375,1.4296876 z m -1.605469,2.8945312 c 0.08203,-0.796875 0.05859,-1.4414062 -0.128906,-1.921875 -0.3164067,-0.890625 -1.054688,-1.3476562 -2.2382817,-1.3476562 -0.8671875,0 -1.6523438,0.3164062 -2.34375,0.9257812 -0.7148438,0.609375 -1.1835938,1.3945313 -1.4414063,2.34375 z m 0,0"
       style="fill:#000000;fill-opacity:1;fill-rule:nonzero;stroke:none"
       aria-label="e"
       transform="matrix(1.3333333,0,0,1.3333333,148.7654,90.682096)" />
    <path
       id="path21"
       d="m 87.469,67.027 c 0,0.977 -0.391,1.914 -1.082,2.606 -0.692,0.691 -1.629,1.078 -2.606,1.078 -0.976,0 -1.914,-0.387 -2.605,-1.078 -0.692,-0.692 -1.082,-1.629 -1.082,-2.606 0,-0.98 0.39,-1.918 1.082,-2.609 0.691,-0.691 1.629,-1.078 2.605,-1.078 0.977,0 1.914,0.387 2.606,1.078 0.691,0.691 1.082,1.629 1.082,2.609 z"
       style="fill:#000000;fill-opacity:1;fill-rule:evenodd;stroke:none"
       transform="scale(1.3333333)" />
    <path
       id="path22"
       d="m 87.469,134.051 c 0,0.976 -0.391,1.914 -1.082,2.605 -0.692,0.692 -1.629,1.082 -2.606,1.082 -0.976,0 -1.914,-0.39 -2.605,-1.082 -0.692,-0.691 -1.082,-1.629 -1.082,-2.605 0,-0.977 0.39,-1.914 1.082,-2.606 0.691,-0.691 1.629,-1.082 2.605,-1.082 0.977,0 1.914,0.391 2.606,1.082 0.691,0.692 1.082,1.629 1.082,2.606 z"
       style="fill:#000000;fill-opacity:1;fill-rule:evenodd;stroke:none"
       transform="scale(1.3333333)" />
    <path
       id="path23"
       d="m 53.957,100.539 c 0,0.977 -0.391,1.914 -1.082,2.606 -0.691,0.691 -1.629,1.078 -2.605,1.078 -0.977,0 -1.915,-0.387 -2.606,-1.078 -0.691,-0.692 -1.082,-1.629 -1.082,-2.606 0,-0.98 0.391,-1.918 1.082,-2.609 0.691,-0.692 1.629,-1.078 2.606,-1.078 0.976,0 1.914,0.386 2.605,1.078 0.691,0.691 1.082,1.629 1.082,2.609 z"
       style="fill:#000000;fill-opacity:1;fill-rule:evenodd;stroke:none"
       transform="scale(1.3333333)" />
    <path
       id="path24"
       d="m 120.98,100.539 c 0,0.977 -0.386,1.914 -1.078,2.606 -0.691,0.691 -1.629,1.078 -2.609,1.078 -0.977,0 -1.914,-0.387 -2.605,-1.078 -0.692,-0.692 -1.079,-1.629 -1.079,-2.606 0,-0.98 0.387,-1.918 1.079,-2.609 0.691,-0.692 1.628,-1.078 2.605,-1.078 0.98,0 1.918,0.386 2.609,1.078 0.692,0.691 1.078,1.629 1.078,2.609 z"
       style="fill:#000000;fill-opacity:1;fill-rule:evenodd;stroke:none"
       transform="scale(1.3333333)" />
    <path
       id="path25"
       d="m 234.59,100.539 -0.84,-0.75 -0.836,-0.652 -0.84,-0.465 -0.836,-0.215 -0.84,0.059 -0.836,0.328 -0.839,0.554 -0.836,0.707 -0.84,0.762 -0.836,0.719 -0.836,0.582 -0.84,0.363 -0.836,0.102 -0.84,-0.18 -0.836,-0.433 -0.839,-0.629 -0.836,-0.743 -0.84,-0.757 -0.836,-0.668 -0.84,-0.496 -0.836,-0.254 -0.84,0.019 -0.836,0.293 -0.84,0.524 -0.835,0.687 -0.84,0.762 -0.836,0.734 -0.84,0.606 -0.836,0.398 -0.84,0.137 -0.836,-0.137 -0.84,-0.398 -0.836,-0.606 -0.839,-0.734 -0.836,-0.762 -0.84,-0.687 -0.836,-0.524 -0.836,-0.293 -0.84,-0.019 -0.836,0.254 -0.84,0.496 -0.836,0.668 -0.84,0.757 -0.835,0.743 -0.84,0.629 -0.836,0.433 -0.84,0.18 -0.836,-0.102 -0.84,-0.363 -0.836,-0.582 -0.84,-0.719 -0.836,-0.762 -0.839,-0.707 -0.836,-0.554 -0.84,-0.328 -0.836,-0.059 -0.84,0.215 -0.836,0.465 -0.84,0.652 -0.836,0.75"
       style="fill:none;stroke:#000000;stroke-width:0.9216;stroke-linecap:square;stroke-linejoin:miter;stroke-miterlimit:3.25;stroke-dasharray:none;stroke-opacity:1"
       transform="scale(1.3333333)" />
    <path
       id="path26"
       d="M 12.059127,-10.440637 5.9067831,7.688125e-4 V 0.19998756 c 0,0.12890625 0.023437,0.24609375 0.023437,0.36328125 0,0.1171875 0,0.24609375 0,0.36328125 0,0.18750004 0,0.38671874 -0.023437,0.60937504 -0.023437,0.234375 -0.058594,0.4804687 -0.1054687,0.7382812 -0.035156,0.2460938 -0.09375,0.4921875 -0.1523438,0.75 -0.082031,0.2460938 -0.1875,0.46875 -0.3046875,0.6445313 -0.1289062,0.1992187 -0.2695312,0.3632812 -0.4453125,0.4804687 -0.1640625,0.1289063 -0.3632812,0.1875 -0.609375,0.1875 -0.1757812,0 -0.3398437,-0.046875 -0.4804687,-0.1289062 C 3.6685019,4.1374876 3.5513144,4.0554563 3.4458456,3.9265501 3.3520956,3.8093626 3.2700644,3.6687376 3.2231894,3.5046751 3.1645956,3.3523313 3.1411581,3.1648313 3.1411581,3.0007688 c 0,-0.3164062 0.046875,-0.5976562 0.082031,-0.8671875 C 3.2817831,1.8757688 3.3520956,1.6296751 3.4458456,1.3953001 3.5278769,1.1726438 3.6333456,0.92655006 3.7505331,0.68045631 3.8677206,0.46951881 3.9966269,0.19998756 4.1372519,-0.08126244 L 2.4849081,-10.440637 h 1.8515625 l 1.171875,8.2499996 4.7460934,-8.2499996 z m 0,0"
       style="fill:#000000;fill-opacity:1;fill-rule:nonzero;stroke:none"
       aria-label="γ"
       transform="matrix(1.3333333,0,0,1.3333333,271.83523,171.21382)" />
    <path
       id="path27"
       d="m 301.613,100.539 0.84,0.75 0.836,0.652 0.84,0.461 0.836,0.219 0.84,-0.059 0.836,-0.332 0.839,-0.55 0.836,-0.707 0.84,-0.762 0.836,-0.723 0.84,-0.578 0.836,-0.363 0.84,-0.102 0.836,0.18 0.84,0.43 0.836,0.629 0.839,0.742 0.836,0.758 0.836,0.671 0.84,0.497 0.836,0.253 0.84,-0.019 0.836,-0.293 0.84,-0.527 0.836,-0.688 0.839,-0.762 0.836,-0.73 0.84,-0.606 0.836,-0.398 0.84,-0.141 0.836,0.141 0.84,0.398 0.836,0.606 0.84,0.73 0.836,0.762 0.839,0.688 0.836,0.527 0.84,0.293 0.836,0.019 0.84,-0.253 0.836,-0.497 0.84,-0.671 0.836,-0.758 0.839,-0.742 0.836,-0.629 0.84,-0.43 0.836,-0.18 0.836,0.102 0.84,0.363 0.836,0.578 0.84,0.723 0.836,0.762 0.84,0.707 0.835,0.55 0.84,0.332 0.836,0.059 0.84,-0.219 0.836,-0.461 0.84,-0.652 0.836,-0.75"
       style="fill:none;stroke:#000000;stroke-width:0.9216;stroke-linecap:square;stroke-linejoin:miter;stroke-miterlimit:3.25;stroke-dasharray:none;stroke-opacity:1"
       transform="scale(1.3333333)" />
    <path
       id="path28"
       d="M 12.05755,-10.440637 5.9052059,7.688125e-4 V 0.19998756 c 0,0.12890625 0.023437,0.24609375 0.023437,0.36328125 0,0.1171875 0,0.24609375 0,0.36328125 0,0.18750004 0,0.38671874 -0.023437,0.60937504 -0.023437,0.234375 -0.058594,0.4804687 -0.1054688,0.7382812 -0.035156,0.2460938 -0.09375,0.4921875 -0.1523437,0.75 -0.082031,0.2460938 -0.1875,0.46875 -0.3046875,0.6445313 -0.1289063,0.1992187 -0.2695313,0.3632812 -0.4453125,0.4804687 -0.1640625,0.1289063 -0.3632813,0.1875 -0.609375,0.1875 -0.1757813,0 -0.3398438,-0.046875 -0.4804688,-0.1289062 C 3.6669246,4.1374876 3.5497371,4.0554563 3.4442684,3.9265501 3.3505184,3.8093626 3.2684871,3.6687376 3.2216121,3.5046751 3.1630184,3.3523313 3.1395809,3.1648313 3.1395809,3.0007688 c 0,-0.3164062 0.046875,-0.5976562 0.082031,-0.8671875 C 3.2802059,1.8757688 3.3505184,1.6296751 3.4442684,1.3953001 3.5262996,1.1726438 3.6317684,0.92655006 3.7489559,0.68045631 3.8661434,0.46951881 3.9950496,0.19998756 4.1356746,-0.08126244 L 2.4833309,-10.440637 h 1.8515625 l 1.171875,8.2499996 4.7460936,-8.2499996 z m 0,0"
       style="fill:#000000;fill-opacity:1;fill-rule:nonzero;stroke:none"
       aria-label="γ"
       transform="matrix(1.3333333,0,0,1.3333333,428.22795,171.21382)"
       clip-path="url(#clipPath29)" />
    <path
       id="path30"
       d="m 234.59,100.539 c 0,8.887 3.531,17.41 9.816,23.695 6.285,6.286 14.809,9.817 23.696,9.817 8.886,0 17.414,-3.531 23.699,-9.817 6.281,-6.285 9.812,-14.808 9.812,-23.695"
       style="fill:none;stroke:#000000;stroke-width:0.9216;stroke-linecap:square;stroke-linejoin:miter;stroke-miterlimit:3.25;stroke-dasharray:none;stroke-opacity:1"
       transform="scale(1.3333333)" />
    <path
       id="path31"
       d="m 273.129,134.051 -10.055,3.351 v -6.703 z"
       style="fill:#000000;fill-opacity:1;fill-rule:evenodd;stroke:none"
       transform="scale(1.3333333)" />
    <path
       id="path32"
       d="m 11.871775,-9.2922326 c 0.269532,0.5507812 0.375,1.2070312 0.339844,1.9453125 0,0.5039062 -0.105469,1.3125 -0.339844,2.4257812 H 3.7624004 c -0.2109375,1.125 -0.1289063,2.0273438 0.234375,2.7070313 0.328125,0.6679687 1.03125,1.0078125 2.0859375,1.0078125 0.9492187,0 1.7929687,-0.3164063 2.5078125,-0.9726563 0.4101562,-0.3515625 0.7382812,-0.7734375 0.9726562,-1.2890625 h 1.8398434 c -0.152343,0.4335938 -0.398437,0.8671875 -0.785156,1.3828125 -0.375,0.4804688 -0.7499999,0.9023438 -1.1601561,1.19531253 -0.6679688,0.57421875 -1.453125,0.9375 -2.34375,1.125 -0.4570313,0.10546875 -0.984375,0.1640625 -1.5351563,0.1640625 -1.3710937,0 -2.4492187,-0.50390625 -3.1875,-1.50000003 -0.7382812,-0.984375 -0.9140625,-2.4023437 -0.5273437,-4.1953125 0.375,-1.78125 1.1601562,-3.2109375 2.3554687,-4.3359375 1.1835938,-1.0898436 2.5546875,-1.6406246 4.125,-1.6406246 0.7734375,0 1.5,0.1875 2.1679684,0.550781 0.65625,0.351562 1.101563,0.8437499 1.359375,1.4296874 z m -1.605468,2.8945312 c 0.08203,-0.796875 0.05859,-1.4414062 -0.128907,-1.921875 -0.3164059,-0.890625 -1.0546871,-1.3476562 -2.2382809,-1.3476562 -0.8671875,0 -1.6523437,0.3164062 -2.34375,0.9257812 -0.7148437,0.609375 -1.1835937,1.3945313 -1.4414062,2.34375 z m 0,0"
       style="fill:#000000;fill-opacity:1;fill-rule:nonzero;stroke:none"
       aria-label="e"
       transform="matrix(1.3333333,0,0,1.3333333,349.36628,215.89746)" />
    <path
       id="path33"
       d="m 251.344,71.215 c -11.203,5.269 -17.906,16.996 -16.754,29.324"
       style="fill:none;stroke:#000000;stroke-width:0.9216;stroke-linecap:square;stroke-linejoin:miter;stroke-miterlimit:3.25;stroke-dasharray:none;stroke-opacity:1"
       transform="scale(1.3333333)" />
    <path
       id="path34"
       d="m 235.84,87.594 2.078,-10.391 5.82,3.324 z"
       style="fill:#000000;fill-opacity:1;fill-rule:evenodd;stroke:none"
       transform="scale(1.3333333)" />
    <path
       id="path35"
       d="m 11.87187,-9.2934617 c 0.269531,0.5507813 0.375,1.2070313 0.339844,1.9453125 0,0.5039063 -0.105469,1.3125 -0.339844,2.4257813 H 3.762495 c -0.2109375,1.125 -0.1289062,2.0273437 0.234375,2.7070312 0.328125,0.6679688 1.03125,1.0078125 2.0859375,1.0078125 0.9492188,0 1.7929688,-0.3164062 2.5078125,-0.9726562 0.4101563,-0.3515625 0.7382813,-0.7734375 0.9726563,-1.2890625 H 11.40312 c -0.152344,0.4335937 -0.398437,0.8671875 -0.785156,1.3828125 -0.375,0.4804687 -0.7500002,0.9023437 -1.1601565,1.19531246 -0.6679687,0.57421875 -1.453125,0.9375 -2.34375,1.125 -0.4570312,0.10546875 -0.984375,0.1640625 -1.5351562,0.1640625 -1.3710938,0 -2.4492188,-0.50390625 -3.1875,-1.49999996 -0.7382813,-0.984375 -0.9140625,-2.4023438 -0.5273438,-4.1953125 0.375,-1.78125 1.1601563,-3.2109375 2.3554688,-4.3359375 1.1835937,-1.0898436 2.5546875,-1.6406246 4.125,-1.6406246 0.7734375,0 1.5,0.1875 2.1679687,0.550781 0.65625,0.351562 1.101563,0.8437498 1.359375,1.4296873 z m -1.605469,2.8945313 c 0.08203,-0.796875 0.05859,-1.4414063 -0.128906,-1.921875 -0.3164062,-0.890625 -1.0546875,-1.3476563 -2.2382812,-1.3476563 -0.8671875,0 -1.6523438,0.3164063 -2.34375,0.9257813 -0.7148438,0.609375 -1.1835938,1.3945312 -1.4414063,2.34375 z m 0,0"
       style="fill:#000000;fill-opacity:1;fill-rule:nonzero;stroke:none"
       aria-label="e"
       transform="matrix(1.3333333,0,0,1.3333333,293.29584,102.82488)" />
    <path
       id="path36"
       d="m 284.859,71.215 c -1.152,-5.113 -4.57,-9.418 -9.289,-11.695 -4.718,-2.282 -10.218,-2.282 -14.937,0 -4.719,2.277 -8.137,6.582 -9.289,11.695"
       style="fill:none;stroke:#000000;stroke-width:0.9216;stroke-linecap:square;stroke-linejoin:miter;stroke-miterlimit:3.25;stroke-dasharray:none;stroke-opacity:1"
       transform="scale(1.3333333)" />
    <path
       id="path37"
       d="m 263.074,57.809 10.055,-3.352 v 6.703 z"
       style="fill:#000000;fill-opacity:1;fill-rule:evenodd;stroke:none"
       transform="scale(1.3333333)" />
    <path
       id="path38"
       d="m 11.871775,-9.2937173 c 0.269532,0.5507812 0.375,1.2070312 0.339844,1.9453125 0,0.5039062 -0.105469,1.3125 -0.339844,2.4257812 H 3.7624004 c -0.2109375,1.125 -0.1289063,2.0273438 0.234375,2.7070313 0.328125,0.6679687 1.03125,1.0078125 2.0859375,1.0078125 0.9492187,0 1.7929687,-0.3164063 2.5078125,-0.9726563 0.4101562,-0.3515625 0.7382812,-0.7734375 0.9726562,-1.2890625 h 1.8398434 c -0.152343,0.4335938 -0.398437,0.8671875 -0.785156,1.3828125 -0.375,0.4804688 -0.7499999,0.9023438 -1.1601561,1.19531254 -0.6679688,0.57421875 -1.453125,0.9375 -2.34375,1.125 -0.4570313,0.10546875 -0.984375,0.1640625 -1.5351563,0.1640625 -1.3710937,0 -2.4492187,-0.50390625 -3.1875,-1.50000004 -0.7382812,-0.984375 -0.9140625,-2.4023437 -0.5273437,-4.1953125 0.375,-1.78125 1.1601562,-3.2109375 2.3554687,-4.3359375 1.1835938,-1.0898439 2.5546875,-1.6406249 4.125,-1.6406249 0.7734375,0 1.5,0.1875 2.1679684,0.550781 0.65625,0.351563 1.101563,0.8437502 1.359375,1.4296877 z m -1.605468,2.8945312 c 0.08203,-0.796875 0.05859,-1.4414062 -0.128907,-1.921875 -0.3164059,-0.890625 -1.0546871,-1.3476562 -2.2382809,-1.3476562 -0.8671875,0 -1.6523437,0.3164062 -2.34375,0.9257812 -0.7148437,0.609375 -1.1835937,1.3945313 -1.4414062,2.34375 z m 0,0"
       style="fill:#000000;fill-opacity:1;fill-rule:nonzero;stroke:none"
       aria-label="e"
       transform="matrix(1.3333333,0,0,1.3333333,349.36628,60.208029)" />
    <path
       id="path39"
       d="m 251.344,71.215 0.992,0.597 0.887,0.555 0.679,0.563 0.414,0.632 0.149,0.754 -0.07,0.899 -0.207,1.047 -0.223,1.144 -0.129,1.176 0.066,1.117 0.321,0.965 0.601,0.734 0.852,0.457 1.047,0.176 1.152,-0.058 1.168,-0.219 1.102,-0.262 0.984,-0.187 0.836,-0.008 0.703,0.238 0.609,0.516 0.575,0.761 0.593,0.926 0.66,0.981 0.758,0.894 0.848,0.684 0.918,0.371 h 0.945 l 0.918,-0.371 0.852,-0.684 0.754,-0.894 0.664,-0.981 0.59,-0.926 0.574,-0.761 0.609,-0.516 0.703,-0.238 0.84,0.008 0.981,0.187 1.101,0.262 1.168,0.219 1.152,0.058 1.047,-0.176 0.852,-0.457 0.601,-0.734 0.321,-0.965 0.066,-1.117 -0.129,-1.176 -0.222,-1.144 -0.204,-1.047 -0.074,-0.899 0.149,-0.754 0.418,-0.632 0.675,-0.563 0.887,-0.555 0.992,-0.597"
       style="fill:none;stroke:#000000;stroke-width:0.9216;stroke-linecap:square;stroke-linejoin:miter;stroke-miterlimit:3.25;stroke-dasharray:none;stroke-opacity:1"
       transform="scale(1.3333333)" />
    <path
       id="path40"
       d="M 12.058338,-10.442014 5.9059945,-6.080625e-4 V 0.19861069 c 0,0.12890625 0.023437,0.24609375 0.023437,0.36328125 0,0.1171875 0,0.24609375 0,0.36328125 0,0.18750001 0,0.38671871 -0.023437,0.60937501 -0.023437,0.234375 -0.058594,0.4804687 -0.1054687,0.7382812 -0.035156,0.2460938 -0.09375,0.4921875 -0.1523438,0.75 -0.082031,0.2460938 -0.1875,0.46875 -0.3046875,0.6445313 -0.1289062,0.1992187 -0.2695312,0.3632812 -0.4453125,0.4804687 -0.1640625,0.1289063 -0.3632812,0.1875 -0.609375,0.1875 -0.1757812,0 -0.3398437,-0.046875 -0.4804687,-0.1289062 C 3.6677133,4.1361107 3.5505258,4.0540794 3.445057,3.9251732 3.351307,3.8079857 3.2692758,3.6673607 3.2224008,3.5032982 3.163807,3.3509544 3.1403695,3.1634544 3.1403695,2.9993919 c 0,-0.3164062 0.046875,-0.5976562 0.082031,-0.8671875 C 3.2809945,1.8743919 3.351307,1.6282982 3.445057,1.3939232 3.5270883,1.1712669 3.632557,0.92517319 3.7497445,0.67907944 3.866932,0.46814194 3.9958383,0.19861069 4.1364633,-0.08263931 L 2.4841195,-10.442014 H 4.335682 l 1.171875,8.2499997 4.746094,-8.2499997 z m 0,0"
       style="fill:#000000;fill-opacity:1;fill-rule:nonzero;stroke:none"
       aria-label="γ"
       transform="matrix(1.3333333,0,0,1.3333333,350.03159,149.98909)"
       clip-path="url(#clipPath41)" />
    <path
       id="path42"
       d="M 301.613,100.539 C 302.625,88.238 295.969,76.586 284.859,71.215"
       style="fill:none;stroke:#000000;stroke-width:0.9216;stroke-linecap:square;stroke-linejoin:miter;stroke-miterlimit:3.25;stroke-dasharray:none;stroke-opacity:1"
       transform="scale(1.3333333)" />
    <path
       id="path43"
       d="m 295.289,78.914 7.895,7.066 -5.817,3.325 z"
       style="fill:#000000;fill-opacity:1;fill-rule:evenodd;stroke:none"
       transform="scale(1.3333333)" />
    <path
       id="path44"
       d="m 11.871762,-9.293926 c 0.269531,0.5507813 0.375,1.2070313 0.339844,1.9453125 0,0.5039063 -0.105469,1.3125 -0.339844,2.4257813 H 3.7623871 c -0.2109375,1.125 -0.1289062,2.0273437 0.234375,2.7070312 0.328125,0.6679688 1.03125,1.0078125 2.0859375,1.0078125 0.9492188,0 1.7929688,-0.3164062 2.5078125,-0.9726562 0.4101563,-0.3515625 0.7382813,-0.7734375 0.9726563,-1.2890625 h 1.8398436 c -0.152344,0.4335937 -0.398437,0.8671875 -0.785156,1.3828125 -0.375,0.4804687 -0.7500001,0.9023437 -1.1601564,1.19531245 -0.6679687,0.57421875 -1.453125,0.9375 -2.34375,1.125 -0.4570312,0.10546875 -0.984375,0.1640625 -1.5351562,0.1640625 -1.3710938,0 -2.4492188,-0.50390625 -3.1875,-1.49999995 -0.7382813,-0.984375 -0.9140625,-2.4023438 -0.5273438,-4.1953125 0.375,-1.78125 1.1601563,-3.2109375 2.3554688,-4.3359375 1.1835937,-1.0898433 2.5546875,-1.6406253 4.125,-1.6406253 0.7734375,0 1.5,0.1875 2.1679686,0.550782 0.65625,0.351562 1.101563,0.8437495 1.359375,1.429687 z m -1.605469,2.8945313 c 0.08203,-0.796875 0.05859,-1.4414063 -0.128906,-1.921875 -0.3164061,-0.890625 -1.0546874,-1.3476563 -2.2382811,-1.3476563 -0.8671875,0 -1.6523438,0.3164063 -2.34375,0.9257813 -0.7148438,0.609375 -1.1835938,1.3945312 -1.4414063,2.34375 z m 0,0"
       style="fill:#000000;fill-opacity:1;fill-rule:nonzero;stroke:none"
       aria-label="e"
       transform="matrix(1.3333333,0,0,1.3333333,405.31942,102.8919)" />
    <path
       id="path45"
       d="m 288.543,71.215 c 0,0.976 -0.387,1.914 -1.078,2.605 -0.692,0.692 -1.629,1.082 -2.606,1.082 -0.98,0 -1.918,-0.39 -2.609,-1.082 -0.691,-0.691 -1.078,-1.629 -1.078,-2.605 0,-0.977 0.387,-1.914 1.078,-2.606 0.691,-0.691 1.629,-1.082 2.609,-1.082 0.977,0 1.914,0.391 2.606,1.082 0.691,0.692 1.078,1.629 1.078,2.606 z"
       style="fill:#000000;fill-opacity:1;fill-rule:evenodd;stroke:none"
       transform="scale(1.3333333)" />
    <path
       id="path46"
       d="m 255.031,71.215 c 0,0.976 -0.386,1.914 -1.078,2.605 -0.691,0.692 -1.629,1.082 -2.609,1.082 -0.977,0 -1.914,-0.39 -2.606,-1.082 -0.691,-0.691 -1.078,-1.629 -1.078,-2.605 0,-0.977 0.387,-1.914 1.078,-2.606 0.692,-0.691 1.629,-1.082 2.606,-1.082 0.98,0 1.918,0.391 2.609,1.082 0.692,0.692 1.078,1.629 1.078,2.606 z"
       style="fill:#000000;fill-opacity:1;fill-rule:evenodd;stroke:none"
       transform="scale(1.3333333)" />
    <path
       id="path47"
       d="m 238.277,100.539 c 0,0.977 -0.39,1.914 -1.082,2.606 -0.691,0.691 -1.629,1.078 -2.605,1.078 -0.977,0 -1.918,-0.387 -2.61,-1.078 -0.687,-0.692 -1.078,-1.629 -1.078,-2.606 0,-0.98 0.391,-1.918 1.078,-2.609 0.692,-0.692 1.633,-1.078 2.61,-1.078 0.976,0 1.914,0.386 2.605,1.078 0.692,0.691 1.082,1.629 1.082,2.609 z"
       style="fill:#000000;fill-opacity:1;fill-rule:evenodd;stroke:none"
       transform="scale(1.3333333)" />
    <path
       id="path48"
       d="m 305.301,100.539 c 0,0.977 -0.387,1.914 -1.078,2.606 -0.692,0.691 -1.629,1.078 -2.61,1.078 -0.976,0 -1.914,-0.387 -2.605,-1.078 -0.692,-0.692 -1.078,-1.629 -1.078,-2.606 0,-0.98 0.386,-1.918 1.078,-2.609 0.691,-0.692 1.629,-1.078 2.605,-1.078 0.981,0 1.918,0.386 2.61,1.078 0.691,0.691 1.078,1.629 1.078,2.609 z"
       style="fill:#000000;fill-opacity:1;fill-rule:evenodd;stroke:none"
       transform="scale(1.3333333)" />
    <path
       id="path49"
       d="m 418.91,100.539 -0.84,-0.75 -0.836,-0.652 -0.839,-0.465 -0.836,-0.215 -0.84,0.059 -0.836,0.328 -0.84,0.554 -0.836,0.707 -0.84,0.762 -0.836,0.719 -0.84,0.582 -0.836,0.363 -0.835,0.102 -0.84,-0.18 -0.836,-0.433 -0.84,-0.629 -0.836,-0.743 -0.84,-0.757 -0.836,-0.668 -0.84,-0.496 -0.836,-0.254 -0.839,0.019 -0.836,0.293 -0.84,0.524 -0.836,0.687 -0.84,0.762 -0.836,0.734 -0.84,0.606 -0.836,0.398 -0.84,0.137 -0.835,-0.137 -0.84,-0.398 -0.836,-0.606 -0.84,-0.734 -0.836,-0.762 -0.84,-0.687 -0.836,-0.524 -0.84,-0.293 -0.836,-0.019 -0.839,0.254 -0.836,0.496 -0.836,0.668 -0.84,0.757 -0.836,0.743 -0.84,0.629 -0.836,0.433 -0.84,0.18 -0.836,-0.102 -0.84,-0.363 -0.835,-0.582 -0.84,-0.719 -0.836,-0.762 -0.84,-0.707 -0.836,-0.554 -0.84,-0.328 -0.836,-0.059 -0.84,0.215 -0.836,0.465 -0.839,0.652 -0.836,0.75"
       style="fill:none;stroke:#000000;stroke-width:0.9216;stroke-linecap:square;stroke-linejoin:miter;stroke-miterlimit:3.25;stroke-dasharray:none;stroke-opacity:1"
       transform="scale(1.3333333)" />
    <path
       id="path50"
       d="M 12.057486,-10.440637 5.9051425,7.688125e-4 V 0.19998756 c 0,0.12890625 0.023437,0.24609375 0.023437,0.36328125 0,0.1171875 0,0.24609375 0,0.36328125 0,0.18750004 0,0.38671874 -0.023437,0.60937504 -0.023437,0.234375 -0.058594,0.4804687 -0.1054687,0.7382812 -0.035156,0.2460938 -0.09375,0.4921875 -0.1523438,0.75 C 5.565299,3.2703001 5.45983,3.4929563 5.3426425,3.6687376 5.2137363,3.8679563 5.0731113,4.0320188 4.89733,4.1492063 c -0.1640625,0.1289063 -0.3632812,0.1875 -0.609375,0.1875 -0.1757812,0 -0.3398437,-0.046875 -0.4804687,-0.1289062 C 3.6668613,4.1374876 3.5496738,4.0554563 3.444205,3.9265501 3.350455,3.8093626 3.2684238,3.6687376 3.2215488,3.5046751 3.162955,3.3523313 3.1395175,3.1648313 3.1395175,3.0007688 c 0,-0.3164062 0.046875,-0.5976562 0.082031,-0.8671875 C 3.2801425,1.8757688 3.350455,1.6296751 3.444205,1.3953001 3.5262363,1.1726438 3.631705,0.92655006 3.7488925,0.68045631 3.86608,0.46951881 3.9949863,0.19998756 4.1356113,-0.08126244 L 2.4832675,-10.440637 H 4.33483 l 1.171875,8.2499996 4.746094,-8.2499996 z m 0,0"
       style="fill:#000000;fill-opacity:1;fill-rule:nonzero;stroke:none"
       aria-label="γ"
       transform="matrix(1.3333333,0,0,1.3333333,517.59523,171.21382)"
       clip-path="url(#clipPath51)" />
    <path
       id="path52"
       d="m 485.934,100.539 0.839,0.75 0.836,0.652 0.84,0.461 0.836,0.219 0.84,-0.059 0.836,-0.332 0.84,-0.55 0.836,-0.707 0.84,-0.762 0.835,-0.723 0.84,-0.578 0.836,-0.363 0.836,-0.102 0.84,0.18 0.836,0.43 0.84,0.629 0.836,0.742 0.84,0.758 0.836,0.671 0.839,0.497 0.836,0.253 0.84,-0.019 0.836,-0.293 0.84,-0.527 0.836,-0.688 0.84,-0.762 0.836,-0.73 0.84,-0.606 0.835,-0.398 0.84,-0.141 0.836,0.141 0.84,0.398 0.836,0.606 0.84,0.73 0.836,0.762 0.84,0.688 0.836,0.527 0.839,0.293 0.836,0.019 0.836,-0.253 0.84,-0.497 0.836,-0.671 0.84,-0.758 0.836,-0.742 0.84,-0.629 0.836,-0.43 0.839,-0.18 0.836,0.102 0.84,0.363 0.836,0.578 0.84,0.723 0.836,0.762 0.84,0.707 0.836,0.55 0.84,0.332 0.836,0.059 0.839,-0.219 0.836,-0.461 0.84,-0.652 0.836,-0.75"
       style="fill:none;stroke:#000000;stroke-width:0.9216;stroke-linecap:square;stroke-linejoin:miter;stroke-miterlimit:3.25;stroke-dasharray:none;stroke-opacity:1"
       transform="scale(1.3333333)" />
    <path
       id="path53"
       d="M 12.058839,-10.440637 5.9064949,7.688125e-4 V 0.19998756 c 0,0.12890625 0.023437,0.24609375 0.023437,0.36328125 0,0.1171875 0,0.24609375 0,0.36328125 0,0.18750004 0,0.38671874 -0.023437,0.60937504 -0.023437,0.234375 -0.058594,0.4804687 -0.1054687,0.7382812 -0.035156,0.2460938 -0.09375,0.4921875 -0.1523438,0.75 -0.082031,0.2460938 -0.1875,0.46875 -0.3046875,0.6445313 -0.1289062,0.1992187 -0.2695312,0.3632812 -0.4453125,0.4804687 -0.1640625,0.1289063 -0.3632812,0.1875 -0.609375,0.1875 -0.1757812,0 -0.3398437,-0.046875 -0.4804687,-0.1289062 C 3.6682137,4.1374876 3.5510262,4.0554563 3.4455574,3.9265501 3.3518074,3.8093626 3.2697762,3.6687376 3.2229012,3.5046751 3.1643074,3.3523313 3.1408699,3.1648313 3.1408699,3.0007688 c 0,-0.3164062 0.046875,-0.5976562 0.082031,-0.8671875 C 3.2814949,1.8757688 3.3518074,1.6296751 3.4455574,1.3953001 3.5275887,1.1726438 3.6330574,0.92655006 3.7502449,0.68045631 3.8674324,0.46951881 3.9963387,0.19998756 4.1369637,-0.08126244 L 2.4846199,-10.440637 h 1.8515625 l 1.171875,8.2499996 4.7460936,-8.2499996 z m 0,0"
       style="fill:#000000;fill-opacity:1;fill-rule:nonzero;stroke:none"
       aria-label="γ"
       transform="matrix(1.3333333,0,0,1.3333333,673.98795,171.21382)"
       clip-path="url(#clipPath54)" />
    <path
       id="path55"
       d="m 418.91,100.539 c 0,8.887 3.531,17.41 9.817,23.695 6.281,6.286 14.808,9.817 23.695,9.817 8.887,0 17.414,-3.531 23.695,-9.817 6.285,-6.285 9.817,-14.808 9.817,-23.695"
       style="fill:none;stroke:#000000;stroke-width:0.9216;stroke-linecap:square;stroke-linejoin:miter;stroke-miterlimit:3.25;stroke-dasharray:none;stroke-opacity:1"
       transform="scale(1.3333333)" />
    <path
       id="path56"
       d="m 447.395,134.051 10.054,3.351 v -6.703 z"
       style="fill:#000000;fill-opacity:1;fill-rule:evenodd;stroke:none"
       transform="scale(1.3333333)" />
    <path
       id="path57"
       d="m 11.870135,-9.2922326 c 0.269531,0.5507812 0.375,1.2070312 0.339844,1.9453125 0,0.5039062 -0.105469,1.3125 -0.339844,2.4257812 H 3.7607598 c -0.2109375,1.125 -0.1289063,2.0273438 0.234375,2.7070313 0.328125,0.6679687 1.03125,1.0078125 2.0859375,1.0078125 0.9492187,0 1.7929687,-0.3164063 2.5078125,-0.9726563 C 8.999041,-2.5305139 9.327166,-2.9523889 9.561541,-3.4680139 h 1.839844 c -0.152344,0.4335938 -0.398438,0.8671875 -0.785156,1.3828125 -0.375,0.4804688 -0.7500005,0.9023438 -1.1601567,1.19531253 -0.6679688,0.57421875 -1.453125,0.9375 -2.34375,1.125 -0.4570313,0.10546875 -0.984375,0.1640625 -1.5351563,0.1640625 -1.3710937,0 -2.4492187,-0.50390625 -3.1875,-1.50000003 -0.7382812,-0.984375 -0.9140625,-2.4023437 -0.5273437,-4.1953125 0.375,-1.78125 1.1601562,-3.2109375 2.3554687,-4.3359375 1.1835938,-1.0898436 2.5546875,-1.6406246 4.125,-1.6406246 0.7734375,0 1.5,0.1875 2.167969,0.550781 0.65625,0.351562 1.101562,0.8437499 1.359375,1.4296874 z m -1.605469,2.8945312 c 0.08203,-0.796875 0.05859,-1.4414062 -0.128906,-1.921875 -0.3164065,-0.890625 -1.0546877,-1.3476562 -2.2382815,-1.3476562 -0.8671875,0 -1.6523437,0.3164062 -2.34375,0.9257812 -0.7148437,0.609375 -1.1835937,1.3945313 -1.4414062,2.34375 z m 0,0"
       style="fill:#000000;fill-opacity:1;fill-rule:nonzero;stroke:none"
       aria-label="e"
       transform="matrix(1.3333333,0,0,1.3333333,595.12628,215.89746)" />
    <path
       id="path58"
       d="m 435.664,71.215 c -11.203,5.269 -17.906,16.996 -16.754,29.324"
       style="fill:none;stroke:#000000;stroke-width:0.9216;stroke-linecap:square;stroke-linejoin:miter;stroke-miterlimit:3.25;stroke-dasharray:none;stroke-opacity:1"
       transform="scale(1.3333333)" />
    <path
       id="path59"
       d="m 425.148,78.863 -7.898,7.067 5.82,3.328 z"
       style="fill:#000000;fill-opacity:1;fill-rule:evenodd;stroke:none"
       transform="scale(1.3333333)" />
    <path
       id="path60"
       d="m 11.870229,-9.2934617 c 0.269532,0.5507813 0.375,1.2070313 0.339844,1.9453125 0,0.5039063 -0.105469,1.3125 -0.339844,2.4257813 H 3.7608544 c -0.2109375,1.125 -0.1289063,2.0273437 0.234375,2.7070312 0.328125,0.6679688 1.03125,1.0078125 2.0859375,1.0078125 0.9492187,0 1.7929687,-0.3164062 2.5078125,-0.9726562 0.4101562,-0.3515625 0.7382812,-0.7734375 0.9726562,-1.2890625 h 1.8398434 c -0.152343,0.4335937 -0.398437,0.8671875 -0.785156,1.3828125 -0.375,0.4804687 -0.7499999,0.9023437 -1.1601561,1.19531246 -0.6679688,0.57421875 -1.453125,0.9375 -2.34375,1.125 -0.4570313,0.10546875 -0.984375,0.1640625 -1.5351563,0.1640625 -1.3710937,0 -2.4492187,-0.50390625 -3.1875,-1.49999996 -0.7382812,-0.984375 -0.9140625,-2.4023438 -0.5273437,-4.1953125 0.375,-1.78125 1.1601562,-3.2109375 2.3554687,-4.3359375 1.1835938,-1.0898436 2.5546875,-1.6406246 4.125,-1.6406246 0.7734375,0 1.5,0.1875 2.1679684,0.550781 0.65625,0.351562 1.101563,0.8437498 1.359375,1.4296873 z m -1.605468,2.8945313 c 0.08203,-0.796875 0.05859,-1.4414063 -0.128907,-1.921875 -0.3164059,-0.890625 -1.0546871,-1.3476563 -2.2382809,-1.3476563 -0.8671875,0 -1.6523437,0.3164063 -2.34375,0.9257813 -0.7148437,0.609375 -1.1835937,1.3945312 -1.4414062,2.34375 z m 0,0"
       style="fill:#000000;fill-opacity:1;fill-rule:nonzero;stroke:none"
       aria-label="e"
       transform="matrix(1.3333333,0,0,1.3333333,539.05584,102.82488)" />
    <path
       id="path61"
       d="m 469.18,71.215 c -1.153,-5.113 -4.571,-9.418 -9.289,-11.695 -4.719,-2.282 -10.219,-2.282 -14.938,0 -4.719,2.277 -8.137,6.582 -9.289,11.695"
       style="fill:none;stroke:#000000;stroke-width:0.9216;stroke-linecap:square;stroke-linejoin:miter;stroke-miterlimit:3.25;stroke-dasharray:none;stroke-opacity:1"
       transform="scale(1.3333333)" />
    <path
       id="path62"
       d="M 457.449,57.809 447.395,54.457 V 61.16 Z"
       style="fill:#000000;fill-opacity:1;fill-rule:evenodd;stroke:none"
       transform="scale(1.3333333)" />
    <path
       id="path63"
       d="m 11.870135,-9.2937173 c 0.269531,0.5507812 0.375,1.2070312 0.339844,1.9453125 0,0.5039062 -0.105469,1.3125 -0.339844,2.4257812 H 3.7607598 c -0.2109375,1.125 -0.1289063,2.0273438 0.234375,2.7070313 0.328125,0.6679687 1.03125,1.0078125 2.0859375,1.0078125 0.9492187,0 1.7929687,-0.3164063 2.5078125,-0.9726563 C 8.999041,-2.5319986 9.327166,-2.9538736 9.561541,-3.4694986 h 1.839844 c -0.152344,0.4335938 -0.398438,0.8671875 -0.785156,1.3828125 -0.375,0.4804688 -0.7500005,0.9023438 -1.1601567,1.19531254 -0.6679688,0.57421875 -1.453125,0.9375 -2.34375,1.125 -0.4570313,0.10546875 -0.984375,0.1640625 -1.5351563,0.1640625 -1.3710937,0 -2.4492187,-0.50390625 -3.1875,-1.50000004 -0.7382812,-0.984375 -0.9140625,-2.4023437 -0.5273437,-4.1953125 0.375,-1.78125 1.1601562,-3.2109375 2.3554687,-4.3359375 1.1835938,-1.0898439 2.5546875,-1.6406249 4.125,-1.6406249 0.7734375,0 1.5,0.1875 2.167969,0.550781 0.65625,0.351563 1.101562,0.8437502 1.359375,1.4296877 z m -1.605469,2.8945312 c 0.08203,-0.796875 0.05859,-1.4414062 -0.128906,-1.921875 -0.3164065,-0.890625 -1.0546877,-1.3476562 -2.2382815,-1.3476562 -0.8671875,0 -1.6523437,0.3164062 -2.34375,0.9257812 -0.7148437,0.609375 -1.1835937,1.3945313 -1.4414062,2.34375 z m 0,0"
       style="fill:#000000;fill-opacity:1;fill-rule:nonzero;stroke:none"
       aria-label="e"
       transform="matrix(1.3333333,0,0,1.3333333,595.12628,60.208029)" />
    <path
       id="path64"
       d="m 435.664,71.215 0.992,0.597 0.887,0.555 0.676,0.563 0.418,0.632 0.148,0.754 -0.074,0.899 -0.203,1.047 -0.223,1.144 -0.129,1.176 0.067,1.117 0.32,0.965 0.602,0.734 0.851,0.457 1.047,0.176 1.152,-0.058 1.168,-0.219 1.102,-0.262 0.984,-0.187 0.836,-0.008 0.703,0.238 0.61,0.516 0.574,0.761 0.594,0.926 0.66,0.981 0.754,0.894 0.851,0.684 0.918,0.371 h 0.946 l 0.917,-0.371 0.852,-0.684 0.754,-0.894 0.66,-0.981 0.594,-0.926 0.574,-0.761 0.609,-0.516 0.704,-0.238 0.836,0.008 0.984,0.187 1.101,0.262 1.168,0.219 1.153,0.058 1.047,-0.176 0.851,-0.457 0.602,-0.734 0.32,-0.965 0.067,-1.117 -0.129,-1.176 -0.223,-1.144 -0.203,-1.047 -0.074,-0.899 0.148,-0.754 0.418,-0.632 0.676,-0.563 0.887,-0.555 0.992,-0.597"
       style="fill:none;stroke:#000000;stroke-width:0.9216;stroke-linecap:square;stroke-linejoin:miter;stroke-miterlimit:3.25;stroke-dasharray:none;stroke-opacity:1"
       transform="scale(1.3333333)" />
    <path
       id="path65"
       d="M 12.059627,-10.442014 5.9072836,-6.080625e-4 V 0.19861069 c 0,0.12890625 0.023437,0.24609375 0.023437,0.36328125 0,0.1171875 0,0.24609375 0,0.36328125 0,0.18750001 0,0.38671871 -0.023437,0.60937501 -0.023437,0.234375 -0.058594,0.4804687 -0.1054688,0.7382812 -0.035156,0.2460938 -0.09375,0.4921875 -0.1523437,0.75 -0.082031,0.2460938 -0.1875,0.46875 -0.3046875,0.6445313 -0.1289063,0.1992187 -0.2695313,0.3632812 -0.4453125,0.4804687 -0.1640625,0.1289063 -0.3632813,0.1875 -0.609375,0.1875 -0.1757813,0 -0.3398438,-0.046875 -0.4804688,-0.1289062 C 3.6690023,4.1361107 3.5518148,4.0540794 3.4463461,3.9251732 3.3525961,3.8079857 3.2705648,3.6673607 3.2236898,3.5032982 3.1650961,3.3509544 3.1416586,3.1634544 3.1416586,2.9993919 c 0,-0.3164062 0.046875,-0.5976562 0.082031,-0.8671875 C 3.2822836,1.8743919 3.3525961,1.6282982 3.4463461,1.3939232 3.5283773,1.1712669 3.6338461,0.92517319 3.7510336,0.67907944 3.8682211,0.46814194 3.9971273,0.19861069 4.1377523,-0.08263931 L 2.4854086,-10.442014 h 1.8515625 l 1.171875,8.2499997 4.7460939,-8.2499997 z m 0,0"
       style="fill:#000000;fill-opacity:1;fill-rule:nonzero;stroke:none"
       aria-label="γ"
       transform="matrix(1.3333333,0,0,1.3333333,595.79159,149.98909)"
       clip-path="url(#clipPath66)" />
    <path
       id="path67"
       d="M 485.934,100.539 C 486.945,88.238 480.285,76.586 469.18,71.215"
       style="fill:none;stroke:#000000;stroke-width:0.9216;stroke-linecap:square;stroke-linejoin:miter;stroke-miterlimit:3.25;stroke-dasharray:none;stroke-opacity:1"
       transform="scale(1.3333333)" />
    <path
       id="path68"
       d="m 484.594,87.645 -2.078,-10.395 -5.817,3.328 z"
       style="fill:#000000;fill-opacity:1;fill-rule:evenodd;stroke:none"
       transform="scale(1.3333333)" />
    <path
       id="path69"
       d="m 11.870121,-9.293926 c 0.269532,0.5507813 0.375,1.2070313 0.339844,1.9453125 0,0.5039063 -0.105469,1.3125 -0.339844,2.4257813 H 3.7607465 c -0.2109375,1.125 -0.1289063,2.0273437 0.234375,2.7070312 0.328125,0.6679688 1.03125,1.0078125 2.0859375,1.0078125 0.9492187,0 1.7929687,-0.3164062 2.5078125,-0.9726562 0.4101562,-0.3515625 0.7382812,-0.7734375 0.9726562,-1.2890625 h 1.8398433 c -0.152343,0.4335937 -0.398437,0.8671875 -0.785156,1.3828125 -0.375,0.4804687 -0.7499998,0.9023437 -1.160156,1.19531245 -0.6679688,0.57421875 -1.453125,0.9375 -2.34375,1.125 -0.4570313,0.10546875 -0.984375,0.1640625 -1.5351563,0.1640625 -1.3710937,0 -2.4492187,-0.50390625 -3.1875,-1.49999995 -0.7382812,-0.984375 -0.9140625,-2.4023438 -0.5273437,-4.1953125 0.375,-1.78125 1.1601562,-3.2109375 2.3554687,-4.3359375 1.1835938,-1.0898433 2.5546875,-1.6406253 4.125,-1.6406253 0.7734375,0 1.5,0.1875 2.1679683,0.550782 0.65625,0.351562 1.101563,0.8437495 1.359375,1.429687 z m -1.605468,2.8945313 c 0.08203,-0.796875 0.05859,-1.4414063 -0.128907,-1.921875 -0.3164058,-0.890625 -1.054687,-1.3476563 -2.2382808,-1.3476563 -0.8671875,0 -1.6523437,0.3164063 -2.34375,0.9257813 -0.7148437,0.609375 -1.1835937,1.3945312 -1.4414062,2.34375 z m 0,0"
       style="fill:#000000;fill-opacity:1;fill-rule:nonzero;stroke:none"
       aria-label="e"
       transform="matrix(1.3333333,0,0,1.3333333,651.07942,102.8919)" />
    <path
       id="path70"
       d="m 472.863,71.215 c 0,0.976 -0.386,1.914 -1.078,2.605 -0.691,0.692 -1.629,1.082 -2.605,1.082 -0.981,0 -1.918,-0.39 -2.61,-1.082 -0.691,-0.691 -1.078,-1.629 -1.078,-2.605 0,-0.977 0.387,-1.914 1.078,-2.606 0.692,-0.691 1.629,-1.082 2.61,-1.082 0.976,0 1.914,0.391 2.605,1.082 0.692,0.692 1.078,1.629 1.078,2.606 z"
       style="fill:#000000;fill-opacity:1;fill-rule:evenodd;stroke:none"
       transform="scale(1.3333333)" />
    <path
       id="path71"
       d="m 439.352,71.215 c 0,0.976 -0.387,1.914 -1.079,2.605 -0.691,0.692 -1.628,1.082 -2.609,1.082 -0.976,0 -1.914,-0.39 -2.605,-1.082 -0.692,-0.691 -1.079,-1.629 -1.079,-2.605 0,-0.977 0.387,-1.914 1.079,-2.606 0.691,-0.691 1.629,-1.082 2.605,-1.082 0.981,0 1.918,0.391 2.609,1.082 0.692,0.692 1.079,1.629 1.079,2.606 z"
       style="fill:#000000;fill-opacity:1;fill-rule:evenodd;stroke:none"
       transform="scale(1.3333333)" />
    <path
       id="path72"
       d="m 422.594,100.539 c 0,0.977 -0.387,1.914 -1.078,2.606 -0.692,0.691 -1.629,1.078 -2.606,1.078 -0.98,0 -1.918,-0.387 -2.609,-1.078 -0.692,-0.692 -1.078,-1.629 -1.078,-2.606 0,-0.98 0.386,-1.918 1.078,-2.609 0.691,-0.692 1.629,-1.078 2.609,-1.078 0.977,0 1.914,0.386 2.606,1.078 0.691,0.691 1.078,1.629 1.078,2.609 z"
       style="fill:#000000;fill-opacity:1;fill-rule:evenodd;stroke:none"
       transform="scale(1.3333333)" />
    <path
       id="path73"
       d="m 489.621,100.539 c 0,0.977 -0.387,1.914 -1.078,2.606 -0.691,0.691 -1.629,1.078 -2.609,1.078 -0.977,0 -1.914,-0.387 -2.606,-1.078 -0.691,-0.692 -1.078,-1.629 -1.078,-2.606 0,-0.98 0.387,-1.918 1.078,-2.609 0.692,-0.692 1.629,-1.078 2.606,-1.078 0.98,0 1.918,0.386 2.609,1.078 0.691,0.691 1.078,1.629 1.078,2.609 z"
       style="fill:#000000;fill-opacity:1;fill-rule:evenodd;stroke:none"
       transform="scale(1.3333333)" />
  </g>
</svg>
