<?xml version="1.0" encoding="UTF-8" standalone="no"?>
<!-- Created with Inkscape (http://www.inkscape.org/) -->

<svg
   version="1.1"
   id="svg2"
   width="737.33331"
   height="246.66667"
   viewBox="0 0 737.33331 246.66667"
   sodipodi:docname="0szqcroaoy84c.pdf"
   xmlns:inkscape="http://www.inkscape.org/namespaces/inkscape"
   xmlns:sodipodi="http://sodipodi.sourceforge.net/DTD/sodipodi-0.dtd"
   xmlns="http://www.w3.org/2000/svg"
   xmlns:svg="http://www.w3.org/2000/svg">
  <defs
     id="defs6">
    <clipPath
       clipPathUnits="userSpaceOnUse"
       id="clipPath20">
      <path
         d="m 22,117 h 9.68 v 16 H 22 Z"
         id="path18" />
    </clipPath>
    <clipPath
       clipPathUnits="userSpaceOnUse"
       id="clipPath58">
      <path
         d="m 94,97 h 9.68 v 16 H 94 Z"
         id="path56" />
    </clipPath>
    <clipPath
       clipPathUnits="userSpaceOnUse"
       id="clipPath104">
      <path
         d="m 323,117 h 10.359 v 16 H 323 Z"
         id="path102" />
    </clipPath>
    <clipPath
       clipPathUnits="userSpaceOnUse"
       id="clipPath144">
      <path
         d="m 265,102 h 9.559 v 15 H 265 Z"
         id="path142" />
    </clipPath>
    <clipPath
       clipPathUnits="userSpaceOnUse"
       id="clipPath176">
      <path
         d="m 390,117 h 10.32 v 16 H 390 Z"
         id="path174" />
    </clipPath>
    <clipPath
       clipPathUnits="userSpaceOnUse"
       id="clipPath192">
      <path
         d="m 507,117 h 10.68 v 16 H 507 Z"
         id="path190" />
    </clipPath>
    <clipPath
       clipPathUnits="userSpaceOnUse"
       id="clipPath232">
      <path
         d="m 449,102 h 9.879 v 15 H 449 Z"
         id="path230" />
    </clipPath>
  </defs>
  <sodipodi:namedview
     id="namedview4"
     pagecolor="#ffffff"
     bordercolor="#999999"
     borderopacity="1"
     inkscape:showpageshadow="0"
     inkscape:pageopacity="0"
     inkscape:pagecheckerboard="0"
     inkscape:deskcolor="#d1d1d1" />
  <g
     id="g8"
     inkscape:groupmode="layer"
     inkscape:label="0szqcroaoy84c"
     transform="matrix(1.3333333,0,0,1.3333333,0,9.5e-6)">
    <g
       id="g10">
      <path
         d="m 50.27,100.539 -0.84,-0.75 -0.836,-0.652 -0.84,-0.465 -0.836,-0.215 -0.84,0.059 -0.836,0.328 -0.84,0.554 -0.836,0.707 -0.836,0.762 -0.839,0.719 -0.836,0.582 -0.84,0.363 -0.836,0.102 -0.84,-0.18 -0.836,-0.433 -0.84,-0.629 -0.836,-0.743 -0.839,-0.757 -0.836,-0.668 -0.84,-0.496 -0.836,-0.254 -0.84,0.019 -0.836,0.293 -0.84,0.524 -0.836,0.687 -0.84,0.762 -0.836,0.734 -0.839,0.606 -0.836,0.398 -0.84,0.137 -0.836,-0.137 -0.84,-0.398 -0.836,-0.606 -0.836,-0.734 -0.84,-0.762 -0.836,-0.687 -0.839,-0.524 -0.836,-0.293 -0.84,-0.019 -0.836,0.254 -0.84,0.496 -0.836,0.668 -0.84,0.757 -0.836,0.743 -0.84,0.629 -0.836,0.433 -0.839,0.18 -0.836,-0.102 -0.84,-0.363 -0.836,-0.582 -0.84,-0.719 L 6.703,100.105 5.863,99.398 5.027,98.844 4.188,98.516 3.352,98.457 2.516,98.672 1.676,99.137 0.84,99.789 0,100.539"
         style="fill:none;stroke:#000000;stroke-width:0.9216;stroke-linecap:square;stroke-linejoin:miter;stroke-miterlimit:3.25;stroke-dasharray:none;stroke-opacity:1"
         id="path12" />
    </g>
    <g
       id="g14">
      <g
         id="g16"
         clip-path="url(#clipPath20)">
        <text
           xml:space="preserve"
           transform="translate(19.55642,128.41036)"
           style="font-variant:normal;font-size:20.16px;font-family:CairoFont-0;-inkscape-font-specification:CairoFont-0-1;writing-mode:lr-tb;fill:#000000;fill-opacity:1;fill-rule:nonzero;stroke:none"
           id="text24"><tspan
             x="0"
             y="0"
             id="tspan22">γ</tspan></text>
      </g>
    </g>
    <g
       id="g26">
      <path
         d="m 117.293,100.539 0.84,0.75 0.836,0.652 0.84,0.461 0.836,0.219 0.839,-0.059 0.836,-0.332 0.84,-0.55 0.836,-0.707 0.84,-0.762 0.836,-0.723 0.84,-0.578 0.836,-0.363 0.84,-0.102 0.835,0.18 0.84,0.43 0.836,0.629 0.84,0.742 0.836,0.758 0.84,0.671 0.836,0.497 0.84,0.253 0.836,-0.019 0.835,-0.293 0.84,-0.527 0.836,-0.688 0.84,-0.762 0.836,-0.73 0.84,-0.606 0.836,-0.398 0.84,-0.141 0.836,0.141 0.839,0.398 0.836,0.606 0.84,0.73 0.836,0.762 0.84,0.688 0.836,0.527 0.84,0.293 0.836,0.019 0.84,-0.253 0.836,-0.497 0.839,-0.671 0.836,-0.758 0.84,-0.742 0.836,-0.629 0.84,-0.43 0.836,-0.18 0.84,0.102 0.836,0.363 0.84,0.578 0.835,0.723 0.836,0.762 0.84,0.707 0.836,0.55 0.84,0.332 0.836,0.059 0.84,-0.219 0.836,-0.461 0.84,-0.652 0.835,-0.75"
         style="fill:none;stroke:#000000;stroke-width:0.9216;stroke-linecap:square;stroke-linejoin:miter;stroke-miterlimit:3.25;stroke-dasharray:none;stroke-opacity:1"
         id="path28" />
      <text
         xml:space="preserve"
         transform="translate(136.85097,87.884749)"
         style="font-variant:normal;font-size:20.16px;font-family:CairoFont-0;-inkscape-font-specification:CairoFont-0-1;writing-mode:lr-tb;fill:#000000;fill-opacity:1;fill-rule:nonzero;stroke:none"
         id="text32"><tspan
           x="0"
           y="0"
           id="tspan30">γ</tspan></text>
      <path
         d="m 50.27,100.539 c -0.317,8.981 3.113,17.691 9.468,24.043 6.352,6.356 15.063,9.785 24.043,9.469"
         style="fill:none;stroke:#000000;stroke-width:0.9216;stroke-linecap:square;stroke-linejoin:miter;stroke-miterlimit:3.25;stroke-dasharray:none;stroke-opacity:1"
         id="path34" />
      <path
         d="m 63.289,128.137 -9.477,-4.739 4.739,-4.738 z"
         style="fill:#000000;fill-opacity:1;fill-rule:evenodd;stroke:none"
         id="path36" />
      <text
         xml:space="preserve"
         transform="translate(43.466725,148.65218)"
         style="font-variant:normal;font-size:21.12px;font-family:CairoFont-1;-inkscape-font-specification:CairoFont-1-0;writing-mode:lr-tb;fill:#000000;fill-opacity:1;fill-rule:nonzero;stroke:none"
         id="text40"><tspan
           x="0"
           y="0"
           id="tspan38">e</tspan></text>
      <path
         d="m 83.781,134.051 c 18.492,-0.039 33.477,-15.02 33.512,-33.512"
         style="fill:none;stroke:#000000;stroke-width:0.9216;stroke-linecap:square;stroke-linejoin:miter;stroke-miterlimit:3.25;stroke-dasharray:none;stroke-opacity:1"
         id="path42" />
      <path
         d="m 111.012,120.66 -4.739,9.481 -4.738,-4.743 z"
         style="fill:#000000;fill-opacity:1;fill-rule:evenodd;stroke:none"
         id="path44" />
      <text
         xml:space="preserve"
         transform="translate(111.57405,148.28354)"
         style="font-variant:normal;font-size:21.12px;font-family:CairoFont-1;-inkscape-font-specification:CairoFont-1-0;writing-mode:lr-tb;fill:#000000;fill-opacity:1;fill-rule:nonzero;stroke:none"
         id="text48"><tspan
           x="0"
           y="0"
           id="tspan46">e</tspan></text>
      <path
         d="m 83.781,134.051 0.727,-0.836 0.633,-0.84 0.468,-0.836 0.243,-0.84 -0.016,-0.836 -0.27,-0.84 -0.488,-0.835 -0.648,-0.84 -0.731,-0.836 -0.719,-0.84 -0.621,-0.836 -0.445,-0.84 -0.215,-0.836 0.043,-0.84 0.297,-0.836 0.508,-0.839 0.664,-0.836 0.734,-0.84 0.711,-0.836 0.606,-0.84 0.418,-0.836 0.187,-0.84 -0.07,-0.836 -0.324,-0.84 -0.532,-0.836 -0.671,-0.835 -0.739,-0.84 -0.703,-0.836 -0.586,-0.84 -0.398,-0.836 -0.156,-0.84 0.097,-0.836 0.348,-0.84 0.551,-0.836 0.687,-0.839 0.734,-0.836 0.696,-0.84 0.57,-0.836 0.371,-0.84 0.129,-0.836 -0.129,-0.84 -0.371,-0.836 -0.57,-0.84 -0.696,-0.835 -0.734,-0.84 -0.687,-0.836 -0.551,-0.84 -0.348,-0.836 -0.097,-0.84 0.156,-0.836 0.398,-0.84 0.586,-0.836 0.703,-0.836 0.739,-0.839 0.671,-0.836 0.532,-0.84 0.324,-0.836 0.07,-0.84 -0.187,-0.836 -0.418,-0.84 -0.606,-0.836 -0.711,-0.84 -0.734,-0.835 -0.664,-0.84 -0.508,-0.836 -0.297,-0.84 -0.043,-0.836 0.215,-0.84 0.445,-0.836 0.621,-0.84 0.719,-0.836 0.731,-0.839 0.648,-0.836 0.488,-0.84 0.27,-0.836 0.016,-0.836 -0.243,-0.84 -0.468,-0.836 -0.633,-0.84 -0.727,-0.836"
         style="fill:none;stroke:#000000;stroke-width:0.9216;stroke-linecap:square;stroke-linejoin:miter;stroke-miterlimit:3.25;stroke-dasharray:none;stroke-opacity:1"
         id="path50" />
    </g>
    <g
       id="g52">
      <g
         id="g54"
         clip-path="url(#clipPath58)">
        <text
           xml:space="preserve"
           transform="translate(91.700876,108.14756)"
           style="font-variant:normal;font-size:20.16px;font-family:CairoFont-0;-inkscape-font-specification:CairoFont-0-1;writing-mode:lr-tb;fill:#000000;fill-opacity:1;fill-rule:nonzero;stroke:none"
           id="text62"><tspan
             x="0"
             y="0"
             id="tspan60">γ</tspan></text>
      </g>
    </g>
    <g
       id="g64">
      <path
         d="M 83.781,67.027 C 74.84,66.848 66.211,70.32 59.887,76.645 53.562,82.969 50.09,91.598 50.27,100.539"
         style="fill:none;stroke:#000000;stroke-width:0.9216;stroke-linecap:square;stroke-linejoin:miter;stroke-miterlimit:3.25;stroke-dasharray:none;stroke-opacity:1"
         id="path66" />
      <path
         d="m 56.332,80.199 4.738,-9.48 4.742,4.738 z"
         style="fill:#000000;fill-opacity:1;fill-rule:evenodd;stroke:none"
         id="path68" />
      <text
         xml:space="preserve"
         transform="translate(43.617532,67.793739)"
         style="font-variant:normal;font-size:21.12px;font-family:CairoFont-1;-inkscape-font-specification:CairoFont-1-0;writing-mode:lr-tb;fill:#000000;fill-opacity:1;fill-rule:nonzero;stroke:none"
         id="text72"><tspan
           x="0"
           y="0"
           id="tspan70">e</tspan></text>
      <path
         d="M 117.293,100.539 C 117.258,82.047 102.273,67.062 83.781,67.027"
         style="fill:none;stroke:#000000;stroke-width:0.9216;stroke-linecap:square;stroke-linejoin:miter;stroke-miterlimit:3.25;stroke-dasharray:none;stroke-opacity:1"
         id="path74" />
      <path
         d="m 103.902,73.309 9.481,4.738 -4.738,4.738 z"
         style="fill:#000000;fill-opacity:1;fill-rule:evenodd;stroke:none"
         id="path76" />
      <text
         xml:space="preserve"
         transform="translate(111.57405,68.011572)"
         style="font-variant:normal;font-size:21.12px;font-family:CairoFont-1;-inkscape-font-specification:CairoFont-1-0;writing-mode:lr-tb;fill:#000000;fill-opacity:1;fill-rule:nonzero;stroke:none"
         id="text80"><tspan
           x="0"
           y="0"
           id="tspan78">e</tspan></text>
      <path
         d="m 87.469,67.027 c 0,0.977 -0.391,1.914 -1.082,2.606 -0.692,0.691 -1.629,1.078 -2.606,1.078 -0.976,0 -1.914,-0.387 -2.605,-1.078 -0.692,-0.692 -1.082,-1.629 -1.082,-2.606 0,-0.98 0.39,-1.918 1.082,-2.609 0.691,-0.691 1.629,-1.078 2.605,-1.078 0.977,0 1.914,0.387 2.606,1.078 0.691,0.691 1.082,1.629 1.082,2.609 z"
         style="fill:#000000;fill-opacity:1;fill-rule:evenodd;stroke:none"
         id="path82" />
      <path
         d="m 87.469,134.051 c 0,0.976 -0.391,1.914 -1.082,2.605 -0.692,0.692 -1.629,1.082 -2.606,1.082 -0.976,0 -1.914,-0.39 -2.605,-1.082 -0.692,-0.691 -1.082,-1.629 -1.082,-2.605 0,-0.977 0.39,-1.914 1.082,-2.606 0.691,-0.691 1.629,-1.082 2.605,-1.082 0.977,0 1.914,0.391 2.606,1.082 0.691,0.692 1.082,1.629 1.082,2.606 z"
         style="fill:#000000;fill-opacity:1;fill-rule:evenodd;stroke:none"
         id="path84" />
      <path
         d="m 53.957,100.539 c 0,0.977 -0.391,1.914 -1.082,2.606 -0.691,0.691 -1.629,1.078 -2.605,1.078 -0.977,0 -1.915,-0.387 -2.606,-1.078 -0.691,-0.692 -1.082,-1.629 -1.082,-2.606 0,-0.98 0.391,-1.918 1.082,-2.609 0.691,-0.692 1.629,-1.078 2.606,-1.078 0.976,0 1.914,0.386 2.605,1.078 0.691,0.691 1.082,1.629 1.082,2.609 z"
         style="fill:#000000;fill-opacity:1;fill-rule:evenodd;stroke:none"
         id="path86" />
      <path
         d="m 120.98,100.539 c 0,0.977 -0.386,1.914 -1.078,2.606 -0.691,0.691 -1.629,1.078 -2.609,1.078 -0.977,0 -1.914,-0.387 -2.605,-1.078 -0.692,-0.692 -1.079,-1.629 -1.079,-2.606 0,-0.98 0.387,-1.918 1.079,-2.609 0.691,-0.692 1.628,-1.078 2.605,-1.078 0.98,0 1.918,0.386 2.609,1.078 0.692,0.691 1.078,1.629 1.078,2.609 z"
         style="fill:#000000;fill-opacity:1;fill-rule:evenodd;stroke:none"
         id="path88" />
      <path
         d="m 234.59,100.539 -0.84,-0.75 -0.836,-0.652 -0.84,-0.465 -0.836,-0.215 -0.84,0.059 -0.836,0.328 -0.839,0.554 -0.836,0.707 -0.84,0.762 -0.836,0.719 -0.836,0.582 -0.84,0.363 -0.836,0.102 -0.84,-0.18 -0.836,-0.433 -0.839,-0.629 -0.836,-0.743 -0.84,-0.757 -0.836,-0.668 -0.84,-0.496 -0.836,-0.254 -0.84,0.019 -0.836,0.293 -0.84,0.524 -0.835,0.687 -0.84,0.762 -0.836,0.734 -0.84,0.606 -0.836,0.398 -0.84,0.137 -0.836,-0.137 -0.84,-0.398 -0.836,-0.606 -0.839,-0.734 -0.836,-0.762 -0.84,-0.687 -0.836,-0.524 -0.836,-0.293 -0.84,-0.019 -0.836,0.254 -0.84,0.496 -0.836,0.668 -0.84,0.757 -0.835,0.743 -0.84,0.629 -0.836,0.433 -0.84,0.18 -0.836,-0.102 -0.84,-0.363 -0.836,-0.582 -0.84,-0.719 -0.836,-0.762 -0.839,-0.707 -0.836,-0.554 -0.84,-0.328 -0.836,-0.059 -0.84,0.215 -0.836,0.465 -0.84,0.652 -0.836,0.75"
         style="fill:none;stroke:#000000;stroke-width:0.9216;stroke-linecap:square;stroke-linejoin:miter;stroke-miterlimit:3.25;stroke-dasharray:none;stroke-opacity:1"
         id="path90" />
      <text
         xml:space="preserve"
         transform="translate(203.87642,128.41036)"
         style="font-variant:normal;font-size:20.16px;font-family:CairoFont-0;-inkscape-font-specification:CairoFont-0-1;writing-mode:lr-tb;fill:#000000;fill-opacity:1;fill-rule:nonzero;stroke:none"
         id="text94"><tspan
           x="0"
           y="0"
           id="tspan92">γ</tspan></text>
      <path
         d="m 301.613,100.539 0.84,0.75 0.836,0.652 0.84,0.461 0.836,0.219 0.84,-0.059 0.836,-0.332 0.839,-0.55 0.836,-0.707 0.84,-0.762 0.836,-0.723 0.84,-0.578 0.836,-0.363 0.84,-0.102 0.836,0.18 0.84,0.43 0.836,0.629 0.839,0.742 0.836,0.758 0.836,0.671 0.84,0.497 0.836,0.253 0.84,-0.019 0.836,-0.293 0.84,-0.527 0.836,-0.688 0.839,-0.762 0.836,-0.73 0.84,-0.606 0.836,-0.398 0.84,-0.141 0.836,0.141 0.84,0.398 0.836,0.606 0.84,0.73 0.836,0.762 0.839,0.688 0.836,0.527 0.84,0.293 0.836,0.019 0.84,-0.253 0.836,-0.497 0.84,-0.671 0.836,-0.758 0.839,-0.742 0.836,-0.629 0.84,-0.43 0.836,-0.18 0.836,0.102 0.84,0.363 0.836,0.578 0.84,0.723 0.836,0.762 0.84,0.707 0.835,0.55 0.84,0.332 0.836,0.059 0.84,-0.219 0.836,-0.461 0.84,-0.652 0.836,-0.75"
         style="fill:none;stroke:#000000;stroke-width:0.9216;stroke-linecap:square;stroke-linejoin:miter;stroke-miterlimit:3.25;stroke-dasharray:none;stroke-opacity:1"
         id="path96" />
    </g>
    <g
       id="g98">
      <g
         id="g100"
         clip-path="url(#clipPath104)">
        <text
           xml:space="preserve"
           transform="translate(321.17097,128.41036)"
           style="font-variant:normal;font-size:20.16px;font-family:CairoFont-0;-inkscape-font-specification:CairoFont-0-1;writing-mode:lr-tb;fill:#000000;fill-opacity:1;fill-rule:nonzero;stroke:none"
           id="text108"><tspan
             x="0"
             y="0"
             id="tspan106">γ</tspan></text>
      </g>
    </g>
    <g
       id="g110">
      <path
         d="m 234.59,100.539 c 0,8.887 3.531,17.41 9.816,23.695 6.285,6.286 14.809,9.817 23.696,9.817 8.886,0 17.414,-3.531 23.699,-9.817 6.281,-6.285 9.812,-14.808 9.812,-23.695"
         style="fill:none;stroke:#000000;stroke-width:0.9216;stroke-linecap:square;stroke-linejoin:miter;stroke-miterlimit:3.25;stroke-dasharray:none;stroke-opacity:1"
         id="path112" />
      <path
         d="m 273.129,134.051 -10.055,3.351 v -6.703 z"
         style="fill:#000000;fill-opacity:1;fill-rule:evenodd;stroke:none"
         id="path114" />
      <text
         xml:space="preserve"
         transform="translate(262.02471,161.92309)"
         style="font-variant:normal;font-size:21.12px;font-family:CairoFont-1;-inkscape-font-specification:CairoFont-1-0;writing-mode:lr-tb;fill:#000000;fill-opacity:1;fill-rule:nonzero;stroke:none"
         id="text118"><tspan
           x="0"
           y="0"
           id="tspan116">e</tspan></text>
      <path
         d="m 251.344,71.215 c -11.203,5.269 -17.906,16.996 -16.754,29.324"
         style="fill:none;stroke:#000000;stroke-width:0.9216;stroke-linecap:square;stroke-linejoin:miter;stroke-miterlimit:3.25;stroke-dasharray:none;stroke-opacity:1"
         id="path120" />
      <path
         d="m 235.84,87.594 2.078,-10.391 5.82,3.324 z"
         style="fill:#000000;fill-opacity:1;fill-rule:evenodd;stroke:none"
         id="path122" />
      <text
         xml:space="preserve"
         transform="translate(219.97188,77.118657)"
         style="font-variant:normal;font-size:21.12px;font-family:CairoFont-1;-inkscape-font-specification:CairoFont-1-0;writing-mode:lr-tb;fill:#000000;fill-opacity:1;fill-rule:nonzero;stroke:none"
         id="text126"><tspan
           x="0"
           y="0"
           id="tspan124">e</tspan></text>
      <path
         d="m 284.859,71.215 c -1.152,-5.113 -4.57,-9.418 -9.289,-11.695 -4.718,-2.282 -10.218,-2.282 -14.937,0 -4.719,2.277 -8.137,6.582 -9.289,11.695"
         style="fill:none;stroke:#000000;stroke-width:0.9216;stroke-linecap:square;stroke-linejoin:miter;stroke-miterlimit:3.25;stroke-dasharray:none;stroke-opacity:1"
         id="path128" />
      <path
         d="m 263.074,57.809 10.055,-3.352 v 6.703 z"
         style="fill:#000000;fill-opacity:1;fill-rule:evenodd;stroke:none"
         id="path130" />
      <text
         xml:space="preserve"
         transform="translate(262.02471,45.156022)"
         style="font-variant:normal;font-size:21.12px;font-family:CairoFont-1;-inkscape-font-specification:CairoFont-1-0;writing-mode:lr-tb;fill:#000000;fill-opacity:1;fill-rule:nonzero;stroke:none"
         id="text134"><tspan
           x="0"
           y="0"
           id="tspan132">e</tspan></text>
      <path
         d="m 251.344,71.215 0.992,0.597 0.887,0.555 0.679,0.563 0.414,0.632 0.149,0.754 -0.07,0.899 -0.207,1.047 -0.223,1.144 -0.129,1.176 0.066,1.117 0.321,0.965 0.601,0.734 0.852,0.457 1.047,0.176 1.152,-0.058 1.168,-0.219 1.102,-0.262 0.984,-0.187 0.836,-0.008 0.703,0.238 0.609,0.516 0.575,0.761 0.593,0.926 0.66,0.981 0.758,0.894 0.848,0.684 0.918,0.371 h 0.945 l 0.918,-0.371 0.852,-0.684 0.754,-0.894 0.664,-0.981 0.59,-0.926 0.574,-0.761 0.609,-0.516 0.703,-0.238 0.84,0.008 0.981,0.187 1.101,0.262 1.168,0.219 1.152,0.058 1.047,-0.176 0.852,-0.457 0.601,-0.734 0.321,-0.965 0.066,-1.117 -0.129,-1.176 -0.222,-1.144 -0.204,-1.047 -0.074,-0.899 0.149,-0.754 0.418,-0.632 0.675,-0.563 0.887,-0.555 0.992,-0.597"
         style="fill:none;stroke:#000000;stroke-width:0.9216;stroke-linecap:square;stroke-linejoin:miter;stroke-miterlimit:3.25;stroke-dasharray:none;stroke-opacity:1"
         id="path136" />
    </g>
    <g
       id="g138">
      <g
         id="g140"
         clip-path="url(#clipPath144)">
        <text
           xml:space="preserve"
           transform="translate(262.52369,112.49182)"
           style="font-variant:normal;font-size:20.16px;font-family:CairoFont-0;-inkscape-font-specification:CairoFont-0-1;writing-mode:lr-tb;fill:#000000;fill-opacity:1;fill-rule:nonzero;stroke:none"
           id="text148"><tspan
             x="0"
             y="0"
             id="tspan146">γ</tspan></text>
      </g>
    </g>
    <g
       id="g150">
      <path
         d="M 301.613,100.539 C 302.625,88.238 295.969,76.586 284.859,71.215"
         style="fill:none;stroke:#000000;stroke-width:0.9216;stroke-linecap:square;stroke-linejoin:miter;stroke-miterlimit:3.25;stroke-dasharray:none;stroke-opacity:1"
         id="path152" />
      <path
         d="m 295.289,78.914 7.895,7.066 -5.817,3.325 z"
         style="fill:#000000;fill-opacity:1;fill-rule:evenodd;stroke:none"
         id="path154" />
      <text
         xml:space="preserve"
         transform="translate(303.98957,77.168926)"
         style="font-variant:normal;font-size:21.12px;font-family:CairoFont-1;-inkscape-font-specification:CairoFont-1-0;writing-mode:lr-tb;fill:#000000;fill-opacity:1;fill-rule:nonzero;stroke:none"
         id="text158"><tspan
           x="0"
           y="0"
           id="tspan156">e</tspan></text>
      <path
         d="m 288.543,71.215 c 0,0.976 -0.387,1.914 -1.078,2.605 -0.692,0.692 -1.629,1.082 -2.606,1.082 -0.98,0 -1.918,-0.39 -2.609,-1.082 -0.691,-0.691 -1.078,-1.629 -1.078,-2.605 0,-0.977 0.387,-1.914 1.078,-2.606 0.691,-0.691 1.629,-1.082 2.609,-1.082 0.977,0 1.914,0.391 2.606,1.082 0.691,0.692 1.078,1.629 1.078,2.606 z"
         style="fill:#000000;fill-opacity:1;fill-rule:evenodd;stroke:none"
         id="path160" />
      <path
         d="m 255.031,71.215 c 0,0.976 -0.386,1.914 -1.078,2.605 -0.691,0.692 -1.629,1.082 -2.609,1.082 -0.977,0 -1.914,-0.39 -2.606,-1.082 -0.691,-0.691 -1.078,-1.629 -1.078,-2.605 0,-0.977 0.387,-1.914 1.078,-2.606 0.692,-0.691 1.629,-1.082 2.606,-1.082 0.98,0 1.918,0.391 2.609,1.082 0.692,0.692 1.078,1.629 1.078,2.606 z"
         style="fill:#000000;fill-opacity:1;fill-rule:evenodd;stroke:none"
         id="path162" />
      <path
         d="m 238.277,100.539 c 0,0.977 -0.39,1.914 -1.082,2.606 -0.691,0.691 -1.629,1.078 -2.605,1.078 -0.977,0 -1.918,-0.387 -2.61,-1.078 -0.687,-0.692 -1.078,-1.629 -1.078,-2.606 0,-0.98 0.391,-1.918 1.078,-2.609 0.692,-0.692 1.633,-1.078 2.61,-1.078 0.976,0 1.914,0.386 2.605,1.078 0.692,0.691 1.082,1.629 1.082,2.609 z"
         style="fill:#000000;fill-opacity:1;fill-rule:evenodd;stroke:none"
         id="path164" />
      <path
         d="m 305.301,100.539 c 0,0.977 -0.387,1.914 -1.078,2.606 -0.692,0.691 -1.629,1.078 -2.61,1.078 -0.976,0 -1.914,-0.387 -2.605,-1.078 -0.692,-0.692 -1.078,-1.629 -1.078,-2.606 0,-0.98 0.386,-1.918 1.078,-2.609 0.691,-0.692 1.629,-1.078 2.605,-1.078 0.981,0 1.918,0.386 2.61,1.078 0.691,0.691 1.078,1.629 1.078,2.609 z"
         style="fill:#000000;fill-opacity:1;fill-rule:evenodd;stroke:none"
         id="path166" />
      <path
         d="m 418.91,100.539 -0.84,-0.75 -0.836,-0.652 -0.839,-0.465 -0.836,-0.215 -0.84,0.059 -0.836,0.328 -0.84,0.554 -0.836,0.707 -0.84,0.762 -0.836,0.719 -0.84,0.582 -0.836,0.363 -0.835,0.102 -0.84,-0.18 -0.836,-0.433 -0.84,-0.629 -0.836,-0.743 -0.84,-0.757 -0.836,-0.668 -0.84,-0.496 -0.836,-0.254 -0.839,0.019 -0.836,0.293 -0.84,0.524 -0.836,0.687 -0.84,0.762 -0.836,0.734 -0.84,0.606 -0.836,0.398 -0.84,0.137 -0.835,-0.137 -0.84,-0.398 -0.836,-0.606 -0.84,-0.734 -0.836,-0.762 -0.84,-0.687 -0.836,-0.524 -0.84,-0.293 -0.836,-0.019 -0.839,0.254 -0.836,0.496 -0.836,0.668 -0.84,0.757 -0.836,0.743 -0.84,0.629 -0.836,0.433 -0.84,0.18 -0.836,-0.102 -0.84,-0.363 -0.835,-0.582 -0.84,-0.719 -0.836,-0.762 -0.84,-0.707 -0.836,-0.554 -0.84,-0.328 -0.836,-0.059 -0.84,0.215 -0.836,0.465 -0.839,0.652 -0.836,0.75"
         style="fill:none;stroke:#000000;stroke-width:0.9216;stroke-linecap:square;stroke-linejoin:miter;stroke-miterlimit:3.25;stroke-dasharray:none;stroke-opacity:1"
         id="path168" />
    </g>
    <g
       id="g170">
      <g
         id="g172"
         clip-path="url(#clipPath176)">
        <text
           xml:space="preserve"
           transform="translate(388.19642,128.41036)"
           style="font-variant:normal;font-size:20.16px;font-family:CairoFont-0;-inkscape-font-specification:CairoFont-0-1;writing-mode:lr-tb;fill:#000000;fill-opacity:1;fill-rule:nonzero;stroke:none"
           id="text180"><tspan
             x="0"
             y="0"
             id="tspan178">γ</tspan></text>
      </g>
    </g>
    <g
       id="g182">
      <path
         d="m 485.934,100.539 0.839,0.75 0.836,0.652 0.84,0.461 0.836,0.219 0.84,-0.059 0.836,-0.332 0.84,-0.55 0.836,-0.707 0.84,-0.762 0.835,-0.723 0.84,-0.578 0.836,-0.363 0.836,-0.102 0.84,0.18 0.836,0.43 0.84,0.629 0.836,0.742 0.84,0.758 0.836,0.671 0.839,0.497 0.836,0.253 0.84,-0.019 0.836,-0.293 0.84,-0.527 0.836,-0.688 0.84,-0.762 0.836,-0.73 0.84,-0.606 0.835,-0.398 0.84,-0.141 0.836,0.141 0.84,0.398 0.836,0.606 0.84,0.73 0.836,0.762 0.84,0.688 0.836,0.527 0.839,0.293 0.836,0.019 0.836,-0.253 0.84,-0.497 0.836,-0.671 0.84,-0.758 0.836,-0.742 0.84,-0.629 0.836,-0.43 0.839,-0.18 0.836,0.102 0.84,0.363 0.836,0.578 0.84,0.723 0.836,0.762 0.84,0.707 0.836,0.55 0.84,0.332 0.836,0.059 0.839,-0.219 0.836,-0.461 0.84,-0.652 0.836,-0.75"
         style="fill:none;stroke:#000000;stroke-width:0.9216;stroke-linecap:square;stroke-linejoin:miter;stroke-miterlimit:3.25;stroke-dasharray:none;stroke-opacity:1"
         id="path184" />
    </g>
    <g
       id="g186">
      <g
         id="g188"
         clip-path="url(#clipPath192)">
        <text
           xml:space="preserve"
           transform="translate(505.49097,128.41036)"
           style="font-variant:normal;font-size:20.16px;font-family:CairoFont-0;-inkscape-font-specification:CairoFont-0-1;writing-mode:lr-tb;fill:#000000;fill-opacity:1;fill-rule:nonzero;stroke:none"
           id="text196"><tspan
             x="0"
             y="0"
             id="tspan194">γ</tspan></text>
      </g>
    </g>
    <g
       id="g198">
      <path
         d="m 418.91,100.539 c 0,8.887 3.531,17.41 9.817,23.695 6.281,6.286 14.808,9.817 23.695,9.817 8.887,0 17.414,-3.531 23.695,-9.817 6.285,-6.285 9.817,-14.808 9.817,-23.695"
         style="fill:none;stroke:#000000;stroke-width:0.9216;stroke-linecap:square;stroke-linejoin:miter;stroke-miterlimit:3.25;stroke-dasharray:none;stroke-opacity:1"
         id="path200" />
      <path
         d="m 447.395,134.051 10.054,3.351 v -6.703 z"
         style="fill:#000000;fill-opacity:1;fill-rule:evenodd;stroke:none"
         id="path202" />
      <text
         xml:space="preserve"
         transform="translate(446.34471,161.92309)"
         style="font-variant:normal;font-size:21.12px;font-family:CairoFont-1;-inkscape-font-specification:CairoFont-1-0;writing-mode:lr-tb;fill:#000000;fill-opacity:1;fill-rule:nonzero;stroke:none"
         id="text206"><tspan
           x="0"
           y="0"
           id="tspan204">e</tspan></text>
      <path
         d="m 435.664,71.215 c -11.203,5.269 -17.906,16.996 -16.754,29.324"
         style="fill:none;stroke:#000000;stroke-width:0.9216;stroke-linecap:square;stroke-linejoin:miter;stroke-miterlimit:3.25;stroke-dasharray:none;stroke-opacity:1"
         id="path208" />
      <path
         d="m 425.148,78.863 -7.898,7.067 5.82,3.328 z"
         style="fill:#000000;fill-opacity:1;fill-rule:evenodd;stroke:none"
         id="path210" />
      <text
         xml:space="preserve"
         transform="translate(404.29188,77.118657)"
         style="font-variant:normal;font-size:21.12px;font-family:CairoFont-1;-inkscape-font-specification:CairoFont-1-0;writing-mode:lr-tb;fill:#000000;fill-opacity:1;fill-rule:nonzero;stroke:none"
         id="text214"><tspan
           x="0"
           y="0"
           id="tspan212">e</tspan></text>
      <path
         d="m 469.18,71.215 c -1.153,-5.113 -4.571,-9.418 -9.289,-11.695 -4.719,-2.282 -10.219,-2.282 -14.938,0 -4.719,2.277 -8.137,6.582 -9.289,11.695"
         style="fill:none;stroke:#000000;stroke-width:0.9216;stroke-linecap:square;stroke-linejoin:miter;stroke-miterlimit:3.25;stroke-dasharray:none;stroke-opacity:1"
         id="path216" />
      <path
         d="M 457.449,57.809 447.395,54.457 V 61.16 Z"
         style="fill:#000000;fill-opacity:1;fill-rule:evenodd;stroke:none"
         id="path218" />
      <text
         xml:space="preserve"
         transform="translate(446.34471,45.156022)"
         style="font-variant:normal;font-size:21.12px;font-family:CairoFont-1;-inkscape-font-specification:CairoFont-1-0;writing-mode:lr-tb;fill:#000000;fill-opacity:1;fill-rule:nonzero;stroke:none"
         id="text222"><tspan
           x="0"
           y="0"
           id="tspan220">e</tspan></text>
      <path
         d="m 435.664,71.215 0.992,0.597 0.887,0.555 0.676,0.563 0.418,0.632 0.148,0.754 -0.074,0.899 -0.203,1.047 -0.223,1.144 -0.129,1.176 0.067,1.117 0.32,0.965 0.602,0.734 0.851,0.457 1.047,0.176 1.152,-0.058 1.168,-0.219 1.102,-0.262 0.984,-0.187 0.836,-0.008 0.703,0.238 0.61,0.516 0.574,0.761 0.594,0.926 0.66,0.981 0.754,0.894 0.851,0.684 0.918,0.371 h 0.946 l 0.917,-0.371 0.852,-0.684 0.754,-0.894 0.66,-0.981 0.594,-0.926 0.574,-0.761 0.609,-0.516 0.704,-0.238 0.836,0.008 0.984,0.187 1.101,0.262 1.168,0.219 1.153,0.058 1.047,-0.176 0.851,-0.457 0.602,-0.734 0.32,-0.965 0.067,-1.117 -0.129,-1.176 -0.223,-1.144 -0.203,-1.047 -0.074,-0.899 0.148,-0.754 0.418,-0.632 0.676,-0.563 0.887,-0.555 0.992,-0.597"
         style="fill:none;stroke:#000000;stroke-width:0.9216;stroke-linecap:square;stroke-linejoin:miter;stroke-miterlimit:3.25;stroke-dasharray:none;stroke-opacity:1"
         id="path224" />
    </g>
    <g
       id="g226">
      <g
         id="g228"
         clip-path="url(#clipPath232)">
        <text
           xml:space="preserve"
           transform="translate(446.84369,112.49182)"
           style="font-variant:normal;font-size:20.16px;font-family:CairoFont-0;-inkscape-font-specification:CairoFont-0-1;writing-mode:lr-tb;fill:#000000;fill-opacity:1;fill-rule:nonzero;stroke:none"
           id="text236"><tspan
             x="0"
             y="0"
             id="tspan234">γ</tspan></text>
      </g>
    </g>
    <g
       id="g238">
      <path
         d="M 485.934,100.539 C 486.945,88.238 480.285,76.586 469.18,71.215"
         style="fill:none;stroke:#000000;stroke-width:0.9216;stroke-linecap:square;stroke-linejoin:miter;stroke-miterlimit:3.25;stroke-dasharray:none;stroke-opacity:1"
         id="path240" />
      <path
         d="m 484.594,87.645 -2.078,-10.395 -5.817,3.328 z"
         style="fill:#000000;fill-opacity:1;fill-rule:evenodd;stroke:none"
         id="path242" />
      <text
         xml:space="preserve"
         transform="translate(488.30957,77.168926)"
         style="font-variant:normal;font-size:21.12px;font-family:CairoFont-1;-inkscape-font-specification:CairoFont-1-0;writing-mode:lr-tb;fill:#000000;fill-opacity:1;fill-rule:nonzero;stroke:none"
         id="text246"><tspan
           x="0"
           y="0"
           id="tspan244">e</tspan></text>
      <path
         d="m 472.863,71.215 c 0,0.976 -0.386,1.914 -1.078,2.605 -0.691,0.692 -1.629,1.082 -2.605,1.082 -0.981,0 -1.918,-0.39 -2.61,-1.082 -0.691,-0.691 -1.078,-1.629 -1.078,-2.605 0,-0.977 0.387,-1.914 1.078,-2.606 0.692,-0.691 1.629,-1.082 2.61,-1.082 0.976,0 1.914,0.391 2.605,1.082 0.692,0.692 1.078,1.629 1.078,2.606 z"
         style="fill:#000000;fill-opacity:1;fill-rule:evenodd;stroke:none"
         id="path248" />
      <path
         d="m 439.352,71.215 c 0,0.976 -0.387,1.914 -1.079,2.605 -0.691,0.692 -1.628,1.082 -2.609,1.082 -0.976,0 -1.914,-0.39 -2.605,-1.082 -0.692,-0.691 -1.079,-1.629 -1.079,-2.605 0,-0.977 0.387,-1.914 1.079,-2.606 0.691,-0.691 1.629,-1.082 2.605,-1.082 0.981,0 1.918,0.391 2.609,1.082 0.692,0.692 1.079,1.629 1.079,2.606 z"
         style="fill:#000000;fill-opacity:1;fill-rule:evenodd;stroke:none"
         id="path250" />
      <path
         d="m 422.594,100.539 c 0,0.977 -0.387,1.914 -1.078,2.606 -0.692,0.691 -1.629,1.078 -2.606,1.078 -0.98,0 -1.918,-0.387 -2.609,-1.078 -0.692,-0.692 -1.078,-1.629 -1.078,-2.606 0,-0.98 0.386,-1.918 1.078,-2.609 0.691,-0.692 1.629,-1.078 2.609,-1.078 0.977,0 1.914,0.386 2.606,1.078 0.691,0.691 1.078,1.629 1.078,2.609 z"
         style="fill:#000000;fill-opacity:1;fill-rule:evenodd;stroke:none"
         id="path252" />
      <path
         d="m 489.621,100.539 c 0,0.977 -0.387,1.914 -1.078,2.606 -0.691,0.691 -1.629,1.078 -2.609,1.078 -0.977,0 -1.914,-0.387 -2.606,-1.078 -0.691,-0.692 -1.078,-1.629 -1.078,-2.606 0,-0.98 0.387,-1.918 1.078,-2.609 0.692,-0.692 1.629,-1.078 2.606,-1.078 0.98,0 1.918,0.386 2.609,1.078 0.691,0.691 1.078,1.629 1.078,2.609 z"
         style="fill:#000000;fill-opacity:1;fill-rule:evenodd;stroke:none"
         id="path254" />
    </g>
  </g>
</svg>
