<?xml version="1.0" encoding="UTF-8" standalone="no"?>
<!-- Created with Inkscape (http://www.inkscape.org/) -->

<svg
   version="1.1"
   id="svg1"
   width="737.33331"
   height="246.66667"
   viewBox="0 0 737.33331 246.66667"
   sodipodi:docname="0t3kxuy20q06n.pdf"
   xmlns:inkscape="http://www.inkscape.org/namespaces/inkscape"
   xmlns:sodipodi="http://sodipodi.sourceforge.net/DTD/sodipodi-0.dtd"
   xmlns="http://www.w3.org/2000/svg"
   xmlns:svg="http://www.w3.org/2000/svg">
  <defs
     id="defs1">
    <clipPath
       clipPathUnits="userSpaceOnUse"
       id="clipPath12">
      <path
         d="m 114,137 h 9.602 v 16 H 114 Z"
         transform="translate(-111.57405,-148.28355)"
         id="path12" />
    </clipPath>
    <clipPath
       clipPathUnits="userSpaceOnUse"
       id="clipPath18">
      <path
         d="m 47,57 h 9.641 V 73 H 47 Z"
         transform="translate(-44.615502,-67.793741)"
         id="path18" />
    </clipPath>
    <clipPath
       clipPathUnits="userSpaceOnUse"
       id="clipPath37">
      <path
         d="m 223,66 h 10.039 V 82 H 223 Z"
         transform="translate(-220.96986,-77.118662)"
         id="path37" />
    </clipPath>
    <clipPath
       clipPathUnits="userSpaceOnUse"
       id="clipPath46">
      <path
         d="m 306,66 h 10.078 V 82 H 306 Z"
         transform="translate(-303.98957,-77.168927)"
         id="path46" />
    </clipPath>
    <clipPath
       clipPathUnits="userSpaceOnUse"
       id="clipPath57">
      <path
         d="m 506,117 h 11.922 v 12 H 506 Z"
         transform="translate(-504.99199,-128.41037)"
         id="path57" />
    </clipPath>
    <clipPath
       clipPathUnits="userSpaceOnUse"
       id="clipPath60">
      <path
         d="m 449,151 h 9.879 v 16 H 449 Z"
         transform="translate(-446.8437,-161.9231)"
         id="path60" />
    </clipPath>
    <clipPath
       clipPathUnits="userSpaceOnUse"
       id="clipPath69">
      <path
         d="m 449,102 h 9.879 v 15 H 449 Z"
         transform="translate(-446.8437,-112.49182)"
         id="path69" />
    </clipPath>
  </defs>
  <sodipodi:namedview
     id="namedview1"
     pagecolor="#ffffff"
     bordercolor="#999999"
     borderopacity="1"
     inkscape:showpageshadow="0"
     inkscape:pageopacity="0"
     inkscape:pagecheckerboard="0"
     inkscape:deskcolor="#d1d1d1">
    <inkscape:page
       x="0"
       y="0"
       id="page1"
       width="737.33331"
       height="246.66667"
       margin="0"
       bleed="0" />
  </sodipodi:namedview>
  <g
     id="g1"
     inkscape:groupmode="layer"
     inkscape:label="">
    <path
       id="path1"
       d="M 0,100.539 H 50.27"
       style="fill:none;stroke:#000000;stroke-width:0.9216;stroke-linecap:square;stroke-linejoin:miter;stroke-miterlimit:3.25;stroke-dasharray:none;stroke-opacity:1"
       transform="scale(1.3333333)" />
    <path
       id="path2"
       d="m 30.16,100.539 -10.051,3.352 v -6.703 z"
       style="fill:#000000;fill-opacity:1;fill-rule:evenodd;stroke:none"
       transform="scale(1.3333333)" />
    <path
       id="path3"
       d="m 11.871275,-9.2921999 c 0.269531,0.5507812 0.375,1.2070312 0.339844,1.9453125 0,0.5039062 -0.105469,1.3125 -0.339844,2.4257812 H 3.7618999 c -0.2109375,1.125 -0.1289062,2.0273438 0.234375,2.7070313 0.328125,0.6679687 1.03125,1.0078125 2.0859375,1.0078125 0.9492188,0 1.7929688,-0.3164063 2.5078125,-0.9726563 0.4101563,-0.3515625 0.7382813,-0.7734375 0.9726563,-1.2890625 h 1.8398438 c -0.152344,0.4335938 -0.398438,0.8671875 -0.785156,1.3828125 -0.375,0.4804688 -0.7500003,0.9023438 -1.1601566,1.19531251 -0.6679687,0.57421875 -1.453125,0.9375 -2.34375,1.125 -0.4570312,0.10546875 -0.984375,0.1640625 -1.5351562,0.1640625 -1.3710938,0 -2.4492188,-0.50390625 -3.1875,-1.50000001 -0.7382813,-0.984375 -0.9140625,-2.4023437 -0.5273438,-4.1953125 0.375,-1.78125 1.1601563,-3.2109375 2.3554688,-4.3359375 1.1835937,-1.0898433 2.5546875,-1.6406253 4.125,-1.6406253 0.7734375,0 1.5,0.1875 2.1679688,0.550782 0.65625,0.351562 1.101562,0.8437496 1.359375,1.4296871 z m -1.605469,2.8945312 c 0.08203,-0.796875 0.05859,-1.4414062 -0.128906,-1.921875 -0.3164063,-0.890625 -1.0546876,-1.3476562 -2.2382813,-1.3476562 -0.8671875,0 -1.6523438,0.3164062 -2.34375,0.9257812 -0.7148438,0.609375 -1.1835938,1.3945313 -1.4414063,2.34375 z m 0,0"
       style="fill:#000000;fill-opacity:1;fill-rule:nonzero;stroke:none"
       aria-label="e"
       transform="matrix(1.3333333,0,0,1.3333333,25.409915,171.21382)" />
    <path
       id="path4"
       d="M 167.562,100.539 H 117.293"
       style="fill:none;stroke:#000000;stroke-width:0.9216;stroke-linecap:square;stroke-linejoin:miter;stroke-miterlimit:3.25;stroke-dasharray:none;stroke-opacity:1"
       transform="scale(1.3333333)" />
    <path
       id="path5"
       d="m 147.457,100.539 -10.055,-3.351 v 6.703 z"
       style="fill:#000000;fill-opacity:1;fill-rule:evenodd;stroke:none"
       transform="scale(1.3333333)" />
    <path
       id="path6"
       d="m 11.869698,-9.2929521 c 0.269531,0.5507812 0.375,1.2070312 0.339843,1.9453125 0,0.5039062 -0.105468,1.3125 -0.339843,2.4257812 H 3.7603227 c -0.2109375,1.125 -0.1289063,2.0273438 0.234375,2.7070313 0.328125,0.6679687 1.03125,1.0078125 2.0859375,1.0078125 0.9492187,0 1.7929687,-0.3164063 2.5078125,-0.9726563 0.4101562,-0.3515625 0.7382812,-0.7734375 0.9726562,-1.2890625 h 1.8398441 c -0.152344,0.4335938 -0.398438,0.8671875 -0.785157,1.3828125 -0.375,0.4804688 -0.7499996,0.9023438 -1.1601558,1.19531253 -0.6679688,0.57421875 -1.453125,0.9375 -2.34375,1.125 -0.4570313,0.10546875 -0.984375,0.1640625 -1.5351563,0.1640625 -1.3710937,0 -2.4492187,-0.50390625 -3.1875,-1.50000003 -0.7382812,-0.984375 -0.9140625,-2.4023437 -0.5273437,-4.1953125 0.375,-1.78125 1.1601562,-3.2109375 2.3554687,-4.3359375 1.1835938,-1.0898441 2.5546875,-1.6406251 4.125,-1.6406251 0.7734375,0 1.5,0.1875 2.1679691,0.550781 0.65625,0.351563 1.101562,0.8437504 1.359375,1.4296879 z m -1.605469,2.8945312 c 0.08203,-0.796875 0.05859,-1.4414062 -0.128906,-1.921875 -0.3164066,-0.890625 -1.0546878,-1.3476562 -2.2382816,-1.3476562 -0.8671875,0 -1.6523437,0.3164062 -2.34375,0.9257812 -0.7148437,0.609375 -1.1835937,1.3945313 -1.4414062,2.34375 z m 0,0"
       style="fill:#000000;fill-opacity:1;fill-rule:nonzero;stroke:none"
       aria-label="e"
       transform="matrix(1.3333333,0,0,1.3333333,181.80264,117.17967)" />
    <path
       id="path7"
       d="m 50.27,100.539 c -0.317,8.981 3.113,17.691 9.468,24.043 6.352,6.356 15.063,9.785 24.043,9.469"
       style="fill:none;stroke:#000000;stroke-width:0.9216;stroke-linecap:square;stroke-linejoin:miter;stroke-miterlimit:3.25;stroke-dasharray:none;stroke-opacity:1"
       transform="scale(1.3333333)" />
    <path
       id="path8"
       d="m 63.289,128.137 -9.477,-4.739 4.739,-4.738 z"
       style="fill:#000000;fill-opacity:1;fill-rule:evenodd;stroke:none"
       transform="scale(1.3333333)" />
    <path
       id="path9"
       d="m 11.872142,-9.292806 c 0.269531,0.5507812 0.375,1.2070312 0.339844,1.9453125 0,0.5039062 -0.105469,1.3125 -0.339844,2.4257812 H 3.7627672 c -0.2109375,1.125 -0.1289063,2.0273438 0.234375,2.7070313 0.328125,0.6679687 1.03125,1.0078125 2.0859375,1.0078125 0.9492187,0 1.7929687,-0.3164063 2.5078125,-0.9726563 0.4101562,-0.3515625 0.7382812,-0.7734375 0.9726562,-1.2890625 h 1.8398436 c -0.152344,0.4335938 -0.398437,0.8671875 -0.785156,1.3828125 -0.375,0.4804688 -0.7500001,0.9023438 -1.1601563,1.19531255 -0.6679688,0.57421875 -1.453125,0.9375 -2.34375,1.125 -0.4570313,0.10546875 -0.984375,0.1640625 -1.5351563,0.1640625 -1.3710937,0 -2.4492187,-0.50390625 -3.1875,-1.50000005 -0.7382812,-0.984375 -0.9140625,-2.4023437 -0.5273437,-4.1953125 0.375,-1.78125 1.1601562,-3.2109375 2.3554687,-4.3359375 1.1835938,-1.0898442 2.5546875,-1.6406252 4.125,-1.6406252 0.7734375,0 1.5,0.1875 2.1679686,0.550781 0.65625,0.351563 1.101563,0.8437505 1.359375,1.429688 z m -1.605469,2.8945312 c 0.08203,-0.796875 0.05859,-1.4414062 -0.128906,-1.921875 -0.3164061,-0.890625 -1.0546873,-1.3476562 -2.2382811,-1.3476562 -0.8671875,0 -1.6523437,0.3164062 -2.34375,0.9257812 -0.7148437,0.609375 -1.1835937,1.3945313 -1.4414062,2.34375 z m 0,0"
       style="fill:#000000;fill-opacity:1;fill-rule:nonzero;stroke:none"
       aria-label="e"
       transform="matrix(1.3333333,0,0,1.3333333,57.955633,198.20291)" />
    <path
       id="path10"
       d="m 117.293,100.539 -0.738,0.828 -0.668,0.797 -0.52,0.774 -0.308,0.777 -0.075,0.793 0.157,0.828 0.355,0.883 0.488,0.933 0.532,0.981 0.496,1.008 0.363,1.007 0.16,0.981 -0.086,0.918 -0.359,0.828 -0.61,0.723 -0.82,0.617 -0.969,0.523 -1.031,0.453 -1.012,0.422 -0.914,0.438 -0.75,0.496 -0.558,0.594 -0.352,0.722 -0.168,0.856 -0.027,0.98 0.051,1.074 0.05,1.125 -0.019,1.114 -0.152,1.039 -0.336,0.91 -0.532,0.734 -0.738,0.535 -0.91,0.332 -1.039,0.153 -1.113,0.019 -1.121,-0.05 -1.075,-0.047 -0.984,0.027 -0.856,0.168 -0.718,0.352 -0.598,0.554 -0.496,0.754 -0.438,0.914 -0.421,1.008 -0.454,1.035 -0.519,0.965 -0.617,0.824 -0.727,0.61 -0.828,0.355 -0.918,0.09 -0.976,-0.164 -1.012,-0.363 -1.008,-0.493 -0.98,-0.535 -0.934,-0.484 -0.879,-0.356 -0.832,-0.16 -0.793,0.074 -0.773,0.313 -0.778,0.516 -0.797,0.671 -0.828,0.739"
       style="fill:none;stroke:#000000;stroke-width:0.9216;stroke-linecap:square;stroke-linejoin:miter;stroke-miterlimit:3.25;stroke-dasharray:none;stroke-opacity:1"
       transform="scale(1.3333333)" />
    <path
       id="path11"
       d="M 12.05876,-10.441744 5.9064158,-3.37875e-4 V 0.19888088 c 0,0.12890625 0.023437,0.24609375 0.023437,0.36328125 0,0.1171875 0,0.24609375 0,0.36328125 0,0.18750002 0,0.38671872 -0.023437,0.60937502 -0.023437,0.234375 -0.058594,0.4804687 -0.1054688,0.7382812 -0.035156,0.2460938 -0.09375,0.4921875 -0.1523437,0.75 -0.082031,0.2460938 -0.1875,0.46875 -0.3046875,0.6445313 -0.1289063,0.1992187 -0.2695313,0.3632812 -0.4453125,0.4804687 -0.1640625,0.1289063 -0.3632813,0.1875 -0.609375,0.1875 -0.1757813,0 -0.3398438,-0.046875 -0.4804688,-0.1289062 C 3.6681345,4.1363809 3.550947,4.0543496 3.4454783,3.9254434 3.3517283,3.8082559 3.269697,3.6676309 3.222822,3.5035684 3.1642283,3.3512246 3.1407908,3.1637246 3.1407908,2.9996621 c 0,-0.3164062 0.046875,-0.5976562 0.082031,-0.8671875 C 3.2814158,1.8746621 3.3517283,1.6285684 3.4454783,1.3941934 3.5275095,1.1715371 3.6329783,0.92544338 3.7501658,0.67934963 3.8673533,0.46841213 3.9962595,0.19888088 4.1368845,-0.08236912 L 2.4845408,-10.441744 h 1.8515625 l 1.171875,8.2499999 4.7460937,-8.2499999 z m 0,0"
       style="fill:#000000;fill-opacity:1;fill-rule:nonzero;stroke:none"
       aria-label="γ"
       transform="matrix(1.3333333,0,0,1.3333333,148.7654,197.71139)"
       clip-path="url(#clipPath12)" />
    <path
       id="path13"
       d="m 83.781,67.027 v 67.024"
       style="fill:none;stroke:#000000;stroke-width:0.9216;stroke-linecap:square;stroke-linejoin:miter;stroke-miterlimit:3.25;stroke-dasharray:none;stroke-opacity:1"
       transform="scale(1.3333333)" />
    <path
       id="path14"
       d="m 83.781,95.512 -3.351,10.054 h 6.703 z"
       style="fill:#000000;fill-opacity:1;fill-rule:evenodd;stroke:none"
       transform="scale(1.3333333)" />
    <path
       id="path15"
       d="m 11.872366,-9.2940414 c 0.269531,0.5507813 0.375,1.2070313 0.339844,1.9453125 0,0.5039063 -0.105469,1.3125 -0.339844,2.4257813 H 3.7629912 c -0.2109375,1.125 -0.1289063,2.0273437 0.234375,2.7070312 0.328125,0.6679688 1.03125,1.0078125 2.0859375,1.0078125 0.9492187,0 1.7929687,-0.3164062 2.5078125,-0.9726562 0.4101562,-0.3515625 0.7382812,-0.7734375 0.9726562,-1.2890625 h 1.8398436 c -0.152344,0.4335937 -0.398437,0.8671875 -0.785156,1.3828125 -0.375,0.4804687 -0.7500001,0.9023437 -1.1601563,1.19531247 -0.6679688,0.57421875 -1.453125,0.9375 -2.34375,1.125 -0.4570313,0.10546875 -0.984375,0.1640625 -1.5351563,0.1640625 -1.3710937,0 -2.4492187,-0.50390625 -3.1875,-1.49999997 -0.7382812,-0.984375 -0.9140625,-2.4023438 -0.5273437,-4.1953125 0.375,-1.78125 1.1601562,-3.2109375 2.3554687,-4.3359375 1.1835938,-1.0898439 2.5546875,-1.6406249 4.125,-1.6406249 0.7734375,0 1.5,0.1875 2.1679686,0.550781 0.65625,0.351563 1.101563,0.8437501 1.359375,1.4296876 z m -1.605469,2.8945313 c 0.08203,-0.796875 0.05859,-1.4414063 -0.128906,-1.921875 -0.3164061,-0.890625 -1.0546873,-1.3476563 -2.2382811,-1.3476563 -0.8671875,0 -1.6523437,0.3164063 -2.34375,0.9257813 -0.7148437,0.609375 -1.1835937,1.3945312 -1.4414062,2.34375 z m 0,0"
       style="fill:#000000;fill-opacity:1;fill-rule:nonzero;stroke:none"
       aria-label="e"
       transform="matrix(1.3333333,0,0,1.3333333,122.26783,144.19674)" />
    <path
       id="path16"
       d="m 50.27,100.539 0.71,-0.836 0.645,-0.805 0.5,-0.777 0.305,-0.769 0.074,-0.786 -0.152,-0.816 -0.344,-0.859 -0.485,-0.911 -0.539,-0.953 -0.511,-0.988 -0.395,-0.992 -0.215,-0.977 0.028,-0.922 0.285,-0.847 0.539,-0.75 0.758,-0.649 0.918,-0.55 1.004,-0.477 1.007,-0.434 0.934,-0.429 0.797,-0.477 0.613,-0.555 0.418,-0.671 0.223,-0.797 0.074,-0.922 -0.027,-1.031 -0.059,-1.094 -0.02,-1.11 0.086,-1.07 0.243,-0.965 0.429,-0.816 0.633,-0.633 0.816,-0.433 0.969,-0.243 1.067,-0.086 1.109,0.02 1.098,0.059 1.027,0.027 0.926,-0.07 0.797,-0.227 0.668,-0.414 0.558,-0.613 0.473,-0.797 0.434,-0.934 0.433,-1.008 0.477,-1.004 0.55,-0.918 0.645,-0.761 0.75,-0.539 0.848,-0.285 0.925,-0.024 0.973,0.211 0.996,0.398 0.985,0.512 0.957,0.539 0.91,0.481 0.859,0.347 0.813,0.153 0.785,-0.074 0.769,-0.305 0.782,-0.504 0.8,-0.645 0.836,-0.707"
       style="fill:none;stroke:#000000;stroke-width:0.9216;stroke-linecap:square;stroke-linejoin:miter;stroke-miterlimit:3.25;stroke-dasharray:none;stroke-opacity:1"
       transform="scale(1.3333333)" />
    <path
       id="path17"
       d="M 12.059304,-10.442176 5.9069599,-7.7025e-4 V 0.1984485 c 0,0.12890625 0.023437,0.24609375 0.023437,0.36328125 0,0.1171875 0,0.24609375 0,0.36328125 0,0.1875 0,0.3867188 -0.023437,0.609375 -0.023437,0.234375 -0.058594,0.4804688 -0.1054687,0.7382813 -0.035156,0.2460937 -0.09375,0.4921875 -0.1523438,0.75 -0.082031,0.2460937 -0.1875,0.46875 -0.3046875,0.6445312 -0.1289062,0.1992188 -0.2695312,0.3632813 -0.4453125,0.4804688 -0.1640625,0.1289062 -0.3632812,0.1875 -0.609375,0.1875 -0.1757812,0 -0.3398437,-0.046875 -0.4804687,-0.1289063 C 3.6686787,4.1359485 3.5514912,4.0539173 3.4460224,3.925011 3.3522724,3.8078235 3.2702412,3.6671985 3.2233662,3.503136 3.1647724,3.3507923 3.1413349,3.1632923 3.1413349,2.9992298 c 0,-0.3164063 0.046875,-0.5976563 0.082031,-0.8671875 C 3.2819599,1.8742298 3.3522724,1.628136 3.4460224,1.393761 3.5280537,1.1711048 3.6335224,0.925011 3.7507099,0.67891725 3.8678974,0.46797975 3.9968037,0.1984485 4.1374287,-0.0828015 L 2.4850849,-10.442176 h 1.8515625 l 1.171875,8.2499995 4.7460936,-8.2499995 z m 0,0"
       style="fill:#000000;fill-opacity:1;fill-rule:nonzero;stroke:none"
       aria-label="γ"
       transform="matrix(1.3333333,0,0,1.3333333,59.487335,90.391652)"
       clip-path="url(#clipPath18)" />
    <path
       id="path19"
       d="M 117.293,100.539 C 117.258,82.047 102.273,67.062 83.781,67.027"
       style="fill:none;stroke:#000000;stroke-width:0.9216;stroke-linecap:square;stroke-linejoin:miter;stroke-miterlimit:3.25;stroke-dasharray:none;stroke-opacity:1"
       transform="scale(1.3333333)" />
    <path
       id="path20"
       d="m 111.012,80.414 -4.739,-9.476 -4.738,4.738 z"
       style="fill:#000000;fill-opacity:1;fill-rule:evenodd;stroke:none"
       transform="scale(1.3333333)" />
    <path
       id="path21"
       d="m 11.87126,-9.2918454 c 0.269531,0.5507812 0.375,1.2070312 0.339843,1.9453125 0,0.5039062 -0.105468,1.3125 -0.339843,2.4257812 H 3.7618845 c -0.2109375,1.125 -0.1289062,2.0273438 0.234375,2.7070313 0.328125,0.6679687 1.03125,1.0078125 2.0859375,1.0078125 0.9492188,0 1.7929688,-0.3164063 2.5078125,-0.9726563 0.4101563,-0.3515625 0.7382813,-0.7734375 0.9726563,-1.2890625 H 11.40251 c -0.152344,0.4335938 -0.398438,0.8671875 -0.785157,1.3828125 -0.375,0.4804688 -0.7499997,0.9023438 -1.160156,1.19531251 -0.6679687,0.57421875 -1.453125,0.9375 -2.34375,1.125 -0.4570312,0.10546875 -0.984375,0.1640625 -1.5351562,0.1640625 -1.3710938,0 -2.4492188,-0.50390625 -3.1875,-1.50000001 -0.7382813,-0.984375 -0.9140625,-2.4023437 -0.5273438,-4.1953125 0.375,-1.78125 1.1601563,-3.2109375 2.3554688,-4.3359375 1.1835937,-1.0898438 2.5546875,-1.6406248 4.125,-1.6406248 0.7734375,0 1.5,0.1875 2.1679692,0.550781 0.65625,0.351563 1.101562,0.8437501 1.359375,1.4296876 z m -1.605469,2.8945312 c 0.08203,-0.796875 0.05859,-1.4414062 -0.128906,-1.921875 -0.3164067,-0.890625 -1.054688,-1.3476562 -2.2382817,-1.3476562 -0.8671875,0 -1.6523438,0.3164062 -2.34375,0.9257812 -0.7148438,0.609375 -1.1835938,1.3945313 -1.4414063,2.34375 z m 0,0"
       style="fill:#000000;fill-opacity:1;fill-rule:nonzero;stroke:none"
       aria-label="e"
       transform="matrix(1.3333333,0,0,1.3333333,148.7654,90.682096)" />
    <path
       id="path22"
       d="m 87.469,67.027 c 0,0.977 -0.391,1.914 -1.082,2.606 -0.692,0.691 -1.629,1.078 -2.606,1.078 -0.976,0 -1.914,-0.387 -2.605,-1.078 -0.692,-0.692 -1.082,-1.629 -1.082,-2.606 0,-0.98 0.39,-1.918 1.082,-2.609 0.691,-0.691 1.629,-1.078 2.605,-1.078 0.977,0 1.914,0.387 2.606,1.078 0.691,0.691 1.082,1.629 1.082,2.609 z"
       style="fill:#000000;fill-opacity:1;fill-rule:evenodd;stroke:none"
       transform="scale(1.3333333)" />
    <path
       id="path23"
       d="m 87.469,134.051 c 0,0.976 -0.391,1.914 -1.082,2.605 -0.692,0.692 -1.629,1.082 -2.606,1.082 -0.976,0 -1.914,-0.39 -2.605,-1.082 -0.692,-0.691 -1.082,-1.629 -1.082,-2.605 0,-0.977 0.39,-1.914 1.082,-2.606 0.691,-0.691 1.629,-1.082 2.605,-1.082 0.977,0 1.914,0.391 2.606,1.082 0.691,0.692 1.082,1.629 1.082,2.606 z"
       style="fill:#000000;fill-opacity:1;fill-rule:evenodd;stroke:none"
       transform="scale(1.3333333)" />
    <path
       id="path24"
       d="m 53.957,100.539 c 0,0.977 -0.391,1.914 -1.082,2.606 -0.691,0.691 -1.629,1.078 -2.605,1.078 -0.977,0 -1.915,-0.387 -2.606,-1.078 -0.691,-0.692 -1.082,-1.629 -1.082,-2.606 0,-0.98 0.391,-1.918 1.082,-2.609 0.691,-0.692 1.629,-1.078 2.606,-1.078 0.976,0 1.914,0.386 2.605,1.078 0.691,0.691 1.082,1.629 1.082,2.609 z"
       style="fill:#000000;fill-opacity:1;fill-rule:evenodd;stroke:none"
       transform="scale(1.3333333)" />
    <path
       id="path25"
       d="m 120.98,100.539 c 0,0.977 -0.386,1.914 -1.078,2.606 -0.691,0.691 -1.629,1.078 -2.609,1.078 -0.977,0 -1.914,-0.387 -2.605,-1.078 -0.692,-0.692 -1.079,-1.629 -1.079,-2.606 0,-0.98 0.387,-1.918 1.079,-2.609 0.691,-0.692 1.628,-1.078 2.605,-1.078 0.98,0 1.918,0.386 2.609,1.078 0.692,0.691 1.078,1.629 1.078,2.609 z"
       style="fill:#000000;fill-opacity:1;fill-rule:evenodd;stroke:none"
       transform="scale(1.3333333)" />
    <path
       id="path26"
       d="m 184.32,100.539 h 50.27"
       style="fill:none;stroke:#000000;stroke-width:0.9216;stroke-linecap:square;stroke-linejoin:miter;stroke-miterlimit:3.25;stroke-dasharray:none;stroke-opacity:1"
       transform="scale(1.3333333)" />
    <path
       id="path27"
       d="m 214.48,100.539 -10.054,3.352 v -6.703 z"
       style="fill:#000000;fill-opacity:1;fill-rule:evenodd;stroke:none"
       transform="scale(1.3333333)" />
    <path
       id="path28"
       d="m 11.869634,-9.2921999 c 0.269532,0.5507812 0.375,1.2070312 0.339844,1.9453125 0,0.5039062 -0.105469,1.3125 -0.339844,2.4257812 H 3.7602593 c -0.2109375,1.125 -0.1289062,2.0273438 0.234375,2.7070313 0.328125,0.6679687 1.03125,1.0078125 2.0859375,1.0078125 0.9492188,0 1.7929688,-0.3164063 2.5078125,-0.9726563 0.4101563,-0.3515625 0.7382813,-0.7734375 0.9726563,-1.2890625 h 1.8398434 c -0.152343,0.4335938 -0.398437,0.8671875 -0.785156,1.3828125 -0.375,0.4804688 -0.7499999,0.9023438 -1.1601562,1.19531251 -0.6679687,0.57421875 -1.453125,0.9375 -2.34375,1.125 -0.4570312,0.10546875 -0.984375,0.1640625 -1.5351562,0.1640625 -1.3710938,0 -2.4492188,-0.50390625 -3.1875,-1.50000001 -0.7382813,-0.984375 -0.9140625,-2.4023437 -0.5273438,-4.1953125 0.375,-1.78125 1.1601563,-3.2109375 2.3554688,-4.3359375 1.1835937,-1.0898433 2.5546875,-1.6406253 4.125,-1.6406253 0.7734375,0 1.5,0.1875 2.1679684,0.550782 0.65625,0.351562 1.101563,0.8437496 1.359375,1.4296871 z m -1.605468,2.8945312 c 0.08203,-0.796875 0.05859,-1.4414062 -0.128907,-1.921875 -0.3164059,-0.890625 -1.0546872,-1.3476562 -2.2382809,-1.3476562 -0.8671875,0 -1.6523438,0.3164062 -2.34375,0.9257812 -0.7148438,0.609375 -1.1835938,1.3945313 -1.4414063,2.34375 z m 0,0"
       style="fill:#000000;fill-opacity:1;fill-rule:nonzero;stroke:none"
       aria-label="e"
       transform="matrix(1.3333333,0,0,1.3333333,271.16991,171.21382)" />
    <path
       id="path29"
       d="m 351.883,100.539 h -50.27"
       style="fill:none;stroke:#000000;stroke-width:0.9216;stroke-linecap:square;stroke-linejoin:miter;stroke-miterlimit:3.25;stroke-dasharray:none;stroke-opacity:1"
       transform="scale(1.3333333)" />
    <path
       id="path30"
       d="m 331.777,100.539 -10.054,-3.351 v 6.703 z"
       style="fill:#000000;fill-opacity:1;fill-rule:evenodd;stroke:none"
       transform="scale(1.3333333)" />
    <path
       id="path31"
       d="m 11.870987,-9.2921999 c 0.269531,0.5507812 0.375,1.2070312 0.339844,1.9453125 0,0.5039062 -0.105469,1.3125 -0.339844,2.4257812 H 3.7616118 c -0.2109375,1.125 -0.1289063,2.0273438 0.234375,2.7070313 0.328125,0.6679687 1.03125,1.0078125 2.0859375,1.0078125 0.9492187,0 1.7929687,-0.3164063 2.5078125,-0.9726563 C 8.999893,-2.5304812 9.328018,-2.9523562 9.562393,-3.4679812 h 1.839844 c -0.152344,0.4335938 -0.398438,0.8671875 -0.785156,1.3828125 -0.375,0.4804688 -0.7500005,0.9023438 -1.1601567,1.19531251 -0.6679688,0.57421875 -1.453125,0.9375 -2.34375,1.125 -0.4570313,0.10546875 -0.984375,0.1640625 -1.5351563,0.1640625 -1.3710937,0 -2.4492187,-0.50390625 -3.1875,-1.50000001 -0.7382812,-0.984375 -0.9140625,-2.4023437 -0.5273437,-4.1953125 0.375,-1.78125 1.1601562,-3.2109375 2.3554687,-4.3359375 1.1835938,-1.0898433 2.5546875,-1.6406253 4.125,-1.6406253 0.7734375,0 1.5,0.1875 2.167969,0.550782 0.65625,0.351562 1.101562,0.8437496 1.359375,1.4296871 z m -1.605469,2.8945312 c 0.08203,-0.796875 0.05859,-1.4414062 -0.128906,-1.921875 -0.3164065,-0.890625 -1.0546877,-1.3476562 -2.2382815,-1.3476562 -0.8671875,0 -1.6523437,0.3164062 -2.34375,0.9257812 -0.7148437,0.609375 -1.1835937,1.3945313 -1.4414062,2.34375 z m 0,0"
       style="fill:#000000;fill-opacity:1;fill-rule:nonzero;stroke:none"
       aria-label="e"
       transform="matrix(1.3333333,0,0,1.3333333,427.56264,171.21382)" />
    <path
       id="path32"
       d="m 234.59,100.539 c 0,8.887 3.531,17.41 9.816,23.695 6.285,6.286 14.809,9.817 23.696,9.817 8.886,0 17.414,-3.531 23.699,-9.817 6.281,-6.285 9.812,-14.808 9.812,-23.695"
       style="fill:none;stroke:#000000;stroke-width:0.9216;stroke-linecap:square;stroke-linejoin:miter;stroke-miterlimit:3.25;stroke-dasharray:none;stroke-opacity:1"
       transform="scale(1.3333333)" />
    <path
       id="path33"
       d="m 273.129,134.051 -10.055,3.351 v -6.703 z"
       style="fill:#000000;fill-opacity:1;fill-rule:evenodd;stroke:none"
       transform="scale(1.3333333)" />
    <path
       id="path34"
       d="m 11.871775,-9.2922326 c 0.269532,0.5507812 0.375,1.2070312 0.339844,1.9453125 0,0.5039062 -0.105469,1.3125 -0.339844,2.4257812 H 3.7624004 c -0.2109375,1.125 -0.1289063,2.0273438 0.234375,2.7070313 0.328125,0.6679687 1.03125,1.0078125 2.0859375,1.0078125 0.9492187,0 1.7929687,-0.3164063 2.5078125,-0.9726563 0.4101562,-0.3515625 0.7382812,-0.7734375 0.9726562,-1.2890625 h 1.8398434 c -0.152343,0.4335938 -0.398437,0.8671875 -0.785156,1.3828125 -0.375,0.4804688 -0.7499999,0.9023438 -1.1601561,1.19531253 -0.6679688,0.57421875 -1.453125,0.9375 -2.34375,1.125 -0.4570313,0.10546875 -0.984375,0.1640625 -1.5351563,0.1640625 -1.3710937,0 -2.4492187,-0.50390625 -3.1875,-1.50000003 -0.7382812,-0.984375 -0.9140625,-2.4023437 -0.5273437,-4.1953125 0.375,-1.78125 1.1601562,-3.2109375 2.3554687,-4.3359375 1.1835938,-1.0898436 2.5546875,-1.6406246 4.125,-1.6406246 0.7734375,0 1.5,0.1875 2.1679684,0.550781 0.65625,0.351562 1.101563,0.8437499 1.359375,1.4296874 z m -1.605468,2.8945312 c 0.08203,-0.796875 0.05859,-1.4414062 -0.128907,-1.921875 -0.3164059,-0.890625 -1.0546871,-1.3476562 -2.2382809,-1.3476562 -0.8671875,0 -1.6523437,0.3164062 -2.34375,0.9257812 -0.7148437,0.609375 -1.1835937,1.3945313 -1.4414062,2.34375 z m 0,0"
       style="fill:#000000;fill-opacity:1;fill-rule:nonzero;stroke:none"
       aria-label="e"
       transform="matrix(1.3333333,0,0,1.3333333,349.36628,215.89746)" />
    <path
       id="path35"
       d="m 234.59,100.539 0.695,-0.902 0.617,-0.86 0.45,-0.816 0.207,-0.797 -0.059,-0.801 -0.309,-0.824 -0.507,-0.871 -0.625,-0.922 -0.637,-0.969 -0.539,-0.996 -0.348,-0.996 -0.086,-0.957 0.219,-0.89 0.516,-0.797 0.773,-0.692 0.957,-0.586 1.043,-0.504 1.027,-0.464 0.918,-0.473 0.739,-0.527 0.511,-0.625 0.282,-0.762 0.078,-0.903 -0.059,-1.031 -0.125,-1.121 -0.09,-1.156 0.02,-1.121 0.199,-1.016 0.426,-0.848 0.656,-0.64 0.871,-0.414 1.031,-0.207 1.133,-0.039 1.16,0.054 1.11,0.071 1.008,-0.004 0.871,-0.153 0.715,-0.355 0.582,-0.586 0.476,-0.801 0.426,-0.965 0.422,-1.058"
       style="fill:none;stroke:#000000;stroke-width:0.9216;stroke-linecap:square;stroke-linejoin:miter;stroke-miterlimit:3.25;stroke-dasharray:none;stroke-opacity:1"
       transform="scale(1.3333333)" />
    <path
       id="path36"
       d="M 12.057495,-10.441899 5.905151,-4.929375e-4 V 0.19872581 c 0,0.12890625 0.023437,0.24609375 0.023437,0.36328125 0,0.1171875 0,0.24609375 0,0.36328125 0,0.18749999 0,0.38671879 -0.023437,0.60937499 -0.023437,0.234375 -0.058594,0.4804688 -0.1054688,0.7382813 -0.035156,0.2460937 -0.09375,0.4921875 -0.1523437,0.75 -0.082031,0.2460937 -0.1875,0.46875 -0.3046875,0.6445312 -0.1289063,0.1992188 -0.2695313,0.3632813 -0.4453125,0.4804688 -0.1640625,0.1289062 -0.3632813,0.1875 -0.609375,0.1875 -0.1757813,0 -0.3398438,-0.046875 -0.4804688,-0.1289063 C 3.6668697,4.1362258 3.5496822,4.0541946 3.4442135,3.9252883 3.3504635,3.8081008 3.2684322,3.6674758 3.2215572,3.5034133 3.1629635,3.3510696 3.139526,3.1635696 3.139526,2.9995071 3.139526,2.6831008 3.186401,2.4018508 3.221557,2.1323196 3.280151,1.8745071 3.3504635,1.6284133 3.4442135,1.3940383 3.5262447,1.1713821 3.6317135,0.92528831 3.748901,0.67919456 3.8660885,0.46825706 3.9949947,0.19872581 4.1356197,-0.08252419 L 2.483276,-10.441899 h 1.8515625 l 1.171875,8.2499998 4.7460935,-8.2499998 z m 0,0"
       style="fill:#000000;fill-opacity:1;fill-rule:nonzero;stroke:none"
       aria-label="γ"
       transform="matrix(1.3333333,0,0,1.3333333,294.62647,102.82488)"
       clip-path="url(#clipPath37)" />
    <path
       id="path38"
       d="m 284.859,71.215 c -1.152,-5.113 -4.57,-9.418 -9.289,-11.695 -4.718,-2.282 -10.218,-2.282 -14.937,0 -4.719,2.277 -8.137,6.582 -9.289,11.695"
       style="fill:none;stroke:#000000;stroke-width:0.9216;stroke-linecap:square;stroke-linejoin:miter;stroke-miterlimit:3.25;stroke-dasharray:none;stroke-opacity:1"
       transform="scale(1.3333333)" />
    <path
       id="path39"
       d="M 273.129,57.809 263.074,54.457 V 61.16 Z"
       style="fill:#000000;fill-opacity:1;fill-rule:evenodd;stroke:none"
       transform="scale(1.3333333)" />
    <path
       id="path40"
       d="m 11.871775,-9.2937173 c 0.269532,0.5507812 0.375,1.2070312 0.339844,1.9453125 0,0.5039062 -0.105469,1.3125 -0.339844,2.4257812 H 3.7624004 c -0.2109375,1.125 -0.1289063,2.0273438 0.234375,2.7070313 0.328125,0.6679687 1.03125,1.0078125 2.0859375,1.0078125 0.9492187,0 1.7929687,-0.3164063 2.5078125,-0.9726563 0.4101562,-0.3515625 0.7382812,-0.7734375 0.9726562,-1.2890625 h 1.8398434 c -0.152343,0.4335938 -0.398437,0.8671875 -0.785156,1.3828125 -0.375,0.4804688 -0.7499999,0.9023438 -1.1601561,1.19531254 -0.6679688,0.57421875 -1.453125,0.9375 -2.34375,1.125 -0.4570313,0.10546875 -0.984375,0.1640625 -1.5351563,0.1640625 -1.3710937,0 -2.4492187,-0.50390625 -3.1875,-1.50000004 -0.7382812,-0.984375 -0.9140625,-2.4023437 -0.5273437,-4.1953125 0.375,-1.78125 1.1601562,-3.2109375 2.3554687,-4.3359375 1.1835938,-1.0898439 2.5546875,-1.6406249 4.125,-1.6406249 0.7734375,0 1.5,0.1875 2.1679684,0.550781 0.65625,0.351563 1.101563,0.8437502 1.359375,1.4296877 z m -1.605468,2.8945312 c 0.08203,-0.796875 0.05859,-1.4414062 -0.128907,-1.921875 -0.3164059,-0.890625 -1.0546871,-1.3476562 -2.2382809,-1.3476562 -0.8671875,0 -1.6523437,0.3164062 -2.34375,0.9257812 -0.7148437,0.609375 -1.1835937,1.3945313 -1.4414062,2.34375 z m 0,0"
       style="fill:#000000;fill-opacity:1;fill-rule:nonzero;stroke:none"
       aria-label="e"
       transform="matrix(1.3333333,0,0,1.3333333,349.36628,60.208029)" />
    <path
       id="path41"
       d="m 251.344,71.215 c 1.152,5.109 4.57,9.418 9.289,11.695 4.719,2.278 10.219,2.278 14.937,0 4.719,-2.277 8.137,-6.586 9.289,-11.695"
       style="fill:none;stroke:#000000;stroke-width:0.9216;stroke-linecap:square;stroke-linejoin:miter;stroke-miterlimit:3.25;stroke-dasharray:none;stroke-opacity:1"
       transform="scale(1.3333333)" />
    <path
       id="path42"
       d="m 263.074,84.621 10.055,3.352 V 81.27 Z"
       style="fill:#000000;fill-opacity:1;fill-rule:evenodd;stroke:none"
       transform="scale(1.3333333)" />
    <path
       id="path43"
       d="m 11.871775,-9.2935768 c 0.269532,0.5507812 0.375,1.2070312 0.339844,1.9453125 0,0.5039062 -0.105469,1.3125 -0.339844,2.4257812 H 3.7624004 c -0.2109375,1.125 -0.1289063,2.0273438 0.234375,2.7070313 0.328125,0.6679687 1.03125,1.0078125 2.0859375,1.0078125 0.9492187,0 1.7929687,-0.3164063 2.5078125,-0.9726563 0.4101562,-0.3515625 0.7382812,-0.7734375 0.9726562,-1.2890625 h 1.8398434 c -0.152343,0.4335938 -0.398437,0.8671875 -0.785156,1.3828125 -0.375,0.4804688 -0.7499999,0.9023438 -1.1601561,1.19531254 -0.6679688,0.57421875 -1.453125,0.9375 -2.34375,1.125 -0.4570313,0.10546875 -0.984375,0.1640625 -1.5351563,0.1640625 -1.3710937,0 -2.4492187,-0.50390625 -3.1875,-1.50000004 -0.7382812,-0.984375 -0.9140625,-2.4023437 -0.5273437,-4.1953125 0.375,-1.78125 1.1601562,-3.2109375 2.3554687,-4.3359375 1.1835938,-1.0898434 2.5546875,-1.6406254 4.125,-1.6406254 0.7734375,0 1.5,0.1875 2.1679684,0.550782 0.65625,0.351562 1.101563,0.8437497 1.359375,1.4296872 z m -1.605468,2.8945312 c 0.08203,-0.796875 0.05859,-1.4414062 -0.128907,-1.921875 -0.3164059,-0.890625 -1.0546871,-1.3476562 -2.2382809,-1.3476562 -0.8671875,0 -1.6523437,0.3164062 -2.34375,0.9257812 -0.7148437,0.609375 -1.1835937,1.3945313 -1.4414062,2.34375 z m 0,0"
       style="fill:#000000;fill-opacity:1;fill-rule:nonzero;stroke:none"
       aria-label="e"
       transform="matrix(1.3333333,0,0,1.3333333,349.36628,149.98909)" />
    <path
       id="path44"
       d="m 301.613,100.539 -0.703,-0.894 -0.629,-0.848 -0.453,-0.813 -0.215,-0.793 0.047,-0.8 0.305,-0.829 0.5,-0.871 0.621,-0.925 0.629,-0.973 0.535,-0.996 0.344,-0.996 0.078,-0.957 -0.219,-0.887 -0.519,-0.789 -0.774,-0.684 -0.957,-0.582 -1.043,-0.504 -1.027,-0.46 -0.922,-0.465 -0.734,-0.528 -0.512,-0.629 -0.281,-0.757 -0.079,-0.903 0.063,-1.027 0.125,-1.121 0.098,-1.156 -0.016,-1.118 -0.195,-1.015 -0.418,-0.848 -0.653,-0.641 -0.867,-0.418 -1.031,-0.207 -1.129,-0.046 -1.156,0.05 -1.114,0.063 -1.007,-0.008 -0.864,-0.16 -0.714,-0.363 -0.575,-0.59 -0.468,-0.805 -0.414,-0.969 -0.411,-1.062"
       style="fill:none;stroke:#000000;stroke-width:0.9216;stroke-linecap:square;stroke-linejoin:miter;stroke-miterlimit:3.25;stroke-dasharray:none;stroke-opacity:1"
       transform="scale(1.3333333)" />
    <path
       id="path45"
       d="M 12.059262,-10.442363 5.9069184,-9.5725e-4 V 0.1982615 c 0,0.12890625 0.023437,0.24609375 0.023437,0.36328125 0,0.1171875 0,0.24609375 0,0.36328125 0,0.1875 0,0.3867188 -0.023437,0.609375 -0.023437,0.234375 -0.058594,0.4804688 -0.1054688,0.7382813 -0.035156,0.2460937 -0.09375,0.4921875 -0.1523437,0.75 -0.082031,0.2460937 -0.1875,0.46875 -0.3046875,0.6445312 -0.1289063,0.1992188 -0.2695313,0.3632813 -0.4453125,0.4804688 -0.1640625,0.1289062 -0.3632813,0.1875 -0.609375,0.1875 -0.1757813,0 -0.3398438,-0.046875 -0.4804688,-0.1289063 C 3.6686371,4.1357615 3.5514496,4.0537303 3.4459809,3.924824 3.3522309,3.8076365 3.2701996,3.6670115 3.2233246,3.502949 3.1647309,3.3506053 3.1412934,3.1631053 3.1412934,2.9990428 c 0,-0.3164063 0.046875,-0.5976563 0.082031,-0.8671875 C 3.2819184,1.8740428 3.3522309,1.627949 3.4459809,1.393574 3.5280121,1.1709178 3.6334809,0.924824 3.7506684,0.67873025 3.8678559,0.46779275 3.9967621,0.1982615 4.1373871,-0.0829885 L 2.4850434,-10.442363 h 1.8515625 l 1.171875,8.2499995 4.7460941,-8.2499995 z m 0,0"
       style="fill:#000000;fill-opacity:1;fill-rule:nonzero;stroke:none"
       aria-label="γ"
       transform="matrix(1.3333333,0,0,1.3333333,405.31942,102.8919)"
       clip-path="url(#clipPath46)" />
    <path
       id="path47"
       d="m 288.543,71.215 c 0,0.976 -0.387,1.914 -1.078,2.605 -0.692,0.692 -1.629,1.082 -2.606,1.082 -0.98,0 -1.918,-0.39 -2.609,-1.082 -0.691,-0.691 -1.078,-1.629 -1.078,-2.605 0,-0.977 0.387,-1.914 1.078,-2.606 0.691,-0.691 1.629,-1.082 2.609,-1.082 0.977,0 1.914,0.391 2.606,1.082 0.691,0.692 1.078,1.629 1.078,2.606 z"
       style="fill:#000000;fill-opacity:1;fill-rule:evenodd;stroke:none"
       transform="scale(1.3333333)" />
    <path
       id="path48"
       d="m 255.031,71.215 c 0,0.976 -0.386,1.914 -1.078,2.605 -0.691,0.692 -1.629,1.082 -2.609,1.082 -0.977,0 -1.914,-0.39 -2.606,-1.082 -0.691,-0.691 -1.078,-1.629 -1.078,-2.605 0,-0.977 0.387,-1.914 1.078,-2.606 0.692,-0.691 1.629,-1.082 2.606,-1.082 0.98,0 1.918,0.391 2.609,1.082 0.692,0.692 1.078,1.629 1.078,2.606 z"
       style="fill:#000000;fill-opacity:1;fill-rule:evenodd;stroke:none"
       transform="scale(1.3333333)" />
    <path
       id="path49"
       d="m 238.277,100.539 c 0,0.977 -0.39,1.914 -1.082,2.606 -0.691,0.691 -1.629,1.078 -2.605,1.078 -0.977,0 -1.918,-0.387 -2.61,-1.078 -0.687,-0.692 -1.078,-1.629 -1.078,-2.606 0,-0.98 0.391,-1.918 1.078,-2.609 0.692,-0.692 1.633,-1.078 2.61,-1.078 0.976,0 1.914,0.386 2.605,1.078 0.692,0.691 1.082,1.629 1.082,2.609 z"
       style="fill:#000000;fill-opacity:1;fill-rule:evenodd;stroke:none"
       transform="scale(1.3333333)" />
    <path
       id="path50"
       d="m 305.301,100.539 c 0,0.977 -0.387,1.914 -1.078,2.606 -0.692,0.691 -1.629,1.078 -2.61,1.078 -0.976,0 -1.914,-0.387 -2.605,-1.078 -0.692,-0.692 -1.078,-1.629 -1.078,-2.606 0,-0.98 0.386,-1.918 1.078,-2.609 0.691,-0.692 1.629,-1.078 2.605,-1.078 0.981,0 1.918,0.386 2.61,1.078 0.691,0.691 1.078,1.629 1.078,2.609 z"
       style="fill:#000000;fill-opacity:1;fill-rule:evenodd;stroke:none"
       transform="scale(1.3333333)" />
    <path
       id="path51"
       d="M 368.641,100.539 H 418.91"
       style="fill:none;stroke:#000000;stroke-width:0.9216;stroke-linecap:square;stroke-linejoin:miter;stroke-miterlimit:3.25;stroke-dasharray:none;stroke-opacity:1"
       transform="scale(1.3333333)" />
    <path
       id="path52"
       d="m 398.801,100.539 -10.055,3.352 v -6.703 z"
       style="fill:#000000;fill-opacity:1;fill-rule:evenodd;stroke:none"
       transform="scale(1.3333333)" />
    <path
       id="path53"
       d="m 11.870923,-9.2921999 c 0.269532,0.5507812 0.375,1.2070312 0.339844,1.9453125 0,0.5039062 -0.105469,1.3125 -0.339844,2.4257812 H 3.7615484 c -0.2109375,1.125 -0.1289063,2.0273438 0.234375,2.7070313 0.328125,0.6679687 1.03125,1.0078125 2.0859375,1.0078125 0.9492187,0 1.7929687,-0.3164063 2.5078125,-0.9726563 0.4101562,-0.3515625 0.7382812,-0.7734375 0.9726562,-1.2890625 h 1.8398434 c -0.152343,0.4335938 -0.398437,0.8671875 -0.785156,1.3828125 -0.375,0.4804688 -0.7499999,0.9023438 -1.1601561,1.19531251 -0.6679688,0.57421875 -1.453125,0.9375 -2.34375,1.125 -0.4570313,0.10546875 -0.984375,0.1640625 -1.5351563,0.1640625 -1.3710937,0 -2.4492187,-0.50390625 -3.1875,-1.50000001 -0.7382812,-0.984375 -0.9140625,-2.4023437 -0.5273437,-4.1953125 0.375,-1.78125 1.1601562,-3.2109375 2.3554687,-4.3359375 1.1835938,-1.0898433 2.5546875,-1.6406253 4.125,-1.6406253 0.7734375,0 1.5,0.1875 2.1679684,0.550782 0.65625,0.351562 1.101563,0.8437496 1.359375,1.4296871 z m -1.605468,2.8945312 c 0.08203,-0.796875 0.05859,-1.4414062 -0.128907,-1.921875 -0.3164059,-0.890625 -1.0546871,-1.3476562 -2.2382809,-1.3476562 -0.8671875,0 -1.6523437,0.3164062 -2.34375,0.9257812 -0.7148437,0.609375 -1.1835937,1.3945313 -1.4414062,2.34375 z m 0,0"
       style="fill:#000000;fill-opacity:1;fill-rule:nonzero;stroke:none"
       aria-label="e"
       transform="matrix(1.3333333,0,0,1.3333333,516.92991,171.21382)" />
    <path
       id="path54"
       d="M 536.203,100.539 H 485.934"
       style="fill:none;stroke:#000000;stroke-width:0.9216;stroke-linecap:square;stroke-linejoin:miter;stroke-miterlimit:3.25;stroke-dasharray:none;stroke-opacity:1"
       transform="scale(1.3333333)" />
    <path
       id="path55"
       d="m 516.098,100.539 -10.055,-3.351 v 6.703 z"
       style="fill:#000000;fill-opacity:1;fill-rule:evenodd;stroke:none"
       transform="scale(1.3333333)" />
    <path
       id="path56"
       d="m 11.872276,-9.2921999 c 0.269531,0.5507812 0.375,1.2070312 0.339844,1.9453125 0,0.5039062 -0.105469,1.3125 -0.339844,2.4257812 H 3.7629008 c -0.2109375,1.125 -0.1289062,2.0273438 0.234375,2.7070313 0.328125,0.6679687 1.03125,1.0078125 2.0859375,1.0078125 0.9492188,0 1.7929688,-0.3164063 2.5078125,-0.9726563 0.4101563,-0.3515625 0.7382813,-0.7734375 0.9726563,-1.2890625 h 1.8398439 c -0.152344,0.4335938 -0.398438,0.8671875 -0.785156,1.3828125 -0.375,0.4804688 -0.7500004,0.9023438 -1.1601567,1.19531251 -0.6679687,0.57421875 -1.453125,0.9375 -2.34375,1.125 -0.4570312,0.10546875 -0.984375,0.1640625 -1.5351562,0.1640625 -1.3710938,0 -2.4492188,-0.50390625 -3.1875,-1.50000001 -0.7382813,-0.984375 -0.9140625,-2.4023437 -0.5273438,-4.1953125 0.375,-1.78125 1.1601563,-3.2109375 2.3554688,-4.3359375 1.1835937,-1.0898433 2.5546875,-1.6406253 4.125,-1.6406253 0.7734375,0 1.5,0.1875 2.1679689,0.550782 0.65625,0.351562 1.101562,0.8437496 1.359375,1.4296871 z m -1.605469,2.8945312 c 0.08203,-0.796875 0.05859,-1.4414062 -0.128906,-1.921875 -0.3164064,-0.890625 -1.0546877,-1.3476562 -2.2382814,-1.3476562 -0.8671875,0 -1.6523438,0.3164062 -2.34375,0.9257812 -0.7148438,0.609375 -1.1835938,1.3945313 -1.4414063,2.34375 z m 0,0"
       style="fill:#000000;fill-opacity:1;fill-rule:nonzero;stroke:none"
       aria-label="e"
       transform="matrix(1.3333333,0,0,1.3333333,673.32264,171.21382)"
       clip-path="url(#clipPath57)" />
    <path
       id="path58"
       d="m 485.934,100.539 -0.684,0.824 -0.629,0.793 -0.516,0.774 -0.351,0.769 -0.156,0.778 0.039,0.804 0.226,0.848 0.364,0.891 0.445,0.941 0.465,0.977 0.406,0.996 0.285,0.996 0.106,0.965 -0.106,0.91 -0.336,0.828 -0.554,0.734 -0.747,0.637 -0.89,0.543 -0.977,0.465 -0.992,0.422 -0.945,0.406 -0.848,0.433 -0.703,0.497 -0.539,0.589 -0.375,0.707 -0.223,0.825 -0.113,0.937 -0.047,1.024 -0.039,1.078 -0.086,1.078 -0.184,1.031 -0.316,0.934 -0.476,0.793 -0.645,0.621 -0.801,0.433 -0.933,0.254 -1.024,0.098 -1.074,-0.02 -1.082,-0.082 -1.039,-0.09 -0.973,-0.027 -0.879,0.078 -0.773,0.235 -0.68,0.41 -0.597,0.586 -0.543,0.746 -0.52,0.863 -0.527,0.93 -0.567,0.926 -0.621,0.855 -0.699,0.719 -0.773,0.527 -0.844,0.305 -0.903,0.07 -0.937,-0.16 -0.953,-0.352 -0.946,-0.496 -0.925,-0.566 -0.891,-0.57 -0.851,-0.504 -0.821,-0.375 -0.801,-0.2 h -0.789 l -0.8,0.2 -0.821,0.375 -0.851,0.504 -0.891,0.57 -0.926,0.566 -0.945,0.496 -0.953,0.352 -0.938,0.16 -0.902,-0.07 -0.844,-0.305 -0.773,-0.527 -0.699,-0.719 -0.622,-0.855 -0.566,-0.926 -0.527,-0.93 -0.52,-0.863 -0.543,-0.746 -0.597,-0.586 -0.68,-0.41 -0.774,-0.235 -0.878,-0.078 -0.973,0.027 -1.039,0.09 -1.082,0.082 -1.074,0.02 -1.024,-0.098 -0.933,-0.254 -0.801,-0.433 -0.645,-0.621 -0.476,-0.793 -0.317,-0.934 -0.183,-1.031 -0.086,-1.078 -0.039,-1.078 -0.047,-1.024 -0.113,-0.937 -0.223,-0.825 -0.375,-0.707 -0.539,-0.589 -0.703,-0.497 -0.848,-0.433 -0.945,-0.406 -0.992,-0.422 -0.977,-0.465 -0.891,-0.543 -0.746,-0.637 -0.558,-0.734 -0.332,-0.828 -0.106,-0.91 0.106,-0.965 0.285,-0.996 0.406,-0.996 0.465,-0.977 0.445,-0.941 0.363,-0.891 0.223,-0.848 0.043,-0.804 -0.156,-0.778 -0.352,-0.769 -0.515,-0.774 -0.633,-0.793 -0.68,-0.824"
       style="fill:none;stroke:#000000;stroke-width:0.9216;stroke-linecap:square;stroke-linejoin:miter;stroke-miterlimit:3.25;stroke-dasharray:none;stroke-opacity:1"
       transform="scale(1.3333333)" />
    <path
       id="path59"
       d="M 12.059627,-10.44067 5.9072836,7.36125e-4 V 0.19995488 c 0,0.12890625 0.023437,0.24609375 0.023437,0.36328125 0,0.1171875 0,0.24609375 0,0.36328125 0,0.18750002 0,0.38671872 -0.023437,0.60937502 -0.023437,0.234375 -0.058594,0.4804687 -0.1054688,0.7382812 -0.035156,0.2460938 -0.09375,0.4921875 -0.1523437,0.75 -0.082031,0.2460938 -0.1875,0.46875 -0.3046875,0.6445313 -0.1289063,0.1992187 -0.2695313,0.3632812 -0.4453125,0.4804687 -0.1640625,0.1289063 -0.3632813,0.1875 -0.609375,0.1875 -0.1757813,0 -0.3398438,-0.046875 -0.4804688,-0.1289062 C 3.6690023,4.1374549 3.5518148,4.0554236 3.4463461,3.9265174 3.3525961,3.8093299 3.2705648,3.6687049 3.2236898,3.5046424 3.1650961,3.3522986 3.1416586,3.1647986 3.1416586,3.0007361 c 0,-0.3164062 0.046875,-0.5976562 0.082031,-0.8671875 C 3.2822836,1.8757361 3.3525961,1.6296424 3.4463461,1.3952674 3.5283773,1.1726111 3.6338461,0.92651738 3.7510336,0.68042363 3.8682211,0.46948613 3.9971273,0.19995488 4.1377523,-0.08129512 L 2.4854086,-10.44067 h 1.8515625 l 1.171875,8.2499999 4.7460939,-8.2499999 z m 0,0"
       style="fill:#000000;fill-opacity:1;fill-rule:nonzero;stroke:none"
       aria-label="γ"
       transform="matrix(1.3333333,0,0,1.3333333,595.79159,215.89746)"
       clip-path="url(#clipPath60)" />
    <path
       id="path61"
       d="m 435.664,71.215 c -11.203,5.269 -17.906,16.996 -16.754,29.324"
       style="fill:none;stroke:#000000;stroke-width:0.9216;stroke-linecap:square;stroke-linejoin:miter;stroke-miterlimit:3.25;stroke-dasharray:none;stroke-opacity:1"
       transform="scale(1.3333333)" />
    <path
       id="path62"
       d="m 425.148,78.863 -7.898,7.067 5.82,3.328 z"
       style="fill:#000000;fill-opacity:1;fill-rule:evenodd;stroke:none"
       transform="scale(1.3333333)" />
    <path
       id="path63"
       d="m 11.870229,-9.2934617 c 0.269532,0.5507813 0.375,1.2070313 0.339844,1.9453125 0,0.5039063 -0.105469,1.3125 -0.339844,2.4257813 H 3.7608544 c -0.2109375,1.125 -0.1289063,2.0273437 0.234375,2.7070312 0.328125,0.6679688 1.03125,1.0078125 2.0859375,1.0078125 0.9492187,0 1.7929687,-0.3164062 2.5078125,-0.9726562 0.4101562,-0.3515625 0.7382812,-0.7734375 0.9726562,-1.2890625 h 1.8398434 c -0.152343,0.4335937 -0.398437,0.8671875 -0.785156,1.3828125 -0.375,0.4804687 -0.7499999,0.9023437 -1.1601561,1.19531246 -0.6679688,0.57421875 -1.453125,0.9375 -2.34375,1.125 -0.4570313,0.10546875 -0.984375,0.1640625 -1.5351563,0.1640625 -1.3710937,0 -2.4492187,-0.50390625 -3.1875,-1.49999996 -0.7382812,-0.984375 -0.9140625,-2.4023438 -0.5273437,-4.1953125 0.375,-1.78125 1.1601562,-3.2109375 2.3554687,-4.3359375 1.1835938,-1.0898436 2.5546875,-1.6406246 4.125,-1.6406246 0.7734375,0 1.5,0.1875 2.1679684,0.550781 0.65625,0.351562 1.101563,0.8437498 1.359375,1.4296873 z m -1.605468,2.8945313 c 0.08203,-0.796875 0.05859,-1.4414063 -0.128907,-1.921875 -0.3164059,-0.890625 -1.0546871,-1.3476563 -2.2382809,-1.3476563 -0.8671875,0 -1.6523437,0.3164063 -2.34375,0.9257813 -0.7148437,0.609375 -1.1835937,1.3945312 -1.4414062,2.34375 z m 0,0"
       style="fill:#000000;fill-opacity:1;fill-rule:nonzero;stroke:none"
       aria-label="e"
       transform="matrix(1.3333333,0,0,1.3333333,539.05584,102.82488)" />
    <path
       id="path64"
       d="m 469.18,71.215 c -1.153,-5.113 -4.571,-9.418 -9.289,-11.695 -4.719,-2.282 -10.219,-2.282 -14.938,0 -4.719,2.277 -8.137,6.582 -9.289,11.695"
       style="fill:none;stroke:#000000;stroke-width:0.9216;stroke-linecap:square;stroke-linejoin:miter;stroke-miterlimit:3.25;stroke-dasharray:none;stroke-opacity:1"
       transform="scale(1.3333333)" />
    <path
       id="path65"
       d="M 457.449,57.809 447.395,54.457 V 61.16 Z"
       style="fill:#000000;fill-opacity:1;fill-rule:evenodd;stroke:none"
       transform="scale(1.3333333)" />
    <path
       id="path66"
       d="m 11.870135,-9.2937173 c 0.269531,0.5507812 0.375,1.2070312 0.339844,1.9453125 0,0.5039062 -0.105469,1.3125 -0.339844,2.4257812 H 3.7607598 c -0.2109375,1.125 -0.1289063,2.0273438 0.234375,2.7070313 0.328125,0.6679687 1.03125,1.0078125 2.0859375,1.0078125 0.9492187,0 1.7929687,-0.3164063 2.5078125,-0.9726563 C 8.999041,-2.5319986 9.327166,-2.9538736 9.561541,-3.4694986 h 1.839844 c -0.152344,0.4335938 -0.398438,0.8671875 -0.785156,1.3828125 -0.375,0.4804688 -0.7500005,0.9023438 -1.1601567,1.19531254 -0.6679688,0.57421875 -1.453125,0.9375 -2.34375,1.125 -0.4570313,0.10546875 -0.984375,0.1640625 -1.5351563,0.1640625 -1.3710937,0 -2.4492187,-0.50390625 -3.1875,-1.50000004 -0.7382812,-0.984375 -0.9140625,-2.4023437 -0.5273437,-4.1953125 0.375,-1.78125 1.1601562,-3.2109375 2.3554687,-4.3359375 1.1835938,-1.0898439 2.5546875,-1.6406249 4.125,-1.6406249 0.7734375,0 1.5,0.1875 2.167969,0.550781 0.65625,0.351563 1.101562,0.8437502 1.359375,1.4296877 z m -1.605469,2.8945312 c 0.08203,-0.796875 0.05859,-1.4414062 -0.128906,-1.921875 -0.3164065,-0.890625 -1.0546877,-1.3476562 -2.2382815,-1.3476562 -0.8671875,0 -1.6523437,0.3164062 -2.34375,0.9257812 -0.7148437,0.609375 -1.1835937,1.3945313 -1.4414062,2.34375 z m 0,0"
       style="fill:#000000;fill-opacity:1;fill-rule:nonzero;stroke:none"
       aria-label="e"
       transform="matrix(1.3333333,0,0,1.3333333,595.12628,60.208029)" />
    <path
       id="path67"
       d="m 435.664,71.215 0.992,0.597 0.887,0.555 0.676,0.563 0.418,0.632 0.148,0.754 -0.074,0.899 -0.203,1.047 -0.223,1.144 -0.129,1.176 0.067,1.117 0.32,0.965 0.602,0.734 0.851,0.457 1.047,0.176 1.152,-0.058 1.168,-0.219 1.102,-0.262 0.984,-0.187 0.836,-0.008 0.703,0.238 0.61,0.516 0.574,0.761 0.594,0.926 0.66,0.981 0.754,0.894 0.851,0.684 0.918,0.371 h 0.946 l 0.917,-0.371 0.852,-0.684 0.754,-0.894 0.66,-0.981 0.594,-0.926 0.574,-0.761 0.609,-0.516 0.704,-0.238 0.836,0.008 0.984,0.187 1.101,0.262 1.168,0.219 1.153,0.058 1.047,-0.176 0.851,-0.457 0.602,-0.734 0.32,-0.965 0.067,-1.117 -0.129,-1.176 -0.223,-1.144 -0.203,-1.047 -0.074,-0.899 0.148,-0.754 0.418,-0.632 0.676,-0.563 0.887,-0.555 0.992,-0.597"
       style="fill:none;stroke:#000000;stroke-width:0.9216;stroke-linecap:square;stroke-linejoin:miter;stroke-miterlimit:3.25;stroke-dasharray:none;stroke-opacity:1"
       transform="scale(1.3333333)" />
    <path
       id="path68"
       d="M 12.059627,-10.442014 5.9072836,-6.080625e-4 V 0.19861069 c 0,0.12890625 0.023437,0.24609375 0.023437,0.36328125 0,0.1171875 0,0.24609375 0,0.36328125 0,0.18750001 0,0.38671871 -0.023437,0.60937501 -0.023437,0.234375 -0.058594,0.4804687 -0.1054688,0.7382812 -0.035156,0.2460938 -0.09375,0.4921875 -0.1523437,0.75 -0.082031,0.2460938 -0.1875,0.46875 -0.3046875,0.6445313 -0.1289063,0.1992187 -0.2695313,0.3632812 -0.4453125,0.4804687 -0.1640625,0.1289063 -0.3632813,0.1875 -0.609375,0.1875 -0.1757813,0 -0.3398438,-0.046875 -0.4804688,-0.1289062 C 3.6690023,4.1361107 3.5518148,4.0540794 3.4463461,3.9251732 3.3525961,3.8079857 3.2705648,3.6673607 3.2236898,3.5032982 3.1650961,3.3509544 3.1416586,3.1634544 3.1416586,2.9993919 c 0,-0.3164062 0.046875,-0.5976562 0.082031,-0.8671875 C 3.2822836,1.8743919 3.3525961,1.6282982 3.4463461,1.3939232 3.5283773,1.1712669 3.6338461,0.92517319 3.7510336,0.67907944 3.8682211,0.46814194 3.9971273,0.19861069 4.1377523,-0.08263931 L 2.4854086,-10.442014 h 1.8515625 l 1.171875,8.2499997 4.7460939,-8.2499997 z m 0,0"
       style="fill:#000000;fill-opacity:1;fill-rule:nonzero;stroke:none"
       aria-label="γ"
       transform="matrix(1.3333333,0,0,1.3333333,595.79159,149.98909)"
       clip-path="url(#clipPath69)" />
    <path
       id="path70"
       d="M 485.934,100.539 C 486.945,88.238 480.285,76.586 469.18,71.215"
       style="fill:none;stroke:#000000;stroke-width:0.9216;stroke-linecap:square;stroke-linejoin:miter;stroke-miterlimit:3.25;stroke-dasharray:none;stroke-opacity:1"
       transform="scale(1.3333333)" />
    <path
       id="path71"
       d="m 484.594,87.645 -2.078,-10.395 -5.817,3.328 z"
       style="fill:#000000;fill-opacity:1;fill-rule:evenodd;stroke:none"
       transform="scale(1.3333333)" />
    <path
       id="path72"
       d="m 11.870121,-9.293926 c 0.269532,0.5507813 0.375,1.2070313 0.339844,1.9453125 0,0.5039063 -0.105469,1.3125 -0.339844,2.4257813 H 3.7607465 c -0.2109375,1.125 -0.1289063,2.0273437 0.234375,2.7070312 0.328125,0.6679688 1.03125,1.0078125 2.0859375,1.0078125 0.9492187,0 1.7929687,-0.3164062 2.5078125,-0.9726562 0.4101562,-0.3515625 0.7382812,-0.7734375 0.9726562,-1.2890625 h 1.8398433 c -0.152343,0.4335937 -0.398437,0.8671875 -0.785156,1.3828125 -0.375,0.4804687 -0.7499998,0.9023437 -1.160156,1.19531245 -0.6679688,0.57421875 -1.453125,0.9375 -2.34375,1.125 -0.4570313,0.10546875 -0.984375,0.1640625 -1.5351563,0.1640625 -1.3710937,0 -2.4492187,-0.50390625 -3.1875,-1.49999995 -0.7382812,-0.984375 -0.9140625,-2.4023438 -0.5273437,-4.1953125 0.375,-1.78125 1.1601562,-3.2109375 2.3554687,-4.3359375 1.1835938,-1.0898433 2.5546875,-1.6406253 4.125,-1.6406253 0.7734375,0 1.5,0.1875 2.1679683,0.550782 0.65625,0.351562 1.101563,0.8437495 1.359375,1.429687 z m -1.605468,2.8945313 c 0.08203,-0.796875 0.05859,-1.4414063 -0.128907,-1.921875 -0.3164058,-0.890625 -1.054687,-1.3476563 -2.2382808,-1.3476563 -0.8671875,0 -1.6523437,0.3164063 -2.34375,0.9257813 -0.7148437,0.609375 -1.1835937,1.3945312 -1.4414062,2.34375 z m 0,0"
       style="fill:#000000;fill-opacity:1;fill-rule:nonzero;stroke:none"
       aria-label="e"
       transform="matrix(1.3333333,0,0,1.3333333,651.07942,102.8919)" />
    <path
       id="path73"
       d="m 472.863,71.215 c 0,0.976 -0.386,1.914 -1.078,2.605 -0.691,0.692 -1.629,1.082 -2.605,1.082 -0.981,0 -1.918,-0.39 -2.61,-1.082 -0.691,-0.691 -1.078,-1.629 -1.078,-2.605 0,-0.977 0.387,-1.914 1.078,-2.606 0.692,-0.691 1.629,-1.082 2.61,-1.082 0.976,0 1.914,0.391 2.605,1.082 0.692,0.692 1.078,1.629 1.078,2.606 z"
       style="fill:#000000;fill-opacity:1;fill-rule:evenodd;stroke:none"
       transform="scale(1.3333333)" />
    <path
       id="path74"
       d="m 439.352,71.215 c 0,0.976 -0.387,1.914 -1.079,2.605 -0.691,0.692 -1.628,1.082 -2.609,1.082 -0.976,0 -1.914,-0.39 -2.605,-1.082 -0.692,-0.691 -1.079,-1.629 -1.079,-2.605 0,-0.977 0.387,-1.914 1.079,-2.606 0.691,-0.691 1.629,-1.082 2.605,-1.082 0.981,0 1.918,0.391 2.609,1.082 0.692,0.692 1.079,1.629 1.079,2.606 z"
       style="fill:#000000;fill-opacity:1;fill-rule:evenodd;stroke:none"
       transform="scale(1.3333333)" />
    <path
       id="path75"
       d="m 422.594,100.539 c 0,0.977 -0.387,1.914 -1.078,2.606 -0.692,0.691 -1.629,1.078 -2.606,1.078 -0.98,0 -1.918,-0.387 -2.609,-1.078 -0.692,-0.692 -1.078,-1.629 -1.078,-2.606 0,-0.98 0.386,-1.918 1.078,-2.609 0.691,-0.692 1.629,-1.078 2.609,-1.078 0.977,0 1.914,0.386 2.606,1.078 0.691,0.691 1.078,1.629 1.078,2.609 z"
       style="fill:#000000;fill-opacity:1;fill-rule:evenodd;stroke:none"
       transform="scale(1.3333333)" />
    <path
       id="path76"
       d="m 489.621,100.539 c 0,0.977 -0.387,1.914 -1.078,2.606 -0.691,0.691 -1.629,1.078 -2.609,1.078 -0.977,0 -1.914,-0.387 -2.606,-1.078 -0.691,-0.692 -1.078,-1.629 -1.078,-2.606 0,-0.98 0.387,-1.918 1.078,-2.609 0.692,-0.692 1.629,-1.078 2.606,-1.078 0.98,0 1.918,0.386 2.609,1.078 0.691,0.691 1.078,1.629 1.078,2.609 z"
       style="fill:#000000;fill-opacity:1;fill-rule:evenodd;stroke:none"
       transform="scale(1.3333333)" />
  </g>
</svg>
