<?xml version="1.0" encoding="UTF-8" standalone="no"?>
<!-- Created with Inkscape (http://www.inkscape.org/) -->

<svg
   version="1.1"
   id="svg2"
   width="492"
   height="246.66667"
   viewBox="0 0 492 246.66667"
   sodipodi:docname="0aev7upap3l3h.pdf"
   xmlns:inkscape="http://www.inkscape.org/namespaces/inkscape"
   xmlns:sodipodi="http://sodipodi.sourceforge.net/DTD/sodipodi-0.dtd"
   xmlns="http://www.w3.org/2000/svg"
   xmlns:svg="http://www.w3.org/2000/svg">
  <defs
     id="defs6">
    <clipPath
       clipPathUnits="userSpaceOnUse"
       id="clipPath38">
      <path
         d="m 145,97 h 13.879 v 20 H 145 Z"
         id="path36" />
    </clipPath>
    <clipPath
       clipPathUnits="userSpaceOnUse"
       id="clipPath68">
      <path
         d="m 80,172 h 5 v 12.32 h -5 z"
         id="path66" />
    </clipPath>
    <clipPath
       clipPathUnits="userSpaceOnUse"
       id="clipPath84">
      <path
         d="m 221,36 h 13.961 V 56 H 221 Z"
         id="path82" />
    </clipPath>
    <clipPath
       clipPathUnits="userSpaceOnUse"
       id="clipPath100">
      <path
         d="m 221,149 h 13.961 v 19 H 221 Z"
         id="path98" />
    </clipPath>
    <clipPath
       clipPathUnits="userSpaceOnUse"
       id="clipPath142">
      <path
         d="m 263,172 h 10 v 12.32 h -10 z"
         id="path140" />
    </clipPath>
  </defs>
  <sodipodi:namedview
     id="namedview4"
     pagecolor="#ffffff"
     bordercolor="#999999"
     borderopacity="1"
     inkscape:showpageshadow="0"
     inkscape:pageopacity="0"
     inkscape:pagecheckerboard="0"
     inkscape:deskcolor="#d1d1d1" />
  <g
     id="g8"
     inkscape:groupmode="layer"
     inkscape:label="0aev7upap3l3h"
     transform="matrix(1.3333333,0,0,1.3333333,0,9.5e-6)">
    <g
       id="g10">
      <path
         d="m 0,58.648 50.27,41.891"
         style="fill:none;stroke:#000000;stroke-width:0.9216;stroke-linecap:butt;stroke-linejoin:miter;stroke-miterlimit:3.25;stroke-dasharray:5.5296, 5.5296;stroke-dashoffset:0;stroke-opacity:1"
         id="path12" />
      <text
         xml:space="preserve"
         transform="translate(9.646983,102.84592)"
         style="font-variant:normal;font-size:20.16px;font-family:CairoFont-0;-inkscape-font-specification:CairoFont-0-1;writing-mode:lr-tb;fill:#000000;fill-opacity:1;fill-rule:nonzero;stroke:none"
         id="text16"><tspan
           x="0"
           y="0"
           id="tspan14">ϕ</tspan></text>
      <path
         d="M 0,142.43 50.27,100.539"
         style="fill:none;stroke:#000000;stroke-width:0.9216;stroke-linecap:butt;stroke-linejoin:miter;stroke-miterlimit:3.25;stroke-dasharray:5.5296, 5.5296;stroke-dashoffset:0;stroke-opacity:1"
         id="path18" />
      <text
         xml:space="preserve"
         transform="translate(27.040077,144.73682)"
         style="font-variant:normal;font-size:20.16px;font-family:CairoFont-0;-inkscape-font-specification:CairoFont-0-1;writing-mode:lr-tb;fill:#000000;fill-opacity:1;fill-rule:nonzero;stroke:none"
         id="text22"><tspan
           x="0"
           y="0"
           id="tspan20">ϕ</tspan></text>
      <path
         d="m 167.562,58.648 -50.269,41.891"
         style="fill:none;stroke:#000000;stroke-width:0.9216;stroke-linecap:butt;stroke-linejoin:miter;stroke-miterlimit:3.25;stroke-dasharray:5.5296, 5.5296;stroke-dashoffset:0;stroke-opacity:1"
         id="path24" />
      <text
         xml:space="preserve"
         transform="translate(126.94153,70.429384)"
         style="font-variant:normal;font-size:20.16px;font-family:CairoFont-0;-inkscape-font-specification:CairoFont-0-1;writing-mode:lr-tb;fill:#000000;fill-opacity:1;fill-rule:nonzero;stroke:none"
         id="text28"><tspan
           x="0"
           y="0"
           id="tspan26">ϕ</tspan></text>
      <path
         d="M 167.562,142.43 117.293,100.539"
         style="fill:none;stroke:#000000;stroke-width:0.9216;stroke-linecap:butt;stroke-linejoin:miter;stroke-miterlimit:3.25;stroke-dasharray:5.5296, 5.5296;stroke-dashoffset:0;stroke-opacity:1"
         id="path30" />
    </g>
    <g
       id="g32">
      <g
         id="g34"
         clip-path="url(#clipPath38)">
        <text
           xml:space="preserve"
           transform="translate(144.33462,112.32029)"
           style="font-variant:normal;font-size:20.16px;font-family:CairoFont-0;-inkscape-font-specification:CairoFont-0-1;writing-mode:lr-tb;fill:#000000;fill-opacity:1;fill-rule:nonzero;stroke:none"
           id="text42"><tspan
             x="0"
             y="0"
             id="tspan40">ϕ</tspan></text>
      </g>
    </g>
    <g
       id="g44">
      <path
         d="m 50.27,100.539 c 2.3,10.223 9.14,18.836 18.578,23.391 9.433,4.558 20.433,4.558 29.871,0 9.433,-4.555 16.277,-13.168 18.574,-23.391"
         style="fill:none;stroke:#000000;stroke-width:0.9216;stroke-linecap:butt;stroke-linejoin:miter;stroke-miterlimit:3.25;stroke-dasharray:5.5296, 5.5296;stroke-dashoffset:0;stroke-opacity:1"
         id="path46" />
      <text
         xml:space="preserve"
         transform="translate(76.990803,153.126)"
         style="font-variant:normal;font-size:20.16px;font-family:CairoFont-0;-inkscape-font-specification:CairoFont-0-1;writing-mode:lr-tb;fill:#000000;fill-opacity:1;fill-rule:nonzero;stroke:none"
         id="text50"><tspan
           x="0"
           y="0"
           id="tspan48">ϕ</tspan></text>
      <path
         d="M 117.293,100.539 C 114.996,90.316 108.152,81.703 98.719,77.145 89.281,72.59 78.281,72.59 68.848,77.145 59.41,81.703 52.57,90.316 50.27,100.539"
         style="fill:none;stroke:#000000;stroke-width:0.9216;stroke-linecap:butt;stroke-linejoin:miter;stroke-miterlimit:3.25;stroke-dasharray:5.5296, 5.5296;stroke-dashoffset:0;stroke-opacity:1"
         id="path52" />
      <text
         xml:space="preserve"
         transform="translate(76.990803,62.040207)"
         style="font-variant:normal;font-size:20.16px;font-family:CairoFont-0;-inkscape-font-specification:CairoFont-0-1;writing-mode:lr-tb;fill:#000000;fill-opacity:1;fill-rule:nonzero;stroke:none"
         id="text56"><tspan
           x="0"
           y="0"
           id="tspan54">ϕ</tspan></text>
      <path
         d="m 53.957,100.539 c 0,0.977 -0.391,1.914 -1.082,2.606 -0.691,0.691 -1.629,1.078 -2.605,1.078 -0.977,0 -1.915,-0.387 -2.606,-1.078 -0.691,-0.692 -1.082,-1.629 -1.082,-2.606 0,-0.98 0.391,-1.918 1.082,-2.609 0.691,-0.692 1.629,-1.078 2.606,-1.078 0.976,0 1.914,0.386 2.605,1.078 0.691,0.691 1.082,1.629 1.082,2.609 z"
         style="fill:#000000;fill-opacity:1;fill-rule:evenodd;stroke:none"
         id="path58" />
      <path
         d="m 120.98,100.539 c 0,0.977 -0.386,1.914 -1.078,2.606 -0.691,0.691 -1.629,1.078 -2.609,1.078 -0.977,0 -1.914,-0.387 -2.605,-1.078 -0.692,-0.692 -1.079,-1.629 -1.079,-2.606 0,-0.98 0.387,-1.918 1.079,-2.609 0.691,-0.692 1.628,-1.078 2.605,-1.078 0.98,0 1.918,0.386 2.609,1.078 0.692,0.691 1.078,1.629 1.078,2.609 z"
         style="fill:#000000;fill-opacity:1;fill-rule:evenodd;stroke:none"
         id="path60" />
    </g>
    <g
       id="g62">
      <g
         id="g64"
         clip-path="url(#clipPath68)">
        <text
           xml:space="preserve"
           transform="translate(79.055256,184.68097)"
           style="font-variant:normal;font-size:16.8px;font-family:CairoFont-1;-inkscape-font-specification:CairoFont-1-0;writing-mode:lr-tb;fill:#000000;fill-opacity:1;fill-rule:nonzero;stroke:none"
           id="text72"><tspan
             x="0"
             y="0"
             id="tspan70">1</tspan></text>
      </g>
    </g>
    <g
       id="g74">
      <path
         d="m 184.32,58.648 83.782,8.379"
         style="fill:none;stroke:#000000;stroke-width:0.9216;stroke-linecap:butt;stroke-linejoin:miter;stroke-miterlimit:3.25;stroke-dasharray:5.5296, 5.5296;stroke-dashoffset:0;stroke-opacity:1"
         id="path76" />
    </g>
    <g
       id="g78">
      <g
         id="g80"
         clip-path="url(#clipPath84)">
        <text
           xml:space="preserve"
           transform="translate(220.50365,51.202624)"
           style="font-variant:normal;font-size:20.16px;font-family:CairoFont-0;-inkscape-font-specification:CairoFont-0-1;writing-mode:lr-tb;fill:#000000;fill-opacity:1;fill-rule:nonzero;stroke:none"
           id="text88"><tspan
             x="0"
             y="0"
             id="tspan86">ϕ</tspan></text>
      </g>
    </g>
    <g
       id="g90">
      <path
         d="m 184.32,142.43 83.782,-8.379"
         style="fill:none;stroke:#000000;stroke-width:0.9216;stroke-linecap:butt;stroke-linejoin:miter;stroke-miterlimit:3.25;stroke-dasharray:5.5296, 5.5296;stroke-dashoffset:0;stroke-opacity:1"
         id="path92" />
    </g>
    <g
       id="g94">
      <g
         id="g96"
         clip-path="url(#clipPath100)">
        <text
           xml:space="preserve"
           transform="translate(220.50365,163.96358)"
           style="font-variant:normal;font-size:20.16px;font-family:CairoFont-0;-inkscape-font-specification:CairoFont-0-1;writing-mode:lr-tb;fill:#000000;fill-opacity:1;fill-rule:nonzero;stroke:none"
           id="text104"><tspan
             x="0"
             y="0"
             id="tspan102">ϕ</tspan></text>
      </g>
    </g>
    <g
       id="g106">
      <path
         d="m 351.883,58.648 -83.781,8.379"
         style="fill:none;stroke:#000000;stroke-width:0.9216;stroke-linecap:butt;stroke-linejoin:miter;stroke-miterlimit:3.25;stroke-dasharray:5.5296, 5.5296;stroke-dashoffset:0;stroke-opacity:1"
         id="path108" />
      <text
         xml:space="preserve"
         transform="translate(302.11795,51.202624)"
         style="font-variant:normal;font-size:20.16px;font-family:CairoFont-0;-inkscape-font-specification:CairoFont-0-1;writing-mode:lr-tb;fill:#000000;fill-opacity:1;fill-rule:nonzero;stroke:none"
         id="text112"><tspan
           x="0"
           y="0"
           id="tspan110">ϕ</tspan></text>
      <path
         d="m 351.883,142.43 -83.781,-8.379"
         style="fill:none;stroke:#000000;stroke-width:0.9216;stroke-linecap:butt;stroke-linejoin:miter;stroke-miterlimit:3.25;stroke-dasharray:5.5296, 5.5296;stroke-dashoffset:0;stroke-opacity:1"
         id="path114" />
      <text
         xml:space="preserve"
         transform="translate(302.11795,163.96358)"
         style="font-variant:normal;font-size:20.16px;font-family:CairoFont-0;-inkscape-font-specification:CairoFont-0-1;writing-mode:lr-tb;fill:#000000;fill-opacity:1;fill-rule:nonzero;stroke:none"
         id="text118"><tspan
           x="0"
           y="0"
           id="tspan116">ϕ</tspan></text>
      <path
         d="m 268.102,67.027 c -10.223,2.297 -18.836,9.141 -23.395,18.575 -4.555,9.437 -4.555,20.437 0,29.871 4.559,9.437 13.172,16.277 23.395,18.578"
         style="fill:none;stroke:#000000;stroke-width:0.9216;stroke-linecap:butt;stroke-linejoin:miter;stroke-miterlimit:3.25;stroke-dasharray:5.5296, 5.5296;stroke-dashoffset:0;stroke-opacity:1"
         id="path120" />
      <text
         xml:space="preserve"
         transform="translate(221.88509,107.5831)"
         style="font-variant:normal;font-size:20.16px;font-family:CairoFont-0;-inkscape-font-specification:CairoFont-0-1;writing-mode:lr-tb;fill:#000000;fill-opacity:1;fill-rule:nonzero;stroke:none"
         id="text124"><tspan
           x="0"
           y="0"
           id="tspan122">ϕ</tspan></text>
      <path
         d="m 268.102,134.051 c 10.222,-2.301 18.836,-9.141 23.394,-18.578 4.555,-9.434 4.555,-20.434 0,-29.871 -4.558,-9.434 -13.172,-16.278 -23.394,-18.575"
         style="fill:none;stroke:#000000;stroke-width:0.9216;stroke-linecap:butt;stroke-linejoin:miter;stroke-miterlimit:3.25;stroke-dasharray:5.5296, 5.5296;stroke-dashoffset:0;stroke-opacity:1"
         id="path126" />
      <text
         xml:space="preserve"
         transform="translate(300.73651,107.5831)"
         style="font-variant:normal;font-size:20.16px;font-family:CairoFont-0;-inkscape-font-specification:CairoFont-0-1;writing-mode:lr-tb;fill:#000000;fill-opacity:1;fill-rule:nonzero;stroke:none"
         id="text130"><tspan
           x="0"
           y="0"
           id="tspan128">ϕ</tspan></text>
      <path
         d="m 271.789,67.027 c 0,0.977 -0.391,1.914 -1.082,2.606 -0.691,0.691 -1.629,1.078 -2.605,1.078 -0.977,0 -1.914,-0.387 -2.606,-1.078 -0.691,-0.692 -1.082,-1.629 -1.082,-2.606 0,-0.98 0.391,-1.918 1.082,-2.609 0.692,-0.691 1.629,-1.078 2.606,-1.078 0.976,0 1.914,0.387 2.605,1.078 0.691,0.691 1.082,1.629 1.082,2.609 z"
         style="fill:#000000;fill-opacity:1;fill-rule:evenodd;stroke:none"
         id="path132" />
      <path
         d="m 271.789,134.051 c 0,0.976 -0.391,1.914 -1.082,2.605 -0.691,0.692 -1.629,1.082 -2.605,1.082 -0.977,0 -1.914,-0.39 -2.606,-1.082 -0.691,-0.691 -1.082,-1.629 -1.082,-2.605 0,-0.977 0.391,-1.914 1.082,-2.606 0.692,-0.691 1.629,-1.082 2.606,-1.082 0.976,0 1.914,0.391 2.605,1.082 0.691,0.692 1.082,1.629 1.082,2.606 z"
         style="fill:#000000;fill-opacity:1;fill-rule:evenodd;stroke:none"
         id="path134" />
    </g>
    <g
       id="g136">
      <g
         id="g138"
         clip-path="url(#clipPath142)">
        <text
           xml:space="preserve"
           transform="translate(263.37526,184.68097)"
           style="font-variant:normal;font-size:16.8px;font-family:CairoFont-1;-inkscape-font-specification:CairoFont-1-0;writing-mode:lr-tb;fill:#000000;fill-opacity:1;fill-rule:nonzero;stroke:none"
           id="text146"><tspan
             x="0"
             y="0"
             id="tspan144">2</tspan></text>
      </g>
    </g>
  </g>
</svg>
