<?xml version="1.0" encoding="UTF-8" standalone="no"?>
<!-- Created with Inkscape (http://www.inkscape.org/) -->

<svg
   version="1.1"
   id="svg2"
   width="492"
   height="246.66667"
   viewBox="0 0 492 246.66667"
   sodipodi:docname="0q8rtof4phvi8.pdf"
   xmlns:inkscape="http://www.inkscape.org/namespaces/inkscape"
   xmlns:sodipodi="http://sodipodi.sourceforge.net/DTD/sodipodi-0.dtd"
   xmlns="http://www.w3.org/2000/svg"
   xmlns:svg="http://www.w3.org/2000/svg">
  <defs
     id="defs6" />
  <sodipodi:namedview
     id="namedview4"
     pagecolor="#ffffff"
     bordercolor="#999999"
     borderopacity="1"
     inkscape:showpageshadow="0"
     inkscape:pageopacity="0"
     inkscape:pagecheckerboard="0"
     inkscape:deskcolor="#d1d1d1" />
  <g
     id="g8"
     inkscape:groupmode="layer"
     inkscape:label="0q8rtof4phvi8"
     transform="matrix(1.3333333,0,0,1.3333333,0,9.5e-6)">
    <g
       id="g10">
      <path
         d="m 0,69.816 33.512,27.93"
         style="fill:none;stroke:#000000;stroke-width:0.6144;stroke-linecap:butt;stroke-linejoin:miter;stroke-miterlimit:3.25;stroke-dasharray:3.6864, 3.6864;stroke-dashoffset:0;stroke-opacity:1"
         id="path12" />
      <text
         xml:space="preserve"
         transform="translate(6.142259,99.278735)"
         style="font-variant:normal;font-size:13.68px;font-family:CairoFont-0;-inkscape-font-specification:CairoFont-0-1;writing-mode:lr-tb;fill:#000000;fill-opacity:1;fill-rule:nonzero;stroke:none"
         id="text16"><tspan
           x="0"
           y="0"
           id="tspan14">ϕ</tspan></text>
      <path
         d="M 0,125.672 33.512,97.746"
         style="fill:none;stroke:#000000;stroke-width:0.6144;stroke-linecap:butt;stroke-linejoin:miter;stroke-miterlimit:3.25;stroke-dasharray:3.6864, 3.6864;stroke-dashoffset:0;stroke-opacity:1"
         id="path18" />
      <text
         xml:space="preserve"
         transform="translate(18.026718,127.20601)"
         style="font-variant:normal;font-size:13.68px;font-family:CairoFont-0;-inkscape-font-specification:CairoFont-0-1;writing-mode:lr-tb;fill:#000000;fill-opacity:1;fill-rule:nonzero;stroke:none"
         id="text22"><tspan
           x="0"
           y="0"
           id="tspan20">ϕ</tspan></text>
      <path
         d="M 111.711,69.816 78.195,97.746"
         style="fill:none;stroke:#000000;stroke-width:0.6144;stroke-linecap:butt;stroke-linejoin:miter;stroke-miterlimit:3.25;stroke-dasharray:3.6864, 3.6864;stroke-dashoffset:0;stroke-opacity:1"
         id="path24" />
      <text
         xml:space="preserve"
         transform="translate(84.338623,77.335683)"
         style="font-variant:normal;font-size:13.68px;font-family:CairoFont-0;-inkscape-font-specification:CairoFont-0-1;writing-mode:lr-tb;fill:#000000;fill-opacity:1;fill-rule:nonzero;stroke:none"
         id="text28"><tspan
           x="0"
           y="0"
           id="tspan26">ϕ</tspan></text>
      <path
         d="M 111.711,125.672 78.195,97.746"
         style="fill:none;stroke:#000000;stroke-width:0.6144;stroke-linecap:butt;stroke-linejoin:miter;stroke-miterlimit:3.25;stroke-dasharray:3.6864, 3.6864;stroke-dashoffset:0;stroke-opacity:1"
         id="path30" />
      <text
         xml:space="preserve"
         transform="translate(96.223081,105.26296)"
         style="font-variant:normal;font-size:13.68px;font-family:CairoFont-0;-inkscape-font-specification:CairoFont-0-1;writing-mode:lr-tb;fill:#000000;fill-opacity:1;fill-rule:nonzero;stroke:none"
         id="text34"><tspan
           x="0"
           y="0"
           id="tspan32">ϕ</tspan></text>
      <path
         d="m 33.512,97.746 c 1.535,6.816 6.093,12.559 12.386,15.594 6.29,3.039 13.622,3.039 19.914,0 6.29,-3.035 10.852,-8.778 12.383,-15.594"
         style="fill:none;stroke:#000000;stroke-width:0.6144;stroke-linecap:butt;stroke-linejoin:miter;stroke-miterlimit:3.25;stroke-dasharray:3.6864, 3.6864;stroke-dashoffset:0;stroke-opacity:1"
         id="path36" />
      <text
         xml:space="preserve"
         transform="translate(51.18267,132.79879)"
         style="font-variant:normal;font-size:13.68px;font-family:CairoFont-0;-inkscape-font-specification:CairoFont-0-1;writing-mode:lr-tb;fill:#000000;fill-opacity:1;fill-rule:nonzero;stroke:none"
         id="text40"><tspan
           x="0"
           y="0"
           id="tspan38">ϕ</tspan></text>
      <path
         d="M 78.195,97.746 C 76.664,90.93 72.102,85.188 65.812,82.148 c -6.292,-3.035 -13.624,-3.035 -19.914,0 -6.293,3.04 -10.851,8.782 -12.386,15.598"
         style="fill:none;stroke:#000000;stroke-width:0.6144;stroke-linecap:butt;stroke-linejoin:miter;stroke-miterlimit:3.25;stroke-dasharray:3.6864, 3.6864;stroke-dashoffset:0;stroke-opacity:1"
         id="path42" />
      <text
         xml:space="preserve"
         transform="translate(51.18267,71.742898)"
         style="font-variant:normal;font-size:13.68px;font-family:CairoFont-0;-inkscape-font-specification:CairoFont-0-1;writing-mode:lr-tb;fill:#000000;fill-opacity:1;fill-rule:nonzero;stroke:none"
         id="text46"><tspan
           x="0"
           y="0"
           id="tspan44">ϕ</tspan></text>
      <path
         d="m 35.969,97.746 c 0,0.652 -0.258,1.277 -0.719,1.738 -0.461,0.461 -1.086,0.719 -1.738,0.719 -0.653,0 -1.278,-0.258 -1.739,-0.719 -0.461,-0.461 -0.718,-1.086 -0.718,-1.738 0,-0.652 0.257,-1.277 0.718,-1.738 0.461,-0.461 1.086,-0.719 1.739,-0.719 0.652,0 1.277,0.258 1.738,0.719 0.461,0.461 0.719,1.086 0.719,1.738 z"
         style="fill:#000000;fill-opacity:1;fill-rule:evenodd;stroke:none"
         id="path48" />
      <path
         d="m 80.652,97.746 c 0,0.652 -0.257,1.277 -0.718,1.738 -0.461,0.461 -1.086,0.719 -1.739,0.719 -0.652,0 -1.277,-0.258 -1.738,-0.719 -0.461,-0.461 -0.719,-1.086 -0.719,-1.738 0,-0.652 0.258,-1.277 0.719,-1.738 0.461,-0.461 1.086,-0.719 1.738,-0.719 0.653,0 1.278,0.258 1.739,0.719 0.461,0.461 0.718,1.086 0.718,1.738 z"
         style="fill:#000000;fill-opacity:1;fill-rule:evenodd;stroke:none"
         id="path50" />
      <path
         d="m 122.879,69.816 55.855,5.586"
         style="fill:none;stroke:#000000;stroke-width:0.6144;stroke-linecap:butt;stroke-linejoin:miter;stroke-miterlimit:3.25;stroke-dasharray:3.6864, 3.6864;stroke-dashoffset:0;stroke-opacity:1"
         id="path52" />
      <text
         xml:space="preserve"
         transform="translate(146.8579,64.517843)"
         style="font-variant:normal;font-size:13.68px;font-family:CairoFont-0;-inkscape-font-specification:CairoFont-0-1;writing-mode:lr-tb;fill:#000000;fill-opacity:1;fill-rule:nonzero;stroke:none"
         id="text56"><tspan
           x="0"
           y="0"
           id="tspan54">ϕ</tspan></text>
      <path
         d="m 122.879,125.672 55.855,-5.586"
         style="fill:none;stroke:#000000;stroke-width:0.6144;stroke-linecap:butt;stroke-linejoin:miter;stroke-miterlimit:3.25;stroke-dasharray:3.6864, 3.6864;stroke-dashoffset:0;stroke-opacity:1"
         id="path58" />
      <text
         xml:space="preserve"
         transform="translate(146.8579,140.02385)"
         style="font-variant:normal;font-size:13.68px;font-family:CairoFont-0;-inkscape-font-specification:CairoFont-0-1;writing-mode:lr-tb;fill:#000000;fill-opacity:1;fill-rule:nonzero;stroke:none"
         id="text62"><tspan
           x="0"
           y="0"
           id="tspan60">ϕ</tspan></text>
      <path
         d="m 234.59,69.816 -55.856,5.586"
         style="fill:none;stroke:#000000;stroke-width:0.6144;stroke-linecap:butt;stroke-linejoin:miter;stroke-miterlimit:3.25;stroke-dasharray:3.6864, 3.6864;stroke-dashoffset:0;stroke-opacity:1"
         id="path64" />
      <text
         xml:space="preserve"
         transform="translate(201.26744,64.517843)"
         style="font-variant:normal;font-size:13.68px;font-family:CairoFont-0;-inkscape-font-specification:CairoFont-0-1;writing-mode:lr-tb;fill:#000000;fill-opacity:1;fill-rule:nonzero;stroke:none"
         id="text68"><tspan
           x="0"
           y="0"
           id="tspan66">ϕ</tspan></text>
      <path
         d="m 234.59,125.672 -55.856,-5.586"
         style="fill:none;stroke:#000000;stroke-width:0.6144;stroke-linecap:butt;stroke-linejoin:miter;stroke-miterlimit:3.25;stroke-dasharray:3.6864, 3.6864;stroke-dashoffset:0;stroke-opacity:1"
         id="path70" />
      <text
         xml:space="preserve"
         transform="translate(201.26744,140.02385)"
         style="font-variant:normal;font-size:13.68px;font-family:CairoFont-0;-inkscape-font-specification:CairoFont-0-1;writing-mode:lr-tb;fill:#000000;fill-opacity:1;fill-rule:nonzero;stroke:none"
         id="text74"><tspan
           x="0"
           y="0"
           id="tspan72">ϕ</tspan></text>
      <path
         d="m 178.734,75.402 c -6.816,1.536 -12.558,6.094 -15.593,12.387 -3.039,6.289 -3.039,13.621 0,19.914 3.035,6.289 8.777,10.852 15.593,12.383"
         style="fill:none;stroke:#000000;stroke-width:0.6144;stroke-linecap:butt;stroke-linejoin:miter;stroke-miterlimit:3.25;stroke-dasharray:3.6864, 3.6864;stroke-dashoffset:0;stroke-opacity:1"
         id="path76" />
      <text
         xml:space="preserve"
         transform="translate(147.63433,102.27084)"
         style="font-variant:normal;font-size:13.68px;font-family:CairoFont-0;-inkscape-font-specification:CairoFont-0-1;writing-mode:lr-tb;fill:#000000;fill-opacity:1;fill-rule:nonzero;stroke:none"
         id="text80"><tspan
           x="0"
           y="0"
           id="tspan78">ϕ</tspan></text>
      <path
         d="m 178.734,120.086 c 6.817,-1.531 12.559,-6.094 15.594,-12.383 3.039,-6.293 3.039,-13.625 0,-19.914 -3.035,-6.293 -8.777,-10.851 -15.594,-12.387"
         style="fill:none;stroke:#000000;stroke-width:0.6144;stroke-linecap:butt;stroke-linejoin:miter;stroke-miterlimit:3.25;stroke-dasharray:3.6864, 3.6864;stroke-dashoffset:0;stroke-opacity:1"
         id="path82" />
      <text
         xml:space="preserve"
         transform="translate(200.49101,102.27084)"
         style="font-variant:normal;font-size:13.68px;font-family:CairoFont-0;-inkscape-font-specification:CairoFont-0-1;writing-mode:lr-tb;fill:#000000;fill-opacity:1;fill-rule:nonzero;stroke:none"
         id="text86"><tspan
           x="0"
           y="0"
           id="tspan84">ϕ</tspan></text>
      <path
         d="m 181.191,75.402 c 0,0.653 -0.257,1.278 -0.718,1.739 -0.461,0.461 -1.086,0.718 -1.739,0.718 -0.652,0 -1.277,-0.257 -1.738,-0.718 -0.461,-0.461 -0.719,-1.086 -0.719,-1.739 0,-0.652 0.258,-1.277 0.719,-1.738 0.461,-0.461 1.086,-0.719 1.738,-0.719 0.653,0 1.278,0.258 1.739,0.719 0.461,0.461 0.718,1.086 0.718,1.738 z"
         style="fill:#000000;fill-opacity:1;fill-rule:evenodd;stroke:none"
         id="path88" />
      <path
         d="m 181.191,120.086 c 0,0.652 -0.257,1.277 -0.718,1.738 -0.461,0.461 -1.086,0.719 -1.739,0.719 -0.652,0 -1.277,-0.258 -1.738,-0.719 -0.461,-0.461 -0.719,-1.086 -0.719,-1.738 0,-0.652 0.258,-1.277 0.719,-1.738 0.461,-0.461 1.086,-0.719 1.738,-0.719 0.653,0 1.278,0.258 1.739,0.719 0.461,0.461 0.718,1.086 0.718,1.738 z"
         style="fill:#000000;fill-opacity:1;fill-rule:evenodd;stroke:none"
         id="path90" />
      <path
         d="m 245.762,69.816 53.058,2.793"
         style="fill:none;stroke:#000000;stroke-width:0.6144;stroke-linecap:butt;stroke-linejoin:miter;stroke-miterlimit:3.25;stroke-dasharray:3.6864, 3.6864;stroke-dashoffset:0;stroke-opacity:1"
         id="path92" />
      <text
         xml:space="preserve"
         transform="translate(268.00067,63.09548)"
         style="font-variant:normal;font-size:13.68px;font-family:CairoFont-0;-inkscape-font-specification:CairoFont-0-1;writing-mode:lr-tb;fill:#000000;fill-opacity:1;fill-rule:nonzero;stroke:none"
         id="text96"><tspan
           x="0"
           y="0"
           id="tspan94">ϕ</tspan></text>
      <path
         d="m 245.762,125.672 53.058,-2.793"
         style="fill:none;stroke:#000000;stroke-width:0.6144;stroke-linecap:butt;stroke-linejoin:miter;stroke-miterlimit:3.25;stroke-dasharray:3.6864, 3.6864;stroke-dashoffset:0;stroke-opacity:1"
         id="path98" />
      <text
         xml:space="preserve"
         transform="translate(268.00067,141.44621)"
         style="font-variant:normal;font-size:13.68px;font-family:CairoFont-0;-inkscape-font-specification:CairoFont-0-1;writing-mode:lr-tb;fill:#000000;fill-opacity:1;fill-rule:nonzero;stroke:none"
         id="text102"><tspan
           x="0"
           y="0"
           id="tspan100">ϕ</tspan></text>
      <path
         d="M 357.469,69.816 298.82,122.879"
         style="fill:none;stroke:#000000;stroke-width:0.6144;stroke-linecap:butt;stroke-linejoin:miter;stroke-miterlimit:3.25;stroke-dasharray:3.6864, 3.6864;stroke-dashoffset:0;stroke-opacity:1"
         id="path104" />
      <text
         xml:space="preserve"
         transform="translate(332.51929,75.656841)"
         style="font-variant:normal;font-size:13.68px;font-family:CairoFont-0;-inkscape-font-specification:CairoFont-0-1;writing-mode:lr-tb;fill:#000000;fill-opacity:1;fill-rule:nonzero;stroke:none"
         id="text108"><tspan
           x="0"
           y="0"
           id="tspan106">ϕ</tspan></text>
      <path
         d="M 357.469,125.672 298.82,72.609"
         style="fill:none;stroke:#000000;stroke-width:0.6144;stroke-linecap:butt;stroke-linejoin:miter;stroke-miterlimit:3.25;stroke-dasharray:3.6864, 3.6864;stroke-dashoffset:0;stroke-opacity:1"
         id="path110" />
      <text
         xml:space="preserve"
         transform="translate(344.59743,106.64949)"
         style="font-variant:normal;font-size:13.68px;font-family:CairoFont-0;-inkscape-font-specification:CairoFont-0-1;writing-mode:lr-tb;fill:#000000;fill-opacity:1;fill-rule:nonzero;stroke:none"
         id="text114"><tspan
           x="0"
           y="0"
           id="tspan112">ϕ</tspan></text>
      <path
         d="m 298.82,72.609 c -7.664,1.727 -14.125,6.856 -17.543,13.934 -3.418,7.078 -3.418,15.328 0,22.406 3.418,7.074 9.879,12.207 17.543,13.93"
         style="fill:none;stroke:#000000;stroke-width:0.6144;stroke-linecap:butt;stroke-linejoin:miter;stroke-miterlimit:3.25;stroke-dasharray:3.6864, 3.6864;stroke-dashoffset:0;stroke-opacity:1"
         id="path116" />
      <text
         xml:space="preserve"
         transform="translate(265.48742,102.27084)"
         style="font-variant:normal;font-size:13.68px;font-family:CairoFont-0;-inkscape-font-specification:CairoFont-0-1;writing-mode:lr-tb;fill:#000000;fill-opacity:1;fill-rule:nonzero;stroke:none"
         id="text120"><tspan
           x="0"
           y="0"
           id="tspan118">ϕ</tspan></text>
      <path
         d="m 298.82,122.879 c 7.106,-6.422 11.16,-15.555 11.16,-25.133 0,-9.578 -4.054,-18.711 -11.16,-25.137"
         style="fill:none;stroke:#000000;stroke-width:0.6144;stroke-linecap:butt;stroke-linejoin:miter;stroke-miterlimit:3.25;stroke-dasharray:3.6864, 3.6864;stroke-dashoffset:0;stroke-opacity:1"
         id="path122" />
      <text
         xml:space="preserve"
         transform="translate(296.7548,102.27084)"
         style="font-variant:normal;font-size:13.68px;font-family:CairoFont-0;-inkscape-font-specification:CairoFont-0-1;writing-mode:lr-tb;fill:#000000;fill-opacity:1;fill-rule:nonzero;stroke:none"
         id="text126"><tspan
           x="0"
           y="0"
           id="tspan124">ϕ</tspan></text>
      <path
         d="m 301.281,72.609 c 0,0.653 -0.261,1.278 -0.722,1.739 -0.461,0.461 -1.086,0.722 -1.739,0.722 -0.648,0 -1.273,-0.261 -1.734,-0.722 -0.461,-0.461 -0.723,-1.086 -0.723,-1.739 0,-0.648 0.262,-1.273 0.723,-1.734 0.461,-0.461 1.086,-0.723 1.734,-0.723 0.653,0 1.278,0.262 1.739,0.723 0.461,0.461 0.722,1.086 0.722,1.734 z"
         style="fill:#000000;fill-opacity:1;fill-rule:evenodd;stroke:none"
         id="path128" />
      <path
         d="m 301.281,122.879 c 0,0.652 -0.261,1.277 -0.722,1.738 -0.461,0.461 -1.086,0.719 -1.739,0.719 -0.648,0 -1.273,-0.258 -1.734,-0.719 -0.461,-0.461 -0.723,-1.086 -0.723,-1.738 0,-0.652 0.262,-1.277 0.723,-1.738 0.461,-0.461 1.086,-0.719 1.734,-0.719 0.653,0 1.278,0.258 1.739,0.719 0.461,0.461 0.722,1.086 0.722,1.738 z"
         style="fill:#000000;fill-opacity:1;fill-rule:evenodd;stroke:none"
         id="path130" />
    </g>
  </g>
</svg>
