<?xml version="1.0" encoding="UTF-8" standalone="no"?>
<!-- Created with Inkscape (http://www.inkscape.org/) -->

<svg
   version="1.1"
   id="svg1"
   width="492"
   height="246.66667"
   viewBox="0 0 492 246.66667"
   sodipodi:docname="0f0jiq05y6868.pdf"
   xmlns:inkscape="http://www.inkscape.org/namespaces/inkscape"
   xmlns:sodipodi="http://sodipodi.sourceforge.net/DTD/sodipodi-0.dtd"
   xmlns="http://www.w3.org/2000/svg"
   xmlns:svg="http://www.w3.org/2000/svg">
  <defs
     id="defs1">
    <clipPath
       clipPathUnits="userSpaceOnUse"
       id="clipPath15">
      <path
         d="m 80,172 h 6 v 12.32 h -6 z"
         transform="translate(-79.055259,-184.68097)"
         id="path15" />
    </clipPath>
    <clipPath
       clipPathUnits="userSpaceOnUse"
       id="clipPath25">
      <path
         d="m 263,172 h 10 v 12.32 h -10 z"
         transform="translate(-263.37526,-184.68097)"
         id="path25" />
    </clipPath>
  </defs>
  <sodipodi:namedview
     id="namedview1"
     pagecolor="#ffffff"
     bordercolor="#999999"
     borderopacity="1"
     inkscape:showpageshadow="0"
     inkscape:pageopacity="0"
     inkscape:pagecheckerboard="0"
     inkscape:deskcolor="#d1d1d1">
    <inkscape:page
       x="0"
       y="0"
       id="page1"
       width="492"
       height="246.66667"
       margin="0"
       bleed="0" />
  </sodipodi:namedview>
  <g
     id="g1"
     inkscape:groupmode="layer"
     inkscape:label="">
    <path
       id="path1"
       d="M 0,100.539 H 50.27"
       style="fill:none;stroke:#000000;stroke-width:0.9216;stroke-linecap:square;stroke-linejoin:miter;stroke-miterlimit:3.25;stroke-dasharray:none;stroke-opacity:1"
       transform="scale(1.3333333)" />
    <path
       id="path2"
       d="m 30.16,100.539 -10.051,3.352 v -6.703 z"
       style="fill:#000000;fill-opacity:1;fill-rule:evenodd;stroke:none"
       transform="scale(1.3333333)" />
    <path
       id="path3"
       d="M 2.8820558,7.688125e-4 H 0.42111831 L 7.4523683,-7.7101687 3.9484621,-15.057825 h 2.5664062 l 2.625,5.7773438 5.0390627,-5.7773438 h 2.425781 L 9.9953371,-7.7101687 13.651587,7.688125e-4 H 11.108618 L 8.3547121,-6.1750124 Z m 0,0"
       style="fill:#000000;fill-opacity:1;fill-rule:nonzero;stroke:none"
       aria-label="X"
       transform="matrix(1.3333333,0,0,1.3333333,22.434603,171.21382)" />
    <path
       id="path4"
       d="M 167.562,100.539 H 117.293"
       style="fill:none;stroke:#000000;stroke-width:0.9216;stroke-linecap:square;stroke-linejoin:miter;stroke-miterlimit:3.25;stroke-dasharray:none;stroke-opacity:1"
       transform="scale(1.3333333)" />
    <path
       id="path5"
       d="m 147.457,100.539 -10.055,-3.351 v 6.703 z"
       style="fill:#000000;fill-opacity:1;fill-rule:evenodd;stroke:none"
       transform="scale(1.3333333)" />
    <path
       id="path6"
       d="M 2.8834092,1.6625e-5 H 0.42247175 L 7.4537217,-7.7109209 3.9498155,-15.058577 h 2.5664062 l 2.6250001,5.7773436 5.0390622,-5.7773436 h 2.425781 L 9.9966905,-7.7109209 13.652941,1.6625e-5 H 11.109972 L 8.3560655,-6.1757646 Z m 0,0"
       style="fill:#000000;fill-opacity:1;fill-rule:nonzero;stroke:none"
       aria-label="X"
       transform="matrix(1.3333333,0,0,1.3333333,178.82733,117.17967)" />
    <path
       id="path7"
       d="m 50.27,100.539 c 2.3,10.223 9.14,18.836 18.578,23.391 9.433,4.558 20.433,4.558 29.871,0 9.433,-4.555 16.277,-13.168 18.574,-23.391"
       style="fill:none;stroke:#000000;stroke-width:0.9216;stroke-linecap:square;stroke-linejoin:miter;stroke-miterlimit:3.25;stroke-dasharray:none;stroke-opacity:1"
       transform="scale(1.3333333)" />
    <path
       id="path8"
       d="m 88.809,127.348 -10.055,3.351 v -6.703 z"
       style="fill:#000000;fill-opacity:1;fill-rule:evenodd;stroke:none"
       transform="scale(1.3333333)" />
    <path
       id="path9"
       d="M 2.8841979,1.57125e-4 H 0.42326037 L 7.4545104,-7.7107804 3.9506041,-15.058437 h 2.5664063 l 2.625,5.7773441 5.0390626,-5.7773441 h 2.425781 L 9.9974791,-7.7107804 13.653729,1.57125e-4 H 11.11076 L 8.3568541,-6.1756241 Z m 0,0"
       style="fill:#000000;fill-opacity:1;fill-rule:nonzero;stroke:none"
       aria-label="X"
       transform="matrix(1.3333333,0,0,1.3333333,100.63097,206.96073)" />
    <path
       id="path10"
       d="M 117.293,100.539 C 114.996,90.316 108.152,81.703 98.719,77.145 89.281,72.59 78.281,72.59 68.848,77.145 59.41,81.703 52.57,90.316 50.27,100.539"
       style="fill:none;stroke:#000000;stroke-width:0.9216;stroke-linecap:butt;stroke-linejoin:miter;stroke-miterlimit:3.25;stroke-dasharray:5.5296, 5.5296;stroke-dashoffset:0;stroke-opacity:1"
       transform="scale(1.3333333)" />
    <path
       id="path11"
       d="m 13.583416,-6.4230195 c 0,0.5390625 -0.08203,1.0664063 -0.199219,1.6054688 -0.140625,0.515625 -0.339844,1.03125 -0.585938,1.5117187 -0.257812,0.5039063 -0.574218,0.9609375 -0.9375,1.40625 -0.351562,0.421875 -0.773437,0.796875 -1.242187,1.11328125 -0.457031,0.33984375 -0.9609375,0.609375 -1.5117188,0.78515625 -0.5625,0.17578125 -1.1484375,0.28125 -1.7695312,0.3046875 L 6.5638845,3.9832305 H 4.759197 L 5.5443532,0.303543 C 4.946697,0.303543 4.384197,0.19807425 3.8802907,0.022293 3.3763845,-0.165207 2.9662282,-0.4230195 2.602947,-0.73942575 2.2396657,-1.0792695 1.9584157,-1.5011445 1.759197,-2.0050507 1.5599782,-2.4972382 1.4662282,-3.0597382 1.4662282,-3.727707 c 0,-0.6328125 0.070312,-1.2304687 0.2109375,-1.8164062 0.140625,-0.5742188 0.3398438,-1.1132813 0.609375,-1.640625 0.2578125,-0.4921875 0.5742188,-0.9609375 0.9609375,-1.3828125 0.375,-0.4101563 0.796875,-0.75 1.2773438,-1.0546875 0.4570312,-0.3046875 0.9726562,-0.5390628 1.5351562,-0.7031248 0.5625,-0.152344 1.1601563,-0.234375 1.78125,-0.257813 l 0.796875,-3.726562 h 1.7812498 l -0.7734373,3.726562 c 0.6328123,0.02344 1.2187503,0.117188 1.6992183,0.316407 0.503907,0.199218 0.902344,0.4804683 1.242188,0.8437495 0.316406,0.3632813 0.574219,0.796875 0.738281,1.3007813 0.175781,0.515625 0.257813,1.078125 0.257813,1.6992187 z m -1.898438,0.1757813 c 0,-0.9140625 -0.175781,-1.59375 -0.5625,-2.0507813 -0.363281,-0.4804687 -0.984375,-0.75 -1.816406,-0.8203125 l -1.640625,7.9570313 c 0.4570312,-0.023437 0.8789062,-0.1054688 1.2773437,-0.2578125 0.375,-0.140625 0.7148438,-0.3398438 1.0195313,-0.5976563 0.304687,-0.2460937 0.539062,-0.5390625 0.761719,-0.8671875 0.222656,-0.3398437 0.398437,-0.6796875 0.539062,-1.0546875 0.164063,-0.3867187 0.257813,-0.7617187 0.316406,-1.1601562 0.08203,-0.3867188 0.105469,-0.7851563 0.105469,-1.1484375 z M 7.5013845,-9.024582 c -0.6796875,0.058594 -1.2773438,0.2226563 -1.8046875,0.4804688 -0.5390625,0.28125 -0.9726563,0.6210937 -1.3359375,1.0429687 -0.3632813,0.4335938 -0.6210938,0.9375 -0.796875,1.5234375 -0.1875,0.5742188 -0.28125,1.21875 -0.28125,1.8984375 0,0.9140625 0.2226562,1.59375 0.6445312,2.0742188 0.4101563,0.46875 1.078125,0.7265625 1.9335938,0.7382812 z m 0,0"
       style="fill:#000000;fill-opacity:1;fill-rule:nonzero;stroke:none"
       aria-label="ϕ"
       transform="matrix(1.3333333,0,0,1.3333333,102.6544,82.720276)" />
    <path
       id="path12"
       d="m 53.957,100.539 c 0,0.977 -0.391,1.914 -1.082,2.606 -0.691,0.691 -1.629,1.078 -2.605,1.078 -0.977,0 -1.915,-0.387 -2.606,-1.078 -0.691,-0.692 -1.082,-1.629 -1.082,-2.606 0,-0.98 0.391,-1.918 1.082,-2.609 0.691,-0.692 1.629,-1.078 2.606,-1.078 0.976,0 1.914,0.386 2.605,1.078 0.691,0.691 1.082,1.629 1.082,2.609 z"
       style="fill:#000000;fill-opacity:1;fill-rule:evenodd;stroke:none"
       transform="scale(1.3333333)" />
    <path
       id="path13"
       d="m 120.98,100.539 c 0,0.977 -0.386,1.914 -1.078,2.606 -0.691,0.691 -1.629,1.078 -2.609,1.078 -0.977,0 -1.914,-0.387 -2.605,-1.078 -0.692,-0.692 -1.079,-1.629 -1.079,-2.606 0,-0.98 0.387,-1.918 1.079,-2.609 0.691,-0.692 1.628,-1.078 2.605,-1.078 0.98,0 1.918,0.386 2.609,1.078 0.692,0.691 1.078,1.629 1.078,2.609 z"
       style="fill:#000000;fill-opacity:1;fill-rule:evenodd;stroke:none"
       transform="scale(1.3333333)" />
    <path
       id="path14"
       d="m 1.616619,-8.4133879 v -1.1367187 c 1.0898438,-0.1054688 1.8398438,-0.2929688 2.2617188,-0.5273434 0.421875,-0.246094 0.75,-0.84375 0.9492187,-1.757813 H 6.022869 V 6.74625e-4 H 4.4174003 V -8.4133879 Z m 0,0"
       style="fill:#000000;fill-opacity:1;fill-rule:nonzero;stroke:none"
       aria-label="1"
       transform="matrix(1.3333333,0,0,1.3333333,105.40701,246.24129)"
       clip-path="url(#clipPath15)" />
    <path
       id="path16"
       d="m 184.32,100.539 h 83.782"
       style="fill:none;stroke:#000000;stroke-width:0.9216;stroke-linecap:square;stroke-linejoin:miter;stroke-miterlimit:3.25;stroke-dasharray:none;stroke-opacity:1"
       transform="scale(1.3333333)" />
    <path
       id="path17"
       d="m 231.238,100.539 -10.054,3.352 v -6.703 z"
       style="fill:#000000;fill-opacity:1;fill-rule:evenodd;stroke:none"
       transform="scale(1.3333333)" />
    <path
       id="path18"
       d="M 2.8818647,7.688125e-4 H 0.42092719 L 7.4521772,-7.7101687 3.9482709,-15.057825 h 2.5664063 l 2.625,5.7773438 5.0390628,-5.7773438 h 2.425781 L 9.9951459,-7.7101687 13.651396,7.688125e-4 H 11.108427 L 8.3545209,-6.1750124 Z m 0,0"
       style="fill:#000000;fill-opacity:1;fill-rule:nonzero;stroke:none"
       aria-label="X"
       transform="matrix(1.3333333,0,0,1.3333333,290.53642,171.21382)" />
    <path
       id="path19"
       d="M 351.883,100.539 H 268.102"
       style="fill:none;stroke:#000000;stroke-width:0.9216;stroke-linecap:square;stroke-linejoin:miter;stroke-miterlimit:3.25;stroke-dasharray:none;stroke-opacity:1"
       transform="scale(1.3333333)" />
    <path
       id="path20"
       d="m 315.02,100.539 -10.055,-3.351 v 6.703 z"
       style="fill:#000000;fill-opacity:1;fill-rule:evenodd;stroke:none"
       transform="scale(1.3333333)" />
    <path
       id="path21"
       d="M 2.8832488,1.6625e-5 H 0.42231131 L 7.4535613,-7.7109209 3.9496551,-15.058577 h 2.5664062 l 2.625,5.7773436 5.0390627,-5.7773436 h 2.425781 L 9.9965301,-7.7109209 13.65278,1.6625e-5 H 11.109811 L 8.3559051,-6.1757646 Z m 0,0"
       style="fill:#000000;fill-opacity:1;fill-rule:nonzero;stroke:none"
       aria-label="X"
       transform="matrix(1.3333333,0,0,1.3333333,402.24551,117.17967)" />
    <path
       id="path22"
       d="m 263.914,104.727 8.375,-8.379"
       style="fill:none;stroke:#000000;stroke-width:2.7648;stroke-linecap:square;stroke-linejoin:miter;stroke-miterlimit:3.25;stroke-dasharray:none;stroke-opacity:1"
       transform="scale(1.3333333)" />
    <path
       id="path23"
       d="m 263.914,96.348 8.375,8.379"
       style="fill:none;stroke:#000000;stroke-width:2.7648;stroke-linecap:square;stroke-linejoin:miter;stroke-miterlimit:3.25;stroke-dasharray:none;stroke-opacity:1"
       transform="scale(1.3333333)" />
    <path
       id="path24"
       d="M 0.52806431,6.74625e-4 C 0.57493931,-1.0188566 0.78587681,-1.9094816 1.1608768,-2.6712004 c 0.375,-0.75 1.0898438,-1.4414062 2.15625,-2.0507812 l 1.59375,-0.9375 c 0.7148438,-0.4101563 1.2070313,-0.7617188 1.5,-1.0546875 0.4570313,-0.4570313 0.6796875,-0.984375 0.6796875,-1.5820313 0,-0.6796875 -0.1992187,-1.2421875 -0.6328125,-1.6523437 -0.3984375,-0.4101559 -0.9609375,-0.6093749 -1.640625,-0.6093749 -1.0429687,0 -1.734375,0.386719 -2.1328125,1.1718749 -0.2226562,0.4101562 -0.3164062,0.984375 -0.3515625,1.7226562 H 0.82103306 c 0.0117188,-1.0429687 0.19921874,-1.875 0.57421874,-2.5429691 0.6445313,-1.136718 1.78125,-1.710937 3.421875,-1.710937 1.359375,0 2.3554688,0.351562 2.9882813,1.101562 0.6328125,0.738282 0.9375,1.5468754 0.9375,2.4492191 0,0.9492188 -0.3398438,1.7695313 -1.0078125,2.4492188 -0.3867188,0.3867187 -1.0898438,0.8671875 -2.0742188,1.4296875 l -1.1367187,0.6328125 c -0.5390625,0.3046875 -0.9726563,0.5742187 -1.2890625,0.84375 -0.5507813,0.4921875 -0.9023438,1.0195312 -1.0429688,1.6054687 H 8.6843143 V 6.74625e-4 Z m 0,0"
       style="fill:#000000;fill-opacity:1;fill-rule:nonzero;stroke:none"
       aria-label="2"
       transform="matrix(1.3333333,0,0,1.3333333,351.16701,246.24129)"
       clip-path="url(#clipPath25)" />
  </g>
</svg>
