<?xml version="1.0" encoding="UTF-8" standalone="no"?>
<!-- Created with Inkscape (http://www.inkscape.org/) -->

<svg
   version="1.1"
   id="svg1"
   width="492"
   height="246.66667"
   viewBox="0 0 492 246.66667"
   sodipodi:docname="1g0ppesv184of.pdf"
   xmlns:inkscape="http://www.inkscape.org/namespaces/inkscape"
   xmlns:sodipodi="http://sodipodi.sourceforge.net/DTD/sodipodi-0.dtd"
   xmlns="http://www.w3.org/2000/svg"
   xmlns:svg="http://www.w3.org/2000/svg">
  <defs
     id="defs1">
    <clipPath
       clipPathUnits="userSpaceOnUse"
       id="clipPath9">
      <path
         d="m 80,172 h 6 v 12.32 h -6 z"
         transform="translate(-79.055259,-184.68097)"
         id="path9" />
    </clipPath>
    <clipPath
       clipPathUnits="userSpaceOnUse"
       id="clipPath17">
      <path
         d="m 263,172 h 10 v 12.32 h -10 z"
         transform="translate(-263.37526,-184.68097)"
         id="path17" />
    </clipPath>
  </defs>
  <sodipodi:namedview
     id="namedview1"
     pagecolor="#ffffff"
     bordercolor="#999999"
     borderopacity="1"
     inkscape:showpageshadow="0"
     inkscape:pageopacity="0"
     inkscape:pagecheckerboard="0"
     inkscape:deskcolor="#d1d1d1">
    <inkscape:page
       x="0"
       y="0"
       id="page1"
       width="492"
       height="246.66667"
       margin="0"
       bleed="0" />
  </sodipodi:namedview>
  <g
     id="g1"
     inkscape:groupmode="layer"
     inkscape:label="">
    <path
       id="path1"
       d="M 0,100.539 H 83.781"
       style="fill:none;stroke:#000000;stroke-width:0.9216;stroke-linecap:butt;stroke-linejoin:miter;stroke-miterlimit:3.25;stroke-dasharray:5.5296, 5.5296;stroke-dashoffset:0;stroke-opacity:1"
       transform="scale(1.3333333)" />
    <path
       id="path2"
       d="m 13.582724,-6.4212877 c 0,0.5390625 -0.08203,1.0664062 -0.199219,1.6054687 -0.140625,0.515625 -0.339843,1.03125 -0.585937,1.5117188 -0.257813,0.5039062 -0.574219,0.9609375 -0.9375,1.40625 -0.351563,0.421875 -0.773438,0.796875 -1.242188,1.1132812 -0.457031,0.33984375 -0.9609371,0.609375 -1.5117183,0.78515625 -0.5625,0.17578125 -1.1484375,0.28125 -1.7695313,0.3046875 L 6.5631929,3.9849623 H 4.7585054 L 5.5436617,0.30527475 c -0.5976563,0 -1.1601563,-0.10546875 -1.6640625,-0.28125 -0.5039063,-0.1875 -0.9140625,-0.4453125 -1.2773438,-0.76171875 -0.3632812,-0.3398437 -0.6445312,-0.7617187 -0.84375,-1.265625 -0.1992187,-0.4921875 -0.2929687,-1.0546875 -0.2929687,-1.7226562 0,-0.6328125 0.070312,-1.2304688 0.2109375,-1.8164063 0.140625,-0.5742187 0.3398437,-1.1132812 0.609375,-1.640625 0.2578125,-0.4921875 0.5742187,-0.9609375 0.9609375,-1.3828125 0.375,-0.4101562 0.796875,-0.75 1.2773437,-1.0546875 0.4570313,-0.3046875 0.9726563,-0.5390625 1.5351563,-0.7031245 0.5625,-0.152344 1.1601562,-0.234375 1.78125,-0.257813 l 0.796875,-3.726562 h 1.7812503 l -0.7734378,3.726562 c 0.6328128,0.02344 1.2187498,0.117188 1.6992188,0.316406 0.503906,0.199219 0.902344,0.480469 1.242187,0.8437503 0.316407,0.3632812 0.574219,0.796875 0.738282,1.3007812 0.175781,0.515625 0.257812,1.078125 0.257812,1.6992188 z m -1.898437,0.1757812 c 0,-0.9140625 -0.175782,-1.59375 -0.5625,-2.0507812 -0.363282,-0.4804688 -0.984375,-0.75 -1.8164066,-0.8203125 l -1.640625,7.9570312 c 0.4570313,-0.023437 0.8789063,-0.1054687 1.2773438,-0.2578125 0.375,-0.140625 0.7148437,-0.3398437 1.0195312,-0.5976562 0.3046876,-0.2460938 0.5390626,-0.5390625 0.7617186,-0.8671875 0.222656,-0.3398438 0.398438,-0.6796875 0.539063,-1.0546875 0.164062,-0.3867188 0.257812,-0.7617188 0.316406,-1.1601563 0.08203,-0.3867187 0.105469,-0.7851562 0.105469,-1.1484375 z M 7.5006929,-9.0228502 c -0.6796875,0.058594 -1.2773437,0.2226562 -1.8046875,0.4804687 -0.5390625,0.28125 -0.9726562,0.6210938 -1.3359375,1.0429688 -0.3632812,0.4335937 -0.6210937,0.9375 -0.796875,1.5234375 -0.1875,0.5742187 -0.28125,1.21875 -0.28125,1.8984375 0,0.9140625 0.2226563,1.59375 0.6445313,2.0742187 0.4101562,0.46875 1.078125,0.7265625 1.9335937,0.7382813 z m 0,0"
       style="fill:#000000;fill-opacity:1;fill-rule:nonzero;stroke:none"
       aria-label="ϕ"
       transform="matrix(1.3333333,0,0,1.3333333,46.799857,168.42109)" />
    <path
       id="path3"
       d="M 167.562,100.539 H 83.781"
       style="fill:none;stroke:#000000;stroke-width:0.9216;stroke-linecap:butt;stroke-linejoin:miter;stroke-miterlimit:3.25;stroke-dasharray:5.5296, 5.5296;stroke-dashoffset:0;stroke-opacity:1"
       transform="scale(1.3333333)" />
    <path
       id="path4"
       d="m 13.581179,-6.4212877 c 0,0.5390625 -0.08203,1.0664062 -0.199219,1.6054687 -0.140625,0.515625 -0.339844,1.03125 -0.585938,1.5117188 -0.257812,0.5039062 -0.574218,0.9609375 -0.9375,1.40625 -0.351562,0.421875 -0.773437,0.796875 -1.242187,1.1132812 -0.457031,0.33984375 -0.9609376,0.609375 -1.5117189,0.78515625 -0.5625,0.17578125 -1.1484375,0.28125 -1.7695312,0.3046875 L 6.5616474,3.9849623 H 4.7569599 L 5.5421161,0.30527475 c -0.5976562,0 -1.1601562,-0.10546875 -1.6640625,-0.28125 -0.5039062,-0.1875 -0.9140625,-0.4453125 -1.2773437,-0.76171875 -0.3632813,-0.3398437 -0.6445313,-0.7617187 -0.84375,-1.265625 -0.1992188,-0.4921875 -0.2929688,-1.0546875 -0.2929688,-1.7226562 0,-0.6328125 0.070312,-1.2304688 0.2109375,-1.8164063 0.140625,-0.5742187 0.3398438,-1.1132812 0.609375,-1.640625 0.2578125,-0.4921875 0.5742188,-0.9609375 0.9609375,-1.3828125 0.375,-0.4101562 0.796875,-0.75 1.2773438,-1.0546875 0.4570312,-0.3046875 0.9726562,-0.5390625 1.5351562,-0.7031245 0.5625,-0.152344 1.1601563,-0.234375 1.78125,-0.257813 l 0.796875,-3.726562 h 1.7812499 l -0.7734374,3.726562 c 0.6328124,0.02344 1.2187504,0.117188 1.6992184,0.316406 0.503907,0.199219 0.902344,0.480469 1.242188,0.8437503 0.316406,0.3632812 0.574219,0.796875 0.738281,1.3007812 0.175781,0.515625 0.257813,1.078125 0.257813,1.6992188 z m -1.898438,0.1757812 c 0,-0.9140625 -0.175781,-1.59375 -0.5625,-2.0507812 -0.363281,-0.4804688 -0.984375,-0.75 -1.8164061,-0.8203125 l -1.640625,7.9570312 c 0.4570312,-0.023437 0.8789062,-0.1054687 1.2773437,-0.2578125 0.375,-0.140625 0.7148438,-0.3398437 1.0195313,-0.5976562 0.3046871,-0.2460938 0.5390621,-0.5390625 0.7617191,-0.8671875 0.222656,-0.3398438 0.398437,-0.6796875 0.539062,-1.0546875 0.164063,-0.3867188 0.257813,-0.7617188 0.316406,-1.1601563 0.08203,-0.3867187 0.105469,-0.7851562 0.105469,-1.1484375 z M 7.4991474,-9.0228502 c -0.6796875,0.058594 -1.2773438,0.2226562 -1.8046875,0.4804687 -0.5390625,0.28125 -0.9726563,0.6210938 -1.3359375,1.0429688 -0.3632813,0.4335937 -0.6210938,0.9375 -0.796875,1.5234375 -0.1875,0.5742187 -0.28125,1.21875 -0.28125,1.8984375 0,0.9140625 0.2226562,1.59375 0.6445312,2.0742187 0.4101563,0.46875 1.078125,0.7265625 1.9335938,0.7382813 z m 0,0"
       style="fill:#000000;fill-opacity:1;fill-rule:nonzero;stroke:none"
       aria-label="ϕ"
       transform="matrix(1.3333333,0,0,1.3333333,158.50895,168.42109)" />
    <path
       id="path5"
       d="m 106.82,77.5 c 0,6.109 -2.425,11.969 -6.746,16.289 -4.32,4.32 -10.183,6.75 -16.293,6.75 -6.109,0 -11.969,-2.43 -16.293,-6.75 -4.32,-4.32 -6.746,-10.18 -6.746,-16.289 0,-6.113 2.426,-11.973 6.746,-16.293 4.324,-4.32 10.184,-6.75 16.293,-6.75 6.11,0 11.973,2.43 16.293,6.75 4.321,4.32 6.746,10.18 6.746,16.293 z"
       style="fill:none;stroke:#000000;stroke-width:0.9216;stroke-linecap:butt;stroke-linejoin:miter;stroke-miterlimit:3.25;stroke-dasharray:5.5296, 5.5296;stroke-dashoffset:0;stroke-opacity:1"
       transform="scale(1.3333333)" />
    <path
       id="path6"
       d="m 13.583416,-6.4217562 c 0,0.5390625 -0.08203,1.0664063 -0.199219,1.6054688 -0.140625,0.515625 -0.339844,1.03125 -0.585938,1.5117187 -0.257812,0.5039063 -0.574218,0.9609375 -0.9375,1.40625 -0.351562,0.421875 -0.773437,0.796875 -1.242187,1.11328126 -0.457031,0.33984375 -0.9609375,0.609375 -1.5117188,0.7851562525 C 8.5443532,0.17590006 7.9584157,0.28136881 7.337322,0.30480631 L 6.5638845,3.9844938 H 4.759197 L 5.5443532,0.30480631 c -0.5976562,0 -1.1601562,-0.10546875 -1.6640625,-0.28125 -0.5039062,-0.1875 -0.9140625,-0.4453125 -1.2773437,-0.76171875 C 2.2396657,-1.0780062 1.9584157,-1.4998812 1.759197,-2.0037874 1.5599782,-2.4959749 1.4662282,-3.0584749 1.4662282,-3.7264437 c 0,-0.6328125 0.070312,-1.2304687 0.2109375,-1.8164062 0.140625,-0.5742188 0.3398438,-1.1132813 0.609375,-1.640625 0.2578125,-0.4921875 0.5742188,-0.9609375 0.9609375,-1.3828125 0.375,-0.4101563 0.796875,-0.75 1.2773438,-1.0546875 0.4570312,-0.3046875 0.9726562,-0.5390621 1.5351562,-0.7031251 0.5625,-0.152344 1.1601563,-0.234375 1.78125,-0.257812 l 0.796875,-3.726563 h 1.7812498 l -0.7734373,3.726563 c 0.6328123,0.02344 1.2187503,0.117187 1.6992183,0.316406 0.503907,0.199219 0.902344,0.4804686 1.242188,0.8437498 0.316406,0.3632813 0.574219,0.796875 0.738281,1.3007813 0.175781,0.515625 0.257813,1.078125 0.257813,1.6992187 z m -1.898438,0.1757813 c 0,-0.9140625 -0.175781,-1.59375 -0.5625,-2.0507813 -0.363281,-0.4804687 -0.984375,-0.75 -1.816406,-0.8203125 l -1.640625,7.9570313 c 0.4570312,-0.023437 0.8789062,-0.1054688 1.2773437,-0.2578125 0.375,-0.140625 0.7148438,-0.3398438 1.0195313,-0.5976563 0.304687,-0.2460937 0.539062,-0.5390625 0.761719,-0.8671875 0.222656,-0.3398437 0.398437,-0.6796875 0.539062,-1.0546875 0.164063,-0.3867187 0.257813,-0.7617187 0.316406,-1.1601562 0.08203,-0.3867188 0.105469,-0.7851563 0.105469,-1.1484375 z M 7.5013845,-9.0233187 c -0.6796875,0.058594 -1.2773438,0.2226563 -1.8046875,0.4804688 -0.5390625,0.28125 -0.9726563,0.6210937 -1.3359375,1.0429687 -0.3632813,0.4335938 -0.6210938,0.9375 -0.796875,1.5234375 -0.1875,0.5742188 -0.28125,1.21875 -0.28125,1.8984375 0,0.9140625 0.2226562,1.59375 0.6445312,2.0742188 0.4101563,0.46875 1.078125,0.7265625 1.9335938,0.7382812 z m 0,0"
       style="fill:#000000;fill-opacity:1;fill-rule:nonzero;stroke:none"
       aria-label="ϕ"
       transform="matrix(1.3333333,0,0,1.3333333,102.6544,57.027185)" />
    <path
       id="path7"
       d="m 87.469,100.539 c 0,0.977 -0.391,1.914 -1.082,2.606 -0.692,0.691 -1.629,1.078 -2.606,1.078 -0.976,0 -1.914,-0.387 -2.605,-1.078 -0.692,-0.692 -1.082,-1.629 -1.082,-2.606 0,-0.98 0.39,-1.918 1.082,-2.609 0.691,-0.692 1.629,-1.078 2.605,-1.078 0.977,0 1.914,0.386 2.606,1.078 0.691,0.691 1.082,1.629 1.082,2.609 z"
       style="fill:#000000;fill-opacity:1;fill-rule:evenodd;stroke:none"
       transform="scale(1.3333333)" />
    <path
       id="path8"
       d="m 1.616619,-8.4133879 v -1.1367187 c 1.0898438,-0.1054688 1.8398438,-0.2929688 2.2617188,-0.5273434 0.421875,-0.246094 0.75,-0.84375 0.9492187,-1.757813 H 6.022869 V 6.74625e-4 H 4.4174003 V -8.4133879 Z m 0,0"
       style="fill:#000000;fill-opacity:1;fill-rule:nonzero;stroke:none"
       aria-label="1"
       transform="matrix(1.3333333,0,0,1.3333333,105.40701,246.24129)"
       clip-path="url(#clipPath9)" />
    <path
       id="path10"
       d="m 184.32,100.539 h 83.782"
       style="fill:none;stroke:#000000;stroke-width:0.9216;stroke-linecap:butt;stroke-linejoin:miter;stroke-miterlimit:3.25;stroke-dasharray:5.5296, 5.5296;stroke-dashoffset:0;stroke-opacity:1"
       transform="scale(1.3333333)" />
    <path
       id="path11"
       d="m 13.581084,-6.4212877 c 0,0.5390625 -0.08203,1.0664062 -0.199219,1.6054687 -0.140625,0.515625 -0.339844,1.03125 -0.585938,1.5117188 -0.257812,0.5039062 -0.574218,0.9609375 -0.9375,1.40625 -0.351562,0.421875 -0.773437,0.796875 -1.242187,1.1132812 -0.457031,0.33984375 -0.9609377,0.609375 -1.5117189,0.78515625 -0.5625,0.17578125 -1.1484375,0.28125 -1.7695313,0.3046875 L 6.5615523,3.9849623 H 4.7568648 L 5.5420211,0.30527475 c -0.5976563,0 -1.1601563,-0.10546875 -1.6640625,-0.28125 -0.5039063,-0.1875 -0.9140625,-0.4453125 -1.2773438,-0.76171875 -0.3632812,-0.3398437 -0.6445312,-0.7617187 -0.84375,-1.265625 -0.1992187,-0.4921875 -0.2929687,-1.0546875 -0.2929687,-1.7226562 0,-0.6328125 0.070312,-1.2304688 0.2109375,-1.8164063 0.140625,-0.5742187 0.3398437,-1.1132812 0.609375,-1.640625 0.2578125,-0.4921875 0.5742187,-0.9609375 0.9609375,-1.3828125 0.375,-0.4101562 0.796875,-0.75 1.2773437,-1.0546875 0.4570313,-0.3046875 0.9726563,-0.5390625 1.5351563,-0.7031245 0.5625,-0.152344 1.1601562,-0.234375 1.78125,-0.257813 l 0.796875,-3.726562 h 1.7812499 l -0.7734374,3.726562 c 0.6328124,0.02344 1.2187504,0.117188 1.6992184,0.316406 0.503907,0.199219 0.902344,0.480469 1.242188,0.8437503 0.316406,0.3632812 0.574219,0.796875 0.738281,1.3007812 0.175781,0.515625 0.257813,1.078125 0.257813,1.6992188 z m -1.898438,0.1757812 c 0,-0.9140625 -0.175781,-1.59375 -0.5625,-2.0507812 -0.363281,-0.4804688 -0.984375,-0.75 -1.8164062,-0.8203125 l -1.640625,7.9570312 c 0.4570313,-0.023437 0.8789063,-0.1054687 1.2773438,-0.2578125 0.375,-0.140625 0.7148437,-0.3398437 1.0195312,-0.5976562 0.3046872,-0.2460938 0.5390622,-0.5390625 0.7617192,-0.8671875 0.222656,-0.3398438 0.398437,-0.6796875 0.539062,-1.0546875 0.164063,-0.3867188 0.257813,-0.7617188 0.316406,-1.1601563 0.08203,-0.3867187 0.105469,-0.7851562 0.105469,-1.1484375 z M 7.4990523,-9.0228502 c -0.6796875,0.058594 -1.2773437,0.2226562 -1.8046875,0.4804687 -0.5390625,0.28125 -0.9726562,0.6210938 -1.3359375,1.0429688 -0.3632812,0.4335937 -0.6210937,0.9375 -0.796875,1.5234375 -0.1875,0.5742187 -0.28125,1.21875 -0.28125,1.8984375 0,0.9140625 0.2226563,1.59375 0.6445313,2.0742187 0.4101562,0.46875 1.078125,0.7265625 1.9335937,0.7382813 z m 0,0"
       style="fill:#000000;fill-opacity:1;fill-rule:nonzero;stroke:none"
       aria-label="ϕ"
       transform="matrix(1.3333333,0,0,1.3333333,292.55986,168.42109)" />
    <path
       id="path12"
       d="M 351.883,100.539 H 268.102"
       style="fill:none;stroke:#000000;stroke-width:0.9216;stroke-linecap:butt;stroke-linejoin:miter;stroke-miterlimit:3.25;stroke-dasharray:5.5296, 5.5296;stroke-dashoffset:0;stroke-opacity:1"
       transform="scale(1.3333333)" />
    <path
       id="path13"
       d="m 13.582468,-6.4207015 c 0,0.5390625 -0.08203,1.0664063 -0.199219,1.6054688 -0.140625,0.515625 -0.339844,1.03125 -0.585938,1.5117187 -0.257812,0.5039063 -0.574218,0.9609375 -0.9375,1.40625 -0.351562,0.421875 -0.773437,0.796875 -1.242187,1.11328125 -0.457031,0.33984375 -0.9609376,0.609375 -1.5117188,0.78515625 -0.5625,0.17578125 -1.1484375,0.28125 -1.7695313,0.3046875 L 6.5629364,3.9855485 H 4.7582489 L 5.5434052,0.305861 c -0.5976563,0 -1.1601563,-0.10546875 -1.6640625,-0.28125 C 3.3754364,-0.162889 2.9652802,-0.4207015 2.6019989,-0.73710775 2.2387177,-1.0769515 1.9574677,-1.4988265 1.7582489,-2.0027327 1.5590302,-2.4949202 1.4652802,-3.0574202 1.4652802,-3.725389 c 0,-0.6328125 0.070312,-1.2304687 0.2109375,-1.8164062 0.140625,-0.5742188 0.3398437,-1.1132813 0.609375,-1.640625 0.2578125,-0.4921875 0.5742187,-0.9609375 0.9609375,-1.3828125 0.375,-0.4101563 0.796875,-0.75 1.2773437,-1.0546875 0.4570313,-0.3046875 0.9726563,-0.5390628 1.5351563,-0.7031248 0.5625,-0.152344 1.1601562,-0.234375 1.78125,-0.257813 l 0.796875,-3.726562 h 1.7812498 l -0.7734373,3.726562 c 0.6328123,0.02344 1.2187503,0.117188 1.6992183,0.316407 0.503907,0.199218 0.902344,0.4804683 1.242188,0.8437495 0.316406,0.3632813 0.574219,0.796875 0.738281,1.3007813 0.175781,0.515625 0.257813,1.078125 0.257813,1.6992187 z m -1.898438,0.1757813 c 0,-0.9140625 -0.175781,-1.59375 -0.5625,-2.0507813 -0.363281,-0.4804687 -0.984375,-0.75 -1.8164061,-0.8203125 l -1.640625,7.9570313 c 0.4570313,-0.023437 0.8789063,-0.1054688 1.2773438,-0.2578125 0.375,-0.140625 0.7148437,-0.3398438 1.0195312,-0.5976563 0.3046871,-0.2460937 0.5390621,-0.5390625 0.7617191,-0.8671875 0.222656,-0.3398437 0.398437,-0.6796875 0.539062,-1.0546875 0.164063,-0.3867187 0.257813,-0.7617187 0.316406,-1.1601562 0.08203,-0.3867188 0.105469,-0.7851563 0.105469,-1.1484375 z M 7.5004364,-9.022264 c -0.6796875,0.058594 -1.2773437,0.2226563 -1.8046875,0.4804688 -0.5390625,0.28125 -0.9726562,0.6210937 -1.3359375,1.0429687 -0.3632812,0.4335938 -0.6210937,0.9375 -0.796875,1.5234375 -0.1875,0.5742188 -0.28125,1.21875 -0.28125,1.8984375 0,0.9140625 0.2226563,1.59375 0.6445313,2.0742188 0.4101562,0.46875 1.078125,0.7265625 1.9335937,0.7382812 z m 0,0"
       style="fill:#000000;fill-opacity:1;fill-rule:nonzero;stroke:none"
       aria-label="ϕ"
       transform="matrix(1.3333333,0,0,1.3333333,404.26895,118.46719)" />
    <path
       id="path14"
       d="m 263.914,104.727 8.375,-8.379"
       style="fill:none;stroke:#000000;stroke-width:2.7648;stroke-linecap:square;stroke-linejoin:miter;stroke-miterlimit:3.25;stroke-dasharray:none;stroke-opacity:1"
       transform="scale(1.3333333)" />
    <path
       id="path15"
       d="m 263.914,96.348 8.375,8.379"
       style="fill:none;stroke:#000000;stroke-width:2.7648;stroke-linecap:square;stroke-linejoin:miter;stroke-miterlimit:3.25;stroke-dasharray:none;stroke-opacity:1"
       transform="scale(1.3333333)" />
    <path
       id="path16"
       d="M 0.52806431,6.74625e-4 C 0.57493931,-1.0188566 0.78587681,-1.9094816 1.1608768,-2.6712004 c 0.375,-0.75 1.0898438,-1.4414062 2.15625,-2.0507812 l 1.59375,-0.9375 c 0.7148438,-0.4101563 1.2070313,-0.7617188 1.5,-1.0546875 0.4570313,-0.4570313 0.6796875,-0.984375 0.6796875,-1.5820313 0,-0.6796875 -0.1992187,-1.2421875 -0.6328125,-1.6523437 -0.3984375,-0.4101559 -0.9609375,-0.6093749 -1.640625,-0.6093749 -1.0429687,0 -1.734375,0.386719 -2.1328125,1.1718749 -0.2226562,0.4101562 -0.3164062,0.984375 -0.3515625,1.7226562 H 0.82103306 c 0.0117188,-1.0429687 0.19921874,-1.875 0.57421874,-2.5429691 0.6445313,-1.136718 1.78125,-1.710937 3.421875,-1.710937 1.359375,0 2.3554688,0.351562 2.9882813,1.101562 0.6328125,0.738282 0.9375,1.5468754 0.9375,2.4492191 0,0.9492188 -0.3398438,1.7695313 -1.0078125,2.4492188 -0.3867188,0.3867187 -1.0898438,0.8671875 -2.0742188,1.4296875 l -1.1367187,0.6328125 c -0.5390625,0.3046875 -0.9726563,0.5742187 -1.2890625,0.84375 -0.5507813,0.4921875 -0.9023438,1.0195312 -1.0429688,1.6054687 H 8.6843143 V 6.74625e-4 Z m 0,0"
       style="fill:#000000;fill-opacity:1;fill-rule:nonzero;stroke:none"
       aria-label="2"
       transform="matrix(1.3333333,0,0,1.3333333,351.16701,246.24129)"
       clip-path="url(#clipPath17)" />
  </g>
</svg>
