<?xml version="1.0" encoding="UTF-8" standalone="no"?>
<!-- Created with Inkscape (http://www.inkscape.org/) -->

<svg
   version="1.1"
   id="svg1"
   width="492"
   height="246.66667"
   viewBox="0 0 492 246.66667"
   sodipodi:docname="1nolf6xwdpe1a.pdf"
   xmlns:inkscape="http://www.inkscape.org/namespaces/inkscape"
   xmlns:sodipodi="http://sodipodi.sourceforge.net/DTD/sodipodi-0.dtd"
   xmlns="http://www.w3.org/2000/svg"
   xmlns:svg="http://www.w3.org/2000/svg">
  <defs
     id="defs1">
    <clipPath
       clipPathUnits="userSpaceOnUse"
       id="clipPath21">
      <path
         d="m 80,172 h 6 v 12.32 h -6 z"
         transform="translate(-79.055259,-184.68097)"
         id="path21" />
    </clipPath>
    <clipPath
       clipPathUnits="userSpaceOnUse"
       id="clipPath33">
      <path
         d="m 263,172 h 10 v 12.32 h -10 z"
         transform="translate(-263.37526,-184.68097)"
         id="path33" />
    </clipPath>
  </defs>
  <sodipodi:namedview
     id="namedview1"
     pagecolor="#ffffff"
     bordercolor="#999999"
     borderopacity="1"
     inkscape:showpageshadow="0"
     inkscape:pageopacity="0"
     inkscape:pagecheckerboard="0"
     inkscape:deskcolor="#d1d1d1">
    <inkscape:page
       x="0"
       y="0"
       id="page1"
       width="492"
       height="246.66667"
       margin="0"
       bleed="0" />
  </sodipodi:namedview>
  <g
     id="g1"
     inkscape:groupmode="layer"
     inkscape:label="">
    <path
       id="path1"
       d="m 0,58.648 58.648,8.379"
       style="fill:none;stroke:#000000;stroke-width:0.9216;stroke-linecap:square;stroke-linejoin:miter;stroke-miterlimit:3.25;stroke-dasharray:none;stroke-opacity:1"
       transform="scale(1.3333333)" />
    <path
       id="path2"
       d="M 34.301,63.547 23.875,65.441 24.82,58.809 Z"
       style="fill:#000000;fill-opacity:1;fill-rule:evenodd;stroke:none"
       transform="scale(1.3333333)" />
    <path
       id="path3"
       d="M 2.882809,0.00100413 H 0.4218715 L 7.4531215,-7.7099334 3.9492152,-15.05759 h 2.5664063 l 2.625,5.7773441 5.0390625,-5.7773441 h 2.425781 L 9.9960902,-7.7099334 13.65234,0.00100413 H 11.109371 L 8.3554652,-6.1747771 Z m 0,0"
       style="fill:#000000;fill-opacity:1;fill-rule:nonzero;stroke:none"
       aria-label="X"
       transform="matrix(1.3333333,0,0,1.3333333,30.468755,67.084599)" />
    <path
       id="path4"
       d="m 0,142.43 58.648,-8.379"
       style="fill:none;stroke:#000000;stroke-width:0.9216;stroke-linecap:butt;stroke-linejoin:miter;stroke-miterlimit:3.25;stroke-dasharray:5.5296, 5.5296;stroke-dashoffset:0;stroke-opacity:1"
       transform="scale(1.3333333)" />
    <path
       id="path5"
       d="m 13.582342,-6.4228194 c 0,0.5390625 -0.08203,1.0664062 -0.199218,1.6054687 -0.140625,0.515625 -0.339844,1.03125 -0.585938,1.5117188 -0.257812,0.5039062 -0.574219,0.9609375 -0.9375,1.40625 -0.351562,0.421875 -0.773437,0.796875 -1.242187,1.11328121 -0.457032,0.33984375 -0.9609378,0.609375 -1.5117191,0.7851562525 C 8.5432799,0.17483681 7.9573424,0.28030556 7.3362487,0.30374306 L 6.5628112,3.9834306 H 4.7581237 L 5.5432799,0.30374306 c -0.5976562,0 -1.1601562,-0.10546875 -1.6640625,-0.28125 -0.5039062,-0.1875 -0.9140625,-0.4453125 -1.2773437,-0.76171875 C 2.2385924,-1.0790694 1.9573424,-1.5009444 1.7581237,-2.0048507 1.5589049,-2.4970382 1.4651549,-3.0595382 1.4651549,-3.7275069 c 0,-0.6328125 0.070312,-1.2304688 0.2109375,-1.8164063 0.140625,-0.5742187 0.3398438,-1.1132812 0.609375,-1.640625 0.2578125,-0.4921875 0.5742188,-0.9609375 0.9609375,-1.3828125 0.375,-0.4101562 0.796875,-0.75 1.2773438,-1.0546875 0.4570312,-0.3046875 0.9726562,-0.5390628 1.5351562,-0.7031248 0.5625,-0.152344 1.1601563,-0.234375 1.78125,-0.257813 l 0.796875,-3.726562 H 10.41828 l -0.7734376,3.726562 c 0.6328126,0.02344 1.2187496,0.117188 1.6992186,0.316407 0.503906,0.199218 0.902344,0.4804683 1.242188,0.8437496 0.316406,0.3632812 0.574218,0.796875 0.738281,1.3007812 0.175781,0.515625 0.257812,1.078125 0.257812,1.6992188 z m -1.898437,0.1757812 c 0,-0.9140625 -0.175781,-1.59375 -0.5625,-2.0507812 -0.363281,-0.4804688 -0.984375,-0.75 -1.8164063,-0.8203125 l -1.640625,7.9570312 c 0.4570312,-0.023437 0.8789062,-0.1054687 1.2773437,-0.2578125 0.375,-0.140625 0.7148438,-0.3398437 1.0195313,-0.5976562 0.3046873,-0.2460938 0.5390623,-0.5390625 0.7617183,-0.8671875 0.222657,-0.3398438 0.398438,-0.6796875 0.539063,-1.0546875 0.164062,-0.3867188 0.257812,-0.7617188 0.316406,-1.1601563 0.08203,-0.3867187 0.105469,-0.7851562 0.105469,-1.1484375 z M 7.5003112,-9.0243819 c -0.6796875,0.058594 -1.2773438,0.2226562 -1.8046875,0.4804687 -0.5390625,0.28125 -0.9726563,0.6210938 -1.3359375,1.0429688 -0.3632813,0.4335937 -0.6210938,0.9375 -0.796875,1.5234375 -0.1875,0.5742187 -0.28125,1.21875 -0.28125,1.8984375 0,0.9140625 0.2226562,1.59375 0.6445312,2.0742187 0.4101563,0.46875 1.078125,0.7265625 1.9335938,0.7382813 z m 0,0"
       style="fill:#000000;fill-opacity:1;fill-rule:nonzero;stroke:none"
       aria-label="ϕ"
       transform="matrix(1.3333333,0,0,1.3333333,32.097241,218.54423)" />
    <path
       id="path6"
       d="M 167.562,100.539 H 113.105"
       style="fill:none;stroke:#000000;stroke-width:0.9216;stroke-linecap:square;stroke-linejoin:miter;stroke-miterlimit:3.25;stroke-dasharray:none;stroke-opacity:1"
       transform="scale(1.3333333)" />
    <path
       id="path7"
       d="m 145.363,100.539 -10.054,-3.351 v 6.703 z"
       style="fill:#000000;fill-opacity:1;fill-rule:evenodd;stroke:none"
       transform="scale(1.3333333)" />
    <path
       id="path8"
       d="M 2.8832277,1.6625e-5 H 0.42229019 L 7.4535402,-7.7109209 3.9496339,-15.058577 h 2.5664063 l 2.625,5.7773436 5.0390628,-5.7773436 h 2.425781 L 9.9965089,-7.7109209 13.652759,1.6625e-5 H 11.10979 L 8.3558839,-6.1757646 Z m 0,0"
       style="fill:#000000;fill-opacity:1;fill-rule:nonzero;stroke:none"
       aria-label="X"
       transform="matrix(1.3333333,0,0,1.3333333,176.0346,117.17967)" />
    <path
       id="path9"
       d="m 58.648,67.027 v 67.024"
       style="fill:none;stroke:#000000;stroke-width:0.9216;stroke-linecap:square;stroke-linejoin:miter;stroke-miterlimit:3.25;stroke-dasharray:none;stroke-opacity:1"
       transform="scale(1.3333333)" />
    <path
       id="path10"
       d="M 58.648,105.566 55.297,95.512 H 62 Z"
       style="fill:#000000;fill-opacity:1;fill-rule:evenodd;stroke:none"
       transform="scale(1.3333333)" />
    <path
       id="path11"
       d="M 2.8821361,-0.00107263 H 0.42119856 L 7.4524486,-7.7120101 3.9485423,-15.059666 h 2.5664063 l 2.625,5.7773434 5.0390624,-5.7773434 h 2.425781 l -6.6093747,7.3476559 3.6562497,7.71093747 H 11.108699 L 8.3547923,-6.1768539 Z m 0,0"
       style="fill:#000000;fill-opacity:1;fill-rule:nonzero;stroke:none"
       aria-label="X"
       transform="matrix(1.3333333,0,0,1.3333333,45.481371,144.19674)" />
    <path
       id="path12"
       d="m 58.648,67.027 54.457,33.512"
       style="fill:none;stroke:#000000;stroke-width:0.9216;stroke-linecap:butt;stroke-linejoin:miter;stroke-miterlimit:3.25;stroke-dasharray:5.5296, 5.5296;stroke-dashoffset:0;stroke-opacity:1"
       transform="scale(1.3333333)" />
    <path
       id="path13"
       d="m 13.581115,-6.4206465 c 0,0.5390625 -0.08203,1.0664062 -0.199219,1.6054687 -0.140625,0.515625 -0.339844,1.03125 -0.585937,1.5117188 -0.257813,0.5039062 -0.574219,0.9609375 -0.9375,1.40625 -0.351563,0.421875 -0.773438,0.796875 -1.242188,1.11328125 -0.457031,0.33984375 -0.9609374,0.609375 -1.5117187,0.78515625 -0.5625,0.17578125 -1.1484375,0.28125 -1.7695312,0.3046875 L 6.5615836,3.9856035 H 4.7568961 L 5.5420523,0.305916 c -0.5976562,0 -1.1601562,-0.10546875 -1.6640625,-0.28125 C 3.3740836,-0.162834 2.9639273,-0.4206465 2.6006461,-0.73705275 2.2373648,-1.0768965 1.9561148,-1.4987715 1.7568961,-2.0026778 1.5576773,-2.4948653 1.4639273,-3.0573653 1.4639273,-3.725334 c 0,-0.6328125 0.070312,-1.2304688 0.2109375,-1.8164063 0.140625,-0.5742187 0.3398438,-1.1132812 0.609375,-1.640625 0.2578125,-0.4921875 0.5742188,-0.9609375 0.9609375,-1.3828125 0.375,-0.4101562 0.796875,-0.75 1.2773438,-1.0546875 0.4570312,-0.3046875 0.9726562,-0.5390627 1.5351562,-0.7031247 0.5625,-0.152344 1.1601563,-0.234375 1.78125,-0.257813 l 0.796875,-3.726562 h 1.7812497 l -0.7734372,3.726562 c 0.6328122,0.02344 1.2187502,0.117188 1.6992192,0.316406 0.503906,0.199219 0.902343,0.4804692 1.242187,0.8437505 0.316406,0.3632812 0.574219,0.796875 0.738281,1.3007812 0.175782,0.515625 0.257813,1.078125 0.257813,1.6992188 z m -1.898438,0.1757812 c 0,-0.9140625 -0.175781,-1.59375 -0.5625,-2.0507812 -0.363281,-0.4804688 -0.984375,-0.75 -1.8164059,-0.8203125 l -1.640625,7.9570312 c 0.4570312,-0.023437 0.8789062,-0.1054687 1.2773437,-0.2578125 0.375,-0.140625 0.7148438,-0.3398437 1.0195313,-0.5976562 0.3046879,-0.2460938 0.5390629,-0.5390625 0.7617189,-0.8671875 0.222656,-0.3398438 0.398437,-0.6796875 0.539062,-1.0546875 0.164063,-0.3867188 0.257813,-0.7617188 0.316407,-1.1601563 0.08203,-0.3867187 0.105468,-0.7851562 0.105468,-1.1484375 z M 7.4990836,-9.022209 c -0.6796875,0.058594 -1.2773438,0.2226562 -1.8046875,0.4804687 -0.5390625,0.28125 -0.9726563,0.6210938 -1.3359375,1.0429688 -0.3632813,0.4335937 -0.6210938,0.9375 -0.796875,1.5234375 -0.1875,0.5742187 -0.28125,1.21875 -0.28125,1.8984375 0,0.9140625 0.2226562,1.59375 0.6445312,2.0742187 0.4101563,0.46875 1.078125,0.7265625 1.9335938,0.7382813 z m 0,0"
       style="fill:#000000;fill-opacity:1;fill-rule:nonzero;stroke:none"
       aria-label="ϕ"
       transform="matrix(1.3333333,0,0,1.3333333,115.35669,98.279612)" />
    <path
       id="path14"
       d="m 58.648,134.051 54.457,-33.512"
       style="fill:none;stroke:#000000;stroke-width:0.9216;stroke-linecap:square;stroke-linejoin:miter;stroke-miterlimit:3.25;stroke-dasharray:none;stroke-opacity:1"
       transform="scale(1.3333333)" />
    <path
       id="path15"
       d="m 90.156,114.66 -6.804,8.125 -3.512,-5.711 z"
       style="fill:#000000;fill-opacity:1;fill-rule:evenodd;stroke:none"
       transform="scale(1.3333333)" />
    <path
       id="path16"
       d="M 2.8827829,8.749375e-4 H 0.42184537 L 7.4530954,-7.7100626 3.9491891,-15.057719 h 2.5664063 l 2.625,5.7773439 5.0390626,-5.7773439 h 2.425781 L 9.9960641,-7.7100626 13.652314,8.749375e-4 H 11.109345 L 8.3554391,-6.1749063 Z m 0,0"
       style="fill:#000000;fill-opacity:1;fill-rule:nonzero;stroke:none"
       aria-label="X"
       transform="matrix(1.3333333,0,0,1.3333333,116.82035,190.98711)" />
    <path
       id="path17"
       d="m 62.332,67.027 c 0,0.977 -0.387,1.914 -1.078,2.606 -0.692,0.691 -1.629,1.078 -2.606,1.078 -0.98,0 -1.918,-0.387 -2.609,-1.078 -0.691,-0.692 -1.078,-1.629 -1.078,-2.606 0,-0.98 0.387,-1.918 1.078,-2.609 0.691,-0.691 1.629,-1.078 2.609,-1.078 0.977,0 1.914,0.387 2.606,1.078 0.691,0.691 1.078,1.629 1.078,2.609 z"
       style="fill:#000000;fill-opacity:1;fill-rule:evenodd;stroke:none"
       transform="scale(1.3333333)" />
    <path
       id="path18"
       d="m 62.332,134.051 c 0,0.976 -0.387,1.914 -1.078,2.605 -0.692,0.692 -1.629,1.082 -2.606,1.082 -0.98,0 -1.918,-0.39 -2.609,-1.082 -0.691,-0.691 -1.078,-1.629 -1.078,-2.605 0,-0.977 0.387,-1.914 1.078,-2.606 0.691,-0.691 1.629,-1.082 2.609,-1.082 0.977,0 1.914,0.391 2.606,1.082 0.691,0.692 1.078,1.629 1.078,2.606 z"
       style="fill:#000000;fill-opacity:1;fill-rule:evenodd;stroke:none"
       transform="scale(1.3333333)" />
    <path
       id="path19"
       d="m 116.793,100.539 c 0,0.977 -0.391,1.914 -1.082,2.606 -0.691,0.691 -1.629,1.078 -2.606,1.078 -0.976,0 -1.914,-0.387 -2.605,-1.078 -0.691,-0.692 -1.082,-1.629 -1.082,-2.606 0,-0.98 0.391,-1.918 1.082,-2.609 0.691,-0.692 1.629,-1.078 2.605,-1.078 0.977,0 1.915,0.386 2.606,1.078 0.691,0.691 1.082,1.629 1.082,2.609 z"
       style="fill:#000000;fill-opacity:1;fill-rule:evenodd;stroke:none"
       transform="scale(1.3333333)" />
    <path
       id="path20"
       d="m 1.616619,-8.4133879 v -1.1367187 c 1.0898438,-0.1054688 1.8398438,-0.2929688 2.2617188,-0.5273434 0.421875,-0.246094 0.75,-0.84375 0.9492187,-1.757813 H 6.022869 V 6.74625e-4 H 4.4174003 V -8.4133879 Z m 0,0"
       style="fill:#000000;fill-opacity:1;fill-rule:nonzero;stroke:none"
       aria-label="1"
       transform="matrix(1.3333333,0,0,1.3333333,105.40701,246.24129)"
       clip-path="url(#clipPath21)" />
    <path
       id="path22"
       d="m 184.32,58.648 75.403,41.891"
       style="fill:none;stroke:#000000;stroke-width:0.9216;stroke-linecap:square;stroke-linejoin:miter;stroke-miterlimit:3.25;stroke-dasharray:none;stroke-opacity:1"
       transform="scale(1.3333333)" />
    <path
       id="path23"
       d="M 226.418,82.035 216,80.082 l 3.254,-5.859 z"
       style="fill:#000000;fill-opacity:1;fill-rule:evenodd;stroke:none"
       transform="scale(1.3333333)" />
    <path
       id="path24"
       d="M 2.881767,0.00133825 H 0.4208295 l 7.03125,-7.71093755 -3.5039063,-7.3476567 h 2.5664063 l 2.625,5.7773442 5.0390625,-5.7773442 h 2.425781 L 9.9950482,-7.7095993 13.651298,0.00133825 H 11.108329 L 8.3544232,-6.174443 Z m 0,0"
       style="fill:#000000;fill-opacity:1;fill-rule:nonzero;stroke:none"
       aria-label="X"
       transform="matrix(1.3333333,0,0,1.3333333,272.22014,141.10759)" />
    <path
       id="path25"
       d="m 184.32,142.43 75.403,-41.891"
       style="fill:none;stroke:#000000;stroke-width:0.9216;stroke-linecap:butt;stroke-linejoin:miter;stroke-miterlimit:3.25;stroke-dasharray:5.5296, 5.5296;stroke-dashoffset:0;stroke-opacity:1"
       transform="scale(1.3333333)" />
    <path
       id="path26"
       d="m 13.581055,-6.4228666 c 0,0.5390625 -0.08203,1.0664063 -0.199218,1.6054688 -0.140625,0.515625 -0.339844,1.03125 -0.585938,1.5117187 -0.257812,0.5039063 -0.574219,0.9609375 -0.9375,1.40625 -0.351562,0.421875 -0.773437,0.796875 -1.242187,1.11328129 -0.457032,0.33984375 -0.9609379,0.609375 -1.5117192,0.7851562475 C 8.5419928,0.17478969 7.9560553,0.28025844 7.3349616,0.30369594 L 6.5615241,3.9833834 H 4.7568366 L 5.5419928,0.30369594 c -0.5976562,0 -1.1601562,-0.10546875 -1.6640625,-0.28125 -0.5039062,-0.1875 -0.9140625,-0.4453125 -1.2773437,-0.76171875 C 2.2373053,-1.0791166 1.9560553,-1.5009916 1.7568366,-2.0048978 1.5576178,-2.4970853 1.4638678,-3.0595853 1.4638678,-3.7275541 c 0,-0.6328125 0.070312,-1.2304687 0.2109375,-1.8164062 0.140625,-0.5742188 0.3398438,-1.1132813 0.609375,-1.640625 0.2578125,-0.4921875 0.5742188,-0.9609375 0.9609375,-1.3828125 0.375,-0.4101563 0.796875,-0.75 1.2773438,-1.0546875 0.4570312,-0.3046875 0.9726562,-0.5390627 1.5351562,-0.7031247 0.5625,-0.152344 1.1601563,-0.234375 1.78125,-0.257813 l 0.796875,-3.726562 h 1.7812502 l -0.7734377,3.726562 c 0.6328127,0.02344 1.2187497,0.117188 1.6992187,0.316406 0.503906,0.199219 0.902344,0.4804692 1.242188,0.8437504 0.316406,0.3632813 0.574218,0.796875 0.738281,1.3007813 0.175781,0.515625 0.257812,1.078125 0.257812,1.6992187 z m -1.898437,0.1757813 c 0,-0.9140625 -0.175781,-1.59375 -0.5625,-2.0507813 -0.363281,-0.4804687 -0.984375,-0.75 -1.8164064,-0.8203125 l -1.640625,7.9570313 c 0.4570312,-0.023437 0.8789062,-0.1054688 1.2773437,-0.2578125 0.375,-0.140625 0.7148438,-0.3398438 1.0195313,-0.5976563 0.3046874,-0.2460937 0.5390624,-0.5390625 0.7617184,-0.8671875 0.222657,-0.3398437 0.398438,-0.6796875 0.539063,-1.0546875 0.164062,-0.3867187 0.257812,-0.7617187 0.316406,-1.1601562 0.08203,-0.3867188 0.105469,-0.7851563 0.105469,-1.1484375 z M 7.4990241,-9.0244291 c -0.6796875,0.058594 -1.2773438,0.2226563 -1.8046875,0.4804688 -0.5390625,0.28125 -0.9726563,0.6210937 -1.3359375,1.0429687 -0.3632813,0.4335938 -0.6210938,0.9375 -0.796875,1.5234375 -0.1875,0.5742188 -0.28125,1.21875 -0.28125,1.8984375 0,0.9140625 0.2226562,1.59375 0.6445312,2.0742188 0.4101563,0.46875 1.078125,0.7265625 1.9335938,0.7382812 z m 0,0"
       style="fill:#000000;fill-opacity:1;fill-rule:nonzero;stroke:none"
       aria-label="ϕ"
       transform="matrix(1.3333333,0,0,1.3333333,296.32552,194.52085)" />
    <path
       id="path27"
       d="m 351.883,100.539 h -92.16"
       style="fill:none;stroke:#000000;stroke-width:0.9216;stroke-linecap:square;stroke-linejoin:miter;stroke-miterlimit:3.25;stroke-dasharray:none;stroke-opacity:1"
       transform="scale(1.3333333)" />
    <path
       id="path28"
       d="m 310.832,100.539 -10.055,-3.351 v 6.703 z"
       style="fill:#000000;fill-opacity:1;fill-rule:evenodd;stroke:none"
       transform="scale(1.3333333)" />
    <path
       id="path29"
       d="M 2.8828867,1.6625e-5 H 0.42194919 L 7.4531992,-7.7109209 3.9492929,-15.058577 h 2.5664063 l 2.625,5.7773436 5.0390628,-5.7773436 h 2.425781 L 9.9961679,-7.7109209 13.652418,1.6625e-5 H 11.109449 L 8.3555429,-6.1757646 Z m 0,0"
       style="fill:#000000;fill-opacity:1;fill-rule:nonzero;stroke:none"
       aria-label="X"
       transform="matrix(1.3333333,0,0,1.3333333,396.66006,117.17967)" />
    <path
       id="path30"
       d="m 255.535,104.727 8.379,-8.379"
       style="fill:none;stroke:#000000;stroke-width:2.7648;stroke-linecap:square;stroke-linejoin:miter;stroke-miterlimit:3.25;stroke-dasharray:none;stroke-opacity:1"
       transform="scale(1.3333333)" />
    <path
       id="path31"
       d="m 255.535,96.348 8.379,8.379"
       style="fill:none;stroke:#000000;stroke-width:2.7648;stroke-linecap:square;stroke-linejoin:miter;stroke-miterlimit:3.25;stroke-dasharray:none;stroke-opacity:1"
       transform="scale(1.3333333)" />
    <path
       id="path32"
       d="M 0.52806431,6.74625e-4 C 0.57493931,-1.0188566 0.78587681,-1.9094816 1.1608768,-2.6712004 c 0.375,-0.75 1.0898438,-1.4414062 2.15625,-2.0507812 l 1.59375,-0.9375 c 0.7148438,-0.4101563 1.2070313,-0.7617188 1.5,-1.0546875 0.4570313,-0.4570313 0.6796875,-0.984375 0.6796875,-1.5820313 0,-0.6796875 -0.1992187,-1.2421875 -0.6328125,-1.6523437 -0.3984375,-0.4101559 -0.9609375,-0.6093749 -1.640625,-0.6093749 -1.0429687,0 -1.734375,0.386719 -2.1328125,1.1718749 -0.2226562,0.4101562 -0.3164062,0.984375 -0.3515625,1.7226562 H 0.82103306 c 0.0117188,-1.0429687 0.19921874,-1.875 0.57421874,-2.5429691 0.6445313,-1.136718 1.78125,-1.710937 3.421875,-1.710937 1.359375,0 2.3554688,0.351562 2.9882813,1.101562 0.6328125,0.738282 0.9375,1.5468754 0.9375,2.4492191 0,0.9492188 -0.3398438,1.7695313 -1.0078125,2.4492188 -0.3867188,0.3867187 -1.0898438,0.8671875 -2.0742188,1.4296875 l -1.1367187,0.6328125 c -0.5390625,0.3046875 -0.9726563,0.5742187 -1.2890625,0.84375 -0.5507813,0.4921875 -0.9023438,1.0195312 -1.0429688,1.6054687 H 8.6843143 V 6.74625e-4 Z m 0,0"
       style="fill:#000000;fill-opacity:1;fill-rule:nonzero;stroke:none"
       aria-label="2"
       transform="matrix(1.3333333,0,0,1.3333333,351.16701,246.24129)"
       clip-path="url(#clipPath33)" />
  </g>
</svg>
