<?xml version="1.0" encoding="UTF-8" standalone="no"?>
<!-- Created with Inkscape (http://www.inkscape.org/) -->

<svg
   version="1.1"
   id="svg2"
   width="492"
   height="246.66667"
   viewBox="0 0 492 246.66667"
   sodipodi:docname="0w56bitydf64o.pdf"
   xmlns:inkscape="http://www.inkscape.org/namespaces/inkscape"
   xmlns:sodipodi="http://sodipodi.sourceforge.net/DTD/sodipodi-0.dtd"
   xmlns="http://www.w3.org/2000/svg"
   xmlns:svg="http://www.w3.org/2000/svg">
  <defs
     id="defs6">
    <clipPath
       clipPathUnits="userSpaceOnUse"
       id="clipPath22">
      <path
         d="m 11,93 h 11.801 v 12 H 11 Z"
         id="path20" />
    </clipPath>
    <clipPath
       clipPathUnits="userSpaceOnUse"
       id="clipPath38">
      <path
         d="m 30,135 h 10.559 v 16 H 30 Z"
         id="path36" />
    </clipPath>
    <clipPath
       clipPathUnits="userSpaceOnUse"
       id="clipPath62">
      <path
         d="m 148,101 h 9.68 v 16 H 148 Z"
         id="path60" />
    </clipPath>
    <clipPath
       clipPathUnits="userSpaceOnUse"
       id="clipPath88">
      <path
         d="m 80,172 h 5 v 12.32 h -5 z"
         id="path86" />
    </clipPath>
    <clipPath
       clipPathUnits="userSpaceOnUse"
       id="clipPath106">
      <path
         d="m 220,79 h 11.84 V 92 H 220 Z"
         id="path104" />
    </clipPath>
    <clipPath
       clipPathUnits="userSpaceOnUse"
       id="clipPath136">
      <path
         d="m 333,101 h 10.441 v 16 H 333 Z"
         id="path134" />
    </clipPath>
    <clipPath
       clipPathUnits="userSpaceOnUse"
       id="clipPath154">
      <path
         d="m 250,96 h 11.84 v 13 H 250 Z"
         id="path152" />
    </clipPath>
    <clipPath
       clipPathUnits="userSpaceOnUse"
       id="clipPath172">
      <path
         d="m 263,172 h 10 v 12.32 h -10 z"
         id="path170" />
    </clipPath>
  </defs>
  <sodipodi:namedview
     id="namedview4"
     pagecolor="#ffffff"
     bordercolor="#999999"
     borderopacity="1"
     inkscape:showpageshadow="0"
     inkscape:pageopacity="0"
     inkscape:pagecheckerboard="0"
     inkscape:deskcolor="#d1d1d1" />
  <g
     id="g8"
     inkscape:groupmode="layer"
     inkscape:label="0w56bitydf64o"
     transform="matrix(1.3333333,0,0,1.3333333,0,9.5e-6)">
    <g
       id="g10">
      <path
         d="m 0,58.648 50.27,41.891"
         style="fill:none;stroke:#000000;stroke-width:0.9216;stroke-linecap:square;stroke-linejoin:miter;stroke-miterlimit:3.25;stroke-dasharray:none;stroke-opacity:1"
         id="path12" />
      <path
         d="m 28.996,82.812 -9.867,-3.863 4.289,-5.148 z"
         style="fill:#000000;fill-opacity:1;fill-rule:evenodd;stroke:none"
         id="path14" />
    </g>
    <g
       id="g16">
      <g
         id="g18"
         clip-path="url(#clipPath22)">
        <text
           xml:space="preserve"
           transform="translate(9.7339,104.45499)"
           style="font-variant:normal;font-size:21.12px;font-family:CairoFont-0;-inkscape-font-specification:CairoFont-0-0;writing-mode:lr-tb;fill:#000000;fill-opacity:1;fill-rule:nonzero;stroke:none"
           id="text26"><tspan
             x="0"
             y="0"
             id="tspan24">e</tspan></text>
      </g>
    </g>
    <g
       id="g28">
      <path
         d="m 50.27,100.539 -1.122,-0.035 -1.058,0.043 -0.942,0.18 -0.789,0.363 -0.613,0.57 -0.445,0.778 -0.305,0.945 -0.203,1.066 -0.16,1.117 -0.184,1.09 -0.265,0.996 -0.395,0.836 -0.555,0.641 -0.734,0.433 -0.895,0.239 -1.023,0.078 -1.105,-0.016 -1.129,-0.043 -1.082,0.012 -0.989,0.125 -0.843,0.301 -0.672,0.5 -0.5,0.711 -0.348,0.894 -0.23,1.032 -0.168,1.109 -0.172,1.109 -0.231,1.032 -0.343,0.894 -0.5,0.711 -0.676,0.5 -0.844,0.301 -0.984,0.125 -1.086,0.012 -1.125,-0.043 -1.11,-0.016 -1.023,0.078 -0.895,0.238 -0.73,0.434 -0.559,0.641 -0.394,0.835 -0.266,0.993 -0.18,1.093 -0.164,1.114 -0.203,1.066 -0.301,0.949 -0.449,0.774 -0.613,0.574 -0.789,0.363 -0.941,0.18 -1.059,0.039 -1.121,-0.031 -1.121,-0.035 -1.059,0.039 -0.941,0.179 -0.789,0.368 -0.614,0.57 -0.445,0.777 -0.305,0.945 -0.203,1.067 -0.164,1.117 -0.179,1.09 -0.266,0.992 -0.395,0.84 -0.558,0.641 -0.731,0.433 -0.894,0.235 -1.024,0.082 -1.109,-0.02 -1.125,-0.039 -1.086,0.008 -0.984,0.125 -0.844,0.301 -0.676,0.5 -0.5,0.711 -0.348,0.894 -0.23,1.031 L 0,142.43"
         style="fill:none;stroke:#000000;stroke-width:0.9216;stroke-linecap:square;stroke-linejoin:miter;stroke-miterlimit:3.25;stroke-dasharray:none;stroke-opacity:1"
         id="path30" />
    </g>
    <g
       id="g32">
      <g
         id="g34"
         clip-path="url(#clipPath38)">
        <text
           xml:space="preserve"
           transform="translate(28.380972,146.3459)"
           style="font-variant:normal;font-size:20.16px;font-family:CairoFont-1;-inkscape-font-specification:CairoFont-1-1;writing-mode:lr-tb;fill:#000000;fill-opacity:1;fill-rule:nonzero;stroke:none"
           id="text42"><tspan
             x="0"
             y="0"
             id="tspan40">γ</tspan></text>
      </g>
    </g>
    <g
       id="g44">
      <path
         d="m 167.562,58.648 -50.269,41.891"
         style="fill:none;stroke:#000000;stroke-width:0.9216;stroke-linecap:square;stroke-linejoin:miter;stroke-miterlimit:3.25;stroke-dasharray:none;stroke-opacity:1"
         id="path46" />
      <path
         d="m 146.289,76.375 -9.867,3.863 4.289,5.149 z"
         style="fill:#000000;fill-opacity:1;fill-rule:evenodd;stroke:none"
         id="path48" />
      <text
         xml:space="preserve"
         transform="translate(127.02845,69.949215)"
         style="font-variant:normal;font-size:21.12px;font-family:CairoFont-0;-inkscape-font-specification:CairoFont-0-0;writing-mode:lr-tb;fill:#000000;fill-opacity:1;fill-rule:nonzero;stroke:none"
         id="text52"><tspan
           x="0"
           y="0"
           id="tspan50">e</tspan></text>
      <path
         d="m 117.293,100.539 0.172,1.106 0.23,1.035 0.348,0.894 0.5,0.711 0.672,0.5 0.844,0.301 0.988,0.125 1.082,0.008 1.129,-0.043 1.105,-0.016 1.024,0.078 0.894,0.239 0.735,0.433 0.554,0.641 0.395,0.836 0.265,0.996 0.184,1.09 0.16,1.117 0.207,1.066 0.301,0.946 0.445,0.777 0.618,0.57 0.789,0.363 0.941,0.18 1.059,0.043 1.117,-0.035 1.121,-0.035 1.058,0.043 0.942,0.18 0.789,0.363 0.617,0.57 0.445,0.777 0.301,0.946 0.207,1.066 0.16,1.117 0.184,1.09 0.262,0.996 0.394,0.836 0.559,0.641 0.73,0.433 0.895,0.235 1.027,0.082 1.106,-0.016 1.125,-0.043 1.086,0.008 0.988,0.129 0.844,0.297 0.671,0.504 0.5,0.707 0.348,0.894 0.231,1.035 0.168,1.11 0.168,1.105 0.23,1.035 0.348,0.895 0.5,0.707 0.675,0.504 0.84,0.301 0.989,0.125 1.086,0.008 1.125,-0.043 1.105,-0.016 1.027,0.082 0.895,0.238 0.73,0.43 0.559,0.644 0.394,0.836 0.262,0.993 0.184,1.093 0.16,1.114 0.207,1.066 0.301,0.949 0.445,0.774 0.617,0.574 0.785,0.363 0.946,0.18 1.058,0.039 1.117,-0.031"
         style="fill:none;stroke:#000000;stroke-width:0.9216;stroke-linecap:square;stroke-linejoin:miter;stroke-miterlimit:3.25;stroke-dasharray:none;stroke-opacity:1"
         id="path54" />
    </g>
    <g
       id="g56">
      <g
         id="g58"
         clip-path="url(#clipPath62)">
        <text
           xml:space="preserve"
           transform="translate(145.67552,111.84013)"
           style="font-variant:normal;font-size:20.16px;font-family:CairoFont-1;-inkscape-font-specification:CairoFont-1-1;writing-mode:lr-tb;fill:#000000;fill-opacity:1;fill-rule:nonzero;stroke:none"
           id="text66"><tspan
             x="0"
             y="0"
             id="tspan64">γ</tspan></text>
      </g>
    </g>
    <g
       id="g68">
      <path
         d="m 50.27,100.539 h 67.023"
         style="fill:none;stroke:#000000;stroke-width:0.9216;stroke-linecap:square;stroke-linejoin:miter;stroke-miterlimit:3.25;stroke-dasharray:none;stroke-opacity:1"
         id="path70" />
      <path
         d="m 88.809,100.539 -10.055,3.352 v -6.703 z"
         style="fill:#000000;fill-opacity:1;fill-rule:evenodd;stroke:none"
         id="path72" />
      <text
         xml:space="preserve"
         transform="translate(77.704709,128.41036)"
         style="font-variant:normal;font-size:21.12px;font-family:CairoFont-0;-inkscape-font-specification:CairoFont-0-0;writing-mode:lr-tb;fill:#000000;fill-opacity:1;fill-rule:nonzero;stroke:none"
         id="text76"><tspan
           x="0"
           y="0"
           id="tspan74">e</tspan></text>
      <path
         d="m 53.957,100.539 c 0,0.977 -0.391,1.914 -1.082,2.606 -0.691,0.691 -1.629,1.078 -2.605,1.078 -0.977,0 -1.915,-0.387 -2.606,-1.078 -0.691,-0.692 -1.082,-1.629 -1.082,-2.606 0,-0.98 0.391,-1.918 1.082,-2.609 0.691,-0.692 1.629,-1.078 2.606,-1.078 0.976,0 1.914,0.386 2.605,1.078 0.691,0.691 1.082,1.629 1.082,2.609 z"
         style="fill:#000000;fill-opacity:1;fill-rule:evenodd;stroke:none"
         id="path78" />
      <path
         d="m 120.98,100.539 c 0,0.977 -0.386,1.914 -1.078,2.606 -0.691,0.691 -1.629,1.078 -2.609,1.078 -0.977,0 -1.914,-0.387 -2.605,-1.078 -0.692,-0.692 -1.079,-1.629 -1.079,-2.606 0,-0.98 0.387,-1.918 1.079,-2.609 0.691,-0.692 1.628,-1.078 2.605,-1.078 0.98,0 1.918,0.386 2.609,1.078 0.692,0.691 1.078,1.629 1.078,2.609 z"
         style="fill:#000000;fill-opacity:1;fill-rule:evenodd;stroke:none"
         id="path80" />
    </g>
    <g
       id="g82">
      <g
         id="g84"
         clip-path="url(#clipPath88)">
        <text
           xml:space="preserve"
           transform="translate(79.055256,184.68097)"
           style="font-variant:normal;font-size:16.8px;font-family:CairoFont-2;-inkscape-font-specification:CairoFont-2-0;writing-mode:lr-tb;fill:#000000;fill-opacity:1;fill-rule:nonzero;stroke:none"
           id="text92"><tspan
             x="0"
             y="0"
             id="tspan90">1</tspan></text>
      </g>
    </g>
    <g
       id="g94">
      <path
         d="m 184.32,58.648 83.782,8.379"
         style="fill:none;stroke:#000000;stroke-width:0.9216;stroke-linecap:square;stroke-linejoin:miter;stroke-miterlimit:3.25;stroke-dasharray:none;stroke-opacity:1"
         id="path96" />
      <path
         d="M 231.211,63.336 220.875,65.672 221.543,59 Z"
         style="fill:#000000;fill-opacity:1;fill-rule:evenodd;stroke:none"
         id="path98" />
    </g>
    <g
       id="g100">
      <g
         id="g102"
         clip-path="url(#clipPath106)">
        <text
           xml:space="preserve"
           transform="translate(218.84163,90.644098)"
           style="font-variant:normal;font-size:21.12px;font-family:CairoFont-0;-inkscape-font-specification:CairoFont-0-0;writing-mode:lr-tb;fill:#000000;fill-opacity:1;fill-rule:nonzero;stroke:none"
           id="text110"><tspan
             x="0"
             y="0"
             id="tspan108">e</tspan></text>
      </g>
    </g>
    <g
       id="g112">
      <path
         d="m 268.102,134.051 -0.911,-0.621 -0.898,-0.539 -0.883,-0.383 -0.863,-0.168 -0.84,0.074 -0.816,0.313 -0.793,0.535 -0.774,0.695 -0.769,0.785 -0.766,0.793 -0.773,0.715 -0.793,0.566 -0.809,0.36 -0.836,0.117 -0.855,-0.125 -0.883,-0.348 -0.899,-0.515 -0.906,-0.614 -0.91,-0.625 -0.902,-0.562 -0.887,-0.414 -0.867,-0.211 -0.844,0.027 -0.82,0.274 -0.797,0.496 -0.778,0.672 -0.769,0.773 -0.766,0.797 -0.773,0.738 -0.785,0.598 -0.805,0.398 -0.832,0.164 -0.855,-0.082 -0.875,-0.312 -0.895,-0.488 -0.906,-0.602 -0.91,-0.633 -0.907,-0.578 -0.89,-0.445 -0.871,-0.25 -0.848,-0.02 -0.824,0.231 -0.801,0.457 -0.781,0.644 -0.77,0.762 -0.765,0.801 -0.77,0.754 -0.785,0.629 -0.801,0.437 -0.828,0.207 -0.848,-0.039 -0.875,-0.269 -0.89,-0.461 -0.907,-0.586 -0.91,-0.633 -0.902,-0.598 -0.895,-0.472 -0.875,-0.293 -0.855,-0.063 -0.824,0.188 -0.805,0.418 -0.785,0.613 -0.774,0.746 -0.765,0.801 -0.77,0.769 -0.781,0.656 -0.797,0.477 -0.82,0.25 -0.848,0.004 -0.867,-0.231 -0.891,-0.429 -0.902,-0.571 -0.91,-0.628 -0.906,-0.61 -0.899,-0.504 -0.879,-0.328 -0.855,-0.105 -0.832,0.14 -0.809,0.379 -0.789,0.582 -0.773,0.727 -0.766,0.797 -0.769,0.781 -0.778,0.684 -0.793,0.511 -0.816,0.297 -0.844,0.047 -0.863,-0.187 -0.887,-0.403 -0.902,-0.547 -0.907,-0.629 -0.91,-0.617 -0.898,-0.527 -0.883,-0.363 -0.859,-0.149 -0.836,0.094 -0.813,0.336 -0.793,0.551 -0.777,0.707 -0.766,0.789"
         style="fill:none;stroke:#000000;stroke-width:0.9216;stroke-linecap:square;stroke-linejoin:miter;stroke-miterlimit:3.25;stroke-dasharray:none;stroke-opacity:1"
         id="path114" />
      <text
         xml:space="preserve"
         transform="translate(221.92496,166.04773)"
         style="font-variant:normal;font-size:20.16px;font-family:CairoFont-1;-inkscape-font-specification:CairoFont-1-1;writing-mode:lr-tb;fill:#000000;fill-opacity:1;fill-rule:nonzero;stroke:none"
         id="text118"><tspan
           x="0"
           y="0"
           id="tspan116">γ</tspan></text>
      <path
         d="m 351.883,58.648 -83.781,75.403"
         style="fill:none;stroke:#000000;stroke-width:0.9216;stroke-linecap:square;stroke-linejoin:miter;stroke-miterlimit:3.25;stroke-dasharray:none;stroke-opacity:1"
         id="path120" />
      <path
         d="m 313.73,92.984 -9.714,4.239 4.484,4.98 z"
         style="fill:#000000;fill-opacity:1;fill-rule:evenodd;stroke:none"
         id="path122" />
      <text
         xml:space="preserve"
         transform="translate(314.06437,69.98771)"
         style="font-variant:normal;font-size:21.12px;font-family:CairoFont-0;-inkscape-font-specification:CairoFont-0-0;writing-mode:lr-tb;fill:#000000;fill-opacity:1;fill-rule:nonzero;stroke:none"
         id="text126"><tspan
           x="0"
           y="0"
           id="tspan124">e</tspan></text>
      <path
         d="m 268.102,67.027 0.144,1.098 0.199,1.031 0.313,0.91 0.465,0.746 0.629,0.555 0.8,0.371 0.946,0.203 1.054,0.086 1.11,0.024 1.109,0.031 1.039,0.098 0.93,0.222 0.777,0.395 0.61,0.582 0.441,0.766 0.297,0.929 0.187,1.047 0.141,1.102 0.148,1.093 0.215,1.02 0.328,0.891 0.485,0.722 0.656,0.528 0.82,0.347 0.961,0.188 1.067,0.07 1.113,0.023 1.102,0.036 1.031,0.109 0.91,0.246 0.754,0.418 0.586,0.609 0.418,0.789 0.281,0.95 0.18,1.054 0.136,1.106 0.153,1.09 0.226,1.004 0.352,0.871 0.504,0.695 0.676,0.504 0.843,0.324 0.981,0.168 1.074,0.063 1.113,0.019 1.094,0.039 1.02,0.129 0.89,0.266 0.735,0.441 0.562,0.633 0.398,0.816 0.262,0.965 0.172,1.067 0.137,1.109 0.156,1.078 0.242,0.992 0.367,0.848 0.532,0.668 0.699,0.48 0.859,0.301 0.996,0.153 1.086,0.05 1.114,0.02 1.085,0.051 1.004,0.14 0.872,0.289 0.71,0.469 0.543,0.656 0.375,0.84 0.25,0.981 0.164,1.074 0.133,1.109 0.168,1.071 0.254,0.976 0.391,0.824 0.551,0.645 0.722,0.457 0.879,0.277 1.012,0.133 1.09,0.047 1.117,0.019 1.078,0.059 0.988,0.16 0.852,0.309 0.687,0.492 0.516,0.684 0.359,0.859 0.235,1 0.156,1.082 0.137,1.105 0.175,1.063 0.27,0.957 0.406,0.805 0.574,0.621 0.747,0.429 0.902,0.254 1.023,0.121 1.098,0.039 1.113,0.02 1.071,0.066 0.972,0.18 0.828,0.332 0.668,0.52 0.493,0.707 0.339,0.883 0.223,1.011 0.148,1.09 0.137,1.106 0.184,1.05 0.289,0.938 0.43,0.781 0.593,0.594 0.77,0.406 0.918,0.238 1.039,0.106 1.101,0.031 1.114,0.024 1.058,0.078 0.953,0.195 0.813,0.359 0.641,0.543 0.472,0.731 0.321,0.902 0.21,1.027 0.282,2.196 0.199,1.043 0.301,0.918 0.453,0.758 0.617,0.57 0.789,0.379 0.938,0.215 1.05,0.093 1.106,0.028"
         style="fill:none;stroke:#000000;stroke-width:0.9216;stroke-linecap:square;stroke-linejoin:miter;stroke-miterlimit:3.25;stroke-dasharray:none;stroke-opacity:1"
         id="path128" />
    </g>
    <g
       id="g130">
      <g
         id="g132"
         clip-path="url(#clipPath136)">
        <text
           xml:space="preserve"
           transform="translate(331.45687,111.88735)"
           style="font-variant:normal;font-size:20.16px;font-family:CairoFont-1;-inkscape-font-specification:CairoFont-1-1;writing-mode:lr-tb;fill:#000000;fill-opacity:1;fill-rule:nonzero;stroke:none"
           id="text140"><tspan
             x="0"
             y="0"
             id="tspan138">γ</tspan></text>
      </g>
    </g>
    <g
       id="g142">
      <path
         d="m 268.102,67.027 v 67.024"
         style="fill:none;stroke:#000000;stroke-width:0.9216;stroke-linecap:square;stroke-linejoin:miter;stroke-miterlimit:3.25;stroke-dasharray:none;stroke-opacity:1"
         id="path144" />
      <path
         d="M 268.102,105.566 264.75,95.512 h 6.703 z"
         style="fill:#000000;fill-opacity:1;fill-rule:evenodd;stroke:none"
         id="path146" />
    </g>
    <g
       id="g148">
      <g
         id="g150"
         clip-path="url(#clipPath154)">
        <text
           xml:space="preserve"
           transform="translate(248.8672,108.14756)"
           style="font-variant:normal;font-size:21.12px;font-family:CairoFont-0;-inkscape-font-specification:CairoFont-0-0;writing-mode:lr-tb;fill:#000000;fill-opacity:1;fill-rule:nonzero;stroke:none"
           id="text158"><tspan
             x="0"
             y="0"
             id="tspan156">e</tspan></text>
      </g>
    </g>
    <g
       id="g160">
      <path
         d="m 271.789,67.027 c 0,0.977 -0.391,1.914 -1.082,2.606 -0.691,0.691 -1.629,1.078 -2.605,1.078 -0.977,0 -1.914,-0.387 -2.606,-1.078 -0.691,-0.692 -1.082,-1.629 -1.082,-2.606 0,-0.98 0.391,-1.918 1.082,-2.609 0.692,-0.691 1.629,-1.078 2.606,-1.078 0.976,0 1.914,0.387 2.605,1.078 0.691,0.691 1.082,1.629 1.082,2.609 z"
         style="fill:#000000;fill-opacity:1;fill-rule:evenodd;stroke:none"
         id="path162" />
      <path
         d="m 271.789,134.051 c 0,0.976 -0.391,1.914 -1.082,2.605 -0.691,0.692 -1.629,1.082 -2.605,1.082 -0.977,0 -1.914,-0.39 -2.606,-1.082 -0.691,-0.691 -1.082,-1.629 -1.082,-2.605 0,-0.977 0.391,-1.914 1.082,-2.606 0.692,-0.691 1.629,-1.082 2.606,-1.082 0.976,0 1.914,0.391 2.605,1.082 0.691,0.692 1.082,1.629 1.082,2.606 z"
         style="fill:#000000;fill-opacity:1;fill-rule:evenodd;stroke:none"
         id="path164" />
    </g>
    <g
       id="g166">
      <g
         id="g168"
         clip-path="url(#clipPath172)">
        <text
           xml:space="preserve"
           transform="translate(263.37526,184.68097)"
           style="font-variant:normal;font-size:16.8px;font-family:CairoFont-2;-inkscape-font-specification:CairoFont-2-0;writing-mode:lr-tb;fill:#000000;fill-opacity:1;fill-rule:nonzero;stroke:none"
           id="text176"><tspan
             x="0"
             y="0"
             id="tspan174">2</tspan></text>
      </g>
    </g>
  </g>
</svg>
