<?xml version="1.0" encoding="UTF-8" standalone="no"?>
<!-- Created with Inkscape (http://www.inkscape.org/) -->

<svg
   version="1.1"
   id="svg2"
   width="492"
   height="246.66667"
   viewBox="0 0 492 246.66667"
   sodipodi:docname="1mc9et7ink9jw.pdf"
   xmlns:inkscape="http://www.inkscape.org/namespaces/inkscape"
   xmlns:sodipodi="http://sodipodi.sourceforge.net/DTD/sodipodi-0.dtd"
   xmlns="http://www.w3.org/2000/svg"
   xmlns:svg="http://www.w3.org/2000/svg">
  <defs
     id="defs6">
    <clipPath
       clipPathUnits="userSpaceOnUse"
       id="clipPath46">
      <path
         d="m 122,114 h 11.922 v 13 H 122 Z"
         id="path44" />
    </clipPath>
    <clipPath
       clipPathUnits="userSpaceOnUse"
       id="clipPath62">
      <path
         d="m 67,97 h 9.801 v 16 H 67 Z"
         id="path60" />
    </clipPath>
    <clipPath
       clipPathUnits="userSpaceOnUse"
       id="clipPath80">
      <path
         d="m 80,172 h 5 v 12.32 h -5 z"
         id="path78" />
    </clipPath>
    <clipPath
       clipPathUnits="userSpaceOnUse"
       id="clipPath98">
      <path
         d="m 220,79 h 11.84 V 92 H 220 Z"
         id="path96" />
    </clipPath>
    <clipPath
       clipPathUnits="userSpaceOnUse"
       id="clipPath138">
      <path
         d="m 252,97 h 9.84 v 16 H 252 Z"
         id="path136" />
    </clipPath>
    <clipPath
       clipPathUnits="userSpaceOnUse"
       id="clipPath156">
      <path
         d="m 263,172 h 10 v 12.32 h -10 z"
         id="path154" />
    </clipPath>
  </defs>
  <sodipodi:namedview
     id="namedview4"
     pagecolor="#ffffff"
     bordercolor="#999999"
     borderopacity="1"
     inkscape:showpageshadow="0"
     inkscape:pageopacity="0"
     inkscape:pagecheckerboard="0"
     inkscape:deskcolor="#d1d1d1" />
  <g
     id="g8"
     inkscape:groupmode="layer"
     inkscape:label="1mc9et7ink9jw"
     transform="matrix(1.3333333,0,0,1.3333333,0,9.5e-6)">
    <g
       id="g10">
      <path
         d="m 0,58.648 83.781,8.379"
         style="fill:none;stroke:#000000;stroke-width:0.9216;stroke-linecap:square;stroke-linejoin:miter;stroke-miterlimit:3.25;stroke-dasharray:none;stroke-opacity:1"
         id="path12" />
      <path
         d="M 46.895,63.336 36.555,65.672 37.223,59 Z"
         style="fill:#000000;fill-opacity:1;fill-rule:evenodd;stroke:none"
         id="path14" />
      <text
         xml:space="preserve"
         transform="translate(34.521626,90.644098)"
         style="font-variant:normal;font-size:21.12px;font-family:CairoFont-0;-inkscape-font-specification:CairoFont-0-0;writing-mode:lr-tb;fill:#000000;fill-opacity:1;fill-rule:nonzero;stroke:none"
         id="text18"><tspan
           x="0"
           y="0"
           id="tspan16">e</tspan></text>
      <path
         d="m 0,142.43 83.781,-8.379"
         style="fill:none;stroke:#000000;stroke-width:0.9216;stroke-linecap:square;stroke-linejoin:miter;stroke-miterlimit:3.25;stroke-dasharray:none;stroke-opacity:1"
         id="path20" />
      <path
         d="m 46.895,137.738 -9.672,4.336 -0.668,-6.668 z"
         style="fill:#000000;fill-opacity:1;fill-rule:evenodd;stroke:none"
         id="path22" />
      <text
         xml:space="preserve"
         transform="translate(37.105973,166.04773)"
         style="font-variant:normal;font-size:21.12px;font-family:CairoFont-0;-inkscape-font-specification:CairoFont-0-0;writing-mode:lr-tb;fill:#000000;fill-opacity:1;fill-rule:nonzero;stroke:none"
         id="text26"><tspan
           x="0"
           y="0"
           id="tspan24">e</tspan></text>
      <path
         d="M 167.562,58.648 83.781,67.027"
         style="fill:none;stroke:#000000;stroke-width:0.9216;stroke-linecap:square;stroke-linejoin:miter;stroke-miterlimit:3.25;stroke-dasharray:none;stroke-opacity:1"
         id="path28" />
      <path
         d="M 130.676,62.336 120.336,60 l 0.668,6.672 z"
         style="fill:#000000;fill-opacity:1;fill-rule:evenodd;stroke:none"
         id="path30" />
      <text
         xml:space="preserve"
         transform="translate(118.30344,50.247379)"
         style="font-variant:normal;font-size:21.12px;font-family:CairoFont-0;-inkscape-font-specification:CairoFont-0-0;writing-mode:lr-tb;fill:#000000;fill-opacity:1;fill-rule:nonzero;stroke:none"
         id="text34"><tspan
           x="0"
           y="0"
           id="tspan32">e</tspan></text>
      <path
         d="M 167.562,142.43 83.781,134.051"
         style="fill:none;stroke:#000000;stroke-width:0.9216;stroke-linecap:square;stroke-linejoin:miter;stroke-miterlimit:3.25;stroke-dasharray:none;stroke-opacity:1"
         id="path36" />
      <path
         d="m 130.676,138.738 -9.672,-4.332 -0.668,6.668 z"
         style="fill:#000000;fill-opacity:1;fill-rule:evenodd;stroke:none"
         id="path38" />
    </g>
    <g
       id="g40">
      <g
         id="g42"
         clip-path="url(#clipPath46)">
        <text
           xml:space="preserve"
           transform="translate(120.88779,125.65102)"
           style="font-variant:normal;font-size:21.12px;font-family:CairoFont-0;-inkscape-font-specification:CairoFont-0-0;writing-mode:lr-tb;fill:#000000;fill-opacity:1;fill-rule:nonzero;stroke:none"
           id="text50"><tspan
             x="0"
             y="0"
             id="tspan48">e</tspan></text>
      </g>
    </g>
    <g
       id="g52">
      <path
         d="m 83.781,134.051 0.727,-0.836 0.633,-0.84 0.468,-0.836 0.243,-0.84 -0.016,-0.836 -0.27,-0.84 -0.488,-0.835 -0.648,-0.84 -0.731,-0.836 -0.719,-0.84 -0.621,-0.836 -0.445,-0.84 -0.215,-0.836 0.043,-0.84 0.297,-0.836 0.508,-0.839 0.664,-0.836 0.734,-0.84 0.711,-0.836 0.606,-0.84 0.418,-0.836 0.187,-0.84 -0.07,-0.836 -0.324,-0.84 -0.532,-0.836 -0.671,-0.835 -0.739,-0.84 -0.703,-0.836 -0.586,-0.84 -0.398,-0.836 -0.156,-0.84 0.097,-0.836 0.348,-0.84 0.551,-0.836 0.687,-0.839 0.734,-0.836 0.696,-0.84 0.57,-0.836 0.371,-0.84 0.129,-0.836 -0.129,-0.84 -0.371,-0.836 -0.57,-0.84 -0.696,-0.835 -0.734,-0.84 -0.687,-0.836 -0.551,-0.84 -0.348,-0.836 -0.097,-0.84 0.156,-0.836 0.398,-0.84 0.586,-0.836 0.703,-0.836 0.739,-0.839 0.671,-0.836 0.532,-0.84 0.324,-0.836 0.07,-0.84 -0.187,-0.836 -0.418,-0.84 -0.606,-0.836 -0.711,-0.84 -0.734,-0.835 -0.664,-0.84 -0.508,-0.836 -0.297,-0.84 -0.043,-0.836 0.215,-0.84 0.445,-0.836 0.621,-0.84 0.719,-0.836 0.731,-0.839 0.648,-0.836 0.488,-0.84 0.27,-0.836 0.016,-0.836 -0.243,-0.84 -0.468,-0.836 -0.633,-0.84 -0.727,-0.836"
         style="fill:none;stroke:#000000;stroke-width:0.9216;stroke-linecap:square;stroke-linejoin:miter;stroke-miterlimit:3.25;stroke-dasharray:none;stroke-opacity:1"
         id="path54" />
    </g>
    <g
       id="g56">
      <g
         id="g58"
         clip-path="url(#clipPath62)">
        <text
           xml:space="preserve"
           transform="translate(64.706511,108.14756)"
           style="font-variant:normal;font-size:20.16px;font-family:CairoFont-1;-inkscape-font-specification:CairoFont-1-1;writing-mode:lr-tb;fill:#000000;fill-opacity:1;fill-rule:nonzero;stroke:none"
           id="text66"><tspan
             x="0"
             y="0"
             id="tspan64">γ</tspan></text>
      </g>
    </g>
    <g
       id="g68">
      <path
         d="m 87.469,67.027 c 0,0.977 -0.391,1.914 -1.082,2.606 -0.692,0.691 -1.629,1.078 -2.606,1.078 -0.976,0 -1.914,-0.387 -2.605,-1.078 -0.692,-0.692 -1.082,-1.629 -1.082,-2.606 0,-0.98 0.39,-1.918 1.082,-2.609 0.691,-0.691 1.629,-1.078 2.605,-1.078 0.977,0 1.914,0.387 2.606,1.078 0.691,0.691 1.082,1.629 1.082,2.609 z"
         style="fill:#000000;fill-opacity:1;fill-rule:evenodd;stroke:none"
         id="path70" />
      <path
         d="m 87.469,134.051 c 0,0.976 -0.391,1.914 -1.082,2.605 -0.692,0.692 -1.629,1.082 -2.606,1.082 -0.976,0 -1.914,-0.39 -2.605,-1.082 -0.692,-0.691 -1.082,-1.629 -1.082,-2.605 0,-0.977 0.39,-1.914 1.082,-2.606 0.691,-0.691 1.629,-1.082 2.605,-1.082 0.977,0 1.914,0.391 2.606,1.082 0.691,0.692 1.082,1.629 1.082,2.606 z"
         style="fill:#000000;fill-opacity:1;fill-rule:evenodd;stroke:none"
         id="path72" />
    </g>
    <g
       id="g74">
      <g
         id="g76"
         clip-path="url(#clipPath80)">
        <text
           xml:space="preserve"
           transform="translate(79.055256,184.68097)"
           style="font-variant:normal;font-size:16.8px;font-family:CairoFont-2;-inkscape-font-specification:CairoFont-2-0;writing-mode:lr-tb;fill:#000000;fill-opacity:1;fill-rule:nonzero;stroke:none"
           id="text84"><tspan
             x="0"
             y="0"
             id="tspan82">1</tspan></text>
      </g>
    </g>
    <g
       id="g86">
      <path
         d="m 184.32,58.648 83.782,8.379"
         style="fill:none;stroke:#000000;stroke-width:0.9216;stroke-linecap:square;stroke-linejoin:miter;stroke-miterlimit:3.25;stroke-dasharray:none;stroke-opacity:1"
         id="path88" />
      <path
         d="M 231.211,63.336 220.875,65.672 221.543,59 Z"
         style="fill:#000000;fill-opacity:1;fill-rule:evenodd;stroke:none"
         id="path90" />
    </g>
    <g
       id="g92">
      <g
         id="g94"
         clip-path="url(#clipPath98)">
        <text
           xml:space="preserve"
           transform="translate(218.84163,90.644098)"
           style="font-variant:normal;font-size:21.12px;font-family:CairoFont-0;-inkscape-font-specification:CairoFont-0-0;writing-mode:lr-tb;fill:#000000;fill-opacity:1;fill-rule:nonzero;stroke:none"
           id="text102"><tspan
             x="0"
             y="0"
             id="tspan100">e</tspan></text>
      </g>
    </g>
    <g
       id="g104">
      <path
         d="m 184.32,142.43 83.782,-8.379"
         style="fill:none;stroke:#000000;stroke-width:0.9216;stroke-linecap:square;stroke-linejoin:miter;stroke-miterlimit:3.25;stroke-dasharray:none;stroke-opacity:1"
         id="path106" />
      <path
         d="m 231.211,137.738 -9.668,4.336 -0.668,-6.668 z"
         style="fill:#000000;fill-opacity:1;fill-rule:evenodd;stroke:none"
         id="path108" />
      <text
         xml:space="preserve"
         transform="translate(221.42597,166.04773)"
         style="font-variant:normal;font-size:21.12px;font-family:CairoFont-0;-inkscape-font-specification:CairoFont-0-0;writing-mode:lr-tb;fill:#000000;fill-opacity:1;fill-rule:nonzero;stroke:none"
         id="text112"><tspan
           x="0"
           y="0"
           id="tspan110">e</tspan></text>
      <path
         d="m 351.883,58.648 -83.781,75.403"
         style="fill:none;stroke:#000000;stroke-width:0.9216;stroke-linecap:square;stroke-linejoin:miter;stroke-miterlimit:3.25;stroke-dasharray:none;stroke-opacity:1"
         id="path114" />
      <path
         d="m 313.73,92.984 -9.714,4.239 4.484,4.98 z"
         style="fill:#000000;fill-opacity:1;fill-rule:evenodd;stroke:none"
         id="path116" />
      <text
         xml:space="preserve"
         transform="translate(314.06437,69.98771)"
         style="font-variant:normal;font-size:21.12px;font-family:CairoFont-0;-inkscape-font-specification:CairoFont-0-0;writing-mode:lr-tb;fill:#000000;fill-opacity:1;fill-rule:nonzero;stroke:none"
         id="text120"><tspan
           x="0"
           y="0"
           id="tspan118">e</tspan></text>
      <path
         d="M 351.883,142.43 268.102,67.027"
         style="fill:none;stroke:#000000;stroke-width:0.9216;stroke-linecap:square;stroke-linejoin:miter;stroke-miterlimit:3.25;stroke-dasharray:none;stroke-opacity:1"
         id="path122" />
      <path
         d="m 313.73,108.09 -5.23,-9.215 -4.484,4.98 z"
         style="fill:#000000;fill-opacity:1;fill-rule:evenodd;stroke:none"
         id="path124" />
      <text
         xml:space="preserve"
         transform="translate(331.45687,111.88735)"
         style="font-variant:normal;font-size:21.12px;font-family:CairoFont-0;-inkscape-font-specification:CairoFont-0-0;writing-mode:lr-tb;fill:#000000;fill-opacity:1;fill-rule:nonzero;stroke:none"
         id="text128"><tspan
           x="0"
           y="0"
           id="tspan126">e</tspan></text>
      <path
         d="m 268.102,134.051 0.726,-0.836 0.633,-0.84 0.469,-0.836 0.242,-0.84 -0.016,-0.836 -0.269,-0.84 -0.489,-0.835 -0.652,-0.84 -0.726,-0.836 -0.723,-0.84 -0.617,-0.836 -0.446,-0.84 -0.214,-0.836 0.042,-0.84 0.297,-0.836 0.508,-0.839 0.664,-0.836 0.735,-0.84 0.711,-0.836 0.605,-0.84 0.418,-0.836 0.188,-0.84 -0.075,-0.836 -0.32,-0.84 -0.531,-0.836 -0.676,-0.835 -0.734,-0.84 -0.704,-0.836 -0.586,-0.84 -0.398,-0.836 -0.16,-0.84 0.101,-0.836 0.348,-0.84 0.551,-0.836 0.687,-0.839 0.735,-0.836 0.695,-0.84 0.57,-0.836 0.371,-0.84 0.129,-0.836 -0.129,-0.84 -0.371,-0.836 -0.57,-0.84 -0.695,-0.835 -0.735,-0.84 -0.687,-0.836 -0.551,-0.84 -0.348,-0.836 -0.101,-0.84 0.16,-0.836 0.398,-0.84 0.586,-0.836 0.704,-0.836 0.734,-0.839 0.676,-0.836 0.531,-0.84 0.32,-0.836 0.075,-0.84 -0.188,-0.836 -0.418,-0.84 -0.605,-0.836 -0.711,-0.84 -0.735,-0.835 -0.664,-0.84 -0.508,-0.836 -0.297,-0.84 -0.042,-0.836 0.214,-0.84 0.446,-0.836 0.617,-0.84 0.723,-0.836 0.726,-0.839 0.652,-0.836 0.489,-0.84 0.269,-0.836 0.016,-0.836 -0.242,-0.84 -0.469,-0.836 -0.633,-0.84 -0.726,-0.836"
         style="fill:none;stroke:#000000;stroke-width:0.9216;stroke-linecap:square;stroke-linejoin:miter;stroke-miterlimit:3.25;stroke-dasharray:none;stroke-opacity:1"
         id="path130" />
    </g>
    <g
       id="g132">
      <g
         id="g134"
         clip-path="url(#clipPath138)">
        <text
           xml:space="preserve"
           transform="translate(249.86517,108.14756)"
           style="font-variant:normal;font-size:20.16px;font-family:CairoFont-1;-inkscape-font-specification:CairoFont-1-1;writing-mode:lr-tb;fill:#000000;fill-opacity:1;fill-rule:nonzero;stroke:none"
           id="text142"><tspan
             x="0"
             y="0"
             id="tspan140">γ</tspan></text>
      </g>
    </g>
    <g
       id="g144">
      <path
         d="m 271.789,67.027 c 0,0.977 -0.391,1.914 -1.082,2.606 -0.691,0.691 -1.629,1.078 -2.605,1.078 -0.977,0 -1.914,-0.387 -2.606,-1.078 -0.691,-0.692 -1.082,-1.629 -1.082,-2.606 0,-0.98 0.391,-1.918 1.082,-2.609 0.692,-0.691 1.629,-1.078 2.606,-1.078 0.976,0 1.914,0.387 2.605,1.078 0.691,0.691 1.082,1.629 1.082,2.609 z"
         style="fill:#000000;fill-opacity:1;fill-rule:evenodd;stroke:none"
         id="path146" />
      <path
         d="m 271.789,134.051 c 0,0.976 -0.391,1.914 -1.082,2.605 -0.691,0.692 -1.629,1.082 -2.605,1.082 -0.977,0 -1.914,-0.39 -2.606,-1.082 -0.691,-0.691 -1.082,-1.629 -1.082,-2.605 0,-0.977 0.391,-1.914 1.082,-2.606 0.692,-0.691 1.629,-1.082 2.606,-1.082 0.976,0 1.914,0.391 2.605,1.082 0.691,0.692 1.082,1.629 1.082,2.606 z"
         style="fill:#000000;fill-opacity:1;fill-rule:evenodd;stroke:none"
         id="path148" />
    </g>
    <g
       id="g150">
      <g
         id="g152"
         clip-path="url(#clipPath156)">
        <text
           xml:space="preserve"
           transform="translate(263.37526,184.68097)"
           style="font-variant:normal;font-size:16.8px;font-family:CairoFont-2;-inkscape-font-specification:CairoFont-2-0;writing-mode:lr-tb;fill:#000000;fill-opacity:1;fill-rule:nonzero;stroke:none"
           id="text160"><tspan
             x="0"
             y="0"
             id="tspan158">2</tspan></text>
      </g>
    </g>
  </g>
</svg>
